<?xml version="1.0" encoding="UTF-8" standalone="no"?>
<!DOCTYPE svg PUBLIC "-//W3C//DTD SVG 1.1//EN"
 "http://www.w3.org/Graphics/SVG/1.1/DTD/svg11.dtd">
<!-- Generated by graphviz version 2.49.3 (20211023.0002)
 -->
<!-- Title: G Pages: 1 -->
<svg width="193pt" height="152pt"
 viewBox="0.00 0.00 193.00 152.00" xmlns="http://www.w3.org/2000/svg" xmlns:xlink="http://www.w3.org/1999/xlink">
<g id="graph0" class="graph" transform="scale(1 1) rotate(0) translate(4 148)">
<title>G</title>
<polygon fill="white" stroke="transparent" points="-4,4 -4,-148 189,-148 189,4 -4,4"/>
<!-- observable -->
<g id="node1" class="node">
<title>observable</title>
<polygon fill="none" stroke="black" points="77,-90 0,-90 0,-54 77,-54 77,-90"/>
<text text-anchor="middle" x="38.5" y="-68.3" font-family="Times,serif" font-size="14.00">observable</text>
</g>
<!-- observer1 -->
<g id="node2" class="node">
<title>observer1</title>
<polygon fill="none" stroke="black" points="185,-144 113,-144 113,-108 185,-108 185,-144"/>
<text text-anchor="middle" x="149" y="-122.3" font-family="Times,serif" font-size="14.00">observer1</text>
</g>
<!-- observable&#45;&gt;observer1 -->
<g id="edge1" class="edge">
<title>observable&#45;&gt;observer1</title>
<path fill="none" stroke="black" d="M75.93,-90.13C84.89,-94.59 94.57,-99.41 103.85,-104.03"/>
<polygon fill="black" stroke="black" points="102.44,-107.23 112.95,-108.56 105.56,-100.97 102.44,-107.23"/>
</g>
<!-- observer2 -->
<g id="node3" class="node">
<title>observer2</title>
<polygon fill="none" stroke="black" points="185,-90 113,-90 113,-54 185,-54 185,-90"/>
<text text-anchor="middle" x="149" y="-68.3" font-family="Times,serif" font-size="14.00">observer2</text>
</g>
<!-- observable&#45;&gt;observer2 -->
<g id="edge2" class="edge">
<title>observable&#45;&gt;observer2</title>
<path fill="none" stroke="black" d="M77.14,-72C85.41,-72 94.25,-72 102.78,-72"/>
<polygon fill="black" stroke="black" points="102.97,-75.5 112.97,-72 102.97,-68.5 102.97,-75.5"/>
</g>
<!-- observer3 -->
<g id="node4" class="node">
<title>observer3</title>
<polygon fill="none" stroke="black" points="185,-36 113,-36 113,0 185,0 185,-36"/>
<text text-anchor="middle" x="149" y="-14.3" font-family="Times,serif" font-size="14.00">observer3</text>
</g>
<!-- observable&#45;&gt;observer3 -->
<g id="edge3" class="edge">
<title>observable&#45;&gt;observer3</title>
<path fill="none" stroke="black" d="M75.93,-53.87C84.89,-49.41 94.57,-44.59 103.85,-39.97"/>
<polygon fill="black" stroke="black" points="105.56,-43.03 112.95,-35.44 102.44,-36.77 105.56,-43.03"/>
</g>
</g>
</svg>
