<?xml version="1.0" encoding="UTF-8" standalone="no"?>
<!DOCTYPE svg PUBLIC "-//W3C//DTD SVG 1.1//EN"
 "http://www.w3.org/Graphics/SVG/1.1/DTD/svg11.dtd">
<!-- Generated by graphviz version 2.49.3 (20211023.0002)
 -->
<!-- Title: G Pages: 1 -->
<svg width="222pt" height="152pt"
 viewBox="0.00 0.00 222.00 152.00" xmlns="http://www.w3.org/2000/svg" xmlns:xlink="http://www.w3.org/1999/xlink">
<g id="graph0" class="graph" transform="scale(1 1) rotate(0) translate(4 148)">
<title>G</title>
<polygon fill="white" stroke="transparent" points="-4,4 -4,-148 218,-148 218,4 -4,4"/>
<!-- producer -->
<g id="node1" class="node">
<title>producer</title>
<polygon fill="none" stroke="black" points="82,-90 0,-90 0,-54 82,-54 82,-90"/>
<text text-anchor="middle" x="41" y="-68.3" font-family="Times,serif" font-size="14.00">intProducer</text>
</g>
<!-- consumer1 -->
<g id="node2" class="node">
<title>consumer1</title>
<polygon fill="none" stroke="black" points="214,-144 118,-144 118,-108 214,-108 214,-144"/>
<text text-anchor="middle" x="166" y="-122.3" font-family="Times,serif" font-size="14.00">intConsumer1</text>
</g>
<!-- producer&#45;&gt;consumer1 -->
<g id="edge1" class="edge">
<title>producer&#45;&gt;consumer1</title>
<path fill="none" stroke="black" d="M82.27,-89.68C92.57,-94.2 103.77,-99.12 114.51,-103.83"/>
<polygon fill="black" stroke="black" points="113.23,-107.09 123.79,-107.91 116.04,-100.68 113.23,-107.09"/>
</g>
<!-- consumer2 -->
<g id="node3" class="node">
<title>consumer2</title>
<polygon fill="none" stroke="black" points="214,-90 118,-90 118,-54 214,-54 214,-90"/>
<text text-anchor="middle" x="166" y="-68.3" font-family="Times,serif" font-size="14.00">intConsumer2</text>
</g>
<!-- producer&#45;&gt;consumer2 -->
<g id="edge2" class="edge">
<title>producer&#45;&gt;consumer2</title>
<path fill="none" stroke="black" d="M82.27,-72C90.43,-72 99.16,-72 107.77,-72"/>
<polygon fill="black" stroke="black" points="107.79,-75.5 117.79,-72 107.79,-68.5 107.79,-75.5"/>
</g>
<!-- consumer3 -->
<g id="node4" class="node">
<title>consumer3</title>
<polygon fill="none" stroke="black" points="214,-36 118,-36 118,0 214,0 214,-36"/>
<text text-anchor="middle" x="166" y="-14.3" font-family="Times,serif" font-size="14.00">intConsumer3</text>
</g>
<!-- producer&#45;&gt;consumer3 -->
<g id="edge3" class="edge">
<title>producer&#45;&gt;consumer3</title>
<path fill="none" stroke="black" d="M82.27,-54.32C92.57,-49.8 103.77,-44.88 114.51,-40.17"/>
<polygon fill="black" stroke="black" points="116.04,-43.32 123.79,-36.09 113.23,-36.91 116.04,-43.32"/>
</g>
</g>
</svg>
