; NON-PLATED HOLES START AT T1
; THROUGH (PLATED) HOLES START AT T100
M48
INCH
T1C0.125984
T100C0.038000
T101C0.035000
T102C0.040000
T103C0.042000
T104C0.015748
T105C0.038189
T106C0.036111
%
T1
X036092Y001405
X001444Y020405
X036092Y020387
X001444Y001405
T100
X029444Y003205
X015444Y005405
X002444Y010406
X002444Y016405
X002444Y017405
X029444Y007405
X029444Y002205
X002444Y012405
X002444Y018405
X002444Y015405
X015444Y003405
X002444Y006405
X022144Y007405
X015444Y002405
X002444Y004405
X022138Y002205
X022144Y006405
X022138Y003205
X015444Y004405
X002444Y003405
X029444Y006405
X002444Y009406
X002444Y005405
X002444Y011406
T101
X006944Y011406
X006944Y015405
X032444Y008406
X011444Y015405
X011444Y011406
X033444Y008406
T102
X009944Y011905
X008844Y011905
X034444Y005405
X034444Y003405
X018444Y002405
X019544Y002405
T103
X016444Y010406
X019491Y012583
X016511Y012583
X019424Y010406
X019424Y008406
X016444Y008406
T104
X003959Y015010
X013458Y008892
T105
X012444Y004405
X012444Y009406
X009444Y003405
X009444Y004405
X009444Y009406
X012444Y002405
X009444Y002405
X012444Y003405
X009444Y007405
X012444Y006405
X012444Y005405
X012444Y008406
X009444Y008406
X009444Y005405
X012444Y007405
X009444Y006405
T106
X025444Y020405
X029444Y020405
X026444Y011405
X027444Y011405
X029444Y011405
X028444Y020405
X026444Y020405
X032444Y020405
X028444Y011405
X030444Y011405
X032444Y011405
X027444Y020405
X031444Y011405
X025444Y011405
X030444Y020405
X031444Y020405
T00
M30
