G04 MADE WITH FRITZING*
G04 WWW.FRITZING.ORG*
G04 DOUBLE SIDED*
G04 HOLES PLATED*
G04 CONTOUR ON CENTER OF CONTOUR VECTOR*
%ASAXBY*%
%FSLAX23Y23*%
%MOIN*%
%OFA0B0*%
%SFA1.0B1.0*%
%ADD10C,0.039370*%
%ADD11C,0.078000*%
%ADD12C,0.075000*%
%ADD13C,0.082000*%
%ADD14C,0.074000*%
%ADD15C,0.080000*%
%ADD16C,0.058189*%
%ADD17C,0.077778*%
%ADD18R,0.075000X0.075000*%
%ADD19R,0.082000X0.082000*%
%ADD20R,0.079986X0.080000*%
%ADD21R,0.078000X0.078000*%
%ADD22C,0.024000*%
%ADD23R,0.001000X0.001000*%
%LNCOPPER1*%
G90*
G70*
G54D10*
X396Y1501D03*
X1346Y889D03*
G54D11*
X244Y641D03*
X244Y541D03*
X244Y441D03*
X244Y341D03*
X244Y1241D03*
X244Y1141D03*
X244Y1041D03*
X244Y941D03*
X244Y1841D03*
X244Y1741D03*
X244Y1641D03*
X244Y1541D03*
X1544Y541D03*
X1544Y441D03*
X1544Y341D03*
X1544Y241D03*
G54D12*
X3244Y841D03*
X3344Y841D03*
G54D13*
X1644Y1041D03*
X1942Y1041D03*
X1644Y841D03*
X1942Y841D03*
X1651Y1258D03*
X1949Y1258D03*
G54D14*
X1844Y241D03*
X1954Y241D03*
X1844Y241D03*
X1954Y241D03*
X884Y1191D03*
X994Y1191D03*
X884Y1191D03*
X994Y1191D03*
G54D12*
X694Y1541D03*
X694Y1141D03*
X1144Y1541D03*
X1144Y1141D03*
G54D15*
X3444Y341D03*
X3444Y541D03*
G54D16*
X944Y941D03*
X944Y841D03*
X944Y341D03*
X944Y241D03*
X944Y741D03*
X944Y641D03*
X944Y441D03*
X944Y541D03*
X1244Y241D03*
X1244Y341D03*
X1244Y441D03*
X1244Y541D03*
X1244Y641D03*
X1244Y741D03*
X1244Y841D03*
X1244Y941D03*
X944Y941D03*
X944Y841D03*
X944Y341D03*
X944Y241D03*
X944Y741D03*
X944Y641D03*
X944Y441D03*
X944Y541D03*
X1244Y241D03*
X1244Y341D03*
X1244Y441D03*
X1244Y541D03*
X1244Y641D03*
X1244Y741D03*
X1244Y841D03*
X1244Y941D03*
G54D11*
X2944Y221D03*
X2944Y641D03*
X2214Y221D03*
X2214Y321D03*
X2214Y641D03*
X2944Y321D03*
X2944Y741D03*
X2214Y741D03*
G54D17*
X3244Y2041D03*
X3144Y2041D03*
X3044Y2041D03*
X2944Y2041D03*
X2844Y2041D03*
X2744Y2041D03*
X2644Y2041D03*
X2544Y2041D03*
X2544Y1141D03*
X2644Y1141D03*
X2744Y1141D03*
X2844Y1141D03*
X2944Y1141D03*
X3044Y1141D03*
X3144Y1141D03*
X3244Y1141D03*
G54D18*
X3244Y841D03*
G54D19*
X1643Y1041D03*
X1643Y841D03*
X1650Y1258D03*
G54D20*
X3444Y341D03*
G54D21*
X2213Y321D03*
X2944Y321D03*
X2944Y741D03*
X2213Y741D03*
G54D22*
X2044Y1041D02*
X2044Y1741D01*
D02*
X2544Y1741D02*
X2544Y2011D01*
D02*
X2044Y1741D02*
X2544Y1741D01*
D02*
X2944Y541D02*
X2944Y610D01*
D02*
X1975Y1041D02*
X2044Y1041D01*
D02*
X3413Y541D02*
X2944Y541D01*
D02*
X794Y1341D02*
X1544Y1341D01*
D02*
X1744Y941D02*
X1914Y855D01*
D02*
X1544Y941D02*
X1744Y941D01*
D02*
X1544Y1341D02*
X1544Y941D01*
D02*
X794Y1141D02*
X794Y1341D01*
D02*
X926Y965D02*
X794Y1141D01*
D02*
X3544Y841D02*
X3544Y441D01*
D02*
X3373Y841D02*
X3544Y841D01*
D02*
X3544Y441D02*
X2148Y421D01*
D02*
X1860Y277D02*
X1857Y269D01*
D02*
X2148Y421D02*
X1860Y277D01*
D02*
X267Y1720D02*
X324Y1669D01*
D02*
X324Y1189D02*
X270Y1156D01*
D02*
X324Y1669D02*
X324Y1189D01*
D02*
X324Y589D02*
X324Y1069D01*
D02*
X270Y556D02*
X324Y589D01*
D02*
X544Y441D02*
X273Y531D01*
D02*
X324Y1069D02*
X267Y1120D01*
D02*
X914Y441D02*
X544Y441D01*
D02*
X408Y1486D02*
X676Y1163D01*
D02*
X94Y1392D02*
X223Y1519D01*
D02*
X94Y1042D02*
X94Y1392D01*
D02*
X219Y957D02*
X94Y1042D01*
D02*
X216Y350D02*
X94Y390D01*
D02*
X544Y241D02*
X273Y331D01*
D02*
X2184Y223D02*
X1985Y238D01*
D02*
X94Y692D02*
X229Y915D01*
D02*
X94Y390D02*
X94Y692D01*
D02*
X914Y241D02*
X544Y241D01*
D02*
X2644Y841D02*
X3216Y841D01*
D02*
X2652Y1093D02*
X2644Y841D01*
D02*
X2649Y1112D02*
X2652Y1093D01*
D02*
X1012Y1165D02*
X1094Y1041D01*
D02*
X1395Y90D02*
X1395Y390D01*
D02*
X1395Y390D02*
X1516Y431D01*
D02*
X1093Y90D02*
X1395Y90D01*
D02*
X1094Y841D02*
X1093Y90D01*
D02*
X1094Y1041D02*
X1094Y841D01*
D02*
X1444Y941D02*
X1275Y941D01*
D02*
X1444Y641D02*
X1444Y941D01*
D02*
X1596Y637D02*
X1444Y641D01*
D02*
X1812Y397D02*
X1596Y637D01*
D02*
X1812Y277D02*
X1812Y397D01*
D02*
X1824Y264D02*
X1812Y277D01*
D02*
X2544Y991D02*
X2144Y991D01*
D02*
X1344Y641D02*
X1346Y870D01*
D02*
X1275Y641D02*
X1344Y641D01*
D02*
X2144Y991D02*
X1968Y860D01*
D02*
X2544Y1111D02*
X2544Y991D01*
G54D23*
X848Y1228D02*
X920Y1228D01*
X847Y1227D02*
X920Y1227D01*
X847Y1226D02*
X920Y1226D01*
X847Y1225D02*
X920Y1225D01*
X847Y1224D02*
X920Y1224D01*
X847Y1223D02*
X920Y1223D01*
X847Y1222D02*
X920Y1222D01*
X847Y1221D02*
X920Y1221D01*
X847Y1220D02*
X920Y1220D01*
X847Y1219D02*
X920Y1219D01*
X847Y1218D02*
X920Y1218D01*
X847Y1217D02*
X920Y1217D01*
X847Y1216D02*
X920Y1216D01*
X847Y1215D02*
X920Y1215D01*
X847Y1214D02*
X920Y1214D01*
X847Y1213D02*
X920Y1213D01*
X847Y1212D02*
X920Y1212D01*
X847Y1211D02*
X882Y1211D01*
X885Y1211D02*
X920Y1211D01*
X847Y1210D02*
X877Y1210D01*
X890Y1210D02*
X920Y1210D01*
X847Y1209D02*
X875Y1209D01*
X893Y1209D02*
X920Y1209D01*
X847Y1208D02*
X873Y1208D01*
X895Y1208D02*
X920Y1208D01*
X847Y1207D02*
X871Y1207D01*
X896Y1207D02*
X920Y1207D01*
X847Y1206D02*
X870Y1206D01*
X897Y1206D02*
X920Y1206D01*
X847Y1205D02*
X869Y1205D01*
X899Y1205D02*
X920Y1205D01*
X847Y1204D02*
X868Y1204D01*
X899Y1204D02*
X920Y1204D01*
X847Y1203D02*
X867Y1203D01*
X900Y1203D02*
X920Y1203D01*
X847Y1202D02*
X867Y1202D01*
X901Y1202D02*
X920Y1202D01*
X847Y1201D02*
X866Y1201D01*
X902Y1201D02*
X920Y1201D01*
X847Y1200D02*
X865Y1200D01*
X902Y1200D02*
X920Y1200D01*
X847Y1199D02*
X865Y1199D01*
X903Y1199D02*
X920Y1199D01*
X847Y1198D02*
X865Y1198D01*
X903Y1198D02*
X920Y1198D01*
X847Y1197D02*
X864Y1197D01*
X903Y1197D02*
X920Y1197D01*
X847Y1196D02*
X864Y1196D01*
X904Y1196D02*
X920Y1196D01*
X847Y1195D02*
X864Y1195D01*
X904Y1195D02*
X920Y1195D01*
X847Y1194D02*
X864Y1194D01*
X904Y1194D02*
X920Y1194D01*
X847Y1193D02*
X863Y1193D01*
X904Y1193D02*
X920Y1193D01*
X847Y1192D02*
X863Y1192D01*
X904Y1192D02*
X920Y1192D01*
X847Y1191D02*
X863Y1191D01*
X904Y1191D02*
X920Y1191D01*
X847Y1190D02*
X863Y1190D01*
X904Y1190D02*
X920Y1190D01*
X847Y1189D02*
X863Y1189D01*
X904Y1189D02*
X920Y1189D01*
X847Y1188D02*
X864Y1188D01*
X904Y1188D02*
X920Y1188D01*
X847Y1187D02*
X864Y1187D01*
X904Y1187D02*
X920Y1187D01*
X847Y1186D02*
X864Y1186D01*
X903Y1186D02*
X920Y1186D01*
X847Y1185D02*
X864Y1185D01*
X903Y1185D02*
X920Y1185D01*
X847Y1184D02*
X865Y1184D01*
X903Y1184D02*
X920Y1184D01*
X847Y1183D02*
X865Y1183D01*
X903Y1183D02*
X920Y1183D01*
X847Y1182D02*
X866Y1182D01*
X902Y1182D02*
X920Y1182D01*
X847Y1181D02*
X866Y1181D01*
X901Y1181D02*
X920Y1181D01*
X847Y1180D02*
X867Y1180D01*
X901Y1180D02*
X920Y1180D01*
X847Y1179D02*
X867Y1179D01*
X900Y1179D02*
X920Y1179D01*
X847Y1178D02*
X868Y1178D01*
X899Y1178D02*
X920Y1178D01*
X847Y1177D02*
X869Y1177D01*
X898Y1177D02*
X920Y1177D01*
X847Y1176D02*
X870Y1176D01*
X897Y1176D02*
X920Y1176D01*
X847Y1175D02*
X871Y1175D01*
X896Y1175D02*
X920Y1175D01*
X847Y1174D02*
X873Y1174D01*
X895Y1174D02*
X920Y1174D01*
X847Y1173D02*
X875Y1173D01*
X893Y1173D02*
X920Y1173D01*
X847Y1172D02*
X878Y1172D01*
X890Y1172D02*
X920Y1172D01*
X847Y1171D02*
X920Y1171D01*
X847Y1170D02*
X920Y1170D01*
X847Y1169D02*
X920Y1169D01*
X847Y1168D02*
X920Y1168D01*
X847Y1167D02*
X920Y1167D01*
X847Y1166D02*
X920Y1166D01*
X847Y1165D02*
X920Y1165D01*
X847Y1164D02*
X920Y1164D01*
X847Y1163D02*
X920Y1163D01*
X847Y1162D02*
X920Y1162D01*
X847Y1161D02*
X920Y1161D01*
X847Y1160D02*
X920Y1160D01*
X847Y1159D02*
X920Y1159D01*
X847Y1158D02*
X920Y1158D01*
X847Y1157D02*
X920Y1157D01*
X847Y1156D02*
X920Y1156D01*
X847Y1155D02*
X920Y1155D01*
X912Y970D02*
X975Y970D01*
X1212Y970D02*
X1275Y970D01*
X907Y969D02*
X980Y969D01*
X1207Y969D02*
X1280Y969D01*
X904Y968D02*
X983Y968D01*
X1204Y968D02*
X1283Y968D01*
X902Y967D02*
X986Y967D01*
X1202Y967D02*
X1285Y967D01*
X900Y966D02*
X987Y966D01*
X1200Y966D02*
X1287Y966D01*
X899Y965D02*
X989Y965D01*
X1199Y965D02*
X1289Y965D01*
X897Y964D02*
X990Y964D01*
X1197Y964D02*
X1290Y964D01*
X896Y963D02*
X991Y963D01*
X1196Y963D02*
X1291Y963D01*
X895Y962D02*
X993Y962D01*
X1195Y962D02*
X1292Y962D01*
X894Y961D02*
X993Y961D01*
X1194Y961D02*
X1293Y961D01*
X893Y960D02*
X942Y960D01*
X946Y960D02*
X994Y960D01*
X1193Y960D02*
X1241Y960D01*
X1246Y960D02*
X1294Y960D01*
X892Y959D02*
X937Y959D01*
X951Y959D02*
X995Y959D01*
X1192Y959D02*
X1237Y959D01*
X1251Y959D02*
X1295Y959D01*
X892Y958D02*
X935Y958D01*
X953Y958D02*
X996Y958D01*
X1191Y958D02*
X1234Y958D01*
X1253Y958D02*
X1296Y958D01*
X891Y957D02*
X933Y957D01*
X955Y957D02*
X997Y957D01*
X1191Y957D02*
X1233Y957D01*
X1255Y957D02*
X1297Y957D01*
X890Y956D02*
X931Y956D01*
X956Y956D02*
X997Y956D01*
X1190Y956D02*
X1231Y956D01*
X1256Y956D02*
X1297Y956D01*
X890Y955D02*
X930Y955D01*
X957Y955D02*
X998Y955D01*
X1190Y955D02*
X1230Y955D01*
X1257Y955D02*
X1298Y955D01*
X889Y954D02*
X929Y954D01*
X958Y954D02*
X998Y954D01*
X1189Y954D02*
X1229Y954D01*
X1258Y954D02*
X1298Y954D01*
X889Y953D02*
X928Y953D01*
X959Y953D02*
X999Y953D01*
X1189Y953D02*
X1228Y953D01*
X1259Y953D02*
X1299Y953D01*
X888Y952D02*
X928Y952D01*
X960Y952D02*
X999Y952D01*
X1188Y952D02*
X1228Y952D01*
X1260Y952D02*
X1299Y952D01*
X888Y951D02*
X927Y951D01*
X960Y951D02*
X1000Y951D01*
X1188Y951D02*
X1227Y951D01*
X1260Y951D02*
X1300Y951D01*
X887Y950D02*
X926Y950D01*
X961Y950D02*
X1000Y950D01*
X1187Y950D02*
X1226Y950D01*
X1261Y950D02*
X1300Y950D01*
X887Y949D02*
X926Y949D01*
X962Y949D02*
X1000Y949D01*
X1187Y949D02*
X1226Y949D01*
X1261Y949D02*
X1300Y949D01*
X887Y948D02*
X925Y948D01*
X962Y948D02*
X1001Y948D01*
X1187Y948D02*
X1225Y948D01*
X1262Y948D02*
X1300Y948D01*
X887Y947D02*
X925Y947D01*
X962Y947D02*
X1001Y947D01*
X1187Y947D02*
X1225Y947D01*
X1262Y947D02*
X1301Y947D01*
X886Y946D02*
X925Y946D01*
X963Y946D02*
X1001Y946D01*
X1186Y946D02*
X1225Y946D01*
X1263Y946D02*
X1301Y946D01*
X886Y945D02*
X925Y945D01*
X963Y945D02*
X1001Y945D01*
X1186Y945D02*
X1224Y945D01*
X1263Y945D02*
X1301Y945D01*
X886Y944D02*
X924Y944D01*
X963Y944D02*
X1001Y944D01*
X1186Y944D02*
X1224Y944D01*
X1263Y944D02*
X1301Y944D01*
X886Y943D02*
X924Y943D01*
X963Y943D02*
X1001Y943D01*
X1186Y943D02*
X1224Y943D01*
X1263Y943D02*
X1301Y943D01*
X886Y942D02*
X924Y942D01*
X963Y942D02*
X1001Y942D01*
X1186Y942D02*
X1224Y942D01*
X1263Y942D02*
X1301Y942D01*
X886Y941D02*
X924Y941D01*
X963Y941D02*
X1001Y941D01*
X1186Y941D02*
X1224Y941D01*
X1263Y941D02*
X1301Y941D01*
X886Y940D02*
X924Y940D01*
X963Y940D02*
X1001Y940D01*
X1186Y940D02*
X1224Y940D01*
X1263Y940D02*
X1301Y940D01*
X886Y939D02*
X924Y939D01*
X963Y939D02*
X1001Y939D01*
X1186Y939D02*
X1224Y939D01*
X1263Y939D02*
X1301Y939D01*
X886Y938D02*
X924Y938D01*
X963Y938D02*
X1001Y938D01*
X1186Y938D02*
X1224Y938D01*
X1263Y938D02*
X1301Y938D01*
X886Y937D02*
X925Y937D01*
X963Y937D02*
X1001Y937D01*
X1186Y937D02*
X1225Y937D01*
X1263Y937D02*
X1301Y937D01*
X887Y936D02*
X925Y936D01*
X963Y936D02*
X1001Y936D01*
X1186Y936D02*
X1225Y936D01*
X1262Y936D02*
X1301Y936D01*
X887Y935D02*
X925Y935D01*
X962Y935D02*
X1001Y935D01*
X1187Y935D02*
X1225Y935D01*
X1262Y935D02*
X1301Y935D01*
X887Y934D02*
X926Y934D01*
X962Y934D02*
X1000Y934D01*
X1187Y934D02*
X1225Y934D01*
X1262Y934D02*
X1300Y934D01*
X887Y933D02*
X926Y933D01*
X961Y933D02*
X1000Y933D01*
X1187Y933D02*
X1226Y933D01*
X1261Y933D02*
X1300Y933D01*
X888Y932D02*
X927Y932D01*
X961Y932D02*
X1000Y932D01*
X1187Y932D02*
X1226Y932D01*
X1261Y932D02*
X1300Y932D01*
X888Y931D02*
X927Y931D01*
X960Y931D02*
X1000Y931D01*
X1188Y931D02*
X1227Y931D01*
X1260Y931D02*
X1300Y931D01*
X888Y930D02*
X928Y930D01*
X960Y930D02*
X999Y930D01*
X1188Y930D02*
X1228Y930D01*
X1260Y930D02*
X1299Y930D01*
X889Y929D02*
X929Y929D01*
X959Y929D02*
X999Y929D01*
X1189Y929D02*
X1228Y929D01*
X1259Y929D02*
X1299Y929D01*
X889Y928D02*
X929Y928D01*
X958Y928D02*
X998Y928D01*
X1189Y928D02*
X1229Y928D01*
X1258Y928D02*
X1298Y928D01*
X890Y927D02*
X930Y927D01*
X957Y927D02*
X998Y927D01*
X1190Y927D02*
X1230Y927D01*
X1257Y927D02*
X1298Y927D01*
X890Y926D02*
X932Y926D01*
X956Y926D02*
X997Y926D01*
X1190Y926D02*
X1232Y926D01*
X1256Y926D02*
X1297Y926D01*
X891Y925D02*
X933Y925D01*
X954Y925D02*
X997Y925D01*
X1191Y925D02*
X1233Y925D01*
X1254Y925D02*
X1296Y925D01*
X892Y924D02*
X935Y924D01*
X953Y924D02*
X996Y924D01*
X1192Y924D02*
X1235Y924D01*
X1253Y924D02*
X1296Y924D01*
X892Y923D02*
X937Y923D01*
X950Y923D02*
X995Y923D01*
X1192Y923D02*
X1237Y923D01*
X1250Y923D02*
X1295Y923D01*
X893Y922D02*
X994Y922D01*
X1193Y922D02*
X1294Y922D01*
X894Y921D02*
X993Y921D01*
X1194Y921D02*
X1293Y921D01*
X895Y920D02*
X992Y920D01*
X1195Y920D02*
X1292Y920D01*
X896Y919D02*
X991Y919D01*
X1196Y919D02*
X1291Y919D01*
X897Y918D02*
X990Y918D01*
X1197Y918D02*
X1290Y918D01*
X899Y917D02*
X989Y917D01*
X1199Y917D02*
X1289Y917D01*
X900Y916D02*
X987Y916D01*
X1200Y916D02*
X1287Y916D01*
X902Y915D02*
X985Y915D01*
X1202Y915D02*
X1285Y915D01*
X905Y914D02*
X983Y914D01*
X1205Y914D02*
X1283Y914D01*
X908Y913D02*
X980Y913D01*
X1208Y913D02*
X1280Y913D01*
X915Y912D02*
X973Y912D01*
X1215Y912D02*
X1273Y912D01*
X912Y870D02*
X976Y870D01*
X1212Y870D02*
X1275Y870D01*
X907Y869D02*
X980Y869D01*
X1207Y869D02*
X1280Y869D01*
X904Y868D02*
X983Y868D01*
X1204Y868D02*
X1283Y868D01*
X902Y867D02*
X986Y867D01*
X1202Y867D02*
X1285Y867D01*
X900Y866D02*
X987Y866D01*
X1200Y866D02*
X1287Y866D01*
X899Y865D02*
X989Y865D01*
X1199Y865D02*
X1289Y865D01*
X897Y864D02*
X990Y864D01*
X1197Y864D02*
X1290Y864D01*
X896Y863D02*
X991Y863D01*
X1196Y863D02*
X1291Y863D01*
X895Y862D02*
X993Y862D01*
X1195Y862D02*
X1292Y862D01*
X894Y861D02*
X993Y861D01*
X1194Y861D02*
X1293Y861D01*
X893Y860D02*
X941Y860D01*
X946Y860D02*
X994Y860D01*
X1193Y860D02*
X1241Y860D01*
X1246Y860D02*
X1294Y860D01*
X892Y859D02*
X937Y859D01*
X951Y859D02*
X995Y859D01*
X1192Y859D02*
X1237Y859D01*
X1251Y859D02*
X1295Y859D01*
X892Y858D02*
X935Y858D01*
X953Y858D02*
X996Y858D01*
X1191Y858D02*
X1234Y858D01*
X1253Y858D02*
X1296Y858D01*
X891Y857D02*
X933Y857D01*
X955Y857D02*
X997Y857D01*
X1191Y857D02*
X1233Y857D01*
X1255Y857D02*
X1297Y857D01*
X890Y856D02*
X931Y856D01*
X956Y856D02*
X997Y856D01*
X1190Y856D02*
X1231Y856D01*
X1256Y856D02*
X1297Y856D01*
X890Y855D02*
X930Y855D01*
X957Y855D02*
X998Y855D01*
X1190Y855D02*
X1230Y855D01*
X1257Y855D02*
X1298Y855D01*
X889Y854D02*
X929Y854D01*
X958Y854D02*
X998Y854D01*
X1189Y854D02*
X1229Y854D01*
X1258Y854D02*
X1298Y854D01*
X889Y853D02*
X928Y853D01*
X959Y853D02*
X999Y853D01*
X1189Y853D02*
X1228Y853D01*
X1259Y853D02*
X1299Y853D01*
X888Y852D02*
X928Y852D01*
X960Y852D02*
X999Y852D01*
X1188Y852D02*
X1228Y852D01*
X1260Y852D02*
X1299Y852D01*
X888Y851D02*
X927Y851D01*
X960Y851D02*
X1000Y851D01*
X1188Y851D02*
X1227Y851D01*
X1260Y851D02*
X1300Y851D01*
X887Y850D02*
X926Y850D01*
X961Y850D02*
X1000Y850D01*
X1187Y850D02*
X1226Y850D01*
X1261Y850D02*
X1300Y850D01*
X887Y849D02*
X926Y849D01*
X962Y849D02*
X1000Y849D01*
X1187Y849D02*
X1226Y849D01*
X1261Y849D02*
X1300Y849D01*
X887Y848D02*
X925Y848D01*
X962Y848D02*
X1001Y848D01*
X1187Y848D02*
X1225Y848D01*
X1262Y848D02*
X1300Y848D01*
X887Y847D02*
X925Y847D01*
X962Y847D02*
X1001Y847D01*
X1187Y847D02*
X1225Y847D01*
X1262Y847D02*
X1301Y847D01*
X886Y846D02*
X925Y846D01*
X963Y846D02*
X1001Y846D01*
X1186Y846D02*
X1225Y846D01*
X1263Y846D02*
X1301Y846D01*
X886Y845D02*
X925Y845D01*
X963Y845D02*
X1001Y845D01*
X1186Y845D02*
X1224Y845D01*
X1263Y845D02*
X1301Y845D01*
X886Y844D02*
X924Y844D01*
X963Y844D02*
X1001Y844D01*
X1186Y844D02*
X1224Y844D01*
X1263Y844D02*
X1301Y844D01*
X886Y843D02*
X924Y843D01*
X963Y843D02*
X1001Y843D01*
X1186Y843D02*
X1224Y843D01*
X1263Y843D02*
X1301Y843D01*
X886Y842D02*
X924Y842D01*
X963Y842D02*
X1001Y842D01*
X1186Y842D02*
X1224Y842D01*
X1263Y842D02*
X1301Y842D01*
X886Y841D02*
X924Y841D01*
X963Y841D02*
X1001Y841D01*
X1186Y841D02*
X1224Y841D01*
X1263Y841D02*
X1301Y841D01*
X886Y840D02*
X924Y840D01*
X963Y840D02*
X1001Y840D01*
X1186Y840D02*
X1224Y840D01*
X1263Y840D02*
X1301Y840D01*
X886Y839D02*
X924Y839D01*
X963Y839D02*
X1001Y839D01*
X1186Y839D02*
X1224Y839D01*
X1263Y839D02*
X1301Y839D01*
X886Y838D02*
X924Y838D01*
X963Y838D02*
X1001Y838D01*
X1186Y838D02*
X1224Y838D01*
X1263Y838D02*
X1301Y838D01*
X886Y837D02*
X925Y837D01*
X963Y837D02*
X1001Y837D01*
X1186Y837D02*
X1225Y837D01*
X1263Y837D02*
X1301Y837D01*
X887Y836D02*
X925Y836D01*
X963Y836D02*
X1001Y836D01*
X1186Y836D02*
X1225Y836D01*
X1262Y836D02*
X1301Y836D01*
X887Y835D02*
X925Y835D01*
X962Y835D02*
X1001Y835D01*
X1187Y835D02*
X1225Y835D01*
X1262Y835D02*
X1301Y835D01*
X887Y834D02*
X926Y834D01*
X962Y834D02*
X1000Y834D01*
X1187Y834D02*
X1225Y834D01*
X1262Y834D02*
X1300Y834D01*
X887Y833D02*
X926Y833D01*
X961Y833D02*
X1000Y833D01*
X1187Y833D02*
X1226Y833D01*
X1261Y833D02*
X1300Y833D01*
X888Y832D02*
X927Y832D01*
X961Y832D02*
X1000Y832D01*
X1187Y832D02*
X1226Y832D01*
X1261Y832D02*
X1300Y832D01*
X888Y831D02*
X927Y831D01*
X960Y831D02*
X1000Y831D01*
X1188Y831D02*
X1227Y831D01*
X1260Y831D02*
X1300Y831D01*
X888Y830D02*
X928Y830D01*
X960Y830D02*
X999Y830D01*
X1188Y830D02*
X1228Y830D01*
X1260Y830D02*
X1299Y830D01*
X889Y829D02*
X929Y829D01*
X959Y829D02*
X999Y829D01*
X1189Y829D02*
X1228Y829D01*
X1259Y829D02*
X1299Y829D01*
X889Y828D02*
X929Y828D01*
X958Y828D02*
X998Y828D01*
X1189Y828D02*
X1229Y828D01*
X1258Y828D02*
X1298Y828D01*
X890Y827D02*
X930Y827D01*
X957Y827D02*
X998Y827D01*
X1190Y827D02*
X1230Y827D01*
X1257Y827D02*
X1298Y827D01*
X890Y826D02*
X932Y826D01*
X956Y826D02*
X997Y826D01*
X1190Y826D02*
X1232Y826D01*
X1256Y826D02*
X1297Y826D01*
X891Y825D02*
X933Y825D01*
X954Y825D02*
X997Y825D01*
X1191Y825D02*
X1233Y825D01*
X1254Y825D02*
X1296Y825D01*
X892Y824D02*
X935Y824D01*
X953Y824D02*
X996Y824D01*
X1192Y824D02*
X1235Y824D01*
X1253Y824D02*
X1296Y824D01*
X892Y823D02*
X937Y823D01*
X950Y823D02*
X995Y823D01*
X1192Y823D02*
X1237Y823D01*
X1250Y823D02*
X1295Y823D01*
X893Y822D02*
X994Y822D01*
X1193Y822D02*
X1294Y822D01*
X894Y821D02*
X993Y821D01*
X1194Y821D02*
X1293Y821D01*
X895Y820D02*
X992Y820D01*
X1195Y820D02*
X1292Y820D01*
X896Y819D02*
X991Y819D01*
X1196Y819D02*
X1291Y819D01*
X897Y818D02*
X990Y818D01*
X1197Y818D02*
X1290Y818D01*
X899Y817D02*
X989Y817D01*
X1199Y817D02*
X1289Y817D01*
X900Y816D02*
X987Y816D01*
X1200Y816D02*
X1287Y816D01*
X902Y815D02*
X985Y815D01*
X1202Y815D02*
X1285Y815D01*
X905Y814D02*
X983Y814D01*
X1205Y814D02*
X1283Y814D01*
X908Y813D02*
X980Y813D01*
X1208Y813D02*
X1280Y813D01*
X915Y812D02*
X973Y812D01*
X1215Y812D02*
X1273Y812D01*
X912Y770D02*
X976Y770D01*
X1212Y770D02*
X1275Y770D01*
X907Y769D02*
X980Y769D01*
X1207Y769D02*
X1280Y769D01*
X904Y768D02*
X983Y768D01*
X1204Y768D02*
X1283Y768D01*
X902Y767D02*
X986Y767D01*
X1202Y767D02*
X1285Y767D01*
X900Y766D02*
X987Y766D01*
X1200Y766D02*
X1287Y766D01*
X899Y765D02*
X989Y765D01*
X1199Y765D02*
X1289Y765D01*
X897Y764D02*
X990Y764D01*
X1197Y764D02*
X1290Y764D01*
X896Y763D02*
X991Y763D01*
X1196Y763D02*
X1291Y763D01*
X895Y762D02*
X993Y762D01*
X1195Y762D02*
X1292Y762D01*
X894Y761D02*
X993Y761D01*
X1194Y761D02*
X1293Y761D01*
X893Y760D02*
X941Y760D01*
X946Y760D02*
X994Y760D01*
X1193Y760D02*
X1241Y760D01*
X1246Y760D02*
X1294Y760D01*
X892Y759D02*
X937Y759D01*
X951Y759D02*
X995Y759D01*
X1192Y759D02*
X1237Y759D01*
X1251Y759D02*
X1295Y759D01*
X891Y758D02*
X935Y758D01*
X953Y758D02*
X996Y758D01*
X1191Y758D02*
X1234Y758D01*
X1253Y758D02*
X1296Y758D01*
X891Y757D02*
X933Y757D01*
X955Y757D02*
X997Y757D01*
X1191Y757D02*
X1233Y757D01*
X1255Y757D02*
X1297Y757D01*
X890Y756D02*
X931Y756D01*
X956Y756D02*
X997Y756D01*
X1190Y756D02*
X1231Y756D01*
X1256Y756D02*
X1297Y756D01*
X890Y755D02*
X930Y755D01*
X957Y755D02*
X998Y755D01*
X1190Y755D02*
X1230Y755D01*
X1257Y755D02*
X1298Y755D01*
X889Y754D02*
X929Y754D01*
X958Y754D02*
X998Y754D01*
X1189Y754D02*
X1229Y754D01*
X1258Y754D02*
X1298Y754D01*
X889Y753D02*
X928Y753D01*
X959Y753D02*
X999Y753D01*
X1189Y753D02*
X1228Y753D01*
X1259Y753D02*
X1299Y753D01*
X888Y752D02*
X928Y752D01*
X960Y752D02*
X999Y752D01*
X1188Y752D02*
X1228Y752D01*
X1260Y752D02*
X1299Y752D01*
X888Y751D02*
X927Y751D01*
X960Y751D02*
X1000Y751D01*
X1188Y751D02*
X1227Y751D01*
X1260Y751D02*
X1300Y751D01*
X887Y750D02*
X926Y750D01*
X961Y750D02*
X1000Y750D01*
X1187Y750D02*
X1226Y750D01*
X1261Y750D02*
X1300Y750D01*
X887Y749D02*
X926Y749D01*
X962Y749D02*
X1000Y749D01*
X1187Y749D02*
X1226Y749D01*
X1261Y749D02*
X1300Y749D01*
X887Y748D02*
X925Y748D01*
X962Y748D02*
X1001Y748D01*
X1187Y748D02*
X1225Y748D01*
X1262Y748D02*
X1300Y748D01*
X887Y747D02*
X925Y747D01*
X962Y747D02*
X1001Y747D01*
X1187Y747D02*
X1225Y747D01*
X1262Y747D02*
X1301Y747D01*
X886Y746D02*
X925Y746D01*
X963Y746D02*
X1001Y746D01*
X1186Y746D02*
X1225Y746D01*
X1263Y746D02*
X1301Y746D01*
X886Y745D02*
X925Y745D01*
X963Y745D02*
X1001Y745D01*
X1186Y745D02*
X1224Y745D01*
X1263Y745D02*
X1301Y745D01*
X886Y744D02*
X924Y744D01*
X963Y744D02*
X1001Y744D01*
X1186Y744D02*
X1224Y744D01*
X1263Y744D02*
X1301Y744D01*
X886Y743D02*
X924Y743D01*
X963Y743D02*
X1001Y743D01*
X1186Y743D02*
X1224Y743D01*
X1263Y743D02*
X1301Y743D01*
X886Y742D02*
X924Y742D01*
X963Y742D02*
X1001Y742D01*
X1186Y742D02*
X1224Y742D01*
X1263Y742D02*
X1301Y742D01*
X886Y741D02*
X924Y741D01*
X963Y741D02*
X1001Y741D01*
X1186Y741D02*
X1224Y741D01*
X1263Y741D02*
X1301Y741D01*
X886Y740D02*
X924Y740D01*
X963Y740D02*
X1001Y740D01*
X1186Y740D02*
X1224Y740D01*
X1263Y740D02*
X1301Y740D01*
X886Y739D02*
X924Y739D01*
X963Y739D02*
X1001Y739D01*
X1186Y739D02*
X1224Y739D01*
X1263Y739D02*
X1301Y739D01*
X886Y738D02*
X924Y738D01*
X963Y738D02*
X1001Y738D01*
X1186Y738D02*
X1224Y738D01*
X1263Y738D02*
X1301Y738D01*
X886Y737D02*
X925Y737D01*
X963Y737D02*
X1001Y737D01*
X1186Y737D02*
X1225Y737D01*
X1263Y737D02*
X1301Y737D01*
X887Y736D02*
X925Y736D01*
X963Y736D02*
X1001Y736D01*
X1186Y736D02*
X1225Y736D01*
X1262Y736D02*
X1301Y736D01*
X887Y735D02*
X925Y735D01*
X962Y735D02*
X1001Y735D01*
X1187Y735D02*
X1225Y735D01*
X1262Y735D02*
X1301Y735D01*
X887Y734D02*
X926Y734D01*
X962Y734D02*
X1000Y734D01*
X1187Y734D02*
X1225Y734D01*
X1262Y734D02*
X1300Y734D01*
X887Y733D02*
X926Y733D01*
X961Y733D02*
X1000Y733D01*
X1187Y733D02*
X1226Y733D01*
X1261Y733D02*
X1300Y733D01*
X888Y732D02*
X927Y732D01*
X961Y732D02*
X1000Y732D01*
X1187Y732D02*
X1226Y732D01*
X1261Y732D02*
X1300Y732D01*
X888Y731D02*
X927Y731D01*
X960Y731D02*
X1000Y731D01*
X1188Y731D02*
X1227Y731D01*
X1260Y731D02*
X1300Y731D01*
X888Y730D02*
X928Y730D01*
X960Y730D02*
X999Y730D01*
X1188Y730D02*
X1228Y730D01*
X1260Y730D02*
X1299Y730D01*
X889Y729D02*
X929Y729D01*
X959Y729D02*
X999Y729D01*
X1189Y729D02*
X1228Y729D01*
X1259Y729D02*
X1299Y729D01*
X889Y728D02*
X929Y728D01*
X958Y728D02*
X998Y728D01*
X1189Y728D02*
X1229Y728D01*
X1258Y728D02*
X1298Y728D01*
X890Y727D02*
X930Y727D01*
X957Y727D02*
X998Y727D01*
X1190Y727D02*
X1230Y727D01*
X1257Y727D02*
X1298Y727D01*
X890Y726D02*
X932Y726D01*
X956Y726D02*
X997Y726D01*
X1190Y726D02*
X1232Y726D01*
X1256Y726D02*
X1297Y726D01*
X891Y725D02*
X933Y725D01*
X954Y725D02*
X997Y725D01*
X1191Y725D02*
X1233Y725D01*
X1254Y725D02*
X1296Y725D01*
X892Y724D02*
X935Y724D01*
X953Y724D02*
X996Y724D01*
X1192Y724D02*
X1235Y724D01*
X1253Y724D02*
X1296Y724D01*
X892Y723D02*
X937Y723D01*
X950Y723D02*
X995Y723D01*
X1192Y723D02*
X1237Y723D01*
X1250Y723D02*
X1295Y723D01*
X893Y722D02*
X994Y722D01*
X1193Y722D02*
X1294Y722D01*
X894Y721D02*
X993Y721D01*
X1194Y721D02*
X1293Y721D01*
X895Y720D02*
X992Y720D01*
X1195Y720D02*
X1292Y720D01*
X896Y719D02*
X991Y719D01*
X1196Y719D02*
X1291Y719D01*
X897Y718D02*
X990Y718D01*
X1197Y718D02*
X1290Y718D01*
X899Y717D02*
X989Y717D01*
X1199Y717D02*
X1289Y717D01*
X900Y716D02*
X987Y716D01*
X1200Y716D02*
X1287Y716D01*
X902Y715D02*
X985Y715D01*
X1202Y715D02*
X1285Y715D01*
X905Y714D02*
X983Y714D01*
X1205Y714D02*
X1283Y714D01*
X908Y713D02*
X980Y713D01*
X1208Y713D02*
X1280Y713D01*
X915Y712D02*
X972Y712D01*
X1215Y712D02*
X1272Y712D01*
X912Y670D02*
X976Y670D01*
X1212Y670D02*
X1275Y670D01*
X907Y669D02*
X980Y669D01*
X1207Y669D02*
X1280Y669D01*
X904Y668D02*
X983Y668D01*
X1204Y668D02*
X1283Y668D01*
X902Y667D02*
X986Y667D01*
X1202Y667D02*
X1285Y667D01*
X900Y666D02*
X987Y666D01*
X1200Y666D02*
X1287Y666D01*
X899Y665D02*
X989Y665D01*
X1199Y665D02*
X1289Y665D01*
X897Y664D02*
X990Y664D01*
X1197Y664D02*
X1290Y664D01*
X896Y663D02*
X991Y663D01*
X1196Y663D02*
X1291Y663D01*
X895Y662D02*
X993Y662D01*
X1195Y662D02*
X1292Y662D01*
X894Y661D02*
X993Y661D01*
X1194Y661D02*
X1293Y661D01*
X893Y660D02*
X941Y660D01*
X946Y660D02*
X994Y660D01*
X1193Y660D02*
X1241Y660D01*
X1246Y660D02*
X1294Y660D01*
X892Y659D02*
X937Y659D01*
X951Y659D02*
X995Y659D01*
X1192Y659D02*
X1237Y659D01*
X1251Y659D02*
X1295Y659D01*
X891Y658D02*
X935Y658D01*
X953Y658D02*
X996Y658D01*
X1191Y658D02*
X1234Y658D01*
X1253Y658D02*
X1296Y658D01*
X891Y657D02*
X933Y657D01*
X955Y657D02*
X997Y657D01*
X1191Y657D02*
X1233Y657D01*
X1255Y657D02*
X1297Y657D01*
X890Y656D02*
X931Y656D01*
X956Y656D02*
X997Y656D01*
X1190Y656D02*
X1231Y656D01*
X1256Y656D02*
X1297Y656D01*
X890Y655D02*
X930Y655D01*
X957Y655D02*
X998Y655D01*
X1190Y655D02*
X1230Y655D01*
X1257Y655D02*
X1298Y655D01*
X889Y654D02*
X929Y654D01*
X958Y654D02*
X998Y654D01*
X1189Y654D02*
X1229Y654D01*
X1258Y654D02*
X1298Y654D01*
X889Y653D02*
X928Y653D01*
X959Y653D02*
X999Y653D01*
X1189Y653D02*
X1228Y653D01*
X1259Y653D02*
X1299Y653D01*
X888Y652D02*
X928Y652D01*
X960Y652D02*
X999Y652D01*
X1188Y652D02*
X1228Y652D01*
X1260Y652D02*
X1299Y652D01*
X888Y651D02*
X927Y651D01*
X960Y651D02*
X1000Y651D01*
X1188Y651D02*
X1227Y651D01*
X1260Y651D02*
X1300Y651D01*
X887Y650D02*
X926Y650D01*
X961Y650D02*
X1000Y650D01*
X1187Y650D02*
X1226Y650D01*
X1261Y650D02*
X1300Y650D01*
X887Y649D02*
X926Y649D01*
X962Y649D02*
X1000Y649D01*
X1187Y649D02*
X1226Y649D01*
X1261Y649D02*
X1300Y649D01*
X887Y648D02*
X925Y648D01*
X962Y648D02*
X1001Y648D01*
X1187Y648D02*
X1225Y648D01*
X1262Y648D02*
X1300Y648D01*
X887Y647D02*
X925Y647D01*
X962Y647D02*
X1001Y647D01*
X1187Y647D02*
X1225Y647D01*
X1262Y647D02*
X1301Y647D01*
X886Y646D02*
X925Y646D01*
X963Y646D02*
X1001Y646D01*
X1186Y646D02*
X1225Y646D01*
X1263Y646D02*
X1301Y646D01*
X886Y645D02*
X925Y645D01*
X963Y645D02*
X1001Y645D01*
X1186Y645D02*
X1224Y645D01*
X1263Y645D02*
X1301Y645D01*
X886Y644D02*
X924Y644D01*
X963Y644D02*
X1001Y644D01*
X1186Y644D02*
X1224Y644D01*
X1263Y644D02*
X1301Y644D01*
X886Y643D02*
X924Y643D01*
X963Y643D02*
X1001Y643D01*
X1186Y643D02*
X1224Y643D01*
X1263Y643D02*
X1301Y643D01*
X886Y642D02*
X924Y642D01*
X963Y642D02*
X1001Y642D01*
X1186Y642D02*
X1224Y642D01*
X1263Y642D02*
X1301Y642D01*
X886Y641D02*
X924Y641D01*
X963Y641D02*
X1001Y641D01*
X1186Y641D02*
X1224Y641D01*
X1263Y641D02*
X1301Y641D01*
X886Y640D02*
X924Y640D01*
X963Y640D02*
X1001Y640D01*
X1186Y640D02*
X1224Y640D01*
X1263Y640D02*
X1301Y640D01*
X886Y639D02*
X924Y639D01*
X963Y639D02*
X1001Y639D01*
X1186Y639D02*
X1224Y639D01*
X1263Y639D02*
X1301Y639D01*
X886Y638D02*
X924Y638D01*
X963Y638D02*
X1001Y638D01*
X1186Y638D02*
X1224Y638D01*
X1263Y638D02*
X1301Y638D01*
X886Y637D02*
X925Y637D01*
X963Y637D02*
X1001Y637D01*
X1186Y637D02*
X1225Y637D01*
X1263Y637D02*
X1301Y637D01*
X887Y636D02*
X925Y636D01*
X963Y636D02*
X1001Y636D01*
X1186Y636D02*
X1225Y636D01*
X1262Y636D02*
X1301Y636D01*
X887Y635D02*
X925Y635D01*
X962Y635D02*
X1001Y635D01*
X1187Y635D02*
X1225Y635D01*
X1262Y635D02*
X1301Y635D01*
X887Y634D02*
X926Y634D01*
X962Y634D02*
X1000Y634D01*
X1187Y634D02*
X1225Y634D01*
X1262Y634D02*
X1300Y634D01*
X887Y633D02*
X926Y633D01*
X961Y633D02*
X1000Y633D01*
X1187Y633D02*
X1226Y633D01*
X1261Y633D02*
X1300Y633D01*
X888Y632D02*
X927Y632D01*
X961Y632D02*
X1000Y632D01*
X1187Y632D02*
X1226Y632D01*
X1261Y632D02*
X1300Y632D01*
X888Y631D02*
X927Y631D01*
X960Y631D02*
X1000Y631D01*
X1188Y631D02*
X1227Y631D01*
X1260Y631D02*
X1300Y631D01*
X888Y630D02*
X928Y630D01*
X960Y630D02*
X999Y630D01*
X1188Y630D02*
X1228Y630D01*
X1260Y630D02*
X1299Y630D01*
X889Y629D02*
X929Y629D01*
X959Y629D02*
X999Y629D01*
X1189Y629D02*
X1229Y629D01*
X1259Y629D02*
X1299Y629D01*
X889Y628D02*
X929Y628D01*
X958Y628D02*
X998Y628D01*
X1189Y628D02*
X1229Y628D01*
X1258Y628D02*
X1298Y628D01*
X890Y627D02*
X930Y627D01*
X957Y627D02*
X998Y627D01*
X1190Y627D02*
X1230Y627D01*
X1257Y627D02*
X1298Y627D01*
X890Y626D02*
X932Y626D01*
X956Y626D02*
X997Y626D01*
X1190Y626D02*
X1232Y626D01*
X1256Y626D02*
X1297Y626D01*
X891Y625D02*
X933Y625D01*
X954Y625D02*
X997Y625D01*
X1191Y625D02*
X1233Y625D01*
X1254Y625D02*
X1296Y625D01*
X892Y624D02*
X935Y624D01*
X953Y624D02*
X996Y624D01*
X1192Y624D02*
X1235Y624D01*
X1253Y624D02*
X1296Y624D01*
X892Y623D02*
X937Y623D01*
X950Y623D02*
X995Y623D01*
X1192Y623D02*
X1237Y623D01*
X1250Y623D02*
X1295Y623D01*
X893Y622D02*
X994Y622D01*
X1193Y622D02*
X1294Y622D01*
X894Y621D02*
X993Y621D01*
X1194Y621D02*
X1293Y621D01*
X895Y620D02*
X992Y620D01*
X1195Y620D02*
X1292Y620D01*
X896Y619D02*
X991Y619D01*
X1196Y619D02*
X1291Y619D01*
X897Y618D02*
X990Y618D01*
X1197Y618D02*
X1290Y618D01*
X899Y617D02*
X989Y617D01*
X1199Y617D02*
X1289Y617D01*
X900Y616D02*
X987Y616D01*
X1200Y616D02*
X1287Y616D01*
X902Y615D02*
X985Y615D01*
X1202Y615D02*
X1285Y615D01*
X905Y614D02*
X983Y614D01*
X1205Y614D02*
X1283Y614D01*
X908Y613D02*
X980Y613D01*
X1208Y613D02*
X1280Y613D01*
X915Y612D02*
X972Y612D01*
X1215Y612D02*
X1272Y612D01*
X912Y570D02*
X976Y570D01*
X1212Y570D02*
X1275Y570D01*
X907Y569D02*
X980Y569D01*
X1207Y569D02*
X1280Y569D01*
X904Y568D02*
X983Y568D01*
X1204Y568D02*
X1283Y568D01*
X902Y567D02*
X986Y567D01*
X1202Y567D02*
X1285Y567D01*
X900Y566D02*
X987Y566D01*
X1200Y566D02*
X1287Y566D01*
X899Y565D02*
X989Y565D01*
X1199Y565D02*
X1289Y565D01*
X897Y564D02*
X990Y564D01*
X1197Y564D02*
X1290Y564D01*
X896Y563D02*
X991Y563D01*
X1196Y563D02*
X1291Y563D01*
X895Y562D02*
X993Y562D01*
X1195Y562D02*
X1292Y562D01*
X894Y561D02*
X993Y561D01*
X1194Y561D02*
X1293Y561D01*
X893Y560D02*
X941Y560D01*
X946Y560D02*
X994Y560D01*
X1193Y560D02*
X1241Y560D01*
X1246Y560D02*
X1294Y560D01*
X892Y559D02*
X937Y559D01*
X951Y559D02*
X995Y559D01*
X1192Y559D02*
X1237Y559D01*
X1251Y559D02*
X1295Y559D01*
X891Y558D02*
X935Y558D01*
X953Y558D02*
X996Y558D01*
X1191Y558D02*
X1234Y558D01*
X1253Y558D02*
X1296Y558D01*
X891Y557D02*
X933Y557D01*
X955Y557D02*
X997Y557D01*
X1191Y557D02*
X1233Y557D01*
X1255Y557D02*
X1297Y557D01*
X890Y556D02*
X931Y556D01*
X956Y556D02*
X997Y556D01*
X1190Y556D02*
X1231Y556D01*
X1256Y556D02*
X1297Y556D01*
X890Y555D02*
X930Y555D01*
X957Y555D02*
X998Y555D01*
X1190Y555D02*
X1230Y555D01*
X1257Y555D02*
X1298Y555D01*
X889Y554D02*
X929Y554D01*
X958Y554D02*
X998Y554D01*
X1189Y554D02*
X1229Y554D01*
X1258Y554D02*
X1298Y554D01*
X889Y553D02*
X928Y553D01*
X959Y553D02*
X999Y553D01*
X1189Y553D02*
X1228Y553D01*
X1259Y553D02*
X1299Y553D01*
X888Y552D02*
X928Y552D01*
X960Y552D02*
X999Y552D01*
X1188Y552D02*
X1228Y552D01*
X1260Y552D02*
X1299Y552D01*
X888Y551D02*
X927Y551D01*
X960Y551D02*
X1000Y551D01*
X1188Y551D02*
X1227Y551D01*
X1260Y551D02*
X1300Y551D01*
X887Y550D02*
X926Y550D01*
X961Y550D02*
X1000Y550D01*
X1187Y550D02*
X1226Y550D01*
X1261Y550D02*
X1300Y550D01*
X887Y549D02*
X926Y549D01*
X962Y549D02*
X1000Y549D01*
X1187Y549D02*
X1226Y549D01*
X1261Y549D02*
X1300Y549D01*
X887Y548D02*
X925Y548D01*
X962Y548D02*
X1001Y548D01*
X1187Y548D02*
X1225Y548D01*
X1262Y548D02*
X1300Y548D01*
X887Y547D02*
X925Y547D01*
X962Y547D02*
X1001Y547D01*
X1187Y547D02*
X1225Y547D01*
X1262Y547D02*
X1301Y547D01*
X886Y546D02*
X925Y546D01*
X963Y546D02*
X1001Y546D01*
X1186Y546D02*
X1225Y546D01*
X1263Y546D02*
X1301Y546D01*
X886Y545D02*
X925Y545D01*
X963Y545D02*
X1001Y545D01*
X1186Y545D02*
X1224Y545D01*
X1263Y545D02*
X1301Y545D01*
X886Y544D02*
X924Y544D01*
X963Y544D02*
X1001Y544D01*
X1186Y544D02*
X1224Y544D01*
X1263Y544D02*
X1301Y544D01*
X886Y543D02*
X924Y543D01*
X963Y543D02*
X1001Y543D01*
X1186Y543D02*
X1224Y543D01*
X1263Y543D02*
X1301Y543D01*
X886Y542D02*
X924Y542D01*
X963Y542D02*
X1001Y542D01*
X1186Y542D02*
X1224Y542D01*
X1263Y542D02*
X1301Y542D01*
X886Y541D02*
X924Y541D01*
X963Y541D02*
X1001Y541D01*
X1186Y541D02*
X1224Y541D01*
X1263Y541D02*
X1301Y541D01*
X886Y540D02*
X924Y540D01*
X963Y540D02*
X1001Y540D01*
X1186Y540D02*
X1224Y540D01*
X1263Y540D02*
X1301Y540D01*
X886Y539D02*
X924Y539D01*
X963Y539D02*
X1001Y539D01*
X1186Y539D02*
X1224Y539D01*
X1263Y539D02*
X1301Y539D01*
X886Y538D02*
X924Y538D01*
X963Y538D02*
X1001Y538D01*
X1186Y538D02*
X1224Y538D01*
X1263Y538D02*
X1301Y538D01*
X886Y537D02*
X925Y537D01*
X963Y537D02*
X1001Y537D01*
X1186Y537D02*
X1225Y537D01*
X1263Y537D02*
X1301Y537D01*
X887Y536D02*
X925Y536D01*
X963Y536D02*
X1001Y536D01*
X1186Y536D02*
X1225Y536D01*
X1262Y536D02*
X1301Y536D01*
X887Y535D02*
X925Y535D01*
X962Y535D02*
X1001Y535D01*
X1187Y535D02*
X1225Y535D01*
X1262Y535D02*
X1301Y535D01*
X887Y534D02*
X926Y534D01*
X962Y534D02*
X1000Y534D01*
X1187Y534D02*
X1225Y534D01*
X1262Y534D02*
X1300Y534D01*
X887Y533D02*
X926Y533D01*
X961Y533D02*
X1000Y533D01*
X1187Y533D02*
X1226Y533D01*
X1261Y533D02*
X1300Y533D01*
X888Y532D02*
X927Y532D01*
X961Y532D02*
X1000Y532D01*
X1187Y532D02*
X1226Y532D01*
X1261Y532D02*
X1300Y532D01*
X888Y531D02*
X927Y531D01*
X960Y531D02*
X1000Y531D01*
X1188Y531D02*
X1227Y531D01*
X1260Y531D02*
X1300Y531D01*
X888Y530D02*
X928Y530D01*
X960Y530D02*
X999Y530D01*
X1188Y530D02*
X1228Y530D01*
X1260Y530D02*
X1299Y530D01*
X889Y529D02*
X929Y529D01*
X959Y529D02*
X999Y529D01*
X1189Y529D02*
X1229Y529D01*
X1259Y529D02*
X1299Y529D01*
X889Y528D02*
X929Y528D01*
X958Y528D02*
X998Y528D01*
X1189Y528D02*
X1229Y528D01*
X1258Y528D02*
X1298Y528D01*
X890Y527D02*
X930Y527D01*
X957Y527D02*
X998Y527D01*
X1190Y527D02*
X1230Y527D01*
X1257Y527D02*
X1298Y527D01*
X890Y526D02*
X932Y526D01*
X956Y526D02*
X997Y526D01*
X1190Y526D02*
X1232Y526D01*
X1256Y526D02*
X1297Y526D01*
X891Y525D02*
X933Y525D01*
X954Y525D02*
X997Y525D01*
X1191Y525D02*
X1233Y525D01*
X1254Y525D02*
X1296Y525D01*
X892Y524D02*
X935Y524D01*
X953Y524D02*
X996Y524D01*
X1192Y524D02*
X1235Y524D01*
X1253Y524D02*
X1296Y524D01*
X892Y523D02*
X937Y523D01*
X950Y523D02*
X995Y523D01*
X1192Y523D02*
X1237Y523D01*
X1250Y523D02*
X1295Y523D01*
X893Y522D02*
X994Y522D01*
X1193Y522D02*
X1294Y522D01*
X894Y521D02*
X993Y521D01*
X1194Y521D02*
X1293Y521D01*
X895Y520D02*
X992Y520D01*
X1195Y520D02*
X1292Y520D01*
X896Y519D02*
X991Y519D01*
X1196Y519D02*
X1291Y519D01*
X897Y518D02*
X990Y518D01*
X1197Y518D02*
X1290Y518D01*
X899Y517D02*
X989Y517D01*
X1199Y517D02*
X1289Y517D01*
X900Y516D02*
X987Y516D01*
X1200Y516D02*
X1287Y516D01*
X902Y515D02*
X985Y515D01*
X1202Y515D02*
X1285Y515D01*
X905Y514D02*
X983Y514D01*
X1205Y514D02*
X1283Y514D01*
X908Y513D02*
X980Y513D01*
X1208Y513D02*
X1280Y513D01*
X915Y512D02*
X972Y512D01*
X1215Y512D02*
X1272Y512D01*
X912Y470D02*
X976Y470D01*
X1212Y470D02*
X1275Y470D01*
X907Y469D02*
X980Y469D01*
X1207Y469D02*
X1280Y469D01*
X904Y468D02*
X983Y468D01*
X1204Y468D02*
X1283Y468D01*
X902Y467D02*
X986Y467D01*
X1202Y467D02*
X1285Y467D01*
X900Y466D02*
X987Y466D01*
X1200Y466D02*
X1287Y466D01*
X899Y465D02*
X989Y465D01*
X1199Y465D02*
X1289Y465D01*
X897Y464D02*
X990Y464D01*
X1197Y464D02*
X1290Y464D01*
X896Y463D02*
X991Y463D01*
X1196Y463D02*
X1291Y463D01*
X895Y462D02*
X993Y462D01*
X1195Y462D02*
X1292Y462D01*
X894Y461D02*
X993Y461D01*
X1194Y461D02*
X1293Y461D01*
X893Y460D02*
X941Y460D01*
X946Y460D02*
X994Y460D01*
X1193Y460D02*
X1241Y460D01*
X1246Y460D02*
X1294Y460D01*
X892Y459D02*
X937Y459D01*
X951Y459D02*
X995Y459D01*
X1192Y459D02*
X1237Y459D01*
X1251Y459D02*
X1295Y459D01*
X891Y458D02*
X935Y458D01*
X953Y458D02*
X996Y458D01*
X1191Y458D02*
X1234Y458D01*
X1253Y458D02*
X1296Y458D01*
X891Y457D02*
X933Y457D01*
X955Y457D02*
X997Y457D01*
X1191Y457D02*
X1233Y457D01*
X1255Y457D02*
X1297Y457D01*
X890Y456D02*
X931Y456D01*
X956Y456D02*
X997Y456D01*
X1190Y456D02*
X1231Y456D01*
X1256Y456D02*
X1297Y456D01*
X890Y455D02*
X930Y455D01*
X957Y455D02*
X998Y455D01*
X1190Y455D02*
X1230Y455D01*
X1257Y455D02*
X1298Y455D01*
X889Y454D02*
X929Y454D01*
X958Y454D02*
X998Y454D01*
X1189Y454D02*
X1229Y454D01*
X1258Y454D02*
X1298Y454D01*
X889Y453D02*
X928Y453D01*
X959Y453D02*
X999Y453D01*
X1189Y453D02*
X1228Y453D01*
X1259Y453D02*
X1299Y453D01*
X888Y452D02*
X928Y452D01*
X960Y452D02*
X999Y452D01*
X1188Y452D02*
X1228Y452D01*
X1260Y452D02*
X1299Y452D01*
X888Y451D02*
X927Y451D01*
X960Y451D02*
X1000Y451D01*
X1188Y451D02*
X1227Y451D01*
X1260Y451D02*
X1300Y451D01*
X887Y450D02*
X926Y450D01*
X961Y450D02*
X1000Y450D01*
X1187Y450D02*
X1226Y450D01*
X1261Y450D02*
X1300Y450D01*
X887Y449D02*
X926Y449D01*
X962Y449D02*
X1000Y449D01*
X1187Y449D02*
X1226Y449D01*
X1261Y449D02*
X1300Y449D01*
X887Y448D02*
X925Y448D01*
X962Y448D02*
X1001Y448D01*
X1187Y448D02*
X1225Y448D01*
X1262Y448D02*
X1300Y448D01*
X887Y447D02*
X925Y447D01*
X962Y447D02*
X1001Y447D01*
X1187Y447D02*
X1225Y447D01*
X1262Y447D02*
X1301Y447D01*
X886Y446D02*
X925Y446D01*
X963Y446D02*
X1001Y446D01*
X1186Y446D02*
X1225Y446D01*
X1263Y446D02*
X1301Y446D01*
X886Y445D02*
X925Y445D01*
X963Y445D02*
X1001Y445D01*
X1186Y445D02*
X1224Y445D01*
X1263Y445D02*
X1301Y445D01*
X886Y444D02*
X924Y444D01*
X963Y444D02*
X1001Y444D01*
X1186Y444D02*
X1224Y444D01*
X1263Y444D02*
X1301Y444D01*
X886Y443D02*
X924Y443D01*
X963Y443D02*
X1001Y443D01*
X1186Y443D02*
X1224Y443D01*
X1263Y443D02*
X1301Y443D01*
X886Y442D02*
X924Y442D01*
X963Y442D02*
X1001Y442D01*
X1186Y442D02*
X1224Y442D01*
X1263Y442D02*
X1301Y442D01*
X886Y441D02*
X924Y441D01*
X963Y441D02*
X1001Y441D01*
X1186Y441D02*
X1224Y441D01*
X1263Y441D02*
X1301Y441D01*
X886Y440D02*
X924Y440D01*
X963Y440D02*
X1001Y440D01*
X1186Y440D02*
X1224Y440D01*
X1263Y440D02*
X1301Y440D01*
X886Y439D02*
X924Y439D01*
X963Y439D02*
X1001Y439D01*
X1186Y439D02*
X1224Y439D01*
X1263Y439D02*
X1301Y439D01*
X886Y438D02*
X924Y438D01*
X963Y438D02*
X1001Y438D01*
X1186Y438D02*
X1224Y438D01*
X1263Y438D02*
X1301Y438D01*
X886Y437D02*
X925Y437D01*
X963Y437D02*
X1001Y437D01*
X1186Y437D02*
X1225Y437D01*
X1263Y437D02*
X1301Y437D01*
X887Y436D02*
X925Y436D01*
X963Y436D02*
X1001Y436D01*
X1186Y436D02*
X1225Y436D01*
X1262Y436D02*
X1301Y436D01*
X887Y435D02*
X925Y435D01*
X962Y435D02*
X1001Y435D01*
X1187Y435D02*
X1225Y435D01*
X1262Y435D02*
X1301Y435D01*
X887Y434D02*
X926Y434D01*
X962Y434D02*
X1000Y434D01*
X1187Y434D02*
X1225Y434D01*
X1262Y434D02*
X1300Y434D01*
X887Y433D02*
X926Y433D01*
X961Y433D02*
X1000Y433D01*
X1187Y433D02*
X1226Y433D01*
X1261Y433D02*
X1300Y433D01*
X888Y432D02*
X927Y432D01*
X961Y432D02*
X1000Y432D01*
X1187Y432D02*
X1226Y432D01*
X1261Y432D02*
X1300Y432D01*
X888Y431D02*
X927Y431D01*
X960Y431D02*
X1000Y431D01*
X1188Y431D02*
X1227Y431D01*
X1260Y431D02*
X1300Y431D01*
X888Y430D02*
X928Y430D01*
X960Y430D02*
X999Y430D01*
X1188Y430D02*
X1228Y430D01*
X1260Y430D02*
X1299Y430D01*
X889Y429D02*
X929Y429D01*
X959Y429D02*
X999Y429D01*
X1189Y429D02*
X1229Y429D01*
X1259Y429D02*
X1299Y429D01*
X889Y428D02*
X929Y428D01*
X958Y428D02*
X998Y428D01*
X1189Y428D02*
X1229Y428D01*
X1258Y428D02*
X1298Y428D01*
X890Y427D02*
X930Y427D01*
X957Y427D02*
X998Y427D01*
X1190Y427D02*
X1230Y427D01*
X1257Y427D02*
X1298Y427D01*
X890Y426D02*
X932Y426D01*
X956Y426D02*
X997Y426D01*
X1190Y426D02*
X1232Y426D01*
X1256Y426D02*
X1297Y426D01*
X891Y425D02*
X933Y425D01*
X954Y425D02*
X997Y425D01*
X1191Y425D02*
X1233Y425D01*
X1254Y425D02*
X1296Y425D01*
X892Y424D02*
X935Y424D01*
X953Y424D02*
X996Y424D01*
X1192Y424D02*
X1235Y424D01*
X1253Y424D02*
X1296Y424D01*
X892Y423D02*
X937Y423D01*
X950Y423D02*
X995Y423D01*
X1192Y423D02*
X1237Y423D01*
X1250Y423D02*
X1295Y423D01*
X893Y422D02*
X994Y422D01*
X1193Y422D02*
X1294Y422D01*
X894Y421D02*
X993Y421D01*
X1194Y421D02*
X1293Y421D01*
X895Y420D02*
X992Y420D01*
X1195Y420D02*
X1292Y420D01*
X896Y419D02*
X991Y419D01*
X1196Y419D02*
X1291Y419D01*
X897Y418D02*
X990Y418D01*
X1197Y418D02*
X1290Y418D01*
X899Y417D02*
X989Y417D01*
X1199Y417D02*
X1289Y417D01*
X900Y416D02*
X987Y416D01*
X1200Y416D02*
X1287Y416D01*
X902Y415D02*
X985Y415D01*
X1202Y415D02*
X1285Y415D01*
X905Y414D02*
X983Y414D01*
X1205Y414D02*
X1283Y414D01*
X908Y413D02*
X980Y413D01*
X1208Y413D02*
X1280Y413D01*
X915Y412D02*
X972Y412D01*
X1215Y412D02*
X1272Y412D01*
X912Y370D02*
X976Y370D01*
X1212Y370D02*
X1275Y370D01*
X907Y369D02*
X980Y369D01*
X1207Y369D02*
X1280Y369D01*
X904Y368D02*
X983Y368D01*
X1204Y368D02*
X1283Y368D01*
X902Y367D02*
X986Y367D01*
X1202Y367D02*
X1285Y367D01*
X900Y366D02*
X987Y366D01*
X1200Y366D02*
X1287Y366D01*
X899Y365D02*
X989Y365D01*
X1199Y365D02*
X1289Y365D01*
X897Y364D02*
X990Y364D01*
X1197Y364D02*
X1290Y364D01*
X896Y363D02*
X991Y363D01*
X1196Y363D02*
X1291Y363D01*
X895Y362D02*
X993Y362D01*
X1195Y362D02*
X1292Y362D01*
X894Y361D02*
X993Y361D01*
X1194Y361D02*
X1293Y361D01*
X893Y360D02*
X941Y360D01*
X946Y360D02*
X994Y360D01*
X1193Y360D02*
X1241Y360D01*
X1246Y360D02*
X1294Y360D01*
X892Y359D02*
X937Y359D01*
X951Y359D02*
X995Y359D01*
X1192Y359D02*
X1237Y359D01*
X1251Y359D02*
X1295Y359D01*
X891Y358D02*
X935Y358D01*
X953Y358D02*
X996Y358D01*
X1191Y358D02*
X1234Y358D01*
X1253Y358D02*
X1296Y358D01*
X891Y357D02*
X933Y357D01*
X955Y357D02*
X997Y357D01*
X1191Y357D02*
X1233Y357D01*
X1255Y357D02*
X1297Y357D01*
X890Y356D02*
X931Y356D01*
X956Y356D02*
X997Y356D01*
X1190Y356D02*
X1231Y356D01*
X1256Y356D02*
X1297Y356D01*
X890Y355D02*
X930Y355D01*
X957Y355D02*
X998Y355D01*
X1190Y355D02*
X1230Y355D01*
X1257Y355D02*
X1298Y355D01*
X889Y354D02*
X929Y354D01*
X958Y354D02*
X998Y354D01*
X1189Y354D02*
X1229Y354D01*
X1258Y354D02*
X1298Y354D01*
X889Y353D02*
X928Y353D01*
X959Y353D02*
X999Y353D01*
X1189Y353D02*
X1228Y353D01*
X1259Y353D02*
X1299Y353D01*
X888Y352D02*
X928Y352D01*
X960Y352D02*
X999Y352D01*
X1188Y352D02*
X1228Y352D01*
X1260Y352D02*
X1299Y352D01*
X888Y351D02*
X927Y351D01*
X960Y351D02*
X1000Y351D01*
X1188Y351D02*
X1227Y351D01*
X1260Y351D02*
X1300Y351D01*
X887Y350D02*
X926Y350D01*
X961Y350D02*
X1000Y350D01*
X1187Y350D02*
X1226Y350D01*
X1261Y350D02*
X1300Y350D01*
X887Y349D02*
X926Y349D01*
X962Y349D02*
X1000Y349D01*
X1187Y349D02*
X1226Y349D01*
X1261Y349D02*
X1300Y349D01*
X887Y348D02*
X925Y348D01*
X962Y348D02*
X1001Y348D01*
X1187Y348D02*
X1225Y348D01*
X1262Y348D02*
X1300Y348D01*
X887Y347D02*
X925Y347D01*
X962Y347D02*
X1001Y347D01*
X1187Y347D02*
X1225Y347D01*
X1262Y347D02*
X1301Y347D01*
X886Y346D02*
X925Y346D01*
X963Y346D02*
X1001Y346D01*
X1186Y346D02*
X1225Y346D01*
X1263Y346D02*
X1301Y346D01*
X886Y345D02*
X925Y345D01*
X963Y345D02*
X1001Y345D01*
X1186Y345D02*
X1224Y345D01*
X1263Y345D02*
X1301Y345D01*
X886Y344D02*
X924Y344D01*
X963Y344D02*
X1001Y344D01*
X1186Y344D02*
X1224Y344D01*
X1263Y344D02*
X1301Y344D01*
X886Y343D02*
X924Y343D01*
X963Y343D02*
X1001Y343D01*
X1186Y343D02*
X1224Y343D01*
X1263Y343D02*
X1301Y343D01*
X886Y342D02*
X924Y342D01*
X963Y342D02*
X1001Y342D01*
X1186Y342D02*
X1224Y342D01*
X1263Y342D02*
X1301Y342D01*
X886Y341D02*
X924Y341D01*
X963Y341D02*
X1001Y341D01*
X1186Y341D02*
X1224Y341D01*
X1263Y341D02*
X1301Y341D01*
X886Y340D02*
X924Y340D01*
X963Y340D02*
X1001Y340D01*
X1186Y340D02*
X1224Y340D01*
X1263Y340D02*
X1301Y340D01*
X886Y339D02*
X924Y339D01*
X963Y339D02*
X1001Y339D01*
X1186Y339D02*
X1224Y339D01*
X1263Y339D02*
X1301Y339D01*
X886Y338D02*
X924Y338D01*
X963Y338D02*
X1001Y338D01*
X1186Y338D02*
X1224Y338D01*
X1263Y338D02*
X1301Y338D01*
X886Y337D02*
X925Y337D01*
X963Y337D02*
X1001Y337D01*
X1186Y337D02*
X1225Y337D01*
X1263Y337D02*
X1301Y337D01*
X887Y336D02*
X925Y336D01*
X963Y336D02*
X1001Y336D01*
X1186Y336D02*
X1225Y336D01*
X1262Y336D02*
X1301Y336D01*
X887Y335D02*
X925Y335D01*
X962Y335D02*
X1001Y335D01*
X1187Y335D02*
X1225Y335D01*
X1262Y335D02*
X1301Y335D01*
X887Y334D02*
X926Y334D01*
X962Y334D02*
X1000Y334D01*
X1187Y334D02*
X1225Y334D01*
X1262Y334D02*
X1300Y334D01*
X887Y333D02*
X926Y333D01*
X961Y333D02*
X1000Y333D01*
X1187Y333D02*
X1226Y333D01*
X1261Y333D02*
X1300Y333D01*
X888Y332D02*
X927Y332D01*
X961Y332D02*
X1000Y332D01*
X1187Y332D02*
X1226Y332D01*
X1261Y332D02*
X1300Y332D01*
X888Y331D02*
X927Y331D01*
X960Y331D02*
X1000Y331D01*
X1188Y331D02*
X1227Y331D01*
X1260Y331D02*
X1300Y331D01*
X888Y330D02*
X928Y330D01*
X960Y330D02*
X999Y330D01*
X1188Y330D02*
X1228Y330D01*
X1260Y330D02*
X1299Y330D01*
X889Y329D02*
X929Y329D01*
X959Y329D02*
X999Y329D01*
X1189Y329D02*
X1229Y329D01*
X1259Y329D02*
X1299Y329D01*
X889Y328D02*
X929Y328D01*
X958Y328D02*
X998Y328D01*
X1189Y328D02*
X1229Y328D01*
X1258Y328D02*
X1298Y328D01*
X890Y327D02*
X930Y327D01*
X957Y327D02*
X998Y327D01*
X1190Y327D02*
X1230Y327D01*
X1257Y327D02*
X1298Y327D01*
X890Y326D02*
X932Y326D01*
X956Y326D02*
X997Y326D01*
X1190Y326D02*
X1232Y326D01*
X1256Y326D02*
X1297Y326D01*
X891Y325D02*
X933Y325D01*
X954Y325D02*
X997Y325D01*
X1191Y325D02*
X1233Y325D01*
X1254Y325D02*
X1296Y325D01*
X892Y324D02*
X935Y324D01*
X953Y324D02*
X996Y324D01*
X1192Y324D02*
X1235Y324D01*
X1253Y324D02*
X1296Y324D01*
X892Y323D02*
X937Y323D01*
X950Y323D02*
X995Y323D01*
X1192Y323D02*
X1237Y323D01*
X1250Y323D02*
X1295Y323D01*
X893Y322D02*
X994Y322D01*
X1193Y322D02*
X1294Y322D01*
X894Y321D02*
X993Y321D01*
X1194Y321D02*
X1293Y321D01*
X895Y320D02*
X992Y320D01*
X1195Y320D02*
X1292Y320D01*
X896Y319D02*
X991Y319D01*
X1196Y319D02*
X1291Y319D01*
X897Y318D02*
X990Y318D01*
X1197Y318D02*
X1290Y318D01*
X899Y317D02*
X989Y317D01*
X1199Y317D02*
X1289Y317D01*
X900Y316D02*
X987Y316D01*
X1200Y316D02*
X1287Y316D01*
X902Y315D02*
X985Y315D01*
X1202Y315D02*
X1285Y315D01*
X905Y314D02*
X983Y314D01*
X1205Y314D02*
X1283Y314D01*
X908Y313D02*
X980Y313D01*
X1208Y313D02*
X1280Y313D01*
X915Y312D02*
X972Y312D01*
X1215Y312D02*
X1272Y312D01*
X1807Y278D02*
X1880Y278D01*
X1807Y277D02*
X1880Y277D01*
X1807Y276D02*
X1880Y276D01*
X1807Y275D02*
X1880Y275D01*
X1807Y274D02*
X1880Y274D01*
X1807Y273D02*
X1880Y273D01*
X1807Y272D02*
X1880Y272D01*
X1807Y271D02*
X1880Y271D01*
X912Y270D02*
X976Y270D01*
X1212Y270D02*
X1276Y270D01*
X1807Y270D02*
X1880Y270D01*
X907Y269D02*
X980Y269D01*
X1207Y269D02*
X1280Y269D01*
X1807Y269D02*
X1880Y269D01*
X904Y268D02*
X983Y268D01*
X1204Y268D02*
X1283Y268D01*
X1807Y268D02*
X1880Y268D01*
X902Y267D02*
X986Y267D01*
X1202Y267D02*
X1285Y267D01*
X1807Y267D02*
X1880Y267D01*
X900Y266D02*
X987Y266D01*
X1200Y266D02*
X1287Y266D01*
X1807Y266D02*
X1880Y266D01*
X899Y265D02*
X989Y265D01*
X1199Y265D02*
X1289Y265D01*
X1807Y265D02*
X1880Y265D01*
X897Y264D02*
X990Y264D01*
X1197Y264D02*
X1290Y264D01*
X1807Y264D02*
X1880Y264D01*
X896Y263D02*
X991Y263D01*
X1196Y263D02*
X1291Y263D01*
X1807Y263D02*
X1880Y263D01*
X895Y262D02*
X993Y262D01*
X1195Y262D02*
X1292Y262D01*
X1807Y262D02*
X1880Y262D01*
X894Y261D02*
X994Y261D01*
X1194Y261D02*
X1293Y261D01*
X1807Y261D02*
X1842Y261D01*
X1845Y261D02*
X1880Y261D01*
X893Y260D02*
X941Y260D01*
X946Y260D02*
X994Y260D01*
X1193Y260D02*
X1241Y260D01*
X1246Y260D02*
X1294Y260D01*
X1807Y260D02*
X1837Y260D01*
X1850Y260D02*
X1880Y260D01*
X892Y259D02*
X937Y259D01*
X951Y259D02*
X995Y259D01*
X1192Y259D02*
X1237Y259D01*
X1251Y259D02*
X1295Y259D01*
X1807Y259D02*
X1834Y259D01*
X1853Y259D02*
X1880Y259D01*
X891Y258D02*
X935Y258D01*
X953Y258D02*
X996Y258D01*
X1191Y258D02*
X1234Y258D01*
X1253Y258D02*
X1296Y258D01*
X1807Y258D02*
X1832Y258D01*
X1855Y258D02*
X1880Y258D01*
X891Y257D02*
X933Y257D01*
X955Y257D02*
X997Y257D01*
X1191Y257D02*
X1233Y257D01*
X1255Y257D02*
X1297Y257D01*
X1807Y257D02*
X1831Y257D01*
X1856Y257D02*
X1880Y257D01*
X890Y256D02*
X931Y256D01*
X956Y256D02*
X997Y256D01*
X1190Y256D02*
X1231Y256D01*
X1256Y256D02*
X1297Y256D01*
X1807Y256D02*
X1830Y256D01*
X1857Y256D02*
X1880Y256D01*
X890Y255D02*
X930Y255D01*
X957Y255D02*
X998Y255D01*
X1190Y255D02*
X1230Y255D01*
X1257Y255D02*
X1298Y255D01*
X1807Y255D02*
X1829Y255D01*
X1858Y255D02*
X1880Y255D01*
X889Y254D02*
X929Y254D01*
X958Y254D02*
X998Y254D01*
X1189Y254D02*
X1229Y254D01*
X1258Y254D02*
X1298Y254D01*
X1807Y254D02*
X1828Y254D01*
X1859Y254D02*
X1880Y254D01*
X889Y253D02*
X928Y253D01*
X959Y253D02*
X999Y253D01*
X1189Y253D02*
X1228Y253D01*
X1259Y253D02*
X1299Y253D01*
X1807Y253D02*
X1827Y253D01*
X1860Y253D02*
X1880Y253D01*
X888Y252D02*
X928Y252D01*
X960Y252D02*
X999Y252D01*
X1188Y252D02*
X1228Y252D01*
X1260Y252D02*
X1299Y252D01*
X1807Y252D02*
X1826Y252D01*
X1861Y252D02*
X1880Y252D01*
X888Y251D02*
X927Y251D01*
X960Y251D02*
X1000Y251D01*
X1188Y251D02*
X1227Y251D01*
X1260Y251D02*
X1300Y251D01*
X1807Y251D02*
X1826Y251D01*
X1861Y251D02*
X1880Y251D01*
X887Y250D02*
X926Y250D01*
X961Y250D02*
X1000Y250D01*
X1187Y250D02*
X1226Y250D01*
X1261Y250D02*
X1300Y250D01*
X1807Y250D02*
X1825Y250D01*
X1862Y250D02*
X1880Y250D01*
X887Y249D02*
X926Y249D01*
X962Y249D02*
X1000Y249D01*
X1187Y249D02*
X1226Y249D01*
X1261Y249D02*
X1300Y249D01*
X1807Y249D02*
X1825Y249D01*
X1862Y249D02*
X1880Y249D01*
X887Y248D02*
X925Y248D01*
X962Y248D02*
X1001Y248D01*
X1187Y248D02*
X1225Y248D01*
X1262Y248D02*
X1300Y248D01*
X1807Y248D02*
X1824Y248D01*
X1863Y248D02*
X1880Y248D01*
X887Y247D02*
X925Y247D01*
X962Y247D02*
X1001Y247D01*
X1187Y247D02*
X1225Y247D01*
X1262Y247D02*
X1301Y247D01*
X1807Y247D02*
X1824Y247D01*
X1863Y247D02*
X1880Y247D01*
X886Y246D02*
X925Y246D01*
X963Y246D02*
X1001Y246D01*
X1186Y246D02*
X1225Y246D01*
X1263Y246D02*
X1301Y246D01*
X1807Y246D02*
X1824Y246D01*
X1863Y246D02*
X1880Y246D01*
X886Y245D02*
X925Y245D01*
X963Y245D02*
X1001Y245D01*
X1186Y245D02*
X1224Y245D01*
X1263Y245D02*
X1301Y245D01*
X1807Y245D02*
X1823Y245D01*
X1864Y245D02*
X1880Y245D01*
X886Y244D02*
X924Y244D01*
X963Y244D02*
X1001Y244D01*
X1186Y244D02*
X1224Y244D01*
X1263Y244D02*
X1301Y244D01*
X1807Y244D02*
X1823Y244D01*
X1864Y244D02*
X1880Y244D01*
X886Y243D02*
X924Y243D01*
X963Y243D02*
X1001Y243D01*
X1186Y243D02*
X1224Y243D01*
X1263Y243D02*
X1301Y243D01*
X1807Y243D02*
X1823Y243D01*
X1864Y243D02*
X1880Y243D01*
X886Y242D02*
X924Y242D01*
X963Y242D02*
X1001Y242D01*
X1186Y242D02*
X1224Y242D01*
X1263Y242D02*
X1301Y242D01*
X1807Y242D02*
X1823Y242D01*
X1864Y242D02*
X1880Y242D01*
X886Y241D02*
X924Y241D01*
X963Y241D02*
X1001Y241D01*
X1186Y241D02*
X1224Y241D01*
X1263Y241D02*
X1301Y241D01*
X1807Y241D02*
X1823Y241D01*
X1864Y241D02*
X1880Y241D01*
X886Y240D02*
X924Y240D01*
X963Y240D02*
X1001Y240D01*
X1186Y240D02*
X1224Y240D01*
X1263Y240D02*
X1301Y240D01*
X1807Y240D02*
X1823Y240D01*
X1864Y240D02*
X1880Y240D01*
X886Y239D02*
X924Y239D01*
X963Y239D02*
X1001Y239D01*
X1186Y239D02*
X1224Y239D01*
X1263Y239D02*
X1301Y239D01*
X1807Y239D02*
X1823Y239D01*
X1864Y239D02*
X1880Y239D01*
X886Y238D02*
X924Y238D01*
X963Y238D02*
X1001Y238D01*
X1186Y238D02*
X1224Y238D01*
X1263Y238D02*
X1301Y238D01*
X1807Y238D02*
X1823Y238D01*
X1864Y238D02*
X1880Y238D01*
X886Y237D02*
X925Y237D01*
X963Y237D02*
X1001Y237D01*
X1186Y237D02*
X1225Y237D01*
X1263Y237D02*
X1301Y237D01*
X1807Y237D02*
X1823Y237D01*
X1864Y237D02*
X1880Y237D01*
X887Y236D02*
X925Y236D01*
X963Y236D02*
X1001Y236D01*
X1186Y236D02*
X1225Y236D01*
X1262Y236D02*
X1301Y236D01*
X1807Y236D02*
X1824Y236D01*
X1863Y236D02*
X1880Y236D01*
X887Y235D02*
X925Y235D01*
X962Y235D02*
X1001Y235D01*
X1187Y235D02*
X1225Y235D01*
X1262Y235D02*
X1301Y235D01*
X1807Y235D02*
X1824Y235D01*
X1863Y235D02*
X1880Y235D01*
X887Y234D02*
X926Y234D01*
X962Y234D02*
X1000Y234D01*
X1187Y234D02*
X1225Y234D01*
X1262Y234D02*
X1300Y234D01*
X1807Y234D02*
X1824Y234D01*
X1863Y234D02*
X1880Y234D01*
X887Y233D02*
X926Y233D01*
X961Y233D02*
X1000Y233D01*
X1187Y233D02*
X1226Y233D01*
X1261Y233D02*
X1300Y233D01*
X1807Y233D02*
X1825Y233D01*
X1862Y233D02*
X1880Y233D01*
X888Y232D02*
X927Y232D01*
X961Y232D02*
X1000Y232D01*
X1187Y232D02*
X1226Y232D01*
X1261Y232D02*
X1300Y232D01*
X1807Y232D02*
X1825Y232D01*
X1862Y232D02*
X1880Y232D01*
X888Y231D02*
X927Y231D01*
X960Y231D02*
X1000Y231D01*
X1188Y231D02*
X1227Y231D01*
X1260Y231D02*
X1300Y231D01*
X1807Y231D02*
X1826Y231D01*
X1861Y231D02*
X1880Y231D01*
X888Y230D02*
X928Y230D01*
X960Y230D02*
X999Y230D01*
X1188Y230D02*
X1228Y230D01*
X1260Y230D02*
X1299Y230D01*
X1807Y230D02*
X1826Y230D01*
X1861Y230D02*
X1880Y230D01*
X889Y229D02*
X929Y229D01*
X959Y229D02*
X999Y229D01*
X1189Y229D02*
X1229Y229D01*
X1259Y229D02*
X1299Y229D01*
X1807Y229D02*
X1827Y229D01*
X1860Y229D02*
X1880Y229D01*
X889Y228D02*
X929Y228D01*
X958Y228D02*
X998Y228D01*
X1189Y228D02*
X1229Y228D01*
X1258Y228D02*
X1298Y228D01*
X1807Y228D02*
X1828Y228D01*
X1859Y228D02*
X1880Y228D01*
X890Y227D02*
X930Y227D01*
X957Y227D02*
X998Y227D01*
X1190Y227D02*
X1230Y227D01*
X1257Y227D02*
X1298Y227D01*
X1807Y227D02*
X1829Y227D01*
X1858Y227D02*
X1880Y227D01*
X890Y226D02*
X932Y226D01*
X956Y226D02*
X997Y226D01*
X1190Y226D02*
X1232Y226D01*
X1256Y226D02*
X1297Y226D01*
X1807Y226D02*
X1830Y226D01*
X1857Y226D02*
X1880Y226D01*
X891Y225D02*
X933Y225D01*
X954Y225D02*
X997Y225D01*
X1191Y225D02*
X1233Y225D01*
X1254Y225D02*
X1296Y225D01*
X1807Y225D02*
X1831Y225D01*
X1856Y225D02*
X1880Y225D01*
X892Y224D02*
X935Y224D01*
X953Y224D02*
X996Y224D01*
X1192Y224D02*
X1235Y224D01*
X1253Y224D02*
X1296Y224D01*
X1807Y224D02*
X1833Y224D01*
X1854Y224D02*
X1880Y224D01*
X892Y223D02*
X937Y223D01*
X950Y223D02*
X995Y223D01*
X1192Y223D02*
X1237Y223D01*
X1250Y223D02*
X1295Y223D01*
X1807Y223D02*
X1835Y223D01*
X1852Y223D02*
X1880Y223D01*
X893Y222D02*
X994Y222D01*
X1193Y222D02*
X1294Y222D01*
X1807Y222D02*
X1837Y222D01*
X1850Y222D02*
X1880Y222D01*
X894Y221D02*
X993Y221D01*
X1194Y221D02*
X1293Y221D01*
X1807Y221D02*
X1880Y221D01*
X895Y220D02*
X992Y220D01*
X1195Y220D02*
X1292Y220D01*
X1807Y220D02*
X1880Y220D01*
X896Y219D02*
X991Y219D01*
X1196Y219D02*
X1291Y219D01*
X1807Y219D02*
X1880Y219D01*
X897Y218D02*
X990Y218D01*
X1197Y218D02*
X1290Y218D01*
X1807Y218D02*
X1880Y218D01*
X899Y217D02*
X989Y217D01*
X1199Y217D02*
X1289Y217D01*
X1807Y217D02*
X1880Y217D01*
X900Y216D02*
X987Y216D01*
X1200Y216D02*
X1287Y216D01*
X1807Y216D02*
X1880Y216D01*
X902Y215D02*
X985Y215D01*
X1202Y215D02*
X1285Y215D01*
X1807Y215D02*
X1880Y215D01*
X905Y214D02*
X983Y214D01*
X1205Y214D02*
X1283Y214D01*
X1807Y214D02*
X1880Y214D01*
X908Y213D02*
X980Y213D01*
X1208Y213D02*
X1280Y213D01*
X1807Y213D02*
X1880Y213D01*
X915Y212D02*
X972Y212D01*
X1215Y212D02*
X1272Y212D01*
X1807Y212D02*
X1880Y212D01*
X1807Y211D02*
X1880Y211D01*
X1807Y210D02*
X1880Y210D01*
X1807Y209D02*
X1880Y209D01*
X1807Y208D02*
X1880Y208D01*
X1807Y207D02*
X1880Y207D01*
X1807Y206D02*
X1880Y206D01*
X1807Y205D02*
X1880Y205D01*
D02*
G04 End of Copper1*
M02*