<?xml version="1.0" encoding="UTF-8" standalone="no"?>
<!DOCTYPE svg PUBLIC "-//W3C//DTD SVG 1.1//EN"
 "http://www.w3.org/Graphics/SVG/1.1/DTD/svg11.dtd">
<!-- Generated by graphviz version 14.1.4 (20260321.0153)
 -->
<!-- Title: src/sensesp/sensors/analog_input.h Pages: 1 -->
<svg width="1141pt" height="547pt"
 viewBox="0.00 0.00 1141.00 547.00" xmlns="http://www.w3.org/2000/svg" xmlns:xlink="http://www.w3.org/1999/xlink">
<g id="graph0" class="graph" transform="scale(1 1) rotate(0) translate(4 543)">
<title>src/sensesp/sensors/analog_input.h</title>
<!-- Node1 -->
<g id="Node000001" class="node">
<title>Node1</title>
<g id="a_Node000001"><a xlink:title=" ">
<polygon fill="#999999" stroke="#666666" points="312.99,-539 206.24,-539 206.24,-508.5 312.99,-508.5 312.99,-539"/>
<text xml:space="preserve" text-anchor="start" x="214.24" y="-525.5" font-family="Helvetica,sans-Serif" font-size="10.00">src/sensesp/sensors</text>
<text xml:space="preserve" text-anchor="middle" x="259.62" y="-514.25" font-family="Helvetica,sans-Serif" font-size="10.00">/analog_input.h</text>
</a>
</g>
</g>
<!-- Node2 -->
<g id="Node000002" class="node">
<title>Node2</title>
<g id="a_Node000002"><a xlink:title=" ">
<polygon fill="#e0e0e0" stroke="#999999" points="746.24,-80.12 694.99,-80.12 694.99,-60.88 746.24,-60.88 746.24,-80.12"/>
<text xml:space="preserve" text-anchor="middle" x="720.62" y="-66.62" font-family="Helvetica,sans-Serif" font-size="10.00">memory</text>
</a>
</g>
</g>
<!-- Node1&#45;&gt;Node2 -->
<g id="edge1_Node000001_Node000002" class="edge">
<title>Node1&#45;&gt;Node2</title>
<g id="a_edge1_Node000001_Node000002"><a xlink:title=" ">
<path fill="none" stroke="#63b8ff" d="M205.95,-522C130.09,-517.79 0.62,-497.56 0.62,-408.62 0.62,-408.62 0.62,-408.62 0.62,-240.88 0.62,-211.26 -1.86,-197.4 19.62,-177 116.42,-85.04 552.71,-73.18 683.47,-71.7"/>
<polygon fill="#63b8ff" stroke="#63b8ff" points="683.32,-75.2 693.29,-71.6 683.25,-68.2 683.32,-75.2"/>
</a>
</g>
</g>
<!-- Node3 -->
<g id="Node000003" class="node">
<title>Node3</title>
<g id="a_Node000003"><a xlink:title=" ">
<polygon fill="#e0e0e0" stroke="#999999" points="1133.24,-80.12 1063.99,-80.12 1063.99,-60.88 1133.24,-60.88 1133.24,-80.12"/>
<text xml:space="preserve" text-anchor="middle" x="1098.62" y="-66.62" font-family="Helvetica,sans-Serif" font-size="10.00">ReactESP.h</text>
</a>
</g>
</g>
<!-- Node1&#45;&gt;Node3 -->
<g id="edge2_Node000001_Node000003" class="edge">
<title>Node1&#45;&gt;Node3</title>
<g id="a_edge2_Node000001_Node000003"><a xlink:title=" ">
<path fill="none" stroke="#63b8ff" d="M313.29,-521.29C501.13,-515.46 1117.62,-490.15 1117.62,-408.62 1117.62,-408.62 1117.62,-408.62 1117.62,-185.62 1117.62,-152.24 1109.61,-114.09 1103.99,-91.45"/>
<polygon fill="#63b8ff" stroke="#63b8ff" points="1107.45,-90.86 1101.56,-82.05 1100.68,-92.61 1107.45,-90.86"/>
</a>
</g>
</g>
<!-- Node4 -->
<g id="Node000004" class="node">
<title>Node4</title>
<g id="a_Node000004"><a xlink:href="analog__reader_8h.html" target="_top" xlink:title=" ">
<polygon fill="white" stroke="#666666" points="112.74,-196.25 28.49,-196.25 28.49,-177 112.74,-177 112.74,-196.25"/>
<text xml:space="preserve" text-anchor="middle" x="70.62" y="-182.75" font-family="Helvetica,sans-Serif" font-size="10.00">analog_reader.h</text>
</a>
</g>
</g>
<!-- Node1&#45;&gt;Node4 -->
<g id="edge3_Node000001_Node000004" class="edge">
<title>Node1&#45;&gt;Node4</title>
<g id="a_edge3_Node000001_Node000004"><a xlink:title=" ">
<path fill="none" stroke="#63b8ff" d="M205.89,-517.39C142.5,-507.75 45.62,-481.15 45.62,-408.62 45.62,-408.62 45.62,-408.62 45.62,-296.12 45.62,-264.47 55.85,-228.91 63.22,-207.4"/>
<polygon fill="#63b8ff" stroke="#63b8ff" points="66.45,-208.77 66.53,-198.17 59.86,-206.41 66.45,-208.77"/>
</a>
</g>
</g>
<!-- Node10 -->
<g id="Node000010" class="node">
<title>Node10</title>
<g id="a_Node000010"><a xlink:href="config__item_8h.html" target="_top" xlink:title=" ">
<polygon fill="white" stroke="#666666" points="321.99,-306.75 197.24,-306.75 197.24,-287.5 321.99,-287.5 321.99,-306.75"/>
<text xml:space="preserve" text-anchor="middle" x="259.62" y="-293.25" font-family="Helvetica,sans-Serif" font-size="10.00">sensesp/ui/config_item.h</text>
</a>
</g>
</g>
<!-- Node1&#45;&gt;Node10 -->
<g id="edge12_Node000001_Node000010" class="edge">
<title>Node1&#45;&gt;Node10</title>
<g id="a_edge12_Node000001_Node000010"><a xlink:title=" ">
<path fill="none" stroke="#63b8ff" d="M259.62,-508.01C259.62,-468.92 259.62,-362.58 259.62,-318.1"/>
<polygon fill="#63b8ff" stroke="#63b8ff" points="263.12,-318.38 259.62,-308.38 256.12,-318.38 263.12,-318.38"/>
</a>
</g>
</g>
<!-- Node17 -->
<g id="Node000017" class="node">
<title>Node17</title>
<g id="a_Node000017"><a xlink:href="sensor_8h.html" target="_top" xlink:title=" ">
<polygon fill="white" stroke="#666666" points="753.99,-472.5 701.24,-472.5 701.24,-453.25 753.99,-453.25 753.99,-472.5"/>
<text xml:space="preserve" text-anchor="middle" x="727.62" y="-459" font-family="Helvetica,sans-Serif" font-size="10.00">sensor.h</text>
</a>
</g>
</g>
<!-- Node1&#45;&gt;Node17 -->
<g id="edge27_Node000001_Node000017" class="edge">
<title>Node1&#45;&gt;Node17</title>
<g id="a_edge27_Node000001_Node000017"><a xlink:title=" ">
<path fill="none" stroke="#63b8ff" d="M313.3,-516C408.96,-503.96 606.62,-479.1 689.61,-468.66"/>
<polygon fill="#63b8ff" stroke="#63b8ff" points="690.01,-472.13 699.5,-467.41 689.14,-465.19 690.01,-472.13"/>
</a>
</g>
</g>
<!-- Node5 -->
<g id="Node000005" class="node">
<title>Node5</title>
<g id="a_Node000005"><a xlink:href="sensesp_8h.html" target="_top" xlink:title=" ">
<polygon fill="white" stroke="#666666" points="810.12,-141 749.12,-141 749.12,-121.75 810.12,-121.75 810.12,-141"/>
<text xml:space="preserve" text-anchor="middle" x="779.62" y="-127.5" font-family="Helvetica,sans-Serif" font-size="10.00">sensesp.h</text>
</a>
</g>
</g>
<!-- Node4&#45;&gt;Node5 -->
<g id="edge4_Node000004_Node000005" class="edge">
<title>Node4&#45;&gt;Node5</title>
<g id="a_edge4_Node000004_Node000005"><a xlink:title=" ">
<path fill="none" stroke="#63b8ff" d="M113.11,-182.43C239.44,-172.95 611.73,-144.98 737.53,-135.54"/>
<polygon fill="#63b8ff" stroke="#63b8ff" points="737.7,-139.03 747.41,-134.79 737.18,-132.05 737.7,-139.03"/>
</a>
</g>
</g>
<!-- Node8 -->
<g id="Node000008" class="node">
<title>Node8</title>
<g id="a_Node000008"><a xlink:title=" ">
<polygon fill="#e0e0e0" stroke="#999999" points="261.24,-19.25 203.99,-19.25 203.99,0 261.24,0 261.24,-19.25"/>
<text xml:space="preserve" text-anchor="middle" x="232.62" y="-5.75" font-family="Helvetica,sans-Serif" font-size="10.00">Arduino.h</text>
</a>
</g>
</g>
<!-- Node4&#45;&gt;Node8 -->
<g id="edge11_Node000004_Node000008" class="edge">
<title>Node4&#45;&gt;Node8</title>
<g id="a_edge11_Node000004_Node000008"><a xlink:title=" ">
<path fill="none" stroke="#63b8ff" d="M68.92,-176.75C65.07,-153.69 58.16,-91.14 88.62,-55.25 114.15,-25.17 159.53,-15.04 192.54,-11.8"/>
<polygon fill="#63b8ff" stroke="#63b8ff" points="192.45,-15.32 202.14,-11.04 191.9,-8.34 192.45,-15.32"/>
</a>
</g>
</g>
<!-- Node5&#45;&gt;Node2 -->
<g id="edge6_Node000005_Node000002" class="edge">
<title>Node5&#45;&gt;Node2</title>
<g id="a_edge6_Node000005_Node000002"><a xlink:title=" ">
<path fill="none" stroke="#63b8ff" d="M770.66,-121.43C761.91,-112.7 748.37,-99.19 737.58,-88.43"/>
<polygon fill="#63b8ff" stroke="#63b8ff" points="740.29,-86.18 730.74,-81.6 735.34,-91.14 740.29,-86.18"/>
</a>
</g>
</g>
<!-- Node5&#45;&gt;Node3 -->
<g id="edge5_Node000005_Node000003" class="edge">
<title>Node5&#45;&gt;Node3</title>
<g id="a_edge5_Node000005_Node000003"><a xlink:title=" ">
<path fill="none" stroke="#63b8ff" d="M810.59,-123.5C813.64,-122.88 816.68,-122.29 819.62,-121.75 923.97,-102.56 952.45,-110.53 1055.62,-85.75 1058.04,-85.17 1060.52,-84.51 1063.01,-83.81"/>
<polygon fill="#63b8ff" stroke="#63b8ff" points="1063.82,-87.22 1072.37,-80.95 1061.78,-80.53 1063.82,-87.22"/>
</a>
</g>
</g>
<!-- Node6 -->
<g id="Node000006" class="node">
<title>Node6</title>
<g id="a_Node000006"><a xlink:href="local__debug_8h.html" target="_top" xlink:title=" ">
<polygon fill="white" stroke="#666666" points="1046.24,-85.75 934.99,-85.75 934.99,-55.25 1046.24,-55.25 1046.24,-85.75"/>
<text xml:space="preserve" text-anchor="start" x="942.99" y="-72.25" font-family="Helvetica,sans-Serif" font-size="10.00">sensesp/system/local</text>
<text xml:space="preserve" text-anchor="middle" x="990.62" y="-61" font-family="Helvetica,sans-Serif" font-size="10.00">_debug.h</text>
</a>
</g>
</g>
<!-- Node5&#45;&gt;Node6 -->
<g id="edge7_Node000005_Node000006" class="edge">
<title>Node5&#45;&gt;Node6</title>
<g id="a_edge7_Node000005_Node000006"><a xlink:title=" ">
<path fill="none" stroke="#63b8ff" d="M810.3,-121.81C840.81,-113.3 888.51,-99.99 927.19,-89.2"/>
<polygon fill="#63b8ff" stroke="#63b8ff" points="927.69,-92.69 936.38,-86.63 925.81,-85.95 927.69,-92.69"/>
</a>
</g>
</g>
<!-- Node7 -->
<g id="Node000007" class="node">
<title>Node7</title>
<g id="a_Node000007"><a xlink:title=" ">
<polygon fill="#e0e0e0" stroke="#999999" points="990.62,-19.25 908.62,-19.25 908.62,0 990.62,0 990.62,-19.25"/>
<text xml:space="preserve" text-anchor="middle" x="949.62" y="-5.75" font-family="Helvetica,sans-Serif" font-size="10.00">esp32&#45;hal&#45;log.h</text>
</a>
</g>
</g>
<!-- Node6&#45;&gt;Node7 -->
<g id="edge8_Node000006_Node000007" class="edge">
<title>Node6&#45;&gt;Node7</title>
<g id="a_edge8_Node000006_Node000007"><a xlink:title=" ">
<path fill="none" stroke="#63b8ff" d="M980.48,-54.95C975.02,-47.1 968.23,-37.35 962.4,-28.99"/>
<polygon fill="#63b8ff" stroke="#63b8ff" points="965.39,-27.15 956.8,-20.94 959.65,-31.15 965.39,-27.15"/>
</a>
</g>
</g>
<!-- Node6&#45;&gt;Node8 -->
<g id="edge9_Node000006_Node000008" class="edge">
<title>Node6&#45;&gt;Node8</title>
<g id="a_edge9_Node000006_Node000008"><a xlink:title=" ">
<path fill="none" stroke="#63b8ff" d="M934.57,-57.39C929.86,-56.59 925.17,-55.86 920.62,-55.25 676.15,-22.59 379.49,-13.6 273.04,-11.33"/>
<polygon fill="#63b8ff" stroke="#63b8ff" points="273.18,-7.83 263.11,-11.13 273.04,-14.83 273.18,-7.83"/>
</a>
</g>
</g>
<!-- Node9 -->
<g id="Node000009" class="node">
<title>Node9</title>
<g id="a_Node000009"><a xlink:title=" ">
<polygon fill="#e0e0e0" stroke="#999999" points="1052.87,-19.25 1008.37,-19.25 1008.37,0 1052.87,0 1052.87,-19.25"/>
<text xml:space="preserve" text-anchor="middle" x="1030.62" y="-5.75" font-family="Helvetica,sans-Serif" font-size="10.00">Print.h</text>
</a>
</g>
</g>
<!-- Node6&#45;&gt;Node9 -->
<g id="edge10_Node000006_Node000009" class="edge">
<title>Node6&#45;&gt;Node9</title>
<g id="a_edge10_Node000006_Node000009"><a xlink:title=" ">
<path fill="none" stroke="#63b8ff" d="M1000.51,-54.95C1005.84,-47.1 1012.46,-37.35 1018.14,-28.99"/>
<polygon fill="#63b8ff" stroke="#63b8ff" points="1020.88,-31.19 1023.6,-20.95 1015.09,-27.26 1020.88,-31.19"/>
</a>
</g>
</g>
<!-- Node10&#45;&gt;Node2 -->
<g id="edge14_Node000010_Node000002" class="edge">
<title>Node10&#45;&gt;Node2</title>
<g id="a_edge14_Node000010_Node000002"><a xlink:title=" ">
<path fill="none" stroke="#63b8ff" d="M196.76,-292.42C142.96,-286.55 77.81,-271.4 102.62,-232.25 164.18,-135.1 226.27,-154.16 336.62,-121.75 460.41,-85.39 614.39,-75.31 683.73,-72.54"/>
<polygon fill="#63b8ff" stroke="#63b8ff" points="683.52,-76.05 693.38,-72.18 683.26,-69.05 683.52,-76.05"/>
</a>
</g>
</g>
<!-- Node10&#45;&gt;Node8 -->
<g id="edge17_Node000010_Node000008" class="edge">
<title>Node10&#45;&gt;Node8</title>
<g id="a_edge17_Node000010_Node000008"><a xlink:title=" ">
<path fill="none" stroke="#63b8ff" d="M257.8,-287.36C251.94,-258.63 233.58,-164.58 227.62,-85.75 226.2,-67.01 227.95,-45.63 229.76,-30.48"/>
<polygon fill="#63b8ff" stroke="#63b8ff" points="233.18,-31.29 231.03,-20.92 226.24,-30.37 233.18,-31.29"/>
</a>
</g>
</g>
<!-- Node11 -->
<g id="Node000011" class="node">
<title>Node11</title>
<g id="a_Node000011"><a xlink:title=" ">
<polygon fill="#e0e0e0" stroke="#999999" points="145.99,-251.5 111.24,-251.5 111.24,-232.25 145.99,-232.25 145.99,-251.5"/>
<text xml:space="preserve" text-anchor="middle" x="128.62" y="-238" font-family="Helvetica,sans-Serif" font-size="10.00">map</text>
</a>
</g>
</g>
<!-- Node10&#45;&gt;Node11 -->
<g id="edge13_Node000010_Node000011" class="edge">
<title>Node10&#45;&gt;Node11</title>
<g id="a_edge13_Node000010_Node000011"><a xlink:title=" ">
<path fill="none" stroke="#63b8ff" d="M237.4,-287.09C215.21,-278.08 181.05,-264.19 156.93,-254.38"/>
<polygon fill="#63b8ff" stroke="#63b8ff" points="158.3,-251.16 147.72,-250.64 155.67,-257.65 158.3,-251.16"/>
</a>
</g>
</g>
<!-- Node12 -->
<g id="Node000012" class="node">
<title>Node12</title>
<g id="a_Node000012"><a xlink:title=" ">
<polygon fill="#e0e0e0" stroke="#999999" points="494.12,-196.25 451.12,-196.25 451.12,-177 494.12,-177 494.12,-196.25"/>
<text xml:space="preserve" text-anchor="middle" x="472.62" y="-182.75" font-family="Helvetica,sans-Serif" font-size="10.00">vector</text>
</a>
</g>
</g>
<!-- Node10&#45;&gt;Node12 -->
<g id="edge15_Node000010_Node000012" class="edge">
<title>Node10&#45;&gt;Node12</title>
<g id="a_edge15_Node000010_Node000012"><a xlink:title=" ">
<path fill="none" stroke="#63b8ff" d="M322.14,-288.63C371.37,-281.51 434.72,-269.24 453.62,-251.5 465.62,-240.23 470.15,-221.75 471.81,-207.56"/>
<polygon fill="#63b8ff" stroke="#63b8ff" points="475.27,-208.23 472.52,-197.99 468.29,-207.7 475.27,-208.23"/>
</a>
</g>
</g>
<!-- Node13 -->
<g id="Node000013" class="node">
<title>Node13</title>
<g id="a_Node000013"><a xlink:title=" ">
<polygon fill="#e0e0e0" stroke="#999999" points="212.74,-251.5 164.49,-251.5 164.49,-232.25 212.74,-232.25 212.74,-251.5"/>
<text xml:space="preserve" text-anchor="middle" x="188.62" y="-238" font-family="Helvetica,sans-Serif" font-size="10.00">cstddef</text>
</a>
</g>
</g>
<!-- Node10&#45;&gt;Node13 -->
<g id="edge16_Node000010_Node000013" class="edge">
<title>Node10&#45;&gt;Node13</title>
<g id="a_edge16_Node000010_Node000013"><a xlink:title=" ">
<path fill="none" stroke="#63b8ff" d="M247.57,-287.09C237.21,-279.32 222.02,-267.92 209.65,-258.65"/>
<polygon fill="#63b8ff" stroke="#63b8ff" points="211.8,-255.88 201.7,-252.68 207.6,-261.48 211.8,-255.88"/>
</a>
</g>
</g>
<!-- Node14 -->
<g id="Node000014" class="node">
<title>Node14</title>
<g id="a_Node000014"><a xlink:title=" ">
<polygon fill="#e0e0e0" stroke="#999999" points="423.74,-141 345.49,-141 345.49,-121.75 423.74,-121.75 423.74,-141"/>
<text xml:space="preserve" text-anchor="middle" x="384.62" y="-127.5" font-family="Helvetica,sans-Serif" font-size="10.00">ArduinoJson.h</text>
</a>
</g>
</g>
<!-- Node10&#45;&gt;Node14 -->
<g id="edge18_Node000010_Node000014" class="edge">
<title>Node10&#45;&gt;Node14</title>
<g id="a_edge18_Node000010_Node000014"><a xlink:title=" ">
<path fill="none" stroke="#63b8ff" d="M257.97,-287.24C254.51,-265.8 248.83,-210.55 274.62,-177 289,-158.29 312.54,-147.38 334.15,-141.05"/>
<polygon fill="#63b8ff" stroke="#63b8ff" points="334.98,-144.45 343.76,-138.52 333.19,-137.68 334.98,-144.45"/>
</a>
</g>
</g>
<!-- Node15 -->
<g id="Node000015" class="node">
<title>Node15</title>
<g id="a_Node000015"><a xlink:href="saveable_8h.html" target="_top" xlink:title=" ">
<polygon fill="white" stroke="#666666" points="444.74,-251.5 306.49,-251.5 306.49,-232.25 444.74,-232.25 444.74,-251.5"/>
<text xml:space="preserve" text-anchor="middle" x="375.62" y="-238" font-family="Helvetica,sans-Serif" font-size="10.00">sensesp/system/saveable.h</text>
</a>
</g>
</g>
<!-- Node10&#45;&gt;Node15 -->
<g id="edge19_Node000010_Node000015" class="edge">
<title>Node10&#45;&gt;Node15</title>
<g id="a_edge19_Node000010_Node000015"><a xlink:title=" ">
<path fill="none" stroke="#63b8ff" d="M279.3,-287.09C297.46,-278.75 324.7,-266.25 345.59,-256.66"/>
<polygon fill="#63b8ff" stroke="#63b8ff" points="346.84,-259.94 354.47,-252.58 343.92,-253.58 346.84,-259.94"/>
</a>
</g>
</g>
<!-- Node15&#45;&gt;Node5 -->
<g id="edge20_Node000015_Node000005" class="edge">
<title>Node15&#45;&gt;Node5</title>
<g id="a_edge20_Node000015_Node000005"><a xlink:title=" ">
<path fill="none" stroke="#63b8ff" d="M381.86,-232.06C392.51,-217.78 415.66,-189.91 442.62,-177 493.88,-152.45 658.78,-139.58 737.3,-134.71"/>
<polygon fill="#63b8ff" stroke="#63b8ff" points="737.4,-138.21 747.17,-134.12 736.97,-131.23 737.4,-138.21"/>
</a>
</g>
</g>
<!-- Node15&#45;&gt;Node8 -->
<g id="edge22_Node000015_Node000008" class="edge">
<title>Node15&#45;&gt;Node8</title>
<g id="a_edge22_Node000015_Node000008"><a xlink:title=" ">
<path fill="none" stroke="#63b8ff" d="M333.53,-231.76C312.92,-225.2 289.42,-214.23 274.62,-196.25 234.42,-147.41 230.86,-67.82 231.62,-30.77"/>
<polygon fill="#63b8ff" stroke="#63b8ff" points="235.1,-31.2 231.96,-21.08 228.11,-30.95 235.1,-31.2"/>
</a>
</g>
</g>
<!-- Node15&#45;&gt;Node14 -->
<g id="edge21_Node000015_Node000014" class="edge">
<title>Node15&#45;&gt;Node14</title>
<g id="a_edge21_Node000015_Node000014"><a xlink:title=" ">
<path fill="none" stroke="#63b8ff" d="M376.36,-232C377.79,-214.75 380.97,-176.33 382.94,-152.56"/>
<polygon fill="#63b8ff" stroke="#63b8ff" points="386.41,-153.14 383.75,-142.89 379.43,-152.56 386.41,-153.14"/>
</a>
</g>
</g>
<!-- Node16 -->
<g id="Node000016" class="node">
<title>Node16</title>
<g id="a_Node000016"><a xlink:href="serializable_8h.html" target="_top" xlink:title=" ">
<polygon fill="white" stroke="#666666" points="356.12,-196.25 283.12,-196.25 283.12,-177 356.12,-177 356.12,-196.25"/>
<text xml:space="preserve" text-anchor="middle" x="319.62" y="-182.75" font-family="Helvetica,sans-Serif" font-size="10.00">serializable.h</text>
</a>
</g>
</g>
<!-- Node15&#45;&gt;Node16 -->
<g id="edge23_Node000015_Node000016" class="edge">
<title>Node15&#45;&gt;Node16</title>
<g id="a_edge23_Node000015_Node000016"><a xlink:title=" ">
<path fill="none" stroke="#63b8ff" d="M366.12,-231.84C358.19,-224.3 346.67,-213.35 337.08,-204.23"/>
<polygon fill="#63b8ff" stroke="#63b8ff" points="339.73,-201.92 330.07,-197.57 334.91,-206.99 339.73,-201.92"/>
</a>
</g>
</g>
<!-- Node16&#45;&gt;Node5 -->
<g id="edge24_Node000016_Node000005" class="edge">
<title>Node16&#45;&gt;Node5</title>
<g id="a_edge24_Node000016_Node000005"><a xlink:title=" ">
<path fill="none" stroke="#63b8ff" d="M356.48,-181.36C440.96,-171.58 648.08,-147.6 737.44,-137.26"/>
<polygon fill="#63b8ff" stroke="#63b8ff" points="737.71,-140.75 747.24,-136.12 736.91,-133.8 737.71,-140.75"/>
</a>
</g>
</g>
<!-- Node16&#45;&gt;Node8 -->
<g id="edge26_Node000016_Node000008" class="edge">
<title>Node16&#45;&gt;Node8</title>
<g id="a_edge26_Node000016_Node000008"><a xlink:title=" ">
<path fill="none" stroke="#63b8ff" d="M315.18,-176.71C301.69,-149.56 260.91,-67.53 242.19,-29.88"/>
<polygon fill="#63b8ff" stroke="#63b8ff" points="245.41,-28.49 237.82,-21.09 239.14,-31.6 245.41,-28.49"/>
</a>
</g>
</g>
<!-- Node16&#45;&gt;Node14 -->
<g id="edge25_Node000016_Node000014" class="edge">
<title>Node16&#45;&gt;Node14</title>
<g id="a_edge25_Node000016_Node000014"><a xlink:title=" ">
<path fill="none" stroke="#63b8ff" d="M330.64,-176.59C340.04,-168.9 353.77,-157.65 365.03,-148.43"/>
<polygon fill="#63b8ff" stroke="#63b8ff" points="367.07,-151.28 372.58,-142.23 362.63,-145.86 367.07,-151.28"/>
</a>
</g>
</g>
<!-- Node17&#45;&gt;Node3 -->
<g id="edge30_Node000017_Node000003" class="edge">
<title>Node17&#45;&gt;Node3</title>
<g id="a_edge30_Node000017_Node000003"><a xlink:title=" ">
<path fill="none" stroke="#63b8ff" d="M754.25,-461.91C824.87,-461.46 1014.68,-456.53 1060.62,-417.25 1083.13,-398 1079.62,-382.99 1079.62,-353.38 1079.62,-353.38 1079.62,-353.38 1079.62,-185.62 1079.62,-152.24 1087.63,-114.09 1093.25,-91.45"/>
<polygon fill="#63b8ff" stroke="#63b8ff" points="1096.56,-92.61 1095.68,-82.05 1089.78,-90.86 1096.56,-92.61"/>
</a>
</g>
</g>
<!-- Node17&#45;&gt;Node8 -->
<g id="edge28_Node000017_Node000008" class="edge">
<title>Node17&#45;&gt;Node8</title>
<g id="a_edge28_Node000017_Node000008"><a xlink:title=" ">
<path fill="none" stroke="#63b8ff" d="M754.29,-462.25C814.27,-461.46 959.44,-450.1 1022.62,-362 1091.84,-265.49 994.53,-200.49 905.62,-121.75 851.03,-73.4 826.25,-73.38 755.62,-55.25 664.36,-31.83 379.3,-17.13 273.06,-12.34"/>
<polygon fill="#63b8ff" stroke="#63b8ff" points="273.25,-8.85 263.11,-11.9 272.94,-15.84 273.25,-8.85"/>
</a>
</g>
</g>
<!-- Node17&#45;&gt;Node15 -->
<g id="edge35_Node000017_Node000015" class="edge">
<title>Node17&#45;&gt;Node15</title>
<g id="a_edge35_Node000017_Node000015"><a xlink:title=" ">
<path fill="none" stroke="#63b8ff" d="M701.09,-462.17C657.9,-461.47 571.17,-454.99 510.62,-417.25 447.88,-378.14 402.98,-298.82 384.7,-262.2"/>
<polygon fill="#63b8ff" stroke="#63b8ff" points="387.89,-260.75 380.37,-253.28 381.59,-263.8 387.89,-260.75"/>
</a>
</g>
</g>
<!-- Node18 -->
<g id="Node000018" class="node">
<title>Node18</title>
<g id="a_Node000018"><a xlink:title=" ">
<polygon fill="#e0e0e0" stroke="#999999" points="1051.37,-417.25 1021.87,-417.25 1021.87,-398 1051.37,-398 1051.37,-417.25"/>
<text xml:space="preserve" text-anchor="middle" x="1036.62" y="-403.75" font-family="Helvetica,sans-Serif" font-size="10.00">set</text>
</a>
</g>
</g>
<!-- Node17&#45;&gt;Node18 -->
<g id="edge29_Node000017_Node000018" class="edge">
<title>Node17&#45;&gt;Node18</title>
<g id="a_edge29_Node000017_Node000018"><a xlink:title=" ">
<path fill="none" stroke="#63b8ff" d="M754.48,-458.78C804.62,-452.75 915.7,-438.15 1007.62,-417.25 1008.63,-417.02 1009.65,-416.78 1010.68,-416.52"/>
<polygon fill="#63b8ff" stroke="#63b8ff" points="1011.5,-419.92 1020.21,-413.88 1009.64,-413.18 1011.5,-419.92"/>
</a>
</g>
</g>
<!-- Node19 -->
<g id="Node000019" class="node">
<title>Node19</title>
<g id="a_Node000019"><a xlink:href="observable_8h.html" target="_top" xlink:title=" ">
<polygon fill="white" stroke="#666666" points="646.87,-251.5 500.37,-251.5 500.37,-232.25 646.87,-232.25 646.87,-251.5"/>
<text xml:space="preserve" text-anchor="middle" x="573.62" y="-238" font-family="Helvetica,sans-Serif" font-size="10.00">sensesp/system/observable.h</text>
</a>
</g>
</g>
<!-- Node17&#45;&gt;Node19 -->
<g id="edge31_Node000017_Node000019" class="edge">
<title>Node17&#45;&gt;Node19</title>
<g id="a_edge31_Node000017_Node000019"><a xlink:title=" ">
<path fill="none" stroke="#63b8ff" d="M701.12,-460.38C648.25,-455.79 530.4,-437.2 479.62,-362 453,-322.59 510.67,-279.52 546.99,-257.55"/>
<polygon fill="#63b8ff" stroke="#63b8ff" points="548.41,-260.78 555.27,-252.7 544.87,-254.74 548.41,-260.78"/>
</a>
</g>
</g>
<!-- Node22 -->
<g id="Node000022" class="node">
<title>Node22</title>
<g id="a_Node000022"><a xlink:href="valueproducer_8h.html" target="_top" xlink:title=" ">
<polygon fill="white" stroke="#666666" points="764.24,-306.75 604.99,-306.75 604.99,-287.5 764.24,-287.5 764.24,-306.75"/>
<text xml:space="preserve" text-anchor="middle" x="684.62" y="-293.25" font-family="Helvetica,sans-Serif" font-size="10.00">sensesp/system/valueproducer.h</text>
</a>
</g>
</g>
<!-- Node17&#45;&gt;Node22 -->
<g id="edge36_Node000017_Node000022" class="edge">
<title>Node17&#45;&gt;Node22</title>
<g id="a_edge36_Node000017_Node000022"><a xlink:title=" ">
<path fill="none" stroke="#63b8ff" d="M722.28,-452.97C717.25,-444.18 709.86,-430.22 705.62,-417.25 694.55,-383.41 688.93,-342.15 686.4,-318.14"/>
<polygon fill="#63b8ff" stroke="#63b8ff" points="689.91,-318.12 685.46,-308.51 682.95,-318.8 689.91,-318.12"/>
</a>
</g>
</g>
<!-- Node25 -->
<g id="Node000025" class="node">
<title>Node25</title>
<g id="a_Node000025"><a xlink:href="sensesp__base__app_8h.html" target="_top" xlink:title=" ">
<polygon fill="white" stroke="#666666" points="822.74,-417.25 714.49,-417.25 714.49,-398 822.74,-398 822.74,-417.25"/>
<text xml:space="preserve" text-anchor="middle" x="768.62" y="-403.75" font-family="Helvetica,sans-Serif" font-size="10.00">sensesp_base_app.h</text>
</a>
</g>
</g>
<!-- Node17&#45;&gt;Node25 -->
<g id="edge44_Node000017_Node000025" class="edge">
<title>Node17&#45;&gt;Node25</title>
<g id="a_edge44_Node000017_Node000025"><a xlink:title=" ">
<path fill="none" stroke="#63b8ff" d="M734.39,-453.08C739.93,-445.88 747.96,-435.46 754.85,-426.51"/>
<polygon fill="#63b8ff" stroke="#63b8ff" points="757.45,-428.87 760.78,-418.81 751.9,-424.6 757.45,-428.87"/>
</a>
</g>
</g>
<!-- Node19&#45;&gt;Node12 -->
<g id="edge34_Node000019_Node000012" class="edge">
<title>Node19&#45;&gt;Node12</title>
<g id="a_edge34_Node000019_Node000012"><a xlink:title=" ">
<path fill="none" stroke="#63b8ff" d="M556.49,-231.84C540.96,-223.66 517.82,-211.46 499.77,-201.94"/>
<polygon fill="#63b8ff" stroke="#63b8ff" points="501.65,-198.98 491.17,-197.41 498.39,-205.17 501.65,-198.98"/>
</a>
</g>
</g>
<!-- Node20 -->
<g id="Node000020" class="node">
<title>Node20</title>
<g id="a_Node000020"><a xlink:title=" ">
<polygon fill="#e0e0e0" stroke="#999999" points="578.74,-196.25 512.49,-196.25 512.49,-177 578.74,-177 578.74,-196.25"/>
<text xml:space="preserve" text-anchor="middle" x="545.62" y="-182.75" font-family="Helvetica,sans-Serif" font-size="10.00">forward_list</text>
</a>
</g>
</g>
<!-- Node19&#45;&gt;Node20 -->
<g id="edge32_Node000019_Node000020" class="edge">
<title>Node19&#45;&gt;Node20</title>
<g id="a_edge32_Node000019_Node000020"><a xlink:title=" ">
<path fill="none" stroke="#63b8ff" d="M568.99,-232.08C565.37,-225.19 560.19,-215.34 555.63,-206.66"/>
<polygon fill="#63b8ff" stroke="#63b8ff" points="558.8,-205.17 551.05,-197.95 552.6,-208.43 558.8,-205.17"/>
</a>
</g>
</g>
<!-- Node21 -->
<g id="Node000021" class="node">
<title>Node21</title>
<g id="a_Node000021"><a xlink:title=" ">
<polygon fill="#e0e0e0" stroke="#999999" points="654.62,-196.25 596.62,-196.25 596.62,-177 654.62,-177 654.62,-196.25"/>
<text xml:space="preserve" text-anchor="middle" x="625.62" y="-182.75" font-family="Helvetica,sans-Serif" font-size="10.00">functional</text>
</a>
</g>
</g>
<!-- Node19&#45;&gt;Node21 -->
<g id="edge33_Node000019_Node000021" class="edge">
<title>Node19&#45;&gt;Node21</title>
<g id="a_edge33_Node000019_Node000021"><a xlink:title=" ">
<path fill="none" stroke="#63b8ff" d="M582.21,-232.08C589.46,-224.65 600.07,-213.79 608.98,-204.66"/>
<polygon fill="#63b8ff" stroke="#63b8ff" points="611.31,-207.29 615.79,-197.69 606.3,-202.4 611.31,-207.29"/>
</a>
</g>
</g>
<!-- Node22&#45;&gt;Node2 -->
<g id="edge38_Node000022_Node000002" class="edge">
<title>Node22&#45;&gt;Node2</title>
<g id="a_edge38_Node000022_Node000002"><a xlink:title=" ">
<path fill="none" stroke="#63b8ff" d="M688.85,-287.11C692.81,-278.25 698.57,-264.24 701.62,-251.5 715.22,-194.57 719.09,-125.19 720.19,-91.62"/>
<polygon fill="#63b8ff" stroke="#63b8ff" points="723.68,-91.86 720.45,-81.77 716.68,-91.67 723.68,-91.86"/>
</a>
</g>
</g>
<!-- Node22&#45;&gt;Node14 -->
<g id="edge37_Node000022_Node000014" class="edge">
<title>Node22&#45;&gt;Node14</title>
<g id="a_edge37_Node000022_Node000014"><a xlink:title=" ">
<path fill="none" stroke="#63b8ff" d="M686.15,-287.1C689.36,-264.85 694.15,-207.05 663.62,-177 632.16,-146.04 507.03,-136.55 435.49,-133.65"/>
<polygon fill="#63b8ff" stroke="#63b8ff" points="435.7,-130.16 425.58,-133.28 435.44,-137.15 435.7,-130.16"/>
</a>
</g>
</g>
<!-- Node22&#45;&gt;Node19 -->
<g id="edge39_Node000022_Node000019" class="edge">
<title>Node22&#45;&gt;Node19</title>
<g id="a_edge39_Node000022_Node000019"><a xlink:title=" ">
<path fill="none" stroke="#63b8ff" d="M665.79,-287.09C648.57,-278.83 622.82,-266.48 602.91,-256.93"/>
<polygon fill="#63b8ff" stroke="#63b8ff" points="604.44,-253.78 593.91,-252.61 601.41,-260.09 604.44,-253.78"/>
</a>
</g>
</g>
<!-- Node23 -->
<g id="Node000023" class="node">
<title>Node23</title>
<g id="a_Node000023"><a xlink:href="valueconsumer_8h.html" target="_top" xlink:title=" ">
<polygon fill="white" stroke="#666666" points="838.37,-196.25 748.87,-196.25 748.87,-177 838.37,-177 838.37,-196.25"/>
<text xml:space="preserve" text-anchor="middle" x="793.62" y="-182.75" font-family="Helvetica,sans-Serif" font-size="10.00">valueconsumer.h</text>
</a>
</g>
</g>
<!-- Node22&#45;&gt;Node23 -->
<g id="edge40_Node000022_Node000023" class="edge">
<title>Node22&#45;&gt;Node23</title>
<g id="a_edge40_Node000022_Node000023"><a xlink:title=" ">
<path fill="none" stroke="#63b8ff" d="M695.23,-287.18C705.54,-278.37 721.51,-264.39 734.62,-251.5 750.04,-236.34 766.67,-218.15 778.34,-205.06"/>
<polygon fill="#63b8ff" stroke="#63b8ff" points="780.86,-207.5 784.86,-197.69 775.61,-202.86 780.86,-207.5"/>
</a>
</g>
</g>
<!-- Node23&#45;&gt;Node5 -->
<g id="edge41_Node000023_Node000005" class="edge">
<title>Node23&#45;&gt;Node5</title>
<g id="a_edge41_Node000023_Node000005"><a xlink:title=" ">
<path fill="none" stroke="#63b8ff" d="M791.31,-176.83C789.55,-170.17 787.08,-160.74 784.85,-152.28"/>
<polygon fill="#63b8ff" stroke="#63b8ff" points="788.29,-151.6 782.37,-142.82 781.52,-153.38 788.29,-151.6"/>
</a>
</g>
</g>
<!-- Node23&#45;&gt;Node14 -->
<g id="edge42_Node000023_Node000014" class="edge">
<title>Node23&#45;&gt;Node14</title>
<g id="a_edge42_Node000023_Node000014"><a xlink:title=" ">
<path fill="none" stroke="#63b8ff" d="M748.68,-179.77C671.94,-169.78 516.12,-149.5 435.5,-139"/>
<polygon fill="#63b8ff" stroke="#63b8ff" points="436.04,-135.54 425.67,-137.72 435.13,-142.48 436.04,-135.54"/>
</a>
</g>
</g>
<!-- Node24 -->
<g id="Node000024" class="node">
<title>Node24</title>
<g id="a_Node000024"><a xlink:title=" ">
<polygon fill="#e0e0e0" stroke="#999999" points="876.74,-141 828.49,-141 828.49,-121.75 876.74,-121.75 876.74,-141"/>
<text xml:space="preserve" text-anchor="middle" x="852.62" y="-127.5" font-family="Helvetica,sans-Serif" font-size="10.00">stdint.h</text>
</a>
</g>
</g>
<!-- Node23&#45;&gt;Node24 -->
<g id="edge43_Node000023_Node000024" class="edge">
<title>Node23&#45;&gt;Node24</title>
<g id="a_edge43_Node000023_Node000024"><a xlink:title=" ">
<path fill="none" stroke="#63b8ff" d="M803.63,-176.59C811.98,-169.05 824.12,-158.1 834.22,-148.98"/>
<polygon fill="#63b8ff" stroke="#63b8ff" points="836.56,-151.59 841.63,-142.29 831.87,-146.39 836.56,-151.59"/>
</a>
</g>
</g>
<!-- Node25&#45;&gt;Node2 -->
<g id="edge46_Node000025_Node000002" class="edge">
<title>Node25&#45;&gt;Node2</title>
<g id="a_edge46_Node000025_Node000002"><a xlink:title=" ">
<path fill="none" stroke="#63b8ff" d="M770.13,-397.74C772.43,-385.2 777.31,-361.74 784.62,-342.75 823.4,-241.96 949.9,-208.53 885.62,-121.75 856.38,-82.28 796.87,-72.76 757.88,-71.01"/>
<polygon fill="#63b8ff" stroke="#63b8ff" points="758.11,-67.52 748.01,-70.74 757.91,-74.52 758.11,-67.52"/>
</a>
</g>
</g>
<!-- Node25&#45;&gt;Node5 -->
<g id="edge45_Node000025_Node000005" class="edge">
<title>Node25&#45;&gt;Node5</title>
<g id="a_edge45_Node000025_Node000005"><a xlink:title=" ">
<path fill="none" stroke="#63b8ff" d="M763.22,-397.9C756.28,-385.56 745.78,-362.32 751.62,-342.75 754.4,-333.43 844.84,-205.57 847.62,-196.25 850.07,-188.05 851.68,-184.53 847.62,-177 840.42,-163.67 827.31,-153.67 814.5,-146.56"/>
<polygon fill="#63b8ff" stroke="#63b8ff" points="816.28,-143.53 805.77,-142.14 813.12,-149.78 816.28,-143.53"/>
</a>
</g>
</g>
<!-- Node26 -->
<g id="Node000026" class="node">
<title>Node26</title>
<g id="a_Node000026"><a xlink:title=" ">
<polygon fill="#e0e0e0" stroke="#999999" points="851.62,-362 793.62,-362 793.62,-342.75 851.62,-342.75 851.62,-362"/>
<text xml:space="preserve" text-anchor="middle" x="822.62" y="-348.5" font-family="Helvetica,sans-Serif" font-size="10.00">esp_log.h</text>
</a>
</g>
</g>
<!-- Node25&#45;&gt;Node26 -->
<g id="edge47_Node000025_Node000026" class="edge">
<title>Node25&#45;&gt;Node26</title>
<g id="a_edge47_Node000025_Node000026"><a xlink:title=" ">
<path fill="none" stroke="#63b8ff" d="M777.54,-397.83C785.07,-390.4 796.09,-379.54 805.34,-370.41"/>
<polygon fill="#63b8ff" stroke="#63b8ff" points="807.77,-372.94 812.43,-363.42 802.85,-367.95 807.77,-372.94"/>
</a>
</g>
</g>
<!-- Node27 -->
<g id="Node000027" class="node">
<title>Node27</title>
<g id="a_Node000027"><a xlink:href="filesystem_8h.html" target="_top" xlink:title=" ">
<polygon fill="white" stroke="#666666" points="1013.74,-362 869.49,-362 869.49,-342.75 1013.74,-342.75 1013.74,-362"/>
<text xml:space="preserve" text-anchor="middle" x="941.62" y="-348.5" font-family="Helvetica,sans-Serif" font-size="10.00">sensesp/system/filesystem.h</text>
</a>
</g>
</g>
<!-- Node25&#45;&gt;Node27 -->
<g id="edge48_Node000025_Node000027" class="edge">
<title>Node25&#45;&gt;Node27</title>
<g id="a_edge48_Node000025_Node000027"><a xlink:title=" ">
<path fill="none" stroke="#63b8ff" d="M797.97,-397.59C826.42,-388.83 869.82,-375.48 901.47,-365.73"/>
<polygon fill="#63b8ff" stroke="#63b8ff" points="902.15,-369.18 910.68,-362.9 900.09,-362.49 902.15,-369.18"/>
</a>
</g>
</g>
<!-- Node30 -->
<g id="Node000030" class="node">
<title>Node30</title>
<g id="a_Node000030"><a xlink:href="observablevalue_8h.html" target="_top" xlink:title=" ">
<polygon fill="white" stroke="#666666" points="658.49,-362 488.74,-362 488.74,-342.75 658.49,-342.75 658.49,-362"/>
<text xml:space="preserve" text-anchor="middle" x="573.62" y="-348.5" font-family="Helvetica,sans-Serif" font-size="10.00">sensesp/system/observablevalue.h</text>
</a>
</g>
</g>
<!-- Node25&#45;&gt;Node30 -->
<g id="edge51_Node000025_Node000030" class="edge">
<title>Node25&#45;&gt;Node30</title>
<g id="a_edge51_Node000025_Node000030"><a xlink:title=" ">
<path fill="none" stroke="#63b8ff" d="M735.54,-397.59C703.18,-388.76 653.69,-375.24 617.94,-365.48"/>
<polygon fill="#63b8ff" stroke="#63b8ff" points="618.89,-362.11 608.32,-362.85 617.04,-368.86 618.89,-362.11"/>
</a>
</g>
</g>
<!-- Node28 -->
<g id="Node000028" class="node">
<title>Node28</title>
<g id="a_Node000028"><a xlink:href="resettable_8h.html" target="_top" xlink:title=" ">
<polygon fill="white" stroke="#666666" points="975.12,-306.75 908.12,-306.75 908.12,-287.5 975.12,-287.5 975.12,-306.75"/>
<text xml:space="preserve" text-anchor="middle" x="941.62" y="-293.25" font-family="Helvetica,sans-Serif" font-size="10.00">resettable.h</text>
</a>
</g>
</g>
<!-- Node27&#45;&gt;Node28 -->
<g id="edge49_Node000027_Node000028" class="edge">
<title>Node27&#45;&gt;Node28</title>
<g id="a_edge49_Node000027_Node000028"><a xlink:title=" ">
<path fill="none" stroke="#63b8ff" d="M941.62,-342.58C941.62,-336.07 941.62,-326.92 941.62,-318.62"/>
<polygon fill="#63b8ff" stroke="#63b8ff" points="945.12,-318.62 941.62,-308.62 938.12,-318.62 945.12,-318.62"/>
</a>
</g>
</g>
<!-- Node29 -->
<g id="Node000029" class="node">
<title>Node29</title>
<g id="a_Node000029"><a xlink:title=" ">
<polygon fill="#e0e0e0" stroke="#999999" points="962.74,-251.5 920.49,-251.5 920.49,-232.25 962.74,-232.25 962.74,-251.5"/>
<text xml:space="preserve" text-anchor="middle" x="941.62" y="-238" font-family="Helvetica,sans-Serif" font-size="10.00">queue</text>
</a>
</g>
</g>
<!-- Node28&#45;&gt;Node29 -->
<g id="edge50_Node000028_Node000029" class="edge">
<title>Node28&#45;&gt;Node29</title>
<g id="a_edge50_Node000028_Node000029"><a xlink:title=" ">
<path fill="none" stroke="#63b8ff" d="M941.62,-287.33C941.62,-280.82 941.62,-271.67 941.62,-263.37"/>
<polygon fill="#63b8ff" stroke="#63b8ff" points="945.12,-263.37 941.62,-253.37 938.12,-263.37 945.12,-263.37"/>
</a>
</g>
</g>
<!-- Node30&#45;&gt;Node10 -->
<g id="edge54_Node000030_Node000010" class="edge">
<title>Node30&#45;&gt;Node10</title>
<g id="a_edge54_Node000030_Node000010"><a xlink:title=" ">
<path fill="none" stroke="#63b8ff" d="M520,-342.28C465.89,-333.11 382.29,-318.93 324.48,-309.13"/>
<polygon fill="#63b8ff" stroke="#63b8ff" points="325.22,-305.7 314.77,-307.48 324.05,-312.6 325.22,-305.7"/>
</a>
</g>
</g>
<!-- Node30&#45;&gt;Node15 -->
<g id="edge52_Node000030_Node000015" class="edge">
<title>Node30&#45;&gt;Node15</title>
<g id="a_edge52_Node000030_Node000015"><a xlink:title=" ">
<path fill="none" stroke="#63b8ff" d="M557.08,-342.31C522.79,-323.52 443.72,-280.19 402.19,-257.43"/>
<polygon fill="#63b8ff" stroke="#63b8ff" points="404.03,-254.45 393.58,-252.72 400.67,-260.59 404.03,-254.45"/>
</a>
</g>
</g>
<!-- Node30&#45;&gt;Node19 -->
<g id="edge53_Node000030_Node000019" class="edge">
<title>Node30&#45;&gt;Node19</title>
<g id="a_edge53_Node000030_Node000019"><a xlink:title=" ">
<path fill="none" stroke="#63b8ff" d="M573.62,-342.5C573.62,-325.25 573.62,-286.83 573.62,-263.06"/>
<polygon fill="#63b8ff" stroke="#63b8ff" points="577.12,-263.39 573.62,-253.39 570.12,-263.39 577.12,-263.39"/>
</a>
</g>
</g>
<!-- Node30&#45;&gt;Node22 -->
<g id="edge55_Node000030_Node000022" class="edge">
<title>Node30&#45;&gt;Node22</title>
<g id="a_edge55_Node000030_Node000022"><a xlink:title=" ">
<path fill="none" stroke="#63b8ff" d="M592.45,-342.34C609.67,-334.08 635.42,-321.73 655.33,-312.18"/>
<polygon fill="#63b8ff" stroke="#63b8ff" points="656.83,-315.34 664.33,-307.86 653.8,-309.03 656.83,-315.34"/>
</a>
</g>
</g>
</g>
</svg>
