<?xml version="1.0" encoding="UTF-8" standalone="no"?>
<!DOCTYPE svg PUBLIC "-//W3C//DTD SVG 1.1//EN"
 "http://www.w3.org/Graphics/SVG/1.1/DTD/svg11.dtd">
<!-- Generated by graphviz version 12.2.1 (20241206.2353)
 -->
<!-- Title: src/sensesp/sensors/analog_reader.h Pages: 1 -->
<svg width="328pt" height="216pt"
 viewBox="0.00 0.00 328.25 215.50" xmlns="http://www.w3.org/2000/svg" xmlns:xlink="http://www.w3.org/1999/xlink">
<g id="graph0" class="graph" transform="scale(1 1) rotate(0) translate(4 211.5)">
<title>src/sensesp/sensors/analog_reader.h</title>
<!-- Node1 -->
<g id="Node000001" class="node">
<title>Node1</title>
<g id="a_Node000001"><a xlink:title=" ">
<polygon fill="#999999" stroke="#666666" points="258,-207.5 151.25,-207.5 151.25,-177 258,-177 258,-207.5"/>
<text text-anchor="start" x="159.25" y="-194" font-family="Helvetica,sans-Serif" font-size="10.00">src/sensesp/sensors</text>
<text text-anchor="middle" x="204.62" y="-182.75" font-family="Helvetica,sans-Serif" font-size="10.00">/analog_reader.h</text>
</a>
</g>
</g>
<!-- Node2 -->
<g id="Node000002" class="node">
<title>Node2</title>
<g id="a_Node000002"><a xlink:href="sensesp_8h.html" target="_top" xlink:title=" ">
<polygon fill="white" stroke="#666666" points="193.12,-141 132.12,-141 132.12,-121.75 193.12,-121.75 193.12,-141"/>
<text text-anchor="middle" x="162.62" y="-127.5" font-family="Helvetica,sans-Serif" font-size="10.00">sensesp.h</text>
</a>
</g>
</g>
<!-- Node1&#45;&gt;Node2 -->
<g id="edge1_Node000001_Node000002" class="edge">
<title>Node1&#45;&gt;Node2</title>
<g id="a_edge1_Node000001_Node000002"><a xlink:title=" ">
<path fill="none" stroke="#63b8ff" d="M194.24,-176.7C188.65,-168.85 181.69,-159.1 175.72,-150.74"/>
<polygon fill="#63b8ff" stroke="#63b8ff" points="178.64,-148.79 169.98,-142.68 172.94,-152.86 178.64,-148.79"/>
</a>
</g>
</g>
<!-- Node7 -->
<g id="Node000007" class="node">
<title>Node7</title>
<g id="a_Node000007"><a xlink:title=" ">
<polygon fill="#e0e0e0" stroke="#999999" points="320.25,-19.25 263,-19.25 263,0 320.25,0 320.25,-19.25"/>
<text text-anchor="middle" x="291.62" y="-5.75" font-family="Helvetica,sans-Serif" font-size="10.00">Arduino.h</text>
</a>
</g>
</g>
<!-- Node1&#45;&gt;Node7 -->
<g id="edge8_Node000001_Node000007" class="edge">
<title>Node1&#45;&gt;Node7</title>
<g id="a_edge8_Node000001_Node000007"><a xlink:title=" ">
<path fill="none" stroke="#63b8ff" d="M217.45,-176.66C233.78,-157.27 261.67,-121.32 276.62,-85.75 284.11,-67.93 287.93,-46.14 289.84,-30.62"/>
<polygon fill="#63b8ff" stroke="#63b8ff" points="293.31,-31.1 290.87,-20.79 286.34,-30.38 293.31,-31.1"/>
</a>
</g>
</g>
<!-- Node3 -->
<g id="Node000003" class="node">
<title>Node3</title>
<g id="a_Node000003"><a xlink:title=" ">
<polygon fill="#e0e0e0" stroke="#999999" points="69.25,-80.12 0,-80.12 0,-60.88 69.25,-60.88 69.25,-80.12"/>
<text text-anchor="middle" x="34.62" y="-66.62" font-family="Helvetica,sans-Serif" font-size="10.00">ReactESP.h</text>
</a>
</g>
</g>
<!-- Node2&#45;&gt;Node3 -->
<g id="edge2_Node000002_Node000003" class="edge">
<title>Node2&#45;&gt;Node3</title>
<g id="a_edge2_Node000002_Node000003"><a xlink:title=" ">
<path fill="none" stroke="#63b8ff" d="M142.91,-121.3C121.99,-111.68 88.69,-96.37 64.53,-85.26"/>
<polygon fill="#63b8ff" stroke="#63b8ff" points="66.08,-82.12 55.53,-81.12 63.15,-88.47 66.08,-82.12"/>
</a>
</g>
</g>
<!-- Node4 -->
<g id="Node000004" class="node">
<title>Node4</title>
<g id="a_Node000004"><a xlink:title=" ">
<polygon fill="#e0e0e0" stroke="#999999" points="138.25,-80.12 87,-80.12 87,-60.88 138.25,-60.88 138.25,-80.12"/>
<text text-anchor="middle" x="112.62" y="-66.62" font-family="Helvetica,sans-Serif" font-size="10.00">memory</text>
</a>
</g>
</g>
<!-- Node2&#45;&gt;Node4 -->
<g id="edge3_Node000002_Node000004" class="edge">
<title>Node2&#45;&gt;Node4</title>
<g id="a_edge3_Node000002_Node000004"><a xlink:title=" ">
<path fill="none" stroke="#63b8ff" d="M155.03,-121.43C147.76,-112.87 136.6,-99.73 127.55,-89.07"/>
<polygon fill="#63b8ff" stroke="#63b8ff" points="130.41,-87.04 121.27,-81.68 125.08,-91.57 130.41,-87.04"/>
</a>
</g>
</g>
<!-- Node5 -->
<g id="Node000005" class="node">
<title>Node5</title>
<g id="a_Node000005"><a xlink:href="local__debug_8h.html" target="_top" xlink:title=" ">
<polygon fill="white" stroke="#666666" points="267.25,-85.75 156,-85.75 156,-55.25 267.25,-55.25 267.25,-85.75"/>
<text text-anchor="start" x="164" y="-72.25" font-family="Helvetica,sans-Serif" font-size="10.00">sensesp/system/local</text>
<text text-anchor="middle" x="211.62" y="-61" font-family="Helvetica,sans-Serif" font-size="10.00">_debug.h</text>
</a>
</g>
</g>
<!-- Node2&#45;&gt;Node5 -->
<g id="edge4_Node000002_Node000005" class="edge">
<title>Node2&#45;&gt;Node5</title>
<g id="a_edge4_Node000002_Node000005"><a xlink:title=" ">
<path fill="none" stroke="#63b8ff" d="M170.07,-121.43C175.99,-114.31 184.56,-104.02 192.37,-94.63"/>
<polygon fill="#63b8ff" stroke="#63b8ff" points="194.86,-97.12 198.56,-87.2 189.47,-92.64 194.86,-97.12"/>
</a>
</g>
</g>
<!-- Node6 -->
<g id="Node000006" class="node">
<title>Node6</title>
<g id="a_Node000006"><a xlink:title=" ">
<polygon fill="#e0e0e0" stroke="#999999" points="175.62,-19.25 93.62,-19.25 93.62,0 175.62,0 175.62,-19.25"/>
<text text-anchor="middle" x="134.62" y="-5.75" font-family="Helvetica,sans-Serif" font-size="10.00">esp32&#45;hal&#45;log.h</text>
</a>
</g>
</g>
<!-- Node5&#45;&gt;Node6 -->
<g id="edge5_Node000005_Node000006" class="edge">
<title>Node5&#45;&gt;Node6</title>
<g id="a_edge5_Node000005_Node000006"><a xlink:title=" ">
<path fill="none" stroke="#63b8ff" d="M192.59,-54.95C181.32,-46.33 167.02,-35.4 155.45,-26.55"/>
<polygon fill="#63b8ff" stroke="#63b8ff" points="157.77,-23.91 147.7,-20.62 153.52,-29.48 157.77,-23.91"/>
</a>
</g>
</g>
<!-- Node5&#45;&gt;Node7 -->
<g id="edge6_Node000005_Node000007" class="edge">
<title>Node5&#45;&gt;Node7</title>
<g id="a_edge6_Node000005_Node000007"><a xlink:title=" ">
<path fill="none" stroke="#63b8ff" d="M231.4,-54.95C243.23,-46.24 258.26,-35.18 270.35,-26.28"/>
<polygon fill="#63b8ff" stroke="#63b8ff" points="272.09,-29.34 278.07,-20.6 267.94,-23.71 272.09,-29.34"/>
</a>
</g>
</g>
<!-- Node8 -->
<g id="Node000008" class="node">
<title>Node8</title>
<g id="a_Node000008"><a xlink:title=" ">
<polygon fill="#e0e0e0" stroke="#999999" points="237.88,-19.25 193.38,-19.25 193.38,0 237.88,0 237.88,-19.25"/>
<text text-anchor="middle" x="215.62" y="-5.75" font-family="Helvetica,sans-Serif" font-size="10.00">Print.h</text>
</a>
</g>
</g>
<!-- Node5&#45;&gt;Node8 -->
<g id="edge7_Node000005_Node000008" class="edge">
<title>Node5&#45;&gt;Node8</title>
<g id="a_edge7_Node000005_Node000008"><a xlink:title=" ">
<path fill="none" stroke="#63b8ff" d="M212.61,-54.95C213.11,-47.71 213.71,-38.84 214.24,-30.94"/>
<polygon fill="#63b8ff" stroke="#63b8ff" points="217.72,-31.43 214.91,-21.21 210.74,-30.95 217.72,-31.43"/>
</a>
</g>
</g>
</g>
</svg>
