<?xml version="1.0" encoding="UTF-8" standalone="no"?>
<!DOCTYPE svg PUBLIC "-//W3C//DTD SVG 1.1//EN"
 "http://www.w3.org/Graphics/SVG/1.1/DTD/svg11.dtd">
<!-- Generated by graphviz version 2.50.0 (20211204.2007)
 -->
<!-- Title: src/sensesp/sensors/analog_input.cpp Pages: 1 -->
<svg width="798pt" height="442pt"
 viewBox="0.00 0.00 797.93 442.00" xmlns="http://www.w3.org/2000/svg" xmlns:xlink="http://www.w3.org/1999/xlink">
<g id="graph0" class="graph" transform="scale(1 1) rotate(0) translate(4 438)">
<title>src/sensesp/sensors/analog_input.cpp</title>
<polygon fill="white" stroke="transparent" points="-4,4 -4,-438 793.93,-438 793.93,4 -4,4"/>
<!-- Node1 -->
<g id="node1" class="node">
<title>Node1</title>
<g id="a_node1"><a xlink:title=" ">
<polygon fill="#bfbfbf" stroke="black" points="603,-403.5 603,-433.5 710,-433.5 710,-403.5 603,-403.5"/>
<text text-anchor="start" x="611" y="-421.5" font-family="Helvetica,sans-Serif" font-size="10.00">src/sensesp/sensors</text>
<text text-anchor="middle" x="656.5" y="-410.5" font-family="Helvetica,sans-Serif" font-size="10.00">/analog_input.cpp</text>
</a>
</g>
</g>
<!-- Node2 -->
<g id="node2" class="node">
<title>Node2</title>
<g id="a_node2"><a xlink:href="analog__input_8h.html" target="_top" xlink:title=" ">
<polygon fill="white" stroke="black" points="545.5,-347.5 545.5,-366.5 625.5,-366.5 625.5,-347.5 545.5,-347.5"/>
<text text-anchor="middle" x="585.5" y="-354.5" font-family="Helvetica,sans-Serif" font-size="10.00">analog_input.h</text>
</a>
</g>
</g>
<!-- Node1&#45;&gt;Node2 -->
<g id="edge1" class="edge">
<title>Node1&#45;&gt;Node2</title>
<path fill="none" stroke="midnightblue" d="M639.67,-403.4C628.83,-394.31 614.72,-382.49 603.63,-373.19"/>
<polygon fill="midnightblue" stroke="midnightblue" points="605.74,-370.4 595.83,-366.66 601.25,-375.76 605.74,-370.4"/>
</g>
<!-- Node4 -->
<g id="node4" class="node">
<title>Node4</title>
<g id="a_node4"><a xlink:title=" ">
<polygon fill="white" stroke="#bfbfbf" points="554.5,-0.5 554.5,-19.5 612.5,-19.5 612.5,-0.5 554.5,-0.5"/>
<text text-anchor="middle" x="583.5" y="-7.5" font-family="Helvetica,sans-Serif" font-size="10.00">Arduino.h</text>
</a>
</g>
</g>
<!-- Node1&#45;&gt;Node4 -->
<g id="edge28" class="edge">
<title>Node1&#45;&gt;Node4</title>
<path fill="none" stroke="midnightblue" d="M693.97,-403.45C733,-386.11 788.5,-352.55 788.5,-302 788.5,-302 788.5,-302 788.5,-132 788.5,-97.18 794.21,-80.53 769.5,-56 749.07,-35.72 671.07,-22.28 622.81,-15.71"/>
<polygon fill="midnightblue" stroke="midnightblue" points="623.07,-12.21 612.7,-14.37 622.15,-19.15 623.07,-12.21"/>
</g>
<!-- Node5 -->
<g id="node5" class="node">
<title>Node5</title>
<g id="a_node5"><a xlink:href="sensesp_8h.html" target="_top" xlink:title=" ">
<polygon fill="white" stroke="black" points="564.5,-123.5 564.5,-142.5 626.5,-142.5 626.5,-123.5 564.5,-123.5"/>
<text text-anchor="middle" x="595.5" y="-130.5" font-family="Helvetica,sans-Serif" font-size="10.00">sensesp.h</text>
</a>
</g>
</g>
<!-- Node1&#45;&gt;Node5 -->
<g id="edge29" class="edge">
<title>Node1&#45;&gt;Node5</title>
<path fill="none" stroke="midnightblue" d="M656.5,-403.28C656.5,-381.48 656.5,-338.49 656.5,-302 656.5,-302 656.5,-302 656.5,-244 656.5,-213.9 652.39,-205.15 637.5,-179 631.25,-168.02 621.81,-157.59 613.47,-149.53"/>
<polygon fill="midnightblue" stroke="midnightblue" points="615.67,-146.8 605.94,-142.6 610.93,-151.95 615.67,-146.8"/>
</g>
<!-- Node3 -->
<g id="node3" class="node">
<title>Node3</title>
<g id="a_node3"><a xlink:href="analog__reader_8h.html" target="_top" xlink:title=" ">
<polygon fill="white" stroke="black" points="543,-179.5 543,-198.5 628,-198.5 628,-179.5 543,-179.5"/>
<text text-anchor="middle" x="585.5" y="-186.5" font-family="Helvetica,sans-Serif" font-size="10.00">analog_reader.h</text>
</a>
</g>
</g>
<!-- Node2&#45;&gt;Node3 -->
<g id="edge2" class="edge">
<title>Node2&#45;&gt;Node3</title>
<path fill="none" stroke="midnightblue" d="M585.5,-347.08C585.5,-320.95 585.5,-244.21 585.5,-208.58"/>
<polygon fill="midnightblue" stroke="midnightblue" points="589,-208.57 585.5,-198.57 582,-208.57 589,-208.57"/>
</g>
<!-- Node9 -->
<g id="node9" class="node">
<title>Node9</title>
<g id="a_node9"><a xlink:href="sensor_8h.html" target="_top" xlink:title=" ">
<polygon fill="white" stroke="black" points="253,-291.5 253,-310.5 306,-310.5 306,-291.5 253,-291.5"/>
<text text-anchor="middle" x="279.5" y="-298.5" font-family="Helvetica,sans-Serif" font-size="10.00">sensor.h</text>
</a>
</g>
</g>
<!-- Node2&#45;&gt;Node9 -->
<g id="edge9" class="edge">
<title>Node2&#45;&gt;Node9</title>
<path fill="none" stroke="midnightblue" d="M545.5,-348.94C485.71,-338.39 373.92,-318.66 316.15,-308.47"/>
<polygon fill="midnightblue" stroke="midnightblue" points="316.48,-304.97 306.02,-306.68 315.26,-311.86 316.48,-304.97"/>
</g>
<!-- Node3&#45;&gt;Node4 -->
<g id="edge3" class="edge">
<title>Node3&#45;&gt;Node4</title>
<path fill="none" stroke="midnightblue" d="M577.79,-179.44C570.6,-170.89 560.3,-157.04 555.5,-143 542.97,-106.38 539.73,-92.87 551.5,-56 554.84,-45.54 561.6,-35.43 568.05,-27.45"/>
<polygon fill="midnightblue" stroke="midnightblue" points="570.85,-29.56 574.75,-19.71 565.56,-24.98 570.85,-29.56"/>
</g>
<!-- Node3&#45;&gt;Node5 -->
<g id="edge4" class="edge">
<title>Node3&#45;&gt;Node5</title>
<path fill="none" stroke="midnightblue" d="M587.15,-179.08C588.48,-171.93 590.38,-161.64 592.04,-152.69"/>
<polygon fill="midnightblue" stroke="midnightblue" points="595.5,-153.22 593.88,-142.75 588.62,-151.95 595.5,-153.22"/>
</g>
<!-- Node6 -->
<g id="node6" class="node">
<title>Node6</title>
<g id="a_node6"><a xlink:title=" ">
<polygon fill="white" stroke="#bfbfbf" points="560.5,-62 560.5,-81 630.5,-81 630.5,-62 560.5,-62"/>
<text text-anchor="middle" x="595.5" y="-69" font-family="Helvetica,sans-Serif" font-size="10.00">ReactESP.h</text>
</a>
</g>
</g>
<!-- Node5&#45;&gt;Node6 -->
<g id="edge5" class="edge">
<title>Node5&#45;&gt;Node6</title>
<path fill="none" stroke="midnightblue" d="M595.5,-123.48C595.5,-115.08 595.5,-101.98 595.5,-91.16"/>
<polygon fill="midnightblue" stroke="midnightblue" points="599,-91.01 595.5,-81.01 592,-91.01 599,-91.01"/>
</g>
<!-- Node7 -->
<g id="node7" class="node">
<title>Node7</title>
<g id="a_node7"><a xlink:href="local__debug_8h.html" target="_top" xlink:title=" ">
<polygon fill="white" stroke="black" points="648.5,-56.5 648.5,-86.5 760.5,-86.5 760.5,-56.5 648.5,-56.5"/>
<text text-anchor="start" x="656.5" y="-74.5" font-family="Helvetica,sans-Serif" font-size="10.00">sensesp/system/local</text>
<text text-anchor="middle" x="704.5" y="-63.5" font-family="Helvetica,sans-Serif" font-size="10.00">_debug.h</text>
</a>
</g>
</g>
<!-- Node5&#45;&gt;Node7 -->
<g id="edge6" class="edge">
<title>Node5&#45;&gt;Node7</title>
<path fill="none" stroke="midnightblue" d="M611.12,-123.48C626.36,-115.15 650.08,-102.21 669.79,-91.45"/>
<polygon fill="midnightblue" stroke="midnightblue" points="671.71,-94.39 678.81,-86.52 668.36,-88.24 671.71,-94.39"/>
</g>
<!-- Node7&#45;&gt;Node4 -->
<g id="edge7" class="edge">
<title>Node7&#45;&gt;Node4</title>
<path fill="none" stroke="midnightblue" d="M675.82,-56.4C655.98,-46.64 629.74,-33.74 610.31,-24.18"/>
<polygon fill="midnightblue" stroke="midnightblue" points="611.62,-20.93 601.11,-19.66 608.54,-27.21 611.62,-20.93"/>
</g>
<!-- Node8 -->
<g id="node8" class="node">
<title>Node8</title>
<g id="a_node8"><a xlink:title=" ">
<polygon fill="white" stroke="#bfbfbf" points="682,-0.5 682,-19.5 727,-19.5 727,-0.5 682,-0.5"/>
<text text-anchor="middle" x="704.5" y="-7.5" font-family="Helvetica,sans-Serif" font-size="10.00">Print.h</text>
</a>
</g>
</g>
<!-- Node7&#45;&gt;Node8 -->
<g id="edge8" class="edge">
<title>Node7&#45;&gt;Node8</title>
<path fill="none" stroke="midnightblue" d="M704.5,-56.4C704.5,-48.47 704.5,-38.46 704.5,-29.86"/>
<polygon fill="midnightblue" stroke="midnightblue" points="708,-29.66 704.5,-19.66 701,-29.66 708,-29.66"/>
</g>
<!-- Node10 -->
<g id="node10" class="node">
<title>Node10</title>
<g id="a_node10"><a xlink:title=" ">
<polygon fill="white" stroke="#bfbfbf" points="202.5,-235.5 202.5,-254.5 232.5,-254.5 232.5,-235.5 202.5,-235.5"/>
<text text-anchor="middle" x="217.5" y="-242.5" font-family="Helvetica,sans-Serif" font-size="10.00">set</text>
</a>
</g>
</g>
<!-- Node9&#45;&gt;Node10 -->
<g id="edge10" class="edge">
<title>Node9&#45;&gt;Node10</title>
<path fill="none" stroke="midnightblue" d="M269.54,-291.32C260.37,-283.34 246.56,-271.31 235.47,-261.65"/>
<polygon fill="midnightblue" stroke="midnightblue" points="237.48,-258.76 227.64,-254.83 232.88,-264.04 237.48,-258.76"/>
</g>
<!-- Node11 -->
<g id="node11" class="node">
<title>Node11</title>
<g id="a_node11"><a xlink:href="configurable_8h.html" target="_top" xlink:title=" ">
<polygon fill="white" stroke="black" points="226.5,-179.5 226.5,-198.5 378.5,-198.5 378.5,-179.5 226.5,-179.5"/>
<text text-anchor="middle" x="302.5" y="-186.5" font-family="Helvetica,sans-Serif" font-size="10.00">sensesp/system/configurable.h</text>
</a>
</g>
</g>
<!-- Node9&#45;&gt;Node11 -->
<g id="edge11" class="edge">
<title>Node9&#45;&gt;Node11</title>
<path fill="none" stroke="midnightblue" d="M281.3,-291.37C285.02,-273.62 293.58,-232.67 298.61,-208.6"/>
<polygon fill="midnightblue" stroke="midnightblue" points="302.08,-209.1 300.7,-198.59 295.23,-207.66 302.08,-209.1"/>
</g>
<!-- Node14 -->
<g id="node14" class="node">
<title>Node14</title>
<g id="a_node14"><a xlink:href="observable_8h.html" target="_top" xlink:title=" ">
<polygon fill="white" stroke="black" points="61,-179.5 61,-198.5 208,-198.5 208,-179.5 61,-179.5"/>
<text text-anchor="middle" x="134.5" y="-186.5" font-family="Helvetica,sans-Serif" font-size="10.00">sensesp/system/observable.h</text>
</a>
</g>
</g>
<!-- Node9&#45;&gt;Node14 -->
<g id="edge15" class="edge">
<title>Node9&#45;&gt;Node14</title>
<path fill="none" stroke="midnightblue" d="M276.46,-291.23C271.3,-277.5 259.58,-250.86 241.5,-235 223.78,-219.46 199.91,-208.72 179.21,-201.65"/>
<polygon fill="midnightblue" stroke="midnightblue" points="180.25,-198.3 169.66,-198.56 178.09,-204.96 180.25,-198.3"/>
</g>
<!-- Node18 -->
<g id="node18" class="node">
<title>Node18</title>
<g id="a_node18"><a xlink:href="startable_8h.html" target="_top" xlink:title=" ">
<polygon fill="white" stroke="black" points="0,-235.5 0,-254.5 137,-254.5 137,-235.5 0,-235.5"/>
<text text-anchor="middle" x="68.5" y="-242.5" font-family="Helvetica,sans-Serif" font-size="10.00">sensesp/system/startable.h</text>
</a>
</g>
</g>
<!-- Node9&#45;&gt;Node18 -->
<g id="edge19" class="edge">
<title>Node9&#45;&gt;Node18</title>
<path fill="none" stroke="midnightblue" d="M252.78,-293.16C217.26,-284.07 154.05,-267.9 111.71,-257.06"/>
<polygon fill="midnightblue" stroke="midnightblue" points="112.51,-253.65 101.95,-254.56 110.77,-260.43 112.51,-253.65"/>
</g>
<!-- Node20 -->
<g id="node20" class="node">
<title>Node20</title>
<g id="a_node20"><a xlink:href="valueproducer_8h.html" target="_top" xlink:title=" ">
<polygon fill="white" stroke="black" points="326.5,-235.5 326.5,-254.5 486.5,-254.5 486.5,-235.5 326.5,-235.5"/>
<text text-anchor="middle" x="406.5" y="-242.5" font-family="Helvetica,sans-Serif" font-size="10.00">sensesp/system/valueproducer.h</text>
</a>
</g>
</g>
<!-- Node9&#45;&gt;Node20 -->
<g id="edge21" class="edge">
<title>Node9&#45;&gt;Node20</title>
<path fill="none" stroke="midnightblue" d="M299.62,-291.44C320.52,-282.56 353.43,-268.56 377.22,-258.45"/>
<polygon fill="midnightblue" stroke="midnightblue" points="378.64,-261.65 386.47,-254.52 375.9,-255.21 378.64,-261.65"/>
</g>
<!-- Node11&#45;&gt;Node4 -->
<g id="edge14" class="edge">
<title>Node11&#45;&gt;Node4</title>
<path fill="none" stroke="midnightblue" d="M298.16,-179.12C292.3,-165.71 283.84,-140.05 295.5,-123 352.02,-40.37 479.18,-18.69 543.95,-13.01"/>
<polygon fill="midnightblue" stroke="midnightblue" points="544.47,-16.48 554.17,-12.21 543.92,-9.5 544.47,-16.48"/>
</g>
<!-- Node12 -->
<g id="node12" class="node">
<title>Node12</title>
<g id="a_node12"><a xlink:title=" ">
<polygon fill="white" stroke="#bfbfbf" points="358,-123.5 358,-142.5 437,-142.5 437,-123.5 358,-123.5"/>
<text text-anchor="middle" x="397.5" y="-130.5" font-family="Helvetica,sans-Serif" font-size="10.00">ArduinoJson.h</text>
</a>
</g>
</g>
<!-- Node11&#45;&gt;Node12 -->
<g id="edge12" class="edge">
<title>Node11&#45;&gt;Node12</title>
<path fill="none" stroke="midnightblue" d="M317.76,-179.32C332.72,-170.82 355.75,-157.73 373.23,-147.8"/>
<polygon fill="midnightblue" stroke="midnightblue" points="375.31,-150.64 382.27,-142.65 371.85,-144.55 375.31,-150.64"/>
</g>
<!-- Node13 -->
<g id="node13" class="node">
<title>Node13</title>
<g id="a_node13"><a xlink:title=" ">
<polygon fill="white" stroke="#bfbfbf" points="305,-123.5 305,-142.5 340,-142.5 340,-123.5 305,-123.5"/>
<text text-anchor="middle" x="322.5" y="-130.5" font-family="Helvetica,sans-Serif" font-size="10.00">map</text>
</a>
</g>
</g>
<!-- Node11&#45;&gt;Node13 -->
<g id="edge13" class="edge">
<title>Node11&#45;&gt;Node13</title>
<path fill="none" stroke="midnightblue" d="M305.8,-179.08C308.48,-171.85 312.35,-161.41 315.69,-152.4"/>
<polygon fill="midnightblue" stroke="midnightblue" points="319.07,-153.34 319.26,-142.75 312.5,-150.91 319.07,-153.34"/>
</g>
<!-- Node15 -->
<g id="node15" class="node">
<title>Node15</title>
<g id="a_node15"><a xlink:title=" ">
<polygon fill="white" stroke="#bfbfbf" points="175,-123.5 175,-142.5 242,-142.5 242,-123.5 175,-123.5"/>
<text text-anchor="middle" x="208.5" y="-130.5" font-family="Helvetica,sans-Serif" font-size="10.00">forward_list</text>
</a>
</g>
</g>
<!-- Node14&#45;&gt;Node15 -->
<g id="edge16" class="edge">
<title>Node14&#45;&gt;Node15</title>
<path fill="none" stroke="midnightblue" d="M146.39,-179.32C157.65,-171.11 174.79,-158.6 188.21,-148.81"/>
<polygon fill="midnightblue" stroke="midnightblue" points="190.38,-151.56 196.39,-142.83 186.25,-145.9 190.38,-151.56"/>
</g>
<!-- Node16 -->
<g id="node16" class="node">
<title>Node16</title>
<g id="a_node16"><a xlink:title=" ">
<polygon fill="white" stroke="#bfbfbf" points="35,-123.5 35,-142.5 94,-142.5 94,-123.5 35,-123.5"/>
<text text-anchor="middle" x="64.5" y="-130.5" font-family="Helvetica,sans-Serif" font-size="10.00">functional</text>
</a>
</g>
</g>
<!-- Node14&#45;&gt;Node16 -->
<g id="edge17" class="edge">
<title>Node14&#45;&gt;Node16</title>
<path fill="none" stroke="midnightblue" d="M123.25,-179.32C112.7,-171.18 96.7,-158.84 84.06,-149.09"/>
<polygon fill="midnightblue" stroke="midnightblue" points="86.01,-146.17 75.95,-142.83 81.73,-151.71 86.01,-146.17"/>
</g>
<!-- Node17 -->
<g id="node17" class="node">
<title>Node17</title>
<g id="a_node17"><a xlink:title=" ">
<polygon fill="white" stroke="#bfbfbf" points="112.5,-123.5 112.5,-142.5 156.5,-142.5 156.5,-123.5 112.5,-123.5"/>
<text text-anchor="middle" x="134.5" y="-130.5" font-family="Helvetica,sans-Serif" font-size="10.00">vector</text>
</a>
</g>
</g>
<!-- Node14&#45;&gt;Node17 -->
<g id="edge18" class="edge">
<title>Node14&#45;&gt;Node17</title>
<path fill="none" stroke="midnightblue" d="M134.5,-179.08C134.5,-172.01 134.5,-161.86 134.5,-152.99"/>
<polygon fill="midnightblue" stroke="midnightblue" points="138,-152.75 134.5,-142.75 131,-152.75 138,-152.75"/>
</g>
<!-- Node19 -->
<g id="node19" class="node">
<title>Node19</title>
<g id="a_node19"><a xlink:title=" ">
<polygon fill="white" stroke="#bfbfbf" points="0,-179.5 0,-198.5 43,-198.5 43,-179.5 0,-179.5"/>
<text text-anchor="middle" x="21.5" y="-186.5" font-family="Helvetica,sans-Serif" font-size="10.00">queue</text>
</a>
</g>
</g>
<!-- Node18&#45;&gt;Node19 -->
<g id="edge20" class="edge">
<title>Node18&#45;&gt;Node19</title>
<path fill="none" stroke="midnightblue" d="M60.74,-235.08C53.96,-227.3 43.96,-215.8 35.74,-206.37"/>
<polygon fill="midnightblue" stroke="midnightblue" points="38.32,-204 29.12,-198.75 33.04,-208.59 38.32,-204"/>
</g>
<!-- Node20&#45;&gt;Node12 -->
<g id="edge22" class="edge">
<title>Node20&#45;&gt;Node12</title>
<path fill="none" stroke="midnightblue" d="M405.79,-235.37C404.34,-217.62 400.99,-176.67 399.02,-152.6"/>
<polygon fill="midnightblue" stroke="midnightblue" points="402.51,-152.27 398.2,-142.59 395.53,-152.84 402.51,-152.27"/>
</g>
<!-- Node20&#45;&gt;Node14 -->
<g id="edge23" class="edge">
<title>Node20&#45;&gt;Node14</title>
<path fill="none" stroke="midnightblue" d="M363.4,-235.44C315.65,-225.96 238.64,-210.67 187.31,-200.48"/>
<polygon fill="midnightblue" stroke="midnightblue" points="187.89,-197.03 177.4,-198.52 186.52,-203.9 187.89,-197.03"/>
</g>
<!-- Node21 -->
<g id="node21" class="node">
<title>Node21</title>
<g id="a_node21"><a xlink:href="valueconsumer_8h.html" target="_top" xlink:title=" ">
<polygon fill="white" stroke="black" points="434.5,-179.5 434.5,-198.5 524.5,-198.5 524.5,-179.5 434.5,-179.5"/>
<text text-anchor="middle" x="479.5" y="-186.5" font-family="Helvetica,sans-Serif" font-size="10.00">valueconsumer.h</text>
</a>
</g>
</g>
<!-- Node20&#45;&gt;Node21 -->
<g id="edge24" class="edge">
<title>Node20&#45;&gt;Node21</title>
<path fill="none" stroke="midnightblue" d="M418.23,-235.32C429.34,-227.11 446.24,-214.6 459.48,-204.81"/>
<polygon fill="midnightblue" stroke="midnightblue" points="461.6,-207.59 467.56,-198.83 457.44,-201.97 461.6,-207.59"/>
</g>
<!-- Node21&#45;&gt;Node5 -->
<g id="edge27" class="edge">
<title>Node21&#45;&gt;Node5</title>
<path fill="none" stroke="midnightblue" d="M497.88,-179.44C516.72,-170.68 546.23,-156.94 567.88,-146.86"/>
<polygon fill="midnightblue" stroke="midnightblue" points="569.62,-149.91 577.21,-142.52 566.66,-143.56 569.62,-149.91"/>
</g>
<!-- Node21&#45;&gt;Node12 -->
<g id="edge25" class="edge">
<title>Node21&#45;&gt;Node12</title>
<path fill="none" stroke="midnightblue" d="M466.33,-179.32C453.65,-170.98 434.27,-158.21 419.29,-148.35"/>
<polygon fill="midnightblue" stroke="midnightblue" points="420.92,-145.23 410.64,-142.65 417.07,-151.08 420.92,-145.23"/>
</g>
<!-- Node22 -->
<g id="node22" class="node">
<title>Node22</title>
<g id="a_node22"><a xlink:title=" ">
<polygon fill="white" stroke="#bfbfbf" points="455,-123.5 455,-142.5 504,-142.5 504,-123.5 455,-123.5"/>
<text text-anchor="middle" x="479.5" y="-130.5" font-family="Helvetica,sans-Serif" font-size="10.00">stdint.h</text>
</a>
</g>
</g>
<!-- Node21&#45;&gt;Node22 -->
<g id="edge26" class="edge">
<title>Node21&#45;&gt;Node22</title>
<path fill="none" stroke="midnightblue" d="M479.5,-179.08C479.5,-172.01 479.5,-161.86 479.5,-152.99"/>
<polygon fill="midnightblue" stroke="midnightblue" points="483,-152.75 479.5,-142.75 476,-152.75 483,-152.75"/>
</g>
</g>
</svg>
