<?xml version="1.0" encoding="UTF-8" standalone="no"?>
<!DOCTYPE svg PUBLIC "-//W3C//DTD SVG 1.1//EN"
 "http://www.w3.org/Graphics/SVG/1.1/DTD/svg11.dtd">
<!-- Generated by graphviz version 5.0.0 (20220707.1540)
 -->
<!-- Title: src/sensesp/sensors/analog_input.h Pages: 1 -->
<svg width="636pt" height="386pt"
 viewBox="0.00 0.00 636.00 386.00" xmlns="http://www.w3.org/2000/svg" xmlns:xlink="http://www.w3.org/1999/xlink">
<g id="graph0" class="graph" transform="scale(1 1) rotate(0) translate(4 382)">
<title>src/sensesp/sensors/analog_input.h</title>
<polygon fill="white" stroke="transparent" points="-4,4 -4,-382 632,-382 632,4 -4,4"/>
<!-- Node1 -->
<g id="node1" class="node">
<title>Node1</title>
<g id="a_node1"><a xlink:title=" ">
<polygon fill="#bfbfbf" stroke="black" points="377,-347.5 377,-377.5 484,-377.5 484,-347.5 377,-347.5"/>
<text text-anchor="start" x="385" y="-365.5" font-family="Helvetica,sans-Serif" font-size="10.00">src/sensesp/sensors</text>
<text text-anchor="middle" x="430.5" y="-354.5" font-family="Helvetica,sans-Serif" font-size="10.00">/analog_input.h</text>
</a>
</g>
</g>
<!-- Node2 -->
<g id="node2" class="node">
<title>Node2</title>
<g id="a_node2"><a xlink:href="analog__reader_8h.html" target="_top" xlink:title=" ">
<polygon fill="white" stroke="black" points="543,-179.5 543,-198.5 628,-198.5 628,-179.5 543,-179.5"/>
<text text-anchor="middle" x="585.5" y="-186.5" font-family="Helvetica,sans-Serif" font-size="10.00">analog_reader.h</text>
</a>
</g>
</g>
<!-- Node1&#45;&gt;Node2 -->
<g id="edge1" class="edge">
<title>Node1&#45;&gt;Node2</title>
<path fill="none" stroke="midnightblue" d="M447.81,-347.48C471.12,-328.13 513.14,-291.46 543.5,-255 555.95,-240.04 567.76,-221.2 575.66,-207.66"/>
<polygon fill="midnightblue" stroke="midnightblue" points="578.77,-209.29 580.68,-198.87 572.69,-205.82 578.77,-209.29"/>
</g>
<!-- Node8 -->
<g id="node8" class="node">
<title>Node8</title>
<g id="a_node8"><a xlink:href="sensor_8h.html" target="_top" xlink:title=" ">
<polygon fill="white" stroke="black" points="326,-291.5 326,-310.5 379,-310.5 379,-291.5 326,-291.5"/>
<text text-anchor="middle" x="352.5" y="-298.5" font-family="Helvetica,sans-Serif" font-size="10.00">sensor.h</text>
</a>
</g>
</g>
<!-- Node1&#45;&gt;Node8 -->
<g id="edge8" class="edge">
<title>Node1&#45;&gt;Node8</title>
<path fill="none" stroke="midnightblue" d="M412.02,-347.4C399.98,-338.22 384.3,-326.26 372.06,-316.92"/>
<polygon fill="midnightblue" stroke="midnightblue" points="373.92,-313.94 363.85,-310.66 369.68,-319.51 373.92,-313.94"/>
</g>
<!-- Node3 -->
<g id="node3" class="node">
<title>Node3</title>
<g id="a_node3"><a xlink:title=" ">
<polygon fill="white" stroke="#bfbfbf" points="547.5,-0.5 547.5,-19.5 605.5,-19.5 605.5,-0.5 547.5,-0.5"/>
<text text-anchor="middle" x="576.5" y="-7.5" font-family="Helvetica,sans-Serif" font-size="10.00">Arduino.h</text>
</a>
</g>
</g>
<!-- Node2&#45;&gt;Node3 -->
<g id="edge2" class="edge">
<title>Node2&#45;&gt;Node3</title>
<path fill="none" stroke="midnightblue" d="M589.45,-179.48C598.74,-158.23 620.22,-101.31 606.5,-56 603.38,-45.7 597.05,-35.61 591,-27.6"/>
<polygon fill="midnightblue" stroke="midnightblue" points="593.72,-25.4 584.71,-19.82 588.27,-29.8 593.72,-25.4"/>
</g>
<!-- Node4 -->
<g id="node4" class="node">
<title>Node4</title>
<g id="a_node4"><a xlink:href="sensesp_8h.html" target="_top" xlink:title=" ">
<polygon fill="white" stroke="black" points="523.5,-123.5 523.5,-142.5 585.5,-142.5 585.5,-123.5 523.5,-123.5"/>
<text text-anchor="middle" x="554.5" y="-130.5" font-family="Helvetica,sans-Serif" font-size="10.00">sensesp.h</text>
</a>
</g>
</g>
<!-- Node2&#45;&gt;Node4 -->
<g id="edge3" class="edge">
<title>Node2&#45;&gt;Node4</title>
<path fill="none" stroke="midnightblue" d="M580.38,-179.08C576.09,-171.61 569.84,-160.72 564.56,-151.52"/>
<polygon fill="midnightblue" stroke="midnightblue" points="567.54,-149.68 559.52,-142.75 561.47,-153.17 567.54,-149.68"/>
</g>
<!-- Node5 -->
<g id="node5" class="node">
<title>Node5</title>
<g id="a_node5"><a xlink:title=" ">
<polygon fill="white" stroke="#bfbfbf" points="397.5,-62 397.5,-81 467.5,-81 467.5,-62 397.5,-62"/>
<text text-anchor="middle" x="432.5" y="-69" font-family="Helvetica,sans-Serif" font-size="10.00">ReactESP.h</text>
</a>
</g>
</g>
<!-- Node4&#45;&gt;Node5 -->
<g id="edge4" class="edge">
<title>Node4&#45;&gt;Node5</title>
<path fill="none" stroke="midnightblue" d="M537.02,-123.48C516.64,-113.53 482.72,-96.99 459.08,-85.46"/>
<polygon fill="midnightblue" stroke="midnightblue" points="460.47,-82.25 449.95,-81.01 457.4,-88.54 460.47,-82.25"/>
</g>
<!-- Node6 -->
<g id="node6" class="node">
<title>Node6</title>
<g id="a_node6"><a xlink:href="local__debug_8h.html" target="_top" xlink:title=" ">
<polygon fill="white" stroke="black" points="485.5,-56.5 485.5,-86.5 597.5,-86.5 597.5,-56.5 485.5,-56.5"/>
<text text-anchor="start" x="493.5" y="-74.5" font-family="Helvetica,sans-Serif" font-size="10.00">sensesp/system/local</text>
<text text-anchor="middle" x="541.5" y="-63.5" font-family="Helvetica,sans-Serif" font-size="10.00">_debug.h</text>
</a>
</g>
</g>
<!-- Node4&#45;&gt;Node6 -->
<g id="edge5" class="edge">
<title>Node4&#45;&gt;Node6</title>
<path fill="none" stroke="midnightblue" d="M552.64,-123.48C551.09,-116.4 548.81,-105.97 546.72,-96.39"/>
<polygon fill="midnightblue" stroke="midnightblue" points="550.12,-95.55 544.56,-86.52 543.28,-97.04 550.12,-95.55"/>
</g>
<!-- Node6&#45;&gt;Node3 -->
<g id="edge6" class="edge">
<title>Node6&#45;&gt;Node3</title>
<path fill="none" stroke="midnightblue" d="M549.79,-56.4C554.72,-48.02 561.01,-37.33 566.25,-28.42"/>
<polygon fill="midnightblue" stroke="midnightblue" points="569.35,-30.05 571.41,-19.66 563.32,-26.5 569.35,-30.05"/>
</g>
<!-- Node7 -->
<g id="node7" class="node">
<title>Node7</title>
<g id="a_node7"><a xlink:title=" ">
<polygon fill="white" stroke="#bfbfbf" points="484,-0.5 484,-19.5 529,-19.5 529,-0.5 484,-0.5"/>
<text text-anchor="middle" x="506.5" y="-7.5" font-family="Helvetica,sans-Serif" font-size="10.00">Print.h</text>
</a>
</g>
</g>
<!-- Node6&#45;&gt;Node7 -->
<g id="edge7" class="edge">
<title>Node6&#45;&gt;Node7</title>
<path fill="none" stroke="midnightblue" d="M533.21,-56.4C528.28,-48.02 521.99,-37.33 516.75,-28.42"/>
<polygon fill="midnightblue" stroke="midnightblue" points="519.68,-26.5 511.59,-19.66 513.65,-30.05 519.68,-26.5"/>
</g>
<!-- Node9 -->
<g id="node9" class="node">
<title>Node9</title>
<g id="a_node9"><a xlink:title=" ">
<polygon fill="white" stroke="#bfbfbf" points="504.5,-235.5 504.5,-254.5 534.5,-254.5 534.5,-235.5 504.5,-235.5"/>
<text text-anchor="middle" x="519.5" y="-242.5" font-family="Helvetica,sans-Serif" font-size="10.00">set</text>
</a>
</g>
</g>
<!-- Node8&#45;&gt;Node9 -->
<g id="edge9" class="edge">
<title>Node8&#45;&gt;Node9</title>
<path fill="none" stroke="midnightblue" d="M379.26,-292.05C406.24,-283.93 449.26,-270.71 494.85,-255.1"/>
<polygon fill="midnightblue" stroke="midnightblue" points="496,-258.41 504.31,-251.84 493.71,-251.79 496,-258.41"/>
</g>
<!-- Node10 -->
<g id="node10" class="node">
<title>Node10</title>
<g id="a_node10"><a xlink:href="configurable_8h.html" target="_top" xlink:title=" ">
<polygon fill="white" stroke="black" points="226.5,-179.5 226.5,-198.5 378.5,-198.5 378.5,-179.5 226.5,-179.5"/>
<text text-anchor="middle" x="302.5" y="-186.5" font-family="Helvetica,sans-Serif" font-size="10.00">sensesp/system/configurable.h</text>
</a>
</g>
</g>
<!-- Node8&#45;&gt;Node10 -->
<g id="edge10" class="edge">
<title>Node8&#45;&gt;Node10</title>
<path fill="none" stroke="midnightblue" d="M343.99,-291.47C335.97,-282.95 324.22,-269.12 317.5,-255 310.51,-240.29 306.67,-222.13 304.63,-208.75"/>
<polygon fill="midnightblue" stroke="midnightblue" points="308.1,-208.26 303.31,-198.81 301.16,-209.18 308.1,-208.26"/>
</g>
<!-- Node13 -->
<g id="node13" class="node">
<title>Node13</title>
<g id="a_node13"><a xlink:href="observable_8h.html" target="_top" xlink:title=" ">
<polygon fill="white" stroke="black" points="61,-179.5 61,-198.5 208,-198.5 208,-179.5 61,-179.5"/>
<text text-anchor="middle" x="134.5" y="-186.5" font-family="Helvetica,sans-Serif" font-size="10.00">sensesp/system/observable.h</text>
</a>
</g>
</g>
<!-- Node8&#45;&gt;Node13 -->
<g id="edge14" class="edge">
<title>Node8&#45;&gt;Node13</title>
<path fill="none" stroke="midnightblue" d="M335.39,-291.37C297.43,-272.21 205.92,-226.04 160.69,-203.22"/>
<polygon fill="midnightblue" stroke="midnightblue" points="162.03,-199.97 151.53,-198.59 158.88,-206.22 162.03,-199.97"/>
</g>
<!-- Node17 -->
<g id="node17" class="node">
<title>Node17</title>
<g id="a_node17"><a xlink:href="startable_8h.html" target="_top" xlink:title=" ">
<polygon fill="white" stroke="black" points="24,-235.5 24,-254.5 161,-254.5 161,-235.5 24,-235.5"/>
<text text-anchor="middle" x="92.5" y="-242.5" font-family="Helvetica,sans-Serif" font-size="10.00">sensesp/system/startable.h</text>
</a>
</g>
</g>
<!-- Node8&#45;&gt;Node17 -->
<g id="edge18" class="edge">
<title>Node8&#45;&gt;Node17</title>
<path fill="none" stroke="midnightblue" d="M325.65,-294.42C282.78,-285.52 198.14,-267.94 143.49,-256.59"/>
<polygon fill="midnightblue" stroke="midnightblue" points="144.16,-253.15 133.66,-254.55 142.73,-260.01 144.16,-253.15"/>
</g>
<!-- Node19 -->
<g id="node19" class="node">
<title>Node19</title>
<g id="a_node19"><a xlink:href="valueproducer_8h.html" target="_top" xlink:title=" ">
<polygon fill="white" stroke="black" points="326.5,-235.5 326.5,-254.5 486.5,-254.5 486.5,-235.5 326.5,-235.5"/>
<text text-anchor="middle" x="406.5" y="-242.5" font-family="Helvetica,sans-Serif" font-size="10.00">sensesp/system/valueproducer.h</text>
</a>
</g>
</g>
<!-- Node8&#45;&gt;Node19 -->
<g id="edge20" class="edge">
<title>Node8&#45;&gt;Node19</title>
<path fill="none" stroke="midnightblue" d="M361.42,-291.08C369.28,-283.22 380.93,-271.57 390.42,-262.08"/>
<polygon fill="midnightblue" stroke="midnightblue" points="393.15,-264.3 397.75,-254.75 388.2,-259.35 393.15,-264.3"/>
</g>
<!-- Node10&#45;&gt;Node3 -->
<g id="edge13" class="edge">
<title>Node10&#45;&gt;Node3</title>
<path fill="none" stroke="midnightblue" d="M305.53,-179.28C314.29,-155.43 342.01,-88.78 388.5,-56 389.27,-55.45 482.68,-33.25 537.52,-20.24"/>
<polygon fill="midnightblue" stroke="midnightblue" points="538.36,-23.64 547.28,-17.92 536.74,-16.82 538.36,-23.64"/>
</g>
<!-- Node11 -->
<g id="node11" class="node">
<title>Node11</title>
<g id="a_node11"><a xlink:title=" ">
<polygon fill="white" stroke="#bfbfbf" points="359,-123.5 359,-142.5 438,-142.5 438,-123.5 359,-123.5"/>
<text text-anchor="middle" x="398.5" y="-130.5" font-family="Helvetica,sans-Serif" font-size="10.00">ArduinoJson.h</text>
</a>
</g>
</g>
<!-- Node10&#45;&gt;Node11 -->
<g id="edge11" class="edge">
<title>Node10&#45;&gt;Node11</title>
<path fill="none" stroke="midnightblue" d="M317.92,-179.32C333.04,-170.82 356.32,-157.73 373.97,-147.8"/>
<polygon fill="midnightblue" stroke="midnightblue" points="376.11,-150.61 383.11,-142.65 372.68,-144.51 376.11,-150.61"/>
</g>
<!-- Node12 -->
<g id="node12" class="node">
<title>Node12</title>
<g id="a_node12"><a xlink:title=" ">
<polygon fill="white" stroke="#bfbfbf" points="267,-123.5 267,-142.5 302,-142.5 302,-123.5 267,-123.5"/>
<text text-anchor="middle" x="284.5" y="-130.5" font-family="Helvetica,sans-Serif" font-size="10.00">map</text>
</a>
</g>
</g>
<!-- Node10&#45;&gt;Node12 -->
<g id="edge12" class="edge">
<title>Node10&#45;&gt;Node12</title>
<path fill="none" stroke="midnightblue" d="M299.53,-179.08C297.12,-171.85 293.64,-161.41 290.63,-152.4"/>
<polygon fill="midnightblue" stroke="midnightblue" points="293.9,-151.13 287.42,-142.75 287.26,-153.34 293.9,-151.13"/>
</g>
<!-- Node14 -->
<g id="node14" class="node">
<title>Node14</title>
<g id="a_node14"><a xlink:title=" ">
<polygon fill="white" stroke="#bfbfbf" points="182,-123.5 182,-142.5 249,-142.5 249,-123.5 182,-123.5"/>
<text text-anchor="middle" x="215.5" y="-130.5" font-family="Helvetica,sans-Serif" font-size="10.00">forward_list</text>
</a>
</g>
</g>
<!-- Node13&#45;&gt;Node14 -->
<g id="edge15" class="edge">
<title>Node13&#45;&gt;Node14</title>
<path fill="none" stroke="midnightblue" d="M147.51,-179.32C160.03,-170.98 179.18,-158.21 193.97,-148.35"/>
<polygon fill="midnightblue" stroke="midnightblue" points="196.14,-151.11 202.52,-142.65 192.26,-145.29 196.14,-151.11"/>
</g>
<!-- Node15 -->
<g id="node15" class="node">
<title>Node15</title>
<g id="a_node15"><a xlink:title=" ">
<polygon fill="white" stroke="#bfbfbf" points="105,-123.5 105,-142.5 164,-142.5 164,-123.5 105,-123.5"/>
<text text-anchor="middle" x="134.5" y="-130.5" font-family="Helvetica,sans-Serif" font-size="10.00">functional</text>
</a>
</g>
</g>
<!-- Node13&#45;&gt;Node15 -->
<g id="edge16" class="edge">
<title>Node13&#45;&gt;Node15</title>
<path fill="none" stroke="midnightblue" d="M134.5,-179.08C134.5,-172.01 134.5,-161.86 134.5,-152.99"/>
<polygon fill="midnightblue" stroke="midnightblue" points="138,-152.75 134.5,-142.75 131,-152.75 138,-152.75"/>
</g>
<!-- Node16 -->
<g id="node16" class="node">
<title>Node16</title>
<g id="a_node16"><a xlink:title=" ">
<polygon fill="white" stroke="#bfbfbf" points="42.5,-123.5 42.5,-142.5 86.5,-142.5 86.5,-123.5 42.5,-123.5"/>
<text text-anchor="middle" x="64.5" y="-130.5" font-family="Helvetica,sans-Serif" font-size="10.00">vector</text>
</a>
</g>
</g>
<!-- Node13&#45;&gt;Node16 -->
<g id="edge17" class="edge">
<title>Node13&#45;&gt;Node16</title>
<path fill="none" stroke="midnightblue" d="M123.25,-179.32C112.7,-171.18 96.7,-158.84 84.06,-149.09"/>
<polygon fill="midnightblue" stroke="midnightblue" points="86.01,-146.17 75.95,-142.83 81.73,-151.71 86.01,-146.17"/>
</g>
<!-- Node18 -->
<g id="node18" class="node">
<title>Node18</title>
<g id="a_node18"><a xlink:title=" ">
<polygon fill="white" stroke="#bfbfbf" points="0,-179.5 0,-198.5 43,-198.5 43,-179.5 0,-179.5"/>
<text text-anchor="middle" x="21.5" y="-186.5" font-family="Helvetica,sans-Serif" font-size="10.00">queue</text>
</a>
</g>
</g>
<!-- Node17&#45;&gt;Node18 -->
<g id="edge19" class="edge">
<title>Node17&#45;&gt;Node18</title>
<path fill="none" stroke="midnightblue" d="M81.09,-235.32C70.39,-227.18 54.16,-214.84 41.34,-205.09"/>
<polygon fill="midnightblue" stroke="midnightblue" points="43.19,-202.1 33.11,-198.83 38.96,-207.67 43.19,-202.1"/>
</g>
<!-- Node19&#45;&gt;Node11 -->
<g id="edge21" class="edge">
<title>Node19&#45;&gt;Node11</title>
<path fill="none" stroke="midnightblue" d="M405.87,-235.37C404.58,-217.62 401.6,-176.67 399.85,-152.6"/>
<polygon fill="midnightblue" stroke="midnightblue" points="403.34,-152.31 399.12,-142.59 396.36,-152.82 403.34,-152.31"/>
</g>
<!-- Node19&#45;&gt;Node13 -->
<g id="edge22" class="edge">
<title>Node19&#45;&gt;Node13</title>
<path fill="none" stroke="midnightblue" d="M363.4,-235.44C315.65,-225.96 238.64,-210.67 187.31,-200.48"/>
<polygon fill="midnightblue" stroke="midnightblue" points="187.89,-197.03 177.4,-198.52 186.52,-203.9 187.89,-197.03"/>
</g>
<!-- Node20 -->
<g id="node20" class="node">
<title>Node20</title>
<g id="a_node20"><a xlink:href="valueconsumer_8h.html" target="_top" xlink:title=" ">
<polygon fill="white" stroke="black" points="434.5,-179.5 434.5,-198.5 524.5,-198.5 524.5,-179.5 434.5,-179.5"/>
<text text-anchor="middle" x="479.5" y="-186.5" font-family="Helvetica,sans-Serif" font-size="10.00">valueconsumer.h</text>
</a>
</g>
</g>
<!-- Node19&#45;&gt;Node20 -->
<g id="edge23" class="edge">
<title>Node19&#45;&gt;Node20</title>
<path fill="none" stroke="midnightblue" d="M418.23,-235.32C429.34,-227.11 446.24,-214.6 459.48,-204.81"/>
<polygon fill="midnightblue" stroke="midnightblue" points="461.6,-207.59 467.56,-198.83 457.44,-201.97 461.6,-207.59"/>
</g>
<!-- Node20&#45;&gt;Node4 -->
<g id="edge26" class="edge">
<title>Node20&#45;&gt;Node4</title>
<path fill="none" stroke="midnightblue" d="M491.55,-179.32C502.96,-171.11 520.33,-158.6 533.93,-148.81"/>
<polygon fill="midnightblue" stroke="midnightblue" points="536.16,-151.52 542.23,-142.83 532.07,-145.84 536.16,-151.52"/>
</g>
<!-- Node20&#45;&gt;Node11 -->
<g id="edge24" class="edge">
<title>Node20&#45;&gt;Node11</title>
<path fill="none" stroke="midnightblue" d="M466.49,-179.32C453.97,-170.98 434.82,-158.21 420.03,-148.35"/>
<polygon fill="midnightblue" stroke="midnightblue" points="421.74,-145.29 411.48,-142.65 417.86,-151.11 421.74,-145.29"/>
</g>
<!-- Node21 -->
<g id="node21" class="node">
<title>Node21</title>
<g id="a_node21"><a xlink:title=" ">
<polygon fill="white" stroke="#bfbfbf" points="456,-123.5 456,-142.5 505,-142.5 505,-123.5 456,-123.5"/>
<text text-anchor="middle" x="480.5" y="-130.5" font-family="Helvetica,sans-Serif" font-size="10.00">stdint.h</text>
</a>
</g>
</g>
<!-- Node20&#45;&gt;Node21 -->
<g id="edge25" class="edge">
<title>Node20&#45;&gt;Node21</title>
<path fill="none" stroke="midnightblue" d="M479.67,-179.08C479.8,-172.01 479.98,-161.86 480.15,-152.99"/>
<polygon fill="midnightblue" stroke="midnightblue" points="483.65,-152.81 480.34,-142.75 476.65,-152.68 483.65,-152.81"/>
</g>
</g>
</svg>
