<?xml version="1.0" encoding="UTF-8" standalone="no"?>
<!DOCTYPE svg PUBLIC "-//W3C//DTD SVG 1.1//EN"
 "http://www.w3.org/Graphics/SVG/1.1/DTD/svg11.dtd">
<!-- Generated by graphviz version 12.1.2 (20240928.0832)
 -->
<!-- Title: src/sensesp/sensors/analog_input.cpp Pages: 1 -->
<!--zoomable 602 -->

<svg id="main" version="1.1" xmlns="http://www.w3.org/2000/svg" xmlns:xlink="http://www.w3.org/1999/xlink" xml:space="preserve" onload="init(evt)">

<style type="text/css"><![CDATA[
.node, .edge {opacity: 0.7;}
.node.selected, .edge.selected {opacity: 1;}
.edge:hover path { stroke: red; }
.edge:hover polygon { stroke: red; fill: red; }
]]></style>

<defs>
  <circle id="rim" cx="0" cy="0" r="7"/>
  <circle id="rim2" cx="0" cy="0" r="3.5"/>
  <g id="zoomPlus">
    <use xlink:href="#rim" fill="#404040"><set attributeName="fill" to="#808080" begin="zoomplus.mouseover" end="zoomplus.mouseout"/></use>
    <path d="M-4,0h8M0,-4v8" fill="none" stroke="white" stroke-width="1.5" pointer-events="none"/>
  </g>
  <g id="zoomMin">
    <use xlink:href="#rim" fill="#404040"><set attributeName="fill" to="#808080" begin="zoomminus.mouseover" end="zoomminus.mouseout"/></use>
    <path d="M-4,0h8" fill="none" stroke="white" stroke-width="1.5" pointer-events="none"/>
  </g>
  <g id="arrowUp" transform="translate(30 24)">
    <use xlink:href="#rim"/>
    <path pointer-events="none" fill="none" stroke="white" stroke-width="1.5" d="M0,-3.0v7 M-2.5,-0.5L0,-3.0L2.5,-0.5"/>
  </g>
  <g id="arrowRight" transform="rotate(90) translate(36 -43)">
    <use xlink:href="#rim"/>
    <path pointer-events="none" fill="none" stroke="white" stroke-width="1.5" d="M0,-3.0v7 M-2.5,-0.5L0,-3.0L2.5,-0.5"/>
  </g>
  <g id="arrowDown" transform="rotate(180) translate(-30 -48)">
    <use xlink:href="#rim"/>
    <path pointer-events="none" fill="none" stroke="white" stroke-width="1.5" d="M0,-3.0v7 M-2.5,-0.5L0,-3.0L2.5,-0.5"/>
  </g>
  <g id="arrowLeft" transform="rotate(270) translate(-36 17)">
    <use xlink:href="#rim"/>
    <path pointer-events="none" fill="none" stroke="white" stroke-width="1.5" d="M0,-3.0v7 M-2.5,-0.5L0,-3.0L2.5,-0.5"/>
  </g>
  <g id="resetDef">
    <use xlink:href="#rim2" fill="#404040"><set attributeName="fill" to="#808080" begin="reset.mouseover" end="reset.mouseout"/></use>
  </g>
</defs>
<script type="application/ecmascript">
var viewWidth = 1166;
var viewHeight = 602;
var sectionId = 'dynsection-0';
</script>
<script type="application/ecmascript" xlink:href="svg.min.js"/>
<svg id="graph" class="graph">
<g id="viewport">
<title>src/sensesp/sensors/analog_input.cpp</title>
<!-- Node1 -->
<g id="Node000001" class="node">
<title>Node1</title>
<g id="a_Node000001"><a xlink:title=" ">
<polygon fill="#999999" stroke="#666666" points="297.38,-594.25 190.62,-594.25 190.62,-563.75 297.38,-563.75 297.38,-594.25"/>
<text text-anchor="start" x="198.62" y="-580.75" font-family="Helvetica,sans-Serif" font-size="10.00">src/sensesp/sensors</text>
<text text-anchor="middle" x="244" y="-569.5" font-family="Helvetica,sans-Serif" font-size="10.00">/analog_input.cpp</text>
</a>
</g>
</g>
<!-- Node2 -->
<g id="Node000002" class="node">
<title>Node2</title>
<g id="a_Node000002"><a xlink:href="sensesp_8h.html" target="_top" xlink:title=" ">
<polygon fill="white" stroke="#666666" points="366.5,-141 305.5,-141 305.5,-121.75 366.5,-121.75 366.5,-141"/>
<text text-anchor="middle" x="336" y="-127.5" font-family="Helvetica,sans-Serif" font-size="10.00">sensesp.h</text>
</a>
</g>
</g>
<!-- Node1&#45;&gt;Node2 -->
<g id="edge1_Node000001_Node000002" class="edge">
<title>Node1&#45;&gt;Node2</title>
<g id="a_edge1_Node000001_Node000002"><a xlink:title=" ">
<path fill="none" stroke="#63b8ff" d="M228.69,-563.33C209.2,-542.99 178,-504.16 178,-463.88 178,-463.88 178,-463.88 178,-296.12 178,-266.51 179.83,-256.38 197,-232.25 225.32,-192.44 274.6,-162.57 306.23,-146.29"/>
<polygon fill="#63b8ff" stroke="#63b8ff" points="307.49,-149.58 314.87,-141.98 304.36,-143.31 307.49,-149.58"/>
</a>
</g>
</g>
<!-- Node7 -->
<g id="Node000007" class="node">
<title>Node7</title>
<g id="a_Node000007"><a xlink:title=" ">
<polygon fill="#e0e0e0" stroke="#999999" points="187.62,-19.25 130.38,-19.25 130.38,0 187.62,0 187.62,-19.25"/>
<text text-anchor="middle" x="159" y="-5.75" font-family="Helvetica,sans-Serif" font-size="10.00">Arduino.h</text>
</a>
</g>
</g>
<!-- Node1&#45;&gt;Node7 -->
<g id="edge55_Node000001_Node000007" class="edge">
<title>Node1&#45;&gt;Node7</title>
<g id="a_edge55_Node000001_Node000007"><a xlink:title=" ">
<path fill="none" stroke="#63b8ff" d="M190.15,-575.88C118.3,-569.84 0,-547.23 0,-463.88 0,-463.88 0,-463.88 0,-130.38 0,-70.71 72.33,-37.05 119.42,-21.47"/>
<polygon fill="#63b8ff" stroke="#63b8ff" points="120.28,-24.86 128.76,-18.52 118.17,-18.19 120.28,-24.86"/>
</a>
</g>
</g>
<!-- Node9 -->
<g id="Node000009" class="node">
<title>Node9</title>
<g id="a_Node000009"><a xlink:href="analog__input_8h.html" target="_top" xlink:title=" ">
<polygon fill="white" stroke="#666666" points="326.5,-527.75 247.5,-527.75 247.5,-508.5 326.5,-508.5 326.5,-527.75"/>
<text text-anchor="middle" x="287" y="-514.25" font-family="Helvetica,sans-Serif" font-size="10.00">analog_input.h</text>
</a>
</g>
</g>
<!-- Node1&#45;&gt;Node9 -->
<g id="edge8_Node000001_Node000009" class="edge">
<title>Node1&#45;&gt;Node9</title>
<g id="a_edge8_Node000001_Node000009"><a xlink:title=" ">
<path fill="none" stroke="#63b8ff" d="M254.63,-563.45C260.36,-555.6 267.48,-545.85 273.59,-537.49"/>
<polygon fill="#63b8ff" stroke="#63b8ff" points="276.41,-539.56 279.48,-529.42 270.75,-535.43 276.41,-539.56"/>
</a>
</g>
</g>
<!-- Node26 -->
<g id="Node000026" class="node">
<title>Node26</title>
<g id="a_Node000026"><a xlink:href="sensesp__base__app_8h.html" target="_top" xlink:title=" ">
<polygon fill="white" stroke="#666666" points="955.12,-417.25 846.88,-417.25 846.88,-398 955.12,-398 955.12,-417.25"/>
<text text-anchor="middle" x="901" y="-403.75" font-family="Helvetica,sans-Serif" font-size="10.00">sensesp_base_app.h</text>
</a>
</g>
</g>
<!-- Node1&#45;&gt;Node26 -->
<g id="edge56_Node000001_Node000026" class="edge">
<title>Node1&#45;&gt;Node26</title>
<g id="a_edge56_Node000001_Node000026"><a xlink:title=" ">
<path fill="none" stroke="#63b8ff" d="M297.69,-571.76C394.03,-559.57 601.8,-528.74 769,-472.5 807.81,-459.44 849.96,-437.58 875.93,-423.13"/>
<polygon fill="#63b8ff" stroke="#63b8ff" points="877.39,-426.33 884.37,-418.36 873.95,-420.23 877.39,-426.33"/>
</a>
</g>
</g>
<!-- Node3 -->
<g id="Node000003" class="node">
<title>Node3</title>
<g id="a_Node000003"><a xlink:title=" ">
<polygon fill="#e0e0e0" stroke="#999999" points="313.62,-80.12 244.38,-80.12 244.38,-60.88 313.62,-60.88 313.62,-80.12"/>
<text text-anchor="middle" x="279" y="-66.62" font-family="Helvetica,sans-Serif" font-size="10.00">ReactESP.h</text>
</a>
</g>
</g>
<!-- Node2&#45;&gt;Node3 -->
<g id="edge2_Node000002_Node000003" class="edge">
<title>Node2&#45;&gt;Node3</title>
<g id="a_edge2_Node000002_Node000003"><a xlink:title=" ">
<path fill="none" stroke="#63b8ff" d="M327.34,-121.43C318.97,-112.79 306.07,-99.46 295.7,-88.75"/>
<polygon fill="#63b8ff" stroke="#63b8ff" points="298.26,-86.36 288.79,-81.61 293.23,-91.23 298.26,-86.36"/>
</a>
</g>
</g>
<!-- Node4 -->
<g id="Node000004" class="node">
<title>Node4</title>
<g id="a_Node000004"><a xlink:title=" ">
<polygon fill="#e0e0e0" stroke="#999999" points="945.62,-80.12 894.38,-80.12 894.38,-60.88 945.62,-60.88 945.62,-80.12"/>
<text text-anchor="middle" x="920" y="-66.62" font-family="Helvetica,sans-Serif" font-size="10.00">memory</text>
</a>
</g>
</g>
<!-- Node2&#45;&gt;Node4 -->
<g id="edge3_Node000002_Node000004" class="edge">
<title>Node2&#45;&gt;Node4</title>
<g id="a_edge3_Node000002_Node000004"><a xlink:title=" ">
<path fill="none" stroke="#63b8ff" d="M366.79,-125.21C374.67,-123.98 383.14,-122.74 391,-121.75 575.02,-98.6 796.26,-80.82 882.77,-74.25"/>
<polygon fill="#63b8ff" stroke="#63b8ff" points="882.85,-77.76 892.56,-73.51 882.32,-70.78 882.85,-77.76"/>
</a>
</g>
</g>
<!-- Node5 -->
<g id="Node000005" class="node">
<title>Node5</title>
<g id="a_Node000005"><a xlink:href="local__debug_8h.html" target="_top" xlink:title=" ">
<polygon fill="white" stroke="#666666" points="442.62,-85.75 331.38,-85.75 331.38,-55.25 442.62,-55.25 442.62,-85.75"/>
<text text-anchor="start" x="339.38" y="-72.25" font-family="Helvetica,sans-Serif" font-size="10.00">sensesp/system/local</text>
<text text-anchor="middle" x="387" y="-61" font-family="Helvetica,sans-Serif" font-size="10.00">_debug.h</text>
</a>
</g>
</g>
<!-- Node2&#45;&gt;Node5 -->
<g id="edge4_Node000002_Node000005" class="edge">
<title>Node2&#45;&gt;Node5</title>
<g id="a_edge4_Node000002_Node000005"><a xlink:title=" ">
<path fill="none" stroke="#63b8ff" d="M343.75,-121.43C349.91,-114.31 358.83,-104.02 366.96,-94.63"/>
<polygon fill="#63b8ff" stroke="#63b8ff" points="369.52,-97.03 373.42,-87.18 364.23,-92.44 369.52,-97.03"/>
</a>
</g>
</g>
<!-- Node6 -->
<g id="Node000006" class="node">
<title>Node6</title>
<g id="a_Node000006"><a xlink:title=" ">
<polygon fill="#e0e0e0" stroke="#999999" points="387,-19.25 305,-19.25 305,0 387,0 387,-19.25"/>
<text text-anchor="middle" x="346" y="-5.75" font-family="Helvetica,sans-Serif" font-size="10.00">esp32&#45;hal&#45;log.h</text>
</a>
</g>
</g>
<!-- Node5&#45;&gt;Node6 -->
<g id="edge5_Node000005_Node000006" class="edge">
<title>Node5&#45;&gt;Node6</title>
<g id="a_edge5_Node000005_Node000006"><a xlink:title=" ">
<path fill="none" stroke="#63b8ff" d="M376.87,-54.95C371.4,-47.1 364.61,-37.35 358.79,-28.99"/>
<polygon fill="#63b8ff" stroke="#63b8ff" points="361.77,-27.15 353.19,-20.94 356.03,-31.15 361.77,-27.15"/>
</a>
</g>
</g>
<!-- Node5&#45;&gt;Node7 -->
<g id="edge6_Node000005_Node000007" class="edge">
<title>Node5&#45;&gt;Node7</title>
<g id="a_edge6_Node000005_Node000007"><a xlink:title=" ">
<path fill="none" stroke="#63b8ff" d="M330.93,-55.02C289.95,-44.44 235.35,-30.34 198.78,-20.9"/>
<polygon fill="#63b8ff" stroke="#63b8ff" points="200.07,-17.62 189.51,-18.5 198.32,-24.39 200.07,-17.62"/>
</a>
</g>
</g>
<!-- Node8 -->
<g id="Node000008" class="node">
<title>Node8</title>
<g id="a_Node000008"><a xlink:title=" ">
<polygon fill="#e0e0e0" stroke="#999999" points="449.25,-19.25 404.75,-19.25 404.75,0 449.25,0 449.25,-19.25"/>
<text text-anchor="middle" x="427" y="-5.75" font-family="Helvetica,sans-Serif" font-size="10.00">Print.h</text>
</a>
</g>
</g>
<!-- Node5&#45;&gt;Node8 -->
<g id="edge7_Node000005_Node000008" class="edge">
<title>Node5&#45;&gt;Node8</title>
<g id="a_edge7_Node000005_Node000008"><a xlink:title=" ">
<path fill="none" stroke="#63b8ff" d="M396.89,-54.95C402.22,-47.1 408.85,-37.35 414.53,-28.99"/>
<polygon fill="#63b8ff" stroke="#63b8ff" points="417.26,-31.19 419.98,-20.95 411.47,-27.26 417.26,-31.19"/>
</a>
</g>
</g>
<!-- Node9&#45;&gt;Node4 -->
<g id="edge9_Node000009_Node000004" class="edge">
<title>Node9&#45;&gt;Node4</title>
<g id="a_edge9_Node000009_Node000004"><a xlink:title=" ">
<path fill="none" stroke="#63b8ff" d="M326.98,-516.41C497.82,-512.84 1158,-493.53 1158,-408.62 1158,-408.62 1158,-408.62 1158,-185.62 1158,-97.65 1024.16,-77.44 957.22,-72.84"/>
<polygon fill="#63b8ff" stroke="#63b8ff" points="957.62,-69.36 947.43,-72.25 957.21,-76.34 957.62,-69.36"/>
</a>
</g>
</g>
<!-- Node10 -->
<g id="Node000010" class="node">
<title>Node10</title>
<g id="a_Node000010"><a xlink:href="analog__reader_8h.html" target="_top" xlink:title=" ">
<polygon fill="white" stroke="#666666" points="112.12,-196.25 27.88,-196.25 27.88,-177 112.12,-177 112.12,-196.25"/>
<text text-anchor="middle" x="70" y="-182.75" font-family="Helvetica,sans-Serif" font-size="10.00">analog_reader.h</text>
</a>
</g>
</g>
<!-- Node9&#45;&gt;Node10 -->
<g id="edge10_Node000009_Node000010" class="edge">
<title>Node9&#45;&gt;Node10</title>
<g id="a_edge10_Node000009_Node000010"><a xlink:title=" ">
<path fill="none" stroke="#63b8ff" d="M281.2,-508.31C252.2,-464.29 122.84,-267.87 82.24,-206.21"/>
<polygon fill="#63b8ff" stroke="#63b8ff" points="85.18,-204.31 76.76,-197.88 79.33,-208.16 85.18,-204.31"/>
</a>
</g>
</g>
<!-- Node11 -->
<g id="Node000011" class="node">
<title>Node11</title>
<g id="a_Node000011"><a xlink:href="config__item_8h.html" target="_top" xlink:title=" ">
<polygon fill="white" stroke="#666666" points="515.38,-306.75 390.62,-306.75 390.62,-287.5 515.38,-287.5 515.38,-306.75"/>
<text text-anchor="middle" x="453" y="-293.25" font-family="Helvetica,sans-Serif" font-size="10.00">sensesp/ui/config_item.h</text>
</a>
</g>
</g>
<!-- Node9&#45;&gt;Node11 -->
<g id="edge13_Node000009_Node000011" class="edge">
<title>Node9&#45;&gt;Node11</title>
<g id="a_edge13_Node000009_Node000011"><a xlink:title=" ">
<path fill="none" stroke="#63b8ff" d="M291.33,-508.07C304.56,-480.99 346.61,-399.01 397,-342.75 406.78,-331.83 419.43,-321.5 430.23,-313.54"/>
<polygon fill="#63b8ff" stroke="#63b8ff" points="432.15,-316.47 438.26,-307.82 428.09,-310.77 432.15,-316.47"/>
</a>
</g>
</g>
<!-- Node18 -->
<g id="Node000018" class="node">
<title>Node18</title>
<g id="a_Node000018"><a xlink:href="sensor_8h.html" target="_top" xlink:title=" ">
<polygon fill="white" stroke="#666666" points="760.38,-472.5 707.62,-472.5 707.62,-453.25 760.38,-453.25 760.38,-472.5"/>
<text text-anchor="middle" x="734" y="-459" font-family="Helvetica,sans-Serif" font-size="10.00">sensor.h</text>
</a>
</g>
</g>
<!-- Node9&#45;&gt;Node18 -->
<g id="edge28_Node000009_Node000018" class="edge">
<title>Node9&#45;&gt;Node18</title>
<g id="a_edge28_Node000009_Node000018"><a xlink:title=" ">
<path fill="none" stroke="#63b8ff" d="M326.67,-512.4C411.98,-502.24 611.97,-478.41 695.88,-468.42"/>
<polygon fill="#63b8ff" stroke="#63b8ff" points="696.14,-471.91 705.65,-467.25 695.31,-464.96 696.14,-471.91"/>
</a>
</g>
</g>
<!-- Node10&#45;&gt;Node2 -->
<g id="edge11_Node000010_Node000002" class="edge">
<title>Node10&#45;&gt;Node2</title>
<g id="a_edge11_Node000010_Node000002"><a xlink:title=" ">
<path fill="none" stroke="#63b8ff" d="M112.44,-177.13C162.28,-167.15 244.42,-150.71 294.04,-140.77"/>
<polygon fill="#63b8ff" stroke="#63b8ff" points="294.72,-144.21 303.83,-138.81 293.34,-137.35 294.72,-144.21"/>
</a>
</g>
</g>
<!-- Node10&#45;&gt;Node7 -->
<g id="edge12_Node000010_Node000007" class="edge">
<title>Node10&#45;&gt;Node7</title>
<g id="a_edge12_Node000010_Node000007"><a xlink:title=" ">
<path fill="none" stroke="#63b8ff" d="M73.01,-176.75C80.48,-155.19 101.1,-98.62 126,-55.25 131.33,-45.97 138.25,-36.34 144.37,-28.41"/>
<polygon fill="#63b8ff" stroke="#63b8ff" points="147.09,-30.62 150.58,-20.62 141.61,-26.26 147.09,-30.62"/>
</a>
</g>
</g>
<!-- Node11&#45;&gt;Node4 -->
<g id="edge15_Node000011_Node000004" class="edge">
<title>Node11&#45;&gt;Node4</title>
<g id="a_edge15_Node000011_Node000004"><a xlink:title=" ">
<path fill="none" stroke="#63b8ff" d="M479.07,-287.09C525.12,-270.84 623.49,-234.75 703,-196.25 775.55,-161.12 856.89,-111.4 896.2,-86.68"/>
<polygon fill="#63b8ff" stroke="#63b8ff" points="898.04,-89.65 904.63,-81.35 894.3,-83.74 898.04,-89.65"/>
</a>
</g>
</g>
<!-- Node11&#45;&gt;Node7 -->
<g id="edge18_Node000011_Node000007" class="edge">
<title>Node11&#45;&gt;Node7</title>
<g id="a_edge18_Node000011_Node000007"><a xlink:title=" ">
<path fill="none" stroke="#63b8ff" d="M390.25,-296.51C335.95,-294.31 256.93,-284.82 197,-251.5 163.74,-233.01 140,-225.67 140,-187.62 140,-187.62 140,-187.62 140,-130.38 140,-94.87 148.25,-54.16 153.88,-30.52"/>
<polygon fill="#63b8ff" stroke="#63b8ff" points="157.22,-31.58 156.23,-21.03 150.43,-29.89 157.22,-31.58"/>
</a>
</g>
</g>
<!-- Node12 -->
<g id="Node000012" class="node">
<title>Node12</title>
<g id="a_Node000012"><a xlink:title=" ">
<polygon fill="#e0e0e0" stroke="#999999" points="463.38,-251.5 428.62,-251.5 428.62,-232.25 463.38,-232.25 463.38,-251.5"/>
<text text-anchor="middle" x="446" y="-238" font-family="Helvetica,sans-Serif" font-size="10.00">map</text>
</a>
</g>
</g>
<!-- Node11&#45;&gt;Node12 -->
<g id="edge14_Node000011_Node000012" class="edge">
<title>Node11&#45;&gt;Node12</title>
<g id="a_edge14_Node000011_Node000012"><a xlink:title=" ">
<path fill="none" stroke="#63b8ff" d="M451.84,-287.33C450.98,-280.74 449.76,-271.46 448.66,-263.07"/>
<polygon fill="#63b8ff" stroke="#63b8ff" points="452.15,-262.82 447.38,-253.36 445.21,-263.73 452.15,-262.82"/>
</a>
</g>
</g>
<!-- Node13 -->
<g id="Node000013" class="node">
<title>Node13</title>
<g id="a_Node000013"><a xlink:title=" ">
<polygon fill="#e0e0e0" stroke="#999999" points="693.5,-196.25 650.5,-196.25 650.5,-177 693.5,-177 693.5,-196.25"/>
<text text-anchor="middle" x="672" y="-182.75" font-family="Helvetica,sans-Serif" font-size="10.00">vector</text>
</a>
</g>
</g>
<!-- Node11&#45;&gt;Node13 -->
<g id="edge16_Node000011_Node000013" class="edge">
<title>Node11&#45;&gt;Node13</title>
<g id="a_edge16_Node000011_Node000013"><a xlink:title=" ">
<path fill="none" stroke="#63b8ff" d="M465.13,-287.18C483.47,-273.95 519.65,-248.92 553,-232.25 581.28,-218.11 615.19,-205.82 639.56,-197.73"/>
<polygon fill="#63b8ff" stroke="#63b8ff" points="640.5,-201.11 648.93,-194.69 638.33,-194.45 640.5,-201.11"/>
</a>
</g>
</g>
<!-- Node14 -->
<g id="Node000014" class="node">
<title>Node14</title>
<g id="a_Node000014"><a xlink:title=" ">
<polygon fill="#e0e0e0" stroke="#999999" points="410.12,-251.5 361.88,-251.5 361.88,-232.25 410.12,-232.25 410.12,-251.5"/>
<text text-anchor="middle" x="386" y="-238" font-family="Helvetica,sans-Serif" font-size="10.00">cstddef</text>
</a>
</g>
</g>
<!-- Node11&#45;&gt;Node14 -->
<g id="edge17_Node000011_Node000014" class="edge">
<title>Node11&#45;&gt;Node14</title>
<g id="a_edge17_Node000011_Node000014"><a xlink:title=" ">
<path fill="none" stroke="#63b8ff" d="M441.63,-287.09C431.95,-279.4 417.8,-268.15 406.19,-258.93"/>
<polygon fill="#63b8ff" stroke="#63b8ff" points="408.39,-256.2 398.38,-252.72 404.03,-261.68 408.39,-256.2"/>
</a>
</g>
</g>
<!-- Node15 -->
<g id="Node000015" class="node">
<title>Node15</title>
<g id="a_Node000015"><a xlink:title=" ">
<polygon fill="#e0e0e0" stroke="#999999" points="478.12,-141 399.88,-141 399.88,-121.75 478.12,-121.75 478.12,-141"/>
<text text-anchor="middle" x="439" y="-127.5" font-family="Helvetica,sans-Serif" font-size="10.00">ArduinoJson.h</text>
</a>
</g>
</g>
<!-- Node11&#45;&gt;Node15 -->
<g id="edge19_Node000011_Node000015" class="edge">
<title>Node11&#45;&gt;Node15</title>
<g id="a_edge19_Node000011_Node000015"><a xlink:title=" ">
<path fill="none" stroke="#63b8ff" d="M458.05,-287.24C462.73,-278.48 469.34,-264.54 472,-251.5 479.34,-215.54 462.14,-174.46 449.92,-151.15"/>
<polygon fill="#63b8ff" stroke="#63b8ff" points="453.08,-149.63 445.18,-142.56 446.95,-153.01 453.08,-149.63"/>
</a>
</g>
</g>
<!-- Node16 -->
<g id="Node000016" class="node">
<title>Node16</title>
<g id="a_Node000016"><a xlink:href="saveable_8h.html" target="_top" xlink:title=" ">
<polygon fill="white" stroke="#666666" points="344.12,-251.5 205.88,-251.5 205.88,-232.25 344.12,-232.25 344.12,-251.5"/>
<text text-anchor="middle" x="275" y="-238" font-family="Helvetica,sans-Serif" font-size="10.00">sensesp/system/saveable.h</text>
</a>
</g>
</g>
<!-- Node11&#45;&gt;Node16 -->
<g id="edge20_Node000011_Node000016" class="edge">
<title>Node11&#45;&gt;Node16</title>
<g id="a_edge20_Node000011_Node000016"><a xlink:title=" ">
<path fill="none" stroke="#63b8ff" d="M422.8,-287.09C393.52,-278.33 348.88,-264.98 316.31,-255.23"/>
<polygon fill="#63b8ff" stroke="#63b8ff" points="317.38,-251.9 306.79,-252.39 315.37,-258.61 317.38,-251.9"/>
</a>
</g>
</g>
<!-- Node16&#45;&gt;Node2 -->
<g id="edge21_Node000016_Node000002" class="edge">
<title>Node16&#45;&gt;Node2</title>
<g id="a_edge21_Node000016_Node000002"><a xlink:title=" ">
<path fill="none" stroke="#63b8ff" d="M275.7,-232.06C277.05,-219.2 280.82,-194.88 291,-177 297.14,-166.21 306.61,-156.27 315.28,-148.52"/>
<polygon fill="#63b8ff" stroke="#63b8ff" points="317.3,-151.39 322.69,-142.27 312.79,-146.03 317.3,-151.39"/>
</a>
</g>
</g>
<!-- Node16&#45;&gt;Node7 -->
<g id="edge23_Node000016_Node000007" class="edge">
<title>Node16&#45;&gt;Node7</title>
<g id="a_edge23_Node000016_Node000007"><a xlink:title=" ">
<path fill="none" stroke="#63b8ff" d="M270.45,-231.85C253.27,-197.74 192.09,-76.3 168.43,-29.35"/>
<polygon fill="#63b8ff" stroke="#63b8ff" points="171.7,-28.05 164.07,-20.69 165.45,-31.2 171.7,-28.05"/>
</a>
</g>
</g>
<!-- Node16&#45;&gt;Node15 -->
<g id="edge22_Node000016_Node000015" class="edge">
<title>Node16&#45;&gt;Node15</title>
<g id="a_edge22_Node000016_Node000015"><a xlink:title=" ">
<path fill="none" stroke="#63b8ff" d="M306.86,-231.76C329.2,-224.41 359.04,-212.59 382,-196.25 399.73,-183.63 415.83,-164.54 426.36,-150.52"/>
<polygon fill="#63b8ff" stroke="#63b8ff" points="429.07,-152.75 432.1,-142.59 423.4,-148.64 429.07,-152.75"/>
</a>
</g>
</g>
<!-- Node17 -->
<g id="Node000017" class="node">
<title>Node17</title>
<g id="a_Node000017"><a xlink:href="serializable_8h.html" target="_top" xlink:title=" ">
<polygon fill="white" stroke="#666666" points="372.5,-196.25 299.5,-196.25 299.5,-177 372.5,-177 372.5,-196.25"/>
<text text-anchor="middle" x="336" y="-182.75" font-family="Helvetica,sans-Serif" font-size="10.00">serializable.h</text>
</a>
</g>
</g>
<!-- Node16&#45;&gt;Node17 -->
<g id="edge24_Node000016_Node000017" class="edge">
<title>Node16&#45;&gt;Node17</title>
<g id="a_edge24_Node000016_Node000017"><a xlink:title=" ">
<path fill="none" stroke="#63b8ff" d="M285.35,-231.84C294.08,-224.22 306.79,-213.12 317.3,-203.95"/>
<polygon fill="#63b8ff" stroke="#63b8ff" points="319.43,-206.73 324.66,-197.52 314.83,-201.46 319.43,-206.73"/>
</a>
</g>
</g>
<!-- Node17&#45;&gt;Node2 -->
<g id="edge25_Node000017_Node000002" class="edge">
<title>Node17&#45;&gt;Node2</title>
<g id="a_edge25_Node000017_Node000002"><a xlink:title=" ">
<path fill="none" stroke="#63b8ff" d="M336,-176.83C336,-170.32 336,-161.17 336,-152.87"/>
<polygon fill="#63b8ff" stroke="#63b8ff" points="339.5,-152.87 336,-142.87 332.5,-152.87 339.5,-152.87"/>
</a>
</g>
</g>
<!-- Node17&#45;&gt;Node7 -->
<g id="edge27_Node000017_Node000007" class="edge">
<title>Node17&#45;&gt;Node7</title>
<g id="a_edge27_Node000017_Node000007"><a xlink:title=" ">
<path fill="none" stroke="#63b8ff" d="M326.98,-176.71C298.94,-148.98 212.95,-63.97 176.08,-27.51"/>
<polygon fill="#63b8ff" stroke="#63b8ff" points="178.86,-25.34 169.29,-20.8 173.94,-30.32 178.86,-25.34"/>
</a>
</g>
</g>
<!-- Node17&#45;&gt;Node15 -->
<g id="edge26_Node000017_Node000015" class="edge">
<title>Node17&#45;&gt;Node15</title>
<g id="a_edge26_Node000017_Node000015"><a xlink:title=" ">
<path fill="none" stroke="#63b8ff" d="M353.47,-176.59C369.31,-168.41 392.91,-156.21 411.31,-146.69"/>
<polygon fill="#63b8ff" stroke="#63b8ff" points="412.82,-149.85 420.1,-142.15 409.61,-143.63 412.82,-149.85"/>
</a>
</g>
</g>
<!-- Node18&#45;&gt;Node16 -->
<g id="edge30_Node000018_Node000016" class="edge">
<title>Node18&#45;&gt;Node16</title>
<g id="a_edge30_Node000018_Node000016"><a xlink:title=" ">
<path fill="none" stroke="#63b8ff" d="M707.34,-458.43C648,-449.86 501.99,-423.63 397,-362 350.82,-334.89 308.99,-286.62 288.42,-260.62"/>
<polygon fill="#63b8ff" stroke="#63b8ff" points="291.43,-258.79 282.54,-253.04 285.9,-263.08 291.43,-258.79"/>
</a>
</g>
</g>
<!-- Node19 -->
<g id="Node000019" class="node">
<title>Node19</title>
<g id="a_Node000019"><a xlink:title=" ">
<polygon fill="#e0e0e0" stroke="#999999" points="769.75,-417.25 740.25,-417.25 740.25,-398 769.75,-398 769.75,-417.25"/>
<text text-anchor="middle" x="755" y="-403.75" font-family="Helvetica,sans-Serif" font-size="10.00">set</text>
</a>
</g>
</g>
<!-- Node18&#45;&gt;Node19 -->
<g id="edge29_Node000018_Node000019" class="edge">
<title>Node18&#45;&gt;Node19</title>
<g id="a_edge29_Node000018_Node000019"><a xlink:title=" ">
<path fill="none" stroke="#63b8ff" d="M737.47,-453.08C740.13,-446.34 743.9,-436.77 747.26,-428.24"/>
<polygon fill="#63b8ff" stroke="#63b8ff" points="750.49,-429.6 750.9,-419.02 743.98,-427.04 750.49,-429.6"/>
</a>
</g>
</g>
<!-- Node20 -->
<g id="Node000020" class="node">
<title>Node20</title>
<g id="a_Node000020"><a xlink:href="observable_8h.html" target="_top" xlink:title=" ">
<polygon fill="white" stroke="#666666" points="856.25,-251.5 709.75,-251.5 709.75,-232.25 856.25,-232.25 856.25,-251.5"/>
<text text-anchor="middle" x="783" y="-238" font-family="Helvetica,sans-Serif" font-size="10.00">sensesp/system/observable.h</text>
</a>
</g>
</g>
<!-- Node18&#45;&gt;Node20 -->
<g id="edge31_Node000018_Node000020" class="edge">
<title>Node18&#45;&gt;Node20</title>
<g id="a_edge31_Node000018_Node000020"><a xlink:title=" ">
<path fill="none" stroke="#63b8ff" d="M746.33,-453.06C756.7,-444.95 771.08,-431.98 779,-417.25 806.68,-365.73 812.14,-344.92 801,-287.5 799.33,-278.9 796.01,-269.85 792.66,-262.17"/>
<polygon fill="#63b8ff" stroke="#63b8ff" points="795.85,-260.72 788.43,-253.16 789.52,-263.7 795.85,-260.72"/>
</a>
</g>
</g>
<!-- Node23 -->
<g id="Node000023" class="node">
<title>Node23</title>
<g id="a_Node000023"><a xlink:href="valueproducer_8h.html" target="_top" xlink:title=" ">
<polygon fill="white" stroke="#666666" points="791.62,-306.75 632.38,-306.75 632.38,-287.5 791.62,-287.5 791.62,-306.75"/>
<text text-anchor="middle" x="712" y="-293.25" font-family="Helvetica,sans-Serif" font-size="10.00">sensesp/system/valueproducer.h</text>
</a>
</g>
</g>
<!-- Node18&#45;&gt;Node23 -->
<g id="edge35_Node000018_Node000023" class="edge">
<title>Node18&#45;&gt;Node23</title>
<g id="a_edge35_Node000018_Node000023"><a xlink:title=" ">
<path fill="none" stroke="#63b8ff" d="M732.82,-453.07C729.42,-427.75 719.54,-354.25 714.72,-318.34"/>
<polygon fill="#63b8ff" stroke="#63b8ff" points="718.19,-317.92 713.39,-308.47 711.25,-318.85 718.19,-317.92"/>
</a>
</g>
</g>
<!-- Node18&#45;&gt;Node26 -->
<g id="edge43_Node000018_Node000026" class="edge">
<title>Node18&#45;&gt;Node26</title>
<g id="a_edge43_Node000018_Node000026"><a xlink:title=" ">
<path fill="none" stroke="#63b8ff" d="M760.83,-453.32C788.09,-444.63 830.62,-431.07 861.68,-421.16"/>
<polygon fill="#63b8ff" stroke="#63b8ff" points="862.65,-424.53 871.12,-418.15 860.53,-417.86 862.65,-424.53"/>
</a>
</g>
</g>
<!-- Node20&#45;&gt;Node13 -->
<g id="edge34_Node000020_Node000013" class="edge">
<title>Node20&#45;&gt;Node13</title>
<g id="a_edge34_Node000020_Node000013"><a xlink:title=" ">
<path fill="none" stroke="#63b8ff" d="M764.17,-231.84C746.95,-223.58 721.2,-211.23 701.29,-201.68"/>
<polygon fill="#63b8ff" stroke="#63b8ff" points="702.82,-198.53 692.29,-197.36 699.79,-204.84 702.82,-198.53"/>
</a>
</g>
</g>
<!-- Node21 -->
<g id="Node000021" class="node">
<title>Node21</title>
<g id="a_Node000021"><a xlink:title=" ">
<polygon fill="#e0e0e0" stroke="#999999" points="816.12,-196.25 749.88,-196.25 749.88,-177 816.12,-177 816.12,-196.25"/>
<text text-anchor="middle" x="783" y="-182.75" font-family="Helvetica,sans-Serif" font-size="10.00">forward_list</text>
</a>
</g>
</g>
<!-- Node20&#45;&gt;Node21 -->
<g id="edge32_Node000020_Node000021" class="edge">
<title>Node20&#45;&gt;Node21</title>
<g id="a_edge32_Node000020_Node000021"><a xlink:title=" ">
<path fill="none" stroke="#63b8ff" d="M783,-232.08C783,-225.57 783,-216.42 783,-208.12"/>
<polygon fill="#63b8ff" stroke="#63b8ff" points="786.5,-208.12 783,-198.12 779.5,-208.12 786.5,-208.12"/>
</a>
</g>
</g>
<!-- Node22 -->
<g id="Node000022" class="node">
<title>Node22</title>
<g id="a_Node000022"><a xlink:title=" ">
<polygon fill="#e0e0e0" stroke="#999999" points="892,-196.25 834,-196.25 834,-177 892,-177 892,-196.25"/>
<text text-anchor="middle" x="863" y="-182.75" font-family="Helvetica,sans-Serif" font-size="10.00">functional</text>
</a>
</g>
</g>
<!-- Node20&#45;&gt;Node22 -->
<g id="edge33_Node000020_Node000022" class="edge">
<title>Node20&#45;&gt;Node22</title>
<g id="a_edge33_Node000020_Node000022"><a xlink:title=" ">
<path fill="none" stroke="#63b8ff" d="M796.57,-231.84C808.41,-223.96 825.84,-212.36 839.87,-203.02"/>
<polygon fill="#63b8ff" stroke="#63b8ff" points="841.72,-206 848.1,-197.54 837.84,-200.17 841.72,-206"/>
</a>
</g>
</g>
<!-- Node23&#45;&gt;Node4 -->
<g id="edge37_Node000023_Node000004" class="edge">
<title>Node23&#45;&gt;Node4</title>
<g id="a_edge37_Node000023_Node000004"><a xlink:title=" ">
<path fill="none" stroke="#63b8ff" d="M779.92,-287.01C808.3,-280.63 840.34,-269.81 865,-251.5 915.81,-213.79 921.22,-130.14 920.84,-91.63"/>
<polygon fill="#63b8ff" stroke="#63b8ff" points="924.35,-91.65 920.58,-81.74 917.35,-91.83 924.35,-91.65"/>
</a>
</g>
</g>
<!-- Node23&#45;&gt;Node15 -->
<g id="edge36_Node000023_Node000015" class="edge">
<title>Node23&#45;&gt;Node15</title>
<g id="a_edge36_Node000023_Node000015"><a xlink:title=" ">
<path fill="none" stroke="#63b8ff" d="M700.45,-287.06C683.34,-273.89 649.92,-249.19 619,-232.25 583.02,-212.54 570.08,-215.79 534,-196.25 507.33,-181.81 478.71,-161.89 459.93,-148.16"/>
<polygon fill="#63b8ff" stroke="#63b8ff" points="462.17,-145.46 452.05,-142.32 458,-151.08 462.17,-145.46"/>
</a>
</g>
</g>
<!-- Node23&#45;&gt;Node20 -->
<g id="edge38_Node000023_Node000020" class="edge">
<title>Node23&#45;&gt;Node20</title>
<g id="a_edge38_Node000023_Node000020"><a xlink:title=" ">
<path fill="none" stroke="#63b8ff" d="M724.04,-287.09C734.41,-279.32 749.6,-267.92 761.97,-258.65"/>
<polygon fill="#63b8ff" stroke="#63b8ff" points="764.02,-261.48 769.92,-252.68 759.82,-255.88 764.02,-261.48"/>
</a>
</g>
</g>
<!-- Node24 -->
<g id="Node000024" class="node">
<title>Node24</title>
<g id="a_Node000024"><a xlink:href="valueconsumer_8h.html" target="_top" xlink:title=" ">
<polygon fill="white" stroke="#666666" points="632.75,-196.25 543.25,-196.25 543.25,-177 632.75,-177 632.75,-196.25"/>
<text text-anchor="middle" x="588" y="-182.75" font-family="Helvetica,sans-Serif" font-size="10.00">valueconsumer.h</text>
</a>
</g>
</g>
<!-- Node23&#45;&gt;Node24 -->
<g id="edge39_Node000023_Node000024" class="edge">
<title>Node23&#45;&gt;Node24</title>
<g id="a_edge39_Node000023_Node000024"><a xlink:title=" ">
<path fill="none" stroke="#63b8ff" d="M705.59,-287.16C695.98,-274.11 676.86,-249.56 657,-232.25 643.97,-220.89 627.83,-210.3 614.43,-202.28"/>
<polygon fill="#63b8ff" stroke="#63b8ff" points="616.53,-199.45 606.13,-197.44 613.01,-205.5 616.53,-199.45"/>
</a>
</g>
</g>
<!-- Node24&#45;&gt;Node2 -->
<g id="edge40_Node000024_Node000002" class="edge">
<title>Node24&#45;&gt;Node2</title>
<g id="a_edge40_Node000024_Node000002"><a xlink:title=" ">
<path fill="none" stroke="#63b8ff" d="M544.97,-176.53C498.31,-166.67 424.34,-151.04 378.07,-141.26"/>
<polygon fill="#63b8ff" stroke="#63b8ff" points="378.92,-137.87 368.42,-139.22 377.48,-144.72 378.92,-137.87"/>
</a>
</g>
</g>
<!-- Node24&#45;&gt;Node15 -->
<g id="edge41_Node000024_Node000015" class="edge">
<title>Node24&#45;&gt;Node15</title>
<g id="a_edge41_Node000024_Node000015"><a xlink:title=" ">
<path fill="none" stroke="#63b8ff" d="M562.72,-176.59C538.64,-167.99 502.14,-154.94 475.02,-145.25"/>
<polygon fill="#63b8ff" stroke="#63b8ff" points="476.42,-142.03 465.83,-141.96 474.06,-148.62 476.42,-142.03"/>
</a>
</g>
</g>
<!-- Node25 -->
<g id="Node000025" class="node">
<title>Node25</title>
<g id="a_Node000025"><a xlink:title=" ">
<polygon fill="#e0e0e0" stroke="#999999" points="612.12,-141 563.88,-141 563.88,-121.75 612.12,-121.75 612.12,-141"/>
<text text-anchor="middle" x="588" y="-127.5" font-family="Helvetica,sans-Serif" font-size="10.00">stdint.h</text>
</a>
</g>
</g>
<!-- Node24&#45;&gt;Node25 -->
<g id="edge42_Node000024_Node000025" class="edge">
<title>Node24&#45;&gt;Node25</title>
<g id="a_edge42_Node000024_Node000025"><a xlink:title=" ">
<path fill="none" stroke="#63b8ff" d="M588,-176.83C588,-170.32 588,-161.17 588,-152.87"/>
<polygon fill="#63b8ff" stroke="#63b8ff" points="591.5,-152.87 588,-142.87 584.5,-152.87 591.5,-152.87"/>
</a>
</g>
</g>
<!-- Node26&#45;&gt;Node2 -->
<g id="edge44_Node000026_Node000002" class="edge">
<title>Node26&#45;&gt;Node2</title>
<g id="a_edge44_Node000026_Node000002"><a xlink:title=" ">
<path fill="none" stroke="#63b8ff" d="M869.32,-397.52C816.83,-381.95 709.08,-347.85 623,-306.75 519.08,-257.14 404.68,-180.28 357.83,-147.75"/>
<polygon fill="#63b8ff" stroke="#63b8ff" points="360.08,-145.06 349.88,-142.2 356.07,-150.8 360.08,-145.06"/>
</a>
</g>
</g>
<!-- Node26&#45;&gt;Node4 -->
<g id="edge45_Node000026_Node000004" class="edge">
<title>Node26&#45;&gt;Node4</title>
<g id="a_edge45_Node000026_Node000004"><a xlink:title=" ">
<path fill="none" stroke="#63b8ff" d="M910.73,-397.58C919.29,-389.12 931.52,-375.77 939,-362 953.13,-335.97 958,-327.74 958,-298.12 958,-298.12 958,-298.12 958,-185.62 958,-150.77 941.85,-112.85 930.6,-90.68"/>
<polygon fill="#63b8ff" stroke="#63b8ff" points="933.76,-89.16 925.99,-81.96 927.57,-92.44 933.76,-89.16"/>
</a>
</g>
</g>
<!-- Node27 -->
<g id="Node000027" class="node">
<title>Node27</title>
<g id="a_Node000027"><a xlink:title=" ">
<polygon fill="#e0e0e0" stroke="#999999" points="930,-362 872,-362 872,-342.75 930,-342.75 930,-362"/>
<text text-anchor="middle" x="901" y="-348.5" font-family="Helvetica,sans-Serif" font-size="10.00">esp_log.h</text>
</a>
</g>
</g>
<!-- Node26&#45;&gt;Node27 -->
<g id="edge46_Node000026_Node000027" class="edge">
<title>Node26&#45;&gt;Node27</title>
<g id="a_edge46_Node000026_Node000027"><a xlink:title=" ">
<path fill="none" stroke="#63b8ff" d="M901,-397.83C901,-391.32 901,-382.17 901,-373.87"/>
<polygon fill="#63b8ff" stroke="#63b8ff" points="904.5,-373.87 901,-363.87 897.5,-373.87 904.5,-373.87"/>
</a>
</g>
</g>
<!-- Node28 -->
<g id="Node000028" class="node">
<title>Node28</title>
<g id="a_Node000028"><a xlink:href="filesystem_8h.html" target="_top" xlink:title=" ">
<polygon fill="white" stroke="#666666" points="1130.12,-362 985.88,-362 985.88,-342.75 1130.12,-342.75 1130.12,-362"/>
<text text-anchor="middle" x="1058" y="-348.5" font-family="Helvetica,sans-Serif" font-size="10.00">sensesp/system/filesystem.h</text>
</a>
</g>
</g>
<!-- Node26&#45;&gt;Node28 -->
<g id="edge47_Node000026_Node000028" class="edge">
<title>Node26&#45;&gt;Node28</title>
<g id="a_edge47_Node000026_Node000028"><a xlink:title=" ">
<path fill="none" stroke="#63b8ff" d="M927.63,-397.59C953.12,-388.95 991.81,-375.82 1020.43,-366.12"/>
<polygon fill="#63b8ff" stroke="#63b8ff" points="1021.46,-369.47 1029.8,-362.94 1019.21,-362.84 1021.46,-369.47"/>
</a>
</g>
</g>
<!-- Node31 -->
<g id="Node000031" class="node">
<title>Node31</title>
<g id="a_Node000031"><a xlink:href="observablevalue_8h.html" target="_top" xlink:title=" ">
<polygon fill="white" stroke="#666666" points="575.88,-362 406.12,-362 406.12,-342.75 575.88,-342.75 575.88,-362"/>
<text text-anchor="middle" x="491" y="-348.5" font-family="Helvetica,sans-Serif" font-size="10.00">sensesp/system/observablevalue.h</text>
</a>
</g>
</g>
<!-- Node26&#45;&gt;Node31 -->
<g id="edge50_Node000026_Node000031" class="edge">
<title>Node26&#45;&gt;Node31</title>
<g id="a_edge50_Node000026_Node000031"><a xlink:title=" ">
<path fill="none" stroke="#63b8ff" d="M846.56,-399.55C776.34,-390.43 653.61,-374.49 572.32,-363.94"/>
<polygon fill="#63b8ff" stroke="#63b8ff" points="573,-360.5 562.63,-362.68 572.1,-367.44 573,-360.5"/>
</a>
</g>
</g>
<!-- Node29 -->
<g id="Node000029" class="node">
<title>Node29</title>
<g id="a_Node000029"><a xlink:href="resettable_8h.html" target="_top" xlink:title=" ">
<polygon fill="white" stroke="#666666" points="1091.5,-306.75 1024.5,-306.75 1024.5,-287.5 1091.5,-287.5 1091.5,-306.75"/>
<text text-anchor="middle" x="1058" y="-293.25" font-family="Helvetica,sans-Serif" font-size="10.00">resettable.h</text>
</a>
</g>
</g>
<!-- Node28&#45;&gt;Node29 -->
<g id="edge48_Node000028_Node000029" class="edge">
<title>Node28&#45;&gt;Node29</title>
<g id="a_edge48_Node000028_Node000029"><a xlink:title=" ">
<path fill="none" stroke="#63b8ff" d="M1058,-342.58C1058,-336.07 1058,-326.92 1058,-318.62"/>
<polygon fill="#63b8ff" stroke="#63b8ff" points="1061.5,-318.62 1058,-308.62 1054.5,-318.62 1061.5,-318.62"/>
</a>
</g>
</g>
<!-- Node30 -->
<g id="Node000030" class="node">
<title>Node30</title>
<g id="a_Node000030"><a xlink:title=" ">
<polygon fill="#e0e0e0" stroke="#999999" points="1079.12,-251.5 1036.88,-251.5 1036.88,-232.25 1079.12,-232.25 1079.12,-251.5"/>
<text text-anchor="middle" x="1058" y="-238" font-family="Helvetica,sans-Serif" font-size="10.00">queue</text>
</a>
</g>
</g>
<!-- Node29&#45;&gt;Node30 -->
<g id="edge49_Node000029_Node000030" class="edge">
<title>Node29&#45;&gt;Node30</title>
<g id="a_edge49_Node000029_Node000030"><a xlink:title=" ">
<path fill="none" stroke="#63b8ff" d="M1058,-287.33C1058,-280.82 1058,-271.67 1058,-263.37"/>
<polygon fill="#63b8ff" stroke="#63b8ff" points="1061.5,-263.37 1058,-253.37 1054.5,-263.37 1061.5,-263.37"/>
</a>
</g>
</g>
<!-- Node31&#45;&gt;Node11 -->
<g id="edge53_Node000031_Node000011" class="edge">
<title>Node31&#45;&gt;Node11</title>
<g id="a_edge53_Node000031_Node000011"><a xlink:title=" ">
<path fill="none" stroke="#63b8ff" d="M484.73,-342.58C479.64,-335.46 472.3,-325.18 465.97,-316.3"/>
<polygon fill="#63b8ff" stroke="#63b8ff" points="468.95,-314.45 460.29,-308.34 463.25,-318.51 468.95,-314.45"/>
</a>
</g>
</g>
<!-- Node31&#45;&gt;Node16 -->
<g id="edge51_Node000031_Node000016" class="edge">
<title>Node31&#45;&gt;Node16</title>
<g id="a_edge51_Node000031_Node000016"><a xlink:title=" ">
<path fill="none" stroke="#63b8ff" d="M465.86,-342.31C443.45,-333.94 409.99,-320.73 382,-306.75 352.06,-291.79 319.24,-271.59 297.94,-257.94"/>
<polygon fill="#63b8ff" stroke="#63b8ff" points="300.05,-255.13 289.75,-252.64 296.25,-261.01 300.05,-255.13"/>
</a>
</g>
</g>
<!-- Node31&#45;&gt;Node20 -->
<g id="edge52_Node000031_Node000020" class="edge">
<title>Node31&#45;&gt;Node20</title>
<g id="a_edge52_Node000031_Node000020"><a xlink:title=" ">
<path fill="none" stroke="#63b8ff" d="M507.25,-342.33C531.76,-328.98 579.9,-303.79 623,-287.5 658.71,-274 700.28,-262.53 732.09,-254.6"/>
<polygon fill="#63b8ff" stroke="#63b8ff" points="732.57,-258.09 741.44,-252.3 730.9,-251.29 732.57,-258.09"/>
</a>
</g>
</g>
<!-- Node31&#45;&gt;Node23 -->
<g id="edge54_Node000031_Node000023" class="edge">
<title>Node31&#45;&gt;Node23</title>
<g id="a_edge54_Node000031_Node000023"><a xlink:title=" ">
<path fill="none" stroke="#63b8ff" d="M528.74,-342.28C565.93,-333.32 622.9,-319.59 663.45,-309.82"/>
<polygon fill="#63b8ff" stroke="#63b8ff" points="664.04,-313.28 672.94,-307.54 662.4,-306.48 664.04,-313.28"/>
</a>
</g>
</g>
</g>
</svg>

<g id="navigator" transform="translate(0 0)" fill="#404254">
  <rect fill="#f2f5e9" fill-opacity="0.5" stroke="#606060" stroke-width=".5" x="0" y="0" width="60" height="60"/>
  <use id="zoomplus" xlink:href="#zoomPlus" x="17" y="9" onmousedown="handleZoom(evt,'in')"/>
  <use id="zoomminus" xlink:href="#zoomMin" x="42" y="9" onmousedown="handleZoom(evt,'out')"/>
  <use id="reset" xlink:href="#resetDef" x="30" y="36" onmousedown="handleReset()"/>
   <use id="arrowup" xlink:href="#arrowUp" x="0" y="0" onmousedown="handlePan(0,-1)"/>
  <use id="arrowright" xlink:href="#arrowRight" x="0" y="0" onmousedown="handlePan(1,0)"/>
  <use id="arrowdown" xlink:href="#arrowDown" x="0" y="0" onmousedown="handlePan(0,1)"/>
  <use id="arrowleft" xlink:href="#arrowLeft" x="0" y="0" onmousedown="handlePan(-1,0)"/>
</g>
<svg viewBox="0 0 15 15" width="100%" height="30px" preserveAspectRatio="xMaxYMin meet">
 <g id="arrow_out" transform="scale(0.3 0.3)">
  <a xlink:href="analog__input_8cpp__incl_org.svg" target="_base">
   <rect id="button" ry="5" rx="5" y="6" x="6" height="38" width="38"
        fill="#f2f5e9" fill-opacity="0.5" stroke="#606060" stroke-width="1.0"/>
   <path id="arrow"
     d="M 11.500037,31.436501 C 11.940474,20.09759 22.043105,11.32322 32.158766,21.979434 L 37.068811,17.246167 C 37.068811,17.246167 37.088388,32 37.088388,32 L 22.160133,31.978069 C 22.160133,31.978069 26.997745,27.140456 26.997745,27.140456 C 18.528582,18.264221 13.291696,25.230495 11.500037,31.436501 z"
     style="fill:#404040;"/>
  </a>
 </g>
</svg>

<style type='text/css'>
<![CDATA[
[data-mouse-over-selected='false'] { opacity: 0.7; }
[data-mouse-over-selected='true']  { opacity: 1.0; }
]]>
</style>
<script type="application/ecmascript"><![CDATA[
document.addEventListener('DOMContentLoaded', (event) => {
  highlightEdges();
  highlightAdjacentNodes();
});
]]></script>
</svg>
