<?xml version="1.0" encoding="UTF-8" standalone="no"?>
<!DOCTYPE svg PUBLIC "-//W3C//DTD SVG 1.1//EN"
 "http://www.w3.org/Graphics/SVG/1.1/DTD/svg11.dtd">
<!-- Generated by graphviz version 2.40.1 (20161225.0304)
 -->
<!-- Title: src/transforms/angle_correction.h Pages: 1 -->
<svg width="248pt" height="102pt"
 viewBox="0.00 0.00 248.04 102.00" xmlns="http://www.w3.org/2000/svg" xmlns:xlink="http://www.w3.org/1999/xlink">
<g id="graph0" class="graph" transform="scale(1 1) rotate(0) translate(4 98)">
<title>src/transforms/angle_correction.h</title>
<polygon fill="#ffffff" stroke="transparent" points="-4,4 -4,-98 244.0366,-98 244.0366,4 -4,4"/>
<!-- Node19 -->
<g id="node1" class="node">
<title>Node19</title>
<g id="a_node1"><a xlink:title=" ">
<polygon fill="#bfbfbf" stroke="#000000" points="64,-65.5 64,-93.5 170.5859,-93.5 170.5859,-65.5 64,-65.5"/>
<text text-anchor="start" x="72" y="-81.5" font-family="Helvetica,sans-Serif" font-size="10.00" fill="#000000">src/transforms/angle</text>
<text text-anchor="middle" x="117.293" y="-71.5" font-family="Helvetica,sans-Serif" font-size="10.00" fill="#000000">_correction.h</text>
</a>
</g>
</g>
<!-- Node20 -->
<g id="node2" class="node">
<title>Node20</title>
<g id="a_node2"><a xlink:href="angle__correction_8cpp.html" target="_top" xlink:title=" ">
<polygon fill="#ffffff" stroke="#000000" points="0,-.5 0,-28.5 106.5859,-28.5 106.5859,-.5 0,-.5"/>
<text text-anchor="start" x="8" y="-16.5" font-family="Helvetica,sans-Serif" font-size="10.00" fill="#000000">src/transforms/angle</text>
<text text-anchor="middle" x="53.293" y="-6.5" font-family="Helvetica,sans-Serif" font-size="10.00" fill="#000000">_correction.cpp</text>
</a>
</g>
</g>
<!-- Node19&#45;&gt;Node20 -->
<g id="edge1" class="edge">
<title>Node19&#45;&gt;Node20</title>
<path fill="none" stroke="#191970" d="M96.1476,-58.0243C86.6122,-48.3398 75.6181,-37.1739 67.1529,-28.5765"/>
<polygon fill="#191970" stroke="#191970" points="93.8959,-60.7259 103.4059,-65.396 98.8838,-55.8146 93.8959,-60.7259"/>
</g>
<!-- Node21 -->
<g id="node3" class="node">
<title>Node21</title>
<g id="a_node3"><a xlink:href="wiring__helpers_8cpp.html" target="_top" xlink:title=" ">
<polygon fill="#ffffff" stroke="#000000" points="124.5493,-5.5 124.5493,-23.5 240.0366,-23.5 240.0366,-5.5 124.5493,-5.5"/>
<text text-anchor="middle" x="182.293" y="-11.5" font-family="Helvetica,sans-Serif" font-size="10.00" fill="#000000">src/wiring_helpers.cpp</text>
</a>
</g>
</g>
<!-- Node19&#45;&gt;Node21 -->
<g id="edge2" class="edge">
<title>Node19&#45;&gt;Node21</title>
<path fill="none" stroke="#191970" d="M138.7057,-58.0873C150.4208,-46.3721 164.3197,-32.4732 173.2187,-23.5743"/>
<polygon fill="#191970" stroke="#191970" points="135.9932,-55.85 131.397,-65.396 140.943,-60.7998 135.9932,-55.85"/>
</g>
</g>
</svg>
