<?xml version="1.0" encoding="UTF-8" standalone="no"?>
<!DOCTYPE svg PUBLIC "-//W3C//DTD SVG 1.1//EN"
 "http://www.w3.org/Graphics/SVG/1.1/DTD/svg11.dtd">
<!-- Generated by graphviz version 12.0.0 (20240704.0754)
 -->
<!-- Title: src/sensesp/net/web/app_command_handler.h Pages: 1 -->
<svg width="1106pt" height="227pt"
 viewBox="0.00 0.00 1106.12 226.75" xmlns="http://www.w3.org/2000/svg" xmlns:xlink="http://www.w3.org/1999/xlink">
<g id="graph0" class="graph" transform="scale(1 1) rotate(0) translate(4 222.75)">
<title>src/sensesp/net/web/app_command_handler.h</title>
<!-- Node1 -->
<g id="Node000001" class="node">
<title>Node1</title>
<g id="a_Node000001"><a xlink:title=" ">
<polygon fill="#999999" stroke="#666666" points="645.88,-218.75 518.88,-218.75 518.88,-188.25 645.88,-188.25 645.88,-218.75"/>
<text text-anchor="start" x="526.88" y="-205.25" font-family="Helvetica,sans-Serif" font-size="10.00">src/sensesp/net/web</text>
<text text-anchor="middle" x="582.38" y="-194" font-family="Helvetica,sans-Serif" font-size="10.00">/app_command_handler.h</text>
</a>
</g>
</g>
<!-- Node2 -->
<g id="Node000002" class="node">
<title>Node2</title>
<g id="a_Node000002"><a xlink:href="app__command__handler_8cpp.html" target="_top" xlink:title=" ">
<polygon fill="white" stroke="#666666" points="515.12,-152.25 377.62,-152.25 377.62,-121.75 515.12,-121.75 515.12,-152.25"/>
<text text-anchor="start" x="385.62" y="-138.75" font-family="Helvetica,sans-Serif" font-size="10.00">src/sensesp/net/web</text>
<text text-anchor="middle" x="446.38" y="-127.5" font-family="Helvetica,sans-Serif" font-size="10.00">/app_command_handler.cpp</text>
</a>
</g>
</g>
<!-- Node1&#45;&gt;Node2 -->
<g id="edge1_Node000001_Node000002" class="edge">
<title>Node1&#45;&gt;Node2</title>
<g id="a_edge1_Node000001_Node000002"><a xlink:title=" ">
<path fill="none" stroke="#63b8ff" d="M541.15,-182.95C520.55,-173.18 496.04,-161.56 477.11,-152.58"/>
<polygon fill="#63b8ff" stroke="#63b8ff" points="539.61,-186.09 550.15,-187.22 542.61,-179.77 539.61,-186.09"/>
</a>
</g>
</g>
<!-- Node3 -->
<g id="Node000003" class="node">
<title>Node3</title>
<g id="a_Node000003"><a xlink:href="sensesp__app_8h.html" target="_top" xlink:title=" ">
<polygon fill="white" stroke="#666666" points="631.62,-146.62 533.12,-146.62 533.12,-127.38 631.62,-127.38 631.62,-146.62"/>
<text text-anchor="middle" x="582.38" y="-133.12" font-family="Helvetica,sans-Serif" font-size="10.00">src/sensesp_app.h</text>
</a>
</g>
</g>
<!-- Node1&#45;&gt;Node3 -->
<g id="edge2_Node000001_Node000003" class="edge">
<title>Node1&#45;&gt;Node3</title>
<g id="a_edge2_Node000001_Node000003"><a xlink:title=" ">
<path fill="none" stroke="#63b8ff" d="M575.74,-176.59C575.35,-166.01 575.95,-154.5 577.56,-146.82"/>
<polygon fill="#63b8ff" stroke="#63b8ff" points="572.24,-176.65 576.5,-186.35 579.22,-176.11 572.24,-176.65"/>
</a>
</g>
</g>
<!-- Node3&#45;&gt;Node1 -->
<g id="edge4_Node000003_Node000001" class="edge">
<title>Node3&#45;&gt;Node1</title>
<g id="a_edge4_Node000003_Node000001"><a xlink:title=" ">
<path fill="none" stroke="#63b8ff" d="M588.68,-158.15C589.42,-167.77 589.24,-179.08 588.14,-187.86"/>
<polygon fill="#63b8ff" stroke="#63b8ff" points="592.17,-157.78 587.39,-148.32 585.23,-158.7 592.17,-157.78"/>
</a>
</g>
</g>
<!-- Node4 -->
<g id="Node000004" class="node">
<title>Node4</title>
<g id="a_Node000004"><a xlink:href="networking_8cpp.html" target="_top" xlink:title=" ">
<polygon fill="white" stroke="#666666" points="154.75,-80.12 0,-80.12 0,-60.88 154.75,-60.88 154.75,-80.12"/>
<text text-anchor="middle" x="77.38" y="-66.62" font-family="Helvetica,sans-Serif" font-size="10.00">src/sensesp/net/networking.cpp</text>
</a>
</g>
</g>
<!-- Node3&#45;&gt;Node4 -->
<g id="edge3_Node000003_Node000004" class="edge">
<title>Node3&#45;&gt;Node4</title>
<g id="a_edge3_Node000003_Node000004"><a xlink:title=" ">
<path fill="none" stroke="#63b8ff" d="M537.75,-124.37C533.25,-123.39 528.73,-122.5 524.38,-121.75 365.9,-94.5 323.8,-106.76 164.38,-85.75 153.15,-84.27 141.14,-82.46 129.74,-80.62"/>
<polygon fill="#63b8ff" stroke="#63b8ff" points="536.8,-127.74 547.33,-126.56 538.37,-120.92 536.8,-127.74"/>
</a>
</g>
</g>
<!-- Node5 -->
<g id="Node000005" class="node">
<title>Node5</title>
<g id="a_Node000005"><a xlink:href="signalk__delta__queue_8cpp.html" target="_top" xlink:title=" ">
<polygon fill="white" stroke="#666666" points="299.5,-85.75 173.25,-85.75 173.25,-55.25 299.5,-55.25 299.5,-85.75"/>
<text text-anchor="start" x="181.25" y="-72.25" font-family="Helvetica,sans-Serif" font-size="10.00">src/sensesp/signalk</text>
<text text-anchor="middle" x="236.38" y="-61" font-family="Helvetica,sans-Serif" font-size="10.00">/signalk_delta_queue.cpp</text>
</a>
</g>
</g>
<!-- Node3&#45;&gt;Node5 -->
<g id="edge5_Node000003_Node000005" class="edge">
<title>Node3&#45;&gt;Node5</title>
<g id="a_edge5_Node000003_Node000005"><a xlink:title=" ">
<path fill="none" stroke="#63b8ff" d="M536.11,-124.3C532.15,-123.4 528.2,-122.54 524.38,-121.75 429.49,-102.18 404.71,-103.03 309.38,-85.75 306.2,-85.17 302.95,-84.57 299.66,-83.96"/>
<polygon fill="#63b8ff" stroke="#63b8ff" points="535.19,-127.68 545.73,-126.56 536.79,-120.87 535.19,-127.68"/>
</a>
</g>
</g>
<!-- Node6 -->
<g id="Node000006" class="node">
<title>Node6</title>
<g id="a_Node000006"><a xlink:href="signalk__put__request_8cpp.html" target="_top" xlink:title=" ">
<polygon fill="white" stroke="#666666" points="442.75,-85.75 318,-85.75 318,-55.25 442.75,-55.25 442.75,-85.75"/>
<text text-anchor="start" x="326" y="-72.25" font-family="Helvetica,sans-Serif" font-size="10.00">src/sensesp/signalk</text>
<text text-anchor="middle" x="380.38" y="-61" font-family="Helvetica,sans-Serif" font-size="10.00">/signalk_put_request.cpp</text>
</a>
</g>
</g>
<!-- Node3&#45;&gt;Node6 -->
<g id="edge6_Node000003_Node000006" class="edge">
<title>Node3&#45;&gt;Node6</title>
<g id="a_edge6_Node000003_Node000006"><a xlink:title=" ">
<path fill="none" stroke="#63b8ff" d="M543.11,-123.46C509.64,-112.78 461.49,-97.4 426.25,-86.15"/>
<polygon fill="#63b8ff" stroke="#63b8ff" points="541.83,-126.73 552.42,-126.44 543.96,-120.06 541.83,-126.73"/>
</a>
</g>
</g>
<!-- Node7 -->
<g id="Node000007" class="node">
<title>Node7</title>
<g id="a_Node000007"><a xlink:href="signalk__ws__client_8cpp.html" target="_top" xlink:title=" ">
<polygon fill="white" stroke="#666666" points="575.88,-85.75 460.88,-85.75 460.88,-55.25 575.88,-55.25 575.88,-85.75"/>
<text text-anchor="start" x="468.88" y="-72.25" font-family="Helvetica,sans-Serif" font-size="10.00">src/sensesp/signalk</text>
<text text-anchor="middle" x="518.38" y="-61" font-family="Helvetica,sans-Serif" font-size="10.00">/signalk_ws_client.cpp</text>
</a>
</g>
</g>
<!-- Node3&#45;&gt;Node7 -->
<g id="edge7_Node000003_Node000007" class="edge">
<title>Node3&#45;&gt;Node7</title>
<g id="a_edge7_Node000003_Node000007"><a xlink:title=" ">
<path fill="none" stroke="#63b8ff" d="M565.63,-119.12C555.37,-108.78 542.37,-95.68 532.61,-85.84"/>
<polygon fill="#63b8ff" stroke="#63b8ff" points="562.88,-121.32 572.41,-125.96 567.85,-116.39 562.88,-121.32"/>
</a>
</g>
</g>
<!-- Node8 -->
<g id="Node000008" class="node">
<title>Node8</title>
<g id="a_Node000008"><a xlink:href="button_8cpp.html" target="_top" xlink:title=" ">
<polygon fill="white" stroke="#666666" points="698.62,-85.75 594.12,-85.75 594.12,-55.25 698.62,-55.25 698.62,-85.75"/>
<text text-anchor="start" x="602.12" y="-72.25" font-family="Helvetica,sans-Serif" font-size="10.00">src/sensesp/system</text>
<text text-anchor="middle" x="646.38" y="-61" font-family="Helvetica,sans-Serif" font-size="10.00">/button.cpp</text>
</a>
</g>
</g>
<!-- Node3&#45;&gt;Node8 -->
<g id="edge8_Node000003_Node000008" class="edge">
<title>Node3&#45;&gt;Node8</title>
<g id="a_edge8_Node000003_Node000008"><a xlink:title=" ">
<path fill="none" stroke="#63b8ff" d="M599.12,-119.12C609.38,-108.78 622.38,-95.68 632.14,-85.84"/>
<polygon fill="#63b8ff" stroke="#63b8ff" points="596.9,-116.39 592.34,-125.96 601.87,-121.32 596.9,-116.39"/>
</a>
</g>
</g>
<!-- Node9 -->
<g id="Node000009" class="node">
<title>Node9</title>
<g id="a_Node000009"><a xlink:href="led__blinker_8cpp.html" target="_top" xlink:title=" ">
<polygon fill="white" stroke="#666666" points="821.62,-85.75 717.12,-85.75 717.12,-55.25 821.62,-55.25 821.62,-85.75"/>
<text text-anchor="start" x="725.12" y="-72.25" font-family="Helvetica,sans-Serif" font-size="10.00">src/sensesp/system</text>
<text text-anchor="middle" x="769.38" y="-61" font-family="Helvetica,sans-Serif" font-size="10.00">/led_blinker.cpp</text>
</a>
</g>
</g>
<!-- Node3&#45;&gt;Node9 -->
<g id="edge9_Node000003_Node000009" class="edge">
<title>Node3&#45;&gt;Node9</title>
<g id="a_edge9_Node000003_Node000009"><a xlink:title=" ">
<path fill="none" stroke="#63b8ff" d="M619.53,-123.18C650.48,-112.51 694.56,-97.3 726.9,-86.15"/>
<polygon fill="#63b8ff" stroke="#63b8ff" points="618.51,-119.83 610.2,-126.4 620.8,-126.45 618.51,-119.83"/>
</a>
</g>
</g>
<!-- Node10 -->
<g id="Node000010" class="node">
<title>Node10</title>
<g id="a_Node000010"><a xlink:href="sensesp__app_8cpp.html" target="_top" xlink:title=" ">
<polygon fill="white" stroke="#666666" points="948.88,-80.12 839.88,-80.12 839.88,-60.88 948.88,-60.88 948.88,-80.12"/>
<text text-anchor="middle" x="894.38" y="-66.62" font-family="Helvetica,sans-Serif" font-size="10.00">src/sensesp_app.cpp</text>
</a>
</g>
</g>
<!-- Node3&#45;&gt;Node10 -->
<g id="edge10_Node000003_Node000010" class="edge">
<title>Node3&#45;&gt;Node10</title>
<g id="a_edge10_Node000003_Node000010"><a xlink:title=" ">
<path fill="none" stroke="#63b8ff" d="M639.88,-124.67C690.19,-114.69 765.2,-99.61 830.38,-85.75 838.06,-84.12 846.25,-82.33 854.11,-80.59"/>
<polygon fill="#63b8ff" stroke="#63b8ff" points="639.21,-121.24 630.08,-126.62 640.57,-128.1 639.21,-121.24"/>
</a>
</g>
</g>
<!-- Node11 -->
<g id="Node000011" class="node">
<title>Node11</title>
<g id="a_Node000011"><a xlink:href="sensesp__app__builder_8h.html" target="_top" xlink:title=" ">
<polygon fill="white" stroke="#666666" points="1098.12,-80.12 966.62,-80.12 966.62,-60.88 1098.12,-60.88 1098.12,-80.12"/>
<text text-anchor="middle" x="1032.38" y="-66.62" font-family="Helvetica,sans-Serif" font-size="10.00">src/sensesp_app_builder.h</text>
</a>
</g>
</g>
<!-- Node3&#45;&gt;Node11 -->
<g id="edge11_Node000003_Node000011" class="edge">
<title>Node3&#45;&gt;Node11</title>
<g id="a_edge11_Node000003_Node000011"><a xlink:title=" ">
<path fill="none" stroke="#63b8ff" d="M643.1,-128.97C717.57,-120.1 847.55,-103.81 958.38,-85.75 967.8,-84.21 977.87,-82.39 987.45,-80.58"/>
<polygon fill="#63b8ff" stroke="#63b8ff" points="643.1,-125.45 633.58,-130.1 643.93,-132.4 643.1,-125.45"/>
</a>
</g>
</g>
<!-- Node12 -->
<g id="Node000012" class="node">
<title>Node12</title>
<g id="a_Node000012"><a xlink:href="main_8cpp.html" target="_top" xlink:title=" ">
<polygon fill="white" stroke="#666666" points="1068.5,-19.25 996.25,-19.25 996.25,0 1068.5,0 1068.5,-19.25"/>
<text text-anchor="middle" x="1032.38" y="-5.75" font-family="Helvetica,sans-Serif" font-size="10.00">src/main.cpp</text>
</a>
</g>
</g>
<!-- Node11&#45;&gt;Node12 -->
<g id="edge12_Node000011_Node000012" class="edge">
<title>Node11&#45;&gt;Node12</title>
<g id="a_edge12_Node000011_Node000012"><a xlink:title=" ">
<path fill="none" stroke="#63b8ff" d="M1032.38,-49.07C1032.38,-39.04 1032.38,-27.46 1032.38,-19.65"/>
<polygon fill="#63b8ff" stroke="#63b8ff" points="1028.88,-49.04 1032.38,-59.04 1035.88,-49.04 1028.88,-49.04"/>
</a>
</g>
</g>
</g>
</svg>
