<?xml version="1.0" encoding="UTF-8" standalone="no"?>
<!DOCTYPE svg PUBLIC "-//W3C//DTD SVG 1.1//EN"
 "http://www.w3.org/Graphics/SVG/1.1/DTD/svg11.dtd">
<!-- Generated by graphviz version 14.1.4 (20260321.0153)
 -->
<!-- Title: src/sensesp/net/web/app_command_handler.h Pages: 1 -->
<!--zoomable 160 -->

<svg id="main" version="1.1" xmlns="http://www.w3.org/2000/svg" xmlns:xlink="http://www.w3.org/1999/xlink" xml:space="preserve" onload="init(evt)">

<style type="text/css"><![CDATA[
.node, .edge {opacity: 0.7;}
.node.selected, .edge.selected {opacity: 1;}
.edge:hover path { stroke: red; }
.edge:hover polygon { stroke: red; fill: red; }
]]></style>

<defs>
  <circle id="rim" cx="0" cy="0" r="7"/>
  <circle id="rim2" cx="0" cy="0" r="3.5"/>
  <g id="zoomPlus">
    <use xlink:href="#rim" fill="#404040"><set attributeName="fill" to="#808080" begin="zoomplus.mouseover" end="zoomplus.mouseout"/></use>
    <path d="M-4,0h8M0,-4v8" fill="none" stroke="white" stroke-width="1.5" pointer-events="none"/>
  </g>
  <g id="zoomMin">
    <use xlink:href="#rim" fill="#404040"><set attributeName="fill" to="#808080" begin="zoomminus.mouseover" end="zoomminus.mouseout"/></use>
    <path d="M-4,0h8" fill="none" stroke="white" stroke-width="1.5" pointer-events="none"/>
  </g>
  <g id="arrowUp" transform="translate(30 24)">
    <use xlink:href="#rim"/>
    <path pointer-events="none" fill="none" stroke="white" stroke-width="1.5" d="M0,-3.0v7 M-2.5,-0.5L0,-3.0L2.5,-0.5"/>
  </g>
  <g id="arrowRight" transform="rotate(90) translate(36 -43)">
    <use xlink:href="#rim"/>
    <path pointer-events="none" fill="none" stroke="white" stroke-width="1.5" d="M0,-3.0v7 M-2.5,-0.5L0,-3.0L2.5,-0.5"/>
  </g>
  <g id="arrowDown" transform="rotate(180) translate(-30 -48)">
    <use xlink:href="#rim"/>
    <path pointer-events="none" fill="none" stroke="white" stroke-width="1.5" d="M0,-3.0v7 M-2.5,-0.5L0,-3.0L2.5,-0.5"/>
  </g>
  <g id="arrowLeft" transform="rotate(270) translate(-36 17)">
    <use xlink:href="#rim"/>
    <path pointer-events="none" fill="none" stroke="white" stroke-width="1.5" d="M0,-3.0v7 M-2.5,-0.5L0,-3.0L2.5,-0.5"/>
  </g>
  <g id="resetDef">
    <use xlink:href="#rim2" fill="#404040"><set attributeName="fill" to="#808080" begin="reset.mouseover" end="reset.mouseout"/></use>
  </g>
</defs>
<script type="application/ecmascript">
var viewWidth = 1373;
var viewHeight = 160;
var sectionId = 'dynsection-1';
</script>
<script type="application/ecmascript" xlink:href="svg.min.js"/>
<svg id="graph" class="graph">
<g id="viewport">
<title>src/sensesp/net/web/app_command_handler.h</title>
<!-- Node1 -->
<g id="Node000001" class="node">
<title>Node1</title>
<g id="a_Node000001"><a xlink:title=" ">
<polygon fill="#999999" stroke="#666666" points="410.25,-152.25 283.25,-152.25 283.25,-121.75 410.25,-121.75 410.25,-152.25"/>
<text xml:space="preserve" text-anchor="start" x="291.25" y="-138.75" font-family="Helvetica,sans-Serif" font-size="10.00">src/sensesp/net/web</text>
<text xml:space="preserve" text-anchor="middle" x="346.75" y="-127.5" font-family="Helvetica,sans-Serif" font-size="10.00">/app_command_handler.h</text>
</a>
</g>
</g>
<!-- Node2 -->
<g id="Node000002" class="node">
<title>Node2</title>
<g id="a_Node000002"><a xlink:href="app__command__handler_8cpp.html" target="_top" xlink:title=" ">
<polygon fill="white" stroke="#666666" points="137.5,-30.5 0,-30.5 0,0 137.5,0 137.5,-30.5"/>
<text xml:space="preserve" text-anchor="start" x="8" y="-17" font-family="Helvetica,sans-Serif" font-size="10.00">src/sensesp/net/web</text>
<text xml:space="preserve" text-anchor="middle" x="68.75" y="-5.75" font-family="Helvetica,sans-Serif" font-size="10.00">/app_command_handler.cpp</text>
</a>
</g>
</g>
<!-- Node1&#45;&gt;Node2 -->
<g id="edge1_Node000001_Node000002" class="edge">
<title>Node1&#45;&gt;Node2</title>
<g id="a_edge1_Node000001_Node000002"><a xlink:title=" ">
<path fill="none" stroke="#63b8ff" d="M302.42,-116.9C246.86,-92.97 152.85,-52.48 102.68,-30.87"/>
<polygon fill="#63b8ff" stroke="#63b8ff" points="300.7,-119.98 311.27,-120.72 303.47,-113.55 300.7,-119.98"/>
</a>
</g>
</g>
<!-- Node3 -->
<g id="Node000003" class="node">
<title>Node3</title>
<g id="a_Node000003"><a xlink:href="sensesp__app_8h.html" target="_top" xlink:title=" ">
<polygon fill="white" stroke="#666666" points="675,-85.75 576.5,-85.75 576.5,-66.5 675,-66.5 675,-85.75"/>
<text xml:space="preserve" text-anchor="middle" x="625.75" y="-72.25" font-family="Helvetica,sans-Serif" font-size="10.00">src/sensesp_app.h</text>
</a>
</g>
</g>
<!-- Node1&#45;&gt;Node3 -->
<g id="edge2_Node000001_Node000003" class="edge">
<title>Node1&#45;&gt;Node3</title>
<g id="a_edge2_Node000001_Node000003"><a xlink:title=" ">
<path fill="none" stroke="#63b8ff" d="M421.5,-120.23C473.09,-109.34 539.85,-95.25 582.74,-86.2"/>
<polygon fill="#63b8ff" stroke="#63b8ff" points="420.95,-116.76 411.89,-122.25 422.4,-123.61 420.95,-116.76"/>
</a>
</g>
</g>
<!-- Node3&#45;&gt;Node2 -->
<g id="edge3_Node000003_Node000002" class="edge">
<title>Node3&#45;&gt;Node2</title>
<g id="a_edge3_Node000003_Node000002"><a xlink:title=" ">
<path fill="none" stroke="#63b8ff" d="M564.8,-71.17C473.6,-64.86 296.36,-51.1 146.75,-30.5 143.75,-30.09 140.69,-29.64 137.6,-29.17"/>
<polygon fill="#63b8ff" stroke="#63b8ff" points="564.56,-74.66 574.77,-71.85 565.04,-67.68 564.56,-74.66"/>
</a>
</g>
</g>
<!-- Node4 -->
<g id="Node000004" class="node">
<title>Node4</title>
<g id="a_Node000004"><a xlink:href="base__command__handler_8cpp.html" target="_top" xlink:title=" ">
<polygon fill="white" stroke="#666666" points="298.12,-30.5 155.38,-30.5 155.38,0 298.12,0 298.12,-30.5"/>
<text xml:space="preserve" text-anchor="start" x="163.38" y="-17" font-family="Helvetica,sans-Serif" font-size="10.00">src/sensesp/net/web</text>
<text xml:space="preserve" text-anchor="middle" x="226.75" y="-5.75" font-family="Helvetica,sans-Serif" font-size="10.00">/base_command_handler.cpp</text>
</a>
</g>
</g>
<!-- Node3&#45;&gt;Node4 -->
<g id="edge4_Node000003_Node000004" class="edge">
<title>Node3&#45;&gt;Node4</title>
<g id="a_edge4_Node000003_Node000004"><a xlink:title=" ">
<path fill="none" stroke="#63b8ff" d="M565.08,-67.32C500.83,-58.9 396.49,-44.76 306.75,-30.5 303.96,-30.06 301.12,-29.6 298.26,-29.12"/>
<polygon fill="#63b8ff" stroke="#63b8ff" points="564.34,-70.76 574.71,-68.58 565.25,-63.81 564.34,-70.76"/>
</a>
</g>
</g>
<!-- Node5 -->
<g id="Node000005" class="node">
<title>Node5</title>
<g id="a_Node000005"><a xlink:href="wifi__provisioner_8cpp.html" target="_top" xlink:title=" ">
<polygon fill="white" stroke="#666666" points="419.62,-30.5 315.88,-30.5 315.88,0 419.62,0 419.62,-30.5"/>
<text xml:space="preserve" text-anchor="start" x="323.88" y="-17" font-family="Helvetica,sans-Serif" font-size="10.00">src/sensesp/net/wifi</text>
<text xml:space="preserve" text-anchor="middle" x="367.75" y="-5.75" font-family="Helvetica,sans-Serif" font-size="10.00">_provisioner.cpp</text>
</a>
</g>
</g>
<!-- Node3&#45;&gt;Node5 -->
<g id="edge5_Node000003_Node000005" class="edge">
<title>Node3&#45;&gt;Node5</title>
<g id="a_edge5_Node000003_Node000005"><a xlink:title=" ">
<path fill="none" stroke="#63b8ff" d="M574.35,-63.58C534.59,-54.63 478.16,-41.87 428.75,-30.5 425.89,-29.84 422.95,-29.16 419.99,-28.48"/>
<polygon fill="#63b8ff" stroke="#63b8ff" points="573.36,-66.95 583.88,-65.73 574.9,-60.12 573.36,-66.95"/>
</a>
</g>
</g>
<!-- Node6 -->
<g id="Node000006" class="node">
<title>Node6</title>
<g id="a_Node000006"><a xlink:href="system__info_8cpp.html" target="_top" xlink:title=" ">
<polygon fill="white" stroke="#666666" points="544.12,-30.5 437.38,-30.5 437.38,0 544.12,0 544.12,-30.5"/>
<text xml:space="preserve" text-anchor="start" x="445.38" y="-17" font-family="Helvetica,sans-Serif" font-size="10.00">src/sensesp/sensors</text>
<text xml:space="preserve" text-anchor="middle" x="490.75" y="-5.75" font-family="Helvetica,sans-Serif" font-size="10.00">/system_info.cpp</text>
</a>
</g>
</g>
<!-- Node3&#45;&gt;Node6 -->
<g id="edge6_Node000003_Node000006" class="edge">
<title>Node3&#45;&gt;Node6</title>
<g id="a_edge6_Node000003_Node000006"><a xlink:title=" ">
<path fill="none" stroke="#63b8ff" d="M594.65,-61.56C573.66,-52.41 545.96,-40.33 524.44,-30.94"/>
<polygon fill="#63b8ff" stroke="#63b8ff" points="593,-64.66 603.56,-65.45 595.8,-58.24 593,-64.66"/>
</a>
</g>
</g>
<!-- Node7 -->
<g id="Node000007" class="node">
<title>Node7</title>
<g id="a_Node000007"><a xlink:href="signalk__delta__queue_8cpp.html" target="_top" xlink:title=" ">
<polygon fill="white" stroke="#666666" points="688.88,-30.5 562.62,-30.5 562.62,0 688.88,0 688.88,-30.5"/>
<text xml:space="preserve" text-anchor="start" x="570.62" y="-17" font-family="Helvetica,sans-Serif" font-size="10.00">src/sensesp/signalk</text>
<text xml:space="preserve" text-anchor="middle" x="625.75" y="-5.75" font-family="Helvetica,sans-Serif" font-size="10.00">/signalk_delta_queue.cpp</text>
</a>
</g>
</g>
<!-- Node3&#45;&gt;Node7 -->
<g id="edge7_Node000003_Node000007" class="edge">
<title>Node3&#45;&gt;Node7</title>
<g id="a_edge7_Node000003_Node000007"><a xlink:title=" ">
<path fill="none" stroke="#63b8ff" d="M625.75,-54.92C625.75,-46.99 625.75,-38.06 625.75,-30.78"/>
<polygon fill="#63b8ff" stroke="#63b8ff" points="622.25,-54.67 625.75,-64.67 629.25,-54.67 622.25,-54.67"/>
</a>
</g>
</g>
<!-- Node8 -->
<g id="Node000008" class="node">
<title>Node8</title>
<g id="a_Node000008"><a xlink:href="signalk__put__request_8cpp.html" target="_top" xlink:title=" ">
<polygon fill="white" stroke="#666666" points="832.12,-30.5 707.38,-30.5 707.38,0 832.12,0 832.12,-30.5"/>
<text xml:space="preserve" text-anchor="start" x="715.38" y="-17" font-family="Helvetica,sans-Serif" font-size="10.00">src/sensesp/signalk</text>
<text xml:space="preserve" text-anchor="middle" x="769.75" y="-5.75" font-family="Helvetica,sans-Serif" font-size="10.00">/signalk_put_request.cpp</text>
</a>
</g>
</g>
<!-- Node3&#45;&gt;Node8 -->
<g id="edge8_Node000003_Node000008" class="edge">
<title>Node3&#45;&gt;Node8</title>
<g id="a_edge8_Node000003_Node000008"><a xlink:title=" ">
<path fill="none" stroke="#63b8ff" d="M658.31,-61.81C680.77,-52.63 710.65,-40.42 733.81,-30.94"/>
<polygon fill="#63b8ff" stroke="#63b8ff" points="657.27,-58.46 649.34,-65.48 659.92,-64.94 657.27,-58.46"/>
</a>
</g>
</g>
<!-- Node9 -->
<g id="Node000009" class="node">
<title>Node9</title>
<g id="a_Node000009"><a xlink:href="signalk__ws__client_8cpp.html" target="_top" xlink:title=" ">
<polygon fill="white" stroke="#666666" points="965.25,-30.5 850.25,-30.5 850.25,0 965.25,0 965.25,-30.5"/>
<text xml:space="preserve" text-anchor="start" x="858.25" y="-17" font-family="Helvetica,sans-Serif" font-size="10.00">src/sensesp/signalk</text>
<text xml:space="preserve" text-anchor="middle" x="907.75" y="-5.75" font-family="Helvetica,sans-Serif" font-size="10.00">/signalk_ws_client.cpp</text>
</a>
</g>
</g>
<!-- Node3&#45;&gt;Node9 -->
<g id="edge9_Node000003_Node000009" class="edge">
<title>Node3&#45;&gt;Node9</title>
<g id="a_edge9_Node000003_Node000009"><a xlink:title=" ">
<path fill="none" stroke="#63b8ff" d="M681,-63.73C724.44,-54.76 786.47,-41.91 840.75,-30.5 843.78,-29.86 846.88,-29.21 850.01,-28.55"/>
<polygon fill="#63b8ff" stroke="#63b8ff" points="680.39,-60.29 671.3,-65.74 681.81,-67.14 680.39,-60.29"/>
</a>
</g>
</g>
<!-- Node10 -->
<g id="Node000010" class="node">
<title>Node10</title>
<g id="a_Node000010"><a xlink:href="button_8cpp.html" target="_top" xlink:title=" ">
<polygon fill="white" stroke="#666666" points="1088,-30.5 983.5,-30.5 983.5,0 1088,0 1088,-30.5"/>
<text xml:space="preserve" text-anchor="start" x="991.5" y="-17" font-family="Helvetica,sans-Serif" font-size="10.00">src/sensesp/system</text>
<text xml:space="preserve" text-anchor="middle" x="1035.75" y="-5.75" font-family="Helvetica,sans-Serif" font-size="10.00">/button.cpp</text>
</a>
</g>
</g>
<!-- Node3&#45;&gt;Node10 -->
<g id="edge10_Node000003_Node000010" class="edge">
<title>Node3&#45;&gt;Node10</title>
<g id="a_edge10_Node000003_Node000010"><a xlink:title=" ">
<path fill="none" stroke="#63b8ff" d="M686.62,-69.25C756.49,-62.07 874.38,-48.59 974.75,-30.5 977.53,-30 980.38,-29.45 983.25,-28.87"/>
<polygon fill="#63b8ff" stroke="#63b8ff" points="686.51,-65.74 676.91,-70.24 687.22,-72.71 686.51,-65.74"/>
</a>
</g>
</g>
<!-- Node11 -->
<g id="Node000011" class="node">
<title>Node11</title>
<g id="a_Node000011"><a xlink:href="sensesp__app_8cpp.html" target="_top" xlink:title=" ">
<polygon fill="white" stroke="#666666" points="1215.25,-24.88 1106.25,-24.88 1106.25,-5.63 1215.25,-5.63 1215.25,-24.88"/>
<text xml:space="preserve" text-anchor="middle" x="1160.75" y="-11.38" font-family="Helvetica,sans-Serif" font-size="10.00">src/sensesp_app.cpp</text>
</a>
</g>
</g>
<!-- Node3&#45;&gt;Node11 -->
<g id="edge11_Node000003_Node000011" class="edge">
<title>Node3&#45;&gt;Node11</title>
<g id="a_edge11_Node000003_Node000011"><a xlink:title=" ">
<path fill="none" stroke="#63b8ff" d="M686.51,-71.8C776.52,-66.32 950.44,-53.63 1096.75,-30.5 1105.52,-29.11 1114.89,-27.25 1123.67,-25.33"/>
<polygon fill="#63b8ff" stroke="#63b8ff" points="686.45,-68.29 676.67,-72.38 686.87,-75.28 686.45,-68.29"/>
</a>
</g>
</g>
<!-- Node12 -->
<g id="Node000012" class="node">
<title>Node12</title>
<g id="a_Node000012"><a xlink:href="sensesp__app__builder_8h.html" target="_top" xlink:title=" ">
<polygon fill="white" stroke="#666666" points="1364.5,-24.88 1233,-24.88 1233,-5.63 1364.5,-5.63 1364.5,-24.88"/>
<text xml:space="preserve" text-anchor="middle" x="1298.75" y="-11.38" font-family="Helvetica,sans-Serif" font-size="10.00">src/sensesp_app_builder.h</text>
</a>
</g>
</g>
<!-- Node3&#45;&gt;Node12 -->
<g id="edge12_Node000003_Node000012" class="edge">
<title>Node3&#45;&gt;Node12</title>
<g id="a_edge12_Node000003_Node000012"><a xlink:title=" ">
<path fill="none" stroke="#63b8ff" d="M686.61,-72.92C795.13,-68.48 1029.02,-56.55 1224.75,-30.5 1235,-29.14 1245.96,-27.26 1256.24,-25.31"/>
<polygon fill="#63b8ff" stroke="#63b8ff" points="686.62,-69.42 676.77,-73.32 686.9,-76.41 686.62,-69.42"/>
</a>
</g>
</g>
</g>
</svg>

<g id="navigator" transform="translate(0 0)" fill="#404254">
  <rect fill="#f2f5e9" fill-opacity="0.5" stroke="#606060" stroke-width=".5" x="0" y="0" width="60" height="60"/>
  <use id="zoomplus" xlink:href="#zoomPlus" x="17" y="9" onmousedown="handleZoom(evt,'in')"/>
  <use id="zoomminus" xlink:href="#zoomMin" x="42" y="9" onmousedown="handleZoom(evt,'out')"/>
  <use id="reset" xlink:href="#resetDef" x="30" y="36" onmousedown="handleReset()"/>
   <use id="arrowup" xlink:href="#arrowUp" x="0" y="0" onmousedown="handlePan(0,-1)"/>
  <use id="arrowright" xlink:href="#arrowRight" x="0" y="0" onmousedown="handlePan(1,0)"/>
  <use id="arrowdown" xlink:href="#arrowDown" x="0" y="0" onmousedown="handlePan(0,1)"/>
  <use id="arrowleft" xlink:href="#arrowLeft" x="0" y="0" onmousedown="handlePan(-1,0)"/>
</g>
<svg viewBox="0 0 15 15" width="100%" height="30px" preserveAspectRatio="xMaxYMin meet">
 <g id="arrow_out" transform="scale(0.3 0.3)">
  <a xlink:href="app__command__handler_8h__dep__incl_org.svg" target="_base">
   <rect id="button" ry="5" rx="5" y="6" x="6" height="38" width="38"
        fill="#f2f5e9" fill-opacity="0.5" stroke="#606060" stroke-width="1.0"/>
   <path id="arrow"
     d="M 11.500037,31.436501 C 11.940474,20.09759 22.043105,11.32322 32.158766,21.979434 L 37.068811,17.246167 C 37.068811,17.246167 37.088388,32 37.088388,32 L 22.160133,31.978069 C 22.160133,31.978069 26.997745,27.140456 26.997745,27.140456 C 18.528582,18.264221 13.291696,25.230495 11.500037,31.436501 z"
     style="fill:#404040;"/>
  </a>
 </g>
</svg>

<style type='text/css'>
<![CDATA[
[data-mouse-over-selected='false'] { opacity: 0.7; }
[data-mouse-over-selected='true']  { opacity: 1.0; }
]]>
</style>
<script type="application/ecmascript"><![CDATA[
document.addEventListener('DOMContentLoaded', (event) => {
  highlightEdges();
  highlightAdjacentNodes();
});
]]></script>
</svg>
