<?xml version="1.0" encoding="UTF-8" standalone="no"?>
<!DOCTYPE svg PUBLIC "-//W3C//DTD SVG 1.1//EN"
 "http://www.w3.org/Graphics/SVG/1.1/DTD/svg11.dtd">
<!-- Generated by graphviz version 13.0.0 (20250608.1624)
 -->
<!-- Title: src/sensesp/system/async_response_handler.h Pages: 1 -->
<!--zoomable 492 -->

<svg id="main" version="1.1" xmlns="http://www.w3.org/2000/svg" xmlns:xlink="http://www.w3.org/1999/xlink" xml:space="preserve" onload="init(evt)">

<style type="text/css"><![CDATA[
.node, .edge {opacity: 0.7;}
.node.selected, .edge.selected {opacity: 1;}
.edge:hover path { stroke: red; }
.edge:hover polygon { stroke: red; fill: red; }
]]></style>

<defs>
  <circle id="rim" cx="0" cy="0" r="7"/>
  <circle id="rim2" cx="0" cy="0" r="3.5"/>
  <g id="zoomPlus">
    <use xlink:href="#rim" fill="#404040"><set attributeName="fill" to="#808080" begin="zoomplus.mouseover" end="zoomplus.mouseout"/></use>
    <path d="M-4,0h8M0,-4v8" fill="none" stroke="white" stroke-width="1.5" pointer-events="none"/>
  </g>
  <g id="zoomMin">
    <use xlink:href="#rim" fill="#404040"><set attributeName="fill" to="#808080" begin="zoomminus.mouseover" end="zoomminus.mouseout"/></use>
    <path d="M-4,0h8" fill="none" stroke="white" stroke-width="1.5" pointer-events="none"/>
  </g>
  <g id="arrowUp" transform="translate(30 24)">
    <use xlink:href="#rim"/>
    <path pointer-events="none" fill="none" stroke="white" stroke-width="1.5" d="M0,-3.0v7 M-2.5,-0.5L0,-3.0L2.5,-0.5"/>
  </g>
  <g id="arrowRight" transform="rotate(90) translate(36 -43)">
    <use xlink:href="#rim"/>
    <path pointer-events="none" fill="none" stroke="white" stroke-width="1.5" d="M0,-3.0v7 M-2.5,-0.5L0,-3.0L2.5,-0.5"/>
  </g>
  <g id="arrowDown" transform="rotate(180) translate(-30 -48)">
    <use xlink:href="#rim"/>
    <path pointer-events="none" fill="none" stroke="white" stroke-width="1.5" d="M0,-3.0v7 M-2.5,-0.5L0,-3.0L2.5,-0.5"/>
  </g>
  <g id="arrowLeft" transform="rotate(270) translate(-36 17)">
    <use xlink:href="#rim"/>
    <path pointer-events="none" fill="none" stroke="white" stroke-width="1.5" d="M0,-3.0v7 M-2.5,-0.5L0,-3.0L2.5,-0.5"/>
  </g>
  <g id="resetDef">
    <use xlink:href="#rim2" fill="#404040"><set attributeName="fill" to="#808080" begin="reset.mouseover" end="reset.mouseout"/></use>
  </g>
</defs>
<script type="application/ecmascript">
var viewWidth = 952;
var viewHeight = 492;
var sectionId = 'dynsection-0';
</script>
<script type="application/ecmascript" xlink:href="svg.min.js"/>
<svg id="graph" class="graph">
<g id="viewport">
<title>src/sensesp/system/async_response_handler.h</title>
<!-- Node1 -->
<g id="Node000001" class="node">
<title>Node1</title>
<g id="a_Node000001"><a xlink:title=" ">
<polygon fill="#999999" stroke="#666666" points="335.25,-483.75 200.75,-483.75 200.75,-453.25 335.25,-453.25 335.25,-483.75"/>
<text xml:space="preserve" text-anchor="start" x="208.75" y="-470.25" font-family="Helvetica,sans-Serif" font-size="10.00">src/sensesp/system</text>
<text xml:space="preserve" text-anchor="middle" x="268" y="-459" font-family="Helvetica,sans-Serif" font-size="10.00">/async_response_handler.h</text>
</a>
</g>
</g>
<!-- Node2 -->
<g id="Node000002" class="node">
<title>Node2</title>
<g id="a_Node000002"><a xlink:href="sensesp_8h.html" target="_top" xlink:title=" ">
<polygon fill="white" stroke="#666666" points="364.5,-141 303.5,-141 303.5,-121.75 364.5,-121.75 364.5,-141"/>
<text xml:space="preserve" text-anchor="middle" x="334" y="-127.5" font-family="Helvetica,sans-Serif" font-size="10.00">sensesp.h</text>
</a>
</g>
</g>
<!-- Node1&#45;&gt;Node2 -->
<g id="edge1_Node000001_Node000002" class="edge">
<title>Node1&#45;&gt;Node2</title>
<g id="a_edge1_Node000001_Node000002"><a xlink:title=" ">
<path fill="none" stroke="#63b8ff" d="M249.9,-452.89C239.53,-443.65 227.02,-430.91 219,-417.25 204,-391.71 200,-382.99 200,-353.38 200,-353.38 200,-353.38 200,-240.88 200,-192.03 254.43,-161.38 293.91,-145.56"/>
<polygon fill="#63b8ff" stroke="#63b8ff" points="295.08,-148.86 303.18,-142.03 292.59,-142.32 295.08,-148.86"/>
</a>
</g>
</g>
<!-- Node7 -->
<g id="Node000007" class="node">
<title>Node7</title>
<g id="a_Node000007"><a xlink:title=" ">
<polygon fill="#e0e0e0" stroke="#999999" points="179.62,-19.25 122.38,-19.25 122.38,0 179.62,0 179.62,-19.25"/>
<text xml:space="preserve" text-anchor="middle" x="151" y="-5.75" font-family="Helvetica,sans-Serif" font-size="10.00">Arduino.h</text>
</a>
</g>
</g>
<!-- Node1&#45;&gt;Node7 -->
<g id="edge8_Node000001_Node000007" class="edge">
<title>Node1&#45;&gt;Node7</title>
<g id="a_edge8_Node000001_Node000007"><a xlink:title=" ">
<path fill="none" stroke="#63b8ff" d="M200.37,-466.8C120.98,-461.97 0,-440.36 0,-353.38 0,-353.38 0,-353.38 0,-130.38 0,-73.62 66.29,-39.5 111.03,-22.94"/>
<polygon fill="#63b8ff" stroke="#63b8ff" points="112.2,-26.24 120.46,-19.61 109.86,-19.64 112.2,-26.24"/>
</a>
</g>
</g>
<!-- Node9 -->
<g id="Node000009" class="node">
<title>Node9</title>
<g id="a_Node000009"><a xlink:title=" ">
<polygon fill="#e0e0e0" stroke="#999999" points="308.25,-417.25 227.75,-417.25 227.75,-398 308.25,-398 308.25,-417.25"/>
<text xml:space="preserve" text-anchor="middle" x="268" y="-403.75" font-family="Helvetica,sans-Serif" font-size="10.00">elapsedMillis.h</text>
</a>
</g>
</g>
<!-- Node1&#45;&gt;Node9 -->
<g id="edge9_Node000001_Node000009" class="edge">
<title>Node1&#45;&gt;Node9</title>
<g id="a_edge9_Node000001_Node000009"><a xlink:title=" ">
<path fill="none" stroke="#63b8ff" d="M268,-452.95C268,-445.71 268,-436.84 268,-428.94"/>
<polygon fill="#63b8ff" stroke="#63b8ff" points="271.5,-429.21 268,-419.21 264.5,-429.21 271.5,-429.21"/>
</a>
</g>
</g>
<!-- Node10 -->
<g id="Node000010" class="node">
<title>Node10</title>
<g id="a_Node000010"><a xlink:href="sensesp__base__app_8h.html" target="_top" xlink:title=" ">
<polygon fill="white" stroke="#666666" points="434.12,-417.25 325.88,-417.25 325.88,-398 434.12,-398 434.12,-417.25"/>
<text xml:space="preserve" text-anchor="middle" x="380" y="-403.75" font-family="Helvetica,sans-Serif" font-size="10.00">sensesp_base_app.h</text>
</a>
</g>
</g>
<!-- Node1&#45;&gt;Node10 -->
<g id="edge10_Node000001_Node000010" class="edge">
<title>Node1&#45;&gt;Node10</title>
<g id="a_edge10_Node000001_Node000010"><a xlink:title=" ">
<path fill="none" stroke="#63b8ff" d="M295.97,-452.8C313.36,-443.66 335.6,-431.97 352.83,-422.91"/>
<polygon fill="#63b8ff" stroke="#63b8ff" points="354.26,-426.11 361.48,-418.36 351,-419.91 354.26,-426.11"/>
</a>
</g>
</g>
<!-- Node26 -->
<g id="Node000026" class="node">
<title>Node26</title>
<g id="a_Node000026"><a xlink:href="valueproducer_8h.html" target="_top" xlink:title=" ">
<polygon fill="white" stroke="#666666" points="890.12,-306.75 805.88,-306.75 805.88,-287.5 890.12,-287.5 890.12,-306.75"/>
<text xml:space="preserve" text-anchor="middle" x="848" y="-293.25" font-family="Helvetica,sans-Serif" font-size="10.00">valueproducer.h</text>
</a>
</g>
</g>
<!-- Node1&#45;&gt;Node26 -->
<g id="edge46_Node000001_Node000026" class="edge">
<title>Node1&#45;&gt;Node26</title>
<g id="a_edge46_Node000001_Node000026"><a xlink:title=" ">
<path fill="none" stroke="#63b8ff" d="M319.33,-452.86C354.22,-442.88 401.42,-429.34 443,-417.25 576.05,-378.58 733.45,-332.06 806.68,-310.37"/>
<polygon fill="#63b8ff" stroke="#63b8ff" points="807.24,-313.86 815.83,-307.66 805.25,-307.15 807.24,-313.86"/>
</a>
</g>
</g>
<!-- Node3 -->
<g id="Node000003" class="node">
<title>Node3</title>
<g id="a_Node000003"><a xlink:title=" ">
<polygon fill="#e0e0e0" stroke="#999999" points="286.62,-80.12 217.38,-80.12 217.38,-60.88 286.62,-60.88 286.62,-80.12"/>
<text xml:space="preserve" text-anchor="middle" x="252" y="-66.62" font-family="Helvetica,sans-Serif" font-size="10.00">ReactESP.h</text>
</a>
</g>
</g>
<!-- Node2&#45;&gt;Node3 -->
<g id="edge2_Node000002_Node000003" class="edge">
<title>Node2&#45;&gt;Node3</title>
<g id="a_edge2_Node000002_Node000003"><a xlink:title=" ">
<path fill="none" stroke="#63b8ff" d="M321.55,-121.43C308.9,-112.36 289.07,-98.12 273.81,-87.16"/>
<polygon fill="#63b8ff" stroke="#63b8ff" points="275.97,-84.4 265.8,-81.41 271.88,-90.08 275.97,-84.4"/>
</a>
</g>
</g>
<!-- Node4 -->
<g id="Node000004" class="node">
<title>Node4</title>
<g id="a_Node000004"><a xlink:title=" ">
<polygon fill="#e0e0e0" stroke="#999999" points="510.62,-80.12 459.38,-80.12 459.38,-60.88 510.62,-60.88 510.62,-80.12"/>
<text xml:space="preserve" text-anchor="middle" x="485" y="-66.62" font-family="Helvetica,sans-Serif" font-size="10.00">memory</text>
</a>
</g>
</g>
<!-- Node2&#45;&gt;Node4 -->
<g id="edge3_Node000002_Node000004" class="edge">
<title>Node2&#45;&gt;Node4</title>
<g id="a_edge3_Node000002_Node000004"><a xlink:title=" ">
<path fill="none" stroke="#63b8ff" d="M357.26,-121.3C382.31,-111.54 422.41,-95.9 451,-84.76"/>
<polygon fill="#63b8ff" stroke="#63b8ff" points="452.26,-88.02 460.3,-81.13 449.71,-81.5 452.26,-88.02"/>
</a>
</g>
</g>
<!-- Node5 -->
<g id="Node000005" class="node">
<title>Node5</title>
<g id="a_Node000005"><a xlink:href="local__debug_8h.html" target="_top" xlink:title=" ">
<polygon fill="white" stroke="#666666" points="415.62,-85.75 304.38,-85.75 304.38,-55.25 415.62,-55.25 415.62,-85.75"/>
<text xml:space="preserve" text-anchor="start" x="312.38" y="-72.25" font-family="Helvetica,sans-Serif" font-size="10.00">sensesp/system/local</text>
<text xml:space="preserve" text-anchor="middle" x="360" y="-61" font-family="Helvetica,sans-Serif" font-size="10.00">_debug.h</text>
</a>
</g>
</g>
<!-- Node2&#45;&gt;Node5 -->
<g id="edge4_Node000002_Node000005" class="edge">
<title>Node2&#45;&gt;Node5</title>
<g id="a_edge4_Node000002_Node000005"><a xlink:title=" ">
<path fill="none" stroke="#63b8ff" d="M337.95,-121.43C340.9,-114.76 345.08,-105.28 349.01,-96.38"/>
<polygon fill="#63b8ff" stroke="#63b8ff" points="352.13,-97.98 352.97,-87.42 345.73,-95.15 352.13,-97.98"/>
</a>
</g>
</g>
<!-- Node6 -->
<g id="Node000006" class="node">
<title>Node6</title>
<g id="a_Node000006"><a xlink:title=" ">
<polygon fill="#e0e0e0" stroke="#999999" points="360,-19.25 278,-19.25 278,0 360,0 360,-19.25"/>
<text xml:space="preserve" text-anchor="middle" x="319" y="-5.75" font-family="Helvetica,sans-Serif" font-size="10.00">esp32&#45;hal&#45;log.h</text>
</a>
</g>
</g>
<!-- Node5&#45;&gt;Node6 -->
<g id="edge5_Node000005_Node000006" class="edge">
<title>Node5&#45;&gt;Node6</title>
<g id="a_edge5_Node000005_Node000006"><a xlink:title=" ">
<path fill="none" stroke="#63b8ff" d="M349.87,-54.95C344.4,-47.1 337.61,-37.35 331.79,-28.99"/>
<polygon fill="#63b8ff" stroke="#63b8ff" points="334.77,-27.15 326.19,-20.94 329.03,-31.15 334.77,-27.15"/>
</a>
</g>
</g>
<!-- Node5&#45;&gt;Node7 -->
<g id="edge6_Node000005_Node000007" class="edge">
<title>Node5&#45;&gt;Node7</title>
<g id="a_edge6_Node000005_Node000007"><a xlink:title=" ">
<path fill="none" stroke="#63b8ff" d="M307.8,-54.8C271.52,-44.57 223.9,-31.16 190.7,-21.81"/>
<polygon fill="#63b8ff" stroke="#63b8ff" points="192.07,-18.56 181.49,-19.21 190.17,-25.29 192.07,-18.56"/>
</a>
</g>
</g>
<!-- Node8 -->
<g id="Node000008" class="node">
<title>Node8</title>
<g id="a_Node000008"><a xlink:title=" ">
<polygon fill="#e0e0e0" stroke="#999999" points="422.25,-19.25 377.75,-19.25 377.75,0 422.25,0 422.25,-19.25"/>
<text xml:space="preserve" text-anchor="middle" x="400" y="-5.75" font-family="Helvetica,sans-Serif" font-size="10.00">Print.h</text>
</a>
</g>
</g>
<!-- Node5&#45;&gt;Node8 -->
<g id="edge7_Node000005_Node000008" class="edge">
<title>Node5&#45;&gt;Node8</title>
<g id="a_edge7_Node000005_Node000008"><a xlink:title=" ">
<path fill="none" stroke="#63b8ff" d="M369.89,-54.95C375.22,-47.1 381.85,-37.35 387.53,-28.99"/>
<polygon fill="#63b8ff" stroke="#63b8ff" points="390.26,-31.19 392.98,-20.95 384.47,-27.26 390.26,-31.19"/>
</a>
</g>
</g>
<!-- Node10&#45;&gt;Node2 -->
<g id="edge11_Node000010_Node000002" class="edge">
<title>Node10&#45;&gt;Node2</title>
<g id="a_edge11_Node000010_Node000002"><a xlink:title=" ">
<path fill="none" stroke="#63b8ff" d="M347.42,-397.58C305.5,-383.71 238,-352.89 238,-298.12 238,-298.12 238,-298.12 238,-240.88 238,-210.55 242.75,-200.43 262,-177 272.56,-164.14 287.86,-153.93 301.63,-146.54"/>
<polygon fill="#63b8ff" stroke="#63b8ff" points="303.06,-149.74 310.42,-142.12 299.91,-143.49 303.06,-149.74"/>
</a>
</g>
</g>
<!-- Node10&#45;&gt;Node4 -->
<g id="edge12_Node000010_Node000004" class="edge">
<title>Node10&#45;&gt;Node4</title>
<g id="a_edge12_Node000010_Node000004"><a xlink:title=" ">
<path fill="none" stroke="#63b8ff" d="M434.59,-401.85C576.13,-388.72 944,-349.66 944,-298.12 944,-298.12 944,-298.12 944,-185.62 944,-98.96 631.93,-77.62 522.43,-72.8"/>
<polygon fill="#63b8ff" stroke="#63b8ff" points="522.64,-69.31 512.51,-72.39 522.35,-76.3 522.64,-69.31"/>
</a>
</g>
</g>
<!-- Node11 -->
<g id="Node000011" class="node">
<title>Node11</title>
<g id="a_Node000011"><a xlink:title=" ">
<polygon fill="#e0e0e0" stroke="#999999" points="394,-362 336,-362 336,-342.75 394,-342.75 394,-362"/>
<text xml:space="preserve" text-anchor="middle" x="365" y="-348.5" font-family="Helvetica,sans-Serif" font-size="10.00">esp_log.h</text>
</a>
</g>
</g>
<!-- Node10&#45;&gt;Node11 -->
<g id="edge13_Node000010_Node000011" class="edge">
<title>Node10&#45;&gt;Node11</title>
<g id="a_edge13_Node000010_Node000011"><a xlink:title=" ">
<path fill="none" stroke="#63b8ff" d="M377.52,-397.83C375.65,-391.17 372.99,-381.74 370.61,-373.28"/>
<polygon fill="#63b8ff" stroke="#63b8ff" points="374.02,-372.49 367.94,-363.82 367.28,-374.39 374.02,-372.49"/>
</a>
</g>
</g>
<!-- Node12 -->
<g id="Node000012" class="node">
<title>Node12</title>
<g id="a_Node000012"><a xlink:href="filesystem_8h.html" target="_top" xlink:title=" ">
<polygon fill="white" stroke="#666666" points="172.12,-362 27.88,-362 27.88,-342.75 172.12,-342.75 172.12,-362"/>
<text xml:space="preserve" text-anchor="middle" x="100" y="-348.5" font-family="Helvetica,sans-Serif" font-size="10.00">sensesp/system/filesystem.h</text>
</a>
</g>
</g>
<!-- Node10&#45;&gt;Node12 -->
<g id="edge14_Node000010_Node000012" class="edge">
<title>Node10&#45;&gt;Node12</title>
<g id="a_edge14_Node000010_Node000012"><a xlink:title=" ">
<path fill="none" stroke="#63b8ff" d="M332.18,-397.53C284.26,-388.42 210.41,-374.37 158.9,-364.58"/>
<polygon fill="#63b8ff" stroke="#63b8ff" points="159.58,-361.14 149.11,-362.71 158.28,-368.02 159.58,-361.14"/>
</a>
</g>
</g>
<!-- Node15 -->
<g id="Node000015" class="node">
<title>Node15</title>
<g id="a_Node000015"><a xlink:href="observablevalue_8h.html" target="_top" xlink:title=" ">
<polygon fill="white" stroke="#666666" points="581.88,-362 412.12,-362 412.12,-342.75 581.88,-342.75 581.88,-362"/>
<text xml:space="preserve" text-anchor="middle" x="497" y="-348.5" font-family="Helvetica,sans-Serif" font-size="10.00">sensesp/system/observablevalue.h</text>
</a>
</g>
</g>
<!-- Node10&#45;&gt;Node15 -->
<g id="edge17_Node000010_Node000015" class="edge">
<title>Node10&#45;&gt;Node15</title>
<g id="a_edge17_Node000010_Node000015"><a xlink:title=" ">
<path fill="none" stroke="#63b8ff" d="M399.85,-397.59C418.17,-389.25 445.65,-376.75 466.71,-367.16"/>
<polygon fill="#63b8ff" stroke="#63b8ff" points="468.03,-370.41 475.68,-363.08 465.13,-364.04 468.03,-370.41"/>
</a>
</g>
</g>
<!-- Node13 -->
<g id="Node000013" class="node">
<title>Node13</title>
<g id="a_Node000013"><a xlink:href="resettable_8h.html" target="_top" xlink:title=" ">
<polygon fill="white" stroke="#666666" points="133.5,-306.75 66.5,-306.75 66.5,-287.5 133.5,-287.5 133.5,-306.75"/>
<text xml:space="preserve" text-anchor="middle" x="100" y="-293.25" font-family="Helvetica,sans-Serif" font-size="10.00">resettable.h</text>
</a>
</g>
</g>
<!-- Node12&#45;&gt;Node13 -->
<g id="edge15_Node000012_Node000013" class="edge">
<title>Node12&#45;&gt;Node13</title>
<g id="a_edge15_Node000012_Node000013"><a xlink:title=" ">
<path fill="none" stroke="#63b8ff" d="M100,-342.58C100,-336.07 100,-326.92 100,-318.62"/>
<polygon fill="#63b8ff" stroke="#63b8ff" points="103.5,-318.62 100,-308.62 96.5,-318.62 103.5,-318.62"/>
</a>
</g>
</g>
<!-- Node14 -->
<g id="Node000014" class="node">
<title>Node14</title>
<g id="a_Node000014"><a xlink:title=" ">
<polygon fill="#e0e0e0" stroke="#999999" points="121.12,-251.5 78.88,-251.5 78.88,-232.25 121.12,-232.25 121.12,-251.5"/>
<text xml:space="preserve" text-anchor="middle" x="100" y="-238" font-family="Helvetica,sans-Serif" font-size="10.00">queue</text>
</a>
</g>
</g>
<!-- Node13&#45;&gt;Node14 -->
<g id="edge16_Node000013_Node000014" class="edge">
<title>Node13&#45;&gt;Node14</title>
<g id="a_edge16_Node000013_Node000014"><a xlink:title=" ">
<path fill="none" stroke="#63b8ff" d="M100,-287.33C100,-280.82 100,-271.67 100,-263.37"/>
<polygon fill="#63b8ff" stroke="#63b8ff" points="103.5,-263.37 100,-253.37 96.5,-263.37 103.5,-263.37"/>
</a>
</g>
</g>
<!-- Node16 -->
<g id="Node000016" class="node">
<title>Node16</title>
<g id="a_Node000016"><a xlink:href="saveable_8h.html" target="_top" xlink:title=" ">
<polygon fill="white" stroke="#666666" points="367.62,-251.5 304.38,-251.5 304.38,-232.25 367.62,-232.25 367.62,-251.5"/>
<text xml:space="preserve" text-anchor="middle" x="336" y="-238" font-family="Helvetica,sans-Serif" font-size="10.00">saveable.h</text>
</a>
</g>
</g>
<!-- Node15&#45;&gt;Node16 -->
<g id="edge18_Node000015_Node000016" class="edge">
<title>Node15&#45;&gt;Node16</title>
<g id="a_edge18_Node000015_Node000016"><a xlink:title=" ">
<path fill="none" stroke="#63b8ff" d="M476.18,-342.4C458.06,-334.2 431.4,-321.17 410,-306.75 389.02,-292.61 367.38,-273.28 352.97,-259.6"/>
<polygon fill="#63b8ff" stroke="#63b8ff" points="355.71,-257.38 346.08,-252.96 350.85,-262.42 355.71,-257.38"/>
</a>
</g>
</g>
<!-- Node19 -->
<g id="Node000019" class="node">
<title>Node19</title>
<g id="a_Node000019"><a xlink:href="observable_8h.html" target="_top" xlink:title=" ">
<polygon fill="white" stroke="#666666" points="689.75,-251.5 618.25,-251.5 618.25,-232.25 689.75,-232.25 689.75,-251.5"/>
<text xml:space="preserve" text-anchor="middle" x="654" y="-238" font-family="Helvetica,sans-Serif" font-size="10.00">observable.h</text>
</a>
</g>
</g>
<!-- Node15&#45;&gt;Node19 -->
<g id="edge26_Node000015_Node000019" class="edge">
<title>Node15&#45;&gt;Node19</title>
<g id="a_edge26_Node000015_Node000019"><a xlink:title=" ">
<path fill="none" stroke="#63b8ff" d="M510.12,-342.31C536.96,-323.76 598.45,-281.26 631.69,-258.29"/>
<polygon fill="#63b8ff" stroke="#63b8ff" points="633.55,-261.26 639.79,-252.7 629.57,-255.5 633.55,-261.26"/>
</a>
</g>
</g>
<!-- Node23 -->
<g id="Node000023" class="node">
<title>Node23</title>
<g id="a_Node000023"><a xlink:href="config__item_8h.html" target="_top" xlink:title=" ">
<polygon fill="white" stroke="#666666" points="543.38,-306.75 418.62,-306.75 418.62,-287.5 543.38,-287.5 543.38,-306.75"/>
<text xml:space="preserve" text-anchor="middle" x="481" y="-293.25" font-family="Helvetica,sans-Serif" font-size="10.00">sensesp/ui/config_item.h</text>
</a>
</g>
</g>
<!-- Node15&#45;&gt;Node23 -->
<g id="edge30_Node000015_Node000023" class="edge">
<title>Node15&#45;&gt;Node23</title>
<g id="a_edge30_Node000015_Node000023"><a xlink:title=" ">
<path fill="none" stroke="#63b8ff" d="M494.36,-342.58C492.36,-335.92 489.52,-326.49 486.98,-318.03"/>
<polygon fill="#63b8ff" stroke="#63b8ff" points="490.36,-317.13 484.14,-308.56 483.66,-319.14 490.36,-317.13"/>
</a>
</g>
</g>
<!-- Node15&#45;&gt;Node26 -->
<g id="edge38_Node000015_Node000026" class="edge">
<title>Node15&#45;&gt;Node26</title>
<g id="a_edge38_Node000015_Node000026"><a xlink:title=" ">
<path fill="none" stroke="#63b8ff" d="M556.94,-342.28C623.62,-332.17 730.37,-315.97 794.38,-306.26"/>
<polygon fill="#63b8ff" stroke="#63b8ff" points="794.57,-309.77 803.93,-304.81 793.52,-302.85 794.57,-309.77"/>
</a>
</g>
</g>
<!-- Node16&#45;&gt;Node2 -->
<g id="edge19_Node000016_Node000002" class="edge">
<title>Node16&#45;&gt;Node2</title>
<g id="a_edge19_Node000016_Node000002"><a xlink:title=" ">
<path fill="none" stroke="#63b8ff" d="M341.13,-231.86C347.49,-219.56 357.04,-196.79 353,-177 351.21,-168.24 347.64,-159.07 344.07,-151.34"/>
<polygon fill="#63b8ff" stroke="#63b8ff" points="347.32,-150 339.73,-142.61 341.05,-153.12 347.32,-150"/>
</a>
</g>
</g>
<!-- Node16&#45;&gt;Node7 -->
<g id="edge21_Node000016_Node000007" class="edge">
<title>Node16&#45;&gt;Node7</title>
<g id="a_edge21_Node000016_Node000007"><a xlink:title=" ">
<path fill="none" stroke="#63b8ff" d="M316.69,-231.88C300.9,-223.93 278.54,-211.28 262,-196.25 216.74,-155.13 209.5,-139.32 180,-85.75 170.1,-67.78 162.02,-45.72 156.93,-30.17"/>
<polygon fill="#63b8ff" stroke="#63b8ff" points="160.3,-29.23 153.96,-20.74 153.62,-31.33 160.3,-29.23"/>
</a>
</g>
</g>
<!-- Node17 -->
<g id="Node000017" class="node">
<title>Node17</title>
<g id="a_Node000017"><a xlink:title=" ">
<polygon fill="#e0e0e0" stroke="#999999" points="568.12,-141 489.88,-141 489.88,-121.75 568.12,-121.75 568.12,-141"/>
<text xml:space="preserve" text-anchor="middle" x="529" y="-127.5" font-family="Helvetica,sans-Serif" font-size="10.00">ArduinoJson.h</text>
</a>
</g>
</g>
<!-- Node16&#45;&gt;Node17 -->
<g id="edge20_Node000016_Node000017" class="edge">
<title>Node16&#45;&gt;Node17</title>
<g id="a_edge20_Node000016_Node000017"><a xlink:title=" ">
<path fill="none" stroke="#63b8ff" d="M352.12,-231.81C385.47,-213.06 462.3,-169.87 502.84,-147.08"/>
<polygon fill="#63b8ff" stroke="#63b8ff" points="504.47,-150.18 511.47,-142.23 501.04,-144.08 504.47,-150.18"/>
</a>
</g>
</g>
<!-- Node18 -->
<g id="Node000018" class="node">
<title>Node18</title>
<g id="a_Node000018"><a xlink:href="serializable_8h.html" target="_top" xlink:title=" ">
<polygon fill="white" stroke="#666666" points="344.5,-196.25 271.5,-196.25 271.5,-177 344.5,-177 344.5,-196.25"/>
<text xml:space="preserve" text-anchor="middle" x="308" y="-182.75" font-family="Helvetica,sans-Serif" font-size="10.00">serializable.h</text>
</a>
</g>
</g>
<!-- Node16&#45;&gt;Node18 -->
<g id="edge22_Node000016_Node000018" class="edge">
<title>Node16&#45;&gt;Node18</title>
<g id="a_edge22_Node000016_Node000018"><a xlink:title=" ">
<path fill="none" stroke="#63b8ff" d="M331.38,-232.08C327.75,-225.19 322.57,-215.34 318.01,-206.66"/>
<polygon fill="#63b8ff" stroke="#63b8ff" points="321.18,-205.17 313.43,-197.95 314.98,-208.43 321.18,-205.17"/>
</a>
</g>
</g>
<!-- Node18&#45;&gt;Node2 -->
<g id="edge23_Node000018_Node000002" class="edge">
<title>Node18&#45;&gt;Node2</title>
<g id="a_edge23_Node000018_Node000002"><a xlink:title=" ">
<path fill="none" stroke="#63b8ff" d="M312.29,-176.83C315.62,-170.01 320.36,-160.31 324.56,-151.7"/>
<polygon fill="#63b8ff" stroke="#63b8ff" points="327.71,-153.24 328.95,-142.72 321.42,-150.17 327.71,-153.24"/>
</a>
</g>
</g>
<!-- Node18&#45;&gt;Node7 -->
<g id="edge25_Node000018_Node000007" class="edge">
<title>Node18&#45;&gt;Node7</title>
<g id="a_edge25_Node000018_Node000007"><a xlink:title=" ">
<path fill="none" stroke="#63b8ff" d="M298.18,-176.67C279.74,-159.68 238.98,-121.24 208,-85.75 191.75,-67.13 174.85,-44.35 163.71,-28.79"/>
<polygon fill="#63b8ff" stroke="#63b8ff" points="166.8,-27.1 158.16,-20.96 161.09,-31.14 166.8,-27.1"/>
</a>
</g>
</g>
<!-- Node18&#45;&gt;Node17 -->
<g id="edge24_Node000018_Node000017" class="edge">
<title>Node18&#45;&gt;Node17</title>
<g id="a_edge24_Node000018_Node000017"><a xlink:title=" ">
<path fill="none" stroke="#63b8ff" d="M344.99,-176.71C382.06,-167.78 439.31,-153.98 480.11,-144.16"/>
<polygon fill="#63b8ff" stroke="#63b8ff" points="480.77,-147.6 489.68,-141.85 479.14,-140.79 480.77,-147.6"/>
</a>
</g>
</g>
<!-- Node20 -->
<g id="Node000020" class="node">
<title>Node20</title>
<g id="a_Node000020"><a xlink:title=" ">
<polygon fill="#e0e0e0" stroke="#999999" points="656.12,-196.25 589.88,-196.25 589.88,-177 656.12,-177 656.12,-196.25"/>
<text xml:space="preserve" text-anchor="middle" x="623" y="-182.75" font-family="Helvetica,sans-Serif" font-size="10.00">forward_list</text>
</a>
</g>
</g>
<!-- Node19&#45;&gt;Node20 -->
<g id="edge27_Node000019_Node000020" class="edge">
<title>Node19&#45;&gt;Node20</title>
<g id="a_edge27_Node000019_Node000020"><a xlink:title=" ">
<path fill="none" stroke="#63b8ff" d="M648.88,-232.08C644.82,-225.11 639.01,-215.12 633.91,-206.37"/>
<polygon fill="#63b8ff" stroke="#63b8ff" points="637.05,-204.8 628.99,-197.92 631,-208.32 637.05,-204.8"/>
</a>
</g>
</g>
<!-- Node21 -->
<g id="Node000021" class="node">
<title>Node21</title>
<g id="a_Node000021"><a xlink:title=" ">
<polygon fill="#e0e0e0" stroke="#999999" points="732,-196.25 674,-196.25 674,-177 732,-177 732,-196.25"/>
<text xml:space="preserve" text-anchor="middle" x="703" y="-182.75" font-family="Helvetica,sans-Serif" font-size="10.00">functional</text>
</a>
</g>
</g>
<!-- Node19&#45;&gt;Node21 -->
<g id="edge28_Node000019_Node000021" class="edge">
<title>Node19&#45;&gt;Node21</title>
<g id="a_edge28_Node000019_Node000021"><a xlink:title=" ">
<path fill="none" stroke="#63b8ff" d="M662.09,-232.08C668.86,-224.73 678.72,-214.01 687.06,-204.94"/>
<polygon fill="#63b8ff" stroke="#63b8ff" points="689.51,-207.45 693.71,-197.72 684.36,-202.71 689.51,-207.45"/>
</a>
</g>
</g>
<!-- Node22 -->
<g id="Node000022" class="node">
<title>Node22</title>
<g id="a_Node000022"><a xlink:title=" ">
<polygon fill="#e0e0e0" stroke="#999999" points="571.5,-196.25 528.5,-196.25 528.5,-177 571.5,-177 571.5,-196.25"/>
<text xml:space="preserve" text-anchor="middle" x="550" y="-182.75" font-family="Helvetica,sans-Serif" font-size="10.00">vector</text>
</a>
</g>
</g>
<!-- Node19&#45;&gt;Node22 -->
<g id="edge29_Node000019_Node000022" class="edge">
<title>Node19&#45;&gt;Node22</title>
<g id="a_edge29_Node000019_Node000022"><a xlink:title=" ">
<path fill="none" stroke="#63b8ff" d="M636.36,-231.84C620.37,-223.66 596.54,-211.46 577.96,-201.94"/>
<polygon fill="#63b8ff" stroke="#63b8ff" points="579.57,-198.83 569.08,-197.39 576.38,-205.07 579.57,-198.83"/>
</a>
</g>
</g>
<!-- Node23&#45;&gt;Node4 -->
<g id="edge32_Node000023_Node000004" class="edge">
<title>Node23&#45;&gt;Node4</title>
<g id="a_edge32_Node000023_Node000004"><a xlink:title=" ">
<path fill="none" stroke="#63b8ff" d="M480.75,-287.04C480.08,-261.19 478.49,-184.97 481,-121.75 481.39,-111.88 482.22,-100.95 483.01,-91.81"/>
<polygon fill="#63b8ff" stroke="#63b8ff" points="486.5,-92.17 483.94,-81.89 479.53,-91.52 486.5,-92.17"/>
</a>
</g>
</g>
<!-- Node23&#45;&gt;Node7 -->
<g id="edge35_Node000023_Node000007" class="edge">
<title>Node23&#45;&gt;Node7</title>
<g id="a_edge35_Node000023_Node000007"><a xlink:title=" ">
<path fill="none" stroke="#63b8ff" d="M418.26,-292.33C379.87,-287.42 331.32,-276.34 295,-251.5 213.59,-195.82 170.89,-77.57 156.58,-30.53"/>
<polygon fill="#63b8ff" stroke="#63b8ff" points="159.94,-29.56 153.78,-20.95 153.23,-31.53 159.94,-29.56"/>
</a>
</g>
</g>
<!-- Node23&#45;&gt;Node16 -->
<g id="edge37_Node000023_Node000016" class="edge">
<title>Node23&#45;&gt;Node16</title>
<g id="a_edge37_Node000023_Node000016"><a xlink:title=" ">
<path fill="none" stroke="#63b8ff" d="M456.4,-287.09C433.07,-278.52 397.76,-265.56 371.4,-255.88"/>
<polygon fill="#63b8ff" stroke="#63b8ff" points="372.73,-252.64 362.14,-252.47 370.32,-259.21 372.73,-252.64"/>
</a>
</g>
</g>
<!-- Node23&#45;&gt;Node17 -->
<g id="edge36_Node000023_Node000017" class="edge">
<title>Node23&#45;&gt;Node17</title>
<g id="a_edge36_Node000023_Node000017"><a xlink:title=" ">
<path fill="none" stroke="#63b8ff" d="M483.58,-287.32C491.04,-261.89 512.74,-187.85 523.21,-152.12"/>
<polygon fill="#63b8ff" stroke="#63b8ff" points="526.53,-153.26 525.98,-142.67 519.81,-151.29 526.53,-153.26"/>
</a>
</g>
</g>
<!-- Node23&#45;&gt;Node22 -->
<g id="edge33_Node000023_Node000022" class="edge">
<title>Node23&#45;&gt;Node22</title>
<g id="a_edge33_Node000023_Node000022"><a xlink:title=" ">
<path fill="none" stroke="#63b8ff" d="M519.94,-287.11C538.82,-280.56 559.78,-269.58 571,-251.5 579.83,-237.27 572.17,-218.93 563.73,-205.56"/>
<polygon fill="#63b8ff" stroke="#63b8ff" points="566.84,-203.9 558.25,-197.69 561.09,-207.9 566.84,-203.9"/>
</a>
</g>
</g>
<!-- Node24 -->
<g id="Node000024" class="node">
<title>Node24</title>
<g id="a_Node000024"><a xlink:title=" ">
<polygon fill="#e0e0e0" stroke="#999999" points="562.38,-251.5 527.62,-251.5 527.62,-232.25 562.38,-232.25 562.38,-251.5"/>
<text xml:space="preserve" text-anchor="middle" x="545" y="-238" font-family="Helvetica,sans-Serif" font-size="10.00">map</text>
</a>
</g>
</g>
<!-- Node23&#45;&gt;Node24 -->
<g id="edge31_Node000023_Node000024" class="edge">
<title>Node23&#45;&gt;Node24</title>
<g id="a_edge31_Node000023_Node000024"><a xlink:title=" ">
<path fill="none" stroke="#63b8ff" d="M491.86,-287.09C501.11,-279.4 514.62,-268.15 525.71,-258.93"/>
<polygon fill="#63b8ff" stroke="#63b8ff" points="527.69,-261.83 533.14,-252.74 523.21,-256.45 527.69,-261.83"/>
</a>
</g>
</g>
<!-- Node25 -->
<g id="Node000025" class="node">
<title>Node25</title>
<g id="a_Node000025"><a xlink:title=" ">
<polygon fill="#e0e0e0" stroke="#999999" points="434.12,-251.5 385.88,-251.5 385.88,-232.25 434.12,-232.25 434.12,-251.5"/>
<text xml:space="preserve" text-anchor="middle" x="410" y="-238" font-family="Helvetica,sans-Serif" font-size="10.00">cstddef</text>
</a>
</g>
</g>
<!-- Node23&#45;&gt;Node25 -->
<g id="edge34_Node000023_Node000025" class="edge">
<title>Node23&#45;&gt;Node25</title>
<g id="a_edge34_Node000023_Node000025"><a xlink:title=" ">
<path fill="none" stroke="#63b8ff" d="M468.96,-287.09C458.59,-279.32 443.4,-267.92 431.03,-258.65"/>
<polygon fill="#63b8ff" stroke="#63b8ff" points="433.18,-255.88 423.08,-252.68 428.98,-261.48 433.18,-255.88"/>
</a>
</g>
</g>
<!-- Node26&#45;&gt;Node4 -->
<g id="edge40_Node000026_Node000004" class="edge">
<title>Node26&#45;&gt;Node4</title>
<g id="a_edge40_Node000026_Node000004"><a xlink:title=" ">
<path fill="none" stroke="#63b8ff" d="M856.22,-287.01C863.28,-278.52 872.96,-265.14 877,-251.5 879.43,-243.3 877.69,-240.78 877,-232.25 872.67,-178.7 873.95,-149.59 828,-121.75 777.08,-90.9 600.01,-77.72 522.18,-73.32"/>
<polygon fill="#63b8ff" stroke="#63b8ff" points="522.69,-69.85 512.52,-72.8 522.31,-76.84 522.69,-69.85"/>
</a>
</g>
</g>
<!-- Node26&#45;&gt;Node17 -->
<g id="edge39_Node000026_Node000017" class="edge">
<title>Node26&#45;&gt;Node17</title>
<g id="a_edge39_Node000026_Node000017"><a xlink:title=" ">
<path fill="none" stroke="#63b8ff" d="M851.54,-287.32C859.62,-265.58 876.7,-208.83 849,-177 814.74,-137.63 661.19,-131.92 579.88,-131.73"/>
<polygon fill="#63b8ff" stroke="#63b8ff" points="579.95,-128.23 569.95,-131.74 579.95,-135.23 579.95,-128.23"/>
</a>
</g>
</g>
<!-- Node26&#45;&gt;Node19 -->
<g id="edge41_Node000026_Node000019" class="edge">
<title>Node26&#45;&gt;Node19</title>
<g id="a_edge41_Node000026_Node000019"><a xlink:title=" ">
<path fill="none" stroke="#63b8ff" d="M815.09,-287.09C782.9,-278.26 733.66,-264.74 698.1,-254.98"/>
<polygon fill="#63b8ff" stroke="#63b8ff" points="699.1,-251.62 688.53,-252.35 697.25,-258.38 699.1,-251.62"/>
</a>
</g>
</g>
<!-- Node27 -->
<g id="Node000027" class="node">
<title>Node27</title>
<g id="a_Node000027"><a xlink:href="valueconsumer_8h.html" target="_top" xlink:title=" ">
<polygon fill="white" stroke="#666666" points="839.75,-196.25 750.25,-196.25 750.25,-177 839.75,-177 839.75,-196.25"/>
<text xml:space="preserve" text-anchor="middle" x="795" y="-182.75" font-family="Helvetica,sans-Serif" font-size="10.00">valueconsumer.h</text>
</a>
</g>
</g>
<!-- Node26&#45;&gt;Node27 -->
<g id="edge42_Node000026_Node000027" class="edge">
<title>Node26&#45;&gt;Node27</title>
<g id="a_edge42_Node000026_Node000027"><a xlink:title=" ">
<path fill="none" stroke="#63b8ff" d="M843.66,-287.25C835.12,-269.76 815.95,-230.52 804.38,-206.84"/>
<polygon fill="#63b8ff" stroke="#63b8ff" points="807.6,-205.44 800.06,-197.99 801.31,-208.51 807.6,-205.44"/>
</a>
</g>
</g>
<!-- Node27&#45;&gt;Node2 -->
<g id="edge43_Node000027_Node000002" class="edge">
<title>Node27&#45;&gt;Node2</title>
<g id="a_edge43_Node000027_Node000002"><a xlink:title=" ">
<path fill="none" stroke="#63b8ff" d="M749.94,-178.26C746.92,-177.82 743.92,-177.39 741,-177 608.09,-159.11 450.04,-143.35 376.08,-136.3"/>
<polygon fill="#63b8ff" stroke="#63b8ff" points="376.75,-132.85 366.46,-135.39 376.08,-139.82 376.75,-132.85"/>
</a>
</g>
</g>
<!-- Node27&#45;&gt;Node17 -->
<g id="edge44_Node000027_Node000017" class="edge">
<title>Node27&#45;&gt;Node17</title>
<g id="a_edge44_Node000027_Node000017"><a xlink:title=" ">
<path fill="none" stroke="#63b8ff" d="M749.88,-176.59C702.57,-167.12 628.42,-152.28 579.27,-142.44"/>
<polygon fill="#63b8ff" stroke="#63b8ff" points="580.24,-139.06 569.75,-140.53 578.87,-145.93 580.24,-139.06"/>
</a>
</g>
</g>
<!-- Node28 -->
<g id="Node000028" class="node">
<title>Node28</title>
<g id="a_Node000028"><a xlink:title=" ">
<polygon fill="#e0e0e0" stroke="#999999" points="819.12,-141 770.88,-141 770.88,-121.75 819.12,-121.75 819.12,-141"/>
<text xml:space="preserve" text-anchor="middle" x="795" y="-127.5" font-family="Helvetica,sans-Serif" font-size="10.00">stdint.h</text>
</a>
</g>
</g>
<!-- Node27&#45;&gt;Node28 -->
<g id="edge45_Node000027_Node000028" class="edge">
<title>Node27&#45;&gt;Node28</title>
<g id="a_edge45_Node000027_Node000028"><a xlink:title=" ">
<path fill="none" stroke="#63b8ff" d="M795,-176.83C795,-170.32 795,-161.17 795,-152.87"/>
<polygon fill="#63b8ff" stroke="#63b8ff" points="798.5,-152.87 795,-142.87 791.5,-152.87 798.5,-152.87"/>
</a>
</g>
</g>
</g>
</svg>

<g id="navigator" transform="translate(0 0)" fill="#404254">
  <rect fill="#f2f5e9" fill-opacity="0.5" stroke="#606060" stroke-width=".5" x="0" y="0" width="60" height="60"/>
  <use id="zoomplus" xlink:href="#zoomPlus" x="17" y="9" onmousedown="handleZoom(evt,'in')"/>
  <use id="zoomminus" xlink:href="#zoomMin" x="42" y="9" onmousedown="handleZoom(evt,'out')"/>
  <use id="reset" xlink:href="#resetDef" x="30" y="36" onmousedown="handleReset()"/>
   <use id="arrowup" xlink:href="#arrowUp" x="0" y="0" onmousedown="handlePan(0,-1)"/>
  <use id="arrowright" xlink:href="#arrowRight" x="0" y="0" onmousedown="handlePan(1,0)"/>
  <use id="arrowdown" xlink:href="#arrowDown" x="0" y="0" onmousedown="handlePan(0,1)"/>
  <use id="arrowleft" xlink:href="#arrowLeft" x="0" y="0" onmousedown="handlePan(-1,0)"/>
</g>
<svg viewBox="0 0 15 15" width="100%" height="30px" preserveAspectRatio="xMaxYMin meet">
 <g id="arrow_out" transform="scale(0.3 0.3)">
  <a xlink:href="async__response__handler_8h__incl_org.svg" target="_base">
   <rect id="button" ry="5" rx="5" y="6" x="6" height="38" width="38"
        fill="#f2f5e9" fill-opacity="0.5" stroke="#606060" stroke-width="1.0"/>
   <path id="arrow"
     d="M 11.500037,31.436501 C 11.940474,20.09759 22.043105,11.32322 32.158766,21.979434 L 37.068811,17.246167 C 37.068811,17.246167 37.088388,32 37.088388,32 L 22.160133,31.978069 C 22.160133,31.978069 26.997745,27.140456 26.997745,27.140456 C 18.528582,18.264221 13.291696,25.230495 11.500037,31.436501 z"
     style="fill:#404040;"/>
  </a>
 </g>
</svg>

<style type='text/css'>
<![CDATA[
[data-mouse-over-selected='false'] { opacity: 0.7; }
[data-mouse-over-selected='true']  { opacity: 1.0; }
]]>
</style>
<script type="application/ecmascript"><![CDATA[
document.addEventListener('DOMContentLoaded', (event) => {
  highlightEdges();
  highlightAdjacentNodes();
});
]]></script>
</svg>
