<?xml version="1.0" encoding="UTF-8" standalone="no"?>
<!DOCTYPE svg PUBLIC "-//W3C//DTD SVG 1.1//EN"
 "http://www.w3.org/Graphics/SVG/1.1/DTD/svg11.dtd">
<!-- Generated by graphviz version 14.1.1 (20251213.1925)
 -->
<!-- Title: src/sensesp/net/web/base_command_handler.h Pages: 1 -->
<svg width="1138pt" height="172pt"
 viewBox="0.00 0.00 1138.00 172.00" xmlns="http://www.w3.org/2000/svg" xmlns:xlink="http://www.w3.org/1999/xlink">
<g id="graph0" class="graph" transform="scale(1 1) rotate(0) translate(4 167.5)">
<title>src/sensesp/net/web/base_command_handler.h</title>
<!-- Node1 -->
<g id="Node000001" class="node">
<title>Node1</title>
<g id="a_Node000001"><a xlink:title=" ">
<polygon fill="#999999" stroke="#666666" points="600.5,-163.5 468.25,-163.5 468.25,-133 600.5,-133 600.5,-163.5"/>
<text xml:space="preserve" text-anchor="start" x="476.25" y="-150" font-family="Helvetica,sans-Serif" font-size="10.00">src/sensesp/net/web</text>
<text xml:space="preserve" text-anchor="middle" x="534.38" y="-138.75" font-family="Helvetica,sans-Serif" font-size="10.00">/base_command_handler.h</text>
</a>
</g>
</g>
<!-- Node2 -->
<g id="Node000002" class="node">
<title>Node2</title>
<g id="a_Node000002"><a xlink:href="base__command__handler_8cpp.html" target="_top" xlink:title=" ">
<polygon fill="white" stroke="#666666" points="536.75,-97 394,-97 394,-66.5 536.75,-66.5 536.75,-97"/>
<text xml:space="preserve" text-anchor="start" x="402" y="-83.5" font-family="Helvetica,sans-Serif" font-size="10.00">src/sensesp/net/web</text>
<text xml:space="preserve" text-anchor="middle" x="465.38" y="-72.25" font-family="Helvetica,sans-Serif" font-size="10.00">/base_command_handler.cpp</text>
</a>
</g>
</g>
<!-- Node1&#45;&gt;Node2 -->
<g id="edge1_Node000001_Node000002" class="edge">
<title>Node1&#45;&gt;Node2</title>
<g id="a_edge1_Node000001_Node000002"><a xlink:title=" ">
<path fill="none" stroke="#63b8ff" d="M510.53,-124.96C500.75,-115.82 489.69,-105.48 480.97,-97.33"/>
<polygon fill="#63b8ff" stroke="#63b8ff" points="507.92,-127.31 517.61,-131.58 512.7,-122.19 507.92,-127.31"/>
</a>
</g>
</g>
<!-- Node3 -->
<g id="Node000003" class="node">
<title>Node3</title>
<g id="a_Node000003"><a xlink:href="sensesp__app_8h.html" target="_top" xlink:title=" ">
<polygon fill="white" stroke="#666666" points="653.62,-91.38 555.12,-91.38 555.12,-72.12 653.62,-72.12 653.62,-91.38"/>
<text xml:space="preserve" text-anchor="middle" x="604.38" y="-77.88" font-family="Helvetica,sans-Serif" font-size="10.00">src/sensesp_app.h</text>
</a>
</g>
</g>
<!-- Node1&#45;&gt;Node3 -->
<g id="edge2_Node000001_Node000003" class="edge">
<title>Node1&#45;&gt;Node3</title>
<g id="a_edge2_Node000001_Node000003"><a xlink:title=" ">
<path fill="none" stroke="#63b8ff" d="M558.48,-125.04C570.96,-113.54 585.49,-100.15 594.8,-91.57"/>
<polygon fill="#63b8ff" stroke="#63b8ff" points="556.35,-122.24 551.37,-131.59 561.1,-127.39 556.35,-122.24"/>
</a>
</g>
</g>
<!-- Node4 -->
<g id="Node000004" class="node">
<title>Node4</title>
<g id="a_Node000004"><a xlink:href="networking_8cpp.html" target="_top" xlink:title=" ">
<polygon fill="white" stroke="#666666" points="154.75,-24.88 0,-24.88 0,-5.63 154.75,-5.63 154.75,-24.88"/>
<text xml:space="preserve" text-anchor="middle" x="77.38" y="-11.38" font-family="Helvetica,sans-Serif" font-size="10.00">src/sensesp/net/networking.cpp</text>
</a>
</g>
</g>
<!-- Node3&#45;&gt;Node4 -->
<g id="edge3_Node000003_Node000004" class="edge">
<title>Node3&#45;&gt;Node4</title>
<g id="a_edge3_Node000003_Node000004"><a xlink:title=" ">
<path fill="none" stroke="#63b8ff" d="M559.37,-69.18C554.67,-68.18 549.94,-67.26 545.38,-66.5 377.17,-38.41 332.49,-52.45 163.38,-30.5 152.12,-29.04 140.08,-27.21 128.68,-25.36"/>
<polygon fill="#63b8ff" stroke="#63b8ff" points="558.23,-72.51 568.75,-71.29 559.76,-65.68 558.23,-72.51"/>
</a>
</g>
</g>
<!-- Node5 -->
<g id="Node000005" class="node">
<title>Node5</title>
<g id="a_Node000005"><a xlink:href="app__command__handler_8cpp.html" target="_top" xlink:title=" ">
<polygon fill="white" stroke="#666666" points="310.12,-30.5 172.62,-30.5 172.62,0 310.12,0 310.12,-30.5"/>
<text xml:space="preserve" text-anchor="start" x="180.62" y="-17" font-family="Helvetica,sans-Serif" font-size="10.00">src/sensesp/net/web</text>
<text xml:space="preserve" text-anchor="middle" x="241.38" y="-5.75" font-family="Helvetica,sans-Serif" font-size="10.00">/app_command_handler.cpp</text>
</a>
</g>
</g>
<!-- Node3&#45;&gt;Node5 -->
<g id="edge4_Node000003_Node000005" class="edge">
<title>Node3&#45;&gt;Node5</title>
<g id="a_edge4_Node000003_Node000005"><a xlink:title=" ">
<path fill="none" stroke="#63b8ff" d="M557.68,-69.11C553.53,-68.19 549.38,-67.3 545.38,-66.5 445.64,-46.54 419.63,-47.64 319.38,-30.5 316.39,-29.99 313.34,-29.46 310.26,-28.92"/>
<polygon fill="#63b8ff" stroke="#63b8ff" points="556.59,-72.45 567.12,-71.29 558.16,-65.63 556.59,-72.45"/>
</a>
</g>
</g>
<!-- Node6 -->
<g id="Node000006" class="node">
<title>Node6</title>
<g id="a_Node000006"><a xlink:href="signalk__delta__queue_8cpp.html" target="_top" xlink:title=" ">
<polygon fill="white" stroke="#666666" points="454.5,-30.5 328.25,-30.5 328.25,0 454.5,0 454.5,-30.5"/>
<text xml:space="preserve" text-anchor="start" x="336.25" y="-17" font-family="Helvetica,sans-Serif" font-size="10.00">src/sensesp/signalk</text>
<text xml:space="preserve" text-anchor="middle" x="391.38" y="-5.75" font-family="Helvetica,sans-Serif" font-size="10.00">/signalk_delta_queue.cpp</text>
</a>
</g>
</g>
<!-- Node3&#45;&gt;Node6 -->
<g id="edge5_Node000003_Node000006" class="edge">
<title>Node3&#45;&gt;Node6</title>
<g id="a_edge5_Node000003_Node000006"><a xlink:title=" ">
<path fill="none" stroke="#63b8ff" d="M563.43,-68.35C528.12,-57.66 477.07,-42.2 439.75,-30.9"/>
<polygon fill="#63b8ff" stroke="#63b8ff" points="562.28,-71.66 572.86,-71.21 564.3,-64.96 562.28,-71.66"/>
</a>
</g>
</g>
<!-- Node7 -->
<g id="Node000007" class="node">
<title>Node7</title>
<g id="a_Node000007"><a xlink:href="signalk__put__request_8cpp.html" target="_top" xlink:title=" ">
<polygon fill="white" stroke="#666666" points="597.75,-30.5 473,-30.5 473,0 597.75,0 597.75,-30.5"/>
<text xml:space="preserve" text-anchor="start" x="481" y="-17" font-family="Helvetica,sans-Serif" font-size="10.00">src/sensesp/signalk</text>
<text xml:space="preserve" text-anchor="middle" x="535.38" y="-5.75" font-family="Helvetica,sans-Serif" font-size="10.00">/signalk_put_request.cpp</text>
</a>
</g>
</g>
<!-- Node3&#45;&gt;Node7 -->
<g id="edge6_Node000003_Node000007" class="edge">
<title>Node3&#45;&gt;Node7</title>
<g id="a_edge6_Node000003_Node000007"><a xlink:title=" ">
<path fill="none" stroke="#63b8ff" d="M586.38,-63.93C575.4,-53.66 561.5,-40.67 550.98,-30.84"/>
<polygon fill="#63b8ff" stroke="#63b8ff" points="583.98,-66.48 593.68,-70.75 588.76,-61.36 583.98,-66.48"/>
</a>
</g>
</g>
<!-- Node8 -->
<g id="Node000008" class="node">
<title>Node8</title>
<g id="a_Node000008"><a xlink:href="signalk__ws__client_8cpp.html" target="_top" xlink:title=" ">
<polygon fill="white" stroke="#666666" points="730.88,-30.5 615.88,-30.5 615.88,0 730.88,0 730.88,-30.5"/>
<text xml:space="preserve" text-anchor="start" x="623.88" y="-17" font-family="Helvetica,sans-Serif" font-size="10.00">src/sensesp/signalk</text>
<text xml:space="preserve" text-anchor="middle" x="673.38" y="-5.75" font-family="Helvetica,sans-Serif" font-size="10.00">/signalk_ws_client.cpp</text>
</a>
</g>
</g>
<!-- Node3&#45;&gt;Node8 -->
<g id="edge7_Node000003_Node000008" class="edge">
<title>Node3&#45;&gt;Node8</title>
<g id="a_edge7_Node000003_Node000008"><a xlink:title=" ">
<path fill="none" stroke="#63b8ff" d="M622.37,-63.93C633.35,-53.66 647.25,-40.67 657.77,-30.84"/>
<polygon fill="#63b8ff" stroke="#63b8ff" points="619.99,-61.36 615.07,-70.75 624.77,-66.48 619.99,-61.36"/>
</a>
</g>
</g>
<!-- Node9 -->
<g id="Node000009" class="node">
<title>Node9</title>
<g id="a_Node000009"><a xlink:href="button_8cpp.html" target="_top" xlink:title=" ">
<polygon fill="white" stroke="#666666" points="853.62,-30.5 749.12,-30.5 749.12,0 853.62,0 853.62,-30.5"/>
<text xml:space="preserve" text-anchor="start" x="757.12" y="-17" font-family="Helvetica,sans-Serif" font-size="10.00">src/sensesp/system</text>
<text xml:space="preserve" text-anchor="middle" x="801.38" y="-5.75" font-family="Helvetica,sans-Serif" font-size="10.00">/button.cpp</text>
</a>
</g>
</g>
<!-- Node3&#45;&gt;Node9 -->
<g id="edge8_Node000003_Node000009" class="edge">
<title>Node3&#45;&gt;Node9</title>
<g id="a_edge8_Node000003_Node000009"><a xlink:title=" ">
<path fill="none" stroke="#63b8ff" d="M643.09,-68.07C675.72,-57.39 722.41,-42.1 756.63,-30.9"/>
<polygon fill="#63b8ff" stroke="#63b8ff" points="642.04,-64.74 633.62,-71.17 644.21,-71.39 642.04,-64.74"/>
</a>
</g>
</g>
<!-- Node10 -->
<g id="Node000010" class="node">
<title>Node10</title>
<g id="a_Node000010"><a xlink:href="sensesp__app_8cpp.html" target="_top" xlink:title=" ">
<polygon fill="white" stroke="#666666" points="980.88,-24.88 871.88,-24.88 871.88,-5.63 980.88,-5.63 980.88,-24.88"/>
<text xml:space="preserve" text-anchor="middle" x="926.38" y="-11.38" font-family="Helvetica,sans-Serif" font-size="10.00">src/sensesp_app.cpp</text>
</a>
</g>
</g>
<!-- Node3&#45;&gt;Node10 -->
<g id="edge9_Node000003_Node000010" class="edge">
<title>Node3&#45;&gt;Node10</title>
<g id="a_edge9_Node000003_Node000010"><a xlink:title=" ">
<path fill="none" stroke="#63b8ff" d="M664.05,-69.6C716.4,-59.7 794.54,-44.66 862.38,-30.5 870.18,-28.87 878.49,-27.07 886.47,-25.31"/>
<polygon fill="#63b8ff" stroke="#63b8ff" points="663.62,-66.11 654.44,-71.41 664.92,-72.99 663.62,-66.11"/>
</a>
</g>
</g>
<!-- Node11 -->
<g id="Node000011" class="node">
<title>Node11</title>
<g id="a_Node000011"><a xlink:href="sensesp__app__builder_8h.html" target="_top" xlink:title=" ">
<polygon fill="white" stroke="#666666" points="1130.12,-24.88 998.62,-24.88 998.62,-5.63 1130.12,-5.63 1130.12,-24.88"/>
<text xml:space="preserve" text-anchor="middle" x="1064.38" y="-11.38" font-family="Helvetica,sans-Serif" font-size="10.00">src/sensesp_app_builder.h</text>
</a>
</g>
</g>
<!-- Node3&#45;&gt;Node11 -->
<g id="edge10_Node000003_Node000011" class="edge">
<title>Node3&#45;&gt;Node11</title>
<g id="a_edge10_Node000003_Node000011"><a xlink:title=" ">
<path fill="none" stroke="#63b8ff" d="M665.13,-74C741.31,-65.27 875.83,-48.97 990.38,-30.5 999.8,-28.98 1009.87,-27.17 1019.45,-25.35"/>
<polygon fill="#63b8ff" stroke="#63b8ff" points="664.91,-70.5 655.37,-75.11 665.71,-77.45 664.91,-70.5"/>
</a>
</g>
</g>
</g>
</svg>
