<?xml version="1.0" encoding="UTF-8" standalone="no"?>
<!DOCTYPE svg PUBLIC "-//W3C//DTD SVG 1.1//EN"
 "http://www.w3.org/Graphics/SVG/1.1/DTD/svg11.dtd">
<!-- Generated by graphviz version 12.1.0 (20240811.2233)
 -->
<!-- Title: src/sensesp/system/button.h Pages: 1 -->
<svg width="936pt" height="625pt"
 viewBox="0.00 0.00 936.11 624.75" xmlns="http://www.w3.org/2000/svg" xmlns:xlink="http://www.w3.org/1999/xlink">
<g id="graph0" class="graph" transform="scale(1 1) rotate(0) translate(4 620.75)">
<title>src/sensesp/system/button.h</title>
<!-- Node1 -->
<g id="Node000001" class="node">
<title>Node1</title>
<g id="a_Node000001"><a xlink:title=" ">
<polygon fill="#999999" stroke="#666666" points="170.25,-616.75 65.75,-616.75 65.75,-586.25 170.25,-586.25 170.25,-616.75"/>
<text text-anchor="start" x="73.75" y="-603.25" font-family="Helvetica,sans-Serif" font-size="10.00">src/sensesp/system</text>
<text text-anchor="middle" x="118" y="-592" font-family="Helvetica,sans-Serif" font-size="10.00">/button.h</text>
</a>
</g>
</g>
<!-- Node2 -->
<g id="Node000002" class="node">
<title>Node2</title>
<g id="a_Node000002"><a xlink:href="sensesp_8h.html" target="_top" xlink:title=" ">
<polygon fill="white" stroke="#666666" points="307.5,-141 246.5,-141 246.5,-121.75 307.5,-121.75 307.5,-141"/>
<text text-anchor="middle" x="277" y="-127.5" font-family="Helvetica,sans-Serif" font-size="10.00">sensesp.h</text>
</a>
</g>
</g>
<!-- Node1&#45;&gt;Node2 -->
<g id="edge1_Node000001_Node000002" class="edge">
<title>Node1&#45;&gt;Node2</title>
<g id="a_edge1_Node000001_Node000002"><a xlink:title=" ">
<path fill="none" stroke="#63b8ff" d="M90.63,-585.9C55.77,-565.09 0,-523.37 0,-469.5 0,-469.5 0,-469.5 0,-240.88 0,-204.82 19.27,-195.86 50,-177 107.4,-141.78 186.99,-133.55 235.08,-132.07"/>
<polygon fill="#63b8ff" stroke="#63b8ff" points="234.87,-135.57 244.79,-131.86 234.72,-128.57 234.87,-135.57"/>
</a>
</g>
</g>
<!-- Node8 -->
<g id="Node000008" class="node">
<title>Node8</title>
<g id="a_Node000008"><a xlink:title=" ">
<polygon fill="#e0e0e0" stroke="#999999" points="136,-417.25 66,-417.25 66,-398 136,-398 136,-417.25"/>
<text text-anchor="middle" x="101" y="-403.75" font-family="Helvetica,sans-Serif" font-size="10.00">AceButton.h</text>
</a>
</g>
</g>
<!-- Node1&#45;&gt;Node8 -->
<g id="edge7_Node000001_Node000008" class="edge">
<title>Node1&#45;&gt;Node8</title>
<g id="a_edge7_Node000001_Node000008"><a xlink:title=" ">
<path fill="none" stroke="#63b8ff" d="M116.69,-585.76C113.68,-551.7 106.22,-467.49 102.78,-428.73"/>
<polygon fill="#63b8ff" stroke="#63b8ff" points="106.29,-428.63 101.92,-418.98 99.31,-429.25 106.29,-428.63"/>
</a>
</g>
</g>
<!-- Node9 -->
<g id="Node000009" class="node">
<title>Node9</title>
<g id="a_Node000009"><a xlink:title=" ">
<polygon fill="#e0e0e0" stroke="#999999" points="466.25,-417.25 385.75,-417.25 385.75,-398 466.25,-398 466.25,-417.25"/>
<text text-anchor="middle" x="426" y="-403.75" font-family="Helvetica,sans-Serif" font-size="10.00">elapsedMillis.h</text>
</a>
</g>
</g>
<!-- Node1&#45;&gt;Node9 -->
<g id="edge8_Node000001_Node000009" class="edge">
<title>Node1&#45;&gt;Node9</title>
<g id="a_edge8_Node000001_Node000009"><a xlink:title=" ">
<path fill="none" stroke="#63b8ff" d="M170.08,-585.81C197.11,-577.2 230.21,-565.09 258,-550.25 301.87,-526.82 310.01,-515.85 348,-483.75 370.33,-464.88 394.31,-441.22 409.7,-425.55"/>
<polygon fill="#63b8ff" stroke="#63b8ff" points="412.16,-428.03 416.63,-418.43 407.15,-423.15 412.16,-428.03"/>
</a>
</g>
</g>
<!-- Node10 -->
<g id="Node000010" class="node">
<title>Node10</title>
<g id="a_Node000010"><a xlink:href="minimal__button_8h.html" target="_top" xlink:title=" ">
<polygon fill="white" stroke="#666666" points="249.38,-550.25 124.62,-550.25 124.62,-519.75 249.38,-519.75 249.38,-550.25"/>
<text text-anchor="start" x="132.62" y="-536.75" font-family="Helvetica,sans-Serif" font-size="10.00">sensesp/system/minimal</text>
<text text-anchor="middle" x="187" y="-525.5" font-family="Helvetica,sans-Serif" font-size="10.00">_button.h</text>
</a>
</g>
</g>
<!-- Node1&#45;&gt;Node10 -->
<g id="edge9_Node000001_Node000010" class="edge">
<title>Node1&#45;&gt;Node10</title>
<g id="a_edge9_Node000001_Node000010"><a xlink:title=" ">
<path fill="none" stroke="#63b8ff" d="M133.66,-585.86C142.39,-577.7 153.45,-567.36 163.23,-558.22"/>
<polygon fill="#63b8ff" stroke="#63b8ff" points="165.38,-561 170.3,-551.61 160.6,-555.88 165.38,-561"/>
</a>
</g>
</g>
<!-- Node3 -->
<g id="Node000003" class="node">
<title>Node3</title>
<g id="a_Node000003"><a xlink:title=" ">
<polygon fill="#e0e0e0" stroke="#999999" points="203.62,-80.12 134.38,-80.12 134.38,-60.88 203.62,-60.88 203.62,-80.12"/>
<text text-anchor="middle" x="169" y="-66.62" font-family="Helvetica,sans-Serif" font-size="10.00">ReactESP.h</text>
</a>
</g>
</g>
<!-- Node2&#45;&gt;Node3 -->
<g id="edge2_Node000002_Node000003" class="edge">
<title>Node2&#45;&gt;Node3</title>
<g id="a_edge2_Node000002_Node000003"><a xlink:title=" ">
<path fill="none" stroke="#63b8ff" d="M260.6,-121.43C243.31,-112.01 215.82,-97.02 195.46,-85.93"/>
<polygon fill="#63b8ff" stroke="#63b8ff" points="197.34,-82.96 186.89,-81.25 193.99,-89.11 197.34,-82.96"/>
</a>
</g>
</g>
<!-- Node4 -->
<g id="Node000004" class="node">
<title>Node4</title>
<g id="a_Node000004"><a xlink:href="local__debug_8h.html" target="_top" xlink:title=" ">
<polygon fill="white" stroke="#666666" points="332.62,-85.75 221.38,-85.75 221.38,-55.25 332.62,-55.25 332.62,-85.75"/>
<text text-anchor="start" x="229.38" y="-72.25" font-family="Helvetica,sans-Serif" font-size="10.00">sensesp/system/local</text>
<text text-anchor="middle" x="277" y="-61" font-family="Helvetica,sans-Serif" font-size="10.00">_debug.h</text>
</a>
</g>
</g>
<!-- Node2&#45;&gt;Node4 -->
<g id="edge3_Node000002_Node000004" class="edge">
<title>Node2&#45;&gt;Node4</title>
<g id="a_edge3_Node000002_Node000004"><a xlink:title=" ">
<path fill="none" stroke="#63b8ff" d="M277,-121.43C277,-114.98 277,-105.91 277,-97.26"/>
<polygon fill="#63b8ff" stroke="#63b8ff" points="280.5,-97.55 277,-87.55 273.5,-97.55 280.5,-97.55"/>
</a>
</g>
</g>
<!-- Node5 -->
<g id="Node000005" class="node">
<title>Node5</title>
<g id="a_Node000005"><a xlink:title=" ">
<polygon fill="#e0e0e0" stroke="#999999" points="330,-19.25 248,-19.25 248,0 330,0 330,-19.25"/>
<text text-anchor="middle" x="289" y="-5.75" font-family="Helvetica,sans-Serif" font-size="10.00">esp32&#45;hal&#45;log.h</text>
</a>
</g>
</g>
<!-- Node4&#45;&gt;Node5 -->
<g id="edge4_Node000004_Node000005" class="edge">
<title>Node4&#45;&gt;Node5</title>
<g id="a_edge4_Node000004_Node000005"><a xlink:title=" ">
<path fill="none" stroke="#63b8ff" d="M279.97,-54.95C281.44,-47.71 283.25,-38.84 284.86,-30.94"/>
<polygon fill="#63b8ff" stroke="#63b8ff" points="288.28,-31.68 286.85,-21.18 281.42,-30.28 288.28,-31.68"/>
</a>
</g>
</g>
<!-- Node6 -->
<g id="Node000006" class="node">
<title>Node6</title>
<g id="a_Node000006"><a xlink:title=" ">
<polygon fill="#e0e0e0" stroke="#999999" points="429.62,-19.25 372.38,-19.25 372.38,0 429.62,0 429.62,-19.25"/>
<text text-anchor="middle" x="401" y="-5.75" font-family="Helvetica,sans-Serif" font-size="10.00">Arduino.h</text>
</a>
</g>
</g>
<!-- Node4&#45;&gt;Node6 -->
<g id="edge5_Node000004_Node000006" class="edge">
<title>Node4&#45;&gt;Node6</title>
<g id="a_edge5_Node000004_Node000006"><a xlink:title=" ">
<path fill="none" stroke="#63b8ff" d="M307.97,-54.8C327.49,-45.53 352.54,-33.63 371.73,-24.52"/>
<polygon fill="#63b8ff" stroke="#63b8ff" points="373.08,-27.75 380.62,-20.3 370.08,-21.43 373.08,-27.75"/>
</a>
</g>
</g>
<!-- Node7 -->
<g id="Node000007" class="node">
<title>Node7</title>
<g id="a_Node000007"><a xlink:title=" ">
<polygon fill="#e0e0e0" stroke="#999999" points="230.25,-19.25 185.75,-19.25 185.75,0 230.25,0 230.25,-19.25"/>
<text text-anchor="middle" x="208" y="-5.75" font-family="Helvetica,sans-Serif" font-size="10.00">Print.h</text>
</a>
</g>
</g>
<!-- Node4&#45;&gt;Node7 -->
<g id="edge6_Node000004_Node000007" class="edge">
<title>Node4&#45;&gt;Node7</title>
<g id="a_edge6_Node000004_Node000007"><a xlink:title=" ">
<path fill="none" stroke="#63b8ff" d="M259.94,-54.95C250.04,-46.5 237.54,-35.83 227.29,-27.08"/>
<polygon fill="#63b8ff" stroke="#63b8ff" points="229.67,-24.51 219.79,-20.68 225.12,-29.84 229.67,-24.51"/>
</a>
</g>
</g>
<!-- Node10&#45;&gt;Node2 -->
<g id="edge10_Node000010_Node000002" class="edge">
<title>Node10&#45;&gt;Node2</title>
<g id="a_edge10_Node000010_Node000002"><a xlink:title=" ">
<path fill="none" stroke="#63b8ff" d="M162.06,-519.36C119.64,-492.37 38,-430.41 38,-353.38 38,-353.38 38,-353.38 38,-240.88 38,-155.37 166.41,-136.92 234.98,-133.16"/>
<polygon fill="#63b8ff" stroke="#63b8ff" points="234.9,-136.67 244.73,-132.72 234.58,-129.68 234.9,-136.67"/>
</a>
</g>
</g>
<!-- Node10&#45;&gt;Node8 -->
<g id="edge11_Node000010_Node000008" class="edge">
<title>Node10&#45;&gt;Node8</title>
<g id="a_edge11_Node000010_Node000008"><a xlink:title=" ">
<path fill="none" stroke="#63b8ff" d="M177.13,-519.62C161.46,-496.77 130.88,-452.19 113.63,-427.04"/>
<polygon fill="#63b8ff" stroke="#63b8ff" points="116.53,-425.08 107.99,-418.82 110.76,-429.04 116.53,-425.08"/>
</a>
</g>
</g>
<!-- Node10&#45;&gt;Node9 -->
<g id="edge12_Node000010_Node000009" class="edge">
<title>Node10&#45;&gt;Node9</title>
<g id="a_edge12_Node000010_Node000009"><a xlink:title=" ">
<path fill="none" stroke="#63b8ff" d="M227.94,-519.26C252.03,-510.07 282.8,-497.42 309,-483.75 343.68,-465.66 381.33,-440.38 404.29,-424.25"/>
<polygon fill="#63b8ff" stroke="#63b8ff" points="406.1,-427.26 412.24,-418.62 402.05,-421.55 406.1,-427.26"/>
</a>
</g>
</g>
<!-- Node11 -->
<g id="Node000011" class="node">
<title>Node11</title>
<g id="a_Node000011"><a xlink:href="base__button_8h.html" target="_top" xlink:title=" ">
<polygon fill="white" stroke="#666666" points="278,-483.75 166,-483.75 166,-453.25 278,-453.25 278,-483.75"/>
<text text-anchor="start" x="174" y="-470.25" font-family="Helvetica,sans-Serif" font-size="10.00">sensesp/system/base</text>
<text text-anchor="middle" x="222" y="-459" font-family="Helvetica,sans-Serif" font-size="10.00">_button.h</text>
</a>
</g>
</g>
<!-- Node10&#45;&gt;Node11 -->
<g id="edge13_Node000010_Node000011" class="edge">
<title>Node10&#45;&gt;Node11</title>
<g id="a_edge13_Node000010_Node000011"><a xlink:title=" ">
<path fill="none" stroke="#63b8ff" d="M194.94,-519.36C199.01,-511.86 204.08,-502.52 208.73,-493.96"/>
<polygon fill="#63b8ff" stroke="#63b8ff" points="211.67,-495.87 213.37,-485.41 205.52,-492.53 211.67,-495.87"/>
</a>
</g>
</g>
<!-- Node13 -->
<g id="Node000013" class="node">
<title>Node13</title>
<g id="a_Node000013"><a xlink:href="sensesp__base__app_8h.html" target="_top" xlink:title=" ">
<polygon fill="white" stroke="#666666" points="368.12,-417.25 259.88,-417.25 259.88,-398 368.12,-398 368.12,-417.25"/>
<text text-anchor="middle" x="314" y="-403.75" font-family="Helvetica,sans-Serif" font-size="10.00">sensesp_base_app.h</text>
</a>
</g>
</g>
<!-- Node10&#45;&gt;Node13 -->
<g id="edge53_Node000010_Node000013" class="edge">
<title>Node10&#45;&gt;Node13</title>
<g id="a_edge53_Node000010_Node000013"><a xlink:title=" ">
<path fill="none" stroke="#63b8ff" d="M233.39,-519.33C252.18,-511.38 272.76,-499.82 287,-483.75 300.77,-468.21 307.67,-445.13 311.03,-428.66"/>
<polygon fill="#63b8ff" stroke="#63b8ff" points="314.43,-429.53 312.69,-419.07 307.53,-428.32 314.43,-429.53"/>
</a>
</g>
</g>
<!-- Node11&#45;&gt;Node2 -->
<g id="edge15_Node000011_Node000002" class="edge">
<title>Node11&#45;&gt;Node2</title>
<g id="a_edge15_Node000011_Node000002"><a xlink:title=" ">
<path fill="none" stroke="#63b8ff" d="M206.81,-452.87C191.59,-438.44 167.28,-415.98 145,-398 123.69,-380.8 110.86,-384.32 95,-362 77.84,-337.86 76,-327.74 76,-298.12 76,-298.12 76,-298.12 76,-240.88 76,-169.31 175.89,-144.72 234.83,-136.45"/>
<polygon fill="#63b8ff" stroke="#63b8ff" points="235.06,-139.95 244.53,-135.19 234.17,-133 235.06,-139.95"/>
</a>
</g>
</g>
<!-- Node11&#45;&gt;Node8 -->
<g id="edge16_Node000011_Node000008" class="edge">
<title>Node11&#45;&gt;Node8</title>
<g id="a_edge16_Node000011_Node000008"><a xlink:title=" ">
<path fill="none" stroke="#63b8ff" d="M191.78,-452.8C172.82,-443.57 148.52,-431.75 129.83,-422.65"/>
<polygon fill="#63b8ff" stroke="#63b8ff" points="131.44,-419.54 120.92,-418.32 128.38,-425.84 131.44,-419.54"/>
</a>
</g>
</g>
<!-- Node11&#45;&gt;Node9 -->
<g id="edge17_Node000011_Node000009" class="edge">
<title>Node11&#45;&gt;Node9</title>
<g id="a_edge17_Node000011_Node000009"><a xlink:title=" ">
<path fill="none" stroke="#63b8ff" d="M272.95,-452.8C307.05,-442.95 351.4,-430.15 383.58,-420.87"/>
<polygon fill="#63b8ff" stroke="#63b8ff" points="384.32,-424.3 392.96,-418.16 382.38,-417.57 384.32,-424.3"/>
</a>
</g>
</g>
<!-- Node12 -->
<g id="Node000012" class="node">
<title>Node12</title>
<g id="a_Node000012"><a xlink:title=" ">
<polygon fill="#e0e0e0" stroke="#999999" points="377.62,-251.5 326.38,-251.5 326.38,-232.25 377.62,-232.25 377.62,-251.5"/>
<text text-anchor="middle" x="352" y="-238" font-family="Helvetica,sans-Serif" font-size="10.00">memory</text>
</a>
</g>
</g>
<!-- Node11&#45;&gt;Node12 -->
<g id="edge14_Node000011_Node000012" class="edge">
<title>Node11&#45;&gt;Node12</title>
<g id="a_edge14_Node000011_Node000012"><a xlink:title=" ">
<path fill="none" stroke="#63b8ff" d="M227.25,-452.77C232.56,-438.46 241.35,-416.26 251,-398 278.42,-346.13 318.1,-289.34 338.61,-261.03"/>
<polygon fill="#63b8ff" stroke="#63b8ff" points="341.27,-263.32 344.34,-253.18 335.62,-259.19 341.27,-263.32"/>
</a>
</g>
</g>
<!-- Node11&#45;&gt;Node13 -->
<g id="edge18_Node000011_Node000013" class="edge">
<title>Node11&#45;&gt;Node13</title>
<g id="a_edge18_Node000011_Node000013"><a xlink:title=" ">
<path fill="none" stroke="#63b8ff" d="M244.74,-452.95C258.61,-444.07 276.32,-432.74 290.35,-423.76"/>
<polygon fill="#63b8ff" stroke="#63b8ff" points="292.01,-426.86 298.54,-418.52 288.23,-420.96 292.01,-426.86"/>
</a>
</g>
</g>
<!-- Node13&#45;&gt;Node2 -->
<g id="edge19_Node000013_Node000002" class="edge">
<title>Node13&#45;&gt;Node2</title>
<g id="a_edge19_Node000013_Node000002"><a xlink:title=" ">
<path fill="none" stroke="#63b8ff" d="M312.77,-397.5C307.55,-358.78 287.14,-207.54 279.72,-152.53"/>
<polygon fill="#63b8ff" stroke="#63b8ff" points="283.21,-152.2 278.4,-142.76 276.27,-153.13 283.21,-152.2"/>
</a>
</g>
</g>
<!-- Node13&#45;&gt;Node12 -->
<g id="edge20_Node000013_Node000012" class="edge">
<title>Node13&#45;&gt;Node12</title>
<g id="a_edge20_Node000013_Node000012"><a xlink:title=" ">
<path fill="none" stroke="#63b8ff" d="M317.07,-397.81C320.11,-388.87 324.77,-374.58 328,-362 336.85,-327.53 344.46,-286.77 348.62,-262.97"/>
<polygon fill="#63b8ff" stroke="#63b8ff" points="352.02,-263.85 350.26,-253.41 345.12,-262.67 352.02,-263.85"/>
</a>
</g>
</g>
<!-- Node14 -->
<g id="Node000014" class="node">
<title>Node14</title>
<g id="a_Node000014"><a xlink:title=" ">
<polygon fill="#e0e0e0" stroke="#999999" points="438,-362 380,-362 380,-342.75 438,-342.75 438,-362"/>
<text text-anchor="middle" x="409" y="-348.5" font-family="Helvetica,sans-Serif" font-size="10.00">esp_log.h</text>
</a>
</g>
</g>
<!-- Node13&#45;&gt;Node14 -->
<g id="edge21_Node000013_Node000014" class="edge">
<title>Node13&#45;&gt;Node14</title>
<g id="a_edge21_Node000013_Node000014"><a xlink:title=" ">
<path fill="none" stroke="#63b8ff" d="M330.12,-397.59C344.58,-389.48 366.08,-377.43 382.98,-367.96"/>
<polygon fill="#63b8ff" stroke="#63b8ff" points="384.47,-371.14 391.49,-363.19 381.05,-365.03 384.47,-371.14"/>
</a>
</g>
</g>
<!-- Node15 -->
<g id="Node000015" class="node">
<title>Node15</title>
<g id="a_Node000015"><a xlink:href="filesystem_8h.html" target="_top" xlink:title=" ">
<polygon fill="white" stroke="#666666" points="248.12,-362 103.88,-362 103.88,-342.75 248.12,-342.75 248.12,-362"/>
<text text-anchor="middle" x="176" y="-348.5" font-family="Helvetica,sans-Serif" font-size="10.00">sensesp/system/filesystem.h</text>
</a>
</g>
</g>
<!-- Node13&#45;&gt;Node15 -->
<g id="edge22_Node000013_Node000015" class="edge">
<title>Node13&#45;&gt;Node15</title>
<g id="a_edge22_Node000013_Node000015"><a xlink:title=" ">
<path fill="none" stroke="#63b8ff" d="M290.59,-397.59C268.48,-389.06 235.08,-376.17 210.03,-366.51"/>
<polygon fill="#63b8ff" stroke="#63b8ff" points="211.53,-363.33 200.94,-363 209.01,-369.86 211.53,-363.33"/>
</a>
</g>
</g>
<!-- Node18 -->
<g id="Node000018" class="node">
<title>Node18</title>
<g id="a_Node000018"><a xlink:href="observablevalue_8h.html" target="_top" xlink:title=" ">
<polygon fill="white" stroke="#666666" points="625.88,-362 456.12,-362 456.12,-342.75 625.88,-342.75 625.88,-362"/>
<text text-anchor="middle" x="541" y="-348.5" font-family="Helvetica,sans-Serif" font-size="10.00">sensesp/system/observablevalue.h</text>
</a>
</g>
</g>
<!-- Node13&#45;&gt;Node18 -->
<g id="edge25_Node000013_Node000018" class="edge">
<title>Node13&#45;&gt;Node18</title>
<g id="a_edge25_Node000013_Node000018"><a xlink:title=" ">
<path fill="none" stroke="#63b8ff" d="M352.76,-397.53C391.04,-388.55 449.74,-374.78 491.4,-365.01"/>
<polygon fill="#63b8ff" stroke="#63b8ff" points="491.99,-368.47 500.92,-362.78 490.39,-361.65 491.99,-368.47"/>
</a>
</g>
</g>
<!-- Node16 -->
<g id="Node000016" class="node">
<title>Node16</title>
<g id="a_Node000016"><a xlink:href="resettable_8h.html" target="_top" xlink:title=" ">
<polygon fill="white" stroke="#666666" points="209.5,-306.75 142.5,-306.75 142.5,-287.5 209.5,-287.5 209.5,-306.75"/>
<text text-anchor="middle" x="176" y="-293.25" font-family="Helvetica,sans-Serif" font-size="10.00">resettable.h</text>
</a>
</g>
</g>
<!-- Node15&#45;&gt;Node16 -->
<g id="edge23_Node000015_Node000016" class="edge">
<title>Node15&#45;&gt;Node16</title>
<g id="a_edge23_Node000015_Node000016"><a xlink:title=" ">
<path fill="none" stroke="#63b8ff" d="M176,-342.58C176,-336.07 176,-326.92 176,-318.62"/>
<polygon fill="#63b8ff" stroke="#63b8ff" points="179.5,-318.62 176,-308.62 172.5,-318.62 179.5,-318.62"/>
</a>
</g>
</g>
<!-- Node17 -->
<g id="Node000017" class="node">
<title>Node17</title>
<g id="a_Node000017"><a xlink:title=" ">
<polygon fill="#e0e0e0" stroke="#999999" points="197.12,-251.5 154.88,-251.5 154.88,-232.25 197.12,-232.25 197.12,-251.5"/>
<text text-anchor="middle" x="176" y="-238" font-family="Helvetica,sans-Serif" font-size="10.00">queue</text>
</a>
</g>
</g>
<!-- Node16&#45;&gt;Node17 -->
<g id="edge24_Node000016_Node000017" class="edge">
<title>Node16&#45;&gt;Node17</title>
<g id="a_edge24_Node000016_Node000017"><a xlink:title=" ">
<path fill="none" stroke="#63b8ff" d="M176,-287.33C176,-280.82 176,-271.67 176,-263.37"/>
<polygon fill="#63b8ff" stroke="#63b8ff" points="179.5,-263.37 176,-253.37 172.5,-263.37 179.5,-263.37"/>
</a>
</g>
</g>
<!-- Node19 -->
<g id="Node000019" class="node">
<title>Node19</title>
<g id="a_Node000019"><a xlink:href="saveable_8h.html" target="_top" xlink:title=" ">
<polygon fill="white" stroke="#666666" points="458.62,-251.5 395.38,-251.5 395.38,-232.25 458.62,-232.25 458.62,-251.5"/>
<text text-anchor="middle" x="427" y="-238" font-family="Helvetica,sans-Serif" font-size="10.00">saveable.h</text>
</a>
</g>
</g>
<!-- Node18&#45;&gt;Node19 -->
<g id="edge26_Node000018_Node000019" class="edge">
<title>Node18&#45;&gt;Node19</title>
<g id="a_edge26_Node000018_Node000019"><a xlink:title=" ">
<path fill="none" stroke="#63b8ff" d="M515.84,-342.4C498.15,-335.05 474.88,-323.18 459,-306.75 446.87,-294.2 438.4,-276.14 433.24,-262.42"/>
<polygon fill="#63b8ff" stroke="#63b8ff" points="436.61,-261.47 430.04,-253.16 430,-263.76 436.61,-261.47"/>
</a>
</g>
</g>
<!-- Node22 -->
<g id="Node000022" class="node">
<title>Node22</title>
<g id="a_Node000022"><a xlink:href="observable_8h.html" target="_top" xlink:title=" ">
<polygon fill="white" stroke="#666666" points="721.75,-251.5 650.25,-251.5 650.25,-232.25 721.75,-232.25 721.75,-251.5"/>
<text text-anchor="middle" x="686" y="-238" font-family="Helvetica,sans-Serif" font-size="10.00">observable.h</text>
</a>
</g>
</g>
<!-- Node18&#45;&gt;Node22 -->
<g id="edge34_Node000018_Node000022" class="edge">
<title>Node18&#45;&gt;Node22</title>
<g id="a_edge34_Node000018_Node000022"><a xlink:title=" ">
<path fill="none" stroke="#63b8ff" d="M552.97,-342.5C565.09,-333.51 584.36,-319.19 601,-306.75 622.75,-290.49 647.58,-271.82 664.76,-258.88"/>
<polygon fill="#63b8ff" stroke="#63b8ff" points="666.82,-261.71 672.7,-252.9 662.61,-256.12 666.82,-261.71"/>
</a>
</g>
</g>
<!-- Node26 -->
<g id="Node000026" class="node">
<title>Node26</title>
<g id="a_Node000026"><a xlink:href="config__item_8h.html" target="_top" xlink:title=" ">
<polygon fill="white" stroke="#666666" points="592.38,-306.75 467.62,-306.75 467.62,-287.5 592.38,-287.5 592.38,-306.75"/>
<text text-anchor="middle" x="530" y="-293.25" font-family="Helvetica,sans-Serif" font-size="10.00">sensesp/ui/config_item.h</text>
</a>
</g>
</g>
<!-- Node18&#45;&gt;Node26 -->
<g id="edge38_Node000018_Node000026" class="edge">
<title>Node18&#45;&gt;Node26</title>
<g id="a_edge38_Node000018_Node000026"><a xlink:title=" ">
<path fill="none" stroke="#63b8ff" d="M539.18,-342.58C537.82,-335.99 535.9,-326.71 534.17,-318.32"/>
<polygon fill="#63b8ff" stroke="#63b8ff" points="537.61,-317.68 532.16,-308.59 530.76,-319.09 537.61,-317.68"/>
</a>
</g>
</g>
<!-- Node28 -->
<g id="Node000028" class="node">
<title>Node28</title>
<g id="a_Node000028"><a xlink:href="valueproducer_8h.html" target="_top" xlink:title=" ">
<polygon fill="white" stroke="#666666" points="732.12,-306.75 647.88,-306.75 647.88,-287.5 732.12,-287.5 732.12,-306.75"/>
<text text-anchor="middle" x="690" y="-293.25" font-family="Helvetica,sans-Serif" font-size="10.00">valueproducer.h</text>
</a>
</g>
</g>
<!-- Node18&#45;&gt;Node28 -->
<g id="edge45_Node000018_Node000028" class="edge">
<title>Node18&#45;&gt;Node28</title>
<g id="a_edge45_Node000018_Node000028"><a xlink:title=" ">
<path fill="none" stroke="#63b8ff" d="M566.28,-342.34C590.36,-333.74 626.86,-320.69 653.98,-311"/>
<polygon fill="#63b8ff" stroke="#63b8ff" points="654.94,-314.37 663.17,-307.71 652.58,-307.78 654.94,-314.37"/>
</a>
</g>
</g>
<!-- Node19&#45;&gt;Node2 -->
<g id="edge27_Node000019_Node000002" class="edge">
<title>Node19&#45;&gt;Node2</title>
<g id="a_edge27_Node000019_Node000002"><a xlink:title=" ">
<path fill="none" stroke="#63b8ff" d="M407.83,-231.76C391.14,-223.46 366.61,-210.38 347,-196.25 327.29,-182.05 307.03,-162.98 293.41,-149.38"/>
<polygon fill="#63b8ff" stroke="#63b8ff" points="296.06,-147.09 286.55,-142.42 291.08,-152 296.06,-147.09"/>
</a>
</g>
</g>
<!-- Node19&#45;&gt;Node6 -->
<g id="edge29_Node000019_Node000006" class="edge">
<title>Node19&#45;&gt;Node6</title>
<g id="a_edge29_Node000019_Node000006"><a xlink:title=" ">
<path fill="none" stroke="#63b8ff" d="M412.47,-231.92C401.25,-224.08 386.57,-211.55 380,-196.25 355.73,-139.74 378.94,-65.09 392.61,-30.19"/>
<polygon fill="#63b8ff" stroke="#63b8ff" points="395.82,-31.57 396.37,-20.99 389.34,-28.92 395.82,-31.57"/>
</a>
</g>
</g>
<!-- Node20 -->
<g id="Node000020" class="node">
<title>Node20</title>
<g id="a_Node000020"><a xlink:title=" ">
<polygon fill="#e0e0e0" stroke="#999999" points="635.12,-141 556.88,-141 556.88,-121.75 635.12,-121.75 635.12,-141"/>
<text text-anchor="middle" x="596" y="-127.5" font-family="Helvetica,sans-Serif" font-size="10.00">ArduinoJson.h</text>
</a>
</g>
</g>
<!-- Node19&#45;&gt;Node20 -->
<g id="edge28_Node000019_Node000020" class="edge">
<title>Node19&#45;&gt;Node20</title>
<g id="a_edge28_Node000019_Node000020"><a xlink:title=" ">
<path fill="none" stroke="#63b8ff" d="M441.12,-231.81C470.14,-213.18 536.78,-170.4 572.45,-147.5"/>
<polygon fill="#63b8ff" stroke="#63b8ff" points="574.24,-150.5 580.77,-142.15 570.46,-144.61 574.24,-150.5"/>
</a>
</g>
</g>
<!-- Node21 -->
<g id="Node000021" class="node">
<title>Node21</title>
<g id="a_Node000021"><a xlink:href="serializable_8h.html" target="_top" xlink:title=" ">
<polygon fill="white" stroke="#666666" points="462.5,-196.25 389.5,-196.25 389.5,-177 462.5,-177 462.5,-196.25"/>
<text text-anchor="middle" x="426" y="-182.75" font-family="Helvetica,sans-Serif" font-size="10.00">serializable.h</text>
</a>
</g>
</g>
<!-- Node19&#45;&gt;Node21 -->
<g id="edge30_Node000019_Node000021" class="edge">
<title>Node19&#45;&gt;Node21</title>
<g id="a_edge30_Node000019_Node000021"><a xlink:title=" ">
<path fill="none" stroke="#63b8ff" d="M426.83,-232.08C426.71,-225.57 426.54,-216.42 426.38,-208.12"/>
<polygon fill="#63b8ff" stroke="#63b8ff" points="429.88,-208.05 426.2,-198.12 422.89,-208.19 429.88,-208.05"/>
</a>
</g>
</g>
<!-- Node21&#45;&gt;Node2 -->
<g id="edge31_Node000021_Node000002" class="edge">
<title>Node21&#45;&gt;Node2</title>
<g id="a_edge31_Node000021_Node000002"><a xlink:title=" ">
<path fill="none" stroke="#63b8ff" d="M400.72,-176.59C376.64,-167.99 340.14,-154.94 313.02,-145.25"/>
<polygon fill="#63b8ff" stroke="#63b8ff" points="314.42,-142.03 303.83,-141.96 312.06,-148.62 314.42,-142.03"/>
</a>
</g>
</g>
<!-- Node21&#45;&gt;Node6 -->
<g id="edge33_Node000021_Node000006" class="edge">
<title>Node21&#45;&gt;Node6</title>
<g id="a_edge33_Node000021_Node000006"><a xlink:title=" ">
<path fill="none" stroke="#63b8ff" d="M424.73,-176.71C420.88,-149.8 409.33,-68.94 403.89,-30.87"/>
<polygon fill="#63b8ff" stroke="#63b8ff" points="407.39,-30.64 402.52,-21.23 400.47,-31.63 407.39,-30.64"/>
</a>
</g>
</g>
<!-- Node21&#45;&gt;Node20 -->
<g id="edge32_Node000021_Node000020" class="edge">
<title>Node21&#45;&gt;Node20</title>
<g id="a_edge32_Node000021_Node000020"><a xlink:title=" ">
<path fill="none" stroke="#63b8ff" d="M454.84,-176.59C482.68,-167.87 525.07,-154.59 556.14,-144.86"/>
<polygon fill="#63b8ff" stroke="#63b8ff" points="557.08,-148.23 565.58,-141.9 554.99,-141.55 557.08,-148.23"/>
</a>
</g>
</g>
<!-- Node23 -->
<g id="Node000023" class="node">
<title>Node23</title>
<g id="a_Node000023"><a xlink:title=" ">
<polygon fill="#e0e0e0" stroke="#999999" points="799.12,-196.25 732.88,-196.25 732.88,-177 799.12,-177 799.12,-196.25"/>
<text text-anchor="middle" x="766" y="-182.75" font-family="Helvetica,sans-Serif" font-size="10.00">forward_list</text>
</a>
</g>
</g>
<!-- Node22&#45;&gt;Node23 -->
<g id="edge35_Node000022_Node000023" class="edge">
<title>Node22&#45;&gt;Node23</title>
<g id="a_edge35_Node000022_Node000023"><a xlink:title=" ">
<path fill="none" stroke="#63b8ff" d="M699.57,-231.84C711.41,-223.96 728.84,-212.36 742.87,-203.02"/>
<polygon fill="#63b8ff" stroke="#63b8ff" points="744.72,-206 751.1,-197.54 740.84,-200.17 744.72,-206"/>
</a>
</g>
</g>
<!-- Node24 -->
<g id="Node000024" class="node">
<title>Node24</title>
<g id="a_Node000024"><a xlink:title=" ">
<polygon fill="#e0e0e0" stroke="#999999" points="715,-196.25 657,-196.25 657,-177 715,-177 715,-196.25"/>
<text text-anchor="middle" x="686" y="-182.75" font-family="Helvetica,sans-Serif" font-size="10.00">functional</text>
</a>
</g>
</g>
<!-- Node22&#45;&gt;Node24 -->
<g id="edge36_Node000022_Node000024" class="edge">
<title>Node22&#45;&gt;Node24</title>
<g id="a_edge36_Node000022_Node000024"><a xlink:title=" ">
<path fill="none" stroke="#63b8ff" d="M686,-232.08C686,-225.57 686,-216.42 686,-208.12"/>
<polygon fill="#63b8ff" stroke="#63b8ff" points="689.5,-208.12 686,-198.12 682.5,-208.12 689.5,-208.12"/>
</a>
</g>
</g>
<!-- Node25 -->
<g id="Node000025" class="node">
<title>Node25</title>
<g id="a_Node000025"><a xlink:title=" ">
<polygon fill="#e0e0e0" stroke="#999999" points="638.5,-196.25 595.5,-196.25 595.5,-177 638.5,-177 638.5,-196.25"/>
<text text-anchor="middle" x="617" y="-182.75" font-family="Helvetica,sans-Serif" font-size="10.00">vector</text>
</a>
</g>
</g>
<!-- Node22&#45;&gt;Node25 -->
<g id="edge37_Node000022_Node000025" class="edge">
<title>Node22&#45;&gt;Node25</title>
<g id="a_edge37_Node000022_Node000025"><a xlink:title=" ">
<path fill="none" stroke="#63b8ff" d="M674.3,-231.84C664.22,-224.07 649.46,-212.67 637.44,-203.4"/>
<polygon fill="#63b8ff" stroke="#63b8ff" points="639.79,-200.79 629.73,-197.45 635.51,-206.33 639.79,-200.79"/>
</a>
</g>
</g>
<!-- Node26&#45;&gt;Node6 -->
<g id="edge42_Node000026_Node000006" class="edge">
<title>Node26&#45;&gt;Node6</title>
<g id="a_edge42_Node000026_Node000006"><a xlink:title=" ">
<path fill="none" stroke="#63b8ff" d="M524.77,-287.03C519.72,-278.11 511.98,-264.05 506,-251.5 465.34,-166.16 463.91,-140.94 424,-55.25 420.05,-46.76 415.36,-37.55 411.26,-29.7"/>
<polygon fill="#63b8ff" stroke="#63b8ff" points="414.46,-28.28 406.68,-21.09 408.28,-31.56 414.46,-28.28"/>
</a>
</g>
</g>
<!-- Node26&#45;&gt;Node12 -->
<g id="edge40_Node000026_Node000012" class="edge">
<title>Node26&#45;&gt;Node12</title>
<g id="a_edge40_Node000026_Node000012"><a xlink:title=" ">
<path fill="none" stroke="#63b8ff" d="M499.8,-287.09C469.19,-277.93 421.78,-263.75 388.95,-253.93"/>
<polygon fill="#63b8ff" stroke="#63b8ff" points="390.03,-250.6 379.44,-251.09 388.02,-257.3 390.03,-250.6"/>
</a>
</g>
</g>
<!-- Node26&#45;&gt;Node19 -->
<g id="edge44_Node000026_Node000019" class="edge">
<title>Node26&#45;&gt;Node19</title>
<g id="a_edge44_Node000026_Node000019"><a xlink:title=" ">
<path fill="none" stroke="#63b8ff" d="M512.53,-287.09C496.69,-278.91 473.09,-266.71 454.69,-257.19"/>
<polygon fill="#63b8ff" stroke="#63b8ff" points="456.39,-254.13 445.9,-252.65 453.18,-260.35 456.39,-254.13"/>
</a>
</g>
</g>
<!-- Node26&#45;&gt;Node20 -->
<g id="edge43_Node000026_Node000020" class="edge">
<title>Node26&#45;&gt;Node20</title>
<g id="a_edge43_Node000026_Node000020"><a xlink:title=" ">
<path fill="none" stroke="#63b8ff" d="M536.49,-287.28C542.68,-278.53 551.92,-264.61 558,-251.5 573.57,-217.96 585.24,-176.33 591.31,-152.21"/>
<polygon fill="#63b8ff" stroke="#63b8ff" points="594.64,-153.34 593.61,-142.8 587.83,-151.68 594.64,-153.34"/>
</a>
</g>
</g>
<!-- Node26&#45;&gt;Node25 -->
<g id="edge41_Node000026_Node000025" class="edge">
<title>Node26&#45;&gt;Node25</title>
<g id="a_edge41_Node000026_Node000025"><a xlink:title=" ">
<path fill="none" stroke="#63b8ff" d="M547.3,-287.01C560.78,-279.16 579.13,-266.7 591,-251.5 601.15,-238.49 607.91,-220.98 611.98,-207.58"/>
<polygon fill="#63b8ff" stroke="#63b8ff" points="615.3,-208.71 614.59,-198.14 608.56,-206.85 615.3,-208.71"/>
</a>
</g>
</g>
<!-- Node27 -->
<g id="Node000027" class="node">
<title>Node27</title>
<g id="a_Node000027"><a xlink:title=" ">
<polygon fill="#e0e0e0" stroke="#999999" points="549.38,-251.5 514.62,-251.5 514.62,-232.25 549.38,-232.25 549.38,-251.5"/>
<text text-anchor="middle" x="532" y="-238" font-family="Helvetica,sans-Serif" font-size="10.00">map</text>
</a>
</g>
</g>
<!-- Node26&#45;&gt;Node27 -->
<g id="edge39_Node000026_Node000027" class="edge">
<title>Node26&#45;&gt;Node27</title>
<g id="a_edge39_Node000026_Node000027"><a xlink:title=" ">
<path fill="none" stroke="#63b8ff" d="M530.33,-287.33C530.58,-280.74 530.93,-271.46 531.24,-263.07"/>
<polygon fill="#63b8ff" stroke="#63b8ff" points="534.73,-263.5 531.61,-253.37 527.73,-263.23 534.73,-263.5"/>
</a>
</g>
</g>
<!-- Node28&#45;&gt;Node12 -->
<g id="edge47_Node000028_Node000012" class="edge">
<title>Node28&#45;&gt;Node12</title>
<g id="a_edge47_Node000028_Node000012"><a xlink:title=" ">
<path fill="none" stroke="#63b8ff" d="M647.47,-291.28C590.66,-284.5 486.67,-271.04 389.17,-251.97"/>
<polygon fill="#63b8ff" stroke="#63b8ff" points="389.9,-248.55 379.41,-250.04 388.54,-255.42 389.9,-248.55"/>
</a>
</g>
</g>
<!-- Node28&#45;&gt;Node20 -->
<g id="edge46_Node000028_Node000020" class="edge">
<title>Node28&#45;&gt;Node20</title>
<g id="a_edge46_Node000028_Node000020"><a xlink:title=" ">
<path fill="none" stroke="#63b8ff" d="M732.36,-290.12C812.34,-277.12 972.7,-242.16 916,-177 881.74,-137.63 728.19,-131.92 646.88,-131.73"/>
<polygon fill="#63b8ff" stroke="#63b8ff" points="646.95,-128.23 636.95,-131.74 646.95,-135.23 646.95,-128.23"/>
</a>
</g>
</g>
<!-- Node28&#45;&gt;Node22 -->
<g id="edge48_Node000028_Node000022" class="edge">
<title>Node28&#45;&gt;Node22</title>
<g id="a_edge48_Node000028_Node000022"><a xlink:title=" ">
<path fill="none" stroke="#63b8ff" d="M689.34,-287.33C688.84,-280.74 688.15,-271.46 687.52,-263.07"/>
<polygon fill="#63b8ff" stroke="#63b8ff" points="691.03,-263.08 686.79,-253.37 684.05,-263.6 691.03,-263.08"/>
</a>
</g>
</g>
<!-- Node29 -->
<g id="Node000029" class="node">
<title>Node29</title>
<g id="a_Node000029"><a xlink:href="valueconsumer_8h.html" target="_top" xlink:title=" ">
<polygon fill="white" stroke="#666666" points="906.75,-196.25 817.25,-196.25 817.25,-177 906.75,-177 906.75,-196.25"/>
<text text-anchor="middle" x="862" y="-182.75" font-family="Helvetica,sans-Serif" font-size="10.00">valueconsumer.h</text>
</a>
</g>
</g>
<!-- Node28&#45;&gt;Node29 -->
<g id="edge49_Node000028_Node000029" class="edge">
<title>Node28&#45;&gt;Node29</title>
<g id="a_edge49_Node000028_Node000029"><a xlink:title=" ">
<path fill="none" stroke="#63b8ff" d="M704.37,-287.06C734.04,-268.35 802.31,-225.28 838.5,-202.45"/>
<polygon fill="#63b8ff" stroke="#63b8ff" points="839.92,-205.69 846.51,-197.39 836.19,-199.77 839.92,-205.69"/>
</a>
</g>
</g>
<!-- Node29&#45;&gt;Node2 -->
<g id="edge50_Node000029_Node000002" class="edge">
<title>Node29&#45;&gt;Node2</title>
<g id="a_edge50_Node000029_Node000002"><a xlink:title=" ">
<path fill="none" stroke="#63b8ff" d="M816.95,-178.17C813.93,-177.75 810.92,-177.36 808,-177 626.73,-154.94 409.31,-140.37 319.25,-134.85"/>
<polygon fill="#63b8ff" stroke="#63b8ff" points="319.61,-131.37 309.42,-134.26 319.19,-138.35 319.61,-131.37"/>
</a>
</g>
</g>
<!-- Node29&#45;&gt;Node20 -->
<g id="edge51_Node000029_Node000020" class="edge">
<title>Node29&#45;&gt;Node20</title>
<g id="a_edge51_Node000029_Node000020"><a xlink:title=" ">
<path fill="none" stroke="#63b8ff" d="M816.88,-176.59C769.57,-167.12 695.42,-152.28 646.27,-142.44"/>
<polygon fill="#63b8ff" stroke="#63b8ff" points="647.24,-139.06 636.75,-140.53 645.87,-145.93 647.24,-139.06"/>
</a>
</g>
</g>
<!-- Node30 -->
<g id="Node000030" class="node">
<title>Node30</title>
<g id="a_Node000030"><a xlink:title=" ">
<polygon fill="#e0e0e0" stroke="#999999" points="886.12,-141 837.88,-141 837.88,-121.75 886.12,-121.75 886.12,-141"/>
<text text-anchor="middle" x="862" y="-127.5" font-family="Helvetica,sans-Serif" font-size="10.00">stdint.h</text>
</a>
</g>
</g>
<!-- Node29&#45;&gt;Node30 -->
<g id="edge52_Node000029_Node000030" class="edge">
<title>Node29&#45;&gt;Node30</title>
<g id="a_edge52_Node000029_Node000030"><a xlink:title=" ">
<path fill="none" stroke="#63b8ff" d="M862,-176.83C862,-170.32 862,-161.17 862,-152.87"/>
<polygon fill="#63b8ff" stroke="#63b8ff" points="865.5,-152.87 862,-142.87 858.5,-152.87 865.5,-152.87"/>
</a>
</g>
</g>
</g>
</svg>
