<?xml version="1.0" encoding="UTF-8" standalone="no"?>
<!DOCTYPE svg PUBLIC "-//W3C//DTD SVG 1.1//EN"
 "http://www.w3.org/Graphics/SVG/1.1/DTD/svg11.dtd">
<!-- Generated by graphviz version 12.1.0 (20240811.2233)
 -->
<!-- Title: sensesp::SKWSClient::on_disconnected Pages: 1 -->
<!--zoomable 163 -->

<svg id="main" version="1.1" xmlns="http://www.w3.org/2000/svg" xmlns:xlink="http://www.w3.org/1999/xlink" xml:space="preserve" onload="init(evt)">

<style type="text/css"><![CDATA[
.node, .edge {opacity: 0.7;}
.node.selected, .edge.selected {opacity: 1;}
.edge:hover path { stroke: red; }
.edge:hover polygon { stroke: red; fill: red; }
]]></style>

<defs>
  <circle id="rim" cx="0" cy="0" r="7"/>
  <circle id="rim2" cx="0" cy="0" r="3.5"/>
  <g id="zoomPlus">
    <use xlink:href="#rim" fill="#404040"><set attributeName="fill" to="#808080" begin="zoomplus.mouseover" end="zoomplus.mouseout"/></use>
    <path d="M-4,0h8M0,-4v8" fill="none" stroke="white" stroke-width="1.5" pointer-events="none"/>
  </g>
  <g id="zoomMin">
    <use xlink:href="#rim" fill="#404040"><set attributeName="fill" to="#808080" begin="zoomminus.mouseover" end="zoomminus.mouseout"/></use>
    <path d="M-4,0h8" fill="none" stroke="white" stroke-width="1.5" pointer-events="none"/>
  </g>
  <g id="arrowUp" transform="translate(30 24)">
    <use xlink:href="#rim"/>
    <path pointer-events="none" fill="none" stroke="white" stroke-width="1.5" d="M0,-3.0v7 M-2.5,-0.5L0,-3.0L2.5,-0.5"/>
  </g>
  <g id="arrowRight" transform="rotate(90) translate(36 -43)">
    <use xlink:href="#rim"/>
    <path pointer-events="none" fill="none" stroke="white" stroke-width="1.5" d="M0,-3.0v7 M-2.5,-0.5L0,-3.0L2.5,-0.5"/>
  </g>
  <g id="arrowDown" transform="rotate(180) translate(-30 -48)">
    <use xlink:href="#rim"/>
    <path pointer-events="none" fill="none" stroke="white" stroke-width="1.5" d="M0,-3.0v7 M-2.5,-0.5L0,-3.0L2.5,-0.5"/>
  </g>
  <g id="arrowLeft" transform="rotate(270) translate(-36 17)">
    <use xlink:href="#rim"/>
    <path pointer-events="none" fill="none" stroke="white" stroke-width="1.5" d="M0,-3.0v7 M-2.5,-0.5L0,-3.0L2.5,-0.5"/>
  </g>
  <g id="resetDef">
    <use xlink:href="#rim2" fill="#404040"><set attributeName="fill" to="#808080" begin="reset.mouseover" end="reset.mouseout"/></use>
  </g>
</defs>
<script type="application/ecmascript">
var viewWidth = 777;
var viewHeight = 163;
var sectionId = 'dynsection-12';
</script>
<script type="application/ecmascript" xlink:href="svg.min.js"/>
<svg id="graph" class="graph">
<g id="viewport">
<title>sensesp::SKWSClient::on_disconnected</title>
<!-- Node1 -->
<g id="Node000001" class="node">
<title>Node1</title>
<g id="a_Node000001"><a xlink:title="Called when the websocket connection is disconnected.">
<polygon fill="#999999" stroke="#666666" points="114.25,-105.88 0,-105.88 0,-75.38 114.25,-75.38 114.25,-105.88"/>
<text text-anchor="start" x="8" y="-92.38" font-family="Helvetica,sans-Serif" font-size="10.00">sensesp::SKWSClient</text>
<text text-anchor="middle" x="57.12" y="-81.12" font-family="Helvetica,sans-Serif" font-size="10.00">::on_disconnected</text>
</a>
</g>
</g>
<!-- Node2 -->
<g id="Node000002" class="node">
<title>Node2</title>
<g id="a_Node000002"><a xlink:href="classsensesp_1_1_s_k_w_s_client.html#a4b743aa1377f34235482a2bbc6400698" target="_top" xlink:title=" ">
<polygon fill="white" stroke="#666666" points="282.12,-154.88 167.12,-154.88 167.12,-124.38 282.12,-124.38 282.12,-154.88"/>
<text text-anchor="start" x="175.12" y="-141.38" font-family="Helvetica,sans-Serif" font-size="10.00">sensesp::SKWSClient</text>
<text text-anchor="middle" x="224.62" y="-130.12" font-family="Helvetica,sans-Serif" font-size="10.00">::get_connection_state</text>
</a>
</g>
</g>
<!-- Node1&#45;&gt;Node2 -->
<g id="edge1_Node000001_Node000002" class="edge">
<title>Node1&#45;&gt;Node2</title>
<g id="a_edge1_Node000001_Node000002"><a xlink:title=" ">
<path fill="none" stroke="#63b8ff" d="M110.95,-106.26C126.39,-110.84 143.45,-115.89 159.52,-120.65"/>
<polygon fill="#63b8ff" stroke="#63b8ff" points="158.42,-123.97 169,-123.45 160.41,-117.26 158.42,-123.97"/>
</a>
</g>
</g>
<!-- Node3 -->
<g id="Node000003" class="node">
<title>Node3</title>
<g id="a_Node000003"><a xlink:href="classsensesp_1_1_file_system_saveable.html#a8fcd302f31b35502d061b769f9efee27" target="_top" xlink:title="Save the object to a persistent storage.">
<polygon fill="white" stroke="#666666" points="299,-105.88 150.25,-105.88 150.25,-75.38 299,-75.38 299,-105.88"/>
<text text-anchor="start" x="158.25" y="-92.38" font-family="Helvetica,sans-Serif" font-size="10.00">sensesp::FileSystemSaveable</text>
<text text-anchor="middle" x="224.62" y="-81.12" font-family="Helvetica,sans-Serif" font-size="10.00">::save</text>
</a>
</g>
</g>
<!-- Node1&#45;&gt;Node3 -->
<g id="edge2_Node000001_Node000003" class="edge">
<title>Node1&#45;&gt;Node3</title>
<g id="a_edge2_Node000001_Node000003"><a xlink:title=" ">
<path fill="none" stroke="#63b8ff" d="M114.62,-90.62C122.32,-90.62 130.36,-90.62 138.43,-90.62"/>
<polygon fill="#63b8ff" stroke="#63b8ff" points="138.31,-94.13 148.31,-90.63 138.31,-87.13 138.31,-94.13"/>
</a>
</g>
</g>
<!-- Node8 -->
<g id="Node000008" class="node">
<title>Node8</title>
<g id="a_Node000008"><a xlink:href="classsensesp_1_1_s_k_w_s_client.html#ac124cc1b358d613e7ad43b9545a97d26" target="_top" xlink:title=" ">
<polygon fill="white" stroke="#666666" points="282.12,-45.88 167.12,-45.88 167.12,-15.37 282.12,-15.37 282.12,-45.88"/>
<text text-anchor="start" x="175.12" y="-32.38" font-family="Helvetica,sans-Serif" font-size="10.00">sensesp::SKWSClient</text>
<text text-anchor="middle" x="224.62" y="-21.12" font-family="Helvetica,sans-Serif" font-size="10.00">::set_connection_state</text>
</a>
</g>
</g>
<!-- Node1&#45;&gt;Node8 -->
<g id="edge8_Node000001_Node000008" class="edge">
<title>Node1&#45;&gt;Node8</title>
<g id="a_edge8_Node000001_Node000008"><a xlink:title=" ">
<path fill="none" stroke="#63b8ff" d="M101.18,-75.02C122.08,-67.44 147.42,-58.25 169.61,-50.21"/>
<polygon fill="#63b8ff" stroke="#63b8ff" points="170.58,-53.58 178.79,-46.88 168.2,-47 170.58,-53.58"/>
</a>
</g>
</g>
<!-- Node4 -->
<g id="Node000004" class="node">
<title>Node4</title>
<g id="a_Node000004"><a xlink:href="namespacesensesp.html#adad24461f43358c45017cf1cb816ca60" target="_top" xlink:title="A base64&#45;encoded SHA&#45;1 hash function.">
<polygon fill="white" stroke="#666666" points="652,-132.25 537.75,-132.25 537.75,-113 652,-113 652,-132.25"/>
<text text-anchor="middle" x="594.88" y="-118.75" font-family="Helvetica,sans-Serif" font-size="10.00">sensesp::Base64Sha1</text>
</a>
</g>
</g>
<!-- Node3&#45;&gt;Node4 -->
<g id="edge3_Node000003_Node000004" class="edge">
<title>Node3&#45;&gt;Node4</title>
<g id="a_edge3_Node000003_Node000004"><a xlink:title=" ">
<path fill="none" stroke="#63b8ff" d="M272.27,-106.29C298.96,-115.12 328.43,-124.6 335,-125.62 399.34,-135.67 473.76,-133.38 526.25,-129.51"/>
<polygon fill="#63b8ff" stroke="#63b8ff" points="526.23,-133.02 535.93,-128.75 525.69,-126.04 526.23,-133.02"/>
</a>
</g>
</g>
<!-- Node6 -->
<g id="Node000006" class="node">
<title>Node6</title>
<g id="a_Node000006"><a xlink:href="classsensesp_1_1_file_system_saveable.html#ad0233f7895b5c8915108399420c7cf0b" target="_top" xlink:title=" ">
<polygon fill="white" stroke="#666666" points="492.75,-116.88 344,-116.88 344,-86.38 492.75,-86.38 492.75,-116.88"/>
<text text-anchor="start" x="352" y="-103.38" font-family="Helvetica,sans-Serif" font-size="10.00">sensesp::FileSystemSaveable</text>
<text text-anchor="middle" x="418.38" y="-92.12" font-family="Helvetica,sans-Serif" font-size="10.00">::find_config_file</text>
</a>
</g>
</g>
<!-- Node3&#45;&gt;Node6 -->
<g id="edge5_Node000003_Node000006" class="edge">
<title>Node3&#45;&gt;Node6</title>
<g id="a_edge5_Node000003_Node000006"><a xlink:title=" ">
<path fill="none" stroke="#63b8ff" d="M299.49,-94.86C310.21,-95.48 321.33,-96.12 332.26,-96.74"/>
<polygon fill="#63b8ff" stroke="#63b8ff" points="331.86,-100.22 342.04,-97.3 332.26,-93.24 331.86,-100.22"/>
</a>
</g>
</g>
<!-- Node7 -->
<g id="Node000007" class="node">
<title>Node7</title>
<g id="a_Node000007"><a xlink:href="classsensesp_1_1_serializable.html#a8da15a9036f2333f1f3beb4207a06477" target="_top" xlink:title=" ">
<polygon fill="white" stroke="#666666" points="472.88,-67.88 363.88,-67.88 363.88,-37.38 472.88,-37.38 472.88,-67.88"/>
<text text-anchor="start" x="371.88" y="-54.38" font-family="Helvetica,sans-Serif" font-size="10.00">sensesp::Serializable</text>
<text text-anchor="middle" x="418.38" y="-43.12" font-family="Helvetica,sans-Serif" font-size="10.00">::to_json</text>
</a>
</g>
</g>
<!-- Node3&#45;&gt;Node7 -->
<g id="edge7_Node000003_Node000007" class="edge">
<title>Node3&#45;&gt;Node7</title>
<g id="a_edge7_Node000003_Node000007"><a xlink:title=" ">
<path fill="none" stroke="#63b8ff" d="M299.49,-75.99C316.97,-72.52 335.48,-68.85 352.53,-65.48"/>
<polygon fill="#63b8ff" stroke="#63b8ff" points="352.88,-68.97 362.01,-63.6 351.52,-62.11 352.88,-68.97"/>
</a>
</g>
</g>
<!-- Node5 -->
<g id="Node000005" class="node">
<title>Node5</title>
<g id="a_Node000005"><a xlink:href="namespacesensesp.html#a37dfeb5f75b7115464a9aa40473d69cf" target="_top" xlink:title="SHA&#45;1 hash function.">
<polygon fill="white" stroke="#666666" points="769.25,-132.25 688,-132.25 688,-113 769.25,-113 769.25,-132.25"/>
<text text-anchor="middle" x="728.62" y="-118.75" font-family="Helvetica,sans-Serif" font-size="10.00">sensesp::Sha1</text>
</a>
</g>
</g>
<!-- Node4&#45;&gt;Node5 -->
<g id="edge4_Node000004_Node000005" class="edge">
<title>Node4&#45;&gt;Node5</title>
<g id="a_edge4_Node000004_Node000005"><a xlink:title=" ">
<path fill="none" stroke="#63b8ff" d="M652.13,-122.62C660.21,-122.62 668.49,-122.62 676.47,-122.62"/>
<polygon fill="#63b8ff" stroke="#63b8ff" points="676.37,-126.13 686.37,-122.63 676.37,-119.13 676.37,-126.13"/>
</a>
</g>
</g>
<!-- Node6&#45;&gt;Node4 -->
<g id="edge6_Node000006_Node000004" class="edge">
<title>Node6&#45;&gt;Node4</title>
<g id="a_edge6_Node000006_Node000004"><a xlink:title=" ">
<path fill="none" stroke="#63b8ff" d="M493.13,-110.5C504.1,-111.82 515.37,-113.18 526.21,-114.48"/>
<polygon fill="#63b8ff" stroke="#63b8ff" points="525.48,-117.92 535.83,-115.64 526.32,-110.97 525.48,-117.92"/>
</a>
</g>
</g>
<!-- Node9 -->
<g id="Node000009" class="node">
<title>Node9</title>
<g id="a_Node000009"><a xlink:href="classsensesp_1_1_task_queue_producer.html#ae3fc9c50c0c606a9ba9e5a8826d32a37" target="_top" xlink:title=" ">
<polygon fill="white" stroke="#666666" points="501.75,-19.25 335,-19.25 335,0 501.75,0 501.75,-19.25"/>
<text text-anchor="middle" x="418.38" y="-5.75" font-family="Helvetica,sans-Serif" font-size="10.00">sensesp::TaskQueueProducer::set</text>
</a>
</g>
</g>
<!-- Node8&#45;&gt;Node9 -->
<g id="edge9_Node000008_Node000009" class="edge">
<title>Node8&#45;&gt;Node9</title>
<g id="a_edge9_Node000008_Node000009"><a xlink:title=" ">
<path fill="none" stroke="#63b8ff" d="M282.38,-24.41C295.36,-22.99 309.5,-21.44 323.58,-19.9"/>
<polygon fill="#63b8ff" stroke="#63b8ff" points="323.77,-23.4 333.33,-18.83 323.01,-16.44 323.77,-23.4"/>
</a>
</g>
</g>
</g>
</svg>

<g id="navigator" transform="translate(0 0)" fill="#404254">
  <rect fill="#f2f5e9" fill-opacity="0.5" stroke="#606060" stroke-width=".5" x="0" y="0" width="60" height="60"/>
  <use id="zoomplus" xlink:href="#zoomPlus" x="17" y="9" onmousedown="handleZoom(evt,'in')"/>
  <use id="zoomminus" xlink:href="#zoomMin" x="42" y="9" onmousedown="handleZoom(evt,'out')"/>
  <use id="reset" xlink:href="#resetDef" x="30" y="36" onmousedown="handleReset()"/>
   <use id="arrowup" xlink:href="#arrowUp" x="0" y="0" onmousedown="handlePan(0,-1)"/>
  <use id="arrowright" xlink:href="#arrowRight" x="0" y="0" onmousedown="handlePan(1,0)"/>
  <use id="arrowdown" xlink:href="#arrowDown" x="0" y="0" onmousedown="handlePan(0,1)"/>
  <use id="arrowleft" xlink:href="#arrowLeft" x="0" y="0" onmousedown="handlePan(-1,0)"/>
</g>
<svg viewBox="0 0 15 15" width="100%" height="30px" preserveAspectRatio="xMaxYMin meet">
 <g id="arrow_out" transform="scale(0.3 0.3)">
  <a xlink:href="classsensesp_1_1_s_k_w_s_client_a963d6aa9d1d835a394338ba64fe1c6cc_cgraph_org.svg" target="_base">
   <rect id="button" ry="5" rx="5" y="6" x="6" height="38" width="38"
        fill="#f2f5e9" fill-opacity="0.5" stroke="#606060" stroke-width="1.0"/>
   <path id="arrow"
     d="M 11.500037,31.436501 C 11.940474,20.09759 22.043105,11.32322 32.158766,21.979434 L 37.068811,17.246167 C 37.068811,17.246167 37.088388,32 37.088388,32 L 22.160133,31.978069 C 22.160133,31.978069 26.997745,27.140456 26.997745,27.140456 C 18.528582,18.264221 13.291696,25.230495 11.500037,31.436501 z"
     style="fill:#404040;"/>
  </a>
 </g>
</svg>

<style type='text/css'>
<![CDATA[
[data-mouse-over-selected='false'] { opacity: 0.7; }
[data-mouse-over-selected='true']  { opacity: 1.0; }
]]>
</style>
<script type="application/ecmascript"><![CDATA[
document.addEventListener('DOMContentLoaded', (event) => {
  highlightEdges();
  highlightAdjacentNodes();
});
]]></script>
</svg>
