<?xml version="1.0" encoding="UTF-8" standalone="no"?>
<!DOCTYPE svg PUBLIC "-//W3C//DTD SVG 1.1//EN"
 "http://www.w3.org/Graphics/SVG/1.1/DTD/svg11.dtd">
<!-- Generated by graphviz version 12.1.0 (20240811.2233)
 -->
<!-- Title: sensesp::Networking::Networking Pages: 1 -->
<svg width="1205pt" height="617pt"
 viewBox="0.00 0.00 1205.25 616.88" xmlns="http://www.w3.org/2000/svg" xmlns:xlink="http://www.w3.org/1999/xlink">
<g id="graph0" class="graph" transform="scale(1 1) rotate(0) translate(4 612.88)">
<title>sensesp::Networking::Networking</title>
<!-- Node1 -->
<g id="Node000001" class="node">
<title>Node1</title>
<g id="a_Node000001"><a xlink:title=" ">
<polygon fill="#999999" stroke="#666666" points="108.25,-394.5 0,-394.5 0,-364 108.25,-364 108.25,-394.5"/>
<text text-anchor="start" x="8" y="-381" font-family="Helvetica,sans-Serif" font-size="10.00">sensesp::Networking</text>
<text text-anchor="middle" x="54.12" y="-369.75" font-family="Helvetica,sans-Serif" font-size="10.00">::Networking</text>
</a>
</g>
</g>
<!-- Node2 -->
<g id="Node000002" class="node">
<title>Node2</title>
<g id="a_Node000002"><a xlink:href="classsensesp_1_1_value_producer.html#a0d2ecdd23525edbf82eb29eb851a9d25" target="_top" xlink:title=" ">
<polygon fill="white" stroke="#666666" points="275.75,-558.5 154,-558.5 154,-528 275.75,-528 275.75,-558.5"/>
<text text-anchor="start" x="162" y="-545" font-family="Helvetica,sans-Serif" font-size="10.00">sensesp::ValueProducer</text>
<text text-anchor="middle" x="214.88" y="-533.75" font-family="Helvetica,sans-Serif" font-size="10.00">::connect_to</text>
</a>
</g>
</g>
<!-- Node1&#45;&gt;Node2 -->
<g id="edge1_Node000001_Node000002" class="edge">
<title>Node1&#45;&gt;Node2</title>
<g id="a_edge1_Node000001_Node000002"><a xlink:title=" ">
<path fill="none" stroke="#63b8ff" d="M62.06,-394.69C74.82,-421.6 104.41,-477.43 144.25,-511.25 149.12,-515.39 154.62,-519.1 160.33,-522.4"/>
<polygon fill="#63b8ff" stroke="#63b8ff" points="158.27,-525.27 168.75,-526.86 161.55,-519.08 158.27,-525.27"/>
</a>
</g>
</g>
<!-- Node6 -->
<g id="Node000006" class="node">
<title>Node6</title>
<g id="a_Node000006"><a xlink:href="classsensesp_1_1_value_producer.html#a4f5f0259d0d3cd9a0ed17d657cac04e2" target="_top" xlink:title=" ">
<polygon fill="white" stroke="#666666" points="990.75,-194.5 869,-194.5 869,-164 990.75,-164 990.75,-194.5"/>
<text text-anchor="start" x="877" y="-181" font-family="Helvetica,sans-Serif" font-size="10.00">sensesp::ValueProducer</text>
<text text-anchor="middle" x="929.88" y="-169.75" font-family="Helvetica,sans-Serif" font-size="10.00">&lt; WiFiState &gt;::emit</text>
</a>
</g>
</g>
<!-- Node1&#45;&gt;Node6 -->
<g id="edge5_Node000001_Node000006" class="edge">
<title>Node1&#45;&gt;Node6</title>
<g id="a_edge5_Node000001_Node000006"><a xlink:title=" ">
<path fill="none" stroke="#63b8ff" d="M63.6,-363.74C97.05,-304.83 226.33,-98.25 394.12,-98.25 394.12,-98.25 394.12,-98.25 576.38,-98.25 685.67,-98.25 809.3,-135.7 877.25,-159.67"/>
<polygon fill="#63b8ff" stroke="#63b8ff" points="876.04,-162.95 886.64,-163.03 878.4,-156.36 876.04,-162.95"/>
</a>
</g>
</g>
<!-- Node7 -->
<g id="Node000007" class="node">
<title>Node7</title>
<g id="a_Node000007"><a xlink:href="classsensesp_1_1_sens_e_s_p_base_app.html#a9068b65bf976f1d1bd5faf1e3126e8ff" target="_top" xlink:title="Get the event loop object from the singleton SensESPBaseApp instance.">
<polygon fill="white" stroke="#666666" points="1000.5,-373.5 859.25,-373.5 859.25,-343 1000.5,-343 1000.5,-373.5"/>
<text text-anchor="start" x="867.25" y="-360" font-family="Helvetica,sans-Serif" font-size="10.00">sensesp::SensESPBaseApp</text>
<text text-anchor="middle" x="929.88" y="-348.75" font-family="Helvetica,sans-Serif" font-size="10.00">::get_event_loop</text>
</a>
</g>
</g>
<!-- Node1&#45;&gt;Node7 -->
<g id="edge6_Node000001_Node000007" class="edge">
<title>Node1&#45;&gt;Node7</title>
<g id="a_edge6_Node000001_Node000007"><a xlink:title=" ">
<path fill="none" stroke="#63b8ff" d="M108.49,-373.9C175.22,-367.67 293,-358.25 394.12,-358.25 394.12,-358.25 394.12,-358.25 576.38,-358.25 669.46,-358.25 776.38,-358.25 847.83,-358.25"/>
<polygon fill="#63b8ff" stroke="#63b8ff" points="847.47,-361.75 857.47,-358.25 847.47,-354.75 847.47,-361.75"/>
</a>
</g>
</g>
<!-- Node9 -->
<g id="Node000009" class="node">
<title>Node9</title>
<g id="a_Node000009"><a xlink:href="classsensesp_1_1_sens_e_s_p_base_app.html#a928c309a2dc17f82edefe9e5bc7ef33d" target="_top" xlink:title="Get the current hostname.">
<polygon fill="white" stroke="#666666" points="465.75,-472.5 324.5,-472.5 324.5,-442 465.75,-442 465.75,-472.5"/>
<text text-anchor="start" x="332.5" y="-459" font-family="Helvetica,sans-Serif" font-size="10.00">sensesp::SensESPBaseApp</text>
<text text-anchor="middle" x="395.12" y="-447.75" font-family="Helvetica,sans-Serif" font-size="10.00">::get_hostname</text>
</a>
</g>
</g>
<!-- Node1&#45;&gt;Node9 -->
<g id="edge8_Node000001_Node000009" class="edge">
<title>Node1&#45;&gt;Node9</title>
<g id="a_edge8_Node000001_Node000009"><a xlink:title=" ">
<path fill="none" stroke="#63b8ff" d="M79.48,-394.78C96.85,-405.11 121.14,-418.05 144.25,-425.25 198.97,-442.29 263.14,-450.27 312.75,-454"/>
<polygon fill="#63b8ff" stroke="#63b8ff" points="312.34,-457.48 322.56,-454.69 312.83,-450.5 312.34,-457.48"/>
</a>
</g>
</g>
<!-- Node11 -->
<g id="Node000011" class="node">
<title>Node11</title>
<g id="a_Node000011"><a xlink:href="classsensesp_1_1_wi_fi_state_producer.html#a648a8faa7d3d3a60acc752d125cc554c" target="_top" xlink:title="Get the singleton instance of the WiFiStateProducer.">
<polygon fill="white" stroke="#666666" points="285.5,-314.5 144.25,-314.5 144.25,-284 285.5,-284 285.5,-314.5"/>
<text text-anchor="start" x="152.25" y="-301" font-family="Helvetica,sans-Serif" font-size="10.00">sensesp::WiFiStateProducer</text>
<text text-anchor="middle" x="214.88" y="-289.75" font-family="Helvetica,sans-Serif" font-size="10.00">::get_singleton</text>
</a>
</g>
</g>
<!-- Node1&#45;&gt;Node11 -->
<g id="edge12_Node000001_Node000011" class="edge">
<title>Node1&#45;&gt;Node11</title>
<g id="a_edge12_Node000001_Node000011"><a xlink:title=" ">
<path fill="none" stroke="#63b8ff" d="M86.11,-363.64C110.83,-351.18 145.69,-333.61 172.74,-319.98"/>
<polygon fill="#63b8ff" stroke="#63b8ff" points="173.99,-323.27 181.35,-315.64 170.84,-317.02 173.99,-323.27"/>
</a>
</g>
</g>
<!-- Node17 -->
<g id="Node000017" class="node">
<title>Node17</title>
<g id="a_Node000017"><a xlink:href="classsensesp_1_1_configurable.html#ac97542fd5a24ae306adb77f3d1ba563a" target="_top" xlink:title=" ">
<polygon fill="white" stroke="#666666" points="271.62,-70.5 158.12,-70.5 158.12,-40 271.62,-40 271.62,-70.5"/>
<text text-anchor="start" x="166.12" y="-57" font-family="Helvetica,sans-Serif" font-size="10.00">sensesp::Configurable</text>
<text text-anchor="middle" x="214.88" y="-45.75" font-family="Helvetica,sans-Serif" font-size="10.00">::load_configuration</text>
</a>
</g>
</g>
<!-- Node1&#45;&gt;Node17 -->
<g id="edge24_Node000001_Node000017" class="edge">
<title>Node1&#45;&gt;Node17</title>
<g id="a_edge24_Node000001_Node000017"><a xlink:title=" ">
<path fill="none" stroke="#63b8ff" d="M55.38,-363.56C56.99,-315.49 68.21,-168.41 144.25,-84.25 146.59,-81.66 149.19,-79.3 151.99,-77.14"/>
<polygon fill="#63b8ff" stroke="#63b8ff" points="153.74,-80.18 160.17,-71.76 149.9,-74.33 153.74,-80.18"/>
</a>
</g>
</g>
<!-- Node21 -->
<g id="Node000021" class="node">
<title>Node21</title>
<g id="a_Node000021"><a xlink:href="classsensesp_1_1_networking.html#a98a47f34b83e3f5773054a8c3a3a308c" target="_top" xlink:title="Start an access point.">
<polygon fill="white" stroke="#666666" points="269,-502.5 160.75,-502.5 160.75,-472 269,-472 269,-502.5"/>
<text text-anchor="start" x="168.75" y="-489" font-family="Helvetica,sans-Serif" font-size="10.00">sensesp::Networking</text>
<text text-anchor="middle" x="214.88" y="-477.75" font-family="Helvetica,sans-Serif" font-size="10.00">::start_access_point</text>
</a>
</g>
</g>
<!-- Node1&#45;&gt;Node21 -->
<g id="edge28_Node000001_Node000021" class="edge">
<title>Node1&#45;&gt;Node21</title>
<g id="a_edge28_Node000001_Node000021"><a xlink:title=" ">
<path fill="none" stroke="#63b8ff" d="M69.64,-394.92C86.33,-412.21 115.17,-440.02 144.25,-458.25 149.12,-461.3 154.36,-464.16 159.71,-466.8"/>
<polygon fill="#63b8ff" stroke="#63b8ff" points="158.14,-469.93 168.68,-470.96 161.09,-463.58 158.14,-469.93"/>
</a>
</g>
</g>
<!-- Node22 -->
<g id="Node000022" class="node">
<title>Node22</title>
<g id="a_Node000022"><a xlink:href="classsensesp_1_1_networking.html#a277f2f6ba752d443e9724badf2a3f474" target="_top" xlink:title="Start WiFi using preset SSID and password.">
<polygon fill="white" stroke="#666666" points="279.12,-416.5 150.62,-416.5 150.62,-386 279.12,-386 279.12,-416.5"/>
<text text-anchor="start" x="158.62" y="-403" font-family="Helvetica,sans-Serif" font-size="10.00">sensesp::Networking</text>
<text text-anchor="middle" x="214.88" y="-391.75" font-family="Helvetica,sans-Serif" font-size="10.00">::start_client_autoconnect</text>
</a>
</g>
</g>
<!-- Node1&#45;&gt;Node22 -->
<g id="edge30_Node000001_Node000022" class="edge">
<title>Node1&#45;&gt;Node22</title>
<g id="a_edge30_Node000001_Node000022"><a xlink:title=" ">
<path fill="none" stroke="#63b8ff" d="M108.43,-386.64C118.28,-388 128.74,-389.45 139.1,-390.89"/>
<polygon fill="#63b8ff" stroke="#63b8ff" points="138.38,-394.32 148.76,-392.23 139.34,-387.39 138.38,-394.32"/>
</a>
</g>
</g>
<!-- Node3 -->
<g id="Node000003" class="node">
<title>Node3</title>
<g id="a_Node000003"><a xlink:href="classsensesp_1_1_observable.html#a1bd8a207de69d386a7f05c28544df109" target="_top" xlink:title=" ">
<polygon fill="white" stroke="#666666" points="449.25,-571.5 341,-571.5 341,-541 449.25,-541 449.25,-571.5"/>
<text text-anchor="start" x="349" y="-558" font-family="Helvetica,sans-Serif" font-size="10.00">sensesp::Observable</text>
<text text-anchor="middle" x="395.12" y="-546.75" font-family="Helvetica,sans-Serif" font-size="10.00">::attach</text>
</a>
</g>
</g>
<!-- Node2&#45;&gt;Node3 -->
<g id="edge2_Node000002_Node000003" class="edge">
<title>Node2&#45;&gt;Node3</title>
<g id="a_edge2_Node000002_Node000003"><a xlink:title=" ">
<path fill="none" stroke="#63b8ff" d="M276.22,-547.65C293.37,-548.9 312.12,-550.27 329.51,-551.54"/>
<polygon fill="#63b8ff" stroke="#63b8ff" points="328.97,-555.01 339.2,-552.24 329.48,-548.03 328.97,-555.01"/>
</a>
</g>
</g>
<!-- Node4 -->
<g id="Node000004" class="node">
<title>Node4</title>
<g id="a_Node000004"><a xlink:href="classsensesp_1_1_value_producer.html#a438390eae6bba056ecf4ab329cb5c8e9" target="_top" xlink:title=" ">
<polygon fill="white" stroke="#666666" points="646,-529.88 504.75,-529.88 504.75,-510.62 646,-510.62 646,-529.88"/>
<text text-anchor="middle" x="575.38" y="-516.38" font-family="Helvetica,sans-Serif" font-size="10.00">sensesp::ValueProducer::get</text>
</a>
</g>
</g>
<!-- Node2&#45;&gt;Node4 -->
<g id="edge3_Node000002_Node000004" class="edge">
<title>Node2&#45;&gt;Node4</title>
<g id="a_edge3_Node000002_Node000004"><a xlink:title=" ">
<path fill="none" stroke="#63b8ff" d="M276.15,-536.38C290.96,-534.86 306.79,-533.36 321.5,-532.25 378.73,-527.92 443.37,-524.88 492.97,-522.95"/>
<polygon fill="#63b8ff" stroke="#63b8ff" points="492.9,-526.45 502.76,-522.57 492.63,-519.46 492.9,-526.45"/>
</a>
</g>
</g>
<!-- Node5 -->
<g id="Node000005" class="node">
<title>Node5</title>
<g id="a_Node000005"><a xlink:href="classsensesp_1_1_value_consumer.html#a3734612c1b7022e9bd08d2c8fb8e30de" target="_top" xlink:title=" ">
<polygon fill="white" stroke="#666666" points="468.75,-608.88 321.5,-608.88 321.5,-589.62 468.75,-589.62 468.75,-608.88"/>
<text text-anchor="middle" x="395.12" y="-595.38" font-family="Helvetica,sans-Serif" font-size="10.00">sensesp::ValueConsumer::set</text>
</a>
</g>
</g>
<!-- Node2&#45;&gt;Node5 -->
<g id="edge4_Node000002_Node000005" class="edge">
<title>Node2&#45;&gt;Node5</title>
<g id="a_edge4_Node000002_Node000005"><a xlink:title=" ">
<path fill="none" stroke="#63b8ff" d="M258.27,-558.98C277.46,-565.88 300.5,-573.84 321.5,-580.25 328.21,-582.3 335.3,-584.33 342.33,-586.25"/>
<polygon fill="#63b8ff" stroke="#63b8ff" points="341.22,-589.57 351.78,-588.78 343.03,-582.81 341.22,-589.57"/>
</a>
</g>
</g>
<!-- Node8 -->
<g id="Node000008" class="node">
<title>Node8</title>
<g id="a_Node000008"><a xlink:href="classsensesp_1_1_sens_e_s_p_base_app.html#a2df22469c69a8a1234ab673386f574d6" target="_top" xlink:title="Get the singleton instance of the SensESPBaseApp.">
<polygon fill="white" stroke="#666666" points="1197.25,-429.88 1036.5,-429.88 1036.5,-410.62 1197.25,-410.62 1197.25,-429.88"/>
<text text-anchor="middle" x="1116.88" y="-416.38" font-family="Helvetica,sans-Serif" font-size="10.00">sensesp::SensESPBaseApp::get</text>
</a>
</g>
</g>
<!-- Node7&#45;&gt;Node8 -->
<g id="edge7_Node000007_Node000008" class="edge">
<title>Node7&#45;&gt;Node8</title>
<g id="a_edge7_Node000007_Node000008"><a xlink:title=" ">
<path fill="none" stroke="#63b8ff" d="M977.56,-373.9C1007.51,-383.93 1046.05,-396.85 1074.83,-406.49"/>
<polygon fill="#63b8ff" stroke="#63b8ff" points="1073.7,-409.81 1084.3,-409.67 1075.93,-403.17 1073.7,-409.81"/>
</a>
</g>
</g>
<!-- Node9&#45;&gt;Node4 -->
<g id="edge10_Node000009_Node000004" class="edge">
<title>Node9&#45;&gt;Node4</title>
<g id="a_edge10_Node000009_Node000004"><a xlink:title=" ">
<path fill="none" stroke="#63b8ff" d="M439.42,-472.94C459.31,-480.11 483.2,-488.67 504.75,-496.25 514.3,-499.61 524.61,-503.19 534.29,-506.53"/>
<polygon fill="#63b8ff" stroke="#63b8ff" points="532.85,-509.73 543.44,-509.68 535.13,-503.12 532.85,-509.73"/>
</a>
</g>
</g>
<!-- Node9&#45;&gt;Node8 -->
<g id="edge9_Node000009_Node000008" class="edge">
<title>Node9&#45;&gt;Node8</title>
<g id="a_edge9_Node000009_Node000008"><a xlink:title=" ">
<path fill="none" stroke="#63b8ff" d="M466.22,-461.69C479.03,-462.34 492.29,-462.91 504.75,-463.25 567.5,-464.98 583.29,-466.11 646,-463.25 778.11,-457.22 930.45,-441.69 1024.98,-431.05"/>
<polygon fill="#63b8ff" stroke="#63b8ff" points="1025.17,-434.55 1034.71,-429.95 1024.38,-427.59 1025.17,-434.55"/>
</a>
</g>
</g>
<!-- Node10 -->
<g id="Node000010" class="node">
<title>Node10</title>
<g id="a_Node000010"><a xlink:href="classsensesp_1_1_sens_e_s_p_base_app.html#ade8960b96e439f4cc0b387c312999dd5" target="_top" xlink:title="Get the hostname observable object.">
<polygon fill="white" stroke="#666666" points="646,-454.5 504.75,-454.5 504.75,-424 646,-424 646,-454.5"/>
<text text-anchor="start" x="512.75" y="-441" font-family="Helvetica,sans-Serif" font-size="10.00">sensesp::SensESPBaseApp</text>
<text text-anchor="middle" x="575.38" y="-429.75" font-family="Helvetica,sans-Serif" font-size="10.00">::get_hostname_observable</text>
</a>
</g>
</g>
<!-- Node9&#45;&gt;Node10 -->
<g id="edge11_Node000009_Node000010" class="edge">
<title>Node9&#45;&gt;Node10</title>
<g id="a_edge11_Node000009_Node000010"><a xlink:title=" ">
<path fill="none" stroke="#63b8ff" d="M466.06,-450.19C474.91,-449.29 484.02,-448.37 493.03,-447.46"/>
<polygon fill="#63b8ff" stroke="#63b8ff" points="493.24,-450.96 502.84,-446.47 492.54,-444 493.24,-450.96"/>
</a>
</g>
</g>
<!-- Node12 -->
<g id="Node000012" class="node">
<title>Node12</title>
<g id="a_Node000012"><a xlink:href="classsensesp_1_1_wi_fi_state_producer.html#a2a64fa7edd035de465cc257cf6fe5b30" target="_top" xlink:title=" ">
<polygon fill="white" stroke="#666666" points="465.75,-283.5 324.5,-283.5 324.5,-253 465.75,-253 465.75,-283.5"/>
<text text-anchor="start" x="332.5" y="-270" font-family="Helvetica,sans-Serif" font-size="10.00">sensesp::WiFiStateProducer</text>
<text text-anchor="middle" x="395.12" y="-258.75" font-family="Helvetica,sans-Serif" font-size="10.00">::WiFiStateProducer</text>
</a>
</g>
</g>
<!-- Node11&#45;&gt;Node12 -->
<g id="edge13_Node000011_Node000012" class="edge">
<title>Node11&#45;&gt;Node12</title>
<g id="a_edge13_Node000011_Node000012"><a xlink:title=" ">
<path fill="none" stroke="#63b8ff" d="M285.81,-287.09C294.66,-285.55 303.77,-283.96 312.78,-282.4"/>
<polygon fill="#63b8ff" stroke="#63b8ff" points="313.35,-285.85 322.61,-280.69 312.15,-278.95 313.35,-285.85"/>
</a>
</g>
</g>
<!-- Node12&#45;&gt;Node6 -->
<g id="edge14_Node000012_Node000006" class="edge">
<title>Node12&#45;&gt;Node6</title>
<g id="a_edge14_Node000012_Node000006"><a xlink:title=" ">
<path fill="none" stroke="#63b8ff" d="M425.06,-252.54C475.47,-226.16 583.44,-174.02 682,-155.25 743.67,-143.5 760.86,-148.25 823.25,-155.25 834.93,-156.56 847.21,-158.66 859.09,-161.09"/>
<polygon fill="#63b8ff" stroke="#63b8ff" points="858.34,-164.51 868.85,-163.19 859.81,-157.67 858.34,-164.51"/>
</a>
</g>
</g>
<!-- Node12&#45;&gt;Node7 -->
<g id="edge15_Node000012_Node000007" class="edge">
<title>Node12&#45;&gt;Node7</title>
<g id="a_edge15_Node000012_Node000007"><a xlink:title=" ">
<path fill="none" stroke="#63b8ff" d="M466.05,-280.06C564.51,-296.7 743.61,-326.95 847.79,-344.55"/>
<polygon fill="#63b8ff" stroke="#63b8ff" points="846.93,-347.96 857.37,-346.17 848.1,-341.05 846.93,-347.96"/>
</a>
</g>
</g>
<!-- Node13 -->
<g id="Node000013" class="node">
<title>Node13</title>
<g id="a_Node000013"><a xlink:href="classsensesp_1_1_wi_fi_state_producer.html#a200024c6ceaade999731beb109c62f2a" target="_top" xlink:title=" ">
<polygon fill="white" stroke="#666666" points="646,-267.5 504.75,-267.5 504.75,-237 646,-237 646,-267.5"/>
<text text-anchor="start" x="512.75" y="-254" font-family="Helvetica,sans-Serif" font-size="10.00">sensesp::WiFiStateProducer</text>
<text text-anchor="middle" x="575.38" y="-242.75" font-family="Helvetica,sans-Serif" font-size="10.00">::setup_wifi_callbacks</text>
</a>
</g>
</g>
<!-- Node12&#45;&gt;Node13 -->
<g id="edge16_Node000012_Node000013" class="edge">
<title>Node12&#45;&gt;Node13</title>
<g id="a_edge16_Node000012_Node000013"><a xlink:title=" ">
<path fill="none" stroke="#63b8ff" d="M466.06,-261.97C474.91,-261.18 484.02,-260.36 493.03,-259.55"/>
<polygon fill="#63b8ff" stroke="#63b8ff" points="493.19,-263.05 502.84,-258.67 492.57,-256.08 493.19,-263.05"/>
</a>
</g>
</g>
<!-- Node14 -->
<g id="Node000014" class="node">
<title>Node14</title>
<g id="a_Node000014"><a xlink:href="classsensesp_1_1_wi_fi_state_producer.html#a11cee5b6718a0cd0e05379714d2c2328" target="_top" xlink:title=" ">
<polygon fill="white" stroke="#666666" points="823.25,-292.5 682,-292.5 682,-262 823.25,-262 823.25,-292.5"/>
<text text-anchor="start" x="690" y="-279" font-family="Helvetica,sans-Serif" font-size="10.00">sensesp::WiFiStateProducer</text>
<text text-anchor="middle" x="752.62" y="-267.75" font-family="Helvetica,sans-Serif" font-size="10.00">::wifi_ap_enabled</text>
</a>
</g>
</g>
<!-- Node13&#45;&gt;Node14 -->
<g id="edge17_Node000013_Node000014" class="edge">
<title>Node13&#45;&gt;Node14</title>
<g id="a_edge17_Node000013_Node000014"><a xlink:title=" ">
<path fill="none" stroke="#63b8ff" d="M646.39,-262.24C654.3,-263.37 662.4,-264.52 670.44,-265.67"/>
<polygon fill="#63b8ff" stroke="#63b8ff" points="669.82,-269.12 680.22,-267.06 670.81,-262.19 669.82,-269.12"/>
</a>
</g>
</g>
<!-- Node15 -->
<g id="Node000015" class="node">
<title>Node15</title>
<g id="a_Node000015"><a xlink:href="classsensesp_1_1_wi_fi_state_producer.html#af5fd4ab02afc8ac88f41ea749bcb0523" target="_top" xlink:title=" ">
<polygon fill="white" stroke="#666666" points="823.25,-194.5 682,-194.5 682,-164 823.25,-164 823.25,-194.5"/>
<text text-anchor="start" x="690" y="-181" font-family="Helvetica,sans-Serif" font-size="10.00">sensesp::WiFiStateProducer</text>
<text text-anchor="middle" x="752.62" y="-169.75" font-family="Helvetica,sans-Serif" font-size="10.00">::wifi_disconnected</text>
</a>
</g>
</g>
<!-- Node13&#45;&gt;Node15 -->
<g id="edge20_Node000013_Node000015" class="edge">
<title>Node13&#45;&gt;Node15</title>
<g id="a_edge20_Node000013_Node000015"><a xlink:title=" ">
<path fill="none" stroke="#63b8ff" d="M608.9,-236.63C629.64,-226.89 657.18,-214.33 682,-204.25 686.35,-202.48 690.88,-200.71 695.45,-198.97"/>
<polygon fill="#63b8ff" stroke="#63b8ff" points="696.54,-202.3 704.69,-195.52 694.09,-195.74 696.54,-202.3"/>
</a>
</g>
</g>
<!-- Node16 -->
<g id="Node000016" class="node">
<title>Node16</title>
<g id="a_Node000016"><a xlink:href="classsensesp_1_1_wi_fi_state_producer.html#a56206e0c2e3d9faf5360dfb816dbbbe6" target="_top" xlink:title=" ">
<polygon fill="white" stroke="#666666" points="823.25,-243.5 682,-243.5 682,-213 823.25,-213 823.25,-243.5"/>
<text text-anchor="start" x="690" y="-230" font-family="Helvetica,sans-Serif" font-size="10.00">sensesp::WiFiStateProducer</text>
<text text-anchor="middle" x="752.62" y="-218.75" font-family="Helvetica,sans-Serif" font-size="10.00">::wifi_station_connected</text>
</a>
</g>
</g>
<!-- Node13&#45;&gt;Node16 -->
<g id="edge22_Node000013_Node000016" class="edge">
<title>Node13&#45;&gt;Node16</title>
<g id="a_edge22_Node000013_Node000016"><a xlink:title=" ">
<path fill="none" stroke="#63b8ff" d="M646.39,-242.66C654.3,-241.58 662.4,-240.47 670.44,-239.37"/>
<polygon fill="#63b8ff" stroke="#63b8ff" points="670.79,-242.85 680.22,-238.03 669.84,-235.92 670.79,-242.85"/>
</a>
</g>
</g>
<!-- Node14&#45;&gt;Node6 -->
<g id="edge18_Node000014_Node000006" class="edge">
<title>Node14&#45;&gt;Node6</title>
<g id="a_edge18_Node000014_Node000006"><a xlink:title=" ">
<path fill="none" stroke="#63b8ff" d="M802.26,-261.63C809.43,-258.8 816.62,-255.66 823.25,-252.25 850.98,-238 879.93,-217.53 900.5,-201.9"/>
<polygon fill="#63b8ff" stroke="#63b8ff" points="902.62,-204.68 908.4,-195.8 898.35,-199.13 902.62,-204.68"/>
</a>
</g>
</g>
<!-- Node14&#45;&gt;Node7 -->
<g id="edge19_Node000014_Node000007" class="edge">
<title>Node14&#45;&gt;Node7</title>
<g id="a_edge19_Node000014_Node000007"><a xlink:title=" ">
<path fill="none" stroke="#63b8ff" d="M792.48,-292.93C802.56,-297.13 813.35,-301.76 823.25,-306.25 845.02,-316.13 868.95,-327.84 888.52,-337.64"/>
<polygon fill="#63b8ff" stroke="#63b8ff" points="886.75,-340.67 897.26,-342.04 889.9,-334.42 886.75,-340.67"/>
</a>
</g>
</g>
<!-- Node15&#45;&gt;Node6 -->
<g id="edge21_Node000015_Node000006" class="edge">
<title>Node15&#45;&gt;Node6</title>
<g id="a_edge21_Node000015_Node000006"><a xlink:title=" ">
<path fill="none" stroke="#63b8ff" d="M823.64,-179.25C834.68,-179.25 846.11,-179.25 857.19,-179.25"/>
<polygon fill="#63b8ff" stroke="#63b8ff" points="857.06,-182.75 867.06,-179.25 857.06,-175.75 857.06,-182.75"/>
</a>
</g>
</g>
<!-- Node16&#45;&gt;Node6 -->
<g id="edge23_Node000016_Node000006" class="edge">
<title>Node16&#45;&gt;Node6</title>
<g id="a_edge23_Node000016_Node000006"><a xlink:title=" ">
<path fill="none" stroke="#63b8ff" d="M809.56,-212.61C826.07,-207.99 844.33,-202.89 861.48,-198.09"/>
<polygon fill="#63b8ff" stroke="#63b8ff" points="862.43,-201.46 871.11,-195.4 860.54,-194.72 862.43,-201.46"/>
</a>
</g>
</g>
<!-- Node18 -->
<g id="Node000018" class="node">
<title>Node18</title>
<g id="a_Node000018"><a xlink:href="namespacesensesp.html#adad24461f43358c45017cf1cb816ca60" target="_top" xlink:title="A base64&#45;encoded SHA&#45;1 hash function.">
<polygon fill="white" stroke="#666666" points="452.25,-67.88 338,-67.88 338,-48.62 452.25,-48.62 452.25,-67.88"/>
<text text-anchor="middle" x="395.12" y="-54.38" font-family="Helvetica,sans-Serif" font-size="10.00">sensesp::Base64Sha1</text>
</a>
</g>
</g>
<!-- Node17&#45;&gt;Node18 -->
<g id="edge25_Node000017_Node000018" class="edge">
<title>Node17&#45;&gt;Node18</title>
<g id="a_edge25_Node000017_Node000018"><a xlink:title=" ">
<path fill="none" stroke="#63b8ff" d="M271.79,-56.19C289.12,-56.48 308.41,-56.81 326.46,-57.11"/>
<polygon fill="#63b8ff" stroke="#63b8ff" points="326.23,-60.61 336.29,-57.28 326.35,-53.61 326.23,-60.61"/>
</a>
</g>
</g>
<!-- Node20 -->
<g id="Node000020" class="node">
<title>Node20</title>
<g id="a_Node000020"><a xlink:href="classsensesp_1_1_configurable.html#a0deaa5b717cd0f60d0105835cd6b595a" target="_top" xlink:title=" ">
<polygon fill="white" stroke="#666666" points="451.88,-30.5 338.38,-30.5 338.38,0 451.88,0 451.88,-30.5"/>
<text text-anchor="start" x="346.38" y="-17" font-family="Helvetica,sans-Serif" font-size="10.00">sensesp::Configurable</text>
<text text-anchor="middle" x="395.12" y="-5.75" font-family="Helvetica,sans-Serif" font-size="10.00">::set_configuration</text>
</a>
</g>
</g>
<!-- Node17&#45;&gt;Node20 -->
<g id="edge27_Node000017_Node000020" class="edge">
<title>Node17&#45;&gt;Node20</title>
<g id="a_edge27_Node000017_Node000020"><a xlink:title=" ">
<path fill="none" stroke="#63b8ff" d="M271.79,-42.7C289.29,-38.78 308.78,-34.4 326.98,-30.32"/>
<polygon fill="#63b8ff" stroke="#63b8ff" points="327.64,-33.76 336.63,-28.15 326.11,-26.93 327.64,-33.76"/>
</a>
</g>
</g>
<!-- Node19 -->
<g id="Node000019" class="node">
<title>Node19</title>
<g id="a_Node000019"><a xlink:href="namespacesensesp.html#a37dfeb5f75b7115464a9aa40473d69cf" target="_top" xlink:title="SHA&#45;1 hash function.">
<polygon fill="white" stroke="#666666" points="616,-67.88 534.75,-67.88 534.75,-48.62 616,-48.62 616,-67.88"/>
<text text-anchor="middle" x="575.38" y="-54.38" font-family="Helvetica,sans-Serif" font-size="10.00">sensesp::Sha1</text>
</a>
</g>
</g>
<!-- Node18&#45;&gt;Node19 -->
<g id="edge26_Node000018_Node000019" class="edge">
<title>Node18&#45;&gt;Node19</title>
<g id="a_edge26_Node000018_Node000019"><a xlink:title=" ">
<path fill="none" stroke="#63b8ff" d="M452.52,-58.25C475.09,-58.25 500.91,-58.25 522.95,-58.25"/>
<polygon fill="#63b8ff" stroke="#63b8ff" points="522.91,-61.75 532.91,-58.25 522.91,-54.75 522.91,-61.75"/>
</a>
</g>
</g>
<!-- Node21&#45;&gt;Node9 -->
<g id="edge29_Node000021_Node000009" class="edge">
<title>Node21&#45;&gt;Node9</title>
<g id="a_edge29_Node000021_Node000009"><a xlink:title=" ">
<path fill="none" stroke="#63b8ff" d="M269.36,-478.25C283.08,-475.94 298.16,-473.4 312.95,-470.91"/>
<polygon fill="#63b8ff" stroke="#63b8ff" points="313.4,-474.39 322.68,-469.27 312.24,-467.48 313.4,-474.39"/>
</a>
</g>
</g>
<!-- Node22&#45;&gt;Node7 -->
<g id="edge31_Node000022_Node000007" class="edge">
<title>Node22&#45;&gt;Node7</title>
<g id="a_edge31_Node000022_Node000007"><a xlink:title=" ">
<path fill="none" stroke="#63b8ff" d="M279.39,-399.97C390.05,-397.36 625.32,-390.06 823.25,-372.25 831.17,-371.54 839.4,-370.67 847.62,-369.72"/>
<polygon fill="#63b8ff" stroke="#63b8ff" points="847.78,-373.23 857.3,-368.56 846.95,-366.28 847.78,-373.23"/>
</a>
</g>
</g>
<!-- Node22&#45;&gt;Node9 -->
<g id="edge32_Node000022_Node000009" class="edge">
<title>Node22&#45;&gt;Node9</title>
<g id="a_edge32_Node000022_Node000009"><a xlink:title=" ">
<path fill="none" stroke="#63b8ff" d="M266,-417C286.88,-423.56 311.31,-431.23 333.21,-438.11"/>
<polygon fill="#63b8ff" stroke="#63b8ff" points="332.03,-441.41 342.62,-441.07 334.13,-434.73 332.03,-441.41"/>
</a>
</g>
</g>
</g>
</svg>
