<?xml version="1.0" encoding="UTF-8" standalone="no"?>
<!DOCTYPE svg PUBLIC "-//W3C//DTD SVG 1.1//EN"
 "http://www.w3.org/Graphics/SVG/1.1/DTD/svg11.dtd">
<!-- Generated by graphviz version 2.49.3 (20211023.0002)
 -->
<!-- Title: SymmetricTransform&lt; T &gt; Pages: 1 -->
<!--zoomable 640 -->
<svg id="main" version="1.1" xmlns="http://www.w3.org/2000/svg" xmlns:xlink="http://www.w3.org/1999/xlink" xml:space="preserve" onload="init(evt)">
<style type="text/css"><![CDATA[
.edge:hover path { stroke: red; }
.edge:hover polygon { stroke: red; fill: red; }
]]></style>
<script type="text/javascript"><![CDATA[
var edges = document.getElementsByTagName('g');
if (edges && edges.length) {
  for (var i=0;i<edges.length;i++) {
    if (edges[i].id.substr(0,4)=='edge') {
      edges[i].setAttribute('class','edge');
    }
  }
}
]]></script>
        <defs>
                <circle id="rim" cx="0" cy="0" r="7"/>
                <circle id="rim2" cx="0" cy="0" r="3.5"/>
                <g id="zoomPlus">
                        <use xlink:href="#rim" fill="#404040">
                                <set attributeName="fill" to="#808080" begin="zoomplus.mouseover" end="zoomplus.mouseout"/>
                        </use>
                        <path d="M-4,0h8M0,-4v8" fill="none" stroke="white" stroke-width="1.5" pointer-events="none"/>
                </g>
                <g id="zoomMin">
                        <use xlink:href="#rim" fill="#404040">
                                <set attributeName="fill" to="#808080" begin="zoomminus.mouseover" end="zoomminus.mouseout"/>
                        </use>
                        <path d="M-4,0h8" fill="none" stroke="white" stroke-width="1.5" pointer-events="none"/>
                </g>
                <g id="dirArrow">
                        <path fill="none" stroke="white" stroke-width="1.5" d="M0,-3.0v7 M-2.5,-0.5L0,-3.0L2.5,-0.5"/>
                </g>
               <g id="resetDef">
                       <use xlink:href="#rim2" fill="#404040">
                               <set attributeName="fill" to="#808080" begin="reset.mouseover" end="reset.mouseout"/>
                       </use>
               </g>
        </defs>

<script type="text/javascript">
var viewWidth = 1326;
var viewHeight = 640;
var sectionId = 'dynsection-0';
</script>
<script xlink:href="svgpan.js"/>
<svg id="graph" class="graph">
<g id="viewport">
<title>SymmetricTransform&lt; T &gt;</title>
<polygon fill="white" stroke="transparent" points="-4,4 -4,-636 1322,-636 1322,4 -4,4"/>
<!-- Node1 -->
<g id="node1" class="node">
<title>Node1</title>
<g id="a_node1"><a xlink:title="A common type of transform that consumes, transforms, then outputs values of the same data type.">
<polygon fill="#bfbfbf" stroke="black" points="820,-489.5 820,-508.5 952,-508.5 952,-489.5 820,-489.5"/>
<text text-anchor="middle" x="886" y="-496.5" font-family="Helvetica,sans-Serif" font-size="10.00">SymmetricTransform&lt; T &gt;</text>
</a>
</g>
</g>
<!-- Node14 -->
<g id="node14" class="node">
<title>Node14</title>
<g id="a_node14"><a xlink:href="class_debounce_template.html" target="_top" xlink:title="Implements debounce code for a button or switch.">
<polygon fill="white" stroke="black" points="1027,-603.5 1027,-622.5 1153,-622.5 1153,-603.5 1027,-603.5"/>
<text text-anchor="middle" x="1090" y="-610.5" font-family="Helvetica,sans-Serif" font-size="10.00">DebounceTemplate&lt; T &gt;</text>
</a>
</g>
</g>
<!-- Node1&#45;&gt;Node14 -->
<g id="edge16" class="edge">
<title>Node1&#45;&gt;Node14</title>
<path fill="none" stroke="midnightblue" d="M906.54,-515.15C932.57,-535.96 980.74,-572.07 1027,-594 1034.73,-597.67 1043.34,-600.83 1051.62,-603.47"/>
<polygon fill="midnightblue" stroke="midnightblue" points="908.57,-512.29 898.6,-508.72 904.17,-517.73 908.57,-512.29"/>
</g>
<!-- Node15 -->
<g id="node15" class="node">
<title>Node15</title>
<g id="a_node15"><a xlink:href="class_digital_output.html" target="_top" xlink:title="Sets a GPIO pin to whatever the input is (true = HIGH, false = LOW), and passes the value on to the n...">
<polygon fill="white" stroke="black" points="1035,-565.5 1035,-584.5 1145,-584.5 1145,-565.5 1035,-565.5"/>
<text text-anchor="middle" x="1090" y="-572.5" font-family="Helvetica,sans-Serif" font-size="10.00">DigitalOutput&lt; bool &gt;</text>
</a>
</g>
</g>
<!-- Node1&#45;&gt;Node15 -->
<g id="edge17" class="edge">
<title>Node1&#45;&gt;Node15</title>
<path fill="none" stroke="midnightblue" d="M918.4,-512.73C946.57,-524.81 989.18,-542.54 1027,-556 1036.33,-559.32 1046.58,-562.61 1056,-565.48"/>
<polygon fill="midnightblue" stroke="midnightblue" points="919.64,-509.45 909.07,-508.7 916.87,-515.88 919.64,-509.45"/>
</g>
<!-- Node16 -->
<g id="node16" class="node">
<title>Node16</title>
<g id="a_node16"><a xlink:href="class_press_repeater.html" target="_top" xlink:title="A transform that takes boolean inputs and adds button behaviors familiar to many device end users.">
<polygon fill="white" stroke="black" points="1030.5,-527.5 1030.5,-546.5 1149.5,-546.5 1149.5,-527.5 1030.5,-527.5"/>
<text text-anchor="middle" x="1090" y="-534.5" font-family="Helvetica,sans-Serif" font-size="10.00">PressRepeater&lt; bool &gt;</text>
</a>
</g>
</g>
<!-- Node1&#45;&gt;Node16 -->
<g id="edge18" class="edge">
<title>Node1&#45;&gt;Node16</title>
<path fill="none" stroke="midnightblue" d="M947.7,-510.42C976.6,-515.86 1010.77,-522.28 1038.27,-527.46"/>
<polygon fill="midnightblue" stroke="midnightblue" points="948.19,-506.95 937.71,-508.54 946.89,-513.83 948.19,-506.95"/>
</g>
<!-- Node17 -->
<g id="node17" class="node">
<title>Node17</title>
<g id="a_node17"><a xlink:href="class_repeat_report.html" target="_top" xlink:title="Ensures that values that do not change frequently are still reported at a specified maximum silence i...">
<polygon fill="white" stroke="black" points="1039,-489.5 1039,-508.5 1141,-508.5 1141,-489.5 1039,-489.5"/>
<text text-anchor="middle" x="1090" y="-496.5" font-family="Helvetica,sans-Serif" font-size="10.00">RepeatReport&lt; T &gt;</text>
</a>
</g>
</g>
<!-- Node1&#45;&gt;Node17 -->
<g id="edge19" class="edge">
<title>Node1&#45;&gt;Node17</title>
<path fill="none" stroke="midnightblue" d="M962.08,-499C987.68,-499 1015.67,-499 1038.83,-499"/>
<polygon fill="midnightblue" stroke="midnightblue" points="962.03,-495.5 952.03,-499 962.03,-502.5 962.03,-495.5"/>
</g>
<!-- Node18 -->
<g id="node18" class="node">
<title>Node18</title>
<g id="a_node18"><a xlink:href="class_s_k_output.html" target="_top" xlink:title="A specialized transform whose primary purpose is to output Signal K data on the Signal K network.">
<polygon fill="white" stroke="black" points="1048.5,-451.5 1048.5,-470.5 1131.5,-470.5 1131.5,-451.5 1048.5,-451.5"/>
<text text-anchor="middle" x="1090" y="-458.5" font-family="Helvetica,sans-Serif" font-size="10.00">SKOutput&lt; T &gt;</text>
</a>
</g>
</g>
<!-- Node1&#45;&gt;Node18 -->
<g id="edge20" class="edge">
<title>Node1&#45;&gt;Node18</title>
<path fill="none" stroke="midnightblue" d="M947.6,-487.6C980.2,-481.47 1019.54,-474.07 1048.44,-468.63"/>
<polygon fill="midnightblue" stroke="midnightblue" points="946.89,-484.17 937.71,-489.46 948.19,-491.05 946.89,-484.17"/>
</g>
<!-- Node20 -->
<g id="node20" class="node">
<title>Node20</title>
<g id="a_node20"><a xlink:href="class_smart_switch_controller.html" target="_top" xlink:title="A high level transform designed to control a digital output (such as a relay) via manual button press...">
<polygon fill="white" stroke="black" points="1032,-402 1032,-432 1148,-432 1148,-402 1032,-402"/>
<text text-anchor="start" x="1040" y="-420" font-family="Helvetica,sans-Serif" font-size="10.00">SmartSwitchController</text>
<text text-anchor="middle" x="1090" y="-409" font-family="Helvetica,sans-Serif" font-size="10.00">&lt; bool &gt;</text>
</a>
</g>
</g>
<!-- Node1&#45;&gt;Node20 -->
<g id="edge22" class="edge">
<title>Node1&#45;&gt;Node20</title>
<path fill="none" stroke="midnightblue" d="M919.7,-485.65C948.07,-474.08 990.23,-456.9 1027,-442 1034.96,-438.77 1043.5,-435.33 1051.62,-432.05"/>
<polygon fill="midnightblue" stroke="midnightblue" points="918.21,-482.48 910.28,-489.5 920.86,-488.96 918.21,-482.48"/>
</g>
<!-- Node21 -->
<g id="node21" class="node">
<title>Node21</title>
<g id="a_node21"><a xlink:href="class_symmetric_transform.html" target="_top" xlink:title=" ">
<polygon fill="white" stroke="black" points="1035.5,-261 1035.5,-291 1144.5,-291 1144.5,-261 1035.5,-261"/>
<text text-anchor="start" x="1043.5" y="-279" font-family="Helvetica,sans-Serif" font-size="10.00">SymmetricTransform</text>
<text text-anchor="middle" x="1090" y="-268" font-family="Helvetica,sans-Serif" font-size="10.00">&lt; float &gt;</text>
</a>
</g>
</g>
<!-- Node1&#45;&gt;Node21 -->
<g id="edge23" class="edge">
<title>Node1&#45;&gt;Node21</title>
<path fill="none" stroke="orange" stroke-dasharray="5,2" d="M902.49,-481.9C940.71,-439.71 1039.06,-331.13 1075.31,-291.11"/>
<polygon fill="orange" stroke="orange" points="899.8,-479.66 895.68,-489.42 904.99,-484.36 899.8,-479.66"/>
<text text-anchor="middle" x="989.5" y="-404" font-family="Helvetica,sans-Serif" font-size="10.00"> &lt; float &gt;</text>
</g>
<!-- Node2 -->
<g id="node2" class="node">
<title>Node2</title>
<g id="a_node2"><a xlink:href="class_transform.html" target="_top" xlink:title=" ">
<polygon fill="white" stroke="black" points="688,-489.5 688,-508.5 783,-508.5 783,-489.5 688,-489.5"/>
<text text-anchor="middle" x="735.5" y="-496.5" font-family="Helvetica,sans-Serif" font-size="10.00">Transform&lt; T, T &gt;</text>
</a>
</g>
</g>
<!-- Node2&#45;&gt;Node1 -->
<g id="edge1" class="edge">
<title>Node2&#45;&gt;Node1</title>
<path fill="none" stroke="midnightblue" d="M793.13,-499C801.86,-499 810.93,-499 819.82,-499"/>
<polygon fill="midnightblue" stroke="midnightblue" points="793.08,-495.5 783.08,-499 793.08,-502.5 793.08,-495.5"/>
</g>
<!-- Node3 -->
<g id="node3" class="node">
<title>Node3</title>
<g id="a_node3"><a xlink:href="class_transform_base.html" target="_top" xlink:title="The base class for all transforms. A transforms takes a value in, transforms it in some way,...">
<polygon fill="white" stroke="black" points="370,-467.5 370,-486.5 454,-486.5 454,-467.5 370,-467.5"/>
<text text-anchor="middle" x="412" y="-474.5" font-family="Helvetica,sans-Serif" font-size="10.00">TransformBase</text>
</a>
</g>
</g>
<!-- Node3&#45;&gt;Node2 -->
<g id="edge2" class="edge">
<title>Node3&#45;&gt;Node2</title>
<path fill="none" stroke="midnightblue" d="M464.32,-480.51C525.98,-484.73 628.54,-491.75 687.98,-495.82"/>
<polygon fill="midnightblue" stroke="midnightblue" points="464.26,-477 454.04,-479.81 463.78,-483.98 464.26,-477"/>
</g>
<!-- Node9 -->
<g id="node9" class="node">
<title>Node9</title>
<g id="a_node9"><a xlink:href="class_transform.html" target="_top" xlink:title="The main Transform class. A transform is identified primarily by the type of value that is produces (...">
<polygon fill="white" stroke="black" points="511,-511.5 511,-530.5 609,-530.5 609,-511.5 511,-511.5"/>
<text text-anchor="middle" x="560" y="-518.5" font-family="Helvetica,sans-Serif" font-size="10.00">Transform&lt; C, P &gt;</text>
</a>
</g>
</g>
<!-- Node3&#45;&gt;Node9 -->
<g id="edge9" class="edge">
<title>Node3&#45;&gt;Node9</title>
<path fill="none" stroke="midnightblue" d="M454.26,-489.43C477.46,-496.43 505.97,-505.02 527.38,-511.47"/>
<polygon fill="midnightblue" stroke="midnightblue" points="455.26,-486.08 444.68,-486.55 453.24,-492.78 455.26,-486.08"/>
</g>
<!-- Node4 -->
<g id="node4" class="node">
<title>Node4</title>
<g id="a_node4"><a xlink:href="class_configurable.html" target="_top" xlink:title="An object that is capable of having configuration data that can be set remotely using a RESTful API,...">
<polygon fill="white" stroke="black" points="123.5,-467.5 123.5,-486.5 196.5,-486.5 196.5,-467.5 123.5,-467.5"/>
<text text-anchor="middle" x="160" y="-474.5" font-family="Helvetica,sans-Serif" font-size="10.00">Configurable</text>
</a>
</g>
</g>
<!-- Node4&#45;&gt;Node3 -->
<g id="edge3" class="edge">
<title>Node4&#45;&gt;Node3</title>
<path fill="none" stroke="midnightblue" d="M206.67,-477C253.24,-477 324.84,-477 369.75,-477"/>
<polygon fill="midnightblue" stroke="midnightblue" points="206.55,-473.5 196.55,-477 206.55,-480.5 206.55,-473.5"/>
</g>
<!-- Node5 -->
<g id="node5" class="node">
<title>Node5</title>
<g id="a_node5"><a xlink:href="class_enable.html" target="_top" xlink:title="Classes that implement &quot;Enable&quot; will have their enable() method called automatically at startup when ...">
<polygon fill="white" stroke="black" points="136,-429.5 136,-448.5 184,-448.5 184,-429.5 136,-429.5"/>
<text text-anchor="middle" x="160" y="-436.5" font-family="Helvetica,sans-Serif" font-size="10.00">Enable</text>
</a>
</g>
</g>
<!-- Node5&#45;&gt;Node3 -->
<g id="edge4" class="edge">
<title>Node5&#45;&gt;Node3</title>
<path fill="none" stroke="midnightblue" d="M193.97,-444.01C239.26,-450.9 320.72,-463.28 369.93,-470.76"/>
<polygon fill="midnightblue" stroke="midnightblue" points="194.48,-440.55 184.07,-442.51 193.43,-447.47 194.48,-440.55"/>
</g>
<!-- Node6 -->
<g id="node6" class="node">
<title>Node6</title>
<g id="a_node6"><a xlink:href="class_value_consumer.html" target="_top" xlink:title="A base class for piece of code (like a transform) that accepts data for input. ValueConsumers can acc...">
<polygon fill="white" stroke="black" points="505,-429.5 505,-448.5 615,-448.5 615,-429.5 505,-429.5"/>
<text text-anchor="middle" x="560" y="-436.5" font-family="Helvetica,sans-Serif" font-size="10.00">ValueConsumer&lt; T &gt;</text>
</a>
</g>
</g>
<!-- Node6&#45;&gt;Node2 -->
<g id="edge5" class="edge">
<title>Node6&#45;&gt;Node2</title>
<path fill="none" stroke="midnightblue" d="M625.32,-449.89C640.23,-453.31 655.87,-457.63 670,-463 688.22,-469.92 707.54,-481.31 720.24,-489.43"/>
<polygon fill="midnightblue" stroke="midnightblue" points="625.65,-446.38 615.13,-447.67 624.16,-453.22 625.65,-446.38"/>
</g>
<!-- Node7 -->
<g id="node7" class="node">
<title>Node7</title>
<g id="a_node7"><a xlink:href="class_value_producer.html" target="_top" xlink:title="A base class for any sensor or piece of code that outputs a value for consumption elsewhere.">
<polygon fill="white" stroke="black" points="233,-612.5 233,-631.5 338,-631.5 338,-612.5 233,-612.5"/>
<text text-anchor="middle" x="285.5" y="-619.5" font-family="Helvetica,sans-Serif" font-size="10.00">ValueProducer&lt; T &gt;</text>
</a>
</g>
</g>
<!-- Node7&#45;&gt;Node2 -->
<g id="edge6" class="edge">
<title>Node7&#45;&gt;Node2</title>
<path fill="none" stroke="midnightblue" d="M334.77,-610.03C398.83,-594.12 515.45,-565.09 615,-540 639.46,-533.83 646.08,-534 670,-526 684.97,-520.99 701.36,-514.11 713.88,-508.54"/>
<polygon fill="midnightblue" stroke="midnightblue" points="333.81,-606.66 324.95,-612.46 335.5,-613.45 333.81,-606.66"/>
</g>
<!-- Node8 -->
<g id="node8" class="node">
<title>Node8</title>
<g id="a_node8"><a xlink:href="class_observable.html" target="_top" xlink:title="A base class which allow observers to attach callbacks to themselves. The callbacks will be called wh...">
<polygon fill="white" stroke="black" points="0,-581.5 0,-600.5 68,-600.5 68,-581.5 0,-581.5"/>
<text text-anchor="middle" x="34" y="-588.5" font-family="Helvetica,sans-Serif" font-size="10.00">Observable</text>
</a>
</g>
</g>
<!-- Node8&#45;&gt;Node7 -->
<g id="edge7" class="edge">
<title>Node8&#45;&gt;Node7</title>
<path fill="none" stroke="midnightblue" d="M76.19,-602.99C79.49,-603.74 82.79,-604.43 86,-605 135.37,-613.81 192.5,-618.1 232.75,-620.15"/>
<polygon fill="midnightblue" stroke="midnightblue" points="76.9,-599.56 66.35,-600.57 75.23,-606.36 76.9,-599.56"/>
</g>
<!-- Node12 -->
<g id="node12" class="node">
<title>Node12</title>
<g id="a_node12"><a xlink:href="class_value_producer.html" target="_top" xlink:title=" ">
<polygon fill="white" stroke="black" points="359,-543.5 359,-562.5 465,-562.5 465,-543.5 359,-543.5"/>
<text text-anchor="middle" x="412" y="-550.5" font-family="Helvetica,sans-Serif" font-size="10.00">ValueProducer&lt; P &gt;</text>
</a>
</g>
</g>
<!-- Node8&#45;&gt;Node12 -->
<g id="edge13" class="edge">
<title>Node8&#45;&gt;Node12</title>
<path fill="none" stroke="midnightblue" d="M78.4,-589.44C137.39,-586.92 246.08,-580.88 338,-568 348.12,-566.58 358.95,-564.61 369.08,-562.56"/>
<polygon fill="midnightblue" stroke="midnightblue" points="78.17,-585.94 68.33,-589.85 78.46,-592.94 78.17,-585.94"/>
</g>
<!-- Node13 -->
<g id="node13" class="node">
<title>Node13</title>
<g id="a_node13"><a xlink:href="class_value_producer.html" target="_top" xlink:title="A base class for any sensor or piece of code that outputs a value for consumption elsewhere.">
<polygon fill="white" stroke="black" points="107.5,-543.5 107.5,-562.5 212.5,-562.5 212.5,-543.5 107.5,-543.5"/>
<text text-anchor="middle" x="160" y="-550.5" font-family="Helvetica,sans-Serif" font-size="10.00">ValueProducer&lt; T &gt;</text>
</a>
</g>
</g>
<!-- Node8&#45;&gt;Node13 -->
<g id="edge15" class="edge">
<title>Node8&#45;&gt;Node13</title>
<path fill="none" stroke="midnightblue" d="M75.9,-578.46C92.77,-573.3 112.01,-567.4 127.72,-562.59"/>
<polygon fill="midnightblue" stroke="midnightblue" points="74.83,-575.13 66.29,-581.41 76.88,-581.83 74.83,-575.13"/>
</g>
<!-- Node9&#45;&gt;Node2 -->
<g id="edge8" class="edge">
<title>Node9&#45;&gt;Node2</title>
<path fill="none" stroke="orange" stroke-dasharray="5,2" d="M619.37,-513.6C641.69,-510.77 666.84,-507.58 687.92,-504.91"/>
<polygon fill="orange" stroke="orange" points="618.81,-510.14 609.33,-514.87 619.69,-517.09 618.81,-510.14"/>
<text text-anchor="middle" x="651.5" y="-514" font-family="Helvetica,sans-Serif" font-size="10.00"> &lt; T, T &gt;</text>
</g>
<!-- Node10 -->
<g id="node10" class="node">
<title>Node10</title>
<g id="a_node10"><a xlink:href="class_value_consumer.html" target="_top" xlink:title=" ">
<polygon fill="white" stroke="black" points="356,-505.5 356,-524.5 468,-524.5 468,-505.5 356,-505.5"/>
<text text-anchor="middle" x="412" y="-512.5" font-family="Helvetica,sans-Serif" font-size="10.00">ValueConsumer&lt; C &gt;</text>
</a>
</g>
</g>
<!-- Node10&#45;&gt;Node9 -->
<g id="edge10" class="edge">
<title>Node10&#45;&gt;Node9</title>
<path fill="none" stroke="midnightblue" d="M478.2,-517.68C489.2,-518.13 500.44,-518.59 510.9,-519.02"/>
<polygon fill="midnightblue" stroke="midnightblue" points="478.33,-514.18 468.2,-517.27 478.04,-521.18 478.33,-514.18"/>
</g>
<!-- Node11 -->
<g id="node11" class="node">
<title>Node11</title>
<g id="a_node11"><a xlink:href="class_value_consumer.html" target="_top" xlink:title="A base class for piece of code (like a transform) that accepts data for input. ValueConsumers can acc...">
<polygon fill="white" stroke="black" points="105,-505.5 105,-524.5 215,-524.5 215,-505.5 105,-505.5"/>
<text text-anchor="middle" x="160" y="-512.5" font-family="Helvetica,sans-Serif" font-size="10.00">ValueConsumer&lt; T &gt;</text>
</a>
</g>
</g>
<!-- Node11&#45;&gt;Node10 -->
<g id="edge11" class="edge">
<title>Node11&#45;&gt;Node10</title>
<path fill="none" stroke="orange" stroke-dasharray="5,2" d="M225.28,-515C265.75,-515 317.43,-515 356,-515"/>
<polygon fill="orange" stroke="orange" points="225.25,-511.5 215.25,-515 225.25,-518.5 225.25,-511.5"/>
<text text-anchor="middle" x="285.5" y="-518" font-family="Helvetica,sans-Serif" font-size="10.00"> &lt; C &gt;</text>
</g>
<!-- Node12&#45;&gt;Node9 -->
<g id="edge12" class="edge">
<title>Node12&#45;&gt;Node9</title>
<path fill="none" stroke="midnightblue" d="M466.28,-541.32C482.46,-537.78 500.04,-533.92 515.51,-530.53"/>
<polygon fill="midnightblue" stroke="midnightblue" points="465.43,-537.93 456.41,-543.49 466.93,-544.76 465.43,-537.93"/>
</g>
<!-- Node13&#45;&gt;Node12 -->
<g id="edge14" class="edge">
<title>Node13&#45;&gt;Node12</title>
<path fill="none" stroke="orange" stroke-dasharray="5,2" d="M222.86,-553C264.66,-553 319.24,-553 358.84,-553"/>
<polygon fill="orange" stroke="orange" points="222.8,-549.5 212.8,-553 222.8,-556.5 222.8,-549.5"/>
<text text-anchor="middle" x="285.5" y="-556" font-family="Helvetica,sans-Serif" font-size="10.00"> &lt; P &gt;</text>
</g>
<!-- Node19 -->
<g id="node19" class="node">
<title>Node19</title>
<g id="a_node19"><a xlink:href="class_s_k_output_numeric.html" target="_top" xlink:title="A special class for sending numeric values to the Signal K server on a specific Signal K path.">
<polygon fill="white" stroke="black" points="1194,-544.5 1194,-563.5 1314,-563.5 1314,-544.5 1194,-544.5"/>
<text text-anchor="middle" x="1254" y="-551.5" font-family="Helvetica,sans-Serif" font-size="10.00">SKOutputNumeric&lt; T &gt;</text>
</a>
</g>
</g>
<!-- Node18&#45;&gt;Node19 -->
<g id="edge21" class="edge">
<title>Node18&#45;&gt;Node19</title>
<path fill="none" stroke="midnightblue" d="M1140.96,-471.58C1145.35,-473.86 1149.47,-476.63 1153,-480 1170.1,-496.29 1153.8,-513.81 1171,-530 1177.7,-536.3 1185.96,-540.96 1194.64,-544.4"/>
<polygon fill="midnightblue" stroke="midnightblue" points="1142.2,-468.31 1131.63,-467.55 1139.42,-474.73 1142.2,-468.31"/>
</g>
<!-- Node22 -->
<g id="node22" class="node">
<title>Node22</title>
<g id="a_node22"><a xlink:href="class_a_d_s1x15_voltage.html" target="_top" xlink:title="Reads the raw output of the ADS1x15 (an integer between 0 and 32,768) and converts it back into the v...">
<polygon fill="white" stroke="black" points="1190,-457 1190,-487 1318,-487 1318,-457 1190,-457"/>
<text text-anchor="start" x="1198" y="-475" font-family="Helvetica,sans-Serif" font-size="10.00">ADS1x15Voltage&lt; T_ads</text>
<text text-anchor="middle" x="1254" y="-464" font-family="Helvetica,sans-Serif" font-size="10.00">_1x15, chip &gt;</text>
</a>
</g>
</g>
<!-- Node21&#45;&gt;Node22 -->
<g id="edge24" class="edge">
<title>Node21&#45;&gt;Node22</title>
<path fill="none" stroke="midnightblue" d="M1103.81,-300.11C1127.64,-344.63 1177.48,-436.2 1190,-447 1194.45,-450.84 1199.57,-454.14 1204.92,-456.95"/>
<polygon fill="midnightblue" stroke="midnightblue" points="1106.81,-298.29 1099.02,-291.12 1100.64,-301.59 1106.81,-298.29"/>
</g>
<!-- Node23 -->
<g id="node23" class="node">
<title>Node23</title>
<g id="a_node23"><a xlink:href="class_air_density.html" target="_top" xlink:title="Transforms temperature, relative humidity and pressure in air density.">
<polygon fill="white" stroke="black" points="1223,-418.5 1223,-437.5 1285,-437.5 1285,-418.5 1223,-418.5"/>
<text text-anchor="middle" x="1254" y="-425.5" font-family="Helvetica,sans-Serif" font-size="10.00">AirDensity</text>
</a>
</g>
</g>
<!-- Node21&#45;&gt;Node23 -->
<g id="edge25" class="edge">
<title>Node21&#45;&gt;Node23</title>
<path fill="none" stroke="midnightblue" d="M1102.8,-300.19C1118.59,-330.09 1149.39,-380.5 1190,-409 1199.63,-415.76 1211.71,-420.16 1222.71,-423"/>
<polygon fill="midnightblue" stroke="midnightblue" points="1105.89,-298.55 1098.2,-291.26 1099.66,-301.75 1105.89,-298.55"/>
</g>
<!-- Node24 -->
<g id="node24" class="node">
<title>Node24</title>
<g id="a_node24"><a xlink:href="class_analog_voltage.html" target="_top" xlink:title="A transform that takes the output of an analog&#45;to&#45;digital converter and outputs the voltage that went...">
<polygon fill="white" stroke="black" points="1213.5,-380.5 1213.5,-399.5 1294.5,-399.5 1294.5,-380.5 1213.5,-380.5"/>
<text text-anchor="middle" x="1254" y="-387.5" font-family="Helvetica,sans-Serif" font-size="10.00">AnalogVoltage</text>
</a>
</g>
</g>
<!-- Node21&#45;&gt;Node24 -->
<g id="edge26" class="edge">
<title>Node21&#45;&gt;Node24</title>
<path fill="none" stroke="midnightblue" d="M1109.19,-298.83C1127.47,-320.34 1157.54,-352.03 1190,-371 1197.2,-375.21 1205.42,-378.56 1213.48,-381.2"/>
<polygon fill="midnightblue" stroke="midnightblue" points="1111.86,-296.57 1102.78,-291.13 1106.49,-301.05 1111.86,-296.57"/>
</g>
<!-- Node25 -->
<g id="node25" class="node">
<title>Node25</title>
<g id="a_node25"><a xlink:href="class_angle_correction.html" target="_top" xlink:title="Add a value to an angle input (in radians). The output value is wrapped to a range between [0,...">
<polygon fill="white" stroke="black" points="1210,-342.5 1210,-361.5 1298,-361.5 1298,-342.5 1210,-342.5"/>
<text text-anchor="middle" x="1254" y="-349.5" font-family="Helvetica,sans-Serif" font-size="10.00">AngleCorrection</text>
</a>
</g>
</g>
<!-- Node21&#45;&gt;Node25 -->
<g id="edge27" class="edge">
<title>Node21&#45;&gt;Node25</title>
<path fill="none" stroke="midnightblue" d="M1122.36,-296.54C1141.37,-308.35 1166.42,-322.82 1190,-333 1198.29,-336.58 1207.46,-339.76 1216.18,-342.44"/>
<polygon fill="midnightblue" stroke="midnightblue" points="1124.14,-293.53 1113.82,-291.16 1120.41,-299.45 1124.14,-293.53"/>
</g>
<!-- Node26 -->
<g id="node26" class="node">
<title>Node26</title>
<g id="a_node26"><a xlink:href="class_change_filter.html" target="_top" xlink:title="A numeric passthrough transform that will only pass that value through if it is &quot;sufficiently differe...">
<polygon fill="white" stroke="black" points="1217,-304.5 1217,-323.5 1291,-323.5 1291,-304.5 1217,-304.5"/>
<text text-anchor="middle" x="1254" y="-311.5" font-family="Helvetica,sans-Serif" font-size="10.00">ChangeFilter</text>
</a>
</g>
</g>
<!-- Node21&#45;&gt;Node26 -->
<g id="edge28" class="edge">
<title>Node21&#45;&gt;Node26</title>
<path fill="none" stroke="midnightblue" d="M1154.78,-290.96C1175.78,-295.89 1198.41,-301.19 1216.64,-305.47"/>
<polygon fill="midnightblue" stroke="midnightblue" points="1155.48,-287.53 1144.94,-288.65 1153.88,-294.34 1155.48,-287.53"/>
</g>
<!-- Node27 -->
<g id="node27" class="node">
<title>Node27</title>
<g id="a_node27"><a xlink:href="class_curve_interpolator.html" target="_top" xlink:title="Uses a collection of input/output samples that approximate a non&#45;linear curve and outputs a value on ...">
<polygon fill="white" stroke="black" points="1207,-266.5 1207,-285.5 1301,-285.5 1301,-266.5 1207,-266.5"/>
<text text-anchor="middle" x="1254" y="-273.5" font-family="Helvetica,sans-Serif" font-size="10.00">CurveInterpolator</text>
</a>
</g>
</g>
<!-- Node21&#45;&gt;Node27 -->
<g id="edge29" class="edge">
<title>Node21&#45;&gt;Node27</title>
<path fill="none" stroke="midnightblue" d="M1155,-276C1172.33,-276 1190.74,-276 1206.88,-276"/>
<polygon fill="midnightblue" stroke="midnightblue" points="1154.94,-272.5 1144.94,-276 1154.94,-279.5 1154.94,-272.5"/>
</g>
<!-- Node28 -->
<g id="node28" class="node">
<title>Node28</title>
<g id="a_node28"><a xlink:href="class_dew_point.html" target="_top" xlink:title="Transforms temperature and relative humidity in dew point temperature.">
<polygon fill="white" stroke="black" points="1224.5,-228.5 1224.5,-247.5 1283.5,-247.5 1283.5,-228.5 1224.5,-228.5"/>
<text text-anchor="middle" x="1254" y="-235.5" font-family="Helvetica,sans-Serif" font-size="10.00">DewPoint</text>
</a>
</g>
</g>
<!-- Node21&#45;&gt;Node28 -->
<g id="edge30" class="edge">
<title>Node21&#45;&gt;Node28</title>
<path fill="none" stroke="midnightblue" d="M1154.74,-261.05C1178.8,-255.41 1204.99,-249.26 1224.27,-244.74"/>
<polygon fill="midnightblue" stroke="midnightblue" points="1153.88,-257.66 1144.94,-263.35 1155.48,-264.47 1153.88,-257.66"/>
</g>
<!-- Node29 -->
<g id="node29" class="node">
<title>Node29</title>
<g id="a_node29"><a xlink:href="class_difference.html" target="_top" xlink:title=" ">
<polygon fill="white" stroke="black" points="1223,-190.5 1223,-209.5 1285,-209.5 1285,-190.5 1223,-190.5"/>
<text text-anchor="middle" x="1254" y="-197.5" font-family="Helvetica,sans-Serif" font-size="10.00">Difference</text>
</a>
</g>
</g>
<!-- Node21&#45;&gt;Node29 -->
<g id="edge31" class="edge">
<title>Node21&#45;&gt;Node29</title>
<path fill="none" stroke="midnightblue" d="M1122.36,-255.46C1141.37,-243.65 1166.42,-229.18 1190,-219 1200.38,-214.52 1212.16,-210.66 1222.69,-207.61"/>
<polygon fill="midnightblue" stroke="midnightblue" points="1120.41,-252.55 1113.82,-260.84 1124.14,-258.47 1120.41,-252.55"/>
</g>
<!-- Node30 -->
<g id="node30" class="node">
<title>Node30</title>
<g id="a_node30"><a xlink:href="class_heat_index_temperature.html" target="_top" xlink:title="Transforms temperature and relative humidity in heat index temperature.">
<polygon fill="white" stroke="black" points="1195,-152.5 1195,-171.5 1313,-171.5 1313,-152.5 1195,-152.5"/>
<text text-anchor="middle" x="1254" y="-159.5" font-family="Helvetica,sans-Serif" font-size="10.00">HeatIndexTemperature</text>
</a>
</g>
</g>
<!-- Node21&#45;&gt;Node30 -->
<g id="edge32" class="edge">
<title>Node21&#45;&gt;Node30</title>
<path fill="none" stroke="midnightblue" d="M1109.19,-253.17C1127.47,-231.66 1157.54,-199.97 1190,-181 1196.51,-177.2 1203.85,-174.09 1211.16,-171.58"/>
<polygon fill="midnightblue" stroke="midnightblue" points="1106.49,-250.95 1102.78,-260.87 1111.86,-255.43 1106.49,-250.95"/>
</g>
<!-- Node31 -->
<g id="node31" class="node">
<title>Node31</title>
<g id="a_node31"><a xlink:href="class_median.html" target="_top" xlink:title="Outputs the median value of sample_size inputs.">
<polygon fill="white" stroke="black" points="1229.5,-114.5 1229.5,-133.5 1278.5,-133.5 1278.5,-114.5 1229.5,-114.5"/>
<text text-anchor="middle" x="1254" y="-121.5" font-family="Helvetica,sans-Serif" font-size="10.00">Median</text>
</a>
</g>
</g>
<!-- Node21&#45;&gt;Node31 -->
<g id="edge33" class="edge">
<title>Node21&#45;&gt;Node31</title>
<path fill="none" stroke="midnightblue" d="M1102.8,-251.81C1118.59,-221.91 1149.39,-171.5 1190,-143 1201.6,-134.86 1216.74,-130.15 1229.27,-127.45"/>
<polygon fill="midnightblue" stroke="midnightblue" points="1099.66,-250.25 1098.2,-260.74 1105.89,-253.45 1099.66,-250.25"/>
</g>
<!-- Node32 -->
<g id="node32" class="node">
<title>Node32</title>
<g id="a_node32"><a xlink:href="class_moving_average.html" target="_top" xlink:title="Outputs the moving average of the last sample_size inputs.">
<polygon fill="white" stroke="black" points="1211,-76.5 1211,-95.5 1297,-95.5 1297,-76.5 1211,-76.5"/>
<text text-anchor="middle" x="1254" y="-83.5" font-family="Helvetica,sans-Serif" font-size="10.00">MovingAverage</text>
</a>
</g>
</g>
<!-- Node21&#45;&gt;Node32 -->
<g id="edge34" class="edge">
<title>Node21&#45;&gt;Node32</title>
<path fill="none" stroke="midnightblue" d="M1098.69,-251.33C1111.54,-214.1 1140.95,-143.82 1190,-105 1196.09,-100.18 1203.39,-96.58 1210.83,-93.89"/>
<polygon fill="midnightblue" stroke="midnightblue" points="1095.34,-250.3 1095.5,-260.89 1101.98,-252.51 1095.34,-250.3"/>
</g>
<!-- Node33 -->
<g id="node33" class="node">
<title>Node33</title>
<g id="a_node33"><a xlink:href="class_voltage_divider_r1.html" target="_top" xlink:title="Uses the voltage divider formula to calculate (and output) the resistance of R1 in the circuit.">
<polygon fill="white" stroke="black" points="1207,-38.5 1207,-57.5 1301,-57.5 1301,-38.5 1207,-38.5"/>
<text text-anchor="middle" x="1254" y="-45.5" font-family="Helvetica,sans-Serif" font-size="10.00">VoltageDividerR1</text>
</a>
</g>
</g>
<!-- Node21&#45;&gt;Node33 -->
<g id="edge35" class="edge">
<title>Node21&#45;&gt;Node33</title>
<path fill="none" stroke="midnightblue" d="M1095.91,-250.99C1105.83,-207.2 1132.37,-116.6 1190,-67 1194.94,-62.75 1200.8,-59.45 1206.93,-56.89"/>
<polygon fill="midnightblue" stroke="midnightblue" points="1092.48,-250.3 1093.79,-260.81 1099.32,-251.78 1092.48,-250.3"/>
</g>
<!-- Node34 -->
<g id="node34" class="node">
<title>Node34</title>
<g id="a_node34"><a xlink:href="class_voltage_divider_r2.html" target="_top" xlink:title="Uses the voltage divider formula to calculate (and output) the resistance of R2 in the circuit.">
<polygon fill="white" stroke="black" points="1207,-0.5 1207,-19.5 1301,-19.5 1301,-0.5 1207,-0.5"/>
<text text-anchor="middle" x="1254" y="-7.5" font-family="Helvetica,sans-Serif" font-size="10.00">VoltageDividerR2</text>
</a>
</g>
</g>
<!-- Node21&#45;&gt;Node34 -->
<g id="edge36" class="edge">
<title>Node21&#45;&gt;Node34</title>
<path fill="none" stroke="midnightblue" d="M1093.89,-250.8C1100.94,-201.04 1123.63,-89.76 1190,-29 1194.8,-24.6 1200.59,-21.22 1206.69,-18.62"/>
<polygon fill="midnightblue" stroke="midnightblue" points="1090.38,-250.61 1092.55,-260.98 1097.32,-251.52 1090.38,-250.61"/>
</g>
<!-- Node35 -->
<g id="node35" class="node">
<title>Node35</title>
<g id="a_node35"><a xlink:href="class_voltage_multiplier.html" target="_top" xlink:title="OBSOLETE: Since you can now apply an &quot;output_scale&quot; to the AnalogInput sensor, you don&#39;t need this tr...">
<polygon fill="white" stroke="black" points="1209,-506.5 1209,-525.5 1299,-525.5 1299,-506.5 1209,-506.5"/>
<text text-anchor="middle" x="1254" y="-513.5" font-family="Helvetica,sans-Serif" font-size="10.00">VoltageMultiplier</text>
</a>
</g>
</g>
<!-- Node21&#45;&gt;Node35 -->
<g id="edge37" class="edge">
<title>Node21&#45;&gt;Node35</title>
<path fill="none" stroke="midnightblue" d="M1105.08,-299.76C1118.42,-322.84 1138.52,-359.12 1153,-392 1172.94,-437.28 1154.22,-462.82 1190,-497 1195.29,-502.05 1201.87,-505.76 1208.77,-508.49"/>
<polygon fill="midnightblue" stroke="midnightblue" points="1108.04,-297.89 1099.98,-291.02 1101.99,-301.42 1108.04,-297.89"/>
</g>
</g>
</svg>
        <g id="navigator" transform="translate(0 0)" fill="#404254">
                <rect fill="#f2f5e9" fill-opacity="0.5" stroke="#606060" stroke-width=".5" x="0" y="0" width="60" height="60"/>
                <use id="zoomplus" xlink:href="#zoomPlus" x="17" y="9" onmousedown="handleZoom(evt,'in')"/>
                <use id="zoomminus" xlink:href="#zoomMin" x="42" y="9" onmousedown="handleZoom(evt,'out')"/>
                <use id="reset" xlink:href="#resetDef" x="30" y="36" onmousedown="handleReset()"/>
                <g id="arrowUp" xlink:href="#dirArrow" transform="translate(30 24)" onmousedown="handlePan(0,-1)">
                  <use xlink:href="#rim" fill="#404040">
                        <set attributeName="fill" to="#808080" begin="arrowUp.mouseover" end="arrowUp.mouseout"/>
                  </use>
                  <path fill="none" stroke="white" stroke-width="1.5" d="M0,-3.0v7 M-2.5,-0.5L0,-3.0L2.5,-0.5"/>
                </g>
                <g id="arrowRight" xlink:href="#dirArrow" transform="rotate(90) translate(36 -43)" onmousedown="handlePan(1,0)">
                  <use xlink:href="#rim" fill="#404040">
                        <set attributeName="fill" to="#808080" begin="arrowRight.mouseover" end="arrowRight.mouseout"/>
                  </use>
                  <path fill="none" stroke="white" stroke-width="1.5" d="M0,-3.0v7 M-2.5,-0.5L0,-3.0L2.5,-0.5"/>
                </g>
                <g id="arrowDown" xlink:href="#dirArrow" transform="rotate(180) translate(-30 -48)" onmousedown="handlePan(0,1)">
                  <use xlink:href="#rim" fill="#404040">
                        <set attributeName="fill" to="#808080" begin="arrowDown.mouseover" end="arrowDown.mouseout"/>
                  </use>
                  <path fill="none" stroke="white" stroke-width="1.5" d="M0,-3.0v7 M-2.5,-0.5L0,-3.0L2.5,-0.5"/>
                </g>
                <g id="arrowLeft" xlink:href="#dirArrow" transform="rotate(270) translate(-36 17)" onmousedown="handlePan(-1,0)">
                  <use xlink:href="#rim" fill="#404040">
                        <set attributeName="fill" to="#808080" begin="arrowLeft.mouseover" end="arrowLeft.mouseout"/>
                  </use>
                  <path fill="none" stroke="white" stroke-width="1.5" d="M0,-3.0v7 M-2.5,-0.5L0,-3.0L2.5,-0.5"/>
                </g>
        </g>
        <svg viewBox="0 0 15 15" width="100%" height="30px" preserveAspectRatio="xMaxYMin meet">
         <g id="arrow_out" transform="scale(0.3 0.3)">
          <a xlink:href="class_symmetric_transform__inherit__graph_org.svg" target="_base">
           <rect id="button" ry="5" rx="5" y="6" x="6" height="38" width="38"
                fill="#f2f5e9" fill-opacity="0.5" stroke="#606060" stroke-width="1.0"/>
           <path id="arrow"
             d="M 11.500037,31.436501 C 11.940474,20.09759 22.043105,11.32322 32.158766,21.979434 L 37.068811,17.246167 C 37.068811,17.246167 37.088388,32 37.088388,32 L 22.160133,31.978069 C 22.160133,31.978069 26.997745,27.140456 26.997745,27.140456 C 18.528582,18.264221 13.291696,25.230495 11.500037,31.436501 z"
             style="fill:#404040;"/>
          </a>
         </g>
        </svg>
</svg>
