<?xml version="1.0" encoding="UTF-8" standalone="no"?>
<!DOCTYPE svg PUBLIC "-//W3C//DTD SVG 1.1//EN"
 "http://www.w3.org/Graphics/SVG/1.1/DTD/svg11.dtd">
<!-- Generated by graphviz version 7.1.0 (20230121.1956)
 -->
<!-- Title: sensesp::ClickType::emitDelayed Pages: 1 -->
<svg width="414pt" height="38pt"
 viewBox="0.00 0.00 414.00 38.00" xmlns="http://www.w3.org/2000/svg" xmlns:xlink="http://www.w3.org/1999/xlink">
<g id="graph0" class="graph" transform="scale(1 1) rotate(0) translate(4 34)">
<title>sensesp::ClickType::emitDelayed</title>
<!-- Node1 -->
<g id="node1" class="node">
<title>Node1</title>
<g id="a_node1"><a xlink:title=" ">
<polygon fill="#999999" stroke="#666666" points="103,-30 0,-30 0,0 103,0 103,-30"/>
<text text-anchor="start" x="8" y="-18" font-family="Helvetica,sans-Serif" font-size="10.00">sensesp::ClickType</text>
<text text-anchor="middle" x="51.5" y="-7" font-family="Helvetica,sans-Serif" font-size="10.00">::emitDelayed</text>
</a>
</g>
</g>
<!-- Node2 -->
<g id="node2" class="node">
<title>Node2</title>
<g id="a_node2"><a xlink:href="classsensesp_1_1_value_producer.html#ae34225039d68b6f0e786266e76c2dace" target="_top" xlink:title=" ">
<polygon fill="white" stroke="#666666" points="261,-30 139,-30 139,0 261,0 261,-30"/>
<text text-anchor="start" x="147" y="-18" font-family="Helvetica,sans-Serif" font-size="10.00">sensesp::ValueProducer</text>
<text text-anchor="middle" x="200" y="-7" font-family="Helvetica,sans-Serif" font-size="10.00">::emit</text>
</a>
</g>
</g>
<!-- Node1&#45;&gt;Node2 -->
<g id="edge1" class="edge">
<title>Node1&#45;&gt;Node2</title>
<path fill="none" stroke="#63b8ff" d="M103.33,-15C111.08,-15 119.2,-15 127.3,-15"/>
<polygon fill="#63b8ff" stroke="#63b8ff" points="127.17,-18.5 137.17,-15 127.17,-11.5 127.17,-18.5"/>
</g>
<!-- Node3 -->
<g id="node3" class="node">
<title>Node3</title>
<g id="a_node3"><a xlink:href="classsensesp_1_1_observable.html#ab86d00fed8fb85b4c76cb9397667ece9" target="_top" xlink:title=" ">
<polygon fill="white" stroke="#666666" points="406,-30 297,-30 297,0 406,0 406,-30"/>
<text text-anchor="start" x="305" y="-18" font-family="Helvetica,sans-Serif" font-size="10.00">sensesp::Observable</text>
<text text-anchor="middle" x="351.5" y="-7" font-family="Helvetica,sans-Serif" font-size="10.00">::notify</text>
</a>
</g>
</g>
<!-- Node2&#45;&gt;Node3 -->
<g id="edge2" class="edge">
<title>Node2&#45;&gt;Node3</title>
<path fill="none" stroke="#63b8ff" d="M261.38,-15C269.22,-15 277.28,-15 285.19,-15"/>
<polygon fill="#63b8ff" stroke="#63b8ff" points="285.13,-18.5 295.13,-15 285.13,-11.5 285.13,-18.5"/>
</g>
</g>
</svg>
