<?xml version="1.0" encoding="UTF-8" standalone="no"?>
<!DOCTYPE svg PUBLIC "-//W3C//DTD SVG 1.1//EN"
 "http://www.w3.org/Graphics/SVG/1.1/DTD/svg11.dtd">
<!-- Generated by graphviz version 2.47.0 (20210316.0004)
 -->
<!-- Title: LambdaTransform&lt; IN, OUT, P1, P2, P3, P4, P5, P6 &gt; Pages: 1 -->
<!--zoomable 177 -->
<svg id="main" version="1.1" xmlns="http://www.w3.org/2000/svg" xmlns:xlink="http://www.w3.org/1999/xlink" xml:space="preserve" onload="init(evt)">
<style type="text/css"><![CDATA[
.edge:hover path { stroke: red; }
.edge:hover polygon { stroke: red; fill: red; }
]]></style>
<script type="text/javascript"><![CDATA[
var edges = document.getElementsByTagName('g');
if (edges && edges.length) {
  for (var i=0;i<edges.length;i++) {
    if (edges[i].id.substr(0,4)=='edge') {
      edges[i].setAttribute('class','edge');
    }
  }
}
]]></script>
        <defs>
                <circle id="rim" cx="0" cy="0" r="7"/>
                <circle id="rim2" cx="0" cy="0" r="3.5"/>
                <g id="zoomPlus">
                        <use xlink:href="#rim" fill="#404040">
                                <set attributeName="fill" to="#808080" begin="zoomplus.mouseover" end="zoomplus.mouseout"/>
                        </use>
                        <path d="M-4,0h8M0,-4v8" fill="none" stroke="white" stroke-width="1.5" pointer-events="none"/>
                </g>
                <g id="zoomMin">
                        <use xlink:href="#rim" fill="#404040">
                                <set attributeName="fill" to="#808080" begin="zoomminus.mouseover" end="zoomminus.mouseout"/>
                        </use>
                        <path d="M-4,0h8" fill="none" stroke="white" stroke-width="1.5" pointer-events="none"/>
                </g>
                <g id="dirArrow">
                        <path fill="none" stroke="white" stroke-width="1.5" d="M0,-3.0v7 M-2.5,-0.5L0,-3.0L2.5,-0.5"/>
                </g>
               <g id="resetDef">
                       <use xlink:href="#rim2" fill="#404040">
                               <set attributeName="fill" to="#808080" begin="reset.mouseover" end="reset.mouseout"/>
                       </use>
               </g>
        </defs>

<script type="text/javascript">
var viewWidth = 1316;
var viewHeight = 177;
var sectionId = 'dynsection-0';
</script>
<script xlink:href="svgpan.js"/>
<svg id="graph" class="graph">
<g id="viewport">
<title>LambdaTransform&lt; IN, OUT, P1, P2, P3, P4, P5, P6 &gt;</title>
<polygon fill="white" stroke="transparent" points="-4,4 -4,-173 1312,-173 1312,4 -4,4"/>
<!-- Node1 -->
<g id="node1" class="node">
<title>Node1</title>
<g id="a_node1"><a xlink:title="Construct a new transform based on a single function.">
<polygon fill="#bfbfbf" stroke="black" points="347,-57 347,-98 465,-98 465,-57 347,-57"/>
<text text-anchor="start" x="355" y="-86" font-family="Helvetica,sans-Serif" font-size="10.00">LambdaTransform&lt; IN,</text>
<text text-anchor="start" x="355" y="-75" font-family="Helvetica,sans-Serif" font-size="10.00"> OUT, P1, P2, P3, P4,</text>
<text text-anchor="middle" x="406" y="-64" font-family="Helvetica,sans-Serif" font-size="10.00"> P5, P6 &gt;</text>
</a>
</g>
</g>
<!-- Node4 -->
<g id="node4" class="node">
<title>Node4</title>
<g id="a_node4"><a xlink:href="class_lambda_transform.html" target="_top" xlink:title=" ">
<polygon fill="white" stroke="black" points="586,-138.5 586,-168.5 720,-168.5 720,-138.5 586,-138.5"/>
<text text-anchor="start" x="594" y="-156.5" font-family="Helvetica,sans-Serif" font-size="10.00">LambdaTransform&lt; IN,</text>
<text text-anchor="middle" x="653" y="-145.5" font-family="Helvetica,sans-Serif" font-size="10.00"> OUT, IN, IN, OUT, OUT &gt;</text>
</a>
</g>
</g>
<!-- Node1&#45;&gt;Node4 -->
<g id="edge3" class="edge">
<title>Node1&#45;&gt;Node4</title>
<path fill="none" stroke="orange" stroke-dasharray="5,2" d="M460.49,-102C467.98,-105.05 475.63,-107.98 483,-110.5 516.37,-121.91 554.37,-131.84 585.87,-139.27"/>
<polygon fill="orange" stroke="orange" points="461.71,-98.71 451.14,-98.08 459.01,-105.17 461.71,-98.71"/>
<text text-anchor="start" x="483" y="-147.5" font-family="Helvetica,sans-Serif" font-size="10.00"> &lt; IN, OUT, IN, IN,</text>
<text text-anchor="middle" x="525.5" y="-136.5" font-family="Helvetica,sans-Serif" font-size="10.00"> OUT, OUT &gt;</text>
</g>
<!-- Node6 -->
<g id="node6" class="node">
<title>Node6</title>
<g id="a_node6"><a xlink:href="class_lambda_transform.html" target="_top" xlink:title=" ">
<polygon fill="white" stroke="black" points="594,-89.5 594,-119.5 712,-119.5 712,-89.5 594,-89.5"/>
<text text-anchor="start" x="602" y="-107.5" font-family="Helvetica,sans-Serif" font-size="10.00">LambdaTransform&lt; IN,</text>
<text text-anchor="middle" x="653" y="-96.5" font-family="Helvetica,sans-Serif" font-size="10.00"> OUT &gt;</text>
</a>
</g>
</g>
<!-- Node1&#45;&gt;Node6 -->
<g id="edge5" class="edge">
<title>Node1&#45;&gt;Node6</title>
<path fill="none" stroke="orange" stroke-dasharray="5,2" d="M475.35,-85.03C512.66,-89.14 558.36,-94.18 593.93,-98.1"/>
<polygon fill="orange" stroke="orange" points="475.38,-81.52 465.06,-83.9 474.62,-88.47 475.38,-81.52"/>
<text text-anchor="middle" x="525.5" y="-98.5" font-family="Helvetica,sans-Serif" font-size="10.00"> &lt; IN, OUT &gt;</text>
</g>
<!-- Node10 -->
<g id="node10" class="node">
<title>Node10</title>
<g id="a_node10"><a xlink:href="class_lambda_transform.html" target="_top" xlink:title=" ">
<polygon fill="white" stroke="black" points="738,-45.5 738,-75.5 864,-75.5 864,-45.5 738,-45.5"/>
<text text-anchor="start" x="746" y="-63.5" font-family="Helvetica,sans-Serif" font-size="10.00">LambdaTransform&lt; float,</text>
<text text-anchor="middle" x="801" y="-52.5" font-family="Helvetica,sans-Serif" font-size="10.00"> int &gt;</text>
</a>
</g>
</g>
<!-- Node1&#45;&gt;Node10 -->
<g id="edge9" class="edge">
<title>Node1&#45;&gt;Node10</title>
<path fill="none" stroke="orange" stroke-dasharray="5,2" d="M475.25,-71.97C477.87,-71.8 480.46,-71.64 483,-71.5 571.38,-66.48 673.76,-63.43 737.71,-61.85"/>
<polygon fill="orange" stroke="orange" points="474.82,-68.49 465.07,-72.65 475.29,-75.47 474.82,-68.49"/>
<text text-anchor="middle" x="525.5" y="-74.5" font-family="Helvetica,sans-Serif" font-size="10.00"> &lt; float, int &gt;</text>
</g>
<!-- Node11 -->
<g id="node11" class="node">
<title>Node11</title>
<g id="a_node11"><a xlink:href="class_lambda_transform.html" target="_top" xlink:title=" ">
<polygon fill="white" stroke="black" points="590,-0.5 590,-30.5 716,-30.5 716,-0.5 590,-0.5"/>
<text text-anchor="start" x="598" y="-18.5" font-family="Helvetica,sans-Serif" font-size="10.00">LambdaTransform&lt; float,</text>
<text text-anchor="middle" x="653" y="-7.5" font-family="Helvetica,sans-Serif" font-size="10.00"> float, float, float &gt;</text>
</a>
</g>
</g>
<!-- Node1&#45;&gt;Node11 -->
<g id="edge11" class="edge">
<title>Node1&#45;&gt;Node11</title>
<path fill="none" stroke="orange" stroke-dasharray="5,2" d="M432.8,-49.48C446.36,-36.82 464.07,-23.22 483,-16.5 516.87,-4.48 557.02,-3.73 589.69,-6.22"/>
<polygon fill="orange" stroke="orange" points="430.04,-47.28 425.32,-56.77 434.93,-52.3 430.04,-47.28"/>
<text text-anchor="start" x="483.5" y="-30.5" font-family="Helvetica,sans-Serif" font-size="10.00"> &lt; float, float, float,</text>
<text text-anchor="middle" x="525.5" y="-19.5" font-family="Helvetica,sans-Serif" font-size="10.00"> float &gt;</text>
</g>
<!-- Node2 -->
<g id="node2" class="node">
<title>Node2</title>
<g id="a_node2"><a xlink:href="class_transform.html" target="_top" xlink:title=" ">
<polygon fill="white" stroke="black" points="194,-68 194,-87 310,-87 310,-68 194,-68"/>
<text text-anchor="middle" x="252" y="-75" font-family="Helvetica,sans-Serif" font-size="10.00">Transform&lt; IN, OUT &gt;</text>
</a>
</g>
</g>
<!-- Node2&#45;&gt;Node1 -->
<g id="edge1" class="edge">
<title>Node2&#45;&gt;Node1</title>
<path fill="none" stroke="midnightblue" d="M320.04,-77.5C328.99,-77.5 338.11,-77.5 346.89,-77.5"/>
<polygon fill="midnightblue" stroke="midnightblue" points="320.03,-74 310.03,-77.5 320.03,-81 320.03,-74"/>
</g>
<!-- Node3 -->
<g id="node3" class="node">
<title>Node3</title>
<g id="a_node3"><a xlink:href="class_transform.html" target="_top" xlink:title="The main Transform class. A transform is identified primarily by the type of value that is produces (...">
<polygon fill="white" stroke="black" points="0,-68 0,-87 99,-87 99,-68 0,-68"/>
<text text-anchor="middle" x="49.5" y="-75" font-family="Helvetica,sans-Serif" font-size="10.00">Transform&lt; C, P &gt;</text>
</a>
</g>
</g>
<!-- Node3&#45;&gt;Node2 -->
<g id="edge2" class="edge">
<title>Node3&#45;&gt;Node2</title>
<path fill="none" stroke="orange" stroke-dasharray="5,2" d="M109.35,-77.5C135.94,-77.5 167.25,-77.5 193.65,-77.5"/>
<polygon fill="orange" stroke="orange" points="109.04,-74 99.04,-77.5 109.04,-81 109.04,-74"/>
<text text-anchor="middle" x="146.5" y="-80.5" font-family="Helvetica,sans-Serif" font-size="10.00"> &lt; IN, OUT &gt;</text>
</g>
<!-- Node5 -->
<g id="node5" class="node">
<title>Node5</title>
<g id="a_node5"><a xlink:href="class_hysteresis.html" target="_top" xlink:title="Hysteresis function.">
<polygon fill="white" stroke="black" points="882,-144 882,-163 1001,-163 1001,-144 882,-144"/>
<text text-anchor="middle" x="941.5" y="-151" font-family="Helvetica,sans-Serif" font-size="10.00">Hysteresis&lt; IN, OUT &gt;</text>
</a>
</g>
</g>
<!-- Node4&#45;&gt;Node5 -->
<g id="edge4" class="edge">
<title>Node4&#45;&gt;Node5</title>
<path fill="none" stroke="midnightblue" d="M730.31,-153.5C777.74,-153.5 837.79,-153.5 881.55,-153.5"/>
<polygon fill="midnightblue" stroke="midnightblue" points="730.09,-150 720.09,-153.5 730.09,-157 730.09,-150"/>
</g>
<!-- Node7 -->
<g id="node7" class="node">
<title>Node7</title>
<g id="a_node7"><a xlink:href="class_typecast.html" target="_top" xlink:title="Converts input from one data type to another, then outputs the new type.">
<polygon fill="white" stroke="black" points="885.5,-91 885.5,-110 997.5,-110 997.5,-91 885.5,-91"/>
<text text-anchor="middle" x="941.5" y="-98" font-family="Helvetica,sans-Serif" font-size="10.00">Typecast&lt; IN, OUT &gt;</text>
</a>
</g>
</g>
<!-- Node6&#45;&gt;Node7 -->
<g id="edge6" class="edge">
<title>Node6&#45;&gt;Node7</title>
<path fill="none" stroke="midnightblue" d="M722.36,-103.55C772.15,-102.85 838.72,-101.92 885.18,-101.27"/>
<polygon fill="midnightblue" stroke="midnightblue" points="722.27,-100.05 712.32,-103.69 722.37,-107.05 722.27,-100.05"/>
</g>
<!-- Node8 -->
<g id="node8" class="node">
<title>Node8</title>
<g id="a_node8"><a xlink:href="class_typecast.html" target="_top" xlink:title=" ">
<polygon fill="white" stroke="black" points="1094,-68 1094,-87 1204,-87 1204,-68 1094,-68"/>
<text text-anchor="middle" x="1149" y="-75" font-family="Helvetica,sans-Serif" font-size="10.00">Typecast&lt; float, int &gt;</text>
</a>
</g>
</g>
<!-- Node7&#45;&gt;Node8 -->
<g id="edge7" class="edge">
<title>Node7&#45;&gt;Node8</title>
<path fill="none" stroke="orange" stroke-dasharray="5,2" d="M1007.59,-93.21C1035.36,-90.11 1067.4,-86.52 1093.85,-83.56"/>
<polygon fill="orange" stroke="orange" points="1007.12,-89.75 997.57,-94.34 1007.9,-96.7 1007.12,-89.75"/>
<text text-anchor="middle" x="1047.5" y="-95.5" font-family="Helvetica,sans-Serif" font-size="10.00"> &lt; float, int &gt;</text>
</g>
<!-- Node9 -->
<g id="node9" class="node">
<title>Node9</title>
<g id="a_node9"><a xlink:href="class_round_to_int.html" target="_top" xlink:title="Takes as its input a float, rounds it to the nearest whole number, then outputs it as an int.">
<polygon fill="white" stroke="black" points="1241,-68 1241,-87 1308,-87 1308,-68 1241,-68"/>
<text text-anchor="middle" x="1274.5" y="-75" font-family="Helvetica,sans-Serif" font-size="10.00">RoundToInt</text>
</a>
</g>
</g>
<!-- Node8&#45;&gt;Node9 -->
<g id="edge8" class="edge">
<title>Node8&#45;&gt;Node9</title>
<path fill="none" stroke="midnightblue" d="M1214.43,-77.5C1223.52,-77.5 1232.54,-77.5 1240.69,-77.5"/>
<polygon fill="midnightblue" stroke="midnightblue" points="1214.17,-74 1204.17,-77.5 1214.17,-81 1214.17,-74"/>
</g>
<!-- Node10&#45;&gt;Node8 -->
<g id="edge10" class="edge">
<title>Node10&#45;&gt;Node8</title>
<path fill="none" stroke="midnightblue" d="M874.5,-64.06C939.98,-67.28 1034.86,-71.94 1093.92,-74.84"/>
<polygon fill="midnightblue" stroke="midnightblue" points="874.42,-60.55 864.26,-63.56 874.07,-67.55 874.42,-60.55"/>
</g>
<!-- Node12 -->
<g id="node12" class="node">
<title>Node12</title>
<g id="a_node12"><a xlink:href="class_linear.html" target="_top" xlink:title="Performs a linear transform on the input value: output = (input * multiplier) + offset.">
<polygon fill="white" stroke="black" points="920,-6 920,-25 963,-25 963,-6 920,-6"/>
<text text-anchor="middle" x="941.5" y="-13" font-family="Helvetica,sans-Serif" font-size="10.00">Linear</text>
</a>
</g>
</g>
<!-- Node11&#45;&gt;Node12 -->
<g id="edge12" class="edge">
<title>Node11&#45;&gt;Node12</title>
<path fill="none" stroke="midnightblue" d="M726.24,-15.5C790.41,-15.5 880.04,-15.5 919.94,-15.5"/>
<polygon fill="midnightblue" stroke="midnightblue" points="726.17,-12 716.17,-15.5 726.17,-19 726.17,-12"/>
</g>
</g>
</svg>
        <g id="navigator" transform="translate(0 0)" fill="#404254">
                <rect fill="#f2f5e9" fill-opacity="0.5" stroke="#606060" stroke-width=".5" x="0" y="0" width="60" height="60"/>
                <use id="zoomplus" xlink:href="#zoomPlus" x="17" y="9" onmousedown="handleZoom(evt,'in')"/>
                <use id="zoomminus" xlink:href="#zoomMin" x="42" y="9" onmousedown="handleZoom(evt,'out')"/>
                <use id="reset" xlink:href="#resetDef" x="30" y="36" onmousedown="handleReset()"/>
                <g id="arrowUp" xlink:href="#dirArrow" transform="translate(30 24)" onmousedown="handlePan(0,-1)">
                  <use xlink:href="#rim" fill="#404040">
                        <set attributeName="fill" to="#808080" begin="arrowUp.mouseover" end="arrowUp.mouseout"/>
                  </use>
                  <path fill="none" stroke="white" stroke-width="1.5" d="M0,-3.0v7 M-2.5,-0.5L0,-3.0L2.5,-0.5"/>
                </g>
                <g id="arrowRight" xlink:href="#dirArrow" transform="rotate(90) translate(36 -43)" onmousedown="handlePan(1,0)">
                  <use xlink:href="#rim" fill="#404040">
                        <set attributeName="fill" to="#808080" begin="arrowRight.mouseover" end="arrowRight.mouseout"/>
                  </use>
                  <path fill="none" stroke="white" stroke-width="1.5" d="M0,-3.0v7 M-2.5,-0.5L0,-3.0L2.5,-0.5"/>
                </g>
                <g id="arrowDown" xlink:href="#dirArrow" transform="rotate(180) translate(-30 -48)" onmousedown="handlePan(0,1)">
                  <use xlink:href="#rim" fill="#404040">
                        <set attributeName="fill" to="#808080" begin="arrowDown.mouseover" end="arrowDown.mouseout"/>
                  </use>
                  <path fill="none" stroke="white" stroke-width="1.5" d="M0,-3.0v7 M-2.5,-0.5L0,-3.0L2.5,-0.5"/>
                </g>
                <g id="arrowLeft" xlink:href="#dirArrow" transform="rotate(270) translate(-36 17)" onmousedown="handlePan(-1,0)">
                  <use xlink:href="#rim" fill="#404040">
                        <set attributeName="fill" to="#808080" begin="arrowLeft.mouseover" end="arrowLeft.mouseout"/>
                  </use>
                  <path fill="none" stroke="white" stroke-width="1.5" d="M0,-3.0v7 M-2.5,-0.5L0,-3.0L2.5,-0.5"/>
                </g>
        </g>
        <svg viewBox="0 0 15 15" width="100%" height="30px" preserveAspectRatio="xMaxYMin meet">
         <g id="arrow_out" transform="scale(0.3 0.3)">
          <a xlink:href="class_lambda_transform__inherit__graph_org.svg" target="_base">
           <rect id="button" ry="5" rx="5" y="6" x="6" height="38" width="38"
                fill="#f2f5e9" fill-opacity="0.5" stroke="#606060" stroke-width="1.0"/>
           <path id="arrow"
             d="M 11.500037,31.436501 C 11.940474,20.09759 22.043105,11.32322 32.158766,21.979434 L 37.068811,17.246167 C 37.068811,17.246167 37.088388,32 37.088388,32 L 22.160133,31.978069 C 22.160133,31.978069 26.997745,27.140456 26.997745,27.140456 C 18.528582,18.264221 13.291696,25.230495 11.500037,31.436501 z"
             style="fill:#404040;"/>
          </a>
         </g>
        </svg>
</svg>
