<?xml version="1.0" encoding="UTF-8" standalone="no"?>
<!DOCTYPE svg PUBLIC "-//W3C//DTD SVG 1.1//EN"
 "http://www.w3.org/Graphics/SVG/1.1/DTD/svg11.dtd">
<!-- Generated by graphviz version 2.49.3 (20211023.0002)
 -->
<!-- Title: BaseBlinker::flip_state Pages: 1 -->
<svg width="250pt" height="102pt"
 viewBox="0.00 0.00 250.00 102.00" xmlns="http://www.w3.org/2000/svg" xmlns:xlink="http://www.w3.org/1999/xlink">
<g id="graph0" class="graph" transform="scale(1 1) rotate(0) translate(4 98)">
<title>BaseBlinker::flip_state</title>
<polygon fill="white" stroke="transparent" points="-4,4 -4,-98 246,-98 246,4 -4,4"/>
<!-- Node1 -->
<g id="node1" class="node">
<title>Node1</title>
<g id="a_node1"><a xlink:title=" ">
<polygon fill="#bfbfbf" stroke="black" points="127,-28.5 127,-47.5 242,-47.5 242,-28.5 127,-28.5"/>
<text text-anchor="middle" x="184.5" y="-35.5" font-family="Helvetica,sans-Serif" font-size="10.00">BaseBlinker::flip_state</text>
</a>
</g>
</g>
<!-- Node2 -->
<g id="node2" class="node">
<title>Node2</title>
<g id="a_node2"><a xlink:href="class_even_blinker.html#a8feb6a0dacfb0049c201eb9e9b0eaa89" target="_top" xlink:title=" ">
<polygon fill="white" stroke="black" points="0.5,-56.5 0.5,-75.5 90.5,-75.5 90.5,-56.5 0.5,-56.5"/>
<text text-anchor="middle" x="45.5" y="-63.5" font-family="Helvetica,sans-Serif" font-size="10.00">EvenBlinker::tick</text>
</a>
</g>
</g>
<!-- Node1&#45;&gt;Node2 -->
<g id="edge1" class="edge">
<title>Node1&#45;&gt;Node2</title>
<path fill="none" stroke="midnightblue" d="M126.78,-49.59C114.76,-52.05 102.23,-54.61 90.74,-56.96"/>
<polygon fill="midnightblue" stroke="midnightblue" points="127.64,-52.99 136.74,-47.56 126.24,-46.13 127.64,-52.99"/>
</g>
<!-- Node3 -->
<g id="node3" class="node">
<title>Node3</title>
<g id="a_node3"><a xlink:href="class_ratio_blinker.html#a07fe7bc075cb0e7736c0b948d2a81e28" target="_top" xlink:title=" ">
<polygon fill="white" stroke="black" points="0,-0.5 0,-19.5 91,-19.5 91,-0.5 0,-0.5"/>
<text text-anchor="middle" x="45.5" y="-7.5" font-family="Helvetica,sans-Serif" font-size="10.00">RatioBlinker::tick</text>
</a>
</g>
</g>
<!-- Node1&#45;&gt;Node3 -->
<g id="edge3" class="edge">
<title>Node1&#45;&gt;Node3</title>
<path fill="none" stroke="midnightblue" d="M126.89,-26.43C114.99,-24 102.59,-21.46 91.2,-19.14"/>
<polygon fill="midnightblue" stroke="midnightblue" points="126.24,-29.87 136.74,-28.44 127.64,-23.01 126.24,-29.87"/>
</g>
<!-- Node2&#45;&gt;Node2 -->
<g id="edge2" class="edge">
<title>Node2&#45;&gt;Node2</title>
<path fill="none" stroke="midnightblue" d="M71.17,-85.03C69.77,-90.13 61.21,-94 45.5,-94 20.97,-94 13.88,-84.57 24.23,-75.76"/>
<polygon fill="midnightblue" stroke="midnightblue" points="74.22,-83.29 66.77,-75.76 67.89,-86.29 74.22,-83.29"/>
</g>
<!-- Node3&#45;&gt;Node3 -->
<g id="edge4" class="edge">
<title>Node3&#45;&gt;Node3</title>
<path fill="none" stroke="midnightblue" d="M71.17,-29.03C69.77,-34.13 61.21,-38 45.5,-38 20.97,-38 13.88,-28.57 24.23,-19.76"/>
<polygon fill="midnightblue" stroke="midnightblue" points="74.22,-27.29 66.77,-19.76 67.89,-30.29 74.22,-27.29"/>
</g>
</g>
</svg>
