<?xml version="1.0" encoding="UTF-8" standalone="no"?>
<!DOCTYPE svg PUBLIC "-//W3C//DTD SVG 1.1//EN"
 "http://www.w3.org/Graphics/SVG/1.1/DTD/svg11.dtd">
<!-- Generated by graphviz version 7.1.0 (20230121.1956)
 -->
<!-- Title: sensesp::SensESPAppBuilder::enable_system_info_sensors Pages: 1 -->
<!--zoomable 244 -->
<svg id="main" version="1.1" xmlns="http://www.w3.org/2000/svg" xmlns:xlink="http://www.w3.org/1999/xlink" xml:space="preserve" onload="init(evt)">
<style type="text/css"><![CDATA[
.edge:hover path { stroke: red; }
.edge:hover polygon { stroke: red; fill: red; }
]]></style>
<script type="text/javascript"><![CDATA[
var edges = document.getElementsByTagName('g');
if (edges && edges.length) {
  for (var i=0;i<edges.length;i++) {
    if (edges[i].id.substr(0,4)=='edge') {
      edges[i].setAttribute('class','edge');
    }
  }
}
]]></script>
        <defs>
                <circle id="rim" cx="0" cy="0" r="7"/>
                <circle id="rim2" cx="0" cy="0" r="3.5"/>
                <g id="zoomPlus">
                        <use xlink:href="#rim" fill="#404040">
                                <set attributeName="fill" to="#808080" begin="zoomplus.mouseover" end="zoomplus.mouseout"/>
                        </use>
                        <path d="M-4,0h8M0,-4v8" fill="none" stroke="white" stroke-width="1.5" pointer-events="none"/>
                </g>
                <g id="zoomMin">
                        <use xlink:href="#rim" fill="#404040">
                                <set attributeName="fill" to="#808080" begin="zoomminus.mouseover" end="zoomminus.mouseout"/>
                        </use>
                        <path d="M-4,0h8" fill="none" stroke="white" stroke-width="1.5" pointer-events="none"/>
                </g>
                <g id="dirArrow">
                        <path fill="none" stroke="white" stroke-width="1.5" d="M0,-3.0v7 M-2.5,-0.5L0,-3.0L2.5,-0.5"/>
                </g>
               <g id="resetDef">
                       <use xlink:href="#rim2" fill="#404040">
                               <set attributeName="fill" to="#808080" begin="reset.mouseover" end="reset.mouseout"/>
                       </use>
               </g>
        </defs>

<script type="text/javascript">
var viewWidth = 883;
var viewHeight = 244;
var sectionId = 'dynsection-9';
</script>
<script xlink:href="svgpan.js"/>
<svg id="graph" class="graph">
<g id="viewport">
<title>sensesp::SensESPAppBuilder::enable_system_info_sensors</title>
<!-- Node1 -->
<g id="node1" class="node">
<title>Node1</title>
<g id="a_node1"><a xlink:title="Enable all built&#45;in system info sensors.">
<polygon fill="#999999" stroke="#666666" points="149,-126 0,-126 0,-96 149,-96 149,-126"/>
<text text-anchor="start" x="8" y="-114" font-family="Helvetica,sans-Serif" font-size="10.00">sensesp::SensESPAppBuilder</text>
<text text-anchor="middle" x="74.5" y="-103" font-family="Helvetica,sans-Serif" font-size="10.00">::enable_system_info_sensors</text>
</a>
</g>
</g>
<!-- Node2 -->
<g id="node2" class="node">
<title>Node2</title>
<g id="a_node2"><a xlink:href="classsensesp_1_1_sens_e_s_p_app_builder.html#aa90ff7615dce9d7befeb421c7cf6f583" target="_top" xlink:title="Enable the free memory sensor.">
<polygon fill="white" stroke="#666666" points="333,-222 185,-222 185,-192 333,-192 333,-222"/>
<text text-anchor="start" x="193" y="-210" font-family="Helvetica,sans-Serif" font-size="10.00">sensesp::SensESPAppBuilder</text>
<text text-anchor="middle" x="259" y="-199" font-family="Helvetica,sans-Serif" font-size="10.00">::enable_free_mem_sensor</text>
</a>
</g>
</g>
<!-- Node1&#45;&gt;Node2 -->
<g id="edge1" class="edge">
<title>Node1&#45;&gt;Node2</title>
<path fill="none" stroke="#63b8ff" d="M95.13,-126.22C116.34,-142.1 151.6,-166.88 185,-183 188.24,-184.57 191.62,-186.07 195.05,-187.5"/>
<polygon fill="#63b8ff" stroke="#63b8ff" points="193.5,-190.65 204.08,-191.05 196.05,-184.14 193.5,-190.65"/>
</g>
<!-- Node10 -->
<g id="node10" class="node">
<title>Node10</title>
<g id="a_node10"><a xlink:href="classsensesp_1_1_sens_e_s_p_app_builder.html#aa36af1a2298d0a4db7f6efdf88baf07a" target="_top" xlink:title="Report the IP address of the device.">
<polygon fill="white" stroke="#666666" points="333,-174 185,-174 185,-144 333,-144 333,-174"/>
<text text-anchor="start" x="193" y="-162" font-family="Helvetica,sans-Serif" font-size="10.00">sensesp::SensESPAppBuilder</text>
<text text-anchor="middle" x="259" y="-151" font-family="Helvetica,sans-Serif" font-size="10.00">::enable_ip_address_sensor</text>
</a>
</g>
</g>
<!-- Node1&#45;&gt;Node10 -->
<g id="edge10" class="edge">
<title>Node1&#45;&gt;Node10</title>
<path fill="none" stroke="#63b8ff" d="M134.25,-126.45C151.51,-130.99 170.55,-136 188.42,-140.7"/>
<polygon fill="#63b8ff" stroke="#63b8ff" points="187.34,-144.03 197.9,-143.19 189.12,-137.26 187.34,-144.03"/>
</g>
<!-- Node11 -->
<g id="node11" class="node">
<title>Node11</title>
<g id="a_node11"><a xlink:href="classsensesp_1_1_sens_e_s_p_app_builder.html#ac7e2cdd591bd78309ab0c838fe6a01ea" target="_top" xlink:title="Enable the System Hz sensor.">
<polygon fill="white" stroke="#666666" points="333,-126 185,-126 185,-96 333,-96 333,-126"/>
<text text-anchor="start" x="193" y="-114" font-family="Helvetica,sans-Serif" font-size="10.00">sensesp::SensESPAppBuilder</text>
<text text-anchor="middle" x="259" y="-103" font-family="Helvetica,sans-Serif" font-size="10.00">::enable_system_hz_sensor</text>
</a>
</g>
</g>
<!-- Node1&#45;&gt;Node11 -->
<g id="edge12" class="edge">
<title>Node1&#45;&gt;Node11</title>
<path fill="none" stroke="#63b8ff" d="M149.47,-111C157.23,-111 165.17,-111 173.05,-111"/>
<polygon fill="#63b8ff" stroke="#63b8ff" points="173.01,-114.5 183.01,-111 173.01,-107.5 173.01,-114.5"/>
</g>
<!-- Node12 -->
<g id="node12" class="node">
<title>Node12</title>
<g id="a_node12"><a xlink:href="classsensesp_1_1_sens_e_s_p_app_builder.html#aec8b05c9896ddc46d747ffea671dad70" target="_top" xlink:title="Report the system uptime in seconds since the last reboot.">
<polygon fill="white" stroke="#666666" points="333,-78 185,-78 185,-48 333,-48 333,-78"/>
<text text-anchor="start" x="193" y="-66" font-family="Helvetica,sans-Serif" font-size="10.00">sensesp::SensESPAppBuilder</text>
<text text-anchor="middle" x="259" y="-55" font-family="Helvetica,sans-Serif" font-size="10.00">::enable_uptime_sensor</text>
</a>
</g>
</g>
<!-- Node1&#45;&gt;Node12 -->
<g id="edge14" class="edge">
<title>Node1&#45;&gt;Node12</title>
<path fill="none" stroke="#63b8ff" d="M134.25,-95.55C151.51,-91.01 170.55,-86 188.42,-81.3"/>
<polygon fill="#63b8ff" stroke="#63b8ff" points="189.12,-84.74 197.9,-78.81 187.34,-77.97 189.12,-84.74"/>
</g>
<!-- Node13 -->
<g id="node13" class="node">
<title>Node13</title>
<g id="a_node13"><a xlink:href="classsensesp_1_1_sens_e_s_p_app_builder.html#afabc97d522db0964e161d42e1d54df4e" target="_top" xlink:title="Report the Wi&#45;Fi signal strength.">
<polygon fill="white" stroke="#666666" points="333,-30 185,-30 185,0 333,0 333,-30"/>
<text text-anchor="start" x="193" y="-18" font-family="Helvetica,sans-Serif" font-size="10.00">sensesp::SensESPAppBuilder</text>
<text text-anchor="middle" x="259" y="-7" font-family="Helvetica,sans-Serif" font-size="10.00">::enable_wifi_signal_sensor</text>
</a>
</g>
</g>
<!-- Node1&#45;&gt;Node13 -->
<g id="edge16" class="edge">
<title>Node1&#45;&gt;Node13</title>
<path fill="none" stroke="#63b8ff" d="M95.13,-95.78C116.34,-79.9 151.6,-55.12 185,-39 188.24,-37.43 191.62,-35.93 195.05,-34.5"/>
<polygon fill="#63b8ff" stroke="#63b8ff" points="196.05,-37.86 204.08,-30.95 193.5,-31.35 196.05,-37.86"/>
</g>
<!-- Node3 -->
<g id="node3" class="node">
<title>Node3</title>
<g id="a_node3"><a xlink:href="namespacesensesp.html#af967e4af8221a3bf2d5fd79522ada711" target="_top" xlink:title="Connect a system information sensor to SKOutput.">
<polygon fill="white" stroke="#666666" points="500,-126 369,-126 369,-96 500,-96 500,-126"/>
<text text-anchor="start" x="377" y="-114" font-family="Helvetica,sans-Serif" font-size="10.00">sensesp::connect_system</text>
<text text-anchor="middle" x="434.5" y="-103" font-family="Helvetica,sans-Serif" font-size="10.00">_info_sensor</text>
</a>
</g>
</g>
<!-- Node2&#45;&gt;Node3 -->
<g id="edge2" class="edge">
<title>Node2&#45;&gt;Node3</title>
<path fill="none" stroke="#63b8ff" d="M313.4,-191.55C320.13,-188.99 326.81,-186.14 333,-183 359.81,-169.39 387.37,-149.12 406.83,-133.55"/>
<polygon fill="#63b8ff" stroke="#63b8ff" points="408.98,-136.32 414.52,-127.29 404.56,-130.89 408.98,-136.32"/>
</g>
<!-- Node4 -->
<g id="node4" class="node">
<title>Node4</title>
<g id="a_node4"><a xlink:href="classsensesp_1_1_value_producer.html#a168e379778dd79bc926aff69d9a87663" target="_top" xlink:title=" ">
<polygon fill="white" stroke="#666666" points="677.5,-188 555.5,-188 555.5,-158 677.5,-158 677.5,-188"/>
<text text-anchor="start" x="563.5" y="-176" font-family="Helvetica,sans-Serif" font-size="10.00">sensesp::ValueProducer</text>
<text text-anchor="middle" x="616.5" y="-165" font-family="Helvetica,sans-Serif" font-size="10.00">::connect_to</text>
</a>
</g>
</g>
<!-- Node3&#45;&gt;Node4 -->
<g id="edge3" class="edge">
<title>Node3&#45;&gt;Node4</title>
<path fill="none" stroke="#63b8ff" d="M480.46,-126.49C504.6,-134.8 534.58,-145.13 560.15,-153.93"/>
<polygon fill="#63b8ff" stroke="#63b8ff" points="558.78,-157.16 569.37,-157.11 561.06,-150.55 558.78,-157.16"/>
</g>
<!-- Node6 -->
<g id="node6" class="node">
<title>Node6</title>
<g id="a_node6"><a xlink:href="classsensesp_1_1_value_producer.html#a438390eae6bba056ecf4ab329cb5c8e9" target="_top" xlink:title=" ">
<polygon fill="white" stroke="#666666" points="875,-139.5 733,-139.5 733,-120.5 875,-120.5 875,-139.5"/>
<text text-anchor="middle" x="804" y="-127.5" font-family="Helvetica,sans-Serif" font-size="10.00">sensesp::ValueProducer::get</text>
</a>
</g>
</g>
<!-- Node3&#45;&gt;Node6 -->
<g id="edge8" class="edge">
<title>Node3&#45;&gt;Node6</title>
<path fill="none" stroke="#63b8ff" d="M500.36,-114.35C561.91,-117.54 654.66,-122.33 721.25,-125.77"/>
<polygon fill="#63b8ff" stroke="#63b8ff" points="720.85,-129.26 731.02,-126.28 721.21,-122.27 720.85,-129.26"/>
</g>
<!-- Node8 -->
<g id="node8" class="node">
<title>Node8</title>
<g id="a_node8"><a xlink:href="classsensesp_1_1_sens_e_s_p_base_app.html#a2df22469c69a8a1234ab673386f574d6" target="_top" xlink:title="Get the singleton instance of the SensESPBaseApp.">
<polygon fill="white" stroke="#666666" points="697,-101.5 536,-101.5 536,-82.5 697,-82.5 697,-101.5"/>
<text text-anchor="middle" x="616.5" y="-89.5" font-family="Helvetica,sans-Serif" font-size="10.00">sensesp::SensESPBaseApp::get</text>
</a>
</g>
</g>
<!-- Node3&#45;&gt;Node8 -->
<g id="edge7" class="edge">
<title>Node3&#45;&gt;Node8</title>
<path fill="none" stroke="#63b8ff" d="M500.48,-104.14C508.22,-103.32 516.22,-102.48 524.24,-101.63"/>
<polygon fill="#63b8ff" stroke="#63b8ff" points="524.47,-105.13 534.05,-100.6 523.73,-98.17 524.47,-105.13"/>
</g>
<!-- Node9 -->
<g id="node9" class="node">
<title>Node9</title>
<g id="a_node9"><a xlink:href="classsensesp_1_1_sens_e_s_p_base_app.html#ade8960b96e439f4cc0b387c312999dd5" target="_top" xlink:title="Get the hostname observable object.">
<polygon fill="white" stroke="#666666" points="687.5,-64 545.5,-64 545.5,-34 687.5,-34 687.5,-64"/>
<text text-anchor="start" x="553.5" y="-52" font-family="Helvetica,sans-Serif" font-size="10.00">sensesp::SensESPBaseApp</text>
<text text-anchor="middle" x="616.5" y="-41" font-family="Helvetica,sans-Serif" font-size="10.00">::get_hostname_observable</text>
</a>
</g>
</g>
<!-- Node3&#45;&gt;Node9 -->
<g id="edge9" class="edge">
<title>Node3&#45;&gt;Node9</title>
<path fill="none" stroke="#63b8ff" d="M475.93,-95.61C494.2,-88.79 516.12,-80.78 536,-74 542.05,-71.94 548.39,-69.84 554.72,-67.78"/>
<polygon fill="#63b8ff" stroke="#63b8ff" points="555.45,-71.23 563.9,-64.83 553.31,-64.56 555.45,-71.23"/>
</g>
<!-- Node5 -->
<g id="node5" class="node">
<title>Node5</title>
<g id="a_node5"><a xlink:href="classsensesp_1_1_observable.html#a1bd8a207de69d386a7f05c28544df109" target="_top" xlink:title=" ">
<polygon fill="white" stroke="#666666" points="858.5,-236 749.5,-236 749.5,-206 858.5,-206 858.5,-236"/>
<text text-anchor="start" x="757.5" y="-224" font-family="Helvetica,sans-Serif" font-size="10.00">sensesp::Observable</text>
<text text-anchor="middle" x="804" y="-213" font-family="Helvetica,sans-Serif" font-size="10.00">::attach</text>
</a>
</g>
</g>
<!-- Node4&#45;&gt;Node5 -->
<g id="edge4" class="edge">
<title>Node4&#45;&gt;Node5</title>
<path fill="none" stroke="#63b8ff" d="M677.21,-188.45C696.61,-193.47 718.21,-199.06 737.97,-204.17"/>
<polygon fill="#63b8ff" stroke="#63b8ff" points="737.02,-207.54 747.58,-206.66 738.78,-200.77 737.02,-207.54"/>
</g>
<!-- Node4&#45;&gt;Node6 -->
<g id="edge5" class="edge">
<title>Node4&#45;&gt;Node6</title>
<path fill="none" stroke="#63b8ff" d="M677.98,-158.98C700.87,-153.68 726.74,-147.68 748.99,-142.52"/>
<polygon fill="#63b8ff" stroke="#63b8ff" points="749.5,-145.99 758.45,-140.33 747.92,-139.17 749.5,-145.99"/>
</g>
<!-- Node7 -->
<g id="node7" class="node">
<title>Node7</title>
<g id="a_node7"><a xlink:href="classsensesp_1_1_value_consumer.html#a6dbfd22b19489ebd61a353545d1a5261" target="_top" xlink:title=" ">
<polygon fill="white" stroke="#666666" points="868,-188 740,-188 740,-158 868,-158 868,-188"/>
<text text-anchor="start" x="748" y="-176" font-family="Helvetica,sans-Serif" font-size="10.00">sensesp::ValueConsumer</text>
<text text-anchor="middle" x="804" y="-165" font-family="Helvetica,sans-Serif" font-size="10.00">::set_input</text>
</a>
</g>
</g>
<!-- Node4&#45;&gt;Node7 -->
<g id="edge6" class="edge">
<title>Node4&#45;&gt;Node7</title>
<path fill="none" stroke="#63b8ff" d="M677.98,-173C694.05,-173 711.59,-173 728.31,-173"/>
<polygon fill="#63b8ff" stroke="#63b8ff" points="728.22,-176.5 738.22,-173 728.22,-169.5 728.22,-176.5"/>
</g>
<!-- Node10&#45;&gt;Node3 -->
<g id="edge11" class="edge">
<title>Node10&#45;&gt;Node3</title>
<path fill="none" stroke="#63b8ff" d="M315.85,-143.55C332.1,-139.05 350.02,-134.1 366.87,-129.43"/>
<polygon fill="#63b8ff" stroke="#63b8ff" points="367.59,-132.87 376.29,-126.83 365.72,-126.12 367.59,-132.87"/>
</g>
<!-- Node11&#45;&gt;Node3 -->
<g id="edge13" class="edge">
<title>Node11&#45;&gt;Node3</title>
<path fill="none" stroke="#63b8ff" d="M333.33,-111C341.22,-111 349.26,-111 357.19,-111"/>
<polygon fill="#63b8ff" stroke="#63b8ff" points="357.17,-114.5 367.17,-111 357.17,-107.5 357.17,-114.5"/>
</g>
<!-- Node12&#45;&gt;Node3 -->
<g id="edge15" class="edge">
<title>Node12&#45;&gt;Node3</title>
<path fill="none" stroke="#63b8ff" d="M315.85,-78.45C332.1,-82.95 350.02,-87.9 366.87,-92.57"/>
<polygon fill="#63b8ff" stroke="#63b8ff" points="365.72,-95.88 376.29,-95.17 367.59,-89.13 365.72,-95.88"/>
</g>
<!-- Node13&#45;&gt;Node3 -->
<g id="edge17" class="edge">
<title>Node13&#45;&gt;Node3</title>
<path fill="none" stroke="#63b8ff" d="M313.4,-30.45C320.13,-33.01 326.81,-35.86 333,-39 359.81,-52.61 387.37,-72.88 406.83,-88.45"/>
<polygon fill="#63b8ff" stroke="#63b8ff" points="404.56,-91.11 414.52,-94.71 408.98,-85.68 404.56,-91.11"/>
</g>
</g>
</svg>
        <g id="navigator" transform="translate(0 0)" fill="#404254">
                <rect fill="#f2f5e9" fill-opacity="0.5" stroke="#606060" stroke-width=".5" x="0" y="0" width="60" height="60"/>
                <use id="zoomplus" xlink:href="#zoomPlus" x="17" y="9" onmousedown="handleZoom(evt,'in')"/>
                <use id="zoomminus" xlink:href="#zoomMin" x="42" y="9" onmousedown="handleZoom(evt,'out')"/>
                <use id="reset" xlink:href="#resetDef" x="30" y="36" onmousedown="handleReset()"/>
                <g id="arrowUp" xlink:href="#dirArrow" transform="translate(30 24)" onmousedown="handlePan(0,-1)">
                  <use xlink:href="#rim" fill="#404040">
                        <set attributeName="fill" to="#808080" begin="arrowUp.mouseover" end="arrowUp.mouseout"/>
                  </use>
                  <path fill="none" stroke="white" stroke-width="1.5" d="M0,-3.0v7 M-2.5,-0.5L0,-3.0L2.5,-0.5"/>
                </g>
                <g id="arrowRight" xlink:href="#dirArrow" transform="rotate(90) translate(36 -43)" onmousedown="handlePan(1,0)">
                  <use xlink:href="#rim" fill="#404040">
                        <set attributeName="fill" to="#808080" begin="arrowRight.mouseover" end="arrowRight.mouseout"/>
                  </use>
                  <path fill="none" stroke="white" stroke-width="1.5" d="M0,-3.0v7 M-2.5,-0.5L0,-3.0L2.5,-0.5"/>
                </g>
                <g id="arrowDown" xlink:href="#dirArrow" transform="rotate(180) translate(-30 -48)" onmousedown="handlePan(0,1)">
                  <use xlink:href="#rim" fill="#404040">
                        <set attributeName="fill" to="#808080" begin="arrowDown.mouseover" end="arrowDown.mouseout"/>
                  </use>
                  <path fill="none" stroke="white" stroke-width="1.5" d="M0,-3.0v7 M-2.5,-0.5L0,-3.0L2.5,-0.5"/>
                </g>
                <g id="arrowLeft" xlink:href="#dirArrow" transform="rotate(270) translate(-36 17)" onmousedown="handlePan(-1,0)">
                  <use xlink:href="#rim" fill="#404040">
                        <set attributeName="fill" to="#808080" begin="arrowLeft.mouseover" end="arrowLeft.mouseout"/>
                  </use>
                  <path fill="none" stroke="white" stroke-width="1.5" d="M0,-3.0v7 M-2.5,-0.5L0,-3.0L2.5,-0.5"/>
                </g>
        </g>
        <svg viewBox="0 0 15 15" width="100%" height="30px" preserveAspectRatio="xMaxYMin meet">
         <g id="arrow_out" transform="scale(0.3 0.3)">
          <a xlink:href="classsensesp_1_1_sens_e_s_p_app_builder_ad875bc0e66f1b804d6689a0e1b733c5a_cgraph_org.svg" target="_base">
           <rect id="button" ry="5" rx="5" y="6" x="6" height="38" width="38"
                fill="#f2f5e9" fill-opacity="0.5" stroke="#606060" stroke-width="1.0"/>
           <path id="arrow"
             d="M 11.500037,31.436501 C 11.940474,20.09759 22.043105,11.32322 32.158766,21.979434 L 37.068811,17.246167 C 37.068811,17.246167 37.088388,32 37.088388,32 L 22.160133,31.978069 C 22.160133,31.978069 26.997745,27.140456 26.997745,27.140456 C 18.528582,18.264221 13.291696,25.230495 11.500037,31.436501 z"
             style="fill:#404040;"/>
          </a>
         </g>
        </svg>
</svg>
