<?xml version="1.0" encoding="UTF-8" standalone="no"?>
<!DOCTYPE svg PUBLIC "-//W3C//DTD SVG 1.1//EN"
 "http://www.w3.org/Graphics/SVG/1.1/DTD/svg11.dtd">
<!-- Generated by graphviz version 9.0.0 (20230911.1827)
 -->
<!-- Title: sensesp::BaseBlinker::set_state Pages: 1 -->
<svg width="952pt" height="369pt"
 viewBox="0.00 0.00 951.50 368.50" xmlns="http://www.w3.org/2000/svg" xmlns:xlink="http://www.w3.org/1999/xlink">
<g id="graph0" class="graph" transform="scale(1 1) rotate(0) translate(4 364.5)">
<title>sensesp::BaseBlinker::set_state</title>
<!-- Node1 -->
<g id="Node000001" class="node">
<title>Node1</title>
<g id="a_Node000001"><a xlink:title=" ">
<polygon fill="#999999" stroke="#666666" points="943.5,-268.5 832.25,-268.5 832.25,-238 943.5,-238 943.5,-268.5"/>
<text text-anchor="start" x="840.25" y="-255" font-family="Helvetica,sans-Serif" font-size="10.00">sensesp::BaseBlinker</text>
<text text-anchor="middle" x="887.88" y="-243.75" font-family="Helvetica,sans-Serif" font-size="10.00">::set_state</text>
</a>
</g>
</g>
<!-- Node2 -->
<g id="Node000002" class="node">
<title>Node2</title>
<g id="a_Node000002"><a xlink:href="classsensesp_1_1_base_blinker.html#a57b7d3c89f709c2731aedfffdbd2853b" target="_top" xlink:title=" ">
<polygon fill="white" stroke="#666666" points="791.75,-351.5 680.5,-351.5 680.5,-321 791.75,-321 791.75,-351.5"/>
<text text-anchor="start" x="688.5" y="-338" font-family="Helvetica,sans-Serif" font-size="10.00">sensesp::BaseBlinker</text>
<text text-anchor="middle" x="736.12" y="-326.75" font-family="Helvetica,sans-Serif" font-size="10.00">::blip</text>
</a>
</g>
</g>
<!-- Node1&#45;&gt;Node2 -->
<g id="edge1_Node000001_Node000002" class="edge">
<title>Node1&#45;&gt;Node2</title>
<g id="a_edge1_Node000001_Node000002"><a xlink:title=" ">
<path fill="none" stroke="#63b8ff" d="M848.82,-274.34C822.86,-288.73 789.02,-307.49 765.42,-320.57"/>
<polygon fill="#63b8ff" stroke="#63b8ff" points="850.33,-277.5 857.38,-269.6 846.94,-271.38 850.33,-277.5"/>
</a>
</g>
</g>
<!-- Node4 -->
<g id="Node000004" class="node">
<title>Node4</title>
<g id="a_Node000004"><a xlink:href="classsensesp_1_1_base_blinker.html#ab58e08ff07f1e534db66c99b74a01805" target="_top" xlink:title=" ">
<polygon fill="white" stroke="#666666" points="791.75,-293.5 680.5,-293.5 680.5,-263 791.75,-263 791.75,-293.5"/>
<text text-anchor="start" x="688.5" y="-280" font-family="Helvetica,sans-Serif" font-size="10.00">sensesp::BaseBlinker</text>
<text text-anchor="middle" x="736.12" y="-268.75" font-family="Helvetica,sans-Serif" font-size="10.00">::flip_state</text>
</a>
</g>
</g>
<!-- Node1&#45;&gt;Node4 -->
<g id="edge3_Node000001_Node000004" class="edge">
<title>Node1&#45;&gt;Node4</title>
<g id="a_edge3_Node000001_Node000004"><a xlink:title=" ">
<path fill="none" stroke="#63b8ff" d="M820.81,-264.28C811.2,-265.88 801.39,-267.52 792.03,-269.08"/>
<polygon fill="#63b8ff" stroke="#63b8ff" points="821.18,-267.77 830.47,-262.67 820.03,-260.86 821.18,-267.77"/>
</a>
</g>
</g>
<!-- Node7 -->
<g id="Node000007" class="node">
<title>Node7</title>
<g id="a_Node000007"><a xlink:href="classsensesp_1_1_base_blinker.html#a54bc8f32345f10f21af2b4d4ef4b9be2" target="_top" xlink:title=" ">
<polygon fill="white" stroke="#666666" points="791.75,-244.5 680.5,-244.5 680.5,-214 791.75,-214 791.75,-244.5"/>
<text text-anchor="start" x="688.5" y="-231" font-family="Helvetica,sans-Serif" font-size="10.00">sensesp::BaseBlinker</text>
<text text-anchor="middle" x="736.12" y="-219.75" font-family="Helvetica,sans-Serif" font-size="10.00">::set_enabled</text>
</a>
</g>
</g>
<!-- Node1&#45;&gt;Node7 -->
<g id="edge8_Node000001_Node000007" class="edge">
<title>Node1&#45;&gt;Node7</title>
<g id="a_edge8_Node000001_Node000007"><a xlink:title=" ">
<path fill="none" stroke="#63b8ff" d="M820.81,-242.66C811.2,-241.12 801.39,-239.55 792.03,-238.05"/>
<polygon fill="#63b8ff" stroke="#63b8ff" points="820.04,-246.08 830.47,-244.21 821.15,-239.17 820.04,-246.08"/>
</a>
</g>
</g>
<!-- Node8 -->
<g id="Node000008" class="node">
<title>Node8</title>
<g id="a_Node000008"><a xlink:href="classsensesp_1_1_pattern_blinker.html#adcffb5455e367948e225d13ce29a1ac9" target="_top" xlink:title=" ">
<polygon fill="white" stroke="#666666" points="796.25,-177.5 676,-177.5 676,-147 796.25,-147 796.25,-177.5"/>
<text text-anchor="start" x="684" y="-164" font-family="Helvetica,sans-Serif" font-size="10.00">sensesp::PatternBlinker</text>
<text text-anchor="middle" x="736.12" y="-152.75" font-family="Helvetica,sans-Serif" font-size="10.00">::tick</text>
</a>
</g>
</g>
<!-- Node1&#45;&gt;Node8 -->
<g id="edge9_Node000001_Node000008" class="edge">
<title>Node1&#45;&gt;Node8</title>
<g id="a_edge9_Node000001_Node000008"><a xlink:title=" ">
<path fill="none" stroke="#63b8ff" d="M851.61,-231.82C824.45,-215.31 787.52,-192.87 763.03,-177.99"/>
<polygon fill="#63b8ff" stroke="#63b8ff" points="849.48,-234.62 859.84,-236.82 853.11,-228.64 849.48,-234.62"/>
</a>
</g>
</g>
<!-- Node3 -->
<g id="Node000003" class="node">
<title>Node3</title>
<g id="a_Node000003"><a xlink:href="classsensesp_1_1_system_status_led.html#a612cb2cb3a3f7757b31e1c8a869890dd" target="_top" xlink:title=" ">
<polygon fill="white" stroke="#666666" points="640,-360.5 503.25,-360.5 503.25,-330 640,-330 640,-360.5"/>
<text text-anchor="start" x="511.25" y="-347" font-family="Helvetica,sans-Serif" font-size="10.00">sensesp::SystemStatusLed</text>
<text text-anchor="middle" x="571.62" y="-335.75" font-family="Helvetica,sans-Serif" font-size="10.00">::set_input</text>
</a>
</g>
</g>
<!-- Node2&#45;&gt;Node3 -->
<g id="edge2_Node000002_Node000003" class="edge">
<title>Node2&#45;&gt;Node3</title>
<g id="a_edge2_Node000002_Node000003"><a xlink:title=" ">
<path fill="none" stroke="#63b8ff" d="M668.8,-339.92C659.39,-340.44 649.7,-340.98 640.27,-341.5"/>
<polygon fill="#63b8ff" stroke="#63b8ff" points="668.81,-343.43 678.6,-339.38 668.42,-336.44 668.81,-343.43"/>
</a>
</g>
</g>
<!-- Node5 -->
<g id="Node000005" class="node">
<title>Node5</title>
<g id="a_Node000005"><a xlink:href="classsensesp_1_1_even_blinker.html#a6f87d9fcca41caee65f8fccfc4565198" target="_top" xlink:title=" ">
<polygon fill="white" stroke="#666666" points="627.25,-293.5 516,-293.5 516,-263 627.25,-263 627.25,-293.5"/>
<text text-anchor="start" x="524" y="-280" font-family="Helvetica,sans-Serif" font-size="10.00">sensesp::EvenBlinker</text>
<text text-anchor="middle" x="571.62" y="-268.75" font-family="Helvetica,sans-Serif" font-size="10.00">::tick</text>
</a>
</g>
</g>
<!-- Node4&#45;&gt;Node5 -->
<g id="edge4_Node000004_Node000005" class="edge">
<title>Node4&#45;&gt;Node5</title>
<g id="a_edge4_Node000004_Node000005"><a xlink:title=" ">
<path fill="none" stroke="#63b8ff" d="M668.78,-278.25C655.09,-278.25 640.82,-278.25 627.58,-278.25"/>
<polygon fill="#63b8ff" stroke="#63b8ff" points="668.6,-281.75 678.6,-278.25 668.6,-274.75 668.6,-281.75"/>
</a>
</g>
</g>
<!-- Node6 -->
<g id="Node000006" class="node">
<title>Node6</title>
<g id="a_Node000006"><a xlink:href="classsensesp_1_1_ratio_blinker.html#ae94fa2e573604451aa197489d069a19b" target="_top" xlink:title=" ">
<polygon fill="white" stroke="#666666" points="627.62,-226.5 515.62,-226.5 515.62,-196 627.62,-196 627.62,-226.5"/>
<text text-anchor="start" x="523.62" y="-213" font-family="Helvetica,sans-Serif" font-size="10.00">sensesp::RatioBlinker</text>
<text text-anchor="middle" x="571.62" y="-201.75" font-family="Helvetica,sans-Serif" font-size="10.00">::tick</text>
</a>
</g>
</g>
<!-- Node4&#45;&gt;Node6 -->
<g id="edge6_Node000004_Node000006" class="edge">
<title>Node4&#45;&gt;Node6</title>
<g id="a_edge6_Node000004_Node000006"><a xlink:title=" ">
<path fill="none" stroke="#63b8ff" d="M686.6,-258.24C662.34,-248.24 633.41,-236.31 610.77,-226.98"/>
<polygon fill="#63b8ff" stroke="#63b8ff" points="685.05,-261.39 695.63,-261.96 687.72,-254.92 685.05,-261.39"/>
</a>
</g>
</g>
<!-- Node5&#45;&gt;Node5 -->
<g id="edge5_Node000005_Node000005" class="edge">
<title>Node5&#45;&gt;Node5</title>
<g id="a_edge5_Node000005_Node000005"><a xlink:title=" ">
<path fill="none" stroke="#63b8ff" d="M599.21,-305.2C594.7,-308.97 585.51,-311.5 571.62,-311.5 546.24,-311.5 536.53,-303.06 542.48,-293.99"/>
<polygon fill="#63b8ff" stroke="#63b8ff" points="602.65,-305.87 600.57,-295.48 595.72,-304.91 602.65,-305.87"/>
</a>
</g>
</g>
<!-- Node6&#45;&gt;Node6 -->
<g id="edge7_Node000006_Node000006" class="edge">
<title>Node6&#45;&gt;Node6</title>
<g id="a_edge7_Node000006_Node000006"><a xlink:title=" ">
<path fill="none" stroke="#63b8ff" d="M599.21,-238.2C594.7,-241.97 585.51,-244.5 571.62,-244.5 546.24,-244.5 536.53,-236.06 542.48,-226.99"/>
<polygon fill="#63b8ff" stroke="#63b8ff" points="602.65,-238.87 600.57,-228.48 595.72,-237.91 602.65,-238.87"/>
</a>
</g>
</g>
<!-- Node8&#45;&gt;Node8 -->
<g id="edge26_Node000008_Node000008" class="edge">
<title>Node8&#45;&gt;Node8</title>
<g id="a_edge26_Node000008_Node000008"><a xlink:title=" ">
<path fill="none" stroke="#63b8ff" d="M761.57,-189.2C757.41,-192.97 748.93,-195.5 736.12,-195.5 712.71,-195.5 703.75,-187.06 709.23,-177.99"/>
<polygon fill="#63b8ff" stroke="#63b8ff" points="765.02,-189.85 762.82,-179.49 758.08,-188.96 765.02,-189.85"/>
</a>
</g>
</g>
<!-- Node9 -->
<g id="Node000009" class="node">
<title>Node9</title>
<g id="a_Node000009"><a xlink:href="classsensesp_1_1_pattern_blinker.html#a07379ab468fd98211d8af6ef285105a6" target="_top" xlink:title=" ">
<polygon fill="white" stroke="#666666" points="631.75,-177.5 511.5,-177.5 511.5,-147 631.75,-147 631.75,-177.5"/>
<text text-anchor="start" x="519.5" y="-164" font-family="Helvetica,sans-Serif" font-size="10.00">sensesp::PatternBlinker</text>
<text text-anchor="middle" x="571.62" y="-152.75" font-family="Helvetica,sans-Serif" font-size="10.00">::restart</text>
</a>
</g>
</g>
<!-- Node8&#45;&gt;Node9 -->
<g id="edge10_Node000008_Node000009" class="edge">
<title>Node8&#45;&gt;Node9</title>
<g id="a_edge10_Node000008_Node000009"><a xlink:title=" ">
<path fill="none" stroke="#63b8ff" d="M664.11,-162.25C653.47,-162.25 642.58,-162.25 632.2,-162.25"/>
<polygon fill="#63b8ff" stroke="#63b8ff" points="664.03,-165.75 674.03,-162.25 664.03,-158.75 664.03,-165.75"/>
</a>
</g>
</g>
<!-- Node10 -->
<g id="Node000010" class="node">
<title>Node10</title>
<g id="a_Node000010"><a xlink:href="classsensesp_1_1_pattern_blinker.html#a42db37148fd29995d67a4d570343ffce" target="_top" xlink:title=" ">
<polygon fill="white" stroke="#666666" points="467.25,-177.5 347,-177.5 347,-147 467.25,-147 467.25,-177.5"/>
<text text-anchor="start" x="355" y="-164" font-family="Helvetica,sans-Serif" font-size="10.00">sensesp::PatternBlinker</text>
<text text-anchor="middle" x="407.12" y="-152.75" font-family="Helvetica,sans-Serif" font-size="10.00">::set_pattern</text>
</a>
</g>
</g>
<!-- Node9&#45;&gt;Node10 -->
<g id="edge11_Node000009_Node000010" class="edge">
<title>Node9&#45;&gt;Node10</title>
<g id="a_edge11_Node000009_Node000010"><a xlink:title=" ">
<path fill="none" stroke="#63b8ff" d="M499.61,-162.25C488.97,-162.25 478.08,-162.25 467.7,-162.25"/>
<polygon fill="#63b8ff" stroke="#63b8ff" points="499.53,-165.75 509.53,-162.25 499.53,-158.75 499.53,-165.75"/>
</a>
</g>
</g>
<!-- Node11 -->
<g id="Node000011" class="node">
<title>Node11</title>
<g id="a_Node000011"><a xlink:href="classsensesp_1_1_system_status_led.html#a21306f2735644c3cddfcb326043c92f3" target="_top" xlink:title=" ">
<polygon fill="white" stroke="#666666" points="310.25,-324.5 173.5,-324.5 173.5,-294 310.25,-294 310.25,-324.5"/>
<text text-anchor="start" x="181.5" y="-311" font-family="Helvetica,sans-Serif" font-size="10.00">sensesp::SystemStatusLed</text>
<text text-anchor="middle" x="241.88" y="-299.75" font-family="Helvetica,sans-Serif" font-size="10.00">::set_wifi_disconnected</text>
</a>
</g>
</g>
<!-- Node10&#45;&gt;Node11 -->
<g id="edge12_Node000010_Node000011" class="edge">
<title>Node10&#45;&gt;Node11</title>
<g id="a_edge12_Node000010_Node000011"><a xlink:title=" ">
<path fill="none" stroke="#63b8ff" d="M392.42,-187.23C376.26,-214.58 346.98,-258.01 311,-284.25 306.11,-287.81 300.67,-290.92 295.04,-293.61"/>
<polygon fill="#63b8ff" stroke="#63b8ff" points="395.25,-189.34 397.21,-178.92 389.19,-185.84 395.25,-189.34"/>
</a>
</g>
</g>
<!-- Node13 -->
<g id="Node000013" class="node">
<title>Node13</title>
<g id="a_Node000013"><a xlink:href="classsensesp_1_1_system_status_led.html#ab2fcea8b8d4764b58c8ea6c4001cc464" target="_top" xlink:title=" ">
<polygon fill="white" stroke="#666666" points="310.25,-275.5 173.5,-275.5 173.5,-245 310.25,-245 310.25,-275.5"/>
<text text-anchor="start" x="181.5" y="-262" font-family="Helvetica,sans-Serif" font-size="10.00">sensesp::SystemStatusLed</text>
<text text-anchor="middle" x="241.88" y="-250.75" font-family="Helvetica,sans-Serif" font-size="10.00">::set_wifi_no_ap</text>
</a>
</g>
</g>
<!-- Node10&#45;&gt;Node13 -->
<g id="edge14_Node000010_Node000013" class="edge">
<title>Node10&#45;&gt;Node13</title>
<g id="a_edge14_Node000010_Node000013"><a xlink:title=" ">
<path fill="none" stroke="#63b8ff" d="M380.4,-185.45C362.06,-201.1 336.27,-221.34 311,-235.25 304.82,-238.65 298.08,-241.76 291.33,-244.54"/>
<polygon fill="#63b8ff" stroke="#63b8ff" points="382.62,-188.16 387.87,-178.96 378.03,-182.88 382.62,-188.16"/>
</a>
</g>
</g>
<!-- Node14 -->
<g id="Node000014" class="node">
<title>Node14</title>
<g id="a_Node000014"><a xlink:href="classsensesp_1_1_system_status_led.html#aaded2847831b94fb63dbdd9f72b6566a" target="_top" xlink:title=" ">
<polygon fill="white" stroke="#666666" points="311,-226.5 172.75,-226.5 172.75,-196 311,-196 311,-226.5"/>
<text text-anchor="start" x="180.75" y="-213" font-family="Helvetica,sans-Serif" font-size="10.00">sensesp::SystemStatusLed</text>
<text text-anchor="middle" x="241.88" y="-201.75" font-family="Helvetica,sans-Serif" font-size="10.00">::set_wifimanager_activated</text>
</a>
</g>
</g>
<!-- Node10&#45;&gt;Node14 -->
<g id="edge16_Node000010_Node000014" class="edge">
<title>Node10&#45;&gt;Node14</title>
<g id="a_edge16_Node000010_Node000014"><a xlink:title=" ">
<path fill="none" stroke="#63b8ff" d="M343.25,-181.12C327.42,-185.87 310.59,-190.93 295.32,-195.51"/>
<polygon fill="#63b8ff" stroke="#63b8ff" points="344,-184.55 352.57,-178.32 341.99,-177.85 344,-184.55"/>
</a>
</g>
</g>
<!-- Node15 -->
<g id="Node000015" class="node">
<title>Node15</title>
<g id="a_Node000015"><a xlink:href="classsensesp_1_1_system_status_led.html#a7f7ed0df6685f09f19189de571882d3f" target="_top" xlink:title=" ">
<polygon fill="white" stroke="#666666" points="310.25,-177.5 173.5,-177.5 173.5,-147 310.25,-147 310.25,-177.5"/>
<text text-anchor="start" x="181.5" y="-164" font-family="Helvetica,sans-Serif" font-size="10.00">sensesp::SystemStatusLed</text>
<text text-anchor="middle" x="241.88" y="-152.75" font-family="Helvetica,sans-Serif" font-size="10.00">::set_ws_authorizing</text>
</a>
</g>
</g>
<!-- Node10&#45;&gt;Node15 -->
<g id="edge18_Node000010_Node000015" class="edge">
<title>Node10&#45;&gt;Node15</title>
<g id="a_edge18_Node000010_Node000015"><a xlink:title=" ">
<path fill="none" stroke="#63b8ff" d="M335.26,-162.25C327.05,-162.25 318.69,-162.25 310.53,-162.25"/>
<polygon fill="#63b8ff" stroke="#63b8ff" points="335.21,-165.75 345.21,-162.25 335.21,-158.75 335.21,-165.75"/>
</a>
</g>
</g>
<!-- Node16 -->
<g id="Node000016" class="node">
<title>Node16</title>
<g id="a_Node000016"><a xlink:href="classsensesp_1_1_system_status_led.html#a7e6cfe4641ddaf6aada29ac73052e3dd" target="_top" xlink:title=" ">
<polygon fill="white" stroke="#666666" points="310.25,-128.5 173.5,-128.5 173.5,-98 310.25,-98 310.25,-128.5"/>
<text text-anchor="start" x="181.5" y="-115" font-family="Helvetica,sans-Serif" font-size="10.00">sensesp::SystemStatusLed</text>
<text text-anchor="middle" x="241.88" y="-103.75" font-family="Helvetica,sans-Serif" font-size="10.00">::set_ws_connected</text>
</a>
</g>
</g>
<!-- Node10&#45;&gt;Node16 -->
<g id="edge20_Node000010_Node000016" class="edge">
<title>Node10&#45;&gt;Node16</title>
<g id="a_edge20_Node000010_Node000016"><a xlink:title=" ">
<path fill="none" stroke="#63b8ff" d="M343.25,-143.38C327.42,-138.63 310.59,-133.57 295.32,-128.99"/>
<polygon fill="#63b8ff" stroke="#63b8ff" points="341.99,-146.65 352.57,-146.18 344,-139.95 341.99,-146.65"/>
</a>
</g>
</g>
<!-- Node17 -->
<g id="Node000017" class="node">
<title>Node17</title>
<g id="a_Node000017"><a xlink:href="classsensesp_1_1_system_status_led.html#a52573040f7316525ed41ec4c2ded65d5" target="_top" xlink:title=" ">
<polygon fill="white" stroke="#666666" points="310.25,-79.5 173.5,-79.5 173.5,-49 310.25,-49 310.25,-79.5"/>
<text text-anchor="start" x="181.5" y="-66" font-family="Helvetica,sans-Serif" font-size="10.00">sensesp::SystemStatusLed</text>
<text text-anchor="middle" x="241.88" y="-54.75" font-family="Helvetica,sans-Serif" font-size="10.00">::set_ws_connecting</text>
</a>
</g>
</g>
<!-- Node10&#45;&gt;Node17 -->
<g id="edge22_Node000010_Node000017" class="edge">
<title>Node10&#45;&gt;Node17</title>
<g id="a_edge22_Node000010_Node000017"><a xlink:title=" ">
<path fill="none" stroke="#63b8ff" d="M380.4,-139.05C362.06,-123.4 336.27,-103.16 311,-89.25 304.82,-85.85 298.08,-82.74 291.33,-79.96"/>
<polygon fill="#63b8ff" stroke="#63b8ff" points="378.03,-141.62 387.87,-145.54 382.62,-136.34 378.03,-141.62"/>
</a>
</g>
</g>
<!-- Node18 -->
<g id="Node000018" class="node">
<title>Node18</title>
<g id="a_Node000018"><a xlink:href="classsensesp_1_1_system_status_led.html#a01656e8deef0018f01c002baf2316915" target="_top" xlink:title=" ">
<polygon fill="white" stroke="#666666" points="310.25,-30.5 173.5,-30.5 173.5,0 310.25,0 310.25,-30.5"/>
<text text-anchor="start" x="181.5" y="-17" font-family="Helvetica,sans-Serif" font-size="10.00">sensesp::SystemStatusLed</text>
<text text-anchor="middle" x="241.88" y="-5.75" font-family="Helvetica,sans-Serif" font-size="10.00">::set_ws_disconnected</text>
</a>
</g>
</g>
<!-- Node10&#45;&gt;Node18 -->
<g id="edge24_Node000010_Node000018" class="edge">
<title>Node10&#45;&gt;Node18</title>
<g id="a_edge24_Node000010_Node000018"><a xlink:title=" ">
<path fill="none" stroke="#63b8ff" d="M392.42,-137.27C376.26,-109.92 346.98,-66.49 311,-40.25 306.11,-36.69 300.67,-33.58 295.04,-30.89"/>
<polygon fill="#63b8ff" stroke="#63b8ff" points="389.19,-138.66 397.21,-145.58 395.25,-135.16 389.19,-138.66"/>
</a>
</g>
</g>
<!-- Node12 -->
<g id="Node000012" class="node">
<title>Node12</title>
<g id="a_Node000012"><a xlink:href="classsensesp_1_1_system_status_led.html#acd9bd798a9418f5f512d60cba2ada35d" target="_top" xlink:title=" ">
<polygon fill="white" stroke="#666666" points="136.75,-177.5 0,-177.5 0,-147 136.75,-147 136.75,-177.5"/>
<text text-anchor="start" x="8" y="-164" font-family="Helvetica,sans-Serif" font-size="10.00">sensesp::SystemStatusLed</text>
<text text-anchor="middle" x="68.38" y="-152.75" font-family="Helvetica,sans-Serif" font-size="10.00">::set_input</text>
</a>
</g>
</g>
<!-- Node11&#45;&gt;Node12 -->
<g id="edge13_Node000011_Node000012" class="edge">
<title>Node11&#45;&gt;Node12</title>
<g id="a_edge13_Node000011_Node000012"><a xlink:title=" ">
<path fill="none" stroke="#63b8ff" d="M179.17,-288.34C176.95,-287.05 174.81,-285.69 172.75,-284.25 130.42,-254.68 95.03,-203.67 78.84,-177.99"/>
<polygon fill="#63b8ff" stroke="#63b8ff" points="177.38,-291.36 187.87,-292.88 180.62,-285.15 177.38,-291.36"/>
</a>
</g>
</g>
<!-- Node13&#45;&gt;Node12 -->
<g id="edge15_Node000013_Node000012" class="edge">
<title>Node13&#45;&gt;Node12</title>
<g id="a_edge15_Node000013_Node000012"><a xlink:title=" ">
<path fill="none" stroke="#63b8ff" d="M182.81,-240.14C179.36,-238.58 175.99,-236.95 172.75,-235.25 141.23,-218.71 108.21,-193.87 88.2,-177.86"/>
<polygon fill="#63b8ff" stroke="#63b8ff" points="181.3,-243.31 191.88,-244.02 184.05,-236.87 181.3,-243.31"/>
</a>
</g>
</g>
<!-- Node14&#45;&gt;Node12 -->
<g id="edge17_Node000014_Node000012" class="edge">
<title>Node14&#45;&gt;Node12</title>
<g id="a_edge17_Node000014_Node000012"><a xlink:title=" ">
<path fill="none" stroke="#63b8ff" d="M175.3,-192.52C158.53,-187.72 140.66,-182.62 124.47,-177.99"/>
<polygon fill="#63b8ff" stroke="#63b8ff" points="174.11,-195.81 184.68,-195.2 176.03,-189.08 174.11,-195.81"/>
</a>
</g>
</g>
<!-- Node15&#45;&gt;Node12 -->
<g id="edge19_Node000015_Node000012" class="edge">
<title>Node15&#45;&gt;Node12</title>
<g id="a_edge19_Node000015_Node000012"><a xlink:title=" ">
<path fill="none" stroke="#63b8ff" d="M161.64,-162.25C153.48,-162.25 145.25,-162.25 137.23,-162.25"/>
<polygon fill="#63b8ff" stroke="#63b8ff" points="161.58,-165.75 171.58,-162.25 161.58,-158.75 161.58,-165.75"/>
</a>
</g>
</g>
<!-- Node16&#45;&gt;Node12 -->
<g id="edge21_Node000016_Node000012" class="edge">
<title>Node16&#45;&gt;Node12</title>
<g id="a_edge21_Node000016_Node000012"><a xlink:title=" ">
<path fill="none" stroke="#63b8ff" d="M175.3,-131.98C158.53,-136.78 140.66,-141.88 124.47,-146.51"/>
<polygon fill="#63b8ff" stroke="#63b8ff" points="176.03,-135.42 184.68,-129.3 174.11,-128.69 176.03,-135.42"/>
</a>
</g>
</g>
<!-- Node17&#45;&gt;Node12 -->
<g id="edge23_Node000017_Node000012" class="edge">
<title>Node17&#45;&gt;Node12</title>
<g id="a_edge23_Node000017_Node000012"><a xlink:title=" ">
<path fill="none" stroke="#63b8ff" d="M182.81,-84.36C179.36,-85.92 175.99,-87.55 172.75,-89.25 141.23,-105.79 108.21,-130.63 88.2,-146.64"/>
<polygon fill="#63b8ff" stroke="#63b8ff" points="184.05,-87.63 191.88,-80.48 181.3,-81.19 184.05,-87.63"/>
</a>
</g>
</g>
<!-- Node18&#45;&gt;Node12 -->
<g id="edge25_Node000018_Node000012" class="edge">
<title>Node18&#45;&gt;Node12</title>
<g id="a_edge25_Node000018_Node000012"><a xlink:title=" ">
<path fill="none" stroke="#63b8ff" d="M179.17,-36.16C176.95,-37.45 174.81,-38.81 172.75,-40.25 130.42,-69.82 95.03,-120.83 78.84,-146.51"/>
<polygon fill="#63b8ff" stroke="#63b8ff" points="180.62,-39.35 187.87,-31.62 177.38,-33.14 180.62,-39.35"/>
</a>
</g>
</g>
</g>
</svg>
