<?xml version="1.0" encoding="UTF-8" standalone="no"?>
<!DOCTYPE svg PUBLIC "-//W3C//DTD SVG 1.1//EN"
 "http://www.w3.org/Graphics/SVG/1.1/DTD/svg11.dtd">
<!-- Generated by graphviz version 2.44.1 (20200629.0846)
 -->
<!-- Title: SymmetricTransform&lt; T &gt; Pages: 1 -->
<!--zoomable 546 -->
<svg id="main" version="1.1" xmlns="http://www.w3.org/2000/svg" xmlns:xlink="http://www.w3.org/1999/xlink" xml:space="preserve" onload="init(evt)">
<style type="text/css"><![CDATA[
.edge:hover path { stroke: red; }
.edge:hover polygon { stroke: red; fill: red; }
]]></style>
<script type="text/javascript"><![CDATA[
var edges = document.getElementsByTagName('g');
if (edges && edges.length) {
  for (var i=0;i<edges.length;i++) {
    if (edges[i].id.substr(0,4)=='edge') {
      edges[i].setAttribute('class','edge');
    }
  }
}
]]></script>
        <defs>
                <circle id="rim" cx="0" cy="0" r="7"/>
                <circle id="rim2" cx="0" cy="0" r="3.5"/>
                <g id="zoomPlus">
                        <use xlink:href="#rim" fill="#404040">
                                <set attributeName="fill" to="#808080" begin="zoomplus.mouseover" end="zoomplus.mouseout"/>
                        </use>
                        <path d="M-4,0h8M0,-4v8" fill="none" stroke="white" stroke-width="1.5" pointer-events="none"/>
                </g>
                <g id="zoomMin">
                        <use xlink:href="#rim" fill="#404040">
                                <set attributeName="fill" to="#808080" begin="zoomminus.mouseover" end="zoomminus.mouseout"/>
                        </use>
                        <path d="M-4,0h8" fill="none" stroke="white" stroke-width="1.5" pointer-events="none"/>
                </g>
                <g id="dirArrow">
                        <path fill="none" stroke="white" stroke-width="1.5" d="M0,-3.0v7 M-2.5,-0.5L0,-3.0L2.5,-0.5"/>
                </g>
               <g id="resetDef">
                       <use xlink:href="#rim2" fill="#404040">
                               <set attributeName="fill" to="#808080" begin="reset.mouseover" end="reset.mouseout"/>
                       </use>
               </g>
        </defs>

<script type="text/javascript">
var viewWidth = 1237;
var viewHeight = 546;
var sectionId = 'dynsection-0';
</script>
<script xlink:href="svgpan.js"/>
<svg id="graph" class="graph">
<g id="viewport">
<title>SymmetricTransform&lt; T &gt;</title>
<polygon fill="white" stroke="transparent" points="-4,4 -4,-542 1233,-542 1233,4 -4,4"/>
<!-- Node0 -->
<g id="node1" class="node">
<title>Node0</title>
<g id="a_node1"><a xlink:title=" ">
<polygon fill="#bfbfbf" stroke="black" points="731,-404.5 731,-423.5 863,-423.5 863,-404.5 731,-404.5"/>
<text text-anchor="middle" x="797" y="-411.5" font-family="Helvetica,sans-Serif" font-size="10.00">SymmetricTransform&lt; T &gt;</text>
</a>
</g>
</g>
<!-- Node11 -->
<g id="node12" class="node">
<title>Node11</title>
<g id="a_node12"><a xlink:href="class_debounce_template.html" target="_top" xlink:title="DebounceTemplate implements debounce code for a button or switch.">
<polygon fill="white" stroke="black" points="939,-518.5 939,-537.5 1064,-537.5 1064,-518.5 939,-518.5"/>
<text text-anchor="middle" x="1001.5" y="-525.5" font-family="Helvetica,sans-Serif" font-size="10.00">DebounceTemplate&lt; T &gt;</text>
</a>
</g>
</g>
<!-- Node0&#45;&gt;Node11 -->
<g id="edge15" class="edge">
<title>Node0&#45;&gt;Node11</title>
<path fill="none" stroke="midnightblue" d="M817.65,-430.25C843.84,-451.16 892.32,-487.38 939,-509 946.81,-512.62 955.48,-515.78 963.8,-518.43"/>
<polygon fill="midnightblue" stroke="midnightblue" points="819.64,-427.35 809.66,-423.78 815.24,-432.79 819.64,-427.35"/>
</g>
<!-- Node12 -->
<g id="node13" class="node">
<title>Node12</title>
<g id="a_node13"><a xlink:href="class_digital_output.html" target="_top" xlink:title=" ">
<polygon fill="white" stroke="black" points="946.5,-480.5 946.5,-499.5 1056.5,-499.5 1056.5,-480.5 946.5,-480.5"/>
<text text-anchor="middle" x="1001.5" y="-487.5" font-family="Helvetica,sans-Serif" font-size="10.00">DigitalOutput&lt; bool &gt;</text>
</a>
</g>
</g>
<!-- Node0&#45;&gt;Node12 -->
<g id="edge16" class="edge">
<title>Node0&#45;&gt;Node12</title>
<path fill="none" stroke="midnightblue" d="M829.64,-427.69C858.03,-439.75 900.95,-457.46 939,-471 948.26,-474.3 958.43,-477.57 967.78,-480.45"/>
<polygon fill="midnightblue" stroke="midnightblue" points="830.81,-424.38 820.24,-423.67 828.06,-430.82 830.81,-424.38"/>
</g>
<!-- Node13 -->
<g id="node14" class="node">
<title>Node13</title>
<g id="a_node14"><a xlink:href="class_press_repeater.html" target="_top" xlink:title="A transform that takes boolean inputs and adds button behaviors familiar to many device end users....">
<polygon fill="white" stroke="black" points="942.5,-442.5 942.5,-461.5 1060.5,-461.5 1060.5,-442.5 942.5,-442.5"/>
<text text-anchor="middle" x="1001.5" y="-449.5" font-family="Helvetica,sans-Serif" font-size="10.00">PressRepeater&lt; bool &gt;</text>
</a>
</g>
</g>
<!-- Node0&#45;&gt;Node13 -->
<g id="edge17" class="edge">
<title>Node0&#45;&gt;Node13</title>
<path fill="none" stroke="midnightblue" d="M858.85,-425.42C887.82,-430.86 922.08,-437.28 949.64,-442.46"/>
<polygon fill="midnightblue" stroke="midnightblue" points="859.31,-421.94 848.84,-423.54 858.02,-428.82 859.31,-421.94"/>
</g>
<!-- Node14 -->
<g id="node15" class="node">
<title>Node14</title>
<g id="a_node15"><a xlink:href="class_repeat_report.html" target="_top" xlink:title="Ensures that values that do not change frequently are still reported at at a specified maximum silenc...">
<polygon fill="white" stroke="black" points="951,-404.5 951,-423.5 1052,-423.5 1052,-404.5 951,-404.5"/>
<text text-anchor="middle" x="1001.5" y="-411.5" font-family="Helvetica,sans-Serif" font-size="10.00">RepeatReport&lt; T &gt;</text>
</a>
</g>
</g>
<!-- Node0&#45;&gt;Node14 -->
<g id="edge18" class="edge">
<title>Node0&#45;&gt;Node14</title>
<path fill="none" stroke="midnightblue" d="M873.35,-414C899.23,-414 927.53,-414 950.85,-414"/>
<polygon fill="midnightblue" stroke="midnightblue" points="873.19,-410.5 863.19,-414 873.19,-417.5 873.19,-410.5"/>
</g>
<!-- Node15 -->
<g id="node16" class="node">
<title>Node15</title>
<g id="a_node16"><a xlink:href="class_s_k_output.html" target="_top" xlink:title=" ">
<polygon fill="white" stroke="black" points="960,-366.5 960,-385.5 1043,-385.5 1043,-366.5 960,-366.5"/>
<text text-anchor="middle" x="1001.5" y="-373.5" font-family="Helvetica,sans-Serif" font-size="10.00">SKOutput&lt; T &gt;</text>
</a>
</g>
</g>
<!-- Node0&#45;&gt;Node15 -->
<g id="edge19" class="edge">
<title>Node0&#45;&gt;Node15</title>
<path fill="none" stroke="midnightblue" d="M858.75,-402.6C891.44,-396.47 930.87,-389.07 959.84,-383.63"/>
<polygon fill="midnightblue" stroke="midnightblue" points="858.02,-399.18 848.84,-404.46 859.31,-406.06 858.02,-399.18"/>
</g>
<!-- Node17 -->
<g id="node18" class="node">
<title>Node17</title>
<g id="a_node18"><a xlink:href="class_smart_switch_controller.html" target="_top" xlink:title="A high level transform designed to control a digital output (such as a relay) via manual button press...">
<polygon fill="white" stroke="black" points="944,-317 944,-347 1059,-347 1059,-317 944,-317"/>
<text text-anchor="start" x="952" y="-335" font-family="Helvetica,sans-Serif" font-size="10.00">SmartSwitchController</text>
<text text-anchor="middle" x="1001.5" y="-324" font-family="Helvetica,sans-Serif" font-size="10.00">&lt; bool &gt;</text>
</a>
</g>
</g>
<!-- Node0&#45;&gt;Node17 -->
<g id="edge21" class="edge">
<title>Node0&#45;&gt;Node17</title>
<path fill="none" stroke="midnightblue" d="M831.25,-400.53C867.55,-385.84 925.53,-362.36 963.31,-347.06"/>
<polygon fill="midnightblue" stroke="midnightblue" points="829.58,-397.44 821.63,-404.43 832.21,-403.92 829.58,-397.44"/>
</g>
<!-- Node18 -->
<g id="node19" class="node">
<title>Node18</title>
<g id="a_node19"><a xlink:href="class_symmetric_transform.html" target="_top" xlink:title=" ">
<polygon fill="white" stroke="black" points="947.5,-204 947.5,-234 1055.5,-234 1055.5,-204 947.5,-204"/>
<text text-anchor="start" x="955.5" y="-222" font-family="Helvetica,sans-Serif" font-size="10.00">SymmetricTransform</text>
<text text-anchor="middle" x="1001.5" y="-211" font-family="Helvetica,sans-Serif" font-size="10.00">&lt; float &gt;</text>
</a>
</g>
</g>
<!-- Node0&#45;&gt;Node18 -->
<g id="edge22" class="edge">
<title>Node0&#45;&gt;Node18</title>
<path fill="none" stroke="orange" stroke-dasharray="5,2" d="M815.48,-397.17C854.39,-359.7 947.64,-269.9 984.82,-234.1"/>
<polygon fill="orange" stroke="orange" points="812.82,-394.87 808.04,-404.33 817.67,-399.91 812.82,-394.87"/>
<text text-anchor="middle" x="901" y="-337" font-family="Helvetica,sans-Serif" font-size="10.00"> &lt; float &gt;</text>
</g>
<!-- Node1 -->
<g id="node2" class="node">
<title>Node1</title>
<g id="a_node2"><a xlink:href="class_transform.html" target="_top" xlink:title=" ">
<polygon fill="white" stroke="black" points="599,-404.5 599,-423.5 694,-423.5 694,-404.5 599,-404.5"/>
<text text-anchor="middle" x="646.5" y="-411.5" font-family="Helvetica,sans-Serif" font-size="10.00">Transform&lt; T, T &gt;</text>
</a>
</g>
</g>
<!-- Node1&#45;&gt;Node0 -->
<g id="edge1" class="edge">
<title>Node1&#45;&gt;Node0</title>
<path fill="none" stroke="midnightblue" d="M704.13,-414C712.86,-414 721.93,-414 730.82,-414"/>
<polygon fill="midnightblue" stroke="midnightblue" points="704.08,-410.5 694.08,-414 704.08,-417.5 704.08,-410.5"/>
</g>
<!-- Node2 -->
<g id="node3" class="node">
<title>Node2</title>
<g id="a_node3"><a xlink:href="class_transform_base.html" target="_top" xlink:title=" ">
<polygon fill="white" stroke="black" points="292,-477.5 292,-496.5 375,-496.5 375,-477.5 292,-477.5"/>
<text text-anchor="middle" x="333.5" y="-484.5" font-family="Helvetica,sans-Serif" font-size="10.00">TransformBase</text>
</a>
</g>
</g>
<!-- Node2&#45;&gt;Node1 -->
<g id="edge2" class="edge">
<title>Node2&#45;&gt;Node1</title>
<path fill="none" stroke="midnightblue" d="M385.44,-481.62C435.95,-475.37 515.12,-463.13 581,-442 596.58,-437 613.52,-429.57 626.13,-423.61"/>
<polygon fill="midnightblue" stroke="midnightblue" points="384.93,-478.15 375.42,-482.82 385.77,-485.1 384.93,-478.15"/>
</g>
<!-- Node8 -->
<g id="node9" class="node">
<title>Node8</title>
<g id="a_node9"><a xlink:href="class_transform.html" target="_top" xlink:title=" ">
<polygon fill="white" stroke="black" points="426,-425.5 426,-444.5 525,-444.5 525,-425.5 426,-425.5"/>
<text text-anchor="middle" x="475.5" y="-432.5" font-family="Helvetica,sans-Serif" font-size="10.00">Transform&lt; C, P &gt;</text>
</a>
</g>
</g>
<!-- Node2&#45;&gt;Node8 -->
<g id="edge9" class="edge">
<title>Node2&#45;&gt;Node8</title>
<path fill="none" stroke="midnightblue" d="M369.82,-473.88C394.3,-464.79 426.35,-452.88 448.51,-444.65"/>
<polygon fill="midnightblue" stroke="midnightblue" points="368.33,-470.7 360.18,-477.46 370.77,-477.26 368.33,-470.7"/>
</g>
<!-- Node3 -->
<g id="node4" class="node">
<title>Node3</title>
<g id="a_node4"><a xlink:href="class_configurable.html" target="_top" xlink:title=" ">
<polygon fill="white" stroke="black" points="122.5,-484.5 122.5,-503.5 193.5,-503.5 193.5,-484.5 122.5,-484.5"/>
<text text-anchor="middle" x="158" y="-491.5" font-family="Helvetica,sans-Serif" font-size="10.00">Configurable</text>
</a>
</g>
</g>
<!-- Node3&#45;&gt;Node2 -->
<g id="edge3" class="edge">
<title>Node3&#45;&gt;Node2</title>
<path fill="none" stroke="midnightblue" d="M203.72,-492.2C230.91,-491.1 265.35,-489.71 291.77,-488.64"/>
<polygon fill="midnightblue" stroke="midnightblue" points="203.54,-488.7 193.69,-492.6 203.83,-495.69 203.54,-488.7"/>
</g>
<!-- Node4 -->
<g id="node5" class="node">
<title>Node4</title>
<g id="a_node5"><a xlink:href="class_enable.html" target="_top" xlink:title=" ">
<polygon fill="white" stroke="black" points="134.5,-446.5 134.5,-465.5 181.5,-465.5 181.5,-446.5 134.5,-446.5"/>
<text text-anchor="middle" x="158" y="-453.5" font-family="Helvetica,sans-Serif" font-size="10.00">Enable</text>
</a>
</g>
</g>
<!-- Node4&#45;&gt;Node2 -->
<g id="edge4" class="edge">
<title>Node4&#45;&gt;Node2</title>
<path fill="none" stroke="midnightblue" d="M191.89,-461.88C220.29,-466.95 261.43,-474.3 291.88,-479.74"/>
<polygon fill="midnightblue" stroke="midnightblue" points="192.14,-458.37 181.68,-460.05 190.91,-465.26 192.14,-458.37"/>
</g>
<!-- Node5 -->
<g id="node6" class="node">
<title>Node5</title>
<g id="a_node6"><a xlink:href="class_value_consumer.html" target="_top" xlink:title=" ">
<polygon fill="white" stroke="black" points="103,-399.5 103,-418.5 213,-418.5 213,-399.5 103,-399.5"/>
<text text-anchor="middle" x="158" y="-406.5" font-family="Helvetica,sans-Serif" font-size="10.00">ValueConsumer&lt; T &gt;</text>
</a>
</g>
</g>
<!-- Node5&#45;&gt;Node1 -->
<g id="edge5" class="edge">
<title>Node5&#45;&gt;Node1</title>
<path fill="none" stroke="midnightblue" d="M223.61,-409.66C323.04,-410.69 511.24,-412.62 598.67,-413.52"/>
<polygon fill="midnightblue" stroke="midnightblue" points="223.43,-406.16 213.39,-409.56 223.36,-413.16 223.43,-406.16"/>
</g>
<!-- Node9 -->
<g id="node10" class="node">
<title>Node9</title>
<g id="a_node10"><a xlink:href="class_value_consumer.html" target="_top" xlink:title=" ">
<polygon fill="white" stroke="black" points="278,-423.5 278,-442.5 389,-442.5 389,-423.5 278,-423.5"/>
<text text-anchor="middle" x="333.5" y="-430.5" font-family="Helvetica,sans-Serif" font-size="10.00">ValueConsumer&lt; C &gt;</text>
</a>
</g>
</g>
<!-- Node5&#45;&gt;Node9 -->
<g id="edge11" class="edge">
<title>Node5&#45;&gt;Node9</title>
<path fill="none" stroke="orange" stroke-dasharray="5,2" d="M223.5,-417.92C241.42,-420.4 260.69,-423.07 277.97,-425.46"/>
<polygon fill="orange" stroke="orange" points="223.81,-414.43 213.42,-416.53 222.85,-421.37 223.81,-414.43"/>
<text text-anchor="middle" x="245.5" y="-426" font-family="Helvetica,sans-Serif" font-size="10.00"> &lt; C &gt;</text>
</g>
<!-- Node6 -->
<g id="node7" class="node">
<title>Node6</title>
<g id="a_node7"><a xlink:href="class_value_producer.html" target="_top" xlink:title=" ">
<polygon fill="white" stroke="black" points="106,-316.5 106,-335.5 210,-335.5 210,-316.5 106,-316.5"/>
<text text-anchor="middle" x="158" y="-323.5" font-family="Helvetica,sans-Serif" font-size="10.00">ValueProducer&lt; T &gt;</text>
</a>
</g>
</g>
<!-- Node6&#45;&gt;Node1 -->
<g id="edge6" class="edge">
<title>Node6&#45;&gt;Node1</title>
<path fill="none" stroke="midnightblue" d="M220.34,-322.92C266.93,-321.7 332.43,-322.42 389,-332 478.19,-347.1 579.1,-386.22 623.05,-404.42"/>
<polygon fill="midnightblue" stroke="midnightblue" points="219.99,-319.43 210.1,-323.22 220.2,-326.42 219.99,-319.43"/>
</g>
<!-- Node10 -->
<g id="node11" class="node">
<title>Node10</title>
<g id="a_node11"><a xlink:href="class_value_producer.html" target="_top" xlink:title=" ">
<polygon fill="white" stroke="black" points="281.5,-341.5 281.5,-360.5 385.5,-360.5 385.5,-341.5 281.5,-341.5"/>
<text text-anchor="middle" x="333.5" y="-348.5" font-family="Helvetica,sans-Serif" font-size="10.00">ValueProducer&lt; P &gt;</text>
</a>
</g>
</g>
<!-- Node6&#45;&gt;Node10 -->
<g id="edge14" class="edge">
<title>Node6&#45;&gt;Node10</title>
<path fill="none" stroke="orange" stroke-dasharray="5,2" d="M220.09,-333.5C233.27,-335.22 247.11,-337.1 260,-339 266.94,-340.02 274.25,-341.16 281.44,-342.31"/>
<polygon fill="orange" stroke="orange" points="220.54,-330.03 210.17,-332.22 219.64,-336.97 220.54,-330.03"/>
<text text-anchor="middle" x="245.5" y="-342" font-family="Helvetica,sans-Serif" font-size="10.00"> &lt; P &gt;</text>
</g>
<!-- Node7 -->
<g id="node8" class="node">
<title>Node7</title>
<g id="a_node8"><a xlink:href="class_observable.html" target="_top" xlink:title=" ">
<polygon fill="white" stroke="black" points="0,-341.5 0,-360.5 66,-360.5 66,-341.5 0,-341.5"/>
<text text-anchor="middle" x="33" y="-348.5" font-family="Helvetica,sans-Serif" font-size="10.00">Observable</text>
</a>
</g>
</g>
<!-- Node7&#45;&gt;Node6 -->
<g id="edge7" class="edge">
<title>Node7&#45;&gt;Node6</title>
<path fill="none" stroke="midnightblue" d="M76.41,-342.38C87.27,-340.17 99.02,-337.78 110.09,-335.53"/>
<polygon fill="midnightblue" stroke="midnightblue" points="75.42,-339.01 66.32,-344.43 76.81,-345.87 75.42,-339.01"/>
</g>
<!-- Node7&#45;&gt;Node10 -->
<g id="edge13" class="edge">
<title>Node7&#45;&gt;Node10</title>
<path fill="none" stroke="midnightblue" d="M76.47,-351C130.42,-351 223.42,-351 281.25,-351"/>
<polygon fill="midnightblue" stroke="midnightblue" points="76.23,-347.5 66.23,-351 76.23,-354.5 76.23,-347.5"/>
</g>
<!-- Node8&#45;&gt;Node1 -->
<g id="edge8" class="edge">
<title>Node8&#45;&gt;Node1</title>
<path fill="none" stroke="orange" stroke-dasharray="5,2" d="M535.36,-427.69C556.12,-425.11 579.15,-422.24 598.76,-419.81"/>
<polygon fill="orange" stroke="orange" points="534.87,-424.22 525.38,-428.93 535.74,-431.17 534.87,-424.22"/>
<text text-anchor="middle" x="562" y="-430" font-family="Helvetica,sans-Serif" font-size="10.00"> &lt; T, T &gt;</text>
</g>
<!-- Node9&#45;&gt;Node8 -->
<g id="edge10" class="edge">
<title>Node9&#45;&gt;Node8</title>
<path fill="none" stroke="midnightblue" d="M399.09,-433.92C408.08,-434.05 417.19,-434.18 425.82,-434.3"/>
<polygon fill="midnightblue" stroke="midnightblue" points="399.08,-430.42 389.03,-433.78 398.98,-437.42 399.08,-430.42"/>
</g>
<!-- Node10&#45;&gt;Node8 -->
<g id="edge12" class="edge">
<title>Node10&#45;&gt;Node8</title>
<path fill="none" stroke="midnightblue" d="M359.2,-365.82C387.89,-383.03 434.37,-410.92 458.63,-425.48"/>
<polygon fill="midnightblue" stroke="midnightblue" points="360.94,-362.78 350.56,-360.64 357.33,-368.78 360.94,-362.78"/>
</g>
<!-- Node16 -->
<g id="node17" class="node">
<title>Node16</title>
<g id="a_node17"><a xlink:href="class_s_k_output_numeric.html" target="_top" xlink:title="A special class for sending numeric values to the Signal K server on a specific Signal K path.">
<polygon fill="white" stroke="black" points="1105,-430.5 1105,-449.5 1225,-449.5 1225,-430.5 1105,-430.5"/>
<text text-anchor="middle" x="1165" y="-437.5" font-family="Helvetica,sans-Serif" font-size="10.00">SKOutputNumeric&lt; T &gt;</text>
</a>
</g>
</g>
<!-- Node15&#45;&gt;Node16 -->
<g id="edge20" class="edge">
<title>Node15&#45;&gt;Node16</title>
<path fill="none" stroke="midnightblue" d="M1052.54,-388.76C1056.55,-390.59 1060.43,-392.65 1064,-395 1074.28,-401.75 1071.67,-409.33 1082,-416 1091.72,-422.28 1103.13,-426.96 1114.29,-430.43"/>
<polygon fill="midnightblue" stroke="midnightblue" points="1053.59,-385.42 1043.01,-384.94 1050.99,-391.91 1053.59,-385.42"/>
</g>
<!-- Node19 -->
<g id="node20" class="node">
<title>Node19</title>
<g id="a_node20"><a xlink:href="class_a_d_s1x15_voltage.html" target="_top" xlink:title="ADS1x15Voltage reads the raw output of the ADS1x15 (an integer between 0 and 32,768) and converts it ...">
<polygon fill="white" stroke="black" points="1101,-267 1101,-297 1229,-297 1229,-267 1101,-267"/>
<text text-anchor="start" x="1109" y="-285" font-family="Helvetica,sans-Serif" font-size="10.00">ADS1x15Voltage&lt; T_ads</text>
<text text-anchor="middle" x="1165" y="-274" font-family="Helvetica,sans-Serif" font-size="10.00">_1x15, chip &gt;</text>
</a>
</g>
</g>
<!-- Node18&#45;&gt;Node19 -->
<g id="edge23" class="edge">
<title>Node18&#45;&gt;Node19</title>
<path fill="none" stroke="midnightblue" d="M1050.75,-237.82C1074.59,-247.12 1102.97,-258.19 1125.35,-266.92"/>
<polygon fill="midnightblue" stroke="midnightblue" points="1051.77,-234.46 1041.18,-234.09 1049.23,-240.99 1051.77,-234.46"/>
</g>
<!-- Node20 -->
<g id="node21" class="node">
<title>Node20</title>
<g id="a_node21"><a xlink:href="class_analog_voltage.html" target="_top" xlink:title=" ">
<polygon fill="white" stroke="black" points="1125,-228.5 1125,-247.5 1205,-247.5 1205,-228.5 1125,-228.5"/>
<text text-anchor="middle" x="1165" y="-235.5" font-family="Helvetica,sans-Serif" font-size="10.00">AnalogVoltage</text>
</a>
</g>
</g>
<!-- Node18&#45;&gt;Node20 -->
<g id="edge24" class="edge">
<title>Node18&#45;&gt;Node20</title>
<path fill="none" stroke="midnightblue" d="M1065.77,-226.44C1085.67,-228.79 1107.07,-231.3 1124.8,-233.39"/>
<polygon fill="midnightblue" stroke="midnightblue" points="1066.17,-222.97 1055.83,-225.27 1065.35,-229.92 1066.17,-222.97"/>
</g>
<!-- Node21 -->
<g id="node22" class="node">
<title>Node21</title>
<g id="a_node22"><a xlink:href="class_angle_correction.html" target="_top" xlink:title=" ">
<polygon fill="white" stroke="black" points="1122,-190.5 1122,-209.5 1208,-209.5 1208,-190.5 1122,-190.5"/>
<text text-anchor="middle" x="1165" y="-197.5" font-family="Helvetica,sans-Serif" font-size="10.00">AngleCorrection</text>
</a>
</g>
</g>
<!-- Node18&#45;&gt;Node21 -->
<g id="edge25" class="edge">
<title>Node18&#45;&gt;Node21</title>
<path fill="none" stroke="midnightblue" d="M1065.83,-211.55C1084.68,-209.33 1104.85,-206.96 1121.97,-204.94"/>
<polygon fill="midnightblue" stroke="midnightblue" points="1065.35,-208.08 1055.83,-212.73 1066.17,-215.03 1065.35,-208.08"/>
</g>
<!-- Node22 -->
<g id="node23" class="node">
<title>Node22</title>
<g id="a_node23"><a xlink:href="class_change_filter.html" target="_top" xlink:title=" ">
<polygon fill="white" stroke="black" points="1129,-152.5 1129,-171.5 1201,-171.5 1201,-152.5 1129,-152.5"/>
<text text-anchor="middle" x="1165" y="-159.5" font-family="Helvetica,sans-Serif" font-size="10.00">ChangeFilter</text>
</a>
</g>
</g>
<!-- Node18&#45;&gt;Node22 -->
<g id="edge26" class="edge">
<title>Node18&#45;&gt;Node22</title>
<path fill="none" stroke="midnightblue" d="M1049.01,-200.23C1065.35,-193.86 1083.9,-186.87 1101,-181 1110.51,-177.74 1120.92,-174.47 1130.5,-171.59"/>
<polygon fill="midnightblue" stroke="midnightblue" points="1047.7,-196.98 1039.68,-203.9 1050.26,-203.5 1047.7,-196.98"/>
</g>
<!-- Node23 -->
<g id="node24" class="node">
<title>Node23</title>
<g id="a_node24"><a xlink:href="class_curve_interpolator.html" target="_top" xlink:title=" ">
<polygon fill="white" stroke="black" points="1119,-114.5 1119,-133.5 1211,-133.5 1211,-114.5 1119,-114.5"/>
<text text-anchor="middle" x="1165" y="-121.5" font-family="Helvetica,sans-Serif" font-size="10.00">CurveInterpolator</text>
</a>
</g>
</g>
<!-- Node18&#45;&gt;Node23 -->
<g id="edge27" class="edge">
<title>Node18&#45;&gt;Node23</title>
<path fill="none" stroke="midnightblue" d="M1025.85,-196.99C1044.81,-180.15 1072.93,-157.44 1101,-143 1108.31,-139.24 1116.5,-136.09 1124.48,-133.51"/>
<polygon fill="midnightblue" stroke="midnightblue" points="1023.38,-194.51 1018.31,-203.81 1028.07,-199.7 1023.38,-194.51"/>
</g>
<!-- Node24 -->
<g id="node25" class="node">
<title>Node24</title>
<g id="a_node25"><a xlink:href="class_difference.html" target="_top" xlink:title=" ">
<polygon fill="white" stroke="black" points="1134,-76.5 1134,-95.5 1196,-95.5 1196,-76.5 1134,-76.5"/>
<text text-anchor="middle" x="1165" y="-83.5" font-family="Helvetica,sans-Serif" font-size="10.00">Difference</text>
</a>
</g>
</g>
<!-- Node18&#45;&gt;Node24 -->
<g id="edge28" class="edge">
<title>Node18&#45;&gt;Node24</title>
<path fill="none" stroke="midnightblue" d="M1017.11,-195.16C1034.16,-169.3 1064.69,-128.56 1101,-105 1110.87,-98.6 1123,-94.27 1133.97,-91.38"/>
<polygon fill="midnightblue" stroke="midnightblue" points="1014.13,-193.33 1011.66,-203.64 1020.02,-197.12 1014.13,-193.33"/>
</g>
<!-- Node25 -->
<g id="node26" class="node">
<title>Node25</title>
<g id="a_node26"><a xlink:href="class_median.html" target="_top" xlink:title=" ">
<polygon fill="white" stroke="black" points="1141,-38.5 1141,-57.5 1189,-57.5 1189,-38.5 1141,-38.5"/>
<text text-anchor="middle" x="1165" y="-45.5" font-family="Helvetica,sans-Serif" font-size="10.00">Median</text>
</a>
</g>
</g>
<!-- Node18&#45;&gt;Node25 -->
<g id="edge29" class="edge">
<title>Node18&#45;&gt;Node25</title>
<path fill="none" stroke="midnightblue" d="M1011.99,-194.42C1026.24,-160.72 1056.35,-100.55 1101,-67 1112.6,-58.28 1128.19,-53.54 1140.97,-50.97"/>
<polygon fill="midnightblue" stroke="midnightblue" points="1008.63,-193.39 1008.08,-203.97 1015.11,-196.04 1008.63,-193.39"/>
</g>
<!-- Node26 -->
<g id="node27" class="node">
<title>Node26</title>
<g id="a_node27"><a xlink:href="class_moving_average.html" target="_top" xlink:title=" ">
<polygon fill="white" stroke="black" points="1123,-0.5 1123,-19.5 1207,-19.5 1207,-0.5 1123,-0.5"/>
<text text-anchor="middle" x="1165" y="-7.5" font-family="Helvetica,sans-Serif" font-size="10.00">MovingAverage</text>
</a>
</g>
</g>
<!-- Node18&#45;&gt;Node26 -->
<g id="edge30" class="edge">
<title>Node18&#45;&gt;Node26</title>
<path fill="none" stroke="midnightblue" d="M1008.66,-193.98C1019.95,-153.34 1047.85,-73.11 1101,-29 1107.33,-23.75 1115.08,-19.95 1122.96,-17.2"/>
<polygon fill="midnightblue" stroke="midnightblue" points="1005.22,-193.31 1006.02,-203.87 1011.98,-195.11 1005.22,-193.31"/>
</g>
<!-- Node27 -->
<g id="node28" class="node">
<title>Node27</title>
<g id="a_node28"><a xlink:href="class_voltage_divider_r1.html" target="_top" xlink:title=" ">
<polygon fill="white" stroke="black" points="1118.5,-392.5 1118.5,-411.5 1211.5,-411.5 1211.5,-392.5 1118.5,-392.5"/>
<text text-anchor="middle" x="1165" y="-399.5" font-family="Helvetica,sans-Serif" font-size="10.00">VoltageDividerR1</text>
</a>
</g>
</g>
<!-- Node18&#45;&gt;Node27 -->
<g id="edge31" class="edge">
<title>Node18&#45;&gt;Node27</title>
<path fill="none" stroke="midnightblue" d="M1020.42,-242.47C1033.29,-259.83 1050.65,-284.29 1064,-307 1083.04,-339.39 1072.4,-358.65 1101,-383 1106.05,-387.3 1112.04,-390.62 1118.29,-393.19"/>
<polygon fill="midnightblue" stroke="midnightblue" points="1022.94,-240 1014.14,-234.09 1017.34,-244.19 1022.94,-240"/>
</g>
<!-- Node28 -->
<g id="node29" class="node">
<title>Node28</title>
<g id="a_node29"><a xlink:href="class_voltage_divider_r2.html" target="_top" xlink:title=" ">
<polygon fill="white" stroke="black" points="1118.5,-354.5 1118.5,-373.5 1211.5,-373.5 1211.5,-354.5 1118.5,-354.5"/>
<text text-anchor="middle" x="1165" y="-361.5" font-family="Helvetica,sans-Serif" font-size="10.00">VoltageDividerR2</text>
</a>
</g>
</g>
<!-- Node18&#45;&gt;Node28 -->
<g id="edge32" class="edge">
<title>Node18&#45;&gt;Node28</title>
<path fill="none" stroke="midnightblue" d="M1018.59,-242.94C1040.84,-275.43 1080.58,-331.03 1101,-345 1106.66,-348.87 1113.12,-351.97 1119.71,-354.45"/>
<polygon fill="midnightblue" stroke="midnightblue" points="1021.33,-240.75 1012.81,-234.45 1015.54,-244.68 1021.33,-240.75"/>
</g>
<!-- Node29 -->
<g id="node30" class="node">
<title>Node29</title>
<g id="a_node30"><a xlink:href="class_voltage_multiplier.html" target="_top" xlink:title=" ">
<polygon fill="white" stroke="black" points="1120.5,-316.5 1120.5,-335.5 1209.5,-335.5 1209.5,-316.5 1120.5,-316.5"/>
<text text-anchor="middle" x="1165" y="-323.5" font-family="Helvetica,sans-Serif" font-size="10.00">VoltageMultiplier</text>
</a>
</g>
</g>
<!-- Node18&#45;&gt;Node29 -->
<g id="edge33" class="edge">
<title>Node18&#45;&gt;Node29</title>
<path fill="none" stroke="midnightblue" d="M1022.78,-241.59C1041.4,-261.1 1070.64,-288.8 1101,-306 1108.39,-310.19 1116.77,-313.62 1124.95,-316.39"/>
<polygon fill="midnightblue" stroke="midnightblue" points="1025.1,-238.95 1015.71,-234.04 1019.99,-243.73 1025.1,-238.95"/>
</g>
</g>
</svg>
        <g id="navigator" transform="translate(0 0)" fill="#404254">
                <rect fill="#f2f5e9" fill-opacity="0.5" stroke="#606060" stroke-width=".5" x="0" y="0" width="60" height="60"/>
                <use id="zoomplus" xlink:href="#zoomPlus" x="17" y="9" onmousedown="handleZoom(evt,'in')"/>
                <use id="zoomminus" xlink:href="#zoomMin" x="42" y="9" onmousedown="handleZoom(evt,'out')"/>
                <use id="reset" xlink:href="#resetDef" x="30" y="36" onmousedown="handleReset()"/>
                <g id="arrowUp" xlink:href="#dirArrow" transform="translate(30 24)" onmousedown="handlePan(0,-1)">
                  <use xlink:href="#rim" fill="#404040">
                        <set attributeName="fill" to="#808080" begin="arrowUp.mouseover" end="arrowUp.mouseout"/>
                  </use>
                  <path fill="none" stroke="white" stroke-width="1.5" d="M0,-3.0v7 M-2.5,-0.5L0,-3.0L2.5,-0.5"/>
                </g>
                <g id="arrowRight" xlink:href="#dirArrow" transform="rotate(90) translate(36 -43)" onmousedown="handlePan(1,0)">
                  <use xlink:href="#rim" fill="#404040">
                        <set attributeName="fill" to="#808080" begin="arrowRight.mouseover" end="arrowRight.mouseout"/>
                  </use>
                  <path fill="none" stroke="white" stroke-width="1.5" d="M0,-3.0v7 M-2.5,-0.5L0,-3.0L2.5,-0.5"/>
                </g>
                <g id="arrowDown" xlink:href="#dirArrow" transform="rotate(180) translate(-30 -48)" onmousedown="handlePan(0,1)">
                  <use xlink:href="#rim" fill="#404040">
                        <set attributeName="fill" to="#808080" begin="arrowDown.mouseover" end="arrowDown.mouseout"/>
                  </use>
                  <path fill="none" stroke="white" stroke-width="1.5" d="M0,-3.0v7 M-2.5,-0.5L0,-3.0L2.5,-0.5"/>
                </g>
                <g id="arrowLeft" xlink:href="#dirArrow" transform="rotate(270) translate(-36 17)" onmousedown="handlePan(-1,0)">
                  <use xlink:href="#rim" fill="#404040">
                        <set attributeName="fill" to="#808080" begin="arrowLeft.mouseover" end="arrowLeft.mouseout"/>
                  </use>
                  <path fill="none" stroke="white" stroke-width="1.5" d="M0,-3.0v7 M-2.5,-0.5L0,-3.0L2.5,-0.5"/>
                </g>
        </g>
        <svg viewBox="0 0 15 15" width="100%" height="30px" preserveAspectRatio="xMaxYMin meet">
         <g id="arrow_out" transform="scale(0.3 0.3)">
          <a xlink:href="class_symmetric_transform__inherit__graph_org.svg" target="_base">
           <rect id="button" ry="5" rx="5" y="6" x="6" height="38" width="38"
                fill="#f2f5e9" fill-opacity="0.5" stroke="#606060" stroke-width="1.0"/>
           <path id="arrow"
             d="M 11.500037,31.436501 C 11.940474,20.09759 22.043105,11.32322 32.158766,21.979434 L 37.068811,17.246167 C 37.068811,17.246167 37.088388,32 37.088388,32 L 22.160133,31.978069 C 22.160133,31.978069 26.997745,27.140456 26.997745,27.140456 C 18.528582,18.264221 13.291696,25.230495 11.500037,31.436501 z"
             style="fill:#404040;"/>
          </a>
         </g>
        </svg>
</svg>
