<?xml version="1.0" encoding="UTF-8" standalone="no"?>
<!DOCTYPE svg PUBLIC "-//W3C//DTD SVG 1.1//EN"
 "http://www.w3.org/Graphics/SVG/1.1/DTD/svg11.dtd">
<!-- Generated by graphviz version 3.0.0 (20220226.1711)
 -->
<!-- Title: sensesp::SKPutRequestBase::send_put_request Pages: 1 -->
<!--zoomable 214 -->
<svg id="main" version="1.1" xmlns="http://www.w3.org/2000/svg" xmlns:xlink="http://www.w3.org/1999/xlink" xml:space="preserve" onload="init(evt)">
<style type="text/css"><![CDATA[
.edge:hover path { stroke: red; }
.edge:hover polygon { stroke: red; fill: red; }
]]></style>
<script type="text/javascript"><![CDATA[
var edges = document.getElementsByTagName('g');
if (edges && edges.length) {
  for (var i=0;i<edges.length;i++) {
    if (edges[i].id.substr(0,4)=='edge') {
      edges[i].setAttribute('class','edge');
    }
  }
}
]]></script>
        <defs>
                <circle id="rim" cx="0" cy="0" r="7"/>
                <circle id="rim2" cx="0" cy="0" r="3.5"/>
                <g id="zoomPlus">
                        <use xlink:href="#rim" fill="#404040">
                                <set attributeName="fill" to="#808080" begin="zoomplus.mouseover" end="zoomplus.mouseout"/>
                        </use>
                        <path d="M-4,0h8M0,-4v8" fill="none" stroke="white" stroke-width="1.5" pointer-events="none"/>
                </g>
                <g id="zoomMin">
                        <use xlink:href="#rim" fill="#404040">
                                <set attributeName="fill" to="#808080" begin="zoomminus.mouseover" end="zoomminus.mouseout"/>
                        </use>
                        <path d="M-4,0h8" fill="none" stroke="white" stroke-width="1.5" pointer-events="none"/>
                </g>
                <g id="dirArrow">
                        <path fill="none" stroke="white" stroke-width="1.5" d="M0,-3.0v7 M-2.5,-0.5L0,-3.0L2.5,-0.5"/>
                </g>
               <g id="resetDef">
                       <use xlink:href="#rim2" fill="#404040">
                               <set attributeName="fill" to="#808080" begin="reset.mouseover" end="reset.mouseout"/>
                       </use>
               </g>
        </defs>

<script type="text/javascript">
var viewWidth = 665;
var viewHeight = 214;
var sectionId = 'dynsection-5';
</script>
<script xlink:href="svgpan.js"/>
<svg id="graph" class="graph">
<g id="viewport">
<title>sensesp::SKPutRequestBase::send_put_request</title>
<polygon fill="white" stroke="transparent" points="-4,4 -4,-209.5 661,-209.5 661,4 -4,4"/>
<!-- Node1 -->
<g id="node1" class="node">
<title>Node1</title>
<g id="a_node1"><a xlink:title=" ">
<polygon fill="#bfbfbf" stroke="black" points="0,-98.5 0,-128.5 147,-128.5 147,-98.5 0,-98.5"/>
<text text-anchor="start" x="8" y="-116.5" font-family="Helvetica,sans-Serif" font-size="10.00">sensesp::SKPutRequestBase</text>
<text text-anchor="middle" x="73.5" y="-105.5" font-family="Helvetica,sans-Serif" font-size="10.00">::send_put_request</text>
</a>
</g>
</g>
<!-- Node2 -->
<g id="node2" class="node">
<title>Node2</title>
<g id="a_node2"><a xlink:href="classsensesp_1_1_s_k_put_request_base.html#aba1496917cfc83887cc5032bb6bf4548" target="_top" xlink:title=" ">
<polygon fill="white" stroke="black" points="183,-147.5 183,-177.5 330,-177.5 330,-147.5 183,-147.5"/>
<text text-anchor="start" x="191" y="-165.5" font-family="Helvetica,sans-Serif" font-size="10.00">sensesp::SKPutRequestBase</text>
<text text-anchor="middle" x="256.5" y="-154.5" font-family="Helvetica,sans-Serif" font-size="10.00">::on_response</text>
</a>
</g>
</g>
<!-- Node1&#45;&gt;Node2 -->
<g id="edge1" class="edge">
<title>Node1&#45;&gt;Node2</title>
<path fill="none" stroke="midnightblue" d="M130.28,-128.6C149.21,-133.73 170.52,-139.5 190.13,-144.8"/>
<polygon fill="midnightblue" stroke="midnightblue" points="189.33,-148.21 199.9,-147.45 191.16,-141.46 189.33,-148.21"/>
</g>
<!-- Node3 -->
<g id="node3" class="node">
<title>Node3</title>
<g id="a_node3"><a xlink:href="classsensesp_1_1_s_k_request.html#a61d615a0f319f6f7a38d968af4620eb2" target="_top" xlink:title=" ">
<polygon fill="white" stroke="black" points="201.5,-98.5 201.5,-128.5 311.5,-128.5 311.5,-98.5 201.5,-98.5"/>
<text text-anchor="start" x="209.5" y="-116.5" font-family="Helvetica,sans-Serif" font-size="10.00">sensesp::SKRequest</text>
<text text-anchor="middle" x="256.5" y="-105.5" font-family="Helvetica,sans-Serif" font-size="10.00">::send_request</text>
</a>
</g>
</g>
<!-- Node1&#45;&gt;Node3 -->
<g id="edge2" class="edge">
<title>Node1&#45;&gt;Node3</title>
<path fill="none" stroke="midnightblue" d="M147.08,-113.5C161.64,-113.5 176.85,-113.5 191.11,-113.5"/>
<polygon fill="midnightblue" stroke="midnightblue" points="191.3,-117 201.3,-113.5 191.3,-110 191.3,-117"/>
</g>
<!-- Node11 -->
<g id="node11" class="node">
<title>Node11</title>
<g id="a_node11"><a xlink:href="classsensesp_1_1_s_k_put_request_base.html#a29be849c72b164333a32109a0568a0dd" target="_top" xlink:title=" ">
<polygon fill="white" stroke="black" points="183,-49.5 183,-79.5 330,-79.5 330,-49.5 183,-49.5"/>
<text text-anchor="start" x="191" y="-67.5" font-family="Helvetica,sans-Serif" font-size="10.00">sensesp::SKPutRequestBase</text>
<text text-anchor="middle" x="256.5" y="-56.5" font-family="Helvetica,sans-Serif" font-size="10.00">::set_put_value</text>
</a>
</g>
</g>
<!-- Node1&#45;&gt;Node11 -->
<g id="edge10" class="edge">
<title>Node1&#45;&gt;Node11</title>
<path fill="none" stroke="midnightblue" d="M130.28,-98.4C149.21,-93.27 170.52,-87.5 190.13,-82.2"/>
<polygon fill="midnightblue" stroke="midnightblue" points="191.16,-85.54 199.9,-79.55 189.33,-78.79 191.16,-85.54"/>
</g>
<!-- Node4 -->
<g id="node4" class="node">
<title>Node4</title>
<g id="a_node4"><a xlink:href="namespacesensesp.html#a270290236513f91972b435ad45c4f70b" target="_top" xlink:title="Generate a random UUIDv4 string.">
<polygon fill="white" stroke="black" points="372,-186 372,-205 497,-205 497,-186 372,-186"/>
<text text-anchor="middle" x="434.5" y="-193" font-family="Helvetica,sans-Serif" font-size="10.00">sensesp::generate_uuid4</text>
</a>
</g>
</g>
<!-- Node3&#45;&gt;Node4 -->
<g id="edge3" class="edge">
<title>Node3&#45;&gt;Node4</title>
<path fill="none" stroke="midnightblue" d="M310.77,-128.52C317.48,-131.37 324.07,-134.68 330,-138.5 349.56,-151.1 346.09,-164.47 366,-176.5 369.58,-178.66 373.41,-180.58 377.36,-182.29"/>
<polygon fill="midnightblue" stroke="midnightblue" points="376.15,-185.58 386.74,-185.91 378.66,-179.04 376.15,-185.58"/>
</g>
<!-- Node5 -->
<g id="node5" class="node">
<title>Node5</title>
<g id="a_node5"><a xlink:href="classsensesp_1_1_sens_e_s_p_app.html#a0d691348bffb9c65548ad23cd2188ca9" target="_top" xlink:title="Get the singleton instance of the SensESPApp.">
<polygon fill="white" stroke="black" points="366,-148 366,-167 503,-167 503,-148 366,-148"/>
<text text-anchor="middle" x="434.5" y="-155" font-family="Helvetica,sans-Serif" font-size="10.00">sensesp::SensESPApp::get</text>
</a>
</g>
</g>
<!-- Node3&#45;&gt;Node5 -->
<g id="edge4" class="edge">
<title>Node3&#45;&gt;Node5</title>
<path fill="none" stroke="midnightblue" d="M311.74,-127.06C335.32,-132.96 362.71,-139.8 385.54,-145.51"/>
<polygon fill="midnightblue" stroke="midnightblue" points="384.79,-148.93 395.34,-147.96 386.49,-142.14 384.79,-148.93"/>
</g>
<!-- Node7 -->
<g id="node7" class="node">
<title>Node7</title>
<g id="a_node7"><a xlink:href="classsensesp_1_1_sens_e_s_p_app.html#aee6f3237f702cd76e052dbe1fa3fb9cc" target="_top" xlink:title=" ">
<polygon fill="white" stroke="black" points="375.5,-98.5 375.5,-128.5 493.5,-128.5 493.5,-98.5 375.5,-98.5"/>
<text text-anchor="start" x="383.5" y="-116.5" font-family="Helvetica,sans-Serif" font-size="10.00">sensesp::SensESPApp</text>
<text text-anchor="middle" x="434.5" y="-105.5" font-family="Helvetica,sans-Serif" font-size="10.00">::get_ws_client</text>
</a>
</g>
</g>
<!-- Node3&#45;&gt;Node7 -->
<g id="edge6" class="edge">
<title>Node3&#45;&gt;Node7</title>
<path fill="none" stroke="midnightblue" d="M311.74,-113.5C328.63,-113.5 347.47,-113.5 365.19,-113.5"/>
<polygon fill="midnightblue" stroke="midnightblue" points="365.47,-117 375.47,-113.5 365.47,-110 365.47,-117"/>
</g>
<!-- Node8 -->
<g id="node8" class="node">
<title>Node8</title>
<g id="a_node8"><a xlink:href="classsensesp_1_1_s_k_request.html#af3556571b45b5ce5ab74831cb5605ded" target="_top" xlink:title=" ">
<polygon fill="white" stroke="black" points="379.5,-49.5 379.5,-79.5 489.5,-79.5 489.5,-49.5 379.5,-49.5"/>
<text text-anchor="start" x="387.5" y="-67.5" font-family="Helvetica,sans-Serif" font-size="10.00">sensesp::SKRequest</text>
<text text-anchor="middle" x="434.5" y="-56.5" font-family="Helvetica,sans-Serif" font-size="10.00">::remove_request</text>
</a>
</g>
</g>
<!-- Node3&#45;&gt;Node8 -->
<g id="edge7" class="edge">
<title>Node3&#45;&gt;Node8</title>
<path fill="none" stroke="midnightblue" d="M311.74,-98.4C330.06,-93.3 350.68,-87.56 369.67,-82.27"/>
<polygon fill="midnightblue" stroke="midnightblue" points="370.74,-85.61 379.44,-79.55 368.86,-78.86 370.74,-85.61"/>
</g>
<!-- Node10 -->
<g id="node10" class="node">
<title>Node10</title>
<g id="a_node10"><a xlink:href="classsensesp_1_1_w_s_client.html#ae8beb3aff4ca6e75a2c49b808cc95f2a" target="_top" xlink:title="Send some processed data to the websocket.">
<polygon fill="white" stroke="black" points="381,-0.5 381,-30.5 488,-30.5 488,-0.5 381,-0.5"/>
<text text-anchor="start" x="389" y="-18.5" font-family="Helvetica,sans-Serif" font-size="10.00">sensesp::WSClient::</text>
<text text-anchor="middle" x="434.5" y="-7.5" font-family="Helvetica,sans-Serif" font-size="10.00">sendTXT</text>
</a>
</g>
</g>
<!-- Node3&#45;&gt;Node10 -->
<g id="edge9" class="edge">
<title>Node3&#45;&gt;Node10</title>
<path fill="none" stroke="midnightblue" d="M311.62,-98.99C318.12,-96.07 324.42,-92.6 330,-88.5 351.76,-72.48 344.31,-55.63 366,-39.5 367.87,-38.11 369.82,-36.8 371.83,-35.56"/>
<polygon fill="midnightblue" stroke="midnightblue" points="373.91,-38.41 381.02,-30.56 370.57,-32.27 373.91,-38.41"/>
</g>
<!-- Node6 -->
<g id="node6" class="node">
<title>Node6</title>
<g id="a_node6"><a xlink:href="classsensesp_1_1_sens_e_s_p_app.html#a05ebb118abaf137b414a8736fb1fc3ba" target="_top" xlink:title="SensESPApp constructor.">
<polygon fill="white" stroke="black" points="539,-142.5 539,-172.5 657,-172.5 657,-142.5 539,-142.5"/>
<text text-anchor="start" x="547" y="-160.5" font-family="Helvetica,sans-Serif" font-size="10.00">sensesp::SensESPApp</text>
<text text-anchor="middle" x="598" y="-149.5" font-family="Helvetica,sans-Serif" font-size="10.00">::SensESPApp</text>
</a>
</g>
</g>
<!-- Node5&#45;&gt;Node6 -->
<g id="edge5" class="edge">
<title>Node5&#45;&gt;Node6</title>
<path fill="none" stroke="midnightblue" d="M503.05,-157.5C511.53,-157.5 520.21,-157.5 528.71,-157.5"/>
<polygon fill="midnightblue" stroke="midnightblue" points="528.94,-161 538.94,-157.5 528.94,-154 528.94,-161"/>
</g>
<!-- Node9 -->
<g id="node9" class="node">
<title>Node9</title>
<g id="a_node9"><a xlink:href="classsensesp_1_1_s_k_request.html#a9af8d69fb226c27304ceff7646bc86ca" target="_top" xlink:title=" ">
<polygon fill="white" stroke="black" points="543,-49.5 543,-79.5 653,-79.5 653,-49.5 543,-49.5"/>
<text text-anchor="start" x="551" y="-67.5" font-family="Helvetica,sans-Serif" font-size="10.00">sensesp::SKRequest</text>
<text text-anchor="middle" x="598" y="-56.5" font-family="Helvetica,sans-Serif" font-size="10.00">::get_request</text>
</a>
</g>
</g>
<!-- Node8&#45;&gt;Node9 -->
<g id="edge8" class="edge">
<title>Node8&#45;&gt;Node9</title>
<path fill="none" stroke="midnightblue" d="M489.73,-64.5C503.52,-64.5 518.47,-64.5 532.7,-64.5"/>
<polygon fill="midnightblue" stroke="midnightblue" points="532.92,-68 542.92,-64.5 532.92,-61 532.92,-68"/>
</g>
</g>
</svg>
        <g id="navigator" transform="translate(0 0)" fill="#404254">
                <rect fill="#f2f5e9" fill-opacity="0.5" stroke="#606060" stroke-width=".5" x="0" y="0" width="60" height="60"/>
                <use id="zoomplus" xlink:href="#zoomPlus" x="17" y="9" onmousedown="handleZoom(evt,'in')"/>
                <use id="zoomminus" xlink:href="#zoomMin" x="42" y="9" onmousedown="handleZoom(evt,'out')"/>
                <use id="reset" xlink:href="#resetDef" x="30" y="36" onmousedown="handleReset()"/>
                <g id="arrowUp" xlink:href="#dirArrow" transform="translate(30 24)" onmousedown="handlePan(0,-1)">
                  <use xlink:href="#rim" fill="#404040">
                        <set attributeName="fill" to="#808080" begin="arrowUp.mouseover" end="arrowUp.mouseout"/>
                  </use>
                  <path fill="none" stroke="white" stroke-width="1.5" d="M0,-3.0v7 M-2.5,-0.5L0,-3.0L2.5,-0.5"/>
                </g>
                <g id="arrowRight" xlink:href="#dirArrow" transform="rotate(90) translate(36 -43)" onmousedown="handlePan(1,0)">
                  <use xlink:href="#rim" fill="#404040">
                        <set attributeName="fill" to="#808080" begin="arrowRight.mouseover" end="arrowRight.mouseout"/>
                  </use>
                  <path fill="none" stroke="white" stroke-width="1.5" d="M0,-3.0v7 M-2.5,-0.5L0,-3.0L2.5,-0.5"/>
                </g>
                <g id="arrowDown" xlink:href="#dirArrow" transform="rotate(180) translate(-30 -48)" onmousedown="handlePan(0,1)">
                  <use xlink:href="#rim" fill="#404040">
                        <set attributeName="fill" to="#808080" begin="arrowDown.mouseover" end="arrowDown.mouseout"/>
                  </use>
                  <path fill="none" stroke="white" stroke-width="1.5" d="M0,-3.0v7 M-2.5,-0.5L0,-3.0L2.5,-0.5"/>
                </g>
                <g id="arrowLeft" xlink:href="#dirArrow" transform="rotate(270) translate(-36 17)" onmousedown="handlePan(-1,0)">
                  <use xlink:href="#rim" fill="#404040">
                        <set attributeName="fill" to="#808080" begin="arrowLeft.mouseover" end="arrowLeft.mouseout"/>
                  </use>
                  <path fill="none" stroke="white" stroke-width="1.5" d="M0,-3.0v7 M-2.5,-0.5L0,-3.0L2.5,-0.5"/>
                </g>
        </g>
        <svg viewBox="0 0 15 15" width="100%" height="30px" preserveAspectRatio="xMaxYMin meet">
         <g id="arrow_out" transform="scale(0.3 0.3)">
          <a xlink:href="classsensesp_1_1_s_k_put_request_base_a8a60c171c008e367a92d93f62e291dae_cgraph_org.svg" target="_base">
           <rect id="button" ry="5" rx="5" y="6" x="6" height="38" width="38"
                fill="#f2f5e9" fill-opacity="0.5" stroke="#606060" stroke-width="1.0"/>
           <path id="arrow"
             d="M 11.500037,31.436501 C 11.940474,20.09759 22.043105,11.32322 32.158766,21.979434 L 37.068811,17.246167 C 37.068811,17.246167 37.088388,32 37.088388,32 L 22.160133,31.978069 C 22.160133,31.978069 26.997745,27.140456 26.997745,27.140456 C 18.528582,18.264221 13.291696,25.230495 11.500037,31.436501 z"
             style="fill:#404040;"/>
          </a>
         </g>
        </svg>
</svg>
