<?xml version="1.0" encoding="UTF-8" standalone="no"?>
<!DOCTYPE svg PUBLIC "-//W3C//DTD SVG 1.1//EN"
 "http://www.w3.org/Graphics/SVG/1.1/DTD/svg11.dtd">
<!-- Generated by graphviz version 2.40.1 (20161225.0304)
 -->
<!-- Title: SystemStatusLed Pages: 1 -->
<svg width="403pt" height="213pt"
 viewBox="0.00 0.00 403.35 213.00" xmlns="http://www.w3.org/2000/svg" xmlns:xlink="http://www.w3.org/1999/xlink">
<g id="graph0" class="graph" transform="scale(1 1) rotate(0) translate(4 209)">
<title>SystemStatusLed</title>
<polygon fill="#ffffff" stroke="transparent" points="-4,4 -4,-209 399.3501,-209 399.3501,4 -4,4"/>
<!-- Node4 -->
<g id="node1" class="node">
<title>Node4</title>
<g id="a_node1"><a xlink:title=" ">
<polygon fill="#bfbfbf" stroke="#000000" points="193.7593,-.5 193.7593,-18.5 288.1333,-18.5 288.1333,-.5 193.7593,-.5"/>
<text text-anchor="middle" x="240.9463" y="-6.5" font-family="Helvetica,sans-Serif" font-size="10.00" fill="#000000">SystemStatusLed</text>
</a>
</g>
</g>
<!-- Node5 -->
<g id="node2" class="node">
<title>Node5</title>
<g id="a_node2"><a xlink:href="class_value_consumer.html" target="_top" xlink:title=" ">
<polygon fill="#ffffff" stroke="#000000" points="0,-65.5 0,-83.5 165.8926,-83.5 165.8926,-65.5 0,-65.5"/>
<text text-anchor="middle" x="82.9463" y="-71.5" font-family="Helvetica,sans-Serif" font-size="10.00" fill="#000000">ValueConsumer&lt; SystemStatus &gt;</text>
</a>
</g>
</g>
<!-- Node5&#45;&gt;Node4 -->
<g id="edge1" class="edge">
<title>Node5&#45;&gt;Node4</title>
<path fill="none" stroke="#191970" d="M114.367,-61.5737C145.291,-48.8519 191.7157,-29.7531 218.9095,-18.5658"/>
<polygon fill="#191970" stroke="#191970" points="112.8319,-58.4206 104.9155,-65.462 115.4951,-64.8942 112.8319,-58.4206"/>
</g>
<!-- Node6 -->
<g id="node3" class="node">
<title>Node6</title>
<g id="a_node3"><a xlink:href="class_value_consumer.html" target="_top" xlink:title=" ">
<polygon fill="#ffffff" stroke="#000000" points="100.9663,-130.5 100.9663,-148.5 210.9263,-148.5 210.9263,-130.5 100.9663,-130.5"/>
<text text-anchor="middle" x="155.9463" y="-136.5" font-family="Helvetica,sans-Serif" font-size="10.00" fill="#000000">ValueConsumer&lt; T &gt;</text>
</a>
</g>
</g>
<!-- Node6&#45;&gt;Node5 -->
<g id="edge2" class="edge">
<title>Node6&#45;&gt;Node5</title>
<path fill="none" stroke="#ffa500" stroke-dasharray="5,2" d="M129.09,-125.2268C122.9089,-121.3475 116.587,-116.8601 111.2422,-112 101.9496,-103.5501 93.5975,-91.6961 88.4171,-83.5913"/>
<polygon fill="#ffa500" stroke="#ffa500" points="127.5264,-128.3684 137.9152,-130.448 131.0908,-122.3438 127.5264,-128.3684"/>
<text text-anchor="middle" x="152.7983" y="-104" font-family="Helvetica,sans-Serif" font-size="10.00" fill="#000000"> &lt; SystemStatus &gt;</text>
</g>
<!-- Node7 -->
<g id="node4" class="node">
<title>Node7</title>
<g id="a_node4"><a xlink:href="class_value_consumer.html" target="_top" xlink:title=" ">
<polygon fill="#ffffff" stroke="#000000" points="183.564,-65.5 183.564,-83.5 298.3286,-83.5 298.3286,-65.5 183.564,-65.5"/>
<text text-anchor="middle" x="240.9463" y="-71.5" font-family="Helvetica,sans-Serif" font-size="10.00" fill="#000000">ValueConsumer&lt; int &gt;</text>
</a>
</g>
</g>
<!-- Node6&#45;&gt;Node7 -->
<g id="edge4" class="edge">
<title>Node6&#45;&gt;Node7</title>
<path fill="none" stroke="#ffa500" stroke-dasharray="5,2" d="M176.7552,-124.1701C182.0543,-120.229 187.7264,-115.978 192.9463,-112 205.5628,-102.3853 219.8738,-91.1632 229.5621,-83.5184"/>
<polygon fill="#ffa500" stroke="#ffa500" points="174.2875,-121.6424 168.3352,-130.4071 178.4541,-127.2673 174.2875,-121.6424"/>
<text text-anchor="middle" x="220.2344" y="-104" font-family="Helvetica,sans-Serif" font-size="10.00" fill="#000000"> &lt; int &gt;</text>
</g>
<!-- Node7&#45;&gt;Node4 -->
<g id="edge3" class="edge">
<title>Node7&#45;&gt;Node4</title>
<path fill="none" stroke="#191970" d="M240.9463,-55.1265C240.9463,-43.1522 240.9463,-28.3205 240.9463,-18.8821"/>
<polygon fill="#191970" stroke="#191970" points="237.4464,-55.462 240.9463,-65.462 244.4464,-55.4621 237.4464,-55.462"/>
</g>
<!-- Node8 -->
<g id="node5" class="node">
<title>Node8</title>
<g id="a_node5"><a xlink:href="class_pattern_blinker.html" target="_top" xlink:title=" ">
<polygon fill="#ffffff" stroke="#000000" points="316.5425,-65.5 316.5425,-83.5 395.3501,-83.5 395.3501,-65.5 316.5425,-65.5"/>
<text text-anchor="middle" x="355.9463" y="-71.5" font-family="Helvetica,sans-Serif" font-size="10.00" fill="#000000">PatternBlinker</text>
</a>
</g>
</g>
<!-- Node8&#45;&gt;Node4 -->
<g id="edge5" class="edge">
<title>Node8&#45;&gt;Node4</title>
<path fill="none" stroke="#9a32cd" stroke-dasharray="5,2" d="M331.0273,-60.4154C308.6321,-47.7572 276.3949,-29.5362 257.1715,-18.6708"/>
<polygon fill="#9a32cd" stroke="#9a32cd" points="329.5282,-63.5884 339.956,-65.462 332.9726,-57.4944 329.5282,-63.5884"/>
<text text-anchor="middle" x="324.8452" y="-39" font-family="Helvetica,sans-Serif" font-size="10.00" fill="#000000"> blinker_</text>
</g>
<!-- Node9 -->
<g id="node6" class="node">
<title>Node9</title>
<g id="a_node6"><a xlink:href="class_base_blinker.html" target="_top" xlink:title=" ">
<polygon fill="#ffffff" stroke="#000000" points="321.2666,-130.5 321.2666,-148.5 390.626,-148.5 390.626,-130.5 321.2666,-130.5"/>
<text text-anchor="middle" x="355.9463" y="-136.5" font-family="Helvetica,sans-Serif" font-size="10.00" fill="#000000">BaseBlinker</text>
</a>
</g>
</g>
<!-- Node9&#45;&gt;Node8 -->
<g id="edge6" class="edge">
<title>Node9&#45;&gt;Node8</title>
<path fill="none" stroke="#191970" d="M355.9463,-120.1265C355.9463,-108.1522 355.9463,-93.3205 355.9463,-83.8821"/>
<polygon fill="#191970" stroke="#191970" points="352.4464,-120.462 355.9463,-130.462 359.4464,-120.4621 352.4464,-120.462"/>
</g>
<!-- Node10 -->
<g id="node7" class="node">
<title>Node10</title>
<g id="a_node7"><a xlink:href="class_enable.html" target="_top" xlink:title=" ">
<polygon fill="#ffffff" stroke="#000000" points="332.3774,-186.5 332.3774,-204.5 379.5151,-204.5 379.5151,-186.5 332.3774,-186.5"/>
<text text-anchor="middle" x="355.9463" y="-192.5" font-family="Helvetica,sans-Serif" font-size="10.00" fill="#000000">Enable</text>
</a>
</g>
</g>
<!-- Node10&#45;&gt;Node9 -->
<g id="edge7" class="edge">
<title>Node10&#45;&gt;Node9</title>
<path fill="none" stroke="#191970" d="M355.9463,-176.2065C355.9463,-166.8384 355.9463,-156.0262 355.9463,-148.5752"/>
<polygon fill="#191970" stroke="#191970" points="352.4464,-176.2527 355.9463,-186.2527 359.4464,-176.2528 352.4464,-176.2527"/>
</g>
</g>
</svg>
