<?xml version="1.0" encoding="UTF-8" standalone="no"?>
<!DOCTYPE svg PUBLIC "-//W3C//DTD SVG 1.1//EN"
 "http://www.w3.org/Graphics/SVG/1.1/DTD/svg11.dtd">
<!-- Generated by graphviz version 14.1.4 (20260321.0153)
 -->
<!-- Title: sensesp::RgbLed::RgbLed Pages: 1 -->
<svg width="777pt" height="137pt"
 viewBox="0.00 0.00 777.00 137.00" xmlns="http://www.w3.org/2000/svg" xmlns:xlink="http://www.w3.org/1999/xlink">
<g id="graph0" class="graph" transform="scale(1 1) rotate(0) translate(4 132.5)">
<title>sensesp::RgbLed::RgbLed</title>
<!-- Node1 -->
<g id="Node000001" class="node">
<title>Node1</title>
<g id="a_Node000001"><a xlink:title=" ">
<polygon fill="#999999" stroke="#666666" points="132.25,-97.88 0,-97.88 0,-78.62 132.25,-78.62 132.25,-97.88"/>
<text xml:space="preserve" text-anchor="middle" x="66.12" y="-84.38" font-family="Helvetica,sans-Serif" font-size="10.00">sensesp::RgbLed::RgbLed</text>
</a>
</g>
</g>
<!-- Node2 -->
<g id="Node000002" class="node">
<title>Node2</title>
<g id="a_Node000002"><a xlink:href="classsensesp_1_1_file_system_saveable.html#a974f062b375cf8637944f121084cf9f7" target="_top" xlink:title=" ">
<polygon fill="white" stroke="#666666" points="317,-128.5 168.25,-128.5 168.25,-98 317,-98 317,-128.5"/>
<text xml:space="preserve" text-anchor="start" x="176.25" y="-115" font-family="Helvetica,sans-Serif" font-size="10.00">sensesp::FileSystemSaveable</text>
<text xml:space="preserve" text-anchor="middle" x="242.62" y="-103.75" font-family="Helvetica,sans-Serif" font-size="10.00">::FileSystemSaveable</text>
</a>
</g>
</g>
<!-- Node1&#45;&gt;Node2 -->
<g id="edge1_Node000001_Node000002" class="edge">
<title>Node1&#45;&gt;Node2</title>
<g id="a_edge1_Node000001_Node000002"><a xlink:title=" ">
<path fill="none" stroke="#63b8ff" d="M132.6,-97.63C140.42,-98.75 148.49,-99.91 156.54,-101.06"/>
<polygon fill="#63b8ff" stroke="#63b8ff" points="155.98,-104.52 166.37,-102.47 156.97,-97.59 155.98,-104.52"/>
</a>
</g>
</g>
<!-- Node4 -->
<g id="Node000004" class="node">
<title>Node4</title>
<g id="a_Node000004"><a xlink:href="classsensesp_1_1_file_system_saveable.html#a79b2e2e657112851dfda8785d217578a" target="_top" xlink:title="Load and populate the object from a persistent storage.">
<polygon fill="white" stroke="#666666" points="317,-79.5 168.25,-79.5 168.25,-49 317,-49 317,-79.5"/>
<text xml:space="preserve" text-anchor="start" x="176.25" y="-66" font-family="Helvetica,sans-Serif" font-size="10.00">sensesp::FileSystemSaveable</text>
<text xml:space="preserve" text-anchor="middle" x="242.62" y="-54.75" font-family="Helvetica,sans-Serif" font-size="10.00">::load</text>
</a>
</g>
</g>
<!-- Node1&#45;&gt;Node4 -->
<g id="edge3_Node000001_Node000004" class="edge">
<title>Node1&#45;&gt;Node4</title>
<g id="a_edge3_Node000001_Node000004"><a xlink:title=" ">
<path fill="none" stroke="#63b8ff" d="M132.6,-79.25C140.42,-78.17 148.49,-77.06 156.54,-75.95"/>
<polygon fill="#63b8ff" stroke="#63b8ff" points="156.94,-79.43 166.37,-74.6 155.99,-72.5 156.94,-79.43"/>
</a>
</g>
</g>
<!-- Node3 -->
<g id="Node000003" class="node">
<title>Node3</title>
<g id="a_Node000003"><a xlink:href="classsensesp_1_1_saveable.html#abaa7864f4f35be033ad5f32a379051d7" target="_top" xlink:title=" ">
<polygon fill="white" stroke="#666666" points="480,-128.5 374.75,-128.5 374.75,-98 480,-98 480,-128.5"/>
<text xml:space="preserve" text-anchor="start" x="382.75" y="-115" font-family="Helvetica,sans-Serif" font-size="10.00">sensesp::Saveable::</text>
<text xml:space="preserve" text-anchor="middle" x="427.38" y="-103.75" font-family="Helvetica,sans-Serif" font-size="10.00">Saveable</text>
</a>
</g>
</g>
<!-- Node2&#45;&gt;Node3 -->
<g id="edge2_Node000002_Node000003" class="edge">
<title>Node2&#45;&gt;Node3</title>
<g id="a_edge2_Node000002_Node000003"><a xlink:title=" ">
<path fill="none" stroke="#63b8ff" d="M317.43,-113.25C332.67,-113.25 348.58,-113.25 363.39,-113.25"/>
<polygon fill="#63b8ff" stroke="#63b8ff" points="362.95,-116.75 372.95,-113.25 362.95,-109.75 362.95,-116.75"/>
</a>
</g>
</g>
<!-- Node5 -->
<g id="Node000005" class="node">
<title>Node5</title>
<g id="a_Node000005"><a xlink:href="classsensesp_1_1_file_system_saveable.html#ad0233f7895b5c8915108399420c7cf0b" target="_top" xlink:title=" ">
<polygon fill="white" stroke="#666666" points="501.75,-79.5 353,-79.5 353,-49 501.75,-49 501.75,-79.5"/>
<text xml:space="preserve" text-anchor="start" x="361" y="-66" font-family="Helvetica,sans-Serif" font-size="10.00">sensesp::FileSystemSaveable</text>
<text xml:space="preserve" text-anchor="middle" x="427.38" y="-54.75" font-family="Helvetica,sans-Serif" font-size="10.00">::find_config_file</text>
</a>
</g>
</g>
<!-- Node4&#45;&gt;Node5 -->
<g id="edge4_Node000004_Node000005" class="edge">
<title>Node4&#45;&gt;Node5</title>
<g id="a_edge4_Node000004_Node000005"><a xlink:title=" ">
<path fill="none" stroke="#63b8ff" d="M317.43,-64.25C325.22,-64.25 333.18,-64.25 341.08,-64.25"/>
<polygon fill="#63b8ff" stroke="#63b8ff" points="341.08,-67.75 351.08,-64.25 341.08,-60.75 341.08,-67.75"/>
</a>
</g>
</g>
<!-- Node8 -->
<g id="Node000008" class="node">
<title>Node8</title>
<g id="a_Node000008"><a xlink:href="classsensesp_1_1_serializable.html#a841233a82ef3a7fbcecd5a15b0df12d2" target="_top" xlink:title=" ">
<polygon fill="white" stroke="#666666" points="481.88,-30.5 372.88,-30.5 372.88,0 481.88,0 481.88,-30.5"/>
<text xml:space="preserve" text-anchor="start" x="380.88" y="-17" font-family="Helvetica,sans-Serif" font-size="10.00">sensesp::Serializable</text>
<text xml:space="preserve" text-anchor="middle" x="427.38" y="-5.75" font-family="Helvetica,sans-Serif" font-size="10.00">::from_json</text>
</a>
</g>
</g>
<!-- Node4&#45;&gt;Node8 -->
<g id="edge7_Node000004_Node000008" class="edge">
<title>Node4&#45;&gt;Node8</title>
<g id="a_edge7_Node000004_Node000008"><a xlink:title=" ">
<path fill="none" stroke="#63b8ff" d="M302.2,-48.54C321.14,-43.47 342.25,-37.81 361.61,-32.62"/>
<polygon fill="#63b8ff" stroke="#63b8ff" points="362.25,-36.07 371.01,-30.1 360.44,-29.31 362.25,-36.07"/>
</a>
</g>
</g>
<!-- Node6 -->
<g id="Node000006" class="node">
<title>Node6</title>
<g id="a_Node000006"><a xlink:href="namespacesensesp.html#adad24461f43358c45017cf1cb816ca60" target="_top" xlink:title="A base64&#45;encoded SHA&#45;1 hash function.">
<polygon fill="white" stroke="#666666" points="652,-73.88 537.75,-73.88 537.75,-54.62 652,-54.62 652,-73.88"/>
<text xml:space="preserve" text-anchor="middle" x="594.88" y="-60.38" font-family="Helvetica,sans-Serif" font-size="10.00">sensesp::Base64Sha1</text>
</a>
</g>
</g>
<!-- Node5&#45;&gt;Node6 -->
<g id="edge5_Node000005_Node000006" class="edge">
<title>Node5&#45;&gt;Node6</title>
<g id="a_edge5_Node000005_Node000006"><a xlink:title=" ">
<path fill="none" stroke="#63b8ff" d="M501.93,-64.25C509.93,-64.25 518.05,-64.25 525.99,-64.25"/>
<polygon fill="#63b8ff" stroke="#63b8ff" points="525.92,-67.75 535.92,-64.25 525.92,-60.75 525.92,-67.75"/>
</a>
</g>
</g>
<!-- Node7 -->
<g id="Node000007" class="node">
<title>Node7</title>
<g id="a_Node000007"><a xlink:href="namespacesensesp.html#a37dfeb5f75b7115464a9aa40473d69cf" target="_top" xlink:title="SHA&#45;1 hash function.">
<polygon fill="white" stroke="#666666" points="769.25,-73.88 688,-73.88 688,-54.62 769.25,-54.62 769.25,-73.88"/>
<text xml:space="preserve" text-anchor="middle" x="728.62" y="-60.38" font-family="Helvetica,sans-Serif" font-size="10.00">sensesp::Sha1</text>
</a>
</g>
</g>
<!-- Node6&#45;&gt;Node7 -->
<g id="edge6_Node000006_Node000007" class="edge">
<title>Node6&#45;&gt;Node7</title>
<g id="a_edge6_Node000006_Node000007"><a xlink:title=" ">
<path fill="none" stroke="#63b8ff" d="M652.13,-64.25C660.21,-64.25 668.49,-64.25 676.47,-64.25"/>
<polygon fill="#63b8ff" stroke="#63b8ff" points="676.37,-67.75 686.37,-64.25 676.37,-60.75 676.37,-67.75"/>
</a>
</g>
</g>
</g>
</svg>
