<?xml version="1.0" encoding="UTF-8" standalone="no"?>
<!DOCTYPE svg PUBLIC "-//W3C//DTD SVG 1.1//EN"
 "http://www.w3.org/Graphics/SVG/1.1/DTD/svg11.dtd">
<!-- Generated by graphviz version 9.0.0 (20230911.1827)
 -->
<!-- Title: sensesp::Startable::start Pages: 1 -->
<svg width="515pt" height="88pt"
 viewBox="0.00 0.00 514.50 87.50" xmlns="http://www.w3.org/2000/svg" xmlns:xlink="http://www.w3.org/1999/xlink">
<g id="graph0" class="graph" transform="scale(1 1) rotate(0) translate(4 83.5)">
<title>sensesp::Startable::start</title>
<!-- Node1 -->
<g id="Node000001" class="node">
<title>Node1</title>
<g id="a_Node000001"><a xlink:title=" ">
<polygon fill="#999999" stroke="#666666" points="506.5,-54.5 408.75,-54.5 408.75,-24 506.5,-24 506.5,-54.5"/>
<text text-anchor="start" x="416.75" y="-41" font-family="Helvetica,sans-Serif" font-size="10.00">sensesp::Startable</text>
<text text-anchor="middle" x="457.62" y="-29.75" font-family="Helvetica,sans-Serif" font-size="10.00">::start</text>
</a>
</g>
</g>
<!-- Node2 -->
<g id="Node000002" class="node">
<title>Node2</title>
<g id="a_Node000002"><a xlink:href="classsensesp_1_1_repeat_report.html#adf796750db14518700d648bb7bd2d765" target="_top" xlink:title=" ">
<polygon fill="white" stroke="#666666" points="372.75,-79.5 253.25,-79.5 253.25,-49 372.75,-49 372.75,-79.5"/>
<text text-anchor="start" x="261.25" y="-66" font-family="Helvetica,sans-Serif" font-size="10.00">sensesp::RepeatReport</text>
<text text-anchor="middle" x="313" y="-54.75" font-family="Helvetica,sans-Serif" font-size="10.00">::start</text>
</a>
</g>
</g>
<!-- Node1&#45;&gt;Node2 -->
<g id="edge1_Node000001_Node000002" class="edge">
<title>Node1&#45;&gt;Node2</title>
<g id="a_edge1_Node000001_Node000002"><a xlink:title=" ">
<path fill="none" stroke="#63b8ff" d="M397.24,-49.66C389.27,-51.06 381.09,-52.49 373.12,-53.89"/>
<polygon fill="#63b8ff" stroke="#63b8ff" points="397.6,-53.15 406.85,-47.98 396.39,-46.25 397.6,-53.15"/>
</a>
</g>
</g>
<!-- Node3 -->
<g id="Node000003" class="node">
<title>Node3</title>
<g id="a_Node000003"><a xlink:href="classsensesp_1_1_startable.html#ab1f2dfc4941396dd3fdb81e0c3c8b09c" target="_top" xlink:title=" ">
<polygon fill="white" stroke="#666666" points="361.88,-30.5 264.12,-30.5 264.12,0 361.88,0 361.88,-30.5"/>
<text text-anchor="start" x="272.12" y="-17" font-family="Helvetica,sans-Serif" font-size="10.00">sensesp::Startable</text>
<text text-anchor="middle" x="313" y="-5.75" font-family="Helvetica,sans-Serif" font-size="10.00">::start_all</text>
</a>
</g>
</g>
<!-- Node1&#45;&gt;Node3 -->
<g id="edge2_Node000001_Node000003" class="edge">
<title>Node1&#45;&gt;Node3</title>
<g id="a_edge2_Node000001_Node000003"><a xlink:title=" ">
<path fill="none" stroke="#63b8ff" d="M397.31,-29.27C385.63,-27.3 373.5,-25.26 362.24,-23.37"/>
<polygon fill="#63b8ff" stroke="#63b8ff" points="396.4,-32.67 406.85,-30.87 397.57,-25.76 396.4,-32.67"/>
</a>
</g>
</g>
<!-- Node4 -->
<g id="Node000004" class="node">
<title>Node4</title>
<g id="a_Node000004"><a xlink:href="classsensesp_1_1_sens_e_s_p_base_app.html#a9bb8791c56e28547e416818f95c34d1f" target="_top" xlink:title="Start the app (activate all the subcomponents)">
<polygon fill="white" stroke="#666666" points="217.25,-30.5 76,-30.5 76,0 217.25,0 217.25,-30.5"/>
<text text-anchor="start" x="84" y="-17" font-family="Helvetica,sans-Serif" font-size="10.00">sensesp::SensESPBaseApp</text>
<text text-anchor="middle" x="146.62" y="-5.75" font-family="Helvetica,sans-Serif" font-size="10.00">::start</text>
</a>
</g>
</g>
<!-- Node3&#45;&gt;Node4 -->
<g id="edge3_Node000003_Node000004" class="edge">
<title>Node3&#45;&gt;Node4</title>
<g id="a_edge3_Node000003_Node000004"><a xlink:title=" ">
<path fill="none" stroke="#63b8ff" d="M252.85,-15.25C241.44,-15.25 229.38,-15.25 217.66,-15.25"/>
<polygon fill="#63b8ff" stroke="#63b8ff" points="252.5,-18.75 262.5,-15.25 252.5,-11.75 252.5,-18.75"/>
</a>
</g>
</g>
<!-- Node5 -->
<g id="Node000005" class="node">
<title>Node5</title>
<g id="a_Node000005"><a xlink:href="main_8cpp.html#a4fc01d736fe50cf5b977f755b675f11d" target="_top" xlink:title=" ">
<polygon fill="white" stroke="#666666" points="40,-24.88 0,-24.88 0,-5.63 40,-5.63 40,-24.88"/>
<text text-anchor="middle" x="20" y="-11.38" font-family="Helvetica,sans-Serif" font-size="10.00">setup</text>
</a>
</g>
</g>
<!-- Node4&#45;&gt;Node5 -->
<g id="edge4_Node000004_Node000005" class="edge">
<title>Node4&#45;&gt;Node5</title>
<g id="a_edge4_Node000004_Node000005"><a xlink:title=" ">
<path fill="none" stroke="#63b8ff" d="M64.28,-15.25C55.48,-15.25 47.24,-15.25 40.36,-15.25"/>
<polygon fill="#63b8ff" stroke="#63b8ff" points="64.15,-18.75 74.15,-15.25 64.15,-11.75 64.15,-18.75"/>
</a>
</g>
</g>
</g>
</svg>
