<?xml version="1.0" encoding="UTF-8" standalone="no"?>
<!DOCTYPE svg PUBLIC "-//W3C//DTD SVG 1.1//EN"
 "http://www.w3.org/Graphics/SVG/1.1/DTD/svg11.dtd">
<!-- Generated by graphviz version 2.49.3 (20211023.0002)
 -->
<!-- Title: sensesp::RgbLed Pages: 1 -->
<svg width="497pt" height="127pt"
 viewBox="0.00 0.00 497.00 126.50" xmlns="http://www.w3.org/2000/svg" xmlns:xlink="http://www.w3.org/1999/xlink">
<g id="graph0" class="graph" transform="scale(1 1) rotate(0) translate(4 122.5)">
<title>sensesp::RgbLed</title>
<polygon fill="white" stroke="transparent" points="-4,4 -4,-122.5 493,-122.5 493,4 -4,4"/>
<!-- Node1 -->
<g id="node1" class="node">
<title>Node1</title>
<g id="a_node1"><a xlink:title="A special device object that can be used to control a multi&#45;channel color rgb LED light using up to 3...">
<polygon fill="#bfbfbf" stroke="black" points="395,-55 395,-74 489,-74 489,-55 395,-55"/>
<text text-anchor="middle" x="442" y="-62" font-family="Helvetica,sans-Serif" font-size="10.00">sensesp::RgbLed</text>
</a>
</g>
</g>
<!-- Node2 -->
<g id="node2" class="node">
<title>Node2</title>
<g id="a_node2"><a xlink:href="classsensesp_1_1_configurable.html" target="_top" xlink:title="An object that is capable of having configuration data that can be set remotely using a RESTful API,...">
<polygon fill="white" stroke="black" points="235,-99 235,-118 351,-118 351,-99 235,-99"/>
<text text-anchor="middle" x="293" y="-106" font-family="Helvetica,sans-Serif" font-size="10.00">sensesp::Configurable</text>
</a>
</g>
</g>
<!-- Node2&#45;&gt;Node1 -->
<g id="edge1" class="edge">
<title>Node2&#45;&gt;Node1</title>
<path fill="none" stroke="midnightblue" d="M336.03,-96.05C343.35,-93.87 350.9,-91.62 358,-89.5 375.01,-84.41 393.98,-78.7 409.48,-74.03"/>
<polygon fill="midnightblue" stroke="midnightblue" points="334.83,-92.75 326.24,-98.96 336.82,-99.46 334.83,-92.75"/>
</g>
<!-- Node3 -->
<g id="node3" class="node">
<title>Node3</title>
<g id="a_node3"><a xlink:href="classsensesp_1_1_value_consumer.html" target="_top" xlink:title=" ">
<polygon fill="white" stroke="black" points="228,-49.5 228,-79.5 358,-79.5 358,-49.5 228,-49.5"/>
<text text-anchor="start" x="236" y="-67.5" font-family="Helvetica,sans-Serif" font-size="10.00">sensesp::ValueConsumer</text>
<text text-anchor="middle" x="293" y="-56.5" font-family="Helvetica,sans-Serif" font-size="10.00">&lt; long &gt;</text>
</a>
</g>
</g>
<!-- Node3&#45;&gt;Node1 -->
<g id="edge2" class="edge">
<title>Node3&#45;&gt;Node1</title>
<path fill="none" stroke="midnightblue" d="M368.26,-64.5C377.32,-64.5 386.36,-64.5 394.84,-64.5"/>
<polygon fill="midnightblue" stroke="midnightblue" points="368.05,-61 358.05,-64.5 368.05,-68 368.05,-61"/>
</g>
<!-- Node4 -->
<g id="node4" class="node">
<title>Node4</title>
<g id="a_node4"><a xlink:href="classsensesp_1_1_value_consumer.html" target="_top" xlink:title="A base class for piece of code (like a transform) that accepts data for input. ValueConsumers can acc...">
<polygon fill="white" stroke="black" points="0,-30 0,-49 153,-49 153,-30 0,-30"/>
<text text-anchor="middle" x="76.5" y="-37" font-family="Helvetica,sans-Serif" font-size="10.00">sensesp::ValueConsumer&lt; T &gt;</text>
</a>
</g>
</g>
<!-- Node4&#45;&gt;Node3 -->
<g id="edge3" class="edge">
<title>Node4&#45;&gt;Node3</title>
<path fill="none" stroke="orange" stroke-dasharray="5,2" d="M163.24,-49.49C184.74,-52 207.45,-54.65 227.71,-57.01"/>
<polygon fill="orange" stroke="orange" points="163.46,-46 153.12,-48.31 162.65,-52.95 163.46,-46"/>
<text text-anchor="middle" x="190.5" y="-57.5" font-family="Helvetica,sans-Serif" font-size="10.00"> &lt; long &gt;</text>
</g>
<!-- Node5 -->
<g id="node5" class="node">
<title>Node5</title>
<g id="a_node5"><a xlink:href="classsensesp_1_1_value_consumer.html" target="_top" xlink:title=" ">
<polygon fill="white" stroke="black" points="228,-0.5 228,-30.5 358,-30.5 358,-0.5 228,-0.5"/>
<text text-anchor="start" x="236" y="-18.5" font-family="Helvetica,sans-Serif" font-size="10.00">sensesp::ValueConsumer</text>
<text text-anchor="middle" x="293" y="-7.5" font-family="Helvetica,sans-Serif" font-size="10.00">&lt; bool &gt;</text>
</a>
</g>
</g>
<!-- Node4&#45;&gt;Node5 -->
<g id="edge5" class="edge">
<title>Node4&#45;&gt;Node5</title>
<path fill="none" stroke="orange" stroke-dasharray="5,2" d="M159.92,-28.79C163.67,-28.34 167.37,-27.91 171,-27.5 189.46,-25.4 209.52,-23.33 227.91,-21.51"/>
<polygon fill="orange" stroke="orange" points="159.47,-25.32 149.96,-29.99 160.31,-32.27 159.47,-25.32"/>
<text text-anchor="middle" x="190.5" y="-30.5" font-family="Helvetica,sans-Serif" font-size="10.00"> &lt; bool &gt;</text>
</g>
<!-- Node5&#45;&gt;Node1 -->
<g id="edge4" class="edge">
<title>Node5&#45;&gt;Node1</title>
<path fill="none" stroke="midnightblue" d="M349,-33.83C370.51,-41 394.28,-48.93 412.27,-54.92"/>
<polygon fill="midnightblue" stroke="midnightblue" points="349.9,-30.44 339.3,-30.6 347.68,-37.08 349.9,-30.44"/>
</g>
</g>
</svg>
