<?xml version="1.0" encoding="UTF-8" standalone="no"?>
<!DOCTYPE svg PUBLIC "-//W3C//DTD SVG 1.1//EN"
 "http://www.w3.org/Graphics/SVG/1.1/DTD/svg11.dtd">
<!-- Generated by graphviz version 2.50.0 (20211204.2007)
 -->
<!-- Title: sensesp::Networking::setup_wifi_manager Pages: 1 -->
<svg width="651pt" height="369pt"
 viewBox="0.00 0.00 651.00 368.50" xmlns="http://www.w3.org/2000/svg" xmlns:xlink="http://www.w3.org/1999/xlink">
<g id="graph0" class="graph" transform="scale(1 1) rotate(0) translate(4 364.5)">
<title>sensesp::Networking::setup_wifi_manager</title>
<polygon fill="white" stroke="transparent" points="-4,4 -4,-364.5 647,-364.5 647,4 -4,4"/>
<!-- Node1 -->
<g id="node1" class="node">
<title>Node1</title>
<g id="a_node1"><a xlink:title=" ">
<polygon fill="#bfbfbf" stroke="black" points="0,-181.5 0,-211.5 110,-211.5 110,-181.5 0,-181.5"/>
<text text-anchor="start" x="8" y="-199.5" font-family="Helvetica,sans-Serif" font-size="10.00">sensesp::Networking</text>
<text text-anchor="middle" x="55" y="-188.5" font-family="Helvetica,sans-Serif" font-size="10.00">::setup_wifi_manager</text>
</a>
</g>
</g>
<!-- Node2 -->
<g id="node2" class="node">
<title>Node2</title>
<g id="a_node2"><a xlink:href="classsensesp_1_1_value_producer.html#ae34225039d68b6f0e786266e76c2dace" target="_top" xlink:title=" ">
<polygon fill="white" stroke="black" points="521,-49.5 521,-79.5 643,-79.5 643,-49.5 521,-49.5"/>
<text text-anchor="start" x="529" y="-67.5" font-family="Helvetica,sans-Serif" font-size="10.00">sensesp::ValueProducer</text>
<text text-anchor="middle" x="582" y="-56.5" font-family="Helvetica,sans-Serif" font-size="10.00">&lt; WifiState &gt;::emit</text>
</a>
</g>
</g>
<!-- Node1&#45;&gt;Node2 -->
<g id="edge1" class="edge">
<title>Node1&#45;&gt;Node2</title>
<path fill="none" stroke="midnightblue" d="M70.32,-181.46C86.85,-165.13 115.7,-139.75 146,-127.5 286.6,-70.64 335.78,-115.62 485,-88.5 495.18,-86.65 505.89,-84.34 516.31,-81.89"/>
<polygon fill="midnightblue" stroke="midnightblue" points="517.29,-85.26 526.19,-79.51 515.65,-78.45 517.29,-85.26"/>
</g>
<!-- Node3 -->
<g id="node3" class="node">
<title>Node3</title>
<g id="a_node3"><a xlink:href="classsensesp_1_1_sens_e_s_p_base_app.html#a2df22469c69a8a1234ab673386f574d6" target="_top" xlink:title="Get the singleton instance of the SensESPBaseApp.">
<polygon fill="white" stroke="black" points="324,-248 324,-267 485,-267 485,-248 324,-248"/>
<text text-anchor="middle" x="404.5" y="-255" font-family="Helvetica,sans-Serif" font-size="10.00">sensesp::SensESPBaseApp::get</text>
</a>
</g>
</g>
<!-- Node1&#45;&gt;Node3 -->
<g id="edge2" class="edge">
<title>Node1&#45;&gt;Node3</title>
<path fill="none" stroke="midnightblue" d="M69.83,-211.67C86.14,-228.33 114.99,-254.1 146,-264.5 214.71,-287.54 299.62,-278.6 352.68,-268.94"/>
<polygon fill="midnightblue" stroke="midnightblue" points="353.36,-272.38 362.53,-267.08 352.05,-265.5 353.36,-272.38"/>
</g>
<!-- Node4 -->
<g id="node4" class="node">
<title>Node4</title>
<g id="a_node4"><a xlink:href="classsensesp_1_1_sens_e_s_p_base_app.html#a928c309a2dc17f82edefe9e5bc7ef33d" target="_top" xlink:title="Get the current hostname.">
<polygon fill="white" stroke="black" points="146,-225.5 146,-255.5 288,-255.5 288,-225.5 146,-225.5"/>
<text text-anchor="start" x="154" y="-243.5" font-family="Helvetica,sans-Serif" font-size="10.00">sensesp::SensESPBaseApp</text>
<text text-anchor="middle" x="217" y="-232.5" font-family="Helvetica,sans-Serif" font-size="10.00">::get_hostname</text>
</a>
</g>
</g>
<!-- Node1&#45;&gt;Node4 -->
<g id="edge3" class="edge">
<title>Node1&#45;&gt;Node4</title>
<path fill="none" stroke="midnightblue" d="M110.17,-211.4C123.45,-215.05 137.79,-218.99 151.5,-222.76"/>
<polygon fill="midnightblue" stroke="midnightblue" points="150.77,-226.19 161.34,-225.47 152.63,-219.44 150.77,-226.19"/>
</g>
<!-- Node5 -->
<g id="node5" class="node">
<title>Node5</title>
<g id="a_node5"><a xlink:href="classsensesp_1_1_sens_e_s_p_base_app.html#ade8960b96e439f4cc0b387c312999dd5" target="_top" xlink:title="Get the hostname observable object.">
<polygon fill="white" stroke="black" points="333.5,-187.5 333.5,-217.5 475.5,-217.5 475.5,-187.5 333.5,-187.5"/>
<text text-anchor="start" x="341.5" y="-205.5" font-family="Helvetica,sans-Serif" font-size="10.00">sensesp::SensESPBaseApp</text>
<text text-anchor="middle" x="404.5" y="-194.5" font-family="Helvetica,sans-Serif" font-size="10.00">::get_hostname_observable</text>
</a>
</g>
</g>
<!-- Node1&#45;&gt;Node5 -->
<g id="edge6" class="edge">
<title>Node1&#45;&gt;Node5</title>
<path fill="none" stroke="midnightblue" d="M110.3,-197.44C167.37,-198.42 257.78,-199.98 323.12,-201.11"/>
<polygon fill="midnightblue" stroke="midnightblue" points="323.33,-204.62 333.39,-201.29 323.45,-197.62 323.33,-204.62"/>
</g>
<!-- Node6 -->
<g id="node6" class="node">
<title>Node6</title>
<g id="a_node6"><a xlink:href="namespacesensesp.html#aaf3e860cdeae5f7452ecac2b923439d5" target="_top" xlink:title=" ">
<polygon fill="white" stroke="black" points="161,-137.5 161,-167.5 273,-167.5 273,-137.5 161,-137.5"/>
<text text-anchor="start" x="169" y="-155.5" font-family="Helvetica,sans-Serif" font-size="10.00">sensesp::save_config</text>
<text text-anchor="middle" x="217" y="-144.5" font-family="Helvetica,sans-Serif" font-size="10.00">_callback</text>
</a>
</g>
</g>
<!-- Node1&#45;&gt;Node6 -->
<g id="edge7" class="edge">
<title>Node1&#45;&gt;Node6</title>
<path fill="none" stroke="midnightblue" d="M110.17,-181.6C123.45,-177.95 137.79,-174.01 151.5,-170.24"/>
<polygon fill="midnightblue" stroke="midnightblue" points="152.63,-173.56 161.34,-167.53 150.77,-166.81 152.63,-173.56"/>
</g>
<!-- Node7 -->
<g id="node7" class="node">
<title>Node7</title>
<g id="a_node7"><a xlink:href="classsensesp_1_1_configurable.html#a4202ce8a5b9ad23d2a2be27de11153f4" target="_top" xlink:title=" ">
<polygon fill="white" stroke="black" points="160,-313.5 160,-343.5 274,-343.5 274,-313.5 160,-313.5"/>
<text text-anchor="start" x="168" y="-331.5" font-family="Helvetica,sans-Serif" font-size="10.00">sensesp::Configurable</text>
<text text-anchor="middle" x="217" y="-320.5" font-family="Helvetica,sans-Serif" font-size="10.00">::save_configuration</text>
</a>
</g>
</g>
<!-- Node1&#45;&gt;Node7 -->
<g id="edge8" class="edge">
<title>Node1&#45;&gt;Node7</title>
<path fill="none" stroke="midnightblue" d="M65.98,-211.54C81.06,-233.28 111.56,-273.58 146,-298.5 151.4,-302.41 157.38,-305.94 163.51,-309.09"/>
<polygon fill="midnightblue" stroke="midnightblue" points="162.02,-312.25 172.55,-313.43 165.06,-305.95 162.02,-312.25"/>
</g>
<!-- Node11 -->
<g id="node11" class="node">
<title>Node11</title>
<g id="a_node11"><a xlink:href="classsensesp_1_1_networking.html#a7186c3fc3668f3aa2439fb8f1263c0f4" target="_top" xlink:title=" ">
<polygon fill="white" stroke="black" points="160.5,-49.5 160.5,-79.5 273.5,-79.5 273.5,-49.5 160.5,-49.5"/>
<text text-anchor="start" x="168.5" y="-67.5" font-family="Helvetica,sans-Serif" font-size="10.00">sensesp::Networking</text>
<text text-anchor="middle" x="217" y="-56.5" font-family="Helvetica,sans-Serif" font-size="10.00">::setup_wifi_callbacks</text>
</a>
</g>
</g>
<!-- Node1&#45;&gt;Node11 -->
<g id="edge12" class="edge">
<title>Node1&#45;&gt;Node11</title>
<path fill="none" stroke="midnightblue" d="M65.98,-181.46C81.06,-159.72 111.56,-119.42 146,-94.5 151.4,-90.59 157.38,-87.06 163.51,-83.91"/>
<polygon fill="midnightblue" stroke="midnightblue" points="165.06,-87.05 172.55,-79.57 162.02,-80.75 165.06,-87.05"/>
</g>
<!-- Node4&#45;&gt;Node3 -->
<g id="edge4" class="edge">
<title>Node4&#45;&gt;Node3</title>
<path fill="none" stroke="midnightblue" d="M288.13,-246.93C296.54,-247.7 305.21,-248.49 313.84,-249.28"/>
<polygon fill="midnightblue" stroke="midnightblue" points="313.67,-252.78 323.94,-250.21 314.31,-245.81 313.67,-252.78"/>
</g>
<!-- Node4&#45;&gt;Node5 -->
<g id="edge5" class="edge">
<title>Node4&#45;&gt;Node5</title>
<path fill="none" stroke="midnightblue" d="M288.13,-226.13C299.67,-223.77 311.71,-221.3 323.47,-218.89"/>
<polygon fill="midnightblue" stroke="midnightblue" points="324.18,-222.32 333.27,-216.89 322.77,-215.46 324.18,-222.32"/>
</g>
<!-- Node8 -->
<g id="node8" class="node">
<title>Node8</title>
<g id="a_node8"><a xlink:href="hash_8cpp.html#acb0d85917e87a85ddaf682ebde0872a5" target="_top" xlink:title="A base64&#45;encoded SHA&#45;1 hash function.">
<polygon fill="white" stroke="black" points="368.5,-341 368.5,-360 440.5,-360 440.5,-341 368.5,-341"/>
<text text-anchor="middle" x="404.5" y="-348" font-family="Helvetica,sans-Serif" font-size="10.00">Base64Sha1</text>
</a>
</g>
</g>
<!-- Node7&#45;&gt;Node8 -->
<g id="edge9" class="edge">
<title>Node7&#45;&gt;Node8</title>
<path fill="none" stroke="midnightblue" d="M274.16,-335.16C301.06,-338.35 332.85,-342.12 358.18,-345.12"/>
<polygon fill="midnightblue" stroke="midnightblue" points="357.91,-348.62 368.25,-346.32 358.73,-341.67 357.91,-348.62"/>
</g>
<!-- Node10 -->
<g id="node10" class="node">
<title>Node10</title>
<g id="a_node10"><a xlink:href="classsensesp_1_1_configurable.html#a7785e86a2e662ff0291f7a6fb043ea91" target="_top" xlink:title=" ">
<polygon fill="white" stroke="black" points="347.5,-291.5 347.5,-321.5 461.5,-321.5 461.5,-291.5 347.5,-291.5"/>
<text text-anchor="start" x="355.5" y="-309.5" font-family="Helvetica,sans-Serif" font-size="10.00">sensesp::Configurable</text>
<text text-anchor="middle" x="404.5" y="-298.5" font-family="Helvetica,sans-Serif" font-size="10.00">::get_configuration</text>
</a>
</g>
</g>
<!-- Node7&#45;&gt;Node10 -->
<g id="edge11" class="edge">
<title>Node7&#45;&gt;Node10</title>
<path fill="none" stroke="midnightblue" d="M274.16,-321.84C294.05,-319.48 316.6,-316.81 337.25,-314.36"/>
<polygon fill="midnightblue" stroke="midnightblue" points="337.69,-317.83 347.21,-313.18 336.87,-310.88 337.69,-317.83"/>
</g>
<!-- Node9 -->
<g id="node9" class="node">
<title>Node9</title>
<g id="a_node9"><a xlink:href="hash_8cpp.html#a5c78d7f77047179963ffda330a0a00ce" target="_top" xlink:title="SHA&#45;1 hash function.">
<polygon fill="white" stroke="black" points="562.5,-341 562.5,-360 601.5,-360 601.5,-341 562.5,-341"/>
<text text-anchor="middle" x="582" y="-348" font-family="Helvetica,sans-Serif" font-size="10.00">Sha1</text>
</a>
</g>
</g>
<!-- Node8&#45;&gt;Node9 -->
<g id="edge10" class="edge">
<title>Node8&#45;&gt;Node9</title>
<path fill="none" stroke="midnightblue" d="M440.59,-350.5C473.34,-350.5 521.62,-350.5 552.18,-350.5"/>
<polygon fill="midnightblue" stroke="midnightblue" points="552.19,-354 562.19,-350.5 552.19,-347 552.19,-354"/>
</g>
<!-- Node12 -->
<g id="node12" class="node">
<title>Node12</title>
<g id="a_node12"><a xlink:href="classsensesp_1_1_networking.html#ad75261059cb20d55e7cd2c58e8a06738" target="_top" xlink:title=" ">
<polygon fill="white" stroke="black" points="343.5,-49.5 343.5,-79.5 465.5,-79.5 465.5,-49.5 343.5,-49.5"/>
<text text-anchor="start" x="351.5" y="-67.5" font-family="Helvetica,sans-Serif" font-size="10.00">sensesp::Networking</text>
<text text-anchor="middle" x="404.5" y="-56.5" font-family="Helvetica,sans-Serif" font-size="10.00">::wifi_station_connected</text>
</a>
</g>
</g>
<!-- Node11&#45;&gt;Node12 -->
<g id="edge13" class="edge">
<title>Node11&#45;&gt;Node12</title>
<path fill="none" stroke="midnightblue" d="M273.66,-64.5C292.38,-64.5 313.51,-64.5 333.21,-64.5"/>
<polygon fill="midnightblue" stroke="midnightblue" points="333.36,-68 343.36,-64.5 333.36,-61 333.36,-68"/>
</g>
<!-- Node13 -->
<g id="node13" class="node">
<title>Node13</title>
<g id="a_node13"><a xlink:href="classsensesp_1_1_networking.html#af9ff6321d2bb209bd108e2304a8e0531" target="_top" xlink:title=" ">
<polygon fill="white" stroke="black" points="337,-0.5 337,-30.5 472,-30.5 472,-0.5 337,-0.5"/>
<text text-anchor="start" x="345" y="-18.5" font-family="Helvetica,sans-Serif" font-size="10.00">sensesp::Networking</text>
<text text-anchor="middle" x="404.5" y="-7.5" font-family="Helvetica,sans-Serif" font-size="10.00">::wifi_station_disconnected</text>
</a>
</g>
</g>
<!-- Node11&#45;&gt;Node13 -->
<g id="edge15" class="edge">
<title>Node11&#45;&gt;Node13</title>
<path fill="none" stroke="midnightblue" d="M273.66,-49.8C293.56,-44.54 316.18,-38.56 336.91,-33.09"/>
<polygon fill="midnightblue" stroke="midnightblue" points="337.82,-36.47 346.6,-30.53 336.04,-29.7 337.82,-36.47"/>
</g>
<!-- Node12&#45;&gt;Node2 -->
<g id="edge14" class="edge">
<title>Node12&#45;&gt;Node2</title>
<path fill="none" stroke="midnightblue" d="M465.9,-64.5C480.32,-64.5 495.83,-64.5 510.66,-64.5"/>
<polygon fill="midnightblue" stroke="midnightblue" points="510.79,-68 520.79,-64.5 510.79,-61 510.79,-68"/>
</g>
<!-- Node13&#45;&gt;Node2 -->
<g id="edge16" class="edge">
<title>Node13&#45;&gt;Node2</title>
<path fill="none" stroke="midnightblue" d="M459.59,-30.6C477.86,-35.7 498.42,-41.44 517.36,-46.73"/>
<polygon fill="midnightblue" stroke="midnightblue" points="516.52,-50.13 527.09,-49.45 518.4,-43.39 516.52,-50.13"/>
</g>
</g>
</svg>
