<?xml version="1.0" encoding="UTF-8" standalone="no"?>
<!DOCTYPE svg PUBLIC "-//W3C//DTD SVG 1.1//EN"
 "http://www.w3.org/Graphics/SVG/1.1/DTD/svg11.dtd">
<!-- Generated by graphviz version 5.0.0 (20220707.1540)
 -->
<!-- Title: sensesp::DigitalInputCounter Pages: 1 -->
<svg width="1058pt" height="156pt"
 viewBox="0.00 0.00 1058.00 156.08" xmlns="http://www.w3.org/2000/svg" xmlns:xlink="http://www.w3.org/1999/xlink">
<g id="graph0" class="graph" transform="scale(1 1) rotate(0) translate(4 152.08)">
<title>sensesp::DigitalInputCounter</title>
<polygon fill="white" stroke="transparent" points="-4,4 -4,-152.08 1054,-152.08 1054,4 -4,4"/>
<!-- Node1 -->
<g id="node1" class="node">
<title>Node1</title>
<g id="a_node1"><a xlink:title="DigitalInputCounter counts interrupts and reports the count every read_delay ms.">
<polygon fill="#bfbfbf" stroke="black" points="717,-88.5 717,-107.5 860,-107.5 860,-88.5 717,-88.5"/>
<text text-anchor="middle" x="788.5" y="-95.5" font-family="Helvetica,sans-Serif" font-size="10.00">sensesp::DigitalInputCounter</text>
</a>
</g>
</g>
<!-- Node12 -->
<g id="node12" class="node">
<title>Node12</title>
<g id="a_node12"><a xlink:href="classsensesp_1_1_digital_input_debounce_counter.html" target="_top" xlink:title="DigitalInputDebounceCounter counts interrupts and reports the count every read_delay ms,...">
<polygon fill="white" stroke="black" points="897,-83 897,-113 1050,-113 1050,-83 897,-83"/>
<text text-anchor="start" x="905" y="-101" font-family="Helvetica,sans-Serif" font-size="10.00">sensesp::DigitalInputDebounce</text>
<text text-anchor="middle" x="973.5" y="-90" font-family="Helvetica,sans-Serif" font-size="10.00">Counter</text>
</a>
</g>
</g>
<!-- Node1&#45;&gt;Node12 -->
<g id="edge15" class="edge">
<title>Node1&#45;&gt;Node12</title>
<path fill="none" stroke="midnightblue" d="M870.45,-98C879.21,-98 888.09,-98 896.78,-98"/>
<polygon fill="midnightblue" stroke="midnightblue" points="870.25,-94.5 860.25,-98 870.25,-101.5 870.25,-94.5"/>
</g>
<!-- Node2 -->
<g id="node2" class="node">
<title>Node2</title>
<g id="a_node2"><a xlink:href="classsensesp_1_1_digital_input.html" target="_top" xlink:title="DigitalInput is the base class for reading a digital GPIO pin.">
<polygon fill="white" stroke="black" points="563,-107.5 563,-126.5 672,-126.5 672,-107.5 563,-107.5"/>
<text text-anchor="middle" x="617.5" y="-114.5" font-family="Helvetica,sans-Serif" font-size="10.00">sensesp::DigitalInput</text>
</a>
</g>
</g>
<!-- Node2&#45;&gt;Node1 -->
<g id="edge1" class="edge">
<title>Node2&#45;&gt;Node1</title>
<path fill="none" stroke="midnightblue" d="M682.55,-109.8C693.74,-108.54 705.43,-107.23 716.79,-105.95"/>
<polygon fill="midnightblue" stroke="midnightblue" points="681.98,-106.34 672.44,-110.94 682.77,-113.3 681.98,-106.34"/>
</g>
<!-- Node3 -->
<g id="node3" class="node">
<title>Node3</title>
<g id="a_node3"><a xlink:href="classsensesp_1_1_sensor_t.html" target="_top" xlink:title=" ">
<polygon fill="white" stroke="black" points="555,-69.5 555,-88.5 680,-88.5 680,-69.5 555,-69.5"/>
<text text-anchor="middle" x="617.5" y="-76.5" font-family="Helvetica,sans-Serif" font-size="10.00">sensesp::SensorT&lt; int &gt;</text>
</a>
</g>
</g>
<!-- Node3&#45;&gt;Node1 -->
<g id="edge2" class="edge">
<title>Node3&#45;&gt;Node1</title>
<path fill="none" stroke="midnightblue" d="M690.61,-87.11C699.34,-88.09 708.26,-89.09 716.96,-90.07"/>
<polygon fill="midnightblue" stroke="midnightblue" points="690.8,-83.61 680.47,-85.97 690.02,-90.56 690.8,-83.61"/>
</g>
<!-- Node4 -->
<g id="node4" class="node">
<title>Node4</title>
<g id="a_node4"><a xlink:href="classsensesp_1_1_sensor.html" target="_top" xlink:title="The base class for all sensors. Used only as a base class &#45; never instantiated directly in a project.">
<polygon fill="white" stroke="black" points="179,-37.5 179,-56.5 269,-56.5 269,-37.5 179,-37.5"/>
<text text-anchor="middle" x="224" y="-44.5" font-family="Helvetica,sans-Serif" font-size="10.00">sensesp::Sensor</text>
</a>
</g>
</g>
<!-- Node4&#45;&gt;Node3 -->
<g id="edge3" class="edge">
<title>Node4&#45;&gt;Node3</title>
<path fill="none" stroke="midnightblue" d="M279.34,-48.17C332.4,-49.68 415.4,-52.99 487,-60 510.97,-62.35 537.29,-66.01 559.91,-69.49"/>
<polygon fill="midnightblue" stroke="midnightblue" points="279.23,-44.67 269.13,-47.9 279.04,-51.67 279.23,-44.67"/>
</g>
<!-- Node10 -->
<g id="node10" class="node">
<title>Node10</title>
<g id="a_node10"><a xlink:href="classsensesp_1_1_sensor_t.html" target="_top" xlink:title="Sensor template class for any sensor producing actual values.">
<polygon fill="white" stroke="black" points="366,-69.5 366,-88.5 486,-88.5 486,-69.5 366,-69.5"/>
<text text-anchor="middle" x="426" y="-76.5" font-family="Helvetica,sans-Serif" font-size="10.00">sensesp::SensorT&lt; T &gt;</text>
</a>
</g>
</g>
<!-- Node4&#45;&gt;Node10 -->
<g id="edge12" class="edge">
<title>Node4&#45;&gt;Node10</title>
<path fill="none" stroke="midnightblue" d="M279.36,-55.7C306.16,-59.99 338.53,-65.16 365.94,-69.55"/>
<polygon fill="midnightblue" stroke="midnightblue" points="279.81,-52.23 269.39,-54.1 278.71,-59.14 279.81,-52.23"/>
</g>
<!-- Node5 -->
<g id="node5" class="node">
<title>Node5</title>
<g id="a_node5"><a xlink:href="classsensesp_1_1_observable.html" target="_top" xlink:title="A base class which allow observers to attach callbacks to themselves. The callbacks will be called wh...">
<polygon fill="white" stroke="black" points="2.5,-100.5 2.5,-119.5 111.5,-119.5 111.5,-100.5 2.5,-100.5"/>
<text text-anchor="middle" x="57" y="-107.5" font-family="Helvetica,sans-Serif" font-size="10.00">sensesp::Observable</text>
</a>
</g>
</g>
<!-- Node5&#45;&gt;Node4 -->
<g id="edge4" class="edge">
<title>Node5&#45;&gt;Node4</title>
<path fill="none" stroke="midnightblue" d="M84.66,-95.78C102.96,-86.42 128,-74.4 151,-66 160.72,-62.45 171.39,-59.27 181.48,-56.57"/>
<polygon fill="midnightblue" stroke="midnightblue" points="83.02,-92.68 75.76,-100.39 86.24,-98.9 83.02,-92.68"/>
</g>
<!-- Node8 -->
<g id="node8" class="node">
<title>Node8</title>
<g id="a_node8"><a xlink:href="classsensesp_1_1_value_producer.html" target="_top" xlink:title=" ">
<polygon fill="white" stroke="black" points="365,-108 365,-138 487,-138 487,-108 365,-108"/>
<text text-anchor="start" x="373" y="-126" font-family="Helvetica,sans-Serif" font-size="10.00">sensesp::ValueProducer</text>
<text text-anchor="middle" x="426" y="-115" font-family="Helvetica,sans-Serif" font-size="10.00">&lt; int &gt;</text>
</a>
</g>
</g>
<!-- Node5&#45;&gt;Node8 -->
<g id="edge8" class="edge">
<title>Node5&#45;&gt;Node8</title>
<path fill="none" stroke="midnightblue" d="M88.58,-123.4C106.41,-130.47 129.54,-138.41 151,-142 223.9,-154.19 308.97,-144.65 364.75,-135.23"/>
<polygon fill="midnightblue" stroke="midnightblue" points="89.85,-120.13 79.27,-119.59 87.2,-126.61 89.85,-120.13"/>
</g>
<!-- Node9 -->
<g id="node9" class="node">
<title>Node9</title>
<g id="a_node9"><a xlink:href="classsensesp_1_1_value_producer.html" target="_top" xlink:title="A base class for any sensor or piece of code that outputs a value for consumption elsewhere.">
<polygon fill="white" stroke="black" points="151,-113.5 151,-132.5 297,-132.5 297,-113.5 151,-113.5"/>
<text text-anchor="middle" x="224" y="-120.5" font-family="Helvetica,sans-Serif" font-size="10.00">sensesp::ValueProducer&lt; T &gt;</text>
</a>
</g>
</g>
<!-- Node5&#45;&gt;Node9 -->
<g id="edge10" class="edge">
<title>Node5&#45;&gt;Node9</title>
<path fill="none" stroke="midnightblue" d="M121.73,-115.02C131.25,-115.77 141.12,-116.55 150.79,-117.31"/>
<polygon fill="midnightblue" stroke="midnightblue" points="121.81,-111.52 111.57,-114.22 121.26,-118.5 121.81,-111.52"/>
</g>
<!-- Node11 -->
<g id="node11" class="node">
<title>Node11</title>
<g id="a_node11"><a xlink:href="classsensesp_1_1_value_producer.html" target="_top" xlink:title="A base class for any sensor or piece of code that outputs a value for consumption elsewhere.">
<polygon fill="white" stroke="black" points="151,-75.5 151,-94.5 297,-94.5 297,-75.5 151,-75.5"/>
<text text-anchor="middle" x="224" y="-82.5" font-family="Helvetica,sans-Serif" font-size="10.00">sensesp::ValueProducer&lt; T &gt;</text>
</a>
</g>
</g>
<!-- Node5&#45;&gt;Node11 -->
<g id="edge14" class="edge">
<title>Node5&#45;&gt;Node11</title>
<path fill="none" stroke="midnightblue" d="M121.58,-100.37C134.26,-98.45 147.57,-96.43 160.22,-94.51"/>
<polygon fill="midnightblue" stroke="midnightblue" points="120.93,-96.92 111.57,-101.88 121.98,-103.85 120.93,-96.92"/>
</g>
<!-- Node6 -->
<g id="node6" class="node">
<title>Node6</title>
<g id="a_node6"><a xlink:href="classsensesp_1_1_configurable.html" target="_top" xlink:title="An object that is capable of having configuration data that can be set remotely using a RESTful API,...">
<polygon fill="white" stroke="black" points="0,-38.5 0,-57.5 114,-57.5 114,-38.5 0,-38.5"/>
<text text-anchor="middle" x="57" y="-45.5" font-family="Helvetica,sans-Serif" font-size="10.00">sensesp::Configurable</text>
</a>
</g>
</g>
<!-- Node6&#45;&gt;Node4 -->
<g id="edge5" class="edge">
<title>Node6&#45;&gt;Node4</title>
<path fill="none" stroke="midnightblue" d="M124.37,-47.6C142.72,-47.49 162.17,-47.37 178.9,-47.27"/>
<polygon fill="midnightblue" stroke="midnightblue" points="124.3,-44.1 114.32,-47.66 124.34,-51.1 124.3,-44.1"/>
</g>
<!-- Node7 -->
<g id="node7" class="node">
<title>Node7</title>
<g id="a_node7"><a xlink:href="classsensesp_1_1_startable.html" target="_top" xlink:title="Automatic calling of the start() method at startup.">
<polygon fill="white" stroke="black" points="8,-0.5 8,-19.5 106,-19.5 106,-0.5 8,-0.5"/>
<text text-anchor="middle" x="57" y="-7.5" font-family="Helvetica,sans-Serif" font-size="10.00">sensesp::Startable</text>
</a>
</g>
</g>
<!-- Node7&#45;&gt;Node4 -->
<g id="edge6" class="edge">
<title>Node7&#45;&gt;Node4</title>
<path fill="none" stroke="midnightblue" d="M110.27,-21.72C132.86,-26.79 158.97,-32.64 180.37,-37.44"/>
<polygon fill="midnightblue" stroke="midnightblue" points="111.02,-18.3 100.49,-19.53 109.48,-25.13 111.02,-18.3"/>
</g>
<!-- Node8&#45;&gt;Node3 -->
<g id="edge7" class="edge">
<title>Node8&#45;&gt;Node3</title>
<path fill="none" stroke="midnightblue" d="M497.15,-106.71C523.46,-100.6 552.48,-93.86 575.32,-88.56"/>
<polygon fill="midnightblue" stroke="midnightblue" points="496.17,-103.35 487.22,-109.02 497.75,-110.17 496.17,-103.35"/>
</g>
<!-- Node9&#45;&gt;Node8 -->
<g id="edge9" class="edge">
<title>Node9&#45;&gt;Node8</title>
<path fill="none" stroke="orange" stroke-dasharray="5,2" d="M307.45,-123C326.64,-123 346.73,-123 364.76,-123"/>
<polygon fill="orange" stroke="orange" points="307.2,-119.5 297.2,-123 307.2,-126.5 307.2,-119.5"/>
<text text-anchor="middle" x="331" y="-126" font-family="Helvetica,sans-Serif" font-size="10.00"> &lt; int &gt;</text>
</g>
<!-- Node10&#45;&gt;Node3 -->
<g id="edge11" class="edge">
<title>Node10&#45;&gt;Node3</title>
<path fill="none" stroke="orange" stroke-dasharray="5,2" d="M496.34,-79C515.49,-79 536.14,-79 554.82,-79"/>
<polygon fill="orange" stroke="orange" points="496.18,-75.5 486.18,-79 496.18,-82.5 496.18,-75.5"/>
<text text-anchor="middle" x="521" y="-82" font-family="Helvetica,sans-Serif" font-size="10.00"> &lt; int &gt;</text>
</g>
<!-- Node11&#45;&gt;Node10 -->
<g id="edge13" class="edge">
<title>Node11&#45;&gt;Node10</title>
<path fill="none" stroke="midnightblue" d="M307.34,-82.53C326.91,-81.94 347.41,-81.33 365.72,-80.78"/>
<polygon fill="midnightblue" stroke="midnightblue" points="307.1,-79.04 297.2,-82.83 307.31,-86.03 307.1,-79.04"/>
</g>
</g>
</svg>
