<?xml version="1.0" encoding="UTF-8" standalone="no"?>
<!DOCTYPE svg PUBLIC "-//W3C//DTD SVG 1.1//EN"
 "http://www.w3.org/Graphics/SVG/1.1/DTD/svg11.dtd">
<!-- Generated by graphviz version 12.1.0 (20240811.2233)
 -->
<!-- Title: sensesp::ClickType Pages: 1 -->
<svg width="1207pt" height="207pt"
 viewBox="0.00 0.00 1206.50 206.88" xmlns="http://www.w3.org/2000/svg" xmlns:xlink="http://www.w3.org/1999/xlink">
<g id="graph0" class="graph" transform="scale(1 1) rotate(0) translate(4 202.88)">
<title>sensesp::ClickType</title>
<!-- Node1 -->
<g id="Node000001" class="node">
<title>Node1</title>
<g id="a_Node000001"><a xlink:title="ClickType is a transform that consumes button clicks and translates them as events of type ClickTypes...">
<polygon fill="#999999" stroke="#666666" points="1198.5,-124.88 1096.25,-124.88 1096.25,-105.62 1198.5,-105.62 1198.5,-124.88"/>
<text text-anchor="middle" x="1147.38" y="-111.38" font-family="Helvetica,sans-Serif" font-size="10.00">sensesp::ClickType</text>
</a>
</g>
</g>
<!-- Node2 -->
<g id="Node000002" class="node">
<title>Node2</title>
<g id="a_Node000002"><a xlink:href="classsensesp_1_1_transform.html" target="_top" xlink:title=" ">
<polygon fill="white" stroke="#666666" points="1059.25,-130.5 952.5,-130.5 952.5,-100 1059.25,-100 1059.25,-130.5"/>
<text text-anchor="start" x="960.5" y="-117" font-family="Helvetica,sans-Serif" font-size="10.00">sensesp::Transform</text>
<text text-anchor="middle" x="1005.88" y="-105.75" font-family="Helvetica,sans-Serif" font-size="10.00">&lt; bool, ClickTypes &gt;</text>
</a>
</g>
</g>
<!-- Node2&#45;&gt;Node1 -->
<g id="edge1_Node000001_Node000002" class="edge">
<title>Node2&#45;&gt;Node1</title>
<g id="a_edge1_Node000001_Node000002"><a xlink:title=" ">
<path fill="none" stroke="#63b8ff" d="M1070.91,-115.25C1079.28,-115.25 1087.76,-115.25 1095.87,-115.25"/>
<polygon fill="#63b8ff" stroke="#63b8ff" points="1071.13,-111.75 1061.13,-115.25 1071.13,-118.75 1071.13,-111.75"/>
</a>
</g>
</g>
<!-- Node3 -->
<g id="Node000003" class="node">
<title>Node3</title>
<g id="a_Node000003"><a xlink:href="classsensesp_1_1_transform_base.html" target="_top" xlink:title="The base class for all transforms. A transforms takes a value in, transforms it in some way,...">
<polygon fill="white" stroke="#666666" points="542.12,-198.88 416.62,-198.88 416.62,-179.62 542.12,-179.62 542.12,-198.88"/>
<text text-anchor="middle" x="479.38" y="-185.38" font-family="Helvetica,sans-Serif" font-size="10.00">sensesp::TransformBase</text>
</a>
</g>
</g>
<!-- Node3&#45;&gt;Node2 -->
<g id="edge2_Node000002_Node000003" class="edge">
<title>Node3&#45;&gt;Node2</title>
<g id="a_edge2_Node000002_Node000003"><a xlink:title=" ">
<path fill="none" stroke="#63b8ff" d="M553.84,-192C645.14,-193.35 804.73,-188.84 934.5,-149.25 949.3,-144.74 964.87,-137.5 977.59,-130.86"/>
<polygon fill="#63b8ff" stroke="#63b8ff" points="554.08,-188.51 544.02,-191.83 553.96,-195.5 554.08,-188.51"/>
</a>
</g>
</g>
<!-- Node10 -->
<g id="Node000010" class="node">
<title>Node10</title>
<g id="a_Node000010"><a xlink:href="classsensesp_1_1_transform.html" target="_top" xlink:title="The main Transform class. A transform is identified primarily by the type of value that is produces (...">
<polygon fill="white" stroke="#666666" points="822.75,-156.5 719.75,-156.5 719.75,-126 822.75,-126 822.75,-156.5"/>
<text text-anchor="start" x="727.75" y="-143" font-family="Helvetica,sans-Serif" font-size="10.00">sensesp::Transform</text>
<text text-anchor="middle" x="771.25" y="-131.75" font-family="Helvetica,sans-Serif" font-size="10.00">&lt; C, P &gt;</text>
</a>
</g>
</g>
<!-- Node3&#45;&gt;Node10 -->
<g id="edge11_Node000010_Node000003" class="edge">
<title>Node3&#45;&gt;Node10</title>
<g id="a_edge11_Node000010_Node000003"><a xlink:title=" ">
<path fill="none" stroke="#63b8ff" d="M553.68,-177.56C596.82,-170.62 652.41,-161.58 701.75,-153.25 707.46,-152.28 713.44,-151.26 719.39,-150.23"/>
<polygon fill="#63b8ff" stroke="#63b8ff" points="553.25,-174.08 543.93,-179.13 554.36,-181 553.25,-174.08"/>
</a>
</g>
</g>
<!-- Node4 -->
<g id="Node000004" class="node">
<title>Node4</title>
<g id="a_Node000004"><a xlink:href="classsensesp_1_1_configurable.html" target="_top" xlink:title="An object that is capable of having configuration data that can be set remotely using a RESTful API,...">
<polygon fill="white" stroke="#666666" points="277.88,-198.88 164.38,-198.88 164.38,-179.62 277.88,-179.62 277.88,-198.88"/>
<text text-anchor="middle" x="221.12" y="-185.38" font-family="Helvetica,sans-Serif" font-size="10.00">sensesp::Configurable</text>
</a>
</g>
</g>
<!-- Node4&#45;&gt;Node3 -->
<g id="edge3_Node000003_Node000004" class="edge">
<title>Node4&#45;&gt;Node3</title>
<g id="a_edge3_Node000003_Node000004"><a xlink:title=" ">
<path fill="none" stroke="#63b8ff" d="M289.69,-189.25C328.98,-189.25 378.15,-189.25 416.44,-189.25"/>
<polygon fill="#63b8ff" stroke="#63b8ff" points="289.87,-185.75 279.87,-189.25 289.87,-192.75 289.87,-185.75"/>
</a>
</g>
</g>
<!-- Node5 -->
<g id="Node000005" class="node">
<title>Node5</title>
<g id="a_Node000005"><a xlink:href="classsensesp_1_1_value_consumer.html" target="_top" xlink:title=" ">
<polygon fill="white" stroke="#666666" points="701.75,-102.5 574,-102.5 574,-72 701.75,-72 701.75,-102.5"/>
<text text-anchor="start" x="582" y="-89" font-family="Helvetica,sans-Serif" font-size="10.00">sensesp::ValueConsumer</text>
<text text-anchor="middle" x="637.88" y="-77.75" font-family="Helvetica,sans-Serif" font-size="10.00">&lt; bool &gt;</text>
</a>
</g>
</g>
<!-- Node5&#45;&gt;Node2 -->
<g id="edge4_Node000002_Node000005" class="edge">
<title>Node5&#45;&gt;Node2</title>
<g id="a_edge4_Node000002_Node000005"><a xlink:title=" ">
<path fill="none" stroke="#63b8ff" d="M713.29,-92.94C784.26,-98.37 889.36,-106.41 952.1,-111.21"/>
<polygon fill="#63b8ff" stroke="#63b8ff" points="713.96,-89.48 703.72,-92.21 713.42,-96.46 713.96,-89.48"/>
</a>
</g>
</g>
<!-- Node6 -->
<g id="Node000006" class="node">
<title>Node6</title>
<g id="a_Node000006"><a xlink:href="classsensesp_1_1_value_consumer.html" target="_top" xlink:title="A base class for piece of code (like a transform) that accepts data for input. ValueConsumers can acc...">
<polygon fill="white" stroke="#666666" points="297,-145.88 145.25,-145.88 145.25,-126.62 297,-126.62 297,-145.88"/>
<text text-anchor="middle" x="221.12" y="-132.38" font-family="Helvetica,sans-Serif" font-size="10.00">sensesp::ValueConsumer&lt; T &gt;</text>
</a>
</g>
</g>
<!-- Node6&#45;&gt;Node5 -->
<g id="edge5_Node000005_Node000006" class="edge">
<title>Node6&#45;&gt;Node5</title>
<g id="a_edge5_Node000005_Node000006"><a xlink:title=" ">
<path fill="none" stroke="orange" stroke-dasharray="5,2" d="M308.76,-125.75C310.86,-125.49 312.94,-125.25 315,-125 404.81,-114.29 508.74,-102.15 573.65,-94.59"/>
<polygon fill="orange" stroke="orange" points="308.41,-122.26 298.9,-126.93 309.24,-129.21 308.41,-122.26"/>
</a>
</g>
<text text-anchor="middle" x="349.88" y="-126.75" font-family="Helvetica,sans-Serif" font-size="10.00" fill="grey"> &lt; bool &gt;</text>
</g>
<!-- Node11 -->
<g id="Node000011" class="node">
<title>Node11</title>
<g id="a_Node000011"><a xlink:href="classsensesp_1_1_value_consumer.html" target="_top" xlink:title=" ">
<polygon fill="white" stroke="#666666" points="556,-155.88 402.75,-155.88 402.75,-136.62 556,-136.62 556,-155.88"/>
<text text-anchor="middle" x="479.38" y="-142.38" font-family="Helvetica,sans-Serif" font-size="10.00">sensesp::ValueConsumer&lt; C &gt;</text>
</a>
</g>
</g>
<!-- Node6&#45;&gt;Node11 -->
<g id="edge13_Node000011_Node000006" class="edge">
<title>Node6&#45;&gt;Node11</title>
<g id="a_edge13_Node000011_Node000006"><a xlink:title=" ">
<path fill="none" stroke="orange" stroke-dasharray="5,2" d="M308.72,-139.63C339.08,-140.81 372.91,-142.13 402.34,-143.28"/>
<polygon fill="orange" stroke="orange" points="308.92,-136.13 298.79,-139.24 308.65,-143.13 308.92,-136.13"/>
</a>
</g>
<text text-anchor="middle" x="349.88" y="-144.19" font-family="Helvetica,sans-Serif" font-size="10.00" fill="grey"> &lt; C &gt;</text>
</g>
<!-- Node7 -->
<g id="Node000007" class="node">
<title>Node7</title>
<g id="a_Node000007"><a xlink:href="classsensesp_1_1_value_producer.html" target="_top" xlink:title=" ">
<polygon fill="white" stroke="#666666" points="540.25,-30.5 418.5,-30.5 418.5,0 540.25,0 540.25,-30.5"/>
<text text-anchor="start" x="426.5" y="-17" font-family="Helvetica,sans-Serif" font-size="10.00">sensesp::ValueProducer</text>
<text text-anchor="middle" x="479.38" y="-5.75" font-family="Helvetica,sans-Serif" font-size="10.00">&lt; ClickTypes &gt;</text>
</a>
</g>
</g>
<!-- Node7&#45;&gt;Node2 -->
<g id="edge6_Node000002_Node000007" class="edge">
<title>Node7&#45;&gt;Node2</title>
<g id="a_edge6_Node000002_Node000007"><a xlink:title=" ">
<path fill="none" stroke="#63b8ff" d="M551.5,-27.48C641.05,-43.1 799.51,-71.43 934.5,-99.25 940.27,-100.44 946.29,-101.73 952.28,-103.05"/>
<polygon fill="#63b8ff" stroke="#63b8ff" points="552.34,-24.08 541.89,-25.81 551.14,-30.97 552.34,-24.08"/>
</a>
</g>
</g>
<!-- Node8 -->
<g id="Node000008" class="node">
<title>Node8</title>
<g id="a_Node000008"><a xlink:href="classsensesp_1_1_observable.html" target="_top" xlink:title="A base class which allow observers to attach callbacks to themselves. The callbacks will be called wh...">
<polygon fill="white" stroke="#666666" points="108.25,-37.88 0,-37.88 0,-18.62 108.25,-18.62 108.25,-37.88"/>
<text text-anchor="middle" x="54.12" y="-24.38" font-family="Helvetica,sans-Serif" font-size="10.00">sensesp::Observable</text>
</a>
</g>
</g>
<!-- Node8&#45;&gt;Node7 -->
<g id="edge7_Node000007_Node000008" class="edge">
<title>Node8&#45;&gt;Node7</title>
<g id="a_edge7_Node000007_Node000008"><a xlink:title=" ">
<path fill="none" stroke="#63b8ff" d="M105.37,-15.73C118.28,-13.05 132.21,-10.61 145.25,-9.25 240.18,0.65 351.12,-4.71 418.01,-9.76"/>
<polygon fill="#63b8ff" stroke="#63b8ff" points="104.83,-12.27 95.81,-17.81 106.32,-19.11 104.83,-12.27"/>
</a>
</g>
</g>
<!-- Node9 -->
<g id="Node000009" class="node">
<title>Node9</title>
<g id="a_Node000009"><a xlink:href="classsensesp_1_1_value_producer.html" target="_top" xlink:title="A base class for any sensor or piece of code that outputs a value for consumption elsewhere.">
<polygon fill="white" stroke="#666666" points="294,-37.88 148.25,-37.88 148.25,-18.62 294,-18.62 294,-37.88"/>
<text text-anchor="middle" x="221.12" y="-24.38" font-family="Helvetica,sans-Serif" font-size="10.00">sensesp::ValueProducer&lt; T &gt;</text>
</a>
</g>
</g>
<!-- Node8&#45;&gt;Node9 -->
<g id="edge9_Node000009_Node000008" class="edge">
<title>Node8&#45;&gt;Node9</title>
<g id="a_edge9_Node000009_Node000008"><a xlink:title=" ">
<path fill="none" stroke="#63b8ff" d="M120.08,-28.25C129.21,-28.25 138.65,-28.25 147.92,-28.25"/>
<polygon fill="#63b8ff" stroke="#63b8ff" points="120.21,-24.75 110.21,-28.25 120.21,-31.75 120.21,-24.75"/>
</a>
</g>
</g>
<!-- Node12 -->
<g id="Node000012" class="node">
<title>Node12</title>
<g id="a_Node000012"><a xlink:href="classsensesp_1_1_value_producer.html" target="_top" xlink:title=" ">
<polygon fill="white" stroke="#666666" points="552.62,-79.88 406.12,-79.88 406.12,-60.62 552.62,-60.62 552.62,-79.88"/>
<text text-anchor="middle" x="479.38" y="-66.38" font-family="Helvetica,sans-Serif" font-size="10.00">sensesp::ValueProducer&lt; P &gt;</text>
</a>
</g>
</g>
<!-- Node8&#45;&gt;Node12 -->
<g id="edge15_Node000012_Node000008" class="edge">
<title>Node8&#45;&gt;Node12</title>
<g id="a_edge15_Node000012_Node000008"><a xlink:title=" ">
<path fill="none" stroke="#63b8ff" d="M108.77,-40.71C120.73,-43.17 133.38,-45.52 145.25,-47.25 234.45,-60.28 338.2,-65.97 405.91,-68.42"/>
<polygon fill="#63b8ff" stroke="#63b8ff" points="109.55,-37.3 99.05,-38.65 108.1,-44.15 109.55,-37.3"/>
</a>
</g>
</g>
<!-- Node9&#45;&gt;Node7 -->
<g id="edge8_Node000007_Node000009" class="edge">
<title>Node9&#45;&gt;Node7</title>
<g id="a_edge8_Node000007_Node000009"><a xlink:title=" ">
<path fill="none" stroke="orange" stroke-dasharray="5,2" d="M302.49,-17.01C306.72,-16.62 310.91,-16.28 315,-16 349.1,-13.68 387.3,-13.38 418.18,-13.71"/>
<polygon fill="orange" stroke="orange" points="302.36,-13.51 292.76,-18 303.06,-20.47 302.36,-13.51"/>
</a>
</g>
<text text-anchor="middle" x="349.88" y="-17.75" font-family="Helvetica,sans-Serif" font-size="10.00" fill="grey"> &lt; ClickTypes &gt;</text>
</g>
<!-- Node9&#45;&gt;Node12 -->
<g id="edge16_Node000012_Node000009" class="edge">
<title>Node9&#45;&gt;Node12</title>
<g id="a_edge16_Node000012_Node000009"><a xlink:title=" ">
<path fill="none" stroke="orange" stroke-dasharray="5,2" d="M305.5,-38.1C331,-41.46 359.09,-45.52 384.75,-50 401.3,-52.89 419.36,-56.65 435.17,-60.15"/>
<polygon fill="orange" stroke="orange" points="306.23,-34.66 295.87,-36.85 305.33,-41.61 306.23,-34.66"/>
</a>
</g>
<text text-anchor="middle" x="349.88" y="-51.75" font-family="Helvetica,sans-Serif" font-size="10.00" fill="grey"> &lt; P &gt;</text>
</g>
<!-- Node10&#45;&gt;Node2 -->
<g id="edge10_Node000002_Node000010" class="edge">
<title>Node10&#45;&gt;Node2</title>
<g id="a_edge10_Node000002_Node000010"><a xlink:title=" ">
<path fill="none" stroke="orange" stroke-dasharray="5,2" d="M834.11,-134.34C870.93,-130.22 917.14,-125.06 952.2,-121.14"/>
<polygon fill="orange" stroke="orange" points="834.07,-130.82 824.52,-135.41 834.84,-137.78 834.07,-130.82"/>
</a>
</g>
<text text-anchor="middle" x="887.62" y="-135.32" font-family="Helvetica,sans-Serif" font-size="10.00" fill="grey"> &lt; bool, ClickTypes &gt;</text>
</g>
<!-- Node11&#45;&gt;Node10 -->
<g id="edge12_Node000010_Node000011" class="edge">
<title>Node11&#45;&gt;Node10</title>
<g id="a_edge12_Node000010_Node000011"><a xlink:title=" ">
<path fill="none" stroke="#63b8ff" d="M567.55,-144.75C617.19,-143.89 677.63,-142.85 719.54,-142.12"/>
<polygon fill="#63b8ff" stroke="#63b8ff" points="567.61,-141.24 557.67,-144.92 567.73,-148.24 567.61,-141.24"/>
</a>
</g>
</g>
<!-- Node12&#45;&gt;Node10 -->
<g id="edge14_Node000010_Node000012" class="edge">
<title>Node12&#45;&gt;Node10</title>
<g id="a_edge14_Node000010_Node000012"><a xlink:title=" ">
<path fill="none" stroke="#63b8ff" d="M516.22,-84.28C533.5,-90.69 554.63,-97.99 574,-103.25 622.73,-116.48 679.46,-126.94 719.36,-133.52"/>
<polygon fill="#63b8ff" stroke="#63b8ff" points="517.5,-81.02 506.9,-80.77 515.03,-87.57 517.5,-81.02"/>
</a>
</g>
</g>
</g>
</svg>
