<?xml version="1.0" encoding="UTF-8" standalone="no"?>
<!DOCTYPE svg PUBLIC "-//W3C//DTD SVG 1.1//EN"
 "http://www.w3.org/Graphics/SVG/1.1/DTD/svg11.dtd">
<!-- Generated by graphviz version 14.1.4 (20260321.0153)
 -->
<!-- Title: sensesp::CheckboxConfig::CheckboxConfig Pages: 1 -->
<!--zoomable 137 -->

<svg id="main" version="1.1" xmlns="http://www.w3.org/2000/svg" xmlns:xlink="http://www.w3.org/1999/xlink" xml:space="preserve" onload="init(evt)">

<style type="text/css"><![CDATA[
.node, .edge {opacity: 0.7;}
.node.selected, .edge.selected {opacity: 1;}
.edge:hover path { stroke: red; }
.edge:hover polygon { stroke: red; fill: red; }
]]></style>

<defs>
  <circle id="rim" cx="0" cy="0" r="7"/>
  <circle id="rim2" cx="0" cy="0" r="3.5"/>
  <g id="zoomPlus">
    <use xlink:href="#rim" fill="#404040"><set attributeName="fill" to="#808080" begin="zoomplus.mouseover" end="zoomplus.mouseout"/></use>
    <path d="M-4,0h8M0,-4v8" fill="none" stroke="white" stroke-width="1.5" pointer-events="none"/>
  </g>
  <g id="zoomMin">
    <use xlink:href="#rim" fill="#404040"><set attributeName="fill" to="#808080" begin="zoomminus.mouseover" end="zoomminus.mouseout"/></use>
    <path d="M-4,0h8" fill="none" stroke="white" stroke-width="1.5" pointer-events="none"/>
  </g>
  <g id="arrowUp" transform="translate(30 24)">
    <use xlink:href="#rim"/>
    <path pointer-events="none" fill="none" stroke="white" stroke-width="1.5" d="M0,-3.0v7 M-2.5,-0.5L0,-3.0L2.5,-0.5"/>
  </g>
  <g id="arrowRight" transform="rotate(90) translate(36 -43)">
    <use xlink:href="#rim"/>
    <path pointer-events="none" fill="none" stroke="white" stroke-width="1.5" d="M0,-3.0v7 M-2.5,-0.5L0,-3.0L2.5,-0.5"/>
  </g>
  <g id="arrowDown" transform="rotate(180) translate(-30 -48)">
    <use xlink:href="#rim"/>
    <path pointer-events="none" fill="none" stroke="white" stroke-width="1.5" d="M0,-3.0v7 M-2.5,-0.5L0,-3.0L2.5,-0.5"/>
  </g>
  <g id="arrowLeft" transform="rotate(270) translate(-36 17)">
    <use xlink:href="#rim"/>
    <path pointer-events="none" fill="none" stroke="white" stroke-width="1.5" d="M0,-3.0v7 M-2.5,-0.5L0,-3.0L2.5,-0.5"/>
  </g>
  <g id="resetDef">
    <use xlink:href="#rim2" fill="#404040"><set attributeName="fill" to="#808080" begin="reset.mouseover" end="reset.mouseout"/></use>
  </g>
</defs>
<script type="application/ecmascript">
var viewWidth = 777;
var viewHeight = 137;
var sectionId = 'dynsection-1';
</script>
<script type="application/ecmascript" xlink:href="svg.min.js"/>
<svg id="graph" class="graph">
<g id="viewport">
<title>sensesp::CheckboxConfig::CheckboxConfig</title>
<!-- Node1 -->
<g id="Node000001" class="node">
<title>Node1</title>
<g id="a_Node000001"><a xlink:title=" ">
<polygon fill="#999999" stroke="#666666" points="131.5,-103.5 0,-103.5 0,-73 131.5,-73 131.5,-103.5"/>
<text xml:space="preserve" text-anchor="start" x="8" y="-90" font-family="Helvetica,sans-Serif" font-size="10.00">sensesp::CheckboxConfig</text>
<text xml:space="preserve" text-anchor="middle" x="65.75" y="-78.75" font-family="Helvetica,sans-Serif" font-size="10.00">::CheckboxConfig</text>
</a>
</g>
</g>
<!-- Node2 -->
<g id="Node000002" class="node">
<title>Node2</title>
<g id="a_Node000002"><a xlink:href="classsensesp_1_1_file_system_saveable.html#a974f062b375cf8637944f121084cf9f7" target="_top" xlink:title=" ">
<polygon fill="white" stroke="#666666" points="316.25,-128.5 167.5,-128.5 167.5,-98 316.25,-98 316.25,-128.5"/>
<text xml:space="preserve" text-anchor="start" x="175.5" y="-115" font-family="Helvetica,sans-Serif" font-size="10.00">sensesp::FileSystemSaveable</text>
<text xml:space="preserve" text-anchor="middle" x="241.88" y="-103.75" font-family="Helvetica,sans-Serif" font-size="10.00">::FileSystemSaveable</text>
</a>
</g>
</g>
<!-- Node1&#45;&gt;Node2 -->
<g id="edge1_Node000001_Node000002" class="edge">
<title>Node1&#45;&gt;Node2</title>
<g id="a_edge1_Node000001_Node000002"><a xlink:title=" ">
<path fill="none" stroke="#63b8ff" d="M131.59,-97.56C139.56,-98.7 147.81,-99.89 156.03,-101.07"/>
<polygon fill="#63b8ff" stroke="#63b8ff" points="155.29,-104.5 165.69,-102.46 156.29,-97.57 155.29,-104.5"/>
</a>
</g>
</g>
<!-- Node4 -->
<g id="Node000004" class="node">
<title>Node4</title>
<g id="a_Node000004"><a xlink:href="classsensesp_1_1_file_system_saveable.html#a79b2e2e657112851dfda8785d217578a" target="_top" xlink:title="Load and populate the object from a persistent storage.">
<polygon fill="white" stroke="#666666" points="316.25,-79.5 167.5,-79.5 167.5,-49 316.25,-49 316.25,-79.5"/>
<text xml:space="preserve" text-anchor="start" x="175.5" y="-66" font-family="Helvetica,sans-Serif" font-size="10.00">sensesp::FileSystemSaveable</text>
<text xml:space="preserve" text-anchor="middle" x="241.88" y="-54.75" font-family="Helvetica,sans-Serif" font-size="10.00">::load</text>
</a>
</g>
</g>
<!-- Node1&#45;&gt;Node4 -->
<g id="edge3_Node000001_Node000004" class="edge">
<title>Node1&#45;&gt;Node4</title>
<g id="a_edge3_Node000001_Node000004"><a xlink:title=" ">
<path fill="none" stroke="#63b8ff" d="M131.59,-79.31C139.56,-78.21 147.81,-77.08 156.03,-75.94"/>
<polygon fill="#63b8ff" stroke="#63b8ff" points="156.26,-79.45 165.69,-74.61 155.3,-72.51 156.26,-79.45"/>
</a>
</g>
</g>
<!-- Node3 -->
<g id="Node000003" class="node">
<title>Node3</title>
<g id="a_Node000003"><a xlink:href="classsensesp_1_1_saveable.html#abaa7864f4f35be033ad5f32a379051d7" target="_top" xlink:title=" ">
<polygon fill="white" stroke="#666666" points="479.25,-128.5 374,-128.5 374,-98 479.25,-98 479.25,-128.5"/>
<text xml:space="preserve" text-anchor="start" x="382" y="-115" font-family="Helvetica,sans-Serif" font-size="10.00">sensesp::Saveable::</text>
<text xml:space="preserve" text-anchor="middle" x="426.62" y="-103.75" font-family="Helvetica,sans-Serif" font-size="10.00">Saveable</text>
</a>
</g>
</g>
<!-- Node2&#45;&gt;Node3 -->
<g id="edge2_Node000002_Node000003" class="edge">
<title>Node2&#45;&gt;Node3</title>
<g id="a_edge2_Node000002_Node000003"><a xlink:title=" ">
<path fill="none" stroke="#63b8ff" d="M316.68,-113.25C331.92,-113.25 347.83,-113.25 362.64,-113.25"/>
<polygon fill="#63b8ff" stroke="#63b8ff" points="362.2,-116.75 372.2,-113.25 362.2,-109.75 362.2,-116.75"/>
</a>
</g>
</g>
<!-- Node5 -->
<g id="Node000005" class="node">
<title>Node5</title>
<g id="a_Node000005"><a xlink:href="classsensesp_1_1_file_system_saveable.html#ad0233f7895b5c8915108399420c7cf0b" target="_top" xlink:title=" ">
<polygon fill="white" stroke="#666666" points="501,-79.5 352.25,-79.5 352.25,-49 501,-49 501,-79.5"/>
<text xml:space="preserve" text-anchor="start" x="360.25" y="-66" font-family="Helvetica,sans-Serif" font-size="10.00">sensesp::FileSystemSaveable</text>
<text xml:space="preserve" text-anchor="middle" x="426.62" y="-54.75" font-family="Helvetica,sans-Serif" font-size="10.00">::find_config_file</text>
</a>
</g>
</g>
<!-- Node4&#45;&gt;Node5 -->
<g id="edge4_Node000004_Node000005" class="edge">
<title>Node4&#45;&gt;Node5</title>
<g id="a_edge4_Node000004_Node000005"><a xlink:title=" ">
<path fill="none" stroke="#63b8ff" d="M316.68,-64.25C324.47,-64.25 332.43,-64.25 340.33,-64.25"/>
<polygon fill="#63b8ff" stroke="#63b8ff" points="340.33,-67.75 350.33,-64.25 340.33,-60.75 340.33,-67.75"/>
</a>
</g>
</g>
<!-- Node8 -->
<g id="Node000008" class="node">
<title>Node8</title>
<g id="a_Node000008"><a xlink:href="classsensesp_1_1_serializable.html#a841233a82ef3a7fbcecd5a15b0df12d2" target="_top" xlink:title=" ">
<polygon fill="white" stroke="#666666" points="481.12,-30.5 372.12,-30.5 372.12,0 481.12,0 481.12,-30.5"/>
<text xml:space="preserve" text-anchor="start" x="380.12" y="-17" font-family="Helvetica,sans-Serif" font-size="10.00">sensesp::Serializable</text>
<text xml:space="preserve" text-anchor="middle" x="426.62" y="-5.75" font-family="Helvetica,sans-Serif" font-size="10.00">::from_json</text>
</a>
</g>
</g>
<!-- Node4&#45;&gt;Node8 -->
<g id="edge7_Node000004_Node000008" class="edge">
<title>Node4&#45;&gt;Node8</title>
<g id="a_edge7_Node000004_Node000008"><a xlink:title=" ">
<path fill="none" stroke="#63b8ff" d="M301.45,-48.54C320.39,-43.47 341.5,-37.81 360.86,-32.62"/>
<polygon fill="#63b8ff" stroke="#63b8ff" points="361.5,-36.07 370.26,-30.1 359.69,-29.31 361.5,-36.07"/>
</a>
</g>
</g>
<!-- Node6 -->
<g id="Node000006" class="node">
<title>Node6</title>
<g id="a_Node000006"><a xlink:href="namespacesensesp.html#adad24461f43358c45017cf1cb816ca60" target="_top" xlink:title="A base64&#45;encoded SHA&#45;1 hash function.">
<polygon fill="white" stroke="#666666" points="651.25,-73.88 537,-73.88 537,-54.62 651.25,-54.62 651.25,-73.88"/>
<text xml:space="preserve" text-anchor="middle" x="594.12" y="-60.38" font-family="Helvetica,sans-Serif" font-size="10.00">sensesp::Base64Sha1</text>
</a>
</g>
</g>
<!-- Node5&#45;&gt;Node6 -->
<g id="edge5_Node000005_Node000006" class="edge">
<title>Node5&#45;&gt;Node6</title>
<g id="a_edge5_Node000005_Node000006"><a xlink:title=" ">
<path fill="none" stroke="#63b8ff" d="M501.18,-64.25C509.18,-64.25 517.3,-64.25 525.24,-64.25"/>
<polygon fill="#63b8ff" stroke="#63b8ff" points="525.17,-67.75 535.17,-64.25 525.17,-60.75 525.17,-67.75"/>
</a>
</g>
</g>
<!-- Node7 -->
<g id="Node000007" class="node">
<title>Node7</title>
<g id="a_Node000007"><a xlink:href="namespacesensesp.html#a37dfeb5f75b7115464a9aa40473d69cf" target="_top" xlink:title="SHA&#45;1 hash function.">
<polygon fill="white" stroke="#666666" points="768.5,-73.88 687.25,-73.88 687.25,-54.62 768.5,-54.62 768.5,-73.88"/>
<text xml:space="preserve" text-anchor="middle" x="727.88" y="-60.38" font-family="Helvetica,sans-Serif" font-size="10.00">sensesp::Sha1</text>
</a>
</g>
</g>
<!-- Node6&#45;&gt;Node7 -->
<g id="edge6_Node000006_Node000007" class="edge">
<title>Node6&#45;&gt;Node7</title>
<g id="a_edge6_Node000006_Node000007"><a xlink:title=" ">
<path fill="none" stroke="#63b8ff" d="M651.38,-64.25C659.46,-64.25 667.74,-64.25 675.72,-64.25"/>
<polygon fill="#63b8ff" stroke="#63b8ff" points="675.62,-67.75 685.62,-64.25 675.62,-60.75 675.62,-67.75"/>
</a>
</g>
</g>
</g>
</svg>

<g id="navigator" transform="translate(0 0)" fill="#404254">
  <rect fill="#f2f5e9" fill-opacity="0.5" stroke="#606060" stroke-width=".5" x="0" y="0" width="60" height="60"/>
  <use id="zoomplus" xlink:href="#zoomPlus" x="17" y="9" onmousedown="handleZoom(evt,'in')"/>
  <use id="zoomminus" xlink:href="#zoomMin" x="42" y="9" onmousedown="handleZoom(evt,'out')"/>
  <use id="reset" xlink:href="#resetDef" x="30" y="36" onmousedown="handleReset()"/>
   <use id="arrowup" xlink:href="#arrowUp" x="0" y="0" onmousedown="handlePan(0,-1)"/>
  <use id="arrowright" xlink:href="#arrowRight" x="0" y="0" onmousedown="handlePan(1,0)"/>
  <use id="arrowdown" xlink:href="#arrowDown" x="0" y="0" onmousedown="handlePan(0,1)"/>
  <use id="arrowleft" xlink:href="#arrowLeft" x="0" y="0" onmousedown="handlePan(-1,0)"/>
</g>
<svg viewBox="0 0 15 15" width="100%" height="30px" preserveAspectRatio="xMaxYMin meet">
 <g id="arrow_out" transform="scale(0.3 0.3)">
  <a xlink:href="classsensesp_1_1_checkbox_config_ad7b7933870a7779cb7c1ed7f44a5c42d_cgraph_org.svg" target="_base">
   <rect id="button" ry="5" rx="5" y="6" x="6" height="38" width="38"
        fill="#f2f5e9" fill-opacity="0.5" stroke="#606060" stroke-width="1.0"/>
   <path id="arrow"
     d="M 11.500037,31.436501 C 11.940474,20.09759 22.043105,11.32322 32.158766,21.979434 L 37.068811,17.246167 C 37.068811,17.246167 37.088388,32 37.088388,32 L 22.160133,31.978069 C 22.160133,31.978069 26.997745,27.140456 26.997745,27.140456 C 18.528582,18.264221 13.291696,25.230495 11.500037,31.436501 z"
     style="fill:#404040;"/>
  </a>
 </g>
</svg>

<style type='text/css'>
<![CDATA[
[data-mouse-over-selected='false'] { opacity: 0.7; }
[data-mouse-over-selected='true']  { opacity: 1.0; }
]]>
</style>
<script type="application/ecmascript"><![CDATA[
document.addEventListener('DOMContentLoaded', (event) => {
  highlightEdges();
  highlightAdjacentNodes();
});
]]></script>
</svg>
