<?xml version="1.0" encoding="UTF-8" standalone="no"?>
<!DOCTYPE svg PUBLIC "-//W3C//DTD SVG 1.1//EN"
 "http://www.w3.org/Graphics/SVG/1.1/DTD/svg11.dtd">
<!-- Generated by graphviz version 2.49.3 (20211023.0002)
 -->
<!-- Title: sensesp::Enable::Enable Pages: 1 -->
<svg width="515pt" height="78pt"
 viewBox="0.00 0.00 515.00 77.50" xmlns="http://www.w3.org/2000/svg" xmlns:xlink="http://www.w3.org/1999/xlink">
<g id="graph0" class="graph" transform="scale(1 1) rotate(0) translate(4 73.5)">
<title>sensesp::Enable::Enable</title>
<polygon fill="white" stroke="transparent" points="-4,4 -4,-73.5 511,-73.5 511,4 -4,4"/>
<!-- Node1 -->
<g id="node1" class="node">
<title>Node1</title>
<g id="a_node1"><a xlink:title=" ">
<polygon fill="#bfbfbf" stroke="black" points="0,-28 0,-47 127,-47 127,-28 0,-28"/>
<text text-anchor="middle" x="63.5" y="-35" font-family="Helvetica,sans-Serif" font-size="10.00">sensesp::Enable::Enable</text>
</a>
</g>
</g>
<!-- Node2 -->
<g id="node2" class="node">
<title>Node2</title>
<g id="a_node2"><a xlink:href="classsensesp_1_1_configurable.html#ac97542fd5a24ae306adb77f3d1ba563a" target="_top" xlink:title=" ">
<polygon fill="white" stroke="black" points="163,-22.5 163,-52.5 279,-52.5 279,-22.5 163,-22.5"/>
<text text-anchor="start" x="171" y="-40.5" font-family="Helvetica,sans-Serif" font-size="10.00">sensesp::Configurable</text>
<text text-anchor="middle" x="221" y="-29.5" font-family="Helvetica,sans-Serif" font-size="10.00">::load_configuration</text>
</a>
</g>
</g>
<!-- Node1&#45;&gt;Node2 -->
<g id="edge1" class="edge">
<title>Node1&#45;&gt;Node2</title>
<path fill="none" stroke="midnightblue" d="M127.3,-37.5C135.69,-37.5 144.32,-37.5 152.78,-37.5"/>
<polygon fill="midnightblue" stroke="midnightblue" points="152.99,-41 162.99,-37.5 152.99,-34 152.99,-41"/>
</g>
<!-- Node3 -->
<g id="node3" class="node">
<title>Node3</title>
<g id="a_node3"><a xlink:href="hash_8cpp.html#acb0d85917e87a85ddaf682ebde0872a5" target="_top" xlink:title="A base64&#45;encoded SHA&#45;1 hash function.">
<polygon fill="white" stroke="black" points="336,-50 336,-69 410,-69 410,-50 336,-50"/>
<text text-anchor="middle" x="373" y="-57" font-family="Helvetica,sans-Serif" font-size="10.00">Base64Sha1</text>
</a>
</g>
</g>
<!-- Node2&#45;&gt;Node3 -->
<g id="edge2" class="edge">
<title>Node2&#45;&gt;Node3</title>
<path fill="none" stroke="midnightblue" d="M279.14,-45.88C294.61,-48.15 311.16,-50.58 325.94,-52.74"/>
<polygon fill="midnightblue" stroke="midnightblue" points="325.45,-56.21 335.85,-54.2 326.46,-49.28 325.45,-56.21"/>
</g>
<!-- Node5 -->
<g id="node5" class="node">
<title>Node5</title>
<g id="a_node5"><a xlink:href="classsensesp_1_1_configurable.html#a0deaa5b717cd0f60d0105835cd6b595a" target="_top" xlink:title=" ">
<polygon fill="white" stroke="black" points="315,-0.5 315,-30.5 431,-30.5 431,-0.5 315,-0.5"/>
<text text-anchor="start" x="323" y="-18.5" font-family="Helvetica,sans-Serif" font-size="10.00">sensesp::Configurable</text>
<text text-anchor="middle" x="373" y="-7.5" font-family="Helvetica,sans-Serif" font-size="10.00">::set_configuration</text>
</a>
</g>
</g>
<!-- Node2&#45;&gt;Node5 -->
<g id="edge4" class="edge">
<title>Node2&#45;&gt;Node5</title>
<path fill="none" stroke="midnightblue" d="M279.14,-29.12C287.47,-27.9 296.11,-26.63 304.62,-25.38"/>
<polygon fill="midnightblue" stroke="midnightblue" points="305.14,-28.84 314.53,-23.93 304.12,-21.92 305.14,-28.84"/>
</g>
<!-- Node4 -->
<g id="node4" class="node">
<title>Node4</title>
<g id="a_node4"><a xlink:href="hash_8cpp.html#a5c78d7f77047179963ffda330a0a00ce" target="_top" xlink:title="SHA&#45;1 hash function.">
<polygon fill="white" stroke="black" points="467,-50 467,-69 507,-69 507,-50 467,-50"/>
<text text-anchor="middle" x="487" y="-57" font-family="Helvetica,sans-Serif" font-size="10.00">Sha1</text>
</a>
</g>
</g>
<!-- Node3&#45;&gt;Node4 -->
<g id="edge3" class="edge">
<title>Node3&#45;&gt;Node4</title>
<path fill="none" stroke="midnightblue" d="M410.05,-59.5C425.14,-59.5 442.44,-59.5 456.72,-59.5"/>
<polygon fill="midnightblue" stroke="midnightblue" points="456.96,-63 466.96,-59.5 456.96,-56 456.96,-63"/>
</g>
</g>
</svg>
