<?xml version="1.0" encoding="UTF-8" standalone="no"?>
<!DOCTYPE svg PUBLIC "-//W3C//DTD SVG 1.1//EN"
 "http://www.w3.org/Graphics/SVG/1.1/DTD/svg11.dtd">
<!-- Generated by graphviz version 7.1.0 (20230121.1956)
 -->
<!-- Title: sensesp::SKRequest::remove_request Pages: 1 -->
<svg width="617pt" height="86pt"
 viewBox="0.00 0.00 617.00 86.00" xmlns="http://www.w3.org/2000/svg" xmlns:xlink="http://www.w3.org/1999/xlink">
<g id="graph0" class="graph" transform="scale(1 1) rotate(0) translate(4 82)">
<title>sensesp::SKRequest::remove_request</title>
<!-- Node1 -->
<g id="node1" class="node">
<title>Node1</title>
<g id="a_node1"><a xlink:title=" ">
<polygon fill="#999999" stroke="#666666" points="609,-54 499,-54 499,-24 609,-24 609,-54"/>
<text text-anchor="start" x="507" y="-42" font-family="Helvetica,sans-Serif" font-size="10.00">sensesp::SKRequest</text>
<text text-anchor="middle" x="554" y="-31" font-family="Helvetica,sans-Serif" font-size="10.00">::remove_request</text>
</a>
</g>
</g>
<!-- Node2 -->
<g id="node2" class="node">
<title>Node2</title>
<g id="a_node2"><a xlink:href="classsensesp_1_1_s_k_request.html#a1aab6e4dfa67a303b3d8048f38f9f9cc" target="_top" xlink:title=" ">
<polygon fill="white" stroke="#666666" points="463,-78 353,-78 353,-48 463,-48 463,-78"/>
<text text-anchor="start" x="361" y="-66" font-family="Helvetica,sans-Serif" font-size="10.00">sensesp::SKRequest</text>
<text text-anchor="middle" x="408" y="-55" font-family="Helvetica,sans-Serif" font-size="10.00">::handle_response</text>
</a>
</g>
</g>
<!-- Node1&#45;&gt;Node2 -->
<g id="edge1" class="edge">
<title>Node1&#45;&gt;Node2</title>
<path fill="none" stroke="#63b8ff" d="M487.23,-49.96C479.13,-51.31 470.93,-52.68 463.04,-53.99"/>
<polygon fill="#63b8ff" stroke="#63b8ff" points="487.78,-53.42 497.07,-48.32 486.63,-46.51 487.78,-53.42"/>
</g>
<!-- Node5 -->
<g id="node5" class="node">
<title>Node5</title>
<g id="a_node5"><a xlink:href="classsensesp_1_1_s_k_request.html#a61d615a0f319f6f7a38d968af4620eb2" target="_top" xlink:title=" ">
<polygon fill="white" stroke="#666666" points="463,-30 353,-30 353,0 463,0 463,-30"/>
<text text-anchor="start" x="361" y="-18" font-family="Helvetica,sans-Serif" font-size="10.00">sensesp::SKRequest</text>
<text text-anchor="middle" x="408" y="-7" font-family="Helvetica,sans-Serif" font-size="10.00">::send_request</text>
</a>
</g>
</g>
<!-- Node1&#45;&gt;Node5 -->
<g id="edge4" class="edge">
<title>Node1&#45;&gt;Node5</title>
<path fill="none" stroke="#63b8ff" d="M487.23,-28.04C479.13,-26.69 470.93,-25.32 463.04,-24.01"/>
<polygon fill="#63b8ff" stroke="#63b8ff" points="486.63,-31.49 497.07,-29.68 487.78,-24.58 486.63,-31.49"/>
</g>
<!-- Node3 -->
<g id="node3" class="node">
<title>Node3</title>
<g id="a_node3"><a xlink:href="classsensesp_1_1_w_s_client.html#a51ade9c1649eb19106207777ab7ca7f7" target="_top" xlink:title="Called when the websocket receives a delta.">
<polygon fill="white" stroke="#666666" points="297,-78 190,-78 190,-48 297,-48 297,-78"/>
<text text-anchor="start" x="198" y="-66" font-family="Helvetica,sans-Serif" font-size="10.00">sensesp::WSClient::</text>
<text text-anchor="middle" x="243.5" y="-55" font-family="Helvetica,sans-Serif" font-size="10.00">on_receive_delta</text>
</a>
</g>
</g>
<!-- Node2&#45;&gt;Node3 -->
<g id="edge2" class="edge">
<title>Node2&#45;&gt;Node3</title>
<path fill="none" stroke="#63b8ff" d="M341.76,-63C326.98,-63 311.46,-63 297.27,-63"/>
<polygon fill="#63b8ff" stroke="#63b8ff" points="341.38,-66.5 351.38,-63 341.38,-59.5 341.38,-66.5"/>
</g>
<!-- Node4 -->
<g id="node4" class="node">
<title>Node4</title>
<g id="a_node4"><a xlink:href="namespacesensesp.html#a4f37392d0637be5754c86b87b263d0d3" target="_top" xlink:title="WebSocket event handler.">
<polygon fill="white" stroke="#666666" points="134,-78 0,-78 0,-48 134,-48 134,-78"/>
<text text-anchor="start" x="8" y="-66" font-family="Helvetica,sans-Serif" font-size="10.00">sensesp::webSocketClient</text>
<text text-anchor="middle" x="67" y="-55" font-family="Helvetica,sans-Serif" font-size="10.00">Event</text>
</a>
</g>
</g>
<!-- Node3&#45;&gt;Node4 -->
<g id="edge3" class="edge">
<title>Node3&#45;&gt;Node4</title>
<path fill="none" stroke="#63b8ff" d="M178.37,-63C163.99,-63 148.71,-63 134.25,-63"/>
<polygon fill="#63b8ff" stroke="#63b8ff" points="178.16,-66.5 188.16,-63 178.16,-59.5 178.16,-66.5"/>
</g>
<!-- Node6 -->
<g id="node6" class="node">
<title>Node6</title>
<g id="a_node6"><a xlink:href="classsensesp_1_1_s_k_put_request_base.html#a8a60c171c008e367a92d93f62e291dae" target="_top" xlink:title=" ">
<polygon fill="white" stroke="#666666" points="317,-30 170,-30 170,0 317,0 317,-30"/>
<text text-anchor="start" x="178" y="-18" font-family="Helvetica,sans-Serif" font-size="10.00">sensesp::SKPutRequestBase</text>
<text text-anchor="middle" x="243.5" y="-7" font-family="Helvetica,sans-Serif" font-size="10.00">::send_put_request</text>
</a>
</g>
</g>
<!-- Node5&#45;&gt;Node6 -->
<g id="edge5" class="edge">
<title>Node5&#45;&gt;Node6</title>
<path fill="none" stroke="#63b8ff" d="M341.49,-15C333.58,-15 325.47,-15 317.46,-15"/>
<polygon fill="#63b8ff" stroke="#63b8ff" points="341.38,-18.5 351.38,-15 341.38,-11.5 341.38,-18.5"/>
</g>
<!-- Node7 -->
<g id="node7" class="node">
<title>Node7</title>
<g id="a_node7"><a xlink:href="classsensesp_1_1_s_k_put_request.html#a7d10504b9bdc62332ec376cd3855aa75" target="_top" xlink:title=" ">
<polygon fill="white" stroke="#666666" points="129.5,-30 4.5,-30 4.5,0 129.5,0 129.5,-30"/>
<text text-anchor="start" x="12.5" y="-18" font-family="Helvetica,sans-Serif" font-size="10.00">sensesp::SKPutRequest</text>
<text text-anchor="middle" x="67" y="-7" font-family="Helvetica,sans-Serif" font-size="10.00">::set_input</text>
</a>
</g>
</g>
<!-- Node6&#45;&gt;Node7 -->
<g id="edge6" class="edge">
<title>Node6&#45;&gt;Node7</title>
<path fill="none" stroke="#63b8ff" d="M158.01,-15C148.54,-15 139.02,-15 129.91,-15"/>
<polygon fill="#63b8ff" stroke="#63b8ff" points="157.99,-18.5 167.99,-15 157.99,-11.5 157.99,-18.5"/>
</g>
</g>
</svg>
