<?xml version="1.0" encoding="UTF-8" standalone="no"?>
<!DOCTYPE svg PUBLIC "-//W3C//DTD SVG 1.1//EN"
 "http://www.w3.org/Graphics/SVG/1.1/DTD/svg11.dtd">
<!-- Generated by graphviz version 13.0.0 (20250608.1624)
 -->
<!-- Title: sensesp::Saveable::Saveable Pages: 1 -->
<svg width="846pt" height="688pt"
 viewBox="0.00 0.00 846.00 688.00" xmlns="http://www.w3.org/2000/svg" xmlns:xlink="http://www.w3.org/1999/xlink">
<g id="graph0" class="graph" transform="scale(1 1) rotate(0) translate(4 683.5)">
<title>sensesp::Saveable::Saveable</title>
<!-- Node1 -->
<g id="Node000001" class="node">
<title>Node1</title>
<g id="a_Node000001"><a xlink:title=" ">
<polygon fill="#999999" stroke="#666666" points="838.25,-372.5 733,-372.5 733,-342 838.25,-342 838.25,-372.5"/>
<text xml:space="preserve" text-anchor="start" x="741" y="-359" font-family="Helvetica,sans-Serif" font-size="10.00">sensesp::Saveable::</text>
<text xml:space="preserve" text-anchor="middle" x="785.62" y="-347.75" font-family="Helvetica,sans-Serif" font-size="10.00">Saveable</text>
</a>
</g>
</g>
<!-- Node2 -->
<g id="Node000002" class="node">
<title>Node2</title>
<g id="a_Node000002"><a xlink:href="classsensesp_1_1_file_system_saveable.html#a974f062b375cf8637944f121084cf9f7" target="_top" xlink:title=" ">
<polygon fill="white" stroke="#666666" points="697,-372.5 548.25,-372.5 548.25,-342 697,-342 697,-372.5"/>
<text xml:space="preserve" text-anchor="start" x="556.25" y="-359" font-family="Helvetica,sans-Serif" font-size="10.00">sensesp::FileSystemSaveable</text>
<text xml:space="preserve" text-anchor="middle" x="622.62" y="-347.75" font-family="Helvetica,sans-Serif" font-size="10.00">::FileSystemSaveable</text>
</a>
</g>
</g>
<!-- Node1&#45;&gt;Node2 -->
<g id="edge1_Node000001_Node000002" class="edge">
<title>Node1&#45;&gt;Node2</title>
<g id="a_edge1_Node000001_Node000002"><a xlink:title=" ">
<path fill="none" stroke="#63b8ff" d="M721.42,-357.25C713.52,-357.25 705.39,-357.25 697.34,-357.25"/>
<polygon fill="#63b8ff" stroke="#63b8ff" points="721.28,-360.75 731.28,-357.25 721.28,-353.75 721.28,-360.75"/>
</a>
</g>
</g>
<!-- Node3 -->
<g id="Node000003" class="node">
<title>Node3</title>
<g id="a_Node000003"><a xlink:href="classsensesp_1_1_checkbox_config.html#ad7b7933870a7779cb7c1ed7f44a5c42d" target="_top" xlink:title=" ">
<polygon fill="white" stroke="#666666" points="496.5,-679.5 365,-679.5 365,-649 496.5,-649 496.5,-679.5"/>
<text xml:space="preserve" text-anchor="start" x="373" y="-666" font-family="Helvetica,sans-Serif" font-size="10.00">sensesp::CheckboxConfig</text>
<text xml:space="preserve" text-anchor="middle" x="430.75" y="-654.75" font-family="Helvetica,sans-Serif" font-size="10.00">::CheckboxConfig</text>
</a>
</g>
</g>
<!-- Node2&#45;&gt;Node3 -->
<g id="edge2_Node000002_Node000003" class="edge">
<title>Node2&#45;&gt;Node3</title>
<g id="a_edge2_Node000002_Node000003"><a xlink:title=" ">
<path fill="none" stroke="#63b8ff" d="M618.88,-384.35C611.79,-440.21 587.73,-568.8 512.25,-639.25 507.65,-643.54 502.32,-647.1 496.65,-650.05"/>
<polygon fill="#63b8ff" stroke="#63b8ff" points="622.35,-384.82 620.04,-374.48 615.4,-384.01 622.35,-384.82"/>
</a>
</g>
</g>
<!-- Node5 -->
<g id="Node000005" class="node">
<title>Node5</title>
<g id="a_Node000005"><a xlink:href="classsensesp_1_1_h_t_t_p_server.html#ad582006382529c29bc52b8773b8362c7" target="_top" xlink:title=" ">
<polygon fill="white" stroke="#666666" points="487.5,-630.5 374,-630.5 374,-600 487.5,-600 487.5,-630.5"/>
<text xml:space="preserve" text-anchor="start" x="382" y="-617" font-family="Helvetica,sans-Serif" font-size="10.00">sensesp::HTTPServer</text>
<text xml:space="preserve" text-anchor="middle" x="430.75" y="-605.75" font-family="Helvetica,sans-Serif" font-size="10.00">::HTTPServer</text>
</a>
</g>
</g>
<!-- Node2&#45;&gt;Node5 -->
<g id="edge4_Node000002_Node000005" class="edge">
<title>Node2&#45;&gt;Node5</title>
<g id="a_edge4_Node000002_Node000005"><a xlink:title=" ">
<path fill="none" stroke="#63b8ff" d="M616.47,-383.97C605.77,-432.27 576.56,-534.25 512.25,-590.25 505.19,-596.4 496.62,-601.04 487.75,-604.54"/>
<polygon fill="#63b8ff" stroke="#63b8ff" points="619.85,-384.9 618.49,-374.39 613,-383.46 619.85,-384.9"/>
</a>
</g>
</g>
<!-- Node8 -->
<g id="Node000008" class="node">
<title>Node8</title>
<g id="a_Node000008"><a xlink:href="classsensesp_1_1_networking.html#aa23575a20407cb5a2d885d1e7049f416" target="_top" xlink:title=" ">
<polygon fill="white" stroke="#666666" points="484.88,-581.5 376.62,-581.5 376.62,-551 484.88,-551 484.88,-581.5"/>
<text xml:space="preserve" text-anchor="start" x="384.62" y="-568" font-family="Helvetica,sans-Serif" font-size="10.00">sensesp::Networking</text>
<text xml:space="preserve" text-anchor="middle" x="430.75" y="-556.75" font-family="Helvetica,sans-Serif" font-size="10.00">::Networking</text>
</a>
</g>
</g>
<!-- Node2&#45;&gt;Node8 -->
<g id="edge9_Node000002_Node000008" class="edge">
<title>Node2&#45;&gt;Node8</title>
<g id="a_edge9_Node000002_Node000008"><a xlink:title=" ">
<path fill="none" stroke="#63b8ff" d="M612.92,-383.67C598.41,-423.63 565.5,-499.25 512.25,-541.25 504.32,-547.5 494.82,-552.2 485.17,-555.73"/>
<polygon fill="#63b8ff" stroke="#63b8ff" points="616.17,-384.96 616.18,-374.37 609.57,-382.65 616.17,-384.96"/>
</a>
</g>
</g>
<!-- Node9 -->
<g id="Node000009" class="node">
<title>Node9</title>
<g id="a_Node000009"><a xlink:href="classsensesp_1_1_number_config.html#acbe6bf70297ef819ab7ce0df25176999" target="_top" xlink:title=" ">
<polygon fill="white" stroke="#666666" points="491.62,-532.5 369.88,-532.5 369.88,-502 491.62,-502 491.62,-532.5"/>
<text xml:space="preserve" text-anchor="start" x="377.88" y="-519" font-family="Helvetica,sans-Serif" font-size="10.00">sensesp::NumberConfig</text>
<text xml:space="preserve" text-anchor="middle" x="430.75" y="-507.75" font-family="Helvetica,sans-Serif" font-size="10.00">::NumberConfig</text>
</a>
</g>
</g>
<!-- Node2&#45;&gt;Node9 -->
<g id="edge10_Node000002_Node000009" class="edge">
<title>Node2&#45;&gt;Node9</title>
<g id="a_edge10_Node000002_Node000009"><a xlink:title=" ">
<path fill="none" stroke="#63b8ff" d="M607.54,-382.52C589.35,-412.89 554.92,-463.34 512.25,-492.25 506.07,-496.44 499.16,-499.95 492.05,-502.88"/>
<polygon fill="#63b8ff" stroke="#63b8ff" points="610.49,-384.4 612.51,-374 604.45,-380.87 610.49,-384.4"/>
</a>
</g>
</g>
<!-- Node11 -->
<g id="Node000011" class="node">
<title>Node11</title>
<g id="a_Node000011"><a xlink:href="classsensesp_1_1_persisting_observable_value.html#a42d71d59977b6c998c96a6096b9cbe5f" target="_top" xlink:title=" ">
<polygon fill="white" stroke="#666666" points="512.25,-483.5 349.25,-483.5 349.25,-453 512.25,-453 512.25,-483.5"/>
<text xml:space="preserve" text-anchor="start" x="357.25" y="-470" font-family="Helvetica,sans-Serif" font-size="10.00">sensesp::PersistingObservable</text>
<text xml:space="preserve" text-anchor="middle" x="430.75" y="-458.75" font-family="Helvetica,sans-Serif" font-size="10.00">Value::PersistingObservableValue</text>
</a>
</g>
</g>
<!-- Node2&#45;&gt;Node11 -->
<g id="edge12_Node000002_Node000011" class="edge">
<title>Node2&#45;&gt;Node11</title>
<g id="a_edge12_Node000002_Node000011"><a xlink:title=" ">
<path fill="none" stroke="#63b8ff" d="M597.7,-380.79C576.74,-400.26 544.63,-427.36 512.25,-444.25 506.3,-447.35 499.89,-450.12 493.38,-452.56"/>
<polygon fill="#63b8ff" stroke="#63b8ff" points="600.02,-383.42 604.88,-374.01 595.21,-378.34 600.02,-383.42"/>
</a>
</g>
</g>
<!-- Node12 -->
<g id="Node000012" class="node">
<title>Node12</title>
<g id="a_Node000012"><a xlink:href="classsensesp_1_1_rgb_led.html#a12c7e6fcc5767e83f58c3e4bbc14497c" target="_top" xlink:title=" ">
<polygon fill="white" stroke="#666666" points="496.88,-434.88 364.62,-434.88 364.62,-415.62 496.88,-415.62 496.88,-434.88"/>
<text xml:space="preserve" text-anchor="middle" x="430.75" y="-421.38" font-family="Helvetica,sans-Serif" font-size="10.00">sensesp::RgbLed::RgbLed</text>
</a>
</g>
</g>
<!-- Node2&#45;&gt;Node12 -->
<g id="edge13_Node000002_Node000012" class="edge">
<title>Node2&#45;&gt;Node12</title>
<g id="a_edge13_Node000002_Node000012"><a xlink:title=" ">
<path fill="none" stroke="#63b8ff" d="M581,-377.66C560.72,-387.28 535.58,-398.35 512.25,-406.25 502.32,-409.61 491.51,-412.6 481.12,-415.16"/>
<polygon fill="#63b8ff" stroke="#63b8ff" points="582.28,-380.93 589.77,-373.44 579.24,-374.62 582.28,-380.93"/>
</a>
</g>
</g>
<!-- Node13 -->
<g id="Node000013" class="node">
<title>Node13</title>
<g id="a_Node000013"><a xlink:href="classsensesp_1_1_select_config.html#a0afa1a39dcf692043a035d7bdf9fa596" target="_top" xlink:title=" ">
<polygon fill="white" stroke="#666666" points="488.25,-397.5 373.25,-397.5 373.25,-367 488.25,-367 488.25,-397.5"/>
<text xml:space="preserve" text-anchor="start" x="381.25" y="-384" font-family="Helvetica,sans-Serif" font-size="10.00">sensesp::SelectConfig</text>
<text xml:space="preserve" text-anchor="middle" x="430.75" y="-372.75" font-family="Helvetica,sans-Serif" font-size="10.00">::SelectConfig</text>
</a>
</g>
</g>
<!-- Node2&#45;&gt;Node13 -->
<g id="edge14_Node000002_Node000013" class="edge">
<title>Node2&#45;&gt;Node13</title>
<g id="a_edge14_Node000002_Node000013"><a xlink:title=" ">
<path fill="none" stroke="#63b8ff" d="M536.75,-368.43C520.45,-370.57 503.76,-372.77 488.61,-374.76"/>
<polygon fill="#63b8ff" stroke="#63b8ff" points="536.98,-371.92 546.44,-367.15 536.07,-364.98 536.98,-371.92"/>
</a>
</g>
</g>
<!-- Node15 -->
<g id="Node000015" class="node">
<title>Node15</title>
<g id="a_Node000015"><a xlink:href="classsensesp_1_1_sensor_config.html#ac12428367010d33dca52d79df86fc7e8" target="_top" xlink:title=" ">
<polygon fill="white" stroke="#666666" points="489.75,-348.5 371.75,-348.5 371.75,-318 489.75,-318 489.75,-348.5"/>
<text xml:space="preserve" text-anchor="start" x="379.75" y="-335" font-family="Helvetica,sans-Serif" font-size="10.00">sensesp::SensorConfig</text>
<text xml:space="preserve" text-anchor="middle" x="430.75" y="-323.75" font-family="Helvetica,sans-Serif" font-size="10.00">::SensorConfig</text>
</a>
</g>
</g>
<!-- Node2&#45;&gt;Node15 -->
<g id="edge16_Node000002_Node000015" class="edge">
<title>Node2&#45;&gt;Node15</title>
<g id="a_edge16_Node000002_Node000015"><a xlink:title=" ">
<path fill="none" stroke="#63b8ff" d="M536.59,-346.5C520.87,-344.52 504.79,-342.48 490.09,-340.62"/>
<polygon fill="#63b8ff" stroke="#63b8ff" points="536.08,-349.97 546.44,-347.75 536.96,-343.02 536.08,-349.97"/>
</a>
</g>
</g>
<!-- Node18 -->
<g id="Node000018" class="node">
<title>Node18</title>
<g id="a_Node000018"><a xlink:href="classsensesp_1_1_s_k_listener.html#a58ea9c83d5f0ffeb5ef4a52e9335e5e8" target="_top" xlink:title=" ">
<polygon fill="white" stroke="#666666" points="484.12,-299.5 377.38,-299.5 377.38,-269 484.12,-269 484.12,-299.5"/>
<text xml:space="preserve" text-anchor="start" x="385.38" y="-286" font-family="Helvetica,sans-Serif" font-size="10.00">sensesp::SKListener</text>
<text xml:space="preserve" text-anchor="middle" x="430.75" y="-274.75" font-family="Helvetica,sans-Serif" font-size="10.00">::SKListener</text>
</a>
</g>
</g>
<!-- Node2&#45;&gt;Node18 -->
<g id="edge19_Node000002_Node000018" class="edge">
<title>Node2&#45;&gt;Node18</title>
<g id="a_edge19_Node000002_Node000018"><a xlink:title=" ">
<path fill="none" stroke="#63b8ff" d="M578.23,-336.86C558.33,-327.87 534.32,-317.49 512.25,-309.25 503.34,-305.92 493.76,-302.67 484.43,-299.68"/>
<polygon fill="#63b8ff" stroke="#63b8ff" points="576.59,-339.96 587.14,-340.93 579.5,-333.59 576.59,-339.96"/>
</a>
</g>
</g>
<!-- Node20 -->
<g id="Node000020" class="node">
<title>Node20</title>
<g id="a_Node000020"><a xlink:href="classsensesp_1_1_s_k_put_request_base.html#a519805d9a90b37d5f56411a1792fff23" target="_top" xlink:title=" ">
<polygon fill="white" stroke="#666666" points="504,-250.5 357.5,-250.5 357.5,-220 504,-220 504,-250.5"/>
<text xml:space="preserve" text-anchor="start" x="365.5" y="-237" font-family="Helvetica,sans-Serif" font-size="10.00">sensesp::SKPutRequestBase</text>
<text xml:space="preserve" text-anchor="middle" x="430.75" y="-225.75" font-family="Helvetica,sans-Serif" font-size="10.00">::SKPutRequestBase</text>
</a>
</g>
</g>
<!-- Node2&#45;&gt;Node20 -->
<g id="edge21_Node000002_Node000020" class="edge">
<title>Node2&#45;&gt;Node20</title>
<g id="a_edge21_Node000002_Node000020"><a xlink:title=" ">
<path fill="none" stroke="#63b8ff" d="M600.21,-333.13C579.63,-311.28 546.64,-279.64 512.25,-260.25 506,-256.73 499.2,-253.64 492.28,-250.95"/>
<polygon fill="#63b8ff" stroke="#63b8ff" points="597.6,-335.46 606.96,-340.43 602.74,-330.71 597.6,-335.46"/>
</a>
</g>
</g>
<!-- Node22 -->
<g id="Node000022" class="node">
<title>Node22</title>
<g id="a_Node000022"><a xlink:href="classsensesp_1_1_s_k_w_s_client.html#a06543d390e00ae846df1313247f4f877" target="_top" xlink:title=" ">
<polygon fill="white" stroke="#666666" points="487.88,-201.5 373.62,-201.5 373.62,-171 487.88,-171 487.88,-201.5"/>
<text xml:space="preserve" text-anchor="start" x="381.62" y="-188" font-family="Helvetica,sans-Serif" font-size="10.00">sensesp::SKWSClient</text>
<text xml:space="preserve" text-anchor="middle" x="430.75" y="-176.75" font-family="Helvetica,sans-Serif" font-size="10.00">::SKWSClient</text>
</a>
</g>
</g>
<!-- Node2&#45;&gt;Node22 -->
<g id="edge23_Node000002_Node000022" class="edge">
<title>Node2&#45;&gt;Node22</title>
<g id="a_edge23_Node000002_Node000022"><a xlink:title=" ">
<path fill="none" stroke="#63b8ff" d="M609.1,-331.85C591.74,-299.24 557.35,-243.08 512.25,-211.25 504.96,-206.1 496.57,-201.99 488.02,-198.71"/>
<polygon fill="#63b8ff" stroke="#63b8ff" points="605.92,-333.33 613.62,-340.6 612.13,-330.11 605.92,-333.33"/>
</a>
</g>
</g>
<!-- Node23 -->
<g id="Node000023" class="node">
<title>Node23</title>
<g id="a_Node000023"><a xlink:href="classsensesp_1_1_smart_switch_controller.html#af315054e20a6ff730f0290c12425d9db" target="_top" xlink:title=" ">
<polygon fill="white" stroke="#666666" points="509.25,-152.5 352.25,-152.5 352.25,-122 509.25,-122 509.25,-152.5"/>
<text xml:space="preserve" text-anchor="start" x="360.25" y="-139" font-family="Helvetica,sans-Serif" font-size="10.00">sensesp::SmartSwitchController</text>
<text xml:space="preserve" text-anchor="middle" x="430.75" y="-127.75" font-family="Helvetica,sans-Serif" font-size="10.00">::SmartSwitchController</text>
</a>
</g>
</g>
<!-- Node2&#45;&gt;Node23 -->
<g id="edge24_Node000002_Node000023" class="edge">
<title>Node2&#45;&gt;Node23</title>
<g id="a_edge24_Node000002_Node000023"><a xlink:title=" ">
<path fill="none" stroke="#63b8ff" d="M613.87,-330.79C600.23,-288.88 567.98,-207.35 512.25,-162.25 507.81,-158.66 502.86,-155.58 497.65,-152.95"/>
<polygon fill="#63b8ff" stroke="#63b8ff" points="610.51,-331.8 616.84,-340.29 617.19,-329.71 610.51,-331.8"/>
</a>
</g>
</g>
<!-- Node24 -->
<g id="Node000024" class="node">
<title>Node24</title>
<g id="a_Node000024"><a xlink:href="classsensesp_1_1_string_config.html#a8786d1cd7dde18b8a4411d64f9755ccf" target="_top" xlink:title=" ">
<polygon fill="white" stroke="#666666" points="487.12,-103.5 374.38,-103.5 374.38,-73 487.12,-73 487.12,-103.5"/>
<text xml:space="preserve" text-anchor="start" x="382.38" y="-90" font-family="Helvetica,sans-Serif" font-size="10.00">sensesp::StringConfig</text>
<text xml:space="preserve" text-anchor="middle" x="430.75" y="-78.75" font-family="Helvetica,sans-Serif" font-size="10.00">::StringConfig</text>
</a>
</g>
</g>
<!-- Node2&#45;&gt;Node24 -->
<g id="edge25_Node000002_Node000024" class="edge">
<title>Node2&#45;&gt;Node24</title>
<g id="a_edge25_Node000002_Node000024"><a xlink:title=" ">
<path fill="none" stroke="#63b8ff" d="M617.14,-330.69C607.3,-280.76 579.16,-172.56 512.25,-113.25 505.13,-106.94 496.44,-102.22 487.43,-98.7"/>
<polygon fill="#63b8ff" stroke="#63b8ff" points="613.66,-331.12 618.93,-340.31 620.54,-329.84 613.66,-331.12"/>
</a>
</g>
</g>
<!-- Node25 -->
<g id="Node000025" class="node">
<title>Node25</title>
<g id="a_Node000025"><a xlink:href="classsensesp_1_1_transform_base.html#ab57b3fe6ceb1f934f0d88dc230a2a293" target="_top" xlink:title=" ">
<polygon fill="white" stroke="#666666" points="493.5,-54.5 368,-54.5 368,-24 493.5,-24 493.5,-54.5"/>
<text xml:space="preserve" text-anchor="start" x="376" y="-41" font-family="Helvetica,sans-Serif" font-size="10.00">sensesp::TransformBase</text>
<text xml:space="preserve" text-anchor="middle" x="430.75" y="-29.75" font-family="Helvetica,sans-Serif" font-size="10.00">::TransformBase</text>
</a>
</g>
</g>
<!-- Node2&#45;&gt;Node25 -->
<g id="edge26_Node000002_Node000025" class="edge">
<title>Node2&#45;&gt;Node25</title>
<g id="a_edge26_Node000002_Node000025"><a xlink:title=" ">
<path fill="none" stroke="#63b8ff" d="M619.35,-330.3C613.07,-272.95 590.36,-138.1 512.25,-64.25 506.93,-59.22 500.62,-55.21 493.91,-52"/>
<polygon fill="#63b8ff" stroke="#63b8ff" points="615.86,-330.5 620.34,-340.11 622.82,-329.81 615.86,-330.5"/>
</a>
</g>
</g>
<!-- Node4 -->
<g id="Node000004" class="node">
<title>Node4</title>
<g id="a_Node000004"><a xlink:href="classsensesp_1_1_checkbox_config.html#aacc80d9054fb44c23b124242b44b750b" target="_top" xlink:title=" ">
<polygon fill="white" stroke="#666666" points="313.25,-679.5 181.75,-679.5 181.75,-649 313.25,-649 313.25,-679.5"/>
<text xml:space="preserve" text-anchor="start" x="189.75" y="-666" font-family="Helvetica,sans-Serif" font-size="10.00">sensesp::CheckboxConfig</text>
<text xml:space="preserve" text-anchor="middle" x="247.5" y="-654.75" font-family="Helvetica,sans-Serif" font-size="10.00">::ConfigSchema</text>
</a>
</g>
</g>
<!-- Node3&#45;&gt;Node4 -->
<g id="edge3_Node000003_Node000004" class="edge">
<title>Node3&#45;&gt;Node4</title>
<g id="a_edge3_Node000003_Node000004"><a xlink:title=" ">
<path fill="none" stroke="#63b8ff" d="M353.17,-664.25C340.04,-664.25 326.51,-664.25 313.71,-664.25"/>
<polygon fill="#63b8ff" stroke="#63b8ff" points="353.06,-667.75 363.06,-664.25 353.06,-660.75 353.06,-667.75"/>
</a>
</g>
</g>
<!-- Node6 -->
<g id="Node000006" class="node">
<title>Node6</title>
<g id="a_Node000006"><a xlink:href="classsensesp_1_1_h_t_t_p_server.html#a770fed412b33e5ce744c496c9fb50ced" target="_top" xlink:title=" ">
<polygon fill="white" stroke="#666666" points="309.88,-630.5 185.12,-630.5 185.12,-600 309.88,-600 309.88,-630.5"/>
<text xml:space="preserve" text-anchor="start" x="193.12" y="-617" font-family="Helvetica,sans-Serif" font-size="10.00">sensesp::HTTPServer</text>
<text xml:space="preserve" text-anchor="middle" x="247.5" y="-605.75" font-family="Helvetica,sans-Serif" font-size="10.00">::call_request_dispatcher</text>
</a>
</g>
</g>
<!-- Node5&#45;&gt;Node6 -->
<g id="edge5_Node000005_Node000006" class="edge">
<title>Node5&#45;&gt;Node6</title>
<g id="a_edge5_Node000005_Node000006"><a xlink:title=" ">
<path fill="none" stroke="#63b8ff" d="M362.78,-608.71C345.56,-608.4 327.11,-608.43 310.17,-608.82"/>
<polygon fill="#63b8ff" stroke="#63b8ff" points="362.3,-612.2 372.38,-608.93 362.46,-605.2 362.3,-612.2"/>
</a>
</g>
</g>
<!-- Node6&#45;&gt;Node5 -->
<g id="edge8_Node000006_Node000005" class="edge">
<title>Node6&#45;&gt;Node5</title>
<g id="a_edge8_Node000006_Node000005"><a xlink:title=" ">
<path fill="none" stroke="#63b8ff" d="M321.49,-621.89C338.96,-622.12 357.34,-622 373.89,-621.54"/>
<polygon fill="#63b8ff" stroke="#63b8ff" points="321.75,-618.39 311.69,-621.71 321.62,-625.39 321.75,-618.39"/>
</a>
</g>
</g>
<!-- Node7 -->
<g id="Node000007" class="node">
<title>Node7</title>
<g id="a_Node000007"><a xlink:href="classsensesp_1_1_h_t_t_p_server.html#a09f55d0afb8ff4d4c5f552db5fc6ee1a" target="_top" xlink:title="Dispatcher method that captures all requests and forwards them to the appropriate handlers.">
<polygon fill="white" stroke="#666666" points="129.62,-630.5 16.12,-630.5 16.12,-600 129.62,-600 129.62,-630.5"/>
<text xml:space="preserve" text-anchor="start" x="24.12" y="-617" font-family="Helvetica,sans-Serif" font-size="10.00">sensesp::HTTPServer</text>
<text xml:space="preserve" text-anchor="middle" x="72.88" y="-605.75" font-family="Helvetica,sans-Serif" font-size="10.00">::dispatch_request</text>
</a>
</g>
</g>
<!-- Node6&#45;&gt;Node7 -->
<g id="edge6_Node000006_Node000007" class="edge">
<title>Node6&#45;&gt;Node7</title>
<g id="a_edge6_Node000006_Node000007"><a xlink:title=" ">
<path fill="none" stroke="#63b8ff" d="M173.23,-608.57C158.8,-608.42 143.87,-608.52 130.11,-608.88"/>
<polygon fill="#63b8ff" stroke="#63b8ff" points="173.1,-612.07 183.15,-608.72 173.21,-605.07 173.1,-612.07"/>
</a>
</g>
</g>
<!-- Node7&#45;&gt;Node6 -->
<g id="edge7_Node000007_Node000006" class="edge">
<title>Node7&#45;&gt;Node6</title>
<g id="a_edge7_Node000007_Node000006"><a xlink:title=" ">
<path fill="none" stroke="#63b8ff" d="M141.36,-621.86C155.63,-622.08 170.62,-622.04 184.67,-621.75"/>
<polygon fill="#63b8ff" stroke="#63b8ff" points="141.69,-618.36 131.62,-621.65 141.55,-625.36 141.69,-618.36"/>
</a>
</g>
</g>
<!-- Node10 -->
<g id="Node000010" class="node">
<title>Node10</title>
<g id="a_Node000010"><a xlink:href="classsensesp_1_1_number_config.html#ac965791070946467b200764de24ccf9e" target="_top" xlink:title=" ">
<polygon fill="white" stroke="#666666" points="308.38,-532.5 186.62,-532.5 186.62,-502 308.38,-502 308.38,-532.5"/>
<text xml:space="preserve" text-anchor="start" x="194.62" y="-519" font-family="Helvetica,sans-Serif" font-size="10.00">sensesp::NumberConfig</text>
<text xml:space="preserve" text-anchor="middle" x="247.5" y="-507.75" font-family="Helvetica,sans-Serif" font-size="10.00">::ConfigSchema</text>
</a>
</g>
</g>
<!-- Node9&#45;&gt;Node10 -->
<g id="edge11_Node000009_Node000010" class="edge">
<title>Node9&#45;&gt;Node10</title>
<g id="a_edge11_Node000009_Node000010"><a xlink:title=" ">
<path fill="none" stroke="#63b8ff" d="M358.19,-517.25C341.77,-517.25 324.47,-517.25 308.59,-517.25"/>
<polygon fill="#63b8ff" stroke="#63b8ff" points="357.88,-520.75 367.88,-517.25 357.88,-513.75 357.88,-520.75"/>
</a>
</g>
</g>
<!-- Node14 -->
<g id="Node000014" class="node">
<title>Node14</title>
<g id="a_Node000014"><a xlink:href="classsensesp_1_1_select_config.html#a5fbe6f44cd29ef04c2c85f2daf0d7bff" target="_top" xlink:title=" ">
<polygon fill="white" stroke="#666666" points="305,-397.5 190,-397.5 190,-367 305,-367 305,-397.5"/>
<text xml:space="preserve" text-anchor="start" x="198" y="-384" font-family="Helvetica,sans-Serif" font-size="10.00">sensesp::SelectConfig</text>
<text xml:space="preserve" text-anchor="middle" x="247.5" y="-372.75" font-family="Helvetica,sans-Serif" font-size="10.00">::ConfigSchema</text>
</a>
</g>
</g>
<!-- Node13&#45;&gt;Node14 -->
<g id="edge15_Node000013_Node000014" class="edge">
<title>Node13&#45;&gt;Node14</title>
<g id="a_edge15_Node000013_Node000014"><a xlink:title=" ">
<path fill="none" stroke="#63b8ff" d="M361.59,-382.25C343.09,-382.25 323.27,-382.25 305.46,-382.25"/>
<polygon fill="#63b8ff" stroke="#63b8ff" points="361.39,-385.75 371.39,-382.25 361.39,-378.75 361.39,-385.75"/>
</a>
</g>
</g>
<!-- Node16 -->
<g id="Node000016" class="node">
<title>Node16</title>
<g id="a_Node000016"><a xlink:href="classsensesp_1_1_sensor.html#a837f5d9603388daaca04d78eaedd5d64" target="_top" xlink:title=" ">
<polygon fill="white" stroke="#666666" points="306.12,-348.5 188.88,-348.5 188.88,-318 306.12,-318 306.12,-348.5"/>
<text xml:space="preserve" text-anchor="start" x="196.88" y="-335" font-family="Helvetica,sans-Serif" font-size="10.00">sensesp::Sensor&lt; float</text>
<text xml:space="preserve" text-anchor="middle" x="247.5" y="-323.75" font-family="Helvetica,sans-Serif" font-size="10.00"> &gt;::Sensor</text>
</a>
</g>
</g>
<!-- Node15&#45;&gt;Node16 -->
<g id="edge17_Node000015_Node000016" class="edge">
<title>Node15&#45;&gt;Node16</title>
<g id="a_edge17_Node000015_Node000016"><a xlink:title=" ">
<path fill="none" stroke="#63b8ff" d="M359.97,-333.25C342.28,-333.25 323.46,-333.25 306.43,-333.25"/>
<polygon fill="#63b8ff" stroke="#63b8ff" points="359.89,-336.75 369.89,-333.25 359.89,-329.75 359.89,-336.75"/>
</a>
</g>
</g>
<!-- Node17 -->
<g id="Node000017" class="node">
<title>Node17</title>
<g id="a_Node000017"><a xlink:href="classsensesp_1_1_constant_sensor.html#a754ae2260b63d225be0d8db58416bb53" target="_top" xlink:title=" ">
<polygon fill="white" stroke="#666666" points="137.5,-348.5 8.25,-348.5 8.25,-318 137.5,-318 137.5,-348.5"/>
<text xml:space="preserve" text-anchor="start" x="16.25" y="-335" font-family="Helvetica,sans-Serif" font-size="10.00">sensesp::ConstantSensor</text>
<text xml:space="preserve" text-anchor="middle" x="72.88" y="-323.75" font-family="Helvetica,sans-Serif" font-size="10.00">&lt; float &gt;::ConstantSensor</text>
</a>
</g>
</g>
<!-- Node16&#45;&gt;Node17 -->
<g id="edge18_Node000016_Node000017" class="edge">
<title>Node16&#45;&gt;Node17</title>
<g id="a_edge18_Node000016_Node000017"><a xlink:title=" ">
<path fill="none" stroke="#63b8ff" d="M177.29,-333.25C164.29,-333.25 150.75,-333.25 137.92,-333.25"/>
<polygon fill="#63b8ff" stroke="#63b8ff" points="177.02,-336.75 187.02,-333.25 177.02,-329.75 177.02,-336.75"/>
</a>
</g>
</g>
<!-- Node19 -->
<g id="Node000019" class="node">
<title>Node19</title>
<g id="a_Node000019"><a xlink:href="classsensesp_1_1_s_k_value_listener.html#a96207a080b2c631c7d873a3b0c100219" target="_top" xlink:title=" ">
<polygon fill="white" stroke="#666666" points="312.88,-299.5 182.12,-299.5 182.12,-269 312.88,-269 312.88,-299.5"/>
<text xml:space="preserve" text-anchor="start" x="190.12" y="-286" font-family="Helvetica,sans-Serif" font-size="10.00">sensesp::SKValueListener</text>
<text xml:space="preserve" text-anchor="middle" x="247.5" y="-274.75" font-family="Helvetica,sans-Serif" font-size="10.00">&lt; float &gt;::SKValueListener</text>
</a>
</g>
</g>
<!-- Node18&#45;&gt;Node19 -->
<g id="edge20_Node000018_Node000019" class="edge">
<title>Node18&#45;&gt;Node19</title>
<g id="a_edge20_Node000018_Node000019"><a xlink:title=" ">
<path fill="none" stroke="#63b8ff" d="M366.3,-284.25C349.16,-284.25 330.59,-284.25 313.37,-284.25"/>
<polygon fill="#63b8ff" stroke="#63b8ff" points="365.81,-287.75 375.81,-284.25 365.81,-280.75 365.81,-287.75"/>
</a>
</g>
</g>
<!-- Node21 -->
<g id="Node000021" class="node">
<title>Node21</title>
<g id="a_Node000021"><a xlink:href="classsensesp_1_1_s_k_put_request.html#a80ba3ee576f74d9e2d522f2d544e5fb0" target="_top" xlink:title=" ">
<polygon fill="white" stroke="#666666" points="309.5,-250.5 185.5,-250.5 185.5,-220 309.5,-220 309.5,-250.5"/>
<text xml:space="preserve" text-anchor="start" x="193.5" y="-237" font-family="Helvetica,sans-Serif" font-size="10.00">sensesp::SKPutRequest</text>
<text xml:space="preserve" text-anchor="middle" x="247.5" y="-225.75" font-family="Helvetica,sans-Serif" font-size="10.00">&lt; float &gt;::SKPutRequest</text>
</a>
</g>
</g>
<!-- Node20&#45;&gt;Node21 -->
<g id="edge22_Node000020_Node000021" class="edge">
<title>Node20&#45;&gt;Node21</title>
<g id="a_edge22_Node000020_Node000021"><a xlink:title=" ">
<path fill="none" stroke="#63b8ff" d="M345.59,-235.25C333.54,-235.25 321.33,-235.25 309.83,-235.25"/>
<polygon fill="#63b8ff" stroke="#63b8ff" points="345.56,-238.75 355.56,-235.25 345.56,-231.75 345.56,-238.75"/>
</a>
</g>
</g>
<!-- Node26 -->
<g id="Node000026" class="node">
<title>Node26</title>
<g id="a_Node000026"><a xlink:href="classsensesp_1_1_transform.html#aa40027f0a8f0c6515c6881da4ad22c69" target="_top" xlink:title=" ">
<polygon fill="white" stroke="#666666" points="299,-54.5 196,-54.5 196,-24 299,-24 299,-54.5"/>
<text xml:space="preserve" text-anchor="start" x="204" y="-41" font-family="Helvetica,sans-Serif" font-size="10.00">sensesp::Transform</text>
<text xml:space="preserve" text-anchor="middle" x="247.5" y="-29.75" font-family="Helvetica,sans-Serif" font-size="10.00">::Transform</text>
</a>
</g>
</g>
<!-- Node25&#45;&gt;Node26 -->
<g id="edge27_Node000025_Node000026" class="edge">
<title>Node25&#45;&gt;Node26</title>
<g id="a_edge27_Node000025_Node000026"><a xlink:title=" ">
<path fill="none" stroke="#63b8ff" d="M356.24,-39.25C337.17,-39.25 317.05,-39.25 299.42,-39.25"/>
<polygon fill="#63b8ff" stroke="#63b8ff" points="356.11,-42.75 366.11,-39.25 356.11,-35.75 356.11,-42.75"/>
</a>
</g>
</g>
<!-- Node27 -->
<g id="Node000027" class="node">
<title>Node27</title>
<g id="a_Node000027"><a xlink:href="classsensesp_1_1_transform.html#ae5c91be8fb39a4f4ade791d500ae210a" target="_top" xlink:title=" ">
<polygon fill="white" stroke="#666666" points="124.38,-79.5 21.38,-79.5 21.38,-49 124.38,-49 124.38,-79.5"/>
<text xml:space="preserve" text-anchor="start" x="29.38" y="-66" font-family="Helvetica,sans-Serif" font-size="10.00">sensesp::Transform</text>
<text xml:space="preserve" text-anchor="middle" x="72.88" y="-54.75" font-family="Helvetica,sans-Serif" font-size="10.00">::connect_from</text>
</a>
</g>
</g>
<!-- Node26&#45;&gt;Node27 -->
<g id="edge28_Node000026_Node000027" class="edge">
<title>Node26&#45;&gt;Node27</title>
<g id="a_edge28_Node000026_Node000027"><a xlink:title=" ">
<path fill="none" stroke="#63b8ff" d="M184.35,-48.25C164.76,-51.09 143.37,-54.19 124.67,-56.89"/>
<polygon fill="#63b8ff" stroke="#63b8ff" points="184.75,-51.73 194.14,-46.83 183.74,-44.8 184.75,-51.73"/>
</a>
</g>
</g>
<!-- Node28 -->
<g id="Node000028" class="node">
<title>Node28</title>
<g id="a_Node000028"><a xlink:href="classsensesp_1_1_threshold_transform.html#af36079db3714b5c0d79e9c8f8c6e6abc" target="_top" xlink:title=" ">
<polygon fill="white" stroke="#666666" points="145.75,-30.5 0,-30.5 0,0 145.75,0 145.75,-30.5"/>
<text xml:space="preserve" text-anchor="start" x="8" y="-17" font-family="Helvetica,sans-Serif" font-size="10.00">sensesp::ThresholdTransform</text>
<text xml:space="preserve" text-anchor="middle" x="72.88" y="-5.75" font-family="Helvetica,sans-Serif" font-size="10.00">&lt; float &gt;::ThresholdTransform</text>
</a>
</g>
</g>
<!-- Node26&#45;&gt;Node28 -->
<g id="edge29_Node000026_Node000028" class="edge">
<title>Node26&#45;&gt;Node28</title>
<g id="a_edge29_Node000026_Node000028"><a xlink:title=" ">
<path fill="none" stroke="#63b8ff" d="M184.46,-30.62C172.03,-28.9 158.86,-27.07 146.11,-25.29"/>
<polygon fill="#63b8ff" stroke="#63b8ff" points="183.75,-34.06 194.14,-31.97 184.72,-27.13 183.75,-34.06"/>
</a>
</g>
</g>
</g>
</svg>
