<?xml version="1.0" encoding="UTF-8" standalone="no"?>
<!DOCTYPE svg PUBLIC "-//W3C//DTD SVG 1.1//EN"
 "http://www.w3.org/Graphics/SVG/1.1/DTD/svg11.dtd">
<!-- Generated by graphviz version 2.44.1 (20200629.0846)
 -->
<!-- Title: SKPutRequestBase Pages: 1 -->
<svg width="164pt" height="84pt"
 viewBox="0.00 0.00 164.00 84.00" xmlns="http://www.w3.org/2000/svg" xmlns:xlink="http://www.w3.org/1999/xlink">
<g id="graph0" class="graph" transform="scale(1 1) rotate(0) translate(4 80)">
<title>SKPutRequestBase</title>
<polygon fill="white" stroke="transparent" points="-4,4 -4,-80 160,-80 160,4 -4,4"/>
<!-- Node4 -->
<g id="node1" class="node">
<title>Node4</title>
<g id="a_node1"><a xlink:title="A base class for all template variations of the PUT request class SKPutRequest. This base class keeps...">
<polygon fill="#bfbfbf" stroke="black" points="24.5,-0.5 24.5,-19.5 128.5,-19.5 128.5,-0.5 24.5,-0.5"/>
<text text-anchor="middle" x="76.5" y="-7.5" font-family="Helvetica,sans-Serif" font-size="10.00">SKPutRequestBase</text>
</a>
</g>
</g>
<!-- Node5 -->
<g id="node2" class="node">
<title>Node5</title>
<g id="a_node2"><a xlink:href="class_s_k_request.html" target="_top" xlink:title="A base class for all objects that are capable of sending &quot;requests&quot; to the SignalK server (and option...">
<polygon fill="white" stroke="black" points="0,-56.5 0,-75.5 67,-75.5 67,-56.5 0,-56.5"/>
<text text-anchor="middle" x="33.5" y="-63.5" font-family="Helvetica,sans-Serif" font-size="10.00">SKRequest</text>
</a>
</g>
</g>
<!-- Node5&#45;&gt;Node4 -->
<g id="edge1" class="edge">
<title>Node5&#45;&gt;Node4</title>
<path fill="none" stroke="midnightblue" d="M46.92,-48.14C54.41,-38.74 63.44,-27.4 69.53,-19.75"/>
<polygon fill="midnightblue" stroke="midnightblue" points="44.09,-46.08 40.6,-56.08 49.57,-50.44 44.09,-46.08"/>
</g>
<!-- Node6 -->
<g id="node3" class="node">
<title>Node6</title>
<g id="a_node3"><a xlink:href="class_configurable.html" target="_top" xlink:title=" ">
<polygon fill="white" stroke="black" points="85,-56.5 85,-75.5 156,-75.5 156,-56.5 85,-56.5"/>
<text text-anchor="middle" x="120.5" y="-63.5" font-family="Helvetica,sans-Serif" font-size="10.00">Configurable</text>
</a>
</g>
</g>
<!-- Node6&#45;&gt;Node4 -->
<g id="edge2" class="edge">
<title>Node6&#45;&gt;Node4</title>
<path fill="none" stroke="midnightblue" d="M106.77,-48.14C99.1,-38.74 89.87,-27.4 83.63,-19.75"/>
<polygon fill="midnightblue" stroke="midnightblue" points="104.2,-50.54 113.23,-56.08 109.63,-46.12 104.2,-50.54"/>
</g>
</g>
</svg>
