<?xml version="1.0" encoding="UTF-8" standalone="no"?>
<!DOCTYPE svg PUBLIC "-//W3C//DTD SVG 1.1//EN"
 "http://www.w3.org/Graphics/SVG/1.1/DTD/svg11.dtd">
<!-- Generated by graphviz version 2.40.1 (20161225.0304)
 -->
<!-- Title: INA219::INA219 Pages: 1 -->
<svg width="420pt" height="37pt"
 viewBox="0.00 0.00 419.86 37.00" xmlns="http://www.w3.org/2000/svg" xmlns:xlink="http://www.w3.org/1999/xlink">
<g id="graph0" class="graph" transform="scale(1 1) rotate(0) translate(4 33)">
<title>INA219::INA219</title>
<polygon fill="#ffffff" stroke="transparent" points="-4,4 -4,-33 415.8555,-33 415.8555,4 -4,4"/>
<!-- Node0 -->
<g id="node1" class="node">
<title>Node0</title>
<g id="a_node1"><a xlink:title=" ">
<polygon fill="#bfbfbf" stroke="#000000" points="0,-5.5 0,-23.5 88.2656,-23.5 88.2656,-5.5 0,-5.5"/>
<text text-anchor="middle" x="44.1328" y="-11.5" font-family="Helvetica,sans-Serif" font-size="10.00" fill="#000000">INA219::INA219</text>
</a>
</g>
</g>
<!-- Node1 -->
<g id="node2" class="node">
<title>Node1</title>
<g id="a_node2"><a xlink:href="class_configurable.html#ac2ba4044c81acc2fc6bf95cce411f6a4" target="_top" xlink:title=" ">
<polygon fill="#ffffff" stroke="#000000" points="124.2656,-.5 124.2656,-28.5 221.4326,-28.5 221.4326,-.5 124.2656,-.5"/>
<text text-anchor="start" x="132.2656" y="-16.5" font-family="Helvetica,sans-Serif" font-size="10.00" fill="#000000">Configurable::load</text>
<text text-anchor="middle" x="172.8491" y="-6.5" font-family="Helvetica,sans-Serif" font-size="10.00" fill="#000000">_configuration</text>
</a>
</g>
</g>
<!-- Node0&#45;&gt;Node1 -->
<g id="edge1" class="edge">
<title>Node0&#45;&gt;Node1</title>
<path fill="none" stroke="#191970" d="M88.4297,-14.5C96.688,-14.5 105.436,-14.5 114.0502,-14.5"/>
<polygon fill="#191970" stroke="#191970" points="114.0637,-18.0001 124.0637,-14.5 114.0637,-11.0001 114.0637,-18.0001"/>
</g>
<!-- Node2 -->
<g id="node3" class="node">
<title>Node2</title>
<g id="a_node3"><a xlink:href="class_configurable.html#a6e0281fe25cfbdf024bdb05147ffb52b" target="_top" xlink:title=" ">
<polygon fill="#ffffff" stroke="#000000" points="257.4326,-5.5 257.4326,-23.5 411.8555,-23.5 411.8555,-5.5 257.4326,-5.5"/>
<text text-anchor="middle" x="334.644" y="-11.5" font-family="Helvetica,sans-Serif" font-size="10.00" fill="#000000">Configurable::set_configuration</text>
</a>
</g>
</g>
<!-- Node1&#45;&gt;Node2 -->
<g id="edge2" class="edge">
<title>Node1&#45;&gt;Node2</title>
<path fill="none" stroke="#191970" d="M221.832,-14.5C229.854,-14.5 238.3746,-14.5 246.9982,-14.5"/>
<polygon fill="#191970" stroke="#191970" points="247.1453,-18.0001 257.1452,-14.5 247.1452,-11.0001 247.1453,-18.0001"/>
</g>
</g>
</svg>
