<?xml version="1.0" encoding="UTF-8" standalone="no"?>
<!DOCTYPE svg PUBLIC "-//W3C//DTD SVG 1.1//EN"
 "http://www.w3.org/Graphics/SVG/1.1/DTD/svg11.dtd">
<!-- Generated by graphviz version 12.1.2 (20240928.0832)
 -->
<!-- Title: sensesp::SKWSClient::send_access_request Pages: 1 -->
<svg width="1004pt" height="294pt"
 viewBox="0.00 0.00 1004.00 293.88" xmlns="http://www.w3.org/2000/svg" xmlns:xlink="http://www.w3.org/1999/xlink">
<g id="graph0" class="graph" transform="scale(1 1) rotate(0) translate(4 289.88)">
<title>sensesp::SKWSClient::send_access_request</title>
<!-- Node1 -->
<g id="Node000001" class="node">
<title>Node1</title>
<g id="a_Node000001"><a xlink:title=" ">
<polygon fill="#999999" stroke="#666666" points="117.25,-205.5 0,-205.5 0,-175 117.25,-175 117.25,-205.5"/>
<text text-anchor="start" x="8" y="-192" font-family="Helvetica,sans-Serif" font-size="10.00">sensesp::SKWSClient</text>
<text text-anchor="middle" x="58.62" y="-180.75" font-family="Helvetica,sans-Serif" font-size="10.00">::send_access_request</text>
</a>
</g>
</g>
<!-- Node2 -->
<g id="Node000002" class="node">
<title>Node2</title>
<g id="a_Node000002"><a xlink:href="namespacesensesp.html#a270290236513f91972b435ad45c4f70b" target="_top" xlink:title="Generate a random UUIDv4 string.">
<polygon fill="white" stroke="#666666" points="286.25,-285.88 161.5,-285.88 161.5,-266.62 286.25,-266.62 286.25,-285.88"/>
<text text-anchor="middle" x="223.88" y="-272.38" font-family="Helvetica,sans-Serif" font-size="10.00">sensesp::generate_uuid4</text>
</a>
</g>
</g>
<!-- Node1&#45;&gt;Node2 -->
<g id="edge1_Node000001_Node000002" class="edge">
<title>Node1&#45;&gt;Node2</title>
<g id="a_edge1_Node000001_Node000002"><a xlink:title=" ">
<path fill="none" stroke="#63b8ff" d="M77.4,-205.94C95.38,-221.06 124.55,-243.61 153.25,-257.25 157.27,-259.16 161.52,-260.91 165.85,-262.5"/>
<polygon fill="#63b8ff" stroke="#63b8ff" points="164.69,-265.8 175.28,-265.66 166.91,-259.17 164.69,-265.8"/>
</a>
</g>
</g>
<!-- Node3 -->
<g id="Node000003" class="node">
<title>Node3</title>
<g id="a_Node000003"><a xlink:href="classsensesp_1_1_sens_e_s_p_base_app.html#a21ba3dc3ef0056c32ad5a67e1ae5ff16" target="_top" xlink:title="Get the current hostname.">
<polygon fill="white" stroke="#666666" points="294.5,-248.5 153.25,-248.5 153.25,-218 294.5,-218 294.5,-248.5"/>
<text text-anchor="start" x="161.25" y="-235" font-family="Helvetica,sans-Serif" font-size="10.00">sensesp::SensESPBaseApp</text>
<text text-anchor="middle" x="223.88" y="-223.75" font-family="Helvetica,sans-Serif" font-size="10.00">::get_hostname</text>
</a>
</g>
</g>
<!-- Node1&#45;&gt;Node3 -->
<g id="edge2_Node000001_Node000003" class="edge">
<title>Node1&#45;&gt;Node3</title>
<g id="a_edge2_Node000001_Node000003"><a xlink:title=" ">
<path fill="none" stroke="#63b8ff" d="M117.64,-205.53C128.82,-208.48 140.65,-211.59 152.18,-214.63"/>
<polygon fill="#63b8ff" stroke="#63b8ff" points="151.09,-217.96 161.65,-217.12 152.87,-211.19 151.09,-217.96"/>
</a>
</g>
</g>
<!-- Node5 -->
<g id="Node000005" class="node">
<title>Node5</title>
<g id="a_Node000005"><a xlink:href="classsensesp_1_1_s_k_w_s_client.html#a05dc57271aa29fbf4f99228331d2194f" target="_top" xlink:title=" ">
<polygon fill="white" stroke="#666666" points="281,-151.5 166.75,-151.5 166.75,-121 281,-121 281,-151.5"/>
<text text-anchor="start" x="174.75" y="-138" font-family="Helvetica,sans-Serif" font-size="10.00">sensesp::SKWSClient</text>
<text text-anchor="middle" x="223.88" y="-126.75" font-family="Helvetica,sans-Serif" font-size="10.00">::poll_access_request</text>
</a>
</g>
</g>
<!-- Node1&#45;&gt;Node5 -->
<g id="edge4_Node000001_Node000005" class="edge">
<title>Node1&#45;&gt;Node5</title>
<g id="a_edge4_Node000001_Node000005"><a xlink:title=" ">
<path fill="none" stroke="#63b8ff" d="M106.84,-174.63C124.87,-168.67 145.64,-161.8 164.58,-155.53"/>
<polygon fill="#63b8ff" stroke="#63b8ff" points="165.65,-158.87 174.04,-152.4 163.45,-152.22 165.65,-158.87"/>
</a>
</g>
</g>
<!-- Node7 -->
<g id="Node000007" class="node">
<title>Node7</title>
<g id="a_Node000007"><a xlink:href="classsensesp_1_1_s_k_w_s_client.html#ac124cc1b358d613e7ad43b9545a97d26" target="_top" xlink:title=" ">
<polygon fill="white" stroke="#666666" points="659.12,-165.5 544.12,-165.5 544.12,-135 659.12,-135 659.12,-165.5"/>
<text text-anchor="start" x="552.12" y="-152" font-family="Helvetica,sans-Serif" font-size="10.00">sensesp::SKWSClient</text>
<text text-anchor="middle" x="601.62" y="-140.75" font-family="Helvetica,sans-Serif" font-size="10.00">::set_connection_state</text>
</a>
</g>
</g>
<!-- Node1&#45;&gt;Node7 -->
<g id="edge16_Node000001_Node000007" class="edge">
<title>Node1&#45;&gt;Node7</title>
<g id="a_edge16_Node000001_Node000007"><a xlink:title=" ">
<path fill="none" stroke="#63b8ff" d="M117.44,-190.37C200.45,-189.95 358.09,-186.88 491.25,-171.25 504.68,-169.67 518.93,-167.39 532.55,-164.91"/>
<polygon fill="#63b8ff" stroke="#63b8ff" points="533.15,-168.36 542.33,-163.06 531.86,-161.48 533.15,-168.36"/>
</a>
</g>
</g>
<!-- Node9 -->
<g id="Node000009" class="node">
<title>Node9</title>
<g id="a_Node000009"><a xlink:href="classsensesp_1_1_file_system_saveable.html#a8fcd302f31b35502d061b769f9efee27" target="_top" xlink:title="Save the object to a persistent storage.">
<polygon fill="white" stroke="#666666" points="485.25,-76.5 336.5,-76.5 336.5,-46 485.25,-46 485.25,-76.5"/>
<text text-anchor="start" x="344.5" y="-63" font-family="Helvetica,sans-Serif" font-size="10.00">sensesp::FileSystemSaveable</text>
<text text-anchor="middle" x="410.88" y="-51.75" font-family="Helvetica,sans-Serif" font-size="10.00">::save</text>
</a>
</g>
</g>
<!-- Node1&#45;&gt;Node9 -->
<g id="edge15_Node000001_Node000009" class="edge">
<title>Node1&#45;&gt;Node9</title>
<g id="a_edge15_Node000001_Node000009"><a xlink:title=" ">
<path fill="none" stroke="#63b8ff" d="M73.54,-174.68C90.52,-156.71 120.98,-127.65 153.25,-112.25 207.1,-86.54 273.25,-73.79 324.91,-67.47"/>
<polygon fill="#63b8ff" stroke="#63b8ff" points="325,-70.98 334.53,-66.35 324.19,-64.02 325,-70.98"/>
</a>
</g>
</g>
<!-- Node4 -->
<g id="Node000004" class="node">
<title>Node4</title>
<g id="a_Node000004"><a xlink:href="classsensesp_1_1_sens_e_s_p_base_app.html#add2c67bb55d095ab9c64f44ab2e82612" target="_top" xlink:title="Get the singleton instance of the SensESPBaseApp.">
<polygon fill="white" stroke="#666666" points="491.25,-242.88 330.5,-242.88 330.5,-223.62 491.25,-223.62 491.25,-242.88"/>
<text text-anchor="middle" x="410.88" y="-229.38" font-family="Helvetica,sans-Serif" font-size="10.00">sensesp::SensESPBaseApp::get</text>
</a>
</g>
</g>
<!-- Node3&#45;&gt;Node4 -->
<g id="edge3_Node000003_Node000004" class="edge">
<title>Node3&#45;&gt;Node4</title>
<g id="a_edge3_Node000003_Node000004"><a xlink:title=" ">
<path fill="none" stroke="#63b8ff" d="M294.82,-233.25C302.67,-233.25 310.76,-233.25 318.84,-233.25"/>
<polygon fill="#63b8ff" stroke="#63b8ff" points="318.71,-236.75 328.71,-233.25 318.71,-229.75 318.71,-236.75"/>
</a>
</g>
</g>
<!-- Node6 -->
<g id="Node000006" class="node">
<title>Node6</title>
<g id="a_Node000006"><a xlink:href="classsensesp_1_1_s_k_w_s_client.html#a2ebcbbfce9e5d6148e69185da36c5040" target="_top" xlink:title=" ">
<polygon fill="white" stroke="#666666" points="468,-162.5 353.75,-162.5 353.75,-132 468,-132 468,-162.5"/>
<text text-anchor="start" x="361.75" y="-149" font-family="Helvetica,sans-Serif" font-size="10.00">sensesp::SKWSClient</text>
<text text-anchor="middle" x="410.88" y="-137.75" font-family="Helvetica,sans-Serif" font-size="10.00">::connect_ws</text>
</a>
</g>
</g>
<!-- Node5&#45;&gt;Node6 -->
<g id="edge5_Node000005_Node000006" class="edge">
<title>Node5&#45;&gt;Node6</title>
<g id="a_edge5_Node000005_Node000006"><a xlink:title=" ">
<path fill="none" stroke="#63b8ff" d="M281.39,-139.61C300.48,-140.75 322.01,-142.03 341.9,-143.21"/>
<polygon fill="#63b8ff" stroke="#63b8ff" points="341.69,-146.7 351.88,-143.8 342.11,-139.71 341.69,-146.7"/>
</a>
</g>
</g>
<!-- Node5&#45;&gt;Node7 -->
<g id="edge14_Node000005_Node000007" class="edge">
<title>Node5&#45;&gt;Node7</title>
<g id="a_edge14_Node000005_Node000007"><a xlink:title=" ">
<path fill="none" stroke="#63b8ff" d="M281.46,-127.95C335.52,-121.33 419.2,-114.49 491.25,-123.25 506.18,-125.07 522.01,-128.23 536.85,-131.76"/>
<polygon fill="#63b8ff" stroke="#63b8ff" points="535.96,-135.15 546.51,-134.16 537.64,-128.35 535.96,-135.15"/>
</a>
</g>
</g>
<!-- Node5&#45;&gt;Node9 -->
<g id="edge8_Node000005_Node000009" class="edge">
<title>Node5&#45;&gt;Node9</title>
<g id="a_edge8_Node000005_Node000009"><a xlink:title=" ">
<path fill="none" stroke="#63b8ff" d="M259.38,-120.59C279.91,-111.44 306.54,-99.83 330.5,-90.25 338.36,-87.11 346.71,-83.9 354.93,-80.83"/>
<polygon fill="#63b8ff" stroke="#63b8ff" points="356.03,-84.16 364.19,-77.41 353.6,-77.6 356.03,-84.16"/>
</a>
</g>
</g>
<!-- Node6&#45;&gt;Node7 -->
<g id="edge6_Node000006_Node000007" class="edge">
<title>Node6&#45;&gt;Node7</title>
<g id="a_edge6_Node000006_Node000007"><a xlink:title=" ">
<path fill="none" stroke="#63b8ff" d="M468.25,-148.15C488.41,-148.47 511.36,-148.83 532.41,-149.17"/>
<polygon fill="#63b8ff" stroke="#63b8ff" points="532.32,-152.66 542.37,-149.32 532.43,-145.67 532.32,-152.66"/>
</a>
</g>
</g>
<!-- Node8 -->
<g id="Node000008" class="node">
<title>Node8</title>
<g id="a_Node000008"><a xlink:href="classsensesp_1_1_task_queue_producer.html#ae3fc9c50c0c606a9ba9e5a8826d32a37" target="_top" xlink:title=" ">
<polygon fill="white" stroke="#666666" points="878.75,-159.88 712,-159.88 712,-140.62 878.75,-140.62 878.75,-159.88"/>
<text text-anchor="middle" x="795.38" y="-146.38" font-family="Helvetica,sans-Serif" font-size="10.00">sensesp::TaskQueueProducer::set</text>
</a>
</g>
</g>
<!-- Node7&#45;&gt;Node8 -->
<g id="edge7_Node000007_Node000008" class="edge">
<title>Node7&#45;&gt;Node8</title>
<g id="a_edge7_Node000007_Node000008"><a xlink:title=" ">
<path fill="none" stroke="#63b8ff" d="M659.38,-150.25C672.36,-150.25 686.5,-150.25 700.58,-150.25"/>
<polygon fill="#63b8ff" stroke="#63b8ff" points="700.32,-153.75 710.32,-150.25 700.32,-146.75 700.32,-153.75"/>
</a>
</g>
</g>
<!-- Node10 -->
<g id="Node000010" class="node">
<title>Node10</title>
<g id="a_Node000010"><a xlink:href="namespacesensesp.html#adad24461f43358c45017cf1cb816ca60" target="_top" xlink:title="A base64&#45;encoded SHA&#45;1 hash function.">
<polygon fill="white" stroke="#666666" points="852.5,-46.88 738.25,-46.88 738.25,-27.62 852.5,-27.62 852.5,-46.88"/>
<text text-anchor="middle" x="795.38" y="-33.38" font-family="Helvetica,sans-Serif" font-size="10.00">sensesp::Base64Sha1</text>
</a>
</g>
</g>
<!-- Node9&#45;&gt;Node10 -->
<g id="edge9_Node000009_Node000010" class="edge">
<title>Node9&#45;&gt;Node10</title>
<g id="a_edge9_Node000009_Node000010"><a xlink:title=" ">
<path fill="none" stroke="#63b8ff" d="M485.62,-56.62C555.3,-52.25 658.93,-45.75 726.58,-41.5"/>
<polygon fill="#63b8ff" stroke="#63b8ff" points="726.68,-45 736.44,-40.89 726.24,-38.02 726.68,-45"/>
</a>
</g>
</g>
<!-- Node12 -->
<g id="Node000012" class="node">
<title>Node12</title>
<g id="a_Node000012"><a xlink:href="classsensesp_1_1_file_system_saveable.html#ad0233f7895b5c8915108399420c7cf0b" target="_top" xlink:title=" ">
<polygon fill="white" stroke="#666666" points="676,-30.5 527.25,-30.5 527.25,0 676,0 676,-30.5"/>
<text text-anchor="start" x="535.25" y="-17" font-family="Helvetica,sans-Serif" font-size="10.00">sensesp::FileSystemSaveable</text>
<text text-anchor="middle" x="601.62" y="-5.75" font-family="Helvetica,sans-Serif" font-size="10.00">::find_config_file</text>
</a>
</g>
</g>
<!-- Node9&#45;&gt;Node12 -->
<g id="edge11_Node000009_Node000012" class="edge">
<title>Node9&#45;&gt;Node12</title>
<g id="a_edge11_Node000009_Node000012"><a xlink:title=" ">
<path fill="none" stroke="#63b8ff" d="M476.3,-45.55C492.01,-41.72 508.95,-37.59 525.12,-33.65"/>
<polygon fill="#63b8ff" stroke="#63b8ff" points="525.81,-37.09 534.7,-31.32 524.15,-30.28 525.81,-37.09"/>
</a>
</g>
</g>
<!-- Node13 -->
<g id="Node000013" class="node">
<title>Node13</title>
<g id="a_Node000013"><a xlink:href="classsensesp_1_1_serializable.html#a8da15a9036f2333f1f3beb4207a06477" target="_top" xlink:title=" ">
<polygon fill="white" stroke="#666666" points="656.12,-116.5 547.12,-116.5 547.12,-86 656.12,-86 656.12,-116.5"/>
<text text-anchor="start" x="555.12" y="-103" font-family="Helvetica,sans-Serif" font-size="10.00">sensesp::Serializable</text>
<text text-anchor="middle" x="601.62" y="-91.75" font-family="Helvetica,sans-Serif" font-size="10.00">::to_json</text>
</a>
</g>
</g>
<!-- Node9&#45;&gt;Node13 -->
<g id="edge13_Node000009_Node000013" class="edge">
<title>Node9&#45;&gt;Node13</title>
<g id="a_edge13_Node000009_Node000013"><a xlink:title=" ">
<path fill="none" stroke="#63b8ff" d="M485.66,-76.89C502.21,-80.39 519.65,-84.09 535.8,-87.51"/>
<polygon fill="#63b8ff" stroke="#63b8ff" points="534.76,-90.87 545.27,-89.52 536.22,-84.02 534.76,-90.87"/>
</a>
</g>
</g>
<!-- Node11 -->
<g id="Node000011" class="node">
<title>Node11</title>
<g id="a_Node000011"><a xlink:href="namespacesensesp.html#a37dfeb5f75b7115464a9aa40473d69cf" target="_top" xlink:title="SHA&#45;1 hash function.">
<polygon fill="white" stroke="#666666" points="996,-46.88 914.75,-46.88 914.75,-27.62 996,-27.62 996,-46.88"/>
<text text-anchor="middle" x="955.38" y="-33.38" font-family="Helvetica,sans-Serif" font-size="10.00">sensesp::Sha1</text>
</a>
</g>
</g>
<!-- Node10&#45;&gt;Node11 -->
<g id="edge10_Node000010_Node000011" class="edge">
<title>Node10&#45;&gt;Node11</title>
<g id="a_edge10_Node000010_Node000011"><a xlink:title=" ">
<path fill="none" stroke="#63b8ff" d="M852.97,-37.25C869.36,-37.25 887.15,-37.25 903.19,-37.25"/>
<polygon fill="#63b8ff" stroke="#63b8ff" points="903,-40.75 913,-37.25 903,-33.75 903,-40.75"/>
</a>
</g>
</g>
<!-- Node12&#45;&gt;Node10 -->
<g id="edge12_Node000012_Node000010" class="edge">
<title>Node12&#45;&gt;Node10</title>
<g id="a_edge12_Node000012_Node000010"><a xlink:title=" ">
<path fill="none" stroke="#63b8ff" d="M676.49,-23.72C693.03,-25.62 710.5,-27.63 726.77,-29.49"/>
<polygon fill="#63b8ff" stroke="#63b8ff" points="725.99,-32.93 736.32,-30.59 726.78,-25.97 725.99,-32.93"/>
</a>
</g>
</g>
</g>
</svg>
