<?xml version="1.0" encoding="UTF-8" standalone="no"?>
<!DOCTYPE svg PUBLIC "-//W3C//DTD SVG 1.1//EN"
 "http://www.w3.org/Graphics/SVG/1.1/DTD/svg11.dtd">
<!-- Generated by graphviz version 14.1.4 (20260321.0153)
 -->
<!-- Title: sensesp::WiFiProvisioner::WiFiProvisioner Pages: 1 -->
<svg width="879pt" height="333pt"
 viewBox="0.00 0.00 879.00 333.00" xmlns="http://www.w3.org/2000/svg" xmlns:xlink="http://www.w3.org/1999/xlink">
<g id="graph0" class="graph" transform="scale(1 1) rotate(0) translate(4 328.5)">
<title>sensesp::WiFiProvisioner::WiFiProvisioner</title>
<!-- Node1 -->
<g id="Node000001" class="node">
<title>Node1</title>
<g id="a_Node000001"><a xlink:title=" ">
<polygon fill="#999999" stroke="#666666" points="127.75,-189.5 0,-189.5 0,-159 127.75,-159 127.75,-189.5"/>
<text xml:space="preserve" text-anchor="start" x="8" y="-176" font-family="Helvetica,sans-Serif" font-size="10.00">sensesp::WiFiProvisioner</text>
<text xml:space="preserve" text-anchor="middle" x="63.88" y="-164.75" font-family="Helvetica,sans-Serif" font-size="10.00">::WiFiProvisioner</text>
</a>
</g>
</g>
<!-- Node2 -->
<g id="Node000002" class="node">
<title>Node2</title>
<g id="a_Node000002"><a xlink:href="namespacesensesp.html#a1c1105507d71491cf4e0505eaabb2e49" target="_top" xlink:title=" ">
<polygon fill="white" stroke="#666666" points="475.88,-183.88 369.88,-183.88 369.88,-164.62 475.88,-164.62 475.88,-183.88"/>
<text xml:space="preserve" text-anchor="middle" x="422.88" y="-170.38" font-family="Helvetica,sans-Serif" font-size="10.00">sensesp::event_loop</text>
</a>
</g>
</g>
<!-- Node1&#45;&gt;Node2 -->
<g id="edge1_Node000001_Node000002" class="edge">
<title>Node1&#45;&gt;Node2</title>
<g id="a_edge1_Node000001_Node000002"><a xlink:title=" ">
<path fill="none" stroke="#63b8ff" d="M79.5,-158.59C97.38,-140.73 129.5,-112.52 163.75,-101.25 226.55,-80.58 249.23,-82.08 312.5,-101.25 348.12,-112.04 382.73,-138.7 403.17,-156.63"/>
<polygon fill="#63b8ff" stroke="#63b8ff" points="400.63,-159.05 410.39,-163.15 405.32,-153.85 400.63,-159.05"/>
</a>
</g>
</g>
<!-- Node5 -->
<g id="Node000005" class="node">
<title>Node5</title>
<g id="a_Node000005"><a xlink:href="classsensesp_1_1_file_system_saveable.html#a974f062b375cf8637944f121084cf9f7" target="_top" xlink:title=" ">
<polygon fill="white" stroke="#666666" points="312.5,-324.5 163.75,-324.5 163.75,-294 312.5,-294 312.5,-324.5"/>
<text xml:space="preserve" text-anchor="start" x="171.75" y="-311" font-family="Helvetica,sans-Serif" font-size="10.00">sensesp::FileSystemSaveable</text>
<text xml:space="preserve" text-anchor="middle" x="238.12" y="-299.75" font-family="Helvetica,sans-Serif" font-size="10.00">::FileSystemSaveable</text>
</a>
</g>
</g>
<!-- Node1&#45;&gt;Node5 -->
<g id="edge4_Node000001_Node000005" class="edge">
<title>Node1&#45;&gt;Node5</title>
<g id="a_edge4_Node000001_Node000005"><a xlink:title=" ">
<path fill="none" stroke="#63b8ff" d="M74.84,-189.67C90.86,-213.27 124.53,-258.36 163.75,-284.25 166.11,-285.81 168.57,-287.28 171.11,-288.66"/>
<polygon fill="#63b8ff" stroke="#63b8ff" points="169.32,-291.68 179.84,-292.94 172.4,-285.4 169.32,-291.68"/>
</a>
</g>
</g>
<!-- Node7 -->
<g id="Node000007" class="node">
<title>Node7</title>
<g id="a_Node000007"><a xlink:href="classsensesp_1_1_sens_e_s_p_base_app.html#a21ba3dc3ef0056c32ad5a67e1ae5ff16" target="_top" xlink:title="Get the current hostname.">
<polygon fill="white" stroke="#666666" points="493.5,-232.5 352.25,-232.5 352.25,-202 493.5,-202 493.5,-232.5"/>
<text xml:space="preserve" text-anchor="start" x="360.25" y="-219" font-family="Helvetica,sans-Serif" font-size="10.00">sensesp::SensESPBaseApp</text>
<text xml:space="preserve" text-anchor="middle" x="422.88" y="-207.75" font-family="Helvetica,sans-Serif" font-size="10.00">::get_hostname</text>
</a>
</g>
</g>
<!-- Node1&#45;&gt;Node7 -->
<g id="edge6_Node000001_Node000007" class="edge">
<title>Node1&#45;&gt;Node7</title>
<g id="a_edge6_Node000001_Node000007"><a xlink:title=" ">
<path fill="none" stroke="#63b8ff" d="M122.59,-189.95C136.01,-193.13 150.31,-196.14 163.75,-198.25 222.56,-207.49 289.63,-212.25 340.66,-214.7"/>
<polygon fill="#63b8ff" stroke="#63b8ff" points="340.29,-218.19 350.44,-215.15 340.61,-211.19 340.29,-218.19"/>
</a>
</g>
</g>
<!-- Node8 -->
<g id="Node000008" class="node">
<title>Node8</title>
<g id="a_Node000008"><a xlink:href="classsensesp_1_1_file_system_saveable.html#a79b2e2e657112851dfda8785d217578a" target="_top" xlink:title="Load and populate the object from a persistent storage.">
<polygon fill="white" stroke="#666666" points="312.5,-54.5 163.75,-54.5 163.75,-24 312.5,-24 312.5,-54.5"/>
<text xml:space="preserve" text-anchor="start" x="171.75" y="-41" font-family="Helvetica,sans-Serif" font-size="10.00">sensesp::FileSystemSaveable</text>
<text xml:space="preserve" text-anchor="middle" x="238.12" y="-29.75" font-family="Helvetica,sans-Serif" font-size="10.00">::load</text>
</a>
</g>
</g>
<!-- Node1&#45;&gt;Node8 -->
<g id="edge8_Node000001_Node000008" class="edge">
<title>Node1&#45;&gt;Node8</title>
<g id="a_edge8_Node000001_Node000008"><a xlink:title=" ">
<path fill="none" stroke="#63b8ff" d="M75.95,-158.52C92.64,-135.8 126.32,-93.76 163.75,-68.25 168.37,-65.1 173.38,-62.22 178.55,-59.6"/>
<polygon fill="#63b8ff" stroke="#63b8ff" points="179.66,-62.94 187.23,-55.52 176.69,-56.6 179.66,-62.94"/>
</a>
</g>
</g>
<!-- Node13 -->
<g id="Node000013" class="node">
<title>Node13</title>
<g id="a_Node000013"><a xlink:href="classsensesp_1_1_resettable.html#a8ea93b67d80ff4769925d6398074c30b" target="_top" xlink:title=" ">
<polygon fill="white" stroke="#666666" points="291.12,-140.5 185.12,-140.5 185.12,-110 291.12,-110 291.12,-140.5"/>
<text xml:space="preserve" text-anchor="start" x="193.12" y="-127" font-family="Helvetica,sans-Serif" font-size="10.00">sensesp::Resettable</text>
<text xml:space="preserve" text-anchor="middle" x="238.12" y="-115.75" font-family="Helvetica,sans-Serif" font-size="10.00">::Resettable</text>
</a>
</g>
</g>
<!-- Node1&#45;&gt;Node13 -->
<g id="edge13_Node000001_Node000013" class="edge">
<title>Node1&#45;&gt;Node13</title>
<g id="a_edge13_Node000001_Node000013"><a xlink:title=" ">
<path fill="none" stroke="#63b8ff" d="M119.85,-158.61C137.05,-153.72 156.17,-148.28 173.9,-143.24"/>
<polygon fill="#63b8ff" stroke="#63b8ff" points="174.61,-146.67 183.27,-140.57 172.69,-139.94 174.61,-146.67"/>
</a>
</g>
</g>
<!-- Node14 -->
<g id="Node000014" class="node">
<title>Node14</title>
<g id="a_Node000014"><a xlink:href="classsensesp_1_1_wi_fi_provisioner.html#a0732d545d98a4f5ba67e15cd17bfe7c9" target="_top" xlink:title=" ">
<polygon fill="white" stroke="#666666" points="302,-275.5 174.25,-275.5 174.25,-245 302,-245 302,-275.5"/>
<text xml:space="preserve" text-anchor="start" x="182.25" y="-262" font-family="Helvetica,sans-Serif" font-size="10.00">sensesp::WiFiProvisioner</text>
<text xml:space="preserve" text-anchor="middle" x="238.12" y="-250.75" font-family="Helvetica,sans-Serif" font-size="10.00">::start_access_point</text>
</a>
</g>
</g>
<!-- Node1&#45;&gt;Node14 -->
<g id="edge14_Node000001_Node000014" class="edge">
<title>Node1&#45;&gt;Node14</title>
<g id="a_edge14_Node000001_Node000014"><a xlink:title=" ">
<path fill="none" stroke="#63b8ff" d="M89.52,-189.81C109.2,-201.9 137.7,-218.68 163.75,-231.25 170.15,-234.34 176.96,-237.36 183.76,-240.23"/>
<polygon fill="#63b8ff" stroke="#63b8ff" points="182.4,-243.45 192.98,-244 185.05,-236.97 182.4,-243.45"/>
</a>
</g>
</g>
<!-- Node15 -->
<g id="Node000015" class="node">
<title>Node15</title>
<g id="a_Node000015"><a xlink:href="classsensesp_1_1_wi_fi_provisioner.html#adfbeba136d5434140a26e62d2eeceae1" target="_top" xlink:title=" ">
<polygon fill="white" stroke="#666666" points="302.38,-189.5 173.88,-189.5 173.88,-159 302.38,-159 302.38,-189.5"/>
<text xml:space="preserve" text-anchor="start" x="181.88" y="-176" font-family="Helvetica,sans-Serif" font-size="10.00">sensesp::WiFiProvisioner</text>
<text xml:space="preserve" text-anchor="middle" x="238.12" y="-164.75" font-family="Helvetica,sans-Serif" font-size="10.00">::start_client_autoconnect</text>
</a>
</g>
</g>
<!-- Node1&#45;&gt;Node15 -->
<g id="edge16_Node000001_Node000015" class="edge">
<title>Node1&#45;&gt;Node15</title>
<g id="a_edge16_Node000001_Node000015"><a xlink:title=" ">
<path fill="none" stroke="#63b8ff" d="M128.04,-174.25C139.13,-174.25 150.76,-174.25 162.14,-174.25"/>
<polygon fill="#63b8ff" stroke="#63b8ff" points="161.88,-177.75 171.88,-174.25 161.88,-170.75 161.88,-177.75"/>
</a>
</g>
</g>
<!-- Node3 -->
<g id="Node000003" class="node">
<title>Node3</title>
<g id="a_Node000003"><a xlink:href="classsensesp_1_1_sens_e_s_p_base_app.html#a28c20eed17bfc460e6686a11c5b3b107" target="_top" xlink:title="Get the event loop object from the singleton SensESPBaseApp instance.">
<polygon fill="white" stroke="#666666" points="674.5,-189.5 533.25,-189.5 533.25,-159 674.5,-159 674.5,-189.5"/>
<text xml:space="preserve" text-anchor="start" x="541.25" y="-176" font-family="Helvetica,sans-Serif" font-size="10.00">sensesp::SensESPBaseApp</text>
<text xml:space="preserve" text-anchor="middle" x="603.88" y="-164.75" font-family="Helvetica,sans-Serif" font-size="10.00">::get_event_loop</text>
</a>
</g>
</g>
<!-- Node2&#45;&gt;Node3 -->
<g id="edge2_Node000002_Node000003" class="edge">
<title>Node2&#45;&gt;Node3</title>
<g id="a_edge2_Node000002_Node000003"><a xlink:title=" ">
<path fill="none" stroke="#63b8ff" d="M476.13,-174.25C490.41,-174.25 506.24,-174.25 521.72,-174.25"/>
<polygon fill="#63b8ff" stroke="#63b8ff" points="521.4,-177.75 531.4,-174.25 521.4,-170.75 521.4,-177.75"/>
</a>
</g>
</g>
<!-- Node4 -->
<g id="Node000004" class="node">
<title>Node4</title>
<g id="a_Node000004"><a xlink:href="classsensesp_1_1_sens_e_s_p_base_app.html#add2c67bb55d095ab9c64f44ab2e82612" target="_top" xlink:title="Get the singleton instance of the SensESPBaseApp.">
<polygon fill="white" stroke="#666666" points="871.25,-204.88 710.5,-204.88 710.5,-185.62 871.25,-185.62 871.25,-204.88"/>
<text xml:space="preserve" text-anchor="middle" x="790.88" y="-191.38" font-family="Helvetica,sans-Serif" font-size="10.00">sensesp::SensESPBaseApp::get</text>
</a>
</g>
</g>
<!-- Node3&#45;&gt;Node4 -->
<g id="edge3_Node000003_Node000004" class="edge">
<title>Node3&#45;&gt;Node4</title>
<g id="a_edge3_Node000003_Node000004"><a xlink:title=" ">
<path fill="none" stroke="#63b8ff" d="M674.82,-182.19C682.67,-183.08 690.76,-184 698.84,-184.92"/>
<polygon fill="#63b8ff" stroke="#63b8ff" points="698.39,-188.39 708.72,-186.04 699.18,-181.43 698.39,-188.39"/>
</a>
</g>
</g>
<!-- Node6 -->
<g id="Node000006" class="node">
<title>Node6</title>
<g id="a_Node000006"><a xlink:href="classsensesp_1_1_saveable.html#abaa7864f4f35be033ad5f32a379051d7" target="_top" xlink:title=" ">
<polygon fill="white" stroke="#666666" points="475.5,-324.5 370.25,-324.5 370.25,-294 475.5,-294 475.5,-324.5"/>
<text xml:space="preserve" text-anchor="start" x="378.25" y="-311" font-family="Helvetica,sans-Serif" font-size="10.00">sensesp::Saveable::</text>
<text xml:space="preserve" text-anchor="middle" x="422.88" y="-299.75" font-family="Helvetica,sans-Serif" font-size="10.00">Saveable</text>
</a>
</g>
</g>
<!-- Node5&#45;&gt;Node6 -->
<g id="edge5_Node000005_Node000006" class="edge">
<title>Node5&#45;&gt;Node6</title>
<g id="a_edge5_Node000005_Node000006"><a xlink:title=" ">
<path fill="none" stroke="#63b8ff" d="M312.93,-309.25C328.17,-309.25 344.08,-309.25 358.89,-309.25"/>
<polygon fill="#63b8ff" stroke="#63b8ff" points="358.45,-312.75 368.45,-309.25 358.45,-305.75 358.45,-312.75"/>
</a>
</g>
</g>
<!-- Node7&#45;&gt;Node4 -->
<g id="edge7_Node000007_Node000004" class="edge">
<title>Node7&#45;&gt;Node4</title>
<g id="a_edge7_Node000007_Node000004"><a xlink:title=" ">
<path fill="none" stroke="#63b8ff" d="M493.58,-213.06C551.88,-209.56 635.49,-204.53 699.03,-200.71"/>
<polygon fill="#63b8ff" stroke="#63b8ff" points="698.97,-204.22 708.74,-200.13 698.55,-197.23 698.97,-204.22"/>
</a>
</g>
</g>
<!-- Node9 -->
<g id="Node000009" class="node">
<title>Node9</title>
<g id="a_Node000009"><a xlink:href="classsensesp_1_1_file_system_saveable.html#ad0233f7895b5c8915108399420c7cf0b" target="_top" xlink:title=" ">
<polygon fill="white" stroke="#666666" points="497.25,-30.5 348.5,-30.5 348.5,0 497.25,0 497.25,-30.5"/>
<text xml:space="preserve" text-anchor="start" x="356.5" y="-17" font-family="Helvetica,sans-Serif" font-size="10.00">sensesp::FileSystemSaveable</text>
<text xml:space="preserve" text-anchor="middle" x="422.88" y="-5.75" font-family="Helvetica,sans-Serif" font-size="10.00">::find_config_file</text>
</a>
</g>
</g>
<!-- Node8&#45;&gt;Node9 -->
<g id="edge9_Node000008_Node000009" class="edge">
<title>Node8&#45;&gt;Node9</title>
<g id="a_edge9_Node000008_Node000009"><a xlink:title=" ">
<path fill="none" stroke="#63b8ff" d="M312.93,-29.56C320.81,-28.52 328.87,-27.46 336.86,-26.41"/>
<polygon fill="#63b8ff" stroke="#63b8ff" points="337.13,-29.91 346.59,-25.14 336.22,-22.97 337.13,-29.91"/>
</a>
</g>
</g>
<!-- Node12 -->
<g id="Node000012" class="node">
<title>Node12</title>
<g id="a_Node000012"><a xlink:href="classsensesp_1_1_serializable.html#a841233a82ef3a7fbcecd5a15b0df12d2" target="_top" xlink:title=" ">
<polygon fill="white" stroke="#666666" points="477.38,-79.5 368.38,-79.5 368.38,-49 477.38,-49 477.38,-79.5"/>
<text xml:space="preserve" text-anchor="start" x="376.38" y="-66" font-family="Helvetica,sans-Serif" font-size="10.00">sensesp::Serializable</text>
<text xml:space="preserve" text-anchor="middle" x="422.88" y="-54.75" font-family="Helvetica,sans-Serif" font-size="10.00">::from_json</text>
</a>
</g>
</g>
<!-- Node8&#45;&gt;Node12 -->
<g id="edge12_Node000008_Node000012" class="edge">
<title>Node8&#45;&gt;Node12</title>
<g id="a_edge12_Node000008_Node000012"><a xlink:title=" ">
<path fill="none" stroke="#63b8ff" d="M312.93,-49.35C327.47,-51.34 342.62,-53.41 356.85,-55.35"/>
<polygon fill="#63b8ff" stroke="#63b8ff" points="356.14,-58.79 366.53,-56.68 357.09,-51.86 356.14,-58.79"/>
</a>
</g>
</g>
<!-- Node10 -->
<g id="Node000010" class="node">
<title>Node10</title>
<g id="a_Node000010"><a xlink:href="namespacesensesp.html#adad24461f43358c45017cf1cb816ca60" target="_top" xlink:title="A base64&#45;encoded SHA&#45;1 hash function.">
<polygon fill="white" stroke="#666666" points="661,-24.88 546.75,-24.88 546.75,-5.63 661,-5.63 661,-24.88"/>
<text xml:space="preserve" text-anchor="middle" x="603.88" y="-11.38" font-family="Helvetica,sans-Serif" font-size="10.00">sensesp::Base64Sha1</text>
</a>
</g>
</g>
<!-- Node9&#45;&gt;Node10 -->
<g id="edge10_Node000009_Node000010" class="edge">
<title>Node9&#45;&gt;Node10</title>
<g id="a_edge10_Node000009_Node000010"><a xlink:title=" ">
<path fill="none" stroke="#63b8ff" d="M497.71,-15.25C510.05,-15.25 522.79,-15.25 534.97,-15.25"/>
<polygon fill="#63b8ff" stroke="#63b8ff" points="534.92,-18.75 544.92,-15.25 534.92,-11.75 534.92,-18.75"/>
</a>
</g>
</g>
<!-- Node11 -->
<g id="Node000011" class="node">
<title>Node11</title>
<g id="a_Node000011"><a xlink:href="namespacesensesp.html#a37dfeb5f75b7115464a9aa40473d69cf" target="_top" xlink:title="SHA&#45;1 hash function.">
<polygon fill="white" stroke="#666666" points="831.5,-24.88 750.25,-24.88 750.25,-5.63 831.5,-5.63 831.5,-24.88"/>
<text xml:space="preserve" text-anchor="middle" x="790.88" y="-11.38" font-family="Helvetica,sans-Serif" font-size="10.00">sensesp::Sha1</text>
</a>
</g>
</g>
<!-- Node10&#45;&gt;Node11 -->
<g id="edge11_Node000010_Node000011" class="edge">
<title>Node10&#45;&gt;Node11</title>
<g id="a_edge11_Node000010_Node000011"><a xlink:title=" ">
<path fill="none" stroke="#63b8ff" d="M661.39,-15.25C685.95,-15.25 714.53,-15.25 738.48,-15.25"/>
<polygon fill="#63b8ff" stroke="#63b8ff" points="738.32,-18.75 748.32,-15.25 738.32,-11.75 738.32,-18.75"/>
</a>
</g>
</g>
<!-- Node14&#45;&gt;Node7 -->
<g id="edge15_Node000014_Node000007" class="edge">
<title>Node14&#45;&gt;Node7</title>
<g id="a_edge15_Node000014_Node000007"><a xlink:title=" ">
<path fill="none" stroke="#63b8ff" d="M302.27,-245.39C315.71,-242.23 330.04,-238.86 343.95,-235.59"/>
<polygon fill="#63b8ff" stroke="#63b8ff" points="344.58,-239.03 353.51,-233.33 342.98,-232.22 344.58,-239.03"/>
</a>
</g>
</g>
<!-- Node15&#45;&gt;Node2 -->
<g id="edge17_Node000015_Node000002" class="edge">
<title>Node15&#45;&gt;Node2</title>
<g id="a_edge17_Node000015_Node000002"><a xlink:title=" ">
<path fill="none" stroke="#63b8ff" d="M302.79,-174.25C320.79,-174.25 340.37,-174.25 358.36,-174.25"/>
<polygon fill="#63b8ff" stroke="#63b8ff" points="358.11,-177.75 368.11,-174.25 358.11,-170.75 358.11,-177.75"/>
</a>
</g>
</g>
<!-- Node15&#45;&gt;Node7 -->
<g id="edge18_Node000015_Node000007" class="edge">
<title>Node15&#45;&gt;Node7</title>
<g id="a_edge18_Node000015_Node000007"><a xlink:title=" ">
<path fill="none" stroke="#63b8ff" d="M302.79,-189.23C316.12,-192.37 330.32,-195.71 344.09,-198.95"/>
<polygon fill="#63b8ff" stroke="#63b8ff" points="343.02,-202.29 353.55,-201.17 344.62,-195.48 343.02,-202.29"/>
</a>
</g>
</g>
</g>
</svg>
