<?xml version="1.0" encoding="UTF-8" standalone="no"?>
<!DOCTYPE svg PUBLIC "-//W3C//DTD SVG 1.1//EN"
 "http://www.w3.org/Graphics/SVG/1.1/DTD/svg11.dtd">
<!-- Generated by graphviz version 14.1.4 (20260321.0153)
 -->
<!-- Title: sensesp::SelectConfig::SelectConfig Pages: 1 -->
<svg width="760pt" height="137pt"
 viewBox="0.00 0.00 760.00 137.00" xmlns="http://www.w3.org/2000/svg" xmlns:xlink="http://www.w3.org/1999/xlink">
<g id="graph0" class="graph" transform="scale(1 1) rotate(0) translate(4 132.5)">
<title>sensesp::SelectConfig::SelectConfig</title>
<!-- Node1 -->
<g id="Node000001" class="node">
<title>Node1</title>
<g id="a_Node000001"><a xlink:title=" ">
<polygon fill="#999999" stroke="#666666" points="115,-103.5 0,-103.5 0,-73 115,-73 115,-103.5"/>
<text xml:space="preserve" text-anchor="start" x="8" y="-90" font-family="Helvetica,sans-Serif" font-size="10.00">sensesp::SelectConfig</text>
<text xml:space="preserve" text-anchor="middle" x="57.5" y="-78.75" font-family="Helvetica,sans-Serif" font-size="10.00">::SelectConfig</text>
</a>
</g>
</g>
<!-- Node2 -->
<g id="Node000002" class="node">
<title>Node2</title>
<g id="a_Node000002"><a xlink:href="classsensesp_1_1_file_system_saveable.html#a974f062b375cf8637944f121084cf9f7" target="_top" xlink:title=" ">
<polygon fill="white" stroke="#666666" points="299.75,-128.5 151,-128.5 151,-98 299.75,-98 299.75,-128.5"/>
<text xml:space="preserve" text-anchor="start" x="159" y="-115" font-family="Helvetica,sans-Serif" font-size="10.00">sensesp::FileSystemSaveable</text>
<text xml:space="preserve" text-anchor="middle" x="225.38" y="-103.75" font-family="Helvetica,sans-Serif" font-size="10.00">::FileSystemSaveable</text>
</a>
</g>
</g>
<!-- Node1&#45;&gt;Node2 -->
<g id="edge1_Node000001_Node000002" class="edge">
<title>Node1&#45;&gt;Node2</title>
<g id="a_edge1_Node000001_Node000002"><a xlink:title=" ">
<path fill="none" stroke="#63b8ff" d="M115.12,-96.78C122.99,-97.97 131.22,-99.21 139.47,-100.45"/>
<polygon fill="#63b8ff" stroke="#63b8ff" points="138.8,-103.89 149.21,-101.92 139.84,-96.97 138.8,-103.89"/>
</a>
</g>
</g>
<!-- Node4 -->
<g id="Node000004" class="node">
<title>Node4</title>
<g id="a_Node000004"><a xlink:href="classsensesp_1_1_file_system_saveable.html#a79b2e2e657112851dfda8785d217578a" target="_top" xlink:title="Load and populate the object from a persistent storage.">
<polygon fill="white" stroke="#666666" points="299.75,-79.5 151,-79.5 151,-49 299.75,-49 299.75,-79.5"/>
<text xml:space="preserve" text-anchor="start" x="159" y="-66" font-family="Helvetica,sans-Serif" font-size="10.00">sensesp::FileSystemSaveable</text>
<text xml:space="preserve" text-anchor="middle" x="225.38" y="-54.75" font-family="Helvetica,sans-Serif" font-size="10.00">::load</text>
</a>
</g>
</g>
<!-- Node1&#45;&gt;Node4 -->
<g id="edge3_Node000001_Node000004" class="edge">
<title>Node1&#45;&gt;Node4</title>
<g id="a_edge3_Node000001_Node000004"><a xlink:title=" ">
<path fill="none" stroke="#63b8ff" d="M115.12,-80.06C122.99,-78.92 131.22,-77.73 139.47,-76.53"/>
<polygon fill="#63b8ff" stroke="#63b8ff" points="139.81,-80.02 149.21,-75.13 138.81,-73.09 139.81,-80.02"/>
</a>
</g>
</g>
<!-- Node3 -->
<g id="Node000003" class="node">
<title>Node3</title>
<g id="a_Node000003"><a xlink:href="classsensesp_1_1_saveable.html#abaa7864f4f35be033ad5f32a379051d7" target="_top" xlink:title=" ">
<polygon fill="white" stroke="#666666" points="462.75,-128.5 357.5,-128.5 357.5,-98 462.75,-98 462.75,-128.5"/>
<text xml:space="preserve" text-anchor="start" x="365.5" y="-115" font-family="Helvetica,sans-Serif" font-size="10.00">sensesp::Saveable::</text>
<text xml:space="preserve" text-anchor="middle" x="410.12" y="-103.75" font-family="Helvetica,sans-Serif" font-size="10.00">Saveable</text>
</a>
</g>
</g>
<!-- Node2&#45;&gt;Node3 -->
<g id="edge2_Node000002_Node000003" class="edge">
<title>Node2&#45;&gt;Node3</title>
<g id="a_edge2_Node000002_Node000003"><a xlink:title=" ">
<path fill="none" stroke="#63b8ff" d="M300.18,-113.25C315.42,-113.25 331.33,-113.25 346.14,-113.25"/>
<polygon fill="#63b8ff" stroke="#63b8ff" points="345.7,-116.75 355.7,-113.25 345.7,-109.75 345.7,-116.75"/>
</a>
</g>
</g>
<!-- Node5 -->
<g id="Node000005" class="node">
<title>Node5</title>
<g id="a_Node000005"><a xlink:href="classsensesp_1_1_file_system_saveable.html#ad0233f7895b5c8915108399420c7cf0b" target="_top" xlink:title=" ">
<polygon fill="white" stroke="#666666" points="484.5,-79.5 335.75,-79.5 335.75,-49 484.5,-49 484.5,-79.5"/>
<text xml:space="preserve" text-anchor="start" x="343.75" y="-66" font-family="Helvetica,sans-Serif" font-size="10.00">sensesp::FileSystemSaveable</text>
<text xml:space="preserve" text-anchor="middle" x="410.12" y="-54.75" font-family="Helvetica,sans-Serif" font-size="10.00">::find_config_file</text>
</a>
</g>
</g>
<!-- Node4&#45;&gt;Node5 -->
<g id="edge4_Node000004_Node000005" class="edge">
<title>Node4&#45;&gt;Node5</title>
<g id="a_edge4_Node000004_Node000005"><a xlink:title=" ">
<path fill="none" stroke="#63b8ff" d="M300.18,-64.25C307.97,-64.25 315.93,-64.25 323.83,-64.25"/>
<polygon fill="#63b8ff" stroke="#63b8ff" points="323.83,-67.75 333.83,-64.25 323.83,-60.75 323.83,-67.75"/>
</a>
</g>
</g>
<!-- Node8 -->
<g id="Node000008" class="node">
<title>Node8</title>
<g id="a_Node000008"><a xlink:href="classsensesp_1_1_serializable.html#a841233a82ef3a7fbcecd5a15b0df12d2" target="_top" xlink:title=" ">
<polygon fill="white" stroke="#666666" points="464.62,-30.5 355.62,-30.5 355.62,0 464.62,0 464.62,-30.5"/>
<text xml:space="preserve" text-anchor="start" x="363.62" y="-17" font-family="Helvetica,sans-Serif" font-size="10.00">sensesp::Serializable</text>
<text xml:space="preserve" text-anchor="middle" x="410.12" y="-5.75" font-family="Helvetica,sans-Serif" font-size="10.00">::from_json</text>
</a>
</g>
</g>
<!-- Node4&#45;&gt;Node8 -->
<g id="edge7_Node000004_Node000008" class="edge">
<title>Node4&#45;&gt;Node8</title>
<g id="a_edge7_Node000004_Node000008"><a xlink:title=" ">
<path fill="none" stroke="#63b8ff" d="M284.95,-48.54C303.89,-43.47 325,-37.81 344.36,-32.62"/>
<polygon fill="#63b8ff" stroke="#63b8ff" points="345,-36.07 353.76,-30.1 343.19,-29.31 345,-36.07"/>
</a>
</g>
</g>
<!-- Node6 -->
<g id="Node000006" class="node">
<title>Node6</title>
<g id="a_Node000006"><a xlink:href="namespacesensesp.html#adad24461f43358c45017cf1cb816ca60" target="_top" xlink:title="A base64&#45;encoded SHA&#45;1 hash function.">
<polygon fill="white" stroke="#666666" points="634.75,-73.88 520.5,-73.88 520.5,-54.62 634.75,-54.62 634.75,-73.88"/>
<text xml:space="preserve" text-anchor="middle" x="577.62" y="-60.38" font-family="Helvetica,sans-Serif" font-size="10.00">sensesp::Base64Sha1</text>
</a>
</g>
</g>
<!-- Node5&#45;&gt;Node6 -->
<g id="edge5_Node000005_Node000006" class="edge">
<title>Node5&#45;&gt;Node6</title>
<g id="a_edge5_Node000005_Node000006"><a xlink:title=" ">
<path fill="none" stroke="#63b8ff" d="M484.68,-64.25C492.68,-64.25 500.8,-64.25 508.74,-64.25"/>
<polygon fill="#63b8ff" stroke="#63b8ff" points="508.67,-67.75 518.67,-64.25 508.67,-60.75 508.67,-67.75"/>
</a>
</g>
</g>
<!-- Node7 -->
<g id="Node000007" class="node">
<title>Node7</title>
<g id="a_Node000007"><a xlink:href="namespacesensesp.html#a37dfeb5f75b7115464a9aa40473d69cf" target="_top" xlink:title="SHA&#45;1 hash function.">
<polygon fill="white" stroke="#666666" points="752,-73.88 670.75,-73.88 670.75,-54.62 752,-54.62 752,-73.88"/>
<text xml:space="preserve" text-anchor="middle" x="711.38" y="-60.38" font-family="Helvetica,sans-Serif" font-size="10.00">sensesp::Sha1</text>
</a>
</g>
</g>
<!-- Node6&#45;&gt;Node7 -->
<g id="edge6_Node000006_Node000007" class="edge">
<title>Node6&#45;&gt;Node7</title>
<g id="a_edge6_Node000006_Node000007"><a xlink:title=" ">
<path fill="none" stroke="#63b8ff" d="M634.88,-64.25C642.96,-64.25 651.24,-64.25 659.22,-64.25"/>
<polygon fill="#63b8ff" stroke="#63b8ff" points="659.12,-67.75 669.12,-64.25 659.12,-60.75 659.12,-67.75"/>
</a>
</g>
</g>
</g>
</svg>
