<?xml version="1.0" encoding="UTF-8" standalone="no"?>
<!DOCTYPE svg PUBLIC "-//W3C//DTD SVG 1.1//EN"
 "http://www.w3.org/Graphics/SVG/1.1/DTD/svg11.dtd">
<!-- Generated by graphviz version 14.1.4 (20260321.0153)
 -->
<!-- Title: sensesp::DigitalInputState::DigitalInputState Pages: 1 -->
<!--zoomable 223 -->

<svg id="main" version="1.1" xmlns="http://www.w3.org/2000/svg" xmlns:xlink="http://www.w3.org/1999/xlink" xml:space="preserve" onload="init(evt)">

<style type="text/css"><![CDATA[
.node, .edge {opacity: 0.7;}
.node.selected, .edge.selected {opacity: 1;}
.edge:hover path { stroke: red; }
.edge:hover polygon { stroke: red; fill: red; }
]]></style>

<defs>
  <circle id="rim" cx="0" cy="0" r="7"/>
  <circle id="rim2" cx="0" cy="0" r="3.5"/>
  <g id="zoomPlus">
    <use xlink:href="#rim" fill="#404040"><set attributeName="fill" to="#808080" begin="zoomplus.mouseover" end="zoomplus.mouseout"/></use>
    <path d="M-4,0h8M0,-4v8" fill="none" stroke="white" stroke-width="1.5" pointer-events="none"/>
  </g>
  <g id="zoomMin">
    <use xlink:href="#rim" fill="#404040"><set attributeName="fill" to="#808080" begin="zoomminus.mouseover" end="zoomminus.mouseout"/></use>
    <path d="M-4,0h8" fill="none" stroke="white" stroke-width="1.5" pointer-events="none"/>
  </g>
  <g id="arrowUp" transform="translate(30 24)">
    <use xlink:href="#rim"/>
    <path pointer-events="none" fill="none" stroke="white" stroke-width="1.5" d="M0,-3.0v7 M-2.5,-0.5L0,-3.0L2.5,-0.5"/>
  </g>
  <g id="arrowRight" transform="rotate(90) translate(36 -43)">
    <use xlink:href="#rim"/>
    <path pointer-events="none" fill="none" stroke="white" stroke-width="1.5" d="M0,-3.0v7 M-2.5,-0.5L0,-3.0L2.5,-0.5"/>
  </g>
  <g id="arrowDown" transform="rotate(180) translate(-30 -48)">
    <use xlink:href="#rim"/>
    <path pointer-events="none" fill="none" stroke="white" stroke-width="1.5" d="M0,-3.0v7 M-2.5,-0.5L0,-3.0L2.5,-0.5"/>
  </g>
  <g id="arrowLeft" transform="rotate(270) translate(-36 17)">
    <use xlink:href="#rim"/>
    <path pointer-events="none" fill="none" stroke="white" stroke-width="1.5" d="M0,-3.0v7 M-2.5,-0.5L0,-3.0L2.5,-0.5"/>
  </g>
  <g id="resetDef">
    <use xlink:href="#rim2" fill="#404040"><set attributeName="fill" to="#808080" begin="reset.mouseover" end="reset.mouseout"/></use>
  </g>
</defs>
<script type="application/ecmascript">
var viewWidth = 823;
var viewHeight = 223;
var sectionId = 'dynsection-1';
</script>
<script type="application/ecmascript" xlink:href="svg.min.js"/>
<svg id="graph" class="graph">
<g id="viewport">
<title>sensesp::DigitalInputState::DigitalInputState</title>
<!-- Node1 -->
<g id="Node000001" class="node">
<title>Node1</title>
<g id="a_Node000001"><a xlink:title=" ">
<polygon fill="#999999" stroke="#666666" points="131.5,-122.5 0,-122.5 0,-92 131.5,-92 131.5,-122.5"/>
<text xml:space="preserve" text-anchor="start" x="8" y="-109" font-family="Helvetica,sans-Serif" font-size="10.00">sensesp::DigitalInputState</text>
<text xml:space="preserve" text-anchor="middle" x="65.75" y="-97.75" font-family="Helvetica,sans-Serif" font-size="10.00">::DigitalInputState</text>
</a>
</g>
</g>
<!-- Node2 -->
<g id="Node000002" class="node">
<title>Node2</title>
<g id="a_Node000002"><a xlink:href="classsensesp_1_1_digital_input.html#a95fa64f075a2fd8c82d43c87999fa3dc" target="_top" xlink:title=" ">
<polygon fill="white" stroke="#666666" points="296,-214.5 187.75,-214.5 187.75,-184 296,-184 296,-214.5"/>
<text xml:space="preserve" text-anchor="start" x="195.75" y="-201" font-family="Helvetica,sans-Serif" font-size="10.00">sensesp::DigitalInput</text>
<text xml:space="preserve" text-anchor="middle" x="241.88" y="-189.75" font-family="Helvetica,sans-Serif" font-size="10.00">::DigitalInput</text>
</a>
</g>
</g>
<!-- Node1&#45;&gt;Node2 -->
<g id="edge1_Node000001_Node000002" class="edge">
<title>Node1&#45;&gt;Node2</title>
<g id="a_edge1_Node000001_Node000002"><a xlink:title=" ">
<path fill="none" stroke="#63b8ff" d="M86.65,-122.74C106.33,-137.5 137.73,-159.59 167.5,-174.25 171.16,-176.05 174.97,-177.77 178.86,-179.42"/>
<polygon fill="#63b8ff" stroke="#63b8ff" points="177.28,-182.55 187.86,-183 179.87,-176.05 177.28,-182.55"/>
</a>
</g>
</g>
<!-- Node3 -->
<g id="Node000003" class="node">
<title>Node3</title>
<g id="a_Node000003"><a xlink:href="classsensesp_1_1_value_producer.html#a4f5f0259d0d3cd9a0ed17d657cac04e2" target="_top" xlink:title=" ">
<polygon fill="white" stroke="#666666" points="302.75,-165.5 181,-165.5 181,-135 302.75,-135 302.75,-165.5"/>
<text xml:space="preserve" text-anchor="start" x="189" y="-152" font-family="Helvetica,sans-Serif" font-size="10.00">sensesp::ValueProducer</text>
<text xml:space="preserve" text-anchor="middle" x="241.88" y="-140.75" font-family="Helvetica,sans-Serif" font-size="10.00">&lt; bool &gt;::emit</text>
</a>
</g>
</g>
<!-- Node1&#45;&gt;Node3 -->
<g id="edge2_Node000001_Node000003" class="edge">
<title>Node1&#45;&gt;Node3</title>
<g id="a_edge2_Node000001_Node000003"><a xlink:title=" ">
<path fill="none" stroke="#63b8ff" d="M130.11,-122.9C143.02,-126.08 156.69,-129.46 169.85,-132.71"/>
<polygon fill="#63b8ff" stroke="#63b8ff" points="168.74,-136.04 179.29,-135.04 170.42,-129.25 168.74,-136.04"/>
</a>
</g>
</g>
<!-- Node4 -->
<g id="Node000004" class="node">
<title>Node4</title>
<g id="a_Node000004"><a xlink:href="namespacesensesp.html#a1c1105507d71491cf4e0505eaabb2e49" target="_top" xlink:title=" ">
<polygon fill="white" stroke="#666666" points="294.88,-116.88 188.88,-116.88 188.88,-97.62 294.88,-97.62 294.88,-116.88"/>
<text xml:space="preserve" text-anchor="middle" x="241.88" y="-103.38" font-family="Helvetica,sans-Serif" font-size="10.00">sensesp::event_loop</text>
</a>
</g>
</g>
<!-- Node1&#45;&gt;Node4 -->
<g id="edge3_Node000001_Node000004" class="edge">
<title>Node1&#45;&gt;Node4</title>
<g id="a_edge3_Node000001_Node000004"><a xlink:title=" ">
<path fill="none" stroke="#63b8ff" d="M131.59,-107.25C146.54,-107.25 162.42,-107.25 177.31,-107.25"/>
<polygon fill="#63b8ff" stroke="#63b8ff" points="176.96,-110.75 186.96,-107.25 176.96,-103.75 176.96,-110.75"/>
</a>
</g>
</g>
<!-- Node7 -->
<g id="Node000007" class="node">
<title>Node7</title>
<g id="a_Node000007"><a xlink:href="classsensesp_1_1_file_system_saveable.html#a79b2e2e657112851dfda8785d217578a" target="_top" xlink:title="Load and populate the object from a persistent storage.">
<polygon fill="white" stroke="#666666" points="316.25,-79.5 167.5,-79.5 167.5,-49 316.25,-49 316.25,-79.5"/>
<text xml:space="preserve" text-anchor="start" x="175.5" y="-66" font-family="Helvetica,sans-Serif" font-size="10.00">sensesp::FileSystemSaveable</text>
<text xml:space="preserve" text-anchor="middle" x="241.88" y="-54.75" font-family="Helvetica,sans-Serif" font-size="10.00">::load</text>
</a>
</g>
</g>
<!-- Node1&#45;&gt;Node7 -->
<g id="edge6_Node000001_Node000007" class="edge">
<title>Node1&#45;&gt;Node7</title>
<g id="a_edge6_Node000001_Node000007"><a xlink:title=" ">
<path fill="none" stroke="#63b8ff" d="M130.11,-91.6C141.87,-88.7 154.26,-85.64 166.32,-82.66"/>
<polygon fill="#63b8ff" stroke="#63b8ff" points="166.94,-86.11 175.81,-80.32 165.26,-79.32 166.94,-86.11"/>
</a>
</g>
</g>
<!-- Node12 -->
<g id="Node000012" class="node">
<title>Node12</title>
<g id="a_Node000012"><a xlink:href="classsensesp_1_1_sensor.html#a837f5d9603388daaca04d78eaedd5d64" target="_top" xlink:title=" ">
<polygon fill="white" stroke="#666666" points="300.12,-30.5 183.62,-30.5 183.62,0 300.12,0 300.12,-30.5"/>
<text xml:space="preserve" text-anchor="start" x="191.62" y="-17" font-family="Helvetica,sans-Serif" font-size="10.00">sensesp::Sensor&lt; bool</text>
<text xml:space="preserve" text-anchor="middle" x="241.88" y="-5.75" font-family="Helvetica,sans-Serif" font-size="10.00"> &gt;::Sensor</text>
</a>
</g>
</g>
<!-- Node1&#45;&gt;Node12 -->
<g id="edge11_Node000001_Node000012" class="edge">
<title>Node1&#45;&gt;Node12</title>
<g id="a_edge11_Node000001_Node000012"><a xlink:title=" ">
<path fill="none" stroke="#63b8ff" d="M86.65,-91.76C106.33,-77 137.73,-54.91 167.5,-40.25 171.16,-38.45 174.97,-36.73 178.86,-35.08"/>
<polygon fill="#63b8ff" stroke="#63b8ff" points="179.87,-38.45 187.86,-31.5 177.28,-31.95 179.87,-38.45"/>
</a>
</g>
</g>
<!-- Node5 -->
<g id="Node000005" class="node">
<title>Node5</title>
<g id="a_Node000005"><a xlink:href="classsensesp_1_1_sens_e_s_p_base_app.html#a28c20eed17bfc460e6686a11c5b3b107" target="_top" xlink:title="Get the event loop object from the singleton SensESPBaseApp instance.">
<polygon fill="white" stroke="#666666" points="497.25,-128.5 356,-128.5 356,-98 497.25,-98 497.25,-128.5"/>
<text xml:space="preserve" text-anchor="start" x="364" y="-115" font-family="Helvetica,sans-Serif" font-size="10.00">sensesp::SensESPBaseApp</text>
<text xml:space="preserve" text-anchor="middle" x="426.62" y="-103.75" font-family="Helvetica,sans-Serif" font-size="10.00">::get_event_loop</text>
</a>
</g>
</g>
<!-- Node4&#45;&gt;Node5 -->
<g id="edge4_Node000004_Node000005" class="edge">
<title>Node4&#45;&gt;Node5</title>
<g id="a_edge4_Node000004_Node000005"><a xlink:title=" ">
<path fill="none" stroke="#63b8ff" d="M295.24,-108.97C310.5,-109.47 327.54,-110.03 344.14,-110.57"/>
<polygon fill="#63b8ff" stroke="#63b8ff" points="343.91,-114.07 354.02,-110.9 344.14,-107.07 343.91,-114.07"/>
</a>
</g>
</g>
<!-- Node6 -->
<g id="Node000006" class="node">
<title>Node6</title>
<g id="a_Node000006"><a xlink:href="classsensesp_1_1_sens_e_s_p_base_app.html#add2c67bb55d095ab9c64f44ab2e82612" target="_top" xlink:title="Get the singleton instance of the SensESPBaseApp.">
<polygon fill="white" stroke="#666666" points="697.75,-122.88 537,-122.88 537,-103.62 697.75,-103.62 697.75,-122.88"/>
<text xml:space="preserve" text-anchor="middle" x="617.38" y="-109.38" font-family="Helvetica,sans-Serif" font-size="10.00">sensesp::SensESPBaseApp::get</text>
</a>
</g>
</g>
<!-- Node5&#45;&gt;Node6 -->
<g id="edge5_Node000005_Node000006" class="edge">
<title>Node5&#45;&gt;Node6</title>
<g id="a_edge5_Node000005_Node000006"><a xlink:title=" ">
<path fill="none" stroke="#63b8ff" d="M497.64,-113.25C506.67,-113.25 516.01,-113.25 525.31,-113.25"/>
<polygon fill="#63b8ff" stroke="#63b8ff" points="525.1,-116.75 535.1,-113.25 525.1,-109.75 525.1,-116.75"/>
</a>
</g>
</g>
<!-- Node8 -->
<g id="Node000008" class="node">
<title>Node8</title>
<g id="a_Node000008"><a xlink:href="classsensesp_1_1_file_system_saveable.html#ad0233f7895b5c8915108399420c7cf0b" target="_top" xlink:title=" ">
<polygon fill="white" stroke="#666666" points="501,-79.5 352.25,-79.5 352.25,-49 501,-49 501,-79.5"/>
<text xml:space="preserve" text-anchor="start" x="360.25" y="-66" font-family="Helvetica,sans-Serif" font-size="10.00">sensesp::FileSystemSaveable</text>
<text xml:space="preserve" text-anchor="middle" x="426.62" y="-54.75" font-family="Helvetica,sans-Serif" font-size="10.00">::find_config_file</text>
</a>
</g>
</g>
<!-- Node7&#45;&gt;Node8 -->
<g id="edge7_Node000007_Node000008" class="edge">
<title>Node7&#45;&gt;Node8</title>
<g id="a_edge7_Node000007_Node000008"><a xlink:title=" ">
<path fill="none" stroke="#63b8ff" d="M316.68,-64.25C324.47,-64.25 332.43,-64.25 340.33,-64.25"/>
<polygon fill="#63b8ff" stroke="#63b8ff" points="340.33,-67.75 350.33,-64.25 340.33,-60.75 340.33,-67.75"/>
</a>
</g>
</g>
<!-- Node11 -->
<g id="Node000011" class="node">
<title>Node11</title>
<g id="a_Node000011"><a xlink:href="classsensesp_1_1_serializable.html#a841233a82ef3a7fbcecd5a15b0df12d2" target="_top" xlink:title=" ">
<polygon fill="white" stroke="#666666" points="481.12,-30.5 372.12,-30.5 372.12,0 481.12,0 481.12,-30.5"/>
<text xml:space="preserve" text-anchor="start" x="380.12" y="-17" font-family="Helvetica,sans-Serif" font-size="10.00">sensesp::Serializable</text>
<text xml:space="preserve" text-anchor="middle" x="426.62" y="-5.75" font-family="Helvetica,sans-Serif" font-size="10.00">::from_json</text>
</a>
</g>
</g>
<!-- Node7&#45;&gt;Node11 -->
<g id="edge10_Node000007_Node000011" class="edge">
<title>Node7&#45;&gt;Node11</title>
<g id="a_edge10_Node000007_Node000011"><a xlink:title=" ">
<path fill="none" stroke="#63b8ff" d="M301.45,-48.54C320.39,-43.47 341.5,-37.81 360.86,-32.62"/>
<polygon fill="#63b8ff" stroke="#63b8ff" points="361.5,-36.07 370.26,-30.1 359.69,-29.31 361.5,-36.07"/>
</a>
</g>
</g>
<!-- Node9 -->
<g id="Node000009" class="node">
<title>Node9</title>
<g id="a_Node000009"><a xlink:href="namespacesensesp.html#adad24461f43358c45017cf1cb816ca60" target="_top" xlink:title="A base64&#45;encoded SHA&#45;1 hash function.">
<polygon fill="white" stroke="#666666" points="674.5,-73.88 560.25,-73.88 560.25,-54.62 674.5,-54.62 674.5,-73.88"/>
<text xml:space="preserve" text-anchor="middle" x="617.38" y="-60.38" font-family="Helvetica,sans-Serif" font-size="10.00">sensesp::Base64Sha1</text>
</a>
</g>
</g>
<!-- Node8&#45;&gt;Node9 -->
<g id="edge8_Node000008_Node000009" class="edge">
<title>Node8&#45;&gt;Node9</title>
<g id="a_edge8_Node000008_Node000009"><a xlink:title=" ">
<path fill="none" stroke="#63b8ff" d="M501.41,-64.25C516.9,-64.25 533.17,-64.25 548.43,-64.25"/>
<polygon fill="#63b8ff" stroke="#63b8ff" points="548.37,-67.75 558.37,-64.25 548.37,-60.75 548.37,-67.75"/>
</a>
</g>
</g>
<!-- Node10 -->
<g id="Node000010" class="node">
<title>Node10</title>
<g id="a_Node000010"><a xlink:href="namespacesensesp.html#a37dfeb5f75b7115464a9aa40473d69cf" target="_top" xlink:title="SHA&#45;1 hash function.">
<polygon fill="white" stroke="#666666" points="815,-73.88 733.75,-73.88 733.75,-54.62 815,-54.62 815,-73.88"/>
<text xml:space="preserve" text-anchor="middle" x="774.38" y="-60.38" font-family="Helvetica,sans-Serif" font-size="10.00">sensesp::Sha1</text>
</a>
</g>
</g>
<!-- Node9&#45;&gt;Node10 -->
<g id="edge9_Node000009_Node000010" class="edge">
<title>Node9&#45;&gt;Node10</title>
<g id="a_edge9_Node000009_Node000010"><a xlink:title=" ">
<path fill="none" stroke="#63b8ff" d="M674.77,-64.25C690.22,-64.25 706.89,-64.25 722.04,-64.25"/>
<polygon fill="#63b8ff" stroke="#63b8ff" points="721.77,-67.75 731.77,-64.25 721.77,-60.75 721.77,-67.75"/>
</a>
</g>
</g>
</g>
</svg>

<g id="navigator" transform="translate(0 0)" fill="#404254">
  <rect fill="#f2f5e9" fill-opacity="0.5" stroke="#606060" stroke-width=".5" x="0" y="0" width="60" height="60"/>
  <use id="zoomplus" xlink:href="#zoomPlus" x="17" y="9" onmousedown="handleZoom(evt,'in')"/>
  <use id="zoomminus" xlink:href="#zoomMin" x="42" y="9" onmousedown="handleZoom(evt,'out')"/>
  <use id="reset" xlink:href="#resetDef" x="30" y="36" onmousedown="handleReset()"/>
   <use id="arrowup" xlink:href="#arrowUp" x="0" y="0" onmousedown="handlePan(0,-1)"/>
  <use id="arrowright" xlink:href="#arrowRight" x="0" y="0" onmousedown="handlePan(1,0)"/>
  <use id="arrowdown" xlink:href="#arrowDown" x="0" y="0" onmousedown="handlePan(0,1)"/>
  <use id="arrowleft" xlink:href="#arrowLeft" x="0" y="0" onmousedown="handlePan(-1,0)"/>
</g>
<svg viewBox="0 0 15 15" width="100%" height="30px" preserveAspectRatio="xMaxYMin meet">
 <g id="arrow_out" transform="scale(0.3 0.3)">
  <a xlink:href="classsensesp_1_1_digital_input_state_a323b536f360d477b94e10df4ebda9730_cgraph_org.svg" target="_base">
   <rect id="button" ry="5" rx="5" y="6" x="6" height="38" width="38"
        fill="#f2f5e9" fill-opacity="0.5" stroke="#606060" stroke-width="1.0"/>
   <path id="arrow"
     d="M 11.500037,31.436501 C 11.940474,20.09759 22.043105,11.32322 32.158766,21.979434 L 37.068811,17.246167 C 37.068811,17.246167 37.088388,32 37.088388,32 L 22.160133,31.978069 C 22.160133,31.978069 26.997745,27.140456 26.997745,27.140456 C 18.528582,18.264221 13.291696,25.230495 11.500037,31.436501 z"
     style="fill:#404040;"/>
  </a>
 </g>
</svg>

<style type='text/css'>
<![CDATA[
[data-mouse-over-selected='false'] { opacity: 0.7; }
[data-mouse-over-selected='true']  { opacity: 1.0; }
]]>
</style>
<script type="application/ecmascript"><![CDATA[
document.addEventListener('DOMContentLoaded', (event) => {
  highlightEdges();
  highlightAdjacentNodes();
});
]]></script>
</svg>
