<?xml version="1.0" encoding="UTF-8" standalone="no"?>
<!DOCTYPE svg PUBLIC "-//W3C//DTD SVG 1.1//EN"
 "http://www.w3.org/Graphics/SVG/1.1/DTD/svg11.dtd">
<!-- Generated by graphviz version 14.1.1 (20251213.1925)
 -->
<!-- Title: sensesp::Networking Pages: 1 -->
<!--zoomable 145 -->

<svg id="main" version="1.1" xmlns="http://www.w3.org/2000/svg" xmlns:xlink="http://www.w3.org/1999/xlink" xml:space="preserve" onload="init(evt)">

<style type="text/css"><![CDATA[
.node, .edge {opacity: 0.7;}
.node.selected, .edge.selected {opacity: 1;}
.edge:hover path { stroke: red; }
.edge:hover polygon { stroke: red; fill: red; }
]]></style>

<defs>
  <circle id="rim" cx="0" cy="0" r="7"/>
  <circle id="rim2" cx="0" cy="0" r="3.5"/>
  <g id="zoomPlus">
    <use xlink:href="#rim" fill="#404040"><set attributeName="fill" to="#808080" begin="zoomplus.mouseover" end="zoomplus.mouseout"/></use>
    <path d="M-4,0h8M0,-4v8" fill="none" stroke="white" stroke-width="1.5" pointer-events="none"/>
  </g>
  <g id="zoomMin">
    <use xlink:href="#rim" fill="#404040"><set attributeName="fill" to="#808080" begin="zoomminus.mouseover" end="zoomminus.mouseout"/></use>
    <path d="M-4,0h8" fill="none" stroke="white" stroke-width="1.5" pointer-events="none"/>
  </g>
  <g id="arrowUp" transform="translate(30 24)">
    <use xlink:href="#rim"/>
    <path pointer-events="none" fill="none" stroke="white" stroke-width="1.5" d="M0,-3.0v7 M-2.5,-0.5L0,-3.0L2.5,-0.5"/>
  </g>
  <g id="arrowRight" transform="rotate(90) translate(36 -43)">
    <use xlink:href="#rim"/>
    <path pointer-events="none" fill="none" stroke="white" stroke-width="1.5" d="M0,-3.0v7 M-2.5,-0.5L0,-3.0L2.5,-0.5"/>
  </g>
  <g id="arrowDown" transform="rotate(180) translate(-30 -48)">
    <use xlink:href="#rim"/>
    <path pointer-events="none" fill="none" stroke="white" stroke-width="1.5" d="M0,-3.0v7 M-2.5,-0.5L0,-3.0L2.5,-0.5"/>
  </g>
  <g id="arrowLeft" transform="rotate(270) translate(-36 17)">
    <use xlink:href="#rim"/>
    <path pointer-events="none" fill="none" stroke="white" stroke-width="1.5" d="M0,-3.0v7 M-2.5,-0.5L0,-3.0L2.5,-0.5"/>
  </g>
  <g id="resetDef">
    <use xlink:href="#rim2" fill="#404040"><set attributeName="fill" to="#808080" begin="reset.mouseover" end="reset.mouseout"/></use>
  </g>
</defs>
<script type="application/ecmascript">
var viewWidth = 697;
var viewHeight = 145;
var sectionId = 'dynsection-0';
</script>
<script type="application/ecmascript" xlink:href="svg.min.js"/>
<svg id="graph" class="graph">
<g id="viewport">
<title>sensesp::Networking</title>
<!-- Node1 -->
<g id="Node000001" class="node">
<title>Node1</title>
<g id="a_Node000001"><a xlink:title="Manages the ESP&#39;s connection to the Wifi network.">
<polygon fill="#999999" stroke="#666666" points="688.5,-83.25 580.25,-83.25 580.25,-64 688.5,-64 688.5,-83.25"/>
<text xml:space="preserve" text-anchor="middle" x="634.38" y="-69.75" font-family="Helvetica,sans-Serif" font-size="10.00">sensesp::Networking</text>
</a>
</g>
</g>
<!-- Node2 -->
<g id="Node000002" class="node">
<title>Node2</title>
<g id="a_Node000002"><a xlink:href="classsensesp_1_1_file_system_saveable.html" target="_top" xlink:title=" ">
<polygon fill="white" stroke="#666666" points="543.25,-120.25 394.5,-120.25 394.5,-101 543.25,-101 543.25,-120.25"/>
<text xml:space="preserve" text-anchor="middle" x="468.88" y="-106.75" font-family="Helvetica,sans-Serif" font-size="10.00">sensesp::FileSystemSaveable</text>
</a>
</g>
</g>
<!-- Node2&#45;&gt;Node1 -->
<g id="edge1_Node000001_Node000002" class="edge">
<title>Node2&#45;&gt;Node1</title>
<g id="a_edge1_Node000001_Node000002"><a xlink:title=" ">
<path fill="none" stroke="#63b8ff" d="M525.69,-97.99C546.27,-93.34 569.29,-88.13 588.75,-83.72"/>
<polygon fill="#63b8ff" stroke="#63b8ff" points="525.01,-94.56 516.03,-100.18 526.55,-101.39 525.01,-94.56"/>
</a>
</g>
</g>
<!-- Node3 -->
<g id="Node000003" class="node">
<title>Node3</title>
<g id="a_Node000003"><a xlink:href="classsensesp_1_1_saveable.html" target="_top" xlink:title="Interface for saveable objects.">
<polygon fill="white" stroke="#666666" points="267.75,-137.25 168.5,-137.25 168.5,-118 267.75,-118 267.75,-137.25"/>
<text xml:space="preserve" text-anchor="middle" x="218.12" y="-123.75" font-family="Helvetica,sans-Serif" font-size="10.00">sensesp::Saveable</text>
</a>
</g>
</g>
<!-- Node3&#45;&gt;Node2 -->
<g id="edge2_Node000002_Node000003" class="edge">
<title>Node3&#45;&gt;Node2</title>
<g id="a_edge2_Node000002_Node000003"><a xlink:title=" ">
<path fill="none" stroke="#63b8ff" d="M279.32,-123.51C313.87,-121.15 357.53,-118.17 394.13,-115.66"/>
<polygon fill="#63b8ff" stroke="#63b8ff" points="279.22,-120.01 269.48,-124.18 279.7,-126.99 279.22,-120.01"/>
</a>
</g>
</g>
<!-- Node4 -->
<g id="Node000004" class="node">
<title>Node4</title>
<g id="a_Node000004"><a xlink:href="classsensesp_1_1_serializable.html" target="_top" xlink:title="Interface for serializable objects.">
<polygon fill="white" stroke="#666666" points="272.62,-100.25 163.62,-100.25 163.62,-81 272.62,-81 272.62,-100.25"/>
<text xml:space="preserve" text-anchor="middle" x="218.12" y="-86.75" font-family="Helvetica,sans-Serif" font-size="10.00">sensesp::Serializable</text>
</a>
</g>
</g>
<!-- Node4&#45;&gt;Node2 -->
<g id="edge3_Node000002_Node000004" class="edge">
<title>Node4&#45;&gt;Node2</title>
<g id="a_edge3_Node000002_Node000004"><a xlink:title=" ">
<path fill="none" stroke="#63b8ff" d="M284.23,-95.86C317.96,-98.57 359.29,-101.89 394.19,-104.7"/>
<polygon fill="#63b8ff" stroke="#63b8ff" points="284.86,-92.4 274.61,-95.09 284.3,-99.38 284.86,-92.4"/>
</a>
</g>
</g>
<!-- Node5 -->
<g id="Node000005" class="node">
<title>Node5</title>
<g id="a_Node000005"><a xlink:href="classsensesp_1_1_resettable.html" target="_top" xlink:title="Automatic calling of the reset() method when the device needs to be reset.">
<polygon fill="white" stroke="#666666" points="521.88,-83.25 415.88,-83.25 415.88,-64 521.88,-64 521.88,-83.25"/>
<text xml:space="preserve" text-anchor="middle" x="468.88" y="-69.75" font-family="Helvetica,sans-Serif" font-size="10.00">sensesp::Resettable</text>
</a>
</g>
</g>
<!-- Node5&#45;&gt;Node1 -->
<g id="edge4_Node000001_Node000005" class="edge">
<title>Node5&#45;&gt;Node1</title>
<g id="a_edge4_Node000001_Node000005"><a xlink:title=" ">
<path fill="none" stroke="#63b8ff" d="M533.13,-73.62C548.62,-73.62 565.03,-73.62 580,-73.62"/>
<polygon fill="#63b8ff" stroke="#63b8ff" points="533.57,-70.13 523.57,-73.63 533.57,-77.13 533.57,-70.13"/>
</a>
</g>
</g>
<!-- Node6 -->
<g id="Node000006" class="node">
<title>Node6</title>
<g id="a_Node000006"><a xlink:href="classsensesp_1_1_value_producer.html" target="_top" xlink:title=" ">
<polygon fill="white" stroke="#666666" points="529.75,-45.88 408,-45.88 408,-15.37 529.75,-15.37 529.75,-45.88"/>
<text xml:space="preserve" text-anchor="start" x="416" y="-32.38" font-family="Helvetica,sans-Serif" font-size="10.00">sensesp::ValueProducer</text>
<text xml:space="preserve" text-anchor="middle" x="468.88" y="-21.12" font-family="Helvetica,sans-Serif" font-size="10.00">&lt; WiFiState &gt;</text>
</a>
</g>
</g>
<!-- Node6&#45;&gt;Node1 -->
<g id="edge5_Node000001_Node000006" class="edge">
<title>Node6&#45;&gt;Node1</title>
<g id="a_edge5_Node000001_Node000006"><a xlink:title=" ">
<path fill="none" stroke="#63b8ff" d="M540.31,-49.15C559.1,-54.09 578.71,-59.25 595.05,-63.55"/>
<polygon fill="#63b8ff" stroke="#63b8ff" points="541.39,-45.81 530.83,-46.66 539.61,-52.58 541.39,-45.81"/>
</a>
</g>
</g>
<!-- Node7 -->
<g id="Node000007" class="node">
<title>Node7</title>
<g id="a_Node000007"><a xlink:href="classsensesp_1_1_observable.html" target="_top" xlink:title="A base class which allow observers to attach callbacks to themselves. The callbacks will be called wh...">
<polygon fill="white" stroke="#666666" points="108.25,-38.25 0,-38.25 0,-19 108.25,-19 108.25,-38.25"/>
<text xml:space="preserve" text-anchor="middle" x="54.12" y="-24.75" font-family="Helvetica,sans-Serif" font-size="10.00">sensesp::Observable</text>
</a>
</g>
</g>
<!-- Node7&#45;&gt;Node6 -->
<g id="edge6_Node000006_Node000007" class="edge">
<title>Node7&#45;&gt;Node6</title>
<g id="a_edge6_Node000006_Node000007"><a xlink:title=" ">
<path fill="none" stroke="#63b8ff" d="M120.03,-33.38C122.13,-33.47 124.2,-33.55 126.25,-33.62 237.4,-37.53 265.29,-35.45 376.5,-33.62 386.66,-33.46 397.45,-33.19 407.92,-32.87"/>
<polygon fill="#63b8ff" stroke="#63b8ff" points="120.38,-29.89 110.21,-32.87 120.02,-36.88 120.38,-29.89"/>
</a>
</g>
</g>
<!-- Node8 -->
<g id="Node000008" class="node">
<title>Node8</title>
<g id="a_Node000008"><a xlink:href="classsensesp_1_1_value_producer.html" target="_top" xlink:title="A base class for any sensor or piece of code that outputs a value for consumption elsewhere.">
<polygon fill="white" stroke="#666666" points="291,-19.25 145.25,-19.25 145.25,0 291,0 291,-19.25"/>
<text xml:space="preserve" text-anchor="middle" x="218.12" y="-5.75" font-family="Helvetica,sans-Serif" font-size="10.00">sensesp::ValueProducer&lt; T &gt;</text>
</a>
</g>
</g>
<!-- Node7&#45;&gt;Node8 -->
<g id="edge8_Node000008_Node000007" class="edge">
<title>Node7&#45;&gt;Node8</title>
<g id="a_edge8_Node000008_Node000007"><a xlink:title=" ">
<path fill="none" stroke="#63b8ff" d="M120,-21.02C128.19,-20.06 136.61,-19.07 144.9,-18.1"/>
<polygon fill="#63b8ff" stroke="#63b8ff" points="119.65,-17.53 110.12,-22.17 120.46,-24.49 119.65,-17.53"/>
</a>
</g>
</g>
<!-- Node8&#45;&gt;Node6 -->
<g id="edge7_Node000006_Node000008" class="edge">
<title>Node8&#45;&gt;Node6</title>
<g id="a_edge7_Node000006_Node000008"><a xlink:title=" ">
<path fill="none" stroke="orange" stroke-dasharray="5,2" d="M302.51,-11.46C326.44,-12.46 352.54,-14 376.5,-16.38 386.57,-17.37 397.21,-18.74 407.54,-20.24"/>
<polygon fill="orange" stroke="orange" points="302.96,-7.98 292.84,-11.09 302.69,-14.97 302.96,-7.98"/>
</a>
</g>
<text xml:space="preserve" text-anchor="start" x="312" y="-21.12" font-family="Helvetica,sans-Serif" font-size="10.00" fill="grey">&lt; WiFiState &gt;</text>
</g>
</g>
</svg>

<g id="navigator" transform="translate(0 0)" fill="#404254">
  <rect fill="#f2f5e9" fill-opacity="0.5" stroke="#606060" stroke-width=".5" x="0" y="0" width="60" height="60"/>
  <use id="zoomplus" xlink:href="#zoomPlus" x="17" y="9" onmousedown="handleZoom(evt,'in')"/>
  <use id="zoomminus" xlink:href="#zoomMin" x="42" y="9" onmousedown="handleZoom(evt,'out')"/>
  <use id="reset" xlink:href="#resetDef" x="30" y="36" onmousedown="handleReset()"/>
   <use id="arrowup" xlink:href="#arrowUp" x="0" y="0" onmousedown="handlePan(0,-1)"/>
  <use id="arrowright" xlink:href="#arrowRight" x="0" y="0" onmousedown="handlePan(1,0)"/>
  <use id="arrowdown" xlink:href="#arrowDown" x="0" y="0" onmousedown="handlePan(0,1)"/>
  <use id="arrowleft" xlink:href="#arrowLeft" x="0" y="0" onmousedown="handlePan(-1,0)"/>
</g>
<svg viewBox="0 0 15 15" width="100%" height="30px" preserveAspectRatio="xMaxYMin meet">
 <g id="arrow_out" transform="scale(0.3 0.3)">
  <a xlink:href="classsensesp_1_1_networking__inherit__graph_org.svg" target="_base">
   <rect id="button" ry="5" rx="5" y="6" x="6" height="38" width="38"
        fill="#f2f5e9" fill-opacity="0.5" stroke="#606060" stroke-width="1.0"/>
   <path id="arrow"
     d="M 11.500037,31.436501 C 11.940474,20.09759 22.043105,11.32322 32.158766,21.979434 L 37.068811,17.246167 C 37.068811,17.246167 37.088388,32 37.088388,32 L 22.160133,31.978069 C 22.160133,31.978069 26.997745,27.140456 26.997745,27.140456 C 18.528582,18.264221 13.291696,25.230495 11.500037,31.436501 z"
     style="fill:#404040;"/>
  </a>
 </g>
</svg>

<style type='text/css'>
<![CDATA[
[data-mouse-over-selected='false'] { opacity: 0.7; }
[data-mouse-over-selected='true']  { opacity: 1.0; }
]]>
</style>
<script type="application/ecmascript"><![CDATA[
document.addEventListener('DOMContentLoaded', (event) => {
  highlightEdges();
  highlightAdjacentNodes();
});
]]></script>
</svg>
