<?xml version="1.0" encoding="UTF-8" standalone="no"?>
<!DOCTYPE svg PUBLIC "-//W3C//DTD SVG 1.1//EN"
 "http://www.w3.org/Graphics/SVG/1.1/DTD/svg11.dtd">
<!-- Generated by graphviz version 14.1.1 (20251213.1925)
 -->
<!-- Title: sensesp::PressRepeater::PressRepeater Pages: 1 -->
<svg width="816pt" height="206pt"
 viewBox="0.00 0.00 816.00 206.00" xmlns="http://www.w3.org/2000/svg" xmlns:xlink="http://www.w3.org/1999/xlink">
<g id="graph0" class="graph" transform="scale(1 1) rotate(0) translate(4 201.5)">
<title>sensesp::PressRepeater::PressRepeater</title>
<!-- Node1 -->
<g id="Node000001" class="node">
<title>Node1</title>
<g id="a_Node000001"><a xlink:title=" ">
<polygon fill="#999999" stroke="#666666" points="124,-154.5 0,-154.5 0,-124 124,-124 124,-154.5"/>
<text xml:space="preserve" text-anchor="start" x="8" y="-141" font-family="Helvetica,sans-Serif" font-size="10.00">sensesp::PressRepeater</text>
<text xml:space="preserve" text-anchor="middle" x="62" y="-129.75" font-family="Helvetica,sans-Serif" font-size="10.00">::PressRepeater</text>
</a>
</g>
</g>
<!-- Node2 -->
<g id="Node000002" class="node">
<title>Node2</title>
<g id="a_Node000002"><a xlink:href="classsensesp_1_1_value_producer.html#a4f5f0259d0d3cd9a0ed17d657cac04e2" target="_top" xlink:title=" ">
<polygon fill="white" stroke="#666666" points="295.25,-197.5 173.5,-197.5 173.5,-167 295.25,-167 295.25,-197.5"/>
<text xml:space="preserve" text-anchor="start" x="181.5" y="-184" font-family="Helvetica,sans-Serif" font-size="10.00">sensesp::ValueProducer</text>
<text xml:space="preserve" text-anchor="middle" x="234.38" y="-172.75" font-family="Helvetica,sans-Serif" font-size="10.00">&lt; P &gt;::emit</text>
</a>
</g>
</g>
<!-- Node1&#45;&gt;Node2 -->
<g id="edge1_Node000001_Node000002" class="edge">
<title>Node1&#45;&gt;Node2</title>
<g id="a_edge1_Node000001_Node000002"><a xlink:title=" ">
<path fill="none" stroke="#63b8ff" d="M124.03,-154.65C136.36,-157.77 149.43,-161.06 162.08,-164.26"/>
<polygon fill="#63b8ff" stroke="#63b8ff" points="161.04,-167.6 171.59,-166.66 162.75,-160.82 161.04,-167.6"/>
</a>
</g>
</g>
<!-- Node3 -->
<g id="Node000003" class="node">
<title>Node3</title>
<g id="a_Node000003"><a xlink:href="namespacesensesp.html#a1c1105507d71491cf4e0505eaabb2e49" target="_top" xlink:title=" ">
<polygon fill="white" stroke="#666666" points="287.38,-148.88 181.38,-148.88 181.38,-129.62 287.38,-129.62 287.38,-148.88"/>
<text xml:space="preserve" text-anchor="middle" x="234.38" y="-135.38" font-family="Helvetica,sans-Serif" font-size="10.00">sensesp::event_loop</text>
</a>
</g>
</g>
<!-- Node1&#45;&gt;Node3 -->
<g id="edge2_Node000001_Node000003" class="edge">
<title>Node1&#45;&gt;Node3</title>
<g id="a_edge2_Node000001_Node000003"><a xlink:title=" ">
<path fill="none" stroke="#63b8ff" d="M124.03,-139.25C138.87,-139.25 154.77,-139.25 169.72,-139.25"/>
<polygon fill="#63b8ff" stroke="#63b8ff" points="169.43,-142.75 179.43,-139.25 169.43,-135.75 169.43,-142.75"/>
</a>
</g>
</g>
<!-- Node6 -->
<g id="Node000006" class="node">
<title>Node6</title>
<g id="a_Node000006"><a xlink:href="classsensesp_1_1_file_system_saveable.html#a79b2e2e657112851dfda8785d217578a" target="_top" xlink:title="Load and populate the object from a persistent storage.">
<polygon fill="white" stroke="#666666" points="308.75,-100.5 160,-100.5 160,-70 308.75,-70 308.75,-100.5"/>
<text xml:space="preserve" text-anchor="start" x="168" y="-87" font-family="Helvetica,sans-Serif" font-size="10.00">sensesp::FileSystemSaveable</text>
<text xml:space="preserve" text-anchor="middle" x="234.38" y="-75.75" font-family="Helvetica,sans-Serif" font-size="10.00">::load</text>
</a>
</g>
</g>
<!-- Node1&#45;&gt;Node6 -->
<g id="edge5_Node000001_Node000006" class="edge">
<title>Node1&#45;&gt;Node6</title>
<g id="a_edge5_Node000001_Node000006"><a xlink:title=" ">
<path fill="none" stroke="#63b8ff" d="M112.28,-123.63C131.27,-117.61 153.17,-110.67 173.08,-104.36"/>
<polygon fill="#63b8ff" stroke="#63b8ff" points="173.99,-107.74 182.47,-101.38 171.88,-101.07 173.99,-107.74"/>
</a>
</g>
</g>
<!-- Node4 -->
<g id="Node000004" class="node">
<title>Node4</title>
<g id="a_Node000004"><a xlink:href="classsensesp_1_1_sens_e_s_p_base_app.html#a28c20eed17bfc460e6686a11c5b3b107" target="_top" xlink:title="Get the event loop object from the singleton SensESPBaseApp instance.">
<polygon fill="white" stroke="#666666" points="489.75,-165.5 348.5,-165.5 348.5,-135 489.75,-135 489.75,-165.5"/>
<text xml:space="preserve" text-anchor="start" x="356.5" y="-152" font-family="Helvetica,sans-Serif" font-size="10.00">sensesp::SensESPBaseApp</text>
<text xml:space="preserve" text-anchor="middle" x="419.12" y="-140.75" font-family="Helvetica,sans-Serif" font-size="10.00">::get_event_loop</text>
</a>
</g>
</g>
<!-- Node3&#45;&gt;Node4 -->
<g id="edge3_Node000003_Node000004" class="edge">
<title>Node3&#45;&gt;Node4</title>
<g id="a_edge3_Node000003_Node000004"><a xlink:title=" ">
<path fill="none" stroke="#63b8ff" d="M287.74,-142.4C303,-143.32 320.04,-144.35 336.64,-145.35"/>
<polygon fill="#63b8ff" stroke="#63b8ff" points="336.33,-148.83 346.52,-145.94 336.75,-141.85 336.33,-148.83"/>
</a>
</g>
</g>
<!-- Node5 -->
<g id="Node000005" class="node">
<title>Node5</title>
<g id="a_Node000005"><a xlink:href="classsensesp_1_1_sens_e_s_p_base_app.html#add2c67bb55d095ab9c64f44ab2e82612" target="_top" xlink:title="Get the singleton instance of the SensESPBaseApp.">
<polygon fill="white" stroke="#666666" points="690.25,-159.88 529.5,-159.88 529.5,-140.62 690.25,-140.62 690.25,-159.88"/>
<text xml:space="preserve" text-anchor="middle" x="609.88" y="-146.38" font-family="Helvetica,sans-Serif" font-size="10.00">sensesp::SensESPBaseApp::get</text>
</a>
</g>
</g>
<!-- Node4&#45;&gt;Node5 -->
<g id="edge4_Node000004_Node000005" class="edge">
<title>Node4&#45;&gt;Node5</title>
<g id="a_edge4_Node000004_Node000005"><a xlink:title=" ">
<path fill="none" stroke="#63b8ff" d="M490.14,-150.25C499.17,-150.25 508.51,-150.25 517.81,-150.25"/>
<polygon fill="#63b8ff" stroke="#63b8ff" points="517.6,-153.75 527.6,-150.25 517.6,-146.75 517.6,-153.75"/>
</a>
</g>
</g>
<!-- Node7 -->
<g id="Node000007" class="node">
<title>Node7</title>
<g id="a_Node000007"><a xlink:href="namespacesensesp.html#adad24461f43358c45017cf1cb816ca60" target="_top" xlink:title="A base64&#45;encoded SHA&#45;1 hash function.">
<polygon fill="white" stroke="#666666" points="667,-95.88 552.75,-95.88 552.75,-76.62 667,-76.62 667,-95.88"/>
<text xml:space="preserve" text-anchor="middle" x="609.88" y="-82.38" font-family="Helvetica,sans-Serif" font-size="10.00">sensesp::Base64Sha1</text>
</a>
</g>
</g>
<!-- Node6&#45;&gt;Node7 -->
<g id="edge6_Node000006_Node000007" class="edge">
<title>Node6&#45;&gt;Node7</title>
<g id="a_edge6_Node000006_Node000007"><a xlink:title=" ">
<path fill="none" stroke="#63b8ff" d="M309.21,-87.55C321.09,-87.84 333.26,-88.09 344.75,-88.25 410.85,-89.16 427.39,-88.82 493.5,-88.25 508.98,-88.12 525.62,-87.88 541.31,-87.62"/>
<polygon fill="#63b8ff" stroke="#63b8ff" points="541.09,-91.12 551.03,-87.45 540.97,-84.12 541.09,-91.12"/>
</a>
</g>
</g>
<!-- Node9 -->
<g id="Node000009" class="node">
<title>Node9</title>
<g id="a_Node000009"><a xlink:href="classsensesp_1_1_file_system_saveable.html#ad0233f7895b5c8915108399420c7cf0b" target="_top" xlink:title=" ">
<polygon fill="white" stroke="#666666" points="493.5,-79.5 344.75,-79.5 344.75,-49 493.5,-49 493.5,-79.5"/>
<text xml:space="preserve" text-anchor="start" x="352.75" y="-66" font-family="Helvetica,sans-Serif" font-size="10.00">sensesp::FileSystemSaveable</text>
<text xml:space="preserve" text-anchor="middle" x="419.12" y="-54.75" font-family="Helvetica,sans-Serif" font-size="10.00">::find_config_file</text>
</a>
</g>
</g>
<!-- Node6&#45;&gt;Node9 -->
<g id="edge8_Node000006_Node000009" class="edge">
<title>Node6&#45;&gt;Node9</title>
<g id="a_edge8_Node000006_Node000009"><a xlink:title=" ">
<path fill="none" stroke="#63b8ff" d="M309.18,-76.77C317.06,-75.86 325.12,-74.94 333.11,-74.02"/>
<polygon fill="#63b8ff" stroke="#63b8ff" points="333.3,-77.52 342.84,-72.9 332.5,-70.57 333.3,-77.52"/>
</a>
</g>
</g>
<!-- Node10 -->
<g id="Node000010" class="node">
<title>Node10</title>
<g id="a_Node000010"><a xlink:href="classsensesp_1_1_serializable.html#a841233a82ef3a7fbcecd5a15b0df12d2" target="_top" xlink:title=" ">
<polygon fill="white" stroke="#666666" points="473.62,-30.5 364.62,-30.5 364.62,0 473.62,0 473.62,-30.5"/>
<text xml:space="preserve" text-anchor="start" x="372.62" y="-17" font-family="Helvetica,sans-Serif" font-size="10.00">sensesp::Serializable</text>
<text xml:space="preserve" text-anchor="middle" x="419.12" y="-5.75" font-family="Helvetica,sans-Serif" font-size="10.00">::from_json</text>
</a>
</g>
</g>
<!-- Node6&#45;&gt;Node10 -->
<g id="edge10_Node000006_Node000010" class="edge">
<title>Node6&#45;&gt;Node10</title>
<g id="a_edge10_Node000006_Node000010"><a xlink:title=" ">
<path fill="none" stroke="#63b8ff" d="M271.86,-69.58C293.02,-60.65 320.24,-49.46 344.75,-40.25 349.69,-38.4 354.83,-36.52 360.01,-34.68"/>
<polygon fill="#63b8ff" stroke="#63b8ff" points="360.9,-38.08 369.18,-31.46 358.58,-31.47 360.9,-38.08"/>
</a>
</g>
</g>
<!-- Node8 -->
<g id="Node000008" class="node">
<title>Node8</title>
<g id="a_Node000008"><a xlink:href="namespacesensesp.html#a37dfeb5f75b7115464a9aa40473d69cf" target="_top" xlink:title="SHA&#45;1 hash function.">
<polygon fill="white" stroke="#666666" points="807.5,-95.88 726.25,-95.88 726.25,-76.62 807.5,-76.62 807.5,-95.88"/>
<text xml:space="preserve" text-anchor="middle" x="766.88" y="-82.38" font-family="Helvetica,sans-Serif" font-size="10.00">sensesp::Sha1</text>
</a>
</g>
</g>
<!-- Node7&#45;&gt;Node8 -->
<g id="edge7_Node000007_Node000008" class="edge">
<title>Node7&#45;&gt;Node8</title>
<g id="a_edge7_Node000007_Node000008"><a xlink:title=" ">
<path fill="none" stroke="#63b8ff" d="M667.27,-86.25C682.72,-86.25 699.39,-86.25 714.54,-86.25"/>
<polygon fill="#63b8ff" stroke="#63b8ff" points="714.27,-89.75 724.27,-86.25 714.27,-82.75 714.27,-89.75"/>
</a>
</g>
</g>
<!-- Node9&#45;&gt;Node7 -->
<g id="edge9_Node000009_Node000007" class="edge">
<title>Node9&#45;&gt;Node7</title>
<g id="a_edge9_Node000009_Node000007"><a xlink:title=" ">
<path fill="none" stroke="#63b8ff" d="M493.91,-72.85C509.55,-74.67 525.99,-76.59 541.38,-78.38"/>
<polygon fill="#63b8ff" stroke="#63b8ff" points="540.54,-81.81 550.88,-79.49 541.35,-74.86 540.54,-81.81"/>
</a>
</g>
</g>
</g>
</svg>
