<?xml version="1.0" encoding="UTF-8" standalone="no"?>
<!DOCTYPE svg PUBLIC "-//W3C//DTD SVG 1.1//EN"
 "http://www.w3.org/Graphics/SVG/1.1/DTD/svg11.dtd">
<!-- Generated by graphviz version 12.1.2 (20240928.0832)
 -->
<!-- Title: sensesp::SKOutputTime::SKOutputTime Pages: 1 -->
<svg width="768pt" height="103pt"
 viewBox="0.00 0.00 768.25 102.88" xmlns="http://www.w3.org/2000/svg" xmlns:xlink="http://www.w3.org/1999/xlink">
<g id="graph0" class="graph" transform="scale(1 1) rotate(0) translate(4 98.88)">
<title>sensesp::SKOutputTime::SKOutputTime</title>
<!-- Node1 -->
<g id="Node000001" class="node">
<title>Node1</title>
<g id="a_Node000001"><a xlink:title=" ">
<polygon fill="#999999" stroke="#666666" points="123.25,-79.5 0,-79.5 0,-49 123.25,-49 123.25,-79.5"/>
<text text-anchor="start" x="8" y="-66" font-family="Helvetica,sans-Serif" font-size="10.00">sensesp::SKOutputTime</text>
<text text-anchor="middle" x="61.62" y="-54.75" font-family="Helvetica,sans-Serif" font-size="10.00">::SKOutputTime</text>
</a>
</g>
</g>
<!-- Node2 -->
<g id="Node000002" class="node">
<title>Node2</title>
<g id="a_Node000002"><a xlink:href="classsensesp_1_1_file_system_saveable.html#a79b2e2e657112851dfda8785d217578a" target="_top" xlink:title="Load and populate the object from a persistent storage.">
<polygon fill="white" stroke="#666666" points="308,-79.5 159.25,-79.5 159.25,-49 308,-49 308,-79.5"/>
<text text-anchor="start" x="167.25" y="-66" font-family="Helvetica,sans-Serif" font-size="10.00">sensesp::FileSystemSaveable</text>
<text text-anchor="middle" x="233.62" y="-54.75" font-family="Helvetica,sans-Serif" font-size="10.00">::load</text>
</a>
</g>
</g>
<!-- Node1&#45;&gt;Node2 -->
<g id="edge1_Node000001_Node000002" class="edge">
<title>Node1&#45;&gt;Node2</title>
<g id="a_edge1_Node000001_Node000002"><a xlink:title=" ">
<path fill="none" stroke="#63b8ff" d="M123.52,-64.25C131.29,-64.25 139.35,-64.25 147.42,-64.25"/>
<polygon fill="#63b8ff" stroke="#63b8ff" points="147.28,-67.75 157.28,-64.25 147.28,-60.75 147.28,-67.75"/>
</a>
</g>
</g>
<!-- Node3 -->
<g id="Node000003" class="node">
<title>Node3</title>
<g id="a_Node000003"><a xlink:href="namespacesensesp.html#adad24461f43358c45017cf1cb816ca60" target="_top" xlink:title="A base64&#45;encoded SHA&#45;1 hash function.">
<polygon fill="white" stroke="#666666" points="643,-94.88 528.75,-94.88 528.75,-75.62 643,-75.62 643,-94.88"/>
<text text-anchor="middle" x="585.88" y="-81.38" font-family="Helvetica,sans-Serif" font-size="10.00">sensesp::Base64Sha1</text>
</a>
</g>
</g>
<!-- Node2&#45;&gt;Node3 -->
<g id="edge2_Node000002_Node000003" class="edge">
<title>Node2&#45;&gt;Node3</title>
<g id="a_edge2_Node000002_Node000003"><a xlink:title=" ">
<path fill="none" stroke="#63b8ff" d="M295.27,-80C311.03,-83.41 328.06,-86.52 344,-88.25 409.73,-95.38 426.65,-89.33 492.75,-88.25 500.58,-88.12 508.78,-87.93 516.93,-87.71"/>
<polygon fill="#63b8ff" stroke="#63b8ff" points="516.96,-91.21 526.85,-87.42 516.76,-84.22 516.96,-91.21"/>
</a>
</g>
</g>
<!-- Node5 -->
<g id="Node000005" class="node">
<title>Node5</title>
<g id="a_Node000005"><a xlink:href="classsensesp_1_1_file_system_saveable.html#ad0233f7895b5c8915108399420c7cf0b" target="_top" xlink:title=" ">
<polygon fill="white" stroke="#666666" points="492.75,-79.5 344,-79.5 344,-49 492.75,-49 492.75,-79.5"/>
<text text-anchor="start" x="352" y="-66" font-family="Helvetica,sans-Serif" font-size="10.00">sensesp::FileSystemSaveable</text>
<text text-anchor="middle" x="418.38" y="-54.75" font-family="Helvetica,sans-Serif" font-size="10.00">::find_config_file</text>
</a>
</g>
</g>
<!-- Node2&#45;&gt;Node5 -->
<g id="edge4_Node000002_Node000005" class="edge">
<title>Node2&#45;&gt;Node5</title>
<g id="a_edge4_Node000002_Node000005"><a xlink:title=" ">
<path fill="none" stroke="#63b8ff" d="M308.43,-64.25C316.22,-64.25 324.18,-64.25 332.08,-64.25"/>
<polygon fill="#63b8ff" stroke="#63b8ff" points="332.08,-67.75 342.08,-64.25 332.08,-60.75 332.08,-67.75"/>
</a>
</g>
</g>
<!-- Node6 -->
<g id="Node000006" class="node">
<title>Node6</title>
<g id="a_Node000006"><a xlink:href="classsensesp_1_1_serializable.html#a841233a82ef3a7fbcecd5a15b0df12d2" target="_top" xlink:title=" ">
<polygon fill="white" stroke="#666666" points="472.88,-30.5 363.88,-30.5 363.88,0 472.88,0 472.88,-30.5"/>
<text text-anchor="start" x="371.88" y="-17" font-family="Helvetica,sans-Serif" font-size="10.00">sensesp::Serializable</text>
<text text-anchor="middle" x="418.38" y="-5.75" font-family="Helvetica,sans-Serif" font-size="10.00">::from_json</text>
</a>
</g>
</g>
<!-- Node2&#45;&gt;Node6 -->
<g id="edge6_Node000002_Node000006" class="edge">
<title>Node2&#45;&gt;Node6</title>
<g id="a_edge6_Node000002_Node000006"><a xlink:title=" ">
<path fill="none" stroke="#63b8ff" d="M293.2,-48.54C312.14,-43.47 333.25,-37.81 352.61,-32.62"/>
<polygon fill="#63b8ff" stroke="#63b8ff" points="353.25,-36.07 362.01,-30.1 351.44,-29.31 353.25,-36.07"/>
</a>
</g>
</g>
<!-- Node4 -->
<g id="Node000004" class="node">
<title>Node4</title>
<g id="a_Node000004"><a xlink:href="namespacesensesp.html#a37dfeb5f75b7115464a9aa40473d69cf" target="_top" xlink:title="SHA&#45;1 hash function.">
<polygon fill="white" stroke="#666666" points="760.25,-94.88 679,-94.88 679,-75.62 760.25,-75.62 760.25,-94.88"/>
<text text-anchor="middle" x="719.62" y="-81.38" font-family="Helvetica,sans-Serif" font-size="10.00">sensesp::Sha1</text>
</a>
</g>
</g>
<!-- Node3&#45;&gt;Node4 -->
<g id="edge3_Node000003_Node000004" class="edge">
<title>Node3&#45;&gt;Node4</title>
<g id="a_edge3_Node000003_Node000004"><a xlink:title=" ">
<path fill="none" stroke="#63b8ff" d="M643.13,-85.25C651.21,-85.25 659.49,-85.25 667.47,-85.25"/>
<polygon fill="#63b8ff" stroke="#63b8ff" points="667.37,-88.75 677.37,-85.25 667.37,-81.75 667.37,-88.75"/>
</a>
</g>
</g>
<!-- Node5&#45;&gt;Node3 -->
<g id="edge5_Node000005_Node000003" class="edge">
<title>Node5&#45;&gt;Node3</title>
<g id="a_edge5_Node000005_Node000003"><a xlink:title=" ">
<path fill="none" stroke="#63b8ff" d="M492.93,-73.58C501.03,-74.61 509.24,-75.65 517.26,-76.67"/>
<polygon fill="#63b8ff" stroke="#63b8ff" points="516.58,-80.11 526.94,-77.9 517.46,-73.17 516.58,-80.11"/>
</a>
</g>
</g>
</g>
</svg>
