<?xml version="1.0" encoding="UTF-8" standalone="no"?>
<!DOCTYPE svg PUBLIC "-//W3C//DTD SVG 1.1//EN"
 "http://www.w3.org/Graphics/SVG/1.1/DTD/svg11.dtd">
<!-- Generated by graphviz version 12.1.0 (20240811.2233)
 -->
<!-- Title: sensesp::StringConfig::StringConfig Pages: 1 -->
<svg width="538pt" height="76pt"
 viewBox="0.00 0.00 537.75 75.88" xmlns="http://www.w3.org/2000/svg" xmlns:xlink="http://www.w3.org/1999/xlink">
<g id="graph0" class="graph" transform="scale(1 1) rotate(0) translate(4 71.88)">
<title>sensesp::StringConfig::StringConfig</title>
<!-- Node1 -->
<g id="Node000001" class="node">
<title>Node1</title>
<g id="a_Node000001"><a xlink:title=" ">
<polygon fill="#999999" stroke="#666666" points="112.75,-51.5 0,-51.5 0,-21 112.75,-21 112.75,-51.5"/>
<text text-anchor="start" x="8" y="-38" font-family="Helvetica,sans-Serif" font-size="10.00">sensesp::StringConfig</text>
<text text-anchor="middle" x="56.38" y="-26.75" font-family="Helvetica,sans-Serif" font-size="10.00">::StringConfig</text>
</a>
</g>
</g>
<!-- Node2 -->
<g id="Node000002" class="node">
<title>Node2</title>
<g id="a_Node000002"><a xlink:href="classsensesp_1_1_configurable.html#ac97542fd5a24ae306adb77f3d1ba563a" target="_top" xlink:title=" ">
<polygon fill="white" stroke="#666666" points="262.25,-51.5 148.75,-51.5 148.75,-21 262.25,-21 262.25,-51.5"/>
<text text-anchor="start" x="156.75" y="-38" font-family="Helvetica,sans-Serif" font-size="10.00">sensesp::Configurable</text>
<text text-anchor="middle" x="205.5" y="-26.75" font-family="Helvetica,sans-Serif" font-size="10.00">::load_configuration</text>
</a>
</g>
</g>
<!-- Node1&#45;&gt;Node2 -->
<g id="edge1_Node000001_Node000002" class="edge">
<title>Node1&#45;&gt;Node2</title>
<g id="a_edge1_Node000001_Node000002"><a xlink:title=" ">
<path fill="none" stroke="#63b8ff" d="M113,-36.25C120.85,-36.25 128.99,-36.25 137.04,-36.25"/>
<polygon fill="#63b8ff" stroke="#63b8ff" points="136.8,-39.75 146.8,-36.25 136.8,-32.75 136.8,-39.75"/>
</a>
</g>
</g>
<!-- Node3 -->
<g id="Node000003" class="node">
<title>Node3</title>
<g id="a_Node000003"><a xlink:href="namespacesensesp.html#adad24461f43358c45017cf1cb816ca60" target="_top" xlink:title="A base64&#45;encoded SHA&#45;1 hash function.">
<polygon fill="white" stroke="#666666" points="412.5,-67.88 298.25,-67.88 298.25,-48.62 412.5,-48.62 412.5,-67.88"/>
<text text-anchor="middle" x="355.38" y="-54.38" font-family="Helvetica,sans-Serif" font-size="10.00">sensesp::Base64Sha1</text>
</a>
</g>
</g>
<!-- Node2&#45;&gt;Node3 -->
<g id="edge2_Node000002_Node000003" class="edge">
<title>Node2&#45;&gt;Node3</title>
<g id="a_edge2_Node000002_Node000003"><a xlink:title=" ">
<path fill="none" stroke="#63b8ff" d="M262.41,-44.57C270.3,-45.74 278.48,-46.96 286.57,-48.16"/>
<polygon fill="#63b8ff" stroke="#63b8ff" points="286,-51.62 296.4,-49.63 287.03,-44.69 286,-51.62"/>
</a>
</g>
</g>
<!-- Node5 -->
<g id="Node000005" class="node">
<title>Node5</title>
<g id="a_Node000005"><a xlink:href="classsensesp_1_1_configurable.html#a0deaa5b717cd0f60d0105835cd6b595a" target="_top" xlink:title=" ">
<polygon fill="white" stroke="#666666" points="412.12,-30.5 298.62,-30.5 298.62,0 412.12,0 412.12,-30.5"/>
<text text-anchor="start" x="306.62" y="-17" font-family="Helvetica,sans-Serif" font-size="10.00">sensesp::Configurable</text>
<text text-anchor="middle" x="355.38" y="-5.75" font-family="Helvetica,sans-Serif" font-size="10.00">::set_configuration</text>
</a>
</g>
</g>
<!-- Node2&#45;&gt;Node5 -->
<g id="edge4_Node000002_Node000005" class="edge">
<title>Node2&#45;&gt;Node5</title>
<g id="a_edge4_Node000002_Node000005"><a xlink:title=" ">
<path fill="none" stroke="#63b8ff" d="M262.41,-28.31C270.5,-27.16 278.91,-25.97 287.2,-24.79"/>
<polygon fill="#63b8ff" stroke="#63b8ff" points="287.48,-28.28 296.89,-23.41 286.5,-21.35 287.48,-28.28"/>
</a>
</g>
</g>
<!-- Node4 -->
<g id="Node000004" class="node">
<title>Node4</title>
<g id="a_Node000004"><a xlink:href="namespacesensesp.html#a37dfeb5f75b7115464a9aa40473d69cf" target="_top" xlink:title="SHA&#45;1 hash function.">
<polygon fill="white" stroke="#666666" points="529.75,-67.88 448.5,-67.88 448.5,-48.62 529.75,-48.62 529.75,-67.88"/>
<text text-anchor="middle" x="489.12" y="-54.38" font-family="Helvetica,sans-Serif" font-size="10.00">sensesp::Sha1</text>
</a>
</g>
</g>
<!-- Node3&#45;&gt;Node4 -->
<g id="edge3_Node000003_Node000004" class="edge">
<title>Node3&#45;&gt;Node4</title>
<g id="a_edge3_Node000003_Node000004"><a xlink:title=" ">
<path fill="none" stroke="#63b8ff" d="M412.63,-58.25C420.71,-58.25 428.99,-58.25 436.97,-58.25"/>
<polygon fill="#63b8ff" stroke="#63b8ff" points="436.87,-61.75 446.87,-58.25 436.87,-54.75 436.87,-61.75"/>
</a>
</g>
</g>
</g>
</svg>
