<?xml version="1.0" encoding="UTF-8" standalone="no"?>
<!DOCTYPE svg PUBLIC "-//W3C//DTD SVG 1.1//EN"
 "http://www.w3.org/Graphics/SVG/1.1/DTD/svg11.dtd">
<!-- Generated by graphviz version 12.1.0 (20240811.2233)
 -->
<!-- Title: sensesp::SensESPMinimalAppBuilder::set_hostname Pages: 1 -->
<!--zoomable 125 -->

<svg id="main" version="1.1" xmlns="http://www.w3.org/2000/svg" xmlns:xlink="http://www.w3.org/1999/xlink" xml:space="preserve" onload="init(evt)">

<style type="text/css"><![CDATA[
.node, .edge {opacity: 0.7;}
.node.selected, .edge.selected {opacity: 1;}
.edge:hover path { stroke: red; }
.edge:hover polygon { stroke: red; fill: red; }
]]></style>

<defs>
  <circle id="rim" cx="0" cy="0" r="7"/>
  <circle id="rim2" cx="0" cy="0" r="3.5"/>
  <g id="zoomPlus">
    <use xlink:href="#rim" fill="#404040"><set attributeName="fill" to="#808080" begin="zoomplus.mouseover" end="zoomplus.mouseout"/></use>
    <path d="M-4,0h8M0,-4v8" fill="none" stroke="white" stroke-width="1.5" pointer-events="none"/>
  </g>
  <g id="zoomMin">
    <use xlink:href="#rim" fill="#404040"><set attributeName="fill" to="#808080" begin="zoomminus.mouseover" end="zoomminus.mouseout"/></use>
    <path d="M-4,0h8" fill="none" stroke="white" stroke-width="1.5" pointer-events="none"/>
  </g>
  <g id="arrowUp" transform="translate(30 24)">
    <use xlink:href="#rim"/>
    <path pointer-events="none" fill="none" stroke="white" stroke-width="1.5" d="M0,-3.0v7 M-2.5,-0.5L0,-3.0L2.5,-0.5"/>
  </g>
  <g id="arrowRight" transform="rotate(90) translate(36 -43)">
    <use xlink:href="#rim"/>
    <path pointer-events="none" fill="none" stroke="white" stroke-width="1.5" d="M0,-3.0v7 M-2.5,-0.5L0,-3.0L2.5,-0.5"/>
  </g>
  <g id="arrowDown" transform="rotate(180) translate(-30 -48)">
    <use xlink:href="#rim"/>
    <path pointer-events="none" fill="none" stroke="white" stroke-width="1.5" d="M0,-3.0v7 M-2.5,-0.5L0,-3.0L2.5,-0.5"/>
  </g>
  <g id="arrowLeft" transform="rotate(270) translate(-36 17)">
    <use xlink:href="#rim"/>
    <path pointer-events="none" fill="none" stroke="white" stroke-width="1.5" d="M0,-3.0v7 M-2.5,-0.5L0,-3.0L2.5,-0.5"/>
  </g>
  <g id="resetDef">
    <use xlink:href="#rim2" fill="#404040"><set attributeName="fill" to="#808080" begin="reset.mouseover" end="reset.mouseout"/></use>
  </g>
</defs>
<script type="application/ecmascript">
var viewWidth = 1015;
var viewHeight = 125;
var sectionId = 'dynsection-3';
</script>
<script type="application/ecmascript" xlink:href="svg.min.js"/>
<svg id="graph" class="graph">
<g id="viewport">
<title>sensesp::SensESPMinimalAppBuilder::set_hostname</title>
<!-- Node1 -->
<g id="Node000001" class="node">
<title>Node1</title>
<g id="a_Node000001"><a xlink:title=" ">
<polygon fill="#999999" stroke="#666666" points="152.5,-54.5 0,-54.5 0,-24 152.5,-24 152.5,-54.5"/>
<text text-anchor="start" x="8" y="-41" font-family="Helvetica,sans-Serif" font-size="10.00">sensesp::SensESPMinimalApp</text>
<text text-anchor="middle" x="76.25" y="-29.75" font-family="Helvetica,sans-Serif" font-size="10.00">Builder::set_hostname</text>
</a>
</g>
</g>
<!-- Node2 -->
<g id="Node000002" class="node">
<title>Node2</title>
<g id="a_Node000002"><a xlink:href="classsensesp_1_1_sens_e_s_p_base_app.html#a6480199c42124d844eadd89d6fac5c60" target="_top" xlink:title=" ">
<polygon fill="white" stroke="#666666" points="329.75,-54.5 188.5,-54.5 188.5,-24 329.75,-24 329.75,-54.5"/>
<text text-anchor="start" x="196.5" y="-41" font-family="Helvetica,sans-Serif" font-size="10.00">sensesp::SensESPBaseApp</text>
<text text-anchor="middle" x="259.12" y="-29.75" font-family="Helvetica,sans-Serif" font-size="10.00">::set_hostname</text>
</a>
</g>
</g>
<!-- Node1&#45;&gt;Node2 -->
<g id="edge1_Node000001_Node000002" class="edge">
<title>Node1&#45;&gt;Node2</title>
<g id="a_edge1_Node000001_Node000002"><a xlink:title=" ">
<path fill="none" stroke="#63b8ff" d="M152.91,-39.25C160.87,-39.25 168.99,-39.25 177.01,-39.25"/>
<polygon fill="#63b8ff" stroke="#63b8ff" points="176.74,-42.75 186.74,-39.25 176.74,-35.75 176.74,-42.75"/>
</a>
</g>
</g>
<!-- Node3 -->
<g id="Node000003" class="node">
<title>Node3</title>
<g id="a_Node000003"><a xlink:href="classsensesp_1_1_persisting_observable_value.html#a3fee2008981100077e240eaa5e9966ef" target="_top" xlink:title=" ">
<polygon fill="white" stroke="#666666" points="517.5,-54.5 365.75,-54.5 365.75,-24 517.5,-24 517.5,-54.5"/>
<text text-anchor="start" x="373.75" y="-41" font-family="Helvetica,sans-Serif" font-size="10.00">sensesp::PersistingObservable</text>
<text text-anchor="middle" x="441.62" y="-29.75" font-family="Helvetica,sans-Serif" font-size="10.00">Value::set</text>
</a>
</g>
</g>
<!-- Node2&#45;&gt;Node3 -->
<g id="edge2_Node000002_Node000003" class="edge">
<title>Node2&#45;&gt;Node3</title>
<g id="a_edge2_Node000002_Node000003"><a xlink:title=" ">
<path fill="none" stroke="#63b8ff" d="M330.17,-39.25C338.05,-39.25 346.15,-39.25 354.2,-39.25"/>
<polygon fill="#63b8ff" stroke="#63b8ff" points="354.03,-42.75 364.03,-39.25 354.03,-35.75 354.03,-42.75"/>
</a>
</g>
</g>
<!-- Node4 -->
<g id="Node000004" class="node">
<title>Node4</title>
<g id="a_Node000004"><a xlink:href="classsensesp_1_1_configurable.html#a4202ce8a5b9ad23d2a2be27de11153f4" target="_top" xlink:title=" ">
<polygon fill="white" stroke="#666666" points="686.12,-79.5 572.62,-79.5 572.62,-49 686.12,-49 686.12,-79.5"/>
<text text-anchor="start" x="580.62" y="-66" font-family="Helvetica,sans-Serif" font-size="10.00">sensesp::Configurable</text>
<text text-anchor="middle" x="629.38" y="-54.75" font-family="Helvetica,sans-Serif" font-size="10.00">::save_configuration</text>
</a>
</g>
</g>
<!-- Node3&#45;&gt;Node4 -->
<g id="edge3_Node000003_Node000004" class="edge">
<title>Node3&#45;&gt;Node4</title>
<g id="a_edge3_Node000003_Node000004"><a xlink:title=" ">
<path fill="none" stroke="#63b8ff" d="M517.91,-49.38C532.27,-51.32 547.22,-53.33 561.3,-55.22"/>
<polygon fill="#63b8ff" stroke="#63b8ff" points="560.51,-58.65 570.89,-56.51 561.44,-51.71 560.51,-58.65"/>
</a>
</g>
</g>
<!-- Node8 -->
<g id="Node000008" class="node">
<title>Node8</title>
<g id="a_Node000008"><a xlink:href="classsensesp_1_1_observable_value.html#a953b030b296985e7f5ab84ec71290fec" target="_top" xlink:title=" ">
<polygon fill="white" stroke="#666666" points="705.25,-27.88 553.5,-27.88 553.5,-8.62 705.25,-8.62 705.25,-27.88"/>
<text text-anchor="middle" x="629.38" y="-14.38" font-family="Helvetica,sans-Serif" font-size="10.00">sensesp::ObservableValue::set</text>
</a>
</g>
</g>
<!-- Node3&#45;&gt;Node8 -->
<g id="edge7_Node000003_Node000008" class="edge">
<title>Node3&#45;&gt;Node8</title>
<g id="a_edge7_Node000003_Node000008"><a xlink:title=" ">
<path fill="none" stroke="#63b8ff" d="M517.91,-30.74C525.84,-29.84 533.94,-28.93 541.99,-28.02"/>
<polygon fill="#63b8ff" stroke="#63b8ff" points="542.24,-31.51 551.78,-26.91 541.45,-24.55 542.24,-31.51"/>
</a>
</g>
</g>
<!-- Node5 -->
<g id="Node000005" class="node">
<title>Node5</title>
<g id="a_Node000005"><a xlink:href="namespacesensesp.html#adad24461f43358c45017cf1cb816ca60" target="_top" xlink:title="A base64&#45;encoded SHA&#45;1 hash function.">
<polygon fill="white" stroke="#666666" points="859.25,-116.88 745,-116.88 745,-97.62 859.25,-97.62 859.25,-116.88"/>
<text text-anchor="middle" x="802.12" y="-103.38" font-family="Helvetica,sans-Serif" font-size="10.00">sensesp::Base64Sha1</text>
</a>
</g>
</g>
<!-- Node4&#45;&gt;Node5 -->
<g id="edge4_Node000004_Node000005" class="edge">
<title>Node4&#45;&gt;Node5</title>
<g id="a_edge4_Node000004_Node000005"><a xlink:title=" ">
<path fill="none" stroke="#63b8ff" d="M686.28,-78.33C706.79,-83.49 729.87,-89.31 749.94,-94.36"/>
<polygon fill="#63b8ff" stroke="#63b8ff" points="749.03,-97.74 759.59,-96.79 750.74,-90.95 749.03,-97.74"/>
</a>
</g>
</g>
<!-- Node7 -->
<g id="Node000007" class="node">
<title>Node7</title>
<g id="a_Node000007"><a xlink:href="classsensesp_1_1_configurable.html#accb44b286a13d98d573b15d88ca58fd4" target="_top" xlink:title=" ">
<polygon fill="white" stroke="#666666" points="858.88,-79.5 745.38,-79.5 745.38,-49 858.88,-49 858.88,-79.5"/>
<text text-anchor="start" x="753.38" y="-66" font-family="Helvetica,sans-Serif" font-size="10.00">sensesp::Configurable</text>
<text text-anchor="middle" x="802.12" y="-54.75" font-family="Helvetica,sans-Serif" font-size="10.00">::get_configuration</text>
</a>
</g>
</g>
<!-- Node4&#45;&gt;Node7 -->
<g id="edge6_Node000004_Node000007" class="edge">
<title>Node4&#45;&gt;Node7</title>
<g id="a_edge6_Node000004_Node000007"><a xlink:title=" ">
<path fill="none" stroke="#63b8ff" d="M686.28,-64.25C701.47,-64.25 718.07,-64.25 733.81,-64.25"/>
<polygon fill="#63b8ff" stroke="#63b8ff" points="733.58,-67.75 743.58,-64.25 733.58,-60.75 733.58,-67.75"/>
</a>
</g>
</g>
<!-- Node6 -->
<g id="Node000006" class="node">
<title>Node6</title>
<g id="a_Node000006"><a xlink:href="namespacesensesp.html#a37dfeb5f75b7115464a9aa40473d69cf" target="_top" xlink:title="SHA&#45;1 hash function.">
<polygon fill="white" stroke="#666666" points="993.75,-116.88 912.5,-116.88 912.5,-97.62 993.75,-97.62 993.75,-116.88"/>
<text text-anchor="middle" x="953.12" y="-103.38" font-family="Helvetica,sans-Serif" font-size="10.00">sensesp::Sha1</text>
</a>
</g>
</g>
<!-- Node5&#45;&gt;Node6 -->
<g id="edge5_Node000005_Node000006" class="edge">
<title>Node5&#45;&gt;Node6</title>
<g id="a_edge5_Node000005_Node000006"><a xlink:title=" ">
<path fill="none" stroke="#63b8ff" d="M859.46,-107.25C873.1,-107.25 887.6,-107.25 900.99,-107.25"/>
<polygon fill="#63b8ff" stroke="#63b8ff" points="900.9,-110.75 910.9,-107.25 900.9,-103.75 900.9,-110.75"/>
</a>
</g>
</g>
<!-- Node9 -->
<g id="Node000009" class="node">
<title>Node9</title>
<g id="a_Node000009"><a xlink:href="classsensesp_1_1_value_producer.html#a4f5f0259d0d3cd9a0ed17d657cac04e2" target="_top" xlink:title=" ">
<polygon fill="white" stroke="#666666" points="863,-30.5 741.25,-30.5 741.25,0 863,0 863,-30.5"/>
<text text-anchor="start" x="749.25" y="-17" font-family="Helvetica,sans-Serif" font-size="10.00">sensesp::ValueProducer</text>
<text text-anchor="middle" x="802.12" y="-5.75" font-family="Helvetica,sans-Serif" font-size="10.00">::emit</text>
</a>
</g>
</g>
<!-- Node8&#45;&gt;Node9 -->
<g id="edge8_Node000008_Node000009" class="edge">
<title>Node8&#45;&gt;Node9</title>
<g id="a_edge8_Node000008_Node000009"><a xlink:title=" ">
<path fill="none" stroke="#63b8ff" d="M705.27,-16.93C713.37,-16.79 721.6,-16.65 729.65,-16.51"/>
<polygon fill="#63b8ff" stroke="#63b8ff" points="729.45,-20.01 739.39,-16.33 729.33,-13.01 729.45,-20.01"/>
</a>
</g>
</g>
<!-- Node10 -->
<g id="Node000010" class="node">
<title>Node10</title>
<g id="a_Node000010"><a xlink:href="classsensesp_1_1_observable.html#ab86d00fed8fb85b4c76cb9397667ece9" target="_top" xlink:title=" ">
<polygon fill="white" stroke="#666666" points="1007.25,-30.5 899,-30.5 899,0 1007.25,0 1007.25,-30.5"/>
<text text-anchor="start" x="907" y="-17" font-family="Helvetica,sans-Serif" font-size="10.00">sensesp::Observable</text>
<text text-anchor="middle" x="953.12" y="-5.75" font-family="Helvetica,sans-Serif" font-size="10.00">::notify</text>
</a>
</g>
</g>
<!-- Node9&#45;&gt;Node10 -->
<g id="edge9_Node000009_Node000010" class="edge">
<title>Node9&#45;&gt;Node10</title>
<g id="a_edge9_Node000009_Node000010"><a xlink:title=" ">
<path fill="none" stroke="#63b8ff" d="M863.3,-15.25C871.31,-15.25 879.56,-15.25 887.64,-15.25"/>
<polygon fill="#63b8ff" stroke="#63b8ff" points="887.41,-18.75 897.41,-15.25 887.41,-11.75 887.41,-18.75"/>
</a>
</g>
</g>
</g>
</svg>

<g id="navigator" transform="translate(0 0)" fill="#404254">
  <rect fill="#f2f5e9" fill-opacity="0.5" stroke="#606060" stroke-width=".5" x="0" y="0" width="60" height="60"/>
  <use id="zoomplus" xlink:href="#zoomPlus" x="17" y="9" onmousedown="handleZoom(evt,'in')"/>
  <use id="zoomminus" xlink:href="#zoomMin" x="42" y="9" onmousedown="handleZoom(evt,'out')"/>
  <use id="reset" xlink:href="#resetDef" x="30" y="36" onmousedown="handleReset()"/>
   <use id="arrowup" xlink:href="#arrowUp" x="0" y="0" onmousedown="handlePan(0,-1)"/>
  <use id="arrowright" xlink:href="#arrowRight" x="0" y="0" onmousedown="handlePan(1,0)"/>
  <use id="arrowdown" xlink:href="#arrowDown" x="0" y="0" onmousedown="handlePan(0,1)"/>
  <use id="arrowleft" xlink:href="#arrowLeft" x="0" y="0" onmousedown="handlePan(-1,0)"/>
</g>
<svg viewBox="0 0 15 15" width="100%" height="30px" preserveAspectRatio="xMaxYMin meet">
 <g id="arrow_out" transform="scale(0.3 0.3)">
  <a xlink:href="classsensesp_1_1_sens_e_s_p_minimal_app_builder_a650d6c129456d8b1914e5c9fe5798d23_cgraph_org.svg" target="_base">
   <rect id="button" ry="5" rx="5" y="6" x="6" height="38" width="38"
        fill="#f2f5e9" fill-opacity="0.5" stroke="#606060" stroke-width="1.0"/>
   <path id="arrow"
     d="M 11.500037,31.436501 C 11.940474,20.09759 22.043105,11.32322 32.158766,21.979434 L 37.068811,17.246167 C 37.068811,17.246167 37.088388,32 37.088388,32 L 22.160133,31.978069 C 22.160133,31.978069 26.997745,27.140456 26.997745,27.140456 C 18.528582,18.264221 13.291696,25.230495 11.500037,31.436501 z"
     style="fill:#404040;"/>
  </a>
 </g>
</svg>

<style type='text/css'>
<![CDATA[
[data-mouse-over-selected='false'] { opacity: 0.7; }
[data-mouse-over-selected='true']  { opacity: 1.0; }
]]>
</style>
<script type="application/ecmascript"><![CDATA[
document.addEventListener('DOMContentLoaded', (event) => {
  highlightEdges();
  highlightAdjacentNodes();
});
]]></script>
</svg>
