<?xml version="1.0" encoding="UTF-8" standalone="no"?>
<!DOCTYPE svg PUBLIC "-//W3C//DTD SVG 1.1//EN"
 "http://www.w3.org/Graphics/SVG/1.1/DTD/svg11.dtd">
<!-- Generated by graphviz version 14.1.4 (20260321.0153)
 -->
<!-- Title: sensesp::SKWSClient::on_receive_put Pages: 1 -->
<svg width="294pt" height="353pt"
 viewBox="0.00 0.00 294.00 353.00" xmlns="http://www.w3.org/2000/svg" xmlns:xlink="http://www.w3.org/1999/xlink">

<svg id="main" version="1.1" xmlns="http://www.w3.org/2000/svg" xmlns:xlink="http://www.w3.org/1999/xlink" xml:space="preserve">

<style type="text/css"><![CDATA[
.node, .edge {opacity: 0.7;}
.node.selected, .edge.selected {opacity: 1;}
.edge:hover path { stroke: red; }
.edge:hover polygon { stroke: red; fill: red; }
]]></style>
<script type="application/ecmascript" xlink:href="svg.min.js"/>
<svg id="graph" class="graph">
<g id="graph0" class="graph" transform="scale(1 1) rotate(0) translate(4 348.5)">
<title>sensesp::SKWSClient::on_receive_put</title>
<!-- Node1 -->
<g id="Node000001" class="node">
<title>Node1</title>
<g id="a_Node000001"><a xlink:title="Called when a PUT event is received.">
<polygon fill="#999999" stroke="#666666" points="114.25,-192.5 0,-192.5 0,-162 114.25,-162 114.25,-192.5"/>
<text xml:space="preserve" text-anchor="start" x="8" y="-179" font-family="Helvetica,sans-Serif" font-size="10.00">sensesp::SKWSClient</text>
<text xml:space="preserve" text-anchor="middle" x="57.12" y="-167.75" font-family="Helvetica,sans-Serif" font-size="10.00">::on_receive_put</text>
</a>
</g>
</g>
<!-- Node2 -->
<g id="Node000002" class="node">
<title>Node2</title>
<g id="a_Node000002"><a xlink:href="classsensesp_1_1_s_k_w_s_client.html#a4b743aa1377f34235482a2bbc6400698" target="_top" xlink:title=" ">
<polygon fill="white" stroke="#666666" points="275.38,-344.5 160.38,-344.5 160.38,-314 275.38,-314 275.38,-344.5"/>
<text xml:space="preserve" text-anchor="start" x="168.38" y="-331" font-family="Helvetica,sans-Serif" font-size="10.00">sensesp::SKWSClient</text>
<text xml:space="preserve" text-anchor="middle" x="217.88" y="-319.75" font-family="Helvetica,sans-Serif" font-size="10.00">::get_connection_state</text>
</a>
</g>
</g>
<!-- Node1&#45;&gt;Node2 -->
<g id="edge1_Node000001_Node000002" class="edge">
<title>Node1&#45;&gt;Node2</title>
<g id="a_edge1_Node000001_Node000002"><a xlink:title=" ">
<path fill="none" stroke="#63b8ff" d="M65.55,-192.8C78.93,-219.27 109.52,-273.21 150.25,-304.25 151.98,-305.57 153.79,-306.83 155.66,-308.02"/>
<polygon fill="#63b8ff" stroke="#63b8ff" points="153.65,-310.91 164.08,-312.76 157.08,-304.81 153.65,-310.91"/>
</a>
</g>
</g>
<!-- Node3 -->
<g id="Node000003" class="node">
<title>Node3</title>
<g id="a_Node000003"><a xlink:href="classsensesp_1_1_s_k_put_listener.html#aacf306d816cfd5590cbbb8df9981a7fe" target="_top" xlink:title=" ">
<polygon fill="white" stroke="#666666" points="278.75,-295.5 157,-295.5 157,-265 278.75,-265 278.75,-295.5"/>
<text xml:space="preserve" text-anchor="start" x="165" y="-282" font-family="Helvetica,sans-Serif" font-size="10.00">sensesp::SKPutListener</text>
<text xml:space="preserve" text-anchor="middle" x="217.88" y="-270.75" font-family="Helvetica,sans-Serif" font-size="10.00">::get_listeners</text>
</a>
</g>
</g>
<!-- Node1&#45;&gt;Node3 -->
<g id="edge2_Node000001_Node000003" class="edge">
<title>Node1&#45;&gt;Node3</title>
<g id="a_edge2_Node000001_Node000003"><a xlink:title=" ">
<path fill="none" stroke="#63b8ff" d="M73.15,-192.86C90.42,-210.07 120.25,-237.64 150.25,-255.25 153,-256.86 155.87,-258.4 158.81,-259.87"/>
<polygon fill="#63b8ff" stroke="#63b8ff" points="157.07,-262.93 167.62,-263.94 160.01,-256.57 157.07,-262.93"/>
</a>
</g>
</g>
<!-- Node4 -->
<g id="Node000004" class="node">
<title>Node4</title>
<g id="a_Node000004"><a xlink:href="classsensesp_1_1_s_k_put_listener.html#a38101840c1a916d99622e72b0a4e5b42" target="_top" xlink:title=" ">
<polygon fill="white" stroke="#666666" points="278.75,-246.5 157,-246.5 157,-216 278.75,-216 278.75,-246.5"/>
<text xml:space="preserve" text-anchor="start" x="165" y="-233" font-family="Helvetica,sans-Serif" font-size="10.00">sensesp::SKPutListener</text>
<text xml:space="preserve" text-anchor="middle" x="217.88" y="-221.75" font-family="Helvetica,sans-Serif" font-size="10.00">::get_sk_path</text>
</a>
</g>
</g>
<!-- Node1&#45;&gt;Node4 -->
<g id="edge3_Node000001_Node000004" class="edge">
<title>Node1&#45;&gt;Node4</title>
<g id="a_edge3_Node000001_Node000004"><a xlink:title=" ">
<path fill="none" stroke="#63b8ff" d="M104.04,-192.87C121.49,-198.8 141.58,-205.64 159.92,-211.88"/>
<polygon fill="#63b8ff" stroke="#63b8ff" points="158.76,-215.18 169.35,-215.09 161.01,-208.55 158.76,-215.18"/>
</a>
</g>
</g>
<!-- Node5 -->
<g id="Node000005" class="node">
<title>Node5</title>
<g id="a_Node000005"><a xlink:href="classsensesp_1_1_s_k_w_s_client.html#a51989a27609077e32aba992bc3554793" target="_top" xlink:title=" ">
<polygon fill="white" stroke="#666666" points="285.5,-198.12 150.25,-198.12 150.25,-156.38 285.5,-156.38 285.5,-198.12"/>
<text xml:space="preserve" text-anchor="start" x="158.25" y="-184.62" font-family="Helvetica,sans-Serif" font-size="10.00">sensesp::SKWSClient</text>
<text xml:space="preserve" text-anchor="start" x="158.25" y="-173.38" font-family="Helvetica,sans-Serif" font-size="10.00">::release_received_updates</text>
<text xml:space="preserve" text-anchor="middle" x="217.88" y="-162.12" font-family="Helvetica,sans-Serif" font-size="10.00">_semaphore</text>
</a>
</g>
</g>
<!-- Node1&#45;&gt;Node5 -->
<g id="edge4_Node000001_Node000005" class="edge">
<title>Node1&#45;&gt;Node5</title>
<g id="a_edge4_Node000001_Node000005"><a xlink:title=" ">
<path fill="none" stroke="#63b8ff" d="M114.54,-177.25C122.29,-177.25 130.37,-177.25 138.43,-177.25"/>
<polygon fill="#63b8ff" stroke="#63b8ff" points="138.27,-180.75 148.27,-177.25 138.27,-173.75 138.27,-180.75"/>
</a>
</g>
</g>
<!-- Node6 -->
<g id="Node000006" class="node">
<title>Node6</title>
<g id="a_Node000006"><a xlink:href="classsensesp_1_1_s_k_listener.html#a16e7abf03f11f1734cb33388c0517cd8" target="_top" xlink:title=" ">
<polygon fill="white" stroke="#666666" points="271.25,-138.5 164.5,-138.5 164.5,-108 271.25,-108 271.25,-138.5"/>
<text xml:space="preserve" text-anchor="start" x="172.5" y="-125" font-family="Helvetica,sans-Serif" font-size="10.00">sensesp::SKListener</text>
<text xml:space="preserve" text-anchor="middle" x="217.88" y="-113.75" font-family="Helvetica,sans-Serif" font-size="10.00">::release_semaphore</text>
</a>
</g>
</g>
<!-- Node1&#45;&gt;Node6 -->
<g id="edge5_Node000001_Node000006" class="edge">
<title>Node1&#45;&gt;Node6</title>
<g id="a_edge5_Node000001_Node000006"><a xlink:title=" ">
<path fill="none" stroke="#63b8ff" d="M104.04,-161.63C121.49,-155.7 141.58,-148.86 159.92,-142.62"/>
<polygon fill="#63b8ff" stroke="#63b8ff" points="161.01,-145.95 169.35,-139.41 158.76,-139.32 161.01,-145.95"/>
</a>
</g>
</g>
<!-- Node7 -->
<g id="Node000007" class="node">
<title>Node7</title>
<g id="a_Node000007"><a xlink:href="classsensesp_1_1_s_k_w_s_client.html#ac66974c5d91bacc76751592ddb1c979b" target="_top" xlink:title=" ">
<polygon fill="white" stroke="#666666" points="279.12,-90.12 156.62,-90.12 156.62,-48.38 279.12,-48.38 279.12,-90.12"/>
<text xml:space="preserve" text-anchor="start" x="164.62" y="-76.62" font-family="Helvetica,sans-Serif" font-size="10.00">sensesp::SKWSClient</text>
<text xml:space="preserve" text-anchor="start" x="164.62" y="-65.38" font-family="Helvetica,sans-Serif" font-size="10.00">::take_received_updates</text>
<text xml:space="preserve" text-anchor="middle" x="217.88" y="-54.12" font-family="Helvetica,sans-Serif" font-size="10.00">_semaphore</text>
</a>
</g>
</g>
<!-- Node1&#45;&gt;Node7 -->
<g id="edge6_Node000001_Node000007" class="edge">
<title>Node1&#45;&gt;Node7</title>
<g id="a_edge6_Node000001_Node000007"><a xlink:title=" ">
<path fill="none" stroke="#63b8ff" d="M73.69,-161.68C91.19,-144.77 121.01,-117.7 150.25,-99.25 152.06,-98.11 153.92,-96.99 155.82,-95.89"/>
<polygon fill="#63b8ff" stroke="#63b8ff" points="157.11,-99.17 164.21,-91.31 153.76,-93.02 157.11,-99.17"/>
</a>
</g>
</g>
<!-- Node8 -->
<g id="Node000008" class="node">
<title>Node8</title>
<g id="a_Node000008"><a xlink:href="classsensesp_1_1_s_k_listener.html#a07c3b13156e9156f03858b5003b1cde5" target="_top" xlink:title=" ">
<polygon fill="white" stroke="#666666" points="271.25,-30.5 164.5,-30.5 164.5,0 271.25,0 271.25,-30.5"/>
<text xml:space="preserve" text-anchor="start" x="172.5" y="-17" font-family="Helvetica,sans-Serif" font-size="10.00">sensesp::SKListener</text>
<text xml:space="preserve" text-anchor="middle" x="217.88" y="-5.75" font-family="Helvetica,sans-Serif" font-size="10.00">::take_semaphore</text>
</a>
</g>
</g>
<!-- Node1&#45;&gt;Node8 -->
<g id="edge7_Node000001_Node000008" class="edge">
<title>Node1&#45;&gt;Node8</title>
<g id="a_edge7_Node000001_Node000008"><a xlink:title=" ">
<path fill="none" stroke="#63b8ff" d="M64.55,-161.64C76.96,-133.29 106.92,-73.16 150.25,-39.25 151.58,-38.21 152.96,-37.21 154.38,-36.25"/>
<polygon fill="#63b8ff" stroke="#63b8ff" points="156.06,-39.33 162.94,-31.27 152.53,-33.28 156.06,-39.33"/>
</a>
</g>
</g>
</g>
</svg>
</svg>

<style type='text/css'>
<![CDATA[
[data-mouse-over-selected='false'] { opacity: 0.7; }
[data-mouse-over-selected='true']  { opacity: 1.0; }
]]>
</style>
<script type="application/ecmascript"><![CDATA[
document.addEventListener('DOMContentLoaded', (event) => {
  highlightEdges();
  highlightAdjacentNodes();
});
]]></script>
</svg>
