<?xml version="1.0" encoding="UTF-8" standalone="no"?>
<!DOCTYPE svg PUBLIC "-//W3C//DTD SVG 1.1//EN"
 "http://www.w3.org/Graphics/SVG/1.1/DTD/svg11.dtd">
<!-- Generated by graphviz version 2.40.1 (20161225.0304)
 -->
<!-- Title: AnalogVoltage Pages: 1 -->
<svg width="1352pt" height="306pt"
 viewBox="0.00 0.00 1351.79 306.34" xmlns="http://www.w3.org/2000/svg" xmlns:xlink="http://www.w3.org/1999/xlink">
<g id="graph0" class="graph" transform="scale(1 1) rotate(0) translate(4 302.344)">
<title>AnalogVoltage</title>
<polygon fill="#ffffff" stroke="transparent" points="-4,4 -4,-302.344 1347.7949,-302.344 1347.7949,4 -4,4"/>
<!-- Node0 -->
<g id="node1" class="node">
<title>Node0</title>
<g id="a_node1"><a xlink:title=" ">
<polygon fill="#bfbfbf" stroke="#000000" points="1263.2881,-103.844 1263.2881,-121.844 1343.7949,-121.844 1343.7949,-103.844 1263.2881,-103.844"/>
<text text-anchor="middle" x="1303.5415" y="-109.844" font-family="Helvetica,sans-Serif" font-size="10.00" fill="#000000">AnalogVoltage</text>
</a>
</g>
</g>
<!-- Node1 -->
<g id="node2" class="node">
<title>Node1</title>
<g id="a_node2"><a xlink:href="class_symmetric_transform.html" target="_top" xlink:title=" ">
<polygon fill="#ffffff" stroke="#000000" points="1127.8662,-103.844 1127.8662,-121.844 1226.2881,-121.844 1226.2881,-103.844 1127.8662,-103.844"/>
<text text-anchor="middle" x="1177.0771" y="-109.844" font-family="Helvetica,sans-Serif" font-size="10.00" fill="#000000">NumericTransform</text>
</a>
</g>
</g>
<!-- Node1&#45;&gt;Node0 -->
<g id="edge1" class="edge">
<title>Node1&#45;&gt;Node0</title>
<path fill="none" stroke="#191970" d="M1236.4709,-112.844C1245.5245,-112.844 1254.6833,-112.844 1263.2014,-112.844"/>
<polygon fill="#191970" stroke="#191970" points="1236.3337,-109.3441 1226.3337,-112.844 1236.3337,-116.3441 1236.3337,-109.3441"/>
</g>
<!-- Node2 -->
<g id="node3" class="node">
<title>Node2</title>
<g id="a_node3"><a xlink:href="class_transform.html" target="_top" xlink:title=" ">
<polygon fill="#ffffff" stroke="#000000" points="762.749,-125.844 762.749,-143.844 884.54,-143.844 884.54,-125.844 762.749,-125.844"/>
<text text-anchor="middle" x="823.6445" y="-131.844" font-family="Helvetica,sans-Serif" font-size="10.00" fill="#000000">Transform&lt; float, float &gt;</text>
</a>
</g>
</g>
<!-- Node2&#45;&gt;Node1 -->
<g id="edge2" class="edge">
<title>Node2&#45;&gt;Node1</title>
<path fill="none" stroke="#191970" d="M894.9441,-130.9054C952.8625,-127.6347 1036.6559,-122.741 1109.8662,-117.844 1115.5868,-117.4613 1121.5799,-117.042 1127.5315,-116.614"/>
<polygon fill="#191970" stroke="#191970" points="894.5867,-127.4199 884.7993,-131.4767 894.9803,-134.4089 894.5867,-127.4199"/>
</g>
<!-- Node3 -->
<g id="node4" class="node">
<title>Node3</title>
<g id="a_node4"><a xlink:href="class_transform_base.html" target="_top" xlink:title=" ">
<polygon fill="#ffffff" stroke="#000000" points="305.7959,-241.844 305.7959,-259.844 389.7842,-259.844 389.7842,-241.844 305.7959,-241.844"/>
<text text-anchor="middle" x="347.79" y="-247.844" font-family="Helvetica,sans-Serif" font-size="10.00" fill="#000000">TransformBase</text>
</a>
</g>
</g>
<!-- Node3&#45;&gt;Node2 -->
<g id="edge3" class="edge">
<title>Node3&#45;&gt;Node2</title>
<path fill="none" stroke="#191970" d="M400.1692,-250.9738C440.795,-250.1643 498.308,-247.0228 547.6709,-236.844 638.5622,-218.102 658.1078,-201.0975 744.749,-167.844 764.7091,-160.1832 787.1771,-150.6994 803.0162,-143.8674"/>
<polygon fill="#191970" stroke="#191970" points="399.9036,-247.4775 389.9603,-251.1353 400.0144,-254.4766 399.9036,-247.4775"/>
</g>
<!-- Node11 -->
<g id="node12" class="node">
<title>Node11</title>
<g id="a_node12"><a xlink:href="class_transform.html" target="_top" xlink:title=" ">
<polygon fill="#ffffff" stroke="#000000" points="565.6709,-125.844 565.6709,-143.844 663.375,-143.844 663.375,-125.844 565.6709,-125.844"/>
<text text-anchor="middle" x="614.5229" y="-131.844" font-family="Helvetica,sans-Serif" font-size="10.00" fill="#000000">Transform&lt; C, P &gt;</text>
</a>
</g>
</g>
<!-- Node3&#45;&gt;Node11 -->
<g id="edge13" class="edge">
<title>Node3&#45;&gt;Node11</title>
<path fill="none" stroke="#191970" d="M373.7016,-236.9899C388.4596,-229.2745 407.3801,-219.6753 424.5664,-211.844 483.1772,-185.1368 553.8666,-157.7035 590.2556,-143.9216"/>
<polygon fill="#191970" stroke="#191970" points="371.8809,-233.993 364.6646,-241.7504 375.1434,-240.1863 371.8809,-233.993"/>
</g>
<!-- Node15 -->
<g id="node16" class="node">
<title>Node15</title>
<g id="a_node16"><a xlink:href="class_transform.html" target="_top" xlink:title=" ">
<polygon fill="#ffffff" stroke="#000000" points="776.3599,-62.844 776.3599,-80.844 870.9292,-80.844 870.9292,-62.844 776.3599,-62.844"/>
<text text-anchor="middle" x="823.6445" y="-68.844" font-family="Helvetica,sans-Serif" font-size="10.00" fill="#000000">Transform&lt; T, T &gt;</text>
</a>
</g>
</g>
<!-- Node3&#45;&gt;Node15 -->
<g id="edge21" class="edge">
<title>Node3&#45;&gt;Node15</title>
<path fill="none" stroke="#191970" d="M396.183,-239.5046C498.9633,-215.2723 730.8261,-159.7551 744.749,-148.844 757.8987,-138.5388 751.7051,-128.3796 762.749,-115.844 775.5099,-101.3596 793.869,-88.9167 807.0884,-80.996"/>
<polygon fill="#191970" stroke="#191970" points="395.289,-236.1194 386.3576,-241.8186 396.8937,-242.933 395.289,-236.1194"/>
</g>
<!-- Node4 -->
<g id="node5" class="node">
<title>Node4</title>
<g id="a_node5"><a xlink:href="class_configurable.html" target="_top" xlink:title=" ">
<polygon fill="#ffffff" stroke="#000000" points="122.7656,-279.844 122.7656,-297.844 195.4697,-297.844 195.4697,-279.844 122.7656,-279.844"/>
<text text-anchor="middle" x="159.1177" y="-285.844" font-family="Helvetica,sans-Serif" font-size="10.00" fill="#000000">Configurable</text>
</a>
</g>
</g>
<!-- Node4&#45;&gt;Node3 -->
<g id="edge4" class="edge">
<title>Node4&#45;&gt;Node3</title>
<path fill="none" stroke="#191970" d="M205.4951,-279.5032C236.0999,-273.3392 275.8794,-265.3273 305.5951,-259.3424"/>
<polygon fill="#191970" stroke="#191970" points="204.6077,-276.1116 195.4956,-281.5172 205.9898,-282.9738 204.6077,-276.1116"/>
</g>
<!-- Node5 -->
<g id="node6" class="node">
<title>Node5</title>
<g id="a_node6"><a xlink:href="class_enable.html" target="_top" xlink:title=" ">
<polygon fill="#ffffff" stroke="#000000" points="135.5488,-242.844 135.5488,-260.844 182.6865,-260.844 182.6865,-242.844 135.5488,-242.844"/>
<text text-anchor="middle" x="159.1177" y="-248.844" font-family="Helvetica,sans-Serif" font-size="10.00" fill="#000000">Enable</text>
</a>
</g>
</g>
<!-- Node5&#45;&gt;Node3 -->
<g id="edge5" class="edge">
<title>Node5&#45;&gt;Node3</title>
<path fill="none" stroke="#191970" d="M193.0552,-251.6641C224.5385,-251.4972 271.5095,-251.2483 305.4373,-251.0685"/>
<polygon fill="#191970" stroke="#191970" points="192.9944,-248.1643 183.0132,-251.7173 193.0316,-255.1642 192.9944,-248.1643"/>
</g>
<!-- Node6 -->
<g id="node7" class="node">
<title>Node6</title>
<g id="a_node7"><a xlink:href="class_value_consumer.html" target="_top" xlink:title=" ">
<polygon fill="#ffffff" stroke="#000000" points="424.5664,-73.844 424.5664,-91.844 547.6709,-91.844 547.6709,-73.844 424.5664,-73.844"/>
<text text-anchor="middle" x="486.1187" y="-79.844" font-family="Helvetica,sans-Serif" font-size="10.00" fill="#000000">ValueConsumer&lt; float &gt;</text>
</a>
</g>
</g>
<!-- Node6&#45;&gt;Node2 -->
<g id="edge6" class="edge">
<title>Node6&#45;&gt;Node2</title>
<path fill="none" stroke="#191970" d="M554.9622,-93.4502C616.7608,-102.971 706.4943,-116.7956 764.9605,-125.803"/>
<polygon fill="#191970" stroke="#191970" points="555.3275,-89.9653 544.9112,-91.9017 554.2616,-96.8836 555.3275,-89.9653"/>
</g>
<!-- Node7 -->
<g id="node8" class="node">
<title>Node7</title>
<g id="a_node8"><a xlink:href="class_value_consumer.html" target="_top" xlink:title=" ">
<polygon fill="#ffffff" stroke="#000000" points="104.1377,-19.844 104.1377,-37.844 214.0977,-37.844 214.0977,-19.844 104.1377,-19.844"/>
<text text-anchor="middle" x="159.1177" y="-25.844" font-family="Helvetica,sans-Serif" font-size="10.00" fill="#000000">ValueConsumer&lt; T &gt;</text>
</a>
</g>
</g>
<!-- Node7&#45;&gt;Node6 -->
<g id="edge7" class="edge">
<title>Node7&#45;&gt;Node6</title>
<path fill="none" stroke="#ffa500" stroke-dasharray="5,2" d="M224.0823,-39.5721C284.7782,-49.5952 374.3686,-64.3899 431.4803,-73.8212"/>
<polygon fill="#ffa500" stroke="#ffa500" points="224.2869,-36.0585 213.8503,-37.8824 223.1464,-42.965 224.2869,-36.0585"/>
<text text-anchor="middle" x="251.5557" y="-48.844" font-family="Helvetica,sans-Serif" font-size="10.00" fill="#000000"> &lt; float &gt;</text>
</g>
<!-- Node12 -->
<g id="node13" class="node">
<title>Node12</title>
<g id="a_node13"><a xlink:href="class_value_consumer.html" target="_top" xlink:title=" ">
<polygon fill="#ffffff" stroke="#000000" points="292.0776,-105.844 292.0776,-123.844 403.5024,-123.844 403.5024,-105.844 292.0776,-105.844"/>
<text text-anchor="middle" x="347.79" y="-111.844" font-family="Helvetica,sans-Serif" font-size="10.00" fill="#000000">ValueConsumer&lt; C &gt;</text>
</a>
</g>
</g>
<!-- Node7&#45;&gt;Node12 -->
<g id="edge15" class="edge">
<title>Node7&#45;&gt;Node12</title>
<path fill="none" stroke="#ffa500" stroke-dasharray="5,2" d="M186.744,-42.5997C212.8947,-55.4846 253.3498,-75.0671 289.0137,-90.844 300.7063,-96.0165 313.8706,-101.4292 324.7721,-105.8023"/>
<polygon fill="#ffa500" stroke="#ffa500" points="187.9772,-39.3051 177.4617,-38.0113 184.8753,-45.5803 187.9772,-39.3051"/>
<text text-anchor="middle" x="251.5557" y="-83.844" font-family="Helvetica,sans-Serif" font-size="10.00" fill="#000000"> &lt; C &gt;</text>
</g>
<!-- Node7&#45;&gt;Node15 -->
<g id="edge22" class="edge">
<title>Node7&#45;&gt;Node15</title>
<path fill="none" stroke="#191970" d="M224.6446,-26.4331C245.2432,-25.7807 268.0744,-25.1663 289.0137,-24.844 491.5387,-21.7265 549.4646,28.9157 744.749,-24.844 771.4956,-32.207 798.3313,-51.2738 812.7787,-62.7329"/>
<polygon fill="#191970" stroke="#191970" points="224.2963,-22.9425 214.4153,-26.7657 224.5239,-29.9388 224.2963,-22.9425"/>
</g>
<!-- Node8 -->
<g id="node9" class="node">
<title>Node8</title>
<g id="a_node9"><a xlink:href="class_value_producer.html" target="_top" xlink:title=" ">
<polygon fill="#ffffff" stroke="#000000" points="289.0137,-191.844 289.0137,-209.844 406.5664,-209.844 406.5664,-191.844 289.0137,-191.844"/>
<text text-anchor="middle" x="347.79" y="-197.844" font-family="Helvetica,sans-Serif" font-size="10.00" fill="#000000">ValueProducer&lt; float &gt;</text>
</a>
</g>
</g>
<!-- Node8&#45;&gt;Node2 -->
<g id="edge8" class="edge">
<title>Node8&#45;&gt;Node2</title>
<path fill="none" stroke="#191970" d="M417.1071,-192.7303C496.4374,-183.2203 630.1931,-166.5018 744.749,-148.844 754.5106,-147.3393 764.9262,-145.5924 774.8821,-143.8533"/>
<polygon fill="#191970" stroke="#191970" points="416.2716,-189.3051 406.7576,-193.9671 417.1023,-196.2557 416.2716,-189.3051"/>
</g>
<!-- Node9 -->
<g id="node10" class="node">
<title>Node9</title>
<g id="a_node10"><a xlink:href="class_observable.html" target="_top" xlink:title=" ">
<polygon fill="#ffffff" stroke="#000000" points="0,-166.844 0,-184.844 67.1377,-184.844 67.1377,-166.844 0,-166.844"/>
<text text-anchor="middle" x="33.5688" y="-172.844" font-family="Helvetica,sans-Serif" font-size="10.00" fill="#000000">Observable</text>
</a>
</g>
</g>
<!-- Node9&#45;&gt;Node8 -->
<g id="edge9" class="edge">
<title>Node9&#45;&gt;Node8</title>
<path fill="none" stroke="#191970" d="M75.2206,-187.0999C78.56,-187.7709 81.895,-188.3662 85.1377,-188.844 154.5701,-199.0751 235.3419,-201.3453 288.788,-201.5267"/>
<polygon fill="#191970" stroke="#191970" points="75.7971,-183.6429 65.2773,-184.9016 74.286,-190.4779 75.7971,-183.6429"/>
</g>
<!-- Node10 -->
<g id="node11" class="node">
<title>Node10</title>
<g id="a_node11"><a xlink:href="class_value_producer.html" target="_top" xlink:title=" ">
<polygon fill="#ffffff" stroke="#000000" points="106.9136,-119.844 106.9136,-137.844 211.3218,-137.844 211.3218,-119.844 106.9136,-119.844"/>
<text text-anchor="middle" x="159.1177" y="-125.844" font-family="Helvetica,sans-Serif" font-size="10.00" fill="#000000">ValueProducer&lt; T &gt;</text>
</a>
</g>
</g>
<!-- Node9&#45;&gt;Node10 -->
<g id="edge11" class="edge">
<title>Node9&#45;&gt;Node10</title>
<path fill="none" stroke="#191970" d="M67.1421,-163.2756C88.5257,-155.2705 115.7261,-145.0879 134.9849,-137.8782"/>
<polygon fill="#191970" stroke="#191970" points="65.9141,-159.9981 57.7759,-166.7819 68.3683,-166.5538 65.9141,-159.9981"/>
</g>
<!-- Node13 -->
<g id="node14" class="node">
<title>Node13</title>
<g id="a_node14"><a xlink:href="class_value_producer.html" target="_top" xlink:title=" ">
<polygon fill="#ffffff" stroke="#000000" points="295.2173,-142.844 295.2173,-160.844 400.3628,-160.844 400.3628,-142.844 295.2173,-142.844"/>
<text text-anchor="middle" x="347.79" y="-148.844" font-family="Helvetica,sans-Serif" font-size="10.00" fill="#000000">ValueProducer&lt; P &gt;</text>
</a>
</g>
</g>
<!-- Node9&#45;&gt;Node13 -->
<g id="edge17" class="edge">
<title>Node9&#45;&gt;Node13</title>
<path fill="none" stroke="#191970" d="M77.7648,-174.9906C125.5282,-173.7465 203.8327,-170.7726 271.0137,-163.844 278.7972,-163.0413 286.9948,-161.9863 295.0193,-160.8346"/>
<polygon fill="#191970" stroke="#191970" points="77.3806,-171.4989 67.4698,-175.2442 77.553,-178.4968 77.3806,-171.4989"/>
</g>
<!-- Node10&#45;&gt;Node8 -->
<g id="edge10" class="edge">
<title>Node10&#45;&gt;Node8</title>
<path fill="none" stroke="#ffa500" stroke-dasharray="5,2" d="M192.561,-141.6064C230.3427,-156.0245 290.8798,-179.1262 324.0886,-191.7992"/>
<polygon fill="#ffa500" stroke="#ffa500" points="193.6039,-138.2583 183.0132,-137.9628 191.1081,-144.7982 193.6039,-138.2583"/>
<text text-anchor="middle" x="251.5557" y="-173.844" font-family="Helvetica,sans-Serif" font-size="10.00" fill="#000000"> &lt; float &gt;</text>
</g>
<!-- Node10&#45;&gt;Node13 -->
<g id="edge18" class="edge">
<title>Node10&#45;&gt;Node13</title>
<path fill="none" stroke="#ffa500" stroke-dasharray="5,2" d="M204.9475,-118.2011C225.5298,-115.2829 249.885,-114.4467 271.0137,-120.844 280.2159,-123.6302 280.3574,-128.659 289.0137,-132.844 296.9308,-136.6716 305.8064,-139.9965 314.2143,-142.7481"/>
<polygon fill="#ffa500" stroke="#ffa500" points="204.1837,-114.7792 194.8723,-119.8337 205.3034,-121.6891 204.1837,-114.7792"/>
<text text-anchor="middle" x="251.5557" y="-122.844" font-family="Helvetica,sans-Serif" font-size="10.00" fill="#000000"> &lt; P &gt;</text>
</g>
<!-- Node10&#45;&gt;Node15 -->
<g id="edge23" class="edge">
<title>Node10&#45;&gt;Node15</title>
<path fill="none" stroke="#191970" d="M204.0108,-117.2394C229.0094,-110.8276 260.7095,-102.7797 289.0137,-95.844 349.1366,-81.1114 363.0802,-71.0031 424.5664,-63.844 550.8755,-49.1372 701.1541,-59.6243 776.1424,-66.7439"/>
<polygon fill="#191970" stroke="#191970" points="202.9006,-113.9108 194.0861,-119.7892 204.6425,-120.6907 202.9006,-113.9108"/>
</g>
<!-- Node11&#45;&gt;Node2 -->
<g id="edge12" class="edge">
<title>Node11&#45;&gt;Node2</title>
<path fill="none" stroke="#ffa500" stroke-dasharray="5,2" d="M673.9043,-134.844C701.6406,-134.844 734.628,-134.844 762.5727,-134.844"/>
<polygon fill="#ffa500" stroke="#ffa500" points="673.5527,-131.3441 663.5527,-134.844 673.5526,-138.3441 673.5527,-131.3441"/>
<text text-anchor="middle" x="713.062" y="-136.844" font-family="Helvetica,sans-Serif" font-size="10.00" fill="#000000"> &lt; float, float &gt;</text>
</g>
<!-- Node11&#45;&gt;Node15 -->
<g id="edge24" class="edge">
<title>Node11&#45;&gt;Node15</title>
<path fill="none" stroke="#ffa500" stroke-dasharray="5,2" d="M654.0654,-122.9314C694.6941,-110.6916 757.0381,-91.9099 793.7381,-80.8536"/>
<polygon fill="#ffa500" stroke="#ffa500" points="653.0503,-119.5818 644.485,-125.8176 655.0695,-126.2842 653.0503,-119.5818"/>
<text text-anchor="middle" x="713.062" y="-116.844" font-family="Helvetica,sans-Serif" font-size="10.00" fill="#000000"> &lt; T, T &gt;</text>
</g>
<!-- Node12&#45;&gt;Node11 -->
<g id="edge14" class="edge">
<title>Node12&#45;&gt;Node11</title>
<path fill="none" stroke="#191970" d="M413.7831,-119.7922C460.7323,-123.3126 522.7886,-127.9656 565.407,-131.1612"/>
<polygon fill="#191970" stroke="#191970" points="413.9397,-116.2943 403.706,-119.0366 413.4163,-123.2747 413.9397,-116.2943"/>
</g>
<!-- Node13&#45;&gt;Node11 -->
<g id="edge16" class="edge">
<title>Node13&#45;&gt;Node11</title>
<path fill="none" stroke="#191970" d="M410.6249,-147.8393C457.964,-144.8221 521.9482,-140.7442 565.5321,-137.9664"/>
<polygon fill="#191970" stroke="#191970" points="410.245,-144.3563 400.4879,-148.4853 410.6903,-151.3421 410.245,-144.3563"/>
</g>
<!-- Node14 -->
<g id="node15" class="node">
<title>Node14</title>
<g id="a_node15"><a xlink:href="class_symmetric_transform.html" target="_top" xlink:title=" ">
<polygon fill="#ffffff" stroke="#000000" points="921.54,-78.844 921.54,-96.844 1052.9502,-96.844 1052.9502,-78.844 921.54,-78.844"/>
<text text-anchor="middle" x="987.2451" y="-84.844" font-family="Helvetica,sans-Serif" font-size="10.00" fill="#000000">SymmetricTransform&lt; T &gt;</text>
</a>
</g>
</g>
<!-- Node14&#45;&gt;Node1 -->
<g id="edge19" class="edge">
<title>Node14&#45;&gt;Node1</title>
<path fill="none" stroke="#ffa500" stroke-dasharray="5,2" d="M1063.306,-97.8609C1085.0315,-100.722 1108.1302,-103.764 1127.798,-106.3542"/>
<polygon fill="#ffa500" stroke="#ffa500" points="1063.4778,-94.3533 1053.1064,-96.5176 1062.5638,-101.2934 1063.4778,-94.3533"/>
<text text-anchor="middle" x="1090.4082" y="-105.844" font-family="Helvetica,sans-Serif" font-size="10.00" fill="#000000"> &lt; float &gt;</text>
</g>
<!-- Node15&#45;&gt;Node14 -->
<g id="edge20" class="edge">
<title>Node15&#45;&gt;Node14</title>
<path fill="none" stroke="#191970" d="M881.1881,-77.4717C894.2125,-78.7455 908.1391,-80.1075 921.4741,-81.4116"/>
<polygon fill="#191970" stroke="#191970" points="881.2578,-73.9619 870.9646,-76.4719 880.5764,-80.9287 881.2578,-73.9619"/>
</g>
</g>
</svg>
