<?xml version="1.0" encoding="UTF-8" standalone="no"?>
<!DOCTYPE svg PUBLIC "-//W3C//DTD SVG 1.1//EN"
 "http://www.w3.org/Graphics/SVG/1.1/DTD/svg11.dtd">
<!-- Generated by graphviz version 12.1.0 (20240811.2233)
 -->
<!-- Title: sensesp::ObservableValue&lt; T &gt; Pages: 1 -->
<svg width="1141pt" height="262pt"
 viewBox="0.00 0.00 1140.75 261.50" xmlns="http://www.w3.org/2000/svg" xmlns:xlink="http://www.w3.org/1999/xlink">
<g id="graph0" class="graph" transform="scale(1 1) rotate(0) translate(4 257.5)">
<title>sensesp::ObservableValue&lt; T &gt;</title>
<!-- Node1 -->
<g id="Node000001" class="node">
<title>Node1</title>
<g id="a_Node000001"><a xlink:title="A value container that notifies its observers if it gets changed.">
<polygon fill="#999999" stroke="#666666" points="490.25,-129.88 334,-129.88 334,-110.62 490.25,-110.62 490.25,-129.88"/>
<text text-anchor="middle" x="412.12" y="-116.38" font-family="Helvetica,sans-Serif" font-size="10.00">sensesp::ObservableValue&lt; T &gt;</text>
</a>
</g>
</g>
<!-- Node5 -->
<g id="Node000005" class="node">
<title>Node5</title>
<g id="a_Node000005"><a xlink:href="classsensesp_1_1_persisting_observable_value.html" target="_top" xlink:title="An ObservableValue that saves its value to the configuration.">
<polygon fill="white" stroke="#666666" points="811.5,-253.5 659.75,-253.5 659.75,-223 811.5,-223 811.5,-253.5"/>
<text text-anchor="start" x="667.75" y="-240" font-family="Helvetica,sans-Serif" font-size="10.00">sensesp::PersistingObservable</text>
<text text-anchor="middle" x="735.62" y="-228.75" font-family="Helvetica,sans-Serif" font-size="10.00">Value&lt; T &gt;</text>
</a>
</g>
</g>
<!-- Node1&#45;&gt;Node5 -->
<g id="edge4_Node000001_Node000005" class="edge">
<title>Node1&#45;&gt;Node5</title>
<g id="a_edge4_Node000001_Node000005"><a xlink:title=" ">
<path fill="none" stroke="#63b8ff" d="M432.81,-137.64C451.12,-152.91 479.79,-174.62 508.25,-187.25 556.31,-208.57 614.19,-221.41 659.4,-228.87"/>
<polygon fill="#63b8ff" stroke="#63b8ff" points="435.26,-135.13 425.38,-131.3 430.71,-140.45 435.26,-135.13"/>
</a>
</g>
</g>
<!-- Node7 -->
<g id="Node000007" class="node">
<title>Node7</title>
<g id="a_Node000007"><a xlink:href="classsensesp_1_1_task_queue_producer.html" target="_top" xlink:title="Producer class that works across task boundaries.">
<polygon fill="white" stroke="#666666" points="821.25,-69.88 650,-69.88 650,-50.62 821.25,-50.62 821.25,-69.88"/>
<text text-anchor="middle" x="735.62" y="-56.38" font-family="Helvetica,sans-Serif" font-size="10.00">sensesp::TaskQueueProducer&lt; T &gt;</text>
</a>
</g>
</g>
<!-- Node1&#45;&gt;Node7 -->
<g id="edge6_Node000001_Node000007" class="edge">
<title>Node1&#45;&gt;Node7</title>
<g id="a_edge6_Node000001_Node000007"><a xlink:title=" ">
<path fill="none" stroke="#63b8ff" d="M478.45,-108.06C537.95,-96.96 624.78,-80.75 680.5,-70.35"/>
<polygon fill="#63b8ff" stroke="#63b8ff" points="477.98,-104.59 468.79,-109.86 479.26,-111.47 477.98,-104.59"/>
</a>
</g>
</g>
<!-- Node10 -->
<g id="Node000010" class="node">
<title>Node10</title>
<g id="a_Node000010"><a xlink:href="classsensesp_1_1_u_i_output.html" target="_top" xlink:title=" ">
<polygon fill="white" stroke="#666666" points="796.88,-155.88 674.38,-155.88 674.38,-136.62 796.88,-136.62 796.88,-155.88"/>
<text text-anchor="middle" x="735.62" y="-142.38" font-family="Helvetica,sans-Serif" font-size="10.00">sensesp::UIOutput&lt; T &gt;</text>
</a>
</g>
</g>
<!-- Node1&#45;&gt;Node10 -->
<g id="edge9_Node000001_Node000010" class="edge">
<title>Node1&#45;&gt;Node10</title>
<g id="a_edge9_Node000001_Node000010"><a xlink:title=" ">
<path fill="none" stroke="#63b8ff" d="M501.99,-127.44C556.72,-131.86 625.44,-137.42 673.96,-141.34"/>
<polygon fill="#63b8ff" stroke="#63b8ff" points="502.3,-123.95 492.05,-126.63 501.74,-130.93 502.3,-123.95"/>
</a>
</g>
</g>
<!-- Node12 -->
<g id="Node000012" class="node">
<title>Node12</title>
<g id="a_Node000012"><a xlink:href="classsensesp_1_1_observable_value.html" target="_top" xlink:title=" ">
<polygon fill="white" stroke="#666666" points="804,-118.5 667.25,-118.5 667.25,-88 804,-88 804,-118.5"/>
<text text-anchor="start" x="675.25" y="-105" font-family="Helvetica,sans-Serif" font-size="10.00">sensesp::ObservableValue</text>
<text text-anchor="middle" x="735.62" y="-93.75" font-family="Helvetica,sans-Serif" font-size="10.00">&lt; SKWSConnectionState &gt;</text>
</a>
</g>
</g>
<!-- Node1&#45;&gt;Node12 -->
<g id="edge11_Node000001_Node000012" class="edge">
<title>Node1&#45;&gt;Node12</title>
<g id="a_edge11_Node000001_Node000012"><a xlink:title=" ">
<path fill="none" stroke="orange" stroke-dasharray="5,2" d="M501.8,-115.56C553.95,-112.8 618.85,-109.37 666.88,-106.83"/>
<polygon fill="orange" stroke="orange" points="501.85,-112.05 492.05,-116.08 502.22,-119.04 501.85,-112.05"/>
</a>
</g>
<text text-anchor="middle" x="570.12" y="-116.5" font-family="Helvetica,sans-Serif" font-size="10.00" fill="grey"> &lt; SKWSConnectionState &gt;</text>
</g>
<!-- Node13 -->
<g id="Node000013" class="node">
<title>Node13</title>
<g id="a_Node000013"><a xlink:href="classsensesp_1_1_observable_value.html" target="_top" xlink:title=" ">
<polygon fill="white" stroke="#666666" points="801.75,-30.5 669.5,-30.5 669.5,0 801.75,0 801.75,-30.5"/>
<text text-anchor="start" x="677.5" y="-17" font-family="Helvetica,sans-Serif" font-size="10.00">sensesp::ObservableValue</text>
<text text-anchor="middle" x="735.62" y="-5.75" font-family="Helvetica,sans-Serif" font-size="10.00">&lt; int &gt;</text>
</a>
</g>
</g>
<!-- Node1&#45;&gt;Node13 -->
<g id="edge13_Node000001_Node000013" class="edge">
<title>Node1&#45;&gt;Node13</title>
<g id="a_edge13_Node000001_Node000013"><a xlink:title=" ">
<path fill="none" stroke="orange" stroke-dasharray="5,2" d="M436.28,-103.67C454.9,-91.06 482.17,-74.21 508.25,-64 560.47,-43.56 623,-30.92 669.1,-23.65"/>
<polygon fill="orange" stroke="orange" points="434.37,-100.73 428.14,-109.3 438.35,-106.49 434.37,-100.73"/>
</a>
</g>
<text text-anchor="middle" x="570.12" y="-65.75" font-family="Helvetica,sans-Serif" font-size="10.00" fill="grey"> &lt; int &gt;</text>
</g>
<!-- Node14 -->
<g id="Node000014" class="node">
<title>Node14</title>
<g id="a_Node000014"><a xlink:href="classsensesp_1_1_observable_value.html" target="_top" xlink:title=" ">
<polygon fill="white" stroke="#666666" points="801.75,-204.5 669.5,-204.5 669.5,-174 801.75,-174 801.75,-204.5"/>
<text text-anchor="start" x="677.5" y="-191" font-family="Helvetica,sans-Serif" font-size="10.00">sensesp::ObservableValue</text>
<text text-anchor="middle" x="735.62" y="-179.75" font-family="Helvetica,sans-Serif" font-size="10.00">&lt; String &gt;</text>
</a>
</g>
</g>
<!-- Node1&#45;&gt;Node14 -->
<g id="edge15_Node000001_Node000014" class="edge">
<title>Node1&#45;&gt;Node14</title>
<g id="a_edge15_Node000001_Node000014"><a xlink:title=" ">
<path fill="none" stroke="orange" stroke-dasharray="5,2" d="M456.29,-133.42C472.5,-138.12 491.14,-143.24 508.25,-147.25 562.15,-159.87 623.99,-171.13 669.4,-178.8"/>
<polygon fill="orange" stroke="orange" points="457.54,-130.14 446.96,-130.68 455.57,-136.86 457.54,-130.14"/>
</a>
</g>
<text text-anchor="middle" x="570.12" y="-173.86" font-family="Helvetica,sans-Serif" font-size="10.00" fill="grey"> &lt; String &gt;</text>
</g>
<!-- Node2 -->
<g id="Node000002" class="node">
<title>Node2</title>
<g id="a_Node000002"><a xlink:href="classsensesp_1_1_value_consumer.html" target="_top" xlink:title="A base class for piece of code (like a transform) that accepts data for input. ValueConsumers can acc...">
<polygon fill="white" stroke="#666666" points="297,-148.88 145.25,-148.88 145.25,-129.62 297,-129.62 297,-148.88"/>
<text text-anchor="middle" x="221.12" y="-135.38" font-family="Helvetica,sans-Serif" font-size="10.00">sensesp::ValueConsumer&lt; T &gt;</text>
</a>
</g>
</g>
<!-- Node2&#45;&gt;Node1 -->
<g id="edge1_Node000001_Node000002" class="edge">
<title>Node2&#45;&gt;Node1</title>
<g id="a_edge1_Node000001_Node000002"><a xlink:title=" ">
<path fill="none" stroke="#63b8ff" d="M308.66,-130.55C317,-129.71 325.42,-128.87 333.67,-128.04"/>
<polygon fill="#63b8ff" stroke="#63b8ff" points="308.47,-127.05 298.87,-131.53 309.17,-134.02 308.47,-127.05"/>
</a>
</g>
</g>
<!-- Node3 -->
<g id="Node000003" class="node">
<title>Node3</title>
<g id="a_Node000003"><a xlink:href="classsensesp_1_1_value_producer.html" target="_top" xlink:title="A base class for any sensor or piece of code that outputs a value for consumption elsewhere.">
<polygon fill="white" stroke="#666666" points="294,-111.88 148.25,-111.88 148.25,-92.62 294,-92.62 294,-111.88"/>
<text text-anchor="middle" x="221.12" y="-98.38" font-family="Helvetica,sans-Serif" font-size="10.00">sensesp::ValueProducer&lt; T &gt;</text>
</a>
</g>
</g>
<!-- Node3&#45;&gt;Node1 -->
<g id="edge2_Node000001_Node000003" class="edge">
<title>Node3&#45;&gt;Node1</title>
<g id="a_edge2_Node000001_Node000003"><a xlink:title=" ">
<path fill="none" stroke="#63b8ff" d="M305.62,-110.2C314.91,-111.09 324.35,-111.99 333.56,-112.86"/>
<polygon fill="#63b8ff" stroke="#63b8ff" points="306.18,-106.74 295.89,-109.28 305.52,-113.71 306.18,-106.74"/>
</a>
</g>
</g>
<!-- Node4 -->
<g id="Node000004" class="node">
<title>Node4</title>
<g id="a_Node000004"><a xlink:href="classsensesp_1_1_observable.html" target="_top" xlink:title="A base class which allow observers to attach callbacks to themselves. The callbacks will be called wh...">
<polygon fill="white" stroke="#666666" points="108.25,-111.88 0,-111.88 0,-92.62 108.25,-92.62 108.25,-111.88"/>
<text text-anchor="middle" x="54.12" y="-98.38" font-family="Helvetica,sans-Serif" font-size="10.00">sensesp::Observable</text>
</a>
</g>
</g>
<!-- Node4&#45;&gt;Node3 -->
<g id="edge3_Node000003_Node000004" class="edge">
<title>Node4&#45;&gt;Node3</title>
<g id="a_edge3_Node000003_Node000004"><a xlink:title=" ">
<path fill="none" stroke="#63b8ff" d="M120.08,-102.25C129.21,-102.25 138.65,-102.25 147.92,-102.25"/>
<polygon fill="#63b8ff" stroke="#63b8ff" points="120.21,-98.75 110.21,-102.25 120.21,-105.75 120.21,-98.75"/>
</a>
</g>
</g>
<!-- Node6 -->
<g id="Node000006" class="node">
<title>Node6</title>
<g id="a_Node000006"><a xlink:href="classsensesp_1_1_persisting_observable_value.html" target="_top" xlink:title=" ">
<polygon fill="white" stroke="#666666" points="1132.75,-235.5 981,-235.5 981,-205 1132.75,-205 1132.75,-235.5"/>
<text text-anchor="start" x="989" y="-222" font-family="Helvetica,sans-Serif" font-size="10.00">sensesp::PersistingObservable</text>
<text text-anchor="middle" x="1056.88" y="-210.75" font-family="Helvetica,sans-Serif" font-size="10.00">Value&lt; String &gt;</text>
</a>
</g>
</g>
<!-- Node5&#45;&gt;Node6 -->
<g id="edge5_Node000005_Node000006" class="edge">
<title>Node5&#45;&gt;Node6</title>
<g id="a_edge5_Node000005_Node000006"><a xlink:title=" ">
<path fill="none" stroke="orange" stroke-dasharray="5,2" d="M823.15,-233.37C872.35,-230.6 933.36,-227.16 980.57,-224.5"/>
<polygon fill="orange" stroke="orange" points="823.18,-229.86 813.39,-233.92 823.57,-236.85 823.18,-229.86"/>
</a>
</g>
<text text-anchor="middle" x="901.12" y="-234.18" font-family="Helvetica,sans-Serif" font-size="10.00" fill="grey"> &lt; String &gt;</text>
</g>
<!-- Node8 -->
<g id="Node000008" class="node">
<title>Node8</title>
<g id="a_Node000008"><a xlink:href="classsensesp_1_1_task_queue_producer.html" target="_top" xlink:title=" ">
<polygon fill="white" stroke="#666666" points="1130.5,-106.5 983.25,-106.5 983.25,-76 1130.5,-76 1130.5,-106.5"/>
<text text-anchor="start" x="991.25" y="-93" font-family="Helvetica,sans-Serif" font-size="10.00">sensesp::TaskQueueProducer</text>
<text text-anchor="middle" x="1056.88" y="-81.75" font-family="Helvetica,sans-Serif" font-size="10.00">&lt; SKWSConnectionState &gt;</text>
</a>
</g>
</g>
<!-- Node7&#45;&gt;Node8 -->
<g id="edge7_Node000007_Node000008" class="edge">
<title>Node7&#45;&gt;Node8</title>
<g id="a_edge7_Node000007_Node000008"><a xlink:title=" ">
<path fill="none" stroke="orange" stroke-dasharray="5,2" d="M833.03,-67.94C873.24,-71.34 920.41,-75.56 963,-80 969.46,-80.67 976.17,-81.41 982.89,-82.18"/>
<polygon fill="orange" stroke="orange" points="833.38,-64.46 823.12,-67.11 832.79,-71.44 833.38,-64.46"/>
</a>
</g>
<text text-anchor="middle" x="901.12" y="-81.75" font-family="Helvetica,sans-Serif" font-size="10.00" fill="grey"> &lt; SKWSConnectionState &gt;</text>
</g>
<!-- Node9 -->
<g id="Node000009" class="node">
<title>Node9</title>
<g id="a_Node000009"><a xlink:href="classsensesp_1_1_task_queue_producer.html" target="_top" xlink:title=" ">
<polygon fill="white" stroke="#666666" points="1130.5,-48.5 983.25,-48.5 983.25,-18 1130.5,-18 1130.5,-48.5"/>
<text text-anchor="start" x="991.25" y="-35" font-family="Helvetica,sans-Serif" font-size="10.00">sensesp::TaskQueueProducer</text>
<text text-anchor="middle" x="1056.88" y="-23.75" font-family="Helvetica,sans-Serif" font-size="10.00">&lt; int &gt;</text>
</a>
</g>
</g>
<!-- Node7&#45;&gt;Node9 -->
<g id="edge8_Node000007_Node000009" class="edge">
<title>Node7&#45;&gt;Node9</title>
<g id="a_edge8_Node000007_Node000009"><a xlink:title=" ">
<path fill="none" stroke="orange" stroke-dasharray="5,2" d="M815.27,-48.68C823.36,-47.69 831.46,-46.77 839.25,-46 887.05,-41.28 940.97,-38.1 983.06,-36.1"/>
<polygon fill="orange" stroke="orange" points="814.86,-45.21 805.38,-49.94 815.75,-52.15 814.86,-45.21"/>
</a>
</g>
<text text-anchor="middle" x="901.12" y="-47.75" font-family="Helvetica,sans-Serif" font-size="10.00" fill="grey"> &lt; int &gt;</text>
</g>
<!-- Node11 -->
<g id="Node000011" class="node">
<title>Node11</title>
<g id="a_Node000011"><a xlink:href="classsensesp_1_1_u_i_output.html" target="_top" xlink:title=" ">
<polygon fill="white" stroke="#666666" points="1109.12,-173.5 1004.62,-173.5 1004.62,-143 1109.12,-143 1109.12,-173.5"/>
<text text-anchor="start" x="1012.62" y="-160" font-family="Helvetica,sans-Serif" font-size="10.00">sensesp::UIOutput&lt;</text>
<text text-anchor="middle" x="1056.88" y="-148.75" font-family="Helvetica,sans-Serif" font-size="10.00"> String &gt;</text>
</a>
</g>
</g>
<!-- Node10&#45;&gt;Node11 -->
<g id="edge10_Node000010_Node000011" class="edge">
<title>Node10&#45;&gt;Node11</title>
<g id="a_edge10_Node000010_Node000011"><a xlink:title=" ">
<path fill="none" stroke="orange" stroke-dasharray="5,2" d="M808.49,-146.71C853.01,-147.26 911.35,-148.44 963,-151 976.41,-151.66 990.88,-152.66 1004.33,-153.7"/>
<polygon fill="orange" stroke="orange" points="808.74,-143.22 798.7,-146.6 808.66,-150.22 808.74,-143.22"/>
</a>
</g>
<text text-anchor="middle" x="901.12" y="-152.75" font-family="Helvetica,sans-Serif" font-size="10.00" fill="grey"> &lt; String &gt;</text>
</g>
<!-- Node12&#45;&gt;Node8 -->
<g id="edge12_Node000012_Node000008" class="edge">
<title>Node12&#45;&gt;Node8</title>
<g id="a_edge12_Node000012_Node000008"><a xlink:title=" ">
<path fill="none" stroke="#63b8ff" d="M815.68,-100.28C866.87,-98.35 933.06,-95.87 982.99,-93.99"/>
<polygon fill="#63b8ff" stroke="#63b8ff" points="815.7,-96.78 805.84,-100.65 815.97,-103.77 815.7,-96.78"/>
</a>
</g>
</g>
<!-- Node13&#45;&gt;Node9 -->
<g id="edge14_Node000013_Node000009" class="edge">
<title>Node13&#45;&gt;Node9</title>
<g id="a_edge14_Node000013_Node000009"><a xlink:title=" ">
<path fill="none" stroke="#63b8ff" d="M813.48,-18.47C857.3,-20.44 913.25,-23.17 963,-26.25 969.46,-26.65 976.16,-27.1 982.88,-27.56"/>
<polygon fill="#63b8ff" stroke="#63b8ff" points="813.69,-14.98 803.54,-18.03 813.38,-21.97 813.69,-14.98"/>
</a>
</g>
</g>
<!-- Node14&#45;&gt;Node6 -->
<g id="edge16_Node000014_Node000006" class="edge">
<title>Node14&#45;&gt;Node6</title>
<g id="a_edge16_Node000014_Node000006"><a xlink:title=" ">
<path fill="none" stroke="#63b8ff" d="M813.22,-196.69C863.91,-201.61 930.07,-208.03 980.5,-212.93"/>
<polygon fill="#63b8ff" stroke="#63b8ff" points="813.8,-193.23 803.51,-195.74 813.12,-200.19 813.8,-193.23"/>
</a>
</g>
</g>
<!-- Node14&#45;&gt;Node11 -->
<g id="edge17_Node000014_Node000011" class="edge">
<title>Node14&#45;&gt;Node11</title>
<g id="a_edge17_Node000014_Node000011"><a xlink:title=" ">
<path fill="none" stroke="#63b8ff" d="M813.16,-181.82C872.3,-176.08 952.53,-168.28 1004.26,-163.26"/>
<polygon fill="#63b8ff" stroke="#63b8ff" points="813.12,-178.31 803.51,-182.76 813.8,-185.27 813.12,-178.31"/>
</a>
</g>
</g>
</g>
</svg>
