<?xml version="1.0" encoding="UTF-8" standalone="no"?>
<!DOCTYPE svg PUBLIC "-//W3C//DTD SVG 1.1//EN"
 "http://www.w3.org/Graphics/SVG/1.1/DTD/svg11.dtd">
<!-- Generated by graphviz version 13.0.0 (20250608.1624)
 -->
<!-- Title: sensesp::HeatIndexEffect Pages: 1 -->
<svg width="1186pt" height="225pt"
 viewBox="0.00 0.00 1186.00 225.00" xmlns="http://www.w3.org/2000/svg" xmlns:xlink="http://www.w3.org/1999/xlink">
<g id="graph0" class="graph" transform="scale(1 1) rotate(0) translate(4 220.88)">
<title>sensesp::HeatIndexEffect</title>
<!-- Node1 -->
<g id="Node000001" class="node">
<title>Node1</title>
<g id="a_Node000001"><a xlink:title="Transforms heat index temperature to heat index effect.">
<polygon fill="#999999" stroke="#666666" points="1177.5,-124.88 1047.5,-124.88 1047.5,-105.62 1177.5,-105.62 1177.5,-124.88"/>
<text xml:space="preserve" text-anchor="middle" x="1112.5" y="-111.38" font-family="Helvetica,sans-Serif" font-size="10.00">sensesp::HeatIndexEffect</text>
</a>
</g>
</g>
<!-- Node2 -->
<g id="Node000002" class="node">
<title>Node2</title>
<g id="a_Node000002"><a xlink:href="classsensesp_1_1_transform.html" target="_top" xlink:title=" ">
<polygon fill="white" stroke="#666666" points="1010.5,-130.5 907.5,-130.5 907.5,-100 1010.5,-100 1010.5,-130.5"/>
<text xml:space="preserve" text-anchor="start" x="915.5" y="-117" font-family="Helvetica,sans-Serif" font-size="10.00">sensesp::Transform</text>
<text xml:space="preserve" text-anchor="middle" x="959" y="-105.75" font-family="Helvetica,sans-Serif" font-size="10.00">&lt; float, String &gt;</text>
</a>
</g>
</g>
<!-- Node2&#45;&gt;Node1 -->
<g id="edge1_Node000001_Node000002" class="edge">
<title>Node2&#45;&gt;Node1</title>
<g id="a_edge1_Node000001_Node000002"><a xlink:title=" ">
<path fill="none" stroke="#63b8ff" d="M1022.25,-115.25C1030.43,-115.25 1038.83,-115.25 1047.04,-115.25"/>
<polygon fill="#63b8ff" stroke="#63b8ff" points="1022.38,-111.75 1012.38,-115.25 1022.38,-118.75 1022.38,-111.75"/>
</a>
</g>
</g>
<!-- Node3 -->
<g id="Node000003" class="node">
<title>Node3</title>
<g id="a_Node000003"><a xlink:href="classsensesp_1_1_transform_base.html" target="_top" xlink:title="The base class for all transforms. A transforms takes a value in, transforms it in some way,...">
<polygon fill="white" stroke="#666666" points="519.62,-198.88 394.12,-198.88 394.12,-179.62 519.62,-179.62 519.62,-198.88"/>
<text xml:space="preserve" text-anchor="middle" x="456.88" y="-185.38" font-family="Helvetica,sans-Serif" font-size="10.00">sensesp::TransformBase</text>
</a>
</g>
</g>
<!-- Node3&#45;&gt;Node2 -->
<g id="edge2_Node000002_Node000003" class="edge">
<title>Node3&#45;&gt;Node2</title>
<g id="a_edge2_Node000002_Node000003"><a xlink:title=" ">
<path fill="none" stroke="#63b8ff" d="M531.43,-191.78C618.97,-192.61 768.53,-187.07 889.5,-147.25 902.72,-142.9 916.73,-136.67 928.62,-130.85"/>
<polygon fill="#63b8ff" stroke="#63b8ff" points="531.58,-188.28 521.53,-191.65 531.48,-195.28 531.58,-188.28"/>
</a>
</g>
</g>
<!-- Node12 -->
<g id="Node000012" class="node">
<title>Node12</title>
<g id="a_Node000012"><a xlink:href="classsensesp_1_1_transform.html" target="_top" xlink:title="The main Transform class. A transform is identified primarily by the type of value that is produces (...">
<polygon fill="white" stroke="#666666" points="800.25,-156.5 697.25,-156.5 697.25,-126 800.25,-126 800.25,-156.5"/>
<text xml:space="preserve" text-anchor="start" x="705.25" y="-143" font-family="Helvetica,sans-Serif" font-size="10.00">sensesp::Transform</text>
<text xml:space="preserve" text-anchor="middle" x="748.75" y="-131.75" font-family="Helvetica,sans-Serif" font-size="10.00">&lt; C, P &gt;</text>
</a>
</g>
</g>
<!-- Node3&#45;&gt;Node12 -->
<g id="edge13_Node000012_Node000003" class="edge">
<title>Node3&#45;&gt;Node12</title>
<g id="a_edge13_Node000012_Node000003"><a xlink:title=" ">
<path fill="none" stroke="#63b8ff" d="M531.18,-177.56C574.32,-170.62 629.91,-161.58 679.25,-153.25 684.96,-152.28 690.94,-151.26 696.89,-150.23"/>
<polygon fill="#63b8ff" stroke="#63b8ff" points="530.75,-174.08 521.43,-179.13 531.86,-181 530.75,-174.08"/>
</a>
</g>
</g>
<!-- Node4 -->
<g id="Node000004" class="node">
<title>Node4</title>
<g id="a_Node000004"><a xlink:href="classsensesp_1_1_file_system_saveable.html" target="_top" xlink:title=" ">
<polygon fill="white" stroke="#666666" points="296.25,-198.88 147.5,-198.88 147.5,-179.62 296.25,-179.62 296.25,-198.88"/>
<text xml:space="preserve" text-anchor="middle" x="221.88" y="-185.38" font-family="Helvetica,sans-Serif" font-size="10.00">sensesp::FileSystemSaveable</text>
</a>
</g>
</g>
<!-- Node4&#45;&gt;Node3 -->
<g id="edge3_Node000003_Node000004" class="edge">
<title>Node4&#45;&gt;Node3</title>
<g id="a_edge3_Node000003_Node000004"><a xlink:title=" ">
<path fill="none" stroke="#63b8ff" d="M307.79,-189.25C336.31,-189.25 367.56,-189.25 393.97,-189.25"/>
<polygon fill="#63b8ff" stroke="#63b8ff" points="308.11,-185.75 298.11,-189.25 308.11,-192.75 308.11,-185.75"/>
</a>
</g>
</g>
<!-- Node5 -->
<g id="Node000005" class="node">
<title>Node5</title>
<g id="a_Node000005"><a xlink:href="classsensesp_1_1_saveable.html" target="_top" xlink:title="Interface for saveable objects.">
<polygon fill="white" stroke="#666666" points="104.12,-179.88 4.88,-179.88 4.88,-160.62 104.12,-160.62 104.12,-179.88"/>
<text xml:space="preserve" text-anchor="middle" x="54.5" y="-166.38" font-family="Helvetica,sans-Serif" font-size="10.00">sensesp::Saveable</text>
</a>
</g>
</g>
<!-- Node5&#45;&gt;Node4 -->
<g id="edge4_Node000004_Node000005" class="edge">
<title>Node5&#45;&gt;Node4</title>
<g id="a_edge4_Node000004_Node000005"><a xlink:title=" ">
<path fill="none" stroke="#63b8ff" d="M115.53,-177.15C125.77,-178.32 136.51,-179.56 147.05,-180.77"/>
<polygon fill="#63b8ff" stroke="#63b8ff" points="116.06,-173.68 105.73,-176.02 115.26,-180.64 116.06,-173.68"/>
</a>
</g>
</g>
<!-- Node6 -->
<g id="Node000006" class="node">
<title>Node6</title>
<g id="a_Node000006"><a xlink:href="classsensesp_1_1_serializable.html" target="_top" xlink:title="Interface for serializable objects.">
<polygon fill="white" stroke="#666666" points="109,-216.88 0,-216.88 0,-197.62 109,-197.62 109,-216.88"/>
<text xml:space="preserve" text-anchor="middle" x="54.5" y="-203.38" font-family="Helvetica,sans-Serif" font-size="10.00">sensesp::Serializable</text>
</a>
</g>
</g>
<!-- Node6&#45;&gt;Node4 -->
<g id="edge5_Node000004_Node000006" class="edge">
<title>Node6&#45;&gt;Node4</title>
<g id="a_edge5_Node000004_Node000006"><a xlink:title=" ">
<path fill="none" stroke="#63b8ff" d="M120.46,-200.18C129.17,-199.23 138.16,-198.25 147.01,-197.29"/>
<polygon fill="#63b8ff" stroke="#63b8ff" points="120.26,-196.68 110.7,-201.24 121.02,-203.64 120.26,-196.68"/>
</a>
</g>
</g>
<!-- Node7 -->
<g id="Node000007" class="node">
<title>Node7</title>
<g id="a_Node000007"><a xlink:href="classsensesp_1_1_value_consumer.html" target="_top" xlink:title=" ">
<polygon fill="white" stroke="#666666" points="679.25,-102.5 551.5,-102.5 551.5,-72 679.25,-72 679.25,-102.5"/>
<text xml:space="preserve" text-anchor="start" x="559.5" y="-89" font-family="Helvetica,sans-Serif" font-size="10.00">sensesp::ValueConsumer</text>
<text xml:space="preserve" text-anchor="middle" x="615.38" y="-77.75" font-family="Helvetica,sans-Serif" font-size="10.00">&lt; float &gt;</text>
</a>
</g>
</g>
<!-- Node7&#45;&gt;Node2 -->
<g id="edge6_Node000002_Node000007" class="edge">
<title>Node7&#45;&gt;Node2</title>
<g id="a_edge6_Node000002_Node000007"><a xlink:title=" ">
<path fill="none" stroke="#63b8ff" d="M690.9,-93.36C756.33,-98.72 849.75,-106.38 907,-111.07"/>
<polygon fill="#63b8ff" stroke="#63b8ff" points="691.19,-89.87 680.94,-92.54 690.62,-96.85 691.19,-89.87"/>
</a>
</g>
</g>
<!-- Node8 -->
<g id="Node000008" class="node">
<title>Node8</title>
<g id="a_Node000008"><a xlink:href="classsensesp_1_1_value_consumer.html" target="_top" xlink:title="A base class for piece of code (like a transform) that accepts data for input. ValueConsumers can acc...">
<polygon fill="white" stroke="#666666" points="297.75,-145.88 146,-145.88 146,-126.62 297.75,-126.62 297.75,-145.88"/>
<text xml:space="preserve" text-anchor="middle" x="221.88" y="-132.38" font-family="Helvetica,sans-Serif" font-size="10.00">sensesp::ValueConsumer&lt; T &gt;</text>
</a>
</g>
</g>
<!-- Node8&#45;&gt;Node7 -->
<g id="edge7_Node000007_Node000008" class="edge">
<title>Node8&#45;&gt;Node7</title>
<g id="a_edge7_Node000007_Node000008"><a xlink:title=" ">
<path fill="none" stroke="orange" stroke-dasharray="5,2" d="M308.92,-125.48C382.1,-116.32 485.5,-103.38 551.24,-95.15"/>
<polygon fill="orange" stroke="orange" points="308.89,-121.96 299.4,-126.67 309.76,-128.9 308.89,-121.96"/>
</a>
</g>
<text xml:space="preserve" text-anchor="middle" x="339" y="-125.61" font-family="Helvetica,sans-Serif" font-size="10.00" fill="grey"> &lt; float &gt;</text>
</g>
<!-- Node13 -->
<g id="Node000013" class="node">
<title>Node13</title>
<g id="a_Node000013"><a xlink:href="classsensesp_1_1_value_consumer.html" target="_top" xlink:title=" ">
<polygon fill="white" stroke="#666666" points="533.5,-155.88 380.25,-155.88 380.25,-136.62 533.5,-136.62 533.5,-155.88"/>
<text xml:space="preserve" text-anchor="middle" x="456.88" y="-142.38" font-family="Helvetica,sans-Serif" font-size="10.00">sensesp::ValueConsumer&lt; C &gt;</text>
</a>
</g>
</g>
<!-- Node8&#45;&gt;Node13 -->
<g id="edge15_Node000013_Node000008" class="edge">
<title>Node8&#45;&gt;Node13</title>
<g id="a_edge15_Node000013_Node000008"><a xlink:title=" ">
<path fill="none" stroke="orange" stroke-dasharray="5,2" d="M309.42,-139.96C332.6,-140.96 357.46,-142.03 380.01,-142.99"/>
<polygon fill="orange" stroke="orange" points="309.85,-136.48 299.71,-139.55 309.55,-143.47 309.85,-136.48"/>
</a>
</g>
<text xml:space="preserve" text-anchor="middle" x="339" y="-143.9" font-family="Helvetica,sans-Serif" font-size="10.00" fill="grey"> &lt; C &gt;</text>
</g>
<!-- Node9 -->
<g id="Node000009" class="node">
<title>Node9</title>
<g id="a_Node000009"><a xlink:href="classsensesp_1_1_value_producer.html" target="_top" xlink:title=" ">
<polygon fill="white" stroke="#666666" points="517.75,-30.5 396,-30.5 396,0 517.75,0 517.75,-30.5"/>
<text xml:space="preserve" text-anchor="start" x="404" y="-17" font-family="Helvetica,sans-Serif" font-size="10.00">sensesp::ValueProducer</text>
<text xml:space="preserve" text-anchor="middle" x="456.88" y="-5.75" font-family="Helvetica,sans-Serif" font-size="10.00">&lt; String &gt;</text>
</a>
</g>
</g>
<!-- Node9&#45;&gt;Node2 -->
<g id="edge8_Node000002_Node000009" class="edge">
<title>Node9&#45;&gt;Node2</title>
<g id="a_edge8_Node000002_Node000009"><a xlink:title=" ">
<path fill="none" stroke="#63b8ff" d="M529.16,-28.81C614.81,-45.21 762.84,-73.91 889.5,-100.25 895.22,-101.44 901.21,-102.71 907.15,-103.99"/>
<polygon fill="#63b8ff" stroke="#63b8ff" points="529.97,-25.4 519.49,-26.96 528.66,-32.28 529.97,-25.4"/>
</a>
</g>
</g>
<!-- Node10 -->
<g id="Node000010" class="node">
<title>Node10</title>
<g id="a_Node000010"><a xlink:href="classsensesp_1_1_observable.html" target="_top" xlink:title="A base class which allow observers to attach callbacks to themselves. The callbacks will be called wh...">
<polygon fill="white" stroke="#666666" points="108.62,-38.88 0.38,-38.88 0.38,-19.62 108.62,-19.62 108.62,-38.88"/>
<text xml:space="preserve" text-anchor="middle" x="54.5" y="-25.38" font-family="Helvetica,sans-Serif" font-size="10.00">sensesp::Observable</text>
</a>
</g>
</g>
<!-- Node10&#45;&gt;Node9 -->
<g id="edge9_Node000009_Node000010" class="edge">
<title>Node10&#45;&gt;Node9</title>
<g id="a_edge9_Node000009_Node000010"><a xlink:title=" ">
<path fill="none" stroke="#63b8ff" d="M105.95,-16.73C118.92,-14.05 132.91,-11.61 146,-10.25 232.43,-1.28 333.13,-5.61 395.71,-10.04"/>
<polygon fill="#63b8ff" stroke="#63b8ff" points="105.38,-13.28 96.35,-18.81 106.86,-20.12 105.38,-13.28"/>
</a>
</g>
</g>
<!-- Node11 -->
<g id="Node000011" class="node">
<title>Node11</title>
<g id="a_Node000011"><a xlink:href="classsensesp_1_1_value_producer.html" target="_top" xlink:title="A base class for any sensor or piece of code that outputs a value for consumption elsewhere.">
<polygon fill="white" stroke="#666666" points="294.75,-38.88 149,-38.88 149,-19.62 294.75,-19.62 294.75,-38.88"/>
<text xml:space="preserve" text-anchor="middle" x="221.88" y="-25.38" font-family="Helvetica,sans-Serif" font-size="10.00">sensesp::ValueProducer&lt; T &gt;</text>
</a>
</g>
</g>
<!-- Node10&#45;&gt;Node11 -->
<g id="edge11_Node000011_Node000010" class="edge">
<title>Node10&#45;&gt;Node11</title>
<g id="a_edge11_Node000011_Node000010"><a xlink:title=" ">
<path fill="none" stroke="#63b8ff" d="M120.02,-29.25C129.44,-29.25 139.19,-29.25 148.75,-29.25"/>
<polygon fill="#63b8ff" stroke="#63b8ff" points="120.25,-25.75 110.25,-29.25 120.25,-32.75 120.25,-25.75"/>
</a>
</g>
</g>
<!-- Node14 -->
<g id="Node000014" class="node">
<title>Node14</title>
<g id="a_Node000014"><a xlink:href="classsensesp_1_1_value_producer.html" target="_top" xlink:title=" ">
<polygon fill="white" stroke="#666666" points="530.12,-79.88 383.62,-79.88 383.62,-60.62 530.12,-60.62 530.12,-79.88"/>
<text xml:space="preserve" text-anchor="middle" x="456.88" y="-66.38" font-family="Helvetica,sans-Serif" font-size="10.00">sensesp::ValueProducer&lt; P &gt;</text>
</a>
</g>
</g>
<!-- Node10&#45;&gt;Node14 -->
<g id="edge17_Node000014_Node000010" class="edge">
<title>Node10&#45;&gt;Node14</title>
<g id="a_edge17_Node000014_Node000010"><a xlink:title=" ">
<path fill="none" stroke="#63b8ff" d="M108.62,-41.61C120.85,-44.12 133.83,-46.51 146,-48.25 226.76,-59.77 320.26,-65.36 383.25,-68"/>
<polygon fill="#63b8ff" stroke="#63b8ff" points="109.64,-38.25 99.14,-39.6 108.2,-45.1 109.64,-38.25"/>
</a>
</g>
</g>
<!-- Node11&#45;&gt;Node9 -->
<g id="edge10_Node000009_Node000011" class="edge">
<title>Node11&#45;&gt;Node9</title>
<g id="a_edge10_Node000009_Node000011"><a xlink:title=" ">
<path fill="none" stroke="orange" stroke-dasharray="5,2" d="M296.41,-17.82C302.94,-17.09 309.45,-16.46 315.75,-16 341.95,-14.07 370.99,-13.63 395.8,-13.78"/>
<polygon fill="orange" stroke="orange" points="296.46,-14.29 286.95,-18.96 297.3,-21.24 296.46,-14.29"/>
</a>
</g>
<text xml:space="preserve" text-anchor="middle" x="339" y="-17.75" font-family="Helvetica,sans-Serif" font-size="10.00" fill="grey"> &lt; String &gt;</text>
</g>
<!-- Node11&#45;&gt;Node14 -->
<g id="edge18_Node000014_Node000011" class="edge">
<title>Node11&#45;&gt;Node14</title>
<g id="a_edge18_Node000014_Node000011"><a xlink:title=" ">
<path fill="none" stroke="orange" stroke-dasharray="5,2" d="M306.34,-40.77C324.79,-43.57 344.21,-46.71 362.25,-50 378.61,-52.98 396.48,-56.73 412.17,-60.18"/>
<polygon fill="orange" stroke="orange" points="306.91,-37.32 296.5,-39.3 305.87,-44.24 306.91,-37.32"/>
</a>
</g>
<text xml:space="preserve" text-anchor="middle" x="339" y="-51.75" font-family="Helvetica,sans-Serif" font-size="10.00" fill="grey"> &lt; P &gt;</text>
</g>
<!-- Node12&#45;&gt;Node2 -->
<g id="edge12_Node000002_Node000012" class="edge">
<title>Node12&#45;&gt;Node2</title>
<g id="a_edge12_Node000002_Node000012"><a xlink:title=" ">
<path fill="none" stroke="orange" stroke-dasharray="5,2" d="M812.04,-133.47C842.43,-129.68 878.53,-125.17 907.22,-121.59"/>
<polygon fill="orange" stroke="orange" points="811.68,-129.99 802.2,-134.7 812.55,-136.94 811.68,-129.99"/>
</a>
</g>
<text xml:space="preserve" text-anchor="middle" x="853.88" y="-133.85" font-family="Helvetica,sans-Serif" font-size="10.00" fill="grey"> &lt; float, String &gt;</text>
</g>
<!-- Node13&#45;&gt;Node12 -->
<g id="edge14_Node000012_Node000013" class="edge">
<title>Node13&#45;&gt;Node12</title>
<g id="a_edge14_Node000012_Node000013"><a xlink:title=" ">
<path fill="none" stroke="#63b8ff" d="M545.05,-144.75C594.69,-143.89 655.13,-142.85 697.04,-142.12"/>
<polygon fill="#63b8ff" stroke="#63b8ff" points="545.11,-141.24 535.17,-144.92 545.23,-148.24 545.11,-141.24"/>
</a>
</g>
</g>
<!-- Node14&#45;&gt;Node12 -->
<g id="edge16_Node000012_Node000014" class="edge">
<title>Node14&#45;&gt;Node12</title>
<g id="a_edge16_Node000012_Node000014"><a xlink:title=" ">
<path fill="none" stroke="#63b8ff" d="M493.72,-84.28C511,-90.69 532.13,-97.99 551.5,-103.25 600.23,-116.48 656.96,-126.94 696.86,-133.52"/>
<polygon fill="#63b8ff" stroke="#63b8ff" points="495,-81.02 484.4,-80.77 492.53,-87.57 495,-81.02"/>
</a>
</g>
</g>
</g>
</svg>
