<?xml version="1.0" encoding="UTF-8" standalone="no"?>
<!DOCTYPE svg PUBLIC "-//W3C//DTD SVG 1.1//EN"
 "http://www.w3.org/Graphics/SVG/1.1/DTD/svg11.dtd">
<!-- Generated by graphviz version 13.0.0 (20250608.1624)
 -->
<!-- Title: sensesp::SKPutRequest&lt; T &gt; Pages: 1 -->
<svg width="883pt" height="186pt"
 viewBox="0.00 0.00 883.00 186.00" xmlns="http://www.w3.org/2000/svg" xmlns:xlink="http://www.w3.org/1999/xlink">
<g id="graph0" class="graph" transform="scale(1 1) rotate(0) translate(4 181.5)">
<title>sensesp::SKPutRequest&lt; T &gt;</title>
<!-- Node1 -->
<g id="Node000001" class="node">
<title>Node1</title>
<g id="a_Node000001"><a xlink:title="Used to send requests to the server to change the value of the specified path to a specific value acc...">
<polygon fill="#999999" stroke="#666666" points="668.5,-97.88 520.5,-97.88 520.5,-78.62 668.5,-78.62 668.5,-97.88"/>
<text xml:space="preserve" text-anchor="middle" x="594.5" y="-84.38" font-family="Helvetica,sans-Serif" font-size="10.00">sensesp::SKPutRequest&lt; T &gt;</text>
</a>
</g>
</g>
<!-- Node8 -->
<g id="Node000008" class="node">
<title>Node8</title>
<g id="a_Node000008"><a xlink:href="classsensesp_1_1_s_k_put_request.html" target="_top" xlink:title=" ">
<polygon fill="white" stroke="#666666" points="875,-177.5 751,-177.5 751,-147 875,-147 875,-177.5"/>
<text xml:space="preserve" text-anchor="start" x="759" y="-164" font-family="Helvetica,sans-Serif" font-size="10.00">sensesp::SKPutRequest</text>
<text xml:space="preserve" text-anchor="middle" x="813" y="-152.75" font-family="Helvetica,sans-Serif" font-size="10.00">&lt; float &gt;</text>
</a>
</g>
</g>
<!-- Node1&#45;&gt;Node8 -->
<g id="edge7_Node000001_Node000008" class="edge">
<title>Node1&#45;&gt;Node8</title>
<g id="a_edge7_Node000001_Node000008"><a xlink:title=" ">
<path fill="none" stroke="orange" stroke-dasharray="5,2" d="M635.58,-101.95C672.6,-114.6 727.58,-133.39 766.3,-146.63"/>
<polygon fill="orange" stroke="orange" points="636.72,-98.64 626.13,-98.72 634.46,-105.27 636.72,-98.64"/>
</a>
</g>
<text xml:space="preserve" text-anchor="middle" x="709.75" y="-135.8" font-family="Helvetica,sans-Serif" font-size="10.00" fill="grey"> &lt; float &gt;</text>
</g>
<!-- Node9 -->
<g id="Node000009" class="node">
<title>Node9</title>
<g id="a_Node000009"><a xlink:href="classsensesp_1_1_s_k_put_request.html" target="_top" xlink:title=" ">
<polygon fill="white" stroke="#666666" points="875,-128.5 751,-128.5 751,-98 875,-98 875,-128.5"/>
<text xml:space="preserve" text-anchor="start" x="759" y="-115" font-family="Helvetica,sans-Serif" font-size="10.00">sensesp::SKPutRequest</text>
<text xml:space="preserve" text-anchor="middle" x="813" y="-103.75" font-family="Helvetica,sans-Serif" font-size="10.00">&lt; int &gt;</text>
</a>
</g>
</g>
<!-- Node1&#45;&gt;Node9 -->
<g id="edge8_Node000001_Node000009" class="edge">
<title>Node1&#45;&gt;Node9</title>
<g id="a_edge8_Node000001_Node000009"><a xlink:title=" ">
<path fill="none" stroke="orange" stroke-dasharray="5,2" d="M680.19,-98.03C703.71,-100.75 728.78,-103.64 750.67,-106.17"/>
<polygon fill="orange" stroke="orange" points="680.64,-94.56 670.3,-96.89 679.83,-101.51 680.64,-94.56"/>
</a>
</g>
<text xml:space="preserve" text-anchor="middle" x="709.75" y="-105.47" font-family="Helvetica,sans-Serif" font-size="10.00" fill="grey"> &lt; int &gt;</text>
</g>
<!-- Node10 -->
<g id="Node000010" class="node">
<title>Node10</title>
<g id="a_Node000010"><a xlink:href="classsensesp_1_1_s_k_put_request.html" target="_top" xlink:title=" ">
<polygon fill="white" stroke="#666666" points="875,-79.5 751,-79.5 751,-49 875,-49 875,-79.5"/>
<text xml:space="preserve" text-anchor="start" x="759" y="-66" font-family="Helvetica,sans-Serif" font-size="10.00">sensesp::SKPutRequest</text>
<text xml:space="preserve" text-anchor="middle" x="813" y="-54.75" font-family="Helvetica,sans-Serif" font-size="10.00">&lt; bool &gt;</text>
</a>
</g>
</g>
<!-- Node1&#45;&gt;Node10 -->
<g id="edge9_Node000001_Node000010" class="edge">
<title>Node1&#45;&gt;Node10</title>
<g id="a_edge9_Node000001_Node000010"><a xlink:title=" ">
<path fill="none" stroke="orange" stroke-dasharray="5,2" d="M680.19,-78.86C703.71,-76.25 728.78,-73.48 750.67,-71.05"/>
<polygon fill="orange" stroke="orange" points="679.85,-75.38 670.3,-79.96 680.63,-82.33 679.85,-75.38"/>
</a>
</g>
<text xml:space="preserve" text-anchor="middle" x="709.75" y="-79.44" font-family="Helvetica,sans-Serif" font-size="10.00" fill="grey"> &lt; bool &gt;</text>
</g>
<!-- Node11 -->
<g id="Node000011" class="node">
<title>Node11</title>
<g id="a_Node000011"><a xlink:href="classsensesp_1_1_s_k_put_request.html" target="_top" xlink:title=" ">
<polygon fill="white" stroke="#666666" points="875,-30.5 751,-30.5 751,0 875,0 875,-30.5"/>
<text xml:space="preserve" text-anchor="start" x="759" y="-17" font-family="Helvetica,sans-Serif" font-size="10.00">sensesp::SKPutRequest</text>
<text xml:space="preserve" text-anchor="middle" x="813" y="-5.75" font-family="Helvetica,sans-Serif" font-size="10.00">&lt; String &gt;</text>
</a>
</g>
</g>
<!-- Node1&#45;&gt;Node11 -->
<g id="edge10_Node000001_Node000011" class="edge">
<title>Node1&#45;&gt;Node11</title>
<g id="a_edge10_Node000001_Node000011"><a xlink:title=" ">
<path fill="none" stroke="orange" stroke-dasharray="5,2" d="M635.98,-74.6C672.81,-62.18 727.14,-43.86 765.69,-30.87"/>
<polygon fill="orange" stroke="orange" points="634.94,-71.26 626.58,-77.77 637.18,-77.89 634.94,-71.26"/>
</a>
</g>
<text xml:space="preserve" text-anchor="middle" x="709.75" y="-57.87" font-family="Helvetica,sans-Serif" font-size="10.00" fill="grey"> &lt; String &gt;</text>
</g>
<!-- Node2 -->
<g id="Node000002" class="node">
<title>Node2</title>
<g id="a_Node000002"><a xlink:href="classsensesp_1_1_s_k_put_request_base.html" target="_top" xlink:title="A base class for all template variations of the PUT request class SKPutRequest. This base class keeps...">
<polygon fill="white" stroke="#666666" points="480.88,-122.88 334.38,-122.88 334.38,-103.62 480.88,-103.62 480.88,-122.88"/>
<text xml:space="preserve" text-anchor="middle" x="407.62" y="-109.38" font-family="Helvetica,sans-Serif" font-size="10.00">sensesp::SKPutRequestBase</text>
</a>
</g>
</g>
<!-- Node2&#45;&gt;Node1 -->
<g id="edge1_Node000001_Node000002" class="edge">
<title>Node2&#45;&gt;Node1</title>
<g id="a_edge1_Node000001_Node000002"><a xlink:title=" ">
<path fill="none" stroke="#63b8ff" d="M492.41,-101.92C501.7,-100.66 511.11,-99.39 520.26,-98.15"/>
<polygon fill="#63b8ff" stroke="#63b8ff" points="492.1,-98.43 482.66,-103.24 493.04,-105.37 492.1,-98.43"/>
</a>
</g>
</g>
<!-- Node3 -->
<g id="Node000003" class="node">
<title>Node3</title>
<g id="a_Node000003"><a xlink:href="classsensesp_1_1_s_k_request.html" target="_top" xlink:title="A base class for all objects that are capable of sending &quot;requests&quot; to the SignalK server (and option...">
<polygon fill="white" stroke="#666666" points="274.88,-137.88 165.88,-137.88 165.88,-118.62 274.88,-118.62 274.88,-137.88"/>
<text xml:space="preserve" text-anchor="middle" x="220.38" y="-124.38" font-family="Helvetica,sans-Serif" font-size="10.00">sensesp::SKRequest</text>
</a>
</g>
</g>
<!-- Node3&#45;&gt;Node2 -->
<g id="edge2_Node000002_Node000003" class="edge">
<title>Node3&#45;&gt;Node2</title>
<g id="a_edge2_Node000002_Node000003"><a xlink:title=" ">
<path fill="none" stroke="#63b8ff" d="M286.05,-123.01C301.61,-121.75 318.32,-120.4 334.21,-119.11"/>
<polygon fill="#63b8ff" stroke="#63b8ff" points="286.15,-119.49 276.47,-123.79 286.72,-126.47 286.15,-119.49"/>
</a>
</g>
</g>
<!-- Node4 -->
<g id="Node000004" class="node">
<title>Node4</title>
<g id="a_Node000004"><a xlink:href="classsensesp_1_1_file_system_saveable.html" target="_top" xlink:title=" ">
<polygon fill="white" stroke="#666666" points="294.75,-100.88 146,-100.88 146,-81.62 294.75,-81.62 294.75,-100.88"/>
<text xml:space="preserve" text-anchor="middle" x="220.38" y="-87.38" font-family="Helvetica,sans-Serif" font-size="10.00">sensesp::FileSystemSaveable</text>
</a>
</g>
</g>
<!-- Node4&#45;&gt;Node2 -->
<g id="edge3_Node000002_Node000004" class="edge">
<title>Node4&#45;&gt;Node2</title>
<g id="a_edge3_Node000002_Node000004"><a xlink:title=" ">
<path fill="none" stroke="#63b8ff" d="M306.34,-101.34C315.59,-102.44 324.95,-103.55 334.04,-104.63"/>
<polygon fill="#63b8ff" stroke="#63b8ff" points="306.97,-97.89 296.63,-100.19 306.14,-104.84 306.97,-97.89"/>
</a>
</g>
</g>
<!-- Node5 -->
<g id="Node000005" class="node">
<title>Node5</title>
<g id="a_Node000005"><a xlink:href="classsensesp_1_1_saveable.html" target="_top" xlink:title="Interface for saveable objects.">
<polygon fill="white" stroke="#666666" points="104.12,-119.88 4.88,-119.88 4.88,-100.62 104.12,-100.62 104.12,-119.88"/>
<text xml:space="preserve" text-anchor="middle" x="54.5" y="-106.38" font-family="Helvetica,sans-Serif" font-size="10.00">sensesp::Saveable</text>
</a>
</g>
</g>
<!-- Node5&#45;&gt;Node4 -->
<g id="edge4_Node000004_Node000005" class="edge">
<title>Node5&#45;&gt;Node4</title>
<g id="a_edge4_Node000004_Node000005"><a xlink:title=" ">
<path fill="none" stroke="#63b8ff" d="M115.49,-103.29C125.3,-102.16 135.56,-100.97 145.65,-99.8"/>
<polygon fill="#63b8ff" stroke="#63b8ff" points="115.26,-99.8 105.73,-104.43 116.06,-106.75 115.26,-99.8"/>
</a>
</g>
</g>
<!-- Node6 -->
<g id="Node000006" class="node">
<title>Node6</title>
<g id="a_Node000006"><a xlink:href="classsensesp_1_1_serializable.html" target="_top" xlink:title="Interface for serializable objects.">
<polygon fill="white" stroke="#666666" points="109,-82.88 0,-82.88 0,-63.62 109,-63.62 109,-82.88"/>
<text xml:space="preserve" text-anchor="middle" x="54.5" y="-69.38" font-family="Helvetica,sans-Serif" font-size="10.00">sensesp::Serializable</text>
</a>
</g>
</g>
<!-- Node6&#45;&gt;Node4 -->
<g id="edge5_Node000004_Node000006" class="edge">
<title>Node6&#45;&gt;Node4</title>
<g id="a_edge5_Node000004_Node000006"><a xlink:title=" ">
<path fill="none" stroke="#63b8ff" d="M120.6,-80.4C128.83,-81.31 137.3,-82.24 145.66,-83.15"/>
<polygon fill="#63b8ff" stroke="#63b8ff" points="120.99,-76.92 110.66,-79.31 120.22,-83.88 120.99,-76.92"/>
</a>
</g>
</g>
<!-- Node7 -->
<g id="Node000007" class="node">
<title>Node7</title>
<g id="a_Node000007"><a xlink:href="classsensesp_1_1_value_consumer.html" target="_top" xlink:title="A base class for piece of code (like a transform) that accepts data for input. ValueConsumers can acc...">
<polygon fill="white" stroke="#666666" points="483.5,-85.88 331.75,-85.88 331.75,-66.62 483.5,-66.62 483.5,-85.88"/>
<text xml:space="preserve" text-anchor="middle" x="407.62" y="-72.38" font-family="Helvetica,sans-Serif" font-size="10.00">sensesp::ValueConsumer&lt; T &gt;</text>
</a>
</g>
</g>
<!-- Node7&#45;&gt;Node1 -->
<g id="edge6_Node000001_Node000007" class="edge">
<title>Node7&#45;&gt;Node1</title>
<g id="a_edge6_Node000001_Node000007"><a xlink:title=" ">
<path fill="none" stroke="#63b8ff" d="M495.16,-81.87C503.52,-82.41 511.95,-82.96 520.17,-83.49"/>
<polygon fill="#63b8ff" stroke="#63b8ff" points="495.54,-78.38 485.33,-81.23 495.08,-85.37 495.54,-78.38"/>
</a>
</g>
</g>
</g>
</svg>
