<?xml version="1.0" encoding="UTF-8" standalone="no"?>
<!DOCTYPE svg PUBLIC "-//W3C//DTD SVG 1.1//EN"
 "http://www.w3.org/Graphics/SVG/1.1/DTD/svg11.dtd">
<!-- Generated by graphviz version 2.40.1 (20161225.0304)
 -->
<!-- Title: Configurable::load_configuration Pages: 1 -->
<svg width="314pt" height="222pt"
 viewBox="0.00 0.00 313.90 222.00" xmlns="http://www.w3.org/2000/svg" xmlns:xlink="http://www.w3.org/1999/xlink">
<g id="graph0" class="graph" transform="scale(1 1) rotate(0) translate(4 218)">
<title>Configurable::load_configuration</title>
<polygon fill="#ffffff" stroke="transparent" points="-4,4 -4,-218 309.8955,-218 309.8955,4 -4,4"/>
<!-- Node16 -->
<g id="node1" class="node">
<title>Node16</title>
<g id="a_node1"><a xlink:title=" ">
<polygon fill="#bfbfbf" stroke="#000000" points="208.7285,-97.5 208.7285,-125.5 305.8955,-125.5 305.8955,-97.5 208.7285,-97.5"/>
<text text-anchor="start" x="216.7285" y="-113.5" font-family="Helvetica,sans-Serif" font-size="10.00" fill="#000000">Configurable::load</text>
<text text-anchor="middle" x="257.312" y="-103.5" font-family="Helvetica,sans-Serif" font-size="10.00" fill="#000000">_configuration</text>
</a>
</g>
</g>
<!-- Node17 -->
<g id="node2" class="node">
<title>Node17</title>
<g id="a_node2"><a xlink:href="class_g_p_s_input.html#ac434000c2641c7ef06badb2d51f79520" target="_top" xlink:title=" ">
<polygon fill="#ffffff" stroke="#000000" points="32.2266,-195.5 32.2266,-213.5 140.502,-213.5 140.502,-195.5 32.2266,-195.5"/>
<text text-anchor="middle" x="86.3643" y="-201.5" font-family="Helvetica,sans-Serif" font-size="10.00" fill="#000000">GPSInput::GPSInput</text>
</a>
</g>
</g>
<!-- Node16&#45;&gt;Node17 -->
<g id="edge1" class="edge">
<title>Node16&#45;&gt;Node17</title>
<path fill="none" stroke="#191970" d="M238.6507,-133.3868C222.8382,-150.4915 198.6522,-173.4798 172.7285,-186.5 162.8741,-191.4494 151.7312,-195.0386 140.8042,-197.6412"/>
<polygon fill="#191970" stroke="#191970" points="241.6292,-135.3088 245.7115,-125.532 236.4233,-130.6291 241.6292,-135.3088"/>
</g>
<!-- Node18 -->
<g id="node3" class="node">
<title>Node18</title>
<g id="a_node3"><a xlink:href="class_i_n_a219.html#adc0300a6f6fa99ee85786a354614e343" target="_top" xlink:title=" ">
<polygon fill="#ffffff" stroke="#000000" points="42.2314,-158.5 42.2314,-176.5 130.4971,-176.5 130.4971,-158.5 42.2314,-158.5"/>
<text text-anchor="middle" x="86.3643" y="-164.5" font-family="Helvetica,sans-Serif" font-size="10.00" fill="#000000">INA219::INA219</text>
</a>
</g>
</g>
<!-- Node16&#45;&gt;Node18 -->
<g id="edge2" class="edge">
<title>Node16&#45;&gt;Node18</title>
<path fill="none" stroke="#191970" d="M220.8668,-129.959C206.192,-136.8363 188.9318,-144.2406 172.7285,-149.5 159.3261,-153.8502 144.4028,-157.3984 130.7825,-160.1593"/>
<polygon fill="#191970" stroke="#191970" points="222.5883,-133.0155 230.0997,-125.5436 219.5682,-126.7004 222.5883,-133.0155"/>
</g>
<!-- Node19 -->
<g id="node4" class="node">
<title>Node19</title>
<g id="a_node4"><a xlink:href="class_orientation9_d_o_f.html#ad27863d8df7610c8e6c74c874a91fbba" target="_top" xlink:title=" ">
<polygon fill="#ffffff" stroke="#000000" points="0,-121.5 0,-139.5 172.7285,-139.5 172.7285,-121.5 0,-121.5"/>
<text text-anchor="middle" x="86.3643" y="-127.5" font-family="Helvetica,sans-Serif" font-size="10.00" fill="#000000">Orientation9DOF::Orientation9DOF</text>
</a>
</g>
</g>
<!-- Node16&#45;&gt;Node19 -->
<g id="edge3" class="edge">
<title>Node16&#45;&gt;Node19</title>
<path fill="none" stroke="#191970" d="M198.2418,-118.0654C188.3601,-119.1637 177.9563,-120.32 167.6345,-121.4672"/>
<polygon fill="#191970" stroke="#191970" points="198.7731,-121.528 208.3252,-116.9446 197.9998,-114.5708 198.7731,-121.528"/>
</g>
<!-- Node20 -->
<g id="node5" class="node">
<title>Node20</title>
<g id="a_node5"><a xlink:href="class_s_k_output.html#a88f9638dd4779818b41a62738ba44876" target="_top" xlink:title=" ">
<polygon fill="#ffffff" stroke="#000000" points="32.2266,-84.5 32.2266,-102.5 140.502,-102.5 140.502,-84.5 32.2266,-84.5"/>
<text text-anchor="middle" x="86.3643" y="-90.5" font-family="Helvetica,sans-Serif" font-size="10.00" fill="#000000">SKOutput::SKOutput</text>
</a>
</g>
</g>
<!-- Node16&#45;&gt;Node20 -->
<g id="edge4" class="edge">
<title>Node16&#45;&gt;Node20</title>
<path fill="none" stroke="#191970" d="M198.1862,-105.2743C179.5464,-103.3116 159.0536,-101.1539 140.7597,-99.2276"/>
<polygon fill="#191970" stroke="#191970" points="198.0137,-108.7754 208.3252,-106.3419 198.7468,-101.8139 198.0137,-108.7754"/>
</g>
<!-- Node21 -->
<g id="node6" class="node">
<title>Node21</title>
<g id="a_node6"><a xlink:href="class_s_k_output_time.html#ab77e9bdfeb69fd37c6fc87ac247146e4" target="_top" xlink:title=" ">
<polygon fill="#ffffff" stroke="#000000" points="10.3711,-47.5 10.3711,-65.5 162.3574,-65.5 162.3574,-47.5 10.3711,-47.5"/>
<text text-anchor="middle" x="86.3643" y="-53.5" font-family="Helvetica,sans-Serif" font-size="10.00" fill="#000000">SKOutputTime::SKOutputTime</text>
</a>
</g>
</g>
<!-- Node16&#45;&gt;Node21 -->
<g id="edge5" class="edge">
<title>Node16&#45;&gt;Node21</title>
<path fill="none" stroke="#191970" d="M218.6167,-93.2417C204.4049,-87.0153 188.0437,-80.3969 172.7285,-75.5 160.7376,-71.666 147.5674,-68.3387 135.2037,-65.587"/>
<polygon fill="#191970" stroke="#191970" points="217.5148,-96.5827 228.073,-97.4637 220.3687,-90.1909 217.5148,-96.5827"/>
</g>
<!-- Node22 -->
<g id="node7" class="node">
<title>Node22</title>
<g id="a_node7"><a xlink:href="class_curve_interpolator.html#a09bdf144307f1264c36d5afaea5c96a3" target="_top" xlink:title=" ">
<polygon fill="#ffffff" stroke="#000000" points="36.9556,-.5 36.9556,-28.5 135.7729,-28.5 135.7729,-.5 36.9556,-.5"/>
<text text-anchor="start" x="44.9556" y="-16.5" font-family="Helvetica,sans-Serif" font-size="10.00" fill="#000000">CurveInterpolator::</text>
<text text-anchor="middle" x="86.3643" y="-6.5" font-family="Helvetica,sans-Serif" font-size="10.00" fill="#000000">CurveInterpolator</text>
</a>
</g>
</g>
<!-- Node16&#45;&gt;Node22 -->
<g id="edge6" class="edge">
<title>Node16&#45;&gt;Node22</title>
<path fill="none" stroke="#191970" d="M237.459,-89.7949C221.4444,-73.5016 197.5649,-51.7965 172.7285,-38.5 161.3413,-32.4037 148.2595,-27.7376 135.7791,-24.2152"/>
<polygon fill="#191970" stroke="#191970" points="235.2096,-92.5059 244.6587,-97.2982 240.2605,-87.6594 235.2096,-92.5059"/>
</g>
</g>
</svg>
