<?xml version="1.0" encoding="UTF-8" standalone="no"?>
<!DOCTYPE svg PUBLIC "-//W3C//DTD SVG 1.1//EN"
 "http://www.w3.org/Graphics/SVG/1.1/DTD/svg11.dtd">
<!-- Generated by graphviz version 2.48.0 (20210717.1556)
 -->
<!-- Title: EvenBlinker Pages: 1 -->
<svg width="91pt" height="196pt"
 viewBox="0.00 0.00 91.00 196.00" xmlns="http://www.w3.org/2000/svg" xmlns:xlink="http://www.w3.org/1999/xlink">
<g id="graph0" class="graph" transform="scale(1 1) rotate(0) translate(4 192)">
<title>EvenBlinker</title>
<polygon fill="white" stroke="transparent" points="-4,4 -4,-192 87,-192 87,4 -4,4"/>
<!-- Node1 -->
<g id="node1" class="node">
<title>Node1</title>
<g id="a_node1"><a xlink:title="An LED blinker class that blinks the LED 50% off, 50% on, at a given period.">
<polygon fill="#bfbfbf" stroke="black" points="6.5,-0.5 6.5,-19.5 76.5,-19.5 76.5,-0.5 6.5,-0.5"/>
<text text-anchor="middle" x="41.5" y="-7.5" font-family="Helvetica,sans-Serif" font-size="10.00">EvenBlinker</text>
</a>
</g>
</g>
<!-- Node2 -->
<g id="node2" class="node">
<title>Node2</title>
<g id="a_node2"><a xlink:href="class_periodic_blinker.html" target="_top" xlink:title="A base class for periodic blinkers.">
<polygon fill="white" stroke="black" points="0,-56.5 0,-75.5 83,-75.5 83,-56.5 0,-56.5"/>
<text text-anchor="middle" x="41.5" y="-63.5" font-family="Helvetica,sans-Serif" font-size="10.00">PeriodicBlinker</text>
</a>
</g>
</g>
<!-- Node2&#45;&gt;Node1 -->
<g id="edge1" class="edge">
<title>Node2&#45;&gt;Node1</title>
<path fill="none" stroke="midnightblue" d="M41.5,-45.8C41.5,-36.91 41.5,-26.78 41.5,-19.75"/>
<polygon fill="midnightblue" stroke="midnightblue" points="38,-46.08 41.5,-56.08 45,-46.08 38,-46.08"/>
</g>
<!-- Node3 -->
<g id="node3" class="node">
<title>Node3</title>
<g id="a_node3"><a xlink:href="class_base_blinker.html" target="_top" xlink:title="A base class for LED blinker classes.">
<polygon fill="white" stroke="black" points="6.5,-112.5 6.5,-131.5 76.5,-131.5 76.5,-112.5 6.5,-112.5"/>
<text text-anchor="middle" x="41.5" y="-119.5" font-family="Helvetica,sans-Serif" font-size="10.00">BaseBlinker</text>
</a>
</g>
</g>
<!-- Node3&#45;&gt;Node2 -->
<g id="edge2" class="edge">
<title>Node3&#45;&gt;Node2</title>
<path fill="none" stroke="midnightblue" d="M41.5,-101.8C41.5,-92.91 41.5,-82.78 41.5,-75.75"/>
<polygon fill="midnightblue" stroke="midnightblue" points="38,-102.08 41.5,-112.08 45,-102.08 38,-102.08"/>
</g>
<!-- Node4 -->
<g id="node4" class="node">
<title>Node4</title>
<g id="a_node4"><a xlink:href="class_enable.html" target="_top" xlink:title="Classes that implement &quot;Enable&quot; will have their enable() method called automatically at startup when ...">
<polygon fill="white" stroke="black" points="17.5,-168.5 17.5,-187.5 65.5,-187.5 65.5,-168.5 17.5,-168.5"/>
<text text-anchor="middle" x="41.5" y="-175.5" font-family="Helvetica,sans-Serif" font-size="10.00">Enable</text>
</a>
</g>
</g>
<!-- Node4&#45;&gt;Node3 -->
<g id="edge3" class="edge">
<title>Node4&#45;&gt;Node3</title>
<path fill="none" stroke="midnightblue" d="M41.5,-157.8C41.5,-148.91 41.5,-138.78 41.5,-131.75"/>
<polygon fill="midnightblue" stroke="midnightblue" points="38,-158.08 41.5,-168.08 45,-158.08 38,-158.08"/>
</g>
</g>
</svg>
