<?xml version="1.0" encoding="UTF-8" standalone="no"?>
<!DOCTYPE svg PUBLIC "-//W3C//DTD SVG 1.1//EN"
 "http://www.w3.org/Graphics/SVG/1.1/DTD/svg11.dtd">
<!-- Generated by graphviz version 13.0.0 (20250608.1624)
 -->
<!-- Title: sensesp::TimeCounter&lt; T &gt; Pages: 1 -->
<!--zoomable 213 -->

<svg id="main" version="1.1" xmlns="http://www.w3.org/2000/svg" xmlns:xlink="http://www.w3.org/1999/xlink" xml:space="preserve" onload="init(evt)">

<style type="text/css"><![CDATA[
.node, .edge {opacity: 0.7;}
.node.selected, .edge.selected {opacity: 1;}
.edge:hover path { stroke: red; }
.edge:hover polygon { stroke: red; fill: red; }
]]></style>

<defs>
  <circle id="rim" cx="0" cy="0" r="7"/>
  <circle id="rim2" cx="0" cy="0" r="3.5"/>
  <g id="zoomPlus">
    <use xlink:href="#rim" fill="#404040"><set attributeName="fill" to="#808080" begin="zoomplus.mouseover" end="zoomplus.mouseout"/></use>
    <path d="M-4,0h8M0,-4v8" fill="none" stroke="white" stroke-width="1.5" pointer-events="none"/>
  </g>
  <g id="zoomMin">
    <use xlink:href="#rim" fill="#404040"><set attributeName="fill" to="#808080" begin="zoomminus.mouseover" end="zoomminus.mouseout"/></use>
    <path d="M-4,0h8" fill="none" stroke="white" stroke-width="1.5" pointer-events="none"/>
  </g>
  <g id="arrowUp" transform="translate(30 24)">
    <use xlink:href="#rim"/>
    <path pointer-events="none" fill="none" stroke="white" stroke-width="1.5" d="M0,-3.0v7 M-2.5,-0.5L0,-3.0L2.5,-0.5"/>
  </g>
  <g id="arrowRight" transform="rotate(90) translate(36 -43)">
    <use xlink:href="#rim"/>
    <path pointer-events="none" fill="none" stroke="white" stroke-width="1.5" d="M0,-3.0v7 M-2.5,-0.5L0,-3.0L2.5,-0.5"/>
  </g>
  <g id="arrowDown" transform="rotate(180) translate(-30 -48)">
    <use xlink:href="#rim"/>
    <path pointer-events="none" fill="none" stroke="white" stroke-width="1.5" d="M0,-3.0v7 M-2.5,-0.5L0,-3.0L2.5,-0.5"/>
  </g>
  <g id="arrowLeft" transform="rotate(270) translate(-36 17)">
    <use xlink:href="#rim"/>
    <path pointer-events="none" fill="none" stroke="white" stroke-width="1.5" d="M0,-3.0v7 M-2.5,-0.5L0,-3.0L2.5,-0.5"/>
  </g>
  <g id="resetDef">
    <use xlink:href="#rim2" fill="#404040"><set attributeName="fill" to="#808080" begin="reset.mouseover" end="reset.mouseout"/></use>
  </g>
</defs>
<script type="application/ecmascript">
var viewWidth = 1108;
var viewHeight = 213;
var sectionId = 'dynsection-0';
</script>
<script type="application/ecmascript" xlink:href="svg.min.js"/>
<svg id="graph" class="graph">
<g id="viewport">
<title>sensesp::TimeCounter&lt; T &gt;</title>
<!-- Node1 -->
<g id="Node000001" class="node">
<title>Node1</title>
<g id="a_Node000001"><a xlink:title="A transform that outputs the duration of the input value being true or non&#45;null.">
<polygon fill="#999999" stroke="#666666" points="1100.25,-82.25 961.25,-82.25 961.25,-63 1100.25,-63 1100.25,-82.25"/>
<text xml:space="preserve" text-anchor="middle" x="1030.75" y="-68.75" font-family="Helvetica,sans-Serif" font-size="10.00">sensesp::TimeCounter&lt; T &gt;</text>
</a>
</g>
</g>
<!-- Node2 -->
<g id="Node000002" class="node">
<title>Node2</title>
<g id="a_Node000002"><a xlink:href="classsensesp_1_1_transform.html" target="_top" xlink:title=" ">
<polygon fill="white" stroke="#666666" points="924.25,-87.88 821.25,-87.88 821.25,-57.38 924.25,-57.38 924.25,-87.88"/>
<text xml:space="preserve" text-anchor="start" x="829.25" y="-74.38" font-family="Helvetica,sans-Serif" font-size="10.00">sensesp::Transform</text>
<text xml:space="preserve" text-anchor="middle" x="872.75" y="-63.12" font-family="Helvetica,sans-Serif" font-size="10.00">&lt; T, double &gt;</text>
</a>
</g>
</g>
<!-- Node2&#45;&gt;Node1 -->
<g id="edge1_Node000001_Node000002" class="edge">
<title>Node2&#45;&gt;Node1</title>
<g id="a_edge1_Node000001_Node000002"><a xlink:title=" ">
<path fill="none" stroke="#63b8ff" d="M935.84,-72.62C944.09,-72.62 952.57,-72.62 960.92,-72.62"/>
<polygon fill="#63b8ff" stroke="#63b8ff" points="935.91,-69.13 925.91,-72.63 935.91,-76.13 935.91,-69.13"/>
</a>
</g>
</g>
<!-- Node3 -->
<g id="Node000003" class="node">
<title>Node3</title>
<g id="a_Node000003"><a xlink:href="classsensesp_1_1_transform_base.html" target="_top" xlink:title="The base class for all transforms. A transforms takes a value in, transforms it in some way,...">
<polygon fill="white" stroke="#666666" points="522.62,-57.25 397.12,-57.25 397.12,-38 522.62,-38 522.62,-57.25"/>
<text xml:space="preserve" text-anchor="middle" x="459.88" y="-43.75" font-family="Helvetica,sans-Serif" font-size="10.00">sensesp::TransformBase</text>
</a>
</g>
</g>
<!-- Node3&#45;&gt;Node2 -->
<g id="edge2_Node000002_Node000003" class="edge">
<title>Node3&#45;&gt;Node2</title>
<g id="a_edge2_Node000002_Node000003"><a xlink:title=" ">
<path fill="none" stroke="#63b8ff" d="M534.15,-52.08C616.78,-57.11 748.97,-65.15 820.98,-69.54"/>
<polygon fill="#63b8ff" stroke="#63b8ff" points="534.54,-48.6 524.34,-51.49 534.11,-55.59 534.54,-48.6"/>
</a>
</g>
</g>
<!-- Node11 -->
<g id="Node000011" class="node">
<title>Node11</title>
<g id="a_Node000011"><a xlink:href="classsensesp_1_1_transform.html" target="_top" xlink:title="The main Transform class. A transform is identified primarily by the type of value that is produces (...">
<polygon fill="white" stroke="#666666" points="700.88,-109.88 597.88,-109.88 597.88,-79.38 700.88,-79.38 700.88,-109.88"/>
<text xml:space="preserve" text-anchor="start" x="605.88" y="-96.38" font-family="Helvetica,sans-Serif" font-size="10.00">sensesp::Transform</text>
<text xml:space="preserve" text-anchor="middle" x="649.38" y="-85.12" font-family="Helvetica,sans-Serif" font-size="10.00">&lt; C, P &gt;</text>
</a>
</g>
</g>
<!-- Node3&#45;&gt;Node11 -->
<g id="edge12_Node000011_Node000003" class="edge">
<title>Node3&#45;&gt;Node11</title>
<g id="a_edge12_Node000011_Node000003"><a xlink:title=" ">
<path fill="none" stroke="#63b8ff" d="M512.09,-60.46C538.65,-67.12 570.98,-75.23 597.49,-81.87"/>
<polygon fill="#63b8ff" stroke="#63b8ff" points="513.12,-57.11 502.57,-58.08 511.42,-63.9 513.12,-57.11"/>
</a>
</g>
</g>
<!-- Node4 -->
<g id="Node000004" class="node">
<title>Node4</title>
<g id="a_Node000004"><a xlink:href="classsensesp_1_1_file_system_saveable.html" target="_top" xlink:title=" ">
<polygon fill="white" stroke="#666666" points="296.25,-57.25 147.5,-57.25 147.5,-38 296.25,-38 296.25,-57.25"/>
<text xml:space="preserve" text-anchor="middle" x="221.88" y="-43.75" font-family="Helvetica,sans-Serif" font-size="10.00">sensesp::FileSystemSaveable</text>
</a>
</g>
</g>
<!-- Node4&#45;&gt;Node3 -->
<g id="edge3_Node000003_Node000004" class="edge">
<title>Node4&#45;&gt;Node3</title>
<g id="a_edge3_Node000003_Node000004"><a xlink:title=" ">
<path fill="none" stroke="#63b8ff" d="M308.09,-47.62C337.42,-47.62 369.7,-47.62 396.84,-47.62"/>
<polygon fill="#63b8ff" stroke="#63b8ff" points="308.09,-44.13 298.09,-47.63 308.09,-51.13 308.09,-44.13"/>
</a>
</g>
</g>
<!-- Node5 -->
<g id="Node000005" class="node">
<title>Node5</title>
<g id="a_Node000005"><a xlink:href="classsensesp_1_1_saveable.html" target="_top" xlink:title="Interface for saveable objects.">
<polygon fill="white" stroke="#666666" points="104.12,-39.25 4.88,-39.25 4.88,-20 104.12,-20 104.12,-39.25"/>
<text xml:space="preserve" text-anchor="middle" x="54.5" y="-25.75" font-family="Helvetica,sans-Serif" font-size="10.00">sensesp::Saveable</text>
</a>
</g>
</g>
<!-- Node5&#45;&gt;Node4 -->
<g id="edge4_Node000004_Node000005" class="edge">
<title>Node5&#45;&gt;Node4</title>
<g id="a_edge4_Node000004_Node000005"><a xlink:title=" ">
<path fill="none" stroke="#63b8ff" d="M115.53,-36.16C125.77,-37.27 136.51,-38.44 147.05,-39.59"/>
<polygon fill="#63b8ff" stroke="#63b8ff" points="116.05,-32.69 105.73,-35.09 115.29,-39.65 116.05,-32.69"/>
</a>
</g>
</g>
<!-- Node6 -->
<g id="Node000006" class="node">
<title>Node6</title>
<g id="a_Node000006"><a xlink:href="classsensesp_1_1_serializable.html" target="_top" xlink:title="Interface for serializable objects.">
<polygon fill="white" stroke="#666666" points="109,-76.25 0,-76.25 0,-57 109,-57 109,-76.25"/>
<text xml:space="preserve" text-anchor="middle" x="54.5" y="-62.75" font-family="Helvetica,sans-Serif" font-size="10.00">sensesp::Serializable</text>
</a>
</g>
</g>
<!-- Node6&#45;&gt;Node4 -->
<g id="edge5_Node000004_Node000006" class="edge">
<title>Node6&#45;&gt;Node4</title>
<g id="a_edge5_Node000004_Node000006"><a xlink:title=" ">
<path fill="none" stroke="#63b8ff" d="M120.46,-59.16C129.17,-58.16 138.16,-57.13 147.01,-56.11"/>
<polygon fill="#63b8ff" stroke="#63b8ff" points="120.23,-55.66 110.7,-60.28 121.03,-62.62 120.23,-55.66"/>
</a>
</g>
</g>
<!-- Node7 -->
<g id="Node000007" class="node">
<title>Node7</title>
<g id="a_Node000007"><a xlink:href="classsensesp_1_1_value_consumer.html" target="_top" xlink:title="A base class for piece of code (like a transform) that accepts data for input. ValueConsumers can acc...">
<polygon fill="white" stroke="#666666" points="725.25,-19.25 573.5,-19.25 573.5,0 725.25,0 725.25,-19.25"/>
<text xml:space="preserve" text-anchor="middle" x="649.38" y="-5.75" font-family="Helvetica,sans-Serif" font-size="10.00">sensesp::ValueConsumer&lt; T &gt;</text>
</a>
</g>
</g>
<!-- Node7&#45;&gt;Node2 -->
<g id="edge6_Node000002_Node000007" class="edge">
<title>Node7&#45;&gt;Node2</title>
<g id="a_edge6_Node000002_Node000007"><a xlink:title=" ">
<path fill="none" stroke="#63b8ff" d="M736.94,-17.65C758.96,-21.2 782.3,-26.29 803.25,-33.62 819.4,-39.28 836.11,-48.71 848.98,-56.88"/>
<polygon fill="#63b8ff" stroke="#63b8ff" points="737.48,-14.19 727.07,-16.16 736.44,-21.12 737.48,-14.19"/>
</a>
</g>
</g>
<!-- Node8 -->
<g id="Node000008" class="node">
<title>Node8</title>
<g id="a_Node000008"><a xlink:href="classsensesp_1_1_value_producer.html" target="_top" xlink:title=" ">
<polygon fill="white" stroke="#666666" points="520.75,-204.88 399,-204.88 399,-174.38 520.75,-174.38 520.75,-204.88"/>
<text xml:space="preserve" text-anchor="start" x="407" y="-191.38" font-family="Helvetica,sans-Serif" font-size="10.00">sensesp::ValueProducer</text>
<text xml:space="preserve" text-anchor="middle" x="459.88" y="-180.12" font-family="Helvetica,sans-Serif" font-size="10.00">&lt; double &gt;</text>
</a>
</g>
</g>
<!-- Node8&#45;&gt;Node2 -->
<g id="edge7_Node000002_Node000008" class="edge">
<title>Node8&#45;&gt;Node2</title>
<g id="a_edge7_Node000002_Node000008"><a xlink:title=" ">
<path fill="none" stroke="#63b8ff" d="M531.81,-174.11C601.62,-158.16 710.87,-131.36 803.25,-100.62 813.98,-97.06 825.42,-92.63 835.83,-88.36"/>
<polygon fill="#63b8ff" stroke="#63b8ff" points="531.41,-170.61 522.43,-176.24 532.96,-177.44 531.41,-170.61"/>
</a>
</g>
</g>
<!-- Node9 -->
<g id="Node000009" class="node">
<title>Node9</title>
<g id="a_Node000009"><a xlink:href="classsensesp_1_1_observable.html" target="_top" xlink:title="A base class which allow observers to attach callbacks to themselves. The callbacks will be called wh...">
<polygon fill="white" stroke="#666666" points="108.62,-178.25 0.38,-178.25 0.38,-159 108.62,-159 108.62,-178.25"/>
<text xml:space="preserve" text-anchor="middle" x="54.5" y="-164.75" font-family="Helvetica,sans-Serif" font-size="10.00">sensesp::Observable</text>
</a>
</g>
</g>
<!-- Node9&#45;&gt;Node8 -->
<g id="edge8_Node000008_Node000009" class="edge">
<title>Node9&#45;&gt;Node8</title>
<g id="a_edge8_Node000008_Node000009"><a xlink:title=" ">
<path fill="none" stroke="#63b8ff" d="M107.86,-181.05C120.3,-183.6 133.57,-186 146,-187.62 242.7,-200.26 267.79,-200.26 365.25,-196.62 376.08,-196.22 387.6,-195.55 398.73,-194.79"/>
<polygon fill="#63b8ff" stroke="#63b8ff" points="108.71,-177.65 98.2,-178.99 107.25,-184.49 108.71,-177.65"/>
</a>
</g>
</g>
<!-- Node10 -->
<g id="Node000010" class="node">
<title>Node10</title>
<g id="a_Node000010"><a xlink:href="classsensesp_1_1_value_producer.html" target="_top" xlink:title="A base class for any sensor or piece of code that outputs a value for consumption elsewhere.">
<polygon fill="white" stroke="#666666" points="294.75,-178.25 149,-178.25 149,-159 294.75,-159 294.75,-178.25"/>
<text xml:space="preserve" text-anchor="middle" x="221.88" y="-164.75" font-family="Helvetica,sans-Serif" font-size="10.00">sensesp::ValueProducer&lt; T &gt;</text>
</a>
</g>
</g>
<!-- Node9&#45;&gt;Node10 -->
<g id="edge10_Node000010_Node000009" class="edge">
<title>Node9&#45;&gt;Node10</title>
<g id="a_edge10_Node000010_Node000009"><a xlink:title=" ">
<path fill="none" stroke="#63b8ff" d="M120.02,-168.62C129.44,-168.62 139.19,-168.62 148.75,-168.62"/>
<polygon fill="#63b8ff" stroke="#63b8ff" points="120.25,-165.13 110.25,-168.63 120.25,-172.13 120.25,-165.13"/>
</a>
</g>
</g>
<!-- Node14 -->
<g id="Node000014" class="node">
<title>Node14</title>
<g id="a_Node000014"><a xlink:href="classsensesp_1_1_value_producer.html" target="_top" xlink:title=" ">
<polygon fill="white" stroke="#666666" points="533.12,-132.25 386.62,-132.25 386.62,-113 533.12,-113 533.12,-132.25"/>
<text xml:space="preserve" text-anchor="middle" x="459.88" y="-118.75" font-family="Helvetica,sans-Serif" font-size="10.00">sensesp::ValueProducer&lt; P &gt;</text>
</a>
</g>
</g>
<!-- Node9&#45;&gt;Node14 -->
<g id="edge16_Node000014_Node000009" class="edge">
<title>Node9&#45;&gt;Node14</title>
<g id="a_edge16_Node000014_Node000009"><a xlink:title=" ">
<path fill="none" stroke="#63b8ff" d="M109.37,-156.2C121.38,-153.74 134.08,-151.38 146,-149.62 227.85,-137.55 322.6,-130.3 386.2,-126.4"/>
<polygon fill="#63b8ff" stroke="#63b8ff" points="108.67,-152.77 99.6,-158.26 110.11,-159.62 108.67,-152.77"/>
</a>
</g>
</g>
<!-- Node10&#45;&gt;Node8 -->
<g id="edge9_Node000008_Node000010" class="edge">
<title>Node10&#45;&gt;Node8</title>
<g id="a_edge9_Node000008_Node000010"><a xlink:title=" ">
<path fill="none" stroke="orange" stroke-dasharray="5,2" d="M306.05,-176.03C336.61,-178.75 370.59,-181.77 398.74,-184.27"/>
<polygon fill="orange" stroke="orange" points="306.74,-172.57 296.47,-175.17 306.12,-179.55 306.74,-172.57"/>
</a>
</g>
<text xml:space="preserve" text-anchor="middle" x="340.5" y="-182.76" font-family="Helvetica,sans-Serif" font-size="10.00" fill="grey"> &lt; double &gt;</text>
</g>
<!-- Node10&#45;&gt;Node14 -->
<g id="edge17_Node000014_Node000010" class="edge">
<title>Node10&#45;&gt;Node14</title>
<g id="a_edge17_Node000014_Node000010"><a xlink:title=" ">
<path fill="none" stroke="orange" stroke-dasharray="5,2" d="M285.6,-156.4C323.58,-149 371.42,-139.67 407.2,-132.7"/>
<polygon fill="orange" stroke="orange" points="285.3,-152.89 276.15,-158.24 286.64,-159.76 285.3,-152.89"/>
</a>
</g>
<text xml:space="preserve" text-anchor="middle" x="340.5" y="-151.5" font-family="Helvetica,sans-Serif" font-size="10.00" fill="grey"> &lt; P &gt;</text>
</g>
<!-- Node11&#45;&gt;Node2 -->
<g id="edge11_Node000002_Node000011" class="edge">
<title>Node11&#45;&gt;Node2</title>
<g id="a_edge11_Node000002_Node000011"><a xlink:title=" ">
<path fill="none" stroke="orange" stroke-dasharray="5,2" d="M712.44,-88.46C746.63,-85.06 788.56,-80.89 820.82,-77.69"/>
<polygon fill="orange" stroke="orange" points="712.27,-84.96 702.67,-89.43 712.97,-91.92 712.27,-84.96"/>
</a>
</g>
<text xml:space="preserve" text-anchor="middle" x="773.25" y="-86.69" font-family="Helvetica,sans-Serif" font-size="10.00" fill="grey"> &lt; T, double &gt;</text>
</g>
<!-- Node12 -->
<g id="Node000012" class="node">
<title>Node12</title>
<g id="a_Node000012"><a xlink:href="classsensesp_1_1_value_consumer.html" target="_top" xlink:title=" ">
<polygon fill="white" stroke="#666666" points="536.5,-95.25 383.25,-95.25 383.25,-76 536.5,-76 536.5,-95.25"/>
<text xml:space="preserve" text-anchor="middle" x="459.88" y="-81.75" font-family="Helvetica,sans-Serif" font-size="10.00">sensesp::ValueConsumer&lt; C &gt;</text>
</a>
</g>
</g>
<!-- Node12&#45;&gt;Node11 -->
<g id="edge13_Node000011_Node000012" class="edge">
<title>Node12&#45;&gt;Node11</title>
<g id="a_edge13_Node000011_Node000012"><a xlink:title=" ">
<path fill="none" stroke="#63b8ff" d="M547.96,-89.8C564.93,-90.62 582.2,-91.45 597.52,-92.18"/>
<polygon fill="#63b8ff" stroke="#63b8ff" points="548.54,-86.33 538.38,-89.35 548.2,-93.32 548.54,-86.33"/>
</a>
</g>
</g>
<!-- Node13 -->
<g id="Node000013" class="node">
<title>Node13</title>
<g id="a_Node000013"><a xlink:href="classsensesp_1_1_value_consumer.html" target="_top" xlink:title="A base class for piece of code (like a transform) that accepts data for input. ValueConsumers can acc...">
<polygon fill="white" stroke="#666666" points="297.75,-94.25 146,-94.25 146,-75 297.75,-75 297.75,-94.25"/>
<text xml:space="preserve" text-anchor="middle" x="221.88" y="-80.75" font-family="Helvetica,sans-Serif" font-size="10.00">sensesp::ValueConsumer&lt; T &gt;</text>
</a>
</g>
</g>
<!-- Node13&#45;&gt;Node12 -->
<g id="edge14_Node000012_Node000013" class="edge">
<title>Node13&#45;&gt;Node12</title>
<g id="a_edge14_Node000012_Node000013"><a xlink:title=" ">
<path fill="none" stroke="orange" stroke-dasharray="5,2" d="M309.49,-84.99C333.61,-85.09 359.61,-85.2 383.06,-85.3"/>
<polygon fill="orange" stroke="orange" points="309.72,-81.49 299.71,-84.95 309.69,-88.49 309.72,-81.49"/>
</a>
</g>
<text xml:space="preserve" text-anchor="middle" x="340.5" y="-86.96" font-family="Helvetica,sans-Serif" font-size="10.00" fill="grey"> &lt; C &gt;</text>
</g>
<!-- Node14&#45;&gt;Node11 -->
<g id="edge15_Node000011_Node000014" class="edge">
<title>Node14&#45;&gt;Node11</title>
<g id="a_edge15_Node000011_Node000014"><a xlink:title=" ">
<path fill="none" stroke="#63b8ff" d="M539.92,-110.82C559.43,-107.91 579.8,-104.87 597.56,-102.21"/>
<polygon fill="#63b8ff" stroke="#63b8ff" points="539.44,-107.35 530.06,-112.29 540.47,-114.28 539.44,-107.35"/>
</a>
</g>
</g>
</g>
</svg>

<g id="navigator" transform="translate(0 0)" fill="#404254">
  <rect fill="#f2f5e9" fill-opacity="0.5" stroke="#606060" stroke-width=".5" x="0" y="0" width="60" height="60"/>
  <use id="zoomplus" xlink:href="#zoomPlus" x="17" y="9" onmousedown="handleZoom(evt,'in')"/>
  <use id="zoomminus" xlink:href="#zoomMin" x="42" y="9" onmousedown="handleZoom(evt,'out')"/>
  <use id="reset" xlink:href="#resetDef" x="30" y="36" onmousedown="handleReset()"/>
   <use id="arrowup" xlink:href="#arrowUp" x="0" y="0" onmousedown="handlePan(0,-1)"/>
  <use id="arrowright" xlink:href="#arrowRight" x="0" y="0" onmousedown="handlePan(1,0)"/>
  <use id="arrowdown" xlink:href="#arrowDown" x="0" y="0" onmousedown="handlePan(0,1)"/>
  <use id="arrowleft" xlink:href="#arrowLeft" x="0" y="0" onmousedown="handlePan(-1,0)"/>
</g>
<svg viewBox="0 0 15 15" width="100%" height="30px" preserveAspectRatio="xMaxYMin meet">
 <g id="arrow_out" transform="scale(0.3 0.3)">
  <a xlink:href="classsensesp_1_1_time_counter__inherit__graph_org.svg" target="_base">
   <rect id="button" ry="5" rx="5" y="6" x="6" height="38" width="38"
        fill="#f2f5e9" fill-opacity="0.5" stroke="#606060" stroke-width="1.0"/>
   <path id="arrow"
     d="M 11.500037,31.436501 C 11.940474,20.09759 22.043105,11.32322 32.158766,21.979434 L 37.068811,17.246167 C 37.068811,17.246167 37.088388,32 37.088388,32 L 22.160133,31.978069 C 22.160133,31.978069 26.997745,27.140456 26.997745,27.140456 C 18.528582,18.264221 13.291696,25.230495 11.500037,31.436501 z"
     style="fill:#404040;"/>
  </a>
 </g>
</svg>

<style type='text/css'>
<![CDATA[
[data-mouse-over-selected='false'] { opacity: 0.7; }
[data-mouse-over-selected='true']  { opacity: 1.0; }
]]>
</style>
<script type="application/ecmascript"><![CDATA[
document.addEventListener('DOMContentLoaded', (event) => {
  highlightEdges();
  highlightAdjacentNodes();
});
]]></script>
</svg>
