<?xml version="1.0" encoding="UTF-8" standalone="no"?>
<!DOCTYPE svg PUBLIC "-//W3C//DTD SVG 1.1//EN"
 "http://www.w3.org/Graphics/SVG/1.1/DTD/svg11.dtd">
<!-- Generated by graphviz version 2.49.3 (20211023.0002)
 -->
<!-- Title: ADS1x15Voltage&lt; T_ads_1x15, chip &gt; Pages: 1 -->
<svg width="1416pt" height="301pt"
 viewBox="0.00 0.00 1416.00 301.00" xmlns="http://www.w3.org/2000/svg" xmlns:xlink="http://www.w3.org/1999/xlink">
<g id="graph0" class="graph" transform="scale(1 1) rotate(0) translate(4 297)">
<title>ADS1x15Voltage&lt; T_ads_1x15, chip &gt;</title>
<polygon fill="white" stroke="transparent" points="-4,4 -4,-297 1412,-297 1412,4 -4,4"/>
<!-- Node1 -->
<g id="node1" class="node">
<title>Node1</title>
<g id="a_node1"><a xlink:title="Reads the raw output of the ADS1x15 (an integer between 0 and 32,768) and converts it back into the v...">
<polygon fill="#bfbfbf" stroke="black" points="1280,-213 1280,-243 1408,-243 1408,-213 1280,-213"/>
<text text-anchor="start" x="1288" y="-231" font-family="Helvetica,sans-Serif" font-size="10.00">ADS1x15Voltage&lt; T_ads</text>
<text text-anchor="middle" x="1344" y="-220" font-family="Helvetica,sans-Serif" font-size="10.00">_1x15, chip &gt;</text>
</a>
</g>
</g>
<!-- Node2 -->
<g id="node2" class="node">
<title>Node2</title>
<g id="a_node2"><a xlink:href="class_a_d_s1x15_raw_value.html" target="_top" xlink:title="Used to read the raw output of the ADS1x15, which is an integer between 0 and 32,768....">
<polygon fill="white" stroke="black" points="801,-251 801,-281 919,-281 919,-251 801,-251"/>
<text text-anchor="start" x="809" y="-269" font-family="Helvetica,sans-Serif" font-size="10.00">ADS1x15RawValue&lt; T</text>
<text text-anchor="middle" x="860" y="-258" font-family="Helvetica,sans-Serif" font-size="10.00">_ads_1x15 &gt;</text>
</a>
</g>
</g>
<!-- Node2&#45;&gt;Node1 -->
<g id="edge1" class="edge">
<title>Node2&#45;&gt;Node1</title>
<path fill="none" stroke="midnightblue" d="M929.33,-260.61C1022.73,-253.25 1188.98,-240.14 1279.68,-232.99"/>
<polygon fill="midnightblue" stroke="midnightblue" points="928.83,-257.14 919.14,-261.42 929.38,-264.12 928.83,-257.14"/>
</g>
<!-- Node3 -->
<g id="node3" class="node">
<title>Node3</title>
<g id="a_node3"><a xlink:href="class_numeric_sensor.html" target="_top" xlink:title="A Sensor whose output is a float.">
<polygon fill="white" stroke="black" points="517.5,-273.5 517.5,-292.5 602.5,-292.5 602.5,-273.5 517.5,-273.5"/>
<text text-anchor="middle" x="560" y="-280.5" font-family="Helvetica,sans-Serif" font-size="10.00">NumericSensor</text>
</a>
</g>
</g>
<!-- Node3&#45;&gt;Node2 -->
<g id="edge2" class="edge">
<title>Node3&#45;&gt;Node2</title>
<path fill="none" stroke="midnightblue" d="M612.85,-280.04C665.32,-277.05 746.3,-272.43 800.91,-269.31"/>
<polygon fill="midnightblue" stroke="midnightblue" points="612.53,-276.55 602.75,-280.62 612.93,-283.54 612.53,-276.55"/>
</g>
<!-- Node4 -->
<g id="node4" class="node">
<title>Node4</title>
<g id="a_node4"><a xlink:href="class_sensor.html" target="_top" xlink:title="The base class for all sensors. Used only as a base class &#45; never instantiated directly in a project.">
<polygon fill="white" stroke="black" points="388,-172.5 388,-191.5 436,-191.5 436,-172.5 388,-172.5"/>
<text text-anchor="middle" x="412" y="-179.5" font-family="Helvetica,sans-Serif" font-size="10.00">Sensor</text>
</a>
</g>
</g>
<!-- Node4&#45;&gt;Node3 -->
<g id="edge3" class="edge">
<title>Node4&#45;&gt;Node3</title>
<path fill="none" stroke="midnightblue" d="M428.43,-199.28C445.56,-217.56 474.8,-246.18 505,-264 511.25,-267.69 518.32,-270.82 525.25,-273.41"/>
<polygon fill="midnightblue" stroke="midnightblue" points="430.79,-196.68 421.45,-191.69 425.64,-201.42 430.79,-196.68"/>
</g>
<!-- Node5 -->
<g id="node5" class="node">
<title>Node5</title>
<g id="a_node5"><a xlink:href="class_observable.html" target="_top" xlink:title="A base class which allow observers to attach callbacks to themselves. The callbacks will be called wh...">
<polygon fill="white" stroke="black" points="0,-197.5 0,-216.5 68,-216.5 68,-197.5 0,-197.5"/>
<text text-anchor="middle" x="34" y="-204.5" font-family="Helvetica,sans-Serif" font-size="10.00">Observable</text>
</a>
</g>
</g>
<!-- Node5&#45;&gt;Node4 -->
<g id="edge4" class="edge">
<title>Node5&#45;&gt;Node4</title>
<path fill="none" stroke="midnightblue" d="M78.25,-204.92C137.07,-201.99 245.56,-196.18 338,-189 354.63,-187.71 373.35,-185.91 387.68,-184.45"/>
<polygon fill="midnightblue" stroke="midnightblue" points="78.02,-201.43 68.21,-205.42 78.37,-208.42 78.02,-201.43"/>
</g>
<!-- Node8 -->
<g id="node8" class="node">
<title>Node8</title>
<g id="a_node8"><a xlink:href="class_value_producer.html" target="_top" xlink:title="A base class for any sensor or piece of code that outputs a value for consumption elsewhere.">
<polygon fill="white" stroke="black" points="238.5,-273.5 238.5,-292.5 332.5,-292.5 332.5,-273.5 238.5,-273.5"/>
<text text-anchor="middle" x="285.5" y="-280.5" font-family="Helvetica,sans-Serif" font-size="10.00">NumericProducer</text>
</a>
</g>
</g>
<!-- Node5&#45;&gt;Node8 -->
<g id="edge8" class="edge">
<title>Node5&#45;&gt;Node8</title>
<path fill="none" stroke="midnightblue" d="M60.79,-221.55C68.81,-225.97 77.72,-230.77 86,-235 94.32,-239.25 96.15,-240.99 105,-244 149.23,-259.06 201.62,-269.65 238.35,-275.96"/>
<polygon fill="midnightblue" stroke="midnightblue" points="62.31,-218.39 51.86,-216.59 58.91,-224.51 62.31,-218.39"/>
</g>
<!-- Node14 -->
<g id="node14" class="node">
<title>Node14</title>
<g id="a_node14"><a xlink:href="class_value_producer.html" target="_top" xlink:title=" ">
<polygon fill="white" stroke="black" points="359,-65.5 359,-84.5 465,-84.5 465,-65.5 359,-65.5"/>
<text text-anchor="middle" x="412" y="-72.5" font-family="Helvetica,sans-Serif" font-size="10.00">ValueProducer&lt; P &gt;</text>
</a>
</g>
</g>
<!-- Node5&#45;&gt;Node14 -->
<g id="edge17" class="edge">
<title>Node5&#45;&gt;Node14</title>
<path fill="none" stroke="midnightblue" d="M38.32,-187.03C44.79,-155.3 62.38,-94.25 105,-68 194.35,-12.95 327.97,-47.01 384.36,-65.45"/>
<polygon fill="midnightblue" stroke="midnightblue" points="34.8,-186.81 36.41,-197.28 41.68,-188.09 34.8,-186.81"/>
</g>
<!-- Node15 -->
<g id="node15" class="node">
<title>Node15</title>
<g id="a_node15"><a xlink:href="class_value_producer.html" target="_top" xlink:title="A base class for any sensor or piece of code that outputs a value for consumption elsewhere.">
<polygon fill="white" stroke="black" points="107.5,-77.5 107.5,-96.5 212.5,-96.5 212.5,-77.5 107.5,-77.5"/>
<text text-anchor="middle" x="160" y="-84.5" font-family="Helvetica,sans-Serif" font-size="10.00">ValueProducer&lt; T &gt;</text>
</a>
</g>
</g>
<!-- Node5&#45;&gt;Node15 -->
<g id="edge19" class="edge">
<title>Node5&#45;&gt;Node15</title>
<path fill="none" stroke="midnightblue" d="M44.29,-188.07C55.82,-166.32 77.38,-130.82 105,-109 111.51,-103.85 119.39,-99.75 127.1,-96.54"/>
<polygon fill="midnightblue" stroke="midnightblue" points="41.02,-186.77 39.58,-197.26 47.25,-189.96 41.02,-186.77"/>
</g>
<!-- Node19 -->
<g id="node19" class="node">
<title>Node19</title>
<g id="a_node19"><a xlink:href="class_value_producer.html" target="_top" xlink:title="A base class for any sensor or piece of code that outputs a value for consumption elsewhere.">
<polygon fill="white" stroke="black" points="233,-229.5 233,-248.5 338,-248.5 338,-229.5 233,-229.5"/>
<text text-anchor="middle" x="285.5" y="-236.5" font-family="Helvetica,sans-Serif" font-size="10.00">ValueProducer&lt; T &gt;</text>
</a>
</g>
</g>
<!-- Node5&#45;&gt;Node19 -->
<g id="edge25" class="edge">
<title>Node5&#45;&gt;Node19</title>
<path fill="none" stroke="midnightblue" d="M76.19,-218.97C79.49,-219.73 82.79,-220.42 86,-221 135.37,-229.94 192.5,-234.53 232.75,-236.83"/>
<polygon fill="midnightblue" stroke="midnightblue" points="76.9,-215.55 66.36,-216.55 75.23,-222.34 76.9,-215.55"/>
</g>
<!-- Node6 -->
<g id="node6" class="node">
<title>Node6</title>
<g id="a_node6"><a xlink:href="class_configurable.html" target="_top" xlink:title="An object that is capable of having configuration data that can be set remotely using a RESTful API,...">
<polygon fill="white" stroke="black" points="123.5,-158.5 123.5,-177.5 196.5,-177.5 196.5,-158.5 123.5,-158.5"/>
<text text-anchor="middle" x="160" y="-165.5" font-family="Helvetica,sans-Serif" font-size="10.00">Configurable</text>
</a>
</g>
</g>
<!-- Node6&#45;&gt;Node4 -->
<g id="edge5" class="edge">
<title>Node6&#45;&gt;Node4</title>
<path fill="none" stroke="midnightblue" d="M206.8,-170.56C260.32,-173.56 346.79,-178.4 387.88,-180.71"/>
<polygon fill="midnightblue" stroke="midnightblue" points="206.73,-167.06 196.55,-169.99 206.34,-174.04 206.73,-167.06"/>
</g>
<!-- Node11 -->
<g id="node11" class="node">
<title>Node11</title>
<g id="a_node11"><a xlink:href="class_transform_base.html" target="_top" xlink:title="The base class for all transforms. A transforms takes a value in, transforms it in some way,...">
<polygon fill="white" stroke="black" points="370,-134.5 370,-153.5 454,-153.5 454,-134.5 370,-134.5"/>
<text text-anchor="middle" x="412" y="-141.5" font-family="Helvetica,sans-Serif" font-size="10.00">TransformBase</text>
</a>
</g>
</g>
<!-- Node6&#45;&gt;Node11 -->
<g id="edge12" class="edge">
<title>Node6&#45;&gt;Node11</title>
<path fill="none" stroke="midnightblue" d="M206.67,-163.62C253.24,-159.15 324.84,-152.27 369.75,-147.96"/>
<polygon fill="midnightblue" stroke="midnightblue" points="206.17,-160.15 196.55,-164.59 206.84,-167.12 206.17,-160.15"/>
</g>
<!-- Node7 -->
<g id="node7" class="node">
<title>Node7</title>
<g id="a_node7"><a xlink:href="class_enable.html" target="_top" xlink:title="Classes that implement &quot;Enable&quot; will have their enable() method called automatically at startup when ...">
<polygon fill="white" stroke="black" points="136,-118.5 136,-137.5 184,-137.5 184,-118.5 136,-118.5"/>
<text text-anchor="middle" x="160" y="-125.5" font-family="Helvetica,sans-Serif" font-size="10.00">Enable</text>
</a>
</g>
</g>
<!-- Node7&#45;&gt;Node4 -->
<g id="edge6" class="edge">
<title>Node7&#45;&gt;Node4</title>
<path fill="none" stroke="midnightblue" d="M194.01,-135.13C245.46,-146.24 343.47,-167.41 387.98,-177.03"/>
<polygon fill="midnightblue" stroke="midnightblue" points="194.58,-131.67 184.07,-132.98 193.11,-138.52 194.58,-131.67"/>
</g>
<!-- Node7&#45;&gt;Node11 -->
<g id="edge13" class="edge">
<title>Node7&#45;&gt;Node11</title>
<path fill="none" stroke="midnightblue" d="M194.41,-122.89C230.16,-118.31 288.42,-113.37 338,-121 354.81,-123.59 373.06,-129.34 387.11,-134.44"/>
<polygon fill="midnightblue" stroke="midnightblue" points="193.51,-119.48 184.07,-124.29 194.45,-126.42 193.51,-119.48"/>
</g>
<!-- Node8&#45;&gt;Node3 -->
<g id="edge7" class="edge">
<title>Node8&#45;&gt;Node3</title>
<path fill="none" stroke="midnightblue" d="M342.79,-283C394.77,-283 470.79,-283 517.47,-283"/>
<polygon fill="midnightblue" stroke="midnightblue" points="342.73,-279.5 332.73,-283 342.73,-286.5 342.73,-279.5"/>
</g>
<!-- Node9 -->
<g id="node9" class="node">
<title>Node9</title>
<g id="a_node9"><a xlink:href="class_symmetric_transform.html" target="_top" xlink:title=" ">
<polygon fill="white" stroke="black" points="1144,-168.5 1144,-187.5 1243,-187.5 1243,-168.5 1144,-168.5"/>
<text text-anchor="middle" x="1193.5" y="-175.5" font-family="Helvetica,sans-Serif" font-size="10.00">NumericTransform</text>
</a>
</g>
</g>
<!-- Node9&#45;&gt;Node1 -->
<g id="edge9" class="edge">
<title>Node9&#45;&gt;Node1</title>
<path fill="none" stroke="midnightblue" d="M1232.49,-190.79C1252.52,-197.54 1277.22,-205.85 1298.18,-212.91"/>
<polygon fill="midnightblue" stroke="midnightblue" points="1233.38,-187.4 1222.78,-187.52 1231.14,-194.03 1233.38,-187.4"/>
</g>
<!-- Node10 -->
<g id="node10" class="node">
<title>Node10</title>
<g id="a_node10"><a xlink:href="class_transform.html" target="_top" xlink:title="The main Transform class. A transform is identified primarily by the type of value that is produces (...">
<polygon fill="white" stroke="black" points="511,-65.5 511,-84.5 609,-84.5 609,-65.5 511,-65.5"/>
<text text-anchor="middle" x="560" y="-72.5" font-family="Helvetica,sans-Serif" font-size="10.00">Transform&lt; C, P &gt;</text>
</a>
</g>
</g>
<!-- Node10&#45;&gt;Node9 -->
<g id="edge10" class="edge">
<title>Node10&#45;&gt;Node9</title>
<path fill="none" stroke="midnightblue" d="M619.27,-84.5C742.83,-104.66 1029.16,-151.36 1143.78,-170.05"/>
<polygon fill="midnightblue" stroke="midnightblue" points="619.68,-81.02 609.24,-82.87 618.55,-87.93 619.68,-81.02"/>
</g>
<!-- Node11&#45;&gt;Node10 -->
<g id="edge11" class="edge">
<title>Node11&#45;&gt;Node10</title>
<path fill="none" stroke="midnightblue" d="M442.43,-130.09C471.1,-116.54 513.89,-96.32 538.87,-84.51"/>
<polygon fill="midnightblue" stroke="midnightblue" points="440.85,-126.97 433.3,-134.41 443.84,-133.3 440.85,-126.97"/>
</g>
<!-- Node17 -->
<g id="node17" class="node">
<title>Node17</title>
<g id="a_node17"><a xlink:href="class_transform.html" target="_top" xlink:title=" ">
<polygon fill="white" stroke="black" points="688,-168.5 688,-187.5 783,-187.5 783,-168.5 688,-168.5"/>
<text text-anchor="middle" x="735.5" y="-175.5" font-family="Helvetica,sans-Serif" font-size="10.00">Transform&lt; T, T &gt;</text>
</a>
</g>
</g>
<!-- Node11&#45;&gt;Node17 -->
<g id="edge22" class="edge">
<title>Node11&#45;&gt;Node17</title>
<path fill="none" stroke="midnightblue" d="M464.32,-149.43C525.98,-155.95 628.54,-166.79 687.98,-173.08"/>
<polygon fill="midnightblue" stroke="midnightblue" points="464.36,-145.91 454.04,-148.34 463.62,-152.87 464.36,-145.91"/>
</g>
<!-- Node20 -->
<g id="node20" class="node">
<title>Node20</title>
<g id="a_node20"><a xlink:href="class_transform.html" target="_top" xlink:title="The main Transform class. A transform is identified primarily by the type of value that is produces (...">
<polygon fill="white" stroke="black" points="511,-115.5 511,-134.5 609,-134.5 609,-115.5 511,-115.5"/>
<text text-anchor="middle" x="560" y="-122.5" font-family="Helvetica,sans-Serif" font-size="10.00">Transform&lt; C, P &gt;</text>
</a>
</g>
</g>
<!-- Node11&#45;&gt;Node20 -->
<g id="edge27" class="edge">
<title>Node11&#45;&gt;Node20</title>
<path fill="none" stroke="midnightblue" d="M464.26,-137.33C479.37,-135.36 495.85,-133.22 510.76,-131.28"/>
<polygon fill="midnightblue" stroke="midnightblue" points="463.52,-133.9 454.06,-138.66 464.43,-140.84 463.52,-133.9"/>
</g>
<!-- Node12 -->
<g id="node12" class="node">
<title>Node12</title>
<g id="a_node12"><a xlink:href="class_value_consumer.html" target="_top" xlink:title=" ">
<polygon fill="white" stroke="black" points="356,-9.5 356,-28.5 468,-28.5 468,-9.5 356,-9.5"/>
<text text-anchor="middle" x="412" y="-16.5" font-family="Helvetica,sans-Serif" font-size="10.00">ValueConsumer&lt; C &gt;</text>
</a>
</g>
</g>
<!-- Node12&#45;&gt;Node10 -->
<g id="edge14" class="edge">
<title>Node12&#45;&gt;Node10</title>
<path fill="none" stroke="midnightblue" d="M478.03,-29.98C481.09,-30.91 484.09,-31.91 487,-33 508.96,-41.2 531.96,-55.84 545.89,-65.49"/>
<polygon fill="midnightblue" stroke="midnightblue" points="478.7,-26.53 468.13,-27.26 476.85,-33.28 478.7,-26.53"/>
</g>
<!-- Node12&#45;&gt;Node20 -->
<g id="edge28" class="edge">
<title>Node12&#45;&gt;Node20</title>
<path fill="none" stroke="midnightblue" d="M437.55,-33.96C447.35,-40.32 458.53,-48.1 468,-56 486.1,-71.1 486.38,-79.55 505,-94 515.68,-102.28 528.8,-109.87 539.44,-115.46"/>
<polygon fill="midnightblue" stroke="midnightblue" points="439.34,-30.95 429.02,-28.55 435.59,-36.86 439.34,-30.95"/>
</g>
<!-- Node13 -->
<g id="node13" class="node">
<title>Node13</title>
<g id="a_node13"><a xlink:href="class_value_consumer.html" target="_top" xlink:title="A base class for piece of code (like a transform) that accepts data for input. ValueConsumers can acc...">
<polygon fill="white" stroke="black" points="105,-0.5 105,-19.5 215,-19.5 215,-0.5 105,-0.5"/>
<text text-anchor="middle" x="160" y="-7.5" font-family="Helvetica,sans-Serif" font-size="10.00">ValueConsumer&lt; T &gt;</text>
</a>
</g>
</g>
<!-- Node13&#45;&gt;Node12 -->
<g id="edge15" class="edge">
<title>Node13&#45;&gt;Node12</title>
<path fill="none" stroke="orange" stroke-dasharray="5,2" d="M225.28,-12.31C265.75,-13.77 317.43,-15.63 356,-17.02"/>
<polygon fill="orange" stroke="orange" points="225.37,-8.81 215.25,-11.95 225.11,-15.81 225.37,-8.81"/>
<text text-anchor="middle" x="285.5" y="-20" font-family="Helvetica,sans-Serif" font-size="10.00"> &lt; C &gt;</text>
</g>
<!-- Node14&#45;&gt;Node10 -->
<g id="edge16" class="edge">
<title>Node14&#45;&gt;Node10</title>
<path fill="none" stroke="midnightblue" d="M475.58,-75C487.43,-75 499.65,-75 510.96,-75"/>
<polygon fill="midnightblue" stroke="midnightblue" points="475.3,-71.5 465.3,-75 475.3,-78.5 475.3,-71.5"/>
</g>
<!-- Node14&#45;&gt;Node20 -->
<g id="edge29" class="edge">
<title>Node14&#45;&gt;Node20</title>
<path fill="none" stroke="midnightblue" d="M450.35,-87.79C475.41,-96.37 507.9,-107.5 530.8,-115.34"/>
<polygon fill="midnightblue" stroke="midnightblue" points="451.4,-84.45 440.81,-84.52 449.13,-91.07 451.4,-84.45"/>
</g>
<!-- Node15&#45;&gt;Node14 -->
<g id="edge18" class="edge">
<title>Node15&#45;&gt;Node14</title>
<path fill="none" stroke="orange" stroke-dasharray="5,2" d="M222.53,-82.6C226.07,-82.39 229.58,-82.19 233,-82 275.31,-79.7 323.31,-77.86 358.8,-76.64"/>
<polygon fill="orange" stroke="orange" points="222.27,-79.11 212.51,-83.23 222.71,-86.1 222.27,-79.11"/>
<text text-anchor="middle" x="285.5" y="-85" font-family="Helvetica,sans-Serif" font-size="10.00"> &lt; P &gt;</text>
</g>
<!-- Node16 -->
<g id="node16" class="node">
<title>Node16</title>
<g id="a_node16"><a xlink:href="class_symmetric_transform.html" target="_top" xlink:title="A common type of transform that consumes, transforms, then outputs values of the same data type.">
<polygon fill="white" stroke="black" points="937,-168.5 937,-187.5 1069,-187.5 1069,-168.5 937,-168.5"/>
<text text-anchor="middle" x="1003" y="-175.5" font-family="Helvetica,sans-Serif" font-size="10.00">SymmetricTransform&lt; T &gt;</text>
</a>
</g>
</g>
<!-- Node16&#45;&gt;Node9 -->
<g id="edge20" class="edge">
<title>Node16&#45;&gt;Node9</title>
<path fill="none" stroke="orange" stroke-dasharray="5,2" d="M1079.32,-178C1101.01,-178 1124.1,-178 1143.73,-178"/>
<polygon fill="orange" stroke="orange" points="1079.13,-174.5 1069.13,-178 1079.13,-181.5 1079.13,-174.5"/>
<text text-anchor="middle" x="1106.5" y="-181" font-family="Helvetica,sans-Serif" font-size="10.00"> &lt; float &gt;</text>
</g>
<!-- Node17&#45;&gt;Node16 -->
<g id="edge21" class="edge">
<title>Node17&#45;&gt;Node16</title>
<path fill="none" stroke="midnightblue" d="M793.12,-178C835.14,-178 892.55,-178 936.54,-178"/>
<polygon fill="midnightblue" stroke="midnightblue" points="793.05,-174.5 783.05,-178 793.05,-181.5 793.05,-174.5"/>
</g>
<!-- Node18 -->
<g id="node18" class="node">
<title>Node18</title>
<g id="a_node18"><a xlink:href="class_value_consumer.html" target="_top" xlink:title="A base class for piece of code (like a transform) that accepts data for input. ValueConsumers can acc...">
<polygon fill="white" stroke="black" points="505,-235.5 505,-254.5 615,-254.5 615,-235.5 505,-235.5"/>
<text text-anchor="middle" x="560" y="-242.5" font-family="Helvetica,sans-Serif" font-size="10.00">ValueConsumer&lt; T &gt;</text>
</a>
</g>
</g>
<!-- Node18&#45;&gt;Node17 -->
<g id="edge23" class="edge">
<title>Node18&#45;&gt;Node17</title>
<path fill="none" stroke="midnightblue" d="M624.97,-235.06C640.08,-231.59 655.89,-227.01 670,-221 690.06,-212.46 710.56,-197.51 722.91,-187.68"/>
<polygon fill="midnightblue" stroke="midnightblue" points="624.21,-231.65 615.18,-237.19 625.69,-238.49 624.21,-231.65"/>
</g>
<!-- Node19&#45;&gt;Node17 -->
<g id="edge24" class="edge">
<title>Node19&#45;&gt;Node17</title>
<path fill="none" stroke="midnightblue" d="M348.48,-230.56C439.34,-218.19 606.67,-195.41 687.87,-184.35"/>
<polygon fill="midnightblue" stroke="midnightblue" points="347.77,-227.13 338.33,-231.94 348.71,-234.06 347.77,-227.13"/>
</g>
<!-- Node20&#45;&gt;Node17 -->
<g id="edge26" class="edge">
<title>Node20&#45;&gt;Node17</title>
<path fill="none" stroke="orange" stroke-dasharray="5,2" d="M619.2,-131.7C635.87,-134.54 653.89,-138.5 670,-144 687.97,-150.13 707.03,-160.75 719.73,-168.49"/>
<polygon fill="orange" stroke="orange" points="619.45,-128.19 609.02,-130.07 618.35,-135.1 619.45,-128.19"/>
<text text-anchor="middle" x="651.5" y="-147" font-family="Helvetica,sans-Serif" font-size="10.00"> &lt; T, T &gt;</text>
</g>
</g>
</svg>
