<?xml version="1.0" encoding="UTF-8" standalone="no"?>
<!DOCTYPE svg PUBLIC "-//W3C//DTD SVG 1.1//EN"
 "http://www.w3.org/Graphics/SVG/1.1/DTD/svg11.dtd">
<!-- Generated by graphviz version 12.1.0 (20240811.2233)
 -->
<!-- Title: sensesp::MinimalButtonHandler::handleEvent Pages: 1 -->
<!--zoomable 137 -->

<svg id="main" version="1.1" xmlns="http://www.w3.org/2000/svg" xmlns:xlink="http://www.w3.org/1999/xlink" xml:space="preserve" onload="init(evt)">

<style type="text/css"><![CDATA[
.node, .edge {opacity: 0.7;}
.node.selected, .edge.selected {opacity: 1;}
.edge:hover path { stroke: red; }
.edge:hover polygon { stroke: red; fill: red; }
]]></style>

<defs>
  <circle id="rim" cx="0" cy="0" r="7"/>
  <circle id="rim2" cx="0" cy="0" r="3.5"/>
  <g id="zoomPlus">
    <use xlink:href="#rim" fill="#404040"><set attributeName="fill" to="#808080" begin="zoomplus.mouseover" end="zoomplus.mouseout"/></use>
    <path d="M-4,0h8M0,-4v8" fill="none" stroke="white" stroke-width="1.5" pointer-events="none"/>
  </g>
  <g id="zoomMin">
    <use xlink:href="#rim" fill="#404040"><set attributeName="fill" to="#808080" begin="zoomminus.mouseover" end="zoomminus.mouseout"/></use>
    <path d="M-4,0h8" fill="none" stroke="white" stroke-width="1.5" pointer-events="none"/>
  </g>
  <g id="arrowUp" transform="translate(30 24)">
    <use xlink:href="#rim"/>
    <path pointer-events="none" fill="none" stroke="white" stroke-width="1.5" d="M0,-3.0v7 M-2.5,-0.5L0,-3.0L2.5,-0.5"/>
  </g>
  <g id="arrowRight" transform="rotate(90) translate(36 -43)">
    <use xlink:href="#rim"/>
    <path pointer-events="none" fill="none" stroke="white" stroke-width="1.5" d="M0,-3.0v7 M-2.5,-0.5L0,-3.0L2.5,-0.5"/>
  </g>
  <g id="arrowDown" transform="rotate(180) translate(-30 -48)">
    <use xlink:href="#rim"/>
    <path pointer-events="none" fill="none" stroke="white" stroke-width="1.5" d="M0,-3.0v7 M-2.5,-0.5L0,-3.0L2.5,-0.5"/>
  </g>
  <g id="arrowLeft" transform="rotate(270) translate(-36 17)">
    <use xlink:href="#rim"/>
    <path pointer-events="none" fill="none" stroke="white" stroke-width="1.5" d="M0,-3.0v7 M-2.5,-0.5L0,-3.0L2.5,-0.5"/>
  </g>
  <g id="resetDef">
    <use xlink:href="#rim2" fill="#404040"><set attributeName="fill" to="#808080" begin="reset.mouseover" end="reset.mouseout"/></use>
  </g>
</defs>
<script type="application/ecmascript">
var viewWidth = 692;
var viewHeight = 137;
var sectionId = 'dynsection-6';
</script>
<script type="application/ecmascript" xlink:href="svg.min.js"/>
<svg id="graph" class="graph">
<g id="viewport">
<title>sensesp::MinimalButtonHandler::handleEvent</title>
<!-- Node1 -->
<g id="Node000001" class="node">
<title>Node1</title>
<g id="a_Node000001"><a xlink:title=" ">
<polygon fill="#999999" stroke="#666666" points="154.75,-97.5 0,-97.5 0,-67 154.75,-67 154.75,-97.5"/>
<text text-anchor="start" x="8" y="-84" font-family="Helvetica,sans-Serif" font-size="10.00">sensesp::MinimalButtonHandler</text>
<text text-anchor="middle" x="77.38" y="-72.75" font-family="Helvetica,sans-Serif" font-size="10.00">::handleEvent</text>
</a>
</g>
</g>
<!-- Node2 -->
<g id="Node000002" class="node">
<title>Node2</title>
<g id="a_Node000002"><a xlink:href="classsensesp_1_1_minimal_button_handler.html#af5c9d85beb27eafdec92b2156a14b053" target="_top" xlink:title="Handle a brief button press (less than one second).">
<polygon fill="white" stroke="#666666" points="539.25,-128.5 384.5,-128.5 384.5,-98 539.25,-98 539.25,-128.5"/>
<text text-anchor="start" x="392.5" y="-115" font-family="Helvetica,sans-Serif" font-size="10.00">sensesp::MinimalButtonHandler</text>
<text text-anchor="middle" x="461.88" y="-103.75" font-family="Helvetica,sans-Serif" font-size="10.00">::handle_button_press</text>
</a>
</g>
</g>
<!-- Node1&#45;&gt;Node2 -->
<g id="edge1_Node000001_Node000002" class="edge">
<title>Node1&#45;&gt;Node2</title>
<g id="a_edge1_Node000001_Node000002"><a xlink:title=" ">
<path fill="none" stroke="#63b8ff" d="M141.92,-97.95C157.77,-101.28 174.8,-104.36 190.75,-106.25 251.19,-113.42 319.74,-115.13 372.66,-115.06"/>
<polygon fill="#63b8ff" stroke="#63b8ff" points="372.55,-118.56 382.54,-115.02 372.52,-111.56 372.55,-118.56"/>
</a>
</g>
</g>
<!-- Node3 -->
<g id="Node000003" class="node">
<title>Node3</title>
<g id="a_Node000003"><a xlink:href="classsensesp_1_1_minimal_button_handler.html#a07649aaa592687bf86585aa53da26f67" target="_top" xlink:title="Handle a long button press (over 1 second).">
<polygon fill="white" stroke="#666666" points="345.5,-97.5 190.75,-97.5 190.75,-67 345.5,-67 345.5,-97.5"/>
<text text-anchor="start" x="198.75" y="-84" font-family="Helvetica,sans-Serif" font-size="10.00">sensesp::MinimalButtonHandler</text>
<text text-anchor="middle" x="268.12" y="-72.75" font-family="Helvetica,sans-Serif" font-size="10.00">::handle_long_press</text>
</a>
</g>
</g>
<!-- Node1&#45;&gt;Node3 -->
<g id="edge2_Node000001_Node000003" class="edge">
<title>Node1&#45;&gt;Node3</title>
<g id="a_edge2_Node000001_Node000003"><a xlink:title=" ">
<path fill="none" stroke="#63b8ff" d="M155.15,-82.25C163.06,-82.25 171.13,-82.25 179.15,-82.25"/>
<polygon fill="#63b8ff" stroke="#63b8ff" points="178.91,-85.75 188.91,-82.25 178.91,-78.75 178.91,-85.75"/>
</a>
</g>
</g>
<!-- Node4 -->
<g id="Node000004" class="node">
<title>Node4</title>
<g id="a_Node000004"><a xlink:href="classsensesp_1_1_minimal_button_handler.html#ae0765a640028979faa385b57ba6374df" target="_top" xlink:title="Handle a very long button press (over 5 seconds).">
<polygon fill="white" stroke="#666666" points="345.5,-48.5 190.75,-48.5 190.75,-18 345.5,-18 345.5,-48.5"/>
<text text-anchor="start" x="198.75" y="-35" font-family="Helvetica,sans-Serif" font-size="10.00">sensesp::MinimalButtonHandler</text>
<text text-anchor="middle" x="268.12" y="-23.75" font-family="Helvetica,sans-Serif" font-size="10.00">::handle_very_long_press</text>
</a>
</g>
</g>
<!-- Node1&#45;&gt;Node4 -->
<g id="edge4_Node000001_Node000004" class="edge">
<title>Node1&#45;&gt;Node4</title>
<g id="a_edge4_Node000001_Node000004"><a xlink:title=" ">
<path fill="none" stroke="#63b8ff" d="M138.88,-66.54C156.91,-61.86 176.84,-56.69 195.52,-51.84"/>
<polygon fill="#63b8ff" stroke="#63b8ff" points="196.38,-55.23 205.18,-49.33 194.62,-48.46 196.38,-55.23"/>
</a>
</g>
</g>
<!-- Node3&#45;&gt;Node2 -->
<g id="edge3_Node000003_Node000002" class="edge">
<title>Node3&#45;&gt;Node2</title>
<g id="a_edge3_Node000003_Node000002"><a xlink:title=" ">
<path fill="none" stroke="#63b8ff" d="M345.74,-94.64C354.61,-96.07 363.72,-97.54 372.73,-99"/>
<polygon fill="#63b8ff" stroke="#63b8ff" points="372.15,-102.45 382.58,-100.59 373.27,-95.54 372.15,-102.45"/>
</a>
</g>
</g>
<!-- Node5 -->
<g id="Node000005" class="node">
<title>Node5</title>
<g id="a_Node000005"><a xlink:href="classsensesp_1_1_sens_e_s_p_base_app.html#a2df22469c69a8a1234ab673386f574d6" target="_top" xlink:title="Get the singleton instance of the SensESPBaseApp.">
<polygon fill="white" stroke="#666666" points="542.25,-67.88 381.5,-67.88 381.5,-48.62 542.25,-48.62 542.25,-67.88"/>
<text text-anchor="middle" x="461.88" y="-54.38" font-family="Helvetica,sans-Serif" font-size="10.00">sensesp::SensESPBaseApp::get</text>
</a>
</g>
</g>
<!-- Node4&#45;&gt;Node5 -->
<g id="edge5_Node000004_Node000005" class="edge">
<title>Node4&#45;&gt;Node5</title>
<g id="a_edge5_Node000004_Node000005"><a xlink:title=" ">
<path fill="none" stroke="#63b8ff" d="M345.74,-43.24C354.46,-44.38 363.42,-45.54 372.28,-46.7"/>
<polygon fill="#63b8ff" stroke="#63b8ff" points="371.58,-50.14 381.95,-47.96 372.48,-43.2 371.58,-50.14"/>
</a>
</g>
</g>
<!-- Node6 -->
<g id="Node000006" class="node">
<title>Node6</title>
<g id="a_Node000006"><a xlink:href="classsensesp_1_1_sens_e_s_p_base_app.html#a42d3c5c9ed56c0a0a925fac4e49dd659" target="_top" xlink:title="Reset the device to factory defaults.">
<polygon fill="white" stroke="#666666" points="532.5,-30.5 391.25,-30.5 391.25,0 532.5,0 532.5,-30.5"/>
<text text-anchor="start" x="399.25" y="-17" font-family="Helvetica,sans-Serif" font-size="10.00">sensesp::SensESPBaseApp</text>
<text text-anchor="middle" x="461.88" y="-5.75" font-family="Helvetica,sans-Serif" font-size="10.00">::reset</text>
</a>
</g>
</g>
<!-- Node4&#45;&gt;Node6 -->
<g id="edge6_Node000004_Node000006" class="edge">
<title>Node4&#45;&gt;Node6</title>
<g id="a_edge6_Node000004_Node000006"><a xlink:title=" ">
<path fill="none" stroke="#63b8ff" d="M345.74,-26.06C356.92,-25.01 368.48,-23.92 379.75,-22.87"/>
<polygon fill="#63b8ff" stroke="#63b8ff" points="379.77,-26.38 389.4,-21.96 379.12,-19.41 379.77,-26.38"/>
</a>
</g>
</g>
<!-- Node7 -->
<g id="Node000007" class="node">
<title>Node7</title>
<g id="a_Node000007"><a xlink:href="classsensesp_1_1_resettable.html#a062ebaddf82e34977e6bb38175a86310" target="_top" xlink:title=" ">
<polygon fill="white" stroke="#666666" points="684.25,-30.5 578.25,-30.5 578.25,0 684.25,0 684.25,-30.5"/>
<text text-anchor="start" x="586.25" y="-17" font-family="Helvetica,sans-Serif" font-size="10.00">sensesp::Resettable</text>
<text text-anchor="middle" x="631.25" y="-5.75" font-family="Helvetica,sans-Serif" font-size="10.00">::reset_all</text>
</a>
</g>
</g>
<!-- Node6&#45;&gt;Node7 -->
<g id="edge7_Node000006_Node000007" class="edge">
<title>Node6&#45;&gt;Node7</title>
<g id="a_edge7_Node000006_Node000007"><a xlink:title=" ">
<path fill="none" stroke="#63b8ff" d="M532.89,-15.25C544.06,-15.25 555.56,-15.25 566.57,-15.25"/>
<polygon fill="#63b8ff" stroke="#63b8ff" points="566.32,-18.75 576.32,-15.25 566.32,-11.75 566.32,-18.75"/>
</a>
</g>
</g>
</g>
</svg>

<g id="navigator" transform="translate(0 0)" fill="#404254">
  <rect fill="#f2f5e9" fill-opacity="0.5" stroke="#606060" stroke-width=".5" x="0" y="0" width="60" height="60"/>
  <use id="zoomplus" xlink:href="#zoomPlus" x="17" y="9" onmousedown="handleZoom(evt,'in')"/>
  <use id="zoomminus" xlink:href="#zoomMin" x="42" y="9" onmousedown="handleZoom(evt,'out')"/>
  <use id="reset" xlink:href="#resetDef" x="30" y="36" onmousedown="handleReset()"/>
   <use id="arrowup" xlink:href="#arrowUp" x="0" y="0" onmousedown="handlePan(0,-1)"/>
  <use id="arrowright" xlink:href="#arrowRight" x="0" y="0" onmousedown="handlePan(1,0)"/>
  <use id="arrowdown" xlink:href="#arrowDown" x="0" y="0" onmousedown="handlePan(0,1)"/>
  <use id="arrowleft" xlink:href="#arrowLeft" x="0" y="0" onmousedown="handlePan(-1,0)"/>
</g>
<svg viewBox="0 0 15 15" width="100%" height="30px" preserveAspectRatio="xMaxYMin meet">
 <g id="arrow_out" transform="scale(0.3 0.3)">
  <a xlink:href="classsensesp_1_1_minimal_button_handler_aaabccc6e10fbfa51d7c34f95c93c847f_cgraph_org.svg" target="_base">
   <rect id="button" ry="5" rx="5" y="6" x="6" height="38" width="38"
        fill="#f2f5e9" fill-opacity="0.5" stroke="#606060" stroke-width="1.0"/>
   <path id="arrow"
     d="M 11.500037,31.436501 C 11.940474,20.09759 22.043105,11.32322 32.158766,21.979434 L 37.068811,17.246167 C 37.068811,17.246167 37.088388,32 37.088388,32 L 22.160133,31.978069 C 22.160133,31.978069 26.997745,27.140456 26.997745,27.140456 C 18.528582,18.264221 13.291696,25.230495 11.500037,31.436501 z"
     style="fill:#404040;"/>
  </a>
 </g>
</svg>

<style type='text/css'>
<![CDATA[
[data-mouse-over-selected='false'] { opacity: 0.7; }
[data-mouse-over-selected='true']  { opacity: 1.0; }
]]>
</style>
<script type="application/ecmascript"><![CDATA[
document.addEventListener('DOMContentLoaded', (event) => {
  highlightEdges();
  highlightAdjacentNodes();
});
]]></script>
</svg>
