<?xml version="1.0" encoding="UTF-8" standalone="no"?>
<!DOCTYPE svg PUBLIC "-//W3C//DTD SVG 1.1//EN"
 "http://www.w3.org/Graphics/SVG/1.1/DTD/svg11.dtd">
<!-- Generated by graphviz version 2.44.1 (20200629.0846)
 -->
<!-- Title: SKRequest::get_request Pages: 1 -->
<!--zoomable 102 -->
<svg id="main" version="1.1" xmlns="http://www.w3.org/2000/svg" xmlns:xlink="http://www.w3.org/1999/xlink" xml:space="preserve" onload="init(evt)">
<style type="text/css"><![CDATA[
.edge:hover path { stroke: red; }
.edge:hover polygon { stroke: red; fill: red; }
]]></style>
<script type="text/javascript"><![CDATA[
var edges = document.getElementsByTagName('g');
if (edges && edges.length) {
  for (var i=0;i<edges.length;i++) {
    if (edges[i].id.substr(0,4)=='edge') {
      edges[i].setAttribute('class','edge');
    }
  }
}
]]></script>
        <defs>
                <circle id="rim" cx="0" cy="0" r="7"/>
                <circle id="rim2" cx="0" cy="0" r="3.5"/>
                <g id="zoomPlus">
                        <use xlink:href="#rim" fill="#404040">
                                <set attributeName="fill" to="#808080" begin="zoomplus.mouseover" end="zoomplus.mouseout"/>
                        </use>
                        <path d="M-4,0h8M0,-4v8" fill="none" stroke="white" stroke-width="1.5" pointer-events="none"/>
                </g>
                <g id="zoomMin">
                        <use xlink:href="#rim" fill="#404040">
                                <set attributeName="fill" to="#808080" begin="zoomminus.mouseover" end="zoomminus.mouseout"/>
                        </use>
                        <path d="M-4,0h8" fill="none" stroke="white" stroke-width="1.5" pointer-events="none"/>
                </g>
                <g id="dirArrow">
                        <path fill="none" stroke="white" stroke-width="1.5" d="M0,-3.0v7 M-2.5,-0.5L0,-3.0L2.5,-0.5"/>
                </g>
               <g id="resetDef">
                       <use xlink:href="#rim2" fill="#404040">
                               <set attributeName="fill" to="#808080" begin="reset.mouseover" end="reset.mouseout"/>
                       </use>
               </g>
        </defs>

<script type="text/javascript">
var viewWidth = 793;
var viewHeight = 102;
var sectionId = 'dynsection-1';
</script>
<script xlink:href="svgpan.js"/>
<svg id="graph" class="graph">
<g id="viewport">
<title>SKRequest::get_request</title>
<polygon fill="white" stroke="transparent" points="-4,4 -4,-98 789,-98 789,4 -4,4"/>
<!-- Node1 -->
<g id="node1" class="node">
<title>Node1</title>
<g id="a_node1"><a xlink:title=" ">
<polygon fill="#bfbfbf" stroke="black" points="661,-50 661,-69 785,-69 785,-50 661,-50"/>
<text text-anchor="middle" x="723" y="-57" font-family="Helvetica,sans-Serif" font-size="10.00">SKRequest::get_request</text>
</a>
</g>
</g>
<!-- Node2 -->
<g id="node2" class="node">
<title>Node2</title>
<g id="a_node2"><a xlink:href="class_s_k_request.html#a8f7cf1cb7b984e069acab0053b3d8470" target="_top" xlink:title=" ">
<polygon fill="white" stroke="black" points="300,-69 300,-88 446,-88 446,-69 300,-69"/>
<text text-anchor="middle" x="373" y="-76" font-family="Helvetica,sans-Serif" font-size="10.00">SKRequest::handle_response</text>
</a>
</g>
</g>
<!-- Node1&#45;&gt;Node2 -->
<g id="edge1" class="edge">
<title>Node1&#45;&gt;Node2</title>
<path fill="none" stroke="midnightblue" d="M672.43,-71.13C657.29,-74.16 640.54,-76.99 625,-78.5 564.93,-84.33 496.39,-83.85 446.13,-82.18"/>
<polygon fill="midnightblue" stroke="midnightblue" points="673.53,-74.47 682.61,-69.01 672.11,-67.62 673.53,-74.47"/>
</g>
<!-- Node5 -->
<g id="node5" class="node">
<title>Node5</title>
<g id="a_node5"><a xlink:href="class_s_k_request.html#a352a0cb6824802651e8cf58b286af81c" target="_top" xlink:title=" ">
<polygon fill="white" stroke="black" points="482,-50 482,-69 625,-69 625,-50 482,-50"/>
<text text-anchor="middle" x="553.5" y="-57" font-family="Helvetica,sans-Serif" font-size="10.00">SKRequest::remove_request</text>
</a>
</g>
</g>
<!-- Node1&#45;&gt;Node5 -->
<g id="edge4" class="edge">
<title>Node1&#45;&gt;Node5</title>
<path fill="none" stroke="midnightblue" d="M650.49,-59.5C642.14,-59.5 633.61,-59.5 625.27,-59.5"/>
<polygon fill="midnightblue" stroke="midnightblue" points="650.58,-63 660.58,-59.5 650.58,-56 650.58,-63"/>
</g>
<!-- Node6 -->
<g id="node6" class="node">
<title>Node6</title>
<g id="a_node6"><a xlink:href="class_s_k_put_request_base.html#a767ea4f2107526f914fe8ebfe936b17b" target="_top" xlink:title=" ">
<polygon fill="white" stroke="black" points="482,-0.5 482,-30.5 625,-30.5 625,-0.5 482,-0.5"/>
<text text-anchor="start" x="490" y="-18.5" font-family="Helvetica,sans-Serif" font-size="10.00">SKPutRequestBase::request</text>
<text text-anchor="middle" x="553.5" y="-7.5" font-family="Helvetica,sans-Serif" font-size="10.00">_pending</text>
</a>
</g>
</g>
<!-- Node1&#45;&gt;Node6 -->
<g id="edge6" class="edge">
<title>Node1&#45;&gt;Node6</title>
<path fill="none" stroke="midnightblue" d="M675.95,-47.4C656.14,-42.2 632.77,-36.06 611.85,-30.57"/>
<polygon fill="midnightblue" stroke="midnightblue" points="675.09,-50.8 685.65,-49.95 676.87,-44.03 675.09,-50.8"/>
</g>
<!-- Node3 -->
<g id="node3" class="node">
<title>Node3</title>
<g id="a_node3"><a xlink:href="class_w_s_client.html#a2b235f3e62668b6e7923cbbcba00e5c1" target="_top" xlink:title=" ">
<polygon fill="white" stroke="black" points="152,-63.5 152,-93.5 264,-93.5 264,-63.5 152,-63.5"/>
<text text-anchor="start" x="160" y="-81.5" font-family="Helvetica,sans-Serif" font-size="10.00">WSClient::on_receive</text>
<text text-anchor="middle" x="208" y="-70.5" font-family="Helvetica,sans-Serif" font-size="10.00">_delta</text>
</a>
</g>
</g>
<!-- Node2&#45;&gt;Node3 -->
<g id="edge2" class="edge">
<title>Node2&#45;&gt;Node3</title>
<path fill="none" stroke="midnightblue" d="M289.47,-78.5C280.87,-78.5 272.28,-78.5 264.1,-78.5"/>
<polygon fill="midnightblue" stroke="midnightblue" points="289.56,-82 299.56,-78.5 289.56,-75 289.56,-82"/>
</g>
<!-- Node4 -->
<g id="node4" class="node">
<title>Node4</title>
<g id="a_node4"><a xlink:href="ws__client_8cpp.html#a5e74f160471b58a262cceef5edaea7e0" target="_top" xlink:title=" ">
<polygon fill="white" stroke="black" points="0,-69 0,-88 116,-88 116,-69 0,-69"/>
<text text-anchor="middle" x="58" y="-76" font-family="Helvetica,sans-Serif" font-size="10.00">webSocketClientEvent</text>
</a>
</g>
</g>
<!-- Node3&#45;&gt;Node4 -->
<g id="edge3" class="edge">
<title>Node3&#45;&gt;Node4</title>
<path fill="none" stroke="midnightblue" d="M141.63,-78.5C133.13,-78.5 124.48,-78.5 116.13,-78.5"/>
<polygon fill="midnightblue" stroke="midnightblue" points="141.89,-82 151.89,-78.5 141.89,-75 141.89,-82"/>
</g>
<!-- Node5&#45;&gt;Node2 -->
<g id="edge5" class="edge">
<title>Node5&#45;&gt;Node2</title>
<path fill="none" stroke="midnightblue" d="M471.91,-68.08C463.3,-68.99 454.59,-69.92 446.08,-70.83"/>
<polygon fill="midnightblue" stroke="midnightblue" points="472.38,-71.55 481.95,-67.01 471.64,-64.59 472.38,-71.55"/>
</g>
<!-- Node7 -->
<g id="node7" class="node">
<title>Node7</title>
<g id="a_node7"><a xlink:href="class_s_k_put_request.html#afb74f2fdedd11451b1bc4b38a01b080e" target="_top" xlink:title=" ">
<polygon fill="white" stroke="black" points="309,-6 309,-25 437,-25 437,-6 309,-6"/>
<text text-anchor="middle" x="373" y="-13" font-family="Helvetica,sans-Serif" font-size="10.00">SKPutRequest::set_input</text>
</a>
</g>
</g>
<!-- Node6&#45;&gt;Node7 -->
<g id="edge7" class="edge">
<title>Node6&#45;&gt;Node7</title>
<path fill="none" stroke="midnightblue" d="M471.79,-15.5C460.15,-15.5 448.32,-15.5 437.09,-15.5"/>
<polygon fill="midnightblue" stroke="midnightblue" points="471.95,-19 481.95,-15.5 471.95,-12 471.95,-19"/>
</g>
</g>
</svg>
        <g id="navigator" transform="translate(0 0)" fill="#404254">
                <rect fill="#f2f5e9" fill-opacity="0.5" stroke="#606060" stroke-width=".5" x="0" y="0" width="60" height="60"/>
                <use id="zoomplus" xlink:href="#zoomPlus" x="17" y="9" onmousedown="handleZoom(evt,'in')"/>
                <use id="zoomminus" xlink:href="#zoomMin" x="42" y="9" onmousedown="handleZoom(evt,'out')"/>
                <use id="reset" xlink:href="#resetDef" x="30" y="36" onmousedown="handleReset()"/>
                <g id="arrowUp" xlink:href="#dirArrow" transform="translate(30 24)" onmousedown="handlePan(0,-1)">
                  <use xlink:href="#rim" fill="#404040">
                        <set attributeName="fill" to="#808080" begin="arrowUp.mouseover" end="arrowUp.mouseout"/>
                  </use>
                  <path fill="none" stroke="white" stroke-width="1.5" d="M0,-3.0v7 M-2.5,-0.5L0,-3.0L2.5,-0.5"/>
                </g>
                <g id="arrowRight" xlink:href="#dirArrow" transform="rotate(90) translate(36 -43)" onmousedown="handlePan(1,0)">
                  <use xlink:href="#rim" fill="#404040">
                        <set attributeName="fill" to="#808080" begin="arrowRight.mouseover" end="arrowRight.mouseout"/>
                  </use>
                  <path fill="none" stroke="white" stroke-width="1.5" d="M0,-3.0v7 M-2.5,-0.5L0,-3.0L2.5,-0.5"/>
                </g>
                <g id="arrowDown" xlink:href="#dirArrow" transform="rotate(180) translate(-30 -48)" onmousedown="handlePan(0,1)">
                  <use xlink:href="#rim" fill="#404040">
                        <set attributeName="fill" to="#808080" begin="arrowDown.mouseover" end="arrowDown.mouseout"/>
                  </use>
                  <path fill="none" stroke="white" stroke-width="1.5" d="M0,-3.0v7 M-2.5,-0.5L0,-3.0L2.5,-0.5"/>
                </g>
                <g id="arrowLeft" xlink:href="#dirArrow" transform="rotate(270) translate(-36 17)" onmousedown="handlePan(-1,0)">
                  <use xlink:href="#rim" fill="#404040">
                        <set attributeName="fill" to="#808080" begin="arrowLeft.mouseover" end="arrowLeft.mouseout"/>
                  </use>
                  <path fill="none" stroke="white" stroke-width="1.5" d="M0,-3.0v7 M-2.5,-0.5L0,-3.0L2.5,-0.5"/>
                </g>
        </g>
        <svg viewBox="0 0 15 15" width="100%" height="30px" preserveAspectRatio="xMaxYMin meet">
         <g id="arrow_out" transform="scale(0.3 0.3)">
          <a xlink:href="class_s_k_request_a2f0d2fcebb029920e8cc33e7a7b5da66_icgraph_org.svg" target="_base">
           <rect id="button" ry="5" rx="5" y="6" x="6" height="38" width="38"
                fill="#f2f5e9" fill-opacity="0.5" stroke="#606060" stroke-width="1.0"/>
           <path id="arrow"
             d="M 11.500037,31.436501 C 11.940474,20.09759 22.043105,11.32322 32.158766,21.979434 L 37.068811,17.246167 C 37.068811,17.246167 37.088388,32 37.088388,32 L 22.160133,31.978069 C 22.160133,31.978069 26.997745,27.140456 26.997745,27.140456 C 18.528582,18.264221 13.291696,25.230495 11.500037,31.436501 z"
             style="fill:#404040;"/>
          </a>
         </g>
        </svg>
</svg>
