<?xml version="1.0" encoding="UTF-8" standalone="no"?>
<!DOCTYPE svg PUBLIC "-//W3C//DTD SVG 1.1//EN"
 "http://www.w3.org/Graphics/SVG/1.1/DTD/svg11.dtd">
<!-- Generated by graphviz version 9.0.0 (20230911.1827)
 -->
<!-- Title: sensesp::SensESPApp::SensESPApp Pages: 1 -->
<svg width="605pt" height="125pt"
 viewBox="0.00 0.00 604.50 124.50" xmlns="http://www.w3.org/2000/svg" xmlns:xlink="http://www.w3.org/1999/xlink">
<g id="graph0" class="graph" transform="scale(1 1) rotate(0) translate(4 120.5)">
<title>sensesp::SensESPApp::SensESPApp</title>
<!-- Node1 -->
<g id="Node000001" class="node">
<title>Node1</title>
<g id="a_Node000001"><a xlink:title="SensESPApp constructor.">
<polygon fill="#999999" stroke="#666666" points="117.25,-73.5 0,-73.5 0,-43 117.25,-43 117.25,-73.5"/>
<text text-anchor="start" x="8" y="-60" font-family="Helvetica,sans-Serif" font-size="10.00">sensesp::SensESPApp</text>
<text text-anchor="middle" x="58.62" y="-48.75" font-family="Helvetica,sans-Serif" font-size="10.00">::SensESPApp</text>
</a>
</g>
</g>
<!-- Node2 -->
<g id="Node000002" class="node">
<title>Node2</title>
<g id="a_Node000002"><a xlink:href="classsensesp_1_1_value_producer.html#a168e379778dd79bc926aff69d9a87663" target="_top" xlink:title=" ">
<polygon fill="white" stroke="#666666" points="275,-73.5 153.25,-73.5 153.25,-43 275,-43 275,-73.5"/>
<text text-anchor="start" x="161.25" y="-60" font-family="Helvetica,sans-Serif" font-size="10.00">sensesp::ValueProducer</text>
<text text-anchor="middle" x="214.12" y="-48.75" font-family="Helvetica,sans-Serif" font-size="10.00">::connect_to</text>
</a>
</g>
</g>
<!-- Node1&#45;&gt;Node2 -->
<g id="edge1_Node000001_Node000002" class="edge">
<title>Node1&#45;&gt;Node2</title>
<g id="a_edge1_Node000001_Node000002"><a xlink:title=" ">
<path fill="none" stroke="#63b8ff" d="M117.66,-58.25C125.5,-58.25 133.63,-58.25 141.68,-58.25"/>
<polygon fill="#63b8ff" stroke="#63b8ff" points="141.45,-61.75 151.45,-58.25 141.45,-54.75 141.45,-61.75"/>
</a>
</g>
</g>
<!-- Node3 -->
<g id="Node000003" class="node">
<title>Node3</title>
<g id="a_Node000003"><a xlink:href="classsensesp_1_1_observable.html#a1bd8a207de69d386a7f05c28544df109" target="_top" xlink:title=" ">
<polygon fill="white" stroke="#666666" points="435.75,-116.5 327.5,-116.5 327.5,-86 435.75,-86 435.75,-116.5"/>
<text text-anchor="start" x="335.5" y="-103" font-family="Helvetica,sans-Serif" font-size="10.00">sensesp::Observable</text>
<text text-anchor="middle" x="381.62" y="-91.75" font-family="Helvetica,sans-Serif" font-size="10.00">::attach</text>
</a>
</g>
</g>
<!-- Node2&#45;&gt;Node3 -->
<g id="edge2_Node000002_Node000003" class="edge">
<title>Node2&#45;&gt;Node3</title>
<g id="a_edge2_Node000002_Node000003"><a xlink:title=" ">
<path fill="none" stroke="#63b8ff" d="M275.34,-73.9C288.56,-77.33 302.6,-80.98 315.98,-84.45"/>
<polygon fill="#63b8ff" stroke="#63b8ff" points="315,-87.82 325.56,-86.94 316.77,-81.04 315,-87.82"/>
</a>
</g>
</g>
<!-- Node4 -->
<g id="Node000004" class="node">
<title>Node4</title>
<g id="a_Node000004"><a xlink:href="classsensesp_1_1_value_producer.html#a438390eae6bba056ecf4ab329cb5c8e9" target="_top" xlink:title=" ">
<polygon fill="white" stroke="#666666" points="452.25,-67.88 311,-67.88 311,-48.62 452.25,-48.62 452.25,-67.88"/>
<text text-anchor="middle" x="381.62" y="-54.38" font-family="Helvetica,sans-Serif" font-size="10.00">sensesp::ValueProducer::get</text>
</a>
</g>
</g>
<!-- Node2&#45;&gt;Node4 -->
<g id="edge3_Node000002_Node000004" class="edge">
<title>Node2&#45;&gt;Node4</title>
<g id="a_edge3_Node000002_Node000004"><a xlink:title=" ">
<path fill="none" stroke="#63b8ff" d="M275.34,-58.25C283.13,-58.25 291.21,-58.25 299.27,-58.25"/>
<polygon fill="#63b8ff" stroke="#63b8ff" points="299.11,-61.75 309.11,-58.25 299.11,-54.75 299.11,-61.75"/>
</a>
</g>
</g>
<!-- Node5 -->
<g id="Node000005" class="node">
<title>Node5</title>
<g id="a_Node000005"><a xlink:href="classsensesp_1_1_lambda_transform.html#a089103b08c2608896c48346c09bc229e" target="_top" xlink:title=" ">
<polygon fill="white" stroke="#666666" points="450.38,-30.5 312.88,-30.5 312.88,0 450.38,0 450.38,-30.5"/>
<text text-anchor="start" x="320.88" y="-17" font-family="Helvetica,sans-Serif" font-size="10.00">sensesp::LambdaTransform</text>
<text text-anchor="middle" x="381.62" y="-5.75" font-family="Helvetica,sans-Serif" font-size="10.00">::set_input</text>
</a>
</g>
</g>
<!-- Node2&#45;&gt;Node5 -->
<g id="edge4_Node000002_Node000005" class="edge">
<title>Node2&#45;&gt;Node5</title>
<g id="a_edge4_Node000002_Node000005"><a xlink:title=" ">
<path fill="none" stroke="#63b8ff" d="M275.34,-42.6C286.29,-39.76 297.82,-36.77 309.06,-33.84"/>
<polygon fill="#63b8ff" stroke="#63b8ff" points="309.91,-37.24 318.71,-31.34 308.15,-30.46 309.91,-37.24"/>
</a>
</g>
</g>
<!-- Node6 -->
<g id="Node000006" class="node">
<title>Node6</title>
<g id="a_Node000006"><a xlink:href="classsensesp_1_1_observable.html#ab86d00fed8fb85b4c76cb9397667ece9" target="_top" xlink:title=" ">
<polygon fill="white" stroke="#666666" points="596.5,-30.5 488.25,-30.5 488.25,0 596.5,0 596.5,-30.5"/>
<text text-anchor="start" x="496.25" y="-17" font-family="Helvetica,sans-Serif" font-size="10.00">sensesp::Observable</text>
<text text-anchor="middle" x="542.38" y="-5.75" font-family="Helvetica,sans-Serif" font-size="10.00">::notify</text>
</a>
</g>
</g>
<!-- Node5&#45;&gt;Node6 -->
<g id="edge5_Node000005_Node000006" class="edge">
<title>Node5&#45;&gt;Node6</title>
<g id="a_edge5_Node000005_Node000006"><a xlink:title=" ">
<path fill="none" stroke="#63b8ff" d="M450.87,-15.25C459.42,-15.25 468.15,-15.25 476.64,-15.25"/>
<polygon fill="#63b8ff" stroke="#63b8ff" points="476.53,-18.75 486.53,-15.25 476.53,-11.75 476.53,-18.75"/>
</a>
</g>
</g>
</g>
</svg>
