<?xml version="1.0" encoding="UTF-8" standalone="no"?>
<!DOCTYPE svg PUBLIC "-//W3C//DTD SVG 1.1//EN"
 "http://www.w3.org/Graphics/SVG/1.1/DTD/svg11.dtd">
<!-- Generated by graphviz version 2.44.1 (20200629.0846)
 -->
<!-- Title: Transform&lt; C, P &gt; Pages: 1 -->
<svg width="1517pt" height="667pt"
 viewBox="0.00 0.00 1517.00 667.00" xmlns="http://www.w3.org/2000/svg" xmlns:xlink="http://www.w3.org/1999/xlink">
<g id="graph0" class="graph" transform="scale(1 1) rotate(0) translate(4 663)">
<title>Transform&lt; C, P &gt;</title>
<polygon fill="white" stroke="transparent" points="-4,4 -4,-663 1513,-663 1513,4 -4,4"/>
<!-- Node0 -->
<g id="node1" class="node">
<title>Node0</title>
<g id="a_node1"><a xlink:title=" ">
<polygon fill="#bfbfbf" stroke="black" points="426,-280.5 426,-299.5 525,-299.5 525,-280.5 426,-280.5"/>
<text text-anchor="middle" x="475.5" y="-287.5" font-family="Helvetica,sans-Serif" font-size="10.00">Transform&lt; C, P &gt;</text>
</a>
</g>
</g>
<!-- Node9 -->
<g id="node10" class="node">
<title>Node9</title>
<g id="a_node10"><a xlink:href="class_integrator_t.html" target="_top" xlink:title="Integrator integrates (accumulates) the incoming values.">
<polygon fill="white" stroke="black" points="680,-560.5 680,-579.5 782,-579.5 782,-560.5 680,-560.5"/>
<text text-anchor="middle" x="731" y="-567.5" font-family="Helvetica,sans-Serif" font-size="10.00">IntegratorT&lt; C, P &gt;</text>
</a>
</g>
</g>
<!-- Node0&#45;&gt;Node9 -->
<g id="edge10" class="edge">
<title>Node0&#45;&gt;Node9</title>
<path fill="none" stroke="midnightblue" d="M478.83,-309.61C485.67,-363.57 507.45,-512.41 543,-544 579.88,-576.77 638.02,-579.99 679.69,-577.09"/>
<polygon fill="midnightblue" stroke="midnightblue" points="482.3,-309.1 477.6,-299.61 475.35,-309.96 482.3,-309.1"/>
</g>
<!-- Node10 -->
<g id="node11" class="node">
<title>Node10</title>
<g id="a_node11"><a xlink:href="class_threshold_transform.html" target="_top" xlink:title=" ">
<polygon fill="white" stroke="black" points="679,-473 679,-503 783,-503 783,-473 679,-473"/>
<text text-anchor="start" x="687" y="-491" font-family="Helvetica,sans-Serif" font-size="10.00">ThresholdTransform</text>
<text text-anchor="middle" x="731" y="-480" font-family="Helvetica,sans-Serif" font-size="10.00">&lt; C, P &gt;</text>
</a>
</g>
</g>
<!-- Node0&#45;&gt;Node10 -->
<g id="edge11" class="edge">
<title>Node0&#45;&gt;Node10</title>
<path fill="none" stroke="midnightblue" d="M478.01,-309.85C481.91,-345.97 495.6,-422.2 543,-460 581.11,-490.4 637.93,-494.95 678.93,-493.41"/>
<polygon fill="midnightblue" stroke="midnightblue" points="481.47,-309.26 477.06,-299.63 474.5,-309.91 481.47,-309.26"/>
</g>
<!-- Node15 -->
<g id="node16" class="node">
<title>Node15</title>
<g id="a_node16"><a xlink:href="class_transform.html" target="_top" xlink:title=" ">
<polygon fill="white" stroke="black" points="962,-396.5 962,-415.5 1084,-415.5 1084,-396.5 962,-396.5"/>
<text text-anchor="middle" x="1023" y="-403.5" font-family="Helvetica,sans-Serif" font-size="10.00">Transform&lt; float, float &gt;</text>
</a>
</g>
</g>
<!-- Node0&#45;&gt;Node15 -->
<g id="edge16" class="edge">
<title>Node0&#45;&gt;Node15</title>
<path fill="none" stroke="orange" stroke-dasharray="5,2" d="M528.41,-301.78C533.34,-302.88 538.26,-303.97 543,-305 701.6,-339.61 890.18,-378.8 975.71,-396.47"/>
<polygon fill="orange" stroke="orange" points="528.86,-298.3 518.34,-299.53 527.33,-305.13 528.86,-298.3"/>
<text text-anchor="middle" x="731" y="-363" font-family="Helvetica,sans-Serif" font-size="10.00"> &lt; float, float &gt;</text>
</g>
<!-- Node30 -->
<g id="node30" class="node">
<title>Node30</title>
<g id="a_node30"><a xlink:href="class_transform.html" target="_top" xlink:title=" ">
<polygon fill="white" stroke="black" points="673,-280.5 673,-299.5 789,-299.5 789,-280.5 673,-280.5"/>
<text text-anchor="middle" x="731" y="-287.5" font-family="Helvetica,sans-Serif" font-size="10.00">Transform&lt; IN, OUT &gt;</text>
</a>
</g>
</g>
<!-- Node0&#45;&gt;Node30 -->
<g id="edge30" class="edge">
<title>Node0&#45;&gt;Node30</title>
<path fill="none" stroke="orange" stroke-dasharray="5,2" d="M535.28,-290C576.63,-290 631.7,-290 672.72,-290"/>
<polygon fill="orange" stroke="orange" points="535.08,-286.5 525.08,-290 535.08,-293.5 535.08,-286.5"/>
<text text-anchor="middle" x="590" y="-293" font-family="Helvetica,sans-Serif" font-size="10.00"> &lt; IN, OUT &gt;</text>
</g>
<!-- Node39 -->
<g id="node35" class="node">
<title>Node39</title>
<g id="a_node35"><a xlink:href="class_transform.html" target="_top" xlink:title=" ">
<polygon fill="white" stroke="black" points="667,-203.5 667,-222.5 795,-222.5 795,-203.5 667,-203.5"/>
<text text-anchor="middle" x="731" y="-210.5" font-family="Helvetica,sans-Serif" font-size="10.00">Transform&lt; bool, String &gt;</text>
</a>
</g>
</g>
<!-- Node0&#45;&gt;Node39 -->
<g id="edge38" class="edge">
<title>Node0&#45;&gt;Node39</title>
<path fill="none" stroke="orange" stroke-dasharray="5,2" d="M487.45,-271.79C498.9,-254.66 518.59,-230.05 543,-219 582.36,-201.18 631.29,-200.26 669.23,-203.49"/>
<polygon fill="orange" stroke="orange" points="484.39,-270.09 481.96,-280.4 490.29,-273.85 484.39,-270.09"/>
<text text-anchor="middle" x="590" y="-222" font-family="Helvetica,sans-Serif" font-size="10.00"> &lt; bool, String &gt;</text>
</g>
<!-- Node41 -->
<g id="node37" class="node">
<title>Node41</title>
<g id="a_node37"><a xlink:href="class_transform.html" target="_top" xlink:title=" ">
<polygon fill="white" stroke="black" points="674.5,-434.5 674.5,-453.5 787.5,-453.5 787.5,-434.5 674.5,-434.5"/>
<text text-anchor="middle" x="731" y="-441.5" font-family="Helvetica,sans-Serif" font-size="10.00">Transform&lt; int, bool &gt;</text>
</a>
</g>
</g>
<!-- Node0&#45;&gt;Node41 -->
<g id="edge40" class="edge">
<title>Node0&#45;&gt;Node41</title>
<path fill="none" stroke="orange" stroke-dasharray="5,2" d="M481.06,-309.69C488.69,-337.93 506.92,-389.35 543,-415 581.03,-442.03 634.4,-447.99 674.4,-447.95"/>
<polygon fill="orange" stroke="orange" points="484.4,-308.62 478.56,-299.78 477.61,-310.33 484.4,-308.62"/>
<text text-anchor="middle" x="590" y="-448" font-family="Helvetica,sans-Serif" font-size="10.00"> &lt; int, bool &gt;</text>
</g>
<!-- Node42 -->
<g id="node38" class="node">
<title>Node42</title>
<g id="a_node38"><a xlink:href="class_transform.html" target="_top" xlink:title=" ">
<polygon fill="white" stroke="black" points="825,-197.5 825,-216.5 939,-216.5 939,-197.5 825,-197.5"/>
<text text-anchor="middle" x="882" y="-204.5" font-family="Helvetica,sans-Serif" font-size="10.00">Transform&lt; float, int &gt;</text>
</a>
</g>
</g>
<!-- Node0&#45;&gt;Node42 -->
<g id="edge42" class="edge">
<title>Node0&#45;&gt;Node42</title>
<path fill="none" stroke="orange" stroke-dasharray="5,2" d="M526.68,-278.34C532.18,-277.17 537.7,-276.03 543,-275 659.7,-252.36 693.08,-265.98 807,-232 815.39,-229.5 816.8,-227.06 825,-224 832.05,-221.38 839.7,-218.85 847.02,-216.58"/>
<polygon fill="orange" stroke="orange" points="525.88,-274.93 516.86,-280.49 527.38,-281.77 525.88,-274.93"/>
<text text-anchor="middle" x="590" y="-278" font-family="Helvetica,sans-Serif" font-size="10.00"> &lt; float, int &gt;</text>
</g>
<!-- Node43 -->
<g id="node39" class="node">
<title>Node43</title>
<g id="a_node39"><a xlink:href="class_transform.html" target="_top" xlink:title=" ">
<polygon fill="white" stroke="black" points="674,-163.5 674,-182.5 788,-182.5 788,-163.5 674,-163.5"/>
<text text-anchor="middle" x="731" y="-170.5" font-family="Helvetica,sans-Serif" font-size="10.00">Transform&lt; int, float &gt;</text>
</a>
</g>
</g>
<!-- Node0&#45;&gt;Node43 -->
<g id="edge44" class="edge">
<title>Node0&#45;&gt;Node43</title>
<path fill="none" stroke="orange" stroke-dasharray="5,2" d="M482.97,-270.83C492.17,-246.86 511.5,-206.73 543,-188 582.19,-164.69 634.44,-162.39 673.75,-165.09"/>
<polygon fill="orange" stroke="orange" points="479.66,-269.69 479.54,-280.28 486.24,-272.07 479.66,-269.69"/>
<text text-anchor="middle" x="590" y="-191" font-family="Helvetica,sans-Serif" font-size="10.00"> &lt; int, float &gt;</text>
</g>
<!-- Node45 -->
<g id="node41" class="node">
<title>Node45</title>
<g id="a_node41"><a xlink:href="class_transform.html" target="_top" xlink:title=" ">
<polygon fill="white" stroke="black" points="670,-522.5 670,-541.5 792,-541.5 792,-522.5 670,-522.5"/>
<text text-anchor="middle" x="731" y="-529.5" font-family="Helvetica,sans-Serif" font-size="10.00">Transform&lt; float, bool &gt;</text>
</a>
</g>
</g>
<!-- Node0&#45;&gt;Node45 -->
<g id="edge46" class="edge">
<title>Node0&#45;&gt;Node45</title>
<path fill="none" stroke="orange" stroke-dasharray="5,2" d="M476.98,-309.82C479.08,-350.11 489.79,-441.86 543,-490 577.18,-520.92 629.11,-530.67 669.58,-533.12"/>
<polygon fill="orange" stroke="orange" points="480.47,-309.54 476.58,-299.69 473.48,-309.82 480.47,-309.54"/>
<text text-anchor="middle" x="590" y="-532" font-family="Helvetica,sans-Serif" font-size="10.00"> &lt; float, bool &gt;</text>
</g>
<!-- Node46 -->
<g id="node42" class="node">
<title>Node46</title>
<g id="a_node42"><a xlink:href="class_transform.html" target="_top" xlink:title=" ">
<polygon fill="white" stroke="black" points="681,-111 681,-141 781,-141 781,-111 681,-111"/>
<text text-anchor="start" x="689" y="-129" font-family="Helvetica,sans-Serif" font-size="10.00">Transform&lt; time_t,</text>
<text text-anchor="middle" x="731" y="-118" font-family="Helvetica,sans-Serif" font-size="10.00"> String &gt;</text>
</a>
</g>
</g>
<!-- Node0&#45;&gt;Node46 -->
<g id="edge48" class="edge">
<title>Node0&#45;&gt;Node46</title>
<path fill="none" stroke="orange" stroke-dasharray="5,2" d="M479.77,-270.09C486.04,-238.91 502.84,-179.13 543,-150 582.74,-121.17 640.11,-117.89 680.81,-120.11"/>
<polygon fill="orange" stroke="orange" points="476.29,-269.7 477.92,-280.17 483.17,-270.97 476.29,-269.7"/>
<text text-anchor="middle" x="590" y="-153" font-family="Helvetica,sans-Serif" font-size="10.00"> &lt; time_t, String &gt;</text>
</g>
<!-- Node49 -->
<g id="node44" class="node">
<title>Node49</title>
<g id="a_node44"><a xlink:href="class_transform.html" target="_top" xlink:title=" ">
<polygon fill="white" stroke="black" points="683.5,-396.5 683.5,-415.5 778.5,-415.5 778.5,-396.5 683.5,-396.5"/>
<text text-anchor="middle" x="731" y="-403.5" font-family="Helvetica,sans-Serif" font-size="10.00">Transform&lt; T, T &gt;</text>
</a>
</g>
</g>
<!-- Node0&#45;&gt;Node49 -->
<g id="edge50" class="edge">
<title>Node0&#45;&gt;Node49</title>
<path fill="none" stroke="orange" stroke-dasharray="5,2" d="M484.73,-309.07C495.03,-330.43 514.81,-364.24 543,-381 566.02,-394.68 635.91,-401.08 683.42,-403.93"/>
<polygon fill="orange" stroke="orange" points="487.79,-307.35 480.44,-299.72 481.43,-310.27 487.79,-307.35"/>
<text text-anchor="middle" x="590" y="-403" font-family="Helvetica,sans-Serif" font-size="10.00"> &lt; T, T &gt;</text>
</g>
<!-- Node58 -->
<g id="node46" class="node">
<title>Node58</title>
<g id="a_node46"><a xlink:href="class_transform.html" target="_top" xlink:title=" ">
<polygon fill="white" stroke="black" points="682,-61 682,-91 780,-91 780,-61 682,-61"/>
<text text-anchor="start" x="690" y="-79" font-family="Helvetica,sans-Serif" font-size="10.00">Transform&lt; String,</text>
<text text-anchor="middle" x="731" y="-68" font-family="Helvetica,sans-Serif" font-size="10.00"> bool &gt;</text>
</a>
</g>
</g>
<!-- Node0&#45;&gt;Node58 -->
<g id="edge53" class="edge">
<title>Node0&#45;&gt;Node58</title>
<path fill="none" stroke="orange" stroke-dasharray="5,2" d="M477.42,-269.67C480.35,-231.18 492.5,-147.81 543,-106 581.62,-74.02 640.59,-69.5 681.96,-71.07"/>
<polygon fill="orange" stroke="orange" points="473.9,-269.88 476.78,-280.08 480.89,-270.31 473.9,-269.88"/>
<text text-anchor="middle" x="590" y="-109" font-family="Helvetica,sans-Serif" font-size="10.00"> &lt; String, bool &gt;</text>
</g>
<!-- Node60 -->
<g id="node48" class="node">
<title>Node60</title>
<g id="a_node48"><a xlink:href="class_transform.html" target="_top" xlink:title=" ">
<polygon fill="white" stroke="black" points="655,-16.5 655,-35.5 807,-35.5 807,-16.5 655,-16.5"/>
<text text-anchor="middle" x="731" y="-23.5" font-family="Helvetica,sans-Serif" font-size="10.00">Transform&lt; bool, ClickTypes &gt;</text>
</a>
</g>
</g>
<!-- Node0&#45;&gt;Node60 -->
<g id="edge55" class="edge">
<title>Node0&#45;&gt;Node60</title>
<path fill="none" stroke="orange" stroke-dasharray="5,2" d="M475.7,-269.95C475.08,-224.66 480.42,-114.07 543,-58 573.05,-31.08 617.16,-22.59 654.99,-21.07"/>
<polygon fill="orange" stroke="orange" points="472.21,-270.3 475.96,-280.21 479.2,-270.12 472.21,-270.3"/>
<text text-anchor="middle" x="590" y="-61" font-family="Helvetica,sans-Serif" font-size="10.00"> &lt; bool, ClickTypes &gt;</text>
</g>
<!-- Node1 -->
<g id="node2" class="node">
<title>Node1</title>
<g id="a_node2"><a xlink:href="class_transform_base.html" target="_top" xlink:title=" ">
<polygon fill="white" stroke="black" points="292,-318.5 292,-337.5 375,-337.5 375,-318.5 292,-318.5"/>
<text text-anchor="middle" x="333.5" y="-325.5" font-family="Helvetica,sans-Serif" font-size="10.00">TransformBase</text>
</a>
</g>
</g>
<!-- Node1&#45;&gt;Node0 -->
<g id="edge1" class="edge">
<title>Node1&#45;&gt;Node0</title>
<path fill="none" stroke="midnightblue" d="M379.62,-315.75C398.91,-310.52 421.11,-304.49 439.18,-299.59"/>
<polygon fill="midnightblue" stroke="midnightblue" points="378.56,-312.41 369.83,-318.41 380.4,-319.17 378.56,-312.41"/>
</g>
<!-- Node2 -->
<g id="node3" class="node">
<title>Node2</title>
<g id="a_node3"><a xlink:href="class_configurable.html" target="_top" xlink:title=" ">
<polygon fill="white" stroke="black" points="122.5,-318.5 122.5,-337.5 193.5,-337.5 193.5,-318.5 122.5,-318.5"/>
<text text-anchor="middle" x="158" y="-325.5" font-family="Helvetica,sans-Serif" font-size="10.00">Configurable</text>
</a>
</g>
</g>
<!-- Node2&#45;&gt;Node1 -->
<g id="edge2" class="edge">
<title>Node2&#45;&gt;Node1</title>
<path fill="none" stroke="midnightblue" d="M203.72,-328C230.91,-328 265.35,-328 291.77,-328"/>
<polygon fill="midnightblue" stroke="midnightblue" points="203.69,-324.5 193.69,-328 203.69,-331.5 203.69,-324.5"/>
</g>
<!-- Node3 -->
<g id="node4" class="node">
<title>Node3</title>
<g id="a_node4"><a xlink:href="class_enable.html" target="_top" xlink:title=" ">
<polygon fill="white" stroke="black" points="134.5,-356.5 134.5,-375.5 181.5,-375.5 181.5,-356.5 134.5,-356.5"/>
<text text-anchor="middle" x="158" y="-363.5" font-family="Helvetica,sans-Serif" font-size="10.00">Enable</text>
</a>
</g>
</g>
<!-- Node3&#45;&gt;Node1 -->
<g id="edge3" class="edge">
<title>Node3&#45;&gt;Node1</title>
<path fill="none" stroke="midnightblue" d="M191.52,-358.88C219.93,-352.66 261.29,-343.6 291.88,-336.9"/>
<polygon fill="midnightblue" stroke="midnightblue" points="190.7,-355.47 181.68,-361.03 192.2,-362.31 190.7,-355.47"/>
</g>
<!-- Node4 -->
<g id="node5" class="node">
<title>Node4</title>
<g id="a_node5"><a xlink:href="class_value_consumer.html" target="_top" xlink:title=" ">
<polygon fill="white" stroke="black" points="278,-280.5 278,-299.5 389,-299.5 389,-280.5 278,-280.5"/>
<text text-anchor="middle" x="333.5" y="-287.5" font-family="Helvetica,sans-Serif" font-size="10.00">ValueConsumer&lt; C &gt;</text>
</a>
</g>
</g>
<!-- Node4&#45;&gt;Node0 -->
<g id="edge4" class="edge">
<title>Node4&#45;&gt;Node0</title>
<path fill="none" stroke="midnightblue" d="M399.09,-290C408.08,-290 417.19,-290 425.82,-290"/>
<polygon fill="midnightblue" stroke="midnightblue" points="399.03,-286.5 389.03,-290 399.03,-293.5 399.03,-286.5"/>
</g>
<!-- Node5 -->
<g id="node6" class="node">
<title>Node5</title>
<g id="a_node6"><a xlink:href="class_value_consumer.html" target="_top" xlink:title=" ">
<polygon fill="white" stroke="black" points="103,-280.5 103,-299.5 213,-299.5 213,-280.5 103,-280.5"/>
<text text-anchor="middle" x="158" y="-287.5" font-family="Helvetica,sans-Serif" font-size="10.00">ValueConsumer&lt; T &gt;</text>
</a>
</g>
</g>
<!-- Node5&#45;&gt;Node4 -->
<g id="edge5" class="edge">
<title>Node5&#45;&gt;Node4</title>
<path fill="none" stroke="orange" stroke-dasharray="5,2" d="M223.5,-290C241.42,-290 260.69,-290 277.97,-290"/>
<polygon fill="orange" stroke="orange" points="223.42,-286.5 213.42,-290 223.42,-293.5 223.42,-286.5"/>
<text text-anchor="middle" x="245.5" y="-293" font-family="Helvetica,sans-Serif" font-size="10.00"> &lt; C &gt;</text>
</g>
<!-- Node6 -->
<g id="node7" class="node">
<title>Node6</title>
<g id="a_node7"><a xlink:href="class_value_producer.html" target="_top" xlink:title=" ">
<polygon fill="white" stroke="black" points="281.5,-242.5 281.5,-261.5 385.5,-261.5 385.5,-242.5 281.5,-242.5"/>
<text text-anchor="middle" x="333.5" y="-249.5" font-family="Helvetica,sans-Serif" font-size="10.00">ValueProducer&lt; P &gt;</text>
</a>
</g>
</g>
<!-- Node6&#45;&gt;Node0 -->
<g id="edge6" class="edge">
<title>Node6&#45;&gt;Node0</title>
<path fill="none" stroke="midnightblue" d="M379.62,-264.25C398.91,-269.48 421.11,-275.51 439.18,-280.41"/>
<polygon fill="midnightblue" stroke="midnightblue" points="380.4,-260.83 369.83,-261.59 378.56,-267.59 380.4,-260.83"/>
</g>
<!-- Node7 -->
<g id="node8" class="node">
<title>Node7</title>
<g id="a_node8"><a xlink:href="class_observable.html" target="_top" xlink:title=" ">
<polygon fill="white" stroke="black" points="0,-216.5 0,-235.5 66,-235.5 66,-216.5 0,-216.5"/>
<text text-anchor="middle" x="33" y="-223.5" font-family="Helvetica,sans-Serif" font-size="10.00">Observable</text>
</a>
</g>
</g>
<!-- Node7&#45;&gt;Node6 -->
<g id="edge7" class="edge">
<title>Node7&#45;&gt;Node6</title>
<path fill="none" stroke="midnightblue" d="M76.32,-226.24C112.65,-226.79 166.38,-228.4 213,-233 235.58,-235.23 260.37,-238.96 281.5,-242.53"/>
<polygon fill="midnightblue" stroke="midnightblue" points="76.13,-222.74 66.09,-226.11 76.04,-229.74 76.13,-222.74"/>
</g>
<!-- Node8 -->
<g id="node9" class="node">
<title>Node8</title>
<g id="a_node9"><a xlink:href="class_value_producer.html" target="_top" xlink:title=" ">
<polygon fill="white" stroke="black" points="106,-242.5 106,-261.5 210,-261.5 210,-242.5 106,-242.5"/>
<text text-anchor="middle" x="158" y="-249.5" font-family="Helvetica,sans-Serif" font-size="10.00">ValueProducer&lt; T &gt;</text>
</a>
</g>
</g>
<!-- Node7&#45;&gt;Node8 -->
<g id="edge9" class="edge">
<title>Node7&#45;&gt;Node8</title>
<path fill="none" stroke="midnightblue" d="M76.15,-234.91C87.7,-237.35 100.25,-240 111.95,-242.48"/>
<polygon fill="midnightblue" stroke="midnightblue" points="76.82,-231.48 66.32,-232.83 75.38,-238.32 76.82,-231.48"/>
</g>
<!-- Node8&#45;&gt;Node6 -->
<g id="edge8" class="edge">
<title>Node8&#45;&gt;Node6</title>
<path fill="none" stroke="orange" stroke-dasharray="5,2" d="M220.36,-252C240.35,-252 262.3,-252 281.45,-252"/>
<polygon fill="orange" stroke="orange" points="220.12,-248.5 210.12,-252 220.12,-255.5 220.12,-248.5"/>
<text text-anchor="middle" x="245.5" y="-255" font-family="Helvetica,sans-Serif" font-size="10.00"> &lt; P &gt;</text>
</g>
<!-- Node11 -->
<g id="node12" class="node">
<title>Node11</title>
<g id="a_node12"><a xlink:href="class_threshold_transform.html" target="_top" xlink:title=" ">
<polygon fill="white" stroke="black" points="971,-473 971,-503 1075,-503 1075,-473 971,-473"/>
<text text-anchor="start" x="979" y="-491" font-family="Helvetica,sans-Serif" font-size="10.00">ThresholdTransform</text>
<text text-anchor="middle" x="1023" y="-480" font-family="Helvetica,sans-Serif" font-size="10.00">&lt; int, bool &gt;</text>
</a>
</g>
</g>
<!-- Node10&#45;&gt;Node11 -->
<g id="edge12" class="edge">
<title>Node10&#45;&gt;Node11</title>
<path fill="none" stroke="orange" stroke-dasharray="5,2" d="M793.2,-486.5C803.8,-486.29 814.72,-486.11 825,-486 875.66,-485.46 888.34,-485.39 939,-486 949.23,-486.12 960.17,-486.33 970.64,-486.57"/>
<polygon fill="orange" stroke="orange" points="793.09,-483 783.16,-486.7 793.23,-490 793.09,-483"/>
<text text-anchor="middle" x="882" y="-489" font-family="Helvetica,sans-Serif" font-size="10.00"> &lt; int, bool &gt;</text>
</g>
<!-- Node13 -->
<g id="node14" class="node">
<title>Node13</title>
<g id="a_node14"><a xlink:href="class_threshold_transform.html" target="_top" xlink:title=" ">
<polygon fill="white" stroke="black" points="971,-527 971,-557 1075,-557 1075,-527 971,-527"/>
<text text-anchor="start" x="979" y="-545" font-family="Helvetica,sans-Serif" font-size="10.00">ThresholdTransform</text>
<text text-anchor="middle" x="1023" y="-534" font-family="Helvetica,sans-Serif" font-size="10.00">&lt; float, bool &gt;</text>
</a>
</g>
</g>
<!-- Node10&#45;&gt;Node13 -->
<g id="edge14" class="edge">
<title>Node10&#45;&gt;Node13</title>
<path fill="none" stroke="orange" stroke-dasharray="5,2" d="M793.24,-495.74C834.6,-501.38 890.33,-509.82 939,-520 949.36,-522.17 960.36,-524.82 970.84,-527.53"/>
<polygon fill="orange" stroke="orange" points="793.69,-492.27 783.31,-494.4 792.75,-499.2 793.69,-492.27"/>
<text text-anchor="middle" x="882" y="-523" font-family="Helvetica,sans-Serif" font-size="10.00"> &lt; float, bool &gt;</text>
</g>
<!-- Node12 -->
<g id="node13" class="node">
<title>Node12</title>
<g id="a_node13"><a xlink:href="class_integer_threshold.html" target="_top" xlink:title=" ">
<polygon fill="white" stroke="black" points="1232.5,-487.5 1232.5,-506.5 1321.5,-506.5 1321.5,-487.5 1232.5,-487.5"/>
<text text-anchor="middle" x="1277" y="-494.5" font-family="Helvetica,sans-Serif" font-size="10.00">IntegerThreshold</text>
</a>
</g>
</g>
<!-- Node11&#45;&gt;Node12 -->
<g id="edge13" class="edge">
<title>Node11&#45;&gt;Node12</title>
<path fill="none" stroke="midnightblue" d="M1085.34,-490.19C1130.82,-491.82 1191.73,-493.99 1232.33,-495.44"/>
<polygon fill="midnightblue" stroke="midnightblue" points="1085.42,-486.69 1075.3,-489.83 1085.17,-493.69 1085.42,-486.69"/>
</g>
<!-- Node14 -->
<g id="node15" class="node">
<title>Node14</title>
<g id="a_node15"><a xlink:href="class_numeric_threshold.html" target="_top" xlink:title=" ">
<polygon fill="white" stroke="black" points="1229,-532.5 1229,-551.5 1325,-551.5 1325,-532.5 1229,-532.5"/>
<text text-anchor="middle" x="1277" y="-539.5" font-family="Helvetica,sans-Serif" font-size="10.00">NumericThreshold</text>
</a>
</g>
</g>
<!-- Node13&#45;&gt;Node14 -->
<g id="edge15" class="edge">
<title>Node13&#45;&gt;Node14</title>
<path fill="none" stroke="midnightblue" d="M1085.33,-542C1129.44,-542 1188.06,-542 1228.61,-542"/>
<polygon fill="midnightblue" stroke="midnightblue" points="1085.3,-538.5 1075.3,-542 1085.3,-545.5 1085.3,-538.5"/>
</g>
<!-- Node16 -->
<g id="node17" class="node">
<title>Node16</title>
<g id="a_node17"><a xlink:href="class_lambda_transform.html" target="_top" xlink:title=" ">
<polygon fill="white" stroke="black" points="1214,-360 1214,-390 1340,-390 1340,-360 1214,-360"/>
<text text-anchor="start" x="1222" y="-378" font-family="Helvetica,sans-Serif" font-size="10.00">LambdaTransform&lt; float,</text>
<text text-anchor="middle" x="1277" y="-367" font-family="Helvetica,sans-Serif" font-size="10.00"> float, float, float &gt;</text>
</a>
</g>
</g>
<!-- Node15&#45;&gt;Node16 -->
<g id="edge17" class="edge">
<title>Node15&#45;&gt;Node16</title>
<path fill="none" stroke="midnightblue" d="M1094.23,-406.09C1124.47,-405.24 1160.13,-403.06 1192,-398 1203.8,-396.13 1216.31,-393.22 1227.98,-390.1"/>
<polygon fill="midnightblue" stroke="midnightblue" points="1094.11,-402.59 1084.2,-406.33 1094.28,-409.59 1094.11,-402.59"/>
</g>
<!-- Node18 -->
<g id="node19" class="node">
<title>Node18</title>
<g id="a_node19"><a xlink:href="class_symmetric_transform.html" target="_top" xlink:title=" ">
<polygon fill="white" stroke="red" points="1223,-438 1223,-468 1331,-468 1331,-438 1223,-438"/>
<text text-anchor="start" x="1231" y="-456" font-family="Helvetica,sans-Serif" font-size="10.00">SymmetricTransform</text>
<text text-anchor="middle" x="1277" y="-445" font-family="Helvetica,sans-Serif" font-size="10.00">&lt; float &gt;</text>
</a>
</g>
</g>
<!-- Node15&#45;&gt;Node18 -->
<g id="edge19" class="edge">
<title>Node15&#45;&gt;Node18</title>
<path fill="none" stroke="midnightblue" d="M1084.86,-417.35C1127,-425.21 1182.56,-435.57 1222.91,-443.1"/>
<polygon fill="midnightblue" stroke="midnightblue" points="1085.47,-413.9 1075,-415.51 1084.18,-420.79 1085.47,-413.9"/>
</g>
<!-- Node17 -->
<g id="node18" class="node">
<title>Node17</title>
<g id="a_node18"><a xlink:href="class_linear.html" target="_top" xlink:title=" ">
<polygon fill="white" stroke="black" points="1423.5,-247.5 1423.5,-266.5 1466.5,-266.5 1466.5,-247.5 1423.5,-247.5"/>
<text text-anchor="middle" x="1445" y="-254.5" font-family="Helvetica,sans-Serif" font-size="10.00">Linear</text>
</a>
</g>
</g>
<!-- Node16&#45;&gt;Node17 -->
<g id="edge18" class="edge">
<title>Node16&#45;&gt;Node17</title>
<path fill="none" stroke="midnightblue" d="M1327.32,-354.63C1333.54,-350.49 1339.35,-345.64 1344,-340 1361.44,-318.85 1342.5,-300.27 1362,-281 1378.35,-264.84 1404.96,-259.45 1423.42,-257.71"/>
<polygon fill="midnightblue" stroke="midnightblue" points="1325.42,-351.7 1318.64,-359.84 1329.02,-357.7 1325.42,-351.7"/>
</g>
<!-- Node19 -->
<g id="node20" class="node">
<title>Node19</title>
<g id="a_node20"><a xlink:href="class_a_d_s1x15_voltage.html" target="_top" xlink:title="ADS1x15Voltage reads the raw output of the ADS1x15 (an integer between 0 and 32,768) and converts it ...">
<polygon fill="white" stroke="black" points="1381,-438 1381,-468 1509,-468 1509,-438 1381,-438"/>
<text text-anchor="start" x="1389" y="-456" font-family="Helvetica,sans-Serif" font-size="10.00">ADS1x15Voltage&lt; T_ads</text>
<text text-anchor="middle" x="1445" y="-445" font-family="Helvetica,sans-Serif" font-size="10.00">_1x15, chip &gt;</text>
</a>
</g>
</g>
<!-- Node18&#45;&gt;Node19 -->
<g id="edge20" class="edge">
<title>Node18&#45;&gt;Node19</title>
<path fill="none" stroke="midnightblue" d="M1341.59,-453C1354.45,-453 1367.97,-453 1380.82,-453"/>
<polygon fill="midnightblue" stroke="midnightblue" points="1341.44,-449.5 1331.44,-453 1341.44,-456.5 1341.44,-449.5"/>
</g>
<!-- Node20 -->
<g id="node21" class="node">
<title>Node20</title>
<g id="a_node21"><a xlink:href="class_analog_voltage.html" target="_top" xlink:title=" ">
<polygon fill="white" stroke="black" points="1405,-399.5 1405,-418.5 1485,-418.5 1485,-399.5 1405,-399.5"/>
<text text-anchor="middle" x="1445" y="-406.5" font-family="Helvetica,sans-Serif" font-size="10.00">AnalogVoltage</text>
</a>
</g>
</g>
<!-- Node18&#45;&gt;Node20 -->
<g id="edge21" class="edge">
<title>Node18&#45;&gt;Node20</title>
<path fill="none" stroke="midnightblue" d="M1341.3,-436.22C1363.86,-430.24 1388.49,-423.71 1407.97,-418.55"/>
<polygon fill="midnightblue" stroke="midnightblue" points="1340.21,-432.89 1331.44,-438.84 1342,-439.66 1340.21,-432.89"/>
</g>
<!-- Node21 -->
<g id="node22" class="node">
<title>Node21</title>
<g id="a_node22"><a xlink:href="class_angle_correction.html" target="_top" xlink:title=" ">
<polygon fill="white" stroke="black" points="1402,-361.5 1402,-380.5 1488,-380.5 1488,-361.5 1402,-361.5"/>
<text text-anchor="middle" x="1445" y="-368.5" font-family="Helvetica,sans-Serif" font-size="10.00">AngleCorrection</text>
</a>
</g>
</g>
<!-- Node18&#45;&gt;Node21 -->
<g id="edge22" class="edge">
<title>Node18&#45;&gt;Node21</title>
<path fill="none" stroke="midnightblue" d="M1307.57,-432.1C1327.58,-418.67 1355,-401.64 1381,-390 1389.13,-386.36 1398.16,-383.17 1406.78,-380.5"/>
<polygon fill="midnightblue" stroke="midnightblue" points="1305.51,-429.27 1299.21,-437.79 1309.45,-435.06 1305.51,-429.27"/>
</g>
<!-- Node22 -->
<g id="node23" class="node">
<title>Node22</title>
<g id="a_node23"><a xlink:href="class_change_filter.html" target="_top" xlink:title=" ">
<polygon fill="white" stroke="black" points="1409,-323.5 1409,-342.5 1481,-342.5 1481,-323.5 1409,-323.5"/>
<text text-anchor="middle" x="1445" y="-330.5" font-family="Helvetica,sans-Serif" font-size="10.00">ChangeFilter</text>
</a>
</g>
</g>
<!-- Node18&#45;&gt;Node22 -->
<g id="edge23" class="edge">
<title>Node18&#45;&gt;Node22</title>
<path fill="none" stroke="midnightblue" d="M1307.59,-431.66C1319.45,-422.5 1332.91,-411.32 1344,-400 1362.86,-380.77 1358.82,-367.29 1381,-352 1389.28,-346.29 1399.31,-342.27 1408.91,-339.44"/>
<polygon fill="midnightblue" stroke="midnightblue" points="1305.15,-429.12 1299.29,-437.94 1309.37,-434.7 1305.15,-429.12"/>
</g>
<!-- Node23 -->
<g id="node24" class="node">
<title>Node23</title>
<g id="a_node24"><a xlink:href="class_curve_interpolator.html" target="_top" xlink:title=" ">
<polygon fill="white" stroke="black" points="1399,-285.5 1399,-304.5 1491,-304.5 1491,-285.5 1399,-285.5"/>
<text text-anchor="middle" x="1445" y="-292.5" font-family="Helvetica,sans-Serif" font-size="10.00">CurveInterpolator</text>
</a>
</g>
</g>
<!-- Node18&#45;&gt;Node23 -->
<g id="edge24" class="edge">
<title>Node18&#45;&gt;Node23</title>
<path fill="none" stroke="midnightblue" d="M1310.45,-431.95C1322.17,-423.15 1334.77,-412.14 1344,-400 1369.19,-366.88 1349.96,-341.71 1381,-314 1386.11,-309.44 1392.29,-305.97 1398.75,-303.33"/>
<polygon fill="midnightblue" stroke="midnightblue" points="1308.2,-429.26 1302.14,-437.95 1312.3,-434.94 1308.2,-429.26"/>
</g>
<!-- Node24 -->
<g id="node25" class="node">
<title>Node24</title>
<g id="a_node25"><a xlink:href="class_difference.html" target="_top" xlink:title=" ">
<polygon fill="white" stroke="black" points="1414,-639.5 1414,-658.5 1476,-658.5 1476,-639.5 1414,-639.5"/>
<text text-anchor="middle" x="1445" y="-646.5" font-family="Helvetica,sans-Serif" font-size="10.00">Difference</text>
</a>
</g>
</g>
<!-- Node18&#45;&gt;Node24 -->
<g id="edge25" class="edge">
<title>Node18&#45;&gt;Node24</title>
<path fill="none" stroke="midnightblue" d="M1339.59,-473.63C1341.16,-475 1342.63,-476.45 1344,-478 1367.02,-504.05 1357.09,-604.76 1381,-630 1389.48,-638.96 1402.02,-643.74 1413.69,-646.27"/>
<polygon fill="midnightblue" stroke="midnightblue" points="1341.31,-470.56 1331.16,-467.53 1337.21,-476.23 1341.31,-470.56"/>
</g>
<!-- Node25 -->
<g id="node26" class="node">
<title>Node25</title>
<g id="a_node26"><a xlink:href="class_median.html" target="_top" xlink:title=" ">
<polygon fill="white" stroke="black" points="1421,-601.5 1421,-620.5 1469,-620.5 1469,-601.5 1421,-601.5"/>
<text text-anchor="middle" x="1445" y="-608.5" font-family="Helvetica,sans-Serif" font-size="10.00">Median</text>
</a>
</g>
</g>
<!-- Node18&#45;&gt;Node25 -->
<g id="edge26" class="edge">
<title>Node18&#45;&gt;Node25</title>
<path fill="none" stroke="midnightblue" d="M1339.55,-473.86C1341.12,-475.16 1342.61,-476.54 1344,-478 1362.37,-497.28 1361.97,-573.36 1381,-592 1391.61,-602.39 1407.69,-607.13 1420.95,-609.27"/>
<polygon fill="midnightblue" stroke="midnightblue" points="1341.37,-470.86 1331.17,-468.01 1337.37,-476.6 1341.37,-470.86"/>
</g>
<!-- Node26 -->
<g id="node27" class="node">
<title>Node26</title>
<g id="a_node27"><a xlink:href="class_moving_average.html" target="_top" xlink:title=" ">
<polygon fill="white" stroke="black" points="1403,-563.5 1403,-582.5 1487,-582.5 1487,-563.5 1403,-563.5"/>
<text text-anchor="middle" x="1445" y="-570.5" font-family="Helvetica,sans-Serif" font-size="10.00">MovingAverage</text>
</a>
</g>
</g>
<!-- Node18&#45;&gt;Node26 -->
<g id="edge27" class="edge">
<title>Node18&#45;&gt;Node26</title>
<path fill="none" stroke="midnightblue" d="M1338.51,-473.55C1340.43,-474.94 1342.27,-476.42 1344,-478 1371.75,-503.33 1352.4,-529.65 1381,-554 1387.26,-559.33 1394.99,-563.17 1402.85,-565.93"/>
<polygon fill="midnightblue" stroke="midnightblue" points="1339.98,-470.34 1329.64,-468.02 1336.27,-476.28 1339.98,-470.34"/>
</g>
<!-- Node27 -->
<g id="node28" class="node">
<title>Node27</title>
<g id="a_node28"><a xlink:href="class_voltage_divider_r1.html" target="_top" xlink:title=" ">
<polygon fill="white" stroke="black" points="1398.5,-525.5 1398.5,-544.5 1491.5,-544.5 1491.5,-525.5 1398.5,-525.5"/>
<text text-anchor="middle" x="1445" y="-532.5" font-family="Helvetica,sans-Serif" font-size="10.00">VoltageDividerR1</text>
</a>
</g>
</g>
<!-- Node18&#45;&gt;Node27 -->
<g id="edge28" class="edge">
<title>Node18&#45;&gt;Node27</title>
<path fill="none" stroke="midnightblue" d="M1334.68,-472.54C1337.91,-474.24 1341.04,-476.06 1344,-478 1363.71,-490.93 1360.85,-503.76 1381,-516 1387.35,-519.85 1394.53,-522.98 1401.72,-525.49"/>
<polygon fill="midnightblue" stroke="midnightblue" points="1335.93,-469.25 1325.4,-468.04 1332.88,-475.55 1335.93,-469.25"/>
</g>
<!-- Node28 -->
<g id="node29" class="node">
<title>Node28</title>
<g id="a_node29"><a xlink:href="class_voltage_divider_r2.html" target="_top" xlink:title=" ">
<polygon fill="white" stroke="black" points="1398.5,-487.5 1398.5,-506.5 1491.5,-506.5 1491.5,-487.5 1398.5,-487.5"/>
<text text-anchor="middle" x="1445" y="-494.5" font-family="Helvetica,sans-Serif" font-size="10.00">VoltageDividerR2</text>
</a>
</g>
</g>
<!-- Node18&#45;&gt;Node28 -->
<g id="edge29" class="edge">
<title>Node18&#45;&gt;Node28</title>
<path fill="none" stroke="midnightblue" d="M1341.3,-469.78C1363.86,-475.76 1388.49,-482.29 1407.97,-487.45"/>
<polygon fill="midnightblue" stroke="midnightblue" points="1342,-466.34 1331.44,-467.16 1340.21,-473.11 1342,-466.34"/>
</g>
<!-- Node31 -->
<g id="node31" class="node">
<title>Node31</title>
<g id="a_node31"><a xlink:href="class_lambda_transform.html" target="_top" xlink:title="Construct a new transform based on a single function.">
<polygon fill="white" stroke="black" points="964,-269.5 964,-310.5 1082,-310.5 1082,-269.5 964,-269.5"/>
<text text-anchor="start" x="972" y="-298.5" font-family="Helvetica,sans-Serif" font-size="10.00">LambdaTransform&lt; IN,</text>
<text text-anchor="start" x="972" y="-287.5" font-family="Helvetica,sans-Serif" font-size="10.00"> OUT, P1, P2, P3, P4,</text>
<text text-anchor="middle" x="1023" y="-276.5" font-family="Helvetica,sans-Serif" font-size="10.00"> P5, P6 &gt;</text>
</a>
</g>
</g>
<!-- Node30&#45;&gt;Node31 -->
<g id="edge31" class="edge">
<title>Node30&#45;&gt;Node31</title>
<path fill="none" stroke="midnightblue" d="M799.33,-290C849.16,-290 916.33,-290 963.83,-290"/>
<polygon fill="midnightblue" stroke="midnightblue" points="799.29,-286.5 789.29,-290 799.29,-293.5 799.29,-286.5"/>
</g>
<!-- Node32 -->
<g id="node32" class="node">
<title>Node32</title>
<g id="a_node32"><a xlink:href="class_lambda_transform.html" target="_top" xlink:title=" ">
<polygon fill="white" stroke="red" points="1210,-300 1210,-330 1344,-330 1344,-300 1210,-300"/>
<text text-anchor="start" x="1218" y="-318" font-family="Helvetica,sans-Serif" font-size="10.00">LambdaTransform&lt; IN,</text>
<text text-anchor="middle" x="1277" y="-307" font-family="Helvetica,sans-Serif" font-size="10.00"> OUT, IN, IN, OUT, OUT &gt;</text>
</a>
</g>
</g>
<!-- Node30&#45;&gt;Node32 -->
<g id="edge37" class="edge">
<title>Node30&#45;&gt;Node32</title>
<path fill="none" stroke="midnightblue" d="M799.15,-300.34C807.84,-301.61 816.63,-302.86 825,-304 986.97,-326 1029.02,-340.54 1192,-328 1197.74,-327.56 1203.68,-326.95 1209.62,-326.24"/>
<polygon fill="midnightblue" stroke="midnightblue" points="799.42,-296.85 789.02,-298.85 798.4,-303.77 799.42,-296.85"/>
</g>
<!-- Node34 -->
<g id="node33" class="node">
<title>Node34</title>
<g id="a_node33"><a xlink:href="class_lambda_transform.html" target="_top" xlink:title=" ">
<polygon fill="white" stroke="red" points="1218,-237 1218,-267 1336,-267 1336,-237 1218,-237"/>
<text text-anchor="start" x="1226" y="-255" font-family="Helvetica,sans-Serif" font-size="10.00">LambdaTransform&lt; IN,</text>
<text text-anchor="middle" x="1277" y="-244" font-family="Helvetica,sans-Serif" font-size="10.00"> OUT &gt;</text>
</a>
</g>
</g>
<!-- Node30&#45;&gt;Node34 -->
<g id="edge36" class="edge">
<title>Node30&#45;&gt;Node34</title>
<path fill="none" stroke="midnightblue" d="M799.29,-279.1C843.9,-272.36 903.79,-264.2 957,-260 1047.99,-252.81 1153.98,-251.56 1217.98,-251.59"/>
<polygon fill="midnightblue" stroke="midnightblue" points="798.51,-275.68 789.16,-280.65 799.57,-282.6 798.51,-275.68"/>
</g>
<!-- Node31&#45;&gt;Node16 -->
<g id="edge35" class="edge">
<title>Node31&#45;&gt;Node16</title>
<path fill="none" stroke="orange" stroke-dasharray="5,2" d="M1069.34,-315.2C1081.35,-321.24 1094.47,-327.3 1107,-332 1141.58,-344.97 1181.59,-355.34 1213.99,-362.65"/>
<polygon fill="orange" stroke="orange" points="1070.9,-312.06 1060.4,-310.6 1067.7,-318.29 1070.9,-312.06"/>
<text text-anchor="start" x="1107.5" y="-370" font-family="Helvetica,sans-Serif" font-size="10.00"> &lt; float, float, float,</text>
<text text-anchor="middle" x="1149.5" y="-359" font-family="Helvetica,sans-Serif" font-size="10.00"> float &gt;</text>
</g>
<!-- Node31&#45;&gt;Node32 -->
<g id="edge32" class="edge">
<title>Node31&#45;&gt;Node32</title>
<path fill="none" stroke="orange" stroke-dasharray="5,2" d="M1092.43,-296.33C1122.92,-299.2 1159.26,-302.69 1192,-306 1197.84,-306.59 1203.9,-307.22 1209.98,-307.85"/>
<polygon fill="orange" stroke="orange" points="1092.61,-292.83 1082.33,-295.38 1091.96,-299.8 1092.61,-292.83"/>
<text text-anchor="start" x="1107" y="-320" font-family="Helvetica,sans-Serif" font-size="10.00"> &lt; IN, OUT, IN, IN,</text>
<text text-anchor="middle" x="1149.5" y="-309" font-family="Helvetica,sans-Serif" font-size="10.00"> OUT, OUT &gt;</text>
</g>
<!-- Node31&#45;&gt;Node34 -->
<g id="edge33" class="edge">
<title>Node31&#45;&gt;Node34</title>
<path fill="none" stroke="orange" stroke-dasharray="5,2" d="M1092.15,-279.72C1131.42,-273.8 1180.26,-266.44 1217.73,-260.79"/>
<polygon fill="orange" stroke="orange" points="1091.5,-276.28 1082.13,-281.23 1092.54,-283.2 1091.5,-276.28"/>
<text text-anchor="middle" x="1149.5" y="-280" font-family="Helvetica,sans-Serif" font-size="10.00"> &lt; IN, OUT &gt;</text>
</g>
<!-- Node38 -->
<g id="node34" class="node">
<title>Node38</title>
<g id="a_node34"><a xlink:href="class_lambda_transform.html" target="_top" xlink:title=" ">
<polygon fill="white" stroke="red" points="1214,-183 1214,-213 1340,-213 1340,-183 1214,-183"/>
<text text-anchor="start" x="1222" y="-201" font-family="Helvetica,sans-Serif" font-size="10.00">LambdaTransform&lt; float,</text>
<text text-anchor="middle" x="1277" y="-190" font-family="Helvetica,sans-Serif" font-size="10.00"> int &gt;</text>
</a>
</g>
</g>
<!-- Node31&#45;&gt;Node38 -->
<g id="edge34" class="edge">
<title>Node31&#45;&gt;Node38</title>
<path fill="none" stroke="orange" stroke-dasharray="5,2" d="M1074.13,-265.11C1084.86,-260.16 1096.21,-255.2 1107,-251 1144.53,-236.37 1187.91,-222.84 1221.32,-213.11"/>
<polygon fill="orange" stroke="orange" points="1072.46,-262.03 1064.89,-269.44 1075.43,-268.37 1072.46,-262.03"/>
<text text-anchor="middle" x="1149.5" y="-254" font-family="Helvetica,sans-Serif" font-size="10.00"> &lt; float, int &gt;</text>
</g>
<!-- Node40 -->
<g id="node36" class="node">
<title>Node40</title>
<g id="a_node36"><a xlink:href="class_truth_to_text.html" target="_top" xlink:title="Consumes a boolean value and outputs one the appropriate truth string specified in the constructor....">
<polygon fill="white" stroke="black" points="989,-152.5 989,-171.5 1057,-171.5 1057,-152.5 989,-152.5"/>
<text text-anchor="middle" x="1023" y="-159.5" font-family="Helvetica,sans-Serif" font-size="10.00">TruthToText</text>
</a>
</g>
</g>
<!-- Node39&#45;&gt;Node40 -->
<g id="edge39" class="edge">
<title>Node39&#45;&gt;Node40</title>
<path fill="none" stroke="midnightblue" d="M775.74,-200.65C794.98,-195.35 815.37,-189.92 825,-188 882.01,-176.63 949.32,-168.96 988.67,-165.05"/>
<polygon fill="midnightblue" stroke="midnightblue" points="774.55,-197.35 765.85,-203.4 776.42,-204.1 774.55,-197.35"/>
</g>
<!-- Node41&#45;&gt;Node11 -->
<g id="edge41" class="edge">
<title>Node41&#45;&gt;Node11</title>
<path fill="none" stroke="midnightblue" d="M797.47,-453.93C850,-461.9 922.71,-472.94 970.99,-480.26"/>
<polygon fill="midnightblue" stroke="midnightblue" points="797.98,-450.47 787.57,-452.43 796.93,-457.39 797.98,-450.47"/>
</g>
<!-- Node42&#45;&gt;Node38 -->
<g id="edge43" class="edge">
<title>Node42&#45;&gt;Node38</title>
<path fill="none" stroke="midnightblue" d="M949.43,-205.48C1023.36,-203.79 1141.86,-201.07 1213.96,-199.42"/>
<polygon fill="midnightblue" stroke="midnightblue" points="949.22,-201.98 939.31,-205.71 949.38,-208.98 949.22,-201.98"/>
</g>
<!-- Node44 -->
<g id="node40" class="node">
<title>Node44</title>
<g id="a_node40"><a xlink:href="class_frequency.html" target="_top" xlink:title=" ">
<polygon fill="white" stroke="black" points="992,-114.5 992,-133.5 1054,-133.5 1054,-114.5 992,-114.5"/>
<text text-anchor="middle" x="1023" y="-121.5" font-family="Helvetica,sans-Serif" font-size="10.00">Frequency</text>
</a>
</g>
</g>
<!-- Node43&#45;&gt;Node44 -->
<g id="edge45" class="edge">
<title>Node43&#45;&gt;Node44</title>
<path fill="none" stroke="midnightblue" d="M772.83,-160.68C788.96,-156.17 807.74,-151.35 825,-148 883.51,-136.63 952.91,-129.67 991.76,-126.35"/>
<polygon fill="midnightblue" stroke="midnightblue" points="771.83,-157.33 763.17,-163.44 773.74,-164.06 771.83,-157.33"/>
</g>
<!-- Node45&#45;&gt;Node13 -->
<g id="edge47" class="edge">
<title>Node45&#45;&gt;Node13</title>
<path fill="none" stroke="midnightblue" d="M802.24,-534.42C854.23,-536.21 923.88,-538.62 970.71,-540.23"/>
<polygon fill="midnightblue" stroke="midnightblue" points="802.2,-530.92 792.09,-534.07 801.96,-537.91 802.2,-530.92"/>
</g>
<!-- Node47 -->
<g id="node43" class="node">
<title>Node47</title>
<g id="a_node43"><a xlink:href="class_time_string.html" target="_top" xlink:title=" ">
<polygon fill="white" stroke="red" points="991,-76.5 991,-95.5 1055,-95.5 1055,-76.5 991,-76.5"/>
<text text-anchor="middle" x="1023" y="-83.5" font-family="Helvetica,sans-Serif" font-size="10.00">TimeString</text>
</a>
</g>
</g>
<!-- Node46&#45;&gt;Node47 -->
<g id="edge49" class="edge">
<title>Node46&#45;&gt;Node47</title>
<path fill="none" stroke="midnightblue" d="M791.28,-115.35C802.46,-113.47 814.08,-111.6 825,-110 883.46,-101.42 952.01,-93.56 990.89,-89.31"/>
<polygon fill="midnightblue" stroke="midnightblue" points="790.43,-111.95 781.16,-117.08 791.6,-118.85 790.43,-111.95"/>
</g>
<!-- Node50 -->
<g id="node45" class="node">
<title>Node50</title>
<g id="a_node45"><a xlink:href="class_symmetric_transform.html" target="_top" xlink:title=" ">
<polygon fill="white" stroke="red" points="957,-434.5 957,-453.5 1089,-453.5 1089,-434.5 957,-434.5"/>
<text text-anchor="middle" x="1023" y="-441.5" font-family="Helvetica,sans-Serif" font-size="10.00">SymmetricTransform&lt; T &gt;</text>
</a>
</g>
</g>
<!-- Node49&#45;&gt;Node50 -->
<g id="edge51" class="edge">
<title>Node49&#45;&gt;Node50</title>
<path fill="none" stroke="midnightblue" d="M788.56,-413.41C836.84,-419.74 906.29,-428.84 956.88,-435.47"/>
<polygon fill="midnightblue" stroke="midnightblue" points="788.96,-409.93 778.59,-412.11 788.05,-416.88 788.96,-409.93"/>
</g>
<!-- Node50&#45;&gt;Node18 -->
<g id="edge52" class="edge">
<title>Node50&#45;&gt;Node18</title>
<path fill="none" stroke="orange" stroke-dasharray="5,2" d="M1099.32,-447.69C1101.91,-447.8 1104.48,-447.9 1107,-448 1145.72,-449.51 1189.44,-450.79 1222.71,-451.68"/>
<polygon fill="orange" stroke="orange" points="1099.38,-444.19 1089.24,-447.26 1099.08,-451.18 1099.38,-444.19"/>
<text text-anchor="middle" x="1149.5" y="-453" font-family="Helvetica,sans-Serif" font-size="10.00"> &lt; float &gt;</text>
</g>
<!-- Node59 -->
<g id="node47" class="node">
<title>Node59</title>
<g id="a_node47"><a xlink:href="class_text_to_truth.html" target="_top" xlink:title="Consumes a string and outputs boolean &quot;true&quot; if the text represents a human readable version of &quot;true...">
<polygon fill="white" stroke="black" points="989,-38.5 989,-57.5 1057,-57.5 1057,-38.5 989,-38.5"/>
<text text-anchor="middle" x="1023" y="-45.5" font-family="Helvetica,sans-Serif" font-size="10.00">TextToTruth</text>
</a>
</g>
</g>
<!-- Node58&#45;&gt;Node59 -->
<g id="edge54" class="edge">
<title>Node58&#45;&gt;Node59</title>
<path fill="none" stroke="midnightblue" d="M790.22,-70.38C849.76,-64.63 940.19,-55.9 988.61,-51.22"/>
<polygon fill="midnightblue" stroke="midnightblue" points="789.83,-66.9 780.21,-71.34 790.5,-73.87 789.83,-66.9"/>
</g>
<!-- Node61 -->
<g id="node49" class="node">
<title>Node61</title>
<g id="a_node49"><a xlink:href="class_click_type.html" target="_top" xlink:title="ClickType adds a time element to button presses. It measures the time between a button press and its ...">
<polygon fill="white" stroke="black" points="993,-0.5 993,-19.5 1053,-19.5 1053,-0.5 993,-0.5"/>
<text text-anchor="middle" x="1023" y="-7.5" font-family="Helvetica,sans-Serif" font-size="10.00">ClickType</text>
</a>
</g>
</g>
<!-- Node60&#45;&gt;Node61 -->
<g id="edge56" class="edge">
<title>Node60&#45;&gt;Node61</title>
<path fill="none" stroke="midnightblue" d="M817.18,-21.3C876.5,-18.03 952.01,-13.86 992.75,-11.61"/>
<polygon fill="midnightblue" stroke="midnightblue" points="816.85,-17.81 807.06,-21.86 817.24,-24.8 816.85,-17.81"/>
</g>
</g>
</svg>
