<?xml version="1.0" encoding="UTF-8" standalone="no"?>
<!DOCTYPE svg PUBLIC "-//W3C//DTD SVG 1.1//EN"
 "http://www.w3.org/Graphics/SVG/1.1/DTD/svg11.dtd">
<!-- Generated by graphviz version 2.44.1 (20200629.0846)
 -->
<!-- Title: IntegerThreshold Pages: 1 -->
<svg width="1189pt" height="252pt"
 viewBox="0.00 0.00 1189.00 252.00" xmlns="http://www.w3.org/2000/svg" xmlns:xlink="http://www.w3.org/1999/xlink">
<g id="graph0" class="graph" transform="scale(1 1) rotate(0) translate(4 248)">
<title>IntegerThreshold</title>
<polygon fill="white" stroke="transparent" points="-4,4 -4,-248 1185,-248 1185,4 -4,4"/>
<!-- Node0 -->
<g id="node1" class="node">
<title>Node0</title>
<g id="a_node1"><a xlink:title="A Transform that translates an integer value into a boolean value. min_value and MaxValue set a range...">
<polygon fill="#bfbfbf" stroke="black" points="1092,-110.5 1092,-129.5 1181,-129.5 1181,-110.5 1092,-110.5"/>
<text text-anchor="middle" x="1136.5" y="-117.5" font-family="Helvetica,sans-Serif" font-size="10.00">IntegerThreshold</text>
</a>
</g>
</g>
<!-- Node1 -->
<g id="node2" class="node">
<title>Node1</title>
<g id="a_node2"><a xlink:href="class_threshold_transform.html" target="_top" xlink:title=" ">
<polygon fill="white" stroke="black" points="951,-105 951,-135 1055,-135 1055,-105 951,-105"/>
<text text-anchor="start" x="959" y="-123" font-family="Helvetica,sans-Serif" font-size="10.00">ThresholdTransform</text>
<text text-anchor="middle" x="1003" y="-112" font-family="Helvetica,sans-Serif" font-size="10.00">&lt; int, bool &gt;</text>
</a>
</g>
</g>
<!-- Node1&#45;&gt;Node0 -->
<g id="edge1" class="edge">
<title>Node1&#45;&gt;Node0</title>
<path fill="none" stroke="midnightblue" d="M1065.28,-120C1074.26,-120 1083.35,-120 1091.88,-120"/>
<polygon fill="midnightblue" stroke="midnightblue" points="1065.22,-116.5 1055.22,-120 1065.22,-123.5 1065.22,-116.5"/>
</g>
<!-- Node2 -->
<g id="node3" class="node">
<title>Node2</title>
<g id="a_node3"><a xlink:href="class_transform.html" target="_top" xlink:title=" ">
<polygon fill="white" stroke="black" points="746,-130.5 746,-149.5 859,-149.5 859,-130.5 746,-130.5"/>
<text text-anchor="middle" x="802.5" y="-137.5" font-family="Helvetica,sans-Serif" font-size="10.00">Transform&lt; int, bool &gt;</text>
</a>
</g>
</g>
<!-- Node2&#45;&gt;Node1 -->
<g id="edge2" class="edge">
<title>Node2&#45;&gt;Node1</title>
<path fill="none" stroke="midnightblue" d="M869.06,-133.39C895.67,-130.71 925.95,-127.66 950.88,-125.15"/>
<polygon fill="midnightblue" stroke="midnightblue" points="868.66,-129.92 859.06,-134.4 869.36,-136.88 868.66,-129.92"/>
</g>
<!-- Node3 -->
<g id="node4" class="node">
<title>Node3</title>
<g id="a_node4"><a xlink:href="class_transform_base.html" target="_top" xlink:title="The base class for all transforms. All transforms are can be subscribed to by calling attach() (inher...">
<polygon fill="white" stroke="black" points="305.5,-40.5 305.5,-59.5 388.5,-59.5 388.5,-40.5 305.5,-40.5"/>
<text text-anchor="middle" x="347" y="-47.5" font-family="Helvetica,sans-Serif" font-size="10.00">TransformBase</text>
</a>
</g>
</g>
<!-- Node3&#45;&gt;Node2 -->
<g id="edge3" class="edge">
<title>Node3&#45;&gt;Node2</title>
<path fill="none" stroke="midnightblue" d="M399.13,-52.81C437.31,-55.41 490.67,-60.1 537,-68 589.81,-77.01 602.27,-83.06 654,-97 694.31,-107.87 740.46,-121.52 770.24,-130.49"/>
<polygon fill="midnightblue" stroke="midnightblue" points="398.99,-49.3 388.78,-52.14 398.53,-56.28 398.99,-49.3"/>
</g>
<!-- Node11 -->
<g id="node12" class="node">
<title>Node11</title>
<g id="a_node12"><a xlink:href="class_transform.html" target="_top" xlink:title="The main Transform class. A transform is identified primarily by the type of value that is produces (...">
<polygon fill="white" stroke="black" points="555,-106.5 555,-125.5 654,-125.5 654,-106.5 555,-106.5"/>
<text text-anchor="middle" x="604.5" y="-113.5" font-family="Helvetica,sans-Serif" font-size="10.00">Transform&lt; C, P &gt;</text>
</a>
</g>
</g>
<!-- Node3&#45;&gt;Node11 -->
<g id="edge13" class="edge">
<title>Node3&#45;&gt;Node11</title>
<path fill="none" stroke="midnightblue" d="M394.69,-62.06C444.16,-74.84 521.26,-94.76 566.63,-106.48"/>
<polygon fill="midnightblue" stroke="midnightblue" points="395.44,-58.64 384.88,-59.53 393.69,-65.42 395.44,-58.64"/>
</g>
<!-- Node4 -->
<g id="node5" class="node">
<title>Node4</title>
<g id="a_node5"><a xlink:href="class_configurable.html" target="_top" xlink:title="An object that is capable of having configuration data that can be set remotely using a RESTful API,...">
<polygon fill="white" stroke="black" points="122.5,-38.5 122.5,-57.5 193.5,-57.5 193.5,-38.5 122.5,-38.5"/>
<text text-anchor="middle" x="158" y="-45.5" font-family="Helvetica,sans-Serif" font-size="10.00">Configurable</text>
</a>
</g>
</g>
<!-- Node4&#45;&gt;Node3 -->
<g id="edge4" class="edge">
<title>Node4&#45;&gt;Node3</title>
<path fill="none" stroke="midnightblue" d="M203.79,-48.48C234.65,-48.81 275.32,-49.24 305.27,-49.56"/>
<polygon fill="midnightblue" stroke="midnightblue" points="203.77,-44.98 193.74,-48.37 203.7,-51.98 203.77,-44.98"/>
</g>
<!-- Node5 -->
<g id="node6" class="node">
<title>Node5</title>
<g id="a_node6"><a xlink:href="class_enable.html" target="_top" xlink:title="Classes that implement &quot;Enable&quot; will have their enable() method called automatically at startup when ...">
<polygon fill="white" stroke="black" points="134.5,-0.5 134.5,-19.5 181.5,-19.5 181.5,-0.5 134.5,-0.5"/>
<text text-anchor="middle" x="158" y="-7.5" font-family="Helvetica,sans-Serif" font-size="10.00">Enable</text>
</a>
</g>
</g>
<!-- Node5&#45;&gt;Node3 -->
<g id="edge5" class="edge">
<title>Node5&#45;&gt;Node3</title>
<path fill="none" stroke="midnightblue" d="M191.6,-16.97C223.19,-23.73 271.2,-34 305.29,-41.29"/>
<polygon fill="midnightblue" stroke="midnightblue" points="192.07,-13.49 181.56,-14.82 190.6,-20.34 192.07,-13.49"/>
</g>
<!-- Node6 -->
<g id="node7" class="node">
<title>Node6</title>
<g id="a_node7"><a xlink:href="class_value_consumer.html" target="_top" xlink:title=" ">
<polygon fill="white" stroke="black" points="423,-224.5 423,-243.5 537,-243.5 537,-224.5 423,-224.5"/>
<text text-anchor="middle" x="480" y="-231.5" font-family="Helvetica,sans-Serif" font-size="10.00">ValueConsumer&lt; int &gt;</text>
</a>
</g>
</g>
<!-- Node6&#45;&gt;Node2 -->
<g id="edge6" class="edge">
<title>Node6&#45;&gt;Node2</title>
<path fill="none" stroke="midnightblue" d="M533.4,-222.12C583.76,-210.25 661.77,-190.7 728,-169 745.47,-163.28 764.79,-155.6 779.23,-149.58"/>
<polygon fill="midnightblue" stroke="midnightblue" points="532.34,-218.77 523.4,-224.46 533.93,-225.59 532.34,-218.77"/>
</g>
<!-- Node7 -->
<g id="node8" class="node">
<title>Node7</title>
<g id="a_node8"><a xlink:href="class_value_consumer.html" target="_top" xlink:title="A base class for piece of code (like a transform) that accepts data for input. ValueConsumers can acc...">
<polygon fill="white" stroke="black" points="103,-221.5 103,-240.5 213,-240.5 213,-221.5 103,-221.5"/>
<text text-anchor="middle" x="158" y="-228.5" font-family="Helvetica,sans-Serif" font-size="10.00">ValueConsumer&lt; T &gt;</text>
</a>
</g>
</g>
<!-- Node7&#45;&gt;Node6 -->
<g id="edge7" class="edge">
<title>Node7&#45;&gt;Node6</title>
<path fill="none" stroke="orange" stroke-dasharray="5,2" d="M223.51,-231.6C281.93,-232.15 367.15,-232.95 422.83,-233.47"/>
<polygon fill="orange" stroke="orange" points="223.32,-228.1 213.28,-231.51 223.25,-235.1 223.32,-228.1"/>
<text text-anchor="middle" x="251" y="-234" font-family="Helvetica,sans-Serif" font-size="10.00"> &lt; int &gt;</text>
</g>
<!-- Node12 -->
<g id="node13" class="node">
<title>Node12</title>
<g id="a_node13"><a xlink:href="class_value_consumer.html" target="_top" xlink:title=" ">
<polygon fill="white" stroke="black" points="291.5,-191.5 291.5,-210.5 402.5,-210.5 402.5,-191.5 291.5,-191.5"/>
<text text-anchor="middle" x="347" y="-198.5" font-family="Helvetica,sans-Serif" font-size="10.00">ValueConsumer&lt; C &gt;</text>
</a>
</g>
</g>
<!-- Node7&#45;&gt;Node12 -->
<g id="edge15" class="edge">
<title>Node7&#45;&gt;Node12</title>
<path fill="none" stroke="orange" stroke-dasharray="5,2" d="M202.69,-219.03C211.98,-216.78 221.77,-214.63 231,-213 250.57,-209.55 272.2,-206.97 291.38,-205.11"/>
<polygon fill="orange" stroke="orange" points="201.7,-215.67 192.85,-221.49 203.4,-222.46 201.7,-215.67"/>
<text text-anchor="middle" x="251" y="-216" font-family="Helvetica,sans-Serif" font-size="10.00"> &lt; C &gt;</text>
</g>
<!-- Node8 -->
<g id="node9" class="node">
<title>Node8</title>
<g id="a_node9"><a xlink:href="class_value_producer.html" target="_top" xlink:title=" ">
<polygon fill="white" stroke="black" points="289,-145.5 289,-164.5 405,-164.5 405,-145.5 289,-145.5"/>
<text text-anchor="middle" x="347" y="-152.5" font-family="Helvetica,sans-Serif" font-size="10.00">ValueProducer&lt; bool &gt;</text>
</a>
</g>
</g>
<!-- Node8&#45;&gt;Node2 -->
<g id="edge8" class="edge">
<title>Node8&#45;&gt;Node2</title>
<path fill="none" stroke="midnightblue" d="M415.52,-152.77C505.37,-149.79 662.59,-144.59 745.95,-141.84"/>
<polygon fill="midnightblue" stroke="midnightblue" points="415.31,-149.27 405.44,-153.1 415.55,-156.27 415.31,-149.27"/>
</g>
<!-- Node9 -->
<g id="node10" class="node">
<title>Node9</title>
<g id="a_node10"><a xlink:href="class_observable.html" target="_top" xlink:title="A base class which allow observers to attach callbacks to themselves. The callbacks will be called wh...">
<polygon fill="white" stroke="black" points="0,-122.5 0,-141.5 66,-141.5 66,-122.5 0,-122.5"/>
<text text-anchor="middle" x="33" y="-129.5" font-family="Helvetica,sans-Serif" font-size="10.00">Observable</text>
</a>
</g>
</g>
<!-- Node9&#45;&gt;Node8 -->
<g id="edge9" class="edge">
<title>Node9&#45;&gt;Node8</title>
<path fill="none" stroke="midnightblue" d="M73.03,-144.28C82.74,-146.91 93.17,-149.38 103,-151 176.77,-163.19 196.27,-162.49 271,-160 276.74,-159.81 282.72,-159.54 288.69,-159.21"/>
<polygon fill="midnightblue" stroke="midnightblue" points="73.82,-140.87 63.25,-141.51 71.92,-147.6 73.82,-140.87"/>
</g>
<!-- Node10 -->
<g id="node11" class="node">
<title>Node10</title>
<g id="a_node11"><a xlink:href="class_value_producer.html" target="_top" xlink:title="A base class for any sensor or piece of code that outputs a value for consumption elsewhere.">
<polygon fill="white" stroke="black" points="106,-122.5 106,-141.5 210,-141.5 210,-122.5 106,-122.5"/>
<text text-anchor="middle" x="158" y="-129.5" font-family="Helvetica,sans-Serif" font-size="10.00">ValueProducer&lt; T &gt;</text>
</a>
</g>
</g>
<!-- Node9&#45;&gt;Node10 -->
<g id="edge11" class="edge">
<title>Node9&#45;&gt;Node10</title>
<path fill="none" stroke="midnightblue" d="M76.32,-132C85.84,-132 96.04,-132 105.87,-132"/>
<polygon fill="midnightblue" stroke="midnightblue" points="76.32,-128.5 66.32,-132 76.32,-135.5 76.32,-128.5"/>
</g>
<!-- Node13 -->
<g id="node14" class="node">
<title>Node13</title>
<g id="a_node14"><a xlink:href="class_value_producer.html" target="_top" xlink:title=" ">
<polygon fill="white" stroke="black" points="295,-106.5 295,-125.5 399,-125.5 399,-106.5 295,-106.5"/>
<text text-anchor="middle" x="347" y="-113.5" font-family="Helvetica,sans-Serif" font-size="10.00">ValueProducer&lt; P &gt;</text>
</a>
</g>
</g>
<!-- Node9&#45;&gt;Node13 -->
<g id="edge17" class="edge">
<title>Node9&#45;&gt;Node13</title>
<path fill="none" stroke="midnightblue" d="M71.58,-119.69C81.67,-116.92 92.66,-114.4 103,-113 168.64,-104.13 245.17,-107.27 294.54,-111.02"/>
<polygon fill="midnightblue" stroke="midnightblue" points="70.48,-116.36 61.84,-122.5 72.42,-123.09 70.48,-116.36"/>
</g>
<!-- Node10&#45;&gt;Node8 -->
<g id="edge10" class="edge">
<title>Node10&#45;&gt;Node8</title>
<path fill="none" stroke="orange" stroke-dasharray="5,2" d="M220.03,-139.51C242.11,-142.22 266.95,-145.28 288.7,-147.95"/>
<polygon fill="orange" stroke="orange" points="220.45,-136.03 210.1,-138.28 219.6,-142.98 220.45,-136.03"/>
<text text-anchor="middle" x="251" y="-148" font-family="Helvetica,sans-Serif" font-size="10.00"> &lt; bool &gt;</text>
</g>
<!-- Node10&#45;&gt;Node13 -->
<g id="edge18" class="edge">
<title>Node10&#45;&gt;Node13</title>
<path fill="none" stroke="orange" stroke-dasharray="5,2" d="M219.93,-121.28C223.67,-120.79 227.38,-120.36 231,-120 251.87,-117.91 274.97,-116.86 294.95,-116.35"/>
<polygon fill="orange" stroke="orange" points="219.45,-117.81 210.02,-122.65 220.41,-124.74 219.45,-117.81"/>
<text text-anchor="middle" x="251" y="-123" font-family="Helvetica,sans-Serif" font-size="10.00"> &lt; P &gt;</text>
</g>
<!-- Node11&#45;&gt;Node2 -->
<g id="edge12" class="edge">
<title>Node11&#45;&gt;Node2</title>
<path fill="none" stroke="orange" stroke-dasharray="5,2" d="M664.13,-122.44C684.38,-124.74 707.2,-127.4 728,-130 733.75,-130.72 739.75,-131.5 745.73,-132.29"/>
<polygon fill="orange" stroke="orange" points="664.44,-118.96 654.11,-121.31 663.66,-125.91 664.44,-118.96"/>
<text text-anchor="middle" x="700" y="-133" font-family="Helvetica,sans-Serif" font-size="10.00"> &lt; int, bool &gt;</text>
</g>
<!-- Node14 -->
<g id="node15" class="node">
<title>Node14</title>
<g id="a_node15"><a xlink:href="class_threshold_transform.html" target="_top" xlink:title="A Transform base class that translates the value of type C into value of type P. Base class for class...">
<polygon fill="white" stroke="black" points="750.5,-81 750.5,-111 854.5,-111 854.5,-81 750.5,-81"/>
<text text-anchor="start" x="758.5" y="-99" font-family="Helvetica,sans-Serif" font-size="10.00">ThresholdTransform</text>
<text text-anchor="middle" x="802.5" y="-88" font-family="Helvetica,sans-Serif" font-size="10.00">&lt; C, P &gt;</text>
</a>
</g>
</g>
<!-- Node11&#45;&gt;Node14 -->
<g id="edge20" class="edge">
<title>Node11&#45;&gt;Node14</title>
<path fill="none" stroke="midnightblue" d="M664.42,-109.99C691.78,-107.2 723.99,-103.91 750.31,-101.22"/>
<polygon fill="midnightblue" stroke="midnightblue" points="663.79,-106.53 654.2,-111.03 664.5,-113.5 663.79,-106.53"/>
</g>
<!-- Node12&#45;&gt;Node11 -->
<g id="edge14" class="edge">
<title>Node12&#45;&gt;Node11</title>
<path fill="none" stroke="midnightblue" d="M386.6,-188.16C438.27,-170.97 528.73,-140.87 574.79,-125.55"/>
<polygon fill="midnightblue" stroke="midnightblue" points="385.2,-184.94 376.81,-191.41 387.41,-191.58 385.2,-184.94"/>
</g>
<!-- Node13&#45;&gt;Node11 -->
<g id="edge16" class="edge">
<title>Node13&#45;&gt;Node11</title>
<path fill="none" stroke="midnightblue" d="M409.21,-116C453.76,-116 513.29,-116 554.67,-116"/>
<polygon fill="midnightblue" stroke="midnightblue" points="409.09,-112.5 399.09,-116 409.09,-119.5 409.09,-112.5"/>
</g>
<!-- Node14&#45;&gt;Node1 -->
<g id="edge19" class="edge">
<title>Node14&#45;&gt;Node1</title>
<path fill="none" stroke="orange" stroke-dasharray="5,2" d="M864.56,-103.38C892.15,-106.72 924.39,-110.62 950.71,-113.8"/>
<polygon fill="orange" stroke="orange" points="864.97,-99.91 854.62,-102.18 864.13,-106.86 864.97,-99.91"/>
<text text-anchor="middle" x="905" y="-114" font-family="Helvetica,sans-Serif" font-size="10.00"> &lt; int, bool &gt;</text>
</g>
</g>
</svg>
