<?xml version="1.0" encoding="UTF-8" standalone="no"?>
<!DOCTYPE svg PUBLIC "-//W3C//DTD SVG 1.1//EN"
 "http://www.w3.org/Graphics/SVG/1.1/DTD/svg11.dtd">
<!-- Generated by graphviz version 2.49.3 (20211023.0002)
 -->
<!-- Title: ValueProducer::connect_to Pages: 1 -->
<svg width="313pt" height="104pt"
 viewBox="0.00 0.00 313.00 104.00" xmlns="http://www.w3.org/2000/svg" xmlns:xlink="http://www.w3.org/1999/xlink">
<g id="graph0" class="graph" transform="scale(1 1) rotate(0) translate(4 100)">
<title>ValueProducer::connect_to</title>
<polygon fill="white" stroke="transparent" points="-4,4 -4,-100 309,-100 309,4 -4,4"/>
<!-- Node1 -->
<g id="node1" class="node">
<title>Node1</title>
<g id="a_node1"><a xlink:title=" ">
<polygon fill="#bfbfbf" stroke="black" points="169,-38.5 169,-57.5 305,-57.5 305,-38.5 169,-38.5"/>
<text text-anchor="middle" x="237" y="-45.5" font-family="Helvetica,sans-Serif" font-size="10.00">ValueProducer::connect_to</text>
</a>
</g>
</g>
<!-- Node2 -->
<g id="node2" class="node">
<title>Node2</title>
<g id="a_node2"><a xlink:href="class_sens_e_s_p_app.html#aa41795cde59d1bb57906dff6102ee7dc" target="_top" xlink:title=" ">
<polygon fill="white" stroke="black" points="8,-76.5 8,-95.5 125,-95.5 125,-76.5 8,-76.5"/>
<text text-anchor="middle" x="66.5" y="-83.5" font-family="Helvetica,sans-Serif" font-size="10.00">SensESPApp::connect</text>
</a>
</g>
</g>
<!-- Node1&#45;&gt;Node2 -->
<g id="edge1" class="edge">
<title>Node1&#45;&gt;Node2</title>
<path fill="none" stroke="midnightblue" d="M183.57,-59.82C159.81,-65.18 132.1,-71.43 109.71,-76.48"/>
<polygon fill="midnightblue" stroke="midnightblue" points="184.5,-63.2 193.48,-57.59 182.96,-56.37 184.5,-63.2"/>
</g>
<!-- Node3 -->
<g id="node3" class="node">
<title>Node3</title>
<g id="a_node3"><a xlink:href="class_value_producer.html#a567a7940bdda6bace2c50704242f1d96" target="_top" xlink:title=" ">
<polygon fill="white" stroke="black" points="0,-38.5 0,-57.5 133,-57.5 133,-38.5 0,-38.5"/>
<text text-anchor="middle" x="66.5" y="-45.5" font-family="Helvetica,sans-Serif" font-size="10.00">ValueProducer::connectTo</text>
</a>
</g>
</g>
<!-- Node1&#45;&gt;Node3 -->
<g id="edge2" class="edge">
<title>Node1&#45;&gt;Node3</title>
<path fill="none" stroke="midnightblue" d="M158.92,-48C150.34,-48 141.67,-48 133.25,-48"/>
<polygon fill="midnightblue" stroke="midnightblue" points="158.92,-51.5 168.92,-48 158.92,-44.5 158.92,-51.5"/>
</g>
<!-- Node4 -->
<g id="node4" class="node">
<title>Node4</title>
<g id="a_node4"><a xlink:href="wiring__helpers_8cpp.html#ae36e0604b36693bd720bffcf4145baf9" target="_top" xlink:title=" ">
<polygon fill="white" stroke="black" points="8,-0.5 8,-19.5 125,-19.5 125,-0.5 8,-0.5"/>
<text text-anchor="middle" x="66.5" y="-7.5" font-family="Helvetica,sans-Serif" font-size="10.00">setup_fuel_flow_meter</text>
</a>
</g>
</g>
<!-- Node1&#45;&gt;Node4 -->
<g id="edge3" class="edge">
<title>Node1&#45;&gt;Node4</title>
<path fill="none" stroke="midnightblue" d="M183.57,-36.18C159.81,-30.82 132.1,-24.57 109.71,-19.52"/>
<polygon fill="midnightblue" stroke="midnightblue" points="182.96,-39.63 193.48,-38.41 184.5,-32.8 182.96,-39.63"/>
</g>
</g>
</svg>
