<?xml version="1.0" encoding="UTF-8" standalone="no"?>
<!DOCTYPE svg PUBLIC "-//W3C//DTD SVG 1.1//EN"
 "http://www.w3.org/Graphics/SVG/1.1/DTD/svg11.dtd">
<!-- Generated by graphviz version 2.44.1 (20200629.0846)
 -->
<!-- Title: EvenBlinker Pages: 1 -->
<svg width="90pt" height="196pt"
 viewBox="0.00 0.00 90.00 196.00" xmlns="http://www.w3.org/2000/svg" xmlns:xlink="http://www.w3.org/1999/xlink">
<g id="graph0" class="graph" transform="scale(1 1) rotate(0) translate(4 192)">
<title>EvenBlinker</title>
<polygon fill="white" stroke="transparent" points="-4,4 -4,-192 86,-192 86,4 -4,4"/>
<!-- Node0 -->
<g id="node1" class="node">
<title>Node0</title>
<g id="a_node1"><a xlink:title=" ">
<polygon fill="#bfbfbf" stroke="black" points="6.5,-0.5 6.5,-19.5 75.5,-19.5 75.5,-0.5 6.5,-0.5"/>
<text text-anchor="middle" x="41" y="-7.5" font-family="Helvetica,sans-Serif" font-size="10.00">EvenBlinker</text>
</a>
</g>
</g>
<!-- Node1 -->
<g id="node2" class="node">
<title>Node1</title>
<g id="a_node2"><a xlink:href="class_periodic_blinker.html" target="_top" xlink:title=" ">
<polygon fill="white" stroke="black" points="0,-56.5 0,-75.5 82,-75.5 82,-56.5 0,-56.5"/>
<text text-anchor="middle" x="41" y="-63.5" font-family="Helvetica,sans-Serif" font-size="10.00">PeriodicBlinker</text>
</a>
</g>
</g>
<!-- Node1&#45;&gt;Node0 -->
<g id="edge1" class="edge">
<title>Node1&#45;&gt;Node0</title>
<path fill="none" stroke="midnightblue" d="M41,-45.8C41,-36.91 41,-26.78 41,-19.75"/>
<polygon fill="midnightblue" stroke="midnightblue" points="37.5,-46.08 41,-56.08 44.5,-46.08 37.5,-46.08"/>
</g>
<!-- Node2 -->
<g id="node3" class="node">
<title>Node2</title>
<g id="a_node3"><a xlink:href="class_base_blinker.html" target="_top" xlink:title=" ">
<polygon fill="white" stroke="black" points="6.5,-112.5 6.5,-131.5 75.5,-131.5 75.5,-112.5 6.5,-112.5"/>
<text text-anchor="middle" x="41" y="-119.5" font-family="Helvetica,sans-Serif" font-size="10.00">BaseBlinker</text>
</a>
</g>
</g>
<!-- Node2&#45;&gt;Node1 -->
<g id="edge2" class="edge">
<title>Node2&#45;&gt;Node1</title>
<path fill="none" stroke="midnightblue" d="M41,-101.8C41,-92.91 41,-82.78 41,-75.75"/>
<polygon fill="midnightblue" stroke="midnightblue" points="37.5,-102.08 41,-112.08 44.5,-102.08 37.5,-102.08"/>
</g>
<!-- Node3 -->
<g id="node4" class="node">
<title>Node3</title>
<g id="a_node4"><a xlink:href="class_enable.html" target="_top" xlink:title=" ">
<polygon fill="white" stroke="black" points="17.5,-168.5 17.5,-187.5 64.5,-187.5 64.5,-168.5 17.5,-168.5"/>
<text text-anchor="middle" x="41" y="-175.5" font-family="Helvetica,sans-Serif" font-size="10.00">Enable</text>
</a>
</g>
</g>
<!-- Node3&#45;&gt;Node2 -->
<g id="edge3" class="edge">
<title>Node3&#45;&gt;Node2</title>
<path fill="none" stroke="midnightblue" d="M41,-157.8C41,-148.91 41,-138.78 41,-131.75"/>
<polygon fill="midnightblue" stroke="midnightblue" points="37.5,-158.08 41,-168.08 44.5,-158.08 37.5,-158.08"/>
</g>
</g>
</svg>
