<?xml version="1.0" encoding="UTF-8" standalone="no"?>
<!DOCTYPE svg PUBLIC "-//W3C//DTD SVG 1.1//EN"
 "http://www.w3.org/Graphics/SVG/1.1/DTD/svg11.dtd">
<!-- Generated by graphviz version 2.40.1 (20161225.0304)
 -->
<!-- Title: PatternBlinker::tick Pages: 1 -->
<svg width="696pt" height="319pt"
 viewBox="0.00 0.00 696.10 319.00" xmlns="http://www.w3.org/2000/svg" xmlns:xlink="http://www.w3.org/1999/xlink">
<g id="graph0" class="graph" transform="scale(1 1) rotate(0) translate(4 315)">
<title>PatternBlinker::tick</title>
<polygon fill="#ffffff" stroke="transparent" points="-4,4 -4,-315 692.1016,-315 692.1016,4 -4,4"/>
<!-- Node30 -->
<g id="node1" class="node">
<title>Node30</title>
<g id="a_node1"><a xlink:title=" ">
<polygon fill="#bfbfbf" stroke="#000000" points="588.7373,-146.5 588.7373,-164.5 688.1016,-164.5 688.1016,-146.5 588.7373,-146.5"/>
<text text-anchor="middle" x="638.4194" y="-152.5" font-family="Helvetica,sans-Serif" font-size="10.00" fill="#000000">PatternBlinker::tick</text>
</a>
</g>
</g>
<!-- Node31 -->
<g id="node2" class="node">
<title>Node31</title>
<g id="a_node2"><a xlink:href="class_pattern_blinker.html#acd7cdf3ec3693c715548321a8221fb00" target="_top" xlink:title=" ">
<polygon fill="#ffffff" stroke="#000000" points="440.0332,-146.5 440.0332,-164.5 552.7373,-164.5 552.7373,-146.5 440.0332,-146.5"/>
<text text-anchor="middle" x="496.3853" y="-152.5" font-family="Helvetica,sans-Serif" font-size="10.00" fill="#000000">PatternBlinker::restart</text>
</a>
</g>
</g>
<!-- Node30&#45;&gt;Node31 -->
<g id="edge1" class="edge">
<title>Node30&#45;&gt;Node31</title>
<path fill="none" stroke="#191970" d="M578.2011,-155.5C569.7748,-155.5 561.1408,-155.5 552.7887,-155.5"/>
<polygon fill="#191970" stroke="#191970" points="578.3435,-159.0001 588.3435,-155.5 578.3435,-152.0001 578.3435,-159.0001"/>
</g>
<!-- Node32 -->
<g id="node3" class="node">
<title>Node32</title>
<g id="a_node3"><a xlink:href="class_pattern_blinker.html#a8b9d3d21bac01d8ed8048cddb5b753b6" target="_top" xlink:title=" ">
<polygon fill="#ffffff" stroke="#000000" points="306.3291,-141.5 306.3291,-169.5 404.0332,-169.5 404.0332,-141.5 306.3291,-141.5"/>
<text text-anchor="start" x="314.3291" y="-157.5" font-family="Helvetica,sans-Serif" font-size="10.00" fill="#000000">PatternBlinker::set</text>
<text text-anchor="middle" x="355.1812" y="-147.5" font-family="Helvetica,sans-Serif" font-size="10.00" fill="#000000">_pattern</text>
</a>
</g>
</g>
<!-- Node31&#45;&gt;Node32 -->
<g id="edge2" class="edge">
<title>Node31&#45;&gt;Node32</title>
<path fill="none" stroke="#191970" d="M429.698,-155.5C421.0646,-155.5 412.353,-155.5 404.0815,-155.5"/>
<polygon fill="#191970" stroke="#191970" points="429.7658,-159.0001 439.7658,-155.5 429.7657,-152.0001 429.7658,-159.0001"/>
</g>
<!-- Node33 -->
<g id="node4" class="node">
<title>Node33</title>
<g id="a_node4"><a xlink:href="class_system_status_led.html#a10a7b5ba09bad8add2a30b8de8ecb4e5" target="_top" xlink:title=" ">
<polygon fill="#ffffff" stroke="#000000" points="153.1646,-282.5 153.1646,-310.5 266.4351,-310.5 266.4351,-282.5 153.1646,-282.5"/>
<text text-anchor="start" x="161.1646" y="-298.5" font-family="Helvetica,sans-Serif" font-size="10.00" fill="#000000">SystemStatusLed::set</text>
<text text-anchor="middle" x="209.7998" y="-288.5" font-family="Helvetica,sans-Serif" font-size="10.00" fill="#000000">_wifi_no_ap</text>
</a>
</g>
</g>
<!-- Node32&#45;&gt;Node33 -->
<g id="edge3" class="edge">
<title>Node32&#45;&gt;Node33</title>
<path fill="none" stroke="#191970" d="M343.8077,-178.7802C329.8526,-205.1312 303.8586,-247.7317 270.3291,-273.5 265.8724,-276.9251 260.8476,-279.8897 255.6466,-282.4429"/>
<polygon fill="#191970" stroke="#191970" points="347.096,-180.0391 348.5574,-169.5455 340.8711,-176.8374 347.096,-180.0391"/>
</g>
<!-- Node35 -->
<g id="node6" class="node">
<title>Node35</title>
<g id="a_node6"><a xlink:href="class_system_status_led.html#a25327ecc5ba90895e7e430c8ea28334c" target="_top" xlink:title=" ">
<polygon fill="#ffffff" stroke="#000000" points="153.1646,-235.5 153.1646,-263.5 266.4351,-263.5 266.4351,-235.5 153.1646,-235.5"/>
<text text-anchor="start" x="161.1646" y="-251.5" font-family="Helvetica,sans-Serif" font-size="10.00" fill="#000000">SystemStatusLed::set</text>
<text text-anchor="middle" x="209.7998" y="-241.5" font-family="Helvetica,sans-Serif" font-size="10.00" fill="#000000">_wifi_disconnected</text>
</a>
</g>
</g>
<!-- Node32&#45;&gt;Node35 -->
<g id="edge5" class="edge">
<title>Node32&#45;&gt;Node35</title>
<path fill="none" stroke="#191970" d="M333.9141,-176.7839C317.614,-192.1874 293.9721,-212.649 270.3291,-226.5 264.7033,-229.7958 258.5197,-232.7788 252.3198,-235.4216"/>
<polygon fill="#191970" stroke="#191970" points="336.517,-179.1364 341.294,-169.6796 331.6623,-174.0934 336.517,-179.1364"/>
</g>
<!-- Node36 -->
<g id="node7" class="node">
<title>Node36</title>
<g id="a_node7"><a xlink:href="class_system_status_led.html#a92d8fa42ec130bc6f1b82f63a4f4e5c3" target="_top" xlink:title=" ">
<polygon fill="#ffffff" stroke="#000000" points="149.2705,-188.5 149.2705,-216.5 270.3291,-216.5 270.3291,-188.5 149.2705,-188.5"/>
<text text-anchor="start" x="157.2705" y="-204.5" font-family="Helvetica,sans-Serif" font-size="10.00" fill="#000000">SystemStatusLed::set</text>
<text text-anchor="middle" x="209.7998" y="-194.5" font-family="Helvetica,sans-Serif" font-size="10.00" fill="#000000">_wifimanager_activated</text>
</a>
</g>
</g>
<!-- Node32&#45;&gt;Node36 -->
<g id="edge7" class="edge">
<title>Node32&#45;&gt;Node36</title>
<path fill="none" stroke="#191970" d="M301.7956,-172.7589C285.7813,-177.9361 268.4193,-183.549 253.1375,-188.4894"/>
<polygon fill="#191970" stroke="#191970" points="303.1235,-176.008 311.562,-169.6015 300.9702,-169.3474 303.1235,-176.008"/>
</g>
<!-- Node37 -->
<g id="node8" class="node">
<title>Node37</title>
<g id="a_node8"><a xlink:href="class_system_status_led.html#acdec2fd7ff78a8eaac8ca32e23e8e9e5" target="_top" xlink:title=" ">
<polygon fill="#ffffff" stroke="#000000" points="153.1646,-141.5 153.1646,-169.5 266.4351,-169.5 266.4351,-141.5 153.1646,-141.5"/>
<text text-anchor="start" x="161.1646" y="-157.5" font-family="Helvetica,sans-Serif" font-size="10.00" fill="#000000">SystemStatusLed::set</text>
<text text-anchor="middle" x="209.7998" y="-147.5" font-family="Helvetica,sans-Serif" font-size="10.00" fill="#000000">_ws_disconnected</text>
</a>
</g>
</g>
<!-- Node32&#45;&gt;Node37 -->
<g id="edge9" class="edge">
<title>Node32&#45;&gt;Node37</title>
<path fill="none" stroke="#191970" d="M295.6601,-155.5C286.0199,-155.5 276.0599,-155.5 266.4894,-155.5"/>
<polygon fill="#191970" stroke="#191970" points="295.9617,-159.0001 305.9617,-155.5 295.9616,-152.0001 295.9617,-159.0001"/>
</g>
<!-- Node38 -->
<g id="node9" class="node">
<title>Node38</title>
<g id="a_node9"><a xlink:href="class_system_status_led.html#a7fd292bd526bb34e781db81453d9b04b" target="_top" xlink:title=" ">
<polygon fill="#ffffff" stroke="#000000" points="153.1646,-94.5 153.1646,-122.5 266.4351,-122.5 266.4351,-94.5 153.1646,-94.5"/>
<text text-anchor="start" x="161.1646" y="-110.5" font-family="Helvetica,sans-Serif" font-size="10.00" fill="#000000">SystemStatusLed::set</text>
<text text-anchor="middle" x="209.7998" y="-100.5" font-family="Helvetica,sans-Serif" font-size="10.00" fill="#000000">_ws_authorizing</text>
</a>
</g>
</g>
<!-- Node32&#45;&gt;Node38 -->
<g id="edge11" class="edge">
<title>Node32&#45;&gt;Node38</title>
<path fill="none" stroke="#191970" d="M301.7956,-138.2411C285.7813,-133.0639 268.4193,-127.451 253.1375,-122.5106"/>
<polygon fill="#191970" stroke="#191970" points="300.9702,-141.6526 311.562,-141.3985 303.1235,-134.992 300.9702,-141.6526"/>
</g>
<!-- Node39 -->
<g id="node10" class="node">
<title>Node39</title>
<g id="a_node10"><a xlink:href="class_system_status_led.html#a1654c26a5cba3bab1d778ae63c8cdd81" target="_top" xlink:title=" ">
<polygon fill="#ffffff" stroke="#000000" points="153.1646,-47.5 153.1646,-75.5 266.4351,-75.5 266.4351,-47.5 153.1646,-47.5"/>
<text text-anchor="start" x="161.1646" y="-63.5" font-family="Helvetica,sans-Serif" font-size="10.00" fill="#000000">SystemStatusLed::set</text>
<text text-anchor="middle" x="209.7998" y="-53.5" font-family="Helvetica,sans-Serif" font-size="10.00" fill="#000000">_ws_connecting</text>
</a>
</g>
</g>
<!-- Node32&#45;&gt;Node39 -->
<g id="edge13" class="edge">
<title>Node32&#45;&gt;Node39</title>
<path fill="none" stroke="#191970" d="M333.5074,-134.3606C317.1628,-119.2654 293.6433,-99.2742 270.3291,-85.5 264.1001,-81.8199 257.2026,-78.4798 250.36,-75.5398"/>
<polygon fill="#191970" stroke="#191970" points="331.2384,-137.0312 340.9224,-141.329 336.0321,-131.9302 331.2384,-137.0312"/>
</g>
<!-- Node40 -->
<g id="node11" class="node">
<title>Node40</title>
<g id="a_node11"><a xlink:href="class_system_status_led.html#a43328b916f8da604970c645a482bdc55" target="_top" xlink:title=" ">
<polygon fill="#ffffff" stroke="#000000" points="153.1646,-.5 153.1646,-28.5 266.4351,-28.5 266.4351,-.5 153.1646,-.5"/>
<text text-anchor="start" x="161.1646" y="-16.5" font-family="Helvetica,sans-Serif" font-size="10.00" fill="#000000">SystemStatusLed::set</text>
<text text-anchor="middle" x="209.7998" y="-6.5" font-family="Helvetica,sans-Serif" font-size="10.00" fill="#000000">_ws_connected</text>
</a>
</g>
</g>
<!-- Node32&#45;&gt;Node40 -->
<g id="edge15" class="edge">
<title>Node32&#45;&gt;Node40</title>
<path fill="none" stroke="#191970" d="M343.4692,-132.0905C329.3555,-106.0138 303.3632,-64.1598 270.3291,-38.5 265.4189,-34.686 259.8247,-31.403 254.067,-28.5989"/>
<polygon fill="#191970" stroke="#191970" points="340.5325,-134.0258 348.2867,-141.2454 346.7272,-130.766 340.5325,-134.0258"/>
</g>
<!-- Node34 -->
<g id="node5" class="node">
<title>Node34</title>
<g id="a_node5"><a xlink:href="class_system_status_led.html#a99f3f5a326684b994a0c8a5d9cd89935" target="_top" xlink:title=" ">
<polygon fill="#ffffff" stroke="#000000" points="0,-141.5 0,-169.5 113.2705,-169.5 113.2705,-141.5 0,-141.5"/>
<text text-anchor="start" x="8" y="-157.5" font-family="Helvetica,sans-Serif" font-size="10.00" fill="#000000">SystemStatusLed::set</text>
<text text-anchor="middle" x="56.6353" y="-147.5" font-family="Helvetica,sans-Serif" font-size="10.00" fill="#000000">_input</text>
</a>
</g>
</g>
<!-- Node33&#45;&gt;Node34 -->
<g id="edge4" class="edge">
<title>Node33&#45;&gt;Node34</title>
<path fill="none" stroke="#191970" d="M155.1502,-277.4247C153.1158,-276.1874 151.1467,-274.8801 149.2705,-273.5 109.6175,-244.3334 78.0229,-193.9161 64.2013,-169.5236"/>
<polygon fill="#191970" stroke="#191970" points="153.9411,-280.7488 164.4049,-282.4099 157.2608,-274.5861 153.9411,-280.7488"/>
</g>
<!-- Node35&#45;&gt;Node34 -->
<g id="edge6" class="edge">
<title>Node35&#45;&gt;Node34</title>
<path fill="none" stroke="#191970" d="M158.7526,-231.353C155.4958,-229.8134 152.3083,-228.1934 149.2705,-226.5 119.8905,-210.1224 89.6622,-185.131 72.0392,-169.5832"/>
<polygon fill="#191970" stroke="#191970" points="157.4868,-234.6203 168.0472,-235.4733 160.3237,-228.2209 157.4868,-234.6203"/>
</g>
<!-- Node36&#45;&gt;Node34 -->
<g id="edge8" class="edge">
<title>Node36&#45;&gt;Node34</title>
<path fill="none" stroke="#191970" d="M154.0333,-185.3875C137.0299,-180.1699 118.5449,-174.4976 102.2931,-169.5106"/>
<polygon fill="#191970" stroke="#191970" points="153.2586,-188.8108 163.8454,-188.3985 155.3121,-182.1188 153.2586,-188.8108"/>
</g>
<!-- Node37&#45;&gt;Node34 -->
<g id="edge10" class="edge">
<title>Node37&#45;&gt;Node34</title>
<path fill="none" stroke="#191970" d="M142.7041,-155.5C132.9494,-155.5 122.9862,-155.5 113.4606,-155.5"/>
<polygon fill="#191970" stroke="#191970" points="142.767,-159.0001 152.767,-155.5 142.7669,-152.0001 142.767,-159.0001"/>
</g>
<!-- Node38&#45;&gt;Node34 -->
<g id="edge12" class="edge">
<title>Node38&#45;&gt;Node34</title>
<path fill="none" stroke="#191970" d="M154.0333,-125.6125C137.0299,-130.8301 118.5449,-136.5024 102.2931,-141.4894"/>
<polygon fill="#191970" stroke="#191970" points="155.3121,-128.8812 163.8454,-122.6015 153.2586,-122.1892 155.3121,-128.8812"/>
</g>
<!-- Node39&#45;&gt;Node34 -->
<g id="edge14" class="edge">
<title>Node39&#45;&gt;Node34</title>
<path fill="none" stroke="#191970" d="M160.2396,-79.8582C156.4699,-81.6448 152.773,-83.5303 149.2705,-85.5 120.2801,-101.8036 90.1775,-126.1703 72.4397,-141.4334"/>
<polygon fill="#191970" stroke="#191970" points="161.9927,-82.9082 169.691,-75.6291 159.1336,-76.5187 161.9927,-82.9082"/>
</g>
<!-- Node40&#45;&gt;Node34 -->
<g id="edge16" class="edge">
<title>Node40&#45;&gt;Node34</title>
<path fill="none" stroke="#191970" d="M157.066,-33.3618C154.3502,-34.9593 151.7313,-36.6705 149.2705,-38.5 110.1817,-67.5605 78.5458,-117.0373 64.4972,-141.2714"/>
<polygon fill="#191970" stroke="#191970" points="158.7902,-36.4093 165.9949,-28.6413 155.5185,-30.2209 158.7902,-36.4093"/>
</g>
</g>
</svg>
