<?xml version="1.0" encoding="UTF-8" standalone="no"?>
<!DOCTYPE svg PUBLIC "-//W3C//DTD SVG 1.1//EN"
 "http://www.w3.org/Graphics/SVG/1.1/DTD/svg11.dtd">
<!-- Generated by graphviz version 13.0.0 (20250608.1624)
 -->
<!-- Title: sensesp::SensESPApp::set_hostname Pages: 1 -->
<svg width="623pt" height="130pt"
 viewBox="0.00 0.00 623.00 130.00" xmlns="http://www.w3.org/2000/svg" xmlns:xlink="http://www.w3.org/1999/xlink">
<g id="graph0" class="graph" transform="scale(1 1) rotate(0) translate(4 125.5)">
<title>sensesp::SensESPApp::set_hostname</title>
<!-- Node1 -->
<g id="Node000001" class="node">
<title>Node1</title>
<g id="a_Node000001"><a xlink:title=" ">
<polygon fill="#999999" stroke="#666666" points="117.25,-78.5 0,-78.5 0,-48 117.25,-48 117.25,-78.5"/>
<text xml:space="preserve" text-anchor="start" x="8" y="-65" font-family="Helvetica,sans-Serif" font-size="10.00">sensesp::SensESPApp</text>
<text xml:space="preserve" text-anchor="middle" x="58.62" y="-53.75" font-family="Helvetica,sans-Serif" font-size="10.00">::set_hostname</text>
</a>
</g>
</g>
<!-- Node2 -->
<g id="Node000002" class="node">
<title>Node2</title>
<g id="a_Node000002"><a xlink:href="classsensesp_1_1_sens_e_s_p_app.html#af09fcf893a98d7502b81080885f658b2" target="_top" xlink:title=" ">
<polygon fill="white" stroke="#666666" points="282.5,-103.5 165.25,-103.5 165.25,-73 282.5,-73 282.5,-103.5"/>
<text xml:space="preserve" text-anchor="start" x="173.25" y="-90" font-family="Helvetica,sans-Serif" font-size="10.00">sensesp::SensESPApp</text>
<text xml:space="preserve" text-anchor="middle" x="223.88" y="-78.75" font-family="Helvetica,sans-Serif" font-size="10.00">::SensESPApp</text>
</a>
</g>
</g>
<!-- Node1&#45;&gt;Node2 -->
<g id="edge1_Node000001_Node000002" class="edge">
<title>Node1&#45;&gt;Node2</title>
<g id="a_edge1_Node000001_Node000002"><a xlink:title=" ">
<path fill="none" stroke="#63b8ff" d="M117.64,-72.13C129.24,-73.91 141.53,-75.79 153.47,-77.62"/>
<polygon fill="#63b8ff" stroke="#63b8ff" points="152.86,-81.07 163.28,-79.12 153.92,-74.15 152.86,-81.07"/>
</a>
</g>
</g>
<!-- Node3 -->
<g id="Node000003" class="node">
<title>Node3</title>
<g id="a_Node000003"><a xlink:href="classsensesp_1_1_sens_e_s_p_base_app.html#a6480199c42124d844eadd89d6fac5c60" target="_top" xlink:title=" ">
<polygon fill="white" stroke="#666666" points="294.5,-54.5 153.25,-54.5 153.25,-24 294.5,-24 294.5,-54.5"/>
<text xml:space="preserve" text-anchor="start" x="161.25" y="-41" font-family="Helvetica,sans-Serif" font-size="10.00">sensesp::SensESPBaseApp</text>
<text xml:space="preserve" text-anchor="middle" x="223.88" y="-29.75" font-family="Helvetica,sans-Serif" font-size="10.00">::set_hostname</text>
</a>
</g>
</g>
<!-- Node1&#45;&gt;Node3 -->
<g id="edge3_Node000001_Node000003" class="edge">
<title>Node1&#45;&gt;Node3</title>
<g id="a_edge3_Node000001_Node000003"><a xlink:title=" ">
<path fill="none" stroke="#63b8ff" d="M117.64,-54.72C125.52,-53.56 133.71,-52.36 141.9,-51.15"/>
<polygon fill="#63b8ff" stroke="#63b8ff" points="142.15,-54.66 151.53,-49.74 141.13,-47.73 142.15,-54.66"/>
</a>
</g>
</g>
<!-- Node2&#45;&gt;Node2 -->
<g id="edge2_Node000002_Node000002" class="edge">
<title>Node2&#45;&gt;Node2</title>
<g id="a_edge2_Node000002_Node000002"><a xlink:title=" ">
<path fill="none" stroke="#63b8ff" d="M194.59,-103.99C188.62,-113.06 198.38,-121.5 223.88,-121.5 237.82,-121.5 247.06,-118.97 251.59,-115.2"/>
<polygon fill="#63b8ff" stroke="#63b8ff" points="255.03,-115.87 252.95,-105.48 248.1,-114.9 255.03,-115.87"/>
</a>
</g>
</g>
<!-- Node4 -->
<g id="Node000004" class="node">
<title>Node4</title>
<g id="a_Node000004"><a xlink:href="classsensesp_1_1_sens_e_s_p_base_app.html#a6291f4758c617d1de18e383891c6fa56" target="_top" xlink:title=" ">
<polygon fill="white" stroke="#666666" points="471.75,-79.5 330.5,-79.5 330.5,-49 471.75,-49 471.75,-79.5"/>
<text xml:space="preserve" text-anchor="start" x="338.5" y="-66" font-family="Helvetica,sans-Serif" font-size="10.00">sensesp::SensESPBaseApp</text>
<text xml:space="preserve" text-anchor="middle" x="401.12" y="-54.75" font-family="Helvetica,sans-Serif" font-size="10.00">::init_hostname</text>
</a>
</g>
</g>
<!-- Node3&#45;&gt;Node4 -->
<g id="edge4_Node000003_Node000004" class="edge">
<title>Node3&#45;&gt;Node4</title>
<g id="a_edge4_Node000003_Node000004"><a xlink:title=" ">
<path fill="none" stroke="#63b8ff" d="M294.89,-49.24C302.8,-50.37 310.9,-51.52 318.94,-52.67"/>
<polygon fill="#63b8ff" stroke="#63b8ff" points="318.32,-56.12 328.72,-54.06 319.31,-49.19 318.32,-56.12"/>
</a>
</g>
</g>
<!-- Node6 -->
<g id="Node000006" class="node">
<title>Node6</title>
<g id="a_Node000006"><a xlink:href="classsensesp_1_1_sens_e_s_p_base_app.html#ab20809d53f2c7d030deefc9eb22e5dde" target="_top" xlink:title="Construct a new SensESP Base App object.">
<polygon fill="white" stroke="#666666" points="471.75,-30.5 330.5,-30.5 330.5,0 471.75,0 471.75,-30.5"/>
<text xml:space="preserve" text-anchor="start" x="338.5" y="-17" font-family="Helvetica,sans-Serif" font-size="10.00">sensesp::SensESPBaseApp</text>
<text xml:space="preserve" text-anchor="middle" x="401.12" y="-5.75" font-family="Helvetica,sans-Serif" font-size="10.00">::SensESPBaseApp</text>
</a>
</g>
</g>
<!-- Node3&#45;&gt;Node6 -->
<g id="edge6_Node000003_Node000006" class="edge">
<title>Node3&#45;&gt;Node6</title>
<g id="a_edge6_Node000003_Node000006"><a xlink:title=" ">
<path fill="none" stroke="#63b8ff" d="M294.89,-29.66C302.8,-28.58 310.9,-27.47 318.94,-26.37"/>
<polygon fill="#63b8ff" stroke="#63b8ff" points="319.29,-29.85 328.72,-25.03 318.34,-22.92 319.29,-29.85"/>
</a>
</g>
</g>
<!-- Node5 -->
<g id="Node000005" class="node">
<title>Node5</title>
<g id="a_Node000005"><a xlink:href="namespacesensesp.html#ae883db75c2c50092263d317cdadacabd" target="_top" xlink:title="Register a ConfigItemT with the ConfigItemBase.">
<polygon fill="white" stroke="#666666" points="614.5,-73.88 507.75,-73.88 507.75,-54.62 614.5,-54.62 614.5,-73.88"/>
<text xml:space="preserve" text-anchor="middle" x="561.12" y="-60.38" font-family="Helvetica,sans-Serif" font-size="10.00">sensesp::ConfigItem</text>
</a>
</g>
</g>
<!-- Node4&#45;&gt;Node5 -->
<g id="edge5_Node000004_Node000005" class="edge">
<title>Node4&#45;&gt;Node5</title>
<g id="a_edge5_Node000004_Node000005"><a xlink:title=" ">
<path fill="none" stroke="#63b8ff" d="M471.89,-64.25C479.88,-64.25 488.01,-64.25 495.93,-64.25"/>
<polygon fill="#63b8ff" stroke="#63b8ff" points="495.84,-67.75 505.84,-64.25 495.83,-60.75 495.84,-67.75"/>
</a>
</g>
</g>
</g>
</svg>
