<?xml version="1.0" encoding="UTF-8" standalone="no"?>
<!DOCTYPE svg PUBLIC "-//W3C//DTD SVG 1.1//EN"
 "http://www.w3.org/Graphics/SVG/1.1/DTD/svg11.dtd">
<!-- Generated by graphviz version 2.40.1 (20161225.0304)
 -->
<!-- Title: GPGLLSentenceParser::parse Pages: 1 -->
<svg width="286pt" height="222pt"
 viewBox="0.00 0.00 286.12 222.00" xmlns="http://www.w3.org/2000/svg" xmlns:xlink="http://www.w3.org/1999/xlink">
<g id="graph0" class="graph" transform="scale(1 1) rotate(0) translate(4 218)">
<title>GPGLLSentenceParser::parse</title>
<polygon fill="#ffffff" stroke="transparent" points="-4,4 -4,-218 282.1172,-218 282.1172,4 -4,4"/>
<!-- Node2 -->
<g id="node1" class="node">
<title>Node2</title>
<g id="a_node1"><a xlink:title=" ">
<polygon fill="#bfbfbf" stroke="#000000" points="0,-97.5 0,-125.5 121.0586,-125.5 121.0586,-97.5 0,-97.5"/>
<text text-anchor="start" x="8" y="-113.5" font-family="Helvetica,sans-Serif" font-size="10.00" fill="#000000">GPGLLSentenceParser</text>
<text text-anchor="middle" x="60.5293" y="-103.5" font-family="Helvetica,sans-Serif" font-size="10.00" fill="#000000">::parse</text>
</a>
</g>
</g>
<!-- Node3 -->
<g id="node2" class="node">
<title>Node3</title>
<g id="a_node2"><a xlink:href="nmea__parser_8cpp.html#a21e8f85a497e58ad08d5c473e89a8463" target="_top" xlink:title=" ">
<polygon fill="#ffffff" stroke="#000000" points="182.3467,-195.5 182.3467,-213.5 252.8291,-213.5 252.8291,-195.5 182.3467,-195.5"/>
<text text-anchor="middle" x="217.5879" y="-201.5" font-family="Helvetica,sans-Serif" font-size="10.00" fill="#000000">parse_latlon</text>
</a>
</g>
</g>
<!-- Node2&#45;&gt;Node3 -->
<g id="edge1" class="edge">
<title>Node2&#45;&gt;Node3</title>
<path fill="none" stroke="#191970" d="M75.0276,-125.6214C92.9325,-142.3452 124.9712,-170.0067 157.0586,-186.5 161.9339,-189.006 167.2139,-191.2197 172.5543,-193.1597"/>
<polygon fill="#191970" stroke="#191970" points="171.5647,-196.5191 182.1583,-196.3602 173.7778,-189.8781 171.5647,-196.5191"/>
</g>
<!-- Node4 -->
<g id="node3" class="node">
<title>Node4</title>
<g id="a_node3"><a xlink:href="nmea__parser_8cpp.html#a18bf596259e1849f3b6bdbdd765ab606" target="_top" xlink:title=" ">
<polygon fill="#ffffff" stroke="#000000" points="187.354,-158.5 187.354,-176.5 247.8218,-176.5 247.8218,-158.5 187.354,-158.5"/>
<text text-anchor="middle" x="217.5879" y="-164.5" font-family="Helvetica,sans-Serif" font-size="10.00" fill="#000000">parse_NS</text>
</a>
</g>
</g>
<!-- Node2&#45;&gt;Node4 -->
<g id="edge2" class="edge">
<title>Node2&#45;&gt;Node4</title>
<path fill="none" stroke="#191970" d="M94.2157,-125.5838C112.6382,-133.0771 135.9456,-142.2201 157.0586,-149.5 163.6044,-151.757 170.6045,-153.996 177.4363,-156.0884"/>
<polygon fill="#191970" stroke="#191970" points="176.6686,-159.5121 187.2527,-159.0341 178.6807,-152.8075 176.6686,-159.5121"/>
</g>
<!-- Node5 -->
<g id="node4" class="node">
<title>Node5</title>
<g id="a_node4"><a xlink:href="nmea__parser_8cpp.html#a113615295f150c16f895c9e2525bbd6e" target="_top" xlink:title=" ">
<polygon fill="#ffffff" stroke="#000000" points="186.2456,-121.5 186.2456,-139.5 248.9302,-139.5 248.9302,-121.5 186.2456,-121.5"/>
<text text-anchor="middle" x="217.5879" y="-127.5" font-family="Helvetica,sans-Serif" font-size="10.00" fill="#000000">parse_EW</text>
</a>
</g>
</g>
<!-- Node2&#45;&gt;Node5 -->
<g id="edge3" class="edge">
<title>Node2&#45;&gt;Node5</title>
<path fill="none" stroke="#191970" d="M121.2522,-118.8459C139.5523,-121.0597 159.2141,-123.4383 175.9725,-125.4656"/>
<polygon fill="#191970" stroke="#191970" points="175.6457,-128.9515 185.9937,-126.6779 176.4864,-122.0022 175.6457,-128.9515"/>
</g>
<!-- Node6 -->
<g id="node5" class="node">
<title>Node6</title>
<g id="a_node5"><a xlink:href="nmea__parser_8cpp.html#af7a3600deec155122015fcfedfc126a7" target="_top" xlink:title=" ">
<polygon fill="#ffffff" stroke="#000000" points="175.6841,-84.5 175.6841,-102.5 259.4917,-102.5 259.4917,-84.5 175.6841,-84.5"/>
<text text-anchor="middle" x="217.5879" y="-90.5" font-family="Helvetica,sans-Serif" font-size="10.00" fill="#000000">report_success</text>
</a>
</g>
</g>
<!-- Node2&#45;&gt;Node6 -->
<g id="edge4" class="edge">
<title>Node2&#45;&gt;Node6</title>
<path fill="none" stroke="#191970" d="M121.2522,-104.5407C135.8391,-102.869 151.2912,-101.0981 165.4485,-99.4755"/>
<polygon fill="#191970" stroke="#191970" points="165.961,-102.9398 175.4975,-98.3239 165.1639,-95.9853 165.961,-102.9398"/>
</g>
<!-- Node7 -->
<g id="node6" class="node">
<title>Node7</title>
<g id="a_node6"><a xlink:href="class_g_p_g_l_l_sentence_parser.html#acbee347184ae22343a9af2515ae57c98" target="_top" xlink:title=" ">
<polygon fill="#ffffff" stroke="#000000" points="157.0586,-37.5 157.0586,-65.5 278.1172,-65.5 278.1172,-37.5 157.0586,-37.5"/>
<text text-anchor="start" x="165.0586" y="-53.5" font-family="Helvetica,sans-Serif" font-size="10.00" fill="#000000">GPGLLSentenceParser</text>
<text text-anchor="middle" x="217.5879" y="-43.5" font-family="Helvetica,sans-Serif" font-size="10.00" fill="#000000">::sentence</text>
</a>
</g>
</g>
<!-- Node2&#45;&gt;Node7 -->
<g id="edge5" class="edge">
<title>Node2&#45;&gt;Node7</title>
<path fill="none" stroke="#191970" d="M97.3526,-97.4327C119.4262,-89 147.6932,-78.2014 171.2727,-69.1935"/>
<polygon fill="#191970" stroke="#191970" points="172.6311,-72.4213 180.7235,-65.583 170.1329,-65.8822 172.6311,-72.4213"/>
</g>
<!-- Node8 -->
<g id="node7" class="node">
<title>Node8</title>
<g id="a_node7"><a xlink:href="class_observable_value.html#a51cf25d4951d3214021da0c25985838d" target="_top" xlink:title=" ">
<polygon fill="#ffffff" stroke="#000000" points="162.1514,-.5 162.1514,-18.5 273.0244,-18.5 273.0244,-.5 162.1514,-.5"/>
<text text-anchor="middle" x="217.5879" y="-6.5" font-family="Helvetica,sans-Serif" font-size="10.00" fill="#000000">ObservableValue::set</text>
</a>
</g>
</g>
<!-- Node2&#45;&gt;Node8 -->
<g id="edge6" class="edge">
<title>Node2&#45;&gt;Node8</title>
<path fill="none" stroke="#191970" d="M73.2511,-97.4724C90.5554,-79.174 123.2491,-47.2862 157.0586,-28.5 161.3459,-26.1178 165.9732,-23.9894 170.6925,-22.0986"/>
<polygon fill="#191970" stroke="#191970" points="172.2345,-25.2618 180.4291,-18.5462 169.8352,-18.6858 172.2345,-25.2618"/>
</g>
</g>
</svg>
