<?xml version="1.0" encoding="UTF-8" standalone="no"?>
<!DOCTYPE svg PUBLIC "-//W3C//DTD SVG 1.1//EN"
 "http://www.w3.org/Graphics/SVG/1.1/DTD/svg11.dtd">
<!-- Generated by graphviz version 12.1.0 (20240811.2233)
 -->
<!-- Title: sensesp::Debounce::set Pages: 1 -->
<svg width="505pt" height="88pt"
 viewBox="0.00 0.00 504.50 87.50" xmlns="http://www.w3.org/2000/svg" xmlns:xlink="http://www.w3.org/1999/xlink">
<g id="graph0" class="graph" transform="scale(1 1) rotate(0) translate(4 83.5)">
<title>sensesp::Debounce::set</title>
<!-- Node1 -->
<g id="Node000001" class="node">
<title>Node1</title>
<g id="a_Node000001"><a xlink:title=" ">
<polygon fill="#999999" stroke="#666666" points="122.5,-48.88 0,-48.88 0,-29.62 122.5,-29.62 122.5,-48.88"/>
<text text-anchor="middle" x="61.25" y="-35.38" font-family="Helvetica,sans-Serif" font-size="10.00">sensesp::Debounce::set</text>
</a>
</g>
</g>
<!-- Node2 -->
<g id="Node000002" class="node">
<title>Node2</title>
<g id="a_Node000002"><a xlink:href="classsensesp_1_1_value_producer.html#a4f5f0259d0d3cd9a0ed17d657cac04e2" target="_top" xlink:title=" ">
<polygon fill="white" stroke="#666666" points="290,-79.5 168.25,-79.5 168.25,-49 290,-49 290,-79.5"/>
<text text-anchor="start" x="176.25" y="-66" font-family="Helvetica,sans-Serif" font-size="10.00">sensesp::ValueProducer</text>
<text text-anchor="middle" x="229.12" y="-54.75" font-family="Helvetica,sans-Serif" font-size="10.00">::emit</text>
</a>
</g>
</g>
<!-- Node1&#45;&gt;Node2 -->
<g id="edge1_Node000001_Node000002" class="edge">
<title>Node1&#45;&gt;Node2</title>
<g id="a_edge1_Node000001_Node000002"><a xlink:title=" ">
<path fill="none" stroke="#63b8ff" d="M122.6,-48.35C133.65,-50.01 145.28,-51.76 156.61,-53.47"/>
<polygon fill="#63b8ff" stroke="#63b8ff" points="155.91,-56.91 166.32,-54.93 156.95,-49.98 155.91,-56.91"/>
</a>
</g>
</g>
<!-- Node4 -->
<g id="Node000004" class="node">
<title>Node4</title>
<g id="a_Node000004"><a xlink:href="classsensesp_1_1_sens_e_s_p_base_app.html#a9068b65bf976f1d1bd5faf1e3126e8ff" target="_top" xlink:title="Get the event loop object from the singleton SensESPBaseApp instance.">
<polygon fill="white" stroke="#666666" points="299.75,-30.5 158.5,-30.5 158.5,0 299.75,0 299.75,-30.5"/>
<text text-anchor="start" x="166.5" y="-17" font-family="Helvetica,sans-Serif" font-size="10.00">sensesp::SensESPBaseApp</text>
<text text-anchor="middle" x="229.12" y="-5.75" font-family="Helvetica,sans-Serif" font-size="10.00">::get_event_loop</text>
</a>
</g>
</g>
<!-- Node1&#45;&gt;Node4 -->
<g id="edge3_Node000001_Node000004" class="edge">
<title>Node1&#45;&gt;Node4</title>
<g id="a_edge3_Node000001_Node000004"><a xlink:title=" ">
<path fill="none" stroke="#63b8ff" d="M122.6,-30.52C130.56,-29.37 138.83,-28.17 147.06,-26.98"/>
<polygon fill="#63b8ff" stroke="#63b8ff" points="147.35,-30.47 156.75,-25.58 146.35,-23.55 147.35,-30.47"/>
</a>
</g>
</g>
<!-- Node3 -->
<g id="Node000003" class="node">
<title>Node3</title>
<g id="a_Node000003"><a xlink:href="classsensesp_1_1_observable.html#ab86d00fed8fb85b4c76cb9397667ece9" target="_top" xlink:title=" ">
<polygon fill="white" stroke="#666666" points="470.25,-79.5 362,-79.5 362,-49 470.25,-49 470.25,-79.5"/>
<text text-anchor="start" x="370" y="-66" font-family="Helvetica,sans-Serif" font-size="10.00">sensesp::Observable</text>
<text text-anchor="middle" x="416.12" y="-54.75" font-family="Helvetica,sans-Serif" font-size="10.00">::notify</text>
</a>
</g>
</g>
<!-- Node2&#45;&gt;Node3 -->
<g id="edge2_Node000002_Node000003" class="edge">
<title>Node2&#45;&gt;Node3</title>
<g id="a_edge2_Node000002_Node000003"><a xlink:title=" ">
<path fill="none" stroke="#63b8ff" d="M290.44,-64.25C309.66,-64.25 330.99,-64.25 350.5,-64.25"/>
<polygon fill="#63b8ff" stroke="#63b8ff" points="350.23,-67.75 360.23,-64.25 350.23,-60.75 350.23,-67.75"/>
</a>
</g>
</g>
<!-- Node5 -->
<g id="Node000005" class="node">
<title>Node5</title>
<g id="a_Node000005"><a xlink:href="classsensesp_1_1_sens_e_s_p_base_app.html#a2df22469c69a8a1234ab673386f574d6" target="_top" xlink:title="Get the singleton instance of the SensESPBaseApp.">
<polygon fill="white" stroke="#666666" points="496.5,-24.88 335.75,-24.88 335.75,-5.63 496.5,-5.63 496.5,-24.88"/>
<text text-anchor="middle" x="416.12" y="-11.38" font-family="Helvetica,sans-Serif" font-size="10.00">sensesp::SensESPBaseApp::get</text>
</a>
</g>
</g>
<!-- Node4&#45;&gt;Node5 -->
<g id="edge4_Node000004_Node000005" class="edge">
<title>Node4&#45;&gt;Node5</title>
<g id="a_edge4_Node000004_Node000005"><a xlink:title=" ">
<path fill="none" stroke="#63b8ff" d="M300.07,-15.25C307.92,-15.25 316.01,-15.25 324.09,-15.25"/>
<polygon fill="#63b8ff" stroke="#63b8ff" points="323.96,-18.75 333.96,-15.25 323.96,-11.75 323.96,-18.75"/>
</a>
</g>
</g>
</g>
</svg>
