<?xml version="1.0" encoding="UTF-8" standalone="no"?>
<!DOCTYPE svg PUBLIC "-//W3C//DTD SVG 1.1//EN"
 "http://www.w3.org/Graphics/SVG/1.1/DTD/svg11.dtd">
<!-- Generated by graphviz version 2.44.1 (20200629.0846)
 -->
<!-- Title: ValueProducer::connect_to Pages: 1 -->
<svg width="333pt" height="116pt"
 viewBox="0.00 0.00 333.00 115.50" xmlns="http://www.w3.org/2000/svg" xmlns:xlink="http://www.w3.org/1999/xlink">
<g id="graph0" class="graph" transform="scale(1 1) rotate(0) translate(4 111.5)">
<title>ValueProducer::connect_to</title>
<polygon fill="white" stroke="transparent" points="-4,4 -4,-111.5 329,-111.5 329,4 -4,4"/>
<!-- Node1 -->
<g id="node1" class="node">
<title>Node1</title>
<g id="a_node1"><a xlink:title=" ">
<polygon fill="#bfbfbf" stroke="black" points="191,-50 191,-69 325,-69 325,-50 191,-50"/>
<text text-anchor="middle" x="258" y="-57" font-family="Helvetica,sans-Serif" font-size="10.00">ValueProducer::connect_to</text>
</a>
</g>
</g>
<!-- Node2 -->
<g id="node2" class="node">
<title>Node2</title>
<g id="a_node2"><a xlink:href="main_8cpp.html#a52e1a3891fbdadd9ebf9f12d507ee950" target="_top" xlink:title=" ">
<polygon fill="white" stroke="black" points="61.5,-88 61.5,-107 93.5,-107 93.5,-88 61.5,-88"/>
<text text-anchor="middle" x="77.5" y="-95" font-family="Helvetica,sans-Serif" font-size="10.00">app</text>
</a>
</g>
</g>
<!-- Node1&#45;&gt;Node2 -->
<g id="edge1" class="edge">
<title>Node1&#45;&gt;Node2</title>
<path fill="none" stroke="midnightblue" d="M202.12,-71.18C164.49,-79.19 117.23,-89.25 93.53,-94.3"/>
<polygon fill="midnightblue" stroke="midnightblue" points="202.9,-74.59 211.96,-69.09 201.45,-67.75 202.9,-74.59"/>
</g>
<!-- Node3 -->
<g id="node3" class="node">
<title>Node3</title>
<g id="a_node3"><a xlink:href="class_sens_e_s_p_app.html#aa41795cde59d1bb57906dff6102ee7dc" target="_top" xlink:title=" ">
<polygon fill="white" stroke="black" points="19.5,-50 19.5,-69 135.5,-69 135.5,-50 19.5,-50"/>
<text text-anchor="middle" x="77.5" y="-57" font-family="Helvetica,sans-Serif" font-size="10.00">SensESPApp::connect</text>
</a>
</g>
</g>
<!-- Node1&#45;&gt;Node3 -->
<g id="edge2" class="edge">
<title>Node1&#45;&gt;Node3</title>
<path fill="none" stroke="midnightblue" d="M180.45,-59.5C165.38,-59.5 149.81,-59.5 135.52,-59.5"/>
<polygon fill="midnightblue" stroke="midnightblue" points="180.79,-63 190.79,-59.5 180.79,-56 180.79,-63"/>
</g>
<!-- Node4 -->
<g id="node4" class="node">
<title>Node4</title>
<g id="a_node4"><a xlink:href="class_value_producer.html#a567a7940bdda6bace2c50704242f1d96" target="_top" xlink:title=" ">
<polygon fill="white" stroke="black" points="0,-0.5 0,-30.5 155,-30.5 155,-0.5 0,-0.5"/>
<text text-anchor="start" x="8" y="-18.5" font-family="Helvetica,sans-Serif" font-size="10.00">ValueProducer&lt; WSConnection</text>
<text text-anchor="middle" x="77.5" y="-7.5" font-family="Helvetica,sans-Serif" font-size="10.00">State &gt;::connectTo</text>
</a>
</g>
</g>
<!-- Node1&#45;&gt;Node4 -->
<g id="edge3" class="edge">
<title>Node1&#45;&gt;Node4</title>
<path fill="none" stroke="midnightblue" d="M208.5,-47.54C187.27,-42.31 162.11,-36.11 139.62,-30.57"/>
<polygon fill="midnightblue" stroke="midnightblue" points="207.72,-50.96 218.27,-49.95 209.4,-44.16 207.72,-50.96"/>
</g>
</g>
</svg>
