<?xml version="1.0" encoding="UTF-8" standalone="no"?>
<!DOCTYPE svg PUBLIC "-//W3C//DTD SVG 1.1//EN"
 "http://www.w3.org/Graphics/SVG/1.1/DTD/svg11.dtd">
<!-- Generated by graphviz version 12.1.0 (20240811.2233)
 -->
<!-- Title: sensesp::TimeCounter::TimeCounter Pages: 1 -->
<svg width="540pt" height="76pt"
 viewBox="0.00 0.00 540.00 75.88" xmlns="http://www.w3.org/2000/svg" xmlns:xlink="http://www.w3.org/1999/xlink">
<g id="graph0" class="graph" transform="scale(1 1) rotate(0) translate(4 71.88)">
<title>sensesp::TimeCounter::TimeCounter</title>
<!-- Node1 -->
<g id="Node000001" class="node">
<title>Node1</title>
<g id="a_Node000001"><a xlink:title=" ">
<polygon fill="#999999" stroke="#666666" points="115,-51.5 0,-51.5 0,-21 115,-21 115,-51.5"/>
<text text-anchor="start" x="8" y="-38" font-family="Helvetica,sans-Serif" font-size="10.00">sensesp::TimeCounter</text>
<text text-anchor="middle" x="57.5" y="-26.75" font-family="Helvetica,sans-Serif" font-size="10.00">::TimeCounter</text>
</a>
</g>
</g>
<!-- Node2 -->
<g id="Node000002" class="node">
<title>Node2</title>
<g id="a_Node000002"><a xlink:href="classsensesp_1_1_configurable.html#ac97542fd5a24ae306adb77f3d1ba563a" target="_top" xlink:title=" ">
<polygon fill="white" stroke="#666666" points="264.5,-51.5 151,-51.5 151,-21 264.5,-21 264.5,-51.5"/>
<text text-anchor="start" x="159" y="-38" font-family="Helvetica,sans-Serif" font-size="10.00">sensesp::Configurable</text>
<text text-anchor="middle" x="207.75" y="-26.75" font-family="Helvetica,sans-Serif" font-size="10.00">::load_configuration</text>
</a>
</g>
</g>
<!-- Node1&#45;&gt;Node2 -->
<g id="edge1_Node000001_Node000002" class="edge">
<title>Node1&#45;&gt;Node2</title>
<g id="a_edge1_Node000001_Node000002"><a xlink:title=" ">
<path fill="none" stroke="#63b8ff" d="M115.39,-36.25C123.27,-36.25 131.43,-36.25 139.48,-36.25"/>
<polygon fill="#63b8ff" stroke="#63b8ff" points="139.23,-39.75 149.23,-36.25 139.23,-32.75 139.23,-39.75"/>
</a>
</g>
</g>
<!-- Node3 -->
<g id="Node000003" class="node">
<title>Node3</title>
<g id="a_Node000003"><a xlink:href="namespacesensesp.html#adad24461f43358c45017cf1cb816ca60" target="_top" xlink:title="A base64&#45;encoded SHA&#45;1 hash function.">
<polygon fill="white" stroke="#666666" points="414.75,-67.88 300.5,-67.88 300.5,-48.62 414.75,-48.62 414.75,-67.88"/>
<text text-anchor="middle" x="357.62" y="-54.38" font-family="Helvetica,sans-Serif" font-size="10.00">sensesp::Base64Sha1</text>
</a>
</g>
</g>
<!-- Node2&#45;&gt;Node3 -->
<g id="edge2_Node000002_Node000003" class="edge">
<title>Node2&#45;&gt;Node3</title>
<g id="a_edge2_Node000002_Node000003"><a xlink:title=" ">
<path fill="none" stroke="#63b8ff" d="M264.66,-44.57C272.55,-45.74 280.73,-46.96 288.82,-48.16"/>
<polygon fill="#63b8ff" stroke="#63b8ff" points="288.25,-51.62 298.65,-49.63 289.28,-44.69 288.25,-51.62"/>
</a>
</g>
</g>
<!-- Node5 -->
<g id="Node000005" class="node">
<title>Node5</title>
<g id="a_Node000005"><a xlink:href="classsensesp_1_1_configurable.html#a0deaa5b717cd0f60d0105835cd6b595a" target="_top" xlink:title=" ">
<polygon fill="white" stroke="#666666" points="414.38,-30.5 300.88,-30.5 300.88,0 414.38,0 414.38,-30.5"/>
<text text-anchor="start" x="308.88" y="-17" font-family="Helvetica,sans-Serif" font-size="10.00">sensesp::Configurable</text>
<text text-anchor="middle" x="357.62" y="-5.75" font-family="Helvetica,sans-Serif" font-size="10.00">::set_configuration</text>
</a>
</g>
</g>
<!-- Node2&#45;&gt;Node5 -->
<g id="edge4_Node000002_Node000005" class="edge">
<title>Node2&#45;&gt;Node5</title>
<g id="a_edge4_Node000002_Node000005"><a xlink:title=" ">
<path fill="none" stroke="#63b8ff" d="M264.66,-28.31C272.75,-27.16 281.16,-25.97 289.45,-24.79"/>
<polygon fill="#63b8ff" stroke="#63b8ff" points="289.73,-28.28 299.14,-23.41 288.75,-21.35 289.73,-28.28"/>
</a>
</g>
</g>
<!-- Node4 -->
<g id="Node000004" class="node">
<title>Node4</title>
<g id="a_Node000004"><a xlink:href="namespacesensesp.html#a37dfeb5f75b7115464a9aa40473d69cf" target="_top" xlink:title="SHA&#45;1 hash function.">
<polygon fill="white" stroke="#666666" points="532,-67.88 450.75,-67.88 450.75,-48.62 532,-48.62 532,-67.88"/>
<text text-anchor="middle" x="491.38" y="-54.38" font-family="Helvetica,sans-Serif" font-size="10.00">sensesp::Sha1</text>
</a>
</g>
</g>
<!-- Node3&#45;&gt;Node4 -->
<g id="edge3_Node000003_Node000004" class="edge">
<title>Node3&#45;&gt;Node4</title>
<g id="a_edge3_Node000003_Node000004"><a xlink:title=" ">
<path fill="none" stroke="#63b8ff" d="M414.88,-58.25C422.96,-58.25 431.24,-58.25 439.22,-58.25"/>
<polygon fill="#63b8ff" stroke="#63b8ff" points="439.12,-61.75 449.12,-58.25 439.12,-54.75 439.12,-61.75"/>
</a>
</g>
</g>
</g>
</svg>
