<?xml version="1.0" encoding="UTF-8" standalone="no"?>
<!DOCTYPE svg PUBLIC "-//W3C//DTD SVG 1.1//EN"
 "http://www.w3.org/Graphics/SVG/1.1/DTD/svg11.dtd">
<!-- Generated by graphviz version 12.1.0 (20240811.2233)
 -->
<!-- Title: sensesp::UIOutput&lt; T &gt; Pages: 1 -->
<svg width="412pt" height="292pt"
 viewBox="0.00 0.00 412.38 292.00" xmlns="http://www.w3.org/2000/svg" xmlns:xlink="http://www.w3.org/1999/xlink">

<svg id="main" version="1.1" xmlns="http://www.w3.org/2000/svg" xmlns:xlink="http://www.w3.org/1999/xlink" xml:space="preserve">

<style type="text/css"><![CDATA[
.node, .edge {opacity: 0.7;}
.node.selected, .edge.selected {opacity: 1;}
.edge:hover path { stroke: red; }
.edge:hover polygon { stroke: red; fill: red; }
]]></style>
<script type="application/ecmascript" xlink:href="svg.min.js"/>
<svg id="graph" class="graph">
<g id="graph0" class="graph" transform="scale(1 1) rotate(0) translate(4 288)">
<title>sensesp::UIOutput&lt; T &gt;</title>
<!-- Node1 -->
<g id="Node000001" class="node">
<title>Node1</title>
<g id="a_Node000001"><a xlink:title=" ">
<polygon fill="#999999" stroke="#666666" points="133.75,-97 11.25,-97 11.25,-77.75 133.75,-77.75 133.75,-97"/>
<text text-anchor="middle" x="72.5" y="-83.5" font-family="Helvetica,sans-Serif" font-size="10.00">sensesp::UIOutput&lt; T &gt;</text>
</a>
</g>
</g>
<!-- Node7 -->
<g id="Node000007" class="node">
<title>Node7</title>
<g id="a_Node000007"><a xlink:href="classsensesp_1_1_u_i_output.html" target="_top" xlink:title=" ">
<polygon fill="white" stroke="#666666" points="124.75,-30.5 20.25,-30.5 20.25,0 124.75,0 124.75,-30.5"/>
<text text-anchor="start" x="28.25" y="-17" font-family="Helvetica,sans-Serif" font-size="10.00">sensesp::UIOutput&lt;</text>
<text text-anchor="middle" x="72.5" y="-5.75" font-family="Helvetica,sans-Serif" font-size="10.00"> String &gt;</text>
</a>
</g>
</g>
<!-- Node1&#45;&gt;Node7 -->
<g id="edge7_Node000001_Node000007" class="edge">
<title>Node1&#45;&gt;Node7</title>
<g id="a_edge7_Node000001_Node000007"><a xlink:title=" ">
<path fill="none" stroke="orange" stroke-dasharray="5,2" d="M72.5,-66.17C72.5,-54.91 72.5,-41.14 72.5,-30.92"/>
<polygon fill="orange" stroke="orange" points="69,-65.98 72.5,-75.98 76,-65.98 69,-65.98"/>
</a>
</g>
<text text-anchor="middle" x="95.75" y="-50.25" font-family="Helvetica,sans-Serif" font-size="10.00" fill="grey"> &lt; String &gt;</text>
</g>
<!-- Node2 -->
<g id="Node000002" class="node">
<title>Node2</title>
<g id="a_Node000002"><a xlink:href="classsensesp_1_1_u_i_output_base.html" target="_top" xlink:title=" ">
<polygon fill="white" stroke="#666666" points="121,-190.5 0,-190.5 0,-171.25 121,-171.25 121,-190.5"/>
<text text-anchor="middle" x="60.5" y="-177" font-family="Helvetica,sans-Serif" font-size="10.00">sensesp::UIOutputBase</text>
</a>
</g>
</g>
<!-- Node2&#45;&gt;Node1 -->
<g id="edge1_Node000001_Node000002" class="edge">
<title>Node2&#45;&gt;Node1</title>
<g id="a_edge1_Node000001_Node000002"><a xlink:title=" ">
<path fill="none" stroke="#63b8ff" d="M63.17,-159.55C65.71,-140.14 69.43,-111.81 71.31,-97.45"/>
<polygon fill="#63b8ff" stroke="#63b8ff" points="59.72,-158.9 61.89,-169.27 66.66,-159.81 59.72,-158.9"/>
</a>
</g>
</g>
<!-- Node3 -->
<g id="Node000003" class="node">
<title>Node3</title>
<g id="a_Node000003"><a xlink:href="classsensesp_1_1_observable.html" target="_top" xlink:title="A base class which allow observers to attach callbacks to themselves. The callbacks will be called wh...">
<polygon fill="white" stroke="#666666" points="126.62,-284 18.38,-284 18.38,-264.75 126.62,-264.75 126.62,-284"/>
<text text-anchor="middle" x="72.5" y="-270.5" font-family="Helvetica,sans-Serif" font-size="10.00">sensesp::Observable</text>
</a>
</g>
</g>
<!-- Node3&#45;&gt;Node2 -->
<g id="edge2_Node000002_Node000003" class="edge">
<title>Node3&#45;&gt;Node2</title>
<g id="a_edge2_Node000002_Node000003"><a xlink:title=" ">
<path fill="none" stroke="#63b8ff" d="M69.83,-253.05C67.29,-233.64 63.57,-205.31 61.69,-190.95"/>
<polygon fill="#63b8ff" stroke="#63b8ff" points="66.34,-253.31 71.11,-262.77 73.28,-252.4 66.34,-253.31"/>
</a>
</g>
</g>
<!-- Node6 -->
<g id="Node000006" class="node">
<title>Node6</title>
<g id="a_Node000006"><a xlink:href="classsensesp_1_1_value_producer.html" target="_top" xlink:title="A base class for any sensor or piece of code that outputs a value for consumption elsewhere.">
<polygon fill="white" stroke="#666666" points="234.38,-227.75 88.62,-227.75 88.62,-208.5 234.38,-208.5 234.38,-227.75"/>
<text text-anchor="middle" x="161.5" y="-214.25" font-family="Helvetica,sans-Serif" font-size="10.00">sensesp::ValueProducer&lt; T &gt;</text>
</a>
</g>
</g>
<!-- Node3&#45;&gt;Node6 -->
<g id="edge6_Node000006_Node000003" class="edge">
<title>Node3&#45;&gt;Node6</title>
<g id="a_edge6_Node000006_Node000003"><a xlink:title=" ">
<path fill="none" stroke="#63b8ff" d="M96.95,-258.47C112.92,-248.74 133.25,-236.35 146.78,-228.1"/>
<polygon fill="#63b8ff" stroke="#63b8ff" points="95.21,-255.44 88.49,-263.63 98.85,-261.41 95.21,-255.44"/>
</a>
</g>
</g>
<!-- Node4 -->
<g id="Node000004" class="node">
<title>Node4</title>
<g id="a_Node000004"><a xlink:href="classsensesp_1_1_observable_value.html" target="_top" xlink:title="A value container that notifies its observers if it gets changed.">
<polygon fill="white" stroke="#666666" points="244.62,-153.25 88.38,-153.25 88.38,-134 244.62,-134 244.62,-153.25"/>
<text text-anchor="middle" x="166.5" y="-139.75" font-family="Helvetica,sans-Serif" font-size="10.00">sensesp::ObservableValue&lt; T &gt;</text>
</a>
</g>
</g>
<!-- Node4&#45;&gt;Node1 -->
<g id="edge3_Node000001_Node000004" class="edge">
<title>Node4&#45;&gt;Node1</title>
<g id="a_edge3_Node000001_Node000004"><a xlink:title=" ">
<path fill="none" stroke="#63b8ff" d="M141.16,-128C124.22,-118.22 102.48,-105.68 88.05,-97.35"/>
<polygon fill="#63b8ff" stroke="#63b8ff" points="139.26,-130.94 149.67,-132.91 142.76,-124.88 139.26,-130.94"/>
</a>
</g>
</g>
<!-- Node5 -->
<g id="Node000005" class="node">
<title>Node5</title>
<g id="a_Node000005"><a xlink:href="classsensesp_1_1_value_consumer.html" target="_top" xlink:title="A base class for piece of code (like a transform) that accepts data for input. ValueConsumers can acc...">
<polygon fill="white" stroke="#666666" points="404.38,-227.75 252.62,-227.75 252.62,-208.5 404.38,-208.5 404.38,-227.75"/>
<text text-anchor="middle" x="328.5" y="-214.25" font-family="Helvetica,sans-Serif" font-size="10.00">sensesp::ValueConsumer&lt; T &gt;</text>
</a>
</g>
</g>
<!-- Node5&#45;&gt;Node4 -->
<g id="edge4_Node000004_Node000005" class="edge">
<title>Node5&#45;&gt;Node4</title>
<g id="a_edge4_Node000004_Node000005"><a xlink:title=" ">
<path fill="none" stroke="#63b8ff" d="M298.01,-203.48C265.41,-188.89 214.66,-166.18 186.69,-153.66"/>
<polygon fill="#63b8ff" stroke="#63b8ff" points="296.37,-206.58 306.93,-207.47 299.23,-200.19 296.37,-206.58"/>
</a>
</g>
</g>
<!-- Node6&#45;&gt;Node4 -->
<g id="edge5_Node000004_Node000006" class="edge">
<title>Node6&#45;&gt;Node4</title>
<g id="a_edge5_Node000004_Node000006"><a xlink:title=" ">
<path fill="none" stroke="#63b8ff" d="M162.88,-197.1C163.86,-182.85 165.14,-164.38 165.88,-153.59"/>
<polygon fill="#63b8ff" stroke="#63b8ff" points="159.41,-196.51 162.22,-206.73 166.4,-196.99 159.41,-196.51"/>
</a>
</g>
</g>
</g>
</svg>
</svg>

<style type='text/css'>
<![CDATA[
[data-mouse-over-selected='false'] { opacity: 0.7; }
[data-mouse-over-selected='true']  { opacity: 1.0; }
]]>
</style>
<script type="application/ecmascript"><![CDATA[
document.addEventListener('DOMContentLoaded', (event) => {
  highlightEdges();
  highlightAdjacentNodes();
});
]]></script>
</svg>
