<?xml version="1.0" encoding="UTF-8" standalone="no"?>
<!DOCTYPE svg PUBLIC "-//W3C//DTD SVG 1.1//EN"
 "http://www.w3.org/Graphics/SVG/1.1/DTD/svg11.dtd">
<!-- Generated by graphviz version 9.0.0 (20230911.1827)
 -->
<!-- Title: sensesp::PressRepeater Pages: 1 -->
<!--zoomable 224 -->

<svg id="main" version="1.1" xmlns="http://www.w3.org/2000/svg" xmlns:xlink="http://www.w3.org/1999/xlink" xml:space="preserve" onload="init(evt)">
<style type="text/css"><![CDATA[
.node, .edge {opacity: 0.7;}
.node.selected, .edge.selected {opacity: 1;}
.edge:hover path { stroke: red; }
.edge:hover polygon { stroke: red; fill: red; }
]]></style>

<defs>
  <circle id="rim" cx="0" cy="0" r="7"/>
  <circle id="rim2" cx="0" cy="0" r="3.5"/>
  <g id="zoomPlus">
    <use xlink:href="#rim" fill="#404040"><set attributeName="fill" to="#808080" begin="zoomplus.mouseover" end="zoomplus.mouseout"/></use>
    <path d="M-4,0h8M0,-4v8" fill="none" stroke="white" stroke-width="1.5" pointer-events="none"/>
  </g>
  <g id="zoomMin">
    <use xlink:href="#rim" fill="#404040"><set attributeName="fill" to="#808080" begin="zoomminus.mouseover" end="zoomminus.mouseout"/></use>
    <path d="M-4,0h8" fill="none" stroke="white" stroke-width="1.5" pointer-events="none"/>
  </g>
  <g id="arrowUp" transform="translate(30 24)">
    <use xlink:href="#rim"/>
    <path pointer-events="none" fill="none" stroke="white" stroke-width="1.5" d="M0,-3.0v7 M-2.5,-0.5L0,-3.0L2.5,-0.5"/>
  </g>
  <g id="arrowRight" transform="rotate(90) translate(36 -43)">
    <use xlink:href="#rim"/>
    <path pointer-events="none" fill="none" stroke="white" stroke-width="1.5" d="M0,-3.0v7 M-2.5,-0.5L0,-3.0L2.5,-0.5"/>
  </g>
  <g id="arrowDown" transform="rotate(180) translate(-30 -48)">
    <use xlink:href="#rim"/>
    <path pointer-events="none" fill="none" stroke="white" stroke-width="1.5" d="M0,-3.0v7 M-2.5,-0.5L0,-3.0L2.5,-0.5"/>
  </g>
  <g id="arrowLeft" transform="rotate(270) translate(-36 17)">
    <use xlink:href="#rim"/>
    <path pointer-events="none" fill="none" stroke="white" stroke-width="1.5" d="M0,-3.0v7 M-2.5,-0.5L0,-3.0L2.5,-0.5"/>
  </g>
  <g id="resetDef">
    <use xlink:href="#rim2" fill="#404040"><set attributeName="fill" to="#808080" begin="reset.mouseover" end="reset.mouseout"/></use>
  </g>
</defs>
<script type="application/ecmascript">
var viewWidth = 1370;
var viewHeight = 224;
var sectionId = 'dynsection-0';
</script>
<script type="application/ecmascript" xlink:href="svg.min.js"/>
<svg id="graph" class="graph">
<g id="viewport">
<title>sensesp::PressRepeater</title>
<!-- Node1 -->
<g id="Node000001" class="node">
<title>Node1</title>
<g id="a_Node000001"><a xlink:title="A transform that takes boolean inputs and adds button behaviors familiar to many device end users.">
<polygon fill="#999999" stroke="#666666" points="1362,-172.25 1238,-172.25 1238,-153 1362,-153 1362,-172.25"/>
<text text-anchor="middle" x="1300" y="-158.75" font-family="Helvetica,sans-Serif" font-size="10.00">sensesp::PressRepeater</text>
</a>
</g>
</g>
<!-- Node2 -->
<g id="Node000002" class="node">
<title>Node2</title>
<g id="a_Node000002"><a xlink:href="classsensesp_1_1_symmetric_transform.html" target="_top" xlink:title="A common type of transform that consumes, transforms, then outputs values of the same data type.">
<polygon fill="white" stroke="#666666" points="1201,-141.25 1105.5,-141.25 1105.5,-122 1201,-122 1201,-141.25"/>
<text text-anchor="middle" x="1153.25" y="-127.75" font-family="Helvetica,sans-Serif" font-size="10.00">BooleanTransform</text>
</a>
</g>
</g>
<!-- Node2&#45;&gt;Node1 -->
<g id="edge1_Node000001_Node000002" class="edge">
<title>Node2&#45;&gt;Node1</title>
<g id="a_edge1_Node000001_Node000002"><a xlink:title=" ">
<path fill="none" stroke="#63b8ff" d="M1212.5,-144.1C1225.54,-146.89 1239.21,-149.82 1251.74,-152.5"/>
<polygon fill="#63b8ff" stroke="#63b8ff" points="1213.24,-140.68 1202.73,-142.01 1211.77,-147.52 1213.24,-140.68"/>
</a>
</g>
</g>
<!-- Node3 -->
<g id="Node000003" class="node">
<title>Node3</title>
<g id="a_Node000003"><a xlink:href="classsensesp_1_1_transform.html" target="_top" xlink:title=" ">
<polygon fill="white" stroke="#666666" points="1068.5,-109.88 965.5,-109.88 965.5,-79.38 1068.5,-79.38 1068.5,-109.88"/>
<text text-anchor="start" x="973.5" y="-96.38" font-family="Helvetica,sans-Serif" font-size="10.00">sensesp::Transform</text>
<text text-anchor="middle" x="1017" y="-85.12" font-family="Helvetica,sans-Serif" font-size="10.00">&lt; T, T &gt;</text>
</a>
</g>
</g>
<!-- Node3&#45;&gt;Node2 -->
<g id="edge2_Node000002_Node000003" class="edge">
<title>Node3&#45;&gt;Node2</title>
<g id="a_edge2_Node000002_Node000003"><a xlink:title=" ">
<path fill="none" stroke="#63b8ff" d="M1079.5,-111.58C1091.86,-114.98 1104.47,-118.46 1115.65,-121.54"/>
<polygon fill="#63b8ff" stroke="#63b8ff" points="1080.78,-108.3 1070.21,-109.02 1078.92,-115.05 1080.78,-108.3"/>
</a>
</g>
</g>
<!-- Node4 -->
<g id="Node000004" class="node">
<title>Node4</title>
<g id="a_Node000004"><a xlink:href="classsensesp_1_1_transform_base.html" target="_top" xlink:title="The base class for all transforms. A transforms takes a value in, transforms it in some way,...">
<polygon fill="white" stroke="#666666" points="618.12,-57.25 492.62,-57.25 492.62,-38 618.12,-38 618.12,-57.25"/>
<text text-anchor="middle" x="555.38" y="-43.75" font-family="Helvetica,sans-Serif" font-size="10.00">sensesp::TransformBase</text>
</a>
</g>
</g>
<!-- Node4&#45;&gt;Node3 -->
<g id="edge3_Node000003_Node000004" class="edge">
<title>Node4&#45;&gt;Node3</title>
<g id="a_edge3_Node000003_Node000004"><a xlink:title=" ">
<path fill="none" stroke="#63b8ff" d="M629.92,-50.07C698.09,-52.94 802.22,-58.9 892,-70.62 916.24,-73.79 942.89,-78.75 965.25,-83.34"/>
<polygon fill="#63b8ff" stroke="#63b8ff" points="630.11,-46.57 619.97,-49.66 629.82,-53.57 630.11,-46.57"/>
</a>
</g>
</g>
<!-- Node10 -->
<g id="Node000010" class="node">
<title>Node10</title>
<g id="a_Node000010"><a xlink:href="classsensesp_1_1_transform.html" target="_top" xlink:title="The main Transform class. A transform is identified primarily by the type of value that is produces (...">
<polygon fill="white" stroke="#666666" points="867.62,-109.88 764.62,-109.88 764.62,-79.38 867.62,-79.38 867.62,-109.88"/>
<text text-anchor="start" x="772.62" y="-96.38" font-family="Helvetica,sans-Serif" font-size="10.00">sensesp::Transform</text>
<text text-anchor="middle" x="816.12" y="-85.12" font-family="Helvetica,sans-Serif" font-size="10.00">&lt; C, P &gt;</text>
</a>
</g>
</g>
<!-- Node4&#45;&gt;Node10 -->
<g id="edge10_Node000010_Node000004" class="edge">
<title>Node4&#45;&gt;Node10</title>
<g id="a_edge10_Node000010_Node000004"><a xlink:title=" ">
<path fill="none" stroke="#63b8ff" d="M623.09,-59.74C667.21,-67.76 724.14,-78.1 764.53,-85.44"/>
<polygon fill="#63b8ff" stroke="#63b8ff" points="623.84,-56.32 613.37,-57.98 622.59,-63.21 623.84,-56.32"/>
</a>
</g>
</g>
<!-- Node5 -->
<g id="Node000005" class="node">
<title>Node5</title>
<g id="a_Node000005"><a xlink:href="classsensesp_1_1_configurable.html" target="_top" xlink:title="An object that is capable of having configuration data that can be set remotely using a RESTful API,...">
<polygon fill="white" stroke="#666666" points="277.88,-56.25 164.38,-56.25 164.38,-37 277.88,-37 277.88,-56.25"/>
<text text-anchor="middle" x="221.12" y="-42.75" font-family="Helvetica,sans-Serif" font-size="10.00">sensesp::Configurable</text>
</a>
</g>
</g>
<!-- Node5&#45;&gt;Node4 -->
<g id="edge4_Node000004_Node000005" class="edge">
<title>Node5&#45;&gt;Node4</title>
<g id="a_edge4_Node000004_Node000005"><a xlink:title=" ">
<path fill="none" stroke="#63b8ff" d="M289.61,-46.83C348.92,-47.01 434.55,-47.26 492.22,-47.44"/>
<polygon fill="#63b8ff" stroke="#63b8ff" points="289.64,-43.33 279.62,-46.8 289.61,-50.33 289.64,-43.33"/>
</a>
</g>
</g>
<!-- Node6 -->
<g id="Node000006" class="node">
<title>Node6</title>
<g id="a_Node000006"><a xlink:href="classsensesp_1_1_startable.html" target="_top" xlink:title="Automatic calling of the start() method at startup.">
<polygon fill="white" stroke="#666666" points="270,-19.25 172.25,-19.25 172.25,0 270,0 270,-19.25"/>
<text text-anchor="middle" x="221.12" y="-5.75" font-family="Helvetica,sans-Serif" font-size="10.00">sensesp::Startable</text>
</a>
</g>
</g>
<!-- Node6&#45;&gt;Node4 -->
<g id="edge5_Node000004_Node000006" class="edge">
<title>Node6&#45;&gt;Node4</title>
<g id="a_edge5_Node000004_Node000006"><a xlink:title=" ">
<path fill="none" stroke="#63b8ff" d="M281.52,-16.42C340.98,-23.22 432.07,-33.64 492.41,-40.54"/>
<polygon fill="#63b8ff" stroke="#63b8ff" points="282.27,-12.98 271.94,-15.32 281.48,-19.94 282.27,-12.98"/>
</a>
</g>
</g>
<!-- Node7 -->
<g id="Node000007" class="node">
<title>Node7</title>
<g id="a_Node000007"><a xlink:href="classsensesp_1_1_value_consumer.html" target="_top" xlink:title="A base class for piece of code (like a transform) that accepts data for input. ValueConsumers can acc...">
<polygon fill="white" stroke="#666666" points="892,-20.25 740.25,-20.25 740.25,-1 892,-1 892,-20.25"/>
<text text-anchor="middle" x="816.12" y="-6.75" font-family="Helvetica,sans-Serif" font-size="10.00">sensesp::ValueConsumer&lt; T &gt;</text>
</a>
</g>
</g>
<!-- Node7&#45;&gt;Node3 -->
<g id="edge6_Node000003_Node000007" class="edge">
<title>Node7&#45;&gt;Node3</title>
<g id="a_edge6_Node000003_Node000007"><a xlink:title=" ">
<path fill="none" stroke="#63b8ff" d="M903.39,-19.73C918.55,-23.21 933.83,-28.01 947.5,-34.62 969.56,-45.3 990.02,-65.04 1002.73,-78.96"/>
<polygon fill="#63b8ff" stroke="#63b8ff" points="904.38,-16.36 893.88,-17.73 902.94,-23.21 904.38,-16.36"/>
</a>
</g>
</g>
<!-- Node8 -->
<g id="Node000008" class="node">
<title>Node8</title>
<g id="a_Node000008"><a xlink:href="classsensesp_1_1_value_producer.html" target="_top" xlink:title="A base class for any sensor or piece of code that outputs a value for consumption elsewhere.">
<polygon fill="white" stroke="#666666" points="460.75,-156.25 315,-156.25 315,-137 460.75,-137 460.75,-156.25"/>
<text text-anchor="middle" x="387.88" y="-142.75" font-family="Helvetica,sans-Serif" font-size="10.00">sensesp::ValueProducer&lt; T &gt;</text>
</a>
</g>
</g>
<!-- Node8&#45;&gt;Node3 -->
<g id="edge7_Node000003_Node000008" class="edge">
<title>Node8&#45;&gt;Node3</title>
<g id="a_edge7_Node000003_Node000008"><a xlink:title=" ">
<path fill="none" stroke="#63b8ff" d="M472.37,-144.66C572.37,-141.7 744.82,-134.61 892,-118.62 916.2,-116 942.72,-111.14 965.01,-106.47"/>
<polygon fill="#63b8ff" stroke="#63b8ff" points="472.55,-141.16 462.65,-144.95 472.75,-148.15 472.55,-141.16"/>
</a>
</g>
</g>
<!-- Node9 -->
<g id="Node000009" class="node">
<title>Node9</title>
<g id="a_Node000009"><a xlink:href="classsensesp_1_1_observable.html" target="_top" xlink:title="A base class which allow observers to attach callbacks to themselves. The callbacks will be called wh...">
<polygon fill="white" stroke="#666666" points="108.25,-131.25 0,-131.25 0,-112 108.25,-112 108.25,-131.25"/>
<text text-anchor="middle" x="54.12" y="-117.75" font-family="Helvetica,sans-Serif" font-size="10.00">sensesp::Observable</text>
</a>
</g>
</g>
<!-- Node9&#45;&gt;Node8 -->
<g id="edge8_Node000008_Node000009" class="edge">
<title>Node9&#45;&gt;Node8</title>
<g id="a_edge8_Node000008_Node000009"><a xlink:title=" ">
<path fill="none" stroke="#63b8ff" d="M112.02,-133.62C116.82,-134.39 121.61,-135.07 126.25,-135.62 189.66,-143.16 262.28,-145.73 314.73,-146.52"/>
<polygon fill="#63b8ff" stroke="#63b8ff" points="112.82,-130.2 102.37,-131.95 111.63,-137.1 112.82,-130.2"/>
</a>
</g>
</g>
<!-- Node13 -->
<g id="Node000013" class="node">
<title>Node13</title>
<g id="a_Node000013"><a xlink:href="classsensesp_1_1_value_producer.html" target="_top" xlink:title=" ">
<polygon fill="white" stroke="#666666" points="628.62,-108.25 482.12,-108.25 482.12,-89 628.62,-89 628.62,-108.25"/>
<text text-anchor="middle" x="555.38" y="-94.75" font-family="Helvetica,sans-Serif" font-size="10.00">sensesp::ValueProducer&lt; P &gt;</text>
</a>
</g>
</g>
<!-- Node9&#45;&gt;Node13 -->
<g id="edge14_Node000013_Node000009" class="edge">
<title>Node9&#45;&gt;Node13</title>
<g id="a_edge14_Node000013_Node000009"><a xlink:title=" ">
<path fill="none" stroke="#63b8ff" d="M120.03,-120.61C200.17,-119.08 340.62,-115.46 460.75,-107.62 467.59,-107.18 474.71,-106.64 481.83,-106.04"/>
<polygon fill="#63b8ff" stroke="#63b8ff" points="120.1,-117.11 110.17,-120.79 120.23,-124.11 120.1,-117.11"/>
</a>
</g>
</g>
<!-- Node14 -->
<g id="Node000014" class="node">
<title>Node14</title>
<g id="a_Node000014"><a xlink:href="classsensesp_1_1_value_producer.html" target="_top" xlink:title="A base class for any sensor or piece of code that outputs a value for consumption elsewhere.">
<polygon fill="white" stroke="#666666" points="294,-93.25 148.25,-93.25 148.25,-74 294,-74 294,-93.25"/>
<text text-anchor="middle" x="221.12" y="-79.75" font-family="Helvetica,sans-Serif" font-size="10.00">sensesp::ValueProducer&lt; T &gt;</text>
</a>
</g>
</g>
<!-- Node9&#45;&gt;Node14 -->
<g id="edge16_Node000014_Node000009" class="edge">
<title>Node9&#45;&gt;Node14</title>
<g id="a_edge16_Node000014_Node000009"><a xlink:title=" ">
<path fill="none" stroke="#63b8ff" d="M109.92,-109.01C131.54,-104.03 156.03,-98.39 176.42,-93.69"/>
<polygon fill="#63b8ff" stroke="#63b8ff" points="109.34,-105.55 100.38,-111.2 110.91,-112.37 109.34,-105.55"/>
</a>
</g>
</g>
<!-- Node10&#45;&gt;Node3 -->
<g id="edge9_Node000003_Node000010" class="edge">
<title>Node10&#45;&gt;Node3</title>
<g id="a_edge9_Node000003_Node000010"><a xlink:title=" ">
<path fill="none" stroke="orange" stroke-dasharray="5,2" d="M879.59,-94.62C907.14,-94.62 939.11,-94.62 965.18,-94.62"/>
<polygon fill="orange" stroke="orange" points="879.6,-91.13 869.6,-94.63 879.6,-98.13 879.6,-91.13"/>
</a>
</g>
<text text-anchor="middle" x="928.75" y="-96.38" font-family="Helvetica,sans-Serif" font-size="10.00" fill="grey"> &lt; T, T &gt;</text>
</g>
<!-- Node11 -->
<g id="Node000011" class="node">
<title>Node11</title>
<g id="a_Node000011"><a xlink:href="classsensesp_1_1_value_consumer.html" target="_top" xlink:title=" ">
<polygon fill="white" stroke="#666666" points="632,-185.25 478.75,-185.25 478.75,-166 632,-166 632,-185.25"/>
<text text-anchor="middle" x="555.38" y="-171.75" font-family="Helvetica,sans-Serif" font-size="10.00">sensesp::ValueConsumer&lt; C &gt;</text>
</a>
</g>
</g>
<!-- Node11&#45;&gt;Node10 -->
<g id="edge11_Node000010_Node000011" class="edge">
<title>Node11&#45;&gt;Node10</title>
<g id="a_edge11_Node000010_Node000011"><a xlink:title=" ">
<path fill="none" stroke="#63b8ff" d="M599.34,-162.17C644.96,-147.89 717,-125.34 765.13,-110.28"/>
<polygon fill="#63b8ff" stroke="#63b8ff" points="598.56,-158.75 590.07,-165.08 600.66,-165.43 598.56,-158.75"/>
</a>
</g>
</g>
<!-- Node12 -->
<g id="Node000012" class="node">
<title>Node12</title>
<g id="a_Node000012"><a xlink:href="classsensesp_1_1_value_consumer.html" target="_top" xlink:title="A base class for piece of code (like a transform) that accepts data for input. ValueConsumers can acc...">
<polygon fill="white" stroke="#666666" points="297,-215.25 145.25,-215.25 145.25,-196 297,-196 297,-215.25"/>
<text text-anchor="middle" x="221.12" y="-201.75" font-family="Helvetica,sans-Serif" font-size="10.00">sensesp::ValueConsumer&lt; T &gt;</text>
</a>
</g>
</g>
<!-- Node12&#45;&gt;Node11 -->
<g id="edge12_Node000011_Node000012" class="edge">
<title>Node12&#45;&gt;Node11</title>
<g id="a_edge12_Node000011_Node000012"><a xlink:title=" ">
<path fill="none" stroke="orange" stroke-dasharray="5,2" d="M262.53,-192.32C278.67,-187.62 297.53,-182.88 315,-180.38 369.21,-172.59 431.02,-171.56 478.25,-172.39"/>
<polygon fill="orange" stroke="orange" points="261.86,-188.87 253.3,-195.1 263.88,-195.57 261.86,-188.87"/>
</a>
</g>
<text text-anchor="middle" x="387.88" y="-181.38" font-family="Helvetica,sans-Serif" font-size="10.00" fill="grey"> &lt; C &gt;</text>
</g>
<!-- Node15 -->
<g id="Node000015" class="node">
<title>Node15</title>
<g id="a_Node000015"><a xlink:href="classsensesp_1_1_value_consumer.html" target="_top" xlink:title=" ">
<polygon fill="white" stroke="#666666" points="722.25,-213.25 650,-213.25 650,-194 722.25,-194 722.25,-213.25"/>
<text text-anchor="middle" x="686.12" y="-199.75" font-family="Helvetica,sans-Serif" font-size="10.00">IntConsumer</text>
</a>
</g>
</g>
<!-- Node12&#45;&gt;Node15 -->
<g id="edge18_Node000015_Node000012" class="edge">
<title>Node12&#45;&gt;Node15</title>
<g id="a_edge18_Node000015_Node000012"><a xlink:title=" ">
<path fill="none" stroke="orange" stroke-dasharray="5,2" d="M308.55,-205.25C411.17,-204.81 577.51,-204.09 649.75,-203.78"/>
<polygon fill="orange" stroke="orange" points="308.78,-201.75 298.8,-205.29 308.81,-208.75 308.78,-201.75"/>
</a>
</g>
<text text-anchor="middle" x="387.88" y="-206.38" font-family="Helvetica,sans-Serif" font-size="10.00" fill="grey"> &lt; int &gt;</text>
</g>
<!-- Node13&#45;&gt;Node10 -->
<g id="edge13_Node000010_Node000013" class="edge">
<title>Node13&#45;&gt;Node10</title>
<g id="a_edge13_Node000010_Node000013"><a xlink:title=" ">
<path fill="none" stroke="#63b8ff" d="M640.15,-97.33C681.14,-96.7 729.12,-95.95 764.46,-95.41"/>
<polygon fill="#63b8ff" stroke="#63b8ff" points="640.25,-93.83 630.31,-97.48 640.36,-100.83 640.25,-93.83"/>
</a>
</g>
</g>
<!-- Node14&#45;&gt;Node13 -->
<g id="edge15_Node000013_Node000014" class="edge">
<title>Node14&#45;&gt;Node13</title>
<g id="a_edge15_Node000013_Node000014"><a xlink:title=" ">
<path fill="none" stroke="orange" stroke-dasharray="5,2" d="M305.55,-87.39C359.82,-89.84 429.9,-93.01 481.85,-95.35"/>
<polygon fill="orange" stroke="orange" points="305.88,-83.9 295.73,-86.95 305.56,-90.9 305.88,-83.9"/>
</a>
</g>
<text text-anchor="middle" x="387.88" y="-95.38" font-family="Helvetica,sans-Serif" font-size="10.00" fill="grey"> &lt; P &gt;</text>
</g>
<!-- Node15&#45;&gt;Node1 -->
<g id="edge17_Node000001_Node000015" class="edge">
<title>Node15&#45;&gt;Node1</title>
<g id="a_edge17_Node000001_Node000015"><a xlink:title=" ">
<path fill="none" stroke="#63b8ff" d="M733.85,-196.81C782.25,-190.35 860.12,-181.62 927.75,-181.62 927.75,-181.62 927.75,-181.62 1154.25,-181.62 1185.3,-181.62 1219.78,-177.27 1247.29,-172.74"/>
<polygon fill="#63b8ff" stroke="#63b8ff" points="733.44,-193.33 724,-198.15 734.38,-200.27 733.44,-193.33"/>
</a>
</g>
</g>
</g>
</svg>

<g id="navigator" transform="translate(0 0)" fill="#404254">
  <rect fill="#f2f5e9" fill-opacity="0.5" stroke="#606060" stroke-width=".5" x="0" y="0" width="60" height="60"/>
  <use id="zoomplus" xlink:href="#zoomPlus" x="17" y="9" onmousedown="handleZoom(evt,'in')"/>
  <use id="zoomminus" xlink:href="#zoomMin" x="42" y="9" onmousedown="handleZoom(evt,'out')"/>
  <use id="reset" xlink:href="#resetDef" x="30" y="36" onmousedown="handleReset()"/>
   <use id="arrowup" xlink:href="#arrowUp" x="0" y="0" onmousedown="handlePan(0,-1)"/>
  <use id="arrowright" xlink:href="#arrowRight" x="0" y="0" onmousedown="handlePan(1,0)"/>
  <use id="arrowdown" xlink:href="#arrowDown" x="0" y="0" onmousedown="handlePan(0,1)"/>
  <use id="arrowleft" xlink:href="#arrowLeft" x="0" y="0" onmousedown="handlePan(-1,0)"/>
</g>
<svg viewBox="0 0 15 15" width="100%" height="30px" preserveAspectRatio="xMaxYMin meet">
 <g id="arrow_out" transform="scale(0.3 0.3)">
  <a xlink:href="classsensesp_1_1_press_repeater__inherit__graph_org.svg" target="_base">
   <rect id="button" ry="5" rx="5" y="6" x="6" height="38" width="38"
        fill="#f2f5e9" fill-opacity="0.5" stroke="#606060" stroke-width="1.0"/>
   <path id="arrow"
     d="M 11.500037,31.436501 C 11.940474,20.09759 22.043105,11.32322 32.158766,21.979434 L 37.068811,17.246167 C 37.068811,17.246167 37.088388,32 37.088388,32 L 22.160133,31.978069 C 22.160133,31.978069 26.997745,27.140456 26.997745,27.140456 C 18.528582,18.264221 13.291696,25.230495 11.500037,31.436501 z"
     style="fill:#404040;"/>
  </a>
 </g>
</svg>

<style type='text/css'>
<![CDATA[
[data-mouse-over-selected='false'] { opacity: 0.7; }
[data-mouse-over-selected='true']  { opacity: 1.0; }
]]>
</style>
<script type="application/ecmascript"><![CDATA[
document.addEventListener('DOMContentLoaded', (event) => {
  highlightEdges();
  highlightAdjacentNodes();
});
]]></script>
</svg>
