<?xml version="1.0" encoding="UTF-8" standalone="no"?>
<!DOCTYPE svg PUBLIC "-//W3C//DTD SVG 1.1//EN"
 "http://www.w3.org/Graphics/SVG/1.1/DTD/svg11.dtd">
<!-- Generated by graphviz version 7.1.0 (20230121.1956)
 -->
<!-- Title: sensesp::RatioBlinker Pages: 1 -->
<svg width="133pt" height="192pt"
 viewBox="0.00 0.00 133.00 192.00" xmlns="http://www.w3.org/2000/svg" xmlns:xlink="http://www.w3.org/1999/xlink">
<g id="graph0" class="graph" transform="scale(1 1) rotate(0) translate(4 188)">
<title>sensesp::RatioBlinker</title>
<!-- Node1 -->
<g id="node1" class="node">
<title>Node1</title>
<g id="a_node1"><a xlink:title="A periodic blinker that defines both the on&#45;ratio and the period length.">
<polygon fill="#999999" stroke="#666666" points="119,-19 6,-19 6,0 119,0 119,-19"/>
<text text-anchor="middle" x="62.5" y="-7" font-family="Helvetica,sans-Serif" font-size="10.00">sensesp::RatioBlinker</text>
</a>
</g>
</g>
<!-- Node2 -->
<g id="node2" class="node">
<title>Node2</title>
<g id="a_node2"><a xlink:href="classsensesp_1_1_periodic_blinker.html" target="_top" xlink:title="A base class for periodic blinkers.">
<polygon fill="white" stroke="#666666" points="125,-74 0,-74 0,-55 125,-55 125,-74"/>
<text text-anchor="middle" x="62.5" y="-62" font-family="Helvetica,sans-Serif" font-size="10.00">sensesp::PeriodicBlinker</text>
</a>
</g>
</g>
<!-- Node2&#45;&gt;Node1 -->
<g id="edge1" class="edge">
<title>Node2&#45;&gt;Node1</title>
<path fill="none" stroke="#63b8ff" d="M62.5,-43.35C62.5,-35.1 62.5,-25.97 62.5,-19.44"/>
<polygon fill="#63b8ff" stroke="#63b8ff" points="59,-43.23 62.5,-53.23 66,-43.23 59,-43.23"/>
</g>
<!-- Node3 -->
<g id="node3" class="node">
<title>Node3</title>
<g id="a_node3"><a xlink:href="classsensesp_1_1_base_blinker.html" target="_top" xlink:title="A base class for LED blinker classes.">
<polygon fill="white" stroke="#666666" points="118.5,-129 6.5,-129 6.5,-110 118.5,-110 118.5,-129"/>
<text text-anchor="middle" x="62.5" y="-117" font-family="Helvetica,sans-Serif" font-size="10.00">sensesp::BaseBlinker</text>
</a>
</g>
</g>
<!-- Node3&#45;&gt;Node2 -->
<g id="edge2" class="edge">
<title>Node3&#45;&gt;Node2</title>
<path fill="none" stroke="#63b8ff" d="M62.5,-98.35C62.5,-90.1 62.5,-80.97 62.5,-74.44"/>
<polygon fill="#63b8ff" stroke="#63b8ff" points="59,-98.23 62.5,-108.23 66,-98.23 59,-98.23"/>
</g>
<!-- Node4 -->
<g id="node4" class="node">
<title>Node4</title>
<g id="a_node4"><a xlink:href="classsensesp_1_1_startable.html" target="_top" xlink:title="Automatic calling of the start() method at startup.">
<polygon fill="white" stroke="#666666" points="111.5,-184 13.5,-184 13.5,-165 111.5,-165 111.5,-184"/>
<text text-anchor="middle" x="62.5" y="-172" font-family="Helvetica,sans-Serif" font-size="10.00">sensesp::Startable</text>
</a>
</g>
</g>
<!-- Node4&#45;&gt;Node3 -->
<g id="edge3" class="edge">
<title>Node4&#45;&gt;Node3</title>
<path fill="none" stroke="#63b8ff" d="M62.5,-153.35C62.5,-145.1 62.5,-135.97 62.5,-129.44"/>
<polygon fill="#63b8ff" stroke="#63b8ff" points="59,-153.23 62.5,-163.23 66,-153.23 59,-153.23"/>
</g>
</g>
</svg>
