<?xml version="1.0" encoding="UTF-8" standalone="no"?>
<!DOCTYPE svg PUBLIC "-//W3C//DTD SVG 1.1//EN"
 "http://www.w3.org/Graphics/SVG/1.1/DTD/svg11.dtd">
<!-- Generated by graphviz version 14.1.4 (20260321.0153)
 -->
<!-- Title: sensesp::SKDeltaQueue::get_delta Pages: 1 -->
<svg width="666pt" height="137pt"
 viewBox="0.00 0.00 666.00 137.00" xmlns="http://www.w3.org/2000/svg" xmlns:xlink="http://www.w3.org/1999/xlink">
<g id="graph0" class="graph" transform="scale(1 1) rotate(0) translate(4 132.5)">
<title>sensesp::SKDeltaQueue::get_delta</title>
<!-- Node1 -->
<g id="Node000001" class="node">
<title>Node1</title>
<g id="a_Node000001"><a xlink:title=" ">
<polygon fill="#999999" stroke="#666666" points="124,-79.5 0,-79.5 0,-49 124,-49 124,-79.5"/>
<text xml:space="preserve" text-anchor="start" x="8" y="-66" font-family="Helvetica,sans-Serif" font-size="10.00">sensesp::SKDeltaQueue</text>
<text xml:space="preserve" text-anchor="middle" x="62" y="-54.75" font-family="Helvetica,sans-Serif" font-size="10.00">::get_delta</text>
</a>
</g>
</g>
<!-- Node2 -->
<g id="Node000002" class="node">
<title>Node2</title>
<g id="a_Node000002"><a xlink:href="classsensesp_1_1_s_k_delta_queue.html#a5d0a0117f4a4ad134313063a18fdf084" target="_top" xlink:title=" ">
<polygon fill="white" stroke="#666666" points="284,-79.5 160,-79.5 160,-49 284,-49 284,-79.5"/>
<text xml:space="preserve" text-anchor="start" x="168" y="-66" font-family="Helvetica,sans-Serif" font-size="10.00">sensesp::SKDeltaQueue</text>
<text xml:space="preserve" text-anchor="middle" x="222" y="-54.75" font-family="Helvetica,sans-Serif" font-size="10.00">::get_deltas</text>
</a>
</g>
</g>
<!-- Node1&#45;&gt;Node2 -->
<g id="edge1_Node000001_Node000002" class="edge">
<title>Node1&#45;&gt;Node2</title>
<g id="a_edge1_Node000001_Node000002"><a xlink:title=" ">
<path fill="none" stroke="#63b8ff" d="M124.09,-64.25C132,-64.25 140.16,-64.25 148.23,-64.25"/>
<polygon fill="#63b8ff" stroke="#63b8ff" points="148.04,-67.75 158.04,-64.25 148.04,-60.75 148.04,-67.75"/>
</a>
</g>
</g>
<!-- Node3 -->
<g id="Node000003" class="node">
<title>Node3</title>
<g id="a_Node000003"><a xlink:href="classsensesp_1_1_sens_e_s_p_base_app.html#a21ba3dc3ef0056c32ad5a67e1ae5ff16" target="_top" xlink:title="Get the current hostname.">
<polygon fill="white" stroke="#666666" points="461.25,-128.5 320,-128.5 320,-98 461.25,-98 461.25,-128.5"/>
<text xml:space="preserve" text-anchor="start" x="328" y="-115" font-family="Helvetica,sans-Serif" font-size="10.00">sensesp::SensESPBaseApp</text>
<text xml:space="preserve" text-anchor="middle" x="390.62" y="-103.75" font-family="Helvetica,sans-Serif" font-size="10.00">::get_hostname</text>
</a>
</g>
</g>
<!-- Node2&#45;&gt;Node3 -->
<g id="edge2_Node000002_Node000003" class="edge">
<title>Node2&#45;&gt;Node3</title>
<g id="a_edge2_Node000002_Node000003"><a xlink:title=" ">
<path fill="none" stroke="#63b8ff" d="M276.18,-79.89C291.73,-84.46 308.91,-89.51 325.08,-94.27"/>
<polygon fill="#63b8ff" stroke="#63b8ff" points="324.06,-97.62 334.64,-97.08 326.04,-90.9 324.06,-97.62"/>
</a>
</g>
</g>
<!-- Node5 -->
<g id="Node000005" class="node">
<title>Node5</title>
<g id="a_Node000005"><a xlink:href="classsensesp_1_1_s_k_delta_queue.html#a8c79cbfdc595e971219eb12e99387ea7" target="_top" xlink:title=" ">
<polygon fill="white" stroke="#666666" points="452.62,-79.5 328.62,-79.5 328.62,-49 452.62,-49 452.62,-79.5"/>
<text xml:space="preserve" text-anchor="start" x="336.62" y="-66" font-family="Helvetica,sans-Serif" font-size="10.00">sensesp::SKDeltaQueue</text>
<text xml:space="preserve" text-anchor="middle" x="390.62" y="-54.75" font-family="Helvetica,sans-Serif" font-size="10.00">::release_semaphore</text>
</a>
</g>
</g>
<!-- Node2&#45;&gt;Node5 -->
<g id="edge4_Node000002_Node000005" class="edge">
<title>Node2&#45;&gt;Node5</title>
<g id="a_edge4_Node000002_Node000005"><a xlink:title=" ">
<path fill="none" stroke="#63b8ff" d="M284.1,-64.25C294.78,-64.25 305.99,-64.25 316.96,-64.25"/>
<polygon fill="#63b8ff" stroke="#63b8ff" points="316.74,-67.75 326.74,-64.25 316.74,-60.75 316.74,-67.75"/>
</a>
</g>
</g>
<!-- Node6 -->
<g id="Node000006" class="node">
<title>Node6</title>
<g id="a_Node000006"><a xlink:href="classsensesp_1_1_s_k_delta_queue.html#acf8751c8a6f917b284aab75d480eda43" target="_top" xlink:title=" ">
<polygon fill="white" stroke="#666666" points="452.62,-30.5 328.62,-30.5 328.62,0 452.62,0 452.62,-30.5"/>
<text xml:space="preserve" text-anchor="start" x="336.62" y="-17" font-family="Helvetica,sans-Serif" font-size="10.00">sensesp::SKDeltaQueue</text>
<text xml:space="preserve" text-anchor="middle" x="390.62" y="-5.75" font-family="Helvetica,sans-Serif" font-size="10.00">::take_semaphore</text>
</a>
</g>
</g>
<!-- Node2&#45;&gt;Node6 -->
<g id="edge5_Node000002_Node000006" class="edge">
<title>Node2&#45;&gt;Node6</title>
<g id="a_edge5_Node000002_Node000006"><a xlink:title=" ">
<path fill="none" stroke="#63b8ff" d="M276.18,-48.61C291.73,-44.04 308.91,-38.99 325.08,-34.23"/>
<polygon fill="#63b8ff" stroke="#63b8ff" points="326.04,-37.6 334.64,-31.42 324.06,-30.88 326.04,-37.6"/>
</a>
</g>
</g>
<!-- Node4 -->
<g id="Node000004" class="node">
<title>Node4</title>
<g id="a_Node000004"><a xlink:href="classsensesp_1_1_sens_e_s_p_base_app.html#add2c67bb55d095ab9c64f44ab2e82612" target="_top" xlink:title="Get the singleton instance of the SensESPBaseApp.">
<polygon fill="white" stroke="#666666" points="658,-122.88 497.25,-122.88 497.25,-103.62 658,-103.62 658,-122.88"/>
<text xml:space="preserve" text-anchor="middle" x="577.62" y="-109.38" font-family="Helvetica,sans-Serif" font-size="10.00">sensesp::SensESPBaseApp::get</text>
</a>
</g>
</g>
<!-- Node3&#45;&gt;Node4 -->
<g id="edge3_Node000003_Node000004" class="edge">
<title>Node3&#45;&gt;Node4</title>
<g id="a_edge3_Node000003_Node000004"><a xlink:title=" ">
<path fill="none" stroke="#63b8ff" d="M461.57,-113.25C469.42,-113.25 477.51,-113.25 485.59,-113.25"/>
<polygon fill="#63b8ff" stroke="#63b8ff" points="485.46,-116.75 495.46,-113.25 485.46,-109.75 485.46,-116.75"/>
</a>
</g>
</g>
</g>
</svg>
