<?xml version="1.0" encoding="UTF-8" standalone="no"?>
<!DOCTYPE svg PUBLIC "-//W3C//DTD SVG 1.1//EN"
 "http://www.w3.org/Graphics/SVG/1.1/DTD/svg11.dtd">
<!-- Generated by graphviz version 9.0.0 (20230911.1827)
 -->
<!-- Title: sensesp::DebugOutput::start Pages: 1 -->
<svg width="499pt" height="64pt"
 viewBox="0.00 0.00 498.50 64.25" xmlns="http://www.w3.org/2000/svg" xmlns:xlink="http://www.w3.org/1999/xlink">
<g id="graph0" class="graph" transform="scale(1 1) rotate(0) translate(4 60.25)">
<title>sensesp::DebugOutput::start</title>
<!-- Node1 -->
<g id="Node000001" class="node">
<title>Node1</title>
<g id="a_Node000001"><a xlink:title=" ">
<polygon fill="#999999" stroke="#666666" points="116.5,-42.88 0,-42.88 0,-12.37 116.5,-12.37 116.5,-42.88"/>
<text text-anchor="start" x="8" y="-29.38" font-family="Helvetica,sans-Serif" font-size="10.00">sensesp::DebugOutput</text>
<text text-anchor="middle" x="58.25" y="-18.12" font-family="Helvetica,sans-Serif" font-size="10.00">::start</text>
</a>
</g>
</g>
<!-- Node2 -->
<g id="Node000002" class="node">
<title>Node2</title>
<g id="a_Node000002"><a xlink:href="classsensesp_1_1_sens_e_s_p_base_app.html#a928c309a2dc17f82edefe9e5bc7ef33d" target="_top" xlink:title="Get the current hostname.">
<polygon fill="white" stroke="#666666" points="293.75,-42.88 152.5,-42.88 152.5,-12.37 293.75,-12.37 293.75,-42.88"/>
<text text-anchor="start" x="160.5" y="-29.38" font-family="Helvetica,sans-Serif" font-size="10.00">sensesp::SensESPBaseApp</text>
<text text-anchor="middle" x="223.12" y="-18.12" font-family="Helvetica,sans-Serif" font-size="10.00">::get_hostname</text>
</a>
</g>
</g>
<!-- Node1&#45;&gt;Node2 -->
<g id="edge1_Node000001_Node000002" class="edge">
<title>Node1&#45;&gt;Node2</title>
<g id="a_edge1_Node000001_Node000002"><a xlink:title=" ">
<path fill="none" stroke="#63b8ff" d="M116.67,-27.62C124.45,-27.62 132.56,-27.62 140.66,-27.62"/>
<polygon fill="#63b8ff" stroke="#63b8ff" points="140.57,-31.13 150.57,-27.63 140.57,-24.13 140.57,-31.13"/>
</a>
</g>
</g>
<!-- Node3 -->
<g id="Node000003" class="node">
<title>Node3</title>
<g id="a_Node000003"><a xlink:href="classsensesp_1_1_sens_e_s_p_base_app.html#a2df22469c69a8a1234ab673386f574d6" target="_top" xlink:title="Get the singleton instance of the SensESPBaseApp.">
<polygon fill="white" stroke="#666666" points="490.5,-56.25 329.75,-56.25 329.75,-37 490.5,-37 490.5,-56.25"/>
<text text-anchor="middle" x="410.12" y="-42.75" font-family="Helvetica,sans-Serif" font-size="10.00">sensesp::SensESPBaseApp::get</text>
</a>
</g>
</g>
<!-- Node2&#45;&gt;Node3 -->
<g id="edge2_Node000002_Node000003" class="edge">
<title>Node2&#45;&gt;Node3</title>
<g id="a_edge2_Node000002_Node000003"><a xlink:title=" ">
<path fill="none" stroke="#63b8ff" d="M294.07,-34.81C301.92,-35.62 310.01,-36.45 318.09,-37.28"/>
<polygon fill="#63b8ff" stroke="#63b8ff" points="317.66,-40.75 327.97,-38.29 318.38,-33.79 317.66,-40.75"/>
</a>
</g>
</g>
<!-- Node4 -->
<g id="Node000004" class="node">
<title>Node4</title>
<g id="a_Node000004"><a xlink:href="classsensesp_1_1_value_producer.html#a438390eae6bba056ecf4ab329cb5c8e9" target="_top" xlink:title=" ">
<polygon fill="white" stroke="#666666" points="480.75,-19.25 339.5,-19.25 339.5,0 480.75,0 480.75,-19.25"/>
<text text-anchor="middle" x="410.12" y="-5.75" font-family="Helvetica,sans-Serif" font-size="10.00">sensesp::ValueProducer::get</text>
</a>
</g>
</g>
<!-- Node2&#45;&gt;Node4 -->
<g id="edge3_Node000002_Node000004" class="edge">
<title>Node2&#45;&gt;Node4</title>
<g id="a_edge3_Node000002_Node000004"><a xlink:title=" ">
<path fill="none" stroke="#63b8ff" d="M294.07,-20.82C305.12,-19.74 316.62,-18.63 327.91,-17.53"/>
<polygon fill="#63b8ff" stroke="#63b8ff" points="327.97,-21.04 337.58,-16.59 327.29,-14.07 327.97,-21.04"/>
</a>
</g>
</g>
</g>
</svg>
