<?xml version="1.0" encoding="UTF-8" standalone="no"?>
<!DOCTYPE svg PUBLIC "-//W3C//DTD SVG 1.1//EN"
 "http://www.w3.org/Graphics/SVG/1.1/DTD/svg11.dtd">
<!-- Generated by graphviz version 12.2.1 (20241206.2353)
 -->
<!-- Title: sensesp::ClickType Pages: 1 -->
<!--zoomable 225 -->

<svg id="main" version="1.1" xmlns="http://www.w3.org/2000/svg" xmlns:xlink="http://www.w3.org/1999/xlink" xml:space="preserve" onload="init(evt)">

<style type="text/css"><![CDATA[
.node, .edge {opacity: 0.7;}
.node.selected, .edge.selected {opacity: 1;}
.edge:hover path { stroke: red; }
.edge:hover polygon { stroke: red; fill: red; }
]]></style>

<defs>
  <circle id="rim" cx="0" cy="0" r="7"/>
  <circle id="rim2" cx="0" cy="0" r="3.5"/>
  <g id="zoomPlus">
    <use xlink:href="#rim" fill="#404040"><set attributeName="fill" to="#808080" begin="zoomplus.mouseover" end="zoomplus.mouseout"/></use>
    <path d="M-4,0h8M0,-4v8" fill="none" stroke="white" stroke-width="1.5" pointer-events="none"/>
  </g>
  <g id="zoomMin">
    <use xlink:href="#rim" fill="#404040"><set attributeName="fill" to="#808080" begin="zoomminus.mouseover" end="zoomminus.mouseout"/></use>
    <path d="M-4,0h8" fill="none" stroke="white" stroke-width="1.5" pointer-events="none"/>
  </g>
  <g id="arrowUp" transform="translate(30 24)">
    <use xlink:href="#rim"/>
    <path pointer-events="none" fill="none" stroke="white" stroke-width="1.5" d="M0,-3.0v7 M-2.5,-0.5L0,-3.0L2.5,-0.5"/>
  </g>
  <g id="arrowRight" transform="rotate(90) translate(36 -43)">
    <use xlink:href="#rim"/>
    <path pointer-events="none" fill="none" stroke="white" stroke-width="1.5" d="M0,-3.0v7 M-2.5,-0.5L0,-3.0L2.5,-0.5"/>
  </g>
  <g id="arrowDown" transform="rotate(180) translate(-30 -48)">
    <use xlink:href="#rim"/>
    <path pointer-events="none" fill="none" stroke="white" stroke-width="1.5" d="M0,-3.0v7 M-2.5,-0.5L0,-3.0L2.5,-0.5"/>
  </g>
  <g id="arrowLeft" transform="rotate(270) translate(-36 17)">
    <use xlink:href="#rim"/>
    <path pointer-events="none" fill="none" stroke="white" stroke-width="1.5" d="M0,-3.0v7 M-2.5,-0.5L0,-3.0L2.5,-0.5"/>
  </g>
  <g id="resetDef">
    <use xlink:href="#rim2" fill="#404040"><set attributeName="fill" to="#808080" begin="reset.mouseover" end="reset.mouseout"/></use>
  </g>
</defs>
<script type="application/ecmascript">
var viewWidth = 1207;
var viewHeight = 225;
var sectionId = 'dynsection-0';
</script>
<script type="application/ecmascript" xlink:href="svg.min.js"/>
<svg id="graph" class="graph">
<g id="viewport">
<title>sensesp::ClickType</title>
<!-- Node1 -->
<g id="Node000001" class="node">
<title>Node1</title>
<g id="a_Node000001"><a xlink:title="ClickType is a transform that consumes button clicks and translates them as events of type ClickTypes...">
<polygon fill="#999999" stroke="#666666" points="1199.25,-124.88 1097,-124.88 1097,-105.62 1199.25,-105.62 1199.25,-124.88"/>
<text text-anchor="middle" x="1148.12" y="-111.38" font-family="Helvetica,sans-Serif" font-size="10.00">sensesp::ClickType</text>
</a>
</g>
</g>
<!-- Node2 -->
<g id="Node000002" class="node">
<title>Node2</title>
<g id="a_Node000002"><a xlink:href="classsensesp_1_1_transform.html" target="_top" xlink:title=" ">
<polygon fill="white" stroke="#666666" points="1060,-130.5 953.25,-130.5 953.25,-100 1060,-100 1060,-130.5"/>
<text text-anchor="start" x="961.25" y="-117" font-family="Helvetica,sans-Serif" font-size="10.00">sensesp::Transform</text>
<text text-anchor="middle" x="1006.62" y="-105.75" font-family="Helvetica,sans-Serif" font-size="10.00">&lt; bool, ClickTypes &gt;</text>
</a>
</g>
</g>
<!-- Node2&#45;&gt;Node1 -->
<g id="edge1_Node000001_Node000002" class="edge">
<title>Node2&#45;&gt;Node1</title>
<g id="a_edge1_Node000001_Node000002"><a xlink:title=" ">
<path fill="none" stroke="#63b8ff" d="M1071.66,-115.25C1080.03,-115.25 1088.51,-115.25 1096.62,-115.25"/>
<polygon fill="#63b8ff" stroke="#63b8ff" points="1071.88,-111.75 1061.88,-115.25 1071.88,-118.75 1071.88,-111.75"/>
</a>
</g>
</g>
<!-- Node3 -->
<g id="Node000003" class="node">
<title>Node3</title>
<g id="a_Node000003"><a xlink:href="classsensesp_1_1_transform_base.html" target="_top" xlink:title="The base class for all transforms. A transforms takes a value in, transforms it in some way,...">
<polygon fill="white" stroke="#666666" points="542.88,-198.88 417.38,-198.88 417.38,-179.62 542.88,-179.62 542.88,-198.88"/>
<text text-anchor="middle" x="480.12" y="-185.38" font-family="Helvetica,sans-Serif" font-size="10.00">sensesp::TransformBase</text>
</a>
</g>
</g>
<!-- Node3&#45;&gt;Node2 -->
<g id="edge2_Node000002_Node000003" class="edge">
<title>Node3&#45;&gt;Node2</title>
<g id="a_edge2_Node000002_Node000003"><a xlink:title=" ">
<path fill="none" stroke="#63b8ff" d="M554.59,-192C645.89,-193.35 805.48,-188.84 935.25,-149.25 950.05,-144.74 965.62,-137.5 978.34,-130.86"/>
<polygon fill="#63b8ff" stroke="#63b8ff" points="554.83,-188.51 544.77,-191.83 554.71,-195.5 554.83,-188.51"/>
</a>
</g>
</g>
<!-- Node12 -->
<g id="Node000012" class="node">
<title>Node12</title>
<g id="a_Node000012"><a xlink:href="classsensesp_1_1_transform.html" target="_top" xlink:title="The main Transform class. A transform is identified primarily by the type of value that is produces (...">
<polygon fill="white" stroke="#666666" points="823.5,-156.5 720.5,-156.5 720.5,-126 823.5,-126 823.5,-156.5"/>
<text text-anchor="start" x="728.5" y="-143" font-family="Helvetica,sans-Serif" font-size="10.00">sensesp::Transform</text>
<text text-anchor="middle" x="772" y="-131.75" font-family="Helvetica,sans-Serif" font-size="10.00">&lt; C, P &gt;</text>
</a>
</g>
</g>
<!-- Node3&#45;&gt;Node12 -->
<g id="edge13_Node000012_Node000003" class="edge">
<title>Node3&#45;&gt;Node12</title>
<g id="a_edge13_Node000012_Node000003"><a xlink:title=" ">
<path fill="none" stroke="#63b8ff" d="M554.43,-177.56C597.57,-170.62 653.16,-161.58 702.5,-153.25 708.21,-152.28 714.19,-151.26 720.14,-150.23"/>
<polygon fill="#63b8ff" stroke="#63b8ff" points="554,-174.08 544.68,-179.13 555.11,-181 554,-174.08"/>
</a>
</g>
</g>
<!-- Node4 -->
<g id="Node000004" class="node">
<title>Node4</title>
<g id="a_Node000004"><a xlink:href="classsensesp_1_1_file_system_saveable.html" target="_top" xlink:title=" ">
<polygon fill="white" stroke="#666666" points="296.25,-198.88 147.5,-198.88 147.5,-179.62 296.25,-179.62 296.25,-198.88"/>
<text text-anchor="middle" x="221.88" y="-185.38" font-family="Helvetica,sans-Serif" font-size="10.00">sensesp::FileSystemSaveable</text>
</a>
</g>
</g>
<!-- Node4&#45;&gt;Node3 -->
<g id="edge3_Node000003_Node000004" class="edge">
<title>Node4&#45;&gt;Node3</title>
<g id="a_edge3_Node000003_Node000004"><a xlink:title=" ">
<path fill="none" stroke="#63b8ff" d="M308.03,-189.25C343.69,-189.25 384.38,-189.25 417.12,-189.25"/>
<polygon fill="#63b8ff" stroke="#63b8ff" points="308.16,-185.75 298.16,-189.25 308.16,-192.75 308.16,-185.75"/>
</a>
</g>
</g>
<!-- Node5 -->
<g id="Node000005" class="node">
<title>Node5</title>
<g id="a_Node000005"><a xlink:href="classsensesp_1_1_saveable.html" target="_top" xlink:title="Interface for saveable objects.">
<polygon fill="white" stroke="#666666" points="104.12,-179.88 4.88,-179.88 4.88,-160.62 104.12,-160.62 104.12,-179.88"/>
<text text-anchor="middle" x="54.5" y="-166.38" font-family="Helvetica,sans-Serif" font-size="10.00">sensesp::Saveable</text>
</a>
</g>
</g>
<!-- Node5&#45;&gt;Node4 -->
<g id="edge4_Node000004_Node000005" class="edge">
<title>Node5&#45;&gt;Node4</title>
<g id="a_edge4_Node000004_Node000005"><a xlink:title=" ">
<path fill="none" stroke="#63b8ff" d="M115.53,-177.15C125.77,-178.32 136.51,-179.56 147.05,-180.77"/>
<polygon fill="#63b8ff" stroke="#63b8ff" points="116.06,-173.68 105.73,-176.02 115.26,-180.64 116.06,-173.68"/>
</a>
</g>
</g>
<!-- Node6 -->
<g id="Node000006" class="node">
<title>Node6</title>
<g id="a_Node000006"><a xlink:href="classsensesp_1_1_serializable.html" target="_top" xlink:title="Interface for serializable objects.">
<polygon fill="white" stroke="#666666" points="109,-216.88 0,-216.88 0,-197.62 109,-197.62 109,-216.88"/>
<text text-anchor="middle" x="54.5" y="-203.38" font-family="Helvetica,sans-Serif" font-size="10.00">sensesp::Serializable</text>
</a>
</g>
</g>
<!-- Node6&#45;&gt;Node4 -->
<g id="edge5_Node000004_Node000006" class="edge">
<title>Node6&#45;&gt;Node4</title>
<g id="a_edge5_Node000004_Node000006"><a xlink:title=" ">
<path fill="none" stroke="#63b8ff" d="M120.46,-200.18C129.17,-199.23 138.16,-198.25 147.01,-197.29"/>
<polygon fill="#63b8ff" stroke="#63b8ff" points="120.26,-196.68 110.7,-201.24 121.02,-203.64 120.26,-196.68"/>
</a>
</g>
</g>
<!-- Node7 -->
<g id="Node000007" class="node">
<title>Node7</title>
<g id="a_Node000007"><a xlink:href="classsensesp_1_1_value_consumer.html" target="_top" xlink:title=" ">
<polygon fill="white" stroke="#666666" points="702.5,-102.5 574.75,-102.5 574.75,-72 702.5,-72 702.5,-102.5"/>
<text text-anchor="start" x="582.75" y="-89" font-family="Helvetica,sans-Serif" font-size="10.00">sensesp::ValueConsumer</text>
<text text-anchor="middle" x="638.62" y="-77.75" font-family="Helvetica,sans-Serif" font-size="10.00">&lt; bool &gt;</text>
</a>
</g>
</g>
<!-- Node7&#45;&gt;Node2 -->
<g id="edge6_Node000002_Node000007" class="edge">
<title>Node7&#45;&gt;Node2</title>
<g id="a_edge6_Node000002_Node000007"><a xlink:title=" ">
<path fill="none" stroke="#63b8ff" d="M714.04,-92.94C785.01,-98.37 890.11,-106.41 952.85,-111.21"/>
<polygon fill="#63b8ff" stroke="#63b8ff" points="714.71,-89.48 704.47,-92.21 714.17,-96.46 714.71,-89.48"/>
</a>
</g>
</g>
<!-- Node8 -->
<g id="Node000008" class="node">
<title>Node8</title>
<g id="a_Node000008"><a xlink:href="classsensesp_1_1_value_consumer.html" target="_top" xlink:title="A base class for piece of code (like a transform) that accepts data for input. ValueConsumers can acc...">
<polygon fill="white" stroke="#666666" points="297.75,-145.88 146,-145.88 146,-126.62 297.75,-126.62 297.75,-145.88"/>
<text text-anchor="middle" x="221.88" y="-132.38" font-family="Helvetica,sans-Serif" font-size="10.00">sensesp::ValueConsumer&lt; T &gt;</text>
</a>
</g>
</g>
<!-- Node8&#45;&gt;Node7 -->
<g id="edge7_Node000007_Node000008" class="edge">
<title>Node8&#45;&gt;Node7</title>
<g id="a_edge7_Node000007_Node000008"><a xlink:title=" ">
<path fill="none" stroke="orange" stroke-dasharray="5,2" d="M309.51,-125.75C311.61,-125.49 313.69,-125.25 315.75,-125 405.56,-114.29 509.49,-102.15 574.4,-94.59"/>
<polygon fill="orange" stroke="orange" points="309.16,-122.26 299.65,-126.93 309.99,-129.21 309.16,-122.26"/>
</a>
</g>
<text text-anchor="middle" x="350.62" y="-126.75" font-family="Helvetica,sans-Serif" font-size="10.00" fill="grey"> &lt; bool &gt;</text>
</g>
<!-- Node13 -->
<g id="Node000013" class="node">
<title>Node13</title>
<g id="a_Node000013"><a xlink:href="classsensesp_1_1_value_consumer.html" target="_top" xlink:title=" ">
<polygon fill="white" stroke="#666666" points="556.75,-155.88 403.5,-155.88 403.5,-136.62 556.75,-136.62 556.75,-155.88"/>
<text text-anchor="middle" x="480.12" y="-142.38" font-family="Helvetica,sans-Serif" font-size="10.00">sensesp::ValueConsumer&lt; C &gt;</text>
</a>
</g>
</g>
<!-- Node8&#45;&gt;Node13 -->
<g id="edge15_Node000013_Node000008" class="edge">
<title>Node8&#45;&gt;Node13</title>
<g id="a_edge15_Node000013_Node000008"><a xlink:title=" ">
<path fill="none" stroke="orange" stroke-dasharray="5,2" d="M309.47,-139.63C339.83,-140.81 373.66,-142.13 403.09,-143.28"/>
<polygon fill="orange" stroke="orange" points="309.67,-136.13 299.54,-139.24 309.4,-143.13 309.67,-136.13"/>
</a>
</g>
<text text-anchor="middle" x="350.62" y="-144.19" font-family="Helvetica,sans-Serif" font-size="10.00" fill="grey"> &lt; C &gt;</text>
</g>
<!-- Node9 -->
<g id="Node000009" class="node">
<title>Node9</title>
<g id="a_Node000009"><a xlink:href="classsensesp_1_1_value_producer.html" target="_top" xlink:title=" ">
<polygon fill="white" stroke="#666666" points="541,-30.5 419.25,-30.5 419.25,0 541,0 541,-30.5"/>
<text text-anchor="start" x="427.25" y="-17" font-family="Helvetica,sans-Serif" font-size="10.00">sensesp::ValueProducer</text>
<text text-anchor="middle" x="480.12" y="-5.75" font-family="Helvetica,sans-Serif" font-size="10.00">&lt; ClickTypes &gt;</text>
</a>
</g>
</g>
<!-- Node9&#45;&gt;Node2 -->
<g id="edge8_Node000002_Node000009" class="edge">
<title>Node9&#45;&gt;Node2</title>
<g id="a_edge8_Node000002_Node000009"><a xlink:title=" ">
<path fill="none" stroke="#63b8ff" d="M552.25,-27.48C641.8,-43.1 800.26,-71.43 935.25,-99.25 941.02,-100.44 947.04,-101.73 953.03,-103.05"/>
<polygon fill="#63b8ff" stroke="#63b8ff" points="553.09,-24.08 542.64,-25.81 551.89,-30.97 553.09,-24.08"/>
</a>
</g>
</g>
<!-- Node10 -->
<g id="Node000010" class="node">
<title>Node10</title>
<g id="a_Node000010"><a xlink:href="classsensesp_1_1_observable.html" target="_top" xlink:title="A base class which allow observers to attach callbacks to themselves. The callbacks will be called wh...">
<polygon fill="white" stroke="#666666" points="108.62,-38.88 0.38,-38.88 0.38,-19.62 108.62,-19.62 108.62,-38.88"/>
<text text-anchor="middle" x="54.5" y="-25.38" font-family="Helvetica,sans-Serif" font-size="10.00">sensesp::Observable</text>
</a>
</g>
</g>
<!-- Node10&#45;&gt;Node9 -->
<g id="edge9_Node000009_Node000010" class="edge">
<title>Node10&#45;&gt;Node9</title>
<g id="a_edge9_Node000009_Node000010"><a xlink:title=" ">
<path fill="none" stroke="#63b8ff" d="M105.96,-16.79C118.93,-14.1 132.91,-11.65 146,-10.25 241.04,-0.1 352.19,-5.14 419.05,-9.98"/>
<polygon fill="#63b8ff" stroke="#63b8ff" points="105.38,-13.33 96.35,-18.87 106.87,-20.17 105.38,-13.33"/>
</a>
</g>
</g>
<!-- Node11 -->
<g id="Node000011" class="node">
<title>Node11</title>
<g id="a_Node000011"><a xlink:href="classsensesp_1_1_value_producer.html" target="_top" xlink:title="A base class for any sensor or piece of code that outputs a value for consumption elsewhere.">
<polygon fill="white" stroke="#666666" points="294.75,-38.88 149,-38.88 149,-19.62 294.75,-19.62 294.75,-38.88"/>
<text text-anchor="middle" x="221.88" y="-25.38" font-family="Helvetica,sans-Serif" font-size="10.00">sensesp::ValueProducer&lt; T &gt;</text>
</a>
</g>
</g>
<!-- Node10&#45;&gt;Node11 -->
<g id="edge11_Node000011_Node000010" class="edge">
<title>Node10&#45;&gt;Node11</title>
<g id="a_edge11_Node000011_Node000010"><a xlink:title=" ">
<path fill="none" stroke="#63b8ff" d="M120.02,-29.25C129.44,-29.25 139.19,-29.25 148.75,-29.25"/>
<polygon fill="#63b8ff" stroke="#63b8ff" points="120.25,-25.75 110.25,-29.25 120.25,-32.75 120.25,-25.75"/>
</a>
</g>
</g>
<!-- Node14 -->
<g id="Node000014" class="node">
<title>Node14</title>
<g id="a_Node000014"><a xlink:href="classsensesp_1_1_value_producer.html" target="_top" xlink:title=" ">
<polygon fill="white" stroke="#666666" points="553.38,-79.88 406.88,-79.88 406.88,-60.62 553.38,-60.62 553.38,-79.88"/>
<text text-anchor="middle" x="480.12" y="-66.38" font-family="Helvetica,sans-Serif" font-size="10.00">sensesp::ValueProducer&lt; P &gt;</text>
</a>
</g>
</g>
<!-- Node10&#45;&gt;Node14 -->
<g id="edge17_Node000014_Node000010" class="edge">
<title>Node10&#45;&gt;Node14</title>
<g id="a_edge17_Node000014_Node000010"><a xlink:title=" ">
<path fill="none" stroke="#63b8ff" d="M108.62,-41.61C120.85,-44.12 133.83,-46.51 146,-48.25 235.22,-60.98 338.97,-66.36 406.67,-68.62"/>
<polygon fill="#63b8ff" stroke="#63b8ff" points="109.64,-38.25 99.14,-39.6 108.2,-45.1 109.64,-38.25"/>
</a>
</g>
</g>
<!-- Node11&#45;&gt;Node9 -->
<g id="edge10_Node000009_Node000011" class="edge">
<title>Node11&#45;&gt;Node9</title>
<g id="a_edge10_Node000009_Node000011"><a xlink:title=" ">
<path fill="none" stroke="orange" stroke-dasharray="5,2" d="M296.41,-17.82C302.94,-17.09 309.45,-16.46 315.75,-16 349.84,-13.5 388.03,-13.19 418.92,-13.56"/>
<polygon fill="orange" stroke="orange" points="296.46,-14.28 286.95,-18.95 297.29,-21.23 296.46,-14.28"/>
</a>
</g>
<text text-anchor="middle" x="350.62" y="-17.75" font-family="Helvetica,sans-Serif" font-size="10.00" fill="grey"> &lt; ClickTypes &gt;</text>
</g>
<!-- Node11&#45;&gt;Node14 -->
<g id="edge18_Node000014_Node000011" class="edge">
<title>Node11&#45;&gt;Node14</title>
<g id="a_edge18_Node000014_Node000011"><a xlink:title=" ">
<path fill="none" stroke="orange" stroke-dasharray="5,2" d="M306.26,-38.49C331.76,-41.69 359.84,-45.6 385.5,-50 402.22,-52.87 420.48,-56.67 436.4,-60.2"/>
<polygon fill="orange" stroke="orange" points="306.98,-35.05 296.63,-37.3 306.12,-42 306.98,-35.05"/>
</a>
</g>
<text text-anchor="middle" x="350.62" y="-51.75" font-family="Helvetica,sans-Serif" font-size="10.00" fill="grey"> &lt; P &gt;</text>
</g>
<!-- Node12&#45;&gt;Node2 -->
<g id="edge12_Node000002_Node000012" class="edge">
<title>Node12&#45;&gt;Node2</title>
<g id="a_edge12_Node000002_Node000012"><a xlink:title=" ">
<path fill="none" stroke="orange" stroke-dasharray="5,2" d="M834.86,-134.34C871.68,-130.22 917.89,-125.06 952.95,-121.14"/>
<polygon fill="orange" stroke="orange" points="834.82,-130.82 825.27,-135.41 835.59,-137.78 834.82,-130.82"/>
</a>
</g>
<text text-anchor="middle" x="888.38" y="-135.32" font-family="Helvetica,sans-Serif" font-size="10.00" fill="grey"> &lt; bool, ClickTypes &gt;</text>
</g>
<!-- Node13&#45;&gt;Node12 -->
<g id="edge14_Node000012_Node000013" class="edge">
<title>Node13&#45;&gt;Node12</title>
<g id="a_edge14_Node000012_Node000013"><a xlink:title=" ">
<path fill="none" stroke="#63b8ff" d="M568.3,-144.75C617.94,-143.89 678.38,-142.85 720.29,-142.12"/>
<polygon fill="#63b8ff" stroke="#63b8ff" points="568.36,-141.24 558.42,-144.92 568.48,-148.24 568.36,-141.24"/>
</a>
</g>
</g>
<!-- Node14&#45;&gt;Node12 -->
<g id="edge16_Node000012_Node000014" class="edge">
<title>Node14&#45;&gt;Node12</title>
<g id="a_edge16_Node000012_Node000014"><a xlink:title=" ">
<path fill="none" stroke="#63b8ff" d="M516.97,-84.28C534.25,-90.69 555.38,-97.99 574.75,-103.25 623.48,-116.48 680.21,-126.94 720.11,-133.52"/>
<polygon fill="#63b8ff" stroke="#63b8ff" points="518.25,-81.02 507.65,-80.77 515.78,-87.57 518.25,-81.02"/>
</a>
</g>
</g>
</g>
</svg>

<g id="navigator" transform="translate(0 0)" fill="#404254">
  <rect fill="#f2f5e9" fill-opacity="0.5" stroke="#606060" stroke-width=".5" x="0" y="0" width="60" height="60"/>
  <use id="zoomplus" xlink:href="#zoomPlus" x="17" y="9" onmousedown="handleZoom(evt,'in')"/>
  <use id="zoomminus" xlink:href="#zoomMin" x="42" y="9" onmousedown="handleZoom(evt,'out')"/>
  <use id="reset" xlink:href="#resetDef" x="30" y="36" onmousedown="handleReset()"/>
   <use id="arrowup" xlink:href="#arrowUp" x="0" y="0" onmousedown="handlePan(0,-1)"/>
  <use id="arrowright" xlink:href="#arrowRight" x="0" y="0" onmousedown="handlePan(1,0)"/>
  <use id="arrowdown" xlink:href="#arrowDown" x="0" y="0" onmousedown="handlePan(0,1)"/>
  <use id="arrowleft" xlink:href="#arrowLeft" x="0" y="0" onmousedown="handlePan(-1,0)"/>
</g>
<svg viewBox="0 0 15 15" width="100%" height="30px" preserveAspectRatio="xMaxYMin meet">
 <g id="arrow_out" transform="scale(0.3 0.3)">
  <a xlink:href="classsensesp_1_1_click_type__inherit__graph_org.svg" target="_base">
   <rect id="button" ry="5" rx="5" y="6" x="6" height="38" width="38"
        fill="#f2f5e9" fill-opacity="0.5" stroke="#606060" stroke-width="1.0"/>
   <path id="arrow"
     d="M 11.500037,31.436501 C 11.940474,20.09759 22.043105,11.32322 32.158766,21.979434 L 37.068811,17.246167 C 37.068811,17.246167 37.088388,32 37.088388,32 L 22.160133,31.978069 C 22.160133,31.978069 26.997745,27.140456 26.997745,27.140456 C 18.528582,18.264221 13.291696,25.230495 11.500037,31.436501 z"
     style="fill:#404040;"/>
  </a>
 </g>
</svg>

<style type='text/css'>
<![CDATA[
[data-mouse-over-selected='false'] { opacity: 0.7; }
[data-mouse-over-selected='true']  { opacity: 1.0; }
]]>
</style>
<script type="application/ecmascript"><![CDATA[
document.addEventListener('DOMContentLoaded', (event) => {
  highlightEdges();
  highlightAdjacentNodes();
});
]]></script>
</svg>
