<?xml version="1.0" encoding="UTF-8" standalone="no"?>
<!DOCTYPE svg PUBLIC "-//W3C//DTD SVG 1.1//EN"
 "http://www.w3.org/Graphics/SVG/1.1/DTD/svg11.dtd">
<!-- Generated by graphviz version 12.1.0 (20240811.2233)
 -->
<!-- Title: sensesp::Uptime::Uptime Pages: 1 -->
<svg width="671pt" height="88pt"
 viewBox="0.00 0.00 671.25 87.50" xmlns="http://www.w3.org/2000/svg" xmlns:xlink="http://www.w3.org/1999/xlink">
<g id="graph0" class="graph" transform="scale(1 1) rotate(0) translate(4 83.5)">
<title>sensesp::Uptime::Uptime</title>
<!-- Node1 -->
<g id="Node000001" class="node">
<title>Node1</title>
<g id="a_Node000001"><a xlink:title=" ">
<polygon fill="#999999" stroke="#666666" points="127.75,-48.88 0,-48.88 0,-29.62 127.75,-29.62 127.75,-48.88"/>
<text text-anchor="middle" x="63.88" y="-35.38" font-family="Helvetica,sans-Serif" font-size="10.00">sensesp::Uptime::Uptime</text>
</a>
</g>
</g>
<!-- Node2 -->
<g id="Node000002" class="node">
<title>Node2</title>
<g id="a_Node000002"><a xlink:href="namespacesensesp.html#a6dc46d92e5fd3c1e7335f9d650827f57" target="_top" xlink:title=" ">
<polygon fill="white" stroke="#666666" points="279.5,-70.88 173.5,-70.88 173.5,-51.62 279.5,-51.62 279.5,-70.88"/>
<text text-anchor="middle" x="226.5" y="-57.38" font-family="Helvetica,sans-Serif" font-size="10.00">sensesp::event_loop</text>
</a>
</g>
</g>
<!-- Node1&#45;&gt;Node2 -->
<g id="edge1_Node000001_Node000002" class="edge">
<title>Node1&#45;&gt;Node2</title>
<g id="a_edge1_Node000001_Node000002"><a xlink:title=" ">
<path fill="none" stroke="#63b8ff" d="M127.9,-47.88C138.99,-49.4 150.54,-50.98 161.65,-52.5"/>
<polygon fill="#63b8ff" stroke="#63b8ff" points="161.15,-55.97 171.53,-53.86 162.1,-49.03 161.15,-55.97"/>
</a>
</g>
</g>
<!-- Node5 -->
<g id="Node000005" class="node">
<title>Node5</title>
<g id="a_Node000005"><a xlink:href="classsensesp_1_1_uptime.html#a0ce62b52f6fd437d299838b6d75e6ab8" target="_top" xlink:title=" ">
<polygon fill="white" stroke="#666666" points="289.25,-30.88 163.75,-30.88 163.75,-11.62 289.25,-11.62 289.25,-30.88"/>
<text text-anchor="middle" x="226.5" y="-17.38" font-family="Helvetica,sans-Serif" font-size="10.00">sensesp::Uptime::update</text>
</a>
</g>
</g>
<!-- Node1&#45;&gt;Node5 -->
<g id="edge4_Node000001_Node000005" class="edge">
<title>Node1&#45;&gt;Node5</title>
<g id="a_edge4_Node000001_Node000005"><a xlink:title=" ">
<path fill="none" stroke="#63b8ff" d="M127.9,-32.19C135.84,-31.3 144.02,-30.38 152.11,-29.47"/>
<polygon fill="#63b8ff" stroke="#63b8ff" points="152.4,-32.96 161.95,-28.37 151.62,-26.01 152.4,-32.96"/>
</a>
</g>
</g>
<!-- Node3 -->
<g id="Node000003" class="node">
<title>Node3</title>
<g id="a_Node000003"><a xlink:href="classsensesp_1_1_sens_e_s_p_base_app.html#a5ac3b07550aed05e92aeb2a536ea0739" target="_top" xlink:title="Get the event loop object from the singleton SensESPBaseApp instance.">
<polygon fill="white" stroke="#666666" points="466.5,-79.5 325.25,-79.5 325.25,-49 466.5,-49 466.5,-79.5"/>
<text text-anchor="start" x="333.25" y="-66" font-family="Helvetica,sans-Serif" font-size="10.00">sensesp::SensESPBaseApp</text>
<text text-anchor="middle" x="395.88" y="-54.75" font-family="Helvetica,sans-Serif" font-size="10.00">::get_event_loop</text>
</a>
</g>
</g>
<!-- Node2&#45;&gt;Node3 -->
<g id="edge2_Node000002_Node000003" class="edge">
<title>Node2&#45;&gt;Node3</title>
<g id="a_edge2_Node000002_Node000003"><a xlink:title=" ">
<path fill="none" stroke="#63b8ff" d="M280,-62.19C290.64,-62.38 302.07,-62.59 313.44,-62.79"/>
<polygon fill="#63b8ff" stroke="#63b8ff" points="313.19,-66.29 323.25,-62.97 313.31,-59.29 313.19,-66.29"/>
</a>
</g>
</g>
<!-- Node4 -->
<g id="Node000004" class="node">
<title>Node4</title>
<g id="a_Node000004"><a xlink:href="classsensesp_1_1_sens_e_s_p_base_app.html#add2c67bb55d095ab9c64f44ab2e82612" target="_top" xlink:title="Get the singleton instance of the SensESPBaseApp.">
<polygon fill="white" stroke="#666666" points="663.25,-73.88 502.5,-73.88 502.5,-54.62 663.25,-54.62 663.25,-73.88"/>
<text text-anchor="middle" x="582.88" y="-60.38" font-family="Helvetica,sans-Serif" font-size="10.00">sensesp::SensESPBaseApp::get</text>
</a>
</g>
</g>
<!-- Node3&#45;&gt;Node4 -->
<g id="edge3_Node000003_Node000004" class="edge">
<title>Node3&#45;&gt;Node4</title>
<g id="a_edge3_Node000003_Node000004"><a xlink:title=" ">
<path fill="none" stroke="#63b8ff" d="M466.82,-64.25C474.67,-64.25 482.76,-64.25 490.84,-64.25"/>
<polygon fill="#63b8ff" stroke="#63b8ff" points="490.71,-67.75 500.71,-64.25 490.71,-60.75 490.71,-67.75"/>
</a>
</g>
</g>
<!-- Node6 -->
<g id="Node000006" class="node">
<title>Node6</title>
<g id="a_Node000006"><a xlink:href="classsensesp_1_1_value_producer.html#a4f5f0259d0d3cd9a0ed17d657cac04e2" target="_top" xlink:title=" ">
<polygon fill="white" stroke="#666666" points="456.75,-30.5 335,-30.5 335,0 456.75,0 456.75,-30.5"/>
<text text-anchor="start" x="343" y="-17" font-family="Helvetica,sans-Serif" font-size="10.00">sensesp::ValueProducer</text>
<text text-anchor="middle" x="395.88" y="-5.75" font-family="Helvetica,sans-Serif" font-size="10.00">&lt; float &gt;::emit</text>
</a>
</g>
</g>
<!-- Node5&#45;&gt;Node6 -->
<g id="edge5_Node000005_Node000006" class="edge">
<title>Node5&#45;&gt;Node6</title>
<g id="a_edge5_Node000005_Node000006"><a xlink:title=" ">
<path fill="none" stroke="#63b8ff" d="M289.35,-19.03C300.45,-18.63 312.11,-18.22 323.46,-17.81"/>
<polygon fill="#63b8ff" stroke="#63b8ff" points="323.29,-21.32 333.16,-17.46 323.04,-14.32 323.29,-21.32"/>
</a>
</g>
</g>
</g>
</svg>
