<?xml version="1.0" encoding="UTF-8" standalone="no"?>
<!DOCTYPE svg PUBLIC "-//W3C//DTD SVG 1.1//EN"
 "http://www.w3.org/Graphics/SVG/1.1/DTD/svg11.dtd">
<!-- Generated by graphviz version 5.0.0 (20220707.1540)
 -->
<!-- Title: sensesp::SensESPAppBuilder::get_app Pages: 1 -->
<svg width="685pt" height="233pt"
 viewBox="0.00 0.00 685.00 233.00" xmlns="http://www.w3.org/2000/svg" xmlns:xlink="http://www.w3.org/1999/xlink">
<g id="graph0" class="graph" transform="scale(1 1) rotate(0) translate(4 229)">
<title>sensesp::SensESPAppBuilder::get_app</title>
<polygon fill="white" stroke="transparent" points="-4,4 -4,-229 681,-229 681,4 -4,4"/>
<!-- Node1 -->
<g id="node1" class="node">
<title>Node1</title>
<g id="a_node1"><a xlink:title="Get the SensESPApp object.">
<polygon fill="#bfbfbf" stroke="black" points="0,-73.5 0,-103.5 148,-103.5 148,-73.5 0,-73.5"/>
<text text-anchor="start" x="8" y="-91.5" font-family="Helvetica,sans-Serif" font-size="10.00">sensesp::SensESPAppBuilder</text>
<text text-anchor="middle" x="74" y="-80.5" font-family="Helvetica,sans-Serif" font-size="10.00">::get_app</text>
</a>
</g>
</g>
<!-- Node2 -->
<g id="node2" class="node">
<title>Node2</title>
<g id="a_node2"><a xlink:href="classsensesp_1_1_sens_e_s_p_app.html#a49534d134dbae3ce35f4bac5879a8640" target="_top" xlink:title="Perform initialization of SensESPApp once builder configuration is done.">
<polygon fill="white" stroke="black" points="184,-73.5 184,-103.5 302,-103.5 302,-73.5 184,-73.5"/>
<text text-anchor="start" x="192" y="-91.5" font-family="Helvetica,sans-Serif" font-size="10.00">sensesp::SensESPApp</text>
<text text-anchor="middle" x="243" y="-80.5" font-family="Helvetica,sans-Serif" font-size="10.00">::setup</text>
</a>
</g>
</g>
<!-- Node1&#45;&gt;Node2 -->
<g id="edge1" class="edge">
<title>Node1&#45;&gt;Node2</title>
<path fill="none" stroke="midnightblue" d="M148.25,-88.5C156.72,-88.5 165.34,-88.5 173.74,-88.5"/>
<polygon fill="midnightblue" stroke="midnightblue" points="173.86,-92 183.86,-88.5 173.86,-85 173.86,-92"/>
</g>
<!-- Node3 -->
<g id="node3" class="node">
<title>Node3</title>
<g id="a_node3"><a xlink:href="classsensesp_1_1_value_producer.html#a168e379778dd79bc926aff69d9a87663" target="_top" xlink:title=" ">
<polygon fill="white" stroke="black" points="348,-147.5 348,-177.5 470,-177.5 470,-147.5 348,-147.5"/>
<text text-anchor="start" x="356" y="-165.5" font-family="Helvetica,sans-Serif" font-size="10.00">sensesp::ValueProducer</text>
<text text-anchor="middle" x="409" y="-154.5" font-family="Helvetica,sans-Serif" font-size="10.00">::connect_to</text>
</a>
</g>
</g>
<!-- Node2&#45;&gt;Node3 -->
<g id="edge2" class="edge">
<title>Node2&#45;&gt;Node3</title>
<path fill="none" stroke="midnightblue" d="M269.79,-103.65C288.37,-114.21 314.26,-128.19 338,-138.5 342.16,-140.3 346.5,-142.07 350.89,-143.76"/>
<polygon fill="midnightblue" stroke="midnightblue" points="349.95,-147.15 360.54,-147.37 352.4,-140.59 349.95,-147.15"/>
</g>
<!-- Node7 -->
<g id="node7" class="node">
<title>Node7</title>
<g id="a_node7"><a xlink:href="classsensesp_1_1_w_s_client.html#aefe5d59e839fde1b57b054b131dcb70c" target="_top" xlink:title=" ">
<polygon fill="white" stroke="black" points="345,-98.5 345,-128.5 473,-128.5 473,-98.5 345,-98.5"/>
<text text-anchor="start" x="353" y="-116.5" font-family="Helvetica,sans-Serif" font-size="10.00">sensesp::WSClient::</text>
<text text-anchor="middle" x="409" y="-105.5" font-family="Helvetica,sans-Serif" font-size="10.00">get_delta_count_producer</text>
</a>
</g>
</g>
<!-- Node2&#45;&gt;Node7 -->
<g id="edge6" class="edge">
<title>Node2&#45;&gt;Node7</title>
<path fill="none" stroke="midnightblue" d="M302.28,-97.38C312.86,-99 324,-100.7 334.94,-102.36"/>
<polygon fill="midnightblue" stroke="midnightblue" points="334.48,-105.83 344.9,-103.88 335.54,-98.91 334.48,-105.83"/>
</g>
<!-- Node8 -->
<g id="node8" class="node">
<title>Node8</title>
<g id="a_node8"><a xlink:href="classsensesp_1_1_sens_e_s_p_base_app.html#a928c309a2dc17f82edefe9e5bc7ef33d" target="_top" xlink:title="Get the current hostname.">
<polygon fill="white" stroke="black" points="338,-49.5 338,-79.5 480,-79.5 480,-49.5 338,-49.5"/>
<text text-anchor="start" x="346" y="-67.5" font-family="Helvetica,sans-Serif" font-size="10.00">sensesp::SensESPBaseApp</text>
<text text-anchor="middle" x="409" y="-56.5" font-family="Helvetica,sans-Serif" font-size="10.00">::get_hostname</text>
</a>
</g>
</g>
<!-- Node2&#45;&gt;Node8 -->
<g id="edge7" class="edge">
<title>Node2&#45;&gt;Node8</title>
<path fill="none" stroke="midnightblue" d="M302.28,-79.97C310.55,-78.76 319.18,-77.5 327.78,-76.24"/>
<polygon fill="midnightblue" stroke="midnightblue" points="328.45,-79.68 337.83,-74.77 327.43,-72.75 328.45,-79.68"/>
</g>
<!-- Node11 -->
<g id="node11" class="node">
<title>Node11</title>
<g id="a_node11"><a xlink:href="classsensesp_1_1_sens_e_s_p_base_app.html#ac987bc8c9b4a04ca24199a09a2b29b99" target="_top" xlink:title="Perform initialization of SensESPBaseApp once builder configuration is done.">
<polygon fill="white" stroke="black" points="338,-0.5 338,-30.5 480,-30.5 480,-0.5 338,-0.5"/>
<text text-anchor="start" x="346" y="-18.5" font-family="Helvetica,sans-Serif" font-size="10.00">sensesp::SensESPBaseApp</text>
<text text-anchor="middle" x="409" y="-7.5" font-family="Helvetica,sans-Serif" font-size="10.00">::setup</text>
</a>
</g>
</g>
<!-- Node2&#45;&gt;Node11 -->
<g id="edge11" class="edge">
<title>Node2&#45;&gt;Node11</title>
<path fill="none" stroke="midnightblue" d="M270.23,-73.47C288.8,-63.17 314.49,-49.59 338,-39.5 342.35,-37.63 346.89,-35.81 351.48,-34.05"/>
<polygon fill="midnightblue" stroke="midnightblue" points="352.78,-37.3 360.94,-30.55 350.35,-30.74 352.78,-37.3"/>
</g>
<!-- Node4 -->
<g id="node4" class="node">
<title>Node4</title>
<g id="a_node4"><a xlink:href="classsensesp_1_1_observable.html#a1bd8a207de69d386a7f05c28544df109" target="_top" xlink:title=" ">
<polygon fill="white" stroke="black" points="542,-194.5 542,-224.5 651,-224.5 651,-194.5 542,-194.5"/>
<text text-anchor="start" x="550" y="-212.5" font-family="Helvetica,sans-Serif" font-size="10.00">sensesp::Observable</text>
<text text-anchor="middle" x="596.5" y="-201.5" font-family="Helvetica,sans-Serif" font-size="10.00">::attach</text>
</a>
</g>
</g>
<!-- Node3&#45;&gt;Node4 -->
<g id="edge3" class="edge">
<title>Node3&#45;&gt;Node4</title>
<path fill="none" stroke="midnightblue" d="M469.2,-177.5C489.25,-182.58 511.71,-188.27 532.07,-193.43"/>
<polygon fill="midnightblue" stroke="midnightblue" points="531.33,-196.85 541.88,-195.91 533.05,-190.07 531.33,-196.85"/>
</g>
<!-- Node5 -->
<g id="node5" class="node">
<title>Node5</title>
<g id="a_node5"><a xlink:href="classsensesp_1_1_value_producer.html#a438390eae6bba056ecf4ab329cb5c8e9" target="_top" xlink:title=" ">
<polygon fill="white" stroke="black" points="525.5,-103 525.5,-122 667.5,-122 667.5,-103 525.5,-103"/>
<text text-anchor="middle" x="596.5" y="-110" font-family="Helvetica,sans-Serif" font-size="10.00">sensesp::ValueProducer::get</text>
</a>
</g>
</g>
<!-- Node3&#45;&gt;Node5 -->
<g id="edge4" class="edge">
<title>Node3&#45;&gt;Node5</title>
<path fill="none" stroke="midnightblue" d="M465.66,-147.5C492.7,-140.21 524.77,-131.56 550.28,-124.69"/>
<polygon fill="midnightblue" stroke="midnightblue" points="551.31,-128.04 560.06,-122.05 549.49,-121.28 551.31,-128.04"/>
</g>
<!-- Node6 -->
<g id="node6" class="node">
<title>Node6</title>
<g id="a_node6"><a xlink:href="classsensesp_1_1_value_consumer.html#a6dbfd22b19489ebd61a353545d1a5261" target="_top" xlink:title=" ">
<polygon fill="white" stroke="black" points="532.5,-145.5 532.5,-175.5 660.5,-175.5 660.5,-145.5 532.5,-145.5"/>
<text text-anchor="start" x="540.5" y="-163.5" font-family="Helvetica,sans-Serif" font-size="10.00">sensesp::ValueConsumer</text>
<text text-anchor="middle" x="596.5" y="-152.5" font-family="Helvetica,sans-Serif" font-size="10.00">::set_input</text>
</a>
</g>
</g>
<!-- Node3&#45;&gt;Node6 -->
<g id="edge5" class="edge">
<title>Node3&#45;&gt;Node6</title>
<path fill="none" stroke="midnightblue" d="M470.23,-161.85C486.85,-161.67 505.07,-161.47 522.35,-161.29"/>
<polygon fill="midnightblue" stroke="midnightblue" points="522.43,-164.79 532.39,-161.18 522.35,-157.79 522.43,-164.79"/>
</g>
<!-- Node8&#45;&gt;Node5 -->
<g id="edge9" class="edge">
<title>Node8&#45;&gt;Node5</title>
<path fill="none" stroke="midnightblue" d="M468.18,-79.56C494.15,-86.27 524.32,-94.08 548.78,-100.41"/>
<polygon fill="midnightblue" stroke="midnightblue" points="547.98,-103.82 558.54,-102.94 549.73,-97.04 547.98,-103.82"/>
</g>
<!-- Node9 -->
<g id="node9" class="node">
<title>Node9</title>
<g id="a_node9"><a xlink:href="classsensesp_1_1_sens_e_s_p_base_app.html#a2df22469c69a8a1234ab673386f574d6" target="_top" xlink:title="Get the singleton instance of the SensESPBaseApp.">
<polygon fill="white" stroke="black" points="516,-57 516,-76 677,-76 677,-57 516,-57"/>
<text text-anchor="middle" x="596.5" y="-64" font-family="Helvetica,sans-Serif" font-size="10.00">sensesp::SensESPBaseApp::get</text>
</a>
</g>
</g>
<!-- Node8&#45;&gt;Node9 -->
<g id="edge8" class="edge">
<title>Node8&#45;&gt;Node9</title>
<path fill="none" stroke="midnightblue" d="M480.13,-65.26C488.54,-65.35 497.21,-65.44 505.84,-65.53"/>
<polygon fill="midnightblue" stroke="midnightblue" points="505.91,-69.03 515.94,-65.64 505.98,-62.03 505.91,-69.03"/>
</g>
<!-- Node10 -->
<g id="node10" class="node">
<title>Node10</title>
<g id="a_node10"><a xlink:href="classsensesp_1_1_sens_e_s_p_base_app.html#ade8960b96e439f4cc0b387c312999dd5" target="_top" xlink:title="Get the hostname observable object.">
<polygon fill="white" stroke="black" points="525.5,-7.5 525.5,-37.5 667.5,-37.5 667.5,-7.5 525.5,-7.5"/>
<text text-anchor="start" x="533.5" y="-25.5" font-family="Helvetica,sans-Serif" font-size="10.00">sensesp::SensESPBaseApp</text>
<text text-anchor="middle" x="596.5" y="-14.5" font-family="Helvetica,sans-Serif" font-size="10.00">::get_hostname_observable</text>
</a>
</g>
</g>
<!-- Node8&#45;&gt;Node10 -->
<g id="edge10" class="edge">
<title>Node8&#45;&gt;Node10</title>
<path fill="none" stroke="midnightblue" d="M476.45,-49.46C490.38,-46.3 505.18,-42.95 519.44,-39.72"/>
<polygon fill="midnightblue" stroke="midnightblue" points="520.23,-43.13 529.21,-37.51 518.68,-36.3 520.23,-43.13"/>
</g>
</g>
</svg>
