<?xml version="1.0" encoding="UTF-8" standalone="no"?>
<!DOCTYPE svg PUBLIC "-//W3C//DTD SVG 1.1//EN"
 "http://www.w3.org/Graphics/SVG/1.1/DTD/svg11.dtd">
<!-- Generated by graphviz version 14.1.1 (20251213.1925)
 -->
<!-- Title: sensesp::VoltageDividerR2::VoltageDividerR2 Pages: 1 -->
<!--zoomable 155 -->

<svg id="main" version="1.1" xmlns="http://www.w3.org/2000/svg" xmlns:xlink="http://www.w3.org/1999/xlink" xml:space="preserve" onload="init(evt)">

<style type="text/css"><![CDATA[
.node, .edge {opacity: 0.7;}
.node.selected, .edge.selected {opacity: 1;}
.edge:hover path { stroke: red; }
.edge:hover polygon { stroke: red; fill: red; }
]]></style>

<defs>
  <circle id="rim" cx="0" cy="0" r="7"/>
  <circle id="rim2" cx="0" cy="0" r="3.5"/>
  <g id="zoomPlus">
    <use xlink:href="#rim" fill="#404040"><set attributeName="fill" to="#808080" begin="zoomplus.mouseover" end="zoomplus.mouseout"/></use>
    <path d="M-4,0h8M0,-4v8" fill="none" stroke="white" stroke-width="1.5" pointer-events="none"/>
  </g>
  <g id="zoomMin">
    <use xlink:href="#rim" fill="#404040"><set attributeName="fill" to="#808080" begin="zoomminus.mouseover" end="zoomminus.mouseout"/></use>
    <path d="M-4,0h8" fill="none" stroke="white" stroke-width="1.5" pointer-events="none"/>
  </g>
  <g id="arrowUp" transform="translate(30 24)">
    <use xlink:href="#rim"/>
    <path pointer-events="none" fill="none" stroke="white" stroke-width="1.5" d="M0,-3.0v7 M-2.5,-0.5L0,-3.0L2.5,-0.5"/>
  </g>
  <g id="arrowRight" transform="rotate(90) translate(36 -43)">
    <use xlink:href="#rim"/>
    <path pointer-events="none" fill="none" stroke="white" stroke-width="1.5" d="M0,-3.0v7 M-2.5,-0.5L0,-3.0L2.5,-0.5"/>
  </g>
  <g id="arrowDown" transform="rotate(180) translate(-30 -48)">
    <use xlink:href="#rim"/>
    <path pointer-events="none" fill="none" stroke="white" stroke-width="1.5" d="M0,-3.0v7 M-2.5,-0.5L0,-3.0L2.5,-0.5"/>
  </g>
  <g id="arrowLeft" transform="rotate(270) translate(-36 17)">
    <use xlink:href="#rim"/>
    <path pointer-events="none" fill="none" stroke="white" stroke-width="1.5" d="M0,-3.0v7 M-2.5,-0.5L0,-3.0L2.5,-0.5"/>
  </g>
  <g id="resetDef">
    <use xlink:href="#rim2" fill="#404040"><set attributeName="fill" to="#808080" begin="reset.mouseover" end="reset.mouseout"/></use>
  </g>
</defs>
<script type="application/ecmascript">
var viewWidth = 782;
var viewHeight = 155;
var sectionId = 'dynsection-1';
</script>
<script type="application/ecmascript" xlink:href="svg.min.js"/>
<svg id="graph" class="graph">
<g id="viewport">
<title>sensesp::VoltageDividerR2::VoltageDividerR2</title>
<!-- Node1 -->
<g id="Node000001" class="node">
<title>Node1</title>
<g id="a_Node000001"><a xlink:title=" ">
<polygon fill="#999999" stroke="#666666" points="135.25,-78.5 0,-78.5 0,-48 135.25,-48 135.25,-78.5"/>
<text xml:space="preserve" text-anchor="start" x="8" y="-65" font-family="Helvetica,sans-Serif" font-size="10.00">sensesp::VoltageDividerR2</text>
<text xml:space="preserve" text-anchor="middle" x="67.62" y="-53.75" font-family="Helvetica,sans-Serif" font-size="10.00">::VoltageDividerR2</text>
</a>
</g>
</g>
<!-- Node2 -->
<g id="Node000002" class="node">
<title>Node2</title>
<g id="a_Node000002"><a xlink:href="classsensesp_1_1_file_system_saveable.html#a79b2e2e657112851dfda8785d217578a" target="_top" xlink:title="Load and populate the object from a persistent storage.">
<polygon fill="white" stroke="#666666" points="320.75,-103.5 172,-103.5 172,-73 320.75,-73 320.75,-103.5"/>
<text xml:space="preserve" text-anchor="start" x="180" y="-90" font-family="Helvetica,sans-Serif" font-size="10.00">sensesp::FileSystemSaveable</text>
<text xml:space="preserve" text-anchor="middle" x="246.38" y="-78.75" font-family="Helvetica,sans-Serif" font-size="10.00">::load</text>
</a>
</g>
</g>
<!-- Node1&#45;&gt;Node2 -->
<g id="edge1_Node000001_Node000002" class="edge">
<title>Node1&#45;&gt;Node2</title>
<g id="a_edge1_Node000001_Node000002"><a xlink:title=" ">
<path fill="none" stroke="#63b8ff" d="M135.7,-72.74C143.76,-73.88 152.06,-75.05 160.33,-76.22"/>
<polygon fill="#63b8ff" stroke="#63b8ff" points="159.67,-79.66 170.06,-77.6 160.65,-72.73 159.67,-79.66"/>
</a>
</g>
</g>
<!-- Node7 -->
<g id="Node000007" class="node">
<title>Node7</title>
<g id="a_Node000007"><a xlink:href="classsensesp_1_1_symmetric_transform.html#a845f332dccbfd0a8b0bd2be5b709eeef" target="_top" xlink:title=" ">
<polygon fill="white" stroke="#666666" points="321.5,-54.5 171.25,-54.5 171.25,-24 321.5,-24 321.5,-54.5"/>
<text xml:space="preserve" text-anchor="start" x="179.25" y="-41" font-family="Helvetica,sans-Serif" font-size="10.00">sensesp::SymmetricTransform</text>
<text xml:space="preserve" text-anchor="middle" x="246.38" y="-29.75" font-family="Helvetica,sans-Serif" font-size="10.00">&lt; float &gt;::SymmetricTransform</text>
</a>
</g>
</g>
<!-- Node1&#45;&gt;Node7 -->
<g id="edge7_Node000001_Node000007" class="edge">
<title>Node1&#45;&gt;Node7</title>
<g id="a_edge7_Node000001_Node000007"><a xlink:title=" ">
<path fill="none" stroke="#63b8ff" d="M135.7,-54.14C143.53,-53.08 151.6,-51.98 159.64,-50.89"/>
<polygon fill="#63b8ff" stroke="#63b8ff" points="160.02,-54.37 169.46,-49.56 159.08,-47.44 160.02,-54.37"/>
</a>
</g>
</g>
<!-- Node3 -->
<g id="Node000003" class="node">
<title>Node3</title>
<g id="a_Node000003"><a xlink:href="namespacesensesp.html#adad24461f43358c45017cf1cb816ca60" target="_top" xlink:title="A base64&#45;encoded SHA&#45;1 hash function.">
<polygon fill="white" stroke="#666666" points="656.5,-143.88 542.25,-143.88 542.25,-124.62 656.5,-124.62 656.5,-143.88"/>
<text xml:space="preserve" text-anchor="middle" x="599.38" y="-130.38" font-family="Helvetica,sans-Serif" font-size="10.00">sensesp::Base64Sha1</text>
</a>
</g>
</g>
<!-- Node2&#45;&gt;Node3 -->
<g id="edge2_Node000002_Node000003" class="edge">
<title>Node2&#45;&gt;Node3</title>
<g id="a_edge2_Node000002_Node000003"><a xlink:title=" ">
<path fill="none" stroke="#63b8ff" d="M273.9,-103.86C295.57,-115.65 327.41,-130.86 357.5,-137.25 415.07,-149.48 482.13,-147.36 530.85,-142.97"/>
<polygon fill="#63b8ff" stroke="#63b8ff" points="531.08,-146.46 540.69,-142.02 530.4,-139.49 531.08,-146.46"/>
</a>
</g>
</g>
<!-- Node5 -->
<g id="Node000005" class="node">
<title>Node5</title>
<g id="a_Node000005"><a xlink:href="classsensesp_1_1_file_system_saveable.html#ad0233f7895b5c8915108399420c7cf0b" target="_top" xlink:title=" ">
<polygon fill="white" stroke="#666666" points="506.25,-128.5 357.5,-128.5 357.5,-98 506.25,-98 506.25,-128.5"/>
<text xml:space="preserve" text-anchor="start" x="365.5" y="-115" font-family="Helvetica,sans-Serif" font-size="10.00">sensesp::FileSystemSaveable</text>
<text xml:space="preserve" text-anchor="middle" x="431.88" y="-103.75" font-family="Helvetica,sans-Serif" font-size="10.00">::find_config_file</text>
</a>
</g>
</g>
<!-- Node2&#45;&gt;Node5 -->
<g id="edge4_Node000002_Node000005" class="edge">
<title>Node2&#45;&gt;Node5</title>
<g id="a_edge4_Node000002_Node000005"><a xlink:title=" ">
<path fill="none" stroke="#63b8ff" d="M321.22,-98.31C329.37,-99.42 337.71,-100.56 345.98,-101.68"/>
<polygon fill="#63b8ff" stroke="#63b8ff" points="345.3,-105.12 355.68,-103.01 346.25,-98.19 345.3,-105.12"/>
</a>
</g>
</g>
<!-- Node6 -->
<g id="Node000006" class="node">
<title>Node6</title>
<g id="a_Node000006"><a xlink:href="classsensesp_1_1_serializable.html#a841233a82ef3a7fbcecd5a15b0df12d2" target="_top" xlink:title=" ">
<polygon fill="white" stroke="#666666" points="486.38,-79.5 377.38,-79.5 377.38,-49 486.38,-49 486.38,-79.5"/>
<text xml:space="preserve" text-anchor="start" x="385.38" y="-66" font-family="Helvetica,sans-Serif" font-size="10.00">sensesp::Serializable</text>
<text xml:space="preserve" text-anchor="middle" x="431.88" y="-54.75" font-family="Helvetica,sans-Serif" font-size="10.00">::from_json</text>
</a>
</g>
</g>
<!-- Node2&#45;&gt;Node6 -->
<g id="edge6_Node000002_Node000006" class="edge">
<title>Node2&#45;&gt;Node6</title>
<g id="a_edge6_Node000002_Node000006"><a xlink:title=" ">
<path fill="none" stroke="#63b8ff" d="M321.22,-78.59C335.91,-76.67 351.25,-74.66 365.63,-72.78"/>
<polygon fill="#63b8ff" stroke="#63b8ff" points="365.97,-76.27 375.43,-71.5 365.06,-69.33 365.97,-76.27"/>
</a>
</g>
</g>
<!-- Node4 -->
<g id="Node000004" class="node">
<title>Node4</title>
<g id="a_Node000004"><a xlink:href="namespacesensesp.html#a37dfeb5f75b7115464a9aa40473d69cf" target="_top" xlink:title="SHA&#45;1 hash function.">
<polygon fill="white" stroke="#666666" points="773.75,-143.88 692.5,-143.88 692.5,-124.62 773.75,-124.62 773.75,-143.88"/>
<text xml:space="preserve" text-anchor="middle" x="733.12" y="-130.38" font-family="Helvetica,sans-Serif" font-size="10.00">sensesp::Sha1</text>
</a>
</g>
</g>
<!-- Node3&#45;&gt;Node4 -->
<g id="edge3_Node000003_Node000004" class="edge">
<title>Node3&#45;&gt;Node4</title>
<g id="a_edge3_Node000003_Node000004"><a xlink:title=" ">
<path fill="none" stroke="#63b8ff" d="M656.63,-134.25C664.71,-134.25 672.99,-134.25 680.97,-134.25"/>
<polygon fill="#63b8ff" stroke="#63b8ff" points="680.87,-137.75 690.87,-134.25 680.87,-130.75 680.87,-137.75"/>
</a>
</g>
</g>
<!-- Node5&#45;&gt;Node3 -->
<g id="edge5_Node000005_Node000003" class="edge">
<title>Node5&#45;&gt;Node3</title>
<g id="a_edge5_Node000005_Node000003"><a xlink:title=" ">
<path fill="none" stroke="#63b8ff" d="M506.43,-122.58C514.53,-123.61 522.74,-124.65 530.76,-125.67"/>
<polygon fill="#63b8ff" stroke="#63b8ff" points="530.08,-129.11 540.44,-126.9 530.96,-122.17 530.08,-129.11"/>
</a>
</g>
</g>
<!-- Node8 -->
<g id="Node000008" class="node">
<title>Node8</title>
<g id="a_Node000008"><a xlink:href="classsensesp_1_1_transform.html#aa40027f0a8f0c6515c6881da4ad22c69" target="_top" xlink:title=" ">
<polygon fill="white" stroke="#666666" points="495.75,-30.5 368,-30.5 368,0 495.75,0 495.75,-30.5"/>
<text xml:space="preserve" text-anchor="start" x="376" y="-17" font-family="Helvetica,sans-Serif" font-size="10.00">sensesp::Transform</text>
<text xml:space="preserve" text-anchor="middle" x="431.88" y="-5.75" font-family="Helvetica,sans-Serif" font-size="10.00">&lt; float, float &gt;::Transform</text>
</a>
</g>
</g>
<!-- Node7&#45;&gt;Node8 -->
<g id="edge8_Node000007_Node000008" class="edge">
<title>Node7&#45;&gt;Node8</title>
<g id="a_edge8_Node000007_Node000008"><a xlink:title=" ">
<path fill="none" stroke="#63b8ff" d="M321.75,-29.52C333.15,-28.03 344.92,-26.49 356.32,-25"/>
<polygon fill="#63b8ff" stroke="#63b8ff" points="356.61,-28.49 366.08,-23.73 355.71,-21.55 356.61,-28.49"/>
</a>
</g>
</g>
</g>
</svg>

<g id="navigator" transform="translate(0 0)" fill="#404254">
  <rect fill="#f2f5e9" fill-opacity="0.5" stroke="#606060" stroke-width=".5" x="0" y="0" width="60" height="60"/>
  <use id="zoomplus" xlink:href="#zoomPlus" x="17" y="9" onmousedown="handleZoom(evt,'in')"/>
  <use id="zoomminus" xlink:href="#zoomMin" x="42" y="9" onmousedown="handleZoom(evt,'out')"/>
  <use id="reset" xlink:href="#resetDef" x="30" y="36" onmousedown="handleReset()"/>
   <use id="arrowup" xlink:href="#arrowUp" x="0" y="0" onmousedown="handlePan(0,-1)"/>
  <use id="arrowright" xlink:href="#arrowRight" x="0" y="0" onmousedown="handlePan(1,0)"/>
  <use id="arrowdown" xlink:href="#arrowDown" x="0" y="0" onmousedown="handlePan(0,1)"/>
  <use id="arrowleft" xlink:href="#arrowLeft" x="0" y="0" onmousedown="handlePan(-1,0)"/>
</g>
<svg viewBox="0 0 15 15" width="100%" height="30px" preserveAspectRatio="xMaxYMin meet">
 <g id="arrow_out" transform="scale(0.3 0.3)">
  <a xlink:href="classsensesp_1_1_voltage_divider_r2_a5ae7208eeafd3a044ebefa5e318d1031_cgraph_org.svg" target="_base">
   <rect id="button" ry="5" rx="5" y="6" x="6" height="38" width="38"
        fill="#f2f5e9" fill-opacity="0.5" stroke="#606060" stroke-width="1.0"/>
   <path id="arrow"
     d="M 11.500037,31.436501 C 11.940474,20.09759 22.043105,11.32322 32.158766,21.979434 L 37.068811,17.246167 C 37.068811,17.246167 37.088388,32 37.088388,32 L 22.160133,31.978069 C 22.160133,31.978069 26.997745,27.140456 26.997745,27.140456 C 18.528582,18.264221 13.291696,25.230495 11.500037,31.436501 z"
     style="fill:#404040;"/>
  </a>
 </g>
</svg>

<style type='text/css'>
<![CDATA[
[data-mouse-over-selected='false'] { opacity: 0.7; }
[data-mouse-over-selected='true']  { opacity: 1.0; }
]]>
</style>
<script type="application/ecmascript"><![CDATA[
document.addEventListener('DOMContentLoaded', (event) => {
  highlightEdges();
  highlightAdjacentNodes();
});
]]></script>
</svg>
