<?xml version="1.0" encoding="UTF-8" standalone="no"?>
<!DOCTYPE svg PUBLIC "-//W3C//DTD SVG 1.1//EN"
 "http://www.w3.org/Graphics/SVG/1.1/DTD/svg11.dtd">
<!-- Generated by graphviz version 14.1.4 (20260321.0153)
 -->
<!-- Title: sensesp::FreeMem::~FreeMem Pages: 1 -->
<svg width="630pt" height="39pt"
 viewBox="0.00 0.00 630.00 39.00" xmlns="http://www.w3.org/2000/svg" xmlns:xlink="http://www.w3.org/1999/xlink">
<g id="graph0" class="graph" transform="scale(1 1) rotate(0) translate(4 34.5)">
<title>sensesp::FreeMem::~FreeMem</title>
<!-- Node1 -->
<g id="Node000001" class="node">
<title>Node1</title>
<g id="a_Node000001"><a xlink:title=" ">
<polygon fill="#999999" stroke="#666666" points="106,-30.5 0,-30.5 0,0 106,0 106,-30.5"/>
<text xml:space="preserve" text-anchor="start" x="8" y="-17" font-family="Helvetica,sans-Serif" font-size="10.00">sensesp::FreeMem::</text>
<text xml:space="preserve" text-anchor="middle" x="53" y="-5.75" font-family="Helvetica,sans-Serif" font-size="10.00">~FreeMem</text>
</a>
</g>
</g>
<!-- Node2 -->
<g id="Node000002" class="node">
<title>Node2</title>
<g id="a_Node000002"><a xlink:href="namespacesensesp.html#a1c1105507d71491cf4e0505eaabb2e49" target="_top" xlink:title=" ">
<polygon fill="white" stroke="#666666" points="248,-24.88 142,-24.88 142,-5.63 248,-5.63 248,-24.88"/>
<text xml:space="preserve" text-anchor="middle" x="195" y="-11.38" font-family="Helvetica,sans-Serif" font-size="10.00">sensesp::event_loop</text>
</a>
</g>
</g>
<!-- Node1&#45;&gt;Node2 -->
<g id="edge1_Node000001_Node000002" class="edge">
<title>Node1&#45;&gt;Node2</title>
<g id="a_edge1_Node000001_Node000002"><a xlink:title=" ">
<path fill="none" stroke="#63b8ff" d="M106.13,-15.25C114.06,-15.25 122.31,-15.25 130.45,-15.25"/>
<polygon fill="#63b8ff" stroke="#63b8ff" points="130.31,-18.75 140.31,-15.25 130.31,-11.75 130.31,-18.75"/>
</a>
</g>
</g>
<!-- Node3 -->
<g id="Node000003" class="node">
<title>Node3</title>
<g id="a_Node000003"><a xlink:href="classsensesp_1_1_sens_e_s_p_base_app.html#a28c20eed17bfc460e6686a11c5b3b107" target="_top" xlink:title="Get the event loop object from the singleton SensESPBaseApp instance.">
<polygon fill="white" stroke="#666666" points="425.25,-30.5 284,-30.5 284,0 425.25,0 425.25,-30.5"/>
<text xml:space="preserve" text-anchor="start" x="292" y="-17" font-family="Helvetica,sans-Serif" font-size="10.00">sensesp::SensESPBaseApp</text>
<text xml:space="preserve" text-anchor="middle" x="354.62" y="-5.75" font-family="Helvetica,sans-Serif" font-size="10.00">::get_event_loop</text>
</a>
</g>
</g>
<!-- Node2&#45;&gt;Node3 -->
<g id="edge2_Node000002_Node000003" class="edge">
<title>Node2&#45;&gt;Node3</title>
<g id="a_edge2_Node000002_Node000003"><a xlink:title=" ">
<path fill="none" stroke="#63b8ff" d="M248.49,-15.25C256.16,-15.25 264.2,-15.25 272.28,-15.25"/>
<polygon fill="#63b8ff" stroke="#63b8ff" points="272.18,-18.75 282.18,-15.25 272.18,-11.75 272.18,-18.75"/>
</a>
</g>
</g>
<!-- Node4 -->
<g id="Node000004" class="node">
<title>Node4</title>
<g id="a_Node000004"><a xlink:href="classsensesp_1_1_sens_e_s_p_base_app.html#add2c67bb55d095ab9c64f44ab2e82612" target="_top" xlink:title="Get the singleton instance of the SensESPBaseApp.">
<polygon fill="white" stroke="#666666" points="622,-24.88 461.25,-24.88 461.25,-5.63 622,-5.63 622,-24.88"/>
<text xml:space="preserve" text-anchor="middle" x="541.62" y="-11.38" font-family="Helvetica,sans-Serif" font-size="10.00">sensesp::SensESPBaseApp::get</text>
</a>
</g>
</g>
<!-- Node3&#45;&gt;Node4 -->
<g id="edge3_Node000003_Node000004" class="edge">
<title>Node3&#45;&gt;Node4</title>
<g id="a_edge3_Node000003_Node000004"><a xlink:title=" ">
<path fill="none" stroke="#63b8ff" d="M425.57,-15.25C433.42,-15.25 441.51,-15.25 449.59,-15.25"/>
<polygon fill="#63b8ff" stroke="#63b8ff" points="449.46,-18.75 459.46,-15.25 449.46,-11.75 449.46,-18.75"/>
</a>
</g>
</g>
</g>
</svg>
