<?xml version="1.0" encoding="UTF-8" standalone="no"?>
<!DOCTYPE svg PUBLIC "-//W3C//DTD SVG 1.1//EN"
 "http://www.w3.org/Graphics/SVG/1.1/DTD/svg11.dtd">
<!-- Generated by graphviz version 12.1.0 (20240811.2233)
 -->
<!-- Title: sensesp::SKPutListener::get_sk_path Pages: 1 -->
<svg width="430pt" height="39pt"
 viewBox="0.00 0.00 430.25 38.50" xmlns="http://www.w3.org/2000/svg" xmlns:xlink="http://www.w3.org/1999/xlink">
<g id="graph0" class="graph" transform="scale(1 1) rotate(0) translate(4 34.5)">
<title>sensesp::SKPutListener::get_sk_path</title>
<!-- Node1 -->
<g id="Node000001" class="node">
<title>Node1</title>
<g id="a_Node000001"><a xlink:title=" ">
<polygon fill="#999999" stroke="#666666" points="422.25,-30.5 300.5,-30.5 300.5,0 422.25,0 422.25,-30.5"/>
<text text-anchor="start" x="308.5" y="-17" font-family="Helvetica,sans-Serif" font-size="10.00">sensesp::SKPutListener</text>
<text text-anchor="middle" x="361.38" y="-5.75" font-family="Helvetica,sans-Serif" font-size="10.00">::get_sk_path</text>
</a>
</g>
</g>
<!-- Node2 -->
<g id="Node000002" class="node">
<title>Node2</title>
<g id="a_Node000002"><a xlink:href="classsensesp_1_1_s_k_w_s_client.html#a4f59b0bc0379552b4b3a6a232ed88e62" target="_top" xlink:title="Called when a PUT event is received.">
<polygon fill="white" stroke="#666666" points="264.5,-30.5 150.25,-30.5 150.25,0 264.5,0 264.5,-30.5"/>
<text text-anchor="start" x="158.25" y="-17" font-family="Helvetica,sans-Serif" font-size="10.00">sensesp::SKWSClient</text>
<text text-anchor="middle" x="207.38" y="-5.75" font-family="Helvetica,sans-Serif" font-size="10.00">::on_receive_put</text>
</a>
</g>
</g>
<!-- Node1&#45;&gt;Node2 -->
<g id="edge1_Node000001_Node000002" class="edge">
<title>Node1&#45;&gt;Node2</title>
<g id="a_edge1_Node000001_Node000002"><a xlink:title=" ">
<path fill="none" stroke="#63b8ff" d="M288.85,-15.25C280.69,-15.25 272.47,-15.25 264.55,-15.25"/>
<polygon fill="#63b8ff" stroke="#63b8ff" points="288.79,-18.75 298.79,-15.25 288.79,-11.75 288.79,-18.75"/>
</a>
</g>
</g>
<!-- Node3 -->
<g id="Node000003" class="node">
<title>Node3</title>
<g id="a_Node000003"><a xlink:href="classsensesp_1_1_s_k_w_s_client.html#a10433bce2a343bd467b148a5baaaaa08" target="_top" xlink:title="Called when the websocket receives a delta.">
<polygon fill="white" stroke="#666666" points="114.25,-30.5 0,-30.5 0,0 114.25,0 114.25,-30.5"/>
<text text-anchor="start" x="8" y="-17" font-family="Helvetica,sans-Serif" font-size="10.00">sensesp::SKWSClient</text>
<text text-anchor="middle" x="57.13" y="-5.75" font-family="Helvetica,sans-Serif" font-size="10.00">::on_receive_delta</text>
</a>
</g>
</g>
<!-- Node2&#45;&gt;Node3 -->
<g id="edge2_Node000002_Node000003" class="edge">
<title>Node2&#45;&gt;Node3</title>
<g id="a_edge2_Node000002_Node000003"><a xlink:title=" ">
<path fill="none" stroke="#63b8ff" d="M138.59,-15.25C130.51,-15.25 122.33,-15.25 114.44,-15.25"/>
<polygon fill="#63b8ff" stroke="#63b8ff" points="138.39,-18.75 148.39,-15.25 138.39,-11.75 138.39,-18.75"/>
</a>
</g>
</g>
</g>
</svg>
