<?xml version="1.0" encoding="UTF-8" standalone="no"?>
<!DOCTYPE svg PUBLIC "-//W3C//DTD SVG 1.1//EN"
 "http://www.w3.org/Graphics/SVG/1.1/DTD/svg11.dtd">
<!-- Generated by graphviz version 2.48.0 (20210717.1556)
 -->
<!-- Title: LambdaTransform&lt; IN, OUT, P1, P2, P3, P4, P5, P6 &gt; Pages: 1 -->
<svg width="1578pt" height="206pt"
 viewBox="0.00 0.00 1578.00 205.50" xmlns="http://www.w3.org/2000/svg" xmlns:xlink="http://www.w3.org/1999/xlink">
<g id="graph0" class="graph" transform="scale(1 1) rotate(0) translate(4 201.5)">
<title>LambdaTransform&lt; IN, OUT, P1, P2, P3, P4, P5, P6 &gt;</title>
<polygon fill="white" stroke="transparent" points="-4,4 -4,-201.5 1574,-201.5 1574,4 -4,4"/>
<!-- Node1 -->
<g id="node1" class="node">
<title>Node1</title>
<g id="a_node1"><a xlink:title="Construct a new transform based on a single function.">
<polygon fill="#bfbfbf" stroke="black" points="888,-68 888,-109 1007,-109 1007,-68 888,-68"/>
<text text-anchor="start" x="896" y="-97" font-family="Helvetica,sans-Serif" font-size="10.00">LambdaTransform&lt; IN,</text>
<text text-anchor="start" x="896" y="-86" font-family="Helvetica,sans-Serif" font-size="10.00"> OUT, P1, P2, P3, P4,</text>
<text text-anchor="middle" x="947.5" y="-75" font-family="Helvetica,sans-Serif" font-size="10.00"> P5, P6 &gt;</text>
</a>
</g>
</g>
<!-- Node13 -->
<g id="node13" class="node">
<title>Node13</title>
<g id="a_node13"><a xlink:href="class_typecast.html" target="_top" xlink:title=" ">
<polygon fill="white" stroke="black" points="1352,-124 1352,-143 1461,-143 1461,-124 1352,-124"/>
<text text-anchor="middle" x="1406.5" y="-131" font-family="Helvetica,sans-Serif" font-size="10.00">Typecast&lt; float, int &gt;</text>
</a>
</g>
</g>
<!-- Node1&#45;&gt;Node13 -->
<g id="edge16" class="edge">
<title>Node1&#45;&gt;Node13</title>
<path fill="none" stroke="midnightblue" d="M1016.97,-110.54C1019.67,-111.24 1022.36,-111.89 1025,-112.5 1139.11,-138.79 1277.32,-138.77 1351.76,-136.25"/>
<polygon fill="midnightblue" stroke="midnightblue" points="1017.7,-107.12 1007.14,-107.91 1015.89,-113.88 1017.7,-107.12"/>
</g>
<!-- Node15 -->
<g id="node15" class="node">
<title>Node15</title>
<g id="a_node15"><a xlink:href="class_typecast.html" target="_top" xlink:title="Converts input from one data type to another, then outputs the new type.">
<polygon fill="white" stroke="black" points="1135.5,-99 1135.5,-118 1245.5,-118 1245.5,-99 1135.5,-99"/>
<text text-anchor="middle" x="1190.5" y="-106" font-family="Helvetica,sans-Serif" font-size="10.00">Typecast&lt; IN, OUT &gt;</text>
</a>
</g>
</g>
<!-- Node1&#45;&gt;Node15 -->
<g id="edge18" class="edge">
<title>Node1&#45;&gt;Node15</title>
<path fill="none" stroke="midnightblue" d="M1017.45,-94.22C1054.81,-97.32 1100.31,-101.1 1135.14,-103.99"/>
<polygon fill="midnightblue" stroke="midnightblue" points="1017.4,-90.71 1007.15,-93.37 1016.82,-97.68 1017.4,-90.71"/>
</g>
<!-- Node16 -->
<g id="node16" class="node">
<title>Node16</title>
<g id="a_node16"><a xlink:href="class_lambda_transform.html" target="_top" xlink:title=" ">
<polygon fill="white" stroke="black" points="1125,-49.5 1125,-79.5 1256,-79.5 1256,-49.5 1125,-49.5"/>
<text text-anchor="start" x="1133" y="-67.5" font-family="Helvetica,sans-Serif" font-size="10.00">LambdaTransform&lt; IN,</text>
<text text-anchor="middle" x="1190.5" y="-56.5" font-family="Helvetica,sans-Serif" font-size="10.00"> OUT, IN, IN, OUT, OUT &gt;</text>
</a>
</g>
</g>
<!-- Node1&#45;&gt;Node16 -->
<g id="edge20" class="edge">
<title>Node1&#45;&gt;Node16</title>
<path fill="none" stroke="orange" stroke-dasharray="5,2" d="M1016.97,-70.75C1019.68,-70.28 1022.36,-69.86 1025,-69.5 1057.69,-65 1094.37,-63.54 1124.78,-63.29"/>
<polygon fill="orange" stroke="orange" points="1016.32,-67.31 1007.14,-72.6 1017.62,-74.19 1016.32,-67.31"/>
<text text-anchor="start" x="1025.5" y="-83.5" font-family="Helvetica,sans-Serif" font-size="10.00"> &lt; IN, OUT, IN, IN,</text>
<text text-anchor="middle" x="1066" y="-72.5" font-family="Helvetica,sans-Serif" font-size="10.00"> OUT, OUT &gt;</text>
</g>
<!-- Node18 -->
<g id="node18" class="node">
<title>Node18</title>
<g id="a_node18"><a xlink:href="class_lambda_transform.html" target="_top" xlink:title=" ">
<polygon fill="white" stroke="black" points="1126.5,-0.5 1126.5,-30.5 1254.5,-30.5 1254.5,-0.5 1126.5,-0.5"/>
<text text-anchor="start" x="1134.5" y="-18.5" font-family="Helvetica,sans-Serif" font-size="10.00">LambdaTransform&lt; float,</text>
<text text-anchor="middle" x="1190.5" y="-7.5" font-family="Helvetica,sans-Serif" font-size="10.00"> float, float, float &gt;</text>
</a>
</g>
</g>
<!-- Node1&#45;&gt;Node18 -->
<g id="edge22" class="edge">
<title>Node1&#45;&gt;Node18</title>
<path fill="none" stroke="orange" stroke-dasharray="5,2" d="M982.27,-61.83C995,-53.05 1010.03,-44.11 1025,-38.5 1057.13,-26.45 1094.93,-20.63 1126.19,-17.85"/>
<polygon fill="orange" stroke="orange" points="979.96,-59.18 973.85,-67.84 984.02,-64.88 979.96,-59.18"/>
<text text-anchor="start" x="1025" y="-52.5" font-family="Helvetica,sans-Serif" font-size="10.00"> &lt; float, float, float,</text>
<text text-anchor="middle" x="1066" y="-41.5" font-family="Helvetica,sans-Serif" font-size="10.00"> float &gt;</text>
</g>
<!-- Node2 -->
<g id="node2" class="node">
<title>Node2</title>
<g id="a_node2"><a xlink:href="class_transform.html" target="_top" xlink:title=" ">
<polygon fill="white" stroke="black" points="736,-79 736,-98 851,-98 851,-79 736,-79"/>
<text text-anchor="middle" x="793.5" y="-86" font-family="Helvetica,sans-Serif" font-size="10.00">Transform&lt; IN, OUT &gt;</text>
</a>
</g>
</g>
<!-- Node2&#45;&gt;Node1 -->
<g id="edge1" class="edge">
<title>Node2&#45;&gt;Node1</title>
<path fill="none" stroke="midnightblue" d="M861.35,-88.5C870.17,-88.5 879.15,-88.5 887.82,-88.5"/>
<polygon fill="midnightblue" stroke="midnightblue" points="861.1,-85 851.1,-88.5 861.1,-92 861.1,-85"/>
</g>
<!-- Node3 -->
<g id="node3" class="node">
<title>Node3</title>
<g id="a_node3"><a xlink:href="class_transform_base.html" target="_top" xlink:title="The base class for all transforms. A transforms takes a value in, transforms it in some way,...">
<polygon fill="white" stroke="black" points="296,-154 296,-173 380,-173 380,-154 296,-154"/>
<text text-anchor="middle" x="338" y="-161" font-family="Helvetica,sans-Serif" font-size="10.00">TransformBase</text>
</a>
</g>
</g>
<!-- Node3&#45;&gt;Node2 -->
<g id="edge2" class="edge">
<title>Node3&#45;&gt;Node2</title>
<path fill="none" stroke="midnightblue" d="M390.43,-163.24C464.37,-161.63 604.31,-153.91 718,-120.5 737.58,-114.74 758.88,-105.24 773.67,-98.09"/>
<polygon fill="midnightblue" stroke="midnightblue" points="389.95,-159.75 380.02,-163.44 390.08,-166.75 389.95,-159.75"/>
</g>
<!-- Node10 -->
<g id="node10" class="node">
<title>Node10</title>
<g id="a_node10"><a xlink:href="class_transform.html" target="_top" xlink:title="The main Transform class. A transform is identified primarily by the type of value that is produces (...">
<polygon fill="white" stroke="black" points="545,-104 545,-123 643,-123 643,-104 545,-104"/>
<text text-anchor="middle" x="594" y="-111" font-family="Helvetica,sans-Serif" font-size="10.00">Transform&lt; C, P &gt;</text>
</a>
</g>
</g>
<!-- Node3&#45;&gt;Node10 -->
<g id="edge10" class="edge">
<title>Node3&#45;&gt;Node10</title>
<path fill="none" stroke="midnightblue" d="M390.38,-153.95C428.2,-146.84 480.85,-136.81 527,-127.5 534,-126.09 541.42,-124.55 548.65,-123.03"/>
<polygon fill="midnightblue" stroke="midnightblue" points="389.31,-150.59 380.12,-155.87 390.59,-157.47 389.31,-150.59"/>
</g>
<!-- Node4 -->
<g id="node4" class="node">
<title>Node4</title>
<g id="a_node4"><a xlink:href="class_configurable.html" target="_top" xlink:title="An object that is capable of having configuration data that can be set remotely using a RESTful API,...">
<polygon fill="white" stroke="black" points="123.5,-178 123.5,-197 196.5,-197 196.5,-178 123.5,-178"/>
<text text-anchor="middle" x="160" y="-185" font-family="Helvetica,sans-Serif" font-size="10.00">Configurable</text>
</a>
</g>
</g>
<!-- Node4&#45;&gt;Node3 -->
<g id="edge3" class="edge">
<title>Node4&#45;&gt;Node3</title>
<path fill="none" stroke="midnightblue" d="M206.8,-181.25C234.37,-177.49 269.19,-172.75 295.88,-169.11"/>
<polygon fill="midnightblue" stroke="midnightblue" points="206.05,-177.82 196.62,-182.64 207,-184.76 206.05,-177.82"/>
</g>
<!-- Node5 -->
<g id="node5" class="node">
<title>Node5</title>
<g id="a_node5"><a xlink:href="class_enable.html" target="_top" xlink:title="Classes that implement &quot;Enable&quot; will have their enable() method called automatically at startup when ...">
<polygon fill="white" stroke="black" points="136,-140 136,-159 184,-159 184,-140 136,-140"/>
<text text-anchor="middle" x="160" y="-147" font-family="Helvetica,sans-Serif" font-size="10.00">Enable</text>
</a>
</g>
</g>
<!-- Node5&#45;&gt;Node3 -->
<g id="edge4" class="edge">
<title>Node5&#45;&gt;Node3</title>
<path fill="none" stroke="midnightblue" d="M193.99,-152.12C222.81,-154.42 264.77,-157.75 295.79,-160.22"/>
<polygon fill="midnightblue" stroke="midnightblue" points="194.26,-148.63 184.01,-151.33 193.7,-155.61 194.26,-148.63"/>
</g>
<!-- Node6 -->
<g id="node6" class="node">
<title>Node6</title>
<g id="a_node6"><a xlink:href="class_value_consumer.html" target="_top" xlink:title=" ">
<polygon fill="white" stroke="black" points="412,-57 412,-76 527,-76 527,-57 412,-57"/>
<text text-anchor="middle" x="469.5" y="-64" font-family="Helvetica,sans-Serif" font-size="10.00">ValueConsumer&lt; IN &gt;</text>
</a>
</g>
</g>
<!-- Node6&#45;&gt;Node2 -->
<g id="edge5" class="edge">
<title>Node6&#45;&gt;Node2</title>
<path fill="none" stroke="midnightblue" d="M537.61,-71.09C596.32,-75.1 680.64,-80.86 735.97,-84.64"/>
<polygon fill="midnightblue" stroke="midnightblue" points="537.54,-67.57 527.33,-70.38 537.06,-74.56 537.54,-67.57"/>
</g>
<!-- Node7 -->
<g id="node7" class="node">
<title>Node7</title>
<g id="a_node7"><a xlink:href="class_value_consumer.html" target="_top" xlink:title="A base class for piece of code (like a transform) that accepts data for input. ValueConsumers can acc...">
<polygon fill="white" stroke="black" points="105,-89 105,-108 215,-108 215,-89 105,-89"/>
<text text-anchor="middle" x="160" y="-96" font-family="Helvetica,sans-Serif" font-size="10.00">ValueConsumer&lt; T &gt;</text>
</a>
</g>
</g>
<!-- Node7&#45;&gt;Node6 -->
<g id="edge6" class="edge">
<title>Node7&#45;&gt;Node6</title>
<path fill="none" stroke="orange" stroke-dasharray="5,2" d="M225.28,-91.81C280.42,-86.07 359.12,-77.88 411.91,-72.39"/>
<polygon fill="orange" stroke="orange" points="224.85,-88.34 215.27,-92.85 225.58,-95.3 224.85,-88.34"/>
<text text-anchor="middle" x="248.5" y="-94.5" font-family="Helvetica,sans-Serif" font-size="10.00"> &lt; IN &gt;</text>
</g>
<!-- Node11 -->
<g id="node11" class="node">
<title>Node11</title>
<g id="a_node11"><a xlink:href="class_value_consumer.html" target="_top" xlink:title=" ">
<polygon fill="white" stroke="black" points="282,-110 282,-129 394,-129 394,-110 282,-110"/>
<text text-anchor="middle" x="338" y="-117" font-family="Helvetica,sans-Serif" font-size="10.00">ValueConsumer&lt; C &gt;</text>
</a>
</g>
</g>
<!-- Node7&#45;&gt;Node11 -->
<g id="edge12" class="edge">
<title>Node7&#45;&gt;Node11</title>
<path fill="none" stroke="orange" stroke-dasharray="5,2" d="M225.34,-106.18C243.83,-108.38 263.83,-110.77 281.72,-112.9"/>
<polygon fill="orange" stroke="orange" points="225.59,-102.68 215.24,-104.97 224.76,-109.63 225.59,-102.68"/>
<text text-anchor="middle" x="248.5" y="-113.5" font-family="Helvetica,sans-Serif" font-size="10.00"> &lt; C &gt;</text>
</g>
<!-- Node8 -->
<g id="node8" class="node">
<title>Node8</title>
<g id="a_node8"><a xlink:href="class_value_producer.html" target="_top" xlink:title="A base class for any sensor or piece of code that outputs a value for consumption elsewhere.">
<polygon fill="white" stroke="black" points="107.5,-1 107.5,-20 212.5,-20 212.5,-1 107.5,-1"/>
<text text-anchor="middle" x="160" y="-8" font-family="Helvetica,sans-Serif" font-size="10.00">ValueProducer&lt; T &gt;</text>
</a>
</g>
</g>
<!-- Node8&#45;&gt;Node2 -->
<g id="edge7" class="edge">
<title>Node8&#45;&gt;Node2</title>
<path fill="none" stroke="midnightblue" d="M222.83,-12.52C236.4,-13.07 250.69,-13.73 264,-14.5 321.85,-17.85 336.45,-17.68 394,-24.5 538.83,-41.66 574.01,-53.35 718,-76.5 723.82,-77.44 729.9,-78.41 735.96,-79.39"/>
<polygon fill="midnightblue" stroke="midnightblue" points="222.75,-9.01 212.63,-12.12 222.48,-16.01 222.75,-9.01"/>
</g>
<!-- Node12 -->
<g id="node12" class="node">
<title>Node12</title>
<g id="a_node12"><a xlink:href="class_value_producer.html" target="_top" xlink:title=" ">
<polygon fill="white" stroke="black" points="285,-34 285,-53 391,-53 391,-34 285,-34"/>
<text text-anchor="middle" x="338" y="-41" font-family="Helvetica,sans-Serif" font-size="10.00">ValueProducer&lt; P &gt;</text>
</a>
</g>
</g>
<!-- Node8&#45;&gt;Node12 -->
<g id="edge15" class="edge">
<title>Node8&#45;&gt;Node12</title>
<path fill="none" stroke="orange" stroke-dasharray="5,2" d="M222.83,-16.86C236.45,-18.66 250.76,-20.86 264,-23.5 277.92,-26.27 293.09,-30.26 305.97,-33.95"/>
<polygon fill="orange" stroke="orange" points="222.94,-13.34 212.57,-15.56 222.05,-20.29 222.94,-13.34"/>
<text text-anchor="middle" x="248.5" y="-26.5" font-family="Helvetica,sans-Serif" font-size="10.00"> &lt; P &gt;</text>
</g>
<!-- Node9 -->
<g id="node9" class="node">
<title>Node9</title>
<g id="a_node9"><a xlink:href="class_observable.html" target="_top" xlink:title="A base class which allow observers to attach callbacks to themselves. The callbacks will be called wh...">
<polygon fill="white" stroke="black" points="0,-20 0,-39 68,-39 68,-20 0,-20"/>
<text text-anchor="middle" x="34" y="-27" font-family="Helvetica,sans-Serif" font-size="10.00">Observable</text>
</a>
</g>
</g>
<!-- Node9&#45;&gt;Node8 -->
<g id="edge8" class="edge">
<title>Node9&#45;&gt;Node8</title>
<path fill="none" stroke="midnightblue" d="M78.18,-22.88C87.63,-21.44 97.72,-19.89 107.46,-18.4"/>
<polygon fill="midnightblue" stroke="midnightblue" points="77.58,-19.43 68.23,-24.41 78.64,-26.35 77.58,-19.43"/>
</g>
<!-- Node9&#45;&gt;Node12 -->
<g id="edge14" class="edge">
<title>Node9&#45;&gt;Node12</title>
<path fill="none" stroke="midnightblue" d="M78.27,-33.93C80.88,-34.14 83.48,-34.33 86,-34.5 154.52,-39.08 233.74,-41.43 284.55,-42.56"/>
<polygon fill="midnightblue" stroke="midnightblue" points="78.44,-30.43 68.17,-33.05 77.83,-37.4 78.44,-30.43"/>
</g>
<!-- Node10&#45;&gt;Node2 -->
<g id="edge9" class="edge">
<title>Node10&#45;&gt;Node2</title>
<path fill="none" stroke="orange" stroke-dasharray="5,2" d="M653.18,-106.14C679.25,-102.83 709.89,-98.96 735.79,-95.68"/>
<polygon fill="orange" stroke="orange" points="652.54,-102.69 643.06,-107.42 653.42,-109.63 652.54,-102.69"/>
<text text-anchor="middle" x="689.5" y="-108.5" font-family="Helvetica,sans-Serif" font-size="10.00"> &lt; IN, OUT &gt;</text>
</g>
<!-- Node11&#45;&gt;Node10 -->
<g id="edge11" class="edge">
<title>Node11&#45;&gt;Node10</title>
<path fill="none" stroke="midnightblue" d="M404.12,-117.96C448.03,-116.92 505,-115.58 544.84,-114.64"/>
<polygon fill="midnightblue" stroke="midnightblue" points="404.03,-114.46 394.11,-118.2 404.19,-121.46 404.03,-114.46"/>
</g>
<!-- Node12&#45;&gt;Node10 -->
<g id="edge13" class="edge">
<title>Node12&#45;&gt;Node10</title>
<path fill="none" stroke="midnightblue" d="M365.73,-57.83C379.27,-64.61 396.17,-72.32 412,-77.5 456,-91.89 508,-101.51 544.94,-107.15"/>
<polygon fill="midnightblue" stroke="midnightblue" points="367.01,-54.56 356.51,-53.11 363.82,-60.79 367.01,-54.56"/>
</g>
<!-- Node14 -->
<g id="node14" class="node">
<title>Node14</title>
<g id="a_node14"><a xlink:href="class_round_to_int.html" target="_top" xlink:title="Takes as its input a float, rounds it to the nearest whole number, then outputs it as an int.">
<polygon fill="white" stroke="black" points="1502,-124 1502,-143 1570,-143 1570,-124 1502,-124"/>
<text text-anchor="middle" x="1536" y="-131" font-family="Helvetica,sans-Serif" font-size="10.00">RoundToInt</text>
</a>
</g>
</g>
<!-- Node13&#45;&gt;Node14 -->
<g id="edge17" class="edge">
<title>Node13&#45;&gt;Node14</title>
<path fill="none" stroke="midnightblue" d="M1471.27,-133.5C1481.8,-133.5 1492.33,-133.5 1501.72,-133.5"/>
<polygon fill="midnightblue" stroke="midnightblue" points="1471.2,-130 1461.2,-133.5 1471.2,-137 1471.2,-130"/>
</g>
<!-- Node15&#45;&gt;Node13 -->
<g id="edge19" class="edge">
<title>Node15&#45;&gt;Node13</title>
<path fill="none" stroke="orange" stroke-dasharray="5,2" d="M1255.69,-113.66C1279.11,-115.77 1305.79,-118.44 1330,-121.5 1337.11,-122.4 1344.58,-123.45 1351.94,-124.55"/>
<polygon fill="orange" stroke="orange" points="1255.79,-110.16 1245.52,-112.76 1255.17,-117.13 1255.79,-110.16"/>
<text text-anchor="middle" x="1302" y="-124.5" font-family="Helvetica,sans-Serif" font-size="10.00"> &lt; float, int &gt;</text>
</g>
<!-- Node17 -->
<g id="node17" class="node">
<title>Node17</title>
<g id="a_node17"><a xlink:href="class_hysteresis.html" target="_top" xlink:title="Hysteresis function.">
<polygon fill="white" stroke="black" points="1348,-55 1348,-74 1465,-74 1465,-55 1348,-55"/>
<text text-anchor="middle" x="1406.5" y="-62" font-family="Helvetica,sans-Serif" font-size="10.00">Hysteresis&lt; IN, OUT &gt;</text>
</a>
</g>
</g>
<!-- Node16&#45;&gt;Node17 -->
<g id="edge21" class="edge">
<title>Node16&#45;&gt;Node17</title>
<path fill="none" stroke="midnightblue" d="M1266.37,-64.5C1293.1,-64.5 1322.78,-64.5 1347.84,-64.5"/>
<polygon fill="midnightblue" stroke="midnightblue" points="1266.29,-61 1256.29,-64.5 1266.29,-68 1266.29,-61"/>
</g>
<!-- Node19 -->
<g id="node19" class="node">
<title>Node19</title>
<g id="a_node19"><a xlink:href="class_linear.html" target="_top" xlink:title="Performs a linear transform on the input value: output = (input * multiplier) + offset.">
<polygon fill="white" stroke="black" points="1384.5,-6 1384.5,-25 1428.5,-25 1428.5,-6 1384.5,-6"/>
<text text-anchor="middle" x="1406.5" y="-13" font-family="Helvetica,sans-Serif" font-size="10.00">Linear</text>
</a>
</g>
</g>
<!-- Node18&#45;&gt;Node19 -->
<g id="edge23" class="edge">
<title>Node18&#45;&gt;Node19</title>
<path fill="none" stroke="midnightblue" d="M1264.8,-15.5C1306.95,-15.5 1356.86,-15.5 1384.47,-15.5"/>
<polygon fill="midnightblue" stroke="midnightblue" points="1264.55,-12 1254.55,-15.5 1264.55,-19 1264.55,-12"/>
</g>
</g>
</svg>
