<?xml version="1.0" encoding="UTF-8" standalone="no"?>
<!DOCTYPE svg PUBLIC "-//W3C//DTD SVG 1.1//EN"
 "http://www.w3.org/Graphics/SVG/1.1/DTD/svg11.dtd">
<!-- Generated by graphviz version 12.1.0 (20240811.2233)
 -->
<!-- Title: sensesp::ValueProducer::connect_to Pages: 1 -->
<svg width="313pt" height="113pt"
 viewBox="0.00 0.00 313.00 112.88" xmlns="http://www.w3.org/2000/svg" xmlns:xlink="http://www.w3.org/1999/xlink">
<g id="graph0" class="graph" transform="scale(1 1) rotate(0) translate(4 108.88)">
<title>sensesp::ValueProducer::connect_to</title>
<!-- Node1 -->
<g id="Node000001" class="node">
<title>Node1</title>
<g id="a_Node000001"><a xlink:title=" ">
<polygon fill="#999999" stroke="#666666" points="121.75,-61.88 0,-61.88 0,-31.38 121.75,-31.38 121.75,-61.88"/>
<text text-anchor="start" x="8" y="-48.38" font-family="Helvetica,sans-Serif" font-size="10.00">sensesp::ValueProducer</text>
<text text-anchor="middle" x="60.88" y="-37.12" font-family="Helvetica,sans-Serif" font-size="10.00">::connect_to</text>
</a>
</g>
</g>
<!-- Node2 -->
<g id="Node000002" class="node">
<title>Node2</title>
<g id="a_Node000002"><a xlink:href="classsensesp_1_1_observable.html#a1bd8a207de69d386a7f05c28544df109" target="_top" xlink:title=" ">
<polygon fill="white" stroke="#666666" points="285.5,-104.88 177.25,-104.88 177.25,-74.38 285.5,-74.38 285.5,-104.88"/>
<text text-anchor="start" x="185.25" y="-91.38" font-family="Helvetica,sans-Serif" font-size="10.00">sensesp::Observable</text>
<text text-anchor="middle" x="231.38" y="-80.12" font-family="Helvetica,sans-Serif" font-size="10.00">::attach</text>
</a>
</g>
</g>
<!-- Node1&#45;&gt;Node2 -->
<g id="edge1_Node000001_Node000002" class="edge">
<title>Node1&#45;&gt;Node2</title>
<g id="a_edge1_Node000001_Node000002"><a xlink:title=" ">
<path fill="none" stroke="#63b8ff" d="M122.23,-62.03C136.45,-65.66 151.67,-69.54 166.06,-73.21"/>
<polygon fill="#63b8ff" stroke="#63b8ff" points="164.85,-76.52 175.4,-75.6 166.58,-69.73 164.85,-76.52"/>
</a>
</g>
</g>
<!-- Node3 -->
<g id="Node000003" class="node">
<title>Node3</title>
<g id="a_Node000003"><a xlink:href="classsensesp_1_1_value_producer.html#a438390eae6bba056ecf4ab329cb5c8e9" target="_top" xlink:title=" ">
<polygon fill="white" stroke="#666666" points="302,-56.25 160.75,-56.25 160.75,-37 302,-37 302,-56.25"/>
<text text-anchor="middle" x="231.38" y="-42.75" font-family="Helvetica,sans-Serif" font-size="10.00">sensesp::ValueProducer::get</text>
</a>
</g>
</g>
<!-- Node1&#45;&gt;Node3 -->
<g id="edge2_Node000001_Node000003" class="edge">
<title>Node1&#45;&gt;Node3</title>
<g id="a_edge2_Node000001_Node000003"><a xlink:title=" ">
<path fill="none" stroke="#63b8ff" d="M122.23,-46.62C130.93,-46.62 140,-46.62 149.02,-46.62"/>
<polygon fill="#63b8ff" stroke="#63b8ff" points="148.88,-50.13 158.88,-46.63 148.88,-43.13 148.88,-50.13"/>
</a>
</g>
</g>
<!-- Node4 -->
<g id="Node000004" class="node">
<title>Node4</title>
<g id="a_Node000004"><a xlink:href="classsensesp_1_1_value_consumer.html#a3734612c1b7022e9bd08d2c8fb8e30de" target="_top" xlink:title=" ">
<polygon fill="white" stroke="#666666" points="305,-19.25 157.75,-19.25 157.75,0 305,0 305,-19.25"/>
<text text-anchor="middle" x="231.38" y="-5.75" font-family="Helvetica,sans-Serif" font-size="10.00">sensesp::ValueConsumer::set</text>
</a>
</g>
</g>
<!-- Node1&#45;&gt;Node4 -->
<g id="edge3_Node000001_Node000004" class="edge">
<title>Node1&#45;&gt;Node4</title>
<g id="a_edge3_Node000001_Node000004"><a xlink:title=" ">
<path fill="none" stroke="#63b8ff" d="M122.23,-33.37C138.88,-29.72 156.89,-25.76 173.34,-22.15"/>
<polygon fill="#63b8ff" stroke="#63b8ff" points="173.96,-25.6 182.97,-20.03 172.45,-18.76 173.96,-25.6"/>
</a>
</g>
</g>
</g>
</svg>
