<?xml version="1.0" encoding="UTF-8" standalone="no"?>
<!DOCTYPE svg PUBLIC "-//W3C//DTD SVG 1.1//EN"
 "http://www.w3.org/Graphics/SVG/1.1/DTD/svg11.dtd">
<!-- Generated by graphviz version 14.1.4 (20260321.0153)
 -->
<!-- Title: sensesp::AnalogVoltage::AnalogVoltage Pages: 1 -->
<svg width="767pt" height="88pt"
 viewBox="0.00 0.00 767.00 88.00" xmlns="http://www.w3.org/2000/svg" xmlns:xlink="http://www.w3.org/1999/xlink">
<g id="graph0" class="graph" transform="scale(1 1) rotate(0) translate(4 83.5)">
<title>sensesp::AnalogVoltage::AnalogVoltage</title>
<!-- Node1 -->
<g id="Node000001" class="node">
<title>Node1</title>
<g id="a_Node000001"><a xlink:title=" ">
<polygon fill="#999999" stroke="#666666" points="121.75,-54.5 0,-54.5 0,-24 121.75,-24 121.75,-54.5"/>
<text xml:space="preserve" text-anchor="start" x="8" y="-41" font-family="Helvetica,sans-Serif" font-size="10.00">sensesp::AnalogVoltage</text>
<text xml:space="preserve" text-anchor="middle" x="60.88" y="-29.75" font-family="Helvetica,sans-Serif" font-size="10.00">::AnalogVoltage</text>
</a>
</g>
</g>
<!-- Node2 -->
<g id="Node000002" class="node">
<title>Node2</title>
<g id="a_Node000002"><a xlink:href="classsensesp_1_1_file_system_saveable.html#a79b2e2e657112851dfda8785d217578a" target="_top" xlink:title="Load and populate the object from a persistent storage.">
<polygon fill="white" stroke="#666666" points="306.5,-54.5 157.75,-54.5 157.75,-24 306.5,-24 306.5,-54.5"/>
<text xml:space="preserve" text-anchor="start" x="165.75" y="-41" font-family="Helvetica,sans-Serif" font-size="10.00">sensesp::FileSystemSaveable</text>
<text xml:space="preserve" text-anchor="middle" x="232.12" y="-29.75" font-family="Helvetica,sans-Serif" font-size="10.00">::load</text>
</a>
</g>
</g>
<!-- Node1&#45;&gt;Node2 -->
<g id="edge1_Node000001_Node000002" class="edge">
<title>Node1&#45;&gt;Node2</title>
<g id="a_edge1_Node000001_Node000002"><a xlink:title=" ">
<path fill="none" stroke="#63b8ff" d="M122.02,-39.25C129.84,-39.25 137.96,-39.25 146.08,-39.25"/>
<polygon fill="#63b8ff" stroke="#63b8ff" points="146.02,-42.75 156.02,-39.25 146.02,-35.75 146.02,-42.75"/>
</a>
</g>
</g>
<!-- Node3 -->
<g id="Node000003" class="node">
<title>Node3</title>
<g id="a_Node000003"><a xlink:href="classsensesp_1_1_file_system_saveable.html#ad0233f7895b5c8915108399420c7cf0b" target="_top" xlink:title=" ">
<polygon fill="white" stroke="#666666" points="491.25,-79.5 342.5,-79.5 342.5,-49 491.25,-49 491.25,-79.5"/>
<text xml:space="preserve" text-anchor="start" x="350.5" y="-66" font-family="Helvetica,sans-Serif" font-size="10.00">sensesp::FileSystemSaveable</text>
<text xml:space="preserve" text-anchor="middle" x="416.88" y="-54.75" font-family="Helvetica,sans-Serif" font-size="10.00">::find_config_file</text>
</a>
</g>
</g>
<!-- Node2&#45;&gt;Node3 -->
<g id="edge2_Node000002_Node000003" class="edge">
<title>Node2&#45;&gt;Node3</title>
<g id="a_edge2_Node000002_Node000003"><a xlink:title=" ">
<path fill="none" stroke="#63b8ff" d="M306.93,-49.35C314.81,-50.42 322.87,-51.53 330.86,-52.62"/>
<polygon fill="#63b8ff" stroke="#63b8ff" points="330.21,-56.06 340.59,-53.95 331.16,-49.13 330.21,-56.06"/>
</a>
</g>
</g>
<!-- Node6 -->
<g id="Node000006" class="node">
<title>Node6</title>
<g id="a_Node000006"><a xlink:href="classsensesp_1_1_serializable.html#a841233a82ef3a7fbcecd5a15b0df12d2" target="_top" xlink:title=" ">
<polygon fill="white" stroke="#666666" points="471.38,-30.5 362.38,-30.5 362.38,0 471.38,0 471.38,-30.5"/>
<text xml:space="preserve" text-anchor="start" x="370.38" y="-17" font-family="Helvetica,sans-Serif" font-size="10.00">sensesp::Serializable</text>
<text xml:space="preserve" text-anchor="middle" x="416.88" y="-5.75" font-family="Helvetica,sans-Serif" font-size="10.00">::from_json</text>
</a>
</g>
</g>
<!-- Node2&#45;&gt;Node6 -->
<g id="edge5_Node000002_Node000006" class="edge">
<title>Node2&#45;&gt;Node6</title>
<g id="a_edge5_Node000002_Node000006"><a xlink:title=" ">
<path fill="none" stroke="#63b8ff" d="M306.93,-29.56C321.47,-27.65 336.62,-25.66 350.85,-23.79"/>
<polygon fill="#63b8ff" stroke="#63b8ff" points="351.07,-27.29 360.53,-22.52 350.16,-20.35 351.07,-27.29"/>
</a>
</g>
</g>
<!-- Node4 -->
<g id="Node000004" class="node">
<title>Node4</title>
<g id="a_Node000004"><a xlink:href="namespacesensesp.html#adad24461f43358c45017cf1cb816ca60" target="_top" xlink:title="A base64&#45;encoded SHA&#45;1 hash function.">
<polygon fill="white" stroke="#666666" points="641.5,-73.88 527.25,-73.88 527.25,-54.62 641.5,-54.62 641.5,-73.88"/>
<text xml:space="preserve" text-anchor="middle" x="584.38" y="-60.38" font-family="Helvetica,sans-Serif" font-size="10.00">sensesp::Base64Sha1</text>
</a>
</g>
</g>
<!-- Node3&#45;&gt;Node4 -->
<g id="edge3_Node000003_Node000004" class="edge">
<title>Node3&#45;&gt;Node4</title>
<g id="a_edge3_Node000003_Node000004"><a xlink:title=" ">
<path fill="none" stroke="#63b8ff" d="M491.43,-64.25C499.43,-64.25 507.55,-64.25 515.49,-64.25"/>
<polygon fill="#63b8ff" stroke="#63b8ff" points="515.42,-67.75 525.42,-64.25 515.42,-60.75 515.42,-67.75"/>
</a>
</g>
</g>
<!-- Node5 -->
<g id="Node000005" class="node">
<title>Node5</title>
<g id="a_Node000005"><a xlink:href="namespacesensesp.html#a37dfeb5f75b7115464a9aa40473d69cf" target="_top" xlink:title="SHA&#45;1 hash function.">
<polygon fill="white" stroke="#666666" points="758.75,-73.88 677.5,-73.88 677.5,-54.62 758.75,-54.62 758.75,-73.88"/>
<text xml:space="preserve" text-anchor="middle" x="718.12" y="-60.38" font-family="Helvetica,sans-Serif" font-size="10.00">sensesp::Sha1</text>
</a>
</g>
</g>
<!-- Node4&#45;&gt;Node5 -->
<g id="edge4_Node000004_Node000005" class="edge">
<title>Node4&#45;&gt;Node5</title>
<g id="a_edge4_Node000004_Node000005"><a xlink:title=" ">
<path fill="none" stroke="#63b8ff" d="M641.63,-64.25C649.71,-64.25 657.99,-64.25 665.97,-64.25"/>
<polygon fill="#63b8ff" stroke="#63b8ff" points="665.87,-67.75 675.87,-64.25 665.87,-60.75 665.87,-67.75"/>
</a>
</g>
</g>
</g>
</svg>
