<?xml version="1.0" encoding="UTF-8" standalone="no"?>
<!DOCTYPE svg PUBLIC "-//W3C//DTD SVG 1.1//EN"
 "http://www.w3.org/Graphics/SVG/1.1/DTD/svg11.dtd">
<!-- Generated by graphviz version 12.0.0 (20240704.0754)
 -->
<!-- Title: sensesp::ClickType::set Pages: 1 -->
<!--zoomable 137 -->

<svg id="main" version="1.1" xmlns="http://www.w3.org/2000/svg" xmlns:xlink="http://www.w3.org/1999/xlink" xml:space="preserve" onload="init(evt)">
<style type="text/css"><![CDATA[
.node, .edge {opacity: 0.7;}
.node.selected, .edge.selected {opacity: 1;}
.edge:hover path { stroke: red; }
.edge:hover polygon { stroke: red; fill: red; }
]]></style>

<defs>
  <circle id="rim" cx="0" cy="0" r="7"/>
  <circle id="rim2" cx="0" cy="0" r="3.5"/>
  <g id="zoomPlus">
    <use xlink:href="#rim" fill="#404040"><set attributeName="fill" to="#808080" begin="zoomplus.mouseover" end="zoomplus.mouseout"/></use>
    <path d="M-4,0h8M0,-4v8" fill="none" stroke="white" stroke-width="1.5" pointer-events="none"/>
  </g>
  <g id="zoomMin">
    <use xlink:href="#rim" fill="#404040"><set attributeName="fill" to="#808080" begin="zoomminus.mouseover" end="zoomminus.mouseout"/></use>
    <path d="M-4,0h8" fill="none" stroke="white" stroke-width="1.5" pointer-events="none"/>
  </g>
  <g id="arrowUp" transform="translate(30 24)">
    <use xlink:href="#rim"/>
    <path pointer-events="none" fill="none" stroke="white" stroke-width="1.5" d="M0,-3.0v7 M-2.5,-0.5L0,-3.0L2.5,-0.5"/>
  </g>
  <g id="arrowRight" transform="rotate(90) translate(36 -43)">
    <use xlink:href="#rim"/>
    <path pointer-events="none" fill="none" stroke="white" stroke-width="1.5" d="M0,-3.0v7 M-2.5,-0.5L0,-3.0L2.5,-0.5"/>
  </g>
  <g id="arrowDown" transform="rotate(180) translate(-30 -48)">
    <use xlink:href="#rim"/>
    <path pointer-events="none" fill="none" stroke="white" stroke-width="1.5" d="M0,-3.0v7 M-2.5,-0.5L0,-3.0L2.5,-0.5"/>
  </g>
  <g id="arrowLeft" transform="rotate(270) translate(-36 17)">
    <use xlink:href="#rim"/>
    <path pointer-events="none" fill="none" stroke="white" stroke-width="1.5" d="M0,-3.0v7 M-2.5,-0.5L0,-3.0L2.5,-0.5"/>
  </g>
  <g id="resetDef">
    <use xlink:href="#rim2" fill="#404040"><set attributeName="fill" to="#808080" begin="reset.mouseover" end="reset.mouseout"/></use>
  </g>
</defs>
<script type="application/ecmascript">
var viewWidth = 856;
var viewHeight = 137;
var sectionId = 'dynsection-12';
</script>
<script type="application/ecmascript" xlink:href="svg.min.js"/>
<svg id="graph" class="graph">
<g id="viewport">
<title>sensesp::ClickType::set</title>
<!-- Node1 -->
<g id="Node000001" class="node">
<title>Node1</title>
<g id="a_Node000001"><a xlink:title=" ">
<polygon fill="#999999" stroke="#666666" points="121.75,-78.28 0,-78.28 0,-59.03 121.75,-59.03 121.75,-78.28"/>
<text text-anchor="middle" x="60.88" y="-64.78" font-family="Helvetica,sans-Serif" font-size="10.00">sensesp::ClickType::set</text>
</a>
</g>
</g>
<!-- Node2 -->
<g id="Node000002" class="node">
<title>Node2</title>
<g id="a_Node000002"><a xlink:href="classsensesp_1_1_click_type.html#adf5c465844609d1d0f461c37fc114ac5" target="_top" xlink:title="Processes incoming values that represent a &quot;ButonPress&quot; event.">
<polygon fill="white" stroke="#666666" points="260,-108.91 157.75,-108.91 157.75,-78.41 260,-78.41 260,-108.91"/>
<text text-anchor="start" x="165.75" y="-95.41" font-family="Helvetica,sans-Serif" font-size="10.00">sensesp::ClickType</text>
<text text-anchor="middle" x="208.88" y="-84.16" font-family="Helvetica,sans-Serif" font-size="10.00">::on_button_press</text>
</a>
</g>
</g>
<!-- Node1&#45;&gt;Node2 -->
<g id="edge1_Node000001_Node000002" class="edge">
<title>Node1&#45;&gt;Node2</title>
<g id="a_edge1_Node000001_Node000002"><a xlink:title=" ">
<path fill="none" stroke="#63b8ff" d="M120.84,-78.75C129.22,-80.19 137.85,-81.67 146.28,-83.11"/>
<polygon fill="#63b8ff" stroke="#63b8ff" points="145.66,-86.55 156.11,-84.79 146.84,-79.65 145.66,-86.55"/>
</a>
</g>
</g>
<!-- Node8 -->
<g id="Node000008" class="node">
<title>Node8</title>
<g id="a_Node000008"><a xlink:href="classsensesp_1_1_click_type.html#ae42d90645326071c653be889138e0926" target="_top" xlink:title="Processes incoming value that represent a &quot;ButtonRelease&quot; event.">
<polygon fill="white" stroke="#666666" points="260,-59.91 157.75,-59.91 157.75,-29.41 260,-29.41 260,-59.91"/>
<text text-anchor="start" x="165.75" y="-46.41" font-family="Helvetica,sans-Serif" font-size="10.00">sensesp::ClickType</text>
<text text-anchor="middle" x="208.88" y="-35.16" font-family="Helvetica,sans-Serif" font-size="10.00">::on_button_release</text>
</a>
</g>
</g>
<!-- Node1&#45;&gt;Node8 -->
<g id="edge8_Node000001_Node000008" class="edge">
<title>Node1&#45;&gt;Node8</title>
<g id="a_edge8_Node000001_Node000008"><a xlink:title=" ">
<path fill="none" stroke="#63b8ff" d="M122.1,-58.76C130.11,-57.44 138.33,-56.09 146.36,-54.77"/>
<polygon fill="#63b8ff" stroke="#63b8ff" points="146.75,-58.25 156.05,-53.17 145.62,-51.34 146.75,-58.25"/>
</a>
</g>
</g>
<!-- Node3 -->
<g id="Node000003" class="node">
<title>Node3</title>
<g id="a_Node000003"><a xlink:href="classsensesp_1_1_value_producer.html#a4f5f0259d0d3cd9a0ed17d657cac04e2" target="_top" xlink:title=" ">
<polygon fill="white" stroke="#666666" points="703.25,-42.91 581.5,-42.91 581.5,-12.41 703.25,-12.41 703.25,-42.91"/>
<text text-anchor="start" x="589.5" y="-29.41" font-family="Helvetica,sans-Serif" font-size="10.00">sensesp::ValueProducer</text>
<text text-anchor="middle" x="642.38" y="-18.16" font-family="Helvetica,sans-Serif" font-size="10.00">::emit</text>
</a>
</g>
</g>
<!-- Node2&#45;&gt;Node3 -->
<g id="edge2_Node000002_Node000003" class="edge">
<title>Node2&#45;&gt;Node3</title>
<g id="a_edge2_Node000002_Node000003"><a xlink:title=" ">
<path fill="none" stroke="#63b8ff" d="M260.28,-107.97C327.8,-124.47 450.15,-144.85 545.5,-107.66 575.66,-95.89 603.26,-70.62 621.02,-51.62"/>
<polygon fill="#63b8ff" stroke="#63b8ff" points="623.57,-54.02 627.68,-44.26 618.38,-49.33 623.57,-54.02"/>
</a>
</g>
</g>
<!-- Node5 -->
<g id="Node000005" class="node">
<title>Node5</title>
<g id="a_Node000005"><a xlink:href="classsensesp_1_1_click_type.html#a7cef6ec74f8d73633853e560a3872e3a" target="_top" xlink:title=" ">
<polygon fill="white" stroke="#666666" points="401.25,-105.91 296,-105.91 296,-75.41 401.25,-75.41 401.25,-105.91"/>
<text text-anchor="start" x="304" y="-92.41" font-family="Helvetica,sans-Serif" font-size="10.00">sensesp::ClickType</text>
<text text-anchor="middle" x="348.62" y="-81.16" font-family="Helvetica,sans-Serif" font-size="10.00">::on_ultra_long_click</text>
</a>
</g>
</g>
<!-- Node2&#45;&gt;Node5 -->
<g id="edge4_Node000002_Node000005" class="edge">
<title>Node2&#45;&gt;Node5</title>
<g id="a_edge4_Node000002_Node000005"><a xlink:title=" ">
<path fill="none" stroke="#63b8ff" d="M260.39,-92.56C268.21,-92.39 276.38,-92.21 284.45,-92.03"/>
<polygon fill="#63b8ff" stroke="#63b8ff" points="284.3,-95.54 294.22,-91.82 284.15,-88.54 284.3,-95.54"/>
</a>
</g>
</g>
<!-- Node4 -->
<g id="Node000004" class="node">
<title>Node4</title>
<g id="a_Node000004"><a xlink:href="classsensesp_1_1_observable.html#ab86d00fed8fb85b4c76cb9397667ece9" target="_top" xlink:title=" ">
<polygon fill="white" stroke="#666666" points="847.5,-42.91 739.25,-42.91 739.25,-12.41 847.5,-12.41 847.5,-42.91"/>
<text text-anchor="start" x="747.25" y="-29.41" font-family="Helvetica,sans-Serif" font-size="10.00">sensesp::Observable</text>
<text text-anchor="middle" x="793.38" y="-18.16" font-family="Helvetica,sans-Serif" font-size="10.00">::notify</text>
</a>
</g>
</g>
<!-- Node3&#45;&gt;Node4 -->
<g id="edge3_Node000003_Node000004" class="edge">
<title>Node3&#45;&gt;Node4</title>
<g id="a_edge3_Node000003_Node000004"><a xlink:title=" ">
<path fill="none" stroke="#63b8ff" d="M703.55,-27.66C711.56,-27.66 719.81,-27.66 727.89,-27.66"/>
<polygon fill="#63b8ff" stroke="#63b8ff" points="727.66,-31.16 737.66,-27.66 727.66,-24.16 727.66,-31.16"/>
</a>
</g>
</g>
<!-- Node6 -->
<g id="Node000006" class="node">
<title>Node6</title>
<g id="a_Node000006"><a xlink:href="classsensesp_1_1_click_type.html#a1c109241a50f371960a333abc3ead21a" target="_top" xlink:title=" ">
<polygon fill="white" stroke="#666666" points="542.5,-42.91 440.25,-42.91 440.25,-12.41 542.5,-12.41 542.5,-42.91"/>
<text text-anchor="start" x="448.25" y="-29.41" font-family="Helvetica,sans-Serif" font-size="10.00">sensesp::ClickType</text>
<text text-anchor="middle" x="491.38" y="-18.16" font-family="Helvetica,sans-Serif" font-size="10.00">::emitDelayed</text>
</a>
</g>
</g>
<!-- Node5&#45;&gt;Node6 -->
<g id="edge5_Node000005_Node000006" class="edge">
<title>Node5&#45;&gt;Node6</title>
<g id="a_edge5_Node000005_Node000006"><a xlink:title=" ">
<path fill="none" stroke="#63b8ff" d="M384.78,-74.92C403.14,-66.7 425.81,-56.56 445.43,-47.77"/>
<polygon fill="#63b8ff" stroke="#63b8ff" points="446.59,-51.09 454.29,-43.81 443.73,-44.7 446.59,-51.09"/>
</a>
</g>
</g>
<!-- Node7 -->
<g id="Node000007" class="node">
<title>Node7</title>
<g id="a_Node000007"><a xlink:href="classsensesp_1_1_click_type.html#aec294bafe9a6cb81599f6dfe84eafcf3" target="_top" xlink:title=" ">
<polygon fill="white" stroke="#666666" points="545.5,-98.91 437.25,-98.91 437.25,-68.41 545.5,-68.41 545.5,-98.91"/>
<text text-anchor="start" x="445.25" y="-85.41" font-family="Helvetica,sans-Serif" font-size="10.00">sensesp::ClickType</text>
<text text-anchor="middle" x="491.38" y="-74.16" font-family="Helvetica,sans-Serif" font-size="10.00">::on_click_completed</text>
</a>
</g>
</g>
<!-- Node5&#45;&gt;Node7 -->
<g id="edge7_Node000005_Node000007" class="edge">
<title>Node5&#45;&gt;Node7</title>
<g id="a_edge7_Node000005_Node000007"><a xlink:title=" ">
<path fill="none" stroke="#63b8ff" d="M401.64,-88.07C409.51,-87.68 417.72,-87.27 425.82,-86.87"/>
<polygon fill="#63b8ff" stroke="#63b8ff" points="425.84,-90.37 435.65,-86.38 425.49,-83.38 425.84,-90.37"/>
</a>
</g>
</g>
<!-- Node6&#45;&gt;Node3 -->
<g id="edge6_Node000006_Node000003" class="edge">
<title>Node6&#45;&gt;Node3</title>
<g id="a_edge6_Node000006_Node000003"><a xlink:title=" ">
<path fill="none" stroke="#63b8ff" d="M542.82,-27.66C551.49,-27.66 560.64,-27.66 569.74,-27.66"/>
<polygon fill="#63b8ff" stroke="#63b8ff" points="569.67,-31.16 579.67,-27.66 569.67,-24.16 569.67,-31.16"/>
</a>
</g>
</g>
<!-- Node8&#45;&gt;Node3 -->
<g id="edge9_Node000008_Node000003" class="edge">
<title>Node8&#45;&gt;Node3</title>
<g id="a_edge9_Node000008_Node000003"><a xlink:title=" ">
<path fill="none" stroke="#63b8ff" d="M260.48,-30.74C326.19,-14.46 444.42,8.8 545.5,-3.66 555.93,-4.94 566.85,-6.98 577.44,-9.35"/>
<polygon fill="#63b8ff" stroke="#63b8ff" points="576.3,-12.68 586.84,-11.57 577.91,-5.86 576.3,-12.68"/>
</a>
</g>
</g>
<!-- Node8&#45;&gt;Node5 -->
<g id="edge12_Node000008_Node000005" class="edge">
<title>Node8&#45;&gt;Node5</title>
<g id="a_edge12_Node000008_Node000005"><a xlink:title=" ">
<path fill="none" stroke="#63b8ff" d="M256.9,-60.36C267.53,-63.91 278.95,-67.72 289.97,-71.4"/>
<polygon fill="#63b8ff" stroke="#63b8ff" points="288.79,-74.7 299.38,-74.55 291,-68.06 288.79,-74.7"/>
</a>
</g>
</g>
<!-- Node8&#45;&gt;Node6 -->
<g id="edge10_Node000008_Node000006" class="edge">
<title>Node8&#45;&gt;Node6</title>
<g id="a_edge10_Node000008_Node000006"><a xlink:title=" ">
<path fill="none" stroke="#63b8ff" d="M260.34,-37.39C272.03,-35.93 284.43,-34.57 296,-33.66 340.23,-30.16 390.26,-28.67 428.49,-28.05"/>
<polygon fill="#63b8ff" stroke="#63b8ff" points="428.5,-31.55 438.45,-27.91 428.4,-24.55 428.5,-31.55"/>
</a>
</g>
</g>
<!-- Node8&#45;&gt;Node7 -->
<g id="edge11_Node000008_Node000007" class="edge">
<title>Node8&#45;&gt;Node7</title>
<g id="a_edge11_Node000008_Node000007"><a xlink:title=" ">
<path fill="none" stroke="#63b8ff" d="M260.38,-49.43C299.04,-53.34 353.64,-59.39 401.25,-66.66 409.17,-67.86 417.47,-69.26 425.67,-70.73"/>
<polygon fill="#63b8ff" stroke="#63b8ff" points="424.8,-74.13 435.27,-72.49 426.06,-67.25 424.8,-74.13"/>
</a>
</g>
</g>
</g>
</svg>

<g id="navigator" transform="translate(0 0)" fill="#404254">
  <rect fill="#f2f5e9" fill-opacity="0.5" stroke="#606060" stroke-width=".5" x="0" y="0" width="60" height="60"/>
  <use id="zoomplus" xlink:href="#zoomPlus" x="17" y="9" onmousedown="handleZoom(evt,'in')"/>
  <use id="zoomminus" xlink:href="#zoomMin" x="42" y="9" onmousedown="handleZoom(evt,'out')"/>
  <use id="reset" xlink:href="#resetDef" x="30" y="36" onmousedown="handleReset()"/>
   <use id="arrowup" xlink:href="#arrowUp" x="0" y="0" onmousedown="handlePan(0,-1)"/>
  <use id="arrowright" xlink:href="#arrowRight" x="0" y="0" onmousedown="handlePan(1,0)"/>
  <use id="arrowdown" xlink:href="#arrowDown" x="0" y="0" onmousedown="handlePan(0,1)"/>
  <use id="arrowleft" xlink:href="#arrowLeft" x="0" y="0" onmousedown="handlePan(-1,0)"/>
</g>
<svg viewBox="0 0 15 15" width="100%" height="30px" preserveAspectRatio="xMaxYMin meet">
 <g id="arrow_out" transform="scale(0.3 0.3)">
  <a xlink:href="classsensesp_1_1_click_type_add2322a0619d3470ffdb98dd9d5f8a94_cgraph_org.svg" target="_base">
   <rect id="button" ry="5" rx="5" y="6" x="6" height="38" width="38"
        fill="#f2f5e9" fill-opacity="0.5" stroke="#606060" stroke-width="1.0"/>
   <path id="arrow"
     d="M 11.500037,31.436501 C 11.940474,20.09759 22.043105,11.32322 32.158766,21.979434 L 37.068811,17.246167 C 37.068811,17.246167 37.088388,32 37.088388,32 L 22.160133,31.978069 C 22.160133,31.978069 26.997745,27.140456 26.997745,27.140456 C 18.528582,18.264221 13.291696,25.230495 11.500037,31.436501 z"
     style="fill:#404040;"/>
  </a>
 </g>
</svg>

<style type='text/css'>
<![CDATA[
[data-mouse-over-selected='false'] { opacity: 0.7; }
[data-mouse-over-selected='true']  { opacity: 1.0; }
]]>
</style>
<script type="application/ecmascript"><![CDATA[
document.addEventListener('DOMContentLoaded', (event) => {
  highlightEdges();
  highlightAdjacentNodes();
});
]]></script>
</svg>
