<?xml version="1.0" encoding="UTF-8" standalone="no"?>
<!DOCTYPE svg PUBLIC "-//W3C//DTD SVG 1.1//EN"
 "http://www.w3.org/Graphics/SVG/1.1/DTD/svg11.dtd">
<!-- Generated by graphviz version 12.0.0 (20240704.0754)
 -->
<!-- Title: sensesp::SKEmitter::add_metadata Pages: 1 -->
<svg width="252pt" height="88pt"
 viewBox="0.00 0.00 251.50 87.50" xmlns="http://www.w3.org/2000/svg" xmlns:xlink="http://www.w3.org/1999/xlink">
<g id="graph0" class="graph" transform="scale(1 1) rotate(0) translate(4 83.5)">
<title>sensesp::SKEmitter::add_metadata</title>
<!-- Node1 -->
<g id="Node000001" class="node">
<title>Node1</title>
<g id="a_Node000001"><a xlink:title=" ">
<polygon fill="#999999" stroke="#666666" points="103.75,-54.5 0,-54.5 0,-24 103.75,-24 103.75,-54.5"/>
<text text-anchor="start" x="8" y="-41" font-family="Helvetica,sans-Serif" font-size="10.00">sensesp::SKEmitter</text>
<text text-anchor="middle" x="51.88" y="-29.75" font-family="Helvetica,sans-Serif" font-size="10.00">::add_metadata</text>
</a>
</g>
</g>
<!-- Node2 -->
<g id="Node000002" class="node">
<title>Node2</title>
<g id="a_Node000002"><a xlink:href="classsensesp_1_1_s_k_emitter.html#a2300291c1953e96bcb2d3982672160d4" target="_top" xlink:title=" ">
<polygon fill="white" stroke="#666666" points="243.5,-79.5 139.75,-79.5 139.75,-49 243.5,-49 243.5,-79.5"/>
<text text-anchor="start" x="147.75" y="-66" font-family="Helvetica,sans-Serif" font-size="10.00">sensesp::SKEmitter</text>
<text text-anchor="middle" x="191.62" y="-54.75" font-family="Helvetica,sans-Serif" font-size="10.00">::get_metadata</text>
</a>
</g>
</g>
<!-- Node1&#45;&gt;Node2 -->
<g id="edge1_Node000001_Node000002" class="edge">
<title>Node1&#45;&gt;Node2</title>
<g id="a_edge1_Node000001_Node000002"><a xlink:title=" ">
<path fill="none" stroke="#63b8ff" d="M104.17,-48.56C111.97,-49.97 120.09,-51.45 128.09,-52.9"/>
<polygon fill="#63b8ff" stroke="#63b8ff" points="127.34,-56.32 137.8,-54.66 128.59,-49.43 127.34,-56.32"/>
</a>
</g>
</g>
<!-- Node3 -->
<g id="Node000003" class="node">
<title>Node3</title>
<g id="a_Node000003"><a xlink:href="classsensesp_1_1_s_k_emitter.html#a292710e5dc52da9cad9d1b992a886ff7" target="_top" xlink:title=" ">
<polygon fill="white" stroke="#666666" points="243.5,-30.5 139.75,-30.5 139.75,0 243.5,0 243.5,-30.5"/>
<text text-anchor="start" x="147.75" y="-17" font-family="Helvetica,sans-Serif" font-size="10.00">sensesp::SKEmitter</text>
<text text-anchor="middle" x="191.62" y="-5.75" font-family="Helvetica,sans-Serif" font-size="10.00">::get_sk_path</text>
</a>
</g>
</g>
<!-- Node1&#45;&gt;Node3 -->
<g id="edge2_Node000001_Node000003" class="edge">
<title>Node1&#45;&gt;Node3</title>
<g id="a_edge2_Node000001_Node000003"><a xlink:title=" ">
<path fill="none" stroke="#63b8ff" d="M104.17,-30.31C111.97,-28.95 120.09,-27.54 128.09,-26.14"/>
<polygon fill="#63b8ff" stroke="#63b8ff" points="128.55,-29.62 137.8,-24.45 127.35,-22.72 128.55,-29.62"/>
</a>
</g>
</g>
</g>
</svg>
