<?xml version="1.0" encoding="UTF-8" standalone="no"?>
<!DOCTYPE svg PUBLIC "-//W3C//DTD SVG 1.1//EN"
 "http://www.w3.org/Graphics/SVG/1.1/DTD/svg11.dtd">
<!-- Generated by graphviz version 14.1.4 (20260321.0153)
 -->
<!-- Title: sensesp::NetworkStateProducer Pages: 1 -->
<svg width="245pt" height="224pt"
 viewBox="0.00 0.00 245.00 224.00" xmlns="http://www.w3.org/2000/svg" xmlns:xlink="http://www.w3.org/1999/xlink">
<g id="graph0" class="graph" transform="scale(1 1) rotate(0) translate(4 219.5)">
<title>sensesp::NetworkStateProducer</title>
<!-- Node1 -->
<g id="Node000001" class="node">
<title>Node1</title>
<g id="a_Node000001"><a xlink:title="Unified producer that emits NetworkState transitions.">
<polygon fill="#999999" stroke="#666666" points="157.75,-19.25 0,-19.25 0,0 157.75,0 157.75,-19.25"/>
<text xml:space="preserve" text-anchor="middle" x="78.88" y="-5.75" font-family="Helvetica,sans-Serif" font-size="10.00">sensesp::NetworkStateProducer</text>
</a>
</g>
</g>
<!-- Node2 -->
<g id="Node000002" class="node">
<title>Node2</title>
<g id="a_Node000002"><a xlink:href="classsensesp_1_1_value_producer.html" target="_top" xlink:title=" ">
<polygon fill="white" stroke="#666666" points="139.75,-86.75 18,-86.75 18,-56.25 139.75,-56.25 139.75,-86.75"/>
<text xml:space="preserve" text-anchor="start" x="26" y="-73.25" font-family="Helvetica,sans-Serif" font-size="10.00">sensesp::ValueProducer</text>
<text xml:space="preserve" text-anchor="middle" x="78.88" y="-62" font-family="Helvetica,sans-Serif" font-size="10.00">&lt; NetworkState &gt;</text>
</a>
</g>
</g>
<!-- Node2&#45;&gt;Node1 -->
<g id="edge1_Node000001_Node000002" class="edge">
<title>Node2&#45;&gt;Node1</title>
<g id="a_edge1_Node000001_Node000002"><a xlink:title=" ">
<path fill="none" stroke="#63b8ff" d="M78.88,-44.77C78.88,-35.79 78.88,-26.29 78.88,-19.6"/>
<polygon fill="#63b8ff" stroke="#63b8ff" points="75.38,-44.49 78.88,-54.49 82.38,-44.49 75.38,-44.49"/>
</a>
</g>
</g>
<!-- Node3 -->
<g id="Node000003" class="node">
<title>Node3</title>
<g id="a_Node000003"><a xlink:href="classsensesp_1_1_observable.html" target="_top" xlink:title="A base class which allow observers to attach callbacks to themselves. The callbacks will be called wh...">
<polygon fill="white" stroke="#666666" points="129,-215.5 20.75,-215.5 20.75,-196.25 129,-196.25 129,-215.5"/>
<text xml:space="preserve" text-anchor="middle" x="74.88" y="-202" font-family="Helvetica,sans-Serif" font-size="10.00">sensesp::Observable</text>
</a>
</g>
</g>
<!-- Node3&#45;&gt;Node2 -->
<g id="edge2_Node000002_Node000003" class="edge">
<title>Node3&#45;&gt;Node2</title>
<g id="a_edge2_Node000002_Node000003"><a xlink:title=" ">
<path fill="none" stroke="#63b8ff" d="M75.5,-184.31C76.31,-157.36 77.72,-110.75 78.43,-87.13"/>
<polygon fill="#63b8ff" stroke="#63b8ff" points="72,-184.16 75.2,-194.26 79,-184.37 72,-184.16"/>
</a>
</g>
</g>
<!-- Node4 -->
<g id="Node000004" class="node">
<title>Node4</title>
<g id="a_Node000004"><a xlink:href="classsensesp_1_1_value_producer.html" target="_top" xlink:title="A base class for any sensor or piece of code that outputs a value for consumption elsewhere.">
<polygon fill="white" stroke="#666666" points="236.75,-159.25 91,-159.25 91,-140 236.75,-140 236.75,-159.25"/>
<text xml:space="preserve" text-anchor="middle" x="163.88" y="-145.75" font-family="Helvetica,sans-Serif" font-size="10.00">sensesp::ValueProducer&lt; T &gt;</text>
</a>
</g>
</g>
<!-- Node3&#45;&gt;Node4 -->
<g id="edge4_Node000004_Node000003" class="edge">
<title>Node3&#45;&gt;Node4</title>
<g id="a_edge4_Node000004_Node000003"><a xlink:title=" ">
<path fill="none" stroke="#63b8ff" d="M99.32,-189.97C115.29,-180.24 135.62,-167.85 149.16,-159.6"/>
<polygon fill="#63b8ff" stroke="#63b8ff" points="97.58,-186.94 90.86,-195.13 101.22,-192.91 97.58,-186.94"/>
</a>
</g>
</g>
<!-- Node4&#45;&gt;Node2 -->
<g id="edge3_Node000002_Node000004" class="edge">
<title>Node4&#45;&gt;Node2</title>
<g id="a_edge3_Node000002_Node000004"><a xlink:title=" ">
<path fill="none" stroke="orange" stroke-dasharray="5,2" d="M145.32,-132.01C130.31,-118.56 109.38,-99.82 95.04,-86.98"/>
<polygon fill="orange" stroke="orange" points="142.88,-134.52 152.66,-138.58 147.55,-129.31 142.88,-134.52"/>
</a>
</g>
<text xml:space="preserve" text-anchor="start" x="136.95" y="-110.75" font-family="Helvetica,sans-Serif" font-size="10.00" fill="grey">&lt; NetworkState &gt;</text>
</g>
</g>
</svg>
