<?xml version="1.0" encoding="UTF-8" standalone="no"?>
<!DOCTYPE svg PUBLIC "-//W3C//DTD SVG 1.1//EN"
 "http://www.w3.org/Graphics/SVG/1.1/DTD/svg11.dtd">
<!-- Generated by graphviz version 7.1.0 (20230121.1956)
 -->
<!-- Title: sensesp::SensorT&lt; T &gt; Pages: 1 -->
<svg width="1054pt" height="370pt"
 viewBox="0.00 0.00 1054.00 369.50" xmlns="http://www.w3.org/2000/svg" xmlns:xlink="http://www.w3.org/1999/xlink">
<g id="graph0" class="graph" transform="scale(1 1) rotate(0) translate(4 365.5)">
<title>sensesp::SensorT&lt; T &gt;</title>
<!-- Node1 -->
<g id="node1" class="node">
<title>Node1</title>
<g id="a_node1"><a xlink:title="Sensor template class for any sensor producing actual values.">
<polygon fill="#999999" stroke="#666666" points="454,-200 334,-200 334,-181 454,-181 454,-200"/>
<text text-anchor="middle" x="394" y="-188" font-family="Helvetica,sans-Serif" font-size="10.00">sensesp::SensorT&lt; T &gt;</text>
</a>
</g>
</g>
<!-- Node7 -->
<g id="node7" class="node">
<title>Node7</title>
<g id="a_node7"><a xlink:href="classsensesp_1_1_analog_input.html" target="_top" xlink:title="Sensor for reading the MCU analog input pins.">
<polygon fill="white" stroke="#666666" points="658.5,-361.5 547.5,-361.5 547.5,-331.5 658.5,-331.5 658.5,-361.5"/>
<text text-anchor="start" x="555.5" y="-349.5" font-family="Helvetica,sans-Serif" font-size="10.00">sensesp::AnalogInput</text>
<text text-anchor="middle" x="603" y="-338.5" font-family="Helvetica,sans-Serif" font-size="10.00">&lt; float &gt;</text>
</a>
</g>
</g>
<!-- Node1&#45;&gt;Node7 -->
<g id="edge7" class="edge">
<title>Node1&#45;&gt;Node7</title>
<path fill="none" stroke="#63b8ff" d="M409.31,-209.29C431.94,-237.76 478.7,-291.73 530,-322.5 535.42,-325.75 541.34,-328.63 547.39,-331.16"/>
<polygon fill="#63b8ff" stroke="#63b8ff" points="412.19,-207.29 403.28,-201.56 406.67,-211.6 412.19,-207.29"/>
</g>
<!-- Node8 -->
<g id="node8" class="node">
<title>Node8</title>
<g id="a_node8"><a xlink:href="classsensesp_1_1_i_p_addr_dev.html" target="_top" xlink:title="Reports the IP address of the ESP once it&#39;s connected to wifi.">
<polygon fill="white" stroke="#666666" points="656,-313.5 550,-313.5 550,-283.5 656,-283.5 656,-313.5"/>
<text text-anchor="start" x="558" y="-301.5" font-family="Helvetica,sans-Serif" font-size="10.00">sensesp::IPAddrDev</text>
<text text-anchor="middle" x="603" y="-290.5" font-family="Helvetica,sans-Serif" font-size="10.00">&lt; String &gt;</text>
</a>
</g>
</g>
<!-- Node1&#45;&gt;Node8 -->
<g id="edge8" class="edge">
<title>Node1&#45;&gt;Node8</title>
<path fill="none" stroke="#63b8ff" d="M417.61,-206.9C443.69,-225.25 488.34,-254.96 530,-274.5 536.56,-277.58 543.63,-280.44 550.68,-283.04"/>
<polygon fill="#63b8ff" stroke="#63b8ff" points="419.98,-204.29 409.8,-201.34 415.92,-209.99 419.98,-204.29"/>
</g>
<!-- Node9 -->
<g id="node9" class="node">
<title>Node9</title>
<g id="a_node9"><a xlink:href="classsensesp_1_1_repeat_sensor.html" target="_top" xlink:title=" ">
<polygon fill="white" stroke="#666666" points="676,-265 530,-265 530,-246 676,-246 676,-265"/>
<text text-anchor="middle" x="603" y="-253" font-family="Helvetica,sans-Serif" font-size="10.00">sensesp::RepeatSensor&lt; T &gt;</text>
</a>
</g>
</g>
<!-- Node1&#45;&gt;Node9 -->
<g id="edge9" class="edge">
<title>Node1&#45;&gt;Node9</title>
<path fill="none" stroke="#63b8ff" d="M433,-204.25C459.92,-213.79 496.98,-226.53 530,-236.5 540.4,-239.64 551.72,-242.76 562.25,-245.54"/>
<polygon fill="#63b8ff" stroke="#63b8ff" points="434.5,-201.07 423.91,-201.01 432.15,-207.66 434.5,-201.07"/>
</g>
<!-- Node10 -->
<g id="node10" class="node">
<title>Node10</title>
<g id="a_node10"><a xlink:href="classsensesp_1_1_system_hz.html" target="_top" xlink:title="Reports the current clock speed of the ESP.">
<polygon fill="white" stroke="#666666" points="659,-227.5 547,-227.5 547,-197.5 659,-197.5 659,-227.5"/>
<text text-anchor="start" x="555" y="-215.5" font-family="Helvetica,sans-Serif" font-size="10.00">sensesp::SystemHz&lt;</text>
<text text-anchor="middle" x="603" y="-204.5" font-family="Helvetica,sans-Serif" font-size="10.00"> float &gt;</text>
</a>
</g>
</g>
<!-- Node1&#45;&gt;Node10 -->
<g id="edge10" class="edge">
<title>Node1&#45;&gt;Node10</title>
<path fill="none" stroke="#63b8ff" d="M465.45,-197.99C491.94,-200.8 521.65,-203.96 546.58,-206.61"/>
<polygon fill="#63b8ff" stroke="#63b8ff" points="466.14,-194.54 455.82,-196.96 465.4,-201.5 466.14,-194.54"/>
</g>
<!-- Node11 -->
<g id="node11" class="node">
<title>Node11</title>
<g id="a_node11"><a xlink:href="classsensesp_1_1_uptime.html" target="_top" xlink:title="Reports the number of seconds since the last restart of the ESP.">
<polygon fill="white" stroke="#666666" points="667,-179 539,-179 539,-160 667,-160 667,-179"/>
<text text-anchor="middle" x="603" y="-167" font-family="Helvetica,sans-Serif" font-size="10.00">sensesp::Uptime&lt; float &gt;</text>
</a>
</g>
</g>
<!-- Node1&#45;&gt;Node11 -->
<g id="edge11" class="edge">
<title>Node1&#45;&gt;Node11</title>
<path fill="none" stroke="#63b8ff" d="M465.71,-183.33C489.39,-180.92 515.62,-178.26 538.7,-175.92"/>
<polygon fill="#63b8ff" stroke="#63b8ff" points="465.42,-179.84 455.82,-184.33 466.13,-186.8 465.42,-179.84"/>
</g>
<!-- Node12 -->
<g id="node12" class="node">
<title>Node12</title>
<g id="a_node12"><a xlink:href="classsensesp_1_1_wi_fi_signal.html" target="_top" xlink:title="Reports the current strength of the wifi signal that the ESP is connected to.">
<polygon fill="white" stroke="#666666" points="656.5,-141.5 549.5,-141.5 549.5,-111.5 656.5,-111.5 656.5,-141.5"/>
<text text-anchor="start" x="557.5" y="-129.5" font-family="Helvetica,sans-Serif" font-size="10.00">sensesp::WiFiSignal</text>
<text text-anchor="middle" x="603" y="-118.5" font-family="Helvetica,sans-Serif" font-size="10.00">&lt; float &gt;</text>
</a>
</g>
</g>
<!-- Node1&#45;&gt;Node12 -->
<g id="edge12" class="edge">
<title>Node1&#45;&gt;Node12</title>
<path fill="none" stroke="#63b8ff" d="M438.09,-177.18C471.32,-166.9 517.34,-152.68 552.15,-141.91"/>
<polygon fill="#63b8ff" stroke="#63b8ff" points="437.31,-173.76 428.79,-180.05 439.38,-180.44 437.31,-173.76"/>
</g>
<!-- Node13 -->
<g id="node13" class="node">
<title>Node13</title>
<g id="a_node13"><a xlink:href="classsensesp_1_1_sensor_t.html" target="_top" xlink:title=" ">
<polygon fill="white" stroke="#666666" points="669,-93 537,-93 537,-74 669,-74 669,-93"/>
<text text-anchor="middle" x="603" y="-81" font-family="Helvetica,sans-Serif" font-size="10.00">sensesp::SensorT&lt; bool &gt;</text>
</a>
</g>
</g>
<!-- Node1&#45;&gt;Node13 -->
<g id="edge13" class="edge">
<title>Node1&#45;&gt;Node13</title>
<path fill="none" stroke="orange" stroke-dasharray="5,2" d="M416.01,-173.62C441.54,-153.89 486.6,-121.51 530,-102.5 538.05,-98.97 546.91,-95.98 555.57,-93.48"/>
<polygon fill="orange" stroke="orange" points="414.12,-170.65 408.41,-179.57 418.44,-176.16 414.12,-170.65"/>
<text text-anchor="middle" x="492" y="-135.5" font-family="Helvetica,sans-Serif" font-size="10.00"> &lt; bool &gt;</text>
</g>
<!-- Node16 -->
<g id="node16" class="node">
<title>Node16</title>
<g id="a_node16"><a xlink:href="classsensesp_1_1_sensor_t.html" target="_top" xlink:title=" ">
<polygon fill="white" stroke="#666666" points="665.5,-56 540.5,-56 540.5,-37 665.5,-37 665.5,-56"/>
<text text-anchor="middle" x="603" y="-44" font-family="Helvetica,sans-Serif" font-size="10.00">sensesp::SensorT&lt; int &gt;</text>
</a>
</g>
</g>
<!-- Node1&#45;&gt;Node16 -->
<g id="edge16" class="edge">
<title>Node1&#45;&gt;Node16</title>
<path fill="none" stroke="orange" stroke-dasharray="5,2" d="M407.83,-171.16C421.87,-151.03 445.89,-119.42 472,-97.5 494.72,-78.43 502.47,-75.53 530,-64.5 537.77,-61.38 546.24,-58.69 554.55,-56.41"/>
<polygon fill="orange" stroke="orange" points="405.04,-169.05 402.29,-179.29 410.82,-173 405.04,-169.05"/>
<text text-anchor="middle" x="492" y="-100.5" font-family="Helvetica,sans-Serif" font-size="10.00"> &lt; int &gt;</text>
</g>
<!-- Node2 -->
<g id="node2" class="node">
<title>Node2</title>
<g id="a_node2"><a xlink:href="classsensesp_1_1_sensor.html" target="_top" xlink:title="The base class for all sensors. Used only as a base class &#45; never instantiated directly in a project.">
<polygon fill="white" stroke="#666666" points="269,-182 179,-182 179,-163 269,-163 269,-182"/>
<text text-anchor="middle" x="224" y="-170" font-family="Helvetica,sans-Serif" font-size="10.00">sensesp::Sensor</text>
</a>
</g>
</g>
<!-- Node2&#45;&gt;Node1 -->
<g id="edge1" class="edge">
<title>Node2&#45;&gt;Node1</title>
<path fill="none" stroke="#63b8ff" d="M280.11,-178.4C297.27,-180.24 316.25,-182.28 333.68,-184.14"/>
<polygon fill="#63b8ff" stroke="#63b8ff" points="280.96,-174.98 270.64,-177.39 280.22,-181.94 280.96,-174.98"/>
</g>
<!-- Node3 -->
<g id="node3" class="node">
<title>Node3</title>
<g id="a_node3"><a xlink:href="classsensesp_1_1_observable.html" target="_top" xlink:title="A base class which allow observers to attach callbacks to themselves. The callbacks will be called wh...">
<polygon fill="white" stroke="#666666" points="111.5,-219 2.5,-219 2.5,-200 111.5,-200 111.5,-219"/>
<text text-anchor="middle" x="57" y="-207" font-family="Helvetica,sans-Serif" font-size="10.00">sensesp::Observable</text>
</a>
</g>
</g>
<!-- Node3&#45;&gt;Node2 -->
<g id="edge2" class="edge">
<title>Node3&#45;&gt;Node2</title>
<path fill="none" stroke="#63b8ff" d="M113.37,-197.08C134.63,-192.32 158.58,-186.95 178.66,-182.44"/>
<polygon fill="#63b8ff" stroke="#63b8ff" points="112.69,-193.65 103.69,-199.25 114.22,-200.48 112.69,-193.65"/>
</g>
<!-- Node6 -->
<g id="node6" class="node">
<title>Node6</title>
<g id="a_node6"><a xlink:href="classsensesp_1_1_value_producer.html" target="_top" xlink:title="A base class for any sensor or piece of code that outputs a value for consumption elsewhere.">
<polygon fill="white" stroke="#666666" points="297,-222 151,-222 151,-203 297,-203 297,-222"/>
<text text-anchor="middle" x="224" y="-210" font-family="Helvetica,sans-Serif" font-size="10.00">sensesp::ValueProducer&lt; T &gt;</text>
</a>
</g>
</g>
<!-- Node3&#45;&gt;Node6 -->
<g id="edge6" class="edge">
<title>Node3&#45;&gt;Node6</title>
<path fill="none" stroke="#63b8ff" d="M122.95,-210.68C132.09,-210.85 141.53,-211.02 150.79,-211.19"/>
<polygon fill="#63b8ff" stroke="#63b8ff" points="123.15,-207.18 113.08,-210.5 123.02,-214.18 123.15,-207.18"/>
</g>
<!-- Node4 -->
<g id="node4" class="node">
<title>Node4</title>
<g id="a_node4"><a xlink:href="classsensesp_1_1_configurable.html" target="_top" xlink:title="An object that is capable of having configuration data that can be set remotely using a RESTful API,...">
<polygon fill="white" stroke="#666666" points="114,-176 0,-176 0,-157 114,-157 114,-176"/>
<text text-anchor="middle" x="57" y="-164" font-family="Helvetica,sans-Serif" font-size="10.00">sensesp::Configurable</text>
</a>
</g>
</g>
<!-- Node4&#45;&gt;Node2 -->
<g id="edge3" class="edge">
<title>Node4&#45;&gt;Node2</title>
<path fill="none" stroke="#63b8ff" d="M125.6,-168.96C143.48,-169.61 162.34,-170.29 178.64,-170.89"/>
<polygon fill="#63b8ff" stroke="#63b8ff" points="125.96,-165.47 115.83,-168.6 125.7,-172.46 125.96,-165.47"/>
</g>
<!-- Node5 -->
<g id="node5" class="node">
<title>Node5</title>
<g id="a_node5"><a xlink:href="classsensesp_1_1_startable.html" target="_top" xlink:title="Automatic calling of the start() method at startup.">
<polygon fill="white" stroke="#666666" points="106,-139 8,-139 8,-120 106,-120 106,-139"/>
<text text-anchor="middle" x="57" y="-127" font-family="Helvetica,sans-Serif" font-size="10.00">sensesp::Startable</text>
</a>
</g>
</g>
<!-- Node5&#45;&gt;Node2 -->
<g id="edge4" class="edge">
<title>Node5&#45;&gt;Node2</title>
<path fill="none" stroke="#63b8ff" d="M107.27,-142.34C132.04,-148.8 161.61,-156.5 184.65,-162.51"/>
<polygon fill="#63b8ff" stroke="#63b8ff" points="108.29,-138.99 97.73,-139.85 106.53,-145.76 108.29,-138.99"/>
</g>
<!-- Node6&#45;&gt;Node1 -->
<g id="edge5" class="edge">
<title>Node6&#45;&gt;Node1</title>
<path fill="none" stroke="#63b8ff" d="M308.42,-201.58C316.97,-200.46 325.52,-199.34 333.73,-198.26"/>
<polygon fill="#63b8ff" stroke="#63b8ff" points="308.18,-198.08 298.72,-202.85 309.09,-205.02 308.18,-198.08"/>
</g>
<!-- Node14 -->
<g id="node14" class="node">
<title>Node14</title>
<g id="a_node14"><a xlink:href="classsensesp_1_1_digital_input_change.html" target="_top" xlink:title="DigitalInputChange provides output whenever a digital pin changes its state.">
<polygon fill="white" stroke="#666666" points="856,-130 713,-130 713,-111 856,-111 856,-130"/>
<text text-anchor="middle" x="784.5" y="-118" font-family="Helvetica,sans-Serif" font-size="10.00">sensesp::DigitalInputChange</text>
</a>
</g>
</g>
<!-- Node13&#45;&gt;Node14 -->
<g id="edge14" class="edge">
<title>Node13&#45;&gt;Node14</title>
<path fill="none" stroke="#63b8ff" d="M663.28,-95.72C686.64,-100.53 713.11,-105.99 735.26,-110.56"/>
<polygon fill="#63b8ff" stroke="#63b8ff" points="664.09,-92.31 653.59,-93.72 662.67,-99.17 664.09,-92.31"/>
</g>
<!-- Node15 -->
<g id="node15" class="node">
<title>Node15</title>
<g id="a_node15"><a xlink:href="classsensesp_1_1_digital_input_state.html" target="_top" xlink:title="DigitalInputState polls the state of an input pin every read_delay ms.">
<polygon fill="white" stroke="#666666" points="850.5,-93 718.5,-93 718.5,-74 850.5,-74 850.5,-93"/>
<text text-anchor="middle" x="784.5" y="-81" font-family="Helvetica,sans-Serif" font-size="10.00">sensesp::DigitalInputState</text>
</a>
</g>
</g>
<!-- Node13&#45;&gt;Node15 -->
<g id="edge15" class="edge">
<title>Node13&#45;&gt;Node15</title>
<path fill="none" stroke="#63b8ff" d="M680.67,-83.5C693.18,-83.5 706.04,-83.5 718.24,-83.5"/>
<polygon fill="#63b8ff" stroke="#63b8ff" points="680.82,-80 670.82,-83.5 680.82,-87 680.82,-80"/>
</g>
<!-- Node17 -->
<g id="node17" class="node">
<title>Node17</title>
<g id="a_node17"><a xlink:href="classsensesp_1_1_digital_input_counter.html" target="_top" xlink:title="DigitalInputCounter counts interrupts and reports the count every read_delay ms.">
<polygon fill="white" stroke="#666666" points="856,-56 713,-56 713,-37 856,-37 856,-56"/>
<text text-anchor="middle" x="784.5" y="-44" font-family="Helvetica,sans-Serif" font-size="10.00">sensesp::DigitalInputCounter</text>
</a>
</g>
</g>
<!-- Node16&#45;&gt;Node17 -->
<g id="edge17" class="edge">
<title>Node16&#45;&gt;Node17</title>
<path fill="none" stroke="#63b8ff" d="M676.93,-46.5C688.73,-46.5 700.92,-46.5 712.67,-46.5"/>
<polygon fill="#63b8ff" stroke="#63b8ff" points="677.29,-43 667.29,-46.5 677.29,-50 677.29,-43"/>
</g>
<!-- Node19 -->
<g id="node19" class="node">
<title>Node19</title>
<g id="a_node19"><a xlink:href="classsensesp_1_1_free_mem.html" target="_top" xlink:title="Reports the current amount of unused memory of the ESP.">
<polygon fill="white" stroke="#666666" points="835,-19 734,-19 734,0 835,0 835,-19"/>
<text text-anchor="middle" x="784.5" y="-7" font-family="Helvetica,sans-Serif" font-size="10.00">sensesp::FreeMem</text>
</a>
</g>
</g>
<!-- Node16&#45;&gt;Node19 -->
<g id="edge19" class="edge">
<title>Node16&#45;&gt;Node19</title>
<path fill="none" stroke="#63b8ff" d="M663.28,-34.28C686.64,-29.47 713.11,-24.01 735.26,-19.44"/>
<polygon fill="#63b8ff" stroke="#63b8ff" points="662.67,-30.83 653.59,-36.28 664.09,-37.69 662.67,-30.83"/>
</g>
<!-- Node18 -->
<g id="node18" class="node">
<title>Node18</title>
<g id="a_node18"><a xlink:href="classsensesp_1_1_digital_input_debounce_counter.html" target="_top" xlink:title="DigitalInputDebounceCounter counts interrupts and reports the count every read_delay ms,...">
<polygon fill="white" stroke="#666666" points="1046,-61.5 893,-61.5 893,-31.5 1046,-31.5 1046,-61.5"/>
<text text-anchor="start" x="901" y="-49.5" font-family="Helvetica,sans-Serif" font-size="10.00">sensesp::DigitalInputDebounce</text>
<text text-anchor="middle" x="969.5" y="-38.5" font-family="Helvetica,sans-Serif" font-size="10.00">Counter</text>
</a>
</g>
</g>
<!-- Node17&#45;&gt;Node18 -->
<g id="edge18" class="edge">
<title>Node17&#45;&gt;Node18</title>
<path fill="none" stroke="#63b8ff" d="M867.59,-46.5C875.98,-46.5 884.47,-46.5 892.78,-46.5"/>
<polygon fill="#63b8ff" stroke="#63b8ff" points="867.77,-43 857.77,-46.5 867.77,-50 867.77,-43"/>
</g>
</g>
</svg>
