<?xml version="1.0" encoding="UTF-8" standalone="no"?>
<!DOCTYPE svg PUBLIC "-//W3C//DTD SVG 1.1//EN"
 "http://www.w3.org/Graphics/SVG/1.1/DTD/svg11.dtd">
<!-- Generated by graphviz version 14.1.4 (20260321.0153)
 -->
<!-- Title: sensesp::NetworkStateProducer::NetworkStateProducer Pages: 1 -->
<svg width="891pt" height="82pt"
 viewBox="0.00 0.00 891.00 82.00" xmlns="http://www.w3.org/2000/svg" xmlns:xlink="http://www.w3.org/1999/xlink">
<g id="graph0" class="graph" transform="scale(1 1) rotate(0) translate(4 77.5)">
<title>sensesp::NetworkStateProducer::NetworkStateProducer</title>
<!-- Node1 -->
<g id="Node000001" class="node">
<title>Node1</title>
<g id="a_Node000001"><a xlink:title=" ">
<polygon fill="#999999" stroke="#666666" points="157.75,-51.5 0,-51.5 0,-21 157.75,-21 157.75,-51.5"/>
<text xml:space="preserve" text-anchor="start" x="8" y="-38" font-family="Helvetica,sans-Serif" font-size="10.00">sensesp::NetworkStateProducer</text>
<text xml:space="preserve" text-anchor="middle" x="78.88" y="-26.75" font-family="Helvetica,sans-Serif" font-size="10.00">::NetworkStateProducer</text>
</a>
</g>
</g>
<!-- Node2 -->
<g id="Node000002" class="node">
<title>Node2</title>
<g id="a_Node000002"><a xlink:href="classsensesp_1_1_network_state_producer.html#a026c79e020bc47b64b85df1edb44d0e6" target="_top" xlink:title=" ">
<polygon fill="white" stroke="#666666" points="351.5,-51.5 193.75,-51.5 193.75,-21 351.5,-21 351.5,-51.5"/>
<text xml:space="preserve" text-anchor="start" x="201.75" y="-38" font-family="Helvetica,sans-Serif" font-size="10.00">sensesp::NetworkStateProducer</text>
<text xml:space="preserve" text-anchor="middle" x="272.62" y="-26.75" font-family="Helvetica,sans-Serif" font-size="10.00">::NetworkStateProducer</text>
</a>
</g>
</g>
<!-- Node1&#45;&gt;Node2 -->
<g id="edge1_Node000001_Node000002" class="edge">
<title>Node1&#45;&gt;Node2</title>
<g id="a_edge1_Node000001_Node000002"><a xlink:title=" ">
<path fill="none" stroke="#63b8ff" d="M158.14,-36.25C165.94,-36.25 173.89,-36.25 181.79,-36.25"/>
<polygon fill="#63b8ff" stroke="#63b8ff" points="181.78,-39.75 191.78,-36.25 181.78,-32.75 181.78,-39.75"/>
</a>
</g>
</g>
<!-- Node3 -->
<g id="Node000003" class="node">
<title>Node3</title>
<g id="a_Node000003"><a xlink:href="classsensesp_1_1_value_producer.html#a4f5f0259d0d3cd9a0ed17d657cac04e2" target="_top" xlink:title=" ">
<polygon fill="white" stroke="#666666" points="509.25,-73.5 387.5,-73.5 387.5,-43 509.25,-43 509.25,-73.5"/>
<text xml:space="preserve" text-anchor="start" x="395.5" y="-60" font-family="Helvetica,sans-Serif" font-size="10.00">sensesp::ValueProducer</text>
<text xml:space="preserve" text-anchor="middle" x="448.38" y="-48.75" font-family="Helvetica,sans-Serif" font-size="10.00">&lt; NetworkState &gt;::emit</text>
</a>
</g>
</g>
<!-- Node2&#45;&gt;Node3 -->
<g id="edge2_Node000002_Node000003" class="edge">
<title>Node2&#45;&gt;Node3</title>
<g id="a_edge2_Node000002_Node000003"><a xlink:title=" ">
<path fill="none" stroke="#63b8ff" d="M351.86,-46.16C359.79,-47.16 367.81,-48.18 375.67,-49.17"/>
<polygon fill="#63b8ff" stroke="#63b8ff" points="375.16,-52.63 385.52,-50.42 376.04,-45.69 375.16,-52.63"/>
</a>
</g>
</g>
<!-- Node4 -->
<g id="Node000004" class="node">
<title>Node4</title>
<g id="a_Node000004"><a xlink:href="namespacesensesp.html#a1c1105507d71491cf4e0505eaabb2e49" target="_top" xlink:title=" ">
<polygon fill="white" stroke="#666666" points="501.38,-24.88 395.38,-24.88 395.38,-5.63 501.38,-5.63 501.38,-24.88"/>
<text xml:space="preserve" text-anchor="middle" x="448.38" y="-11.38" font-family="Helvetica,sans-Serif" font-size="10.00">sensesp::event_loop</text>
</a>
</g>
</g>
<!-- Node2&#45;&gt;Node4 -->
<g id="edge3_Node000002_Node000004" class="edge">
<title>Node2&#45;&gt;Node4</title>
<g id="a_edge3_Node000002_Node000004"><a xlink:title=" ">
<path fill="none" stroke="#63b8ff" d="M351.86,-26.79C362.46,-25.51 373.24,-24.21 383.55,-22.96"/>
<polygon fill="#63b8ff" stroke="#63b8ff" points="383.94,-26.44 393.45,-21.77 383.1,-19.49 383.94,-26.44"/>
</a>
</g>
</g>
<!-- Node5 -->
<g id="Node000005" class="node">
<title>Node5</title>
<g id="a_Node000005"><a xlink:href="classsensesp_1_1_sens_e_s_p_base_app.html#a28c20eed17bfc460e6686a11c5b3b107" target="_top" xlink:title="Get the event loop object from the singleton SensESPBaseApp instance.">
<polygon fill="white" stroke="#666666" points="686.5,-30.5 545.25,-30.5 545.25,0 686.5,0 686.5,-30.5"/>
<text xml:space="preserve" text-anchor="start" x="553.25" y="-17" font-family="Helvetica,sans-Serif" font-size="10.00">sensesp::SensESPBaseApp</text>
<text xml:space="preserve" text-anchor="middle" x="615.88" y="-5.75" font-family="Helvetica,sans-Serif" font-size="10.00">::get_event_loop</text>
</a>
</g>
</g>
<!-- Node4&#45;&gt;Node5 -->
<g id="edge4_Node000004_Node000005" class="edge">
<title>Node4&#45;&gt;Node5</title>
<g id="a_edge4_Node000004_Node000005"><a xlink:title=" ">
<path fill="none" stroke="#63b8ff" d="M501.74,-15.25C511.93,-15.25 522.84,-15.25 533.71,-15.25"/>
<polygon fill="#63b8ff" stroke="#63b8ff" points="533.47,-18.75 543.47,-15.25 533.47,-11.75 533.47,-18.75"/>
</a>
</g>
</g>
<!-- Node6 -->
<g id="Node000006" class="node">
<title>Node6</title>
<g id="a_Node000006"><a xlink:href="classsensesp_1_1_sens_e_s_p_base_app.html#add2c67bb55d095ab9c64f44ab2e82612" target="_top" xlink:title="Get the singleton instance of the SensESPBaseApp.">
<polygon fill="white" stroke="#666666" points="883.25,-24.88 722.5,-24.88 722.5,-5.63 883.25,-5.63 883.25,-24.88"/>
<text xml:space="preserve" text-anchor="middle" x="802.88" y="-11.38" font-family="Helvetica,sans-Serif" font-size="10.00">sensesp::SensESPBaseApp::get</text>
</a>
</g>
</g>
<!-- Node5&#45;&gt;Node6 -->
<g id="edge5_Node000005_Node000006" class="edge">
<title>Node5&#45;&gt;Node6</title>
<g id="a_edge5_Node000005_Node000006"><a xlink:title=" ">
<path fill="none" stroke="#63b8ff" d="M686.82,-15.25C694.67,-15.25 702.76,-15.25 710.84,-15.25"/>
<polygon fill="#63b8ff" stroke="#63b8ff" points="710.71,-18.75 720.71,-15.25 710.71,-11.75 710.71,-18.75"/>
</a>
</g>
</g>
</g>
</svg>
