<?xml version="1.0" encoding="UTF-8" standalone="no"?>
<!DOCTYPE svg PUBLIC "-//W3C//DTD SVG 1.1//EN"
 "http://www.w3.org/Graphics/SVG/1.1/DTD/svg11.dtd">
<!-- Generated by graphviz version 5.0.0 (20220707.1540)
 -->
<!-- Title: sensesp::TimeString Pages: 1 -->
<svg width="1338pt" height="231pt"
 viewBox="0.00 0.00 1338.00 230.50" xmlns="http://www.w3.org/2000/svg" xmlns:xlink="http://www.w3.org/1999/xlink">
<g id="graph0" class="graph" transform="scale(1 1) rotate(0) translate(4 226.5)">
<title>sensesp::TimeString</title>
<polygon fill="white" stroke="transparent" points="-4,4 -4,-226.5 1334,-226.5 1334,4 -4,4"/>
<!-- Node1 -->
<g id="node1" class="node">
<title>Node1</title>
<g id="a_node1"><a xlink:title="Consumes a time_t time object and produces a human readable string of the time for UTC in ISO 8601 fo...">
<polygon fill="#bfbfbf" stroke="black" points="1062,-109 1062,-128 1169,-128 1169,-109 1062,-109"/>
<text text-anchor="middle" x="1115.5" y="-116" font-family="Helvetica,sans-Serif" font-size="10.00">sensesp::TimeString</text>
</a>
</g>
</g>
<!-- Node14 -->
<g id="node14" class="node">
<title>Node14</title>
<g id="a_node14"><a xlink:href="classsensesp_1_1_s_k_output_time.html" target="_top" xlink:title=" ">
<polygon fill="white" stroke="black" points="1206,-109 1206,-128 1330,-128 1330,-109 1206,-109"/>
<text text-anchor="middle" x="1268" y="-116" font-family="Helvetica,sans-Serif" font-size="10.00">sensesp::SKOutputTime</text>
</a>
</g>
</g>
<!-- Node1&#45;&gt;Node14 -->
<g id="edge18" class="edge">
<title>Node1&#45;&gt;Node14</title>
<path fill="none" stroke="midnightblue" d="M1179.32,-118.5C1188.1,-118.5 1197.13,-118.5 1205.88,-118.5"/>
<polygon fill="midnightblue" stroke="midnightblue" points="1179.14,-115 1169.14,-118.5 1179.14,-122 1179.14,-115"/>
</g>
<!-- Node2 -->
<g id="node2" class="node">
<title>Node2</title>
<g id="a_node2"><a xlink:href="classsensesp_1_1_transform.html" target="_top" xlink:title=" ">
<polygon fill="white" stroke="black" points="921,-103.5 921,-133.5 1025,-133.5 1025,-103.5 921,-103.5"/>
<text text-anchor="start" x="929" y="-121.5" font-family="Helvetica,sans-Serif" font-size="10.00">sensesp::Transform</text>
<text text-anchor="middle" x="973" y="-110.5" font-family="Helvetica,sans-Serif" font-size="10.00">&lt; time_t, String &gt;</text>
</a>
</g>
</g>
<!-- Node2&#45;&gt;Node1 -->
<g id="edge1" class="edge">
<title>Node2&#45;&gt;Node1</title>
<path fill="none" stroke="midnightblue" d="M1035.34,-118.5C1044.15,-118.5 1053.14,-118.5 1061.76,-118.5"/>
<polygon fill="midnightblue" stroke="midnightblue" points="1035.12,-115 1025.12,-118.5 1035.12,-122 1035.12,-115"/>
</g>
<!-- Node3 -->
<g id="node3" class="node">
<title>Node3</title>
<g id="a_node3"><a xlink:href="classsensesp_1_1_transform_base.html" target="_top" xlink:title="The base class for all transforms. A transforms takes a value in, transforms it in some way,...">
<polygon fill="white" stroke="black" points="397,-173 397,-192 523,-192 523,-173 397,-173"/>
<text text-anchor="middle" x="460" y="-180" font-family="Helvetica,sans-Serif" font-size="10.00">sensesp::TransformBase</text>
</a>
</g>
</g>
<!-- Node3&#45;&gt;Node2 -->
<g id="edge2" class="edge">
<title>Node3&#45;&gt;Node2</title>
<path fill="none" stroke="midnightblue" d="M533.52,-179.99C576.96,-178.06 633.24,-174.79 683,-169.5 781.38,-159.04 805.98,-154.91 903,-135.5 908.81,-134.34 914.86,-133.01 920.87,-131.63"/>
<polygon fill="midnightblue" stroke="midnightblue" points="533.17,-176.5 523.33,-180.43 533.47,-183.5 533.17,-176.5"/>
</g>
<!-- Node11 -->
<g id="node11" class="node">
<title>Node11</title>
<g id="a_node11"><a xlink:href="classsensesp_1_1_transform.html" target="_top" xlink:title="The main Transform class. A transform is identified primarily by the type of value that is produces (...">
<polygon fill="white" stroke="black" points="701,-72.5 701,-102.5 805,-102.5 805,-72.5 701,-72.5"/>
<text text-anchor="start" x="709" y="-90.5" font-family="Helvetica,sans-Serif" font-size="10.00">sensesp::Transform</text>
<text text-anchor="middle" x="753" y="-79.5" font-family="Helvetica,sans-Serif" font-size="10.00">&lt; C, P &gt;</text>
</a>
</g>
</g>
<!-- Node3&#45;&gt;Node11 -->
<g id="edge12" class="edge">
<title>Node3&#45;&gt;Node11</title>
<path fill="none" stroke="midnightblue" d="M533.15,-174.23C587.47,-167.25 656.86,-156.49 683,-144.5 704.75,-134.53 725.3,-115.92 738.23,-102.69"/>
<polygon fill="midnightblue" stroke="midnightblue" points="532.68,-170.76 523.2,-175.49 533.56,-177.7 532.68,-170.76"/>
</g>
<!-- Node4 -->
<g id="node4" class="node">
<title>Node4</title>
<g id="a_node4"><a xlink:href="classsensesp_1_1_configurable.html" target="_top" xlink:title="An object that is capable of having configuration data that can be set remotely using a RESTful API,...">
<polygon fill="white" stroke="black" points="165,-165 165,-184 279,-184 279,-165 165,-165"/>
<text text-anchor="middle" x="222" y="-172" font-family="Helvetica,sans-Serif" font-size="10.00">sensesp::Configurable</text>
</a>
</g>
</g>
<!-- Node4&#45;&gt;Node3 -->
<g id="edge3" class="edge">
<title>Node4&#45;&gt;Node3</title>
<path fill="none" stroke="midnightblue" d="M289.45,-176.75C323.18,-177.9 363.9,-179.28 396.98,-180.4"/>
<polygon fill="midnightblue" stroke="midnightblue" points="289.34,-173.25 279.23,-176.41 289.1,-180.24 289.34,-173.25"/>
</g>
<!-- Node5 -->
<g id="node5" class="node">
<title>Node5</title>
<g id="a_node5"><a xlink:href="classsensesp_1_1_startable.html" target="_top" xlink:title="Automatic calling of the start() method at startup.">
<polygon fill="white" stroke="black" points="173,-203 173,-222 271,-222 271,-203 173,-203"/>
<text text-anchor="middle" x="222" y="-210" font-family="Helvetica,sans-Serif" font-size="10.00">sensesp::Startable</text>
</a>
</g>
</g>
<!-- Node5&#45;&gt;Node3 -->
<g id="edge4" class="edge">
<title>Node5&#45;&gt;Node3</title>
<path fill="none" stroke="midnightblue" d="M281.13,-205.11C316.2,-200.65 360.87,-194.97 396.67,-190.42"/>
<polygon fill="midnightblue" stroke="midnightblue" points="280.52,-201.66 271.04,-206.39 281.4,-208.6 280.52,-201.66"/>
</g>
<!-- Node6 -->
<g id="node6" class="node">
<title>Node6</title>
<g id="a_node6"><a xlink:href="classsensesp_1_1_value_consumer.html" target="_top" xlink:title=" ">
<polygon fill="white" stroke="black" points="555,-112.5 555,-142.5 683,-142.5 683,-112.5 555,-112.5"/>
<text text-anchor="start" x="563" y="-130.5" font-family="Helvetica,sans-Serif" font-size="10.00">sensesp::ValueConsumer</text>
<text text-anchor="middle" x="619" y="-119.5" font-family="Helvetica,sans-Serif" font-size="10.00">&lt; time_t &gt;</text>
</a>
</g>
</g>
<!-- Node6&#45;&gt;Node2 -->
<g id="edge5" class="edge">
<title>Node6&#45;&gt;Node2</title>
<path fill="none" stroke="midnightblue" d="M693.56,-125.62C761.64,-123.88 861.09,-121.34 920.88,-119.81"/>
<polygon fill="midnightblue" stroke="midnightblue" points="693.24,-122.13 683.34,-125.88 693.42,-129.12 693.24,-122.13"/>
</g>
<!-- Node7 -->
<g id="node7" class="node">
<title>Node7</title>
<g id="a_node7"><a xlink:href="classsensesp_1_1_value_consumer.html" target="_top" xlink:title="A base class for piece of code (like a transform) that accepts data for input. ValueConsumers can acc...">
<polygon fill="white" stroke="black" points="146,-112 146,-131 298,-131 298,-112 146,-112"/>
<text text-anchor="middle" x="222" y="-119" font-family="Helvetica,sans-Serif" font-size="10.00">sensesp::ValueConsumer&lt; T &gt;</text>
</a>
</g>
</g>
<!-- Node7&#45;&gt;Node6 -->
<g id="edge6" class="edge">
<title>Node7&#45;&gt;Node6</title>
<path fill="none" stroke="orange" stroke-dasharray="5,2" d="M308.46,-122.8C382.55,-123.92 488.07,-125.53 554.78,-126.54"/>
<polygon fill="orange" stroke="orange" points="308.28,-119.3 298.23,-122.64 308.17,-126.29 308.28,-119.3"/>
<text text-anchor="middle" x="340.5" y="-127.5" font-family="Helvetica,sans-Serif" font-size="10.00"> &lt; time_t &gt;</text>
</g>
<!-- Node12 -->
<g id="node12" class="node">
<title>Node12</title>
<g id="a_node12"><a xlink:href="classsensesp_1_1_value_consumer.html" target="_top" xlink:title=" ">
<polygon fill="white" stroke="black" points="383,-95 383,-114 537,-114 537,-95 383,-95"/>
<text text-anchor="middle" x="460" y="-102" font-family="Helvetica,sans-Serif" font-size="10.00">sensesp::ValueConsumer&lt; C &gt;</text>
</a>
</g>
</g>
<!-- Node7&#45;&gt;Node12 -->
<g id="edge14" class="edge">
<title>Node7&#45;&gt;Node12</title>
<path fill="none" stroke="orange" stroke-dasharray="5,2" d="M301.24,-110.87C306.23,-110.36 311.18,-109.89 316,-109.5 337.66,-107.73 361.22,-106.58 382.85,-105.84"/>
<polygon fill="orange" stroke="orange" points="300.55,-107.43 290.98,-111.98 301.3,-114.38 300.55,-107.43"/>
<text text-anchor="middle" x="340.5" y="-112.5" font-family="Helvetica,sans-Serif" font-size="10.00"> &lt; C &gt;</text>
</g>
<!-- Node8 -->
<g id="node8" class="node">
<title>Node8</title>
<g id="a_node8"><a xlink:href="classsensesp_1_1_value_producer.html" target="_top" xlink:title=" ">
<polygon fill="white" stroke="black" points="399,-0.5 399,-30.5 521,-30.5 521,-0.5 399,-0.5"/>
<text text-anchor="start" x="407" y="-18.5" font-family="Helvetica,sans-Serif" font-size="10.00">sensesp::ValueProducer</text>
<text text-anchor="middle" x="460" y="-7.5" font-family="Helvetica,sans-Serif" font-size="10.00">&lt; String &gt;</text>
</a>
</g>
</g>
<!-- Node8&#45;&gt;Node2 -->
<g id="edge7" class="edge">
<title>Node8&#45;&gt;Node2</title>
<path fill="none" stroke="midnightblue" d="M531.19,-21.74C601.13,-28.74 711.29,-41.9 805,-62.5 849.49,-72.28 859.89,-77.8 903,-92.5 912.94,-95.89 923.58,-99.77 933.47,-103.49"/>
<polygon fill="midnightblue" stroke="midnightblue" points="531.47,-18.25 521.17,-20.75 530.78,-25.22 531.47,-18.25"/>
</g>
<!-- Node9 -->
<g id="node9" class="node">
<title>Node9</title>
<g id="a_node9"><a xlink:href="classsensesp_1_1_observable.html" target="_top" xlink:title="A base class which allow observers to attach callbacks to themselves. The callbacks will be called wh...">
<polygon fill="white" stroke="black" points="0,-19 0,-38 109,-38 109,-19 0,-19"/>
<text text-anchor="middle" x="54.5" y="-26" font-family="Helvetica,sans-Serif" font-size="10.00">sensesp::Observable</text>
</a>
</g>
</g>
<!-- Node9&#45;&gt;Node8 -->
<g id="edge8" class="edge">
<title>Node9&#45;&gt;Node8</title>
<path fill="none" stroke="midnightblue" d="M102.12,-16.79C116.13,-13.79 131.61,-10.99 146,-9.5 233.58,-0.41 335.66,-5.22 398.81,-9.99"/>
<polygon fill="midnightblue" stroke="midnightblue" points="101.22,-13.4 92.21,-18.99 102.73,-20.24 101.22,-13.4"/>
</g>
<!-- Node10 -->
<g id="node10" class="node">
<title>Node10</title>
<g id="a_node10"><a xlink:href="classsensesp_1_1_value_producer.html" target="_top" xlink:title="A base class for any sensor or piece of code that outputs a value for consumption elsewhere.">
<polygon fill="white" stroke="black" points="149,-19 149,-38 295,-38 295,-19 149,-19"/>
<text text-anchor="middle" x="222" y="-26" font-family="Helvetica,sans-Serif" font-size="10.00">sensesp::ValueProducer&lt; T &gt;</text>
</a>
</g>
</g>
<!-- Node9&#45;&gt;Node10 -->
<g id="edge10" class="edge">
<title>Node9&#45;&gt;Node10</title>
<path fill="none" stroke="midnightblue" d="M119.5,-28.5C129.12,-28.5 139.1,-28.5 148.87,-28.5"/>
<polygon fill="midnightblue" stroke="midnightblue" points="119.23,-25 109.23,-28.5 119.23,-32 119.23,-25"/>
</g>
<!-- Node13 -->
<g id="node13" class="node">
<title>Node13</title>
<g id="a_node13"><a xlink:href="classsensesp_1_1_value_producer.html" target="_top" xlink:title=" ">
<polygon fill="white" stroke="black" points="386.5,-57 386.5,-76 533.5,-76 533.5,-57 386.5,-57"/>
<text text-anchor="middle" x="460" y="-64" font-family="Helvetica,sans-Serif" font-size="10.00">sensesp::ValueProducer&lt; P &gt;</text>
</a>
</g>
</g>
<!-- Node9&#45;&gt;Node13 -->
<g id="edge16" class="edge">
<title>Node9&#45;&gt;Node13</title>
<path fill="none" stroke="midnightblue" d="M106.01,-40.27C118.98,-42.97 132.96,-45.6 146,-47.5 227.75,-59.4 322.56,-63.87 386.23,-65.53"/>
<polygon fill="midnightblue" stroke="midnightblue" points="106.36,-36.76 95.85,-38.1 104.9,-43.61 106.36,-36.76"/>
</g>
<!-- Node10&#45;&gt;Node8 -->
<g id="edge9" class="edge">
<title>Node10&#45;&gt;Node8</title>
<path fill="none" stroke="orange" stroke-dasharray="5,2" d="M299.18,-17.91C304.87,-17.35 310.52,-16.87 316,-16.5 343.12,-14.66 373.21,-14.21 398.75,-14.3"/>
<polygon fill="orange" stroke="orange" points="298.53,-14.46 288.95,-18.99 299.26,-21.42 298.53,-14.46"/>
<text text-anchor="middle" x="340.5" y="-19.5" font-family="Helvetica,sans-Serif" font-size="10.00"> &lt; String &gt;</text>
</g>
<!-- Node10&#45;&gt;Node13 -->
<g id="edge17" class="edge">
<title>Node10&#45;&gt;Node13</title>
<path fill="none" stroke="orange" stroke-dasharray="5,2" d="M295.96,-39.59C318.14,-43.02 342.58,-46.86 365,-50.5 377.58,-52.55 391.1,-54.81 403.85,-56.97"/>
<polygon fill="orange" stroke="orange" points="296.36,-36.11 285.94,-38.05 295.29,-43.03 296.36,-36.11"/>
<text text-anchor="middle" x="340.5" y="-53.5" font-family="Helvetica,sans-Serif" font-size="10.00"> &lt; P &gt;</text>
</g>
<!-- Node11&#45;&gt;Node2 -->
<g id="edge11" class="edge">
<title>Node11&#45;&gt;Node2</title>
<path fill="none" stroke="orange" stroke-dasharray="5,2" d="M815.18,-94.67C842.15,-97.99 874.19,-102.16 903,-106.5 908.77,-107.37 914.8,-108.33 920.8,-109.33"/>
<polygon fill="orange" stroke="orange" points="815.46,-91.18 805.11,-93.44 814.61,-98.12 815.46,-91.18"/>
<text text-anchor="middle" x="863" y="-109.5" font-family="Helvetica,sans-Serif" font-size="10.00"> &lt; time_t, String &gt;</text>
</g>
<!-- Node12&#45;&gt;Node11 -->
<g id="edge13" class="edge">
<title>Node12&#45;&gt;Node11</title>
<path fill="none" stroke="midnightblue" d="M547.22,-99.46C597.12,-96.55 658.23,-92.98 700.65,-90.5"/>
<polygon fill="midnightblue" stroke="midnightblue" points="546.86,-95.98 537.08,-100.06 547.26,-102.97 546.86,-95.98"/>
</g>
<!-- Node13&#45;&gt;Node11 -->
<g id="edge15" class="edge">
<title>Node13&#45;&gt;Node11</title>
<path fill="none" stroke="midnightblue" d="M543.94,-72.49C594.47,-76.13 657.44,-80.68 700.79,-83.8"/>
<polygon fill="midnightblue" stroke="midnightblue" points="543.91,-68.97 533.68,-71.75 543.4,-75.96 543.91,-68.97"/>
</g>
</g>
</svg>
