<?xml version="1.0" encoding="UTF-8" standalone="no"?>
<!DOCTYPE svg PUBLIC "-//W3C//DTD SVG 1.1//EN"
 "http://www.w3.org/Graphics/SVG/1.1/DTD/svg11.dtd">
<!-- Generated by graphviz version 2.44.1 (20200629.0846)
 -->
<!-- Title: Networking::setup_saved_ssid Pages: 1 -->
<svg width="634pt" height="106pt"
 viewBox="0.00 0.00 634.00 106.18" xmlns="http://www.w3.org/2000/svg" xmlns:xlink="http://www.w3.org/1999/xlink">
<g id="graph0" class="graph" transform="scale(1 1) rotate(0) translate(4 102.18)">
<title>Networking::setup_saved_ssid</title>
<polygon fill="white" stroke="transparent" points="-4,4 -4,-102.18 630,-102.18 630,4 -4,4"/>
<!-- Node1 -->
<g id="node1" class="node">
<title>Node1</title>
<g id="a_node1"><a xlink:title=" ">
<polygon fill="#bfbfbf" stroke="black" points="0,-77 0,-96 151,-96 151,-77 0,-77"/>
<text text-anchor="middle" x="75.5" y="-84" font-family="Helvetica,sans-Serif" font-size="10.00">Networking::setup_saved_ssid</text>
</a>
</g>
</g>
<!-- Node2 -->
<g id="node2" class="node">
<title>Node2</title>
<g id="a_node2"><a xlink:href="class_value_producer.html#a461623f7438c5048c224d71d06dfac4b" target="_top" xlink:title=" ">
<polygon fill="white" stroke="black" points="497,-49.5 497,-79.5 626,-79.5 626,-49.5 497,-49.5"/>
<text text-anchor="start" x="505" y="-67.5" font-family="Helvetica,sans-Serif" font-size="10.00">ValueProducer&lt; WifiState</text>
<text text-anchor="middle" x="561.5" y="-56.5" font-family="Helvetica,sans-Serif" font-size="10.00"> &gt;::emit</text>
</a>
</g>
</g>
<!-- Node1&#45;&gt;Node2 -->
<g id="edge1" class="edge">
<title>Node1&#45;&gt;Node2</title>
<path fill="none" stroke="midnightblue" d="M151.26,-92.84C228.98,-98.08 354.01,-102.74 461,-89.5 474.1,-87.88 487.95,-85.1 501.03,-81.97"/>
<polygon fill="midnightblue" stroke="midnightblue" points="501.99,-85.34 510.85,-79.53 500.3,-78.55 501.99,-85.34"/>
</g>
<!-- Node3 -->
<g id="node3" class="node">
<title>Node3</title>
<g id="a_node3"><a xlink:href="class_networking.html#ad490cf0e51f5f285917e5421bbda3c6e" target="_top" xlink:title=" ">
<polygon fill="white" stroke="black" points="187,-49.5 187,-79.5 303,-79.5 303,-49.5 187,-49.5"/>
<text text-anchor="start" x="195" y="-67.5" font-family="Helvetica,sans-Serif" font-size="10.00">Networking::setup_wifi</text>
<text text-anchor="middle" x="245" y="-56.5" font-family="Helvetica,sans-Serif" font-size="10.00">_callbacks</text>
</a>
</g>
</g>
<!-- Node1&#45;&gt;Node3 -->
<g id="edge2" class="edge">
<title>Node1&#45;&gt;Node3</title>
<path fill="none" stroke="midnightblue" d="M148.99,-76.98C158.18,-75.77 167.55,-74.54 176.65,-73.35"/>
<polygon fill="midnightblue" stroke="midnightblue" points="177.33,-76.79 186.79,-72.01 176.42,-69.85 177.33,-76.79"/>
</g>
<!-- Node4 -->
<g id="node4" class="node">
<title>Node4</title>
<g id="a_node4"><a xlink:href="class_networking.html#a6d07c9b3acdfef3755e5ecf3a3fbd1cb" target="_top" xlink:title=" ">
<polygon fill="white" stroke="black" points="339,-49.5 339,-79.5 461,-79.5 461,-49.5 339,-49.5"/>
<text text-anchor="start" x="347" y="-67.5" font-family="Helvetica,sans-Serif" font-size="10.00">Networking::wifi_station</text>
<text text-anchor="middle" x="400" y="-56.5" font-family="Helvetica,sans-Serif" font-size="10.00">_connected</text>
</a>
</g>
</g>
<!-- Node3&#45;&gt;Node4 -->
<g id="edge3" class="edge">
<title>Node3&#45;&gt;Node4</title>
<path fill="none" stroke="midnightblue" d="M303.41,-64.5C311.67,-64.5 320.24,-64.5 328.72,-64.5"/>
<polygon fill="midnightblue" stroke="midnightblue" points="328.97,-68 338.97,-64.5 328.97,-61 328.97,-68"/>
</g>
<!-- Node5 -->
<g id="node5" class="node">
<title>Node5</title>
<g id="a_node5"><a xlink:href="class_networking.html#ad099c3f937d89fe5aebe94dd40d49da1" target="_top" xlink:title=" ">
<polygon fill="white" stroke="black" points="339,-0.5 339,-30.5 461,-30.5 461,-0.5 339,-0.5"/>
<text text-anchor="start" x="347" y="-18.5" font-family="Helvetica,sans-Serif" font-size="10.00">Networking::wifi_station</text>
<text text-anchor="middle" x="400" y="-7.5" font-family="Helvetica,sans-Serif" font-size="10.00">_disconnected</text>
</a>
</g>
</g>
<!-- Node3&#45;&gt;Node5 -->
<g id="edge5" class="edge">
<title>Node3&#45;&gt;Node5</title>
<path fill="none" stroke="midnightblue" d="M293.15,-49.4C308.64,-44.44 326.02,-38.87 342.15,-33.71"/>
<polygon fill="midnightblue" stroke="midnightblue" points="343.55,-36.93 352,-30.55 341.41,-30.27 343.55,-36.93"/>
</g>
<!-- Node4&#45;&gt;Node2 -->
<g id="edge4" class="edge">
<title>Node4&#45;&gt;Node2</title>
<path fill="none" stroke="midnightblue" d="M461.3,-64.5C469.67,-64.5 478.34,-64.5 486.92,-64.5"/>
<polygon fill="midnightblue" stroke="midnightblue" points="486.92,-68 496.92,-64.5 486.92,-61 486.92,-68"/>
</g>
<!-- Node5&#45;&gt;Node2 -->
<g id="edge6" class="edge">
<title>Node5&#45;&gt;Node2</title>
<path fill="none" stroke="midnightblue" d="M450.16,-30.6C466.45,-35.61 484.76,-41.23 501.71,-46.44"/>
<polygon fill="midnightblue" stroke="midnightblue" points="500.92,-49.86 511.51,-49.45 502.97,-43.17 500.92,-49.86"/>
</g>
</g>
</svg>
