<?xml version="1.0" encoding="UTF-8" standalone="no"?>
<!DOCTYPE svg PUBLIC "-//W3C//DTD SVG 1.1//EN"
 "http://www.w3.org/Graphics/SVG/1.1/DTD/svg11.dtd">
<!-- Generated by graphviz version 12.0.0 (20240704.0754)
 -->
<!-- Title: sensesp::ClickType::on_button_press Pages: 1 -->
<svg width="698pt" height="109pt"
 viewBox="0.00 0.00 697.75 108.50" xmlns="http://www.w3.org/2000/svg" xmlns:xlink="http://www.w3.org/1999/xlink">
<g id="graph0" class="graph" transform="scale(1 1) rotate(0) translate(4 104.5)">
<title>sensesp::ClickType::on_button_press</title>
<!-- Node1 -->
<g id="Node000001" class="node">
<title>Node1</title>
<g id="a_Node000001"><a xlink:title="Processes incoming values that represent a &quot;ButonPress&quot; event.">
<polygon fill="#999999" stroke="#666666" points="102.25,-100.5 0,-100.5 0,-70 102.25,-70 102.25,-100.5"/>
<text text-anchor="start" x="8" y="-87" font-family="Helvetica,sans-Serif" font-size="10.00">sensesp::ClickType</text>
<text text-anchor="middle" x="51.12" y="-75.75" font-family="Helvetica,sans-Serif" font-size="10.00">::on_button_press</text>
</a>
</g>
</g>
<!-- Node2 -->
<g id="Node000002" class="node">
<title>Node2</title>
<g id="a_Node000002"><a xlink:href="classsensesp_1_1_value_producer.html#a4f5f0259d0d3cd9a0ed17d657cac04e2" target="_top" xlink:title=" ">
<polygon fill="white" stroke="#666666" points="545.5,-100.5 423.75,-100.5 423.75,-70 545.5,-70 545.5,-100.5"/>
<text text-anchor="start" x="431.75" y="-87" font-family="Helvetica,sans-Serif" font-size="10.00">sensesp::ValueProducer</text>
<text text-anchor="middle" x="484.62" y="-75.75" font-family="Helvetica,sans-Serif" font-size="10.00">::emit</text>
</a>
</g>
</g>
<!-- Node1&#45;&gt;Node2 -->
<g id="edge1_Node000001_Node000002" class="edge">
<title>Node1&#45;&gt;Node2</title>
<g id="a_edge1_Node000001_Node000002"><a xlink:title=" ">
<path fill="none" stroke="#63b8ff" d="M102.67,-87.3C114.35,-87.7 126.73,-88.05 138.25,-88.25 249.12,-90.18 276.87,-89.98 387.75,-88.25 395.56,-88.13 403.72,-87.95 411.85,-87.74"/>
<polygon fill="#63b8ff" stroke="#63b8ff" points="411.87,-91.24 421.77,-87.47 411.68,-84.24 411.87,-91.24"/>
</a>
</g>
</g>
<!-- Node4 -->
<g id="Node000004" class="node">
<title>Node4</title>
<g id="a_Node000004"><a xlink:href="classsensesp_1_1_click_type.html#a7cef6ec74f8d73633853e560a3872e3a" target="_top" xlink:title=" ">
<polygon fill="white" stroke="#666666" points="243.5,-79.5 138.25,-79.5 138.25,-49 243.5,-49 243.5,-79.5"/>
<text text-anchor="start" x="146.25" y="-66" font-family="Helvetica,sans-Serif" font-size="10.00">sensesp::ClickType</text>
<text text-anchor="middle" x="190.88" y="-54.75" font-family="Helvetica,sans-Serif" font-size="10.00">::on_ultra_long_click</text>
</a>
</g>
</g>
<!-- Node1&#45;&gt;Node4 -->
<g id="edge3_Node000001_Node000004" class="edge">
<title>Node1&#45;&gt;Node4</title>
<g id="a_edge3_Node000001_Node000004"><a xlink:title=" ">
<path fill="none" stroke="#63b8ff" d="M102.64,-77.55C110.46,-76.36 118.63,-75.11 126.7,-73.88"/>
<polygon fill="#63b8ff" stroke="#63b8ff" points="127.13,-77.36 136.49,-72.39 126.08,-70.44 127.13,-77.36"/>
</a>
</g>
</g>
<!-- Node3 -->
<g id="Node000003" class="node">
<title>Node3</title>
<g id="a_Node000003"><a xlink:href="classsensesp_1_1_observable.html#ab86d00fed8fb85b4c76cb9397667ece9" target="_top" xlink:title=" ">
<polygon fill="white" stroke="#666666" points="689.75,-100.5 581.5,-100.5 581.5,-70 689.75,-70 689.75,-100.5"/>
<text text-anchor="start" x="589.5" y="-87" font-family="Helvetica,sans-Serif" font-size="10.00">sensesp::Observable</text>
<text text-anchor="middle" x="635.62" y="-75.75" font-family="Helvetica,sans-Serif" font-size="10.00">::notify</text>
</a>
</g>
</g>
<!-- Node2&#45;&gt;Node3 -->
<g id="edge2_Node000002_Node000003" class="edge">
<title>Node2&#45;&gt;Node3</title>
<g id="a_edge2_Node000002_Node000003"><a xlink:title=" ">
<path fill="none" stroke="#63b8ff" d="M545.8,-85.25C553.81,-85.25 562.06,-85.25 570.14,-85.25"/>
<polygon fill="#63b8ff" stroke="#63b8ff" points="569.91,-88.75 579.91,-85.25 569.91,-81.75 569.91,-88.75"/>
</a>
</g>
</g>
<!-- Node5 -->
<g id="Node000005" class="node">
<title>Node5</title>
<g id="a_Node000005"><a xlink:href="classsensesp_1_1_click_type.html#a1c109241a50f371960a333abc3ead21a" target="_top" xlink:title=" ">
<polygon fill="white" stroke="#666666" points="384.75,-79.5 282.5,-79.5 282.5,-49 384.75,-49 384.75,-79.5"/>
<text text-anchor="start" x="290.5" y="-66" font-family="Helvetica,sans-Serif" font-size="10.00">sensesp::ClickType</text>
<text text-anchor="middle" x="333.62" y="-54.75" font-family="Helvetica,sans-Serif" font-size="10.00">::emitDelayed</text>
</a>
</g>
</g>
<!-- Node4&#45;&gt;Node5 -->
<g id="edge4_Node000004_Node000005" class="edge">
<title>Node4&#45;&gt;Node5</title>
<g id="a_edge4_Node000004_Node000005"><a xlink:title=" ">
<path fill="none" stroke="#63b8ff" d="M243.89,-64.25C252.7,-64.25 261.92,-64.25 270.95,-64.25"/>
<polygon fill="#63b8ff" stroke="#63b8ff" points="270.72,-67.75 280.72,-64.25 270.72,-60.75 270.72,-67.75"/>
</a>
</g>
</g>
<!-- Node6 -->
<g id="Node000006" class="node">
<title>Node6</title>
<g id="a_Node000006"><a xlink:href="classsensesp_1_1_click_type.html#aec294bafe9a6cb81599f6dfe84eafcf3" target="_top" xlink:title=" ">
<polygon fill="white" stroke="#666666" points="387.75,-30.5 279.5,-30.5 279.5,0 387.75,0 387.75,-30.5"/>
<text text-anchor="start" x="287.5" y="-17" font-family="Helvetica,sans-Serif" font-size="10.00">sensesp::ClickType</text>
<text text-anchor="middle" x="333.62" y="-5.75" font-family="Helvetica,sans-Serif" font-size="10.00">::on_click_completed</text>
</a>
</g>
</g>
<!-- Node4&#45;&gt;Node6 -->
<g id="edge6_Node000004_Node000006" class="edge">
<title>Node4&#45;&gt;Node6</title>
<g id="a_edge6_Node000004_Node000006"><a xlink:title=" ">
<path fill="none" stroke="#63b8ff" d="M236.8,-48.61C249.62,-44.15 263.75,-39.23 277.12,-34.57"/>
<polygon fill="#63b8ff" stroke="#63b8ff" points="277.93,-38 286.22,-31.41 275.62,-31.39 277.93,-38"/>
</a>
</g>
</g>
<!-- Node5&#45;&gt;Node2 -->
<g id="edge5_Node000005_Node000002" class="edge">
<title>Node5&#45;&gt;Node2</title>
<g id="a_edge5_Node000005_Node000002"><a xlink:title=" ">
<path fill="none" stroke="#63b8ff" d="M385.07,-71.36C393.83,-72.59 403.09,-73.9 412.29,-75.2"/>
<polygon fill="#63b8ff" stroke="#63b8ff" points="411.55,-78.63 421.94,-76.56 412.52,-71.69 411.55,-78.63"/>
</a>
</g>
</g>
</g>
</svg>
