<?xml version="1.0" encoding="UTF-8" standalone="no"?>
<!DOCTYPE svg PUBLIC "-//W3C//DTD SVG 1.1//EN"
 "http://www.w3.org/Graphics/SVG/1.1/DTD/svg11.dtd">
<!-- Generated by graphviz version 13.0.0 (20250608.1624)
 -->
<!-- Title: sensesp::DigitalInputState::DigitalInputState Pages: 1 -->
<!--zoomable 244 -->

<svg id="main" version="1.1" xmlns="http://www.w3.org/2000/svg" xmlns:xlink="http://www.w3.org/1999/xlink" xml:space="preserve" onload="init(evt)">

<style type="text/css"><![CDATA[
.node, .edge {opacity: 0.7;}
.node.selected, .edge.selected {opacity: 1;}
.edge:hover path { stroke: red; }
.edge:hover polygon { stroke: red; fill: red; }
]]></style>

<defs>
  <circle id="rim" cx="0" cy="0" r="7"/>
  <circle id="rim2" cx="0" cy="0" r="3.5"/>
  <g id="zoomPlus">
    <use xlink:href="#rim" fill="#404040"><set attributeName="fill" to="#808080" begin="zoomplus.mouseover" end="zoomplus.mouseout"/></use>
    <path d="M-4,0h8M0,-4v8" fill="none" stroke="white" stroke-width="1.5" pointer-events="none"/>
  </g>
  <g id="zoomMin">
    <use xlink:href="#rim" fill="#404040"><set attributeName="fill" to="#808080" begin="zoomminus.mouseover" end="zoomminus.mouseout"/></use>
    <path d="M-4,0h8" fill="none" stroke="white" stroke-width="1.5" pointer-events="none"/>
  </g>
  <g id="arrowUp" transform="translate(30 24)">
    <use xlink:href="#rim"/>
    <path pointer-events="none" fill="none" stroke="white" stroke-width="1.5" d="M0,-3.0v7 M-2.5,-0.5L0,-3.0L2.5,-0.5"/>
  </g>
  <g id="arrowRight" transform="rotate(90) translate(36 -43)">
    <use xlink:href="#rim"/>
    <path pointer-events="none" fill="none" stroke="white" stroke-width="1.5" d="M0,-3.0v7 M-2.5,-0.5L0,-3.0L2.5,-0.5"/>
  </g>
  <g id="arrowDown" transform="rotate(180) translate(-30 -48)">
    <use xlink:href="#rim"/>
    <path pointer-events="none" fill="none" stroke="white" stroke-width="1.5" d="M0,-3.0v7 M-2.5,-0.5L0,-3.0L2.5,-0.5"/>
  </g>
  <g id="arrowLeft" transform="rotate(270) translate(-36 17)">
    <use xlink:href="#rim"/>
    <path pointer-events="none" fill="none" stroke="white" stroke-width="1.5" d="M0,-3.0v7 M-2.5,-0.5L0,-3.0L2.5,-0.5"/>
  </g>
  <g id="resetDef">
    <use xlink:href="#rim2" fill="#404040"><set attributeName="fill" to="#808080" begin="reset.mouseover" end="reset.mouseout"/></use>
  </g>
</defs>
<script type="application/ecmascript">
var viewWidth = 823;
var viewHeight = 244;
var sectionId = 'dynsection-1';
</script>
<script type="application/ecmascript" xlink:href="svg.min.js"/>
<svg id="graph" class="graph">
<g id="viewport">
<title>sensesp::DigitalInputState::DigitalInputState</title>
<!-- Node1 -->
<g id="Node000001" class="node">
<title>Node1</title>
<g id="a_Node000001"><a xlink:title=" ">
<polygon fill="#999999" stroke="#666666" points="131.5,-143.5 0,-143.5 0,-113 131.5,-113 131.5,-143.5"/>
<text xml:space="preserve" text-anchor="start" x="8" y="-130" font-family="Helvetica,sans-Serif" font-size="10.00">sensesp::DigitalInputState</text>
<text xml:space="preserve" text-anchor="middle" x="65.75" y="-118.75" font-family="Helvetica,sans-Serif" font-size="10.00">::DigitalInputState</text>
</a>
</g>
</g>
<!-- Node2 -->
<g id="Node000002" class="node">
<title>Node2</title>
<g id="a_Node000002"><a xlink:href="classsensesp_1_1_digital_input.html#a95fa64f075a2fd8c82d43c87999fa3dc" target="_top" xlink:title=" ">
<polygon fill="white" stroke="#666666" points="296,-235.5 187.75,-235.5 187.75,-205 296,-205 296,-235.5"/>
<text xml:space="preserve" text-anchor="start" x="195.75" y="-222" font-family="Helvetica,sans-Serif" font-size="10.00">sensesp::DigitalInput</text>
<text xml:space="preserve" text-anchor="middle" x="241.88" y="-210.75" font-family="Helvetica,sans-Serif" font-size="10.00">::DigitalInput</text>
</a>
</g>
</g>
<!-- Node1&#45;&gt;Node2 -->
<g id="edge1_Node000001_Node000002" class="edge">
<title>Node1&#45;&gt;Node2</title>
<g id="a_edge1_Node000001_Node000002"><a xlink:title=" ">
<path fill="none" stroke="#63b8ff" d="M86.65,-143.74C106.33,-158.5 137.73,-180.59 167.5,-195.25 171.16,-197.05 174.97,-198.77 178.86,-200.42"/>
<polygon fill="#63b8ff" stroke="#63b8ff" points="177.28,-203.55 187.86,-204 179.87,-197.05 177.28,-203.55"/>
</a>
</g>
</g>
<!-- Node3 -->
<g id="Node000003" class="node">
<title>Node3</title>
<g id="a_Node000003"><a xlink:href="classsensesp_1_1_value_producer.html#a4f5f0259d0d3cd9a0ed17d657cac04e2" target="_top" xlink:title=" ">
<polygon fill="white" stroke="#666666" points="302.75,-186.5 181,-186.5 181,-156 302.75,-156 302.75,-186.5"/>
<text xml:space="preserve" text-anchor="start" x="189" y="-173" font-family="Helvetica,sans-Serif" font-size="10.00">sensesp::ValueProducer</text>
<text xml:space="preserve" text-anchor="middle" x="241.88" y="-161.75" font-family="Helvetica,sans-Serif" font-size="10.00">&lt; bool &gt;::emit</text>
</a>
</g>
</g>
<!-- Node1&#45;&gt;Node3 -->
<g id="edge2_Node000001_Node000003" class="edge">
<title>Node1&#45;&gt;Node3</title>
<g id="a_edge2_Node000001_Node000003"><a xlink:title=" ">
<path fill="none" stroke="#63b8ff" d="M130.11,-143.9C143.02,-147.08 156.69,-150.46 169.85,-153.71"/>
<polygon fill="#63b8ff" stroke="#63b8ff" points="168.74,-157.04 179.29,-156.04 170.42,-150.25 168.74,-157.04"/>
</a>
</g>
</g>
<!-- Node4 -->
<g id="Node000004" class="node">
<title>Node4</title>
<g id="a_Node000004"><a xlink:href="namespacesensesp.html#a1c1105507d71491cf4e0505eaabb2e49" target="_top" xlink:title=" ">
<polygon fill="white" stroke="#666666" points="294.88,-137.88 188.88,-137.88 188.88,-118.62 294.88,-118.62 294.88,-137.88"/>
<text xml:space="preserve" text-anchor="middle" x="241.88" y="-124.38" font-family="Helvetica,sans-Serif" font-size="10.00">sensesp::event_loop</text>
</a>
</g>
</g>
<!-- Node1&#45;&gt;Node4 -->
<g id="edge3_Node000001_Node000004" class="edge">
<title>Node1&#45;&gt;Node4</title>
<g id="a_edge3_Node000001_Node000004"><a xlink:title=" ">
<path fill="none" stroke="#63b8ff" d="M131.59,-128.25C146.54,-128.25 162.42,-128.25 177.31,-128.25"/>
<polygon fill="#63b8ff" stroke="#63b8ff" points="176.96,-131.75 186.96,-128.25 176.96,-124.75 176.96,-131.75"/>
</a>
</g>
</g>
<!-- Node7 -->
<g id="Node000007" class="node">
<title>Node7</title>
<g id="a_Node000007"><a xlink:href="classsensesp_1_1_file_system_saveable.html#a79b2e2e657112851dfda8785d217578a" target="_top" xlink:title="Load and populate the object from a persistent storage.">
<polygon fill="white" stroke="#666666" points="316.25,-100.5 167.5,-100.5 167.5,-70 316.25,-70 316.25,-100.5"/>
<text xml:space="preserve" text-anchor="start" x="175.5" y="-87" font-family="Helvetica,sans-Serif" font-size="10.00">sensesp::FileSystemSaveable</text>
<text xml:space="preserve" text-anchor="middle" x="241.88" y="-75.75" font-family="Helvetica,sans-Serif" font-size="10.00">::load</text>
</a>
</g>
</g>
<!-- Node1&#45;&gt;Node7 -->
<g id="edge6_Node000001_Node000007" class="edge">
<title>Node1&#45;&gt;Node7</title>
<g id="a_edge6_Node000001_Node000007"><a xlink:title=" ">
<path fill="none" stroke="#63b8ff" d="M130.11,-112.6C141.87,-109.7 154.26,-106.64 166.32,-103.66"/>
<polygon fill="#63b8ff" stroke="#63b8ff" points="166.94,-107.11 175.81,-101.32 165.26,-100.32 166.94,-107.11"/>
</a>
</g>
</g>
<!-- Node12 -->
<g id="Node000012" class="node">
<title>Node12</title>
<g id="a_Node000012"><a xlink:href="classsensesp_1_1_sensor.html#a837f5d9603388daaca04d78eaedd5d64" target="_top" xlink:title=" ">
<polygon fill="white" stroke="#666666" points="300.12,-51.5 183.62,-51.5 183.62,-21 300.12,-21 300.12,-51.5"/>
<text xml:space="preserve" text-anchor="start" x="191.62" y="-38" font-family="Helvetica,sans-Serif" font-size="10.00">sensesp::Sensor&lt; bool</text>
<text xml:space="preserve" text-anchor="middle" x="241.88" y="-26.75" font-family="Helvetica,sans-Serif" font-size="10.00"> &gt;::Sensor</text>
</a>
</g>
</g>
<!-- Node1&#45;&gt;Node12 -->
<g id="edge12_Node000001_Node000012" class="edge">
<title>Node1&#45;&gt;Node12</title>
<g id="a_edge12_Node000001_Node000012"><a xlink:title=" ">
<path fill="none" stroke="#63b8ff" d="M86.65,-112.76C106.33,-98 137.73,-75.91 167.5,-61.25 171.16,-59.45 174.97,-57.73 178.86,-56.08"/>
<polygon fill="#63b8ff" stroke="#63b8ff" points="179.87,-59.45 187.86,-52.5 177.28,-52.95 179.87,-59.45"/>
</a>
</g>
</g>
<!-- Node5 -->
<g id="Node000005" class="node">
<title>Node5</title>
<g id="a_Node000005"><a xlink:href="classsensesp_1_1_sens_e_s_p_base_app.html#a28c20eed17bfc460e6686a11c5b3b107" target="_top" xlink:title="Get the event loop object from the singleton SensESPBaseApp instance.">
<polygon fill="white" stroke="#666666" points="497.25,-165.5 356,-165.5 356,-135 497.25,-135 497.25,-165.5"/>
<text xml:space="preserve" text-anchor="start" x="364" y="-152" font-family="Helvetica,sans-Serif" font-size="10.00">sensesp::SensESPBaseApp</text>
<text xml:space="preserve" text-anchor="middle" x="426.62" y="-140.75" font-family="Helvetica,sans-Serif" font-size="10.00">::get_event_loop</text>
</a>
</g>
</g>
<!-- Node4&#45;&gt;Node5 -->
<g id="edge4_Node000004_Node000005" class="edge">
<title>Node4&#45;&gt;Node5</title>
<g id="a_edge4_Node000004_Node000005"><a xlink:title=" ">
<path fill="none" stroke="#63b8ff" d="M295.24,-134.55C310.5,-136.39 327.54,-138.44 344.14,-140.44"/>
<polygon fill="#63b8ff" stroke="#63b8ff" points="343.68,-143.91 354.03,-141.63 344.52,-136.96 343.68,-143.91"/>
</a>
</g>
</g>
<!-- Node6 -->
<g id="Node000006" class="node">
<title>Node6</title>
<g id="a_Node000006"><a xlink:href="classsensesp_1_1_sens_e_s_p_base_app.html#add2c67bb55d095ab9c64f44ab2e82612" target="_top" xlink:title="Get the singleton instance of the SensESPBaseApp.">
<polygon fill="white" stroke="#666666" points="697.75,-159.88 537,-159.88 537,-140.62 697.75,-140.62 697.75,-159.88"/>
<text xml:space="preserve" text-anchor="middle" x="617.38" y="-146.38" font-family="Helvetica,sans-Serif" font-size="10.00">sensesp::SensESPBaseApp::get</text>
</a>
</g>
</g>
<!-- Node5&#45;&gt;Node6 -->
<g id="edge5_Node000005_Node000006" class="edge">
<title>Node5&#45;&gt;Node6</title>
<g id="a_edge5_Node000005_Node000006"><a xlink:title=" ">
<path fill="none" stroke="#63b8ff" d="M497.64,-150.25C506.67,-150.25 516.01,-150.25 525.31,-150.25"/>
<polygon fill="#63b8ff" stroke="#63b8ff" points="525.1,-153.75 535.1,-150.25 525.1,-146.75 525.1,-153.75"/>
</a>
</g>
</g>
<!-- Node8 -->
<g id="Node000008" class="node">
<title>Node8</title>
<g id="a_Node000008"><a xlink:href="namespacesensesp.html#adad24461f43358c45017cf1cb816ca60" target="_top" xlink:title="A base64&#45;encoded SHA&#45;1 hash function.">
<polygon fill="white" stroke="#666666" points="674.5,-95.88 560.25,-95.88 560.25,-76.62 674.5,-76.62 674.5,-95.88"/>
<text xml:space="preserve" text-anchor="middle" x="617.38" y="-82.38" font-family="Helvetica,sans-Serif" font-size="10.00">sensesp::Base64Sha1</text>
</a>
</g>
</g>
<!-- Node7&#45;&gt;Node8 -->
<g id="edge7_Node000007_Node000008" class="edge">
<title>Node7&#45;&gt;Node8</title>
<g id="a_edge7_Node000007_Node000008"><a xlink:title=" ">
<path fill="none" stroke="#63b8ff" d="M316.71,-87.55C328.59,-87.84 340.76,-88.09 352.25,-88.25 418.35,-89.16 434.89,-88.82 501,-88.25 516.48,-88.12 533.12,-87.88 548.81,-87.62"/>
<polygon fill="#63b8ff" stroke="#63b8ff" points="548.59,-91.12 558.53,-87.45 548.47,-84.12 548.59,-91.12"/>
</a>
</g>
</g>
<!-- Node10 -->
<g id="Node000010" class="node">
<title>Node10</title>
<g id="a_Node000010"><a xlink:href="classsensesp_1_1_file_system_saveable.html#ad0233f7895b5c8915108399420c7cf0b" target="_top" xlink:title=" ">
<polygon fill="white" stroke="#666666" points="501,-79.5 352.25,-79.5 352.25,-49 501,-49 501,-79.5"/>
<text xml:space="preserve" text-anchor="start" x="360.25" y="-66" font-family="Helvetica,sans-Serif" font-size="10.00">sensesp::FileSystemSaveable</text>
<text xml:space="preserve" text-anchor="middle" x="426.62" y="-54.75" font-family="Helvetica,sans-Serif" font-size="10.00">::find_config_file</text>
</a>
</g>
</g>
<!-- Node7&#45;&gt;Node10 -->
<g id="edge9_Node000007_Node000010" class="edge">
<title>Node7&#45;&gt;Node10</title>
<g id="a_edge9_Node000007_Node000010"><a xlink:title=" ">
<path fill="none" stroke="#63b8ff" d="M316.68,-76.77C324.56,-75.86 332.62,-74.94 340.61,-74.02"/>
<polygon fill="#63b8ff" stroke="#63b8ff" points="340.8,-77.52 350.34,-72.9 340,-70.57 340.8,-77.52"/>
</a>
</g>
</g>
<!-- Node11 -->
<g id="Node000011" class="node">
<title>Node11</title>
<g id="a_Node000011"><a xlink:href="classsensesp_1_1_serializable.html#a841233a82ef3a7fbcecd5a15b0df12d2" target="_top" xlink:title=" ">
<polygon fill="white" stroke="#666666" points="481.12,-30.5 372.12,-30.5 372.12,0 481.12,0 481.12,-30.5"/>
<text xml:space="preserve" text-anchor="start" x="380.12" y="-17" font-family="Helvetica,sans-Serif" font-size="10.00">sensesp::Serializable</text>
<text xml:space="preserve" text-anchor="middle" x="426.62" y="-5.75" font-family="Helvetica,sans-Serif" font-size="10.00">::from_json</text>
</a>
</g>
</g>
<!-- Node7&#45;&gt;Node11 -->
<g id="edge11_Node000007_Node000011" class="edge">
<title>Node7&#45;&gt;Node11</title>
<g id="a_edge11_Node000007_Node000011"><a xlink:title=" ">
<path fill="none" stroke="#63b8ff" d="M292.68,-69.63C300.65,-66.74 308.75,-63.58 316.25,-60.25 332.98,-52.82 335.52,-47.68 352.25,-40.25 356.47,-38.38 360.88,-36.56 365.35,-34.81"/>
<polygon fill="#63b8ff" stroke="#63b8ff" points="366.28,-38.2 374.41,-31.4 363.81,-31.65 366.28,-38.2"/>
</a>
</g>
</g>
<!-- Node9 -->
<g id="Node000009" class="node">
<title>Node9</title>
<g id="a_Node000009"><a xlink:href="namespacesensesp.html#a37dfeb5f75b7115464a9aa40473d69cf" target="_top" xlink:title="SHA&#45;1 hash function.">
<polygon fill="white" stroke="#666666" points="815,-95.88 733.75,-95.88 733.75,-76.62 815,-76.62 815,-95.88"/>
<text xml:space="preserve" text-anchor="middle" x="774.38" y="-82.38" font-family="Helvetica,sans-Serif" font-size="10.00">sensesp::Sha1</text>
</a>
</g>
</g>
<!-- Node8&#45;&gt;Node9 -->
<g id="edge8_Node000008_Node000009" class="edge">
<title>Node8&#45;&gt;Node9</title>
<g id="a_edge8_Node000008_Node000009"><a xlink:title=" ">
<path fill="none" stroke="#63b8ff" d="M674.77,-86.25C690.22,-86.25 706.89,-86.25 722.04,-86.25"/>
<polygon fill="#63b8ff" stroke="#63b8ff" points="721.77,-89.75 731.77,-86.25 721.77,-82.75 721.77,-89.75"/>
</a>
</g>
</g>
<!-- Node10&#45;&gt;Node8 -->
<g id="edge10_Node000010_Node000008" class="edge">
<title>Node10&#45;&gt;Node8</title>
<g id="a_edge10_Node000010_Node000008"><a xlink:title=" ">
<path fill="none" stroke="#63b8ff" d="M501.41,-72.85C517.05,-74.67 533.49,-76.59 548.88,-78.38"/>
<polygon fill="#63b8ff" stroke="#63b8ff" points="548.04,-81.81 558.38,-79.49 548.85,-74.86 548.04,-81.81"/>
</a>
</g>
</g>
</g>
</svg>

<g id="navigator" transform="translate(0 0)" fill="#404254">
  <rect fill="#f2f5e9" fill-opacity="0.5" stroke="#606060" stroke-width=".5" x="0" y="0" width="60" height="60"/>
  <use id="zoomplus" xlink:href="#zoomPlus" x="17" y="9" onmousedown="handleZoom(evt,'in')"/>
  <use id="zoomminus" xlink:href="#zoomMin" x="42" y="9" onmousedown="handleZoom(evt,'out')"/>
  <use id="reset" xlink:href="#resetDef" x="30" y="36" onmousedown="handleReset()"/>
   <use id="arrowup" xlink:href="#arrowUp" x="0" y="0" onmousedown="handlePan(0,-1)"/>
  <use id="arrowright" xlink:href="#arrowRight" x="0" y="0" onmousedown="handlePan(1,0)"/>
  <use id="arrowdown" xlink:href="#arrowDown" x="0" y="0" onmousedown="handlePan(0,1)"/>
  <use id="arrowleft" xlink:href="#arrowLeft" x="0" y="0" onmousedown="handlePan(-1,0)"/>
</g>
<svg viewBox="0 0 15 15" width="100%" height="30px" preserveAspectRatio="xMaxYMin meet">
 <g id="arrow_out" transform="scale(0.3 0.3)">
  <a xlink:href="classsensesp_1_1_digital_input_state_a323b536f360d477b94e10df4ebda9730_cgraph_org.svg" target="_base">
   <rect id="button" ry="5" rx="5" y="6" x="6" height="38" width="38"
        fill="#f2f5e9" fill-opacity="0.5" stroke="#606060" stroke-width="1.0"/>
   <path id="arrow"
     d="M 11.500037,31.436501 C 11.940474,20.09759 22.043105,11.32322 32.158766,21.979434 L 37.068811,17.246167 C 37.068811,17.246167 37.088388,32 37.088388,32 L 22.160133,31.978069 C 22.160133,31.978069 26.997745,27.140456 26.997745,27.140456 C 18.528582,18.264221 13.291696,25.230495 11.500037,31.436501 z"
     style="fill:#404040;"/>
  </a>
 </g>
</svg>

<style type='text/css'>
<![CDATA[
[data-mouse-over-selected='false'] { opacity: 0.7; }
[data-mouse-over-selected='true']  { opacity: 1.0; }
]]>
</style>
<script type="application/ecmascript"><![CDATA[
document.addEventListener('DOMContentLoaded', (event) => {
  highlightEdges();
  highlightAdjacentNodes();
});
]]></script>
</svg>
