<?xml version="1.0" encoding="UTF-8" standalone="no"?>
<!DOCTYPE svg PUBLIC "-//W3C//DTD SVG 1.1//EN"
 "http://www.w3.org/Graphics/SVG/1.1/DTD/svg11.dtd">
<!-- Generated by graphviz version 2.49.3 (20211023.0002)
 -->
<!-- Title: sensesp::SensESPMinimalApp::SensESPMinimalApp Pages: 1 -->
<svg width="587pt" height="39pt"
 viewBox="0.00 0.00 587.00 39.00" xmlns="http://www.w3.org/2000/svg" xmlns:xlink="http://www.w3.org/1999/xlink">
<g id="graph0" class="graph" transform="scale(1 1) rotate(0) translate(4 35)">
<title>sensesp::SensESPMinimalApp::SensESPMinimalApp</title>
<polygon fill="white" stroke="transparent" points="-4,4 -4,-35 583,-35 583,4 -4,4"/>
<!-- Node1 -->
<g id="node1" class="node">
<title>Node1</title>
<g id="a_node1"><a xlink:title=" ">
<polygon fill="#bfbfbf" stroke="black" points="425,-0.5 425,-30.5 579,-30.5 579,-0.5 425,-0.5"/>
<text text-anchor="start" x="433" y="-18.5" font-family="Helvetica,sans-Serif" font-size="10.00">sensesp::SensESPMinimalApp</text>
<text text-anchor="middle" x="502" y="-7.5" font-family="Helvetica,sans-Serif" font-size="10.00">::SensESPMinimalApp</text>
</a>
</g>
</g>
<!-- Node2 -->
<g id="node2" class="node">
<title>Node2</title>
<g id="a_node2"><a xlink:href="classsensesp_1_1_sens_e_s_p_minimal_app.html#aaafa8aabc67440894c9687866c7db186" target="_top" xlink:title="Get the singleton instance of the SensESPMinimalApp.">
<polygon fill="white" stroke="black" points="215,-6 215,-25 389,-25 389,-6 215,-6"/>
<text text-anchor="middle" x="302" y="-13" font-family="Helvetica,sans-Serif" font-size="10.00">sensesp::SensESPMinimalApp::get</text>
</a>
</g>
</g>
<!-- Node1&#45;&gt;Node2 -->
<g id="edge1" class="edge">
<title>Node1&#45;&gt;Node2</title>
<path fill="none" stroke="midnightblue" d="M414.53,-15.5C406.1,-15.5 397.55,-15.5 389.12,-15.5"/>
<polygon fill="midnightblue" stroke="midnightblue" points="414.73,-19 424.73,-15.5 414.73,-12 414.73,-19"/>
</g>
<!-- Node3 -->
<g id="node3" class="node">
<title>Node3</title>
<g id="a_node3"><a xlink:href="classsensesp_1_1_sens_e_s_p_minimal_app_builder.html#ae87b6bdf071764e9d81e669c90451ced" target="_top" xlink:title=" ">
<polygon fill="white" stroke="black" points="0,-0.5 0,-30.5 179,-30.5 179,-0.5 0,-0.5"/>
<text text-anchor="start" x="8" y="-18.5" font-family="Helvetica,sans-Serif" font-size="10.00">sensesp::SensESPMinimalApp</text>
<text text-anchor="middle" x="89.5" y="-7.5" font-family="Helvetica,sans-Serif" font-size="10.00">Builder::SensESPMinimalAppBuilder</text>
</a>
</g>
</g>
<!-- Node2&#45;&gt;Node3 -->
<g id="edge2" class="edge">
<title>Node2&#45;&gt;Node3</title>
<path fill="none" stroke="midnightblue" d="M204.57,-15.5C196.15,-15.5 187.67,-15.5 179.32,-15.5"/>
<polygon fill="midnightblue" stroke="midnightblue" points="204.77,-19 214.77,-15.5 204.77,-12 204.77,-19"/>
</g>
</g>
</svg>
