<?xml version="1.0" encoding="UTF-8" standalone="no"?>
<!DOCTYPE svg PUBLIC "-//W3C//DTD SVG 1.1//EN"
 "http://www.w3.org/Graphics/SVG/1.1/DTD/svg11.dtd">
<!-- Generated by graphviz version 2.49.3 (20211023.0002)
 -->
<!-- Title: ValueProducer::emit Pages: 1 -->
<svg width="745pt" height="952pt"
 viewBox="0.00 0.00 745.00 952.07" xmlns="http://www.w3.org/2000/svg" xmlns:xlink="http://www.w3.org/1999/xlink">
<g id="graph0" class="graph" transform="scale(1 1) rotate(0) translate(4 948.07)">
<title>ValueProducer::emit</title>
<polygon fill="white" stroke="transparent" points="-4,4 -4,-948.07 741,-948.07 741,4 -4,4"/>
<!-- Node1 -->
<g id="node1" class="node">
<title>Node1</title>
<g id="a_node1"><a xlink:title=" ">
<polygon fill="#bfbfbf" stroke="black" points="631,-437.5 631,-456.5 737,-456.5 737,-437.5 631,-437.5"/>
<text text-anchor="middle" x="684" y="-444.5" font-family="Helvetica,sans-Serif" font-size="10.00">ValueProducer::emit</text>
</a>
</g>
</g>
<!-- Node2 -->
<g id="node2" class="node">
<title>Node2</title>
<g id="a_node2"><a xlink:href="class_click_type.html#a10ec13ce9f2d693ed8c0063ea595ad91" target="_top" xlink:title=" ">
<polygon fill="white" stroke="black" points="469.5,-853.5 469.5,-872.5 590.5,-872.5 590.5,-853.5 469.5,-853.5"/>
<text text-anchor="middle" x="530" y="-860.5" font-family="Helvetica,sans-Serif" font-size="10.00">ClickType::emitDelayed</text>
</a>
</g>
</g>
<!-- Node1&#45;&gt;Node2 -->
<g id="edge1" class="edge">
<title>Node1&#45;&gt;Node2</title>
<path fill="none" stroke="midnightblue" d="M680.8,-466.72C672.6,-537.09 641.88,-774.83 595,-833 587.53,-842.27 576.53,-848.82 565.75,-853.38"/>
<polygon fill="midnightblue" stroke="midnightblue" points="684.3,-466.91 681.96,-456.58 677.34,-466.12 684.3,-466.91"/>
</g>
<!-- Node3 -->
<g id="node3" class="node">
<title>Node3</title>
<g id="a_node3"><a xlink:href="class_click_type.html#aa64de73fe0fb21580f5a9720701664d9" target="_top" xlink:title="Processes incoming value that represent a &quot;ButtonRelease&quot; event.">
<polygon fill="white" stroke="black" points="142,-892 142,-922 252,-922 252,-892 142,-892"/>
<text text-anchor="start" x="150" y="-910" font-family="Helvetica,sans-Serif" font-size="10.00">ClickType::on_button</text>
<text text-anchor="middle" x="197" y="-899" font-family="Helvetica,sans-Serif" font-size="10.00">_release</text>
</a>
</g>
</g>
<!-- Node1&#45;&gt;Node3 -->
<g id="edge14" class="edge">
<title>Node1&#45;&gt;Node3</title>
<path fill="none" stroke="midnightblue" d="M681.87,-467.2C677.11,-544.92 655.99,-823.3 595,-882 501.95,-971.55 333.01,-943.61 248.7,-922.05"/>
<polygon fill="midnightblue" stroke="midnightblue" points="685.39,-467.06 682.48,-456.87 678.4,-466.65 685.39,-467.06"/>
</g>
<!-- Node6 -->
<g id="node6" class="node">
<title>Node6</title>
<g id="a_node6"><a xlink:href="class_click_type.html#a9424a22ada921ea26cec9cfc777d8be9" target="_top" xlink:title="Processes incoming values that represent a &quot;ButonPress&quot; event.">
<polygon fill="white" stroke="black" points="142,-843 142,-873 252,-873 252,-843 142,-843"/>
<text text-anchor="start" x="150" y="-861" font-family="Helvetica,sans-Serif" font-size="10.00">ClickType::on_button</text>
<text text-anchor="middle" x="197" y="-850" font-family="Helvetica,sans-Serif" font-size="10.00">_press</text>
</a>
</g>
</g>
<!-- Node1&#45;&gt;Node6 -->
<g id="edge13" class="edge">
<title>Node1&#45;&gt;Node6</title>
<path fill="none" stroke="midnightblue" d="M680.96,-466.84C673.58,-534.53 645.99,-754.69 595,-800 543.59,-845.68 355.81,-827.55 288,-839 276.35,-840.97 263.91,-843.38 252.12,-845.83"/>
<polygon fill="midnightblue" stroke="midnightblue" points="684.46,-467 682.04,-456.69 677.5,-466.26 684.46,-467"/>
</g>
<!-- Node7 -->
<g id="node7" class="node">
<title>Node7</title>
<g id="a_node7"><a xlink:href="class_smart_switch_controller.html#aa6584265e6cc0cd46e80a64dedf3d9eb" target="_top" xlink:title=" ">
<polygon fill="white" stroke="black" points="472,-760 472,-790 588,-790 588,-760 472,-760"/>
<text text-anchor="start" x="480" y="-778" font-family="Helvetica,sans-Serif" font-size="10.00">SmartSwitchController</text>
<text text-anchor="middle" x="530" y="-767" font-family="Helvetica,sans-Serif" font-size="10.00">::enable</text>
</a>
</g>
</g>
<!-- Node1&#45;&gt;Node7 -->
<g id="edge8" class="edge">
<title>Node1&#45;&gt;Node7</title>
<path fill="none" stroke="midnightblue" d="M682.98,-466.63C681.85,-519.44 671.61,-666.19 595,-750 591.46,-753.87 587.24,-757.16 582.69,-759.93"/>
<polygon fill="midnightblue" stroke="midnightblue" points="686.48,-466.63 683.1,-456.59 679.48,-466.54 686.48,-466.63"/>
</g>
<!-- Node8 -->
<g id="node8" class="node">
<title>Node8</title>
<g id="a_node8"><a xlink:href="class_press_repeater.html#a1ef727de63af809009fb2163e76a38b4" target="_top" xlink:title=" ">
<polygon fill="white" stroke="black" points="470.5,-721.5 470.5,-740.5 589.5,-740.5 589.5,-721.5 470.5,-721.5"/>
<text text-anchor="middle" x="530" y="-728.5" font-family="Helvetica,sans-Serif" font-size="10.00">PressRepeater::enable</text>
</a>
</g>
</g>
<!-- Node1&#45;&gt;Node8 -->
<g id="edge9" class="edge">
<title>Node1&#45;&gt;Node8</title>
<path fill="none" stroke="midnightblue" d="M682.38,-466.75C679.76,-515.6 666.09,-643.15 595,-712 591,-715.87 586.26,-718.96 581.18,-721.42"/>
<polygon fill="midnightblue" stroke="midnightblue" points="685.88,-466.73 682.82,-456.58 678.89,-466.42 685.88,-466.73"/>
</g>
<!-- Node9 -->
<g id="node9" class="node">
<title>Node9</title>
<g id="a_node9"><a xlink:href="class_digital_input_state.html#a54365091b9311cbfd1c637df03d5cf0e" target="_top" xlink:title=" ">
<polygon fill="white" stroke="black" points="482.5,-672 482.5,-702 577.5,-702 577.5,-672 482.5,-672"/>
<text text-anchor="start" x="490.5" y="-690" font-family="Helvetica,sans-Serif" font-size="10.00">DigitalInputState::</text>
<text text-anchor="middle" x="530" y="-679" font-family="Helvetica,sans-Serif" font-size="10.00">enable</text>
</a>
</g>
</g>
<!-- Node1&#45;&gt;Node9 -->
<g id="edge10" class="edge">
<title>Node1&#45;&gt;Node9</title>
<path fill="none" stroke="midnightblue" d="M680.33,-466.72C673.66,-508.6 652.44,-607.15 595,-663 590.07,-667.8 584.08,-671.65 577.78,-674.75"/>
<polygon fill="midnightblue" stroke="midnightblue" points="683.81,-467.11 681.82,-456.71 676.89,-466.08 683.81,-467.11"/>
</g>
<!-- Node10 -->
<g id="node10" class="node">
<title>Node10</title>
<g id="a_node10"><a xlink:href="class_m_a_x31856_thermocouple.html#a37980d9b2f2682da48c16cc60b3b6565" target="_top" xlink:title=" ">
<polygon fill="white" stroke="black" points="465,-623 465,-653 595,-653 595,-623 465,-623"/>
<text text-anchor="start" x="473" y="-641" font-family="Helvetica,sans-Serif" font-size="10.00">MAX31856Thermocouple</text>
<text text-anchor="middle" x="530" y="-630" font-family="Helvetica,sans-Serif" font-size="10.00">::enable</text>
</a>
</g>
</g>
<!-- Node1&#45;&gt;Node10 -->
<g id="edge11" class="edge">
<title>Node1&#45;&gt;Node10</title>
<path fill="none" stroke="midnightblue" d="M677.7,-466.64C667.42,-501.17 641.59,-572.94 595,-614 591.08,-617.45 586.62,-620.43 581.92,-622.99"/>
<polygon fill="midnightblue" stroke="midnightblue" points="681.12,-467.41 680.5,-456.83 674.39,-465.49 681.12,-467.41"/>
</g>
<!-- Node11 -->
<g id="node11" class="node">
<title>Node11</title>
<g id="a_node11"><a xlink:href="class_ultrasonic_distance.html#a03aafa94461f81daefa1bdaf8186a7b2" target="_top" xlink:title=" ">
<polygon fill="white" stroke="black" points="480,-574 480,-604 580,-604 580,-574 480,-574"/>
<text text-anchor="start" x="488" y="-592" font-family="Helvetica,sans-Serif" font-size="10.00">UltrasonicDistance</text>
<text text-anchor="middle" x="530" y="-581" font-family="Helvetica,sans-Serif" font-size="10.00">::enable</text>
</a>
</g>
</g>
<!-- Node1&#45;&gt;Node11 -->
<g id="edge12" class="edge">
<title>Node1&#45;&gt;Node11</title>
<path fill="none" stroke="midnightblue" d="M673.47,-465.82C659.53,-491.59 631.25,-537.76 595,-565 590.45,-568.42 585.35,-571.4 580.08,-573.99"/>
<polygon fill="midnightblue" stroke="midnightblue" points="676.69,-467.21 678.25,-456.73 670.5,-463.95 676.69,-467.21"/>
</g>
<!-- Node12 -->
<g id="node12" class="node">
<title>Node12</title>
<g id="a_node12"><a xlink:href="class_s_k_value_listener.html#a1ececa80ce9841cc5cbef88797148484" target="_top" xlink:title=" ">
<polygon fill="white" stroke="black" points="469.5,-525 469.5,-555 590.5,-555 590.5,-525 469.5,-525"/>
<text text-anchor="start" x="477.5" y="-543" font-family="Helvetica,sans-Serif" font-size="10.00">SKValueListener::parse</text>
<text text-anchor="middle" x="530" y="-532" font-family="Helvetica,sans-Serif" font-size="10.00">_value</text>
</a>
</g>
</g>
<!-- Node1&#45;&gt;Node12 -->
<g id="edge15" class="edge">
<title>Node1&#45;&gt;Node12</title>
<path fill="none" stroke="midnightblue" d="M665.43,-463.45C648.45,-478.67 621.47,-501.13 595,-516 589.21,-519.25 582.88,-522.23 576.54,-524.9"/>
<polygon fill="midnightblue" stroke="midnightblue" points="667.88,-465.95 672.91,-456.62 663.17,-460.78 667.88,-465.95"/>
</g>
<!-- Node13 -->
<g id="node13" class="node">
<title>Node13</title>
<g id="a_node13"><a xlink:href="class_s_k_put_request_listener.html#a84b3f74de37c785d8595e8aef60345f8" target="_top" xlink:title=" ">
<polygon fill="white" stroke="black" points="471,-476 471,-506 589,-506 589,-476 471,-476"/>
<text text-anchor="start" x="479" y="-494" font-family="Helvetica,sans-Serif" font-size="10.00">SKPutRequestListener</text>
<text text-anchor="middle" x="530" y="-483" font-family="Helvetica,sans-Serif" font-size="10.00">::parse_value</text>
</a>
</g>
</g>
<!-- Node1&#45;&gt;Node13 -->
<g id="edge16" class="edge">
<title>Node1&#45;&gt;Node13</title>
<path fill="none" stroke="midnightblue" d="M639.97,-459.46C622.26,-464.58 601.59,-470.56 583.04,-475.93"/>
<polygon fill="midnightblue" stroke="midnightblue" points="641.39,-462.69 650.02,-456.55 639.44,-455.97 641.39,-462.69"/>
</g>
<!-- Node14 -->
<g id="node14" class="node">
<title>Node14</title>
<g id="a_node14"><a xlink:href="class_observable_value.html#a51cf25d4951d3214021da0c25985838d" target="_top" xlink:title=" ">
<polygon fill="white" stroke="black" points="474.5,-437.5 474.5,-456.5 585.5,-456.5 585.5,-437.5 474.5,-437.5"/>
<text text-anchor="middle" x="530" y="-444.5" font-family="Helvetica,sans-Serif" font-size="10.00">ObservableValue::set</text>
</a>
</g>
</g>
<!-- Node1&#45;&gt;Node14 -->
<g id="edge17" class="edge">
<title>Node1&#45;&gt;Node14</title>
<path fill="none" stroke="midnightblue" d="M620.66,-447C609.08,-447 597.07,-447 585.74,-447"/>
<polygon fill="midnightblue" stroke="midnightblue" points="620.69,-450.5 630.69,-447 620.69,-443.5 620.69,-450.5"/>
</g>
<!-- Node16 -->
<g id="node16" class="node">
<title>Node16</title>
<g id="a_node16"><a xlink:href="class_truth_to_text.html#a67a62cc1a0cfc0597556ae0b0e0ae0b9" target="_top" xlink:title=" ">
<polygon fill="white" stroke="black" points="472.5,-399.5 472.5,-418.5 587.5,-418.5 587.5,-399.5 472.5,-399.5"/>
<text text-anchor="middle" x="530" y="-406.5" font-family="Helvetica,sans-Serif" font-size="10.00">TruthToText::set_input</text>
</a>
</g>
</g>
<!-- Node1&#45;&gt;Node16 -->
<g id="edge19" class="edge">
<title>Node1&#45;&gt;Node16</title>
<path fill="none" stroke="midnightblue" d="M634.84,-434.96C613.6,-429.65 589,-423.5 569.08,-418.52"/>
<polygon fill="midnightblue" stroke="midnightblue" points="634.09,-438.38 644.64,-437.41 635.79,-431.59 634.09,-438.38"/>
</g>
<!-- Node17 -->
<g id="node17" class="node">
<title>Node17</title>
<g id="a_node17"><a xlink:href="class_smart_switch_controller.html#a349f8404d8ce901bc4fc4a5fdd7c7a5e" target="_top" xlink:title=" ">
<polygon fill="white" stroke="black" points="472,-350 472,-380 588,-380 588,-350 472,-350"/>
<text text-anchor="start" x="480" y="-368" font-family="Helvetica,sans-Serif" font-size="10.00">SmartSwitchController</text>
<text text-anchor="middle" x="530" y="-357" font-family="Helvetica,sans-Serif" font-size="10.00">::set_input</text>
</a>
</g>
</g>
<!-- Node1&#45;&gt;Node17 -->
<g id="edge20" class="edge">
<title>Node1&#45;&gt;Node17</title>
<path fill="none" stroke="midnightblue" d="M661.79,-431.52C644.41,-419.26 618.86,-402.23 595,-390 588.1,-386.46 580.58,-383.11 573.19,-380.08"/>
<polygon fill="midnightblue" stroke="midnightblue" points="659.91,-434.48 670.08,-437.44 663.98,-428.78 659.91,-434.48"/>
</g>
<!-- Node18 -->
<g id="node18" class="node">
<title>Node18</title>
<g id="a_node18"><a xlink:href="class_digital_output.html#a565a9c57af6dbc61d4895c4b35fe3a6a" target="_top" xlink:title=" ">
<polygon fill="white" stroke="black" points="483.5,-301 483.5,-331 576.5,-331 576.5,-301 483.5,-301"/>
<text text-anchor="start" x="491.5" y="-319" font-family="Helvetica,sans-Serif" font-size="10.00">DigitalOutput::set</text>
<text text-anchor="middle" x="530" y="-308" font-family="Helvetica,sans-Serif" font-size="10.00">_input</text>
</a>
</g>
</g>
<!-- Node1&#45;&gt;Node18 -->
<g id="edge21" class="edge">
<title>Node1&#45;&gt;Node18</title>
<path fill="none" stroke="midnightblue" d="M672.09,-428.85C657.28,-405.58 628.75,-365.36 595,-341 589.39,-336.95 583.04,-333.45 576.57,-330.47"/>
<polygon fill="midnightblue" stroke="midnightblue" points="669.16,-430.76 677.41,-437.41 675.11,-427.07 669.16,-430.76"/>
</g>
<!-- Node19 -->
<g id="node19" class="node">
<title>Node19</title>
<g id="a_node19"><a xlink:href="class_press_repeater.html#adc1cfd34d9ed1e3e29fa485fc222be6f" target="_top" xlink:title=" ">
<polygon fill="white" stroke="black" points="479,-252 479,-282 581,-282 581,-252 479,-252"/>
<text text-anchor="start" x="487" y="-270" font-family="Helvetica,sans-Serif" font-size="10.00">PressRepeater::set</text>
<text text-anchor="middle" x="530" y="-259" font-family="Helvetica,sans-Serif" font-size="10.00">_input</text>
</a>
</g>
</g>
<!-- Node1&#45;&gt;Node19 -->
<g id="edge22" class="edge">
<title>Node1&#45;&gt;Node19</title>
<path fill="none" stroke="midnightblue" d="M677.03,-427.76C665.99,-395.17 639.36,-328.97 595,-291 590.85,-287.45 586.13,-284.4 581.17,-281.79"/>
<polygon fill="midnightblue" stroke="midnightblue" points="673.76,-429.01 680.18,-437.43 680.41,-426.84 673.76,-429.01"/>
</g>
<!-- Node21 -->
<g id="node21" class="node">
<title>Node21</title>
<g id="a_node21"><a xlink:href="class_heat_index_effect.html#a4a34785b671437362eac9ce30a2bd7c1" target="_top" xlink:title=" ">
<polygon fill="white" stroke="black" points="477,-203 477,-233 583,-233 583,-203 477,-203"/>
<text text-anchor="start" x="485" y="-221" font-family="Helvetica,sans-Serif" font-size="10.00">HeatIndexEffect::set</text>
<text text-anchor="middle" x="530" y="-210" font-family="Helvetica,sans-Serif" font-size="10.00">_input</text>
</a>
</g>
</g>
<!-- Node1&#45;&gt;Node21 -->
<g id="edge24" class="edge">
<title>Node1&#45;&gt;Node21</title>
<path fill="none" stroke="midnightblue" d="M679.87,-427.46C672.45,-387.23 650.06,-294.55 595,-242 591.39,-238.56 587.25,-235.6 582.84,-233.06"/>
<polygon fill="midnightblue" stroke="midnightblue" points="676.43,-428.08 681.59,-437.33 683.33,-426.88 676.43,-428.08"/>
</g>
<!-- Node22 -->
<g id="node22" class="node">
<title>Node22</title>
<g id="a_node22"><a xlink:href="class_frequency.html#a99df388f446a8aa46f465fe464023f55" target="_top" xlink:title=" ">
<polygon fill="white" stroke="black" points="475,-164.5 475,-183.5 585,-183.5 585,-164.5 475,-164.5"/>
<text text-anchor="middle" x="530" y="-171.5" font-family="Helvetica,sans-Serif" font-size="10.00">Frequency::set_input</text>
</a>
</g>
</g>
<!-- Node1&#45;&gt;Node22 -->
<g id="edge25" class="edge">
<title>Node1&#45;&gt;Node22</title>
<path fill="none" stroke="midnightblue" d="M682.04,-427.11C678.66,-379.56 663.4,-258.4 595,-193 590.98,-189.16 586.22,-186.08 581.13,-183.63"/>
<polygon fill="midnightblue" stroke="midnightblue" points="678.56,-427.53 682.66,-437.3 685.55,-427.11 678.56,-427.53"/>
</g>
<!-- Node23 -->
<g id="node23" class="node">
<title>Node23</title>
<g id="a_node23"><a xlink:href="class_text_to_truth.html#a18fb1c8a872fdd666c798676d51f5c8d" target="_top" xlink:title=" ">
<polygon fill="white" stroke="black" points="472.5,-126.5 472.5,-145.5 587.5,-145.5 587.5,-126.5 472.5,-126.5"/>
<text text-anchor="middle" x="530" y="-133.5" font-family="Helvetica,sans-Serif" font-size="10.00">TextToTruth::set_input</text>
</a>
</g>
</g>
<!-- Node1&#45;&gt;Node23 -->
<g id="edge26" class="edge">
<title>Node1&#45;&gt;Node23</title>
<path fill="none" stroke="midnightblue" d="M683.09,-427.04C682.21,-374.68 672.43,-232.11 595,-155 591.14,-151.16 586.54,-148.08 581.6,-145.63"/>
<polygon fill="midnightblue" stroke="midnightblue" points="679.59,-427.33 683.16,-437.31 686.59,-427.28 679.59,-427.33"/>
</g>
<!-- Node24 -->
<g id="node24" class="node">
<title>Node24</title>
<g id="a_node24"><a xlink:href="class_debounce_template.html#a5b9494c621530bd3aa8172276867456e" target="_top" xlink:title=" ">
<polygon fill="white" stroke="black" points="469,-77 469,-107 591,-107 591,-77 469,-77"/>
<text text-anchor="start" x="477" y="-95" font-family="Helvetica,sans-Serif" font-size="10.00">DebounceTemplate::set</text>
<text text-anchor="middle" x="530" y="-84" font-family="Helvetica,sans-Serif" font-size="10.00">_input</text>
</a>
</g>
</g>
<!-- Node1&#45;&gt;Node24 -->
<g id="edge27" class="edge">
<title>Node1&#45;&gt;Node24</title>
<path fill="none" stroke="midnightblue" d="M683.54,-427.16C683.99,-371.07 677.64,-209.44 595,-117 591.58,-113.18 587.51,-109.93 583.09,-107.18"/>
<polygon fill="midnightblue" stroke="midnightblue" points="680.04,-427.4 683.37,-437.46 687.04,-427.52 680.04,-427.4"/>
</g>
<!-- Node25 -->
<g id="node25" class="node">
<title>Node25</title>
<g id="a_node25"><a xlink:href="class_s_k_output.html#a58191f013e06068ca13ca85365fd0957" target="_top" xlink:title=" ">
<polygon fill="white" stroke="black" points="477,-38.5 477,-57.5 583,-57.5 583,-38.5 477,-38.5"/>
<text text-anchor="middle" x="530" y="-45.5" font-family="Helvetica,sans-Serif" font-size="10.00">SKOutput::set_input</text>
</a>
</g>
</g>
<!-- Node1&#45;&gt;Node25 -->
<g id="edge28" class="edge">
<title>Node1&#45;&gt;Node25</title>
<path fill="none" stroke="midnightblue" d="M681.04,-427.34C673.67,-357.21 645.44,-120.61 595,-67 591.35,-63.12 586.94,-60.02 582.17,-57.54"/>
<polygon fill="midnightblue" stroke="midnightblue" points="677.58,-427.86 682.08,-437.45 684.54,-427.14 677.58,-427.86"/>
</g>
<!-- Node26 -->
<g id="node26" class="node">
<title>Node26</title>
<g id="a_node26"><a xlink:href="class_time_string.html#adde406ecfdeea029a07c54c87f29580f" target="_top" xlink:title=" ">
<polygon fill="white" stroke="black" points="474.5,-0.5 474.5,-19.5 585.5,-19.5 585.5,-0.5 474.5,-0.5"/>
<text text-anchor="middle" x="530" y="-7.5" font-family="Helvetica,sans-Serif" font-size="10.00">TimeString::set_input</text>
</a>
</g>
</g>
<!-- Node1&#45;&gt;Node26 -->
<g id="edge29" class="edge">
<title>Node1&#45;&gt;Node26</title>
<path fill="none" stroke="midnightblue" d="M681.45,-426.86C675.27,-351.67 649.99,-88.65 595,-29 591.46,-25.17 587.19,-22.09 582.56,-19.63"/>
<polygon fill="midnightblue" stroke="midnightblue" points="677.99,-427.56 682.28,-437.25 684.97,-427.01 677.99,-427.56"/>
</g>
<!-- Node2&#45;&gt;Node3 -->
<g id="edge2" class="edge">
<title>Node2&#45;&gt;Node3</title>
<path fill="none" stroke="midnightblue" d="M486.42,-875.27C468.78,-879.93 448.04,-884.86 429,-888 369.05,-897.89 299.45,-902.72 252.45,-905.03"/>
<polygon fill="midnightblue" stroke="midnightblue" points="487.66,-878.56 496.4,-872.58 485.84,-871.8 487.66,-878.56"/>
</g>
<!-- Node5 -->
<g id="node5" class="node">
<title>Node5</title>
<g id="a_node5"><a xlink:href="class_click_type.html#ad02f210e44bc8ba18c80dce9ee4f5db5" target="_top" xlink:title=" ">
<polygon fill="white" stroke="black" points="307.5,-848 307.5,-878 409.5,-878 409.5,-848 307.5,-848"/>
<text text-anchor="start" x="315.5" y="-866" font-family="Helvetica,sans-Serif" font-size="10.00">ClickType::on_ultra</text>
<text text-anchor="middle" x="358.5" y="-855" font-family="Helvetica,sans-Serif" font-size="10.00">_long_click</text>
</a>
</g>
</g>
<!-- Node2&#45;&gt;Node5 -->
<g id="edge4" class="edge">
<title>Node2&#45;&gt;Node5</title>
<path fill="none" stroke="midnightblue" d="M459.07,-863C442.53,-863 425.22,-863 409.75,-863"/>
<polygon fill="midnightblue" stroke="midnightblue" points="459.24,-866.5 469.24,-863 459.24,-859.5 459.24,-866.5"/>
</g>
<!-- Node4 -->
<g id="node4" class="node">
<title>Node4</title>
<g id="a_node4"><a xlink:href="class_click_type.html#a7b1a0723cd0b8438d3f1ec380243d208" target="_top" xlink:title=" ">
<polygon fill="white" stroke="black" points="0,-872.5 0,-891.5 106,-891.5 106,-872.5 0,-872.5"/>
<text text-anchor="middle" x="53" y="-879.5" font-family="Helvetica,sans-Serif" font-size="10.00">ClickType::set_input</text>
</a>
</g>
</g>
<!-- Node3&#45;&gt;Node4 -->
<g id="edge3" class="edge">
<title>Node3&#45;&gt;Node4</title>
<path fill="none" stroke="midnightblue" d="M131.87,-895.71C123.23,-894.19 114.46,-892.64 106.06,-891.17"/>
<polygon fill="midnightblue" stroke="midnightblue" points="131.46,-899.19 141.91,-897.48 132.67,-892.3 131.46,-899.19"/>
</g>
<!-- Node5&#45;&gt;Node3 -->
<g id="edge7" class="edge">
<title>Node5&#45;&gt;Node3</title>
<path fill="none" stroke="midnightblue" d="M297.82,-879.46C282.88,-883.58 266.94,-887.98 252.28,-892.03"/>
<polygon fill="midnightblue" stroke="midnightblue" points="298.76,-882.83 307.47,-876.8 296.9,-876.09 298.76,-882.83"/>
</g>
<!-- Node5&#45;&gt;Node6 -->
<g id="edge5" class="edge">
<title>Node5&#45;&gt;Node6</title>
<path fill="none" stroke="midnightblue" d="M297.4,-861.12C282.58,-860.65 266.8,-860.16 252.28,-859.7"/>
<polygon fill="midnightblue" stroke="midnightblue" points="297.37,-864.62 307.47,-861.43 297.59,-857.62 297.37,-864.62"/>
</g>
<!-- Node6&#45;&gt;Node4 -->
<g id="edge6" class="edge">
<title>Node6&#45;&gt;Node4</title>
<path fill="none" stroke="midnightblue" d="M131.87,-868.84C123.23,-870.3 114.46,-871.78 106.06,-873.2"/>
<polygon fill="midnightblue" stroke="midnightblue" points="132.63,-872.26 141.91,-867.14 131.47,-865.36 132.63,-872.26"/>
</g>
<!-- Node15 -->
<g id="node15" class="node">
<title>Node15</title>
<g id="a_node15"><a xlink:href="class_observable_value.html#a54365858b54d341831a90c09bc92ad43" target="_top" xlink:title=" ">
<polygon fill="white" stroke="black" points="288,-437.5 288,-456.5 429,-456.5 429,-437.5 288,-437.5"/>
<text text-anchor="middle" x="358.5" y="-444.5" font-family="Helvetica,sans-Serif" font-size="10.00">ObservableValue::operator=</text>
</a>
</g>
</g>
<!-- Node14&#45;&gt;Node15 -->
<g id="edge18" class="edge">
<title>Node14&#45;&gt;Node15</title>
<path fill="none" stroke="midnightblue" d="M464.1,-447C452.66,-447 440.72,-447 429.15,-447"/>
<polygon fill="midnightblue" stroke="midnightblue" points="464.44,-450.5 474.44,-447 464.44,-443.5 464.44,-450.5"/>
</g>
<!-- Node20 -->
<g id="node20" class="node">
<title>Node20</title>
<g id="a_node20"><a xlink:href="class_press_repeater.html#ad3d26f28a45c151c830c4887f85ab152" target="_top" xlink:title=" ">
<polygon fill="white" stroke="black" points="307.5,-252 307.5,-282 409.5,-282 409.5,-252 307.5,-252"/>
<text text-anchor="start" x="315.5" y="-270" font-family="Helvetica,sans-Serif" font-size="10.00">PressRepeater::set</text>
<text text-anchor="middle" x="358.5" y="-259" font-family="Helvetica,sans-Serif" font-size="10.00">_input</text>
</a>
</g>
</g>
<!-- Node19&#45;&gt;Node20 -->
<g id="edge23" class="edge">
<title>Node19&#45;&gt;Node20</title>
<path fill="none" stroke="midnightblue" d="M468.43,-267C449.19,-267 428.13,-267 409.7,-267"/>
<polygon fill="midnightblue" stroke="midnightblue" points="468.6,-270.5 478.6,-267 468.6,-263.5 468.6,-270.5"/>
</g>
</g>
</svg>
