<?xml version="1.0" encoding="UTF-8" standalone="no"?>
<!DOCTYPE svg PUBLIC "-//W3C//DTD SVG 1.1//EN"
 "http://www.w3.org/Graphics/SVG/1.1/DTD/svg11.dtd">
<!-- Generated by graphviz version 12.1.0 (20240811.2233)
 -->
<!-- Title: sensesp::ClickType::on_button_release Pages: 1 -->
<svg width="928pt" height="140pt"
 viewBox="0.00 0.00 927.50 140.06" xmlns="http://www.w3.org/2000/svg" xmlns:xlink="http://www.w3.org/1999/xlink">
<g id="graph0" class="graph" transform="scale(1 1) rotate(0) translate(4 136.06)">
<title>sensesp::ClickType::on_button_release</title>
<!-- Node1 -->
<g id="Node000001" class="node">
<title>Node1</title>
<g id="a_Node000001"><a xlink:title="Processes incoming value that represent a &quot;ButtonRelease&quot; event.">
<polygon fill="#999999" stroke="#666666" points="102.25,-76.06 0,-76.06 0,-45.56 102.25,-45.56 102.25,-76.06"/>
<text text-anchor="start" x="8" y="-62.56" font-family="Helvetica,sans-Serif" font-size="10.00">sensesp::ClickType</text>
<text text-anchor="middle" x="51.12" y="-51.31" font-family="Helvetica,sans-Serif" font-size="10.00">::on_button_release</text>
</a>
</g>
</g>
<!-- Node2 -->
<g id="Node000002" class="node">
<title>Node2</title>
<g id="a_Node000002"><a xlink:href="classsensesp_1_1_value_producer.html#a4f5f0259d0d3cd9a0ed17d657cac04e2" target="_top" xlink:title=" ">
<polygon fill="white" stroke="#666666" points="545.5,-132.06 423.75,-132.06 423.75,-101.56 545.5,-101.56 545.5,-132.06"/>
<text text-anchor="start" x="431.75" y="-118.56" font-family="Helvetica,sans-Serif" font-size="10.00">sensesp::ValueProducer</text>
<text text-anchor="middle" x="484.62" y="-107.31" font-family="Helvetica,sans-Serif" font-size="10.00">&lt; ClickTypes &gt;::emit</text>
</a>
</g>
</g>
<!-- Node1&#45;&gt;Node2 -->
<g id="edge1_Node000001_Node000002" class="edge">
<title>Node1&#45;&gt;Node2</title>
<g id="a_edge1_Node000001_Node000002"><a xlink:title=" ">
<path fill="none" stroke="#63b8ff" d="M77.91,-76.46C94.53,-85.75 116.94,-96.85 138.25,-102.81 230.08,-128.5 340.98,-127.69 411.89,-123.39"/>
<polygon fill="#63b8ff" stroke="#63b8ff" points="412.09,-126.88 421.84,-122.74 411.64,-119.9 412.09,-126.88"/>
</a>
</g>
</g>
<!-- Node3 -->
<g id="Node000003" class="node">
<title>Node3</title>
<g id="a_Node000003"><a xlink:href="classsensesp_1_1_click_type.html#a1c109241a50f371960a333abc3ead21a" target="_top" xlink:title=" ">
<polygon fill="white" stroke="#666666" points="384.75,-107.06 282.5,-107.06 282.5,-76.56 384.75,-76.56 384.75,-107.06"/>
<text text-anchor="start" x="290.5" y="-93.56" font-family="Helvetica,sans-Serif" font-size="10.00">sensesp::ClickType</text>
<text text-anchor="middle" x="333.62" y="-82.31" font-family="Helvetica,sans-Serif" font-size="10.00">::emitDelayed</text>
</a>
</g>
</g>
<!-- Node1&#45;&gt;Node3 -->
<g id="edge2_Node000001_Node000003" class="edge">
<title>Node1&#45;&gt;Node3</title>
<g id="a_edge2_Node000001_Node000003"><a xlink:title=" ">
<path fill="none" stroke="#63b8ff" d="M100.88,-76.55C112.97,-79.85 125.98,-82.91 138.25,-84.81 182.25,-91.64 232.49,-93.29 270.87,-93.29"/>
<polygon fill="#63b8ff" stroke="#63b8ff" points="270.88,-96.79 280.87,-93.24 270.85,-89.79 270.88,-96.79"/>
</a>
</g>
</g>
<!-- Node4 -->
<g id="Node000004" class="node">
<title>Node4</title>
<g id="a_Node000004"><a xlink:href="namespacesensesp.html#a6dc46d92e5fd3c1e7335f9d650827f57" target="_top" xlink:title=" ">
<polygon fill="white" stroke="#666666" points="537.62,-59.44 431.62,-59.44 431.62,-40.19 537.62,-40.19 537.62,-59.44"/>
<text text-anchor="middle" x="484.62" y="-45.94" font-family="Helvetica,sans-Serif" font-size="10.00">sensesp::event_loop</text>
</a>
</g>
</g>
<!-- Node1&#45;&gt;Node4 -->
<g id="edge7_Node000001_Node000004" class="edge">
<title>Node1&#45;&gt;Node4</title>
<g id="a_edge7_Node000001_Node000004"><a xlink:title=" ">
<path fill="none" stroke="#63b8ff" d="M85.8,-45.07C101.43,-38.41 120.45,-31.19 138.25,-26.81 246.13,-0.31 278.63,9.02 387.75,-11.81 410.98,-16.25 435.76,-26.22 454.31,-34.84"/>
<polygon fill="#63b8ff" stroke="#63b8ff" points="452.55,-37.88 463.08,-39.05 455.58,-31.57 452.55,-37.88"/>
</a>
</g>
</g>
<!-- Node7 -->
<g id="Node000007" class="node">
<title>Node7</title>
<g id="a_Node000007"><a xlink:href="classsensesp_1_1_click_type.html#aec294bafe9a6cb81599f6dfe84eafcf3" target="_top" xlink:title=" ">
<polygon fill="white" stroke="#666666" points="387.75,-51.06 279.5,-51.06 279.5,-20.56 387.75,-20.56 387.75,-51.06"/>
<text text-anchor="start" x="287.5" y="-37.56" font-family="Helvetica,sans-Serif" font-size="10.00">sensesp::ClickType</text>
<text text-anchor="middle" x="333.62" y="-26.31" font-family="Helvetica,sans-Serif" font-size="10.00">::on_click_completed</text>
</a>
</g>
</g>
<!-- Node1&#45;&gt;Node7 -->
<g id="edge8_Node000001_Node000007" class="edge">
<title>Node1&#45;&gt;Node7</title>
<g id="a_edge8_Node000001_Node000007"><a xlink:title=" ">
<path fill="none" stroke="#63b8ff" d="M99.48,-45.18C111.95,-41.74 125.49,-38.59 138.25,-36.81 181.11,-30.84 229.8,-30.6 267.73,-31.85"/>
<polygon fill="#63b8ff" stroke="#63b8ff" points="267.5,-35.34 277.63,-32.22 267.77,-28.35 267.5,-35.34"/>
</a>
</g>
</g>
<!-- Node8 -->
<g id="Node000008" class="node">
<title>Node8</title>
<g id="a_Node000008"><a xlink:href="classsensesp_1_1_click_type.html#a7cef6ec74f8d73633853e560a3872e3a" target="_top" xlink:title=" ">
<polygon fill="white" stroke="#666666" points="243.5,-76.06 138.25,-76.06 138.25,-45.56 243.5,-45.56 243.5,-76.06"/>
<text text-anchor="start" x="146.25" y="-62.56" font-family="Helvetica,sans-Serif" font-size="10.00">sensesp::ClickType</text>
<text text-anchor="middle" x="190.88" y="-51.31" font-family="Helvetica,sans-Serif" font-size="10.00">::on_ultra_long_click</text>
</a>
</g>
</g>
<!-- Node1&#45;&gt;Node8 -->
<g id="edge9_Node000001_Node000008" class="edge">
<title>Node1&#45;&gt;Node8</title>
<g id="a_edge9_Node000001_Node000008"><a xlink:title=" ">
<path fill="none" stroke="#63b8ff" d="M102.64,-60.81C110.46,-60.81 118.63,-60.81 126.7,-60.81"/>
<polygon fill="#63b8ff" stroke="#63b8ff" points="126.47,-64.31 136.47,-60.81 126.47,-57.31 126.47,-64.31"/>
</a>
</g>
</g>
<!-- Node3&#45;&gt;Node2 -->
<g id="edge3_Node000003_Node000002" class="edge">
<title>Node3&#45;&gt;Node2</title>
<g id="a_edge3_Node000003_Node000002"><a xlink:title=" ">
<path fill="none" stroke="#63b8ff" d="M385.07,-100.28C393.83,-101.75 403.09,-103.3 412.29,-104.85"/>
<polygon fill="#63b8ff" stroke="#63b8ff" points="411.5,-108.26 421.94,-106.47 412.66,-101.36 411.5,-108.26"/>
</a>
</g>
</g>
<!-- Node3&#45;&gt;Node4 -->
<g id="edge4_Node000003_Node000004" class="edge">
<title>Node3&#45;&gt;Node4</title>
<g id="a_edge4_Node000003_Node000004"><a xlink:title=" ">
<path fill="none" stroke="#63b8ff" d="M385.07,-77.6C401.81,-72.88 420.36,-67.65 436.81,-63.01"/>
<polygon fill="#63b8ff" stroke="#63b8ff" points="437.69,-66.4 446.36,-60.32 435.79,-59.66 437.69,-66.4"/>
</a>
</g>
</g>
<!-- Node5 -->
<g id="Node000005" class="node">
<title>Node5</title>
<g id="a_Node000005"><a xlink:href="classsensesp_1_1_sens_e_s_p_base_app.html#a5ac3b07550aed05e92aeb2a536ea0739" target="_top" xlink:title="Get the event loop object from the singleton SensESPBaseApp instance.">
<polygon fill="white" stroke="#666666" points="722.75,-65.06 581.5,-65.06 581.5,-34.56 722.75,-34.56 722.75,-65.06"/>
<text text-anchor="start" x="589.5" y="-51.56" font-family="Helvetica,sans-Serif" font-size="10.00">sensesp::SensESPBaseApp</text>
<text text-anchor="middle" x="652.12" y="-40.31" font-family="Helvetica,sans-Serif" font-size="10.00">::get_event_loop</text>
</a>
</g>
</g>
<!-- Node4&#45;&gt;Node5 -->
<g id="edge5_Node000004_Node000005" class="edge">
<title>Node4&#45;&gt;Node5</title>
<g id="a_edge5_Node000004_Node000005"><a xlink:title=" ">
<path fill="none" stroke="#63b8ff" d="M537.99,-49.81C548.18,-49.81 559.09,-49.81 569.96,-49.81"/>
<polygon fill="#63b8ff" stroke="#63b8ff" points="569.72,-53.31 579.72,-49.81 569.72,-46.31 569.72,-53.31"/>
</a>
</g>
</g>
<!-- Node6 -->
<g id="Node000006" class="node">
<title>Node6</title>
<g id="a_Node000006"><a xlink:href="classsensesp_1_1_sens_e_s_p_base_app.html#add2c67bb55d095ab9c64f44ab2e82612" target="_top" xlink:title="Get the singleton instance of the SensESPBaseApp.">
<polygon fill="white" stroke="#666666" points="919.5,-59.44 758.75,-59.44 758.75,-40.19 919.5,-40.19 919.5,-59.44"/>
<text text-anchor="middle" x="839.12" y="-45.94" font-family="Helvetica,sans-Serif" font-size="10.00">sensesp::SensESPBaseApp::get</text>
</a>
</g>
</g>
<!-- Node5&#45;&gt;Node6 -->
<g id="edge6_Node000005_Node000006" class="edge">
<title>Node5&#45;&gt;Node6</title>
<g id="a_edge6_Node000005_Node000006"><a xlink:title=" ">
<path fill="none" stroke="#63b8ff" d="M723.07,-49.81C730.92,-49.81 739.01,-49.81 747.09,-49.81"/>
<polygon fill="#63b8ff" stroke="#63b8ff" points="746.96,-53.31 756.96,-49.81 746.96,-46.31 746.96,-53.31"/>
</a>
</g>
</g>
<!-- Node8&#45;&gt;Node3 -->
<g id="edge10_Node000008_Node000003" class="edge">
<title>Node8&#45;&gt;Node3</title>
<g id="a_edge10_Node000008_Node000003"><a xlink:title=" ">
<path fill="none" stroke="#63b8ff" d="M243.89,-72.27C252.79,-74.23 262.12,-76.29 271.25,-78.3"/>
<polygon fill="#63b8ff" stroke="#63b8ff" points="270.24,-81.66 280.76,-80.39 271.74,-74.82 270.24,-81.66"/>
</a>
</g>
</g>
<!-- Node8&#45;&gt;Node7 -->
<g id="edge11_Node000008_Node000007" class="edge">
<title>Node8&#45;&gt;Node7</title>
<g id="a_edge11_Node000008_Node000007"><a xlink:title=" ">
<path fill="none" stroke="#63b8ff" d="M243.89,-51.58C251.85,-50.16 260.16,-48.69 268.35,-47.23"/>
<polygon fill="#63b8ff" stroke="#63b8ff" points="268.69,-50.72 277.93,-45.53 267.47,-43.83 268.69,-50.72"/>
</a>
</g>
</g>
</g>
</svg>
