<?xml version="1.0" encoding="UTF-8" standalone="no"?>
<!DOCTYPE svg PUBLIC "-//W3C//DTD SVG 1.1//EN"
 "http://www.w3.org/Graphics/SVG/1.1/DTD/svg11.dtd">
<!-- Generated by graphviz version 14.1.4 (20260321.0153)
 -->
<!-- Title: sensesp::ClientSSIDConfig::ClientSSIDConfig Pages: 1 -->
<svg width="481pt" height="39pt"
 viewBox="0.00 0.00 481.00 39.00" xmlns="http://www.w3.org/2000/svg" xmlns:xlink="http://www.w3.org/1999/xlink">
<g id="graph0" class="graph" transform="scale(1 1) rotate(0) translate(4 34.5)">
<title>sensesp::ClientSSIDConfig::ClientSSIDConfig</title>
<!-- Node1 -->
<g id="Node000001" class="node">
<title>Node1</title>
<g id="a_Node000001"><a xlink:title=" ">
<polygon fill="#999999" stroke="#666666" points="473.25,-30.5 336.5,-30.5 336.5,0 473.25,0 473.25,-30.5"/>
<text xml:space="preserve" text-anchor="start" x="344.5" y="-17" font-family="Helvetica,sans-Serif" font-size="10.00">sensesp::ClientSSIDConfig</text>
<text xml:space="preserve" text-anchor="middle" x="404.88" y="-5.75" font-family="Helvetica,sans-Serif" font-size="10.00">::ClientSSIDConfig</text>
</a>
</g>
</g>
<!-- Node2 -->
<g id="Node000002" class="node">
<title>Node2</title>
<g id="a_Node000002"><a xlink:href="classsensesp_1_1_client_s_s_i_d_config.html#a54c78249be4dd0824fa318a7a37dec81" target="_top" xlink:title=" ">
<polygon fill="white" stroke="#666666" points="300.5,-30.5 163.75,-30.5 163.75,0 300.5,0 300.5,-30.5"/>
<text xml:space="preserve" text-anchor="start" x="171.75" y="-17" font-family="Helvetica,sans-Serif" font-size="10.00">sensesp::ClientSSIDConfig</text>
<text xml:space="preserve" text-anchor="middle" x="232.12" y="-5.75" font-family="Helvetica,sans-Serif" font-size="10.00">::from_json</text>
</a>
</g>
</g>
<!-- Node1&#45;&gt;Node2 -->
<g id="edge1_Node000001_Node000002" class="edge">
<title>Node1&#45;&gt;Node2</title>
<g id="a_edge1_Node000001_Node000002"><a xlink:title=" ">
<path fill="none" stroke="#63b8ff" d="M325.08,-15.25C317.02,-15.25 308.88,-15.25 300.96,-15.25"/>
<polygon fill="#63b8ff" stroke="#63b8ff" points="324.88,-18.75 334.88,-15.25 324.88,-11.75 324.88,-18.75"/>
</a>
</g>
</g>
<!-- Node3 -->
<g id="Node000003" class="node">
<title>Node3</title>
<g id="a_Node000003"><a xlink:href="classsensesp_1_1_wi_fi_provisioner.html#a1a61fb854d502b5d9740087344be414f" target="_top" xlink:title=" ">
<polygon fill="white" stroke="#666666" points="127.75,-30.5 0,-30.5 0,0 127.75,0 127.75,-30.5"/>
<text xml:space="preserve" text-anchor="start" x="8" y="-17" font-family="Helvetica,sans-Serif" font-size="10.00">sensesp::WiFiProvisioner</text>
<text xml:space="preserve" text-anchor="middle" x="63.88" y="-5.75" font-family="Helvetica,sans-Serif" font-size="10.00">::from_json</text>
</a>
</g>
</g>
<!-- Node2&#45;&gt;Node3 -->
<g id="edge2_Node000002_Node000003" class="edge">
<title>Node2&#45;&gt;Node3</title>
<g id="a_edge2_Node000002_Node000003"><a xlink:title=" ">
<path fill="none" stroke="#63b8ff" d="M152.18,-15.25C144.12,-15.25 136,-15.25 128.14,-15.25"/>
<polygon fill="#63b8ff" stroke="#63b8ff" points="151.99,-18.75 161.99,-15.25 151.99,-11.75 151.99,-18.75"/>
</a>
</g>
</g>
</g>
</svg>
