<?xml version="1.0" encoding="UTF-8" standalone="no"?>
<!DOCTYPE svg PUBLIC "-//W3C//DTD SVG 1.1//EN"
 "http://www.w3.org/Graphics/SVG/1.1/DTD/svg11.dtd">
<!-- Generated by graphviz version 2.44.1 (20200629.0846)
 -->
<!-- Title: TextToTruth::is_valid_false Pages: 1 -->
<svg width="266pt" height="39pt"
 viewBox="0.00 0.00 266.00 39.00" xmlns="http://www.w3.org/2000/svg" xmlns:xlink="http://www.w3.org/1999/xlink">
<g id="graph0" class="graph" transform="scale(1 1) rotate(0) translate(4 35)">
<title>TextToTruth::is_valid_false</title>
<polygon fill="white" stroke="transparent" points="-4,4 -4,-35 262,-35 262,4 -4,4"/>
<!-- Node1 -->
<g id="node1" class="node">
<title>Node1</title>
<g id="a_node1"><a xlink:title=" ">
<polygon fill="#bfbfbf" stroke="black" points="151,-0.5 151,-30.5 258,-30.5 258,-0.5 151,-0.5"/>
<text text-anchor="start" x="159" y="-18.5" font-family="Helvetica,sans-Serif" font-size="10.00">TextToTruth::is_valid</text>
<text text-anchor="middle" x="204.5" y="-7.5" font-family="Helvetica,sans-Serif" font-size="10.00">_false</text>
</a>
</g>
</g>
<!-- Node2 -->
<g id="node2" class="node">
<title>Node2</title>
<g id="a_node2"><a xlink:href="class_smart_switch_controller.html#a94d837ee621c08bb45a6897b91378bf7" target="_top" xlink:title=" ">
<polygon fill="white" stroke="black" points="0,-0.5 0,-30.5 115,-30.5 115,-0.5 0,-0.5"/>
<text text-anchor="start" x="8" y="-18.5" font-family="Helvetica,sans-Serif" font-size="10.00">SmartSwitchController</text>
<text text-anchor="middle" x="57.5" y="-7.5" font-family="Helvetica,sans-Serif" font-size="10.00">::set_input</text>
</a>
</g>
</g>
<!-- Node1&#45;&gt;Node2 -->
<g id="edge1" class="edge">
<title>Node1&#45;&gt;Node2</title>
<path fill="none" stroke="midnightblue" d="M140.62,-15.5C132.23,-15.5 123.66,-15.5 115.38,-15.5"/>
<polygon fill="midnightblue" stroke="midnightblue" points="140.74,-19 150.74,-15.5 140.74,-12 140.74,-19"/>
</g>
</g>
</svg>
