<?xml version="1.0" encoding="UTF-8" standalone="no"?>
<!DOCTYPE svg PUBLIC "-//W3C//DTD SVG 1.1//EN"
 "http://www.w3.org/Graphics/SVG/1.1/DTD/svg11.dtd">
<!-- Generated by graphviz version 2.44.1 (20200629.0846)
 -->
<!-- Title: GPRMCSentenceParser::parse Pages: 1 -->
<svg width="292pt" height="420pt"
 viewBox="0.00 0.00 292.00 420.00" xmlns="http://www.w3.org/2000/svg" xmlns:xlink="http://www.w3.org/1999/xlink">
<g id="graph0" class="graph" transform="scale(1 1) rotate(0) translate(4 416)">
<title>GPRMCSentenceParser::parse</title>
<polygon fill="white" stroke="transparent" points="-4,4 -4,-416 288,-416 288,4 -4,4"/>
<!-- Node1 -->
<g id="node1" class="node">
<title>Node1</title>
<g id="a_node1"><a xlink:title=" ">
<polygon fill="#bfbfbf" stroke="black" points="0,-197 0,-227 124,-227 124,-197 0,-197"/>
<text text-anchor="start" x="8" y="-215" font-family="Helvetica,sans-Serif" font-size="10.00">GPRMCSentenceParser</text>
<text text-anchor="middle" x="62" y="-204" font-family="Helvetica,sans-Serif" font-size="10.00">::parse</text>
</a>
</g>
</g>
<!-- Node2 -->
<g id="node2" class="node">
<title>Node2</title>
<g id="a_node2"><a xlink:href="nmea__parser_8cpp.html#af394f12d9ff6fb97e4c158dac1eb6dc0" target="_top" xlink:title=" ">
<polygon fill="white" stroke="black" points="193,-392.5 193,-411.5 251,-411.5 251,-392.5 193,-392.5"/>
<text text-anchor="middle" x="222" y="-399.5" font-family="Helvetica,sans-Serif" font-size="10.00">parse_AV</text>
</a>
</g>
</g>
<!-- Node1&#45;&gt;Node2 -->
<g id="edge1" class="edge">
<title>Node1&#45;&gt;Node2</title>
<path fill="none" stroke="midnightblue" d="M67.34,-227.07C77.69,-260.29 106.98,-340.27 160,-383 166.63,-388.34 174.77,-392.19 182.92,-394.96"/>
<polygon fill="midnightblue" stroke="midnightblue" points="182.18,-398.39 192.76,-397.83 184.14,-391.67 182.18,-398.39"/>
</g>
<!-- Node3 -->
<g id="node3" class="node">
<title>Node3</title>
<g id="a_node3"><a xlink:href="nmea__parser_8cpp.html#a29c34542d9842302271bb6a0380d4d4d" target="_top" xlink:title=" ">
<polygon fill="white" stroke="black" points="189.5,-354.5 189.5,-373.5 254.5,-373.5 254.5,-354.5 189.5,-354.5"/>
<text text-anchor="middle" x="222" y="-361.5" font-family="Helvetica,sans-Serif" font-size="10.00">parse_date</text>
</a>
</g>
</g>
<!-- Node1&#45;&gt;Node3 -->
<g id="edge2" class="edge">
<title>Node1&#45;&gt;Node3</title>
<path fill="none" stroke="midnightblue" d="M70,-227.22C83.47,-254.83 115.62,-313.23 160,-345 165.95,-349.26 172.89,-352.59 179.91,-355.18"/>
<polygon fill="midnightblue" stroke="midnightblue" points="178.86,-358.52 189.45,-358.28 181.02,-351.86 178.86,-358.52"/>
</g>
<!-- Node4 -->
<g id="node4" class="node">
<title>Node4</title>
<g id="a_node4"><a xlink:href="nmea__parser_8cpp.html#a3f3c4d059e6d6bcc7040f624486d37ae" target="_top" xlink:title=" ">
<polygon fill="white" stroke="black" points="185,-316.5 185,-335.5 259,-335.5 259,-316.5 185,-316.5"/>
<text text-anchor="middle" x="222" y="-323.5" font-family="Helvetica,sans-Serif" font-size="10.00">parse_double</text>
</a>
</g>
</g>
<!-- Node1&#45;&gt;Node4 -->
<g id="edge3" class="edge">
<title>Node1&#45;&gt;Node4</title>
<path fill="none" stroke="midnightblue" d="M74.5,-227.09C91.15,-247.96 123.98,-285.48 160,-307 164.76,-309.84 169.99,-312.3 175.32,-314.42"/>
<polygon fill="midnightblue" stroke="midnightblue" points="174.36,-317.79 184.95,-317.86 176.71,-311.2 174.36,-317.79"/>
</g>
<!-- Node5 -->
<g id="node5" class="node">
<title>Node5</title>
<g id="a_node5"><a xlink:href="nmea__parser_8cpp.html#a113615295f150c16f895c9e2525bbd6e" target="_top" xlink:title=" ">
<polygon fill="white" stroke="black" points="191,-278.5 191,-297.5 253,-297.5 253,-278.5 191,-278.5"/>
<text text-anchor="middle" x="222" y="-285.5" font-family="Helvetica,sans-Serif" font-size="10.00">parse_EW</text>
</a>
</g>
</g>
<!-- Node1&#45;&gt;Node5 -->
<g id="edge4" class="edge">
<title>Node1&#45;&gt;Node5</title>
<path fill="none" stroke="midnightblue" d="M85.34,-227.13C104.51,-239.61 133.21,-257.14 160,-269 166.69,-271.96 173.99,-274.66 181.14,-277.03"/>
<polygon fill="midnightblue" stroke="midnightblue" points="180.12,-280.38 190.71,-280.06 182.23,-273.71 180.12,-280.38"/>
</g>
<!-- Node6 -->
<g id="node6" class="node">
<title>Node6</title>
<g id="a_node6"><a xlink:href="nmea__parser_8cpp.html#ac534d920f6775ddb34453e554699e1b4" target="_top" xlink:title=" ">
<polygon fill="white" stroke="black" points="189.5,-240.5 189.5,-259.5 254.5,-259.5 254.5,-240.5 189.5,-240.5"/>
<text text-anchor="middle" x="222" y="-247.5" font-family="Helvetica,sans-Serif" font-size="10.00">parse_float</text>
</a>
</g>
</g>
<!-- Node1&#45;&gt;Node6 -->
<g id="edge5" class="edge">
<title>Node1&#45;&gt;Node6</title>
<path fill="none" stroke="midnightblue" d="M124.09,-226.69C142.5,-231.12 162.28,-235.88 179.14,-239.93"/>
<polygon fill="midnightblue" stroke="midnightblue" points="178.68,-243.42 189.22,-242.36 180.31,-236.61 178.68,-243.42"/>
</g>
<!-- Node7 -->
<g id="node7" class="node">
<title>Node7</title>
<g id="a_node7"><a xlink:href="nmea__parser_8cpp.html#a21e8f85a497e58ad08d5c473e89a8463" target="_top" xlink:title=" ">
<polygon fill="white" stroke="black" points="187.5,-202.5 187.5,-221.5 256.5,-221.5 256.5,-202.5 187.5,-202.5"/>
<text text-anchor="middle" x="222" y="-209.5" font-family="Helvetica,sans-Serif" font-size="10.00">parse_latlon</text>
</a>
</g>
</g>
<!-- Node1&#45;&gt;Node7 -->
<g id="edge6" class="edge">
<title>Node1&#45;&gt;Node7</title>
<path fill="none" stroke="midnightblue" d="M124.09,-212C141.75,-212 160.68,-212 177.08,-212"/>
<polygon fill="midnightblue" stroke="midnightblue" points="177.45,-215.5 187.45,-212 177.45,-208.5 177.45,-215.5"/>
</g>
<!-- Node8 -->
<g id="node8" class="node">
<title>Node8</title>
<g id="a_node8"><a xlink:href="nmea__parser_8cpp.html#a18bf596259e1849f3b6bdbdd765ab606" target="_top" xlink:title=" ">
<polygon fill="white" stroke="black" points="192,-164.5 192,-183.5 252,-183.5 252,-164.5 192,-164.5"/>
<text text-anchor="middle" x="222" y="-171.5" font-family="Helvetica,sans-Serif" font-size="10.00">parse_NS</text>
</a>
</g>
</g>
<!-- Node1&#45;&gt;Node8 -->
<g id="edge7" class="edge">
<title>Node1&#45;&gt;Node8</title>
<path fill="none" stroke="midnightblue" d="M124.09,-197.31C143.54,-192.63 164.53,-187.58 181.98,-183.39"/>
<polygon fill="midnightblue" stroke="midnightblue" points="182.9,-186.76 191.8,-181.02 181.26,-179.96 182.9,-186.76"/>
</g>
<!-- Node9 -->
<g id="node9" class="node">
<title>Node9</title>
<g id="a_node9"><a xlink:href="nmea__parser_8cpp.html#a202c8d748e820b33d2fb1a324710698b" target="_top" xlink:title=" ">
<polygon fill="white" stroke="black" points="189.5,-126.5 189.5,-145.5 254.5,-145.5 254.5,-126.5 189.5,-126.5"/>
<text text-anchor="middle" x="222" y="-133.5" font-family="Helvetica,sans-Serif" font-size="10.00">parse_time</text>
</a>
</g>
</g>
<!-- Node1&#45;&gt;Node9 -->
<g id="edge8" class="edge">
<title>Node1&#45;&gt;Node9</title>
<path fill="none" stroke="midnightblue" d="M85.34,-196.87C104.51,-184.39 133.21,-166.86 160,-155 166.27,-152.23 173.07,-149.68 179.77,-147.42"/>
<polygon fill="midnightblue" stroke="midnightblue" points="181.01,-150.7 189.46,-144.32 178.87,-144.04 181.01,-150.7"/>
</g>
<!-- Node10 -->
<g id="node10" class="node">
<title>Node10</title>
<g id="a_node10"><a xlink:href="nmea__parser_8cpp.html#af7a3600deec155122015fcfedfc126a7" target="_top" xlink:title=" ">
<polygon fill="white" stroke="black" points="180.5,-88.5 180.5,-107.5 263.5,-107.5 263.5,-88.5 180.5,-88.5"/>
<text text-anchor="middle" x="222" y="-95.5" font-family="Helvetica,sans-Serif" font-size="10.00">report_success</text>
</a>
</g>
</g>
<!-- Node1&#45;&gt;Node10 -->
<g id="edge9" class="edge">
<title>Node1&#45;&gt;Node10</title>
<path fill="none" stroke="midnightblue" d="M74.5,-196.91C91.15,-176.04 123.98,-138.52 160,-117 163.59,-114.86 167.44,-112.93 171.41,-111.21"/>
<polygon fill="midnightblue" stroke="midnightblue" points="172.74,-114.45 180.78,-107.55 170.19,-107.93 172.74,-114.45"/>
</g>
<!-- Node11 -->
<g id="node11" class="node">
<title>Node11</title>
<g id="a_node11"><a xlink:href="class_g_p_r_m_c_sentence_parser.html#a75afdae2ce4e8a27676d86ef2f5cbf9f" target="_top" xlink:title=" ">
<polygon fill="white" stroke="black" points="160,-39 160,-69 284,-69 284,-39 160,-39"/>
<text text-anchor="start" x="168" y="-57" font-family="Helvetica,sans-Serif" font-size="10.00">GPRMCSentenceParser</text>
<text text-anchor="middle" x="222" y="-46" font-family="Helvetica,sans-Serif" font-size="10.00">::sentence</text>
</a>
</g>
</g>
<!-- Node1&#45;&gt;Node11 -->
<g id="edge10" class="edge">
<title>Node1&#45;&gt;Node11</title>
<path fill="none" stroke="midnightblue" d="M70.5,-196.72C84.53,-169.53 117.26,-112.5 160,-79 162.28,-77.21 164.71,-75.53 167.23,-73.96"/>
<polygon fill="midnightblue" stroke="midnightblue" points="169.06,-76.94 176.08,-69.01 165.65,-70.83 169.06,-76.94"/>
</g>
<!-- Node12 -->
<g id="node12" class="node">
<title>Node12</title>
<g id="a_node12"><a xlink:href="class_observable_value.html#a51cf25d4951d3214021da0c25985838d" target="_top" xlink:title=" ">
<polygon fill="white" stroke="black" points="167,-0.5 167,-19.5 277,-19.5 277,-0.5 167,-0.5"/>
<text text-anchor="middle" x="222" y="-7.5" font-family="Helvetica,sans-Serif" font-size="10.00">ObservableValue::set</text>
</a>
</g>
</g>
<!-- Node1&#45;&gt;Node12 -->
<g id="edge11" class="edge">
<title>Node1&#45;&gt;Node12</title>
<path fill="none" stroke="midnightblue" d="M66.88,-196.82C76.53,-162.09 104.91,-76.31 160,-30 162.68,-27.74 165.63,-25.74 168.73,-23.96"/>
<polygon fill="midnightblue" stroke="midnightblue" points="170.36,-27.06 177.8,-19.52 167.28,-20.78 170.36,-27.06"/>
</g>
</g>
</svg>
