<?xml version="1.0" encoding="UTF-8" standalone="no"?>
<!DOCTYPE svg PUBLIC "-//W3C//DTD SVG 1.1//EN"
 "http://www.w3.org/Graphics/SVG/1.1/DTD/svg11.dtd">
<!-- Generated by graphviz version 14.1.4 (20260321.0153)
 -->
<!-- Title: sensesp::SensESPBaseApp::get_hostname Pages: 1 -->
<!--zoomable 517 -->

<svg id="main" version="1.1" xmlns="http://www.w3.org/2000/svg" xmlns:xlink="http://www.w3.org/1999/xlink" xml:space="preserve" onload="init(evt)">

<style type="text/css"><![CDATA[
.node, .edge {opacity: 0.7;}
.node.selected, .edge.selected {opacity: 1;}
.edge:hover path { stroke: red; }
.edge:hover polygon { stroke: red; fill: red; }
]]></style>

<defs>
  <circle id="rim" cx="0" cy="0" r="7"/>
  <circle id="rim2" cx="0" cy="0" r="3.5"/>
  <g id="zoomPlus">
    <use xlink:href="#rim" fill="#404040"><set attributeName="fill" to="#808080" begin="zoomplus.mouseover" end="zoomplus.mouseout"/></use>
    <path d="M-4,0h8M0,-4v8" fill="none" stroke="white" stroke-width="1.5" pointer-events="none"/>
  </g>
  <g id="zoomMin">
    <use xlink:href="#rim" fill="#404040"><set attributeName="fill" to="#808080" begin="zoomminus.mouseover" end="zoomminus.mouseout"/></use>
    <path d="M-4,0h8" fill="none" stroke="white" stroke-width="1.5" pointer-events="none"/>
  </g>
  <g id="arrowUp" transform="translate(30 24)">
    <use xlink:href="#rim"/>
    <path pointer-events="none" fill="none" stroke="white" stroke-width="1.5" d="M0,-3.0v7 M-2.5,-0.5L0,-3.0L2.5,-0.5"/>
  </g>
  <g id="arrowRight" transform="rotate(90) translate(36 -43)">
    <use xlink:href="#rim"/>
    <path pointer-events="none" fill="none" stroke="white" stroke-width="1.5" d="M0,-3.0v7 M-2.5,-0.5L0,-3.0L2.5,-0.5"/>
  </g>
  <g id="arrowDown" transform="rotate(180) translate(-30 -48)">
    <use xlink:href="#rim"/>
    <path pointer-events="none" fill="none" stroke="white" stroke-width="1.5" d="M0,-3.0v7 M-2.5,-0.5L0,-3.0L2.5,-0.5"/>
  </g>
  <g id="arrowLeft" transform="rotate(270) translate(-36 17)">
    <use xlink:href="#rim"/>
    <path pointer-events="none" fill="none" stroke="white" stroke-width="1.5" d="M0,-3.0v7 M-2.5,-0.5L0,-3.0L2.5,-0.5"/>
  </g>
  <g id="resetDef">
    <use xlink:href="#rim2" fill="#404040"><set attributeName="fill" to="#808080" begin="reset.mouseover" end="reset.mouseout"/></use>
  </g>
</defs>
<script type="application/ecmascript">
var viewWidth = 686;
var viewHeight = 517;
var sectionId = 'dynsection-6';
</script>
<script type="application/ecmascript" xlink:href="svg.min.js"/>
<svg id="graph" class="graph">
<g id="viewport">
<title>sensesp::SensESPBaseApp::get_hostname</title>
<!-- Node1 -->
<g id="Node000001" class="node">
<title>Node1</title>
<g id="a_Node000001"><a xlink:title="Get the current hostname.">
<polygon fill="#999999" stroke="#666666" points="677.5,-263.5 536.25,-263.5 536.25,-233 677.5,-233 677.5,-263.5"/>
<text xml:space="preserve" text-anchor="start" x="544.25" y="-250" font-family="Helvetica,sans-Serif" font-size="10.00">sensesp::SensESPBaseApp</text>
<text xml:space="preserve" text-anchor="middle" x="606.88" y="-238.75" font-family="Helvetica,sans-Serif" font-size="10.00">::get_hostname</text>
</a>
</g>
</g>
<!-- Node2 -->
<g id="Node000002" class="node">
<title>Node2</title>
<g id="a_Node000002"><a xlink:href="classsensesp_1_1_access_point_settings.html#a227c5c2badd0846e3f5b503cbe071460" target="_top" xlink:title=" ">
<polygon fill="white" stroke="#666666" points="500.25,-508.5 350,-508.5 350,-478 500.25,-478 500.25,-508.5"/>
<text xml:space="preserve" text-anchor="start" x="358" y="-495" font-family="Helvetica,sans-Serif" font-size="10.00">sensesp::AccessPointSettings</text>
<text xml:space="preserve" text-anchor="middle" x="425.12" y="-483.75" font-family="Helvetica,sans-Serif" font-size="10.00">::AccessPointSettings</text>
</a>
</g>
</g>
<!-- Node1&#45;&gt;Node2 -->
<g id="edge1_Node000001_Node000002" class="edge">
<title>Node1&#45;&gt;Node2</title>
<g id="a_edge1_Node000001_Node000002"><a xlink:title=" ">
<path fill="none" stroke="#63b8ff" d="M600.22,-274.93C589.11,-320.92 560.11,-415.29 500.25,-468.25 496.18,-471.85 491.57,-474.93 486.7,-477.58"/>
<polygon fill="#63b8ff" stroke="#63b8ff" points="603.6,-275.83 602.44,-265.3 596.78,-274.25 603.6,-275.83"/>
</a>
</g>
</g>
<!-- Node5 -->
<g id="Node000005" class="node">
<title>Node5</title>
<g id="a_Node000005"><a xlink:href="classsensesp_1_1_h_t_t_p_server.html#abe7816441bad464171468fa70bd68c34" target="_top" xlink:title=" ">
<polygon fill="white" stroke="#666666" points="481.88,-459.5 368.38,-459.5 368.38,-429 481.88,-429 481.88,-459.5"/>
<text xml:space="preserve" text-anchor="start" x="376.38" y="-446" font-family="Helvetica,sans-Serif" font-size="10.00">sensesp::HTTPServer</text>
<text xml:space="preserve" text-anchor="middle" x="425.12" y="-434.75" font-family="Helvetica,sans-Serif" font-size="10.00">::from_json</text>
</a>
</g>
</g>
<!-- Node1&#45;&gt;Node5 -->
<g id="edge4_Node000001_Node000005" class="edge">
<title>Node1&#45;&gt;Node5</title>
<g id="a_edge4_Node000001_Node000005"><a xlink:title=" ">
<path fill="none" stroke="#63b8ff" d="M596.34,-274.53C581.47,-311.94 549.27,-380.3 500.25,-419.25 494.83,-423.56 488.62,-427.14 482.16,-430.12"/>
<polygon fill="#63b8ff" stroke="#63b8ff" points="599.53,-275.99 599.85,-265.4 593,-273.48 599.53,-275.99"/>
</a>
</g>
</g>
<!-- Node6 -->
<g id="Node000006" class="node">
<title>Node6</title>
<g id="a_Node000006"><a xlink:href="classsensesp_1_1_s_k_delta_queue.html#a5d0a0117f4a4ad134313063a18fdf084" target="_top" xlink:title=" ">
<polygon fill="white" stroke="#666666" points="487.12,-410.5 363.12,-410.5 363.12,-380 487.12,-380 487.12,-410.5"/>
<text xml:space="preserve" text-anchor="start" x="371.12" y="-397" font-family="Helvetica,sans-Serif" font-size="10.00">sensesp::SKDeltaQueue</text>
<text xml:space="preserve" text-anchor="middle" x="425.12" y="-385.75" font-family="Helvetica,sans-Serif" font-size="10.00">::get_deltas</text>
</a>
</g>
</g>
<!-- Node1&#45;&gt;Node6 -->
<g id="edge5_Node000001_Node000006" class="edge">
<title>Node1&#45;&gt;Node6</title>
<g id="a_edge5_Node000001_Node000006"><a xlink:title=" ">
<path fill="none" stroke="#63b8ff" d="M590.39,-273C572.03,-300.44 538.99,-344.24 500.25,-370.25 494.95,-373.81 489.1,-376.9 483.08,-379.58"/>
<polygon fill="#63b8ff" stroke="#63b8ff" points="593.1,-275.25 595.64,-264.96 587.24,-271.42 593.1,-275.25"/>
</a>
</g>
</g>
<!-- Node8 -->
<g id="Node000008" class="node">
<title>Node8</title>
<g id="a_Node000008"><a xlink:href="classsensesp_1_1_h_t_t_p_server.html#ad582006382529c29bc52b8773b8362c7" target="_top" xlink:title=" ">
<polygon fill="white" stroke="#666666" points="481.88,-361.5 368.38,-361.5 368.38,-331 481.88,-331 481.88,-361.5"/>
<text xml:space="preserve" text-anchor="start" x="376.38" y="-348" font-family="Helvetica,sans-Serif" font-size="10.00">sensesp::HTTPServer</text>
<text xml:space="preserve" text-anchor="middle" x="425.12" y="-336.75" font-family="Helvetica,sans-Serif" font-size="10.00">::HTTPServer</text>
</a>
</g>
</g>
<!-- Node1&#45;&gt;Node8 -->
<g id="edge7_Node000001_Node000008" class="edge">
<title>Node1&#45;&gt;Node8</title>
<g id="a_edge7_Node000001_Node000008"><a xlink:title=" ">
<path fill="none" stroke="#63b8ff" d="M577.58,-271.06C557.06,-286.78 528.11,-307.27 500.25,-321.25 493.45,-324.66 486.08,-327.78 478.71,-330.56"/>
<polygon fill="#63b8ff" stroke="#63b8ff" points="579.73,-273.83 585.47,-264.93 575.43,-268.3 579.73,-273.83"/>
</a>
</g>
</g>
<!-- Node11 -->
<g id="Node000011" class="node">
<title>Node11</title>
<g id="a_Node000011"><a xlink:href="classsensesp_1_1_m_d_n_s_discovery.html#a92a5eea6085988a188e9d4b7ec887ea2" target="_top" xlink:title=" ">
<polygon fill="white" stroke="#666666" points="491.62,-312.5 358.62,-312.5 358.62,-282 491.62,-282 491.62,-312.5"/>
<text xml:space="preserve" text-anchor="start" x="366.62" y="-299" font-family="Helvetica,sans-Serif" font-size="10.00">sensesp::MDNSDiscovery</text>
<text xml:space="preserve" text-anchor="middle" x="425.12" y="-287.75" font-family="Helvetica,sans-Serif" font-size="10.00">::MDNSDiscovery</text>
</a>
</g>
</g>
<!-- Node1&#45;&gt;Node11 -->
<g id="edge12_Node000001_Node000011" class="edge">
<title>Node1&#45;&gt;Node11</title>
<g id="a_edge12_Node000001_Node000011"><a xlink:title=" ">
<path fill="none" stroke="#63b8ff" d="M537.4,-266.92C519.75,-271.73 500.92,-276.86 483.87,-281.51"/>
<polygon fill="#63b8ff" stroke="#63b8ff" points="538.32,-270.29 547.05,-264.29 536.48,-263.54 538.32,-270.29"/>
</a>
</g>
</g>
<!-- Node12 -->
<g id="Node000012" class="node">
<title>Node12</title>
<g id="a_Node000012"><a xlink:href="classsensesp_1_1_s_k_w_s_client.html#a59a57e892f602b940b6c7c15ec49ca52" target="_top" xlink:title=" ">
<polygon fill="white" stroke="#666666" points="483.75,-263.5 366.5,-263.5 366.5,-233 483.75,-233 483.75,-263.5"/>
<text xml:space="preserve" text-anchor="start" x="374.5" y="-250" font-family="Helvetica,sans-Serif" font-size="10.00">sensesp::SKWSClient</text>
<text xml:space="preserve" text-anchor="middle" x="425.12" y="-238.75" font-family="Helvetica,sans-Serif" font-size="10.00">::send_access_request</text>
</a>
</g>
</g>
<!-- Node1&#45;&gt;Node12 -->
<g id="edge13_Node000001_Node000012" class="edge">
<title>Node1&#45;&gt;Node12</title>
<g id="a_edge13_Node000001_Node000012"><a xlink:title=" ">
<path fill="none" stroke="#63b8ff" d="M524.49,-248.25C510.84,-248.25 496.93,-248.25 484.03,-248.25"/>
<polygon fill="#63b8ff" stroke="#63b8ff" points="524.35,-251.75 534.35,-248.25 524.35,-244.75 524.35,-251.75"/>
</a>
</g>
</g>
<!-- Node15 -->
<g id="Node000015" class="node">
<title>Node15</title>
<g id="a_Node000015"><a xlink:href="classsensesp_1_1_h_t_t_p_server.html#a588a5f674d00d2a1313d8a7b9cd35fbc" target="_top" xlink:title=" ">
<polygon fill="white" stroke="#666666" points="481.88,-214.5 368.38,-214.5 368.38,-184 481.88,-184 481.88,-214.5"/>
<text xml:space="preserve" text-anchor="start" x="376.38" y="-201" font-family="Helvetica,sans-Serif" font-size="10.00">sensesp::HTTPServer</text>
<text xml:space="preserve" text-anchor="middle" x="425.12" y="-189.75" font-family="Helvetica,sans-Serif" font-size="10.00">::set_auth_credentials</text>
</a>
</g>
</g>
<!-- Node1&#45;&gt;Node15 -->
<g id="edge17_Node000001_Node000015" class="edge">
<title>Node1&#45;&gt;Node15</title>
<g id="a_edge17_Node000001_Node000015"><a xlink:title=" ">
<path fill="none" stroke="#63b8ff" d="M537.63,-229.65C519.38,-224.67 499.86,-219.35 482.33,-214.57"/>
<polygon fill="#63b8ff" stroke="#63b8ff" points="536.48,-232.96 547.05,-232.21 538.32,-226.21 536.48,-232.96"/>
</a>
</g>
</g>
<!-- Node16 -->
<g id="Node000016" class="node">
<title>Node16</title>
<g id="a_Node000016"><a xlink:href="classsensesp_1_1_sens_e_s_p_app.html#a49534d134dbae3ce35f4bac5879a8640" target="_top" xlink:title="Perform initialization of SensESPApp once builder configuration is done.">
<polygon fill="white" stroke="#666666" points="483.75,-165.5 366.5,-165.5 366.5,-135 483.75,-135 483.75,-165.5"/>
<text xml:space="preserve" text-anchor="start" x="374.5" y="-152" font-family="Helvetica,sans-Serif" font-size="10.00">sensesp::SensESPApp</text>
<text xml:space="preserve" text-anchor="middle" x="425.12" y="-140.75" font-family="Helvetica,sans-Serif" font-size="10.00">::setup</text>
</a>
</g>
</g>
<!-- Node1&#45;&gt;Node16 -->
<g id="edge18_Node000001_Node000016" class="edge">
<title>Node1&#45;&gt;Node16</title>
<g id="a_edge18_Node000001_Node000016"><a xlink:title=" ">
<path fill="none" stroke="#63b8ff" d="M577.58,-225.44C557.06,-209.72 528.11,-189.23 500.25,-175.25 493.45,-171.84 486.08,-168.72 478.71,-165.94"/>
<polygon fill="#63b8ff" stroke="#63b8ff" points="575.43,-228.2 585.47,-231.57 579.73,-222.67 575.43,-228.2"/>
</a>
</g>
</g>
<!-- Node17 -->
<g id="Node000017" class="node">
<title>Node17</title>
<g id="a_Node000017"><a xlink:href="classsensesp_1_1_wi_fi_provisioner.html#a0732d545d98a4f5ba67e15cd17bfe7c9" target="_top" xlink:title=" ">
<polygon fill="white" stroke="#666666" points="489,-116.5 361.25,-116.5 361.25,-86 489,-86 489,-116.5"/>
<text xml:space="preserve" text-anchor="start" x="369.25" y="-103" font-family="Helvetica,sans-Serif" font-size="10.00">sensesp::WiFiProvisioner</text>
<text xml:space="preserve" text-anchor="middle" x="425.12" y="-91.75" font-family="Helvetica,sans-Serif" font-size="10.00">::start_access_point</text>
</a>
</g>
</g>
<!-- Node1&#45;&gt;Node17 -->
<g id="edge19_Node000001_Node000017" class="edge">
<title>Node1&#45;&gt;Node17</title>
<g id="a_edge19_Node000001_Node000017"><a xlink:title=" ">
<path fill="none" stroke="#63b8ff" d="M590.39,-223.5C572.03,-196.06 538.99,-152.26 500.25,-126.25 494.95,-122.69 489.1,-119.6 483.08,-116.92"/>
<polygon fill="#63b8ff" stroke="#63b8ff" points="587.24,-225.08 595.64,-231.54 593.1,-221.25 587.24,-225.08"/>
</a>
</g>
</g>
<!-- Node18 -->
<g id="Node000018" class="node">
<title>Node18</title>
<g id="a_Node000018"><a xlink:href="classsensesp_1_1_wi_fi_provisioner.html#aba8548e442f3d97931927c8a31f5e7a4" target="_top" xlink:title=" ">
<polygon fill="white" stroke="#666666" points="302.75,-73.5 175,-73.5 175,-43 302.75,-43 302.75,-73.5"/>
<text xml:space="preserve" text-anchor="start" x="183" y="-60" font-family="Helvetica,sans-Serif" font-size="10.00">sensesp::WiFiProvisioner</text>
<text xml:space="preserve" text-anchor="middle" x="238.88" y="-48.75" font-family="Helvetica,sans-Serif" font-size="10.00">::WiFiProvisioner</text>
</a>
</g>
</g>
<!-- Node1&#45;&gt;Node18 -->
<g id="edge23_Node000001_Node000018" class="edge">
<title>Node1&#45;&gt;Node18</title>
<g id="a_edge23_Node000001_Node000018"><a xlink:title=" ">
<path fill="none" stroke="#63b8ff" d="M598.13,-221.96C585.06,-182.79 554.58,-110.2 500.25,-77.25 440.76,-41.17 359,-41.53 303.06,-47.6"/>
<polygon fill="#63b8ff" stroke="#63b8ff" points="594.74,-222.83 601.11,-231.3 601.41,-220.71 594.74,-222.83"/>
</a>
</g>
</g>
<!-- Node19 -->
<g id="Node000019" class="node">
<title>Node19</title>
<g id="a_Node000019"><a xlink:href="classsensesp_1_1_wi_fi_provisioner.html#adfbeba136d5434140a26e62d2eeceae1" target="_top" xlink:title=" ">
<polygon fill="white" stroke="#666666" points="489.38,-30.5 360.88,-30.5 360.88,0 489.38,0 489.38,-30.5"/>
<text xml:space="preserve" text-anchor="start" x="368.88" y="-17" font-family="Helvetica,sans-Serif" font-size="10.00">sensesp::WiFiProvisioner</text>
<text xml:space="preserve" text-anchor="middle" x="425.12" y="-5.75" font-family="Helvetica,sans-Serif" font-size="10.00">::start_client_autoconnect</text>
</a>
</g>
</g>
<!-- Node1&#45;&gt;Node19 -->
<g id="edge21_Node000001_Node000019" class="edge">
<title>Node1&#45;&gt;Node19</title>
<g id="a_edge21_Node000001_Node000019"><a xlink:title=" ">
<path fill="none" stroke="#63b8ff" d="M598.78,-221.66C586.01,-178.68 555.25,-93.76 500.25,-44.25 494.29,-38.89 487.23,-34.47 479.87,-30.83"/>
<polygon fill="#63b8ff" stroke="#63b8ff" points="595.38,-222.5 601.49,-231.15 602.11,-220.57 595.38,-222.5"/>
</a>
</g>
</g>
<!-- Node3 -->
<g id="Node000003" class="node">
<title>Node3</title>
<g id="a_Node000003"><a xlink:href="classsensesp_1_1_access_point_settings.html#a1d26085b98cdf68b1fb5607454fd83a0" target="_top" xlink:title=" ">
<polygon fill="white" stroke="#666666" points="314,-508.5 163.75,-508.5 163.75,-478 314,-478 314,-508.5"/>
<text xml:space="preserve" text-anchor="start" x="171.75" y="-495" font-family="Helvetica,sans-Serif" font-size="10.00">sensesp::AccessPointSettings</text>
<text xml:space="preserve" text-anchor="middle" x="238.88" y="-483.75" font-family="Helvetica,sans-Serif" font-size="10.00">::from_json</text>
</a>
</g>
</g>
<!-- Node2&#45;&gt;Node3 -->
<g id="edge2_Node000002_Node000003" class="edge">
<title>Node2&#45;&gt;Node3</title>
<g id="a_edge2_Node000002_Node000003"><a xlink:title=" ">
<path fill="none" stroke="#63b8ff" d="M338.39,-493.25C330.33,-493.25 322.21,-493.25 314.26,-493.25"/>
<polygon fill="#63b8ff" stroke="#63b8ff" points="338.2,-496.75 348.2,-493.25 338.2,-489.75 338.2,-496.75"/>
</a>
</g>
</g>
<!-- Node4 -->
<g id="Node000004" class="node">
<title>Node4</title>
<g id="a_Node000004"><a xlink:href="classsensesp_1_1_wi_fi_provisioner.html#a1a61fb854d502b5d9740087344be414f" target="_top" xlink:title=" ">
<polygon fill="white" stroke="#666666" points="127.75,-508.5 0,-508.5 0,-478 127.75,-478 127.75,-508.5"/>
<text xml:space="preserve" text-anchor="start" x="8" y="-495" font-family="Helvetica,sans-Serif" font-size="10.00">sensesp::WiFiProvisioner</text>
<text xml:space="preserve" text-anchor="middle" x="63.88" y="-483.75" font-family="Helvetica,sans-Serif" font-size="10.00">::from_json</text>
</a>
</g>
</g>
<!-- Node3&#45;&gt;Node4 -->
<g id="edge3_Node000003_Node000004" class="edge">
<title>Node3&#45;&gt;Node4</title>
<g id="a_edge3_Node000003_Node000004"><a xlink:title=" ">
<path fill="none" stroke="#63b8ff" d="M151.94,-493.25C143.92,-493.25 135.89,-493.25 128.13,-493.25"/>
<polygon fill="#63b8ff" stroke="#63b8ff" points="151.74,-496.75 161.74,-493.25 151.74,-489.75 151.74,-496.75"/>
</a>
</g>
</g>
<!-- Node7 -->
<g id="Node000007" class="node">
<title>Node7</title>
<g id="a_Node000007"><a xlink:href="classsensesp_1_1_s_k_delta_queue.html#a26dc17fc9fa31804552240f81efa35ac" target="_top" xlink:title=" ">
<polygon fill="white" stroke="#666666" points="300.88,-410.5 176.88,-410.5 176.88,-380 300.88,-380 300.88,-410.5"/>
<text xml:space="preserve" text-anchor="start" x="184.88" y="-397" font-family="Helvetica,sans-Serif" font-size="10.00">sensesp::SKDeltaQueue</text>
<text xml:space="preserve" text-anchor="middle" x="238.88" y="-385.75" font-family="Helvetica,sans-Serif" font-size="10.00">::get_delta</text>
</a>
</g>
</g>
<!-- Node6&#45;&gt;Node7 -->
<g id="edge6_Node000006_Node000007" class="edge">
<title>Node6&#45;&gt;Node7</title>
<g id="a_edge6_Node000006_Node000007"><a xlink:title=" ">
<path fill="none" stroke="#63b8ff" d="M351.45,-395.25C334.84,-395.25 317.35,-395.25 301.27,-395.25"/>
<polygon fill="#63b8ff" stroke="#63b8ff" points="351.26,-398.75 361.26,-395.25 351.26,-391.75 351.26,-398.75"/>
</a>
</g>
</g>
<!-- Node9 -->
<g id="Node000009" class="node">
<title>Node9</title>
<g id="a_Node000009"><a xlink:href="classsensesp_1_1_h_t_t_p_server.html#a770fed412b33e5ce744c496c9fb50ced" target="_top" xlink:title=" ">
<polygon fill="white" stroke="#666666" points="301.25,-361.5 176.5,-361.5 176.5,-331 301.25,-331 301.25,-361.5"/>
<text xml:space="preserve" text-anchor="start" x="184.5" y="-348" font-family="Helvetica,sans-Serif" font-size="10.00">sensesp::HTTPServer</text>
<text xml:space="preserve" text-anchor="middle" x="238.88" y="-336.75" font-family="Helvetica,sans-Serif" font-size="10.00">::call_request_dispatcher</text>
</a>
</g>
</g>
<!-- Node8&#45;&gt;Node9 -->
<g id="edge8_Node000008_Node000009" class="edge">
<title>Node8&#45;&gt;Node9</title>
<g id="a_edge8_Node000008_Node000009"><a xlink:title=" ">
<path fill="none" stroke="#63b8ff" d="M356.79,-339.72C338.8,-339.39 319.43,-339.43 301.75,-339.83"/>
<polygon fill="#63b8ff" stroke="#63b8ff" points="356.5,-343.22 366.58,-339.95 356.66,-336.22 356.5,-343.22"/>
</a>
</g>
</g>
<!-- Node9&#45;&gt;Node8 -->
<g id="edge11_Node000009_Node000008" class="edge">
<title>Node9&#45;&gt;Node8</title>
<g id="a_edge11_Node000009_Node000008"><a xlink:title=" ">
<path fill="none" stroke="#63b8ff" d="M313,-352.87C331.34,-353.12 350.73,-353.01 368.09,-352.52"/>
<polygon fill="#63b8ff" stroke="#63b8ff" points="313.32,-349.38 303.26,-352.69 313.19,-356.37 313.32,-349.38"/>
</a>
</g>
</g>
<!-- Node10 -->
<g id="Node000010" class="node">
<title>Node10</title>
<g id="a_Node000010"><a xlink:href="classsensesp_1_1_h_t_t_p_server.html#a09f55d0afb8ff4d4c5f552db5fc6ee1a" target="_top" xlink:title="Dispatcher method that captures all requests and forwards them to the appropriate handlers.">
<polygon fill="white" stroke="#666666" points="120.62,-361.5 7.12,-361.5 7.12,-331 120.62,-331 120.62,-361.5"/>
<text xml:space="preserve" text-anchor="start" x="15.12" y="-348" font-family="Helvetica,sans-Serif" font-size="10.00">sensesp::HTTPServer</text>
<text xml:space="preserve" text-anchor="middle" x="63.88" y="-336.75" font-family="Helvetica,sans-Serif" font-size="10.00">::dispatch_request</text>
</a>
</g>
</g>
<!-- Node9&#45;&gt;Node10 -->
<g id="edge9_Node000009_Node000010" class="edge">
<title>Node9&#45;&gt;Node10</title>
<g id="a_edge9_Node000009_Node000010"><a xlink:title=" ">
<path fill="none" stroke="#63b8ff" d="M165.22,-339.58C150.43,-339.41 135.08,-339.51 120.96,-339.89"/>
<polygon fill="#63b8ff" stroke="#63b8ff" points="164.83,-343.07 174.88,-339.73 164.94,-336.07 164.83,-343.07"/>
</a>
</g>
</g>
<!-- Node10&#45;&gt;Node9 -->
<g id="edge10_Node000010_Node000009" class="edge">
<title>Node10&#45;&gt;Node9</title>
<g id="a_edge10_Node000010_Node000009"><a xlink:title=" ">
<path fill="none" stroke="#63b8ff" d="M132.4,-352.85C146.9,-353.08 162.14,-353.04 176.39,-352.74"/>
<polygon fill="#63b8ff" stroke="#63b8ff" points="132.55,-349.36 122.48,-352.65 132.4,-356.35 132.55,-349.36"/>
</a>
</g>
</g>
<!-- Node13 -->
<g id="Node000013" class="node">
<title>Node13</title>
<g id="a_Node000013"><a xlink:href="classsensesp_1_1_s_k_w_s_client.html#a71c4787c20640979d0f21e722fdf161a" target="_top" xlink:title=" ">
<polygon fill="white" stroke="#666666" points="121,-264.5 6.75,-264.5 6.75,-234 121,-234 121,-264.5"/>
<text xml:space="preserve" text-anchor="start" x="14.75" y="-251" font-family="Helvetica,sans-Serif" font-size="10.00">sensesp::SKWSClient</text>
<text xml:space="preserve" text-anchor="middle" x="63.88" y="-239.75" font-family="Helvetica,sans-Serif" font-size="10.00">::connect</text>
</a>
</g>
</g>
<!-- Node12&#45;&gt;Node13 -->
<g id="edge14_Node000012_Node000013" class="edge">
<title>Node12&#45;&gt;Node13</title>
<g id="a_edge14_Node000012_Node000013"><a xlink:title=" ">
<path fill="none" stroke="#63b8ff" d="M354.89,-250.42C341.34,-250.77 327.22,-251.07 314,-251.25 247.23,-252.16 230.52,-251.93 163.75,-251.25 150.02,-251.11 135.21,-250.86 121.34,-250.59"/>
<polygon fill="#63b8ff" stroke="#63b8ff" points="354.7,-253.93 364.61,-250.17 354.52,-246.93 354.7,-253.93"/>
</a>
</g>
</g>
<!-- Node14 -->
<g id="Node000014" class="node">
<title>Node14</title>
<g id="a_Node000014"><a xlink:href="classsensesp_1_1_s_k_w_s_client.html#ab063bdb9564b0c6c564bd1d5573a9631" target="_top" xlink:title=" ">
<polygon fill="white" stroke="#666666" points="296,-242.5 181.75,-242.5 181.75,-212 296,-212 296,-242.5"/>
<text xml:space="preserve" text-anchor="start" x="189.75" y="-229" font-family="Helvetica,sans-Serif" font-size="10.00">sensesp::SKWSClient</text>
<text xml:space="preserve" text-anchor="middle" x="238.88" y="-217.75" font-family="Helvetica,sans-Serif" font-size="10.00">::test_token</text>
</a>
</g>
</g>
<!-- Node12&#45;&gt;Node14 -->
<g id="edge15_Node000012_Node000014" class="edge">
<title>Node12&#45;&gt;Node14</title>
<g id="a_edge15_Node000012_Node000014"><a xlink:title=" ">
<path fill="none" stroke="#63b8ff" d="M354.9,-240.36C335.59,-238.16 314.85,-235.8 296.37,-233.69"/>
<polygon fill="#63b8ff" stroke="#63b8ff" points="354.24,-243.81 364.58,-241.46 355.04,-236.85 354.24,-243.81"/>
</a>
</g>
</g>
<!-- Node14&#45;&gt;Node13 -->
<g id="edge16_Node000014_Node000013" class="edge">
<title>Node14&#45;&gt;Node13</title>
<g id="a_edge16_Node000014_Node000013"><a xlink:title=" ">
<path fill="none" stroke="#63b8ff" d="M170.62,-235.8C154.33,-237.87 137.09,-240.07 121.35,-242.07"/>
<polygon fill="#63b8ff" stroke="#63b8ff" points="170.73,-239.32 180.21,-234.58 169.84,-232.37 170.73,-239.32"/>
</a>
</g>
</g>
<!-- Node17&#45;&gt;Node18 -->
<g id="edge20_Node000017_Node000018" class="edge">
<title>Node17&#45;&gt;Node18</title>
<g id="a_edge20_Node000017_Node000018"><a xlink:title=" ">
<path fill="none" stroke="#63b8ff" d="M349.81,-83.91C334.27,-80.28 318.03,-76.49 302.94,-72.97"/>
<polygon fill="#63b8ff" stroke="#63b8ff" points="348.97,-87.3 359.5,-86.17 350.56,-80.49 348.97,-87.3"/>
</a>
</g>
</g>
<!-- Node19&#45;&gt;Node18 -->
<g id="edge22_Node000019_Node000018" class="edge">
<title>Node19&#45;&gt;Node18</title>
<g id="a_edge22_Node000019_Node000018"><a xlink:title=" ">
<path fill="none" stroke="#63b8ff" d="M349.44,-32.68C334.11,-36.26 318.12,-39.99 303.23,-43.46"/>
<polygon fill="#63b8ff" stroke="#63b8ff" points="350.04,-36.13 358.98,-30.45 348.45,-29.32 350.04,-36.13"/>
</a>
</g>
</g>
</g>
</svg>

<g id="navigator" transform="translate(0 0)" fill="#404254">
  <rect fill="#f2f5e9" fill-opacity="0.5" stroke="#606060" stroke-width=".5" x="0" y="0" width="60" height="60"/>
  <use id="zoomplus" xlink:href="#zoomPlus" x="17" y="9" onmousedown="handleZoom(evt,'in')"/>
  <use id="zoomminus" xlink:href="#zoomMin" x="42" y="9" onmousedown="handleZoom(evt,'out')"/>
  <use id="reset" xlink:href="#resetDef" x="30" y="36" onmousedown="handleReset()"/>
   <use id="arrowup" xlink:href="#arrowUp" x="0" y="0" onmousedown="handlePan(0,-1)"/>
  <use id="arrowright" xlink:href="#arrowRight" x="0" y="0" onmousedown="handlePan(1,0)"/>
  <use id="arrowdown" xlink:href="#arrowDown" x="0" y="0" onmousedown="handlePan(0,1)"/>
  <use id="arrowleft" xlink:href="#arrowLeft" x="0" y="0" onmousedown="handlePan(-1,0)"/>
</g>
<svg viewBox="0 0 15 15" width="100%" height="30px" preserveAspectRatio="xMaxYMin meet">
 <g id="arrow_out" transform="scale(0.3 0.3)">
  <a xlink:href="classsensesp_1_1_sens_e_s_p_base_app_a21ba3dc3ef0056c32ad5a67e1ae5ff16_icgraph_org.svg" target="_base">
   <rect id="button" ry="5" rx="5" y="6" x="6" height="38" width="38"
        fill="#f2f5e9" fill-opacity="0.5" stroke="#606060" stroke-width="1.0"/>
   <path id="arrow"
     d="M 11.500037,31.436501 C 11.940474,20.09759 22.043105,11.32322 32.158766,21.979434 L 37.068811,17.246167 C 37.068811,17.246167 37.088388,32 37.088388,32 L 22.160133,31.978069 C 22.160133,31.978069 26.997745,27.140456 26.997745,27.140456 C 18.528582,18.264221 13.291696,25.230495 11.500037,31.436501 z"
     style="fill:#404040;"/>
  </a>
 </g>
</svg>

<style type='text/css'>
<![CDATA[
[data-mouse-over-selected='false'] { opacity: 0.7; }
[data-mouse-over-selected='true']  { opacity: 1.0; }
]]>
</style>
<script type="application/ecmascript"><![CDATA[
document.addEventListener('DOMContentLoaded', (event) => {
  highlightEdges();
  highlightAdjacentNodes();
});
]]></script>
</svg>
