<?xml version="1.0" encoding="UTF-8" standalone="no"?>
<!DOCTYPE svg PUBLIC "-//W3C//DTD SVG 1.1//EN"
 "http://www.w3.org/Graphics/SVG/1.1/DTD/svg11.dtd">
<!-- Generated by graphviz version 14.1.4 (20260321.0153)
 -->
<!-- Title: sensesp::WiFiProvisioner::from_json Pages: 1 -->
<svg width="882pt" height="174pt"
 viewBox="0.00 0.00 882.00 174.00" xmlns="http://www.w3.org/2000/svg" xmlns:xlink="http://www.w3.org/1999/xlink">
<g id="graph0" class="graph" transform="scale(1 1) rotate(0) translate(4 169.5)">
<title>sensesp::WiFiProvisioner::from_json</title>
<!-- Node1 -->
<g id="Node000001" class="node">
<title>Node1</title>
<g id="a_Node000001"><a xlink:title=" ">
<polygon fill="#999999" stroke="#666666" points="127.75,-100.5 0,-100.5 0,-70 127.75,-70 127.75,-100.5"/>
<text xml:space="preserve" text-anchor="start" x="8" y="-87" font-family="Helvetica,sans-Serif" font-size="10.00">sensesp::WiFiProvisioner</text>
<text xml:space="preserve" text-anchor="middle" x="63.88" y="-75.75" font-family="Helvetica,sans-Serif" font-size="10.00">::from_json</text>
</a>
</g>
</g>
<!-- Node2 -->
<g id="Node000002" class="node">
<title>Node2</title>
<g id="a_Node000002"><a xlink:href="classsensesp_1_1_access_point_settings.html#a1d26085b98cdf68b1fb5607454fd83a0" target="_top" xlink:title=" ">
<polygon fill="white" stroke="#666666" points="314,-165.5 163.75,-165.5 163.75,-135 314,-135 314,-165.5"/>
<text xml:space="preserve" text-anchor="start" x="171.75" y="-152" font-family="Helvetica,sans-Serif" font-size="10.00">sensesp::AccessPointSettings</text>
<text xml:space="preserve" text-anchor="middle" x="238.88" y="-140.75" font-family="Helvetica,sans-Serif" font-size="10.00">::from_json</text>
</a>
</g>
</g>
<!-- Node1&#45;&gt;Node2 -->
<g id="edge1_Node000001_Node000002" class="edge">
<title>Node1&#45;&gt;Node2</title>
<g id="a_edge1_Node000001_Node000002"><a xlink:title=" ">
<path fill="none" stroke="#63b8ff" d="M106.75,-100.98C130.47,-109.89 160.34,-121.12 185.58,-130.6"/>
<polygon fill="#63b8ff" stroke="#63b8ff" points="184.07,-133.77 194.67,-134.02 186.54,-127.22 184.07,-133.77"/>
</a>
</g>
</g>
<!-- Node5 -->
<g id="Node000005" class="node">
<title>Node5</title>
<g id="a_Node000005"><a xlink:href="classsensesp_1_1_sens_e_s_p_base_app.html#add2c67bb55d095ab9c64f44ab2e82612" target="_top" xlink:title="Get the singleton instance of the SensESPBaseApp.">
<polygon fill="white" stroke="#666666" points="874.25,-137.88 713.5,-137.88 713.5,-118.62 874.25,-118.62 874.25,-137.88"/>
<text xml:space="preserve" text-anchor="middle" x="793.88" y="-124.38" font-family="Helvetica,sans-Serif" font-size="10.00">sensesp::SensESPBaseApp::get</text>
</a>
</g>
</g>
<!-- Node1&#45;&gt;Node5 -->
<g id="edge7_Node000001_Node000005" class="edge">
<title>Node1&#45;&gt;Node5</title>
<g id="a_edge7_Node000001_Node000005"><a xlink:title=" ">
<path fill="none" stroke="#63b8ff" d="M128.21,-88.99C257.42,-96.62 551.85,-114.01 701.66,-122.86"/>
<polygon fill="#63b8ff" stroke="#63b8ff" points="701.37,-126.35 711.56,-123.45 701.79,-119.36 701.37,-126.35"/>
</a>
</g>
</g>
<!-- Node6 -->
<g id="Node000006" class="node">
<title>Node6</title>
<g id="a_Node000006"><a xlink:href="classsensesp_1_1_client_s_s_i_d_config.html#a54c78249be4dd0824fa318a7a37dec81" target="_top" xlink:title=" ">
<polygon fill="white" stroke="#666666" points="307.25,-79.5 170.5,-79.5 170.5,-49 307.25,-49 307.25,-79.5"/>
<text xml:space="preserve" text-anchor="start" x="178.5" y="-66" font-family="Helvetica,sans-Serif" font-size="10.00">sensesp::ClientSSIDConfig</text>
<text xml:space="preserve" text-anchor="middle" x="238.88" y="-54.75" font-family="Helvetica,sans-Serif" font-size="10.00">::from_json</text>
</a>
</g>
</g>
<!-- Node1&#45;&gt;Node6 -->
<g id="edge5_Node000001_Node000006" class="edge">
<title>Node1&#45;&gt;Node6</title>
<g id="a_edge5_Node000001_Node000006"><a xlink:title=" ">
<path fill="none" stroke="#63b8ff" d="M127.82,-77.61C137.9,-76.39 148.43,-75.11 158.82,-73.85"/>
<polygon fill="#63b8ff" stroke="#63b8ff" points="159.01,-77.35 168.51,-72.67 158.16,-70.4 159.01,-77.35"/>
</a>
</g>
</g>
<!-- Node8 -->
<g id="Node000008" class="node">
<title>Node8</title>
<g id="a_Node000008"><a xlink:href="classsensesp_1_1_wi_fi_provisioner.html#ad2eedda78c59acb373dce52b793c2cbc" target="_top" xlink:title=" ">
<polygon fill="white" stroke="#666666" points="302.75,-30.5 175,-30.5 175,0 302.75,0 302.75,-30.5"/>
<text xml:space="preserve" text-anchor="start" x="183" y="-17" font-family="Helvetica,sans-Serif" font-size="10.00">sensesp::WiFiProvisioner</text>
<text xml:space="preserve" text-anchor="middle" x="238.88" y="-5.75" font-family="Helvetica,sans-Serif" font-size="10.00">::ssid</text>
</a>
</g>
</g>
<!-- Node1&#45;&gt;Node8 -->
<g id="edge8_Node000001_Node000008" class="edge">
<title>Node1&#45;&gt;Node8</title>
<g id="a_edge8_Node000001_Node000008"><a xlink:title=" ">
<path fill="none" stroke="#63b8ff" d="M97.03,-69.61C116.19,-60.54 141.12,-49.19 163.75,-40.25 168.42,-38.4 173.29,-36.57 178.21,-34.78"/>
<polygon fill="#63b8ff" stroke="#63b8ff" points="179.3,-38.11 187.55,-31.46 176.95,-31.51 179.3,-38.11"/>
</a>
</g>
</g>
<!-- Node3 -->
<g id="Node000003" class="node">
<title>Node3</title>
<g id="a_Node000003"><a xlink:href="classsensesp_1_1_access_point_settings.html#a227c5c2badd0846e3f5b503cbe071460" target="_top" xlink:title=" ">
<polygon fill="white" stroke="#666666" points="500.25,-165.5 350,-165.5 350,-135 500.25,-135 500.25,-165.5"/>
<text xml:space="preserve" text-anchor="start" x="358" y="-152" font-family="Helvetica,sans-Serif" font-size="10.00">sensesp::AccessPointSettings</text>
<text xml:space="preserve" text-anchor="middle" x="425.12" y="-140.75" font-family="Helvetica,sans-Serif" font-size="10.00">::AccessPointSettings</text>
</a>
</g>
</g>
<!-- Node2&#45;&gt;Node3 -->
<g id="edge2_Node000002_Node000003" class="edge">
<title>Node2&#45;&gt;Node3</title>
<g id="a_edge2_Node000002_Node000003"><a xlink:title=" ">
<path fill="none" stroke="#63b8ff" d="M314.29,-150.25C322.23,-150.25 330.35,-150.25 338.41,-150.25"/>
<polygon fill="#63b8ff" stroke="#63b8ff" points="338.22,-153.75 348.22,-150.25 338.22,-146.75 338.22,-153.75"/>
</a>
</g>
</g>
<!-- Node4 -->
<g id="Node000004" class="node">
<title>Node4</title>
<g id="a_Node000004"><a xlink:href="classsensesp_1_1_sens_e_s_p_base_app.html#a21ba3dc3ef0056c32ad5a67e1ae5ff16" target="_top" xlink:title="Get the current hostname.">
<polygon fill="white" stroke="#666666" points="677.5,-165.5 536.25,-165.5 536.25,-135 677.5,-135 677.5,-165.5"/>
<text xml:space="preserve" text-anchor="start" x="544.25" y="-152" font-family="Helvetica,sans-Serif" font-size="10.00">sensesp::SensESPBaseApp</text>
<text xml:space="preserve" text-anchor="middle" x="606.88" y="-140.75" font-family="Helvetica,sans-Serif" font-size="10.00">::get_hostname</text>
</a>
</g>
</g>
<!-- Node3&#45;&gt;Node4 -->
<g id="edge3_Node000003_Node000004" class="edge">
<title>Node3&#45;&gt;Node4</title>
<g id="a_edge3_Node000003_Node000004"><a xlink:title=" ">
<path fill="none" stroke="#63b8ff" d="M500.53,-150.25C508.48,-150.25 516.59,-150.25 524.6,-150.25"/>
<polygon fill="#63b8ff" stroke="#63b8ff" points="524.34,-153.75 534.34,-150.25 524.34,-146.75 524.34,-153.75"/>
</a>
</g>
</g>
<!-- Node4&#45;&gt;Node5 -->
<g id="edge4_Node000004_Node000005" class="edge">
<title>Node4&#45;&gt;Node5</title>
<g id="a_edge4_Node000004_Node000005"><a xlink:title=" ">
<path fill="none" stroke="#63b8ff" d="M677.82,-141.93C685.67,-141 693.76,-140.04 701.84,-139.08"/>
<polygon fill="#63b8ff" stroke="#63b8ff" points="702.2,-142.56 711.72,-137.9 701.37,-135.61 702.2,-142.56"/>
</a>
</g>
</g>
<!-- Node7 -->
<g id="Node000007" class="node">
<title>Node7</title>
<g id="a_Node000007"><a xlink:href="classsensesp_1_1_client_s_s_i_d_config.html#af79fe8f478b6a46c6fdadbaaf7dabb0b" target="_top" xlink:title=" ">
<polygon fill="white" stroke="#666666" points="493.5,-79.5 356.75,-79.5 356.75,-49 493.5,-49 493.5,-79.5"/>
<text xml:space="preserve" text-anchor="start" x="364.75" y="-66" font-family="Helvetica,sans-Serif" font-size="10.00">sensesp::ClientSSIDConfig</text>
<text xml:space="preserve" text-anchor="middle" x="425.12" y="-54.75" font-family="Helvetica,sans-Serif" font-size="10.00">::ClientSSIDConfig</text>
</a>
</g>
</g>
<!-- Node6&#45;&gt;Node7 -->
<g id="edge6_Node000006_Node000007" class="edge">
<title>Node6&#45;&gt;Node7</title>
<g id="a_edge6_Node000006_Node000007"><a xlink:title=" ">
<path fill="none" stroke="#63b8ff" d="M307.7,-64.25C319.87,-64.25 332.66,-64.25 345.12,-64.25"/>
<polygon fill="#63b8ff" stroke="#63b8ff" points="344.93,-67.75 354.93,-64.25 344.93,-60.75 344.93,-67.75"/>
</a>
</g>
</g>
</g>
</svg>
