<?xml version="1.0" encoding="UTF-8" standalone="no"?>
<!DOCTYPE svg PUBLIC "-//W3C//DTD SVG 1.1//EN"
 "http://www.w3.org/Graphics/SVG/1.1/DTD/svg11.dtd">
<!-- Generated by graphviz version 2.44.1 (20200629.0846)
 -->
<!-- Title: Configurable Pages: 1 -->
<svg width="778pt" height="1353pt"
 viewBox="0.00 0.00 778.00 1352.80" xmlns="http://www.w3.org/2000/svg" xmlns:xlink="http://www.w3.org/1999/xlink">
<g id="graph0" class="graph" transform="scale(1 1) rotate(0) translate(4 1348.8)">
<title>Configurable</title>
<polygon fill="white" stroke="transparent" points="-4,4 -4,-1348.8 774,-1348.8 774,4 -4,4"/>
<!-- Node0 -->
<g id="node1" class="node">
<title>Node0</title>
<g id="a_node1"><a xlink:title="An object that is capable of having configuration data that can be set remotely using a RESTful API,...">
<polygon fill="#bfbfbf" stroke="black" points="0,-898.3 0,-917.3 71,-917.3 71,-898.3 0,-898.3"/>
<text text-anchor="middle" x="35.5" y="-905.3" font-family="Helvetica,sans-Serif" font-size="10.00">Configurable</text>
</a>
</g>
</g>
<!-- Node1 -->
<g id="node2" class="node">
<title>Node1</title>
<g id="a_node2"><a xlink:href="class_networking.html" target="_top" xlink:title="Manages the ESP&#39;s connection to the Wifi network.">
<polygon fill="white" stroke="black" points="127,-1009.3 127,-1028.3 193,-1028.3 193,-1009.3 127,-1009.3"/>
<text text-anchor="middle" x="160" y="-1016.3" font-family="Helvetica,sans-Serif" font-size="10.00">Networking</text>
</a>
</g>
</g>
<!-- Node0&#45;&gt;Node1 -->
<g id="edge1" class="edge">
<title>Node0&#45;&gt;Node1</title>
<path fill="none" stroke="midnightblue" d="M46.63,-926.32C58.74,-946.9 80.83,-979.85 108,-999.8 113.64,-1003.94 120.27,-1007.27 126.87,-1009.92"/>
<polygon fill="midnightblue" stroke="midnightblue" points="49.64,-924.53 41.64,-917.57 43.55,-928 49.64,-924.53"/>
</g>
<!-- Node2 -->
<g id="node3" class="node">
<title>Node2</title>
<g id="a_node3"><a xlink:href="class_rgb_led.html" target="_top" xlink:title="A special device object that can be used to control a multi&#45;channel color rgb LED light using up to 3...">
<polygon fill="white" stroke="black" points="135,-971.3 135,-990.3 185,-990.3 185,-971.3 135,-971.3"/>
<text text-anchor="middle" x="160" y="-978.3" font-family="Helvetica,sans-Serif" font-size="10.00">RgbLed</text>
</a>
</g>
</g>
<!-- Node0&#45;&gt;Node2 -->
<g id="edge2" class="edge">
<title>Node0&#45;&gt;Node2</title>
<path fill="none" stroke="midnightblue" d="M55.25,-924.37C69.09,-935.99 88.8,-951.27 108,-961.8 116.37,-966.39 126.07,-970.32 134.75,-973.39"/>
<polygon fill="midnightblue" stroke="midnightblue" points="57.31,-921.53 47.44,-917.68 52.76,-926.84 57.31,-921.53"/>
</g>
<!-- Node3 -->
<g id="node4" class="node">
<title>Node3</title>
<g id="a_node4"><a xlink:href="class_sensor.html" target="_top" xlink:title="The base class for all sensors. Used only as a base class &#45; never instantiated directly in a project.">
<polygon fill="white" stroke="black" points="136.5,-933.3 136.5,-952.3 183.5,-952.3 183.5,-933.3 136.5,-933.3"/>
<text text-anchor="middle" x="160" y="-940.3" font-family="Helvetica,sans-Serif" font-size="10.00">Sensor</text>
</a>
</g>
</g>
<!-- Node0&#45;&gt;Node3 -->
<g id="edge3" class="edge">
<title>Node0&#45;&gt;Node3</title>
<path fill="none" stroke="midnightblue" d="M79.7,-920.14C98.83,-925.61 120.54,-931.81 136.41,-936.34"/>
<polygon fill="midnightblue" stroke="midnightblue" points="80.55,-916.75 69.97,-917.36 78.63,-923.48 80.55,-916.75"/>
</g>
<!-- Node30 -->
<g id="node30" class="node">
<title>Node30</title>
<g id="a_node30"><a xlink:href="class_s_k_put_request_base.html" target="_top" xlink:title="A base class for all template variations of the PUT request class SKPutRequest. This base class keeps...">
<polygon fill="white" stroke="black" points="108,-857.3 108,-876.3 212,-876.3 212,-857.3 108,-857.3"/>
<text text-anchor="middle" x="160" y="-864.3" font-family="Helvetica,sans-Serif" font-size="10.00">SKPutRequestBase</text>
</a>
</g>
</g>
<!-- Node0&#45;&gt;Node30 -->
<g id="edge29" class="edge">
<title>Node0&#45;&gt;Node30</title>
<path fill="none" stroke="midnightblue" d="M74.54,-895.07C92.55,-889.04 113.69,-881.96 130.32,-876.4"/>
<polygon fill="midnightblue" stroke="midnightblue" points="73.28,-891.8 64.91,-898.29 75.51,-898.44 73.28,-891.8"/>
</g>
<!-- Node32 -->
<g id="node32" class="node">
<title>Node32</title>
<g id="a_node32"><a xlink:href="class_transform_base.html" target="_top" xlink:title="The base class for all transforms. A transforms takes a value in, transforms it in some way,...">
<polygon fill="white" stroke="black" points="118.5,-469.3 118.5,-488.3 201.5,-488.3 201.5,-469.3 118.5,-469.3"/>
<text text-anchor="middle" x="160" y="-476.3" font-family="Helvetica,sans-Serif" font-size="10.00">TransformBase</text>
</a>
</g>
</g>
<!-- Node0&#45;&gt;Node32 -->
<g id="edge31" class="edge">
<title>Node0&#45;&gt;Node32</title>
<path fill="none" stroke="midnightblue" d="M42.04,-888.41C63.49,-813.28 140.74,-542.75 156.27,-488.36"/>
<polygon fill="midnightblue" stroke="midnightblue" points="38.67,-887.46 39.29,-898.03 45.4,-889.38 38.67,-887.46"/>
</g>
<!-- Node87 -->
<g id="node49" class="node">
<title>Node87</title>
<g id="a_node49"><a xlink:href="class_w_s_client.html" target="_top" xlink:title="The websocket connection to the Signal K server.">
<polygon fill="white" stroke="black" points="130.5,-431.3 130.5,-450.3 189.5,-450.3 189.5,-431.3 130.5,-431.3"/>
<text text-anchor="middle" x="160" y="-438.3" font-family="Helvetica,sans-Serif" font-size="10.00">WSClient</text>
</a>
</g>
</g>
<!-- Node0&#45;&gt;Node87 -->
<g id="edge59" class="edge">
<title>Node0&#45;&gt;Node87</title>
<path fill="none" stroke="midnightblue" d="M37.08,-887.9C39.73,-810.02 53.06,-526.89 108,-459.8 113.63,-452.93 122,-448.54 130.34,-445.74"/>
<polygon fill="midnightblue" stroke="midnightblue" points="33.57,-888.11 36.75,-898.21 40.57,-888.33 33.57,-888.11"/>
</g>
<!-- Node4 -->
<g id="node5" class="node">
<title>Node4</title>
<g id="a_node5"><a xlink:href="class_dallas_temperature_sensors.html" target="_top" xlink:title="Finds all 1&#45;Wire temperature sensors that are connected to the ESP and makes the address(es) and temp...">
<polygon fill="white" stroke="black" points="249,-857.3 249,-876.3 383,-876.3 383,-857.3 249,-857.3"/>
<text text-anchor="middle" x="316" y="-864.3" font-family="Helvetica,sans-Serif" font-size="10.00">DallasTemperatureSensors</text>
</a>
</g>
</g>
<!-- Node3&#45;&gt;Node4 -->
<g id="edge4" class="edge">
<title>Node3&#45;&gt;Node4</title>
<path fill="none" stroke="midnightblue" d="M181.33,-927.15C198.55,-914.52 224.32,-897.05 249,-885.8 257.14,-882.09 266.17,-878.93 274.88,-876.3"/>
<polygon fill="midnightblue" stroke="midnightblue" points="179.07,-924.47 173.15,-933.26 183.25,-930.08 179.07,-924.47"/>
</g>
<!-- Node5 -->
<g id="node6" class="node">
<title>Node5</title>
<g id="a_node6"><a xlink:href="class_digital_input.html" target="_top" xlink:title="DigitalInput is the base class for reading a digital GPIO pin.">
<polygon fill="white" stroke="black" points="283,-1268.3 283,-1287.3 349,-1287.3 349,-1268.3 283,-1268.3"/>
<text text-anchor="middle" x="316" y="-1275.3" font-family="Helvetica,sans-Serif" font-size="10.00">DigitalInput</text>
</a>
</g>
</g>
<!-- Node3&#45;&gt;Node5 -->
<g id="edge5" class="edge">
<title>Node3&#45;&gt;Node5</title>
<path fill="none" stroke="midnightblue" d="M193.26,-949.28C200.29,-952.08 207.09,-956.08 212,-961.8 237.71,-991.77 220.45,-1010.49 230,-1048.8 237.28,-1078 239.15,-1085.36 249,-1113.8 269.6,-1173.25 299.53,-1242.65 310.64,-1267.95"/>
<polygon fill="midnightblue" stroke="midnightblue" points="194.26,-945.93 183.67,-946.17 192.1,-952.59 194.26,-945.93"/>
</g>
<!-- Node9 -->
<g id="node10" class="node">
<title>Node9</title>
<g id="a_node10"><a xlink:href="class_free_mem.html" target="_top" xlink:title="Reports the current amount of unused memory of the ESP.">
<polygon fill="white" stroke="black" points="287,-1085.3 287,-1104.3 345,-1104.3 345,-1085.3 287,-1085.3"/>
<text text-anchor="middle" x="316" y="-1092.3" font-family="Helvetica,sans-Serif" font-size="10.00">FreeMem</text>
</a>
</g>
</g>
<!-- Node3&#45;&gt;Node9 -->
<g id="edge9" class="edge">
<title>Node3&#45;&gt;Node9</title>
<path fill="none" stroke="midnightblue" d="M193.48,-949.94C200.3,-952.71 206.95,-956.53 212,-961.8 248.85,-1000.26 210.71,-1038.77 249,-1075.8 259.11,-1085.58 273.93,-1090.38 286.96,-1092.72"/>
<polygon fill="midnightblue" stroke="midnightblue" points="194.12,-946.47 183.53,-946.6 191.9,-953.1 194.12,-946.47"/>
</g>
<!-- Node10 -->
<g id="node11" class="node">
<title>Node10</title>
<g id="a_node11"><a xlink:href="class_g_p_s_input.html" target="_top" xlink:title="Support for a GPS module communicating with NMEA&#45;0183 messages over a serial interface.">
<polygon fill="white" stroke="black" points="286.5,-1047.3 286.5,-1066.3 345.5,-1066.3 345.5,-1047.3 286.5,-1047.3"/>
<text text-anchor="middle" x="316" y="-1054.3" font-family="Helvetica,sans-Serif" font-size="10.00">GPSInput</text>
</a>
</g>
</g>
<!-- Node3&#45;&gt;Node10 -->
<g id="edge10" class="edge">
<title>Node3&#45;&gt;Node10</title>
<path fill="none" stroke="midnightblue" d="M193.32,-950.62C200.04,-953.34 206.69,-956.98 212,-961.8 239.81,-987.05 220.24,-1013.63 249,-1037.8 259.41,-1046.55 273.63,-1051.27 286.21,-1053.82"/>
<polygon fill="midnightblue" stroke="midnightblue" points="194.16,-947.21 183.56,-947.24 191.87,-953.82 194.16,-947.21"/>
</g>
<!-- Node11 -->
<g id="node12" class="node">
<title>Node11</title>
<g id="a_node12"><a xlink:href="class_i_n_a219.html" target="_top" xlink:title="Represents an ADAfruit (or compatible) INA219 High Side DC Current Sensor.">
<polygon fill="white" stroke="black" points="291,-1009.3 291,-1028.3 341,-1028.3 341,-1009.3 291,-1009.3"/>
<text text-anchor="middle" x="316" y="-1016.3" font-family="Helvetica,sans-Serif" font-size="10.00">INA219</text>
</a>
</g>
</g>
<!-- Node3&#45;&gt;Node11 -->
<g id="edge11" class="edge">
<title>Node3&#45;&gt;Node11</title>
<path fill="none" stroke="midnightblue" d="M193,-952.25C199.55,-954.85 206.2,-958.02 212,-961.8 231.75,-974.67 228.78,-987.69 249,-999.8 261.79,-1007.46 277.82,-1012.17 290.89,-1014.98"/>
<polygon fill="midnightblue" stroke="midnightblue" points="194.2,-948.96 183.6,-948.84 191.81,-955.54 194.2,-948.96"/>
</g>
<!-- Node12 -->
<g id="node13" class="node">
<title>Node12</title>
<g id="a_node13"><a xlink:href="class_integer_sensor.html" target="_top" xlink:title="A Sensor whose output is an integer.">
<polygon fill="white" stroke="black" points="277.5,-971.3 277.5,-990.3 354.5,-990.3 354.5,-971.3 277.5,-971.3"/>
<text text-anchor="middle" x="316" y="-978.3" font-family="Helvetica,sans-Serif" font-size="10.00">IntegerSensor</text>
</a>
</g>
</g>
<!-- Node3&#45;&gt;Node12 -->
<g id="edge12" class="edge">
<title>Node3&#45;&gt;Node12</title>
<path fill="none" stroke="midnightblue" d="M193.6,-950.84C218.07,-956.88 251.62,-965.16 277.25,-971.48"/>
<polygon fill="midnightblue" stroke="midnightblue" points="194.27,-947.4 183.72,-948.41 192.59,-954.2 194.27,-947.4"/>
</g>
<!-- Node13 -->
<g id="node14" class="node">
<title>Node13</title>
<g id="a_node14"><a xlink:href="class_numeric_sensor.html" target="_top" xlink:title="A Sensor whose output is a float.">
<polygon fill="white" stroke="black" points="274,-933.3 274,-952.3 358,-952.3 358,-933.3 274,-933.3"/>
<text text-anchor="middle" x="316" y="-940.3" font-family="Helvetica,sans-Serif" font-size="10.00">NumericSensor</text>
</a>
</g>
</g>
<!-- Node3&#45;&gt;Node13 -->
<g id="edge13" class="edge">
<title>Node3&#45;&gt;Node13</title>
<path fill="none" stroke="midnightblue" d="M193.84,-942.8C217.24,-942.8 248.85,-942.8 273.92,-942.8"/>
<polygon fill="midnightblue" stroke="midnightblue" points="193.72,-939.3 183.72,-942.8 193.72,-946.3 193.72,-939.3"/>
</g>
<!-- Node28 -->
<g id="node28" class="node">
<title>Node28</title>
<g id="a_node28"><a xlink:href="class_string_sensor.html" target="_top" xlink:title="A Sensor whose output is a String.">
<polygon fill="white" stroke="black" points="279.5,-895.3 279.5,-914.3 352.5,-914.3 352.5,-895.3 279.5,-895.3"/>
<text text-anchor="middle" x="316" y="-902.3" font-family="Helvetica,sans-Serif" font-size="10.00">StringSensor</text>
</a>
</g>
</g>
<!-- Node3&#45;&gt;Node28 -->
<g id="edge27" class="edge">
<title>Node3&#45;&gt;Node28</title>
<path fill="none" stroke="midnightblue" d="M193.52,-934.78C218.66,-928.57 253.42,-919.99 279.32,-913.6"/>
<polygon fill="midnightblue" stroke="midnightblue" points="192.59,-931.4 183.72,-937.19 194.27,-938.2 192.59,-931.4"/>
</g>
<!-- Node6 -->
<g id="node7" class="node">
<title>Node6</title>
<g id="a_node7"><a xlink:href="class_digital_input_change.html" target="_top" xlink:title="DigitalInputChange is meant to report when a digital pin changes its state.">
<polygon fill="white" stroke="black" points="539,-1287.3 539,-1306.3 639,-1306.3 639,-1287.3 539,-1287.3"/>
<text text-anchor="middle" x="589" y="-1294.3" font-family="Helvetica,sans-Serif" font-size="10.00">DigitalInputChange</text>
</a>
</g>
</g>
<!-- Node5&#45;&gt;Node6 -->
<g id="edge6" class="edge">
<title>Node5&#45;&gt;Node6</title>
<path fill="none" stroke="midnightblue" d="M359.33,-1280.77C407.97,-1284.18 487.64,-1289.76 538.94,-1293.36"/>
<polygon fill="midnightblue" stroke="midnightblue" points="359.37,-1277.26 349.15,-1280.05 358.88,-1284.24 359.37,-1277.26"/>
</g>
<!-- Node7 -->
<g id="node8" class="node">
<title>Node7</title>
<g id="a_node8"><a xlink:href="class_digital_input_counter.html" target="_top" xlink:title="DigitalInputCounter counts interrupts and reports the count every read_delay ms.">
<polygon fill="white" stroke="black" points="538.5,-1249.3 538.5,-1268.3 639.5,-1268.3 639.5,-1249.3 538.5,-1249.3"/>
<text text-anchor="middle" x="589" y="-1256.3" font-family="Helvetica,sans-Serif" font-size="10.00">DigitalInputCounter</text>
</a>
</g>
</g>
<!-- Node5&#45;&gt;Node7 -->
<g id="edge7" class="edge">
<title>Node5&#45;&gt;Node7</title>
<path fill="none" stroke="midnightblue" d="M359.3,-1274.83C407.77,-1271.44 487.12,-1265.87 538.45,-1262.27"/>
<polygon fill="midnightblue" stroke="midnightblue" points="358.88,-1271.35 349.15,-1275.55 359.37,-1278.34 358.88,-1271.35"/>
</g>
<!-- Node8 -->
<g id="node9" class="node">
<title>Node8</title>
<g id="a_node9"><a xlink:href="class_digital_input_state.html" target="_top" xlink:title="DigitalInputState reports the state of a digital pin every read_delay ms.">
<polygon fill="white" stroke="black" points="544.5,-1325.3 544.5,-1344.3 633.5,-1344.3 633.5,-1325.3 544.5,-1325.3"/>
<text text-anchor="middle" x="589" y="-1332.3" font-family="Helvetica,sans-Serif" font-size="10.00">DigitalInputState</text>
</a>
</g>
</g>
<!-- Node5&#45;&gt;Node8 -->
<g id="edge8" class="edge">
<title>Node5&#45;&gt;Node8</title>
<path fill="none" stroke="midnightblue" d="M359.02,-1290.08C372.38,-1293.78 387.25,-1297.67 401,-1300.8 449.75,-1311.88 506.29,-1321.76 544.33,-1327.97"/>
<polygon fill="midnightblue" stroke="midnightblue" points="359.72,-1286.64 349.14,-1287.31 357.83,-1293.38 359.72,-1286.64"/>
</g>
<!-- Node14 -->
<g id="node15" class="node">
<title>Node14</title>
<g id="a_node15"><a xlink:href="class_a_d_s1x15_raw_value.html" target="_top" xlink:title="Used to read the raw output of the ADS1x15, which is an integer between 0 and 32,768....">
<polygon fill="white" stroke="red" points="530,-1085.8 530,-1115.8 648,-1115.8 648,-1085.8 530,-1085.8"/>
<text text-anchor="start" x="538" y="-1103.8" font-family="Helvetica,sans-Serif" font-size="10.00">ADS1x15RawValue&lt; T</text>
<text text-anchor="middle" x="589" y="-1092.8" font-family="Helvetica,sans-Serif" font-size="10.00">_ads_1x15 &gt;</text>
</a>
</g>
</g>
<!-- Node13&#45;&gt;Node14 -->
<g id="edge14" class="edge">
<title>Node13&#45;&gt;Node14</title>
<path fill="none" stroke="midnightblue" d="M367.97,-951.4C373.55,-954.02 378.75,-957.41 383,-961.8 405.65,-985.18 379.38,-1008.46 401,-1032.8 436.41,-1072.67 462.81,-1057.81 513,-1075.8 522.3,-1079.13 532.31,-1082.57 541.88,-1085.79"/>
<polygon fill="midnightblue" stroke="midnightblue" points="368.87,-948 358.28,-947.68 366.36,-954.53 368.87,-948"/>
</g>
<!-- Node16 -->
<g id="node16" class="node">
<title>Node16</title>
<g id="a_node16"><a xlink:href="class_analog_input.html" target="_top" xlink:title="Sensor for reading the MCU analog input pins.">
<polygon fill="white" stroke="black" points="555,-1047.3 555,-1066.3 623,-1066.3 623,-1047.3 555,-1047.3"/>
<text text-anchor="middle" x="589" y="-1054.3" font-family="Helvetica,sans-Serif" font-size="10.00">AnalogInput</text>
</a>
</g>
</g>
<!-- Node13&#45;&gt;Node16 -->
<g id="edge15" class="edge">
<title>Node13&#45;&gt;Node16</title>
<path fill="none" stroke="midnightblue" d="M367.82,-952.18C373.35,-954.67 378.57,-957.82 383,-961.8 398.72,-975.91 385.26,-991.7 401,-1005.8 439.56,-1040.34 463.01,-1024.33 513,-1037.8 526.62,-1041.47 541.68,-1045.33 554.72,-1048.6"/>
<polygon fill="midnightblue" stroke="midnightblue" points="368.9,-948.85 358.31,-948.57 366.42,-955.39 368.9,-948.85"/>
</g>
<!-- Node17 -->
<g id="node17" class="node">
<title>Node17</title>
<g id="a_node17"><a xlink:href="class_b_m_e280_value.html" target="_top" xlink:title="BME280Value reads and outputs the specified value of a BME280 sensor.">
<polygon fill="white" stroke="black" points="550,-1009.3 550,-1028.3 628,-1028.3 628,-1009.3 550,-1009.3"/>
<text text-anchor="middle" x="589" y="-1016.3" font-family="Helvetica,sans-Serif" font-size="10.00">BME280Value</text>
</a>
</g>
</g>
<!-- Node13&#45;&gt;Node17 -->
<g id="edge16" class="edge">
<title>Node13&#45;&gt;Node17</title>
<path fill="none" stroke="midnightblue" d="M367.72,-955.04C373,-957.01 378.19,-959.25 383,-961.8 392.2,-966.68 391.66,-972.2 401,-976.8 449.05,-1000.48 510.63,-1010.99 549.71,-1015.52"/>
<polygon fill="midnightblue" stroke="midnightblue" points="368.77,-951.7 358.17,-951.8 366.51,-958.33 368.77,-951.7"/>
</g>
<!-- Node18 -->
<g id="node18" class="node">
<title>Node18</title>
<g id="a_node18"><a xlink:href="class_b_m_p280_value.html" target="_top" xlink:title="BMP280Value reads and outputs the specified value of a BMP280 sensor.">
<polygon fill="white" stroke="black" points="550,-971.3 550,-990.3 628,-990.3 628,-971.3 550,-971.3"/>
<text text-anchor="middle" x="589" y="-978.3" font-family="Helvetica,sans-Serif" font-size="10.00">BMP280Value</text>
</a>
</g>
</g>
<!-- Node13&#45;&gt;Node18 -->
<g id="edge17" class="edge">
<title>Node13&#45;&gt;Node18</title>
<path fill="none" stroke="midnightblue" d="M368.49,-951.69C379.22,-953.46 390.47,-955.25 401,-956.8 452.49,-964.39 512.15,-971.81 549.98,-976.34"/>
<polygon fill="midnightblue" stroke="midnightblue" points="368.83,-948.2 358.39,-950.02 367.69,-955.11 368.83,-948.2"/>
</g>
<!-- Node19 -->
<g id="node19" class="node">
<title>Node19</title>
<g id="a_node19"><a xlink:href="class_i_n_a219_value.html" target="_top" xlink:title="INA219Value reads and outputs the specified value of an INA219 sensor.">
<polygon fill="white" stroke="black" points="552,-933.3 552,-952.3 626,-952.3 626,-933.3 552,-933.3"/>
<text text-anchor="middle" x="589" y="-940.3" font-family="Helvetica,sans-Serif" font-size="10.00">INA219Value</text>
</a>
</g>
</g>
<!-- Node13&#45;&gt;Node19 -->
<g id="edge18" class="edge">
<title>Node13&#45;&gt;Node19</title>
<path fill="none" stroke="midnightblue" d="M368.47,-942.8C422.03,-942.8 504.54,-942.8 551.67,-942.8"/>
<polygon fill="midnightblue" stroke="midnightblue" points="368.16,-939.3 358.16,-942.8 368.16,-946.3 368.16,-939.3"/>
</g>
<!-- Node20 -->
<g id="node20" class="node">
<title>Node20</title>
<g id="a_node20"><a xlink:href="class_m_a_x31856_thermocouple.html" target="_top" xlink:title="Reads the temperature from an Adafruit MAX31856 (or compatible) thermocouple breakout board....">
<polygon fill="white" stroke="black" points="526,-895.3 526,-914.3 652,-914.3 652,-895.3 526,-895.3"/>
<text text-anchor="middle" x="589" y="-902.3" font-family="Helvetica,sans-Serif" font-size="10.00">MAX31856Thermocouple</text>
</a>
</g>
</g>
<!-- Node13&#45;&gt;Node20 -->
<g id="edge19" class="edge">
<title>Node13&#45;&gt;Node20</title>
<path fill="none" stroke="midnightblue" d="M368.23,-935.62C412.97,-929.34 478.05,-920.22 525.78,-913.52"/>
<polygon fill="midnightblue" stroke="midnightblue" points="367.58,-932.17 358.16,-937.03 368.55,-939.11 367.58,-932.17"/>
</g>
<!-- Node21 -->
<g id="node21" class="node">
<title>Node21</title>
<g id="a_node21"><a xlink:href="class_one_wire_temperature.html" target="_top" xlink:title="Used to read the temperature from a single 1&#45;Wire temperature sensor. If you have X sensors connected...">
<polygon fill="white" stroke="black" points="534.5,-857.3 534.5,-876.3 643.5,-876.3 643.5,-857.3 534.5,-857.3"/>
<text text-anchor="middle" x="589" y="-864.3" font-family="Helvetica,sans-Serif" font-size="10.00">OneWireTemperature</text>
</a>
</g>
</g>
<!-- Node13&#45;&gt;Node21 -->
<g id="edge20" class="edge">
<title>Node13&#45;&gt;Node21</title>
<path fill="none" stroke="midnightblue" d="M365.52,-930.2C371.48,-928.26 377.43,-926.11 383,-923.8 391.45,-920.29 392.49,-917.17 401,-913.8 444.74,-896.5 496.79,-884.03 534.86,-876.3"/>
<polygon fill="midnightblue" stroke="midnightblue" points="364.06,-926.99 355.55,-933.29 366.14,-933.68 364.06,-926.99"/>
</g>
<!-- Node22 -->
<g id="node22" class="node">
<title>Node22</title>
<g id="a_node22"><a xlink:href="class_read9_d_o_f.html" target="_top" xlink:title="sets up the combo FXOS8700 + FXAS21002 sensor and outputs the specified orientation parameter value.">
<polygon fill="white" stroke="black" points="556,-819.3 556,-838.3 622,-838.3 622,-819.3 556,-819.3"/>
<text text-anchor="middle" x="589" y="-826.3" font-family="Helvetica,sans-Serif" font-size="10.00">Read9DOF</text>
</a>
</g>
</g>
<!-- Node13&#45;&gt;Node22 -->
<g id="edge21" class="edge">
<title>Node13&#45;&gt;Node22</title>
<path fill="none" stroke="midnightblue" d="M367.76,-933.35C373.3,-930.87 378.53,-927.74 383,-923.8 398.23,-910.36 385.87,-895.35 401,-881.8 439.75,-847.1 462.88,-861.75 513,-847.8 526.98,-843.91 542.51,-839.92 555.8,-836.61"/>
<polygon fill="midnightblue" stroke="midnightblue" points="366.36,-930.14 358.24,-936.94 368.83,-936.69 366.36,-930.14"/>
</g>
<!-- Node23 -->
<g id="node23" class="node">
<title>Node23</title>
<g id="a_node23"><a xlink:href="class_s_h_t31_value.html" target="_top" xlink:title="SHT31Value reads and outputs the specified value of an SHT31 sensor.">
<polygon fill="white" stroke="black" points="553.5,-781.3 553.5,-800.3 624.5,-800.3 624.5,-781.3 553.5,-781.3"/>
<text text-anchor="middle" x="589" y="-788.3" font-family="Helvetica,sans-Serif" font-size="10.00">SHT31Value</text>
</a>
</g>
</g>
<!-- Node13&#45;&gt;Node23 -->
<g id="edge22" class="edge">
<title>Node13&#45;&gt;Node23</title>
<path fill="none" stroke="midnightblue" d="M367.41,-934.56C373.22,-931.89 378.63,-928.39 383,-923.8 406.95,-898.68 377.64,-873.48 401,-847.8 440.28,-804.62 511.19,-793.73 553.5,-791.24"/>
<polygon fill="midnightblue" stroke="midnightblue" points="366.14,-931.3 358.02,-938.1 368.61,-937.85 366.14,-931.3"/>
</g>
<!-- Node24 -->
<g id="node24" class="node">
<title>Node24</title>
<g id="a_node24"><a xlink:href="class_system_hz.html" target="_top" xlink:title="Reports the current clock speed of the ESP.">
<polygon fill="white" stroke="black" points="557.5,-743.3 557.5,-762.3 620.5,-762.3 620.5,-743.3 557.5,-743.3"/>
<text text-anchor="middle" x="589" y="-750.3" font-family="Helvetica,sans-Serif" font-size="10.00">SystemHz</text>
</a>
</g>
</g>
<!-- Node13&#45;&gt;Node24 -->
<g id="edge23" class="edge">
<title>Node13&#45;&gt;Node24</title>
<path fill="none" stroke="midnightblue" d="M367.6,-935.03C373.44,-932.29 378.79,-928.64 383,-923.8 420.67,-880.42 362.17,-838.14 401,-795.8 440.97,-752.22 515.41,-748.4 557.31,-750.16"/>
<polygon fill="midnightblue" stroke="midnightblue" points="366.24,-931.8 358.14,-938.63 368.73,-938.35 366.24,-931.8"/>
</g>
<!-- Node25 -->
<g id="node25" class="node">
<title>Node25</title>
<g id="a_node25"><a xlink:href="class_ultrasonic_distance.html" target="_top" xlink:title="Reads a DYP&#45;A02YYWM&#45;V1.0 (and possibly other types) ultrasonic sensor and outputs the number of micro...">
<polygon fill="white" stroke="black" points="539,-1211.3 539,-1230.3 639,-1230.3 639,-1211.3 539,-1211.3"/>
<text text-anchor="middle" x="589" y="-1218.3" font-family="Helvetica,sans-Serif" font-size="10.00">UltrasonicDistance</text>
</a>
</g>
</g>
<!-- Node13&#45;&gt;Node25 -->
<g id="edge24" class="edge">
<title>Node13&#45;&gt;Node25</title>
<path fill="none" stroke="midnightblue" d="M367.6,-950.29C373.48,-953.07 378.85,-956.8 383,-961.8 410.08,-994.44 376.26,-1117.35 401,-1151.8 432.38,-1195.51 494.64,-1211.58 538.68,-1217.46"/>
<polygon fill="midnightblue" stroke="midnightblue" points="368.62,-946.94 358.03,-946.67 366.14,-953.48 368.62,-946.94"/>
</g>
<!-- Node26 -->
<g id="node26" class="node">
<title>Node26</title>
<g id="a_node26"><a xlink:href="class_uptime.html" target="_top" xlink:title="Reports the number of seconds since the last restart of the ESP.">
<polygon fill="white" stroke="black" points="565,-1173.3 565,-1192.3 613,-1192.3 613,-1173.3 565,-1173.3"/>
<text text-anchor="middle" x="589" y="-1180.3" font-family="Helvetica,sans-Serif" font-size="10.00">Uptime</text>
</a>
</g>
</g>
<!-- Node13&#45;&gt;Node26 -->
<g id="edge25" class="edge">
<title>Node13&#45;&gt;Node26</title>
<path fill="none" stroke="midnightblue" d="M367.69,-950.5C373.51,-953.25 378.84,-956.92 383,-961.8 425.71,-1011.88 362.86,-1055.16 401,-1108.8 439.44,-1162.87 523.83,-1177.44 564.79,-1181.36"/>
<polygon fill="midnightblue" stroke="midnightblue" points="368.82,-947.19 358.23,-946.89 366.32,-953.73 368.82,-947.19"/>
</g>
<!-- Node27 -->
<g id="node27" class="node">
<title>Node27</title>
<g id="a_node27"><a xlink:href="class_wifi_signal.html" target="_top" xlink:title="Reports the current strength of the wifi signal that the ESP is connected to.">
<polygon fill="white" stroke="black" points="558.5,-1135.3 558.5,-1154.3 619.5,-1154.3 619.5,-1135.3 558.5,-1135.3"/>
<text text-anchor="middle" x="589" y="-1142.3" font-family="Helvetica,sans-Serif" font-size="10.00">WifiSignal</text>
</a>
</g>
</g>
<!-- Node13&#45;&gt;Node27 -->
<g id="edge26" class="edge">
<title>Node13&#45;&gt;Node27</title>
<path fill="none" stroke="midnightblue" d="M367.67,-950.8C373.44,-953.51 378.76,-957.08 383,-961.8 414.05,-996.37 373.9,-1027.05 401,-1064.8 438.17,-1116.58 515.89,-1135.11 558.5,-1141.54"/>
<polygon fill="midnightblue" stroke="midnightblue" points="368.9,-947.53 358.31,-947.22 366.4,-954.06 368.9,-947.53"/>
</g>
<!-- Node29 -->
<g id="node29" class="node">
<title>Node29</title>
<g id="a_node29"><a xlink:href="class_i_p_addr_dev.html" target="_top" xlink:title="Reports the IP address of the ESP once it&#39;s connected to wifi.">
<polygon fill="white" stroke="black" points="557.5,-705.3 557.5,-724.3 620.5,-724.3 620.5,-705.3 557.5,-705.3"/>
<text text-anchor="middle" x="589" y="-712.3" font-family="Helvetica,sans-Serif" font-size="10.00">IPAddrDev</text>
</a>
</g>
</g>
<!-- Node28&#45;&gt;Node29 -->
<g id="edge28" class="edge">
<title>Node28&#45;&gt;Node29</title>
<path fill="none" stroke="midnightblue" d="M362.38,-899.26C370.22,-896.37 377.58,-892.1 383,-885.8 423.06,-839.25 358.66,-793.28 401,-748.8 421.99,-726.75 509.85,-718.82 557.3,-716.12"/>
<polygon fill="midnightblue" stroke="midnightblue" points="361.27,-895.94 352.68,-902.14 363.26,-902.65 361.27,-895.94"/>
</g>
<!-- Node31 -->
<g id="node31" class="node">
<title>Node31</title>
<g id="a_node31"><a xlink:href="class_s_k_put_request.html" target="_top" xlink:title="Used to send requests to the server to change the value of the specified path to a specific value acc...">
<polygon fill="white" stroke="black" points="263,-819.3 263,-838.3 369,-838.3 369,-819.3 263,-819.3"/>
<text text-anchor="middle" x="316" y="-826.3" font-family="Helvetica,sans-Serif" font-size="10.00">SKPutRequest&lt; T &gt;</text>
</a>
</g>
</g>
<!-- Node30&#45;&gt;Node31 -->
<g id="edge30" class="edge">
<title>Node30&#45;&gt;Node31</title>
<path fill="none" stroke="midnightblue" d="M209.79,-854.76C231.31,-849.45 256.23,-843.3 276.42,-838.32"/>
<polygon fill="midnightblue" stroke="midnightblue" points="208.73,-851.42 199.86,-857.21 210.41,-858.21 208.73,-851.42"/>
</g>
<!-- Node33 -->
<g id="node33" class="node">
<title>Node33</title>
<g id="a_node33"><a xlink:href="class_transform.html" target="_top" xlink:title="The main Transform class. A transform is identified primarily by the type of value that is produces (...">
<polygon fill="white" stroke="black" points="266.5,-393.3 266.5,-412.3 365.5,-412.3 365.5,-393.3 266.5,-393.3"/>
<text text-anchor="middle" x="316" y="-400.3" font-family="Helvetica,sans-Serif" font-size="10.00">Transform&lt; C, P &gt;</text>
</a>
</g>
</g>
<!-- Node32&#45;&gt;Node33 -->
<g id="edge32" class="edge">
<title>Node32&#45;&gt;Node33</title>
<path fill="none" stroke="midnightblue" d="M198.29,-465.64C202.95,-463.78 207.62,-461.82 212,-459.8 243.94,-445.11 279.45,-424.43 299.32,-412.44"/>
<polygon fill="midnightblue" stroke="midnightblue" points="196.91,-462.42 188.83,-469.28 199.42,-468.96 196.91,-462.42"/>
</g>
<!-- Node40 -->
<g id="node36" class="node">
<title>Node40</title>
<g id="a_node36"><a xlink:href="class_transform.html" target="_top" xlink:title=" ">
<polygon fill="white" stroke="red" points="528,-179.3 528,-198.3 650,-198.3 650,-179.3 528,-179.3"/>
<text text-anchor="middle" x="589" y="-186.3" font-family="Helvetica,sans-Serif" font-size="10.00">Transform&lt; float, float &gt;</text>
</a>
</g>
</g>
<!-- Node32&#45;&gt;Node40 -->
<g id="edge51" class="edge">
<title>Node32&#45;&gt;Node40</title>
<path fill="none" stroke="midnightblue" d="M208.77,-463.19C209.92,-462.14 211,-461.01 212,-459.8 243.32,-421.94 216.84,-278.95 249,-241.8 320.54,-159.16 463.7,-167.76 539.05,-179.26"/>
<polygon fill="midnightblue" stroke="midnightblue" points="206.46,-460.54 200.33,-469.18 210.51,-466.25 206.46,-460.54"/>
</g>
<!-- Node55 -->
<g id="node37" class="node">
<title>Node55</title>
<g id="a_node37"><a xlink:href="class_transform.html" target="_top" xlink:title=" ">
<polygon fill="white" stroke="red" points="531,-508.3 531,-527.3 647,-527.3 647,-508.3 531,-508.3"/>
<text text-anchor="middle" x="589" y="-515.3" font-family="Helvetica,sans-Serif" font-size="10.00">Transform&lt; IN, OUT &gt;</text>
</a>
</g>
</g>
<!-- Node32&#45;&gt;Node55 -->
<g id="edge53" class="edge">
<title>Node32&#45;&gt;Node55</title>
<path fill="none" stroke="midnightblue" d="M186.18,-493.37C242.45,-523.98 382.28,-589.25 495,-552.8 504.39,-549.76 504.14,-544.14 513,-539.8 523.36,-534.73 535.11,-530.6 546.18,-527.34"/>
<polygon fill="midnightblue" stroke="midnightblue" points="187.72,-490.22 177.28,-488.43 184.33,-496.34 187.72,-490.22"/>
</g>
<!-- Node64 -->
<g id="node38" class="node">
<title>Node64</title>
<g id="a_node38"><a xlink:href="class_transform.html" target="_top" xlink:title=" ">
<polygon fill="white" stroke="black" points="525,-658.3 525,-677.3 653,-677.3 653,-658.3 525,-658.3"/>
<text text-anchor="middle" x="589" y="-665.3" font-family="Helvetica,sans-Serif" font-size="10.00">Transform&lt; bool, String &gt;</text>
</a>
</g>
</g>
<!-- Node32&#45;&gt;Node64 -->
<g id="edge49" class="edge">
<title>Node32&#45;&gt;Node64</title>
<path fill="none" stroke="midnightblue" d="M165.9,-498.17C175.69,-532.83 200.93,-605.48 249,-644.8 335.03,-715.17 384.6,-702.68 495,-689.8 515.43,-687.42 537.89,-682.18 555.62,-677.41"/>
<polygon fill="midnightblue" stroke="midnightblue" points="169.24,-497.09 163.26,-488.35 162.48,-498.91 169.24,-497.09"/>
</g>
<!-- Node66 -->
<g id="node40" class="node">
<title>Node66</title>
<g id="a_node40"><a xlink:href="class_transform.html" target="_top" xlink:title=" ">
<polygon fill="white" stroke="red" points="532.5,-605.3 532.5,-624.3 645.5,-624.3 645.5,-605.3 532.5,-605.3"/>
<text text-anchor="middle" x="589" y="-612.3" font-family="Helvetica,sans-Serif" font-size="10.00">Transform&lt; int, bool &gt;</text>
</a>
</g>
</g>
<!-- Node32&#45;&gt;Node66 -->
<g id="edge54" class="edge">
<title>Node32&#45;&gt;Node66</title>
<path fill="none" stroke="midnightblue" d="M171.18,-497.33C185.7,-522.37 214.45,-567.16 249,-595.8 307,-643.88 327.64,-653.69 401,-670.8 441.69,-680.29 457.25,-688.69 495,-670.8 506.42,-665.39 502.98,-656.5 513,-648.8 526.71,-638.26 544.22,-630.09 558.87,-624.4"/>
<polygon fill="midnightblue" stroke="midnightblue" points="174.15,-495.47 166.17,-488.49 168.06,-498.92 174.15,-495.47"/>
</g>
<!-- Node67 -->
<g id="node41" class="node">
<title>Node67</title>
<g id="a_node41"><a xlink:href="class_transform.html" target="_top" xlink:title=" ">
<polygon fill="white" stroke="red" points="532,-549.3 532,-568.3 646,-568.3 646,-549.3 532,-549.3"/>
<text text-anchor="middle" x="589" y="-556.3" font-family="Helvetica,sans-Serif" font-size="10.00">Transform&lt; float, int &gt;</text>
</a>
</g>
</g>
<!-- Node32&#45;&gt;Node67 -->
<g id="edge52" class="edge">
<title>Node32&#45;&gt;Node67</title>
<path fill="none" stroke="midnightblue" d="M176.84,-495.94C193.44,-513.05 220.95,-539.14 249,-555.8 310.9,-592.56 330.12,-599.16 401,-611.8 442.13,-619.14 455.95,-626.65 495,-611.8 505,-608 504.12,-601.78 513,-595.8 529.26,-584.85 549.23,-575.16 564.47,-568.45"/>
<polygon fill="midnightblue" stroke="midnightblue" points="179.05,-493.18 169.62,-488.34 173.97,-498 179.05,-493.18"/>
</g>
<!-- Node68 -->
<g id="node42" class="node">
<title>Node68</title>
<g id="a_node42"><a xlink:href="class_transform.html" target="_top" xlink:title=" ">
<polygon fill="white" stroke="red" points="532,-464.3 532,-483.3 646,-483.3 646,-464.3 532,-464.3"/>
<text text-anchor="middle" x="589" y="-471.3" font-family="Helvetica,sans-Serif" font-size="10.00">Transform&lt; int, float &gt;</text>
</a>
</g>
</g>
<!-- Node32&#45;&gt;Node68 -->
<g id="edge55" class="edge">
<title>Node32&#45;&gt;Node68</title>
<path fill="none" stroke="midnightblue" d="M211.81,-485.82C277.4,-493.8 395.01,-504.43 495,-493.8 514.05,-491.77 534.93,-487.48 552.07,-483.38"/>
<polygon fill="midnightblue" stroke="midnightblue" points="212.09,-482.33 201.74,-484.57 211.23,-489.28 212.09,-482.33"/>
</g>
<!-- Node70 -->
<g id="node43" class="node">
<title>Node70</title>
<g id="a_node43"><a xlink:href="class_transform.html" target="_top" xlink:title=" ">
<polygon fill="white" stroke="red" points="528,-74.3 528,-93.3 650,-93.3 650,-74.3 528,-74.3"/>
<text text-anchor="middle" x="589" y="-81.3" font-family="Helvetica,sans-Serif" font-size="10.00">Transform&lt; float, bool &gt;</text>
</a>
</g>
</g>
<!-- Node32&#45;&gt;Node70 -->
<g id="edge50" class="edge">
<title>Node32&#45;&gt;Node70</title>
<path fill="none" stroke="midnightblue" d="M208.93,-463.21C210.03,-462.15 211.06,-461.01 212,-459.8 236.03,-428.81 222.91,-138.08 249,-108.8 327.62,-20.57 490.67,-55.08 557.96,-74.29"/>
<polygon fill="midnightblue" stroke="midnightblue" points="206.76,-460.47 200.81,-469.23 210.93,-466.09 206.76,-460.47"/>
</g>
<!-- Node71 -->
<g id="node44" class="node">
<title>Node71</title>
<g id="a_node44"><a xlink:href="class_transform.html" target="_top" xlink:title=" ">
<polygon fill="white" stroke="red" points="539,-294.8 539,-324.8 639,-324.8 639,-294.8 539,-294.8"/>
<text text-anchor="start" x="547" y="-312.8" font-family="Helvetica,sans-Serif" font-size="10.00">Transform&lt; time_t,</text>
<text text-anchor="middle" x="589" y="-301.8" font-family="Helvetica,sans-Serif" font-size="10.00"> String &gt;</text>
</a>
</g>
</g>
<!-- Node32&#45;&gt;Node71 -->
<g id="edge58" class="edge">
<title>Node32&#45;&gt;Node71</title>
<path fill="none" stroke="midnightblue" d="M206.42,-464.15C208.39,-462.82 210.27,-461.37 212,-459.8 239.81,-434.55 222.36,-410.29 249,-383.8 302.13,-330.95 327.97,-327.63 401,-310.8 446.87,-300.23 500.77,-301.31 538.89,-304.24"/>
<polygon fill="midnightblue" stroke="midnightblue" points="204.29,-461.33 197.27,-469.27 207.7,-467.44 204.29,-461.33"/>
</g>
<!-- Node74 -->
<g id="node45" class="node">
<title>Node74</title>
<g id="a_node45"><a xlink:href="class_transform.html" target="_top" xlink:title=" ">
<polygon fill="white" stroke="red" points="541.5,-242.3 541.5,-261.3 636.5,-261.3 636.5,-242.3 541.5,-242.3"/>
<text text-anchor="middle" x="589" y="-249.3" font-family="Helvetica,sans-Serif" font-size="10.00">Transform&lt; T, T &gt;</text>
</a>
</g>
</g>
<!-- Node32&#45;&gt;Node74 -->
<g id="edge57" class="edge">
<title>Node32&#45;&gt;Node74</title>
<path fill="none" stroke="midnightblue" d="M208.14,-463.52C209.52,-462.37 210.81,-461.13 212,-459.8 234.6,-434.53 226.65,-337.29 249,-311.8 322,-228.55 466.87,-234.37 541.36,-243.94"/>
<polygon fill="midnightblue" stroke="midnightblue" points="205.95,-460.78 199.54,-469.22 209.81,-466.61 205.95,-460.78"/>
</g>
<!-- Node83 -->
<g id="node46" class="node">
<title>Node83</title>
<g id="a_node46"><a xlink:href="class_transform.html" target="_top" xlink:title=" ">
<polygon fill="white" stroke="red" points="540,-116.8 540,-146.8 638,-146.8 638,-116.8 540,-116.8"/>
<text text-anchor="start" x="548" y="-134.8" font-family="Helvetica,sans-Serif" font-size="10.00">Transform&lt; String,</text>
<text text-anchor="middle" x="589" y="-123.8" font-family="Helvetica,sans-Serif" font-size="10.00"> bool &gt;</text>
</a>
</g>
</g>
<!-- Node32&#45;&gt;Node83 -->
<g id="edge56" class="edge">
<title>Node32&#45;&gt;Node83</title>
<path fill="none" stroke="midnightblue" d="M208.9,-463.18C210.01,-462.13 211.04,-461 212,-459.8 231.93,-434.71 227.85,-197.87 249,-173.8 321.04,-91.84 464.65,-106 539.73,-120.45"/>
<polygon fill="midnightblue" stroke="midnightblue" points="206.73,-460.43 200.72,-469.16 210.86,-466.08 206.73,-460.43"/>
</g>
<!-- Node85 -->
<g id="node47" class="node">
<title>Node85</title>
<g id="a_node47"><a xlink:href="class_transform.html" target="_top" xlink:title=" ">
<polygon fill="white" stroke="black" points="513,-29.3 513,-48.3 665,-48.3 665,-29.3 513,-29.3"/>
<text text-anchor="middle" x="589" y="-36.3" font-family="Helvetica,sans-Serif" font-size="10.00">Transform&lt; bool, ClickTypes &gt;</text>
</a>
</g>
</g>
<!-- Node32&#45;&gt;Node85 -->
<g id="edge48" class="edge">
<title>Node32&#45;&gt;Node85</title>
<path fill="none" stroke="midnightblue" d="M208.97,-463.24C210.06,-462.17 211.07,-461.02 212,-459.8 239.73,-423.28 215.53,-80.14 249,-48.8 336.03,32.7 497.49,-8.48 561.17,-29.25"/>
<polygon fill="midnightblue" stroke="midnightblue" points="206.79,-460.49 200.88,-469.29 210.99,-466.1 206.79,-460.49"/>
</g>
<!-- Node34 -->
<g id="node34" class="node">
<title>Node34</title>
<g id="a_node34"><a xlink:href="class_integrator_t.html" target="_top" xlink:title="Integrator integrates (accumulates) the incoming values.">
<polygon fill="white" stroke="black" points="538,-406.3 538,-425.3 640,-425.3 640,-406.3 538,-406.3"/>
<text text-anchor="middle" x="589" y="-413.3" font-family="Helvetica,sans-Serif" font-size="10.00">IntegratorT&lt; C, P &gt;</text>
</a>
</g>
</g>
<!-- Node33&#45;&gt;Node34 -->
<g id="edge33" class="edge">
<title>Node33&#45;&gt;Node34</title>
<path fill="none" stroke="midnightblue" d="M375.77,-405.62C424.13,-407.94 491.94,-411.19 537.79,-413.39"/>
<polygon fill="midnightblue" stroke="midnightblue" points="375.92,-402.12 365.76,-405.14 375.58,-409.11 375.92,-402.12"/>
</g>
<!-- Node35 -->
<g id="node35" class="node">
<title>Node35</title>
<g id="a_node35"><a xlink:href="class_threshold_transform.html" target="_top" xlink:title="A Transform base class that translates the value of type C into value of type P. Base class for class...">
<polygon fill="white" stroke="red" points="537,-356.8 537,-386.8 641,-386.8 641,-356.8 537,-356.8"/>
<text text-anchor="start" x="545" y="-374.8" font-family="Helvetica,sans-Serif" font-size="10.00">ThresholdTransform</text>
<text text-anchor="middle" x="589" y="-363.8" font-family="Helvetica,sans-Serif" font-size="10.00">&lt; C, P &gt;</text>
</a>
</g>
</g>
<!-- Node33&#45;&gt;Node35 -->
<g id="edge34" class="edge">
<title>Node33&#45;&gt;Node35</title>
<path fill="none" stroke="midnightblue" d="M375.71,-396.08C423.75,-390.59 491.01,-382.89 536.87,-377.65"/>
<polygon fill="midnightblue" stroke="midnightblue" points="375.3,-392.61 365.76,-397.22 376.1,-399.56 375.3,-392.61"/>
</g>
<!-- Node33&#45;&gt;Node40 -->
<g id="edge35" class="edge">
<title>Node33&#45;&gt;Node40</title>
<path fill="none" stroke="orange" stroke-dasharray="5,2" d="M325.11,-383.56C337.69,-355.78 364.31,-304.32 401,-272.8 414.3,-261.38 517.87,-217.79 564.9,-198.31"/>
<polygon fill="orange" stroke="orange" points="321.8,-382.4 320.99,-392.96 328.21,-385.21 321.8,-382.4"/>
<text text-anchor="middle" x="448" y="-275.8" font-family="Helvetica,sans-Serif" font-size="10.00"> &lt; float, float &gt;</text>
</g>
<!-- Node33&#45;&gt;Node55 -->
<g id="edge36" class="edge">
<title>Node33&#45;&gt;Node55</title>
<path fill="none" stroke="orange" stroke-dasharray="5,2" d="M337.08,-418.94C353.48,-431.48 377.68,-448.58 401,-459.8 448.02,-482.42 505.88,-498.77 544.68,-508.23"/>
<polygon fill="orange" stroke="orange" points="338.87,-415.89 328.83,-412.51 334.56,-421.41 338.87,-415.89"/>
<text text-anchor="middle" x="448" y="-495.8" font-family="Helvetica,sans-Serif" font-size="10.00"> &lt; IN, OUT &gt;</text>
</g>
<!-- Node33&#45;&gt;Node64 -->
<g id="edge37" class="edge">
<title>Node33&#45;&gt;Node64</title>
<path fill="none" stroke="orange" stroke-dasharray="5,2" d="M318.99,-422.62C324.28,-464.65 342.56,-563.16 401,-615.8 434.8,-646.24 484.96,-659.04 524.82,-664.33"/>
<polygon fill="orange" stroke="orange" points="322.45,-422.11 317.84,-412.57 315.5,-422.9 322.45,-422.11"/>
<text text-anchor="middle" x="448" y="-661.8" font-family="Helvetica,sans-Serif" font-size="10.00"> &lt; bool, String &gt;</text>
</g>
<!-- Node33&#45;&gt;Node66 -->
<g id="edge39" class="edge">
<title>Node33&#45;&gt;Node66</title>
<path fill="none" stroke="orange" stroke-dasharray="5,2" d="M322.12,-422.51C331.8,-455.81 355.97,-523.18 401,-559.8 438.41,-590.23 492.12,-603.82 532.38,-609.9"/>
<polygon fill="orange" stroke="orange" points="325.43,-421.32 319.39,-412.61 318.68,-423.18 325.43,-421.32"/>
<text text-anchor="middle" x="448" y="-603.8" font-family="Helvetica,sans-Serif" font-size="10.00"> &lt; int, bool &gt;</text>
</g>
<!-- Node33&#45;&gt;Node67 -->
<g id="edge40" class="edge">
<title>Node33&#45;&gt;Node67</title>
<path fill="none" stroke="orange" stroke-dasharray="5,2" d="M326.85,-421.3C340.41,-444.95 367.02,-485.48 401,-507.8 440.38,-533.66 492.61,-546.49 531.86,-552.81"/>
<polygon fill="orange" stroke="orange" points="329.78,-419.35 321.86,-412.31 323.65,-422.75 329.78,-419.35"/>
<text text-anchor="middle" x="448" y="-547.8" font-family="Helvetica,sans-Serif" font-size="10.00"> &lt; float, int &gt;</text>
</g>
<!-- Node33&#45;&gt;Node68 -->
<g id="edge41" class="edge">
<title>Node33&#45;&gt;Node68</title>
<path fill="none" stroke="orange" stroke-dasharray="5,2" d="M364.25,-414.88C400.14,-424.08 450.71,-437.12 495,-448.8 514.08,-453.83 535.33,-459.53 552.69,-464.22"/>
<polygon fill="orange" stroke="orange" points="365.09,-411.48 354.53,-412.39 363.35,-418.26 365.09,-411.48"/>
<text text-anchor="middle" x="448" y="-451.8" font-family="Helvetica,sans-Serif" font-size="10.00"> &lt; int, float &gt;</text>
</g>
<!-- Node33&#45;&gt;Node70 -->
<g id="edge42" class="edge">
<title>Node33&#45;&gt;Node70</title>
<path fill="none" stroke="orange" stroke-dasharray="5,2" d="M318.56,-382.98C323.12,-337.56 340.27,-224.72 401,-157.8 422.12,-134.53 505.99,-107.4 553.93,-93.34"/>
<polygon fill="orange" stroke="orange" points="315.07,-382.73 317.65,-393.01 322.04,-383.36 315.07,-382.73"/>
<text text-anchor="middle" x="448" y="-160.8" font-family="Helvetica,sans-Serif" font-size="10.00"> &lt; float, bool &gt;</text>
</g>
<!-- Node33&#45;&gt;Node71 -->
<g id="edge43" class="edge">
<title>Node33&#45;&gt;Node71</title>
<path fill="none" stroke="orange" stroke-dasharray="5,2" d="M347.08,-389.19C362.94,-382.3 382.82,-374.07 401,-367.8 441.97,-353.66 453.6,-354.64 495,-341.8 511.8,-336.59 530.13,-330.39 546.05,-324.85"/>
<polygon fill="orange" stroke="orange" points="345.52,-386.06 337.78,-393.29 348.34,-392.46 345.52,-386.06"/>
<text text-anchor="middle" x="448" y="-370.8" font-family="Helvetica,sans-Serif" font-size="10.00"> &lt; time_t, String &gt;</text>
</g>
<!-- Node33&#45;&gt;Node74 -->
<g id="edge44" class="edge">
<title>Node33&#45;&gt;Node74</title>
<path fill="none" stroke="orange" stroke-dasharray="5,2" d="M333,-385.74C349,-369.44 374.9,-345.03 401,-328.8 429.1,-311.32 517.21,-277.84 561.71,-261.39"/>
<polygon fill="orange" stroke="orange" points="330.41,-383.38 325.99,-393.01 335.45,-388.24 330.41,-383.38"/>
<text text-anchor="middle" x="448" y="-331.8" font-family="Helvetica,sans-Serif" font-size="10.00"> &lt; T, T &gt;</text>
</g>
<!-- Node33&#45;&gt;Node83 -->
<g id="edge45" class="edge">
<title>Node33&#45;&gt;Node83</title>
<path fill="none" stroke="orange" stroke-dasharray="5,2" d="M320.93,-383.24C329.34,-346.02 352.42,-264.38 401,-215.8 412.26,-204.54 499.2,-167.96 550.48,-146.97"/>
<polygon fill="orange" stroke="orange" points="317.45,-382.77 318.78,-393.28 324.3,-384.24 317.45,-382.77"/>
<text text-anchor="middle" x="448" y="-218.8" font-family="Helvetica,sans-Serif" font-size="10.00"> &lt; String, bool &gt;</text>
</g>
<!-- Node33&#45;&gt;Node85 -->
<g id="edge46" class="edge">
<title>Node33&#45;&gt;Node85</title>
<path fill="none" stroke="orange" stroke-dasharray="5,2" d="M316.43,-382.86C316.01,-329.28 322.4,-180.68 401,-98.8 430.04,-68.55 474.35,-53.51 512.54,-46.06"/>
<polygon fill="orange" stroke="orange" points="312.93,-383.12 316.6,-393.06 319.93,-383 312.93,-383.12"/>
<text text-anchor="middle" x="448" y="-101.8" font-family="Helvetica,sans-Serif" font-size="10.00"> &lt; bool, ClickTypes &gt;</text>
</g>
<!-- Node65 -->
<g id="node39" class="node">
<title>Node65</title>
<g id="a_node39"><a xlink:href="class_truth_to_text.html" target="_top" xlink:title="Consumes a boolean value and outputs one the appropriate truth string specified in the constructor....">
<polygon fill="white" stroke="black" points="702,-658.3 702,-677.3 770,-677.3 770,-658.3 702,-658.3"/>
<text text-anchor="middle" x="736" y="-665.3" font-family="Helvetica,sans-Serif" font-size="10.00">TruthToText</text>
</a>
</g>
</g>
<!-- Node64&#45;&gt;Node65 -->
<g id="edge38" class="edge">
<title>Node64&#45;&gt;Node65</title>
<path fill="none" stroke="midnightblue" d="M663.46,-667.8C676.94,-667.8 690.37,-667.8 701.9,-667.8"/>
<polygon fill="midnightblue" stroke="midnightblue" points="663.18,-664.3 653.18,-667.8 663.18,-671.3 663.18,-664.3"/>
</g>
<!-- Node86 -->
<g id="node48" class="node">
<title>Node86</title>
<g id="a_node48"><a xlink:href="class_click_type.html" target="_top" xlink:title="ClickType is a transform that consumes button clicks and translates them as events of type ClickTypes...">
<polygon fill="white" stroke="black" points="706,-29.3 706,-48.3 766,-48.3 766,-29.3 706,-29.3"/>
<text text-anchor="middle" x="736" y="-36.3" font-family="Helvetica,sans-Serif" font-size="10.00">ClickType</text>
</a>
</g>
</g>
<!-- Node85&#45;&gt;Node86 -->
<g id="edge47" class="edge">
<title>Node85&#45;&gt;Node86</title>
<path fill="none" stroke="midnightblue" d="M675.2,-38.8C686.16,-38.8 696.73,-38.8 705.85,-38.8"/>
<polygon fill="midnightblue" stroke="midnightblue" points="675.05,-35.3 665.05,-38.8 675.05,-42.3 675.05,-35.3"/>
</g>
</g>
</svg>
