<?xml version="1.0" encoding="UTF-8" standalone="no"?>
<!DOCTYPE svg PUBLIC "-//W3C//DTD SVG 1.1//EN"
 "http://www.w3.org/Graphics/SVG/1.1/DTD/svg11.dtd">
<!-- Generated by graphviz version 5.0.0 (20220707.1540)
 -->
<!-- Title: sensesp::WSClient::start Pages: 1 -->
<!--zoomable 220 -->
<svg id="main" version="1.1" xmlns="http://www.w3.org/2000/svg" xmlns:xlink="http://www.w3.org/1999/xlink" xml:space="preserve" onload="init(evt)">
<style type="text/css"><![CDATA[
.edge:hover path { stroke: red; }
.edge:hover polygon { stroke: red; fill: red; }
]]></style>
<script type="text/javascript"><![CDATA[
var edges = document.getElementsByTagName('g');
if (edges && edges.length) {
  for (var i=0;i<edges.length;i++) {
    if (edges[i].id.substr(0,4)=='edge') {
      edges[i].setAttribute('class','edge');
    }
  }
}
]]></script>
        <defs>
                <circle id="rim" cx="0" cy="0" r="7"/>
                <circle id="rim2" cx="0" cy="0" r="3.5"/>
                <g id="zoomPlus">
                        <use xlink:href="#rim" fill="#404040">
                                <set attributeName="fill" to="#808080" begin="zoomplus.mouseover" end="zoomplus.mouseout"/>
                        </use>
                        <path d="M-4,0h8M0,-4v8" fill="none" stroke="white" stroke-width="1.5" pointer-events="none"/>
                </g>
                <g id="zoomMin">
                        <use xlink:href="#rim" fill="#404040">
                                <set attributeName="fill" to="#808080" begin="zoomminus.mouseover" end="zoomminus.mouseout"/>
                        </use>
                        <path d="M-4,0h8" fill="none" stroke="white" stroke-width="1.5" pointer-events="none"/>
                </g>
                <g id="dirArrow">
                        <path fill="none" stroke="white" stroke-width="1.5" d="M0,-3.0v7 M-2.5,-0.5L0,-3.0L2.5,-0.5"/>
                </g>
               <g id="resetDef">
                       <use xlink:href="#rim2" fill="#404040">
                               <set attributeName="fill" to="#808080" begin="reset.mouseover" end="reset.mouseout"/>
                       </use>
               </g>
        </defs>

<script type="text/javascript">
var viewWidth = 1057;
var viewHeight = 220;
var sectionId = 'dynsection-18';
</script>
<script xlink:href="svgpan.js"/>
<svg id="graph" class="graph">
<g id="viewport">
<title>sensesp::WSClient::start</title>
<polygon fill="white" stroke="transparent" points="-4,4 -4,-216 1053,-216 1053,4 -4,4"/>
<!-- Node1 -->
<g id="node1" class="node">
<title>Node1</title>
<g id="a_node1"><a xlink:title=" ">
<polygon fill="#bfbfbf" stroke="black" points="0,-137.5 0,-167.5 107,-167.5 107,-137.5 0,-137.5"/>
<text text-anchor="start" x="8" y="-155.5" font-family="Helvetica,sans-Serif" font-size="10.00">sensesp::WSClient::</text>
<text text-anchor="middle" x="53.5" y="-144.5" font-family="Helvetica,sans-Serif" font-size="10.00">start</text>
</a>
</g>
</g>
<!-- Node2 -->
<g id="node2" class="node">
<title>Node2</title>
<g id="a_node2"><a xlink:href="namespacesensesp.html#a922a4380d70b3a01a7e117644805de09" target="_top" xlink:title=" ">
<polygon fill="white" stroke="black" points="143,-143 143,-162 310,-162 310,-143 143,-143"/>
<text text-anchor="middle" x="226.5" y="-150" font-family="Helvetica,sans-Serif" font-size="10.00">sensesp::ExecuteWebSocketTask</text>
</a>
</g>
</g>
<!-- Node1&#45;&gt;Node2 -->
<g id="edge1" class="edge">
<title>Node1&#45;&gt;Node2</title>
<path fill="none" stroke="midnightblue" d="M107.2,-152.5C115.31,-152.5 123.89,-152.5 132.57,-152.5"/>
<polygon fill="midnightblue" stroke="midnightblue" points="132.78,-156 142.78,-152.5 132.78,-149 132.78,-156"/>
</g>
<!-- Node3 -->
<g id="node3" class="node">
<title>Node3</title>
<g id="a_node3"><a xlink:href="classsensesp_1_1_w_s_client.html#abcf72e6105190db47956fc9a2ead87b9" target="_top" xlink:title=" ">
<polygon fill="white" stroke="black" points="355,-181.5 355,-211.5 462,-211.5 462,-181.5 355,-181.5"/>
<text text-anchor="start" x="363" y="-199.5" font-family="Helvetica,sans-Serif" font-size="10.00">sensesp::WSClient::</text>
<text text-anchor="middle" x="408.5" y="-188.5" font-family="Helvetica,sans-Serif" font-size="10.00">connect</text>
</a>
</g>
</g>
<!-- Node2&#45;&gt;Node3 -->
<g id="edge2" class="edge">
<title>Node2&#45;&gt;Node3</title>
<path fill="none" stroke="midnightblue" d="M266.56,-162.05C289.48,-167.65 318.97,-174.86 345.05,-181.23"/>
<polygon fill="midnightblue" stroke="midnightblue" points="344.31,-184.66 354.86,-183.63 345.98,-177.86 344.31,-184.66"/>
</g>
<!-- Node4 -->
<g id="node4" class="node">
<title>Node4</title>
<g id="a_node4"><a xlink:href="classsensesp_1_1_w_s_client.html#a37c79af799d21e51d238f40d00e49ceb" target="_top" xlink:title=" ">
<polygon fill="white" stroke="black" points="346,-143 346,-162 471,-162 471,-143 346,-143"/>
<text text-anchor="middle" x="408.5" y="-150" font-family="Helvetica,sans-Serif" font-size="10.00">sensesp::WSClient::loop</text>
</a>
</g>
</g>
<!-- Node2&#45;&gt;Node4 -->
<g id="edge3" class="edge">
<title>Node2&#45;&gt;Node4</title>
<path fill="none" stroke="midnightblue" d="M310.12,-152.5C318.67,-152.5 327.3,-152.5 335.71,-152.5"/>
<polygon fill="midnightblue" stroke="midnightblue" points="335.83,-156 345.83,-152.5 335.83,-149 335.83,-156"/>
</g>
<!-- Node5 -->
<g id="node5" class="node">
<title>Node5</title>
<g id="a_node5"><a xlink:href="classsensesp_1_1_w_s_client.html#a5553fc62b2382a529d1ff86f219ea7c5" target="_top" xlink:title=" ">
<polygon fill="white" stroke="black" points="355,-93.5 355,-123.5 462,-123.5 462,-93.5 355,-93.5"/>
<text text-anchor="start" x="363" y="-111.5" font-family="Helvetica,sans-Serif" font-size="10.00">sensesp::WSClient::</text>
<text text-anchor="middle" x="408.5" y="-100.5" font-family="Helvetica,sans-Serif" font-size="10.00">send_delta</text>
</a>
</g>
</g>
<!-- Node2&#45;&gt;Node5 -->
<g id="edge4" class="edge">
<title>Node2&#45;&gt;Node5</title>
<path fill="none" stroke="midnightblue" d="M266.56,-142.95C289.48,-137.35 318.97,-130.14 345.05,-123.77"/>
<polygon fill="midnightblue" stroke="midnightblue" points="345.98,-127.14 354.86,-121.37 344.31,-120.34 345.98,-127.14"/>
</g>
<!-- Node6 -->
<g id="node6" class="node">
<title>Node6</title>
<g id="a_node6"><a xlink:href="classsensesp_1_1_s_k_delta_queue.html#a739868615cbe7d97bdc30b7c42c3e9f9" target="_top" xlink:title=" ">
<polygon fill="white" stroke="black" points="528,-142.5 528,-172.5 653,-172.5 653,-142.5 528,-142.5"/>
<text text-anchor="start" x="536" y="-160.5" font-family="Helvetica,sans-Serif" font-size="10.00">sensesp::SKDeltaQueue</text>
<text text-anchor="middle" x="590.5" y="-149.5" font-family="Helvetica,sans-Serif" font-size="10.00">::data_available</text>
</a>
</g>
</g>
<!-- Node5&#45;&gt;Node6 -->
<g id="edge5" class="edge">
<title>Node5&#45;&gt;Node6</title>
<path fill="none" stroke="midnightblue" d="M462.05,-122.8C481.58,-128.12 503.97,-134.22 524.48,-139.8"/>
<polygon fill="midnightblue" stroke="midnightblue" points="523.81,-143.25 534.38,-142.5 525.65,-136.49 523.81,-143.25"/>
</g>
<!-- Node9 -->
<g id="node9" class="node">
<title>Node9</title>
<g id="a_node9"><a xlink:href="classsensesp_1_1_s_k_delta_queue.html#a26dc17fc9fa31804552240f81efa35ac" target="_top" xlink:title=" ">
<polygon fill="white" stroke="black" points="528,-93.5 528,-123.5 653,-123.5 653,-93.5 528,-93.5"/>
<text text-anchor="start" x="536" y="-111.5" font-family="Helvetica,sans-Serif" font-size="10.00">sensesp::SKDeltaQueue</text>
<text text-anchor="middle" x="590.5" y="-100.5" font-family="Helvetica,sans-Serif" font-size="10.00">::get_delta</text>
</a>
</g>
</g>
<!-- Node5&#45;&gt;Node9 -->
<g id="edge8" class="edge">
<title>Node5&#45;&gt;Node9</title>
<path fill="none" stroke="midnightblue" d="M462.05,-108.5C479.47,-108.5 499.17,-108.5 517.79,-108.5"/>
<polygon fill="midnightblue" stroke="midnightblue" points="517.99,-112 527.99,-108.5 517.99,-105 517.99,-112"/>
</g>
<!-- Node14 -->
<g id="node14" class="node">
<title>Node14</title>
<g id="a_node14"><a xlink:href="classsensesp_1_1_task_queue_producer.html#a84c3e669b369d514c3210b1bf284e9ee" target="_top" xlink:title=" ">
<polygon fill="white" stroke="black" points="507,-55 507,-74 674,-74 674,-55 507,-55"/>
<text text-anchor="middle" x="590.5" y="-62" font-family="Helvetica,sans-Serif" font-size="10.00">sensesp::TaskQueueProducer::set</text>
</a>
</g>
</g>
<!-- Node5&#45;&gt;Node14 -->
<g id="edge15" class="edge">
<title>Node5&#45;&gt;Node14</title>
<path fill="none" stroke="midnightblue" d="M462.12,-95.51C476.65,-91.93 492.44,-88.06 507,-84.5 517.74,-81.88 529.27,-79.07 540.21,-76.42"/>
<polygon fill="midnightblue" stroke="midnightblue" points="541.15,-79.79 550.05,-74.03 539.5,-72.99 541.15,-79.79"/>
</g>
<!-- Node7 -->
<g id="node7" class="node">
<title>Node7</title>
<g id="a_node7"><a xlink:href="classsensesp_1_1_s_k_delta_queue.html#a8c79cbfdc595e971219eb12e99387ea7" target="_top" xlink:title=" ">
<polygon fill="white" stroke="black" points="718.5,-93.5 718.5,-123.5 843.5,-123.5 843.5,-93.5 718.5,-93.5"/>
<text text-anchor="start" x="726.5" y="-111.5" font-family="Helvetica,sans-Serif" font-size="10.00">sensesp::SKDeltaQueue</text>
<text text-anchor="middle" x="781" y="-100.5" font-family="Helvetica,sans-Serif" font-size="10.00">::release_semaphore</text>
</a>
</g>
</g>
<!-- Node6&#45;&gt;Node7 -->
<g id="edge6" class="edge">
<title>Node6&#45;&gt;Node7</title>
<path fill="none" stroke="midnightblue" d="M649.34,-142.47C669.24,-137.29 691.7,-131.45 712.32,-126.09"/>
<polygon fill="midnightblue" stroke="midnightblue" points="713.47,-129.41 722.27,-123.51 711.71,-122.63 713.47,-129.41"/>
</g>
<!-- Node8 -->
<g id="node8" class="node">
<title>Node8</title>
<g id="a_node8"><a xlink:href="classsensesp_1_1_s_k_delta_queue.html#a9aacaa1a4bb077c829240a2f165f9a44" target="_top" xlink:title=" ">
<polygon fill="white" stroke="black" points="718.5,-142.5 718.5,-172.5 843.5,-172.5 843.5,-142.5 718.5,-142.5"/>
<text text-anchor="start" x="726.5" y="-160.5" font-family="Helvetica,sans-Serif" font-size="10.00">sensesp::SKDeltaQueue</text>
<text text-anchor="middle" x="781" y="-149.5" font-family="Helvetica,sans-Serif" font-size="10.00">::take_semaphore</text>
</a>
</g>
</g>
<!-- Node6&#45;&gt;Node8 -->
<g id="edge7" class="edge">
<title>Node6&#45;&gt;Node8</title>
<path fill="none" stroke="midnightblue" d="M653.22,-157.5C670.81,-157.5 690.11,-157.5 708.24,-157.5"/>
<polygon fill="midnightblue" stroke="midnightblue" points="708.46,-161 718.46,-157.5 708.46,-154 708.46,-161"/>
</g>
<!-- Node9&#45;&gt;Node7 -->
<g id="edge13" class="edge">
<title>Node9&#45;&gt;Node7</title>
<path fill="none" stroke="midnightblue" d="M653.22,-108.5C670.81,-108.5 690.11,-108.5 708.24,-108.5"/>
<polygon fill="midnightblue" stroke="midnightblue" points="708.46,-112 718.46,-108.5 708.46,-105 708.46,-112"/>
</g>
<!-- Node9&#45;&gt;Node8 -->
<g id="edge14" class="edge">
<title>Node9&#45;&gt;Node8</title>
<path fill="none" stroke="midnightblue" d="M649.34,-123.53C669.24,-128.71 691.7,-134.55 712.32,-139.91"/>
<polygon fill="midnightblue" stroke="midnightblue" points="711.71,-143.37 722.27,-142.49 713.47,-136.59 711.71,-143.37"/>
</g>
<!-- Node10 -->
<g id="node10" class="node">
<title>Node10</title>
<g id="a_node10"><a xlink:href="classsensesp_1_1_sens_e_s_p_base_app.html#a928c309a2dc17f82edefe9e5bc7ef33d" target="_top" xlink:title="Get the current hostname.">
<polygon fill="white" stroke="black" points="710,-44.5 710,-74.5 852,-74.5 852,-44.5 710,-44.5"/>
<text text-anchor="start" x="718" y="-62.5" font-family="Helvetica,sans-Serif" font-size="10.00">sensesp::SensESPBaseApp</text>
<text text-anchor="middle" x="781" y="-51.5" font-family="Helvetica,sans-Serif" font-size="10.00">::get_hostname</text>
</a>
</g>
</g>
<!-- Node9&#45;&gt;Node10 -->
<g id="edge9" class="edge">
<title>Node9&#45;&gt;Node10</title>
<path fill="none" stroke="midnightblue" d="M649.34,-93.47C669.24,-88.29 691.7,-82.45 712.32,-77.09"/>
<polygon fill="midnightblue" stroke="midnightblue" points="713.47,-80.41 722.27,-74.51 711.71,-73.63 713.47,-80.41"/>
</g>
<!-- Node11 -->
<g id="node11" class="node">
<title>Node11</title>
<g id="a_node11"><a xlink:href="classsensesp_1_1_sens_e_s_p_base_app.html#a2df22469c69a8a1234ab673386f574d6" target="_top" xlink:title="Get the singleton instance of the SensESPBaseApp.">
<polygon fill="white" stroke="black" points="888,-88 888,-107 1049,-107 1049,-88 888,-88"/>
<text text-anchor="middle" x="968.5" y="-95" font-family="Helvetica,sans-Serif" font-size="10.00">sensesp::SensESPBaseApp::get</text>
</a>
</g>
</g>
<!-- Node10&#45;&gt;Node11 -->
<g id="edge10" class="edge">
<title>Node10&#45;&gt;Node11</title>
<path fill="none" stroke="midnightblue" d="M852.13,-73.87C871.52,-77.84 892.32,-82.1 910.84,-85.89"/>
<polygon fill="midnightblue" stroke="midnightblue" points="910.37,-89.37 920.87,-87.95 911.78,-82.51 910.37,-89.37"/>
</g>
<!-- Node12 -->
<g id="node12" class="node">
<title>Node12</title>
<g id="a_node12"><a xlink:href="classsensesp_1_1_value_producer.html#a438390eae6bba056ecf4ab329cb5c8e9" target="_top" xlink:title=" ">
<polygon fill="white" stroke="black" points="897.5,-50 897.5,-69 1039.5,-69 1039.5,-50 897.5,-50"/>
<text text-anchor="middle" x="968.5" y="-57" font-family="Helvetica,sans-Serif" font-size="10.00">sensesp::ValueProducer::get</text>
</a>
</g>
</g>
<!-- Node10&#45;&gt;Node12 -->
<g id="edge11" class="edge">
<title>Node10&#45;&gt;Node12</title>
<path fill="none" stroke="midnightblue" d="M852.13,-59.5C863.56,-59.5 875.47,-59.5 887.12,-59.5"/>
<polygon fill="midnightblue" stroke="midnightblue" points="887.27,-63 897.27,-59.5 887.27,-56 887.27,-63"/>
</g>
<!-- Node13 -->
<g id="node13" class="node">
<title>Node13</title>
<g id="a_node13"><a xlink:href="classsensesp_1_1_sens_e_s_p_base_app.html#ade8960b96e439f4cc0b387c312999dd5" target="_top" xlink:title="Get the hostname observable object.">
<polygon fill="white" stroke="black" points="897.5,-0.5 897.5,-30.5 1039.5,-30.5 1039.5,-0.5 897.5,-0.5"/>
<text text-anchor="start" x="905.5" y="-18.5" font-family="Helvetica,sans-Serif" font-size="10.00">sensesp::SensESPBaseApp</text>
<text text-anchor="middle" x="968.5" y="-7.5" font-family="Helvetica,sans-Serif" font-size="10.00">::get_hostname_observable</text>
</a>
</g>
</g>
<!-- Node10&#45;&gt;Node13 -->
<g id="edge12" class="edge">
<title>Node10&#45;&gt;Node13</title>
<path fill="none" stroke="midnightblue" d="M845.32,-44.48C861.05,-40.75 878.04,-36.72 894.21,-32.88"/>
<polygon fill="midnightblue" stroke="midnightblue" points="895.23,-36.24 904.15,-30.53 893.61,-29.43 895.23,-36.24"/>
</g>
</g>
</svg>
        <g id="navigator" transform="translate(0 0)" fill="#404254">
                <rect fill="#f2f5e9" fill-opacity="0.5" stroke="#606060" stroke-width=".5" x="0" y="0" width="60" height="60"/>
                <use id="zoomplus" xlink:href="#zoomPlus" x="17" y="9" onmousedown="handleZoom(evt,'in')"/>
                <use id="zoomminus" xlink:href="#zoomMin" x="42" y="9" onmousedown="handleZoom(evt,'out')"/>
                <use id="reset" xlink:href="#resetDef" x="30" y="36" onmousedown="handleReset()"/>
                <g id="arrowUp" xlink:href="#dirArrow" transform="translate(30 24)" onmousedown="handlePan(0,-1)">
                  <use xlink:href="#rim" fill="#404040">
                        <set attributeName="fill" to="#808080" begin="arrowUp.mouseover" end="arrowUp.mouseout"/>
                  </use>
                  <path fill="none" stroke="white" stroke-width="1.5" d="M0,-3.0v7 M-2.5,-0.5L0,-3.0L2.5,-0.5"/>
                </g>
                <g id="arrowRight" xlink:href="#dirArrow" transform="rotate(90) translate(36 -43)" onmousedown="handlePan(1,0)">
                  <use xlink:href="#rim" fill="#404040">
                        <set attributeName="fill" to="#808080" begin="arrowRight.mouseover" end="arrowRight.mouseout"/>
                  </use>
                  <path fill="none" stroke="white" stroke-width="1.5" d="M0,-3.0v7 M-2.5,-0.5L0,-3.0L2.5,-0.5"/>
                </g>
                <g id="arrowDown" xlink:href="#dirArrow" transform="rotate(180) translate(-30 -48)" onmousedown="handlePan(0,1)">
                  <use xlink:href="#rim" fill="#404040">
                        <set attributeName="fill" to="#808080" begin="arrowDown.mouseover" end="arrowDown.mouseout"/>
                  </use>
                  <path fill="none" stroke="white" stroke-width="1.5" d="M0,-3.0v7 M-2.5,-0.5L0,-3.0L2.5,-0.5"/>
                </g>
                <g id="arrowLeft" xlink:href="#dirArrow" transform="rotate(270) translate(-36 17)" onmousedown="handlePan(-1,0)">
                  <use xlink:href="#rim" fill="#404040">
                        <set attributeName="fill" to="#808080" begin="arrowLeft.mouseover" end="arrowLeft.mouseout"/>
                  </use>
                  <path fill="none" stroke="white" stroke-width="1.5" d="M0,-3.0v7 M-2.5,-0.5L0,-3.0L2.5,-0.5"/>
                </g>
        </g>
        <svg viewBox="0 0 15 15" width="100%" height="30px" preserveAspectRatio="xMaxYMin meet">
         <g id="arrow_out" transform="scale(0.3 0.3)">
          <a xlink:href="classsensesp_1_1_w_s_client_a64ae48ad175825edc9248575033eb9f5_cgraph_org.svg" target="_base">
           <rect id="button" ry="5" rx="5" y="6" x="6" height="38" width="38"
                fill="#f2f5e9" fill-opacity="0.5" stroke="#606060" stroke-width="1.0"/>
           <path id="arrow"
             d="M 11.500037,31.436501 C 11.940474,20.09759 22.043105,11.32322 32.158766,21.979434 L 37.068811,17.246167 C 37.068811,17.246167 37.088388,32 37.088388,32 L 22.160133,31.978069 C 22.160133,31.978069 26.997745,27.140456 26.997745,27.140456 C 18.528582,18.264221 13.291696,25.230495 11.500037,31.436501 z"
             style="fill:#404040;"/>
          </a>
         </g>
        </svg>
</svg>
