<?xml version="1.0" encoding="UTF-8" standalone="no"?>
<!DOCTYPE svg PUBLIC "-//W3C//DTD SVG 1.1//EN"
 "http://www.w3.org/Graphics/SVG/1.1/DTD/svg11.dtd">
<!-- Generated by graphviz version 7.1.0 (20230121.1956)
 -->
<!-- Title: sensesp::SensESPAppBuilder::enable_uptime_sensor Pages: 1 -->
<svg width="698pt" height="210pt"
 viewBox="0.00 0.00 698.00 210.00" xmlns="http://www.w3.org/2000/svg" xmlns:xlink="http://www.w3.org/1999/xlink">
<g id="graph0" class="graph" transform="scale(1 1) rotate(0) translate(4 206)">
<title>sensesp::SensESPAppBuilder::enable_uptime_sensor</title>
<!-- Node1 -->
<g id="node1" class="node">
<title>Node1</title>
<g id="a_node1"><a xlink:title="Report the system uptime in seconds since the last reboot.">
<polygon fill="#999999" stroke="#666666" points="148,-92 0,-92 0,-62 148,-62 148,-92"/>
<text text-anchor="start" x="8" y="-80" font-family="Helvetica,sans-Serif" font-size="10.00">sensesp::SensESPAppBuilder</text>
<text text-anchor="middle" x="74" y="-69" font-family="Helvetica,sans-Serif" font-size="10.00">::enable_uptime_sensor</text>
</a>
</g>
</g>
<!-- Node2 -->
<g id="node2" class="node">
<title>Node2</title>
<g id="a_node2"><a xlink:href="namespacesensesp.html#af967e4af8221a3bf2d5fd79522ada711" target="_top" xlink:title="Connect a system information sensor to SKOutput.">
<polygon fill="white" stroke="#666666" points="315,-92 184,-92 184,-62 315,-62 315,-92"/>
<text text-anchor="start" x="192" y="-80" font-family="Helvetica,sans-Serif" font-size="10.00">sensesp::connect_system</text>
<text text-anchor="middle" x="249.5" y="-69" font-family="Helvetica,sans-Serif" font-size="10.00">_info_sensor</text>
</a>
</g>
</g>
<!-- Node1&#45;&gt;Node2 -->
<g id="edge1" class="edge">
<title>Node1&#45;&gt;Node2</title>
<path fill="none" stroke="#63b8ff" d="M148.33,-77C156.22,-77 164.26,-77 172.19,-77"/>
<polygon fill="#63b8ff" stroke="#63b8ff" points="172.17,-80.5 182.17,-77 172.17,-73.5 172.17,-80.5"/>
</g>
<!-- Node3 -->
<g id="node3" class="node">
<title>Node3</title>
<g id="a_node3"><a xlink:href="classsensesp_1_1_value_producer.html#a168e379778dd79bc926aff69d9a87663" target="_top" xlink:title=" ">
<polygon fill="white" stroke="#666666" points="492.5,-154 370.5,-154 370.5,-124 492.5,-124 492.5,-154"/>
<text text-anchor="start" x="378.5" y="-142" font-family="Helvetica,sans-Serif" font-size="10.00">sensesp::ValueProducer</text>
<text text-anchor="middle" x="431.5" y="-131" font-family="Helvetica,sans-Serif" font-size="10.00">::connect_to</text>
</a>
</g>
</g>
<!-- Node2&#45;&gt;Node3 -->
<g id="edge2" class="edge">
<title>Node2&#45;&gt;Node3</title>
<path fill="none" stroke="#63b8ff" d="M295.46,-92.49C319.6,-100.8 349.58,-111.13 375.15,-119.93"/>
<polygon fill="#63b8ff" stroke="#63b8ff" points="373.78,-123.16 384.37,-123.11 376.06,-116.55 373.78,-123.16"/>
</g>
<!-- Node5 -->
<g id="node5" class="node">
<title>Node5</title>
<g id="a_node5"><a xlink:href="classsensesp_1_1_value_producer.html#a438390eae6bba056ecf4ab329cb5c8e9" target="_top" xlink:title=" ">
<polygon fill="white" stroke="#666666" points="690,-105.5 548,-105.5 548,-86.5 690,-86.5 690,-105.5"/>
<text text-anchor="middle" x="619" y="-93.5" font-family="Helvetica,sans-Serif" font-size="10.00">sensesp::ValueProducer::get</text>
</a>
</g>
</g>
<!-- Node2&#45;&gt;Node5 -->
<g id="edge7" class="edge">
<title>Node2&#45;&gt;Node5</title>
<path fill="none" stroke="#63b8ff" d="M315.36,-80.35C376.91,-83.54 469.66,-88.33 536.25,-91.77"/>
<polygon fill="#63b8ff" stroke="#63b8ff" points="535.85,-95.26 546.02,-92.28 536.21,-88.27 535.85,-95.26"/>
</g>
<!-- Node7 -->
<g id="node7" class="node">
<title>Node7</title>
<g id="a_node7"><a xlink:href="classsensesp_1_1_sens_e_s_p_base_app.html#a2df22469c69a8a1234ab673386f574d6" target="_top" xlink:title="Get the singleton instance of the SensESPBaseApp.">
<polygon fill="white" stroke="#666666" points="512,-67.5 351,-67.5 351,-48.5 512,-48.5 512,-67.5"/>
<text text-anchor="middle" x="431.5" y="-55.5" font-family="Helvetica,sans-Serif" font-size="10.00">sensesp::SensESPBaseApp::get</text>
</a>
</g>
</g>
<!-- Node2&#45;&gt;Node7 -->
<g id="edge6" class="edge">
<title>Node2&#45;&gt;Node7</title>
<path fill="none" stroke="#63b8ff" d="M315.48,-70.14C323.22,-69.32 331.22,-68.48 339.24,-67.63"/>
<polygon fill="#63b8ff" stroke="#63b8ff" points="339.47,-71.13 349.05,-66.6 338.73,-64.17 339.47,-71.13"/>
</g>
<!-- Node8 -->
<g id="node8" class="node">
<title>Node8</title>
<g id="a_node8"><a xlink:href="classsensesp_1_1_sens_e_s_p_base_app.html#ade8960b96e439f4cc0b387c312999dd5" target="_top" xlink:title="Get the hostname observable object.">
<polygon fill="white" stroke="#666666" points="502.5,-30 360.5,-30 360.5,0 502.5,0 502.5,-30"/>
<text text-anchor="start" x="368.5" y="-18" font-family="Helvetica,sans-Serif" font-size="10.00">sensesp::SensESPBaseApp</text>
<text text-anchor="middle" x="431.5" y="-7" font-family="Helvetica,sans-Serif" font-size="10.00">::get_hostname_observable</text>
</a>
</g>
</g>
<!-- Node2&#45;&gt;Node8 -->
<g id="edge8" class="edge">
<title>Node2&#45;&gt;Node8</title>
<path fill="none" stroke="#63b8ff" d="M289.41,-61.58C307.96,-54.41 330.51,-45.96 351,-39 356.11,-37.27 361.42,-35.53 366.77,-33.82"/>
<polygon fill="#63b8ff" stroke="#63b8ff" points="367.8,-37.16 376.3,-30.83 365.71,-30.48 367.8,-37.16"/>
</g>
<!-- Node4 -->
<g id="node4" class="node">
<title>Node4</title>
<g id="a_node4"><a xlink:href="classsensesp_1_1_observable.html#a1bd8a207de69d386a7f05c28544df109" target="_top" xlink:title=" ">
<polygon fill="white" stroke="#666666" points="673.5,-202 564.5,-202 564.5,-172 673.5,-172 673.5,-202"/>
<text text-anchor="start" x="572.5" y="-190" font-family="Helvetica,sans-Serif" font-size="10.00">sensesp::Observable</text>
<text text-anchor="middle" x="619" y="-179" font-family="Helvetica,sans-Serif" font-size="10.00">::attach</text>
</a>
</g>
</g>
<!-- Node3&#45;&gt;Node4 -->
<g id="edge3" class="edge">
<title>Node3&#45;&gt;Node4</title>
<path fill="none" stroke="#63b8ff" d="M492.21,-154.45C511.61,-159.47 533.21,-165.06 552.97,-170.17"/>
<polygon fill="#63b8ff" stroke="#63b8ff" points="552.02,-173.54 562.58,-172.66 553.78,-166.77 552.02,-173.54"/>
</g>
<!-- Node3&#45;&gt;Node5 -->
<g id="edge4" class="edge">
<title>Node3&#45;&gt;Node5</title>
<path fill="none" stroke="#63b8ff" d="M492.98,-124.98C515.87,-119.68 541.74,-113.68 563.99,-108.52"/>
<polygon fill="#63b8ff" stroke="#63b8ff" points="564.5,-111.99 573.45,-106.33 562.92,-105.17 564.5,-111.99"/>
</g>
<!-- Node6 -->
<g id="node6" class="node">
<title>Node6</title>
<g id="a_node6"><a xlink:href="classsensesp_1_1_value_consumer.html#a6dbfd22b19489ebd61a353545d1a5261" target="_top" xlink:title=" ">
<polygon fill="white" stroke="#666666" points="683,-154 555,-154 555,-124 683,-124 683,-154"/>
<text text-anchor="start" x="563" y="-142" font-family="Helvetica,sans-Serif" font-size="10.00">sensesp::ValueConsumer</text>
<text text-anchor="middle" x="619" y="-131" font-family="Helvetica,sans-Serif" font-size="10.00">::set_input</text>
</a>
</g>
</g>
<!-- Node3&#45;&gt;Node6 -->
<g id="edge5" class="edge">
<title>Node3&#45;&gt;Node6</title>
<path fill="none" stroke="#63b8ff" d="M492.98,-139C509.05,-139 526.59,-139 543.31,-139"/>
<polygon fill="#63b8ff" stroke="#63b8ff" points="543.22,-142.5 553.22,-139 543.22,-135.5 543.22,-142.5"/>
</g>
</g>
</svg>
