<?xml version="1.0" encoding="UTF-8" standalone="no"?>
<!DOCTYPE svg PUBLIC "-//W3C//DTD SVG 1.1//EN"
 "http://www.w3.org/Graphics/SVG/1.1/DTD/svg11.dtd">
<!-- Generated by graphviz version 14.1.4 (20260321.0153)
 -->
<!-- Title: sensesp::PersistingObservableValue::PersistingObservableValue Pages: 1 -->
<!--zoomable 223 -->

<svg id="main" version="1.1" xmlns="http://www.w3.org/2000/svg" xmlns:xlink="http://www.w3.org/1999/xlink" xml:space="preserve" onload="init(evt)">

<style type="text/css"><![CDATA[
.node, .edge {opacity: 0.7;}
.node.selected, .edge.selected {opacity: 1;}
.edge:hover path { stroke: red; }
.edge:hover polygon { stroke: red; fill: red; }
]]></style>

<defs>
  <circle id="rim" cx="0" cy="0" r="7"/>
  <circle id="rim2" cx="0" cy="0" r="3.5"/>
  <g id="zoomPlus">
    <use xlink:href="#rim" fill="#404040"><set attributeName="fill" to="#808080" begin="zoomplus.mouseover" end="zoomplus.mouseout"/></use>
    <path d="M-4,0h8M0,-4v8" fill="none" stroke="white" stroke-width="1.5" pointer-events="none"/>
  </g>
  <g id="zoomMin">
    <use xlink:href="#rim" fill="#404040"><set attributeName="fill" to="#808080" begin="zoomminus.mouseover" end="zoomminus.mouseout"/></use>
    <path d="M-4,0h8" fill="none" stroke="white" stroke-width="1.5" pointer-events="none"/>
  </g>
  <g id="arrowUp" transform="translate(30 24)">
    <use xlink:href="#rim"/>
    <path pointer-events="none" fill="none" stroke="white" stroke-width="1.5" d="M0,-3.0v7 M-2.5,-0.5L0,-3.0L2.5,-0.5"/>
  </g>
  <g id="arrowRight" transform="rotate(90) translate(36 -43)">
    <use xlink:href="#rim"/>
    <path pointer-events="none" fill="none" stroke="white" stroke-width="1.5" d="M0,-3.0v7 M-2.5,-0.5L0,-3.0L2.5,-0.5"/>
  </g>
  <g id="arrowDown" transform="rotate(180) translate(-30 -48)">
    <use xlink:href="#rim"/>
    <path pointer-events="none" fill="none" stroke="white" stroke-width="1.5" d="M0,-3.0v7 M-2.5,-0.5L0,-3.0L2.5,-0.5"/>
  </g>
  <g id="arrowLeft" transform="rotate(270) translate(-36 17)">
    <use xlink:href="#rim"/>
    <path pointer-events="none" fill="none" stroke="white" stroke-width="1.5" d="M0,-3.0v7 M-2.5,-0.5L0,-3.0L2.5,-0.5"/>
  </g>
  <g id="resetDef">
    <use xlink:href="#rim2" fill="#404040"><set attributeName="fill" to="#808080" begin="reset.mouseover" end="reset.mouseout"/></use>
  </g>
</defs>
<script type="application/ecmascript">
var viewWidth = 855;
var viewHeight = 223;
var sectionId = 'dynsection-1';
</script>
<script type="application/ecmascript" xlink:href="svg.min.js"/>
<svg id="graph" class="graph">
<g id="viewport">
<title>sensesp::PersistingObservableValue::PersistingObservableValue</title>
<!-- Node1 -->
<g id="Node000001" class="node">
<title>Node1</title>
<g id="a_Node000001"><a xlink:title=" ">
<polygon fill="#999999" stroke="#666666" points="163,-128.5 0,-128.5 0,-98 163,-98 163,-128.5"/>
<text xml:space="preserve" text-anchor="start" x="8" y="-115" font-family="Helvetica,sans-Serif" font-size="10.00">sensesp::PersistingObservable</text>
<text xml:space="preserve" text-anchor="middle" x="81.5" y="-103.75" font-family="Helvetica,sans-Serif" font-size="10.00">Value::PersistingObservableValue</text>
</a>
</g>
</g>
<!-- Node2 -->
<g id="Node000002" class="node">
<title>Node2</title>
<g id="a_Node000002"><a xlink:href="classsensesp_1_1_value_producer.html#a4f5f0259d0d3cd9a0ed17d657cac04e2" target="_top" xlink:title=" ">
<polygon fill="white" stroke="#666666" points="334.25,-214.5 212.5,-214.5 212.5,-184 334.25,-184 334.25,-214.5"/>
<text xml:space="preserve" text-anchor="start" x="220.5" y="-201" font-family="Helvetica,sans-Serif" font-size="10.00">sensesp::ValueProducer</text>
<text xml:space="preserve" text-anchor="middle" x="273.38" y="-189.75" font-family="Helvetica,sans-Serif" font-size="10.00">::emit</text>
</a>
</g>
</g>
<!-- Node1&#45;&gt;Node2 -->
<g id="edge1_Node000001_Node000002" class="edge">
<title>Node1&#45;&gt;Node2</title>
<g id="a_edge1_Node000001_Node000002"><a xlink:title=" ">
<path fill="none" stroke="#63b8ff" d="M108.7,-128.88C131.9,-142.31 166.96,-161.61 199,-175.25 202.56,-176.77 206.25,-178.25 210,-179.68"/>
<polygon fill="#63b8ff" stroke="#63b8ff" points="208.63,-182.9 219.22,-183.06 211.03,-176.33 208.63,-182.9"/>
</a>
</g>
</g>
<!-- Node3 -->
<g id="Node000003" class="node">
<title>Node3</title>
<g id="a_Node000003"><a xlink:href="namespacesensesp.html#a1c1105507d71491cf4e0505eaabb2e49" target="_top" xlink:title=" ">
<polygon fill="white" stroke="#666666" points="326.38,-165.88 220.38,-165.88 220.38,-146.62 326.38,-146.62 326.38,-165.88"/>
<text xml:space="preserve" text-anchor="middle" x="273.38" y="-152.38" font-family="Helvetica,sans-Serif" font-size="10.00">sensesp::event_loop</text>
</a>
</g>
</g>
<!-- Node1&#45;&gt;Node3 -->
<g id="edge2_Node000001_Node000003" class="edge">
<title>Node1&#45;&gt;Node3</title>
<g id="a_edge2_Node000001_Node000003"><a xlink:title=" ">
<path fill="none" stroke="#63b8ff" d="M151.86,-128.96C173.22,-133.79 196.45,-139.06 216.76,-143.66"/>
<polygon fill="#63b8ff" stroke="#63b8ff" points="215.71,-147.01 226.24,-145.8 217.26,-140.18 215.71,-147.01"/>
</a>
</g>
</g>
<!-- Node6 -->
<g id="Node000006" class="node">
<title>Node6</title>
<g id="a_Node000006"><a xlink:href="classsensesp_1_1_file_system_saveable.html#a974f062b375cf8637944f121084cf9f7" target="_top" xlink:title=" ">
<polygon fill="white" stroke="#666666" points="347.75,-128.5 199,-128.5 199,-98 347.75,-98 347.75,-128.5"/>
<text xml:space="preserve" text-anchor="start" x="207" y="-115" font-family="Helvetica,sans-Serif" font-size="10.00">sensesp::FileSystemSaveable</text>
<text xml:space="preserve" text-anchor="middle" x="273.38" y="-103.75" font-family="Helvetica,sans-Serif" font-size="10.00">::FileSystemSaveable</text>
</a>
</g>
</g>
<!-- Node1&#45;&gt;Node6 -->
<g id="edge5_Node000001_Node000006" class="edge">
<title>Node1&#45;&gt;Node6</title>
<g id="a_edge5_Node000001_Node000006"><a xlink:title=" ">
<path fill="none" stroke="#63b8ff" d="M163.3,-113.25C171.17,-113.25 179.17,-113.25 187.07,-113.25"/>
<polygon fill="#63b8ff" stroke="#63b8ff" points="187.06,-116.75 197.06,-113.25 187.06,-109.75 187.06,-116.75"/>
</a>
</g>
</g>
<!-- Node8 -->
<g id="Node000008" class="node">
<title>Node8</title>
<g id="a_Node000008"><a xlink:href="classsensesp_1_1_file_system_saveable.html#a79b2e2e657112851dfda8785d217578a" target="_top" xlink:title="Load and populate the object from a persistent storage.">
<polygon fill="white" stroke="#666666" points="347.75,-79.5 199,-79.5 199,-49 347.75,-49 347.75,-79.5"/>
<text xml:space="preserve" text-anchor="start" x="207" y="-66" font-family="Helvetica,sans-Serif" font-size="10.00">sensesp::FileSystemSaveable</text>
<text xml:space="preserve" text-anchor="middle" x="273.38" y="-54.75" font-family="Helvetica,sans-Serif" font-size="10.00">::load</text>
</a>
</g>
</g>
<!-- Node1&#45;&gt;Node8 -->
<g id="edge7_Node000001_Node000008" class="edge">
<title>Node1&#45;&gt;Node8</title>
<g id="a_edge7_Node000001_Node000008"><a xlink:title=" ">
<path fill="none" stroke="#63b8ff" d="M143.36,-97.54C161.59,-92.84 181.74,-87.64 200.6,-82.77"/>
<polygon fill="#63b8ff" stroke="#63b8ff" points="201.26,-86.22 210.07,-80.33 199.51,-79.44 201.26,-86.22"/>
</a>
</g>
</g>
<!-- Node13 -->
<g id="Node000013" class="node">
<title>Node13</title>
<g id="a_Node000013"><a xlink:href="classsensesp_1_1_observable_value.html#a1e31543ba11338deb30f1b876ecaca49" target="_top" xlink:title=" ">
<polygon fill="white" stroke="#666666" points="339.5,-30.5 207.25,-30.5 207.25,0 339.5,0 339.5,-30.5"/>
<text xml:space="preserve" text-anchor="start" x="215.25" y="-17" font-family="Helvetica,sans-Serif" font-size="10.00">sensesp::ObservableValue</text>
<text xml:space="preserve" text-anchor="middle" x="273.38" y="-5.75" font-family="Helvetica,sans-Serif" font-size="10.00">::ObservableValue</text>
</a>
</g>
</g>
<!-- Node1&#45;&gt;Node13 -->
<g id="edge12_Node000001_Node000013" class="edge">
<title>Node1&#45;&gt;Node13</title>
<g id="a_edge12_Node000001_Node000013"><a xlink:title=" ">
<path fill="none" stroke="#63b8ff" d="M103.96,-97.67C126.71,-81.68 164.08,-56.86 199,-40.25 202.74,-38.47 206.65,-36.75 210.63,-35.12"/>
<polygon fill="#63b8ff" stroke="#63b8ff" points="211.79,-38.42 219.83,-31.51 209.24,-31.9 211.79,-38.42"/>
</a>
</g>
</g>
<!-- Node4 -->
<g id="Node000004" class="node">
<title>Node4</title>
<g id="a_Node000004"><a xlink:href="classsensesp_1_1_sens_e_s_p_base_app.html#a28c20eed17bfc460e6686a11c5b3b107" target="_top" xlink:title="Get the event loop object from the singleton SensESPBaseApp instance.">
<polygon fill="white" stroke="#666666" points="528.75,-177.5 387.5,-177.5 387.5,-147 528.75,-147 528.75,-177.5"/>
<text xml:space="preserve" text-anchor="start" x="395.5" y="-164" font-family="Helvetica,sans-Serif" font-size="10.00">sensesp::SensESPBaseApp</text>
<text xml:space="preserve" text-anchor="middle" x="458.12" y="-152.75" font-family="Helvetica,sans-Serif" font-size="10.00">::get_event_loop</text>
</a>
</g>
</g>
<!-- Node3&#45;&gt;Node4 -->
<g id="edge3_Node000003_Node000004" class="edge">
<title>Node3&#45;&gt;Node4</title>
<g id="a_edge3_Node000003_Node000004"><a xlink:title=" ">
<path fill="none" stroke="#63b8ff" d="M326.74,-157.97C342,-158.47 359.04,-159.03 375.64,-159.57"/>
<polygon fill="#63b8ff" stroke="#63b8ff" points="375.41,-163.07 385.52,-159.9 375.64,-156.07 375.41,-163.07"/>
</a>
</g>
</g>
<!-- Node5 -->
<g id="Node000005" class="node">
<title>Node5</title>
<g id="a_Node000005"><a xlink:href="classsensesp_1_1_sens_e_s_p_base_app.html#add2c67bb55d095ab9c64f44ab2e82612" target="_top" xlink:title="Get the singleton instance of the SensESPBaseApp.">
<polygon fill="white" stroke="#666666" points="729.25,-171.88 568.5,-171.88 568.5,-152.62 729.25,-152.62 729.25,-171.88"/>
<text xml:space="preserve" text-anchor="middle" x="648.88" y="-158.38" font-family="Helvetica,sans-Serif" font-size="10.00">sensesp::SensESPBaseApp::get</text>
</a>
</g>
</g>
<!-- Node4&#45;&gt;Node5 -->
<g id="edge4_Node000004_Node000005" class="edge">
<title>Node4&#45;&gt;Node5</title>
<g id="a_edge4_Node000004_Node000005"><a xlink:title=" ">
<path fill="none" stroke="#63b8ff" d="M529.14,-162.25C538.17,-162.25 547.51,-162.25 556.81,-162.25"/>
<polygon fill="#63b8ff" stroke="#63b8ff" points="556.6,-165.75 566.6,-162.25 556.6,-158.75 556.6,-165.75"/>
</a>
</g>
</g>
<!-- Node7 -->
<g id="Node000007" class="node">
<title>Node7</title>
<g id="a_Node000007"><a xlink:href="classsensesp_1_1_saveable.html#abaa7864f4f35be033ad5f32a379051d7" target="_top" xlink:title=" ">
<polygon fill="white" stroke="#666666" points="510.75,-128.5 405.5,-128.5 405.5,-98 510.75,-98 510.75,-128.5"/>
<text xml:space="preserve" text-anchor="start" x="413.5" y="-115" font-family="Helvetica,sans-Serif" font-size="10.00">sensesp::Saveable::</text>
<text xml:space="preserve" text-anchor="middle" x="458.12" y="-103.75" font-family="Helvetica,sans-Serif" font-size="10.00">Saveable</text>
</a>
</g>
</g>
<!-- Node6&#45;&gt;Node7 -->
<g id="edge6_Node000006_Node000007" class="edge">
<title>Node6&#45;&gt;Node7</title>
<g id="a_edge6_Node000006_Node000007"><a xlink:title=" ">
<path fill="none" stroke="#63b8ff" d="M348.18,-113.25C363.42,-113.25 379.33,-113.25 394.14,-113.25"/>
<polygon fill="#63b8ff" stroke="#63b8ff" points="393.7,-116.75 403.7,-113.25 393.7,-109.75 393.7,-116.75"/>
</a>
</g>
</g>
<!-- Node9 -->
<g id="Node000009" class="node">
<title>Node9</title>
<g id="a_Node000009"><a xlink:href="classsensesp_1_1_file_system_saveable.html#ad0233f7895b5c8915108399420c7cf0b" target="_top" xlink:title=" ">
<polygon fill="white" stroke="#666666" points="532.5,-79.5 383.75,-79.5 383.75,-49 532.5,-49 532.5,-79.5"/>
<text xml:space="preserve" text-anchor="start" x="391.75" y="-66" font-family="Helvetica,sans-Serif" font-size="10.00">sensesp::FileSystemSaveable</text>
<text xml:space="preserve" text-anchor="middle" x="458.12" y="-54.75" font-family="Helvetica,sans-Serif" font-size="10.00">::find_config_file</text>
</a>
</g>
</g>
<!-- Node8&#45;&gt;Node9 -->
<g id="edge8_Node000008_Node000009" class="edge">
<title>Node8&#45;&gt;Node9</title>
<g id="a_edge8_Node000008_Node000009"><a xlink:title=" ">
<path fill="none" stroke="#63b8ff" d="M348.18,-64.25C355.97,-64.25 363.93,-64.25 371.83,-64.25"/>
<polygon fill="#63b8ff" stroke="#63b8ff" points="371.83,-67.75 381.83,-64.25 371.83,-60.75 371.83,-67.75"/>
</a>
</g>
</g>
<!-- Node12 -->
<g id="Node000012" class="node">
<title>Node12</title>
<g id="a_Node000012"><a xlink:href="classsensesp_1_1_serializable.html#a841233a82ef3a7fbcecd5a15b0df12d2" target="_top" xlink:title=" ">
<polygon fill="white" stroke="#666666" points="512.62,-30.5 403.62,-30.5 403.62,0 512.62,0 512.62,-30.5"/>
<text xml:space="preserve" text-anchor="start" x="411.62" y="-17" font-family="Helvetica,sans-Serif" font-size="10.00">sensesp::Serializable</text>
<text xml:space="preserve" text-anchor="middle" x="458.12" y="-5.75" font-family="Helvetica,sans-Serif" font-size="10.00">::from_json</text>
</a>
</g>
</g>
<!-- Node8&#45;&gt;Node12 -->
<g id="edge11_Node000008_Node000012" class="edge">
<title>Node8&#45;&gt;Node12</title>
<g id="a_edge11_Node000008_Node000012"><a xlink:title=" ">
<path fill="none" stroke="#63b8ff" d="M332.95,-48.54C351.89,-43.47 373,-37.81 392.36,-32.62"/>
<polygon fill="#63b8ff" stroke="#63b8ff" points="393,-36.07 401.76,-30.1 391.19,-29.31 393,-36.07"/>
</a>
</g>
</g>
<!-- Node10 -->
<g id="Node000010" class="node">
<title>Node10</title>
<g id="a_Node000010"><a xlink:href="namespacesensesp.html#adad24461f43358c45017cf1cb816ca60" target="_top" xlink:title="A base64&#45;encoded SHA&#45;1 hash function.">
<polygon fill="white" stroke="#666666" points="706,-73.88 591.75,-73.88 591.75,-54.62 706,-54.62 706,-73.88"/>
<text xml:space="preserve" text-anchor="middle" x="648.88" y="-60.38" font-family="Helvetica,sans-Serif" font-size="10.00">sensesp::Base64Sha1</text>
</a>
</g>
</g>
<!-- Node9&#45;&gt;Node10 -->
<g id="edge9_Node000009_Node000010" class="edge">
<title>Node9&#45;&gt;Node10</title>
<g id="a_edge9_Node000009_Node000010"><a xlink:title=" ">
<path fill="none" stroke="#63b8ff" d="M532.91,-64.25C548.4,-64.25 564.67,-64.25 579.93,-64.25"/>
<polygon fill="#63b8ff" stroke="#63b8ff" points="579.87,-67.75 589.87,-64.25 579.87,-60.75 579.87,-67.75"/>
</a>
</g>
</g>
<!-- Node11 -->
<g id="Node000011" class="node">
<title>Node11</title>
<g id="a_Node000011"><a xlink:href="namespacesensesp.html#a37dfeb5f75b7115464a9aa40473d69cf" target="_top" xlink:title="SHA&#45;1 hash function.">
<polygon fill="white" stroke="#666666" points="846.5,-73.88 765.25,-73.88 765.25,-54.62 846.5,-54.62 846.5,-73.88"/>
<text xml:space="preserve" text-anchor="middle" x="805.88" y="-60.38" font-family="Helvetica,sans-Serif" font-size="10.00">sensesp::Sha1</text>
</a>
</g>
</g>
<!-- Node10&#45;&gt;Node11 -->
<g id="edge10_Node000010_Node000011" class="edge">
<title>Node10&#45;&gt;Node11</title>
<g id="a_edge10_Node000010_Node000011"><a xlink:title=" ">
<path fill="none" stroke="#63b8ff" d="M706.27,-64.25C721.72,-64.25 738.39,-64.25 753.54,-64.25"/>
<polygon fill="#63b8ff" stroke="#63b8ff" points="753.27,-67.75 763.27,-64.25 753.27,-60.75 753.27,-67.75"/>
</a>
</g>
</g>
</g>
</svg>

<g id="navigator" transform="translate(0 0)" fill="#404254">
  <rect fill="#f2f5e9" fill-opacity="0.5" stroke="#606060" stroke-width=".5" x="0" y="0" width="60" height="60"/>
  <use id="zoomplus" xlink:href="#zoomPlus" x="17" y="9" onmousedown="handleZoom(evt,'in')"/>
  <use id="zoomminus" xlink:href="#zoomMin" x="42" y="9" onmousedown="handleZoom(evt,'out')"/>
  <use id="reset" xlink:href="#resetDef" x="30" y="36" onmousedown="handleReset()"/>
   <use id="arrowup" xlink:href="#arrowUp" x="0" y="0" onmousedown="handlePan(0,-1)"/>
  <use id="arrowright" xlink:href="#arrowRight" x="0" y="0" onmousedown="handlePan(1,0)"/>
  <use id="arrowdown" xlink:href="#arrowDown" x="0" y="0" onmousedown="handlePan(0,1)"/>
  <use id="arrowleft" xlink:href="#arrowLeft" x="0" y="0" onmousedown="handlePan(-1,0)"/>
</g>
<svg viewBox="0 0 15 15" width="100%" height="30px" preserveAspectRatio="xMaxYMin meet">
 <g id="arrow_out" transform="scale(0.3 0.3)">
  <a xlink:href="classsensesp_1_1_persisting_observable_value_a42d71d59977b6c998c96a6096b9cbe5f_cgraph_org.svg" target="_base">
   <rect id="button" ry="5" rx="5" y="6" x="6" height="38" width="38"
        fill="#f2f5e9" fill-opacity="0.5" stroke="#606060" stroke-width="1.0"/>
   <path id="arrow"
     d="M 11.500037,31.436501 C 11.940474,20.09759 22.043105,11.32322 32.158766,21.979434 L 37.068811,17.246167 C 37.068811,17.246167 37.088388,32 37.088388,32 L 22.160133,31.978069 C 22.160133,31.978069 26.997745,27.140456 26.997745,27.140456 C 18.528582,18.264221 13.291696,25.230495 11.500037,31.436501 z"
     style="fill:#404040;"/>
  </a>
 </g>
</svg>

<style type='text/css'>
<![CDATA[
[data-mouse-over-selected='false'] { opacity: 0.7; }
[data-mouse-over-selected='true']  { opacity: 1.0; }
]]>
</style>
<script type="application/ecmascript"><![CDATA[
document.addEventListener('DOMContentLoaded', (event) => {
  highlightEdges();
  highlightAdjacentNodes();
});
]]></script>
</svg>
