<?xml version="1.0" encoding="UTF-8" standalone="no"?>
<!DOCTYPE svg PUBLIC "-//W3C//DTD SVG 1.1//EN"
 "http://www.w3.org/Graphics/SVG/1.1/DTD/svg11.dtd">
<!-- Generated by graphviz version 12.1.0 (20240811.2233)
 -->
<!-- Title: sensesp::PatternBlinker::set_pattern Pages: 1 -->
<!--zoomable 94 -->

<svg id="main" version="1.1" xmlns="http://www.w3.org/2000/svg" xmlns:xlink="http://www.w3.org/1999/xlink" xml:space="preserve" onload="init(evt)">

<style type="text/css"><![CDATA[
.node, .edge {opacity: 0.7;}
.node.selected, .edge.selected {opacity: 1;}
.edge:hover path { stroke: red; }
.edge:hover polygon { stroke: red; fill: red; }
]]></style>

<defs>
  <circle id="rim" cx="0" cy="0" r="7"/>
  <circle id="rim2" cx="0" cy="0" r="3.5"/>
  <g id="zoomPlus">
    <use xlink:href="#rim" fill="#404040"><set attributeName="fill" to="#808080" begin="zoomplus.mouseover" end="zoomplus.mouseout"/></use>
    <path d="M-4,0h8M0,-4v8" fill="none" stroke="white" stroke-width="1.5" pointer-events="none"/>
  </g>
  <g id="zoomMin">
    <use xlink:href="#rim" fill="#404040"><set attributeName="fill" to="#808080" begin="zoomminus.mouseover" end="zoomminus.mouseout"/></use>
    <path d="M-4,0h8" fill="none" stroke="white" stroke-width="1.5" pointer-events="none"/>
  </g>
  <g id="arrowUp" transform="translate(30 24)">
    <use xlink:href="#rim"/>
    <path pointer-events="none" fill="none" stroke="white" stroke-width="1.5" d="M0,-3.0v7 M-2.5,-0.5L0,-3.0L2.5,-0.5"/>
  </g>
  <g id="arrowRight" transform="rotate(90) translate(36 -43)">
    <use xlink:href="#rim"/>
    <path pointer-events="none" fill="none" stroke="white" stroke-width="1.5" d="M0,-3.0v7 M-2.5,-0.5L0,-3.0L2.5,-0.5"/>
  </g>
  <g id="arrowDown" transform="rotate(180) translate(-30 -48)">
    <use xlink:href="#rim"/>
    <path pointer-events="none" fill="none" stroke="white" stroke-width="1.5" d="M0,-3.0v7 M-2.5,-0.5L0,-3.0L2.5,-0.5"/>
  </g>
  <g id="arrowLeft" transform="rotate(270) translate(-36 17)">
    <use xlink:href="#rim"/>
    <path pointer-events="none" fill="none" stroke="white" stroke-width="1.5" d="M0,-3.0v7 M-2.5,-0.5L0,-3.0L2.5,-0.5"/>
  </g>
  <g id="resetDef">
    <use xlink:href="#rim2" fill="#404040"><set attributeName="fill" to="#808080" begin="reset.mouseover" end="reset.mouseout"/></use>
  </g>
</defs>
<script type="application/ecmascript">
var viewWidth = 815;
var viewHeight = 94;
var sectionId = 'dynsection-3';
</script>
<script type="application/ecmascript" xlink:href="svg.min.js"/>
<svg id="graph" class="graph">
<g id="viewport">
<title>sensesp::PatternBlinker::set_pattern</title>
<!-- Node1 -->
<g id="Node000001" class="node">
<title>Node1</title>
<g id="a_Node000001"><a xlink:title=" ">
<polygon fill="#999999" stroke="#666666" points="120.25,-60.5 0,-60.5 0,-30 120.25,-30 120.25,-60.5"/>
<text text-anchor="start" x="8" y="-47" font-family="Helvetica,sans-Serif" font-size="10.00">sensesp::PatternBlinker</text>
<text text-anchor="middle" x="60.12" y="-35.75" font-family="Helvetica,sans-Serif" font-size="10.00">::set_pattern</text>
</a>
</g>
</g>
<!-- Node2 -->
<g id="Node000002" class="node">
<title>Node2</title>
<g id="a_Node000002"><a xlink:href="classsensesp_1_1_pattern_blinker.html#a07379ab468fd98211d8af6ef285105a6" target="_top" xlink:title=" ">
<polygon fill="white" stroke="#666666" points="276.5,-60.5 156.25,-60.5 156.25,-30 276.5,-30 276.5,-60.5"/>
<text text-anchor="start" x="164.25" y="-47" font-family="Helvetica,sans-Serif" font-size="10.00">sensesp::PatternBlinker</text>
<text text-anchor="middle" x="216.38" y="-35.75" font-family="Helvetica,sans-Serif" font-size="10.00">::restart</text>
</a>
</g>
</g>
<!-- Node1&#45;&gt;Node2 -->
<g id="edge1_Node000001_Node000002" class="edge">
<title>Node1&#45;&gt;Node2</title>
<g id="a_edge1_Node000001_Node000002"><a xlink:title=" ">
<path fill="none" stroke="#63b8ff" d="M120.32,-45.25C128.23,-45.25 136.41,-45.25 144.5,-45.25"/>
<polygon fill="#63b8ff" stroke="#63b8ff" points="144.31,-48.75 154.31,-45.25 144.31,-41.75 144.31,-48.75"/>
</a>
</g>
</g>
<!-- Node3 -->
<g id="Node000003" class="node">
<title>Node3</title>
<g id="a_Node000003"><a xlink:href="classsensesp_1_1_sens_e_s_p_base_app.html#a9068b65bf976f1d1bd5faf1e3126e8ff" target="_top" xlink:title="Get the event loop object from the singleton SensESPBaseApp instance.">
<polygon fill="white" stroke="#666666" points="610,-85.5 468.75,-85.5 468.75,-55 610,-55 610,-85.5"/>
<text text-anchor="start" x="476.75" y="-72" font-family="Helvetica,sans-Serif" font-size="10.00">sensesp::SensESPBaseApp</text>
<text text-anchor="middle" x="539.38" y="-60.75" font-family="Helvetica,sans-Serif" font-size="10.00">::get_event_loop</text>
</a>
</g>
</g>
<!-- Node2&#45;&gt;Node3 -->
<g id="edge2_Node000002_Node000003" class="edge">
<title>Node2&#45;&gt;Node3</title>
<g id="a_edge2_Node000002_Node000003"><a xlink:title=" ">
<path fill="none" stroke="#63b8ff" d="M276.93,-53.39C288.7,-54.83 300.98,-56.19 312.5,-57.25 360.35,-61.64 414.04,-64.8 457.06,-66.91"/>
<polygon fill="#63b8ff" stroke="#63b8ff" points="456.66,-70.39 466.82,-67.38 457,-63.4 456.66,-70.39"/>
</a>
</g>
</g>
<!-- Node5 -->
<g id="Node000005" class="node">
<title>Node5</title>
<g id="a_Node000005"><a xlink:href="classsensesp_1_1_pattern_blinker.html#adcffb5455e367948e225d13ce29a1ac9" target="_top" xlink:title=" ">
<polygon fill="white" stroke="#666666" points="432.75,-30.5 312.5,-30.5 312.5,0 432.75,0 432.75,-30.5"/>
<text text-anchor="start" x="320.5" y="-17" font-family="Helvetica,sans-Serif" font-size="10.00">sensesp::PatternBlinker</text>
<text text-anchor="middle" x="372.62" y="-5.75" font-family="Helvetica,sans-Serif" font-size="10.00">::tick</text>
</a>
</g>
</g>
<!-- Node2&#45;&gt;Node5 -->
<g id="edge4_Node000002_Node000005" class="edge">
<title>Node2&#45;&gt;Node5</title>
<g id="a_edge4_Node000002_Node000005"><a xlink:title=" ">
<path fill="none" stroke="#63b8ff" d="M276.57,-33.74C284.57,-32.18 292.85,-30.57 301.02,-28.98"/>
<polygon fill="#63b8ff" stroke="#63b8ff" points="301.44,-32.47 310.59,-27.12 300.11,-25.59 301.44,-32.47"/>
</a>
</g>
</g>
<!-- Node4 -->
<g id="Node000004" class="node">
<title>Node4</title>
<g id="a_Node000004"><a xlink:href="classsensesp_1_1_sens_e_s_p_base_app.html#a2df22469c69a8a1234ab673386f574d6" target="_top" xlink:title="Get the singleton instance of the SensESPBaseApp.">
<polygon fill="white" stroke="#666666" points="806.75,-79.88 646,-79.88 646,-60.62 806.75,-60.62 806.75,-79.88"/>
<text text-anchor="middle" x="726.38" y="-66.38" font-family="Helvetica,sans-Serif" font-size="10.00">sensesp::SensESPBaseApp::get</text>
</a>
</g>
</g>
<!-- Node3&#45;&gt;Node4 -->
<g id="edge3_Node000003_Node000004" class="edge">
<title>Node3&#45;&gt;Node4</title>
<g id="a_edge3_Node000003_Node000004"><a xlink:title=" ">
<path fill="none" stroke="#63b8ff" d="M610.32,-70.25C618.17,-70.25 626.26,-70.25 634.34,-70.25"/>
<polygon fill="#63b8ff" stroke="#63b8ff" points="634.21,-73.75 644.21,-70.25 634.21,-66.75 634.21,-73.75"/>
</a>
</g>
</g>
<!-- Node5&#45;&gt;Node3 -->
<g id="edge5_Node000005_Node000003" class="edge">
<title>Node5&#45;&gt;Node3</title>
<g id="a_edge5_Node000005_Node000003"><a xlink:title=" ">
<path fill="none" stroke="#63b8ff" d="M420.4,-30.86C439.1,-37.11 460.83,-44.36 480.51,-50.93"/>
<polygon fill="#63b8ff" stroke="#63b8ff" points="479.17,-54.18 489.77,-54.02 481.39,-47.54 479.17,-54.18"/>
</a>
</g>
</g>
<!-- Node5&#45;&gt;Node5 -->
<g id="edge7_Node000005_Node000005" class="edge">
<title>Node5&#45;&gt;Node5</title>
<g id="a_edge7_Node000005_Node000005"><a xlink:title=" ">
<path fill="none" stroke="#63b8ff" d="M344.94,-30.99C339.29,-40.06 348.52,-48.5 372.62,-48.5 385.81,-48.5 394.54,-45.97 398.83,-42.2"/>
<polygon fill="#63b8ff" stroke="#63b8ff" points="402.27,-42.86 400.11,-32.49 395.33,-41.94 402.27,-42.86"/>
</a>
</g>
</g>
<!-- Node6 -->
<g id="Node000006" class="node">
<title>Node6</title>
<g id="a_Node000006"><a xlink:href="classsensesp_1_1_base_blinker.html#a094e850c60f9c314e114d347070b4978" target="_top" xlink:title=" ">
<polygon fill="white" stroke="#666666" points="595,-30.5 483.75,-30.5 483.75,0 595,0 595,-30.5"/>
<text text-anchor="start" x="491.75" y="-17" font-family="Helvetica,sans-Serif" font-size="10.00">sensesp::BaseBlinker</text>
<text text-anchor="middle" x="539.38" y="-5.75" font-family="Helvetica,sans-Serif" font-size="10.00">::set_state</text>
</a>
</g>
</g>
<!-- Node5&#45;&gt;Node6 -->
<g id="edge6_Node000005_Node000006" class="edge">
<title>Node5&#45;&gt;Node6</title>
<g id="a_edge6_Node000005_Node000006"><a xlink:title=" ">
<path fill="none" stroke="#63b8ff" d="M433.1,-15.25C445.79,-15.25 459.27,-15.25 472.19,-15.25"/>
<polygon fill="#63b8ff" stroke="#63b8ff" points="471.86,-18.75 481.86,-15.25 471.86,-11.75 471.86,-18.75"/>
</a>
</g>
</g>
</g>
</svg>

<g id="navigator" transform="translate(0 0)" fill="#404254">
  <rect fill="#f2f5e9" fill-opacity="0.5" stroke="#606060" stroke-width=".5" x="0" y="0" width="60" height="60"/>
  <use id="zoomplus" xlink:href="#zoomPlus" x="17" y="9" onmousedown="handleZoom(evt,'in')"/>
  <use id="zoomminus" xlink:href="#zoomMin" x="42" y="9" onmousedown="handleZoom(evt,'out')"/>
  <use id="reset" xlink:href="#resetDef" x="30" y="36" onmousedown="handleReset()"/>
   <use id="arrowup" xlink:href="#arrowUp" x="0" y="0" onmousedown="handlePan(0,-1)"/>
  <use id="arrowright" xlink:href="#arrowRight" x="0" y="0" onmousedown="handlePan(1,0)"/>
  <use id="arrowdown" xlink:href="#arrowDown" x="0" y="0" onmousedown="handlePan(0,1)"/>
  <use id="arrowleft" xlink:href="#arrowLeft" x="0" y="0" onmousedown="handlePan(-1,0)"/>
</g>
<svg viewBox="0 0 15 15" width="100%" height="30px" preserveAspectRatio="xMaxYMin meet">
 <g id="arrow_out" transform="scale(0.3 0.3)">
  <a xlink:href="classsensesp_1_1_pattern_blinker_a42db37148fd29995d67a4d570343ffce_cgraph_org.svg" target="_base">
   <rect id="button" ry="5" rx="5" y="6" x="6" height="38" width="38"
        fill="#f2f5e9" fill-opacity="0.5" stroke="#606060" stroke-width="1.0"/>
   <path id="arrow"
     d="M 11.500037,31.436501 C 11.940474,20.09759 22.043105,11.32322 32.158766,21.979434 L 37.068811,17.246167 C 37.068811,17.246167 37.088388,32 37.088388,32 L 22.160133,31.978069 C 22.160133,31.978069 26.997745,27.140456 26.997745,27.140456 C 18.528582,18.264221 13.291696,25.230495 11.500037,31.436501 z"
     style="fill:#404040;"/>
  </a>
 </g>
</svg>

<style type='text/css'>
<![CDATA[
[data-mouse-over-selected='false'] { opacity: 0.7; }
[data-mouse-over-selected='true']  { opacity: 1.0; }
]]>
</style>
<script type="application/ecmascript"><![CDATA[
document.addEventListener('DOMContentLoaded', (event) => {
  highlightEdges();
  highlightAdjacentNodes();
});
]]></script>
</svg>
