<?xml version="1.0" encoding="UTF-8" standalone="no"?>
<!DOCTYPE svg PUBLIC "-//W3C//DTD SVG 1.1//EN"
 "http://www.w3.org/Graphics/SVG/1.1/DTD/svg11.dtd">
<!-- Generated by graphviz version 2.50.0 (20211204.2007)
 -->
<!-- Title: sensesp::SensESPBaseApp::reset Pages: 1 -->
<svg width="450pt" height="39pt"
 viewBox="0.00 0.00 450.00 39.00" xmlns="http://www.w3.org/2000/svg" xmlns:xlink="http://www.w3.org/1999/xlink">
<g id="graph0" class="graph" transform="scale(1 1) rotate(0) translate(4 35)">
<title>sensesp::SensESPBaseApp::reset</title>
<polygon fill="white" stroke="transparent" points="-4,4 -4,-35 446,-35 446,4 -4,4"/>
<!-- Node1 -->
<g id="node1" class="node">
<title>Node1</title>
<g id="a_node1"><a xlink:title="Reset the device to factory defaults.">
<polygon fill="#bfbfbf" stroke="black" points="300,-0.5 300,-30.5 442,-30.5 442,-0.5 300,-0.5"/>
<text text-anchor="start" x="308" y="-18.5" font-family="Helvetica,sans-Serif" font-size="10.00">sensesp::SensESPBaseApp</text>
<text text-anchor="middle" x="371" y="-7.5" font-family="Helvetica,sans-Serif" font-size="10.00">::reset</text>
</a>
</g>
</g>
<!-- Node2 -->
<g id="node2" class="node">
<title>Node2</title>
<g id="a_node2"><a xlink:href="classsensesp_1_1_h_t_t_p_server.html#a2b531f7baac93cc9528e8b48db59e1c1" target="_top" xlink:title=" ">
<polygon fill="white" stroke="black" points="150,-0.5 150,-30.5 264,-30.5 264,-0.5 150,-0.5"/>
<text text-anchor="start" x="158" y="-18.5" font-family="Helvetica,sans-Serif" font-size="10.00">sensesp::HTTPServer</text>
<text text-anchor="middle" x="207" y="-7.5" font-family="Helvetica,sans-Serif" font-size="10.00">::handle_device_reset</text>
</a>
</g>
</g>
<!-- Node1&#45;&gt;Node2 -->
<g id="edge1" class="edge">
<title>Node1&#45;&gt;Node2</title>
<path fill="none" stroke="midnightblue" d="M289.73,-15.5C281.06,-15.5 272.37,-15.5 264.07,-15.5"/>
<polygon fill="midnightblue" stroke="midnightblue" points="289.89,-19 299.89,-15.5 289.89,-12 289.89,-19"/>
</g>
<!-- Node3 -->
<g id="node3" class="node">
<title>Node3</title>
<g id="a_node3"><a xlink:href="classsensesp_1_1_h_t_t_p_server.html#aaff846f90a54be25ac7135c2952e71ee" target="_top" xlink:title=" ">
<polygon fill="white" stroke="black" points="0,-0.5 0,-30.5 114,-30.5 114,-0.5 0,-0.5"/>
<text text-anchor="start" x="8" y="-18.5" font-family="Helvetica,sans-Serif" font-size="10.00">sensesp::HTTPServer</text>
<text text-anchor="middle" x="57" y="-7.5" font-family="Helvetica,sans-Serif" font-size="10.00">::HTTPServer</text>
</a>
</g>
</g>
<!-- Node2&#45;&gt;Node3 -->
<g id="edge2" class="edge">
<title>Node2&#45;&gt;Node3</title>
<path fill="none" stroke="midnightblue" d="M139.44,-15.5C131.02,-15.5 122.46,-15.5 114.22,-15.5"/>
<polygon fill="midnightblue" stroke="midnightblue" points="139.63,-19 149.63,-15.5 139.63,-12 139.63,-19"/>
</g>
</g>
</svg>
