<?xml version="1.0" encoding="UTF-8" standalone="no"?>
<!DOCTYPE svg PUBLIC "-//W3C//DTD SVG 1.1//EN"
 "http://www.w3.org/Graphics/SVG/1.1/DTD/svg11.dtd">
<!-- Generated by graphviz version 12.0.0 (20240704.0754)
 -->
<!-- Title: sensesp::WiFiStateProducer::wifi_ap_enabled Pages: 1 -->
<!--zoomable 88 -->

<svg id="main" version="1.1" xmlns="http://www.w3.org/2000/svg" xmlns:xlink="http://www.w3.org/1999/xlink" xml:space="preserve" onload="init(evt)">
<style type="text/css"><![CDATA[
.node, .edge {opacity: 0.7;}
.node.selected, .edge.selected {opacity: 1;}
.edge:hover path { stroke: red; }
.edge:hover polygon { stroke: red; fill: red; }
]]></style>

<defs>
  <circle id="rim" cx="0" cy="0" r="7"/>
  <circle id="rim2" cx="0" cy="0" r="3.5"/>
  <g id="zoomPlus">
    <use xlink:href="#rim" fill="#404040"><set attributeName="fill" to="#808080" begin="zoomplus.mouseover" end="zoomplus.mouseout"/></use>
    <path d="M-4,0h8M0,-4v8" fill="none" stroke="white" stroke-width="1.5" pointer-events="none"/>
  </g>
  <g id="zoomMin">
    <use xlink:href="#rim" fill="#404040"><set attributeName="fill" to="#808080" begin="zoomminus.mouseover" end="zoomminus.mouseout"/></use>
    <path d="M-4,0h8" fill="none" stroke="white" stroke-width="1.5" pointer-events="none"/>
  </g>
  <g id="arrowUp" transform="translate(30 24)">
    <use xlink:href="#rim"/>
    <path pointer-events="none" fill="none" stroke="white" stroke-width="1.5" d="M0,-3.0v7 M-2.5,-0.5L0,-3.0L2.5,-0.5"/>
  </g>
  <g id="arrowRight" transform="rotate(90) translate(36 -43)">
    <use xlink:href="#rim"/>
    <path pointer-events="none" fill="none" stroke="white" stroke-width="1.5" d="M0,-3.0v7 M-2.5,-0.5L0,-3.0L2.5,-0.5"/>
  </g>
  <g id="arrowDown" transform="rotate(180) translate(-30 -48)">
    <use xlink:href="#rim"/>
    <path pointer-events="none" fill="none" stroke="white" stroke-width="1.5" d="M0,-3.0v7 M-2.5,-0.5L0,-3.0L2.5,-0.5"/>
  </g>
  <g id="arrowLeft" transform="rotate(270) translate(-36 17)">
    <use xlink:href="#rim"/>
    <path pointer-events="none" fill="none" stroke="white" stroke-width="1.5" d="M0,-3.0v7 M-2.5,-0.5L0,-3.0L2.5,-0.5"/>
  </g>
  <g id="resetDef">
    <use xlink:href="#rim2" fill="#404040"><set attributeName="fill" to="#808080" begin="reset.mouseover" end="reset.mouseout"/></use>
  </g>
</defs>
<script type="application/ecmascript">
var viewWidth = 1094;
var viewHeight = 88;
var sectionId = 'dynsection-8';
</script>
<script type="application/ecmascript" xlink:href="svg.min.js"/>
<svg id="graph" class="graph">
<g id="viewport">
<title>sensesp::WiFiStateProducer::wifi_ap_enabled</title>
<!-- Node1 -->
<g id="Node000001" class="node">
<title>Node1</title>
<g id="a_Node000001"><a xlink:title=" ">
<polygon fill="#999999" stroke="#666666" points="1085.5,-54.5 944.25,-54.5 944.25,-24 1085.5,-24 1085.5,-54.5"/>
<text text-anchor="start" x="952.25" y="-41" font-family="Helvetica,sans-Serif" font-size="10.00">sensesp::WiFiStateProducer</text>
<text text-anchor="middle" x="1014.88" y="-29.75" font-family="Helvetica,sans-Serif" font-size="10.00">::wifi_ap_enabled</text>
</a>
</g>
</g>
<!-- Node2 -->
<g id="Node000002" class="node">
<title>Node2</title>
<g id="a_Node000002"><a xlink:href="classsensesp_1_1_wi_fi_state_producer.html#a200024c6ceaade999731beb109c62f2a" target="_top" xlink:title=" ">
<polygon fill="white" stroke="#666666" points="908.25,-54.5 767,-54.5 767,-24 908.25,-24 908.25,-54.5"/>
<text text-anchor="start" x="775" y="-41" font-family="Helvetica,sans-Serif" font-size="10.00">sensesp::WiFiStateProducer</text>
<text text-anchor="middle" x="837.62" y="-29.75" font-family="Helvetica,sans-Serif" font-size="10.00">::setup_wifi_callbacks</text>
</a>
</g>
</g>
<!-- Node1&#45;&gt;Node2 -->
<g id="edge1_Node000001_Node000002" class="edge">
<title>Node1&#45;&gt;Node2</title>
<g id="a_edge1_Node000001_Node000002"><a xlink:title=" ">
<path fill="none" stroke="#63b8ff" d="M932.57,-39.25C924.54,-39.25 916.44,-39.25 908.53,-39.25"/>
<polygon fill="#63b8ff" stroke="#63b8ff" points="932.34,-42.75 942.34,-39.25 932.34,-35.75 932.34,-42.75"/>
</a>
</g>
</g>
<!-- Node3 -->
<g id="Node000003" class="node">
<title>Node3</title>
<g id="a_Node000003"><a xlink:href="classsensesp_1_1_wi_fi_state_producer.html#a2a64fa7edd035de465cc257cf6fe5b30" target="_top" xlink:title=" ">
<polygon fill="white" stroke="#666666" points="731,-54.5 589.75,-54.5 589.75,-24 731,-24 731,-54.5"/>
<text text-anchor="start" x="597.75" y="-41" font-family="Helvetica,sans-Serif" font-size="10.00">sensesp::WiFiStateProducer</text>
<text text-anchor="middle" x="660.38" y="-29.75" font-family="Helvetica,sans-Serif" font-size="10.00">::WiFiStateProducer</text>
</a>
</g>
</g>
<!-- Node2&#45;&gt;Node3 -->
<g id="edge2_Node000002_Node000003" class="edge">
<title>Node2&#45;&gt;Node3</title>
<g id="a_edge2_Node000002_Node000003"><a xlink:title=" ">
<path fill="none" stroke="#63b8ff" d="M755.32,-39.25C747.29,-39.25 739.19,-39.25 731.28,-39.25"/>
<polygon fill="#63b8ff" stroke="#63b8ff" points="755.09,-42.75 765.09,-39.25 755.09,-35.75 755.09,-42.75"/>
</a>
</g>
</g>
<!-- Node4 -->
<g id="Node000004" class="node">
<title>Node4</title>
<g id="a_Node000004"><a xlink:href="classsensesp_1_1_wi_fi_state_producer.html#a648a8faa7d3d3a60acc752d125cc554c" target="_top" xlink:title="Get the singleton instance of the WiFiStateProducer.">
<polygon fill="white" stroke="#666666" points="553.75,-54.5 412.5,-54.5 412.5,-24 553.75,-24 553.75,-54.5"/>
<text text-anchor="start" x="420.5" y="-41" font-family="Helvetica,sans-Serif" font-size="10.00">sensesp::WiFiStateProducer</text>
<text text-anchor="middle" x="483.12" y="-29.75" font-family="Helvetica,sans-Serif" font-size="10.00">::get_singleton</text>
</a>
</g>
</g>
<!-- Node3&#45;&gt;Node4 -->
<g id="edge3_Node000003_Node000004" class="edge">
<title>Node3&#45;&gt;Node4</title>
<g id="a_edge3_Node000003_Node000004"><a xlink:title=" ">
<path fill="none" stroke="#63b8ff" d="M578.07,-39.25C570.04,-39.25 561.94,-39.25 554.03,-39.25"/>
<polygon fill="#63b8ff" stroke="#63b8ff" points="577.84,-42.75 587.84,-39.25 577.84,-35.75 577.84,-42.75"/>
</a>
</g>
</g>
<!-- Node5 -->
<g id="Node000005" class="node">
<title>Node5</title>
<g id="a_Node000005"><a xlink:href="classsensesp_1_1_networking.html#a69ec1787020ee667dfeae913f352767a" target="_top" xlink:title=" ">
<polygon fill="white" stroke="#666666" points="372,-79.5 263.75,-79.5 263.75,-49 372,-49 372,-79.5"/>
<text text-anchor="start" x="271.75" y="-66" font-family="Helvetica,sans-Serif" font-size="10.00">sensesp::Networking</text>
<text text-anchor="middle" x="317.88" y="-54.75" font-family="Helvetica,sans-Serif" font-size="10.00">::Networking</text>
</a>
</g>
</g>
<!-- Node4&#45;&gt;Node5 -->
<g id="edge4_Node000004_Node000005" class="edge">
<title>Node4&#45;&gt;Node5</title>
<g id="a_edge4_Node000004_Node000005"><a xlink:title=" ">
<path fill="none" stroke="#63b8ff" d="M401.26,-51.63C391.34,-53.15 381.41,-54.67 372.05,-56.11"/>
<polygon fill="#63b8ff" stroke="#63b8ff" points="401.57,-55.13 410.92,-50.15 400.51,-48.21 401.57,-55.13"/>
</a>
</g>
</g>
<!-- Node6 -->
<g id="Node000006" class="node">
<title>Node6</title>
<g id="a_Node000006"><a xlink:href="classsensesp_1_1_sens_e_s_p_app.html#a49534d134dbae3ce35f4bac5879a8640" target="_top" xlink:title="Perform initialization of SensESPApp once builder configuration is done.">
<polygon fill="white" stroke="#666666" points="376.5,-30.5 259.25,-30.5 259.25,0 376.5,0 376.5,-30.5"/>
<text text-anchor="start" x="267.25" y="-17" font-family="Helvetica,sans-Serif" font-size="10.00">sensesp::SensESPApp</text>
<text text-anchor="middle" x="317.88" y="-5.75" font-family="Helvetica,sans-Serif" font-size="10.00">::setup</text>
</a>
</g>
</g>
<!-- Node4&#45;&gt;Node6 -->
<g id="edge5_Node000004_Node000006" class="edge">
<title>Node4&#45;&gt;Node6</title>
<g id="a_edge5_Node000004_Node000006"><a xlink:title=" ">
<path fill="none" stroke="#63b8ff" d="M401.22,-27.36C392.98,-26.14 384.73,-24.93 376.8,-23.77"/>
<polygon fill="#63b8ff" stroke="#63b8ff" points="400.52,-30.79 410.92,-28.78 401.54,-23.86 400.52,-30.79"/>
</a>
</g>
</g>
<!-- Node7 -->
<g id="Node000007" class="node">
<title>Node7</title>
<g id="a_Node000007"><a xlink:href="classsensesp_1_1_sens_e_s_p_app_builder.html#ac348bac39d057253e3d291a3c4d7d79f" target="_top" xlink:title="Get the SensESPApp object.">
<polygon fill="white" stroke="#666666" points="223.25,-30.5 76,-30.5 76,0 223.25,0 223.25,-30.5"/>
<text text-anchor="start" x="84" y="-17" font-family="Helvetica,sans-Serif" font-size="10.00">sensesp::SensESPAppBuilder</text>
<text text-anchor="middle" x="149.62" y="-5.75" font-family="Helvetica,sans-Serif" font-size="10.00">::get_app</text>
</a>
</g>
</g>
<!-- Node6&#45;&gt;Node7 -->
<g id="edge6_Node000006_Node000007" class="edge">
<title>Node6&#45;&gt;Node7</title>
<g id="a_edge6_Node000006_Node000007"><a xlink:title=" ">
<path fill="none" stroke="#63b8ff" d="M247.74,-15.25C239.81,-15.25 231.7,-15.25 223.72,-15.25"/>
<polygon fill="#63b8ff" stroke="#63b8ff" points="247.68,-18.75 257.68,-15.25 247.68,-11.75 247.68,-18.75"/>
</a>
</g>
</g>
<!-- Node8 -->
<g id="Node000008" class="node">
<title>Node8</title>
<g id="a_Node000008"><a xlink:href="main_8cpp.html#a4fc01d736fe50cf5b977f755b675f11d" target="_top" xlink:title=" ">
<polygon fill="white" stroke="#666666" points="40,-24.88 0,-24.88 0,-5.63 40,-5.63 40,-24.88"/>
<text text-anchor="middle" x="20" y="-11.38" font-family="Helvetica,sans-Serif" font-size="10.00">setup</text>
</a>
</g>
</g>
<!-- Node7&#45;&gt;Node8 -->
<g id="edge7_Node000007_Node000008" class="edge">
<title>Node7&#45;&gt;Node8</title>
<g id="a_edge7_Node000007_Node000008"><a xlink:title=" ">
<path fill="none" stroke="#63b8ff" d="M64.39,-15.25C55.54,-15.25 47.27,-15.25 40.37,-15.25"/>
<polygon fill="#63b8ff" stroke="#63b8ff" points="64.35,-18.75 74.35,-15.25 64.35,-11.75 64.35,-18.75"/>
</a>
</g>
</g>
</g>
</svg>

<g id="navigator" transform="translate(0 0)" fill="#404254">
  <rect fill="#f2f5e9" fill-opacity="0.5" stroke="#606060" stroke-width=".5" x="0" y="0" width="60" height="60"/>
  <use id="zoomplus" xlink:href="#zoomPlus" x="17" y="9" onmousedown="handleZoom(evt,'in')"/>
  <use id="zoomminus" xlink:href="#zoomMin" x="42" y="9" onmousedown="handleZoom(evt,'out')"/>
  <use id="reset" xlink:href="#resetDef" x="30" y="36" onmousedown="handleReset()"/>
   <use id="arrowup" xlink:href="#arrowUp" x="0" y="0" onmousedown="handlePan(0,-1)"/>
  <use id="arrowright" xlink:href="#arrowRight" x="0" y="0" onmousedown="handlePan(1,0)"/>
  <use id="arrowdown" xlink:href="#arrowDown" x="0" y="0" onmousedown="handlePan(0,1)"/>
  <use id="arrowleft" xlink:href="#arrowLeft" x="0" y="0" onmousedown="handlePan(-1,0)"/>
</g>
<svg viewBox="0 0 15 15" width="100%" height="30px" preserveAspectRatio="xMaxYMin meet">
 <g id="arrow_out" transform="scale(0.3 0.3)">
  <a xlink:href="classsensesp_1_1_wi_fi_state_producer_a11cee5b6718a0cd0e05379714d2c2328_icgraph_org.svg" target="_base">
   <rect id="button" ry="5" rx="5" y="6" x="6" height="38" width="38"
        fill="#f2f5e9" fill-opacity="0.5" stroke="#606060" stroke-width="1.0"/>
   <path id="arrow"
     d="M 11.500037,31.436501 C 11.940474,20.09759 22.043105,11.32322 32.158766,21.979434 L 37.068811,17.246167 C 37.068811,17.246167 37.088388,32 37.088388,32 L 22.160133,31.978069 C 22.160133,31.978069 26.997745,27.140456 26.997745,27.140456 C 18.528582,18.264221 13.291696,25.230495 11.500037,31.436501 z"
     style="fill:#404040;"/>
  </a>
 </g>
</svg>

<style type='text/css'>
<![CDATA[
[data-mouse-over-selected='false'] { opacity: 0.7; }
[data-mouse-over-selected='true']  { opacity: 1.0; }
]]>
</style>
<script type="application/ecmascript"><![CDATA[
document.addEventListener('DOMContentLoaded', (event) => {
  highlightEdges();
  highlightAdjacentNodes();
});
]]></script>
</svg>
