<?xml version="1.0" encoding="UTF-8" standalone="no"?>
<!DOCTYPE svg PUBLIC "-//W3C//DTD SVG 1.1//EN"
 "http://www.w3.org/Graphics/SVG/1.1/DTD/svg11.dtd">
<!-- Generated by graphviz version 12.0.0 (20240704.0754)
 -->
<!-- Title: sensesp::PressRepeater::PressRepeater Pages: 1 -->
<svg width="514pt" height="128pt"
 viewBox="0.00 0.00 513.75 127.50" xmlns="http://www.w3.org/2000/svg" xmlns:xlink="http://www.w3.org/1999/xlink">
<g id="graph0" class="graph" transform="scale(1 1) rotate(0) translate(4 123.5)">
<title>sensesp::PressRepeater::PressRepeater</title>
<!-- Node1 -->
<g id="Node000001" class="node">
<title>Node1</title>
<g id="a_Node000001"><a xlink:title=" ">
<polygon fill="#999999" stroke="#666666" points="124,-94.5 0,-94.5 0,-64 124,-64 124,-94.5"/>
<text text-anchor="start" x="8" y="-81" font-family="Helvetica,sans-Serif" font-size="10.00">sensesp::PressRepeater</text>
<text text-anchor="middle" x="62" y="-69.75" font-family="Helvetica,sans-Serif" font-size="10.00">::PressRepeater</text>
</a>
</g>
</g>
<!-- Node2 -->
<g id="Node000002" class="node">
<title>Node2</title>
<g id="a_Node000002"><a xlink:href="classsensesp_1_1_value_producer.html#a4f5f0259d0d3cd9a0ed17d657cac04e2" target="_top" xlink:title=" ">
<polygon fill="white" stroke="#666666" points="281.75,-119.5 160,-119.5 160,-89 281.75,-89 281.75,-119.5"/>
<text text-anchor="start" x="168" y="-106" font-family="Helvetica,sans-Serif" font-size="10.00">sensesp::ValueProducer</text>
<text text-anchor="middle" x="220.88" y="-94.75" font-family="Helvetica,sans-Serif" font-size="10.00">::emit</text>
</a>
</g>
</g>
<!-- Node1&#45;&gt;Node2 -->
<g id="edge1_Node000001_Node000002" class="edge">
<title>Node1&#45;&gt;Node2</title>
<g id="a_edge1_Node000001_Node000002"><a xlink:title=" ">
<path fill="none" stroke="#63b8ff" d="M124.1,-88.99C132.05,-90.25 140.26,-91.56 148.36,-92.85"/>
<polygon fill="#63b8ff" stroke="#63b8ff" points="147.79,-96.31 158.22,-94.42 148.89,-89.39 147.79,-96.31"/>
</a>
</g>
</g>
<!-- Node4 -->
<g id="Node000004" class="node">
<title>Node4</title>
<g id="a_Node000004"><a xlink:href="classsensesp_1_1_configurable.html#ac97542fd5a24ae306adb77f3d1ba563a" target="_top" xlink:title=" ">
<polygon fill="white" stroke="#666666" points="277.62,-70.5 164.12,-70.5 164.12,-40 277.62,-40 277.62,-70.5"/>
<text text-anchor="start" x="172.12" y="-57" font-family="Helvetica,sans-Serif" font-size="10.00">sensesp::Configurable</text>
<text text-anchor="middle" x="220.88" y="-45.75" font-family="Helvetica,sans-Serif" font-size="10.00">::load_configuration</text>
</a>
</g>
</g>
<!-- Node1&#45;&gt;Node4 -->
<g id="edge3_Node000001_Node000004" class="edge">
<title>Node1&#45;&gt;Node4</title>
<g id="a_edge3_Node000001_Node000004"><a xlink:title=" ">
<path fill="none" stroke="#63b8ff" d="M124.1,-69.9C133.4,-68.48 143.04,-67.01 152.46,-65.56"/>
<polygon fill="#63b8ff" stroke="#63b8ff" points="152.96,-69.03 162.31,-64.06 151.9,-62.11 152.96,-69.03"/>
</a>
</g>
</g>
<!-- Node3 -->
<g id="Node000003" class="node">
<title>Node3</title>
<g id="a_Node000003"><a xlink:href="classsensesp_1_1_observable.html#ab86d00fed8fb85b4c76cb9397667ece9" target="_top" xlink:title=" ">
<polygon fill="white" stroke="#666666" points="428.62,-119.5 320.38,-119.5 320.38,-89 428.62,-89 428.62,-119.5"/>
<text text-anchor="start" x="328.38" y="-106" font-family="Helvetica,sans-Serif" font-size="10.00">sensesp::Observable</text>
<text text-anchor="middle" x="374.5" y="-94.75" font-family="Helvetica,sans-Serif" font-size="10.00">::notify</text>
</a>
</g>
</g>
<!-- Node2&#45;&gt;Node3 -->
<g id="edge2_Node000002_Node000003" class="edge">
<title>Node2&#45;&gt;Node3</title>
<g id="a_edge2_Node000002_Node000003"><a xlink:title=" ">
<path fill="none" stroke="#63b8ff" d="M282.24,-104.25C290.97,-104.25 299.98,-104.25 308.79,-104.25"/>
<polygon fill="#63b8ff" stroke="#63b8ff" points="308.7,-107.75 318.7,-104.25 308.7,-100.75 308.7,-107.75"/>
</a>
</g>
</g>
<!-- Node5 -->
<g id="Node000005" class="node">
<title>Node5</title>
<g id="a_Node000005"><a xlink:href="hash_8cpp.html#acb0d85917e87a85ddaf682ebde0872a5" target="_top" xlink:title="A base64&#45;encoded SHA&#45;1 hash function.">
<polygon fill="white" stroke="#666666" points="410.25,-67.88 338.75,-67.88 338.75,-48.62 410.25,-48.62 410.25,-67.88"/>
<text text-anchor="middle" x="374.5" y="-54.38" font-family="Helvetica,sans-Serif" font-size="10.00">Base64Sha1</text>
</a>
</g>
</g>
<!-- Node4&#45;&gt;Node5 -->
<g id="edge4_Node000004_Node000005" class="edge">
<title>Node4&#45;&gt;Node5</title>
<g id="a_edge4_Node000004_Node000005"><a xlink:title=" ">
<path fill="none" stroke="#63b8ff" d="M277.9,-56.36C294.04,-56.68 311.46,-57.02 326.95,-57.33"/>
<polygon fill="#63b8ff" stroke="#63b8ff" points="326.79,-60.83 336.86,-57.52 326.93,-53.83 326.79,-60.83"/>
</a>
</g>
</g>
<!-- Node7 -->
<g id="Node000007" class="node">
<title>Node7</title>
<g id="a_Node000007"><a xlink:href="classsensesp_1_1_configurable.html#a0deaa5b717cd0f60d0105835cd6b595a" target="_top" xlink:title=" ">
<polygon fill="white" stroke="#666666" points="431.25,-30.5 317.75,-30.5 317.75,0 431.25,0 431.25,-30.5"/>
<text text-anchor="start" x="325.75" y="-17" font-family="Helvetica,sans-Serif" font-size="10.00">sensesp::Configurable</text>
<text text-anchor="middle" x="374.5" y="-5.75" font-family="Helvetica,sans-Serif" font-size="10.00">::set_configuration</text>
</a>
</g>
</g>
<!-- Node4&#45;&gt;Node7 -->
<g id="edge6_Node000004_Node000007" class="edge">
<title>Node4&#45;&gt;Node7</title>
<g id="a_edge6_Node000004_Node000007"><a xlink:title=" ">
<path fill="none" stroke="#63b8ff" d="M277.9,-40.47C287.18,-38.02 296.88,-35.46 306.4,-32.95"/>
<polygon fill="#63b8ff" stroke="#63b8ff" points="307.21,-36.36 315.99,-30.42 305.42,-29.59 307.21,-36.36"/>
</a>
</g>
</g>
<!-- Node6 -->
<g id="Node000006" class="node">
<title>Node6</title>
<g id="a_Node000006"><a xlink:href="hash_8cpp.html#a5c78d7f77047179963ffda330a0a00ce" target="_top" xlink:title="SHA&#45;1 hash function.">
<polygon fill="white" stroke="#666666" points="505.75,-67.88 467.25,-67.88 467.25,-48.62 505.75,-48.62 505.75,-67.88"/>
<text text-anchor="middle" x="486.5" y="-54.38" font-family="Helvetica,sans-Serif" font-size="10.00">Sha1</text>
</a>
</g>
</g>
<!-- Node5&#45;&gt;Node6 -->
<g id="edge5_Node000005_Node000006" class="edge">
<title>Node5&#45;&gt;Node6</title>
<g id="a_edge5_Node000005_Node000006"><a xlink:title=" ">
<path fill="none" stroke="#63b8ff" d="M410.61,-58.25C425.1,-58.25 441.72,-58.25 455.62,-58.25"/>
<polygon fill="#63b8ff" stroke="#63b8ff" points="455.49,-61.75 465.49,-58.25 455.49,-54.75 455.49,-61.75"/>
</a>
</g>
</g>
</g>
</svg>
