<?xml version="1.0" encoding="UTF-8" standalone="no"?>
<!DOCTYPE svg PUBLIC "-//W3C//DTD SVG 1.1//EN"
 "http://www.w3.org/Graphics/SVG/1.1/DTD/svg11.dtd">
<!-- Generated by graphviz version 2.49.3 (20211023.0002)
 -->
<!-- Title: sensesp::ClickType::set_input Pages: 1 -->
<svg width="849pt" height="138pt"
 viewBox="0.00 0.00 849.00 137.78" xmlns="http://www.w3.org/2000/svg" xmlns:xlink="http://www.w3.org/1999/xlink">
<g id="graph0" class="graph" transform="scale(1 1) rotate(0) translate(4 133.78)">
<title>sensesp::ClickType::set_input</title>
<polygon fill="white" stroke="transparent" points="-4,4 -4,-133.78 845,-133.78 845,4 -4,4"/>
<!-- Node1 -->
<g id="node1" class="node">
<title>Node1</title>
<g id="a_node1"><a xlink:title=" ">
<polygon fill="#bfbfbf" stroke="black" points="0,-52.71 0,-82.71 103,-82.71 103,-52.71 0,-52.71"/>
<text text-anchor="start" x="8" y="-70.71" font-family="Helvetica,sans-Serif" font-size="10.00">sensesp::ClickType</text>
<text text-anchor="middle" x="51.5" y="-59.71" font-family="Helvetica,sans-Serif" font-size="10.00">::set_input</text>
</a>
</g>
</g>
<!-- Node2 -->
<g id="node2" class="node">
<title>Node2</title>
<g id="a_node2"><a xlink:href="classsensesp_1_1_click_type.html#adf5c465844609d1d0f461c37fc114ac5" target="_top" xlink:title="Processes incoming values that represent a &quot;ButonPress&quot; event.">
<polygon fill="white" stroke="black" points="140,-77.71 140,-107.71 243,-107.71 243,-77.71 140,-77.71"/>
<text text-anchor="start" x="148" y="-95.71" font-family="Helvetica,sans-Serif" font-size="10.00">sensesp::ClickType</text>
<text text-anchor="middle" x="191.5" y="-84.71" font-family="Helvetica,sans-Serif" font-size="10.00">::on_button_press</text>
</a>
</g>
</g>
<!-- Node1&#45;&gt;Node2 -->
<g id="edge1" class="edge">
<title>Node1&#45;&gt;Node2</title>
<path fill="none" stroke="midnightblue" d="M103.1,-76.88C111.82,-78.46 120.96,-80.11 129.91,-81.74"/>
<polygon fill="midnightblue" stroke="midnightblue" points="129.44,-85.21 139.9,-83.55 130.69,-78.32 129.44,-85.21"/>
</g>
<!-- Node8 -->
<g id="node8" class="node">
<title>Node8</title>
<g id="a_node8"><a xlink:href="classsensesp_1_1_click_type.html#ae42d90645326071c653be889138e0926" target="_top" xlink:title="Processes incoming value that represent a &quot;ButtonRelease&quot; event.">
<polygon fill="white" stroke="black" points="139,-28.71 139,-58.71 244,-58.71 244,-28.71 139,-28.71"/>
<text text-anchor="start" x="147" y="-46.71" font-family="Helvetica,sans-Serif" font-size="10.00">sensesp::ClickType</text>
<text text-anchor="middle" x="191.5" y="-35.71" font-family="Helvetica,sans-Serif" font-size="10.00">::on_button_release</text>
</a>
</g>
</g>
<!-- Node1&#45;&gt;Node8 -->
<g id="edge8" class="edge">
<title>Node1&#45;&gt;Node8</title>
<path fill="none" stroke="midnightblue" d="M103.1,-58.91C111.51,-57.45 120.3,-55.92 128.94,-54.42"/>
<polygon fill="midnightblue" stroke="midnightblue" points="129.73,-57.83 138.98,-52.67 128.53,-50.94 129.73,-57.83"/>
</g>
<!-- Node3 -->
<g id="node3" class="node">
<title>Node3</title>
<g id="a_node3"><a xlink:href="classsensesp_1_1_value_producer.html#ae34225039d68b6f0e786266e76c2dace" target="_top" xlink:title=" ">
<polygon fill="white" stroke="black" points="570,-12.71 570,-42.71 695,-42.71 695,-12.71 570,-12.71"/>
<text text-anchor="start" x="578" y="-30.71" font-family="Helvetica,sans-Serif" font-size="10.00">sensesp::ValueProducer</text>
<text text-anchor="middle" x="632.5" y="-19.71" font-family="Helvetica,sans-Serif" font-size="10.00">::emit</text>
</a>
</g>
</g>
<!-- Node2&#45;&gt;Node3 -->
<g id="edge2" class="edge">
<title>Node2&#45;&gt;Node3</title>
<path fill="none" stroke="midnightblue" d="M243.18,-107.51C311.73,-124.79 436.63,-146.54 534,-108.71 565.55,-96.45 594.38,-69.69 612.38,-50.27"/>
<polygon fill="midnightblue" stroke="midnightblue" points="615.08,-52.49 619.18,-42.72 609.88,-47.81 615.08,-52.49"/>
</g>
<!-- Node5 -->
<g id="node5" class="node">
<title>Node5</title>
<g id="a_node5"><a xlink:href="classsensesp_1_1_click_type.html#a7cef6ec74f8d73633853e560a3872e3a" target="_top" xlink:title=" ">
<polygon fill="white" stroke="black" points="280,-75.71 280,-105.71 388,-105.71 388,-75.71 280,-75.71"/>
<text text-anchor="start" x="288" y="-93.71" font-family="Helvetica,sans-Serif" font-size="10.00">sensesp::ClickType</text>
<text text-anchor="middle" x="334" y="-82.71" font-family="Helvetica,sans-Serif" font-size="10.00">::on_ultra_long_click</text>
</a>
</g>
</g>
<!-- Node2&#45;&gt;Node5 -->
<g id="edge4" class="edge">
<title>Node2&#45;&gt;Node5</title>
<path fill="none" stroke="midnightblue" d="M243.22,-91.99C251.9,-91.87 261.02,-91.74 269.97,-91.61"/>
<polygon fill="midnightblue" stroke="midnightblue" points="270.03,-95.11 279.98,-91.47 269.93,-88.11 270.03,-95.11"/>
</g>
<!-- Node4 -->
<g id="node4" class="node">
<title>Node4</title>
<g id="a_node4"><a xlink:href="classsensesp_1_1_observable.html#ab86d00fed8fb85b4c76cb9397667ece9" target="_top" xlink:title=" ">
<polygon fill="white" stroke="black" points="731,-12.71 731,-42.71 841,-42.71 841,-12.71 731,-12.71"/>
<text text-anchor="start" x="739" y="-30.71" font-family="Helvetica,sans-Serif" font-size="10.00">sensesp::Observable</text>
<text text-anchor="middle" x="786" y="-19.71" font-family="Helvetica,sans-Serif" font-size="10.00">::notify</text>
</a>
</g>
</g>
<!-- Node3&#45;&gt;Node4 -->
<g id="edge3" class="edge">
<title>Node3&#45;&gt;Node4</title>
<path fill="none" stroke="midnightblue" d="M695.12,-27.71C703.51,-27.71 712.13,-27.71 720.57,-27.71"/>
<polygon fill="midnightblue" stroke="midnightblue" points="720.73,-31.21 730.73,-27.71 720.73,-24.21 720.73,-31.21"/>
</g>
<!-- Node6 -->
<g id="node6" class="node">
<title>Node6</title>
<g id="a_node6"><a xlink:href="classsensesp_1_1_click_type.html#a1c109241a50f371960a333abc3ead21a" target="_top" xlink:title=" ">
<polygon fill="white" stroke="black" points="427.5,-12.71 427.5,-42.71 530.5,-42.71 530.5,-12.71 427.5,-12.71"/>
<text text-anchor="start" x="435.5" y="-30.71" font-family="Helvetica,sans-Serif" font-size="10.00">sensesp::ClickType</text>
<text text-anchor="middle" x="479" y="-19.71" font-family="Helvetica,sans-Serif" font-size="10.00">::emitDelayed</text>
</a>
</g>
</g>
<!-- Node5&#45;&gt;Node6 -->
<g id="edge5" class="edge">
<title>Node5&#45;&gt;Node6</title>
<path fill="none" stroke="midnightblue" d="M369.25,-75.62C388.74,-67.04 413.35,-56.19 434.23,-46.99"/>
<polygon fill="midnightblue" stroke="midnightblue" points="435.79,-50.13 443.53,-42.9 432.97,-43.73 435.79,-50.13"/>
</g>
<!-- Node7 -->
<g id="node7" class="node">
<title>Node7</title>
<g id="a_node7"><a xlink:href="classsensesp_1_1_click_type.html#aec294bafe9a6cb81599f6dfe84eafcf3" target="_top" xlink:title=" ">
<polygon fill="white" stroke="black" points="424,-68.71 424,-98.71 534,-98.71 534,-68.71 424,-68.71"/>
<text text-anchor="start" x="432" y="-86.71" font-family="Helvetica,sans-Serif" font-size="10.00">sensesp::ClickType</text>
<text text-anchor="middle" x="479" y="-75.71" font-family="Helvetica,sans-Serif" font-size="10.00">::on_click_completed</text>
</a>
</g>
</g>
<!-- Node5&#45;&gt;Node7 -->
<g id="edge7" class="edge">
<title>Node5&#45;&gt;Node7</title>
<path fill="none" stroke="midnightblue" d="M388.25,-88.11C396.49,-87.7 405.08,-87.28 413.54,-86.87"/>
<polygon fill="midnightblue" stroke="midnightblue" points="413.94,-90.35 423.75,-86.37 413.59,-83.36 413.94,-90.35"/>
</g>
<!-- Node6&#45;&gt;Node3 -->
<g id="edge6" class="edge">
<title>Node6&#45;&gt;Node3</title>
<path fill="none" stroke="midnightblue" d="M530.87,-27.71C540.18,-27.71 550.06,-27.71 559.85,-27.71"/>
<polygon fill="midnightblue" stroke="midnightblue" points="559.99,-31.21 569.99,-27.71 559.99,-24.21 559.99,-31.21"/>
</g>
<!-- Node8&#45;&gt;Node3 -->
<g id="edge9" class="edge">
<title>Node8&#45;&gt;Node3</title>
<path fill="none" stroke="midnightblue" d="M244.01,-30.04C310.87,-14.05 431.18,8.76 534,-3.71 545.9,-5.15 558.44,-7.55 570.41,-10.29"/>
<polygon fill="midnightblue" stroke="midnightblue" points="569.78,-13.74 580.32,-12.66 571.4,-6.93 569.78,-13.74"/>
</g>
<!-- Node8&#45;&gt;Node5 -->
<g id="edge12" class="edge">
<title>Node8&#45;&gt;Node5</title>
<path fill="none" stroke="midnightblue" d="M237.34,-58.71C250.4,-63.08 264.8,-67.9 278.39,-72.44"/>
<polygon fill="midnightblue" stroke="midnightblue" points="277.51,-75.84 288.1,-75.69 279.73,-69.2 277.51,-75.84"/>
</g>
<!-- Node8&#45;&gt;Node6 -->
<g id="edge10" class="edge">
<title>Node8&#45;&gt;Node6</title>
<path fill="none" stroke="midnightblue" d="M244.23,-36.34C255.97,-34.91 268.4,-33.59 280,-32.71 325.96,-29.25 378.06,-28.04 417.28,-27.68"/>
<polygon fill="midnightblue" stroke="midnightblue" points="417.5,-31.18 427.47,-27.6 417.45,-24.18 417.5,-31.18"/>
</g>
<!-- Node8&#45;&gt;Node7 -->
<g id="edge11" class="edge">
<title>Node8&#45;&gt;Node7</title>
<path fill="none" stroke="midnightblue" d="M244.08,-48.79C283.58,-52.92 339.35,-59.27 388,-66.71 396.36,-67.99 405.13,-69.47 413.78,-71.02"/>
<polygon fill="midnightblue" stroke="midnightblue" points="413.38,-74.5 423.85,-72.85 414.64,-67.62 413.38,-74.5"/>
</g>
</g>
</svg>
