<?xml version="1.0" encoding="UTF-8" standalone="no"?>
<!DOCTYPE svg PUBLIC "-//W3C//DTD SVG 1.1//EN"
 "http://www.w3.org/Graphics/SVG/1.1/DTD/svg11.dtd">
<!-- Generated by graphviz version 13.0.0 (20250608.1624)
 -->
<!-- Title: sensesp::AnalogInput Pages: 1 -->
<svg width="975pt" height="145pt"
 viewBox="0.00 0.00 975.00 145.00" xmlns="http://www.w3.org/2000/svg" xmlns:xlink="http://www.w3.org/1999/xlink">
<g id="graph0" class="graph" transform="scale(1 1) rotate(0) translate(4 140.88)">
<title>sensesp::AnalogInput</title>
<!-- Node1 -->
<g id="Node000001" class="node">
<title>Node1</title>
<g id="a_Node000001"><a xlink:title="Sensor for reading the MCU analog input pins.">
<polygon fill="#999999" stroke="#666666" points="966.75,-67.88 856.25,-67.88 856.25,-48.62 966.75,-48.62 966.75,-67.88"/>
<text xml:space="preserve" text-anchor="middle" x="911.5" y="-54.38" font-family="Helvetica,sans-Serif" font-size="10.00">sensesp::AnalogInput</text>
</a>
</g>
</g>
<!-- Node2 -->
<g id="Node000002" class="node">
<title>Node2</title>
<g id="a_Node000002"><a xlink:href="classsensesp_1_1_sensor.html" target="_top" xlink:title=" ">
<polygon fill="white" stroke="#666666" points="819.25,-67.88 750.75,-67.88 750.75,-48.62 819.25,-48.62 819.25,-67.88"/>
<text xml:space="preserve" text-anchor="middle" x="785" y="-54.38" font-family="Helvetica,sans-Serif" font-size="10.00">FloatSensor</text>
</a>
</g>
</g>
<!-- Node2&#45;&gt;Node1 -->
<g id="edge1_Node000001_Node000002" class="edge">
<title>Node2&#45;&gt;Node1</title>
<g id="a_edge1_Node000001_Node000002"><a xlink:title=" ">
<path fill="none" stroke="#63b8ff" d="M831.19,-58.25C839.29,-58.25 847.81,-58.25 856.14,-58.25"/>
<polygon fill="#63b8ff" stroke="#63b8ff" points="831.21,-54.75 821.21,-58.25 831.21,-61.75 831.21,-54.75"/>
</a>
</g>
</g>
<!-- Node3 -->
<g id="Node000003" class="node">
<title>Node3</title>
<g id="a_Node000003"><a xlink:href="classsensesp_1_1_sensor_config.html" target="_top" xlink:title="The base class for all sensors. Used only as a base class &#45; never instantiated directly in a project.">
<polygon fill="white" stroke="#666666" points="463.62,-80.88 345.62,-80.88 345.62,-61.62 463.62,-61.62 463.62,-80.88"/>
<text xml:space="preserve" text-anchor="middle" x="404.62" y="-67.38" font-family="Helvetica,sans-Serif" font-size="10.00">sensesp::SensorConfig</text>
</a>
</g>
</g>
<!-- Node3&#45;&gt;Node2 -->
<g id="edge2_Node000002_Node000003" class="edge">
<title>Node3&#45;&gt;Node2</title>
<g id="a_edge2_Node000002_Node000003"><a xlink:title=" ">
<path fill="none" stroke="#63b8ff" d="M475.34,-68.85C557,-66.05 688.92,-61.52 750.43,-59.4"/>
<polygon fill="#63b8ff" stroke="#63b8ff" points="475.3,-65.35 465.43,-69.2 475.54,-72.35 475.3,-65.35"/>
</a>
</g>
</g>
<!-- Node10 -->
<g id="Node000010" class="node">
<title>Node10</title>
<g id="a_Node000010"><a xlink:href="classsensesp_1_1_sensor.html" target="_top" xlink:title="Sensor template class for any sensor producing actual values.">
<polygon fill="white" stroke="#666666" points="670.88,-105.88 557.38,-105.88 557.38,-86.62 670.88,-86.62 670.88,-105.88"/>
<text xml:space="preserve" text-anchor="middle" x="614.12" y="-92.38" font-family="Helvetica,sans-Serif" font-size="10.00">sensesp::Sensor&lt; T &gt;</text>
</a>
</g>
</g>
<!-- Node3&#45;&gt;Node10 -->
<g id="edge12_Node000010_Node000003" class="edge">
<title>Node3&#45;&gt;Node10</title>
<g id="a_edge12_Node000010_Node000003"><a xlink:title=" ">
<path fill="none" stroke="#63b8ff" d="M475.16,-79.63C501.78,-82.83 531.78,-86.45 557,-89.49"/>
<polygon fill="#63b8ff" stroke="#63b8ff" points="475.83,-76.18 465.48,-78.46 474.99,-83.13 475.83,-76.18"/>
</a>
</g>
</g>
<!-- Node4 -->
<g id="Node000004" class="node">
<title>Node4</title>
<g id="a_Node000004"><a xlink:href="classsensesp_1_1_observable.html" target="_top" xlink:title="A base class which allow observers to attach callbacks to themselves. The callbacks will be called wh...">
<polygon fill="white" stroke="#666666" points="274.5,-56.88 166.25,-56.88 166.25,-37.62 274.5,-37.62 274.5,-56.88"/>
<text xml:space="preserve" text-anchor="middle" x="220.38" y="-43.38" font-family="Helvetica,sans-Serif" font-size="10.00">sensesp::Observable</text>
</a>
</g>
</g>
<!-- Node4&#45;&gt;Node3 -->
<g id="edge3_Node000003_Node000004" class="edge">
<title>Node4&#45;&gt;Node3</title>
<g id="a_edge3_Node000003_Node000004"><a xlink:title=" ">
<path fill="none" stroke="#63b8ff" d="M285.75,-55.73C305.13,-58.28 326.28,-61.07 345.25,-63.56"/>
<polygon fill="#63b8ff" stroke="#63b8ff" points="286.45,-52.29 276.08,-54.45 285.54,-59.23 286.45,-52.29"/>
</a>
</g>
</g>
<!-- Node8 -->
<g id="Node000008" class="node">
<title>Node8</title>
<g id="a_Node000008"><a xlink:href="classsensesp_1_1_value_producer.html" target="_top" xlink:title=" ">
<polygon fill="white" stroke="#666666" points="675,-30.5 553.25,-30.5 553.25,0 675,0 675,-30.5"/>
<text xml:space="preserve" text-anchor="start" x="561.25" y="-17" font-family="Helvetica,sans-Serif" font-size="10.00">sensesp::ValueProducer</text>
<text xml:space="preserve" text-anchor="middle" x="614.12" y="-5.75" font-family="Helvetica,sans-Serif" font-size="10.00">&lt; float &gt;</text>
</a>
</g>
</g>
<!-- Node4&#45;&gt;Node8 -->
<g id="edge8_Node000008_Node000004" class="edge">
<title>Node4&#45;&gt;Node8</title>
<g id="a_edge8_Node000008_Node000004"><a xlink:title=" ">
<path fill="none" stroke="#63b8ff" d="M258.88,-33.52C279.97,-26.52 306.97,-18.77 331.75,-15.25 407.44,-4.5 495.74,-6.89 552.95,-10.38"/>
<polygon fill="#63b8ff" stroke="#63b8ff" points="257.89,-30.16 249.56,-36.7 260.15,-36.78 257.89,-30.16"/>
</a>
</g>
</g>
<!-- Node9 -->
<g id="Node000009" class="node">
<title>Node9</title>
<g id="a_Node000009"><a xlink:href="classsensesp_1_1_value_producer.html" target="_top" xlink:title="A base class for any sensor or piece of code that outputs a value for consumption elsewhere.">
<polygon fill="white" stroke="#666666" points="477.5,-43.88 331.75,-43.88 331.75,-24.62 477.5,-24.62 477.5,-43.88"/>
<text xml:space="preserve" text-anchor="middle" x="404.62" y="-30.38" font-family="Helvetica,sans-Serif" font-size="10.00">sensesp::ValueProducer&lt; T &gt;</text>
</a>
</g>
</g>
<!-- Node4&#45;&gt;Node9 -->
<g id="edge10_Node000009_Node000004" class="edge">
<title>Node4&#45;&gt;Node9</title>
<g id="a_edge10_Node000009_Node000004"><a xlink:title=" ">
<path fill="none" stroke="#63b8ff" d="M285.66,-42.66C300.45,-41.61 316.28,-40.48 331.38,-39.4"/>
<polygon fill="#63b8ff" stroke="#63b8ff" points="285.81,-39.14 276.09,-43.35 286.31,-46.13 285.81,-39.14"/>
</a>
</g>
</g>
<!-- Node11 -->
<g id="Node000011" class="node">
<title>Node11</title>
<g id="a_Node000011"><a xlink:href="classsensesp_1_1_value_producer.html" target="_top" xlink:title="A base class for any sensor or piece of code that outputs a value for consumption elsewhere.">
<polygon fill="white" stroke="#666666" points="477.5,-117.88 331.75,-117.88 331.75,-98.62 477.5,-98.62 477.5,-117.88"/>
<text xml:space="preserve" text-anchor="middle" x="404.62" y="-104.38" font-family="Helvetica,sans-Serif" font-size="10.00">sensesp::ValueProducer&lt; T &gt;</text>
</a>
</g>
</g>
<!-- Node4&#45;&gt;Node11 -->
<g id="edge14_Node000011_Node000004" class="edge">
<title>Node4&#45;&gt;Node11</title>
<g id="a_edge14_Node000011_Node000004"><a xlink:title=" ">
<path fill="none" stroke="#63b8ff" d="M255.36,-61.77C276.98,-70.69 305.72,-81.96 331.75,-90.25 340.7,-93.1 350.39,-95.79 359.67,-98.18"/>
<polygon fill="#63b8ff" stroke="#63b8ff" points="256.72,-58.55 246.15,-57.93 254.03,-65.01 256.72,-58.55"/>
</a>
</g>
</g>
<!-- Node5 -->
<g id="Node000005" class="node">
<title>Node5</title>
<g id="a_Node000005"><a xlink:href="classsensesp_1_1_file_system_saveable.html" target="_top" xlink:title=" ">
<polygon fill="white" stroke="#666666" points="294.75,-118.88 146,-118.88 146,-99.62 294.75,-99.62 294.75,-118.88"/>
<text xml:space="preserve" text-anchor="middle" x="220.38" y="-105.38" font-family="Helvetica,sans-Serif" font-size="10.00">sensesp::FileSystemSaveable</text>
</a>
</g>
</g>
<!-- Node5&#45;&gt;Node3 -->
<g id="edge4_Node000003_Node000005" class="edge">
<title>Node5&#45;&gt;Node3</title>
<g id="a_edge4_Node000003_Node000005"><a xlink:title=" ">
<path fill="none" stroke="#63b8ff" d="M280.91,-96.84C305.03,-91.81 332.52,-86.08 355.35,-81.31"/>
<polygon fill="#63b8ff" stroke="#63b8ff" points="280.29,-93.39 271.22,-98.86 281.72,-100.24 280.29,-93.39"/>
</a>
</g>
</g>
<!-- Node6 -->
<g id="Node000006" class="node">
<title>Node6</title>
<g id="a_Node000006"><a xlink:href="classsensesp_1_1_saveable.html" target="_top" xlink:title="Interface for saveable objects.">
<polygon fill="white" stroke="#666666" points="104.12,-136.88 4.88,-136.88 4.88,-117.62 104.12,-117.62 104.12,-136.88"/>
<text xml:space="preserve" text-anchor="middle" x="54.5" y="-123.38" font-family="Helvetica,sans-Serif" font-size="10.00">sensesp::Saveable</text>
</a>
</g>
</g>
<!-- Node6&#45;&gt;Node5 -->
<g id="edge5_Node000005_Node000006" class="edge">
<title>Node6&#45;&gt;Node5</title>
<g id="a_edge5_Node000005_Node000006"><a xlink:title=" ">
<path fill="none" stroke="#63b8ff" d="M115.49,-120.66C125.3,-119.58 135.56,-118.46 145.65,-117.35"/>
<polygon fill="#63b8ff" stroke="#63b8ff" points="115.29,-117.16 105.73,-121.73 116.05,-124.12 115.29,-117.16"/>
</a>
</g>
</g>
<!-- Node7 -->
<g id="Node000007" class="node">
<title>Node7</title>
<g id="a_Node000007"><a xlink:href="classsensesp_1_1_serializable.html" target="_top" xlink:title="Interface for serializable objects.">
<polygon fill="white" stroke="#666666" points="109,-99.88 0,-99.88 0,-80.62 109,-80.62 109,-99.88"/>
<text xml:space="preserve" text-anchor="middle" x="54.5" y="-86.38" font-family="Helvetica,sans-Serif" font-size="10.00">sensesp::Serializable</text>
</a>
</g>
</g>
<!-- Node7&#45;&gt;Node5 -->
<g id="edge6_Node000005_Node000007" class="edge">
<title>Node7&#45;&gt;Node5</title>
<g id="a_edge6_Node000005_Node000007"><a xlink:title=" ">
<path fill="none" stroke="#63b8ff" d="M120.32,-97.77C128.64,-98.73 137.21,-99.72 145.66,-100.7"/>
<polygon fill="#63b8ff" stroke="#63b8ff" points="121,-94.32 110.66,-96.65 120.19,-101.27 121,-94.32"/>
</a>
</g>
</g>
<!-- Node8&#45;&gt;Node2 -->
<g id="edge7_Node000002_Node000008" class="edge">
<title>Node8&#45;&gt;Node2</title>
<g id="a_edge7_Node000002_Node000008"><a xlink:title=" ">
<path fill="none" stroke="#63b8ff" d="M686.34,-32.5C701.66,-36.3 717.76,-40.36 732.75,-44.25 738.46,-45.73 744.52,-47.35 750.4,-48.94"/>
<polygon fill="#63b8ff" stroke="#63b8ff" points="687.36,-29.15 676.81,-30.15 685.68,-35.95 687.36,-29.15"/>
</a>
</g>
</g>
<!-- Node9&#45;&gt;Node8 -->
<g id="edge9_Node000008_Node000009" class="edge">
<title>Node9&#45;&gt;Node8</title>
<g id="a_edge9_Node000008_Node000009"><a xlink:title=" ">
<path fill="none" stroke="orange" stroke-dasharray="5,2" d="M489.24,-26.59C510.5,-24.65 532.94,-22.59 552.79,-20.77"/>
<polygon fill="orange" stroke="orange" points="489.05,-23.1 479.41,-27.49 489.69,-30.07 489.05,-23.1"/>
</a>
</g>
<text xml:space="preserve" text-anchor="middle" x="515.38" y="-27.64" font-family="Helvetica,sans-Serif" font-size="10.00" fill="grey"> &lt; float &gt;</text>
</g>
<!-- Node10&#45;&gt;Node2 -->
<g id="edge11_Node000002_Node000010" class="edge">
<title>Node10&#45;&gt;Node2</title>
<g id="a_edge11_Node000002_Node000010"><a xlink:title=" ">
<path fill="none" stroke="orange" stroke-dasharray="5,2" d="M675.86,-83.81C694.18,-79.94 714.31,-75.55 732.75,-71.25 738.47,-69.92 744.54,-68.44 750.41,-66.97"/>
<polygon fill="orange" stroke="orange" points="675.27,-80.36 666.21,-85.84 676.71,-87.21 675.27,-80.36"/>
</a>
</g>
<text xml:space="preserve" text-anchor="middle" x="712.88" y="-81.67" font-family="Helvetica,sans-Serif" font-size="10.00" fill="grey"> &lt; float &gt;</text>
</g>
<!-- Node11&#45;&gt;Node10 -->
<g id="edge13_Node000010_Node000011" class="edge">
<title>Node11&#45;&gt;Node10</title>
<g id="a_edge13_Node000010_Node000011"><a xlink:title=" ">
<path fill="none" stroke="#63b8ff" d="M489.33,-103.41C512.12,-102.09 536.27,-100.69 557.12,-99.49"/>
<polygon fill="#63b8ff" stroke="#63b8ff" points="489.2,-99.91 479.42,-103.98 489.6,-106.9 489.2,-99.91"/>
</a>
</g>
</g>
</g>
</svg>
