<?xml version="1.0" encoding="UTF-8" standalone="no"?>
<!DOCTYPE svg PUBLIC "-//W3C//DTD SVG 1.1//EN"
 "http://www.w3.org/Graphics/SVG/1.1/DTD/svg11.dtd">
<!-- Generated by graphviz version 14.1.1 (20251213.1925)
 -->
<!-- Title: sensesp::SensESPAppBuilder::enable_wifi_watchdog Pages: 1 -->
<svg width="713pt" height="82pt"
 viewBox="0.00 0.00 713.00 82.00" xmlns="http://www.w3.org/2000/svg" xmlns:xlink="http://www.w3.org/1999/xlink">
<g id="graph0" class="graph" transform="scale(1 1) rotate(0) translate(4 77.5)">
<title>sensesp::SensESPAppBuilder::enable_wifi_watchdog</title>
<!-- Node1 -->
<g id="Node000001" class="node">
<title>Node1</title>
<g id="a_Node000001"><a xlink:title=" ">
<polygon fill="#999999" stroke="#666666" points="147.25,-51.5 0,-51.5 0,-21 147.25,-21 147.25,-51.5"/>
<text xml:space="preserve" text-anchor="start" x="8" y="-38" font-family="Helvetica,sans-Serif" font-size="10.00">sensesp::SensESPAppBuilder</text>
<text xml:space="preserve" text-anchor="middle" x="73.62" y="-26.75" font-family="Helvetica,sans-Serif" font-size="10.00">::enable_wifi_watchdog</text>
</a>
</g>
</g>
<!-- Node2 -->
<g id="Node000002" class="node">
<title>Node2</title>
<g id="a_Node000002"><a xlink:href="namespacesensesp.html#a1c1105507d71491cf4e0505eaabb2e49" target="_top" xlink:title=" ">
<polygon fill="white" stroke="#666666" points="309.88,-67.88 203.88,-67.88 203.88,-48.62 309.88,-48.62 309.88,-67.88"/>
<text xml:space="preserve" text-anchor="middle" x="256.88" y="-54.38" font-family="Helvetica,sans-Serif" font-size="10.00">sensesp::event_loop</text>
</a>
</g>
</g>
<!-- Node1&#45;&gt;Node2 -->
<g id="edge1_Node000001_Node000002" class="edge">
<title>Node1&#45;&gt;Node2</title>
<g id="a_edge1_Node000001_Node000002"><a xlink:title=" ">
<path fill="none" stroke="#63b8ff" d="M147.56,-45.1C162.31,-46.89 177.71,-48.76 192.11,-50.51"/>
<polygon fill="#63b8ff" stroke="#63b8ff" points="191.57,-53.97 201.91,-51.7 192.41,-47.02 191.57,-53.97"/>
</a>
</g>
</g>
<!-- Node5 -->
<g id="Node000005" class="node">
<title>Node5</title>
<g id="a_Node000005"><a xlink:href="classsensesp_1_1_sens_e_s_p_app_builder.html#a16297b7d511c27217aaa69d8fd53c272" target="_top" xlink:title="Construct a new SensESPApp Builder object.">
<polygon fill="white" stroke="#666666" points="330.5,-30.5 183.25,-30.5 183.25,0 330.5,0 330.5,-30.5"/>
<text xml:space="preserve" text-anchor="start" x="191.25" y="-17" font-family="Helvetica,sans-Serif" font-size="10.00">sensesp::SensESPAppBuilder</text>
<text xml:space="preserve" text-anchor="middle" x="256.88" y="-5.75" font-family="Helvetica,sans-Serif" font-size="10.00">::SensESPAppBuilder</text>
</a>
</g>
</g>
<!-- Node1&#45;&gt;Node5 -->
<g id="edge4_Node000001_Node000005" class="edge">
<title>Node1&#45;&gt;Node5</title>
<g id="a_edge4_Node000001_Node000005"><a xlink:title=" ">
<path fill="none" stroke="#63b8ff" d="M147.56,-27.8C155.45,-26.89 163.53,-25.95 171.54,-25.02"/>
<polygon fill="#63b8ff" stroke="#63b8ff" points="171.76,-28.52 181.29,-23.89 170.95,-21.57 171.76,-28.52"/>
</a>
</g>
</g>
<!-- Node3 -->
<g id="Node000003" class="node">
<title>Node3</title>
<g id="a_Node000003"><a xlink:href="classsensesp_1_1_sens_e_s_p_base_app.html#a28c20eed17bfc460e6686a11c5b3b107" target="_top" xlink:title="Get the event loop object from the singleton SensESPBaseApp instance.">
<polygon fill="white" stroke="#666666" points="507.75,-73.5 366.5,-73.5 366.5,-43 507.75,-43 507.75,-73.5"/>
<text xml:space="preserve" text-anchor="start" x="374.5" y="-60" font-family="Helvetica,sans-Serif" font-size="10.00">sensesp::SensESPBaseApp</text>
<text xml:space="preserve" text-anchor="middle" x="437.12" y="-48.75" font-family="Helvetica,sans-Serif" font-size="10.00">::get_event_loop</text>
</a>
</g>
</g>
<!-- Node2&#45;&gt;Node3 -->
<g id="edge2_Node000002_Node000003" class="edge">
<title>Node2&#45;&gt;Node3</title>
<g id="a_edge2_Node000002_Node000003"><a xlink:title=" ">
<path fill="none" stroke="#63b8ff" d="M309.91,-58.25C324.05,-58.25 339.71,-58.25 355.04,-58.25"/>
<polygon fill="#63b8ff" stroke="#63b8ff" points="354.61,-61.75 364.61,-58.25 354.61,-54.75 354.61,-61.75"/>
</a>
</g>
</g>
<!-- Node4 -->
<g id="Node000004" class="node">
<title>Node4</title>
<g id="a_Node000004"><a xlink:href="classsensesp_1_1_sens_e_s_p_base_app.html#add2c67bb55d095ab9c64f44ab2e82612" target="_top" xlink:title="Get the singleton instance of the SensESPBaseApp.">
<polygon fill="white" stroke="#666666" points="704.5,-67.88 543.75,-67.88 543.75,-48.62 704.5,-48.62 704.5,-67.88"/>
<text xml:space="preserve" text-anchor="middle" x="624.12" y="-54.38" font-family="Helvetica,sans-Serif" font-size="10.00">sensesp::SensESPBaseApp::get</text>
</a>
</g>
</g>
<!-- Node3&#45;&gt;Node4 -->
<g id="edge3_Node000003_Node000004" class="edge">
<title>Node3&#45;&gt;Node4</title>
<g id="a_edge3_Node000003_Node000004"><a xlink:title=" ">
<path fill="none" stroke="#63b8ff" d="M508.07,-58.25C515.92,-58.25 524.01,-58.25 532.09,-58.25"/>
<polygon fill="#63b8ff" stroke="#63b8ff" points="531.96,-61.75 541.96,-58.25 531.96,-54.75 531.96,-61.75"/>
</a>
</g>
</g>
</g>
</svg>
