<?xml version="1.0" encoding="UTF-8" standalone="no"?>
<!DOCTYPE svg PUBLIC "-//W3C//DTD SVG 1.1//EN"
 "http://www.w3.org/Graphics/SVG/1.1/DTD/svg11.dtd">
<!-- Generated by graphviz version 14.1.4 (20260321.0153)
 -->
<!-- Title: sensesp::DigitalInputChange::~DigitalInputChange Pages: 1 -->
<svg width="682pt" height="82pt"
 viewBox="0.00 0.00 682.00 82.00" xmlns="http://www.w3.org/2000/svg" xmlns:xlink="http://www.w3.org/1999/xlink">
<g id="graph0" class="graph" transform="scale(1 1) rotate(0) translate(4 77.5)">
<title>sensesp::DigitalInputChange::~DigitalInputChange</title>
<!-- Node1 -->
<g id="Node000001" class="node">
<title>Node1</title>
<g id="a_Node000001"><a xlink:title=" ">
<polygon fill="#999999" stroke="#666666" points="142,-51.5 0,-51.5 0,-21 142,-21 142,-51.5"/>
<text xml:space="preserve" text-anchor="start" x="8" y="-38" font-family="Helvetica,sans-Serif" font-size="10.00">sensesp::DigitalInputChange</text>
<text xml:space="preserve" text-anchor="middle" x="71" y="-26.75" font-family="Helvetica,sans-Serif" font-size="10.00">::~DigitalInputChange</text>
</a>
</g>
</g>
<!-- Node2 -->
<g id="Node000002" class="node">
<title>Node2</title>
<g id="a_Node000002"><a xlink:href="namespacesensesp.html#a1c1105507d71491cf4e0505eaabb2e49" target="_top" xlink:title=" ">
<polygon fill="white" stroke="#666666" points="291.88,-67.88 185.88,-67.88 185.88,-48.62 291.88,-48.62 291.88,-67.88"/>
<text xml:space="preserve" text-anchor="middle" x="238.88" y="-54.38" font-family="Helvetica,sans-Serif" font-size="10.00">sensesp::event_loop</text>
</a>
</g>
</g>
<!-- Node1&#45;&gt;Node2 -->
<g id="edge1_Node000001_Node000002" class="edge">
<title>Node1&#45;&gt;Node2</title>
<g id="a_edge1_Node000001_Node000002"><a xlink:title=" ">
<path fill="none" stroke="#63b8ff" d="M142.35,-45.58C152.98,-46.99 163.9,-48.44 174.38,-49.83"/>
<polygon fill="#63b8ff" stroke="#63b8ff" points="173.67,-53.26 184.04,-51.11 174.59,-46.33 173.67,-53.26"/>
</a>
</g>
</g>
<!-- Node5 -->
<g id="Node000005" class="node">
<title>Node5</title>
<g id="a_Node000005"><a xlink:href="classsensesp_1_1_value_producer.html#a438390eae6bba056ecf4ab329cb5c8e9" target="_top" xlink:title=" ">
<polygon fill="white" stroke="#666666" points="299.75,-30.5 178,-30.5 178,0 299.75,0 299.75,-30.5"/>
<text xml:space="preserve" text-anchor="start" x="186" y="-17" font-family="Helvetica,sans-Serif" font-size="10.00">sensesp::ValueProducer</text>
<text xml:space="preserve" text-anchor="middle" x="238.88" y="-5.75" font-family="Helvetica,sans-Serif" font-size="10.00">&lt; bool &gt;::get</text>
</a>
</g>
</g>
<!-- Node1&#45;&gt;Node5 -->
<g id="edge4_Node000001_Node000005" class="edge">
<title>Node1&#45;&gt;Node5</title>
<g id="a_edge4_Node000001_Node000005"><a xlink:title=" ">
<path fill="none" stroke="#63b8ff" d="M142.35,-27.34C150.33,-26.33 158.47,-25.3 166.47,-24.29"/>
<polygon fill="#63b8ff" stroke="#63b8ff" points="166.66,-27.79 176.14,-23.07 165.78,-20.85 166.66,-27.79"/>
</a>
</g>
</g>
<!-- Node3 -->
<g id="Node000003" class="node">
<title>Node3</title>
<g id="a_Node000003"><a xlink:href="classsensesp_1_1_sens_e_s_p_base_app.html#a28c20eed17bfc460e6686a11c5b3b107" target="_top" xlink:title="Get the event loop object from the singleton SensESPBaseApp instance.">
<polygon fill="white" stroke="#666666" points="477,-73.5 335.75,-73.5 335.75,-43 477,-43 477,-73.5"/>
<text xml:space="preserve" text-anchor="start" x="343.75" y="-60" font-family="Helvetica,sans-Serif" font-size="10.00">sensesp::SensESPBaseApp</text>
<text xml:space="preserve" text-anchor="middle" x="406.38" y="-48.75" font-family="Helvetica,sans-Serif" font-size="10.00">::get_event_loop</text>
</a>
</g>
</g>
<!-- Node2&#45;&gt;Node3 -->
<g id="edge2_Node000002_Node000003" class="edge">
<title>Node2&#45;&gt;Node3</title>
<g id="a_edge2_Node000002_Node000003"><a xlink:title=" ">
<path fill="none" stroke="#63b8ff" d="M292.24,-58.25C302.43,-58.25 313.34,-58.25 324.21,-58.25"/>
<polygon fill="#63b8ff" stroke="#63b8ff" points="323.97,-61.75 333.97,-58.25 323.97,-54.75 323.97,-61.75"/>
</a>
</g>
</g>
<!-- Node4 -->
<g id="Node000004" class="node">
<title>Node4</title>
<g id="a_Node000004"><a xlink:href="classsensesp_1_1_sens_e_s_p_base_app.html#add2c67bb55d095ab9c64f44ab2e82612" target="_top" xlink:title="Get the singleton instance of the SensESPBaseApp.">
<polygon fill="white" stroke="#666666" points="673.75,-67.88 513,-67.88 513,-48.62 673.75,-48.62 673.75,-67.88"/>
<text xml:space="preserve" text-anchor="middle" x="593.38" y="-54.38" font-family="Helvetica,sans-Serif" font-size="10.00">sensesp::SensESPBaseApp::get</text>
</a>
</g>
</g>
<!-- Node3&#45;&gt;Node4 -->
<g id="edge3_Node000003_Node000004" class="edge">
<title>Node3&#45;&gt;Node4</title>
<g id="a_edge3_Node000003_Node000004"><a xlink:title=" ">
<path fill="none" stroke="#63b8ff" d="M477.32,-58.25C485.17,-58.25 493.26,-58.25 501.34,-58.25"/>
<polygon fill="#63b8ff" stroke="#63b8ff" points="501.21,-61.75 511.21,-58.25 501.21,-54.75 501.21,-61.75"/>
</a>
</g>
</g>
</g>
</svg>
