<?xml version="1.0" encoding="UTF-8" standalone="no"?>
<!DOCTYPE svg PUBLIC "-//W3C//DTD SVG 1.1//EN"
 "http://www.w3.org/Graphics/SVG/1.1/DTD/svg11.dtd">
<!-- Generated by graphviz version 2.49.3 (20211023.0002)
 -->
<!-- Title: sensesp::PatternBlinker::tick Pages: 1 -->
<svg width="796pt" height="333pt"
 viewBox="0.00 0.00 796.00 333.00" xmlns="http://www.w3.org/2000/svg" xmlns:xlink="http://www.w3.org/1999/xlink">
<g id="graph0" class="graph" transform="scale(1 1) rotate(0) translate(4 329)">
<title>sensesp::PatternBlinker::tick</title>
<polygon fill="white" stroke="transparent" points="-4,4 -4,-329 792,-329 792,4 -4,4"/>
<!-- Node1 -->
<g id="node1" class="node">
<title>Node1</title>
<g id="a_node1"><a xlink:title=" ">
<polygon fill="#bfbfbf" stroke="black" points="666,-147.5 666,-177.5 788,-177.5 788,-147.5 666,-147.5"/>
<text text-anchor="start" x="674" y="-165.5" font-family="Helvetica,sans-Serif" font-size="10.00">sensesp::PatternBlinker</text>
<text text-anchor="middle" x="727" y="-154.5" font-family="Helvetica,sans-Serif" font-size="10.00">::tick</text>
</a>
</g>
</g>
<!-- Node1&#45;&gt;Node1 -->
<g id="edge17" class="edge">
<title>Node1&#45;&gt;Node1</title>
<path fill="none" stroke="midnightblue" d="M755.07,-187.96C751.59,-192.68 742.23,-196 727,-196 702,-196 692.83,-187.06 699.47,-177.66"/>
<polygon fill="midnightblue" stroke="midnightblue" points="758.55,-187.46 754.53,-177.66 751.56,-187.83 758.55,-187.46"/>
</g>
<!-- Node2 -->
<g id="node2" class="node">
<title>Node2</title>
<g id="a_node2"><a xlink:href="classsensesp_1_1_pattern_blinker.html#a07379ab468fd98211d8af6ef285105a6" target="_top" xlink:title=" ">
<polygon fill="white" stroke="black" points="508,-147.5 508,-177.5 630,-177.5 630,-147.5 508,-147.5"/>
<text text-anchor="start" x="516" y="-165.5" font-family="Helvetica,sans-Serif" font-size="10.00">sensesp::PatternBlinker</text>
<text text-anchor="middle" x="569" y="-154.5" font-family="Helvetica,sans-Serif" font-size="10.00">::restart</text>
</a>
</g>
</g>
<!-- Node1&#45;&gt;Node2 -->
<g id="edge1" class="edge">
<title>Node1&#45;&gt;Node2</title>
<path fill="none" stroke="midnightblue" d="M655.46,-162.5C647.01,-162.5 638.44,-162.5 630.15,-162.5"/>
<polygon fill="midnightblue" stroke="midnightblue" points="655.69,-166 665.69,-162.5 655.69,-159 655.69,-166"/>
</g>
<!-- Node3 -->
<g id="node3" class="node">
<title>Node3</title>
<g id="a_node3"><a xlink:href="classsensesp_1_1_pattern_blinker.html#a42db37148fd29995d67a4d570343ffce" target="_top" xlink:title=" ">
<polygon fill="white" stroke="black" points="350,-147.5 350,-177.5 472,-177.5 472,-147.5 350,-147.5"/>
<text text-anchor="start" x="358" y="-165.5" font-family="Helvetica,sans-Serif" font-size="10.00">sensesp::PatternBlinker</text>
<text text-anchor="middle" x="411" y="-154.5" font-family="Helvetica,sans-Serif" font-size="10.00">::set_pattern</text>
</a>
</g>
</g>
<!-- Node2&#45;&gt;Node3 -->
<g id="edge2" class="edge">
<title>Node2&#45;&gt;Node3</title>
<path fill="none" stroke="midnightblue" d="M497.46,-162.5C489.01,-162.5 480.44,-162.5 472.15,-162.5"/>
<polygon fill="midnightblue" stroke="midnightblue" points="497.69,-166 507.69,-162.5 497.69,-159 497.69,-166"/>
</g>
<!-- Node4 -->
<g id="node4" class="node">
<title>Node4</title>
<g id="a_node4"><a xlink:href="classsensesp_1_1_system_status_led.html#a21306f2735644c3cddfcb326043c92f3" target="_top" xlink:title=" ">
<polygon fill="white" stroke="black" points="175,-294.5 175,-324.5 313,-324.5 313,-294.5 175,-294.5"/>
<text text-anchor="start" x="183" y="-312.5" font-family="Helvetica,sans-Serif" font-size="10.00">sensesp::SystemStatusLed</text>
<text text-anchor="middle" x="244" y="-301.5" font-family="Helvetica,sans-Serif" font-size="10.00">::set_wifi_disconnected</text>
</a>
</g>
</g>
<!-- Node3&#45;&gt;Node4 -->
<g id="edge3" class="edge">
<title>Node3&#45;&gt;Node4</title>
<path fill="none" stroke="midnightblue" d="M396.93,-186.63C380.84,-214.22 351.04,-258.98 314,-285.5 309.26,-288.9 303.99,-291.85 298.54,-294.4"/>
<polygon fill="midnightblue" stroke="midnightblue" points="400.14,-188.07 402.04,-177.65 394.06,-184.61 400.14,-188.07"/>
</g>
<!-- Node6 -->
<g id="node6" class="node">
<title>Node6</title>
<g id="a_node6"><a xlink:href="classsensesp_1_1_system_status_led.html#ab2fcea8b8d4764b58c8ea6c4001cc464" target="_top" xlink:title=" ">
<polygon fill="white" stroke="black" points="175,-245.5 175,-275.5 313,-275.5 313,-245.5 175,-245.5"/>
<text text-anchor="start" x="183" y="-263.5" font-family="Helvetica,sans-Serif" font-size="10.00">sensesp::SystemStatusLed</text>
<text text-anchor="middle" x="244" y="-252.5" font-family="Helvetica,sans-Serif" font-size="10.00">::set_wifi_no_ap</text>
</a>
</g>
</g>
<!-- Node3&#45;&gt;Node6 -->
<g id="edge5" class="edge">
<title>Node3&#45;&gt;Node6</title>
<path fill="none" stroke="midnightblue" d="M386.15,-184.41C367.6,-200.55 340.61,-222.11 314,-236.5 307.86,-239.82 301.18,-242.82 294.47,-245.48"/>
<polygon fill="midnightblue" stroke="midnightblue" points="388.64,-186.89 393.81,-177.64 384,-181.65 388.64,-186.89"/>
</g>
<!-- Node7 -->
<g id="node7" class="node">
<title>Node7</title>
<g id="a_node7"><a xlink:href="classsensesp_1_1_system_status_led.html#aaded2847831b94fb63dbdd9f72b6566a" target="_top" xlink:title=" ">
<polygon fill="white" stroke="black" points="174,-196.5 174,-226.5 314,-226.5 314,-196.5 174,-196.5"/>
<text text-anchor="start" x="182" y="-214.5" font-family="Helvetica,sans-Serif" font-size="10.00">sensesp::SystemStatusLed</text>
<text text-anchor="middle" x="244" y="-203.5" font-family="Helvetica,sans-Serif" font-size="10.00">::set_wifimanager_activated</text>
</a>
</g>
</g>
<!-- Node3&#45;&gt;Node7 -->
<g id="edge7" class="edge">
<title>Node3&#45;&gt;Node7</title>
<path fill="none" stroke="midnightblue" d="M349.5,-180.47C331.82,-185.72 312.69,-191.4 295.68,-196.45"/>
<polygon fill="midnightblue" stroke="midnightblue" points="350.56,-183.8 359.15,-177.6 348.57,-177.09 350.56,-183.8"/>
</g>
<!-- Node8 -->
<g id="node8" class="node">
<title>Node8</title>
<g id="a_node8"><a xlink:href="classsensesp_1_1_system_status_led.html#a7f7ed0df6685f09f19189de571882d3f" target="_top" xlink:title=" ">
<polygon fill="white" stroke="black" points="175,-147.5 175,-177.5 313,-177.5 313,-147.5 175,-147.5"/>
<text text-anchor="start" x="183" y="-165.5" font-family="Helvetica,sans-Serif" font-size="10.00">sensesp::SystemStatusLed</text>
<text text-anchor="middle" x="244" y="-154.5" font-family="Helvetica,sans-Serif" font-size="10.00">::set_ws_authorizing</text>
</a>
</g>
</g>
<!-- Node3&#45;&gt;Node8 -->
<g id="edge9" class="edge">
<title>Node3&#45;&gt;Node8</title>
<path fill="none" stroke="midnightblue" d="M339.72,-162.5C330.9,-162.5 321.88,-162.5 313.1,-162.5"/>
<polygon fill="midnightblue" stroke="midnightblue" points="339.96,-166 349.96,-162.5 339.96,-159 339.96,-166"/>
</g>
<!-- Node9 -->
<g id="node9" class="node">
<title>Node9</title>
<g id="a_node9"><a xlink:href="classsensesp_1_1_system_status_led.html#a7e6cfe4641ddaf6aada29ac73052e3dd" target="_top" xlink:title=" ">
<polygon fill="white" stroke="black" points="175,-98.5 175,-128.5 313,-128.5 313,-98.5 175,-98.5"/>
<text text-anchor="start" x="183" y="-116.5" font-family="Helvetica,sans-Serif" font-size="10.00">sensesp::SystemStatusLed</text>
<text text-anchor="middle" x="244" y="-105.5" font-family="Helvetica,sans-Serif" font-size="10.00">::set_ws_connected</text>
</a>
</g>
</g>
<!-- Node3&#45;&gt;Node9 -->
<g id="edge11" class="edge">
<title>Node3&#45;&gt;Node9</title>
<path fill="none" stroke="midnightblue" d="M349.5,-144.53C331.82,-139.28 312.69,-133.6 295.68,-128.55"/>
<polygon fill="midnightblue" stroke="midnightblue" points="348.57,-147.91 359.15,-147.4 350.56,-141.2 348.57,-147.91"/>
</g>
<!-- Node10 -->
<g id="node10" class="node">
<title>Node10</title>
<g id="a_node10"><a xlink:href="classsensesp_1_1_system_status_led.html#a52573040f7316525ed41ec4c2ded65d5" target="_top" xlink:title=" ">
<polygon fill="white" stroke="black" points="175,-49.5 175,-79.5 313,-79.5 313,-49.5 175,-49.5"/>
<text text-anchor="start" x="183" y="-67.5" font-family="Helvetica,sans-Serif" font-size="10.00">sensesp::SystemStatusLed</text>
<text text-anchor="middle" x="244" y="-56.5" font-family="Helvetica,sans-Serif" font-size="10.00">::set_ws_connecting</text>
</a>
</g>
</g>
<!-- Node3&#45;&gt;Node10 -->
<g id="edge13" class="edge">
<title>Node3&#45;&gt;Node10</title>
<path fill="none" stroke="midnightblue" d="M385.71,-140.71C367.11,-124.88 340.27,-103.81 314,-89.5 307.29,-85.84 299.93,-82.53 292.6,-79.59"/>
<polygon fill="midnightblue" stroke="midnightblue" points="383.54,-143.47 393.4,-147.36 388.12,-138.17 383.54,-143.47"/>
</g>
<!-- Node11 -->
<g id="node11" class="node">
<title>Node11</title>
<g id="a_node11"><a xlink:href="classsensesp_1_1_system_status_led.html#a01656e8deef0018f01c002baf2316915" target="_top" xlink:title=" ">
<polygon fill="white" stroke="black" points="175,-0.5 175,-30.5 313,-30.5 313,-0.5 175,-0.5"/>
<text text-anchor="start" x="183" y="-18.5" font-family="Helvetica,sans-Serif" font-size="10.00">sensesp::SystemStatusLed</text>
<text text-anchor="middle" x="244" y="-7.5" font-family="Helvetica,sans-Serif" font-size="10.00">::set_ws_disconnected</text>
</a>
</g>
</g>
<!-- Node3&#45;&gt;Node11 -->
<g id="edge15" class="edge">
<title>Node3&#45;&gt;Node11</title>
<path fill="none" stroke="midnightblue" d="M396.57,-138.21C380.32,-110.9 350.54,-66.91 314,-40.5 308.73,-36.69 302.83,-33.41 296.74,-30.6"/>
<polygon fill="midnightblue" stroke="midnightblue" points="393.69,-140.23 401.74,-147.12 399.75,-136.72 393.69,-140.23"/>
</g>
<!-- Node5 -->
<g id="node5" class="node">
<title>Node5</title>
<g id="a_node5"><a xlink:href="classsensesp_1_1_system_status_led.html#acd9bd798a9418f5f512d60cba2ada35d" target="_top" xlink:title=" ">
<polygon fill="white" stroke="black" points="0,-147.5 0,-177.5 138,-177.5 138,-147.5 0,-147.5"/>
<text text-anchor="start" x="8" y="-165.5" font-family="Helvetica,sans-Serif" font-size="10.00">sensesp::SystemStatusLed</text>
<text text-anchor="middle" x="69" y="-154.5" font-family="Helvetica,sans-Serif" font-size="10.00">::set_input</text>
</a>
</g>
</g>
<!-- Node4&#45;&gt;Node5 -->
<g id="edge4" class="edge">
<title>Node4&#45;&gt;Node5</title>
<path fill="none" stroke="midnightblue" d="M180.72,-289.69C178.4,-288.37 176.15,-286.98 174,-285.5 130.66,-255.74 94.89,-203.35 78.94,-177.62"/>
<polygon fill="midnightblue" stroke="midnightblue" points="179.45,-292.97 189.95,-294.38 182.62,-286.73 179.45,-292.97"/>
</g>
<!-- Node6&#45;&gt;Node5 -->
<g id="edge6" class="edge">
<title>Node6&#45;&gt;Node5</title>
<path fill="none" stroke="midnightblue" d="M184.75,-241.59C181.06,-239.98 177.45,-238.28 174,-236.5 141.51,-219.73 107.7,-193.83 87.77,-177.55"/>
<polygon fill="midnightblue" stroke="midnightblue" points="183.44,-244.84 194.02,-245.41 186.1,-238.36 183.44,-244.84"/>
</g>
<!-- Node7&#45;&gt;Node5 -->
<g id="edge8" class="edge">
<title>Node7&#45;&gt;Node5</title>
<path fill="none" stroke="midnightblue" d="M179.82,-193.61C161.22,-188.34 141.05,-182.62 123.14,-177.55"/>
<polygon fill="midnightblue" stroke="midnightblue" points="179.11,-197.04 189.68,-196.4 181.01,-190.31 179.11,-197.04"/>
</g>
<!-- Node8&#45;&gt;Node5 -->
<g id="edge10" class="edge">
<title>Node8&#45;&gt;Node5</title>
<path fill="none" stroke="midnightblue" d="M164.41,-162.5C155.65,-162.5 146.78,-162.5 138.16,-162.5"/>
<polygon fill="midnightblue" stroke="midnightblue" points="164.63,-166 174.63,-162.5 164.63,-159 164.63,-166"/>
</g>
<!-- Node9&#45;&gt;Node5 -->
<g id="edge12" class="edge">
<title>Node9&#45;&gt;Node5</title>
<path fill="none" stroke="midnightblue" d="M179.82,-131.39C161.22,-136.66 141.05,-142.38 123.14,-147.45"/>
<polygon fill="midnightblue" stroke="midnightblue" points="181.01,-134.69 189.68,-128.6 179.11,-127.96 181.01,-134.69"/>
</g>
<!-- Node10&#45;&gt;Node5 -->
<g id="edge14" class="edge">
<title>Node10&#45;&gt;Node5</title>
<path fill="none" stroke="midnightblue" d="M186.67,-83.49C182.32,-85.38 178.05,-87.39 174,-89.5 141.91,-106.2 108.25,-131.46 88.21,-147.46"/>
<polygon fill="midnightblue" stroke="midnightblue" points="188.35,-86.58 196.25,-79.53 185.68,-80.11 188.35,-86.58"/>
</g>
<!-- Node11&#45;&gt;Node5 -->
<g id="edge16" class="edge">
<title>Node11&#45;&gt;Node5</title>
<path fill="none" stroke="midnightblue" d="M182.58,-35.21C179.6,-36.85 176.72,-38.61 174,-40.5 131.23,-70.15 95.45,-121.58 79.27,-147.15"/>
<polygon fill="midnightblue" stroke="midnightblue" points="184.37,-38.23 191.76,-30.63 181.25,-31.96 184.37,-38.23"/>
</g>
</g>
</svg>
