<?xml version="1.0" encoding="UTF-8" standalone="no"?>
<!DOCTYPE svg PUBLIC "-//W3C//DTD SVG 1.1//EN"
 "http://www.w3.org/Graphics/SVG/1.1/DTD/svg11.dtd">
<!-- Generated by graphviz version 12.1.2 (20240928.0832)
 -->
<!-- Title: sensesp::BaseBlinker::set_state Pages: 1 -->
<!--zoomable 206 -->

<svg id="main" version="1.1" xmlns="http://www.w3.org/2000/svg" xmlns:xlink="http://www.w3.org/1999/xlink" xml:space="preserve" onload="init(evt)">

<style type="text/css"><![CDATA[
.node, .edge {opacity: 0.7;}
.node.selected, .edge.selected {opacity: 1;}
.edge:hover path { stroke: red; }
.edge:hover polygon { stroke: red; fill: red; }
]]></style>

<defs>
  <circle id="rim" cx="0" cy="0" r="7"/>
  <circle id="rim2" cx="0" cy="0" r="3.5"/>
  <g id="zoomPlus">
    <use xlink:href="#rim" fill="#404040"><set attributeName="fill" to="#808080" begin="zoomplus.mouseover" end="zoomplus.mouseout"/></use>
    <path d="M-4,0h8M0,-4v8" fill="none" stroke="white" stroke-width="1.5" pointer-events="none"/>
  </g>
  <g id="zoomMin">
    <use xlink:href="#rim" fill="#404040"><set attributeName="fill" to="#808080" begin="zoomminus.mouseover" end="zoomminus.mouseout"/></use>
    <path d="M-4,0h8" fill="none" stroke="white" stroke-width="1.5" pointer-events="none"/>
  </g>
  <g id="arrowUp" transform="translate(30 24)">
    <use xlink:href="#rim"/>
    <path pointer-events="none" fill="none" stroke="white" stroke-width="1.5" d="M0,-3.0v7 M-2.5,-0.5L0,-3.0L2.5,-0.5"/>
  </g>
  <g id="arrowRight" transform="rotate(90) translate(36 -43)">
    <use xlink:href="#rim"/>
    <path pointer-events="none" fill="none" stroke="white" stroke-width="1.5" d="M0,-3.0v7 M-2.5,-0.5L0,-3.0L2.5,-0.5"/>
  </g>
  <g id="arrowDown" transform="rotate(180) translate(-30 -48)">
    <use xlink:href="#rim"/>
    <path pointer-events="none" fill="none" stroke="white" stroke-width="1.5" d="M0,-3.0v7 M-2.5,-0.5L0,-3.0L2.5,-0.5"/>
  </g>
  <g id="arrowLeft" transform="rotate(270) translate(-36 17)">
    <use xlink:href="#rim"/>
    <path pointer-events="none" fill="none" stroke="white" stroke-width="1.5" d="M0,-3.0v7 M-2.5,-0.5L0,-3.0L2.5,-0.5"/>
  </g>
  <g id="resetDef">
    <use xlink:href="#rim2" fill="#404040"><set attributeName="fill" to="#808080" begin="reset.mouseover" end="reset.mouseout"/></use>
  </g>
</defs>
<script type="application/ecmascript">
var viewWidth = 588;
var viewHeight = 206;
var sectionId = 'dynsection-6';
</script>
<script type="application/ecmascript" xlink:href="svg.min.js"/>
<svg id="graph" class="graph">
<g id="viewport">
<title>sensesp::BaseBlinker::set_state</title>
<!-- Node1 -->
<g id="Node000001" class="node">
<title>Node1</title>
<g id="a_Node000001"><a xlink:title=" ">
<polygon fill="#999999" stroke="#666666" points="580,-121.5 468.75,-121.5 468.75,-91 580,-91 580,-121.5"/>
<text text-anchor="start" x="476.75" y="-108" font-family="Helvetica,sans-Serif" font-size="10.00">sensesp::BaseBlinker</text>
<text text-anchor="middle" x="524.38" y="-96.75" font-family="Helvetica,sans-Serif" font-size="10.00">::set_state</text>
</a>
</g>
</g>
<!-- Node2 -->
<g id="Node000002" class="node">
<title>Node2</title>
<g id="a_Node000002"><a xlink:href="classsensesp_1_1_base_blinker.html#a57b7d3c89f709c2731aedfffdbd2853b" target="_top" xlink:title=" ">
<polygon fill="white" stroke="#666666" points="428.25,-195.5 317,-195.5 317,-165 428.25,-165 428.25,-195.5"/>
<text text-anchor="start" x="325" y="-182" font-family="Helvetica,sans-Serif" font-size="10.00">sensesp::BaseBlinker</text>
<text text-anchor="middle" x="372.62" y="-170.75" font-family="Helvetica,sans-Serif" font-size="10.00">::blip</text>
</a>
</g>
</g>
<!-- Node1&#45;&gt;Node2 -->
<g id="edge1_Node000001_Node000002" class="edge">
<title>Node1&#45;&gt;Node2</title>
<g id="a_edge1_Node000001_Node000002"><a xlink:title=" ">
<path fill="none" stroke="#63b8ff" d="M486.3,-127.34C470.05,-136.3 450.64,-146.66 432.75,-155.25 426.22,-158.39 419.19,-161.54 412.35,-164.51"/>
<polygon fill="#63b8ff" stroke="#63b8ff" points="487.61,-130.61 494.64,-122.69 484.2,-124.5 487.61,-130.61"/>
</a>
</g>
</g>
<!-- Node3 -->
<g id="Node000003" class="node">
<title>Node3</title>
<g id="a_Node000003"><a xlink:href="classsensesp_1_1_base_blinker.html#ab58e08ff07f1e534db66c99b74a01805" target="_top" xlink:title=" ">
<polygon fill="white" stroke="#666666" points="428.25,-146.5 317,-146.5 317,-116 428.25,-116 428.25,-146.5"/>
<text text-anchor="start" x="325" y="-133" font-family="Helvetica,sans-Serif" font-size="10.00">sensesp::BaseBlinker</text>
<text text-anchor="middle" x="372.62" y="-121.75" font-family="Helvetica,sans-Serif" font-size="10.00">::flip_state</text>
</a>
</g>
</g>
<!-- Node1&#45;&gt;Node3 -->
<g id="edge2_Node000001_Node000003" class="edge">
<title>Node1&#45;&gt;Node3</title>
<g id="a_edge2_Node000001_Node000003"><a xlink:title=" ">
<path fill="none" stroke="#63b8ff" d="M457.31,-117.28C447.7,-118.88 437.89,-120.52 428.53,-122.08"/>
<polygon fill="#63b8ff" stroke="#63b8ff" points="457.68,-120.77 466.97,-115.67 456.53,-113.86 457.68,-120.77"/>
</a>
</g>
</g>
<!-- Node6 -->
<g id="Node000006" class="node">
<title>Node6</title>
<g id="a_Node000006"><a xlink:href="classsensesp_1_1_base_blinker.html#a54bc8f32345f10f21af2b4d4ef4b9be2" target="_top" xlink:title=" ">
<polygon fill="white" stroke="#666666" points="428.25,-97.5 317,-97.5 317,-67 428.25,-67 428.25,-97.5"/>
<text text-anchor="start" x="325" y="-84" font-family="Helvetica,sans-Serif" font-size="10.00">sensesp::BaseBlinker</text>
<text text-anchor="middle" x="372.62" y="-72.75" font-family="Helvetica,sans-Serif" font-size="10.00">::set_enabled</text>
</a>
</g>
</g>
<!-- Node1&#45;&gt;Node6 -->
<g id="edge7_Node000001_Node000006" class="edge">
<title>Node1&#45;&gt;Node6</title>
<g id="a_edge7_Node000001_Node000006"><a xlink:title=" ">
<path fill="none" stroke="#63b8ff" d="M457.31,-95.66C447.7,-94.12 437.89,-92.55 428.53,-91.05"/>
<polygon fill="#63b8ff" stroke="#63b8ff" points="456.54,-99.08 466.97,-97.21 457.65,-92.17 456.54,-99.08"/>
</a>
</g>
</g>
<!-- Node7 -->
<g id="Node000007" class="node">
<title>Node7</title>
<g id="a_Node000007"><a xlink:href="classsensesp_1_1_pattern_blinker.html#adcffb5455e367948e225d13ce29a1ac9" target="_top" xlink:title=" ">
<polygon fill="white" stroke="#666666" points="432.75,-30.5 312.5,-30.5 312.5,0 432.75,0 432.75,-30.5"/>
<text text-anchor="start" x="320.5" y="-17" font-family="Helvetica,sans-Serif" font-size="10.00">sensesp::PatternBlinker</text>
<text text-anchor="middle" x="372.62" y="-5.75" font-family="Helvetica,sans-Serif" font-size="10.00">::tick</text>
</a>
</g>
</g>
<!-- Node1&#45;&gt;Node7 -->
<g id="edge8_Node000001_Node000007" class="edge">
<title>Node1&#45;&gt;Node7</title>
<g id="a_edge8_Node000001_Node000007"><a xlink:title=" ">
<path fill="none" stroke="#63b8ff" d="M488.11,-84.82C460.95,-68.31 424.02,-45.87 399.53,-30.99"/>
<polygon fill="#63b8ff" stroke="#63b8ff" points="485.98,-87.62 496.34,-89.82 489.61,-81.64 485.98,-87.62"/>
</a>
</g>
</g>
<!-- Node4 -->
<g id="Node000004" class="node">
<title>Node4</title>
<g id="a_Node000004"><a xlink:href="classsensesp_1_1_even_blinker.html#a6f87d9fcca41caee65f8fccfc4565198" target="_top" xlink:title=" ">
<polygon fill="white" stroke="#666666" points="272,-179.5 160.75,-179.5 160.75,-149 272,-149 272,-179.5"/>
<text text-anchor="start" x="168.75" y="-166" font-family="Helvetica,sans-Serif" font-size="10.00">sensesp::EvenBlinker</text>
<text text-anchor="middle" x="216.38" y="-154.75" font-family="Helvetica,sans-Serif" font-size="10.00">::tick</text>
</a>
</g>
</g>
<!-- Node3&#45;&gt;Node4 -->
<g id="edge3_Node000003_Node000004" class="edge">
<title>Node3&#45;&gt;Node4</title>
<g id="a_edge3_Node000003_Node000004"><a xlink:title=" ">
<path fill="none" stroke="#63b8ff" d="M305.78,-145.34C294.62,-147.73 283.12,-150.18 272.28,-152.5"/>
<polygon fill="#63b8ff" stroke="#63b8ff" points="306.28,-148.81 315.33,-143.29 304.82,-141.96 306.28,-148.81"/>
</a>
</g>
</g>
<!-- Node5 -->
<g id="Node000005" class="node">
<title>Node5</title>
<g id="a_Node000005"><a xlink:href="classsensesp_1_1_ratio_blinker.html#ae94fa2e573604451aa197489d069a19b" target="_top" xlink:title=" ">
<polygon fill="white" stroke="#666666" points="272.38,-112.5 160.38,-112.5 160.38,-82 272.38,-82 272.38,-112.5"/>
<text text-anchor="start" x="168.38" y="-99" font-family="Helvetica,sans-Serif" font-size="10.00">sensesp::RatioBlinker</text>
<text text-anchor="middle" x="216.38" y="-87.75" font-family="Helvetica,sans-Serif" font-size="10.00">::tick</text>
</a>
</g>
</g>
<!-- Node3&#45;&gt;Node5 -->
<g id="edge5_Node000003_Node000005" class="edge">
<title>Node3&#45;&gt;Node5</title>
<g id="a_edge5_Node000003_Node000005"><a xlink:title=" ">
<path fill="none" stroke="#63b8ff" d="M305.57,-116.69C294.65,-114.28 283.42,-111.81 272.8,-109.47"/>
<polygon fill="#63b8ff" stroke="#63b8ff" points="304.81,-120.11 315.33,-118.84 306.32,-113.27 304.81,-120.11"/>
</a>
</g>
</g>
<!-- Node4&#45;&gt;Node4 -->
<g id="edge4_Node000004_Node000004" class="edge">
<title>Node4&#45;&gt;Node4</title>
<g id="a_edge4_Node000004_Node000004"><a xlink:title=" ">
<path fill="none" stroke="#63b8ff" d="M242.58,-191.2C238.29,-194.97 229.56,-197.5 216.38,-197.5 192.27,-197.5 183.04,-189.06 188.69,-179.99"/>
<polygon fill="#63b8ff" stroke="#63b8ff" points="246.02,-191.86 243.86,-181.49 239.08,-190.94 246.02,-191.86"/>
</a>
</g>
</g>
<!-- Node5&#45;&gt;Node5 -->
<g id="edge6_Node000005_Node000005" class="edge">
<title>Node5&#45;&gt;Node5</title>
<g id="a_edge6_Node000005_Node000005"><a xlink:title=" ">
<path fill="none" stroke="#63b8ff" d="M242.58,-124.2C238.29,-127.97 229.56,-130.5 216.38,-130.5 192.27,-130.5 183.04,-122.06 188.69,-112.99"/>
<polygon fill="#63b8ff" stroke="#63b8ff" points="246.02,-124.86 243.86,-114.49 239.08,-123.94 246.02,-124.86"/>
</a>
</g>
</g>
<!-- Node7&#45;&gt;Node7 -->
<g id="edge11_Node000007_Node000007" class="edge">
<title>Node7&#45;&gt;Node7</title>
<g id="a_edge11_Node000007_Node000007"><a xlink:title=" ">
<path fill="none" stroke="#63b8ff" d="M398.07,-42.2C393.91,-45.97 385.43,-48.5 372.62,-48.5 349.21,-48.5 340.25,-40.06 345.73,-30.99"/>
<polygon fill="#63b8ff" stroke="#63b8ff" points="401.52,-42.85 399.32,-32.49 394.58,-41.96 401.52,-42.85"/>
</a>
</g>
</g>
<!-- Node8 -->
<g id="Node000008" class="node">
<title>Node8</title>
<g id="a_Node000008"><a xlink:href="classsensesp_1_1_pattern_blinker.html#a07379ab468fd98211d8af6ef285105a6" target="_top" xlink:title=" ">
<polygon fill="white" stroke="#666666" points="276.5,-30.5 156.25,-30.5 156.25,0 276.5,0 276.5,-30.5"/>
<text text-anchor="start" x="164.25" y="-17" font-family="Helvetica,sans-Serif" font-size="10.00">sensesp::PatternBlinker</text>
<text text-anchor="middle" x="216.38" y="-5.75" font-family="Helvetica,sans-Serif" font-size="10.00">::restart</text>
</a>
</g>
</g>
<!-- Node7&#45;&gt;Node8 -->
<g id="edge9_Node000007_Node000008" class="edge">
<title>Node7&#45;&gt;Node8</title>
<g id="a_edge9_Node000007_Node000008"><a xlink:title=" ">
<path fill="none" stroke="#63b8ff" d="M301.1,-15.25C293.02,-15.25 284.84,-15.25 276.92,-15.25"/>
<polygon fill="#63b8ff" stroke="#63b8ff" points="300.92,-18.75 310.92,-15.25 300.92,-11.75 300.92,-18.75"/>
</a>
</g>
</g>
<!-- Node9 -->
<g id="Node000009" class="node">
<title>Node9</title>
<g id="a_Node000009"><a xlink:href="classsensesp_1_1_pattern_blinker.html#a42db37148fd29995d67a4d570343ffce" target="_top" xlink:title=" ">
<polygon fill="white" stroke="#666666" points="120.25,-30.5 0,-30.5 0,0 120.25,0 120.25,-30.5"/>
<text text-anchor="start" x="8" y="-17" font-family="Helvetica,sans-Serif" font-size="10.00">sensesp::PatternBlinker</text>
<text text-anchor="middle" x="60.12" y="-5.75" font-family="Helvetica,sans-Serif" font-size="10.00">::set_pattern</text>
</a>
</g>
</g>
<!-- Node8&#45;&gt;Node9 -->
<g id="edge10_Node000008_Node000009" class="edge">
<title>Node8&#45;&gt;Node9</title>
<g id="a_edge10_Node000008_Node000009"><a xlink:title=" ">
<path fill="none" stroke="#63b8ff" d="M144.85,-15.25C136.77,-15.25 128.59,-15.25 120.67,-15.25"/>
<polygon fill="#63b8ff" stroke="#63b8ff" points="144.67,-18.75 154.67,-15.25 144.67,-11.75 144.67,-18.75"/>
</a>
</g>
</g>
</g>
</svg>

<g id="navigator" transform="translate(0 0)" fill="#404254">
  <rect fill="#f2f5e9" fill-opacity="0.5" stroke="#606060" stroke-width=".5" x="0" y="0" width="60" height="60"/>
  <use id="zoomplus" xlink:href="#zoomPlus" x="17" y="9" onmousedown="handleZoom(evt,'in')"/>
  <use id="zoomminus" xlink:href="#zoomMin" x="42" y="9" onmousedown="handleZoom(evt,'out')"/>
  <use id="reset" xlink:href="#resetDef" x="30" y="36" onmousedown="handleReset()"/>
   <use id="arrowup" xlink:href="#arrowUp" x="0" y="0" onmousedown="handlePan(0,-1)"/>
  <use id="arrowright" xlink:href="#arrowRight" x="0" y="0" onmousedown="handlePan(1,0)"/>
  <use id="arrowdown" xlink:href="#arrowDown" x="0" y="0" onmousedown="handlePan(0,1)"/>
  <use id="arrowleft" xlink:href="#arrowLeft" x="0" y="0" onmousedown="handlePan(-1,0)"/>
</g>
<svg viewBox="0 0 15 15" width="100%" height="30px" preserveAspectRatio="xMaxYMin meet">
 <g id="arrow_out" transform="scale(0.3 0.3)">
  <a xlink:href="classsensesp_1_1_base_blinker_a094e850c60f9c314e114d347070b4978_icgraph_org.svg" target="_base">
   <rect id="button" ry="5" rx="5" y="6" x="6" height="38" width="38"
        fill="#f2f5e9" fill-opacity="0.5" stroke="#606060" stroke-width="1.0"/>
   <path id="arrow"
     d="M 11.500037,31.436501 C 11.940474,20.09759 22.043105,11.32322 32.158766,21.979434 L 37.068811,17.246167 C 37.068811,17.246167 37.088388,32 37.088388,32 L 22.160133,31.978069 C 22.160133,31.978069 26.997745,27.140456 26.997745,27.140456 C 18.528582,18.264221 13.291696,25.230495 11.500037,31.436501 z"
     style="fill:#404040;"/>
  </a>
 </g>
</svg>

<style type='text/css'>
<![CDATA[
[data-mouse-over-selected='false'] { opacity: 0.7; }
[data-mouse-over-selected='true']  { opacity: 1.0; }
]]>
</style>
<script type="application/ecmascript"><![CDATA[
document.addEventListener('DOMContentLoaded', (event) => {
  highlightEdges();
  highlightAdjacentNodes();
});
]]></script>
</svg>
