<?xml version="1.0" encoding="UTF-8" standalone="no"?>
<!DOCTYPE svg PUBLIC "-//W3C//DTD SVG 1.1//EN"
 "http://www.w3.org/Graphics/SVG/1.1/DTD/svg11.dtd">
<!-- Generated by graphviz version 14.1.4 (20260321.0153)
 -->
<!-- Title: sensesp::SKWSClient::set_connection_state Pages: 1 -->
<svg width="727pt" height="383pt"
 viewBox="0.00 0.00 727.00 383.00" xmlns="http://www.w3.org/2000/svg" xmlns:xlink="http://www.w3.org/1999/xlink">
<g id="graph0" class="graph" transform="scale(1 1) rotate(0) translate(4 379.25)">
<title>sensesp::SKWSClient::set_connection_state</title>
<!-- Node1 -->
<g id="Node000001" class="node">
<title>Node1</title>
<g id="a_Node000001"><a xlink:title=" ">
<polygon fill="#999999" stroke="#666666" points="719,-220.5 604,-220.5 604,-190 719,-190 719,-220.5"/>
<text xml:space="preserve" text-anchor="start" x="612" y="-207" font-family="Helvetica,sans-Serif" font-size="10.00">sensesp::SKWSClient</text>
<text xml:space="preserve" text-anchor="middle" x="661.5" y="-195.75" font-family="Helvetica,sans-Serif" font-size="10.00">::set_connection_state</text>
</a>
</g>
</g>
<!-- Node2 -->
<g id="Node000002" class="node">
<title>Node2</title>
<g id="a_Node000002"><a xlink:href="classsensesp_1_1_s_k_w_s_client.html#a71c4787c20640979d0f21e722fdf161a" target="_top" xlink:title=" ">
<polygon fill="white" stroke="#666666" points="114.25,-298.5 0,-298.5 0,-268 114.25,-268 114.25,-298.5"/>
<text xml:space="preserve" text-anchor="start" x="8" y="-285" font-family="Helvetica,sans-Serif" font-size="10.00">sensesp::SKWSClient</text>
<text xml:space="preserve" text-anchor="middle" x="57.13" y="-273.75" font-family="Helvetica,sans-Serif" font-size="10.00">::connect</text>
</a>
</g>
</g>
<!-- Node1&#45;&gt;Node2 -->
<g id="edge1_Node000001_Node000002" class="edge">
<title>Node1&#45;&gt;Node2</title>
<g id="a_edge1_Node000001_Node000002"><a xlink:title=" ">
<path fill="none" stroke="#63b8ff" d="M650.28,-230.95C636.58,-261.64 609.12,-311.74 568,-335.25 409.06,-426.11 176.25,-337.33 90.98,-298.98"/>
<polygon fill="#63b8ff" stroke="#63b8ff" points="653.39,-232.58 654.11,-222 646.96,-229.82 653.39,-232.58"/>
</a>
</g>
</g>
<!-- Node3 -->
<g id="Node000003" class="node">
<title>Node3</title>
<g id="a_Node000003"><a xlink:href="classsensesp_1_1_s_k_w_s_client.html#a2ebcbbfce9e5d6148e69185da36c5040" target="_top" xlink:title=" ">
<polygon fill="white" stroke="#666666" points="568,-301.5 453.75,-301.5 453.75,-271 568,-271 568,-301.5"/>
<text xml:space="preserve" text-anchor="start" x="461.75" y="-288" font-family="Helvetica,sans-Serif" font-size="10.00">sensesp::SKWSClient</text>
<text xml:space="preserve" text-anchor="middle" x="510.88" y="-276.75" font-family="Helvetica,sans-Serif" font-size="10.00">::connect_ws</text>
</a>
</g>
</g>
<!-- Node1&#45;&gt;Node3 -->
<g id="edge2_Node000001_Node000003" class="edge">
<title>Node1&#45;&gt;Node3</title>
<g id="a_edge2_Node000001_Node000003"><a xlink:title=" ">
<path fill="none" stroke="#63b8ff" d="M623.14,-226.65C606.36,-236.16 586.26,-247.4 568,-257.25 559.79,-261.67 550.85,-266.36 542.56,-270.64"/>
<polygon fill="#63b8ff" stroke="#63b8ff" points="624.84,-229.71 631.8,-221.72 621.38,-223.62 624.84,-229.71"/>
</a>
</g>
</g>
<!-- Node4 -->
<g id="Node000004" class="node">
<title>Node4</title>
<g id="a_Node000004"><a xlink:href="classsensesp_1_1_s_k_w_s_client.html#a05dc57271aa29fbf4f99228331d2194f" target="_top" xlink:title=" ">
<polygon fill="white" stroke="#666666" points="416.25,-339.5 302,-339.5 302,-309 416.25,-309 416.25,-339.5"/>
<text xml:space="preserve" text-anchor="start" x="310" y="-326" font-family="Helvetica,sans-Serif" font-size="10.00">sensesp::SKWSClient</text>
<text xml:space="preserve" text-anchor="middle" x="359.12" y="-314.75" font-family="Helvetica,sans-Serif" font-size="10.00">::poll_access_request</text>
</a>
</g>
</g>
<!-- Node1&#45;&gt;Node4 -->
<g id="edge13_Node000001_Node000004" class="edge">
<title>Node1&#45;&gt;Node4</title>
<g id="a_edge13_Node000001_Node000004"><a xlink:title=" ">
<path fill="none" stroke="#63b8ff" d="M646.44,-230.42C630.87,-255.56 603.24,-292.88 568,-310.25 520.79,-333.52 460.1,-334.86 416.49,-331.68"/>
<polygon fill="#63b8ff" stroke="#63b8ff" points="649.28,-232.49 651.4,-222.11 643.27,-228.9 649.28,-232.49"/>
</a>
</g>
</g>
<!-- Node5 -->
<g id="Node000005" class="node">
<title>Node5</title>
<g id="a_Node000005"><a xlink:href="classsensesp_1_1_s_k_w_s_client.html#a59a57e892f602b940b6c7c15ec49ca52" target="_top" xlink:title=" ">
<polygon fill="white" stroke="#666666" points="417.75,-215.5 300.5,-215.5 300.5,-185 417.75,-185 417.75,-215.5"/>
<text xml:space="preserve" text-anchor="start" x="308.5" y="-202" font-family="Helvetica,sans-Serif" font-size="10.00">sensesp::SKWSClient</text>
<text xml:space="preserve" text-anchor="middle" x="359.12" y="-190.75" font-family="Helvetica,sans-Serif" font-size="10.00">::send_access_request</text>
</a>
</g>
</g>
<!-- Node1&#45;&gt;Node5 -->
<g id="edge16_Node000001_Node000005" class="edge">
<title>Node1&#45;&gt;Node5</title>
<g id="a_edge16_Node000001_Node000005"><a xlink:title=" ">
<path fill="none" stroke="#63b8ff" d="M592.4,-204.12C539.82,-203.24 467.85,-202.04 418.02,-201.21"/>
<polygon fill="#63b8ff" stroke="#63b8ff" points="592.08,-207.61 602.14,-204.28 592.19,-200.61 592.08,-207.61"/>
</a>
</g>
</g>
<!-- Node6 -->
<g id="Node000006" class="node">
<title>Node6</title>
<g id="a_Node000006"><a xlink:href="classsensesp_1_1_s_k_w_s_client.html#ab063bdb9564b0c6c564bd1d5573a9631" target="_top" xlink:title=" ">
<polygon fill="white" stroke="#666666" points="264.5,-277.5 150.25,-277.5 150.25,-247 264.5,-247 264.5,-277.5"/>
<text xml:space="preserve" text-anchor="start" x="158.25" y="-264" font-family="Helvetica,sans-Serif" font-size="10.00">sensesp::SKWSClient</text>
<text xml:space="preserve" text-anchor="middle" x="207.38" y="-252.75" font-family="Helvetica,sans-Serif" font-size="10.00">::test_token</text>
</a>
</g>
</g>
<!-- Node1&#45;&gt;Node6 -->
<g id="edge17_Node000001_Node000006" class="edge">
<title>Node1&#45;&gt;Node6</title>
<g id="a_edge17_Node000001_Node000006"><a xlink:title=" ">
<path fill="none" stroke="#63b8ff" d="M592.56,-214.1C584.29,-215.17 575.95,-216.24 568,-217.25 460.8,-230.91 335.57,-246.5 264.76,-255.28"/>
<polygon fill="#63b8ff" stroke="#63b8ff" points="592.79,-217.6 602.26,-212.85 591.89,-210.66 592.79,-217.6"/>
</a>
</g>
</g>
<!-- Node7 -->
<g id="Node000007" class="node">
<title>Node7</title>
<g id="a_Node000007"><a xlink:href="classsensesp_1_1_s_k_w_s_client.html#afbe265351213c154f3977b8fb56fc91d" target="_top" xlink:title="Called when the websocket connection is established.">
<polygon fill="white" stroke="#666666" points="568,-177.5 453.75,-177.5 453.75,-147 568,-147 568,-177.5"/>
<text xml:space="preserve" text-anchor="start" x="461.75" y="-164" font-family="Helvetica,sans-Serif" font-size="10.00">sensesp::SKWSClient</text>
<text xml:space="preserve" text-anchor="middle" x="510.88" y="-152.75" font-family="Helvetica,sans-Serif" font-size="10.00">::on_connected</text>
</a>
</g>
</g>
<!-- Node1&#45;&gt;Node7 -->
<g id="edge10_Node000001_Node000007" class="edge">
<title>Node1&#45;&gt;Node7</title>
<g id="a_edge10_Node000001_Node000007"><a xlink:title=" ">
<path fill="none" stroke="#63b8ff" d="M595.5,-186.44C585.71,-183.61 575.7,-180.71 566.16,-177.96"/>
<polygon fill="#63b8ff" stroke="#63b8ff" points="594.39,-189.77 604.97,-189.18 596.34,-183.04 594.39,-189.77"/>
</a>
</g>
</g>
<!-- Node8 -->
<g id="Node000008" class="node">
<title>Node8</title>
<g id="a_Node000008"><a xlink:href="classsensesp_1_1_s_k_w_s_client.html#a963d6aa9d1d835a394338ba64fe1c6cc" target="_top" xlink:title="Called when the websocket connection is disconnected.">
<polygon fill="white" stroke="#666666" points="568,-128.5 453.75,-128.5 453.75,-98 568,-98 568,-128.5"/>
<text xml:space="preserve" text-anchor="start" x="461.75" y="-115" font-family="Helvetica,sans-Serif" font-size="10.00">sensesp::SKWSClient</text>
<text xml:space="preserve" text-anchor="middle" x="510.88" y="-103.75" font-family="Helvetica,sans-Serif" font-size="10.00">::on_disconnected</text>
</a>
</g>
</g>
<!-- Node1&#45;&gt;Node8 -->
<g id="edge11_Node000001_Node000008" class="edge">
<title>Node1&#45;&gt;Node8</title>
<g id="a_edge11_Node000001_Node000008"><a xlink:title=" ">
<path fill="none" stroke="#63b8ff" d="M632.72,-182.79C614.87,-168.95 590.82,-151.41 568,-138.25 562.27,-134.95 556.02,-131.78 549.85,-128.87"/>
<polygon fill="#63b8ff" stroke="#63b8ff" points="630.23,-185.28 640.26,-188.7 634.56,-179.78 630.23,-185.28"/>
</a>
</g>
</g>
<!-- Node9 -->
<g id="Node000009" class="node">
<title>Node9</title>
<g id="a_Node000009"><a xlink:href="classsensesp_1_1_s_k_w_s_client.html#a7b4c11c2a4bea42349e5be61166adeb9" target="_top" xlink:title="Called when the websocket connection encounters an error.">
<polygon fill="white" stroke="#666666" points="568,-79.5 453.75,-79.5 453.75,-49 568,-49 568,-79.5"/>
<text xml:space="preserve" text-anchor="start" x="461.75" y="-66" font-family="Helvetica,sans-Serif" font-size="10.00">sensesp::SKWSClient</text>
<text xml:space="preserve" text-anchor="middle" x="510.88" y="-54.75" font-family="Helvetica,sans-Serif" font-size="10.00">::on_error</text>
</a>
</g>
</g>
<!-- Node1&#45;&gt;Node9 -->
<g id="edge12_Node000001_Node000009" class="edge">
<title>Node1&#45;&gt;Node9</title>
<g id="a_edge12_Node000001_Node000009"><a xlink:title=" ">
<path fill="none" stroke="#63b8ff" d="M645.51,-180.01C629.18,-154.31 600.95,-114.73 568,-89.25 563.53,-85.79 558.5,-82.69 553.34,-79.95"/>
<polygon fill="#63b8ff" stroke="#63b8ff" points="642.52,-181.83 650.76,-188.48 648.47,-178.14 642.52,-181.83"/>
</a>
</g>
</g>
<!-- Node10 -->
<g id="Node000010" class="node">
<title>Node10</title>
<g id="a_Node000010"><a xlink:href="classsensesp_1_1_s_k_w_s_client.html#af88e234b684dc0fb1b85e2efea98dc36" target="_top" xlink:title=" ">
<polygon fill="white" stroke="#666666" points="568,-30.5 453.75,-30.5 453.75,0 568,0 568,-30.5"/>
<text xml:space="preserve" text-anchor="start" x="461.75" y="-17" font-family="Helvetica,sans-Serif" font-size="10.00">sensesp::SKWSClient</text>
<text xml:space="preserve" text-anchor="middle" x="510.88" y="-5.75" font-family="Helvetica,sans-Serif" font-size="10.00">::restart</text>
</a>
</g>
</g>
<!-- Node1&#45;&gt;Node10 -->
<g id="edge14_Node000001_Node000010" class="edge">
<title>Node1&#45;&gt;Node10</title>
<g id="a_edge14_Node000001_Node000010"><a xlink:title=" ">
<path fill="none" stroke="#63b8ff" d="M651.95,-179.46C638.96,-143.85 611.13,-79.59 568,-40.25 564.14,-36.73 559.7,-33.64 555.04,-30.94"/>
<polygon fill="#63b8ff" stroke="#63b8ff" points="648.51,-180.25 655.14,-188.52 655.12,-177.92 648.51,-180.25"/>
</a>
</g>
</g>
<!-- Node3&#45;&gt;Node4 -->
<g id="edge3_Node000003_Node000004" class="edge">
<title>Node3&#45;&gt;Node4</title>
<g id="a_edge3_Node000003_Node000004"><a xlink:title=" ">
<path fill="none" stroke="#63b8ff" d="M442.35,-303.39C433.65,-305.59 424.81,-307.83 416.32,-309.99"/>
<polygon fill="#63b8ff" stroke="#63b8ff" points="442.96,-306.84 451.79,-300.99 441.24,-300.06 442.96,-306.84"/>
</a>
</g>
</g>
<!-- Node3&#45;&gt;Node5 -->
<g id="edge5_Node000003_Node000005" class="edge">
<title>Node3&#45;&gt;Node5</title>
<g id="a_edge5_Node000003_Node000005"><a xlink:title=" ">
<path fill="none" stroke="#63b8ff" d="M473.09,-265.12C446.64,-249.94 411.56,-229.79 387.55,-216"/>
<polygon fill="#63b8ff" stroke="#63b8ff" points="471.03,-267.98 481.44,-269.92 474.52,-261.91 471.03,-267.98"/>
</a>
</g>
</g>
<!-- Node3&#45;&gt;Node6 -->
<g id="edge9_Node000003_Node000006" class="edge">
<title>Node3&#45;&gt;Node6</title>
<g id="a_edge9_Node000003_Node000006"><a xlink:title=" ">
<path fill="none" stroke="#63b8ff" d="M442.11,-280.86C388.74,-276.61 315.22,-270.75 264.97,-266.75"/>
<polygon fill="#63b8ff" stroke="#63b8ff" points="441.76,-284.34 452.01,-281.64 442.32,-277.36 441.76,-284.34"/>
</a>
</g>
</g>
<!-- Node4&#45;&gt;Node2 -->
<g id="edge4_Node000004_Node000002" class="edge">
<title>Node4&#45;&gt;Node2</title>
<g id="a_edge4_Node000004_Node000002"><a xlink:title=" ">
<path fill="none" stroke="#63b8ff" d="M290.36,-314.99C237.33,-307.74 164.44,-297.78 114.55,-290.96"/>
<polygon fill="#63b8ff" stroke="#63b8ff" points="289.82,-318.45 300.2,-316.33 290.76,-311.51 289.82,-318.45"/>
</a>
</g>
</g>
<!-- Node5&#45;&gt;Node2 -->
<g id="edge6_Node000005_Node000002" class="edge">
<title>Node5&#45;&gt;Node2</title>
<g id="a_edge6_Node000005_Node000002"><a xlink:title=" ">
<path fill="none" stroke="#63b8ff" d="M288.92,-208.07C247.92,-213.89 195.33,-223.43 150.25,-238.25 127.42,-245.75 103.05,-257.86 85.11,-267.62"/>
<polygon fill="#63b8ff" stroke="#63b8ff" points="289.24,-211.56 298.67,-206.73 288.28,-204.62 289.24,-211.56"/>
</a>
</g>
</g>
<!-- Node5&#45;&gt;Node6 -->
<g id="edge7_Node000005_Node000006" class="edge">
<title>Node5&#45;&gt;Node6</title>
<g id="a_edge7_Node000005_Node000006"><a xlink:title=" ">
<path fill="none" stroke="#63b8ff" d="M309.91,-220.21C289.35,-228.73 265.71,-238.51 246.41,-246.5"/>
<polygon fill="#63b8ff" stroke="#63b8ff" points="311.04,-223.53 318.94,-216.47 308.36,-217.07 311.04,-223.53"/>
</a>
</g>
</g>
<!-- Node6&#45;&gt;Node2 -->
<g id="edge8_Node000006_Node000002" class="edge">
<title>Node6&#45;&gt;Node2</title>
<g id="a_edge8_Node000006_Node000002"><a xlink:title=" ">
<path fill="none" stroke="#63b8ff" d="M138.59,-271.85C130.51,-273 122.33,-274.15 114.44,-275.27"/>
<polygon fill="#63b8ff" stroke="#63b8ff" points="139,-275.33 148.41,-270.46 138.01,-268.4 139,-275.33"/>
</a>
</g>
</g>
<!-- Node11 -->
<g id="Node000011" class="node">
<title>Node11</title>
<g id="a_Node000011"><a xlink:href="classsensesp_1_1_s_k_w_s_client.html#ad7f3e4ebde28b680f480cd62860c01b1" target="_top" xlink:title=" ">
<polygon fill="white" stroke="#666666" points="416.25,-30.5 302,-30.5 302,0 416.25,0 416.25,-30.5"/>
<text xml:space="preserve" text-anchor="start" x="310" y="-17" font-family="Helvetica,sans-Serif" font-size="10.00">sensesp::SKWSClient</text>
<text xml:space="preserve" text-anchor="middle" x="359.12" y="-5.75" font-family="Helvetica,sans-Serif" font-size="10.00">::send_delta</text>
</a>
</g>
</g>
<!-- Node10&#45;&gt;Node11 -->
<g id="edge15_Node000010_Node000011" class="edge">
<title>Node10&#45;&gt;Node11</title>
<g id="a_edge15_Node000010_Node000011"><a xlink:title=" ">
<path fill="none" stroke="#63b8ff" d="M441.77,-15.25C433.26,-15.25 424.63,-15.25 416.32,-15.25"/>
<polygon fill="#63b8ff" stroke="#63b8ff" points="441.75,-18.75 451.75,-15.25 441.75,-11.75 441.75,-18.75"/>
</a>
</g>
</g>
</g>
</svg>
