<?xml version="1.0" encoding="UTF-8" standalone="no"?>
<!DOCTYPE svg PUBLIC "-//W3C//DTD SVG 1.1//EN"
 "http://www.w3.org/Graphics/SVG/1.1/DTD/svg11.dtd">
<!-- Generated by graphviz version 2.49.3 (20211023.0002)
 -->
<!-- Title: sensesp::SKEmitter::add_metadata Pages: 1 -->
<svg width="262pt" height="137pt"
 viewBox="0.00 0.00 262.00 137.00" xmlns="http://www.w3.org/2000/svg" xmlns:xlink="http://www.w3.org/1999/xlink">
<g id="graph0" class="graph" transform="scale(1 1) rotate(0) translate(4 133)">
<title>sensesp::SKEmitter::add_metadata</title>
<polygon fill="white" stroke="transparent" points="-4,4 -4,-133 258,-133 258,4 -4,4"/>
<!-- Node1 -->
<g id="node1" class="node">
<title>Node1</title>
<g id="a_node1"><a xlink:title=" ">
<polygon fill="#bfbfbf" stroke="black" points="0,-49.5 0,-79.5 104,-79.5 104,-49.5 0,-49.5"/>
<text text-anchor="start" x="8" y="-67.5" font-family="Helvetica,sans-Serif" font-size="10.00">sensesp::SKEmitter</text>
<text text-anchor="middle" x="52" y="-56.5" font-family="Helvetica,sans-Serif" font-size="10.00">::add_metadata</text>
</a>
</g>
</g>
<!-- Node2 -->
<g id="node2" class="node">
<title>Node2</title>
<g id="a_node2"><a xlink:href="classsensesp_1_1_s_k_metadata.html#a4da9ad3273c01fe5efa814c68ee0f712" target="_top" xlink:title=" ">
<polygon fill="white" stroke="black" points="140,-98.5 140,-128.5 254,-128.5 254,-98.5 140,-98.5"/>
<text text-anchor="start" x="148" y="-116.5" font-family="Helvetica,sans-Serif" font-size="10.00">sensesp::SKMetadata</text>
<text text-anchor="middle" x="197" y="-105.5" font-family="Helvetica,sans-Serif" font-size="10.00">::add_entry</text>
</a>
</g>
</g>
<!-- Node1&#45;&gt;Node2 -->
<g id="edge1" class="edge">
<title>Node1&#45;&gt;Node2</title>
<path fill="none" stroke="midnightblue" d="M97.07,-79.6C111.34,-84.49 127.33,-89.97 142.23,-95.07"/>
<polygon fill="midnightblue" stroke="midnightblue" points="141.23,-98.43 151.83,-98.36 143.5,-91.81 141.23,-98.43"/>
</g>
<!-- Node3 -->
<g id="node3" class="node">
<title>Node3</title>
<g id="a_node3"><a xlink:href="classsensesp_1_1_s_k_emitter.html#a2300291c1953e96bcb2d3982672160d4" target="_top" xlink:title=" ">
<polygon fill="white" stroke="black" points="145,-49.5 145,-79.5 249,-79.5 249,-49.5 145,-49.5"/>
<text text-anchor="start" x="153" y="-67.5" font-family="Helvetica,sans-Serif" font-size="10.00">sensesp::SKEmitter</text>
<text text-anchor="middle" x="197" y="-56.5" font-family="Helvetica,sans-Serif" font-size="10.00">::get_metadata</text>
</a>
</g>
</g>
<!-- Node1&#45;&gt;Node3 -->
<g id="edge2" class="edge">
<title>Node1&#45;&gt;Node3</title>
<path fill="none" stroke="midnightblue" d="M104.22,-64.5C114.08,-64.5 124.5,-64.5 134.64,-64.5"/>
<polygon fill="midnightblue" stroke="midnightblue" points="134.65,-68 144.65,-64.5 134.65,-61 134.65,-68"/>
</g>
<!-- Node4 -->
<g id="node4" class="node">
<title>Node4</title>
<g id="a_node4"><a xlink:href="classsensesp_1_1_s_k_emitter.html#a292710e5dc52da9cad9d1b992a886ff7" target="_top" xlink:title=" ">
<polygon fill="white" stroke="black" points="145,-0.5 145,-30.5 249,-30.5 249,-0.5 145,-0.5"/>
<text text-anchor="start" x="153" y="-18.5" font-family="Helvetica,sans-Serif" font-size="10.00">sensesp::SKEmitter</text>
<text text-anchor="middle" x="197" y="-7.5" font-family="Helvetica,sans-Serif" font-size="10.00">::get_sk_path</text>
</a>
</g>
</g>
<!-- Node1&#45;&gt;Node4 -->
<g id="edge3" class="edge">
<title>Node1&#45;&gt;Node4</title>
<path fill="none" stroke="midnightblue" d="M97.07,-49.4C111.34,-44.51 127.33,-39.03 142.23,-33.93"/>
<polygon fill="midnightblue" stroke="midnightblue" points="143.5,-37.19 151.83,-30.64 141.23,-30.57 143.5,-37.19"/>
</g>
</g>
</svg>
