<?xml version="1.0" encoding="UTF-8" standalone="no"?>
<!DOCTYPE svg PUBLIC "-//W3C//DTD SVG 1.1//EN"
 "http://www.w3.org/Graphics/SVG/1.1/DTD/svg11.dtd">
<!-- Generated by graphviz version 2.40.1 (20161225.0304)
 -->
<!-- Title: Networking::setup_wifi_manager Pages: 1 -->
<svg width="404pt" height="37pt"
 viewBox="0.00 0.00 403.53 37.00" xmlns="http://www.w3.org/2000/svg" xmlns:xlink="http://www.w3.org/1999/xlink">
<g id="graph0" class="graph" transform="scale(1 1) rotate(0) translate(4 33)">
<title>Networking::setup_wifi_manager</title>
<polygon fill="#ffffff" stroke="transparent" points="-4,4 -4,-33 399.5273,-33 399.5273,4 -4,4"/>
<!-- Node51 -->
<g id="node1" class="node">
<title>Node51</title>
<g id="a_node1"><a xlink:title=" ">
<polygon fill="#bfbfbf" stroke="#000000" points="279.4834,-.5 279.4834,-28.5 395.5273,-28.5 395.5273,-.5 279.4834,-.5"/>
<text text-anchor="start" x="287.4834" y="-16.5" font-family="Helvetica,sans-Serif" font-size="10.00" fill="#000000">Networking::setup_wifi</text>
<text text-anchor="middle" x="337.5054" y="-6.5" font-family="Helvetica,sans-Serif" font-size="10.00" fill="#000000">_manager</text>
</a>
</g>
</g>
<!-- Node52 -->
<g id="node2" class="node">
<title>Node52</title>
<g id="a_node2"><a xlink:href="class_networking.html#ad17d45ae0397a30afbdb00d605e4f719" target="_top" xlink:title=" ">
<polygon fill="#ffffff" stroke="#000000" points="147.4443,-5.5 147.4443,-23.5 243.4834,-23.5 243.4834,-5.5 147.4443,-5.5"/>
<text text-anchor="middle" x="195.4639" y="-11.5" font-family="Helvetica,sans-Serif" font-size="10.00" fill="#000000">Networking::setup</text>
</a>
</g>
</g>
<!-- Node51&#45;&gt;Node52 -->
<g id="edge1" class="edge">
<title>Node51&#45;&gt;Node52</title>
<path fill="none" stroke="#191970" d="M269.281,-14.5C260.6804,-14.5 252.0251,-14.5 243.8206,-14.5"/>
<polygon fill="#191970" stroke="#191970" points="269.3219,-18.0001 279.3218,-14.5 269.3218,-11.0001 269.3219,-18.0001"/>
</g>
<!-- Node53 -->
<g id="node3" class="node">
<title>Node53</title>
<g id="a_node3"><a xlink:href="class_sens_e_s_p_app.html#a3d70c22bfd1bf842f6daa83ab2f50f79" target="_top" xlink:title=" ">
<polygon fill="#ffffff" stroke="#000000" points="0,-5.5 0,-23.5 111.4443,-23.5 111.4443,-5.5 0,-5.5"/>
<text text-anchor="middle" x="55.7222" y="-11.5" font-family="Helvetica,sans-Serif" font-size="10.00" fill="#000000">SensESPApp::enable</text>
</a>
</g>
</g>
<!-- Node52&#45;&gt;Node53 -->
<g id="edge2" class="edge">
<title>Node52&#45;&gt;Node53</title>
<path fill="none" stroke="#191970" d="M137.1914,-14.5C128.721,-14.5 120.0166,-14.5 111.5951,-14.5"/>
<polygon fill="#191970" stroke="#191970" points="137.3727,-18.0001 147.3727,-14.5 137.3727,-11.0001 137.3727,-18.0001"/>
</g>
</g>
</svg>
