<?xml version="1.0" encoding="UTF-8" standalone="no"?>
<!DOCTYPE svg PUBLIC "-//W3C//DTD SVG 1.1//EN"
 "http://www.w3.org/Graphics/SVG/1.1/DTD/svg11.dtd">
<!-- Generated by graphviz version 14.1.4 (20260321.0153)
 -->
<!-- Title: sensesp::HTTPServer::dispatch_request Pages: 1 -->
<!--zoomable 226 -->

<svg id="main" version="1.1" xmlns="http://www.w3.org/2000/svg" xmlns:xlink="http://www.w3.org/1999/xlink" xml:space="preserve" onload="init(evt)">

<style type="text/css"><![CDATA[
.node, .edge {opacity: 0.7;}
.node.selected, .edge.selected {opacity: 1;}
.edge:hover path { stroke: red; }
.edge:hover polygon { stroke: red; fill: red; }
]]></style>

<defs>
  <circle id="rim" cx="0" cy="0" r="7"/>
  <circle id="rim2" cx="0" cy="0" r="3.5"/>
  <g id="zoomPlus">
    <use xlink:href="#rim" fill="#404040"><set attributeName="fill" to="#808080" begin="zoomplus.mouseover" end="zoomplus.mouseout"/></use>
    <path d="M-4,0h8M0,-4v8" fill="none" stroke="white" stroke-width="1.5" pointer-events="none"/>
  </g>
  <g id="zoomMin">
    <use xlink:href="#rim" fill="#404040"><set attributeName="fill" to="#808080" begin="zoomminus.mouseover" end="zoomminus.mouseout"/></use>
    <path d="M-4,0h8" fill="none" stroke="white" stroke-width="1.5" pointer-events="none"/>
  </g>
  <g id="arrowUp" transform="translate(30 24)">
    <use xlink:href="#rim"/>
    <path pointer-events="none" fill="none" stroke="white" stroke-width="1.5" d="M0,-3.0v7 M-2.5,-0.5L0,-3.0L2.5,-0.5"/>
  </g>
  <g id="arrowRight" transform="rotate(90) translate(36 -43)">
    <use xlink:href="#rim"/>
    <path pointer-events="none" fill="none" stroke="white" stroke-width="1.5" d="M0,-3.0v7 M-2.5,-0.5L0,-3.0L2.5,-0.5"/>
  </g>
  <g id="arrowDown" transform="rotate(180) translate(-30 -48)">
    <use xlink:href="#rim"/>
    <path pointer-events="none" fill="none" stroke="white" stroke-width="1.5" d="M0,-3.0v7 M-2.5,-0.5L0,-3.0L2.5,-0.5"/>
  </g>
  <g id="arrowLeft" transform="rotate(270) translate(-36 17)">
    <use xlink:href="#rim"/>
    <path pointer-events="none" fill="none" stroke="white" stroke-width="1.5" d="M0,-3.0v7 M-2.5,-0.5L0,-3.0L2.5,-0.5"/>
  </g>
  <g id="resetDef">
    <use xlink:href="#rim2" fill="#404040"><set attributeName="fill" to="#808080" begin="reset.mouseover" end="reset.mouseout"/></use>
  </g>
</defs>
<script type="application/ecmascript">
var viewWidth = 1143;
var viewHeight = 226;
var sectionId = 'dynsection-5';
</script>
<script type="application/ecmascript" xlink:href="svg.min.js"/>
<svg id="graph" class="graph">
<g id="viewport">
<title>sensesp::HTTPServer::dispatch_request</title>
<!-- Node1 -->
<g id="Node000001" class="node">
<title>Node1</title>
<g id="a_Node000001"><a xlink:title="Dispatcher method that captures all requests and forwards them to the appropriate handlers.">
<polygon fill="#999999" stroke="#666666" points="113.5,-149.5 0,-149.5 0,-119 113.5,-119 113.5,-149.5"/>
<text xml:space="preserve" text-anchor="start" x="8" y="-136" font-family="Helvetica,sans-Serif" font-size="10.00">sensesp::HTTPServer</text>
<text xml:space="preserve" text-anchor="middle" x="56.75" y="-124.75" font-family="Helvetica,sans-Serif" font-size="10.00">::dispatch_request</text>
</a>
</g>
</g>
<!-- Node2 -->
<g id="Node000002" class="node">
<title>Node2</title>
<g id="a_Node000002"><a xlink:href="classsensesp_1_1_h_t_t_p_server.html#a6fdb4c561e5fd44bfa65cf07d10fbc49" target="_top" xlink:title=" ">
<polygon fill="white" stroke="#666666" points="268.62,-198.5 155.12,-198.5 155.12,-168 268.62,-168 268.62,-198.5"/>
<text xml:space="preserve" text-anchor="start" x="163.12" y="-185" font-family="Helvetica,sans-Serif" font-size="10.00">sensesp::HTTPServer</text>
<text xml:space="preserve" text-anchor="middle" x="211.88" y="-173.75" font-family="Helvetica,sans-Serif" font-size="10.00">::authenticate_request</text>
</a>
</g>
</g>
<!-- Node1&#45;&gt;Node2 -->
<g id="edge1_Node000001_Node000002" class="edge">
<title>Node1&#45;&gt;Node2</title>
<g id="a_edge1_Node000001_Node000002"><a xlink:title=" ">
<path fill="none" stroke="#63b8ff" d="M106.62,-149.89C120.78,-154.42 136.39,-159.42 151.13,-164.13"/>
<polygon fill="#63b8ff" stroke="#63b8ff" points="149.65,-167.33 160.24,-167.05 151.78,-160.67 149.65,-167.33"/>
</a>
</g>
</g>
<!-- Node4 -->
<g id="Node000004" class="node">
<title>Node4</title>
<g id="a_Node000004"><a xlink:href="classsensesp_1_1_h_t_t_p_server.html#a770fed412b33e5ce744c496c9fb50ced" target="_top" xlink:title=" ">
<polygon fill="white" stroke="#666666" points="274.25,-149.5 149.5,-149.5 149.5,-119 274.25,-119 274.25,-149.5"/>
<text xml:space="preserve" text-anchor="start" x="157.5" y="-136" font-family="Helvetica,sans-Serif" font-size="10.00">sensesp::HTTPServer</text>
<text xml:space="preserve" text-anchor="middle" x="211.88" y="-124.75" font-family="Helvetica,sans-Serif" font-size="10.00">::call_request_dispatcher</text>
</a>
</g>
</g>
<!-- Node1&#45;&gt;Node4 -->
<g id="edge3_Node000001_Node000004" class="edge">
<title>Node1&#45;&gt;Node4</title>
<g id="a_edge3_Node000001_Node000004"><a xlink:title=" ">
<path fill="none" stroke="#63b8ff" d="M113.9,-127.72C121.67,-127.55 129.75,-127.48 137.78,-127.51"/>
<polygon fill="#63b8ff" stroke="#63b8ff" points="137.51,-131 147.54,-127.6 137.57,-124 137.51,-131"/>
</a>
</g>
</g>
<!-- Node17 -->
<g id="Node000017" class="node">
<title>Node17</title>
<g id="a_Node000017"><a xlink:href="classsensesp_1_1_h_t_t_p_server.html#ae958cabac51c4d74bd4ed7332d78d2e1" target="_top" xlink:title="Check if the request is for the captive portal and handle it if it.">
<polygon fill="white" stroke="#666666" points="270.12,-100.5 153.62,-100.5 153.62,-70 270.12,-70 270.12,-100.5"/>
<text xml:space="preserve" text-anchor="start" x="161.62" y="-87" font-family="Helvetica,sans-Serif" font-size="10.00">sensesp::HTTPServer</text>
<text xml:space="preserve" text-anchor="middle" x="211.88" y="-75.75" font-family="Helvetica,sans-Serif" font-size="10.00">::handle_captive_portal</text>
</a>
</g>
</g>
<!-- Node1&#45;&gt;Node17 -->
<g id="edge19_Node000001_Node000017" class="edge">
<title>Node1&#45;&gt;Node17</title>
<g id="a_edge19_Node000001_Node000017"><a xlink:title=" ">
<path fill="none" stroke="#63b8ff" d="M106.62,-118.61C120.78,-114.08 136.39,-109.08 151.13,-104.37"/>
<polygon fill="#63b8ff" stroke="#63b8ff" points="151.78,-107.83 160.24,-101.45 149.65,-101.17 151.78,-107.83"/>
</a>
</g>
</g>
<!-- Node18 -->
<g id="Node000018" class="node">
<title>Node18</title>
<g id="a_Node000018"><a xlink:href="namespacesensesp.html#a7f904f4cb9b672e259f8838b24fbcd21" target="_top" xlink:title=" ">
<polygon fill="white" stroke="#666666" points="264.88,-51.88 158.88,-51.88 158.88,-32.62 264.88,-32.62 264.88,-51.88"/>
<text xml:space="preserve" text-anchor="middle" x="211.88" y="-38.38" font-family="Helvetica,sans-Serif" font-size="10.00">sensesp::urldecode2</text>
</a>
</g>
</g>
<!-- Node1&#45;&gt;Node18 -->
<g id="edge20_Node000001_Node000018" class="edge">
<title>Node1&#45;&gt;Node18</title>
<g id="a_edge20_Node000001_Node000018"><a xlink:title=" ">
<path fill="none" stroke="#63b8ff" d="M73.35,-118.79C90.63,-102.42 119.98,-76.85 149.5,-61.25 152.91,-59.45 156.51,-57.79 160.2,-56.26"/>
<polygon fill="#63b8ff" stroke="#63b8ff" points="161.17,-59.64 169.3,-52.85 158.71,-53.09 161.17,-59.64"/>
</a>
</g>
</g>
<!-- Node3 -->
<g id="Node000003" class="node">
<title>Node3</title>
<g id="a_Node000003"><a xlink:href="classsensesp_1_1_h_t_t_p_authenticator.html#a1925475ef5b914b85d4a9527114fcc92" target="_top" xlink:title="Authenticate an incoming request.">
<polygon fill="white" stroke="#666666" points="451.5,-198.5 310.25,-198.5 310.25,-168 451.5,-168 451.5,-198.5"/>
<text xml:space="preserve" text-anchor="start" x="318.25" y="-185" font-family="Helvetica,sans-Serif" font-size="10.00">sensesp::HTTPAuthenticator</text>
<text xml:space="preserve" text-anchor="middle" x="380.88" y="-173.75" font-family="Helvetica,sans-Serif" font-size="10.00">::authenticate_request</text>
</a>
</g>
</g>
<!-- Node2&#45;&gt;Node3 -->
<g id="edge2_Node000002_Node000003" class="edge">
<title>Node2&#45;&gt;Node3</title>
<g id="a_edge2_Node000002_Node000003"><a xlink:title=" ">
<path fill="none" stroke="#63b8ff" d="M268.95,-183.25C278.52,-183.25 288.63,-183.25 298.69,-183.25"/>
<polygon fill="#63b8ff" stroke="#63b8ff" points="298.49,-186.75 308.49,-183.25 298.49,-179.75 298.49,-186.75"/>
</a>
</g>
</g>
<!-- Node4&#45;&gt;Node1 -->
<g id="edge4_Node000004_Node000001" class="edge">
<title>Node4&#45;&gt;Node1</title>
<g id="a_edge4_Node000004_Node000001"><a xlink:title=" ">
<path fill="none" stroke="#63b8ff" d="M149.05,-140.89C141.24,-141.01 133.22,-141.03 125.33,-140.96"/>
<polygon fill="#63b8ff" stroke="#63b8ff" points="125.46,-137.46 115.41,-140.81 125.36,-144.46 125.46,-137.46"/>
</a>
</g>
</g>
<!-- Node5 -->
<g id="Node000005" class="node">
<title>Node5</title>
<g id="a_Node000005"><a xlink:href="classsensesp_1_1_h_t_t_p_server.html#ad582006382529c29bc52b8773b8362c7" target="_top" xlink:title=" ">
<polygon fill="white" stroke="#666666" points="437.62,-149.5 324.12,-149.5 324.12,-119 437.62,-119 437.62,-149.5"/>
<text xml:space="preserve" text-anchor="start" x="332.12" y="-136" font-family="Helvetica,sans-Serif" font-size="10.00">sensesp::HTTPServer</text>
<text xml:space="preserve" text-anchor="middle" x="380.88" y="-124.75" font-family="Helvetica,sans-Serif" font-size="10.00">::HTTPServer</text>
</a>
</g>
</g>
<!-- Node4&#45;&gt;Node5 -->
<g id="edge5_Node000004_Node000005" class="edge">
<title>Node4&#45;&gt;Node5</title>
<g id="a_edge5_Node000004_Node000005"><a xlink:title=" ">
<path fill="none" stroke="#63b8ff" d="M274.59,-127.71C286.89,-127.47 299.88,-127.44 312.37,-127.61"/>
<polygon fill="#63b8ff" stroke="#63b8ff" points="312.09,-131.11 322.15,-127.8 312.22,-124.11 312.09,-131.11"/>
</a>
</g>
</g>
<!-- Node5&#45;&gt;Node4 -->
<g id="edge6_Node000005_Node000004" class="edge">
<title>Node5&#45;&gt;Node4</title>
<g id="a_edge6_Node000005_Node000004"><a xlink:title=" ">
<path fill="none" stroke="#63b8ff" d="M323.66,-140.67C311.59,-140.97 298.66,-141.07 286.04,-140.95"/>
<polygon fill="#63b8ff" stroke="#63b8ff" points="286.15,-137.46 276.1,-140.81 286.05,-144.45 286.15,-137.46"/>
</a>
</g>
</g>
<!-- Node6 -->
<g id="Node000006" class="node">
<title>Node6</title>
<g id="a_Node000006"><a xlink:href="namespacesensesp.html#a1c1105507d71491cf4e0505eaabb2e49" target="_top" xlink:title=" ">
<polygon fill="white" stroke="#666666" points="614.88,-211.88 508.88,-211.88 508.88,-192.62 614.88,-192.62 614.88,-211.88"/>
<text xml:space="preserve" text-anchor="middle" x="561.88" y="-198.38" font-family="Helvetica,sans-Serif" font-size="10.00">sensesp::event_loop</text>
</a>
</g>
</g>
<!-- Node5&#45;&gt;Node6 -->
<g id="edge7_Node000005_Node000006" class="edge">
<title>Node5&#45;&gt;Node6</title>
<g id="a_edge7_Node000005_Node000006"><a xlink:title=" ">
<path fill="none" stroke="#63b8ff" d="M430.46,-149.97C437.63,-152.79 444.85,-155.9 451.5,-159.25 468.68,-167.9 469.95,-175.4 487.5,-183.25 492.01,-185.27 496.78,-187.11 501.64,-188.77"/>
<polygon fill="#63b8ff" stroke="#63b8ff" points="500.29,-192.01 510.88,-191.68 502.4,-185.34 500.29,-192.01"/>
</a>
</g>
</g>
<!-- Node9 -->
<g id="Node000009" class="node">
<title>Node9</title>
<g id="a_Node000009"><a xlink:href="classsensesp_1_1_file_system_saveable.html#a974f062b375cf8637944f121084cf9f7" target="_top" xlink:title=" ">
<polygon fill="white" stroke="#666666" points="636.25,-174.5 487.5,-174.5 487.5,-144 636.25,-144 636.25,-174.5"/>
<text xml:space="preserve" text-anchor="start" x="495.5" y="-161" font-family="Helvetica,sans-Serif" font-size="10.00">sensesp::FileSystemSaveable</text>
<text xml:space="preserve" text-anchor="middle" x="561.88" y="-149.75" font-family="Helvetica,sans-Serif" font-size="10.00">::FileSystemSaveable</text>
</a>
</g>
</g>
<!-- Node5&#45;&gt;Node9 -->
<g id="edge10_Node000005_Node000009" class="edge">
<title>Node5&#45;&gt;Node9</title>
<g id="a_edge10_Node000005_Node000009"><a xlink:title=" ">
<path fill="none" stroke="#63b8ff" d="M438.02,-142.09C450.07,-143.78 463.07,-145.59 475.94,-147.39"/>
<polygon fill="#63b8ff" stroke="#63b8ff" points="475.3,-150.83 485.69,-148.75 476.27,-143.9 475.3,-150.83"/>
</a>
</g>
</g>
<!-- Node11 -->
<g id="Node000011" class="node">
<title>Node11</title>
<g id="a_Node000011"><a xlink:href="classsensesp_1_1_sens_e_s_p_base_app.html#a21ba3dc3ef0056c32ad5a67e1ae5ff16" target="_top" xlink:title="Get the current hostname.">
<polygon fill="white" stroke="#666666" points="632.5,-125.5 491.25,-125.5 491.25,-95 632.5,-95 632.5,-125.5"/>
<text xml:space="preserve" text-anchor="start" x="499.25" y="-112" font-family="Helvetica,sans-Serif" font-size="10.00">sensesp::SensESPBaseApp</text>
<text xml:space="preserve" text-anchor="middle" x="561.88" y="-100.75" font-family="Helvetica,sans-Serif" font-size="10.00">::get_hostname</text>
</a>
</g>
</g>
<!-- Node5&#45;&gt;Node11 -->
<g id="edge12_Node000005_Node000011" class="edge">
<title>Node5&#45;&gt;Node11</title>
<g id="a_edge12_Node000005_Node000011"><a xlink:title=" ">
<path fill="none" stroke="#63b8ff" d="M438.02,-126.72C451.29,-124.94 465.7,-123.01 479.82,-121.12"/>
<polygon fill="#63b8ff" stroke="#63b8ff" points="480.12,-124.61 489.56,-119.81 479.19,-117.67 480.12,-124.61"/>
</a>
</g>
</g>
<!-- Node12 -->
<g id="Node000012" class="node">
<title>Node12</title>
<g id="a_Node000012"><a xlink:href="classsensesp_1_1_file_system_saveable.html#a79b2e2e657112851dfda8785d217578a" target="_top" xlink:title="Load and populate the object from a persistent storage.">
<polygon fill="white" stroke="#666666" points="636.25,-76.5 487.5,-76.5 487.5,-46 636.25,-46 636.25,-76.5"/>
<text xml:space="preserve" text-anchor="start" x="495.5" y="-63" font-family="Helvetica,sans-Serif" font-size="10.00">sensesp::FileSystemSaveable</text>
<text xml:space="preserve" text-anchor="middle" x="561.88" y="-51.75" font-family="Helvetica,sans-Serif" font-size="10.00">::load</text>
</a>
</g>
</g>
<!-- Node5&#45;&gt;Node12 -->
<g id="edge14_Node000005_Node000012" class="edge">
<title>Node5&#45;&gt;Node12</title>
<g id="a_edge14_Node000005_Node000012"><a xlink:title=" ">
<path fill="none" stroke="#63b8ff" d="M413.88,-118.71C434.65,-108.88 462.41,-96.2 487.5,-86.25 492.13,-84.41 496.95,-82.59 501.82,-80.81"/>
<polygon fill="#63b8ff" stroke="#63b8ff" points="502.82,-84.16 511.05,-77.5 500.46,-77.57 502.82,-84.16"/>
</a>
</g>
</g>
<!-- Node7 -->
<g id="Node000007" class="node">
<title>Node7</title>
<g id="a_Node000007"><a xlink:href="classsensesp_1_1_sens_e_s_p_base_app.html#a28c20eed17bfc460e6686a11c5b3b107" target="_top" xlink:title="Get the event loop object from the singleton SensESPBaseApp instance.">
<polygon fill="white" stroke="#666666" points="817.25,-217.5 676,-217.5 676,-187 817.25,-187 817.25,-217.5"/>
<text xml:space="preserve" text-anchor="start" x="684" y="-204" font-family="Helvetica,sans-Serif" font-size="10.00">sensesp::SensESPBaseApp</text>
<text xml:space="preserve" text-anchor="middle" x="746.62" y="-192.75" font-family="Helvetica,sans-Serif" font-size="10.00">::get_event_loop</text>
</a>
</g>
</g>
<!-- Node6&#45;&gt;Node7 -->
<g id="edge8_Node000006_Node000007" class="edge">
<title>Node6&#45;&gt;Node7</title>
<g id="a_edge8_Node000006_Node000007"><a xlink:title=" ">
<path fill="none" stroke="#63b8ff" d="M615.24,-202.25C630.5,-202.25 647.54,-202.25 664.14,-202.25"/>
<polygon fill="#63b8ff" stroke="#63b8ff" points="664.02,-205.75 674.02,-202.25 664.02,-198.75 664.02,-205.75"/>
</a>
</g>
</g>
<!-- Node8 -->
<g id="Node000008" class="node">
<title>Node8</title>
<g id="a_Node000008"><a xlink:href="classsensesp_1_1_sens_e_s_p_base_app.html#add2c67bb55d095ab9c64f44ab2e82612" target="_top" xlink:title="Get the singleton instance of the SensESPBaseApp.">
<polygon fill="white" stroke="#666666" points="1017.75,-165.88 857,-165.88 857,-146.62 1017.75,-146.62 1017.75,-165.88"/>
<text xml:space="preserve" text-anchor="middle" x="937.38" y="-152.38" font-family="Helvetica,sans-Serif" font-size="10.00">sensesp::SensESPBaseApp::get</text>
</a>
</g>
</g>
<!-- Node7&#45;&gt;Node8 -->
<g id="edge9_Node000007_Node000008" class="edge">
<title>Node7&#45;&gt;Node8</title>
<g id="a_edge9_Node000007_Node000008"><a xlink:title=" ">
<path fill="none" stroke="#63b8ff" d="M812.05,-186.55C835.53,-180.83 861.77,-174.43 884.07,-169"/>
<polygon fill="#63b8ff" stroke="#63b8ff" points="884.65,-172.46 893.53,-166.69 882.99,-165.66 884.65,-172.46"/>
</a>
</g>
</g>
<!-- Node10 -->
<g id="Node000010" class="node">
<title>Node10</title>
<g id="a_Node000010"><a xlink:href="classsensesp_1_1_saveable.html#abaa7864f4f35be033ad5f32a379051d7" target="_top" xlink:title=" ">
<polygon fill="white" stroke="#666666" points="799.25,-168.5 694,-168.5 694,-138 799.25,-138 799.25,-168.5"/>
<text xml:space="preserve" text-anchor="start" x="702" y="-155" font-family="Helvetica,sans-Serif" font-size="10.00">sensesp::Saveable::</text>
<text xml:space="preserve" text-anchor="middle" x="746.62" y="-143.75" font-family="Helvetica,sans-Serif" font-size="10.00">Saveable</text>
</a>
</g>
</g>
<!-- Node9&#45;&gt;Node10 -->
<g id="edge11_Node000009_Node000010" class="edge">
<title>Node9&#45;&gt;Node10</title>
<g id="a_edge11_Node000009_Node000010"><a xlink:title=" ">
<path fill="none" stroke="#63b8ff" d="M636.68,-156.83C651.92,-156.33 667.83,-155.8 682.64,-155.32"/>
<polygon fill="#63b8ff" stroke="#63b8ff" points="682.32,-158.83 692.2,-155 682.09,-151.83 682.32,-158.83"/>
</a>
</g>
</g>
<!-- Node11&#45;&gt;Node8 -->
<g id="edge13_Node000011_Node000008" class="edge">
<title>Node11&#45;&gt;Node8</title>
<g id="a_edge13_Node000011_Node000008"><a xlink:title=" ">
<path fill="none" stroke="#63b8ff" d="M632.77,-112.44C684.89,-114.78 757.7,-119.57 821,-129.25 843.48,-132.69 868.05,-138.19 888.72,-143.33"/>
<polygon fill="#63b8ff" stroke="#63b8ff" points="887.75,-146.69 898.3,-145.76 889.47,-139.91 887.75,-146.69"/>
</a>
</g>
</g>
<!-- Node13 -->
<g id="Node000013" class="node">
<title>Node13</title>
<g id="a_Node000013"><a xlink:href="classsensesp_1_1_file_system_saveable.html#ad0233f7895b5c8915108399420c7cf0b" target="_top" xlink:title=" ">
<polygon fill="white" stroke="#666666" points="821,-79.5 672.25,-79.5 672.25,-49 821,-49 821,-79.5"/>
<text xml:space="preserve" text-anchor="start" x="680.25" y="-66" font-family="Helvetica,sans-Serif" font-size="10.00">sensesp::FileSystemSaveable</text>
<text xml:space="preserve" text-anchor="middle" x="746.62" y="-54.75" font-family="Helvetica,sans-Serif" font-size="10.00">::find_config_file</text>
</a>
</g>
</g>
<!-- Node12&#45;&gt;Node13 -->
<g id="edge15_Node000012_Node000013" class="edge">
<title>Node12&#45;&gt;Node13</title>
<g id="a_edge15_Node000012_Node000013"><a xlink:title=" ">
<path fill="none" stroke="#63b8ff" d="M636.68,-62.46C644.47,-62.59 652.43,-62.72 660.33,-62.85"/>
<polygon fill="#63b8ff" stroke="#63b8ff" points="660.27,-66.35 670.33,-63.01 660.39,-59.35 660.27,-66.35"/>
</a>
</g>
</g>
<!-- Node16 -->
<g id="Node000016" class="node">
<title>Node16</title>
<g id="a_Node000016"><a xlink:href="classsensesp_1_1_serializable.html#a841233a82ef3a7fbcecd5a15b0df12d2" target="_top" xlink:title=" ">
<polygon fill="white" stroke="#666666" points="801.12,-30.5 692.12,-30.5 692.12,0 801.12,0 801.12,-30.5"/>
<text xml:space="preserve" text-anchor="start" x="700.12" y="-17" font-family="Helvetica,sans-Serif" font-size="10.00">sensesp::Serializable</text>
<text xml:space="preserve" text-anchor="middle" x="746.62" y="-5.75" font-family="Helvetica,sans-Serif" font-size="10.00">::from_json</text>
</a>
</g>
</g>
<!-- Node12&#45;&gt;Node16 -->
<g id="edge18_Node000012_Node000016" class="edge">
<title>Node12&#45;&gt;Node16</title>
<g id="a_edge18_Node000012_Node000016"><a xlink:title=" ">
<path fill="none" stroke="#63b8ff" d="M625.26,-45.55C643.15,-41.04 662.7,-36.12 680.75,-31.58"/>
<polygon fill="#63b8ff" stroke="#63b8ff" points="681.45,-35.01 690.29,-29.18 679.74,-28.23 681.45,-35.01"/>
</a>
</g>
</g>
<!-- Node14 -->
<g id="Node000014" class="node">
<title>Node14</title>
<g id="a_Node000014"><a xlink:href="namespacesensesp.html#adad24461f43358c45017cf1cb816ca60" target="_top" xlink:title="A base64&#45;encoded SHA&#45;1 hash function.">
<polygon fill="white" stroke="#666666" points="994.5,-73.88 880.25,-73.88 880.25,-54.62 994.5,-54.62 994.5,-73.88"/>
<text xml:space="preserve" text-anchor="middle" x="937.38" y="-60.38" font-family="Helvetica,sans-Serif" font-size="10.00">sensesp::Base64Sha1</text>
</a>
</g>
</g>
<!-- Node13&#45;&gt;Node14 -->
<g id="edge16_Node000013_Node000014" class="edge">
<title>Node13&#45;&gt;Node14</title>
<g id="a_edge16_Node000013_Node000014"><a xlink:title=" ">
<path fill="none" stroke="#63b8ff" d="M821.41,-64.25C836.9,-64.25 853.17,-64.25 868.43,-64.25"/>
<polygon fill="#63b8ff" stroke="#63b8ff" points="868.37,-67.75 878.37,-64.25 868.37,-60.75 868.37,-67.75"/>
</a>
</g>
</g>
<!-- Node15 -->
<g id="Node000015" class="node">
<title>Node15</title>
<g id="a_Node000015"><a xlink:href="namespacesensesp.html#a37dfeb5f75b7115464a9aa40473d69cf" target="_top" xlink:title="SHA&#45;1 hash function.">
<polygon fill="white" stroke="#666666" points="1135,-73.88 1053.75,-73.88 1053.75,-54.62 1135,-54.62 1135,-73.88"/>
<text xml:space="preserve" text-anchor="middle" x="1094.38" y="-60.38" font-family="Helvetica,sans-Serif" font-size="10.00">sensesp::Sha1</text>
</a>
</g>
</g>
<!-- Node14&#45;&gt;Node15 -->
<g id="edge17_Node000014_Node000015" class="edge">
<title>Node14&#45;&gt;Node15</title>
<g id="a_edge17_Node000014_Node000015"><a xlink:title=" ">
<path fill="none" stroke="#63b8ff" d="M994.77,-64.25C1010.22,-64.25 1026.89,-64.25 1042.04,-64.25"/>
<polygon fill="#63b8ff" stroke="#63b8ff" points="1041.77,-67.75 1051.77,-64.25 1041.77,-60.75 1041.77,-67.75"/>
</a>
</g>
</g>
</g>
</svg>

<g id="navigator" transform="translate(0 0)" fill="#404254">
  <rect fill="#f2f5e9" fill-opacity="0.5" stroke="#606060" stroke-width=".5" x="0" y="0" width="60" height="60"/>
  <use id="zoomplus" xlink:href="#zoomPlus" x="17" y="9" onmousedown="handleZoom(evt,'in')"/>
  <use id="zoomminus" xlink:href="#zoomMin" x="42" y="9" onmousedown="handleZoom(evt,'out')"/>
  <use id="reset" xlink:href="#resetDef" x="30" y="36" onmousedown="handleReset()"/>
   <use id="arrowup" xlink:href="#arrowUp" x="0" y="0" onmousedown="handlePan(0,-1)"/>
  <use id="arrowright" xlink:href="#arrowRight" x="0" y="0" onmousedown="handlePan(1,0)"/>
  <use id="arrowdown" xlink:href="#arrowDown" x="0" y="0" onmousedown="handlePan(0,1)"/>
  <use id="arrowleft" xlink:href="#arrowLeft" x="0" y="0" onmousedown="handlePan(-1,0)"/>
</g>
<svg viewBox="0 0 15 15" width="100%" height="30px" preserveAspectRatio="xMaxYMin meet">
 <g id="arrow_out" transform="scale(0.3 0.3)">
  <a xlink:href="classsensesp_1_1_h_t_t_p_server_a09f55d0afb8ff4d4c5f552db5fc6ee1a_cgraph_org.svg" target="_base">
   <rect id="button" ry="5" rx="5" y="6" x="6" height="38" width="38"
        fill="#f2f5e9" fill-opacity="0.5" stroke="#606060" stroke-width="1.0"/>
   <path id="arrow"
     d="M 11.500037,31.436501 C 11.940474,20.09759 22.043105,11.32322 32.158766,21.979434 L 37.068811,17.246167 C 37.068811,17.246167 37.088388,32 37.088388,32 L 22.160133,31.978069 C 22.160133,31.978069 26.997745,27.140456 26.997745,27.140456 C 18.528582,18.264221 13.291696,25.230495 11.500037,31.436501 z"
     style="fill:#404040;"/>
  </a>
 </g>
</svg>

<style type='text/css'>
<![CDATA[
[data-mouse-over-selected='false'] { opacity: 0.7; }
[data-mouse-over-selected='true']  { opacity: 1.0; }
]]>
</style>
<script type="application/ecmascript"><![CDATA[
document.addEventListener('DOMContentLoaded', (event) => {
  highlightEdges();
  highlightAdjacentNodes();
});
]]></script>
</svg>
