<?xml version="1.0" encoding="UTF-8" standalone="no"?>
<!DOCTYPE svg PUBLIC "-//W3C//DTD SVG 1.1//EN"
 "http://www.w3.org/Graphics/SVG/1.1/DTD/svg11.dtd">
<!-- Generated by graphviz version 2.44.1 (20200629.0846)
 -->
<!-- Title: NumericThreshold Pages: 1 -->
<!--zoomable 252 -->
<svg id="main" version="1.1" xmlns="http://www.w3.org/2000/svg" xmlns:xlink="http://www.w3.org/1999/xlink" xml:space="preserve" onload="init(evt)">
<style type="text/css"><![CDATA[
.edge:hover path { stroke: red; }
.edge:hover polygon { stroke: red; fill: red; }
]]></style>
<script type="text/javascript"><![CDATA[
var edges = document.getElementsByTagName('g');
if (edges && edges.length) {
  for (var i=0;i<edges.length;i++) {
    if (edges[i].id.substr(0,4)=='edge') {
      edges[i].setAttribute('class','edge');
    }
  }
}
]]></script>
        <defs>
                <circle id="rim" cx="0" cy="0" r="7"/>
                <circle id="rim2" cx="0" cy="0" r="3.5"/>
                <g id="zoomPlus">
                        <use xlink:href="#rim" fill="#404040">
                                <set attributeName="fill" to="#808080" begin="zoomplus.mouseover" end="zoomplus.mouseout"/>
                        </use>
                        <path d="M-4,0h8M0,-4v8" fill="none" stroke="white" stroke-width="1.5" pointer-events="none"/>
                </g>
                <g id="zoomMin">
                        <use xlink:href="#rim" fill="#404040">
                                <set attributeName="fill" to="#808080" begin="zoomminus.mouseover" end="zoomminus.mouseout"/>
                        </use>
                        <path d="M-4,0h8" fill="none" stroke="white" stroke-width="1.5" pointer-events="none"/>
                </g>
                <g id="dirArrow">
                        <path fill="none" stroke="white" stroke-width="1.5" d="M0,-3.0v7 M-2.5,-0.5L0,-3.0L2.5,-0.5"/>
                </g>
               <g id="resetDef">
                       <use xlink:href="#rim2" fill="#404040">
                               <set attributeName="fill" to="#808080" begin="reset.mouseover" end="reset.mouseout"/>
                       </use>
               </g>
        </defs>

<script type="text/javascript">
var viewWidth = 1229;
var viewHeight = 252;
var sectionId = 'dynsection-0';
</script>
<script xlink:href="svgpan.js"/>
<svg id="graph" class="graph">
<g id="viewport">
<title>NumericThreshold</title>
<polygon fill="white" stroke="transparent" points="-4,4 -4,-248 1225,-248 1225,4 -4,4"/>
<!-- Node0 -->
<g id="node1" class="node">
<title>Node0</title>
<g id="a_node1"><a xlink:title="A Transform that translates a float value into a boolean value. min_value and MaxValue set a range....">
<polygon fill="#bfbfbf" stroke="black" points="1125,-110.5 1125,-129.5 1221,-129.5 1221,-110.5 1125,-110.5"/>
<text text-anchor="middle" x="1173" y="-117.5" font-family="Helvetica,sans-Serif" font-size="10.00">NumericThreshold</text>
</a>
</g>
</g>
<!-- Node1 -->
<g id="node2" class="node">
<title>Node1</title>
<g id="a_node2"><a xlink:href="class_threshold_transform.html" target="_top" xlink:title=" ">
<polygon fill="white" stroke="black" points="984,-105 984,-135 1088,-135 1088,-105 984,-105"/>
<text text-anchor="start" x="992" y="-123" font-family="Helvetica,sans-Serif" font-size="10.00">ThresholdTransform</text>
<text text-anchor="middle" x="1036" y="-112" font-family="Helvetica,sans-Serif" font-size="10.00">&lt; float, bool &gt;</text>
</a>
</g>
</g>
<!-- Node1&#45;&gt;Node0 -->
<g id="edge1" class="edge">
<title>Node1&#45;&gt;Node0</title>
<path fill="none" stroke="midnightblue" d="M1098.09,-120C1107.09,-120 1116.24,-120 1124.89,-120"/>
<polygon fill="midnightblue" stroke="midnightblue" points="1098.04,-116.5 1088.04,-120 1098.04,-123.5 1098.04,-116.5"/>
</g>
<!-- Node2 -->
<g id="node3" class="node">
<title>Node2</title>
<g id="a_node3"><a xlink:href="class_transform.html" target="_top" xlink:title=" ">
<polygon fill="white" stroke="black" points="762,-130.5 762,-149.5 884,-149.5 884,-130.5 762,-130.5"/>
<text text-anchor="middle" x="823" y="-137.5" font-family="Helvetica,sans-Serif" font-size="10.00">Transform&lt; float, bool &gt;</text>
</a>
</g>
</g>
<!-- Node2&#45;&gt;Node1 -->
<g id="edge2" class="edge">
<title>Node2&#45;&gt;Node1</title>
<path fill="none" stroke="midnightblue" d="M894.33,-133.33C923.55,-130.56 956.82,-127.41 983.68,-124.86"/>
<polygon fill="midnightblue" stroke="midnightblue" points="893.81,-129.87 884.18,-134.3 894.47,-136.84 893.81,-129.87"/>
</g>
<!-- Node3 -->
<g id="node4" class="node">
<title>Node3</title>
<g id="a_node4"><a xlink:href="class_transform_base.html" target="_top" xlink:title="The base class for all transforms. All transforms are can be subscribed to by calling attach() (inher...">
<polygon fill="white" stroke="black" points="305.5,-40.5 305.5,-59.5 388.5,-59.5 388.5,-40.5 305.5,-40.5"/>
<text text-anchor="middle" x="347" y="-47.5" font-family="Helvetica,sans-Serif" font-size="10.00">TransformBase</text>
</a>
</g>
</g>
<!-- Node3&#45;&gt;Node2 -->
<g id="edge3" class="edge">
<title>Node3&#45;&gt;Node2</title>
<path fill="none" stroke="midnightblue" d="M398.63,-52.51C438.58,-54.99 495.62,-59.67 545,-68 635.03,-83.18 655.83,-95.3 744,-119 757.95,-122.75 773.3,-126.88 786.67,-130.48"/>
<polygon fill="midnightblue" stroke="midnightblue" points="398.79,-49.01 388.6,-51.91 398.37,-56 398.79,-49.01"/>
</g>
<!-- Node11 -->
<g id="node12" class="node">
<title>Node11</title>
<g id="a_node12"><a xlink:href="class_transform.html" target="_top" xlink:title="The main Transform class. A transform is identified primarily by the type of value that is produces (...">
<polygon fill="white" stroke="black" points="563,-106.5 563,-125.5 662,-125.5 662,-106.5 563,-106.5"/>
<text text-anchor="middle" x="612.5" y="-113.5" font-family="Helvetica,sans-Serif" font-size="10.00">Transform&lt; C, P &gt;</text>
</a>
</g>
</g>
<!-- Node3&#45;&gt;Node11 -->
<g id="edge13" class="edge">
<title>Node3&#45;&gt;Node11</title>
<path fill="none" stroke="midnightblue" d="M395.83,-61.98C446.84,-74.76 526.58,-94.73 573.48,-106.48"/>
<polygon fill="midnightblue" stroke="midnightblue" points="396.58,-58.56 386.03,-59.53 394.88,-65.35 396.58,-58.56"/>
</g>
<!-- Node4 -->
<g id="node5" class="node">
<title>Node4</title>
<g id="a_node5"><a xlink:href="class_configurable.html" target="_top" xlink:title="An object that is capable of having configuration data that can be set remotely using a RESTful API,...">
<polygon fill="white" stroke="black" points="122.5,-38.5 122.5,-57.5 193.5,-57.5 193.5,-38.5 122.5,-38.5"/>
<text text-anchor="middle" x="158" y="-45.5" font-family="Helvetica,sans-Serif" font-size="10.00">Configurable</text>
</a>
</g>
</g>
<!-- Node4&#45;&gt;Node3 -->
<g id="edge4" class="edge">
<title>Node4&#45;&gt;Node3</title>
<path fill="none" stroke="midnightblue" d="M203.79,-48.48C234.65,-48.81 275.32,-49.24 305.27,-49.56"/>
<polygon fill="midnightblue" stroke="midnightblue" points="203.77,-44.98 193.74,-48.37 203.7,-51.98 203.77,-44.98"/>
</g>
<!-- Node5 -->
<g id="node6" class="node">
<title>Node5</title>
<g id="a_node6"><a xlink:href="class_enable.html" target="_top" xlink:title="Classes that implement &quot;Enable&quot; will have their enable() method called automatically at startup when ...">
<polygon fill="white" stroke="black" points="134.5,-0.5 134.5,-19.5 181.5,-19.5 181.5,-0.5 134.5,-0.5"/>
<text text-anchor="middle" x="158" y="-7.5" font-family="Helvetica,sans-Serif" font-size="10.00">Enable</text>
</a>
</g>
</g>
<!-- Node5&#45;&gt;Node3 -->
<g id="edge5" class="edge">
<title>Node5&#45;&gt;Node3</title>
<path fill="none" stroke="midnightblue" d="M191.6,-16.97C223.19,-23.73 271.2,-34 305.29,-41.29"/>
<polygon fill="midnightblue" stroke="midnightblue" points="192.07,-13.49 181.56,-14.82 190.6,-20.34 192.07,-13.49"/>
</g>
<!-- Node6 -->
<g id="node7" class="node">
<title>Node6</title>
<g id="a_node7"><a xlink:href="class_value_consumer.html" target="_top" xlink:title=" ">
<polygon fill="white" stroke="black" points="423,-224.5 423,-243.5 545,-243.5 545,-224.5 423,-224.5"/>
<text text-anchor="middle" x="484" y="-231.5" font-family="Helvetica,sans-Serif" font-size="10.00">ValueConsumer&lt; float &gt;</text>
</a>
</g>
</g>
<!-- Node6&#45;&gt;Node2 -->
<g id="edge6" class="edge">
<title>Node6&#45;&gt;Node2</title>
<path fill="none" stroke="midnightblue" d="M539.22,-222.22C591.96,-210.34 674.12,-190.69 744,-169 762.49,-163.26 782.99,-155.59 798.34,-149.57"/>
<polygon fill="midnightblue" stroke="midnightblue" points="538.4,-218.82 529.4,-224.42 539.93,-225.65 538.4,-218.82"/>
</g>
<!-- Node7 -->
<g id="node8" class="node">
<title>Node7</title>
<g id="a_node8"><a xlink:href="class_value_consumer.html" target="_top" xlink:title="A base class for piece of code (like a transform) that accepts data for input. ValueConsumers can acc...">
<polygon fill="white" stroke="black" points="103,-221.5 103,-240.5 213,-240.5 213,-221.5 103,-221.5"/>
<text text-anchor="middle" x="158" y="-228.5" font-family="Helvetica,sans-Serif" font-size="10.00">ValueConsumer&lt; T &gt;</text>
</a>
</g>
</g>
<!-- Node7&#45;&gt;Node6 -->
<g id="edge7" class="edge">
<title>Node7&#45;&gt;Node6</title>
<path fill="none" stroke="orange" stroke-dasharray="5,2" d="M223.38,-231.6C281.42,-232.13 366.1,-232.92 422.81,-233.44"/>
<polygon fill="orange" stroke="orange" points="223.26,-228.09 213.23,-231.5 223.2,-235.09 223.26,-228.09"/>
<text text-anchor="middle" x="251" y="-234" font-family="Helvetica,sans-Serif" font-size="10.00"> &lt; float &gt;</text>
</g>
<!-- Node12 -->
<g id="node13" class="node">
<title>Node12</title>
<g id="a_node13"><a xlink:href="class_value_consumer.html" target="_top" xlink:title=" ">
<polygon fill="white" stroke="black" points="291.5,-191.5 291.5,-210.5 402.5,-210.5 402.5,-191.5 291.5,-191.5"/>
<text text-anchor="middle" x="347" y="-198.5" font-family="Helvetica,sans-Serif" font-size="10.00">ValueConsumer&lt; C &gt;</text>
</a>
</g>
</g>
<!-- Node7&#45;&gt;Node12 -->
<g id="edge15" class="edge">
<title>Node7&#45;&gt;Node12</title>
<path fill="none" stroke="orange" stroke-dasharray="5,2" d="M202.69,-219.03C211.98,-216.78 221.77,-214.63 231,-213 250.57,-209.55 272.2,-206.97 291.38,-205.11"/>
<polygon fill="orange" stroke="orange" points="201.7,-215.67 192.85,-221.49 203.4,-222.46 201.7,-215.67"/>
<text text-anchor="middle" x="251" y="-216" font-family="Helvetica,sans-Serif" font-size="10.00"> &lt; C &gt;</text>
</g>
<!-- Node8 -->
<g id="node9" class="node">
<title>Node8</title>
<g id="a_node9"><a xlink:href="class_value_producer.html" target="_top" xlink:title=" ">
<polygon fill="white" stroke="black" points="289,-145.5 289,-164.5 405,-164.5 405,-145.5 289,-145.5"/>
<text text-anchor="middle" x="347" y="-152.5" font-family="Helvetica,sans-Serif" font-size="10.00">ValueProducer&lt; bool &gt;</text>
</a>
</g>
</g>
<!-- Node8&#45;&gt;Node2 -->
<g id="edge8" class="edge">
<title>Node8&#45;&gt;Node2</title>
<path fill="none" stroke="midnightblue" d="M415.27,-152.87C507.78,-149.94 672.9,-144.72 761.63,-141.91"/>
<polygon fill="midnightblue" stroke="midnightblue" points="415.06,-149.38 405.18,-153.19 415.28,-156.37 415.06,-149.38"/>
</g>
<!-- Node9 -->
<g id="node10" class="node">
<title>Node9</title>
<g id="a_node10"><a xlink:href="class_observable.html" target="_top" xlink:title="A base class which allow observers to attach callbacks to themselves. The callbacks will be called wh...">
<polygon fill="white" stroke="black" points="0,-122.5 0,-141.5 66,-141.5 66,-122.5 0,-122.5"/>
<text text-anchor="middle" x="33" y="-129.5" font-family="Helvetica,sans-Serif" font-size="10.00">Observable</text>
</a>
</g>
</g>
<!-- Node9&#45;&gt;Node8 -->
<g id="edge9" class="edge">
<title>Node9&#45;&gt;Node8</title>
<path fill="none" stroke="midnightblue" d="M73.03,-144.28C82.74,-146.91 93.17,-149.38 103,-151 176.77,-163.19 196.27,-162.49 271,-160 276.74,-159.81 282.72,-159.54 288.69,-159.21"/>
<polygon fill="midnightblue" stroke="midnightblue" points="73.82,-140.87 63.25,-141.51 71.92,-147.6 73.82,-140.87"/>
</g>
<!-- Node10 -->
<g id="node11" class="node">
<title>Node10</title>
<g id="a_node11"><a xlink:href="class_value_producer.html" target="_top" xlink:title="A base class for any sensor or piece of code that outputs a value for consumption elsewhere.">
<polygon fill="white" stroke="black" points="106,-122.5 106,-141.5 210,-141.5 210,-122.5 106,-122.5"/>
<text text-anchor="middle" x="158" y="-129.5" font-family="Helvetica,sans-Serif" font-size="10.00">ValueProducer&lt; T &gt;</text>
</a>
</g>
</g>
<!-- Node9&#45;&gt;Node10 -->
<g id="edge11" class="edge">
<title>Node9&#45;&gt;Node10</title>
<path fill="none" stroke="midnightblue" d="M76.32,-132C85.84,-132 96.04,-132 105.87,-132"/>
<polygon fill="midnightblue" stroke="midnightblue" points="76.32,-128.5 66.32,-132 76.32,-135.5 76.32,-128.5"/>
</g>
<!-- Node13 -->
<g id="node14" class="node">
<title>Node13</title>
<g id="a_node14"><a xlink:href="class_value_producer.html" target="_top" xlink:title=" ">
<polygon fill="white" stroke="black" points="295,-106.5 295,-125.5 399,-125.5 399,-106.5 295,-106.5"/>
<text text-anchor="middle" x="347" y="-113.5" font-family="Helvetica,sans-Serif" font-size="10.00">ValueProducer&lt; P &gt;</text>
</a>
</g>
</g>
<!-- Node9&#45;&gt;Node13 -->
<g id="edge17" class="edge">
<title>Node9&#45;&gt;Node13</title>
<path fill="none" stroke="midnightblue" d="M71.58,-119.69C81.67,-116.92 92.66,-114.4 103,-113 168.64,-104.13 245.17,-107.27 294.54,-111.02"/>
<polygon fill="midnightblue" stroke="midnightblue" points="70.48,-116.36 61.84,-122.5 72.42,-123.09 70.48,-116.36"/>
</g>
<!-- Node10&#45;&gt;Node8 -->
<g id="edge10" class="edge">
<title>Node10&#45;&gt;Node8</title>
<path fill="none" stroke="orange" stroke-dasharray="5,2" d="M220.03,-139.51C242.11,-142.22 266.95,-145.28 288.7,-147.95"/>
<polygon fill="orange" stroke="orange" points="220.45,-136.03 210.1,-138.28 219.6,-142.98 220.45,-136.03"/>
<text text-anchor="middle" x="251" y="-148" font-family="Helvetica,sans-Serif" font-size="10.00"> &lt; bool &gt;</text>
</g>
<!-- Node10&#45;&gt;Node13 -->
<g id="edge18" class="edge">
<title>Node10&#45;&gt;Node13</title>
<path fill="none" stroke="orange" stroke-dasharray="5,2" d="M219.93,-121.28C223.67,-120.79 227.38,-120.36 231,-120 251.87,-117.91 274.97,-116.86 294.95,-116.35"/>
<polygon fill="orange" stroke="orange" points="219.45,-117.81 210.02,-122.65 220.41,-124.74 219.45,-117.81"/>
<text text-anchor="middle" x="251" y="-123" font-family="Helvetica,sans-Serif" font-size="10.00"> &lt; P &gt;</text>
</g>
<!-- Node11&#45;&gt;Node2 -->
<g id="edge12" class="edge">
<title>Node11&#45;&gt;Node2</title>
<path fill="none" stroke="orange" stroke-dasharray="5,2" d="M672.24,-122.04C694.7,-124.42 720.55,-127.24 744,-130 749.83,-130.69 755.9,-131.42 761.97,-132.18"/>
<polygon fill="orange" stroke="orange" points="672.49,-118.55 662.17,-120.98 671.75,-125.51 672.49,-118.55"/>
<text text-anchor="middle" x="712" y="-133" font-family="Helvetica,sans-Serif" font-size="10.00"> &lt; float, bool &gt;</text>
</g>
<!-- Node14 -->
<g id="node15" class="node">
<title>Node14</title>
<g id="a_node15"><a xlink:href="class_threshold_transform.html" target="_top" xlink:title="A Transform base class that translates the value of type C into value of type P. Base class for class...">
<polygon fill="white" stroke="black" points="771,-81 771,-111 875,-111 875,-81 771,-81"/>
<text text-anchor="start" x="779" y="-99" font-family="Helvetica,sans-Serif" font-size="10.00">ThresholdTransform</text>
<text text-anchor="middle" x="823" y="-88" font-family="Helvetica,sans-Serif" font-size="10.00">&lt; C, P &gt;</text>
</a>
</g>
</g>
<!-- Node11&#45;&gt;Node14 -->
<g id="edge20" class="edge">
<title>Node11&#45;&gt;Node14</title>
<path fill="none" stroke="midnightblue" d="M672.35,-110.35C703.34,-107.38 740.98,-103.77 770.75,-100.92"/>
<polygon fill="midnightblue" stroke="midnightblue" points="671.74,-106.9 662.12,-111.34 672.41,-113.87 671.74,-106.9"/>
</g>
<!-- Node12&#45;&gt;Node11 -->
<g id="edge14" class="edge">
<title>Node12&#45;&gt;Node11</title>
<path fill="none" stroke="midnightblue" d="M387.21,-188.35C440.37,-171.2 534.12,-140.96 581.83,-125.57"/>
<polygon fill="midnightblue" stroke="midnightblue" points="385.9,-185.1 377.46,-191.5 388.05,-191.76 385.9,-185.1"/>
</g>
<!-- Node13&#45;&gt;Node11 -->
<g id="edge16" class="edge">
<title>Node13&#45;&gt;Node11</title>
<path fill="none" stroke="midnightblue" d="M409.41,-116C456.11,-116 519.5,-116 562.75,-116"/>
<polygon fill="midnightblue" stroke="midnightblue" points="409.12,-112.5 399.12,-116 409.12,-119.5 409.12,-112.5"/>
</g>
<!-- Node14&#45;&gt;Node1 -->
<g id="edge19" class="edge">
<title>Node14&#45;&gt;Node1</title>
<path fill="none" stroke="orange" stroke-dasharray="5,2" d="M885.35,-102.87C910.37,-105.68 939.57,-108.98 966,-112 971.75,-112.66 977.77,-113.35 983.76,-114.04"/>
<polygon fill="orange" stroke="orange" points="885.6,-99.38 875.27,-101.74 884.82,-106.33 885.6,-99.38"/>
<text text-anchor="middle" x="934" y="-115" font-family="Helvetica,sans-Serif" font-size="10.00"> &lt; float, bool &gt;</text>
</g>
</g>
</svg>
        <g id="navigator" transform="translate(0 0)" fill="#404254">
                <rect fill="#f2f5e9" fill-opacity="0.5" stroke="#606060" stroke-width=".5" x="0" y="0" width="60" height="60"/>
                <use id="zoomplus" xlink:href="#zoomPlus" x="17" y="9" onmousedown="handleZoom(evt,'in')"/>
                <use id="zoomminus" xlink:href="#zoomMin" x="42" y="9" onmousedown="handleZoom(evt,'out')"/>
                <use id="reset" xlink:href="#resetDef" x="30" y="36" onmousedown="handleReset()"/>
                <g id="arrowUp" xlink:href="#dirArrow" transform="translate(30 24)" onmousedown="handlePan(0,-1)">
                  <use xlink:href="#rim" fill="#404040">
                        <set attributeName="fill" to="#808080" begin="arrowUp.mouseover" end="arrowUp.mouseout"/>
                  </use>
                  <path fill="none" stroke="white" stroke-width="1.5" d="M0,-3.0v7 M-2.5,-0.5L0,-3.0L2.5,-0.5"/>
                </g>
                <g id="arrowRight" xlink:href="#dirArrow" transform="rotate(90) translate(36 -43)" onmousedown="handlePan(1,0)">
                  <use xlink:href="#rim" fill="#404040">
                        <set attributeName="fill" to="#808080" begin="arrowRight.mouseover" end="arrowRight.mouseout"/>
                  </use>
                  <path fill="none" stroke="white" stroke-width="1.5" d="M0,-3.0v7 M-2.5,-0.5L0,-3.0L2.5,-0.5"/>
                </g>
                <g id="arrowDown" xlink:href="#dirArrow" transform="rotate(180) translate(-30 -48)" onmousedown="handlePan(0,1)">
                  <use xlink:href="#rim" fill="#404040">
                        <set attributeName="fill" to="#808080" begin="arrowDown.mouseover" end="arrowDown.mouseout"/>
                  </use>
                  <path fill="none" stroke="white" stroke-width="1.5" d="M0,-3.0v7 M-2.5,-0.5L0,-3.0L2.5,-0.5"/>
                </g>
                <g id="arrowLeft" xlink:href="#dirArrow" transform="rotate(270) translate(-36 17)" onmousedown="handlePan(-1,0)">
                  <use xlink:href="#rim" fill="#404040">
                        <set attributeName="fill" to="#808080" begin="arrowLeft.mouseover" end="arrowLeft.mouseout"/>
                  </use>
                  <path fill="none" stroke="white" stroke-width="1.5" d="M0,-3.0v7 M-2.5,-0.5L0,-3.0L2.5,-0.5"/>
                </g>
        </g>
        <svg viewBox="0 0 15 15" width="100%" height="30px" preserveAspectRatio="xMaxYMin meet">
         <g id="arrow_out" transform="scale(0.3 0.3)">
          <a xlink:href="class_numeric_threshold__inherit__graph_org.svg" target="_base">
           <rect id="button" ry="5" rx="5" y="6" x="6" height="38" width="38"
                fill="#f2f5e9" fill-opacity="0.5" stroke="#606060" stroke-width="1.0"/>
           <path id="arrow"
             d="M 11.500037,31.436501 C 11.940474,20.09759 22.043105,11.32322 32.158766,21.979434 L 37.068811,17.246167 C 37.068811,17.246167 37.088388,32 37.088388,32 L 22.160133,31.978069 C 22.160133,31.978069 26.997745,27.140456 26.997745,27.140456 C 18.528582,18.264221 13.291696,25.230495 11.500037,31.436501 z"
             style="fill:#404040;"/>
          </a>
         </g>
        </svg>
</svg>
