<?xml version="1.0" encoding="UTF-8" standalone="no"?>
<!DOCTYPE svg PUBLIC "-//W3C//DTD SVG 1.1//EN"
 "http://www.w3.org/Graphics/SVG/1.1/DTD/svg11.dtd">
<!-- Generated by graphviz version 2.44.1 (20200629.0846)
 -->
<!-- Title: Sensor Pages: 1 -->
<!--zoomable 674 -->
<svg id="main" version="1.1" xmlns="http://www.w3.org/2000/svg" xmlns:xlink="http://www.w3.org/1999/xlink" xml:space="preserve" onload="init(evt)">
<style type="text/css"><![CDATA[
.edge:hover path { stroke: red; }
.edge:hover polygon { stroke: red; fill: red; }
]]></style>
<script type="text/javascript"><![CDATA[
var edges = document.getElementsByTagName('g');
if (edges && edges.length) {
  for (var i=0;i<edges.length;i++) {
    if (edges[i].id.substr(0,4)=='edge') {
      edges[i].setAttribute('class','edge');
    }
  }
}
]]></script>
        <defs>
                <circle id="rim" cx="0" cy="0" r="7"/>
                <circle id="rim2" cx="0" cy="0" r="3.5"/>
                <g id="zoomPlus">
                        <use xlink:href="#rim" fill="#404040">
                                <set attributeName="fill" to="#808080" begin="zoomplus.mouseover" end="zoomplus.mouseout"/>
                        </use>
                        <path d="M-4,0h8M0,-4v8" fill="none" stroke="white" stroke-width="1.5" pointer-events="none"/>
                </g>
                <g id="zoomMin">
                        <use xlink:href="#rim" fill="#404040">
                                <set attributeName="fill" to="#808080" begin="zoomminus.mouseover" end="zoomminus.mouseout"/>
                        </use>
                        <path d="M-4,0h8" fill="none" stroke="white" stroke-width="1.5" pointer-events="none"/>
                </g>
                <g id="dirArrow">
                        <path fill="none" stroke="white" stroke-width="1.5" d="M0,-3.0v7 M-2.5,-0.5L0,-3.0L2.5,-0.5"/>
                </g>
               <g id="resetDef">
                       <use xlink:href="#rim2" fill="#404040">
                               <set attributeName="fill" to="#808080" begin="reset.mouseover" end="reset.mouseout"/>
                       </use>
               </g>
        </defs>

<script type="text/javascript">
var viewWidth = 658;
var viewHeight = 674;
var sectionId = 'dynsection-0';
</script>
<script xlink:href="svgpan.js"/>
<svg id="graph" class="graph">
<g id="viewport">
<title>Sensor</title>
<polygon fill="white" stroke="transparent" points="-4,4 -4,-670 654,-670 654,4 -4,4"/>
<!-- Node0 -->
<g id="node1" class="node">
<title>Node0</title>
<g id="a_node1"><a xlink:title=" ">
<polygon fill="#bfbfbf" stroke="black" points="107,-418.5 107,-437.5 154,-437.5 154,-418.5 107,-418.5"/>
<text text-anchor="middle" x="130.5" y="-425.5" font-family="Helvetica,sans-Serif" font-size="10.00">Sensor</text>
</a>
</g>
</g>
<!-- Node4 -->
<g id="node5" class="node">
<title>Node4</title>
<g id="a_node5"><a xlink:href="class_a_d_s1x15.html" target="_top" xlink:title="ADS1x15 represents an ADS1015 or ADS1115 Analog to Digital Converter.">
<polygon fill="white" stroke="black" points="191.5,-646.5 191.5,-665.5 322.5,-665.5 322.5,-646.5 191.5,-646.5"/>
<text text-anchor="middle" x="257" y="-653.5" font-family="Helvetica,sans-Serif" font-size="10.00">ADS1x15&lt; T_Ada_1x15 &gt;</text>
</a>
</g>
</g>
<!-- Node0&#45;&gt;Node4 -->
<g id="edge4" class="edge">
<title>Node0&#45;&gt;Node4</title>
<path fill="none" stroke="midnightblue" d="M131.06,-448.09C131.29,-489.41 137.83,-584.45 190,-637 193.86,-640.89 198.47,-644 203.43,-646.48"/>
<polygon fill="midnightblue" stroke="midnightblue" points="134.56,-447.97 131.13,-437.94 127.56,-447.92 134.56,-447.97"/>
</g>
<!-- Node5 -->
<g id="node6" class="node">
<title>Node5</title>
<g id="a_node6"><a xlink:href="class_b_m_e280.html" target="_top" xlink:title=" ">
<polygon fill="white" stroke="black" points="230,-608.5 230,-627.5 284,-627.5 284,-608.5 230,-608.5"/>
<text text-anchor="middle" x="257" y="-615.5" font-family="Helvetica,sans-Serif" font-size="10.00">BME280</text>
</a>
</g>
</g>
<!-- Node0&#45;&gt;Node5 -->
<g id="edge5" class="edge">
<title>Node0&#45;&gt;Node5</title>
<path fill="none" stroke="midnightblue" d="M132.53,-447.82C135.46,-483.3 146.73,-557.81 190,-599 200.71,-609.19 216.53,-613.97 230,-616.19"/>
<polygon fill="midnightblue" stroke="midnightblue" points="136.02,-447.5 131.84,-437.76 129.03,-447.98 136.02,-447.5"/>
</g>
<!-- Node6 -->
<g id="node7" class="node">
<title>Node6</title>
<g id="a_node7"><a xlink:href="class_b_m_p280.html" target="_top" xlink:title="BMP280 represents an ADAfruit or compatible BMP280 temperature &amp; pressure sensor.">
<polygon fill="white" stroke="black" points="230,-570.5 230,-589.5 284,-589.5 284,-570.5 230,-570.5"/>
<text text-anchor="middle" x="257" y="-577.5" font-family="Helvetica,sans-Serif" font-size="10.00">BMP280</text>
</a>
</g>
</g>
<!-- Node0&#45;&gt;Node6 -->
<g id="edge6" class="edge">
<title>Node0&#45;&gt;Node6</title>
<path fill="none" stroke="midnightblue" d="M134.77,-447.83C140.62,-476.92 155.63,-530.95 190,-561 200.95,-570.57 216.45,-575.34 229.68,-577.7"/>
<polygon fill="midnightblue" stroke="midnightblue" points="138.16,-446.88 132.9,-437.68 131.27,-448.15 138.16,-446.88"/>
</g>
<!-- Node7 -->
<g id="node8" class="node">
<title>Node7</title>
<g id="a_node8"><a xlink:href="class_dallas_temperature_sensors.html" target="_top" xlink:title=" ">
<polygon fill="white" stroke="black" points="190,-532.5 190,-551.5 324,-551.5 324,-532.5 190,-532.5"/>
<text text-anchor="middle" x="257" y="-539.5" font-family="Helvetica,sans-Serif" font-size="10.00">DallasTemperatureSensors</text>
</a>
</g>
</g>
<!-- Node0&#45;&gt;Node7 -->
<g id="edge7" class="edge">
<title>Node0&#45;&gt;Node7</title>
<path fill="none" stroke="midnightblue" d="M138.36,-447.14C147.08,-468.73 164.15,-503.37 190,-523 195.13,-526.89 201.03,-529.99 207.15,-532.45"/>
<polygon fill="midnightblue" stroke="midnightblue" points="141.6,-445.81 134.76,-437.72 135.06,-448.31 141.6,-445.81"/>
</g>
<!-- Node8 -->
<g id="node9" class="node">
<title>Node8</title>
<g id="a_node9"><a xlink:href="class_digital_input.html" target="_top" xlink:title="DigitalInput is the base class for reading a digital GPIO pin.">
<polygon fill="white" stroke="black" points="224,-494.5 224,-513.5 290,-513.5 290,-494.5 224,-494.5"/>
<text text-anchor="middle" x="257" y="-501.5" font-family="Helvetica,sans-Serif" font-size="10.00">DigitalInput</text>
</a>
</g>
</g>
<!-- Node0&#45;&gt;Node8 -->
<g id="edge8" class="edge">
<title>Node0&#45;&gt;Node8</title>
<path fill="none" stroke="midnightblue" d="M145.38,-445.56C156.27,-458.22 172.47,-474.81 190,-485 200.31,-490.99 212.64,-495.2 223.83,-498.11"/>
<polygon fill="midnightblue" stroke="midnightblue" points="147.82,-443.01 138.75,-437.55 142.43,-447.48 147.82,-443.01"/>
</g>
<!-- Node12 -->
<g id="node13" class="node">
<title>Node12</title>
<g id="a_node13"><a xlink:href="class_free_mem.html" target="_top" xlink:title=" ">
<polygon fill="white" stroke="black" points="228,-456.5 228,-475.5 286,-475.5 286,-456.5 228,-456.5"/>
<text text-anchor="middle" x="257" y="-463.5" font-family="Helvetica,sans-Serif" font-size="10.00">FreeMem</text>
</a>
</g>
</g>
<!-- Node0&#45;&gt;Node12 -->
<g id="edge12" class="edge">
<title>Node0&#45;&gt;Node12</title>
<path fill="none" stroke="midnightblue" d="M163.81,-438.71C172.31,-441.47 181.49,-444.39 190,-447 202.43,-450.81 216.24,-454.82 228,-458.16"/>
<polygon fill="midnightblue" stroke="midnightblue" points="164.82,-435.36 154.22,-435.58 162.64,-442.01 164.82,-435.36"/>
</g>
<!-- Node13 -->
<g id="node14" class="node">
<title>Node13</title>
<g id="a_node14"><a xlink:href="class_g_p_s_input.html" target="_top" xlink:title=" ">
<polygon fill="white" stroke="black" points="227.5,-418.5 227.5,-437.5 286.5,-437.5 286.5,-418.5 227.5,-418.5"/>
<text text-anchor="middle" x="257" y="-425.5" font-family="Helvetica,sans-Serif" font-size="10.00">GPSInput</text>
</a>
</g>
</g>
<!-- Node0&#45;&gt;Node13 -->
<g id="edge13" class="edge">
<title>Node0&#45;&gt;Node13</title>
<path fill="none" stroke="midnightblue" d="M164.09,-428C183.77,-428 208.6,-428 227.49,-428"/>
<polygon fill="midnightblue" stroke="midnightblue" points="164.05,-424.5 154.05,-428 164.05,-431.5 164.05,-424.5"/>
</g>
<!-- Node14 -->
<g id="node15" class="node">
<title>Node14</title>
<g id="a_node15"><a xlink:href="class_i_n_a219.html" target="_top" xlink:title=" ">
<polygon fill="white" stroke="black" points="232,-380.5 232,-399.5 282,-399.5 282,-380.5 232,-380.5"/>
<text text-anchor="middle" x="257" y="-387.5" font-family="Helvetica,sans-Serif" font-size="10.00">INA219</text>
</a>
</g>
</g>
<!-- Node0&#45;&gt;Node14 -->
<g id="edge14" class="edge">
<title>Node0&#45;&gt;Node14</title>
<path fill="none" stroke="midnightblue" d="M163.81,-417.29C172.31,-414.53 181.49,-411.61 190,-409 203.8,-404.78 219.29,-400.3 231.8,-396.75"/>
<polygon fill="midnightblue" stroke="midnightblue" points="162.64,-413.99 154.22,-420.42 164.82,-420.64 162.64,-413.99"/>
</g>
<!-- Node15 -->
<g id="node16" class="node">
<title>Node15</title>
<g id="a_node16"><a xlink:href="class_integer_sensor.html" target="_top" xlink:title=" ">
<polygon fill="white" stroke="black" points="218.5,-342.5 218.5,-361.5 295.5,-361.5 295.5,-342.5 218.5,-342.5"/>
<text text-anchor="middle" x="257" y="-349.5" font-family="Helvetica,sans-Serif" font-size="10.00">IntegerSensor</text>
</a>
</g>
</g>
<!-- Node0&#45;&gt;Node15 -->
<g id="edge15" class="edge">
<title>Node0&#45;&gt;Node15</title>
<path fill="none" stroke="midnightblue" d="M145.38,-410.44C156.27,-397.78 172.47,-381.19 190,-371 198.66,-365.97 208.74,-362.19 218.38,-359.39"/>
<polygon fill="midnightblue" stroke="midnightblue" points="142.43,-408.52 138.75,-418.45 147.82,-412.99 142.43,-408.52"/>
</g>
<!-- Node16 -->
<g id="node17" class="node">
<title>Node16</title>
<g id="a_node17"><a xlink:href="class_numeric_sensor.html" target="_top" xlink:title=" ">
<polygon fill="white" stroke="black" points="215,-304.5 215,-323.5 299,-323.5 299,-304.5 215,-304.5"/>
<text text-anchor="middle" x="257" y="-311.5" font-family="Helvetica,sans-Serif" font-size="10.00">NumericSensor</text>
</a>
</g>
</g>
<!-- Node0&#45;&gt;Node16 -->
<g id="edge16" class="edge">
<title>Node0&#45;&gt;Node16</title>
<path fill="none" stroke="midnightblue" d="M138.36,-408.86C147.08,-387.27 164.15,-352.63 190,-333 197.22,-327.52 205.97,-323.62 214.7,-320.84"/>
<polygon fill="midnightblue" stroke="midnightblue" points="135.06,-407.69 134.76,-418.28 141.6,-410.19 135.06,-407.69"/>
</g>
<!-- Node31 -->
<g id="node32" class="node">
<title>Node31</title>
<g id="a_node32"><a xlink:href="class_orientation9_d_o_f.html" target="_top" xlink:title=" ">
<polygon fill="white" stroke="black" points="212,-266.5 212,-285.5 302,-285.5 302,-266.5 212,-266.5"/>
<text text-anchor="middle" x="257" y="-273.5" font-family="Helvetica,sans-Serif" font-size="10.00">Orientation9DOF</text>
</a>
</g>
</g>
<!-- Node0&#45;&gt;Node31 -->
<g id="edge31" class="edge">
<title>Node0&#45;&gt;Node31</title>
<path fill="none" stroke="midnightblue" d="M134.77,-408.17C140.62,-379.08 155.63,-325.05 190,-295 196.19,-289.59 203.84,-285.71 211.71,-282.94"/>
<polygon fill="midnightblue" stroke="midnightblue" points="131.27,-407.85 132.9,-418.32 138.16,-409.12 131.27,-407.85"/>
</g>
<!-- Node32 -->
<g id="node33" class="node">
<title>Node32</title>
<g id="a_node33"><a xlink:href="class_s_h_t31.html" target="_top" xlink:title=" ">
<polygon fill="white" stroke="black" points="233.5,-228.5 233.5,-247.5 280.5,-247.5 280.5,-228.5 233.5,-228.5"/>
<text text-anchor="middle" x="257" y="-235.5" font-family="Helvetica,sans-Serif" font-size="10.00">SHT31</text>
</a>
</g>
</g>
<!-- Node0&#45;&gt;Node32 -->
<g id="edge32" class="edge">
<title>Node0&#45;&gt;Node32</title>
<path fill="none" stroke="midnightblue" d="M132.53,-408.18C135.46,-372.7 146.73,-298.19 190,-257 201.57,-245.98 219.11,-241.29 233.2,-239.33"/>
<polygon fill="midnightblue" stroke="midnightblue" points="129.03,-408.02 131.84,-418.24 136.02,-408.5 129.03,-408.02"/>
</g>
<!-- Node33 -->
<g id="node34" class="node">
<title>Node33</title>
<g id="a_node34"><a xlink:href="class_string_sensor.html" target="_top" xlink:title=" ">
<polygon fill="white" stroke="black" points="220.5,-95.5 220.5,-114.5 293.5,-114.5 293.5,-95.5 220.5,-95.5"/>
<text text-anchor="middle" x="257" y="-102.5" font-family="Helvetica,sans-Serif" font-size="10.00">StringSensor</text>
</a>
</g>
</g>
<!-- Node0&#45;&gt;Node33 -->
<g id="edge33" class="edge">
<title>Node0&#45;&gt;Node33</title>
<path fill="none" stroke="midnightblue" d="M135.36,-407.92C143.02,-370 161.89,-285.71 190,-219 207.23,-178.12 236.25,-133.73 249.29,-114.63"/>
<polygon fill="midnightblue" stroke="midnightblue" points="131.85,-407.63 133.34,-418.12 138.71,-408.99 131.85,-407.63"/>
</g>
<!-- Node1 -->
<g id="node2" class="node">
<title>Node1</title>
<g id="a_node2"><a xlink:href="class_observable.html" target="_top" xlink:title=" ">
<polygon fill="white" stroke="black" points="2.5,-456.5 2.5,-475.5 68.5,-475.5 68.5,-456.5 2.5,-456.5"/>
<text text-anchor="middle" x="35.5" y="-463.5" font-family="Helvetica,sans-Serif" font-size="10.00">Observable</text>
</a>
</g>
</g>
<!-- Node1&#45;&gt;Node0 -->
<g id="edge1" class="edge">
<title>Node1&#45;&gt;Node0</title>
<path fill="none" stroke="midnightblue" d="M69.47,-452.53C81.78,-447.5 95.48,-441.9 106.68,-437.32"/>
<polygon fill="midnightblue" stroke="midnightblue" points="67.9,-449.39 59.97,-456.41 70.55,-455.87 67.9,-449.39"/>
</g>
<!-- Node2 -->
<g id="node3" class="node">
<title>Node2</title>
<g id="a_node3"><a xlink:href="class_configurable.html" target="_top" xlink:title=" ">
<polygon fill="white" stroke="black" points="0,-418.5 0,-437.5 71,-437.5 71,-418.5 0,-418.5"/>
<text text-anchor="middle" x="35.5" y="-425.5" font-family="Helvetica,sans-Serif" font-size="10.00">Configurable</text>
</a>
</g>
</g>
<!-- Node2&#45;&gt;Node0 -->
<g id="edge2" class="edge">
<title>Node2&#45;&gt;Node0</title>
<path fill="none" stroke="midnightblue" d="M81.14,-428C90.1,-428 99.16,-428 106.97,-428"/>
<polygon fill="midnightblue" stroke="midnightblue" points="81.13,-424.5 71.13,-428 81.13,-431.5 81.13,-424.5"/>
</g>
<!-- Node3 -->
<g id="node4" class="node">
<title>Node3</title>
<g id="a_node4"><a xlink:href="class_enable.html" target="_top" xlink:title=" ">
<polygon fill="white" stroke="black" points="12,-380.5 12,-399.5 59,-399.5 59,-380.5 12,-380.5"/>
<text text-anchor="middle" x="35.5" y="-387.5" font-family="Helvetica,sans-Serif" font-size="10.00">Enable</text>
</a>
</g>
</g>
<!-- Node3&#45;&gt;Node0 -->
<g id="edge3" class="edge">
<title>Node3&#45;&gt;Node0</title>
<path fill="none" stroke="midnightblue" d="M68.32,-403C80.99,-408.18 95.29,-414.02 106.87,-418.75"/>
<polygon fill="midnightblue" stroke="midnightblue" points="69.59,-399.74 59.01,-399.2 66.95,-406.22 69.59,-399.74"/>
</g>
<!-- Node9 -->
<g id="node10" class="node">
<title>Node9</title>
<g id="a_node10"><a xlink:href="class_digital_input_change.html" target="_top" xlink:title="DigitalInputChange is meant to report when a digital pin changes its state.">
<polygon fill="white" stroke="black" points="373,-620.5 373,-639.5 473,-639.5 473,-620.5 373,-620.5"/>
<text text-anchor="middle" x="423" y="-627.5" font-family="Helvetica,sans-Serif" font-size="10.00">DigitalInputChange</text>
</a>
</g>
</g>
<!-- Node8&#45;&gt;Node9 -->
<g id="edge9" class="edge">
<title>Node8&#45;&gt;Node9</title>
<path fill="none" stroke="midnightblue" d="M299.9,-509.96C308.63,-512.78 317.23,-516.92 324,-523 355.45,-551.22 328.79,-582.51 360,-611 364.24,-614.87 369.25,-617.95 374.56,-620.41"/>
<polygon fill="midnightblue" stroke="midnightblue" points="300.64,-506.54 290.07,-507.31 298.81,-513.29 300.64,-506.54"/>
</g>
<!-- Node10 -->
<g id="node11" class="node">
<title>Node10</title>
<g id="a_node11"><a xlink:href="class_digital_input_counter.html" target="_top" xlink:title="DigitalInputCounter counts interrupts and reports the count every read_delay ms.">
<polygon fill="white" stroke="black" points="372.5,-582.5 372.5,-601.5 473.5,-601.5 473.5,-582.5 372.5,-582.5"/>
<text text-anchor="middle" x="423" y="-589.5" font-family="Helvetica,sans-Serif" font-size="10.00">DigitalInputCounter</text>
</a>
</g>
</g>
<!-- Node8&#45;&gt;Node10 -->
<g id="edge10" class="edge">
<title>Node8&#45;&gt;Node10</title>
<path fill="none" stroke="midnightblue" d="M299.94,-511.53C308.39,-514.26 316.85,-517.97 324,-523 346.39,-538.77 337.75,-557.04 360,-573 365.4,-576.87 371.6,-579.97 377.95,-582.44"/>
<polygon fill="midnightblue" stroke="midnightblue" points="300.7,-508.1 290.12,-508.75 298.79,-514.84 300.7,-508.1"/>
</g>
<!-- Node11 -->
<g id="node12" class="node">
<title>Node11</title>
<g id="a_node12"><a xlink:href="class_digital_input_state.html" target="_top" xlink:title="DigitalInputState reports the state of a digital pin every read_delay ms.">
<polygon fill="white" stroke="black" points="378.5,-544.5 378.5,-563.5 467.5,-563.5 467.5,-544.5 378.5,-544.5"/>
<text text-anchor="middle" x="423" y="-551.5" font-family="Helvetica,sans-Serif" font-size="10.00">DigitalInputState</text>
</a>
</g>
</g>
<!-- Node8&#45;&gt;Node11 -->
<g id="edge11" class="edge">
<title>Node8&#45;&gt;Node11</title>
<path fill="none" stroke="midnightblue" d="M300.12,-515.95C308.07,-518.25 316.3,-520.67 324,-523 347.06,-529.97 373.05,-538.21 392.47,-544.44"/>
<polygon fill="midnightblue" stroke="midnightblue" points="300.85,-512.52 290.28,-513.11 298.91,-519.24 300.85,-512.52"/>
</g>
<!-- Node17 -->
<g id="node18" class="node">
<title>Node17</title>
<g id="a_node18"><a xlink:href="class_a_d_s1x15_raw_value.html" target="_top" xlink:title=" ">
<polygon fill="white" stroke="black" points="364,-495 364,-525 482,-525 482,-495 364,-495"/>
<text text-anchor="start" x="372" y="-513" font-family="Helvetica,sans-Serif" font-size="10.00">ADS1x15RawValue&lt; T</text>
<text text-anchor="middle" x="423" y="-502" font-family="Helvetica,sans-Serif" font-size="10.00">_ads_1x15 &gt;</text>
</a>
</g>
</g>
<!-- Node16&#45;&gt;Node17 -->
<g id="edge17" class="edge">
<title>Node16&#45;&gt;Node17</title>
<path fill="none" stroke="midnightblue" d="M308.41,-322.24C314.22,-324.91 319.63,-328.41 324,-333 371.9,-383.25 314.74,-432.35 360,-485 363.33,-488.87 367.34,-492.15 371.71,-494.93"/>
<polygon fill="midnightblue" stroke="midnightblue" points="309.61,-318.95 299.02,-318.7 307.14,-325.5 309.61,-318.95"/>
</g>
<!-- Node19 -->
<g id="node20" class="node">
<title>Node19</title>
<g id="a_node20"><a xlink:href="class_analog_input.html" target="_top" xlink:title=" ">
<polygon fill="white" stroke="black" points="389,-456.5 389,-475.5 457,-475.5 457,-456.5 389,-456.5"/>
<text text-anchor="middle" x="423" y="-463.5" font-family="Helvetica,sans-Serif" font-size="10.00">AnalogInput</text>
</a>
</g>
</g>
<!-- Node16&#45;&gt;Node19 -->
<g id="edge19" class="edge">
<title>Node16&#45;&gt;Node19</title>
<path fill="none" stroke="midnightblue" d="M308.73,-322.83C314.36,-325.42 319.62,-328.73 324,-333 362.05,-370.09 322.27,-409.59 360,-447 367.75,-454.69 378.53,-459.28 388.93,-462.01"/>
<polygon fill="midnightblue" stroke="midnightblue" points="309.6,-319.42 299.01,-319.15 307.12,-325.97 309.6,-319.42"/>
</g>
<!-- Node20 -->
<g id="node21" class="node">
<title>Node20</title>
<g id="a_node21"><a xlink:href="class_b_m_e280_value.html" target="_top" xlink:title=" ">
<polygon fill="white" stroke="black" points="384,-418.5 384,-437.5 462,-437.5 462,-418.5 384,-418.5"/>
<text text-anchor="middle" x="423" y="-425.5" font-family="Helvetica,sans-Serif" font-size="10.00">BME280Value</text>
</a>
</g>
</g>
<!-- Node16&#45;&gt;Node20 -->
<g id="edge20" class="edge">
<title>Node16&#45;&gt;Node20</title>
<path fill="none" stroke="midnightblue" d="M308.62,-323.61C314.18,-326.07 319.46,-329.14 324,-333 352.48,-357.2 331.73,-384.56 360,-409 366.73,-414.82 375.21,-418.85 383.72,-421.65"/>
<polygon fill="midnightblue" stroke="midnightblue" points="309.67,-320.27 299.07,-320.05 307.22,-326.83 309.67,-320.27"/>
</g>
<!-- Node21 -->
<g id="node22" class="node">
<title>Node21</title>
<g id="a_node22"><a xlink:href="class_b_m_p280_value.html" target="_top" xlink:title="BMP280Value reads and outputs the specified value of a BMP280 sensor.">
<polygon fill="white" stroke="black" points="384,-380.5 384,-399.5 462,-399.5 462,-380.5 384,-380.5"/>
<text text-anchor="middle" x="423" y="-387.5" font-family="Helvetica,sans-Serif" font-size="10.00">BMP280Value</text>
</a>
</g>
</g>
<!-- Node16&#45;&gt;Node21 -->
<g id="edge21" class="edge">
<title>Node16&#45;&gt;Node21</title>
<path fill="none" stroke="midnightblue" d="M308.83,-325.59C314.12,-327.68 319.29,-330.13 324,-333 343.88,-345.09 340.23,-358.74 360,-371 367.27,-375.51 375.69,-379.01 383.93,-381.72"/>
<polygon fill="midnightblue" stroke="midnightblue" points="309.81,-322.23 299.21,-322.2 307.48,-328.83 309.81,-322.23"/>
</g>
<!-- Node22 -->
<g id="node23" class="node">
<title>Node22</title>
<g id="a_node23"><a xlink:href="class_i_n_a219_value.html" target="_top" xlink:title=" ">
<polygon fill="white" stroke="black" points="386,-342.5 386,-361.5 460,-361.5 460,-342.5 386,-342.5"/>
<text text-anchor="middle" x="423" y="-349.5" font-family="Helvetica,sans-Serif" font-size="10.00">INA219Value</text>
</a>
</g>
</g>
<!-- Node16&#45;&gt;Node22 -->
<g id="edge22" class="edge">
<title>Node16&#45;&gt;Node22</title>
<path fill="none" stroke="midnightblue" d="M309.38,-325.9C334.23,-331.66 363.47,-338.44 385.93,-343.64"/>
<polygon fill="midnightblue" stroke="midnightblue" points="309.92,-322.44 299.38,-323.59 308.34,-329.26 309.92,-322.44"/>
</g>
<!-- Node23 -->
<g id="node24" class="node">
<title>Node23</title>
<g id="a_node24"><a xlink:href="class_m_a_x31856_thermocouple.html" target="_top" xlink:title=" ">
<polygon fill="white" stroke="black" points="360,-304.5 360,-323.5 486,-323.5 486,-304.5 360,-304.5"/>
<text text-anchor="middle" x="423" y="-311.5" font-family="Helvetica,sans-Serif" font-size="10.00">MAX31856Thermocouple</text>
</a>
</g>
</g>
<!-- Node16&#45;&gt;Node23 -->
<g id="edge23" class="edge">
<title>Node16&#45;&gt;Node23</title>
<path fill="none" stroke="midnightblue" d="M309.58,-314C325.52,-314 343.26,-314 359.85,-314"/>
<polygon fill="midnightblue" stroke="midnightblue" points="309.38,-310.5 299.38,-314 309.38,-317.5 309.38,-310.5"/>
</g>
<!-- Node24 -->
<g id="node25" class="node">
<title>Node24</title>
<g id="a_node25"><a xlink:href="class_one_wire_temperature.html" target="_top" xlink:title=" ">
<polygon fill="white" stroke="black" points="368.5,-266.5 368.5,-285.5 477.5,-285.5 477.5,-266.5 368.5,-266.5"/>
<text text-anchor="middle" x="423" y="-273.5" font-family="Helvetica,sans-Serif" font-size="10.00">OneWireTemperature</text>
</a>
</g>
</g>
<!-- Node16&#45;&gt;Node24 -->
<g id="edge24" class="edge">
<title>Node16&#45;&gt;Node24</title>
<path fill="none" stroke="midnightblue" d="M309.34,-302.1C332.39,-296.76 359.22,-290.55 380.91,-285.52"/>
<polygon fill="midnightblue" stroke="midnightblue" points="308.34,-298.74 299.38,-304.41 309.92,-305.56 308.34,-298.74"/>
</g>
<!-- Node25 -->
<g id="node26" class="node">
<title>Node25</title>
<g id="a_node26"><a xlink:href="class_read9_d_o_f.html" target="_top" xlink:title=" ">
<polygon fill="white" stroke="black" points="390,-228.5 390,-247.5 456,-247.5 456,-228.5 390,-228.5"/>
<text text-anchor="middle" x="423" y="-235.5" font-family="Helvetica,sans-Serif" font-size="10.00">Read9DOF</text>
</a>
</g>
</g>
<!-- Node16&#45;&gt;Node25 -->
<g id="edge25" class="edge">
<title>Node16&#45;&gt;Node25</title>
<path fill="none" stroke="midnightblue" d="M308.83,-302.41C314.12,-300.32 319.29,-297.87 324,-295 343.88,-282.91 340.23,-269.26 360,-257 368.99,-251.42 379.74,-247.38 389.74,-244.5"/>
<polygon fill="midnightblue" stroke="midnightblue" points="307.48,-299.17 299.21,-305.8 309.81,-305.77 307.48,-299.17"/>
</g>
<!-- Node26 -->
<g id="node27" class="node">
<title>Node26</title>
<g id="a_node27"><a xlink:href="class_s_h_t31_value.html" target="_top" xlink:title=" ">
<polygon fill="white" stroke="black" points="387.5,-190.5 387.5,-209.5 458.5,-209.5 458.5,-190.5 387.5,-190.5"/>
<text text-anchor="middle" x="423" y="-197.5" font-family="Helvetica,sans-Serif" font-size="10.00">SHT31Value</text>
</a>
</g>
</g>
<!-- Node16&#45;&gt;Node26 -->
<g id="edge26" class="edge">
<title>Node16&#45;&gt;Node26</title>
<path fill="none" stroke="midnightblue" d="M308.62,-304.39C314.18,-301.93 319.46,-298.86 324,-295 352.48,-270.8 331.73,-243.44 360,-219 367.66,-212.37 377.6,-208.06 387.27,-205.25"/>
<polygon fill="midnightblue" stroke="midnightblue" points="307.22,-301.17 299.07,-307.95 309.67,-307.73 307.22,-301.17"/>
</g>
<!-- Node27 -->
<g id="node28" class="node">
<title>Node27</title>
<g id="a_node28"><a xlink:href="class_system_hz.html" target="_top" xlink:title=" ">
<polygon fill="white" stroke="black" points="391.5,-152.5 391.5,-171.5 454.5,-171.5 454.5,-152.5 391.5,-152.5"/>
<text text-anchor="middle" x="423" y="-159.5" font-family="Helvetica,sans-Serif" font-size="10.00">SystemHz</text>
</a>
</g>
</g>
<!-- Node16&#45;&gt;Node27 -->
<g id="edge27" class="edge">
<title>Node16&#45;&gt;Node27</title>
<path fill="none" stroke="midnightblue" d="M308.73,-305.17C314.36,-302.58 319.62,-299.27 324,-295 362.05,-257.91 322.27,-218.41 360,-181 368.39,-172.68 380.33,-167.99 391.5,-165.35"/>
<polygon fill="midnightblue" stroke="midnightblue" points="307.12,-302.03 299.01,-308.85 309.6,-308.58 307.12,-302.03"/>
</g>
<!-- Node28 -->
<g id="node29" class="node">
<title>Node28</title>
<g id="a_node29"><a xlink:href="class_ultrasonic_distance.html" target="_top" xlink:title=" ">
<polygon fill="white" stroke="black" points="373,-114.5 373,-133.5 473,-133.5 473,-114.5 373,-114.5"/>
<text text-anchor="middle" x="423" y="-121.5" font-family="Helvetica,sans-Serif" font-size="10.00">UltrasonicDistance</text>
</a>
</g>
</g>
<!-- Node16&#45;&gt;Node28 -->
<g id="edge28" class="edge">
<title>Node16&#45;&gt;Node28</title>
<path fill="none" stroke="midnightblue" d="M308.41,-305.76C314.22,-303.09 319.63,-299.59 324,-295 371.9,-244.75 312.53,-193.66 360,-143 363.62,-139.14 368,-136.06 372.74,-133.59"/>
<polygon fill="midnightblue" stroke="midnightblue" points="307.14,-302.5 299.02,-309.3 309.61,-309.05 307.14,-302.5"/>
</g>
<!-- Node29 -->
<g id="node30" class="node">
<title>Node29</title>
<g id="a_node30"><a xlink:href="class_uptime.html" target="_top" xlink:title=" ">
<polygon fill="white" stroke="black" points="399,-76.5 399,-95.5 447,-95.5 447,-76.5 399,-76.5"/>
<text text-anchor="middle" x="423" y="-83.5" font-family="Helvetica,sans-Serif" font-size="10.00">Uptime</text>
</a>
</g>
</g>
<!-- Node16&#45;&gt;Node29 -->
<g id="edge29" class="edge">
<title>Node16&#45;&gt;Node29</title>
<path fill="none" stroke="midnightblue" d="M308.61,-305.94C314.39,-303.24 319.73,-299.69 324,-295 381.88,-231.47 302.66,-169.03 360,-105 369.76,-94.1 385.6,-89.37 398.82,-87.35"/>
<polygon fill="midnightblue" stroke="midnightblue" points="307.34,-302.68 299.24,-309.51 309.83,-309.22 307.34,-302.68"/>
</g>
<!-- Node30 -->
<g id="node31" class="node">
<title>Node30</title>
<g id="a_node31"><a xlink:href="class_wifi_signal.html" target="_top" xlink:title=" ">
<polygon fill="white" stroke="black" points="392.5,-38.5 392.5,-57.5 453.5,-57.5 453.5,-38.5 392.5,-38.5"/>
<text text-anchor="middle" x="423" y="-45.5" font-family="Helvetica,sans-Serif" font-size="10.00">WifiSignal</text>
</a>
</g>
</g>
<!-- Node16&#45;&gt;Node30 -->
<g id="edge30" class="edge">
<title>Node16&#45;&gt;Node30</title>
<path fill="none" stroke="midnightblue" d="M308.53,-306.16C314.37,-303.44 319.75,-299.81 324,-295 391.92,-218.11 292.74,-144.46 360,-67 368.12,-57.65 380.71,-52.83 392.43,-50.37"/>
<polygon fill="midnightblue" stroke="midnightblue" points="307.16,-302.94 299.05,-309.76 309.64,-309.48 307.16,-302.94"/>
</g>
<!-- Node18 -->
<g id="node19" class="node">
<title>Node18</title>
<g id="a_node19"><a xlink:href="class_a_d_s1x15_voltage.html" target="_top" xlink:title="ADS1x15Voltage reads the raw output of the ADS1x15 (an integer between 0 and 32,768) and converts it ...">
<polygon fill="white" stroke="black" points="522,-495 522,-525 650,-525 650,-495 522,-495"/>
<text text-anchor="start" x="530" y="-513" font-family="Helvetica,sans-Serif" font-size="10.00">ADS1x15Voltage&lt; T_ads</text>
<text text-anchor="middle" x="586" y="-502" font-family="Helvetica,sans-Serif" font-size="10.00">_1x15 &gt;</text>
</a>
</g>
</g>
<!-- Node17&#45;&gt;Node18 -->
<g id="edge18" class="edge">
<title>Node17&#45;&gt;Node18</title>
<path fill="none" stroke="midnightblue" d="M492.23,-510C502.03,-510 512.09,-510 521.79,-510"/>
<polygon fill="midnightblue" stroke="midnightblue" points="492.12,-506.5 482.12,-510 492.12,-513.5 492.12,-506.5"/>
</g>
<!-- Node34 -->
<g id="node35" class="node">
<title>Node34</title>
<g id="a_node35"><a xlink:href="class_i_p_addr_dev.html" target="_top" xlink:title=" ">
<polygon fill="white" stroke="black" points="391.5,-0.5 391.5,-19.5 454.5,-19.5 454.5,-0.5 391.5,-0.5"/>
<text text-anchor="middle" x="423" y="-7.5" font-family="Helvetica,sans-Serif" font-size="10.00">IPAddrDev</text>
</a>
</g>
</g>
<!-- Node33&#45;&gt;Node34 -->
<g id="edge34" class="edge">
<title>Node33&#45;&gt;Node34</title>
<path fill="none" stroke="midnightblue" d="M275.93,-88.6C295.36,-71.6 327.91,-45.26 360,-29 369.74,-24.07 381,-20.14 391.23,-17.17"/>
<polygon fill="midnightblue" stroke="midnightblue" points="273.35,-86.22 268.21,-95.48 278,-91.44 273.35,-86.22"/>
</g>
</g>
</svg>
        <g id="navigator" transform="translate(0 0)" fill="#404254">
                <rect fill="#f2f5e9" fill-opacity="0.5" stroke="#606060" stroke-width=".5" x="0" y="0" width="60" height="60"/>
                <use id="zoomplus" xlink:href="#zoomPlus" x="17" y="9" onmousedown="handleZoom(evt,'in')"/>
                <use id="zoomminus" xlink:href="#zoomMin" x="42" y="9" onmousedown="handleZoom(evt,'out')"/>
                <use id="reset" xlink:href="#resetDef" x="30" y="36" onmousedown="handleReset()"/>
                <g id="arrowUp" xlink:href="#dirArrow" transform="translate(30 24)" onmousedown="handlePan(0,-1)">
                  <use xlink:href="#rim" fill="#404040">
                        <set attributeName="fill" to="#808080" begin="arrowUp.mouseover" end="arrowUp.mouseout"/>
                  </use>
                  <path fill="none" stroke="white" stroke-width="1.5" d="M0,-3.0v7 M-2.5,-0.5L0,-3.0L2.5,-0.5"/>
                </g>
                <g id="arrowRight" xlink:href="#dirArrow" transform="rotate(90) translate(36 -43)" onmousedown="handlePan(1,0)">
                  <use xlink:href="#rim" fill="#404040">
                        <set attributeName="fill" to="#808080" begin="arrowRight.mouseover" end="arrowRight.mouseout"/>
                  </use>
                  <path fill="none" stroke="white" stroke-width="1.5" d="M0,-3.0v7 M-2.5,-0.5L0,-3.0L2.5,-0.5"/>
                </g>
                <g id="arrowDown" xlink:href="#dirArrow" transform="rotate(180) translate(-30 -48)" onmousedown="handlePan(0,1)">
                  <use xlink:href="#rim" fill="#404040">
                        <set attributeName="fill" to="#808080" begin="arrowDown.mouseover" end="arrowDown.mouseout"/>
                  </use>
                  <path fill="none" stroke="white" stroke-width="1.5" d="M0,-3.0v7 M-2.5,-0.5L0,-3.0L2.5,-0.5"/>
                </g>
                <g id="arrowLeft" xlink:href="#dirArrow" transform="rotate(270) translate(-36 17)" onmousedown="handlePan(-1,0)">
                  <use xlink:href="#rim" fill="#404040">
                        <set attributeName="fill" to="#808080" begin="arrowLeft.mouseover" end="arrowLeft.mouseout"/>
                  </use>
                  <path fill="none" stroke="white" stroke-width="1.5" d="M0,-3.0v7 M-2.5,-0.5L0,-3.0L2.5,-0.5"/>
                </g>
        </g>
        <svg viewBox="0 0 15 15" width="100%" height="30px" preserveAspectRatio="xMaxYMin meet">
         <g id="arrow_out" transform="scale(0.3 0.3)">
          <a xlink:href="class_sensor__inherit__graph_org.svg" target="_base">
           <rect id="button" ry="5" rx="5" y="6" x="6" height="38" width="38"
                fill="#f2f5e9" fill-opacity="0.5" stroke="#606060" stroke-width="1.0"/>
           <path id="arrow"
             d="M 11.500037,31.436501 C 11.940474,20.09759 22.043105,11.32322 32.158766,21.979434 L 37.068811,17.246167 C 37.068811,17.246167 37.088388,32 37.088388,32 L 22.160133,31.978069 C 22.160133,31.978069 26.997745,27.140456 26.997745,27.140456 C 18.528582,18.264221 13.291696,25.230495 11.500037,31.436501 z"
             style="fill:#404040;"/>
          </a>
         </g>
        </svg>
</svg>
