<?xml version="1.0" encoding="UTF-8" standalone="no"?>
<!DOCTYPE svg PUBLIC "-//W3C//DTD SVG 1.1//EN"
 "http://www.w3.org/Graphics/SVG/1.1/DTD/svg11.dtd">
<!-- Generated by graphviz version 2.48.0 (20210717.1556)
 -->
<!-- Title: PressRepeater Pages: 1 -->
<!--zoomable 409 -->
<svg id="main" version="1.1" xmlns="http://www.w3.org/2000/svg" xmlns:xlink="http://www.w3.org/1999/xlink" xml:space="preserve" onload="init(evt)">
<style type="text/css"><![CDATA[
.edge:hover path { stroke: red; }
.edge:hover polygon { stroke: red; fill: red; }
]]></style>
<script type="text/javascript"><![CDATA[
var edges = document.getElementsByTagName('g');
if (edges && edges.length) {
  for (var i=0;i<edges.length;i++) {
    if (edges[i].id.substr(0,4)=='edge') {
      edges[i].setAttribute('class','edge');
    }
  }
}
]]></script>
        <defs>
                <circle id="rim" cx="0" cy="0" r="7"/>
                <circle id="rim2" cx="0" cy="0" r="3.5"/>
                <g id="zoomPlus">
                        <use xlink:href="#rim" fill="#404040">
                                <set attributeName="fill" to="#808080" begin="zoomplus.mouseover" end="zoomplus.mouseout"/>
                        </use>
                        <path d="M-4,0h8M0,-4v8" fill="none" stroke="white" stroke-width="1.5" pointer-events="none"/>
                </g>
                <g id="zoomMin">
                        <use xlink:href="#rim" fill="#404040">
                                <set attributeName="fill" to="#808080" begin="zoomminus.mouseover" end="zoomminus.mouseout"/>
                        </use>
                        <path d="M-4,0h8" fill="none" stroke="white" stroke-width="1.5" pointer-events="none"/>
                </g>
                <g id="dirArrow">
                        <path fill="none" stroke="white" stroke-width="1.5" d="M0,-3.0v7 M-2.5,-0.5L0,-3.0L2.5,-0.5"/>
                </g>
               <g id="resetDef">
                       <use xlink:href="#rim2" fill="#404040">
                               <set attributeName="fill" to="#808080" begin="reset.mouseover" end="reset.mouseout"/>
                       </use>
               </g>
        </defs>

<script type="text/javascript">
var viewWidth = 564;
var viewHeight = 409;
var sectionId = 'dynsection-0';
</script>
<script xlink:href="svgpan.js"/>
<svg id="graph" class="graph">
<g id="viewport">
<title>PressRepeater</title>
<polygon fill="white" stroke="transparent" points="-4,4 -4,-405 559.5,-405 559.5,4 -4,4"/>
<!-- Node1 -->
<g id="node1" class="node">
<title>Node1</title>
<g id="a_node1"><a xlink:title="A transform that takes boolean inputs and adds button behaviors familiar to many device end users.">
<polygon fill="#bfbfbf" stroke="black" points="60.5,-0.5 60.5,-19.5 143.5,-19.5 143.5,-0.5 60.5,-0.5"/>
<text text-anchor="middle" x="102" y="-7.5" font-family="Helvetica,sans-Serif" font-size="10.00">PressRepeater</text>
</a>
</g>
</g>
<!-- Node2 -->
<g id="node2" class="node">
<title>Node2</title>
<g id="a_node2"><a xlink:href="class_symmetric_transform.html" target="_top" xlink:title="A common type of transform that consumes, transforms, then outputs values of the same data type.">
<polygon fill="white" stroke="black" points="157,-57.5 157,-76.5 255,-76.5 255,-57.5 157,-57.5"/>
<text text-anchor="middle" x="206" y="-64.5" font-family="Helvetica,sans-Serif" font-size="10.00">BooleanTransform</text>
</a>
</g>
</g>
<!-- Node2&#45;&gt;Node1 -->
<g id="edge1" class="edge">
<title>Node2&#45;&gt;Node1</title>
<path fill="none" stroke="midnightblue" d="M180.81,-52.68C161.31,-42.36 134.88,-28.39 118.14,-19.53"/>
<polygon fill="midnightblue" stroke="midnightblue" points="179.27,-55.83 189.75,-57.41 182.55,-49.64 179.27,-55.83"/>
</g>
<!-- Node3 -->
<g id="node3" class="node">
<title>Node3</title>
<g id="a_node3"><a xlink:href="class_transform.html" target="_top" xlink:title=" ">
<polygon fill="white" stroke="black" points="229.5,-114.5 229.5,-133.5 324.5,-133.5 324.5,-114.5 229.5,-114.5"/>
<text text-anchor="middle" x="277" y="-121.5" font-family="Helvetica,sans-Serif" font-size="10.00">Transform&lt; T, T &gt;</text>
</a>
</g>
</g>
<!-- Node3&#45;&gt;Node2 -->
<g id="edge2" class="edge">
<title>Node3&#45;&gt;Node2</title>
<path fill="none" stroke="midnightblue" d="M257.63,-108C244.68,-97.96 228.08,-85.1 217.25,-76.71"/>
<polygon fill="midnightblue" stroke="midnightblue" points="255.86,-111.05 265.91,-114.41 260.14,-105.52 255.86,-111.05"/>
</g>
<!-- Node4 -->
<g id="node4" class="node">
<title>Node4</title>
<g id="a_node4"><a xlink:href="class_transform_base.html" target="_top" xlink:title="The base class for all transforms. A transforms takes a value in, transforms it in some way,...">
<polygon fill="white" stroke="black" points="429,-257.5 429,-276.5 513,-276.5 513,-257.5 429,-257.5"/>
<text text-anchor="middle" x="471" y="-264.5" font-family="Helvetica,sans-Serif" font-size="10.00">TransformBase</text>
</a>
</g>
</g>
<!-- Node4&#45;&gt;Node3 -->
<g id="edge3" class="edge">
<title>Node4&#45;&gt;Node3</title>
<path fill="none" stroke="midnightblue" d="M462.27,-248.25C452.49,-229.73 435.2,-200.69 414,-181 387.17,-156.08 347.76,-141.55 318.09,-133.57"/>
<polygon fill="midnightblue" stroke="midnightblue" points="459.24,-250.02 466.91,-257.33 465.48,-246.83 459.24,-250.02"/>
</g>
<!-- Node10 -->
<g id="node10" class="node">
<title>Node10</title>
<g id="a_node10"><a xlink:href="class_transform.html" target="_top" xlink:title="The main Transform class. A transform is identified primarily by the type of value that is produces (...">
<polygon fill="white" stroke="black" points="307,-181.5 307,-200.5 405,-200.5 405,-181.5 307,-181.5"/>
<text text-anchor="middle" x="356" y="-188.5" font-family="Helvetica,sans-Serif" font-size="10.00">Transform&lt; C, P &gt;</text>
</a>
</g>
</g>
<!-- Node4&#45;&gt;Node10 -->
<g id="edge10" class="edge">
<title>Node4&#45;&gt;Node10</title>
<path fill="none" stroke="midnightblue" d="M448.71,-251.66C425.13,-236.49 388.7,-213.04 369.27,-200.54"/>
<polygon fill="midnightblue" stroke="midnightblue" points="447.05,-254.75 457.36,-257.22 450.84,-248.87 447.05,-254.75"/>
</g>
<!-- Node5 -->
<g id="node5" class="node">
<title>Node5</title>
<g id="a_node5"><a xlink:href="class_configurable.html" target="_top" xlink:title="An object that is capable of having configuration data that can be set remotely using a RESTful API,...">
<polygon fill="white" stroke="black" points="482.5,-324.5 482.5,-343.5 555.5,-343.5 555.5,-324.5 482.5,-324.5"/>
<text text-anchor="middle" x="519" y="-331.5" font-family="Helvetica,sans-Serif" font-size="10.00">Configurable</text>
</a>
</g>
</g>
<!-- Node5&#45;&gt;Node4 -->
<g id="edge4" class="edge">
<title>Node5&#45;&gt;Node4</title>
<path fill="none" stroke="midnightblue" d="M506.38,-315.9C497.05,-303.27 484.74,-286.6 477.37,-276.63"/>
<polygon fill="midnightblue" stroke="midnightblue" points="503.77,-318.27 512.53,-324.23 509.4,-314.11 503.77,-318.27"/>
</g>
<!-- Node6 -->
<g id="node6" class="node">
<title>Node6</title>
<g id="a_node6"><a xlink:href="class_enable.html" target="_top" xlink:title="Classes that implement &quot;Enable&quot; will have their enable() method called automatically at startup when ...">
<polygon fill="white" stroke="black" points="416,-324.5 416,-343.5 464,-343.5 464,-324.5 416,-324.5"/>
<text text-anchor="middle" x="440" y="-331.5" font-family="Helvetica,sans-Serif" font-size="10.00">Enable</text>
</a>
</g>
</g>
<!-- Node6&#45;&gt;Node4 -->
<g id="edge5" class="edge">
<title>Node6&#45;&gt;Node4</title>
<path fill="none" stroke="midnightblue" d="M448.51,-315.16C454.49,-302.63 462.22,-286.41 466.89,-276.63"/>
<polygon fill="midnightblue" stroke="midnightblue" points="445.33,-313.7 444.18,-324.23 451.64,-316.71 445.33,-313.7"/>
</g>
<!-- Node7 -->
<g id="node7" class="node">
<title>Node7</title>
<g id="a_node7"><a xlink:href="class_value_consumer.html" target="_top" xlink:title="A base class for piece of code (like a transform) that accepts data for input. ValueConsumers can acc...">
<polygon fill="white" stroke="black" points="54,-324.5 54,-343.5 164,-343.5 164,-324.5 54,-324.5"/>
<text text-anchor="middle" x="109" y="-331.5" font-family="Helvetica,sans-Serif" font-size="10.00">ValueConsumer&lt; T &gt;</text>
</a>
</g>
</g>
<!-- Node7&#45;&gt;Node3 -->
<g id="edge6" class="edge">
<title>Node7&#45;&gt;Node3</title>
<path fill="none" stroke="midnightblue" d="M110.58,-314.08C112.63,-297.93 117.33,-274.59 128,-257 163.32,-198.8 232.51,-152 262.53,-133.53"/>
<polygon fill="midnightblue" stroke="midnightblue" points="107.06,-314.08 109.5,-324.39 114.02,-314.81 107.06,-314.08"/>
</g>
<!-- Node11 -->
<g id="node11" class="node">
<title>Node11</title>
<g id="a_node11"><a xlink:href="class_value_consumer.html" target="_top" xlink:title=" ">
<polygon fill="white" stroke="black" points="137,-257.5 137,-276.5 249,-276.5 249,-257.5 137,-257.5"/>
<text text-anchor="middle" x="193" y="-264.5" font-family="Helvetica,sans-Serif" font-size="10.00">ValueConsumer&lt; C &gt;</text>
</a>
</g>
</g>
<!-- Node7&#45;&gt;Node11 -->
<g id="edge12" class="edge">
<title>Node7&#45;&gt;Node11</title>
<path fill="none" stroke="orange" stroke-dasharray="5,2" d="M128.3,-318.07C144.88,-305.24 168.21,-287.19 181.85,-276.63"/>
<polygon fill="orange" stroke="orange" points="126.1,-315.35 120.33,-324.23 130.38,-320.88 126.1,-315.35"/>
<text text-anchor="middle" x="171" y="-298" font-family="Helvetica,sans-Serif" font-size="10.00"> &lt; C &gt;</text>
</g>
<!-- Node13 -->
<g id="node13" class="node">
<title>Node13</title>
<g id="a_node13"><a xlink:href="class_value_consumer.html" target="_top" xlink:title=" ">
<polygon fill="white" stroke="black" points="0,-219.5 0,-238.5 94,-238.5 94,-219.5 0,-219.5"/>
<text text-anchor="middle" x="47" y="-226.5" font-family="Helvetica,sans-Serif" font-size="10.00">IntegerConsumer</text>
</a>
</g>
</g>
<!-- Node7&#45;&gt;Node13 -->
<g id="edge17" class="edge">
<title>Node7&#45;&gt;Node13</title>
<path fill="none" stroke="orange" stroke-dasharray="5,2" d="M78.37,-319.28C72.92,-315.64 67.78,-311.24 64,-306 49.12,-285.39 46.93,-254.06 46.81,-238.88"/>
<polygon fill="orange" stroke="orange" points="76.65,-322.33 87.04,-324.36 80.19,-316.29 76.65,-322.33"/>
<text text-anchor="middle" x="79.5" y="-298" font-family="Helvetica,sans-Serif" font-size="10.00"> &lt; int &gt;</text>
</g>
<!-- Node8 -->
<g id="node8" class="node">
<title>Node8</title>
<g id="a_node8"><a xlink:href="class_value_producer.html" target="_top" xlink:title="A base class for any sensor or piece of code that outputs a value for consumption elsewhere.">
<polygon fill="white" stroke="black" points="224.5,-324.5 224.5,-343.5 329.5,-343.5 329.5,-324.5 224.5,-324.5"/>
<text text-anchor="middle" x="277" y="-331.5" font-family="Helvetica,sans-Serif" font-size="10.00">ValueProducer&lt; T &gt;</text>
</a>
</g>
</g>
<!-- Node8&#45;&gt;Node3 -->
<g id="edge7" class="edge">
<title>Node8&#45;&gt;Node3</title>
<path fill="none" stroke="midnightblue" d="M277,-314.3C277,-270.93 277,-164.82 277,-133.71"/>
<polygon fill="midnightblue" stroke="midnightblue" points="273.5,-314.33 277,-324.33 280.5,-314.33 273.5,-314.33"/>
</g>
<!-- Node12 -->
<g id="node12" class="node">
<title>Node12</title>
<g id="a_node12"><a xlink:href="class_value_producer.html" target="_top" xlink:title=" ">
<polygon fill="white" stroke="black" points="305,-257.5 305,-276.5 411,-276.5 411,-257.5 305,-257.5"/>
<text text-anchor="middle" x="358" y="-264.5" font-family="Helvetica,sans-Serif" font-size="10.00">ValueProducer&lt; P &gt;</text>
</a>
</g>
</g>
<!-- Node8&#45;&gt;Node12 -->
<g id="edge15" class="edge">
<title>Node8&#45;&gt;Node12</title>
<path fill="none" stroke="orange" stroke-dasharray="5,2" d="M292.27,-317.27C299.49,-310.15 308.41,-301.82 317,-295 325.41,-288.32 335.47,-281.68 343.53,-276.65"/>
<polygon fill="orange" stroke="orange" points="289.76,-314.83 285.19,-324.39 294.72,-319.77 289.76,-314.83"/>
<text text-anchor="middle" x="330.5" y="-298" font-family="Helvetica,sans-Serif" font-size="10.00"> &lt; P &gt;</text>
</g>
<!-- Node9 -->
<g id="node9" class="node">
<title>Node9</title>
<g id="a_node9"><a xlink:href="class_observable.html" target="_top" xlink:title="A base class which allow observers to attach callbacks to themselves. The callbacks will be called wh...">
<polygon fill="white" stroke="black" points="283,-381.5 283,-400.5 351,-400.5 351,-381.5 283,-381.5"/>
<text text-anchor="middle" x="317" y="-388.5" font-family="Helvetica,sans-Serif" font-size="10.00">Observable</text>
</a>
</g>
</g>
<!-- Node9&#45;&gt;Node8 -->
<g id="edge8" class="edge">
<title>Node9&#45;&gt;Node8</title>
<path fill="none" stroke="midnightblue" d="M304.81,-373.23C297.72,-363.49 289.09,-351.62 283.34,-343.71"/>
<polygon fill="midnightblue" stroke="midnightblue" points="302.04,-375.38 310.75,-381.41 307.7,-371.26 302.04,-375.38"/>
</g>
<!-- Node9&#45;&gt;Node12 -->
<g id="edge14" class="edge">
<title>Node9&#45;&gt;Node12</title>
<path fill="none" stroke="midnightblue" d="M325.99,-372.2C330.01,-363.79 334.6,-353.52 338,-344 346.53,-320.1 353.22,-290.81 356.24,-276.58"/>
<polygon fill="midnightblue" stroke="midnightblue" points="322.75,-370.85 321.48,-381.37 329.03,-373.94 322.75,-370.85"/>
</g>
<!-- Node10&#45;&gt;Node3 -->
<g id="edge9" class="edge">
<title>Node10&#45;&gt;Node3</title>
<path fill="none" stroke="orange" stroke-dasharray="5,2" d="M337.42,-174.71C321.86,-161.91 300.2,-144.09 287.49,-133.63"/>
<polygon fill="orange" stroke="orange" points="335.4,-177.58 345.35,-181.23 339.85,-172.18 335.4,-177.58"/>
<text text-anchor="middle" x="340.5" y="-155" font-family="Helvetica,sans-Serif" font-size="10.00"> &lt; T, T &gt;</text>
</g>
<!-- Node11&#45;&gt;Node10 -->
<g id="edge11" class="edge">
<title>Node11&#45;&gt;Node10</title>
<path fill="none" stroke="midnightblue" d="M221.19,-253.2C254.38,-238.13 308.59,-213.52 337.1,-200.58"/>
<polygon fill="midnightblue" stroke="midnightblue" points="219.68,-250.05 212.02,-257.37 222.57,-256.42 219.68,-250.05"/>
</g>
<!-- Node12&#45;&gt;Node10 -->
<g id="edge13" class="edge">
<title>Node12&#45;&gt;Node10</title>
<path fill="none" stroke="midnightblue" d="M357.49,-247.07C357.09,-232.18 356.54,-212.11 356.24,-200.77"/>
<polygon fill="midnightblue" stroke="midnightblue" points="353.99,-247.32 357.76,-257.22 360.99,-247.13 353.99,-247.32"/>
</g>
<!-- Node13&#45;&gt;Node1 -->
<g id="edge16" class="edge">
<title>Node13&#45;&gt;Node1</title>
<path fill="none" stroke="midnightblue" d="M52.02,-209.28C55.31,-195.38 59,-175.89 59,-158.5 59,-158.5 59,-158.5 59,-66 59,-46.12 76.65,-29.14 89.33,-19.5"/>
<polygon fill="midnightblue" stroke="midnightblue" points="48.6,-208.54 49.54,-219.09 55.38,-210.25 48.6,-208.54"/>
</g>
</g>
</svg>
        <g id="navigator" transform="translate(0 0)" fill="#404254">
                <rect fill="#f2f5e9" fill-opacity="0.5" stroke="#606060" stroke-width=".5" x="0" y="0" width="60" height="60"/>
                <use id="zoomplus" xlink:href="#zoomPlus" x="17" y="9" onmousedown="handleZoom(evt,'in')"/>
                <use id="zoomminus" xlink:href="#zoomMin" x="42" y="9" onmousedown="handleZoom(evt,'out')"/>
                <use id="reset" xlink:href="#resetDef" x="30" y="36" onmousedown="handleReset()"/>
                <g id="arrowUp" xlink:href="#dirArrow" transform="translate(30 24)" onmousedown="handlePan(0,-1)">
                  <use xlink:href="#rim" fill="#404040">
                        <set attributeName="fill" to="#808080" begin="arrowUp.mouseover" end="arrowUp.mouseout"/>
                  </use>
                  <path fill="none" stroke="white" stroke-width="1.5" d="M0,-3.0v7 M-2.5,-0.5L0,-3.0L2.5,-0.5"/>
                </g>
                <g id="arrowRight" xlink:href="#dirArrow" transform="rotate(90) translate(36 -43)" onmousedown="handlePan(1,0)">
                  <use xlink:href="#rim" fill="#404040">
                        <set attributeName="fill" to="#808080" begin="arrowRight.mouseover" end="arrowRight.mouseout"/>
                  </use>
                  <path fill="none" stroke="white" stroke-width="1.5" d="M0,-3.0v7 M-2.5,-0.5L0,-3.0L2.5,-0.5"/>
                </g>
                <g id="arrowDown" xlink:href="#dirArrow" transform="rotate(180) translate(-30 -48)" onmousedown="handlePan(0,1)">
                  <use xlink:href="#rim" fill="#404040">
                        <set attributeName="fill" to="#808080" begin="arrowDown.mouseover" end="arrowDown.mouseout"/>
                  </use>
                  <path fill="none" stroke="white" stroke-width="1.5" d="M0,-3.0v7 M-2.5,-0.5L0,-3.0L2.5,-0.5"/>
                </g>
                <g id="arrowLeft" xlink:href="#dirArrow" transform="rotate(270) translate(-36 17)" onmousedown="handlePan(-1,0)">
                  <use xlink:href="#rim" fill="#404040">
                        <set attributeName="fill" to="#808080" begin="arrowLeft.mouseover" end="arrowLeft.mouseout"/>
                  </use>
                  <path fill="none" stroke="white" stroke-width="1.5" d="M0,-3.0v7 M-2.5,-0.5L0,-3.0L2.5,-0.5"/>
                </g>
        </g>
        <svg viewBox="0 0 15 15" width="100%" height="30px" preserveAspectRatio="xMaxYMin meet">
         <g id="arrow_out" transform="scale(0.3 0.3)">
          <a xlink:href="class_press_repeater__inherit__graph_org.svg" target="_base">
           <rect id="button" ry="5" rx="5" y="6" x="6" height="38" width="38"
                fill="#f2f5e9" fill-opacity="0.5" stroke="#606060" stroke-width="1.0"/>
           <path id="arrow"
             d="M 11.500037,31.436501 C 11.940474,20.09759 22.043105,11.32322 32.158766,21.979434 L 37.068811,17.246167 C 37.068811,17.246167 37.088388,32 37.088388,32 L 22.160133,31.978069 C 22.160133,31.978069 26.997745,27.140456 26.997745,27.140456 C 18.528582,18.264221 13.291696,25.230495 11.500037,31.436501 z"
             style="fill:#404040;"/>
          </a>
         </g>
        </svg>
</svg>
