<?xml version="1.0" encoding="UTF-8" standalone="no"?>
<!DOCTYPE svg PUBLIC "-//W3C//DTD SVG 1.1//EN"
 "http://www.w3.org/Graphics/SVG/1.1/DTD/svg11.dtd">
<!-- Generated by graphviz version 12.1.0 (20240811.2233)
 -->
<!-- Title: sensesp::Enable::Enable Pages: 1 -->
<svg width="550pt" height="76pt"
 viewBox="0.00 0.00 549.75 75.88" xmlns="http://www.w3.org/2000/svg" xmlns:xlink="http://www.w3.org/1999/xlink">
<g id="graph0" class="graph" transform="scale(1 1) rotate(0) translate(4 71.88)">
<title>sensesp::Enable::Enable</title>
<!-- Node1 -->
<g id="Node000001" class="node">
<title>Node1</title>
<g id="a_Node000001"><a xlink:title=" ">
<polygon fill="#999999" stroke="#666666" points="124.75,-45.88 0,-45.88 0,-26.62 124.75,-26.62 124.75,-45.88"/>
<text text-anchor="middle" x="62.38" y="-32.38" font-family="Helvetica,sans-Serif" font-size="10.00">sensesp::Enable::Enable</text>
</a>
</g>
</g>
<!-- Node2 -->
<g id="Node000002" class="node">
<title>Node2</title>
<g id="a_Node000002"><a xlink:href="classsensesp_1_1_configurable.html#ac97542fd5a24ae306adb77f3d1ba563a" target="_top" xlink:title=" ">
<polygon fill="white" stroke="#666666" points="274.25,-51.5 160.75,-51.5 160.75,-21 274.25,-21 274.25,-51.5"/>
<text text-anchor="start" x="168.75" y="-38" font-family="Helvetica,sans-Serif" font-size="10.00">sensesp::Configurable</text>
<text text-anchor="middle" x="217.5" y="-26.75" font-family="Helvetica,sans-Serif" font-size="10.00">::load_configuration</text>
</a>
</g>
</g>
<!-- Node1&#45;&gt;Node2 -->
<g id="edge1_Node000001_Node000002" class="edge">
<title>Node1&#45;&gt;Node2</title>
<g id="a_edge1_Node000001_Node000002"><a xlink:title=" ">
<path fill="none" stroke="#63b8ff" d="M125.22,-36.25C133.02,-36.25 141.04,-36.25 148.93,-36.25"/>
<polygon fill="#63b8ff" stroke="#63b8ff" points="148.85,-39.75 158.85,-36.25 148.85,-32.75 148.85,-39.75"/>
</a>
</g>
</g>
<!-- Node3 -->
<g id="Node000003" class="node">
<title>Node3</title>
<g id="a_Node000003"><a xlink:href="namespacesensesp.html#adad24461f43358c45017cf1cb816ca60" target="_top" xlink:title="A base64&#45;encoded SHA&#45;1 hash function.">
<polygon fill="white" stroke="#666666" points="424.5,-67.88 310.25,-67.88 310.25,-48.62 424.5,-48.62 424.5,-67.88"/>
<text text-anchor="middle" x="367.38" y="-54.38" font-family="Helvetica,sans-Serif" font-size="10.00">sensesp::Base64Sha1</text>
</a>
</g>
</g>
<!-- Node2&#45;&gt;Node3 -->
<g id="edge2_Node000002_Node000003" class="edge">
<title>Node2&#45;&gt;Node3</title>
<g id="a_edge2_Node000002_Node000003"><a xlink:title=" ">
<path fill="none" stroke="#63b8ff" d="M274.41,-44.57C282.3,-45.74 290.48,-46.96 298.57,-48.16"/>
<polygon fill="#63b8ff" stroke="#63b8ff" points="298,-51.62 308.4,-49.63 299.03,-44.69 298,-51.62"/>
</a>
</g>
</g>
<!-- Node5 -->
<g id="Node000005" class="node">
<title>Node5</title>
<g id="a_Node000005"><a xlink:href="classsensesp_1_1_configurable.html#a0deaa5b717cd0f60d0105835cd6b595a" target="_top" xlink:title=" ">
<polygon fill="white" stroke="#666666" points="424.12,-30.5 310.62,-30.5 310.62,0 424.12,0 424.12,-30.5"/>
<text text-anchor="start" x="318.62" y="-17" font-family="Helvetica,sans-Serif" font-size="10.00">sensesp::Configurable</text>
<text text-anchor="middle" x="367.38" y="-5.75" font-family="Helvetica,sans-Serif" font-size="10.00">::set_configuration</text>
</a>
</g>
</g>
<!-- Node2&#45;&gt;Node5 -->
<g id="edge4_Node000002_Node000005" class="edge">
<title>Node2&#45;&gt;Node5</title>
<g id="a_edge4_Node000002_Node000005"><a xlink:title=" ">
<path fill="none" stroke="#63b8ff" d="M274.41,-28.31C282.5,-27.16 290.91,-25.97 299.2,-24.79"/>
<polygon fill="#63b8ff" stroke="#63b8ff" points="299.48,-28.28 308.89,-23.41 298.5,-21.35 299.48,-28.28"/>
</a>
</g>
</g>
<!-- Node4 -->
<g id="Node000004" class="node">
<title>Node4</title>
<g id="a_Node000004"><a xlink:href="namespacesensesp.html#a37dfeb5f75b7115464a9aa40473d69cf" target="_top" xlink:title="SHA&#45;1 hash function.">
<polygon fill="white" stroke="#666666" points="541.75,-67.88 460.5,-67.88 460.5,-48.62 541.75,-48.62 541.75,-67.88"/>
<text text-anchor="middle" x="501.12" y="-54.38" font-family="Helvetica,sans-Serif" font-size="10.00">sensesp::Sha1</text>
</a>
</g>
</g>
<!-- Node3&#45;&gt;Node4 -->
<g id="edge3_Node000003_Node000004" class="edge">
<title>Node3&#45;&gt;Node4</title>
<g id="a_edge3_Node000003_Node000004"><a xlink:title=" ">
<path fill="none" stroke="#63b8ff" d="M424.63,-58.25C432.71,-58.25 440.99,-58.25 448.97,-58.25"/>
<polygon fill="#63b8ff" stroke="#63b8ff" points="448.87,-61.75 458.87,-58.25 448.87,-54.75 448.87,-61.75"/>
</a>
</g>
</g>
</g>
</svg>
