<?xml version="1.0" encoding="UTF-8" standalone="no"?>
<!DOCTYPE svg PUBLIC "-//W3C//DTD SVG 1.1//EN"
 "http://www.w3.org/Graphics/SVG/1.1/DTD/svg11.dtd">
<!-- Generated by graphviz version 2.49.3 (20211023.0002)
 -->
<!-- Title: sensesp::VoltageDividerR1::VoltageDividerR1 Pages: 1 -->
<svg width="525pt" height="78pt"
 viewBox="0.00 0.00 525.00 77.50" xmlns="http://www.w3.org/2000/svg" xmlns:xlink="http://www.w3.org/1999/xlink">
<g id="graph0" class="graph" transform="scale(1 1) rotate(0) translate(4 73.5)">
<title>sensesp::VoltageDividerR1::VoltageDividerR1</title>
<polygon fill="white" stroke="transparent" points="-4,4 -4,-73.5 521,-73.5 521,4 -4,4"/>
<!-- Node1 -->
<g id="node1" class="node">
<title>Node1</title>
<g id="a_node1"><a xlink:title=" ">
<polygon fill="#bfbfbf" stroke="black" points="0,-22.5 0,-52.5 137,-52.5 137,-22.5 0,-22.5"/>
<text text-anchor="start" x="8" y="-40.5" font-family="Helvetica,sans-Serif" font-size="10.00">sensesp::VoltageDividerR1</text>
<text text-anchor="middle" x="68.5" y="-29.5" font-family="Helvetica,sans-Serif" font-size="10.00">::VoltageDividerR1</text>
</a>
</g>
</g>
<!-- Node2 -->
<g id="node2" class="node">
<title>Node2</title>
<g id="a_node2"><a xlink:href="classsensesp_1_1_configurable.html#ac97542fd5a24ae306adb77f3d1ba563a" target="_top" xlink:title=" ">
<polygon fill="white" stroke="black" points="173,-22.5 173,-52.5 289,-52.5 289,-22.5 173,-22.5"/>
<text text-anchor="start" x="181" y="-40.5" font-family="Helvetica,sans-Serif" font-size="10.00">sensesp::Configurable</text>
<text text-anchor="middle" x="231" y="-29.5" font-family="Helvetica,sans-Serif" font-size="10.00">::load_configuration</text>
</a>
</g>
</g>
<!-- Node1&#45;&gt;Node2 -->
<g id="edge1" class="edge">
<title>Node1&#45;&gt;Node2</title>
<path fill="none" stroke="midnightblue" d="M137.1,-37.5C145.57,-37.5 154.23,-37.5 162.69,-37.5"/>
<polygon fill="midnightblue" stroke="midnightblue" points="162.88,-41 172.88,-37.5 162.88,-34 162.88,-41"/>
</g>
<!-- Node3 -->
<g id="node3" class="node">
<title>Node3</title>
<g id="a_node3"><a xlink:href="hash_8cpp.html#acb0d85917e87a85ddaf682ebde0872a5" target="_top" xlink:title="A base64&#45;encoded SHA&#45;1 hash function.">
<polygon fill="white" stroke="black" points="346,-50 346,-69 420,-69 420,-50 346,-50"/>
<text text-anchor="middle" x="383" y="-57" font-family="Helvetica,sans-Serif" font-size="10.00">Base64Sha1</text>
</a>
</g>
</g>
<!-- Node2&#45;&gt;Node3 -->
<g id="edge2" class="edge">
<title>Node2&#45;&gt;Node3</title>
<path fill="none" stroke="midnightblue" d="M289.14,-45.88C304.61,-48.15 321.16,-50.58 335.94,-52.74"/>
<polygon fill="midnightblue" stroke="midnightblue" points="335.45,-56.21 345.85,-54.2 336.46,-49.28 335.45,-56.21"/>
</g>
<!-- Node5 -->
<g id="node5" class="node">
<title>Node5</title>
<g id="a_node5"><a xlink:href="classsensesp_1_1_configurable.html#a0deaa5b717cd0f60d0105835cd6b595a" target="_top" xlink:title=" ">
<polygon fill="white" stroke="black" points="325,-0.5 325,-30.5 441,-30.5 441,-0.5 325,-0.5"/>
<text text-anchor="start" x="333" y="-18.5" font-family="Helvetica,sans-Serif" font-size="10.00">sensesp::Configurable</text>
<text text-anchor="middle" x="383" y="-7.5" font-family="Helvetica,sans-Serif" font-size="10.00">::set_configuration</text>
</a>
</g>
</g>
<!-- Node2&#45;&gt;Node5 -->
<g id="edge4" class="edge">
<title>Node2&#45;&gt;Node5</title>
<path fill="none" stroke="midnightblue" d="M289.14,-29.12C297.47,-27.9 306.11,-26.63 314.62,-25.38"/>
<polygon fill="midnightblue" stroke="midnightblue" points="315.14,-28.84 324.53,-23.93 314.12,-21.92 315.14,-28.84"/>
</g>
<!-- Node4 -->
<g id="node4" class="node">
<title>Node4</title>
<g id="a_node4"><a xlink:href="hash_8cpp.html#a5c78d7f77047179963ffda330a0a00ce" target="_top" xlink:title="SHA&#45;1 hash function.">
<polygon fill="white" stroke="black" points="477,-50 477,-69 517,-69 517,-50 477,-50"/>
<text text-anchor="middle" x="497" y="-57" font-family="Helvetica,sans-Serif" font-size="10.00">Sha1</text>
</a>
</g>
</g>
<!-- Node3&#45;&gt;Node4 -->
<g id="edge3" class="edge">
<title>Node3&#45;&gt;Node4</title>
<path fill="none" stroke="midnightblue" d="M420.05,-59.5C435.14,-59.5 452.44,-59.5 466.72,-59.5"/>
<polygon fill="midnightblue" stroke="midnightblue" points="466.96,-63 476.96,-59.5 466.96,-56 466.96,-63"/>
</g>
</g>
</svg>
