<?xml version="1.0" encoding="UTF-8" standalone="no"?>
<!DOCTYPE svg PUBLIC "-//W3C//DTD SVG 1.1//EN"
 "http://www.w3.org/Graphics/SVG/1.1/DTD/svg11.dtd">
<!-- Generated by graphviz version 5.0.0 (20220707.1540)
 -->
<!-- Title: sensesp::ThresholdTransform&lt; C, P &gt; Pages: 1 -->
<svg width="1256pt" height="180pt"
 viewBox="0.00 0.00 1256.00 180.00" xmlns="http://www.w3.org/2000/svg" xmlns:xlink="http://www.w3.org/1999/xlink">
<g id="graph0" class="graph" transform="scale(1 1) rotate(0) translate(4 176)">
<title>sensesp::ThresholdTransform&lt; C, P &gt;</title>
<polygon fill="white" stroke="transparent" points="-4,4 -4,-176 1252,-176 1252,4 -4,4"/>
<!-- Node1 -->
<g id="node1" class="node">
<title>Node1</title>
<g id="a_node1"><a xlink:title="A Transform base class that translates the value of type C into value of type P. Base class for class...">
<polygon fill="#bfbfbf" stroke="black" points="695,-71 695,-101 841,-101 841,-71 695,-71"/>
<text text-anchor="start" x="703" y="-89" font-family="Helvetica,sans-Serif" font-size="10.00">sensesp::ThresholdTransform</text>
<text text-anchor="middle" x="768" y="-78" font-family="Helvetica,sans-Serif" font-size="10.00">&lt; C, P &gt;</text>
</a>
</g>
</g>
<!-- Node11 -->
<g id="node11" class="node">
<title>Node11</title>
<g id="a_node11"><a xlink:href="classsensesp_1_1_threshold_transform.html" target="_top" xlink:title=" ">
<polygon fill="white" stroke="black" points="941,-96 941,-126 1087,-126 1087,-96 941,-96"/>
<text text-anchor="start" x="949" y="-114" font-family="Helvetica,sans-Serif" font-size="10.00">sensesp::ThresholdTransform</text>
<text text-anchor="middle" x="1014" y="-103" font-family="Helvetica,sans-Serif" font-size="10.00">&lt; float, bool &gt;</text>
</a>
</g>
</g>
<!-- Node1&#45;&gt;Node11 -->
<g id="edge11" class="edge">
<title>Node1&#45;&gt;Node11</title>
<path fill="none" stroke="orange" stroke-dasharray="5,2" d="M851.34,-94.44C880.4,-97.41 912.83,-100.74 940.97,-103.62"/>
<polygon fill="orange" stroke="orange" points="851.52,-90.94 841.22,-93.4 850.81,-97.9 851.52,-90.94"/>
<text text-anchor="middle" x="891" y="-104" font-family="Helvetica,sans-Serif" font-size="10.00"> &lt; float, bool &gt;</text>
</g>
<!-- Node13 -->
<g id="node13" class="node">
<title>Node13</title>
<g id="a_node13"><a xlink:href="classsensesp_1_1_threshold_transform.html" target="_top" xlink:title=" ">
<polygon fill="white" stroke="black" points="941,-47 941,-77 1087,-77 1087,-47 941,-47"/>
<text text-anchor="start" x="949" y="-65" font-family="Helvetica,sans-Serif" font-size="10.00">sensesp::ThresholdTransform</text>
<text text-anchor="middle" x="1014" y="-54" font-family="Helvetica,sans-Serif" font-size="10.00">&lt; int, bool &gt;</text>
</a>
</g>
</g>
<!-- Node1&#45;&gt;Node13 -->
<g id="edge13" class="edge">
<title>Node1&#45;&gt;Node13</title>
<path fill="none" stroke="orange" stroke-dasharray="5,2" d="M851.29,-74.84C853.89,-74.55 856.46,-74.27 859,-74 885.67,-71.19 915,-68.74 940.85,-66.8"/>
<polygon fill="orange" stroke="orange" points="850.7,-71.39 841.17,-76.02 851.51,-78.34 850.7,-71.39"/>
<text text-anchor="middle" x="891" y="-77" font-family="Helvetica,sans-Serif" font-size="10.00"> &lt; int, bool &gt;</text>
</g>
<!-- Node2 -->
<g id="node2" class="node">
<title>Node2</title>
<g id="a_node2"><a xlink:href="classsensesp_1_1_transform.html" target="_top" xlink:title="The main Transform class. A transform is identified primarily by the type of value that is produces (...">
<polygon fill="white" stroke="black" points="554,-71 554,-101 658,-101 658,-71 554,-71"/>
<text text-anchor="start" x="562" y="-89" font-family="Helvetica,sans-Serif" font-size="10.00">sensesp::Transform</text>
<text text-anchor="middle" x="606" y="-78" font-family="Helvetica,sans-Serif" font-size="10.00">&lt; C, P &gt;</text>
</a>
</g>
</g>
<!-- Node2&#45;&gt;Node1 -->
<g id="edge1" class="edge">
<title>Node2&#45;&gt;Node1</title>
<path fill="none" stroke="midnightblue" d="M668.14,-86C676.87,-86 685.92,-86 694.84,-86"/>
<polygon fill="midnightblue" stroke="midnightblue" points="668.06,-82.5 658.06,-86 668.06,-89.5 668.06,-82.5"/>
</g>
<!-- Node3 -->
<g id="node3" class="node">
<title>Node3</title>
<g id="a_node3"><a xlink:href="classsensesp_1_1_transform_base.html" target="_top" xlink:title="The base class for all transforms. A transforms takes a value in, transforms it in some way,...">
<polygon fill="white" stroke="black" points="377,-114.5 377,-133.5 503,-133.5 503,-114.5 377,-114.5"/>
<text text-anchor="middle" x="440" y="-121.5" font-family="Helvetica,sans-Serif" font-size="10.00">sensesp::TransformBase</text>
</a>
</g>
</g>
<!-- Node3&#45;&gt;Node2 -->
<g id="edge2" class="edge">
<title>Node3&#45;&gt;Node2</title>
<path fill="none" stroke="midnightblue" d="M492.37,-112.1C511.99,-107.55 534.35,-102.37 553.95,-97.83"/>
<polygon fill="midnightblue" stroke="midnightblue" points="491.34,-108.74 482.38,-114.41 492.92,-115.56 491.34,-108.74"/>
</g>
<!-- Node4 -->
<g id="node4" class="node">
<title>Node4</title>
<g id="a_node4"><a xlink:href="classsensesp_1_1_configurable.html" target="_top" xlink:title="An object that is capable of having configuration data that can be set remotely using a RESTful API,...">
<polygon fill="white" stroke="black" points="165,-152.5 165,-171.5 279,-171.5 279,-152.5 165,-152.5"/>
<text text-anchor="middle" x="222" y="-159.5" font-family="Helvetica,sans-Serif" font-size="10.00">sensesp::Configurable</text>
</a>
</g>
</g>
<!-- Node4&#45;&gt;Node3 -->
<g id="edge3" class="edge">
<title>Node4&#45;&gt;Node3</title>
<path fill="none" stroke="midnightblue" d="M287.09,-150.72C318.17,-145.26 355.09,-138.76 384.75,-133.54"/>
<polygon fill="midnightblue" stroke="midnightblue" points="286.47,-147.28 277.23,-152.46 287.68,-154.17 286.47,-147.28"/>
</g>
<!-- Node5 -->
<g id="node5" class="node">
<title>Node5</title>
<g id="a_node5"><a xlink:href="classsensesp_1_1_startable.html" target="_top" xlink:title="Automatic calling of the start() method at startup.">
<polygon fill="white" stroke="black" points="173,-114.5 173,-133.5 271,-133.5 271,-114.5 173,-114.5"/>
<text text-anchor="middle" x="222" y="-121.5" font-family="Helvetica,sans-Serif" font-size="10.00">sensesp::Startable</text>
</a>
</g>
</g>
<!-- Node5&#45;&gt;Node3 -->
<g id="edge4" class="edge">
<title>Node5&#45;&gt;Node3</title>
<path fill="none" stroke="midnightblue" d="M281.38,-124C310.97,-124 346.9,-124 376.97,-124"/>
<polygon fill="midnightblue" stroke="midnightblue" points="281.21,-120.5 271.21,-124 281.21,-127.5 281.21,-120.5"/>
</g>
<!-- Node6 -->
<g id="node6" class="node">
<title>Node6</title>
<g id="a_node6"><a xlink:href="classsensesp_1_1_value_consumer.html" target="_top" xlink:title=" ">
<polygon fill="white" stroke="black" points="363,-76.5 363,-95.5 517,-95.5 517,-76.5 363,-76.5"/>
<text text-anchor="middle" x="440" y="-83.5" font-family="Helvetica,sans-Serif" font-size="10.00">sensesp::ValueConsumer&lt; C &gt;</text>
</a>
</g>
</g>
<!-- Node6&#45;&gt;Node2 -->
<g id="edge5" class="edge">
<title>Node6&#45;&gt;Node2</title>
<path fill="none" stroke="midnightblue" d="M527.41,-86C536.41,-86 545.34,-86 553.77,-86"/>
<polygon fill="midnightblue" stroke="midnightblue" points="527.24,-82.5 517.24,-86 527.24,-89.5 527.24,-82.5"/>
</g>
<!-- Node7 -->
<g id="node7" class="node">
<title>Node7</title>
<g id="a_node7"><a xlink:href="classsensesp_1_1_value_consumer.html" target="_top" xlink:title="A base class for piece of code (like a transform) that accepts data for input. ValueConsumers can acc...">
<polygon fill="white" stroke="black" points="146,-76.5 146,-95.5 298,-95.5 298,-76.5 146,-76.5"/>
<text text-anchor="middle" x="222" y="-83.5" font-family="Helvetica,sans-Serif" font-size="10.00">sensesp::ValueConsumer&lt; T &gt;</text>
</a>
</g>
</g>
<!-- Node7&#45;&gt;Node6 -->
<g id="edge6" class="edge">
<title>Node7&#45;&gt;Node6</title>
<path fill="none" stroke="orange" stroke-dasharray="5,2" d="M308.43,-86C326.43,-86 345.3,-86 362.93,-86"/>
<polygon fill="orange" stroke="orange" points="308.24,-82.5 298.24,-86 308.24,-89.5 308.24,-82.5"/>
<text text-anchor="middle" x="330.5" y="-89" font-family="Helvetica,sans-Serif" font-size="10.00"> &lt; C &gt;</text>
</g>
<!-- Node8 -->
<g id="node8" class="node">
<title>Node8</title>
<g id="a_node8"><a xlink:href="classsensesp_1_1_value_producer.html" target="_top" xlink:title=" ">
<polygon fill="white" stroke="black" points="366.5,-38.5 366.5,-57.5 513.5,-57.5 513.5,-38.5 366.5,-38.5"/>
<text text-anchor="middle" x="440" y="-45.5" font-family="Helvetica,sans-Serif" font-size="10.00">sensesp::ValueProducer&lt; P &gt;</text>
</a>
</g>
</g>
<!-- Node8&#45;&gt;Node2 -->
<g id="edge7" class="edge">
<title>Node8&#45;&gt;Node2</title>
<path fill="none" stroke="midnightblue" d="M492.37,-59.9C511.99,-64.45 534.35,-69.63 553.95,-74.17"/>
<polygon fill="midnightblue" stroke="midnightblue" points="492.92,-56.44 482.38,-57.59 491.34,-63.26 492.92,-56.44"/>
</g>
<!-- Node9 -->
<g id="node9" class="node">
<title>Node9</title>
<g id="a_node9"><a xlink:href="classsensesp_1_1_observable.html" target="_top" xlink:title="A base class which allow observers to attach callbacks to themselves. The callbacks will be called wh...">
<polygon fill="white" stroke="black" points="0,-19.5 0,-38.5 109,-38.5 109,-19.5 0,-19.5"/>
<text text-anchor="middle" x="54.5" y="-26.5" font-family="Helvetica,sans-Serif" font-size="10.00">sensesp::Observable</text>
</a>
</g>
</g>
<!-- Node9&#45;&gt;Node8 -->
<g id="edge8" class="edge">
<title>Node9&#45;&gt;Node8</title>
<path fill="none" stroke="midnightblue" d="M119.38,-33.55C121.95,-33.7 124.5,-33.86 127,-34 209.01,-38.71 303.22,-42.75 366.47,-45.26"/>
<polygon fill="midnightblue" stroke="midnightblue" points="119.57,-30.05 109.37,-32.91 119.13,-37.04 119.57,-30.05"/>
</g>
<!-- Node10 -->
<g id="node10" class="node">
<title>Node10</title>
<g id="a_node10"><a xlink:href="classsensesp_1_1_value_producer.html" target="_top" xlink:title="A base class for any sensor or piece of code that outputs a value for consumption elsewhere.">
<polygon fill="white" stroke="black" points="149,-0.5 149,-19.5 295,-19.5 295,-0.5 149,-0.5"/>
<text text-anchor="middle" x="222" y="-7.5" font-family="Helvetica,sans-Serif" font-size="10.00">sensesp::ValueProducer&lt; T &gt;</text>
</a>
</g>
</g>
<!-- Node9&#45;&gt;Node10 -->
<g id="edge10" class="edge">
<title>Node9&#45;&gt;Node10</title>
<path fill="none" stroke="midnightblue" d="M119.2,-21.69C128.91,-20.57 139,-19.41 148.87,-18.28"/>
<polygon fill="midnightblue" stroke="midnightblue" points="118.77,-18.21 109.23,-22.83 119.57,-25.17 118.77,-18.21"/>
</g>
<!-- Node10&#45;&gt;Node8 -->
<g id="edge9" class="edge">
<title>Node10&#45;&gt;Node8</title>
<path fill="none" stroke="orange" stroke-dasharray="5,2" d="M305.31,-17.02C318.63,-18.66 332.23,-20.64 345,-23 366.25,-26.93 389.75,-33.18 407.94,-38.45"/>
<polygon fill="orange" stroke="orange" points="305.54,-13.53 295.2,-15.84 304.72,-20.48 305.54,-13.53"/>
<text text-anchor="middle" x="330.5" y="-26" font-family="Helvetica,sans-Serif" font-size="10.00"> &lt; P &gt;</text>
</g>
<!-- Node12 -->
<g id="node12" class="node">
<title>Node12</title>
<g id="a_node12"><a xlink:href="classsensesp_1_1_float_threshold.html" target="_top" xlink:title="Translates a float value into a boolean value, which depends on whether the float value is &quot;in range&quot;...">
<polygon fill="white" stroke="black" points="1124,-101.5 1124,-120.5 1248,-120.5 1248,-101.5 1124,-101.5"/>
<text text-anchor="middle" x="1186" y="-108.5" font-family="Helvetica,sans-Serif" font-size="10.00">sensesp::FloatThreshold</text>
</a>
</g>
</g>
<!-- Node11&#45;&gt;Node12 -->
<g id="edge12" class="edge">
<title>Node11&#45;&gt;Node12</title>
<path fill="none" stroke="midnightblue" d="M1097.18,-111C1106.14,-111 1115.15,-111 1123.8,-111"/>
<polygon fill="midnightblue" stroke="midnightblue" points="1097.1,-107.5 1087.1,-111 1097.1,-114.5 1097.1,-107.5"/>
</g>
<!-- Node14 -->
<g id="node14" class="node">
<title>Node14</title>
<g id="a_node14"><a xlink:href="classsensesp_1_1_int_threshold.html" target="_top" xlink:title="Translates an integer value into a boolean value, which depends on whether the integer value is &quot;in r...">
<polygon fill="white" stroke="black" points="1129.5,-52.5 1129.5,-71.5 1242.5,-71.5 1242.5,-52.5 1129.5,-52.5"/>
<text text-anchor="middle" x="1186" y="-59.5" font-family="Helvetica,sans-Serif" font-size="10.00">sensesp::IntThreshold</text>
</a>
</g>
</g>
<!-- Node13&#45;&gt;Node14 -->
<g id="edge14" class="edge">
<title>Node13&#45;&gt;Node14</title>
<path fill="none" stroke="midnightblue" d="M1097.42,-62C1108.22,-62 1119.08,-62 1129.3,-62"/>
<polygon fill="midnightblue" stroke="midnightblue" points="1097.1,-58.5 1087.1,-62 1097.1,-65.5 1097.1,-58.5"/>
</g>
</g>
</svg>
