<?xml version="1.0" encoding="UTF-8" standalone="no"?>
<!DOCTYPE svg PUBLIC "-//W3C//DTD SVG 1.1//EN"
 "http://www.w3.org/Graphics/SVG/1.1/DTD/svg11.dtd">
<!-- Generated by graphviz version 12.1.0 (20240811.2233)
 -->
<!-- Title: sensesp::SensESPBaseApp::get_hostname Pages: 1 -->
<svg width="838pt" height="321pt"
 viewBox="0.00 0.00 838.00 320.50" xmlns="http://www.w3.org/2000/svg" xmlns:xlink="http://www.w3.org/1999/xlink">
<g id="graph0" class="graph" transform="scale(1 1) rotate(0) translate(4 316.5)">
<title>sensesp::SensESPBaseApp::get_hostname</title>
<!-- Node1 -->
<g id="Node000001" class="node">
<title>Node1</title>
<g id="a_Node000001"><a xlink:title="Get the current hostname.">
<polygon fill="#999999" stroke="#666666" points="830,-165.5 688.75,-165.5 688.75,-135 830,-135 830,-165.5"/>
<text text-anchor="start" x="696.75" y="-152" font-family="Helvetica,sans-Serif" font-size="10.00">sensesp::SensESPBaseApp</text>
<text text-anchor="middle" x="759.38" y="-140.75" font-family="Helvetica,sans-Serif" font-size="10.00">::get_hostname</text>
</a>
</g>
</g>
<!-- Node2 -->
<g id="Node000002" class="node">
<title>Node2</title>
<g id="a_Node000002"><a xlink:href="classsensesp_1_1_access_point_settings.html#aacfa7bea1b7c2a271b8d6ded71fb0b15" target="_top" xlink:title=" ">
<polygon fill="white" stroke="#666666" points="652.75,-312.5 502.5,-312.5 502.5,-282 652.75,-282 652.75,-312.5"/>
<text text-anchor="start" x="510.5" y="-299" font-family="Helvetica,sans-Serif" font-size="10.00">sensesp::AccessPointSettings</text>
<text text-anchor="middle" x="577.62" y="-287.75" font-family="Helvetica,sans-Serif" font-size="10.00">::AccessPointSettings</text>
</a>
</g>
</g>
<!-- Node1&#45;&gt;Node2 -->
<g id="edge1_Node000001_Node000002" class="edge">
<title>Node1&#45;&gt;Node2</title>
<g id="a_edge1_Node000001_Node000002"><a xlink:title=" ">
<path fill="none" stroke="#63b8ff" d="M742.89,-175C724.53,-202.44 691.49,-246.24 652.75,-272.25 647.45,-275.81 641.6,-278.9 635.58,-281.58"/>
<polygon fill="#63b8ff" stroke="#63b8ff" points="745.6,-177.25 748.14,-166.96 739.74,-173.42 745.6,-177.25"/>
</a>
</g>
</g>
<!-- Node3 -->
<g id="Node000003" class="node">
<title>Node3</title>
<g id="a_Node000003"><a xlink:href="classsensesp_1_1_s_k_delta_queue.html#a26dc17fc9fa31804552240f81efa35ac" target="_top" xlink:title=" ">
<polygon fill="white" stroke="#666666" points="639.62,-263.5 515.62,-263.5 515.62,-233 639.62,-233 639.62,-263.5"/>
<text text-anchor="start" x="523.62" y="-250" font-family="Helvetica,sans-Serif" font-size="10.00">sensesp::SKDeltaQueue</text>
<text text-anchor="middle" x="577.62" y="-238.75" font-family="Helvetica,sans-Serif" font-size="10.00">::get_delta</text>
</a>
</g>
</g>
<!-- Node1&#45;&gt;Node3 -->
<g id="edge2_Node000001_Node000003" class="edge">
<title>Node1&#45;&gt;Node3</title>
<g id="a_edge2_Node000001_Node000003"><a xlink:title=" ">
<path fill="none" stroke="#63b8ff" d="M730.08,-173.06C709.56,-188.78 680.61,-209.27 652.75,-223.25 645.95,-226.66 638.58,-229.78 631.21,-232.56"/>
<polygon fill="#63b8ff" stroke="#63b8ff" points="732.23,-175.83 737.97,-166.93 727.93,-170.3 732.23,-175.83"/>
</a>
</g>
</g>
<!-- Node7 -->
<g id="Node000007" class="node">
<title>Node7</title>
<g id="a_Node000007"><a xlink:href="classsensesp_1_1_h_t_t_p_server.html#ad582006382529c29bc52b8773b8362c7" target="_top" xlink:title=" ">
<polygon fill="white" stroke="#666666" points="634.38,-214.5 520.88,-214.5 520.88,-184 634.38,-184 634.38,-214.5"/>
<text text-anchor="start" x="528.88" y="-201" font-family="Helvetica,sans-Serif" font-size="10.00">sensesp::HTTPServer</text>
<text text-anchor="middle" x="577.62" y="-189.75" font-family="Helvetica,sans-Serif" font-size="10.00">::HTTPServer</text>
</a>
</g>
</g>
<!-- Node1&#45;&gt;Node7 -->
<g id="edge6_Node000001_Node000007" class="edge">
<title>Node1&#45;&gt;Node7</title>
<g id="a_edge6_Node000001_Node000007"><a xlink:title=" ">
<path fill="none" stroke="#63b8ff" d="M690.13,-168.85C671.88,-173.83 652.36,-179.15 634.83,-183.93"/>
<polygon fill="#63b8ff" stroke="#63b8ff" points="690.82,-172.29 699.55,-166.29 688.98,-165.54 690.82,-172.29"/>
</a>
</g>
</g>
<!-- Node8 -->
<g id="Node000008" class="node">
<title>Node8</title>
<g id="a_Node000008"><a xlink:href="classsensesp_1_1_m_d_n_s_discovery.html#a92a5eea6085988a188e9d4b7ec887ea2" target="_top" xlink:title=" ">
<polygon fill="white" stroke="#666666" points="644.12,-165.5 511.12,-165.5 511.12,-135 644.12,-135 644.12,-165.5"/>
<text text-anchor="start" x="519.12" y="-152" font-family="Helvetica,sans-Serif" font-size="10.00">sensesp::MDNSDiscovery</text>
<text text-anchor="middle" x="577.62" y="-140.75" font-family="Helvetica,sans-Serif" font-size="10.00">::MDNSDiscovery</text>
</a>
</g>
</g>
<!-- Node1&#45;&gt;Node8 -->
<g id="edge7_Node000001_Node000008" class="edge">
<title>Node1&#45;&gt;Node8</title>
<g id="a_edge7_Node000001_Node000008"><a xlink:title=" ">
<path fill="none" stroke="#63b8ff" d="M677.12,-150.25C666.24,-150.25 655.19,-150.25 644.62,-150.25"/>
<polygon fill="#63b8ff" stroke="#63b8ff" points="676.85,-153.75 686.85,-150.25 676.85,-146.75 676.85,-153.75"/>
</a>
</g>
</g>
<!-- Node9 -->
<g id="Node000009" class="node">
<title>Node9</title>
<g id="a_Node000009"><a xlink:href="classsensesp_1_1_networking.html#a69ec1787020ee667dfeae913f352767a" target="_top" xlink:title=" ">
<polygon fill="white" stroke="#666666" points="463.5,-79.5 355.25,-79.5 355.25,-49 463.5,-49 463.5,-79.5"/>
<text text-anchor="start" x="363.25" y="-66" font-family="Helvetica,sans-Serif" font-size="10.00">sensesp::Networking</text>
<text text-anchor="middle" x="409.38" y="-54.75" font-family="Helvetica,sans-Serif" font-size="10.00">::Networking</text>
</a>
</g>
</g>
<!-- Node1&#45;&gt;Node9 -->
<g id="edge8_Node000001_Node000009" class="edge">
<title>Node1&#45;&gt;Node9</title>
<g id="a_edge8_Node000001_Node000009"><a xlink:title=" ">
<path fill="none" stroke="#63b8ff" d="M681.13,-131.9C630.32,-119.73 562.38,-103.3 502.5,-88.25 490,-85.11 476.56,-81.65 463.92,-78.37"/>
<polygon fill="#63b8ff" stroke="#63b8ff" points="680.02,-135.23 690.56,-134.15 681.64,-128.42 680.02,-135.23"/>
</a>
</g>
</g>
<!-- Node10 -->
<g id="Node000010" class="node">
<title>Node10</title>
<g id="a_Node000010"><a xlink:href="classsensesp_1_1_networking.html#a98a47f34b83e3f5773054a8c3a3a308c" target="_top" xlink:title="Start an access point.">
<polygon fill="white" stroke="#666666" points="631.75,-79.5 523.5,-79.5 523.5,-49 631.75,-49 631.75,-79.5"/>
<text text-anchor="start" x="531.5" y="-66" font-family="Helvetica,sans-Serif" font-size="10.00">sensesp::Networking</text>
<text text-anchor="middle" x="577.62" y="-54.75" font-family="Helvetica,sans-Serif" font-size="10.00">::start_access_point</text>
</a>
</g>
</g>
<!-- Node1&#45;&gt;Node10 -->
<g id="edge9_Node000001_Node000010" class="edge">
<title>Node1&#45;&gt;Node10</title>
<g id="a_edge9_Node000001_Node000010"><a xlink:title=" ">
<path fill="none" stroke="#63b8ff" d="M721.53,-128.94C701.49,-117.71 676.1,-104.07 652.75,-93.25 642.72,-88.6 631.72,-84.03 621.33,-79.93"/>
<polygon fill="#63b8ff" stroke="#63b8ff" points="719.74,-131.94 730.17,-133.81 723.18,-125.85 719.74,-131.94"/>
</a>
</g>
</g>
<!-- Node11 -->
<g id="Node000011" class="node">
<title>Node11</title>
<g id="a_Node000011"><a xlink:href="classsensesp_1_1_networking.html#a277f2f6ba752d443e9724badf2a3f474" target="_top" xlink:title="Start WiFi using preset SSID and password.">
<polygon fill="white" stroke="#666666" points="641.88,-30.5 513.38,-30.5 513.38,0 641.88,0 641.88,-30.5"/>
<text text-anchor="start" x="521.38" y="-17" font-family="Helvetica,sans-Serif" font-size="10.00">sensesp::Networking</text>
<text text-anchor="middle" x="577.62" y="-5.75" font-family="Helvetica,sans-Serif" font-size="10.00">::start_client_autoconnect</text>
</a>
</g>
</g>
<!-- Node1&#45;&gt;Node11 -->
<g id="edge11_Node000001_Node000011" class="edge">
<title>Node1&#45;&gt;Node11</title>
<g id="a_edge11_Node000001_Node000011"><a xlink:title=" ">
<path fill="none" stroke="#63b8ff" d="M740.6,-125.74C721.46,-100.97 688.86,-63.17 652.75,-40.25 647.13,-36.68 640.95,-33.57 634.62,-30.86"/>
<polygon fill="#63b8ff" stroke="#63b8ff" points="737.75,-127.78 746.57,-133.64 743.34,-123.56 737.75,-127.78"/>
</a>
</g>
</g>
<!-- Node4 -->
<g id="Node000004" class="node">
<title>Node4</title>
<g id="a_Node000004"><a xlink:href="classsensesp_1_1_s_k_w_s_client.html#ad7f3e4ebde28b680f480cd62860c01b1" target="_top" xlink:title=" ">
<polygon fill="white" stroke="#666666" points="466.5,-263.5 352.25,-263.5 352.25,-233 466.5,-233 466.5,-263.5"/>
<text text-anchor="start" x="360.25" y="-250" font-family="Helvetica,sans-Serif" font-size="10.00">sensesp::SKWSClient</text>
<text text-anchor="middle" x="409.38" y="-238.75" font-family="Helvetica,sans-Serif" font-size="10.00">::send_delta</text>
</a>
</g>
</g>
<!-- Node3&#45;&gt;Node4 -->
<g id="edge3_Node000003_Node000004" class="edge">
<title>Node3&#45;&gt;Node4</title>
<g id="a_edge3_Node000003_Node000004"><a xlink:title=" ">
<path fill="none" stroke="#63b8ff" d="M503.92,-248.25C491.51,-248.25 478.79,-248.25 466.88,-248.25"/>
<polygon fill="#63b8ff" stroke="#63b8ff" points="503.68,-251.75 513.68,-248.25 503.68,-244.75 503.68,-251.75"/>
</a>
</g>
</g>
<!-- Node5 -->
<g id="Node000005" class="node">
<title>Node5</title>
<g id="a_Node000005"><a xlink:href="namespacesensesp.html#a655898328a16b3c9f85902c5a9c981e6" target="_top" xlink:title=" ">
<polygon fill="white" stroke="#666666" points="316.25,-257.88 150.25,-257.88 150.25,-238.62 316.25,-238.62 316.25,-257.88"/>
<text text-anchor="middle" x="233.25" y="-244.38" font-family="Helvetica,sans-Serif" font-size="10.00">sensesp::ExecuteWebSocketTask</text>
</a>
</g>
</g>
<!-- Node4&#45;&gt;Node5 -->
<g id="edge4_Node000004_Node000005" class="edge">
<title>Node4&#45;&gt;Node5</title>
<g id="a_edge4_Node000004_Node000005"><a xlink:title=" ">
<path fill="none" stroke="#63b8ff" d="M340.58,-248.25C332.76,-248.25 324.73,-248.25 316.74,-248.25"/>
<polygon fill="#63b8ff" stroke="#63b8ff" points="340.33,-251.75 350.33,-248.25 340.33,-244.75 340.33,-251.75"/>
</a>
</g>
</g>
<!-- Node6 -->
<g id="Node000006" class="node">
<title>Node6</title>
<g id="a_Node000006"><a xlink:href="classsensesp_1_1_s_k_w_s_client.html#aabb8d52b1b30f1ccc9e61a68747bb271" target="_top" xlink:title=" ">
<polygon fill="white" stroke="#666666" points="114.25,-263.5 0,-263.5 0,-233 114.25,-233 114.25,-263.5"/>
<text text-anchor="start" x="8" y="-250" font-family="Helvetica,sans-Serif" font-size="10.00">sensesp::SKWSClient</text>
<text text-anchor="middle" x="57.13" y="-238.75" font-family="Helvetica,sans-Serif" font-size="10.00">::SKWSClient</text>
</a>
</g>
</g>
<!-- Node5&#45;&gt;Node6 -->
<g id="edge5_Node000005_Node000006" class="edge">
<title>Node5&#45;&gt;Node6</title>
<g id="a_edge5_Node000005_Node000006"><a xlink:title=" ">
<path fill="none" stroke="#63b8ff" d="M138.28,-248.25C130.17,-248.25 122.14,-248.25 114.47,-248.25"/>
<polygon fill="#63b8ff" stroke="#63b8ff" points="138.26,-251.75 148.26,-248.25 138.26,-244.75 138.26,-251.75"/>
</a>
</g>
</g>
<!-- Node10&#45;&gt;Node9 -->
<g id="edge10_Node000010_Node000009" class="edge">
<title>Node10&#45;&gt;Node9</title>
<g id="a_edge10_Node000010_Node000009"><a xlink:title=" ">
<path fill="none" stroke="#63b8ff" d="M511.75,-64.25C495.87,-64.25 479.06,-64.25 463.79,-64.25"/>
<polygon fill="#63b8ff" stroke="#63b8ff" points="511.59,-67.75 521.59,-64.25 511.59,-60.75 511.59,-67.75"/>
</a>
</g>
</g>
<!-- Node11&#45;&gt;Node9 -->
<g id="edge12_Node000011_Node000009" class="edge">
<title>Node11&#45;&gt;Node9</title>
<g id="a_edge12_Node000011_Node000009"><a xlink:title=" ">
<path fill="none" stroke="#63b8ff" d="M512.6,-34.12C496.47,-38.87 479.33,-43.93 463.79,-48.51"/>
<polygon fill="#63b8ff" stroke="#63b8ff" points="513.51,-37.5 522.11,-31.32 511.53,-30.79 513.51,-37.5"/>
</a>
</g>
</g>
</g>
</svg>
