<?xml version="1.0" encoding="UTF-8" standalone="no"?>
<!DOCTYPE svg PUBLIC "-//W3C//DTD SVG 1.1//EN"
 "http://www.w3.org/Graphics/SVG/1.1/DTD/svg11.dtd">
<!-- Generated by graphviz version 7.1.0 (20230121.1956)
 -->
<!-- Title: sensesp::Difference::Difference Pages: 1 -->
<svg width="487pt" height="76pt"
 viewBox="0.00 0.00 487.00 75.50" xmlns="http://www.w3.org/2000/svg" xmlns:xlink="http://www.w3.org/1999/xlink">
<g id="graph0" class="graph" transform="scale(1 1) rotate(0) translate(4 71.5)">
<title>sensesp::Difference::Difference</title>
<!-- Node1 -->
<g id="node1" class="node">
<title>Node1</title>
<g id="a_node1"><a xlink:title=" ">
<polygon fill="#999999" stroke="#666666" points="104,-51 0,-51 0,-21 104,-21 104,-51"/>
<text text-anchor="start" x="8" y="-39" font-family="Helvetica,sans-Serif" font-size="10.00">sensesp::Difference</text>
<text text-anchor="middle" x="52" y="-28" font-family="Helvetica,sans-Serif" font-size="10.00">::Difference</text>
</a>
</g>
</g>
<!-- Node2 -->
<g id="node2" class="node">
<title>Node2</title>
<g id="a_node2"><a xlink:href="classsensesp_1_1_configurable.html#ac97542fd5a24ae306adb77f3d1ba563a" target="_top" xlink:title=" ">
<polygon fill="white" stroke="#666666" points="254,-51 140,-51 140,-21 254,-21 254,-51"/>
<text text-anchor="start" x="148" y="-39" font-family="Helvetica,sans-Serif" font-size="10.00">sensesp::Configurable</text>
<text text-anchor="middle" x="197" y="-28" font-family="Helvetica,sans-Serif" font-size="10.00">::load_configuration</text>
</a>
</g>
</g>
<!-- Node1&#45;&gt;Node2 -->
<g id="edge1" class="edge">
<title>Node1&#45;&gt;Node2</title>
<path fill="none" stroke="#63b8ff" d="M104.22,-36C112.07,-36 120.26,-36 128.4,-36"/>
<polygon fill="#63b8ff" stroke="#63b8ff" points="128.29,-39.5 138.29,-36 128.29,-32.5 128.29,-39.5"/>
</g>
<!-- Node3 -->
<g id="node3" class="node">
<title>Node3</title>
<g id="a_node3"><a xlink:href="hash_8cpp.html#acb0d85917e87a85ddaf682ebde0872a5" target="_top" xlink:title="A base64&#45;encoded SHA&#45;1 hash function.">
<polygon fill="white" stroke="#666666" points="383,-67.5 311,-67.5 311,-48.5 383,-48.5 383,-67.5"/>
<text text-anchor="middle" x="347" y="-55.5" font-family="Helvetica,sans-Serif" font-size="10.00">Base64Sha1</text>
</a>
</g>
</g>
<!-- Node2&#45;&gt;Node3 -->
<g id="edge2" class="edge">
<title>Node2&#45;&gt;Node3</title>
<path fill="none" stroke="#63b8ff" d="M254.37,-44.38C269.33,-46.6 285.3,-48.98 299.66,-51.11"/>
<polygon fill="#63b8ff" stroke="#63b8ff" points="298.86,-54.53 309.27,-52.54 299.89,-47.61 298.86,-54.53"/>
</g>
<!-- Node5 -->
<g id="node5" class="node">
<title>Node5</title>
<g id="a_node5"><a xlink:href="classsensesp_1_1_configurable.html#a0deaa5b717cd0f60d0105835cd6b595a" target="_top" xlink:title=" ">
<polygon fill="white" stroke="#666666" points="404,-30 290,-30 290,0 404,0 404,-30"/>
<text text-anchor="start" x="298" y="-18" font-family="Helvetica,sans-Serif" font-size="10.00">sensesp::Configurable</text>
<text text-anchor="middle" x="347" y="-7" font-family="Helvetica,sans-Serif" font-size="10.00">::set_configuration</text>
</a>
</g>
</g>
<!-- Node2&#45;&gt;Node5 -->
<g id="edge4" class="edge">
<title>Node2&#45;&gt;Node5</title>
<path fill="none" stroke="#63b8ff" d="M254.37,-28C262.26,-26.88 270.43,-25.72 278.49,-24.58"/>
<polygon fill="#63b8ff" stroke="#63b8ff" points="278.87,-28.06 288.28,-23.19 277.89,-21.13 278.87,-28.06"/>
</g>
<!-- Node4 -->
<g id="node4" class="node">
<title>Node4</title>
<g id="a_node4"><a xlink:href="hash_8cpp.html#a5c78d7f77047179963ffda330a0a00ce" target="_top" xlink:title="SHA&#45;1 hash function.">
<polygon fill="white" stroke="#666666" points="479,-67.5 440,-67.5 440,-48.5 479,-48.5 479,-67.5"/>
<text text-anchor="middle" x="459.5" y="-55.5" font-family="Helvetica,sans-Serif" font-size="10.00">Sha1</text>
</a>
</g>
</g>
<!-- Node3&#45;&gt;Node4 -->
<g id="edge3" class="edge">
<title>Node3&#45;&gt;Node4</title>
<path fill="none" stroke="#63b8ff" d="M383.27,-58C397.73,-58 414.3,-58 428.2,-58"/>
<polygon fill="#63b8ff" stroke="#63b8ff" points="428.1,-61.5 438.1,-58 428.1,-54.5 428.1,-61.5"/>
</g>
</g>
</svg>
