<?xml version="1.0" encoding="UTF-8" standalone="no"?>
<!DOCTYPE svg PUBLIC "-//W3C//DTD SVG 1.1//EN"
 "http://www.w3.org/Graphics/SVG/1.1/DTD/svg11.dtd">
<!-- Generated by graphviz version 12.1.0 (20240811.2233)
 -->
<!-- Title: sensesp::Configurable::set_requires_restart Pages: 1 -->
<svg width="289pt" height="174pt"
 viewBox="0.00 0.00 289.00 173.50" xmlns="http://www.w3.org/2000/svg" xmlns:xlink="http://www.w3.org/1999/xlink">
<g id="graph0" class="graph" transform="scale(1 1) rotate(0) translate(4 169.5)">
<title>sensesp::Configurable::set_requires_restart</title>
<!-- Node1 -->
<g id="Node000001" class="node">
<title>Node1</title>
<g id="a_Node000001"><a xlink:title="Set the requires_restart flag.">
<polygon fill="#999999" stroke="#666666" points="281,-94.5 167.5,-94.5 167.5,-64 281,-64 281,-94.5"/>
<text text-anchor="start" x="175.5" y="-81" font-family="Helvetica,sans-Serif" font-size="10.00">sensesp::Configurable</text>
<text text-anchor="middle" x="224.25" y="-69.75" font-family="Helvetica,sans-Serif" font-size="10.00">::set_requires_restart</text>
</a>
</g>
</g>
<!-- Node2 -->
<g id="Node000002" class="node">
<title>Node2</title>
<g id="a_Node000002"><a xlink:href="classsensesp_1_1_analog_input.html#a4b27168640332b403ec93974a5c6ef7c" target="_top" xlink:title=" ">
<polygon fill="white" stroke="#666666" points="121,-165.5 10.5,-165.5 10.5,-135 121,-135 121,-165.5"/>
<text text-anchor="start" x="18.5" y="-152" font-family="Helvetica,sans-Serif" font-size="10.00">sensesp::AnalogInput</text>
<text text-anchor="middle" x="65.75" y="-140.75" font-family="Helvetica,sans-Serif" font-size="10.00">::AnalogInput</text>
</a>
</g>
</g>
<!-- Node1&#45;&gt;Node2 -->
<g id="edge1_Node000001_Node000002" class="edge">
<title>Node1&#45;&gt;Node2</title>
<g id="a_edge1_Node000001_Node000002"><a xlink:title=" ">
<path fill="none" stroke="#63b8ff" d="M183.74,-100.1C167.7,-108.3 148.88,-117.56 131.5,-125.25 124.34,-128.42 116.64,-131.59 109.14,-134.56"/>
<polygon fill="#63b8ff" stroke="#63b8ff" points="185.21,-103.28 192.5,-95.59 182.01,-97.06 185.21,-103.28"/>
</a>
</g>
</g>
<!-- Node3 -->
<g id="Node000003" class="node">
<title>Node3</title>
<g id="a_Node000003"><a xlink:href="classsensesp_1_1_digital_input_state.html#a323b536f360d477b94e10df4ebda9730" target="_top" xlink:title=" ">
<polygon fill="white" stroke="#666666" points="131.5,-116.5 0,-116.5 0,-86 131.5,-86 131.5,-116.5"/>
<text text-anchor="start" x="8" y="-103" font-family="Helvetica,sans-Serif" font-size="10.00">sensesp::DigitalInputState</text>
<text text-anchor="middle" x="65.75" y="-91.75" font-family="Helvetica,sans-Serif" font-size="10.00">::DigitalInputState</text>
</a>
</g>
</g>
<!-- Node1&#45;&gt;Node3 -->
<g id="edge2_Node000001_Node000003" class="edge">
<title>Node1&#45;&gt;Node3</title>
<g id="a_edge2_Node000001_Node000003"><a xlink:title=" ">
<path fill="none" stroke="#63b8ff" d="M155.97,-88.71C147.94,-89.84 139.75,-90.99 131.74,-92.11"/>
<polygon fill="#63b8ff" stroke="#63b8ff" points="156.28,-92.2 165.69,-87.34 155.3,-85.27 156.28,-92.2"/>
</a>
</g>
</g>
<!-- Node4 -->
<g id="Node000004" class="node">
<title>Node4</title>
<g id="a_Node000004"><a xlink:href="classsensesp_1_1_median.html#ac9354051b4140d8cc308b160625b98cc" target="_top" xlink:title=" ">
<polygon fill="white" stroke="#666666" points="129.62,-67.88 1.88,-67.88 1.88,-48.62 129.62,-48.62 129.62,-67.88"/>
<text text-anchor="middle" x="65.75" y="-54.38" font-family="Helvetica,sans-Serif" font-size="10.00">sensesp::Median::Median</text>
</a>
</g>
</g>
<!-- Node1&#45;&gt;Node4 -->
<g id="edge3_Node000001_Node000004" class="edge">
<title>Node1&#45;&gt;Node4</title>
<g id="a_edge3_Node000001_Node000004"><a xlink:title=" ">
<path fill="none" stroke="#63b8ff" d="M155.95,-70.22C147.29,-69.06 138.45,-67.87 129.86,-66.72"/>
<polygon fill="#63b8ff" stroke="#63b8ff" points="155.32,-73.67 165.69,-71.53 156.25,-66.73 155.32,-73.67"/>
</a>
</g>
</g>
<!-- Node5 -->
<g id="Node000005" class="node">
<title>Node5</title>
<g id="a_Node000005"><a xlink:href="classsensesp_1_1_moving_average.html#a93fb5bbf3076efcf486a36fb197efffb" target="_top" xlink:title=" ">
<polygon fill="white" stroke="#666666" points="128.88,-30.5 2.62,-30.5 2.62,0 128.88,0 128.88,-30.5"/>
<text text-anchor="start" x="10.62" y="-17" font-family="Helvetica,sans-Serif" font-size="10.00">sensesp::MovingAverage</text>
<text text-anchor="middle" x="65.75" y="-5.75" font-family="Helvetica,sans-Serif" font-size="10.00">::MovingAverage</text>
</a>
</g>
</g>
<!-- Node1&#45;&gt;Node5 -->
<g id="edge4_Node000001_Node000005" class="edge">
<title>Node1&#45;&gt;Node5</title>
<g id="a_edge4_Node000001_Node000005"><a xlink:title=" ">
<path fill="none" stroke="#63b8ff" d="M178.17,-59C163.38,-52.51 146.8,-45.42 131.5,-39.25 124.61,-36.47 117.25,-33.63 110.07,-30.92"/>
<polygon fill="#63b8ff" stroke="#63b8ff" points="176.64,-62.15 187.2,-62.98 179.47,-55.74 176.64,-62.15"/>
</a>
</g>
</g>
</g>
</svg>
