<?xml version="1.0" encoding="UTF-8" standalone="no"?>
<!DOCTYPE svg PUBLIC "-//W3C//DTD SVG 1.1//EN"
 "http://www.w3.org/Graphics/SVG/1.1/DTD/svg11.dtd">
<!-- Generated by graphviz version 13.0.0 (20250608.1624)
 -->
<!-- Title: sensesp::Observable::notify Pages: 1 -->
<svg width="710pt" height="865pt"
 viewBox="0.00 0.00 710.00 865.00" xmlns="http://www.w3.org/2000/svg" xmlns:xlink="http://www.w3.org/1999/xlink">
<g id="graph0" class="graph" transform="scale(1 1) rotate(0) translate(4 860.88)">
<title>sensesp::Observable::notify</title>
<!-- Node1 -->
<g id="Node000001" class="node">
<title>Node1</title>
<g id="a_Node000001"><a xlink:title=" ">
<polygon fill="#999999" stroke="#666666" points="701.5,-233.5 593.25,-233.5 593.25,-203 701.5,-203 701.5,-233.5"/>
<text xml:space="preserve" text-anchor="start" x="601.25" y="-220" font-family="Helvetica,sans-Serif" font-size="10.00">sensesp::Observable</text>
<text xml:space="preserve" text-anchor="middle" x="647.38" y="-208.75" font-family="Helvetica,sans-Serif" font-size="10.00">::notify</text>
</a>
</g>
</g>
<!-- Node2 -->
<g id="Node000002" class="node">
<title>Node2</title>
<g id="a_Node000002"><a xlink:href="classsensesp_1_1_digital_input_change.html#afdbdc05bb8cd2bbe78f365e7a48ba2f5" target="_top" xlink:title=" ">
<polygon fill="white" stroke="#666666" points="549.75,-670.5 407.75,-670.5 407.75,-640 549.75,-640 549.75,-670.5"/>
<text xml:space="preserve" text-anchor="start" x="415.75" y="-657" font-family="Helvetica,sans-Serif" font-size="10.00">sensesp::DigitalInputChange</text>
<text xml:space="preserve" text-anchor="middle" x="478.75" y="-645.75" font-family="Helvetica,sans-Serif" font-size="10.00">::DigitalInputChange</text>
</a>
</g>
</g>
<!-- Node1&#45;&gt;Node2 -->
<g id="edge1_Node000001_Node000002" class="edge">
<title>Node1&#45;&gt;Node2</title>
<g id="a_edge1_Node000001_Node000002"><a xlink:title=" ">
<path fill="none" stroke="#63b8ff" d="M644.06,-244.8C636.42,-326.58 609.47,-572.59 557.25,-630.25 553.93,-633.92 550.07,-637.05 545.87,-639.72"/>
<polygon fill="#63b8ff" stroke="#63b8ff" points="647.53,-245.34 644.95,-235.06 640.55,-244.7 647.53,-245.34"/>
</a>
</g>
</g>
<!-- Node3 -->
<g id="Node000003" class="node">
<title>Node3</title>
<g id="a_Node000003"><a xlink:href="classsensesp_1_1_value_producer.html#a4f5f0259d0d3cd9a0ed17d657cac04e2" target="_top" xlink:title=" ">
<polygon fill="white" stroke="#666666" points="539.62,-621.5 417.88,-621.5 417.88,-591 539.62,-591 539.62,-621.5"/>
<text xml:space="preserve" text-anchor="start" x="425.88" y="-608" font-family="Helvetica,sans-Serif" font-size="10.00">sensesp::ValueProducer</text>
<text xml:space="preserve" text-anchor="middle" x="478.75" y="-596.75" font-family="Helvetica,sans-Serif" font-size="10.00">&lt; float &gt;::emit</text>
</a>
</g>
</g>
<!-- Node1&#45;&gt;Node3 -->
<g id="edge2_Node000001_Node000003" class="edge">
<title>Node1&#45;&gt;Node3</title>
<g id="a_edge2_Node000001_Node000003"><a xlink:title=" ">
<path fill="none" stroke="#63b8ff" d="M635.19,-244.29C603.17,-318.85 511.82,-531.58 486.39,-590.79"/>
<polygon fill="#63b8ff" stroke="#63b8ff" points="638.31,-245.9 639.04,-235.33 631.88,-243.14 638.31,-245.9"/>
</a>
</g>
</g>
<!-- Node18 -->
<g id="Node000018" class="node">
<title>Node18</title>
<g id="a_Node000018"><a xlink:href="classsensesp_1_1_repeat_expiring.html#a1096128a98bb357833267cd48b6866ba" target="_top" xlink:title=" ">
<polygon fill="white" stroke="#666666" points="541.5,-362.5 416,-362.5 416,-332 541.5,-332 541.5,-362.5"/>
<text xml:space="preserve" text-anchor="start" x="424" y="-349" font-family="Helvetica,sans-Serif" font-size="10.00">sensesp::RepeatExpiring</text>
<text xml:space="preserve" text-anchor="middle" x="478.75" y="-337.75" font-family="Helvetica,sans-Serif" font-size="10.00">::repeat_function</text>
</a>
</g>
</g>
<!-- Node1&#45;&gt;Node18 -->
<g id="edge17_Node000001_Node000018" class="edge">
<title>Node1&#45;&gt;Node18</title>
<g id="a_edge17_Node000001_Node000018"><a xlink:title=" ">
<path fill="none" stroke="#63b8ff" d="M630.84,-243.3C615.03,-266.84 588.46,-301.48 557.25,-322.25 551.84,-325.85 545.87,-328.97 539.71,-331.65"/>
<polygon fill="#63b8ff" stroke="#63b8ff" points="633.77,-245.21 636.31,-234.93 627.91,-241.39 633.77,-245.21"/>
</a>
</g>
</g>
<!-- Node22 -->
<g id="Node000022" class="node">
<title>Node22</title>
<g id="a_Node000022"><a xlink:href="classsensesp_1_1_repeat_stopping.html#a606febcbc3dae350f6b8b1141989b7a3" target="_top" xlink:title=" ">
<polygon fill="white" stroke="#666666" points="543,-313.5 414.5,-313.5 414.5,-283 543,-283 543,-313.5"/>
<text xml:space="preserve" text-anchor="start" x="422.5" y="-300" font-family="Helvetica,sans-Serif" font-size="10.00">sensesp::RepeatStopping</text>
<text xml:space="preserve" text-anchor="middle" x="478.75" y="-288.75" font-family="Helvetica,sans-Serif" font-size="10.00">::repeat_function</text>
</a>
</g>
</g>
<!-- Node1&#45;&gt;Node22 -->
<g id="edge22_Node000001_Node000022" class="edge">
<title>Node1&#45;&gt;Node22</title>
<g id="a_edge22_Node000001_Node000022"><a xlink:title=" ">
<path fill="none" stroke="#63b8ff" d="M615.69,-240.32C599.01,-251.6 577.66,-264.88 557.25,-274.25 550.59,-277.31 543.45,-280.11 536.28,-282.64"/>
<polygon fill="#63b8ff" stroke="#63b8ff" points="617.44,-243.37 623.69,-234.82 613.47,-237.61 617.44,-243.37"/>
</a>
</g>
</g>
<!-- Node25 -->
<g id="Node000025" class="node">
<title>Node25</title>
<g id="a_Node000025"><a xlink:href="classsensesp_1_1_curve_interpolator.html#a31e8c98cbc19e87bc4086895631511de" target="_top" xlink:title=" ">
<polygon fill="white" stroke="#666666" points="555.38,-264.88 402.12,-264.88 402.12,-245.62 555.38,-245.62 555.38,-264.88"/>
<text xml:space="preserve" text-anchor="middle" x="478.75" y="-251.38" font-family="Helvetica,sans-Serif" font-size="10.00">sensesp::CurveInterpolator::set</text>
</a>
</g>
</g>
<!-- Node1&#45;&gt;Node25 -->
<g id="edge25_Node000001_Node000025" class="edge">
<title>Node1&#45;&gt;Node25</title>
<g id="a_edge25_Node000001_Node000025"><a xlink:title=" ">
<path fill="none" stroke="#63b8ff" d="M582.19,-232.5C563.16,-236.73 542.72,-241.27 525.15,-245.17"/>
<polygon fill="#63b8ff" stroke="#63b8ff" points="582.71,-235.97 591.72,-230.39 581.2,-229.14 582.71,-235.97"/>
</a>
</g>
</g>
<!-- Node26 -->
<g id="Node000026" class="node">
<title>Node26</title>
<g id="a_Node000026"><a xlink:href="classsensesp_1_1_lambda_transform.html#aeeb025a48bf35e072945cbc0f254f1d1" target="_top" xlink:title=" ">
<polygon fill="white" stroke="#666666" points="557.25,-227.88 400.25,-227.88 400.25,-208.62 557.25,-208.62 557.25,-227.88"/>
<text xml:space="preserve" text-anchor="middle" x="478.75" y="-214.38" font-family="Helvetica,sans-Serif" font-size="10.00">sensesp::LambdaTransform::set</text>
</a>
</g>
</g>
<!-- Node1&#45;&gt;Node26 -->
<g id="edge26_Node000001_Node000026" class="edge">
<title>Node1&#45;&gt;Node26</title>
<g id="a_edge26_Node000001_Node000026"><a xlink:title=" ">
<path fill="none" stroke="#63b8ff" d="M581.8,-218.25C573.88,-218.25 565.72,-218.25 557.63,-218.25"/>
<polygon fill="#63b8ff" stroke="#63b8ff" points="581.68,-221.75 591.68,-218.25 581.68,-214.75 581.68,-221.75"/>
</a>
</g>
</g>
<!-- Node27 -->
<g id="Node000027" class="node">
<title>Node27</title>
<g id="a_Node000027"><a xlink:href="classsensesp_1_1_median.html#a2b46637b8a2b58c0f3d03f41a1c4c94a" target="_top" xlink:title=" ">
<polygon fill="white" stroke="#666666" points="533.62,-190.88 423.88,-190.88 423.88,-171.62 533.62,-171.62 533.62,-190.88"/>
<text xml:space="preserve" text-anchor="middle" x="478.75" y="-177.38" font-family="Helvetica,sans-Serif" font-size="10.00">sensesp::Median::set</text>
</a>
</g>
</g>
<!-- Node1&#45;&gt;Node27 -->
<g id="edge27_Node000001_Node000027" class="edge">
<title>Node1&#45;&gt;Node27</title>
<g id="a_edge27_Node000001_Node000027"><a xlink:title=" ">
<path fill="none" stroke="#63b8ff" d="M582.19,-204C563.16,-199.77 542.72,-195.23 525.15,-191.33"/>
<polygon fill="#63b8ff" stroke="#63b8ff" points="581.2,-207.36 591.72,-206.11 582.71,-200.53 581.2,-207.36"/>
</a>
</g>
</g>
<!-- Node28 -->
<g id="Node000028" class="node">
<title>Node28</title>
<g id="a_Node000028"><a xlink:href="classsensesp_1_1_moving_average.html#a1eb68e6b84301a9cc25624e216108b53" target="_top" xlink:title=" ">
<polygon fill="white" stroke="#666666" points="551.62,-153.88 405.88,-153.88 405.88,-134.62 551.62,-134.62 551.62,-153.88"/>
<text xml:space="preserve" text-anchor="middle" x="478.75" y="-140.38" font-family="Helvetica,sans-Serif" font-size="10.00">sensesp::MovingAverage::set</text>
</a>
</g>
</g>
<!-- Node1&#45;&gt;Node28 -->
<g id="edge28_Node000001_Node000028" class="edge">
<title>Node1&#45;&gt;Node28</title>
<g id="a_edge28_Node000001_Node000028"><a xlink:title=" ">
<path fill="none" stroke="#63b8ff" d="M616.63,-196.04C599.93,-184.49 578.26,-171 557.25,-162.25 549.85,-159.17 541.83,-156.56 533.85,-154.37"/>
<polygon fill="#63b8ff" stroke="#63b8ff" points="614.43,-198.77 624.62,-201.69 618.48,-193.06 614.43,-198.77"/>
</a>
</g>
</g>
<!-- Node29 -->
<g id="Node000029" class="node">
<title>Node29</title>
<g id="a_Node000029"><a xlink:href="classsensesp_1_1_repeat.html#a7860fc763aec53e19d2f22b75d86e702" target="_top" xlink:title=" ">
<polygon fill="white" stroke="#666666" points="533.62,-116.88 423.88,-116.88 423.88,-97.62 533.62,-97.62 533.62,-116.88"/>
<text xml:space="preserve" text-anchor="middle" x="478.75" y="-103.38" font-family="Helvetica,sans-Serif" font-size="10.00">sensesp::Repeat::set</text>
</a>
</g>
</g>
<!-- Node1&#45;&gt;Node29 -->
<g id="edge29_Node000001_Node000029" class="edge">
<title>Node1&#45;&gt;Node29</title>
<g id="a_edge29_Node000001_Node000029"><a xlink:title=" ">
<path fill="none" stroke="#63b8ff" d="M629.3,-193.62C613.18,-172.28 587.08,-142.23 557.25,-125.25 550.05,-121.15 541.96,-117.98 533.81,-115.54"/>
<polygon fill="#63b8ff" stroke="#63b8ff" points="626.35,-195.52 635.08,-201.52 632,-191.39 626.35,-195.52"/>
</a>
</g>
</g>
<!-- Node30 -->
<g id="Node000030" class="node">
<title>Node30</title>
<g id="a_Node000030"><a xlink:href="classsensesp_1_1_threshold_transform.html#a3834a525a85a0061b2cbfadcf31c36c4" target="_top" xlink:title=" ">
<polygon fill="white" stroke="#666666" points="551.62,-79.5 405.88,-79.5 405.88,-49 551.62,-49 551.62,-79.5"/>
<text xml:space="preserve" text-anchor="start" x="413.88" y="-66" font-family="Helvetica,sans-Serif" font-size="10.00">sensesp::ThresholdTransform</text>
<text xml:space="preserve" text-anchor="middle" x="478.75" y="-54.75" font-family="Helvetica,sans-Serif" font-size="10.00">&lt; float &gt;::set</text>
</a>
</g>
</g>
<!-- Node1&#45;&gt;Node30 -->
<g id="edge30_Node000001_Node000030" class="edge">
<title>Node1&#45;&gt;Node30</title>
<g id="a_edge30_Node000001_Node000030"><a xlink:title=" ">
<path fill="none" stroke="#63b8ff" d="M635.04,-192.18C620.95,-162.75 594.17,-115.46 557.25,-88.25 552.94,-85.07 548.2,-82.31 543.26,-79.91"/>
<polygon fill="#63b8ff" stroke="#63b8ff" points="631.8,-193.52 639.18,-201.13 638.16,-190.58 631.8,-193.52"/>
</a>
</g>
</g>
<!-- Node31 -->
<g id="Node000031" class="node">
<title>Node31</title>
<g id="a_Node000031"><a xlink:href="classsensesp_1_1_system_hz.html#af3e6610312371166f4bfd3758a91f8b5" target="_top" xlink:title=" ">
<polygon fill="white" stroke="#666666" points="534.38,-30.5 423.12,-30.5 423.12,0 534.38,0 534.38,-30.5"/>
<text xml:space="preserve" text-anchor="start" x="431.12" y="-17" font-family="Helvetica,sans-Serif" font-size="10.00">sensesp::SystemHz::</text>
<text xml:space="preserve" text-anchor="middle" x="478.75" y="-5.75" font-family="Helvetica,sans-Serif" font-size="10.00">update</text>
</a>
</g>
</g>
<!-- Node1&#45;&gt;Node31 -->
<g id="edge31_Node000001_Node000031" class="edge">
<title>Node1&#45;&gt;Node31</title>
<g id="a_edge31_Node000001_Node000031"><a xlink:title=" ">
<path fill="none" stroke="#63b8ff" d="M640.09,-191.73C629.56,-152.94 604.66,-80.95 557.25,-40.25 550.71,-34.63 542.88,-30.27 534.76,-26.89"/>
<polygon fill="#63b8ff" stroke="#63b8ff" points="636.64,-192.36 642.53,-201.16 643.42,-190.61 636.64,-192.36"/>
</a>
</g>
</g>
<!-- Node4 -->
<g id="Node000004" class="node">
<title>Node4</title>
<g id="a_Node000004"><a xlink:href="classsensesp_1_1_air_density.html#af4b67916f46d7ed47ed85f46d56c0c51" target="_top" xlink:title=" ">
<polygon fill="white" stroke="#666666" points="337.62,-856.88 213.62,-856.88 213.62,-837.62 337.62,-837.62 337.62,-856.88"/>
<text xml:space="preserve" text-anchor="middle" x="275.62" y="-843.38" font-family="Helvetica,sans-Serif" font-size="10.00">sensesp::AirDensity::set</text>
</a>
</g>
</g>
<!-- Node3&#45;&gt;Node4 -->
<g id="edge3_Node000003_Node000004" class="edge">
<title>Node3&#45;&gt;Node4</title>
<g id="a_edge3_Node000003_Node000004"><a xlink:title=" ">
<path fill="none" stroke="#63b8ff" d="M407.91,-624.16C405.13,-626.27 402.55,-628.62 400.25,-631.25 341.32,-698.53 426.77,-765.29 364.25,-829.25 357.09,-836.58 347.79,-841.33 337.94,-844.34"/>
<polygon fill="#63b8ff" stroke="#63b8ff" points="409.48,-627.31 416.11,-619.04 405.77,-621.37 409.48,-627.31"/>
</a>
</g>
</g>
<!-- Node5 -->
<g id="Node000005" class="node">
<title>Node5</title>
<g id="a_Node000005"><a xlink:href="classsensesp_1_1_analog_voltage.html#a1338dea7dceab0765d97d2d316216afa" target="_top" xlink:title=" ">
<polygon fill="white" stroke="#666666" points="346.25,-819.88 205,-819.88 205,-800.62 346.25,-800.62 346.25,-819.88"/>
<text xml:space="preserve" text-anchor="middle" x="275.62" y="-806.38" font-family="Helvetica,sans-Serif" font-size="10.00">sensesp::AnalogVoltage::set</text>
</a>
</g>
</g>
<!-- Node3&#45;&gt;Node5 -->
<g id="edge4_Node000003_Node000005" class="edge">
<title>Node3&#45;&gt;Node5</title>
<g id="a_edge4_Node000003_Node000005"><a xlink:title=" ">
<path fill="none" stroke="#63b8ff" d="M408.04,-624.28C405.22,-626.35 402.6,-628.67 400.25,-631.25 350.84,-685.43 416.55,-740.86 364.25,-792.25 359.15,-797.26 353.06,-801.05 346.49,-803.89"/>
<polygon fill="#63b8ff" stroke="#63b8ff" points="409.61,-627.42 416.31,-619.21 405.95,-621.45 409.61,-627.42"/>
</a>
</g>
</g>
<!-- Node6 -->
<g id="Node000006" class="node">
<title>Node6</title>
<g id="a_Node000006"><a xlink:href="classsensesp_1_1_angle_correction.html#aad55f9af36cb6eacaa69360db0d4af6d" target="_top" xlink:title=" ">
<polygon fill="white" stroke="#666666" points="349.62,-782.88 201.62,-782.88 201.62,-763.62 349.62,-763.62 349.62,-782.88"/>
<text xml:space="preserve" text-anchor="middle" x="275.62" y="-769.38" font-family="Helvetica,sans-Serif" font-size="10.00">sensesp::AngleCorrection::set</text>
</a>
</g>
</g>
<!-- Node3&#45;&gt;Node6 -->
<g id="edge5_Node000003_Node000006" class="edge">
<title>Node3&#45;&gt;Node6</title>
<g id="a_edge5_Node000003_Node000006"><a xlink:title=" ">
<path fill="none" stroke="#63b8ff" d="M407.79,-624.77C405.09,-626.72 402.56,-628.87 400.25,-631.25 360.27,-672.42 406.42,-716.33 364.25,-755.25 360.03,-759.15 355.2,-762.29 350.02,-764.83"/>
<polygon fill="#63b8ff" stroke="#63b8ff" points="409.47,-627.85 416.23,-619.69 405.86,-621.85 409.47,-627.85"/>
</a>
</g>
</g>
<!-- Node7 -->
<g id="Node000007" class="node">
<title>Node7</title>
<g id="a_Node000007"><a xlink:href="classsensesp_1_1_change_filter.html#a8c98aae72dcdc20ff95437a3e5a7dda4" target="_top" xlink:title=" ">
<polygon fill="white" stroke="#666666" points="342.5,-745.88 208.75,-745.88 208.75,-726.62 342.5,-726.62 342.5,-745.88"/>
<text xml:space="preserve" text-anchor="middle" x="275.62" y="-732.38" font-family="Helvetica,sans-Serif" font-size="10.00">sensesp::ChangeFilter::set</text>
</a>
</g>
</g>
<!-- Node3&#45;&gt;Node7 -->
<g id="edge6_Node000003_Node000007" class="edge">
<title>Node3&#45;&gt;Node7</title>
<g id="a_edge6_Node000003_Node000007"><a xlink:title=" ">
<path fill="none" stroke="#63b8ff" d="M407.94,-625.21C405.22,-627.04 402.64,-629.05 400.25,-631.25 369.5,-659.63 396.51,-691.6 364.25,-718.25 357.9,-723.49 350.43,-727.34 342.57,-730.13"/>
<polygon fill="#63b8ff" stroke="#63b8ff" points="409.42,-628.4 416.35,-620.39 405.94,-622.32 409.42,-628.4"/>
</a>
</g>
</g>
<!-- Node8 -->
<g id="Node000008" class="node">
<title>Node8</title>
<g id="a_Node000008"><a xlink:href="classsensesp_1_1_dew_point.html#ac492d76df291893929ddf5d3f44dba73" target="_top" xlink:title=" ">
<polygon fill="white" stroke="#666666" points="336.12,-708.88 215.12,-708.88 215.12,-689.62 336.12,-689.62 336.12,-708.88"/>
<text xml:space="preserve" text-anchor="middle" x="275.62" y="-695.38" font-family="Helvetica,sans-Serif" font-size="10.00">sensesp::DewPoint::set</text>
</a>
</g>
</g>
<!-- Node3&#45;&gt;Node8 -->
<g id="edge7_Node000003_Node000008" class="edge">
<title>Node3&#45;&gt;Node8</title>
<g id="a_edge7_Node000003_Node000008"><a xlink:title=" ">
<path fill="none" stroke="#63b8ff" d="M407.47,-626.55C404.97,-628.01 402.55,-629.58 400.25,-631.25 378.11,-647.37 387.23,-666.37 364.25,-681.25 355.91,-686.65 346.26,-690.48 336.48,-693.18"/>
<polygon fill="#63b8ff" stroke="#63b8ff" points="408.84,-629.78 416.12,-622.08 405.63,-623.55 408.84,-629.78"/>
</a>
</g>
</g>
<!-- Node9 -->
<g id="Node000009" class="node">
<title>Node9</title>
<g id="a_Node000009"><a xlink:href="classsensesp_1_1_frequency.html#a5fbd796b93ba79546c21f7cb0cd435a6" target="_top" xlink:title=" ">
<polygon fill="white" stroke="#666666" points="337.62,-671.88 213.62,-671.88 213.62,-652.62 337.62,-652.62 337.62,-671.88"/>
<text xml:space="preserve" text-anchor="middle" x="275.62" y="-658.38" font-family="Helvetica,sans-Serif" font-size="10.00">sensesp::Frequency::set</text>
</a>
</g>
</g>
<!-- Node3&#45;&gt;Node9 -->
<g id="edge8_Node000003_Node000009" class="edge">
<title>Node3&#45;&gt;Node9</title>
<g id="a_edge8_Node000003_Node000009"><a xlink:title=" ">
<path fill="none" stroke="#63b8ff" d="M417.81,-625.36C411.87,-627.32 405.94,-629.31 400.25,-631.25 384.15,-636.75 380.62,-639.64 364.25,-644.25 353.79,-647.2 342.49,-649.88 331.61,-652.22"/>
<polygon fill="#63b8ff" stroke="#63b8ff" points="418.62,-628.78 427.03,-622.34 416.44,-622.13 418.62,-628.78"/>
</a>
</g>
</g>
<!-- Node10 -->
<g id="Node000010" class="node">
<title>Node10</title>
<g id="a_Node000010"><a xlink:href="classsensesp_1_1_heat_index_temperature.html#a14b2c59540ce500de660075b5e57e8fe" target="_top" xlink:title=" ">
<polygon fill="white" stroke="#666666" points="364.25,-634.88 187,-634.88 187,-615.62 364.25,-615.62 364.25,-634.88"/>
<text xml:space="preserve" text-anchor="middle" x="275.62" y="-621.38" font-family="Helvetica,sans-Serif" font-size="10.00">sensesp::HeatIndexTemperature::set</text>
</a>
</g>
</g>
<!-- Node3&#45;&gt;Node10 -->
<g id="edge9_Node000003_Node000010" class="edge">
<title>Node3&#45;&gt;Node10</title>
<g id="a_edge9_Node000003_Node000010"><a xlink:title=" ">
<path fill="none" stroke="#63b8ff" d="M406.24,-613.01C392.71,-614.28 378.41,-615.63 364.44,-616.95"/>
<polygon fill="#63b8ff" stroke="#63b8ff" points="406.27,-616.52 415.9,-612.09 405.61,-609.55 406.27,-616.52"/>
</a>
</g>
</g>
<!-- Node11 -->
<g id="Node000011" class="node">
<title>Node11</title>
<g id="a_Node000011"><a xlink:href="classsensesp_1_1_voltage_divider_r1.html#a2903fe9a7a57dabb480a2d6e946c69fd" target="_top" xlink:title=" ">
<polygon fill="white" stroke="#666666" points="353,-597.88 198.25,-597.88 198.25,-578.62 353,-578.62 353,-597.88"/>
<text xml:space="preserve" text-anchor="middle" x="275.62" y="-584.38" font-family="Helvetica,sans-Serif" font-size="10.00">sensesp::VoltageDividerR1::set</text>
</a>
</g>
</g>
<!-- Node3&#45;&gt;Node11 -->
<g id="edge10_Node000003_Node000011" class="edge">
<title>Node3&#45;&gt;Node11</title>
<g id="a_edge10_Node000003_Node000011"><a xlink:title=" ">
<path fill="none" stroke="#63b8ff" d="M406.33,-599.86C389.16,-598.32 370.75,-596.67 353.36,-595.12"/>
<polygon fill="#63b8ff" stroke="#63b8ff" points="405.63,-603.31 415.9,-600.71 406.25,-596.34 405.63,-603.31"/>
</a>
</g>
</g>
<!-- Node12 -->
<g id="Node000012" class="node">
<title>Node12</title>
<g id="a_Node000012"><a xlink:href="classsensesp_1_1_voltage_divider_r2.html#adb5a98572136c114aa37017ac39d3ac9" target="_top" xlink:title=" ">
<polygon fill="white" stroke="#666666" points="353,-560.88 198.25,-560.88 198.25,-541.62 353,-541.62 353,-560.88"/>
<text xml:space="preserve" text-anchor="middle" x="275.62" y="-547.38" font-family="Helvetica,sans-Serif" font-size="10.00">sensesp::VoltageDividerR2::set</text>
</a>
</g>
</g>
<!-- Node3&#45;&gt;Node12 -->
<g id="edge11_Node000003_Node000012" class="edge">
<title>Node3&#45;&gt;Node12</title>
<g id="a_edge11_Node000003_Node000012"><a xlink:title=" ">
<path fill="none" stroke="#63b8ff" d="M422.76,-586.94C404.3,-580.83 383.5,-574.35 364.25,-569.25 353.44,-566.39 341.78,-563.71 330.6,-561.34"/>
<polygon fill="#63b8ff" stroke="#63b8ff" points="421.59,-590.25 432.19,-590.1 423.82,-583.61 421.59,-590.25"/>
</a>
</g>
</g>
<!-- Node13 -->
<g id="Node000013" class="node">
<title>Node13</title>
<g id="a_Node000013"><a xlink:href="classsensesp_1_1_voltage_multiplier.html#a2c81d146d3c2fa9cf418567378e835dd" target="_top" xlink:title=" ">
<polygon fill="white" stroke="#666666" points="350.75,-523.88 200.5,-523.88 200.5,-504.62 350.75,-504.62 350.75,-523.88"/>
<text xml:space="preserve" text-anchor="middle" x="275.62" y="-510.38" font-family="Helvetica,sans-Serif" font-size="10.00">sensesp::VoltageMultiplier::set</text>
</a>
</g>
</g>
<!-- Node3&#45;&gt;Node13 -->
<g id="edge12_Node000003_Node000013" class="edge">
<title>Node3&#45;&gt;Node13</title>
<g id="a_edge12_Node000003_Node000013"><a xlink:title=" ">
<path fill="none" stroke="#63b8ff" d="M449.85,-583.76C427.84,-567.12 395.71,-545.19 364.25,-532.25 356.64,-529.12 348.42,-526.51 340.18,-524.35"/>
<polygon fill="#63b8ff" stroke="#63b8ff" points="447.66,-586.49 457.72,-589.83 451.94,-580.95 447.66,-586.49"/>
</a>
</g>
</g>
<!-- Node14 -->
<g id="Node000014" class="node">
<title>Node14</title>
<g id="a_Node000014"><a xlink:href="classsensesp_1_1_analog_input.html#a34f0a14b85ba05414add6e3206ca53e1" target="_top" xlink:title=" ">
<polygon fill="white" stroke="#666666" points="330.88,-486.5 220.38,-486.5 220.38,-456 330.88,-456 330.88,-486.5"/>
<text xml:space="preserve" text-anchor="start" x="228.38" y="-473" font-family="Helvetica,sans-Serif" font-size="10.00">sensesp::AnalogInput</text>
<text xml:space="preserve" text-anchor="middle" x="275.62" y="-461.75" font-family="Helvetica,sans-Serif" font-size="10.00">::update</text>
</a>
</g>
</g>
<!-- Node3&#45;&gt;Node14 -->
<g id="edge13_Node000003_Node000014" class="edge">
<title>Node3&#45;&gt;Node14</title>
<g id="a_edge13_Node000003_Node000014"><a xlink:title=" ">
<path fill="none" stroke="#63b8ff" d="M459.18,-581.87C438.65,-556.57 403.26,-517.63 364.25,-495.25 354.13,-489.44 342.53,-484.99 331.17,-481.59"/>
<polygon fill="#63b8ff" stroke="#63b8ff" points="456.4,-584 465.36,-589.65 461.89,-579.64 456.4,-584"/>
</a>
</g>
</g>
<!-- Node16 -->
<g id="Node000016" class="node">
<title>Node16</title>
<g id="a_Node000016"><a xlink:href="classsensesp_1_1_uptime.html#a0ce62b52f6fd437d299838b6d75e6ab8" target="_top" xlink:title=" ">
<polygon fill="white" stroke="#666666" points="338.38,-437.88 212.88,-437.88 212.88,-418.62 338.38,-418.62 338.38,-437.88"/>
<text xml:space="preserve" text-anchor="middle" x="275.62" y="-424.38" font-family="Helvetica,sans-Serif" font-size="10.00">sensesp::Uptime::update</text>
</a>
</g>
</g>
<!-- Node3&#45;&gt;Node16 -->
<g id="edge15_Node000003_Node000016" class="edge">
<title>Node3&#45;&gt;Node16</title>
<g id="a_edge15_Node000003_Node000016"><a xlink:title=" ">
<path fill="none" stroke="#63b8ff" d="M466.75,-580.53C450.06,-544.73 414.83,-480.54 364.25,-447.25 356.58,-442.2 347.79,-438.47 338.8,-435.72"/>
<polygon fill="#63b8ff" stroke="#63b8ff" points="463.4,-581.61 470.71,-589.28 469.78,-578.73 463.4,-581.61"/>
</a>
</g>
</g>
<!-- Node15 -->
<g id="Node000015" class="node">
<title>Node15</title>
<g id="a_Node000015"><a xlink:href="classsensesp_1_1_analog_input.html#a4b27168640332b403ec93974a5c6ef7c" target="_top" xlink:title=" ">
<polygon fill="white" stroke="#666666" points="130.75,-486.5 20.25,-486.5 20.25,-456 130.75,-456 130.75,-486.5"/>
<text xml:space="preserve" text-anchor="start" x="28.25" y="-473" font-family="Helvetica,sans-Serif" font-size="10.00">sensesp::AnalogInput</text>
<text xml:space="preserve" text-anchor="middle" x="75.5" y="-461.75" font-family="Helvetica,sans-Serif" font-size="10.00">::AnalogInput</text>
</a>
</g>
</g>
<!-- Node14&#45;&gt;Node15 -->
<g id="edge14_Node000014_Node000015" class="edge">
<title>Node14&#45;&gt;Node15</title>
<g id="a_edge14_Node000014_Node000015"><a xlink:title=" ">
<path fill="none" stroke="#63b8ff" d="M208.64,-471.25C183.43,-471.25 155,-471.25 130.98,-471.25"/>
<polygon fill="#63b8ff" stroke="#63b8ff" points="208.45,-474.75 218.45,-471.25 208.45,-467.75 208.45,-474.75"/>
</a>
</g>
</g>
<!-- Node17 -->
<g id="Node000017" class="node">
<title>Node17</title>
<g id="a_Node000017"><a xlink:href="classsensesp_1_1_uptime.html#a389653f52423ec784b2230537084581b" target="_top" xlink:title=" ">
<polygon fill="white" stroke="#666666" points="139.38,-437.88 11.62,-437.88 11.62,-418.62 139.38,-418.62 139.38,-437.88"/>
<text xml:space="preserve" text-anchor="middle" x="75.5" y="-424.38" font-family="Helvetica,sans-Serif" font-size="10.00">sensesp::Uptime::Uptime</text>
</a>
</g>
</g>
<!-- Node16&#45;&gt;Node17 -->
<g id="edge16_Node000016_Node000017" class="edge">
<title>Node16&#45;&gt;Node17</title>
<g id="a_edge16_Node000016_Node000017"><a xlink:title=" ">
<path fill="none" stroke="#63b8ff" d="M201.14,-428.25C180.99,-428.25 159.32,-428.25 139.79,-428.25"/>
<polygon fill="#63b8ff" stroke="#63b8ff" points="200.97,-431.75 210.97,-428.25 200.97,-424.75 200.97,-431.75"/>
</a>
</g>
</g>
<!-- Node19 -->
<g id="Node000019" class="node">
<title>Node19</title>
<g id="a_Node000019"><a xlink:href="classsensesp_1_1_repeat_constant_rate.html#af9a70d28094c7db4b19ac8d8ade2ea85" target="_top" xlink:title=" ">
<polygon fill="white" stroke="#666666" points="151,-381.5 0,-381.5 0,-351 151,-351 151,-381.5"/>
<text xml:space="preserve" text-anchor="start" x="8" y="-368" font-family="Helvetica,sans-Serif" font-size="10.00">sensesp::RepeatConstantRate</text>
<text xml:space="preserve" text-anchor="middle" x="75.5" y="-356.75" font-family="Helvetica,sans-Serif" font-size="10.00">::RepeatConstantRate</text>
</a>
</g>
</g>
<!-- Node18&#45;&gt;Node19 -->
<g id="edge18_Node000018_Node000019" class="edge">
<title>Node18&#45;&gt;Node19</title>
<g id="a_edge18_Node000018_Node000019"><a xlink:title=" ">
<path fill="none" stroke="#63b8ff" d="M404.61,-365.05C391.26,-367.63 377.4,-369.88 364.25,-371.25 292.19,-378.78 209.45,-376.18 151.24,-372.5"/>
<polygon fill="#63b8ff" stroke="#63b8ff" points="405.09,-368.52 414.19,-363.11 403.7,-361.66 405.09,-368.52"/>
</a>
</g>
</g>
<!-- Node20 -->
<g id="Node000020" class="node">
<title>Node20</title>
<g id="a_Node000020"><a xlink:href="classsensesp_1_1_repeat_expiring.html#a09a58b00a5d052a2af34c6a4c2b80234" target="_top" xlink:title=" ">
<polygon fill="white" stroke="#666666" points="338.38,-362.5 212.88,-362.5 212.88,-332 338.38,-332 338.38,-362.5"/>
<text xml:space="preserve" text-anchor="start" x="220.88" y="-349" font-family="Helvetica,sans-Serif" font-size="10.00">sensesp::RepeatExpiring</text>
<text xml:space="preserve" text-anchor="middle" x="275.62" y="-337.75" font-family="Helvetica,sans-Serif" font-size="10.00">::RepeatExpiring</text>
</a>
</g>
</g>
<!-- Node18&#45;&gt;Node20 -->
<g id="edge19_Node000018_Node000020" class="edge">
<title>Node18&#45;&gt;Node20</title>
<g id="a_edge19_Node000018_Node000020"><a xlink:title=" ">
<path fill="none" stroke="#63b8ff" d="M404.36,-347.25C382.83,-347.25 359.5,-347.25 338.75,-347.25"/>
<polygon fill="#63b8ff" stroke="#63b8ff" points="404.25,-350.75 414.25,-347.25 404.25,-343.75 404.25,-350.75"/>
</a>
</g>
</g>
<!-- Node21 -->
<g id="Node000021" class="node">
<title>Node21</title>
<g id="a_Node000021"><a xlink:href="classsensesp_1_1_repeat_expiring.html#ab9304f8c272b1b9c16ac0878ae58d075" target="_top" xlink:title=" ">
<polygon fill="white" stroke="#666666" points="348.12,-313.88 203.12,-313.88 203.12,-294.62 348.12,-294.62 348.12,-313.88"/>
<text xml:space="preserve" text-anchor="middle" x="275.62" y="-300.38" font-family="Helvetica,sans-Serif" font-size="10.00">sensesp::RepeatExpiring::set</text>
</a>
</g>
</g>
<!-- Node18&#45;&gt;Node21 -->
<g id="edge21_Node000018_Node000021" class="edge">
<title>Node18&#45;&gt;Node21</title>
<g id="a_edge21_Node000018_Node000021"><a xlink:title=" ">
<path fill="none" stroke="#63b8ff" d="M404.78,-331.65C377.75,-325.87 347.84,-319.47 323.71,-314.32"/>
<polygon fill="#63b8ff" stroke="#63b8ff" points="403.77,-335.01 414.28,-333.68 405.24,-328.17 403.77,-335.01"/>
</a>
</g>
</g>
<!-- Node20&#45;&gt;Node19 -->
<g id="edge20_Node000020_Node000019" class="edge">
<title>Node20&#45;&gt;Node19</title>
<g id="a_edge20_Node000020_Node000019"><a xlink:title=" ">
<path fill="none" stroke="#63b8ff" d="M201.36,-354.28C185.02,-355.84 167.68,-357.51 151.28,-359.08"/>
<polygon fill="#63b8ff" stroke="#63b8ff" points="201.35,-357.79 210.97,-353.35 200.69,-350.82 201.35,-357.79"/>
</a>
</g>
</g>
<!-- Node23 -->
<g id="Node000023" class="node">
<title>Node23</title>
<g id="a_Node000023"><a xlink:href="classsensesp_1_1_repeat_stopping.html#a82c3df1739ec47e939b484c6b358a7e3" target="_top" xlink:title=" ">
<polygon fill="white" stroke="#666666" points="339.88,-276.5 211.38,-276.5 211.38,-246 339.88,-246 339.88,-276.5"/>
<text xml:space="preserve" text-anchor="start" x="219.38" y="-263" font-family="Helvetica,sans-Serif" font-size="10.00">sensesp::RepeatStopping</text>
<text xml:space="preserve" text-anchor="middle" x="275.62" y="-251.75" font-family="Helvetica,sans-Serif" font-size="10.00">::RepeatStopping</text>
</a>
</g>
</g>
<!-- Node22&#45;&gt;Node23 -->
<g id="edge23_Node000022_Node000023" class="edge">
<title>Node22&#45;&gt;Node23</title>
<g id="a_edge23_Node000022_Node000023"><a xlink:title=" ">
<path fill="none" stroke="#63b8ff" d="M402.85,-284.47C382.24,-280.68 360.09,-276.61 340.19,-272.94"/>
<polygon fill="#63b8ff" stroke="#63b8ff" points="402.16,-287.9 412.62,-286.27 403.42,-281.02 402.16,-287.9"/>
</a>
</g>
</g>
<!-- Node24 -->
<g id="Node000024" class="node">
<title>Node24</title>
<g id="a_Node000024"><a xlink:href="classsensesp_1_1_repeat_stopping.html#a4e89a618cbbaf69e70e0a15721a1a89f" target="_top" xlink:title=" ">
<polygon fill="white" stroke="#666666" points="349.62,-227.88 201.62,-227.88 201.62,-208.62 349.62,-208.62 349.62,-227.88"/>
<text xml:space="preserve" text-anchor="middle" x="275.62" y="-214.38" font-family="Helvetica,sans-Serif" font-size="10.00">sensesp::RepeatStopping::set</text>
</a>
</g>
</g>
<!-- Node22&#45;&gt;Node24 -->
<g id="edge24_Node000022_Node000024" class="edge">
<title>Node22&#45;&gt;Node24</title>
<g id="a_edge24_Node000022_Node000024"><a xlink:title=" ">
<path fill="none" stroke="#63b8ff" d="M406.49,-277.78C404.35,-276.66 402.27,-275.49 400.25,-274.25 380.69,-262.26 384.32,-248.38 364.25,-237.25 357.72,-233.63 350.55,-230.69 343.22,-228.32"/>
<polygon fill="#63b8ff" stroke="#63b8ff" points="404.89,-280.9 415.43,-281.98 407.87,-274.56 404.89,-280.9"/>
</a>
</g>
</g>
<!-- Node32 -->
<g id="Node000032" class="node">
<title>Node32</title>
<g id="a_Node000032"><a xlink:href="classsensesp_1_1_system_hz.html#a950505269a9b93332801e2acc56de11c" target="_top" xlink:title=" ">
<polygon fill="white" stroke="#666666" points="331.25,-30.5 220,-30.5 220,0 331.25,0 331.25,-30.5"/>
<text xml:space="preserve" text-anchor="start" x="228" y="-17" font-family="Helvetica,sans-Serif" font-size="10.00">sensesp::SystemHz::</text>
<text xml:space="preserve" text-anchor="middle" x="275.62" y="-5.75" font-family="Helvetica,sans-Serif" font-size="10.00">SystemHz</text>
</a>
</g>
</g>
<!-- Node31&#45;&gt;Node32 -->
<g id="edge32_Node000031_Node000032" class="edge">
<title>Node31&#45;&gt;Node32</title>
<g id="a_edge32_Node000031_Node000032"><a xlink:title=" ">
<path fill="none" stroke="#63b8ff" d="M411.54,-15.25C385.61,-15.25 356.23,-15.25 331.52,-15.25"/>
<polygon fill="#63b8ff" stroke="#63b8ff" points="411.28,-18.75 421.28,-15.25 411.28,-11.75 411.28,-18.75"/>
</a>
</g>
</g>
</g>
</svg>
