<?xml version="1.0" encoding="UTF-8" standalone="no"?>
<!DOCTYPE svg PUBLIC "-//W3C//DTD SVG 1.1//EN"
 "http://www.w3.org/Graphics/SVG/1.1/DTD/svg11.dtd">
<!-- Generated by graphviz version 12.0.0 (20240704.0754)
 -->
<!-- Title: sensesp::SKOutputNumeric&lt; T &gt; Pages: 1 -->
<svg width="1681pt" height="234pt"
 viewBox="0.00 0.00 1681.00 234.25" xmlns="http://www.w3.org/2000/svg" xmlns:xlink="http://www.w3.org/1999/xlink">
<g id="graph0" class="graph" transform="scale(1 1) rotate(0) translate(4 230.25)">
<title>sensesp::SKOutputNumeric&lt; T &gt;</title>
<!-- Node1 -->
<g id="Node000001" class="node">
<title>Node1</title>
<g id="a_Node000001"><a xlink:title="A special class for sending numeric values to the Signal K server on a specific Signal K path.">
<polygon fill="#999999" stroke="#666666" points="1673,-207.25 1510.75,-207.25 1510.75,-188 1673,-188 1673,-207.25"/>
<text text-anchor="middle" x="1591.88" y="-193.75" font-family="Helvetica,sans-Serif" font-size="10.00">sensesp::SKOutputNumeric&lt; T &gt;</text>
</a>
</g>
</g>
<!-- Node2 -->
<g id="Node000002" class="node">
<title>Node2</title>
<g id="a_Node000002"><a xlink:href="classsensesp_1_1_s_k_output.html" target="_top" xlink:title="A specialized transform whose primary purpose is to output Signal K data on the Signal K network.">
<polygon fill="white" stroke="#666666" points="1473.75,-207.25 1348.25,-207.25 1348.25,-188 1473.75,-188 1473.75,-207.25"/>
<text text-anchor="middle" x="1411" y="-193.75" font-family="Helvetica,sans-Serif" font-size="10.00">sensesp::SKOutput&lt; T &gt;</text>
</a>
</g>
</g>
<!-- Node2&#45;&gt;Node1 -->
<g id="edge1_Node000001_Node000002" class="edge">
<title>Node2&#45;&gt;Node1</title>
<g id="a_edge1_Node000001_Node000002"><a xlink:title=" ">
<path fill="none" stroke="#63b8ff" d="M1485.49,-197.62C1493.68,-197.62 1502.06,-197.62 1510.34,-197.62"/>
<polygon fill="#63b8ff" stroke="#63b8ff" points="1485.57,-194.13 1475.57,-197.63 1485.57,-201.13 1485.57,-194.13"/>
</a>
</g>
</g>
<!-- Node3 -->
<g id="Node000003" class="node">
<title>Node3</title>
<g id="a_Node000003"><a xlink:href="classsensesp_1_1_s_k_emitter.html" target="_top" xlink:title="A class that produces Signal K output to be forwarded to the Signal K server (if the system is connec...">
<polygon fill="white" stroke="#666666" points="418.75,-226.25 315,-226.25 315,-207 418.75,-207 418.75,-226.25"/>
<text text-anchor="middle" x="366.88" y="-212.75" font-family="Helvetica,sans-Serif" font-size="10.00">sensesp::SKEmitter</text>
</a>
</g>
</g>
<!-- Node3&#45;&gt;Node2 -->
<g id="edge2_Node000002_Node000003" class="edge">
<title>Node3&#45;&gt;Node2</title>
<g id="a_edge2_Node000002_Node000003"><a xlink:title=" ">
<path fill="none" stroke="#63b8ff" d="M430.54,-216.62C493.54,-216.62 593.44,-216.62 679.88,-216.62 679.88,-216.62 679.88,-216.62 1225.12,-216.62 1266.26,-216.62 1312.28,-211.91 1348.12,-207.18"/>
<polygon fill="#63b8ff" stroke="#63b8ff" points="430.73,-213.13 420.73,-216.63 430.73,-220.13 430.73,-213.13"/>
</a>
</g>
</g>
<!-- Node4 -->
<g id="Node000004" class="node">
<title>Node4</title>
<g id="a_Node000004"><a xlink:href="classsensesp_1_1_observable.html" target="_top" xlink:title="A base class which allow observers to attach callbacks to themselves. The callbacks will be called wh...">
<polygon fill="white" stroke="#666666" points="108.25,-169.25 0,-169.25 0,-150 108.25,-150 108.25,-169.25"/>
<text text-anchor="middle" x="54.12" y="-155.75" font-family="Helvetica,sans-Serif" font-size="10.00">sensesp::Observable</text>
</a>
</g>
</g>
<!-- Node4&#45;&gt;Node3 -->
<g id="edge3_Node000003_Node000004" class="edge">
<title>Node4&#45;&gt;Node3</title>
<g id="a_edge3_Node000003_Node000004"><a xlink:title=" ">
<path fill="none" stroke="#63b8ff" d="M82.4,-174.9C95.31,-181.43 111.17,-188.5 126.25,-192.62 189.76,-210.01 265.83,-215.08 314.96,-216.42"/>
<polygon fill="#63b8ff" stroke="#63b8ff" points="84.15,-171.86 73.67,-170.31 80.89,-178.06 84.15,-171.86"/>
</a>
</g>
</g>
<!-- Node10 -->
<g id="Node000010" class="node">
<title>Node10</title>
<g id="a_Node000010"><a xlink:href="classsensesp_1_1_value_producer.html" target="_top" xlink:title="A base class for any sensor or piece of code that outputs a value for consumption elsewhere.">
<polygon fill="white" stroke="#666666" points="753.75,-163.25 608,-163.25 608,-144 753.75,-144 753.75,-163.25"/>
<text text-anchor="middle" x="680.88" y="-149.75" font-family="Helvetica,sans-Serif" font-size="10.00">sensesp::ValueProducer&lt; T &gt;</text>
</a>
</g>
</g>
<!-- Node4&#45;&gt;Node10 -->
<g id="edge10_Node000010_Node000004" class="edge">
<title>Node4&#45;&gt;Node10</title>
<g id="a_edge10_Node000010_Node000004"><a xlink:title=" ">
<path fill="none" stroke="#63b8ff" d="M120.08,-164.61C122.5,-164.64 124.9,-164.65 127.25,-164.62 299.73,-162.91 502.45,-158.18 607.91,-155.51"/>
<polygon fill="#63b8ff" stroke="#63b8ff" points="120.27,-161.11 110.18,-164.33 120.07,-168.11 120.27,-161.11"/>
</a>
</g>
</g>
<!-- Node14 -->
<g id="Node000014" class="node">
<title>Node14</title>
<g id="a_Node000014"><a xlink:href="classsensesp_1_1_value_producer.html" target="_top" xlink:title=" ">
<polygon fill="white" stroke="#666666" points="586.62,-132.25 440.12,-132.25 440.12,-113 586.62,-113 586.62,-132.25"/>
<text text-anchor="middle" x="513.38" y="-118.75" font-family="Helvetica,sans-Serif" font-size="10.00">sensesp::ValueProducer&lt; P &gt;</text>
</a>
</g>
</g>
<!-- Node4&#45;&gt;Node14 -->
<g id="edge16_Node000014_Node000004" class="edge">
<title>Node4&#45;&gt;Node14</title>
<g id="a_edge16_Node000014_Node000004"><a xlink:title=" ">
<path fill="none" stroke="#63b8ff" d="M119.7,-154.4C204.14,-147.57 351.64,-135.63 439.84,-128.49"/>
<polygon fill="#63b8ff" stroke="#63b8ff" points="119.67,-150.89 109.98,-155.19 120.23,-157.87 119.67,-150.89"/>
</a>
</g>
</g>
<!-- Node15 -->
<g id="Node000015" class="node">
<title>Node15</title>
<g id="a_Node000015"><a xlink:href="classsensesp_1_1_value_producer.html" target="_top" xlink:title="A base class for any sensor or piece of code that outputs a value for consumption elsewhere.">
<polygon fill="white" stroke="#666666" points="294,-112.25 148.25,-112.25 148.25,-93 294,-93 294,-112.25"/>
<text text-anchor="middle" x="221.12" y="-98.75" font-family="Helvetica,sans-Serif" font-size="10.00">sensesp::ValueProducer&lt; T &gt;</text>
</a>
</g>
</g>
<!-- Node4&#45;&gt;Node15 -->
<g id="edge18_Node000015_Node000004" class="edge">
<title>Node4&#45;&gt;Node15</title>
<g id="a_edge18_Node000015_Node000004"><a xlink:title=" ">
<path fill="none" stroke="#63b8ff" d="M84.32,-144.6C96.99,-138.47 112.13,-131.66 126.25,-126.62 141.46,-121.2 158.47,-116.47 173.78,-112.68"/>
<polygon fill="#63b8ff" stroke="#63b8ff" points="83.11,-141.29 75.7,-148.86 86.22,-147.57 83.11,-141.29"/>
</a>
</g>
</g>
<!-- Node5 -->
<g id="Node000005" class="node">
<title>Node5</title>
<g id="a_Node000005"><a xlink:href="classsensesp_1_1_symmetric_transform.html" target="_top" xlink:title="A common type of transform that consumes, transforms, then outputs values of the same data type.">
<polygon fill="white" stroke="#666666" points="1311.25,-172.25 1137,-172.25 1137,-153 1311.25,-153 1311.25,-172.25"/>
<text text-anchor="middle" x="1224.12" y="-158.75" font-family="Helvetica,sans-Serif" font-size="10.00">sensesp::SymmetricTransform&lt; T &gt;</text>
</a>
</g>
</g>
<!-- Node5&#45;&gt;Node2 -->
<g id="edge4_Node000002_Node000005" class="edge">
<title>Node5&#45;&gt;Node2</title>
<g id="a_edge4_Node000002_Node000005"><a xlink:title=" ">
<path fill="none" stroke="#63b8ff" d="M1289.79,-174.87C1311.64,-179 1335.77,-183.57 1356.65,-187.52"/>
<polygon fill="#63b8ff" stroke="#63b8ff" points="1290.56,-171.45 1280.09,-173.03 1289.26,-178.33 1290.56,-171.45"/>
</a>
</g>
</g>
<!-- Node6 -->
<g id="Node000006" class="node">
<title>Node6</title>
<g id="a_Node000006"><a xlink:href="classsensesp_1_1_transform.html" target="_top" xlink:title=" ">
<polygon fill="white" stroke="#666666" points="1100,-112.88 997,-112.88 997,-82.38 1100,-82.38 1100,-112.88"/>
<text text-anchor="start" x="1005" y="-99.38" font-family="Helvetica,sans-Serif" font-size="10.00">sensesp::Transform</text>
<text text-anchor="middle" x="1048.5" y="-88.12" font-family="Helvetica,sans-Serif" font-size="10.00">&lt; T, T &gt;</text>
</a>
</g>
</g>
<!-- Node6&#45;&gt;Node5 -->
<g id="edge5_Node000005_Node000006" class="edge">
<title>Node6&#45;&gt;Node5</title>
<g id="a_edge5_Node000005_Node000006"><a xlink:title=" ">
<path fill="none" stroke="#63b8ff" d="M1102.2,-117.36C1133.3,-129 1171.33,-143.23 1196.34,-152.6"/>
<polygon fill="#63b8ff" stroke="#63b8ff" points="1103.54,-114.12 1092.95,-113.89 1101.09,-120.67 1103.54,-114.12"/>
</a>
</g>
</g>
<!-- Node7 -->
<g id="Node000007" class="node">
<title>Node7</title>
<g id="a_Node000007"><a xlink:href="classsensesp_1_1_transform_base.html" target="_top" xlink:title="The base class for all transforms. A transforms takes a value in, transforms it in some way,...">
<polygon fill="white" stroke="#666666" points="576.12,-57.25 450.62,-57.25 450.62,-38 576.12,-38 576.12,-57.25"/>
<text text-anchor="middle" x="513.38" y="-43.75" font-family="Helvetica,sans-Serif" font-size="10.00">sensesp::TransformBase</text>
</a>
</g>
</g>
<!-- Node7&#45;&gt;Node6 -->
<g id="edge6_Node000006_Node000007" class="edge">
<title>Node7&#45;&gt;Node6</title>
<g id="a_edge6_Node000006_Node000007"><a xlink:title=" ">
<path fill="none" stroke="#63b8ff" d="M587.78,-49.31C669.88,-51.89 806.69,-58.25 923.5,-73.62 947.74,-76.82 974.39,-81.78 996.75,-86.37"/>
<polygon fill="#63b8ff" stroke="#63b8ff" points="587.93,-45.81 577.83,-49.01 587.72,-52.81 587.93,-45.81"/>
</a>
</g>
</g>
<!-- Node11 -->
<g id="Node000011" class="node">
<title>Node11</title>
<g id="a_Node000011"><a xlink:href="classsensesp_1_1_transform.html" target="_top" xlink:title="The main Transform class. A transform is identified primarily by the type of value that is produces (...">
<polygon fill="white" stroke="#666666" points="899.12,-112.88 796.12,-112.88 796.12,-82.38 899.12,-82.38 899.12,-112.88"/>
<text text-anchor="start" x="804.12" y="-99.38" font-family="Helvetica,sans-Serif" font-size="10.00">sensesp::Transform</text>
<text text-anchor="middle" x="847.62" y="-88.12" font-family="Helvetica,sans-Serif" font-size="10.00">&lt; C, P &gt;</text>
</a>
</g>
</g>
<!-- Node7&#45;&gt;Node11 -->
<g id="edge12_Node000011_Node000007" class="edge">
<title>Node7&#45;&gt;Node11</title>
<g id="a_edge12_Node000011_Node000007"><a xlink:title=" ">
<path fill="none" stroke="#63b8ff" d="M587.55,-58.64C650.64,-68.13 740.12,-81.6 795.7,-89.96"/>
<polygon fill="#63b8ff" stroke="#63b8ff" points="588.39,-55.22 577.98,-57.2 587.34,-62.15 588.39,-55.22"/>
</a>
</g>
</g>
<!-- Node8 -->
<g id="Node000008" class="node">
<title>Node8</title>
<g id="a_Node000008"><a xlink:href="classsensesp_1_1_configurable.html" target="_top" xlink:title="An object that is capable of having configuration data that can be set remotely using a RESTful API,...">
<polygon fill="white" stroke="#666666" points="277.88,-38.25 164.38,-38.25 164.38,-19 277.88,-19 277.88,-38.25"/>
<text text-anchor="middle" x="221.12" y="-24.75" font-family="Helvetica,sans-Serif" font-size="10.00">sensesp::Configurable</text>
</a>
</g>
</g>
<!-- Node8&#45;&gt;Node7 -->
<g id="edge7_Node000007_Node000008" class="edge">
<title>Node8&#45;&gt;Node7</title>
<g id="a_edge7_Node000007_Node000008"><a xlink:title=" ">
<path fill="none" stroke="#63b8ff" d="M289.43,-33.03C337.97,-36.21 403,-40.47 450.3,-43.56"/>
<polygon fill="#63b8ff" stroke="#63b8ff" points="289.81,-29.55 279.6,-32.39 289.35,-36.53 289.81,-29.55"/>
</a>
</g>
</g>
<!-- Node9 -->
<g id="Node000009" class="node">
<title>Node9</title>
<g id="a_Node000009"><a xlink:href="classsensesp_1_1_value_consumer.html" target="_top" xlink:title="A base class for piece of code (like a transform) that accepts data for input. ValueConsumers can acc...">
<polygon fill="white" stroke="#666666" points="923.5,-19.25 771.75,-19.25 771.75,0 923.5,0 923.5,-19.25"/>
<text text-anchor="middle" x="847.62" y="-5.75" font-family="Helvetica,sans-Serif" font-size="10.00">sensesp::ValueConsumer&lt; T &gt;</text>
</a>
</g>
</g>
<!-- Node9&#45;&gt;Node6 -->
<g id="edge8_Node000006_Node000009" class="edge">
<title>Node9&#45;&gt;Node6</title>
<g id="a_edge8_Node000006_Node000009"><a xlink:title=" ">
<path fill="none" stroke="#63b8ff" d="M934.79,-18.3C950.02,-21.83 965.36,-26.75 979,-33.62 1002.11,-45.27 1022.94,-67.14 1035.4,-82.04"/>
<polygon fill="#63b8ff" stroke="#63b8ff" points="935.73,-14.93 925.22,-16.29 934.29,-21.78 935.73,-14.93"/>
</a>
</g>
</g>
<!-- Node10&#45;&gt;Node6 -->
<g id="edge9_Node000006_Node000010" class="edge">
<title>Node10&#45;&gt;Node6</title>
<g id="a_edge9_Node000006_Node000010"><a xlink:title=" ">
<path fill="none" stroke="#63b8ff" d="M765.22,-144.43C824.99,-137.28 907.28,-126.28 979,-112.62 984.74,-111.53 990.74,-110.32 996.69,-109.08"/>
<polygon fill="#63b8ff" stroke="#63b8ff" points="764.98,-140.94 755.46,-145.59 765.8,-147.89 764.98,-140.94"/>
</a>
</g>
</g>
<!-- Node11&#45;&gt;Node6 -->
<g id="edge11_Node000006_Node000011" class="edge">
<title>Node11&#45;&gt;Node6</title>
<g id="a_edge11_Node000006_Node000011"><a xlink:title=" ">
<path fill="none" stroke="orange" stroke-dasharray="5,2" d="M911.09,-97.62C938.64,-97.62 970.61,-97.62 996.68,-97.62"/>
<polygon fill="orange" stroke="orange" points="911.1,-94.13 901.1,-97.63 911.1,-101.13 911.1,-94.13"/>
</a>
</g>
<text text-anchor="middle" x="960.25" y="-99.38" font-family="Helvetica,sans-Serif" font-size="10.00" fill="grey"> &lt; T, T &gt;</text>
</g>
<!-- Node12 -->
<g id="Node000012" class="node">
<title>Node12</title>
<g id="a_Node000012"><a xlink:href="classsensesp_1_1_value_consumer.html" target="_top" xlink:title=" ">
<polygon fill="white" stroke="#666666" points="590,-95.25 436.75,-95.25 436.75,-76 590,-76 590,-95.25"/>
<text text-anchor="middle" x="513.38" y="-81.75" font-family="Helvetica,sans-Serif" font-size="10.00">sensesp::ValueConsumer&lt; C &gt;</text>
</a>
</g>
</g>
<!-- Node12&#45;&gt;Node11 -->
<g id="edge13_Node000011_Node000012" class="edge">
<title>Node12&#45;&gt;Node11</title>
<g id="a_edge13_Node000011_Node000012"><a xlink:title=" ">
<path fill="none" stroke="#63b8ff" d="M601.5,-88.77C663.38,-91.01 744.32,-93.93 795.91,-95.79"/>
<polygon fill="#63b8ff" stroke="#63b8ff" points="601.82,-85.28 591.7,-88.42 601.56,-92.28 601.82,-85.28"/>
</a>
</g>
</g>
<!-- Node13 -->
<g id="Node000013" class="node">
<title>Node13</title>
<g id="a_Node000013"><a xlink:href="classsensesp_1_1_value_consumer.html" target="_top" xlink:title="A base class for piece of code (like a transform) that accepts data for input. ValueConsumers can acc...">
<polygon fill="white" stroke="#666666" points="297,-75.25 145.25,-75.25 145.25,-56 297,-56 297,-75.25"/>
<text text-anchor="middle" x="221.12" y="-61.75" font-family="Helvetica,sans-Serif" font-size="10.00">sensesp::ValueConsumer&lt; T &gt;</text>
</a>
</g>
</g>
<!-- Node13&#45;&gt;Node12 -->
<g id="edge14_Node000012_Node000013" class="edge">
<title>Node13&#45;&gt;Node12</title>
<g id="a_edge14_Node000012_Node000013"><a xlink:title=" ">
<path fill="none" stroke="orange" stroke-dasharray="5,2" d="M308.76,-68.81C343.04,-70.36 382.78,-72.52 418.75,-75.38 424.46,-75.83 430.35,-76.35 436.28,-76.91"/>
<polygon fill="orange" stroke="orange" points="309.01,-65.32 298.87,-68.37 308.7,-72.31 309.01,-65.32"/>
</a>
</g>
<text text-anchor="middle" x="366.88" y="-76.38" font-family="Helvetica,sans-Serif" font-size="10.00" fill="grey"> &lt; C &gt;</text>
</g>
<!-- Node14&#45;&gt;Node11 -->
<g id="edge15_Node000011_Node000014" class="edge">
<title>Node14&#45;&gt;Node11</title>
<g id="a_edge15_Node000011_Node000014"><a xlink:title=" ">
<path fill="none" stroke="#63b8ff" d="M598.34,-116.97C644.27,-113.8 702.15,-109.68 753.75,-105.62 767.46,-104.55 782.31,-103.3 796.02,-102.12"/>
<polygon fill="#63b8ff" stroke="#63b8ff" points="598.18,-113.47 588.45,-117.65 598.66,-120.46 598.18,-113.47"/>
</a>
</g>
</g>
<!-- Node15&#45;&gt;Node14 -->
<g id="edge17_Node000014_Node000015" class="edge">
<title>Node15&#45;&gt;Node14</title>
<g id="a_edge17_Node000014_Node000015"><a xlink:title=" ">
<path fill="none" stroke="orange" stroke-dasharray="5,2" d="M305.2,-107.78C340.25,-110.02 381.49,-112.72 418.75,-115.38 425.58,-115.86 432.69,-116.38 439.8,-116.91"/>
<polygon fill="orange" stroke="orange" points="305.76,-104.31 295.56,-107.17 305.32,-111.3 305.76,-104.31"/>
</a>
</g>
<text text-anchor="middle" x="366.88" y="-116.38" font-family="Helvetica,sans-Serif" font-size="10.00" fill="grey"> &lt; P &gt;</text>
</g>
</g>
</svg>
