<?xml version="1.0" encoding="UTF-8" standalone="no"?>
<!DOCTYPE svg PUBLIC "-//W3C//DTD SVG 1.1//EN"
 "http://www.w3.org/Graphics/SVG/1.1/DTD/svg11.dtd">
<!-- Generated by graphviz version 9.0.0 (20230911.1827)
 -->
<!-- Title: sensesp::ClickType::set_input Pages: 1 -->
<svg width="836pt" height="137pt"
 viewBox="0.00 0.00 836.00 136.78" xmlns="http://www.w3.org/2000/svg" xmlns:xlink="http://www.w3.org/1999/xlink">
<g id="graph0" class="graph" transform="scale(1 1) rotate(0) translate(4 132.78)">
<title>sensesp::ClickType::set_input</title>
<!-- Node1 -->
<g id="Node000001" class="node">
<title>Node1</title>
<g id="a_Node000001"><a xlink:title=" ">
<polygon fill="#999999" stroke="#666666" points="102.25,-83.91 0,-83.91 0,-53.41 102.25,-53.41 102.25,-83.91"/>
<text text-anchor="start" x="8" y="-70.41" font-family="Helvetica,sans-Serif" font-size="10.00">sensesp::ClickType</text>
<text text-anchor="middle" x="51.12" y="-59.16" font-family="Helvetica,sans-Serif" font-size="10.00">::set_input</text>
</a>
</g>
</g>
<!-- Node2 -->
<g id="Node000002" class="node">
<title>Node2</title>
<g id="a_Node000002"><a xlink:href="classsensesp_1_1_click_type.html#adf5c465844609d1d0f461c37fc114ac5" target="_top" xlink:title="Processes incoming values that represent a &quot;ButonPress&quot; event.">
<polygon fill="white" stroke="#666666" points="240.5,-108.91 138.25,-108.91 138.25,-78.41 240.5,-78.41 240.5,-108.91"/>
<text text-anchor="start" x="146.25" y="-95.41" font-family="Helvetica,sans-Serif" font-size="10.00">sensesp::ClickType</text>
<text text-anchor="middle" x="189.38" y="-84.16" font-family="Helvetica,sans-Serif" font-size="10.00">::on_button_press</text>
</a>
</g>
</g>
<!-- Node1&#45;&gt;Node2 -->
<g id="edge1_Node000001_Node000002" class="edge">
<title>Node1&#45;&gt;Node2</title>
<g id="a_edge1_Node000001_Node000002"><a xlink:title=" ">
<path fill="none" stroke="#63b8ff" d="M102.47,-77.89C110.3,-79.33 118.47,-80.83 126.52,-82.31"/>
<polygon fill="#63b8ff" stroke="#63b8ff" points="125.82,-85.74 136.29,-84.1 127.09,-78.85 125.82,-85.74"/>
</a>
</g>
</g>
<!-- Node8 -->
<g id="Node000008" class="node">
<title>Node8</title>
<g id="a_Node000008"><a xlink:href="classsensesp_1_1_click_type.html#ae42d90645326071c653be889138e0926" target="_top" xlink:title="Processes incoming value that represent a &quot;ButtonRelease&quot; event.">
<polygon fill="white" stroke="#666666" points="240.5,-59.91 138.25,-59.91 138.25,-29.41 240.5,-29.41 240.5,-59.91"/>
<text text-anchor="start" x="146.25" y="-46.41" font-family="Helvetica,sans-Serif" font-size="10.00">sensesp::ClickType</text>
<text text-anchor="middle" x="189.38" y="-35.16" font-family="Helvetica,sans-Serif" font-size="10.00">::on_button_release</text>
</a>
</g>
</g>
<!-- Node1&#45;&gt;Node8 -->
<g id="edge8_Node000001_Node000008" class="edge">
<title>Node1&#45;&gt;Node8</title>
<g id="a_edge8_Node000001_Node000008"><a xlink:title=" ">
<path fill="none" stroke="#63b8ff" d="M102.47,-59.79C110.3,-58.41 118.47,-56.97 126.52,-55.55"/>
<polygon fill="#63b8ff" stroke="#63b8ff" points="127.05,-59.01 136.29,-53.83 125.83,-52.12 127.05,-59.01"/>
</a>
</g>
</g>
<!-- Node3 -->
<g id="Node000003" class="node">
<title>Node3</title>
<g id="a_Node000003"><a xlink:href="classsensesp_1_1_value_producer.html#ae34225039d68b6f0e786266e76c2dace" target="_top" xlink:title=" ">
<polygon fill="white" stroke="#666666" points="683.75,-42.91 562,-42.91 562,-12.41 683.75,-12.41 683.75,-42.91"/>
<text text-anchor="start" x="570" y="-29.41" font-family="Helvetica,sans-Serif" font-size="10.00">sensesp::ValueProducer</text>
<text text-anchor="middle" x="622.88" y="-18.16" font-family="Helvetica,sans-Serif" font-size="10.00">::emit</text>
</a>
</g>
</g>
<!-- Node2&#45;&gt;Node3 -->
<g id="edge2_Node000002_Node000003" class="edge">
<title>Node2&#45;&gt;Node3</title>
<g id="a_edge2_Node000002_Node000003"><a xlink:title=" ">
<path fill="none" stroke="#63b8ff" d="M240.78,-107.97C308.3,-124.47 430.65,-144.85 526,-107.66 556.16,-95.89 583.76,-70.62 601.52,-51.62"/>
<polygon fill="#63b8ff" stroke="#63b8ff" points="604.07,-54.02 608.18,-44.26 598.88,-49.33 604.07,-54.02"/>
</a>
</g>
</g>
<!-- Node5 -->
<g id="Node000005" class="node">
<title>Node5</title>
<g id="a_Node000005"><a xlink:href="classsensesp_1_1_click_type.html#a7cef6ec74f8d73633853e560a3872e3a" target="_top" xlink:title=" ">
<polygon fill="white" stroke="#666666" points="381.75,-105.91 276.5,-105.91 276.5,-75.41 381.75,-75.41 381.75,-105.91"/>
<text text-anchor="start" x="284.5" y="-92.41" font-family="Helvetica,sans-Serif" font-size="10.00">sensesp::ClickType</text>
<text text-anchor="middle" x="329.12" y="-81.16" font-family="Helvetica,sans-Serif" font-size="10.00">::on_ultra_long_click</text>
</a>
</g>
</g>
<!-- Node2&#45;&gt;Node5 -->
<g id="edge4_Node000002_Node000005" class="edge">
<title>Node2&#45;&gt;Node5</title>
<g id="a_edge4_Node000002_Node000005"><a xlink:title=" ">
<path fill="none" stroke="#63b8ff" d="M240.89,-92.56C248.71,-92.39 256.88,-92.21 264.95,-92.03"/>
<polygon fill="#63b8ff" stroke="#63b8ff" points="264.8,-95.54 274.72,-91.82 264.65,-88.54 264.8,-95.54"/>
</a>
</g>
</g>
<!-- Node4 -->
<g id="Node000004" class="node">
<title>Node4</title>
<g id="a_Node000004"><a xlink:href="classsensesp_1_1_observable.html#ab86d00fed8fb85b4c76cb9397667ece9" target="_top" xlink:title=" ">
<polygon fill="white" stroke="#666666" points="828,-42.91 719.75,-42.91 719.75,-12.41 828,-12.41 828,-42.91"/>
<text text-anchor="start" x="727.75" y="-29.41" font-family="Helvetica,sans-Serif" font-size="10.00">sensesp::Observable</text>
<text text-anchor="middle" x="773.88" y="-18.16" font-family="Helvetica,sans-Serif" font-size="10.00">::notify</text>
</a>
</g>
</g>
<!-- Node3&#45;&gt;Node4 -->
<g id="edge3_Node000003_Node000004" class="edge">
<title>Node3&#45;&gt;Node4</title>
<g id="a_edge3_Node000003_Node000004"><a xlink:title=" ">
<path fill="none" stroke="#63b8ff" d="M684.05,-27.66C692.06,-27.66 700.31,-27.66 708.39,-27.66"/>
<polygon fill="#63b8ff" stroke="#63b8ff" points="708.16,-31.16 718.16,-27.66 708.16,-24.16 708.16,-31.16"/>
</a>
</g>
</g>
<!-- Node6 -->
<g id="Node000006" class="node">
<title>Node6</title>
<g id="a_Node000006"><a xlink:href="classsensesp_1_1_click_type.html#a1c109241a50f371960a333abc3ead21a" target="_top" xlink:title=" ">
<polygon fill="white" stroke="#666666" points="523,-42.91 420.75,-42.91 420.75,-12.41 523,-12.41 523,-42.91"/>
<text text-anchor="start" x="428.75" y="-29.41" font-family="Helvetica,sans-Serif" font-size="10.00">sensesp::ClickType</text>
<text text-anchor="middle" x="471.88" y="-18.16" font-family="Helvetica,sans-Serif" font-size="10.00">::emitDelayed</text>
</a>
</g>
</g>
<!-- Node5&#45;&gt;Node6 -->
<g id="edge5_Node000005_Node000006" class="edge">
<title>Node5&#45;&gt;Node6</title>
<g id="a_edge5_Node000005_Node000006"><a xlink:title=" ">
<path fill="none" stroke="#63b8ff" d="M365.28,-74.92C383.64,-66.7 406.31,-56.56 425.93,-47.77"/>
<polygon fill="#63b8ff" stroke="#63b8ff" points="427.09,-51.09 434.79,-43.81 424.23,-44.7 427.09,-51.09"/>
</a>
</g>
</g>
<!-- Node7 -->
<g id="Node000007" class="node">
<title>Node7</title>
<g id="a_Node000007"><a xlink:href="classsensesp_1_1_click_type.html#aec294bafe9a6cb81599f6dfe84eafcf3" target="_top" xlink:title=" ">
<polygon fill="white" stroke="#666666" points="526,-98.91 417.75,-98.91 417.75,-68.41 526,-68.41 526,-98.91"/>
<text text-anchor="start" x="425.75" y="-85.41" font-family="Helvetica,sans-Serif" font-size="10.00">sensesp::ClickType</text>
<text text-anchor="middle" x="471.88" y="-74.16" font-family="Helvetica,sans-Serif" font-size="10.00">::on_click_completed</text>
</a>
</g>
</g>
<!-- Node5&#45;&gt;Node7 -->
<g id="edge7_Node000005_Node000007" class="edge">
<title>Node5&#45;&gt;Node7</title>
<g id="a_edge7_Node000005_Node000007"><a xlink:title=" ">
<path fill="none" stroke="#63b8ff" d="M382.14,-88.07C390.01,-87.68 398.22,-87.27 406.32,-86.87"/>
<polygon fill="#63b8ff" stroke="#63b8ff" points="406.34,-90.37 416.15,-86.38 405.99,-83.38 406.34,-90.37"/>
</a>
</g>
</g>
<!-- Node6&#45;&gt;Node3 -->
<g id="edge6_Node000006_Node000003" class="edge">
<title>Node6&#45;&gt;Node3</title>
<g id="a_edge6_Node000006_Node000003"><a xlink:title=" ">
<path fill="none" stroke="#63b8ff" d="M523.32,-27.66C531.99,-27.66 541.14,-27.66 550.24,-27.66"/>
<polygon fill="#63b8ff" stroke="#63b8ff" points="550.17,-31.16 560.17,-27.66 550.17,-24.16 550.17,-31.16"/>
</a>
</g>
</g>
<!-- Node8&#45;&gt;Node3 -->
<g id="edge9_Node000008_Node000003" class="edge">
<title>Node8&#45;&gt;Node3</title>
<g id="a_edge9_Node000008_Node000003"><a xlink:title=" ">
<path fill="none" stroke="#63b8ff" d="M240.98,-30.74C306.69,-14.46 424.92,8.8 526,-3.66 536.43,-4.94 547.35,-6.98 557.94,-9.35"/>
<polygon fill="#63b8ff" stroke="#63b8ff" points="556.8,-12.68 567.34,-11.57 558.41,-5.86 556.8,-12.68"/>
</a>
</g>
</g>
<!-- Node8&#45;&gt;Node5 -->
<g id="edge12_Node000008_Node000005" class="edge">
<title>Node8&#45;&gt;Node5</title>
<g id="a_edge12_Node000008_Node000005"><a xlink:title=" ">
<path fill="none" stroke="#63b8ff" d="M237.4,-60.36C248.03,-63.91 259.45,-67.72 270.47,-71.4"/>
<polygon fill="#63b8ff" stroke="#63b8ff" points="269.29,-74.7 279.88,-74.55 271.5,-68.06 269.29,-74.7"/>
</a>
</g>
</g>
<!-- Node8&#45;&gt;Node6 -->
<g id="edge10_Node000008_Node000006" class="edge">
<title>Node8&#45;&gt;Node6</title>
<g id="a_edge10_Node000008_Node000006"><a xlink:title=" ">
<path fill="none" stroke="#63b8ff" d="M240.84,-37.39C252.53,-35.93 264.93,-34.57 276.5,-33.66 320.73,-30.16 370.76,-28.67 408.99,-28.05"/>
<polygon fill="#63b8ff" stroke="#63b8ff" points="409,-31.55 418.95,-27.91 408.9,-24.55 409,-31.55"/>
</a>
</g>
</g>
<!-- Node8&#45;&gt;Node7 -->
<g id="edge11_Node000008_Node000007" class="edge">
<title>Node8&#45;&gt;Node7</title>
<g id="a_edge11_Node000008_Node000007"><a xlink:title=" ">
<path fill="none" stroke="#63b8ff" d="M240.88,-49.43C279.54,-53.34 334.14,-59.39 381.75,-66.66 389.67,-67.86 397.97,-69.26 406.17,-70.73"/>
<polygon fill="#63b8ff" stroke="#63b8ff" points="405.3,-74.13 415.77,-72.49 406.56,-67.25 405.3,-74.13"/>
</a>
</g>
</g>
</g>
</svg>
