<?xml version="1.0" encoding="UTF-8" standalone="no"?>
<!DOCTYPE svg PUBLIC "-//W3C//DTD SVG 1.1//EN"
 "http://www.w3.org/Graphics/SVG/1.1/DTD/svg11.dtd">
<!-- Generated by graphviz version 2.44.1 (20200629.0846)
 -->
<!-- Title: TimeString Pages: 1 -->
<svg width="1042pt" height="284pt"
 viewBox="0.00 0.00 1042.00 284.00" xmlns="http://www.w3.org/2000/svg" xmlns:xlink="http://www.w3.org/1999/xlink">
<g id="graph0" class="graph" transform="scale(1 1) rotate(0) translate(4 280)">
<title>TimeString</title>
<polygon fill="white" stroke="transparent" points="-4,4 -4,-280 1038,-280 1038,4 -4,4"/>
<!-- Node14 -->
<g id="node1" class="node">
<title>Node14</title>
<g id="a_node1"><a xlink:title="Consumes a time_t time object and produces a human readable string of the time for UTC in ISO 8601 fo...">
<polygon fill="#bfbfbf" stroke="black" points="970,-162.5 970,-181.5 1034,-181.5 1034,-162.5 970,-162.5"/>
<text text-anchor="middle" x="1002" y="-169.5" font-family="Helvetica,sans-Serif" font-size="10.00">TimeString</text>
</a>
</g>
</g>
<!-- Node15 -->
<g id="node2" class="node">
<title>Node15</title>
<g id="a_node2"><a xlink:href="class_transform.html" target="_top" xlink:title=" ">
<polygon fill="white" stroke="black" points="833,-157 833,-187 933,-187 933,-157 833,-157"/>
<text text-anchor="start" x="841" y="-175" font-family="Helvetica,sans-Serif" font-size="10.00">Transform&lt; time_t,</text>
<text text-anchor="middle" x="883" y="-164" font-family="Helvetica,sans-Serif" font-size="10.00"> String &gt;</text>
</a>
</g>
</g>
<!-- Node15&#45;&gt;Node14 -->
<g id="edge1" class="edge">
<title>Node15&#45;&gt;Node14</title>
<path fill="none" stroke="midnightblue" d="M943.5,-172C952.59,-172 961.64,-172 969.78,-172"/>
<polygon fill="midnightblue" stroke="midnightblue" points="943.28,-168.5 933.28,-172 943.28,-175.5 943.28,-168.5"/>
</g>
<!-- Node16 -->
<g id="node3" class="node">
<title>Node16</title>
<g id="a_node3"><a xlink:href="class_transform_base.html" target="_top" xlink:title="The base class for all transforms. All transforms are can be subscribed to by calling attach() (inher...">
<polygon fill="white" stroke="black" points="348,-224.5 348,-243.5 431,-243.5 431,-224.5 348,-224.5"/>
<text text-anchor="middle" x="389.5" y="-231.5" font-family="Helvetica,sans-Serif" font-size="10.00">TransformBase</text>
</a>
</g>
</g>
<!-- Node16&#45;&gt;Node15 -->
<g id="edge2" class="edge">
<title>Node16&#45;&gt;Node15</title>
<path fill="none" stroke="midnightblue" d="M441.22,-231.7C483.71,-229.51 545.91,-225.7 600,-220 696.01,-209.89 720.3,-207.79 815,-189 820.77,-187.86 826.78,-186.53 832.74,-185.13"/>
<polygon fill="midnightblue" stroke="midnightblue" points="440.94,-228.21 431.13,-232.21 441.3,-235.2 440.94,-228.21"/>
</g>
<!-- Node25 -->
<g id="node12" class="node">
<title>Node25</title>
<g id="a_node12"><a xlink:href="class_transform.html" target="_top" xlink:title="The main Transform class. A transform is identified primarily by the type of value that is produces (...">
<polygon fill="white" stroke="black" points="618,-137.5 618,-156.5 717,-156.5 717,-137.5 618,-137.5"/>
<text text-anchor="middle" x="667.5" y="-144.5" font-family="Helvetica,sans-Serif" font-size="10.00">Transform&lt; C, P &gt;</text>
</a>
</g>
</g>
<!-- Node16&#45;&gt;Node25 -->
<g id="edge13" class="edge">
<title>Node16&#45;&gt;Node25</title>
<path fill="none" stroke="midnightblue" d="M441.33,-225.74C498.59,-216.24 585.6,-201.17 600,-195 621.99,-185.58 643.76,-167.85 656.12,-156.78"/>
<polygon fill="midnightblue" stroke="midnightblue" points="440.65,-222.3 431.35,-227.38 441.79,-229.21 440.65,-222.3"/>
</g>
<!-- Node17 -->
<g id="node4" class="node">
<title>Node17</title>
<g id="a_node4"><a xlink:href="class_configurable.html" target="_top" xlink:title="An object that is capable of having configuration data that can be set remotely using a RESTful API,...">
<polygon fill="white" stroke="black" points="152.5,-218.5 152.5,-237.5 223.5,-237.5 223.5,-218.5 152.5,-218.5"/>
<text text-anchor="middle" x="188" y="-225.5" font-family="Helvetica,sans-Serif" font-size="10.00">Configurable</text>
</a>
</g>
</g>
<!-- Node17&#45;&gt;Node16 -->
<g id="edge3" class="edge">
<title>Node17&#45;&gt;Node16</title>
<path fill="none" stroke="midnightblue" d="M233.94,-229.35C268.17,-230.38 314.88,-231.79 347.96,-232.78"/>
<polygon fill="midnightblue" stroke="midnightblue" points="233.85,-225.85 223.75,-229.05 233.64,-232.84 233.85,-225.85"/>
</g>
<!-- Node18 -->
<g id="node5" class="node">
<title>Node18</title>
<g id="a_node5"><a xlink:href="class_enable.html" target="_top" xlink:title="Classes that implement &quot;Enable&quot; will have their enable() method called automatically at startup when ...">
<polygon fill="white" stroke="black" points="164.5,-256.5 164.5,-275.5 211.5,-275.5 211.5,-256.5 164.5,-256.5"/>
<text text-anchor="middle" x="188" y="-263.5" font-family="Helvetica,sans-Serif" font-size="10.00">Enable</text>
</a>
</g>
</g>
<!-- Node18&#45;&gt;Node16 -->
<g id="edge4" class="edge">
<title>Node18&#45;&gt;Node16</title>
<path fill="none" stroke="midnightblue" d="M221.93,-260.72C256.47,-255.18 310.81,-246.46 347.96,-240.5"/>
<polygon fill="midnightblue" stroke="midnightblue" points="221.2,-257.29 211.89,-262.33 222.31,-264.2 221.2,-257.29"/>
</g>
<!-- Node19 -->
<g id="node6" class="node">
<title>Node19</title>
<g id="a_node6"><a xlink:href="class_value_consumer.html" target="_top" xlink:title=" ">
<polygon fill="white" stroke="black" points="469,-174.5 469,-193.5 600,-193.5 600,-174.5 469,-174.5"/>
<text text-anchor="middle" x="534.5" y="-181.5" font-family="Helvetica,sans-Serif" font-size="10.00">ValueConsumer&lt; time_t &gt;</text>
</a>
</g>
</g>
<!-- Node19&#45;&gt;Node15 -->
<g id="edge5" class="edge">
<title>Node19&#45;&gt;Node15</title>
<path fill="none" stroke="midnightblue" d="M610.41,-181.41C677.82,-179.07 774.95,-175.71 832.94,-173.7"/>
<polygon fill="midnightblue" stroke="midnightblue" points="610.14,-177.91 600.27,-181.76 610.38,-184.91 610.14,-177.91"/>
</g>
<!-- Node20 -->
<g id="node7" class="node">
<title>Node20</title>
<g id="a_node7"><a xlink:href="class_value_consumer.html" target="_top" xlink:title="A base class for piece of code (like a transform) that accepts data for input. ValueConsumers can acc...">
<polygon fill="white" stroke="black" points="133,-165.5 133,-184.5 243,-184.5 243,-165.5 133,-165.5"/>
<text text-anchor="middle" x="188" y="-172.5" font-family="Helvetica,sans-Serif" font-size="10.00">ValueConsumer&lt; T &gt;</text>
</a>
</g>
</g>
<!-- Node20&#45;&gt;Node19 -->
<g id="edge6" class="edge">
<title>Node20&#45;&gt;Node19</title>
<path fill="none" stroke="orange" stroke-dasharray="5,2" d="M253.56,-176.69C315.07,-178.29 407.18,-180.7 468.75,-182.31"/>
<polygon fill="orange" stroke="orange" points="253.3,-173.18 243.21,-176.42 253.11,-180.18 253.3,-173.18"/>
<text text-anchor="middle" x="285.5" y="-180" font-family="Helvetica,sans-Serif" font-size="10.00"> &lt; time_t &gt;</text>
</g>
<!-- Node26 -->
<g id="node13" class="node">
<title>Node26</title>
<g id="a_node13"><a xlink:href="class_value_consumer.html" target="_top" xlink:title=" ">
<polygon fill="white" stroke="black" points="334,-148.5 334,-167.5 445,-167.5 445,-148.5 334,-148.5"/>
<text text-anchor="middle" x="389.5" y="-155.5" font-family="Helvetica,sans-Serif" font-size="10.00">ValueConsumer&lt; C &gt;</text>
</a>
</g>
</g>
<!-- Node20&#45;&gt;Node26 -->
<g id="edge15" class="edge">
<title>Node20&#45;&gt;Node26</title>
<path fill="none" stroke="orange" stroke-dasharray="5,2" d="M251.68,-164.07C254.83,-163.67 257.95,-163.31 261,-163 284.8,-160.56 311.21,-159.29 333.79,-158.63"/>
<polygon fill="orange" stroke="orange" points="251.02,-160.63 241.59,-165.45 251.97,-167.56 251.02,-160.63"/>
<text text-anchor="middle" x="285.5" y="-166" font-family="Helvetica,sans-Serif" font-size="10.00"> &lt; C &gt;</text>
</g>
<!-- Node21 -->
<g id="node8" class="node">
<title>Node21</title>
<g id="a_node8"><a xlink:href="class_value_producer.html" target="_top" xlink:title=" ">
<polygon fill="white" stroke="black" points="328,-59.5 328,-78.5 451,-78.5 451,-59.5 328,-59.5"/>
<text text-anchor="middle" x="389.5" y="-66.5" font-family="Helvetica,sans-Serif" font-size="10.00">ValueProducer&lt; String &gt;</text>
</a>
</g>
</g>
<!-- Node21&#45;&gt;Node15 -->
<g id="edge7" class="edge">
<title>Node21&#45;&gt;Node15</title>
<path fill="none" stroke="midnightblue" d="M461.11,-77.89C546.1,-89.53 692.66,-112.57 815,-147 824.8,-149.76 835.2,-153.31 844.8,-156.87"/>
<polygon fill="midnightblue" stroke="midnightblue" points="461.44,-74.4 451.06,-76.53 460.5,-81.34 461.44,-74.4"/>
</g>
<!-- Node22 -->
<g id="node9" class="node">
<title>Node22</title>
<g id="a_node9"><a xlink:href="class_observable.html" target="_top" xlink:title="A base class which allow observers to attach callbacks to themselves. The callbacks will be called wh...">
<polygon fill="white" stroke="black" points="0,-64.5 0,-83.5 66,-83.5 66,-64.5 0,-64.5"/>
<text text-anchor="middle" x="33" y="-71.5" font-family="Helvetica,sans-Serif" font-size="10.00">Observable</text>
</a>
</g>
</g>
<!-- Node22&#45;&gt;Node21 -->
<g id="edge8" class="edge">
<title>Node22&#45;&gt;Node21</title>
<path fill="none" stroke="midnightblue" d="M76.22,-64.07C93.69,-60.44 114.21,-56.79 133,-55 199.56,-48.67 276.16,-54.62 328,-60.6"/>
<polygon fill="midnightblue" stroke="midnightblue" points="75.37,-60.67 66.33,-66.19 76.84,-67.52 75.37,-60.67"/>
</g>
<!-- Node23 -->
<g id="node10" class="node">
<title>Node23</title>
<g id="a_node10"><a xlink:href="class_value_producer.html" target="_top" xlink:title="A base class for any sensor or piece of code that outputs a value for consumption elsewhere.">
<polygon fill="white" stroke="black" points="136,-64.5 136,-83.5 240,-83.5 240,-64.5 136,-64.5"/>
<text text-anchor="middle" x="188" y="-71.5" font-family="Helvetica,sans-Serif" font-size="10.00">ValueProducer&lt; T &gt;</text>
</a>
</g>
</g>
<!-- Node22&#45;&gt;Node23 -->
<g id="edge10" class="edge">
<title>Node22&#45;&gt;Node23</title>
<path fill="none" stroke="midnightblue" d="M76.25,-74C94.74,-74 116.61,-74 136,-74"/>
<polygon fill="midnightblue" stroke="midnightblue" points="76.07,-70.5 66.07,-74 76.07,-77.5 76.07,-70.5"/>
</g>
<!-- Node27 -->
<g id="node14" class="node">
<title>Node27</title>
<g id="a_node14"><a xlink:href="class_value_producer.html" target="_top" xlink:title=" ">
<polygon fill="white" stroke="black" points="337.5,-110.5 337.5,-129.5 441.5,-129.5 441.5,-110.5 337.5,-110.5"/>
<text text-anchor="middle" x="389.5" y="-117.5" font-family="Helvetica,sans-Serif" font-size="10.00">ValueProducer&lt; P &gt;</text>
</a>
</g>
</g>
<!-- Node22&#45;&gt;Node27 -->
<g id="edge17" class="edge">
<title>Node22&#45;&gt;Node27</title>
<path fill="none" stroke="midnightblue" d="M75.82,-86.11C78.58,-86.79 81.32,-87.42 84,-88 161.79,-104.76 181.78,-107.43 261,-115 286.03,-117.39 313.93,-118.65 337.23,-119.3"/>
<polygon fill="midnightblue" stroke="midnightblue" points="76.42,-82.65 65.86,-83.55 74.67,-89.43 76.42,-82.65"/>
</g>
<!-- Node23&#45;&gt;Node21 -->
<g id="edge9" class="edge">
<title>Node23&#45;&gt;Node21</title>
<path fill="none" stroke="orange" stroke-dasharray="5,2" d="M250.33,-70.39C253.94,-70.24 257.52,-70.11 261,-70 282.79,-69.31 306.69,-69 327.85,-68.89"/>
<polygon fill="orange" stroke="orange" points="249.95,-66.91 240.12,-70.86 250.27,-73.9 249.95,-66.91"/>
<text text-anchor="middle" x="285.5" y="-73" font-family="Helvetica,sans-Serif" font-size="10.00"> &lt; String &gt;</text>
</g>
<!-- Node23&#45;&gt;Node27 -->
<g id="edge18" class="edge">
<title>Node23&#45;&gt;Node27</title>
<path fill="none" stroke="orange" stroke-dasharray="5,2" d="M240.32,-85.83C273.53,-93.49 316.2,-103.33 347.22,-110.48"/>
<polygon fill="orange" stroke="orange" points="240.87,-82.37 230.34,-83.53 239.29,-89.19 240.87,-82.37"/>
<text text-anchor="middle" x="285.5" y="-104" font-family="Helvetica,sans-Serif" font-size="10.00"> &lt; P &gt;</text>
</g>
<!-- Node24 -->
<g id="node11" class="node">
<title>Node24</title>
<g id="a_node11"><a xlink:title=" ">
<polygon fill="white" stroke="#bfbfbf" points="18.5,-0.5 18.5,-19.5 47.5,-19.5 47.5,-0.5 18.5,-0.5"/>
<text text-anchor="middle" x="33" y="-7.5" font-family="Helvetica,sans-Serif" font-size="10.00">T</text>
</a>
</g>
</g>
<!-- Node24&#45;&gt;Node23 -->
<g id="edge11" class="edge">
<title>Node24&#45;&gt;Node23</title>
<path fill="none" stroke="#9a32cd" stroke-dasharray="5,2" d="M56.88,-19.57C85.78,-31.66 135.22,-52.34 164.12,-64.43"/>
<polygon fill="#9a32cd" stroke="#9a32cd" points="58.15,-16.31 47.58,-15.68 55.45,-22.77 58.15,-16.31"/>
<text text-anchor="middle" x="99.5" y="-45" font-family="Helvetica,sans-Serif" font-size="10.00"> output</text>
</g>
<!-- Node25&#45;&gt;Node15 -->
<g id="edge12" class="edge">
<title>Node25&#45;&gt;Node15</title>
<path fill="none" stroke="orange" stroke-dasharray="5,2" d="M727.13,-151.01C753.97,-153.15 786.16,-156.15 815,-160 820.74,-160.77 826.74,-161.68 832.68,-162.66"/>
<polygon fill="orange" stroke="orange" points="727.36,-147.51 717.12,-150.23 726.82,-154.49 727.36,-147.51"/>
<text text-anchor="middle" x="775" y="-163" font-family="Helvetica,sans-Serif" font-size="10.00"> &lt; time_t, String &gt;</text>
</g>
<!-- Node26&#45;&gt;Node25 -->
<g id="edge14" class="edge">
<title>Node26&#45;&gt;Node25</title>
<path fill="none" stroke="midnightblue" d="M455.03,-155.43C504.73,-153.45 572.36,-150.75 617.63,-148.95"/>
<polygon fill="midnightblue" stroke="midnightblue" points="454.88,-151.93 445.03,-155.83 455.16,-158.93 454.88,-151.93"/>
</g>
<!-- Node27&#45;&gt;Node25 -->
<g id="edge16" class="edge">
<title>Node27&#45;&gt;Node25</title>
<path fill="none" stroke="midnightblue" d="M451.81,-126C501.84,-130.89 571.57,-137.71 617.82,-142.24"/>
<polygon fill="midnightblue" stroke="midnightblue" points="452.06,-122.51 441.77,-125.02 451.38,-129.47 452.06,-122.51"/>
</g>
</g>
</svg>
