<?xml version="1.0" encoding="UTF-8" standalone="no"?>
<!DOCTYPE svg PUBLIC "-//W3C//DTD SVG 1.1//EN"
 "http://www.w3.org/Graphics/SVG/1.1/DTD/svg11.dtd">
<!-- Generated by graphviz version 2.44.1 (20200629.0846)
 -->
<!-- Title: Hysteresis&lt; IN, OUT &gt; Pages: 1 -->
<!--zoomable 284 -->
<svg id="main" version="1.1" xmlns="http://www.w3.org/2000/svg" xmlns:xlink="http://www.w3.org/1999/xlink" xml:space="preserve" onload="init(evt)">
<style type="text/css"><![CDATA[
.edge:hover path { stroke: red; }
.edge:hover polygon { stroke: red; fill: red; }
]]></style>
<script type="text/javascript"><![CDATA[
var edges = document.getElementsByTagName('g');
if (edges && edges.length) {
  for (var i=0;i<edges.length;i++) {
    if (edges[i].id.substr(0,4)=='edge') {
      edges[i].setAttribute('class','edge');
    }
  }
}
]]></script>
        <defs>
                <circle id="rim" cx="0" cy="0" r="7"/>
                <circle id="rim2" cx="0" cy="0" r="3.5"/>
                <g id="zoomPlus">
                        <use xlink:href="#rim" fill="#404040">
                                <set attributeName="fill" to="#808080" begin="zoomplus.mouseover" end="zoomplus.mouseout"/>
                        </use>
                        <path d="M-4,0h8M0,-4v8" fill="none" stroke="white" stroke-width="1.5" pointer-events="none"/>
                </g>
                <g id="zoomMin">
                        <use xlink:href="#rim" fill="#404040">
                                <set attributeName="fill" to="#808080" begin="zoomminus.mouseover" end="zoomminus.mouseout"/>
                        </use>
                        <path d="M-4,0h8" fill="none" stroke="white" stroke-width="1.5" pointer-events="none"/>
                </g>
                <g id="dirArrow">
                        <path fill="none" stroke="white" stroke-width="1.5" d="M0,-3.0v7 M-2.5,-0.5L0,-3.0L2.5,-0.5"/>
                </g>
               <g id="resetDef">
                       <use xlink:href="#rim2" fill="#404040">
                               <set attributeName="fill" to="#808080" begin="reset.mouseover" end="reset.mouseout"/>
                       </use>
               </g>
        </defs>

<script type="text/javascript">
var viewWidth = 1475;
var viewHeight = 284;
var sectionId = 'dynsection-1';
</script>
<script xlink:href="svgpan.js"/>
<svg id="graph" class="graph">
<g id="viewport">
<title>Hysteresis&lt; IN, OUT &gt;</title>
<polygon fill="white" stroke="transparent" points="-4,4 -4,-280 1471,-280 1471,4 -4,4"/>
<!-- Node15 -->
<g id="node1" class="node">
<title>Node15</title>
<g id="a_node1"><a xlink:title="Hysteresis function.">
<polygon fill="#bfbfbf" stroke="black" points="1348,-162.5 1348,-181.5 1467,-181.5 1467,-162.5 1348,-162.5"/>
<text text-anchor="middle" x="1407.5" y="-169.5" font-family="Helvetica,sans-Serif" font-size="10.00">Hysteresis&lt; IN, OUT &gt;</text>
</a>
</g>
</g>
<!-- Node16 -->
<g id="node2" class="node">
<title>Node16</title>
<g id="a_node2"><a xlink:href="class_lambda_transform.html" target="_top" xlink:title=" ">
<polygon fill="white" stroke="black" points="1177,-157 1177,-187 1311,-187 1311,-157 1177,-157"/>
<text text-anchor="start" x="1185" y="-175" font-family="Helvetica,sans-Serif" font-size="10.00">LambdaTransform&lt; IN,</text>
<text text-anchor="middle" x="1244" y="-164" font-family="Helvetica,sans-Serif" font-size="10.00"> OUT, IN, IN, OUT, OUT &gt;</text>
</a>
</g>
</g>
<!-- Node16&#45;&gt;Node15 -->
<g id="edge1" class="edge">
<title>Node16&#45;&gt;Node15</title>
<path fill="none" stroke="midnightblue" d="M1321.24,-172C1330.22,-172 1339.27,-172 1347.96,-172"/>
<polygon fill="midnightblue" stroke="midnightblue" points="1321.15,-168.5 1311.15,-172 1321.15,-175.5 1321.15,-168.5"/>
</g>
<!-- Node17 -->
<g id="node3" class="node">
<title>Node17</title>
<g id="a_node3"><a xlink:href="class_transform.html" target="_top" xlink:title=" ">
<polygon fill="white" stroke="black" points="785,-162.5 785,-181.5 901,-181.5 901,-162.5 785,-162.5"/>
<text text-anchor="middle" x="843" y="-169.5" font-family="Helvetica,sans-Serif" font-size="10.00">Transform&lt; IN, OUT &gt;</text>
</a>
</g>
</g>
<!-- Node17&#45;&gt;Node16 -->
<g id="edge2" class="edge">
<title>Node17&#45;&gt;Node16</title>
<path fill="none" stroke="midnightblue" d="M911.57,-178.26C975.4,-183.25 1073.78,-188.56 1159,-183 1164.72,-182.63 1170.65,-182.11 1176.59,-181.51"/>
<polygon fill="midnightblue" stroke="midnightblue" points="911.49,-174.74 901.24,-177.43 910.93,-181.72 911.49,-174.74"/>
</g>
<!-- Node30 -->
<g id="node16" class="node">
<title>Node30</title>
<g id="a_node16"><a xlink:href="class_lambda_transform.html" target="_top" xlink:title="Construct a new transform based on a single function.">
<polygon fill="white" stroke="black" points="938,-127.5 938,-168.5 1056,-168.5 1056,-127.5 938,-127.5"/>
<text text-anchor="start" x="946" y="-156.5" font-family="Helvetica,sans-Serif" font-size="10.00">LambdaTransform&lt; IN,</text>
<text text-anchor="start" x="946" y="-145.5" font-family="Helvetica,sans-Serif" font-size="10.00"> OUT, P1, P2, P3, P4,</text>
<text text-anchor="middle" x="997" y="-134.5" font-family="Helvetica,sans-Serif" font-size="10.00"> P5, P6 &gt;</text>
</a>
</g>
</g>
<!-- Node17&#45;&gt;Node30 -->
<g id="edge21" class="edge">
<title>Node17&#45;&gt;Node30</title>
<path fill="none" stroke="midnightblue" d="M911.04,-161.41C919.99,-160 929.11,-158.56 937.89,-157.18"/>
<polygon fill="midnightblue" stroke="midnightblue" points="910.36,-157.98 901.03,-163 911.46,-164.89 910.36,-157.98"/>
</g>
<!-- Node18 -->
<g id="node4" class="node">
<title>Node18</title>
<g id="a_node4"><a xlink:href="class_transform_base.html" target="_top" xlink:title=" ">
<polygon fill="white" stroke="black" points="340,-224.5 340,-243.5 423,-243.5 423,-224.5 340,-224.5"/>
<text text-anchor="middle" x="381.5" y="-231.5" font-family="Helvetica,sans-Serif" font-size="10.00">TransformBase</text>
</a>
</g>
</g>
<!-- Node18&#45;&gt;Node17 -->
<g id="edge3" class="edge">
<title>Node18&#45;&gt;Node17</title>
<path fill="none" stroke="midnightblue" d="M433.51,-231.43C471.94,-229.21 525.88,-225.49 573,-220 659.73,-209.9 681.27,-205.55 767,-189 778.4,-186.8 790.72,-184.13 802.01,-181.57"/>
<polygon fill="midnightblue" stroke="midnightblue" points="432.89,-227.96 423.1,-232.02 433.28,-234.95 432.89,-227.96"/>
</g>
<!-- Node27 -->
<g id="node13" class="node">
<title>Node27</title>
<g id="a_node13"><a xlink:href="class_transform.html" target="_top" xlink:title=" ">
<polygon fill="white" stroke="black" points="591,-137.5 591,-156.5 690,-156.5 690,-137.5 591,-137.5"/>
<text text-anchor="middle" x="640.5" y="-144.5" font-family="Helvetica,sans-Serif" font-size="10.00">Transform&lt; C, P &gt;</text>
</a>
</g>
</g>
<!-- Node18&#45;&gt;Node27 -->
<g id="edge14" class="edge">
<title>Node18&#45;&gt;Node27</title>
<path fill="none" stroke="midnightblue" d="M433.38,-226.07C481.02,-218.19 548.45,-205.78 573,-195 594.9,-185.39 616.7,-167.72 629.09,-156.71"/>
<polygon fill="midnightblue" stroke="midnightblue" points="432.54,-222.66 423.24,-227.73 433.67,-229.57 432.54,-222.66"/>
</g>
<!-- Node19 -->
<g id="node5" class="node">
<title>Node19</title>
<g id="a_node5"><a xlink:href="class_configurable.html" target="_top" xlink:title=" ">
<polygon fill="white" stroke="black" points="152.5,-218.5 152.5,-237.5 223.5,-237.5 223.5,-218.5 152.5,-218.5"/>
<text text-anchor="middle" x="188" y="-225.5" font-family="Helvetica,sans-Serif" font-size="10.00">Configurable</text>
</a>
</g>
</g>
<!-- Node19&#45;&gt;Node18 -->
<g id="edge4" class="edge">
<title>Node19&#45;&gt;Node18</title>
<path fill="none" stroke="midnightblue" d="M233.68,-229.4C265.76,-230.4 308.63,-231.75 339.77,-232.72"/>
<polygon fill="midnightblue" stroke="midnightblue" points="233.78,-225.9 223.68,-229.09 233.56,-232.9 233.78,-225.9"/>
</g>
<!-- Node20 -->
<g id="node6" class="node">
<title>Node20</title>
<g id="a_node6"><a xlink:href="class_enable.html" target="_top" xlink:title=" ">
<polygon fill="white" stroke="black" points="164.5,-256.5 164.5,-275.5 211.5,-275.5 211.5,-256.5 164.5,-256.5"/>
<text text-anchor="middle" x="188" y="-263.5" font-family="Helvetica,sans-Serif" font-size="10.00">Enable</text>
</a>
</g>
</g>
<!-- Node20&#45;&gt;Node18 -->
<g id="edge5" class="edge">
<title>Node20&#45;&gt;Node18</title>
<path fill="none" stroke="midnightblue" d="M221.65,-260.54C254.28,-255.09 304.52,-246.7 339.74,-240.81"/>
<polygon fill="midnightblue" stroke="midnightblue" points="221.01,-257.1 211.72,-262.2 222.16,-264.01 221.01,-257.1"/>
</g>
<!-- Node21 -->
<g id="node7" class="node">
<title>Node21</title>
<g id="a_node7"><a xlink:href="class_value_consumer.html" target="_top" xlink:title=" ">
<polygon fill="white" stroke="black" points="459,-174.5 459,-193.5 573,-193.5 573,-174.5 459,-174.5"/>
<text text-anchor="middle" x="516" y="-181.5" font-family="Helvetica,sans-Serif" font-size="10.00">ValueConsumer&lt; IN &gt;</text>
</a>
</g>
</g>
<!-- Node21&#45;&gt;Node17 -->
<g id="edge6" class="edge">
<title>Node21&#45;&gt;Node17</title>
<path fill="none" stroke="midnightblue" d="M583.25,-181.55C642.51,-179.37 728.49,-176.19 784.81,-174.11"/>
<polygon fill="midnightblue" stroke="midnightblue" points="583.1,-178.06 573.24,-181.92 583.36,-185.05 583.1,-178.06"/>
</g>
<!-- Node22 -->
<g id="node8" class="node">
<title>Node22</title>
<g id="a_node8"><a xlink:href="class_value_consumer.html" target="_top" xlink:title=" ">
<polygon fill="white" stroke="black" points="133,-165.5 133,-184.5 243,-184.5 243,-165.5 133,-165.5"/>
<text text-anchor="middle" x="188" y="-172.5" font-family="Helvetica,sans-Serif" font-size="10.00">ValueConsumer&lt; T &gt;</text>
</a>
</g>
</g>
<!-- Node22&#45;&gt;Node21 -->
<g id="edge7" class="edge">
<title>Node22&#45;&gt;Node21</title>
<path fill="none" stroke="orange" stroke-dasharray="5,2" d="M253.3,-176.78C313.19,-178.43 401.6,-180.87 458.76,-182.45"/>
<polygon fill="orange" stroke="orange" points="253.29,-173.27 243.2,-176.5 253.1,-180.27 253.29,-173.27"/>
<text text-anchor="middle" x="282.5" y="-181" font-family="Helvetica,sans-Serif" font-size="10.00"> &lt; IN &gt;</text>
</g>
<!-- Node28 -->
<g id="node14" class="node">
<title>Node28</title>
<g id="a_node14"><a xlink:href="class_value_consumer.html" target="_top" xlink:title=" ">
<polygon fill="white" stroke="black" points="326,-148.5 326,-167.5 437,-167.5 437,-148.5 326,-148.5"/>
<text text-anchor="middle" x="381.5" y="-155.5" font-family="Helvetica,sans-Serif" font-size="10.00">ValueConsumer&lt; C &gt;</text>
</a>
</g>
</g>
<!-- Node22&#45;&gt;Node28 -->
<g id="edge16" class="edge">
<title>Node22&#45;&gt;Node28</title>
<path fill="none" stroke="orange" stroke-dasharray="5,2" d="M251.68,-164.08C254.83,-163.68 257.95,-163.32 261,-163 282.17,-160.8 305.54,-159.56 325.97,-158.87"/>
<polygon fill="orange" stroke="orange" points="251.02,-160.64 241.59,-165.47 251.97,-167.57 251.02,-160.64"/>
<text text-anchor="middle" x="282.5" y="-166" font-family="Helvetica,sans-Serif" font-size="10.00"> &lt; C &gt;</text>
</g>
<!-- Node23 -->
<g id="node9" class="node">
<title>Node23</title>
<g id="a_node9"><a xlink:href="class_value_producer.html" target="_top" xlink:title=" ">
<polygon fill="white" stroke="black" points="322,-59.5 322,-78.5 441,-78.5 441,-59.5 322,-59.5"/>
<text text-anchor="middle" x="381.5" y="-66.5" font-family="Helvetica,sans-Serif" font-size="10.00">ValueProducer&lt; OUT &gt;</text>
</a>
</g>
</g>
<!-- Node23&#45;&gt;Node17 -->
<g id="edge8" class="edge">
<title>Node23&#45;&gt;Node17</title>
<path fill="none" stroke="midnightblue" d="M449.29,-80.29C511.78,-91.22 607.61,-108.89 690,-128 724.55,-136.01 732.93,-139.13 767,-149 781.78,-153.28 798.13,-158.26 811.78,-162.5"/>
<polygon fill="midnightblue" stroke="midnightblue" points="449.62,-76.8 439.17,-78.53 448.42,-83.69 449.62,-76.8"/>
</g>
<!-- Node24 -->
<g id="node10" class="node">
<title>Node24</title>
<g id="a_node10"><a xlink:href="class_observable.html" target="_top" xlink:title=" ">
<polygon fill="white" stroke="black" points="0,-64.5 0,-83.5 66,-83.5 66,-64.5 0,-64.5"/>
<text text-anchor="middle" x="33" y="-71.5" font-family="Helvetica,sans-Serif" font-size="10.00">Observable</text>
</a>
</g>
</g>
<!-- Node24&#45;&gt;Node23 -->
<g id="edge9" class="edge">
<title>Node24&#45;&gt;Node23</title>
<path fill="none" stroke="midnightblue" d="M76.22,-64.07C93.69,-60.44 114.21,-56.79 133,-55 197.48,-48.87 271.69,-54.78 321.9,-60.7"/>
<polygon fill="midnightblue" stroke="midnightblue" points="75.37,-60.67 66.33,-66.19 76.84,-67.52 75.37,-60.67"/>
</g>
<!-- Node25 -->
<g id="node11" class="node">
<title>Node25</title>
<g id="a_node11"><a xlink:href="class_value_producer.html" target="_top" xlink:title=" ">
<polygon fill="white" stroke="black" points="136,-64.5 136,-83.5 240,-83.5 240,-64.5 136,-64.5"/>
<text text-anchor="middle" x="188" y="-71.5" font-family="Helvetica,sans-Serif" font-size="10.00">ValueProducer&lt; T &gt;</text>
</a>
</g>
</g>
<!-- Node24&#45;&gt;Node25 -->
<g id="edge11" class="edge">
<title>Node24&#45;&gt;Node25</title>
<path fill="none" stroke="midnightblue" d="M76.25,-74C94.74,-74 116.61,-74 136,-74"/>
<polygon fill="midnightblue" stroke="midnightblue" points="76.07,-70.5 66.07,-74 76.07,-77.5 76.07,-70.5"/>
</g>
<!-- Node29 -->
<g id="node15" class="node">
<title>Node29</title>
<g id="a_node15"><a xlink:href="class_value_producer.html" target="_top" xlink:title=" ">
<polygon fill="white" stroke="black" points="329.5,-110.5 329.5,-129.5 433.5,-129.5 433.5,-110.5 329.5,-110.5"/>
<text text-anchor="middle" x="381.5" y="-117.5" font-family="Helvetica,sans-Serif" font-size="10.00">ValueProducer&lt; P &gt;</text>
</a>
</g>
</g>
<!-- Node24&#45;&gt;Node29 -->
<g id="edge18" class="edge">
<title>Node24&#45;&gt;Node29</title>
<path fill="none" stroke="midnightblue" d="M75.82,-86.11C78.58,-86.79 81.32,-87.42 84,-88 161.79,-104.76 181.79,-107.33 261,-115 283.32,-117.16 308.08,-118.39 329.24,-119.09"/>
<polygon fill="midnightblue" stroke="midnightblue" points="76.42,-82.65 65.86,-83.55 74.67,-89.43 76.42,-82.65"/>
</g>
<!-- Node25&#45;&gt;Node23 -->
<g id="edge10" class="edge">
<title>Node25&#45;&gt;Node23</title>
<path fill="none" stroke="orange" stroke-dasharray="5,2" d="M250.33,-70.4C253.94,-70.25 257.52,-70.11 261,-70 280.8,-69.37 302.46,-69.07 321.84,-68.94"/>
<polygon fill="orange" stroke="orange" points="249.95,-66.91 240.12,-70.86 250.27,-73.9 249.95,-66.91"/>
<text text-anchor="middle" x="282.5" y="-73" font-family="Helvetica,sans-Serif" font-size="10.00"> &lt; OUT &gt;</text>
</g>
<!-- Node25&#45;&gt;Node29 -->
<g id="edge19" class="edge">
<title>Node25&#45;&gt;Node29</title>
<path fill="none" stroke="orange" stroke-dasharray="5,2" d="M238.67,-85.93C270.49,-93.58 311.23,-103.36 340.87,-110.48"/>
<polygon fill="orange" stroke="orange" points="239.22,-82.46 228.68,-83.53 237.58,-89.27 239.22,-82.46"/>
<text text-anchor="middle" x="282.5" y="-104" font-family="Helvetica,sans-Serif" font-size="10.00"> &lt; P &gt;</text>
</g>
<!-- Node26 -->
<g id="node12" class="node">
<title>Node26</title>
<g id="a_node12"><a xlink:title=" ">
<polygon fill="white" stroke="#bfbfbf" points="18.5,-0.5 18.5,-19.5 47.5,-19.5 47.5,-0.5 18.5,-0.5"/>
<text text-anchor="middle" x="33" y="-7.5" font-family="Helvetica,sans-Serif" font-size="10.00">T</text>
</a>
</g>
</g>
<!-- Node26&#45;&gt;Node25 -->
<g id="edge12" class="edge">
<title>Node26&#45;&gt;Node25</title>
<path fill="none" stroke="#9a32cd" stroke-dasharray="5,2" d="M56.88,-19.57C85.78,-31.66 135.22,-52.34 164.12,-64.43"/>
<polygon fill="#9a32cd" stroke="#9a32cd" points="58.15,-16.31 47.58,-15.68 55.45,-22.77 58.15,-16.31"/>
<text text-anchor="middle" x="99.5" y="-45" font-family="Helvetica,sans-Serif" font-size="10.00"> output</text>
</g>
<!-- Node27&#45;&gt;Node17 -->
<g id="edge13" class="edge">
<title>Node27&#45;&gt;Node17</title>
<path fill="none" stroke="orange" stroke-dasharray="5,2" d="M700.24,-152.41C721.33,-154.52 745.26,-157.14 767,-160 772.75,-160.76 778.74,-161.61 784.72,-162.5"/>
<polygon fill="orange" stroke="orange" points="700.44,-148.91 690.15,-151.41 699.75,-155.87 700.44,-148.91"/>
<text text-anchor="middle" x="737.5" y="-163" font-family="Helvetica,sans-Serif" font-size="10.00"> &lt; IN, OUT &gt;</text>
</g>
<!-- Node28&#45;&gt;Node27 -->
<g id="edge15" class="edge">
<title>Node28&#45;&gt;Node27</title>
<path fill="none" stroke="midnightblue" d="M447.15,-155.23C491.72,-153.33 550.03,-150.83 590.72,-149.09"/>
<polygon fill="midnightblue" stroke="midnightblue" points="446.84,-151.74 437,-155.67 447.14,-158.74 446.84,-151.74"/>
</g>
<!-- Node29&#45;&gt;Node27 -->
<g id="edge17" class="edge">
<title>Node29&#45;&gt;Node27</title>
<path fill="none" stroke="midnightblue" d="M443.79,-126.44C488.75,-131.16 548.98,-137.49 590.69,-141.87"/>
<polygon fill="midnightblue" stroke="midnightblue" points="443.89,-122.93 433.58,-125.37 443.16,-129.89 443.89,-122.93"/>
</g>
<!-- Node30&#45;&gt;Node16 -->
<g id="edge20" class="edge">
<title>Node30&#45;&gt;Node16</title>
<path fill="none" stroke="orange" stroke-dasharray="5,2" d="M1066.5,-152.78C1095.12,-154.97 1128.7,-157.79 1159,-161 1164.7,-161.6 1170.62,-162.28 1176.55,-162.99"/>
<polygon fill="orange" stroke="orange" points="1066.43,-149.26 1056.19,-152 1065.9,-156.24 1066.43,-149.26"/>
<text text-anchor="start" x="1074" y="-175" font-family="Helvetica,sans-Serif" font-size="10.00"> &lt; IN, OUT, IN, IN,</text>
<text text-anchor="middle" x="1116.5" y="-164" font-family="Helvetica,sans-Serif" font-size="10.00"> OUT, OUT &gt;</text>
</g>
</g>
</svg>
        <g id="navigator" transform="translate(0 0)" fill="#404254">
                <rect fill="#f2f5e9" fill-opacity="0.5" stroke="#606060" stroke-width=".5" x="0" y="0" width="60" height="60"/>
                <use id="zoomplus" xlink:href="#zoomPlus" x="17" y="9" onmousedown="handleZoom(evt,'in')"/>
                <use id="zoomminus" xlink:href="#zoomMin" x="42" y="9" onmousedown="handleZoom(evt,'out')"/>
                <use id="reset" xlink:href="#resetDef" x="30" y="36" onmousedown="handleReset()"/>
                <g id="arrowUp" xlink:href="#dirArrow" transform="translate(30 24)" onmousedown="handlePan(0,-1)">
                  <use xlink:href="#rim" fill="#404040">
                        <set attributeName="fill" to="#808080" begin="arrowUp.mouseover" end="arrowUp.mouseout"/>
                  </use>
                  <path fill="none" stroke="white" stroke-width="1.5" d="M0,-3.0v7 M-2.5,-0.5L0,-3.0L2.5,-0.5"/>
                </g>
                <g id="arrowRight" xlink:href="#dirArrow" transform="rotate(90) translate(36 -43)" onmousedown="handlePan(1,0)">
                  <use xlink:href="#rim" fill="#404040">
                        <set attributeName="fill" to="#808080" begin="arrowRight.mouseover" end="arrowRight.mouseout"/>
                  </use>
                  <path fill="none" stroke="white" stroke-width="1.5" d="M0,-3.0v7 M-2.5,-0.5L0,-3.0L2.5,-0.5"/>
                </g>
                <g id="arrowDown" xlink:href="#dirArrow" transform="rotate(180) translate(-30 -48)" onmousedown="handlePan(0,1)">
                  <use xlink:href="#rim" fill="#404040">
                        <set attributeName="fill" to="#808080" begin="arrowDown.mouseover" end="arrowDown.mouseout"/>
                  </use>
                  <path fill="none" stroke="white" stroke-width="1.5" d="M0,-3.0v7 M-2.5,-0.5L0,-3.0L2.5,-0.5"/>
                </g>
                <g id="arrowLeft" xlink:href="#dirArrow" transform="rotate(270) translate(-36 17)" onmousedown="handlePan(-1,0)">
                  <use xlink:href="#rim" fill="#404040">
                        <set attributeName="fill" to="#808080" begin="arrowLeft.mouseover" end="arrowLeft.mouseout"/>
                  </use>
                  <path fill="none" stroke="white" stroke-width="1.5" d="M0,-3.0v7 M-2.5,-0.5L0,-3.0L2.5,-0.5"/>
                </g>
        </g>
        <svg viewBox="0 0 15 15" width="100%" height="30px" preserveAspectRatio="xMaxYMin meet">
         <g id="arrow_out" transform="scale(0.3 0.3)">
          <a xlink:href="class_hysteresis__coll__graph_org.svg" target="_base">
           <rect id="button" ry="5" rx="5" y="6" x="6" height="38" width="38"
                fill="#f2f5e9" fill-opacity="0.5" stroke="#606060" stroke-width="1.0"/>
           <path id="arrow"
             d="M 11.500037,31.436501 C 11.940474,20.09759 22.043105,11.32322 32.158766,21.979434 L 37.068811,17.246167 C 37.068811,17.246167 37.088388,32 37.088388,32 L 22.160133,31.978069 C 22.160133,31.978069 26.997745,27.140456 26.997745,27.140456 C 18.528582,18.264221 13.291696,25.230495 11.500037,31.436501 z"
             style="fill:#404040;"/>
          </a>
         </g>
        </svg>
</svg>
