<?xml version="1.0" encoding="UTF-8" standalone="no"?>
<!DOCTYPE svg PUBLIC "-//W3C//DTD SVG 1.1//EN"
 "http://www.w3.org/Graphics/SVG/1.1/DTD/svg11.dtd">
<!-- Generated by graphviz version 14.1.4 (20260321.0153)
 -->
<!-- Title: sensesp::FileSystemSaveable::load Pages: 1 -->
<svg width="609pt" height="88pt"
 viewBox="0.00 0.00 609.00 88.00" xmlns="http://www.w3.org/2000/svg" xmlns:xlink="http://www.w3.org/1999/xlink">
<g id="graph0" class="graph" transform="scale(1 1) rotate(0) translate(4 83.5)">
<title>sensesp::FileSystemSaveable::load</title>
<!-- Node1 -->
<g id="Node000001" class="node">
<title>Node1</title>
<g id="a_Node000001"><a xlink:title="Load and populate the object from a persistent storage.">
<polygon fill="#999999" stroke="#666666" points="148.75,-54.5 0,-54.5 0,-24 148.75,-24 148.75,-54.5"/>
<text xml:space="preserve" text-anchor="start" x="8" y="-41" font-family="Helvetica,sans-Serif" font-size="10.00">sensesp::FileSystemSaveable</text>
<text xml:space="preserve" text-anchor="middle" x="74.38" y="-29.75" font-family="Helvetica,sans-Serif" font-size="10.00">::load</text>
</a>
</g>
</g>
<!-- Node2 -->
<g id="Node000002" class="node">
<title>Node2</title>
<g id="a_Node000002"><a xlink:href="classsensesp_1_1_file_system_saveable.html#ad0233f7895b5c8915108399420c7cf0b" target="_top" xlink:title=" ">
<polygon fill="white" stroke="#666666" points="333.5,-79.5 184.75,-79.5 184.75,-49 333.5,-49 333.5,-79.5"/>
<text xml:space="preserve" text-anchor="start" x="192.75" y="-66" font-family="Helvetica,sans-Serif" font-size="10.00">sensesp::FileSystemSaveable</text>
<text xml:space="preserve" text-anchor="middle" x="259.12" y="-54.75" font-family="Helvetica,sans-Serif" font-size="10.00">::find_config_file</text>
</a>
</g>
</g>
<!-- Node1&#45;&gt;Node2 -->
<g id="edge1_Node000001_Node000002" class="edge">
<title>Node1&#45;&gt;Node2</title>
<g id="a_edge1_Node000001_Node000002"><a xlink:title=" ">
<path fill="none" stroke="#63b8ff" d="M149.18,-49.35C157.06,-50.42 165.12,-51.53 173.11,-52.62"/>
<polygon fill="#63b8ff" stroke="#63b8ff" points="172.46,-56.06 182.84,-53.95 173.41,-49.13 172.46,-56.06"/>
</a>
</g>
</g>
<!-- Node5 -->
<g id="Node000005" class="node">
<title>Node5</title>
<g id="a_Node000005"><a xlink:href="classsensesp_1_1_serializable.html#a841233a82ef3a7fbcecd5a15b0df12d2" target="_top" xlink:title=" ">
<polygon fill="white" stroke="#666666" points="313.62,-30.5 204.62,-30.5 204.62,0 313.62,0 313.62,-30.5"/>
<text xml:space="preserve" text-anchor="start" x="212.62" y="-17" font-family="Helvetica,sans-Serif" font-size="10.00">sensesp::Serializable</text>
<text xml:space="preserve" text-anchor="middle" x="259.12" y="-5.75" font-family="Helvetica,sans-Serif" font-size="10.00">::from_json</text>
</a>
</g>
</g>
<!-- Node1&#45;&gt;Node5 -->
<g id="edge4_Node000001_Node000005" class="edge">
<title>Node1&#45;&gt;Node5</title>
<g id="a_edge4_Node000001_Node000005"><a xlink:title=" ">
<path fill="none" stroke="#63b8ff" d="M149.18,-29.56C163.72,-27.65 178.87,-25.66 193.1,-23.79"/>
<polygon fill="#63b8ff" stroke="#63b8ff" points="193.32,-27.29 202.78,-22.52 192.41,-20.35 193.32,-27.29"/>
</a>
</g>
</g>
<!-- Node3 -->
<g id="Node000003" class="node">
<title>Node3</title>
<g id="a_Node000003"><a xlink:href="namespacesensesp.html#adad24461f43358c45017cf1cb816ca60" target="_top" xlink:title="A base64&#45;encoded SHA&#45;1 hash function.">
<polygon fill="white" stroke="#666666" points="483.75,-73.88 369.5,-73.88 369.5,-54.62 483.75,-54.62 483.75,-73.88"/>
<text xml:space="preserve" text-anchor="middle" x="426.62" y="-60.38" font-family="Helvetica,sans-Serif" font-size="10.00">sensesp::Base64Sha1</text>
</a>
</g>
</g>
<!-- Node2&#45;&gt;Node3 -->
<g id="edge2_Node000002_Node000003" class="edge">
<title>Node2&#45;&gt;Node3</title>
<g id="a_edge2_Node000002_Node000003"><a xlink:title=" ">
<path fill="none" stroke="#63b8ff" d="M333.68,-64.25C341.68,-64.25 349.8,-64.25 357.74,-64.25"/>
<polygon fill="#63b8ff" stroke="#63b8ff" points="357.67,-67.75 367.67,-64.25 357.67,-60.75 357.67,-67.75"/>
</a>
</g>
</g>
<!-- Node4 -->
<g id="Node000004" class="node">
<title>Node4</title>
<g id="a_Node000004"><a xlink:href="namespacesensesp.html#a37dfeb5f75b7115464a9aa40473d69cf" target="_top" xlink:title="SHA&#45;1 hash function.">
<polygon fill="white" stroke="#666666" points="601,-73.88 519.75,-73.88 519.75,-54.62 601,-54.62 601,-73.88"/>
<text xml:space="preserve" text-anchor="middle" x="560.38" y="-60.38" font-family="Helvetica,sans-Serif" font-size="10.00">sensesp::Sha1</text>
</a>
</g>
</g>
<!-- Node3&#45;&gt;Node4 -->
<g id="edge3_Node000003_Node000004" class="edge">
<title>Node3&#45;&gt;Node4</title>
<g id="a_edge3_Node000003_Node000004"><a xlink:title=" ">
<path fill="none" stroke="#63b8ff" d="M483.88,-64.25C491.96,-64.25 500.24,-64.25 508.22,-64.25"/>
<polygon fill="#63b8ff" stroke="#63b8ff" points="508.12,-67.75 518.12,-64.25 508.12,-60.75 508.12,-67.75"/>
</a>
</g>
</g>
</g>
</svg>
