<?xml version="1.0" encoding="UTF-8" standalone="no"?>
<!DOCTYPE svg PUBLIC "-//W3C//DTD SVG 1.1//EN"
 "http://www.w3.org/Graphics/SVG/1.1/DTD/svg11.dtd">
<!-- Generated by graphviz version 13.0.0 (20250608.1624)
 -->
<!-- Title: sensesp::SensESPMinimalAppBuilder::set_hostname Pages: 1 -->
<svg width="946pt" height="39pt"
 viewBox="0.00 0.00 946.00 39.00" xmlns="http://www.w3.org/2000/svg" xmlns:xlink="http://www.w3.org/1999/xlink">
<g id="graph0" class="graph" transform="scale(1 1) rotate(0) translate(4 34.5)">
<title>sensesp::SensESPMinimalAppBuilder::set_hostname</title>
<!-- Node1 -->
<g id="Node000001" class="node">
<title>Node1</title>
<g id="a_Node000001"><a xlink:title=" ">
<polygon fill="#999999" stroke="#666666" points="152.5,-30.5 0,-30.5 0,0 152.5,0 152.5,-30.5"/>
<text xml:space="preserve" text-anchor="start" x="8" y="-17" font-family="Helvetica,sans-Serif" font-size="10.00">sensesp::SensESPMinimalApp</text>
<text xml:space="preserve" text-anchor="middle" x="76.25" y="-5.75" font-family="Helvetica,sans-Serif" font-size="10.00">Builder::set_hostname</text>
</a>
</g>
</g>
<!-- Node2 -->
<g id="Node000002" class="node">
<title>Node2</title>
<g id="a_Node000002"><a xlink:href="classsensesp_1_1_sens_e_s_p_minimal_app_builder.html#ae87b6bdf071764e9d81e669c90451ced" target="_top" xlink:title=" ">
<polygon fill="white" stroke="#666666" points="364.25,-30.5 188.5,-30.5 188.5,0 364.25,0 364.25,-30.5"/>
<text xml:space="preserve" text-anchor="start" x="196.5" y="-17" font-family="Helvetica,sans-Serif" font-size="10.00">sensesp::SensESPMinimalApp</text>
<text xml:space="preserve" text-anchor="middle" x="276.38" y="-5.75" font-family="Helvetica,sans-Serif" font-size="10.00">Builder::SensESPMinimalAppBuilder</text>
</a>
</g>
</g>
<!-- Node1&#45;&gt;Node2 -->
<g id="edge1_Node000001_Node000002" class="edge">
<title>Node1&#45;&gt;Node2</title>
<g id="a_edge1_Node000001_Node000002"><a xlink:title=" ">
<path fill="none" stroke="#63b8ff" d="M152.72,-15.25C160.6,-15.25 168.69,-15.25 176.77,-15.25"/>
<polygon fill="#63b8ff" stroke="#63b8ff" points="176.67,-18.75 186.67,-15.25 176.67,-11.75 176.67,-18.75"/>
</a>
</g>
</g>
<!-- Node3 -->
<g id="Node000003" class="node">
<title>Node3</title>
<g id="a_Node000003"><a xlink:href="classsensesp_1_1_sens_e_s_p_minimal_app.html#a82f9c635e51473195691c5835d8764a2" target="_top" xlink:title="Get the singleton instance of the SensESPMinimalApp.">
<polygon fill="white" stroke="#666666" points="572.25,-24.88 400.25,-24.88 400.25,-5.63 572.25,-5.63 572.25,-24.88"/>
<text xml:space="preserve" text-anchor="middle" x="486.25" y="-11.38" font-family="Helvetica,sans-Serif" font-size="10.00">sensesp::SensESPMinimalApp::get</text>
</a>
</g>
</g>
<!-- Node2&#45;&gt;Node3 -->
<g id="edge2_Node000002_Node000003" class="edge">
<title>Node2&#45;&gt;Node3</title>
<g id="a_edge2_Node000002_Node000003"><a xlink:title=" ">
<path fill="none" stroke="#63b8ff" d="M364.63,-15.25C372.56,-15.25 380.62,-15.25 388.63,-15.25"/>
<polygon fill="#63b8ff" stroke="#63b8ff" points="388.37,-18.75 398.37,-15.25 388.37,-11.75 388.37,-18.75"/>
</a>
</g>
</g>
<!-- Node4 -->
<g id="Node000004" class="node">
<title>Node4</title>
<g id="a_Node000004"><a xlink:href="classsensesp_1_1_sens_e_s_p_minimal_app.html#a8d274a915ff177159e2020675f0c3217" target="_top" xlink:title=" ">
<polygon fill="white" stroke="#666666" points="760.75,-30.5 608.25,-30.5 608.25,0 760.75,0 760.75,-30.5"/>
<text xml:space="preserve" text-anchor="start" x="616.25" y="-17" font-family="Helvetica,sans-Serif" font-size="10.00">sensesp::SensESPMinimalApp</text>
<text xml:space="preserve" text-anchor="middle" x="684.5" y="-5.75" font-family="Helvetica,sans-Serif" font-size="10.00">::SensESPMinimalApp</text>
</a>
</g>
</g>
<!-- Node3&#45;&gt;Node4 -->
<g id="edge3_Node000003_Node000004" class="edge">
<title>Node3&#45;&gt;Node4</title>
<g id="a_edge3_Node000003_Node000004"><a xlink:title=" ">
<path fill="none" stroke="#63b8ff" d="M572.47,-15.25C580.49,-15.25 588.62,-15.25 596.65,-15.25"/>
<polygon fill="#63b8ff" stroke="#63b8ff" points="596.4,-18.75 606.4,-15.25 596.4,-11.75 596.4,-18.75"/>
</a>
</g>
</g>
<!-- Node5 -->
<g id="Node000005" class="node">
<title>Node5</title>
<g id="a_Node000005"><a xlink:href="classsensesp_1_1_sens_e_s_p_base_app.html#ab20809d53f2c7d030deefc9eb22e5dde" target="_top" xlink:title="Construct a new SensESP Base App object.">
<polygon fill="white" stroke="#666666" points="938,-30.5 796.75,-30.5 796.75,0 938,0 938,-30.5"/>
<text xml:space="preserve" text-anchor="start" x="804.75" y="-17" font-family="Helvetica,sans-Serif" font-size="10.00">sensesp::SensESPBaseApp</text>
<text xml:space="preserve" text-anchor="middle" x="867.38" y="-5.75" font-family="Helvetica,sans-Serif" font-size="10.00">::SensESPBaseApp</text>
</a>
</g>
</g>
<!-- Node4&#45;&gt;Node5 -->
<g id="edge4_Node000004_Node000005" class="edge">
<title>Node4&#45;&gt;Node5</title>
<g id="a_edge4_Node000004_Node000005"><a xlink:title=" ">
<path fill="none" stroke="#63b8ff" d="M761.16,-15.25C769.12,-15.25 777.24,-15.25 785.26,-15.25"/>
<polygon fill="#63b8ff" stroke="#63b8ff" points="784.99,-18.75 794.99,-15.25 784.99,-11.75 784.99,-18.75"/>
</a>
</g>
</g>
</g>
</svg>
