<?xml version="1.0" encoding="UTF-8" standalone="no"?>
<!DOCTYPE svg PUBLIC "-//W3C//DTD SVG 1.1//EN"
 "http://www.w3.org/Graphics/SVG/1.1/DTD/svg11.dtd">
<!-- Generated by graphviz version 13.0.0 (20250608.1624)
 -->
<!-- Title: sensesp::DigitalInputDebounceCounter Pages: 1 -->
<svg width="1230pt" height="145pt"
 viewBox="0.00 0.00 1230.00 145.00" xmlns="http://www.w3.org/2000/svg" xmlns:xlink="http://www.w3.org/1999/xlink">
<g id="graph0" class="graph" transform="scale(1 1) rotate(0) translate(4 140.88)">
<title>sensesp::DigitalInputDebounceCounter</title>
<!-- Node1 -->
<g id="Node000001" class="node">
<title>Node1</title>
<g id="a_Node000001"><a xlink:title="DigitalInputDebounceCounter counts interrupts and reports the count every read_delay ms,...">
<polygon fill="#999999" stroke="#666666" points="1221.5,-91.5 1069,-91.5 1069,-61 1221.5,-61 1221.5,-91.5"/>
<text xml:space="preserve" text-anchor="start" x="1077" y="-78" font-family="Helvetica,sans-Serif" font-size="10.00">sensesp::DigitalInputDebounce</text>
<text xml:space="preserve" text-anchor="middle" x="1145.25" y="-66.75" font-family="Helvetica,sans-Serif" font-size="10.00">Counter</text>
</a>
</g>
</g>
<!-- Node2 -->
<g id="Node000002" class="node">
<title>Node2</title>
<g id="a_Node000002"><a xlink:href="classsensesp_1_1_digital_input_counter.html" target="_top" xlink:title="DigitalInputCounter counts interrupts and reports the count every read_delay ms.">
<polygon fill="white" stroke="#666666" points="1032,-85.88 889.25,-85.88 889.25,-66.62 1032,-66.62 1032,-85.88"/>
<text xml:space="preserve" text-anchor="middle" x="960.62" y="-72.38" font-family="Helvetica,sans-Serif" font-size="10.00">sensesp::DigitalInputCounter</text>
</a>
</g>
</g>
<!-- Node2&#45;&gt;Node1 -->
<g id="edge1_Node000001_Node000002" class="edge">
<title>Node2&#45;&gt;Node1</title>
<g id="a_edge1_Node000001_Node000002"><a xlink:title=" ">
<path fill="none" stroke="#63b8ff" d="M1043.98,-76.25C1052.18,-76.25 1060.46,-76.25 1068.58,-76.25"/>
<polygon fill="#63b8ff" stroke="#63b8ff" points="1044.01,-72.75 1034.01,-76.25 1044.01,-79.75 1044.01,-72.75"/>
</a>
</g>
</g>
<!-- Node3 -->
<g id="Node000003" class="node">
<title>Node3</title>
<g id="a_Node000003"><a xlink:href="classsensesp_1_1_digital_input.html" target="_top" xlink:title="DigitalInput is the base class for reading a digital GPIO pin.">
<polygon fill="white" stroke="#666666" points="847.38,-104.88 739.12,-104.88 739.12,-85.62 847.38,-85.62 847.38,-104.88"/>
<text xml:space="preserve" text-anchor="middle" x="793.25" y="-91.38" font-family="Helvetica,sans-Serif" font-size="10.00">sensesp::DigitalInput</text>
</a>
</g>
</g>
<!-- Node3&#45;&gt;Node2 -->
<g id="edge2_Node000002_Node000003" class="edge">
<title>Node3&#45;&gt;Node2</title>
<g id="a_edge2_Node000002_Node000003"><a xlink:title=" ">
<path fill="none" stroke="#63b8ff" d="M858.88,-87.82C868.75,-86.69 878.99,-85.51 888.99,-84.37"/>
<polygon fill="#63b8ff" stroke="#63b8ff" points="858.52,-84.34 848.99,-88.96 859.32,-91.3 858.52,-84.34"/>
</a>
</g>
</g>
<!-- Node4 -->
<g id="Node000004" class="node">
<title>Node4</title>
<g id="a_Node000004"><a xlink:href="classsensesp_1_1_sensor.html" target="_top" xlink:title=" ">
<polygon fill="white" stroke="#666666" points="852.25,-67.88 734.25,-67.88 734.25,-48.62 852.25,-48.62 852.25,-67.88"/>
<text xml:space="preserve" text-anchor="middle" x="793.25" y="-54.38" font-family="Helvetica,sans-Serif" font-size="10.00">sensesp::Sensor&lt; int &gt;</text>
</a>
</g>
</g>
<!-- Node4&#45;&gt;Node2 -->
<g id="edge3_Node000002_Node000004" class="edge">
<title>Node4&#45;&gt;Node2</title>
<g id="a_edge3_Node000002_Node000004"><a xlink:title=" ">
<path fill="none" stroke="#63b8ff" d="M864,-65.84C872.2,-66.73 880.58,-67.65 888.8,-68.54"/>
<polygon fill="#63b8ff" stroke="#63b8ff" points="864.38,-62.36 854.06,-64.76 863.62,-69.32 864.38,-62.36"/>
</a>
</g>
</g>
<!-- Node5 -->
<g id="Node000005" class="node">
<title>Node5</title>
<g id="a_Node000005"><a xlink:href="classsensesp_1_1_sensor_config.html" target="_top" xlink:title="The base class for all sensors. Used only as a base class &#45; never instantiated directly in a project.">
<polygon fill="white" stroke="#666666" points="463.62,-80.88 345.62,-80.88 345.62,-61.62 463.62,-61.62 463.62,-80.88"/>
<text xml:space="preserve" text-anchor="middle" x="404.62" y="-67.38" font-family="Helvetica,sans-Serif" font-size="10.00">sensesp::SensorConfig</text>
</a>
</g>
</g>
<!-- Node5&#45;&gt;Node4 -->
<g id="edge4_Node000004_Node000005" class="edge">
<title>Node5&#45;&gt;Node4</title>
<g id="a_edge4_Node000004_Node000005"><a xlink:title=" ">
<path fill="none" stroke="#63b8ff" d="M475.41,-68.9C549.27,-66.42 664.54,-62.54 733.79,-60.22"/>
<polygon fill="#63b8ff" stroke="#63b8ff" points="475.31,-65.4 465.44,-69.24 475.55,-72.4 475.31,-65.4"/>
</a>
</g>
</g>
<!-- Node12 -->
<g id="Node000012" class="node">
<title>Node12</title>
<g id="a_Node000012"><a xlink:href="classsensesp_1_1_sensor.html" target="_top" xlink:title="Sensor template class for any sensor producing actual values.">
<polygon fill="white" stroke="#666666" points="662.62,-105.88 549.12,-105.88 549.12,-86.62 662.62,-86.62 662.62,-105.88"/>
<text xml:space="preserve" text-anchor="middle" x="605.88" y="-92.38" font-family="Helvetica,sans-Serif" font-size="10.00">sensesp::Sensor&lt; T &gt;</text>
</a>
</g>
</g>
<!-- Node5&#45;&gt;Node12 -->
<g id="edge14_Node000012_Node000005" class="edge">
<title>Node5&#45;&gt;Node12</title>
<g id="a_edge14_Node000012_Node000005"><a xlink:title=" ">
<path fill="none" stroke="#63b8ff" d="M475.28,-79.99C499.35,-83.01 526,-86.35 548.84,-89.22"/>
<polygon fill="#63b8ff" stroke="#63b8ff" points="475.92,-76.54 465.56,-78.77 475.05,-83.49 475.92,-76.54"/>
</a>
</g>
</g>
<!-- Node6 -->
<g id="Node000006" class="node">
<title>Node6</title>
<g id="a_Node000006"><a xlink:href="classsensesp_1_1_observable.html" target="_top" xlink:title="A base class which allow observers to attach callbacks to themselves. The callbacks will be called wh...">
<polygon fill="white" stroke="#666666" points="274.5,-56.88 166.25,-56.88 166.25,-37.62 274.5,-37.62 274.5,-56.88"/>
<text xml:space="preserve" text-anchor="middle" x="220.38" y="-43.38" font-family="Helvetica,sans-Serif" font-size="10.00">sensesp::Observable</text>
</a>
</g>
</g>
<!-- Node6&#45;&gt;Node5 -->
<g id="edge5_Node000005_Node000006" class="edge">
<title>Node6&#45;&gt;Node5</title>
<g id="a_edge5_Node000005_Node000006"><a xlink:title=" ">
<path fill="none" stroke="#63b8ff" d="M285.75,-55.73C305.13,-58.28 326.28,-61.07 345.25,-63.56"/>
<polygon fill="#63b8ff" stroke="#63b8ff" points="286.45,-52.29 276.08,-54.45 285.54,-59.23 286.45,-52.29"/>
</a>
</g>
</g>
<!-- Node10 -->
<g id="Node000010" class="node">
<title>Node10</title>
<g id="a_Node000010"><a xlink:href="classsensesp_1_1_value_producer.html" target="_top" xlink:title=" ">
<polygon fill="white" stroke="#666666" points="666.75,-30.5 545,-30.5 545,0 666.75,0 666.75,-30.5"/>
<text xml:space="preserve" text-anchor="start" x="553" y="-17" font-family="Helvetica,sans-Serif" font-size="10.00">sensesp::ValueProducer</text>
<text xml:space="preserve" text-anchor="middle" x="605.88" y="-5.75" font-family="Helvetica,sans-Serif" font-size="10.00">&lt; int &gt;</text>
</a>
</g>
</g>
<!-- Node6&#45;&gt;Node10 -->
<g id="edge10_Node000010_Node000006" class="edge">
<title>Node6&#45;&gt;Node10</title>
<g id="a_edge10_Node000010_Node000006"><a xlink:title=" ">
<path fill="none" stroke="#63b8ff" d="M258.88,-33.52C279.97,-26.52 306.97,-18.77 331.75,-15.25 404.4,-4.93 489.02,-7.09 544.59,-10.41"/>
<polygon fill="#63b8ff" stroke="#63b8ff" points="257.89,-30.16 249.56,-36.7 260.15,-36.78 257.89,-30.16"/>
</a>
</g>
</g>
<!-- Node11 -->
<g id="Node000011" class="node">
<title>Node11</title>
<g id="a_Node000011"><a xlink:href="classsensesp_1_1_value_producer.html" target="_top" xlink:title="A base class for any sensor or piece of code that outputs a value for consumption elsewhere.">
<polygon fill="white" stroke="#666666" points="477.5,-43.88 331.75,-43.88 331.75,-24.62 477.5,-24.62 477.5,-43.88"/>
<text xml:space="preserve" text-anchor="middle" x="404.62" y="-30.38" font-family="Helvetica,sans-Serif" font-size="10.00">sensesp::ValueProducer&lt; T &gt;</text>
</a>
</g>
</g>
<!-- Node6&#45;&gt;Node11 -->
<g id="edge12_Node000011_Node000006" class="edge">
<title>Node6&#45;&gt;Node11</title>
<g id="a_edge12_Node000011_Node000006"><a xlink:title=" ">
<path fill="none" stroke="#63b8ff" d="M285.66,-42.66C300.45,-41.61 316.28,-40.48 331.38,-39.4"/>
<polygon fill="#63b8ff" stroke="#63b8ff" points="285.81,-39.14 276.09,-43.35 286.31,-46.13 285.81,-39.14"/>
</a>
</g>
</g>
<!-- Node13 -->
<g id="Node000013" class="node">
<title>Node13</title>
<g id="a_Node000013"><a xlink:href="classsensesp_1_1_value_producer.html" target="_top" xlink:title="A base class for any sensor or piece of code that outputs a value for consumption elsewhere.">
<polygon fill="white" stroke="#666666" points="477.5,-117.88 331.75,-117.88 331.75,-98.62 477.5,-98.62 477.5,-117.88"/>
<text xml:space="preserve" text-anchor="middle" x="404.62" y="-104.38" font-family="Helvetica,sans-Serif" font-size="10.00">sensesp::ValueProducer&lt; T &gt;</text>
</a>
</g>
</g>
<!-- Node6&#45;&gt;Node13 -->
<g id="edge16_Node000013_Node000006" class="edge">
<title>Node6&#45;&gt;Node13</title>
<g id="a_edge16_Node000013_Node000006"><a xlink:title=" ">
<path fill="none" stroke="#63b8ff" d="M255.36,-61.77C276.98,-70.69 305.72,-81.96 331.75,-90.25 340.7,-93.1 350.39,-95.79 359.67,-98.18"/>
<polygon fill="#63b8ff" stroke="#63b8ff" points="256.72,-58.55 246.15,-57.93 254.03,-65.01 256.72,-58.55"/>
</a>
</g>
</g>
<!-- Node7 -->
<g id="Node000007" class="node">
<title>Node7</title>
<g id="a_Node000007"><a xlink:href="classsensesp_1_1_file_system_saveable.html" target="_top" xlink:title=" ">
<polygon fill="white" stroke="#666666" points="294.75,-118.88 146,-118.88 146,-99.62 294.75,-99.62 294.75,-118.88"/>
<text xml:space="preserve" text-anchor="middle" x="220.38" y="-105.38" font-family="Helvetica,sans-Serif" font-size="10.00">sensesp::FileSystemSaveable</text>
</a>
</g>
</g>
<!-- Node7&#45;&gt;Node5 -->
<g id="edge6_Node000005_Node000007" class="edge">
<title>Node7&#45;&gt;Node5</title>
<g id="a_edge6_Node000005_Node000007"><a xlink:title=" ">
<path fill="none" stroke="#63b8ff" d="M280.91,-96.84C305.03,-91.81 332.52,-86.08 355.35,-81.31"/>
<polygon fill="#63b8ff" stroke="#63b8ff" points="280.29,-93.39 271.22,-98.86 281.72,-100.24 280.29,-93.39"/>
</a>
</g>
</g>
<!-- Node8 -->
<g id="Node000008" class="node">
<title>Node8</title>
<g id="a_Node000008"><a xlink:href="classsensesp_1_1_saveable.html" target="_top" xlink:title="Interface for saveable objects.">
<polygon fill="white" stroke="#666666" points="104.12,-136.88 4.88,-136.88 4.88,-117.62 104.12,-117.62 104.12,-136.88"/>
<text xml:space="preserve" text-anchor="middle" x="54.5" y="-123.38" font-family="Helvetica,sans-Serif" font-size="10.00">sensesp::Saveable</text>
</a>
</g>
</g>
<!-- Node8&#45;&gt;Node7 -->
<g id="edge7_Node000007_Node000008" class="edge">
<title>Node8&#45;&gt;Node7</title>
<g id="a_edge7_Node000007_Node000008"><a xlink:title=" ">
<path fill="none" stroke="#63b8ff" d="M115.49,-120.66C125.3,-119.58 135.56,-118.46 145.65,-117.35"/>
<polygon fill="#63b8ff" stroke="#63b8ff" points="115.29,-117.16 105.73,-121.73 116.05,-124.12 115.29,-117.16"/>
</a>
</g>
</g>
<!-- Node9 -->
<g id="Node000009" class="node">
<title>Node9</title>
<g id="a_Node000009"><a xlink:href="classsensesp_1_1_serializable.html" target="_top" xlink:title="Interface for serializable objects.">
<polygon fill="white" stroke="#666666" points="109,-99.88 0,-99.88 0,-80.62 109,-80.62 109,-99.88"/>
<text xml:space="preserve" text-anchor="middle" x="54.5" y="-86.38" font-family="Helvetica,sans-Serif" font-size="10.00">sensesp::Serializable</text>
</a>
</g>
</g>
<!-- Node9&#45;&gt;Node7 -->
<g id="edge8_Node000007_Node000009" class="edge">
<title>Node9&#45;&gt;Node7</title>
<g id="a_edge8_Node000007_Node000009"><a xlink:title=" ">
<path fill="none" stroke="#63b8ff" d="M120.32,-97.77C128.64,-98.73 137.21,-99.72 145.66,-100.7"/>
<polygon fill="#63b8ff" stroke="#63b8ff" points="121,-94.32 110.66,-96.65 120.19,-101.27 121,-94.32"/>
</a>
</g>
</g>
<!-- Node10&#45;&gt;Node4 -->
<g id="edge9_Node000004_Node000010" class="edge">
<title>Node10&#45;&gt;Node4</title>
<g id="a_edge9_Node000004_Node000010"><a xlink:title=" ">
<path fill="none" stroke="#63b8ff" d="M678.19,-31.79C701.99,-37.31 727.77,-43.29 748.8,-48.17"/>
<polygon fill="#63b8ff" stroke="#63b8ff" points="679.07,-28.4 668.54,-29.55 677.49,-35.22 679.07,-28.4"/>
</a>
</g>
</g>
<!-- Node11&#45;&gt;Node10 -->
<g id="edge11_Node000010_Node000011" class="edge">
<title>Node11&#45;&gt;Node10</title>
<g id="a_edge11_Node000010_Node000011"><a xlink:title=" ">
<path fill="none" stroke="orange" stroke-dasharray="5,2" d="M489.3,-26.27C507.9,-24.5 527.26,-22.65 544.7,-20.99"/>
<polygon fill="orange" stroke="orange" points="488.97,-22.79 479.35,-27.22 489.63,-29.75 488.97,-22.79"/>
</a>
</g>
<text xml:space="preserve" text-anchor="middle" x="511.25" y="-27.07" font-family="Helvetica,sans-Serif" font-size="10.00" fill="grey"> &lt; int &gt;</text>
</g>
<!-- Node12&#45;&gt;Node4 -->
<g id="edge13_Node000004_Node000012" class="edge">
<title>Node12&#45;&gt;Node4</title>
<g id="a_edge13_Node000004_Node000012"><a xlink:title=" ">
<path fill="none" stroke="orange" stroke-dasharray="5,2" d="M667.1,-83.9C691.71,-78.86 719.82,-73.1 743.15,-68.31"/>
<polygon fill="orange" stroke="orange" points="666.64,-80.43 657.55,-85.86 668.05,-87.28 666.64,-80.43"/>
</a>
</g>
<text xml:space="preserve" text-anchor="middle" x="700.5" y="-81.28" font-family="Helvetica,sans-Serif" font-size="10.00" fill="grey"> &lt; int &gt;</text>
</g>
<!-- Node13&#45;&gt;Node12 -->
<g id="edge15_Node000012_Node000013" class="edge">
<title>Node13&#45;&gt;Node12</title>
<g id="a_edge15_Node000012_Node000013"><a xlink:title=" ">
<path fill="none" stroke="#63b8ff" d="M489.22,-103.22C509.33,-102 530.33,-100.74 548.83,-99.63"/>
<polygon fill="#63b8ff" stroke="#63b8ff" points="489.12,-99.71 479.35,-103.81 489.54,-106.7 489.12,-99.71"/>
</a>
</g>
</g>
</g>
</svg>
