<?xml version="1.0" encoding="UTF-8" standalone="no"?>
<!DOCTYPE svg PUBLIC "-//W3C//DTD SVG 1.1//EN"
 "http://www.w3.org/Graphics/SVG/1.1/DTD/svg11.dtd">
<!-- Generated by graphviz version 12.2.1 (20241206.2353)
 -->
<!-- Title: sensesp::SensESPApp::connect_status_page_items Pages: 1 -->
<svg width="642pt" height="39pt"
 viewBox="0.00 0.00 642.00 38.50" xmlns="http://www.w3.org/2000/svg" xmlns:xlink="http://www.w3.org/1999/xlink">
<g id="graph0" class="graph" transform="scale(1 1) rotate(0) translate(4 34.5)">
<title>sensesp::SensESPApp::connect_status_page_items</title>
<!-- Node1 -->
<g id="Node000001" class="node">
<title>Node1</title>
<g id="a_Node000001"><a xlink:title=" ">
<polygon fill="#999999" stroke="#666666" points="144.25,-30.5 0,-30.5 0,0 144.25,0 144.25,-30.5"/>
<text text-anchor="start" x="8" y="-17" font-family="Helvetica,sans-Serif" font-size="10.00">sensesp::SensESPApp</text>
<text text-anchor="middle" x="72.12" y="-5.75" font-family="Helvetica,sans-Serif" font-size="10.00">::connect_status_page_items</text>
</a>
</g>
</g>
<!-- Node2 -->
<g id="Node000002" class="node">
<title>Node2</title>
<g id="a_Node000002"><a xlink:href="classsensesp_1_1_observable_value.html#a953b030b296985e7f5ab84ec71290fec" target="_top" xlink:title=" ">
<polygon fill="white" stroke="#666666" points="332,-24.88 180.25,-24.88 180.25,-5.63 332,-5.63 332,-24.88"/>
<text text-anchor="middle" x="256.12" y="-11.38" font-family="Helvetica,sans-Serif" font-size="10.00">sensesp::ObservableValue::set</text>
</a>
</g>
</g>
<!-- Node1&#45;&gt;Node2 -->
<g id="edge1_Node000001_Node000002" class="edge">
<title>Node1&#45;&gt;Node2</title>
<g id="a_edge1_Node000001_Node000002"><a xlink:title=" ">
<path fill="none" stroke="#63b8ff" d="M144.53,-15.25C152.45,-15.25 160.58,-15.25 168.66,-15.25"/>
<polygon fill="#63b8ff" stroke="#63b8ff" points="168.51,-18.75 178.51,-15.25 168.51,-11.75 168.51,-18.75"/>
</a>
</g>
</g>
<!-- Node3 -->
<g id="Node000003" class="node">
<title>Node3</title>
<g id="a_Node000003"><a xlink:href="classsensesp_1_1_value_producer.html#a4f5f0259d0d3cd9a0ed17d657cac04e2" target="_top" xlink:title=" ">
<polygon fill="white" stroke="#666666" points="489.75,-30.5 368,-30.5 368,0 489.75,0 489.75,-30.5"/>
<text text-anchor="start" x="376" y="-17" font-family="Helvetica,sans-Serif" font-size="10.00">sensesp::ValueProducer</text>
<text text-anchor="middle" x="428.88" y="-5.75" font-family="Helvetica,sans-Serif" font-size="10.00">::emit</text>
</a>
</g>
</g>
<!-- Node2&#45;&gt;Node3 -->
<g id="edge2_Node000002_Node000003" class="edge">
<title>Node2&#45;&gt;Node3</title>
<g id="a_edge2_Node000002_Node000003"><a xlink:title=" ">
<path fill="none" stroke="#63b8ff" d="M332.02,-15.25C340.12,-15.25 348.35,-15.25 356.4,-15.25"/>
<polygon fill="#63b8ff" stroke="#63b8ff" points="356.14,-18.75 366.14,-15.25 356.14,-11.75 356.14,-18.75"/>
</a>
</g>
</g>
<!-- Node4 -->
<g id="Node000004" class="node">
<title>Node4</title>
<g id="a_Node000004"><a xlink:href="classsensesp_1_1_observable.html#ab86d00fed8fb85b4c76cb9397667ece9" target="_top" xlink:title=" ">
<polygon fill="white" stroke="#666666" points="634,-30.5 525.75,-30.5 525.75,0 634,0 634,-30.5"/>
<text text-anchor="start" x="533.75" y="-17" font-family="Helvetica,sans-Serif" font-size="10.00">sensesp::Observable</text>
<text text-anchor="middle" x="579.88" y="-5.75" font-family="Helvetica,sans-Serif" font-size="10.00">::notify</text>
</a>
</g>
</g>
<!-- Node3&#45;&gt;Node4 -->
<g id="edge3_Node000003_Node000004" class="edge">
<title>Node3&#45;&gt;Node4</title>
<g id="a_edge3_Node000003_Node000004"><a xlink:title=" ">
<path fill="none" stroke="#63b8ff" d="M490.05,-15.25C498.06,-15.25 506.31,-15.25 514.39,-15.25"/>
<polygon fill="#63b8ff" stroke="#63b8ff" points="514.16,-18.75 524.16,-15.25 514.16,-11.75 514.16,-18.75"/>
</a>
</g>
</g>
</g>
</svg>
