<?xml version="1.0" encoding="UTF-8" standalone="no"?>
<!DOCTYPE svg PUBLIC "-//W3C//DTD SVG 1.1//EN"
 "http://www.w3.org/Graphics/SVG/1.1/DTD/svg11.dtd">
<!-- Generated by graphviz version 13.0.0 (20250608.1624)
 -->
<!-- Title: sensesp::SKPutRequestListener&lt; T &gt; Pages: 1 -->
<svg width="760pt" height="186pt"
 viewBox="0.00 0.00 760.00 186.00" xmlns="http://www.w3.org/2000/svg" xmlns:xlink="http://www.w3.org/1999/xlink">
<g id="graph0" class="graph" transform="scale(1 1) rotate(0) translate(4 181.5)">
<title>sensesp::SKPutRequestListener&lt; T &gt;</title>
<!-- Node1 -->
<g id="Node000001" class="node">
<title>Node1</title>
<g id="a_Node000001"><a xlink:title="An object that listens for PUT requests to come in for the specified SignalK path....">
<polygon fill="#999999" stroke="#666666" points="510.5,-97.88 328,-97.88 328,-78.62 510.5,-78.62 510.5,-97.88"/>
<text xml:space="preserve" text-anchor="middle" x="419.25" y="-84.38" font-family="Helvetica,sans-Serif" font-size="10.00">sensesp::SKPutRequestListener&lt; T &gt;</text>
</a>
</g>
</g>
<!-- Node5 -->
<g id="Node000005" class="node">
<title>Node5</title>
<g id="a_Node000005"><a xlink:href="classsensesp_1_1_s_k_put_request_listener.html" target="_top" xlink:title=" ">
<polygon fill="white" stroke="#666666" points="751.5,-177.5 593,-177.5 593,-147 751.5,-147 751.5,-177.5"/>
<text xml:space="preserve" text-anchor="start" x="601" y="-164" font-family="Helvetica,sans-Serif" font-size="10.00">sensesp::SKPutRequestListener</text>
<text xml:space="preserve" text-anchor="middle" x="672.25" y="-152.75" font-family="Helvetica,sans-Serif" font-size="10.00">&lt; float &gt;</text>
</a>
</g>
</g>
<!-- Node1&#45;&gt;Node5 -->
<g id="edge5_Node000001_Node000005" class="edge">
<title>Node1&#45;&gt;Node5</title>
<g id="a_edge5_Node000001_Node000005"><a xlink:title=" ">
<path fill="none" stroke="orange" stroke-dasharray="5,2" d="M465.3,-101.53C508.12,-114.16 572.54,-133.15 617.91,-146.53"/>
<polygon fill="orange" stroke="orange" points="466.4,-98.21 455.81,-98.74 464.42,-104.92 466.4,-98.21"/>
</a>
</g>
<text xml:space="preserve" text-anchor="middle" x="551.75" y="-133.63" font-family="Helvetica,sans-Serif" font-size="10.00" fill="grey"> &lt; float &gt;</text>
</g>
<!-- Node6 -->
<g id="Node000006" class="node">
<title>Node6</title>
<g id="a_Node000006"><a xlink:href="classsensesp_1_1_s_k_put_request_listener.html" target="_top" xlink:title=" ">
<polygon fill="white" stroke="#666666" points="751.5,-128.5 593,-128.5 593,-98 751.5,-98 751.5,-128.5"/>
<text xml:space="preserve" text-anchor="start" x="601" y="-115" font-family="Helvetica,sans-Serif" font-size="10.00">sensesp::SKPutRequestListener</text>
<text xml:space="preserve" text-anchor="middle" x="672.25" y="-103.75" font-family="Helvetica,sans-Serif" font-size="10.00">&lt; int &gt;</text>
</a>
</g>
</g>
<!-- Node1&#45;&gt;Node6 -->
<g id="edge6_Node000001_Node000006" class="edge">
<title>Node1&#45;&gt;Node6</title>
<g id="a_edge6_Node000001_Node000006"><a xlink:title=" ">
<path fill="none" stroke="orange" stroke-dasharray="5,2" d="M522.3,-98.41C545.82,-100.76 570.47,-103.21 592.8,-105.44"/>
<polygon fill="orange" stroke="orange" points="522.67,-94.93 512.37,-97.43 521.98,-101.9 522.67,-94.93"/>
</a>
</g>
<text xml:space="preserve" text-anchor="middle" x="551.75" y="-104.74" font-family="Helvetica,sans-Serif" font-size="10.00" fill="grey"> &lt; int &gt;</text>
</g>
<!-- Node7 -->
<g id="Node000007" class="node">
<title>Node7</title>
<g id="a_Node000007"><a xlink:href="classsensesp_1_1_s_k_put_request_listener.html" target="_top" xlink:title=" ">
<polygon fill="white" stroke="#666666" points="751.5,-79.5 593,-79.5 593,-49 751.5,-49 751.5,-79.5"/>
<text xml:space="preserve" text-anchor="start" x="601" y="-66" font-family="Helvetica,sans-Serif" font-size="10.00">sensesp::SKPutRequestListener</text>
<text xml:space="preserve" text-anchor="middle" x="672.25" y="-54.75" font-family="Helvetica,sans-Serif" font-size="10.00">&lt; bool &gt;</text>
</a>
</g>
</g>
<!-- Node1&#45;&gt;Node7 -->
<g id="edge7_Node000001_Node000007" class="edge">
<title>Node1&#45;&gt;Node7</title>
<g id="a_edge7_Node000001_Node000007"><a xlink:title=" ">
<path fill="none" stroke="orange" stroke-dasharray="5,2" d="M522.3,-78.49C545.82,-76.24 570.47,-73.89 592.8,-71.75"/>
<polygon fill="orange" stroke="orange" points="521.99,-75.01 512.37,-79.44 522.66,-81.97 521.99,-75.01"/>
</a>
</g>
<text xml:space="preserve" text-anchor="middle" x="551.75" y="-79.44" font-family="Helvetica,sans-Serif" font-size="10.00" fill="grey"> &lt; bool &gt;</text>
</g>
<!-- Node8 -->
<g id="Node000008" class="node">
<title>Node8</title>
<g id="a_Node000008"><a xlink:href="classsensesp_1_1_s_k_put_request_listener.html" target="_top" xlink:title=" ">
<polygon fill="white" stroke="#666666" points="751.5,-30.5 593,-30.5 593,0 751.5,0 751.5,-30.5"/>
<text xml:space="preserve" text-anchor="start" x="601" y="-17" font-family="Helvetica,sans-Serif" font-size="10.00">sensesp::SKPutRequestListener</text>
<text xml:space="preserve" text-anchor="middle" x="672.25" y="-5.75" font-family="Helvetica,sans-Serif" font-size="10.00">&lt; String &gt;</text>
</a>
</g>
</g>
<!-- Node1&#45;&gt;Node8 -->
<g id="edge8_Node000001_Node000008" class="edge">
<title>Node1&#45;&gt;Node8</title>
<g id="a_edge8_Node000001_Node000008"><a xlink:title=" ">
<path fill="none" stroke="orange" stroke-dasharray="5,2" d="M465.77,-75.01C508.37,-62.62 572.05,-44.1 617.21,-30.97"/>
<polygon fill="orange" stroke="orange" points="464.96,-71.6 456.34,-77.75 466.92,-78.32 464.96,-71.6"/>
</a>
</g>
<text xml:space="preserve" text-anchor="middle" x="551.75" y="-57.87" font-family="Helvetica,sans-Serif" font-size="10.00" fill="grey"> &lt; String &gt;</text>
</g>
<!-- Node2 -->
<g id="Node000002" class="node">
<title>Node2</title>
<g id="a_Node000002"><a xlink:href="classsensesp_1_1_s_k_put_listener.html" target="_top" xlink:title="An Obervable class that listens for Signal K PUT requests coming over the websocket connection and no...">
<polygon fill="white" stroke="#666666" points="279,-114.88 157.25,-114.88 157.25,-95.62 279,-95.62 279,-114.88"/>
<text xml:space="preserve" text-anchor="middle" x="218.12" y="-101.38" font-family="Helvetica,sans-Serif" font-size="10.00">sensesp::SKPutListener</text>
</a>
</g>
</g>
<!-- Node2&#45;&gt;Node1 -->
<g id="edge1_Node000001_Node000002" class="edge">
<title>Node2&#45;&gt;Node1</title>
<g id="a_edge1_Node000001_Node000002"><a xlink:title=" ">
<path fill="none" stroke="#63b8ff" d="M290.7,-99.14C302.7,-98.12 315.28,-97.04 327.67,-95.98"/>
<polygon fill="#63b8ff" stroke="#63b8ff" points="290.58,-95.64 280.92,-99.97 291.18,-102.61 290.58,-95.64"/>
</a>
</g>
</g>
<!-- Node3 -->
<g id="Node000003" class="node">
<title>Node3</title>
<g id="a_Node000003"><a xlink:href="classsensesp_1_1_observable.html" target="_top" xlink:title="A base class which allow observers to attach callbacks to themselves. The callbacks will be called wh...">
<polygon fill="white" stroke="#666666" points="108.25,-95.88 0,-95.88 0,-76.62 108.25,-76.62 108.25,-95.88"/>
<text xml:space="preserve" text-anchor="middle" x="54.12" y="-82.38" font-family="Helvetica,sans-Serif" font-size="10.00">sensesp::Observable</text>
</a>
</g>
</g>
<!-- Node3&#45;&gt;Node2 -->
<g id="edge2_Node000002_Node000003" class="edge">
<title>Node3&#45;&gt;Node2</title>
<g id="a_edge2_Node000002_Node000003"><a xlink:title=" ">
<path fill="none" stroke="#63b8ff" d="M119.72,-93.83C132.01,-95.27 144.82,-96.77 156.97,-98.19"/>
<polygon fill="#63b8ff" stroke="#63b8ff" points="120.46,-90.39 110.12,-92.7 119.65,-97.34 120.46,-90.39"/>
</a>
</g>
</g>
<!-- Node4 -->
<g id="Node000004" class="node">
<title>Node4</title>
<g id="a_Node000004"><a xlink:href="classsensesp_1_1_value_producer.html" target="_top" xlink:title="A base class for any sensor or piece of code that outputs a value for consumption elsewhere.">
<polygon fill="white" stroke="#666666" points="291,-77.88 145.25,-77.88 145.25,-58.62 291,-58.62 291,-77.88"/>
<text xml:space="preserve" text-anchor="middle" x="218.12" y="-64.38" font-family="Helvetica,sans-Serif" font-size="10.00">sensesp::ValueProducer&lt; T &gt;</text>
</a>
</g>
</g>
<!-- Node3&#45;&gt;Node4 -->
<g id="edge4_Node000004_Node000003" class="edge">
<title>Node3&#45;&gt;Node4</title>
<g id="a_edge4_Node000004_Node000003"><a xlink:title=" ">
<path fill="none" stroke="#63b8ff" d="M120,-79.04C128.19,-78.13 136.61,-77.2 144.9,-76.28"/>
<polygon fill="#63b8ff" stroke="#63b8ff" points="119.68,-75.56 110.12,-80.14 120.45,-82.51 119.68,-75.56"/>
</a>
</g>
</g>
<!-- Node4&#45;&gt;Node1 -->
<g id="edge3_Node000001_Node000004" class="edge">
<title>Node4&#45;&gt;Node1</title>
<g id="a_edge3_Node000001_Node000004"><a xlink:title=" ">
<path fill="none" stroke="#63b8ff" d="M302.5,-76.62C310.8,-77.46 319.25,-78.31 327.62,-79.15"/>
<polygon fill="#63b8ff" stroke="#63b8ff" points="303.1,-73.17 292.8,-75.65 302.4,-80.13 303.1,-73.17"/>
</a>
</g>
</g>
</g>
</svg>
