<?xml version="1.0" encoding="UTF-8" standalone="no"?>
<!DOCTYPE svg PUBLIC "-//W3C//DTD SVG 1.1//EN"
 "http://www.w3.org/Graphics/SVG/1.1/DTD/svg11.dtd">
<!-- Generated by graphviz version 2.47.0 (20210316.0004)
 -->
<!-- Title: Sensor Pages: 1 -->
<svg width="658pt" height="610pt"
 viewBox="0.00 0.00 658.00 610.00" xmlns="http://www.w3.org/2000/svg" xmlns:xlink="http://www.w3.org/1999/xlink">
<g id="graph0" class="graph" transform="scale(1 1) rotate(0) translate(4 606)">
<title>Sensor</title>
<polygon fill="white" stroke="transparent" points="-4,4 -4,-606 654,-606 654,4 -4,4"/>
<!-- Node1 -->
<g id="node1" class="node">
<title>Node1</title>
<g id="a_node1"><a xlink:title="The base class for all sensors. Used only as a base class &#45; never instantiated directly in a project.">
<polygon fill="#bfbfbf" stroke="black" points="107,-386.5 107,-405.5 154,-405.5 154,-386.5 107,-386.5"/>
<text text-anchor="middle" x="130.5" y="-393.5" font-family="Helvetica,sans-Serif" font-size="10.00">Sensor</text>
</a>
</g>
</g>
<!-- Node5 -->
<g id="node5" class="node">
<title>Node5</title>
<g id="a_node5"><a xlink:href="class_dallas_temperature_sensors.html" target="_top" xlink:title="Finds all 1&#45;Wire temperature sensors that are connected to the ESP and makes the address(es) and temp...">
<polygon fill="white" stroke="black" points="190,-544.5 190,-563.5 324,-563.5 324,-544.5 190,-544.5"/>
<text text-anchor="middle" x="257" y="-551.5" font-family="Helvetica,sans-Serif" font-size="10.00">DallasTemperatureSensors</text>
</a>
</g>
</g>
<!-- Node1&#45;&gt;Node5 -->
<g id="edge4" class="edge">
<title>Node1&#45;&gt;Node5</title>
<path fill="none" stroke="midnightblue" d="M134.35,-415.87C139.73,-446.03 154.25,-503.24 190,-535 194.37,-538.88 199.48,-541.97 204.9,-544.43"/>
<polygon fill="midnightblue" stroke="midnightblue" points="137.76,-415.05 132.71,-405.74 130.85,-416.17 137.76,-415.05"/>
</g>
<!-- Node6 -->
<g id="node6" class="node">
<title>Node6</title>
<g id="a_node6"><a xlink:href="class_digital_input.html" target="_top" xlink:title="DigitalInput is the base class for reading a digital GPIO pin.">
<polygon fill="white" stroke="black" points="224,-506.5 224,-525.5 290,-525.5 290,-506.5 224,-506.5"/>
<text text-anchor="middle" x="257" y="-513.5" font-family="Helvetica,sans-Serif" font-size="10.00">DigitalInput</text>
</a>
</g>
</g>
<!-- Node1&#45;&gt;Node6 -->
<g id="edge5" class="edge">
<title>Node1&#45;&gt;Node6</title>
<path fill="none" stroke="midnightblue" d="M143.08,-414.3C153.94,-430.61 171.29,-454.52 190,-472 204.79,-485.82 224.36,-498.28 238.34,-506.38"/>
<polygon fill="midnightblue" stroke="midnightblue" points="145.86,-412.16 137.47,-405.69 139.99,-415.98 145.86,-412.16"/>
</g>
<!-- Node10 -->
<g id="node10" class="node">
<title>Node10</title>
<g id="a_node10"><a xlink:href="class_free_mem.html" target="_top" xlink:title="Reports the current amount of unused memory of the ESP.">
<polygon fill="white" stroke="black" points="228,-443.5 228,-462.5 286,-462.5 286,-443.5 228,-443.5"/>
<text text-anchor="middle" x="257" y="-450.5" font-family="Helvetica,sans-Serif" font-size="10.00">FreeMem</text>
</a>
</g>
</g>
<!-- Node1&#45;&gt;Node10 -->
<g id="edge9" class="edge">
<title>Node1&#45;&gt;Node10</title>
<path fill="none" stroke="midnightblue" d="M152.21,-411.61C163.03,-419.19 176.74,-427.95 190,-434 201.93,-439.45 215.8,-443.72 227.73,-446.82"/>
<polygon fill="midnightblue" stroke="midnightblue" points="154.04,-408.61 143.88,-405.6 149.94,-414.29 154.04,-408.61"/>
</g>
<!-- Node11 -->
<g id="node11" class="node">
<title>Node11</title>
<g id="a_node11"><a xlink:href="class_g_p_s_input.html" target="_top" xlink:title="Support for a GPS module communicating with NMEA&#45;0183 messages over a serial interface.">
<polygon fill="white" stroke="black" points="227.5,-405.5 227.5,-424.5 286.5,-424.5 286.5,-405.5 227.5,-405.5"/>
<text text-anchor="middle" x="257" y="-412.5" font-family="Helvetica,sans-Serif" font-size="10.00">GPSInput</text>
</a>
</g>
</g>
<!-- Node1&#45;&gt;Node11 -->
<g id="edge10" class="edge">
<title>Node1&#45;&gt;Node11</title>
<path fill="none" stroke="midnightblue" d="M164.09,-400.97C183.77,-403.98 208.6,-407.77 227.49,-410.65"/>
<polygon fill="midnightblue" stroke="midnightblue" points="164.46,-397.49 154.05,-399.44 163.4,-404.41 164.46,-397.49"/>
</g>
<!-- Node12 -->
<g id="node12" class="node">
<title>Node12</title>
<g id="a_node12"><a xlink:href="class_i_n_a219.html" target="_top" xlink:title="Represents an ADAfruit (or compatible) INA219 High Side DC Current Sensor.">
<polygon fill="white" stroke="black" points="232,-367.5 232,-386.5 282,-386.5 282,-367.5 232,-367.5"/>
<text text-anchor="middle" x="257" y="-374.5" font-family="Helvetica,sans-Serif" font-size="10.00">INA219</text>
</a>
</g>
</g>
<!-- Node1&#45;&gt;Node12 -->
<g id="edge11" class="edge">
<title>Node1&#45;&gt;Node12</title>
<path fill="none" stroke="midnightblue" d="M163.94,-391.05C185.22,-387.8 212.58,-383.63 231.92,-380.67"/>
<polygon fill="midnightblue" stroke="midnightblue" points="163.4,-387.59 154.05,-392.56 164.46,-394.51 163.4,-387.59"/>
</g>
<!-- Node13 -->
<g id="node13" class="node">
<title>Node13</title>
<g id="a_node13"><a xlink:href="class_integer_sensor.html" target="_top" xlink:title="A Sensor whose output is an integer.">
<polygon fill="white" stroke="black" points="218.5,-329.5 218.5,-348.5 295.5,-348.5 295.5,-329.5 218.5,-329.5"/>
<text text-anchor="middle" x="257" y="-336.5" font-family="Helvetica,sans-Serif" font-size="10.00">IntegerSensor</text>
</a>
</g>
</g>
<!-- Node1&#45;&gt;Node13 -->
<g id="edge12" class="edge">
<title>Node1&#45;&gt;Node13</title>
<path fill="none" stroke="midnightblue" d="M152.21,-380.39C163.03,-372.81 176.74,-364.05 190,-358 198.89,-353.94 208.86,-350.53 218.3,-347.77"/>
<polygon fill="midnightblue" stroke="midnightblue" points="149.94,-377.71 143.88,-386.4 154.04,-383.39 149.94,-377.71"/>
</g>
<!-- Node14 -->
<g id="node14" class="node">
<title>Node14</title>
<g id="a_node14"><a xlink:href="class_numeric_sensor.html" target="_top" xlink:title="A Sensor whose output is a float.">
<polygon fill="white" stroke="black" points="215,-266.5 215,-285.5 299,-285.5 299,-266.5 215,-266.5"/>
<text text-anchor="middle" x="257" y="-273.5" font-family="Helvetica,sans-Serif" font-size="10.00">NumericSensor</text>
</a>
</g>
</g>
<!-- Node1&#45;&gt;Node14 -->
<g id="edge13" class="edge">
<title>Node1&#45;&gt;Node14</title>
<path fill="none" stroke="midnightblue" d="M143.08,-377.7C153.94,-361.39 171.29,-337.48 190,-320 204.79,-306.18 224.36,-293.72 238.34,-285.62"/>
<polygon fill="midnightblue" stroke="midnightblue" points="139.99,-376.02 137.47,-386.31 145.86,-379.84 139.99,-376.02"/>
</g>
<!-- Node28 -->
<g id="node28" class="node">
<title>Node28</title>
<g id="a_node28"><a xlink:href="class_string_sensor.html" target="_top" xlink:title="A Sensor whose output is a String.">
<polygon fill="white" stroke="black" points="220.5,-114.5 220.5,-133.5 293.5,-133.5 293.5,-114.5 220.5,-114.5"/>
<text text-anchor="middle" x="257" y="-121.5" font-family="Helvetica,sans-Serif" font-size="10.00">StringSensor</text>
</a>
</g>
</g>
<!-- Node1&#45;&gt;Node28 -->
<g id="edge27" class="edge">
<title>Node1&#45;&gt;Node28</title>
<path fill="none" stroke="midnightblue" d="M139.02,-377.1C149.82,-350.21 170.56,-299.45 190,-257 211.47,-210.13 239.68,-155.32 250.99,-133.58"/>
<polygon fill="midnightblue" stroke="midnightblue" points="135.73,-375.89 135.27,-386.47 142.23,-378.49 135.73,-375.89"/>
</g>
<!-- Node2 -->
<g id="node2" class="node">
<title>Node2</title>
<g id="a_node2"><a xlink:href="class_observable.html" target="_top" xlink:title="A base class which allow observers to attach callbacks to themselves. The callbacks will be called wh...">
<polygon fill="white" stroke="black" points="2.5,-424.5 2.5,-443.5 68.5,-443.5 68.5,-424.5 2.5,-424.5"/>
<text text-anchor="middle" x="35.5" y="-431.5" font-family="Helvetica,sans-Serif" font-size="10.00">Observable</text>
</a>
</g>
</g>
<!-- Node2&#45;&gt;Node1 -->
<g id="edge1" class="edge">
<title>Node2&#45;&gt;Node1</title>
<path fill="none" stroke="midnightblue" d="M69.47,-420.53C81.78,-415.5 95.48,-409.9 106.68,-405.32"/>
<polygon fill="midnightblue" stroke="midnightblue" points="67.9,-417.39 59.97,-424.41 70.55,-423.87 67.9,-417.39"/>
</g>
<!-- Node3 -->
<g id="node3" class="node">
<title>Node3</title>
<g id="a_node3"><a xlink:href="class_configurable.html" target="_top" xlink:title="An object that is capable of having configuration data that can be set remotely using a RESTful API,...">
<polygon fill="white" stroke="black" points="0,-386.5 0,-405.5 71,-405.5 71,-386.5 0,-386.5"/>
<text text-anchor="middle" x="35.5" y="-393.5" font-family="Helvetica,sans-Serif" font-size="10.00">Configurable</text>
</a>
</g>
</g>
<!-- Node3&#45;&gt;Node1 -->
<g id="edge2" class="edge">
<title>Node3&#45;&gt;Node1</title>
<path fill="none" stroke="midnightblue" d="M81.14,-396C90.1,-396 99.16,-396 106.97,-396"/>
<polygon fill="midnightblue" stroke="midnightblue" points="81.13,-392.5 71.13,-396 81.13,-399.5 81.13,-392.5"/>
</g>
<!-- Node4 -->
<g id="node4" class="node">
<title>Node4</title>
<g id="a_node4"><a xlink:href="class_enable.html" target="_top" xlink:title="Classes that implement &quot;Enable&quot; will have their enable() method called automatically at startup when ...">
<polygon fill="white" stroke="black" points="12,-348.5 12,-367.5 59,-367.5 59,-348.5 12,-348.5"/>
<text text-anchor="middle" x="35.5" y="-355.5" font-family="Helvetica,sans-Serif" font-size="10.00">Enable</text>
</a>
</g>
</g>
<!-- Node4&#45;&gt;Node1 -->
<g id="edge3" class="edge">
<title>Node4&#45;&gt;Node1</title>
<path fill="none" stroke="midnightblue" d="M68.32,-371C80.99,-376.18 95.29,-382.02 106.87,-386.75"/>
<polygon fill="midnightblue" stroke="midnightblue" points="69.59,-367.74 59.01,-367.2 66.95,-374.22 69.59,-367.74"/>
</g>
<!-- Node7 -->
<g id="node7" class="node">
<title>Node7</title>
<g id="a_node7"><a xlink:href="class_digital_input_change.html" target="_top" xlink:title="DigitalInputChange is meant to report when a digital pin changes its state.">
<polygon fill="white" stroke="black" points="373,-582.5 373,-601.5 473,-601.5 473,-582.5 373,-582.5"/>
<text text-anchor="middle" x="423" y="-589.5" font-family="Helvetica,sans-Serif" font-size="10.00">DigitalInputChange</text>
</a>
</g>
</g>
<!-- Node6&#45;&gt;Node7 -->
<g id="edge6" class="edge">
<title>Node6&#45;&gt;Node7</title>
<path fill="none" stroke="midnightblue" d="M299.95,-524.44C308.26,-527.1 316.68,-530.55 324,-535 343.88,-547.09 340.23,-560.74 360,-573 366.22,-576.86 373.28,-579.98 380.35,-582.49"/>
<polygon fill="midnightblue" stroke="midnightblue" points="300.88,-521.06 290.31,-521.67 298.95,-527.79 300.88,-521.06"/>
</g>
<!-- Node8 -->
<g id="node8" class="node">
<title>Node8</title>
<g id="a_node8"><a xlink:href="class_digital_input_counter.html" target="_top" xlink:title="DigitalInputCounter counts interrupts and reports the count every read_delay ms.">
<polygon fill="white" stroke="black" points="372.5,-544.5 372.5,-563.5 473.5,-563.5 473.5,-544.5 372.5,-544.5"/>
<text text-anchor="middle" x="423" y="-551.5" font-family="Helvetica,sans-Serif" font-size="10.00">DigitalInputCounter</text>
</a>
</g>
</g>
<!-- Node6&#45;&gt;Node8 -->
<g id="edge7" class="edge">
<title>Node6&#45;&gt;Node8</title>
<path fill="none" stroke="midnightblue" d="M299.86,-525.7C324.68,-531.45 356.02,-538.71 380.73,-544.44"/>
<polygon fill="midnightblue" stroke="midnightblue" points="300.54,-522.26 290.01,-523.42 298.96,-529.08 300.54,-522.26"/>
</g>
<!-- Node9 -->
<g id="node9" class="node">
<title>Node9</title>
<g id="a_node9"><a xlink:href="class_digital_input_state.html" target="_top" xlink:title="DigitalInputState reports the state of a digital pin every read_delay ms.">
<polygon fill="white" stroke="black" points="378.5,-506.5 378.5,-525.5 467.5,-525.5 467.5,-506.5 378.5,-506.5"/>
<text text-anchor="middle" x="423" y="-513.5" font-family="Helvetica,sans-Serif" font-size="10.00">DigitalInputState</text>
</a>
</g>
</g>
<!-- Node6&#45;&gt;Node9 -->
<g id="edge8" class="edge">
<title>Node6&#45;&gt;Node9</title>
<path fill="none" stroke="midnightblue" d="M300.21,-516C324.16,-516 354.09,-516 378.28,-516"/>
<polygon fill="midnightblue" stroke="midnightblue" points="300.01,-512.5 290.01,-516 300.01,-519.5 300.01,-512.5"/>
</g>
<!-- Node15 -->
<g id="node15" class="node">
<title>Node15</title>
<g id="a_node15"><a xlink:href="class_a_d_s1x15_raw_value.html" target="_top" xlink:title="Used to read the raw output of the ADS1x15, which is an integer between 0 and 32,768....">
<polygon fill="white" stroke="black" points="364,-457 364,-487 482,-487 482,-457 364,-457"/>
<text text-anchor="start" x="372" y="-475" font-family="Helvetica,sans-Serif" font-size="10.00">ADS1x15RawValue&lt; T</text>
<text text-anchor="middle" x="423" y="-464" font-family="Helvetica,sans-Serif" font-size="10.00">_ads_1x15 &gt;</text>
</a>
</g>
</g>
<!-- Node14&#45;&gt;Node15 -->
<g id="edge14" class="edge">
<title>Node14&#45;&gt;Node15</title>
<path fill="none" stroke="midnightblue" d="M288.86,-290.46C301.39,-297.72 315,-307.64 324,-320 358.54,-367.42 320.79,-403.35 360,-447 363.49,-450.89 367.67,-454.18 372.19,-456.96"/>
<polygon fill="midnightblue" stroke="midnightblue" points="290.47,-287.35 280.01,-285.64 287.12,-293.49 290.47,-287.35"/>
</g>
<!-- Node17 -->
<g id="node17" class="node">
<title>Node17</title>
<g id="a_node17"><a xlink:href="class_analog_input.html" target="_top" xlink:title="Sensor for reading the MCU analog input pins.">
<polygon fill="white" stroke="black" points="389,-418.5 389,-437.5 457,-437.5 457,-418.5 389,-418.5"/>
<text text-anchor="middle" x="423" y="-425.5" font-family="Helvetica,sans-Serif" font-size="10.00">AnalogInput</text>
</a>
</g>
</g>
<!-- Node14&#45;&gt;Node17 -->
<g id="edge16" class="edge">
<title>Node14&#45;&gt;Node17</title>
<path fill="none" stroke="midnightblue" d="M287.42,-290.47C300.05,-297.87 314.13,-307.89 324,-320 350.95,-353.08 328.54,-380.17 360,-409 367.97,-416.3 378.68,-420.8 388.95,-423.57"/>
<polygon fill="midnightblue" stroke="midnightblue" points="289.01,-287.34 278.57,-285.55 285.61,-293.46 289.01,-287.34"/>
</g>
<!-- Node18 -->
<g id="node18" class="node">
<title>Node18</title>
<g id="a_node18"><a xlink:href="class_b_m_e280_value.html" target="_top" xlink:title="BME280Value reads and outputs the specified value of a BME280 sensor.">
<polygon fill="white" stroke="black" points="384,-380.5 384,-399.5 462,-399.5 462,-380.5 384,-380.5"/>
<text text-anchor="middle" x="423" y="-387.5" font-family="Helvetica,sans-Serif" font-size="10.00">BME280Value</text>
</a>
</g>
</g>
<!-- Node14&#45;&gt;Node18 -->
<g id="edge17" class="edge">
<title>Node14&#45;&gt;Node18</title>
<path fill="none" stroke="midnightblue" d="M284.88,-290.79C297.56,-298.52 312.41,-308.71 324,-320 343.88,-339.36 337.53,-354.73 360,-371 367.02,-376.08 375.43,-379.83 383.75,-382.58"/>
<polygon fill="midnightblue" stroke="midnightblue" points="286.5,-287.68 276.11,-285.62 282.94,-293.71 286.5,-287.68"/>
</g>
<!-- Node19 -->
<g id="node19" class="node">
<title>Node19</title>
<g id="a_node19"><a xlink:href="class_b_m_p280_value.html" target="_top" xlink:title="BMP280Value reads and outputs the specified value of a BMP280 sensor.">
<polygon fill="white" stroke="black" points="384,-342.5 384,-361.5 462,-361.5 462,-342.5 384,-342.5"/>
<text text-anchor="middle" x="423" y="-349.5" font-family="Helvetica,sans-Serif" font-size="10.00">BMP280Value</text>
</a>
</g>
</g>
<!-- Node14&#45;&gt;Node19 -->
<g id="edge18" class="edge">
<title>Node14&#45;&gt;Node19</title>
<path fill="none" stroke="midnightblue" d="M281.23,-290.86C301.45,-303.33 331.85,-320.98 360,-333 368.28,-336.54 377.44,-339.72 386.13,-342.42"/>
<polygon fill="midnightblue" stroke="midnightblue" points="283.04,-287.86 272.7,-285.53 279.33,-293.8 283.04,-287.86"/>
</g>
<!-- Node20 -->
<g id="node20" class="node">
<title>Node20</title>
<g id="a_node20"><a xlink:href="class_i_n_a219_value.html" target="_top" xlink:title="INA219Value reads and outputs the specified value of an INA219 sensor.">
<polygon fill="white" stroke="black" points="386,-304.5 386,-323.5 460,-323.5 460,-304.5 386,-304.5"/>
<text text-anchor="middle" x="423" y="-311.5" font-family="Helvetica,sans-Serif" font-size="10.00">INA219Value</text>
</a>
</g>
</g>
<!-- Node14&#45;&gt;Node20 -->
<g id="edge19" class="edge">
<title>Node14&#45;&gt;Node20</title>
<path fill="none" stroke="midnightblue" d="M309.38,-287.9C334.23,-293.66 363.47,-300.44 385.93,-305.64"/>
<polygon fill="midnightblue" stroke="midnightblue" points="309.92,-284.44 299.38,-285.59 308.34,-291.26 309.92,-284.44"/>
</g>
<!-- Node21 -->
<g id="node21" class="node">
<title>Node21</title>
<g id="a_node21"><a xlink:href="class_m_a_x31856_thermocouple.html" target="_top" xlink:title="Reads the temperature from an Adafruit MAX31856 (or compatible) thermocouple breakout board....">
<polygon fill="white" stroke="black" points="360,-266.5 360,-285.5 486,-285.5 486,-266.5 360,-266.5"/>
<text text-anchor="middle" x="423" y="-273.5" font-family="Helvetica,sans-Serif" font-size="10.00">MAX31856Thermocouple</text>
</a>
</g>
</g>
<!-- Node14&#45;&gt;Node21 -->
<g id="edge20" class="edge">
<title>Node14&#45;&gt;Node21</title>
<path fill="none" stroke="midnightblue" d="M309.58,-276C325.52,-276 343.26,-276 359.85,-276"/>
<polygon fill="midnightblue" stroke="midnightblue" points="309.38,-272.5 299.38,-276 309.38,-279.5 309.38,-272.5"/>
</g>
<!-- Node22 -->
<g id="node22" class="node">
<title>Node22</title>
<g id="a_node22"><a xlink:href="class_one_wire_temperature.html" target="_top" xlink:title="Used to read the temperature from a single 1&#45;Wire temperature sensor. If you have X sensors connected...">
<polygon fill="white" stroke="black" points="368.5,-228.5 368.5,-247.5 477.5,-247.5 477.5,-228.5 368.5,-228.5"/>
<text text-anchor="middle" x="423" y="-235.5" font-family="Helvetica,sans-Serif" font-size="10.00">OneWireTemperature</text>
</a>
</g>
</g>
<!-- Node14&#45;&gt;Node22 -->
<g id="edge21" class="edge">
<title>Node14&#45;&gt;Node22</title>
<path fill="none" stroke="midnightblue" d="M309.34,-264.1C332.39,-258.76 359.22,-252.55 380.91,-247.52"/>
<polygon fill="midnightblue" stroke="midnightblue" points="308.34,-260.74 299.38,-266.41 309.92,-267.56 308.34,-260.74"/>
</g>
<!-- Node23 -->
<g id="node23" class="node">
<title>Node23</title>
<g id="a_node23"><a xlink:href="class_s_h_t31_value.html" target="_top" xlink:title="SHT31Value reads and outputs the specified value of an SHT31 sensor.">
<polygon fill="white" stroke="black" points="387.5,-190.5 387.5,-209.5 458.5,-209.5 458.5,-190.5 387.5,-190.5"/>
<text text-anchor="middle" x="423" y="-197.5" font-family="Helvetica,sans-Serif" font-size="10.00">SHT31Value</text>
</a>
</g>
</g>
<!-- Node14&#45;&gt;Node23 -->
<g id="edge22" class="edge">
<title>Node14&#45;&gt;Node23</title>
<path fill="none" stroke="midnightblue" d="M281.23,-261.14C301.45,-248.67 331.85,-231.02 360,-219 368.7,-215.29 378.36,-211.97 387.42,-209.18"/>
<polygon fill="midnightblue" stroke="midnightblue" points="279.33,-258.2 272.7,-266.47 283.04,-264.14 279.33,-258.2"/>
</g>
<!-- Node24 -->
<g id="node24" class="node">
<title>Node24</title>
<g id="a_node24"><a xlink:href="class_system_hz.html" target="_top" xlink:title="Reports the current clock speed of the ESP.">
<polygon fill="white" stroke="black" points="391.5,-152.5 391.5,-171.5 454.5,-171.5 454.5,-152.5 391.5,-152.5"/>
<text text-anchor="middle" x="423" y="-159.5" font-family="Helvetica,sans-Serif" font-size="10.00">SystemHz</text>
</a>
</g>
</g>
<!-- Node14&#45;&gt;Node24 -->
<g id="edge23" class="edge">
<title>Node14&#45;&gt;Node24</title>
<path fill="none" stroke="midnightblue" d="M272.29,-258.52C290.54,-237.29 324.08,-201.74 360,-181 369.55,-175.48 380.88,-171.41 391.22,-168.47"/>
<polygon fill="midnightblue" stroke="midnightblue" points="269.42,-256.5 265.65,-266.41 274.77,-261.01 269.42,-256.5"/>
</g>
<!-- Node25 -->
<g id="node25" class="node">
<title>Node25</title>
<g id="a_node25"><a xlink:href="class_ultrasonic_distance.html" target="_top" xlink:title="Reads a DYP&#45;A02YYWM&#45;V1.0 (and possibly other types) ultrasonic sensor and outputs the number of micro...">
<polygon fill="white" stroke="black" points="373,-114.5 373,-133.5 473,-133.5 473,-114.5 373,-114.5"/>
<text text-anchor="middle" x="423" y="-121.5" font-family="Helvetica,sans-Serif" font-size="10.00">UltrasonicDistance</text>
</a>
</g>
</g>
<!-- Node14&#45;&gt;Node25 -->
<g id="edge24" class="edge">
<title>Node14&#45;&gt;Node25</title>
<path fill="none" stroke="midnightblue" d="M267.39,-257.31C282.79,-228.51 316.17,-173.44 360,-143 365.55,-139.15 371.9,-136.06 378.38,-133.58"/>
<polygon fill="midnightblue" stroke="midnightblue" points="264.21,-255.83 262.7,-266.32 270.42,-259.06 264.21,-255.83"/>
</g>
<!-- Node26 -->
<g id="node26" class="node">
<title>Node26</title>
<g id="a_node26"><a xlink:href="class_uptime.html" target="_top" xlink:title="Reports the number of seconds since the last restart of the ESP.">
<polygon fill="white" stroke="black" points="399,-76.5 399,-95.5 447,-95.5 447,-76.5 399,-76.5"/>
<text text-anchor="middle" x="423" y="-83.5" font-family="Helvetica,sans-Serif" font-size="10.00">Uptime</text>
</a>
</g>
</g>
<!-- Node14&#45;&gt;Node26 -->
<g id="edge25" class="edge">
<title>Node14&#45;&gt;Node26</title>
<path fill="none" stroke="midnightblue" d="M266.98,-257.32C286.45,-217.51 332.98,-126.2 360,-105 371.16,-96.25 386.35,-91.51 398.91,-88.95"/>
<polygon fill="midnightblue" stroke="midnightblue" points="263.76,-255.94 262.54,-266.47 270.06,-259 263.76,-255.94"/>
</g>
<!-- Node27 -->
<g id="node27" class="node">
<title>Node27</title>
<g id="a_node27"><a xlink:href="class_wifi_signal.html" target="_top" xlink:title="Reports the current strength of the wifi signal that the ESP is connected to.">
<polygon fill="white" stroke="black" points="392.5,-38.5 392.5,-57.5 453.5,-57.5 453.5,-38.5 392.5,-38.5"/>
<text text-anchor="middle" x="423" y="-45.5" font-family="Helvetica,sans-Serif" font-size="10.00">WifiSignal</text>
</a>
</g>
</g>
<!-- Node14&#45;&gt;Node27 -->
<g id="edge26" class="edge">
<title>Node14&#45;&gt;Node27</title>
<path fill="none" stroke="midnightblue" d="M267.38,-257.36C280.28,-231.68 304.14,-183.95 324,-143 340.31,-109.37 331.73,-91.44 360,-67 369.03,-59.2 381.21,-54.6 392.38,-51.89"/>
<polygon fill="midnightblue" stroke="midnightblue" points="264.23,-255.84 262.86,-266.35 270.48,-258.99 264.23,-255.84"/>
</g>
<!-- Node16 -->
<g id="node16" class="node">
<title>Node16</title>
<g id="a_node16"><a xlink:href="class_a_d_s1x15_voltage.html" target="_top" xlink:title="Reads the raw output of the ADS1x15 (an integer between 0 and 32,768) and converts it back into the v...">
<polygon fill="white" stroke="black" points="522,-457 522,-487 650,-487 650,-457 522,-457"/>
<text text-anchor="start" x="530" y="-475" font-family="Helvetica,sans-Serif" font-size="10.00">ADS1x15Voltage&lt; T_ads</text>
<text text-anchor="middle" x="586" y="-464" font-family="Helvetica,sans-Serif" font-size="10.00">_1x15 &gt;</text>
</a>
</g>
</g>
<!-- Node15&#45;&gt;Node16 -->
<g id="edge15" class="edge">
<title>Node15&#45;&gt;Node16</title>
<path fill="none" stroke="midnightblue" d="M492.23,-472C502.03,-472 512.09,-472 521.79,-472"/>
<polygon fill="midnightblue" stroke="midnightblue" points="492.12,-468.5 482.12,-472 492.12,-475.5 492.12,-468.5"/>
</g>
<!-- Node29 -->
<g id="node29" class="node">
<title>Node29</title>
<g id="a_node29"><a xlink:href="class_i_p_addr_dev.html" target="_top" xlink:title="Reports the IP address of the ESP once it&#39;s connected to wifi.">
<polygon fill="white" stroke="black" points="391.5,-0.5 391.5,-19.5 454.5,-19.5 454.5,-0.5 391.5,-0.5"/>
<text text-anchor="middle" x="423" y="-7.5" font-family="Helvetica,sans-Serif" font-size="10.00">IPAddrDev</text>
</a>
</g>
</g>
<!-- Node28&#45;&gt;Node29 -->
<g id="edge28" class="edge">
<title>Node28&#45;&gt;Node29</title>
<path fill="none" stroke="midnightblue" d="M272.29,-106.52C290.54,-85.29 324.08,-49.74 360,-29 369.55,-23.48 380.88,-19.41 391.22,-16.47"/>
<polygon fill="midnightblue" stroke="midnightblue" points="269.42,-104.5 265.65,-114.41 274.77,-109.01 269.42,-104.5"/>
</g>
</g>
</svg>
