<?xml version="1.0" encoding="UTF-8" standalone="no"?>
<!DOCTYPE svg PUBLIC "-//W3C//DTD SVG 1.1//EN"
 "http://www.w3.org/Graphics/SVG/1.1/DTD/svg11.dtd">
<!-- Generated by graphviz version 3.0.0 (20220226.1711)
 -->
<!-- Title: sensesp::Typecast&lt; IN, OUT &gt; Pages: 1 -->
<svg width="1771pt" height="209pt"
 viewBox="0.00 0.00 1771.00 208.57" xmlns="http://www.w3.org/2000/svg" xmlns:xlink="http://www.w3.org/1999/xlink">
<g id="graph0" class="graph" transform="scale(1 1) rotate(0) translate(4 204.57)">
<title>sensesp::Typecast&lt; IN, OUT &gt;</title>
<polygon fill="white" stroke="transparent" points="-4,4 -4,-204.57 1767,-204.57 1767,4 -4,4"/>
<!-- Node1 -->
<g id="node1" class="node">
<title>Node1</title>
<g id="a_node1"><a xlink:title="Converts input from one data type to another, then outputs the new type.">
<polygon fill="#bfbfbf" stroke="black" points="1313,-126.57 1313,-156.57 1418,-156.57 1418,-126.57 1313,-126.57"/>
<text text-anchor="start" x="1321" y="-144.57" font-family="Helvetica,sans-Serif" font-size="10.00">sensesp::Typecast&lt;</text>
<text text-anchor="middle" x="1365.5" y="-133.57" font-family="Helvetica,sans-Serif" font-size="10.00"> IN, OUT &gt;</text>
</a>
</g>
</g>
<!-- Node15 -->
<g id="node15" class="node">
<title>Node15</title>
<g id="a_node15"><a xlink:href="classsensesp_1_1_typecast.html" target="_top" xlink:title=" ">
<polygon fill="white" stroke="black" points="1511,-126.57 1511,-156.57 1616,-156.57 1616,-126.57 1511,-126.57"/>
<text text-anchor="start" x="1519" y="-144.57" font-family="Helvetica,sans-Serif" font-size="10.00">sensesp::Typecast&lt;</text>
<text text-anchor="middle" x="1563.5" y="-133.57" font-family="Helvetica,sans-Serif" font-size="10.00"> float, int &gt;</text>
</a>
</g>
</g>
<!-- Node1&#45;&gt;Node15 -->
<g id="edge18" class="edge">
<title>Node1&#45;&gt;Node15</title>
<path fill="none" stroke="orange" stroke-dasharray="5,2" d="M1428.56,-141.57C1455.03,-141.57 1485.57,-141.57 1510.8,-141.57"/>
<polygon fill="orange" stroke="orange" points="1428.25,-138.07 1418.25,-141.57 1428.25,-145.07 1428.25,-138.07"/>
<text text-anchor="middle" x="1464.5" y="-144.57" font-family="Helvetica,sans-Serif" font-size="10.00"> &lt; float, int &gt;</text>
</g>
<!-- Node2 -->
<g id="node2" class="node">
<title>Node2</title>
<g id="a_node2"><a xlink:href="classsensesp_1_1_lambda_transform.html" target="_top" xlink:title="Construct a new transform based on a single function.">
<polygon fill="white" stroke="black" points="1138,-121.07 1138,-162.07 1276,-162.07 1276,-121.07 1138,-121.07"/>
<text text-anchor="start" x="1146" y="-150.07" font-family="Helvetica,sans-Serif" font-size="10.00">sensesp::LambdaTransform</text>
<text text-anchor="start" x="1146" y="-139.07" font-family="Helvetica,sans-Serif" font-size="10.00">&lt; IN, OUT, P1, P2, P3,</text>
<text text-anchor="middle" x="1207" y="-128.07" font-family="Helvetica,sans-Serif" font-size="10.00"> P4, P5, P6 &gt;</text>
</a>
</g>
</g>
<!-- Node2&#45;&gt;Node1 -->
<g id="edge1" class="edge">
<title>Node2&#45;&gt;Node1</title>
<path fill="none" stroke="midnightblue" d="M1286.24,-141.57C1295.16,-141.57 1304.08,-141.57 1312.54,-141.57"/>
<polygon fill="midnightblue" stroke="midnightblue" points="1286.19,-138.07 1276.19,-141.57 1286.19,-145.07 1286.19,-138.07"/>
</g>
<!-- Node3 -->
<g id="node3" class="node">
<title>Node3</title>
<g id="a_node3"><a xlink:href="classsensesp_1_1_transform.html" target="_top" xlink:title=" ">
<polygon fill="white" stroke="black" points="997,-126.57 997,-156.57 1101,-156.57 1101,-126.57 997,-126.57"/>
<text text-anchor="start" x="1005" y="-144.57" font-family="Helvetica,sans-Serif" font-size="10.00">sensesp::Transform</text>
<text text-anchor="middle" x="1049" y="-133.57" font-family="Helvetica,sans-Serif" font-size="10.00">&lt; IN, OUT &gt;</text>
</a>
</g>
</g>
<!-- Node3&#45;&gt;Node2 -->
<g id="edge2" class="edge">
<title>Node3&#45;&gt;Node2</title>
<path fill="none" stroke="midnightblue" d="M1111.17,-141.57C1119.9,-141.57 1128.93,-141.57 1137.79,-141.57"/>
<polygon fill="midnightblue" stroke="midnightblue" points="1111.08,-138.07 1101.08,-141.57 1111.08,-145.07 1111.08,-138.07"/>
</g>
<!-- Node4 -->
<g id="node4" class="node">
<title>Node4</title>
<g id="a_node4"><a xlink:href="classsensesp_1_1_transform_base.html" target="_top" xlink:title="The base class for all transforms. A transforms takes a value in, transforms it in some way,...">
<polygon fill="white" stroke="black" points="494,-63.07 494,-82.07 620,-82.07 620,-63.07 494,-63.07"/>
<text text-anchor="middle" x="557" y="-70.07" font-family="Helvetica,sans-Serif" font-size="10.00">sensesp::TransformBase</text>
</a>
</g>
</g>
<!-- Node4&#45;&gt;Node3 -->
<g id="edge3" class="edge">
<title>Node4&#45;&gt;Node3</title>
<path fill="none" stroke="midnightblue" d="M630.33,-68.7C700.52,-66.54 809.68,-67.4 902,-86.57 942.97,-95.08 987.67,-113.35 1016.67,-126.5"/>
<polygon fill="midnightblue" stroke="midnightblue" points="630.14,-65.21 620.26,-69.04 630.38,-72.2 630.14,-65.21"/>
</g>
<!-- Node11 -->
<g id="node11" class="node">
<title>Node11</title>
<g id="a_node11"><a xlink:href="classsensesp_1_1_transform.html" target="_top" xlink:title="The main Transform class. A transform is identified primarily by the type of value that is produces (...">
<polygon fill="white" stroke="black" points="798,-95.57 798,-125.57 902,-125.57 902,-95.57 798,-95.57"/>
<text text-anchor="start" x="806" y="-113.57" font-family="Helvetica,sans-Serif" font-size="10.00">sensesp::Transform</text>
<text text-anchor="middle" x="850" y="-102.57" font-family="Helvetica,sans-Serif" font-size="10.00">&lt; C, P &gt;</text>
</a>
</g>
</g>
<!-- Node4&#45;&gt;Node11 -->
<g id="edge11" class="edge">
<title>Node4&#45;&gt;Node11</title>
<path fill="none" stroke="midnightblue" d="M630.24,-82C682.28,-88.8 751.23,-97.8 797.7,-103.87"/>
<polygon fill="midnightblue" stroke="midnightblue" points="630.44,-78.5 620.07,-80.68 629.53,-85.44 630.44,-78.5"/>
</g>
<!-- Node5 -->
<g id="node5" class="node">
<title>Node5</title>
<g id="a_node5"><a xlink:href="classsensesp_1_1_configurable.html" target="_top" xlink:title="An object that is capable of having configuration data that can be set remotely using a RESTful API,...">
<polygon fill="white" stroke="black" points="165,-53.07 165,-72.07 279,-72.07 279,-53.07 165,-53.07"/>
<text text-anchor="middle" x="222" y="-60.07" font-family="Helvetica,sans-Serif" font-size="10.00">sensesp::Configurable</text>
</a>
</g>
</g>
<!-- Node5&#45;&gt;Node4 -->
<g id="edge4" class="edge">
<title>Node5&#45;&gt;Node4</title>
<path fill="none" stroke="midnightblue" d="M289.17,-64.56C348.77,-66.35 435.71,-68.96 493.99,-70.71"/>
<polygon fill="midnightblue" stroke="midnightblue" points="289.21,-61.06 279.11,-64.26 289,-68.05 289.21,-61.06"/>
</g>
<!-- Node6 -->
<g id="node6" class="node">
<title>Node6</title>
<g id="a_node6"><a xlink:href="classsensesp_1_1_startable.html" target="_top" xlink:title="Automatic calling of the start() method at startup.">
<polygon fill="white" stroke="black" points="173,-91.07 173,-110.07 271,-110.07 271,-91.07 173,-91.07"/>
<text text-anchor="middle" x="222" y="-98.07" font-family="Helvetica,sans-Serif" font-size="10.00">sensesp::Startable</text>
</a>
</g>
</g>
<!-- Node6&#45;&gt;Node4 -->
<g id="edge5" class="edge">
<title>Node6&#45;&gt;Node4</title>
<path fill="none" stroke="midnightblue" d="M281.05,-95.69C340.56,-90.69 432.77,-82.93 493.76,-77.8"/>
<polygon fill="midnightblue" stroke="midnightblue" points="280.74,-92.2 271.07,-96.53 281.32,-99.18 280.74,-92.2"/>
</g>
<!-- Node7 -->
<g id="node7" class="node">
<title>Node7</title>
<g id="a_node7"><a xlink:href="classsensesp_1_1_value_consumer.html" target="_top" xlink:title=" ">
<polygon fill="white" stroke="black" points="652,-139.57 652,-169.57 780,-169.57 780,-139.57 652,-139.57"/>
<text text-anchor="start" x="660" y="-157.57" font-family="Helvetica,sans-Serif" font-size="10.00">sensesp::ValueConsumer</text>
<text text-anchor="middle" x="716" y="-146.57" font-family="Helvetica,sans-Serif" font-size="10.00">&lt; IN &gt;</text>
</a>
</g>
</g>
<!-- Node7&#45;&gt;Node3 -->
<g id="edge6" class="edge">
<title>Node7&#45;&gt;Node3</title>
<path fill="none" stroke="midnightblue" d="M790.26,-151.69C852.94,-149.23 941.56,-145.75 996.86,-143.58"/>
<polygon fill="midnightblue" stroke="midnightblue" points="789.89,-148.2 780.04,-152.09 790.17,-155.2 789.89,-148.2"/>
</g>
<!-- Node8 -->
<g id="node8" class="node">
<title>Node8</title>
<g id="a_node8"><a xlink:href="classsensesp_1_1_value_consumer.html" target="_top" xlink:title="A base class for piece of code (like a transform) that accepts data for input. ValueConsumers can acc...">
<polygon fill="white" stroke="black" points="146,-137.07 146,-156.07 298,-156.07 298,-137.07 146,-137.07"/>
<text text-anchor="middle" x="222" y="-144.07" font-family="Helvetica,sans-Serif" font-size="10.00">sensesp::ValueConsumer&lt; T &gt;</text>
</a>
</g>
</g>
<!-- Node8&#45;&gt;Node7 -->
<g id="edge7" class="edge">
<title>Node8&#45;&gt;Node7</title>
<path fill="none" stroke="orange" stroke-dasharray="5,2" d="M308.42,-147.96C406.31,-149.55 564.46,-152.12 651.87,-153.54"/>
<polygon fill="orange" stroke="orange" points="308.32,-144.46 298.26,-147.79 308.2,-151.46 308.32,-144.46"/>
<text text-anchor="middle" x="389" y="-152.57" font-family="Helvetica,sans-Serif" font-size="10.00"> &lt; IN &gt;</text>
</g>
<!-- Node12 -->
<g id="node12" class="node">
<title>Node12</title>
<g id="a_node12"><a xlink:href="classsensesp_1_1_value_consumer.html" target="_top" xlink:title=" ">
<polygon fill="white" stroke="black" points="480,-107.07 480,-126.07 634,-126.07 634,-107.07 480,-107.07"/>
<text text-anchor="middle" x="557" y="-114.07" font-family="Helvetica,sans-Serif" font-size="10.00">sensesp::ValueConsumer&lt; C &gt;</text>
</a>
</g>
</g>
<!-- Node8&#45;&gt;Node12 -->
<g id="edge13" class="edge">
<title>Node8&#45;&gt;Node12</title>
<path fill="none" stroke="orange" stroke-dasharray="5,2" d="M261.41,-134C278.01,-129.16 297.77,-124.17 316,-121.57 370.46,-113.8 432.57,-112.71 479.96,-113.48"/>
<polygon fill="orange" stroke="orange" points="260.1,-130.74 251.53,-136.98 262.12,-137.45 260.1,-130.74"/>
<text text-anchor="middle" x="389" y="-124.57" font-family="Helvetica,sans-Serif" font-size="10.00"> &lt; C &gt;</text>
</g>
<!-- Node9 -->
<g id="node9" class="node">
<title>Node9</title>
<g id="a_node9"><a xlink:href="classsensesp_1_1_value_producer.html" target="_top" xlink:title="A base class for any sensor or piece of code that outputs a value for consumption elsewhere.">
<polygon fill="white" stroke="black" points="316,-181.07 316,-200.07 462,-200.07 462,-181.07 316,-181.07"/>
<text text-anchor="middle" x="389" y="-188.07" font-family="Helvetica,sans-Serif" font-size="10.00">sensesp::ValueProducer&lt; T &gt;</text>
</a>
</g>
</g>
<!-- Node9&#45;&gt;Node3 -->
<g id="edge8" class="edge">
<title>Node9&#45;&gt;Node3</title>
<path fill="none" stroke="midnightblue" d="M472.33,-192.11C586.82,-192.9 800.22,-189.42 979,-158.57 984.84,-157.56 990.91,-156.34 996.93,-155.01"/>
<polygon fill="midnightblue" stroke="midnightblue" points="472.26,-188.61 462.23,-192.03 472.2,-195.61 472.26,-188.61"/>
</g>
<!-- Node10 -->
<g id="node10" class="node">
<title>Node10</title>
<g id="a_node10"><a xlink:href="classsensesp_1_1_observable.html" target="_top" xlink:title="A base class which allow observers to attach callbacks to themselves. The callbacks will be called wh...">
<polygon fill="white" stroke="black" points="0,-15.07 0,-34.07 109,-34.07 109,-15.07 0,-15.07"/>
<text text-anchor="middle" x="54.5" y="-22.07" font-family="Helvetica,sans-Serif" font-size="10.00">sensesp::Observable</text>
</a>
</g>
</g>
<!-- Node10&#45;&gt;Node9 -->
<g id="edge9" class="edge">
<title>Node10&#45;&gt;Node9</title>
<path fill="none" stroke="midnightblue" d="M61.75,-44.04C73.01,-75.59 99.9,-137.21 146,-165.57 196.63,-196.72 264.74,-201.18 315.81,-198.87"/>
<polygon fill="midnightblue" stroke="midnightblue" points="64.95,-42.58 58.42,-34.24 58.32,-44.83 64.95,-42.58"/>
</g>
<!-- Node13 -->
<g id="node13" class="node">
<title>Node13</title>
<g id="a_node13"><a xlink:href="classsensesp_1_1_value_producer.html" target="_top" xlink:title=" ">
<polygon fill="white" stroke="black" points="483.5,-15.07 483.5,-34.07 630.5,-34.07 630.5,-15.07 483.5,-15.07"/>
<text text-anchor="middle" x="557" y="-22.07" font-family="Helvetica,sans-Serif" font-size="10.00">sensesp::ValueProducer&lt; P &gt;</text>
</a>
</g>
</g>
<!-- Node10&#45;&gt;Node13 -->
<g id="edge15" class="edge">
<title>Node10&#45;&gt;Node13</title>
<path fill="none" stroke="midnightblue" d="M102.12,-12.86C116.13,-9.86 131.61,-7.06 146,-5.57 265.25,6.81 404.85,-5.29 486.54,-15.04"/>
<polygon fill="midnightblue" stroke="midnightblue" points="101.22,-9.47 92.21,-15.06 102.73,-16.31 101.22,-9.47"/>
</g>
<!-- Node14 -->
<g id="node14" class="node">
<title>Node14</title>
<g id="a_node14"><a xlink:href="classsensesp_1_1_value_producer.html" target="_top" xlink:title="A base class for any sensor or piece of code that outputs a value for consumption elsewhere.">
<polygon fill="white" stroke="black" points="149,-15.07 149,-34.07 295,-34.07 295,-15.07 149,-15.07"/>
<text text-anchor="middle" x="222" y="-22.07" font-family="Helvetica,sans-Serif" font-size="10.00">sensesp::ValueProducer&lt; T &gt;</text>
</a>
</g>
</g>
<!-- Node10&#45;&gt;Node14 -->
<g id="edge17" class="edge">
<title>Node10&#45;&gt;Node14</title>
<path fill="none" stroke="midnightblue" d="M119.5,-24.57C129.12,-24.57 139.1,-24.57 148.87,-24.57"/>
<polygon fill="midnightblue" stroke="midnightblue" points="119.23,-21.07 109.23,-24.57 119.23,-28.07 119.23,-21.07"/>
</g>
<!-- Node11&#45;&gt;Node3 -->
<g id="edge10" class="edge">
<title>Node11&#45;&gt;Node3</title>
<path fill="none" stroke="orange" stroke-dasharray="5,2" d="M912.27,-119.35C933.43,-122.46 957.27,-126.07 979,-129.57 984.76,-130.5 990.79,-131.5 996.78,-132.52"/>
<polygon fill="orange" stroke="orange" points="912.52,-115.85 902.12,-117.86 911.51,-122.77 912.52,-115.85"/>
<text text-anchor="middle" x="949.5" y="-132.57" font-family="Helvetica,sans-Serif" font-size="10.00"> &lt; IN, OUT &gt;</text>
</g>
<!-- Node12&#45;&gt;Node11 -->
<g id="edge12" class="edge">
<title>Node12&#45;&gt;Node11</title>
<path fill="none" stroke="midnightblue" d="M644.22,-114.79C694.12,-113.76 755.23,-112.5 797.65,-111.63"/>
<polygon fill="midnightblue" stroke="midnightblue" points="644,-111.3 634.08,-115 644.15,-118.29 644,-111.3"/>
</g>
<!-- Node13&#45;&gt;Node11 -->
<g id="edge14" class="edge">
<title>Node13&#45;&gt;Node11</title>
<path fill="none" stroke="midnightblue" d="M614.92,-36.24C660.21,-46.17 724.91,-61.79 780,-80.57 792.36,-84.79 805.6,-90.29 817.13,-95.42"/>
<polygon fill="midnightblue" stroke="midnightblue" points="615.5,-32.79 604.99,-34.09 614.02,-39.63 615.5,-32.79"/>
</g>
<!-- Node14&#45;&gt;Node13 -->
<g id="edge16" class="edge">
<title>Node14&#45;&gt;Node13</title>
<path fill="none" stroke="orange" stroke-dasharray="5,2" d="M305.59,-24.57C360.12,-24.57 430.92,-24.57 483.31,-24.57"/>
<polygon fill="orange" stroke="orange" points="305.26,-21.07 295.26,-24.57 305.26,-28.07 305.26,-21.07"/>
<text text-anchor="middle" x="389" y="-27.57" font-family="Helvetica,sans-Serif" font-size="10.00"> &lt; P &gt;</text>
</g>
<!-- Node16 -->
<g id="node16" class="node">
<title>Node16</title>
<g id="a_node16"><a xlink:href="classsensesp_1_1_round_to_int.html" target="_top" xlink:title="Takes as its input a float, rounds it to the nearest whole number, then outputs it as an int.">
<polygon fill="white" stroke="black" points="1653,-132.07 1653,-151.07 1763,-151.07 1763,-132.07 1653,-132.07"/>
<text text-anchor="middle" x="1708" y="-139.07" font-family="Helvetica,sans-Serif" font-size="10.00">sensesp::RoundToInt</text>
</a>
</g>
</g>
<!-- Node15&#45;&gt;Node16 -->
<g id="edge19" class="edge">
<title>Node15&#45;&gt;Node16</title>
<path fill="none" stroke="midnightblue" d="M1626.44,-141.57C1635.13,-141.57 1644.01,-141.57 1652.55,-141.57"/>
<polygon fill="midnightblue" stroke="midnightblue" points="1626.35,-138.07 1616.35,-141.57 1626.35,-145.07 1626.35,-138.07"/>
</g>
</g>
</svg>
