<?xml version="1.0" encoding="UTF-8" standalone="no"?>
<!DOCTYPE svg PUBLIC "-//W3C//DTD SVG 1.1//EN"
 "http://www.w3.org/Graphics/SVG/1.1/DTD/svg11.dtd">
<!-- Generated by graphviz version 14.1.4 (20260321.0153)
 -->
<!-- Title: sensesp::NetworkStateProducer::NetworkStateProducer Pages: 1 -->
<svg width="698pt" height="82pt"
 viewBox="0.00 0.00 698.00 82.00" xmlns="http://www.w3.org/2000/svg" xmlns:xlink="http://www.w3.org/1999/xlink">
<g id="graph0" class="graph" transform="scale(1 1) rotate(0) translate(4 77.5)">
<title>sensesp::NetworkStateProducer::NetworkStateProducer</title>
<!-- Node1 -->
<g id="Node000001" class="node">
<title>Node1</title>
<g id="a_Node000001"><a xlink:title=" ">
<polygon fill="#999999" stroke="#666666" points="157.75,-51.5 0,-51.5 0,-21 157.75,-21 157.75,-51.5"/>
<text xml:space="preserve" text-anchor="start" x="8" y="-38" font-family="Helvetica,sans-Serif" font-size="10.00">sensesp::NetworkStateProducer</text>
<text xml:space="preserve" text-anchor="middle" x="78.88" y="-26.75" font-family="Helvetica,sans-Serif" font-size="10.00">::NetworkStateProducer</text>
</a>
</g>
</g>
<!-- Node2 -->
<g id="Node000002" class="node">
<title>Node2</title>
<g id="a_Node000002"><a xlink:href="classsensesp_1_1_value_producer.html#a4f5f0259d0d3cd9a0ed17d657cac04e2" target="_top" xlink:title=" ">
<polygon fill="white" stroke="#666666" points="315.5,-73.5 193.75,-73.5 193.75,-43 315.5,-43 315.5,-73.5"/>
<text xml:space="preserve" text-anchor="start" x="201.75" y="-60" font-family="Helvetica,sans-Serif" font-size="10.00">sensesp::ValueProducer</text>
<text xml:space="preserve" text-anchor="middle" x="254.62" y="-48.75" font-family="Helvetica,sans-Serif" font-size="10.00">&lt; NetworkState &gt;::emit</text>
</a>
</g>
</g>
<!-- Node1&#45;&gt;Node2 -->
<g id="edge1_Node000001_Node000002" class="edge">
<title>Node1&#45;&gt;Node2</title>
<g id="a_edge1_Node000001_Node000002"><a xlink:title=" ">
<path fill="none" stroke="#63b8ff" d="M158.11,-46.16C166.04,-47.16 174.06,-48.18 181.92,-49.17"/>
<polygon fill="#63b8ff" stroke="#63b8ff" points="181.41,-52.63 191.77,-50.42 182.29,-45.69 181.41,-52.63"/>
</a>
</g>
</g>
<!-- Node3 -->
<g id="Node000003" class="node">
<title>Node3</title>
<g id="a_Node000003"><a xlink:href="namespacesensesp.html#a1c1105507d71491cf4e0505eaabb2e49" target="_top" xlink:title=" ">
<polygon fill="white" stroke="#666666" points="307.62,-24.88 201.62,-24.88 201.62,-5.63 307.62,-5.63 307.62,-24.88"/>
<text xml:space="preserve" text-anchor="middle" x="254.62" y="-11.38" font-family="Helvetica,sans-Serif" font-size="10.00">sensesp::event_loop</text>
</a>
</g>
</g>
<!-- Node1&#45;&gt;Node3 -->
<g id="edge2_Node000001_Node000003" class="edge">
<title>Node1&#45;&gt;Node3</title>
<g id="a_edge2_Node000001_Node000003"><a xlink:title=" ">
<path fill="none" stroke="#63b8ff" d="M158.11,-26.79C168.71,-25.51 179.49,-24.21 189.8,-22.96"/>
<polygon fill="#63b8ff" stroke="#63b8ff" points="190.19,-26.44 199.7,-21.77 189.35,-19.49 190.19,-26.44"/>
</a>
</g>
</g>
<!-- Node4 -->
<g id="Node000004" class="node">
<title>Node4</title>
<g id="a_Node000004"><a xlink:href="classsensesp_1_1_sens_e_s_p_base_app.html#a28c20eed17bfc460e6686a11c5b3b107" target="_top" xlink:title="Get the event loop object from the singleton SensESPBaseApp instance.">
<polygon fill="white" stroke="#666666" points="492.75,-30.5 351.5,-30.5 351.5,0 492.75,0 492.75,-30.5"/>
<text xml:space="preserve" text-anchor="start" x="359.5" y="-17" font-family="Helvetica,sans-Serif" font-size="10.00">sensesp::SensESPBaseApp</text>
<text xml:space="preserve" text-anchor="middle" x="422.12" y="-5.75" font-family="Helvetica,sans-Serif" font-size="10.00">::get_event_loop</text>
</a>
</g>
</g>
<!-- Node3&#45;&gt;Node4 -->
<g id="edge3_Node000003_Node000004" class="edge">
<title>Node3&#45;&gt;Node4</title>
<g id="a_edge3_Node000003_Node000004"><a xlink:title=" ">
<path fill="none" stroke="#63b8ff" d="M307.99,-15.25C318.18,-15.25 329.09,-15.25 339.96,-15.25"/>
<polygon fill="#63b8ff" stroke="#63b8ff" points="339.72,-18.75 349.72,-15.25 339.72,-11.75 339.72,-18.75"/>
</a>
</g>
</g>
<!-- Node5 -->
<g id="Node000005" class="node">
<title>Node5</title>
<g id="a_Node000005"><a xlink:href="classsensesp_1_1_sens_e_s_p_base_app.html#add2c67bb55d095ab9c64f44ab2e82612" target="_top" xlink:title="Get the singleton instance of the SensESPBaseApp.">
<polygon fill="white" stroke="#666666" points="689.5,-24.88 528.75,-24.88 528.75,-5.63 689.5,-5.63 689.5,-24.88"/>
<text xml:space="preserve" text-anchor="middle" x="609.12" y="-11.38" font-family="Helvetica,sans-Serif" font-size="10.00">sensesp::SensESPBaseApp::get</text>
</a>
</g>
</g>
<!-- Node4&#45;&gt;Node5 -->
<g id="edge4_Node000004_Node000005" class="edge">
<title>Node4&#45;&gt;Node5</title>
<g id="a_edge4_Node000004_Node000005"><a xlink:title=" ">
<path fill="none" stroke="#63b8ff" d="M493.07,-15.25C500.92,-15.25 509.01,-15.25 517.09,-15.25"/>
<polygon fill="#63b8ff" stroke="#63b8ff" points="516.96,-18.75 526.96,-15.25 516.96,-11.75 516.96,-18.75"/>
</a>
</g>
</g>
</g>
</svg>
