<?xml version="1.0" encoding="UTF-8" standalone="no"?>
<!DOCTYPE svg PUBLIC "-//W3C//DTD SVG 1.1//EN"
 "http://www.w3.org/Graphics/SVG/1.1/DTD/svg11.dtd">
<!-- Generated by graphviz version 13.0.0 (20250608.1624)
 -->
<!-- Title: sensesp::SKWSClient::poll_access_request Pages: 1 -->
<svg width="726pt" height="98pt"
 viewBox="0.00 0.00 726.00 98.00" xmlns="http://www.w3.org/2000/svg" xmlns:xlink="http://www.w3.org/1999/xlink">
<g id="graph0" class="graph" transform="scale(1 1) rotate(0) translate(4 93.5)">
<title>sensesp::SKWSClient::poll_access_request</title>
<!-- Node1 -->
<g id="Node000001" class="node">
<title>Node1</title>
<g id="a_Node000001"><a xlink:title=" ">
<polygon fill="#999999" stroke="#666666" points="718.25,-89.5 604,-89.5 604,-59 718.25,-59 718.25,-89.5"/>
<text xml:space="preserve" text-anchor="start" x="612" y="-76" font-family="Helvetica,sans-Serif" font-size="10.00">sensesp::SKWSClient</text>
<text xml:space="preserve" text-anchor="middle" x="661.12" y="-64.75" font-family="Helvetica,sans-Serif" font-size="10.00">::poll_access_request</text>
</a>
</g>
</g>
<!-- Node2 -->
<g id="Node000002" class="node">
<title>Node2</title>
<g id="a_Node000002"><a xlink:href="classsensesp_1_1_s_k_w_s_client.html#a71c4787c20640979d0f21e722fdf161a" target="_top" xlink:title=" ">
<polygon fill="white" stroke="#666666" points="264.5,-73.5 150.25,-73.5 150.25,-43 264.5,-43 264.5,-73.5"/>
<text xml:space="preserve" text-anchor="start" x="158.25" y="-60" font-family="Helvetica,sans-Serif" font-size="10.00">sensesp::SKWSClient</text>
<text xml:space="preserve" text-anchor="middle" x="207.38" y="-48.75" font-family="Helvetica,sans-Serif" font-size="10.00">::connect</text>
</a>
</g>
</g>
<!-- Node1&#45;&gt;Node2 -->
<g id="edge1_Node000001_Node000002" class="edge">
<title>Node1&#45;&gt;Node2</title>
<g id="a_edge1_Node000001_Node000002"><a xlink:title=" ">
<path fill="none" stroke="#63b8ff" d="M592.18,-76.71C584.03,-76.93 575.83,-77.12 568,-77.25 449.09,-79.19 418.97,-80.71 300.5,-70.25 288.93,-69.23 276.58,-67.83 264.81,-66.35"/>
<polygon fill="#63b8ff" stroke="#63b8ff" points="592.21,-80.21 602.1,-76.42 592.01,-73.22 592.21,-80.21"/>
</a>
</g>
</g>
<!-- Node4 -->
<g id="Node000004" class="node">
<title>Node4</title>
<g id="a_Node000004"><a xlink:href="classsensesp_1_1_s_k_w_s_client.html#a59a57e892f602b940b6c7c15ec49ca52" target="_top" xlink:title=" ">
<polygon fill="white" stroke="#666666" points="568,-68.5 450.75,-68.5 450.75,-38 568,-38 568,-68.5"/>
<text xml:space="preserve" text-anchor="start" x="458.75" y="-55" font-family="Helvetica,sans-Serif" font-size="10.00">sensesp::SKWSClient</text>
<text xml:space="preserve" text-anchor="middle" x="509.38" y="-43.75" font-family="Helvetica,sans-Serif" font-size="10.00">::send_access_request</text>
</a>
</g>
</g>
<!-- Node1&#45;&gt;Node4 -->
<g id="edge3_Node000001_Node000004" class="edge">
<title>Node1&#45;&gt;Node4</title>
<g id="a_edge3_Node000001_Node000004"><a xlink:title=" ">
<path fill="none" stroke="#63b8ff" d="M592.22,-64.73C584.15,-63.6 575.97,-62.45 568.06,-61.34"/>
<polygon fill="#63b8ff" stroke="#63b8ff" points="591.62,-68.18 602.01,-66.1 592.6,-61.25 591.62,-68.18"/>
</a>
</g>
</g>
<!-- Node3 -->
<g id="Node000003" class="node">
<title>Node3</title>
<g id="a_Node000003"><a xlink:href="classsensesp_1_1_s_k_w_s_client.html#ada4c50bafc9ed46c3d89e33af951f7d3" target="_top" xlink:title=" ">
<polygon fill="white" stroke="#666666" points="114.25,-73.5 0,-73.5 0,-43 114.25,-43 114.25,-73.5"/>
<text xml:space="preserve" text-anchor="start" x="8" y="-60" font-family="Helvetica,sans-Serif" font-size="10.00">sensesp::SKWSClient</text>
<text xml:space="preserve" text-anchor="middle" x="57.13" y="-48.75" font-family="Helvetica,sans-Serif" font-size="10.00">::connect_loop</text>
</a>
</g>
</g>
<!-- Node2&#45;&gt;Node3 -->
<g id="edge2_Node000002_Node000003" class="edge">
<title>Node2&#45;&gt;Node3</title>
<g id="a_edge2_Node000002_Node000003"><a xlink:title=" ">
<path fill="none" stroke="#63b8ff" d="M138.59,-58.25C130.51,-58.25 122.33,-58.25 114.44,-58.25"/>
<polygon fill="#63b8ff" stroke="#63b8ff" points="138.39,-61.75 148.39,-58.25 138.39,-54.75 138.39,-61.75"/>
</a>
</g>
</g>
<!-- Node4&#45;&gt;Node2 -->
<g id="edge4_Node000004_Node000002" class="edge">
<title>Node4&#45;&gt;Node2</title>
<g id="a_edge4_Node000004_Node000002"><a xlink:title=" ">
<path fill="none" stroke="#63b8ff" d="M439.21,-54.4C386.29,-55.28 314.22,-56.49 264.77,-57.31"/>
<polygon fill="#63b8ff" stroke="#63b8ff" points="439.08,-57.91 449.02,-54.24 438.96,-50.91 439.08,-57.91"/>
</a>
</g>
</g>
<!-- Node5 -->
<g id="Node000005" class="node">
<title>Node5</title>
<g id="a_Node000005"><a xlink:href="classsensesp_1_1_s_k_w_s_client.html#ab063bdb9564b0c6c564bd1d5573a9631" target="_top" xlink:title=" ">
<polygon fill="white" stroke="#666666" points="414.75,-30.5 300.5,-30.5 300.5,0 414.75,0 414.75,-30.5"/>
<text xml:space="preserve" text-anchor="start" x="308.5" y="-17" font-family="Helvetica,sans-Serif" font-size="10.00">sensesp::SKWSClient</text>
<text xml:space="preserve" text-anchor="middle" x="357.62" y="-5.75" font-family="Helvetica,sans-Serif" font-size="10.00">::test_token</text>
</a>
</g>
</g>
<!-- Node4&#45;&gt;Node5 -->
<g id="edge5_Node000004_Node000005" class="edge">
<title>Node4&#45;&gt;Node5</title>
<g id="a_edge5_Node000004_Node000005"><a xlink:title=" ">
<path fill="none" stroke="#63b8ff" d="M439.39,-35.74C431.18,-33.66 422.89,-31.56 414.89,-29.53"/>
<polygon fill="#63b8ff" stroke="#63b8ff" points="438.46,-39.12 449.01,-38.19 440.18,-32.33 438.46,-39.12"/>
</a>
</g>
</g>
<!-- Node5&#45;&gt;Node2 -->
<g id="edge6_Node000005_Node000002" class="edge">
<title>Node5&#45;&gt;Node2</title>
<g id="a_edge6_Node000005_Node000002"><a xlink:title=" ">
<path fill="none" stroke="#63b8ff" d="M291.79,-34.06C282.02,-36.89 272.04,-39.79 262.52,-42.54"/>
<polygon fill="#63b8ff" stroke="#63b8ff" points="292.6,-37.46 301.23,-31.32 290.65,-30.74 292.6,-37.46"/>
</a>
</g>
</g>
</g>
</svg>
