<?xml version="1.0" encoding="UTF-8" standalone="no"?>
<!DOCTYPE svg PUBLIC "-//W3C//DTD SVG 1.1//EN"
 "http://www.w3.org/Graphics/SVG/1.1/DTD/svg11.dtd">
<!-- Generated by graphviz version 13.0.0 (20250608.1624)
 -->
<!-- Title: sensesp::DigitalOutput Pages: 1 -->
<svg width="1541pt" height="247pt"
 viewBox="0.00 0.00 1541.00 247.00" xmlns="http://www.w3.org/2000/svg" xmlns:xlink="http://www.w3.org/1999/xlink">
<g id="graph0" class="graph" transform="scale(1 1) rotate(0) translate(4 242.97)">
<title>sensesp::DigitalOutput</title>
<!-- Node1 -->
<g id="Node000001" class="node">
<title>Node1</title>
<g id="a_Node000001"><a xlink:title="Sets a GPIO pin to whatever the input is (true = HIGH, false = LOW), and passes the value on to the n...">
<polygon fill="#999999" stroke="#666666" points="1532.5,-238.25 1416.75,-238.25 1416.75,-219 1532.5,-219 1532.5,-238.25"/>
<text xml:space="preserve" text-anchor="middle" x="1474.62" y="-224.75" font-family="Helvetica,sans-Serif" font-size="10.00">sensesp::DigitalOutput</text>
</a>
</g>
</g>
<!-- Node2 -->
<g id="Node000002" class="node">
<title>Node2</title>
<g id="a_Node000002"><a xlink:href="classsensesp_1_1_symmetric_transform.html" target="_top" xlink:title=" ">
<polygon fill="white" stroke="#666666" points="1379.75,-238.25 1284.25,-238.25 1284.25,-219 1379.75,-219 1379.75,-238.25"/>
<text xml:space="preserve" text-anchor="middle" x="1332" y="-224.75" font-family="Helvetica,sans-Serif" font-size="10.00">BooleanTransform</text>
</a>
</g>
</g>
<!-- Node2&#45;&gt;Node1 -->
<g id="edge1_Node000001_Node000002" class="edge">
<title>Node2&#45;&gt;Node1</title>
<g id="a_edge1_Node000001_Node000002"><a xlink:title=" ">
<path fill="none" stroke="#63b8ff" d="M1391.66,-228.62C1399.88,-228.62 1408.33,-228.62 1416.53,-228.62"/>
<polygon fill="#63b8ff" stroke="#63b8ff" points="1391.73,-225.13 1381.73,-228.63 1391.73,-232.13 1391.73,-225.13"/>
</a>
</g>
</g>
<!-- Node3 -->
<g id="Node000003" class="node">
<title>Node3</title>
<g id="a_Node000003"><a xlink:href="classsensesp_1_1_transform.html" target="_top" xlink:title="The main Transform class. A transform is identified primarily by the type of value that is produces (...">
<polygon fill="white" stroke="#666666" points="797.12,-191.88 694.12,-191.88 694.12,-161.38 797.12,-161.38 797.12,-191.88"/>
<text xml:space="preserve" text-anchor="start" x="702.12" y="-178.38" font-family="Helvetica,sans-Serif" font-size="10.00">sensesp::Transform</text>
<text xml:space="preserve" text-anchor="middle" x="745.62" y="-167.12" font-family="Helvetica,sans-Serif" font-size="10.00">&lt; C, P &gt;</text>
</a>
</g>
</g>
<!-- Node3&#45;&gt;Node2 -->
<g id="edge2_Node000002_Node000003" class="edge">
<title>Node3&#45;&gt;Node2</title>
<g id="a_edge2_Node000002_Node000003"><a xlink:title=" ">
<path fill="none" stroke="#63b8ff" d="M808.59,-185.49C899.97,-198.07 1076.36,-220.49 1227.25,-228.62 1245.78,-229.62 1266.19,-229.82 1283.97,-229.7"/>
<polygon fill="#63b8ff" stroke="#63b8ff" points="809.23,-182.05 798.84,-184.14 808.27,-188.98 809.23,-182.05"/>
</a>
</g>
</g>
<!-- Node4 -->
<g id="Node000004" class="node">
<title>Node4</title>
<g id="a_Node000004"><a xlink:href="classsensesp_1_1_transform_base.html" target="_top" xlink:title="The base class for all transforms. A transforms takes a value in, transforms it in some way,...">
<polygon fill="white" stroke="#666666" points="618.88,-81.25 493.38,-81.25 493.38,-62 618.88,-62 618.88,-81.25"/>
<text xml:space="preserve" text-anchor="middle" x="556.12" y="-67.75" font-family="Helvetica,sans-Serif" font-size="10.00">sensesp::TransformBase</text>
</a>
</g>
</g>
<!-- Node4&#45;&gt;Node3 -->
<g id="edge3_Node000003_Node000004" class="edge">
<title>Node4&#45;&gt;Node3</title>
<g id="a_edge3_Node000003_Node000004"><a xlink:title=" ">
<path fill="none" stroke="#63b8ff" d="M588.17,-86.58C601.95,-93.38 618.28,-101.67 632.75,-109.62 663.1,-126.31 697.14,-146.98 719.61,-160.92"/>
<polygon fill="#63b8ff" stroke="#63b8ff" points="590.08,-83.62 579.56,-82.36 587.01,-89.91 590.08,-83.62"/>
</a>
</g>
</g>
<!-- Node14 -->
<g id="Node000014" class="node">
<title>Node14</title>
<g id="a_Node000014"><a xlink:href="classsensesp_1_1_transform.html" target="_top" xlink:title=" ">
<polygon fill="white" stroke="#666666" points="998,-112.88 895,-112.88 895,-82.38 998,-82.38 998,-112.88"/>
<text xml:space="preserve" text-anchor="start" x="903" y="-99.38" font-family="Helvetica,sans-Serif" font-size="10.00">sensesp::Transform</text>
<text xml:space="preserve" text-anchor="middle" x="946.5" y="-88.12" font-family="Helvetica,sans-Serif" font-size="10.00">&lt; T, T &gt;</text>
</a>
</g>
</g>
<!-- Node4&#45;&gt;Node14 -->
<g id="edge15_Node000014_Node000004" class="edge">
<title>Node4&#45;&gt;Node14</title>
<g id="a_edge15_Node000014_Node000004"><a xlink:title=" ">
<path fill="none" stroke="#63b8ff" d="M630.62,-68.58C683.78,-67.25 757.25,-67.22 821.5,-73.62 845.72,-76.04 872.25,-80.87 894.53,-85.57"/>
<polygon fill="#63b8ff" stroke="#63b8ff" points="630.67,-65.07 620.77,-68.85 630.87,-72.07 630.67,-65.07"/>
</a>
</g>
</g>
<!-- Node17 -->
<g id="Node000017" class="node">
<title>Node17</title>
<g id="a_Node000017"><a xlink:href="classsensesp_1_1_transform.html" target="_top" xlink:title="The main Transform class. A transform is identified primarily by the type of value that is produces (...">
<polygon fill="white" stroke="#666666" points="797.12,-112.88 694.12,-112.88 694.12,-82.38 797.12,-82.38 797.12,-112.88"/>
<text xml:space="preserve" text-anchor="start" x="702.12" y="-99.38" font-family="Helvetica,sans-Serif" font-size="10.00">sensesp::Transform</text>
<text xml:space="preserve" text-anchor="middle" x="745.62" y="-88.12" font-family="Helvetica,sans-Serif" font-size="10.00">&lt; C, P &gt;</text>
</a>
</g>
</g>
<!-- Node4&#45;&gt;Node17 -->
<g id="edge20_Node000017_Node000004" class="edge">
<title>Node4&#45;&gt;Node17</title>
<g id="a_edge20_Node000017_Node000004"><a xlink:title=" ">
<path fill="none" stroke="#63b8ff" d="M630.55,-81.81C651.74,-84.74 674.37,-87.88 693.85,-90.58"/>
<polygon fill="#63b8ff" stroke="#63b8ff" points="631.18,-78.36 620.8,-80.45 630.22,-85.29 631.18,-78.36"/>
</a>
</g>
</g>
<!-- Node5 -->
<g id="Node000005" class="node">
<title>Node5</title>
<g id="a_Node000005"><a xlink:href="classsensesp_1_1_file_system_saveable.html" target="_top" xlink:title=" ">
<polygon fill="white" stroke="#666666" points="296.25,-81.25 147.5,-81.25 147.5,-62 296.25,-62 296.25,-81.25"/>
<text xml:space="preserve" text-anchor="middle" x="221.88" y="-67.75" font-family="Helvetica,sans-Serif" font-size="10.00">sensesp::FileSystemSaveable</text>
</a>
</g>
</g>
<!-- Node5&#45;&gt;Node4 -->
<g id="edge4_Node000004_Node000005" class="edge">
<title>Node5&#45;&gt;Node4</title>
<g id="a_edge4_Node000004_Node000005"><a xlink:title=" ">
<path fill="none" stroke="#63b8ff" d="M307.93,-71.62C365.71,-71.62 440.83,-71.62 493.02,-71.62"/>
<polygon fill="#63b8ff" stroke="#63b8ff" points="308.13,-68.13 298.13,-71.63 308.13,-75.13 308.13,-68.13"/>
</a>
</g>
</g>
<!-- Node6 -->
<g id="Node000006" class="node">
<title>Node6</title>
<g id="a_Node000006"><a xlink:href="classsensesp_1_1_saveable.html" target="_top" xlink:title="Interface for saveable objects.">
<polygon fill="white" stroke="#666666" points="104.12,-51.25 4.88,-51.25 4.88,-32 104.12,-32 104.12,-51.25"/>
<text xml:space="preserve" text-anchor="middle" x="54.5" y="-37.75" font-family="Helvetica,sans-Serif" font-size="10.00">sensesp::Saveable</text>
</a>
</g>
</g>
<!-- Node6&#45;&gt;Node5 -->
<g id="edge5_Node000005_Node000006" class="edge">
<title>Node6&#45;&gt;Node5</title>
<g id="a_edge5_Node000005_Node000006"><a xlink:title=" ">
<path fill="none" stroke="#63b8ff" d="M115.27,-52.47C131.58,-55.43 149.17,-58.62 165.24,-61.53"/>
<polygon fill="#63b8ff" stroke="#63b8ff" points="116.18,-49.08 105.71,-50.73 114.93,-55.96 116.18,-49.08"/>
</a>
</g>
</g>
<!-- Node7 -->
<g id="Node000007" class="node">
<title>Node7</title>
<g id="a_Node000007"><a xlink:href="classsensesp_1_1_serializable.html" target="_top" xlink:title="Interface for serializable objects.">
<polygon fill="white" stroke="#666666" points="109,-88.25 0,-88.25 0,-69 109,-69 109,-88.25"/>
<text xml:space="preserve" text-anchor="middle" x="54.5" y="-74.75" font-family="Helvetica,sans-Serif" font-size="10.00">sensesp::Serializable</text>
</a>
</g>
</g>
<!-- Node7&#45;&gt;Node5 -->
<g id="edge6_Node000005_Node000007" class="edge">
<title>Node7&#45;&gt;Node5</title>
<g id="a_edge6_Node000005_Node000007"><a xlink:title=" ">
<path fill="none" stroke="#63b8ff" d="M120.46,-75.88C129.17,-75.51 138.16,-75.13 147.01,-74.75"/>
<polygon fill="#63b8ff" stroke="#63b8ff" points="120.55,-72.37 110.7,-76.29 120.84,-79.36 120.55,-72.37"/>
</a>
</g>
</g>
<!-- Node8 -->
<g id="Node000008" class="node">
<title>Node8</title>
<g id="a_Node000008"><a xlink:href="classsensesp_1_1_value_consumer.html" target="_top" xlink:title=" ">
<polygon fill="white" stroke="#666666" points="632.75,-194.25 479.5,-194.25 479.5,-175 632.75,-175 632.75,-194.25"/>
<text xml:space="preserve" text-anchor="middle" x="556.12" y="-180.75" font-family="Helvetica,sans-Serif" font-size="10.00">sensesp::ValueConsumer&lt; C &gt;</text>
</a>
</g>
</g>
<!-- Node8&#45;&gt;Node3 -->
<g id="edge7_Node000003_Node000008" class="edge">
<title>Node8&#45;&gt;Node3</title>
<g id="a_edge7_Node000003_Node000008"><a xlink:title=" ">
<path fill="none" stroke="#63b8ff" d="M644.54,-183.91C646.97,-183.82 649.38,-183.73 651.75,-183.62 665.48,-183.04 680.33,-182.07 694.05,-181.03"/>
<polygon fill="#63b8ff" stroke="#63b8ff" points="644.46,-180.41 634.57,-184.21 644.67,-187.4 644.46,-180.41"/>
</a>
</g>
</g>
<!-- Node8&#45;&gt;Node17 -->
<g id="edge21_Node000017_Node000008" class="edge">
<title>Node8&#45;&gt;Node17</title>
<g id="a_edge21_Node000017_Node000008"><a xlink:title=" ">
<path fill="none" stroke="#63b8ff" d="M588.89,-169.89C622.72,-154.19 676.09,-129.43 710.72,-113.35"/>
<polygon fill="#63b8ff" stroke="#63b8ff" points="587.6,-166.62 580.01,-174.01 590.55,-172.97 587.6,-166.62"/>
</a>
</g>
</g>
<!-- Node9 -->
<g id="Node000009" class="node">
<title>Node9</title>
<g id="a_Node000009"><a xlink:href="classsensesp_1_1_value_consumer.html" target="_top" xlink:title="A base class for piece of code (like a transform) that accepts data for input. ValueConsumers can acc...">
<polygon fill="white" stroke="#666666" points="297.75,-194.25 146,-194.25 146,-175 297.75,-175 297.75,-194.25"/>
<text xml:space="preserve" text-anchor="middle" x="221.88" y="-180.75" font-family="Helvetica,sans-Serif" font-size="10.00">sensesp::ValueConsumer&lt; T &gt;</text>
</a>
</g>
</g>
<!-- Node9&#45;&gt;Node8 -->
<g id="edge8_Node000008_Node000009" class="edge">
<title>Node9&#45;&gt;Node8</title>
<g id="a_edge8_Node000008_Node000009"><a xlink:title=" ">
<path fill="none" stroke="orange" stroke-dasharray="5,2" d="M309.21,-184.62C361.9,-184.62 428.62,-184.62 479.27,-184.62"/>
<polygon fill="orange" stroke="orange" points="309.37,-181.13 299.37,-184.63 309.37,-188.13 309.37,-181.13"/>
</a>
</g>
<text xml:space="preserve" text-anchor="middle" x="388.62" y="-186.38" font-family="Helvetica,sans-Serif" font-size="10.00" fill="grey"> &lt; C &gt;</text>
</g>
<!-- Node10 -->
<g id="Node000010" class="node">
<title>Node10</title>
<g id="a_Node000010"><a xlink:href="classsensesp_1_1_value_producer.html" target="_top" xlink:title=" ">
<polygon fill="white" stroke="#666666" points="629.38,-138.25 482.88,-138.25 482.88,-119 629.38,-119 629.38,-138.25"/>
<text xml:space="preserve" text-anchor="middle" x="556.12" y="-124.75" font-family="Helvetica,sans-Serif" font-size="10.00">sensesp::ValueProducer&lt; P &gt;</text>
</a>
</g>
</g>
<!-- Node10&#45;&gt;Node3 -->
<g id="edge9_Node000003_Node000010" class="edge">
<title>Node10&#45;&gt;Node3</title>
<g id="a_edge9_Node000003_Node000010"><a xlink:title=" ">
<path fill="none" stroke="#63b8ff" d="M607.5,-141.52C634.29,-148.38 667.13,-156.79 693.95,-163.65"/>
<polygon fill="#63b8ff" stroke="#63b8ff" points="608.45,-138.15 597.9,-139.06 606.72,-144.93 608.45,-138.15"/>
</a>
</g>
</g>
<!-- Node10&#45;&gt;Node17 -->
<g id="edge22_Node000017_Node000010" class="edge">
<title>Node10&#45;&gt;Node17</title>
<g id="a_edge22_Node000017_Node000010"><a xlink:title=" ">
<path fill="none" stroke="#63b8ff" d="M629.36,-116.68C650.9,-113.12 674.05,-109.29 693.91,-106.01"/>
<polygon fill="#63b8ff" stroke="#63b8ff" points="629.05,-113.19 619.75,-118.27 630.19,-120.09 629.05,-113.19"/>
</a>
</g>
</g>
<!-- Node11 -->
<g id="Node000011" class="node">
<title>Node11</title>
<g id="a_Node000011"><a xlink:href="classsensesp_1_1_observable.html" target="_top" xlink:title="A base class which allow observers to attach callbacks to themselves. The callbacks will be called wh...">
<polygon fill="white" stroke="#666666" points="108.62,-157.25 0.38,-157.25 0.38,-138 108.62,-138 108.62,-157.25"/>
<text xml:space="preserve" text-anchor="middle" x="54.5" y="-143.75" font-family="Helvetica,sans-Serif" font-size="10.00">sensesp::Observable</text>
</a>
</g>
</g>
<!-- Node11&#45;&gt;Node10 -->
<g id="edge10_Node000010_Node000011" class="edge">
<title>Node11&#45;&gt;Node10</title>
<g id="a_edge10_Node000010_Node000011"><a xlink:title=" ">
<path fill="none" stroke="#63b8ff" d="M105.95,-135.11C118.92,-132.42 132.91,-129.98 146,-128.62 263.28,-116.45 400.49,-120.06 482.47,-124.11"/>
<polygon fill="#63b8ff" stroke="#63b8ff" points="105.38,-131.65 96.35,-137.19 106.86,-138.49 105.38,-131.65"/>
</a>
</g>
</g>
<!-- Node12 -->
<g id="Node000012" class="node">
<title>Node12</title>
<g id="a_Node000012"><a xlink:href="classsensesp_1_1_value_producer.html" target="_top" xlink:title="A base class for any sensor or piece of code that outputs a value for consumption elsewhere.">
<polygon fill="white" stroke="#666666" points="294.75,-157.25 149,-157.25 149,-138 294.75,-138 294.75,-157.25"/>
<text xml:space="preserve" text-anchor="middle" x="221.88" y="-143.75" font-family="Helvetica,sans-Serif" font-size="10.00">sensesp::ValueProducer&lt; T &gt;</text>
</a>
</g>
</g>
<!-- Node11&#45;&gt;Node12 -->
<g id="edge12_Node000012_Node000011" class="edge">
<title>Node11&#45;&gt;Node12</title>
<g id="a_edge12_Node000012_Node000011"><a xlink:title=" ">
<path fill="none" stroke="#63b8ff" d="M120.02,-147.62C129.44,-147.62 139.19,-147.62 148.75,-147.62"/>
<polygon fill="#63b8ff" stroke="#63b8ff" points="120.25,-144.13 110.25,-147.63 120.25,-151.13 120.25,-144.13"/>
</a>
</g>
</g>
<!-- Node16 -->
<g id="Node000016" class="node">
<title>Node16</title>
<g id="a_Node000016"><a xlink:href="classsensesp_1_1_value_producer.html" target="_top" xlink:title="A base class for any sensor or piece of code that outputs a value for consumption elsewhere.">
<polygon fill="white" stroke="#666666" points="461.5,-232.25 315.75,-232.25 315.75,-213 461.5,-213 461.5,-232.25"/>
<text xml:space="preserve" text-anchor="middle" x="388.62" y="-218.75" font-family="Helvetica,sans-Serif" font-size="10.00">sensesp::ValueProducer&lt; T &gt;</text>
</a>
</g>
</g>
<!-- Node11&#45;&gt;Node16 -->
<g id="edge18_Node000016_Node000011" class="edge">
<title>Node11&#45;&gt;Node16</title>
<g id="a_edge18_Node000016_Node000011"><a xlink:title=" ">
<path fill="none" stroke="#63b8ff" d="M76.18,-164.44C93.65,-177.61 119.92,-195.09 146,-203.62 200.89,-221.59 266.37,-225.75 315.32,-225.75"/>
<polygon fill="#63b8ff" stroke="#63b8ff" points="78.68,-161.95 68.63,-158.58 74.38,-167.48 78.68,-161.95"/>
</a>
</g>
</g>
<!-- Node12&#45;&gt;Node10 -->
<g id="edge11_Node000010_Node000012" class="edge">
<title>Node12&#45;&gt;Node10</title>
<g id="a_edge11_Node000010_Node000012"><a xlink:title=" ">
<path fill="none" stroke="orange" stroke-dasharray="5,2" d="M306.3,-142.85C360.57,-139.75 430.65,-135.74 482.6,-132.77"/>
<polygon fill="orange" stroke="orange" points="306.26,-139.35 296.48,-143.42 306.66,-146.34 306.26,-139.35"/>
</a>
</g>
<text xml:space="preserve" text-anchor="middle" x="388.62" y="-143.76" font-family="Helvetica,sans-Serif" font-size="10.00" fill="grey"> &lt; P &gt;</text>
</g>
<!-- Node13 -->
<g id="Node000013" class="node">
<title>Node13</title>
<g id="a_Node000013"><a xlink:href="classsensesp_1_1_symmetric_transform.html" target="_top" xlink:title="A common type of transform that consumes, transforms, then outputs values of the same data type.">
<polygon fill="white" stroke="#666666" points="1209.25,-191.25 1035,-191.25 1035,-172 1209.25,-172 1209.25,-191.25"/>
<text xml:space="preserve" text-anchor="middle" x="1122.12" y="-177.75" font-family="Helvetica,sans-Serif" font-size="10.00">sensesp::SymmetricTransform&lt; T &gt;</text>
</a>
</g>
</g>
<!-- Node13&#45;&gt;Node2 -->
<g id="edge13_Node000002_Node000013" class="edge">
<title>Node13&#45;&gt;Node2</title>
<g id="a_edge13_Node000002_Node000013"><a xlink:title=" ">
<path fill="none" stroke="orange" stroke-dasharray="5,2" d="M1178.8,-194.21C1212.53,-201.84 1254.99,-211.44 1286.48,-218.56"/>
<polygon fill="orange" stroke="orange" points="1179.72,-190.83 1169.2,-192.04 1178.18,-197.66 1179.72,-190.83"/>
</a>
</g>
<text xml:space="preserve" text-anchor="middle" x="1246.75" y="-215.17" font-family="Helvetica,sans-Serif" font-size="10.00" fill="grey"> &lt; bool &gt;</text>
</g>
<!-- Node14&#45;&gt;Node13 -->
<g id="edge14_Node000013_Node000014" class="edge">
<title>Node14&#45;&gt;Node13</title>
<g id="a_edge14_Node000013_Node000014"><a xlink:title=" ">
<path fill="none" stroke="#63b8ff" d="M989.69,-118.04C1024.7,-134.97 1072.99,-158.34 1100.23,-171.52"/>
<polygon fill="#63b8ff" stroke="#63b8ff" points="991.64,-115.09 981.11,-113.89 988.59,-121.39 991.64,-115.09"/>
</a>
</g>
</g>
<!-- Node15 -->
<g id="Node000015" class="node">
<title>Node15</title>
<g id="a_Node000015"><a xlink:href="classsensesp_1_1_value_consumer.html" target="_top" xlink:title="A base class for piece of code (like a transform) that accepts data for input. ValueConsumers can acc...">
<polygon fill="white" stroke="#666666" points="821.5,-19.25 669.75,-19.25 669.75,0 821.5,0 821.5,-19.25"/>
<text xml:space="preserve" text-anchor="middle" x="745.62" y="-5.75" font-family="Helvetica,sans-Serif" font-size="10.00">sensesp::ValueConsumer&lt; T &gt;</text>
</a>
</g>
</g>
<!-- Node15&#45;&gt;Node14 -->
<g id="edge16_Node000014_Node000015" class="edge">
<title>Node15&#45;&gt;Node14</title>
<g id="a_edge16_Node000014_Node000015"><a xlink:title=" ">
<path fill="none" stroke="#63b8ff" d="M832.79,-18.3C848.02,-21.83 863.36,-26.75 877,-33.62 900.11,-45.27 920.94,-67.14 933.4,-82.04"/>
<polygon fill="#63b8ff" stroke="#63b8ff" points="833.73,-14.93 823.22,-16.29 832.29,-21.78 833.73,-14.93"/>
</a>
</g>
</g>
<!-- Node16&#45;&gt;Node14 -->
<g id="edge17_Node000014_Node000016" class="edge">
<title>Node16&#45;&gt;Node14</title>
<g id="a_edge17_Node000014_Node000016"><a xlink:title=" ">
<path fill="none" stroke="#63b8ff" d="M473.11,-233.55C562.56,-241.84 707.09,-245.27 821.5,-200.62 869.47,-181.91 912.54,-136.89 932.98,-113.04"/>
<polygon fill="#63b8ff" stroke="#63b8ff" points="473.47,-230.07 463.18,-232.58 472.8,-237.03 473.47,-230.07"/>
</a>
</g>
</g>
<!-- Node17&#45;&gt;Node14 -->
<g id="edge19_Node000014_Node000017" class="edge">
<title>Node17&#45;&gt;Node14</title>
<g id="a_edge19_Node000014_Node000017"><a xlink:title=" ">
<path fill="none" stroke="orange" stroke-dasharray="5,2" d="M809.09,-97.62C836.64,-97.62 868.61,-97.62 894.68,-97.62"/>
<polygon fill="orange" stroke="orange" points="809.1,-94.13 799.1,-97.63 809.1,-101.13 809.1,-94.13"/>
</a>
</g>
<text xml:space="preserve" text-anchor="middle" x="858.25" y="-99.38" font-family="Helvetica,sans-Serif" font-size="10.00" fill="grey"> &lt; T, T &gt;</text>
</g>
</g>
</svg>
