<?xml version="1.0" encoding="UTF-8" standalone="no"?>
<!DOCTYPE svg PUBLIC "-//W3C//DTD SVG 1.1//EN"
 "http://www.w3.org/Graphics/SVG/1.1/DTD/svg11.dtd">
<!-- Generated by graphviz version 2.44.1 (20200629.0846)
 -->
<!-- Title: SHT31 Pages: 1 -->
<svg width="229pt" height="140pt"
 viewBox="0.00 0.00 228.50 140.00" xmlns="http://www.w3.org/2000/svg" xmlns:xlink="http://www.w3.org/1999/xlink">
<g id="graph0" class="graph" transform="scale(1 1) rotate(0) translate(4 136)">
<title>SHT31</title>
<polygon fill="white" stroke="transparent" points="-4,4 -4,-136 224.5,-136 224.5,4 -4,4"/>
<!-- Node5 -->
<g id="node1" class="node">
<title>Node5</title>
<g id="a_node1"><a xlink:title=" ">
<polygon fill="#bfbfbf" stroke="black" points="96.5,-0.5 96.5,-19.5 143.5,-19.5 143.5,-0.5 96.5,-0.5"/>
<text text-anchor="middle" x="120" y="-7.5" font-family="Helvetica,sans-Serif" font-size="10.00">SHT31</text>
</a>
</g>
</g>
<!-- Node6 -->
<g id="node2" class="node">
<title>Node6</title>
<g id="a_node2"><a xlink:href="class_sensor.html" target="_top" xlink:title="Represents a raw hardware thingie.">
<polygon fill="white" stroke="black" points="96.5,-56.5 96.5,-75.5 143.5,-75.5 143.5,-56.5 96.5,-56.5"/>
<text text-anchor="middle" x="120" y="-63.5" font-family="Helvetica,sans-Serif" font-size="10.00">Sensor</text>
</a>
</g>
</g>
<!-- Node6&#45;&gt;Node5 -->
<g id="edge1" class="edge">
<title>Node6&#45;&gt;Node5</title>
<path fill="none" stroke="midnightblue" d="M120,-45.8C120,-36.91 120,-26.78 120,-19.75"/>
<polygon fill="midnightblue" stroke="midnightblue" points="116.5,-46.08 120,-56.08 123.5,-46.08 116.5,-46.08"/>
</g>
<!-- Node7 -->
<g id="node3" class="node">
<title>Node7</title>
<g id="a_node3"><a xlink:href="class_observable.html" target="_top" xlink:title="A base class which allow observers to attach callbacks to themselves. The callbacks will be called wh...">
<polygon fill="white" stroke="black" points="0,-112.5 0,-131.5 66,-131.5 66,-112.5 0,-112.5"/>
<text text-anchor="middle" x="33" y="-119.5" font-family="Helvetica,sans-Serif" font-size="10.00">Observable</text>
</a>
</g>
</g>
<!-- Node7&#45;&gt;Node6 -->
<g id="edge2" class="edge">
<title>Node7&#45;&gt;Node6</title>
<path fill="none" stroke="midnightblue" d="M55.72,-106.9C71.67,-97 92.5,-84.07 106.06,-75.65"/>
<polygon fill="midnightblue" stroke="midnightblue" points="53.63,-104.08 46.98,-112.32 57.32,-110.02 53.63,-104.08"/>
</g>
<!-- Node8 -->
<g id="node4" class="node">
<title>Node8</title>
<g id="a_node4"><a xlink:href="class_configurable.html" target="_top" xlink:title="An object that is capable of having configuration data that can be set remotely using a RESTful API,...">
<polygon fill="white" stroke="black" points="84.5,-112.5 84.5,-131.5 155.5,-131.5 155.5,-112.5 84.5,-112.5"/>
<text text-anchor="middle" x="120" y="-119.5" font-family="Helvetica,sans-Serif" font-size="10.00">Configurable</text>
</a>
</g>
</g>
<!-- Node8&#45;&gt;Node6 -->
<g id="edge3" class="edge">
<title>Node8&#45;&gt;Node6</title>
<path fill="none" stroke="midnightblue" d="M120,-101.8C120,-92.91 120,-82.78 120,-75.75"/>
<polygon fill="midnightblue" stroke="midnightblue" points="116.5,-102.08 120,-112.08 123.5,-102.08 116.5,-102.08"/>
</g>
<!-- Node9 -->
<g id="node5" class="node">
<title>Node9</title>
<g id="a_node5"><a xlink:href="class_enable.html" target="_top" xlink:title="Classes that implement &quot;Enable&quot; will have their enable() method called automatically at startup when ...">
<polygon fill="white" stroke="black" points="173.5,-112.5 173.5,-131.5 220.5,-131.5 220.5,-112.5 173.5,-112.5"/>
<text text-anchor="middle" x="197" y="-119.5" font-family="Helvetica,sans-Serif" font-size="10.00">Enable</text>
</a>
</g>
</g>
<!-- Node9&#45;&gt;Node6 -->
<g id="edge4" class="edge">
<title>Node9&#45;&gt;Node6</title>
<path fill="none" stroke="midnightblue" d="M176.1,-106.34C162.09,-96.52 144.12,-83.91 132.34,-75.65"/>
<polygon fill="midnightblue" stroke="midnightblue" points="174.43,-109.45 184.63,-112.32 178.45,-103.72 174.43,-109.45"/>
</g>
</g>
</svg>
