<?xml version="1.0" encoding="UTF-8" standalone="no"?>
<!DOCTYPE svg PUBLIC "-//W3C//DTD SVG 1.1//EN"
 "http://www.w3.org/Graphics/SVG/1.1/DTD/svg11.dtd">
<!-- Generated by graphviz version 14.1.4 (20260321.0153)
 -->
<!-- Title: sensesp::AngleCorrection::AngleCorrection Pages: 1 -->
<svg width="774pt" height="88pt"
 viewBox="0.00 0.00 774.00 88.00" xmlns="http://www.w3.org/2000/svg" xmlns:xlink="http://www.w3.org/1999/xlink">
<g id="graph0" class="graph" transform="scale(1 1) rotate(0) translate(4 83.5)">
<title>sensesp::AngleCorrection::AngleCorrection</title>
<!-- Node1 -->
<g id="Node000001" class="node">
<title>Node1</title>
<g id="a_Node000001"><a xlink:title=" ">
<polygon fill="#999999" stroke="#666666" points="128.5,-54.5 0,-54.5 0,-24 128.5,-24 128.5,-54.5"/>
<text xml:space="preserve" text-anchor="start" x="8" y="-41" font-family="Helvetica,sans-Serif" font-size="10.00">sensesp::AngleCorrection</text>
<text xml:space="preserve" text-anchor="middle" x="64.25" y="-29.75" font-family="Helvetica,sans-Serif" font-size="10.00">::AngleCorrection</text>
</a>
</g>
</g>
<!-- Node2 -->
<g id="Node000002" class="node">
<title>Node2</title>
<g id="a_Node000002"><a xlink:href="classsensesp_1_1_file_system_saveable.html#a79b2e2e657112851dfda8785d217578a" target="_top" xlink:title="Load and populate the object from a persistent storage.">
<polygon fill="white" stroke="#666666" points="313.25,-54.5 164.5,-54.5 164.5,-24 313.25,-24 313.25,-54.5"/>
<text xml:space="preserve" text-anchor="start" x="172.5" y="-41" font-family="Helvetica,sans-Serif" font-size="10.00">sensesp::FileSystemSaveable</text>
<text xml:space="preserve" text-anchor="middle" x="238.88" y="-29.75" font-family="Helvetica,sans-Serif" font-size="10.00">::load</text>
</a>
</g>
</g>
<!-- Node1&#45;&gt;Node2 -->
<g id="edge1_Node000001_Node000002" class="edge">
<title>Node1&#45;&gt;Node2</title>
<g id="a_edge1_Node000001_Node000002"><a xlink:title=" ">
<path fill="none" stroke="#63b8ff" d="M128.55,-39.25C136.4,-39.25 144.52,-39.25 152.63,-39.25"/>
<polygon fill="#63b8ff" stroke="#63b8ff" points="152.54,-42.75 162.54,-39.25 152.54,-35.75 152.54,-42.75"/>
</a>
</g>
</g>
<!-- Node3 -->
<g id="Node000003" class="node">
<title>Node3</title>
<g id="a_Node000003"><a xlink:href="classsensesp_1_1_file_system_saveable.html#ad0233f7895b5c8915108399420c7cf0b" target="_top" xlink:title=" ">
<polygon fill="white" stroke="#666666" points="498,-79.5 349.25,-79.5 349.25,-49 498,-49 498,-79.5"/>
<text xml:space="preserve" text-anchor="start" x="357.25" y="-66" font-family="Helvetica,sans-Serif" font-size="10.00">sensesp::FileSystemSaveable</text>
<text xml:space="preserve" text-anchor="middle" x="423.62" y="-54.75" font-family="Helvetica,sans-Serif" font-size="10.00">::find_config_file</text>
</a>
</g>
</g>
<!-- Node2&#45;&gt;Node3 -->
<g id="edge2_Node000002_Node000003" class="edge">
<title>Node2&#45;&gt;Node3</title>
<g id="a_edge2_Node000002_Node000003"><a xlink:title=" ">
<path fill="none" stroke="#63b8ff" d="M313.68,-49.35C321.56,-50.42 329.62,-51.53 337.61,-52.62"/>
<polygon fill="#63b8ff" stroke="#63b8ff" points="336.96,-56.06 347.34,-53.95 337.91,-49.13 336.96,-56.06"/>
</a>
</g>
</g>
<!-- Node6 -->
<g id="Node000006" class="node">
<title>Node6</title>
<g id="a_Node000006"><a xlink:href="classsensesp_1_1_serializable.html#a841233a82ef3a7fbcecd5a15b0df12d2" target="_top" xlink:title=" ">
<polygon fill="white" stroke="#666666" points="478.12,-30.5 369.12,-30.5 369.12,0 478.12,0 478.12,-30.5"/>
<text xml:space="preserve" text-anchor="start" x="377.12" y="-17" font-family="Helvetica,sans-Serif" font-size="10.00">sensesp::Serializable</text>
<text xml:space="preserve" text-anchor="middle" x="423.62" y="-5.75" font-family="Helvetica,sans-Serif" font-size="10.00">::from_json</text>
</a>
</g>
</g>
<!-- Node2&#45;&gt;Node6 -->
<g id="edge5_Node000002_Node000006" class="edge">
<title>Node2&#45;&gt;Node6</title>
<g id="a_edge5_Node000002_Node000006"><a xlink:title=" ">
<path fill="none" stroke="#63b8ff" d="M313.68,-29.56C328.22,-27.65 343.37,-25.66 357.6,-23.79"/>
<polygon fill="#63b8ff" stroke="#63b8ff" points="357.82,-27.29 367.28,-22.52 356.91,-20.35 357.82,-27.29"/>
</a>
</g>
</g>
<!-- Node4 -->
<g id="Node000004" class="node">
<title>Node4</title>
<g id="a_Node000004"><a xlink:href="namespacesensesp.html#adad24461f43358c45017cf1cb816ca60" target="_top" xlink:title="A base64&#45;encoded SHA&#45;1 hash function.">
<polygon fill="white" stroke="#666666" points="648.25,-73.88 534,-73.88 534,-54.62 648.25,-54.62 648.25,-73.88"/>
<text xml:space="preserve" text-anchor="middle" x="591.12" y="-60.38" font-family="Helvetica,sans-Serif" font-size="10.00">sensesp::Base64Sha1</text>
</a>
</g>
</g>
<!-- Node3&#45;&gt;Node4 -->
<g id="edge3_Node000003_Node000004" class="edge">
<title>Node3&#45;&gt;Node4</title>
<g id="a_edge3_Node000003_Node000004"><a xlink:title=" ">
<path fill="none" stroke="#63b8ff" d="M498.18,-64.25C506.18,-64.25 514.3,-64.25 522.24,-64.25"/>
<polygon fill="#63b8ff" stroke="#63b8ff" points="522.17,-67.75 532.17,-64.25 522.17,-60.75 522.17,-67.75"/>
</a>
</g>
</g>
<!-- Node5 -->
<g id="Node000005" class="node">
<title>Node5</title>
<g id="a_Node000005"><a xlink:href="namespacesensesp.html#a37dfeb5f75b7115464a9aa40473d69cf" target="_top" xlink:title="SHA&#45;1 hash function.">
<polygon fill="white" stroke="#666666" points="765.5,-73.88 684.25,-73.88 684.25,-54.62 765.5,-54.62 765.5,-73.88"/>
<text xml:space="preserve" text-anchor="middle" x="724.88" y="-60.38" font-family="Helvetica,sans-Serif" font-size="10.00">sensesp::Sha1</text>
</a>
</g>
</g>
<!-- Node4&#45;&gt;Node5 -->
<g id="edge4_Node000004_Node000005" class="edge">
<title>Node4&#45;&gt;Node5</title>
<g id="a_edge4_Node000004_Node000005"><a xlink:title=" ">
<path fill="none" stroke="#63b8ff" d="M648.38,-64.25C656.46,-64.25 664.74,-64.25 672.72,-64.25"/>
<polygon fill="#63b8ff" stroke="#63b8ff" points="672.62,-67.75 682.62,-64.25 672.62,-60.75 672.62,-67.75"/>
</a>
</g>
</g>
</g>
</svg>
