<?xml version="1.0" encoding="UTF-8" standalone="no"?>
<!DOCTYPE svg PUBLIC "-//W3C//DTD SVG 1.1//EN"
 "http://www.w3.org/Graphics/SVG/1.1/DTD/svg11.dtd">
<!-- Generated by graphviz version 2.47.0 (20210316.0004)
 -->
<!-- Title: Enable Pages: 1 -->
<!--zoomable 686 -->
<svg id="main" version="1.1" xmlns="http://www.w3.org/2000/svg" xmlns:xlink="http://www.w3.org/1999/xlink" xml:space="preserve" onload="init(evt)">
<style type="text/css"><![CDATA[
.edge:hover path { stroke: red; }
.edge:hover polygon { stroke: red; fill: red; }
]]></style>
<script type="text/javascript"><![CDATA[
var edges = document.getElementsByTagName('g');
if (edges && edges.length) {
  for (var i=0;i<edges.length;i++) {
    if (edges[i].id.substr(0,4)=='edge') {
      edges[i].setAttribute('class','edge');
    }
  }
}
]]></script>
        <defs>
                <circle id="rim" cx="0" cy="0" r="7"/>
                <circle id="rim2" cx="0" cy="0" r="3.5"/>
                <g id="zoomPlus">
                        <use xlink:href="#rim" fill="#404040">
                                <set attributeName="fill" to="#808080" begin="zoomplus.mouseover" end="zoomplus.mouseout"/>
                        </use>
                        <path d="M-4,0h8M0,-4v8" fill="none" stroke="white" stroke-width="1.5" pointer-events="none"/>
                </g>
                <g id="zoomMin">
                        <use xlink:href="#rim" fill="#404040">
                                <set attributeName="fill" to="#808080" begin="zoomminus.mouseover" end="zoomminus.mouseout"/>
                        </use>
                        <path d="M-4,0h8" fill="none" stroke="white" stroke-width="1.5" pointer-events="none"/>
                </g>
                <g id="dirArrow">
                        <path fill="none" stroke="white" stroke-width="1.5" d="M0,-3.0v7 M-2.5,-0.5L0,-3.0L2.5,-0.5"/>
                </g>
               <g id="resetDef">
                       <use xlink:href="#rim2" fill="#404040">
                               <set attributeName="fill" to="#808080" begin="reset.mouseover" end="reset.mouseout"/>
                       </use>
               </g>
        </defs>

<script type="text/javascript">
var viewWidth = 670;
var viewHeight = 686;
var sectionId = 'dynsection-0';
</script>
<script xlink:href="svgpan.js"/>
<svg id="graph" class="graph">
<g id="viewport">
<title>Enable</title>
<polygon fill="white" stroke="transparent" points="-4,4 -4,-682 666,-682 666,4 -4,4"/>
<!-- Node1 -->
<g id="node1" class="node">
<title>Node1</title>
<g id="a_node1"><a xlink:title="Classes that implement &quot;Enable&quot; will have their enable() method called automatically at startup when ...">
<polygon fill="#bfbfbf" stroke="black" points="0,-449.5 0,-468.5 47,-468.5 47,-449.5 0,-449.5"/>
<text text-anchor="middle" x="23.5" y="-456.5" font-family="Helvetica,sans-Serif" font-size="10.00">Enable</text>
</a>
</g>
</g>
<!-- Node2 -->
<g id="node2" class="node">
<title>Node2</title>
<g id="a_node2"><a xlink:href="class_base_blinker.html" target="_top" xlink:title="A base class for LED blinker classes.">
<polygon fill="white" stroke="black" points="90,-620.5 90,-639.5 159,-639.5 159,-620.5 90,-620.5"/>
<text text-anchor="middle" x="124.5" y="-627.5" font-family="Helvetica,sans-Serif" font-size="10.00">BaseBlinker</text>
</a>
</g>
</g>
<!-- Node1&#45;&gt;Node2 -->
<g id="edge1" class="edge">
<title>Node1&#45;&gt;Node2</title>
<path fill="none" stroke="midnightblue" d="M35.34,-477.73C56.39,-514.08 102.1,-593.04 117.96,-620.42"/>
<polygon fill="midnightblue" stroke="midnightblue" points="38.15,-475.58 30.11,-468.68 32.09,-479.09 38.15,-475.58"/>
</g>
<!-- Node7 -->
<g id="node7" class="node">
<title>Node7</title>
<g id="a_node7"><a xlink:href="class_sensor.html" target="_top" xlink:title="The base class for all sensors. Used only as a base class &#45; never instantiated directly in a project.">
<polygon fill="white" stroke="black" points="101,-449.5 101,-468.5 148,-468.5 148,-449.5 101,-449.5"/>
<text text-anchor="middle" x="124.5" y="-456.5" font-family="Helvetica,sans-Serif" font-size="10.00">Sensor</text>
</a>
</g>
</g>
<!-- Node1&#45;&gt;Node7 -->
<g id="edge6" class="edge">
<title>Node1&#45;&gt;Node7</title>
<path fill="none" stroke="midnightblue" d="M57.77,-459C71.87,-459 87.94,-459 100.66,-459"/>
<polygon fill="midnightblue" stroke="midnightblue" points="57.46,-455.5 47.46,-459 57.46,-462.5 57.46,-455.5"/>
</g>
<!-- Node33 -->
<g id="node33" class="node">
<title>Node33</title>
<g id="a_node33"><a xlink:href="class_transform_base.html" target="_top" xlink:title="The base class for all transforms. A transforms takes a value in, transforms it in some way,...">
<polygon fill="white" stroke="black" points="83,-411.5 83,-430.5 166,-430.5 166,-411.5 83,-411.5"/>
<text text-anchor="middle" x="124.5" y="-418.5" font-family="Helvetica,sans-Serif" font-size="10.00">TransformBase</text>
</a>
</g>
</g>
<!-- Node1&#45;&gt;Node33 -->
<g id="edge32" class="edge">
<title>Node1&#45;&gt;Node33</title>
<path fill="none" stroke="midnightblue" d="M56.91,-446.56C70.46,-441.36 85.95,-435.41 98.58,-430.56"/>
<polygon fill="midnightblue" stroke="midnightblue" points="55.54,-443.34 47.46,-450.19 58.05,-449.87 55.54,-443.34"/>
</g>
<!-- Node3 -->
<g id="node3" class="node">
<title>Node3</title>
<g id="a_node3"><a xlink:href="class_pattern_blinker.html" target="_top" xlink:title="A blinker that blinks the LED according to a defined repeating pattern.">
<polygon fill="white" stroke="black" points="230,-658.5 230,-677.5 308,-677.5 308,-658.5 230,-658.5"/>
<text text-anchor="middle" x="269" y="-665.5" font-family="Helvetica,sans-Serif" font-size="10.00">PatternBlinker</text>
</a>
</g>
</g>
<!-- Node2&#45;&gt;Node3 -->
<g id="edge2" class="edge">
<title>Node2&#45;&gt;Node3</title>
<path fill="none" stroke="midnightblue" d="M169.18,-641.65C189.39,-647.04 213.1,-653.36 232.23,-658.46"/>
<polygon fill="midnightblue" stroke="midnightblue" points="169.83,-638.2 159.27,-639.01 168.03,-644.96 169.83,-638.2"/>
</g>
<!-- Node4 -->
<g id="node4" class="node">
<title>Node4</title>
<g id="a_node4"><a xlink:href="class_periodic_blinker.html" target="_top" xlink:title="A base class for periodic blinkers.">
<polygon fill="white" stroke="black" points="228,-620.5 228,-639.5 310,-639.5 310,-620.5 228,-620.5"/>
<text text-anchor="middle" x="269" y="-627.5" font-family="Helvetica,sans-Serif" font-size="10.00">PeriodicBlinker</text>
</a>
</g>
</g>
<!-- Node2&#45;&gt;Node4 -->
<g id="edge3" class="edge">
<title>Node2&#45;&gt;Node4</title>
<path fill="none" stroke="midnightblue" d="M169.3,-630C187.98,-630 209.63,-630 227.89,-630"/>
<polygon fill="midnightblue" stroke="midnightblue" points="169.27,-626.5 159.27,-630 169.27,-633.5 169.27,-626.5"/>
</g>
<!-- Node5 -->
<g id="node5" class="node">
<title>Node5</title>
<g id="a_node5"><a xlink:href="class_even_blinker.html" target="_top" xlink:title="An LED blinker class that blinks the LED 50% off, 50% on, at a given period.">
<polygon fill="white" stroke="black" points="400.5,-658.5 400.5,-677.5 469.5,-677.5 469.5,-658.5 400.5,-658.5"/>
<text text-anchor="middle" x="435" y="-665.5" font-family="Helvetica,sans-Serif" font-size="10.00">EvenBlinker</text>
</a>
</g>
</g>
<!-- Node4&#45;&gt;Node5 -->
<g id="edge4" class="edge">
<title>Node4&#45;&gt;Node5</title>
<path fill="none" stroke="midnightblue" d="M320.18,-641.63C346.2,-647.66 377.27,-654.86 400.38,-660.21"/>
<polygon fill="midnightblue" stroke="midnightblue" points="320.65,-638.14 310.12,-639.3 319.07,-644.96 320.65,-638.14"/>
</g>
<!-- Node6 -->
<g id="node6" class="node">
<title>Node6</title>
<g id="a_node6"><a xlink:href="class_ratio_blinker.html" target="_top" xlink:title="A periodic blinker that defines both the on&#45;ratio and the period length.">
<polygon fill="white" stroke="black" points="400,-620.5 400,-639.5 470,-639.5 470,-620.5 400,-620.5"/>
<text text-anchor="middle" x="435" y="-627.5" font-family="Helvetica,sans-Serif" font-size="10.00">RatioBlinker</text>
</a>
</g>
</g>
<!-- Node4&#45;&gt;Node6 -->
<g id="edge5" class="edge">
<title>Node4&#45;&gt;Node6</title>
<path fill="none" stroke="midnightblue" d="M320.45,-630C346.21,-630 376.87,-630 399.84,-630"/>
<polygon fill="midnightblue" stroke="midnightblue" points="320.12,-626.5 310.12,-630 320.12,-633.5 320.12,-626.5"/>
</g>
<!-- Node8 -->
<g id="node8" class="node">
<title>Node8</title>
<g id="a_node8"><a xlink:href="class_dallas_temperature_sensors.html" target="_top" xlink:title="Finds all 1&#45;Wire temperature sensors that are connected to the ESP and makes the address(es) and temp...">
<polygon fill="white" stroke="black" points="202,-563.5 202,-582.5 336,-582.5 336,-563.5 202,-563.5"/>
<text text-anchor="middle" x="269" y="-570.5" font-family="Helvetica,sans-Serif" font-size="10.00">DallasTemperatureSensors</text>
</a>
</g>
</g>
<!-- Node7&#45;&gt;Node8 -->
<g id="edge7" class="edge">
<title>Node7&#45;&gt;Node8</title>
<path fill="none" stroke="midnightblue" d="M135.65,-477.56C148.37,-499.09 172.18,-534.18 202,-554 207.86,-557.89 214.52,-561 221.31,-563.48"/>
<polygon fill="midnightblue" stroke="midnightblue" points="138.6,-475.67 130.6,-468.72 132.52,-479.14 138.6,-475.67"/>
</g>
<!-- Node9 -->
<g id="node9" class="node">
<title>Node9</title>
<g id="a_node9"><a xlink:href="class_digital_input.html" target="_top" xlink:title="DigitalInput is the base class for reading a digital GPIO pin.">
<polygon fill="white" stroke="black" points="236,-525.5 236,-544.5 302,-544.5 302,-525.5 236,-525.5"/>
<text text-anchor="middle" x="269" y="-532.5" font-family="Helvetica,sans-Serif" font-size="10.00">DigitalInput</text>
</a>
</g>
</g>
<!-- Node7&#45;&gt;Node9 -->
<g id="edge8" class="edge">
<title>Node7&#45;&gt;Node9</title>
<path fill="none" stroke="midnightblue" d="M143.9,-475.72C158.66,-488.36 180.42,-505.3 202,-516 212.58,-521.24 224.84,-525.27 235.91,-528.24"/>
<polygon fill="midnightblue" stroke="midnightblue" points="145.9,-472.82 136.07,-468.86 141.28,-478.08 145.9,-472.82"/>
</g>
<!-- Node13 -->
<g id="node13" class="node">
<title>Node13</title>
<g id="a_node13"><a xlink:href="class_free_mem.html" target="_top" xlink:title="Reports the current amount of unused memory of the ESP.">
<polygon fill="white" stroke="black" points="240,-487.5 240,-506.5 298,-506.5 298,-487.5 240,-487.5"/>
<text text-anchor="middle" x="269" y="-494.5" font-family="Helvetica,sans-Serif" font-size="10.00">FreeMem</text>
</a>
</g>
</g>
<!-- Node7&#45;&gt;Node13 -->
<g id="edge12" class="edge">
<title>Node7&#45;&gt;Node13</title>
<path fill="none" stroke="midnightblue" d="M158.06,-467.68C182.76,-474.27 216.36,-483.23 239.89,-489.5"/>
<polygon fill="midnightblue" stroke="midnightblue" points="158.64,-464.22 148.08,-465.02 156.84,-470.98 158.64,-464.22"/>
</g>
<!-- Node14 -->
<g id="node14" class="node">
<title>Node14</title>
<g id="a_node14"><a xlink:href="class_g_p_s_input.html" target="_top" xlink:title="Support for a GPS module communicating with NMEA&#45;0183 messages over a serial interface.">
<polygon fill="white" stroke="black" points="239.5,-449.5 239.5,-468.5 298.5,-468.5 298.5,-449.5 239.5,-449.5"/>
<text text-anchor="middle" x="269" y="-456.5" font-family="Helvetica,sans-Serif" font-size="10.00">GPSInput</text>
</a>
</g>
</g>
<!-- Node7&#45;&gt;Node14 -->
<g id="edge13" class="edge">
<title>Node7&#45;&gt;Node14</title>
<path fill="none" stroke="midnightblue" d="M158.33,-459C182.82,-459 215.96,-459 239.38,-459"/>
<polygon fill="midnightblue" stroke="midnightblue" points="158.08,-455.5 148.08,-459 158.08,-462.5 158.08,-455.5"/>
</g>
<!-- Node15 -->
<g id="node15" class="node">
<title>Node15</title>
<g id="a_node15"><a xlink:href="class_i_n_a219.html" target="_top" xlink:title="Represents an ADAfruit (or compatible) INA219 High Side DC Current Sensor.">
<polygon fill="white" stroke="black" points="244,-411.5 244,-430.5 294,-430.5 294,-411.5 244,-411.5"/>
<text text-anchor="middle" x="269" y="-418.5" font-family="Helvetica,sans-Serif" font-size="10.00">INA219</text>
</a>
</g>
</g>
<!-- Node7&#45;&gt;Node15 -->
<g id="edge14" class="edge">
<title>Node7&#45;&gt;Node15</title>
<path fill="none" stroke="midnightblue" d="M157.87,-450.37C183.92,-443.42 219.96,-433.81 243.62,-427.5"/>
<polygon fill="midnightblue" stroke="midnightblue" points="156.84,-447.02 148.08,-452.98 158.64,-453.78 156.84,-447.02"/>
</g>
<!-- Node16 -->
<g id="node16" class="node">
<title>Node16</title>
<g id="a_node16"><a xlink:href="class_integer_sensor.html" target="_top" xlink:title="A Sensor whose output is an integer.">
<polygon fill="white" stroke="black" points="230.5,-373.5 230.5,-392.5 307.5,-392.5 307.5,-373.5 230.5,-373.5"/>
<text text-anchor="middle" x="269" y="-380.5" font-family="Helvetica,sans-Serif" font-size="10.00">IntegerSensor</text>
</a>
</g>
</g>
<!-- Node7&#45;&gt;Node16 -->
<g id="edge15" class="edge">
<title>Node7&#45;&gt;Node16</title>
<path fill="none" stroke="midnightblue" d="M157.33,-445.49C160.35,-443.79 163.29,-441.96 166,-440 184.86,-426.38 182.12,-414.09 202,-402 210.56,-396.8 220.61,-392.96 230.24,-390.16"/>
<polygon fill="midnightblue" stroke="midnightblue" points="155.5,-442.49 148.2,-450.17 158.69,-448.73 155.5,-442.49"/>
</g>
<!-- Node17 -->
<g id="node17" class="node">
<title>Node17</title>
<g id="a_node17"><a xlink:href="class_numeric_sensor.html" target="_top" xlink:title="A Sensor whose output is a float.">
<polygon fill="white" stroke="black" points="227,-266.5 227,-285.5 311,-285.5 311,-266.5 227,-266.5"/>
<text text-anchor="middle" x="269" y="-273.5" font-family="Helvetica,sans-Serif" font-size="10.00">NumericSensor</text>
</a>
</g>
</g>
<!-- Node7&#45;&gt;Node17 -->
<g id="edge16" class="edge">
<title>Node7&#45;&gt;Node17</title>
<path fill="none" stroke="midnightblue" d="M157.36,-446.76C160.49,-444.79 163.45,-442.54 166,-440 192.48,-413.62 182.69,-396 202,-364 220.15,-333.91 246.31,-301.62 259.58,-285.83"/>
<polygon fill="midnightblue" stroke="midnightblue" points="155.43,-443.82 148.26,-451.62 158.73,-450 155.43,-443.82"/>
</g>
<!-- Node31 -->
<g id="node31" class="node">
<title>Node31</title>
<g id="a_node31"><a xlink:href="class_string_sensor.html" target="_top" xlink:title="A Sensor whose output is a String.">
<polygon fill="white" stroke="black" points="232.5,-114.5 232.5,-133.5 305.5,-133.5 305.5,-114.5 232.5,-114.5"/>
<text text-anchor="middle" x="269" y="-121.5" font-family="Helvetica,sans-Serif" font-size="10.00">StringSensor</text>
</a>
</g>
</g>
<!-- Node7&#45;&gt;Node31 -->
<g id="edge30" class="edge">
<title>Node7&#45;&gt;Node31</title>
<path fill="none" stroke="midnightblue" d="M157.34,-447.83C160.62,-445.64 163.61,-443.06 166,-440 217.03,-374.68 175.34,-335.49 202,-257 218.5,-208.43 249.23,-155 262.09,-133.62"/>
<polygon fill="midnightblue" stroke="midnightblue" points="155.39,-444.9 148.23,-452.72 158.7,-451.07 155.39,-444.9"/>
</g>
<!-- Node10 -->
<g id="node10" class="node">
<title>Node10</title>
<g id="a_node10"><a xlink:href="class_digital_input_change.html" target="_top" xlink:title="DigitalInputChange is meant to report when a digital pin changes its state.">
<polygon fill="white" stroke="black" points="385,-582.5 385,-601.5 485,-601.5 485,-582.5 385,-582.5"/>
<text text-anchor="middle" x="435" y="-589.5" font-family="Helvetica,sans-Serif" font-size="10.00">DigitalInputChange</text>
</a>
</g>
</g>
<!-- Node9&#45;&gt;Node10 -->
<g id="edge9" class="edge">
<title>Node9&#45;&gt;Node10</title>
<path fill="none" stroke="midnightblue" d="M311.75,-545.61C319.89,-548.07 328.29,-550.9 336,-554 352.78,-560.76 355.28,-566.1 372,-573 380.53,-576.52 389.96,-579.74 398.83,-582.48"/>
<polygon fill="midnightblue" stroke="midnightblue" points="312.58,-542.21 302,-542.79 310.64,-548.93 312.58,-542.21"/>
</g>
<!-- Node11 -->
<g id="node11" class="node">
<title>Node11</title>
<g id="a_node11"><a xlink:href="class_digital_input_counter.html" target="_top" xlink:title="DigitalInputCounter counts interrupts and reports the count every read_delay ms.">
<polygon fill="white" stroke="black" points="384.5,-544.5 384.5,-563.5 485.5,-563.5 485.5,-544.5 384.5,-544.5"/>
<text text-anchor="middle" x="435" y="-551.5" font-family="Helvetica,sans-Serif" font-size="10.00">DigitalInputCounter</text>
</a>
</g>
</g>
<!-- Node9&#45;&gt;Node11 -->
<g id="edge10" class="edge">
<title>Node9&#45;&gt;Node11</title>
<path fill="none" stroke="midnightblue" d="M312.06,-539.87C334.1,-542.43 361.24,-545.57 384.31,-548.24"/>
<polygon fill="midnightblue" stroke="midnightblue" points="312.35,-536.38 302.01,-538.71 311.54,-543.34 312.35,-536.38"/>
</g>
<!-- Node12 -->
<g id="node12" class="node">
<title>Node12</title>
<g id="a_node12"><a xlink:href="class_digital_input_state.html" target="_top" xlink:title="DigitalInputState reports the state of a digital pin every read_delay ms.">
<polygon fill="white" stroke="black" points="390.5,-506.5 390.5,-525.5 479.5,-525.5 479.5,-506.5 390.5,-506.5"/>
<text text-anchor="middle" x="435" y="-513.5" font-family="Helvetica,sans-Serif" font-size="10.00">DigitalInputState</text>
</a>
</g>
</g>
<!-- Node9&#45;&gt;Node12 -->
<g id="edge11" class="edge">
<title>Node9&#45;&gt;Node12</title>
<path fill="none" stroke="midnightblue" d="M312.21,-530.11C336.16,-527.33 366.09,-523.87 390.28,-521.06"/>
<polygon fill="midnightblue" stroke="midnightblue" points="311.54,-526.66 302.01,-531.29 312.35,-533.62 311.54,-526.66"/>
</g>
<!-- Node18 -->
<g id="node18" class="node">
<title>Node18</title>
<g id="a_node18"><a xlink:href="class_a_d_s1x15_raw_value.html" target="_top" xlink:title="Used to read the raw output of the ADS1x15, which is an integer between 0 and 32,768....">
<polygon fill="white" stroke="black" points="376,-457 376,-487 494,-487 494,-457 376,-457"/>
<text text-anchor="start" x="384" y="-475" font-family="Helvetica,sans-Serif" font-size="10.00">ADS1x15RawValue&lt; T</text>
<text text-anchor="middle" x="435" y="-464" font-family="Helvetica,sans-Serif" font-size="10.00">_ads_1x15 &gt;</text>
</a>
</g>
</g>
<!-- Node17&#45;&gt;Node18 -->
<g id="edge17" class="edge">
<title>Node17&#45;&gt;Node18</title>
<path fill="none" stroke="midnightblue" d="M285.3,-293.77C299.61,-310.96 320.97,-338.13 336,-364 356.2,-398.77 343.2,-418.94 372,-447 375.91,-450.81 380.47,-454.06 385.31,-456.83"/>
<polygon fill="midnightblue" stroke="midnightblue" points="287.66,-291.14 278.54,-285.76 282.31,-295.66 287.66,-291.14"/>
</g>
<!-- Node20 -->
<g id="node20" class="node">
<title>Node20</title>
<g id="a_node20"><a xlink:href="class_analog_input.html" target="_top" xlink:title="Sensor for reading the MCU analog input pins.">
<polygon fill="white" stroke="black" points="401,-418.5 401,-437.5 469,-437.5 469,-418.5 401,-418.5"/>
<text text-anchor="middle" x="435" y="-425.5" font-family="Helvetica,sans-Serif" font-size="10.00">AnalogInput</text>
</a>
</g>
</g>
<!-- Node17&#45;&gt;Node20 -->
<g id="edge19" class="edge">
<title>Node17&#45;&gt;Node20</title>
<path fill="none" stroke="midnightblue" d="M283.55,-293.96C310.62,-329.8 369.07,-406.96 372,-409 380.51,-414.91 390.91,-419.02 400.74,-421.87"/>
<polygon fill="midnightblue" stroke="midnightblue" points="286.22,-291.68 277.4,-285.81 280.63,-295.9 286.22,-291.68"/>
</g>
<!-- Node21 -->
<g id="node21" class="node">
<title>Node21</title>
<g id="a_node21"><a xlink:href="class_b_m_e280_value.html" target="_top" xlink:title="BME280Value reads and outputs the specified value of a BME280 sensor.">
<polygon fill="white" stroke="black" points="396,-380.5 396,-399.5 474,-399.5 474,-380.5 396,-380.5"/>
<text text-anchor="middle" x="435" y="-387.5" font-family="Helvetica,sans-Serif" font-size="10.00">BME280Value</text>
</a>
</g>
</g>
<!-- Node17&#45;&gt;Node21 -->
<g id="edge20" class="edge">
<title>Node17&#45;&gt;Node21</title>
<path fill="none" stroke="midnightblue" d="M284.29,-293.48C302.54,-314.71 336.08,-350.26 372,-371 379.31,-375.22 387.66,-378.6 395.81,-381.27"/>
<polygon fill="midnightblue" stroke="midnightblue" points="286.77,-290.99 277.65,-285.59 281.42,-295.5 286.77,-290.99"/>
</g>
<!-- Node22 -->
<g id="node22" class="node">
<title>Node22</title>
<g id="a_node22"><a xlink:href="class_b_m_p280_value.html" target="_top" xlink:title="BMP280Value reads and outputs the specified value of a BMP280 sensor.">
<polygon fill="white" stroke="black" points="396,-342.5 396,-361.5 474,-361.5 474,-342.5 396,-342.5"/>
<text text-anchor="middle" x="435" y="-349.5" font-family="Helvetica,sans-Serif" font-size="10.00">BMP280Value</text>
</a>
</g>
</g>
<!-- Node17&#45;&gt;Node22 -->
<g id="edge21" class="edge">
<title>Node17&#45;&gt;Node22</title>
<path fill="none" stroke="midnightblue" d="M293.23,-290.86C313.45,-303.33 343.85,-320.98 372,-333 380.28,-336.54 389.44,-339.72 398.13,-342.42"/>
<polygon fill="midnightblue" stroke="midnightblue" points="295.04,-287.86 284.7,-285.53 291.33,-293.8 295.04,-287.86"/>
</g>
<!-- Node23 -->
<g id="node23" class="node">
<title>Node23</title>
<g id="a_node23"><a xlink:href="class_i_n_a219_value.html" target="_top" xlink:title="INA219Value reads and outputs the specified value of an INA219 sensor.">
<polygon fill="white" stroke="black" points="398,-304.5 398,-323.5 472,-323.5 472,-304.5 398,-304.5"/>
<text text-anchor="middle" x="435" y="-311.5" font-family="Helvetica,sans-Serif" font-size="10.00">INA219Value</text>
</a>
</g>
</g>
<!-- Node17&#45;&gt;Node23 -->
<g id="edge22" class="edge">
<title>Node17&#45;&gt;Node23</title>
<path fill="none" stroke="midnightblue" d="M321.38,-287.9C346.23,-293.66 375.47,-300.44 397.93,-305.64"/>
<polygon fill="midnightblue" stroke="midnightblue" points="321.92,-284.44 311.38,-285.59 320.34,-291.26 321.92,-284.44"/>
</g>
<!-- Node24 -->
<g id="node24" class="node">
<title>Node24</title>
<g id="a_node24"><a xlink:href="class_m_a_x31856_thermocouple.html" target="_top" xlink:title="Reads the temperature from an Adafruit MAX31856 (or compatible) thermocouple breakout board....">
<polygon fill="white" stroke="black" points="372,-266.5 372,-285.5 498,-285.5 498,-266.5 372,-266.5"/>
<text text-anchor="middle" x="435" y="-273.5" font-family="Helvetica,sans-Serif" font-size="10.00">MAX31856Thermocouple</text>
</a>
</g>
</g>
<!-- Node17&#45;&gt;Node24 -->
<g id="edge23" class="edge">
<title>Node17&#45;&gt;Node24</title>
<path fill="none" stroke="midnightblue" d="M321.58,-276C337.52,-276 355.26,-276 371.85,-276"/>
<polygon fill="midnightblue" stroke="midnightblue" points="321.38,-272.5 311.38,-276 321.38,-279.5 321.38,-272.5"/>
</g>
<!-- Node25 -->
<g id="node25" class="node">
<title>Node25</title>
<g id="a_node25"><a xlink:href="class_one_wire_temperature.html" target="_top" xlink:title="Used to read the temperature from a single 1&#45;Wire temperature sensor. If you have X sensors connected...">
<polygon fill="white" stroke="black" points="380.5,-228.5 380.5,-247.5 489.5,-247.5 489.5,-228.5 380.5,-228.5"/>
<text text-anchor="middle" x="435" y="-235.5" font-family="Helvetica,sans-Serif" font-size="10.00">OneWireTemperature</text>
</a>
</g>
</g>
<!-- Node17&#45;&gt;Node25 -->
<g id="edge24" class="edge">
<title>Node17&#45;&gt;Node25</title>
<path fill="none" stroke="midnightblue" d="M321.34,-264.1C344.39,-258.76 371.22,-252.55 392.91,-247.52"/>
<polygon fill="midnightblue" stroke="midnightblue" points="320.34,-260.74 311.38,-266.41 321.92,-267.56 320.34,-260.74"/>
</g>
<!-- Node26 -->
<g id="node26" class="node">
<title>Node26</title>
<g id="a_node26"><a xlink:href="class_s_h_t31_value.html" target="_top" xlink:title="SHT31Value reads and outputs the specified value of an SHT31 sensor.">
<polygon fill="white" stroke="black" points="399.5,-190.5 399.5,-209.5 470.5,-209.5 470.5,-190.5 399.5,-190.5"/>
<text text-anchor="middle" x="435" y="-197.5" font-family="Helvetica,sans-Serif" font-size="10.00">SHT31Value</text>
</a>
</g>
</g>
<!-- Node17&#45;&gt;Node26 -->
<g id="edge25" class="edge">
<title>Node17&#45;&gt;Node26</title>
<path fill="none" stroke="midnightblue" d="M293.23,-261.14C313.45,-248.67 343.85,-231.02 372,-219 380.7,-215.29 390.36,-211.97 399.42,-209.18"/>
<polygon fill="midnightblue" stroke="midnightblue" points="291.33,-258.2 284.7,-266.47 295.04,-264.14 291.33,-258.2"/>
</g>
<!-- Node27 -->
<g id="node27" class="node">
<title>Node27</title>
<g id="a_node27"><a xlink:href="class_system_hz.html" target="_top" xlink:title="Reports the current clock speed of the ESP.">
<polygon fill="white" stroke="black" points="403.5,-152.5 403.5,-171.5 466.5,-171.5 466.5,-152.5 403.5,-152.5"/>
<text text-anchor="middle" x="435" y="-159.5" font-family="Helvetica,sans-Serif" font-size="10.00">SystemHz</text>
</a>
</g>
</g>
<!-- Node17&#45;&gt;Node27 -->
<g id="edge26" class="edge">
<title>Node17&#45;&gt;Node27</title>
<path fill="none" stroke="midnightblue" d="M284.29,-258.52C302.54,-237.29 336.08,-201.74 372,-181 381.55,-175.48 392.88,-171.41 403.22,-168.47"/>
<polygon fill="midnightblue" stroke="midnightblue" points="281.42,-256.5 277.65,-266.41 286.77,-261.01 281.42,-256.5"/>
</g>
<!-- Node28 -->
<g id="node28" class="node">
<title>Node28</title>
<g id="a_node28"><a xlink:href="class_ultrasonic_distance.html" target="_top" xlink:title="Reads a DYP&#45;A02YYWM&#45;V1.0 (and possibly other types) ultrasonic sensor and outputs the number of micro...">
<polygon fill="white" stroke="black" points="385,-114.5 385,-133.5 485,-133.5 485,-114.5 385,-114.5"/>
<text text-anchor="middle" x="435" y="-121.5" font-family="Helvetica,sans-Serif" font-size="10.00">UltrasonicDistance</text>
</a>
</g>
</g>
<!-- Node17&#45;&gt;Node28 -->
<g id="edge27" class="edge">
<title>Node17&#45;&gt;Node28</title>
<path fill="none" stroke="midnightblue" d="M279.39,-257.31C294.79,-228.51 328.17,-173.44 372,-143 377.55,-139.15 383.9,-136.06 390.38,-133.58"/>
<polygon fill="midnightblue" stroke="midnightblue" points="276.21,-255.83 274.7,-266.32 282.42,-259.06 276.21,-255.83"/>
</g>
<!-- Node29 -->
<g id="node29" class="node">
<title>Node29</title>
<g id="a_node29"><a xlink:href="class_uptime.html" target="_top" xlink:title="Reports the number of seconds since the last restart of the ESP.">
<polygon fill="white" stroke="black" points="411,-76.5 411,-95.5 459,-95.5 459,-76.5 411,-76.5"/>
<text text-anchor="middle" x="435" y="-83.5" font-family="Helvetica,sans-Serif" font-size="10.00">Uptime</text>
</a>
</g>
</g>
<!-- Node17&#45;&gt;Node29 -->
<g id="edge28" class="edge">
<title>Node17&#45;&gt;Node29</title>
<path fill="none" stroke="midnightblue" d="M278.98,-257.32C298.45,-217.51 344.98,-126.2 372,-105 383.16,-96.25 398.35,-91.51 410.91,-88.95"/>
<polygon fill="midnightblue" stroke="midnightblue" points="275.76,-255.94 274.54,-266.47 282.06,-259 275.76,-255.94"/>
</g>
<!-- Node30 -->
<g id="node30" class="node">
<title>Node30</title>
<g id="a_node30"><a xlink:href="class_wifi_signal.html" target="_top" xlink:title="Reports the current strength of the wifi signal that the ESP is connected to.">
<polygon fill="white" stroke="black" points="404.5,-38.5 404.5,-57.5 465.5,-57.5 465.5,-38.5 404.5,-38.5"/>
<text text-anchor="middle" x="435" y="-45.5" font-family="Helvetica,sans-Serif" font-size="10.00">WifiSignal</text>
</a>
</g>
</g>
<!-- Node17&#45;&gt;Node30 -->
<g id="edge29" class="edge">
<title>Node17&#45;&gt;Node30</title>
<path fill="none" stroke="midnightblue" d="M279.38,-257.36C292.28,-231.68 316.14,-183.95 336,-143 352.31,-109.37 343.73,-91.44 372,-67 381.03,-59.2 393.21,-54.6 404.38,-51.89"/>
<polygon fill="midnightblue" stroke="midnightblue" points="276.23,-255.84 274.86,-266.35 282.48,-258.99 276.23,-255.84"/>
</g>
<!-- Node19 -->
<g id="node19" class="node">
<title>Node19</title>
<g id="a_node19"><a xlink:href="class_a_d_s1x15_voltage.html" target="_top" xlink:title="Reads the raw output of the ADS1x15 (an integer between 0 and 32,768) and converts it back into the v...">
<polygon fill="white" stroke="black" points="534,-457 534,-487 662,-487 662,-457 534,-457"/>
<text text-anchor="start" x="542" y="-475" font-family="Helvetica,sans-Serif" font-size="10.00">ADS1x15Voltage&lt; T_ads</text>
<text text-anchor="middle" x="598" y="-464" font-family="Helvetica,sans-Serif" font-size="10.00">_1x15 &gt;</text>
</a>
</g>
</g>
<!-- Node18&#45;&gt;Node19 -->
<g id="edge18" class="edge">
<title>Node18&#45;&gt;Node19</title>
<path fill="none" stroke="midnightblue" d="M504.23,-472C514.03,-472 524.09,-472 533.79,-472"/>
<polygon fill="midnightblue" stroke="midnightblue" points="504.12,-468.5 494.12,-472 504.12,-475.5 504.12,-468.5"/>
</g>
<!-- Node32 -->
<g id="node32" class="node">
<title>Node32</title>
<g id="a_node32"><a xlink:href="class_i_p_addr_dev.html" target="_top" xlink:title="Reports the IP address of the ESP once it&#39;s connected to wifi.">
<polygon fill="white" stroke="black" points="403.5,-0.5 403.5,-19.5 466.5,-19.5 466.5,-0.5 403.5,-0.5"/>
<text text-anchor="middle" x="435" y="-7.5" font-family="Helvetica,sans-Serif" font-size="10.00">IPAddrDev</text>
</a>
</g>
</g>
<!-- Node31&#45;&gt;Node32 -->
<g id="edge31" class="edge">
<title>Node31&#45;&gt;Node32</title>
<path fill="none" stroke="midnightblue" d="M284.29,-106.52C302.54,-85.29 336.08,-49.74 372,-29 381.55,-23.48 392.88,-19.41 403.22,-16.47"/>
<polygon fill="midnightblue" stroke="midnightblue" points="281.42,-104.5 277.65,-114.41 286.77,-109.01 281.42,-104.5"/>
</g>
</g>
</svg>
        <g id="navigator" transform="translate(0 0)" fill="#404254">
                <rect fill="#f2f5e9" fill-opacity="0.5" stroke="#606060" stroke-width=".5" x="0" y="0" width="60" height="60"/>
                <use id="zoomplus" xlink:href="#zoomPlus" x="17" y="9" onmousedown="handleZoom(evt,'in')"/>
                <use id="zoomminus" xlink:href="#zoomMin" x="42" y="9" onmousedown="handleZoom(evt,'out')"/>
                <use id="reset" xlink:href="#resetDef" x="30" y="36" onmousedown="handleReset()"/>
                <g id="arrowUp" xlink:href="#dirArrow" transform="translate(30 24)" onmousedown="handlePan(0,-1)">
                  <use xlink:href="#rim" fill="#404040">
                        <set attributeName="fill" to="#808080" begin="arrowUp.mouseover" end="arrowUp.mouseout"/>
                  </use>
                  <path fill="none" stroke="white" stroke-width="1.5" d="M0,-3.0v7 M-2.5,-0.5L0,-3.0L2.5,-0.5"/>
                </g>
                <g id="arrowRight" xlink:href="#dirArrow" transform="rotate(90) translate(36 -43)" onmousedown="handlePan(1,0)">
                  <use xlink:href="#rim" fill="#404040">
                        <set attributeName="fill" to="#808080" begin="arrowRight.mouseover" end="arrowRight.mouseout"/>
                  </use>
                  <path fill="none" stroke="white" stroke-width="1.5" d="M0,-3.0v7 M-2.5,-0.5L0,-3.0L2.5,-0.5"/>
                </g>
                <g id="arrowDown" xlink:href="#dirArrow" transform="rotate(180) translate(-30 -48)" onmousedown="handlePan(0,1)">
                  <use xlink:href="#rim" fill="#404040">
                        <set attributeName="fill" to="#808080" begin="arrowDown.mouseover" end="arrowDown.mouseout"/>
                  </use>
                  <path fill="none" stroke="white" stroke-width="1.5" d="M0,-3.0v7 M-2.5,-0.5L0,-3.0L2.5,-0.5"/>
                </g>
                <g id="arrowLeft" xlink:href="#dirArrow" transform="rotate(270) translate(-36 17)" onmousedown="handlePan(-1,0)">
                  <use xlink:href="#rim" fill="#404040">
                        <set attributeName="fill" to="#808080" begin="arrowLeft.mouseover" end="arrowLeft.mouseout"/>
                  </use>
                  <path fill="none" stroke="white" stroke-width="1.5" d="M0,-3.0v7 M-2.5,-0.5L0,-3.0L2.5,-0.5"/>
                </g>
        </g>
        <svg viewBox="0 0 15 15" width="100%" height="30px" preserveAspectRatio="xMaxYMin meet">
         <g id="arrow_out" transform="scale(0.3 0.3)">
          <a xlink:href="class_enable__inherit__graph_org.svg" target="_base">
           <rect id="button" ry="5" rx="5" y="6" x="6" height="38" width="38"
                fill="#f2f5e9" fill-opacity="0.5" stroke="#606060" stroke-width="1.0"/>
           <path id="arrow"
             d="M 11.500037,31.436501 C 11.940474,20.09759 22.043105,11.32322 32.158766,21.979434 L 37.068811,17.246167 C 37.068811,17.246167 37.088388,32 37.088388,32 L 22.160133,31.978069 C 22.160133,31.978069 26.997745,27.140456 26.997745,27.140456 C 18.528582,18.264221 13.291696,25.230495 11.500037,31.436501 z"
             style="fill:#404040;"/>
          </a>
         </g>
        </svg>
</svg>
