<?xml version="1.0" encoding="UTF-8" standalone="no"?>
<!DOCTYPE svg PUBLIC "-//W3C//DTD SVG 1.1//EN"
 "http://www.w3.org/Graphics/SVG/1.1/DTD/svg11.dtd">
<!-- Generated by graphviz version 2.49.3 (20211023.0002)
 -->
<!-- Title: sensesp::SystemStatusController Pages: 1 -->
<svg width="786pt" height="148pt"
 viewBox="0.00 0.00 786.00 147.50" xmlns="http://www.w3.org/2000/svg" xmlns:xlink="http://www.w3.org/1999/xlink">
<g id="graph0" class="graph" transform="scale(1 1) rotate(0) translate(4 143.5)">
<title>sensesp::SystemStatusController</title>
<polygon fill="white" stroke="transparent" points="-4,4 -4,-143.5 782,-143.5 782,4 -4,4"/>
<!-- Node1 -->
<g id="node1" class="node">
<title>Node1</title>
<g id="a_node1"><a xlink:title="Base class for a controller that can react to system status events.">
<polygon fill="#bfbfbf" stroke="black" points="614,-65.5 614,-84.5 778,-84.5 778,-65.5 614,-65.5"/>
<text text-anchor="middle" x="696" y="-72.5" font-family="Helvetica,sans-Serif" font-size="10.00">sensesp::SystemStatusController</text>
</a>
</g>
</g>
<!-- Node2 -->
<g id="node2" class="node">
<title>Node2</title>
<g id="a_node2"><a xlink:href="classsensesp_1_1_value_consumer.html" target="_top" xlink:title=" ">
<polygon fill="white" stroke="black" points="447,-109 447,-139 577,-139 577,-109 447,-109"/>
<text text-anchor="start" x="455" y="-127" font-family="Helvetica,sans-Serif" font-size="10.00">sensesp::ValueConsumer</text>
<text text-anchor="middle" x="512" y="-116" font-family="Helvetica,sans-Serif" font-size="10.00">&lt; WifiState &gt;</text>
</a>
</g>
</g>
<!-- Node2&#45;&gt;Node1 -->
<g id="edge1" class="edge">
<title>Node2&#45;&gt;Node1</title>
<path fill="none" stroke="midnightblue" d="M578.98,-106.24C606.27,-98.89 636.81,-90.67 659.71,-84.5"/>
<polygon fill="midnightblue" stroke="midnightblue" points="577.84,-102.92 569.09,-108.9 579.66,-109.68 577.84,-102.92"/>
</g>
<!-- Node3 -->
<g id="node3" class="node">
<title>Node3</title>
<g id="a_node3"><a xlink:href="classsensesp_1_1_value_consumer.html" target="_top" xlink:title="A base class for piece of code (like a transform) that accepts data for input. ValueConsumers can acc...">
<polygon fill="white" stroke="black" points="147,-90.5 147,-109.5 300,-109.5 300,-90.5 147,-90.5"/>
<text text-anchor="middle" x="223.5" y="-97.5" font-family="Helvetica,sans-Serif" font-size="10.00">sensesp::ValueConsumer&lt; T &gt;</text>
</a>
</g>
</g>
<!-- Node3&#45;&gt;Node2 -->
<g id="edge2" class="edge">
<title>Node3&#45;&gt;Node2</title>
<path fill="none" stroke="orange" stroke-dasharray="5,2" d="M310.21,-107.18C353.97,-110.85 406.32,-115.23 446.6,-118.6"/>
<polygon fill="orange" stroke="orange" points="310.41,-103.68 300.15,-106.34 309.82,-110.66 310.41,-103.68"/>
<text text-anchor="middle" x="373.5" y="-119" font-family="Helvetica,sans-Serif" font-size="10.00"> &lt; WifiState &gt;</text>
</g>
<!-- Node4 -->
<g id="node4" class="node">
<title>Node4</title>
<g id="a_node4"><a xlink:href="classsensesp_1_1_value_consumer.html" target="_top" xlink:title=" ">
<polygon fill="white" stroke="black" points="447,-60 447,-90 577,-90 577,-60 447,-60"/>
<text text-anchor="start" x="455" y="-78" font-family="Helvetica,sans-Serif" font-size="10.00">sensesp::ValueConsumer</text>
<text text-anchor="middle" x="512" y="-67" font-family="Helvetica,sans-Serif" font-size="10.00">&lt; WSConnectionState &gt;</text>
</a>
</g>
</g>
<!-- Node3&#45;&gt;Node4 -->
<g id="edge4" class="edge">
<title>Node3&#45;&gt;Node4</title>
<path fill="none" stroke="orange" stroke-dasharray="5,2" d="M310.21,-92.52C353.97,-88.7 406.32,-84.13 446.6,-80.62"/>
<polygon fill="orange" stroke="orange" points="309.81,-89.04 300.15,-93.4 310.42,-96.02 309.81,-89.04"/>
<text text-anchor="middle" x="373.5" y="-94" font-family="Helvetica,sans-Serif" font-size="10.00"> &lt; WSConnectionState &gt;</text>
</g>
<!-- Node4&#45;&gt;Node1 -->
<g id="edge3" class="edge">
<title>Node4&#45;&gt;Node1</title>
<path fill="none" stroke="midnightblue" d="M587.32,-75C596.07,-75 605.04,-75 613.88,-75"/>
<polygon fill="midnightblue" stroke="midnightblue" points="587.17,-71.5 577.17,-75 587.17,-78.5 587.17,-71.5"/>
</g>
<!-- Node5 -->
<g id="node5" class="node">
<title>Node5</title>
<g id="a_node5"><a xlink:href="classsensesp_1_1_value_producer.html" target="_top" xlink:title=" ">
<polygon fill="white" stroke="black" points="449.5,-11 449.5,-41 574.5,-41 574.5,-11 449.5,-11"/>
<text text-anchor="start" x="457.5" y="-29" font-family="Helvetica,sans-Serif" font-size="10.00">sensesp::ValueProducer</text>
<text text-anchor="middle" x="512" y="-18" font-family="Helvetica,sans-Serif" font-size="10.00">&lt; SystemStatus &gt;</text>
</a>
</g>
</g>
<!-- Node5&#45;&gt;Node1 -->
<g id="edge5" class="edge">
<title>Node5&#45;&gt;Node1</title>
<path fill="none" stroke="midnightblue" d="M578.98,-43.76C606.27,-51.11 636.81,-59.33 659.71,-65.5"/>
<polygon fill="midnightblue" stroke="midnightblue" points="579.66,-40.32 569.09,-41.1 577.84,-47.08 579.66,-40.32"/>
</g>
<!-- Node6 -->
<g id="node6" class="node">
<title>Node6</title>
<g id="a_node6"><a xlink:href="classsensesp_1_1_observable.html" target="_top" xlink:title="A base class which allow observers to attach callbacks to themselves. The callbacks will be called wh...">
<polygon fill="white" stroke="black" points="0,-19.5 0,-38.5 110,-38.5 110,-19.5 0,-19.5"/>
<text text-anchor="middle" x="55" y="-26.5" font-family="Helvetica,sans-Serif" font-size="10.00">sensesp::Observable</text>
</a>
</g>
</g>
<!-- Node6&#45;&gt;Node5 -->
<g id="edge6" class="edge">
<title>Node6&#45;&gt;Node5</title>
<path fill="none" stroke="midnightblue" d="M120.32,-33.69C122.91,-33.81 125.48,-33.91 128,-34 261.7,-38.64 295.38,-40.5 429,-34 435.57,-33.68 442.43,-33.22 449.26,-32.67"/>
<polygon fill="midnightblue" stroke="midnightblue" points="120.4,-30.19 110.23,-33.17 120.04,-37.18 120.4,-30.19"/>
</g>
<!-- Node7 -->
<g id="node7" class="node">
<title>Node7</title>
<g id="a_node7"><a xlink:href="classsensesp_1_1_value_producer.html" target="_top" xlink:title="A base class for any sensor or piece of code that outputs a value for consumption elsewhere.">
<polygon fill="white" stroke="black" points="149.5,-0.5 149.5,-19.5 297.5,-19.5 297.5,-0.5 149.5,-0.5"/>
<text text-anchor="middle" x="223.5" y="-7.5" font-family="Helvetica,sans-Serif" font-size="10.00">sensesp::ValueProducer&lt; T &gt;</text>
</a>
</g>
</g>
<!-- Node6&#45;&gt;Node7 -->
<g id="edge8" class="edge">
<title>Node6&#45;&gt;Node7</title>
<path fill="none" stroke="midnightblue" d="M120.23,-21.67C129.76,-20.58 139.64,-19.46 149.34,-18.35"/>
<polygon fill="midnightblue" stroke="midnightblue" points="119.6,-18.22 110.06,-22.83 120.39,-25.17 119.6,-18.22"/>
</g>
<!-- Node7&#45;&gt;Node5 -->
<g id="edge7" class="edge">
<title>Node7&#45;&gt;Node5</title>
<path fill="none" stroke="orange" stroke-dasharray="5,2" d="M307.62,-14.64C352.85,-17.17 407.85,-20.24 449.25,-22.55"/>
<polygon fill="orange" stroke="orange" points="307.72,-11.14 297.54,-14.08 307.33,-18.13 307.72,-11.14"/>
<text text-anchor="middle" x="373.5" y="-24" font-family="Helvetica,sans-Serif" font-size="10.00"> &lt; SystemStatus &gt;</text>
</g>
</g>
</svg>
