<?xml version="1.0" encoding="UTF-8" standalone="no"?>
<!DOCTYPE svg PUBLIC "-//W3C//DTD SVG 1.1//EN"
 "http://www.w3.org/Graphics/SVG/1.1/DTD/svg11.dtd">
<!-- Generated by graphviz version 5.0.0 (20220707.1540)
 -->
<!-- Title: sensesp::SKDeltaQueue::release_semaphore Pages: 1 -->
<svg width="801pt" height="186pt"
 viewBox="0.00 0.00 801.00 186.00" xmlns="http://www.w3.org/2000/svg" xmlns:xlink="http://www.w3.org/1999/xlink">
<g id="graph0" class="graph" transform="scale(1 1) rotate(0) translate(4 182)">
<title>sensesp::SKDeltaQueue::release_semaphore</title>
<polygon fill="white" stroke="transparent" points="-4,4 -4,-182 797,-182 797,4 -4,4"/>
<!-- Node1 -->
<g id="node1" class="node">
<title>Node1</title>
<g id="a_node1"><a xlink:title=" ">
<polygon fill="#bfbfbf" stroke="black" points="668,-73.5 668,-103.5 793,-103.5 793,-73.5 668,-73.5"/>
<text text-anchor="start" x="676" y="-91.5" font-family="Helvetica,sans-Serif" font-size="10.00">sensesp::SKDeltaQueue</text>
<text text-anchor="middle" x="730.5" y="-80.5" font-family="Helvetica,sans-Serif" font-size="10.00">::release_semaphore</text>
</a>
</g>
</g>
<!-- Node2 -->
<g id="node2" class="node">
<title>Node2</title>
<g id="a_node2"><a xlink:href="classsensesp_1_1_s_k_delta_queue.html#ac50caa77fc6156ec5f9e08576b7d0850" target="_top" xlink:title=" ">
<polygon fill="white" stroke="black" points="507,-147.5 507,-177.5 632,-177.5 632,-147.5 507,-147.5"/>
<text text-anchor="start" x="515" y="-165.5" font-family="Helvetica,sans-Serif" font-size="10.00">sensesp::SKDeltaQueue</text>
<text text-anchor="middle" x="569.5" y="-154.5" font-family="Helvetica,sans-Serif" font-size="10.00">::append</text>
</a>
</g>
</g>
<!-- Node1&#45;&gt;Node2 -->
<g id="edge1" class="edge">
<title>Node1&#45;&gt;Node2</title>
<path fill="none" stroke="midnightblue" d="M692.67,-108.51C674.6,-118.04 652.39,-129.32 632,-138.5 625.21,-141.56 617.9,-144.61 610.77,-147.46"/>
<polygon fill="midnightblue" stroke="midnightblue" points="694.52,-111.49 701.71,-103.71 691.24,-105.31 694.52,-111.49"/>
</g>
<!-- Node5 -->
<g id="node5" class="node">
<title>Node5</title>
<g id="a_node5"><a xlink:href="classsensesp_1_1_s_k_delta_queue.html#a739868615cbe7d97bdc30b7c42c3e9f9" target="_top" xlink:title=" ">
<polygon fill="white" stroke="black" points="507,-98.5 507,-128.5 632,-128.5 632,-98.5 507,-98.5"/>
<text text-anchor="start" x="515" y="-116.5" font-family="Helvetica,sans-Serif" font-size="10.00">sensesp::SKDeltaQueue</text>
<text text-anchor="middle" x="569.5" y="-105.5" font-family="Helvetica,sans-Serif" font-size="10.00">::data_available</text>
</a>
</g>
</g>
<!-- Node1&#45;&gt;Node5 -->
<g id="edge4" class="edge">
<title>Node1&#45;&gt;Node5</title>
<path fill="none" stroke="midnightblue" d="M657.68,-99.79C649.2,-101.13 640.59,-102.48 632.26,-103.79"/>
<polygon fill="midnightblue" stroke="midnightblue" points="658.24,-103.25 667.57,-98.24 657.15,-96.33 658.24,-103.25"/>
</g>
<!-- Node9 -->
<g id="node9" class="node">
<title>Node9</title>
<g id="a_node9"><a xlink:href="classsensesp_1_1_s_k_delta_queue.html#a26dc17fc9fa31804552240f81efa35ac" target="_top" xlink:title=" ">
<polygon fill="white" stroke="black" points="507,-49.5 507,-79.5 632,-79.5 632,-49.5 507,-49.5"/>
<text text-anchor="start" x="515" y="-67.5" font-family="Helvetica,sans-Serif" font-size="10.00">sensesp::SKDeltaQueue</text>
<text text-anchor="middle" x="569.5" y="-56.5" font-family="Helvetica,sans-Serif" font-size="10.00">::get_delta</text>
</a>
</g>
</g>
<!-- Node1&#45;&gt;Node9 -->
<g id="edge8" class="edge">
<title>Node1&#45;&gt;Node9</title>
<path fill="none" stroke="midnightblue" d="M657.41,-77.62C649.01,-76.35 640.5,-75.07 632.26,-73.82"/>
<polygon fill="midnightblue" stroke="midnightblue" points="657.16,-81.12 667.57,-79.15 658.21,-74.2 657.16,-81.12"/>
</g>
<!-- Node10 -->
<g id="node10" class="node">
<title>Node10</title>
<g id="a_node10"><a xlink:href="classsensesp_1_1_s_k_delta_queue.html#add56c07207ea03780ac30a48ce4f38ab" target="_top" xlink:title=" ">
<polygon fill="white" stroke="black" points="507,-0.5 507,-30.5 632,-30.5 632,-0.5 507,-0.5"/>
<text text-anchor="start" x="515" y="-18.5" font-family="Helvetica,sans-Serif" font-size="10.00">sensesp::SKDeltaQueue</text>
<text text-anchor="middle" x="569.5" y="-7.5" font-family="Helvetica,sans-Serif" font-size="10.00">::reset_meta_send</text>
</a>
</g>
</g>
<!-- Node1&#45;&gt;Node10 -->
<g id="edge10" class="edge">
<title>Node1&#45;&gt;Node10</title>
<path fill="none" stroke="midnightblue" d="M692.23,-68.74C674.23,-59.46 652.19,-48.49 632,-39.5 625.19,-36.47 617.88,-33.43 610.75,-30.58"/>
<polygon fill="midnightblue" stroke="midnightblue" points="690.76,-71.92 701.25,-73.42 693.99,-65.71 690.76,-71.92"/>
</g>
<!-- Node3 -->
<g id="node3" class="node">
<title>Node3</title>
<g id="a_node3"><a xlink:href="classsensesp_1_1_s_k_delta_queue.html#a0bbb7e3cafe2088f9ba989f367d76808" target="_top" xlink:title=" ">
<polygon fill="white" stroke="black" points="346,-147.5 346,-177.5 471,-177.5 471,-147.5 346,-147.5"/>
<text text-anchor="start" x="354" y="-165.5" font-family="Helvetica,sans-Serif" font-size="10.00">sensesp::SKDeltaQueue</text>
<text text-anchor="middle" x="408.5" y="-154.5" font-family="Helvetica,sans-Serif" font-size="10.00">::connect_emitters</text>
</a>
</g>
</g>
<!-- Node2&#45;&gt;Node3 -->
<g id="edge2" class="edge">
<title>Node2&#45;&gt;Node3</title>
<path fill="none" stroke="midnightblue" d="M496.41,-162.5C488.01,-162.5 479.5,-162.5 471.26,-162.5"/>
<polygon fill="midnightblue" stroke="midnightblue" points="496.57,-166 506.57,-162.5 496.57,-159 496.57,-166"/>
</g>
<!-- Node4 -->
<g id="node4" class="node">
<title>Node4</title>
<g id="a_node4"><a xlink:href="classsensesp_1_1_s_k_delta_queue.html#a4806971a1a246092b9e6584b325b1678" target="_top" xlink:title=" ">
<polygon fill="white" stroke="black" points="164,-147.5 164,-177.5 289,-177.5 289,-147.5 164,-147.5"/>
<text text-anchor="start" x="172" y="-165.5" font-family="Helvetica,sans-Serif" font-size="10.00">sensesp::SKDeltaQueue</text>
<text text-anchor="middle" x="226.5" y="-154.5" font-family="Helvetica,sans-Serif" font-size="10.00">::start</text>
</a>
</g>
</g>
<!-- Node3&#45;&gt;Node4 -->
<g id="edge3" class="edge">
<title>Node3&#45;&gt;Node4</title>
<path fill="none" stroke="midnightblue" d="M335.78,-162.5C320.33,-162.5 304.14,-162.5 289.11,-162.5"/>
<polygon fill="midnightblue" stroke="midnightblue" points="335.81,-166 345.81,-162.5 335.81,-159 335.81,-166"/>
</g>
<!-- Node6 -->
<g id="node6" class="node">
<title>Node6</title>
<g id="a_node6"><a xlink:href="classsensesp_1_1_w_s_client.html#a5553fc62b2382a529d1ff86f219ea7c5" target="_top" xlink:title=" ">
<polygon fill="white" stroke="black" points="355,-73.5 355,-103.5 462,-103.5 462,-73.5 355,-73.5"/>
<text text-anchor="start" x="363" y="-91.5" font-family="Helvetica,sans-Serif" font-size="10.00">sensesp::WSClient::</text>
<text text-anchor="middle" x="408.5" y="-80.5" font-family="Helvetica,sans-Serif" font-size="10.00">send_delta</text>
</a>
</g>
</g>
<!-- Node5&#45;&gt;Node6 -->
<g id="edge5" class="edge">
<title>Node5&#45;&gt;Node6</title>
<path fill="none" stroke="midnightblue" d="M496.51,-102.18C484.97,-100.37 473.22,-98.52 462.24,-96.79"/>
<polygon fill="midnightblue" stroke="midnightblue" points="496.15,-105.67 506.57,-103.76 497.24,-98.75 496.15,-105.67"/>
</g>
<!-- Node7 -->
<g id="node7" class="node">
<title>Node7</title>
<g id="a_node7"><a xlink:href="namespacesensesp.html#a922a4380d70b3a01a7e117644805de09" target="_top" xlink:title=" ">
<polygon fill="white" stroke="black" points="143,-79 143,-98 310,-98 310,-79 143,-79"/>
<text text-anchor="middle" x="226.5" y="-86" font-family="Helvetica,sans-Serif" font-size="10.00">sensesp::ExecuteWebSocketTask</text>
</a>
</g>
</g>
<!-- Node6&#45;&gt;Node7 -->
<g id="edge6" class="edge">
<title>Node6&#45;&gt;Node7</title>
<path fill="none" stroke="midnightblue" d="M344.88,-88.5C333.7,-88.5 321.9,-88.5 310.26,-88.5"/>
<polygon fill="midnightblue" stroke="midnightblue" points="344.95,-92 354.95,-88.5 344.95,-85 344.95,-92"/>
</g>
<!-- Node8 -->
<g id="node8" class="node">
<title>Node8</title>
<g id="a_node8"><a xlink:href="classsensesp_1_1_w_s_client.html#a64ae48ad175825edc9248575033eb9f5" target="_top" xlink:title=" ">
<polygon fill="white" stroke="black" points="0,-73.5 0,-103.5 107,-103.5 107,-73.5 0,-73.5"/>
<text text-anchor="start" x="8" y="-91.5" font-family="Helvetica,sans-Serif" font-size="10.00">sensesp::WSClient::</text>
<text text-anchor="middle" x="53.5" y="-80.5" font-family="Helvetica,sans-Serif" font-size="10.00">start</text>
</a>
</g>
</g>
<!-- Node7&#45;&gt;Node8 -->
<g id="edge7" class="edge">
<title>Node7&#45;&gt;Node8</title>
<path fill="none" stroke="midnightblue" d="M132.54,-88.5C123.87,-88.5 115.3,-88.5 107.19,-88.5"/>
<polygon fill="midnightblue" stroke="midnightblue" points="132.75,-92 142.75,-88.5 132.75,-85 132.75,-92"/>
</g>
<!-- Node9&#45;&gt;Node6 -->
<g id="edge9" class="edge">
<title>Node9&#45;&gt;Node6</title>
<path fill="none" stroke="midnightblue" d="M496.51,-75.37C484.97,-77.11 473.22,-78.88 462.24,-80.54"/>
<polygon fill="midnightblue" stroke="midnightblue" points="497.21,-78.8 506.57,-73.85 496.16,-71.88 497.21,-78.8"/>
</g>
<!-- Node11 -->
<g id="node11" class="node">
<title>Node11</title>
<g id="a_node11"><a xlink:href="classsensesp_1_1_w_s_client.html#a7b9a87e920e3d907d857f161dcc07e34" target="_top" xlink:title="Called when the websocket connection is established.">
<polygon fill="white" stroke="black" points="355,-0.5 355,-30.5 462,-30.5 462,-0.5 355,-0.5"/>
<text text-anchor="start" x="363" y="-18.5" font-family="Helvetica,sans-Serif" font-size="10.00">sensesp::WSClient::</text>
<text text-anchor="middle" x="408.5" y="-7.5" font-family="Helvetica,sans-Serif" font-size="10.00">on_connected</text>
</a>
</g>
</g>
<!-- Node10&#45;&gt;Node11 -->
<g id="edge11" class="edge">
<title>Node10&#45;&gt;Node11</title>
<path fill="none" stroke="midnightblue" d="M496.51,-15.5C484.97,-15.5 473.22,-15.5 462.24,-15.5"/>
<polygon fill="midnightblue" stroke="midnightblue" points="496.57,-19 506.57,-15.5 496.57,-12 496.57,-19"/>
</g>
<!-- Node12 -->
<g id="node12" class="node">
<title>Node12</title>
<g id="a_node12"><a xlink:href="namespacesensesp.html#a4f37392d0637be5754c86b87b263d0d3" target="_top" xlink:title="WebSocket event handler.">
<polygon fill="white" stroke="black" points="159.5,-0.5 159.5,-30.5 293.5,-30.5 293.5,-0.5 159.5,-0.5"/>
<text text-anchor="start" x="167.5" y="-18.5" font-family="Helvetica,sans-Serif" font-size="10.00">sensesp::webSocketClient</text>
<text text-anchor="middle" x="226.5" y="-7.5" font-family="Helvetica,sans-Serif" font-size="10.00">Event</text>
</a>
</g>
</g>
<!-- Node11&#45;&gt;Node12 -->
<g id="edge12" class="edge">
<title>Node11&#45;&gt;Node12</title>
<path fill="none" stroke="midnightblue" d="M344.83,-15.5C328.26,-15.5 310.32,-15.5 293.57,-15.5"/>
<polygon fill="midnightblue" stroke="midnightblue" points="344.95,-19 354.95,-15.5 344.95,-12 344.95,-19"/>
</g>
</g>
</svg>
