<?xml version="1.0" encoding="UTF-8" standalone="no"?>
<!DOCTYPE svg PUBLIC "-//W3C//DTD SVG 1.1//EN"
 "http://www.w3.org/Graphics/SVG/1.1/DTD/svg11.dtd">
<!-- Generated by graphviz version 14.1.4 (20260321.0153)
 -->
<!-- Title: sensesp::SensESPAppBuilder::set_ethernet Pages: 1 -->
<svg width="522pt" height="61pt"
 viewBox="0.00 0.00 522.00 61.00" xmlns="http://www.w3.org/2000/svg" xmlns:xlink="http://www.w3.org/1999/xlink">
<g id="graph0" class="graph" transform="scale(1 1) rotate(0) translate(4 56.5)">
<title>sensesp::SensESPAppBuilder::set_ethernet</title>
<!-- Node1 -->
<g id="Node000001" class="node">
<title>Node1</title>
<g id="a_Node000001"><a xlink:title="Configure the app to use a non&#45;WiFi NetworkProvisioner.">
<polygon fill="#999999" stroke="#666666" points="147.25,-30.5 0,-30.5 0,0 147.25,0 147.25,-30.5"/>
<text xml:space="preserve" text-anchor="start" x="8" y="-17" font-family="Helvetica,sans-Serif" font-size="10.00">sensesp::SensESPAppBuilder</text>
<text xml:space="preserve" text-anchor="middle" x="73.62" y="-5.75" font-family="Helvetica,sans-Serif" font-size="10.00">::set_ethernet</text>
</a>
</g>
</g>
<!-- Node2 -->
<g id="Node000002" class="node">
<title>Node2</title>
<g id="a_Node000002"><a xlink:href="classsensesp_1_1_sens_e_s_p_app_builder.html#a270ba3578f110247375e7dcc9dfc9173" target="_top" xlink:title="Clear the default WiFi STA/AP settings.">
<polygon fill="white" stroke="#666666" points="330.5,-52.5 183.25,-52.5 183.25,-22 330.5,-22 330.5,-52.5"/>
<text xml:space="preserve" text-anchor="start" x="191.25" y="-39" font-family="Helvetica,sans-Serif" font-size="10.00">sensesp::SensESPAppBuilder</text>
<text xml:space="preserve" text-anchor="middle" x="256.88" y="-27.75" font-family="Helvetica,sans-Serif" font-size="10.00">::disable_wifi</text>
</a>
</g>
</g>
<!-- Node1&#45;&gt;Node2 -->
<g id="edge1_Node000001_Node000002" class="edge">
<title>Node1&#45;&gt;Node2</title>
<g id="a_edge1_Node000001_Node000002"><a xlink:title=" ">
<path fill="none" stroke="#63b8ff" d="M147.56,-24.1C155.45,-25.06 163.53,-26.04 171.54,-27.01"/>
<polygon fill="#63b8ff" stroke="#63b8ff" points="170.94,-30.47 181.29,-28.2 171.78,-23.52 170.94,-30.47"/>
</a>
</g>
</g>
<!-- Node3 -->
<g id="Node000003" class="node">
<title>Node3</title>
<g id="a_Node000003"><a xlink:href="classsensesp_1_1_sens_e_s_p_app_builder.html#a16297b7d511c27217aaa69d8fd53c272" target="_top" xlink:title="Construct a new SensESPApp Builder object.">
<polygon fill="white" stroke="#666666" points="513.75,-30.5 366.5,-30.5 366.5,0 513.75,0 513.75,-30.5"/>
<text xml:space="preserve" text-anchor="start" x="374.5" y="-17" font-family="Helvetica,sans-Serif" font-size="10.00">sensesp::SensESPAppBuilder</text>
<text xml:space="preserve" text-anchor="middle" x="440.12" y="-5.75" font-family="Helvetica,sans-Serif" font-size="10.00">::SensESPAppBuilder</text>
</a>
</g>
</g>
<!-- Node1&#45;&gt;Node3 -->
<g id="edge3_Node000001_Node000003" class="edge">
<title>Node1&#45;&gt;Node3</title>
<g id="a_edge3_Node000001_Node000003"><a xlink:title=" ">
<path fill="none" stroke="#63b8ff" d="M147.66,-13.72C159.56,-13.52 171.74,-13.36 183.25,-13.25 248.69,-12.65 265.06,-12.65 330.5,-13.25 338.32,-13.32 346.46,-13.42 354.6,-13.54"/>
<polygon fill="#63b8ff" stroke="#63b8ff" points="354.52,-17.04 364.58,-13.7 354.63,-10.04 354.52,-17.04"/>
</a>
</g>
</g>
<!-- Node2&#45;&gt;Node3 -->
<g id="edge2_Node000002_Node000003" class="edge">
<title>Node2&#45;&gt;Node3</title>
<g id="a_edge2_Node000002_Node000003"><a xlink:title=" ">
<path fill="none" stroke="#63b8ff" d="M330.81,-28.4C338.7,-27.44 346.78,-26.46 354.79,-25.49"/>
<polygon fill="#63b8ff" stroke="#63b8ff" points="355.03,-28.98 364.54,-24.3 354.19,-22.03 355.03,-28.98"/>
</a>
</g>
</g>
</g>
</svg>
