<?xml version="1.0" encoding="UTF-8" standalone="no"?>
<!DOCTYPE svg PUBLIC "-//W3C//DTD SVG 1.1//EN"
 "http://www.w3.org/Graphics/SVG/1.1/DTD/svg11.dtd">
<!-- Generated by graphviz version 2.49.3 (20211023.0002)
 -->
<!-- Title: SmartSwitchController::set_input Pages: 1 -->
<svg width="423pt" height="116pt"
 viewBox="0.00 0.00 423.00 116.00" xmlns="http://www.w3.org/2000/svg" xmlns:xlink="http://www.w3.org/1999/xlink">
<g id="graph0" class="graph" transform="scale(1 1) rotate(0) translate(4 112)">
<title>SmartSwitchController::set_input</title>
<polygon fill="white" stroke="transparent" points="-4,4 -4,-112 419,-112 419,4 -4,4"/>
<!-- Node1 -->
<g id="node1" class="node">
<title>Node1</title>
<g id="a_node1"><a xlink:title=" ">
<polygon fill="#bfbfbf" stroke="black" points="0,-39 0,-69 116,-69 116,-39 0,-39"/>
<text text-anchor="start" x="8" y="-57" font-family="Helvetica,sans-Serif" font-size="10.00">SmartSwitchController</text>
<text text-anchor="middle" x="58" y="-46" font-family="Helvetica,sans-Serif" font-size="10.00">::set_input</text>
</a>
</g>
</g>
<!-- Node2 -->
<g id="node2" class="node">
<title>Node2</title>
<g id="a_node2"><a xlink:href="class_value_producer.html#a461623f7438c5048c224d71d06dfac4b" target="_top" xlink:title=" ">
<polygon fill="white" stroke="black" points="164,-88.5 164,-107.5 270,-107.5 270,-88.5 164,-88.5"/>
<text text-anchor="middle" x="217" y="-95.5" font-family="Helvetica,sans-Serif" font-size="10.00">ValueProducer::emit</text>
</a>
</g>
</g>
<!-- Node1&#45;&gt;Node2 -->
<g id="edge1" class="edge">
<title>Node1&#45;&gt;Node2</title>
<path fill="none" stroke="midnightblue" d="M112.59,-69.02C131.93,-74.44 153.52,-80.49 171.94,-85.65"/>
<polygon fill="midnightblue" stroke="midnightblue" points="171.25,-89.09 181.82,-88.42 173.14,-82.35 171.25,-89.09"/>
</g>
<!-- Node4 -->
<g id="node4" class="node">
<title>Node4</title>
<g id="a_node4"><a xlink:href="class_text_to_truth.html#afbe3c9cb0a8ac2646ee2663eee080338" target="_top" xlink:title=" ">
<polygon fill="white" stroke="black" points="163.5,-39 163.5,-69 270.5,-69 270.5,-39 163.5,-39"/>
<text text-anchor="start" x="171.5" y="-57" font-family="Helvetica,sans-Serif" font-size="10.00">TextToTruth::is_valid</text>
<text text-anchor="middle" x="217" y="-46" font-family="Helvetica,sans-Serif" font-size="10.00">_false</text>
</a>
</g>
</g>
<!-- Node1&#45;&gt;Node4 -->
<g id="edge3" class="edge">
<title>Node1&#45;&gt;Node4</title>
<path fill="none" stroke="midnightblue" d="M116.12,-54C128.18,-54 140.96,-54 153.21,-54"/>
<polygon fill="midnightblue" stroke="midnightblue" points="153.35,-57.5 163.35,-54 153.35,-50.5 153.35,-57.5"/>
</g>
<!-- Node5 -->
<g id="node5" class="node">
<title>Node5</title>
<g id="a_node5"><a xlink:href="class_text_to_truth.html#adf83d949a8e11aee0128e3b0f59b525c" target="_top" xlink:title=" ">
<polygon fill="white" stroke="black" points="152,-0.5 152,-19.5 282,-19.5 282,-0.5 152,-0.5"/>
<text text-anchor="middle" x="217" y="-7.5" font-family="Helvetica,sans-Serif" font-size="10.00">TextToTruth::is_valid_true</text>
</a>
</g>
</g>
<!-- Node1&#45;&gt;Node5 -->
<g id="edge4" class="edge">
<title>Node1&#45;&gt;Node5</title>
<path fill="none" stroke="midnightblue" d="M112.59,-38.98C131.93,-33.56 153.52,-27.51 171.94,-22.35"/>
<polygon fill="midnightblue" stroke="midnightblue" points="173.14,-25.65 181.82,-19.58 171.25,-18.91 173.14,-25.65"/>
</g>
<!-- Node3 -->
<g id="node3" class="node">
<title>Node3</title>
<g id="a_node3"><a xlink:href="class_observable.html#a099bf851e05bb8c1a25e83f2a1389e58" target="_top" xlink:title=" ">
<polygon fill="white" stroke="black" points="318,-88.5 318,-107.5 415,-107.5 415,-88.5 318,-88.5"/>
<text text-anchor="middle" x="366.5" y="-95.5" font-family="Helvetica,sans-Serif" font-size="10.00">Observable::notify</text>
</a>
</g>
</g>
<!-- Node2&#45;&gt;Node3 -->
<g id="edge2" class="edge">
<title>Node2&#45;&gt;Node3</title>
<path fill="none" stroke="midnightblue" d="M270,-98C282.19,-98 295.24,-98 307.66,-98"/>
<polygon fill="midnightblue" stroke="midnightblue" points="307.91,-101.5 317.91,-98 307.91,-94.5 307.91,-101.5"/>
</g>
</g>
</svg>
