<?xml version="1.0" encoding="UTF-8" standalone="no"?>
<!DOCTYPE svg PUBLIC "-//W3C//DTD SVG 1.1//EN"
 "http://www.w3.org/Graphics/SVG/1.1/DTD/svg11.dtd">
<!-- Generated by graphviz version 14.1.1 (20251213.1925)
 -->
<!-- Title: sensesp::RepeatConstantRate&lt; T &gt; Pages: 1 -->
<!--zoomable 274 -->

<svg id="main" version="1.1" xmlns="http://www.w3.org/2000/svg" xmlns:xlink="http://www.w3.org/1999/xlink" xml:space="preserve" onload="init(evt)">

<style type="text/css"><![CDATA[
.node, .edge {opacity: 0.7;}
.node.selected, .edge.selected {opacity: 1;}
.edge:hover path { stroke: red; }
.edge:hover polygon { stroke: red; fill: red; }
]]></style>

<defs>
  <circle id="rim" cx="0" cy="0" r="7"/>
  <circle id="rim2" cx="0" cy="0" r="3.5"/>
  <g id="zoomPlus">
    <use xlink:href="#rim" fill="#404040"><set attributeName="fill" to="#808080" begin="zoomplus.mouseover" end="zoomplus.mouseout"/></use>
    <path d="M-4,0h8M0,-4v8" fill="none" stroke="white" stroke-width="1.5" pointer-events="none"/>
  </g>
  <g id="zoomMin">
    <use xlink:href="#rim" fill="#404040"><set attributeName="fill" to="#808080" begin="zoomminus.mouseover" end="zoomminus.mouseout"/></use>
    <path d="M-4,0h8" fill="none" stroke="white" stroke-width="1.5" pointer-events="none"/>
  </g>
  <g id="arrowUp" transform="translate(30 24)">
    <use xlink:href="#rim"/>
    <path pointer-events="none" fill="none" stroke="white" stroke-width="1.5" d="M0,-3.0v7 M-2.5,-0.5L0,-3.0L2.5,-0.5"/>
  </g>
  <g id="arrowRight" transform="rotate(90) translate(36 -43)">
    <use xlink:href="#rim"/>
    <path pointer-events="none" fill="none" stroke="white" stroke-width="1.5" d="M0,-3.0v7 M-2.5,-0.5L0,-3.0L2.5,-0.5"/>
  </g>
  <g id="arrowDown" transform="rotate(180) translate(-30 -48)">
    <use xlink:href="#rim"/>
    <path pointer-events="none" fill="none" stroke="white" stroke-width="1.5" d="M0,-3.0v7 M-2.5,-0.5L0,-3.0L2.5,-0.5"/>
  </g>
  <g id="arrowLeft" transform="rotate(270) translate(-36 17)">
    <use xlink:href="#rim"/>
    <path pointer-events="none" fill="none" stroke="white" stroke-width="1.5" d="M0,-3.0v7 M-2.5,-0.5L0,-3.0L2.5,-0.5"/>
  </g>
  <g id="resetDef">
    <use xlink:href="#rim2" fill="#404040"><set attributeName="fill" to="#808080" begin="reset.mouseover" end="reset.mouseout"/></use>
  </g>
</defs>
<script type="application/ecmascript">
var viewWidth = 1931;
var viewHeight = 274;
var sectionId = 'dynsection-0';
</script>
<script type="application/ecmascript" xlink:href="svg.min.js"/>
<svg id="graph" class="graph">
<g id="viewport">
<title>sensesp::RepeatConstantRate&lt; T &gt;</title>
<!-- Node1 -->
<g id="Node000001" class="node">
<title>Node1</title>
<g id="a_Node000001"><a xlink:title="Repeat transform that emits the last value at a constant interval.">
<polygon fill="#999999" stroke="#666666" points="1922.75,-163.88 1747.75,-163.88 1747.75,-144.62 1922.75,-144.62 1922.75,-163.88"/>
<text xml:space="preserve" text-anchor="middle" x="1835.25" y="-150.38" font-family="Helvetica,sans-Serif" font-size="10.00">sensesp::RepeatConstantRate&lt; T &gt;</text>
</a>
</g>
</g>
<!-- Node2 -->
<g id="Node000002" class="node">
<title>Node2</title>
<g id="a_Node000002"><a xlink:href="classsensesp_1_1_repeat_expiring.html" target="_top" xlink:title="Repeat transform that emits an expired value if the value age exceeds max_age.">
<polygon fill="white" stroke="#666666" points="1710.75,-163.88 1561.25,-163.88 1561.25,-144.62 1710.75,-144.62 1710.75,-163.88"/>
<text xml:space="preserve" text-anchor="middle" x="1636" y="-150.38" font-family="Helvetica,sans-Serif" font-size="10.00">sensesp::RepeatExpiring&lt; T &gt;</text>
</a>
</g>
</g>
<!-- Node2&#45;&gt;Node1 -->
<g id="edge1_Node000001_Node000002" class="edge">
<title>Node2&#45;&gt;Node1</title>
<g id="a_edge1_Node000001_Node000002"><a xlink:title=" ">
<path fill="none" stroke="#63b8ff" d="M1722.31,-154.25C1730.67,-154.25 1739.16,-154.25 1747.53,-154.25"/>
<polygon fill="#63b8ff" stroke="#63b8ff" points="1722.52,-150.75 1712.52,-154.25 1722.52,-157.75 1722.52,-150.75"/>
</a>
</g>
</g>
<!-- Node3 -->
<g id="Node000003" class="node">
<title>Node3</title>
<g id="a_Node000003"><a xlink:href="classsensesp_1_1_repeat.html" target="_top" xlink:title=" ">
<polygon fill="white" stroke="#666666" points="1524.25,-169.5 1417.5,-169.5 1417.5,-139 1524.25,-139 1524.25,-169.5"/>
<text xml:space="preserve" text-anchor="start" x="1425.5" y="-156" font-family="Helvetica,sans-Serif" font-size="10.00">sensesp::Repeat&lt; T,</text>
<text xml:space="preserve" text-anchor="middle" x="1470.88" y="-144.75" font-family="Helvetica,sans-Serif" font-size="10.00"> Nullable&lt; T &gt; &gt;</text>
</a>
</g>
</g>
<!-- Node3&#45;&gt;Node2 -->
<g id="edge2_Node000002_Node000003" class="edge">
<title>Node3&#45;&gt;Node2</title>
<g id="a_edge2_Node000002_Node000003"><a xlink:title=" ">
<path fill="none" stroke="#63b8ff" d="M1535.82,-154.25C1544.05,-154.25 1552.53,-154.25 1560.9,-154.25"/>
<polygon fill="#63b8ff" stroke="#63b8ff" points="1535.9,-150.75 1525.9,-154.25 1535.9,-157.75 1535.9,-150.75"/>
</a>
</g>
</g>
<!-- Node4 -->
<g id="Node000004" class="node">
<title>Node4</title>
<g id="a_Node000004"><a xlink:href="classsensesp_1_1_transform.html" target="_top" xlink:title=" ">
<polygon fill="white" stroke="#666666" points="1119.25,-197.5 1015.5,-197.5 1015.5,-167 1119.25,-167 1119.25,-197.5"/>
<text xml:space="preserve" text-anchor="start" x="1023.5" y="-184" font-family="Helvetica,sans-Serif" font-size="10.00">sensesp::Transform</text>
<text xml:space="preserve" text-anchor="middle" x="1067.38" y="-172.75" font-family="Helvetica,sans-Serif" font-size="10.00">&lt; T, Nullable&lt; T &gt; &gt;</text>
</a>
</g>
</g>
<!-- Node4&#45;&gt;Node3 -->
<g id="edge3_Node000003_Node000004" class="edge">
<title>Node4&#45;&gt;Node3</title>
<g id="a_edge3_Node000003_Node000004"><a xlink:title=" ">
<path fill="none" stroke="#63b8ff" d="M1130.59,-178.97C1197.18,-175.3 1305.88,-168.87 1399.5,-161.25 1405.25,-160.78 1411.26,-160.25 1417.25,-159.69"/>
<polygon fill="#63b8ff" stroke="#63b8ff" points="1130.77,-175.46 1120.98,-179.5 1131.16,-182.44 1130.77,-175.46"/>
</a>
</g>
</g>
<!-- Node5 -->
<g id="Node000005" class="node">
<title>Node5</title>
<g id="a_Node000005"><a xlink:href="classsensesp_1_1_transform_base.html" target="_top" xlink:title="The base class for all transforms. A transforms takes a value in, transforms it in some way,...">
<polygon fill="white" stroke="#666666" points="556.38,-105.88 430.88,-105.88 430.88,-86.62 556.38,-86.62 556.38,-105.88"/>
<text xml:space="preserve" text-anchor="middle" x="493.62" y="-92.38" font-family="Helvetica,sans-Serif" font-size="10.00">sensesp::TransformBase</text>
</a>
</g>
</g>
<!-- Node5&#45;&gt;Node4 -->
<g id="edge4_Node000004_Node000005" class="edge">
<title>Node5&#45;&gt;Node4</title>
<g id="a_edge4_Node000004_Node000005"><a xlink:title=" ">
<path fill="none" stroke="#63b8ff" d="M555.11,-108.62C634.73,-124.51 779.19,-151.96 903.75,-168.25 940.98,-173.12 983.24,-176.7 1015.34,-179.02"/>
<polygon fill="#63b8ff" stroke="#63b8ff" points="555.82,-105.19 545.33,-106.66 554.45,-112.06 555.82,-105.19"/>
</a>
</g>
</g>
<!-- Node13 -->
<g id="Node000013" class="node">
<title>Node13</title>
<g id="a_Node000013"><a xlink:href="classsensesp_1_1_transform.html" target="_top" xlink:title="The main Transform class. A transform is identified primarily by the type of value that is produces (...">
<polygon fill="white" stroke="#666666" points="861.38,-107.5 758.38,-107.5 758.38,-77 861.38,-77 861.38,-107.5"/>
<text xml:space="preserve" text-anchor="start" x="766.38" y="-94" font-family="Helvetica,sans-Serif" font-size="10.00">sensesp::Transform</text>
<text xml:space="preserve" text-anchor="middle" x="809.88" y="-82.75" font-family="Helvetica,sans-Serif" font-size="10.00">&lt; C, P &gt;</text>
</a>
</g>
</g>
<!-- Node5&#45;&gt;Node13 -->
<g id="edge14_Node000013_Node000005" class="edge">
<title>Node5&#45;&gt;Node13</title>
<g id="a_edge14_Node000013_Node000005"><a xlink:title=" ">
<path fill="none" stroke="#63b8ff" d="M568.1,-95.31C626.57,-94.57 706.86,-93.55 758.31,-92.89"/>
<polygon fill="#63b8ff" stroke="#63b8ff" points="568.18,-91.81 558.22,-95.44 568.27,-98.81 568.18,-91.81"/>
</a>
</g>
</g>
<!-- Node18 -->
<g id="Node000018" class="node">
<title>Node18</title>
<g id="a_Node000018"><a xlink:href="classsensesp_1_1_transform.html" target="_top" xlink:title=" ">
<polygon fill="white" stroke="#666666" points="1118.88,-100.5 1015.88,-100.5 1015.88,-70 1118.88,-70 1118.88,-100.5"/>
<text xml:space="preserve" text-anchor="start" x="1023.88" y="-87" font-family="Helvetica,sans-Serif" font-size="10.00">sensesp::Transform</text>
<text xml:space="preserve" text-anchor="middle" x="1067.38" y="-75.75" font-family="Helvetica,sans-Serif" font-size="10.00">&lt; FROM, TO &gt;</text>
</a>
</g>
</g>
<!-- Node5&#45;&gt;Node18 -->
<g id="edge22_Node000018_Node000005" class="edge">
<title>Node5&#45;&gt;Node18</title>
<g id="a_edge22_Node000018_Node000005"><a xlink:title=" ">
<path fill="none" stroke="#63b8ff" d="M567.81,-85.45C615.11,-79.03 678.05,-71.51 734,-68.25 801.33,-64.33 818.38,-65.09 885.75,-68.25 929.64,-70.31 979.33,-75.17 1015.47,-79.17"/>
<polygon fill="#63b8ff" stroke="#63b8ff" points="567.38,-81.98 557.95,-86.81 568.33,-88.91 567.38,-81.98"/>
</a>
</g>
</g>
<!-- Node6 -->
<g id="Node000006" class="node">
<title>Node6</title>
<g id="a_Node000006"><a xlink:href="classsensesp_1_1_file_system_saveable.html" target="_top" xlink:title=" ">
<polygon fill="white" stroke="#666666" points="296.25,-83.88 147.5,-83.88 147.5,-64.62 296.25,-64.62 296.25,-83.88"/>
<text xml:space="preserve" text-anchor="middle" x="221.88" y="-70.38" font-family="Helvetica,sans-Serif" font-size="10.00">sensesp::FileSystemSaveable</text>
</a>
</g>
</g>
<!-- Node6&#45;&gt;Node5 -->
<g id="edge5_Node000005_Node000006" class="edge">
<title>Node6&#45;&gt;Node5</title>
<g id="a_edge5_Node000005_Node000006"><a xlink:title=" ">
<path fill="none" stroke="#63b8ff" d="M307.87,-81.18C347.59,-84.42 394.04,-88.21 430.42,-91.18"/>
<polygon fill="#63b8ff" stroke="#63b8ff" points="308.35,-77.71 298.09,-80.38 307.78,-84.69 308.35,-77.71"/>
</a>
</g>
</g>
<!-- Node7 -->
<g id="Node000007" class="node">
<title>Node7</title>
<g id="a_Node000007"><a xlink:href="classsensesp_1_1_saveable.html" target="_top" xlink:title="Interface for saveable objects.">
<polygon fill="white" stroke="#666666" points="104.12,-90.88 4.88,-90.88 4.88,-71.62 104.12,-71.62 104.12,-90.88"/>
<text xml:space="preserve" text-anchor="middle" x="54.5" y="-77.38" font-family="Helvetica,sans-Serif" font-size="10.00">sensesp::Saveable</text>
</a>
</g>
</g>
<!-- Node7&#45;&gt;Node6 -->
<g id="edge6_Node000006_Node000007" class="edge">
<title>Node7&#45;&gt;Node6</title>
<g id="a_edge6_Node000006_Node000007"><a xlink:title=" ">
<path fill="none" stroke="#63b8ff" d="M115.53,-78.71C125.77,-78.28 136.51,-77.82 147.05,-77.37"/>
<polygon fill="#63b8ff" stroke="#63b8ff" points="115.58,-75.2 105.74,-79.12 115.87,-82.2 115.58,-75.2"/>
</a>
</g>
</g>
<!-- Node8 -->
<g id="Node000008" class="node">
<title>Node8</title>
<g id="a_Node000008"><a xlink:href="classsensesp_1_1_serializable.html" target="_top" xlink:title="Interface for serializable objects.">
<polygon fill="white" stroke="#666666" points="109,-53.88 0,-53.88 0,-34.62 109,-34.62 109,-53.88"/>
<text xml:space="preserve" text-anchor="middle" x="54.5" y="-40.38" font-family="Helvetica,sans-Serif" font-size="10.00">sensesp::Serializable</text>
</a>
</g>
</g>
<!-- Node8&#45;&gt;Node6 -->
<g id="edge7_Node000006_Node000008" class="edge">
<title>Node8&#45;&gt;Node6</title>
<g id="a_edge7_Node000006_Node000008"><a xlink:title=" ">
<path fill="none" stroke="#63b8ff" d="M120.34,-56.01C135.16,-58.7 150.78,-61.53 165.18,-64.15"/>
<polygon fill="#63b8ff" stroke="#63b8ff" points="121.15,-52.6 110.68,-54.26 119.9,-59.49 121.15,-52.6"/>
</a>
</g>
</g>
<!-- Node9 -->
<g id="Node000009" class="node">
<title>Node9</title>
<g id="a_Node000009"><a xlink:href="classsensesp_1_1_value_consumer.html" target="_top" xlink:title="A base class for piece of code (like a transform) that accepts data for input. ValueConsumers can acc...">
<polygon fill="white" stroke="#666666" points="885.75,-258.88 734,-258.88 734,-239.62 885.75,-239.62 885.75,-258.88"/>
<text xml:space="preserve" text-anchor="middle" x="809.88" y="-245.38" font-family="Helvetica,sans-Serif" font-size="10.00">sensesp::ValueConsumer&lt; T &gt;</text>
</a>
</g>
</g>
<!-- Node9&#45;&gt;Node4 -->
<g id="edge8_Node000004_Node000009" class="edge">
<title>Node9&#45;&gt;Node4</title>
<g id="a_edge8_Node000004_Node000009"><a xlink:title=" ">
<path fill="none" stroke="#63b8ff" d="M897.34,-245.89C929.5,-242.65 965.85,-236.55 997.5,-225.25 1015.29,-218.9 1033.33,-207.41 1046.48,-197.91"/>
<polygon fill="#63b8ff" stroke="#63b8ff" points="897.3,-242.38 887.66,-246.79 897.94,-249.35 897.3,-242.38"/>
</a>
</g>
</g>
<!-- Node10 -->
<g id="Node000010" class="node">
<title>Node10</title>
<g id="a_Node000010"><a xlink:href="classsensesp_1_1_value_producer.html" target="_top" xlink:title=" ">
<polygon fill="white" stroke="#666666" points="554.5,-265.5 432.75,-265.5 432.75,-235 554.5,-235 554.5,-265.5"/>
<text xml:space="preserve" text-anchor="start" x="440.75" y="-252" font-family="Helvetica,sans-Serif" font-size="10.00">sensesp::ValueProducer</text>
<text xml:space="preserve" text-anchor="middle" x="493.62" y="-240.75" font-family="Helvetica,sans-Serif" font-size="10.00">&lt; Nullable&lt; T &gt; &gt;</text>
</a>
</g>
</g>
<!-- Node10&#45;&gt;Node4 -->
<g id="edge9_Node000004_Node000010" class="edge">
<title>Node10&#45;&gt;Node4</title>
<g id="a_edge9_Node000004_Node000010"><a xlink:title=" ">
<path fill="none" stroke="#63b8ff" d="M566.07,-244.7C663.81,-236.62 844.55,-219.95 997.5,-196.25 1003.29,-195.35 1009.33,-194.3 1015.32,-193.18"/>
<polygon fill="#63b8ff" stroke="#63b8ff" points="566.04,-241.19 556.36,-245.49 566.61,-248.16 566.04,-241.19"/>
</a>
</g>
</g>
<!-- Node11 -->
<g id="Node000011" class="node">
<title>Node11</title>
<g id="a_Node000011"><a xlink:href="classsensesp_1_1_observable.html" target="_top" xlink:title="A base class which allow observers to attach callbacks to themselves. The callbacks will be called wh...">
<polygon fill="white" stroke="#666666" points="108.62,-202.88 0.38,-202.88 0.38,-183.62 108.62,-183.62 108.62,-202.88"/>
<text xml:space="preserve" text-anchor="middle" x="54.5" y="-189.38" font-family="Helvetica,sans-Serif" font-size="10.00">sensesp::Observable</text>
</a>
</g>
</g>
<!-- Node11&#45;&gt;Node10 -->
<g id="edge10_Node000010_Node000011" class="edge">
<title>Node11&#45;&gt;Node10</title>
<g id="a_edge10_Node000010_Node000011"><a xlink:title=" ">
<path fill="none" stroke="#63b8ff" d="M83.72,-208.5C101.19,-217.32 124.35,-227.89 146,-234.25 254.41,-266.11 286.14,-264.66 399,-259.25 409.85,-258.73 421.38,-257.87 432.5,-256.89"/>
<polygon fill="#63b8ff" stroke="#63b8ff" points="85.47,-205.47 74.98,-203.99 82.26,-211.69 85.47,-205.47"/>
</a>
</g>
</g>
<!-- Node12 -->
<g id="Node000012" class="node">
<title>Node12</title>
<g id="a_Node000012"><a xlink:href="classsensesp_1_1_value_producer.html" target="_top" xlink:title="A base class for any sensor or piece of code that outputs a value for consumption elsewhere.">
<polygon fill="white" stroke="#666666" points="294.75,-224.88 149,-224.88 149,-205.62 294.75,-205.62 294.75,-224.88"/>
<text xml:space="preserve" text-anchor="middle" x="221.88" y="-211.38" font-family="Helvetica,sans-Serif" font-size="10.00">sensesp::ValueProducer&lt; T &gt;</text>
</a>
</g>
</g>
<!-- Node11&#45;&gt;Node12 -->
<g id="edge12_Node000012_Node000011" class="edge">
<title>Node11&#45;&gt;Node12</title>
<g id="a_edge12_Node000012_Node000011"><a xlink:title=" ">
<path fill="none" stroke="#63b8ff" d="M120.02,-201.83C129.44,-203.09 139.19,-204.38 148.75,-205.65"/>
<polygon fill="#63b8ff" stroke="#63b8ff" points="120.61,-198.38 110.24,-200.53 119.69,-205.32 120.61,-198.38"/>
</a>
</g>
</g>
<!-- Node16 -->
<g id="Node000016" class="node">
<title>Node16</title>
<g id="a_Node000016"><a xlink:href="classsensesp_1_1_value_producer.html" target="_top" xlink:title=" ">
<polygon fill="white" stroke="#666666" points="566.88,-149.88 420.38,-149.88 420.38,-130.62 566.88,-130.62 566.88,-149.88"/>
<text xml:space="preserve" text-anchor="middle" x="493.62" y="-136.38" font-family="Helvetica,sans-Serif" font-size="10.00">sensesp::ValueProducer&lt; P &gt;</text>
</a>
</g>
</g>
<!-- Node11&#45;&gt;Node16 -->
<g id="edge18_Node000016_Node000011" class="edge">
<title>Node11&#45;&gt;Node16</title>
<g id="a_edge18_Node000016_Node000011"><a xlink:title=" ">
<path fill="none" stroke="#63b8ff" d="M115.81,-181C168.38,-170.81 246.79,-156.81 315.75,-149.25 349.98,-145.5 388.12,-143.31 420.19,-142.03"/>
<polygon fill="#63b8ff" stroke="#63b8ff" points="115.3,-177.53 106.15,-182.89 116.64,-184.4 115.3,-177.53"/>
</a>
</g>
</g>
<!-- Node20 -->
<g id="Node000020" class="node">
<title>Node20</title>
<g id="a_Node000020"><a xlink:href="classsensesp_1_1_value_producer.html" target="_top" xlink:title=" ">
<polygon fill="white" stroke="#666666" points="554.5,-198.5 432.75,-198.5 432.75,-168 554.5,-168 554.5,-198.5"/>
<text xml:space="preserve" text-anchor="start" x="440.75" y="-185" font-family="Helvetica,sans-Serif" font-size="10.00">sensesp::ValueProducer</text>
<text xml:space="preserve" text-anchor="middle" x="493.62" y="-173.75" font-family="Helvetica,sans-Serif" font-size="10.00">&lt; TO &gt;</text>
</a>
</g>
</g>
<!-- Node11&#45;&gt;Node20 -->
<g id="edge26_Node000020_Node000011" class="edge">
<title>Node11&#45;&gt;Node20</title>
<g id="a_edge26_Node000020_Node000011"><a xlink:title=" ">
<path fill="none" stroke="#63b8ff" d="M120.56,-191.76C204.79,-189.83 350.42,-186.5 432.27,-184.63"/>
<polygon fill="#63b8ff" stroke="#63b8ff" points="120.53,-188.26 110.61,-191.99 120.69,-195.26 120.53,-188.26"/>
</a>
</g>
</g>
<!-- Node12&#45;&gt;Node10 -->
<g id="edge11_Node000010_Node000012" class="edge">
<title>Node12&#45;&gt;Node10</title>
<g id="a_edge11_Node000010_Node000012"><a xlink:title=" ">
<path fill="none" stroke="orange" stroke-dasharray="5,2" d="M306.45,-226.09C347.23,-231.38 395.35,-237.63 432.45,-242.44"/>
<polygon fill="orange" stroke="orange" points="307.03,-222.64 296.66,-224.82 306.13,-229.58 307.03,-222.64"/>
</a>
</g>
<text xml:space="preserve" text-anchor="start" x="318.75" y="-242.68" font-family="Helvetica,sans-Serif" font-size="10.00" fill="grey">&lt; Nullable&lt; T &gt; &gt;</text>
</g>
<!-- Node12&#45;&gt;Node16 -->
<g id="edge19_Node000016_Node000012" class="edge">
<title>Node12&#45;&gt;Node16</title>
<g id="a_edge19_Node000016_Node000012"><a xlink:title=" ">
<path fill="none" stroke="orange" stroke-dasharray="5,2" d="M251.32,-200.12C269.34,-191.08 293.4,-180.04 315.75,-173 349.41,-162.4 387.82,-154.78 420.22,-149.57"/>
<polygon fill="orange" stroke="orange" points="249.86,-196.93 242.55,-204.6 253.05,-203.17 249.86,-196.93"/>
</a>
</g>
<text xml:space="preserve" text-anchor="start" x="345" y="-177.75" font-family="Helvetica,sans-Serif" font-size="10.00" fill="grey">&lt; P &gt;</text>
</g>
<!-- Node12&#45;&gt;Node20 -->
<g id="edge27_Node000020_Node000012" class="edge">
<title>Node12&#45;&gt;Node20</title>
<g id="a_edge27_Node000020_Node000012"><a xlink:title=" ">
<path fill="none" stroke="orange" stroke-dasharray="5,2" d="M306.45,-205.34C347.23,-200.5 395.35,-194.79 432.45,-190.39"/>
<polygon fill="orange" stroke="orange" points="306.18,-201.84 296.67,-206.5 307.01,-208.79 306.18,-201.84"/>
</a>
</g>
<text xml:space="preserve" text-anchor="start" x="341.62" y="-208.74" font-family="Helvetica,sans-Serif" font-size="10.00" fill="grey">&lt; TO &gt;</text>
</g>
<!-- Node13&#45;&gt;Node4 -->
<g id="edge13_Node000004_Node000013" class="edge">
<title>Node13&#45;&gt;Node4</title>
<g id="a_edge13_Node000004_Node000013"><a xlink:title=" ">
<path fill="none" stroke="orange" stroke-dasharray="5,2" d="M872.76,-109.68C909.4,-120.51 956.53,-135.32 997.5,-151 1009.64,-155.65 1022.69,-161.37 1034.13,-166.65"/>
<polygon fill="orange" stroke="orange" points="873.77,-106.33 863.19,-106.88 871.8,-113.05 873.77,-106.33"/>
</a>
</g>
<text xml:space="preserve" text-anchor="start" x="906.75" y="-155.75" font-family="Helvetica,sans-Serif" font-size="10.00" fill="grey">&lt; T, Nullable&lt; T &gt; &gt;</text>
</g>
<!-- Node13&#45;&gt;Node18 -->
<g id="edge28_Node000018_Node000013" class="edge">
<title>Node13&#45;&gt;Node18</title>
<g id="a_edge28_Node000018_Node000013"><a xlink:title=" ">
<path fill="none" stroke="orange" stroke-dasharray="5,2" d="M872.92,-87.53C883.21,-86.91 893.78,-86.36 903.75,-86 941.14,-84.66 983.39,-84.5 1015.45,-84.67"/>
<polygon fill="orange" stroke="orange" points="872.72,-84.04 862.97,-88.17 873.17,-91.03 872.72,-84.04"/>
</a>
</g>
<text xml:space="preserve" text-anchor="start" x="917.25" y="-90.75" font-family="Helvetica,sans-Serif" font-size="10.00" fill="grey">&lt; FROM, TO &gt;</text>
</g>
<!-- Node14 -->
<g id="Node000014" class="node">
<title>Node14</title>
<g id="a_Node000014"><a xlink:href="classsensesp_1_1_value_consumer.html" target="_top" xlink:title=" ">
<polygon fill="white" stroke="#666666" points="570.25,-67.88 417,-67.88 417,-48.62 570.25,-48.62 570.25,-67.88"/>
<text xml:space="preserve" text-anchor="middle" x="493.62" y="-54.38" font-family="Helvetica,sans-Serif" font-size="10.00">sensesp::ValueConsumer&lt; C &gt;</text>
</a>
</g>
</g>
<!-- Node14&#45;&gt;Node13 -->
<g id="edge15_Node000013_Node000014" class="edge">
<title>Node14&#45;&gt;Node13</title>
<g id="a_edge15_Node000013_Node000014"><a xlink:title=" ">
<path fill="none" stroke="#63b8ff" d="M581.82,-67.68C638.53,-73.82 710.5,-81.61 758.04,-86.75"/>
<polygon fill="#63b8ff" stroke="#63b8ff" points="582.52,-64.24 572.2,-66.64 581.77,-71.2 582.52,-64.24"/>
</a>
</g>
</g>
<!-- Node15 -->
<g id="Node000015" class="node">
<title>Node15</title>
<g id="a_Node000015"><a xlink:href="classsensesp_1_1_value_consumer.html" target="_top" xlink:title="A base class for piece of code (like a transform) that accepts data for input. ValueConsumers can acc...">
<polygon fill="white" stroke="#666666" points="297.75,-35.88 146,-35.88 146,-16.62 297.75,-16.62 297.75,-35.88"/>
<text xml:space="preserve" text-anchor="middle" x="221.88" y="-22.38" font-family="Helvetica,sans-Serif" font-size="10.00">sensesp::ValueConsumer&lt; T &gt;</text>
</a>
</g>
</g>
<!-- Node15&#45;&gt;Node14 -->
<g id="edge16_Node000014_Node000015" class="edge">
<title>Node15&#45;&gt;Node14</title>
<g id="a_edge16_Node000014_Node000015"><a xlink:title=" ">
<path fill="none" stroke="orange" stroke-dasharray="5,2" d="M309.09,-36.48C343.77,-40.59 383.41,-45.29 416.95,-49.27"/>
<polygon fill="orange" stroke="orange" points="309.86,-33.04 299.52,-35.34 309.04,-40 309.86,-33.04"/>
</a>
</g>
<text xml:space="preserve" text-anchor="start" x="344.62" y="-51.74" font-family="Helvetica,sans-Serif" font-size="10.00" fill="grey">&lt; C &gt;</text>
</g>
<!-- Node19 -->
<g id="Node000019" class="node">
<title>Node19</title>
<g id="a_Node000019"><a xlink:href="classsensesp_1_1_value_consumer.html" target="_top" xlink:title=" ">
<polygon fill="white" stroke="#666666" points="716,-30.5 588.25,-30.5 588.25,0 716,0 716,-30.5"/>
<text xml:space="preserve" text-anchor="start" x="596.25" y="-17" font-family="Helvetica,sans-Serif" font-size="10.00">sensesp::ValueConsumer</text>
<text xml:space="preserve" text-anchor="middle" x="652.12" y="-5.75" font-family="Helvetica,sans-Serif" font-size="10.00">&lt; FROM &gt;</text>
</a>
</g>
</g>
<!-- Node15&#45;&gt;Node19 -->
<g id="edge24_Node000019_Node000015" class="edge">
<title>Node15&#45;&gt;Node19</title>
<g id="a_edge24_Node000019_Node000015"><a xlink:title=" ">
<path fill="none" stroke="orange" stroke-dasharray="5,2" d="M309.48,-16.39C311.59,-16.25 313.68,-16.12 315.75,-16 410.51,-10.68 520.56,-11.83 588.02,-13.37"/>
<polygon fill="orange" stroke="orange" points="309.31,-12.89 299.6,-17.14 309.84,-19.87 309.31,-12.89"/>
</a>
</g>
<text xml:space="preserve" text-anchor="start" x="333.75" y="-20.75" font-family="Helvetica,sans-Serif" font-size="10.00" fill="grey">&lt; FROM &gt;</text>
</g>
<!-- Node16&#45;&gt;Node13 -->
<g id="edge17_Node000013_Node000016" class="edge">
<title>Node16&#45;&gt;Node13</title>
<g id="a_edge17_Node000013_Node000016"><a xlink:title=" ">
<path fill="none" stroke="#63b8ff" d="M578.39,-128.69C619.83,-122.83 670.59,-115.44 716,-108.25 729.74,-106.07 744.59,-103.58 758.3,-101.22"/>
<polygon fill="#63b8ff" stroke="#63b8ff" points="578.15,-125.19 568.73,-130.05 579.12,-132.12 578.15,-125.19"/>
</a>
</g>
</g>
<!-- Node17 -->
<g id="Node000017" class="node">
<title>Node17</title>
<g id="a_Node000017"><a xlink:href="classsensesp_1_1_repeat.html" target="_top" xlink:title="Repeat the input at specific intervals.">
<polygon fill="white" stroke="#666666" points="1287.75,-140.5 1156.25,-140.5 1156.25,-110 1287.75,-110 1287.75,-140.5"/>
<text xml:space="preserve" text-anchor="start" x="1164.25" y="-127" font-family="Helvetica,sans-Serif" font-size="10.00">sensesp::Repeat&lt; FROM,</text>
<text xml:space="preserve" text-anchor="middle" x="1222" y="-115.75" font-family="Helvetica,sans-Serif" font-size="10.00"> TO &gt;</text>
</a>
</g>
</g>
<!-- Node17&#45;&gt;Node3 -->
<g id="edge20_Node000003_Node000017" class="edge">
<title>Node17&#45;&gt;Node3</title>
<g id="a_edge20_Node000003_Node000017"><a xlink:title=" ">
<path fill="none" stroke="orange" stroke-dasharray="5,2" d="M1299.25,-132.7C1330.37,-135.91 1366.69,-139.87 1399.5,-144 1405.26,-144.72 1411.27,-145.53 1417.26,-146.36"/>
<polygon fill="orange" stroke="orange" points="1299.84,-129.24 1289.54,-131.7 1299.13,-136.2 1299.84,-129.24"/>
</a>
</g>
<text xml:space="preserve" text-anchor="start" x="1308.75" y="-148.75" font-family="Helvetica,sans-Serif" font-size="10.00" fill="grey">&lt; T, Nullable&lt; T &gt; &gt;</text>
</g>
<!-- Node18&#45;&gt;Node17 -->
<g id="edge21_Node000017_Node000018" class="edge">
<title>Node18&#45;&gt;Node17</title>
<g id="a_edge21_Node000017_Node000018"><a xlink:title=" ">
<path fill="none" stroke="#63b8ff" d="M1130.12,-101.43C1140.36,-104.12 1150.96,-106.89 1161.14,-109.56"/>
<polygon fill="#63b8ff" stroke="#63b8ff" points="1131.22,-98.1 1120.66,-98.95 1129.45,-104.87 1131.22,-98.1"/>
</a>
</g>
</g>
<!-- Node19&#45;&gt;Node18 -->
<g id="edge23_Node000018_Node000019" class="edge">
<title>Node19&#45;&gt;Node18</title>
<g id="a_edge23_Node000018_Node000019"><a xlink:title=" ">
<path fill="none" stroke="#63b8ff" d="M727.62,-7.75C799.02,-3.27 908.76,-3.56 997.5,-35.25 1017.82,-42.5 1037.36,-57.75 1050.41,-69.51"/>
<polygon fill="#63b8ff" stroke="#63b8ff" points="727.74,-4.24 718,-8.41 728.22,-11.22 727.74,-4.24"/>
</a>
</g>
</g>
<!-- Node20&#45;&gt;Node18 -->
<g id="edge25_Node000018_Node000020" class="edge">
<title>Node20&#45;&gt;Node18</title>
<g id="a_edge25_Node000018_Node000020"><a xlink:title=" ">
<path fill="none" stroke="#63b8ff" d="M565.84,-190.85C666.22,-198.67 853.18,-202.51 997.5,-143.25 1019.91,-134.05 1040.44,-114.73 1053.14,-100.91"/>
<polygon fill="#63b8ff" stroke="#63b8ff" points="566.39,-187.38 556.13,-190.05 565.82,-194.36 566.39,-187.38"/>
</a>
</g>
</g>
</g>
</svg>

<g id="navigator" transform="translate(0 0)" fill="#404254">
  <rect fill="#f2f5e9" fill-opacity="0.5" stroke="#606060" stroke-width=".5" x="0" y="0" width="60" height="60"/>
  <use id="zoomplus" xlink:href="#zoomPlus" x="17" y="9" onmousedown="handleZoom(evt,'in')"/>
  <use id="zoomminus" xlink:href="#zoomMin" x="42" y="9" onmousedown="handleZoom(evt,'out')"/>
  <use id="reset" xlink:href="#resetDef" x="30" y="36" onmousedown="handleReset()"/>
   <use id="arrowup" xlink:href="#arrowUp" x="0" y="0" onmousedown="handlePan(0,-1)"/>
  <use id="arrowright" xlink:href="#arrowRight" x="0" y="0" onmousedown="handlePan(1,0)"/>
  <use id="arrowdown" xlink:href="#arrowDown" x="0" y="0" onmousedown="handlePan(0,1)"/>
  <use id="arrowleft" xlink:href="#arrowLeft" x="0" y="0" onmousedown="handlePan(-1,0)"/>
</g>
<svg viewBox="0 0 15 15" width="100%" height="30px" preserveAspectRatio="xMaxYMin meet">
 <g id="arrow_out" transform="scale(0.3 0.3)">
  <a xlink:href="classsensesp_1_1_repeat_constant_rate__inherit__graph_org.svg" target="_base">
   <rect id="button" ry="5" rx="5" y="6" x="6" height="38" width="38"
        fill="#f2f5e9" fill-opacity="0.5" stroke="#606060" stroke-width="1.0"/>
   <path id="arrow"
     d="M 11.500037,31.436501 C 11.940474,20.09759 22.043105,11.32322 32.158766,21.979434 L 37.068811,17.246167 C 37.068811,17.246167 37.088388,32 37.088388,32 L 22.160133,31.978069 C 22.160133,31.978069 26.997745,27.140456 26.997745,27.140456 C 18.528582,18.264221 13.291696,25.230495 11.500037,31.436501 z"
     style="fill:#404040;"/>
  </a>
 </g>
</svg>

<style type='text/css'>
<![CDATA[
[data-mouse-over-selected='false'] { opacity: 0.7; }
[data-mouse-over-selected='true']  { opacity: 1.0; }
]]>
</style>
<script type="application/ecmascript"><![CDATA[
document.addEventListener('DOMContentLoaded', (event) => {
  highlightEdges();
  highlightAdjacentNodes();
});
]]></script>
</svg>
