<?xml version="1.0" encoding="UTF-8" standalone="no"?>
<!DOCTYPE svg PUBLIC "-//W3C//DTD SVG 1.1//EN"
 "http://www.w3.org/Graphics/SVG/1.1/DTD/svg11.dtd">
<!-- Generated by graphviz version 7.1.0 (20230121.1956)
 -->
<!-- Title: sensesp::DigitalInputCounter Pages: 1 -->
<svg width="1170pt" height="141pt"
 viewBox="0.00 0.00 1170.00 141.00" xmlns="http://www.w3.org/2000/svg" xmlns:xlink="http://www.w3.org/1999/xlink">
<g id="graph0" class="graph" transform="scale(1 1) rotate(0) translate(4 137)">
<title>sensesp::DigitalInputCounter</title>
<!-- Node1 -->
<g id="node1" class="node">
<title>Node1</title>
<g id="a_node1"><a xlink:title="DigitalInputCounter counts interrupts and reports the count every read_delay ms.">
<polygon fill="#999999" stroke="#666666" points="972,-82 829,-82 829,-63 972,-63 972,-82"/>
<text text-anchor="middle" x="900.5" y="-70" font-family="Helvetica,sans-Serif" font-size="10.00">sensesp::DigitalInputCounter</text>
</a>
</g>
</g>
<!-- Node11 -->
<g id="node11" class="node">
<title>Node11</title>
<g id="a_node11"><a xlink:href="classsensesp_1_1_digital_input_debounce_counter.html" target="_top" xlink:title="DigitalInputDebounceCounter counts interrupts and reports the count every read_delay ms,...">
<polygon fill="white" stroke="#666666" points="1162,-87.5 1009,-87.5 1009,-57.5 1162,-57.5 1162,-87.5"/>
<text text-anchor="start" x="1017" y="-75.5" font-family="Helvetica,sans-Serif" font-size="10.00">sensesp::DigitalInputDebounce</text>
<text text-anchor="middle" x="1085.5" y="-64.5" font-family="Helvetica,sans-Serif" font-size="10.00">Counter</text>
</a>
</g>
</g>
<!-- Node1&#45;&gt;Node11 -->
<g id="edge13" class="edge">
<title>Node1&#45;&gt;Node11</title>
<path fill="none" stroke="#63b8ff" d="M983.59,-72.5C991.98,-72.5 1000.47,-72.5 1008.78,-72.5"/>
<polygon fill="#63b8ff" stroke="#63b8ff" points="983.77,-69 973.77,-72.5 983.77,-76 983.77,-69"/>
</g>
<!-- Node2 -->
<g id="node2" class="node">
<title>Node2</title>
<g id="a_node2"><a xlink:href="classsensesp_1_1_digital_input.html" target="_top" xlink:title="DigitalInput is the base class for reading a digital GPIO pin.">
<polygon fill="white" stroke="#666666" points="784,-101 675,-101 675,-82 784,-82 784,-101"/>
<text text-anchor="middle" x="729.5" y="-89" font-family="Helvetica,sans-Serif" font-size="10.00">sensesp::DigitalInput</text>
</a>
</g>
</g>
<!-- Node2&#45;&gt;Node1 -->
<g id="edge1" class="edge">
<title>Node2&#45;&gt;Node1</title>
<path fill="none" stroke="#63b8ff" d="M795.57,-84.18C806.45,-82.96 817.78,-81.69 828.79,-80.45"/>
<polygon fill="#63b8ff" stroke="#63b8ff" points="795.49,-80.67 785.94,-85.27 796.27,-87.63 795.49,-80.67"/>
</g>
<!-- Node3 -->
<g id="node3" class="node">
<title>Node3</title>
<g id="a_node3"><a xlink:href="classsensesp_1_1_sensor_t.html" target="_top" xlink:title=" ">
<polygon fill="white" stroke="#666666" points="792,-64 667,-64 667,-45 792,-45 792,-64"/>
<text text-anchor="middle" x="729.5" y="-52" font-family="Helvetica,sans-Serif" font-size="10.00">sensesp::SensorT&lt; int &gt;</text>
</a>
</g>
</g>
<!-- Node3&#45;&gt;Node1 -->
<g id="edge2" class="edge">
<title>Node3&#45;&gt;Node1</title>
<path fill="none" stroke="#63b8ff" d="M803.66,-62.29C811.96,-63.18 820.41,-64.08 828.68,-64.96"/>
<polygon fill="#63b8ff" stroke="#63b8ff" points="804.29,-58.84 793.97,-61.26 803.55,-65.8 804.29,-58.84"/>
</g>
<!-- Node4 -->
<g id="node4" class="node">
<title>Node4</title>
<g id="a_node4"><a xlink:href="classsensesp_1_1_sensor.html" target="_top" xlink:title="The base class for all sensors. Used only as a base class &#45; never instantiated directly in a project.">
<polygon fill="white" stroke="#666666" points="269,-96 179,-96 179,-77 269,-77 269,-96"/>
<text text-anchor="middle" x="224" y="-84" font-family="Helvetica,sans-Serif" font-size="10.00">sensesp::Sensor</text>
</a>
</g>
</g>
<!-- Node4&#45;&gt;Node3 -->
<g id="edge3" class="edge">
<title>Node4&#45;&gt;Node3</title>
<path fill="none" stroke="#63b8ff" d="M280.72,-85.18C328.55,-83.96 399.33,-81.98 461,-79.5 522.36,-77.03 537.68,-75.89 599,-72.5 621.23,-71.27 626.91,-72.24 649,-69.5 659.45,-68.21 670.61,-66.38 681.15,-64.45"/>
<polygon fill="#63b8ff" stroke="#63b8ff" points="280.8,-81.67 270.89,-85.42 280.97,-88.67 280.8,-81.67"/>
</g>
<!-- Node9 -->
<g id="node9" class="node">
<title>Node9</title>
<g id="a_node9"><a xlink:href="classsensesp_1_1_sensor_t.html" target="_top" xlink:title="Sensor template class for any sensor producing actual values.">
<polygon fill="white" stroke="#666666" points="599,-64 479,-64 479,-45 599,-45 599,-64"/>
<text text-anchor="middle" x="539" y="-52" font-family="Helvetica,sans-Serif" font-size="10.00">sensesp::SensorT&lt; T &gt;</text>
</a>
</g>
</g>
<!-- Node4&#45;&gt;Node9 -->
<g id="edge10" class="edge">
<title>Node4&#45;&gt;Node9</title>
<path fill="none" stroke="#63b8ff" d="M280.58,-80.82C336.23,-75.13 421.55,-66.41 478.53,-60.58"/>
<polygon fill="#63b8ff" stroke="#63b8ff" points="280.28,-77.33 270.69,-81.83 280.99,-84.29 280.28,-77.33"/>
</g>
<!-- Node5 -->
<g id="node5" class="node">
<title>Node5</title>
<g id="a_node5"><a xlink:href="classsensesp_1_1_observable.html" target="_top" xlink:title="A base class which allow observers to attach callbacks to themselves. The callbacks will be called wh...">
<polygon fill="white" stroke="#666666" points="111.5,-46 2.5,-46 2.5,-27 111.5,-27 111.5,-46"/>
<text text-anchor="middle" x="57" y="-34" font-family="Helvetica,sans-Serif" font-size="10.00">sensesp::Observable</text>
</a>
</g>
</g>
<!-- Node5&#45;&gt;Node4 -->
<g id="edge4" class="edge">
<title>Node5&#45;&gt;Node4</title>
<path fill="none" stroke="#63b8ff" d="M101.96,-49.82C129.64,-58.21 164.79,-68.86 190.06,-76.52"/>
<polygon fill="#63b8ff" stroke="#63b8ff" points="103.03,-46.49 92.44,-46.94 101,-53.19 103.03,-46.49"/>
</g>
<!-- Node8 -->
<g id="node8" class="node">
<title>Node8</title>
<g id="a_node8"><a xlink:href="classsensesp_1_1_value_producer.html" target="_top" xlink:title="A base class for any sensor or piece of code that outputs a value for consumption elsewhere.">
<polygon fill="white" stroke="#666666" points="461,-19 315,-19 315,0 461,0 461,-19"/>
<text text-anchor="middle" x="388" y="-7" font-family="Helvetica,sans-Serif" font-size="10.00">sensesp::ValueProducer&lt; T &gt;</text>
</a>
</g>
</g>
<!-- Node5&#45;&gt;Node8 -->
<g id="edge8" class="edge">
<title>Node5&#45;&gt;Node8</title>
<path fill="none" stroke="#63b8ff" d="M122.91,-28.4C132.33,-27.35 141.91,-26.35 151,-25.5 205.79,-20.41 267.88,-16.26 314.62,-13.47"/>
<polygon fill="#63b8ff" stroke="#63b8ff" points="122.6,-24.91 113.06,-29.53 123.39,-31.87 122.6,-24.91"/>
</g>
<!-- Node10 -->
<g id="node10" class="node">
<title>Node10</title>
<g id="a_node10"><a xlink:href="classsensesp_1_1_value_producer.html" target="_top" xlink:title="A base class for any sensor or piece of code that outputs a value for consumption elsewhere.">
<polygon fill="white" stroke="#666666" points="297,-54 151,-54 151,-35 297,-35 297,-54"/>
<text text-anchor="middle" x="224" y="-42" font-family="Helvetica,sans-Serif" font-size="10.00">sensesp::ValueProducer&lt; T &gt;</text>
</a>
</g>
</g>
<!-- Node5&#45;&gt;Node10 -->
<g id="edge12" class="edge">
<title>Node5&#45;&gt;Node10</title>
<path fill="none" stroke="#63b8ff" d="M122.95,-39.65C132.09,-40.09 141.53,-40.55 150.79,-41"/>
<polygon fill="#63b8ff" stroke="#63b8ff" points="123.24,-36.16 113.08,-39.17 122.9,-43.15 123.24,-36.16"/>
</g>
<!-- Node6 -->
<g id="node6" class="node">
<title>Node6</title>
<g id="a_node6"><a xlink:href="classsensesp_1_1_configurable.html" target="_top" xlink:title="An object that is capable of having configuration data that can be set remotely using a RESTful API,...">
<polygon fill="white" stroke="#666666" points="114,-96 0,-96 0,-77 114,-77 114,-96"/>
<text text-anchor="middle" x="57" y="-84" font-family="Helvetica,sans-Serif" font-size="10.00">sensesp::Configurable</text>
</a>
</g>
</g>
<!-- Node6&#45;&gt;Node4 -->
<g id="edge5" class="edge">
<title>Node6&#45;&gt;Node4</title>
<path fill="none" stroke="#63b8ff" d="M125.6,-86.5C143.48,-86.5 162.34,-86.5 178.64,-86.5"/>
<polygon fill="#63b8ff" stroke="#63b8ff" points="125.84,-83 115.84,-86.5 125.84,-90 125.84,-83"/>
</g>
<!-- Node7 -->
<g id="node7" class="node">
<title>Node7</title>
<g id="a_node7"><a xlink:href="classsensesp_1_1_startable.html" target="_top" xlink:title="Automatic calling of the start() method at startup.">
<polygon fill="white" stroke="#666666" points="106,-133 8,-133 8,-114 106,-114 106,-133"/>
<text text-anchor="middle" x="57" y="-121" font-family="Helvetica,sans-Serif" font-size="10.00">sensesp::Startable</text>
</a>
</g>
</g>
<!-- Node7&#45;&gt;Node4 -->
<g id="edge6" class="edge">
<title>Node7&#45;&gt;Node4</title>
<path fill="none" stroke="#63b8ff" d="M113.37,-111.08C134.63,-106.32 158.58,-100.95 178.66,-96.44"/>
<polygon fill="#63b8ff" stroke="#63b8ff" points="112.69,-107.65 103.69,-113.25 114.22,-114.48 112.69,-107.65"/>
</g>
<!-- Node8&#45;&gt;Node3 -->
<g id="edge7" class="edge">
<title>Node8&#45;&gt;Node3</title>
<path fill="none" stroke="#63b8ff" d="M472.62,-19.42C511.13,-24.09 557.42,-29.88 599,-35.5 621.07,-38.48 645.22,-41.97 666.62,-45.13"/>
<polygon fill="#63b8ff" stroke="#63b8ff" points="473.31,-15.97 462.96,-18.25 472.47,-22.92 473.31,-15.97"/>
</g>
<!-- Node9&#45;&gt;Node3 -->
<g id="edge9" class="edge">
<title>Node9&#45;&gt;Node3</title>
<path fill="none" stroke="orange" stroke-dasharray="5,2" d="M610.68,-54.5C629.13,-54.5 648.87,-54.5 666.81,-54.5"/>
<polygon fill="orange" stroke="orange" points="610.9,-51 600.9,-54.5 610.9,-58 610.9,-51"/>
<text text-anchor="middle" x="633" y="-57.5" font-family="Helvetica,sans-Serif" font-size="10.00"> &lt; int &gt;</text>
</g>
<!-- Node10&#45;&gt;Node9 -->
<g id="edge11" class="edge">
<title>Node10&#45;&gt;Node9</title>
<path fill="none" stroke="#63b8ff" d="M308.42,-47.17C362.11,-48.88 430.6,-51.07 478.75,-52.61"/>
<polygon fill="#63b8ff" stroke="#63b8ff" points="308.82,-43.68 298.71,-46.86 308.6,-50.67 308.82,-43.68"/>
</g>
</g>
</svg>
