<?xml version="1.0" encoding="UTF-8" standalone="no"?>
<!DOCTYPE svg PUBLIC "-//W3C//DTD SVG 1.1//EN"
 "http://www.w3.org/Graphics/SVG/1.1/DTD/svg11.dtd">
<!-- Generated by graphviz version 5.0.0 (20220707.1540)
 -->
<!-- Title: sensesp::SensESPAppBuilder::set_hostname Pages: 1 -->
<svg width="979pt" height="39pt"
 viewBox="0.00 0.00 979.00 39.00" xmlns="http://www.w3.org/2000/svg" xmlns:xlink="http://www.w3.org/1999/xlink">
<g id="graph0" class="graph" transform="scale(1 1) rotate(0) translate(4 35)">
<title>sensesp::SensESPAppBuilder::set_hostname</title>
<polygon fill="white" stroke="transparent" points="-4,4 -4,-35 975,-35 975,4 -4,4"/>
<!-- Node1 -->
<g id="node1" class="node">
<title>Node1</title>
<g id="a_node1"><a xlink:title="Set the device hostname.">
<polygon fill="#bfbfbf" stroke="black" points="0,-0.5 0,-30.5 148,-30.5 148,-0.5 0,-0.5"/>
<text text-anchor="start" x="8" y="-18.5" font-family="Helvetica,sans-Serif" font-size="10.00">sensesp::SensESPAppBuilder</text>
<text text-anchor="middle" x="74" y="-7.5" font-family="Helvetica,sans-Serif" font-size="10.00">::set_hostname</text>
</a>
</g>
</g>
<!-- Node2 -->
<g id="node2" class="node">
<title>Node2</title>
<g id="a_node2"><a xlink:href="classsensesp_1_1_sens_e_s_p_app.html#a1596cc43fd096207872708add2d96b34" target="_top" xlink:title=" ">
<polygon fill="white" stroke="black" points="184,-0.5 184,-30.5 302,-30.5 302,-0.5 184,-0.5"/>
<text text-anchor="start" x="192" y="-18.5" font-family="Helvetica,sans-Serif" font-size="10.00">sensesp::SensESPApp</text>
<text text-anchor="middle" x="243" y="-7.5" font-family="Helvetica,sans-Serif" font-size="10.00">::set_hostname</text>
</a>
</g>
</g>
<!-- Node1&#45;&gt;Node2 -->
<g id="edge1" class="edge">
<title>Node1&#45;&gt;Node2</title>
<path fill="none" stroke="midnightblue" d="M148.25,-15.5C156.72,-15.5 165.34,-15.5 173.74,-15.5"/>
<polygon fill="midnightblue" stroke="midnightblue" points="173.86,-19 183.86,-15.5 173.86,-12 173.86,-19"/>
</g>
<!-- Node3 -->
<g id="node3" class="node">
<title>Node3</title>
<g id="a_node3"><a xlink:href="classsensesp_1_1_sens_e_s_p_base_app.html#a6480199c42124d844eadd89d6fac5c60" target="_top" xlink:title=" ">
<polygon fill="white" stroke="black" points="338,-0.5 338,-30.5 480,-30.5 480,-0.5 338,-0.5"/>
<text text-anchor="start" x="346" y="-18.5" font-family="Helvetica,sans-Serif" font-size="10.00">sensesp::SensESPBaseApp</text>
<text text-anchor="middle" x="409" y="-7.5" font-family="Helvetica,sans-Serif" font-size="10.00">::set_hostname</text>
</a>
</g>
</g>
<!-- Node2&#45;&gt;Node3 -->
<g id="edge2" class="edge">
<title>Node2&#45;&gt;Node3</title>
<path fill="none" stroke="midnightblue" d="M302.28,-15.5C310.55,-15.5 319.18,-15.5 327.78,-15.5"/>
<polygon fill="midnightblue" stroke="midnightblue" points="327.83,-19 337.83,-15.5 327.83,-12 327.83,-19"/>
</g>
<!-- Node4 -->
<g id="node4" class="node">
<title>Node4</title>
<g id="a_node4"><a xlink:href="classsensesp_1_1_observable_value.html#afa3fd1d165f7097cd4021e6a7b6a7c70" target="_top" xlink:title=" ">
<polygon fill="white" stroke="black" points="516,-6 516,-25 668,-25 668,-6 516,-6"/>
<text text-anchor="middle" x="592" y="-13" font-family="Helvetica,sans-Serif" font-size="10.00">sensesp::ObservableValue::set</text>
</a>
</g>
</g>
<!-- Node3&#45;&gt;Node4 -->
<g id="edge3" class="edge">
<title>Node3&#45;&gt;Node4</title>
<path fill="none" stroke="midnightblue" d="M480.24,-15.5C488.5,-15.5 497.01,-15.5 505.45,-15.5"/>
<polygon fill="midnightblue" stroke="midnightblue" points="505.71,-19 515.71,-15.5 505.71,-12 505.71,-19"/>
</g>
<!-- Node5 -->
<g id="node5" class="node">
<title>Node5</title>
<g id="a_node5"><a xlink:href="classsensesp_1_1_value_producer.html#ae34225039d68b6f0e786266e76c2dace" target="_top" xlink:title=" ">
<polygon fill="white" stroke="black" points="704,-0.5 704,-30.5 826,-30.5 826,-0.5 704,-0.5"/>
<text text-anchor="start" x="712" y="-18.5" font-family="Helvetica,sans-Serif" font-size="10.00">sensesp::ValueProducer</text>
<text text-anchor="middle" x="765" y="-7.5" font-family="Helvetica,sans-Serif" font-size="10.00">::emit</text>
</a>
</g>
</g>
<!-- Node4&#45;&gt;Node5 -->
<g id="edge4" class="edge">
<title>Node4&#45;&gt;Node5</title>
<path fill="none" stroke="midnightblue" d="M668,-15.5C676.55,-15.5 685.24,-15.5 693.73,-15.5"/>
<polygon fill="midnightblue" stroke="midnightblue" points="693.95,-19 703.95,-15.5 693.95,-12 693.95,-19"/>
</g>
<!-- Node6 -->
<g id="node6" class="node">
<title>Node6</title>
<g id="a_node6"><a xlink:href="classsensesp_1_1_observable.html#ab86d00fed8fb85b4c76cb9397667ece9" target="_top" xlink:title=" ">
<polygon fill="white" stroke="black" points="862,-0.5 862,-30.5 971,-30.5 971,-0.5 862,-0.5"/>
<text text-anchor="start" x="870" y="-18.5" font-family="Helvetica,sans-Serif" font-size="10.00">sensesp::Observable</text>
<text text-anchor="middle" x="916.5" y="-7.5" font-family="Helvetica,sans-Serif" font-size="10.00">::notify</text>
</a>
</g>
</g>
<!-- Node5&#45;&gt;Node6 -->
<g id="edge5" class="edge">
<title>Node5&#45;&gt;Node6</title>
<path fill="none" stroke="midnightblue" d="M826.38,-15.5C834.67,-15.5 843.21,-15.5 851.57,-15.5"/>
<polygon fill="midnightblue" stroke="midnightblue" points="851.65,-19 861.65,-15.5 851.65,-12 851.65,-19"/>
</g>
</g>
</svg>
