<?xml version="1.0" encoding="UTF-8" standalone="no"?>
<!DOCTYPE svg PUBLIC "-//W3C//DTD SVG 1.1//EN"
 "http://www.w3.org/Graphics/SVG/1.1/DTD/svg11.dtd">
<!-- Generated by graphviz version 14.1.1 (20251213.1925)
 -->
<!-- Title: sensesp::Observable::attach Pages: 1 -->
<svg width="280pt" height="137pt"
 viewBox="0.00 0.00 280.00 137.00" xmlns="http://www.w3.org/2000/svg" xmlns:xlink="http://www.w3.org/1999/xlink">
<g id="graph0" class="graph" transform="scale(1 1) rotate(0) translate(4 132.5)">
<title>sensesp::Observable::attach</title>
<!-- Node1 -->
<g id="Node000001" class="node">
<title>Node1</title>
<g id="a_Node000001"><a xlink:title=" ">
<polygon fill="#999999" stroke="#666666" points="272,-79.5 163.75,-79.5 163.75,-49 272,-49 272,-79.5"/>
<text xml:space="preserve" text-anchor="start" x="171.75" y="-66" font-family="Helvetica,sans-Serif" font-size="10.00">sensesp::Observable</text>
<text xml:space="preserve" text-anchor="middle" x="217.88" y="-54.75" font-family="Helvetica,sans-Serif" font-size="10.00">::attach</text>
</a>
</g>
</g>
<!-- Node2 -->
<g id="Node000002" class="node">
<title>Node2</title>
<g id="a_Node000002"><a xlink:href="classsensesp_1_1_value_consumer.html#a0ba0070e4ca20d5c94de39828ce08cab" target="_top" xlink:title=" ">
<polygon fill="white" stroke="#666666" points="127.75,-128.5 0,-128.5 0,-98 127.75,-98 127.75,-128.5"/>
<text xml:space="preserve" text-anchor="start" x="8" y="-115" font-family="Helvetica,sans-Serif" font-size="10.00">sensesp::ValueConsumer</text>
<text xml:space="preserve" text-anchor="middle" x="63.88" y="-103.75" font-family="Helvetica,sans-Serif" font-size="10.00">&lt; float &gt;::connect_from</text>
</a>
</g>
</g>
<!-- Node1&#45;&gt;Node2 -->
<g id="edge1_Node000001_Node000002" class="edge">
<title>Node1&#45;&gt;Node2</title>
<g id="a_edge1_Node000001_Node000002"><a xlink:title=" ">
<path fill="none" stroke="#63b8ff" d="M157.48,-83.4C142.99,-88.07 127.65,-93.01 113.71,-97.51"/>
<polygon fill="#63b8ff" stroke="#63b8ff" points="158.48,-86.75 166.92,-80.35 156.33,-80.09 158.48,-86.75"/>
</a>
</g>
</g>
<!-- Node3 -->
<g id="Node000003" class="node">
<title>Node3</title>
<g id="a_Node000003"><a xlink:href="classsensesp_1_1_value_producer.html#aa8eadde061d78ef178ee500ca3069068" target="_top" xlink:title=" ">
<polygon fill="white" stroke="#666666" points="124.75,-79.5 3,-79.5 3,-49 124.75,-49 124.75,-79.5"/>
<text xml:space="preserve" text-anchor="start" x="11" y="-66" font-family="Helvetica,sans-Serif" font-size="10.00">sensesp::ValueProducer</text>
<text xml:space="preserve" text-anchor="middle" x="63.88" y="-54.75" font-family="Helvetica,sans-Serif" font-size="10.00">&lt; float &gt;::connect_to</text>
</a>
</g>
</g>
<!-- Node1&#45;&gt;Node3 -->
<g id="edge2_Node000001_Node000003" class="edge">
<title>Node1&#45;&gt;Node3</title>
<g id="a_edge2_Node000001_Node000003"><a xlink:title=" ">
<path fill="none" stroke="#63b8ff" d="M151.84,-64.25C143.01,-64.25 133.98,-64.25 125.24,-64.25"/>
<polygon fill="#63b8ff" stroke="#63b8ff" points="151.77,-67.75 161.77,-64.25 151.77,-60.75 151.77,-67.75"/>
</a>
</g>
</g>
<!-- Node4 -->
<g id="Node000004" class="node">
<title>Node4</title>
<g id="a_Node000004"><a xlink:href="classsensesp_1_1_value_producer.html#a6ade04273d35e9df34027dcdbfee7256" target="_top" xlink:title=" ">
<polygon fill="white" stroke="#666666" points="124.75,-30.5 3,-30.5 3,0 124.75,0 124.75,-30.5"/>
<text xml:space="preserve" text-anchor="start" x="11" y="-17" font-family="Helvetica,sans-Serif" font-size="10.00">sensesp::ValueProducer</text>
<text xml:space="preserve" text-anchor="middle" x="63.88" y="-5.75" font-family="Helvetica,sans-Serif" font-size="10.00">&lt; float &gt;::connect_to</text>
</a>
</g>
</g>
<!-- Node1&#45;&gt;Node4 -->
<g id="edge3_Node000001_Node000004" class="edge">
<title>Node1&#45;&gt;Node4</title>
<g id="a_edge3_Node000001_Node000004"><a xlink:title=" ">
<path fill="none" stroke="#63b8ff" d="M157.48,-45.1C142.99,-40.43 127.65,-35.49 113.71,-30.99"/>
<polygon fill="#63b8ff" stroke="#63b8ff" points="156.33,-48.41 166.92,-48.15 158.48,-41.75 156.33,-48.41"/>
</a>
</g>
</g>
</g>
</svg>
