<?xml version="1.0" encoding="UTF-8" standalone="no"?>
<!DOCTYPE svg PUBLIC "-//W3C//DTD SVG 1.1//EN"
 "http://www.w3.org/Graphics/SVG/1.1/DTD/svg11.dtd">
<!-- Generated by graphviz version 12.1.0 (20240811.2233)
 -->
<!-- Title: sensesp::SensESPBaseApp::reset Pages: 1 -->
<!--zoomable 106 -->

<svg id="main" version="1.1" xmlns="http://www.w3.org/2000/svg" xmlns:xlink="http://www.w3.org/1999/xlink" xml:space="preserve" onload="init(evt)">

<style type="text/css"><![CDATA[
.node, .edge {opacity: 0.7;}
.node.selected, .edge.selected {opacity: 1;}
.edge:hover path { stroke: red; }
.edge:hover polygon { stroke: red; fill: red; }
]]></style>

<defs>
  <circle id="rim" cx="0" cy="0" r="7"/>
  <circle id="rim2" cx="0" cy="0" r="3.5"/>
  <g id="zoomPlus">
    <use xlink:href="#rim" fill="#404040"><set attributeName="fill" to="#808080" begin="zoomplus.mouseover" end="zoomplus.mouseout"/></use>
    <path d="M-4,0h8M0,-4v8" fill="none" stroke="white" stroke-width="1.5" pointer-events="none"/>
  </g>
  <g id="zoomMin">
    <use xlink:href="#rim" fill="#404040"><set attributeName="fill" to="#808080" begin="zoomminus.mouseover" end="zoomminus.mouseout"/></use>
    <path d="M-4,0h8" fill="none" stroke="white" stroke-width="1.5" pointer-events="none"/>
  </g>
  <g id="arrowUp" transform="translate(30 24)">
    <use xlink:href="#rim"/>
    <path pointer-events="none" fill="none" stroke="white" stroke-width="1.5" d="M0,-3.0v7 M-2.5,-0.5L0,-3.0L2.5,-0.5"/>
  </g>
  <g id="arrowRight" transform="rotate(90) translate(36 -43)">
    <use xlink:href="#rim"/>
    <path pointer-events="none" fill="none" stroke="white" stroke-width="1.5" d="M0,-3.0v7 M-2.5,-0.5L0,-3.0L2.5,-0.5"/>
  </g>
  <g id="arrowDown" transform="rotate(180) translate(-30 -48)">
    <use xlink:href="#rim"/>
    <path pointer-events="none" fill="none" stroke="white" stroke-width="1.5" d="M0,-3.0v7 M-2.5,-0.5L0,-3.0L2.5,-0.5"/>
  </g>
  <g id="arrowLeft" transform="rotate(270) translate(-36 17)">
    <use xlink:href="#rim"/>
    <path pointer-events="none" fill="none" stroke="white" stroke-width="1.5" d="M0,-3.0v7 M-2.5,-0.5L0,-3.0L2.5,-0.5"/>
  </g>
  <g id="resetDef">
    <use xlink:href="#rim2" fill="#404040"><set attributeName="fill" to="#808080" begin="reset.mouseover" end="reset.mouseout"/></use>
  </g>
</defs>
<script type="application/ecmascript">
var viewWidth = 943;
var viewHeight = 106;
var sectionId = 'dynsection-9';
</script>
<script type="application/ecmascript" xlink:href="svg.min.js"/>
<svg id="graph" class="graph">
<g id="viewport">
<title>sensesp::SensESPBaseApp::reset</title>
<!-- Node1 -->
<g id="Node000001" class="node">
<title>Node1</title>
<g id="a_Node000001"><a xlink:title="Reset the device to factory defaults.">
<polygon fill="#999999" stroke="#666666" points="935.25,-54.5 794,-54.5 794,-24 935.25,-24 935.25,-54.5"/>
<text text-anchor="start" x="802" y="-41" font-family="Helvetica,sans-Serif" font-size="10.00">sensesp::SensESPBaseApp</text>
<text text-anchor="middle" x="864.62" y="-29.75" font-family="Helvetica,sans-Serif" font-size="10.00">::reset</text>
</a>
</g>
</g>
<!-- Node2 -->
<g id="Node000002" class="node">
<title>Node2</title>
<g id="a_Node000002"><a xlink:href="namespacesensesp.html#a5f5a0a2cad66e66dd5b98b9f59289ccb" target="_top" xlink:title=" ">
<polygon fill="white" stroke="#666666" points="742.25,-79.5 619,-79.5 619,-49 742.25,-49 742.25,-79.5"/>
<text text-anchor="start" x="627" y="-66" font-family="Helvetica,sans-Serif" font-size="10.00">sensesp::add_http_reset</text>
<text text-anchor="middle" x="680.62" y="-54.75" font-family="Helvetica,sans-Serif" font-size="10.00">_handler</text>
</a>
</g>
</g>
<!-- Node1&#45;&gt;Node2 -->
<g id="edge1_Node000001_Node000002" class="edge">
<title>Node1&#45;&gt;Node2</title>
<g id="a_edge1_Node000001_Node000002"><a xlink:title=" ">
<path fill="none" stroke="#63b8ff" d="M782.36,-50.41C768.97,-52.25 755.29,-54.13 742.5,-55.89"/>
<polygon fill="#63b8ff" stroke="#63b8ff" points="782.59,-53.91 792.02,-49.09 781.64,-46.98 782.59,-53.91"/>
</a>
</g>
</g>
<!-- Node7 -->
<g id="Node000007" class="node">
<title>Node7</title>
<g id="a_Node000007"><a xlink:href="classsensesp_1_1_minimal_button_handler.html#ae0765a640028979faa385b57ba6374df" target="_top" xlink:title="Handle a very long button press (over 5 seconds).">
<polygon fill="white" stroke="#666666" points="758,-30.5 603.25,-30.5 603.25,0 758,0 758,-30.5"/>
<text text-anchor="start" x="611.25" y="-17" font-family="Helvetica,sans-Serif" font-size="10.00">sensesp::MinimalButtonHandler</text>
<text text-anchor="middle" x="680.62" y="-5.75" font-family="Helvetica,sans-Serif" font-size="10.00">::handle_very_long_press</text>
</a>
</g>
</g>
<!-- Node1&#45;&gt;Node7 -->
<g id="edge7_Node000001_Node000007" class="edge">
<title>Node1&#45;&gt;Node7</title>
<g id="a_edge7_Node000001_Node000007"><a xlink:title=" ">
<path fill="none" stroke="#63b8ff" d="M782.33,-28.53C774.36,-27.48 766.28,-26.41 758.35,-25.37"/>
<polygon fill="#63b8ff" stroke="#63b8ff" points="781.65,-31.97 792.02,-29.81 782.56,-25.03 781.65,-31.97"/>
</a>
</g>
</g>
<!-- Node3 -->
<g id="Node000003" class="node">
<title>Node3</title>
<g id="a_Node000003"><a xlink:href="namespacesensesp.html#a8a933b02d533cea6b08661090eac0c54" target="_top" xlink:title=" ">
<polygon fill="white" stroke="#666666" points="553.75,-79.5 426,-79.5 426,-49 553.75,-49 553.75,-79.5"/>
<text text-anchor="start" x="434" y="-66" font-family="Helvetica,sans-Serif" font-size="10.00">sensesp::add_base_app</text>
<text text-anchor="middle" x="489.88" y="-54.75" font-family="Helvetica,sans-Serif" font-size="10.00">_http_command_handlers</text>
</a>
</g>
</g>
<!-- Node2&#45;&gt;Node3 -->
<g id="edge2_Node000002_Node000003" class="edge">
<title>Node2&#45;&gt;Node3</title>
<g id="a_edge2_Node000002_Node000003"><a xlink:title=" ">
<path fill="none" stroke="#63b8ff" d="M607.25,-64.25C589.69,-64.25 571.05,-64.25 553.96,-64.25"/>
<polygon fill="#63b8ff" stroke="#63b8ff" points="607.09,-67.75 617.09,-64.25 607.09,-60.75 607.09,-67.75"/>
</a>
</g>
</g>
<!-- Node3&#45;&gt;Node3 -->
<g id="edge3_Node000003_Node000003" class="edge">
<title>Node3&#45;&gt;Node3</title>
<g id="a_edge3_Node000003_Node000003"><a xlink:title=" ">
<path fill="none" stroke="#63b8ff" d="M518.72,-91.2C514,-94.97 504.39,-97.5 489.88,-97.5 463.34,-97.5 453.18,-89.06 459.4,-79.99"/>
<polygon fill="#63b8ff" stroke="#63b8ff" points="522.16,-91.88 520.14,-81.48 515.23,-90.87 522.16,-91.88"/>
</a>
</g>
</g>
<!-- Node4 -->
<g id="Node000004" class="node">
<title>Node4</title>
<g id="a_Node000004"><a xlink:href="classsensesp_1_1_sens_e_s_p_app.html#a49534d134dbae3ce35f4bac5879a8640" target="_top" xlink:title="Perform initialization of SensESPApp once builder configuration is done.">
<polygon fill="white" stroke="#666666" points="376.5,-79.5 259.25,-79.5 259.25,-49 376.5,-49 376.5,-79.5"/>
<text text-anchor="start" x="267.25" y="-66" font-family="Helvetica,sans-Serif" font-size="10.00">sensesp::SensESPApp</text>
<text text-anchor="middle" x="317.88" y="-54.75" font-family="Helvetica,sans-Serif" font-size="10.00">::setup</text>
</a>
</g>
</g>
<!-- Node3&#45;&gt;Node4 -->
<g id="edge4_Node000003_Node000004" class="edge">
<title>Node3&#45;&gt;Node4</title>
<g id="a_edge4_Node000003_Node000004"><a xlink:title=" ">
<path fill="none" stroke="#63b8ff" d="M414.21,-64.25C401.7,-64.25 388.9,-64.25 376.89,-64.25"/>
<polygon fill="#63b8ff" stroke="#63b8ff" points="414.06,-67.75 424.06,-64.25 414.06,-60.75 414.06,-67.75"/>
</a>
</g>
</g>
<!-- Node5 -->
<g id="Node000005" class="node">
<title>Node5</title>
<g id="a_Node000005"><a xlink:href="classsensesp_1_1_sens_e_s_p_app_builder.html#ac348bac39d057253e3d291a3c4d7d79f" target="_top" xlink:title="Get the SensESPApp object.">
<polygon fill="white" stroke="#666666" points="223.25,-79.5 76,-79.5 76,-49 223.25,-49 223.25,-79.5"/>
<text text-anchor="start" x="84" y="-66" font-family="Helvetica,sans-Serif" font-size="10.00">sensesp::SensESPAppBuilder</text>
<text text-anchor="middle" x="149.62" y="-54.75" font-family="Helvetica,sans-Serif" font-size="10.00">::get_app</text>
</a>
</g>
</g>
<!-- Node4&#45;&gt;Node5 -->
<g id="edge5_Node000004_Node000005" class="edge">
<title>Node4&#45;&gt;Node5</title>
<g id="a_edge5_Node000004_Node000005"><a xlink:title=" ">
<path fill="none" stroke="#63b8ff" d="M247.74,-64.25C239.81,-64.25 231.7,-64.25 223.72,-64.25"/>
<polygon fill="#63b8ff" stroke="#63b8ff" points="247.68,-67.75 257.68,-64.25 247.68,-60.75 247.68,-67.75"/>
</a>
</g>
</g>
<!-- Node6 -->
<g id="Node000006" class="node">
<title>Node6</title>
<g id="a_Node000006"><a xlink:href="main_8cpp.html#a4fc01d736fe50cf5b977f755b675f11d" target="_top" xlink:title=" ">
<polygon fill="white" stroke="#666666" points="40,-73.88 0,-73.88 0,-54.62 40,-54.62 40,-73.88"/>
<text text-anchor="middle" x="20" y="-60.38" font-family="Helvetica,sans-Serif" font-size="10.00">setup</text>
</a>
</g>
</g>
<!-- Node5&#45;&gt;Node6 -->
<g id="edge6_Node000005_Node000006" class="edge">
<title>Node5&#45;&gt;Node6</title>
<g id="a_edge6_Node000005_Node000006"><a xlink:title=" ">
<path fill="none" stroke="#63b8ff" d="M64.39,-64.25C55.54,-64.25 47.27,-64.25 40.37,-64.25"/>
<polygon fill="#63b8ff" stroke="#63b8ff" points="64.35,-67.75 74.35,-64.25 64.35,-60.75 64.35,-67.75"/>
</a>
</g>
</g>
<!-- Node8 -->
<g id="Node000008" class="node">
<title>Node8</title>
<g id="a_Node000008"><a xlink:href="classsensesp_1_1_minimal_button_handler.html#aaabccc6e10fbfa51d7c34f95c93c847f" target="_top" xlink:title=" ">
<polygon fill="white" stroke="#666666" points="567.25,-30.5 412.5,-30.5 412.5,0 567.25,0 567.25,-30.5"/>
<text text-anchor="start" x="420.5" y="-17" font-family="Helvetica,sans-Serif" font-size="10.00">sensesp::MinimalButtonHandler</text>
<text text-anchor="middle" x="489.88" y="-5.75" font-family="Helvetica,sans-Serif" font-size="10.00">::handleEvent</text>
</a>
</g>
</g>
<!-- Node7&#45;&gt;Node8 -->
<g id="edge8_Node000007_Node000008" class="edge">
<title>Node7&#45;&gt;Node8</title>
<g id="a_edge8_Node000007_Node000008"><a xlink:title=" ">
<path fill="none" stroke="#63b8ff" d="M591.58,-15.25C583.57,-15.25 575.49,-15.25 567.58,-15.25"/>
<polygon fill="#63b8ff" stroke="#63b8ff" points="591.34,-18.75 601.34,-15.25 591.34,-11.75 591.34,-18.75"/>
</a>
</g>
</g>
</g>
</svg>

<g id="navigator" transform="translate(0 0)" fill="#404254">
  <rect fill="#f2f5e9" fill-opacity="0.5" stroke="#606060" stroke-width=".5" x="0" y="0" width="60" height="60"/>
  <use id="zoomplus" xlink:href="#zoomPlus" x="17" y="9" onmousedown="handleZoom(evt,'in')"/>
  <use id="zoomminus" xlink:href="#zoomMin" x="42" y="9" onmousedown="handleZoom(evt,'out')"/>
  <use id="reset" xlink:href="#resetDef" x="30" y="36" onmousedown="handleReset()"/>
   <use id="arrowup" xlink:href="#arrowUp" x="0" y="0" onmousedown="handlePan(0,-1)"/>
  <use id="arrowright" xlink:href="#arrowRight" x="0" y="0" onmousedown="handlePan(1,0)"/>
  <use id="arrowdown" xlink:href="#arrowDown" x="0" y="0" onmousedown="handlePan(0,1)"/>
  <use id="arrowleft" xlink:href="#arrowLeft" x="0" y="0" onmousedown="handlePan(-1,0)"/>
</g>
<svg viewBox="0 0 15 15" width="100%" height="30px" preserveAspectRatio="xMaxYMin meet">
 <g id="arrow_out" transform="scale(0.3 0.3)">
  <a xlink:href="classsensesp_1_1_sens_e_s_p_base_app_a42d3c5c9ed56c0a0a925fac4e49dd659_icgraph_org.svg" target="_base">
   <rect id="button" ry="5" rx="5" y="6" x="6" height="38" width="38"
        fill="#f2f5e9" fill-opacity="0.5" stroke="#606060" stroke-width="1.0"/>
   <path id="arrow"
     d="M 11.500037,31.436501 C 11.940474,20.09759 22.043105,11.32322 32.158766,21.979434 L 37.068811,17.246167 C 37.068811,17.246167 37.088388,32 37.088388,32 L 22.160133,31.978069 C 22.160133,31.978069 26.997745,27.140456 26.997745,27.140456 C 18.528582,18.264221 13.291696,25.230495 11.500037,31.436501 z"
     style="fill:#404040;"/>
  </a>
 </g>
</svg>

<style type='text/css'>
<![CDATA[
[data-mouse-over-selected='false'] { opacity: 0.7; }
[data-mouse-over-selected='true']  { opacity: 1.0; }
]]>
</style>
<script type="application/ecmascript"><![CDATA[
document.addEventListener('DOMContentLoaded', (event) => {
  highlightEdges();
  highlightAdjacentNodes();
});
]]></script>
</svg>
