<?xml version="1.0" encoding="UTF-8" standalone="no"?>
<!DOCTYPE svg PUBLIC "-//W3C//DTD SVG 1.1//EN"
 "http://www.w3.org/Graphics/SVG/1.1/DTD/svg11.dtd">
<!-- Generated by graphviz version 14.1.1 (20251213.1925)
 -->
<!-- Title: sensesp::SKPutRequestListener&lt; T &gt; Pages: 1 -->
<svg width="763pt" height="186pt"
 viewBox="0.00 0.00 763.00 186.00" xmlns="http://www.w3.org/2000/svg" xmlns:xlink="http://www.w3.org/1999/xlink">
<g id="graph0" class="graph" transform="scale(1 1) rotate(0) translate(4 181.5)">
<title>sensesp::SKPutRequestListener&lt; T &gt;</title>
<!-- Node1 -->
<g id="Node000001" class="node">
<title>Node1</title>
<g id="a_Node000001"><a xlink:title="An object that listens for PUT requests to come in for the specified SignalK path....">
<polygon fill="#999999" stroke="#666666" points="510.5,-97.88 328,-97.88 328,-78.62 510.5,-78.62 510.5,-97.88"/>
<text xml:space="preserve" text-anchor="middle" x="419.25" y="-84.38" font-family="Helvetica,sans-Serif" font-size="10.00">sensesp::SKPutRequestListener&lt; T &gt;</text>
</a>
</g>
</g>
<!-- Node5 -->
<g id="Node000005" class="node">
<title>Node5</title>
<g id="a_Node000005"><a xlink:href="classsensesp_1_1_s_k_put_request_listener.html" target="_top" xlink:title=" ">
<polygon fill="white" stroke="#666666" points="754.5,-177.5 596,-177.5 596,-147 754.5,-147 754.5,-177.5"/>
<text xml:space="preserve" text-anchor="start" x="604" y="-164" font-family="Helvetica,sans-Serif" font-size="10.00">sensesp::SKPutRequestListener</text>
<text xml:space="preserve" text-anchor="middle" x="675.25" y="-152.75" font-family="Helvetica,sans-Serif" font-size="10.00">&lt; float &gt;</text>
</a>
</g>
</g>
<!-- Node1&#45;&gt;Node5 -->
<g id="edge5_Node000001_Node000005" class="edge">
<title>Node1&#45;&gt;Node5</title>
<g id="a_edge5_Node000001_Node000005"><a xlink:title=" ">
<path fill="none" stroke="orange" stroke-dasharray="5,2" d="M458.2,-102.06C478.86,-109.37 504.94,-118.25 528.5,-125.25 554.15,-132.88 582.62,-140.33 607.55,-146.52"/>
<polygon fill="orange" stroke="orange" points="459.66,-98.86 449.06,-98.8 457.31,-105.46 459.66,-98.86"/>
</a>
</g>
<text xml:space="preserve" text-anchor="start" x="534.88" y="-143.29" font-family="Helvetica,sans-Serif" font-size="10.00" fill="grey">&lt; float &gt;</text>
</g>
<!-- Node6 -->
<g id="Node000006" class="node">
<title>Node6</title>
<g id="a_Node000006"><a xlink:href="classsensesp_1_1_s_k_put_request_listener.html" target="_top" xlink:title=" ">
<polygon fill="white" stroke="#666666" points="754.5,-128.5 596,-128.5 596,-98 754.5,-98 754.5,-128.5"/>
<text xml:space="preserve" text-anchor="start" x="604" y="-115" font-family="Helvetica,sans-Serif" font-size="10.00">sensesp::SKPutRequestListener</text>
<text xml:space="preserve" text-anchor="middle" x="675.25" y="-103.75" font-family="Helvetica,sans-Serif" font-size="10.00">&lt; int &gt;</text>
</a>
</g>
</g>
<!-- Node1&#45;&gt;Node6 -->
<g id="edge6_Node000001_Node000006" class="edge">
<title>Node1&#45;&gt;Node6</title>
<g id="a_edge6_Node000001_Node000006"><a xlink:title=" ">
<path fill="none" stroke="orange" stroke-dasharray="5,2" d="M522.06,-98.27C546.65,-100.69 572.55,-103.24 595.87,-105.54"/>
<polygon fill="orange" stroke="orange" points="522.68,-94.81 512.38,-97.32 521.99,-101.78 522.68,-94.81"/>
</a>
</g>
<text xml:space="preserve" text-anchor="start" x="539" y="-108.47" font-family="Helvetica,sans-Serif" font-size="10.00" fill="grey">&lt; int &gt;</text>
</g>
<!-- Node7 -->
<g id="Node000007" class="node">
<title>Node7</title>
<g id="a_Node000007"><a xlink:href="classsensesp_1_1_s_k_put_request_listener.html" target="_top" xlink:title=" ">
<polygon fill="white" stroke="#666666" points="754.5,-79.5 596,-79.5 596,-49 754.5,-49 754.5,-79.5"/>
<text xml:space="preserve" text-anchor="start" x="604" y="-66" font-family="Helvetica,sans-Serif" font-size="10.00">sensesp::SKPutRequestListener</text>
<text xml:space="preserve" text-anchor="middle" x="675.25" y="-54.75" font-family="Helvetica,sans-Serif" font-size="10.00">&lt; bool &gt;</text>
</a>
</g>
</g>
<!-- Node1&#45;&gt;Node7 -->
<g id="edge7_Node000001_Node000007" class="edge">
<title>Node1&#45;&gt;Node7</title>
<g id="a_edge7_Node000001_Node000007"><a xlink:title=" ">
<path fill="none" stroke="orange" stroke-dasharray="5,2" d="M503.25,-76.77C511.77,-75.76 520.3,-74.81 528.5,-74 550.2,-71.85 573.77,-70.04 595.51,-68.59"/>
<polygon fill="orange" stroke="orange" points="503.09,-73.27 493.59,-77.95 503.94,-80.22 503.09,-73.27"/>
</a>
</g>
<text xml:space="preserve" text-anchor="start" x="535.25" y="-78.75" font-family="Helvetica,sans-Serif" font-size="10.00" fill="grey">&lt; bool &gt;</text>
</g>
<!-- Node8 -->
<g id="Node000008" class="node">
<title>Node8</title>
<g id="a_Node000008"><a xlink:href="classsensesp_1_1_s_k_put_request_listener.html" target="_top" xlink:title=" ">
<polygon fill="white" stroke="#666666" points="754.5,-30.5 596,-30.5 596,0 754.5,0 754.5,-30.5"/>
<text xml:space="preserve" text-anchor="start" x="604" y="-17" font-family="Helvetica,sans-Serif" font-size="10.00">sensesp::SKPutRequestListener</text>
<text xml:space="preserve" text-anchor="middle" x="675.25" y="-5.75" font-family="Helvetica,sans-Serif" font-size="10.00">&lt; String &gt;</text>
</a>
</g>
</g>
<!-- Node1&#45;&gt;Node8 -->
<g id="edge8_Node000001_Node000008" class="edge">
<title>Node1&#45;&gt;Node8</title>
<g id="a_edge8_Node000001_Node000008"><a xlink:title=" ">
<path fill="none" stroke="orange" stroke-dasharray="5,2" d="M455.97,-74.07C476.9,-66.07 503.96,-56.26 528.5,-49 551.04,-42.33 575.86,-36.16 598.53,-30.97"/>
<polygon fill="orange" stroke="orange" points="454.81,-70.77 446.75,-77.63 457.34,-77.3 454.81,-70.77"/>
</a>
</g>
<text xml:space="preserve" text-anchor="start" x="531.5" y="-53.75" font-family="Helvetica,sans-Serif" font-size="10.00" fill="grey">&lt; String &gt;</text>
</g>
<!-- Node2 -->
<g id="Node000002" class="node">
<title>Node2</title>
<g id="a_Node000002"><a xlink:href="classsensesp_1_1_s_k_put_listener.html" target="_top" xlink:title="An Obervable class that listens for Signal K PUT requests coming over the websocket connection and no...">
<polygon fill="white" stroke="#666666" points="279,-114.88 157.25,-114.88 157.25,-95.62 279,-95.62 279,-114.88"/>
<text xml:space="preserve" text-anchor="middle" x="218.12" y="-101.38" font-family="Helvetica,sans-Serif" font-size="10.00">sensesp::SKPutListener</text>
</a>
</g>
</g>
<!-- Node2&#45;&gt;Node1 -->
<g id="edge1_Node000001_Node000002" class="edge">
<title>Node2&#45;&gt;Node1</title>
<g id="a_edge1_Node000001_Node000002"><a xlink:title=" ">
<path fill="none" stroke="#63b8ff" d="M290.7,-99.14C302.7,-98.12 315.28,-97.04 327.67,-95.98"/>
<polygon fill="#63b8ff" stroke="#63b8ff" points="290.58,-95.64 280.92,-99.97 291.18,-102.61 290.58,-95.64"/>
</a>
</g>
</g>
<!-- Node3 -->
<g id="Node000003" class="node">
<title>Node3</title>
<g id="a_Node000003"><a xlink:href="classsensesp_1_1_observable.html" target="_top" xlink:title="A base class which allow observers to attach callbacks to themselves. The callbacks will be called wh...">
<polygon fill="white" stroke="#666666" points="108.25,-95.88 0,-95.88 0,-76.62 108.25,-76.62 108.25,-95.88"/>
<text xml:space="preserve" text-anchor="middle" x="54.12" y="-82.38" font-family="Helvetica,sans-Serif" font-size="10.00">sensesp::Observable</text>
</a>
</g>
</g>
<!-- Node3&#45;&gt;Node2 -->
<g id="edge2_Node000002_Node000003" class="edge">
<title>Node3&#45;&gt;Node2</title>
<g id="a_edge2_Node000002_Node000003"><a xlink:title=" ">
<path fill="none" stroke="#63b8ff" d="M119.72,-93.83C132.01,-95.27 144.82,-96.77 156.97,-98.19"/>
<polygon fill="#63b8ff" stroke="#63b8ff" points="120.46,-90.39 110.12,-92.7 119.65,-97.34 120.46,-90.39"/>
</a>
</g>
</g>
<!-- Node4 -->
<g id="Node000004" class="node">
<title>Node4</title>
<g id="a_Node000004"><a xlink:href="classsensesp_1_1_value_producer.html" target="_top" xlink:title="A base class for any sensor or piece of code that outputs a value for consumption elsewhere.">
<polygon fill="white" stroke="#666666" points="291,-77.88 145.25,-77.88 145.25,-58.62 291,-58.62 291,-77.88"/>
<text xml:space="preserve" text-anchor="middle" x="218.12" y="-64.38" font-family="Helvetica,sans-Serif" font-size="10.00">sensesp::ValueProducer&lt; T &gt;</text>
</a>
</g>
</g>
<!-- Node3&#45;&gt;Node4 -->
<g id="edge4_Node000004_Node000003" class="edge">
<title>Node3&#45;&gt;Node4</title>
<g id="a_edge4_Node000004_Node000003"><a xlink:title=" ">
<path fill="none" stroke="#63b8ff" d="M120,-79.04C128.19,-78.13 136.61,-77.2 144.9,-76.28"/>
<polygon fill="#63b8ff" stroke="#63b8ff" points="119.68,-75.56 110.12,-80.14 120.45,-82.51 119.68,-75.56"/>
</a>
</g>
</g>
<!-- Node4&#45;&gt;Node1 -->
<g id="edge3_Node000001_Node000004" class="edge">
<title>Node4&#45;&gt;Node1</title>
<g id="a_edge3_Node000001_Node000004"><a xlink:title=" ">
<path fill="none" stroke="#63b8ff" d="M302.5,-76.62C310.8,-77.46 319.25,-78.31 327.62,-79.15"/>
<polygon fill="#63b8ff" stroke="#63b8ff" points="303.1,-73.17 292.8,-75.65 302.4,-80.13 303.1,-73.17"/>
</a>
</g>
</g>
</g>
</svg>
