<?xml version="1.0" encoding="UTF-8" standalone="no"?>
<!DOCTYPE svg PUBLIC "-//W3C//DTD SVG 1.1//EN"
 "http://www.w3.org/Graphics/SVG/1.1/DTD/svg11.dtd">
<!-- Generated by graphviz version 14.1.4 (20260321.0153)
 -->
<!-- Title: sensesp::SKWSClient::on_receive_delta Pages: 1 -->
<svg width="963pt" height="440pt"
 viewBox="0.00 0.00 963.00 440.00" xmlns="http://www.w3.org/2000/svg" xmlns:xlink="http://www.w3.org/1999/xlink">
<g id="graph0" class="graph" transform="scale(1 1) rotate(0) translate(4 436.12)">
<title>sensesp::SKWSClient::on_receive_delta</title>
<!-- Node1 -->
<g id="Node000001" class="node">
<title>Node1</title>
<g id="a_Node000001"><a xlink:title="Called when the websocket receives a delta.">
<polygon fill="#999999" stroke="#666666" points="114.25,-199.12 0,-199.12 0,-168.62 114.25,-168.62 114.25,-199.12"/>
<text xml:space="preserve" text-anchor="start" x="8" y="-185.62" font-family="Helvetica,sans-Serif" font-size="10.00">sensesp::SKWSClient</text>
<text xml:space="preserve" text-anchor="middle" x="57.12" y="-174.38" font-family="Helvetica,sans-Serif" font-size="10.00">::on_receive_delta</text>
</a>
</g>
</g>
<!-- Node2 -->
<g id="Node000002" class="node">
<title>Node2</title>
<g id="a_Node000002"><a xlink:href="classsensesp_1_1_s_k_request.html#a272df2b3fe96d053c12597866212ac29" target="_top" xlink:title=" ">
<polygon fill="white" stroke="#666666" points="261.88,-389.12 152.88,-389.12 152.88,-358.62 261.88,-358.62 261.88,-389.12"/>
<text xml:space="preserve" text-anchor="start" x="160.88" y="-375.62" font-family="Helvetica,sans-Serif" font-size="10.00">sensesp::SKRequest</text>
<text xml:space="preserve" text-anchor="middle" x="207.38" y="-364.38" font-family="Helvetica,sans-Serif" font-size="10.00">::handle_response</text>
</a>
</g>
</g>
<!-- Node1&#45;&gt;Node2 -->
<g id="edge1_Node000001_Node000002" class="edge">
<title>Node1&#45;&gt;Node2</title>
<g id="a_edge1_Node000001_Node000002"><a xlink:title=" ">
<path fill="none" stroke="#63b8ff" d="M70.26,-199.42C96.06,-232.49 156.53,-310 187.45,-349.62"/>
<polygon fill="#63b8ff" stroke="#63b8ff" points="184.44,-351.45 193.35,-357.18 189.96,-347.15 184.44,-351.45"/>
</a>
</g>
</g>
<!-- Node8 -->
<g id="Node000008" class="node">
<title>Node8</title>
<g id="a_Node000008"><a xlink:href="classsensesp_1_1_s_k_w_s_client.html#a4f59b0bc0379552b4b3a6a232ed88e62" target="_top" xlink:title="Called when a PUT event is received.">
<polygon fill="white" stroke="#666666" points="264.5,-199.12 150.25,-199.12 150.25,-168.62 264.5,-168.62 264.5,-199.12"/>
<text xml:space="preserve" text-anchor="start" x="158.25" y="-185.62" font-family="Helvetica,sans-Serif" font-size="10.00">sensesp::SKWSClient</text>
<text xml:space="preserve" text-anchor="middle" x="207.38" y="-174.38" font-family="Helvetica,sans-Serif" font-size="10.00">::on_receive_put</text>
</a>
</g>
</g>
<!-- Node1&#45;&gt;Node8 -->
<g id="edge8_Node000001_Node000008" class="edge">
<title>Node1&#45;&gt;Node8</title>
<g id="a_edge8_Node000001_Node000008"><a xlink:title=" ">
<path fill="none" stroke="#63b8ff" d="M114.59,-183.88C122.49,-183.88 130.67,-183.88 138.75,-183.88"/>
<polygon fill="#63b8ff" stroke="#63b8ff" points="138.55,-187.38 148.55,-183.88 138.55,-180.38 138.55,-187.38"/>
</a>
</g>
</g>
<!-- Node16 -->
<g id="Node000016" class="node">
<title>Node16</title>
<g id="a_Node000016"><a xlink:href="classsensesp_1_1_s_k_w_s_client.html#aa4ebce0c621f3800bfd40aa0fc75302d" target="_top" xlink:title="Called when a delta update is received.">
<polygon fill="white" stroke="#666666" points="264.5,-96.12 150.25,-96.12 150.25,-65.62 264.5,-65.62 264.5,-96.12"/>
<text xml:space="preserve" text-anchor="start" x="158.25" y="-82.62" font-family="Helvetica,sans-Serif" font-size="10.00">sensesp::SKWSClient</text>
<text xml:space="preserve" text-anchor="middle" x="207.38" y="-71.38" font-family="Helvetica,sans-Serif" font-size="10.00">::on_receive_updates</text>
</a>
</g>
</g>
<!-- Node1&#45;&gt;Node16 -->
<g id="edge16_Node000001_Node000016" class="edge">
<title>Node1&#45;&gt;Node16</title>
<g id="a_edge16_Node000001_Node000016"><a xlink:title=" ">
<path fill="none" stroke="#63b8ff" d="M80.64,-168.23C105.71,-150.81 146.42,-122.53 174.7,-102.89"/>
<polygon fill="#63b8ff" stroke="#63b8ff" points="176.67,-105.77 182.89,-97.19 172.68,-100.02 176.67,-105.77"/>
</a>
</g>
</g>
<!-- Node3 -->
<g id="Node000003" class="node">
<title>Node3</title>
<g id="a_Node000003"><a xlink:href="classsensesp_1_1_s_k_request.html#a9af8d69fb226c27304ceff7646bc86ca" target="_top" xlink:title=" ">
<polygon fill="white" stroke="#666666" points="580.75,-389.12 471.75,-389.12 471.75,-358.62 580.75,-358.62 580.75,-389.12"/>
<text xml:space="preserve" text-anchor="start" x="479.75" y="-375.62" font-family="Helvetica,sans-Serif" font-size="10.00">sensesp::SKRequest</text>
<text xml:space="preserve" text-anchor="middle" x="526.25" y="-364.38" font-family="Helvetica,sans-Serif" font-size="10.00">::get_request</text>
</a>
</g>
</g>
<!-- Node2&#45;&gt;Node3 -->
<g id="edge2_Node000002_Node000003" class="edge">
<title>Node2&#45;&gt;Node3</title>
<g id="a_edge2_Node000002_Node000003"><a xlink:title=" ">
<path fill="none" stroke="#63b8ff" d="M262.13,-373.88C316.84,-373.88 401.69,-373.88 460.17,-373.88"/>
<polygon fill="#63b8ff" stroke="#63b8ff" points="459.98,-377.38 469.98,-373.88 459.98,-370.38 459.98,-377.38"/>
</a>
</g>
</g>
<!-- Node4 -->
<g id="Node000004" class="node">
<title>Node4</title>
<g id="a_Node000004"><a xlink:href="classsensesp_1_1_s_k_request.html#af3556571b45b5ce5ab74831cb5605ded" target="_top" xlink:title=" ">
<polygon fill="white" stroke="#666666" points="422.62,-432.12 313.62,-432.12 313.62,-401.62 422.62,-401.62 422.62,-432.12"/>
<text xml:space="preserve" text-anchor="start" x="321.62" y="-418.62" font-family="Helvetica,sans-Serif" font-size="10.00">sensesp::SKRequest</text>
<text xml:space="preserve" text-anchor="middle" x="368.12" y="-407.38" font-family="Helvetica,sans-Serif" font-size="10.00">::remove_request</text>
</a>
</g>
</g>
<!-- Node2&#45;&gt;Node4 -->
<g id="edge3_Node000002_Node000004" class="edge">
<title>Node2&#45;&gt;Node4</title>
<g id="a_edge3_Node000002_Node000004"><a xlink:title=" ">
<path fill="none" stroke="#63b8ff" d="M262.12,-388.43C274.98,-391.92 288.85,-395.67 302.15,-399.28"/>
<polygon fill="#63b8ff" stroke="#63b8ff" points="301.14,-402.63 311.7,-401.86 302.97,-395.87 301.14,-402.63"/>
</a>
</g>
</g>
<!-- Node4&#45;&gt;Node3 -->
<g id="edge7_Node000004_Node000003" class="edge">
<title>Node4&#45;&gt;Node3</title>
<g id="a_edge7_Node000004_Node000003"><a xlink:title=" ">
<path fill="none" stroke="#63b8ff" d="M422.85,-402.08C435,-398.73 448.01,-395.15 460.56,-391.69"/>
<polygon fill="#63b8ff" stroke="#63b8ff" points="461.25,-395.13 469.96,-389.1 459.39,-388.38 461.25,-395.13"/>
</a>
</g>
</g>
<!-- Node5 -->
<g id="Node000005" class="node">
<title>Node5</title>
<g id="a_Node000005"><a xlink:href="namespacesensesp.html#a1c1105507d71491cf4e0505eaabb2e49" target="_top" xlink:title=" ">
<polygon fill="white" stroke="#666666" points="579.25,-426.5 473.25,-426.5 473.25,-407.25 579.25,-407.25 579.25,-426.5"/>
<text xml:space="preserve" text-anchor="middle" x="526.25" y="-413" font-family="Helvetica,sans-Serif" font-size="10.00">sensesp::event_loop</text>
</a>
</g>
</g>
<!-- Node4&#45;&gt;Node5 -->
<g id="edge4_Node000004_Node000005" class="edge">
<title>Node4&#45;&gt;Node5</title>
<g id="a_edge4_Node000004_Node000005"><a xlink:title=" ">
<path fill="none" stroke="#63b8ff" d="M422.85,-416.88C435.41,-416.88 448.89,-416.88 461.82,-416.88"/>
<polygon fill="#63b8ff" stroke="#63b8ff" points="461.49,-420.38 471.49,-416.88 461.49,-413.38 461.49,-420.38"/>
</a>
</g>
</g>
<!-- Node6 -->
<g id="Node000006" class="node">
<title>Node6</title>
<g id="a_Node000006"><a xlink:href="classsensesp_1_1_sens_e_s_p_base_app.html#a28c20eed17bfc460e6686a11c5b3b107" target="_top" xlink:title="Get the event loop object from the singleton SensESPBaseApp instance.">
<polygon fill="white" stroke="#666666" points="758,-432.12 616.75,-432.12 616.75,-401.62 758,-401.62 758,-432.12"/>
<text xml:space="preserve" text-anchor="start" x="624.75" y="-418.62" font-family="Helvetica,sans-Serif" font-size="10.00">sensesp::SensESPBaseApp</text>
<text xml:space="preserve" text-anchor="middle" x="687.38" y="-407.38" font-family="Helvetica,sans-Serif" font-size="10.00">::get_event_loop</text>
</a>
</g>
</g>
<!-- Node5&#45;&gt;Node6 -->
<g id="edge5_Node000005_Node000006" class="edge">
<title>Node5&#45;&gt;Node6</title>
<g id="a_edge5_Node000005_Node000006"><a xlink:title=" ">
<path fill="none" stroke="#63b8ff" d="M579.35,-416.88C587.61,-416.88 596.32,-416.88 605.05,-416.88"/>
<polygon fill="#63b8ff" stroke="#63b8ff" points="605,-420.38 615,-416.88 605,-413.38 605,-420.38"/>
</a>
</g>
</g>
<!-- Node7 -->
<g id="Node000007" class="node">
<title>Node7</title>
<g id="a_Node000007"><a xlink:href="classsensesp_1_1_sens_e_s_p_base_app.html#add2c67bb55d095ab9c64f44ab2e82612" target="_top" xlink:title="Get the singleton instance of the SensESPBaseApp.">
<polygon fill="white" stroke="#666666" points="954.75,-426.5 794,-426.5 794,-407.25 954.75,-407.25 954.75,-426.5"/>
<text xml:space="preserve" text-anchor="middle" x="874.38" y="-413" font-family="Helvetica,sans-Serif" font-size="10.00">sensesp::SensESPBaseApp::get</text>
</a>
</g>
</g>
<!-- Node6&#45;&gt;Node7 -->
<g id="edge6_Node000006_Node000007" class="edge">
<title>Node6&#45;&gt;Node7</title>
<g id="a_edge6_Node000006_Node000007"><a xlink:title=" ">
<path fill="none" stroke="#63b8ff" d="M758.32,-416.88C766.17,-416.88 774.26,-416.88 782.34,-416.88"/>
<polygon fill="#63b8ff" stroke="#63b8ff" points="782.21,-420.38 792.21,-416.88 782.21,-413.38 782.21,-420.38"/>
</a>
</g>
</g>
<!-- Node9 -->
<g id="Node000009" class="node">
<title>Node9</title>
<g id="a_Node000009"><a xlink:href="classsensesp_1_1_s_k_w_s_client.html#a4b743aa1377f34235482a2bbc6400698" target="_top" xlink:title=" ">
<polygon fill="white" stroke="#666666" points="425.62,-248.12 310.62,-248.12 310.62,-217.62 425.62,-217.62 425.62,-248.12"/>
<text xml:space="preserve" text-anchor="start" x="318.62" y="-234.62" font-family="Helvetica,sans-Serif" font-size="10.00">sensesp::SKWSClient</text>
<text xml:space="preserve" text-anchor="middle" x="368.12" y="-223.38" font-family="Helvetica,sans-Serif" font-size="10.00">::get_connection_state</text>
</a>
</g>
</g>
<!-- Node8&#45;&gt;Node9 -->
<g id="edge9_Node000008_Node000009" class="edge">
<title>Node8&#45;&gt;Node9</title>
<g id="a_edge9_Node000008_Node000009"><a xlink:title=" ">
<path fill="none" stroke="#63b8ff" d="M259.04,-199.51C273.72,-204.04 289.91,-209.04 305.19,-213.76"/>
<polygon fill="#63b8ff" stroke="#63b8ff" points="304.09,-217.08 314.68,-216.69 306.15,-210.39 304.09,-217.08"/>
</a>
</g>
</g>
<!-- Node10 -->
<g id="Node000010" class="node">
<title>Node10</title>
<g id="a_Node000010"><a xlink:href="classsensesp_1_1_s_k_put_listener.html#aacf306d816cfd5590cbbb8df9981a7fe" target="_top" xlink:title=" ">
<polygon fill="white" stroke="#666666" points="429,-199.12 307.25,-199.12 307.25,-168.62 429,-168.62 429,-199.12"/>
<text xml:space="preserve" text-anchor="start" x="315.25" y="-185.62" font-family="Helvetica,sans-Serif" font-size="10.00">sensesp::SKPutListener</text>
<text xml:space="preserve" text-anchor="middle" x="368.12" y="-174.38" font-family="Helvetica,sans-Serif" font-size="10.00">::get_listeners</text>
</a>
</g>
</g>
<!-- Node8&#45;&gt;Node10 -->
<g id="edge10_Node000008_Node000010" class="edge">
<title>Node8&#45;&gt;Node10</title>
<g id="a_edge10_Node000008_Node000010"><a xlink:title=" ">
<path fill="none" stroke="#63b8ff" d="M264.79,-183.88C274.7,-183.88 285.13,-183.88 295.38,-183.88"/>
<polygon fill="#63b8ff" stroke="#63b8ff" points="295.34,-187.38 305.34,-183.88 295.34,-180.38 295.34,-187.38"/>
</a>
</g>
</g>
<!-- Node11 -->
<g id="Node000011" class="node">
<title>Node11</title>
<g id="a_Node000011"><a xlink:href="classsensesp_1_1_s_k_put_listener.html#a38101840c1a916d99622e72b0a4e5b42" target="_top" xlink:title=" ">
<polygon fill="white" stroke="#666666" points="429,-150.12 307.25,-150.12 307.25,-119.62 429,-119.62 429,-150.12"/>
<text xml:space="preserve" text-anchor="start" x="315.25" y="-136.62" font-family="Helvetica,sans-Serif" font-size="10.00">sensesp::SKPutListener</text>
<text xml:space="preserve" text-anchor="middle" x="368.12" y="-125.38" font-family="Helvetica,sans-Serif" font-size="10.00">::get_sk_path</text>
</a>
</g>
</g>
<!-- Node8&#45;&gt;Node11 -->
<g id="edge11_Node000008_Node000011" class="edge">
<title>Node8&#45;&gt;Node11</title>
<g id="a_edge11_Node000008_Node000011"><a xlink:title=" ">
<path fill="none" stroke="#63b8ff" d="M259.04,-168.24C273.72,-163.71 289.91,-158.71 305.19,-153.99"/>
<polygon fill="#63b8ff" stroke="#63b8ff" points="306.15,-157.36 314.68,-151.06 304.09,-150.67 306.15,-157.36"/>
</a>
</g>
</g>
<!-- Node12 -->
<g id="Node000012" class="node">
<title>Node12</title>
<g id="a_Node000012"><a xlink:href="classsensesp_1_1_s_k_w_s_client.html#a51989a27609077e32aba992bc3554793" target="_top" xlink:title=" ">
<polygon fill="white" stroke="#666666" points="435.75,-41.75 300.5,-41.75 300.5,0 435.75,0 435.75,-41.75"/>
<text xml:space="preserve" text-anchor="start" x="308.5" y="-28.25" font-family="Helvetica,sans-Serif" font-size="10.00">sensesp::SKWSClient</text>
<text xml:space="preserve" text-anchor="start" x="308.5" y="-17" font-family="Helvetica,sans-Serif" font-size="10.00">::release_received_updates</text>
<text xml:space="preserve" text-anchor="middle" x="368.12" y="-5.75" font-family="Helvetica,sans-Serif" font-size="10.00">_semaphore</text>
</a>
</g>
</g>
<!-- Node8&#45;&gt;Node12 -->
<g id="edge12_Node000008_Node000012" class="edge">
<title>Node8&#45;&gt;Node12</title>
<g id="a_edge12_Node000008_Node000012"><a xlink:title=" ">
<path fill="none" stroke="#63b8ff" d="M219.69,-168.23C231.13,-152.36 249.24,-127.05 264.5,-104.88 280.85,-81.12 278.49,-69.52 300.5,-50.88 301.44,-50.08 302.41,-49.29 303.4,-48.53"/>
<polygon fill="#63b8ff" stroke="#63b8ff" points="305.27,-51.49 311.55,-42.96 301.32,-45.71 305.27,-51.49"/>
</a>
</g>
</g>
<!-- Node13 -->
<g id="Node000013" class="node">
<title>Node13</title>
<g id="a_Node000013"><a xlink:href="classsensesp_1_1_s_k_listener.html#a16e7abf03f11f1734cb33388c0517cd8" target="_top" xlink:title=" ">
<polygon fill="white" stroke="#666666" points="421.5,-346.12 314.75,-346.12 314.75,-315.62 421.5,-315.62 421.5,-346.12"/>
<text xml:space="preserve" text-anchor="start" x="322.75" y="-332.62" font-family="Helvetica,sans-Serif" font-size="10.00">sensesp::SKListener</text>
<text xml:space="preserve" text-anchor="middle" x="368.12" y="-321.38" font-family="Helvetica,sans-Serif" font-size="10.00">::release_semaphore</text>
</a>
</g>
</g>
<!-- Node8&#45;&gt;Node13 -->
<g id="edge13_Node000008_Node000013" class="edge">
<title>Node8&#45;&gt;Node13</title>
<g id="a_edge13_Node000008_Node000013"><a xlink:title=" ">
<path fill="none" stroke="#63b8ff" d="M216.18,-199.21C229.91,-224.77 260.74,-276.18 300.5,-305.88 302.28,-307.21 304.14,-308.47 306.06,-309.68"/>
<polygon fill="#63b8ff" stroke="#63b8ff" points="304.29,-312.7 314.73,-314.48 307.68,-306.57 304.29,-312.7"/>
</a>
</g>
</g>
<!-- Node14 -->
<g id="Node000014" class="node">
<title>Node14</title>
<g id="a_Node000014"><a xlink:href="classsensesp_1_1_s_k_w_s_client.html#ac66974c5d91bacc76751592ddb1c979b" target="_top" xlink:title=" ">
<polygon fill="white" stroke="#666666" points="429.38,-101.75 306.88,-101.75 306.88,-60 429.38,-60 429.38,-101.75"/>
<text xml:space="preserve" text-anchor="start" x="314.88" y="-88.25" font-family="Helvetica,sans-Serif" font-size="10.00">sensesp::SKWSClient</text>
<text xml:space="preserve" text-anchor="start" x="314.88" y="-77" font-family="Helvetica,sans-Serif" font-size="10.00">::take_received_updates</text>
<text xml:space="preserve" text-anchor="middle" x="368.12" y="-65.75" font-family="Helvetica,sans-Serif" font-size="10.00">_semaphore</text>
</a>
</g>
</g>
<!-- Node8&#45;&gt;Node14 -->
<g id="edge14_Node000008_Node000014" class="edge">
<title>Node8&#45;&gt;Node14</title>
<g id="a_edge14_Node000008_Node000014"><a xlink:title=" ">
<path fill="none" stroke="#63b8ff" d="M225.42,-168.23C243.23,-152.42 272.43,-127.95 300.5,-110.88 302.37,-109.74 304.29,-108.62 306.24,-107.52"/>
<polygon fill="#63b8ff" stroke="#63b8ff" points="307.73,-110.69 314.91,-102.91 304.44,-104.51 307.73,-110.69"/>
</a>
</g>
</g>
<!-- Node15 -->
<g id="Node000015" class="node">
<title>Node15</title>
<g id="a_Node000015"><a xlink:href="classsensesp_1_1_s_k_listener.html#a07c3b13156e9156f03858b5003b1cde5" target="_top" xlink:title=" ">
<polygon fill="white" stroke="#666666" points="421.5,-297.12 314.75,-297.12 314.75,-266.62 421.5,-266.62 421.5,-297.12"/>
<text xml:space="preserve" text-anchor="start" x="322.75" y="-283.62" font-family="Helvetica,sans-Serif" font-size="10.00">sensesp::SKListener</text>
<text xml:space="preserve" text-anchor="middle" x="368.12" y="-272.38" font-family="Helvetica,sans-Serif" font-size="10.00">::take_semaphore</text>
</a>
</g>
</g>
<!-- Node8&#45;&gt;Node15 -->
<g id="edge15_Node000008_Node000015" class="edge">
<title>Node8&#45;&gt;Node15</title>
<g id="a_edge15_Node000008_Node000015"><a xlink:title=" ">
<path fill="none" stroke="#63b8ff" d="M224.88,-199.59C242.47,-215.69 271.72,-240.61 300.5,-256.88 303.32,-258.47 306.27,-260 309.28,-261.47"/>
<polygon fill="#63b8ff" stroke="#63b8ff" points="307.76,-264.62 318.32,-265.55 310.65,-258.24 307.76,-264.62"/>
</a>
</g>
</g>
<!-- Node16&#45;&gt;Node12 -->
<g id="edge17_Node000016_Node000012" class="edge">
<title>Node16&#45;&gt;Node12</title>
<g id="a_edge17_Node000016_Node000012"><a xlink:title=" ">
<path fill="none" stroke="#63b8ff" d="M249.67,-65.27C265.11,-59.43 283.08,-52.64 300.24,-46.15"/>
<polygon fill="#63b8ff" stroke="#63b8ff" points="301.27,-49.51 309.38,-42.7 298.79,-42.96 301.27,-49.51"/>
</a>
</g>
</g>
<!-- Node16&#45;&gt;Node14 -->
<g id="edge18_Node000016_Node000014" class="edge">
<title>Node16&#45;&gt;Node14</title>
<g id="a_edge18_Node000016_Node000014"><a xlink:title=" ">
<path fill="none" stroke="#63b8ff" d="M264.79,-80.88C274.63,-80.88 284.99,-80.88 295.18,-80.88"/>
<polygon fill="#63b8ff" stroke="#63b8ff" points="295.07,-84.38 305.07,-80.88 295.07,-77.38 295.07,-84.38"/>
</a>
</g>
</g>
</g>
</svg>
