<?xml version="1.0" encoding="UTF-8" standalone="no"?>
<!DOCTYPE svg PUBLIC "-//W3C//DTD SVG 1.1//EN"
 "http://www.w3.org/Graphics/SVG/1.1/DTD/svg11.dtd">
<!-- Generated by graphviz version 2.44.1 (20200629.0846)
 -->
<!-- Title: ClickType::on_ultra_long_click Pages: 1 -->
<svg width="396pt" height="88pt"
 viewBox="0.00 0.00 396.00 88.00" xmlns="http://www.w3.org/2000/svg" xmlns:xlink="http://www.w3.org/1999/xlink">
<g id="graph0" class="graph" transform="scale(1 1) rotate(0) translate(4 84)">
<title>ClickType::on_ultra_long_click</title>
<polygon fill="white" stroke="transparent" points="-4,4 -4,-84 392,-84 392,4 -4,4"/>
<!-- Node1 -->
<g id="node1" class="node">
<title>Node1</title>
<g id="a_node1"><a xlink:title=" ">
<polygon fill="#bfbfbf" stroke="black" points="287,-24.5 287,-54.5 388,-54.5 388,-24.5 287,-24.5"/>
<text text-anchor="start" x="295" y="-42.5" font-family="Helvetica,sans-Serif" font-size="10.00">ClickType::on_ultra</text>
<text text-anchor="middle" x="337.5" y="-31.5" font-family="Helvetica,sans-Serif" font-size="10.00">_long_click</text>
</a>
</g>
</g>
<!-- Node2 -->
<g id="node2" class="node">
<title>Node2</title>
<g id="a_node2"><a xlink:href="class_click_type.html#a9424a22ada921ea26cec9cfc777d8be9" target="_top" xlink:title="Processes incoming values that represent a &quot;ButonPress&quot; event.">
<polygon fill="white" stroke="black" points="142,-49.5 142,-79.5 251,-79.5 251,-49.5 142,-49.5"/>
<text text-anchor="start" x="150" y="-67.5" font-family="Helvetica,sans-Serif" font-size="10.00">ClickType::on_button</text>
<text text-anchor="middle" x="196.5" y="-56.5" font-family="Helvetica,sans-Serif" font-size="10.00">_press</text>
</a>
</g>
</g>
<!-- Node1&#45;&gt;Node2 -->
<g id="edge1" class="edge">
<title>Node1&#45;&gt;Node2</title>
<path fill="none" stroke="midnightblue" d="M276.83,-50.23C268.3,-51.77 259.58,-53.34 251.18,-54.85"/>
<polygon fill="midnightblue" stroke="midnightblue" points="277.49,-53.67 286.71,-48.45 276.25,-46.78 277.49,-53.67"/>
</g>
<!-- Node4 -->
<g id="node4" class="node">
<title>Node4</title>
<g id="a_node4"><a xlink:href="class_click_type.html#aa64de73fe0fb21580f5a9720701664d9" target="_top" xlink:title="Processes incoming value that represent a &quot;ButtonRelease&quot; event.">
<polygon fill="white" stroke="black" points="142,-0.5 142,-30.5 251,-30.5 251,-0.5 142,-0.5"/>
<text text-anchor="start" x="150" y="-18.5" font-family="Helvetica,sans-Serif" font-size="10.00">ClickType::on_button</text>
<text text-anchor="middle" x="196.5" y="-7.5" font-family="Helvetica,sans-Serif" font-size="10.00">_release</text>
</a>
</g>
</g>
<!-- Node1&#45;&gt;Node4 -->
<g id="edge3" class="edge">
<title>Node1&#45;&gt;Node4</title>
<path fill="none" stroke="midnightblue" d="M276.83,-29.2C268.3,-27.72 259.58,-26.22 251.18,-24.77"/>
<polygon fill="midnightblue" stroke="midnightblue" points="276.26,-32.65 286.71,-30.9 277.45,-25.75 276.26,-32.65"/>
</g>
<!-- Node3 -->
<g id="node3" class="node">
<title>Node3</title>
<g id="a_node3"><a xlink:href="class_click_type.html#a7b1a0723cd0b8438d3f1ec380243d208" target="_top" xlink:title=" ">
<polygon fill="white" stroke="black" points="0,-30 0,-49 106,-49 106,-30 0,-30"/>
<text text-anchor="middle" x="53" y="-37" font-family="Helvetica,sans-Serif" font-size="10.00">ClickType::set_input</text>
</a>
</g>
</g>
<!-- Node2&#45;&gt;Node3 -->
<g id="edge2" class="edge">
<title>Node2&#45;&gt;Node3</title>
<path fill="none" stroke="midnightblue" d="M131.73,-53.23C123.24,-51.73 114.61,-50.21 106.35,-48.75"/>
<polygon fill="midnightblue" stroke="midnightblue" points="131.14,-56.68 141.6,-54.98 132.36,-49.79 131.14,-56.68"/>
</g>
<!-- Node4&#45;&gt;Node3 -->
<g id="edge4" class="edge">
<title>Node4&#45;&gt;Node3</title>
<path fill="none" stroke="midnightblue" d="M131.73,-26.32C123.24,-27.76 114.61,-29.22 106.35,-30.62"/>
<polygon fill="midnightblue" stroke="midnightblue" points="132.33,-29.76 141.6,-24.64 131.16,-22.86 132.33,-29.76"/>
</g>
</g>
</svg>
