<?xml version="1.0" encoding="UTF-8" standalone="no"?>
<!DOCTYPE svg PUBLIC "-//W3C//DTD SVG 1.1//EN"
 "http://www.w3.org/Graphics/SVG/1.1/DTD/svg11.dtd">
<!-- Generated by graphviz version 14.1.4 (20260321.0153)
 -->
<!-- Title: sensesp::SKWSClient::subscribe_listeners Pages: 1 -->
<svg width="273pt" height="186pt"
 viewBox="0.00 0.00 273.00 186.00" xmlns="http://www.w3.org/2000/svg" xmlns:xlink="http://www.w3.org/1999/xlink">
<g id="graph0" class="graph" transform="scale(1 1) rotate(0) translate(4 181.5)">
<title>sensesp::SKWSClient::subscribe_listeners</title>
<!-- Node1 -->
<g id="Node000001" class="node">
<title>Node1</title>
<g id="a_Node000001"><a xlink:title="Subscribes the SK delta paths to the websocket.">
<polygon fill="#999999" stroke="#666666" points="114.25,-103.5 0,-103.5 0,-73 114.25,-73 114.25,-103.5"/>
<text xml:space="preserve" text-anchor="start" x="8" y="-90" font-family="Helvetica,sans-Serif" font-size="10.00">sensesp::SKWSClient</text>
<text xml:space="preserve" text-anchor="middle" x="57.12" y="-78.75" font-family="Helvetica,sans-Serif" font-size="10.00">::subscribe_listeners</text>
</a>
</g>
</g>
<!-- Node2 -->
<g id="Node000002" class="node">
<title>Node2</title>
<g id="a_Node000002"><a xlink:href="classsensesp_1_1_s_k_w_s_client.html#a4b743aa1377f34235482a2bbc6400698" target="_top" xlink:title=" ">
<polygon fill="white" stroke="#666666" points="265.25,-177.5 150.25,-177.5 150.25,-147 265.25,-147 265.25,-177.5"/>
<text xml:space="preserve" text-anchor="start" x="158.25" y="-164" font-family="Helvetica,sans-Serif" font-size="10.00">sensesp::SKWSClient</text>
<text xml:space="preserve" text-anchor="middle" x="207.75" y="-152.75" font-family="Helvetica,sans-Serif" font-size="10.00">::get_connection_state</text>
</a>
</g>
</g>
<!-- Node1&#45;&gt;Node2 -->
<g id="edge1_Node000001_Node000002" class="edge">
<title>Node1&#45;&gt;Node2</title>
<g id="a_edge1_Node000001_Node000002"><a xlink:title=" ">
<path fill="none" stroke="#63b8ff" d="M86.08,-103.79C104.2,-113.7 128.42,-126.63 150.25,-137.25 153.48,-138.82 156.83,-140.41 160.22,-141.98"/>
<polygon fill="#63b8ff" stroke="#63b8ff" points="158.47,-145.03 169.03,-146 161.38,-138.67 158.47,-145.03"/>
</a>
</g>
</g>
<!-- Node3 -->
<g id="Node000003" class="node">
<title>Node3</title>
<g id="a_Node000003"><a xlink:href="classsensesp_1_1_s_k_listener.html#aa5875c60b11cb6b405038b16ef148740" target="_top" xlink:title=" ">
<polygon fill="white" stroke="#666666" points="261.12,-128.5 154.38,-128.5 154.38,-98 261.12,-98 261.12,-128.5"/>
<text xml:space="preserve" text-anchor="start" x="162.38" y="-115" font-family="Helvetica,sans-Serif" font-size="10.00">sensesp::SKListener</text>
<text xml:space="preserve" text-anchor="middle" x="207.75" y="-103.75" font-family="Helvetica,sans-Serif" font-size="10.00">::get_listeners</text>
</a>
</g>
</g>
<!-- Node1&#45;&gt;Node3 -->
<g id="edge2_Node000001_Node000003" class="edge">
<title>Node1&#45;&gt;Node3</title>
<g id="a_edge2_Node000001_Node000003"><a xlink:title=" ">
<path fill="none" stroke="#63b8ff" d="M114.74,-97.77C123.95,-99.32 133.55,-100.94 142.93,-102.51"/>
<polygon fill="#63b8ff" stroke="#63b8ff" points="142.27,-105.95 152.71,-104.16 143.43,-99.05 142.27,-105.95"/>
</a>
</g>
</g>
<!-- Node4 -->
<g id="Node000004" class="node">
<title>Node4</title>
<g id="a_Node000004"><a xlink:href="classsensesp_1_1_s_k_listener.html#a16e7abf03f11f1734cb33388c0517cd8" target="_top" xlink:title=" ">
<polygon fill="white" stroke="#666666" points="261.12,-79.5 154.38,-79.5 154.38,-49 261.12,-49 261.12,-79.5"/>
<text xml:space="preserve" text-anchor="start" x="162.38" y="-66" font-family="Helvetica,sans-Serif" font-size="10.00">sensesp::SKListener</text>
<text xml:space="preserve" text-anchor="middle" x="207.75" y="-54.75" font-family="Helvetica,sans-Serif" font-size="10.00">::release_semaphore</text>
</a>
</g>
</g>
<!-- Node1&#45;&gt;Node4 -->
<g id="edge3_Node000001_Node000004" class="edge">
<title>Node1&#45;&gt;Node4</title>
<g id="a_edge3_Node000001_Node000004"><a xlink:title=" ">
<path fill="none" stroke="#63b8ff" d="M114.74,-79.11C123.95,-77.62 133.55,-76.07 142.93,-74.56"/>
<polygon fill="#63b8ff" stroke="#63b8ff" points="143.4,-78.03 152.71,-72.98 142.28,-71.12 143.4,-78.03"/>
</a>
</g>
</g>
<!-- Node5 -->
<g id="Node000005" class="node">
<title>Node5</title>
<g id="a_Node000005"><a xlink:href="classsensesp_1_1_s_k_listener.html#a07c3b13156e9156f03858b5003b1cde5" target="_top" xlink:title=" ">
<polygon fill="white" stroke="#666666" points="261.12,-30.5 154.38,-30.5 154.38,0 261.12,0 261.12,-30.5"/>
<text xml:space="preserve" text-anchor="start" x="162.38" y="-17" font-family="Helvetica,sans-Serif" font-size="10.00">sensesp::SKListener</text>
<text xml:space="preserve" text-anchor="middle" x="207.75" y="-5.75" font-family="Helvetica,sans-Serif" font-size="10.00">::take_semaphore</text>
</a>
</g>
</g>
<!-- Node1&#45;&gt;Node5 -->
<g id="edge4_Node000001_Node000005" class="edge">
<title>Node1&#45;&gt;Node5</title>
<g id="a_edge4_Node000001_Node000005"><a xlink:title=" ">
<path fill="none" stroke="#63b8ff" d="M86.93,-72.64C104.98,-63.01 128.8,-50.57 150.25,-40.25 153.49,-38.69 156.85,-37.11 160.24,-35.55"/>
<polygon fill="#63b8ff" stroke="#63b8ff" points="161.39,-38.87 169.05,-31.54 158.49,-32.49 161.39,-38.87"/>
</a>
</g>
</g>
</g>
</svg>
