<?xml version="1.0" encoding="UTF-8" standalone="no"?>
<!DOCTYPE svg PUBLIC "-//W3C//DTD SVG 1.1//EN"
 "http://www.w3.org/Graphics/SVG/1.1/DTD/svg11.dtd">
<!-- Generated by graphviz version 14.1.4 (20260321.0153)
 -->
<!-- Title: sensesp::SmartSwitchController::SmartSwitchController Pages: 1 -->
<svg width="849pt" height="223pt"
 viewBox="0.00 0.00 849.00 223.00" xmlns="http://www.w3.org/2000/svg" xmlns:xlink="http://www.w3.org/1999/xlink">
<g id="graph0" class="graph" transform="scale(1 1) rotate(0) translate(4 218.5)">
<title>sensesp::SmartSwitchController::SmartSwitchController</title>
<!-- Node1 -->
<g id="Node000001" class="node">
<title>Node1</title>
<g id="a_Node000001"><a xlink:title=" ">
<polygon fill="#999999" stroke="#666666" points="157,-149.5 0,-149.5 0,-119 157,-119 157,-149.5"/>
<text xml:space="preserve" text-anchor="start" x="8" y="-136" font-family="Helvetica,sans-Serif" font-size="10.00">sensesp::SmartSwitchController</text>
<text xml:space="preserve" text-anchor="middle" x="78.5" y="-124.75" font-family="Helvetica,sans-Serif" font-size="10.00">::SmartSwitchController</text>
</a>
</g>
</g>
<!-- Node2 -->
<g id="Node000002" class="node">
<title>Node2</title>
<g id="a_Node000002"><a xlink:href="classsensesp_1_1_value_producer.html#a4f5f0259d0d3cd9a0ed17d657cac04e2" target="_top" xlink:title=" ">
<polygon fill="white" stroke="#666666" points="328.25,-214.5 206.5,-214.5 206.5,-184 328.25,-184 328.25,-214.5"/>
<text xml:space="preserve" text-anchor="start" x="214.5" y="-201" font-family="Helvetica,sans-Serif" font-size="10.00">sensesp::ValueProducer</text>
<text xml:space="preserve" text-anchor="middle" x="267.38" y="-189.75" font-family="Helvetica,sans-Serif" font-size="10.00">&lt; bool &gt;::emit</text>
</a>
</g>
</g>
<!-- Node1&#45;&gt;Node2 -->
<g id="edge1_Node000001_Node000002" class="edge">
<title>Node1&#45;&gt;Node2</title>
<g id="a_edge1_Node000001_Node000002"><a xlink:title=" ">
<path fill="none" stroke="#63b8ff" d="M121.97,-149.94C143.24,-157.71 169.42,-167.14 193,-175.25 197.62,-176.84 202.4,-178.46 207.22,-180.07"/>
<polygon fill="#63b8ff" stroke="#63b8ff" points="205.73,-183.27 216.32,-183.1 207.94,-176.62 205.73,-183.27"/>
</a>
</g>
</g>
<!-- Node3 -->
<g id="Node000003" class="node">
<title>Node3</title>
<g id="a_Node000003"><a xlink:href="namespacesensesp.html#a1c1105507d71491cf4e0505eaabb2e49" target="_top" xlink:title=" ">
<polygon fill="white" stroke="#666666" points="320.38,-165.88 214.38,-165.88 214.38,-146.62 320.38,-146.62 320.38,-165.88"/>
<text xml:space="preserve" text-anchor="middle" x="267.38" y="-152.38" font-family="Helvetica,sans-Serif" font-size="10.00">sensesp::event_loop</text>
</a>
</g>
</g>
<!-- Node1&#45;&gt;Node3 -->
<g id="edge2_Node000001_Node000003" class="edge">
<title>Node1&#45;&gt;Node3</title>
<g id="a_edge2_Node000001_Node000003"><a xlink:title=" ">
<path fill="none" stroke="#63b8ff" d="M157.4,-143.42C172.49,-145.2 188.14,-147.04 202.71,-148.76"/>
<polygon fill="#63b8ff" stroke="#63b8ff" points="202.29,-152.23 212.63,-149.92 203.11,-145.28 202.29,-152.23"/>
</a>
</g>
</g>
<!-- Node6 -->
<g id="Node000006" class="node">
<title>Node6</title>
<g id="a_Node000006"><a xlink:href="classsensesp_1_1_file_system_saveable.html#a974f062b375cf8637944f121084cf9f7" target="_top" xlink:title=" ">
<polygon fill="white" stroke="#666666" points="341.75,-128.5 193,-128.5 193,-98 341.75,-98 341.75,-128.5"/>
<text xml:space="preserve" text-anchor="start" x="201" y="-115" font-family="Helvetica,sans-Serif" font-size="10.00">sensesp::FileSystemSaveable</text>
<text xml:space="preserve" text-anchor="middle" x="267.38" y="-103.75" font-family="Helvetica,sans-Serif" font-size="10.00">::FileSystemSaveable</text>
</a>
</g>
</g>
<!-- Node1&#45;&gt;Node6 -->
<g id="edge5_Node000001_Node000006" class="edge">
<title>Node1&#45;&gt;Node6</title>
<g id="a_edge5_Node000001_Node000006"><a xlink:title=" ">
<path fill="none" stroke="#63b8ff" d="M157.4,-125.5C165.36,-124.6 173.48,-123.69 181.52,-122.79"/>
<polygon fill="#63b8ff" stroke="#63b8ff" points="181.74,-126.28 191.29,-121.69 180.96,-119.33 181.74,-126.28"/>
</a>
</g>
</g>
<!-- Node8 -->
<g id="Node000008" class="node">
<title>Node8</title>
<g id="a_Node000008"><a xlink:href="classsensesp_1_1_file_system_saveable.html#a79b2e2e657112851dfda8785d217578a" target="_top" xlink:title="Load and populate the object from a persistent storage.">
<polygon fill="white" stroke="#666666" points="341.75,-79.5 193,-79.5 193,-49 341.75,-49 341.75,-79.5"/>
<text xml:space="preserve" text-anchor="start" x="201" y="-66" font-family="Helvetica,sans-Serif" font-size="10.00">sensesp::FileSystemSaveable</text>
<text xml:space="preserve" text-anchor="middle" x="267.38" y="-54.75" font-family="Helvetica,sans-Serif" font-size="10.00">::load</text>
</a>
</g>
</g>
<!-- Node1&#45;&gt;Node8 -->
<g id="edge7_Node000001_Node000008" class="edge">
<title>Node1&#45;&gt;Node8</title>
<g id="a_edge7_Node000001_Node000008"><a xlink:title=" ">
<path fill="none" stroke="#63b8ff" d="M117.67,-118.57C139.61,-109.7 167.74,-98.55 193,-89.25 198.02,-87.4 203.26,-85.52 208.52,-83.67"/>
<polygon fill="#63b8ff" stroke="#63b8ff" points="209.56,-87.01 217.85,-80.41 207.26,-80.4 209.56,-87.01"/>
</a>
</g>
</g>
<!-- Node4 -->
<g id="Node000004" class="node">
<title>Node4</title>
<g id="a_Node000004"><a xlink:href="classsensesp_1_1_sens_e_s_p_base_app.html#a28c20eed17bfc460e6686a11c5b3b107" target="_top" xlink:title="Get the event loop object from the singleton SensESPBaseApp instance.">
<polygon fill="white" stroke="#666666" points="522.75,-177.5 381.5,-177.5 381.5,-147 522.75,-147 522.75,-177.5"/>
<text xml:space="preserve" text-anchor="start" x="389.5" y="-164" font-family="Helvetica,sans-Serif" font-size="10.00">sensesp::SensESPBaseApp</text>
<text xml:space="preserve" text-anchor="middle" x="452.12" y="-152.75" font-family="Helvetica,sans-Serif" font-size="10.00">::get_event_loop</text>
</a>
</g>
</g>
<!-- Node3&#45;&gt;Node4 -->
<g id="edge3_Node000003_Node000004" class="edge">
<title>Node3&#45;&gt;Node4</title>
<g id="a_edge3_Node000003_Node000004"><a xlink:title=" ">
<path fill="none" stroke="#63b8ff" d="M320.74,-157.97C336,-158.47 353.04,-159.03 369.64,-159.57"/>
<polygon fill="#63b8ff" stroke="#63b8ff" points="369.41,-163.07 379.52,-159.9 369.64,-156.07 369.41,-163.07"/>
</a>
</g>
</g>
<!-- Node5 -->
<g id="Node000005" class="node">
<title>Node5</title>
<g id="a_Node000005"><a xlink:href="classsensesp_1_1_sens_e_s_p_base_app.html#add2c67bb55d095ab9c64f44ab2e82612" target="_top" xlink:title="Get the singleton instance of the SensESPBaseApp.">
<polygon fill="white" stroke="#666666" points="723.25,-171.88 562.5,-171.88 562.5,-152.62 723.25,-152.62 723.25,-171.88"/>
<text xml:space="preserve" text-anchor="middle" x="642.88" y="-158.38" font-family="Helvetica,sans-Serif" font-size="10.00">sensesp::SensESPBaseApp::get</text>
</a>
</g>
</g>
<!-- Node4&#45;&gt;Node5 -->
<g id="edge4_Node000004_Node000005" class="edge">
<title>Node4&#45;&gt;Node5</title>
<g id="a_edge4_Node000004_Node000005"><a xlink:title=" ">
<path fill="none" stroke="#63b8ff" d="M523.14,-162.25C532.17,-162.25 541.51,-162.25 550.81,-162.25"/>
<polygon fill="#63b8ff" stroke="#63b8ff" points="550.6,-165.75 560.6,-162.25 550.6,-158.75 550.6,-165.75"/>
</a>
</g>
</g>
<!-- Node7 -->
<g id="Node000007" class="node">
<title>Node7</title>
<g id="a_Node000007"><a xlink:href="classsensesp_1_1_saveable.html#abaa7864f4f35be033ad5f32a379051d7" target="_top" xlink:title=" ">
<polygon fill="white" stroke="#666666" points="504.75,-128.5 399.5,-128.5 399.5,-98 504.75,-98 504.75,-128.5"/>
<text xml:space="preserve" text-anchor="start" x="407.5" y="-115" font-family="Helvetica,sans-Serif" font-size="10.00">sensesp::Saveable::</text>
<text xml:space="preserve" text-anchor="middle" x="452.12" y="-103.75" font-family="Helvetica,sans-Serif" font-size="10.00">Saveable</text>
</a>
</g>
</g>
<!-- Node6&#45;&gt;Node7 -->
<g id="edge6_Node000006_Node000007" class="edge">
<title>Node6&#45;&gt;Node7</title>
<g id="a_edge6_Node000006_Node000007"><a xlink:title=" ">
<path fill="none" stroke="#63b8ff" d="M342.18,-113.25C357.42,-113.25 373.33,-113.25 388.14,-113.25"/>
<polygon fill="#63b8ff" stroke="#63b8ff" points="387.7,-116.75 397.7,-113.25 387.7,-109.75 387.7,-116.75"/>
</a>
</g>
</g>
<!-- Node9 -->
<g id="Node000009" class="node">
<title>Node9</title>
<g id="a_Node000009"><a xlink:href="classsensesp_1_1_file_system_saveable.html#ad0233f7895b5c8915108399420c7cf0b" target="_top" xlink:title=" ">
<polygon fill="white" stroke="#666666" points="526.5,-79.5 377.75,-79.5 377.75,-49 526.5,-49 526.5,-79.5"/>
<text xml:space="preserve" text-anchor="start" x="385.75" y="-66" font-family="Helvetica,sans-Serif" font-size="10.00">sensesp::FileSystemSaveable</text>
<text xml:space="preserve" text-anchor="middle" x="452.12" y="-54.75" font-family="Helvetica,sans-Serif" font-size="10.00">::find_config_file</text>
</a>
</g>
</g>
<!-- Node8&#45;&gt;Node9 -->
<g id="edge8_Node000008_Node000009" class="edge">
<title>Node8&#45;&gt;Node9</title>
<g id="a_edge8_Node000008_Node000009"><a xlink:title=" ">
<path fill="none" stroke="#63b8ff" d="M342.18,-64.25C349.97,-64.25 357.93,-64.25 365.83,-64.25"/>
<polygon fill="#63b8ff" stroke="#63b8ff" points="365.83,-67.75 375.83,-64.25 365.83,-60.75 365.83,-67.75"/>
</a>
</g>
</g>
<!-- Node12 -->
<g id="Node000012" class="node">
<title>Node12</title>
<g id="a_Node000012"><a xlink:href="classsensesp_1_1_serializable.html#a841233a82ef3a7fbcecd5a15b0df12d2" target="_top" xlink:title=" ">
<polygon fill="white" stroke="#666666" points="506.62,-30.5 397.62,-30.5 397.62,0 506.62,0 506.62,-30.5"/>
<text xml:space="preserve" text-anchor="start" x="405.62" y="-17" font-family="Helvetica,sans-Serif" font-size="10.00">sensesp::Serializable</text>
<text xml:space="preserve" text-anchor="middle" x="452.12" y="-5.75" font-family="Helvetica,sans-Serif" font-size="10.00">::from_json</text>
</a>
</g>
</g>
<!-- Node8&#45;&gt;Node12 -->
<g id="edge11_Node000008_Node000012" class="edge">
<title>Node8&#45;&gt;Node12</title>
<g id="a_edge11_Node000008_Node000012"><a xlink:title=" ">
<path fill="none" stroke="#63b8ff" d="M326.95,-48.54C345.89,-43.47 367,-37.81 386.36,-32.62"/>
<polygon fill="#63b8ff" stroke="#63b8ff" points="387,-36.07 395.76,-30.1 385.19,-29.31 387,-36.07"/>
</a>
</g>
</g>
<!-- Node10 -->
<g id="Node000010" class="node">
<title>Node10</title>
<g id="a_Node000010"><a xlink:href="namespacesensesp.html#adad24461f43358c45017cf1cb816ca60" target="_top" xlink:title="A base64&#45;encoded SHA&#45;1 hash function.">
<polygon fill="white" stroke="#666666" points="700,-73.88 585.75,-73.88 585.75,-54.62 700,-54.62 700,-73.88"/>
<text xml:space="preserve" text-anchor="middle" x="642.88" y="-60.38" font-family="Helvetica,sans-Serif" font-size="10.00">sensesp::Base64Sha1</text>
</a>
</g>
</g>
<!-- Node9&#45;&gt;Node10 -->
<g id="edge9_Node000009_Node000010" class="edge">
<title>Node9&#45;&gt;Node10</title>
<g id="a_edge9_Node000009_Node000010"><a xlink:title=" ">
<path fill="none" stroke="#63b8ff" d="M526.91,-64.25C542.4,-64.25 558.67,-64.25 573.93,-64.25"/>
<polygon fill="#63b8ff" stroke="#63b8ff" points="573.87,-67.75 583.87,-64.25 573.87,-60.75 573.87,-67.75"/>
</a>
</g>
</g>
<!-- Node11 -->
<g id="Node000011" class="node">
<title>Node11</title>
<g id="a_Node000011"><a xlink:href="namespacesensesp.html#a37dfeb5f75b7115464a9aa40473d69cf" target="_top" xlink:title="SHA&#45;1 hash function.">
<polygon fill="white" stroke="#666666" points="840.5,-73.88 759.25,-73.88 759.25,-54.62 840.5,-54.62 840.5,-73.88"/>
<text xml:space="preserve" text-anchor="middle" x="799.88" y="-60.38" font-family="Helvetica,sans-Serif" font-size="10.00">sensesp::Sha1</text>
</a>
</g>
</g>
<!-- Node10&#45;&gt;Node11 -->
<g id="edge10_Node000010_Node000011" class="edge">
<title>Node10&#45;&gt;Node11</title>
<g id="a_edge10_Node000010_Node000011"><a xlink:title=" ">
<path fill="none" stroke="#63b8ff" d="M700.27,-64.25C715.72,-64.25 732.39,-64.25 747.54,-64.25"/>
<polygon fill="#63b8ff" stroke="#63b8ff" points="747.27,-67.75 757.27,-64.25 747.27,-60.75 747.27,-67.75"/>
</a>
</g>
</g>
</g>
</svg>
