<?xml version="1.0" encoding="UTF-8" standalone="no"?>
<!DOCTYPE svg PUBLIC "-//W3C//DTD SVG 1.1//EN"
 "http://www.w3.org/Graphics/SVG/1.1/DTD/svg11.dtd">
<!-- Generated by graphviz version 14.1.1 (20251213.1925)
 -->
<!-- Title: sensesp::DigitalInputCounter::DigitalInputCounter Pages: 1 -->
<svg width="788pt" height="137pt"
 viewBox="0.00 0.00 788.00 137.00" xmlns="http://www.w3.org/2000/svg" xmlns:xlink="http://www.w3.org/1999/xlink">
<g id="graph0" class="graph" transform="scale(1 1) rotate(0) translate(4 132.5)">
<title>sensesp::DigitalInputCounter::DigitalInputCounter</title>
<!-- Node1 -->
<g id="Node000001" class="node">
<title>Node1</title>
<g id="a_Node000001"><a xlink:title=" ">
<polygon fill="#999999" stroke="#666666" points="142.75,-79.5 0,-79.5 0,-49 142.75,-49 142.75,-79.5"/>
<text xml:space="preserve" text-anchor="start" x="8" y="-66" font-family="Helvetica,sans-Serif" font-size="10.00">sensesp::DigitalInputCounter</text>
<text xml:space="preserve" text-anchor="middle" x="71.38" y="-54.75" font-family="Helvetica,sans-Serif" font-size="10.00">::DigitalInputCounter</text>
</a>
</g>
</g>
<!-- Node2 -->
<g id="Node000002" class="node">
<title>Node2</title>
<g id="a_Node000002"><a xlink:href="classsensesp_1_1_digital_input.html#a95fa64f075a2fd8c82d43c87999fa3dc" target="_top" xlink:title=" ">
<polygon fill="white" stroke="#666666" points="307.25,-128.5 199,-128.5 199,-98 307.25,-98 307.25,-128.5"/>
<text xml:space="preserve" text-anchor="start" x="207" y="-115" font-family="Helvetica,sans-Serif" font-size="10.00">sensesp::DigitalInput</text>
<text xml:space="preserve" text-anchor="middle" x="253.12" y="-103.75" font-family="Helvetica,sans-Serif" font-size="10.00">::DigitalInput</text>
</a>
</g>
</g>
<!-- Node1&#45;&gt;Node2 -->
<g id="edge1_Node000001_Node000002" class="edge">
<title>Node1&#45;&gt;Node2</title>
<g id="a_edge1_Node000001_Node000002"><a xlink:title=" ">
<path fill="none" stroke="#63b8ff" d="M129.74,-79.89C148.21,-84.92 168.79,-90.53 187.73,-95.7"/>
<polygon fill="#63b8ff" stroke="#63b8ff" points="186.63,-99.02 197.2,-98.28 188.47,-92.27 186.63,-99.02"/>
</a>
</g>
</g>
<!-- Node3 -->
<g id="Node000003" class="node">
<title>Node3</title>
<g id="a_Node000003"><a xlink:href="classsensesp_1_1_file_system_saveable.html#a79b2e2e657112851dfda8785d217578a" target="_top" xlink:title="Load and populate the object from a persistent storage.">
<polygon fill="white" stroke="#666666" points="327.5,-79.5 178.75,-79.5 178.75,-49 327.5,-49 327.5,-79.5"/>
<text xml:space="preserve" text-anchor="start" x="186.75" y="-66" font-family="Helvetica,sans-Serif" font-size="10.00">sensesp::FileSystemSaveable</text>
<text xml:space="preserve" text-anchor="middle" x="253.12" y="-54.75" font-family="Helvetica,sans-Serif" font-size="10.00">::load</text>
</a>
</g>
</g>
<!-- Node1&#45;&gt;Node3 -->
<g id="edge2_Node000001_Node000003" class="edge">
<title>Node1&#45;&gt;Node3</title>
<g id="a_edge2_Node000001_Node000003"><a xlink:title=" ">
<path fill="none" stroke="#63b8ff" d="M143.16,-64.25C151.04,-64.25 159.12,-64.25 167.16,-64.25"/>
<polygon fill="#63b8ff" stroke="#63b8ff" points="166.94,-67.75 176.94,-64.25 166.94,-60.75 166.94,-67.75"/>
</a>
</g>
</g>
<!-- Node8 -->
<g id="Node000008" class="node">
<title>Node8</title>
<g id="a_Node000008"><a xlink:href="classsensesp_1_1_sensor.html#a837f5d9603388daaca04d78eaedd5d64" target="_top" xlink:title=" ">
<polygon fill="white" stroke="#666666" points="307.62,-30.5 198.62,-30.5 198.62,0 307.62,0 307.62,-30.5"/>
<text xml:space="preserve" text-anchor="start" x="206.62" y="-17" font-family="Helvetica,sans-Serif" font-size="10.00">sensesp::Sensor&lt; int</text>
<text xml:space="preserve" text-anchor="middle" x="253.12" y="-5.75" font-family="Helvetica,sans-Serif" font-size="10.00"> &gt;::Sensor</text>
</a>
</g>
</g>
<!-- Node1&#45;&gt;Node8 -->
<g id="edge8_Node000001_Node000008" class="edge">
<title>Node1&#45;&gt;Node8</title>
<g id="a_edge8_Node000001_Node000008"><a xlink:title=" ">
<path fill="none" stroke="#63b8ff" d="M129.74,-48.61C148.12,-43.6 168.6,-38.02 187.46,-32.88"/>
<polygon fill="#63b8ff" stroke="#63b8ff" points="188.17,-36.31 196.9,-30.31 186.33,-29.56 188.17,-36.31"/>
</a>
</g>
</g>
<!-- Node4 -->
<g id="Node000004" class="node">
<title>Node4</title>
<g id="a_Node000004"><a xlink:href="namespacesensesp.html#adad24461f43358c45017cf1cb816ca60" target="_top" xlink:title="A base64&#45;encoded SHA&#45;1 hash function.">
<polygon fill="white" stroke="#666666" points="662.5,-94.88 548.25,-94.88 548.25,-75.62 662.5,-75.62 662.5,-94.88"/>
<text xml:space="preserve" text-anchor="middle" x="605.38" y="-81.38" font-family="Helvetica,sans-Serif" font-size="10.00">sensesp::Base64Sha1</text>
</a>
</g>
</g>
<!-- Node3&#45;&gt;Node4 -->
<g id="edge3_Node000003_Node000004" class="edge">
<title>Node3&#45;&gt;Node4</title>
<g id="a_edge3_Node000003_Node000004"><a xlink:title=" ">
<path fill="none" stroke="#63b8ff" d="M314.77,-80C330.53,-83.41 347.56,-86.52 363.5,-88.25 429.23,-95.38 446.15,-89.33 512.25,-88.25 520.08,-88.12 528.28,-87.93 536.43,-87.71"/>
<polygon fill="#63b8ff" stroke="#63b8ff" points="536.46,-91.21 546.35,-87.42 536.26,-84.22 536.46,-91.21"/>
</a>
</g>
</g>
<!-- Node6 -->
<g id="Node000006" class="node">
<title>Node6</title>
<g id="a_Node000006"><a xlink:href="classsensesp_1_1_file_system_saveable.html#ad0233f7895b5c8915108399420c7cf0b" target="_top" xlink:title=" ">
<polygon fill="white" stroke="#666666" points="512.25,-79.5 363.5,-79.5 363.5,-49 512.25,-49 512.25,-79.5"/>
<text xml:space="preserve" text-anchor="start" x="371.5" y="-66" font-family="Helvetica,sans-Serif" font-size="10.00">sensesp::FileSystemSaveable</text>
<text xml:space="preserve" text-anchor="middle" x="437.88" y="-54.75" font-family="Helvetica,sans-Serif" font-size="10.00">::find_config_file</text>
</a>
</g>
</g>
<!-- Node3&#45;&gt;Node6 -->
<g id="edge5_Node000003_Node000006" class="edge">
<title>Node3&#45;&gt;Node6</title>
<g id="a_edge5_Node000003_Node000006"><a xlink:title=" ">
<path fill="none" stroke="#63b8ff" d="M327.93,-64.25C335.72,-64.25 343.68,-64.25 351.58,-64.25"/>
<polygon fill="#63b8ff" stroke="#63b8ff" points="351.58,-67.75 361.58,-64.25 351.58,-60.75 351.58,-67.75"/>
</a>
</g>
</g>
<!-- Node7 -->
<g id="Node000007" class="node">
<title>Node7</title>
<g id="a_Node000007"><a xlink:href="classsensesp_1_1_serializable.html#a841233a82ef3a7fbcecd5a15b0df12d2" target="_top" xlink:title=" ">
<polygon fill="white" stroke="#666666" points="492.38,-30.5 383.38,-30.5 383.38,0 492.38,0 492.38,-30.5"/>
<text xml:space="preserve" text-anchor="start" x="391.38" y="-17" font-family="Helvetica,sans-Serif" font-size="10.00">sensesp::Serializable</text>
<text xml:space="preserve" text-anchor="middle" x="437.88" y="-5.75" font-family="Helvetica,sans-Serif" font-size="10.00">::from_json</text>
</a>
</g>
</g>
<!-- Node3&#45;&gt;Node7 -->
<g id="edge7_Node000003_Node000007" class="edge">
<title>Node3&#45;&gt;Node7</title>
<g id="a_edge7_Node000003_Node000007"><a xlink:title=" ">
<path fill="none" stroke="#63b8ff" d="M312.7,-48.54C331.64,-43.47 352.75,-37.81 372.11,-32.62"/>
<polygon fill="#63b8ff" stroke="#63b8ff" points="372.75,-36.07 381.51,-30.1 370.94,-29.31 372.75,-36.07"/>
</a>
</g>
</g>
<!-- Node5 -->
<g id="Node000005" class="node">
<title>Node5</title>
<g id="a_Node000005"><a xlink:href="namespacesensesp.html#a37dfeb5f75b7115464a9aa40473d69cf" target="_top" xlink:title="SHA&#45;1 hash function.">
<polygon fill="white" stroke="#666666" points="779.75,-94.88 698.5,-94.88 698.5,-75.62 779.75,-75.62 779.75,-94.88"/>
<text xml:space="preserve" text-anchor="middle" x="739.12" y="-81.38" font-family="Helvetica,sans-Serif" font-size="10.00">sensesp::Sha1</text>
</a>
</g>
</g>
<!-- Node4&#45;&gt;Node5 -->
<g id="edge4_Node000004_Node000005" class="edge">
<title>Node4&#45;&gt;Node5</title>
<g id="a_edge4_Node000004_Node000005"><a xlink:title=" ">
<path fill="none" stroke="#63b8ff" d="M662.63,-85.25C670.71,-85.25 678.99,-85.25 686.97,-85.25"/>
<polygon fill="#63b8ff" stroke="#63b8ff" points="686.87,-88.75 696.87,-85.25 686.87,-81.75 686.87,-88.75"/>
</a>
</g>
</g>
<!-- Node6&#45;&gt;Node4 -->
<g id="edge6_Node000006_Node000004" class="edge">
<title>Node6&#45;&gt;Node4</title>
<g id="a_edge6_Node000006_Node000004"><a xlink:title=" ">
<path fill="none" stroke="#63b8ff" d="M512.43,-73.58C520.53,-74.61 528.74,-75.65 536.76,-76.67"/>
<polygon fill="#63b8ff" stroke="#63b8ff" points="536.08,-80.11 546.44,-77.9 536.96,-73.17 536.08,-80.11"/>
</a>
</g>
</g>
</g>
</svg>
