<?xml version="1.0" encoding="UTF-8" standalone="no"?>
<!DOCTYPE svg PUBLIC "-//W3C//DTD SVG 1.1//EN"
 "http://www.w3.org/Graphics/SVG/1.1/DTD/svg11.dtd">
<!-- Generated by graphviz version 7.1.0 (20230121.1956)
 -->
<!-- Title: sensesp::BaseBlinker::flip_state Pages: 1 -->
<svg width="269pt" height="122pt"
 viewBox="0.00 0.00 269.00 122.00" xmlns="http://www.w3.org/2000/svg" xmlns:xlink="http://www.w3.org/1999/xlink">
<g id="graph0" class="graph" transform="scale(1 1) rotate(0) translate(4 118)">
<title>sensesp::BaseBlinker::flip_state</title>
<!-- Node1 -->
<g id="node1" class="node">
<title>Node1</title>
<g id="a_node1"><a xlink:title=" ">
<polygon fill="#999999" stroke="#666666" points="261,-63 149,-63 149,-33 261,-33 261,-63"/>
<text text-anchor="start" x="157" y="-51" font-family="Helvetica,sans-Serif" font-size="10.00">sensesp::BaseBlinker</text>
<text text-anchor="middle" x="205" y="-40" font-family="Helvetica,sans-Serif" font-size="10.00">::flip_state</text>
</a>
</g>
</g>
<!-- Node2 -->
<g id="node2" class="node">
<title>Node2</title>
<g id="a_node2"><a xlink:href="classsensesp_1_1_even_blinker.html#a6f87d9fcca41caee65f8fccfc4565198" target="_top" xlink:title=" ">
<polygon fill="white" stroke="#666666" points="112.5,-96 0.5,-96 0.5,-66 112.5,-66 112.5,-96"/>
<text text-anchor="start" x="8.5" y="-84" font-family="Helvetica,sans-Serif" font-size="10.00">sensesp::EvenBlinker</text>
<text text-anchor="middle" x="56.5" y="-73" font-family="Helvetica,sans-Serif" font-size="10.00">::tick</text>
</a>
</g>
</g>
<!-- Node1&#45;&gt;Node2 -->
<g id="edge1" class="edge">
<title>Node1&#45;&gt;Node2</title>
<path fill="none" stroke="#63b8ff" d="M137.53,-62.97C129.31,-64.82 120.99,-66.7 112.96,-68.51"/>
<polygon fill="#63b8ff" stroke="#63b8ff" points="138.15,-66.42 147.14,-60.81 136.61,-59.59 138.15,-66.42"/>
</g>
<!-- Node3 -->
<g id="node3" class="node">
<title>Node3</title>
<g id="a_node3"><a xlink:href="classsensesp_1_1_ratio_blinker.html#ae94fa2e573604451aa197489d069a19b" target="_top" xlink:title=" ">
<polygon fill="white" stroke="#666666" points="113,-30 0,-30 0,0 113,0 113,-30"/>
<text text-anchor="start" x="8" y="-18" font-family="Helvetica,sans-Serif" font-size="10.00">sensesp::RatioBlinker</text>
<text text-anchor="middle" x="56.5" y="-7" font-family="Helvetica,sans-Serif" font-size="10.00">::tick</text>
</a>
</g>
</g>
<!-- Node1&#45;&gt;Node3 -->
<g id="edge3" class="edge">
<title>Node1&#45;&gt;Node3</title>
<path fill="none" stroke="#63b8ff" d="M137.41,-33C129.4,-31.2 121.28,-29.37 113.45,-27.6"/>
<polygon fill="#63b8ff" stroke="#63b8ff" points="136.61,-36.41 147.14,-35.19 138.15,-29.58 136.61,-36.41"/>
</g>
<!-- Node2&#45;&gt;Node2 -->
<g id="edge2" class="edge">
<title>Node2&#45;&gt;Node2</title>
<path fill="none" stroke="#63b8ff" d="M81.56,-107.61C77.54,-111.43 69.19,-114 56.5,-114 33.3,-114 24.6,-105.41 30.4,-96.28"/>
<polygon fill="#63b8ff" stroke="#63b8ff" points="85.03,-108.06 82.46,-97.78 78.06,-107.42 85.03,-108.06"/>
</g>
<!-- Node3&#45;&gt;Node3 -->
<g id="edge4" class="edge">
<title>Node3&#45;&gt;Node3</title>
<path fill="none" stroke="#63b8ff" d="M81.56,-41.61C77.54,-45.43 69.19,-48 56.5,-48 33.3,-48 24.6,-39.41 30.4,-30.28"/>
<polygon fill="#63b8ff" stroke="#63b8ff" points="85.03,-42.06 82.46,-31.78 78.06,-41.42 85.03,-42.06"/>
</g>
</g>
</svg>
