<?xml version="1.0" encoding="UTF-8" standalone="no"?>
<!DOCTYPE svg PUBLIC "-//W3C//DTD SVG 1.1//EN"
 "http://www.w3.org/Graphics/SVG/1.1/DTD/svg11.dtd">
<!-- Generated by graphviz version 14.1.1 (20251213.1925)
 -->
<!-- Title: sensesp::SKRequest::remove_request Pages: 1 -->
<svg width="605pt" height="88pt"
 viewBox="0.00 0.00 605.00 88.00" xmlns="http://www.w3.org/2000/svg" xmlns:xlink="http://www.w3.org/1999/xlink">
<g id="graph0" class="graph" transform="scale(1 1) rotate(0) translate(4 83.5)">
<title>sensesp::SKRequest::remove_request</title>
<!-- Node1 -->
<g id="Node000001" class="node">
<title>Node1</title>
<g id="a_Node000001"><a xlink:title=" ">
<polygon fill="#999999" stroke="#666666" points="596.5,-54.5 487.5,-54.5 487.5,-24 596.5,-24 596.5,-54.5"/>
<text xml:space="preserve" text-anchor="start" x="495.5" y="-41" font-family="Helvetica,sans-Serif" font-size="10.00">sensesp::SKRequest</text>
<text xml:space="preserve" text-anchor="middle" x="542" y="-29.75" font-family="Helvetica,sans-Serif" font-size="10.00">::remove_request</text>
</a>
</g>
</g>
<!-- Node2 -->
<g id="Node000002" class="node">
<title>Node2</title>
<g id="a_Node000002"><a xlink:href="classsensesp_1_1_s_k_request.html#a272df2b3fe96d053c12597866212ac29" target="_top" xlink:title=" ">
<polygon fill="white" stroke="#666666" points="451.5,-79.5 342.5,-79.5 342.5,-49 451.5,-49 451.5,-79.5"/>
<text xml:space="preserve" text-anchor="start" x="350.5" y="-66" font-family="Helvetica,sans-Serif" font-size="10.00">sensesp::SKRequest</text>
<text xml:space="preserve" text-anchor="middle" x="397" y="-54.75" font-family="Helvetica,sans-Serif" font-size="10.00">::handle_response</text>
</a>
</g>
</g>
<!-- Node1&#45;&gt;Node2 -->
<g id="edge1_Node000001_Node000002" class="edge">
<title>Node1&#45;&gt;Node2</title>
<g id="a_edge1_Node000001_Node000002"><a xlink:title=" ">
<path fill="none" stroke="#63b8ff" d="M476.06,-50.6C468,-52.01 459.83,-53.44 451.96,-54.82"/>
<polygon fill="#63b8ff" stroke="#63b8ff" points="476.61,-54.06 485.85,-48.89 475.4,-47.17 476.61,-54.06"/>
</a>
</g>
</g>
<!-- Node4 -->
<g id="Node000004" class="node">
<title>Node4</title>
<g id="a_Node000004"><a xlink:href="classsensesp_1_1_s_k_request.html#a67358e04e4e3c3341e0aa1663749b374" target="_top" xlink:title=" ">
<polygon fill="white" stroke="#666666" points="451.5,-30.5 342.5,-30.5 342.5,0 451.5,0 451.5,-30.5"/>
<text xml:space="preserve" text-anchor="start" x="350.5" y="-17" font-family="Helvetica,sans-Serif" font-size="10.00">sensesp::SKRequest</text>
<text xml:space="preserve" text-anchor="middle" x="397" y="-5.75" font-family="Helvetica,sans-Serif" font-size="10.00">::send_request</text>
</a>
</g>
</g>
<!-- Node1&#45;&gt;Node4 -->
<g id="edge3_Node000001_Node000004" class="edge">
<title>Node1&#45;&gt;Node4</title>
<g id="a_edge3_Node000001_Node000004"><a xlink:title=" ">
<path fill="none" stroke="#63b8ff" d="M476.06,-28.35C468,-27 459.83,-25.63 451.96,-24.31"/>
<polygon fill="#63b8ff" stroke="#63b8ff" points="475.41,-31.79 485.85,-29.99 476.57,-24.89 475.41,-31.79"/>
</a>
</g>
</g>
<!-- Node3 -->
<g id="Node000003" class="node">
<title>Node3</title>
<g id="a_Node000003"><a xlink:href="classsensesp_1_1_s_k_w_s_client.html#a10433bce2a343bd467b148a5baaaaa08" target="_top" xlink:title="Called when the websocket receives a delta.">
<polygon fill="white" stroke="#666666" points="290.38,-79.5 176.12,-79.5 176.12,-49 290.38,-49 290.38,-79.5"/>
<text xml:space="preserve" text-anchor="start" x="184.12" y="-66" font-family="Helvetica,sans-Serif" font-size="10.00">sensesp::SKWSClient</text>
<text xml:space="preserve" text-anchor="middle" x="233.25" y="-54.75" font-family="Helvetica,sans-Serif" font-size="10.00">::on_receive_delta</text>
</a>
</g>
</g>
<!-- Node2&#45;&gt;Node3 -->
<g id="edge2_Node000002_Node000003" class="edge">
<title>Node2&#45;&gt;Node3</title>
<g id="a_edge2_Node000002_Node000003"><a xlink:title=" ">
<path fill="none" stroke="#63b8ff" d="M330.67,-64.25C317.41,-64.25 303.57,-64.25 290.64,-64.25"/>
<polygon fill="#63b8ff" stroke="#63b8ff" points="330.63,-67.75 340.63,-64.25 330.63,-60.75 330.63,-67.75"/>
</a>
</g>
</g>
<!-- Node5 -->
<g id="Node000005" class="node">
<title>Node5</title>
<g id="a_Node000005"><a xlink:href="classsensesp_1_1_s_k_put_request_base.html#a8a60c171c008e367a92d93f62e291dae" target="_top" xlink:title=" ">
<polygon fill="white" stroke="#666666" points="306.5,-30.5 160,-30.5 160,0 306.5,0 306.5,-30.5"/>
<text xml:space="preserve" text-anchor="start" x="168" y="-17" font-family="Helvetica,sans-Serif" font-size="10.00">sensesp::SKPutRequestBase</text>
<text xml:space="preserve" text-anchor="middle" x="233.25" y="-5.75" font-family="Helvetica,sans-Serif" font-size="10.00">::send_put_request</text>
</a>
</g>
</g>
<!-- Node4&#45;&gt;Node5 -->
<g id="edge4_Node000004_Node000005" class="edge">
<title>Node4&#45;&gt;Node5</title>
<g id="a_edge4_Node000004_Node000005"><a xlink:title=" ">
<path fill="none" stroke="#63b8ff" d="M330.79,-15.25C322.92,-15.25 314.84,-15.25 306.88,-15.25"/>
<polygon fill="#63b8ff" stroke="#63b8ff" points="330.63,-18.75 340.63,-15.25 330.63,-11.75 330.63,-18.75"/>
</a>
</g>
</g>
<!-- Node6 -->
<g id="Node000006" class="node">
<title>Node6</title>
<g id="a_Node000006"><a xlink:href="classsensesp_1_1_s_k_put_request.html#aa058e5926050a529176402b4d3a20c44" target="_top" xlink:title=" ">
<polygon fill="white" stroke="#666666" points="124,-30.5 0,-30.5 0,0 124,0 124,-30.5"/>
<text xml:space="preserve" text-anchor="start" x="8" y="-17" font-family="Helvetica,sans-Serif" font-size="10.00">sensesp::SKPutRequest</text>
<text xml:space="preserve" text-anchor="middle" x="62" y="-5.75" font-family="Helvetica,sans-Serif" font-size="10.00">&lt; float &gt;::set</text>
</a>
</g>
</g>
<!-- Node5&#45;&gt;Node6 -->
<g id="edge5_Node000005_Node000006" class="edge">
<title>Node5&#45;&gt;Node6</title>
<g id="a_edge5_Node000005_Node000006"><a xlink:title=" ">
<path fill="none" stroke="#63b8ff" d="M148.51,-15.25C140.38,-15.25 132.23,-15.25 124.37,-15.25"/>
<polygon fill="#63b8ff" stroke="#63b8ff" points="148.47,-18.75 158.47,-15.25 148.47,-11.75 148.47,-18.75"/>
</a>
</g>
</g>
</g>
</svg>
