<?xml version="1.0" encoding="UTF-8" standalone="no"?>
<!DOCTYPE svg PUBLIC "-//W3C//DTD SVG 1.1//EN"
 "http://www.w3.org/Graphics/SVG/1.1/DTD/svg11.dtd">
<!-- Generated by graphviz version 13.0.0 (20250608.1624)
 -->
<!-- Title: sensesp::MinimalButtonHandler::MinimalButtonHandler Pages: 1 -->
<svg width="858pt" height="39pt"
 viewBox="0.00 0.00 858.00 39.00" xmlns="http://www.w3.org/2000/svg" xmlns:xlink="http://www.w3.org/1999/xlink">
<g id="graph0" class="graph" transform="scale(1 1) rotate(0) translate(4 34.5)">
<title>sensesp::MinimalButtonHandler::MinimalButtonHandler</title>
<!-- Node1 -->
<g id="Node000001" class="node">
<title>Node1</title>
<g id="a_Node000001"><a xlink:title=" ">
<polygon fill="#999999" stroke="#666666" points="154.75,-30.5 0,-30.5 0,0 154.75,0 154.75,-30.5"/>
<text xml:space="preserve" text-anchor="start" x="8" y="-17" font-family="Helvetica,sans-Serif" font-size="10.00">sensesp::MinimalButtonHandler</text>
<text xml:space="preserve" text-anchor="middle" x="77.38" y="-5.75" font-family="Helvetica,sans-Serif" font-size="10.00">::MinimalButtonHandler</text>
</a>
</g>
</g>
<!-- Node2 -->
<g id="Node000002" class="node">
<title>Node2</title>
<g id="a_Node000002"><a xlink:href="classsensesp_1_1_base_button_handler.html#aea91d691e24f6c37e058ba7e4344b89c" target="_top" xlink:title=" ">
<polygon fill="white" stroke="#666666" points="334.25,-30.5 190.75,-30.5 190.75,0 334.25,0 334.25,-30.5"/>
<text xml:space="preserve" text-anchor="start" x="198.75" y="-17" font-family="Helvetica,sans-Serif" font-size="10.00">sensesp::BaseButtonHandler</text>
<text xml:space="preserve" text-anchor="middle" x="262.5" y="-5.75" font-family="Helvetica,sans-Serif" font-size="10.00">::BaseButtonHandler</text>
</a>
</g>
</g>
<!-- Node1&#45;&gt;Node2 -->
<g id="edge1_Node000001_Node000002" class="edge">
<title>Node1&#45;&gt;Node2</title>
<g id="a_edge1_Node000001_Node000002"><a xlink:title=" ">
<path fill="none" stroke="#63b8ff" d="M155.24,-15.25C163.07,-15.25 171.04,-15.25 178.92,-15.25"/>
<polygon fill="#63b8ff" stroke="#63b8ff" points="178.87,-18.75 188.87,-15.25 178.87,-11.75 178.87,-18.75"/>
</a>
</g>
</g>
<!-- Node3 -->
<g id="Node000003" class="node">
<title>Node3</title>
<g id="a_Node000003"><a xlink:href="namespacesensesp.html#a1c1105507d71491cf4e0505eaabb2e49" target="_top" xlink:title=" ">
<polygon fill="white" stroke="#666666" points="476.25,-24.88 370.25,-24.88 370.25,-5.63 476.25,-5.63 476.25,-24.88"/>
<text xml:space="preserve" text-anchor="middle" x="423.25" y="-11.38" font-family="Helvetica,sans-Serif" font-size="10.00">sensesp::event_loop</text>
</a>
</g>
</g>
<!-- Node2&#45;&gt;Node3 -->
<g id="edge2_Node000002_Node000003" class="edge">
<title>Node2&#45;&gt;Node3</title>
<g id="a_edge2_Node000002_Node000003"><a xlink:title=" ">
<path fill="none" stroke="#63b8ff" d="M334.52,-15.25C342.5,-15.25 350.61,-15.25 358.49,-15.25"/>
<polygon fill="#63b8ff" stroke="#63b8ff" points="358.34,-18.75 368.34,-15.25 358.34,-11.75 358.34,-18.75"/>
</a>
</g>
</g>
<!-- Node4 -->
<g id="Node000004" class="node">
<title>Node4</title>
<g id="a_Node000004"><a xlink:href="classsensesp_1_1_sens_e_s_p_base_app.html#a28c20eed17bfc460e6686a11c5b3b107" target="_top" xlink:title="Get the event loop object from the singleton SensESPBaseApp instance.">
<polygon fill="white" stroke="#666666" points="653.5,-30.5 512.25,-30.5 512.25,0 653.5,0 653.5,-30.5"/>
<text xml:space="preserve" text-anchor="start" x="520.25" y="-17" font-family="Helvetica,sans-Serif" font-size="10.00">sensesp::SensESPBaseApp</text>
<text xml:space="preserve" text-anchor="middle" x="582.88" y="-5.75" font-family="Helvetica,sans-Serif" font-size="10.00">::get_event_loop</text>
</a>
</g>
</g>
<!-- Node3&#45;&gt;Node4 -->
<g id="edge3_Node000003_Node000004" class="edge">
<title>Node3&#45;&gt;Node4</title>
<g id="a_edge3_Node000003_Node000004"><a xlink:title=" ">
<path fill="none" stroke="#63b8ff" d="M476.74,-15.25C484.41,-15.25 492.45,-15.25 500.53,-15.25"/>
<polygon fill="#63b8ff" stroke="#63b8ff" points="500.43,-18.75 510.43,-15.25 500.43,-11.75 500.43,-18.75"/>
</a>
</g>
</g>
<!-- Node5 -->
<g id="Node000005" class="node">
<title>Node5</title>
<g id="a_Node000005"><a xlink:href="classsensesp_1_1_sens_e_s_p_base_app.html#add2c67bb55d095ab9c64f44ab2e82612" target="_top" xlink:title="Get the singleton instance of the SensESPBaseApp.">
<polygon fill="white" stroke="#666666" points="850.25,-24.88 689.5,-24.88 689.5,-5.63 850.25,-5.63 850.25,-24.88"/>
<text xml:space="preserve" text-anchor="middle" x="769.88" y="-11.38" font-family="Helvetica,sans-Serif" font-size="10.00">sensesp::SensESPBaseApp::get</text>
</a>
</g>
</g>
<!-- Node4&#45;&gt;Node5 -->
<g id="edge4_Node000004_Node000005" class="edge">
<title>Node4&#45;&gt;Node5</title>
<g id="a_edge4_Node000004_Node000005"><a xlink:title=" ">
<path fill="none" stroke="#63b8ff" d="M653.82,-15.25C661.67,-15.25 669.76,-15.25 677.84,-15.25"/>
<polygon fill="#63b8ff" stroke="#63b8ff" points="677.71,-18.75 687.71,-15.25 677.71,-11.75 677.71,-18.75"/>
</a>
</g>
</g>
</g>
</svg>
