<?xml version="1.0" encoding="UTF-8" standalone="no"?>
<!DOCTYPE svg PUBLIC "-//W3C//DTD SVG 1.1//EN"
 "http://www.w3.org/Graphics/SVG/1.1/DTD/svg11.dtd">
<!-- Generated by graphviz version 12.0.0 (20240704.0754)
 -->
<!-- Title: sensesp::SKWSClient::send_delta Pages: 1 -->
<svg width="699pt" height="149pt"
 viewBox="0.00 0.00 699.00 148.88" xmlns="http://www.w3.org/2000/svg" xmlns:xlink="http://www.w3.org/1999/xlink">
<g id="graph0" class="graph" transform="scale(1 1) rotate(0) translate(4 144.88)">
<title>sensesp::SKWSClient::send_delta</title>
<!-- Node1 -->
<g id="Node000001" class="node">
<title>Node1</title>
<g id="a_Node000001"><a xlink:title=" ">
<polygon fill="#999999" stroke="#666666" points="114.25,-91.88 0,-91.88 0,-61.38 114.25,-61.38 114.25,-91.88"/>
<text text-anchor="start" x="8" y="-78.38" font-family="Helvetica,sans-Serif" font-size="10.00">sensesp::SKWSClient</text>
<text text-anchor="middle" x="57.12" y="-67.12" font-family="Helvetica,sans-Serif" font-size="10.00">::send_delta</text>
</a>
</g>
</g>
<!-- Node2 -->
<g id="Node000002" class="node">
<title>Node2</title>
<g id="a_Node000002"><a xlink:href="classsensesp_1_1_s_k_delta_queue.html#a739868615cbe7d97bdc30b7c42c3e9f9" target="_top" xlink:title=" ">
<polygon fill="white" stroke="#666666" points="295.62,-140.88 171.62,-140.88 171.62,-110.38 295.62,-110.38 295.62,-140.88"/>
<text text-anchor="start" x="179.62" y="-127.38" font-family="Helvetica,sans-Serif" font-size="10.00">sensesp::SKDeltaQueue</text>
<text text-anchor="middle" x="233.62" y="-116.12" font-family="Helvetica,sans-Serif" font-size="10.00">::data_available</text>
</a>
</g>
</g>
<!-- Node1&#45;&gt;Node2 -->
<g id="edge1_Node000001_Node000002" class="edge">
<title>Node1&#45;&gt;Node2</title>
<g id="a_edge1_Node000001_Node000002"><a xlink:title=" ">
<path fill="none" stroke="#63b8ff" d="M113.82,-92.26C130.26,-96.88 148.44,-101.99 165.52,-106.78"/>
<polygon fill="#63b8ff" stroke="#63b8ff" points="164.53,-110.14 175.11,-109.47 166.42,-103.4 164.53,-110.14"/>
</a>
</g>
</g>
<!-- Node5 -->
<g id="Node000005" class="node">
<title>Node5</title>
<g id="a_Node000005"><a xlink:href="classsensesp_1_1_s_k_delta_queue.html#a26dc17fc9fa31804552240f81efa35ac" target="_top" xlink:title=" ">
<polygon fill="white" stroke="#666666" points="295.62,-91.88 171.62,-91.88 171.62,-61.38 295.62,-61.38 295.62,-91.88"/>
<text text-anchor="start" x="179.62" y="-78.38" font-family="Helvetica,sans-Serif" font-size="10.00">sensesp::SKDeltaQueue</text>
<text text-anchor="middle" x="233.62" y="-67.12" font-family="Helvetica,sans-Serif" font-size="10.00">::get_delta</text>
</a>
</g>
</g>
<!-- Node1&#45;&gt;Node5 -->
<g id="edge4_Node000001_Node000005" class="edge">
<title>Node1&#45;&gt;Node5</title>
<g id="a_edge4_Node000001_Node000005"><a xlink:title=" ">
<path fill="none" stroke="#63b8ff" d="M114.3,-76.62C128.83,-76.62 144.68,-76.62 159.92,-76.62"/>
<polygon fill="#63b8ff" stroke="#63b8ff" points="159.91,-80.13 169.91,-76.63 159.91,-73.13 159.91,-80.13"/>
</a>
</g>
</g>
<!-- Node9 -->
<g id="Node000009" class="node">
<title>Node9</title>
<g id="a_Node000009"><a xlink:href="classsensesp_1_1_task_queue_producer.html#ae3fc9c50c0c606a9ba9e5a8826d32a37" target="_top" xlink:title=" ">
<polygon fill="white" stroke="#666666" points="317,-43.25 150.25,-43.25 150.25,-24 317,-24 317,-43.25"/>
<text text-anchor="middle" x="233.62" y="-29.75" font-family="Helvetica,sans-Serif" font-size="10.00">sensesp::TaskQueueProducer::set</text>
</a>
</g>
</g>
<!-- Node1&#45;&gt;Node9 -->
<g id="edge10_Node000001_Node000009" class="edge">
<title>Node1&#45;&gt;Node9</title>
<g id="a_edge10_Node000001_Node000009"><a xlink:title=" ">
<path fill="none" stroke="#63b8ff" d="M114.58,-61.65C126.35,-58.6 138.69,-55.46 150.25,-52.62 158.87,-50.51 168.01,-48.33 176.95,-46.24"/>
<polygon fill="#63b8ff" stroke="#63b8ff" points="177.69,-49.66 186.64,-43.99 176.1,-42.85 177.69,-49.66"/>
</a>
</g>
</g>
<!-- Node3 -->
<g id="Node000003" class="node">
<title>Node3</title>
<g id="a_Node000003"><a xlink:href="classsensesp_1_1_s_k_delta_queue.html#a8c79cbfdc595e971219eb12e99387ea7" target="_top" xlink:title=" ">
<polygon fill="white" stroke="#666666" points="485.62,-91.88 361.62,-91.88 361.62,-61.38 485.62,-61.38 485.62,-91.88"/>
<text text-anchor="start" x="369.62" y="-78.38" font-family="Helvetica,sans-Serif" font-size="10.00">sensesp::SKDeltaQueue</text>
<text text-anchor="middle" x="423.62" y="-67.12" font-family="Helvetica,sans-Serif" font-size="10.00">::release_semaphore</text>
</a>
</g>
</g>
<!-- Node2&#45;&gt;Node3 -->
<g id="edge2_Node000002_Node000003" class="edge">
<title>Node2&#45;&gt;Node3</title>
<g id="a_edge2_Node000002_Node000003"><a xlink:title=" ">
<path fill="none" stroke="#63b8ff" d="M294.89,-109.92C312.85,-105.24 332.7,-100.06 351.3,-95.21"/>
<polygon fill="#63b8ff" stroke="#63b8ff" points="352.13,-98.62 360.92,-92.71 350.36,-91.84 352.13,-98.62"/>
</a>
</g>
</g>
<!-- Node4 -->
<g id="Node000004" class="node">
<title>Node4</title>
<g id="a_Node000004"><a xlink:href="classsensesp_1_1_s_k_delta_queue.html#a9aacaa1a4bb077c829240a2f165f9a44" target="_top" xlink:title=" ">
<polygon fill="white" stroke="#666666" points="485.62,-140.88 361.62,-140.88 361.62,-110.38 485.62,-110.38 485.62,-140.88"/>
<text text-anchor="start" x="369.62" y="-127.38" font-family="Helvetica,sans-Serif" font-size="10.00">sensesp::SKDeltaQueue</text>
<text text-anchor="middle" x="423.62" y="-116.12" font-family="Helvetica,sans-Serif" font-size="10.00">::take_semaphore</text>
</a>
</g>
</g>
<!-- Node2&#45;&gt;Node4 -->
<g id="edge3_Node000002_Node000004" class="edge">
<title>Node2&#45;&gt;Node4</title>
<g id="a_edge3_Node000002_Node000004"><a xlink:title=" ">
<path fill="none" stroke="#63b8ff" d="M295.92,-125.62C313.23,-125.62 332.23,-125.62 350.13,-125.62"/>
<polygon fill="#63b8ff" stroke="#63b8ff" points="349.9,-129.13 359.9,-125.63 349.9,-122.13 349.9,-129.13"/>
</a>
</g>
</g>
<!-- Node5&#45;&gt;Node3 -->
<g id="edge8_Node000005_Node000003" class="edge">
<title>Node5&#45;&gt;Node3</title>
<g id="a_edge8_Node000005_Node000003"><a xlink:title=" ">
<path fill="none" stroke="#63b8ff" d="M295.92,-76.62C313.23,-76.62 332.23,-76.62 350.13,-76.62"/>
<polygon fill="#63b8ff" stroke="#63b8ff" points="349.9,-80.13 359.9,-76.63 349.9,-73.13 349.9,-80.13"/>
</a>
</g>
</g>
<!-- Node5&#45;&gt;Node4 -->
<g id="edge9_Node000005_Node000004" class="edge">
<title>Node5&#45;&gt;Node4</title>
<g id="a_edge9_Node000005_Node000004"><a xlink:title=" ">
<path fill="none" stroke="#63b8ff" d="M294.89,-92.33C312.85,-97.01 332.7,-102.19 351.3,-107.04"/>
<polygon fill="#63b8ff" stroke="#63b8ff" points="350.36,-110.41 360.92,-109.54 352.13,-103.63 350.36,-110.41"/>
</a>
</g>
</g>
<!-- Node6 -->
<g id="Node000006" class="node">
<title>Node6</title>
<g id="a_Node000006"><a xlink:href="classsensesp_1_1_sens_e_s_p_base_app.html#a928c309a2dc17f82edefe9e5bc7ef33d" target="_top" xlink:title="Get the current hostname.">
<polygon fill="white" stroke="#666666" points="494.25,-42.88 353,-42.88 353,-12.37 494.25,-12.37 494.25,-42.88"/>
<text text-anchor="start" x="361" y="-29.38" font-family="Helvetica,sans-Serif" font-size="10.00">sensesp::SensESPBaseApp</text>
<text text-anchor="middle" x="423.62" y="-18.12" font-family="Helvetica,sans-Serif" font-size="10.00">::get_hostname</text>
</a>
</g>
</g>
<!-- Node5&#45;&gt;Node6 -->
<g id="edge5_Node000005_Node000006" class="edge">
<title>Node5&#45;&gt;Node6</title>
<g id="a_edge5_Node000005_Node000006"><a xlink:title=" ">
<path fill="none" stroke="#63b8ff" d="M294.89,-60.92C312.85,-56.24 332.7,-51.06 351.3,-46.21"/>
<polygon fill="#63b8ff" stroke="#63b8ff" points="352.13,-49.62 360.92,-43.71 350.36,-42.84 352.13,-49.62"/>
</a>
</g>
</g>
<!-- Node7 -->
<g id="Node000007" class="node">
<title>Node7</title>
<g id="a_Node000007"><a xlink:href="classsensesp_1_1_sens_e_s_p_base_app.html#a2df22469c69a8a1234ab673386f574d6" target="_top" xlink:title="Get the singleton instance of the SensESPBaseApp.">
<polygon fill="white" stroke="#666666" points="691,-56.25 530.25,-56.25 530.25,-37 691,-37 691,-56.25"/>
<text text-anchor="middle" x="610.62" y="-42.75" font-family="Helvetica,sans-Serif" font-size="10.00">sensesp::SensESPBaseApp::get</text>
</a>
</g>
</g>
<!-- Node6&#45;&gt;Node7 -->
<g id="edge6_Node000006_Node000007" class="edge">
<title>Node6&#45;&gt;Node7</title>
<g id="a_edge6_Node000006_Node000007"><a xlink:title=" ">
<path fill="none" stroke="#63b8ff" d="M494.57,-34.81C502.42,-35.62 510.51,-36.45 518.59,-37.28"/>
<polygon fill="#63b8ff" stroke="#63b8ff" points="518.16,-40.75 528.47,-38.29 518.88,-33.79 518.16,-40.75"/>
</a>
</g>
</g>
<!-- Node8 -->
<g id="Node000008" class="node">
<title>Node8</title>
<g id="a_Node000008"><a xlink:href="classsensesp_1_1_value_producer.html#a438390eae6bba056ecf4ab329cb5c8e9" target="_top" xlink:title=" ">
<polygon fill="white" stroke="#666666" points="681.25,-19.25 540,-19.25 540,0 681.25,0 681.25,-19.25"/>
<text text-anchor="middle" x="610.62" y="-5.75" font-family="Helvetica,sans-Serif" font-size="10.00">sensesp::ValueProducer::get</text>
</a>
</g>
</g>
<!-- Node6&#45;&gt;Node8 -->
<g id="edge7_Node000006_Node000008" class="edge">
<title>Node6&#45;&gt;Node8</title>
<g id="a_edge7_Node000006_Node000008"><a xlink:title=" ">
<path fill="none" stroke="#63b8ff" d="M494.57,-20.82C505.62,-19.74 517.12,-18.63 528.41,-17.53"/>
<polygon fill="#63b8ff" stroke="#63b8ff" points="528.47,-21.04 538.08,-16.59 527.79,-14.07 528.47,-21.04"/>
</a>
</g>
</g>
</g>
</svg>
