<?xml version="1.0" encoding="UTF-8" standalone="no"?>
<!DOCTYPE svg PUBLIC "-//W3C//DTD SVG 1.1//EN"
 "http://www.w3.org/Graphics/SVG/1.1/DTD/svg11.dtd">
<!-- Generated by graphviz version 12.1.0 (20240811.2233)
 -->
<!-- Title: sensesp::SKOutputTime Pages: 1 -->
<svg width="1387pt" height="231pt"
 viewBox="0.00 0.00 1386.50 231.45" xmlns="http://www.w3.org/2000/svg" xmlns:xlink="http://www.w3.org/1999/xlink">
<g id="graph0" class="graph" transform="scale(1 1) rotate(0) translate(4 227.45)">
<title>sensesp::SKOutputTime</title>
<!-- Node1 -->
<g id="Node000001" class="node">
<title>Node1</title>
<g id="a_Node000001"><a xlink:title=" ">
<polygon fill="#999999" stroke="#666666" points="1378.5,-39.25 1255.25,-39.25 1255.25,-20 1378.5,-20 1378.5,-39.25"/>
<text text-anchor="middle" x="1316.88" y="-25.75" font-family="Helvetica,sans-Serif" font-size="10.00">sensesp::SKOutputTime</text>
</a>
</g>
</g>
<!-- Node2 -->
<g id="Node000002" class="node">
<title>Node2</title>
<g id="a_Node000002"><a xlink:href="classsensesp_1_1_time_string.html" target="_top" xlink:title="Consumes a time_t time object and produces a human readable string of the time for UTC in ISO 8601 fo...">
<polygon fill="white" stroke="#666666" points="1218.25,-85.25 1112.25,-85.25 1112.25,-66 1218.25,-66 1218.25,-85.25"/>
<text text-anchor="middle" x="1165.25" y="-71.75" font-family="Helvetica,sans-Serif" font-size="10.00">sensesp::TimeString</text>
</a>
</g>
</g>
<!-- Node2&#45;&gt;Node1 -->
<g id="edge1_Node000001_Node000002" class="edge">
<title>Node2&#45;&gt;Node1</title>
<g id="a_edge1_Node000001_Node000002"><a xlink:title=" ">
<path fill="none" stroke="#63b8ff" d="M1209.79,-62.24C1233.2,-55.04 1261.6,-46.31 1283.12,-39.7"/>
<polygon fill="#63b8ff" stroke="#63b8ff" points="1209.06,-58.8 1200.53,-65.09 1211.12,-65.49 1209.06,-58.8"/>
</a>
</g>
</g>
<!-- Node3 -->
<g id="Node000003" class="node">
<title>Node3</title>
<g id="a_Node000003"><a xlink:href="classsensesp_1_1_transform.html" target="_top" xlink:title=" ">
<polygon fill="white" stroke="#666666" points="1075.25,-122.88 972.25,-122.88 972.25,-92.38 1075.25,-92.38 1075.25,-122.88"/>
<text text-anchor="start" x="980.25" y="-109.38" font-family="Helvetica,sans-Serif" font-size="10.00">sensesp::Transform</text>
<text text-anchor="middle" x="1023.75" y="-98.12" font-family="Helvetica,sans-Serif" font-size="10.00">&lt; time_t, String &gt;</text>
</a>
</g>
</g>
<!-- Node3&#45;&gt;Node2 -->
<g id="edge2_Node000002_Node000003" class="edge">
<title>Node3&#45;&gt;Node2</title>
<g id="a_edge2_Node000002_Node000003"><a xlink:title=" ">
<path fill="none" stroke="#63b8ff" d="M1086.67,-93.42C1097.98,-90.83 1109.56,-88.17 1120.21,-85.73"/>
<polygon fill="#63b8ff" stroke="#63b8ff" points="1085.95,-90 1076.98,-95.64 1087.51,-96.82 1085.95,-90"/>
</a>
</g>
</g>
<!-- Node4 -->
<g id="Node000004" class="node">
<title>Node4</title>
<g id="a_Node000004"><a xlink:href="classsensesp_1_1_transform_base.html" target="_top" xlink:title="The base class for all transforms. A transforms takes a value in, transforms it in some way,...">
<polygon fill="white" stroke="#666666" points="576.12,-166.25 450.62,-166.25 450.62,-147 576.12,-147 576.12,-166.25"/>
<text text-anchor="middle" x="513.38" y="-152.75" font-family="Helvetica,sans-Serif" font-size="10.00">sensesp::TransformBase</text>
</a>
</g>
</g>
<!-- Node4&#45;&gt;Node3 -->
<g id="edge3_Node000003_Node000004" class="edge">
<title>Node4&#45;&gt;Node3</title>
<g id="a_edge3_Node000003_Node000004"><a xlink:title=" ">
<path fill="none" stroke="#63b8ff" d="M587.7,-154.48C675.35,-151.1 826.25,-142.72 954.25,-122.62 960.02,-121.72 966.04,-120.63 972,-119.45"/>
<polygon fill="#63b8ff" stroke="#63b8ff" points="587.66,-150.98 577.8,-154.85 587.92,-157.97 587.66,-150.98"/>
</a>
</g>
</g>
<!-- Node11 -->
<g id="Node000011" class="node">
<title>Node11</title>
<g id="a_Node000011"><a xlink:href="classsensesp_1_1_transform.html" target="_top" xlink:title="The main Transform class. A transform is identified primarily by the type of value that is produces (...">
<polygon fill="white" stroke="#666666" points="856.75,-122.88 753.75,-122.88 753.75,-92.38 856.75,-92.38 856.75,-122.88"/>
<text text-anchor="start" x="761.75" y="-109.38" font-family="Helvetica,sans-Serif" font-size="10.00">sensesp::Transform</text>
<text text-anchor="middle" x="805.25" y="-98.12" font-family="Helvetica,sans-Serif" font-size="10.00">&lt; C, P &gt;</text>
</a>
</g>
</g>
<!-- Node4&#45;&gt;Node11 -->
<g id="edge12_Node000011_Node000004" class="edge">
<title>Node4&#45;&gt;Node11</title>
<g id="a_edge12_Node000011_Node000004"><a xlink:title=" ">
<path fill="none" stroke="#63b8ff" d="M585.24,-144.65C637.27,-135.85 706.71,-124.11 753.33,-116.23"/>
<polygon fill="#63b8ff" stroke="#63b8ff" points="584.85,-141.16 575.58,-146.28 586.02,-148.06 584.85,-141.16"/>
</a>
</g>
</g>
<!-- Node5 -->
<g id="Node000005" class="node">
<title>Node5</title>
<g id="a_Node000005"><a xlink:href="classsensesp_1_1_configurable.html" target="_top" xlink:title="An object that is capable of having configuration data that can be set remotely using a RESTful API,...">
<polygon fill="white" stroke="#666666" points="277.88,-152.25 164.38,-152.25 164.38,-133 277.88,-133 277.88,-152.25"/>
<text text-anchor="middle" x="221.12" y="-138.75" font-family="Helvetica,sans-Serif" font-size="10.00">sensesp::Configurable</text>
</a>
</g>
</g>
<!-- Node5&#45;&gt;Node4 -->
<g id="edge4_Node000004_Node000005" class="edge">
<title>Node5&#45;&gt;Node4</title>
<g id="a_edge4_Node000004_Node000005"><a xlink:title=" ">
<path fill="none" stroke="#63b8ff" d="M289.5,-145.58C327.47,-147.28 375.76,-149.49 418.75,-151.62 428.91,-152.13 439.69,-152.68 450.18,-153.24"/>
<polygon fill="#63b8ff" stroke="#63b8ff" points="289.73,-142.09 279.58,-145.14 289.41,-149.08 289.73,-142.09"/>
</a>
</g>
</g>
<!-- Node6 -->
<g id="Node000006" class="node">
<title>Node6</title>
<g id="a_Node000006"><a xlink:href="classsensesp_1_1_value_consumer.html" target="_top" xlink:title=" ">
<polygon fill="white" stroke="#666666" points="735.75,-63.88 608,-63.88 608,-33.38 735.75,-33.38 735.75,-63.88"/>
<text text-anchor="start" x="616" y="-50.38" font-family="Helvetica,sans-Serif" font-size="10.00">sensesp::ValueConsumer</text>
<text text-anchor="middle" x="671.88" y="-39.12" font-family="Helvetica,sans-Serif" font-size="10.00">&lt; time_t &gt;</text>
</a>
</g>
</g>
<!-- Node6&#45;&gt;Node3 -->
<g id="edge5_Node000003_Node000006" class="edge">
<title>Node6&#45;&gt;Node3</title>
<g id="a_edge5_Node000003_Node000006"><a xlink:title=" ">
<path fill="none" stroke="#63b8ff" d="M747.23,-61.16C814.8,-72.56 912.7,-89.07 971.79,-99.03"/>
<polygon fill="#63b8ff" stroke="#63b8ff" points="748.17,-57.77 737.73,-59.56 747.01,-64.68 748.17,-57.77"/>
</a>
</g>
</g>
<!-- Node7 -->
<g id="Node000007" class="node">
<title>Node7</title>
<g id="a_Node000007"><a xlink:href="classsensesp_1_1_value_consumer.html" target="_top" xlink:title="A base class for piece of code (like a transform) that accepts data for input. ValueConsumers can acc...">
<polygon fill="white" stroke="#666666" points="297,-72.25 145.25,-72.25 145.25,-53 297,-53 297,-72.25"/>
<text text-anchor="middle" x="221.12" y="-58.75" font-family="Helvetica,sans-Serif" font-size="10.00">sensesp::ValueConsumer&lt; T &gt;</text>
</a>
</g>
</g>
<!-- Node7&#45;&gt;Node6 -->
<g id="edge6_Node000006_Node000007" class="edge">
<title>Node7&#45;&gt;Node6</title>
<g id="a_edge6_Node000006_Node000007"><a xlink:title=" ">
<path fill="none" stroke="orange" stroke-dasharray="5,2" d="M308.74,-53.76C310.85,-53.62 312.94,-53.49 315,-53.38 417.41,-47.6 536.64,-47.32 607.82,-47.83"/>
<polygon fill="orange" stroke="orange" points="308.59,-50.26 298.86,-54.47 309.09,-57.24 308.59,-50.26"/>
</a>
</g>
<text text-anchor="middle" x="366.88" y="-55.12" font-family="Helvetica,sans-Serif" font-size="10.00" fill="grey"> &lt; time_t &gt;</text>
</g>
<!-- Node12 -->
<g id="Node000012" class="node">
<title>Node12</title>
<g id="a_Node000012"><a xlink:href="classsensesp_1_1_value_consumer.html" target="_top" xlink:title=" ">
<polygon fill="white" stroke="#666666" points="590,-92.25 436.75,-92.25 436.75,-73 590,-73 590,-92.25"/>
<text text-anchor="middle" x="513.38" y="-78.75" font-family="Helvetica,sans-Serif" font-size="10.00">sensesp::ValueConsumer&lt; C &gt;</text>
</a>
</g>
</g>
<!-- Node7&#45;&gt;Node12 -->
<g id="edge14_Node000012_Node000007" class="edge">
<title>Node7&#45;&gt;Node12</title>
<g id="a_edge14_Node000012_Node000007"><a xlink:title=" ">
<path fill="none" stroke="orange" stroke-dasharray="5,2" d="M308.49,-68.58C349.1,-71.37 397.09,-74.68 436.3,-77.38"/>
<polygon fill="orange" stroke="orange" points="308.98,-65.1 298.76,-67.91 308.49,-72.08 308.98,-65.1"/>
</a>
</g>
<text text-anchor="middle" x="366.88" y="-77.91" font-family="Helvetica,sans-Serif" font-size="10.00" fill="grey"> &lt; C &gt;</text>
</g>
<!-- Node8 -->
<g id="Node000008" class="node">
<title>Node8</title>
<g id="a_Node000008"><a xlink:href="classsensesp_1_1_value_producer.html" target="_top" xlink:title=" ">
<polygon fill="white" stroke="#666666" points="574.25,-219.88 452.5,-219.88 452.5,-189.38 574.25,-189.38 574.25,-219.88"/>
<text text-anchor="start" x="460.5" y="-206.38" font-family="Helvetica,sans-Serif" font-size="10.00">sensesp::ValueProducer</text>
<text text-anchor="middle" x="513.38" y="-195.12" font-family="Helvetica,sans-Serif" font-size="10.00">&lt; String &gt;</text>
</a>
</g>
</g>
<!-- Node8&#45;&gt;Node3 -->
<g id="edge7_Node000003_Node000008" class="edge">
<title>Node8&#45;&gt;Node3</title>
<g id="a_edge7_Node000003_Node000008"><a xlink:title=" ">
<path fill="none" stroke="#63b8ff" d="M585.88,-201.36C674.21,-195.76 828.23,-180.81 954.25,-141.62 968.7,-137.13 983.87,-129.9 996.24,-123.25"/>
<polygon fill="#63b8ff" stroke="#63b8ff" points="585.67,-197.87 575.9,-201.97 586.1,-204.86 585.67,-197.87"/>
</a>
</g>
</g>
<!-- Node9 -->
<g id="Node000009" class="node">
<title>Node9</title>
<g id="a_Node000009"><a xlink:href="classsensesp_1_1_observable.html" target="_top" xlink:title="A base class which allow observers to attach callbacks to themselves. The callbacks will be called wh...">
<polygon fill="white" stroke="#666666" points="108.25,-151.25 0,-151.25 0,-132 108.25,-132 108.25,-151.25"/>
<text text-anchor="middle" x="54.12" y="-137.75" font-family="Helvetica,sans-Serif" font-size="10.00">sensesp::Observable</text>
</a>
</g>
</g>
<!-- Node9&#45;&gt;Node8 -->
<g id="edge8_Node000008_Node000009" class="edge">
<title>Node9&#45;&gt;Node8</title>
<g id="a_edge8_Node000008_Node000009"><a xlink:title=" ">
<path fill="none" stroke="#63b8ff" d="M75.36,-158.53C92.71,-171.98 119.01,-189.92 145.25,-198.62 248.71,-232.93 377.76,-224.09 452.05,-214.43"/>
<polygon fill="#63b8ff" stroke="#63b8ff" points="77.87,-156.06 67.87,-152.56 73.5,-161.53 77.87,-156.06"/>
</a>
</g>
</g>
<!-- Node10 -->
<g id="Node000010" class="node">
<title>Node10</title>
<g id="a_Node000010"><a xlink:href="classsensesp_1_1_value_producer.html" target="_top" xlink:title="A base class for any sensor or piece of code that outputs a value for consumption elsewhere.">
<polygon fill="white" stroke="#666666" points="294,-189.25 148.25,-189.25 148.25,-170 294,-170 294,-189.25"/>
<text text-anchor="middle" x="221.12" y="-175.75" font-family="Helvetica,sans-Serif" font-size="10.00">sensesp::ValueProducer&lt; T &gt;</text>
</a>
</g>
</g>
<!-- Node9&#45;&gt;Node10 -->
<g id="edge10_Node000010_Node000009" class="edge">
<title>Node9&#45;&gt;Node10</title>
<g id="a_edge10_Node000010_Node000009"><a xlink:title=" ">
<path fill="none" stroke="#63b8ff" d="M109.92,-154.24C131.54,-159.22 156.03,-164.86 176.42,-169.56"/>
<polygon fill="#63b8ff" stroke="#63b8ff" points="110.91,-150.88 100.38,-152.05 109.34,-157.7 110.91,-150.88"/>
</a>
</g>
</g>
<!-- Node13 -->
<g id="Node000013" class="node">
<title>Node13</title>
<g id="a_Node000013"><a xlink:href="classsensesp_1_1_value_producer.html" target="_top" xlink:title=" ">
<polygon fill="white" stroke="#666666" points="586.62,-129.25 440.12,-129.25 440.12,-110 586.62,-110 586.62,-129.25"/>
<text text-anchor="middle" x="513.38" y="-115.75" font-family="Helvetica,sans-Serif" font-size="10.00">sensesp::ValueProducer&lt; P &gt;</text>
</a>
</g>
</g>
<!-- Node9&#45;&gt;Node13 -->
<g id="edge16_Node000013_Node000009" class="edge">
<title>Node9&#45;&gt;Node13</title>
<g id="a_edge16_Node000013_Node000009"><a xlink:title=" ">
<path fill="none" stroke="#63b8ff" d="M107.98,-129.36C120.16,-127.01 133.1,-124.89 145.25,-123.62 247,-113 365.47,-114.13 439.7,-116.45"/>
<polygon fill="#63b8ff" stroke="#63b8ff" points="107.65,-125.86 98.54,-131.27 109.04,-132.72 107.65,-125.86"/>
</a>
</g>
</g>
<!-- Node14 -->
<g id="Node000014" class="node">
<title>Node14</title>
<g id="a_Node000014"><a xlink:href="classsensesp_1_1_s_k_emitter.html" target="_top" xlink:title="A class that produces Signal K output to be forwarded to the Signal K server (if the system is connec...">
<polygon fill="white" stroke="#666666" points="418.75,-19.25 315,-19.25 315,0 418.75,0 418.75,-19.25"/>
<text text-anchor="middle" x="366.88" y="-5.75" font-family="Helvetica,sans-Serif" font-size="10.00">sensesp::SKEmitter</text>
</a>
</g>
</g>
<!-- Node9&#45;&gt;Node14 -->
<g id="edge19_Node000014_Node000009" class="edge">
<title>Node9&#45;&gt;Node14</title>
<g id="a_edge19_Node000014_Node000009"><a xlink:title=" ">
<path fill="none" stroke="#63b8ff" d="M67.07,-122.13C82.22,-99.25 110.59,-62.12 145.25,-43.62 198.25,-15.35 267.95,-8.85 314.7,-8.12"/>
<polygon fill="#63b8ff" stroke="#63b8ff" points="64.33,-119.93 61.88,-130.24 70.22,-123.7 64.33,-119.93"/>
</a>
</g>
</g>
<!-- Node10&#45;&gt;Node8 -->
<g id="edge9_Node000008_Node000010" class="edge">
<title>Node10&#45;&gt;Node8</title>
<g id="a_edge9_Node000008_Node000010"><a xlink:title=" ">
<path fill="none" stroke="orange" stroke-dasharray="5,2" d="M305.62,-186.82C352.51,-190.86 409.95,-195.8 452.37,-199.46"/>
<polygon fill="orange" stroke="orange" points="306.02,-183.34 295.75,-185.97 305.42,-190.31 306.02,-183.34"/>
</a>
</g>
<text text-anchor="middle" x="366.88" y="-198.29" font-family="Helvetica,sans-Serif" font-size="10.00" fill="grey"> &lt; String &gt;</text>
</g>
<!-- Node10&#45;&gt;Node13 -->
<g id="edge17_Node000013_Node000010" class="edge">
<title>Node10&#45;&gt;Node13</title>
<g id="a_edge17_Node000013_Node000010"><a xlink:title=" ">
<path fill="none" stroke="orange" stroke-dasharray="5,2" d="M282.12,-167.22C335.89,-156.11 413.78,-140.01 463.75,-129.68"/>
<polygon fill="orange" stroke="orange" points="281.6,-163.76 272.52,-169.21 283.02,-170.61 281.6,-163.76"/>
</a>
</g>
<text text-anchor="middle" x="366.88" y="-161.97" font-family="Helvetica,sans-Serif" font-size="10.00" fill="grey"> &lt; P &gt;</text>
</g>
<!-- Node11&#45;&gt;Node3 -->
<g id="edge11_Node000003_Node000011" class="edge">
<title>Node11&#45;&gt;Node3</title>
<g id="a_edge11_Node000003_Node000011"><a xlink:title=" ">
<path fill="none" stroke="orange" stroke-dasharray="5,2" d="M868.31,-107.62C901.14,-107.62 940.95,-107.62 971.93,-107.62"/>
<polygon fill="orange" stroke="orange" points="868.52,-104.13 858.52,-107.63 868.52,-111.13 868.52,-104.13"/>
</a>
</g>
<text text-anchor="middle" x="914.5" y="-109.38" font-family="Helvetica,sans-Serif" font-size="10.00" fill="grey"> &lt; time_t, String &gt;</text>
</g>
<!-- Node12&#45;&gt;Node11 -->
<g id="edge13_Node000011_Node000012" class="edge">
<title>Node12&#45;&gt;Node11</title>
<g id="a_edge13_Node000011_Node000012"><a xlink:title=" ">
<path fill="none" stroke="#63b8ff" d="M601.55,-90.14C651.19,-94.42 711.63,-99.64 753.54,-103.25"/>
<polygon fill="#63b8ff" stroke="#63b8ff" points="601.93,-86.66 591.67,-89.29 601.33,-93.64 601.93,-86.66"/>
</a>
</g>
</g>
<!-- Node13&#45;&gt;Node11 -->
<g id="edge15_Node000011_Node000013" class="edge">
<title>Node13&#45;&gt;Node11</title>
<g id="a_edge15_Node000011_Node000013"><a xlink:title=" ">
<path fill="none" stroke="#63b8ff" d="M597.98,-116.16C648.32,-114.08 710.76,-111.5 753.68,-109.72"/>
<polygon fill="#63b8ff" stroke="#63b8ff" points="598.13,-112.65 588.29,-116.57 598.42,-119.65 598.13,-112.65"/>
</a>
</g>
</g>
<!-- Node14&#45;&gt;Node1 -->
<g id="edge18_Node000001_Node000014" class="edge">
<title>Node14&#45;&gt;Node1</title>
<g id="a_edge18_Node000001_Node000014"><a xlink:title=" ">
<path fill="none" stroke="#63b8ff" d="M430.47,-8.64C491.74,-7.77 587.72,-6.63 670.88,-6.62 670.88,-6.62 670.88,-6.62 1166.25,-6.62 1202.65,-6.62 1243.46,-13.36 1273.25,-19.54"/>
<polygon fill="#63b8ff" stroke="#63b8ff" points="430.53,-5.14 420.59,-8.79 430.64,-12.14 430.53,-5.14"/>
</a>
</g>
</g>
</g>
</svg>
