<?xml version="1.0" encoding="UTF-8" standalone="no"?>
<!DOCTYPE svg PUBLIC "-//W3C//DTD SVG 1.1//EN"
 "http://www.w3.org/Graphics/SVG/1.1/DTD/svg11.dtd">
<!-- Generated by graphviz version 2.47.0 (20210316.0004)
 -->
<!-- Title: SKRequest::remove_request Pages: 1 -->
<svg width="633pt" height="39pt"
 viewBox="0.00 0.00 633.00 39.00" xmlns="http://www.w3.org/2000/svg" xmlns:xlink="http://www.w3.org/1999/xlink">
<g id="graph0" class="graph" transform="scale(1 1) rotate(0) translate(4 35)">
<title>SKRequest::remove_request</title>
<polygon fill="white" stroke="transparent" points="-4,4 -4,-35 629,-35 629,4 -4,4"/>
<!-- Node1 -->
<g id="node1" class="node">
<title>Node1</title>
<g id="a_node1"><a xlink:title=" ">
<polygon fill="#bfbfbf" stroke="black" points="482,-6 482,-25 625,-25 625,-6 482,-6"/>
<text text-anchor="middle" x="553.5" y="-13" font-family="Helvetica,sans-Serif" font-size="10.00">SKRequest::remove_request</text>
</a>
</g>
</g>
<!-- Node2 -->
<g id="node2" class="node">
<title>Node2</title>
<g id="a_node2"><a xlink:href="class_s_k_request.html#a8f7cf1cb7b984e069acab0053b3d8470" target="_top" xlink:title=" ">
<polygon fill="white" stroke="black" points="300,-6 300,-25 446,-25 446,-6 300,-6"/>
<text text-anchor="middle" x="373" y="-13" font-family="Helvetica,sans-Serif" font-size="10.00">SKRequest::handle_response</text>
</a>
</g>
</g>
<!-- Node1&#45;&gt;Node2 -->
<g id="edge1" class="edge">
<title>Node1&#45;&gt;Node2</title>
<path fill="none" stroke="midnightblue" d="M471.91,-15.5C463.3,-15.5 454.59,-15.5 446.08,-15.5"/>
<polygon fill="midnightblue" stroke="midnightblue" points="471.95,-19 481.95,-15.5 471.95,-12 471.95,-19"/>
</g>
<!-- Node3 -->
<g id="node3" class="node">
<title>Node3</title>
<g id="a_node3"><a xlink:href="class_w_s_client.html#a2b235f3e62668b6e7923cbbcba00e5c1" target="_top" xlink:title=" ">
<polygon fill="white" stroke="black" points="152,-0.5 152,-30.5 264,-30.5 264,-0.5 152,-0.5"/>
<text text-anchor="start" x="160" y="-18.5" font-family="Helvetica,sans-Serif" font-size="10.00">WSClient::on_receive</text>
<text text-anchor="middle" x="208" y="-7.5" font-family="Helvetica,sans-Serif" font-size="10.00">_delta</text>
</a>
</g>
</g>
<!-- Node2&#45;&gt;Node3 -->
<g id="edge2" class="edge">
<title>Node2&#45;&gt;Node3</title>
<path fill="none" stroke="midnightblue" d="M289.47,-15.5C280.87,-15.5 272.28,-15.5 264.1,-15.5"/>
<polygon fill="midnightblue" stroke="midnightblue" points="289.56,-19 299.56,-15.5 289.56,-12 289.56,-19"/>
</g>
<!-- Node4 -->
<g id="node4" class="node">
<title>Node4</title>
<g id="a_node4"><a xlink:href="ws__client_8cpp.html#a5e74f160471b58a262cceef5edaea7e0" target="_top" xlink:title=" ">
<polygon fill="white" stroke="black" points="0,-6 0,-25 116,-25 116,-6 0,-6"/>
<text text-anchor="middle" x="58" y="-13" font-family="Helvetica,sans-Serif" font-size="10.00">webSocketClientEvent</text>
</a>
</g>
</g>
<!-- Node3&#45;&gt;Node4 -->
<g id="edge3" class="edge">
<title>Node3&#45;&gt;Node4</title>
<path fill="none" stroke="midnightblue" d="M141.63,-15.5C133.13,-15.5 124.48,-15.5 116.13,-15.5"/>
<polygon fill="midnightblue" stroke="midnightblue" points="141.89,-19 151.89,-15.5 141.89,-12 141.89,-19"/>
</g>
</g>
</svg>
