<?xml version="1.0" encoding="UTF-8" standalone="no"?>
<!DOCTYPE svg PUBLIC "-//W3C//DTD SVG 1.1//EN"
 "http://www.w3.org/Graphics/SVG/1.1/DTD/svg11.dtd">
<!-- Generated by graphviz version 2.49.3 (20211023.0002)
 -->
<!-- Title: sensesp::Frequency::Frequency Pages: 1 -->
<svg width="495pt" height="78pt"
 viewBox="0.00 0.00 495.00 77.50" xmlns="http://www.w3.org/2000/svg" xmlns:xlink="http://www.w3.org/1999/xlink">
<g id="graph0" class="graph" transform="scale(1 1) rotate(0) translate(4 73.5)">
<title>sensesp::Frequency::Frequency</title>
<polygon fill="white" stroke="transparent" points="-4,4 -4,-73.5 491,-73.5 491,4 -4,4"/>
<!-- Node1 -->
<g id="node1" class="node">
<title>Node1</title>
<g id="a_node1"><a xlink:title=" ">
<polygon fill="#bfbfbf" stroke="black" points="0,-22.5 0,-52.5 107,-52.5 107,-22.5 0,-22.5"/>
<text text-anchor="start" x="8" y="-40.5" font-family="Helvetica,sans-Serif" font-size="10.00">sensesp::Frequency</text>
<text text-anchor="middle" x="53.5" y="-29.5" font-family="Helvetica,sans-Serif" font-size="10.00">::Frequency</text>
</a>
</g>
</g>
<!-- Node2 -->
<g id="node2" class="node">
<title>Node2</title>
<g id="a_node2"><a xlink:href="classsensesp_1_1_configurable.html#ac97542fd5a24ae306adb77f3d1ba563a" target="_top" xlink:title=" ">
<polygon fill="white" stroke="black" points="143,-22.5 143,-52.5 259,-52.5 259,-22.5 143,-22.5"/>
<text text-anchor="start" x="151" y="-40.5" font-family="Helvetica,sans-Serif" font-size="10.00">sensesp::Configurable</text>
<text text-anchor="middle" x="201" y="-29.5" font-family="Helvetica,sans-Serif" font-size="10.00">::load_configuration</text>
</a>
</g>
</g>
<!-- Node1&#45;&gt;Node2 -->
<g id="edge1" class="edge">
<title>Node1&#45;&gt;Node2</title>
<path fill="none" stroke="midnightblue" d="M107.03,-37.5C115.34,-37.5 124.03,-37.5 132.62,-37.5"/>
<polygon fill="midnightblue" stroke="midnightblue" points="132.63,-41 142.63,-37.5 132.63,-34 132.63,-41"/>
</g>
<!-- Node3 -->
<g id="node3" class="node">
<title>Node3</title>
<g id="a_node3"><a xlink:href="hash_8cpp.html#acb0d85917e87a85ddaf682ebde0872a5" target="_top" xlink:title="A base64&#45;encoded SHA&#45;1 hash function.">
<polygon fill="white" stroke="black" points="316,-50 316,-69 390,-69 390,-50 316,-50"/>
<text text-anchor="middle" x="353" y="-57" font-family="Helvetica,sans-Serif" font-size="10.00">Base64Sha1</text>
</a>
</g>
</g>
<!-- Node2&#45;&gt;Node3 -->
<g id="edge2" class="edge">
<title>Node2&#45;&gt;Node3</title>
<path fill="none" stroke="midnightblue" d="M259.14,-45.88C274.61,-48.15 291.16,-50.58 305.94,-52.74"/>
<polygon fill="midnightblue" stroke="midnightblue" points="305.45,-56.21 315.85,-54.2 306.46,-49.28 305.45,-56.21"/>
</g>
<!-- Node5 -->
<g id="node5" class="node">
<title>Node5</title>
<g id="a_node5"><a xlink:href="classsensesp_1_1_configurable.html#a0deaa5b717cd0f60d0105835cd6b595a" target="_top" xlink:title=" ">
<polygon fill="white" stroke="black" points="295,-0.5 295,-30.5 411,-30.5 411,-0.5 295,-0.5"/>
<text text-anchor="start" x="303" y="-18.5" font-family="Helvetica,sans-Serif" font-size="10.00">sensesp::Configurable</text>
<text text-anchor="middle" x="353" y="-7.5" font-family="Helvetica,sans-Serif" font-size="10.00">::set_configuration</text>
</a>
</g>
</g>
<!-- Node2&#45;&gt;Node5 -->
<g id="edge4" class="edge">
<title>Node2&#45;&gt;Node5</title>
<path fill="none" stroke="midnightblue" d="M259.14,-29.12C267.47,-27.9 276.11,-26.63 284.62,-25.38"/>
<polygon fill="midnightblue" stroke="midnightblue" points="285.14,-28.84 294.53,-23.93 284.12,-21.92 285.14,-28.84"/>
</g>
<!-- Node4 -->
<g id="node4" class="node">
<title>Node4</title>
<g id="a_node4"><a xlink:href="hash_8cpp.html#a5c78d7f77047179963ffda330a0a00ce" target="_top" xlink:title="SHA&#45;1 hash function.">
<polygon fill="white" stroke="black" points="447,-50 447,-69 487,-69 487,-50 447,-50"/>
<text text-anchor="middle" x="467" y="-57" font-family="Helvetica,sans-Serif" font-size="10.00">Sha1</text>
</a>
</g>
</g>
<!-- Node3&#45;&gt;Node4 -->
<g id="edge3" class="edge">
<title>Node3&#45;&gt;Node4</title>
<path fill="none" stroke="midnightblue" d="M390.05,-59.5C405.14,-59.5 422.44,-59.5 436.72,-59.5"/>
<polygon fill="midnightblue" stroke="midnightblue" points="436.96,-63 446.96,-59.5 436.96,-56 436.96,-63"/>
</g>
</g>
</svg>
