<?xml version="1.0" encoding="UTF-8" standalone="no"?>
<!DOCTYPE svg PUBLIC "-//W3C//DTD SVG 1.1//EN"
 "http://www.w3.org/Graphics/SVG/1.1/DTD/svg11.dtd">
<!-- Generated by graphviz version 14.1.1 (20251213.1925)
 -->
<!-- Title: sensesp::SKListener::SKListener Pages: 1 -->
<svg width="752pt" height="174pt"
 viewBox="0.00 0.00 752.00 174.00" xmlns="http://www.w3.org/2000/svg" xmlns:xlink="http://www.w3.org/1999/xlink">
<g id="graph0" class="graph" transform="scale(1 1) rotate(0) translate(4 169.5)">
<title>sensesp::SKListener::SKListener</title>
<!-- Node1 -->
<g id="Node000001" class="node">
<title>Node1</title>
<g id="a_Node000001"><a xlink:title=" ">
<polygon fill="#999999" stroke="#666666" points="106.75,-121.5 0,-121.5 0,-91 106.75,-91 106.75,-121.5"/>
<text xml:space="preserve" text-anchor="start" x="8" y="-108" font-family="Helvetica,sans-Serif" font-size="10.00">sensesp::SKListener</text>
<text xml:space="preserve" text-anchor="middle" x="53.38" y="-96.75" font-family="Helvetica,sans-Serif" font-size="10.00">::SKListener</text>
</a>
</g>
</g>
<!-- Node2 -->
<g id="Node000002" class="node">
<title>Node2</title>
<g id="a_Node000002"><a xlink:href="classsensesp_1_1_file_system_saveable.html#a974f062b375cf8637944f121084cf9f7" target="_top" xlink:title=" ">
<polygon fill="white" stroke="#666666" points="291.5,-155.5 142.75,-155.5 142.75,-125 291.5,-125 291.5,-155.5"/>
<text xml:space="preserve" text-anchor="start" x="150.75" y="-142" font-family="Helvetica,sans-Serif" font-size="10.00">sensesp::FileSystemSaveable</text>
<text xml:space="preserve" text-anchor="middle" x="217.12" y="-130.75" font-family="Helvetica,sans-Serif" font-size="10.00">::FileSystemSaveable</text>
</a>
</g>
</g>
<!-- Node1&#45;&gt;Node2 -->
<g id="edge1_Node000001_Node000002" class="edge">
<title>Node1&#45;&gt;Node2</title>
<g id="a_edge1_Node000001_Node000002"><a xlink:title=" ">
<path fill="none" stroke="#63b8ff" d="M106.89,-117.29C114.78,-118.95 123.08,-120.69 131.44,-122.45"/>
<polygon fill="#63b8ff" stroke="#63b8ff" points="130.44,-125.81 140.94,-124.45 131.88,-118.96 130.44,-125.81"/>
</a>
</g>
</g>
<!-- Node4 -->
<g id="Node000004" class="node">
<title>Node4</title>
<g id="a_Node000004"><a xlink:href="classsensesp_1_1_file_system_saveable.html#a79b2e2e657112851dfda8785d217578a" target="_top" xlink:title="Load and populate the object from a persistent storage.">
<polygon fill="white" stroke="#666666" points="291.5,-97.5 142.75,-97.5 142.75,-67 291.5,-67 291.5,-97.5"/>
<text xml:space="preserve" text-anchor="start" x="150.75" y="-84" font-family="Helvetica,sans-Serif" font-size="10.00">sensesp::FileSystemSaveable</text>
<text xml:space="preserve" text-anchor="middle" x="217.12" y="-72.75" font-family="Helvetica,sans-Serif" font-size="10.00">::load</text>
</a>
</g>
</g>
<!-- Node1&#45;&gt;Node4 -->
<g id="edge3_Node000001_Node000004" class="edge">
<title>Node1&#45;&gt;Node4</title>
<g id="a_edge3_Node000001_Node000004"><a xlink:title=" ">
<path fill="none" stroke="#63b8ff" d="M106.89,-98.46C114.69,-97.3 122.89,-96.08 131.16,-94.86"/>
<polygon fill="#63b8ff" stroke="#63b8ff" points="131.55,-98.34 140.93,-93.41 130.52,-91.41 131.55,-98.34"/>
</a>
</g>
</g>
<!-- Node3 -->
<g id="Node000003" class="node">
<title>Node3</title>
<g id="a_Node000003"><a xlink:href="classsensesp_1_1_saveable.html#abaa7864f4f35be033ad5f32a379051d7" target="_top" xlink:title=" ">
<polygon fill="white" stroke="#666666" points="454.5,-165.5 349.25,-165.5 349.25,-135 454.5,-135 454.5,-165.5"/>
<text xml:space="preserve" text-anchor="start" x="357.25" y="-152" font-family="Helvetica,sans-Serif" font-size="10.00">sensesp::Saveable::</text>
<text xml:space="preserve" text-anchor="middle" x="401.88" y="-140.75" font-family="Helvetica,sans-Serif" font-size="10.00">Saveable</text>
</a>
</g>
</g>
<!-- Node2&#45;&gt;Node3 -->
<g id="edge2_Node000002_Node000003" class="edge">
<title>Node2&#45;&gt;Node3</title>
<g id="a_edge2_Node000002_Node000003"><a xlink:title=" ">
<path fill="none" stroke="#63b8ff" d="M291.93,-144.29C307.17,-145.12 323.08,-145.99 337.89,-146.8"/>
<polygon fill="#63b8ff" stroke="#63b8ff" points="337.28,-150.28 347.45,-147.33 337.66,-143.29 337.28,-150.28"/>
</a>
</g>
</g>
<!-- Node5 -->
<g id="Node000005" class="node">
<title>Node5</title>
<g id="a_Node000005"><a xlink:href="namespacesensesp.html#adad24461f43358c45017cf1cb816ca60" target="_top" xlink:title="A base64&#45;encoded SHA&#45;1 hash function.">
<polygon fill="white" stroke="#666666" points="626.5,-94.88 512.25,-94.88 512.25,-75.62 626.5,-75.62 626.5,-94.88"/>
<text xml:space="preserve" text-anchor="middle" x="569.38" y="-81.38" font-family="Helvetica,sans-Serif" font-size="10.00">sensesp::Base64Sha1</text>
</a>
</g>
</g>
<!-- Node4&#45;&gt;Node5 -->
<g id="edge4_Node000004_Node000005" class="edge">
<title>Node4&#45;&gt;Node5</title>
<g id="a_edge4_Node000004_Node000005"><a xlink:title=" ">
<path fill="none" stroke="#63b8ff" d="M291.94,-86.85C303.83,-87.43 316,-87.93 327.5,-88.25 393.59,-90.06 410.15,-89.33 476.25,-88.25 484.08,-88.12 492.28,-87.93 500.43,-87.71"/>
<polygon fill="#63b8ff" stroke="#63b8ff" points="500.46,-91.21 510.35,-87.42 500.26,-84.22 500.46,-91.21"/>
</a>
</g>
</g>
<!-- Node7 -->
<g id="Node000007" class="node">
<title>Node7</title>
<g id="a_Node000007"><a xlink:href="classsensesp_1_1_file_system_saveable.html#ad0233f7895b5c8915108399420c7cf0b" target="_top" xlink:title=" ">
<polygon fill="white" stroke="#666666" points="476.25,-79.5 327.5,-79.5 327.5,-49 476.25,-49 476.25,-79.5"/>
<text xml:space="preserve" text-anchor="start" x="335.5" y="-66" font-family="Helvetica,sans-Serif" font-size="10.00">sensesp::FileSystemSaveable</text>
<text xml:space="preserve" text-anchor="middle" x="401.88" y="-54.75" font-family="Helvetica,sans-Serif" font-size="10.00">::find_config_file</text>
</a>
</g>
</g>
<!-- Node4&#45;&gt;Node7 -->
<g id="edge6_Node000004_Node000007" class="edge">
<title>Node4&#45;&gt;Node7</title>
<g id="a_edge6_Node000004_Node000007"><a xlink:title=" ">
<path fill="none" stroke="#63b8ff" d="M291.93,-74.98C299.81,-74.2 307.87,-73.41 315.86,-72.62"/>
<polygon fill="#63b8ff" stroke="#63b8ff" points="315.98,-76.13 325.59,-71.67 315.29,-69.16 315.98,-76.13"/>
</a>
</g>
</g>
<!-- Node8 -->
<g id="Node000008" class="node">
<title>Node8</title>
<g id="a_Node000008"><a xlink:href="classsensesp_1_1_serializable.html#a841233a82ef3a7fbcecd5a15b0df12d2" target="_top" xlink:title=" ">
<polygon fill="white" stroke="#666666" points="456.38,-30.5 347.38,-30.5 347.38,0 456.38,0 456.38,-30.5"/>
<text xml:space="preserve" text-anchor="start" x="355.38" y="-17" font-family="Helvetica,sans-Serif" font-size="10.00">sensesp::Serializable</text>
<text xml:space="preserve" text-anchor="middle" x="401.88" y="-5.75" font-family="Helvetica,sans-Serif" font-size="10.00">::from_json</text>
</a>
</g>
</g>
<!-- Node4&#45;&gt;Node8 -->
<g id="edge8_Node000004_Node000008" class="edge">
<title>Node4&#45;&gt;Node8</title>
<g id="a_edge8_Node000004_Node000008"><a xlink:title=" ">
<path fill="none" stroke="#63b8ff" d="M257.99,-66.52C278.66,-58.47 304.36,-48.63 327.5,-40.25 332.53,-38.43 337.77,-36.57 343.04,-34.72"/>
<polygon fill="#63b8ff" stroke="#63b8ff" points="344.08,-38.07 352.38,-31.48 341.78,-31.45 344.08,-38.07"/>
</a>
</g>
</g>
<!-- Node6 -->
<g id="Node000006" class="node">
<title>Node6</title>
<g id="a_Node000006"><a xlink:href="namespacesensesp.html#a37dfeb5f75b7115464a9aa40473d69cf" target="_top" xlink:title="SHA&#45;1 hash function.">
<polygon fill="white" stroke="#666666" points="743.75,-94.88 662.5,-94.88 662.5,-75.62 743.75,-75.62 743.75,-94.88"/>
<text xml:space="preserve" text-anchor="middle" x="703.12" y="-81.38" font-family="Helvetica,sans-Serif" font-size="10.00">sensesp::Sha1</text>
</a>
</g>
</g>
<!-- Node5&#45;&gt;Node6 -->
<g id="edge5_Node000005_Node000006" class="edge">
<title>Node5&#45;&gt;Node6</title>
<g id="a_edge5_Node000005_Node000006"><a xlink:title=" ">
<path fill="none" stroke="#63b8ff" d="M626.63,-85.25C634.71,-85.25 642.99,-85.25 650.97,-85.25"/>
<polygon fill="#63b8ff" stroke="#63b8ff" points="650.87,-88.75 660.87,-85.25 650.87,-81.75 650.87,-88.75"/>
</a>
</g>
</g>
<!-- Node7&#45;&gt;Node5 -->
<g id="edge7_Node000007_Node000005" class="edge">
<title>Node7&#45;&gt;Node5</title>
<g id="a_edge7_Node000007_Node000005"><a xlink:title=" ">
<path fill="none" stroke="#63b8ff" d="M476.43,-73.58C484.53,-74.61 492.74,-75.65 500.76,-76.67"/>
<polygon fill="#63b8ff" stroke="#63b8ff" points="500.08,-80.11 510.44,-77.9 500.96,-73.17 500.08,-80.11"/>
</a>
</g>
</g>
</g>
</svg>
