<?xml version="1.0" encoding="UTF-8" standalone="no"?>
<!DOCTYPE svg PUBLIC "-//W3C//DTD SVG 1.1//EN"
 "http://www.w3.org/Graphics/SVG/1.1/DTD/svg11.dtd">
<!-- Generated by graphviz version 12.1.2 (20240928.0832)
 -->
<!-- Title: sensesp::SKWSClient Pages: 1 -->
<svg width="759pt" height="142pt"
 viewBox="0.00 0.00 758.75 142.25" xmlns="http://www.w3.org/2000/svg" xmlns:xlink="http://www.w3.org/1999/xlink">
<g id="graph0" class="graph" transform="scale(1 1) rotate(0) translate(4 138.25)">
<title>sensesp::SKWSClient</title>
<!-- Node1 -->
<g id="Node000001" class="node">
<title>Node1</title>
<g id="a_Node000001"><a xlink:title="The websocket connection to the Signal K server.">
<polygon fill="#999999" stroke="#666666" points="750.75,-76.25 636.5,-76.25 636.5,-57 750.75,-57 750.75,-76.25"/>
<text text-anchor="middle" x="693.62" y="-62.75" font-family="Helvetica,sans-Serif" font-size="10.00">sensesp::SKWSClient</text>
</a>
</g>
</g>
<!-- Node2 -->
<g id="Node000002" class="node">
<title>Node2</title>
<g id="a_Node000002"><a xlink:href="classsensesp_1_1_file_system_saveable.html" target="_top" xlink:title=" ">
<polygon fill="white" stroke="#666666" points="599.5,-98.25 450.75,-98.25 450.75,-79 599.5,-79 599.5,-98.25"/>
<text text-anchor="middle" x="525.12" y="-84.75" font-family="Helvetica,sans-Serif" font-size="10.00">sensesp::FileSystemSaveable</text>
</a>
</g>
</g>
<!-- Node2&#45;&gt;Node1 -->
<g id="edge1_Node000001_Node000002" class="edge">
<title>Node2&#45;&gt;Node1</title>
<g id="a_edge1_Node000001_Node000002"><a xlink:title=" ">
<path fill="none" stroke="#63b8ff" d="M610.84,-77.43C619.37,-76.3 627.88,-75.18 636.01,-74.11"/>
<polygon fill="#63b8ff" stroke="#63b8ff" points="610.59,-73.93 601.14,-78.71 611.51,-80.87 610.59,-73.93"/>
</a>
</g>
</g>
<!-- Node3 -->
<g id="Node000003" class="node">
<title>Node3</title>
<g id="a_Node000003"><a xlink:href="classsensesp_1_1_saveable.html" target="_top" xlink:title="Interface for saveable objects.">
<polygon fill="white" stroke="#666666" points="267.75,-134.25 168.5,-134.25 168.5,-115 267.75,-115 267.75,-134.25"/>
<text text-anchor="middle" x="218.12" y="-120.75" font-family="Helvetica,sans-Serif" font-size="10.00">sensesp::Saveable</text>
</a>
</g>
</g>
<!-- Node3&#45;&gt;Node2 -->
<g id="edge2_Node000002_Node000003" class="edge">
<title>Node3&#45;&gt;Node2</title>
<g id="a_edge2_Node000002_Node000003"><a xlink:title=" ">
<path fill="none" stroke="#63b8ff" d="M279.32,-118.7C322.16,-114.34 381.04,-108.08 432.75,-101.62 439.9,-100.73 447.37,-99.75 454.81,-98.74"/>
<polygon fill="#63b8ff" stroke="#63b8ff" points="279.07,-115.2 269.47,-119.69 279.77,-122.17 279.07,-115.2"/>
</a>
</g>
</g>
<!-- Node4 -->
<g id="Node000004" class="node">
<title>Node4</title>
<g id="a_Node000004"><a xlink:href="classsensesp_1_1_serializable.html" target="_top" xlink:title="Interface for serializable objects.">
<polygon fill="white" stroke="#666666" points="272.62,-97.25 163.62,-97.25 163.62,-78 272.62,-78 272.62,-97.25"/>
<text text-anchor="middle" x="218.12" y="-83.75" font-family="Helvetica,sans-Serif" font-size="10.00">sensesp::Serializable</text>
</a>
</g>
</g>
<!-- Node4&#45;&gt;Node2 -->
<g id="edge3_Node000002_Node000004" class="edge">
<title>Node4&#45;&gt;Node2</title>
<g id="a_edge3_Node000002_Node000004"><a xlink:title=" ">
<path fill="none" stroke="#63b8ff" d="M284.32,-87.84C333.09,-88 399.84,-88.22 450.53,-88.38"/>
<polygon fill="#63b8ff" stroke="#63b8ff" points="284.48,-84.34 274.46,-87.81 284.45,-91.34 284.48,-84.34"/>
</a>
</g>
</g>
<!-- Node5 -->
<g id="Node000005" class="node">
<title>Node5</title>
<g id="a_Node000005"><a xlink:href="classsensesp_1_1_value_producer.html" target="_top" xlink:title=" ">
<polygon fill="white" stroke="#666666" points="593.5,-60.88 456.75,-60.88 456.75,-30.38 593.5,-30.38 593.5,-60.88"/>
<text text-anchor="start" x="464.75" y="-47.38" font-family="Helvetica,sans-Serif" font-size="10.00">sensesp::ValueProducer</text>
<text text-anchor="middle" x="525.12" y="-36.12" font-family="Helvetica,sans-Serif" font-size="10.00">&lt; SKWSConnectionState &gt;</text>
</a>
</g>
</g>
<!-- Node5&#45;&gt;Node1 -->
<g id="edge4_Node000001_Node000005" class="edge">
<title>Node5&#45;&gt;Node1</title>
<g id="a_edge4_Node000001_Node000005"><a xlink:title=" ">
<path fill="none" stroke="#63b8ff" d="M605.14,-55.59C615.6,-56.91 626.16,-58.24 636.14,-59.5"/>
<polygon fill="#63b8ff" stroke="#63b8ff" points="605.71,-52.13 595.35,-54.36 604.83,-59.08 605.71,-52.13"/>
</a>
</g>
</g>
<!-- Node6 -->
<g id="Node000006" class="node">
<title>Node6</title>
<g id="a_Node000006"><a xlink:href="classsensesp_1_1_observable.html" target="_top" xlink:title="A base class which allow observers to attach callbacks to themselves. The callbacks will be called wh...">
<polygon fill="white" stroke="#666666" points="108.25,-38.25 0,-38.25 0,-19 108.25,-19 108.25,-38.25"/>
<text text-anchor="middle" x="54.12" y="-24.75" font-family="Helvetica,sans-Serif" font-size="10.00">sensesp::Observable</text>
</a>
</g>
</g>
<!-- Node6&#45;&gt;Node5 -->
<g id="edge5_Node000005_Node000006" class="edge">
<title>Node6&#45;&gt;Node5</title>
<g id="a_edge5_Node000005_Node000006"><a xlink:title=" ">
<path fill="none" stroke="#63b8ff" d="M120.03,-33.3C122.13,-33.41 124.21,-33.52 126.25,-33.62 242.2,-39.45 377.32,-42.8 456.51,-44.41"/>
<polygon fill="#63b8ff" stroke="#63b8ff" points="120.41,-29.81 110.22,-32.71 119.99,-36.8 120.41,-29.81"/>
</a>
</g>
</g>
<!-- Node7 -->
<g id="Node000007" class="node">
<title>Node7</title>
<g id="a_Node000007"><a xlink:href="classsensesp_1_1_value_producer.html" target="_top" xlink:title="A base class for any sensor or piece of code that outputs a value for consumption elsewhere.">
<polygon fill="white" stroke="#666666" points="291,-19.25 145.25,-19.25 145.25,0 291,0 291,-19.25"/>
<text text-anchor="middle" x="218.12" y="-5.75" font-family="Helvetica,sans-Serif" font-size="10.00">sensesp::ValueProducer&lt; T &gt;</text>
</a>
</g>
</g>
<!-- Node6&#45;&gt;Node7 -->
<g id="edge7_Node000007_Node000006" class="edge">
<title>Node6&#45;&gt;Node7</title>
<g id="a_edge7_Node000007_Node000006"><a xlink:title=" ">
<path fill="none" stroke="#63b8ff" d="M120,-21.02C128.19,-20.06 136.61,-19.07 144.9,-18.1"/>
<polygon fill="#63b8ff" stroke="#63b8ff" points="119.65,-17.53 110.12,-22.17 120.46,-24.49 119.65,-17.53"/>
</a>
</g>
</g>
<!-- Node7&#45;&gt;Node5 -->
<g id="edge6_Node000005_Node000007" class="edge">
<title>Node7&#45;&gt;Node5</title>
<g id="a_edge6_Node000005_Node000007"><a xlink:title=" ">
<path fill="none" stroke="orange" stroke-dasharray="5,2" d="M302.66,-10.95C342.27,-12.51 390.15,-15.75 432.75,-22.38 444.72,-24.24 457.4,-26.97 469.39,-29.9"/>
<polygon fill="orange" stroke="orange" points="302.82,-7.45 292.7,-10.59 302.56,-14.44 302.82,-7.45"/>
</a>
</g>
<text text-anchor="middle" x="370.88" y="-24.12" font-family="Helvetica,sans-Serif" font-size="10.00" fill="grey"> &lt; SKWSConnectionState &gt;</text>
</g>
</g>
</svg>
