<?xml version="1.0" encoding="UTF-8" standalone="no"?>
<!DOCTYPE svg PUBLIC "-//W3C//DTD SVG 1.1//EN"
 "http://www.w3.org/Graphics/SVG/1.1/DTD/svg11.dtd">
<!-- Generated by graphviz version 7.1.0 (20230121.1956)
 -->
<!-- Title: sensesp::SensESPBaseApp::get Pages: 1 -->
<svg width="1082pt" height="753pt"
 viewBox="0.00 0.00 1082.00 753.00" xmlns="http://www.w3.org/2000/svg" xmlns:xlink="http://www.w3.org/1999/xlink">
<g id="graph0" class="graph" transform="scale(1 1) rotate(0) translate(4 749)">
<title>sensesp::SensESPBaseApp::get</title>
<!-- Node1 -->
<g id="node1" class="node">
<title>Node1</title>
<g id="a_node1"><a xlink:title="Get the singleton instance of the SensESPBaseApp.">
<polygon fill="#999999" stroke="#666666" points="1074,-168.5 913,-168.5 913,-149.5 1074,-149.5 1074,-168.5"/>
<text text-anchor="middle" x="993.5" y="-156.5" font-family="Helvetica,sans-Serif" font-size="10.00">sensesp::SensESPBaseApp::get</text>
</a>
</g>
</g>
<!-- Node2 -->
<g id="node2" class="node">
<title>Node2</title>
<g id="a_node2"><a xlink:href="namespacesensesp.html#af967e4af8221a3bf2d5fd79522ada711" target="_top" xlink:title="Connect a system information sensor to SKOutput.">
<polygon fill="white" stroke="#666666" points="865,-625 734,-625 734,-595 865,-595 865,-625"/>
<text text-anchor="start" x="742" y="-613" font-family="Helvetica,sans-Serif" font-size="10.00">sensesp::connect_system</text>
<text text-anchor="middle" x="799.5" y="-602" font-family="Helvetica,sans-Serif" font-size="10.00">_info_sensor</text>
</a>
</g>
</g>
<!-- Node1&#45;&gt;Node2 -->
<g id="edge1" class="edge">
<title>Node1&#45;&gt;Node2</title>
<path fill="none" stroke="#63b8ff" d="M983.99,-178.99C951.52,-255.26 835.78,-527.13 807.01,-594.71"/>
<polygon fill="#63b8ff" stroke="#63b8ff" points="987.02,-180.8 987.72,-170.23 980.58,-178.06 987.02,-180.8"/>
</g>
<!-- Node9 -->
<g id="node9" class="node">
<title>Node9</title>
<g id="a_node9"><a xlink:href="classsensesp_1_1_sens_e_s_p_base_app.html#a928c309a2dc17f82edefe9e5bc7ef33d" target="_top" xlink:title="Get the current hostname.">
<polygon fill="white" stroke="#666666" points="870.5,-337 728.5,-337 728.5,-307 870.5,-307 870.5,-337"/>
<text text-anchor="start" x="736.5" y="-325" font-family="Helvetica,sans-Serif" font-size="10.00">sensesp::SensESPBaseApp</text>
<text text-anchor="middle" x="799.5" y="-314" font-family="Helvetica,sans-Serif" font-size="10.00">::get_hostname</text>
</a>
</g>
</g>
<!-- Node1&#45;&gt;Node9 -->
<g id="edge12" class="edge">
<title>Node1&#45;&gt;Node9</title>
<path fill="none" stroke="#63b8ff" d="M972.16,-176.26C934.48,-208.26 854.37,-276.26 818.51,-306.71"/>
<polygon fill="#63b8ff" stroke="#63b8ff" points="974.27,-179.07 979.62,-169.93 969.74,-173.73 974.27,-179.07"/>
</g>
<!-- Node20 -->
<g id="node20" class="node">
<title>Node20</title>
<g id="a_node20"><a xlink:href="classsensesp_1_1_networking.html#a28dcf335a69d16f9206e0e5b9886d66a" target="_top" xlink:title="Start WiFi using WiFi Manager.">
<polygon fill="white" stroke="#666666" points="663.5,-217 553.5,-217 553.5,-187 663.5,-187 663.5,-217"/>
<text text-anchor="start" x="561.5" y="-205" font-family="Helvetica,sans-Serif" font-size="10.00">sensesp::Networking</text>
<text text-anchor="middle" x="608.5" y="-194" font-family="Helvetica,sans-Serif" font-size="10.00">::setup_wifi_manager</text>
</a>
</g>
</g>
<!-- Node1&#45;&gt;Node20 -->
<g id="edge34" class="edge">
<title>Node1&#45;&gt;Node20</title>
<path fill="none" stroke="#63b8ff" d="M940.09,-171.44C920.41,-175.7 897.77,-180.12 877,-183 803.56,-193.19 717.97,-198.06 663.77,-200.28"/>
<polygon fill="#63b8ff" stroke="#63b8ff" points="940.82,-174.86 949.83,-169.29 939.31,-168.03 940.82,-174.86"/>
</g>
<!-- Node24 -->
<g id="node24" class="node">
<title>Node24</title>
<g id="a_node24"><a xlink:href="classsensesp_1_1_h_t_t_p_server.html#a2b531f7baac93cc9528e8b48db59e1c1" target="_top" xlink:title=" ">
<polygon fill="white" stroke="#666666" points="856.5,-174 742.5,-174 742.5,-144 856.5,-144 856.5,-174"/>
<text text-anchor="start" x="750.5" y="-162" font-family="Helvetica,sans-Serif" font-size="10.00">sensesp::HTTPServer</text>
<text text-anchor="middle" x="799.5" y="-151" font-family="Helvetica,sans-Serif" font-size="10.00">::handle_device_reset</text>
</a>
</g>
</g>
<!-- Node1&#45;&gt;Node24 -->
<g id="edge28" class="edge">
<title>Node1&#45;&gt;Node24</title>
<path fill="none" stroke="#63b8ff" d="M901.24,-159C886.11,-159 870.84,-159 856.91,-159"/>
<polygon fill="#63b8ff" stroke="#63b8ff" points="901.23,-162.5 911.23,-159 901.23,-155.5 901.23,-162.5"/>
</g>
<!-- Node26 -->
<g id="node26" class="node">
<title>Node26</title>
<g id="a_node26"><a xlink:href="classsensesp_1_1_minimal_button_handler.html#ae0765a640028979faa385b57ba6374df" target="_top" xlink:title="Handle a very long button press (over 5 seconds).">
<polygon fill="white" stroke="#666666" points="877,-126 722,-126 722,-96 877,-96 877,-126"/>
<text text-anchor="start" x="730" y="-114" font-family="Helvetica,sans-Serif" font-size="10.00">sensesp::MinimalButtonHandler</text>
<text text-anchor="middle" x="799.5" y="-103" font-family="Helvetica,sans-Serif" font-size="10.00">::handle_very_long_press</text>
</a>
</g>
</g>
<!-- Node1&#45;&gt;Node26 -->
<g id="edge30" class="edge">
<title>Node1&#45;&gt;Node26</title>
<path fill="none" stroke="#63b8ff" d="M941.55,-146.26C917.17,-140.17 887.79,-132.82 862.16,-126.42"/>
<polygon fill="#63b8ff" stroke="#63b8ff" points="940.7,-149.66 951.25,-148.69 942.4,-142.87 940.7,-149.66"/>
</g>
<!-- Node28 -->
<g id="node28" class="node">
<title>Node28</title>
<g id="a_node28"><a xlink:href="classsensesp_1_1_networking.html#ada452657788120737d28fd55ea74f3bf" target="_top" xlink:title=" ">
<polygon fill="white" stroke="#666666" points="854,-78 745,-78 745,-48 854,-48 854,-78"/>
<text text-anchor="start" x="753" y="-66" font-family="Helvetica,sans-Serif" font-size="10.00">sensesp::Networking</text>
<text text-anchor="middle" x="799.5" y="-55" font-family="Helvetica,sans-Serif" font-size="10.00">::Networking</text>
</a>
</g>
</g>
<!-- Node1&#45;&gt;Node28 -->
<g id="edge32" class="edge">
<title>Node1&#45;&gt;Node28</title>
<path fill="none" stroke="#63b8ff" d="M970.2,-142.7C947.61,-126.79 911.23,-102.73 877,-87 869.79,-83.69 862,-80.66 854.24,-77.96"/>
<polygon fill="#63b8ff" stroke="#63b8ff" points="967.86,-145.33 978.03,-148.3 971.93,-139.64 967.86,-145.33"/>
</g>
<!-- Node29 -->
<g id="node29" class="node">
<title>Node29</title>
<g id="a_node29"><a xlink:href="classsensesp_1_1_networking.html#acc268ce1d647c01d7a9b01ed34f55bee" target="_top" xlink:title=" ">
<polygon fill="white" stroke="#666666" points="854,-30 745,-30 745,0 854,0 854,-30"/>
<text text-anchor="start" x="753" y="-18" font-family="Helvetica,sans-Serif" font-size="10.00">sensesp::Networking</text>
<text text-anchor="middle" x="799.5" y="-7" font-family="Helvetica,sans-Serif" font-size="10.00">::set_configuration</text>
</a>
</g>
</g>
<!-- Node1&#45;&gt;Node29 -->
<g id="edge33" class="edge">
<title>Node1&#45;&gt;Node29</title>
<path fill="none" stroke="#63b8ff" d="M979.16,-140.06C959.65,-113.7 920.85,-66.14 877,-39 870.02,-34.68 862.19,-31.07 854.28,-28.08"/>
<polygon fill="#63b8ff" stroke="#63b8ff" points="976.29,-142.06 984.99,-148.11 981.96,-137.96 976.29,-142.06"/>
</g>
<!-- Node3 -->
<g id="node3" class="node">
<title>Node3</title>
<g id="a_node3"><a xlink:href="classsensesp_1_1_sens_e_s_p_app_builder.html#aa90ff7615dce9d7befeb421c7cf6f583" target="_top" xlink:title="Enable the free memory sensor.">
<polygon fill="white" stroke="#666666" points="682.5,-745 534.5,-745 534.5,-715 682.5,-715 682.5,-745"/>
<text text-anchor="start" x="542.5" y="-733" font-family="Helvetica,sans-Serif" font-size="10.00">sensesp::SensESPAppBuilder</text>
<text text-anchor="middle" x="608.5" y="-722" font-family="Helvetica,sans-Serif" font-size="10.00">::enable_free_mem_sensor</text>
</a>
</g>
</g>
<!-- Node2&#45;&gt;Node3 -->
<g id="edge2" class="edge">
<title>Node2&#45;&gt;Node3</title>
<path fill="none" stroke="#63b8ff" d="M776.56,-633.52C755.27,-655.1 721.11,-686.58 686,-706 680.15,-709.23 673.81,-712.1 667.36,-714.62"/>
<polygon fill="#63b8ff" stroke="#63b8ff" points="778.84,-636.2 783.28,-626.59 773.81,-631.33 778.84,-636.2"/>
</g>
<!-- Node5 -->
<g id="node5" class="node">
<title>Node5</title>
<g id="a_node5"><a xlink:href="classsensesp_1_1_sens_e_s_p_app_builder.html#aa36af1a2298d0a4db7f6efdf88baf07a" target="_top" xlink:title="Report the IP address of the device.">
<polygon fill="white" stroke="#666666" points="682.5,-697 534.5,-697 534.5,-667 682.5,-667 682.5,-697"/>
<text text-anchor="start" x="542.5" y="-685" font-family="Helvetica,sans-Serif" font-size="10.00">sensesp::SensESPAppBuilder</text>
<text text-anchor="middle" x="608.5" y="-674" font-family="Helvetica,sans-Serif" font-size="10.00">::enable_ip_address_sensor</text>
</a>
</g>
</g>
<!-- Node2&#45;&gt;Node5 -->
<g id="edge4" class="edge">
<title>Node2&#45;&gt;Node5</title>
<path fill="none" stroke="#63b8ff" d="M754.54,-629.96C733.92,-639 708.9,-649.55 686,-658 678.03,-660.94 669.52,-663.84 661.17,-666.56"/>
<polygon fill="#63b8ff" stroke="#63b8ff" points="755.77,-633.24 763.5,-625.99 752.94,-626.84 755.77,-633.24"/>
</g>
<!-- Node6 -->
<g id="node6" class="node">
<title>Node6</title>
<g id="a_node6"><a xlink:href="classsensesp_1_1_sens_e_s_p_app_builder.html#ac7e2cdd591bd78309ab0c838fe6a01ea" target="_top" xlink:title="Enable the System Hz sensor.">
<polygon fill="white" stroke="#666666" points="682.5,-649 534.5,-649 534.5,-619 682.5,-619 682.5,-649"/>
<text text-anchor="start" x="542.5" y="-637" font-family="Helvetica,sans-Serif" font-size="10.00">sensesp::SensESPAppBuilder</text>
<text text-anchor="middle" x="608.5" y="-626" font-family="Helvetica,sans-Serif" font-size="10.00">::enable_system_hz_sensor</text>
</a>
</g>
</g>
<!-- Node2&#45;&gt;Node6 -->
<g id="edge6" class="edge">
<title>Node2&#45;&gt;Node6</title>
<path fill="none" stroke="#63b8ff" d="M722.43,-619.66C709.41,-621.31 695.91,-623.03 682.96,-624.67"/>
<polygon fill="#63b8ff" stroke="#63b8ff" points="722.74,-623.15 732.22,-618.42 721.86,-616.2 722.74,-623.15"/>
</g>
<!-- Node7 -->
<g id="node7" class="node">
<title>Node7</title>
<g id="a_node7"><a xlink:href="classsensesp_1_1_sens_e_s_p_app_builder.html#aec8b05c9896ddc46d747ffea671dad70" target="_top" xlink:title="Report the system uptime in seconds since the last reboot.">
<polygon fill="white" stroke="#666666" points="682.5,-601 534.5,-601 534.5,-571 682.5,-571 682.5,-601"/>
<text text-anchor="start" x="542.5" y="-589" font-family="Helvetica,sans-Serif" font-size="10.00">sensesp::SensESPAppBuilder</text>
<text text-anchor="middle" x="608.5" y="-578" font-family="Helvetica,sans-Serif" font-size="10.00">::enable_uptime_sensor</text>
</a>
</g>
</g>
<!-- Node2&#45;&gt;Node7 -->
<g id="edge8" class="edge">
<title>Node2&#45;&gt;Node7</title>
<path fill="none" stroke="#63b8ff" d="M722.43,-600.34C709.41,-598.69 695.91,-596.97 682.96,-595.33"/>
<polygon fill="#63b8ff" stroke="#63b8ff" points="721.86,-603.8 732.22,-601.58 722.74,-596.85 721.86,-603.8"/>
</g>
<!-- Node8 -->
<g id="node8" class="node">
<title>Node8</title>
<g id="a_node8"><a xlink:href="classsensesp_1_1_sens_e_s_p_app_builder.html#afabc97d522db0964e161d42e1d54df4e" target="_top" xlink:title="Report the Wi&#45;Fi signal strength.">
<polygon fill="white" stroke="#666666" points="682.5,-553 534.5,-553 534.5,-523 682.5,-523 682.5,-553"/>
<text text-anchor="start" x="542.5" y="-541" font-family="Helvetica,sans-Serif" font-size="10.00">sensesp::SensESPAppBuilder</text>
<text text-anchor="middle" x="608.5" y="-530" font-family="Helvetica,sans-Serif" font-size="10.00">::enable_wifi_signal_sensor</text>
</a>
</g>
</g>
<!-- Node2&#45;&gt;Node8 -->
<g id="edge10" class="edge">
<title>Node2&#45;&gt;Node8</title>
<path fill="none" stroke="#63b8ff" d="M754.54,-590.04C733.92,-581 708.9,-570.45 686,-562 678.03,-559.06 669.52,-556.16 661.17,-553.44"/>
<polygon fill="#63b8ff" stroke="#63b8ff" points="752.94,-593.16 763.5,-594.01 755.77,-586.76 752.94,-593.16"/>
</g>
<!-- Node4 -->
<g id="node4" class="node">
<title>Node4</title>
<g id="a_node4"><a xlink:href="classsensesp_1_1_sens_e_s_p_app_builder.html#ad875bc0e66f1b804d6689a0e1b733c5a" target="_top" xlink:title="Enable all built&#45;in system info sensors.">
<polygon fill="white" stroke="#666666" points="495,-649 346,-649 346,-619 495,-619 495,-649"/>
<text text-anchor="start" x="354" y="-637" font-family="Helvetica,sans-Serif" font-size="10.00">sensesp::SensESPAppBuilder</text>
<text text-anchor="middle" x="420.5" y="-626" font-family="Helvetica,sans-Serif" font-size="10.00">::enable_system_info_sensors</text>
</a>
</g>
</g>
<!-- Node3&#45;&gt;Node4 -->
<g id="edge3" class="edge">
<title>Node3&#45;&gt;Node4</title>
<path fill="none" stroke="#63b8ff" d="M541.33,-710.53C537.8,-709.09 534.33,-707.58 531,-706 497.49,-690.11 462.26,-665.26 441.09,-649.31"/>
<polygon fill="#63b8ff" stroke="#63b8ff" points="540.05,-713.79 550.64,-714.08 542.54,-707.25 540.05,-713.79"/>
</g>
<!-- Node5&#45;&gt;Node4 -->
<g id="edge5" class="edge">
<title>Node5&#45;&gt;Node4</title>
<path fill="none" stroke="#63b8ff" d="M536.72,-663.73C518.43,-659.02 498.93,-653.98 481.26,-649.42"/>
<polygon fill="#63b8ff" stroke="#63b8ff" points="535.6,-667.06 546.16,-666.17 537.35,-660.28 535.6,-667.06"/>
</g>
<!-- Node6&#45;&gt;Node4 -->
<g id="edge7" class="edge">
<title>Node6&#45;&gt;Node4</title>
<path fill="none" stroke="#63b8ff" d="M523.04,-634C513.78,-634 504.41,-634 495.29,-634"/>
<polygon fill="#63b8ff" stroke="#63b8ff" points="522.74,-637.5 532.74,-634 522.74,-630.5 522.74,-637.5"/>
</g>
<!-- Node7&#45;&gt;Node4 -->
<g id="edge9" class="edge">
<title>Node7&#45;&gt;Node4</title>
<path fill="none" stroke="#63b8ff" d="M536.72,-604.27C518.43,-608.98 498.93,-614.02 481.26,-618.58"/>
<polygon fill="#63b8ff" stroke="#63b8ff" points="537.35,-607.72 546.16,-601.83 535.6,-600.94 537.35,-607.72"/>
</g>
<!-- Node8&#45;&gt;Node4 -->
<g id="edge11" class="edge">
<title>Node8&#45;&gt;Node4</title>
<path fill="none" stroke="#63b8ff" d="M541.33,-557.47C537.8,-558.91 534.33,-560.42 531,-562 497.49,-577.89 462.26,-602.74 441.09,-618.69"/>
<polygon fill="#63b8ff" stroke="#63b8ff" points="542.54,-560.75 550.64,-553.92 540.05,-554.21 542.54,-560.75"/>
</g>
<!-- Node10 -->
<g id="node10" class="node">
<title>Node10</title>
<g id="a_node10"><a xlink:href="classsensesp_1_1_networking.html#a0c6f1129ddbf501e4bc26c1e210f0245" target="_top" xlink:title=" ">
<polygon fill="white" stroke="#666666" points="663,-505 554,-505 554,-475 663,-475 663,-505"/>
<text text-anchor="start" x="562" y="-493" font-family="Helvetica,sans-Serif" font-size="10.00">sensesp::Networking</text>
<text text-anchor="middle" x="608.5" y="-482" font-family="Helvetica,sans-Serif" font-size="10.00">::get_configuration</text>
</a>
</g>
</g>
<!-- Node9&#45;&gt;Node10 -->
<g id="edge13" class="edge">
<title>Node9&#45;&gt;Node10</title>
<path fill="none" stroke="#63b8ff" d="M785.33,-347.02C767.16,-379.15 731.46,-434.51 686,-466 679.13,-470.76 671.28,-474.6 663.29,-477.7"/>
<polygon fill="#63b8ff" stroke="#63b8ff" points="788.31,-348.85 790.07,-338.41 782.18,-345.48 788.31,-348.85"/>
</g>
<!-- Node11 -->
<g id="node11" class="node">
<title>Node11</title>
<g id="a_node11"><a xlink:href="classsensesp_1_1_s_k_delta_queue.html#a26dc17fc9fa31804552240f81efa35ac" target="_top" xlink:title=" ">
<polygon fill="white" stroke="#666666" points="671,-457 546,-457 546,-427 671,-427 671,-457"/>
<text text-anchor="start" x="554" y="-445" font-family="Helvetica,sans-Serif" font-size="10.00">sensesp::SKDeltaQueue</text>
<text text-anchor="middle" x="608.5" y="-434" font-family="Helvetica,sans-Serif" font-size="10.00">::get_delta</text>
</a>
</g>
</g>
<!-- Node9&#45;&gt;Node11 -->
<g id="edge14" class="edge">
<title>Node9&#45;&gt;Node11</title>
<path fill="none" stroke="#63b8ff" d="M776.56,-345.52C755.27,-367.1 721.11,-398.58 686,-418 680.15,-421.23 673.81,-424.1 667.36,-426.62"/>
<polygon fill="#63b8ff" stroke="#63b8ff" points="778.84,-348.2 783.28,-338.59 773.81,-343.33 778.84,-348.2"/>
</g>
<!-- Node15 -->
<g id="node15" class="node">
<title>Node15</title>
<g id="a_node15"><a xlink:href="classsensesp_1_1_sens_e_s_p_app.html#a49534d134dbae3ce35f4bac5879a8640" target="_top" xlink:title="Perform initialization of SensESPApp once builder configuration is done.">
<polygon fill="white" stroke="#666666" points="667.5,-409 549.5,-409 549.5,-379 667.5,-379 667.5,-409"/>
<text text-anchor="start" x="557.5" y="-397" font-family="Helvetica,sans-Serif" font-size="10.00">sensesp::SensESPApp</text>
<text text-anchor="middle" x="608.5" y="-386" font-family="Helvetica,sans-Serif" font-size="10.00">::setup</text>
</a>
</g>
</g>
<!-- Node9&#45;&gt;Node15 -->
<g id="edge18" class="edge">
<title>Node9&#45;&gt;Node15</title>
<path fill="none" stroke="#63b8ff" d="M754.54,-341.96C733.92,-351 708.9,-361.55 686,-370 678.03,-372.94 669.52,-375.84 661.17,-378.56"/>
<polygon fill="#63b8ff" stroke="#63b8ff" points="755.77,-345.24 763.5,-337.99 752.94,-338.84 755.77,-345.24"/>
</g>
<!-- Node18 -->
<g id="node18" class="node">
<title>Node18</title>
<g id="a_node18"><a xlink:href="classsensesp_1_1_networking.html#aab9ae3badf7dfaf3736af37b5a4c9025" target="_top" xlink:title="Start WiFi using preset SSID and password.">
<polygon fill="white" stroke="#666666" points="663,-361 554,-361 554,-331 663,-331 663,-361"/>
<text text-anchor="start" x="562" y="-349" font-family="Helvetica,sans-Serif" font-size="10.00">sensesp::Networking</text>
<text text-anchor="middle" x="608.5" y="-338" font-family="Helvetica,sans-Serif" font-size="10.00">::setup_saved_ssid</text>
</a>
</g>
</g>
<!-- Node9&#45;&gt;Node18 -->
<g id="edge21" class="edge">
<title>Node9&#45;&gt;Node18</title>
<path fill="none" stroke="#63b8ff" d="M716.95,-332.36C698.83,-334.66 680.07,-337.04 663.39,-339.16"/>
<polygon fill="#63b8ff" stroke="#63b8ff" points="717.14,-335.86 726.62,-331.13 716.26,-328.92 717.14,-335.86"/>
</g>
<!-- Node9&#45;&gt;Node20 -->
<g id="edge23" class="edge">
<title>Node9&#45;&gt;Node20</title>
<path fill="none" stroke="#63b8ff" d="M776.56,-298.48C755.27,-276.9 721.11,-245.42 686,-226 679.06,-222.16 671.41,-218.84 663.73,-216"/>
<polygon fill="#63b8ff" stroke="#63b8ff" points="773.81,-300.67 783.28,-305.41 778.84,-295.8 773.81,-300.67"/>
</g>
<!-- Node22 -->
<g id="node22" class="node">
<title>Node22</title>
<g id="a_node22"><a xlink:href="classsensesp_1_1_debug_output.html#ac61ed9521c65b2da872d53d08e9aaefb" target="_top" xlink:title=" ">
<polygon fill="white" stroke="#666666" points="667,-313 550,-313 550,-283 667,-283 667,-313"/>
<text text-anchor="start" x="558" y="-301" font-family="Helvetica,sans-Serif" font-size="10.00">sensesp::DebugOutput</text>
<text text-anchor="middle" x="608.5" y="-290" font-family="Helvetica,sans-Serif" font-size="10.00">::start</text>
</a>
</g>
</g>
<!-- Node9&#45;&gt;Node22 -->
<g id="edge26" class="edge">
<title>Node9&#45;&gt;Node22</title>
<path fill="none" stroke="#63b8ff" d="M716.71,-311.61C700.06,-309.5 682.88,-307.32 667.28,-305.34"/>
<polygon fill="#63b8ff" stroke="#63b8ff" points="716.26,-315.08 726.62,-312.87 717.14,-308.14 716.26,-315.08"/>
</g>
<!-- Node23 -->
<g id="node23" class="node">
<title>Node23</title>
<g id="a_node23"><a xlink:href="classsensesp_1_1_m_d_n_s_discovery.html#ad7c894d325bc5bef790064e4dfcd7295" target="_top" xlink:title=" ">
<polygon fill="white" stroke="#666666" points="675.5,-265 541.5,-265 541.5,-235 675.5,-235 675.5,-265"/>
<text text-anchor="start" x="549.5" y="-253" font-family="Helvetica,sans-Serif" font-size="10.00">sensesp::MDNSDiscovery</text>
<text text-anchor="middle" x="608.5" y="-242" font-family="Helvetica,sans-Serif" font-size="10.00">::start</text>
</a>
</g>
</g>
<!-- Node9&#45;&gt;Node23 -->
<g id="edge27" class="edge">
<title>Node9&#45;&gt;Node23</title>
<path fill="none" stroke="#63b8ff" d="M754.54,-302.04C733.92,-293 708.9,-282.45 686,-274 678.03,-271.06 669.52,-268.16 661.17,-265.44"/>
<polygon fill="#63b8ff" stroke="#63b8ff" points="752.94,-305.16 763.5,-306.01 755.77,-298.76 752.94,-305.16"/>
</g>
<!-- Node12 -->
<g id="node12" class="node">
<title>Node12</title>
<g id="a_node12"><a xlink:href="classsensesp_1_1_w_s_client.html#a5553fc62b2382a529d1ff86f219ea7c5" target="_top" xlink:title=" ">
<polygon fill="white" stroke="#666666" points="474,-457 367,-457 367,-427 474,-427 474,-457"/>
<text text-anchor="start" x="375" y="-445" font-family="Helvetica,sans-Serif" font-size="10.00">sensesp::WSClient::</text>
<text text-anchor="middle" x="420.5" y="-434" font-family="Helvetica,sans-Serif" font-size="10.00">send_delta</text>
</a>
</g>
</g>
<!-- Node11&#45;&gt;Node12 -->
<g id="edge15" class="edge">
<title>Node11&#45;&gt;Node12</title>
<path fill="none" stroke="#63b8ff" d="M534.3,-442C514.32,-442 493.07,-442 474.45,-442"/>
<polygon fill="#63b8ff" stroke="#63b8ff" points="534.05,-445.5 544.05,-442 534.05,-438.5 534.05,-445.5"/>
</g>
<!-- Node13 -->
<g id="node13" class="node">
<title>Node13</title>
<g id="a_node13"><a xlink:href="namespacesensesp.html#a922a4380d70b3a01a7e117644805de09" target="_top" xlink:title=" ">
<polygon fill="white" stroke="#666666" points="310,-451.5 143,-451.5 143,-432.5 310,-432.5 310,-451.5"/>
<text text-anchor="middle" x="226.5" y="-439.5" font-family="Helvetica,sans-Serif" font-size="10.00">sensesp::ExecuteWebSocketTask</text>
</a>
</g>
</g>
<!-- Node12&#45;&gt;Node13 -->
<g id="edge16" class="edge">
<title>Node12&#45;&gt;Node13</title>
<path fill="none" stroke="#63b8ff" d="M355.21,-442C340.77,-442 325.26,-442 310.19,-442"/>
<polygon fill="#63b8ff" stroke="#63b8ff" points="355.01,-445.5 365.01,-442 355.01,-438.5 355.01,-445.5"/>
</g>
<!-- Node14 -->
<g id="node14" class="node">
<title>Node14</title>
<g id="a_node14"><a xlink:href="classsensesp_1_1_w_s_client.html#a64ae48ad175825edc9248575033eb9f5" target="_top" xlink:title=" ">
<polygon fill="white" stroke="#666666" points="107,-457 0,-457 0,-427 107,-427 107,-457"/>
<text text-anchor="start" x="8" y="-445" font-family="Helvetica,sans-Serif" font-size="10.00">sensesp::WSClient::</text>
<text text-anchor="middle" x="53.5" y="-434" font-family="Helvetica,sans-Serif" font-size="10.00">start</text>
</a>
</g>
</g>
<!-- Node13&#45;&gt;Node14 -->
<g id="edge17" class="edge">
<title>Node13&#45;&gt;Node14</title>
<path fill="none" stroke="#63b8ff" d="M131.07,-442C123.01,-442 115.05,-442 107.5,-442"/>
<polygon fill="#63b8ff" stroke="#63b8ff" points="130.99,-445.5 140.99,-442 130.99,-438.5 130.99,-445.5"/>
</g>
<!-- Node16 -->
<g id="node16" class="node">
<title>Node16</title>
<g id="a_node16"><a xlink:href="classsensesp_1_1_sens_e_s_p_app_builder.html#ac348bac39d057253e3d291a3c4d7d79f" target="_top" xlink:title="Get the SensESPApp object.">
<polygon fill="white" stroke="#666666" points="494.5,-409 346.5,-409 346.5,-379 494.5,-379 494.5,-409"/>
<text text-anchor="start" x="354.5" y="-397" font-family="Helvetica,sans-Serif" font-size="10.00">sensesp::SensESPAppBuilder</text>
<text text-anchor="middle" x="420.5" y="-386" font-family="Helvetica,sans-Serif" font-size="10.00">::get_app</text>
</a>
</g>
</g>
<!-- Node15&#45;&gt;Node16 -->
<g id="edge19" class="edge">
<title>Node15&#45;&gt;Node16</title>
<path fill="none" stroke="#63b8ff" d="M538.02,-394C523.88,-394 508.97,-394 494.71,-394"/>
<polygon fill="#63b8ff" stroke="#63b8ff" points="537.65,-397.5 547.65,-394 537.65,-390.5 537.65,-397.5"/>
</g>
<!-- Node17 -->
<g id="node17" class="node">
<title>Node17</title>
<g id="a_node17"><a xlink:href="main_8cpp.html#a4fc01d736fe50cf5b977f755b675f11d" target="_top" xlink:title=" ">
<polygon fill="white" stroke="#666666" points="247,-403.5 206,-403.5 206,-384.5 247,-384.5 247,-403.5"/>
<text text-anchor="middle" x="226.5" y="-391.5" font-family="Helvetica,sans-Serif" font-size="10.00">setup</text>
</a>
</g>
</g>
<!-- Node16&#45;&gt;Node17 -->
<g id="edge20" class="edge">
<title>Node16&#45;&gt;Node17</title>
<path fill="none" stroke="#63b8ff" d="M334.71,-394C302.28,-394 268.11,-394 247.3,-394"/>
<polygon fill="#63b8ff" stroke="#63b8ff" points="334.58,-397.5 344.58,-394 334.58,-390.5 334.58,-397.5"/>
</g>
<!-- Node19 -->
<g id="node19" class="node">
<title>Node19</title>
<g id="a_node19"><a xlink:href="classsensesp_1_1_networking.html#ad111629b0d17e42207a97909313cc567" target="_top" xlink:title=" ">
<polygon fill="white" stroke="#666666" points="475,-313 366,-313 366,-283 475,-283 475,-313"/>
<text text-anchor="start" x="374" y="-301" font-family="Helvetica,sans-Serif" font-size="10.00">sensesp::Networking</text>
<text text-anchor="middle" x="420.5" y="-290" font-family="Helvetica,sans-Serif" font-size="10.00">::start</text>
</a>
</g>
</g>
<!-- Node18&#45;&gt;Node19 -->
<g id="edge22" class="edge">
<title>Node18&#45;&gt;Node19</title>
<path fill="none" stroke="#63b8ff" d="M542.79,-329.3C520.83,-323.63 496.54,-317.36 475.5,-311.94"/>
<polygon fill="#63b8ff" stroke="#63b8ff" points="541.68,-332.63 552.24,-331.74 543.43,-325.85 541.68,-332.63"/>
</g>
<!-- Node20&#45;&gt;Node19 -->
<g id="edge25" class="edge">
<title>Node20&#45;&gt;Node19</title>
<path fill="none" stroke="#63b8ff" d="M542.63,-220.95C538.65,-222.54 534.74,-224.23 531,-226 497.49,-241.89 462.26,-266.74 441.09,-282.69"/>
<polygon fill="#63b8ff" stroke="#63b8ff" points="543.73,-224.27 551.86,-217.47 541.27,-217.72 543.73,-224.27"/>
</g>
<!-- Node21 -->
<g id="node21" class="node">
<title>Node21</title>
<g id="a_node21"><a xlink:href="classsensesp_1_1_networking.html#a244ebad7e0726fdedc742990ff78d7a0" target="_top" xlink:title=" ">
<polygon fill="white" stroke="#666666" points="480.5,-217 360.5,-217 360.5,-187 480.5,-187 480.5,-217"/>
<text text-anchor="start" x="368.5" y="-205" font-family="Helvetica,sans-Serif" font-size="10.00">sensesp::Networking</text>
<text text-anchor="middle" x="420.5" y="-194" font-family="Helvetica,sans-Serif" font-size="10.00">::activate_wifi_manager</text>
</a>
</g>
</g>
<!-- Node20&#45;&gt;Node21 -->
<g id="edge24" class="edge">
<title>Node20&#45;&gt;Node21</title>
<path fill="none" stroke="#63b8ff" d="M541.74,-202C521.87,-202 500.17,-202 480.75,-202"/>
<polygon fill="#63b8ff" stroke="#63b8ff" points="541.69,-205.5 551.69,-202 541.69,-198.5 541.69,-205.5"/>
</g>
<!-- Node25 -->
<g id="node25" class="node">
<title>Node25</title>
<g id="a_node25"><a xlink:href="classsensesp_1_1_h_t_t_p_server.html#aaff846f90a54be25ac7135c2952e71ee" target="_top" xlink:title=" ">
<polygon fill="white" stroke="#666666" points="665.5,-169 551.5,-169 551.5,-139 665.5,-139 665.5,-169"/>
<text text-anchor="start" x="559.5" y="-157" font-family="Helvetica,sans-Serif" font-size="10.00">sensesp::HTTPServer</text>
<text text-anchor="middle" x="608.5" y="-146" font-family="Helvetica,sans-Serif" font-size="10.00">::HTTPServer</text>
</a>
</g>
</g>
<!-- Node24&#45;&gt;Node25 -->
<g id="edge29" class="edge">
<title>Node24&#45;&gt;Node25</title>
<path fill="none" stroke="#63b8ff" d="M730.82,-157.21C709.58,-156.65 686.37,-156.03 665.99,-155.49"/>
<polygon fill="#63b8ff" stroke="#63b8ff" points="730.45,-160.7 740.54,-157.47 730.63,-153.7 730.45,-160.7"/>
</g>
<!-- Node27 -->
<g id="node27" class="node">
<title>Node27</title>
<g id="a_node27"><a xlink:href="classsensesp_1_1_minimal_button_handler.html#aaabccc6e10fbfa51d7c34f95c93c847f" target="_top" xlink:title=" ">
<polygon fill="white" stroke="#666666" points="686,-121 531,-121 531,-91 686,-91 686,-121"/>
<text text-anchor="start" x="539" y="-109" font-family="Helvetica,sans-Serif" font-size="10.00">sensesp::MinimalButtonHandler</text>
<text text-anchor="middle" x="608.5" y="-98" font-family="Helvetica,sans-Serif" font-size="10.00">::handleEvent</text>
</a>
</g>
</g>
<!-- Node26&#45;&gt;Node27 -->
<g id="edge31" class="edge">
<title>Node26&#45;&gt;Node27</title>
<path fill="none" stroke="#63b8ff" d="M710.34,-108.67C702.31,-108.46 694.22,-108.24 686.31,-108.03"/>
<polygon fill="#63b8ff" stroke="#63b8ff" points="710.02,-112.16 720.11,-108.93 710.21,-105.16 710.02,-112.16"/>
</g>
</g>
</svg>
