<?xml version="1.0" encoding="UTF-8" standalone="no"?>
<!DOCTYPE svg PUBLIC "-//W3C//DTD SVG 1.1//EN"
 "http://www.w3.org/Graphics/SVG/1.1/DTD/svg11.dtd">
<!-- Generated by graphviz version 14.1.4 (20260321.0153)
 -->
<!-- Title: sensesp::WiFiProvisioner Pages: 1 -->
<!--zoomable 182 -->

<svg id="main" version="1.1" xmlns="http://www.w3.org/2000/svg" xmlns:xlink="http://www.w3.org/1999/xlink" xml:space="preserve" onload="init(evt)">

<style type="text/css"><![CDATA[
.node, .edge {opacity: 0.7;}
.node.selected, .edge.selected {opacity: 1;}
.edge:hover path { stroke: red; }
.edge:hover polygon { stroke: red; fill: red; }
]]></style>

<defs>
  <circle id="rim" cx="0" cy="0" r="7"/>
  <circle id="rim2" cx="0" cy="0" r="3.5"/>
  <g id="zoomPlus">
    <use xlink:href="#rim" fill="#404040"><set attributeName="fill" to="#808080" begin="zoomplus.mouseover" end="zoomplus.mouseout"/></use>
    <path d="M-4,0h8M0,-4v8" fill="none" stroke="white" stroke-width="1.5" pointer-events="none"/>
  </g>
  <g id="zoomMin">
    <use xlink:href="#rim" fill="#404040"><set attributeName="fill" to="#808080" begin="zoomminus.mouseover" end="zoomminus.mouseout"/></use>
    <path d="M-4,0h8" fill="none" stroke="white" stroke-width="1.5" pointer-events="none"/>
  </g>
  <g id="arrowUp" transform="translate(30 24)">
    <use xlink:href="#rim"/>
    <path pointer-events="none" fill="none" stroke="white" stroke-width="1.5" d="M0,-3.0v7 M-2.5,-0.5L0,-3.0L2.5,-0.5"/>
  </g>
  <g id="arrowRight" transform="rotate(90) translate(36 -43)">
    <use xlink:href="#rim"/>
    <path pointer-events="none" fill="none" stroke="white" stroke-width="1.5" d="M0,-3.0v7 M-2.5,-0.5L0,-3.0L2.5,-0.5"/>
  </g>
  <g id="arrowDown" transform="rotate(180) translate(-30 -48)">
    <use xlink:href="#rim"/>
    <path pointer-events="none" fill="none" stroke="white" stroke-width="1.5" d="M0,-3.0v7 M-2.5,-0.5L0,-3.0L2.5,-0.5"/>
  </g>
  <g id="arrowLeft" transform="rotate(270) translate(-36 17)">
    <use xlink:href="#rim"/>
    <path pointer-events="none" fill="none" stroke="white" stroke-width="1.5" d="M0,-3.0v7 M-2.5,-0.5L0,-3.0L2.5,-0.5"/>
  </g>
  <g id="resetDef">
    <use xlink:href="#rim2" fill="#404040"><set attributeName="fill" to="#808080" begin="reset.mouseover" end="reset.mouseout"/></use>
  </g>
</defs>
<script type="application/ecmascript">
var viewWidth = 716;
var viewHeight = 182;
var sectionId = 'dynsection-0';
</script>
<script type="application/ecmascript" xlink:href="svg.min.js"/>
<svg id="graph" class="graph">
<g id="viewport">
<title>sensesp::WiFiProvisioner</title>
<!-- Node1 -->
<g id="Node000001" class="node">
<title>Node1</title>
<g id="a_Node000001"><a xlink:title="Manages the ESP&#39;s WiFi connection.">
<polygon fill="#999999" stroke="#666666" points="708,-100.25 580.25,-100.25 580.25,-81 708,-81 708,-100.25"/>
<text xml:space="preserve" text-anchor="middle" x="644.12" y="-86.75" font-family="Helvetica,sans-Serif" font-size="10.00">sensesp::WiFiProvisioner</text>
</a>
</g>
</g>
<!-- Node2 -->
<g id="Node000002" class="node">
<title>Node2</title>
<g id="a_Node000002"><a xlink:href="classsensesp_1_1_file_system_saveable.html" target="_top" xlink:title=" ">
<polygon fill="white" stroke="#666666" points="543.25,-156.25 394.5,-156.25 394.5,-137 543.25,-137 543.25,-156.25"/>
<text xml:space="preserve" text-anchor="middle" x="468.88" y="-142.75" font-family="Helvetica,sans-Serif" font-size="10.00">sensesp::FileSystemSaveable</text>
</a>
</g>
</g>
<!-- Node2&#45;&gt;Node1 -->
<g id="edge1_Node000001_Node000002" class="edge">
<title>Node2&#45;&gt;Node1</title>
<g id="a_edge1_Node000001_Node000002"><a xlink:title=" ">
<path fill="none" stroke="#63b8ff" d="M525.51,-133.74C531.53,-132.12 537.54,-130.41 543.25,-128.62 569.64,-120.4 599.14,-108.88 619.2,-100.68"/>
<polygon fill="#63b8ff" stroke="#63b8ff" points="525,-130.26 516.2,-136.17 526.76,-137.03 525,-130.26"/>
</a>
</g>
</g>
<!-- Node3 -->
<g id="Node000003" class="node">
<title>Node3</title>
<g id="a_Node000003"><a xlink:href="classsensesp_1_1_saveable.html" target="_top" xlink:title="Interface for saveable objects.">
<polygon fill="white" stroke="#666666" points="267.75,-174.25 168.5,-174.25 168.5,-155 267.75,-155 267.75,-174.25"/>
<text xml:space="preserve" text-anchor="middle" x="218.12" y="-160.75" font-family="Helvetica,sans-Serif" font-size="10.00">sensesp::Saveable</text>
</a>
</g>
</g>
<!-- Node3&#45;&gt;Node2 -->
<g id="edge2_Node000002_Node000003" class="edge">
<title>Node3&#45;&gt;Node2</title>
<g id="a_edge2_Node000002_Node000003"><a xlink:title=" ">
<path fill="none" stroke="#63b8ff" d="M279.32,-160.27C313.87,-157.77 357.53,-154.61 394.13,-151.96"/>
<polygon fill="#63b8ff" stroke="#63b8ff" points="279.2,-156.77 269.48,-160.98 279.71,-163.75 279.2,-156.77"/>
</a>
</g>
</g>
<!-- Node4 -->
<g id="Node000004" class="node">
<title>Node4</title>
<g id="a_Node000004"><a xlink:href="classsensesp_1_1_serializable.html" target="_top" xlink:title="Interface for serializable objects.">
<polygon fill="white" stroke="#666666" points="272.62,-137.25 163.62,-137.25 163.62,-118 272.62,-118 272.62,-137.25"/>
<text xml:space="preserve" text-anchor="middle" x="218.12" y="-123.75" font-family="Helvetica,sans-Serif" font-size="10.00">sensesp::Serializable</text>
</a>
</g>
</g>
<!-- Node4&#45;&gt;Node2 -->
<g id="edge3_Node000002_Node000004" class="edge">
<title>Node4&#45;&gt;Node2</title>
<g id="a_edge3_Node000002_Node000004"><a xlink:title=" ">
<path fill="none" stroke="#63b8ff" d="M284.23,-132.6C317.96,-135.17 359.29,-138.33 394.19,-141"/>
<polygon fill="#63b8ff" stroke="#63b8ff" points="284.85,-129.13 274.61,-131.86 284.31,-136.11 284.85,-129.13"/>
</a>
</g>
</g>
<!-- Node5 -->
<g id="Node000005" class="node">
<title>Node5</title>
<g id="a_Node000005"><a xlink:href="classsensesp_1_1_resettable.html" target="_top" xlink:title="Automatic calling of the reset() method when the device needs to be reset.">
<polygon fill="white" stroke="#666666" points="521.88,-119.25 415.88,-119.25 415.88,-100 521.88,-100 521.88,-119.25"/>
<text xml:space="preserve" text-anchor="middle" x="468.88" y="-105.75" font-family="Helvetica,sans-Serif" font-size="10.00">sensesp::Resettable</text>
</a>
</g>
</g>
<!-- Node5&#45;&gt;Node1 -->
<g id="edge4_Node000001_Node000005" class="edge">
<title>Node5&#45;&gt;Node1</title>
<g id="a_edge4_Node000001_Node000005"><a xlink:title=" ">
<path fill="none" stroke="#63b8ff" d="M533.63,-102.63C548.72,-100.98 564.79,-99.22 579.86,-97.56"/>
<polygon fill="#63b8ff" stroke="#63b8ff" points="533.39,-99.14 523.83,-103.71 534.15,-106.1 533.39,-99.14"/>
</a>
</g>
</g>
<!-- Node6 -->
<g id="Node000006" class="node">
<title>Node6</title>
<g id="a_Node000006"><a xlink:href="classsensesp_1_1_network_provisioner.html" target="_top" xlink:title="Transport&#45;agnostic network provisioner interface.">
<polygon fill="white" stroke="#666666" points="541,-82.25 396.75,-82.25 396.75,-63 541,-63 541,-82.25"/>
<text xml:space="preserve" text-anchor="middle" x="468.88" y="-68.75" font-family="Helvetica,sans-Serif" font-size="10.00">sensesp::NetworkProvisioner</text>
</a>
</g>
</g>
<!-- Node6&#45;&gt;Node1 -->
<g id="edge5_Node000001_Node000006" class="edge">
<title>Node6&#45;&gt;Node1</title>
<g id="a_edge5_Node000001_Node000006"><a xlink:title=" ">
<path fill="none" stroke="#63b8ff" d="M552.5,-81.21C561.7,-82.17 570.95,-83.13 579.86,-84.05"/>
<polygon fill="#63b8ff" stroke="#63b8ff" points="553.16,-77.76 542.85,-80.21 552.43,-84.72 553.16,-77.76"/>
</a>
</g>
</g>
<!-- Node7 -->
<g id="Node000007" class="node">
<title>Node7</title>
<g id="a_Node000007"><a xlink:href="classsensesp_1_1_value_producer.html" target="_top" xlink:title=" ">
<polygon fill="white" stroke="#666666" points="529.75,-44.88 408,-44.88 408,-14.37 529.75,-14.37 529.75,-44.88"/>
<text xml:space="preserve" text-anchor="start" x="416" y="-31.38" font-family="Helvetica,sans-Serif" font-size="10.00">sensesp::ValueProducer</text>
<text xml:space="preserve" text-anchor="middle" x="468.88" y="-20.12" font-family="Helvetica,sans-Serif" font-size="10.00">&lt; WiFiState &gt;</text>
</a>
</g>
</g>
<!-- Node7&#45;&gt;Node1 -->
<g id="edge6_Node000001_Node000007" class="edge">
<title>Node7&#45;&gt;Node1</title>
<g id="a_edge6_Node000001_Node000007"><a xlink:title=" ">
<path fill="none" stroke="#63b8ff" d="M529.66,-48.97C534.26,-50.52 538.84,-52.09 543.25,-53.62 568.39,-62.39 596.85,-73 616.94,-80.61"/>
<polygon fill="#63b8ff" stroke="#63b8ff" points="530.93,-45.7 520.34,-45.85 528.71,-52.34 530.93,-45.7"/>
</a>
</g>
</g>
<!-- Node8 -->
<g id="Node000008" class="node">
<title>Node8</title>
<g id="a_Node000008"><a xlink:href="classsensesp_1_1_observable.html" target="_top" xlink:title="A base class which allow observers to attach callbacks to themselves. The callbacks will be called wh...">
<polygon fill="white" stroke="#666666" points="108.25,-38.25 0,-38.25 0,-19 108.25,-19 108.25,-38.25"/>
<text xml:space="preserve" text-anchor="middle" x="54.12" y="-24.75" font-family="Helvetica,sans-Serif" font-size="10.00">sensesp::Observable</text>
</a>
</g>
</g>
<!-- Node8&#45;&gt;Node7 -->
<g id="edge7_Node000007_Node000008" class="edge">
<title>Node8&#45;&gt;Node7</title>
<g id="a_edge7_Node000007_Node000008"><a xlink:title=" ">
<path fill="none" stroke="#63b8ff" d="M120.03,-33.38C122.13,-33.47 124.2,-33.55 126.25,-33.62 237.4,-37.53 265.3,-36.06 376.5,-33.62 386.66,-33.4 397.45,-33.04 407.92,-32.62"/>
<polygon fill="#63b8ff" stroke="#63b8ff" points="120.38,-29.89 110.21,-32.87 120.02,-36.88 120.38,-29.89"/>
</a>
</g>
</g>
<!-- Node9 -->
<g id="Node000009" class="node">
<title>Node9</title>
<g id="a_Node000009"><a xlink:href="classsensesp_1_1_value_producer.html" target="_top" xlink:title="A base class for any sensor or piece of code that outputs a value for consumption elsewhere.">
<polygon fill="white" stroke="#666666" points="291,-19.25 145.25,-19.25 145.25,0 291,0 291,-19.25"/>
<text xml:space="preserve" text-anchor="middle" x="218.12" y="-5.75" font-family="Helvetica,sans-Serif" font-size="10.00">sensesp::ValueProducer&lt; T &gt;</text>
</a>
</g>
</g>
<!-- Node8&#45;&gt;Node9 -->
<g id="edge9_Node000009_Node000008" class="edge">
<title>Node8&#45;&gt;Node9</title>
<g id="a_edge9_Node000009_Node000008"><a xlink:title=" ">
<path fill="none" stroke="#63b8ff" d="M120,-21.02C128.19,-20.06 136.61,-19.07 144.9,-18.1"/>
<polygon fill="#63b8ff" stroke="#63b8ff" points="119.65,-17.53 110.12,-22.17 120.46,-24.49 119.65,-17.53"/>
</a>
</g>
</g>
<!-- Node9&#45;&gt;Node7 -->
<g id="edge8_Node000007_Node000009" class="edge">
<title>Node9&#45;&gt;Node7</title>
<g id="a_edge8_Node000007_Node000009"><a xlink:title=" ">
<path fill="none" stroke="orange" stroke-dasharray="5,2" d="M302.5,-11.63C326.42,-12.63 352.52,-14.13 376.5,-16.38 386.55,-17.32 397.19,-18.6 407.52,-19.99"/>
<polygon fill="orange" stroke="orange" points="302.95,-8.14 292.82,-11.25 302.67,-15.14 302.95,-8.14"/>
</a>
</g>
<text xml:space="preserve" text-anchor="start" x="312" y="-22.38" font-family="Helvetica,sans-Serif" font-size="10.00" fill="grey">&lt; WiFiState &gt;</text>
</g>
</g>
</svg>

<g id="navigator" transform="translate(0 0)" fill="#404254">
  <rect fill="#f2f5e9" fill-opacity="0.5" stroke="#606060" stroke-width=".5" x="0" y="0" width="60" height="60"/>
  <use id="zoomplus" xlink:href="#zoomPlus" x="17" y="9" onmousedown="handleZoom(evt,'in')"/>
  <use id="zoomminus" xlink:href="#zoomMin" x="42" y="9" onmousedown="handleZoom(evt,'out')"/>
  <use id="reset" xlink:href="#resetDef" x="30" y="36" onmousedown="handleReset()"/>
   <use id="arrowup" xlink:href="#arrowUp" x="0" y="0" onmousedown="handlePan(0,-1)"/>
  <use id="arrowright" xlink:href="#arrowRight" x="0" y="0" onmousedown="handlePan(1,0)"/>
  <use id="arrowdown" xlink:href="#arrowDown" x="0" y="0" onmousedown="handlePan(0,1)"/>
  <use id="arrowleft" xlink:href="#arrowLeft" x="0" y="0" onmousedown="handlePan(-1,0)"/>
</g>
<svg viewBox="0 0 15 15" width="100%" height="30px" preserveAspectRatio="xMaxYMin meet">
 <g id="arrow_out" transform="scale(0.3 0.3)">
  <a xlink:href="classsensesp_1_1_wi_fi_provisioner__inherit__graph_org.svg" target="_base">
   <rect id="button" ry="5" rx="5" y="6" x="6" height="38" width="38"
        fill="#f2f5e9" fill-opacity="0.5" stroke="#606060" stroke-width="1.0"/>
   <path id="arrow"
     d="M 11.500037,31.436501 C 11.940474,20.09759 22.043105,11.32322 32.158766,21.979434 L 37.068811,17.246167 C 37.068811,17.246167 37.088388,32 37.088388,32 L 22.160133,31.978069 C 22.160133,31.978069 26.997745,27.140456 26.997745,27.140456 C 18.528582,18.264221 13.291696,25.230495 11.500037,31.436501 z"
     style="fill:#404040;"/>
  </a>
 </g>
</svg>

<style type='text/css'>
<![CDATA[
[data-mouse-over-selected='false'] { opacity: 0.7; }
[data-mouse-over-selected='true']  { opacity: 1.0; }
]]>
</style>
<script type="application/ecmascript"><![CDATA[
document.addEventListener('DOMContentLoaded', (event) => {
  highlightEdges();
  highlightAdjacentNodes();
});
]]></script>
</svg>
