<?xml version="1.0" encoding="UTF-8" standalone="no"?>
<!DOCTYPE svg PUBLIC "-//W3C//DTD SVG 1.1//EN"
 "http://www.w3.org/Graphics/SVG/1.1/DTD/svg11.dtd">
<!-- Generated by graphviz version 7.1.0 (20230121.1956)
 -->
<!-- Title: sensesp::SystemStatusLed::set_input Pages: 1 -->
<!--zoomable 326 -->
<svg id="main" version="1.1" xmlns="http://www.w3.org/2000/svg" xmlns:xlink="http://www.w3.org/1999/xlink" xml:space="preserve" onload="init(evt)">
<style type="text/css"><![CDATA[
.edge:hover path { stroke: red; }
.edge:hover polygon { stroke: red; fill: red; }
]]></style>
<script type="text/javascript"><![CDATA[
var edges = document.getElementsByTagName('g');
if (edges && edges.length) {
  for (var i=0;i<edges.length;i++) {
    if (edges[i].id.substr(0,4)=='edge') {
      edges[i].setAttribute('class','edge');
    }
  }
}
]]></script>
        <defs>
                <circle id="rim" cx="0" cy="0" r="7"/>
                <circle id="rim2" cx="0" cy="0" r="3.5"/>
                <g id="zoomPlus">
                        <use xlink:href="#rim" fill="#404040">
                                <set attributeName="fill" to="#808080" begin="zoomplus.mouseover" end="zoomplus.mouseout"/>
                        </use>
                        <path d="M-4,0h8M0,-4v8" fill="none" stroke="white" stroke-width="1.5" pointer-events="none"/>
                </g>
                <g id="zoomMin">
                        <use xlink:href="#rim" fill="#404040">
                                <set attributeName="fill" to="#808080" begin="zoomminus.mouseover" end="zoomminus.mouseout"/>
                        </use>
                        <path d="M-4,0h8" fill="none" stroke="white" stroke-width="1.5" pointer-events="none"/>
                </g>
                <g id="dirArrow">
                        <path fill="none" stroke="white" stroke-width="1.5" d="M0,-3.0v7 M-2.5,-0.5L0,-3.0L2.5,-0.5"/>
                </g>
               <g id="resetDef">
                       <use xlink:href="#rim2" fill="#404040">
                               <set attributeName="fill" to="#808080" begin="reset.mouseover" end="reset.mouseout"/>
                       </use>
               </g>
        </defs>

<script type="text/javascript">
var viewWidth = 939;
var viewHeight = 326;
var sectionId = 'dynsection-2';
</script>
<script xlink:href="svgpan.js"/>
<svg id="graph" class="graph">
<g id="viewport">
<title>sensesp::SystemStatusLed::set_input</title>
<!-- Node1 -->
<g id="node1" class="node">
<title>Node1</title>
<g id="a_node1"><a xlink:title=" ">
<polygon fill="#999999" stroke="#666666" points="137,-174 0,-174 0,-144 137,-144 137,-174"/>
<text text-anchor="start" x="8" y="-162" font-family="Helvetica,sans-Serif" font-size="10.00">sensesp::SystemStatusLed</text>
<text text-anchor="middle" x="68.5" y="-151" font-family="Helvetica,sans-Serif" font-size="10.00">::set_input</text>
</a>
</g>
</g>
<!-- Node2 -->
<g id="node2" class="node">
<title>Node2</title>
<g id="a_node2"><a xlink:href="classsensesp_1_1_system_status_led.html#a21306f2735644c3cddfcb326043c92f3" target="_top" xlink:title=" ">
<polygon fill="white" stroke="#666666" points="311,-318 174,-318 174,-288 311,-288 311,-318"/>
<text text-anchor="start" x="182" y="-306" font-family="Helvetica,sans-Serif" font-size="10.00">sensesp::SystemStatusLed</text>
<text text-anchor="middle" x="242.5" y="-295" font-family="Helvetica,sans-Serif" font-size="10.00">::set_wifi_disconnected</text>
</a>
</g>
</g>
<!-- Node1&#45;&gt;Node2 -->
<g id="edge1" class="edge">
<title>Node1&#45;&gt;Node2</title>
<path fill="none" stroke="#63b8ff" d="M78.74,-174.14C94.85,-199.36 130.48,-250.03 173,-279 174.8,-280.22 176.66,-281.39 178.58,-282.51"/>
<polygon fill="#63b8ff" stroke="#63b8ff" points="176.67,-285.46 187.17,-286.94 179.89,-279.24 176.67,-285.46"/>
</g>
<!-- Node7 -->
<g id="node7" class="node">
<title>Node7</title>
<g id="a_node7"><a xlink:href="classsensesp_1_1_system_status_led.html#ab2fcea8b8d4764b58c8ea6c4001cc464" target="_top" xlink:title=" ">
<polygon fill="white" stroke="#666666" points="311,-270 174,-270 174,-240 311,-240 311,-270"/>
<text text-anchor="start" x="182" y="-258" font-family="Helvetica,sans-Serif" font-size="10.00">sensesp::SystemStatusLed</text>
<text text-anchor="middle" x="242.5" y="-247" font-family="Helvetica,sans-Serif" font-size="10.00">::set_wifi_no_ap</text>
</a>
</g>
</g>
<!-- Node1&#45;&gt;Node7 -->
<g id="edge7" class="edge">
<title>Node1&#45;&gt;Node7</title>
<path fill="none" stroke="#63b8ff" d="M88.34,-174.47C108.36,-190.32 141.42,-214.86 173,-231 175.84,-232.45 178.79,-233.85 181.8,-235.19"/>
<polygon fill="#63b8ff" stroke="#63b8ff" points="180.2,-238.32 190.78,-238.95 182.91,-231.86 180.2,-238.32"/>
</g>
<!-- Node8 -->
<g id="node8" class="node">
<title>Node8</title>
<g id="a_node8"><a xlink:href="classsensesp_1_1_system_status_led.html#aaded2847831b94fb63dbdd9f72b6566a" target="_top" xlink:title=" ">
<polygon fill="white" stroke="#666666" points="312,-222 173,-222 173,-192 312,-192 312,-222"/>
<text text-anchor="start" x="181" y="-210" font-family="Helvetica,sans-Serif" font-size="10.00">sensesp::SystemStatusLed</text>
<text text-anchor="middle" x="242.5" y="-199" font-family="Helvetica,sans-Serif" font-size="10.00">::set_wifimanager_activated</text>
</a>
</g>
</g>
<!-- Node1&#45;&gt;Node8 -->
<g id="edge9" class="edge">
<title>Node1&#45;&gt;Node8</title>
<path fill="none" stroke="#63b8ff" d="M124.87,-174.45C140.98,-178.95 158.74,-183.9 175.44,-188.57"/>
<polygon fill="#63b8ff" stroke="#63b8ff" points="174.2,-191.85 184.78,-191.17 176.09,-185.11 174.2,-191.85"/>
</g>
<!-- Node9 -->
<g id="node9" class="node">
<title>Node9</title>
<g id="a_node9"><a xlink:href="classsensesp_1_1_system_status_led.html#a7f7ed0df6685f09f19189de571882d3f" target="_top" xlink:title=" ">
<polygon fill="white" stroke="#666666" points="311,-174 174,-174 174,-144 311,-144 311,-174"/>
<text text-anchor="start" x="182" y="-162" font-family="Helvetica,sans-Serif" font-size="10.00">sensesp::SystemStatusLed</text>
<text text-anchor="middle" x="242.5" y="-151" font-family="Helvetica,sans-Serif" font-size="10.00">::set_ws_authorizing</text>
</a>
</g>
</g>
<!-- Node1&#45;&gt;Node9 -->
<g id="edge11" class="edge">
<title>Node1&#45;&gt;Node9</title>
<path fill="none" stroke="#63b8ff" d="M137.48,-159C145.68,-159 154.11,-159 162.44,-159"/>
<polygon fill="#63b8ff" stroke="#63b8ff" points="162.22,-162.5 172.22,-159 162.22,-155.5 162.22,-162.5"/>
</g>
<!-- Node10 -->
<g id="node10" class="node">
<title>Node10</title>
<g id="a_node10"><a xlink:href="classsensesp_1_1_system_status_led.html#a7e6cfe4641ddaf6aada29ac73052e3dd" target="_top" xlink:title=" ">
<polygon fill="white" stroke="#666666" points="311,-126 174,-126 174,-96 311,-96 311,-126"/>
<text text-anchor="start" x="182" y="-114" font-family="Helvetica,sans-Serif" font-size="10.00">sensesp::SystemStatusLed</text>
<text text-anchor="middle" x="242.5" y="-103" font-family="Helvetica,sans-Serif" font-size="10.00">::set_ws_connected</text>
</a>
</g>
</g>
<!-- Node1&#45;&gt;Node10 -->
<g id="edge13" class="edge">
<title>Node1&#45;&gt;Node10</title>
<path fill="none" stroke="#63b8ff" d="M124.87,-143.55C140.98,-139.05 158.74,-134.1 175.44,-129.43"/>
<polygon fill="#63b8ff" stroke="#63b8ff" points="176.09,-132.89 184.78,-126.83 174.2,-126.15 176.09,-132.89"/>
</g>
<!-- Node11 -->
<g id="node11" class="node">
<title>Node11</title>
<g id="a_node11"><a xlink:href="classsensesp_1_1_system_status_led.html#a52573040f7316525ed41ec4c2ded65d5" target="_top" xlink:title=" ">
<polygon fill="white" stroke="#666666" points="311,-78 174,-78 174,-48 311,-48 311,-78"/>
<text text-anchor="start" x="182" y="-66" font-family="Helvetica,sans-Serif" font-size="10.00">sensesp::SystemStatusLed</text>
<text text-anchor="middle" x="242.5" y="-55" font-family="Helvetica,sans-Serif" font-size="10.00">::set_ws_connecting</text>
</a>
</g>
</g>
<!-- Node1&#45;&gt;Node11 -->
<g id="edge15" class="edge">
<title>Node1&#45;&gt;Node11</title>
<path fill="none" stroke="#63b8ff" d="M88.34,-143.53C108.36,-127.68 141.42,-103.14 173,-87 175.84,-85.55 178.79,-84.15 181.8,-82.81"/>
<polygon fill="#63b8ff" stroke="#63b8ff" points="182.91,-86.14 190.78,-79.05 180.2,-79.68 182.91,-86.14"/>
</g>
<!-- Node12 -->
<g id="node12" class="node">
<title>Node12</title>
<g id="a_node12"><a xlink:href="classsensesp_1_1_system_status_led.html#a01656e8deef0018f01c002baf2316915" target="_top" xlink:title=" ">
<polygon fill="white" stroke="#666666" points="311,-30 174,-30 174,0 311,0 311,-30"/>
<text text-anchor="start" x="182" y="-18" font-family="Helvetica,sans-Serif" font-size="10.00">sensesp::SystemStatusLed</text>
<text text-anchor="middle" x="242.5" y="-7" font-family="Helvetica,sans-Serif" font-size="10.00">::set_ws_disconnected</text>
</a>
</g>
</g>
<!-- Node1&#45;&gt;Node12 -->
<g id="edge17" class="edge">
<title>Node1&#45;&gt;Node12</title>
<path fill="none" stroke="#63b8ff" d="M78.74,-143.86C94.85,-118.64 130.48,-67.97 173,-39 174.8,-37.78 176.66,-36.61 178.58,-35.49"/>
<polygon fill="#63b8ff" stroke="#63b8ff" points="179.89,-38.76 187.17,-31.06 176.67,-32.54 179.89,-38.76"/>
</g>
<!-- Node3 -->
<g id="node3" class="node">
<title>Node3</title>
<g id="a_node3"><a xlink:href="classsensesp_1_1_pattern_blinker.html#a42db37148fd29995d67a4d570343ffce" target="_top" xlink:title=" ">
<polygon fill="white" stroke="#666666" points="469,-174 348,-174 348,-144 469,-144 469,-174"/>
<text text-anchor="start" x="356" y="-162" font-family="Helvetica,sans-Serif" font-size="10.00">sensesp::PatternBlinker</text>
<text text-anchor="middle" x="408.5" y="-151" font-family="Helvetica,sans-Serif" font-size="10.00">::set_pattern</text>
</a>
</g>
</g>
<!-- Node2&#45;&gt;Node3 -->
<g id="edge2" class="edge">
<title>Node2&#45;&gt;Node3</title>
<path fill="none" stroke="#63b8ff" d="M296.97,-287.66C302.26,-285.16 307.38,-282.28 312,-279 347.83,-253.54 377.16,-211.01 393.48,-184.02"/>
<polygon fill="#63b8ff" stroke="#63b8ff" points="396.45,-185.87 398.5,-175.47 390.42,-182.32 396.45,-185.87"/>
</g>
<!-- Node4 -->
<g id="node4" class="node">
<title>Node4</title>
<g id="a_node4"><a xlink:href="classsensesp_1_1_pattern_blinker.html#a07379ab468fd98211d8af6ef285105a6" target="_top" xlink:title=" ">
<polygon fill="white" stroke="#666666" points="626,-174 505,-174 505,-144 626,-144 626,-174"/>
<text text-anchor="start" x="513" y="-162" font-family="Helvetica,sans-Serif" font-size="10.00">sensesp::PatternBlinker</text>
<text text-anchor="middle" x="565.5" y="-151" font-family="Helvetica,sans-Serif" font-size="10.00">::restart</text>
</a>
</g>
</g>
<!-- Node3&#45;&gt;Node4 -->
<g id="edge3" class="edge">
<title>Node3&#45;&gt;Node4</title>
<path fill="none" stroke="#63b8ff" d="M469.43,-159C477.3,-159 485.43,-159 493.47,-159"/>
<polygon fill="#63b8ff" stroke="#63b8ff" points="493.22,-162.5 503.22,-159 493.22,-155.5 493.22,-162.5"/>
</g>
<!-- Node5 -->
<g id="node5" class="node">
<title>Node5</title>
<g id="a_node5"><a xlink:href="classsensesp_1_1_pattern_blinker.html#adcffb5455e367948e225d13ce29a1ac9" target="_top" xlink:title=" ">
<polygon fill="white" stroke="#666666" points="783,-174 662,-174 662,-144 783,-144 783,-174"/>
<text text-anchor="start" x="670" y="-162" font-family="Helvetica,sans-Serif" font-size="10.00">sensesp::PatternBlinker</text>
<text text-anchor="middle" x="722.5" y="-151" font-family="Helvetica,sans-Serif" font-size="10.00">::tick</text>
</a>
</g>
</g>
<!-- Node4&#45;&gt;Node5 -->
<g id="edge4" class="edge">
<title>Node4&#45;&gt;Node5</title>
<path fill="none" stroke="#63b8ff" d="M626.43,-159C634.3,-159 642.43,-159 650.47,-159"/>
<polygon fill="#63b8ff" stroke="#63b8ff" points="650.22,-162.5 660.22,-159 650.22,-155.5 650.22,-162.5"/>
</g>
<!-- Node5&#45;&gt;Node5 -->
<g id="edge6" class="edge">
<title>Node5&#45;&gt;Node5</title>
<path fill="none" stroke="#63b8ff" d="M695.69,-174.28C689.74,-183.41 698.67,-192 722.5,-192 735.53,-192 744.11,-189.43 748.23,-185.61"/>
<polygon fill="#63b8ff" stroke="#63b8ff" points="751.7,-186.07 749.16,-175.78 744.73,-185.41 751.7,-186.07"/>
</g>
<!-- Node6 -->
<g id="node6" class="node">
<title>Node6</title>
<g id="a_node6"><a xlink:href="classsensesp_1_1_base_blinker.html#a094e850c60f9c314e114d347070b4978" target="_top" xlink:title=" ">
<polygon fill="white" stroke="#666666" points="931,-174 819,-174 819,-144 931,-144 931,-174"/>
<text text-anchor="start" x="827" y="-162" font-family="Helvetica,sans-Serif" font-size="10.00">sensesp::BaseBlinker</text>
<text text-anchor="middle" x="875" y="-151" font-family="Helvetica,sans-Serif" font-size="10.00">::set_state</text>
</a>
</g>
</g>
<!-- Node5&#45;&gt;Node6 -->
<g id="edge5" class="edge">
<title>Node5&#45;&gt;Node6</title>
<path fill="none" stroke="#63b8ff" d="M783.41,-159C791.23,-159 799.29,-159 807.21,-159"/>
<polygon fill="#63b8ff" stroke="#63b8ff" points="807.18,-162.5 817.18,-159 807.18,-155.5 807.18,-162.5"/>
</g>
<!-- Node7&#45;&gt;Node3 -->
<g id="edge8" class="edge">
<title>Node7&#45;&gt;Node3</title>
<path fill="none" stroke="#63b8ff" d="M293.3,-239.61C299.73,-237.03 306.11,-234.15 312,-231 337.53,-217.34 363.58,-197.2 382.01,-181.69"/>
<polygon fill="#63b8ff" stroke="#63b8ff" points="384.19,-184.43 389.51,-175.26 379.64,-179.11 384.19,-184.43"/>
</g>
<!-- Node8&#45;&gt;Node3 -->
<g id="edge10" class="edge">
<title>Node8&#45;&gt;Node3</title>
<path fill="none" stroke="#63b8ff" d="M296.29,-191.55C311.51,-187.09 328.27,-182.19 344.06,-177.57"/>
<polygon fill="#63b8ff" stroke="#63b8ff" points="344.74,-181.02 353.35,-174.85 342.77,-174.3 344.74,-181.02"/>
</g>
<!-- Node9&#45;&gt;Node3 -->
<g id="edge12" class="edge">
<title>Node9&#45;&gt;Node3</title>
<path fill="none" stroke="#63b8ff" d="M311.15,-159C319.46,-159 327.98,-159 336.34,-159"/>
<polygon fill="#63b8ff" stroke="#63b8ff" points="336.1,-162.5 346.1,-159 336.1,-155.5 336.1,-162.5"/>
</g>
<!-- Node10&#45;&gt;Node3 -->
<g id="edge14" class="edge">
<title>Node10&#45;&gt;Node3</title>
<path fill="none" stroke="#63b8ff" d="M296.29,-126.45C311.51,-130.91 328.27,-135.81 344.06,-140.43"/>
<polygon fill="#63b8ff" stroke="#63b8ff" points="342.77,-143.7 353.35,-143.15 344.74,-136.98 342.77,-143.7"/>
</g>
<!-- Node11&#45;&gt;Node3 -->
<g id="edge16" class="edge">
<title>Node11&#45;&gt;Node3</title>
<path fill="none" stroke="#63b8ff" d="M293.3,-78.39C299.73,-80.97 306.11,-83.85 312,-87 337.53,-100.66 363.58,-120.8 382.01,-136.31"/>
<polygon fill="#63b8ff" stroke="#63b8ff" points="379.64,-138.89 389.51,-142.74 384.19,-133.57 379.64,-138.89"/>
</g>
<!-- Node12&#45;&gt;Node3 -->
<g id="edge18" class="edge">
<title>Node12&#45;&gt;Node3</title>
<path fill="none" stroke="#63b8ff" d="M296.97,-30.34C302.26,-32.84 307.38,-35.72 312,-39 347.83,-64.46 377.16,-106.99 393.48,-133.98"/>
<polygon fill="#63b8ff" stroke="#63b8ff" points="390.42,-135.68 398.5,-142.53 396.45,-132.13 390.42,-135.68"/>
</g>
</g>
</svg>
        <g id="navigator" transform="translate(0 0)" fill="#404254">
                <rect fill="#f2f5e9" fill-opacity="0.5" stroke="#606060" stroke-width=".5" x="0" y="0" width="60" height="60"/>
                <use id="zoomplus" xlink:href="#zoomPlus" x="17" y="9" onmousedown="handleZoom(evt,'in')"/>
                <use id="zoomminus" xlink:href="#zoomMin" x="42" y="9" onmousedown="handleZoom(evt,'out')"/>
                <use id="reset" xlink:href="#resetDef" x="30" y="36" onmousedown="handleReset()"/>
                <g id="arrowUp" xlink:href="#dirArrow" transform="translate(30 24)" onmousedown="handlePan(0,-1)">
                  <use xlink:href="#rim" fill="#404040">
                        <set attributeName="fill" to="#808080" begin="arrowUp.mouseover" end="arrowUp.mouseout"/>
                  </use>
                  <path fill="none" stroke="white" stroke-width="1.5" d="M0,-3.0v7 M-2.5,-0.5L0,-3.0L2.5,-0.5"/>
                </g>
                <g id="arrowRight" xlink:href="#dirArrow" transform="rotate(90) translate(36 -43)" onmousedown="handlePan(1,0)">
                  <use xlink:href="#rim" fill="#404040">
                        <set attributeName="fill" to="#808080" begin="arrowRight.mouseover" end="arrowRight.mouseout"/>
                  </use>
                  <path fill="none" stroke="white" stroke-width="1.5" d="M0,-3.0v7 M-2.5,-0.5L0,-3.0L2.5,-0.5"/>
                </g>
                <g id="arrowDown" xlink:href="#dirArrow" transform="rotate(180) translate(-30 -48)" onmousedown="handlePan(0,1)">
                  <use xlink:href="#rim" fill="#404040">
                        <set attributeName="fill" to="#808080" begin="arrowDown.mouseover" end="arrowDown.mouseout"/>
                  </use>
                  <path fill="none" stroke="white" stroke-width="1.5" d="M0,-3.0v7 M-2.5,-0.5L0,-3.0L2.5,-0.5"/>
                </g>
                <g id="arrowLeft" xlink:href="#dirArrow" transform="rotate(270) translate(-36 17)" onmousedown="handlePan(-1,0)">
                  <use xlink:href="#rim" fill="#404040">
                        <set attributeName="fill" to="#808080" begin="arrowLeft.mouseover" end="arrowLeft.mouseout"/>
                  </use>
                  <path fill="none" stroke="white" stroke-width="1.5" d="M0,-3.0v7 M-2.5,-0.5L0,-3.0L2.5,-0.5"/>
                </g>
        </g>
        <svg viewBox="0 0 15 15" width="100%" height="30px" preserveAspectRatio="xMaxYMin meet">
         <g id="arrow_out" transform="scale(0.3 0.3)">
          <a xlink:href="classsensesp_1_1_system_status_led_acd9bd798a9418f5f512d60cba2ada35d_cgraph_org.svg" target="_base">
           <rect id="button" ry="5" rx="5" y="6" x="6" height="38" width="38"
                fill="#f2f5e9" fill-opacity="0.5" stroke="#606060" stroke-width="1.0"/>
           <path id="arrow"
             d="M 11.500037,31.436501 C 11.940474,20.09759 22.043105,11.32322 32.158766,21.979434 L 37.068811,17.246167 C 37.068811,17.246167 37.088388,32 37.088388,32 L 22.160133,31.978069 C 22.160133,31.978069 26.997745,27.140456 26.997745,27.140456 C 18.528582,18.264221 13.291696,25.230495 11.500037,31.436501 z"
             style="fill:#404040;"/>
          </a>
         </g>
        </svg>
</svg>
