<?xml version="1.0" encoding="UTF-8" standalone="no"?>
<!DOCTYPE svg PUBLIC "-//W3C//DTD SVG 1.1//EN"
 "http://www.w3.org/Graphics/SVG/1.1/DTD/svg11.dtd">
<!-- Generated by graphviz version 12.0.0 (20240704.0754)
 -->
<!-- Title: sensesp::ButtonHandler Pages: 1 -->
<svg width="218pt" height="193pt"
 viewBox="0.00 0.00 217.88 193.00" xmlns="http://www.w3.org/2000/svg" xmlns:xlink="http://www.w3.org/1999/xlink">

<svg id="main" version="1.1" xmlns="http://www.w3.org/2000/svg" xmlns:xlink="http://www.w3.org/1999/xlink" xml:space="preserve" onload="init(evt)">
<style type="text/css"><![CDATA[
.node, .edge {opacity: 0.7;}
.node.selected, .edge.selected {opacity: 1;}
.edge:hover path { stroke: red; }
.edge:hover polygon { stroke: red; fill: red; }
]]></style>
<script type="application/ecmascript" xlink:href="svg.min.js"/>
<svg id="graph" class="graph">
<g id="graph0" class="graph" transform="scale(1 1) rotate(0) translate(4 189)">
<title>sensesp::ButtonHandler</title>
<!-- Node1 -->
<g id="Node000001" class="node">
<title>Node1</title>
<g id="a_Node000001"><a xlink:title="Default Button Handler for SensESPApp applications.">
<polygon fill="#999999" stroke="#666666" points="174.25,-19.25 53.25,-19.25 53.25,0 174.25,0 174.25,-19.25"/>
<text text-anchor="middle" x="113.75" y="-5.75" font-family="Helvetica,sans-Serif" font-size="10.00">sensesp::ButtonHandler</text>
</a>
</g>
</g>
<!-- Node2 -->
<g id="Node000002" class="node">
<title>Node2</title>
<g id="a_Node000002"><a xlink:href="classsensesp_1_1_minimal_button_handler.html" target="_top" xlink:title="Minimal Button Handler.">
<polygon fill="white" stroke="#666666" points="191.12,-74.5 36.38,-74.5 36.38,-55.25 191.12,-55.25 191.12,-74.5"/>
<text text-anchor="middle" x="113.75" y="-61" font-family="Helvetica,sans-Serif" font-size="10.00">sensesp::MinimalButtonHandler</text>
</a>
</g>
</g>
<!-- Node2&#45;&gt;Node1 -->
<g id="edge1_Node000001_Node000002" class="edge">
<title>Node2&#45;&gt;Node1</title>
<g id="a_edge1_Node000001_Node000002"><a xlink:title=" ">
<path fill="none" stroke="#63b8ff" d="M113.75,-43.63C113.75,-35.34 113.75,-26.17 113.75,-19.61"/>
<polygon fill="#63b8ff" stroke="#63b8ff" points="110.25,-43.57 113.75,-53.57 117.25,-43.57 110.25,-43.57"/>
</a>
</g>
</g>
<!-- Node3 -->
<g id="Node000003" class="node">
<title>Node3</title>
<g id="a_Node000003"><a xlink:href="classsensesp_1_1_base_button_handler.html" target="_top" xlink:title="Base class for button handlers.">
<polygon fill="white" stroke="#666666" points="185.5,-129.75 42,-129.75 42,-110.5 185.5,-110.5 185.5,-129.75"/>
<text text-anchor="middle" x="113.75" y="-116.25" font-family="Helvetica,sans-Serif" font-size="10.00">sensesp::BaseButtonHandler</text>
</a>
</g>
</g>
<!-- Node3&#45;&gt;Node2 -->
<g id="edge2_Node000002_Node000003" class="edge">
<title>Node3&#45;&gt;Node2</title>
<g id="a_edge2_Node000002_Node000003"><a xlink:title=" ">
<path fill="none" stroke="#63b8ff" d="M113.75,-98.88C113.75,-90.59 113.75,-81.42 113.75,-74.86"/>
<polygon fill="#63b8ff" stroke="#63b8ff" points="110.25,-98.82 113.75,-108.82 117.25,-98.82 110.25,-98.82"/>
</a>
</g>
</g>
<!-- Node4 -->
<g id="Node000004" class="node">
<title>Node4</title>
<g id="a_Node000004"><a xlink:href="classsensesp_1_1_configurable.html" target="_top" xlink:title="An object that is capable of having configuration data that can be set remotely using a RESTful API,...">
<polygon fill="white" stroke="#666666" points="113.5,-185 0,-185 0,-165.75 113.5,-165.75 113.5,-185"/>
<text text-anchor="middle" x="56.75" y="-171.5" font-family="Helvetica,sans-Serif" font-size="10.00">sensesp::Configurable</text>
</a>
</g>
</g>
<!-- Node4&#45;&gt;Node3 -->
<g id="edge3_Node000003_Node000004" class="edge">
<title>Node4&#45;&gt;Node3</title>
<g id="a_edge3_Node000003_Node000004"><a xlink:title=" ">
<path fill="none" stroke="#63b8ff" d="M74.7,-157.61C84.48,-148.47 96.19,-137.53 104.22,-130.02"/>
<polygon fill="#63b8ff" stroke="#63b8ff" points="72.44,-154.92 67.53,-164.31 77.22,-160.04 72.44,-154.92"/>
</a>
</g>
</g>
<!-- Node5 -->
<g id="Node000005" class="node">
<title>Node5</title>
<g id="a_Node000005"><a xlink:title=" ">
<polygon fill="white" stroke="#666666" points="209.88,-185 131.62,-185 131.62,-165.75 209.88,-165.75 209.88,-185"/>
<text text-anchor="middle" x="170.75" y="-171.5" font-family="Helvetica,sans-Serif" font-size="10.00">IEventHandler</text>
</a>
</g>
</g>
<!-- Node5&#45;&gt;Node3 -->
<g id="edge4_Node000003_Node000005" class="edge">
<title>Node5&#45;&gt;Node3</title>
<g id="a_edge4_Node000003_Node000005"><a xlink:title=" ">
<path fill="none" stroke="#63b8ff" d="M152.8,-157.61C143.02,-148.47 131.31,-137.53 123.28,-130.02"/>
<polygon fill="#63b8ff" stroke="#63b8ff" points="150.28,-160.04 159.97,-164.31 155.06,-154.92 150.28,-160.04"/>
</a>
</g>
</g>
</g>
</svg>
</svg>

<style type='text/css'>
<![CDATA[
[data-mouse-over-selected='false'] { opacity: 0.7; }
[data-mouse-over-selected='true']  { opacity: 1.0; }
]]>
</style>
<script type="application/ecmascript"><![CDATA[
document.addEventListener('DOMContentLoaded', (event) => {
  highlightEdges();
  highlightAdjacentNodes();
});
]]></script>
</svg>
