<?xml version="1.0" encoding="UTF-8" standalone="no"?>
<!DOCTYPE svg PUBLIC "-//W3C//DTD SVG 1.1//EN"
 "http://www.w3.org/Graphics/SVG/1.1/DTD/svg11.dtd">
<!-- Generated by graphviz version 14.1.4 (20260321.0153)
 -->
<!-- Title: sensesp::HTTPServer::HTTPServer Pages: 1 -->
<svg width="865pt" height="324pt"
 viewBox="0.00 0.00 865.00 324.00" xmlns="http://www.w3.org/2000/svg" xmlns:xlink="http://www.w3.org/1999/xlink">
<g id="graph0" class="graph" transform="scale(1 1) rotate(0) translate(4 319.5)">
<title>sensesp::HTTPServer::HTTPServer</title>
<!-- Node1 -->
<g id="Node000001" class="node">
<title>Node1</title>
<g id="a_Node000001"><a xlink:title=" ">
<polygon fill="#999999" stroke="#666666" points="113.5,-195.5 0,-195.5 0,-165 113.5,-165 113.5,-195.5"/>
<text xml:space="preserve" text-anchor="start" x="8" y="-182" font-family="Helvetica,sans-Serif" font-size="10.00">sensesp::HTTPServer</text>
<text xml:space="preserve" text-anchor="middle" x="56.75" y="-170.75" font-family="Helvetica,sans-Serif" font-size="10.00">::HTTPServer</text>
</a>
</g>
</g>
<!-- Node2 -->
<g id="Node000002" class="node">
<title>Node2</title>
<g id="a_Node000002"><a xlink:href="classsensesp_1_1_h_t_t_p_server.html#a770fed412b33e5ce744c496c9fb50ced" target="_top" xlink:title=" ">
<polygon fill="white" stroke="#666666" points="286.25,-263.5 161.5,-263.5 161.5,-233 286.25,-233 286.25,-263.5"/>
<text xml:space="preserve" text-anchor="start" x="169.5" y="-250" font-family="Helvetica,sans-Serif" font-size="10.00">sensesp::HTTPServer</text>
<text xml:space="preserve" text-anchor="middle" x="223.88" y="-238.75" font-family="Helvetica,sans-Serif" font-size="10.00">::call_request_dispatcher</text>
</a>
</g>
</g>
<!-- Node1&#45;&gt;Node2 -->
<g id="edge1_Node000001_Node000002" class="edge">
<title>Node1&#45;&gt;Node2</title>
<g id="a_edge1_Node000001_Node000002"><a xlink:title=" ">
<path fill="none" stroke="#63b8ff" d="M110.86,-195.97C123.45,-201.31 136.89,-207.12 149.5,-212.25 162.43,-217.51 176.82,-222.91 189.4,-228.06"/>
<polygon fill="#63b8ff" stroke="#63b8ff" points="187.95,-231.24 198.52,-231.92 190.68,-224.8 187.95,-231.24"/>
</a>
</g>
</g>
<!-- Node8 -->
<g id="Node000008" class="node">
<title>Node8</title>
<g id="a_Node000008"><a xlink:href="namespacesensesp.html#a1c1105507d71491cf4e0505eaabb2e49" target="_top" xlink:title=" ">
<polygon fill="white" stroke="#666666" points="276.88,-211.88 170.88,-211.88 170.88,-192.62 276.88,-192.62 276.88,-211.88"/>
<text xml:space="preserve" text-anchor="middle" x="223.88" y="-198.38" font-family="Helvetica,sans-Serif" font-size="10.00">sensesp::event_loop</text>
</a>
</g>
</g>
<!-- Node1&#45;&gt;Node8 -->
<g id="edge9_Node000001_Node000008" class="edge">
<title>Node1&#45;&gt;Node8</title>
<g id="a_edge9_Node000001_Node000008"><a xlink:title=" ">
<path fill="none" stroke="#63b8ff" d="M113.65,-187.7C128.34,-189.66 144.29,-191.78 159.35,-193.79"/>
<polygon fill="#63b8ff" stroke="#63b8ff" points="158.77,-197.24 169.15,-195.09 159.7,-190.3 158.77,-197.24"/>
</a>
</g>
</g>
<!-- Node11 -->
<g id="Node000011" class="node">
<title>Node11</title>
<g id="a_Node000011"><a xlink:href="classsensesp_1_1_file_system_saveable.html#a974f062b375cf8637944f121084cf9f7" target="_top" xlink:title=" ">
<polygon fill="white" stroke="#666666" points="298.25,-174.5 149.5,-174.5 149.5,-144 298.25,-144 298.25,-174.5"/>
<text xml:space="preserve" text-anchor="start" x="157.5" y="-161" font-family="Helvetica,sans-Serif" font-size="10.00">sensesp::FileSystemSaveable</text>
<text xml:space="preserve" text-anchor="middle" x="223.88" y="-149.75" font-family="Helvetica,sans-Serif" font-size="10.00">::FileSystemSaveable</text>
</a>
</g>
</g>
<!-- Node1&#45;&gt;Node11 -->
<g id="edge12_Node000001_Node000011" class="edge">
<title>Node1&#45;&gt;Node11</title>
<g id="a_edge12_Node000001_Node000011"><a xlink:title=" ">
<path fill="none" stroke="#63b8ff" d="M113.65,-173.14C121.5,-172.14 129.71,-171.1 137.95,-170.05"/>
<polygon fill="#63b8ff" stroke="#63b8ff" points="138.19,-173.55 147.67,-168.81 137.31,-166.6 138.19,-173.55"/>
</a>
</g>
</g>
<!-- Node13 -->
<g id="Node000013" class="node">
<title>Node13</title>
<g id="a_Node000013"><a xlink:href="classsensesp_1_1_sens_e_s_p_base_app.html#a21ba3dc3ef0056c32ad5a67e1ae5ff16" target="_top" xlink:title="Get the current hostname.">
<polygon fill="white" stroke="#666666" points="294.5,-125.5 153.25,-125.5 153.25,-95 294.5,-95 294.5,-125.5"/>
<text xml:space="preserve" text-anchor="start" x="161.25" y="-112" font-family="Helvetica,sans-Serif" font-size="10.00">sensesp::SensESPBaseApp</text>
<text xml:space="preserve" text-anchor="middle" x="223.88" y="-100.75" font-family="Helvetica,sans-Serif" font-size="10.00">::get_hostname</text>
</a>
</g>
</g>
<!-- Node1&#45;&gt;Node13 -->
<g id="edge14_Node000001_Node000013" class="edge">
<title>Node1&#45;&gt;Node13</title>
<g id="a_edge14_Node000001_Node000013"><a xlink:title=" ">
<path fill="none" stroke="#63b8ff" d="M87.06,-164.68C104.86,-155.53 128.19,-144.07 149.5,-135.25 154.03,-133.38 158.76,-131.53 163.53,-129.74"/>
<polygon fill="#63b8ff" stroke="#63b8ff" points="164.38,-133.16 172.58,-126.45 161.99,-126.58 164.38,-133.16"/>
</a>
</g>
</g>
<!-- Node14 -->
<g id="Node000014" class="node">
<title>Node14</title>
<g id="a_Node000014"><a xlink:href="classsensesp_1_1_file_system_saveable.html#a79b2e2e657112851dfda8785d217578a" target="_top" xlink:title="Load and populate the object from a persistent storage.">
<polygon fill="white" stroke="#666666" points="298.25,-76.5 149.5,-76.5 149.5,-46 298.25,-46 298.25,-76.5"/>
<text xml:space="preserve" text-anchor="start" x="157.5" y="-63" font-family="Helvetica,sans-Serif" font-size="10.00">sensesp::FileSystemSaveable</text>
<text xml:space="preserve" text-anchor="middle" x="223.88" y="-51.75" font-family="Helvetica,sans-Serif" font-size="10.00">::load</text>
</a>
</g>
</g>
<!-- Node1&#45;&gt;Node14 -->
<g id="edge16_Node000001_Node000014" class="edge">
<title>Node1&#45;&gt;Node14</title>
<g id="a_edge16_Node000001_Node000014"><a xlink:title=" ">
<path fill="none" stroke="#63b8ff" d="M69.09,-164.72C84.92,-144.07 115.56,-107.67 149.5,-86.25 151.94,-84.71 154.49,-83.25 157.1,-81.88"/>
<polygon fill="#63b8ff" stroke="#63b8ff" points="158.58,-85.05 166.11,-77.6 155.57,-78.73 158.58,-85.05"/>
</a>
</g>
</g>
<!-- Node2&#45;&gt;Node1 -->
<g id="edge8_Node000002_Node000001" class="edge">
<title>Node2&#45;&gt;Node1</title>
<g id="a_edge8_Node000002_Node000001"><a xlink:title=" ">
<path fill="none" stroke="#63b8ff" d="M161.11,-234.85C157.17,-233.33 153.27,-231.78 149.5,-230.25 128.16,-221.57 104.41,-210.93 86.43,-201.43"/>
<polygon fill="#63b8ff" stroke="#63b8ff" points="88.34,-198.49 77.89,-196.72 84.96,-204.62 88.34,-198.49"/>
</a>
</g>
</g>
<!-- Node3 -->
<g id="Node000003" class="node">
<title>Node3</title>
<g id="a_Node000003"><a xlink:href="classsensesp_1_1_h_t_t_p_server.html#a09f55d0afb8ff4d4c5f552db5fc6ee1a" target="_top" xlink:title="Dispatcher method that captures all requests and forwards them to the appropriate handlers.">
<polygon fill="white" stroke="#666666" points="465.38,-266.5 351.88,-266.5 351.88,-236 465.38,-236 465.38,-266.5"/>
<text xml:space="preserve" text-anchor="start" x="359.88" y="-253" font-family="Helvetica,sans-Serif" font-size="10.00">sensesp::HTTPServer</text>
<text xml:space="preserve" text-anchor="middle" x="408.62" y="-241.75" font-family="Helvetica,sans-Serif" font-size="10.00">::dispatch_request</text>
</a>
</g>
</g>
<!-- Node2&#45;&gt;Node3 -->
<g id="edge2_Node000002_Node000003" class="edge">
<title>Node2&#45;&gt;Node3</title>
<g id="a_edge2_Node000002_Node000003"><a xlink:title=" ">
<path fill="none" stroke="#63b8ff" d="M286.75,-242.84C303.99,-242.73 322.8,-243 340.34,-243.61"/>
<polygon fill="#63b8ff" stroke="#63b8ff" points="340.01,-247.1 350.14,-243.99 340.29,-240.1 340.01,-247.1"/>
</a>
</g>
</g>
<!-- Node3&#45;&gt;Node2 -->
<g id="edge5_Node000003_Node000002" class="edge">
<title>Node3&#45;&gt;Node2</title>
<g id="a_edge5_Node000003_Node000002"><a xlink:title=" ">
<path fill="none" stroke="#63b8ff" d="M351.65,-256.61C334.73,-256.81 315.89,-256.61 298.02,-256.08"/>
<polygon fill="#63b8ff" stroke="#63b8ff" points="298.37,-252.59 288.26,-255.74 298.13,-259.59 298.37,-252.59"/>
</a>
</g>
</g>
<!-- Node4 -->
<g id="Node000004" class="node">
<title>Node4</title>
<g id="a_Node000004"><a xlink:href="classsensesp_1_1_h_t_t_p_server.html#a6fdb4c561e5fd44bfa65cf07d10fbc49" target="_top" xlink:title=" ">
<polygon fill="white" stroke="#666666" points="656.12,-315.5 542.62,-315.5 542.62,-285 656.12,-285 656.12,-315.5"/>
<text xml:space="preserve" text-anchor="start" x="550.62" y="-302" font-family="Helvetica,sans-Serif" font-size="10.00">sensesp::HTTPServer</text>
<text xml:space="preserve" text-anchor="middle" x="599.38" y="-290.75" font-family="Helvetica,sans-Serif" font-size="10.00">::authenticate_request</text>
</a>
</g>
</g>
<!-- Node3&#45;&gt;Node4 -->
<g id="edge3_Node000003_Node000004" class="edge">
<title>Node3&#45;&gt;Node4</title>
<g id="a_edge3_Node000003_Node000004"><a xlink:title=" ">
<path fill="none" stroke="#63b8ff" d="M465.75,-265.82C486.29,-271.15 509.74,-277.24 531.16,-282.8"/>
<polygon fill="#63b8ff" stroke="#63b8ff" points="530.12,-286.15 540.68,-285.27 531.88,-279.37 530.12,-286.15"/>
</a>
</g>
</g>
<!-- Node6 -->
<g id="Node000006" class="node">
<title>Node6</title>
<g id="a_Node000006"><a xlink:href="classsensesp_1_1_h_t_t_p_server.html#ae958cabac51c4d74bd4ed7332d78d2e1" target="_top" xlink:title="Check if the request is for the captive portal and handle it if it.">
<polygon fill="white" stroke="#666666" points="657.62,-266.5 541.12,-266.5 541.12,-236 657.62,-236 657.62,-266.5"/>
<text xml:space="preserve" text-anchor="start" x="549.12" y="-253" font-family="Helvetica,sans-Serif" font-size="10.00">sensesp::HTTPServer</text>
<text xml:space="preserve" text-anchor="middle" x="599.38" y="-241.75" font-family="Helvetica,sans-Serif" font-size="10.00">::handle_captive_portal</text>
</a>
</g>
</g>
<!-- Node3&#45;&gt;Node6 -->
<g id="edge6_Node000003_Node000006" class="edge">
<title>Node3&#45;&gt;Node6</title>
<g id="a_edge6_Node000003_Node000006"><a xlink:title=" ">
<path fill="none" stroke="#63b8ff" d="M465.75,-251.25C485.73,-251.25 508.48,-251.25 529.42,-251.25"/>
<polygon fill="#63b8ff" stroke="#63b8ff" points="529.32,-254.75 539.32,-251.25 529.32,-247.75 529.32,-254.75"/>
</a>
</g>
</g>
<!-- Node7 -->
<g id="Node000007" class="node">
<title>Node7</title>
<g id="a_Node000007"><a xlink:href="namespacesensesp.html#a7f904f4cb9b672e259f8838b24fbcd21" target="_top" xlink:title=" ">
<polygon fill="white" stroke="#666666" points="652.38,-217.88 546.38,-217.88 546.38,-198.62 652.38,-198.62 652.38,-217.88"/>
<text xml:space="preserve" text-anchor="middle" x="599.38" y="-204.38" font-family="Helvetica,sans-Serif" font-size="10.00">sensesp::urldecode2</text>
</a>
</g>
</g>
<!-- Node3&#45;&gt;Node7 -->
<g id="edge7_Node000003_Node000007" class="edge">
<title>Node3&#45;&gt;Node7</title>
<g id="a_edge7_Node000003_Node000007"><a xlink:title=" ">
<path fill="none" stroke="#63b8ff" d="M465.75,-238.47C490.14,-232.91 518.63,-226.42 542.94,-220.88"/>
<polygon fill="#63b8ff" stroke="#63b8ff" points="543.7,-224.3 552.67,-218.66 542.14,-217.47 543.7,-224.3"/>
</a>
</g>
</g>
<!-- Node5 -->
<g id="Node000005" class="node">
<title>Node5</title>
<g id="a_Node000005"><a xlink:href="classsensesp_1_1_h_t_t_p_authenticator.html#a1925475ef5b914b85d4a9527114fcc92" target="_top" xlink:title="Authenticate an incoming request.">
<polygon fill="white" stroke="#666666" points="857,-315.5 715.75,-315.5 715.75,-285 857,-285 857,-315.5"/>
<text xml:space="preserve" text-anchor="start" x="723.75" y="-302" font-family="Helvetica,sans-Serif" font-size="10.00">sensesp::HTTPAuthenticator</text>
<text xml:space="preserve" text-anchor="middle" x="786.38" y="-290.75" font-family="Helvetica,sans-Serif" font-size="10.00">::authenticate_request</text>
</a>
</g>
</g>
<!-- Node4&#45;&gt;Node5 -->
<g id="edge4_Node000004_Node000005" class="edge">
<title>Node4&#45;&gt;Node5</title>
<g id="a_edge4_Node000004_Node000005"><a xlink:title=" ">
<path fill="none" stroke="#63b8ff" d="M656.38,-300.25C671.5,-300.25 688.18,-300.25 704.37,-300.25"/>
<polygon fill="#63b8ff" stroke="#63b8ff" points="703.97,-303.75 713.97,-300.25 703.97,-296.75 703.97,-303.75"/>
</a>
</g>
</g>
<!-- Node9 -->
<g id="Node000009" class="node">
<title>Node9</title>
<g id="a_Node000009"><a xlink:href="classsensesp_1_1_sens_e_s_p_base_app.html#a28c20eed17bfc460e6686a11c5b3b107" target="_top" xlink:title="Get the event loop object from the singleton SensESPBaseApp instance.">
<polygon fill="white" stroke="#666666" points="479.25,-217.5 338,-217.5 338,-187 479.25,-187 479.25,-217.5"/>
<text xml:space="preserve" text-anchor="start" x="346" y="-204" font-family="Helvetica,sans-Serif" font-size="10.00">sensesp::SensESPBaseApp</text>
<text xml:space="preserve" text-anchor="middle" x="408.62" y="-192.75" font-family="Helvetica,sans-Serif" font-size="10.00">::get_event_loop</text>
</a>
</g>
</g>
<!-- Node8&#45;&gt;Node9 -->
<g id="edge10_Node000008_Node000009" class="edge">
<title>Node8&#45;&gt;Node9</title>
<g id="a_edge10_Node000008_Node000009"><a xlink:title=" ">
<path fill="none" stroke="#63b8ff" d="M277.24,-202.25C292.5,-202.25 309.54,-202.25 326.14,-202.25"/>
<polygon fill="#63b8ff" stroke="#63b8ff" points="326.02,-205.75 336.02,-202.25 326.02,-198.75 326.02,-205.75"/>
</a>
</g>
</g>
<!-- Node10 -->
<g id="Node000010" class="node">
<title>Node10</title>
<g id="a_Node000010"><a xlink:href="classsensesp_1_1_sens_e_s_p_base_app.html#add2c67bb55d095ab9c64f44ab2e82612" target="_top" xlink:title="Get the singleton instance of the SensESPBaseApp.">
<polygon fill="white" stroke="#666666" points="679.75,-149.88 519,-149.88 519,-130.62 679.75,-130.62 679.75,-149.88"/>
<text xml:space="preserve" text-anchor="middle" x="599.38" y="-136.38" font-family="Helvetica,sans-Serif" font-size="10.00">sensesp::SensESPBaseApp::get</text>
</a>
</g>
</g>
<!-- Node9&#45;&gt;Node10 -->
<g id="edge11_Node000009_Node000010" class="edge">
<title>Node9&#45;&gt;Node10</title>
<g id="a_edge11_Node000009_Node000010"><a xlink:title=" ">
<path fill="none" stroke="#63b8ff" d="M457.25,-186.6C487.95,-176.52 527.48,-163.54 556.89,-153.88"/>
<polygon fill="#63b8ff" stroke="#63b8ff" points="557.78,-157.27 566.18,-150.82 555.59,-150.62 557.78,-157.27"/>
</a>
</g>
</g>
<!-- Node12 -->
<g id="Node000012" class="node">
<title>Node12</title>
<g id="a_Node000012"><a xlink:href="classsensesp_1_1_saveable.html#abaa7864f4f35be033ad5f32a379051d7" target="_top" xlink:title=" ">
<polygon fill="white" stroke="#666666" points="461.25,-168.5 356,-168.5 356,-138 461.25,-138 461.25,-168.5"/>
<text xml:space="preserve" text-anchor="start" x="364" y="-155" font-family="Helvetica,sans-Serif" font-size="10.00">sensesp::Saveable::</text>
<text xml:space="preserve" text-anchor="middle" x="408.62" y="-143.75" font-family="Helvetica,sans-Serif" font-size="10.00">Saveable</text>
</a>
</g>
</g>
<!-- Node11&#45;&gt;Node12 -->
<g id="edge13_Node000011_Node000012" class="edge">
<title>Node11&#45;&gt;Node12</title>
<g id="a_edge13_Node000011_Node000012"><a xlink:title=" ">
<path fill="none" stroke="#63b8ff" d="M298.68,-156.83C313.92,-156.33 329.83,-155.8 344.64,-155.32"/>
<polygon fill="#63b8ff" stroke="#63b8ff" points="344.32,-158.83 354.2,-155 344.09,-151.83 344.32,-158.83"/>
</a>
</g>
</g>
<!-- Node13&#45;&gt;Node10 -->
<g id="edge15_Node000013_Node000010" class="edge">
<title>Node13&#45;&gt;Node10</title>
<g id="a_edge15_Node000013_Node000010"><a xlink:title=" ">
<path fill="none" stroke="#63b8ff" d="M294.75,-114.98C346.7,-118.6 419.31,-123.87 483,-129.25 490.93,-129.92 499.16,-130.64 507.41,-131.39"/>
<polygon fill="#63b8ff" stroke="#63b8ff" points="506.86,-134.86 517.13,-132.28 507.5,-127.89 506.86,-134.86"/>
</a>
</g>
</g>
<!-- Node15 -->
<g id="Node000015" class="node">
<title>Node15</title>
<g id="a_Node000015"><a xlink:href="classsensesp_1_1_file_system_saveable.html#ad0233f7895b5c8915108399420c7cf0b" target="_top" xlink:title=" ">
<polygon fill="white" stroke="#666666" points="483,-79.5 334.25,-79.5 334.25,-49 483,-49 483,-79.5"/>
<text xml:space="preserve" text-anchor="start" x="342.25" y="-66" font-family="Helvetica,sans-Serif" font-size="10.00">sensesp::FileSystemSaveable</text>
<text xml:space="preserve" text-anchor="middle" x="408.62" y="-54.75" font-family="Helvetica,sans-Serif" font-size="10.00">::find_config_file</text>
</a>
</g>
</g>
<!-- Node14&#45;&gt;Node15 -->
<g id="edge17_Node000014_Node000015" class="edge">
<title>Node14&#45;&gt;Node15</title>
<g id="a_edge17_Node000014_Node000015"><a xlink:title=" ">
<path fill="none" stroke="#63b8ff" d="M298.68,-62.46C306.47,-62.59 314.43,-62.72 322.33,-62.85"/>
<polygon fill="#63b8ff" stroke="#63b8ff" points="322.27,-66.35 332.33,-63.01 322.39,-59.35 322.27,-66.35"/>
</a>
</g>
</g>
<!-- Node18 -->
<g id="Node000018" class="node">
<title>Node18</title>
<g id="a_Node000018"><a xlink:href="classsensesp_1_1_serializable.html#a841233a82ef3a7fbcecd5a15b0df12d2" target="_top" xlink:title=" ">
<polygon fill="white" stroke="#666666" points="463.12,-30.5 354.12,-30.5 354.12,0 463.12,0 463.12,-30.5"/>
<text xml:space="preserve" text-anchor="start" x="362.12" y="-17" font-family="Helvetica,sans-Serif" font-size="10.00">sensesp::Serializable</text>
<text xml:space="preserve" text-anchor="middle" x="408.62" y="-5.75" font-family="Helvetica,sans-Serif" font-size="10.00">::from_json</text>
</a>
</g>
</g>
<!-- Node14&#45;&gt;Node18 -->
<g id="edge20_Node000014_Node000018" class="edge">
<title>Node14&#45;&gt;Node18</title>
<g id="a_edge20_Node000014_Node000018"><a xlink:title=" ">
<path fill="none" stroke="#63b8ff" d="M287.26,-45.55C305.15,-41.04 324.7,-36.12 342.75,-31.58"/>
<polygon fill="#63b8ff" stroke="#63b8ff" points="343.45,-35.01 352.29,-29.18 341.74,-28.23 343.45,-35.01"/>
</a>
</g>
</g>
<!-- Node16 -->
<g id="Node000016" class="node">
<title>Node16</title>
<g id="a_Node000016"><a xlink:href="namespacesensesp.html#adad24461f43358c45017cf1cb816ca60" target="_top" xlink:title="A base64&#45;encoded SHA&#45;1 hash function.">
<polygon fill="white" stroke="#666666" points="656.5,-73.88 542.25,-73.88 542.25,-54.62 656.5,-54.62 656.5,-73.88"/>
<text xml:space="preserve" text-anchor="middle" x="599.38" y="-60.38" font-family="Helvetica,sans-Serif" font-size="10.00">sensesp::Base64Sha1</text>
</a>
</g>
</g>
<!-- Node15&#45;&gt;Node16 -->
<g id="edge18_Node000015_Node000016" class="edge">
<title>Node15&#45;&gt;Node16</title>
<g id="a_edge18_Node000015_Node000016"><a xlink:title=" ">
<path fill="none" stroke="#63b8ff" d="M483.41,-64.25C498.9,-64.25 515.17,-64.25 530.43,-64.25"/>
<polygon fill="#63b8ff" stroke="#63b8ff" points="530.37,-67.75 540.37,-64.25 530.37,-60.75 530.37,-67.75"/>
</a>
</g>
</g>
<!-- Node17 -->
<g id="Node000017" class="node">
<title>Node17</title>
<g id="a_Node000017"><a xlink:href="namespacesensesp.html#a37dfeb5f75b7115464a9aa40473d69cf" target="_top" xlink:title="SHA&#45;1 hash function.">
<polygon fill="white" stroke="#666666" points="827,-73.88 745.75,-73.88 745.75,-54.62 827,-54.62 827,-73.88"/>
<text xml:space="preserve" text-anchor="middle" x="786.38" y="-60.38" font-family="Helvetica,sans-Serif" font-size="10.00">sensesp::Sha1</text>
</a>
</g>
</g>
<!-- Node16&#45;&gt;Node17 -->
<g id="edge19_Node000016_Node000017" class="edge">
<title>Node16&#45;&gt;Node17</title>
<g id="a_edge19_Node000016_Node000017"><a xlink:title=" ">
<path fill="none" stroke="#63b8ff" d="M656.89,-64.25C681.45,-64.25 710.03,-64.25 733.98,-64.25"/>
<polygon fill="#63b8ff" stroke="#63b8ff" points="733.82,-67.75 743.82,-64.25 733.82,-60.75 733.82,-67.75"/>
</a>
</g>
</g>
</g>
</svg>
