<?xml version="1.0" encoding="UTF-8" standalone="no"?>
<!DOCTYPE svg PUBLIC "-//W3C//DTD SVG 1.1//EN"
 "http://www.w3.org/Graphics/SVG/1.1/DTD/svg11.dtd">
<!-- Generated by graphviz version 5.0.0 (20220707.1540)
 -->
<!-- Title: sensesp::SensESPApp::get Pages: 1 -->
<svg width="635pt" height="127pt"
 viewBox="0.00 0.00 635.00 127.00" xmlns="http://www.w3.org/2000/svg" xmlns:xlink="http://www.w3.org/1999/xlink">
<g id="graph0" class="graph" transform="scale(1 1) rotate(0) translate(4 123)">
<title>sensesp::SensESPApp::get</title>
<polygon fill="white" stroke="transparent" points="-4,4 -4,-123 631,-123 631,4 -4,4"/>
<!-- Node1 -->
<g id="node1" class="node">
<title>Node1</title>
<g id="a_node1"><a xlink:title="Get the singleton instance of the SensESPApp.">
<polygon fill="#bfbfbf" stroke="black" points="0,-50 0,-69 137,-69 137,-50 0,-50"/>
<text text-anchor="middle" x="68.5" y="-57" font-family="Helvetica,sans-Serif" font-size="10.00">sensesp::SensESPApp::get</text>
</a>
</g>
</g>
<!-- Node2 -->
<g id="node2" class="node">
<title>Node2</title>
<g id="a_node2"><a xlink:href="classsensesp_1_1_sens_e_s_p_app.html#a05ebb118abaf137b414a8736fb1fc3ba" target="_top" xlink:title="SensESPApp constructor.">
<polygon fill="white" stroke="black" points="173,-44.5 173,-74.5 291,-74.5 291,-44.5 173,-44.5"/>
<text text-anchor="start" x="181" y="-62.5" font-family="Helvetica,sans-Serif" font-size="10.00">sensesp::SensESPApp</text>
<text text-anchor="middle" x="232" y="-51.5" font-family="Helvetica,sans-Serif" font-size="10.00">::SensESPApp</text>
</a>
</g>
</g>
<!-- Node1&#45;&gt;Node2 -->
<g id="edge1" class="edge">
<title>Node1&#45;&gt;Node2</title>
<path fill="none" stroke="midnightblue" d="M137.05,-59.5C145.53,-59.5 154.21,-59.5 162.71,-59.5"/>
<polygon fill="midnightblue" stroke="midnightblue" points="162.94,-63 172.94,-59.5 162.94,-56 162.94,-63"/>
</g>
<!-- Node3 -->
<g id="node3" class="node">
<title>Node3</title>
<g id="a_node3"><a xlink:href="classsensesp_1_1_value_producer.html#a168e379778dd79bc926aff69d9a87663" target="_top" xlink:title=" ">
<polygon fill="white" stroke="black" points="327,-44.5 327,-74.5 449,-74.5 449,-44.5 327,-44.5"/>
<text text-anchor="start" x="335" y="-62.5" font-family="Helvetica,sans-Serif" font-size="10.00">sensesp::ValueProducer</text>
<text text-anchor="middle" x="388" y="-51.5" font-family="Helvetica,sans-Serif" font-size="10.00">::connect_to</text>
</a>
</g>
</g>
<!-- Node2&#45;&gt;Node3 -->
<g id="edge2" class="edge">
<title>Node2&#45;&gt;Node3</title>
<path fill="none" stroke="midnightblue" d="M291.22,-59.5C299.61,-59.5 308.31,-59.5 316.9,-59.5"/>
<polygon fill="midnightblue" stroke="midnightblue" points="316.9,-63 326.9,-59.5 316.9,-56 316.9,-63"/>
</g>
<!-- Node4 -->
<g id="node4" class="node">
<title>Node4</title>
<g id="a_node4"><a xlink:href="classsensesp_1_1_observable.html#a1bd8a207de69d386a7f05c28544df109" target="_top" xlink:title=" ">
<polygon fill="white" stroke="black" points="501.5,-88.5 501.5,-118.5 610.5,-118.5 610.5,-88.5 501.5,-88.5"/>
<text text-anchor="start" x="509.5" y="-106.5" font-family="Helvetica,sans-Serif" font-size="10.00">sensesp::Observable</text>
<text text-anchor="middle" x="556" y="-95.5" font-family="Helvetica,sans-Serif" font-size="10.00">::attach</text>
</a>
</g>
</g>
<!-- Node3&#45;&gt;Node4 -->
<g id="edge3" class="edge">
<title>Node3&#45;&gt;Node4</title>
<path fill="none" stroke="midnightblue" d="M445.66,-74.52C460.46,-78.44 476.49,-82.69 491.61,-86.7"/>
<polygon fill="midnightblue" stroke="midnightblue" points="490.83,-90.11 501.39,-89.29 492.62,-83.35 490.83,-90.11"/>
</g>
<!-- Node5 -->
<g id="node5" class="node">
<title>Node5</title>
<g id="a_node5"><a xlink:href="classsensesp_1_1_value_producer.html#a438390eae6bba056ecf4ab329cb5c8e9" target="_top" xlink:title=" ">
<polygon fill="white" stroke="black" points="485,-50 485,-69 627,-69 627,-50 485,-50"/>
<text text-anchor="middle" x="556" y="-57" font-family="Helvetica,sans-Serif" font-size="10.00">sensesp::ValueProducer::get</text>
</a>
</g>
</g>
<!-- Node3&#45;&gt;Node5 -->
<g id="edge4" class="edge">
<title>Node3&#45;&gt;Node5</title>
<path fill="none" stroke="midnightblue" d="M449.4,-59.5C457.57,-59.5 466.06,-59.5 474.51,-59.5"/>
<polygon fill="midnightblue" stroke="midnightblue" points="474.79,-63 484.79,-59.5 474.79,-56 474.79,-63"/>
</g>
<!-- Node6 -->
<g id="node6" class="node">
<title>Node6</title>
<g id="a_node6"><a xlink:href="classsensesp_1_1_value_consumer.html#a6dbfd22b19489ebd61a353545d1a5261" target="_top" xlink:title=" ">
<polygon fill="white" stroke="black" points="492,-0.5 492,-30.5 620,-30.5 620,-0.5 492,-0.5"/>
<text text-anchor="start" x="500" y="-18.5" font-family="Helvetica,sans-Serif" font-size="10.00">sensesp::ValueConsumer</text>
<text text-anchor="middle" x="556" y="-7.5" font-family="Helvetica,sans-Serif" font-size="10.00">::set_input</text>
</a>
</g>
</g>
<!-- Node3&#45;&gt;Node6 -->
<g id="edge5" class="edge">
<title>Node3&#45;&gt;Node6</title>
<path fill="none" stroke="midnightblue" d="M445.66,-44.48C459.48,-40.82 474.37,-36.87 488.6,-33.1"/>
<polygon fill="midnightblue" stroke="midnightblue" points="489.54,-36.47 498.31,-30.53 487.75,-29.71 489.54,-36.47"/>
</g>
</g>
</svg>
