<?xml version="1.0" encoding="UTF-8" standalone="no"?>
<!DOCTYPE svg PUBLIC "-//W3C//DTD SVG 1.1//EN"
 "http://www.w3.org/Graphics/SVG/1.1/DTD/svg11.dtd">
<!-- Generated by graphviz version 12.2.1 (20241206.2353)
 -->
<!-- Title: sensesp::RepeatStopping::RepeatStopping Pages: 1 -->
<svg width="675pt" height="88pt"
 viewBox="0.00 0.00 675.00 87.50" xmlns="http://www.w3.org/2000/svg" xmlns:xlink="http://www.w3.org/1999/xlink">
<g id="graph0" class="graph" transform="scale(1 1) rotate(0) translate(4 83.5)">
<title>sensesp::RepeatStopping::RepeatStopping</title>
<!-- Node1 -->
<g id="Node000001" class="node">
<title>Node1</title>
<g id="a_Node000001"><a xlink:title=" ">
<polygon fill="#999999" stroke="#666666" points="128.5,-54.5 0,-54.5 0,-24 128.5,-24 128.5,-54.5"/>
<text text-anchor="start" x="8" y="-41" font-family="Helvetica,sans-Serif" font-size="10.00">sensesp::RepeatStopping</text>
<text text-anchor="middle" x="64.25" y="-29.75" font-family="Helvetica,sans-Serif" font-size="10.00">::RepeatStopping</text>
</a>
</g>
</g>
<!-- Node2 -->
<g id="Node000002" class="node">
<title>Node2</title>
<g id="a_Node000002"><a xlink:href="namespacesensesp.html#a1c1105507d71491cf4e0505eaabb2e49" target="_top" xlink:title=" ">
<polygon fill="white" stroke="#666666" points="281.75,-71.88 175.75,-71.88 175.75,-52.62 281.75,-52.62 281.75,-71.88"/>
<text text-anchor="middle" x="228.75" y="-58.38" font-family="Helvetica,sans-Serif" font-size="10.00">sensesp::event_loop</text>
</a>
</g>
</g>
<!-- Node1&#45;&gt;Node2 -->
<g id="edge1_Node000001_Node000002" class="edge">
<title>Node1&#45;&gt;Node2</title>
<g id="a_edge1_Node000001_Node000002"><a xlink:title=" ">
<path fill="none" stroke="#63b8ff" d="M128.54,-48.21C140.29,-49.87 152.57,-51.61 164.33,-53.27"/>
<polygon fill="#63b8ff" stroke="#63b8ff" points="163.51,-56.69 173.9,-54.63 164.49,-49.76 163.51,-56.69"/>
</a>
</g>
</g>
<!-- Node5 -->
<g id="Node000005" class="node">
<title>Node5</title>
<g id="a_Node000005"><a xlink:href="classsensesp_1_1_repeat_stopping.html#a606febcbc3dae350f6b8b1141989b7a3" target="_top" xlink:title=" ">
<polygon fill="white" stroke="#666666" points="293,-33.5 164.5,-33.5 164.5,-3 293,-3 293,-33.5"/>
<text text-anchor="start" x="172.5" y="-20" font-family="Helvetica,sans-Serif" font-size="10.00">sensesp::RepeatStopping</text>
<text text-anchor="middle" x="228.75" y="-8.75" font-family="Helvetica,sans-Serif" font-size="10.00">::repeat_function</text>
</a>
</g>
</g>
<!-- Node1&#45;&gt;Node5 -->
<g id="edge4_Node000001_Node000005" class="edge">
<title>Node1&#45;&gt;Node5</title>
<g id="a_edge4_Node000001_Node000005"><a xlink:title=" ">
<path fill="none" stroke="#63b8ff" d="M128.54,-31.07C136.48,-30.05 144.65,-28.99 152.74,-27.94"/>
<polygon fill="#63b8ff" stroke="#63b8ff" points="153.13,-31.42 162.59,-26.67 152.23,-24.48 153.13,-31.42"/>
</a>
</g>
</g>
<!-- Node3 -->
<g id="Node000003" class="node">
<title>Node3</title>
<g id="a_Node000003"><a xlink:href="classsensesp_1_1_sens_e_s_p_base_app.html#a28c20eed17bfc460e6686a11c5b3b107" target="_top" xlink:title="Get the event loop object from the singleton SensESPBaseApp instance.">
<polygon fill="white" stroke="#666666" points="470.25,-79.5 329,-79.5 329,-49 470.25,-49 470.25,-79.5"/>
<text text-anchor="start" x="337" y="-66" font-family="Helvetica,sans-Serif" font-size="10.00">sensesp::SensESPBaseApp</text>
<text text-anchor="middle" x="399.62" y="-54.75" font-family="Helvetica,sans-Serif" font-size="10.00">::get_event_loop</text>
</a>
</g>
</g>
<!-- Node2&#45;&gt;Node3 -->
<g id="edge2_Node000002_Node000003" class="edge">
<title>Node2&#45;&gt;Node3</title>
<g id="a_edge2_Node000002_Node000003"><a xlink:title=" ">
<path fill="none" stroke="#63b8ff" d="M281.8,-62.87C293.03,-63 305.17,-63.14 317.23,-63.29"/>
<polygon fill="#63b8ff" stroke="#63b8ff" points="317.17,-66.79 327.22,-63.4 317.26,-59.79 317.17,-66.79"/>
</a>
</g>
</g>
<!-- Node4 -->
<g id="Node000004" class="node">
<title>Node4</title>
<g id="a_Node000004"><a xlink:href="classsensesp_1_1_sens_e_s_p_base_app.html#add2c67bb55d095ab9c64f44ab2e82612" target="_top" xlink:title="Get the singleton instance of the SensESPBaseApp.">
<polygon fill="white" stroke="#666666" points="667,-73.88 506.25,-73.88 506.25,-54.62 667,-54.62 667,-73.88"/>
<text text-anchor="middle" x="586.62" y="-60.38" font-family="Helvetica,sans-Serif" font-size="10.00">sensesp::SensESPBaseApp::get</text>
</a>
</g>
</g>
<!-- Node3&#45;&gt;Node4 -->
<g id="edge3_Node000003_Node000004" class="edge">
<title>Node3&#45;&gt;Node4</title>
<g id="a_edge3_Node000003_Node000004"><a xlink:title=" ">
<path fill="none" stroke="#63b8ff" d="M470.57,-64.25C478.42,-64.25 486.51,-64.25 494.59,-64.25"/>
<polygon fill="#63b8ff" stroke="#63b8ff" points="494.46,-67.75 504.46,-64.25 494.46,-60.75 494.46,-67.75"/>
</a>
</g>
</g>
<!-- Node6 -->
<g id="Node000006" class="node">
<title>Node6</title>
<g id="a_Node000006"><a xlink:href="classsensesp_1_1_observable.html#ab86d00fed8fb85b4c76cb9397667ece9" target="_top" xlink:title=" ">
<polygon fill="white" stroke="#666666" points="453.75,-30.5 345.5,-30.5 345.5,0 453.75,0 453.75,-30.5"/>
<text text-anchor="start" x="353.5" y="-17" font-family="Helvetica,sans-Serif" font-size="10.00">sensesp::Observable</text>
<text text-anchor="middle" x="399.62" y="-5.75" font-family="Helvetica,sans-Serif" font-size="10.00">::notify</text>
</a>
</g>
</g>
<!-- Node5&#45;&gt;Node6 -->
<g id="edge5_Node000005_Node000006" class="edge">
<title>Node5&#45;&gt;Node6</title>
<g id="a_edge5_Node000005_Node000006"><a xlink:title=" ">
<path fill="none" stroke="#63b8ff" d="M293.11,-17.12C306.36,-16.89 320.35,-16.64 333.65,-16.4"/>
<polygon fill="#63b8ff" stroke="#63b8ff" points="333.68,-19.9 343.62,-16.23 333.56,-12.91 333.68,-19.9"/>
</a>
</g>
</g>
</g>
</svg>
