<?xml version="1.0" encoding="UTF-8" standalone="no"?>
<!DOCTYPE svg PUBLIC "-//W3C//DTD SVG 1.1//EN"
 "http://www.w3.org/Graphics/SVG/1.1/DTD/svg11.dtd">
<!-- Generated by graphviz version 14.1.4 (20260321.0153)
 -->
<!-- Title: sensesp::SKWSClient::on_connected Pages: 1 -->
<svg width="438pt" height="210pt"
 viewBox="0.00 0.00 438.00 210.00" xmlns="http://www.w3.org/2000/svg" xmlns:xlink="http://www.w3.org/1999/xlink">

<svg id="main" version="1.1" xmlns="http://www.w3.org/2000/svg" xmlns:xlink="http://www.w3.org/1999/xlink" xml:space="preserve">

<style type="text/css"><![CDATA[
.node, .edge {opacity: 0.7;}
.node.selected, .edge.selected {opacity: 1;}
.edge:hover path { stroke: red; }
.edge:hover polygon { stroke: red; fill: red; }
]]></style>
<script type="application/ecmascript" xlink:href="svg.min.js"/>
<svg id="graph" class="graph">
<g id="graph0" class="graph" transform="scale(1 1) rotate(0) translate(4 205.5)">
<title>sensesp::SKWSClient::on_connected</title>
<!-- Node1 -->
<g id="Node000001" class="node">
<title>Node1</title>
<g id="a_Node000001"><a xlink:title="Called when the websocket connection is established.">
<polygon fill="#999999" stroke="#666666" points="114.25,-152.5 0,-152.5 0,-122 114.25,-122 114.25,-152.5"/>
<text xml:space="preserve" text-anchor="start" x="8" y="-139" font-family="Helvetica,sans-Serif" font-size="10.00">sensesp::SKWSClient</text>
<text xml:space="preserve" text-anchor="middle" x="57.12" y="-127.75" font-family="Helvetica,sans-Serif" font-size="10.00">::on_connected</text>
</a>
</g>
</g>
<!-- Node2 -->
<g id="Node000002" class="node">
<title>Node2</title>
<g id="a_Node000002"><a xlink:href="classsensesp_1_1_s_k_w_s_client.html#aea5ec8479e2349928a385201dde5f6ce" target="_top" xlink:title=" ">
<polygon fill="white" stroke="#666666" points="278.75,-201.5 150.25,-201.5 150.25,-171 278.75,-171 278.75,-201.5"/>
<text xml:space="preserve" text-anchor="start" x="158.25" y="-188" font-family="Helvetica,sans-Serif" font-size="10.00">sensesp::SKWSClient</text>
<text xml:space="preserve" text-anchor="middle" x="214.5" y="-176.75" font-family="Helvetica,sans-Serif" font-size="10.00">::reset_reconnect_interval</text>
</a>
</g>
</g>
<!-- Node1&#45;&gt;Node2 -->
<g id="edge1_Node000001_Node000002" class="edge">
<title>Node1&#45;&gt;Node2</title>
<g id="a_edge1_Node000001_Node000002"><a xlink:title=" ">
<path fill="none" stroke="#63b8ff" d="M107.71,-152.89C122.08,-157.42 137.92,-162.42 152.88,-167.13"/>
<polygon fill="#63b8ff" stroke="#63b8ff" points="151.55,-170.38 162.14,-170.05 153.65,-163.71 151.55,-170.38"/>
</a>
</g>
</g>
<!-- Node3 -->
<g id="Node000003" class="node">
<title>Node3</title>
<g id="a_Node000003"><a xlink:href="classsensesp_1_1_s_k_w_s_client.html#ac124cc1b358d613e7ad43b9545a97d26" target="_top" xlink:title=" ">
<polygon fill="white" stroke="#666666" points="272,-152.5 157,-152.5 157,-122 272,-122 272,-152.5"/>
<text xml:space="preserve" text-anchor="start" x="165" y="-139" font-family="Helvetica,sans-Serif" font-size="10.00">sensesp::SKWSClient</text>
<text xml:space="preserve" text-anchor="middle" x="214.5" y="-127.75" font-family="Helvetica,sans-Serif" font-size="10.00">::set_connection_state</text>
</a>
</g>
</g>
<!-- Node1&#45;&gt;Node3 -->
<g id="edge2_Node000001_Node000003" class="edge">
<title>Node1&#45;&gt;Node3</title>
<g id="a_edge2_Node000001_Node000003"><a xlink:title=" ">
<path fill="none" stroke="#63b8ff" d="M114.66,-137.25C124.62,-137.25 135.08,-137.25 145.32,-137.25"/>
<polygon fill="#63b8ff" stroke="#63b8ff" points="145.23,-140.75 155.23,-137.25 145.23,-133.75 145.23,-140.75"/>
</a>
</g>
</g>
<!-- Node4 -->
<g id="Node000004" class="node">
<title>Node4</title>
<g id="a_Node000004"><a xlink:href="classsensesp_1_1_s_k_w_s_client.html#aa11946c03cd6953741bdb8e2f574952e" target="_top" xlink:title="Subscribes the SK delta paths to the websocket.">
<polygon fill="white" stroke="#666666" points="271.62,-103.5 157.38,-103.5 157.38,-73 271.62,-73 271.62,-103.5"/>
<text xml:space="preserve" text-anchor="start" x="165.38" y="-90" font-family="Helvetica,sans-Serif" font-size="10.00">sensesp::SKWSClient</text>
<text xml:space="preserve" text-anchor="middle" x="214.5" y="-78.75" font-family="Helvetica,sans-Serif" font-size="10.00">::subscribe_listeners</text>
</a>
</g>
</g>
<!-- Node1&#45;&gt;Node4 -->
<g id="edge3_Node000001_Node000004" class="edge">
<title>Node1&#45;&gt;Node4</title>
<g id="a_edge3_Node000001_Node000004"><a xlink:title=" ">
<path fill="none" stroke="#63b8ff" d="M107.71,-121.61C122.08,-117.08 137.92,-112.08 152.88,-107.37"/>
<polygon fill="#63b8ff" stroke="#63b8ff" points="153.65,-110.79 162.14,-104.45 151.55,-104.12 153.65,-110.79"/>
</a>
</g>
</g>
<!-- Node5 -->
<g id="Node000005" class="node">
<title>Node5</title>
<g id="a_Node000005"><a xlink:href="classsensesp_1_1_s_k_w_s_client.html#a4b743aa1377f34235482a2bbc6400698" target="_top" xlink:title=" ">
<polygon fill="white" stroke="#666666" points="429.75,-177.5 314.75,-177.5 314.75,-147 429.75,-147 429.75,-177.5"/>
<text xml:space="preserve" text-anchor="start" x="322.75" y="-164" font-family="Helvetica,sans-Serif" font-size="10.00">sensesp::SKWSClient</text>
<text xml:space="preserve" text-anchor="middle" x="372.25" y="-152.75" font-family="Helvetica,sans-Serif" font-size="10.00">::get_connection_state</text>
</a>
</g>
</g>
<!-- Node4&#45;&gt;Node5 -->
<g id="edge4_Node000004_Node000005" class="edge">
<title>Node4&#45;&gt;Node5</title>
<g id="a_edge4_Node000004_Node000005"><a xlink:title=" ">
<path fill="none" stroke="#63b8ff" d="M258.92,-104C265.66,-106.85 272.47,-109.96 278.75,-113.25 295.79,-122.17 297.9,-127.99 314.75,-137.25 317.43,-138.72 320.22,-140.18 323.06,-141.6"/>
<polygon fill="#63b8ff" stroke="#63b8ff" points="321.54,-144.76 332.07,-145.94 324.57,-138.45 321.54,-144.76"/>
</a>
</g>
</g>
<!-- Node6 -->
<g id="Node000006" class="node">
<title>Node6</title>
<g id="a_Node000006"><a xlink:href="classsensesp_1_1_s_k_listener.html#aa5875c60b11cb6b405038b16ef148740" target="_top" xlink:title=" ">
<polygon fill="white" stroke="#666666" points="425.62,-128.5 318.88,-128.5 318.88,-98 425.62,-98 425.62,-128.5"/>
<text xml:space="preserve" text-anchor="start" x="326.88" y="-115" font-family="Helvetica,sans-Serif" font-size="10.00">sensesp::SKListener</text>
<text xml:space="preserve" text-anchor="middle" x="372.25" y="-103.75" font-family="Helvetica,sans-Serif" font-size="10.00">::get_listeners</text>
</a>
</g>
</g>
<!-- Node4&#45;&gt;Node6 -->
<g id="edge5_Node000004_Node000006" class="edge">
<title>Node4&#45;&gt;Node6</title>
<g id="a_edge5_Node000004_Node000006"><a xlink:title=" ">
<path fill="none" stroke="#63b8ff" d="M271.73,-97.28C283.28,-99.13 295.53,-101.1 307.33,-102.99"/>
<polygon fill="#63b8ff" stroke="#63b8ff" points="306.56,-106.41 316.99,-104.54 307.67,-99.5 306.56,-106.41"/>
</a>
</g>
</g>
<!-- Node7 -->
<g id="Node000007" class="node">
<title>Node7</title>
<g id="a_Node000007"><a xlink:href="classsensesp_1_1_s_k_listener.html#a16e7abf03f11f1734cb33388c0517cd8" target="_top" xlink:title=" ">
<polygon fill="white" stroke="#666666" points="425.62,-79.5 318.88,-79.5 318.88,-49 425.62,-49 425.62,-79.5"/>
<text xml:space="preserve" text-anchor="start" x="326.88" y="-66" font-family="Helvetica,sans-Serif" font-size="10.00">sensesp::SKListener</text>
<text xml:space="preserve" text-anchor="middle" x="372.25" y="-54.75" font-family="Helvetica,sans-Serif" font-size="10.00">::release_semaphore</text>
</a>
</g>
</g>
<!-- Node4&#45;&gt;Node7 -->
<g id="edge6_Node000004_Node000007" class="edge">
<title>Node4&#45;&gt;Node7</title>
<g id="a_edge6_Node000004_Node000007"><a xlink:title=" ">
<path fill="none" stroke="#63b8ff" d="M271.73,-79.59C283.28,-77.8 295.53,-75.92 307.33,-74.1"/>
<polygon fill="#63b8ff" stroke="#63b8ff" points="307.63,-77.59 316.98,-72.61 306.57,-70.68 307.63,-77.59"/>
</a>
</g>
</g>
<!-- Node8 -->
<g id="Node000008" class="node">
<title>Node8</title>
<g id="a_Node000008"><a xlink:href="classsensesp_1_1_s_k_listener.html#a07c3b13156e9156f03858b5003b1cde5" target="_top" xlink:title=" ">
<polygon fill="white" stroke="#666666" points="425.62,-30.5 318.88,-30.5 318.88,0 425.62,0 425.62,-30.5"/>
<text xml:space="preserve" text-anchor="start" x="326.88" y="-17" font-family="Helvetica,sans-Serif" font-size="10.00">sensesp::SKListener</text>
<text xml:space="preserve" text-anchor="middle" x="372.25" y="-5.75" font-family="Helvetica,sans-Serif" font-size="10.00">::take_semaphore</text>
</a>
</g>
</g>
<!-- Node4&#45;&gt;Node8 -->
<g id="edge7_Node000004_Node000008" class="edge">
<title>Node4&#45;&gt;Node8</title>
<g id="a_edge7_Node000004_Node000008"><a xlink:title=" ">
<path fill="none" stroke="#63b8ff" d="M247.11,-72.63C266.54,-63.1 292,-50.78 314.75,-40.25 318.06,-38.72 321.49,-37.15 324.94,-35.59"/>
<polygon fill="#63b8ff" stroke="#63b8ff" points="326.23,-38.85 333.92,-31.56 323.36,-32.46 326.23,-38.85"/>
</a>
</g>
</g>
</g>
</svg>
</svg>

<style type='text/css'>
<![CDATA[
[data-mouse-over-selected='false'] { opacity: 0.7; }
[data-mouse-over-selected='true']  { opacity: 1.0; }
]]>
</style>
<script type="application/ecmascript"><![CDATA[
document.addEventListener('DOMContentLoaded', (event) => {
  highlightEdges();
  highlightAdjacentNodes();
});
]]></script>
</svg>
