<?xml version="1.0" encoding="UTF-8" standalone="no"?>
<!DOCTYPE svg PUBLIC "-//W3C//DTD SVG 1.1//EN"
 "http://www.w3.org/Graphics/SVG/1.1/DTD/svg11.dtd">
<!-- Generated by graphviz version 14.1.4 (20260321.0153)
 -->
<!-- Title: sensesp::SKWSClient::test_token Pages: 1 -->
<!--zoomable 288 -->

<svg id="main" version="1.1" xmlns="http://www.w3.org/2000/svg" xmlns:xlink="http://www.w3.org/1999/xlink" xml:space="preserve" onload="init(evt)">

<style type="text/css"><![CDATA[
.node, .edge {opacity: 0.7;}
.node.selected, .edge.selected {opacity: 1;}
.edge:hover path { stroke: red; }
.edge:hover polygon { stroke: red; fill: red; }
]]></style>

<defs>
  <circle id="rim" cx="0" cy="0" r="7"/>
  <circle id="rim2" cx="0" cy="0" r="3.5"/>
  <g id="zoomPlus">
    <use xlink:href="#rim" fill="#404040"><set attributeName="fill" to="#808080" begin="zoomplus.mouseover" end="zoomplus.mouseout"/></use>
    <path d="M-4,0h8M0,-4v8" fill="none" stroke="white" stroke-width="1.5" pointer-events="none"/>
  </g>
  <g id="zoomMin">
    <use xlink:href="#rim" fill="#404040"><set attributeName="fill" to="#808080" begin="zoomminus.mouseover" end="zoomminus.mouseout"/></use>
    <path d="M-4,0h8" fill="none" stroke="white" stroke-width="1.5" pointer-events="none"/>
  </g>
  <g id="arrowUp" transform="translate(30 24)">
    <use xlink:href="#rim"/>
    <path pointer-events="none" fill="none" stroke="white" stroke-width="1.5" d="M0,-3.0v7 M-2.5,-0.5L0,-3.0L2.5,-0.5"/>
  </g>
  <g id="arrowRight" transform="rotate(90) translate(36 -43)">
    <use xlink:href="#rim"/>
    <path pointer-events="none" fill="none" stroke="white" stroke-width="1.5" d="M0,-3.0v7 M-2.5,-0.5L0,-3.0L2.5,-0.5"/>
  </g>
  <g id="arrowDown" transform="rotate(180) translate(-30 -48)">
    <use xlink:href="#rim"/>
    <path pointer-events="none" fill="none" stroke="white" stroke-width="1.5" d="M0,-3.0v7 M-2.5,-0.5L0,-3.0L2.5,-0.5"/>
  </g>
  <g id="arrowLeft" transform="rotate(270) translate(-36 17)">
    <use xlink:href="#rim"/>
    <path pointer-events="none" fill="none" stroke="white" stroke-width="1.5" d="M0,-3.0v7 M-2.5,-0.5L0,-3.0L2.5,-0.5"/>
  </g>
  <g id="resetDef">
    <use xlink:href="#rim2" fill="#404040"><set attributeName="fill" to="#808080" begin="reset.mouseover" end="reset.mouseout"/></use>
  </g>
</defs>
<script type="application/ecmascript">
var viewWidth = 925;
var viewHeight = 288;
var sectionId = 'dynsection-42';
</script>
<script type="application/ecmascript" xlink:href="svg.min.js"/>
<svg id="graph" class="graph">
<g id="viewport">
<title>sensesp::SKWSClient::test_token</title>
<!-- Node1 -->
<g id="Node000001" class="node">
<title>Node1</title>
<g id="a_Node000001"><a xlink:title=" ">
<polygon fill="#999999" stroke="#666666" points="114.25,-232.5 0,-232.5 0,-202 114.25,-202 114.25,-232.5"/>
<text xml:space="preserve" text-anchor="start" x="8" y="-219" font-family="Helvetica,sans-Serif" font-size="10.00">sensesp::SKWSClient</text>
<text xml:space="preserve" text-anchor="middle" x="57.12" y="-207.75" font-family="Helvetica,sans-Serif" font-size="10.00">::test_token</text>
</a>
</g>
</g>
<!-- Node2 -->
<g id="Node000002" class="node">
<title>Node2</title>
<g id="a_Node000002"><a xlink:href="classsensesp_1_1_s_k_w_s_client.html#a2ebcbbfce9e5d6148e69185da36c5040" target="_top" xlink:title=" ">
<polygon fill="white" stroke="#666666" points="435,-264.5 320.75,-264.5 320.75,-234 435,-234 435,-264.5"/>
<text xml:space="preserve" text-anchor="start" x="328.75" y="-251" font-family="Helvetica,sans-Serif" font-size="10.00">sensesp::SKWSClient</text>
<text xml:space="preserve" text-anchor="middle" x="377.88" y="-239.75" font-family="Helvetica,sans-Serif" font-size="10.00">::connect_ws</text>
</a>
</g>
</g>
<!-- Node1&#45;&gt;Node2 -->
<g id="edge1_Node000001_Node000002" class="edge">
<title>Node1&#45;&gt;Node2</title>
<g id="a_edge1_Node000001_Node000002"><a xlink:title=" ">
<path fill="none" stroke="#63b8ff" d="M114.74,-222.93C169.17,-228.4 251.46,-236.66 309.29,-242.47"/>
<polygon fill="#63b8ff" stroke="#63b8ff" points="308.71,-245.92 319.01,-243.44 309.41,-238.96 308.71,-245.92"/>
</a>
</g>
</g>
<!-- Node3 -->
<g id="Node000003" class="node">
<title>Node3</title>
<g id="a_Node000003"><a xlink:href="classsensesp_1_1_s_k_w_s_client.html#ac124cc1b358d613e7ad43b9545a97d26" target="_top" xlink:title=" ">
<polygon fill="white" stroke="#666666" points="626.12,-264.5 511.12,-264.5 511.12,-234 626.12,-234 626.12,-264.5"/>
<text xml:space="preserve" text-anchor="start" x="519.12" y="-251" font-family="Helvetica,sans-Serif" font-size="10.00">sensesp::SKWSClient</text>
<text xml:space="preserve" text-anchor="middle" x="568.62" y="-239.75" font-family="Helvetica,sans-Serif" font-size="10.00">::set_connection_state</text>
</a>
</g>
</g>
<!-- Node1&#45;&gt;Node3 -->
<g id="edge16_Node000001_Node000003" class="edge">
<title>Node1&#45;&gt;Node3</title>
<g id="a_edge16_Node000001_Node000003"><a xlink:title=" ">
<path fill="none" stroke="#63b8ff" d="M103.71,-232.9C118.45,-237.6 134.94,-242.51 150.25,-246.25 281.16,-278.24 318.2,-287.04 452.25,-273.25 467.73,-271.66 484.19,-268.89 499.68,-265.79"/>
<polygon fill="#63b8ff" stroke="#63b8ff" points="500.21,-269.26 509.29,-263.8 498.79,-262.41 500.21,-269.26"/>
</a>
</g>
</g>
<!-- Node4 -->
<g id="Node000004" class="node">
<title>Node4</title>
<g id="a_Node000004"><a xlink:href="classsensesp_1_1_file_system_saveable.html#a8fcd302f31b35502d061b769f9efee27" target="_top" xlink:title="Save the object to a persistent storage.">
<polygon fill="white" stroke="#666666" points="452.25,-91.5 303.5,-91.5 303.5,-61 452.25,-61 452.25,-91.5"/>
<text xml:space="preserve" text-anchor="start" x="311.5" y="-78" font-family="Helvetica,sans-Serif" font-size="10.00">sensesp::FileSystemSaveable</text>
<text xml:space="preserve" text-anchor="middle" x="377.88" y="-66.75" font-family="Helvetica,sans-Serif" font-size="10.00">::save</text>
</a>
</g>
</g>
<!-- Node1&#45;&gt;Node4 -->
<g id="edge3_Node000001_Node000004" class="edge">
<title>Node1&#45;&gt;Node4</title>
<g id="a_edge3_Node000001_Node000004"><a xlink:title=" ">
<path fill="none" stroke="#63b8ff" d="M77.25,-201.58C95.21,-187.44 123.3,-166.85 150.25,-153.25 199.77,-128.26 259.27,-108.39 304.87,-95.1"/>
<polygon fill="#63b8ff" stroke="#63b8ff" points="305.76,-98.49 314.4,-92.37 303.83,-91.76 305.76,-98.49"/>
</a>
</g>
</g>
<!-- Node9 -->
<g id="Node000009" class="node">
<title>Node9</title>
<g id="a_Node000009"><a xlink:href="classsensesp_1_1_s_k_w_s_client.html#a59a57e892f602b940b6c7c15ec49ca52" target="_top" xlink:title=" ">
<polygon fill="white" stroke="#666666" points="267.5,-192.5 150.25,-192.5 150.25,-162 267.5,-162 267.5,-192.5"/>
<text xml:space="preserve" text-anchor="start" x="158.25" y="-179" font-family="Helvetica,sans-Serif" font-size="10.00">sensesp::SKWSClient</text>
<text xml:space="preserve" text-anchor="middle" x="208.88" y="-167.75" font-family="Helvetica,sans-Serif" font-size="10.00">::send_access_request</text>
</a>
</g>
</g>
<!-- Node1&#45;&gt;Node9 -->
<g id="edge9_Node000001_Node000009" class="edge">
<title>Node1&#45;&gt;Node9</title>
<g id="a_edge9_Node000001_Node000009"><a xlink:title=" ">
<path fill="none" stroke="#63b8ff" d="M114.74,-202.13C122.71,-200 130.98,-197.79 139.14,-195.61"/>
<polygon fill="#63b8ff" stroke="#63b8ff" points="139.96,-199.01 148.72,-193.05 138.16,-192.25 139.96,-199.01"/>
</a>
</g>
</g>
<!-- Node2&#45;&gt;Node3 -->
<g id="edge2_Node000002_Node000003" class="edge">
<title>Node2&#45;&gt;Node3</title>
<g id="a_edge2_Node000002_Node000003"><a xlink:title=" ">
<path fill="none" stroke="#63b8ff" d="M435.25,-249.25C455.41,-249.25 478.36,-249.25 499.41,-249.25"/>
<polygon fill="#63b8ff" stroke="#63b8ff" points="499.37,-252.75 509.37,-249.25 499.37,-245.75 499.37,-252.75"/>
</a>
</g>
</g>
<!-- Node5 -->
<g id="Node000005" class="node">
<title>Node5</title>
<g id="a_Node000005"><a xlink:href="namespacesensesp.html#adad24461f43358c45017cf1cb816ca60" target="_top" xlink:title="A base64&#45;encoded SHA&#45;1 hash function.">
<polygon fill="white" stroke="#666666" points="799.25,-45.88 685,-45.88 685,-26.62 799.25,-26.62 799.25,-45.88"/>
<text xml:space="preserve" text-anchor="middle" x="742.12" y="-32.38" font-family="Helvetica,sans-Serif" font-size="10.00">sensesp::Base64Sha1</text>
</a>
</g>
</g>
<!-- Node4&#45;&gt;Node5 -->
<g id="edge4_Node000004_Node000005" class="edge">
<title>Node4&#45;&gt;Node5</title>
<g id="a_edge4_Node000004_Node000005"><a xlink:title=" ">
<path fill="none" stroke="#63b8ff" d="M452.62,-68.11C517.27,-60.97 610.5,-50.67 673.33,-43.74"/>
<polygon fill="#63b8ff" stroke="#63b8ff" points="673.63,-47.22 683.18,-42.65 672.86,-40.27 673.63,-47.22"/>
</a>
</g>
</g>
<!-- Node7 -->
<g id="Node000007" class="node">
<title>Node7</title>
<g id="a_Node000007"><a xlink:href="classsensesp_1_1_file_system_saveable.html#ad0233f7895b5c8915108399420c7cf0b" target="_top" xlink:title=" ">
<polygon fill="white" stroke="#666666" points="643,-30.5 494.25,-30.5 494.25,0 643,0 643,-30.5"/>
<text xml:space="preserve" text-anchor="start" x="502.25" y="-17" font-family="Helvetica,sans-Serif" font-size="10.00">sensesp::FileSystemSaveable</text>
<text xml:space="preserve" text-anchor="middle" x="568.62" y="-5.75" font-family="Helvetica,sans-Serif" font-size="10.00">::find_config_file</text>
</a>
</g>
</g>
<!-- Node4&#45;&gt;Node7 -->
<g id="edge6_Node000004_Node000007" class="edge">
<title>Node4&#45;&gt;Node7</title>
<g id="a_edge6_Node000004_Node000007"><a xlink:title=" ">
<path fill="none" stroke="#63b8ff" d="M427.48,-60.54C452.14,-52.57 482.3,-42.83 508.31,-34.42"/>
<polygon fill="#63b8ff" stroke="#63b8ff" points="509.3,-37.78 517.74,-31.37 507.15,-31.12 509.3,-37.78"/>
</a>
</g>
</g>
<!-- Node8 -->
<g id="Node000008" class="node">
<title>Node8</title>
<g id="a_Node000008"><a xlink:href="classsensesp_1_1_serializable.html#a8da15a9036f2333f1f3beb4207a06477" target="_top" xlink:title=" ">
<polygon fill="white" stroke="#666666" points="623.12,-116.5 514.12,-116.5 514.12,-86 623.12,-86 623.12,-116.5"/>
<text xml:space="preserve" text-anchor="start" x="522.12" y="-103" font-family="Helvetica,sans-Serif" font-size="10.00">sensesp::Serializable</text>
<text xml:space="preserve" text-anchor="middle" x="568.62" y="-91.75" font-family="Helvetica,sans-Serif" font-size="10.00">::to_json</text>
</a>
</g>
</g>
<!-- Node4&#45;&gt;Node8 -->
<g id="edge8_Node000004_Node000008" class="edge">
<title>Node4&#45;&gt;Node8</title>
<g id="a_edge8_Node000004_Node000008"><a xlink:title=" ">
<path fill="none" stroke="#63b8ff" d="M452.66,-86.02C469.21,-88.22 486.65,-90.52 502.8,-92.66"/>
<polygon fill="#63b8ff" stroke="#63b8ff" points="501.88,-96.07 512.25,-93.92 502.8,-89.13 501.88,-96.07"/>
</a>
</g>
</g>
<!-- Node6 -->
<g id="Node000006" class="node">
<title>Node6</title>
<g id="a_Node000006"><a xlink:href="namespacesensesp.html#a37dfeb5f75b7115464a9aa40473d69cf" target="_top" xlink:title="SHA&#45;1 hash function.">
<polygon fill="white" stroke="#666666" points="916.5,-45.88 835.25,-45.88 835.25,-26.62 916.5,-26.62 916.5,-45.88"/>
<text xml:space="preserve" text-anchor="middle" x="875.88" y="-32.38" font-family="Helvetica,sans-Serif" font-size="10.00">sensesp::Sha1</text>
</a>
</g>
</g>
<!-- Node5&#45;&gt;Node6 -->
<g id="edge5_Node000005_Node000006" class="edge">
<title>Node5&#45;&gt;Node6</title>
<g id="a_edge5_Node000005_Node000006"><a xlink:title=" ">
<path fill="none" stroke="#63b8ff" d="M799.38,-36.25C807.46,-36.25 815.74,-36.25 823.72,-36.25"/>
<polygon fill="#63b8ff" stroke="#63b8ff" points="823.62,-39.75 833.62,-36.25 823.62,-32.75 823.62,-39.75"/>
</a>
</g>
</g>
<!-- Node7&#45;&gt;Node5 -->
<g id="edge7_Node000007_Node000005" class="edge">
<title>Node7&#45;&gt;Node5</title>
<g id="a_edge7_Node000007_Node000005"><a xlink:title=" ">
<path fill="none" stroke="#63b8ff" d="M643.35,-24.28C653.27,-25.49 663.41,-26.73 673.22,-27.93"/>
<polygon fill="#63b8ff" stroke="#63b8ff" points="672.7,-31.4 683.05,-29.14 673.55,-24.45 672.7,-31.4"/>
</a>
</g>
</g>
<!-- Node9&#45;&gt;Node2 -->
<g id="edge10_Node000009_Node000002" class="edge">
<title>Node9&#45;&gt;Node2</title>
<g id="a_edge10_Node000009_Node000002"><a xlink:title=" ">
<path fill="none" stroke="#63b8ff" d="M242.61,-192.81C260.5,-201.18 283.1,-211.54 303.5,-220.25 310.53,-223.25 317.97,-226.32 325.32,-229.28"/>
<polygon fill="#63b8ff" stroke="#63b8ff" points="323.97,-232.51 334.56,-232.97 326.57,-226.01 323.97,-232.51"/>
</a>
</g>
</g>
<!-- Node9&#45;&gt;Node3 -->
<g id="edge15_Node000009_Node000003" class="edge">
<title>Node9&#45;&gt;Node3</title>
<g id="a_edge15_Node000009_Node000003"><a xlink:title=" ">
<path fill="none" stroke="#63b8ff" d="M267.69,-188.54C316.82,-198.17 389.19,-212.45 452.25,-225.25 467.58,-228.36 484.04,-231.76 499.59,-234.98"/>
<polygon fill="#63b8ff" stroke="#63b8ff" points="498.74,-238.38 509.24,-236.99 500.16,-231.53 498.74,-238.38"/>
</a>
</g>
</g>
<!-- Node9&#45;&gt;Node4 -->
<g id="edge14_Node000009_Node000004" class="edge">
<title>Node9&#45;&gt;Node4</title>
<g id="a_edge14_Node000009_Node000004"><a xlink:title=" ">
<path fill="none" stroke="#63b8ff" d="M225.5,-161.6C243.11,-144.71 273.27,-117.97 303.5,-101.25 306.52,-99.58 309.68,-97.99 312.91,-96.49"/>
<polygon fill="#63b8ff" stroke="#63b8ff" points="314.22,-99.73 322.02,-92.57 311.45,-93.3 314.22,-99.73"/>
</a>
</g>
</g>
<!-- Node10 -->
<g id="Node000010" class="node">
<title>Node10</title>
<g id="a_Node000010"><a xlink:href="namespacesensesp.html#a270290236513f91972b435ad45c4f70b" target="_top" xlink:title="Generate a random UUIDv4 string.">
<polygon fill="white" stroke="#666666" points="440.25,-177.88 315.5,-177.88 315.5,-158.62 440.25,-158.62 440.25,-177.88"/>
<text xml:space="preserve" text-anchor="middle" x="377.88" y="-164.38" font-family="Helvetica,sans-Serif" font-size="10.00">sensesp::generate_uuid4</text>
</a>
</g>
</g>
<!-- Node9&#45;&gt;Node10 -->
<g id="edge11_Node000009_Node000010" class="edge">
<title>Node9&#45;&gt;Node10</title>
<g id="a_edge11_Node000009_Node000010"><a xlink:title=" ">
<path fill="none" stroke="#63b8ff" d="M267.81,-174.13C279.38,-173.5 291.67,-172.84 303.67,-172.2"/>
<polygon fill="#63b8ff" stroke="#63b8ff" points="303.75,-175.7 313.54,-171.66 303.37,-168.71 303.75,-175.7"/>
</a>
</g>
</g>
<!-- Node11 -->
<g id="Node000011" class="node">
<title>Node11</title>
<g id="a_Node000011"><a xlink:href="classsensesp_1_1_sens_e_s_p_base_app.html#a21ba3dc3ef0056c32ad5a67e1ae5ff16" target="_top" xlink:title="Get the current hostname.">
<polygon fill="white" stroke="#666666" points="448.5,-140.5 307.25,-140.5 307.25,-110 448.5,-110 448.5,-140.5"/>
<text xml:space="preserve" text-anchor="start" x="315.25" y="-127" font-family="Helvetica,sans-Serif" font-size="10.00">sensesp::SensESPBaseApp</text>
<text xml:space="preserve" text-anchor="middle" x="377.88" y="-115.75" font-family="Helvetica,sans-Serif" font-size="10.00">::get_hostname</text>
</a>
</g>
</g>
<!-- Node9&#45;&gt;Node11 -->
<g id="edge12_Node000009_Node000011" class="edge">
<title>Node9&#45;&gt;Node11</title>
<g id="a_edge12_Node000009_Node000011"><a xlink:title=" ">
<path fill="none" stroke="#63b8ff" d="M260.43,-161.51C277.85,-156.09 297.54,-149.95 315.7,-144.3"/>
<polygon fill="#63b8ff" stroke="#63b8ff" points="316.54,-147.7 325.04,-141.39 314.45,-141.02 316.54,-147.7"/>
</a>
</g>
</g>
<!-- Node12 -->
<g id="Node000012" class="node">
<title>Node12</title>
<g id="a_Node000012"><a xlink:href="classsensesp_1_1_sens_e_s_p_base_app.html#add2c67bb55d095ab9c64f44ab2e82612" target="_top" xlink:title="Get the singleton instance of the SensESPBaseApp.">
<polygon fill="white" stroke="#666666" points="649,-153.88 488.25,-153.88 488.25,-134.62 649,-134.62 649,-153.88"/>
<text xml:space="preserve" text-anchor="middle" x="568.62" y="-140.38" font-family="Helvetica,sans-Serif" font-size="10.00">sensesp::SensESPBaseApp::get</text>
</a>
</g>
</g>
<!-- Node11&#45;&gt;Node12 -->
<g id="edge13_Node000011_Node000012" class="edge">
<title>Node11&#45;&gt;Node12</title>
<g id="a_edge13_Node000011_Node000012"><a xlink:title=" ">
<path fill="none" stroke="#63b8ff" d="M448.89,-132.3C457.92,-133.21 467.26,-134.15 476.56,-135.08"/>
<polygon fill="#63b8ff" stroke="#63b8ff" points="476.05,-138.55 486.35,-136.07 476.76,-131.59 476.05,-138.55"/>
</a>
</g>
</g>
</g>
</svg>

<g id="navigator" transform="translate(0 0)" fill="#404254">
  <rect fill="#f2f5e9" fill-opacity="0.5" stroke="#606060" stroke-width=".5" x="0" y="0" width="60" height="60"/>
  <use id="zoomplus" xlink:href="#zoomPlus" x="17" y="9" onmousedown="handleZoom(evt,'in')"/>
  <use id="zoomminus" xlink:href="#zoomMin" x="42" y="9" onmousedown="handleZoom(evt,'out')"/>
  <use id="reset" xlink:href="#resetDef" x="30" y="36" onmousedown="handleReset()"/>
   <use id="arrowup" xlink:href="#arrowUp" x="0" y="0" onmousedown="handlePan(0,-1)"/>
  <use id="arrowright" xlink:href="#arrowRight" x="0" y="0" onmousedown="handlePan(1,0)"/>
  <use id="arrowdown" xlink:href="#arrowDown" x="0" y="0" onmousedown="handlePan(0,1)"/>
  <use id="arrowleft" xlink:href="#arrowLeft" x="0" y="0" onmousedown="handlePan(-1,0)"/>
</g>
<svg viewBox="0 0 15 15" width="100%" height="30px" preserveAspectRatio="xMaxYMin meet">
 <g id="arrow_out" transform="scale(0.3 0.3)">
  <a xlink:href="classsensesp_1_1_s_k_w_s_client_ab063bdb9564b0c6c564bd1d5573a9631_cgraph_org.svg" target="_base">
   <rect id="button" ry="5" rx="5" y="6" x="6" height="38" width="38"
        fill="#f2f5e9" fill-opacity="0.5" stroke="#606060" stroke-width="1.0"/>
   <path id="arrow"
     d="M 11.500037,31.436501 C 11.940474,20.09759 22.043105,11.32322 32.158766,21.979434 L 37.068811,17.246167 C 37.068811,17.246167 37.088388,32 37.088388,32 L 22.160133,31.978069 C 22.160133,31.978069 26.997745,27.140456 26.997745,27.140456 C 18.528582,18.264221 13.291696,25.230495 11.500037,31.436501 z"
     style="fill:#404040;"/>
  </a>
 </g>
</svg>

<style type='text/css'>
<![CDATA[
[data-mouse-over-selected='false'] { opacity: 0.7; }
[data-mouse-over-selected='true']  { opacity: 1.0; }
]]>
</style>
<script type="application/ecmascript"><![CDATA[
document.addEventListener('DOMContentLoaded', (event) => {
  highlightEdges();
  highlightAdjacentNodes();
});
]]></script>
</svg>
