<?xml version="1.0" encoding="UTF-8" standalone="no"?>
<!DOCTYPE svg PUBLIC "-//W3C//DTD SVG 1.1//EN"
 "http://www.w3.org/Graphics/SVG/1.1/DTD/svg11.dtd">
<!-- Generated by graphviz version 2.44.1 (20200629.0846)
 -->
<!-- Title: BME280Value Pages: 1 -->
<svg width="344pt" height="286pt"
 viewBox="0.00 0.00 343.50 286.00" xmlns="http://www.w3.org/2000/svg" xmlns:xlink="http://www.w3.org/1999/xlink">
<g id="graph0" class="graph" transform="scale(1 1) rotate(0) translate(4 282)">
<title>BME280Value</title>
<polygon fill="white" stroke="transparent" points="-4,4 -4,-282 339.5,-282 339.5,4 -4,4"/>
<!-- Node8 -->
<g id="node1" class="node">
<title>Node8</title>
<g id="a_node1"><a xlink:title=" ">
<polygon fill="#bfbfbf" stroke="black" points="145,-0.5 145,-19.5 223,-19.5 223,-0.5 145,-0.5"/>
<text text-anchor="middle" x="184" y="-7.5" font-family="Helvetica,sans-Serif" font-size="10.00">BME280Value</text>
</a>
</g>
</g>
<!-- Node9 -->
<g id="node2" class="node">
<title>Node9</title>
<g id="a_node2"><a xlink:href="class_numeric_sensor.html" target="_top" xlink:title=" ">
<polygon fill="white" stroke="black" points="99,-67.5 99,-86.5 183,-86.5 183,-67.5 99,-67.5"/>
<text text-anchor="middle" x="141" y="-74.5" font-family="Helvetica,sans-Serif" font-size="10.00">NumericSensor</text>
</a>
</g>
</g>
<!-- Node9&#45;&gt;Node8 -->
<g id="edge1" class="edge">
<title>Node9&#45;&gt;Node8</title>
<path fill="none" stroke="midnightblue" d="M152.55,-58.53C160.88,-45.95 171.76,-29.51 178.29,-19.63"/>
<polygon fill="midnightblue" stroke="midnightblue" points="149.4,-56.96 146.8,-67.23 155.24,-60.82 149.4,-56.96"/>
</g>
<!-- Node10 -->
<g id="node3" class="node">
<title>Node10</title>
<g id="a_node3"><a xlink:href="class_sensor.html" target="_top" xlink:title=" ">
<polygon fill="white" stroke="black" points="204.5,-124.5 204.5,-143.5 251.5,-143.5 251.5,-124.5 204.5,-124.5"/>
<text text-anchor="middle" x="228" y="-131.5" font-family="Helvetica,sans-Serif" font-size="10.00">Sensor</text>
</a>
</g>
</g>
<!-- Node10&#45;&gt;Node9 -->
<g id="edge2" class="edge">
<title>Node10&#45;&gt;Node9</title>
<path fill="none" stroke="midnightblue" d="M205.58,-118.82C189.41,-108.61 168.13,-95.15 154.5,-86.53"/>
<polygon fill="midnightblue" stroke="midnightblue" points="204.08,-122.02 214.41,-124.41 207.82,-116.1 204.08,-122.02"/>
</g>
<!-- Node17 -->
<g id="node10" class="node">
<title>Node17</title>
<g id="a_node10"><a xlink:href="class_b_m_e280.html" target="_top" xlink:title=" ">
<polygon fill="white" stroke="black" points="201,-67.5 201,-86.5 255,-86.5 255,-67.5 201,-67.5"/>
<text text-anchor="middle" x="228" y="-74.5" font-family="Helvetica,sans-Serif" font-size="10.00">BME280</text>
</a>
</g>
</g>
<!-- Node10&#45;&gt;Node17 -->
<g id="edge12" class="edge">
<title>Node10&#45;&gt;Node17</title>
<path fill="none" stroke="midnightblue" d="M228,-114.12C228,-104.82 228,-94.06 228,-86.71"/>
<polygon fill="midnightblue" stroke="midnightblue" points="224.5,-114.41 228,-124.41 231.5,-114.41 224.5,-114.41"/>
</g>
<!-- Node11 -->
<g id="node4" class="node">
<title>Node11</title>
<g id="a_node4"><a xlink:href="class_observable.html" target="_top" xlink:title=" ">
<polygon fill="white" stroke="black" points="99,-258.5 99,-277.5 165,-277.5 165,-258.5 99,-258.5"/>
<text text-anchor="middle" x="132" y="-265.5" font-family="Helvetica,sans-Serif" font-size="10.00">Observable</text>
</a>
</g>
</g>
<!-- Node11&#45;&gt;Node10 -->
<g id="edge3" class="edge">
<title>Node11&#45;&gt;Node10</title>
<path fill="none" stroke="midnightblue" d="M164.07,-253.99C182.57,-244.78 204.57,-230.56 217,-211 230.44,-189.84 230.07,-158.77 228.93,-143.76"/>
<polygon fill="midnightblue" stroke="midnightblue" points="162.34,-250.93 154.78,-258.35 165.32,-257.27 162.34,-250.93"/>
</g>
<!-- Node14 -->
<g id="node7" class="node">
<title>Node14</title>
<g id="a_node7"><a xlink:href="class_value_producer.html" target="_top" xlink:title=" ">
<polygon fill="white" stroke="black" points="86,-124.5 86,-143.5 178,-143.5 178,-124.5 86,-124.5"/>
<text text-anchor="middle" x="132" y="-131.5" font-family="Helvetica,sans-Serif" font-size="10.00">NumericProducer</text>
</a>
</g>
</g>
<!-- Node11&#45;&gt;Node14 -->
<g id="edge7" class="edge">
<title>Node11&#45;&gt;Node14</title>
<path fill="none" stroke="midnightblue" d="M132,-248.28C132,-219.25 132,-164.54 132,-143.52"/>
<polygon fill="midnightblue" stroke="midnightblue" points="128.5,-248.34 132,-258.34 135.5,-248.34 128.5,-248.34"/>
</g>
<!-- Node15 -->
<g id="node8" class="node">
<title>Node15</title>
<g id="a_node8"><a xlink:href="class_value_producer.html" target="_top" xlink:title=" ">
<polygon fill="white" stroke="black" points="0,-191.5 0,-210.5 104,-210.5 104,-191.5 0,-191.5"/>
<text text-anchor="middle" x="52" y="-198.5" font-family="Helvetica,sans-Serif" font-size="10.00">ValueProducer&lt; T &gt;</text>
</a>
</g>
</g>
<!-- Node11&#45;&gt;Node15 -->
<g id="edge9" class="edge">
<title>Node11&#45;&gt;Node15</title>
<path fill="none" stroke="midnightblue" d="M114.26,-251.71C106.04,-244.7 96.09,-236.34 87,-229 79.24,-222.73 70.33,-215.87 63.45,-210.63"/>
<polygon fill="midnightblue" stroke="midnightblue" points="112.22,-254.57 122.1,-258.42 116.78,-249.26 112.22,-254.57"/>
</g>
<!-- Node12 -->
<g id="node5" class="node">
<title>Node12</title>
<g id="a_node5"><a xlink:href="class_configurable.html" target="_top" xlink:title=" ">
<polygon fill="white" stroke="black" points="264.5,-191.5 264.5,-210.5 335.5,-210.5 335.5,-191.5 264.5,-191.5"/>
<text text-anchor="middle" x="300" y="-198.5" font-family="Helvetica,sans-Serif" font-size="10.00">Configurable</text>
</a>
</g>
</g>
<!-- Node12&#45;&gt;Node10 -->
<g id="edge4" class="edge">
<title>Node12&#45;&gt;Node10</title>
<path fill="none" stroke="midnightblue" d="M282.67,-184.36C268.52,-171.58 249.04,-153.99 237.56,-143.63"/>
<polygon fill="midnightblue" stroke="midnightblue" points="280.52,-187.13 290.29,-191.23 285.21,-181.93 280.52,-187.13"/>
</g>
<!-- Node13 -->
<g id="node6" class="node">
<title>Node13</title>
<g id="a_node6"><a xlink:href="class_enable.html" target="_top" xlink:title=" ">
<polygon fill="white" stroke="black" points="160.5,-191.5 160.5,-210.5 207.5,-210.5 207.5,-191.5 160.5,-191.5"/>
<text text-anchor="middle" x="184" y="-198.5" font-family="Helvetica,sans-Serif" font-size="10.00">Enable</text>
</a>
</g>
</g>
<!-- Node13&#45;&gt;Node10 -->
<g id="edge5" class="edge">
<title>Node13&#45;&gt;Node10</title>
<path fill="none" stroke="midnightblue" d="M195.57,-182.9C204.12,-170.27 215.41,-153.6 222.16,-143.63"/>
<polygon fill="midnightblue" stroke="midnightblue" points="192.64,-180.99 189.93,-191.23 198.44,-184.91 192.64,-180.99"/>
</g>
<!-- Node14&#45;&gt;Node9 -->
<g id="edge6" class="edge">
<title>Node14&#45;&gt;Node9</title>
<path fill="none" stroke="midnightblue" d="M135.04,-114.42C136.57,-105.05 138.36,-94.14 139.57,-86.71"/>
<polygon fill="midnightblue" stroke="midnightblue" points="131.57,-113.97 133.41,-124.41 138.48,-115.1 131.57,-113.97"/>
</g>
<!-- Node15&#45;&gt;Node14 -->
<g id="edge8" class="edge">
<title>Node15&#45;&gt;Node14</title>
<path fill="none" stroke="orange" stroke-dasharray="5,2" d="M61.42,-182.39C65.78,-175.41 71.46,-167.71 78,-162 86.93,-154.22 98.49,-148.04 108.63,-143.57"/>
<polygon fill="orange" stroke="orange" points="58.3,-180.8 56.33,-191.21 64.36,-184.3 58.3,-180.8"/>
<text text-anchor="middle" x="98" y="-165" font-family="Helvetica,sans-Serif" font-size="10.00"> &lt; float &gt;</text>
</g>
<!-- Node16 -->
<g id="node9" class="node">
<title>Node16</title>
<g id="a_node9"><a xlink:title=" ">
<polygon fill="white" stroke="#bfbfbf" points="37.5,-258.5 37.5,-277.5 66.5,-277.5 66.5,-258.5 37.5,-258.5"/>
<text text-anchor="middle" x="52" y="-265.5" font-family="Helvetica,sans-Serif" font-size="10.00">T</text>
</a>
</g>
</g>
<!-- Node16&#45;&gt;Node15 -->
<g id="edge10" class="edge">
<title>Node16&#45;&gt;Node15</title>
<path fill="none" stroke="#9a32cd" stroke-dasharray="5,2" d="M52,-248.04C52,-235.67 52,-220.12 52,-210.63"/>
<polygon fill="#9a32cd" stroke="#9a32cd" points="48.5,-248.23 52,-258.23 55.5,-248.23 48.5,-248.23"/>
<text text-anchor="middle" x="67.5" y="-232" font-family="Helvetica,sans-Serif" font-size="10.00"> output</text>
</g>
<!-- Node17&#45;&gt;Node8 -->
<g id="edge11" class="edge">
<title>Node17&#45;&gt;Node8</title>
<path fill="none" stroke="#9a32cd" stroke-dasharray="5,2" d="M216.43,-58.9C207.88,-46.27 196.59,-29.6 189.84,-19.63"/>
<polygon fill="#9a32cd" stroke="#9a32cd" points="213.56,-60.91 222.07,-67.23 219.36,-56.99 213.56,-60.91"/>
<text text-anchor="middle" x="227" y="-41" font-family="Helvetica,sans-Serif" font-size="10.00"> bme280</text>
</g>
</g>
</svg>
