<?xml version="1.0" encoding="UTF-8" standalone="no"?>
<!DOCTYPE svg PUBLIC "-//W3C//DTD SVG 1.1//EN"
 "http://www.w3.org/Graphics/SVG/1.1/DTD/svg11.dtd">
<!-- Generated by graphviz version 9.0.0 (20230911.1827)
 -->
<!-- Title: sensesp::SKOutputTime Pages: 1 -->
<svg width="1453pt" height="221pt"
 viewBox="0.00 0.00 1453.25 221.23" xmlns="http://www.w3.org/2000/svg" xmlns:xlink="http://www.w3.org/1999/xlink">
<g id="graph0" class="graph" transform="scale(1 1) rotate(0) translate(4 217.23)">
<title>sensesp::SKOutputTime</title>
<!-- Node1 -->
<g id="Node000001" class="node">
<title>Node1</title>
<g id="a_Node000001"><a xlink:title=" ">
<polygon fill="#999999" stroke="#666666" points="1445.25,-56.23 1322,-56.23 1322,-36.98 1445.25,-36.98 1445.25,-56.23"/>
<text text-anchor="middle" x="1383.62" y="-42.73" font-family="Helvetica,sans-Serif" font-size="10.00">sensesp::SKOutputTime</text>
</a>
</g>
</g>
<!-- Node2 -->
<g id="Node000002" class="node">
<title>Node2</title>
<g id="a_Node000002"><a xlink:href="classsensesp_1_1_time_string.html" target="_top" xlink:title="Consumes a time_t time object and produces a human readable string of the time for UTC in ISO 8601 fo...">
<polygon fill="white" stroke="#666666" points="1285,-100.23 1179,-100.23 1179,-80.98 1285,-80.98 1285,-100.23"/>
<text text-anchor="middle" x="1232" y="-86.73" font-family="Helvetica,sans-Serif" font-size="10.00">sensesp::TimeString</text>
</a>
</g>
</g>
<!-- Node2&#45;&gt;Node1 -->
<g id="edge1_Node000001_Node000002" class="edge">
<title>Node2&#45;&gt;Node1</title>
<g id="a_edge1_Node000001_Node000002"><a xlink:title=" ">
<path fill="none" stroke="#63b8ff" d="M1278.3,-77.29C1300.76,-70.68 1327.44,-62.84 1348.2,-56.73"/>
<polygon fill="#63b8ff" stroke="#63b8ff" points="1277.39,-73.91 1268.78,-80.09 1279.36,-80.62 1277.39,-73.91"/>
</a>
</g>
</g>
<!-- Node3 -->
<g id="Node000003" class="node">
<title>Node3</title>
<g id="a_Node000003"><a xlink:href="classsensesp_1_1_transform.html" target="_top" xlink:title=" ">
<polygon fill="white" stroke="#666666" points="1142,-133.86 1039,-133.86 1039,-103.36 1142,-103.36 1142,-133.86"/>
<text text-anchor="start" x="1047" y="-120.36" font-family="Helvetica,sans-Serif" font-size="10.00">sensesp::Transform</text>
<text text-anchor="middle" x="1090.5" y="-109.11" font-family="Helvetica,sans-Serif" font-size="10.00">&lt; time_t, String &gt;</text>
</a>
</g>
</g>
<!-- Node3&#45;&gt;Node2 -->
<g id="edge2_Node000002_Node000003" class="edge">
<title>Node3&#45;&gt;Node2</title>
<g id="a_edge2_Node000002_Node000003"><a xlink:title=" ">
<path fill="none" stroke="#63b8ff" d="M1153.38,-106.19C1162.61,-104.34 1172.03,-102.45 1180.98,-100.65"/>
<polygon fill="#63b8ff" stroke="#63b8ff" points="1152.86,-102.72 1143.74,-108.12 1154.23,-109.59 1152.86,-102.72"/>
</a>
</g>
</g>
<!-- Node4 -->
<g id="Node000004" class="node">
<title>Node4</title>
<g id="a_Node000004"><a xlink:href="classsensesp_1_1_transform_base.html" target="_top" xlink:title="The base class for all transforms. A transforms takes a value in, transforms it in some way,...">
<polygon fill="white" stroke="#666666" points="576.12,-87.23 450.62,-87.23 450.62,-67.98 576.12,-67.98 576.12,-87.23"/>
<text text-anchor="middle" x="513.38" y="-73.73" font-family="Helvetica,sans-Serif" font-size="10.00">sensesp::TransformBase</text>
</a>
</g>
</g>
<!-- Node4&#45;&gt;Node3 -->
<g id="edge3_Node000003_Node000004" class="edge">
<title>Node4&#45;&gt;Node3</title>
<g id="a_edge3_Node000003_Node000004"><a xlink:title=" ">
<path fill="none" stroke="#63b8ff" d="M588,-78.29C670.04,-79.6 806.52,-83.42 923.5,-94.61 962.34,-98.32 1006,-104.73 1038.8,-109.98"/>
<polygon fill="#63b8ff" stroke="#63b8ff" points="588.12,-74.79 578.06,-78.14 588.01,-81.79 588.12,-74.79"/>
</a>
</g>
</g>
<!-- Node10 -->
<g id="Node000010" class="node">
<title>Node10</title>
<g id="a_Node000010"><a xlink:href="classsensesp_1_1_transform.html" target="_top" xlink:title="The main Transform class. A transform is identified primarily by the type of value that is produces (...">
<polygon fill="white" stroke="#666666" points="899.12,-133.86 796.12,-133.86 796.12,-103.36 899.12,-103.36 899.12,-133.86"/>
<text text-anchor="start" x="804.12" y="-120.36" font-family="Helvetica,sans-Serif" font-size="10.00">sensesp::Transform</text>
<text text-anchor="middle" x="847.62" y="-109.11" font-family="Helvetica,sans-Serif" font-size="10.00">&lt; C, P &gt;</text>
</a>
</g>
</g>
<!-- Node4&#45;&gt;Node10 -->
<g id="edge10_Node000010_Node000004" class="edge">
<title>Node4&#45;&gt;Node10</title>
<g id="a_edge10_Node000010_Node000004"><a xlink:title=" ">
<path fill="none" stroke="#63b8ff" d="M587.55,-86.64C650.64,-94.42 740.12,-105.47 795.7,-112.33"/>
<polygon fill="#63b8ff" stroke="#63b8ff" points="588.33,-83.21 577.98,-85.46 587.48,-90.16 588.33,-83.21"/>
</a>
</g>
</g>
<!-- Node5 -->
<g id="Node000005" class="node">
<title>Node5</title>
<g id="a_Node000005"><a xlink:href="classsensesp_1_1_configurable.html" target="_top" xlink:title="An object that is capable of having configuration data that can be set remotely using a RESTful API,...">
<polygon fill="white" stroke="#666666" points="277.88,-92.23 164.38,-92.23 164.38,-72.98 277.88,-72.98 277.88,-92.23"/>
<text text-anchor="middle" x="221.12" y="-78.73" font-family="Helvetica,sans-Serif" font-size="10.00">sensesp::Configurable</text>
</a>
</g>
</g>
<!-- Node5&#45;&gt;Node4 -->
<g id="edge4_Node000004_Node000005" class="edge">
<title>Node5&#45;&gt;Node4</title>
<g id="a_edge4_Node000004_Node000005"><a xlink:title=" ">
<path fill="none" stroke="#63b8ff" d="M289.43,-81.45C337.97,-80.61 403,-79.49 450.3,-78.68"/>
<polygon fill="#63b8ff" stroke="#63b8ff" points="289.54,-77.95 279.6,-81.62 289.66,-84.95 289.54,-77.95"/>
</a>
</g>
</g>
<!-- Node6 -->
<g id="Node000006" class="node">
<title>Node6</title>
<g id="a_Node000006"><a xlink:href="classsensesp_1_1_startable.html" target="_top" xlink:title="Automatic calling of the start() method at startup.">
<polygon fill="white" stroke="#666666" points="270,-55.23 172.25,-55.23 172.25,-35.98 270,-35.98 270,-55.23"/>
<text text-anchor="middle" x="221.12" y="-41.73" font-family="Helvetica,sans-Serif" font-size="10.00">sensesp::Startable</text>
</a>
</g>
</g>
<!-- Node6&#45;&gt;Node4 -->
<g id="edge5_Node000004_Node000006" class="edge">
<title>Node6&#45;&gt;Node4</title>
<g id="a_edge5_Node000004_Node000006"><a xlink:title=" ">
<path fill="none" stroke="#63b8ff" d="M281.8,-52.19C330.98,-57.61 400.51,-65.28 450.33,-70.77"/>
<polygon fill="#63b8ff" stroke="#63b8ff" points="282.21,-48.71 271.88,-51.1 281.44,-55.67 282.21,-48.71"/>
</a>
</g>
</g>
<!-- Node7 -->
<g id="Node000007" class="node">
<title>Node7</title>
<g id="a_Node000007"><a xlink:href="classsensesp_1_1_value_consumer.html" target="_top" xlink:title="A base class for piece of code (like a transform) that accepts data for input. ValueConsumers can acc...">
<polygon fill="white" stroke="#666666" points="923.5,-209.23 771.75,-209.23 771.75,-189.98 923.5,-189.98 923.5,-209.23"/>
<text text-anchor="middle" x="847.62" y="-195.73" font-family="Helvetica,sans-Serif" font-size="10.00">sensesp::ValueConsumer&lt; T &gt;</text>
</a>
</g>
</g>
<!-- Node7&#45;&gt;Node3 -->
<g id="edge6_Node000003_Node000007" class="edge">
<title>Node7&#45;&gt;Node3</title>
<g id="a_edge6_Node000003_Node000007"><a xlink:title=" ">
<path fill="none" stroke="#63b8ff" d="M934.78,-197.01C963.17,-193.73 994.29,-187.42 1021,-175.61 1042.65,-166.04 1062.89,-147.55 1075.67,-134.22"/>
<polygon fill="#63b8ff" stroke="#63b8ff" points="934.73,-193.5 925.14,-198.01 935.45,-200.46 934.73,-193.5"/>
</a>
</g>
</g>
<!-- Node8 -->
<g id="Node000008" class="node">
<title>Node8</title>
<g id="a_Node000008"><a xlink:href="classsensesp_1_1_value_producer.html" target="_top" xlink:title="A base class for any sensor or piece of code that outputs a value for consumption elsewhere.">
<polygon fill="white" stroke="#666666" points="753.75,-213.23 608,-213.23 608,-193.98 753.75,-193.98 753.75,-213.23"/>
<text text-anchor="middle" x="680.88" y="-199.73" font-family="Helvetica,sans-Serif" font-size="10.00">sensesp::ValueProducer&lt; T &gt;</text>
</a>
</g>
</g>
<!-- Node8&#45;&gt;Node3 -->
<g id="edge7_Node000003_Node000008" class="edge">
<title>Node8&#45;&gt;Node3</title>
<g id="a_edge7_Node000003_Node000008"><a xlink:title=" ">
<path fill="none" stroke="#63b8ff" d="M729.91,-190.71C743.4,-187.25 758.11,-183.64 771.75,-180.61 881.8,-156.18 910.54,-156.11 1021,-133.61 1026.73,-132.44 1032.71,-131.19 1038.66,-129.91"/>
<polygon fill="#63b8ff" stroke="#63b8ff" points="729.18,-187.28 720.38,-193.18 730.94,-194.06 729.18,-187.28"/>
</a>
</g>
</g>
<!-- Node9 -->
<g id="Node000009" class="node">
<title>Node9</title>
<g id="a_Node000009"><a xlink:href="classsensesp_1_1_observable.html" target="_top" xlink:title="A base class which allow observers to attach callbacks to themselves. The callbacks will be called wh...">
<polygon fill="white" stroke="#666666" points="108.25,-191.23 0,-191.23 0,-171.98 108.25,-171.98 108.25,-191.23"/>
<text text-anchor="middle" x="54.12" y="-177.73" font-family="Helvetica,sans-Serif" font-size="10.00">sensesp::Observable</text>
</a>
</g>
</g>
<!-- Node9&#45;&gt;Node8 -->
<g id="edge8_Node000008_Node000009" class="edge">
<title>Node9&#45;&gt;Node8</title>
<g id="a_edge8_Node000008_Node000009"><a xlink:title=" ">
<path fill="none" stroke="#63b8ff" d="M111.16,-193.61C116.24,-194.41 121.33,-195.09 126.25,-195.61 298.09,-213.62 501.56,-210.28 607.52,-206.7"/>
<polygon fill="#63b8ff" stroke="#63b8ff" points="112.03,-190.21 101.58,-191.98 110.85,-197.11 112.03,-190.21"/>
</a>
</g>
</g>
<!-- Node13 -->
<g id="Node000013" class="node">
<title>Node13</title>
<g id="a_Node000013"><a xlink:href="classsensesp_1_1_value_producer.html" target="_top" xlink:title=" ">
<polygon fill="white" stroke="#666666" points="586.62,-166.23 440.12,-166.23 440.12,-146.98 586.62,-146.98 586.62,-166.23"/>
<text text-anchor="middle" x="513.38" y="-152.73" font-family="Helvetica,sans-Serif" font-size="10.00">sensesp::ValueProducer&lt; P &gt;</text>
</a>
</g>
</g>
<!-- Node9&#45;&gt;Node13 -->
<g id="edge14_Node000013_Node000009" class="edge">
<title>Node9&#45;&gt;Node13</title>
<g id="a_edge14_Node000013_Node000009"><a xlink:title=" ">
<path fill="none" stroke="#63b8ff" d="M119.82,-182.49C192.67,-182.87 314.47,-181.64 418.75,-171.61 431.04,-170.43 444.16,-168.65 456.58,-166.73"/>
<polygon fill="#63b8ff" stroke="#63b8ff" points="120.1,-178.99 110.08,-182.43 120.05,-185.99 120.1,-178.99"/>
</a>
</g>
</g>
<!-- Node14 -->
<g id="Node000014" class="node">
<title>Node14</title>
<g id="a_Node000014"><a xlink:href="classsensesp_1_1_value_producer.html" target="_top" xlink:title="A base class for any sensor or piece of code that outputs a value for consumption elsewhere.">
<polygon fill="white" stroke="#666666" points="294,-166.23 148.25,-166.23 148.25,-146.98 294,-146.98 294,-166.23"/>
<text text-anchor="middle" x="221.12" y="-152.73" font-family="Helvetica,sans-Serif" font-size="10.00">sensesp::ValueProducer&lt; T &gt;</text>
</a>
</g>
</g>
<!-- Node9&#45;&gt;Node14 -->
<g id="edge16_Node000014_Node000009" class="edge">
<title>Node9&#45;&gt;Node14</title>
<g id="a_edge16_Node000014_Node000009"><a xlink:title=" ">
<path fill="none" stroke="#63b8ff" d="M119.99,-171.78C131.01,-170.11 142.47,-168.37 153.54,-166.7"/>
<polygon fill="#63b8ff" stroke="#63b8ff" points="119.56,-168.31 110.19,-173.27 120.6,-175.23 119.56,-168.31"/>
</a>
</g>
</g>
<!-- Node15 -->
<g id="Node000015" class="node">
<title>Node15</title>
<g id="a_Node000015"><a xlink:href="classsensesp_1_1_s_k_emitter.html" target="_top" xlink:title="A class that produces Signal K output to be forwarded to the Signal K server (if the system is connec...">
<polygon fill="white" stroke="#666666" points="418.75,-24.23 315,-24.23 315,-4.98 418.75,-4.98 418.75,-24.23"/>
<text text-anchor="middle" x="366.88" y="-10.73" font-family="Helvetica,sans-Serif" font-size="10.00">sensesp::SKEmitter</text>
</a>
</g>
</g>
<!-- Node9&#45;&gt;Node15 -->
<g id="edge18_Node000015_Node000009" class="edge">
<title>Node9&#45;&gt;Node15</title>
<g id="a_edge18_Node000015_Node000009"><a xlink:title=" ">
<path fill="none" stroke="#63b8ff" d="M60.28,-160.99C70.17,-126.32 95.38,-57.14 145.25,-26.61 196.62,4.83 267.96,2.22 315.46,-4.5"/>
<polygon fill="#63b8ff" stroke="#63b8ff" points="57.01,-159.67 57.8,-170.24 63.77,-161.49 57.01,-159.67"/>
</a>
</g>
</g>
<!-- Node10&#45;&gt;Node3 -->
<g id="edge9_Node000003_Node000010" class="edge">
<title>Node10&#45;&gt;Node3</title>
<g id="a_edge9_Node000003_Node000010"><a xlink:title=" ">
<path fill="none" stroke="orange" stroke-dasharray="5,2" d="M910.84,-118.61C950.59,-118.61 1001.49,-118.61 1038.78,-118.61"/>
<polygon fill="orange" stroke="orange" points="910.93,-115.11 900.93,-118.61 910.93,-122.11 910.93,-115.11"/>
</a>
</g>
<text text-anchor="middle" x="981.25" y="-120.36" font-family="Helvetica,sans-Serif" font-size="10.00" fill="grey"> &lt; time_t, String &gt;</text>
</g>
<!-- Node11 -->
<g id="Node000011" class="node">
<title>Node11</title>
<g id="a_Node000011"><a xlink:href="classsensesp_1_1_value_consumer.html" target="_top" xlink:title=" ">
<polygon fill="white" stroke="#666666" points="590,-129.23 436.75,-129.23 436.75,-109.98 590,-109.98 590,-129.23"/>
<text text-anchor="middle" x="513.38" y="-115.73" font-family="Helvetica,sans-Serif" font-size="10.00">sensesp::ValueConsumer&lt; C &gt;</text>
</a>
</g>
</g>
<!-- Node11&#45;&gt;Node10 -->
<g id="edge11_Node000010_Node000011" class="edge">
<title>Node11&#45;&gt;Node10</title>
<g id="a_edge11_Node000010_Node000011"><a xlink:title=" ">
<path fill="none" stroke="#63b8ff" d="M601.5,-119.35C663.38,-119.16 744.32,-118.92 795.91,-118.76"/>
<polygon fill="#63b8ff" stroke="#63b8ff" points="601.69,-115.85 591.7,-119.38 601.71,-122.85 601.69,-115.85"/>
</a>
</g>
</g>
<!-- Node12 -->
<g id="Node000012" class="node">
<title>Node12</title>
<g id="a_Node000012"><a xlink:href="classsensesp_1_1_value_consumer.html" target="_top" xlink:title="A base class for piece of code (like a transform) that accepts data for input. ValueConsumers can acc...">
<polygon fill="white" stroke="#666666" points="297,-129.23 145.25,-129.23 145.25,-109.98 297,-109.98 297,-129.23"/>
<text text-anchor="middle" x="221.12" y="-115.73" font-family="Helvetica,sans-Serif" font-size="10.00">sensesp::ValueConsumer&lt; T &gt;</text>
</a>
</g>
</g>
<!-- Node12&#45;&gt;Node11 -->
<g id="edge12_Node000011_Node000012" class="edge">
<title>Node12&#45;&gt;Node11</title>
<g id="a_edge12_Node000011_Node000012"><a xlink:title=" ">
<path fill="none" stroke="orange" stroke-dasharray="5,2" d="M308.75,-119.61C349.3,-119.61 397.17,-119.61 436.3,-119.61"/>
<polygon fill="orange" stroke="orange" points="308.76,-116.11 298.76,-119.61 308.76,-123.11 308.76,-116.11"/>
</a>
</g>
<text text-anchor="middle" x="366.88" y="-121.36" font-family="Helvetica,sans-Serif" font-size="10.00" fill="grey"> &lt; C &gt;</text>
</g>
<!-- Node13&#45;&gt;Node10 -->
<g id="edge13_Node000010_Node000013" class="edge">
<title>Node13&#45;&gt;Node10</title>
<g id="a_edge13_Node000010_Node000013"><a xlink:title=" ">
<path fill="none" stroke="#63b8ff" d="M598.47,-149.86C644.43,-145.84 702.31,-140.23 753.75,-133.61 767.52,-131.84 782.38,-129.59 796.1,-127.38"/>
<polygon fill="#63b8ff" stroke="#63b8ff" points="598.22,-146.37 588.56,-150.72 598.83,-153.34 598.22,-146.37"/>
</a>
</g>
</g>
<!-- Node14&#45;&gt;Node13 -->
<g id="edge15_Node000013_Node000014" class="edge">
<title>Node14&#45;&gt;Node13</title>
<g id="a_edge15_Node000013_Node000014"><a xlink:title=" ">
<path fill="none" stroke="orange" stroke-dasharray="5,2" d="M305.68,-156.61C348.1,-156.61 399.13,-156.61 439.87,-156.61"/>
<polygon fill="orange" stroke="orange" points="305.76,-153.11 295.76,-156.61 305.76,-160.11 305.76,-153.11"/>
</a>
</g>
<text text-anchor="middle" x="366.88" y="-158.36" font-family="Helvetica,sans-Serif" font-size="10.00" fill="grey"> &lt; P &gt;</text>
</g>
<!-- Node15&#45;&gt;Node1 -->
<g id="edge17_Node000001_Node000015" class="edge">
<title>Node15&#45;&gt;Node1</title>
<g id="a_edge17_Node000001_Node000015"><a xlink:title=" ">
<path fill="none" stroke="#63b8ff" d="M430.52,-17.8C493.51,-20.72 593.4,-24.61 679.88,-24.61 679.88,-24.61 679.88,-24.61 1233,-24.61 1268.45,-24.61 1308.12,-30.73 1337.7,-36.51"/>
<polygon fill="#63b8ff" stroke="#63b8ff" points="430.87,-14.31 420.72,-17.33 430.54,-21.3 430.87,-14.31"/>
</a>
</g>
</g>
</g>
</svg>
