<?xml version="1.0" encoding="UTF-8" standalone="no"?>
<!DOCTYPE svg PUBLIC "-//W3C//DTD SVG 1.1//EN"
 "http://www.w3.org/Graphics/SVG/1.1/DTD/svg11.dtd">
<!-- Generated by graphviz version 2.47.0 (20210316.0004)
 -->
<!-- Title: Linear Pages: 1 -->
<svg width="215pt" height="339pt"
 viewBox="0.00 0.00 215.00 339.00" xmlns="http://www.w3.org/2000/svg" xmlns:xlink="http://www.w3.org/1999/xlink">
<g id="graph0" class="graph" transform="scale(1 1) rotate(0) translate(4 335)">
<title>Linear</title>
<polygon fill="white" stroke="transparent" points="-4,4 -4,-335 211,-335 211,4 -4,4"/>
<!-- Node1 -->
<g id="node1" class="node">
<title>Node1</title>
<g id="a_node1"><a xlink:title="Performs a linear transform on the input value: output = (input * multiplier) + offset.">
<polygon fill="#bfbfbf" stroke="black" points="55.5,-0.5 55.5,-19.5 98.5,-19.5 98.5,-0.5 55.5,-0.5"/>
<text text-anchor="middle" x="77" y="-7.5" font-family="Helvetica,sans-Serif" font-size="10.00">Linear</text>
</a>
</g>
</g>
<!-- Node2 -->
<g id="node2" class="node">
<title>Node2</title>
<g id="a_node2"><a xlink:href="class_lambda_transform.html" target="_top" xlink:title=" ">
<polygon fill="white" stroke="black" points="14,-57.5 14,-87.5 140,-87.5 140,-57.5 14,-57.5"/>
<text text-anchor="start" x="22" y="-75.5" font-family="Helvetica,sans-Serif" font-size="10.00">LambdaTransform&lt; float,</text>
<text text-anchor="middle" x="77" y="-64.5" font-family="Helvetica,sans-Serif" font-size="10.00"> float, float, float &gt;</text>
</a>
</g>
</g>
<!-- Node2&#45;&gt;Node1 -->
<g id="edge1" class="edge">
<title>Node2&#45;&gt;Node1</title>
<path fill="none" stroke="midnightblue" d="M77,-47.35C77,-37.51 77,-26.78 77,-19.54"/>
<polygon fill="midnightblue" stroke="midnightblue" points="73.5,-47.47 77,-57.47 80.5,-47.47 73.5,-47.47"/>
</g>
<!-- Node3 -->
<g id="node3" class="node">
<title>Node3</title>
<g id="a_node3"><a xlink:href="class_transform.html" target="_top" xlink:title=" ">
<polygon fill="white" stroke="black" points="0,-206.5 0,-225.5 122,-225.5 122,-206.5 0,-206.5"/>
<text text-anchor="middle" x="61" y="-213.5" font-family="Helvetica,sans-Serif" font-size="10.00">Transform&lt; float, float &gt;</text>
</a>
</g>
</g>
<!-- Node3&#45;&gt;Node2 -->
<g id="edge2" class="edge">
<title>Node3&#45;&gt;Node2</title>
<path fill="none" stroke="midnightblue" d="M63.13,-196.17C66.38,-167.42 72.51,-113.21 75.41,-87.59"/>
<polygon fill="midnightblue" stroke="midnightblue" points="59.65,-195.82 62,-206.15 66.6,-196.61 59.65,-195.82"/>
</g>
<!-- Node4 -->
<g id="node4" class="node">
<title>Node4</title>
<g id="a_node4"><a xlink:href="class_transform.html" target="_top" xlink:title="The main Transform class. A transform is identified primarily by the type of value that is produces (...">
<polygon fill="white" stroke="black" points="55.5,-311.5 55.5,-330.5 154.5,-330.5 154.5,-311.5 55.5,-311.5"/>
<text text-anchor="middle" x="105" y="-318.5" font-family="Helvetica,sans-Serif" font-size="10.00">Transform&lt; C, P &gt;</text>
</a>
</g>
</g>
<!-- Node4&#45;&gt;Node3 -->
<g id="edge3" class="edge">
<title>Node4&#45;&gt;Node3</title>
<path fill="none" stroke="orange" stroke-dasharray="5,2" d="M70.75,-306.23C65.65,-302.69 61.08,-298.32 58,-293 45.56,-271.51 53.01,-240.6 57.85,-225.69"/>
<polygon fill="orange" stroke="orange" points="69.26,-309.42 79.66,-311.46 72.8,-303.38 69.26,-309.42"/>
<text text-anchor="middle" x="90.5" y="-285" font-family="Helvetica,sans-Serif" font-size="10.00"> &lt; float, float &gt;</text>
</g>
<!-- Node6 -->
<g id="node6" class="node">
<title>Node6</title>
<g id="a_node6"><a xlink:href="class_transform.html" target="_top" xlink:title=" ">
<polygon fill="white" stroke="black" points="90,-244.5 90,-263.5 206,-263.5 206,-244.5 90,-244.5"/>
<text text-anchor="middle" x="148" y="-251.5" font-family="Helvetica,sans-Serif" font-size="10.00">Transform&lt; IN, OUT &gt;</text>
</a>
</g>
</g>
<!-- Node4&#45;&gt;Node6 -->
<g id="edge6" class="edge">
<title>Node4&#45;&gt;Node6</title>
<path fill="none" stroke="orange" stroke-dasharray="5,2" d="M119.21,-303.51C121.91,-300.11 124.63,-296.51 127,-293 133.5,-283.38 139.78,-271.58 143.75,-263.71"/>
<polygon fill="orange" stroke="orange" points="116.43,-301.38 112.75,-311.31 121.82,-305.84 116.43,-301.38"/>
<text text-anchor="middle" x="162.5" y="-285" font-family="Helvetica,sans-Serif" font-size="10.00"> &lt; IN, OUT &gt;</text>
</g>
<!-- Node5 -->
<g id="node5" class="node">
<title>Node5</title>
<g id="a_node5"><a xlink:href="class_lambda_transform.html" target="_top" xlink:title="Construct a new transform based on a single function.">
<polygon fill="white" stroke="black" points="89,-146.5 89,-187.5 207,-187.5 207,-146.5 89,-146.5"/>
<text text-anchor="start" x="97" y="-175.5" font-family="Helvetica,sans-Serif" font-size="10.00">LambdaTransform&lt; IN,</text>
<text text-anchor="start" x="97" y="-164.5" font-family="Helvetica,sans-Serif" font-size="10.00"> OUT, P1, P2, P3, P4,</text>
<text text-anchor="middle" x="148" y="-153.5" font-family="Helvetica,sans-Serif" font-size="10.00"> P5, P6 &gt;</text>
</a>
</g>
</g>
<!-- Node5&#45;&gt;Node2 -->
<g id="edge4" class="edge">
<title>Node5&#45;&gt;Node2</title>
<path fill="none" stroke="orange" stroke-dasharray="5,2" d="M126.57,-138.08C113.8,-121.44 98.13,-101.03 87.87,-87.66"/>
<polygon fill="orange" stroke="orange" points="124.08,-140.58 132.94,-146.38 129.63,-136.32 124.08,-140.58"/>
<text text-anchor="start" x="116" y="-120" font-family="Helvetica,sans-Serif" font-size="10.00"> &lt; float, float, float,</text>
<text text-anchor="middle" x="158" y="-109" font-family="Helvetica,sans-Serif" font-size="10.00"> float &gt;</text>
</g>
<!-- Node6&#45;&gt;Node5 -->
<g id="edge5" class="edge">
<title>Node6&#45;&gt;Node5</title>
<path fill="none" stroke="midnightblue" d="M148,-234C148,-220.24 148,-201.68 148,-187.75"/>
<polygon fill="midnightblue" stroke="midnightblue" points="144.5,-234.22 148,-244.22 151.5,-234.22 144.5,-234.22"/>
</g>
</g>
</svg>
