<?xml version="1.0" encoding="UTF-8" standalone="no"?>
<!DOCTYPE svg PUBLIC "-//W3C//DTD SVG 1.1//EN"
 "http://www.w3.org/Graphics/SVG/1.1/DTD/svg11.dtd">
<!-- Generated by graphviz version 14.1.1 (20251213.1925)
 -->
<!-- Title: sensesp::AnalogVoltage::set Pages: 1 -->
<svg width="451pt" height="39pt"
 viewBox="0.00 0.00 451.00 39.00" xmlns="http://www.w3.org/2000/svg" xmlns:xlink="http://www.w3.org/1999/xlink">
<g id="graph0" class="graph" transform="scale(1 1) rotate(0) translate(4 34.5)">
<title>sensesp::AnalogVoltage::set</title>
<!-- Node1 -->
<g id="Node000001" class="node">
<title>Node1</title>
<g id="a_Node000001"><a xlink:title=" ">
<polygon fill="#999999" stroke="#666666" points="141.25,-24.88 0,-24.88 0,-5.63 141.25,-5.63 141.25,-24.88"/>
<text xml:space="preserve" text-anchor="middle" x="70.62" y="-11.38" font-family="Helvetica,sans-Serif" font-size="10.00">sensesp::AnalogVoltage::set</text>
</a>
</g>
</g>
<!-- Node2 -->
<g id="Node000002" class="node">
<title>Node2</title>
<g id="a_Node000002"><a xlink:href="classsensesp_1_1_value_producer.html#a4f5f0259d0d3cd9a0ed17d657cac04e2" target="_top" xlink:title=" ">
<polygon fill="white" stroke="#666666" points="299,-30.5 177.25,-30.5 177.25,0 299,0 299,-30.5"/>
<text xml:space="preserve" text-anchor="start" x="185.25" y="-17" font-family="Helvetica,sans-Serif" font-size="10.00">sensesp::ValueProducer</text>
<text xml:space="preserve" text-anchor="middle" x="238.12" y="-5.75" font-family="Helvetica,sans-Serif" font-size="10.00">&lt; float &gt;::emit</text>
</a>
</g>
</g>
<!-- Node1&#45;&gt;Node2 -->
<g id="edge1_Node000001_Node000002" class="edge">
<title>Node1&#45;&gt;Node2</title>
<g id="a_edge1_Node000001_Node000002"><a xlink:title=" ">
<path fill="none" stroke="#63b8ff" d="M141.33,-15.25C149.38,-15.25 157.59,-15.25 165.66,-15.25"/>
<polygon fill="#63b8ff" stroke="#63b8ff" points="165.43,-18.75 175.43,-15.25 165.43,-11.75 165.43,-18.75"/>
</a>
</g>
</g>
<!-- Node3 -->
<g id="Node000003" class="node">
<title>Node3</title>
<g id="a_Node000003"><a xlink:href="classsensesp_1_1_observable.html#ab86d00fed8fb85b4c76cb9397667ece9" target="_top" xlink:title=" ">
<polygon fill="white" stroke="#666666" points="443.25,-30.5 335,-30.5 335,0 443.25,0 443.25,-30.5"/>
<text xml:space="preserve" text-anchor="start" x="343" y="-17" font-family="Helvetica,sans-Serif" font-size="10.00">sensesp::Observable</text>
<text xml:space="preserve" text-anchor="middle" x="389.12" y="-5.75" font-family="Helvetica,sans-Serif" font-size="10.00">::notify</text>
</a>
</g>
</g>
<!-- Node2&#45;&gt;Node3 -->
<g id="edge2_Node000002_Node000003" class="edge">
<title>Node2&#45;&gt;Node3</title>
<g id="a_edge2_Node000002_Node000003"><a xlink:title=" ">
<path fill="none" stroke="#63b8ff" d="M299.3,-15.25C307.31,-15.25 315.56,-15.25 323.64,-15.25"/>
<polygon fill="#63b8ff" stroke="#63b8ff" points="323.41,-18.75 333.41,-15.25 323.41,-11.75 323.41,-18.75"/>
</a>
</g>
</g>
</g>
</svg>
