<?xml version="1.0" encoding="UTF-8" standalone="no"?>
<!DOCTYPE svg PUBLIC "-//W3C//DTD SVG 1.1//EN"
 "http://www.w3.org/Graphics/SVG/1.1/DTD/svg11.dtd">
<!-- Generated by graphviz version 14.1.1 (20251213.1925)
 -->
<!-- Title: src/sensesp/transforms/click_type.cpp Pages: 1 -->
<!--zoomable 492 -->

<svg id="main" version="1.1" xmlns="http://www.w3.org/2000/svg" xmlns:xlink="http://www.w3.org/1999/xlink" xml:space="preserve" onload="init(evt)">

<style type="text/css"><![CDATA[
.node, .edge {opacity: 0.7;}
.node.selected, .edge.selected {opacity: 1;}
.edge:hover path { stroke: red; }
.edge:hover polygon { stroke: red; fill: red; }
]]></style>

<defs>
  <circle id="rim" cx="0" cy="0" r="7"/>
  <circle id="rim2" cx="0" cy="0" r="3.5"/>
  <g id="zoomPlus">
    <use xlink:href="#rim" fill="#404040"><set attributeName="fill" to="#808080" begin="zoomplus.mouseover" end="zoomplus.mouseout"/></use>
    <path d="M-4,0h8M0,-4v8" fill="none" stroke="white" stroke-width="1.5" pointer-events="none"/>
  </g>
  <g id="zoomMin">
    <use xlink:href="#rim" fill="#404040"><set attributeName="fill" to="#808080" begin="zoomminus.mouseover" end="zoomminus.mouseout"/></use>
    <path d="M-4,0h8" fill="none" stroke="white" stroke-width="1.5" pointer-events="none"/>
  </g>
  <g id="arrowUp" transform="translate(30 24)">
    <use xlink:href="#rim"/>
    <path pointer-events="none" fill="none" stroke="white" stroke-width="1.5" d="M0,-3.0v7 M-2.5,-0.5L0,-3.0L2.5,-0.5"/>
  </g>
  <g id="arrowRight" transform="rotate(90) translate(36 -43)">
    <use xlink:href="#rim"/>
    <path pointer-events="none" fill="none" stroke="white" stroke-width="1.5" d="M0,-3.0v7 M-2.5,-0.5L0,-3.0L2.5,-0.5"/>
  </g>
  <g id="arrowDown" transform="rotate(180) translate(-30 -48)">
    <use xlink:href="#rim"/>
    <path pointer-events="none" fill="none" stroke="white" stroke-width="1.5" d="M0,-3.0v7 M-2.5,-0.5L0,-3.0L2.5,-0.5"/>
  </g>
  <g id="arrowLeft" transform="rotate(270) translate(-36 17)">
    <use xlink:href="#rim"/>
    <path pointer-events="none" fill="none" stroke="white" stroke-width="1.5" d="M0,-3.0v7 M-2.5,-0.5L0,-3.0L2.5,-0.5"/>
  </g>
  <g id="resetDef">
    <use xlink:href="#rim2" fill="#404040"><set attributeName="fill" to="#808080" begin="reset.mouseover" end="reset.mouseout"/></use>
  </g>
</defs>
<script type="application/ecmascript">
var viewWidth = 1156;
var viewHeight = 492;
var sectionId = 'dynsection-0';
</script>
<script type="application/ecmascript" xlink:href="svg.min.js"/>
<svg id="graph" class="graph">
<g id="viewport">
<title>src/sensesp/transforms/click_type.cpp</title>
<!-- Node1 -->
<g id="Node000001" class="node">
<title>Node1</title>
<g id="a_Node000001"><a xlink:title=" ">
<polygon fill="#999999" stroke="#666666" points="403.38,-483.75 284.62,-483.75 284.62,-453.25 403.38,-453.25 403.38,-483.75"/>
<text xml:space="preserve" text-anchor="start" x="292.62" y="-470.25" font-family="Helvetica,sans-Serif" font-size="10.00">src/sensesp/transforms</text>
<text xml:space="preserve" text-anchor="middle" x="344" y="-459" font-family="Helvetica,sans-Serif" font-size="10.00">/click_type.cpp</text>
</a>
</g>
</g>
<!-- Node2 -->
<g id="Node000002" class="node">
<title>Node2</title>
<g id="a_Node000002"><a xlink:href="click__type_8h.html" target="_top" xlink:title=" ">
<polygon fill="white" stroke="#666666" points="378.25,-362 309.75,-362 309.75,-342.75 378.25,-342.75 378.25,-362"/>
<text xml:space="preserve" text-anchor="middle" x="344" y="-348.5" font-family="Helvetica,sans-Serif" font-size="10.00">click_type.h</text>
</a>
</g>
</g>
<!-- Node1&#45;&gt;Node2 -->
<g id="edge1_Node000001_Node000002" class="edge">
<title>Node1&#45;&gt;Node2</title>
<g id="a_edge1_Node000001_Node000002"><a xlink:title=" ">
<path fill="none" stroke="#63b8ff" d="M344,-453.05C344,-433 344,-396.65 344,-373.82"/>
<polygon fill="#63b8ff" stroke="#63b8ff" points="347.5,-373.96 344,-363.96 340.5,-373.96 347.5,-373.96"/>
</a>
</g>
</g>
<!-- Node13 -->
<g id="Node000013" class="node">
<title>Node13</title>
<g id="a_Node000013"><a xlink:title=" ">
<polygon fill="#e0e0e0" stroke="#999999" points="100.62,-80.12 31.38,-80.12 31.38,-60.88 100.62,-60.88 100.62,-80.12"/>
<text xml:space="preserve" text-anchor="middle" x="66" y="-66.62" font-family="Helvetica,sans-Serif" font-size="10.00">ReactESP.h</text>
</a>
</g>
</g>
<!-- Node1&#45;&gt;Node13 -->
<g id="edge42_Node000001_Node000013" class="edge">
<title>Node1&#45;&gt;Node13</title>
<g id="a_edge42_Node000001_Node000013"><a xlink:title=" ">
<path fill="none" stroke="#63b8ff" d="M284.47,-460.2C186.02,-446.44 0,-412.6 0,-353.38 0,-353.38 0,-353.38 0,-185.62 0,-146.95 28.76,-109.6 48.31,-88.68"/>
<polygon fill="#63b8ff" stroke="#63b8ff" points="50.73,-91.21 55.21,-81.61 45.72,-86.33 50.73,-91.21"/>
</a>
</g>
</g>
<!-- Node26 -->
<g id="Node000026" class="node">
<title>Node26</title>
<g id="a_Node000026"><a xlink:href="sensesp__base__app_8h.html" target="_top" xlink:title=" ">
<polygon fill="white" stroke="#666666" points="487.12,-417.25 378.88,-417.25 378.88,-398 487.12,-398 487.12,-417.25"/>
<text xml:space="preserve" text-anchor="middle" x="433" y="-403.75" font-family="Helvetica,sans-Serif" font-size="10.00">sensesp_base_app.h</text>
</a>
</g>
</g>
<!-- Node1&#45;&gt;Node26 -->
<g id="edge43_Node000001_Node000026" class="edge">
<title>Node1&#45;&gt;Node26</title>
<g id="a_edge43_Node000001_Node000026"><a xlink:title=" ">
<path fill="none" stroke="#63b8ff" d="M366,-452.95C379.29,-444.15 396.21,-432.96 409.73,-424.02"/>
<polygon fill="#63b8ff" stroke="#63b8ff" points="411.61,-426.97 418.02,-418.54 407.75,-421.13 411.61,-426.97"/>
</a>
</g>
</g>
<!-- Node3 -->
<g id="Node000003" class="node">
<title>Node3</title>
<g id="a_Node000003"><a xlink:title=" ">
<polygon fill="#e0e0e0" stroke="#999999" points="293.25,-306.75 212.75,-306.75 212.75,-287.5 293.25,-287.5 293.25,-306.75"/>
<text xml:space="preserve" text-anchor="middle" x="253" y="-293.25" font-family="Helvetica,sans-Serif" font-size="10.00">elapsedMillis.h</text>
</a>
</g>
</g>
<!-- Node2&#45;&gt;Node3 -->
<g id="edge2_Node000002_Node000003" class="edge">
<title>Node2&#45;&gt;Node3</title>
<g id="a_edge2_Node000002_Node000003"><a xlink:title=" ">
<path fill="none" stroke="#63b8ff" d="M328.56,-342.34C314.84,-334.31 294.5,-322.41 278.38,-312.98"/>
<polygon fill="#63b8ff" stroke="#63b8ff" points="280.22,-310 269.82,-307.97 276.68,-316.04 280.22,-310"/>
</a>
</g>
</g>
<!-- Node4 -->
<g id="Node000004" class="node">
<title>Node4</title>
<g id="a_Node000004"><a xlink:href="config__item_8h.html" target="_top" xlink:title=" ">
<polygon fill="white" stroke="#666666" points="729.38,-306.75 604.62,-306.75 604.62,-287.5 729.38,-287.5 729.38,-306.75"/>
<text xml:space="preserve" text-anchor="middle" x="667" y="-293.25" font-family="Helvetica,sans-Serif" font-size="10.00">sensesp/ui/config_item.h</text>
</a>
</g>
</g>
<!-- Node2&#45;&gt;Node4 -->
<g id="edge3_Node000002_Node000004" class="edge">
<title>Node2&#45;&gt;Node4</title>
<g id="a_edge3_Node000002_Node000004"><a xlink:title=" ">
<path fill="none" stroke="#63b8ff" d="M378.64,-344.93C382.8,-344.18 386.99,-343.44 391,-342.75 461.14,-330.64 541.49,-317.76 597.34,-308.97"/>
<polygon fill="#63b8ff" stroke="#63b8ff" points="597.69,-312.46 607.03,-307.45 596.6,-305.54 597.69,-312.46"/>
</a>
</g>
</g>
<!-- Node18 -->
<g id="Node000018" class="node">
<title>Node18</title>
<g id="a_Node000018"><a xlink:href="transform_8h.html" target="_top" xlink:title=" ">
<polygon fill="white" stroke="#666666" points="376.75,-306.75 311.25,-306.75 311.25,-287.5 376.75,-287.5 376.75,-306.75"/>
<text xml:space="preserve" text-anchor="middle" x="344" y="-293.25" font-family="Helvetica,sans-Serif" font-size="10.00">transform.h</text>
</a>
</g>
</g>
<!-- Node2&#45;&gt;Node18 -->
<g id="edge24_Node000002_Node000018" class="edge">
<title>Node2&#45;&gt;Node18</title>
<g id="a_edge24_Node000002_Node000018"><a xlink:title=" ">
<path fill="none" stroke="#63b8ff" d="M344,-342.58C344,-336.07 344,-326.92 344,-318.62"/>
<polygon fill="#63b8ff" stroke="#63b8ff" points="347.5,-318.62 344,-308.62 340.5,-318.62 347.5,-318.62"/>
</a>
</g>
</g>
<!-- Node5 -->
<g id="Node000005" class="node">
<title>Node5</title>
<g id="a_Node000005"><a xlink:title=" ">
<polygon fill="#e0e0e0" stroke="#999999" points="767.38,-251.5 732.62,-251.5 732.62,-232.25 767.38,-232.25 767.38,-251.5"/>
<text xml:space="preserve" text-anchor="middle" x="750" y="-238" font-family="Helvetica,sans-Serif" font-size="10.00">map</text>
</a>
</g>
</g>
<!-- Node4&#45;&gt;Node5 -->
<g id="edge4_Node000004_Node000005" class="edge">
<title>Node4&#45;&gt;Node5</title>
<g id="a_edge4_Node000004_Node000005"><a xlink:title=" ">
<path fill="none" stroke="#63b8ff" d="M681.08,-287.09C693.48,-279.14 711.79,-267.39 726.43,-258"/>
<polygon fill="#63b8ff" stroke="#63b8ff" points="728.05,-261.12 734.58,-252.77 724.27,-255.22 728.05,-261.12"/>
</a>
</g>
</g>
<!-- Node6 -->
<g id="Node000006" class="node">
<title>Node6</title>
<g id="a_Node000006"><a xlink:title=" ">
<polygon fill="#e0e0e0" stroke="#999999" points="619.62,-80.12 568.38,-80.12 568.38,-60.88 619.62,-60.88 619.62,-80.12"/>
<text xml:space="preserve" text-anchor="middle" x="594" y="-66.62" font-family="Helvetica,sans-Serif" font-size="10.00">memory</text>
</a>
</g>
</g>
<!-- Node4&#45;&gt;Node6 -->
<g id="edge5_Node000004_Node000006" class="edge">
<title>Node4&#45;&gt;Node6</title>
<g id="a_edge5_Node000004_Node000006"><a xlink:title=" ">
<path fill="none" stroke="#63b8ff" d="M729.77,-288.9C779.64,-281.91 844.05,-269.68 863,-251.5 905.44,-210.78 926.94,-166.69 889,-121.75 856.38,-83.11 702.8,-74.18 631.07,-72.12"/>
<polygon fill="#63b8ff" stroke="#63b8ff" points="631.49,-68.63 621.4,-71.87 631.31,-75.62 631.49,-68.63"/>
</a>
</g>
</g>
<!-- Node7 -->
<g id="Node000007" class="node">
<title>Node7</title>
<g id="a_Node000007"><a xlink:title=" ">
<polygon fill="#e0e0e0" stroke="#999999" points="879.5,-141 836.5,-141 836.5,-121.75 879.5,-121.75 879.5,-141"/>
<text xml:space="preserve" text-anchor="middle" x="858" y="-127.5" font-family="Helvetica,sans-Serif" font-size="10.00">vector</text>
</a>
</g>
</g>
<!-- Node4&#45;&gt;Node7 -->
<g id="edge6_Node000004_Node000007" class="edge">
<title>Node4&#45;&gt;Node7</title>
<g id="a_edge6_Node000004_Node000007"><a xlink:title=" ">
<path fill="none" stroke="#63b8ff" d="M729.49,-287.81C773.79,-280.58 827.92,-268.56 843,-251.5 867.2,-224.12 865.29,-178.37 861.68,-152.26"/>
<polygon fill="#63b8ff" stroke="#63b8ff" points="865.18,-151.98 860.12,-142.67 858.27,-153.11 865.18,-151.98"/>
</a>
</g>
</g>
<!-- Node8 -->
<g id="Node000008" class="node">
<title>Node8</title>
<g id="a_Node000008"><a xlink:title=" ">
<polygon fill="#e0e0e0" stroke="#999999" points="834.12,-251.5 785.88,-251.5 785.88,-232.25 834.12,-232.25 834.12,-251.5"/>
<text xml:space="preserve" text-anchor="middle" x="810" y="-238" font-family="Helvetica,sans-Serif" font-size="10.00">cstddef</text>
</a>
</g>
</g>
<!-- Node4&#45;&gt;Node8 -->
<g id="edge7_Node000004_Node000008" class="edge">
<title>Node4&#45;&gt;Node8</title>
<g id="a_edge7_Node000004_Node000008"><a xlink:title=" ">
<path fill="none" stroke="#63b8ff" d="M691.26,-287.09C714.27,-278.52 749.09,-265.56 775.08,-255.88"/>
<polygon fill="#63b8ff" stroke="#63b8ff" points="776.05,-259.25 784.2,-252.48 773.61,-252.69 776.05,-259.25"/>
</a>
</g>
</g>
<!-- Node9 -->
<g id="Node000009" class="node">
<title>Node9</title>
<g id="a_Node000009"><a xlink:title=" ">
<polygon fill="#e0e0e0" stroke="#999999" points="434.62,-19.25 377.38,-19.25 377.38,0 434.62,0 434.62,-19.25"/>
<text xml:space="preserve" text-anchor="middle" x="406" y="-5.75" font-family="Helvetica,sans-Serif" font-size="10.00">Arduino.h</text>
</a>
</g>
</g>
<!-- Node4&#45;&gt;Node9 -->
<g id="edge8_Node000004_Node000009" class="edge">
<title>Node4&#45;&gt;Node9</title>
<g id="a_edge8_Node000004_Node000009"><a xlink:title=" ">
<path fill="none" stroke="#63b8ff" d="M666.9,-287.11C666.28,-247.51 661.76,-89.38 629,-55.25 604.32,-29.53 503.52,-17.89 446.25,-13.27"/>
<polygon fill="#63b8ff" stroke="#63b8ff" points="446.82,-9.8 436.58,-12.52 446.29,-16.78 446.82,-9.8"/>
</a>
</g>
</g>
<!-- Node10 -->
<g id="Node000010" class="node">
<title>Node10</title>
<g id="a_Node000010"><a xlink:title=" ">
<polygon fill="#e0e0e0" stroke="#999999" points="494.12,-141 415.88,-141 415.88,-121.75 494.12,-121.75 494.12,-141"/>
<text xml:space="preserve" text-anchor="middle" x="455" y="-127.5" font-family="Helvetica,sans-Serif" font-size="10.00">ArduinoJson.h</text>
</a>
</g>
</g>
<!-- Node4&#45;&gt;Node10 -->
<g id="edge9_Node000004_Node000010" class="edge">
<title>Node4&#45;&gt;Node10</title>
<g id="a_edge9_Node000004_Node000010"><a xlink:title=" ">
<path fill="none" stroke="#63b8ff" d="M660.29,-287.18C650.25,-274.15 630.34,-249.63 610,-232.25 568.9,-197.12 514.56,-164.87 482.34,-146.99"/>
<polygon fill="#63b8ff" stroke="#63b8ff" points="484.09,-143.96 473.64,-142.22 480.73,-150.1 484.09,-143.96"/>
</a>
</g>
</g>
<!-- Node11 -->
<g id="Node000011" class="node">
<title>Node11</title>
<g id="a_Node000011"><a xlink:href="saveable_8h.html" target="_top" xlink:title=" ">
<polygon fill="white" stroke="#666666" points="423.12,-251.5 284.88,-251.5 284.88,-232.25 423.12,-232.25 423.12,-251.5"/>
<text xml:space="preserve" text-anchor="middle" x="354" y="-238" font-family="Helvetica,sans-Serif" font-size="10.00">sensesp/system/saveable.h</text>
</a>
</g>
</g>
<!-- Node4&#45;&gt;Node11 -->
<g id="edge10_Node000004_Node000011" class="edge">
<title>Node4&#45;&gt;Node11</title>
<g id="a_edge10_Node000004_Node000011"><a xlink:title=" ">
<path fill="none" stroke="#63b8ff" d="M613.55,-287.03C559.61,-277.86 476.28,-263.68 418.66,-253.88"/>
<polygon fill="#63b8ff" stroke="#63b8ff" points="419.43,-250.46 408.98,-252.23 418.26,-257.36 419.43,-250.46"/>
</a>
</g>
</g>
<!-- Node11&#45;&gt;Node9 -->
<g id="edge19_Node000011_Node000009" class="edge">
<title>Node11&#45;&gt;Node9</title>
<g id="a_edge19_Node000011_Node000009"><a xlink:title=" ">
<path fill="none" stroke="#63b8ff" d="M386.02,-231.87C408.01,-224.64 437.08,-212.91 459,-196.25 483.99,-177.25 492.64,-170.63 503,-141 519.78,-93.01 464.87,-47.98 430.88,-25.52"/>
<polygon fill="#63b8ff" stroke="#63b8ff" points="433.11,-22.79 422.8,-20.36 429.34,-28.69 433.11,-22.79"/>
</a>
</g>
</g>
<!-- Node11&#45;&gt;Node10 -->
<g id="edge18_Node000011_Node000010" class="edge">
<title>Node11&#45;&gt;Node10</title>
<g id="a_edge18_Node000011_Node000010"><a xlink:title=" ">
<path fill="none" stroke="#63b8ff" d="M385.81,-231.78C404.26,-224.92 426.47,-213.64 440,-196.25 449.65,-183.85 453.26,-166.27 454.53,-152.69"/>
<polygon fill="#63b8ff" stroke="#63b8ff" points="458.02,-152.89 455.07,-142.71 451.03,-152.51 458.02,-152.89"/>
</a>
</g>
</g>
<!-- Node12 -->
<g id="Node000012" class="node">
<title>Node12</title>
<g id="a_Node000012"><a xlink:href="sensesp_8h.html" target="_top" xlink:title=" ">
<polygon fill="white" stroke="#666666" points="162.5,-141 101.5,-141 101.5,-121.75 162.5,-121.75 162.5,-141"/>
<text xml:space="preserve" text-anchor="middle" x="132" y="-127.5" font-family="Helvetica,sans-Serif" font-size="10.00">sensesp.h</text>
</a>
</g>
</g>
<!-- Node11&#45;&gt;Node12 -->
<g id="edge11_Node000011_Node000012" class="edge">
<title>Node11&#45;&gt;Node12</title>
<g id="a_edge11_Node000011_Node000012"><a xlink:title=" ">
<path fill="none" stroke="#63b8ff" d="M284.48,-236.17C227.1,-230.68 152.11,-219.24 133,-196.25 123.02,-184.25 123.71,-166.13 126.36,-152.25"/>
<polygon fill="#63b8ff" stroke="#63b8ff" points="129.68,-153.42 128.61,-142.88 122.87,-151.79 129.68,-153.42"/>
</a>
</g>
</g>
<!-- Node17 -->
<g id="Node000017" class="node">
<title>Node17</title>
<g id="a_Node000017"><a xlink:href="serializable_8h.html" target="_top" xlink:title=" ">
<polygon fill="white" stroke="#666666" points="397.5,-196.25 324.5,-196.25 324.5,-177 397.5,-177 397.5,-196.25"/>
<text xml:space="preserve" text-anchor="middle" x="361" y="-182.75" font-family="Helvetica,sans-Serif" font-size="10.00">serializable.h</text>
</a>
</g>
</g>
<!-- Node11&#45;&gt;Node17 -->
<g id="edge20_Node000011_Node000017" class="edge">
<title>Node11&#45;&gt;Node17</title>
<g id="a_edge20_Node000011_Node000017"><a xlink:title=" ">
<path fill="none" stroke="#63b8ff" d="M355.16,-232.08C356.02,-225.49 357.24,-216.21 358.34,-207.82"/>
<polygon fill="#63b8ff" stroke="#63b8ff" points="361.79,-208.48 359.62,-198.11 354.85,-207.57 361.79,-208.48"/>
</a>
</g>
</g>
<!-- Node12&#45;&gt;Node6 -->
<g id="edge13_Node000012_Node000006" class="edge">
<title>Node12&#45;&gt;Node6</title>
<g id="a_edge13_Node000012_Node000006"><a xlink:title=" ">
<path fill="none" stroke="#63b8ff" d="M162.91,-125.73C171.96,-124.41 181.87,-122.99 191,-121.75 325.69,-103.51 486.04,-84.25 557.04,-75.84"/>
<polygon fill="#63b8ff" stroke="#63b8ff" points="557.02,-79.37 566.54,-74.72 556.2,-72.42 557.02,-79.37"/>
</a>
</g>
</g>
<!-- Node12&#45;&gt;Node13 -->
<g id="edge12_Node000012_Node000013" class="edge">
<title>Node12&#45;&gt;Node13</title>
<g id="a_edge12_Node000012_Node000013"><a xlink:title=" ">
<path fill="none" stroke="#63b8ff" d="M121.98,-121.43C112.09,-112.62 96.74,-98.93 84.62,-88.11"/>
<polygon fill="#63b8ff" stroke="#63b8ff" points="87.04,-85.58 77.25,-81.53 82.38,-90.8 87.04,-85.58"/>
</a>
</g>
</g>
<!-- Node14 -->
<g id="Node000014" class="node">
<title>Node14</title>
<g id="a_Node000014"><a xlink:href="local__debug_8h.html" target="_top" xlink:title=" ">
<polygon fill="white" stroke="#666666" points="332.62,-85.75 221.38,-85.75 221.38,-55.25 332.62,-55.25 332.62,-85.75"/>
<text xml:space="preserve" text-anchor="start" x="229.38" y="-72.25" font-family="Helvetica,sans-Serif" font-size="10.00">sensesp/system/local</text>
<text xml:space="preserve" text-anchor="middle" x="277" y="-61" font-family="Helvetica,sans-Serif" font-size="10.00">_debug.h</text>
</a>
</g>
</g>
<!-- Node12&#45;&gt;Node14 -->
<g id="edge14_Node000012_Node000014" class="edge">
<title>Node12&#45;&gt;Node14</title>
<g id="a_edge14_Node000012_Node000014"><a xlink:title=" ">
<path fill="none" stroke="#63b8ff" d="M154.34,-121.3C174.5,-113.12 204.8,-100.81 230.25,-90.48"/>
<polygon fill="#63b8ff" stroke="#63b8ff" points="231.46,-93.77 239.41,-86.76 228.82,-87.28 231.46,-93.77"/>
</a>
</g>
</g>
<!-- Node14&#45;&gt;Node9 -->
<g id="edge16_Node000014_Node000009" class="edge">
<title>Node14&#45;&gt;Node9</title>
<g id="a_edge16_Node000014_Node000009"><a xlink:title=" ">
<path fill="none" stroke="#63b8ff" d="M309.22,-54.8C329.62,-45.48 355.83,-33.52 375.82,-24.4"/>
<polygon fill="#63b8ff" stroke="#63b8ff" points="377.2,-27.62 384.84,-20.28 374.29,-21.25 377.2,-27.62"/>
</a>
</g>
</g>
<!-- Node15 -->
<g id="Node000015" class="node">
<title>Node15</title>
<g id="a_Node000015"><a xlink:title=" ">
<polygon fill="#e0e0e0" stroke="#999999" points="290,-19.25 208,-19.25 208,0 290,0 290,-19.25"/>
<text xml:space="preserve" text-anchor="middle" x="249" y="-5.75" font-family="Helvetica,sans-Serif" font-size="10.00">esp32&#45;hal&#45;log.h</text>
</a>
</g>
</g>
<!-- Node14&#45;&gt;Node15 -->
<g id="edge15_Node000014_Node000015" class="edge">
<title>Node14&#45;&gt;Node15</title>
<g id="a_edge15_Node000014_Node000015"><a xlink:title=" ">
<path fill="none" stroke="#63b8ff" d="M270.08,-54.95C266.51,-47.45 262.11,-38.2 258.26,-30.1"/>
<polygon fill="#63b8ff" stroke="#63b8ff" points="261.42,-28.6 253.97,-21.07 255.1,-31.6 261.42,-28.6"/>
</a>
</g>
</g>
<!-- Node16 -->
<g id="Node000016" class="node">
<title>Node16</title>
<g id="a_Node000016"><a xlink:title=" ">
<polygon fill="#e0e0e0" stroke="#999999" points="352.25,-19.25 307.75,-19.25 307.75,0 352.25,0 352.25,-19.25"/>
<text xml:space="preserve" text-anchor="middle" x="330" y="-5.75" font-family="Helvetica,sans-Serif" font-size="10.00">Print.h</text>
</a>
</g>
</g>
<!-- Node14&#45;&gt;Node16 -->
<g id="edge17_Node000014_Node000016" class="edge">
<title>Node14&#45;&gt;Node16</title>
<g id="a_edge17_Node000014_Node000016"><a xlink:title=" ">
<path fill="none" stroke="#63b8ff" d="M290.1,-54.95C297.39,-46.84 306.53,-36.7 314.21,-28.16"/>
<polygon fill="#63b8ff" stroke="#63b8ff" points="316.73,-30.6 320.82,-20.83 311.53,-25.92 316.73,-30.6"/>
</a>
</g>
</g>
<!-- Node17&#45;&gt;Node9 -->
<g id="edge23_Node000017_Node000009" class="edge">
<title>Node17&#45;&gt;Node9</title>
<g id="a_edge23_Node000017_Node000009"><a xlink:title=" ">
<path fill="none" stroke="#63b8ff" d="M363.29,-176.71C370.21,-149.8 391,-68.94 400.79,-30.87"/>
<polygon fill="#63b8ff" stroke="#63b8ff" points="404.18,-31.76 403.28,-21.2 397.4,-30.01 404.18,-31.76"/>
</a>
</g>
</g>
<!-- Node17&#45;&gt;Node10 -->
<g id="edge22_Node000017_Node000010" class="edge">
<title>Node17&#45;&gt;Node10</title>
<g id="a_edge22_Node000017_Node000010"><a xlink:title=" ">
<path fill="none" stroke="#63b8ff" d="M376.95,-176.59C391.26,-168.48 412.53,-156.43 429.25,-146.96"/>
<polygon fill="#63b8ff" stroke="#63b8ff" points="430.68,-150.17 437.66,-142.2 427.23,-144.08 430.68,-150.17"/>
</a>
</g>
</g>
<!-- Node17&#45;&gt;Node12 -->
<g id="edge21_Node000017_Node000012" class="edge">
<title>Node17&#45;&gt;Node12</title>
<g id="a_edge21_Node000017_Node000012"><a xlink:title=" ">
<path fill="none" stroke="#63b8ff" d="M324.21,-177.07C283.21,-167.54 217.04,-152.15 174.04,-142.15"/>
<polygon fill="#63b8ff" stroke="#63b8ff" points="174.84,-138.74 164.3,-139.89 173.25,-145.56 174.84,-138.74"/>
</a>
</g>
</g>
<!-- Node18&#45;&gt;Node10 -->
<g id="edge26_Node000018_Node000010" class="edge">
<title>Node18&#45;&gt;Node10</title>
<g id="a_edge26_Node000018_Node000010"><a xlink:title=" ">
<path fill="none" stroke="#63b8ff" d="M321.39,-287.16C295.61,-275.62 259.11,-254.41 276,-232.25 312.6,-184.23 357.07,-230.21 407,-196.25 423.82,-184.81 437.12,-165.52 445.41,-151.13"/>
<polygon fill="#63b8ff" stroke="#63b8ff" points="448.34,-153.07 450.03,-142.61 442.18,-149.73 448.34,-153.07"/>
</a>
</g>
</g>
<!-- Node18&#45;&gt;Node11 -->
<g id="edge32_Node000018_Node000011" class="edge">
<title>Node18&#45;&gt;Node11</title>
<g id="a_edge32_Node000018_Node000011"><a xlink:title=" ">
<path fill="none" stroke="#63b8ff" d="M345.65,-287.33C346.89,-280.74 348.63,-271.46 350.21,-263.07"/>
<polygon fill="#63b8ff" stroke="#63b8ff" points="353.63,-263.82 352.03,-253.35 346.75,-262.53 353.63,-263.82"/>
</a>
</g>
</g>
<!-- Node18&#45;&gt;Node12 -->
<g id="edge25_Node000018_Node000012" class="edge">
<title>Node18&#45;&gt;Node12</title>
<g id="a_edge25_Node000018_Node000012"><a xlink:title=" ">
<path fill="none" stroke="#63b8ff" d="M313.13,-287.04C257.03,-269.82 142.18,-231.03 121,-196.25 112.85,-182.87 116.82,-165.15 122.13,-151.77"/>
<polygon fill="#63b8ff" stroke="#63b8ff" points="125.29,-153.28 126.25,-142.72 118.92,-150.37 125.29,-153.28"/>
</a>
</g>
</g>
<!-- Node19 -->
<g id="Node000019" class="node">
<title>Node19</title>
<g id="a_Node000019"><a xlink:title=" ">
<polygon fill="#e0e0e0" stroke="#999999" points="95.75,-251.5 66.25,-251.5 66.25,-232.25 95.75,-232.25 95.75,-251.5"/>
<text xml:space="preserve" text-anchor="middle" x="81" y="-238" font-family="Helvetica,sans-Serif" font-size="10.00">set</text>
</a>
</g>
</g>
<!-- Node18&#45;&gt;Node19 -->
<g id="edge27_Node000018_Node000019" class="edge">
<title>Node18&#45;&gt;Node19</title>
<g id="a_edge27_Node000018_Node000019"><a xlink:title=" ">
<path fill="none" stroke="#63b8ff" d="M311,-289.29C307.96,-288.68 304.92,-288.07 302,-287.5 216.81,-270.77 194.39,-271.9 110,-251.5 108.99,-251.26 107.97,-251 106.94,-250.73"/>
<polygon fill="#63b8ff" stroke="#63b8ff" points="108,-247.4 97.43,-248.06 106.11,-254.13 108,-247.4"/>
</a>
</g>
</g>
<!-- Node20 -->
<g id="Node000020" class="node">
<title>Node20</title>
<g id="a_Node000020"><a xlink:href="observable_8h.html" target="_top" xlink:title=" ">
<polygon fill="white" stroke="#666666" points="834.25,-196.25 687.75,-196.25 687.75,-177 834.25,-177 834.25,-196.25"/>
<text xml:space="preserve" text-anchor="middle" x="761" y="-182.75" font-family="Helvetica,sans-Serif" font-size="10.00">sensesp/system/observable.h</text>
</a>
</g>
</g>
<!-- Node18&#45;&gt;Node20 -->
<g id="edge28_Node000018_Node000020" class="edge">
<title>Node18&#45;&gt;Node20</title>
<g id="a_edge28_Node000018_Node000020"><a xlink:title=" ">
<path fill="none" stroke="#63b8ff" d="M376.9,-293.11C427.7,-287.89 527.95,-275.38 610,-251.5 654.54,-238.54 703.57,-216.19 733.32,-201.66"/>
<polygon fill="#63b8ff" stroke="#63b8ff" points="734.6,-204.94 742.01,-197.36 731.5,-198.66 734.6,-204.94"/>
</a>
</g>
</g>
<!-- Node23 -->
<g id="Node000023" class="node">
<title>Node23</title>
<g id="a_Node000023"><a xlink:href="valueconsumer_8h.html" target="_top" xlink:title=" ">
<polygon fill="white" stroke="#666666" points="306.25,-196.25 141.75,-196.25 141.75,-177 306.25,-177 306.25,-196.25"/>
<text xml:space="preserve" text-anchor="middle" x="224" y="-182.75" font-family="Helvetica,sans-Serif" font-size="10.00">sensesp/system/valueconsumer.h</text>
</a>
</g>
</g>
<!-- Node18&#45;&gt;Node23 -->
<g id="edge33_Node000018_Node000023" class="edge">
<title>Node18&#45;&gt;Node23</title>
<g id="a_edge33_Node000018_Node000023"><a xlink:title=" ">
<path fill="none" stroke="#63b8ff" d="M311.03,-289.21C288.87,-282.94 260.61,-271.5 243,-251.5 232.35,-239.4 227.66,-221.55 225.6,-207.79"/>
<polygon fill="#63b8ff" stroke="#63b8ff" points="229.11,-207.65 224.52,-198.09 222.15,-208.42 229.11,-207.65"/>
</a>
</g>
</g>
<!-- Node25 -->
<g id="Node000025" class="node">
<title>Node25</title>
<g id="a_Node000025"><a xlink:href="valueproducer_8h.html" target="_top" xlink:title=" ">
<polygon fill="white" stroke="#666666" points="600.62,-251.5 441.38,-251.5 441.38,-232.25 600.62,-232.25 600.62,-251.5"/>
<text xml:space="preserve" text-anchor="middle" x="521" y="-238" font-family="Helvetica,sans-Serif" font-size="10.00">sensesp/system/valueproducer.h</text>
</a>
</g>
</g>
<!-- Node18&#45;&gt;Node25 -->
<g id="edge37_Node000018_Node000025" class="edge">
<title>Node18&#45;&gt;Node25</title>
<g id="a_edge37_Node000018_Node000025"><a xlink:title=" ">
<path fill="none" stroke="#63b8ff" d="M374.03,-287.09C403.14,-278.33 447.54,-264.98 479.92,-255.23"/>
<polygon fill="#63b8ff" stroke="#63b8ff" points="480.81,-258.62 489.38,-252.39 478.79,-251.92 480.81,-258.62"/>
</a>
</g>
</g>
<!-- Node20&#45;&gt;Node7 -->
<g id="edge31_Node000020_Node000007" class="edge">
<title>Node20&#45;&gt;Node7</title>
<g id="a_edge31_Node000020_Node000007"><a xlink:title=" ">
<path fill="none" stroke="#63b8ff" d="M777.45,-176.59C792.23,-168.48 814.18,-156.43 831.43,-146.96"/>
<polygon fill="#63b8ff" stroke="#63b8ff" points="833.06,-150.06 840.14,-142.18 829.69,-143.93 833.06,-150.06"/>
</a>
</g>
</g>
<!-- Node21 -->
<g id="Node000021" class="node">
<title>Node21</title>
<g id="a_Node000021"><a xlink:title=" ">
<polygon fill="#e0e0e0" stroke="#999999" points="818.12,-141 751.88,-141 751.88,-121.75 818.12,-121.75 818.12,-141"/>
<text xml:space="preserve" text-anchor="middle" x="785" y="-127.5" font-family="Helvetica,sans-Serif" font-size="10.00">forward_list</text>
</a>
</g>
</g>
<!-- Node20&#45;&gt;Node21 -->
<g id="edge29_Node000020_Node000021" class="edge">
<title>Node20&#45;&gt;Node21</title>
<g id="a_edge29_Node000020_Node000021"><a xlink:title=" ">
<path fill="none" stroke="#63b8ff" d="M764.96,-176.83C768.04,-170.01 772.41,-160.31 776.29,-151.7"/>
<polygon fill="#63b8ff" stroke="#63b8ff" points="779.41,-153.29 780.33,-142.74 773.03,-150.42 779.41,-153.29"/>
</a>
</g>
</g>
<!-- Node22 -->
<g id="Node000022" class="node">
<title>Node22</title>
<g id="a_Node000022"><a xlink:title=" ">
<polygon fill="#e0e0e0" stroke="#999999" points="734,-141 676,-141 676,-121.75 734,-121.75 734,-141"/>
<text xml:space="preserve" text-anchor="middle" x="705" y="-127.5" font-family="Helvetica,sans-Serif" font-size="10.00">functional</text>
</a>
</g>
</g>
<!-- Node20&#45;&gt;Node22 -->
<g id="edge30_Node000020_Node000022" class="edge">
<title>Node20&#45;&gt;Node22</title>
<g id="a_edge30_Node000020_Node000022"><a xlink:title=" ">
<path fill="none" stroke="#63b8ff" d="M751.5,-176.59C743.57,-169.05 732.05,-158.1 722.46,-148.98"/>
<polygon fill="#63b8ff" stroke="#63b8ff" points="725.11,-146.67 715.46,-142.32 720.29,-151.74 725.11,-146.67"/>
</a>
</g>
</g>
<!-- Node23&#45;&gt;Node10 -->
<g id="edge35_Node000023_Node000010" class="edge">
<title>Node23&#45;&gt;Node10</title>
<g id="a_edge35_Node000023_Node000010"><a xlink:title=" ">
<path fill="none" stroke="#63b8ff" d="M263.45,-176.53C302.4,-167.55 362.13,-153.78 404.52,-144.01"/>
<polygon fill="#63b8ff" stroke="#63b8ff" points="405.28,-147.43 414.24,-141.77 403.71,-140.61 405.28,-147.43"/>
</a>
</g>
</g>
<!-- Node23&#45;&gt;Node12 -->
<g id="edge34_Node000023_Node000012" class="edge">
<title>Node23&#45;&gt;Node12</title>
<g id="a_edge34_Node000023_Node000012"><a xlink:title=" ">
<path fill="none" stroke="#63b8ff" d="M208.39,-176.59C194.38,-168.48 173.57,-156.43 157.2,-146.96"/>
<polygon fill="#63b8ff" stroke="#63b8ff" points="159.4,-144.19 148.99,-142.21 155.89,-150.25 159.4,-144.19"/>
</a>
</g>
</g>
<!-- Node24 -->
<g id="Node000024" class="node">
<title>Node24</title>
<g id="a_Node000024"><a xlink:title=" ">
<polygon fill="#e0e0e0" stroke="#999999" points="248.12,-141 199.88,-141 199.88,-121.75 248.12,-121.75 248.12,-141"/>
<text xml:space="preserve" text-anchor="middle" x="224" y="-127.5" font-family="Helvetica,sans-Serif" font-size="10.00">stdint.h</text>
</a>
</g>
</g>
<!-- Node23&#45;&gt;Node24 -->
<g id="edge36_Node000023_Node000024" class="edge">
<title>Node23&#45;&gt;Node24</title>
<g id="a_edge36_Node000023_Node000024"><a xlink:title=" ">
<path fill="none" stroke="#63b8ff" d="M224,-176.83C224,-170.32 224,-161.17 224,-152.87"/>
<polygon fill="#63b8ff" stroke="#63b8ff" points="227.5,-152.87 224,-142.87 220.5,-152.87 227.5,-152.87"/>
</a>
</g>
</g>
<!-- Node25&#45;&gt;Node6 -->
<g id="edge39_Node000025_Node000006" class="edge">
<title>Node25&#45;&gt;Node6</title>
<g id="a_edge39_Node000025_Node000006"><a xlink:title=" ">
<path fill="none" stroke="#63b8ff" d="M529.03,-231.89C536.39,-223.27 547.15,-209.63 554,-196.25 571.92,-161.27 583.88,-116.67 589.75,-91.38"/>
<polygon fill="#63b8ff" stroke="#63b8ff" points="593.12,-92.35 591.88,-81.83 586.29,-90.83 593.12,-92.35"/>
</a>
</g>
</g>
<!-- Node25&#45;&gt;Node10 -->
<g id="edge38_Node000025_Node000010" class="edge">
<title>Node25&#45;&gt;Node10</title>
<g id="a_edge38_Node000025_Node000010"><a xlink:title=" ">
<path fill="none" stroke="#63b8ff" d="M515.6,-232C504.87,-214.35 480.66,-174.55 466.3,-150.95"/>
<polygon fill="#63b8ff" stroke="#63b8ff" points="469.45,-149.39 461.26,-142.67 463.47,-153.03 469.45,-149.39"/>
</a>
</g>
</g>
<!-- Node25&#45;&gt;Node20 -->
<g id="edge40_Node000025_Node000020" class="edge">
<title>Node25&#45;&gt;Node20</title>
<g id="a_edge40_Node000025_Node000020"><a xlink:title=" ">
<path fill="none" stroke="#63b8ff" d="M561.98,-231.78C602.63,-222.76 665.04,-208.92 709.12,-199.14"/>
<polygon fill="#63b8ff" stroke="#63b8ff" points="709.7,-202.59 718.71,-197.01 708.19,-195.76 709.7,-202.59"/>
</a>
</g>
</g>
<!-- Node25&#45;&gt;Node23 -->
<g id="edge41_Node000025_Node000023" class="edge">
<title>Node25&#45;&gt;Node23</title>
<g id="a_edge41_Node000025_Node000023"><a xlink:title=" ">
<path fill="none" stroke="#63b8ff" d="M470.28,-231.78C419.24,-222.63 340.45,-208.5 285.79,-198.7"/>
<polygon fill="#63b8ff" stroke="#63b8ff" points="286.46,-195.27 276,-196.95 285.22,-202.16 286.46,-195.27"/>
</a>
</g>
</g>
<!-- Node26&#45;&gt;Node6 -->
<g id="edge45_Node000026_Node000006" class="edge">
<title>Node26&#45;&gt;Node6</title>
<g id="a_edge45_Node000026_Node000006"><a xlink:title=" ">
<path fill="none" stroke="#63b8ff" d="M487.55,-407.16C625.25,-407.04 976,-397.02 976,-298.12 976,-298.12 976,-298.12 976,-185.62 976,-144.48 945.87,-140.01 909,-121.75 860.7,-97.83 703.72,-81.23 631.27,-74.65"/>
<polygon fill="#63b8ff" stroke="#63b8ff" points="631.76,-71.18 621.49,-73.78 631.14,-78.15 631.76,-71.18"/>
</a>
</g>
</g>
<!-- Node26&#45;&gt;Node12 -->
<g id="edge44_Node000026_Node000012" class="edge">
<title>Node26&#45;&gt;Node12</title>
<g id="a_edge44_Node000026_Node000012"><a xlink:title=" ">
<path fill="none" stroke="#63b8ff" d="M378.49,-403.06C270.13,-394.46 38,-367.91 38,-298.12 38,-298.12 38,-298.12 38,-240.88 38,-199.14 78.21,-165.59 106.03,-147.36"/>
<polygon fill="#63b8ff" stroke="#63b8ff" points="107.73,-150.43 114.34,-142.16 104.01,-144.5 107.73,-150.43"/>
</a>
</g>
</g>
<!-- Node27 -->
<g id="Node000027" class="node">
<title>Node27</title>
<g id="a_Node000027"><a xlink:title=" ">
<polygon fill="#e0e0e0" stroke="#999999" points="458,-362 400,-362 400,-342.75 458,-342.75 458,-362"/>
<text xml:space="preserve" text-anchor="middle" x="429" y="-348.5" font-family="Helvetica,sans-Serif" font-size="10.00">esp_log.h</text>
</a>
</g>
</g>
<!-- Node26&#45;&gt;Node27 -->
<g id="edge46_Node000026_Node000027" class="edge">
<title>Node26&#45;&gt;Node27</title>
<g id="a_edge46_Node000026_Node000027"><a xlink:title=" ">
<path fill="none" stroke="#63b8ff" d="M432.34,-397.83C431.84,-391.24 431.15,-381.96 430.52,-373.57"/>
<polygon fill="#63b8ff" stroke="#63b8ff" points="434.03,-373.58 429.79,-363.87 427.05,-374.1 434.03,-373.58"/>
</a>
</g>
</g>
<!-- Node28 -->
<g id="Node000028" class="node">
<title>Node28</title>
<g id="a_Node000028"><a xlink:href="filesystem_8h.html" target="_top" xlink:title=" ">
<polygon fill="white" stroke="#666666" points="1148.12,-362 1003.88,-362 1003.88,-342.75 1148.12,-342.75 1148.12,-362"/>
<text xml:space="preserve" text-anchor="middle" x="1076" y="-348.5" font-family="Helvetica,sans-Serif" font-size="10.00">sensesp/system/filesystem.h</text>
</a>
</g>
</g>
<!-- Node26&#45;&gt;Node28 -->
<g id="edge47_Node000026_Node000028" class="edge">
<title>Node26&#45;&gt;Node28</title>
<g id="a_edge47_Node000026_Node000028"><a xlink:title=" ">
<path fill="none" stroke="#63b8ff" d="M487.58,-402.62C587.38,-395.21 805.94,-378.6 990,-362 990.84,-361.92 991.69,-361.85 992.54,-361.77"/>
<polygon fill="#63b8ff" stroke="#63b8ff" points="992.61,-365.28 1002.24,-360.87 991.96,-358.31 992.61,-365.28"/>
</a>
</g>
</g>
<!-- Node31 -->
<g id="Node000031" class="node">
<title>Node31</title>
<g id="a_Node000031"><a xlink:href="observablevalue_8h.html" target="_top" xlink:title=" ">
<polygon fill="white" stroke="#666666" points="645.88,-362 476.12,-362 476.12,-342.75 645.88,-342.75 645.88,-362"/>
<text xml:space="preserve" text-anchor="middle" x="561" y="-348.5" font-family="Helvetica,sans-Serif" font-size="10.00">sensesp/system/observablevalue.h</text>
</a>
</g>
</g>
<!-- Node26&#45;&gt;Node31 -->
<g id="edge50_Node000026_Node000031" class="edge">
<title>Node26&#45;&gt;Node31</title>
<g id="a_edge50_Node000026_Node000031"><a xlink:title=" ">
<path fill="none" stroke="#63b8ff" d="M454.71,-397.59C475.03,-389.14 505.65,-376.4 528.81,-366.77"/>
<polygon fill="#63b8ff" stroke="#63b8ff" points="529.89,-370.11 537.78,-363.03 527.21,-363.64 529.89,-370.11"/>
</a>
</g>
</g>
<!-- Node29 -->
<g id="Node000029" class="node">
<title>Node29</title>
<g id="a_Node000029"><a xlink:href="resettable_8h.html" target="_top" xlink:title=" ">
<polygon fill="white" stroke="#666666" points="1109.5,-306.75 1042.5,-306.75 1042.5,-287.5 1109.5,-287.5 1109.5,-306.75"/>
<text xml:space="preserve" text-anchor="middle" x="1076" y="-293.25" font-family="Helvetica,sans-Serif" font-size="10.00">resettable.h</text>
</a>
</g>
</g>
<!-- Node28&#45;&gt;Node29 -->
<g id="edge48_Node000028_Node000029" class="edge">
<title>Node28&#45;&gt;Node29</title>
<g id="a_edge48_Node000028_Node000029"><a xlink:title=" ">
<path fill="none" stroke="#63b8ff" d="M1076,-342.58C1076,-336.07 1076,-326.92 1076,-318.62"/>
<polygon fill="#63b8ff" stroke="#63b8ff" points="1079.5,-318.62 1076,-308.62 1072.5,-318.62 1079.5,-318.62"/>
</a>
</g>
</g>
<!-- Node30 -->
<g id="Node000030" class="node">
<title>Node30</title>
<g id="a_Node000030"><a xlink:title=" ">
<polygon fill="#e0e0e0" stroke="#999999" points="1097.12,-251.5 1054.88,-251.5 1054.88,-232.25 1097.12,-232.25 1097.12,-251.5"/>
<text xml:space="preserve" text-anchor="middle" x="1076" y="-238" font-family="Helvetica,sans-Serif" font-size="10.00">queue</text>
</a>
</g>
</g>
<!-- Node29&#45;&gt;Node30 -->
<g id="edge49_Node000029_Node000030" class="edge">
<title>Node29&#45;&gt;Node30</title>
<g id="a_edge49_Node000029_Node000030"><a xlink:title=" ">
<path fill="none" stroke="#63b8ff" d="M1076,-287.33C1076,-280.82 1076,-271.67 1076,-263.37"/>
<polygon fill="#63b8ff" stroke="#63b8ff" points="1079.5,-263.37 1076,-253.37 1072.5,-263.37 1079.5,-263.37"/>
</a>
</g>
</g>
<!-- Node31&#45;&gt;Node4 -->
<g id="edge53_Node000031_Node000004" class="edge">
<title>Node31&#45;&gt;Node4</title>
<g id="a_edge53_Node000031_Node000004"><a xlink:title=" ">
<path fill="none" stroke="#63b8ff" d="M578.98,-342.34C595.35,-334.12 619.79,-321.84 638.76,-312.31"/>
<polygon fill="#63b8ff" stroke="#63b8ff" points="640.21,-315.5 647.58,-307.88 637.07,-309.24 640.21,-315.5"/>
</a>
</g>
</g>
<!-- Node31&#45;&gt;Node11 -->
<g id="edge51_Node000031_Node000011" class="edge">
<title>Node31&#45;&gt;Node11</title>
<g id="a_edge51_Node000031_Node000011"><a xlink:title=" ">
<path fill="none" stroke="#63b8ff" d="M543.71,-342.31C507.79,-323.48 424.84,-280.01 381.5,-257.29"/>
<polygon fill="#63b8ff" stroke="#63b8ff" points="383.21,-254.23 372.73,-252.69 379.96,-260.43 383.21,-254.23"/>
</a>
</g>
</g>
<!-- Node31&#45;&gt;Node20 -->
<g id="edge52_Node000031_Node000020" class="edge">
<title>Node31&#45;&gt;Node20</title>
<g id="a_edge52_Node000031_Node000020"><a xlink:title=" ">
<path fill="none" stroke="#63b8ff" d="M646.31,-348.38C713.73,-340.79 802.93,-317.86 843,-251.5 856.46,-229.2 828.68,-211.74 801.88,-200.75"/>
<polygon fill="#63b8ff" stroke="#63b8ff" points="803.36,-197.57 792.77,-197.27 800.85,-204.11 803.36,-197.57"/>
</a>
</g>
</g>
<!-- Node31&#45;&gt;Node25 -->
<g id="edge54_Node000031_Node000025" class="edge">
<title>Node31&#45;&gt;Node25</title>
<g id="a_edge54_Node000031_Node000025"><a xlink:title=" ">
<path fill="none" stroke="#63b8ff" d="M557.73,-342.5C551.31,-325.09 536.94,-286.12 528.2,-262.41"/>
<polygon fill="#63b8ff" stroke="#63b8ff" points="531.59,-261.47 524.84,-253.3 525.02,-263.89 531.59,-261.47"/>
</a>
</g>
</g>
</g>
</svg>

<g id="navigator" transform="translate(0 0)" fill="#404254">
  <rect fill="#f2f5e9" fill-opacity="0.5" stroke="#606060" stroke-width=".5" x="0" y="0" width="60" height="60"/>
  <use id="zoomplus" xlink:href="#zoomPlus" x="17" y="9" onmousedown="handleZoom(evt,'in')"/>
  <use id="zoomminus" xlink:href="#zoomMin" x="42" y="9" onmousedown="handleZoom(evt,'out')"/>
  <use id="reset" xlink:href="#resetDef" x="30" y="36" onmousedown="handleReset()"/>
   <use id="arrowup" xlink:href="#arrowUp" x="0" y="0" onmousedown="handlePan(0,-1)"/>
  <use id="arrowright" xlink:href="#arrowRight" x="0" y="0" onmousedown="handlePan(1,0)"/>
  <use id="arrowdown" xlink:href="#arrowDown" x="0" y="0" onmousedown="handlePan(0,1)"/>
  <use id="arrowleft" xlink:href="#arrowLeft" x="0" y="0" onmousedown="handlePan(-1,0)"/>
</g>
<svg viewBox="0 0 15 15" width="100%" height="30px" preserveAspectRatio="xMaxYMin meet">
 <g id="arrow_out" transform="scale(0.3 0.3)">
  <a xlink:href="click__type_8cpp__incl_org.svg" target="_base">
   <rect id="button" ry="5" rx="5" y="6" x="6" height="38" width="38"
        fill="#f2f5e9" fill-opacity="0.5" stroke="#606060" stroke-width="1.0"/>
   <path id="arrow"
     d="M 11.500037,31.436501 C 11.940474,20.09759 22.043105,11.32322 32.158766,21.979434 L 37.068811,17.246167 C 37.068811,17.246167 37.088388,32 37.088388,32 L 22.160133,31.978069 C 22.160133,31.978069 26.997745,27.140456 26.997745,27.140456 C 18.528582,18.264221 13.291696,25.230495 11.500037,31.436501 z"
     style="fill:#404040;"/>
  </a>
 </g>
</svg>

<style type='text/css'>
<![CDATA[
[data-mouse-over-selected='false'] { opacity: 0.7; }
[data-mouse-over-selected='true']  { opacity: 1.0; }
]]>
</style>
<script type="application/ecmascript"><![CDATA[
document.addEventListener('DOMContentLoaded', (event) => {
  highlightEdges();
  highlightAdjacentNodes();
});
]]></script>
</svg>
