<?xml version="1.0" encoding="UTF-8" standalone="no"?>
<!DOCTYPE svg PUBLIC "-//W3C//DTD SVG 1.1//EN"
 "http://www.w3.org/Graphics/SVG/1.1/DTD/svg11.dtd">
<!-- Generated by graphviz version 14.1.4 (20260321.0153)
 -->
<!-- Title: src/sensesp/net/web/config_handler.h Pages: 1 -->
<svg width="1373pt" height="172pt"
 viewBox="0.00 0.00 1373.00 172.00" xmlns="http://www.w3.org/2000/svg" xmlns:xlink="http://www.w3.org/1999/xlink">
<g id="graph0" class="graph" transform="scale(1 1) rotate(0) translate(4 167.5)">
<title>src/sensesp/net/web/config_handler.h</title>
<!-- Node1 -->
<g id="Node000001" class="node">
<title>Node1</title>
<g id="a_Node000001"><a xlink:title=" ">
<polygon fill="#999999" stroke="#666666" points="690.12,-163.5 583.38,-163.5 583.38,-133 690.12,-133 690.12,-163.5"/>
<text xml:space="preserve" text-anchor="start" x="591.38" y="-150" font-family="Helvetica,sans-Serif" font-size="10.00">src/sensesp/net/web</text>
<text xml:space="preserve" text-anchor="middle" x="636.75" y="-138.75" font-family="Helvetica,sans-Serif" font-size="10.00">/config_handler.h</text>
</a>
</g>
</g>
<!-- Node2 -->
<g id="Node000002" class="node">
<title>Node2</title>
<g id="a_Node000002"><a xlink:href="config__handler_8cpp.html" target="_top" xlink:title=" ">
<polygon fill="white" stroke="#666666" points="630.12,-97 523.38,-97 523.38,-66.5 630.12,-66.5 630.12,-97"/>
<text xml:space="preserve" text-anchor="start" x="531.38" y="-83.5" font-family="Helvetica,sans-Serif" font-size="10.00">src/sensesp/net/web</text>
<text xml:space="preserve" text-anchor="middle" x="576.75" y="-72.25" font-family="Helvetica,sans-Serif" font-size="10.00">/config_handler.cpp</text>
</a>
</g>
</g>
<!-- Node1&#45;&gt;Node2 -->
<g id="edge1_Node000001_Node000002" class="edge">
<title>Node1&#45;&gt;Node2</title>
<g id="a_edge1_Node000001_Node000002"><a xlink:title=" ">
<path fill="none" stroke="#63b8ff" d="M615.5,-124.41C607.12,-115.4 597.74,-105.32 590.31,-97.33"/>
<polygon fill="#63b8ff" stroke="#63b8ff" points="612.73,-126.57 622.1,-131.51 617.86,-121.8 612.73,-126.57"/>
</a>
</g>
</g>
<!-- Node3 -->
<g id="Node000003" class="node">
<title>Node3</title>
<g id="a_Node000003"><a xlink:href="sensesp__app_8h.html" target="_top" xlink:title=" ">
<polygon fill="white" stroke="#666666" points="747,-91.38 648.5,-91.38 648.5,-72.12 747,-72.12 747,-91.38"/>
<text xml:space="preserve" text-anchor="middle" x="697.75" y="-77.88" font-family="Helvetica,sans-Serif" font-size="10.00">src/sensesp_app.h</text>
</a>
</g>
</g>
<!-- Node1&#45;&gt;Node3 -->
<g id="edge2_Node000001_Node000003" class="edge">
<title>Node1&#45;&gt;Node3</title>
<g id="a_edge2_Node000001_Node000003"><a xlink:title=" ">
<path fill="none" stroke="#63b8ff" d="M658.39,-124.37C669.11,-113.03 681.45,-99.99 689.41,-91.57"/>
<polygon fill="#63b8ff" stroke="#63b8ff" points="655.96,-121.84 651.63,-131.51 661.05,-126.65 655.96,-121.84"/>
</a>
</g>
</g>
<!-- Node4 -->
<g id="Node000004" class="node">
<title>Node4</title>
<g id="a_Node000004"><a xlink:href="app__command__handler_8cpp.html" target="_top" xlink:title=" ">
<polygon fill="white" stroke="#666666" points="137.5,-30.5 0,-30.5 0,0 137.5,0 137.5,-30.5"/>
<text xml:space="preserve" text-anchor="start" x="8" y="-17" font-family="Helvetica,sans-Serif" font-size="10.00">src/sensesp/net/web</text>
<text xml:space="preserve" text-anchor="middle" x="68.75" y="-5.75" font-family="Helvetica,sans-Serif" font-size="10.00">/app_command_handler.cpp</text>
</a>
</g>
</g>
<!-- Node3&#45;&gt;Node4 -->
<g id="edge3_Node000003_Node000004" class="edge">
<title>Node3&#45;&gt;Node4</title>
<g id="a_edge3_Node000003_Node000004"><a xlink:title=" ">
<path fill="none" stroke="#63b8ff" d="M653.13,-69.16C648.3,-68.15 643.44,-67.23 638.75,-66.5 422.13,-32.65 364.24,-58.24 146.75,-30.5 143.75,-30.12 140.68,-29.69 137.59,-29.24"/>
<polygon fill="#63b8ff" stroke="#63b8ff" points="652.24,-72.55 662.77,-71.32 653.78,-65.72 652.24,-72.55"/>
</a>
</g>
</g>
<!-- Node5 -->
<g id="Node000005" class="node">
<title>Node5</title>
<g id="a_Node000005"><a xlink:href="base__command__handler_8cpp.html" target="_top" xlink:title=" ">
<polygon fill="white" stroke="#666666" points="298.12,-30.5 155.38,-30.5 155.38,0 298.12,0 298.12,-30.5"/>
<text xml:space="preserve" text-anchor="start" x="163.38" y="-17" font-family="Helvetica,sans-Serif" font-size="10.00">src/sensesp/net/web</text>
<text xml:space="preserve" text-anchor="middle" x="226.75" y="-5.75" font-family="Helvetica,sans-Serif" font-size="10.00">/base_command_handler.cpp</text>
</a>
</g>
</g>
<!-- Node3&#45;&gt;Node5 -->
<g id="edge4_Node000003_Node000005" class="edge">
<title>Node3&#45;&gt;Node5</title>
<g id="a_edge4_Node000003_Node000005"><a xlink:title=" ">
<path fill="none" stroke="#63b8ff" d="M652.17,-69.12C647.65,-68.16 643.12,-67.26 638.75,-66.5 492.53,-41.02 453.67,-51.53 306.75,-30.5 303.96,-30.1 301.11,-29.68 298.24,-29.23"/>
<polygon fill="#63b8ff" stroke="#63b8ff" points="651.27,-72.51 661.8,-71.3 652.82,-65.68 651.27,-72.51"/>
</a>
</g>
</g>
<!-- Node6 -->
<g id="Node000006" class="node">
<title>Node6</title>
<g id="a_Node000006"><a xlink:href="wifi__provisioner_8cpp.html" target="_top" xlink:title=" ">
<polygon fill="white" stroke="#666666" points="419.62,-30.5 315.88,-30.5 315.88,0 419.62,0 419.62,-30.5"/>
<text xml:space="preserve" text-anchor="start" x="323.88" y="-17" font-family="Helvetica,sans-Serif" font-size="10.00">src/sensesp/net/wifi</text>
<text xml:space="preserve" text-anchor="middle" x="367.75" y="-5.75" font-family="Helvetica,sans-Serif" font-size="10.00">_provisioner.cpp</text>
</a>
</g>
</g>
<!-- Node3&#45;&gt;Node6 -->
<g id="edge5_Node000003_Node000006" class="edge">
<title>Node3&#45;&gt;Node6</title>
<g id="a_edge5_Node000003_Node000006"><a xlink:title=" ">
<path fill="none" stroke="#63b8ff" d="M651.05,-69.16C646.9,-68.23 642.75,-67.33 638.75,-66.5 546.01,-47.37 521.56,-49.28 428.75,-30.5 425.87,-29.92 422.92,-29.3 419.95,-28.66"/>
<polygon fill="#63b8ff" stroke="#63b8ff" points="649.95,-72.5 660.48,-71.35 651.53,-65.68 649.95,-72.5"/>
</a>
</g>
</g>
<!-- Node7 -->
<g id="Node000007" class="node">
<title>Node7</title>
<g id="a_Node000007"><a xlink:href="system__info_8cpp.html" target="_top" xlink:title=" ">
<polygon fill="white" stroke="#666666" points="544.12,-30.5 437.38,-30.5 437.38,0 544.12,0 544.12,-30.5"/>
<text xml:space="preserve" text-anchor="start" x="445.38" y="-17" font-family="Helvetica,sans-Serif" font-size="10.00">src/sensesp/sensors</text>
<text xml:space="preserve" text-anchor="middle" x="490.75" y="-5.75" font-family="Helvetica,sans-Serif" font-size="10.00">/system_info.cpp</text>
</a>
</g>
</g>
<!-- Node3&#45;&gt;Node7 -->
<g id="edge6_Node000003_Node000007" class="edge">
<title>Node3&#45;&gt;Node7</title>
<g id="a_edge6_Node000003_Node000007"><a xlink:title=" ">
<path fill="none" stroke="#63b8ff" d="M657.96,-68.35C623.65,-57.66 574.03,-42.2 537.76,-30.9"/>
<polygon fill="#63b8ff" stroke="#63b8ff" points="656.5,-71.56 667.09,-71.2 658.58,-64.88 656.5,-71.56"/>
</a>
</g>
</g>
<!-- Node8 -->
<g id="Node000008" class="node">
<title>Node8</title>
<g id="a_Node000008"><a xlink:href="signalk__delta__queue_8cpp.html" target="_top" xlink:title=" ">
<polygon fill="white" stroke="#666666" points="688.88,-30.5 562.62,-30.5 562.62,0 688.88,0 688.88,-30.5"/>
<text xml:space="preserve" text-anchor="start" x="570.62" y="-17" font-family="Helvetica,sans-Serif" font-size="10.00">src/sensesp/signalk</text>
<text xml:space="preserve" text-anchor="middle" x="625.75" y="-5.75" font-family="Helvetica,sans-Serif" font-size="10.00">/signalk_delta_queue.cpp</text>
</a>
</g>
</g>
<!-- Node3&#45;&gt;Node8 -->
<g id="edge7_Node000003_Node000008" class="edge">
<title>Node3&#45;&gt;Node8</title>
<g id="a_edge7_Node000003_Node000008"><a xlink:title=" ">
<path fill="none" stroke="#63b8ff" d="M679.32,-64.24C667.81,-53.92 653.12,-40.77 642.04,-30.84"/>
<polygon fill="#63b8ff" stroke="#63b8ff" points="676.83,-66.71 686.61,-70.77 681.5,-61.49 676.83,-66.71"/>
</a>
</g>
</g>
<!-- Node9 -->
<g id="Node000009" class="node">
<title>Node9</title>
<g id="a_Node000009"><a xlink:href="signalk__put__request_8cpp.html" target="_top" xlink:title=" ">
<polygon fill="white" stroke="#666666" points="832.12,-30.5 707.38,-30.5 707.38,0 832.12,0 832.12,-30.5"/>
<text xml:space="preserve" text-anchor="start" x="715.38" y="-17" font-family="Helvetica,sans-Serif" font-size="10.00">src/sensesp/signalk</text>
<text xml:space="preserve" text-anchor="middle" x="769.75" y="-5.75" font-family="Helvetica,sans-Serif" font-size="10.00">/signalk_put_request.cpp</text>
</a>
</g>
</g>
<!-- Node3&#45;&gt;Node9 -->
<g id="edge8_Node000003_Node000009" class="edge">
<title>Node3&#45;&gt;Node9</title>
<g id="a_edge8_Node000003_Node000009"><a xlink:title=" ">
<path fill="none" stroke="#63b8ff" d="M716.18,-64.24C727.69,-53.92 742.38,-40.77 753.46,-30.84"/>
<polygon fill="#63b8ff" stroke="#63b8ff" points="714,-61.49 708.89,-70.77 718.67,-66.71 714,-61.49"/>
</a>
</g>
</g>
<!-- Node10 -->
<g id="Node000010" class="node">
<title>Node10</title>
<g id="a_Node000010"><a xlink:href="signalk__ws__client_8cpp.html" target="_top" xlink:title=" ">
<polygon fill="white" stroke="#666666" points="965.25,-30.5 850.25,-30.5 850.25,0 965.25,0 965.25,-30.5"/>
<text xml:space="preserve" text-anchor="start" x="858.25" y="-17" font-family="Helvetica,sans-Serif" font-size="10.00">src/sensesp/signalk</text>
<text xml:space="preserve" text-anchor="middle" x="907.75" y="-5.75" font-family="Helvetica,sans-Serif" font-size="10.00">/signalk_ws_client.cpp</text>
</a>
</g>
</g>
<!-- Node3&#45;&gt;Node10 -->
<g id="edge9_Node000003_Node000010" class="edge">
<title>Node3&#45;&gt;Node10</title>
<g id="a_edge9_Node000003_Node000010"><a xlink:title=" ">
<path fill="none" stroke="#63b8ff" d="M738.11,-68.35C772.93,-57.66 823.26,-42.2 860.06,-30.9"/>
<polygon fill="#63b8ff" stroke="#63b8ff" points="737.37,-64.92 728.84,-71.2 739.43,-71.61 737.37,-64.92"/>
</a>
</g>
</g>
<!-- Node11 -->
<g id="Node000011" class="node">
<title>Node11</title>
<g id="a_Node000011"><a xlink:href="button_8cpp.html" target="_top" xlink:title=" ">
<polygon fill="white" stroke="#666666" points="1088,-30.5 983.5,-30.5 983.5,0 1088,0 1088,-30.5"/>
<text xml:space="preserve" text-anchor="start" x="991.5" y="-17" font-family="Helvetica,sans-Serif" font-size="10.00">src/sensesp/system</text>
<text xml:space="preserve" text-anchor="middle" x="1035.75" y="-5.75" font-family="Helvetica,sans-Serif" font-size="10.00">/button.cpp</text>
</a>
</g>
</g>
<!-- Node3&#45;&gt;Node11 -->
<g id="edge10_Node000003_Node000011" class="edge">
<title>Node3&#45;&gt;Node11</title>
<g id="a_edge10_Node000003_Node000011"><a xlink:title=" ">
<path fill="none" stroke="#63b8ff" d="M758.62,-70.61C814.86,-61.03 900.65,-45.87 974.75,-30.5 977.52,-29.93 980.35,-29.32 983.21,-28.7"/>
<polygon fill="#63b8ff" stroke="#63b8ff" points="758.2,-67.13 748.92,-72.25 759.37,-74.03 758.2,-67.13"/>
</a>
</g>
</g>
<!-- Node12 -->
<g id="Node000012" class="node">
<title>Node12</title>
<g id="a_Node000012"><a xlink:href="sensesp__app_8cpp.html" target="_top" xlink:title=" ">
<polygon fill="white" stroke="#666666" points="1215.25,-24.88 1106.25,-24.88 1106.25,-5.63 1215.25,-5.63 1215.25,-24.88"/>
<text xml:space="preserve" text-anchor="middle" x="1160.75" y="-11.38" font-family="Helvetica,sans-Serif" font-size="10.00">src/sensesp_app.cpp</text>
</a>
</g>
</g>
<!-- Node3&#45;&gt;Node12 -->
<g id="edge11_Node000003_Node000012" class="edge">
<title>Node3&#45;&gt;Node12</title>
<g id="a_edge11_Node000003_Node000012"><a xlink:title=" ">
<path fill="none" stroke="#63b8ff" d="M758.54,-74.89C837,-66.91 977.59,-51.22 1096.75,-30.5 1105.16,-29.04 1114.14,-27.21 1122.62,-25.35"/>
<polygon fill="#63b8ff" stroke="#63b8ff" points="758.53,-71.37 748.93,-75.86 759.23,-78.33 758.53,-71.37"/>
</a>
</g>
</g>
<!-- Node13 -->
<g id="Node000013" class="node">
<title>Node13</title>
<g id="a_Node000013"><a xlink:href="sensesp__app__builder_8h.html" target="_top" xlink:title=" ">
<polygon fill="white" stroke="#666666" points="1364.5,-24.88 1233,-24.88 1233,-5.63 1364.5,-5.63 1364.5,-24.88"/>
<text xml:space="preserve" text-anchor="middle" x="1298.75" y="-11.38" font-family="Helvetica,sans-Serif" font-size="10.00">src/sensesp_app_builder.h</text>
</a>
</g>
</g>
<!-- Node3&#45;&gt;Node13 -->
<g id="edge12_Node000003_Node000013" class="edge">
<title>Node3&#45;&gt;Node13</title>
<g id="a_edge12_Node000003_Node000013"><a xlink:title=" ">
<path fill="none" stroke="#63b8ff" d="M758.54,-76.84C856.85,-70.1 1056.73,-54.63 1224.75,-30.5 1234.72,-29.07 1245.39,-27.21 1255.43,-25.31"/>
<polygon fill="#63b8ff" stroke="#63b8ff" points="758.59,-73.33 748.85,-77.5 759.07,-80.31 758.59,-73.33"/>
</a>
</g>
</g>
</g>
</svg>
