<?xml version="1.0" encoding="UTF-8" standalone="no"?>
<!DOCTYPE svg PUBLIC "-//W3C//DTD SVG 1.1//EN"
 "http://www.w3.org/Graphics/SVG/1.1/DTD/svg11.dtd">
<!-- Generated by graphviz version 2.40.1 (20161225.0304)
 -->
<!-- Title: src/system/configurable.cpp Pages: 1 -->
<svg width="412pt" height="137pt"
 viewBox="0.00 0.00 412.38 137.00" xmlns="http://www.w3.org/2000/svg" xmlns:xlink="http://www.w3.org/1999/xlink">
<g id="graph0" class="graph" transform="scale(1 1) rotate(0) translate(4 133)">
<title>src/system/configurable.cpp</title>
<polygon fill="#ffffff" stroke="transparent" points="-4,4 -4,-133 408.3765,-133 408.3765,4 -4,4"/>
<!-- Node0 -->
<g id="node1" class="node">
<title>Node0</title>
<g id="a_node1"><a xlink:title=" ">
<polygon fill="#bfbfbf" stroke="#000000" points="119.9951,-110.5 119.9951,-128.5 259.9355,-128.5 259.9355,-110.5 119.9951,-110.5"/>
<text text-anchor="middle" x="189.9653" y="-116.5" font-family="Helvetica,sans-Serif" font-size="10.00" fill="#000000">src/system/configurable.cpp</text>
</a>
</g>
</g>
<!-- Node1 -->
<g id="node2" class="node">
<title>Node1</title>
<g id="a_node2"><a xlink:href="configurable_8h.html" target="_top" xlink:title=" ">
<polygon fill="#ffffff" stroke="#000000" points="106.5542,-55.5 106.5542,-73.5 185.3765,-73.5 185.3765,-55.5 106.5542,-55.5"/>
<text text-anchor="middle" x="145.9653" y="-61.5" font-family="Helvetica,sans-Serif" font-size="10.00" fill="#000000">configurable.h</text>
</a>
</g>
</g>
<!-- Node0&#45;&gt;Node1 -->
<g id="edge1" class="edge">
<title>Node0&#45;&gt;Node1</title>
<path fill="none" stroke="#191970" d="M182.6996,-110.4179C176.4953,-102.6624 167.3973,-91.29 159.8081,-81.8035"/>
<polygon fill="#191970" stroke="#191970" points="162.3689,-79.4017 153.3889,-73.7795 156.9028,-83.7746 162.3689,-79.4017"/>
</g>
<!-- Node5 -->
<g id="node6" class="node">
<title>Node5</title>
<g id="a_node6"><a xlink:href="sensesp_8h.html" target="_top" xlink:title=" ">
<polygon fill="#ffffff" stroke="#000000" points="232.1724,-55.5 232.1724,-73.5 293.7583,-73.5 293.7583,-55.5 232.1724,-55.5"/>
<text text-anchor="middle" x="262.9653" y="-61.5" font-family="Helvetica,sans-Serif" font-size="10.00" fill="#000000">sensesp.h</text>
</a>
</g>
</g>
<!-- Node0&#45;&gt;Node5 -->
<g id="edge5" class="edge">
<title>Node0&#45;&gt;Node5</title>
<path fill="none" stroke="#191970" d="M202.0198,-110.4179C213.0487,-102.1084 229.5885,-89.6469 242.656,-79.8015"/>
<polygon fill="#191970" stroke="#191970" points="244.7682,-82.5924 250.649,-73.7795 240.556,-77.0016 244.7682,-82.5924"/>
</g>
<!-- Node2 -->
<g id="node3" class="node">
<title>Node2</title>
<g id="a_node3"><a xlink:title=" ">
<polygon fill="#ffffff" stroke="#bfbfbf" points="0,-.5 0,-18.5 79.9307,-18.5 79.9307,-.5 0,-.5"/>
<text text-anchor="middle" x="39.9653" y="-6.5" font-family="Helvetica,sans-Serif" font-size="10.00" fill="#000000">ArduinoJson.h</text>
</a>
</g>
</g>
<!-- Node1&#45;&gt;Node2 -->
<g id="edge2" class="edge">
<title>Node1&#45;&gt;Node2</title>
<path fill="none" stroke="#191970" d="M128.4616,-55.4179C111.5834,-46.6603 85.8166,-33.2907 66.4317,-23.2326"/>
<polygon fill="#191970" stroke="#191970" points="67.9834,-20.0946 57.4951,-18.5956 64.7594,-26.308 67.9834,-20.0946"/>
</g>
<!-- Node3 -->
<g id="node4" class="node">
<title>Node3</title>
<g id="a_node4"><a xlink:title=" ">
<polygon fill="#ffffff" stroke="#bfbfbf" points="98.2388,-.5 98.2388,-18.5 133.6919,-18.5 133.6919,-.5 98.2388,-.5"/>
<text text-anchor="middle" x="115.9653" y="-6.5" font-family="Helvetica,sans-Serif" font-size="10.00" fill="#000000">map</text>
</a>
</g>
</g>
<!-- Node1&#45;&gt;Node3 -->
<g id="edge3" class="edge">
<title>Node1&#45;&gt;Node3</title>
<path fill="none" stroke="#191970" d="M141.0114,-55.4179C136.9107,-47.8998 130.956,-36.9829 125.8816,-27.6799"/>
<polygon fill="#191970" stroke="#191970" points="128.8881,-25.8824 121.0269,-18.7795 122.7428,-29.2344 128.8881,-25.8824"/>
</g>
<!-- Node4 -->
<g id="node5" class="node">
<title>Node4</title>
<g id="a_node5"><a xlink:title=" ">
<polygon fill="#ffffff" stroke="#bfbfbf" points="151.5615,-.5 151.5615,-18.5 210.3691,-18.5 210.3691,-.5 151.5615,-.5"/>
<text text-anchor="middle" x="180.9653" y="-6.5" font-family="Helvetica,sans-Serif" font-size="10.00" fill="#000000">Arduino.h</text>
</a>
</g>
</g>
<!-- Node1&#45;&gt;Node4 -->
<g id="edge4" class="edge">
<title>Node1&#45;&gt;Node4</title>
<path fill="none" stroke="#191970" d="M151.7449,-55.4179C156.5794,-47.8207 163.6227,-36.7527 169.5829,-27.3866"/>
<polygon fill="#191970" stroke="#191970" points="172.6442,-29.0952 175.0602,-18.7795 166.7386,-25.337 172.6442,-29.0952"/>
</g>
<!-- Node6 -->
<g id="node7" class="node">
<title>Node6</title>
<g id="a_node7"><a xlink:title=" ">
<polygon fill="#ffffff" stroke="#bfbfbf" points="228.3735,-.5 228.3735,-18.5 297.5571,-18.5 297.5571,-.5 228.3735,-.5"/>
<text text-anchor="middle" x="262.9653" y="-6.5" font-family="Helvetica,sans-Serif" font-size="10.00" fill="#000000">ReactESP.h</text>
</a>
</g>
</g>
<!-- Node5&#45;&gt;Node6 -->
<g id="edge6" class="edge">
<title>Node5&#45;&gt;Node6</title>
<path fill="none" stroke="#191970" d="M262.9653,-55.4179C262.9653,-48.2164 262.9653,-37.8962 262.9653,-28.8632"/>
<polygon fill="#191970" stroke="#191970" points="266.4654,-28.7794 262.9653,-18.7795 259.4654,-28.7795 266.4654,-28.7794"/>
</g>
<!-- Node7 -->
<g id="node8" class="node">
<title>Node7</title>
<g id="a_node8"><a xlink:title=" ">
<polygon fill="#ffffff" stroke="#bfbfbf" points="315.5542,-.5 315.5542,-18.5 404.3765,-18.5 404.3765,-.5 315.5542,-.5"/>
<text text-anchor="middle" x="359.9653" y="-6.5" font-family="Helvetica,sans-Serif" font-size="10.00" fill="#000000">RemoteDebug.h</text>
</a>
</g>
</g>
<!-- Node5&#45;&gt;Node7 -->
<g id="edge7" class="edge">
<title>Node5&#45;&gt;Node7</title>
<path fill="none" stroke="#191970" d="M278.9829,-55.4179C294.1472,-46.8195 317.1524,-33.7754 334.7728,-23.7844"/>
<polygon fill="#191970" stroke="#191970" points="336.9514,-26.5727 343.924,-18.5956 333.4987,-20.4834 336.9514,-26.5727"/>
</g>
</g>
</svg>
