<?xml version="1.0" encoding="UTF-8" standalone="no"?>
<!DOCTYPE svg PUBLIC "-//W3C//DTD SVG 1.1//EN"
 "http://www.w3.org/Graphics/SVG/1.1/DTD/svg11.dtd">
<!-- Generated by graphviz version 14.1.4 (20260321.0153)
 -->
<!-- Title: src/sensesp/sensors/constant_sensor.h Pages: 1 -->
<!--zoomable 547 -->

<svg id="main" version="1.1" xmlns="http://www.w3.org/2000/svg" xmlns:xlink="http://www.w3.org/1999/xlink" xml:space="preserve" onload="init(evt)">

<style type="text/css"><![CDATA[
.node, .edge {opacity: 0.7;}
.node.selected, .edge.selected {opacity: 1;}
.edge:hover path { stroke: red; }
.edge:hover polygon { stroke: red; fill: red; }
]]></style>

<defs>
  <circle id="rim" cx="0" cy="0" r="7"/>
  <circle id="rim2" cx="0" cy="0" r="3.5"/>
  <g id="zoomPlus">
    <use xlink:href="#rim" fill="#404040"><set attributeName="fill" to="#808080" begin="zoomplus.mouseover" end="zoomplus.mouseout"/></use>
    <path d="M-4,0h8M0,-4v8" fill="none" stroke="white" stroke-width="1.5" pointer-events="none"/>
  </g>
  <g id="zoomMin">
    <use xlink:href="#rim" fill="#404040"><set attributeName="fill" to="#808080" begin="zoomminus.mouseover" end="zoomminus.mouseout"/></use>
    <path d="M-4,0h8" fill="none" stroke="white" stroke-width="1.5" pointer-events="none"/>
  </g>
  <g id="arrowUp" transform="translate(30 24)">
    <use xlink:href="#rim"/>
    <path pointer-events="none" fill="none" stroke="white" stroke-width="1.5" d="M0,-3.0v7 M-2.5,-0.5L0,-3.0L2.5,-0.5"/>
  </g>
  <g id="arrowRight" transform="rotate(90) translate(36 -43)">
    <use xlink:href="#rim"/>
    <path pointer-events="none" fill="none" stroke="white" stroke-width="1.5" d="M0,-3.0v7 M-2.5,-0.5L0,-3.0L2.5,-0.5"/>
  </g>
  <g id="arrowDown" transform="rotate(180) translate(-30 -48)">
    <use xlink:href="#rim"/>
    <path pointer-events="none" fill="none" stroke="white" stroke-width="1.5" d="M0,-3.0v7 M-2.5,-0.5L0,-3.0L2.5,-0.5"/>
  </g>
  <g id="arrowLeft" transform="rotate(270) translate(-36 17)">
    <use xlink:href="#rim"/>
    <path pointer-events="none" fill="none" stroke="white" stroke-width="1.5" d="M0,-3.0v7 M-2.5,-0.5L0,-3.0L2.5,-0.5"/>
  </g>
  <g id="resetDef">
    <use xlink:href="#rim2" fill="#404040"><set attributeName="fill" to="#808080" begin="reset.mouseover" end="reset.mouseout"/></use>
  </g>
</defs>
<script type="application/ecmascript">
var viewWidth = 1034;
var viewHeight = 547;
var sectionId = 'dynsection-0';
</script>
<script type="application/ecmascript" xlink:href="svg.min.js"/>
<svg id="graph" class="graph">
<g id="viewport">
<title>src/sensesp/sensors/constant_sensor.h</title>
<!-- Node1 -->
<g id="Node000001" class="node">
<title>Node1</title>
<g id="a_Node000001"><a xlink:title=" ">
<polygon fill="#999999" stroke="#666666" points="453.38,-539 346.62,-539 346.62,-508.5 453.38,-508.5 453.38,-539"/>
<text xml:space="preserve" text-anchor="start" x="354.62" y="-525.5" font-family="Helvetica,sans-Serif" font-size="10.00">src/sensesp/sensors</text>
<text xml:space="preserve" text-anchor="middle" x="400" y="-514.25" font-family="Helvetica,sans-Serif" font-size="10.00">/constant_sensor.h</text>
</a>
</g>
</g>
<!-- Node2 -->
<g id="Node000002" class="node">
<title>Node2</title>
<g id="a_Node000002"><a xlink:title=" ">
<polygon fill="#e0e0e0" stroke="#999999" points="641.62,-19.25 584.38,-19.25 584.38,0 641.62,0 641.62,-19.25"/>
<text xml:space="preserve" text-anchor="middle" x="613" y="-5.75" font-family="Helvetica,sans-Serif" font-size="10.00">Arduino.h</text>
</a>
</g>
</g>
<!-- Node1&#45;&gt;Node2 -->
<g id="edge1_Node000001_Node000002" class="edge">
<title>Node1&#45;&gt;Node2</title>
<g id="a_edge1_Node000001_Node000002"><a xlink:title=" ">
<path fill="none" stroke="#63b8ff" d="M346.47,-518.73C237.47,-509.07 0,-479.85 0,-408.62 0,-408.62 0,-408.62 0,-130.38 0,-86.22 25.62,-75.22 65,-55.25 153.81,-10.21 461.88,-8.94 572.8,-10.02"/>
<polygon fill="#63b8ff" stroke="#63b8ff" points="572.57,-13.51 582.61,-10.13 572.65,-6.52 572.57,-13.51"/>
</a>
</g>
</g>
<!-- Node3 -->
<g id="Node000003" class="node">
<title>Node3</title>
<g id="a_Node000003"><a xlink:href="config__item_8h.html" target="_top" xlink:title=" ">
<polygon fill="white" stroke="#666666" points="628.38,-306.75 503.62,-306.75 503.62,-287.5 628.38,-287.5 628.38,-306.75"/>
<text xml:space="preserve" text-anchor="middle" x="566" y="-293.25" font-family="Helvetica,sans-Serif" font-size="10.00">sensesp/ui/config_item.h</text>
</a>
</g>
</g>
<!-- Node1&#45;&gt;Node3 -->
<g id="edge2_Node000001_Node000003" class="edge">
<title>Node1&#45;&gt;Node3</title>
<g id="a_edge2_Node000001_Node000003"><a xlink:title=" ">
<path fill="none" stroke="#63b8ff" d="M403.71,-508.44C412.86,-475.58 439.27,-393.63 487,-342.75 499.35,-329.59 516.46,-319.27 531.61,-311.89"/>
<polygon fill="#63b8ff" stroke="#63b8ff" points="532.7,-315.24 540.32,-307.88 529.77,-308.88 532.7,-315.24"/>
</a>
</g>
</g>
<!-- Node16 -->
<g id="Node000016" class="node">
<title>Node16</title>
<g id="a_Node000016"><a xlink:href="sensor_8h.html" target="_top" xlink:title=" ">
<polygon fill="white" stroke="#666666" points="361,-472.5 231,-472.5 231,-453.25 361,-453.25 361,-472.5"/>
<text xml:space="preserve" text-anchor="middle" x="296" y="-459" font-family="Helvetica,sans-Serif" font-size="10.00">sensesp/sensors/sensor.h</text>
</a>
</g>
</g>
<!-- Node1&#45;&gt;Node16 -->
<g id="edge23_Node000001_Node000016" class="edge">
<title>Node1&#45;&gt;Node16</title>
<g id="a_edge23_Node000001_Node000016"><a xlink:title=" ">
<path fill="none" stroke="#63b8ff" d="M374.02,-508.05C358.03,-498.99 337.62,-487.44 321.68,-478.41"/>
<polygon fill="#63b8ff" stroke="#63b8ff" points="323.69,-475.53 313.27,-473.65 320.24,-481.62 323.69,-475.53"/>
</a>
</g>
</g>
<!-- Node24 -->
<g id="Node000024" class="node">
<title>Node24</title>
<g id="a_Node000024"><a xlink:href="sensesp__base__app_8h.html" target="_top" xlink:title=" ">
<polygon fill="white" stroke="#666666" points="816.12,-417.25 707.88,-417.25 707.88,-398 816.12,-398 816.12,-417.25"/>
<text xml:space="preserve" text-anchor="middle" x="762" y="-403.75" font-family="Helvetica,sans-Serif" font-size="10.00">sensesp_base_app.h</text>
</a>
</g>
</g>
<!-- Node1&#45;&gt;Node24 -->
<g id="edge52_Node000001_Node000024" class="edge">
<title>Node1&#45;&gt;Node24</title>
<g id="a_edge52_Node000001_Node000024"><a xlink:title=" ">
<path fill="none" stroke="#63b8ff" d="M446.58,-508.06C518.43,-485.41 655,-442.36 722.38,-421.11"/>
<polygon fill="#63b8ff" stroke="#63b8ff" points="723.43,-424.46 731.91,-418.11 721.32,-417.78 723.43,-424.46"/>
</a>
</g>
</g>
<!-- Node3&#45;&gt;Node2 -->
<g id="edge7_Node000003_Node000002" class="edge">
<title>Node3&#45;&gt;Node2</title>
<g id="a_edge7_Node000003_Node000002"><a xlink:title=" ">
<path fill="none" stroke="#63b8ff" d="M556.67,-287.23C548.64,-278.88 537.64,-265.59 533,-251.5 505.66,-168.55 498.72,-130.53 543,-55.25 550.84,-41.92 564.41,-31.92 577.52,-24.81"/>
<polygon fill="#63b8ff" stroke="#63b8ff" points="579.06,-27.95 586.47,-20.38 575.96,-21.68 579.06,-27.95"/>
</a>
</g>
</g>
<!-- Node4 -->
<g id="Node000004" class="node">
<title>Node4</title>
<g id="a_Node000004"><a xlink:title=" ">
<polygon fill="#e0e0e0" stroke="#999999" points="448.38,-251.5 413.62,-251.5 413.62,-232.25 448.38,-232.25 448.38,-251.5"/>
<text xml:space="preserve" text-anchor="middle" x="431" y="-238" font-family="Helvetica,sans-Serif" font-size="10.00">map</text>
</a>
</g>
</g>
<!-- Node3&#45;&gt;Node4 -->
<g id="edge3_Node000003_Node000004" class="edge">
<title>Node3&#45;&gt;Node4</title>
<g id="a_edge3_Node000003_Node000004"><a xlink:title=" ">
<path fill="none" stroke="#63b8ff" d="M543.1,-287.09C520.01,-277.98 484.31,-263.9 459.42,-254.08"/>
<polygon fill="#63b8ff" stroke="#63b8ff" points="460.82,-250.88 450.24,-250.46 458.26,-257.39 460.82,-250.88"/>
</a>
</g>
</g>
<!-- Node5 -->
<g id="Node000005" class="node">
<title>Node5</title>
<g id="a_Node000005"><a xlink:title=" ">
<polygon fill="#e0e0e0" stroke="#999999" points="900.62,-80.12 849.38,-80.12 849.38,-60.88 900.62,-60.88 900.62,-80.12"/>
<text xml:space="preserve" text-anchor="middle" x="875" y="-66.62" font-family="Helvetica,sans-Serif" font-size="10.00">memory</text>
</a>
</g>
</g>
<!-- Node3&#45;&gt;Node5 -->
<g id="edge4_Node000003_Node000005" class="edge">
<title>Node3&#45;&gt;Node5</title>
<g id="a_edge4_Node000003_Node000005"><a xlink:title=" ">
<path fill="none" stroke="#63b8ff" d="M628.83,-290.22C686.96,-283.64 768.03,-271.23 793,-251.5 845.05,-210.38 865.24,-128.83 872.01,-91.28"/>
<polygon fill="#63b8ff" stroke="#63b8ff" points="875.39,-92.28 873.57,-81.84 868.49,-91.14 875.39,-92.28"/>
</a>
</g>
</g>
<!-- Node6 -->
<g id="Node000006" class="node">
<title>Node6</title>
<g id="a_Node000006"><a xlink:title=" ">
<polygon fill="#e0e0e0" stroke="#999999" points="491.5,-196.25 448.5,-196.25 448.5,-177 491.5,-177 491.5,-196.25"/>
<text xml:space="preserve" text-anchor="middle" x="470" y="-182.75" font-family="Helvetica,sans-Serif" font-size="10.00">vector</text>
</a>
</g>
</g>
<!-- Node3&#45;&gt;Node6 -->
<g id="edge5_Node000003_Node000006" class="edge">
<title>Node3&#45;&gt;Node6</title>
<g id="a_edge5_Node000003_Node000006"><a xlink:title=" ">
<path fill="none" stroke="#63b8ff" d="M547.48,-287.15C533.02,-279.37 513.22,-266.95 500,-251.5 488.91,-238.54 481.01,-220.78 476.11,-207.28"/>
<polygon fill="#63b8ff" stroke="#63b8ff" points="479.55,-206.54 473.05,-198.18 472.92,-208.77 479.55,-206.54"/>
</a>
</g>
</g>
<!-- Node7 -->
<g id="Node000007" class="node">
<title>Node7</title>
<g id="a_Node000007"><a xlink:title=" ">
<polygon fill="#e0e0e0" stroke="#999999" points="590.12,-251.5 541.88,-251.5 541.88,-232.25 590.12,-232.25 590.12,-251.5"/>
<text xml:space="preserve" text-anchor="middle" x="566" y="-238" font-family="Helvetica,sans-Serif" font-size="10.00">cstddef</text>
</a>
</g>
</g>
<!-- Node3&#45;&gt;Node7 -->
<g id="edge6_Node000003_Node000007" class="edge">
<title>Node3&#45;&gt;Node7</title>
<g id="a_edge6_Node000003_Node000007"><a xlink:title=" ">
<path fill="none" stroke="#63b8ff" d="M566,-287.33C566,-280.82 566,-271.67 566,-263.37"/>
<polygon fill="#63b8ff" stroke="#63b8ff" points="569.5,-263.37 566,-253.37 562.5,-263.37 569.5,-263.37"/>
</a>
</g>
</g>
<!-- Node8 -->
<g id="Node000008" class="node">
<title>Node8</title>
<g id="a_Node000008"><a xlink:title=" ">
<polygon fill="#e0e0e0" stroke="#999999" points="626.12,-141 547.88,-141 547.88,-121.75 626.12,-121.75 626.12,-141"/>
<text xml:space="preserve" text-anchor="middle" x="587" y="-127.5" font-family="Helvetica,sans-Serif" font-size="10.00">ArduinoJson.h</text>
</a>
</g>
</g>
<!-- Node3&#45;&gt;Node8 -->
<g id="edge8_Node000003_Node000008" class="edge">
<title>Node3&#45;&gt;Node8</title>
<g id="a_edge8_Node000003_Node000008"><a xlink:title=" ">
<path fill="none" stroke="#63b8ff" d="M575.33,-287.23C583.36,-278.88 594.36,-265.59 599,-251.5 610.08,-217.88 601.11,-176.27 593.86,-152.18"/>
<polygon fill="#63b8ff" stroke="#63b8ff" points="597.22,-151.19 590.81,-142.75 590.56,-153.35 597.22,-151.19"/>
</a>
</g>
</g>
<!-- Node9 -->
<g id="Node000009" class="node">
<title>Node9</title>
<g id="a_Node000009"><a xlink:href="saveable_8h.html" target="_top" xlink:title=" ">
<polygon fill="white" stroke="#666666" points="784.12,-251.5 645.88,-251.5 645.88,-232.25 784.12,-232.25 784.12,-251.5"/>
<text xml:space="preserve" text-anchor="middle" x="715" y="-238" font-family="Helvetica,sans-Serif" font-size="10.00">sensesp/system/saveable.h</text>
</a>
</g>
</g>
<!-- Node3&#45;&gt;Node9 -->
<g id="edge9_Node000003_Node000009" class="edge">
<title>Node3&#45;&gt;Node9</title>
<g id="a_edge9_Node000003_Node000009"><a xlink:title=" ">
<path fill="none" stroke="#63b8ff" d="M591.28,-287.09C615.36,-278.49 651.86,-265.44 678.98,-255.75"/>
<polygon fill="#63b8ff" stroke="#63b8ff" points="679.94,-259.12 688.17,-252.46 677.58,-252.53 679.94,-259.12"/>
</a>
</g>
</g>
<!-- Node9&#45;&gt;Node2 -->
<g id="edge18_Node000009_Node000002" class="edge">
<title>Node9&#45;&gt;Node2</title>
<g id="a_edge18_Node000009_Node000002"><a xlink:title=" ">
<path fill="none" stroke="#63b8ff" d="M704.49,-231.97C695.25,-223.61 682.04,-210.31 674,-196.25 641.47,-139.38 652.83,-117.02 631,-55.25 628.04,-46.88 624.44,-37.77 621.24,-29.98"/>
<polygon fill="#63b8ff" stroke="#63b8ff" points="624.49,-28.7 617.4,-20.82 618.04,-31.4 624.49,-28.7"/>
</a>
</g>
</g>
<!-- Node9&#45;&gt;Node8 -->
<g id="edge17_Node000009_Node000008" class="edge">
<title>Node9&#45;&gt;Node8</title>
<g id="a_edge17_Node000009_Node000008"><a xlink:title=" ">
<path fill="none" stroke="#63b8ff" d="M695.96,-231.86C680.05,-223.8 657.27,-211.02 640,-196.25 624.29,-182.82 609.55,-164.38 599.62,-150.77"/>
<polygon fill="#63b8ff" stroke="#63b8ff" points="602.54,-148.84 593.9,-142.7 596.82,-152.88 602.54,-148.84"/>
</a>
</g>
</g>
<!-- Node10 -->
<g id="Node000010" class="node">
<title>Node10</title>
<g id="a_Node000010"><a xlink:href="sensesp_8h.html" target="_top" xlink:title=" ">
<polygon fill="white" stroke="#666666" points="806.5,-141 745.5,-141 745.5,-121.75 806.5,-121.75 806.5,-141"/>
<text xml:space="preserve" text-anchor="middle" x="776" y="-127.5" font-family="Helvetica,sans-Serif" font-size="10.00">sensesp.h</text>
</a>
</g>
</g>
<!-- Node9&#45;&gt;Node10 -->
<g id="edge10_Node000009_Node000010" class="edge">
<title>Node9&#45;&gt;Node10</title>
<g id="a_edge10_Node000009_Node000010"><a xlink:title=" ">
<path fill="none" stroke="#63b8ff" d="M729.73,-231.79C741.24,-223.87 756.65,-211.31 765,-196.25 772.44,-182.83 775.08,-165.57 775.91,-152.38"/>
<polygon fill="#63b8ff" stroke="#63b8ff" points="779.4,-152.86 776.22,-142.75 772.41,-152.64 779.4,-152.86"/>
</a>
</g>
</g>
<!-- Node15 -->
<g id="Node000015" class="node">
<title>Node15</title>
<g id="a_Node000015"><a xlink:href="serializable_8h.html" target="_top" xlink:title=" ">
<polygon fill="white" stroke="#666666" points="755.5,-196.25 682.5,-196.25 682.5,-177 755.5,-177 755.5,-196.25"/>
<text xml:space="preserve" text-anchor="middle" x="719" y="-182.75" font-family="Helvetica,sans-Serif" font-size="10.00">serializable.h</text>
</a>
</g>
</g>
<!-- Node9&#45;&gt;Node15 -->
<g id="edge19_Node000009_Node000015" class="edge">
<title>Node9&#45;&gt;Node15</title>
<g id="a_edge19_Node000009_Node000015"><a xlink:title=" ">
<path fill="none" stroke="#63b8ff" d="M715.66,-232.08C716.16,-225.49 716.85,-216.21 717.48,-207.82"/>
<polygon fill="#63b8ff" stroke="#63b8ff" points="720.95,-208.35 718.21,-198.12 713.97,-207.83 720.95,-208.35"/>
</a>
</g>
</g>
<!-- Node10&#45;&gt;Node5 -->
<g id="edge12_Node000010_Node000005" class="edge">
<title>Node10&#45;&gt;Node5</title>
<g id="a_edge12_Node000010_Node000005"><a xlink:title=" ">
<path fill="none" stroke="#63b8ff" d="M791.04,-121.43C806.66,-112.14 831.39,-97.44 849.97,-86.39"/>
<polygon fill="#63b8ff" stroke="#63b8ff" points="851.72,-89.42 858.52,-81.3 848.14,-83.4 851.72,-89.42"/>
</a>
</g>
</g>
<!-- Node11 -->
<g id="Node000011" class="node">
<title>Node11</title>
<g id="a_Node000011"><a xlink:title=" ">
<polygon fill="#e0e0e0" stroke="#999999" points="621.62,-80.12 552.38,-80.12 552.38,-60.88 621.62,-60.88 621.62,-80.12"/>
<text xml:space="preserve" text-anchor="middle" x="587" y="-66.62" font-family="Helvetica,sans-Serif" font-size="10.00">ReactESP.h</text>
</a>
</g>
</g>
<!-- Node10&#45;&gt;Node11 -->
<g id="edge11_Node000010_Node000011" class="edge">
<title>Node10&#45;&gt;Node11</title>
<g id="a_edge11_Node000010_Node000011"><a xlink:title=" ">
<path fill="none" stroke="#63b8ff" d="M746.88,-121.3C714.7,-111.28 662.66,-95.07 626.74,-83.88"/>
<polygon fill="#63b8ff" stroke="#63b8ff" points="628.18,-80.66 617.6,-81.03 626.1,-87.35 628.18,-80.66"/>
</a>
</g>
</g>
<!-- Node12 -->
<g id="Node000012" class="node">
<title>Node12</title>
<g id="a_Node000012"><a xlink:href="local__debug_8h.html" target="_top" xlink:title=" ">
<polygon fill="white" stroke="#666666" points="831.62,-85.75 720.38,-85.75 720.38,-55.25 831.62,-55.25 831.62,-85.75"/>
<text xml:space="preserve" text-anchor="start" x="728.38" y="-72.25" font-family="Helvetica,sans-Serif" font-size="10.00">sensesp/system/local</text>
<text xml:space="preserve" text-anchor="middle" x="776" y="-61" font-family="Helvetica,sans-Serif" font-size="10.00">_debug.h</text>
</a>
</g>
</g>
<!-- Node10&#45;&gt;Node12 -->
<g id="edge13_Node000010_Node000012" class="edge">
<title>Node10&#45;&gt;Node12</title>
<g id="a_edge13_Node000010_Node000012"><a xlink:title=" ">
<path fill="none" stroke="#63b8ff" d="M776,-121.43C776,-114.98 776,-105.91 776,-97.26"/>
<polygon fill="#63b8ff" stroke="#63b8ff" points="779.5,-97.55 776,-87.55 772.5,-97.55 779.5,-97.55"/>
</a>
</g>
</g>
<!-- Node12&#45;&gt;Node2 -->
<g id="edge15_Node000012_Node000002" class="edge">
<title>Node12&#45;&gt;Node2</title>
<g id="a_edge15_Node000012_Node000002"><a xlink:title=" ">
<path fill="none" stroke="#63b8ff" d="M735.29,-54.8C708.68,-45.18 674.24,-32.75 648.7,-23.52"/>
<polygon fill="#63b8ff" stroke="#63b8ff" points="650.02,-20.27 639.42,-20.17 647.64,-26.86 650.02,-20.27"/>
</a>
</g>
</g>
<!-- Node13 -->
<g id="Node000013" class="node">
<title>Node13</title>
<g id="a_Node000013"><a xlink:title=" ">
<polygon fill="#e0e0e0" stroke="#999999" points="857,-19.25 775,-19.25 775,0 857,0 857,-19.25"/>
<text xml:space="preserve" text-anchor="middle" x="816" y="-5.75" font-family="Helvetica,sans-Serif" font-size="10.00">esp32&#45;hal&#45;log.h</text>
</a>
</g>
</g>
<!-- Node12&#45;&gt;Node13 -->
<g id="edge14_Node000012_Node000013" class="edge">
<title>Node12&#45;&gt;Node13</title>
<g id="a_edge14_Node000012_Node000013"><a xlink:title=" ">
<path fill="none" stroke="#63b8ff" d="M785.89,-54.95C791.22,-47.1 797.85,-37.35 803.53,-28.99"/>
<polygon fill="#63b8ff" stroke="#63b8ff" points="806.26,-31.19 808.98,-20.95 800.47,-27.26 806.26,-31.19"/>
</a>
</g>
</g>
<!-- Node14 -->
<g id="Node000014" class="node">
<title>Node14</title>
<g id="a_Node000014"><a xlink:title=" ">
<polygon fill="#e0e0e0" stroke="#999999" points="757.25,-19.25 712.75,-19.25 712.75,0 757.25,0 757.25,-19.25"/>
<text xml:space="preserve" text-anchor="middle" x="735" y="-5.75" font-family="Helvetica,sans-Serif" font-size="10.00">Print.h</text>
</a>
</g>
</g>
<!-- Node12&#45;&gt;Node14 -->
<g id="edge16_Node000012_Node000014" class="edge">
<title>Node12&#45;&gt;Node14</title>
<g id="a_edge16_Node000012_Node000014"><a xlink:title=" ">
<path fill="none" stroke="#63b8ff" d="M765.87,-54.95C760.4,-47.1 753.61,-37.35 747.79,-28.99"/>
<polygon fill="#63b8ff" stroke="#63b8ff" points="750.77,-27.15 742.19,-20.94 745.03,-31.15 750.77,-27.15"/>
</a>
</g>
</g>
<!-- Node15&#45;&gt;Node2 -->
<g id="edge22_Node000015_Node000002" class="edge">
<title>Node15&#45;&gt;Node2</title>
<g id="a_edge22_Node000015_Node000002"><a xlink:title=" ">
<path fill="none" stroke="#63b8ff" d="M717.16,-176.63C712.27,-154.3 697.25,-95.28 668,-55.25 659.67,-43.85 647.74,-33.7 637.13,-25.97"/>
<polygon fill="#63b8ff" stroke="#63b8ff" points="639.35,-23.25 629.13,-20.44 635.37,-29 639.35,-23.25"/>
</a>
</g>
</g>
<!-- Node15&#45;&gt;Node8 -->
<g id="edge21_Node000015_Node000008" class="edge">
<title>Node15&#45;&gt;Node8</title>
<g id="a_edge21_Node000015_Node000008"><a xlink:title=" ">
<path fill="none" stroke="#63b8ff" d="M696.61,-176.59C675.56,-168.1 643.8,-155.29 619.88,-145.64"/>
<polygon fill="#63b8ff" stroke="#63b8ff" points="621.49,-142.51 610.91,-142.02 618.87,-149.01 621.49,-142.51"/>
</a>
</g>
</g>
<!-- Node15&#45;&gt;Node10 -->
<g id="edge20_Node000015_Node000010" class="edge">
<title>Node15&#45;&gt;Node10</title>
<g id="a_edge20_Node000015_Node000010"><a xlink:title=" ">
<path fill="none" stroke="#63b8ff" d="M728.67,-176.59C736.74,-169.05 748.47,-158.1 758.22,-148.98"/>
<polygon fill="#63b8ff" stroke="#63b8ff" points="760.45,-151.69 765.37,-142.31 755.67,-146.58 760.45,-151.69"/>
</a>
</g>
</g>
<!-- Node16&#45;&gt;Node2 -->
<g id="edge24_Node000016_Node000002" class="edge">
<title>Node16&#45;&gt;Node2</title>
<g id="a_edge24_Node000016_Node000002"><a xlink:title=" ">
<path fill="none" stroke="#63b8ff" d="M230.56,-461.47C154.13,-457.14 38,-436.83 38,-353.38 38,-353.38 38,-353.38 38,-130.38 38,-20.99 441.88,-10.84 572.66,-10.42"/>
<polygon fill="#63b8ff" stroke="#63b8ff" points="572.58,-13.92 582.58,-10.41 572.57,-6.92 572.58,-13.92"/>
</a>
</g>
</g>
<!-- Node16&#45;&gt;Node9 -->
<g id="edge31_Node000016_Node000009" class="edge">
<title>Node16&#45;&gt;Node9</title>
<g id="a_edge31_Node000016_Node000009"><a xlink:title=" ">
<path fill="none" stroke="#63b8ff" d="M358.23,-452.77C453.5,-437.66 629.29,-404.77 675,-362 702.93,-335.87 711.36,-289.66 713.91,-263.13"/>
<polygon fill="#63b8ff" stroke="#63b8ff" points="717.38,-263.6 714.63,-253.37 710.4,-263.08 717.38,-263.6"/>
</a>
</g>
</g>
<!-- Node16&#45;&gt;Node11 -->
<g id="edge26_Node000016_Node000011" class="edge">
<title>Node16&#45;&gt;Node11</title>
<g id="a_edge26_Node000016_Node000011"><a xlink:title=" ">
<path fill="none" stroke="#63b8ff" d="M230.59,-456.89C165.74,-447.95 76,-423 76,-353.38 76,-353.38 76,-353.38 76,-185.62 76,-90.86 414.94,-74.76 540.73,-72.04"/>
<polygon fill="#63b8ff" stroke="#63b8ff" points="540.43,-75.55 550.36,-71.85 540.3,-68.55 540.43,-75.55"/>
</a>
</g>
</g>
<!-- Node17 -->
<g id="Node000017" class="node">
<title>Node17</title>
<g id="a_Node000017"><a xlink:title=" ">
<polygon fill="#e0e0e0" stroke="#999999" points="231.75,-417.25 202.25,-417.25 202.25,-398 231.75,-398 231.75,-417.25"/>
<text xml:space="preserve" text-anchor="middle" x="217" y="-403.75" font-family="Helvetica,sans-Serif" font-size="10.00">set</text>
</a>
</g>
</g>
<!-- Node16&#45;&gt;Node17 -->
<g id="edge25_Node000016_Node000017" class="edge">
<title>Node16&#45;&gt;Node17</title>
<g id="a_edge25_Node000016_Node000017"><a xlink:title=" ">
<path fill="none" stroke="#63b8ff" d="M282.6,-452.84C270.91,-444.96 253.7,-433.36 239.84,-424.02"/>
<polygon fill="#63b8ff" stroke="#63b8ff" points="241.97,-421.24 231.72,-418.55 238.06,-427.04 241.97,-421.24"/>
</a>
</g>
</g>
<!-- Node18 -->
<g id="Node000018" class="node">
<title>Node18</title>
<g id="a_Node000018"><a xlink:href="observable_8h.html" target="_top" xlink:title=" ">
<polygon fill="white" stroke="#666666" points="358.25,-251.5 211.75,-251.5 211.75,-232.25 358.25,-232.25 358.25,-251.5"/>
<text xml:space="preserve" text-anchor="middle" x="285" y="-238" font-family="Helvetica,sans-Serif" font-size="10.00">sensesp/system/observable.h</text>
</a>
</g>
</g>
<!-- Node16&#45;&gt;Node18 -->
<g id="edge27_Node000016_Node000018" class="edge">
<title>Node16&#45;&gt;Node18</title>
<g id="a_edge27_Node000016_Node000018"><a xlink:title=" ">
<path fill="none" stroke="#63b8ff" d="M294.06,-452.81C288.77,-427.01 274.75,-350.93 279,-287.5 279.54,-279.41 280.63,-270.55 281.73,-262.87"/>
<polygon fill="#63b8ff" stroke="#63b8ff" points="285.15,-263.64 283.22,-253.23 278.24,-262.57 285.15,-263.64"/>
</a>
</g>
</g>
<!-- Node21 -->
<g id="Node000021" class="node">
<title>Node21</title>
<g id="a_Node000021"><a xlink:href="valueproducer_8h.html" target="_top" xlink:title=" ">
<polygon fill="white" stroke="#666666" points="447.62,-306.75 288.38,-306.75 288.38,-287.5 447.62,-287.5 447.62,-306.75"/>
<text xml:space="preserve" text-anchor="middle" x="368" y="-293.25" font-family="Helvetica,sans-Serif" font-size="10.00">sensesp/system/valueproducer.h</text>
</a>
</g>
</g>
<!-- Node16&#45;&gt;Node21 -->
<g id="edge32_Node000016_Node000021" class="edge">
<title>Node16&#45;&gt;Node21</title>
<g id="a_edge32_Node000016_Node000021"><a xlink:title=" ">
<path fill="none" stroke="#63b8ff" d="M299.87,-453.07C311.1,-427.53 343.89,-352.95 359.52,-317.4"/>
<polygon fill="#63b8ff" stroke="#63b8ff" points="362.68,-318.92 363.5,-308.36 356.27,-316.1 362.68,-318.92"/>
</a>
</g>
</g>
<!-- Node16&#45;&gt;Node24 -->
<g id="edge40_Node000016_Node000024" class="edge">
<title>Node16&#45;&gt;Node24</title>
<g id="a_edge40_Node000016_Node000024"><a xlink:title=" ">
<path fill="none" stroke="#63b8ff" d="M361.29,-454.41C449.95,-444.28 607.56,-426.27 696.39,-416.12"/>
<polygon fill="#63b8ff" stroke="#63b8ff" points="696.62,-419.62 706.16,-415.01 695.83,-412.66 696.62,-419.62"/>
</a>
</g>
</g>
<!-- Node18&#45;&gt;Node6 -->
<g id="edge30_Node000018_Node000006" class="edge">
<title>Node18&#45;&gt;Node6</title>
<g id="a_edge30_Node000018_Node000006"><a xlink:title=" ">
<path fill="none" stroke="#63b8ff" d="M316.38,-231.84C350,-222.16 403.12,-206.88 437.26,-197.05"/>
<polygon fill="#63b8ff" stroke="#63b8ff" points="437.95,-200.49 446.6,-194.36 436.02,-193.76 437.95,-200.49"/>
</a>
</g>
</g>
<!-- Node19 -->
<g id="Node000019" class="node">
<title>Node19</title>
<g id="a_Node000019"><a xlink:title=" ">
<polygon fill="#e0e0e0" stroke="#999999" points="316.12,-196.25 249.88,-196.25 249.88,-177 316.12,-177 316.12,-196.25"/>
<text xml:space="preserve" text-anchor="middle" x="283" y="-182.75" font-family="Helvetica,sans-Serif" font-size="10.00">forward_list</text>
</a>
</g>
</g>
<!-- Node18&#45;&gt;Node19 -->
<g id="edge28_Node000018_Node000019" class="edge">
<title>Node18&#45;&gt;Node19</title>
<g id="a_edge28_Node000018_Node000019"><a xlink:title=" ">
<path fill="none" stroke="#63b8ff" d="M284.67,-232.08C284.42,-225.49 284.07,-216.21 283.76,-207.82"/>
<polygon fill="#63b8ff" stroke="#63b8ff" points="287.27,-207.98 283.39,-198.12 280.27,-208.25 287.27,-207.98"/>
</a>
</g>
</g>
<!-- Node20 -->
<g id="Node000020" class="node">
<title>Node20</title>
<g id="a_Node000020"><a xlink:title=" ">
<polygon fill="#e0e0e0" stroke="#999999" points="392,-196.25 334,-196.25 334,-177 392,-177 392,-196.25"/>
<text xml:space="preserve" text-anchor="middle" x="363" y="-182.75" font-family="Helvetica,sans-Serif" font-size="10.00">functional</text>
</a>
</g>
</g>
<!-- Node18&#45;&gt;Node20 -->
<g id="edge29_Node000018_Node000020" class="edge">
<title>Node18&#45;&gt;Node20</title>
<g id="a_edge29_Node000018_Node000020"><a xlink:title=" ">
<path fill="none" stroke="#63b8ff" d="M298.23,-231.84C309.77,-223.96 326.77,-212.36 340.45,-203.02"/>
<polygon fill="#63b8ff" stroke="#63b8ff" points="342.17,-206.08 348.45,-197.56 338.22,-200.3 342.17,-206.08"/>
</a>
</g>
</g>
<!-- Node21&#45;&gt;Node5 -->
<g id="edge34_Node000021_Node000005" class="edge">
<title>Node21&#45;&gt;Node5</title>
<g id="a_edge34_Node000021_Node000005"><a xlink:title=" ">
<path fill="none" stroke="#63b8ff" d="M372.92,-287.38C379.91,-275.02 393.18,-251.76 405,-232.25 420.07,-207.39 418.88,-196.97 440,-177 476.61,-142.38 491.07,-137.31 539,-121.75 667.57,-80.02 710.29,-120.21 841,-85.75 842.39,-85.38 843.8,-84.97 845.22,-84.52"/>
<polygon fill="#63b8ff" stroke="#63b8ff" points="846.31,-87.85 854.49,-81.12 843.89,-81.28 846.31,-87.85"/>
</a>
</g>
</g>
<!-- Node21&#45;&gt;Node8 -->
<g id="edge33_Node000021_Node000008" class="edge">
<title>Node21&#45;&gt;Node8</title>
<g id="a_edge33_Node000021_Node000008"><a xlink:title=" ">
<path fill="none" stroke="#63b8ff" d="M303.9,-287.05C216.73,-272.21 77.63,-238.08 133,-177 159.68,-147.57 423.44,-136.86 536.25,-133.6"/>
<polygon fill="#63b8ff" stroke="#63b8ff" points="536.23,-137.11 546.13,-133.33 536.03,-130.11 536.23,-137.11"/>
</a>
</g>
</g>
<!-- Node21&#45;&gt;Node18 -->
<g id="edge35_Node000021_Node000018" class="edge">
<title>Node21&#45;&gt;Node18</title>
<g id="a_edge35_Node000021_Node000018"><a xlink:title=" ">
<path fill="none" stroke="#63b8ff" d="M353.92,-287.09C341.52,-279.14 323.21,-267.39 308.57,-258"/>
<polygon fill="#63b8ff" stroke="#63b8ff" points="310.73,-255.22 300.42,-252.77 306.95,-261.12 310.73,-255.22"/>
</a>
</g>
</g>
<!-- Node22 -->
<g id="Node000022" class="node">
<title>Node22</title>
<g id="a_Node000022"><a xlink:href="valueconsumer_8h.html" target="_top" xlink:title=" ">
<polygon fill="white" stroke="#666666" points="231.75,-196.25 142.25,-196.25 142.25,-177 231.75,-177 231.75,-196.25"/>
<text xml:space="preserve" text-anchor="middle" x="187" y="-182.75" font-family="Helvetica,sans-Serif" font-size="10.00">valueconsumer.h</text>
</a>
</g>
</g>
<!-- Node21&#45;&gt;Node22 -->
<g id="edge36_Node000021_Node000022" class="edge">
<title>Node21&#45;&gt;Node22</title>
<g id="a_edge36_Node000021_Node000022"><a xlink:title=" ">
<path fill="none" stroke="#63b8ff" d="M287.98,-291.4C257.72,-285.67 225.24,-274.16 203,-251.5 191.72,-240.01 188.01,-221.82 186.95,-207.79"/>
<polygon fill="#63b8ff" stroke="#63b8ff" points="190.45,-207.77 186.64,-197.89 183.46,-208 190.45,-207.77"/>
</a>
</g>
</g>
<!-- Node22&#45;&gt;Node8 -->
<g id="edge38_Node000022_Node000008" class="edge">
<title>Node22&#45;&gt;Node8</title>
<g id="a_edge38_Node000022_Node000008"><a xlink:title=" ">
<path fill="none" stroke="#63b8ff" d="M232.07,-178.32C235.09,-177.87 238.09,-177.42 241,-177 345.84,-161.87 468.91,-146.59 536.37,-138.42"/>
<polygon fill="#63b8ff" stroke="#63b8ff" points="536.5,-141.93 546.01,-137.26 535.66,-134.98 536.5,-141.93"/>
</a>
</g>
</g>
<!-- Node22&#45;&gt;Node10 -->
<g id="edge37_Node000022_Node000010" class="edge">
<title>Node22&#45;&gt;Node10</title>
<g id="a_edge37_Node000022_Node000010"><a xlink:title=" ">
<path fill="none" stroke="#63b8ff" d="M232.05,-178.17C235.07,-177.75 238.08,-177.35 241,-177 423.85,-154.8 643.22,-140.28 733.76,-134.82"/>
<polygon fill="#63b8ff" stroke="#63b8ff" points="733.87,-138.31 743.65,-134.22 733.46,-131.33 733.87,-138.31"/>
</a>
</g>
</g>
<!-- Node23 -->
<g id="Node000023" class="node">
<title>Node23</title>
<g id="a_Node000023"><a xlink:title=" ">
<polygon fill="#e0e0e0" stroke="#999999" points="211.12,-141 162.88,-141 162.88,-121.75 211.12,-121.75 211.12,-141"/>
<text xml:space="preserve" text-anchor="middle" x="187" y="-127.5" font-family="Helvetica,sans-Serif" font-size="10.00">stdint.h</text>
</a>
</g>
</g>
<!-- Node22&#45;&gt;Node23 -->
<g id="edge39_Node000022_Node000023" class="edge">
<title>Node22&#45;&gt;Node23</title>
<g id="a_edge39_Node000022_Node000023"><a xlink:title=" ">
<path fill="none" stroke="#63b8ff" d="M187,-176.83C187,-170.32 187,-161.17 187,-152.87"/>
<polygon fill="#63b8ff" stroke="#63b8ff" points="190.5,-152.87 187,-142.87 183.5,-152.87 190.5,-152.87"/>
</a>
</g>
</g>
<!-- Node24&#45;&gt;Node5 -->
<g id="edge42_Node000024_Node000005" class="edge">
<title>Node24&#45;&gt;Node5</title>
<g id="a_edge42_Node000024_Node000005"><a xlink:title=" ">
<path fill="none" stroke="#63b8ff" d="M816.61,-403.2C879.81,-398.14 978.71,-386.48 1006,-362 1028.05,-342.22 1025,-327.74 1025,-298.12 1025,-298.12 1025,-298.12 1025,-185.62 1025,-128.76 955.88,-96.51 911.48,-81.66"/>
<polygon fill="#63b8ff" stroke="#63b8ff" points="912.82,-78.41 902.23,-78.71 910.7,-85.08 912.82,-78.41"/>
</a>
</g>
</g>
<!-- Node24&#45;&gt;Node10 -->
<g id="edge41_Node000024_Node000010" class="edge">
<title>Node24&#45;&gt;Node10</title>
<g id="a_edge41_Node000024_Node000010"><a xlink:title=" ">
<path fill="none" stroke="#63b8ff" d="M773.07,-397.7C782.26,-389.53 794.66,-376.52 800,-362 827.16,-288.21 798.6,-192.67 783.77,-152.05"/>
<polygon fill="#63b8ff" stroke="#63b8ff" points="787.12,-151.01 780.3,-142.91 780.58,-153.5 787.12,-151.01"/>
</a>
</g>
</g>
<!-- Node25 -->
<g id="Node000025" class="node">
<title>Node25</title>
<g id="a_Node000025"><a xlink:title=" ">
<polygon fill="#e0e0e0" stroke="#999999" points="791,-362 733,-362 733,-342.75 791,-342.75 791,-362"/>
<text xml:space="preserve" text-anchor="middle" x="762" y="-348.5" font-family="Helvetica,sans-Serif" font-size="10.00">esp_log.h</text>
</a>
</g>
</g>
<!-- Node24&#45;&gt;Node25 -->
<g id="edge43_Node000024_Node000025" class="edge">
<title>Node24&#45;&gt;Node25</title>
<g id="a_edge43_Node000024_Node000025"><a xlink:title=" ">
<path fill="none" stroke="#63b8ff" d="M762,-397.83C762,-391.32 762,-382.17 762,-373.87"/>
<polygon fill="#63b8ff" stroke="#63b8ff" points="765.5,-373.87 762,-363.87 758.5,-373.87 765.5,-373.87"/>
</a>
</g>
</g>
<!-- Node26 -->
<g id="Node000026" class="node">
<title>Node26</title>
<g id="a_Node000026"><a xlink:href="filesystem_8h.html" target="_top" xlink:title=" ">
<polygon fill="white" stroke="#666666" points="997.12,-362 852.88,-362 852.88,-342.75 997.12,-342.75 997.12,-362"/>
<text xml:space="preserve" text-anchor="middle" x="925" y="-348.5" font-family="Helvetica,sans-Serif" font-size="10.00">sensesp/system/filesystem.h</text>
</a>
</g>
</g>
<!-- Node24&#45;&gt;Node26 -->
<g id="edge44_Node000024_Node000026" class="edge">
<title>Node24&#45;&gt;Node26</title>
<g id="a_edge44_Node000024_Node000026"><a xlink:title=" ">
<path fill="none" stroke="#63b8ff" d="M789.65,-397.59C816.23,-388.91 856.64,-375.71 886.39,-365.99"/>
<polygon fill="#63b8ff" stroke="#63b8ff" points="887.36,-369.35 895.77,-362.92 885.18,-362.7 887.36,-369.35"/>
</a>
</g>
</g>
<!-- Node29 -->
<g id="Node000029" class="node">
<title>Node29</title>
<g id="a_Node000029"><a xlink:href="observablevalue_8h.html" target="_top" xlink:title=" ">
<polygon fill="white" stroke="#666666" points="665.88,-362 496.12,-362 496.12,-342.75 665.88,-342.75 665.88,-362"/>
<text xml:space="preserve" text-anchor="middle" x="581" y="-348.5" font-family="Helvetica,sans-Serif" font-size="10.00">sensesp/system/observablevalue.h</text>
</a>
</g>
</g>
<!-- Node24&#45;&gt;Node29 -->
<g id="edge47_Node000024_Node000029" class="edge">
<title>Node24&#45;&gt;Node29</title>
<g id="a_edge47_Node000024_Node000029"><a xlink:title=" ">
<path fill="none" stroke="#63b8ff" d="M731.3,-397.59C701.39,-388.79 655.72,-375.36 622.58,-365.61"/>
<polygon fill="#63b8ff" stroke="#63b8ff" points="623.89,-362.34 613.31,-362.88 621.91,-369.06 623.89,-362.34"/>
</a>
</g>
</g>
<!-- Node27 -->
<g id="Node000027" class="node">
<title>Node27</title>
<g id="a_Node000027"><a xlink:href="resettable_8h.html" target="_top" xlink:title=" ">
<polygon fill="white" stroke="#666666" points="958.5,-306.75 891.5,-306.75 891.5,-287.5 958.5,-287.5 958.5,-306.75"/>
<text xml:space="preserve" text-anchor="middle" x="925" y="-293.25" font-family="Helvetica,sans-Serif" font-size="10.00">resettable.h</text>
</a>
</g>
</g>
<!-- Node26&#45;&gt;Node27 -->
<g id="edge45_Node000026_Node000027" class="edge">
<title>Node26&#45;&gt;Node27</title>
<g id="a_edge45_Node000026_Node000027"><a xlink:title=" ">
<path fill="none" stroke="#63b8ff" d="M925,-342.58C925,-336.07 925,-326.92 925,-318.62"/>
<polygon fill="#63b8ff" stroke="#63b8ff" points="928.5,-318.62 925,-308.62 921.5,-318.62 928.5,-318.62"/>
</a>
</g>
</g>
<!-- Node28 -->
<g id="Node000028" class="node">
<title>Node28</title>
<g id="a_Node000028"><a xlink:title=" ">
<polygon fill="#e0e0e0" stroke="#999999" points="946.12,-251.5 903.88,-251.5 903.88,-232.25 946.12,-232.25 946.12,-251.5"/>
<text xml:space="preserve" text-anchor="middle" x="925" y="-238" font-family="Helvetica,sans-Serif" font-size="10.00">queue</text>
</a>
</g>
</g>
<!-- Node27&#45;&gt;Node28 -->
<g id="edge46_Node000027_Node000028" class="edge">
<title>Node27&#45;&gt;Node28</title>
<g id="a_edge46_Node000027_Node000028"><a xlink:title=" ">
<path fill="none" stroke="#63b8ff" d="M925,-287.33C925,-280.82 925,-271.67 925,-263.37"/>
<polygon fill="#63b8ff" stroke="#63b8ff" points="928.5,-263.37 925,-253.37 921.5,-263.37 928.5,-263.37"/>
</a>
</g>
</g>
<!-- Node29&#45;&gt;Node3 -->
<g id="edge50_Node000029_Node000003" class="edge">
<title>Node29&#45;&gt;Node3</title>
<g id="a_edge50_Node000029_Node000003"><a xlink:title=" ">
<path fill="none" stroke="#63b8ff" d="M578.52,-342.58C576.65,-335.92 573.99,-326.49 571.61,-318.03"/>
<polygon fill="#63b8ff" stroke="#63b8ff" points="575.02,-317.24 568.94,-308.57 568.28,-319.14 575.02,-317.24"/>
</a>
</g>
</g>
<!-- Node29&#45;&gt;Node9 -->
<g id="edge48_Node000029_Node000009" class="edge">
<title>Node29&#45;&gt;Node9</title>
<g id="a_edge48_Node000029_Node000009"><a xlink:title=" ">
<path fill="none" stroke="#63b8ff" d="M592.19,-342.53C603.52,-333.56 621.53,-319.25 637,-306.75 657.07,-290.54 679.89,-271.82 695.64,-258.85"/>
<polygon fill="#63b8ff" stroke="#63b8ff" points="697.78,-261.62 703.27,-252.56 693.33,-256.22 697.78,-261.62"/>
</a>
</g>
</g>
<!-- Node29&#45;&gt;Node18 -->
<g id="edge49_Node000029_Node000018" class="edge">
<title>Node29&#45;&gt;Node18</title>
<g id="a_edge49_Node000029_Node000018"><a xlink:title=" ">
<path fill="none" stroke="#63b8ff" d="M563.45,-342.27C529.9,-324.88 459.75,-288.55 457,-287.5 419.71,-273.26 376.19,-262.02 342.25,-254.38"/>
<polygon fill="#63b8ff" stroke="#63b8ff" points="343.13,-250.99 332.61,-252.25 341.62,-257.82 343.13,-250.99"/>
</a>
</g>
</g>
<!-- Node29&#45;&gt;Node21 -->
<g id="edge51_Node000029_Node000021" class="edge">
<title>Node29&#45;&gt;Node21</title>
<g id="a_edge51_Node000029_Node000021"><a xlink:title=" ">
<path fill="none" stroke="#63b8ff" d="M544.87,-342.34C509.22,-333.43 454.53,-319.76 415.41,-309.98"/>
<polygon fill="#63b8ff" stroke="#63b8ff" points="416.33,-306.6 405.78,-307.57 414.63,-313.39 416.33,-306.6"/>
</a>
</g>
</g>
</g>
</svg>

<g id="navigator" transform="translate(0 0)" fill="#404254">
  <rect fill="#f2f5e9" fill-opacity="0.5" stroke="#606060" stroke-width=".5" x="0" y="0" width="60" height="60"/>
  <use id="zoomplus" xlink:href="#zoomPlus" x="17" y="9" onmousedown="handleZoom(evt,'in')"/>
  <use id="zoomminus" xlink:href="#zoomMin" x="42" y="9" onmousedown="handleZoom(evt,'out')"/>
  <use id="reset" xlink:href="#resetDef" x="30" y="36" onmousedown="handleReset()"/>
   <use id="arrowup" xlink:href="#arrowUp" x="0" y="0" onmousedown="handlePan(0,-1)"/>
  <use id="arrowright" xlink:href="#arrowRight" x="0" y="0" onmousedown="handlePan(1,0)"/>
  <use id="arrowdown" xlink:href="#arrowDown" x="0" y="0" onmousedown="handlePan(0,1)"/>
  <use id="arrowleft" xlink:href="#arrowLeft" x="0" y="0" onmousedown="handlePan(-1,0)"/>
</g>
<svg viewBox="0 0 15 15" width="100%" height="30px" preserveAspectRatio="xMaxYMin meet">
 <g id="arrow_out" transform="scale(0.3 0.3)">
  <a xlink:href="constant__sensor_8h__incl_org.svg" target="_base">
   <rect id="button" ry="5" rx="5" y="6" x="6" height="38" width="38"
        fill="#f2f5e9" fill-opacity="0.5" stroke="#606060" stroke-width="1.0"/>
   <path id="arrow"
     d="M 11.500037,31.436501 C 11.940474,20.09759 22.043105,11.32322 32.158766,21.979434 L 37.068811,17.246167 C 37.068811,17.246167 37.088388,32 37.088388,32 L 22.160133,31.978069 C 22.160133,31.978069 26.997745,27.140456 26.997745,27.140456 C 18.528582,18.264221 13.291696,25.230495 11.500037,31.436501 z"
     style="fill:#404040;"/>
  </a>
 </g>
</svg>

<style type='text/css'>
<![CDATA[
[data-mouse-over-selected='false'] { opacity: 0.7; }
[data-mouse-over-selected='true']  { opacity: 1.0; }
]]>
</style>
<script type="application/ecmascript"><![CDATA[
document.addEventListener('DOMContentLoaded', (event) => {
  highlightEdges();
  highlightAdjacentNodes();
});
]]></script>
</svg>
