<?xml version="1.0" encoding="UTF-8" standalone="no"?>
<!DOCTYPE svg PUBLIC "-//W3C//DTD SVG 1.1//EN"
 "http://www.w3.org/Graphics/SVG/1.1/DTD/svg11.dtd">
<!-- Generated by graphviz version 12.1.2 (20240928.0832)
 -->
<!-- Title: src/sensesp/transforms/debounce.h Pages: 1 -->
<svg width="290pt" height="160pt"
 viewBox="0.00 0.00 289.92 160.25" xmlns="http://www.w3.org/2000/svg" xmlns:xlink="http://www.w3.org/1999/xlink">
<g id="graph0" class="graph" transform="scale(1 1) rotate(0) translate(4 156.25)">
<title>src/sensesp/transforms/debounce.h</title>
<!-- Node1 -->
<g id="Node000001" class="node">
<title>Node1</title>
<g id="a_Node000001"><a xlink:title=" ">
<polygon fill="#999999" stroke="#666666" points="132.55,-152.25 13.8,-152.25 13.8,-121.75 132.55,-121.75 132.55,-152.25"/>
<text text-anchor="start" x="21.8" y="-138.75" font-family="Helvetica,sans-Serif" font-size="10.00">src/sensesp/transforms</text>
<text text-anchor="middle" x="73.17" y="-127.5" font-family="Helvetica,sans-Serif" font-size="10.00">/debounce.h</text>
</a>
</g>
</g>
<!-- Node2 -->
<g id="Node000002" class="node">
<title>Node2</title>
<g id="a_Node000002"><a xlink:href="main_8cpp.html" target="_top" xlink:title=" ">
<polygon fill="white" stroke="#666666" points="137.3,-19.25 65.05,-19.25 65.05,0 137.3,0 137.3,-19.25"/>
<text text-anchor="middle" x="101.17" y="-5.75" font-family="Helvetica,sans-Serif" font-size="10.00">src/main.cpp</text>
</a>
</g>
</g>
<!-- Node1&#45;&gt;Node2 -->
<g id="edge1_Node000001_Node000002" class="edge">
<title>Node1&#45;&gt;Node2</title>
<g id="a_edge1_Node000001_Node000002"><a xlink:title=" ">
<path fill="none" stroke="#63b8ff" d="M32.43,-115.22C21.58,-107.53 11.21,-97.71 5.17,-85.75 -0.93,-73.65 -2.12,-66.68 5.17,-55.25 18.22,-34.8 43.33,-23.57 64.6,-17.5"/>
<polygon fill="#63b8ff" stroke="#63b8ff" points="30.43,-118.09 40.73,-120.59 34.24,-112.22 30.43,-118.09"/>
</a>
</g>
</g>
<!-- Node3 -->
<g id="Node000003" class="node">
<title>Node3</title>
<g id="a_Node000003"><a xlink:href="debounce_8cpp.html" target="_top" xlink:title=" ">
<polygon fill="white" stroke="#666666" points="132.55,-85.75 13.8,-85.75 13.8,-55.25 132.55,-55.25 132.55,-85.75"/>
<text text-anchor="start" x="21.8" y="-72.25" font-family="Helvetica,sans-Serif" font-size="10.00">src/sensesp/transforms</text>
<text text-anchor="middle" x="73.17" y="-61" font-family="Helvetica,sans-Serif" font-size="10.00">/debounce.cpp</text>
</a>
</g>
</g>
<!-- Node1&#45;&gt;Node3 -->
<g id="edge2_Node000001_Node000003" class="edge">
<title>Node1&#45;&gt;Node3</title>
<g id="a_edge2_Node000001_Node000003"><a xlink:title=" ">
<path fill="none" stroke="#63b8ff" d="M73.17,-110.06C73.17,-101.89 73.17,-93.16 73.17,-86.08"/>
<polygon fill="#63b8ff" stroke="#63b8ff" points="69.67,-109.85 73.17,-119.85 76.67,-109.85 69.67,-109.85"/>
</a>
</g>
</g>
<!-- Node4 -->
<g id="Node000004" class="node">
<title>Node4</title>
<g id="a_Node000004"><a xlink:href="sensesp__app__builder_8h.html" target="_top" xlink:title=" ">
<polygon fill="white" stroke="#666666" points="281.92,-80.12 150.42,-80.12 150.42,-60.88 281.92,-60.88 281.92,-80.12"/>
<text text-anchor="middle" x="216.17" y="-66.62" font-family="Helvetica,sans-Serif" font-size="10.00">src/sensesp_app_builder.h</text>
</a>
</g>
</g>
<!-- Node1&#45;&gt;Node4 -->
<g id="edge3_Node000001_Node000004" class="edge">
<title>Node1&#45;&gt;Node4</title>
<g id="a_edge3_Node000001_Node000004"><a xlink:title=" ">
<path fill="none" stroke="#63b8ff" d="M115.84,-116.76C142.46,-104.75 175.48,-89.85 196.2,-80.51"/>
<polygon fill="#63b8ff" stroke="#63b8ff" points="114.68,-113.44 107,-120.74 117.55,-119.82 114.68,-113.44"/>
</a>
</g>
</g>
<!-- Node4&#45;&gt;Node2 -->
<g id="edge4_Node000004_Node000002" class="edge">
<title>Node4&#45;&gt;Node2</title>
<g id="a_edge4_Node000004_Node000002"><a xlink:title=" ">
<path fill="none" stroke="#63b8ff" d="M188.48,-55.33C166.82,-44.24 137.36,-29.15 118.8,-19.65"/>
<polygon fill="#63b8ff" stroke="#63b8ff" points="186.86,-58.43 197.36,-59.87 190.05,-52.2 186.86,-58.43"/>
</a>
</g>
</g>
</g>
</svg>
