<?xml version="1.0" encoding="UTF-8" standalone="no"?>
<!DOCTYPE svg PUBLIC "-//W3C//DTD SVG 1.1//EN"
 "http://www.w3.org/Graphics/SVG/1.1/DTD/svg11.dtd">
<!-- Generated by graphviz version 14.1.4 (20260321.0153)
 -->
<!-- Title: src/sensesp/sensors/digital_input.cpp Pages: 1 -->
<!--zoomable 602 -->

<svg id="main" version="1.1" xmlns="http://www.w3.org/2000/svg" xmlns:xlink="http://www.w3.org/1999/xlink" xml:space="preserve" onload="init(evt)">

<style type="text/css"><![CDATA[
.node, .edge {opacity: 0.7;}
.node.selected, .edge.selected {opacity: 1;}
.edge:hover path { stroke: red; }
.edge:hover polygon { stroke: red; fill: red; }
]]></style>

<defs>
  <circle id="rim" cx="0" cy="0" r="7"/>
  <circle id="rim2" cx="0" cy="0" r="3.5"/>
  <g id="zoomPlus">
    <use xlink:href="#rim" fill="#404040"><set attributeName="fill" to="#808080" begin="zoomplus.mouseover" end="zoomplus.mouseout"/></use>
    <path d="M-4,0h8M0,-4v8" fill="none" stroke="white" stroke-width="1.5" pointer-events="none"/>
  </g>
  <g id="zoomMin">
    <use xlink:href="#rim" fill="#404040"><set attributeName="fill" to="#808080" begin="zoomminus.mouseover" end="zoomminus.mouseout"/></use>
    <path d="M-4,0h8" fill="none" stroke="white" stroke-width="1.5" pointer-events="none"/>
  </g>
  <g id="arrowUp" transform="translate(30 24)">
    <use xlink:href="#rim"/>
    <path pointer-events="none" fill="none" stroke="white" stroke-width="1.5" d="M0,-3.0v7 M-2.5,-0.5L0,-3.0L2.5,-0.5"/>
  </g>
  <g id="arrowRight" transform="rotate(90) translate(36 -43)">
    <use xlink:href="#rim"/>
    <path pointer-events="none" fill="none" stroke="white" stroke-width="1.5" d="M0,-3.0v7 M-2.5,-0.5L0,-3.0L2.5,-0.5"/>
  </g>
  <g id="arrowDown" transform="rotate(180) translate(-30 -48)">
    <use xlink:href="#rim"/>
    <path pointer-events="none" fill="none" stroke="white" stroke-width="1.5" d="M0,-3.0v7 M-2.5,-0.5L0,-3.0L2.5,-0.5"/>
  </g>
  <g id="arrowLeft" transform="rotate(270) translate(-36 17)">
    <use xlink:href="#rim"/>
    <path pointer-events="none" fill="none" stroke="white" stroke-width="1.5" d="M0,-3.0v7 M-2.5,-0.5L0,-3.0L2.5,-0.5"/>
  </g>
  <g id="resetDef">
    <use xlink:href="#rim2" fill="#404040"><set attributeName="fill" to="#808080" begin="reset.mouseover" end="reset.mouseout"/></use>
  </g>
</defs>
<script type="application/ecmascript">
var viewWidth = 1236;
var viewHeight = 602;
var sectionId = 'dynsection-0';
</script>
<script type="application/ecmascript" xlink:href="svg.min.js"/>
<svg id="graph" class="graph">
<g id="viewport">
<title>src/sensesp/sensors/digital_input.cpp</title>
<!-- Node1 -->
<g id="Node000001" class="node">
<title>Node1</title>
<g id="a_Node000001"><a xlink:title=" ">
<polygon fill="#999999" stroke="#666666" points="715.62,-594.25 608.88,-594.25 608.88,-563.75 715.62,-563.75 715.62,-594.25"/>
<text xml:space="preserve" text-anchor="start" x="616.88" y="-580.75" font-family="Helvetica,sans-Serif" font-size="10.00">src/sensesp/sensors</text>
<text xml:space="preserve" text-anchor="middle" x="662.25" y="-569.5" font-family="Helvetica,sans-Serif" font-size="10.00">/digital_input.cpp</text>
</a>
</g>
</g>
<!-- Node2 -->
<g id="Node000002" class="node">
<title>Node2</title>
<g id="a_Node000002"><a xlink:href="sensesp_8h.html" target="_top" xlink:title=" ">
<polygon fill="white" stroke="#666666" points="550.75,-141 489.75,-141 489.75,-121.75 550.75,-121.75 550.75,-141"/>
<text xml:space="preserve" text-anchor="middle" x="520.25" y="-127.5" font-family="Helvetica,sans-Serif" font-size="10.00">sensesp.h</text>
</a>
</g>
</g>
<!-- Node1&#45;&gt;Node2 -->
<g id="edge1_Node000001_Node000002" class="edge">
<title>Node1&#45;&gt;Node2</title>
<g id="a_edge1_Node000001_Node000002"><a xlink:title=" ">
<path fill="none" stroke="#63b8ff" d="M608.63,-578.23C469.59,-577.37 108.25,-565.39 108.25,-463.88 108.25,-463.88 108.25,-463.88 108.25,-240.88 108.25,-202.91 373.23,-156.06 478.18,-138.99"/>
<polygon fill="#63b8ff" stroke="#63b8ff" points="478.47,-142.49 487.79,-137.44 477.36,-135.58 478.47,-142.49"/>
</a>
</g>
</g>
<!-- Node9 -->
<g id="Node000009" class="node">
<title>Node9</title>
<g id="a_Node000009"><a xlink:href="digital__input_8h.html" target="_top" xlink:title=" ">
<polygon fill="white" stroke="#666666" points="733.25,-527.75 657.25,-527.75 657.25,-508.5 733.25,-508.5 733.25,-527.75"/>
<text xml:space="preserve" text-anchor="middle" x="695.25" y="-514.25" font-family="Helvetica,sans-Serif" font-size="10.00">digital_input.h</text>
</a>
</g>
</g>
<!-- Node1&#45;&gt;Node9 -->
<g id="edge8_Node000001_Node000009" class="edge">
<title>Node1&#45;&gt;Node9</title>
<g id="a_edge8_Node000001_Node000009"><a xlink:title=" ">
<path fill="none" stroke="#63b8ff" d="M670.41,-563.45C674.71,-555.78 680.03,-546.27 684.65,-538.04"/>
<polygon fill="#63b8ff" stroke="#63b8ff" points="687.59,-539.96 689.42,-529.52 681.48,-536.53 687.59,-539.96"/>
</a>
</g>
</g>
<!-- Node10 -->
<g id="Node000010" class="node">
<title>Node10</title>
<g id="a_Node000010"><a xlink:title=" ">
<polygon fill="#e0e0e0" stroke="#999999" points="667.5,-472.5 587,-472.5 587,-453.25 667.5,-453.25 667.5,-472.5"/>
<text xml:space="preserve" text-anchor="middle" x="627.25" y="-459" font-family="Helvetica,sans-Serif" font-size="10.00">elapsedMillis.h</text>
</a>
</g>
</g>
<!-- Node1&#45;&gt;Node10 -->
<g id="edge57_Node000001_Node000010" class="edge">
<title>Node1&#45;&gt;Node10</title>
<g id="a_edge57_Node000001_Node000010"><a xlink:title=" ">
<path fill="none" stroke="#63b8ff" d="M657.82,-563.55C651.61,-543.31 640.31,-506.47 633.33,-483.69"/>
<polygon fill="#63b8ff" stroke="#63b8ff" points="636.75,-482.93 630.48,-474.4 630.06,-484.98 636.75,-482.93"/>
</a>
</g>
</g>
<!-- Node32 -->
<g id="Node000032" class="node">
<title>Node32</title>
<g id="a_Node000032"><a xlink:title=" ">
<polygon fill="#e0e0e0" stroke="#999999" points="856.88,-527.75 751.62,-527.75 751.62,-508.5 856.88,-508.5 856.88,-527.75"/>
<text xml:space="preserve" text-anchor="middle" x="804.25" y="-514.25" font-family="Helvetica,sans-Serif" font-size="10.00">FunctionalInterrupt.h</text>
</a>
</g>
</g>
<!-- Node1&#45;&gt;Node32 -->
<g id="edge56_Node000001_Node000032" class="edge">
<title>Node1&#45;&gt;Node32</title>
<g id="a_edge56_Node000001_Node000032"><a xlink:title=" ">
<path fill="none" stroke="#63b8ff" d="M697.72,-563.3C720.49,-553.85 749.82,-541.69 771.94,-532.52"/>
<polygon fill="#63b8ff" stroke="#63b8ff" points="773.18,-535.8 781.07,-528.73 770.5,-529.33 773.18,-535.8"/>
</a>
</g>
</g>
<!-- Node3 -->
<g id="Node000003" class="node">
<title>Node3</title>
<g id="a_Node000003"><a xlink:title=" ">
<polygon fill="#e0e0e0" stroke="#999999" points="1227.88,-80.12 1158.62,-80.12 1158.62,-60.88 1227.88,-60.88 1227.88,-80.12"/>
<text xml:space="preserve" text-anchor="middle" x="1193.25" y="-66.62" font-family="Helvetica,sans-Serif" font-size="10.00">ReactESP.h</text>
</a>
</g>
</g>
<!-- Node2&#45;&gt;Node3 -->
<g id="edge2_Node000002_Node000003" class="edge">
<title>Node2&#45;&gt;Node3</title>
<g id="a_edge2_Node000002_Node000003"><a xlink:title=" ">
<path fill="none" stroke="#63b8ff" d="M550.92,-127.69C658.39,-118.29 1018.43,-86.79 1147.07,-75.54"/>
<polygon fill="#63b8ff" stroke="#63b8ff" points="1147.26,-79.04 1156.92,-74.68 1146.65,-72.06 1147.26,-79.04"/>
</a>
</g>
</g>
<!-- Node4 -->
<g id="Node000004" class="node">
<title>Node4</title>
<g id="a_Node000004"><a xlink:title=" ">
<polygon fill="#e0e0e0" stroke="#999999" points="599.88,-80.12 548.62,-80.12 548.62,-60.88 599.88,-60.88 599.88,-80.12"/>
<text xml:space="preserve" text-anchor="middle" x="574.25" y="-66.62" font-family="Helvetica,sans-Serif" font-size="10.00">memory</text>
</a>
</g>
</g>
<!-- Node2&#45;&gt;Node4 -->
<g id="edge3_Node000002_Node000004" class="edge">
<title>Node2&#45;&gt;Node4</title>
<g id="a_edge3_Node000002_Node000004"><a xlink:title=" ">
<path fill="none" stroke="#63b8ff" d="M528.45,-121.43C536.38,-112.79 548.6,-99.46 558.43,-88.75"/>
<polygon fill="#63b8ff" stroke="#63b8ff" points="560.77,-91.38 564.95,-81.64 555.61,-86.65 560.77,-91.38"/>
</a>
</g>
</g>
<!-- Node5 -->
<g id="Node000005" class="node">
<title>Node5</title>
<g id="a_Node000005"><a xlink:href="local__debug_8h.html" target="_top" xlink:title=" ">
<polygon fill="white" stroke="#666666" points="117.88,-85.75 6.62,-85.75 6.62,-55.25 117.88,-55.25 117.88,-85.75"/>
<text xml:space="preserve" text-anchor="start" x="14.62" y="-72.25" font-family="Helvetica,sans-Serif" font-size="10.00">sensesp/system/local</text>
<text xml:space="preserve" text-anchor="middle" x="62.25" y="-61" font-family="Helvetica,sans-Serif" font-size="10.00">_debug.h</text>
</a>
</g>
</g>
<!-- Node2&#45;&gt;Node5 -->
<g id="edge4_Node000002_Node000005" class="edge">
<title>Node2&#45;&gt;Node5</title>
<g id="a_edge4_Node000002_Node000005"><a xlink:title=" ">
<path fill="none" stroke="#63b8ff" d="M489.49,-126.42C416.29,-117.01 230.39,-93.11 129.63,-80.16"/>
<polygon fill="#63b8ff" stroke="#63b8ff" points="130.24,-76.71 119.87,-78.91 129.35,-83.65 130.24,-76.71"/>
</a>
</g>
</g>
<!-- Node6 -->
<g id="Node000006" class="node">
<title>Node6</title>
<g id="a_Node000006"><a xlink:title=" ">
<polygon fill="#e0e0e0" stroke="#999999" points="144.25,-19.25 62.25,-19.25 62.25,0 144.25,0 144.25,-19.25"/>
<text xml:space="preserve" text-anchor="middle" x="103.25" y="-5.75" font-family="Helvetica,sans-Serif" font-size="10.00">esp32&#45;hal&#45;log.h</text>
</a>
</g>
</g>
<!-- Node5&#45;&gt;Node6 -->
<g id="edge5_Node000005_Node000006" class="edge">
<title>Node5&#45;&gt;Node6</title>
<g id="a_edge5_Node000005_Node000006"><a xlink:title=" ">
<path fill="none" stroke="#63b8ff" d="M72.38,-54.95C77.85,-47.1 84.64,-37.35 90.46,-28.99"/>
<polygon fill="#63b8ff" stroke="#63b8ff" points="93.22,-31.15 96.06,-20.94 87.48,-27.15 93.22,-31.15"/>
</a>
</g>
</g>
<!-- Node7 -->
<g id="Node000007" class="node">
<title>Node7</title>
<g id="a_Node000007"><a xlink:title=" ">
<polygon fill="#e0e0e0" stroke="#999999" points="963.88,-19.25 906.62,-19.25 906.62,0 963.88,0 963.88,-19.25"/>
<text xml:space="preserve" text-anchor="middle" x="935.25" y="-5.75" font-family="Helvetica,sans-Serif" font-size="10.00">Arduino.h</text>
</a>
</g>
</g>
<!-- Node5&#45;&gt;Node7 -->
<g id="edge6_Node000005_Node000007" class="edge">
<title>Node5&#45;&gt;Node7</title>
<g id="a_edge6_Node000005_Node000007"><a xlink:title=" ">
<path fill="none" stroke="#63b8ff" d="M118.29,-57.34C123,-56.55 127.7,-55.84 132.25,-55.25 423.11,-17.76 777.23,-11.75 895.02,-10.8"/>
<polygon fill="#63b8ff" stroke="#63b8ff" points="894.82,-14.3 904.79,-10.73 894.77,-7.3 894.82,-14.3"/>
</a>
</g>
</g>
<!-- Node8 -->
<g id="Node000008" class="node">
<title>Node8</title>
<g id="a_Node000008"><a xlink:title=" ">
<polygon fill="#e0e0e0" stroke="#999999" points="44.5,-19.25 0,-19.25 0,0 44.5,0 44.5,-19.25"/>
<text xml:space="preserve" text-anchor="middle" x="22.25" y="-5.75" font-family="Helvetica,sans-Serif" font-size="10.00">Print.h</text>
</a>
</g>
</g>
<!-- Node5&#45;&gt;Node8 -->
<g id="edge7_Node000005_Node000008" class="edge">
<title>Node5&#45;&gt;Node8</title>
<g id="a_edge7_Node000005_Node000008"><a xlink:title=" ">
<path fill="none" stroke="#63b8ff" d="M52.36,-54.95C47.03,-47.1 40.4,-37.35 34.72,-28.99"/>
<polygon fill="#63b8ff" stroke="#63b8ff" points="37.78,-27.26 29.27,-20.95 31.99,-31.19 37.78,-27.26"/>
</a>
</g>
</g>
<!-- Node9&#45;&gt;Node3 -->
<g id="edge10_Node000009_Node000003" class="edge">
<title>Node9&#45;&gt;Node3</title>
<g id="a_edge10_Node000009_Node000003"><a xlink:title=" ">
<path fill="none" stroke="#63b8ff" d="M733.66,-509.99C852.5,-487.79 1206.25,-420.7 1206.25,-408.62 1206.25,-408.62 1206.25,-408.62 1206.25,-185.62 1206.25,-152.46 1200.76,-114.23 1196.92,-91.51"/>
<polygon fill="#63b8ff" stroke="#63b8ff" points="1200.4,-91.07 1195.21,-81.83 1193.5,-92.29 1200.4,-91.07"/>
</a>
</g>
</g>
<!-- Node9&#45;&gt;Node10 -->
<g id="edge9_Node000009_Node000010" class="edge">
<title>Node9&#45;&gt;Node10</title>
<g id="a_edge9_Node000009_Node000010"><a xlink:title=" ">
<path fill="none" stroke="#63b8ff" d="M683.71,-508.09C673.79,-500.32 659.24,-488.92 647.39,-479.65"/>
<polygon fill="#63b8ff" stroke="#63b8ff" points="649.84,-477.12 639.81,-473.71 645.52,-482.63 649.84,-477.12"/>
</a>
</g>
</g>
<!-- Node11 -->
<g id="Node000011" class="node">
<title>Node11</title>
<g id="a_Node000011"><a xlink:href="config__item_8h.html" target="_top" xlink:title=" ">
<polygon fill="white" stroke="#666666" points="1035.62,-306.75 910.88,-306.75 910.88,-287.5 1035.62,-287.5 1035.62,-306.75"/>
<text xml:space="preserve" text-anchor="middle" x="973.25" y="-293.25" font-family="Helvetica,sans-Serif" font-size="10.00">sensesp/ui/config_item.h</text>
</a>
</g>
</g>
<!-- Node9&#45;&gt;Node11 -->
<g id="edge11_Node000009_Node000011" class="edge">
<title>Node9&#45;&gt;Node11</title>
<g id="a_edge11_Node000009_Node000011"><a xlink:title=" ">
<path fill="none" stroke="#63b8ff" d="M717.42,-508.09C736.03,-500.03 762.92,-487.25 784.25,-472.5 855.41,-423.3 927.13,-348.67 957.79,-315.3"/>
<polygon fill="#63b8ff" stroke="#63b8ff" points="960.15,-317.91 964.3,-308.16 954.98,-313.19 960.15,-317.91"/>
</a>
</g>
</g>
<!-- Node18 -->
<g id="Node000018" class="node">
<title>Node18</title>
<g id="a_Node000018"><a xlink:href="sensesp__base__app_8h.html" target="_top" xlink:title=" ">
<polygon fill="white" stroke="#666666" points="495.38,-417.25 387.12,-417.25 387.12,-398 495.38,-398 495.38,-417.25"/>
<text xml:space="preserve" text-anchor="middle" x="441.25" y="-403.75" font-family="Helvetica,sans-Serif" font-size="10.00">sensesp_base_app.h</text>
</a>
</g>
</g>
<!-- Node9&#45;&gt;Node18 -->
<g id="edge26_Node000009_Node000018" class="edge">
<title>Node9&#45;&gt;Node18</title>
<g id="a_edge26_Node000009_Node000018"><a xlink:title=" ">
<path fill="none" stroke="#63b8ff" d="M695.34,-508.2C694.95,-494.27 692.05,-467.52 676.25,-453.25 663.69,-441.9 571.78,-426.9 506.71,-417.51"/>
<polygon fill="#63b8ff" stroke="#63b8ff" points="507.6,-414.1 497.2,-416.15 506.61,-421.03 507.6,-414.1"/>
</a>
</g>
</g>
<!-- Node30 -->
<g id="Node000030" class="node">
<title>Node30</title>
<g id="a_Node000030"><a xlink:href="sensor_8h.html" target="_top" xlink:title=" ">
<polygon fill="white" stroke="#666666" points="775.62,-472.5 722.88,-472.5 722.88,-453.25 775.62,-453.25 775.62,-472.5"/>
<text xml:space="preserve" text-anchor="middle" x="749.25" y="-459" font-family="Helvetica,sans-Serif" font-size="10.00">sensor.h</text>
</a>
</g>
</g>
<!-- Node9&#45;&gt;Node30 -->
<g id="edge48_Node000009_Node000030" class="edge">
<title>Node9&#45;&gt;Node30</title>
<g id="a_edge48_Node000009_Node000030"><a xlink:title=" ">
<path fill="none" stroke="#63b8ff" d="M704.17,-508.33C711.7,-500.9 722.72,-490.04 731.98,-480.91"/>
<polygon fill="#63b8ff" stroke="#63b8ff" points="734.4,-483.44 739.06,-473.92 729.48,-478.45 734.4,-483.44"/>
</a>
</g>
</g>
<!-- Node11&#45;&gt;Node4 -->
<g id="edge13_Node000011_Node000004" class="edge">
<title>Node11&#45;&gt;Node4</title>
<g id="a_edge13_Node000011_Node000004"><a xlink:title=" ">
<path fill="none" stroke="#63b8ff" d="M972.82,-287.29C971.36,-265.98 964.96,-210.99 937.25,-177 909.01,-142.37 894.75,-138.32 853.25,-121.75 770.85,-88.84 666.15,-77.36 611.42,-73.45"/>
<polygon fill="#63b8ff" stroke="#63b8ff" points="611.92,-69.98 601.71,-72.81 611.46,-76.96 611.92,-69.98"/>
</a>
</g>
</g>
<!-- Node11&#45;&gt;Node7 -->
<g id="edge16_Node000011_Node000007" class="edge">
<title>Node11&#45;&gt;Node7</title>
<g id="a_edge16_Node000011_Node000007"><a xlink:title=" ">
<path fill="none" stroke="#63b8ff" d="M1036.06,-288.88C1062.41,-282.84 1091.46,-271.77 1111.25,-251.5 1131.94,-230.31 1130.25,-217.24 1130.25,-187.62 1130.25,-187.62 1130.25,-187.62 1130.25,-130.38 1130.25,-58.27 1032.24,-28.21 975.19,-16.83"/>
<polygon fill="#63b8ff" stroke="#63b8ff" points="975.98,-13.42 965.51,-15.01 974.69,-20.3 975.98,-13.42"/>
</a>
</g>
</g>
<!-- Node12 -->
<g id="Node000012" class="node">
<title>Node12</title>
<g id="a_Node000012"><a xlink:title=" ">
<polygon fill="#e0e0e0" stroke="#999999" points="1035.62,-251.5 1000.88,-251.5 1000.88,-232.25 1035.62,-232.25 1035.62,-251.5"/>
<text xml:space="preserve" text-anchor="middle" x="1018.25" y="-238" font-family="Helvetica,sans-Serif" font-size="10.00">map</text>
</a>
</g>
</g>
<!-- Node11&#45;&gt;Node12 -->
<g id="edge12_Node000011_Node000012" class="edge">
<title>Node11&#45;&gt;Node12</title>
<g id="a_edge12_Node000011_Node000012"><a xlink:title=" ">
<path fill="none" stroke="#63b8ff" d="M980.68,-287.33C986.83,-280.05 995.76,-269.48 1003.38,-260.48"/>
<polygon fill="#63b8ff" stroke="#63b8ff" points="1005.9,-262.91 1009.68,-253.02 1000.55,-258.39 1005.9,-262.91"/>
</a>
</g>
</g>
<!-- Node13 -->
<g id="Node000013" class="node">
<title>Node13</title>
<g id="a_Node000013"><a xlink:title=" ">
<polygon fill="#e0e0e0" stroke="#999999" points="700.75,-196.25 657.75,-196.25 657.75,-177 700.75,-177 700.75,-196.25"/>
<text xml:space="preserve" text-anchor="middle" x="679.25" y="-182.75" font-family="Helvetica,sans-Serif" font-size="10.00">vector</text>
</a>
</g>
</g>
<!-- Node11&#45;&gt;Node13 -->
<g id="edge14_Node000011_Node000013" class="edge">
<title>Node11&#45;&gt;Node13</title>
<g id="a_edge14_Node000011_Node000013"><a xlink:title=" ">
<path fill="none" stroke="#63b8ff" d="M910.73,-290.67C866.96,-285.06 808,-273.81 760.25,-251.5 735.29,-239.84 711.09,-219.13 695.74,-204.46"/>
<polygon fill="#63b8ff" stroke="#63b8ff" points="698.44,-202.21 688.86,-197.69 693.53,-207.2 698.44,-202.21"/>
</a>
</g>
</g>
<!-- Node14 -->
<g id="Node000014" class="node">
<title>Node14</title>
<g id="a_Node000014"><a xlink:title=" ">
<polygon fill="#e0e0e0" stroke="#999999" points="1102.38,-251.5 1054.12,-251.5 1054.12,-232.25 1102.38,-232.25 1102.38,-251.5"/>
<text xml:space="preserve" text-anchor="middle" x="1078.25" y="-238" font-family="Helvetica,sans-Serif" font-size="10.00">cstddef</text>
</a>
</g>
</g>
<!-- Node11&#45;&gt;Node14 -->
<g id="edge15_Node000011_Node000014" class="edge">
<title>Node11&#45;&gt;Node14</title>
<g id="a_edge15_Node000011_Node000014"><a xlink:title=" ">
<path fill="none" stroke="#63b8ff" d="M991.06,-287.09C1007.28,-278.87 1031.49,-266.59 1050.28,-257.06"/>
<polygon fill="#63b8ff" stroke="#63b8ff" points="1051.67,-260.28 1059,-252.64 1048.5,-254.04 1051.67,-260.28"/>
</a>
</g>
</g>
<!-- Node15 -->
<g id="Node000015" class="node">
<title>Node15</title>
<g id="a_Node000015"><a xlink:title=" ">
<polygon fill="#e0e0e0" stroke="#999999" points="844.38,-141 766.12,-141 766.12,-121.75 844.38,-121.75 844.38,-141"/>
<text xml:space="preserve" text-anchor="middle" x="805.25" y="-127.5" font-family="Helvetica,sans-Serif" font-size="10.00">ArduinoJson.h</text>
</a>
</g>
</g>
<!-- Node11&#45;&gt;Node15 -->
<g id="edge17_Node000011_Node000015" class="edge">
<title>Node11&#45;&gt;Node15</title>
<g id="a_edge17_Node000011_Node000015"><a xlink:title=" ">
<path fill="none" stroke="#63b8ff" d="M969.96,-287.21C960.66,-262.42 933.73,-193.39 916.25,-177 899.49,-161.28 876.49,-150.82 855.77,-144"/>
<polygon fill="#63b8ff" stroke="#63b8ff" points="856.9,-140.68 846.32,-141.11 854.86,-147.38 856.9,-140.68"/>
</a>
</g>
</g>
<!-- Node16 -->
<g id="Node000016" class="node">
<title>Node16</title>
<g id="a_Node000016"><a xlink:href="saveable_8h.html" target="_top" xlink:title=" ">
<polygon fill="white" stroke="#666666" points="907.38,-251.5 769.12,-251.5 769.12,-232.25 907.38,-232.25 907.38,-251.5"/>
<text xml:space="preserve" text-anchor="middle" x="838.25" y="-238" font-family="Helvetica,sans-Serif" font-size="10.00">sensesp/system/saveable.h</text>
</a>
</g>
</g>
<!-- Node11&#45;&gt;Node16 -->
<g id="edge18_Node000011_Node000016" class="edge">
<title>Node11&#45;&gt;Node16</title>
<g id="a_edge18_Node000011_Node000016"><a xlink:title=" ">
<path fill="none" stroke="#63b8ff" d="M950.35,-287.09C928.82,-278.6 896.34,-265.79 871.87,-256.14"/>
<polygon fill="#63b8ff" stroke="#63b8ff" points="873.26,-252.92 862.67,-252.51 870.69,-259.43 873.26,-252.92"/>
</a>
</g>
</g>
<!-- Node16&#45;&gt;Node2 -->
<g id="edge19_Node000016_Node000002" class="edge">
<title>Node16&#45;&gt;Node2</title>
<g id="a_edge19_Node000016_Node000002"><a xlink:title=" ">
<path fill="none" stroke="#63b8ff" d="M823,-231.8C799.52,-218.17 752.76,-192.36 710.25,-177 660.76,-159.12 601.39,-146.51 562.34,-139.36"/>
<polygon fill="#63b8ff" stroke="#63b8ff" points="563.11,-135.94 552.65,-137.62 561.87,-142.83 563.11,-135.94"/>
</a>
</g>
</g>
<!-- Node16&#45;&gt;Node7 -->
<g id="edge21_Node000016_Node000007" class="edge">
<title>Node16&#45;&gt;Node7</title>
<g id="a_edge21_Node000016_Node000007"><a xlink:title=" ">
<path fill="none" stroke="#63b8ff" d="M867.52,-231.76C884.64,-224.84 905.02,-213.51 916.25,-196.25 949.9,-144.5 943.98,-66.96 938.76,-30.68"/>
<polygon fill="#63b8ff" stroke="#63b8ff" points="942.27,-30.5 937.24,-21.18 935.36,-31.6 942.27,-30.5"/>
</a>
</g>
</g>
<!-- Node16&#45;&gt;Node15 -->
<g id="edge20_Node000016_Node000015" class="edge">
<title>Node16&#45;&gt;Node15</title>
<g id="a_edge20_Node000016_Node000015"><a xlink:title=" ">
<path fill="none" stroke="#63b8ff" d="M835.55,-232C830.28,-214.67 818.51,-175.98 811.29,-152.24"/>
<polygon fill="#63b8ff" stroke="#63b8ff" points="814.69,-151.37 808.43,-142.82 807.99,-153.41 814.69,-151.37"/>
</a>
</g>
</g>
<!-- Node17 -->
<g id="Node000017" class="node">
<title>Node17</title>
<g id="a_Node000017"><a xlink:href="serializable_8h.html" target="_top" xlink:title=" ">
<polygon fill="white" stroke="#666666" points="906.75,-196.25 833.75,-196.25 833.75,-177 906.75,-177 906.75,-196.25"/>
<text xml:space="preserve" text-anchor="middle" x="870.25" y="-182.75" font-family="Helvetica,sans-Serif" font-size="10.00">serializable.h</text>
</a>
</g>
</g>
<!-- Node16&#45;&gt;Node17 -->
<g id="edge22_Node000016_Node000017" class="edge">
<title>Node16&#45;&gt;Node17</title>
<g id="a_edge22_Node000016_Node000017"><a xlink:title=" ">
<path fill="none" stroke="#63b8ff" d="M843.53,-232.08C847.72,-225.11 853.73,-215.12 858.98,-206.37"/>
<polygon fill="#63b8ff" stroke="#63b8ff" points="861.92,-208.28 864.07,-197.91 855.92,-204.68 861.92,-208.28"/>
</a>
</g>
</g>
<!-- Node17&#45;&gt;Node2 -->
<g id="edge23_Node000017_Node000002" class="edge">
<title>Node17&#45;&gt;Node2</title>
<g id="a_edge23_Node000017_Node000002"><a xlink:title=" ">
<path fill="none" stroke="#63b8ff" d="M833.46,-180.03C767.92,-170.06 631.39,-149.28 562.27,-138.77"/>
<polygon fill="#63b8ff" stroke="#63b8ff" points="562.89,-135.32 552.48,-137.28 561.84,-142.24 562.89,-135.32"/>
</a>
</g>
</g>
<!-- Node17&#45;&gt;Node7 -->
<g id="edge25_Node000017_Node000007" class="edge">
<title>Node17&#45;&gt;Node7</title>
<g id="a_edge25_Node000017_Node000007"><a xlink:title=" ">
<path fill="none" stroke="#63b8ff" d="M873.56,-176.71C883.6,-149.68 913.85,-68.24 927.91,-30.37"/>
<polygon fill="#63b8ff" stroke="#63b8ff" points="931.14,-31.75 931.34,-21.15 924.58,-29.31 931.14,-31.75"/>
</a>
</g>
</g>
<!-- Node17&#45;&gt;Node15 -->
<g id="edge24_Node000017_Node000015" class="edge">
<title>Node17&#45;&gt;Node15</title>
<g id="a_edge24_Node000017_Node000015"><a xlink:title=" ">
<path fill="none" stroke="#63b8ff" d="M859.22,-176.59C849.83,-168.9 836.1,-157.65 824.84,-148.43"/>
<polygon fill="#63b8ff" stroke="#63b8ff" points="827.24,-145.86 817.28,-142.23 822.8,-151.28 827.24,-145.86"/>
</a>
</g>
</g>
<!-- Node18&#45;&gt;Node2 -->
<g id="edge27_Node000018_Node000002" class="edge">
<title>Node18&#45;&gt;Node2</title>
<g id="a_edge27_Node000018_Node000002"><a xlink:title=" ">
<path fill="none" stroke="#63b8ff" d="M441.88,-397.67C442.95,-377 443.38,-324.88 424.25,-287.5 396.39,-233.06 304.63,-225.22 342.25,-177 358.78,-155.81 430.83,-143.17 478.04,-137.01"/>
<polygon fill="#63b8ff" stroke="#63b8ff" points="478.47,-140.49 487.96,-135.77 477.6,-133.54 478.47,-140.49"/>
</a>
</g>
</g>
<!-- Node18&#45;&gt;Node4 -->
<g id="edge28_Node000018_Node000004" class="edge">
<title>Node18&#45;&gt;Node4</title>
<g id="a_edge28_Node000018_Node000004"><a xlink:title=" ">
<path fill="none" stroke="#63b8ff" d="M436.14,-397.66C414.94,-360.38 334.75,-218.55 329.25,-196.25 327.2,-187.94 326.92,-185.23 329.25,-177 337.1,-149.26 339.89,-138.65 363.25,-121.75 415.34,-84.05 491.8,-74.29 536.96,-71.97"/>
<polygon fill="#63b8ff" stroke="#63b8ff" points="536.91,-75.47 546.76,-71.57 536.63,-68.48 536.91,-75.47"/>
</a>
</g>
</g>
<!-- Node19 -->
<g id="Node000019" class="node">
<title>Node19</title>
<g id="a_Node000019"><a xlink:title=" ">
<polygon fill="#e0e0e0" stroke="#999999" points="394.25,-362 336.25,-362 336.25,-342.75 394.25,-342.75 394.25,-362"/>
<text xml:space="preserve" text-anchor="middle" x="365.25" y="-348.5" font-family="Helvetica,sans-Serif" font-size="10.00">esp_log.h</text>
</a>
</g>
</g>
<!-- Node18&#45;&gt;Node19 -->
<g id="edge29_Node000018_Node000019" class="edge">
<title>Node18&#45;&gt;Node19</title>
<g id="a_edge29_Node000018_Node000019"><a xlink:title=" ">
<path fill="none" stroke="#63b8ff" d="M428.36,-397.59C417.22,-389.79 400.88,-378.34 387.61,-369.04"/>
<polygon fill="#63b8ff" stroke="#63b8ff" points="389.64,-366.19 379.45,-363.32 385.63,-371.93 389.64,-366.19"/>
</a>
</g>
</g>
<!-- Node20 -->
<g id="Node000020" class="node">
<title>Node20</title>
<g id="a_Node000020"><a xlink:href="filesystem_8h.html" target="_top" xlink:title=" ">
<polygon fill="white" stroke="#666666" points="318.38,-362 174.12,-362 174.12,-342.75 318.38,-342.75 318.38,-362"/>
<text xml:space="preserve" text-anchor="middle" x="246.25" y="-348.5" font-family="Helvetica,sans-Serif" font-size="10.00">sensesp/system/filesystem.h</text>
</a>
</g>
</g>
<!-- Node18&#45;&gt;Node20 -->
<g id="edge30_Node000018_Node000020" class="edge">
<title>Node18&#45;&gt;Node20</title>
<g id="a_edge30_Node000018_Node000020"><a xlink:title=" ">
<path fill="none" stroke="#63b8ff" d="M408.17,-397.59C375.81,-388.76 326.33,-375.24 290.58,-365.48"/>
<polygon fill="#63b8ff" stroke="#63b8ff" points="291.52,-362.11 280.95,-362.85 289.68,-368.86 291.52,-362.11"/>
</a>
</g>
</g>
<!-- Node23 -->
<g id="Node000023" class="node">
<title>Node23</title>
<g id="a_Node000023"><a xlink:href="observablevalue_8h.html" target="_top" xlink:title=" ">
<polygon fill="white" stroke="#666666" points="721.12,-362 551.38,-362 551.38,-342.75 721.12,-342.75 721.12,-362"/>
<text xml:space="preserve" text-anchor="middle" x="636.25" y="-348.5" font-family="Helvetica,sans-Serif" font-size="10.00">sensesp/system/observablevalue.h</text>
</a>
</g>
</g>
<!-- Node18&#45;&gt;Node23 -->
<g id="edge33_Node000018_Node000023" class="edge">
<title>Node18&#45;&gt;Node23</title>
<g id="a_edge33_Node000018_Node000023"><a xlink:title=" ">
<path fill="none" stroke="#63b8ff" d="M474.33,-397.59C506.69,-388.76 556.17,-375.24 591.92,-365.48"/>
<polygon fill="#63b8ff" stroke="#63b8ff" points="592.82,-368.86 601.55,-362.85 590.98,-362.11 592.82,-368.86"/>
</a>
</g>
</g>
<!-- Node21 -->
<g id="Node000021" class="node">
<title>Node21</title>
<g id="a_Node000021"><a xlink:href="resettable_8h.html" target="_top" xlink:title=" ">
<polygon fill="white" stroke="#666666" points="279.75,-306.75 212.75,-306.75 212.75,-287.5 279.75,-287.5 279.75,-306.75"/>
<text xml:space="preserve" text-anchor="middle" x="246.25" y="-293.25" font-family="Helvetica,sans-Serif" font-size="10.00">resettable.h</text>
</a>
</g>
</g>
<!-- Node20&#45;&gt;Node21 -->
<g id="edge31_Node000020_Node000021" class="edge">
<title>Node20&#45;&gt;Node21</title>
<g id="a_edge31_Node000020_Node000021"><a xlink:title=" ">
<path fill="none" stroke="#63b8ff" d="M246.25,-342.58C246.25,-336.07 246.25,-326.92 246.25,-318.62"/>
<polygon fill="#63b8ff" stroke="#63b8ff" points="249.75,-318.62 246.25,-308.62 242.75,-318.62 249.75,-318.62"/>
</a>
</g>
</g>
<!-- Node22 -->
<g id="Node000022" class="node">
<title>Node22</title>
<g id="a_Node000022"><a xlink:title=" ">
<polygon fill="#e0e0e0" stroke="#999999" points="267.38,-251.5 225.12,-251.5 225.12,-232.25 267.38,-232.25 267.38,-251.5"/>
<text xml:space="preserve" text-anchor="middle" x="246.25" y="-238" font-family="Helvetica,sans-Serif" font-size="10.00">queue</text>
</a>
</g>
</g>
<!-- Node21&#45;&gt;Node22 -->
<g id="edge32_Node000021_Node000022" class="edge">
<title>Node21&#45;&gt;Node22</title>
<g id="a_edge32_Node000021_Node000022"><a xlink:title=" ">
<path fill="none" stroke="#63b8ff" d="M246.25,-287.33C246.25,-280.82 246.25,-271.67 246.25,-263.37"/>
<polygon fill="#63b8ff" stroke="#63b8ff" points="249.75,-263.37 246.25,-253.37 242.75,-263.37 249.75,-263.37"/>
</a>
</g>
</g>
<!-- Node23&#45;&gt;Node11 -->
<g id="edge39_Node000023_Node000011" class="edge">
<title>Node23&#45;&gt;Node11</title>
<g id="a_edge39_Node000023_Node000011"><a xlink:title=" ">
<path fill="none" stroke="#63b8ff" d="M693.8,-342.28C752.11,-333.07 842.34,-318.81 904.41,-309"/>
<polygon fill="#63b8ff" stroke="#63b8ff" points="904.83,-312.48 914.16,-307.46 903.74,-305.57 904.83,-312.48"/>
</a>
</g>
</g>
<!-- Node23&#45;&gt;Node16 -->
<g id="edge34_Node000023_Node000016" class="edge">
<title>Node23&#45;&gt;Node16</title>
<g id="a_edge34_Node000023_Node000016"><a xlink:title=" ">
<path fill="none" stroke="#63b8ff" d="M653.12,-342.31C688.1,-323.52 768.78,-280.19 811.14,-257.43"/>
<polygon fill="#63b8ff" stroke="#63b8ff" points="812.79,-260.52 819.95,-252.71 809.48,-254.35 812.79,-260.52"/>
</a>
</g>
</g>
<!-- Node24 -->
<g id="Node000024" class="node">
<title>Node24</title>
<g id="a_Node000024"><a xlink:href="observable_8h.html" target="_top" xlink:title=" ">
<polygon fill="white" stroke="#666666" points="601,-251.5 529.5,-251.5 529.5,-232.25 601,-232.25 601,-251.5"/>
<text xml:space="preserve" text-anchor="middle" x="565.25" y="-238" font-family="Helvetica,sans-Serif" font-size="10.00">observable.h</text>
</a>
</g>
</g>
<!-- Node23&#45;&gt;Node24 -->
<g id="edge35_Node000023_Node000024" class="edge">
<title>Node23&#45;&gt;Node24</title>
<g id="a_edge35_Node000023_Node000024"><a xlink:title=" ">
<path fill="none" stroke="#63b8ff" d="M621.88,-342.46C610.14,-334.47 593.96,-321.72 584.25,-306.75 575.66,-293.51 570.83,-276.24 568.19,-263"/>
<polygon fill="#63b8ff" stroke="#63b8ff" points="571.67,-262.56 566.54,-253.29 564.77,-263.74 571.67,-262.56"/>
</a>
</g>
</g>
<!-- Node27 -->
<g id="Node000027" class="node">
<title>Node27</title>
<g id="a_Node000027"><a xlink:href="valueproducer_8h.html" target="_top" xlink:title=" ">
<polygon fill="white" stroke="#666666" points="677.38,-306.75 593.12,-306.75 593.12,-287.5 677.38,-287.5 677.38,-306.75"/>
<text xml:space="preserve" text-anchor="middle" x="635.25" y="-293.25" font-family="Helvetica,sans-Serif" font-size="10.00">valueproducer.h</text>
</a>
</g>
</g>
<!-- Node23&#45;&gt;Node27 -->
<g id="edge40_Node000023_Node000027" class="edge">
<title>Node23&#45;&gt;Node27</title>
<g id="a_edge40_Node000023_Node000027"><a xlink:title=" ">
<path fill="none" stroke="#63b8ff" d="M636.08,-342.58C635.96,-336.07 635.79,-326.92 635.63,-318.62"/>
<polygon fill="#63b8ff" stroke="#63b8ff" points="639.13,-318.55 635.45,-308.62 632.14,-318.69 639.13,-318.55"/>
</a>
</g>
</g>
<!-- Node24&#45;&gt;Node13 -->
<g id="edge38_Node000024_Node000013" class="edge">
<title>Node24&#45;&gt;Node13</title>
<g id="a_edge38_Node000024_Node000013"><a xlink:title=" ">
<path fill="none" stroke="#63b8ff" d="M584.59,-231.84C602.36,-223.54 628.97,-211.11 649.45,-201.54"/>
<polygon fill="#63b8ff" stroke="#63b8ff" points="650.87,-204.75 658.45,-197.34 647.9,-198.4 650.87,-204.75"/>
</a>
</g>
</g>
<!-- Node25 -->
<g id="Node000025" class="node">
<title>Node25</title>
<g id="a_Node000025"><a xlink:title=" ">
<polygon fill="#e0e0e0" stroke="#999999" points="525.38,-196.25 459.12,-196.25 459.12,-177 525.38,-177 525.38,-196.25"/>
<text xml:space="preserve" text-anchor="middle" x="492.25" y="-182.75" font-family="Helvetica,sans-Serif" font-size="10.00">forward_list</text>
</a>
</g>
</g>
<!-- Node24&#45;&gt;Node25 -->
<g id="edge36_Node000024_Node000025" class="edge">
<title>Node24&#45;&gt;Node25</title>
<g id="a_edge36_Node000024_Node000025"><a xlink:title=" ">
<path fill="none" stroke="#63b8ff" d="M552.87,-231.84C542.1,-223.99 526.28,-212.45 513.5,-203.12"/>
<polygon fill="#63b8ff" stroke="#63b8ff" points="515.81,-200.48 505.67,-197.42 511.69,-206.14 515.81,-200.48"/>
</a>
</g>
</g>
<!-- Node26 -->
<g id="Node000026" class="node">
<title>Node26</title>
<g id="a_Node000026"><a xlink:title=" ">
<polygon fill="#e0e0e0" stroke="#999999" points="601.25,-196.25 543.25,-196.25 543.25,-177 601.25,-177 601.25,-196.25"/>
<text xml:space="preserve" text-anchor="middle" x="572.25" y="-182.75" font-family="Helvetica,sans-Serif" font-size="10.00">functional</text>
</a>
</g>
</g>
<!-- Node24&#45;&gt;Node26 -->
<g id="edge37_Node000024_Node000026" class="edge">
<title>Node24&#45;&gt;Node26</title>
<g id="a_edge37_Node000024_Node000026"><a xlink:title=" ">
<path fill="none" stroke="#63b8ff" d="M566.41,-232.08C567.27,-225.49 568.49,-216.21 569.59,-207.82"/>
<polygon fill="#63b8ff" stroke="#63b8ff" points="573.04,-208.48 570.87,-198.11 566.1,-207.57 573.04,-208.48"/>
</a>
</g>
</g>
<!-- Node27&#45;&gt;Node4 -->
<g id="edge42_Node000027_Node000004" class="edge">
<title>Node27&#45;&gt;Node4</title>
<g id="a_edge42_Node000027_Node000004"><a xlink:title=" ">
<path fill="none" stroke="#63b8ff" d="M633.74,-287.07C630.31,-267.04 621.38,-217.55 610.25,-177 601.9,-146.58 589.59,-112.12 581.74,-91.11"/>
<polygon fill="#63b8ff" stroke="#63b8ff" points="585.05,-89.95 578.24,-81.83 578.5,-92.42 585.05,-89.95"/>
</a>
</g>
</g>
<!-- Node27&#45;&gt;Node15 -->
<g id="edge41_Node000027_Node000015" class="edge">
<title>Node27&#45;&gt;Node15</title>
<g id="a_edge41_Node000027_Node000015"><a xlink:title=" ">
<path fill="none" stroke="#63b8ff" d="M644.39,-287.32C671.6,-261.11 752.4,-183.28 788.04,-148.95"/>
<polygon fill="#63b8ff" stroke="#63b8ff" points="790.2,-151.73 794.97,-142.27 785.34,-146.69 790.2,-151.73"/>
</a>
</g>
</g>
<!-- Node27&#45;&gt;Node24 -->
<g id="edge43_Node000027_Node000024" class="edge">
<title>Node27&#45;&gt;Node24</title>
<g id="a_edge43_Node000027_Node000024"><a xlink:title=" ">
<path fill="none" stroke="#63b8ff" d="M623.38,-287.09C613.16,-279.32 598.18,-267.92 585.99,-258.65"/>
<polygon fill="#63b8ff" stroke="#63b8ff" points="588.23,-255.96 578.15,-252.69 583.99,-261.53 588.23,-255.96"/>
</a>
</g>
</g>
<!-- Node28 -->
<g id="Node000028" class="node">
<title>Node28</title>
<g id="a_Node000028"><a xlink:href="valueconsumer_8h.html" target="_top" xlink:title=" ">
<polygon fill="white" stroke="#666666" points="441,-196.25 351.5,-196.25 351.5,-177 441,-177 441,-196.25"/>
<text xml:space="preserve" text-anchor="middle" x="396.25" y="-182.75" font-family="Helvetica,sans-Serif" font-size="10.00">valueconsumer.h</text>
</a>
</g>
</g>
<!-- Node27&#45;&gt;Node28 -->
<g id="edge44_Node000027_Node000028" class="edge">
<title>Node27&#45;&gt;Node28</title>
<g id="a_edge44_Node000027_Node000028"><a xlink:title=" ">
<path fill="none" stroke="#63b8ff" d="M609.81,-287.13C586.29,-278.61 550.52,-265.12 520.25,-251.5 485.82,-236 447.33,-215.69 422.5,-202.17"/>
<polygon fill="#63b8ff" stroke="#63b8ff" points="424.21,-199.12 413.76,-197.38 420.84,-205.26 424.21,-199.12"/>
</a>
</g>
</g>
<!-- Node28&#45;&gt;Node2 -->
<g id="edge45_Node000028_Node000002" class="edge">
<title>Node28&#45;&gt;Node2</title>
<g id="a_edge45_Node000028_Node000002"><a xlink:title=" ">
<path fill="none" stroke="#63b8ff" d="M417.28,-176.59C436.88,-168.18 466.36,-155.52 488.76,-145.9"/>
<polygon fill="#63b8ff" stroke="#63b8ff" points="489.91,-149.21 497.72,-142.05 487.15,-142.78 489.91,-149.21"/>
</a>
</g>
</g>
<!-- Node28&#45;&gt;Node15 -->
<g id="edge46_Node000028_Node000015" class="edge">
<title>Node28&#45;&gt;Node15</title>
<g id="a_edge46_Node000028_Node000015"><a xlink:title=" ">
<path fill="none" stroke="#63b8ff" d="M441.31,-178.31C444.34,-177.86 447.34,-177.42 450.25,-177 558.37,-161.57 685.44,-146.29 754.42,-138.22"/>
<polygon fill="#63b8ff" stroke="#63b8ff" points="754.76,-141.71 764.29,-137.07 753.95,-134.76 754.76,-141.71"/>
</a>
</g>
</g>
<!-- Node29 -->
<g id="Node000029" class="node">
<title>Node29</title>
<g id="a_Node000029"><a xlink:title=" ">
<polygon fill="#e0e0e0" stroke="#999999" points="420.38,-141 372.12,-141 372.12,-121.75 420.38,-121.75 420.38,-141"/>
<text xml:space="preserve" text-anchor="middle" x="396.25" y="-127.5" font-family="Helvetica,sans-Serif" font-size="10.00">stdint.h</text>
</a>
</g>
</g>
<!-- Node28&#45;&gt;Node29 -->
<g id="edge47_Node000028_Node000029" class="edge">
<title>Node28&#45;&gt;Node29</title>
<g id="a_edge47_Node000028_Node000029"><a xlink:title=" ">
<path fill="none" stroke="#63b8ff" d="M396.25,-176.83C396.25,-170.32 396.25,-161.17 396.25,-152.87"/>
<polygon fill="#63b8ff" stroke="#63b8ff" points="399.75,-152.87 396.25,-142.87 392.75,-152.87 399.75,-152.87"/>
</a>
</g>
</g>
<!-- Node30&#45;&gt;Node3 -->
<g id="edge51_Node000030_Node000003" class="edge">
<title>Node30&#45;&gt;Node3</title>
<g id="a_edge51_Node000030_Node000003"><a xlink:title=" ">
<path fill="none" stroke="#63b8ff" d="M770.66,-452.78C843.72,-421.36 1081.47,-315.8 1132.25,-251.5 1171.04,-202.38 1185.84,-127.22 1190.9,-91.58"/>
<polygon fill="#63b8ff" stroke="#63b8ff" points="1194.35,-92.23 1192.16,-81.86 1187.4,-91.33 1194.35,-92.23"/>
</a>
</g>
</g>
<!-- Node30&#45;&gt;Node7 -->
<g id="edge49_Node000030_Node000007" class="edge">
<title>Node30&#45;&gt;Node7</title>
<g id="a_edge49_Node000030_Node000007"><a xlink:title=" ">
<path fill="none" stroke="#63b8ff" d="M722.38,-458.69C638.53,-448.75 386.75,-418.86 378.25,-417.25 273.16,-397.39 146.25,-460.32 146.25,-353.38 146.25,-353.38 146.25,-353.38 146.25,-130.38 146.25,-53.84 734.1,-20.21 894.97,-12.44"/>
<polygon fill="#63b8ff" stroke="#63b8ff" points="894.9,-15.95 904.72,-11.98 894.57,-8.95 894.9,-15.95"/>
</a>
</g>
</g>
<!-- Node30&#45;&gt;Node16 -->
<g id="edge53_Node000030_Node000016" class="edge">
<title>Node30&#45;&gt;Node16</title>
<g id="a_edge53_Node000030_Node000016"><a xlink:title=" ">
<path fill="none" stroke="#63b8ff" d="M772.03,-452.78C787.15,-445.5 806.02,-433.77 816.25,-417.25 846.44,-368.48 844.16,-297.31 840.81,-262.93"/>
<polygon fill="#63b8ff" stroke="#63b8ff" points="844.31,-262.73 839.71,-253.19 837.35,-263.52 844.31,-262.73"/>
</a>
</g>
</g>
<!-- Node30&#45;&gt;Node18 -->
<g id="edge55_Node000030_Node000018" class="edge">
<title>Node30&#45;&gt;Node18</title>
<g id="a_edge55_Node000030_Node000018"><a xlink:title=" ">
<path fill="none" stroke="#63b8ff" d="M722.61,-455.95C718.15,-455.01 713.58,-454.08 709.25,-453.25 640.48,-440.12 561.35,-427.21 507,-418.68"/>
<polygon fill="#63b8ff" stroke="#63b8ff" points="507.71,-415.25 497.29,-417.17 506.63,-422.17 507.71,-415.25"/>
</a>
</g>
</g>
<!-- Node30&#45;&gt;Node24 -->
<g id="edge52_Node000030_Node000024" class="edge">
<title>Node30&#45;&gt;Node24</title>
<g id="a_edge52_Node000030_Node000024"><a xlink:title=" ">
<path fill="none" stroke="#63b8ff" d="M722.38,-458.06C676.07,-449.87 582.35,-425.87 542.25,-362 522.63,-330.75 540.63,-286.49 553.95,-261.66"/>
<polygon fill="#63b8ff" stroke="#63b8ff" points="556.95,-263.47 558.84,-253.05 550.86,-260.01 556.95,-263.47"/>
</a>
</g>
</g>
<!-- Node30&#45;&gt;Node27 -->
<g id="edge54_Node000030_Node000027" class="edge">
<title>Node30&#45;&gt;Node27</title>
<g id="a_edge54_Node000030_Node000027"><a xlink:title=" ">
<path fill="none" stroke="#63b8ff" d="M750.43,-453.04C752.78,-431.72 755.81,-376.73 730.25,-342.75 719.09,-327.92 701.77,-317.82 684.96,-311.04"/>
<polygon fill="#63b8ff" stroke="#63b8ff" points="686.64,-307.93 676.04,-307.76 684.22,-314.5 686.64,-307.93"/>
</a>
</g>
</g>
<!-- Node31 -->
<g id="Node000031" class="node">
<title>Node31</title>
<g id="a_Node000031"><a xlink:title=" ">
<polygon fill="#e0e0e0" stroke="#999999" points="807,-417.25 777.5,-417.25 777.5,-398 807,-398 807,-417.25"/>
<text xml:space="preserve" text-anchor="middle" x="792.25" y="-403.75" font-family="Helvetica,sans-Serif" font-size="10.00">set</text>
</a>
</g>
</g>
<!-- Node30&#45;&gt;Node31 -->
<g id="edge50_Node000030_Node000031" class="edge">
<title>Node30&#45;&gt;Node31</title>
<g id="a_edge50_Node000030_Node000031"><a xlink:title=" ">
<path fill="none" stroke="#63b8ff" d="M756.35,-453.08C762.17,-445.88 770.58,-435.46 777.81,-426.51"/>
<polygon fill="#63b8ff" stroke="#63b8ff" points="780.48,-428.77 784.04,-418.79 775.04,-424.37 780.48,-428.77"/>
</a>
</g>
</g>
</g>
</svg>

<g id="navigator" transform="translate(0 0)" fill="#404254">
  <rect fill="#f2f5e9" fill-opacity="0.5" stroke="#606060" stroke-width=".5" x="0" y="0" width="60" height="60"/>
  <use id="zoomplus" xlink:href="#zoomPlus" x="17" y="9" onmousedown="handleZoom(evt,'in')"/>
  <use id="zoomminus" xlink:href="#zoomMin" x="42" y="9" onmousedown="handleZoom(evt,'out')"/>
  <use id="reset" xlink:href="#resetDef" x="30" y="36" onmousedown="handleReset()"/>
   <use id="arrowup" xlink:href="#arrowUp" x="0" y="0" onmousedown="handlePan(0,-1)"/>
  <use id="arrowright" xlink:href="#arrowRight" x="0" y="0" onmousedown="handlePan(1,0)"/>
  <use id="arrowdown" xlink:href="#arrowDown" x="0" y="0" onmousedown="handlePan(0,1)"/>
  <use id="arrowleft" xlink:href="#arrowLeft" x="0" y="0" onmousedown="handlePan(-1,0)"/>
</g>
<svg viewBox="0 0 15 15" width="100%" height="30px" preserveAspectRatio="xMaxYMin meet">
 <g id="arrow_out" transform="scale(0.3 0.3)">
  <a xlink:href="digital__input_8cpp__incl_org.svg" target="_base">
   <rect id="button" ry="5" rx="5" y="6" x="6" height="38" width="38"
        fill="#f2f5e9" fill-opacity="0.5" stroke="#606060" stroke-width="1.0"/>
   <path id="arrow"
     d="M 11.500037,31.436501 C 11.940474,20.09759 22.043105,11.32322 32.158766,21.979434 L 37.068811,17.246167 C 37.068811,17.246167 37.088388,32 37.088388,32 L 22.160133,31.978069 C 22.160133,31.978069 26.997745,27.140456 26.997745,27.140456 C 18.528582,18.264221 13.291696,25.230495 11.500037,31.436501 z"
     style="fill:#404040;"/>
  </a>
 </g>
</svg>

<style type='text/css'>
<![CDATA[
[data-mouse-over-selected='false'] { opacity: 0.7; }
[data-mouse-over-selected='true']  { opacity: 1.0; }
]]>
</style>
<script type="application/ecmascript"><![CDATA[
document.addEventListener('DOMContentLoaded', (event) => {
  highlightEdges();
  highlightAdjacentNodes();
});
]]></script>
</svg>
