<?xml version="1.0" encoding="UTF-8" standalone="no"?>
<!DOCTYPE svg PUBLIC "-//W3C//DTD SVG 1.1//EN"
 "http://www.w3.org/Graphics/SVG/1.1/DTD/svg11.dtd">
<!-- Generated by graphviz version 12.1.0 (20240811.2233)
 -->
<!-- Title: src/sensesp/sensors/digital_input.cpp Pages: 1 -->
<svg width="691pt" height="547pt"
 viewBox="0.00 0.00 691.00 547.00" xmlns="http://www.w3.org/2000/svg" xmlns:xlink="http://www.w3.org/1999/xlink">
<g id="graph0" class="graph" transform="scale(1 1) rotate(0) translate(4 543)">
<title>src/sensesp/sensors/digital_input.cpp</title>
<!-- Node1 -->
<g id="Node000001" class="node">
<title>Node1</title>
<g id="a_Node000001"><a xlink:title=" ">
<polygon fill="#999999" stroke="#666666" points="232.38,-539 125.62,-539 125.62,-508.5 232.38,-508.5 232.38,-539"/>
<text text-anchor="start" x="133.62" y="-525.5" font-family="Helvetica,sans-Serif" font-size="10.00">src/sensesp/sensors</text>
<text text-anchor="middle" x="179" y="-514.25" font-family="Helvetica,sans-Serif" font-size="10.00">/digital_input.cpp</text>
</a>
</g>
</g>
<!-- Node2 -->
<g id="Node000002" class="node">
<title>Node2</title>
<g id="a_Node000002"><a xlink:href="sensesp_8h.html" target="_top" xlink:title=" ">
<polygon fill="white" stroke="#666666" points="118.5,-141 57.5,-141 57.5,-121.75 118.5,-121.75 118.5,-141"/>
<text text-anchor="middle" x="88" y="-127.5" font-family="Helvetica,sans-Serif" font-size="10.00">sensesp.h</text>
</a>
</g>
</g>
<!-- Node1&#45;&gt;Node2 -->
<g id="edge1_Node000001_Node000002" class="edge">
<title>Node1&#45;&gt;Node2</title>
<g id="a_edge1_Node000001_Node000002"><a xlink:title=" ">
<path fill="none" stroke="#63b8ff" d="M125.29,-512.29C72.57,-498.54 0,-468.7 0,-408.62 0,-408.62 0,-408.62 0,-240.88 0,-200.23 37.71,-166.3 63.76,-147.72"/>
<polygon fill="#63b8ff" stroke="#63b8ff" points="65.54,-150.74 71.82,-142.21 61.59,-144.96 65.54,-150.74"/>
</a>
</g>
</g>
<!-- Node8 -->
<g id="Node000008" class="node">
<title>Node8</title>
<g id="a_Node000008"><a xlink:href="digital__input_8h.html" target="_top" xlink:title=" ">
<polygon fill="white" stroke="#666666" points="250,-472.5 174,-472.5 174,-453.25 250,-453.25 250,-472.5"/>
<text text-anchor="middle" x="212" y="-459" font-family="Helvetica,sans-Serif" font-size="10.00">digital_input.h</text>
</a>
</g>
</g>
<!-- Node1&#45;&gt;Node8 -->
<g id="edge7_Node000001_Node000008" class="edge">
<title>Node1&#45;&gt;Node8</title>
<g id="a_edge7_Node000001_Node000008"><a xlink:title=" ">
<path fill="none" stroke="#63b8ff" d="M187.16,-508.2C191.46,-500.53 196.78,-491.02 201.4,-482.79"/>
<polygon fill="#63b8ff" stroke="#63b8ff" points="204.34,-484.71 206.17,-474.27 198.23,-481.28 204.34,-484.71"/>
</a>
</g>
</g>
<!-- Node9 -->
<g id="Node000009" class="node">
<title>Node9</title>
<g id="a_Node000009"><a xlink:title=" ">
<polygon fill="#e0e0e0" stroke="#999999" points="186.25,-417.25 105.75,-417.25 105.75,-398 186.25,-398 186.25,-417.25"/>
<text text-anchor="middle" x="146" y="-403.75" font-family="Helvetica,sans-Serif" font-size="10.00">elapsedMillis.h</text>
</a>
</g>
</g>
<!-- Node1&#45;&gt;Node9 -->
<g id="edge40_Node000001_Node000009" class="edge">
<title>Node1&#45;&gt;Node9</title>
<g id="a_edge40_Node000001_Node000009"><a xlink:title=" ">
<path fill="none" stroke="#63b8ff" d="M174.82,-508.3C169,-488.15 158.41,-451.56 151.82,-428.75"/>
<polygon fill="#63b8ff" stroke="#63b8ff" points="155.18,-427.79 149.04,-419.15 148.46,-429.73 155.18,-427.79"/>
</a>
</g>
</g>
<!-- Node28 -->
<g id="Node000028" class="node">
<title>Node28</title>
<g id="a_Node000028"><a xlink:title=" ">
<polygon fill="#e0e0e0" stroke="#999999" points="373.62,-472.5 268.38,-472.5 268.38,-453.25 373.62,-453.25 373.62,-472.5"/>
<text text-anchor="middle" x="321" y="-459" font-family="Helvetica,sans-Serif" font-size="10.00">FunctionalInterrupt.h</text>
</a>
</g>
</g>
<!-- Node1&#45;&gt;Node28 -->
<g id="edge39_Node000001_Node000028" class="edge">
<title>Node1&#45;&gt;Node28</title>
<g id="a_edge39_Node000001_Node000028"><a xlink:title=" ">
<path fill="none" stroke="#63b8ff" d="M214.47,-508.05C237.24,-498.6 266.57,-486.44 288.69,-477.27"/>
<polygon fill="#63b8ff" stroke="#63b8ff" points="289.93,-480.55 297.82,-473.48 287.25,-474.08 289.93,-480.55"/>
</a>
</g>
</g>
<!-- Node3 -->
<g id="Node000003" class="node">
<title>Node3</title>
<g id="a_Node000003"><a xlink:title=" ">
<polygon fill="#e0e0e0" stroke="#999999" points="207.62,-80.12 138.38,-80.12 138.38,-60.88 207.62,-60.88 207.62,-80.12"/>
<text text-anchor="middle" x="173" y="-66.62" font-family="Helvetica,sans-Serif" font-size="10.00">ReactESP.h</text>
</a>
</g>
</g>
<!-- Node2&#45;&gt;Node3 -->
<g id="edge2_Node000002_Node000003" class="edge">
<title>Node2&#45;&gt;Node3</title>
<g id="a_edge2_Node000002_Node000003"><a xlink:title=" ">
<path fill="none" stroke="#63b8ff" d="M100.91,-121.43C114.14,-112.27 134.97,-97.84 150.84,-86.85"/>
<polygon fill="#63b8ff" stroke="#63b8ff" points="152.5,-89.96 158.72,-81.39 148.51,-84.2 152.5,-89.96"/>
</a>
</g>
</g>
<!-- Node4 -->
<g id="Node000004" class="node">
<title>Node4</title>
<g id="a_Node000004"><a xlink:href="local__debug_8h.html" target="_top" xlink:title=" ">
<polygon fill="white" stroke="#666666" points="120.62,-85.75 9.38,-85.75 9.38,-55.25 120.62,-55.25 120.62,-85.75"/>
<text text-anchor="start" x="17.38" y="-72.25" font-family="Helvetica,sans-Serif" font-size="10.00">sensesp/system/local</text>
<text text-anchor="middle" x="65" y="-61" font-family="Helvetica,sans-Serif" font-size="10.00">_debug.h</text>
</a>
</g>
</g>
<!-- Node2&#45;&gt;Node4 -->
<g id="edge3_Node000002_Node000004" class="edge">
<title>Node2&#45;&gt;Node4</title>
<g id="a_edge3_Node000002_Node000004"><a xlink:title=" ">
<path fill="none" stroke="#63b8ff" d="M84.51,-121.43C81.93,-114.83 78.28,-105.49 74.84,-96.68"/>
<polygon fill="#63b8ff" stroke="#63b8ff" points="78.13,-95.48 71.23,-87.44 71.61,-98.03 78.13,-95.48"/>
</a>
</g>
</g>
<!-- Node5 -->
<g id="Node000005" class="node">
<title>Node5</title>
<g id="a_Node000005"><a xlink:title=" ">
<polygon fill="#e0e0e0" stroke="#999999" points="147,-19.25 65,-19.25 65,0 147,0 147,-19.25"/>
<text text-anchor="middle" x="106" y="-5.75" font-family="Helvetica,sans-Serif" font-size="10.00">esp32&#45;hal&#45;log.h</text>
</a>
</g>
</g>
<!-- Node4&#45;&gt;Node5 -->
<g id="edge4_Node000004_Node000005" class="edge">
<title>Node4&#45;&gt;Node5</title>
<g id="a_edge4_Node000004_Node000005"><a xlink:title=" ">
<path fill="none" stroke="#63b8ff" d="M75.13,-54.95C80.6,-47.1 87.39,-37.35 93.21,-28.99"/>
<polygon fill="#63b8ff" stroke="#63b8ff" points="95.97,-31.15 98.81,-20.94 90.23,-27.15 95.97,-31.15"/>
</a>
</g>
</g>
<!-- Node6 -->
<g id="Node000006" class="node">
<title>Node6</title>
<g id="a_Node000006"><a xlink:title=" ">
<polygon fill="#e0e0e0" stroke="#999999" points="243.62,-19.25 186.38,-19.25 186.38,0 243.62,0 243.62,-19.25"/>
<text text-anchor="middle" x="215" y="-5.75" font-family="Helvetica,sans-Serif" font-size="10.00">Arduino.h</text>
</a>
</g>
</g>
<!-- Node4&#45;&gt;Node6 -->
<g id="edge5_Node000004_Node000006" class="edge">
<title>Node4&#45;&gt;Node6</title>
<g id="a_edge5_Node000004_Node000006"><a xlink:title=" ">
<path fill="none" stroke="#63b8ff" d="M102.46,-54.8C126.74,-45.27 158.07,-32.97 181.51,-23.77"/>
<polygon fill="#63b8ff" stroke="#63b8ff" points="182.56,-27.12 190.59,-20.21 180,-20.6 182.56,-27.12"/>
</a>
</g>
</g>
<!-- Node7 -->
<g id="Node000007" class="node">
<title>Node7</title>
<g id="a_Node000007"><a xlink:title=" ">
<polygon fill="#e0e0e0" stroke="#999999" points="47.25,-19.25 2.75,-19.25 2.75,0 47.25,0 47.25,-19.25"/>
<text text-anchor="middle" x="25" y="-5.75" font-family="Helvetica,sans-Serif" font-size="10.00">Print.h</text>
</a>
</g>
</g>
<!-- Node4&#45;&gt;Node7 -->
<g id="edge6_Node000004_Node000007" class="edge">
<title>Node4&#45;&gt;Node7</title>
<g id="a_edge6_Node000004_Node000007"><a xlink:title=" ">
<path fill="none" stroke="#63b8ff" d="M55.11,-54.95C49.78,-47.1 43.15,-37.35 37.47,-28.99"/>
<polygon fill="#63b8ff" stroke="#63b8ff" points="40.53,-27.26 32.02,-20.95 34.74,-31.19 40.53,-27.26"/>
</a>
</g>
</g>
<!-- Node8&#45;&gt;Node9 -->
<g id="edge8_Node000008_Node000009" class="edge">
<title>Node8&#45;&gt;Node9</title>
<g id="a_edge8_Node000008_Node000009"><a xlink:title=" ">
<path fill="none" stroke="#63b8ff" d="M200.8,-452.84C191.26,-445.15 177.33,-433.9 165.89,-424.68"/>
<polygon fill="#63b8ff" stroke="#63b8ff" points="168.19,-422.03 158.21,-418.48 163.79,-427.48 168.19,-422.03"/>
</a>
</g>
</g>
<!-- Node10 -->
<g id="Node000010" class="node">
<title>Node10</title>
<g id="a_Node000010"><a xlink:href="sensesp__base__app_8h.html" target="_top" xlink:title=" ">
<polygon fill="white" stroke="#666666" points="268.12,-362 159.88,-362 159.88,-342.75 268.12,-342.75 268.12,-362"/>
<text text-anchor="middle" x="214" y="-348.5" font-family="Helvetica,sans-Serif" font-size="10.00">sensesp_base_app.h</text>
</a>
</g>
</g>
<!-- Node8&#45;&gt;Node10 -->
<g id="edge9_Node000008_Node000010" class="edge">
<title>Node8&#45;&gt;Node10</title>
<g id="a_edge9_Node000008_Node000010"><a xlink:title=" ">
<path fill="none" stroke="#63b8ff" d="M212.16,-453C212.48,-435.75 213.19,-397.33 213.63,-373.56"/>
<polygon fill="#63b8ff" stroke="#63b8ff" points="217.12,-373.95 213.81,-363.89 210.12,-373.82 217.12,-373.95"/>
</a>
</g>
</g>
<!-- Node26 -->
<g id="Node000026" class="node">
<title>Node26</title>
<g id="a_Node000026"><a xlink:href="sensor_8h.html" target="_top" xlink:title=" ">
<polygon fill="white" stroke="#666666" points="361.38,-417.25 308.62,-417.25 308.62,-398 361.38,-398 361.38,-417.25"/>
<text text-anchor="middle" x="335" y="-403.75" font-family="Helvetica,sans-Serif" font-size="10.00">sensor.h</text>
</a>
</g>
</g>
<!-- Node8&#45;&gt;Node26 -->
<g id="edge33_Node000008_Node000026" class="edge">
<title>Node8&#45;&gt;Node26</title>
<g id="a_edge33_Node000008_Node000026"><a xlink:title=" ">
<path fill="none" stroke="#63b8ff" d="M232.87,-452.84C252.3,-444.43 281.54,-431.77 303.76,-422.15"/>
<polygon fill="#63b8ff" stroke="#63b8ff" points="304.86,-425.49 312.64,-418.3 302.08,-419.06 304.86,-425.49"/>
</a>
</g>
</g>
<!-- Node10&#45;&gt;Node2 -->
<g id="edge10_Node000010_Node000002" class="edge">
<title>Node10&#45;&gt;Node2</title>
<g id="a_edge10_Node000010_Node000002"><a xlink:title=" ">
<path fill="none" stroke="#63b8ff" d="M159.68,-343.03C119.46,-335.62 69.55,-323.37 57,-306.75 21.55,-259.82 56.39,-185.66 76.27,-151.17"/>
<polygon fill="#63b8ff" stroke="#63b8ff" points="79.17,-153.12 81.31,-142.75 73.17,-149.53 79.17,-153.12"/>
</a>
</g>
</g>
<!-- Node11 -->
<g id="Node000011" class="node">
<title>Node11</title>
<g id="a_Node000011"><a xlink:title=" ">
<polygon fill="#e0e0e0" stroke="#999999" points="124,-306.75 66,-306.75 66,-287.5 124,-287.5 124,-306.75"/>
<text text-anchor="middle" x="95" y="-293.25" font-family="Helvetica,sans-Serif" font-size="10.00">esp_log.h</text>
</a>
</g>
</g>
<!-- Node10&#45;&gt;Node11 -->
<g id="edge11_Node000010_Node000011" class="edge">
<title>Node10&#45;&gt;Node11</title>
<g id="a_edge11_Node000010_Node000011"><a xlink:title=" ">
<path fill="none" stroke="#63b8ff" d="M193.81,-342.34C175.09,-333.97 146.98,-321.38 125.52,-311.78"/>
<polygon fill="#63b8ff" stroke="#63b8ff" points="127.22,-308.71 116.67,-307.82 124.37,-315.1 127.22,-308.71"/>
</a>
</g>
</g>
<!-- Node12 -->
<g id="Node000012" class="node">
<title>Node12</title>
<g id="a_Node000012"><a xlink:href="filesystem_8h.html" target="_top" xlink:title=" ">
<polygon fill="white" stroke="#666666" points="286.12,-306.75 141.88,-306.75 141.88,-287.5 286.12,-287.5 286.12,-306.75"/>
<text text-anchor="middle" x="214" y="-293.25" font-family="Helvetica,sans-Serif" font-size="10.00">sensesp/system/filesystem.h</text>
</a>
</g>
</g>
<!-- Node10&#45;&gt;Node12 -->
<g id="edge12_Node000010_Node000012" class="edge">
<title>Node10&#45;&gt;Node12</title>
<g id="a_edge12_Node000010_Node000012"><a xlink:title=" ">
<path fill="none" stroke="#63b8ff" d="M214,-342.58C214,-336.07 214,-326.92 214,-318.62"/>
<polygon fill="#63b8ff" stroke="#63b8ff" points="217.5,-318.62 214,-308.62 210.5,-318.62 217.5,-318.62"/>
</a>
</g>
</g>
<!-- Node15 -->
<g id="Node000015" class="node">
<title>Node15</title>
<g id="a_Node000015"><a xlink:href="observablevalue_8h.html" target="_top" xlink:title=" ">
<polygon fill="white" stroke="#666666" points="511.88,-306.75 342.12,-306.75 342.12,-287.5 511.88,-287.5 511.88,-306.75"/>
<text text-anchor="middle" x="427" y="-293.25" font-family="Helvetica,sans-Serif" font-size="10.00">sensesp/system/observablevalue.h</text>
</a>
</g>
</g>
<!-- Node10&#45;&gt;Node15 -->
<g id="edge15_Node000010_Node000015" class="edge">
<title>Node10&#45;&gt;Node15</title>
<g id="a_edge15_Node000010_Node000015"><a xlink:title=" ">
<path fill="none" stroke="#63b8ff" d="M250.13,-342.34C285.78,-333.43 340.47,-319.76 379.59,-309.98"/>
<polygon fill="#63b8ff" stroke="#63b8ff" points="380.37,-313.39 389.22,-307.57 378.67,-306.6 380.37,-313.39"/>
</a>
</g>
</g>
<!-- Node13 -->
<g id="Node000013" class="node">
<title>Node13</title>
<g id="a_Node000013"><a xlink:href="resettable_8h.html" target="_top" xlink:title=" ">
<polygon fill="white" stroke="#666666" points="247.5,-251.5 180.5,-251.5 180.5,-232.25 247.5,-232.25 247.5,-251.5"/>
<text text-anchor="middle" x="214" y="-238" font-family="Helvetica,sans-Serif" font-size="10.00">resettable.h</text>
</a>
</g>
</g>
<!-- Node12&#45;&gt;Node13 -->
<g id="edge13_Node000012_Node000013" class="edge">
<title>Node12&#45;&gt;Node13</title>
<g id="a_edge13_Node000012_Node000013"><a xlink:title=" ">
<path fill="none" stroke="#63b8ff" d="M214,-287.33C214,-280.82 214,-271.67 214,-263.37"/>
<polygon fill="#63b8ff" stroke="#63b8ff" points="217.5,-263.37 214,-253.37 210.5,-263.37 217.5,-263.37"/>
</a>
</g>
</g>
<!-- Node14 -->
<g id="Node000014" class="node">
<title>Node14</title>
<g id="a_Node000014"><a xlink:title=" ">
<polygon fill="#e0e0e0" stroke="#999999" points="235.12,-196.25 192.88,-196.25 192.88,-177 235.12,-177 235.12,-196.25"/>
<text text-anchor="middle" x="214" y="-182.75" font-family="Helvetica,sans-Serif" font-size="10.00">queue</text>
</a>
</g>
</g>
<!-- Node13&#45;&gt;Node14 -->
<g id="edge14_Node000013_Node000014" class="edge">
<title>Node13&#45;&gt;Node14</title>
<g id="a_edge14_Node000013_Node000014"><a xlink:title=" ">
<path fill="none" stroke="#63b8ff" d="M214,-232.08C214,-225.57 214,-216.42 214,-208.12"/>
<polygon fill="#63b8ff" stroke="#63b8ff" points="217.5,-208.12 214,-198.12 210.5,-208.12 217.5,-208.12"/>
</a>
</g>
</g>
<!-- Node16 -->
<g id="Node000016" class="node">
<title>Node16</title>
<g id="a_Node000016"><a xlink:href="configurable_8h.html" target="_top" xlink:title=" ">
<polygon fill="white" stroke="#666666" points="331.38,-196.25 254.62,-196.25 254.62,-177 331.38,-177 331.38,-196.25"/>
<text text-anchor="middle" x="293" y="-182.75" font-family="Helvetica,sans-Serif" font-size="10.00">configurable.h</text>
</a>
</g>
</g>
<!-- Node15&#45;&gt;Node16 -->
<g id="edge16_Node000015_Node000016" class="edge">
<title>Node15&#45;&gt;Node16</title>
<g id="a_edge16_Node000015_Node000016"><a xlink:title=" ">
<path fill="none" stroke="#63b8ff" d="M416.03,-287.25C393.46,-268.97 341.51,-226.9 312.86,-203.71"/>
<polygon fill="#63b8ff" stroke="#63b8ff" points="315.27,-201.15 305.29,-197.58 310.86,-206.59 315.27,-201.15"/>
</a>
</g>
</g>
<!-- Node20 -->
<g id="Node000020" class="node">
<title>Node20</title>
<g id="a_Node000020"><a xlink:href="observable_8h.html" target="_top" xlink:title=" ">
<polygon fill="white" stroke="#666666" points="586.75,-196.25 515.25,-196.25 515.25,-177 586.75,-177 586.75,-196.25"/>
<text text-anchor="middle" x="551" y="-182.75" font-family="Helvetica,sans-Serif" font-size="10.00">observable.h</text>
</a>
</g>
</g>
<!-- Node15&#45;&gt;Node20 -->
<g id="edge22_Node000015_Node000020" class="edge">
<title>Node15&#45;&gt;Node20</title>
<g id="a_edge22_Node000015_Node000020"><a xlink:title=" ">
<path fill="none" stroke="#63b8ff" d="M456.54,-287.1C475.93,-279.96 500.78,-268.37 518,-251.5 530.55,-239.21 539.28,-221.12 544.59,-207.33"/>
<polygon fill="#63b8ff" stroke="#63b8ff" points="547.86,-208.59 547.89,-197.99 541.26,-206.26 547.86,-208.59"/>
</a>
</g>
</g>
<!-- Node23 -->
<g id="Node000023" class="node">
<title>Node23</title>
<g id="a_Node000023"><a xlink:href="valueproducer_8h.html" target="_top" xlink:title=" ">
<polygon fill="white" stroke="#666666" points="509.12,-251.5 424.88,-251.5 424.88,-232.25 509.12,-232.25 509.12,-251.5"/>
<text text-anchor="middle" x="467" y="-238" font-family="Helvetica,sans-Serif" font-size="10.00">valueproducer.h</text>
</a>
</g>
</g>
<!-- Node15&#45;&gt;Node23 -->
<g id="edge26_Node000015_Node000023" class="edge">
<title>Node15&#45;&gt;Node23</title>
<g id="a_edge26_Node000015_Node000023"><a xlink:title=" ">
<path fill="none" stroke="#63b8ff" d="M433.61,-287.33C438.96,-280.21 446.68,-269.93 453.35,-261.05"/>
<polygon fill="#63b8ff" stroke="#63b8ff" points="456.13,-263.17 459.34,-253.07 450.54,-258.96 456.13,-263.17"/>
</a>
</g>
</g>
<!-- Node16&#45;&gt;Node2 -->
<g id="edge17_Node000016_Node000002" class="edge">
<title>Node16&#45;&gt;Node2</title>
<g id="a_edge17_Node000016_Node000002"><a xlink:title=" ">
<path fill="none" stroke="#63b8ff" d="M258.22,-176.59C222.67,-167.36 167.43,-153.01 129.58,-143.18"/>
<polygon fill="#63b8ff" stroke="#63b8ff" points="130.94,-139.91 120.38,-140.79 129.18,-146.69 130.94,-139.91"/>
</a>
</g>
</g>
<!-- Node16&#45;&gt;Node6 -->
<g id="edge21_Node000016_Node000006" class="edge">
<title>Node16&#45;&gt;Node6</title>
<g id="a_edge21_Node000016_Node000006"><a xlink:title=" ">
<path fill="none" stroke="#63b8ff" d="M283.3,-176.56C274.76,-168.1 262.53,-154.74 255,-141 235.14,-104.78 223.77,-57.38 218.55,-30.86"/>
<polygon fill="#63b8ff" stroke="#63b8ff" points="222.01,-30.34 216.74,-21.14 215.13,-31.62 222.01,-30.34"/>
</a>
</g>
</g>
<!-- Node17 -->
<g id="Node000017" class="node">
<title>Node17</title>
<g id="a_Node000017"><a xlink:title=" ">
<polygon fill="#e0e0e0" stroke="#999999" points="395.12,-141 316.88,-141 316.88,-121.75 395.12,-121.75 395.12,-141"/>
<text text-anchor="middle" x="356" y="-127.5" font-family="Helvetica,sans-Serif" font-size="10.00">ArduinoJson.h</text>
</a>
</g>
</g>
<!-- Node16&#45;&gt;Node17 -->
<g id="edge18_Node000016_Node000017" class="edge">
<title>Node16&#45;&gt;Node17</title>
<g id="a_edge18_Node000016_Node000017"><a xlink:title=" ">
<path fill="none" stroke="#63b8ff" d="M303.69,-176.59C312.7,-168.97 325.83,-157.87 336.68,-148.7"/>
<polygon fill="#63b8ff" stroke="#63b8ff" points="338.94,-151.38 344.31,-142.25 334.42,-146.03 338.94,-151.38"/>
</a>
</g>
</g>
<!-- Node18 -->
<g id="Node000018" class="node">
<title>Node18</title>
<g id="a_Node000018"><a xlink:title=" ">
<polygon fill="#e0e0e0" stroke="#999999" points="298.38,-141 263.62,-141 263.62,-121.75 298.38,-121.75 298.38,-141"/>
<text text-anchor="middle" x="281" y="-127.5" font-family="Helvetica,sans-Serif" font-size="10.00">map</text>
</a>
</g>
</g>
<!-- Node16&#45;&gt;Node18 -->
<g id="edge19_Node000016_Node000018" class="edge">
<title>Node16&#45;&gt;Node18</title>
<g id="a_edge19_Node000016_Node000018"><a xlink:title=" ">
<path fill="none" stroke="#63b8ff" d="M291.02,-176.83C289.53,-170.24 287.44,-160.96 285.55,-152.57"/>
<polygon fill="#63b8ff" stroke="#63b8ff" points="288.97,-151.82 283.36,-142.84 282.14,-153.36 288.97,-151.82"/>
</a>
</g>
</g>
<!-- Node19 -->
<g id="Node000019" class="node">
<title>Node19</title>
<g id="a_Node000019"><a xlink:title=" ">
<polygon fill="#e0e0e0" stroke="#999999" points="456.5,-141 413.5,-141 413.5,-121.75 456.5,-121.75 456.5,-141"/>
<text text-anchor="middle" x="435" y="-127.5" font-family="Helvetica,sans-Serif" font-size="10.00">vector</text>
</a>
</g>
</g>
<!-- Node16&#45;&gt;Node19 -->
<g id="edge20_Node000016_Node000019" class="edge">
<title>Node16&#45;&gt;Node19</title>
<g id="a_edge20_Node000016_Node000019"><a xlink:title=" ">
<path fill="none" stroke="#63b8ff" d="M317.09,-176.59C340.63,-167.76 376.62,-154.27 402.65,-144.51"/>
<polygon fill="#63b8ff" stroke="#63b8ff" points="403.58,-147.9 411.71,-141.11 401.12,-141.34 403.58,-147.9"/>
</a>
</g>
</g>
<!-- Node20&#45;&gt;Node19 -->
<g id="edge25_Node000020_Node000019" class="edge">
<title>Node20&#45;&gt;Node19</title>
<g id="a_edge25_Node000020_Node000019"><a xlink:title=" ">
<path fill="none" stroke="#63b8ff" d="M531.32,-176.59C513.16,-168.25 485.92,-155.75 465.03,-146.16"/>
<polygon fill="#63b8ff" stroke="#63b8ff" points="466.7,-143.08 456.15,-142.08 463.78,-149.44 466.7,-143.08"/>
</a>
</g>
</g>
<!-- Node21 -->
<g id="Node000021" class="node">
<title>Node21</title>
<g id="a_Node000021"><a xlink:title=" ">
<polygon fill="#e0e0e0" stroke="#999999" points="607.12,-141 540.88,-141 540.88,-121.75 607.12,-121.75 607.12,-141"/>
<text text-anchor="middle" x="574" y="-127.5" font-family="Helvetica,sans-Serif" font-size="10.00">forward_list</text>
</a>
</g>
</g>
<!-- Node20&#45;&gt;Node21 -->
<g id="edge23_Node000020_Node000021" class="edge">
<title>Node20&#45;&gt;Node21</title>
<g id="a_edge23_Node000020_Node000021"><a xlink:title=" ">
<path fill="none" stroke="#63b8ff" d="M554.8,-176.83C557.74,-170.01 561.94,-160.31 565.65,-151.7"/>
<polygon fill="#63b8ff" stroke="#63b8ff" points="568.77,-153.32 569.52,-142.75 562.34,-150.54 568.77,-153.32"/>
</a>
</g>
</g>
<!-- Node22 -->
<g id="Node000022" class="node">
<title>Node22</title>
<g id="a_Node000022"><a xlink:title=" ">
<polygon fill="#e0e0e0" stroke="#999999" points="683,-141 625,-141 625,-121.75 683,-121.75 683,-141"/>
<text text-anchor="middle" x="654" y="-127.5" font-family="Helvetica,sans-Serif" font-size="10.00">functional</text>
</a>
</g>
</g>
<!-- Node20&#45;&gt;Node22 -->
<g id="edge24_Node000020_Node000022" class="edge">
<title>Node20&#45;&gt;Node22</title>
<g id="a_edge24_Node000020_Node000022"><a xlink:title=" ">
<path fill="none" stroke="#63b8ff" d="M568.47,-176.59C584.31,-168.41 607.91,-156.21 626.31,-146.69"/>
<polygon fill="#63b8ff" stroke="#63b8ff" points="627.82,-149.85 635.1,-142.15 624.61,-143.63 627.82,-149.85"/>
</a>
</g>
</g>
<!-- Node23&#45;&gt;Node17 -->
<g id="edge27_Node000023_Node000017" class="edge">
<title>Node23&#45;&gt;Node17</title>
<g id="a_edge27_Node000023_Node000017"><a xlink:title=" ">
<path fill="none" stroke="#63b8ff" d="M466.57,-231.97C465.48,-218.56 461.63,-193.05 448,-177 435.63,-162.43 417.39,-152.23 400.41,-145.29"/>
<polygon fill="#63b8ff" stroke="#63b8ff" points="402.07,-142.18 391.48,-141.92 399.6,-148.72 402.07,-142.18"/>
</a>
</g>
</g>
<!-- Node23&#45;&gt;Node20 -->
<g id="edge28_Node000023_Node000020" class="edge">
<title>Node23&#45;&gt;Node20</title>
<g id="a_edge28_Node000023_Node000020"><a xlink:title=" ">
<path fill="none" stroke="#63b8ff" d="M481.25,-231.84C493.8,-223.89 512.33,-212.14 527.14,-202.75"/>
<polygon fill="#63b8ff" stroke="#63b8ff" points="528.83,-205.82 535.4,-197.51 525.08,-199.91 528.83,-205.82"/>
</a>
</g>
</g>
<!-- Node24 -->
<g id="Node000024" class="node">
<title>Node24</title>
<g id="a_Node000024"><a xlink:href="valueconsumer_8h.html" target="_top" xlink:title=" ">
<polygon fill="white" stroke="#666666" points="438.75,-196.25 349.25,-196.25 349.25,-177 438.75,-177 438.75,-196.25"/>
<text text-anchor="middle" x="394" y="-182.75" font-family="Helvetica,sans-Serif" font-size="10.00">valueconsumer.h</text>
</a>
</g>
</g>
<!-- Node23&#45;&gt;Node24 -->
<g id="edge29_Node000023_Node000024" class="edge">
<title>Node23&#45;&gt;Node24</title>
<g id="a_edge29_Node000023_Node000024"><a xlink:title=" ">
<path fill="none" stroke="#63b8ff" d="M454.62,-231.84C443.85,-223.99 428.03,-212.45 415.25,-203.12"/>
<polygon fill="#63b8ff" stroke="#63b8ff" points="417.56,-200.48 407.42,-197.42 413.44,-206.14 417.56,-200.48"/>
</a>
</g>
</g>
<!-- Node24&#45;&gt;Node2 -->
<g id="edge30_Node000024_Node000002" class="edge">
<title>Node24&#45;&gt;Node2</title>
<g id="a_edge30_Node000024_Node000002"><a xlink:title=" ">
<path fill="none" stroke="#63b8ff" d="M348.85,-177.77C289.9,-167.51 187.5,-149.69 130.1,-139.7"/>
<polygon fill="#63b8ff" stroke="#63b8ff" points="130.85,-136.28 120.4,-138.01 129.65,-143.18 130.85,-136.28"/>
</a>
</g>
</g>
<!-- Node24&#45;&gt;Node17 -->
<g id="edge31_Node000024_Node000017" class="edge">
<title>Node24&#45;&gt;Node17</title>
<g id="a_edge31_Node000024_Node000017"><a xlink:title=" ">
<path fill="none" stroke="#63b8ff" d="M387.73,-176.83C382.64,-169.71 375.3,-159.43 368.97,-150.55"/>
<polygon fill="#63b8ff" stroke="#63b8ff" points="371.95,-148.7 363.29,-142.59 366.25,-152.76 371.95,-148.7"/>
</a>
</g>
</g>
<!-- Node25 -->
<g id="Node000025" class="node">
<title>Node25</title>
<g id="a_Node000025"><a xlink:title=" ">
<polygon fill="#e0e0e0" stroke="#999999" points="523.12,-141 474.88,-141 474.88,-121.75 523.12,-121.75 523.12,-141"/>
<text text-anchor="middle" x="499" y="-127.5" font-family="Helvetica,sans-Serif" font-size="10.00">stdint.h</text>
</a>
</g>
</g>
<!-- Node24&#45;&gt;Node25 -->
<g id="edge32_Node000024_Node000025" class="edge">
<title>Node24&#45;&gt;Node25</title>
<g id="a_edge32_Node000024_Node000025"><a xlink:title=" ">
<path fill="none" stroke="#63b8ff" d="M411.81,-176.59C428.03,-168.37 452.24,-156.09 471.03,-146.56"/>
<polygon fill="#63b8ff" stroke="#63b8ff" points="472.42,-149.78 479.75,-142.14 469.25,-143.54 472.42,-149.78"/>
</a>
</g>
</g>
<!-- Node26&#45;&gt;Node10 -->
<g id="edge38_Node000026_Node000010" class="edge">
<title>Node26&#45;&gt;Node10</title>
<g id="a_edge38_Node000026_Node000010"><a xlink:title=" ">
<path fill="none" stroke="#63b8ff" d="M314.47,-397.59C295.44,-389.22 266.85,-376.63 245.03,-367.03"/>
<polygon fill="#63b8ff" stroke="#63b8ff" points="246.57,-363.89 236.01,-363.06 243.76,-370.29 246.57,-363.89"/>
</a>
</g>
</g>
<!-- Node26&#45;&gt;Node16 -->
<g id="edge35_Node000026_Node000016" class="edge">
<title>Node26&#45;&gt;Node16</title>
<g id="a_edge35_Node000026_Node000016"><a xlink:title=" ">
<path fill="none" stroke="#63b8ff" d="M333.3,-397.77C327.1,-365.44 305.59,-253.28 296.79,-207.41"/>
<polygon fill="#63b8ff" stroke="#63b8ff" points="300.28,-207 294.96,-197.84 293.4,-208.32 300.28,-207"/>
</a>
</g>
</g>
<!-- Node26&#45;&gt;Node20 -->
<g id="edge36_Node000026_Node000020" class="edge">
<title>Node26&#45;&gt;Node20</title>
<g id="a_edge36_Node000026_Node000020"><a xlink:title=" ">
<path fill="none" stroke="#63b8ff" d="M361.61,-403.72C394.12,-399.15 449.77,-387.97 490,-362 517.09,-344.52 524.12,-336.3 537,-306.75 551.17,-274.22 552.68,-232.23 552.11,-207.77"/>
<polygon fill="#63b8ff" stroke="#63b8ff" points="555.61,-207.81 551.71,-197.96 548.62,-208.09 555.61,-207.81"/>
</a>
</g>
</g>
<!-- Node26&#45;&gt;Node23 -->
<g id="edge37_Node000026_Node000023" class="edge">
<title>Node26&#45;&gt;Node23</title>
<g id="a_edge37_Node000026_Node000023"><a xlink:title=" ">
<path fill="none" stroke="#63b8ff" d="M361.61,-401.35C404.12,-391.33 486.1,-365.1 521,-306.75 531.93,-288.47 512.62,-270.18 494.13,-257.88"/>
<polygon fill="#63b8ff" stroke="#63b8ff" points="496.05,-254.95 485.7,-252.66 492.36,-260.9 496.05,-254.95"/>
</a>
</g>
</g>
<!-- Node27 -->
<g id="Node000027" class="node">
<title>Node27</title>
<g id="a_Node000027"><a xlink:title=" ">
<polygon fill="#e0e0e0" stroke="#999999" points="371.75,-362 342.25,-362 342.25,-342.75 371.75,-342.75 371.75,-362"/>
<text text-anchor="middle" x="357" y="-348.5" font-family="Helvetica,sans-Serif" font-size="10.00">set</text>
</a>
</g>
</g>
<!-- Node26&#45;&gt;Node27 -->
<g id="edge34_Node000026_Node000027" class="edge">
<title>Node26&#45;&gt;Node27</title>
<g id="a_edge34_Node000026_Node000027"><a xlink:title=" ">
<path fill="none" stroke="#63b8ff" d="M338.63,-397.83C341.42,-391.09 345.37,-381.52 348.9,-372.99"/>
<polygon fill="#63b8ff" stroke="#63b8ff" points="352.13,-374.34 352.71,-363.76 345.66,-371.66 352.13,-374.34"/>
</a>
</g>
</g>
</g>
</svg>
