<?xml version="1.0" encoding="UTF-8" standalone="no"?>
<!DOCTYPE svg PUBLIC "-//W3C//DTD SVG 1.1//EN"
 "http://www.w3.org/Graphics/SVG/1.1/DTD/svg11.dtd">
<!-- Generated by graphviz version 12.1.0 (20240811.2233)
 -->
<!-- Title: src/sensesp/sensors/digital_output.cpp Pages: 1 -->
<svg width="845pt" height="448pt"
 viewBox="0.00 0.00 844.50 447.75" xmlns="http://www.w3.org/2000/svg" xmlns:xlink="http://www.w3.org/1999/xlink">
<g id="graph0" class="graph" transform="scale(1 1) rotate(0) translate(4 443.75)">
<title>src/sensesp/sensors/digital_output.cpp</title>
<!-- Node1 -->
<g id="Node000001" class="node">
<title>Node1</title>
<g id="a_Node000001"><a xlink:title=" ">
<polygon fill="#999999" stroke="#666666" points="106.75,-439.75 0,-439.75 0,-409.25 106.75,-409.25 106.75,-439.75"/>
<text text-anchor="start" x="8" y="-426.25" font-family="Helvetica,sans-Serif" font-size="10.00">src/sensesp/sensors</text>
<text text-anchor="middle" x="53.38" y="-415" font-family="Helvetica,sans-Serif" font-size="10.00">/digital_output.cpp</text>
</a>
</g>
</g>
<!-- Node2 -->
<g id="Node000002" class="node">
<title>Node2</title>
<g id="a_Node000002"><a xlink:href="digital__output_8h.html" target="_top" xlink:title=" ">
<polygon fill="white" stroke="#666666" points="290.38,-373.25 208.38,-373.25 208.38,-354 290.38,-354 290.38,-373.25"/>
<text text-anchor="middle" x="249.38" y="-359.75" font-family="Helvetica,sans-Serif" font-size="10.00">digital_output.h</text>
</a>
</g>
</g>
<!-- Node1&#45;&gt;Node2 -->
<g id="edge1_Node000001_Node000002" class="edge">
<title>Node1&#45;&gt;Node2</title>
<g id="a_edge1_Node000001_Node000002"><a xlink:title=" ">
<path fill="none" stroke="#63b8ff" d="M102.33,-408.8C134.95,-399 177.33,-386.27 208.21,-376.99"/>
<polygon fill="#63b8ff" stroke="#63b8ff" points="209.01,-380.41 217.58,-374.18 206.99,-373.7 209.01,-380.41"/>
</a>
</g>
</g>
<!-- Node13 -->
<g id="Node000013" class="node">
<title>Node13</title>
<g id="a_Node000013"><a xlink:title=" ">
<polygon fill="#e0e0e0" stroke="#999999" points="229,-19.25 171.75,-19.25 171.75,0 229,0 229,-19.25"/>
<text text-anchor="middle" x="200.38" y="-5.75" font-family="Helvetica,sans-Serif" font-size="10.00">Arduino.h</text>
</a>
</g>
</g>
<!-- Node1&#45;&gt;Node13 -->
<g id="edge34_Node000001_Node000013" class="edge">
<title>Node1&#45;&gt;Node13</title>
<g id="a_edge34_Node000001_Node000013"><a xlink:title=" ">
<path fill="none" stroke="#63b8ff" d="M46.33,-408.76C36.37,-386.53 19.38,-342.87 19.38,-303.75 19.38,-303.75 19.38,-303.75 19.38,-130.38 19.38,-63.33 106.83,-31.63 160.15,-18.54"/>
<polygon fill="#63b8ff" stroke="#63b8ff" points="160.87,-21.96 169.82,-16.29 159.29,-15.14 160.87,-21.96"/>
</a>
</g>
</g>
<!-- Node3 -->
<g id="Node000003" class="node">
<title>Node3</title>
<g id="a_Node000003"><a xlink:title=" ">
<polygon fill="#e0e0e0" stroke="#999999" points="239.5,-141 161.25,-141 161.25,-121.75 239.5,-121.75 239.5,-141"/>
<text text-anchor="middle" x="200.38" y="-127.5" font-family="Helvetica,sans-Serif" font-size="10.00">ArduinoJson.h</text>
</a>
</g>
</g>
<!-- Node2&#45;&gt;Node3 -->
<g id="edge2_Node000002_Node000003" class="edge">
<title>Node2&#45;&gt;Node3</title>
<g id="a_edge2_Node000002_Node000003"><a xlink:title=" ">
<path fill="none" stroke="#63b8ff" d="M239.67,-353.71C221.44,-336.22 182.65,-295.31 168.38,-251.5 158.12,-220.02 158.24,-208.52 168.38,-177 171.53,-167.17 177.75,-157.67 183.86,-149.99"/>
<polygon fill="#63b8ff" stroke="#63b8ff" points="186.46,-152.33 190.34,-142.47 181.16,-147.76 186.46,-152.33"/>
</a>
</g>
</g>
<!-- Node4 -->
<g id="Node000004" class="node">
<title>Node4</title>
<g id="a_Node000004"><a xlink:href="observable_8h.html" target="_top" xlink:title=" ">
<polygon fill="white" stroke="#666666" points="803.62,-196.25 657.12,-196.25 657.12,-177 803.62,-177 803.62,-196.25"/>
<text text-anchor="middle" x="730.38" y="-182.75" font-family="Helvetica,sans-Serif" font-size="10.00">sensesp/system/observable.h</text>
</a>
</g>
</g>
<!-- Node2&#45;&gt;Node4 -->
<g id="edge3_Node000002_Node000004" class="edge">
<title>Node2&#45;&gt;Node4</title>
<g id="a_edge3_Node000002_Node000004"><a xlink:title=" ">
<path fill="none" stroke="#63b8ff" d="M290.46,-359.26C347.37,-353.93 453.05,-341.65 540.38,-318 617.88,-297 652.89,-309.55 708.38,-251.5 719.67,-239.69 725.18,-221.81 727.87,-207.97"/>
<polygon fill="#63b8ff" stroke="#63b8ff" points="731.31,-208.6 729.39,-198.18 724.4,-207.52 731.31,-208.6"/>
</a>
</g>
</g>
<!-- Node8 -->
<g id="Node000008" class="node">
<title>Node8</title>
<g id="a_Node000008"><a xlink:href="transform_8h.html" target="_top" xlink:title=" ">
<polygon fill="white" stroke="#666666" points="531.5,-318 429.25,-318 429.25,-287.5 531.5,-287.5 531.5,-318"/>
<text text-anchor="start" x="437.25" y="-304.5" font-family="Helvetica,sans-Serif" font-size="10.00">sensesp/transforms</text>
<text text-anchor="middle" x="480.38" y="-293.25" font-family="Helvetica,sans-Serif" font-size="10.00">/transform.h</text>
</a>
</g>
</g>
<!-- Node2&#45;&gt;Node8 -->
<g id="edge7_Node000002_Node000008" class="edge">
<title>Node2&#45;&gt;Node8</title>
<g id="a_edge7_Node000002_Node000008"><a xlink:title=" ">
<path fill="none" stroke="#63b8ff" d="M284.96,-353.55C320.28,-344.55 375.15,-330.57 417.77,-319.71"/>
<polygon fill="#63b8ff" stroke="#63b8ff" points="418.58,-323.11 427.41,-317.25 416.85,-316.33 418.58,-323.11"/>
</a>
</g>
</g>
<!-- Node5 -->
<g id="Node000005" class="node">
<title>Node5</title>
<g id="a_Node000005"><a xlink:title=" ">
<polygon fill="#e0e0e0" stroke="#999999" points="836.5,-141 770.25,-141 770.25,-121.75 836.5,-121.75 836.5,-141"/>
<text text-anchor="middle" x="803.38" y="-127.5" font-family="Helvetica,sans-Serif" font-size="10.00">forward_list</text>
</a>
</g>
</g>
<!-- Node4&#45;&gt;Node5 -->
<g id="edge4_Node000004_Node000005" class="edge">
<title>Node4&#45;&gt;Node5</title>
<g id="a_edge4_Node000004_Node000005"><a xlink:title=" ">
<path fill="none" stroke="#63b8ff" d="M742.76,-176.59C753.52,-168.74 769.35,-157.2 782.13,-147.87"/>
<polygon fill="#63b8ff" stroke="#63b8ff" points="783.94,-150.89 789.95,-142.17 779.81,-145.23 783.94,-150.89"/>
</a>
</g>
</g>
<!-- Node6 -->
<g id="Node000006" class="node">
<title>Node6</title>
<g id="a_Node000006"><a xlink:title=" ">
<polygon fill="#e0e0e0" stroke="#999999" points="690.38,-141 632.38,-141 632.38,-121.75 690.38,-121.75 690.38,-141"/>
<text text-anchor="middle" x="661.38" y="-127.5" font-family="Helvetica,sans-Serif" font-size="10.00">functional</text>
</a>
</g>
</g>
<!-- Node4&#45;&gt;Node6 -->
<g id="edge5_Node000004_Node000006" class="edge">
<title>Node4&#45;&gt;Node6</title>
<g id="a_edge5_Node000004_Node000006"><a xlink:title=" ">
<path fill="none" stroke="#63b8ff" d="M718.67,-176.59C708.6,-168.82 693.83,-157.42 681.81,-148.15"/>
<polygon fill="#63b8ff" stroke="#63b8ff" points="684.16,-145.54 674.11,-142.2 679.88,-151.08 684.16,-145.54"/>
</a>
</g>
</g>
<!-- Node7 -->
<g id="Node000007" class="node">
<title>Node7</title>
<g id="a_Node000007"><a xlink:title=" ">
<polygon fill="#e0e0e0" stroke="#999999" points="751.88,-141 708.88,-141 708.88,-121.75 751.88,-121.75 751.88,-141"/>
<text text-anchor="middle" x="730.38" y="-127.5" font-family="Helvetica,sans-Serif" font-size="10.00">vector</text>
</a>
</g>
</g>
<!-- Node4&#45;&gt;Node7 -->
<g id="edge6_Node000004_Node000007" class="edge">
<title>Node4&#45;&gt;Node7</title>
<g id="a_edge6_Node000004_Node000007"><a xlink:title=" ">
<path fill="none" stroke="#63b8ff" d="M730.38,-176.83C730.38,-170.32 730.38,-161.17 730.38,-152.87"/>
<polygon fill="#63b8ff" stroke="#63b8ff" points="733.88,-152.87 730.38,-142.87 726.88,-152.87 733.88,-152.87"/>
</a>
</g>
</g>
<!-- Node8&#45;&gt;Node3 -->
<g id="edge14_Node000008_Node000003" class="edge">
<title>Node8&#45;&gt;Node3</title>
<g id="a_edge14_Node000008_Node000003"><a xlink:title=" ">
<path fill="none" stroke="#63b8ff" d="M428.89,-300.79C351.91,-298.15 212.48,-288.27 181.38,-251.5 157.46,-223.23 175.65,-177.17 189.19,-151.39"/>
<polygon fill="#63b8ff" stroke="#63b8ff" points="192.2,-153.17 194,-142.73 186.09,-149.77 192.2,-153.17"/>
</a>
</g>
</g>
<!-- Node8&#45;&gt;Node4 -->
<g id="edge16_Node000008_Node000004" class="edge">
<title>Node8&#45;&gt;Node4</title>
<g id="a_edge16_Node000008_Node000004"><a xlink:title=" ">
<path fill="none" stroke="#63b8ff" d="M531.71,-298.93C575.54,-294.35 638.58,-282.43 684.38,-251.5 700.98,-240.28 713.65,-220.96 721.45,-206.5"/>
<polygon fill="#63b8ff" stroke="#63b8ff" points="724.38,-208.46 725.77,-197.95 718.14,-205.3 724.38,-208.46"/>
</a>
</g>
</g>
<!-- Node9 -->
<g id="Node000009" class="node">
<title>Node9</title>
<g id="a_Node000009"><a xlink:href="sensesp_8h.html" target="_top" xlink:title=" ">
<polygon fill="white" stroke="#666666" points="418.88,-141 357.88,-141 357.88,-121.75 418.88,-121.75 418.88,-141"/>
<text text-anchor="middle" x="388.38" y="-127.5" font-family="Helvetica,sans-Serif" font-size="10.00">sensesp.h</text>
</a>
</g>
</g>
<!-- Node8&#45;&gt;Node9 -->
<g id="edge8_Node000008_Node000009" class="edge">
<title>Node8&#45;&gt;Node9</title>
<g id="a_edge8_Node000008_Node000009"><a xlink:title=" ">
<path fill="none" stroke="#63b8ff" d="M516.55,-287.18C566.41,-265.03 646.25,-220.8 610.38,-177 599.03,-163.14 491.32,-146.4 430.2,-137.9"/>
<polygon fill="#63b8ff" stroke="#63b8ff" points="430.89,-134.46 420.51,-136.57 429.94,-141.4 430.89,-134.46"/>
</a>
</g>
</g>
<!-- Node15 -->
<g id="Node000015" class="node">
<title>Node15</title>
<g id="a_Node000015"><a xlink:title=" ">
<polygon fill="#e0e0e0" stroke="#999999" points="675.12,-251.5 645.62,-251.5 645.62,-232.25 675.12,-232.25 675.12,-251.5"/>
<text text-anchor="middle" x="660.38" y="-238" font-family="Helvetica,sans-Serif" font-size="10.00">set</text>
</a>
</g>
</g>
<!-- Node8&#45;&gt;Node15 -->
<g id="edge15_Node000008_Node000015" class="edge">
<title>Node8&#45;&gt;Node15</title>
<g id="a_edge15_Node000008_Node000015"><a xlink:title=" ">
<path fill="none" stroke="#63b8ff" d="M525.33,-287.05C559.74,-275.79 605.99,-260.66 634.46,-251.35"/>
<polygon fill="#63b8ff" stroke="#63b8ff" points="635.28,-254.76 643.7,-248.33 633.11,-248.11 635.28,-254.76"/>
</a>
</g>
</g>
<!-- Node16 -->
<g id="Node000016" class="node">
<title>Node16</title>
<g id="a_Node000016"><a xlink:href="saveable_8h.html" target="_top" xlink:title=" ">
<polygon fill="white" stroke="#666666" points="328.5,-251.5 190.25,-251.5 190.25,-232.25 328.5,-232.25 328.5,-251.5"/>
<text text-anchor="middle" x="259.38" y="-238" font-family="Helvetica,sans-Serif" font-size="10.00">sensesp/system/saveable.h</text>
</a>
</g>
</g>
<!-- Node8&#45;&gt;Node16 -->
<g id="edge17_Node000008_Node000016" class="edge">
<title>Node8&#45;&gt;Node16</title>
<g id="a_edge17_Node000008_Node000016"><a xlink:title=" ">
<path fill="none" stroke="#63b8ff" d="M428.84,-288.02C391.04,-277.95 340.23,-264.41 304.13,-254.8"/>
<polygon fill="#63b8ff" stroke="#63b8ff" points="305.45,-251.53 294.89,-252.34 303.65,-258.29 305.45,-251.53"/>
</a>
</g>
</g>
<!-- Node18 -->
<g id="Node000018" class="node">
<title>Node18</title>
<g id="a_Node000018"><a xlink:href="valueconsumer_8h.html" target="_top" xlink:title=" ">
<polygon fill="white" stroke="#666666" points="601.62,-196.25 437.12,-196.25 437.12,-177 601.62,-177 601.62,-196.25"/>
<text text-anchor="middle" x="519.38" y="-182.75" font-family="Helvetica,sans-Serif" font-size="10.00">sensesp/system/valueconsumer.h</text>
</a>
</g>
</g>
<!-- Node8&#45;&gt;Node18 -->
<g id="edge25_Node000008_Node000018" class="edge">
<title>Node8&#45;&gt;Node18</title>
<g id="a_edge25_Node000008_Node000018"><a xlink:title=" ">
<path fill="none" stroke="#63b8ff" d="M493.8,-287.13C501.59,-277.7 510.76,-264.75 515.38,-251.5 520.26,-237.49 521.14,-220.72 520.86,-207.88"/>
<polygon fill="#63b8ff" stroke="#63b8ff" points="524.36,-207.93 520.38,-198.11 517.37,-208.27 524.36,-207.93"/>
</a>
</g>
</g>
<!-- Node20 -->
<g id="Node000020" class="node">
<title>Node20</title>
<g id="a_Node000020"><a xlink:href="valueproducer_8h.html" target="_top" xlink:title=" ">
<polygon fill="white" stroke="#666666" points="506,-251.5 346.75,-251.5 346.75,-232.25 506,-232.25 506,-251.5"/>
<text text-anchor="middle" x="426.38" y="-238" font-family="Helvetica,sans-Serif" font-size="10.00">sensesp/system/valueproducer.h</text>
</a>
</g>
</g>
<!-- Node8&#45;&gt;Node20 -->
<g id="edge29_Node000008_Node000020" class="edge">
<title>Node8&#45;&gt;Node20</title>
<g id="a_edge29_Node000008_Node000020"><a xlink:title=" ">
<path fill="none" stroke="#63b8ff" d="M467.03,-287.2C459.6,-279.09 450.29,-268.95 442.46,-260.41"/>
<polygon fill="#63b8ff" stroke="#63b8ff" points="445.06,-258.07 435.72,-253.07 439.9,-262.8 445.06,-258.07"/>
</a>
</g>
</g>
<!-- Node10 -->
<g id="Node000010" class="node">
<title>Node10</title>
<g id="a_Node000010"><a xlink:title=" ">
<polygon fill="#e0e0e0" stroke="#999999" points="365,-80.12 295.75,-80.12 295.75,-60.88 365,-60.88 365,-80.12"/>
<text text-anchor="middle" x="330.38" y="-66.62" font-family="Helvetica,sans-Serif" font-size="10.00">ReactESP.h</text>
</a>
</g>
</g>
<!-- Node9&#45;&gt;Node10 -->
<g id="edge9_Node000009_Node000010" class="edge">
<title>Node9&#45;&gt;Node10</title>
<g id="a_edge9_Node000009_Node000010"><a xlink:title=" ">
<path fill="none" stroke="#63b8ff" d="M379.57,-121.43C370.96,-112.7 357.66,-99.19 347.05,-88.43"/>
<polygon fill="#63b8ff" stroke="#63b8ff" points="349.84,-86.27 340.33,-81.6 344.85,-91.18 349.84,-86.27"/>
</a>
</g>
</g>
<!-- Node11 -->
<g id="Node000011" class="node">
<title>Node11</title>
<g id="a_Node000011"><a xlink:href="local__debug_8h.html" target="_top" xlink:title=" ">
<polygon fill="white" stroke="#666666" points="494,-85.75 382.75,-85.75 382.75,-55.25 494,-55.25 494,-85.75"/>
<text text-anchor="start" x="390.75" y="-72.25" font-family="Helvetica,sans-Serif" font-size="10.00">sensesp/system/local</text>
<text text-anchor="middle" x="438.38" y="-61" font-family="Helvetica,sans-Serif" font-size="10.00">_debug.h</text>
</a>
</g>
</g>
<!-- Node9&#45;&gt;Node11 -->
<g id="edge10_Node000009_Node000011" class="edge">
<title>Node9&#45;&gt;Node11</title>
<g id="a_edge10_Node000009_Node000011"><a xlink:title=" ">
<path fill="none" stroke="#63b8ff" d="M395.97,-121.43C402.01,-114.31 410.75,-104.02 418.73,-94.63"/>
<polygon fill="#63b8ff" stroke="#63b8ff" points="421.25,-97.07 425.05,-87.19 415.91,-92.54 421.25,-97.07"/>
</a>
</g>
</g>
<!-- Node12 -->
<g id="Node000012" class="node">
<title>Node12</title>
<g id="a_Node000012"><a xlink:title=" ">
<polygon fill="#e0e0e0" stroke="#999999" points="519.38,-19.25 437.38,-19.25 437.38,0 519.38,0 519.38,-19.25"/>
<text text-anchor="middle" x="478.38" y="-5.75" font-family="Helvetica,sans-Serif" font-size="10.00">esp32&#45;hal&#45;log.h</text>
</a>
</g>
</g>
<!-- Node11&#45;&gt;Node12 -->
<g id="edge11_Node000011_Node000012" class="edge">
<title>Node11&#45;&gt;Node12</title>
<g id="a_edge11_Node000011_Node000012"><a xlink:title=" ">
<path fill="none" stroke="#63b8ff" d="M448.26,-54.95C453.59,-47.1 460.22,-37.35 465.9,-28.99"/>
<polygon fill="#63b8ff" stroke="#63b8ff" points="468.63,-31.19 471.36,-20.95 462.84,-27.26 468.63,-31.19"/>
</a>
</g>
</g>
<!-- Node11&#45;&gt;Node13 -->
<g id="edge12_Node000011_Node000013" class="edge">
<title>Node11&#45;&gt;Node13</title>
<g id="a_edge12_Node000011_Node000013"><a xlink:title=" ">
<path fill="none" stroke="#63b8ff" d="M382.27,-55.62C338.62,-44.82 279.12,-30.1 240.24,-20.49"/>
<polygon fill="#63b8ff" stroke="#63b8ff" points="241.38,-17.16 230.83,-18.16 239.7,-23.96 241.38,-17.16"/>
</a>
</g>
</g>
<!-- Node14 -->
<g id="Node000014" class="node">
<title>Node14</title>
<g id="a_Node000014"><a xlink:title=" ">
<polygon fill="#e0e0e0" stroke="#999999" points="419.62,-19.25 375.12,-19.25 375.12,0 419.62,0 419.62,-19.25"/>
<text text-anchor="middle" x="397.38" y="-5.75" font-family="Helvetica,sans-Serif" font-size="10.00">Print.h</text>
</a>
</g>
</g>
<!-- Node11&#45;&gt;Node14 -->
<g id="edge13_Node000011_Node000014" class="edge">
<title>Node11&#45;&gt;Node14</title>
<g id="a_edge13_Node000011_Node000014"><a xlink:title=" ">
<path fill="none" stroke="#63b8ff" d="M428.24,-54.95C422.78,-47.1 415.98,-37.35 410.16,-28.99"/>
<polygon fill="#63b8ff" stroke="#63b8ff" points="413.15,-27.15 404.56,-20.94 407.4,-31.15 413.15,-27.15"/>
</a>
</g>
</g>
<!-- Node16&#45;&gt;Node3 -->
<g id="edge19_Node000016_Node000003" class="edge">
<title>Node16&#45;&gt;Node3</title>
<g id="a_edge19_Node000016_Node000003"><a xlink:title=" ">
<path fill="none" stroke="#63b8ff" d="M236.95,-231.89C222.2,-224.66 204.09,-212.94 195.38,-196.25 188.28,-182.66 190.28,-165.19 193.63,-151.96"/>
<polygon fill="#63b8ff" stroke="#63b8ff" points="196.89,-153.26 196.43,-142.68 190.19,-151.24 196.89,-153.26"/>
</a>
</g>
</g>
<!-- Node16&#45;&gt;Node9 -->
<g id="edge18_Node000016_Node000009" class="edge">
<title>Node16&#45;&gt;Node9</title>
<g id="a_edge18_Node000016_Node000009"><a xlink:title=" ">
<path fill="none" stroke="#63b8ff" d="M272.82,-231.75C285.42,-223.04 304.63,-209.32 320.38,-196.25 338.57,-181.14 358.13,-162.49 371.58,-149.25"/>
<polygon fill="#63b8ff" stroke="#63b8ff" points="373.76,-152.02 378.39,-142.49 368.83,-147.05 373.76,-152.02"/>
</a>
</g>
</g>
<!-- Node16&#45;&gt;Node13 -->
<g id="edge20_Node000016_Node000013" class="edge">
<title>Node16&#45;&gt;Node13</title>
<g id="a_edge20_Node000016_Node000013"><a xlink:title=" ">
<path fill="none" stroke="#63b8ff" d="M239.35,-231.88C223.61,-224.09 201.84,-211.67 186.38,-196.25 165.96,-175.89 160.23,-168.74 152.38,-141 140.77,-100 168.04,-53.5 186.06,-28.62"/>
<polygon fill="#63b8ff" stroke="#63b8ff" points="188.7,-30.93 191.94,-20.84 183.12,-26.7 188.7,-30.93"/>
</a>
</g>
</g>
<!-- Node17 -->
<g id="Node000017" class="node">
<title>Node17</title>
<g id="a_Node000017"><a xlink:href="serializable_8h.html" target="_top" xlink:title=" ">
<polygon fill="white" stroke="#666666" points="310.88,-196.25 237.88,-196.25 237.88,-177 310.88,-177 310.88,-196.25"/>
<text text-anchor="middle" x="274.38" y="-182.75" font-family="Helvetica,sans-Serif" font-size="10.00">serializable.h</text>
</a>
</g>
</g>
<!-- Node16&#45;&gt;Node17 -->
<g id="edge21_Node000016_Node000017" class="edge">
<title>Node16&#45;&gt;Node17</title>
<g id="a_edge21_Node000016_Node000017"><a xlink:title=" ">
<path fill="none" stroke="#63b8ff" d="M261.85,-232.08C263.73,-225.42 266.38,-215.99 268.77,-207.53"/>
<polygon fill="#63b8ff" stroke="#63b8ff" points="272.09,-208.64 271.43,-198.07 265.35,-206.74 272.09,-208.64"/>
</a>
</g>
</g>
<!-- Node17&#45;&gt;Node3 -->
<g id="edge23_Node000017_Node000003" class="edge">
<title>Node17&#45;&gt;Node3</title>
<g id="a_edge23_Node000017_Node000003"><a xlink:title=" ">
<path fill="none" stroke="#63b8ff" d="M261.82,-176.59C250.91,-168.74 234.87,-157.2 221.91,-147.87"/>
<polygon fill="#63b8ff" stroke="#63b8ff" points="224.13,-145.16 213.97,-142.16 220.04,-150.84 224.13,-145.16"/>
</a>
</g>
</g>
<!-- Node17&#45;&gt;Node9 -->
<g id="edge22_Node000017_Node000009" class="edge">
<title>Node17&#45;&gt;Node9</title>
<g id="a_edge22_Node000017_Node000009"><a xlink:title=" ">
<path fill="none" stroke="#63b8ff" d="M293.71,-176.59C311.48,-168.29 338.09,-155.86 358.58,-146.29"/>
<polygon fill="#63b8ff" stroke="#63b8ff" points="359.99,-149.5 367.57,-142.09 357.03,-143.15 359.99,-149.5"/>
</a>
</g>
</g>
<!-- Node17&#45;&gt;Node13 -->
<g id="edge24_Node000017_Node000013" class="edge">
<title>Node17&#45;&gt;Node13</title>
<g id="a_edge24_Node000017_Node000013"><a xlink:title=" ">
<path fill="none" stroke="#63b8ff" d="M270.73,-176.5C265.76,-164.09 256.53,-141.18 248.38,-121.75 234.8,-89.39 218.51,-51.96 208.83,-29.85"/>
<polygon fill="#63b8ff" stroke="#63b8ff" points="212.13,-28.67 204.9,-20.91 205.72,-31.48 212.13,-28.67"/>
</a>
</g>
</g>
<!-- Node18&#45;&gt;Node3 -->
<g id="edge27_Node000018_Node000003" class="edge">
<title>Node18&#45;&gt;Node3</title>
<g id="a_edge27_Node000018_Node000003"><a xlink:title=" ">
<path fill="none" stroke="#63b8ff" d="M464.9,-176.53C404.84,-166.51 309.02,-150.51 250.68,-140.77"/>
<polygon fill="#63b8ff" stroke="#63b8ff" points="251.47,-137.36 241.03,-139.16 250.32,-144.26 251.47,-137.36"/>
</a>
</g>
</g>
<!-- Node18&#45;&gt;Node9 -->
<g id="edge26_Node000018_Node000009" class="edge">
<title>Node18&#45;&gt;Node9</title>
<g id="a_edge26_Node000018_Node000009"><a xlink:title=" ">
<path fill="none" stroke="#63b8ff" d="M497.15,-176.59C476.36,-168.14 445.03,-155.4 421.32,-145.77"/>
<polygon fill="#63b8ff" stroke="#63b8ff" points="422.69,-142.55 412.11,-142.02 420.05,-149.03 422.69,-142.55"/>
</a>
</g>
</g>
<!-- Node19 -->
<g id="Node000019" class="node">
<title>Node19</title>
<g id="a_Node000019"><a xlink:title=" ">
<polygon fill="#e0e0e0" stroke="#999999" points="543.5,-141 495.25,-141 495.25,-121.75 543.5,-121.75 543.5,-141"/>
<text text-anchor="middle" x="519.38" y="-127.5" font-family="Helvetica,sans-Serif" font-size="10.00">stdint.h</text>
</a>
</g>
</g>
<!-- Node18&#45;&gt;Node19 -->
<g id="edge28_Node000018_Node000019" class="edge">
<title>Node18&#45;&gt;Node19</title>
<g id="a_edge28_Node000018_Node000019"><a xlink:title=" ">
<path fill="none" stroke="#63b8ff" d="M519.38,-176.83C519.38,-170.32 519.38,-161.17 519.38,-152.87"/>
<polygon fill="#63b8ff" stroke="#63b8ff" points="522.88,-152.87 519.38,-142.87 515.88,-152.87 522.88,-152.87"/>
</a>
</g>
</g>
<!-- Node20&#45;&gt;Node3 -->
<g id="edge30_Node000020_Node000003" class="edge">
<title>Node20&#45;&gt;Node3</title>
<g id="a_edge30_Node000020_Node000003"><a xlink:title=" ">
<path fill="none" stroke="#63b8ff" d="M356.73,-231.76C308.21,-224.2 248.85,-212.12 229.38,-196.25 215.94,-185.3 208.48,-166.79 204.5,-152.5"/>
<polygon fill="#63b8ff" stroke="#63b8ff" points="207.92,-151.72 202.19,-142.8 201.11,-153.34 207.92,-151.72"/>
</a>
</g>
</g>
<!-- Node20&#45;&gt;Node4 -->
<g id="edge32_Node000020_Node000004" class="edge">
<title>Node20&#45;&gt;Node4</title>
<g id="a_edge32_Node000020_Node000004"><a xlink:title=" ">
<path fill="none" stroke="#63b8ff" d="M478.29,-231.78C530.56,-222.62 611.27,-208.49 667.23,-198.69"/>
<polygon fill="#63b8ff" stroke="#63b8ff" points="667.68,-202.16 676.93,-196.99 666.48,-195.26 667.68,-202.16"/>
</a>
</g>
</g>
<!-- Node20&#45;&gt;Node18 -->
<g id="edge33_Node000020_Node000018" class="edge">
<title>Node20&#45;&gt;Node18</title>
<g id="a_edge33_Node000020_Node000018"><a xlink:title=" ">
<path fill="none" stroke="#63b8ff" d="M442.15,-231.84C456.31,-223.73 477.36,-211.68 493.9,-202.21"/>
<polygon fill="#63b8ff" stroke="#63b8ff" points="495.27,-205.46 502.21,-197.45 491.79,-199.39 495.27,-205.46"/>
</a>
</g>
</g>
<!-- Node21 -->
<g id="Node000021" class="node">
<title>Node21</title>
<g id="a_Node000021"><a xlink:title=" ">
<polygon fill="#e0e0e0" stroke="#999999" points="419,-196.25 367.75,-196.25 367.75,-177 419,-177 419,-196.25"/>
<text text-anchor="middle" x="393.38" y="-182.75" font-family="Helvetica,sans-Serif" font-size="10.00">memory</text>
</a>
</g>
</g>
<!-- Node20&#45;&gt;Node21 -->
<g id="edge31_Node000020_Node000021" class="edge">
<title>Node20&#45;&gt;Node21</title>
<g id="a_edge31_Node000020_Node000021"><a xlink:title=" ">
<path fill="none" stroke="#63b8ff" d="M420.93,-232.08C416.6,-225.11 410.41,-215.12 404.99,-206.37"/>
<polygon fill="#63b8ff" stroke="#63b8ff" points="407.98,-204.55 399.74,-197.9 402.03,-208.24 407.98,-204.55"/>
</a>
</g>
</g>
</g>
</svg>
