<?xml version="1.0" encoding="UTF-8" standalone="no"?>
<!DOCTYPE svg PUBLIC "-//W3C//DTD SVG 1.1//EN"
 "http://www.w3.org/Graphics/SVG/1.1/DTD/svg11.dtd">
<!-- Generated by graphviz version 14.1.1 (20251213.1925)
 -->
<!-- Title: src/sensesp/sensors/digital_input.h Pages: 1 -->
<svg width="379pt" height="172pt"
 viewBox="0.00 0.00 379.00 172.00" xmlns="http://www.w3.org/2000/svg" xmlns:xlink="http://www.w3.org/1999/xlink">
<g id="graph0" class="graph" transform="scale(1 1) rotate(0) translate(4 167.5)">
<title>src/sensesp/sensors/digital_input.h</title>
<!-- Node1 -->
<g id="Node000001" class="node">
<title>Node1</title>
<g id="a_Node000001"><a xlink:title=" ">
<polygon fill="#999999" stroke="#666666" points="231.75,-163.5 125,-163.5 125,-133 231.75,-133 231.75,-163.5"/>
<text xml:space="preserve" text-anchor="start" x="133" y="-150" font-family="Helvetica,sans-Serif" font-size="10.00">src/sensesp/sensors</text>
<text xml:space="preserve" text-anchor="middle" x="178.38" y="-138.75" font-family="Helvetica,sans-Serif" font-size="10.00">/digital_input.h</text>
</a>
</g>
</g>
<!-- Node2 -->
<g id="Node000002" class="node">
<title>Node2</title>
<g id="a_Node000002"><a xlink:href="digital__input_8cpp.html" target="_top" xlink:title=" ">
<polygon fill="white" stroke="#666666" points="106.75,-97 0,-97 0,-66.5 106.75,-66.5 106.75,-97"/>
<text xml:space="preserve" text-anchor="start" x="8" y="-83.5" font-family="Helvetica,sans-Serif" font-size="10.00">src/sensesp/sensors</text>
<text xml:space="preserve" text-anchor="middle" x="53.38" y="-72.25" font-family="Helvetica,sans-Serif" font-size="10.00">/digital_input.cpp</text>
</a>
</g>
</g>
<!-- Node1&#45;&gt;Node2 -->
<g id="edge1_Node000001_Node000002" class="edge">
<title>Node1&#45;&gt;Node2</title>
<g id="a_edge1_Node000001_Node000002"><a xlink:title=" ">
<path fill="none" stroke="#63b8ff" d="M139.96,-127.43C121.13,-117.71 98.87,-106.22 81.63,-97.33"/>
<polygon fill="#63b8ff" stroke="#63b8ff" points="138.17,-130.44 148.67,-131.92 141.38,-124.22 138.17,-130.44"/>
</a>
</g>
</g>
<!-- Node3 -->
<g id="Node000003" class="node">
<title>Node3</title>
<g id="a_Node000003"><a xlink:href="digital__pcnt__input_8h.html" target="_top" xlink:title=" ">
<polygon fill="white" stroke="#666666" points="231.75,-97 125,-97 125,-66.5 231.75,-66.5 231.75,-97"/>
<text xml:space="preserve" text-anchor="start" x="133" y="-83.5" font-family="Helvetica,sans-Serif" font-size="10.00">src/sensesp/sensors</text>
<text xml:space="preserve" text-anchor="middle" x="178.38" y="-72.25" font-family="Helvetica,sans-Serif" font-size="10.00">/digital_pcnt_input.h</text>
</a>
</g>
</g>
<!-- Node1&#45;&gt;Node3 -->
<g id="edge2_Node000001_Node000003" class="edge">
<title>Node1&#45;&gt;Node3</title>
<g id="a_edge2_Node000001_Node000003"><a xlink:title=" ">
<path fill="none" stroke="#63b8ff" d="M178.38,-121.31C178.38,-113.14 178.38,-104.41 178.38,-97.33"/>
<polygon fill="#63b8ff" stroke="#63b8ff" points="174.88,-121.1 178.38,-131.1 181.88,-121.1 174.88,-121.1"/>
</a>
</g>
</g>
<!-- Node5 -->
<g id="Node000005" class="node">
<title>Node5</title>
<g id="a_Node000005"><a xlink:href="press__repeater_8h.html" target="_top" xlink:title=" ">
<polygon fill="white" stroke="#666666" points="369.75,-97 251,-97 251,-66.5 369.75,-66.5 369.75,-97"/>
<text xml:space="preserve" text-anchor="start" x="259" y="-83.5" font-family="Helvetica,sans-Serif" font-size="10.00">src/sensesp/transforms</text>
<text xml:space="preserve" text-anchor="middle" x="310.38" y="-72.25" font-family="Helvetica,sans-Serif" font-size="10.00">/press_repeater.h</text>
</a>
</g>
</g>
<!-- Node1&#45;&gt;Node5 -->
<g id="edge4_Node000001_Node000005" class="edge">
<title>Node1&#45;&gt;Node5</title>
<g id="a_edge4_Node000001_Node000005"><a xlink:title=" ">
<path fill="none" stroke="#63b8ff" d="M218.67,-127.56C238.6,-117.82 262.25,-106.26 280.54,-97.33"/>
<polygon fill="#63b8ff" stroke="#63b8ff" points="217.14,-124.41 209.69,-131.95 220.21,-130.7 217.14,-124.41"/>
</a>
</g>
</g>
<!-- Node4 -->
<g id="Node000004" class="node">
<title>Node4</title>
<g id="a_Node000004"><a xlink:href="digital__pcnt__input_8cpp.html" target="_top" xlink:title=" ">
<polygon fill="white" stroke="#666666" points="234.12,-30.5 120.62,-30.5 120.62,0 234.12,0 234.12,-30.5"/>
<text xml:space="preserve" text-anchor="start" x="128.62" y="-17" font-family="Helvetica,sans-Serif" font-size="10.00">src/sensesp/sensors</text>
<text xml:space="preserve" text-anchor="middle" x="177.38" y="-5.75" font-family="Helvetica,sans-Serif" font-size="10.00">/digital_pcnt_input.cpp</text>
</a>
</g>
</g>
<!-- Node3&#45;&gt;Node4 -->
<g id="edge3_Node000003_Node000004" class="edge">
<title>Node3&#45;&gt;Node4</title>
<g id="a_edge3_Node000003_Node000004"><a xlink:title=" ">
<path fill="none" stroke="#63b8ff" d="M177.97,-54.81C177.85,-46.64 177.71,-37.91 177.6,-30.83"/>
<polygon fill="#63b8ff" stroke="#63b8ff" points="174.47,-54.66 178.12,-64.6 181.47,-54.55 174.47,-54.66"/>
</a>
</g>
</g>
<!-- Node6 -->
<g id="Node000006" class="node">
<title>Node6</title>
<g id="a_Node000006"><a xlink:href="press__repeater_8cpp.html" target="_top" xlink:title=" ">
<polygon fill="white" stroke="#666666" points="370.75,-30.5 252,-30.5 252,0 370.75,0 370.75,-30.5"/>
<text xml:space="preserve" text-anchor="start" x="260" y="-17" font-family="Helvetica,sans-Serif" font-size="10.00">src/sensesp/transforms</text>
<text xml:space="preserve" text-anchor="middle" x="311.38" y="-5.75" font-family="Helvetica,sans-Serif" font-size="10.00">/press_repeater.cpp</text>
</a>
</g>
</g>
<!-- Node5&#45;&gt;Node6 -->
<g id="edge5_Node000005_Node000006" class="edge">
<title>Node5&#45;&gt;Node6</title>
<g id="a_edge5_Node000005_Node000006"><a xlink:title=" ">
<path fill="none" stroke="#63b8ff" d="M310.78,-54.81C310.9,-46.64 311.04,-37.91 311.15,-30.83"/>
<polygon fill="#63b8ff" stroke="#63b8ff" points="307.28,-54.55 310.63,-64.6 314.28,-54.66 307.28,-54.55"/>
</a>
</g>
</g>
</g>
</svg>
