<?xml version="1.0" encoding="UTF-8" standalone="no"?>
<!DOCTYPE svg PUBLIC "-//W3C//DTD SVG 1.1//EN"
 "http://www.w3.org/Graphics/SVG/1.1/DTD/svg11.dtd">
<!-- Generated by graphviz version 2.49.3 (20211023.0002)
 -->
<!-- Title: src/sensesp Pages: 1 -->
<!--zoomable 471 -->
<svg id="main" version="1.1" xmlns="http://www.w3.org/2000/svg" xmlns:xlink="http://www.w3.org/1999/xlink" xml:space="preserve" onload="init(evt)">
<style type="text/css"><![CDATA[
.edge:hover path { stroke: red; }
.edge:hover polygon { stroke: red; fill: red; }
]]></style>
<script type="text/javascript"><![CDATA[
var edges = document.getElementsByTagName('g');
if (edges && edges.length) {
  for (var i=0;i<edges.length;i++) {
    if (edges[i].id.substr(0,4)=='edge') {
      edges[i].setAttribute('class','edge');
    }
  }
}
]]></script>
        <defs>
                <circle id="rim" cx="0" cy="0" r="7"/>
                <circle id="rim2" cx="0" cy="0" r="3.5"/>
                <g id="zoomPlus">
                        <use xlink:href="#rim" fill="#404040">
                                <set attributeName="fill" to="#808080" begin="zoomplus.mouseover" end="zoomplus.mouseout"/>
                        </use>
                        <path d="M-4,0h8M0,-4v8" fill="none" stroke="white" stroke-width="1.5" pointer-events="none"/>
                </g>
                <g id="zoomMin">
                        <use xlink:href="#rim" fill="#404040">
                                <set attributeName="fill" to="#808080" begin="zoomminus.mouseover" end="zoomminus.mouseout"/>
                        </use>
                        <path d="M-4,0h8" fill="none" stroke="white" stroke-width="1.5" pointer-events="none"/>
                </g>
                <g id="dirArrow">
                        <path fill="none" stroke="white" stroke-width="1.5" d="M0,-3.0v7 M-2.5,-0.5L0,-3.0L2.5,-0.5"/>
                </g>
               <g id="resetDef">
                       <use xlink:href="#rim2" fill="#404040">
                               <set attributeName="fill" to="#808080" begin="reset.mouseover" end="reset.mouseout"/>
                       </use>
               </g>
        </defs>

<script type="text/javascript">
var viewWidth = 200;
var viewHeight = 471;
var sectionId = 'dynsection-0';
</script>
<script xlink:href="svgpan.js"/>
<svg id="graph" class="graph">
<g id="viewport">
<title>src/sensesp</title>
<polygon fill="white" stroke="transparent" points="-4,4 -4,-467 196,-467 196,4 -4,4"/>
<g id="clust1" class="cluster">
<title>clusterdir_68267d1309a1af8e8297ef4c3efbcdba</title>
<g id="a_clust1"><a xlink:href="dir_68267d1309a1af8e8297ef4c3efbcdba.html" target="_top" xlink:title="src">
<polygon fill="#ddddee" stroke="black" points="8,-8 8,-455 184,-455 184,-8 8,-8"/>
<text text-anchor="middle" x="96" y="-443" font-family="Helvetica,sans-Serif" font-size="10.00">src</text>
</a>
</g>
</g>
<g id="clust2" class="cluster">
<title>clusterdir_748434fffbff9d3255c614694d35d3cd</title>
<g id="a_clust2"><a xlink:href="dir_748434fffbff9d3255c614694d35d3cd.html" target="_top">
<polygon fill="#eeeeff" stroke="black" points="16,-16 16,-428 176,-428 176,-16 16,-16"/>
</a>
</g>
</g>
<!-- dir_748434fffbff9d3255c614694d35d3cd -->
<g id="node1" class="node">
<title>dir_748434fffbff9d3255c614694d35d3cd</title>
<text text-anchor="middle" x="141" y="-399.5" font-family="Helvetica,sans-Serif" font-size="10.00">sensesp</text>
</g>
<!-- dir_8b47e5652e1be271beabb171b0b042a2 -->
<g id="node2" class="node">
<title>dir_8b47e5652e1be271beabb171b0b042a2</title>
<g id="a_node2"><a xlink:href="dir_8b47e5652e1be271beabb171b0b042a2.html" target="_top" xlink:title="controllers">
<polygon fill="white" stroke="black" points="95.5,-420 32.5,-420 32.5,-384 95.5,-384 95.5,-420"/>
<text text-anchor="middle" x="64" y="-399.5" font-family="Helvetica,sans-Serif" font-size="10.00">controllers</text>
</a>
</g>
</g>
<!-- dir_ac447aa304d2c31a2d3799b85547d74d -->
<g id="node3" class="node">
<title>dir_ac447aa304d2c31a2d3799b85547d74d</title>
<g id="a_node3"><a xlink:href="dir_ac447aa304d2c31a2d3799b85547d74d.html" target="_top" xlink:title="net">
<polygon fill="white" stroke="red" points="78,-348 24,-348 24,-312 78,-312 78,-348"/>
<text text-anchor="middle" x="51" y="-327.5" font-family="Helvetica,sans-Serif" font-size="10.00">net</text>
</a>
</g>
</g>
<!-- dir_8b47e5652e1be271beabb171b0b042a2&#45;&gt;dir_ac447aa304d2c31a2d3799b85547d74d -->
<g id="edge3" class="edge">
<title>dir_8b47e5652e1be271beabb171b0b042a2&#45;&gt;dir_ac447aa304d2c31a2d3799b85547d74d</title>
<path fill="none" stroke="black" d="M60.79,-383.7C59.35,-375.98 57.63,-366.71 56.04,-358.11"/>
<polygon fill="black" stroke="black" points="59.44,-357.3 54.18,-348.1 52.56,-358.58 59.44,-357.3"/>
<g id="a_edge3&#45;headlabel"><a xlink:href="dir_000002_000003.html" target="_top" xlink:title="2">
<text text-anchor="middle" x="62.89" y="-357.81" font-family="Helvetica,sans-Serif" font-size="10.00">2</text>
</a>
</g>
</g>
<!-- dir_9589b29454ff5cfb122a833ce99379e5 -->
<g id="node5" class="node">
<title>dir_9589b29454ff5cfb122a833ce99379e5</title>
<g id="a_node5"><a xlink:href="dir_9589b29454ff5cfb122a833ce99379e5.html" target="_top" xlink:title="signalk">
<polygon fill="white" stroke="black" points="98,-276 44,-276 44,-240 98,-240 98,-276"/>
<text text-anchor="middle" x="71" y="-255.5" font-family="Helvetica,sans-Serif" font-size="10.00">signalk</text>
</a>
</g>
</g>
<!-- dir_8b47e5652e1be271beabb171b0b042a2&#45;&gt;dir_9589b29454ff5cfb122a833ce99379e5 -->
<g id="edge2" class="edge">
<title>dir_8b47e5652e1be271beabb171b0b042a2&#45;&gt;dir_9589b29454ff5cfb122a833ce99379e5</title>
<path fill="none" stroke="black" d="M73.54,-383.93C78.64,-373.82 84.39,-360.57 87,-348 91.32,-327.18 86.59,-303.49 81.18,-285.78"/>
<polygon fill="black" stroke="black" points="84.45,-284.51 77.98,-276.11 77.8,-286.71 84.45,-284.51"/>
<g id="a_edge2&#45;headlabel"><a xlink:href="dir_000002_000006.html" target="_top" xlink:title="1">
<text text-anchor="middle" x="88.27" y="-284.53" font-family="Helvetica,sans-Serif" font-size="10.00">1</text>
</a>
</g>
</g>
<!-- dir_c7390c05c87f2404a3d820add6901ffa -->
<g id="node6" class="node">
<title>dir_c7390c05c87f2404a3d820add6901ffa</title>
<g id="a_node6"><a xlink:href="dir_c7390c05c87f2404a3d820add6901ffa.html" target="_top" xlink:title="system">
<polygon fill="white" stroke="black" points="118,-60 64,-60 64,-24 118,-24 118,-60"/>
<text text-anchor="middle" x="91" y="-39.5" font-family="Helvetica,sans-Serif" font-size="10.00">system</text>
</a>
</g>
</g>
<!-- dir_8b47e5652e1be271beabb171b0b042a2&#45;&gt;dir_c7390c05c87f2404a3d820add6901ffa -->
<g id="edge4" class="edge">
<title>dir_8b47e5652e1be271beabb171b0b042a2&#45;&gt;dir_c7390c05c87f2404a3d820add6901ffa</title>
<path fill="none" stroke="black" d="M81.81,-383.77C109.32,-359.62 158,-312.6 158,-259 158,-259 158,-259 158,-185 158,-139.84 127.75,-95.14 107.68,-68.29"/>
<polygon fill="black" stroke="black" points="110.39,-66.09 101.57,-60.23 104.81,-70.31 110.39,-66.09"/>
<g id="a_edge4&#45;headlabel"><a xlink:href="dir_000002_000007.html" target="_top" xlink:title="2">
<text text-anchor="middle" x="114.83" y="-64.74" font-family="Helvetica,sans-Serif" font-size="10.00">2</text>
</a>
</g>
</g>
<!-- dir_8b763442d326984d19f542e14cef0a81 -->
<g id="node7" class="node">
<title>dir_8b763442d326984d19f542e14cef0a81</title>
<g id="a_node7"><a xlink:href="dir_8b763442d326984d19f542e14cef0a81.html" target="_top" xlink:title="transforms">
<polygon fill="white" stroke="black" points="148,-204 84,-204 84,-168 148,-168 148,-204"/>
<text text-anchor="middle" x="116" y="-183.5" font-family="Helvetica,sans-Serif" font-size="10.00">transforms</text>
</a>
</g>
</g>
<!-- dir_8b47e5652e1be271beabb171b0b042a2&#45;&gt;dir_8b763442d326984d19f542e14cef0a81 -->
<g id="edge1" class="edge">
<title>dir_8b47e5652e1be271beabb171b0b042a2&#45;&gt;dir_8b763442d326984d19f542e14cef0a81</title>
<path fill="none" stroke="black" d="M74.61,-383.9C80.49,-373.78 87.49,-360.53 92,-348 108.18,-303.09 113.45,-247.36 115.17,-214.63"/>
<polygon fill="black" stroke="black" points="118.68,-214.61 115.63,-204.46 111.68,-214.3 118.68,-214.61"/>
<g id="a_edge1&#45;headlabel"><a xlink:href="dir_000002_000008.html" target="_top" xlink:title="2">
<text text-anchor="middle" x="121.35" y="-215.83" font-family="Helvetica,sans-Serif" font-size="10.00">2</text>
</a>
</g>
</g>
<!-- dir_ac447aa304d2c31a2d3799b85547d74d&#45;&gt;dir_9589b29454ff5cfb122a833ce99379e5 -->
<g id="edge9" class="edge">
<title>dir_ac447aa304d2c31a2d3799b85547d74d&#45;&gt;dir_9589b29454ff5cfb122a833ce99379e5</title>
<path fill="none" stroke="black" d="M55.94,-311.7C58.17,-303.9 60.85,-294.51 63.33,-285.83"/>
<polygon fill="black" stroke="black" points="66.73,-286.68 66.11,-276.1 60,-284.76 66.73,-286.68"/>
<g id="a_edge9&#45;headlabel"><a xlink:href="dir_000003_000006.html" target="_top" xlink:title="4">
<text text-anchor="middle" x="68.47" y="-288.42" font-family="Helvetica,sans-Serif" font-size="10.00">4</text>
</a>
</g>
</g>
<!-- dir_ac447aa304d2c31a2d3799b85547d74d&#45;&gt;dir_c7390c05c87f2404a3d820add6901ffa -->
<g id="edge10" class="edge">
<title>dir_ac447aa304d2c31a2d3799b85547d74d&#45;&gt;dir_c7390c05c87f2404a3d820add6901ffa</title>
<path fill="none" stroke="black" d="M36.47,-311.63C31.8,-301.42 27.8,-288.17 26,-276 18.49,-225.16 20.34,-133.87 36,-96 40.5,-85.11 48.16,-74.89 56.44,-66.38"/>
<polygon fill="black" stroke="black" points="58.98,-68.8 63.81,-59.38 54.15,-63.73 58.98,-68.8"/>
<g id="a_edge10&#45;headlabel"><a xlink:href="dir_000003_000007.html" target="_top" xlink:title="17">
<text text-anchor="middle" x="58.33" y="-70.84" font-family="Helvetica,sans-Serif" font-size="10.00">17</text>
</a>
</g>
</g>
<!-- dir_fc2d48ca17580ba15ecc0a04d580615a -->
<g id="node4" class="node">
<title>dir_fc2d48ca17580ba15ecc0a04d580615a</title>
<g id="a_node4"><a xlink:href="dir_fc2d48ca17580ba15ecc0a04d580615a.html" target="_top" xlink:title="sensors">
<polygon fill="white" stroke="black" points="118,-132 64,-132 64,-96 118,-96 118,-132"/>
<text text-anchor="middle" x="91" y="-111.5" font-family="Helvetica,sans-Serif" font-size="10.00">sensors</text>
</a>
</g>
</g>
<!-- dir_fc2d48ca17580ba15ecc0a04d580615a&#45;&gt;dir_9589b29454ff5cfb122a833ce99379e5 -->
<g id="edge14" class="edge">
<title>dir_fc2d48ca17580ba15ecc0a04d580615a&#45;&gt;dir_9589b29454ff5cfb122a833ce99379e5</title>
<path fill="none" stroke="black" d="M84.55,-132.4C81.07,-142.62 77.07,-155.87 75,-168 71.51,-188.45 70.58,-211.91 70.48,-229.61"/>
<polygon fill="black" stroke="black" points="66.98,-229.82 70.52,-239.8 73.98,-229.79 66.98,-229.82"/>
<g id="a_edge14&#45;headlabel"><a xlink:href="dir_000005_000006.html" target="_top" xlink:title="1">
<text text-anchor="middle" x="64.13" y="-223.73" font-family="Helvetica,sans-Serif" font-size="10.00">1</text>
</a>
</g>
</g>
<!-- dir_fc2d48ca17580ba15ecc0a04d580615a&#45;&gt;dir_c7390c05c87f2404a3d820add6901ffa -->
<g id="edge15" class="edge">
<title>dir_fc2d48ca17580ba15ecc0a04d580615a&#45;&gt;dir_c7390c05c87f2404a3d820add6901ffa</title>
<path fill="none" stroke="black" d="M91,-95.7C91,-87.98 91,-78.71 91,-70.11"/>
<polygon fill="black" stroke="black" points="94.5,-70.1 91,-60.1 87.5,-70.1 94.5,-70.1"/>
<g id="a_edge15&#45;headlabel"><a xlink:href="dir_000005_000007.html" target="_top" xlink:title="5">
<text text-anchor="middle" x="97.34" y="-71.2" font-family="Helvetica,sans-Serif" font-size="10.00">5</text>
</a>
</g>
</g>
<!-- dir_fc2d48ca17580ba15ecc0a04d580615a&#45;&gt;dir_8b763442d326984d19f542e14cef0a81 -->
<g id="edge13" class="edge">
<title>dir_fc2d48ca17580ba15ecc0a04d580615a&#45;&gt;dir_8b763442d326984d19f542e14cef0a81</title>
<path fill="none" stroke="black" d="M103,-132.1C106.59,-139.88 110.18,-149.26 112.93,-157.95"/>
<polygon fill="black" stroke="black" points="109.61,-159.05 115.74,-167.7 116.33,-157.12 109.61,-159.05"/>
<g id="a_edge13&#45;headlabel"><a xlink:href="dir_000005_000008.html" target="_top" xlink:title="1">
<text text-anchor="middle" x="105.89" y="-153.88" font-family="Helvetica,sans-Serif" font-size="10.00">1</text>
</a>
</g>
</g>
<!-- dir_9589b29454ff5cfb122a833ce99379e5&#45;&gt;dir_c7390c05c87f2404a3d820add6901ffa -->
<g id="edge8" class="edge">
<title>dir_9589b29454ff5cfb122a833ce99379e5&#45;&gt;dir_c7390c05c87f2404a3d820add6901ffa</title>
<path fill="none" stroke="black" d="M64.93,-239.64C55.38,-209.64 39.48,-146.47 55,-96 58.01,-86.22 63.51,-76.62 69.32,-68.33"/>
<polygon fill="black" stroke="black" points="72.19,-70.33 75.39,-60.23 66.59,-66.13 72.19,-70.33"/>
<g id="a_edge8&#45;headlabel"><a xlink:href="dir_000006_000007.html" target="_top" xlink:title="15">
<text text-anchor="middle" x="72.31" y="-72.41" font-family="Helvetica,sans-Serif" font-size="10.00">15</text>
</a>
</g>
</g>
<!-- dir_9589b29454ff5cfb122a833ce99379e5&#45;&gt;dir_8b763442d326984d19f542e14cef0a81 -->
<g id="edge7" class="edge">
<title>dir_9589b29454ff5cfb122a833ce99379e5&#45;&gt;dir_8b763442d326984d19f542e14cef0a81</title>
<path fill="none" stroke="black" d="M82.12,-239.7C87.36,-231.56 93.7,-221.69 99.48,-212.7"/>
<polygon fill="black" stroke="black" points="102.54,-214.41 105,-204.1 96.65,-210.62 102.54,-214.41"/>
<g id="a_edge7&#45;headlabel"><a xlink:href="dir_000006_000008.html" target="_top" xlink:title="2">
<text text-anchor="middle" x="102.99" y="-216.47" font-family="Helvetica,sans-Serif" font-size="10.00">2</text>
</a>
</g>
</g>
<!-- dir_c7390c05c87f2404a3d820add6901ffa&#45;&gt;dir_8b47e5652e1be271beabb171b0b042a2 -->
<g id="edge11" class="edge">
<title>dir_c7390c05c87f2404a3d820add6901ffa&#45;&gt;dir_8b47e5652e1be271beabb171b0b042a2</title>
<path fill="none" stroke="black" d="M113.41,-60.23C138.84,-85.47 176,-134.95 176,-185 176,-259 176,-259 176,-259 176,-308.55 134.39,-352.48 101.75,-377.91"/>
<polygon fill="black" stroke="black" points="99.58,-375.17 93.68,-383.97 103.78,-380.77 99.58,-375.17"/>
<g id="a_edge11&#45;headlabel"><a xlink:href="dir_000007_000002.html" target="_top" xlink:title="1">
<text text-anchor="middle" x="100.75" y="-368.24" font-family="Helvetica,sans-Serif" font-size="10.00">1</text>
</a>
</g>
</g>
<!-- dir_c7390c05c87f2404a3d820add6901ffa&#45;&gt;dir_ac447aa304d2c31a2d3799b85547d74d -->
<g id="edge12" class="edge">
<title>dir_c7390c05c87f2404a3d820add6901ffa&#45;&gt;dir_ac447aa304d2c31a2d3799b85547d74d</title>
<path fill="none" stroke="black" d="M79.08,-60.07C70.39,-69.58 59.68,-82.26 54,-96 38.34,-133.87 36.49,-225.16 44,-276 45.26,-284.56 47.62,-293.65 49.74,-301.84"/>
<polygon fill="black" stroke="black" points="46.38,-302.79 52.22,-311.63 53.16,-301.07 46.38,-302.79"/>
<g id="a_edge12&#45;headlabel"><a xlink:href="dir_000007_000003.html" target="_top" xlink:title="3">
<text text-anchor="middle" x="42.74" y="-297.51" font-family="Helvetica,sans-Serif" font-size="10.00">3</text>
</a>
</g>
</g>
<!-- dir_8b763442d326984d19f542e14cef0a81&#45;&gt;dir_fc2d48ca17580ba15ecc0a04d580615a -->
<g id="edge6" class="edge">
<title>dir_8b763442d326984d19f542e14cef0a81&#45;&gt;dir_fc2d48ca17580ba15ecc0a04d580615a</title>
<path fill="none" stroke="black" d="M103.9,-167.7C100.31,-159.9 96.74,-150.51 94,-141.83"/>
<polygon fill="black" stroke="black" points="97.33,-140.75 91.21,-132.1 90.6,-142.68 97.33,-140.75"/>
<g id="a_edge6&#45;headlabel"><a xlink:href="dir_000008_000005.html" target="_top" xlink:title="1">
<text text-anchor="middle" x="101.05" y="-140.93" font-family="Helvetica,sans-Serif" font-size="10.00">1</text>
</a>
</g>
</g>
<!-- dir_8b763442d326984d19f542e14cef0a81&#45;&gt;dir_c7390c05c87f2404a3d820add6901ffa -->
<g id="edge5" class="edge">
<title>dir_8b763442d326984d19f542e14cef0a81&#45;&gt;dir_c7390c05c87f2404a3d820add6901ffa</title>
<path fill="none" stroke="black" d="M122.25,-167.9C127.96,-149.71 134.46,-120.26 127,-96 123.99,-86.22 118.49,-76.62 112.68,-68.33"/>
<polygon fill="black" stroke="black" points="115.41,-66.13 106.61,-60.23 109.81,-70.33 115.41,-66.13"/>
<g id="a_edge5&#45;headlabel"><a xlink:href="dir_000008_000007.html" target="_top" xlink:title="7">
<text text-anchor="middle" x="119.83" y="-64.8" font-family="Helvetica,sans-Serif" font-size="10.00">7</text>
</a>
</g>
</g>
</g>
</svg>
        <g id="navigator" transform="translate(0 0)" fill="#404254">
                <rect fill="#f2f5e9" fill-opacity="0.5" stroke="#606060" stroke-width=".5" x="0" y="0" width="60" height="60"/>
                <use id="zoomplus" xlink:href="#zoomPlus" x="17" y="9" onmousedown="handleZoom(evt,'in')"/>
                <use id="zoomminus" xlink:href="#zoomMin" x="42" y="9" onmousedown="handleZoom(evt,'out')"/>
                <use id="reset" xlink:href="#resetDef" x="30" y="36" onmousedown="handleReset()"/>
                <g id="arrowUp" xlink:href="#dirArrow" transform="translate(30 24)" onmousedown="handlePan(0,-1)">
                  <use xlink:href="#rim" fill="#404040">
                        <set attributeName="fill" to="#808080" begin="arrowUp.mouseover" end="arrowUp.mouseout"/>
                  </use>
                  <path fill="none" stroke="white" stroke-width="1.5" d="M0,-3.0v7 M-2.5,-0.5L0,-3.0L2.5,-0.5"/>
                </g>
                <g id="arrowRight" xlink:href="#dirArrow" transform="rotate(90) translate(36 -43)" onmousedown="handlePan(1,0)">
                  <use xlink:href="#rim" fill="#404040">
                        <set attributeName="fill" to="#808080" begin="arrowRight.mouseover" end="arrowRight.mouseout"/>
                  </use>
                  <path fill="none" stroke="white" stroke-width="1.5" d="M0,-3.0v7 M-2.5,-0.5L0,-3.0L2.5,-0.5"/>
                </g>
                <g id="arrowDown" xlink:href="#dirArrow" transform="rotate(180) translate(-30 -48)" onmousedown="handlePan(0,1)">
                  <use xlink:href="#rim" fill="#404040">
                        <set attributeName="fill" to="#808080" begin="arrowDown.mouseover" end="arrowDown.mouseout"/>
                  </use>
                  <path fill="none" stroke="white" stroke-width="1.5" d="M0,-3.0v7 M-2.5,-0.5L0,-3.0L2.5,-0.5"/>
                </g>
                <g id="arrowLeft" xlink:href="#dirArrow" transform="rotate(270) translate(-36 17)" onmousedown="handlePan(-1,0)">
                  <use xlink:href="#rim" fill="#404040">
                        <set attributeName="fill" to="#808080" begin="arrowLeft.mouseover" end="arrowLeft.mouseout"/>
                  </use>
                  <path fill="none" stroke="white" stroke-width="1.5" d="M0,-3.0v7 M-2.5,-0.5L0,-3.0L2.5,-0.5"/>
                </g>
        </g>
        <svg viewBox="0 0 15 15" width="100%" height="30px" preserveAspectRatio="xMaxYMin meet">
         <g id="arrow_out" transform="scale(0.3 0.3)">
          <a xlink:href="dir_748434fffbff9d3255c614694d35d3cd_dep_org.svg" target="_base">
           <rect id="button" ry="5" rx="5" y="6" x="6" height="38" width="38"
                fill="#f2f5e9" fill-opacity="0.5" stroke="#606060" stroke-width="1.0"/>
           <path id="arrow"
             d="M 11.500037,31.436501 C 11.940474,20.09759 22.043105,11.32322 32.158766,21.979434 L 37.068811,17.246167 C 37.068811,17.246167 37.088388,32 37.088388,32 L 22.160133,31.978069 C 22.160133,31.978069 26.997745,27.140456 26.997745,27.140456 C 18.528582,18.264221 13.291696,25.230495 11.500037,31.436501 z"
             style="fill:#404040;"/>
          </a>
         </g>
        </svg>
</svg>
