<?xml version="1.0" encoding="UTF-8" standalone="no"?>
<!DOCTYPE svg PUBLIC "-//W3C//DTD SVG 1.1//EN"
 "http://www.w3.org/Graphics/SVG/1.1/DTD/svg11.dtd">
<!-- Generated by graphviz version 5.0.0 (20220707.1540)
 -->
<!-- Title: src/sensesp/net Pages: 1 -->
<svg width="318pt" height="183pt"
 viewBox="0.00 0.00 318.00 183.00" xmlns="http://www.w3.org/2000/svg" xmlns:xlink="http://www.w3.org/1999/xlink">
<g id="graph0" class="graph" transform="scale(1 1) rotate(0) translate(4 179)">
<title>src/sensesp/net</title>
<polygon fill="white" stroke="transparent" points="-4,4 -4,-179 314,-179 314,4 -4,4"/>
<g id="clust1" class="cluster">
<title>clusterdir_748434fffbff9d3255c614694d35d3cd</title>
<g id="a_clust1"><a xlink:href="dir_748434fffbff9d3255c614694d35d3cd.html" target="_top" xlink:title="sensesp">
<polygon fill="#edf0f7" stroke="#7f7f7f" stroke-dasharray="5,2" points="8,-8 8,-167 302,-167 302,-8 8,-8"/>
<text text-anchor="middle" x="155" y="-155" font-family="Helvetica,sans-Serif" font-size="10.00">sensesp</text>
</a>
</g>
</g>
<g id="clust2" class="cluster">
<title>clusterdir_ac447aa304d2c31a2d3799b85547d74d</title>
<g id="a_clust2"><a xlink:href="dir_ac447aa304d2c31a2d3799b85547d74d.html" target="_top">
<polygon fill="#edf0f7" stroke="#404040" stroke-width="2" points="16,-16 16,-140 86,-140 86,-16 16,-16"/>
</a>
</g>
</g>
<!-- dir_9589b29454ff5cfb122a833ce99379e5 -->
<g id="node1" class="node">
<title>dir_9589b29454ff5cfb122a833ce99379e5</title>
<g id="a_node1"><a xlink:href="dir_9589b29454ff5cfb122a833ce99379e5.html" target="_top" xlink:title="signalk">
<polygon fill="#a2b4d6" stroke="#404040" points="150,-60 96,-60 96,-24 150,-24 150,-60"/>
<text text-anchor="middle" x="123" y="-39.5" font-family="Helvetica,sans-Serif" font-size="10.00">signalk</text>
</a>
</g>
</g>
<!-- dir_b4e3c2ca4f683ae7814bb151961c1752 -->
<g id="node2" class="node">
<title>dir_b4e3c2ca4f683ae7814bb151961c1752</title>
<g id="a_node2"><a xlink:href="dir_b4e3c2ca4f683ae7814bb151961c1752.html" target="_top" xlink:title="ui">
<polygon fill="#a2b4d6" stroke="#404040" points="222,-60 168,-60 168,-24 222,-24 222,-60"/>
<text text-anchor="middle" x="195" y="-39.5" font-family="Helvetica,sans-Serif" font-size="10.00">ui</text>
</a>
</g>
</g>
<!-- dir_c7390c05c87f2404a3d820add6901ffa -->
<g id="node3" class="node">
<title>dir_c7390c05c87f2404a3d820add6901ffa</title>
<g id="a_node3"><a xlink:href="dir_c7390c05c87f2404a3d820add6901ffa.html" target="_top" xlink:title="system">
<polygon fill="#a2b4d6" stroke="#404040" points="294,-60 240,-60 240,-24 294,-24 294,-60"/>
<text text-anchor="middle" x="267" y="-39.5" font-family="Helvetica,sans-Serif" font-size="10.00">system</text>
</a>
</g>
</g>
<!-- dir_ac447aa304d2c31a2d3799b85547d74d -->
<g id="node4" class="node">
<title>dir_ac447aa304d2c31a2d3799b85547d74d</title>
<text text-anchor="middle" x="51" y="-111.5" font-family="Helvetica,sans-Serif" font-size="10.00">net</text>
</g>
<!-- dir_ac447aa304d2c31a2d3799b85547d74d&#45;&gt;dir_9589b29454ff5cfb122a833ce99379e5 -->
<g id="edge1" class="edge">
<title>dir_ac447aa304d2c31a2d3799b85547d74d&#45;&gt;dir_9589b29454ff5cfb122a833ce99379e5</title>
<path fill="none" stroke="black" d="M68.8,-95.7C77.6,-87.14 88.38,-76.66 98,-67.3"/>
<polygon fill="black" stroke="black" points="100.68,-69.58 105.41,-60.1 95.8,-64.57 100.68,-69.58"/>
<g id="a_edge1&#45;headlabel"><a xlink:href="dir_000001_000004.html" target="_top" xlink:title="4">
<text text-anchor="middle" x="100.08" y="-71.63" font-family="Helvetica,sans-Serif" font-size="10.00">4</text>
</a>
</g>
</g>
<!-- dir_ac447aa304d2c31a2d3799b85547d74d&#45;&gt;dir_b4e3c2ca4f683ae7814bb151961c1752 -->
<g id="edge2" class="edge">
<title>dir_ac447aa304d2c31a2d3799b85547d74d&#45;&gt;dir_b4e3c2ca4f683ae7814bb151961c1752</title>
<path fill="none" stroke="black" d="M78.09,-99.83C100.77,-88.81 133.36,-72.97 158.37,-60.81"/>
<polygon fill="black" stroke="black" points="160.08,-63.87 167.55,-56.35 157.02,-57.57 160.08,-63.87"/>
<g id="a_edge2&#45;headlabel"><a xlink:href="dir_000001_000009.html" target="_top" xlink:title="3">
<text text-anchor="middle" x="158.09" y="-65.49" font-family="Helvetica,sans-Serif" font-size="10.00">3</text>
</a>
</g>
</g>
<!-- dir_ac447aa304d2c31a2d3799b85547d74d&#45;&gt;dir_c7390c05c87f2404a3d820add6901ffa -->
<g id="edge3" class="edge">
<title>dir_ac447aa304d2c31a2d3799b85547d74d&#45;&gt;dir_c7390c05c87f2404a3d820add6901ffa</title>
<path fill="none" stroke="black" d="M78.27,-106.38C112.1,-97.86 171.59,-81.9 230.27,-60"/>
<polygon fill="black" stroke="black" points="231.56,-63.26 239.67,-56.44 229.08,-56.71 231.56,-63.26"/>
<g id="a_edge3&#45;headlabel"><a xlink:href="dir_000001_000006.html" target="_top" xlink:title="18">
<text text-anchor="middle" x="229.21" y="-64.68" font-family="Helvetica,sans-Serif" font-size="10.00">18</text>
</a>
</g>
</g>
<!-- dir_da8f247e7846f6aefcb6d43bd0808485 -->
<g id="node5" class="node">
<title>dir_da8f247e7846f6aefcb6d43bd0808485</title>
<g id="a_node5"><a xlink:href="dir_da8f247e7846f6aefcb6d43bd0808485.html" target="_top" xlink:title="web">
<polygon fill="#a2b4d6" stroke="#404040" points="78,-60 24,-60 24,-24 78,-24 78,-60"/>
<text text-anchor="middle" x="51" y="-39.5" font-family="Helvetica,sans-Serif" font-size="10.00">web</text>
</a>
</g>
</g>
<!-- dir_ac447aa304d2c31a2d3799b85547d74d&#45;&gt;dir_da8f247e7846f6aefcb6d43bd0808485 -->
<g id="edge4" class="edge">
<title>dir_ac447aa304d2c31a2d3799b85547d74d&#45;&gt;dir_da8f247e7846f6aefcb6d43bd0808485</title>
<path fill="none" stroke="black" d="M51,-95.7C51,-87.98 51,-78.71 51,-70.11"/>
<polygon fill="black" stroke="black" points="54.5,-70.1 51,-60.1 47.5,-70.1 54.5,-70.1"/>
<g id="a_edge4&#45;headlabel"><a xlink:href="dir_000001_000010.html" target="_top" xlink:title="4">
<text text-anchor="middle" x="57.34" y="-71.2" font-family="Helvetica,sans-Serif" font-size="10.00">4</text>
</a>
</g>
</g>
</g>
</svg>
