<?xml version="1.0" encoding="UTF-8" standalone="no"?>
<!DOCTYPE svg PUBLIC "-//W3C//DTD SVG 1.1//EN"
 "http://www.w3.org/Graphics/SVG/1.1/DTD/svg11.dtd">
<!-- Generated by graphviz version 7.1.0 (20230121.1956)
 -->
<!-- Title: src/sensesp/system Pages: 1 -->
<svg width="198pt" height="133pt"
 viewBox="0.00 0.00 198.00 133.00" xmlns="http://www.w3.org/2000/svg" xmlns:xlink="http://www.w3.org/1999/xlink">
<g id="graph0" class="graph" transform="scale(1 1) rotate(0) translate(4 129)">
<title>src/sensesp/system</title>
<g id="clust1" class="cluster">
<title>clusterdir_748434fffbff9d3255c614694d35d3cd</title>
<g id="a_clust1"><a xlink:href="dir_748434fffbff9d3255c614694d35d3cd.html" target="_top" xlink:title="sensesp">
<polygon fill="#edf0f7" stroke="#7f7f7f" stroke-dasharray="5,2" points="8,-8 8,-117 182,-117 182,-8 8,-8"/>
<text text-anchor="middle" x="95" y="-105" font-family="Helvetica,sans-Serif" font-size="10.00">sensesp</text>
</a>
</g>
</g>
<!-- dir_8b47e5652e1be271beabb171b0b042a2 -->
<g id="node1" class="node">
<title>dir_8b47e5652e1be271beabb171b0b042a2</title>
<g id="a_node1"><a xlink:href="dir_8b47e5652e1be271beabb171b0b042a2.html" target="_top" xlink:title="controllers">
<polygon fill="#a2b4d6" stroke="#404040" points="78,-35 16,-35 16,-16 78,-16 78,-35"/>
<text text-anchor="middle" x="47" y="-23" font-family="Helvetica,sans-Serif" font-size="10.00">controllers</text>
</a>
</g>
</g>
<!-- dir_b4e3c2ca4f683ae7814bb151961c1752 -->
<g id="node2" class="node">
<title>dir_b4e3c2ca4f683ae7814bb151961c1752</title>
<g id="a_node2"><a xlink:href="dir_b4e3c2ca4f683ae7814bb151961c1752.html" target="_top" xlink:title="ui">
<polygon fill="#a2b4d6" stroke="#404040" points="125.5,-35 96.5,-35 96.5,-16 125.5,-16 125.5,-35"/>
<text text-anchor="middle" x="111" y="-23" font-family="Helvetica,sans-Serif" font-size="10.00">ui</text>
</a>
</g>
</g>
<!-- dir_ac447aa304d2c31a2d3799b85547d74d -->
<g id="node3" class="node">
<title>dir_ac447aa304d2c31a2d3799b85547d74d</title>
<g id="a_node3"><a xlink:href="dir_ac447aa304d2c31a2d3799b85547d74d.html" target="_top" xlink:title="net">
<polygon fill="#a2b4d6" stroke="red" points="174,-35 144,-35 144,-16 174,-16 174,-35"/>
<text text-anchor="middle" x="159" y="-23" font-family="Helvetica,sans-Serif" font-size="10.00">net</text>
</a>
</g>
</g>
<!-- dir_c7390c05c87f2404a3d820add6901ffa -->
<g id="node4" class="node">
<title>dir_c7390c05c87f2404a3d820add6901ffa</title>
<g id="a_node4"><a xlink:href="dir_c7390c05c87f2404a3d820add6901ffa.html" target="_top" xlink:title="system">
<polygon fill="#edf0f7" stroke="#404040" stroke-width="2" points="135.5,-90 86.5,-90 86.5,-71 135.5,-71 135.5,-90"/>
<text text-anchor="middle" x="111" y="-78" font-family="Helvetica,sans-Serif" font-size="10.00">system</text>
</a>
</g>
</g>
<!-- dir_c7390c05c87f2404a3d820add6901ffa&#45;&gt;dir_8b47e5652e1be271beabb171b0b042a2 -->
<g id="edge1" class="edge">
<title>dir_c7390c05c87f2404a3d820add6901ffa&#45;&gt;dir_8b47e5652e1be271beabb171b0b042a2</title>
<path fill="none" stroke="#63b8ff" d="M100.14,-70.51C90.89,-62.85 77.38,-51.66 66.29,-42.47"/>
<polygon fill="#63b8ff" stroke="#63b8ff" points="68.8,-40.01 58.86,-36.32 64.33,-45.4 68.8,-40.01"/>
<g id="a_edge1&#45;headlabel"><a xlink:href="dir_000006_000000.html" target="_top" xlink:title="1">
<text text-anchor="middle" x="72.21" y="-36.65" font-family="Helvetica,sans-Serif" font-size="10.00" fill="#63b8ff">1</text>
</a>
</g>
</g>
<!-- dir_c7390c05c87f2404a3d820add6901ffa&#45;&gt;dir_b4e3c2ca4f683ae7814bb151961c1752 -->
<g id="edge3" class="edge">
<title>dir_c7390c05c87f2404a3d820add6901ffa&#45;&gt;dir_b4e3c2ca4f683ae7814bb151961c1752</title>
<path fill="none" stroke="#63b8ff" d="M111,-70.75C111,-64.27 111,-55.16 111,-46.9"/>
<polygon fill="#63b8ff" stroke="#63b8ff" points="114.5,-46.96 111,-36.96 107.5,-46.96 114.5,-46.96"/>
<g id="a_edge3&#45;headlabel"><a xlink:href="dir_000006_000009.html" target="_top" xlink:title="1">
<text text-anchor="middle" x="117.34" y="-46.54" font-family="Helvetica,sans-Serif" font-size="10.00" fill="#63b8ff">1</text>
</a>
</g>
</g>
<!-- dir_c7390c05c87f2404a3d820add6901ffa&#45;&gt;dir_ac447aa304d2c31a2d3799b85547d74d -->
<g id="edge2" class="edge">
<title>dir_c7390c05c87f2404a3d820add6901ffa&#45;&gt;dir_ac447aa304d2c31a2d3799b85547d74d</title>
<path fill="none" stroke="#63b8ff" d="M118.93,-70.75C125.56,-63.43 135.22,-52.76 143.39,-43.74"/>
<polygon fill="#63b8ff" stroke="#63b8ff" points="145.77,-46.33 149.89,-36.56 140.58,-41.63 145.77,-46.33"/>
<g id="a_edge2&#45;headlabel"><a xlink:href="dir_000006_000001.html" target="_top" xlink:title="2">
<text text-anchor="middle" x="146.47" y="-47.27" font-family="Helvetica,sans-Serif" font-size="10.00" fill="#63b8ff">2</text>
</a>
</g>
</g>
</g>
</svg>
