<?xml version="1.0" encoding="UTF-8" standalone="no"?>
<!DOCTYPE svg PUBLIC "-//W3C//DTD SVG 1.1//EN"
 "http://www.w3.org/Graphics/SVG/1.1/DTD/svg11.dtd">
<!-- Generated by graphviz version 2.40.1 (20161225.0304)
 -->
<!-- Title: src Pages: 1 -->
<svg width="194pt" height="508pt"
 viewBox="0.00 0.00 194.00 508.00" xmlns="http://www.w3.org/2000/svg" xmlns:xlink="http://www.w3.org/1999/xlink">
<g id="graph0" class="graph" transform="scale(1 1) rotate(0) translate(4 504)">
<title>src</title>
<polygon fill="#ffffff" stroke="transparent" points="-4,4 -4,-504 190,-504 190,4 -4,4"/>
<g id="clust1" class="cluster">
<title>clusterdir_68267d1309a1af8e8297ef4c3efbcdba</title>
<g id="a_clust1"><a xlink:href="dir_68267d1309a1af8e8297ef4c3efbcdba.html" target="_top">
<polygon fill="#eeeeff" stroke="#000000" points="8,-8 8,-492 178,-492 178,-8 8,-8"/>
</a>
</g>
</g>
<!-- dir_68267d1309a1af8e8297ef4c3efbcdba -->
<g id="node1" class="node">
<title>dir_68267d1309a1af8e8297ef4c3efbcdba</title>
<text text-anchor="middle" x="131" y="-463" font-family="Helvetica,sans-Serif" font-size="10.00" fill="#000000">src</text>
</g>
<!-- dir_bbd6674d859f4cefaacb708974cac240 -->
<g id="node2" class="node">
<title>dir_bbd6674d859f4cefaacb708974cac240</title>
<g id="a_node2"><a xlink:href="dir_bbd6674d859f4cefaacb708974cac240.html" target="_top" xlink:title="controllers">
<polygon fill="#ffffff" stroke="#000000" points="162.1281,-412 99.8719,-412 99.8719,-376 162.1281,-376 162.1281,-412"/>
<text text-anchor="middle" x="131" y="-391" font-family="Helvetica,sans-Serif" font-size="10.00" fill="#000000">controllers</text>
</a>
</g>
</g>
<!-- dir_68267d1309a1af8e8297ef4c3efbcdba&#45;&gt;dir_bbd6674d859f4cefaacb708974cac240 -->
<g id="edge1" class="edge">
<title>dir_68267d1309a1af8e8297ef4c3efbcdba&#45;&gt;dir_bbd6674d859f4cefaacb708974cac240</title>
<path fill="none" stroke="#000000" d="M131,-447.8314C131,-440.131 131,-430.9743 131,-422.4166"/>
<polygon fill="#000000" stroke="#000000" points="134.5001,-422.4132 131,-412.4133 127.5001,-422.4133 134.5001,-422.4132"/>
<g id="a_edge1&#45;headlabel"><a xlink:href="dir_000000_000001.html" target="_top" xlink:title="2">
<text text-anchor="middle" x="137.3393" y="-423.0079" font-family="Helvetica,sans-Serif" font-size="10.00" fill="#000000">2</text>
</a>
</g>
</g>
<!-- dir_c72b25b75abe208498b36a3e44a3726c -->
<g id="node3" class="node">
<title>dir_c72b25b75abe208498b36a3e44a3726c</title>
<g id="a_node3"><a xlink:href="dir_c72b25b75abe208498b36a3e44a3726c.html" target="_top" xlink:title="net">
<polygon fill="#ffffff" stroke="#ff0000" points="150,-340 96,-340 96,-304 150,-304 150,-340"/>
<text text-anchor="middle" x="123" y="-319" font-family="Helvetica,sans-Serif" font-size="10.00" fill="#000000">net</text>
</a>
</g>
</g>
<!-- dir_bbd6674d859f4cefaacb708974cac240&#45;&gt;dir_c72b25b75abe208498b36a3e44a3726c -->
<g id="edge8" class="edge">
<title>dir_bbd6674d859f4cefaacb708974cac240&#45;&gt;dir_c72b25b75abe208498b36a3e44a3726c</title>
<path fill="none" stroke="#000000" d="M128.9813,-375.8314C128.1257,-368.131 127.1083,-358.9743 126.1574,-350.4166"/>
<polygon fill="#000000" stroke="#000000" points="129.6289,-349.9656 125.0459,-340.4133 122.6717,-350.7386 129.6289,-349.9656"/>
<g id="a_edge8&#45;headlabel"><a xlink:href="dir_000001_000002.html" target="_top" xlink:title="2">
<text text-anchor="middle" x="132.8477" y="-350.2247" font-family="Helvetica,sans-Serif" font-size="10.00" fill="#000000">2</text>
</a>
</g>
</g>
<!-- dir_d501334aeb1b78ad67cd3c72c37b1e87 -->
<g id="node6" class="node">
<title>dir_d501334aeb1b78ad67cd3c72c37b1e87</title>
<g id="a_node6"><a xlink:href="dir_d501334aeb1b78ad67cd3c72c37b1e87.html" target="_top" xlink:title="system">
<polygon fill="#ffffff" stroke="#000000" points="170,-52 116,-52 116,-16 170,-16 170,-52"/>
<text text-anchor="middle" x="143" y="-31" font-family="Helvetica,sans-Serif" font-size="10.00" fill="#000000">system</text>
</a>
</g>
</g>
<!-- dir_bbd6674d859f4cefaacb708974cac240&#45;&gt;dir_d501334aeb1b78ad67cd3c72c37b1e87 -->
<g id="edge6" class="edge">
<title>dir_bbd6674d859f4cefaacb708974cac240&#45;&gt;dir_d501334aeb1b78ad67cd3c72c37b1e87</title>
<path fill="none" stroke="#000000" d="M134.6471,-375.7296C139.5109,-365.5921 146.199,-352.5311 150,-340 161.6821,-301.4866 160,-290.2462 160,-250 160,-250 160,-250 160,-178 160,-137.4525 149.8933,-91.4899 144.4636,-62.6263"/>
<polygon fill="#000000" stroke="#000000" points="147.8491,-61.6753 142.6425,-52.4481 140.9586,-62.9083 147.8491,-61.6753"/>
<g id="a_edge6&#45;headlabel"><a xlink:href="dir_000001_000006.html" target="_top" xlink:title="2">
<text text-anchor="middle" x="151.2771" y="-61.7137" font-family="Helvetica,sans-Serif" font-size="10.00" fill="#000000">2</text>
</a>
</g>
</g>
<!-- dir_859cad99e661c8c6c06da42378c04432 -->
<g id="node7" class="node">
<title>dir_859cad99e661c8c6c06da42378c04432</title>
<g id="a_node7"><a xlink:href="dir_859cad99e661c8c6c06da42378c04432.html" target="_top" xlink:title="transforms">
<polygon fill="#ffffff" stroke="#000000" points="109.7319,-124 46.2681,-124 46.2681,-88 109.7319,-88 109.7319,-124"/>
<text text-anchor="middle" x="78" y="-103" font-family="Helvetica,sans-Serif" font-size="10.00" fill="#000000">transforms</text>
</a>
</g>
</g>
<!-- dir_bbd6674d859f4cefaacb708974cac240&#45;&gt;dir_859cad99e661c8c6c06da42378c04432 -->
<g id="edge7" class="edge">
<title>dir_bbd6674d859f4cefaacb708974cac240&#45;&gt;dir_859cad99e661c8c6c06da42378c04432</title>
<path fill="none" stroke="#000000" d="M113.0976,-375.9452C91.9679,-353.1185 58.277,-311.5194 47,-268 34.8923,-221.2748 52.1693,-165.8462 65.3838,-133.4335"/>
<polygon fill="#000000" stroke="#000000" points="68.6392,-134.7216 69.3174,-124.1484 62.1937,-131.9909 68.6392,-134.7216"/>
<g id="a_edge7&#45;headlabel"><a xlink:href="dir_000001_000007.html" target="_top" xlink:title="2">
<text text-anchor="middle" x="69.8514" y="-136.1389" font-family="Helvetica,sans-Serif" font-size="10.00" fill="#000000">2</text>
</a>
</g>
</g>
<!-- dir_846aa835ffd15ea225ad18b5b4aa0d4f -->
<g id="node5" class="node">
<title>dir_846aa835ffd15ea225ad18b5b4aa0d4f</title>
<g id="a_node5"><a xlink:href="dir_846aa835ffd15ea225ad18b5b4aa0d4f.html" target="_top" xlink:title="signalk">
<polygon fill="#ffffff" stroke="#000000" points="110,-268 56,-268 56,-232 110,-232 110,-268"/>
<text text-anchor="middle" x="83" y="-247" font-family="Helvetica,sans-Serif" font-size="10.00" fill="#000000">signalk</text>
</a>
</g>
</g>
<!-- dir_c72b25b75abe208498b36a3e44a3726c&#45;&gt;dir_846aa835ffd15ea225ad18b5b4aa0d4f -->
<g id="edge12" class="edge">
<title>dir_c72b25b75abe208498b36a3e44a3726c&#45;&gt;dir_846aa835ffd15ea225ad18b5b4aa0d4f</title>
<path fill="none" stroke="#000000" d="M112.9063,-303.8314C108.4403,-295.7925 103.0925,-286.1666 98.1621,-277.2918"/>
<polygon fill="#000000" stroke="#000000" points="101.1456,-275.4551 93.2296,-268.4133 95.0265,-278.8546 101.1456,-275.4551"/>
<g id="a_edge12&#45;headlabel"><a xlink:href="dir_000002_000005.html" target="_top" xlink:title="4">
<text text-anchor="middle" x="105.3732" y="-274.2185" font-family="Helvetica,sans-Serif" font-size="10.00" fill="#000000">4</text>
</a>
</g>
</g>
<!-- dir_c72b25b75abe208498b36a3e44a3726c&#45;&gt;dir_d501334aeb1b78ad67cd3c72c37b1e87 -->
<g id="edge11" class="edge">
<title>dir_c72b25b75abe208498b36a3e44a3726c&#45;&gt;dir_d501334aeb1b78ad67cd3c72c37b1e87</title>
<path fill="none" stroke="#000000" d="M119.7926,-303.6964C120.6813,-279.2297 127.0894,-234.4787 130,-196 133.546,-149.1201 134.167,-94.4141 136.6741,-62.0752"/>
<polygon fill="#000000" stroke="#000000" points="140.1692,-62.2887 137.6036,-52.0092 133.1988,-61.645 140.1692,-62.2887"/>
<g id="a_edge11&#45;headlabel"><a xlink:href="dir_000002_000006.html" target="_top" xlink:title="8">
<text text-anchor="middle" x="142.666" y="-63.1292" font-family="Helvetica,sans-Serif" font-size="10.00" fill="#000000">8</text>
</a>
</g>
</g>
<!-- dir_7349e89ef19c117195f8e371603e1b1f -->
<g id="node4" class="node">
<title>dir_7349e89ef19c117195f8e371603e1b1f</title>
<g id="a_node4"><a xlink:href="dir_7349e89ef19c117195f8e371603e1b1f.html" target="_top" xlink:title="sensors">
<polygon fill="#ffffff" stroke="#000000" points="130,-196 76,-196 76,-160 130,-160 130,-196"/>
<text text-anchor="middle" x="103" y="-175" font-family="Helvetica,sans-Serif" font-size="10.00" fill="#000000">sensors</text>
</a>
</g>
</g>
<!-- dir_7349e89ef19c117195f8e371603e1b1f&#45;&gt;dir_d501334aeb1b78ad67cd3c72c37b1e87 -->
<g id="edge4" class="edge">
<title>dir_7349e89ef19c117195f8e371603e1b1f&#45;&gt;dir_d501334aeb1b78ad67cd3c72c37b1e87</title>
<path fill="none" stroke="#000000" d="M108.6055,-159.5419C111.7343,-149.1262 115.6625,-135.8594 119,-124 124.8226,-103.3102 131.0686,-79.8437 135.7288,-62.0611"/>
<polygon fill="#000000" stroke="#000000" points="139.1345,-62.8715 138.2742,-52.3117 132.3615,-61.1032 139.1345,-62.8715"/>
<g id="a_edge4&#45;headlabel"><a xlink:href="dir_000004_000006.html" target="_top" xlink:title="6">
<text text-anchor="middle" x="140.9737" y="-64.0668" font-family="Helvetica,sans-Serif" font-size="10.00" fill="#000000">6</text>
</a>
</g>
</g>
<!-- dir_7349e89ef19c117195f8e371603e1b1f&#45;&gt;dir_859cad99e661c8c6c06da42378c04432 -->
<g id="edge5" class="edge">
<title>dir_7349e89ef19c117195f8e371603e1b1f&#45;&gt;dir_859cad99e661c8c6c06da42378c04432</title>
<path fill="none" stroke="#000000" d="M90.7391,-159.8314C87.2772,-152.0463 83.8399,-142.7729 81.1643,-134.1347"/>
<polygon fill="#000000" stroke="#000000" points="84.5047,-133.0848 78.4175,-124.4133 77.7685,-134.9882 84.5047,-133.0848"/>
<g id="a_edge5&#45;headlabel"><a xlink:href="dir_000004_000007.html" target="_top" xlink:title="1">
<text text-anchor="middle" x="88.2144" y="-132.772" font-family="Helvetica,sans-Serif" font-size="10.00" fill="#000000">1</text>
</a>
</g>
</g>
<!-- dir_846aa835ffd15ea225ad18b5b4aa0d4f&#45;&gt;dir_7349e89ef19c117195f8e371603e1b1f -->
<g id="edge14" class="edge">
<title>dir_846aa835ffd15ea225ad18b5b4aa0d4f&#45;&gt;dir_7349e89ef19c117195f8e371603e1b1f</title>
<path fill="none" stroke="#000000" d="M88.0468,-231.8314C90.2094,-224.0463 92.7853,-214.7729 95.1848,-206.1347"/>
<polygon fill="#000000" stroke="#000000" points="98.581,-206.9852 97.8852,-196.4133 91.8364,-205.1117 98.581,-206.9852"/>
<g id="a_edge14&#45;headlabel"><a xlink:href="dir_000005_000004.html" target="_top" xlink:title="1">
<text text-anchor="middle" x="100.3547" y="-208.2086" font-family="Helvetica,sans-Serif" font-size="10.00" fill="#000000">1</text>
</a>
</g>
</g>
<!-- dir_846aa835ffd15ea225ad18b5b4aa0d4f&#45;&gt;dir_d501334aeb1b78ad67cd3c72c37b1e87 -->
<g id="edge13" class="edge">
<title>dir_846aa835ffd15ea225ad18b5b4aa0d4f&#45;&gt;dir_d501334aeb1b78ad67cd3c72c37b1e87</title>
<path fill="none" stroke="#000000" d="M68.908,-231.7016C46.5501,-200.2645 8.279,-134.8646 37,-88 51.9864,-63.5464 81.9047,-49.7329 106.1456,-42.2116"/>
<polygon fill="#000000" stroke="#000000" points="107.1383,-45.5681 115.788,-39.4497 105.2108,-38.8387 107.1383,-45.5681"/>
<g id="a_edge13&#45;headlabel"><a xlink:href="dir_000005_000006.html" target="_top" xlink:title="13">
<text text-anchor="middle" x="104.4644" y="-46.2873" font-family="Helvetica,sans-Serif" font-size="10.00" fill="#000000">13</text>
</a>
</g>
</g>
<!-- dir_846aa835ffd15ea225ad18b5b4aa0d4f&#45;&gt;dir_859cad99e661c8c6c06da42378c04432 -->
<g id="edge15" class="edge">
<title>dir_846aa835ffd15ea225ad18b5b4aa0d4f&#45;&gt;dir_859cad99e661c8c6c06da42378c04432</title>
<path fill="none" stroke="#000000" d="M76.1805,-231.7996C72.6719,-221.4645 68.7683,-208.1925 67,-196 64.0251,-175.4878 67.0205,-152.2668 70.6316,-134.55"/>
<polygon fill="#000000" stroke="#000000" points="74.1559,-134.825 72.9117,-124.3035 67.3231,-133.3045 74.1559,-134.825"/>
<g id="a_edge15&#45;headlabel"><a xlink:href="dir_000005_000007.html" target="_top" xlink:title="2">
<text text-anchor="middle" x="76.1467" y="-135.9505" font-family="Helvetica,sans-Serif" font-size="10.00" fill="#000000">2</text>
</a>
</g>
</g>
<!-- dir_d501334aeb1b78ad67cd3c72c37b1e87&#45;&gt;dir_bbd6674d859f4cefaacb708974cac240 -->
<g id="edge2" class="edge">
<title>dir_d501334aeb1b78ad67cd3c72c37b1e87&#45;&gt;dir_bbd6674d859f4cefaacb708974cac240</title>
<path fill="none" stroke="#000000" d="M154.3854,-52.4481C165.146,-79.6578 178,-132.2724 178,-178 178,-250 178,-250 178,-250 178,-290.2462 179.6821,-301.4866 168,-340 165.2087,-349.2025 160.8603,-358.6908 156.0106,-367.0972"/>
<polygon fill="#000000" stroke="#000000" points="152.9455,-365.3973 150.6015,-375.7296 158.8772,-369.1142 152.9455,-365.3973"/>
<g id="a_edge2&#45;headlabel"><a xlink:href="dir_000006_000001.html" target="_top" xlink:title="1">
<text text-anchor="middle" x="152.4481" y="-357.8437" font-family="Helvetica,sans-Serif" font-size="10.00" fill="#000000">1</text>
</a>
</g>
</g>
<!-- dir_d501334aeb1b78ad67cd3c72c37b1e87&#45;&gt;dir_c72b25b75abe208498b36a3e44a3726c -->
<g id="edge3" class="edge">
<title>dir_d501334aeb1b78ad67cd3c72c37b1e87&#45;&gt;dir_c72b25b75abe208498b36a3e44a3726c</title>
<path fill="none" stroke="#000000" d="M148.6997,-52.0092C152.27,-81.9457 151.9469,-143.8206 148,-196 145.4419,-229.8192 140.182,-268.4835 134.4384,-293.9629"/>
<polygon fill="#000000" stroke="#000000" points="131.0342,-293.1497 132.0426,-303.6964 137.8313,-294.8228 131.0342,-293.1497"/>
<g id="a_edge3&#45;headlabel"><a xlink:href="dir_000006_000002.html" target="_top" xlink:title="3">
<text text-anchor="middle" x="129.1362" y="-285.9807" font-family="Helvetica,sans-Serif" font-size="10.00" fill="#000000">3</text>
</a>
</g>
</g>
<!-- dir_859cad99e661c8c6c06da42378c04432&#45;&gt;dir_7349e89ef19c117195f8e371603e1b1f -->
<g id="edge10" class="edge">
<title>dir_859cad99e661c8c6c06da42378c04432&#45;&gt;dir_7349e89ef19c117195f8e371603e1b1f</title>
<path fill="none" stroke="#000000" d="M90.3695,-124.4133C93.8307,-132.2292 97.2598,-141.5113 99.9194,-150.136"/>
<polygon fill="#000000" stroke="#000000" points="96.569,-151.1511 102.6438,-159.8314 103.308,-149.2574 96.569,-151.1511"/>
<g id="a_edge10&#45;headlabel"><a xlink:href="dir_000007_000004.html" target="_top" xlink:title="1">
<text text-anchor="middle" x="92.8632" y="-145.4586" font-family="Helvetica,sans-Serif" font-size="10.00" fill="#000000">1</text>
</a>
</g>
</g>
<!-- dir_859cad99e661c8c6c06da42378c04432&#45;&gt;dir_d501334aeb1b78ad67cd3c72c37b1e87 -->
<g id="edge9" class="edge">
<title>dir_859cad99e661c8c6c06da42378c04432&#45;&gt;dir_d501334aeb1b78ad67cd3c72c37b1e87</title>
<path fill="none" stroke="#000000" d="M94.4022,-87.8314C102.0415,-79.3694 111.2683,-69.1489 119.6207,-59.8971"/>
<polygon fill="#000000" stroke="#000000" points="122.2738,-62.1813 126.3769,-52.4133 117.0779,-57.4906 122.2738,-62.1813"/>
<g id="a_edge9&#45;headlabel"><a xlink:href="dir_000007_000006.html" target="_top" xlink:title="7">
<text text-anchor="middle" x="121.9726" y="-63.7521" font-family="Helvetica,sans-Serif" font-size="10.00" fill="#000000">7</text>
</a>
</g>
</g>
</g>
</svg>
