<?xml version="1.0" encoding="UTF-8" standalone="no"?>
<!DOCTYPE svg PUBLIC "-//W3C//DTD SVG 1.1//EN"
 "http://www.w3.org/Graphics/SVG/1.1/DTD/svg11.dtd">
<!-- Generated by graphviz version 2.44.1 (20200629.0846)
 -->
<!-- Title: src/sensors Pages: 1 -->
<svg width="160pt" height="151pt"
 viewBox="0.00 0.00 159.50 151.00" xmlns="http://www.w3.org/2000/svg" xmlns:xlink="http://www.w3.org/1999/xlink">
<g id="graph0" class="graph" transform="scale(1 1) rotate(0) translate(4 147)">
<title>src/sensors</title>
<polygon fill="white" stroke="transparent" points="-4,4 -4,-147 155.5,-147 155.5,4 -4,4"/>
<g id="clust1" class="cluster">
<title>clusterdir_68267d1309a1af8e8297ef4c3efbcdba</title>
<g id="a_clust1"><a xlink:href="dir_68267d1309a1af8e8297ef4c3efbcdba.html" target="_top" xlink:title="src">
<polygon fill="#ddddee" stroke="black" points="8,-64 8,-135 78,-135 78,-64 8,-64"/>
<text text-anchor="middle" x="43" y="-123" font-family="Helvetica,sans-Serif" font-size="10.00">src</text>
</a>
</g>
</g>
<!-- dir_7349e89ef19c117195f8e371603e1b1f -->
<g id="node1" class="node">
<title>dir_7349e89ef19c117195f8e371603e1b1f</title>
<g id="a_node1"><a xlink:href="dir_7349e89ef19c117195f8e371603e1b1f.html" target="_top" xlink:title="sensors">
<polygon fill="#eeeeff" stroke="black" points="70,-108 16,-108 16,-72 70,-72 70,-108"/>
<text text-anchor="middle" x="43" y="-87.5" font-family="Helvetica,sans-Serif" font-size="10.00">sensors</text>
</a>
</g>
</g>
<!-- dir_d501334aeb1b78ad67cd3c72c37b1e87 -->
<g id="node2" class="node">
<title>dir_d501334aeb1b78ad67cd3c72c37b1e87</title>
<g id="a_node2"><a xlink:href="dir_d501334aeb1b78ad67cd3c72c37b1e87.html" target="_top" xlink:title="system">
<polygon fill="none" stroke="black" points="108,-36 54,-36 54,0 108,0 108,-36"/>
<text text-anchor="middle" x="81" y="-15.5" font-family="Helvetica,sans-Serif" font-size="10.00">system</text>
</a>
</g>
</g>
<!-- dir_7349e89ef19c117195f8e371603e1b1f&#45;&gt;dir_d501334aeb1b78ad67cd3c72c37b1e87 -->
<g id="edge1" class="edge">
<title>dir_7349e89ef19c117195f8e371603e1b1f&#45;&gt;dir_d501334aeb1b78ad67cd3c72c37b1e87</title>
<path fill="none" stroke="black" d="M52.39,-71.7C56.76,-63.64 62.06,-53.89 66.9,-44.98"/>
<polygon fill="black" stroke="black" points="70.02,-46.56 71.71,-36.1 63.87,-43.22 70.02,-46.56"/>
<g id="a_edge1&#45;headlabel"><a xlink:href="dir_000004_000006.html" target="_top" xlink:title="6">
<text text-anchor="middle" x="70.8" y="-48.58" font-family="Helvetica,sans-Serif" font-size="10.00">6</text>
</a>
</g>
</g>
<!-- dir_859cad99e661c8c6c06da42378c04432 -->
<g id="node3" class="node">
<title>dir_859cad99e661c8c6c06da42378c04432</title>
<g id="a_node3"><a xlink:href="dir_859cad99e661c8c6c06da42378c04432.html" target="_top" xlink:title="transforms">
<polygon fill="none" stroke="black" points="151.5,-108 88.5,-108 88.5,-72 151.5,-72 151.5,-108"/>
<text text-anchor="middle" x="120" y="-87.5" font-family="Helvetica,sans-Serif" font-size="10.00">transforms</text>
</a>
</g>
</g>
<!-- dir_7349e89ef19c117195f8e371603e1b1f&#45;&gt;dir_859cad99e661c8c6c06da42378c04432 -->
<g id="edge2" class="edge">
<title>dir_7349e89ef19c117195f8e371603e1b1f&#45;&gt;dir_859cad99e661c8c6c06da42378c04432</title>
<path fill="none" stroke="black" d="M70.07,-90C72.84,-90 75.61,-90 78.38,-90"/>
<polygon fill="black" stroke="black" points="78.4,-93.5 88.4,-90 78.4,-86.5 78.4,-93.5"/>
<g id="a_edge2&#45;headlabel"><a xlink:href="dir_000004_000007.html" target="_top" xlink:title="1">
<text text-anchor="middle" x="74.81" y="-93.84" font-family="Helvetica,sans-Serif" font-size="10.00">1</text>
</a>
</g>
</g>
<!-- dir_859cad99e661c8c6c06da42378c04432&#45;&gt;dir_7349e89ef19c117195f8e371603e1b1f -->
<g id="edge4" class="edge">
<title>dir_859cad99e661c8c6c06da42378c04432&#45;&gt;dir_7349e89ef19c117195f8e371603e1b1f</title>
<path fill="none" stroke="black" d="M88.4,-90C85.63,-90 82.87,-90 80.1,-90"/>
<polygon fill="black" stroke="black" points="80.07,-86.5 70.07,-90 80.07,-93.5 80.07,-86.5"/>
<g id="a_edge4&#45;headlabel"><a xlink:href="dir_000007_000004.html" target="_top" xlink:title="1">
<text text-anchor="middle" x="83.66" y="-81.16" font-family="Helvetica,sans-Serif" font-size="10.00">1</text>
</a>
</g>
</g>
<!-- dir_859cad99e661c8c6c06da42378c04432&#45;&gt;dir_d501334aeb1b78ad67cd3c72c37b1e87 -->
<g id="edge3" class="edge">
<title>dir_859cad99e661c8c6c06da42378c04432&#45;&gt;dir_d501334aeb1b78ad67cd3c72c37b1e87</title>
<path fill="none" stroke="black" d="M110.36,-71.7C105.87,-63.64 100.44,-53.89 95.48,-44.98"/>
<polygon fill="black" stroke="black" points="98.45,-43.14 90.53,-36.1 92.34,-46.54 98.45,-43.14"/>
<g id="a_edge3&#45;headlabel"><a xlink:href="dir_000007_000006.html" target="_top" xlink:title="7">
<text text-anchor="middle" x="102.68" y="-42.39" font-family="Helvetica,sans-Serif" font-size="10.00">7</text>
</a>
</g>
</g>
</g>
</svg>
