<?xml version="1.0" encoding="UTF-8" standalone="no"?>
<!DOCTYPE svg PUBLIC "-//W3C//DTD SVG 1.1//EN"
 "http://www.w3.org/Graphics/SVG/1.1/DTD/svg11.dtd">
<!-- Generated by graphviz version 2.49.3 (20211023.0002)
 -->
<!-- Title: src/sensesp/net/discovery.h Pages: 1 -->
<svg width="1287pt" height="207pt"
 viewBox="0.00 0.00 1287.00 207.00" xmlns="http://www.w3.org/2000/svg" xmlns:xlink="http://www.w3.org/1999/xlink">
<g id="graph0" class="graph" transform="scale(1 1) rotate(0) translate(4 203)">
<title>src/sensesp/net/discovery.h</title>
<polygon fill="white" stroke="transparent" points="-4,4 -4,-203 1283,-203 1283,4 -4,4"/>
<!-- Node1 -->
<g id="node1" class="node">
<title>Node1</title>
<g id="a_node1"><a xlink:title=" ">
<polygon fill="#bfbfbf" stroke="black" points="154.5,-179.5 154.5,-198.5 293.5,-198.5 293.5,-179.5 154.5,-179.5"/>
<text text-anchor="middle" x="224" y="-186.5" font-family="Helvetica,sans-Serif" font-size="10.00">src/sensesp/net/discovery.h</text>
</a>
</g>
</g>
<!-- Node2 -->
<g id="node2" class="node">
<title>Node2</title>
<g id="a_node2"><a xlink:href="discovery_8cpp.html" target="_top" xlink:title=" ">
<polygon fill="white" stroke="black" points="0,-62 0,-81 150,-81 150,-62 0,-62"/>
<text text-anchor="middle" x="75" y="-69" font-family="Helvetica,sans-Serif" font-size="10.00">src/sensesp/net/discovery.cpp</text>
</a>
</g>
</g>
<!-- Node1&#45;&gt;Node2 -->
<g id="edge1" class="edge">
<title>Node1&#45;&gt;Node2</title>
<path fill="none" stroke="midnightblue" d="M204.77,-173.1C173.29,-148.69 111.69,-100.94 86.33,-81.28"/>
<polygon fill="midnightblue" stroke="midnightblue" points="202.75,-175.96 212.8,-179.32 207.04,-170.43 202.75,-175.96"/>
</g>
<!-- Node3 -->
<g id="node3" class="node">
<title>Node3</title>
<g id="a_node3"><a xlink:href="sensesp__app_8cpp.html" target="_top" xlink:title=" ">
<polygon fill="white" stroke="black" points="168.5,-62 168.5,-81 279.5,-81 279.5,-62 168.5,-62"/>
<text text-anchor="middle" x="224" y="-69" font-family="Helvetica,sans-Serif" font-size="10.00">src/sensesp_app.cpp</text>
</a>
</g>
</g>
<!-- Node1&#45;&gt;Node3 -->
<g id="edge2" class="edge">
<title>Node1&#45;&gt;Node3</title>
<path fill="none" stroke="midnightblue" d="M224,-169.16C224,-143.87 224,-99.94 224,-81.28"/>
<polygon fill="midnightblue" stroke="midnightblue" points="220.5,-169.32 224,-179.32 227.5,-169.32 220.5,-169.32"/>
</g>
<!-- Node4 -->
<g id="node4" class="node">
<title>Node4</title>
<g id="a_node4"><a xlink:href="sensesp__app_8h.html" target="_top" xlink:title=" ">
<polygon fill="white" stroke="black" points="536,-123.5 536,-142.5 636,-142.5 636,-123.5 536,-123.5"/>
<text text-anchor="middle" x="586" y="-130.5" font-family="Helvetica,sans-Serif" font-size="10.00">src/sensesp_app.h</text>
</a>
</g>
</g>
<!-- Node1&#45;&gt;Node4 -->
<g id="edge3" class="edge">
<title>Node1&#45;&gt;Node4</title>
<path fill="none" stroke="midnightblue" d="M291.53,-177.93C362.46,-167.35 472.34,-150.96 535.9,-141.47"/>
<polygon fill="midnightblue" stroke="midnightblue" points="290.73,-174.51 281.36,-179.44 291.77,-181.43 290.73,-174.51"/>
</g>
<!-- Node4&#45;&gt;Node2 -->
<g id="edge5" class="edge">
<title>Node4&#45;&gt;Node2</title>
<path fill="none" stroke="midnightblue" d="M525.74,-126.85C443.07,-119.52 289.95,-104.93 160,-87 147.54,-85.28 134.11,-83.13 121.68,-81.01"/>
<polygon fill="midnightblue" stroke="midnightblue" points="525.44,-130.34 535.71,-127.73 526.05,-123.37 525.44,-130.34"/>
</g>
<!-- Node4&#45;&gt;Node3 -->
<g id="edge11" class="edge">
<title>Node4&#45;&gt;Node3</title>
<path fill="none" stroke="midnightblue" d="M525.82,-124.12C465.68,-115.96 370.65,-102.27 289,-87 279.68,-85.26 269.66,-83.14 260.35,-81.07"/>
<polygon fill="midnightblue" stroke="midnightblue" points="525.52,-127.62 535.9,-125.49 526.46,-120.68 525.52,-127.62"/>
</g>
<!-- Node5 -->
<g id="node5" class="node">
<title>Node5</title>
<g id="a_node5"><a xlink:href="debug__output_8cpp.html" target="_top" xlink:title=" ">
<polygon fill="white" stroke="black" points="450.5,-56.5 450.5,-86.5 567.5,-86.5 567.5,-56.5 450.5,-56.5"/>
<text text-anchor="start" x="458.5" y="-74.5" font-family="Helvetica,sans-Serif" font-size="10.00">src/sensesp/net/debug</text>
<text text-anchor="middle" x="509" y="-63.5" font-family="Helvetica,sans-Serif" font-size="10.00">_output.cpp</text>
</a>
</g>
</g>
<!-- Node4&#45;&gt;Node5 -->
<g id="edge4" class="edge">
<title>Node4&#45;&gt;Node5</title>
<path fill="none" stroke="midnightblue" d="M566.84,-117.2C554.7,-107.81 539.09,-95.75 527.15,-86.52"/>
<polygon fill="midnightblue" stroke="midnightblue" points="564.91,-120.13 574.97,-123.48 569.19,-114.59 564.91,-120.13"/>
</g>
<!-- Node6 -->
<g id="node6" class="node">
<title>Node6</title>
<g id="a_node6"><a xlink:href="networking_8cpp.html" target="_top" xlink:title=" ">
<polygon fill="white" stroke="black" points="585.5,-62 585.5,-81 742.5,-81 742.5,-62 585.5,-62"/>
<text text-anchor="middle" x="664" y="-69" font-family="Helvetica,sans-Serif" font-size="10.00">src/sensesp/net/networking.cpp</text>
</a>
</g>
</g>
<!-- Node4&#45;&gt;Node6 -->
<g id="edge6" class="edge">
<title>Node4&#45;&gt;Node6</title>
<path fill="none" stroke="midnightblue" d="M605.28,-117.29C620.24,-105.88 640.46,-90.46 652.85,-81.01"/>
<polygon fill="midnightblue" stroke="midnightblue" points="603,-114.63 597.18,-123.48 607.25,-120.19 603,-114.63"/>
</g>
<!-- Node7 -->
<g id="node7" class="node">
<title>Node7</title>
<g id="a_node7"><a xlink:href="ws__client_8cpp.html" target="_top" xlink:title=" ">
<polygon fill="white" stroke="black" points="761,-56.5 761,-86.5 863,-86.5 863,-56.5 761,-56.5"/>
<text text-anchor="start" x="769" y="-74.5" font-family="Helvetica,sans-Serif" font-size="10.00">src/sensesp/net/ws</text>
<text text-anchor="middle" x="812" y="-63.5" font-family="Helvetica,sans-Serif" font-size="10.00">_client.cpp</text>
</a>
</g>
</g>
<!-- Node4&#45;&gt;Node7 -->
<g id="edge7" class="edge">
<title>Node4&#45;&gt;Node7</title>
<path fill="none" stroke="midnightblue" d="M628.49,-120.81C666.06,-110.92 720.95,-96.47 760.9,-85.95"/>
<polygon fill="midnightblue" stroke="midnightblue" points="627.16,-117.54 618.38,-123.48 628.94,-124.31 627.16,-117.54"/>
</g>
<!-- Node8 -->
<g id="node8" class="node">
<title>Node8</title>
<g id="a_node8"><a xlink:href="signalk__delta__queue_8cpp.html" target="_top" xlink:title=" ">
<polygon fill="white" stroke="black" points="881,-56.5 881,-86.5 1011,-86.5 1011,-56.5 881,-56.5"/>
<text text-anchor="start" x="889" y="-74.5" font-family="Helvetica,sans-Serif" font-size="10.00">src/sensesp/signalk</text>
<text text-anchor="middle" x="946" y="-63.5" font-family="Helvetica,sans-Serif" font-size="10.00">/signalk_delta_queue.cpp</text>
</a>
</g>
</g>
<!-- Node4&#45;&gt;Node8 -->
<g id="edge8" class="edge">
<title>Node4&#45;&gt;Node8</title>
<path fill="none" stroke="midnightblue" d="M646.29,-123.18C704.25,-114.55 794.25,-100.73 872,-87 874.84,-86.5 877.73,-85.98 880.65,-85.44"/>
<polygon fill="midnightblue" stroke="midnightblue" points="645.59,-119.75 636.21,-124.68 646.61,-126.67 645.59,-119.75"/>
</g>
<!-- Node9 -->
<g id="node9" class="node">
<title>Node9</title>
<g id="a_node9"><a xlink:href="signalk__put__request_8cpp.html" target="_top" xlink:title=" ">
<polygon fill="white" stroke="black" points="1029,-56.5 1029,-86.5 1157,-86.5 1157,-56.5 1029,-56.5"/>
<text text-anchor="start" x="1037" y="-74.5" font-family="Helvetica,sans-Serif" font-size="10.00">src/sensesp/signalk</text>
<text text-anchor="middle" x="1093" y="-63.5" font-family="Helvetica,sans-Serif" font-size="10.00">/signalk_put_request.cpp</text>
</a>
</g>
</g>
<!-- Node4&#45;&gt;Node9 -->
<g id="edge9" class="edge">
<title>Node4&#45;&gt;Node9</title>
<path fill="none" stroke="midnightblue" d="M646.44,-127.51C730.5,-120.87 887.34,-107.01 1020,-87 1022.94,-86.56 1025.94,-86.08 1028.96,-85.57"/>
<polygon fill="midnightblue" stroke="midnightblue" points="646.01,-124.04 636.31,-128.31 646.56,-131.02 646.01,-124.04"/>
</g>
<!-- Node10 -->
<g id="node10" class="node">
<title>Node10</title>
<g id="a_node10"><a xlink:href="led__blinker_8cpp.html" target="_top" xlink:title=" ">
<polygon fill="white" stroke="black" points="1175,-56.5 1175,-86.5 1279,-86.5 1279,-56.5 1175,-56.5"/>
<text text-anchor="start" x="1183" y="-74.5" font-family="Helvetica,sans-Serif" font-size="10.00">src/sensesp/system</text>
<text text-anchor="middle" x="1227" y="-63.5" font-family="Helvetica,sans-Serif" font-size="10.00">/led_blinker.cpp</text>
</a>
</g>
</g>
<!-- Node4&#45;&gt;Node10 -->
<g id="edge10" class="edge">
<title>Node4&#45;&gt;Node10</title>
<path fill="none" stroke="midnightblue" d="M646.52,-130.41C752.41,-126.93 977.94,-116.46 1166,-87 1168.9,-86.55 1171.87,-86.02 1174.86,-85.46"/>
<polygon fill="midnightblue" stroke="midnightblue" points="646.23,-126.92 636.35,-130.73 646.45,-133.91 646.23,-126.92"/>
</g>
<!-- Node11 -->
<g id="node11" class="node">
<title>Node11</title>
<g id="a_node11"><a xlink:href="sensesp__app__builder_8h.html" target="_top" xlink:title=" ">
<polygon fill="white" stroke="black" points="297.5,-62 297.5,-81 432.5,-81 432.5,-62 297.5,-62"/>
<text text-anchor="middle" x="365" y="-69" font-family="Helvetica,sans-Serif" font-size="10.00">src/sensesp_app_builder.h</text>
</a>
</g>
</g>
<!-- Node4&#45;&gt;Node11 -->
<g id="edge12" class="edge">
<title>Node4&#45;&gt;Node11</title>
<path fill="none" stroke="midnightblue" d="M544.48,-120.82C501.55,-109.26 435.47,-91.47 396.61,-81.01"/>
<polygon fill="midnightblue" stroke="midnightblue" points="543.77,-124.25 554.34,-123.48 545.59,-117.5 543.77,-124.25"/>
</g>
<!-- Node12 -->
<g id="node12" class="node">
<title>Node12</title>
<g id="a_node12"><a xlink:href="main_8cpp.html" target="_top" xlink:title=" ">
<polygon fill="white" stroke="black" points="328.5,-0.5 328.5,-19.5 401.5,-19.5 401.5,-0.5 328.5,-0.5"/>
<text text-anchor="middle" x="365" y="-7.5" font-family="Helvetica,sans-Serif" font-size="10.00">src/main.cpp</text>
</a>
</g>
</g>
<!-- Node11&#45;&gt;Node12 -->
<g id="edge13" class="edge">
<title>Node11&#45;&gt;Node12</title>
<path fill="none" stroke="midnightblue" d="M365,-51.82C365,-41 365,-27.9 365,-19.51"/>
<polygon fill="midnightblue" stroke="midnightblue" points="361.5,-51.98 365,-61.98 368.5,-51.98 361.5,-51.98"/>
</g>
</g>
</svg>
