<?xml version="1.0" encoding="UTF-8" standalone="no"?>
<!DOCTYPE svg PUBLIC "-//W3C//DTD SVG 1.1//EN"
 "http://www.w3.org/Graphics/SVG/1.1/DTD/svg11.dtd">
<!-- Generated by graphviz version 12.0.0 (20240704.0754)
 -->
<!-- Title: src/sensesp/net/discovery.cpp Pages: 1 -->
<svg width="807pt" height="425pt"
 viewBox="0.00 0.00 807.25 425.25" xmlns="http://www.w3.org/2000/svg" xmlns:xlink="http://www.w3.org/1999/xlink">
<g id="graph0" class="graph" transform="scale(1 1) rotate(0) translate(4 421.25)">
<title>src/sensesp/net/discovery.cpp</title>
<!-- Node1 -->
<g id="Node000001" class="node">
<title>Node1</title>
<g id="a_Node000001"><a xlink:title=" ">
<polygon fill="#999999" stroke="#666666" points="212.25,-417.25 64.25,-417.25 64.25,-398 212.25,-398 212.25,-417.25"/>
<text text-anchor="middle" x="138.25" y="-403.75" font-family="Helvetica,sans-Serif" font-size="10.00">src/sensesp/net/discovery.cpp</text>
</a>
</g>
</g>
<!-- Node2 -->
<g id="Node000002" class="node">
<title>Node2</title>
<g id="a_Node000002"><a xlink:href="discovery_8h.html" target="_top" xlink:title=" ">
<polygon fill="white" stroke="#666666" points="118.62,-362 53.88,-362 53.88,-342.75 118.62,-342.75 118.62,-362"/>
<text text-anchor="middle" x="86.25" y="-348.5" font-family="Helvetica,sans-Serif" font-size="10.00">discovery.h</text>
</a>
</g>
</g>
<!-- Node1&#45;&gt;Node2 -->
<g id="edge1_Node000001_Node000002" class="edge">
<title>Node1&#45;&gt;Node2</title>
<g id="a_edge1_Node000001_Node000002"><a xlink:title=" ">
<path fill="none" stroke="#63b8ff" d="M129.66,-397.83C122.41,-390.4 111.8,-379.54 102.88,-370.41"/>
<polygon fill="#63b8ff" stroke="#63b8ff" points="105.57,-368.15 96.08,-363.44 100.56,-373.04 105.57,-368.15"/>
</a>
</g>
</g>
<!-- Node4 -->
<g id="Node000004" class="node">
<title>Node4</title>
<g id="a_Node000004"><a xlink:href="sensesp__base__app_8h.html" target="_top" xlink:title=" ">
<polygon fill="white" stroke="#666666" points="294.38,-362 186.12,-362 186.12,-342.75 294.38,-342.75 294.38,-362"/>
<text text-anchor="middle" x="240.25" y="-348.5" font-family="Helvetica,sans-Serif" font-size="10.00">sensesp_base_app.h</text>
</a>
</g>
</g>
<!-- Node1&#45;&gt;Node4 -->
<g id="edge3_Node000001_Node000004" class="edge">
<title>Node1&#45;&gt;Node4</title>
<g id="a_edge3_Node000001_Node000004"><a xlink:title=" ">
<path fill="none" stroke="#63b8ff" d="M155.55,-397.59C171.23,-389.41 194.6,-377.21 212.83,-367.69"/>
<polygon fill="#63b8ff" stroke="#63b8ff" points="214.28,-370.88 221.52,-363.15 211.04,-364.68 214.28,-370.88"/>
</a>
</g>
</g>
<!-- Node3 -->
<g id="Node000003" class="node">
<title>Node3</title>
<g id="a_Node000003"><a xlink:title=" ">
<polygon fill="#e0e0e0" stroke="#999999" points="74.5,-306.75 0,-306.75 0,-287.5 74.5,-287.5 74.5,-306.75"/>
<text text-anchor="middle" x="37.25" y="-293.25" font-family="Helvetica,sans-Serif" font-size="10.00">ESPmDNS.h</text>
</a>
</g>
</g>
<!-- Node2&#45;&gt;Node3 -->
<g id="edge2_Node000002_Node000003" class="edge">
<title>Node2&#45;&gt;Node3</title>
<g id="a_edge2_Node000002_Node000003"><a xlink:title=" ">
<path fill="none" stroke="#63b8ff" d="M78.16,-342.58C71.39,-335.23 61.53,-324.51 53.19,-315.44"/>
<polygon fill="#63b8ff" stroke="#63b8ff" points="55.89,-313.21 46.54,-308.22 50.74,-317.95 55.89,-313.21"/>
</a>
</g>
</g>
<!-- Node5 -->
<g id="Node000005" class="node">
<title>Node5</title>
<g id="a_Node000005"><a xlink:href="sensesp_8h.html" target="_top" xlink:title=" ">
<polygon fill="white" stroke="#666666" points="373.75,-141 312.75,-141 312.75,-121.75 373.75,-121.75 373.75,-141"/>
<text text-anchor="middle" x="343.25" y="-127.5" font-family="Helvetica,sans-Serif" font-size="10.00">sensesp.h</text>
</a>
</g>
</g>
<!-- Node4&#45;&gt;Node5 -->
<g id="edge4_Node000004_Node000005" class="edge">
<title>Node4&#45;&gt;Node5</title>
<g id="a_edge4_Node000004_Node000005"><a xlink:title=" ">
<path fill="none" stroke="#63b8ff" d="M270.88,-342.29C288.5,-335.43 309.44,-324.15 321.25,-306.75 353.47,-259.29 350.23,-187.51 346.24,-152.71"/>
<polygon fill="#63b8ff" stroke="#63b8ff" points="349.71,-152.28 344.94,-142.82 342.77,-153.19 349.71,-152.28"/>
</a>
</g>
</g>
<!-- Node11 -->
<g id="Node000011" class="node">
<title>Node11</title>
<g id="a_Node000011"><a xlink:title=" ">
<polygon fill="#e0e0e0" stroke="#999999" points="150.25,-306.75 92.25,-306.75 92.25,-287.5 150.25,-287.5 150.25,-306.75"/>
<text text-anchor="middle" x="121.25" y="-293.25" font-family="Helvetica,sans-Serif" font-size="10.00">esp_log.h</text>
</a>
</g>
</g>
<!-- Node4&#45;&gt;Node11 -->
<g id="edge10_Node000004_Node000011" class="edge">
<title>Node4&#45;&gt;Node11</title>
<g id="a_edge10_Node000004_Node000011"><a xlink:title=" ">
<path fill="none" stroke="#63b8ff" d="M220.06,-342.34C201.34,-333.97 173.23,-321.38 151.77,-311.78"/>
<polygon fill="#63b8ff" stroke="#63b8ff" points="153.47,-308.71 142.92,-307.82 150.62,-315.1 153.47,-308.71"/>
</a>
</g>
</g>
<!-- Node12 -->
<g id="Node000012" class="node">
<title>Node12</title>
<g id="a_Node000012"><a xlink:href="filesystem_8h.html" target="_top" xlink:title=" ">
<polygon fill="white" stroke="#666666" points="312.38,-306.75 168.12,-306.75 168.12,-287.5 312.38,-287.5 312.38,-306.75"/>
<text text-anchor="middle" x="240.25" y="-293.25" font-family="Helvetica,sans-Serif" font-size="10.00">sensesp/system/filesystem.h</text>
</a>
</g>
</g>
<!-- Node4&#45;&gt;Node12 -->
<g id="edge11_Node000004_Node000012" class="edge">
<title>Node4&#45;&gt;Node12</title>
<g id="a_edge11_Node000004_Node000012"><a xlink:title=" ">
<path fill="none" stroke="#63b8ff" d="M240.25,-342.58C240.25,-336.07 240.25,-326.92 240.25,-318.62"/>
<polygon fill="#63b8ff" stroke="#63b8ff" points="243.75,-318.62 240.25,-308.62 236.75,-318.62 243.75,-318.62"/>
</a>
</g>
</g>
<!-- Node15 -->
<g id="Node000015" class="node">
<title>Node15</title>
<g id="a_Node000015"><a xlink:href="observablevalue_8h.html" target="_top" xlink:title=" ">
<polygon fill="white" stroke="#666666" points="575.12,-306.75 405.38,-306.75 405.38,-287.5 575.12,-287.5 575.12,-306.75"/>
<text text-anchor="middle" x="490.25" y="-293.25" font-family="Helvetica,sans-Serif" font-size="10.00">sensesp/system/observablevalue.h</text>
</a>
</g>
</g>
<!-- Node4&#45;&gt;Node15 -->
<g id="edge14_Node000004_Node000015" class="edge">
<title>Node4&#45;&gt;Node15</title>
<g id="a_edge14_Node000004_Node000015"><a xlink:title=" ">
<path fill="none" stroke="#63b8ff" d="M282.94,-342.28C325.37,-333.24 390.57,-319.36 436.5,-309.57"/>
<polygon fill="#63b8ff" stroke="#63b8ff" points="437.2,-313 446.25,-307.5 435.74,-306.16 437.2,-313"/>
</a>
</g>
</g>
<!-- Node6 -->
<g id="Node000006" class="node">
<title>Node6</title>
<g id="a_Node000006"><a xlink:title=" ">
<polygon fill="#e0e0e0" stroke="#999999" points="247.88,-80.12 178.62,-80.12 178.62,-60.88 247.88,-60.88 247.88,-80.12"/>
<text text-anchor="middle" x="213.25" y="-66.62" font-family="Helvetica,sans-Serif" font-size="10.00">ReactESP.h</text>
</a>
</g>
</g>
<!-- Node5&#45;&gt;Node6 -->
<g id="edge5_Node000005_Node000006" class="edge">
<title>Node5&#45;&gt;Node6</title>
<g id="a_edge5_Node000005_Node000006"><a xlink:title=" ">
<path fill="none" stroke="#63b8ff" d="M323.22,-121.3C301.88,-111.64 267.85,-96.23 243.29,-85.11"/>
<polygon fill="#63b8ff" stroke="#63b8ff" points="245.02,-82.05 234.47,-81.11 242.13,-88.42 245.02,-82.05"/>
</a>
</g>
</g>
<!-- Node7 -->
<g id="Node000007" class="node">
<title>Node7</title>
<g id="a_Node000007"><a xlink:href="local__debug_8h.html" target="_top" xlink:title=" ">
<polygon fill="white" stroke="#666666" points="376.88,-85.75 265.62,-85.75 265.62,-55.25 376.88,-55.25 376.88,-85.75"/>
<text text-anchor="start" x="273.62" y="-72.25" font-family="Helvetica,sans-Serif" font-size="10.00">sensesp/system/local</text>
<text text-anchor="middle" x="321.25" y="-61" font-family="Helvetica,sans-Serif" font-size="10.00">_debug.h</text>
</a>
</g>
</g>
<!-- Node5&#45;&gt;Node7 -->
<g id="edge6_Node000005_Node000007" class="edge">
<title>Node5&#45;&gt;Node7</title>
<g id="a_edge6_Node000005_Node000007"><a xlink:title=" ">
<path fill="none" stroke="#63b8ff" d="M339.91,-121.43C337.44,-114.83 333.95,-105.49 330.66,-96.68"/>
<polygon fill="#63b8ff" stroke="#63b8ff" points="333.99,-95.59 327.21,-87.45 327.43,-98.04 333.99,-95.59"/>
</a>
</g>
</g>
<!-- Node8 -->
<g id="Node000008" class="node">
<title>Node8</title>
<g id="a_Node000008"><a xlink:title=" ">
<polygon fill="#e0e0e0" stroke="#999999" points="285.25,-19.25 203.25,-19.25 203.25,0 285.25,0 285.25,-19.25"/>
<text text-anchor="middle" x="244.25" y="-5.75" font-family="Helvetica,sans-Serif" font-size="10.00">esp32&#45;hal&#45;log.h</text>
</a>
</g>
</g>
<!-- Node7&#45;&gt;Node8 -->
<g id="edge7_Node000007_Node000008" class="edge">
<title>Node7&#45;&gt;Node8</title>
<g id="a_edge7_Node000007_Node000008"><a xlink:title=" ">
<path fill="none" stroke="#63b8ff" d="M302.22,-54.95C290.94,-46.33 276.65,-35.4 265.08,-26.55"/>
<polygon fill="#63b8ff" stroke="#63b8ff" points="267.39,-23.91 257.32,-20.62 263.14,-29.48 267.39,-23.91"/>
</a>
</g>
</g>
<!-- Node9 -->
<g id="Node000009" class="node">
<title>Node9</title>
<g id="a_Node000009"><a xlink:title=" ">
<polygon fill="#e0e0e0" stroke="#999999" points="429.88,-19.25 372.62,-19.25 372.62,0 429.88,0 429.88,-19.25"/>
<text text-anchor="middle" x="401.25" y="-5.75" font-family="Helvetica,sans-Serif" font-size="10.00">Arduino.h</text>
</a>
</g>
</g>
<!-- Node7&#45;&gt;Node9 -->
<g id="edge8_Node000007_Node000009" class="edge">
<title>Node7&#45;&gt;Node9</title>
<g id="a_edge8_Node000007_Node000009"><a xlink:title=" ">
<path fill="none" stroke="#63b8ff" d="M341.03,-54.95C352.85,-46.24 367.89,-35.18 379.97,-26.28"/>
<polygon fill="#63b8ff" stroke="#63b8ff" points="381.72,-29.34 387.7,-20.6 377.57,-23.71 381.72,-29.34"/>
</a>
</g>
</g>
<!-- Node10 -->
<g id="Node000010" class="node">
<title>Node10</title>
<g id="a_Node000010"><a xlink:title=" ">
<polygon fill="#e0e0e0" stroke="#999999" points="347.5,-19.25 303,-19.25 303,0 347.5,0 347.5,-19.25"/>
<text text-anchor="middle" x="325.25" y="-5.75" font-family="Helvetica,sans-Serif" font-size="10.00">Print.h</text>
</a>
</g>
</g>
<!-- Node7&#45;&gt;Node10 -->
<g id="edge9_Node000007_Node000010" class="edge">
<title>Node7&#45;&gt;Node10</title>
<g id="a_edge9_Node000007_Node000010"><a xlink:title=" ">
<path fill="none" stroke="#63b8ff" d="M322.24,-54.95C322.73,-47.71 323.33,-38.84 323.87,-30.94"/>
<polygon fill="#63b8ff" stroke="#63b8ff" points="327.34,-31.43 324.53,-21.21 320.36,-30.95 327.34,-31.43"/>
</a>
</g>
</g>
<!-- Node13 -->
<g id="Node000013" class="node">
<title>Node13</title>
<g id="a_Node000013"><a xlink:href="resettable_8h.html" target="_top" xlink:title=" ">
<polygon fill="white" stroke="#666666" points="273.75,-251.5 206.75,-251.5 206.75,-232.25 273.75,-232.25 273.75,-251.5"/>
<text text-anchor="middle" x="240.25" y="-238" font-family="Helvetica,sans-Serif" font-size="10.00">resettable.h</text>
</a>
</g>
</g>
<!-- Node12&#45;&gt;Node13 -->
<g id="edge12_Node000012_Node000013" class="edge">
<title>Node12&#45;&gt;Node13</title>
<g id="a_edge12_Node000012_Node000013"><a xlink:title=" ">
<path fill="none" stroke="#63b8ff" d="M240.25,-287.33C240.25,-280.82 240.25,-271.67 240.25,-263.37"/>
<polygon fill="#63b8ff" stroke="#63b8ff" points="243.75,-263.37 240.25,-253.37 236.75,-263.37 243.75,-263.37"/>
</a>
</g>
</g>
<!-- Node14 -->
<g id="Node000014" class="node">
<title>Node14</title>
<g id="a_Node000014"><a xlink:title=" ">
<polygon fill="#e0e0e0" stroke="#999999" points="261.38,-196.25 219.12,-196.25 219.12,-177 261.38,-177 261.38,-196.25"/>
<text text-anchor="middle" x="240.25" y="-182.75" font-family="Helvetica,sans-Serif" font-size="10.00">queue</text>
</a>
</g>
</g>
<!-- Node13&#45;&gt;Node14 -->
<g id="edge13_Node000013_Node000014" class="edge">
<title>Node13&#45;&gt;Node14</title>
<g id="a_edge13_Node000013_Node000014"><a xlink:title=" ">
<path fill="none" stroke="#63b8ff" d="M240.25,-232.08C240.25,-225.57 240.25,-216.42 240.25,-208.12"/>
<polygon fill="#63b8ff" stroke="#63b8ff" points="243.75,-208.12 240.25,-198.12 236.75,-208.12 243.75,-208.12"/>
</a>
</g>
</g>
<!-- Node16 -->
<g id="Node000016" class="node">
<title>Node16</title>
<g id="a_Node000016"><a xlink:href="configurable_8h.html" target="_top" xlink:title=" ">
<polygon fill="white" stroke="#666666" points="444.62,-196.25 367.88,-196.25 367.88,-177 444.62,-177 444.62,-196.25"/>
<text text-anchor="middle" x="406.25" y="-182.75" font-family="Helvetica,sans-Serif" font-size="10.00">configurable.h</text>
</a>
</g>
</g>
<!-- Node15&#45;&gt;Node16 -->
<g id="edge15_Node000015_Node000016" class="edge">
<title>Node15&#45;&gt;Node16</title>
<g id="a_edge15_Node000015_Node000016"><a xlink:title=" ">
<path fill="none" stroke="#63b8ff" d="M483.38,-287.25C469.59,-269.44 438.35,-229.08 420.14,-205.56"/>
<polygon fill="#63b8ff" stroke="#63b8ff" points="423.03,-203.59 414.15,-197.82 417.5,-207.87 423.03,-203.59"/>
</a>
</g>
</g>
<!-- Node20 -->
<g id="Node000020" class="node">
<title>Node20</title>
<g id="a_Node000020"><a xlink:href="observable_8h.html" target="_top" xlink:title=" ">
<polygon fill="white" stroke="#666666" points="680,-196.25 608.5,-196.25 608.5,-177 680,-177 680,-196.25"/>
<text text-anchor="middle" x="644.25" y="-182.75" font-family="Helvetica,sans-Serif" font-size="10.00">observable.h</text>
</a>
</g>
</g>
<!-- Node15&#45;&gt;Node20 -->
<g id="edge21_Node000015_Node000020" class="edge">
<title>Node15&#45;&gt;Node20</title>
<g id="a_edge21_Node000015_Node000020"><a xlink:title=" ">
<path fill="none" stroke="#63b8ff" d="M511.97,-287.09C530.19,-279.03 556.49,-266.25 577.25,-251.5 596.59,-237.76 615.91,-218.62 628.8,-204.88"/>
<polygon fill="#63b8ff" stroke="#63b8ff" points="631.06,-207.59 635.25,-197.86 625.91,-202.85 631.06,-207.59"/>
</a>
</g>
</g>
<!-- Node23 -->
<g id="Node000023" class="node">
<title>Node23</title>
<g id="a_Node000023"><a xlink:href="valueproducer_8h.html" target="_top" xlink:title=" ">
<polygon fill="white" stroke="#666666" points="568.38,-251.5 484.12,-251.5 484.12,-232.25 568.38,-232.25 568.38,-251.5"/>
<text text-anchor="middle" x="526.25" y="-238" font-family="Helvetica,sans-Serif" font-size="10.00">valueproducer.h</text>
</a>
</g>
</g>
<!-- Node15&#45;&gt;Node23 -->
<g id="edge25_Node000015_Node000023" class="edge">
<title>Node15&#45;&gt;Node23</title>
<g id="a_edge25_Node000015_Node000023"><a xlink:title=" ">
<path fill="none" stroke="#63b8ff" d="M496.19,-287.33C500.96,-280.28 507.81,-270.15 513.77,-261.33"/>
<polygon fill="#63b8ff" stroke="#63b8ff" points="516.63,-263.36 519.33,-253.11 510.83,-259.44 516.63,-263.36"/>
</a>
</g>
</g>
<!-- Node16&#45;&gt;Node5 -->
<g id="edge16_Node000016_Node000005" class="edge">
<title>Node16&#45;&gt;Node5</title>
<g id="a_edge16_Node000016_Node000005"><a xlink:title=" ">
<path fill="none" stroke="#63b8ff" d="M395.56,-176.59C386.55,-168.97 373.42,-157.87 362.57,-148.7"/>
<polygon fill="#63b8ff" stroke="#63b8ff" points="364.83,-146.03 354.94,-142.25 360.31,-151.38 364.83,-146.03"/>
</a>
</g>
</g>
<!-- Node16&#45;&gt;Node9 -->
<g id="edge20_Node000016_Node000009" class="edge">
<title>Node16&#45;&gt;Node9</title>
<g id="a_edge20_Node000016_Node000009"><a xlink:title=" ">
<path fill="none" stroke="#63b8ff" d="M406,-176.71C405.23,-149.8 402.92,-68.94 401.83,-30.87"/>
<polygon fill="#63b8ff" stroke="#63b8ff" points="405.34,-31.14 401.55,-21.25 398.34,-31.34 405.34,-31.14"/>
</a>
</g>
</g>
<!-- Node17 -->
<g id="Node000017" class="node">
<title>Node17</title>
<g id="a_Node000017"><a xlink:title=" ">
<polygon fill="#e0e0e0" stroke="#999999" points="511.38,-141 433.12,-141 433.12,-121.75 511.38,-121.75 511.38,-141"/>
<text text-anchor="middle" x="472.25" y="-127.5" font-family="Helvetica,sans-Serif" font-size="10.00">ArduinoJson.h</text>
</a>
</g>
</g>
<!-- Node16&#45;&gt;Node17 -->
<g id="edge17_Node000016_Node000017" class="edge">
<title>Node16&#45;&gt;Node17</title>
<g id="a_edge17_Node000016_Node000017"><a xlink:title=" ">
<path fill="none" stroke="#63b8ff" d="M417.45,-176.59C426.99,-168.9 440.92,-157.65 452.36,-148.43"/>
<polygon fill="#63b8ff" stroke="#63b8ff" points="454.46,-151.23 460.04,-142.23 450.06,-145.78 454.46,-151.23"/>
</a>
</g>
</g>
<!-- Node18 -->
<g id="Node000018" class="node">
<title>Node18</title>
<g id="a_Node000018"><a xlink:title=" ">
<polygon fill="#e0e0e0" stroke="#999999" points="294.62,-141 259.88,-141 259.88,-121.75 294.62,-121.75 294.62,-141"/>
<text text-anchor="middle" x="277.25" y="-127.5" font-family="Helvetica,sans-Serif" font-size="10.00">map</text>
</a>
</g>
</g>
<!-- Node16&#45;&gt;Node18 -->
<g id="edge18_Node000016_Node000018" class="edge">
<title>Node16&#45;&gt;Node18</title>
<g id="a_edge18_Node000016_Node000018"><a xlink:title=" ">
<path fill="none" stroke="#63b8ff" d="M384.37,-176.59C362.65,-167.63 329.26,-153.84 305.54,-144.05"/>
<polygon fill="#63b8ff" stroke="#63b8ff" points="307.06,-140.89 296.48,-140.31 304.39,-147.36 307.06,-140.89"/>
</a>
</g>
</g>
<!-- Node19 -->
<g id="Node000019" class="node">
<title>Node19</title>
<g id="a_Node000019"><a xlink:title=" ">
<polygon fill="#e0e0e0" stroke="#999999" points="572.75,-141 529.75,-141 529.75,-121.75 572.75,-121.75 572.75,-141"/>
<text text-anchor="middle" x="551.25" y="-127.5" font-family="Helvetica,sans-Serif" font-size="10.00">vector</text>
</a>
</g>
</g>
<!-- Node16&#45;&gt;Node19 -->
<g id="edge19_Node000016_Node000019" class="edge">
<title>Node16&#45;&gt;Node19</title>
<g id="a_edge19_Node000016_Node000019"><a xlink:title=" ">
<path fill="none" stroke="#63b8ff" d="M430.85,-176.59C455.03,-167.71 492.07,-154.11 518.68,-144.33"/>
<polygon fill="#63b8ff" stroke="#63b8ff" points="519.78,-147.66 527.96,-140.93 517.37,-141.09 519.78,-147.66"/>
</a>
</g>
</g>
<!-- Node20&#45;&gt;Node19 -->
<g id="edge24_Node000020_Node000019" class="edge">
<title>Node20&#45;&gt;Node19</title>
<g id="a_edge24_Node000020_Node000019"><a xlink:title=" ">
<path fill="none" stroke="#63b8ff" d="M628.47,-176.59C614.31,-168.48 593.27,-156.43 576.72,-146.96"/>
<polygon fill="#63b8ff" stroke="#63b8ff" points="578.83,-144.14 568.42,-142.2 575.36,-150.21 578.83,-144.14"/>
</a>
</g>
</g>
<!-- Node21 -->
<g id="Node000021" class="node">
<title>Node21</title>
<g id="a_Node000021"><a xlink:title=" ">
<polygon fill="#e0e0e0" stroke="#999999" points="723.38,-141 657.12,-141 657.12,-121.75 723.38,-121.75 723.38,-141"/>
<text text-anchor="middle" x="690.25" y="-127.5" font-family="Helvetica,sans-Serif" font-size="10.00">forward_list</text>
</a>
</g>
</g>
<!-- Node20&#45;&gt;Node21 -->
<g id="edge22_Node000020_Node000021" class="edge">
<title>Node20&#45;&gt;Node21</title>
<g id="a_edge22_Node000020_Node000021"><a xlink:title=" ">
<path fill="none" stroke="#63b8ff" d="M651.85,-176.83C658.13,-169.55 667.26,-158.98 675.05,-149.98"/>
<polygon fill="#63b8ff" stroke="#63b8ff" points="677.61,-152.36 681.5,-142.5 672.31,-147.78 677.61,-152.36"/>
</a>
</g>
</g>
<!-- Node22 -->
<g id="Node000022" class="node">
<title>Node22</title>
<g id="a_Node000022"><a xlink:title=" ">
<polygon fill="#e0e0e0" stroke="#999999" points="799.25,-141 741.25,-141 741.25,-121.75 799.25,-121.75 799.25,-141"/>
<text text-anchor="middle" x="770.25" y="-127.5" font-family="Helvetica,sans-Serif" font-size="10.00">functional</text>
</a>
</g>
</g>
<!-- Node20&#45;&gt;Node22 -->
<g id="edge23_Node000020_Node000022" class="edge">
<title>Node20&#45;&gt;Node22</title>
<g id="a_edge23_Node000020_Node000022"><a xlink:title=" ">
<path fill="none" stroke="#63b8ff" d="M665.62,-176.59C685.54,-168.18 715.49,-155.52 738.25,-145.9"/>
<polygon fill="#63b8ff" stroke="#63b8ff" points="739.53,-149.16 747.38,-142.04 736.8,-142.71 739.53,-149.16"/>
</a>
</g>
</g>
<!-- Node23&#45;&gt;Node17 -->
<g id="edge26_Node000023_Node000017" class="edge">
<title>Node23&#45;&gt;Node17</title>
<g id="a_edge26_Node000023_Node000017"><a xlink:title=" ">
<path fill="none" stroke="#63b8ff" d="M517.63,-232.01C509.76,-223.48 498.3,-209.89 491.25,-196.25 484.08,-182.39 479.19,-165.4 476.17,-152.43"/>
<polygon fill="#63b8ff" stroke="#63b8ff" points="479.66,-151.99 474.15,-142.94 472.81,-153.45 479.66,-151.99"/>
</a>
</g>
</g>
<!-- Node23&#45;&gt;Node20 -->
<g id="edge27_Node000023_Node000020" class="edge">
<title>Node23&#45;&gt;Node20</title>
<g id="a_edge27_Node000023_Node000020"><a xlink:title=" ">
<path fill="none" stroke="#63b8ff" d="M546.27,-231.84C564.74,-223.5 592.46,-211 613.7,-201.41"/>
<polygon fill="#63b8ff" stroke="#63b8ff" points="615.08,-204.63 622.76,-197.33 612.2,-198.25 615.08,-204.63"/>
</a>
</g>
</g>
<!-- Node24 -->
<g id="Node000024" class="node">
<title>Node24</title>
<g id="a_Node000024"><a xlink:href="valueconsumer_8h.html" target="_top" xlink:title=" ">
<polygon fill="white" stroke="#666666" points="590,-196.25 500.5,-196.25 500.5,-177 590,-177 590,-196.25"/>
<text text-anchor="middle" x="545.25" y="-182.75" font-family="Helvetica,sans-Serif" font-size="10.00">valueconsumer.h</text>
</a>
</g>
</g>
<!-- Node23&#45;&gt;Node24 -->
<g id="edge28_Node000023_Node000024" class="edge">
<title>Node23&#45;&gt;Node24</title>
<g id="a_edge28_Node000023_Node000024"><a xlink:title=" ">
<path fill="none" stroke="#63b8ff" d="M529.39,-232.08C531.79,-225.34 535.21,-215.77 538.25,-207.24"/>
<polygon fill="#63b8ff" stroke="#63b8ff" points="541.47,-208.63 541.54,-198.03 534.88,-206.28 541.47,-208.63"/>
</a>
</g>
</g>
<!-- Node24&#45;&gt;Node5 -->
<g id="edge29_Node000024_Node000005" class="edge">
<title>Node24&#45;&gt;Node5</title>
<g id="a_edge29_Node000024_Node000005"><a xlink:title=" ">
<path fill="none" stroke="#63b8ff" d="M510.98,-176.59C476.2,-167.42 422.3,-153.21 385.03,-143.39"/>
<polygon fill="#63b8ff" stroke="#63b8ff" points="386.06,-140.04 375.5,-140.88 384.28,-146.81 386.06,-140.04"/>
</a>
</g>
</g>
<!-- Node24&#45;&gt;Node17 -->
<g id="edge30_Node000024_Node000017" class="edge">
<title>Node24&#45;&gt;Node17</title>
<g id="a_edge30_Node000024_Node000017"><a xlink:title=" ">
<path fill="none" stroke="#63b8ff" d="M532.87,-176.59C522.1,-168.74 506.28,-157.2 493.5,-147.87"/>
<polygon fill="#63b8ff" stroke="#63b8ff" points="495.81,-145.23 485.67,-142.17 491.69,-150.89 495.81,-145.23"/>
</a>
</g>
</g>
<!-- Node25 -->
<g id="Node000025" class="node">
<title>Node25</title>
<g id="a_Node000025"><a xlink:title=" ">
<polygon fill="#e0e0e0" stroke="#999999" points="639.38,-141 591.12,-141 591.12,-121.75 639.38,-121.75 639.38,-141"/>
<text text-anchor="middle" x="615.25" y="-127.5" font-family="Helvetica,sans-Serif" font-size="10.00">stdint.h</text>
</a>
</g>
</g>
<!-- Node24&#45;&gt;Node25 -->
<g id="edge31_Node000024_Node000025" class="edge">
<title>Node24&#45;&gt;Node25</title>
<g id="a_edge31_Node000024_Node000025"><a xlink:title=" ">
<path fill="none" stroke="#63b8ff" d="M557.12,-176.59C567.34,-168.82 582.32,-157.42 594.51,-148.15"/>
<polygon fill="#63b8ff" stroke="#63b8ff" points="596.51,-151.03 602.35,-142.19 592.27,-145.46 596.51,-151.03"/>
</a>
</g>
</g>
</g>
</svg>
