<?xml version="1.0" encoding="UTF-8" standalone="no"?>
<!DOCTYPE svg PUBLIC "-//W3C//DTD SVG 1.1//EN"
 "http://www.w3.org/Graphics/SVG/1.1/DTD/svg11.dtd">
<!-- Generated by graphviz version 7.1.0 (20230121.1956)
 -->
<!-- Title: src/sensesp/system/filesystem.h Pages: 1 -->
<svg width="1471pt" height="478pt"
 viewBox="0.00 0.00 1470.50 478.00" xmlns="http://www.w3.org/2000/svg" xmlns:xlink="http://www.w3.org/1999/xlink">
<g id="graph0" class="graph" transform="scale(1 1) rotate(0) translate(4 474)">
<title>src/sensesp/system/filesystem.h</title>
<!-- Node1 -->
<g id="node1" class="node">
<title>Node1</title>
<g id="a_node1"><a xlink:title=" ">
<polygon fill="#999999" stroke="#666666" points="857.5,-470 752.5,-470 752.5,-440 857.5,-440 857.5,-470"/>
<text text-anchor="start" x="760.5" y="-458" font-family="Helvetica,sans-Serif" font-size="10.00">src/sensesp/system</text>
<text text-anchor="middle" x="805" y="-447" font-family="Helvetica,sans-Serif" font-size="10.00">/filesystem.h</text>
</a>
</g>
</g>
<!-- Node2 -->
<g id="node2" class="node">
<title>Node2</title>
<g id="a_node2"><a xlink:href="filesystem_8cpp.html" target="_top" xlink:title=" ">
<polygon fill="white" stroke="#666666" points="791.5,-404 686.5,-404 686.5,-374 791.5,-374 791.5,-404"/>
<text text-anchor="start" x="694.5" y="-392" font-family="Helvetica,sans-Serif" font-size="10.00">src/sensesp/system</text>
<text text-anchor="middle" x="739" y="-381" font-family="Helvetica,sans-Serif" font-size="10.00">/filesystem.cpp</text>
</a>
</g>
</g>
<!-- Node1&#45;&gt;Node2 -->
<g id="edge1" class="edge">
<title>Node1&#45;&gt;Node2</title>
<path fill="none" stroke="#63b8ff" d="M782.11,-431.81C772.66,-422.64 761.97,-412.28 753.61,-404.16"/>
<polygon fill="#63b8ff" stroke="#63b8ff" points="779.65,-434.29 789.27,-438.74 784.52,-429.27 779.65,-434.29"/>
</g>
<!-- Node3 -->
<g id="node3" class="node">
<title>Node3</title>
<g id="a_node3"><a xlink:href="sensesp__base__app_8h.html" target="_top" xlink:title=" ">
<polygon fill="white" stroke="#666666" points="934.5,-398.5 809.5,-398.5 809.5,-379.5 934.5,-379.5 934.5,-398.5"/>
<text text-anchor="middle" x="872" y="-386.5" font-family="Helvetica,sans-Serif" font-size="10.00">src/sensesp_base_app.h</text>
</a>
</g>
</g>
<!-- Node1&#45;&gt;Node3 -->
<g id="edge2" class="edge">
<title>Node1&#45;&gt;Node3</title>
<path fill="none" stroke="#63b8ff" d="M828.09,-431.94C839.99,-420.58 853.83,-407.36 862.74,-398.84"/>
<polygon fill="#63b8ff" stroke="#63b8ff" points="825.78,-429.31 820.96,-438.75 830.61,-434.37 825.78,-429.31"/>
</g>
<!-- Node4 -->
<g id="node4" class="node">
<title>Node4</title>
<g id="a_node4"><a xlink:href="http__server_8cpp.html" target="_top" xlink:title=" ">
<polygon fill="white" stroke="#666666" points="641,-338 535,-338 535,-308 641,-308 641,-338"/>
<text text-anchor="start" x="543" y="-326" font-family="Helvetica,sans-Serif" font-size="10.00">src/sensesp/net/http</text>
<text text-anchor="middle" x="588" y="-315" font-family="Helvetica,sans-Serif" font-size="10.00">_server.cpp</text>
</a>
</g>
</g>
<!-- Node3&#45;&gt;Node4 -->
<g id="edge3" class="edge">
<title>Node3&#45;&gt;Node4</title>
<path fill="none" stroke="#63b8ff" d="M821.19,-376.55C770.48,-365.12 692.88,-347.64 641.31,-336.01"/>
<polygon fill="#63b8ff" stroke="#63b8ff" points="820.21,-379.92 830.74,-378.7 821.75,-373.09 820.21,-379.92"/>
</g>
<!-- Node5 -->
<g id="node5" class="node">
<title>Node5</title>
<g id="a_node5"><a xlink:href="system__info_8h.html" target="_top" xlink:title=" ">
<polygon fill="white" stroke="#666666" points="966.5,-338 859.5,-338 859.5,-308 966.5,-308 966.5,-338"/>
<text text-anchor="start" x="867.5" y="-326" font-family="Helvetica,sans-Serif" font-size="10.00">src/sensesp/sensors</text>
<text text-anchor="middle" x="913" y="-315" font-family="Helvetica,sans-Serif" font-size="10.00">/system_info.h</text>
</a>
</g>
</g>
<!-- Node3&#45;&gt;Node5 -->
<g id="edge4" class="edge">
<title>Node3&#45;&gt;Node5</title>
<path fill="none" stroke="#63b8ff" d="M883.73,-369.7C890.13,-359.7 897.94,-347.51 903.88,-338.23"/>
<polygon fill="#63b8ff" stroke="#63b8ff" points="880.96,-367.52 878.52,-377.83 886.86,-371.29 880.96,-367.52"/>
</g>
<!-- Node9 -->
<g id="node9" class="node">
<title>Node9</title>
<g id="a_node9"><a xlink:href="base__button_8h.html" target="_top" xlink:title=" ">
<polygon fill="white" stroke="#666666" points="802.5,-338 697.5,-338 697.5,-308 802.5,-308 802.5,-338"/>
<text text-anchor="start" x="705.5" y="-326" font-family="Helvetica,sans-Serif" font-size="10.00">src/sensesp/system</text>
<text text-anchor="middle" x="750" y="-315" font-family="Helvetica,sans-Serif" font-size="10.00">/base_button.h</text>
</a>
</g>
</g>
<!-- Node3&#45;&gt;Node9 -->
<g id="edge8" class="edge">
<title>Node3&#45;&gt;Node9</title>
<path fill="none" stroke="#63b8ff" d="M845.02,-373.85C824.99,-363.34 797.77,-349.06 777.6,-338.48"/>
<polygon fill="#63b8ff" stroke="#63b8ff" points="843.21,-376.85 853.7,-378.4 846.47,-370.65 843.21,-376.85"/>
</g>
<!-- Node10 -->
<g id="node10" class="node">
<title>Node10</title>
<g id="a_node10"><a xlink:href="minimal__button_8h.html" target="_top" xlink:title=" ">
<polygon fill="white" stroke="#666666" points="721.5,-272 616.5,-272 616.5,-242 721.5,-242 721.5,-272"/>
<text text-anchor="start" x="624.5" y="-260" font-family="Helvetica,sans-Serif" font-size="10.00">src/sensesp/system</text>
<text text-anchor="middle" x="669" y="-249" font-family="Helvetica,sans-Serif" font-size="10.00">/minimal_button.h</text>
</a>
</g>
</g>
<!-- Node3&#45;&gt;Node10 -->
<g id="edge24" class="edge">
<title>Node3&#45;&gt;Node10</title>
<path fill="none" stroke="#63b8ff" d="M819.34,-376.57C768.33,-365.04 697.31,-347.62 688,-338 670.92,-320.36 668.21,-290.31 668.28,-272.49"/>
<polygon fill="#63b8ff" stroke="#63b8ff" points="818.54,-379.98 829.07,-378.75 820.07,-373.15 818.54,-379.98"/>
</g>
<!-- Node14 -->
<g id="node14" class="node">
<title>Node14</title>
<g id="a_node14"><a xlink:href="sensesp__app_8h.html" target="_top" xlink:title=" ">
<polygon fill="white" stroke="#666666" points="753.5,-140 654.5,-140 654.5,-121 753.5,-121 753.5,-140"/>
<text text-anchor="middle" x="704" y="-128" font-family="Helvetica,sans-Serif" font-size="10.00">src/sensesp_app.h</text>
</a>
</g>
</g>
<!-- Node3&#45;&gt;Node14 -->
<g id="edge25" class="edge">
<title>Node3&#45;&gt;Node14</title>
<path fill="none" stroke="#63b8ff" d="M860.07,-369.78C826.8,-318.98 733.84,-177.07 709.76,-140.29"/>
<polygon fill="#63b8ff" stroke="#63b8ff" points="856.98,-371.46 865.39,-377.9 862.84,-367.62 856.98,-371.46"/>
</g>
<!-- Node22 -->
<g id="node22" class="node">
<title>Node22</title>
<g id="a_node22"><a xlink:href="sensesp__base__app_8cpp.html" target="_top" xlink:title=" ">
<polygon fill="white" stroke="#666666" points="1121,-332.5 985,-332.5 985,-313.5 1121,-313.5 1121,-332.5"/>
<text text-anchor="middle" x="1053" y="-320.5" font-family="Helvetica,sans-Serif" font-size="10.00">src/sensesp_base_app.cpp</text>
</a>
</g>
</g>
<!-- Node3&#45;&gt;Node22 -->
<g id="edge26" class="edge">
<title>Node3&#45;&gt;Node22</title>
<path fill="none" stroke="#63b8ff" d="M907.99,-375.27C943.42,-362.75 996.6,-343.94 1027.76,-332.93"/>
<polygon fill="#63b8ff" stroke="#63b8ff" points="906.86,-371.96 898.59,-378.6 909.19,-378.56 906.86,-371.96"/>
</g>
<!-- Node23 -->
<g id="node23" class="node">
<title>Node23</title>
<g id="a_node23"><a xlink:href="sensesp__base__app__builder_8h.html" target="_top" xlink:title=" ">
<polygon fill="white" stroke="#666666" points="1256.5,-338 1139.5,-338 1139.5,-308 1256.5,-308 1256.5,-338"/>
<text text-anchor="start" x="1147.5" y="-326" font-family="Helvetica,sans-Serif" font-size="10.00">src/sensesp_base_app</text>
<text text-anchor="middle" x="1198" y="-315" font-family="Helvetica,sans-Serif" font-size="10.00">_builder.h</text>
</a>
</g>
</g>
<!-- Node3&#45;&gt;Node23 -->
<g id="edge27" class="edge">
<title>Node3&#45;&gt;Node23</title>
<path fill="none" stroke="#63b8ff" d="M930.18,-376.92C982.5,-366.92 1061.43,-351.7 1130,-338 1132.95,-337.41 1135.98,-336.8 1139.04,-336.18"/>
<polygon fill="#63b8ff" stroke="#63b8ff" points="929.76,-373.44 920.6,-378.76 931.08,-380.32 929.76,-373.44"/>
</g>
<!-- Node25 -->
<g id="node25" class="node">
<title>Node25</title>
<g id="a_node25"><a xlink:href="sensesp__minimal__app_8h.html" target="_top" xlink:title=" ">
<polygon fill="white" stroke="#666666" points="1383.5,-338 1274.5,-338 1274.5,-308 1383.5,-308 1383.5,-338"/>
<text text-anchor="start" x="1282.5" y="-326" font-family="Helvetica,sans-Serif" font-size="10.00">src/sensesp_minimal</text>
<text text-anchor="middle" x="1329" y="-315" font-family="Helvetica,sans-Serif" font-size="10.00">_app.h</text>
</a>
</g>
</g>
<!-- Node3&#45;&gt;Node25 -->
<g id="edge30" class="edge">
<title>Node3&#45;&gt;Node25</title>
<path fill="none" stroke="#63b8ff" d="M946.05,-380.67C1025.47,-372.32 1155.13,-357.31 1266,-338 1268.65,-337.54 1271.36,-337.04 1274.08,-336.52"/>
<polygon fill="#63b8ff" stroke="#63b8ff" points="945.79,-377.18 936.21,-381.69 946.52,-384.14 945.79,-377.18"/>
</g>
<!-- Node6 -->
<g id="node6" class="node">
<title>Node6</title>
<g id="a_node6"><a xlink:href="system__info_8cpp.html" target="_top" xlink:title=" ">
<polygon fill="white" stroke="#666666" points="966.5,-272 859.5,-272 859.5,-242 966.5,-242 966.5,-272"/>
<text text-anchor="start" x="867.5" y="-260" font-family="Helvetica,sans-Serif" font-size="10.00">src/sensesp/sensors</text>
<text text-anchor="middle" x="913" y="-249" font-family="Helvetica,sans-Serif" font-size="10.00">/system_info.cpp</text>
</a>
</g>
</g>
<!-- Node5&#45;&gt;Node6 -->
<g id="edge5" class="edge">
<title>Node5&#45;&gt;Node6</title>
<path fill="none" stroke="#63b8ff" d="M913,-296.39C913,-288.13 913,-279.28 913,-272.16"/>
<polygon fill="#63b8ff" stroke="#63b8ff" points="909.5,-296.28 913,-306.28 916.5,-296.28 909.5,-296.28"/>
</g>
<!-- Node7 -->
<g id="node7" class="node">
<title>Node7</title>
<g id="a_node7"><a xlink:href="sensesp__app__builder_8h.html" target="_top" xlink:title=" ">
<polygon fill="white" stroke="#666666" points="1391,-79.5 1259,-79.5 1259,-60.5 1391,-60.5 1391,-79.5"/>
<text text-anchor="middle" x="1325" y="-67.5" font-family="Helvetica,sans-Serif" font-size="10.00">src/sensesp_app_builder.h</text>
</a>
</g>
</g>
<!-- Node5&#45;&gt;Node7 -->
<g id="edge6" class="edge">
<title>Node5&#45;&gt;Node7</title>
<path fill="none" stroke="#63b8ff" d="M946.24,-301.75C1030.74,-250.27 1251.26,-115.93 1310.29,-79.96"/>
<polygon fill="#63b8ff" stroke="#63b8ff" points="944.64,-298.62 937.92,-306.82 948.28,-304.6 944.64,-298.62"/>
</g>
<!-- Node8 -->
<g id="node8" class="node">
<title>Node8</title>
<g id="a_node8"><a xlink:href="main_8cpp.html" target="_top" xlink:title=" ">
<polygon fill="white" stroke="#666666" points="1361.5,-19 1288.5,-19 1288.5,0 1361.5,0 1361.5,-19"/>
<text text-anchor="middle" x="1325" y="-7" font-family="Helvetica,sans-Serif" font-size="10.00">src/main.cpp</text>
</a>
</g>
</g>
<!-- Node7&#45;&gt;Node8 -->
<g id="edge7" class="edge">
<title>Node7&#45;&gt;Node8</title>
<path fill="none" stroke="#63b8ff" d="M1325,-49.16C1325,-38.95 1325,-27.04 1325,-19.17"/>
<polygon fill="#63b8ff" stroke="#63b8ff" points="1321.5,-48.85 1325,-58.85 1328.5,-48.85 1321.5,-48.85"/>
</g>
<!-- Node9&#45;&gt;Node10 -->
<g id="edge9" class="edge">
<title>Node9&#45;&gt;Node10</title>
<path fill="none" stroke="#63b8ff" d="M723.04,-300.7C711.27,-291.4 697.77,-280.73 687.21,-272.39"/>
<polygon fill="#63b8ff" stroke="#63b8ff" points="720.82,-303.4 730.84,-306.86 725.16,-297.91 720.82,-303.4"/>
</g>
<!-- Node11 -->
<g id="node11" class="node">
<title>Node11</title>
<g id="a_node11"><a xlink:href="button_8h.html" target="_top" xlink:title=" ">
<polygon fill="white" stroke="#666666" points="449.5,-206 344.5,-206 344.5,-176 449.5,-176 449.5,-206"/>
<text text-anchor="start" x="352.5" y="-194" font-family="Helvetica,sans-Serif" font-size="10.00">src/sensesp/system</text>
<text text-anchor="middle" x="397" y="-183" font-family="Helvetica,sans-Serif" font-size="10.00">/button.h</text>
</a>
</g>
</g>
<!-- Node10&#45;&gt;Node11 -->
<g id="edge10" class="edge">
<title>Node10&#45;&gt;Node11</title>
<path fill="none" stroke="#63b8ff" d="M605.18,-240.98C557.84,-229.84 494.06,-214.84 449.62,-204.38"/>
<polygon fill="#63b8ff" stroke="#63b8ff" points="604.22,-244.35 614.76,-243.24 605.83,-237.54 604.22,-244.35"/>
</g>
<!-- Node12 -->
<g id="node12" class="node">
<title>Node12</title>
<g id="a_node12"><a xlink:href="button_8cpp.html" target="_top" xlink:title=" ">
<polygon fill="white" stroke="#666666" points="233.5,-85 128.5,-85 128.5,-55 233.5,-55 233.5,-85"/>
<text text-anchor="start" x="136.5" y="-73" font-family="Helvetica,sans-Serif" font-size="10.00">src/sensesp/system</text>
<text text-anchor="middle" x="181" y="-62" font-family="Helvetica,sans-Serif" font-size="10.00">/button.cpp</text>
</a>
</g>
</g>
<!-- Node11&#45;&gt;Node12 -->
<g id="edge11" class="edge">
<title>Node11&#45;&gt;Node12</title>
<path fill="none" stroke="#63b8ff" d="M361.09,-170.21C317.66,-146.29 245.64,-106.61 207.15,-85.41"/>
<polygon fill="#63b8ff" stroke="#63b8ff" points="359.17,-173.16 369.62,-174.92 362.55,-167.02 359.17,-173.16"/>
</g>
<!-- Node13 -->
<g id="node13" class="node">
<title>Node13</title>
<g id="a_node13"><a xlink:href="sensesp__app_8cpp.html" target="_top" xlink:title=" ">
<polygon fill="white" stroke="#666666" points="110,-79.5 0,-79.5 0,-60.5 110,-60.5 110,-79.5"/>
<text text-anchor="middle" x="55" y="-67.5" font-family="Helvetica,sans-Serif" font-size="10.00">src/sensesp_app.cpp</text>
</a>
</g>
</g>
<!-- Node11&#45;&gt;Node13 -->
<g id="edge12" class="edge">
<title>Node11&#45;&gt;Node13</title>
<path fill="none" stroke="#63b8ff" d="M344.88,-171.86C270.5,-145.98 136.71,-99.43 80.73,-79.95"/>
<polygon fill="#63b8ff" stroke="#63b8ff" points="343.38,-175.05 353.98,-175.03 345.68,-168.44 343.38,-175.05"/>
</g>
<!-- Node11&#45;&gt;Node14 -->
<g id="edge13" class="edge">
<title>Node11&#45;&gt;Node14</title>
<path fill="none" stroke="#63b8ff" d="M460.73,-177.86C519.19,-166.72 604.43,-150.47 656.94,-140.47"/>
<polygon fill="#63b8ff" stroke="#63b8ff" points="460.43,-174.35 451.26,-179.66 461.74,-181.23 460.43,-174.35"/>
</g>
<!-- Node14&#45;&gt;Node7 -->
<g id="edge23" class="edge">
<title>Node14&#45;&gt;Node7</title>
<path fill="none" stroke="#63b8ff" d="M765.08,-126.58C866.25,-121.29 1074.82,-108.43 1250,-85 1260.11,-83.65 1270.92,-81.84 1281.1,-79.98"/>
<polygon fill="#63b8ff" stroke="#63b8ff" points="765.19,-123.07 755.38,-127.08 765.55,-130.06 765.19,-123.07"/>
</g>
<!-- Node14&#45;&gt;Node12 -->
<g id="edge20" class="edge">
<title>Node14&#45;&gt;Node12</title>
<path fill="none" stroke="#63b8ff" d="M642.84,-126.05C554.26,-120.51 385.27,-107.84 243,-85 239.95,-84.51 236.82,-83.96 233.68,-83.37"/>
<polygon fill="#63b8ff" stroke="#63b8ff" points="642.57,-129.54 652.77,-126.67 643,-122.56 642.57,-129.54"/>
</g>
<!-- Node14&#45;&gt;Node13 -->
<g id="edge22" class="edge">
<title>Node14&#45;&gt;Node13</title>
<path fill="none" stroke="#63b8ff" d="M642.86,-127.65C536.08,-123.81 308.85,-112.85 119,-85 110.11,-83.7 100.61,-81.86 91.73,-79.95"/>
<polygon fill="#63b8ff" stroke="#63b8ff" points="642.42,-131.14 652.53,-127.99 642.66,-124.15 642.42,-131.14"/>
</g>
<!-- Node15 -->
<g id="node15" class="node">
<title>Node15</title>
<g id="a_node15"><a xlink:href="debug__output_8cpp.html" target="_top" xlink:title=" ">
<polygon fill="white" stroke="#666666" points="368,-85 252,-85 252,-55 368,-55 368,-85"/>
<text text-anchor="start" x="260" y="-73" font-family="Helvetica,sans-Serif" font-size="10.00">src/sensesp/net/debug</text>
<text text-anchor="middle" x="310" y="-62" font-family="Helvetica,sans-Serif" font-size="10.00">_output.cpp</text>
</a>
</g>
</g>
<!-- Node14&#45;&gt;Node15 -->
<g id="edge14" class="edge">
<title>Node14&#45;&gt;Node15</title>
<path fill="none" stroke="#63b8ff" d="M642.86,-122.49C577.01,-114.64 469.28,-100.9 377,-85 374.19,-84.52 371.32,-84 368.42,-83.46"/>
<polygon fill="#63b8ff" stroke="#63b8ff" points="642.41,-125.96 652.75,-123.66 643.23,-119.01 642.41,-125.96"/>
</g>
<!-- Node16 -->
<g id="node16" class="node">
<title>Node16</title>
<g id="a_node16"><a xlink:href="discovery_8cpp.html" target="_top" xlink:title=" ">
<polygon fill="white" stroke="#666666" points="535.5,-79.5 386.5,-79.5 386.5,-60.5 535.5,-60.5 535.5,-79.5"/>
<text text-anchor="middle" x="461" y="-67.5" font-family="Helvetica,sans-Serif" font-size="10.00">src/sensesp/net/discovery.cpp</text>
</a>
</g>
</g>
<!-- Node14&#45;&gt;Node16 -->
<g id="edge15" class="edge">
<title>Node14&#45;&gt;Node16</title>
<path fill="none" stroke="#63b8ff" d="M655.86,-117.91C609.52,-106.75 540.42,-90.12 498.17,-79.95"/>
<polygon fill="#63b8ff" stroke="#63b8ff" points="654.82,-121.26 665.36,-120.2 656.45,-114.45 654.82,-121.26"/>
</g>
<!-- Node17 -->
<g id="node17" class="node">
<title>Node17</title>
<g id="a_node17"><a xlink:href="networking_8cpp.html" target="_top" xlink:title=" ">
<polygon fill="white" stroke="#666666" points="708.5,-79.5 553.5,-79.5 553.5,-60.5 708.5,-60.5 708.5,-79.5"/>
<text text-anchor="middle" x="631" y="-67.5" font-family="Helvetica,sans-Serif" font-size="10.00">src/sensesp/net/networking.cpp</text>
</a>
</g>
</g>
<!-- Node14&#45;&gt;Node17 -->
<g id="edge16" class="edge">
<title>Node14&#45;&gt;Node17</title>
<path fill="none" stroke="#63b8ff" d="M684.32,-113.73C670.81,-102.9 653.38,-88.93 642.19,-79.97"/>
<polygon fill="#63b8ff" stroke="#63b8ff" points="681.74,-116.15 691.73,-119.67 686.12,-110.68 681.74,-116.15"/>
</g>
<!-- Node18 -->
<g id="node18" class="node">
<title>Node18</title>
<g id="a_node18"><a xlink:href="ws__client_8cpp.html" target="_top" xlink:title=" ">
<polygon fill="white" stroke="#666666" points="829,-85 727,-85 727,-55 829,-55 829,-85"/>
<text text-anchor="start" x="735" y="-73" font-family="Helvetica,sans-Serif" font-size="10.00">src/sensesp/net/ws</text>
<text text-anchor="middle" x="778" y="-62" font-family="Helvetica,sans-Serif" font-size="10.00">_client.cpp</text>
</a>
</g>
</g>
<!-- Node14&#45;&gt;Node18 -->
<g id="edge17" class="edge">
<title>Node14&#45;&gt;Node18</title>
<path fill="none" stroke="#63b8ff" d="M724.2,-113.53C735.3,-104.76 748.96,-93.96 759.73,-85.44"/>
<polygon fill="#63b8ff" stroke="#63b8ff" points="722.1,-110.73 716.43,-119.68 726.44,-116.22 722.1,-110.73"/>
</g>
<!-- Node19 -->
<g id="node19" class="node">
<title>Node19</title>
<g id="a_node19"><a xlink:href="signalk__delta__queue_8cpp.html" target="_top" xlink:title=" ">
<polygon fill="white" stroke="#666666" points="974.5,-85 847.5,-85 847.5,-55 974.5,-55 974.5,-85"/>
<text text-anchor="start" x="855.5" y="-73" font-family="Helvetica,sans-Serif" font-size="10.00">src/sensesp/signalk</text>
<text text-anchor="middle" x="911" y="-62" font-family="Helvetica,sans-Serif" font-size="10.00">/signalk_delta_queue.cpp</text>
</a>
</g>
</g>
<!-- Node14&#45;&gt;Node19 -->
<g id="edge18" class="edge">
<title>Node14&#45;&gt;Node19</title>
<path fill="none" stroke="#63b8ff" d="M746.5,-117.49C779.38,-108.2 825.03,-95.29 859.91,-85.44"/>
<polygon fill="#63b8ff" stroke="#63b8ff" points="745.57,-114.12 736.9,-120.2 747.47,-120.85 745.57,-114.12"/>
</g>
<!-- Node20 -->
<g id="node20" class="node">
<title>Node20</title>
<g id="a_node20"><a xlink:href="signalk__put__request_8cpp.html" target="_top" xlink:title=" ">
<polygon fill="white" stroke="#666666" points="1117.5,-85 992.5,-85 992.5,-55 1117.5,-55 1117.5,-85"/>
<text text-anchor="start" x="1000.5" y="-73" font-family="Helvetica,sans-Serif" font-size="10.00">src/sensesp/signalk</text>
<text text-anchor="middle" x="1055" y="-62" font-family="Helvetica,sans-Serif" font-size="10.00">/signalk_put_request.cpp</text>
</a>
</g>
</g>
<!-- Node14&#45;&gt;Node20 -->
<g id="edge19" class="edge">
<title>Node14&#45;&gt;Node20</title>
<path fill="none" stroke="#63b8ff" d="M765.24,-120.34C821.83,-111.74 908.22,-98.23 983,-85 986.01,-84.47 989.09,-83.91 992.19,-83.34"/>
<polygon fill="#63b8ff" stroke="#63b8ff" points="764.84,-116.86 755.48,-121.82 765.89,-123.78 764.84,-116.86"/>
</g>
<!-- Node21 -->
<g id="node21" class="node">
<title>Node21</title>
<g id="a_node21"><a xlink:href="led__blinker_8cpp.html" target="_top" xlink:title=" ">
<polygon fill="white" stroke="#666666" points="1240.5,-85 1135.5,-85 1135.5,-55 1240.5,-55 1240.5,-85"/>
<text text-anchor="start" x="1143.5" y="-73" font-family="Helvetica,sans-Serif" font-size="10.00">src/sensesp/system</text>
<text text-anchor="middle" x="1188" y="-62" font-family="Helvetica,sans-Serif" font-size="10.00">/led_blinker.cpp</text>
</a>
</g>
</g>
<!-- Node14&#45;&gt;Node21 -->
<g id="edge21" class="edge">
<title>Node14&#45;&gt;Node21</title>
<path fill="none" stroke="#63b8ff" d="M765.36,-125.29C847.76,-119.13 998.57,-106.03 1126,-85 1129.05,-84.5 1132.17,-83.94 1135.32,-83.34"/>
<polygon fill="#63b8ff" stroke="#63b8ff" points="765.18,-121.8 755.46,-126.02 765.69,-128.78 765.18,-121.8"/>
</g>
<!-- Node23&#45;&gt;Node7 -->
<g id="edge28" class="edge">
<title>Node23&#45;&gt;Node7</title>
<path fill="none" stroke="#63b8ff" d="M1202.25,-296.51C1205.44,-280.46 1210.54,-259.53 1218,-242 1246.5,-174.97 1299.33,-103.98 1318.13,-79.71"/>
<polygon fill="#63b8ff" stroke="#63b8ff" points="1198.83,-295.74 1200.45,-306.21 1205.72,-297.01 1198.83,-295.74"/>
</g>
<!-- Node24 -->
<g id="node24" class="node">
<title>Node24</title>
<g id="a_node24"><a xlink:href="sensesp__minimal__app__builder_8h.html" target="_top" xlink:title=" ">
<polygon fill="white" stroke="#666666" points="1335.5,-272 1226.5,-272 1226.5,-242 1335.5,-242 1335.5,-272"/>
<text text-anchor="start" x="1234.5" y="-260" font-family="Helvetica,sans-Serif" font-size="10.00">src/sensesp_minimal</text>
<text text-anchor="middle" x="1281" y="-249" font-family="Helvetica,sans-Serif" font-size="10.00">_app_builder.h</text>
</a>
</g>
</g>
<!-- Node23&#45;&gt;Node24 -->
<g id="edge29" class="edge">
<title>Node23&#45;&gt;Node24</title>
<path fill="none" stroke="#63b8ff" d="M1225.27,-300.97C1237.42,-291.61 1251.42,-280.81 1262.34,-272.39"/>
<polygon fill="#63b8ff" stroke="#63b8ff" points="1223.4,-297.99 1217.62,-306.87 1227.68,-303.54 1223.4,-297.99"/>
</g>
<!-- Node25&#45;&gt;Node24 -->
<g id="edge32" class="edge">
<title>Node25&#45;&gt;Node24</title>
<path fill="none" stroke="#63b8ff" d="M1311.51,-298.68C1304.85,-289.79 1297.46,-279.95 1291.62,-272.16"/>
<polygon fill="#63b8ff" stroke="#63b8ff" points="1308.64,-300.69 1317.44,-306.59 1314.24,-296.49 1308.64,-300.69"/>
</g>
<!-- Node26 -->
<g id="node26" class="node">
<title>Node26</title>
<g id="a_node26"><a xlink:href="sensesp__minimal__app_8cpp.html" target="_top" xlink:title=" ">
<polygon fill="white" stroke="#666666" points="1462.5,-272 1353.5,-272 1353.5,-242 1462.5,-242 1462.5,-272"/>
<text text-anchor="start" x="1361.5" y="-260" font-family="Helvetica,sans-Serif" font-size="10.00">src/sensesp_minimal</text>
<text text-anchor="middle" x="1408" y="-249" font-family="Helvetica,sans-Serif" font-size="10.00">_app.cpp</text>
</a>
</g>
</g>
<!-- Node25&#45;&gt;Node26 -->
<g id="edge31" class="edge">
<title>Node25&#45;&gt;Node26</title>
<path fill="none" stroke="#63b8ff" d="M1355.29,-300.7C1366.78,-291.4 1379.94,-280.73 1390.24,-272.39"/>
<polygon fill="#63b8ff" stroke="#63b8ff" points="1353.28,-297.83 1347.71,-306.84 1357.68,-303.27 1353.28,-297.83"/>
</g>
</g>
</svg>
