<?xml version="1.0" encoding="UTF-8" standalone="no"?>
<!DOCTYPE svg PUBLIC "-//W3C//DTD SVG 1.1//EN"
 "http://www.w3.org/Graphics/SVG/1.1/DTD/svg11.dtd">
<!-- Generated by graphviz version 12.1.0 (20240811.2233)
 -->
<!-- Title: src/sensesp/net/web/autogen/frontend_files.h Pages: 1 -->
<svg width="1313pt" height="305pt"
 viewBox="0.00 0.00 1313.25 304.50" xmlns="http://www.w3.org/2000/svg" xmlns:xlink="http://www.w3.org/1999/xlink">
<g id="graph0" class="graph" transform="scale(1 1) rotate(0) translate(4 300.5)">
<title>src/sensesp/net/web/autogen/frontend_files.h</title>
<!-- Node1 -->
<g id="Node000001" class="node">
<title>Node1</title>
<g id="a_Node000001"><a xlink:title=" ">
<polygon fill="#999999" stroke="#666666" points="1223,-296.5 1099.75,-296.5 1099.75,-266 1223,-266 1223,-296.5"/>
<text text-anchor="start" x="1107.75" y="-283" font-family="Helvetica,sans-Serif" font-size="10.00">src/sensesp/net/web</text>
<text text-anchor="middle" x="1161.38" y="-271.75" font-family="Helvetica,sans-Serif" font-size="10.00">/autogen/frontend_files.h</text>
</a>
</g>
</g>
<!-- Node2 -->
<g id="Node000002" class="node">
<title>Node2</title>
<g id="a_Node000002"><a xlink:href="base__command__handler_8h.html" target="_top" xlink:title=" ">
<polygon fill="white" stroke="#666666" points="1063.5,-230 931.25,-230 931.25,-199.5 1063.5,-199.5 1063.5,-230"/>
<text text-anchor="start" x="939.25" y="-216.5" font-family="Helvetica,sans-Serif" font-size="10.00">src/sensesp/net/web</text>
<text text-anchor="middle" x="997.38" y="-205.25" font-family="Helvetica,sans-Serif" font-size="10.00">/base_command_handler.h</text>
</a>
</g>
</g>
<!-- Node1&#45;&gt;Node2 -->
<g id="edge1_Node000001_Node000002" class="edge">
<title>Node1&#45;&gt;Node2</title>
<g id="a_edge1_Node000001_Node000002"><a xlink:title=" ">
<path fill="none" stroke="#63b8ff" d="M1113.74,-261.51C1088.58,-251.62 1058.15,-239.65 1034.73,-230.44"/>
<polygon fill="#63b8ff" stroke="#63b8ff" points="1112.17,-264.66 1122.75,-265.06 1114.73,-258.14 1112.17,-264.66"/>
</a>
</g>
</g>
<!-- Node14 -->
<g id="Node000014" class="node">
<title>Node14</title>
<g id="a_Node000014"><a xlink:href="sensesp__app_8cpp.html" target="_top" xlink:title=" ">
<polygon fill="white" stroke="#666666" points="1281.88,-91.38 1172.88,-91.38 1172.88,-72.12 1281.88,-72.12 1281.88,-91.38"/>
<text text-anchor="middle" x="1227.38" y="-77.88" font-family="Helvetica,sans-Serif" font-size="10.00">src/sensesp_app.cpp</text>
</a>
</g>
</g>
<!-- Node1&#45;&gt;Node14 -->
<g id="edge18_Node000001_Node000014" class="edge">
<title>Node1&#45;&gt;Node14</title>
<g id="a_edge18_Node000001_Node000014"><a xlink:title=" ">
<path fill="none" stroke="#63b8ff" d="M1166.37,-254.62C1169.74,-238.61 1174.62,-217.66 1180.38,-199.5 1193.45,-158.26 1214.41,-110.97 1223.24,-91.66"/>
<polygon fill="#63b8ff" stroke="#63b8ff" points="1162.96,-253.8 1164.39,-264.29 1169.82,-255.2 1162.96,-253.8"/>
</a>
</g>
</g>
<!-- Node16 -->
<g id="Node000016" class="node">
<title>Node16</title>
<g id="a_Node000016"><a xlink:href="static__file__handler_8cpp.html" target="_top" xlink:title=" ">
<polygon fill="white" stroke="#666666" points="1305.25,-230 1189.5,-230 1189.5,-199.5 1305.25,-199.5 1305.25,-230"/>
<text text-anchor="start" x="1197.5" y="-216.5" font-family="Helvetica,sans-Serif" font-size="10.00">src/sensesp/net/web</text>
<text text-anchor="middle" x="1247.38" y="-205.25" font-family="Helvetica,sans-Serif" font-size="10.00">/static_file_handler.cpp</text>
</a>
</g>
</g>
<!-- Node1&#45;&gt;Node16 -->
<g id="edge17_Node000001_Node000016" class="edge">
<title>Node1&#45;&gt;Node16</title>
<g id="a_edge17_Node000001_Node000016"><a xlink:title=" ">
<path fill="none" stroke="#63b8ff" d="M1189.98,-258.79C1202.45,-249.44 1216.74,-238.73 1227.94,-230.33"/>
<polygon fill="#63b8ff" stroke="#63b8ff" points="1188,-255.91 1182.1,-264.71 1192.2,-261.51 1188,-255.91"/>
</a>
</g>
</g>
<!-- Node3 -->
<g id="Node000003" class="node">
<title>Node3</title>
<g id="a_Node000003"><a xlink:href="base__command__handler_8cpp.html" target="_top" xlink:title=" ">
<polygon fill="white" stroke="#666666" points="1068.75,-163.5 926,-163.5 926,-133 1068.75,-133 1068.75,-163.5"/>
<text text-anchor="start" x="934" y="-150" font-family="Helvetica,sans-Serif" font-size="10.00">src/sensesp/net/web</text>
<text text-anchor="middle" x="997.38" y="-138.75" font-family="Helvetica,sans-Serif" font-size="10.00">/base_command_handler.cpp</text>
</a>
</g>
</g>
<!-- Node2&#45;&gt;Node3 -->
<g id="edge2_Node000002_Node000003" class="edge">
<title>Node2&#45;&gt;Node3</title>
<g id="a_edge2_Node000002_Node000003"><a xlink:title=" ">
<path fill="none" stroke="#63b8ff" d="M997.38,-187.81C997.38,-179.64 997.38,-170.91 997.38,-163.83"/>
<polygon fill="#63b8ff" stroke="#63b8ff" points="993.88,-187.6 997.38,-197.6 1000.88,-187.6 993.88,-187.6"/>
</a>
</g>
</g>
<!-- Node4 -->
<g id="Node000004" class="node">
<title>Node4</title>
<g id="a_Node000004"><a xlink:href="sensesp__app_8h.html" target="_top" xlink:title=" ">
<polygon fill="white" stroke="#666666" points="776.62,-157.88 678.12,-157.88 678.12,-138.62 776.62,-138.62 776.62,-157.88"/>
<text text-anchor="middle" x="727.38" y="-144.38" font-family="Helvetica,sans-Serif" font-size="10.00">src/sensesp_app.h</text>
</a>
</g>
</g>
<!-- Node2&#45;&gt;Node4 -->
<g id="edge3_Node000002_Node000004" class="edge">
<title>Node2&#45;&gt;Node4</title>
<g id="a_edge3_Node000002_Node000004"><a xlink:title=" ">
<path fill="none" stroke="#63b8ff" d="M924.73,-196.4C873.38,-184.13 806.61,-168.18 765.39,-158.33"/>
<polygon fill="#63b8ff" stroke="#63b8ff" points="923.76,-199.76 934.3,-198.68 925.38,-192.95 923.76,-199.76"/>
</a>
</g>
</g>
<!-- Node5 -->
<g id="Node000005" class="node">
<title>Node5</title>
<g id="a_Node000005"><a xlink:href="main_8cpp.html" target="_top" xlink:title=" ">
<polygon fill="white" stroke="#666666" points="1133.5,-24.88 1061.25,-24.88 1061.25,-5.63 1133.5,-5.63 1133.5,-24.88"/>
<text text-anchor="middle" x="1097.38" y="-11.38" font-family="Helvetica,sans-Serif" font-size="10.00">src/main.cpp</text>
</a>
</g>
</g>
<!-- Node4&#45;&gt;Node5 -->
<g id="edge4_Node000004_Node000005" class="edge">
<title>Node4&#45;&gt;Node5</title>
<g id="a_edge4_Node000004_Node000005"><a xlink:title=" ">
<path fill="none" stroke="#63b8ff" d="M788.3,-141.67C897.06,-131.42 1114.35,-109.51 1125.38,-97 1144.02,-75.85 1119.57,-41.62 1105.72,-25.37"/>
<polygon fill="#63b8ff" stroke="#63b8ff" points="788,-138.19 778.37,-142.6 788.65,-145.16 788,-138.19"/>
</a>
</g>
</g>
<!-- Node6 -->
<g id="Node000006" class="node">
<title>Node6</title>
<g id="a_Node000006"><a xlink:href="networking_8cpp.html" target="_top" xlink:title=" ">
<polygon fill="white" stroke="#666666" points="154.75,-91.38 0,-91.38 0,-72.12 154.75,-72.12 154.75,-91.38"/>
<text text-anchor="middle" x="77.38" y="-77.88" font-family="Helvetica,sans-Serif" font-size="10.00">src/sensesp/net/networking.cpp</text>
</a>
</g>
</g>
<!-- Node4&#45;&gt;Node6 -->
<g id="edge5_Node000004_Node000006" class="edge">
<title>Node4&#45;&gt;Node6</title>
<g id="a_edge5_Node000004_Node000006"><a xlink:title=" ">
<path fill="none" stroke="#63b8ff" d="M666.36,-143.33C562.72,-136.33 345.78,-120.2 163.38,-97 151.97,-95.55 139.75,-93.7 128.21,-91.83"/>
<polygon fill="#63b8ff" stroke="#63b8ff" points="666.1,-146.82 676.32,-143.99 666.57,-139.83 666.1,-146.82"/>
</a>
</g>
</g>
<!-- Node7 -->
<g id="Node000007" class="node">
<title>Node7</title>
<g id="a_Node000007"><a xlink:href="app__command__handler_8h.html" target="_top" xlink:title=" ">
<polygon fill="white" stroke="#666666" points="299.88,-97 172.88,-97 172.88,-66.5 299.88,-66.5 299.88,-97"/>
<text text-anchor="start" x="180.88" y="-83.5" font-family="Helvetica,sans-Serif" font-size="10.00">src/sensesp/net/web</text>
<text text-anchor="middle" x="236.38" y="-72.25" font-family="Helvetica,sans-Serif" font-size="10.00">/app_command_handler.h</text>
</a>
</g>
</g>
<!-- Node4&#45;&gt;Node7 -->
<g id="edge6_Node000004_Node000007" class="edge">
<title>Node4&#45;&gt;Node7</title>
<g id="a_edge6_Node000004_Node000007"><a xlink:title=" ">
<path fill="none" stroke="#63b8ff" d="M666.61,-141.95C583.53,-133.92 430.34,-117.45 300.77,-97.06"/>
<polygon fill="#63b8ff" stroke="#63b8ff" points="666.07,-145.41 676.35,-142.88 666.73,-138.44 666.07,-145.41"/>
</a>
</g>
</g>
<!-- Node9 -->
<g id="Node000009" class="node">
<title>Node9</title>
<g id="a_Node000009"><a xlink:href="signalk__delta__queue_8cpp.html" target="_top" xlink:title=" ">
<polygon fill="white" stroke="#666666" points="444.5,-97 318.25,-97 318.25,-66.5 444.5,-66.5 444.5,-97"/>
<text text-anchor="start" x="326.25" y="-83.5" font-family="Helvetica,sans-Serif" font-size="10.00">src/sensesp/signalk</text>
<text text-anchor="middle" x="381.38" y="-72.25" font-family="Helvetica,sans-Serif" font-size="10.00">/signalk_delta_queue.cpp</text>
</a>
</g>
</g>
<!-- Node4&#45;&gt;Node9 -->
<g id="edge9_Node000004_Node000009" class="edge">
<title>Node4&#45;&gt;Node9</title>
<g id="a_edge9_Node000004_Node000009"><a xlink:title=" ">
<path fill="none" stroke="#63b8ff" d="M667.01,-136.33C611.67,-126.28 527.46,-110.86 454.38,-97 451.2,-96.4 447.95,-95.78 444.68,-95.15"/>
<polygon fill="#63b8ff" stroke="#63b8ff" points="666.07,-139.72 676.54,-138.06 667.32,-132.83 666.07,-139.72"/>
</a>
</g>
</g>
<!-- Node10 -->
<g id="Node000010" class="node">
<title>Node10</title>
<g id="a_Node000010"><a xlink:href="signalk__put__request_8cpp.html" target="_top" xlink:title=" ">
<polygon fill="white" stroke="#666666" points="587.75,-97 463,-97 463,-66.5 587.75,-66.5 587.75,-97"/>
<text text-anchor="start" x="471" y="-83.5" font-family="Helvetica,sans-Serif" font-size="10.00">src/sensesp/signalk</text>
<text text-anchor="middle" x="525.38" y="-72.25" font-family="Helvetica,sans-Serif" font-size="10.00">/signalk_put_request.cpp</text>
</a>
</g>
</g>
<!-- Node4&#45;&gt;Node10 -->
<g id="edge10_Node000004_Node000010" class="edge">
<title>Node4&#45;&gt;Node10</title>
<g id="a_edge10_Node000004_Node000010"><a xlink:title=" ">
<path fill="none" stroke="#63b8ff" d="M688.11,-134.71C654.64,-124.03 606.49,-108.65 571.25,-97.4"/>
<polygon fill="#63b8ff" stroke="#63b8ff" points="686.83,-137.98 697.42,-137.69 688.96,-131.31 686.83,-137.98"/>
</a>
</g>
</g>
<!-- Node11 -->
<g id="Node000011" class="node">
<title>Node11</title>
<g id="a_Node000011"><a xlink:href="signalk__ws__client_8cpp.html" target="_top" xlink:title=" ">
<polygon fill="white" stroke="#666666" points="720.88,-97 605.88,-97 605.88,-66.5 720.88,-66.5 720.88,-97"/>
<text text-anchor="start" x="613.88" y="-83.5" font-family="Helvetica,sans-Serif" font-size="10.00">src/sensesp/signalk</text>
<text text-anchor="middle" x="663.38" y="-72.25" font-family="Helvetica,sans-Serif" font-size="10.00">/signalk_ws_client.cpp</text>
</a>
</g>
</g>
<!-- Node4&#45;&gt;Node11 -->
<g id="edge11_Node000004_Node000011" class="edge">
<title>Node4&#45;&gt;Node11</title>
<g id="a_edge11_Node000004_Node000011"><a xlink:title=" ">
<path fill="none" stroke="#63b8ff" d="M710.63,-130.37C700.37,-120.03 687.37,-106.93 677.61,-97.09"/>
<polygon fill="#63b8ff" stroke="#63b8ff" points="707.88,-132.57 717.41,-137.21 712.85,-127.64 707.88,-132.57"/>
</a>
</g>
</g>
<!-- Node12 -->
<g id="Node000012" class="node">
<title>Node12</title>
<g id="a_Node000012"><a xlink:href="button_8cpp.html" target="_top" xlink:title=" ">
<polygon fill="white" stroke="#666666" points="843.62,-97 739.12,-97 739.12,-66.5 843.62,-66.5 843.62,-97"/>
<text text-anchor="start" x="747.12" y="-83.5" font-family="Helvetica,sans-Serif" font-size="10.00">src/sensesp/system</text>
<text text-anchor="middle" x="791.38" y="-72.25" font-family="Helvetica,sans-Serif" font-size="10.00">/button.cpp</text>
</a>
</g>
</g>
<!-- Node4&#45;&gt;Node12 -->
<g id="edge12_Node000004_Node000012" class="edge">
<title>Node4&#45;&gt;Node12</title>
<g id="a_edge12_Node000004_Node000012"><a xlink:title=" ">
<path fill="none" stroke="#63b8ff" d="M744.12,-130.37C754.38,-120.03 767.38,-106.93 777.14,-97.09"/>
<polygon fill="#63b8ff" stroke="#63b8ff" points="741.9,-127.64 737.34,-137.21 746.87,-132.57 741.9,-127.64"/>
</a>
</g>
</g>
<!-- Node13 -->
<g id="Node000013" class="node">
<title>Node13</title>
<g id="a_Node000013"><a xlink:href="led__blinker_8cpp.html" target="_top" xlink:title=" ">
<polygon fill="white" stroke="#666666" points="966.62,-97 862.12,-97 862.12,-66.5 966.62,-66.5 966.62,-97"/>
<text text-anchor="start" x="870.12" y="-83.5" font-family="Helvetica,sans-Serif" font-size="10.00">src/sensesp/system</text>
<text text-anchor="middle" x="914.38" y="-72.25" font-family="Helvetica,sans-Serif" font-size="10.00">/led_blinker.cpp</text>
</a>
</g>
</g>
<!-- Node4&#45;&gt;Node13 -->
<g id="edge13_Node000004_Node000013" class="edge">
<title>Node4&#45;&gt;Node13</title>
<g id="a_edge13_Node000004_Node000013"><a xlink:title=" ">
<path fill="none" stroke="#63b8ff" d="M764.53,-134.43C795.48,-123.76 839.56,-108.55 871.9,-97.4"/>
<polygon fill="#63b8ff" stroke="#63b8ff" points="763.51,-131.08 755.2,-137.65 765.8,-137.7 763.51,-131.08"/>
</a>
</g>
</g>
<!-- Node4&#45;&gt;Node14 -->
<g id="edge14_Node000004_Node000014" class="edge">
<title>Node4&#45;&gt;Node14</title>
<g id="a_edge14_Node000004_Node000014"><a xlink:title=" ">
<path fill="none" stroke="#63b8ff" d="M788.35,-141.84C872.06,-134.02 1027.14,-118.16 1158.38,-97 1167.43,-95.54 1177.1,-93.71 1186.25,-91.86"/>
<polygon fill="#63b8ff" stroke="#63b8ff" points="788.16,-138.34 778.53,-142.75 788.81,-145.31 788.16,-138.34"/>
</a>
</g>
</g>
<!-- Node15 -->
<g id="Node000015" class="node">
<title>Node15</title>
<g id="a_Node000015"><a xlink:href="sensesp__app__builder_8h.html" target="_top" xlink:title=" ">
<polygon fill="white" stroke="#666666" points="1116.12,-91.38 984.62,-91.38 984.62,-72.12 1116.12,-72.12 1116.12,-91.38"/>
<text text-anchor="middle" x="1050.38" y="-77.88" font-family="Helvetica,sans-Serif" font-size="10.00">src/sensesp_app_builder.h</text>
</a>
</g>
</g>
<!-- Node4&#45;&gt;Node15 -->
<g id="edge15_Node000004_Node000015" class="edge">
<title>Node4&#45;&gt;Node15</title>
<g id="a_edge15_Node000004_Node000015"><a xlink:title=" ">
<path fill="none" stroke="#63b8ff" d="M784.24,-135.89C847.03,-123.36 946.87,-103.42 1004.75,-91.86"/>
<polygon fill="#63b8ff" stroke="#63b8ff" points="783.57,-132.46 774.45,-137.85 784.94,-139.32 783.57,-132.46"/>
</a>
</g>
</g>
<!-- Node7&#45;&gt;Node4 -->
<g id="edge8_Node000007_Node000004" class="edge">
<title>Node7&#45;&gt;Node4</title>
<g id="a_edge8_Node000007_Node000004"><a xlink:title=" ">
<path fill="none" stroke="#63b8ff" d="M311.4,-95.86C313.75,-96.26 316.08,-96.64 318.38,-97 447.62,-117.35 600.48,-133.81 677.68,-141.87"/>
<polygon fill="#63b8ff" stroke="#63b8ff" points="312.2,-92.45 301.74,-94.18 310.99,-99.35 312.2,-92.45"/>
</a>
</g>
</g>
<!-- Node8 -->
<g id="Node000008" class="node">
<title>Node8</title>
<g id="a_Node000008"><a xlink:href="app__command__handler_8cpp.html" target="_top" xlink:title=" ">
<polygon fill="white" stroke="#666666" points="305.12,-30.5 167.62,-30.5 167.62,0 305.12,0 305.12,-30.5"/>
<text text-anchor="start" x="175.62" y="-17" font-family="Helvetica,sans-Serif" font-size="10.00">src/sensesp/net/web</text>
<text text-anchor="middle" x="236.38" y="-5.75" font-family="Helvetica,sans-Serif" font-size="10.00">/app_command_handler.cpp</text>
</a>
</g>
</g>
<!-- Node7&#45;&gt;Node8 -->
<g id="edge7_Node000007_Node000008" class="edge">
<title>Node7&#45;&gt;Node8</title>
<g id="a_edge7_Node000007_Node000008"><a xlink:title=" ">
<path fill="none" stroke="#63b8ff" d="M236.38,-54.81C236.38,-46.64 236.38,-37.91 236.38,-30.83"/>
<polygon fill="#63b8ff" stroke="#63b8ff" points="232.88,-54.6 236.38,-64.6 239.88,-54.6 232.88,-54.6"/>
</a>
</g>
</g>
<!-- Node15&#45;&gt;Node5 -->
<g id="edge16_Node000015_Node000005" class="edge">
<title>Node15&#45;&gt;Node5</title>
<g id="a_edge16_Node000015_Node000005"><a xlink:title=" ">
<path fill="none" stroke="#63b8ff" d="M1063.67,-62.5C1072.57,-50.29 1083.9,-34.74 1090.9,-25.14"/>
<polygon fill="#63b8ff" stroke="#63b8ff" points="1060.86,-60.42 1057.8,-70.56 1066.52,-64.54 1060.86,-60.42"/>
</a>
</g>
</g>
</g>
</svg>
