<?xml version="1.0" encoding="UTF-8" standalone="no"?>
<!DOCTYPE svg PUBLIC "-//W3C//DTD SVG 1.1//EN"
 "http://www.w3.org/Graphics/SVG/1.1/DTD/svg11.dtd">
<!-- Generated by graphviz version 7.1.0 (20230121.1956)
 -->
<!-- Title: src/sensesp/system/hash.cpp Pages: 1 -->
<svg width="538pt" height="269pt"
 viewBox="0.00 0.00 537.50 269.00" xmlns="http://www.w3.org/2000/svg" xmlns:xlink="http://www.w3.org/1999/xlink">
<g id="graph0" class="graph" transform="scale(1 1) rotate(0) translate(4 265)">
<title>src/sensesp/system/hash.cpp</title>
<!-- Node1 -->
<g id="node1" class="node">
<title>Node1</title>
<g id="a_node1"><a xlink:title=" ">
<polygon fill="#999999" stroke="#666666" points="271.5,-261 166.5,-261 166.5,-231 271.5,-231 271.5,-261"/>
<text text-anchor="start" x="174.5" y="-249" font-family="Helvetica,sans-Serif" font-size="10.00">src/sensesp/system</text>
<text text-anchor="middle" x="219" y="-238" font-family="Helvetica,sans-Serif" font-size="10.00">/hash.cpp</text>
</a>
</g>
</g>
<!-- Node2 -->
<g id="node2" class="node">
<title>Node2</title>
<g id="a_node2"><a xlink:href="hash_8h.html" target="_top" xlink:title=" ">
<polygon fill="white" stroke="#666666" points="112,-195 66,-195 66,-176 112,-176 112,-195"/>
<text text-anchor="middle" x="89" y="-183" font-family="Helvetica,sans-Serif" font-size="10.00">hash.h</text>
</a>
</g>
</g>
<!-- Node1&#45;&gt;Node2 -->
<g id="edge1" class="edge">
<title>Node1&#45;&gt;Node2</title>
<path fill="none" stroke="#63b8ff" d="M186.87,-230.54C166.09,-221.19 139.23,-209.1 118.91,-199.96"/>
<polygon fill="#63b8ff" stroke="#63b8ff" points="120.59,-196.88 110.04,-195.97 117.72,-203.26 120.59,-196.88"/>
</g>
<!-- Node8 -->
<g id="node8" class="node">
<title>Node8</title>
<g id="a_node8"><a xlink:title=" ">
<polygon fill="#e0e0e0" stroke="#999999" points="206,-195 130,-195 130,-176 206,-176 206,-195"/>
<text text-anchor="middle" x="168" y="-183" font-family="Helvetica,sans-Serif" font-size="10.00">mbedtls/md.h</text>
</a>
</g>
</g>
<!-- Node1&#45;&gt;Node8 -->
<g id="edge7" class="edge">
<title>Node1&#45;&gt;Node8</title>
<path fill="none" stroke="#63b8ff" d="M206.39,-230.54C199.29,-222.39 190.37,-212.16 182.92,-203.61"/>
<polygon fill="#63b8ff" stroke="#63b8ff" points="185.77,-201.55 176.56,-196.32 180.49,-206.15 185.77,-201.55"/>
</g>
<!-- Node9 -->
<g id="node9" class="node">
<title>Node9</title>
<g id="a_node9"><a xlink:title=" ">
<polygon fill="#e0e0e0" stroke="#999999" points="318,-195 224,-195 224,-176 318,-176 318,-195"/>
<text text-anchor="middle" x="271" y="-183" font-family="Helvetica,sans-Serif" font-size="10.00">mbedtls/base64.h</text>
</a>
</g>
</g>
<!-- Node1&#45;&gt;Node9 -->
<g id="edge8" class="edge">
<title>Node1&#45;&gt;Node9</title>
<path fill="none" stroke="#63b8ff" d="M231.85,-230.54C239.1,-222.39 248.19,-212.16 255.79,-203.61"/>
<polygon fill="#63b8ff" stroke="#63b8ff" points="258.26,-206.11 262.28,-196.31 253.02,-201.46 258.26,-206.11"/>
</g>
<!-- Node10 -->
<g id="node10" class="node">
<title>Node10</title>
<g id="a_node10"><a xlink:href="debug__output_8h.html" target="_top" xlink:title=" ">
<polygon fill="white" stroke="#666666" points="476,-195 336,-195 336,-176 476,-176 476,-195"/>
<text text-anchor="middle" x="406" y="-183" font-family="Helvetica,sans-Serif" font-size="10.00">sensesp/net/debug_output.h</text>
</a>
</g>
</g>
<!-- Node1&#45;&gt;Node10 -->
<g id="edge9" class="edge">
<title>Node1&#45;&gt;Node10</title>
<path fill="none" stroke="#63b8ff" d="M265.22,-230.54C296.39,-220.79 337.07,-208.06 366.68,-198.8"/>
<polygon fill="#63b8ff" stroke="#63b8ff" points="367.5,-202.21 376,-195.88 365.41,-195.53 367.5,-202.21"/>
</g>
<!-- Node3 -->
<g id="node3" class="node">
<title>Node3</title>
<g id="a_node3"><a xlink:href="sensesp_8h.html" target="_top" xlink:title=" ">
<polygon fill="white" stroke="#666666" points="120,-140 58,-140 58,-121 120,-121 120,-140"/>
<text text-anchor="middle" x="89" y="-128" font-family="Helvetica,sans-Serif" font-size="10.00">sensesp.h</text>
</a>
</g>
</g>
<!-- Node2&#45;&gt;Node3 -->
<g id="edge2" class="edge">
<title>Node2&#45;&gt;Node3</title>
<path fill="none" stroke="#63b8ff" d="M89,-175.75C89,-169.27 89,-160.16 89,-151.9"/>
<polygon fill="#63b8ff" stroke="#63b8ff" points="92.5,-151.96 89,-141.96 85.5,-151.96 92.5,-151.96"/>
</g>
<!-- Node4 -->
<g id="node4" class="node">
<title>Node4</title>
<g id="a_node4"><a xlink:title=" ">
<polygon fill="#e0e0e0" stroke="#999999" points="70,-79.5 0,-79.5 0,-60.5 70,-60.5 70,-79.5"/>
<text text-anchor="middle" x="35" y="-67.5" font-family="Helvetica,sans-Serif" font-size="10.00">ReactESP.h</text>
</a>
</g>
</g>
<!-- Node3&#45;&gt;Node4 -->
<g id="edge3" class="edge">
<title>Node3&#45;&gt;Node4</title>
<path fill="none" stroke="#63b8ff" d="M81.03,-120.87C73.06,-112.23 60.57,-98.7 50.61,-87.92"/>
<polygon fill="#63b8ff" stroke="#63b8ff" points="53.38,-85.75 44.03,-80.78 48.24,-90.5 53.38,-85.75"/>
</g>
<!-- Node5 -->
<g id="node5" class="node">
<title>Node5</title>
<g id="a_node5"><a xlink:href="local__debug_8h.html" target="_top" xlink:title=" ">
<polygon fill="white" stroke="#666666" points="200,-85 88,-85 88,-55 200,-55 200,-85"/>
<text text-anchor="start" x="96" y="-73" font-family="Helvetica,sans-Serif" font-size="10.00">sensesp/system/local</text>
<text text-anchor="middle" x="144" y="-62" font-family="Helvetica,sans-Serif" font-size="10.00">_debug.h</text>
</a>
</g>
</g>
<!-- Node3&#45;&gt;Node5 -->
<g id="edge4" class="edge">
<title>Node3&#45;&gt;Node5</title>
<path fill="none" stroke="#63b8ff" d="M97.12,-120.87C103.89,-113.67 113.85,-103.07 122.85,-93.49"/>
<polygon fill="#63b8ff" stroke="#63b8ff" points="125.39,-95.9 129.69,-86.22 120.29,-91.11 125.39,-95.9"/>
</g>
<!-- Node6 -->
<g id="node6" class="node">
<title>Node6</title>
<g id="a_node6"><a xlink:title=" ">
<polygon fill="#e0e0e0" stroke="#999999" points="138,-19 80,-19 80,0 138,0 138,-19"/>
<text text-anchor="middle" x="109" y="-7" font-family="Helvetica,sans-Serif" font-size="10.00">Arduino.h</text>
</a>
</g>
</g>
<!-- Node5&#45;&gt;Node6 -->
<g id="edge5" class="edge">
<title>Node5&#45;&gt;Node6</title>
<path fill="none" stroke="#63b8ff" d="M135.35,-54.54C130.73,-46.82 125,-37.24 120.06,-28.99"/>
<polygon fill="#63b8ff" stroke="#63b8ff" points="123.11,-27.26 114.97,-20.47 117.1,-30.85 123.11,-27.26"/>
</g>
<!-- Node7 -->
<g id="node7" class="node">
<title>Node7</title>
<g id="a_node7"><a xlink:title=" ">
<polygon fill="#e0e0e0" stroke="#999999" points="201.5,-19 156.5,-19 156.5,0 201.5,0 201.5,-19"/>
<text text-anchor="middle" x="179" y="-7" font-family="Helvetica,sans-Serif" font-size="10.00">Print.h</text>
</a>
</g>
</g>
<!-- Node5&#45;&gt;Node7 -->
<g id="edge6" class="edge">
<title>Node5&#45;&gt;Node7</title>
<path fill="none" stroke="#63b8ff" d="M152.65,-54.54C157.27,-46.82 163,-37.24 167.94,-28.99"/>
<polygon fill="#63b8ff" stroke="#63b8ff" points="170.9,-30.85 173.03,-20.47 164.89,-27.26 170.9,-30.85"/>
</g>
<!-- Node11 -->
<g id="node11" class="node">
<title>Node11</title>
<g id="a_node11"><a xlink:title=" ">
<polygon fill="#e0e0e0" stroke="#999999" points="374,-140 328,-140 328,-121 374,-121 374,-140"/>
<text text-anchor="middle" x="351" y="-128" font-family="Helvetica,sans-Serif" font-size="10.00">cstdint</text>
</a>
</g>
</g>
<!-- Node10&#45;&gt;Node11 -->
<g id="edge10" class="edge">
<title>Node10&#45;&gt;Node11</title>
<path fill="none" stroke="#63b8ff" d="M396.92,-175.75C389.16,-168.27 377.79,-157.32 368.3,-148.17"/>
<polygon fill="#63b8ff" stroke="#63b8ff" points="371,-145.91 361.37,-141.49 366.14,-150.95 371,-145.91"/>
</g>
<!-- Node12 -->
<g id="node12" class="node">
<title>Node12</title>
<g id="a_node12"><a xlink:href="startable_8h.html" target="_top" xlink:title=" ">
<polygon fill="white" stroke="#666666" points="529.5,-140 392.5,-140 392.5,-121 529.5,-121 529.5,-140"/>
<text text-anchor="middle" x="461" y="-128" font-family="Helvetica,sans-Serif" font-size="10.00">sensesp/system/startable.h</text>
</a>
</g>
</g>
<!-- Node10&#45;&gt;Node12 -->
<g id="edge11" class="edge">
<title>Node10&#45;&gt;Node12</title>
<path fill="none" stroke="#63b8ff" d="M415.08,-175.75C422.84,-168.27 434.21,-157.32 443.7,-148.17"/>
<polygon fill="#63b8ff" stroke="#63b8ff" points="445.86,-150.95 450.63,-141.49 441,-145.91 445.86,-150.95"/>
</g>
<!-- Node13 -->
<g id="node13" class="node">
<title>Node13</title>
<g id="a_node13"><a xlink:title=" ">
<polygon fill="#e0e0e0" stroke="#999999" points="482.5,-79.5 439.5,-79.5 439.5,-60.5 482.5,-60.5 482.5,-79.5"/>
<text text-anchor="middle" x="461" y="-67.5" font-family="Helvetica,sans-Serif" font-size="10.00">queue</text>
</a>
</g>
</g>
<!-- Node12&#45;&gt;Node13 -->
<g id="edge12" class="edge">
<title>Node12&#45;&gt;Node13</title>
<path fill="none" stroke="#63b8ff" d="M461,-120.87C461,-113 461,-101.1 461,-90.89"/>
<polygon fill="#63b8ff" stroke="#63b8ff" points="464.5,-91.18 461,-81.18 457.5,-91.18 464.5,-91.18"/>
</g>
</g>
</svg>
