<?xml version="1.0" encoding="UTF-8" standalone="no"?>
<!DOCTYPE svg PUBLIC "-//W3C//DTD SVG 1.1//EN"
 "http://www.w3.org/Graphics/SVG/1.1/DTD/svg11.dtd">
<!-- Generated by graphviz version 13.0.0 (20250608.1624)
 -->
<!-- Title: src/sensesp/system/hash.h Pages: 1 -->
<!--zoomable 426 -->

<svg id="main" version="1.1" xmlns="http://www.w3.org/2000/svg" xmlns:xlink="http://www.w3.org/1999/xlink" xml:space="preserve" onload="init(evt)">

<style type="text/css"><![CDATA[
.node, .edge {opacity: 0.7;}
.node.selected, .edge.selected {opacity: 1;}
.edge:hover path { stroke: red; }
.edge:hover polygon { stroke: red; fill: red; }
]]></style>

<defs>
  <circle id="rim" cx="0" cy="0" r="7"/>
  <circle id="rim2" cx="0" cy="0" r="3.5"/>
  <g id="zoomPlus">
    <use xlink:href="#rim" fill="#404040"><set attributeName="fill" to="#808080" begin="zoomplus.mouseover" end="zoomplus.mouseout"/></use>
    <path d="M-4,0h8M0,-4v8" fill="none" stroke="white" stroke-width="1.5" pointer-events="none"/>
  </g>
  <g id="zoomMin">
    <use xlink:href="#rim" fill="#404040"><set attributeName="fill" to="#808080" begin="zoomminus.mouseover" end="zoomminus.mouseout"/></use>
    <path d="M-4,0h8" fill="none" stroke="white" stroke-width="1.5" pointer-events="none"/>
  </g>
  <g id="arrowUp" transform="translate(30 24)">
    <use xlink:href="#rim"/>
    <path pointer-events="none" fill="none" stroke="white" stroke-width="1.5" d="M0,-3.0v7 M-2.5,-0.5L0,-3.0L2.5,-0.5"/>
  </g>
  <g id="arrowRight" transform="rotate(90) translate(36 -43)">
    <use xlink:href="#rim"/>
    <path pointer-events="none" fill="none" stroke="white" stroke-width="1.5" d="M0,-3.0v7 M-2.5,-0.5L0,-3.0L2.5,-0.5"/>
  </g>
  <g id="arrowDown" transform="rotate(180) translate(-30 -48)">
    <use xlink:href="#rim"/>
    <path pointer-events="none" fill="none" stroke="white" stroke-width="1.5" d="M0,-3.0v7 M-2.5,-0.5L0,-3.0L2.5,-0.5"/>
  </g>
  <g id="arrowLeft" transform="rotate(270) translate(-36 17)">
    <use xlink:href="#rim"/>
    <path pointer-events="none" fill="none" stroke="white" stroke-width="1.5" d="M0,-3.0v7 M-2.5,-0.5L0,-3.0L2.5,-0.5"/>
  </g>
  <g id="resetDef">
    <use xlink:href="#rim2" fill="#404040"><set attributeName="fill" to="#808080" begin="reset.mouseover" end="reset.mouseout"/></use>
  </g>
</defs>
<script type="application/ecmascript">
var viewWidth = 1138;
var viewHeight = 426;
var sectionId = 'dynsection-1';
</script>
<script type="application/ecmascript" xlink:href="svg.min.js"/>
<svg id="graph" class="graph">
<g id="viewport">
<title>src/sensesp/system/hash.h</title>
<!-- Node1 -->
<g id="Node000001" class="node">
<title>Node1</title>
<g id="a_Node000001"><a xlink:title=" ">
<polygon fill="#999999" stroke="#666666" points="532,-418.25 427.5,-418.25 427.5,-387.75 532,-387.75 532,-418.25"/>
<text xml:space="preserve" text-anchor="start" x="435.5" y="-404.75" font-family="Helvetica,sans-Serif" font-size="10.00">src/sensesp/system</text>
<text xml:space="preserve" text-anchor="middle" x="479.75" y="-393.5" font-family="Helvetica,sans-Serif" font-size="10.00">/hash.h</text>
</a>
</g>
</g>
<!-- Node2 -->
<g id="Node000002" class="node">
<title>Node2</title>
<g id="a_Node000002"><a xlink:href="http__authenticator_8h.html" target="_top" xlink:title=" ">
<polygon fill="white" stroke="#666666" points="409.38,-351.75 304.12,-351.75 304.12,-321.25 409.38,-321.25 409.38,-351.75"/>
<text xml:space="preserve" text-anchor="start" x="312.12" y="-338.25" font-family="Helvetica,sans-Serif" font-size="10.00">src/sensesp/net/http</text>
<text xml:space="preserve" text-anchor="middle" x="356.75" y="-327" font-family="Helvetica,sans-Serif" font-size="10.00">_authenticator.h</text>
</a>
</g>
</g>
<!-- Node1&#45;&gt;Node2 -->
<g id="edge1_Node000001_Node000002" class="edge">
<title>Node1&#45;&gt;Node2</title>
<g id="a_edge1_Node000001_Node000002"><a xlink:title=" ">
<path fill="none" stroke="#63b8ff" d="M441.69,-382.04C423.22,-372.36 401.43,-360.93 384.55,-352.08"/>
<polygon fill="#63b8ff" stroke="#63b8ff" points="440.02,-385.12 450.5,-386.66 443.27,-378.92 440.02,-385.12"/>
</a>
</g>
</g>
<!-- Node23 -->
<g id="Node000023" class="node">
<title>Node23</title>
<g id="a_Node000023"><a xlink:href="hash_8cpp.html" target="_top" xlink:title=" ">
<polygon fill="white" stroke="#666666" points="532,-351.75 427.5,-351.75 427.5,-321.25 532,-321.25 532,-351.75"/>
<text xml:space="preserve" text-anchor="start" x="435.5" y="-338.25" font-family="Helvetica,sans-Serif" font-size="10.00">src/sensesp/system</text>
<text xml:space="preserve" text-anchor="middle" x="479.75" y="-327" font-family="Helvetica,sans-Serif" font-size="10.00">/hash.cpp</text>
</a>
</g>
</g>
<!-- Node1&#45;&gt;Node23 -->
<g id="edge27_Node000001_Node000023" class="edge">
<title>Node1&#45;&gt;Node23</title>
<g id="a_edge27_Node000001_Node000023"><a xlink:title=" ">
<path fill="none" stroke="#63b8ff" d="M479.75,-376.06C479.75,-367.89 479.75,-359.16 479.75,-352.08"/>
<polygon fill="#63b8ff" stroke="#63b8ff" points="476.25,-375.85 479.75,-385.85 483.25,-375.85 476.25,-375.85"/>
</a>
</g>
</g>
<!-- Node24 -->
<g id="Node000024" class="node">
<title>Node24</title>
<g id="a_Node000024"><a xlink:href="saveable_8cpp.html" target="_top" xlink:title=" ">
<polygon fill="white" stroke="#666666" points="655,-351.75 550.5,-351.75 550.5,-321.25 655,-321.25 655,-351.75"/>
<text xml:space="preserve" text-anchor="start" x="558.5" y="-338.25" font-family="Helvetica,sans-Serif" font-size="10.00">src/sensesp/system</text>
<text xml:space="preserve" text-anchor="middle" x="602.75" y="-327" font-family="Helvetica,sans-Serif" font-size="10.00">/saveable.cpp</text>
</a>
</g>
</g>
<!-- Node1&#45;&gt;Node24 -->
<g id="edge28_Node000001_Node000024" class="edge">
<title>Node1&#45;&gt;Node24</title>
<g id="a_edge28_Node000001_Node000024"><a xlink:title=" ">
<path fill="none" stroke="#63b8ff" d="M517.81,-382.04C536.28,-372.36 558.07,-360.93 574.95,-352.08"/>
<polygon fill="#63b8ff" stroke="#63b8ff" points="516.23,-378.92 509,-386.66 519.48,-385.12 516.23,-378.92"/>
</a>
</g>
</g>
<!-- Node3 -->
<g id="Node000003" class="node">
<title>Node3</title>
<g id="a_Node000003"><a xlink:href="http__authenticator_8cpp.html" target="_top" xlink:title=" ">
<polygon fill="white" stroke="#666666" points="348.38,-285.25 243.12,-285.25 243.12,-254.75 348.38,-254.75 348.38,-285.25"/>
<text xml:space="preserve" text-anchor="start" x="251.12" y="-271.75" font-family="Helvetica,sans-Serif" font-size="10.00">src/sensesp/net/http</text>
<text xml:space="preserve" text-anchor="middle" x="295.75" y="-260.5" font-family="Helvetica,sans-Serif" font-size="10.00">_authenticator.cpp</text>
</a>
</g>
</g>
<!-- Node2&#45;&gt;Node3 -->
<g id="edge2_Node000002_Node000003" class="edge">
<title>Node2&#45;&gt;Node3</title>
<g id="a_edge2_Node000002_Node000003"><a xlink:title=" ">
<path fill="none" stroke="#63b8ff" d="M335.15,-312.66C326.63,-303.65 317.09,-293.57 309.54,-285.58"/>
<polygon fill="#63b8ff" stroke="#63b8ff" points="332.45,-314.9 341.87,-319.76 337.54,-310.09 332.45,-314.9"/>
</a>
</g>
</g>
<!-- Node4 -->
<g id="Node000004" class="node">
<title>Node4</title>
<g id="a_Node000004"><a xlink:href="http__server_8h.html" target="_top" xlink:title=" ">
<polygon fill="white" stroke="#666666" points="471.38,-285.25 366.12,-285.25 366.12,-254.75 471.38,-254.75 471.38,-285.25"/>
<text xml:space="preserve" text-anchor="start" x="374.12" y="-271.75" font-family="Helvetica,sans-Serif" font-size="10.00">src/sensesp/net/http</text>
<text xml:space="preserve" text-anchor="middle" x="418.75" y="-260.5" font-family="Helvetica,sans-Serif" font-size="10.00">_server.h</text>
</a>
</g>
</g>
<!-- Node2&#45;&gt;Node4 -->
<g id="edge3_Node000002_Node000004" class="edge">
<title>Node2&#45;&gt;Node4</title>
<g id="a_edge3_Node000002_Node000004"><a xlink:title=" ">
<path fill="none" stroke="#63b8ff" d="M378.71,-312.66C387.37,-303.65 397.06,-293.57 404.74,-285.58"/>
<polygon fill="#63b8ff" stroke="#63b8ff" points="376.27,-310.14 371.87,-319.77 381.32,-314.99 376.27,-310.14"/>
</a>
</g>
</g>
<!-- Node5 -->
<g id="Node000005" class="node">
<title>Node5</title>
<g id="a_Node000005"><a xlink:href="http__server_8cpp.html" target="_top" xlink:title=" ">
<polygon fill="white" stroke="#666666" points="142.38,-218.75 37.12,-218.75 37.12,-188.25 142.38,-188.25 142.38,-218.75"/>
<text xml:space="preserve" text-anchor="start" x="45.12" y="-205.25" font-family="Helvetica,sans-Serif" font-size="10.00">src/sensesp/net/http</text>
<text xml:space="preserve" text-anchor="middle" x="89.75" y="-194" font-family="Helvetica,sans-Serif" font-size="10.00">_server.cpp</text>
</a>
</g>
</g>
<!-- Node4&#45;&gt;Node5 -->
<g id="edge4_Node000004_Node000005" class="edge">
<title>Node4&#45;&gt;Node5</title>
<g id="a_edge4_Node000004_Node000005"><a xlink:title=" ">
<path fill="none" stroke="#63b8ff" d="M354.83,-254.22C264.32,-236.19 238.77,-236.67 150.75,-218.75 148.09,-218.21 145.36,-217.64 142.61,-217.04"/>
<polygon fill="#63b8ff" stroke="#63b8ff" points="353.91,-257.61 364.41,-256.16 355.3,-250.75 353.91,-257.61"/>
</a>
</g>
</g>
<!-- Node6 -->
<g id="Node000006" class="node">
<title>Node6</title>
<g id="a_Node000006"><a xlink:href="app__command__handler_8h.html" target="_top" xlink:title=" ">
<polygon fill="white" stroke="#666666" points="287.25,-218.75 160.25,-218.75 160.25,-188.25 287.25,-188.25 287.25,-218.75"/>
<text xml:space="preserve" text-anchor="start" x="168.25" y="-205.25" font-family="Helvetica,sans-Serif" font-size="10.00">src/sensesp/net/web</text>
<text xml:space="preserve" text-anchor="middle" x="223.75" y="-194" font-family="Helvetica,sans-Serif" font-size="10.00">/app_command_handler.h</text>
</a>
</g>
</g>
<!-- Node4&#45;&gt;Node6 -->
<g id="edge5_Node000004_Node000006" class="edge">
<title>Node4&#45;&gt;Node6</title>
<g id="a_edge5_Node000004_Node000006"><a xlink:title=" ">
<path fill="none" stroke="#63b8ff" d="M363.7,-250.79C333.49,-240.8 296.52,-228.57 268.16,-219.19"/>
<polygon fill="#63b8ff" stroke="#63b8ff" points="362.47,-254.07 373.06,-253.89 364.67,-247.43 362.47,-254.07"/>
</a>
</g>
</g>
<!-- Node8 -->
<g id="Node000008" class="node">
<title>Node8</title>
<g id="a_Node000008"><a xlink:href="sensesp__app_8h.html" target="_top" xlink:title=" ">
<polygon fill="white" stroke="#666666" points="515,-146.62 416.5,-146.62 416.5,-127.38 515,-127.38 515,-146.62"/>
<text xml:space="preserve" text-anchor="middle" x="465.75" y="-133.12" font-family="Helvetica,sans-Serif" font-size="10.00">src/sensesp_app.h</text>
</a>
</g>
</g>
<!-- Node4&#45;&gt;Node8 -->
<g id="edge26_Node000004_Node000008" class="edge">
<title>Node4&#45;&gt;Node8</title>
<g id="a_edge26_Node000004_Node000008"><a xlink:title=" ">
<path fill="none" stroke="#63b8ff" d="M434.04,-244.76C438.63,-236.71 443.34,-227.56 446.75,-218.75 456.53,-193.5 462.19,-161.79 464.51,-146.72"/>
<polygon fill="#63b8ff" stroke="#63b8ff" points="431.08,-242.89 428.98,-253.27 437.1,-246.47 431.08,-242.89"/>
</a>
</g>
</g>
<!-- Node17 -->
<g id="Node000017" class="node">
<title>Node17</title>
<g id="a_Node000017"><a xlink:href="base__command__handler_8h.html" target="_top" xlink:title=" ">
<polygon fill="white" stroke="#666666" points="437.88,-218.75 305.62,-218.75 305.62,-188.25 437.88,-188.25 437.88,-218.75"/>
<text xml:space="preserve" text-anchor="start" x="313.62" y="-205.25" font-family="Helvetica,sans-Serif" font-size="10.00">src/sensesp/net/web</text>
<text xml:space="preserve" text-anchor="middle" x="371.75" y="-194" font-family="Helvetica,sans-Serif" font-size="10.00">/base_command_handler.h</text>
</a>
</g>
</g>
<!-- Node4&#45;&gt;Node17 -->
<g id="edge17_Node000004_Node000017" class="edge">
<title>Node4&#45;&gt;Node17</title>
<g id="a_edge17_Node000004_Node000017"><a xlink:title=" ">
<path fill="none" stroke="#63b8ff" d="M401.49,-245.32C395.09,-236.53 388.01,-226.82 382.37,-219.08"/>
<polygon fill="#63b8ff" stroke="#63b8ff" points="398.48,-247.12 407.19,-253.14 404.13,-243 398.48,-247.12"/>
</a>
</g>
</g>
<!-- Node19 -->
<g id="Node000019" class="node">
<title>Node19</title>
<g id="a_Node000019"><a xlink:href="config__handler_8h.html" target="_top" xlink:title=" ">
<polygon fill="white" stroke="#666666" points="600.12,-218.75 493.38,-218.75 493.38,-188.25 600.12,-188.25 600.12,-218.75"/>
<text xml:space="preserve" text-anchor="start" x="501.38" y="-205.25" font-family="Helvetica,sans-Serif" font-size="10.00">src/sensesp/net/web</text>
<text xml:space="preserve" text-anchor="middle" x="546.75" y="-194" font-family="Helvetica,sans-Serif" font-size="10.00">/config_handler.h</text>
</a>
</g>
</g>
<!-- Node4&#45;&gt;Node19 -->
<g id="edge20_Node000004_Node000019" class="edge">
<title>Node4&#45;&gt;Node19</title>
<g id="a_edge20_Node000004_Node000019"><a xlink:title=" ">
<path fill="none" stroke="#63b8ff" d="M457.82,-249.31C477.15,-239.57 500.09,-228.01 517.82,-219.08"/>
<polygon fill="#63b8ff" stroke="#63b8ff" points="456.5,-246.06 449.15,-253.68 459.65,-252.31 456.5,-246.06"/>
</a>
</g>
</g>
<!-- Node21 -->
<g id="Node000021" class="node">
<title>Node21</title>
<g id="a_Node000021"><a xlink:href="static__file__handler_8h.html" target="_top" xlink:title=" ">
<polygon fill="white" stroke="#666666" points="725.12,-218.75 618.38,-218.75 618.38,-188.25 725.12,-188.25 725.12,-218.75"/>
<text xml:space="preserve" text-anchor="start" x="626.38" y="-205.25" font-family="Helvetica,sans-Serif" font-size="10.00">src/sensesp/net/web</text>
<text xml:space="preserve" text-anchor="middle" x="671.75" y="-194" font-family="Helvetica,sans-Serif" font-size="10.00">/static_file_handler.h</text>
</a>
</g>
</g>
<!-- Node4&#45;&gt;Node21 -->
<g id="edge23_Node000004_Node000021" class="edge">
<title>Node4&#45;&gt;Node21</title>
<g id="a_edge23_Node000004_Node000021"><a xlink:title=" ">
<path fill="none" stroke="#63b8ff" d="M482.94,-252.64C524.66,-242 578.43,-228.29 617.91,-218.23"/>
<polygon fill="#63b8ff" stroke="#63b8ff" points="482.08,-249.24 473.25,-255.1 483.81,-256.03 482.08,-249.24"/>
</a>
</g>
</g>
<!-- Node7 -->
<g id="Node000007" class="node">
<title>Node7</title>
<g id="a_Node000007"><a xlink:href="app__command__handler_8cpp.html" target="_top" xlink:title=" ">
<polygon fill="white" stroke="#666666" points="137.5,-85.75 0,-85.75 0,-55.25 137.5,-55.25 137.5,-85.75"/>
<text xml:space="preserve" text-anchor="start" x="8" y="-72.25" font-family="Helvetica,sans-Serif" font-size="10.00">src/sensesp/net/web</text>
<text xml:space="preserve" text-anchor="middle" x="68.75" y="-61" font-family="Helvetica,sans-Serif" font-size="10.00">/app_command_handler.cpp</text>
</a>
</g>
</g>
<!-- Node6&#45;&gt;Node7 -->
<g id="edge6_Node000006_Node000007" class="edge">
<title>Node6&#45;&gt;Node7</title>
<g id="a_edge6_Node000006_Node000007"><a xlink:title=" ">
<path fill="none" stroke="#63b8ff" d="M197.83,-180.59C166.08,-153.76 113.17,-109.04 86.01,-86.08"/>
<polygon fill="#63b8ff" stroke="#63b8ff" points="195.52,-183.22 205.41,-187 200.04,-177.87 195.52,-183.22"/>
</a>
</g>
</g>
<!-- Node6&#45;&gt;Node8 -->
<g id="edge7_Node000006_Node000008" class="edge">
<title>Node6&#45;&gt;Node8</title>
<g id="a_edge7_Node000006_Node000008"><a xlink:title=" ">
<path fill="none" stroke="#63b8ff" d="M290.02,-184.84C335.89,-172.61 395.04,-156.85 431.68,-147.08"/>
<polygon fill="#63b8ff" stroke="#63b8ff" points="289.19,-181.44 280.43,-187.39 290.99,-188.2 289.19,-181.44"/>
</a>
</g>
</g>
<!-- Node8&#45;&gt;Node7 -->
<g id="edge9_Node000008_Node000007" class="edge">
<title>Node8&#45;&gt;Node7</title>
<g id="a_edge9_Node000008_Node000007"><a xlink:title=" ">
<path fill="none" stroke="#63b8ff" d="M419.42,-124.35C415.15,-123.41 410.88,-122.53 406.75,-121.75 291.69,-99.98 261.35,-104.41 145.75,-85.75 143.2,-85.34 140.6,-84.91 137.98,-84.47"/>
<polygon fill="#63b8ff" stroke="#63b8ff" points="418.62,-127.76 429.14,-126.57 420.18,-120.93 418.62,-127.76"/>
</a>
</g>
</g>
<!-- Node9 -->
<g id="Node000009" class="node">
<title>Node9</title>
<g id="a_Node000009"><a xlink:href="networking_8cpp.html" target="_top" xlink:title=" ">
<polygon fill="white" stroke="#666666" points="842.12,-80.12 687.38,-80.12 687.38,-60.88 842.12,-60.88 842.12,-80.12"/>
<text xml:space="preserve" text-anchor="middle" x="764.75" y="-66.62" font-family="Helvetica,sans-Serif" font-size="10.00">src/sensesp/net/networking.cpp</text>
</a>
</g>
</g>
<!-- Node8&#45;&gt;Node9 -->
<g id="edge8_Node000008_Node000009" class="edge">
<title>Node8&#45;&gt;Node9</title>
<g id="a_edge8_Node000008_Node000009"><a xlink:title=" ">
<path fill="none" stroke="#63b8ff" d="M513.7,-124.29C517.44,-123.42 521.15,-122.56 524.75,-121.75 592.44,-106.49 671.23,-90.29 719.54,-80.54"/>
<polygon fill="#63b8ff" stroke="#63b8ff" points="512.93,-120.87 504.01,-126.58 514.54,-127.69 512.93,-120.87"/>
</a>
</g>
</g>
<!-- Node10 -->
<g id="Node000010" class="node">
<title>Node10</title>
<g id="a_Node000010"><a xlink:href="signalk__delta__queue_8cpp.html" target="_top" xlink:title=" ">
<polygon fill="white" stroke="#666666" points="986.88,-85.75 860.62,-85.75 860.62,-55.25 986.88,-55.25 986.88,-85.75"/>
<text xml:space="preserve" text-anchor="start" x="868.62" y="-72.25" font-family="Helvetica,sans-Serif" font-size="10.00">src/sensesp/signalk</text>
<text xml:space="preserve" text-anchor="middle" x="923.75" y="-61" font-family="Helvetica,sans-Serif" font-size="10.00">/signalk_delta_queue.cpp</text>
</a>
</g>
</g>
<!-- Node8&#45;&gt;Node10 -->
<g id="edge10_Node000008_Node000010" class="edge">
<title>Node8&#45;&gt;Node10</title>
<g id="a_edge10_Node000008_Node000010"><a xlink:title=" ">
<path fill="none" stroke="#63b8ff" d="M511.33,-124.38C515.85,-123.42 520.38,-122.52 524.75,-121.75 668.33,-96.59 706.65,-107.73 850.75,-85.75 853.94,-85.26 857.21,-84.74 860.5,-84.18"/>
<polygon fill="#63b8ff" stroke="#63b8ff" points="510.68,-120.94 501.7,-126.56 512.23,-127.77 510.68,-120.94"/>
</a>
</g>
</g>
<!-- Node11 -->
<g id="Node000011" class="node">
<title>Node11</title>
<g id="a_Node000011"><a xlink:href="signalk__put__request_8cpp.html" target="_top" xlink:title=" ">
<polygon fill="white" stroke="#666666" points="1130.12,-85.75 1005.38,-85.75 1005.38,-55.25 1130.12,-55.25 1130.12,-85.75"/>
<text xml:space="preserve" text-anchor="start" x="1013.38" y="-72.25" font-family="Helvetica,sans-Serif" font-size="10.00">src/sensesp/signalk</text>
<text xml:space="preserve" text-anchor="middle" x="1067.75" y="-61" font-family="Helvetica,sans-Serif" font-size="10.00">/signalk_put_request.cpp</text>
</a>
</g>
</g>
<!-- Node8&#45;&gt;Node11 -->
<g id="edge11_Node000008_Node000011" class="edge">
<title>Node8&#45;&gt;Node11</title>
<g id="a_edge11_Node000008_Node000011"><a xlink:title=" ">
<path fill="none" stroke="#63b8ff" d="M510.38,-124.42C515.21,-123.41 520.07,-122.49 524.75,-121.75 732.12,-89 787.74,-114.18 995.75,-85.75 998.78,-85.34 1001.87,-84.87 1005,-84.38"/>
<polygon fill="#63b8ff" stroke="#63b8ff" points="509.73,-120.98 500.74,-126.59 511.26,-127.81 509.73,-120.98"/>
</a>
</g>
</g>
<!-- Node12 -->
<g id="Node000012" class="node">
<title>Node12</title>
<g id="a_Node000012"><a xlink:href="signalk__ws__client_8cpp.html" target="_top" xlink:title=" ">
<polygon fill="white" stroke="#666666" points="270.25,-85.75 155.25,-85.75 155.25,-55.25 270.25,-55.25 270.25,-85.75"/>
<text xml:space="preserve" text-anchor="start" x="163.25" y="-72.25" font-family="Helvetica,sans-Serif" font-size="10.00">src/sensesp/signalk</text>
<text xml:space="preserve" text-anchor="middle" x="212.75" y="-61" font-family="Helvetica,sans-Serif" font-size="10.00">/signalk_ws_client.cpp</text>
</a>
</g>
</g>
<!-- Node8&#45;&gt;Node12 -->
<g id="edge12_Node000008_Node000012" class="edge">
<title>Node8&#45;&gt;Node12</title>
<g id="a_edge12_Node000008_Node000012"><a xlink:title=" ">
<path fill="none" stroke="#63b8ff" d="M419.01,-124.09C377.02,-113.38 315.21,-97.62 270.21,-86.15"/>
<polygon fill="#63b8ff" stroke="#63b8ff" points="418.02,-127.44 428.57,-126.52 419.75,-120.66 418.02,-127.44"/>
</a>
</g>
</g>
<!-- Node13 -->
<g id="Node000013" class="node">
<title>Node13</title>
<g id="a_Node000013"><a xlink:href="button_8cpp.html" target="_top" xlink:title=" ">
<polygon fill="white" stroke="#666666" points="393,-85.75 288.5,-85.75 288.5,-55.25 393,-55.25 393,-85.75"/>
<text xml:space="preserve" text-anchor="start" x="296.5" y="-72.25" font-family="Helvetica,sans-Serif" font-size="10.00">src/sensesp/system</text>
<text xml:space="preserve" text-anchor="middle" x="340.75" y="-61" font-family="Helvetica,sans-Serif" font-size="10.00">/button.cpp</text>
</a>
</g>
</g>
<!-- Node8&#45;&gt;Node13 -->
<g id="edge13_Node000008_Node000013" class="edge">
<title>Node8&#45;&gt;Node13</title>
<g id="a_edge13_Node000008_Node000013"><a xlink:title=" ">
<path fill="none" stroke="#63b8ff" d="M438.11,-121.74C417.54,-111.13 389.58,-96.7 368.9,-86.03"/>
<polygon fill="#63b8ff" stroke="#63b8ff" points="436.27,-124.73 446.76,-126.2 439.48,-118.51 436.27,-124.73"/>
</a>
</g>
</g>
<!-- Node14 -->
<g id="Node000014" class="node">
<title>Node14</title>
<g id="a_Node000014"><a xlink:href="sensesp__app_8cpp.html" target="_top" xlink:title=" ">
<polygon fill="white" stroke="#666666" points="520.25,-80.12 411.25,-80.12 411.25,-60.88 520.25,-60.88 520.25,-80.12"/>
<text xml:space="preserve" text-anchor="middle" x="465.75" y="-66.62" font-family="Helvetica,sans-Serif" font-size="10.00">src/sensesp_app.cpp</text>
</a>
</g>
</g>
<!-- Node8&#45;&gt;Node14 -->
<g id="edge14_Node000008_Node000014" class="edge">
<title>Node8&#45;&gt;Node14</title>
<g id="a_edge14_Node000008_Node000014"><a xlink:title=" ">
<path fill="none" stroke="#63b8ff" d="M465.75,-115.52C465.75,-103.69 465.75,-89.41 465.75,-80.39"/>
<polygon fill="#63b8ff" stroke="#63b8ff" points="462.25,-115.52 465.75,-125.52 469.25,-115.52 462.25,-115.52"/>
</a>
</g>
</g>
<!-- Node15 -->
<g id="Node000015" class="node">
<title>Node15</title>
<g id="a_Node000015"><a xlink:href="sensesp__app__builder_8h.html" target="_top" xlink:title=" ">
<polygon fill="white" stroke="#666666" points="669.5,-80.12 538,-80.12 538,-60.88 669.5,-60.88 669.5,-80.12"/>
<text xml:space="preserve" text-anchor="middle" x="603.75" y="-66.62" font-family="Helvetica,sans-Serif" font-size="10.00">src/sensesp_app_builder.h</text>
</a>
</g>
</g>
<!-- Node8&#45;&gt;Node15 -->
<g id="edge15_Node000008_Node000015" class="edge">
<title>Node8&#45;&gt;Node15</title>
<g id="a_edge15_Node000008_Node000015"><a xlink:title=" ">
<path fill="none" stroke="#63b8ff" d="M495.6,-122.05C522.52,-109.47 561.3,-91.34 584.37,-80.56"/>
<polygon fill="#63b8ff" stroke="#63b8ff" points="494.18,-118.85 486.6,-126.25 497.14,-125.19 494.18,-118.85"/>
</a>
</g>
</g>
<!-- Node16 -->
<g id="Node000016" class="node">
<title>Node16</title>
<g id="a_Node000016"><a xlink:href="main_8cpp.html" target="_top" xlink:title=" ">
<polygon fill="white" stroke="#666666" points="639.88,-19.25 567.62,-19.25 567.62,0 639.88,0 639.88,-19.25"/>
<text xml:space="preserve" text-anchor="middle" x="603.75" y="-5.75" font-family="Helvetica,sans-Serif" font-size="10.00">src/main.cpp</text>
</a>
</g>
</g>
<!-- Node15&#45;&gt;Node16 -->
<g id="edge16_Node000015_Node000016" class="edge">
<title>Node15&#45;&gt;Node16</title>
<g id="a_edge16_Node000015_Node000016"><a xlink:title=" ">
<path fill="none" stroke="#63b8ff" d="M603.75,-49.07C603.75,-39.04 603.75,-27.46 603.75,-19.65"/>
<polygon fill="#63b8ff" stroke="#63b8ff" points="600.25,-49.04 603.75,-59.04 607.25,-49.04 600.25,-49.04"/>
</a>
</g>
</g>
<!-- Node17&#45;&gt;Node8 -->
<g id="edge19_Node000017_Node000008" class="edge">
<title>Node17&#45;&gt;Node8</title>
<g id="a_edge19_Node000017_Node000008"><a xlink:title=" ">
<path fill="none" stroke="#63b8ff" d="M402.14,-181.65C419.2,-169.94 439.6,-155.94 452.62,-147.01"/>
<polygon fill="#63b8ff" stroke="#63b8ff" points="400.59,-178.46 394.33,-187.01 404.55,-184.24 400.59,-178.46"/>
</a>
</g>
</g>
<!-- Node18 -->
<g id="Node000018" class="node">
<title>Node18</title>
<g id="a_Node000018"><a xlink:href="base__command__handler_8cpp.html" target="_top" xlink:title=" ">
<polygon fill="white" stroke="#666666" points="398.12,-152.25 255.38,-152.25 255.38,-121.75 398.12,-121.75 398.12,-152.25"/>
<text xml:space="preserve" text-anchor="start" x="263.38" y="-138.75" font-family="Helvetica,sans-Serif" font-size="10.00">src/sensesp/net/web</text>
<text xml:space="preserve" text-anchor="middle" x="326.75" y="-127.5" font-family="Helvetica,sans-Serif" font-size="10.00">/base_command_handler.cpp</text>
</a>
</g>
</g>
<!-- Node17&#45;&gt;Node18 -->
<g id="edge18_Node000017_Node000018" class="edge">
<title>Node17&#45;&gt;Node18</title>
<g id="a_edge18_Node000017_Node000018"><a xlink:title=" ">
<path fill="none" stroke="#63b8ff" d="M355.03,-178.54C348.95,-169.82 342.26,-160.24 336.92,-152.58"/>
<polygon fill="#63b8ff" stroke="#63b8ff" points="352.08,-180.42 360.67,-186.62 357.82,-176.42 352.08,-180.42"/>
</a>
</g>
</g>
<!-- Node19&#45;&gt;Node8 -->
<g id="edge22_Node000019_Node000008" class="edge">
<title>Node19&#45;&gt;Node8</title>
<g id="a_edge22_Node000019_Node000008"><a xlink:title=" ">
<path fill="none" stroke="#63b8ff" d="M519.69,-180.95C505.07,-169.31 487.81,-155.57 476.83,-146.82"/>
<polygon fill="#63b8ff" stroke="#63b8ff" points="517.18,-183.43 527.19,-186.92 521.54,-177.95 517.18,-183.43"/>
</a>
</g>
</g>
<!-- Node20 -->
<g id="Node000020" class="node">
<title>Node20</title>
<g id="a_Node000020"><a xlink:href="config__handler_8cpp.html" target="_top" xlink:title=" ">
<polygon fill="white" stroke="#666666" points="640.12,-152.25 533.38,-152.25 533.38,-121.75 640.12,-121.75 640.12,-152.25"/>
<text xml:space="preserve" text-anchor="start" x="541.38" y="-138.75" font-family="Helvetica,sans-Serif" font-size="10.00">src/sensesp/net/web</text>
<text xml:space="preserve" text-anchor="middle" x="586.75" y="-127.5" font-family="Helvetica,sans-Serif" font-size="10.00">/config_handler.cpp</text>
</a>
</g>
</g>
<!-- Node19&#45;&gt;Node20 -->
<g id="edge21_Node000019_Node000020" class="edge">
<title>Node19&#45;&gt;Node20</title>
<g id="a_edge21_Node000019_Node000020"><a xlink:title=" ">
<path fill="none" stroke="#63b8ff" d="M561.78,-178.26C567.14,-169.62 573.01,-160.16 577.71,-152.58"/>
<polygon fill="#63b8ff" stroke="#63b8ff" points="558.92,-176.23 556.62,-186.58 564.87,-179.92 558.92,-176.23"/>
</a>
</g>
</g>
<!-- Node21&#45;&gt;Node8 -->
<g id="edge25_Node000021_Node000008" class="edge">
<title>Node21&#45;&gt;Node8</title>
<g id="a_edge25_Node000021_Node000008"><a xlink:title=" ">
<path fill="none" stroke="#63b8ff" d="M614.1,-184.45C575.23,-172.28 525.61,-156.74 494.75,-147.08"/>
<polygon fill="#63b8ff" stroke="#63b8ff" points="612.71,-187.68 623.3,-187.33 614.81,-181 612.71,-187.68"/>
</a>
</g>
</g>
<!-- Node22 -->
<g id="Node000022" class="node">
<title>Node22</title>
<g id="a_Node000022"><a xlink:href="static__file__handler_8cpp.html" target="_top" xlink:title=" ">
<polygon fill="white" stroke="#666666" points="773.62,-152.25 657.88,-152.25 657.88,-121.75 773.62,-121.75 773.62,-152.25"/>
<text xml:space="preserve" text-anchor="start" x="665.88" y="-138.75" font-family="Helvetica,sans-Serif" font-size="10.00">src/sensesp/net/web</text>
<text xml:space="preserve" text-anchor="middle" x="715.75" y="-127.5" font-family="Helvetica,sans-Serif" font-size="10.00">/static_file_handler.cpp</text>
</a>
</g>
</g>
<!-- Node21&#45;&gt;Node22 -->
<g id="edge24_Node000021_Node000022" class="edge">
<title>Node21&#45;&gt;Node22</title>
<g id="a_edge24_Node000021_Node000022"><a xlink:title=" ">
<path fill="none" stroke="#63b8ff" d="M688.1,-178.54C694.04,-169.82 700.58,-160.24 705.81,-152.58"/>
<polygon fill="#63b8ff" stroke="#63b8ff" points="685.33,-176.38 682.59,-186.61 691.11,-180.33 685.33,-176.38"/>
</a>
</g>
</g>
</g>
</svg>

<g id="navigator" transform="translate(0 0)" fill="#404254">
  <rect fill="#f2f5e9" fill-opacity="0.5" stroke="#606060" stroke-width=".5" x="0" y="0" width="60" height="60"/>
  <use id="zoomplus" xlink:href="#zoomPlus" x="17" y="9" onmousedown="handleZoom(evt,'in')"/>
  <use id="zoomminus" xlink:href="#zoomMin" x="42" y="9" onmousedown="handleZoom(evt,'out')"/>
  <use id="reset" xlink:href="#resetDef" x="30" y="36" onmousedown="handleReset()"/>
   <use id="arrowup" xlink:href="#arrowUp" x="0" y="0" onmousedown="handlePan(0,-1)"/>
  <use id="arrowright" xlink:href="#arrowRight" x="0" y="0" onmousedown="handlePan(1,0)"/>
  <use id="arrowdown" xlink:href="#arrowDown" x="0" y="0" onmousedown="handlePan(0,1)"/>
  <use id="arrowleft" xlink:href="#arrowLeft" x="0" y="0" onmousedown="handlePan(-1,0)"/>
</g>
<svg viewBox="0 0 15 15" width="100%" height="30px" preserveAspectRatio="xMaxYMin meet">
 <g id="arrow_out" transform="scale(0.3 0.3)">
  <a xlink:href="hash_8h__dep__incl_org.svg" target="_base">
   <rect id="button" ry="5" rx="5" y="6" x="6" height="38" width="38"
        fill="#f2f5e9" fill-opacity="0.5" stroke="#606060" stroke-width="1.0"/>
   <path id="arrow"
     d="M 11.500037,31.436501 C 11.940474,20.09759 22.043105,11.32322 32.158766,21.979434 L 37.068811,17.246167 C 37.068811,17.246167 37.088388,32 37.088388,32 L 22.160133,31.978069 C 22.160133,31.978069 26.997745,27.140456 26.997745,27.140456 C 18.528582,18.264221 13.291696,25.230495 11.500037,31.436501 z"
     style="fill:#404040;"/>
  </a>
 </g>
</svg>

<style type='text/css'>
<![CDATA[
[data-mouse-over-selected='false'] { opacity: 0.7; }
[data-mouse-over-selected='true']  { opacity: 1.0; }
]]>
</style>
<script type="application/ecmascript"><![CDATA[
document.addEventListener('DOMContentLoaded', (event) => {
  highlightEdges();
  highlightAdjacentNodes();
});
]]></script>
</svg>
