<?xml version="1.0" encoding="UTF-8" standalone="no"?>
<!DOCTYPE svg PUBLIC "-//W3C//DTD SVG 1.1//EN"
 "http://www.w3.org/Graphics/SVG/1.1/DTD/svg11.dtd">
<!-- Generated by graphviz version 14.1.4 (20260321.0153)
 -->
<!-- Title: src/sensesp/net/http_authenticator.h Pages: 1 -->
<!--zoomable 305 -->

<svg id="main" version="1.1" xmlns="http://www.w3.org/2000/svg" xmlns:xlink="http://www.w3.org/1999/xlink" xml:space="preserve" onload="init(evt)">

<style type="text/css"><![CDATA[
.node, .edge {opacity: 0.7;}
.node.selected, .edge.selected {opacity: 1;}
.edge:hover path { stroke: red; }
.edge:hover polygon { stroke: red; fill: red; }
]]></style>

<defs>
  <circle id="rim" cx="0" cy="0" r="7"/>
  <circle id="rim2" cx="0" cy="0" r="3.5"/>
  <g id="zoomPlus">
    <use xlink:href="#rim" fill="#404040"><set attributeName="fill" to="#808080" begin="zoomplus.mouseover" end="zoomplus.mouseout"/></use>
    <path d="M-4,0h8M0,-4v8" fill="none" stroke="white" stroke-width="1.5" pointer-events="none"/>
  </g>
  <g id="zoomMin">
    <use xlink:href="#rim" fill="#404040"><set attributeName="fill" to="#808080" begin="zoomminus.mouseover" end="zoomminus.mouseout"/></use>
    <path d="M-4,0h8" fill="none" stroke="white" stroke-width="1.5" pointer-events="none"/>
  </g>
  <g id="arrowUp" transform="translate(30 24)">
    <use xlink:href="#rim"/>
    <path pointer-events="none" fill="none" stroke="white" stroke-width="1.5" d="M0,-3.0v7 M-2.5,-0.5L0,-3.0L2.5,-0.5"/>
  </g>
  <g id="arrowRight" transform="rotate(90) translate(36 -43)">
    <use xlink:href="#rim"/>
    <path pointer-events="none" fill="none" stroke="white" stroke-width="1.5" d="M0,-3.0v7 M-2.5,-0.5L0,-3.0L2.5,-0.5"/>
  </g>
  <g id="arrowDown" transform="rotate(180) translate(-30 -48)">
    <use xlink:href="#rim"/>
    <path pointer-events="none" fill="none" stroke="white" stroke-width="1.5" d="M0,-3.0v7 M-2.5,-0.5L0,-3.0L2.5,-0.5"/>
  </g>
  <g id="arrowLeft" transform="rotate(270) translate(-36 17)">
    <use xlink:href="#rim"/>
    <path pointer-events="none" fill="none" stroke="white" stroke-width="1.5" d="M0,-3.0v7 M-2.5,-0.5L0,-3.0L2.5,-0.5"/>
  </g>
  <g id="resetDef">
    <use xlink:href="#rim2" fill="#404040"><set attributeName="fill" to="#808080" begin="reset.mouseover" end="reset.mouseout"/></use>
  </g>
</defs>
<script type="application/ecmascript">
var viewWidth = 1373;
var viewHeight = 305;
var sectionId = 'dynsection-1';
</script>
<script type="application/ecmascript" xlink:href="svg.min.js"/>
<svg id="graph" class="graph">
<g id="viewport">
<title>src/sensesp/net/http_authenticator.h</title>
<!-- Node1 -->
<g id="Node000001" class="node">
<title>Node1</title>
<g id="a_Node000001"><a xlink:title=" ">
<polygon fill="#999999" stroke="#666666" points="520.38,-296.5 415.12,-296.5 415.12,-266 520.38,-266 520.38,-296.5"/>
<text xml:space="preserve" text-anchor="start" x="423.12" y="-283" font-family="Helvetica,sans-Serif" font-size="10.00">src/sensesp/net/http</text>
<text xml:space="preserve" text-anchor="middle" x="467.75" y="-271.75" font-family="Helvetica,sans-Serif" font-size="10.00">_authenticator.h</text>
</a>
</g>
</g>
<!-- Node2 -->
<g id="Node000002" class="node">
<title>Node2</title>
<g id="a_Node000002"><a xlink:href="http__authenticator_8cpp.html" target="_top" xlink:title=" ">
<polygon fill="white" stroke="#666666" points="459.38,-230 354.12,-230 354.12,-199.5 459.38,-199.5 459.38,-230"/>
<text xml:space="preserve" text-anchor="start" x="362.12" y="-216.5" font-family="Helvetica,sans-Serif" font-size="10.00">src/sensesp/net/http</text>
<text xml:space="preserve" text-anchor="middle" x="406.75" y="-205.25" font-family="Helvetica,sans-Serif" font-size="10.00">_authenticator.cpp</text>
</a>
</g>
</g>
<!-- Node1&#45;&gt;Node2 -->
<g id="edge1_Node000001_Node000002" class="edge">
<title>Node1&#45;&gt;Node2</title>
<g id="a_edge1_Node000001_Node000002"><a xlink:title=" ">
<path fill="none" stroke="#63b8ff" d="M446.15,-257.41C437.63,-248.4 428.09,-238.32 420.54,-230.33"/>
<polygon fill="#63b8ff" stroke="#63b8ff" points="443.45,-259.65 452.87,-264.51 448.54,-254.84 443.45,-259.65"/>
</a>
</g>
</g>
<!-- Node3 -->
<g id="Node000003" class="node">
<title>Node3</title>
<g id="a_Node000003"><a xlink:href="http__server_8h.html" target="_top" xlink:title=" ">
<polygon fill="white" stroke="#666666" points="582.38,-230 477.12,-230 477.12,-199.5 582.38,-199.5 582.38,-230"/>
<text xml:space="preserve" text-anchor="start" x="485.12" y="-216.5" font-family="Helvetica,sans-Serif" font-size="10.00">src/sensesp/net/http</text>
<text xml:space="preserve" text-anchor="middle" x="529.75" y="-205.25" font-family="Helvetica,sans-Serif" font-size="10.00">_server.h</text>
</a>
</g>
</g>
<!-- Node1&#45;&gt;Node3 -->
<g id="edge2_Node000001_Node000003" class="edge">
<title>Node1&#45;&gt;Node3</title>
<g id="a_edge2_Node000001_Node000003"><a xlink:title=" ">
<path fill="none" stroke="#63b8ff" d="M489.71,-257.41C498.37,-248.4 508.06,-238.32 515.74,-230.33"/>
<polygon fill="#63b8ff" stroke="#63b8ff" points="487.27,-254.89 482.87,-264.52 492.32,-259.74 487.27,-254.89"/>
</a>
</g>
</g>
<!-- Node4 -->
<g id="Node000004" class="node">
<title>Node4</title>
<g id="a_Node000004"><a xlink:href="http__server_8cpp.html" target="_top" xlink:title=" ">
<polygon fill="white" stroke="#666666" points="253.38,-163.5 148.12,-163.5 148.12,-133 253.38,-133 253.38,-163.5"/>
<text xml:space="preserve" text-anchor="start" x="156.12" y="-150" font-family="Helvetica,sans-Serif" font-size="10.00">src/sensesp/net/http</text>
<text xml:space="preserve" text-anchor="middle" x="200.75" y="-138.75" font-family="Helvetica,sans-Serif" font-size="10.00">_server.cpp</text>
</a>
</g>
</g>
<!-- Node3&#45;&gt;Node4 -->
<g id="edge3_Node000003_Node000004" class="edge">
<title>Node3&#45;&gt;Node4</title>
<g id="a_edge3_Node000003_Node000004"><a xlink:title=" ">
<path fill="none" stroke="#63b8ff" d="M465.83,-198.97C375.32,-180.94 349.77,-181.42 261.75,-163.5 259.09,-162.96 256.36,-162.39 253.61,-161.79"/>
<polygon fill="#63b8ff" stroke="#63b8ff" points="464.91,-202.36 475.41,-200.91 466.3,-195.5 464.91,-202.36"/>
</a>
</g>
</g>
<!-- Node5 -->
<g id="Node000005" class="node">
<title>Node5</title>
<g id="a_Node000005"><a xlink:href="app__command__handler_8h.html" target="_top" xlink:title=" ">
<polygon fill="white" stroke="#666666" points="398.25,-163.5 271.25,-163.5 271.25,-133 398.25,-133 398.25,-163.5"/>
<text xml:space="preserve" text-anchor="start" x="279.25" y="-150" font-family="Helvetica,sans-Serif" font-size="10.00">src/sensesp/net/web</text>
<text xml:space="preserve" text-anchor="middle" x="334.75" y="-138.75" font-family="Helvetica,sans-Serif" font-size="10.00">/app_command_handler.h</text>
</a>
</g>
</g>
<!-- Node3&#45;&gt;Node5 -->
<g id="edge4_Node000003_Node000005" class="edge">
<title>Node3&#45;&gt;Node5</title>
<g id="a_edge4_Node000003_Node000005"><a xlink:title=" ">
<path fill="none" stroke="#63b8ff" d="M474.7,-195.54C444.49,-185.55 407.52,-173.32 379.16,-163.94"/>
<polygon fill="#63b8ff" stroke="#63b8ff" points="473.47,-198.82 484.06,-198.64 475.67,-192.18 473.47,-198.82"/>
</a>
</g>
</g>
<!-- Node7 -->
<g id="Node000007" class="node">
<title>Node7</title>
<g id="a_Node000007"><a xlink:href="sensesp__app_8h.html" target="_top" xlink:title=" ">
<polygon fill="white" stroke="#666666" points="626,-91.38 527.5,-91.38 527.5,-72.12 626,-72.12 626,-91.38"/>
<text xml:space="preserve" text-anchor="middle" x="576.75" y="-77.88" font-family="Helvetica,sans-Serif" font-size="10.00">src/sensesp_app.h</text>
</a>
</g>
</g>
<!-- Node3&#45;&gt;Node7 -->
<g id="edge26_Node000003_Node000007" class="edge">
<title>Node3&#45;&gt;Node7</title>
<g id="a_edge26_Node000003_Node000007"><a xlink:title=" ">
<path fill="none" stroke="#63b8ff" d="M545.04,-189.51C549.63,-181.46 554.34,-172.31 557.75,-163.5 567.53,-138.25 573.19,-106.54 575.51,-91.47"/>
<polygon fill="#63b8ff" stroke="#63b8ff" points="542.08,-187.64 539.98,-198.02 548.1,-191.22 542.08,-187.64"/>
</a>
</g>
</g>
<!-- Node17 -->
<g id="Node000017" class="node">
<title>Node17</title>
<g id="a_Node000017"><a xlink:href="base__command__handler_8h.html" target="_top" xlink:title=" ">
<polygon fill="white" stroke="#666666" points="548.88,-163.5 416.62,-163.5 416.62,-133 548.88,-133 548.88,-163.5"/>
<text xml:space="preserve" text-anchor="start" x="424.62" y="-150" font-family="Helvetica,sans-Serif" font-size="10.00">src/sensesp/net/web</text>
<text xml:space="preserve" text-anchor="middle" x="482.75" y="-138.75" font-family="Helvetica,sans-Serif" font-size="10.00">/base_command_handler.h</text>
</a>
</g>
</g>
<!-- Node3&#45;&gt;Node17 -->
<g id="edge17_Node000003_Node000017" class="edge">
<title>Node3&#45;&gt;Node17</title>
<g id="a_edge17_Node000003_Node000017"><a xlink:title=" ">
<path fill="none" stroke="#63b8ff" d="M512.49,-190.07C506.09,-181.28 499.01,-171.57 493.37,-163.83"/>
<polygon fill="#63b8ff" stroke="#63b8ff" points="509.48,-191.87 518.19,-197.89 515.13,-187.75 509.48,-191.87"/>
</a>
</g>
</g>
<!-- Node18 -->
<g id="Node000018" class="node">
<title>Node18</title>
<g id="a_Node000018"><a xlink:href="config__handler_8h.html" target="_top" xlink:title=" ">
<polygon fill="white" stroke="#666666" points="711.12,-163.5 604.38,-163.5 604.38,-133 711.12,-133 711.12,-163.5"/>
<text xml:space="preserve" text-anchor="start" x="612.38" y="-150" font-family="Helvetica,sans-Serif" font-size="10.00">src/sensesp/net/web</text>
<text xml:space="preserve" text-anchor="middle" x="657.75" y="-138.75" font-family="Helvetica,sans-Serif" font-size="10.00">/config_handler.h</text>
</a>
</g>
</g>
<!-- Node3&#45;&gt;Node18 -->
<g id="edge20_Node000003_Node000018" class="edge">
<title>Node3&#45;&gt;Node18</title>
<g id="a_edge20_Node000003_Node000018"><a xlink:title=" ">
<path fill="none" stroke="#63b8ff" d="M568.82,-194.06C588.15,-184.32 611.09,-172.76 628.82,-163.83"/>
<polygon fill="#63b8ff" stroke="#63b8ff" points="567.5,-190.81 560.15,-198.43 570.65,-197.06 567.5,-190.81"/>
</a>
</g>
</g>
<!-- Node20 -->
<g id="Node000020" class="node">
<title>Node20</title>
<g id="a_Node000020"><a xlink:href="static__file__handler_8h.html" target="_top" xlink:title=" ">
<polygon fill="white" stroke="#666666" points="836.12,-163.5 729.38,-163.5 729.38,-133 836.12,-133 836.12,-163.5"/>
<text xml:space="preserve" text-anchor="start" x="737.38" y="-150" font-family="Helvetica,sans-Serif" font-size="10.00">src/sensesp/net/web</text>
<text xml:space="preserve" text-anchor="middle" x="782.75" y="-138.75" font-family="Helvetica,sans-Serif" font-size="10.00">/static_file_handler.h</text>
</a>
</g>
</g>
<!-- Node3&#45;&gt;Node20 -->
<g id="edge23_Node000003_Node000020" class="edge">
<title>Node3&#45;&gt;Node20</title>
<g id="a_edge23_Node000003_Node000020"><a xlink:title=" ">
<path fill="none" stroke="#63b8ff" d="M593.94,-197.39C635.66,-186.75 689.43,-173.04 728.91,-162.98"/>
<polygon fill="#63b8ff" stroke="#63b8ff" points="593.08,-193.99 584.25,-199.85 594.81,-200.78 593.08,-193.99"/>
</a>
</g>
</g>
<!-- Node6 -->
<g id="Node000006" class="node">
<title>Node6</title>
<g id="a_Node000006"><a xlink:href="app__command__handler_8cpp.html" target="_top" xlink:title=" ">
<polygon fill="white" stroke="#666666" points="137.5,-30.5 0,-30.5 0,0 137.5,0 137.5,-30.5"/>
<text xml:space="preserve" text-anchor="start" x="8" y="-17" font-family="Helvetica,sans-Serif" font-size="10.00">src/sensesp/net/web</text>
<text xml:space="preserve" text-anchor="middle" x="68.75" y="-5.75" font-family="Helvetica,sans-Serif" font-size="10.00">/app_command_handler.cpp</text>
</a>
</g>
</g>
<!-- Node5&#45;&gt;Node6 -->
<g id="edge5_Node000005_Node000006" class="edge">
<title>Node5&#45;&gt;Node6</title>
<g id="a_edge5_Node000005_Node000006"><a xlink:title=" ">
<path fill="none" stroke="#63b8ff" d="M294.81,-127.58C240.93,-101.04 146.22,-54.4 98.3,-30.8"/>
<polygon fill="#63b8ff" stroke="#63b8ff" points="293.14,-130.66 303.65,-131.94 296.23,-124.38 293.14,-130.66"/>
</a>
</g>
</g>
<!-- Node5&#45;&gt;Node7 -->
<g id="edge6_Node000005_Node000007" class="edge">
<title>Node5&#45;&gt;Node7</title>
<g id="a_edge6_Node000005_Node000007"><a xlink:title=" ">
<path fill="none" stroke="#63b8ff" d="M401.02,-129.59C446.89,-117.36 506.04,-101.6 542.68,-91.83"/>
<polygon fill="#63b8ff" stroke="#63b8ff" points="400.19,-126.19 391.43,-132.14 401.99,-132.95 400.19,-126.19"/>
</a>
</g>
</g>
<!-- Node7&#45;&gt;Node6 -->
<g id="edge7_Node000007_Node000006" class="edge">
<title>Node7&#45;&gt;Node6</title>
<g id="a_edge7_Node000007_Node000006"><a xlink:title=" ">
<path fill="none" stroke="#63b8ff" d="M515.99,-74.89C432.55,-66.57 277.91,-50.12 146.75,-30.5 143.75,-30.05 140.7,-29.58 137.61,-29.08"/>
<polygon fill="#63b8ff" stroke="#63b8ff" points="515.48,-78.36 525.77,-75.86 516.17,-71.39 515.48,-78.36"/>
</a>
</g>
</g>
<!-- Node8 -->
<g id="Node000008" class="node">
<title>Node8</title>
<g id="a_Node000008"><a xlink:href="base__command__handler_8cpp.html" target="_top" xlink:title=" ">
<polygon fill="white" stroke="#666666" points="298.12,-30.5 155.38,-30.5 155.38,0 298.12,0 298.12,-30.5"/>
<text xml:space="preserve" text-anchor="start" x="163.38" y="-17" font-family="Helvetica,sans-Serif" font-size="10.00">src/sensesp/net/web</text>
<text xml:space="preserve" text-anchor="middle" x="226.75" y="-5.75" font-family="Helvetica,sans-Serif" font-size="10.00">/base_command_handler.cpp</text>
</a>
</g>
</g>
<!-- Node7&#45;&gt;Node8 -->
<g id="edge8_Node000007_Node000008" class="edge">
<title>Node7&#45;&gt;Node8</title>
<g id="a_edge8_Node000007_Node000008"><a xlink:title=" ">
<path fill="none" stroke="#63b8ff" d="M516.06,-69.57C455.5,-58.41 362.48,-41.26 298.35,-29.45"/>
<polygon fill="#63b8ff" stroke="#63b8ff" points="515.39,-73 525.86,-71.37 516.66,-66.12 515.39,-73"/>
</a>
</g>
</g>
<!-- Node9 -->
<g id="Node000009" class="node">
<title>Node9</title>
<g id="a_Node000009"><a xlink:href="wifi__provisioner_8cpp.html" target="_top" xlink:title=" ">
<polygon fill="white" stroke="#666666" points="696.62,-30.5 592.88,-30.5 592.88,0 696.62,0 696.62,-30.5"/>
<text xml:space="preserve" text-anchor="start" x="600.88" y="-17" font-family="Helvetica,sans-Serif" font-size="10.00">src/sensesp/net/wifi</text>
<text xml:space="preserve" text-anchor="middle" x="644.75" y="-5.75" font-family="Helvetica,sans-Serif" font-size="10.00">_provisioner.cpp</text>
</a>
</g>
</g>
<!-- Node7&#45;&gt;Node9 -->
<g id="edge9_Node000007_Node000009" class="edge">
<title>Node7&#45;&gt;Node9</title>
<g id="a_edge9_Node000007_Node000009"><a xlink:title=" ">
<path fill="none" stroke="#63b8ff" d="M594.48,-63.93C605.31,-53.66 619,-40.67 629.37,-30.84"/>
<polygon fill="#63b8ff" stroke="#63b8ff" points="592.15,-61.32 587.3,-70.74 596.97,-66.4 592.15,-61.32"/>
</a>
</g>
</g>
<!-- Node10 -->
<g id="Node000010" class="node">
<title>Node10</title>
<g id="a_Node000010"><a xlink:href="system__info_8cpp.html" target="_top" xlink:title=" ">
<polygon fill="white" stroke="#666666" points="821.12,-30.5 714.38,-30.5 714.38,0 821.12,0 821.12,-30.5"/>
<text xml:space="preserve" text-anchor="start" x="722.38" y="-17" font-family="Helvetica,sans-Serif" font-size="10.00">src/sensesp/sensors</text>
<text xml:space="preserve" text-anchor="middle" x="767.75" y="-5.75" font-family="Helvetica,sans-Serif" font-size="10.00">/system_info.cpp</text>
</a>
</g>
</g>
<!-- Node7&#45;&gt;Node10 -->
<g id="edge10_Node000007_Node000010" class="edge">
<title>Node7&#45;&gt;Node10</title>
<g id="a_edge10_Node000007_Node000010"><a xlink:title=" ">
<path fill="none" stroke="#63b8ff" d="M614.29,-68.07C645.92,-57.39 691.19,-42.1 724.37,-30.9"/>
<polygon fill="#63b8ff" stroke="#63b8ff" points="613.5,-64.65 605.14,-71.16 615.74,-71.28 613.5,-64.65"/>
</a>
</g>
</g>
<!-- Node11 -->
<g id="Node000011" class="node">
<title>Node11</title>
<g id="a_Node000011"><a xlink:href="signalk__delta__queue_8cpp.html" target="_top" xlink:title=" ">
<polygon fill="white" stroke="#666666" points="965.88,-30.5 839.62,-30.5 839.62,0 965.88,0 965.88,-30.5"/>
<text xml:space="preserve" text-anchor="start" x="847.62" y="-17" font-family="Helvetica,sans-Serif" font-size="10.00">src/sensesp/signalk</text>
<text xml:space="preserve" text-anchor="middle" x="902.75" y="-5.75" font-family="Helvetica,sans-Serif" font-size="10.00">/signalk_delta_queue.cpp</text>
</a>
</g>
</g>
<!-- Node7&#45;&gt;Node11 -->
<g id="edge11_Node000007_Node000011" class="edge">
<title>Node7&#45;&gt;Node11</title>
<g id="a_edge11_Node000007_Node000011"><a xlink:title=" ">
<path fill="none" stroke="#63b8ff" d="M624.16,-69.06C628.08,-68.17 631.98,-67.31 635.75,-66.5 721.51,-48.2 743.6,-46.9 829.75,-30.5 832.92,-29.9 836.17,-29.27 839.45,-28.64"/>
<polygon fill="#63b8ff" stroke="#63b8ff" points="623.61,-65.6 614.66,-71.28 625.2,-72.42 623.61,-65.6"/>
</a>
</g>
</g>
<!-- Node12 -->
<g id="Node000012" class="node">
<title>Node12</title>
<g id="a_Node000012"><a xlink:href="signalk__put__request_8cpp.html" target="_top" xlink:title=" ">
<polygon fill="white" stroke="#666666" points="1109.12,-30.5 984.38,-30.5 984.38,0 1109.12,0 1109.12,-30.5"/>
<text xml:space="preserve" text-anchor="start" x="992.38" y="-17" font-family="Helvetica,sans-Serif" font-size="10.00">src/sensesp/signalk</text>
<text xml:space="preserve" text-anchor="middle" x="1046.75" y="-5.75" font-family="Helvetica,sans-Serif" font-size="10.00">/signalk_put_request.cpp</text>
</a>
</g>
</g>
<!-- Node7&#45;&gt;Node12 -->
<g id="edge12_Node000007_Node000012" class="edge">
<title>Node7&#45;&gt;Node12</title>
<g id="a_edge12_Node000007_Node000012"><a xlink:title=" ">
<path fill="none" stroke="#63b8ff" d="M621.76,-69.24C626.47,-68.23 631.19,-67.29 635.75,-66.5 785.04,-40.66 824.95,-53.23 974.75,-30.5 977.77,-30.04 980.86,-29.54 983.98,-29.02"/>
<polygon fill="#63b8ff" stroke="#63b8ff" points="621.36,-65.74 612.39,-71.36 622.91,-72.56 621.36,-65.74"/>
</a>
</g>
</g>
<!-- Node13 -->
<g id="Node000013" class="node">
<title>Node13</title>
<g id="a_Node000013"><a xlink:href="signalk__ws__client_8cpp.html" target="_top" xlink:title=" ">
<polygon fill="white" stroke="#666666" points="1242.25,-30.5 1127.25,-30.5 1127.25,0 1242.25,0 1242.25,-30.5"/>
<text xml:space="preserve" text-anchor="start" x="1135.25" y="-17" font-family="Helvetica,sans-Serif" font-size="10.00">src/sensesp/signalk</text>
<text xml:space="preserve" text-anchor="middle" x="1184.75" y="-5.75" font-family="Helvetica,sans-Serif" font-size="10.00">/signalk_ws_client.cpp</text>
</a>
</g>
</g>
<!-- Node7&#45;&gt;Node13 -->
<g id="edge13_Node000007_Node000013" class="edge">
<title>Node7&#45;&gt;Node13</title>
<g id="a_edge13_Node000007_Node000013"><a xlink:title=" ">
<path fill="none" stroke="#63b8ff" d="M621.37,-69.17C626.2,-68.15 631.07,-67.24 635.75,-66.5 847.97,-33.17 905.1,-60.91 1117.75,-30.5 1120.81,-30.06 1123.94,-29.57 1127.09,-29.03"/>
<polygon fill="#63b8ff" stroke="#63b8ff" points="620.73,-65.72 611.73,-71.33 622.26,-72.55 620.73,-65.72"/>
</a>
</g>
</g>
<!-- Node14 -->
<g id="Node000014" class="node">
<title>Node14</title>
<g id="a_Node000014"><a xlink:href="button_8cpp.html" target="_top" xlink:title=" ">
<polygon fill="white" stroke="#666666" points="1365,-30.5 1260.5,-30.5 1260.5,0 1365,0 1365,-30.5"/>
<text xml:space="preserve" text-anchor="start" x="1268.5" y="-17" font-family="Helvetica,sans-Serif" font-size="10.00">src/sensesp/system</text>
<text xml:space="preserve" text-anchor="middle" x="1312.75" y="-5.75" font-family="Helvetica,sans-Serif" font-size="10.00">/button.cpp</text>
</a>
</g>
</g>
<!-- Node7&#45;&gt;Node14 -->
<g id="edge14_Node000007_Node000014" class="edge">
<title>Node7&#45;&gt;Node14</title>
<g id="a_edge14_Node000007_Node000014"><a xlink:title=" ">
<path fill="none" stroke="#63b8ff" d="M620.77,-69.21C625.8,-68.16 630.87,-67.23 635.75,-66.5 907.01,-26.15 980.34,-69.84 1251.75,-30.5 1254.55,-30.09 1257.41,-29.62 1260.29,-29.11"/>
<polygon fill="#63b8ff" stroke="#63b8ff" points="620.4,-65.71 611.41,-71.31 621.93,-72.54 620.4,-65.71"/>
</a>
</g>
</g>
<!-- Node15 -->
<g id="Node000015" class="node">
<title>Node15</title>
<g id="a_Node000015"><a xlink:href="sensesp__app_8cpp.html" target="_top" xlink:title=" ">
<polygon fill="white" stroke="#666666" points="425.25,-24.88 316.25,-24.88 316.25,-5.63 425.25,-5.63 425.25,-24.88"/>
<text xml:space="preserve" text-anchor="middle" x="370.75" y="-11.38" font-family="Helvetica,sans-Serif" font-size="10.00">src/sensesp_app.cpp</text>
</a>
</g>
</g>
<!-- Node7&#45;&gt;Node15 -->
<g id="edge15_Node000007_Node000015" class="edge">
<title>Node7&#45;&gt;Node15</title>
<g id="a_edge15_Node000007_Node000015"><a xlink:title=" ">
<path fill="none" stroke="#63b8ff" d="M536.92,-68.28C496.68,-55.68 435.5,-36.52 399.68,-25.31"/>
<polygon fill="#63b8ff" stroke="#63b8ff" points="535.64,-71.55 546.23,-71.19 537.73,-64.87 535.64,-71.55"/>
</a>
</g>
</g>
<!-- Node16 -->
<g id="Node000016" class="node">
<title>Node16</title>
<g id="a_Node000016"><a xlink:href="sensesp__app__builder_8h.html" target="_top" xlink:title=" ">
<polygon fill="white" stroke="#666666" points="574.5,-24.88 443,-24.88 443,-5.63 574.5,-5.63 574.5,-24.88"/>
<text xml:space="preserve" text-anchor="middle" x="508.75" y="-11.38" font-family="Helvetica,sans-Serif" font-size="10.00">src/sensesp_app_builder.h</text>
</a>
</g>
</g>
<!-- Node7&#45;&gt;Node16 -->
<g id="edge16_Node000007_Node000016" class="edge">
<title>Node7&#45;&gt;Node16</title>
<g id="a_edge16_Node000007_Node000016"><a xlink:title=" ">
<path fill="none" stroke="#63b8ff" d="M559.04,-63.95C545.95,-51.54 528.65,-35.12 518.12,-25.14"/>
<polygon fill="#63b8ff" stroke="#63b8ff" points="556.53,-66.4 566.2,-70.74 561.35,-61.32 556.53,-66.4"/>
</a>
</g>
</g>
<!-- Node17&#45;&gt;Node7 -->
<g id="edge19_Node000017_Node000007" class="edge">
<title>Node17&#45;&gt;Node7</title>
<g id="a_edge19_Node000017_Node000007"><a xlink:title=" ">
<path fill="none" stroke="#63b8ff" d="M513.14,-126.4C530.2,-114.69 550.6,-100.69 563.62,-91.76"/>
<polygon fill="#63b8ff" stroke="#63b8ff" points="511.59,-123.21 505.33,-131.76 515.55,-128.99 511.59,-123.21"/>
</a>
</g>
</g>
<!-- Node17&#45;&gt;Node8 -->
<g id="edge18_Node000017_Node000008" class="edge">
<title>Node17&#45;&gt;Node8</title>
<g id="a_edge18_Node000017_Node000008"><a xlink:title=" ">
<path fill="none" stroke="#63b8ff" d="M444.25,-127.55C392.41,-101.02 301.37,-54.44 255.25,-30.83"/>
<polygon fill="#63b8ff" stroke="#63b8ff" points="442.53,-130.6 453.03,-132.04 445.72,-124.37 442.53,-130.6"/>
</a>
</g>
</g>
<!-- Node18&#45;&gt;Node7 -->
<g id="edge22_Node000018_Node000007" class="edge">
<title>Node18&#45;&gt;Node7</title>
<g id="a_edge22_Node000018_Node000007"><a xlink:title=" ">
<path fill="none" stroke="#63b8ff" d="M630.69,-125.7C616.07,-114.06 598.81,-100.32 587.83,-91.57"/>
<polygon fill="#63b8ff" stroke="#63b8ff" points="628.18,-128.18 638.19,-131.67 632.54,-122.7 628.18,-128.18"/>
</a>
</g>
</g>
<!-- Node19 -->
<g id="Node000019" class="node">
<title>Node19</title>
<g id="a_Node000019"><a xlink:href="config__handler_8cpp.html" target="_top" xlink:title=" ">
<polygon fill="white" stroke="#666666" points="751.12,-97 644.38,-97 644.38,-66.5 751.12,-66.5 751.12,-97"/>
<text xml:space="preserve" text-anchor="start" x="652.38" y="-83.5" font-family="Helvetica,sans-Serif" font-size="10.00">src/sensesp/net/web</text>
<text xml:space="preserve" text-anchor="middle" x="697.75" y="-72.25" font-family="Helvetica,sans-Serif" font-size="10.00">/config_handler.cpp</text>
</a>
</g>
</g>
<!-- Node18&#45;&gt;Node19 -->
<g id="edge21_Node000018_Node000019" class="edge">
<title>Node18&#45;&gt;Node19</title>
<g id="a_edge21_Node000018_Node000019"><a xlink:title=" ">
<path fill="none" stroke="#63b8ff" d="M672.78,-123.01C678.14,-114.37 684.01,-104.91 688.71,-97.33"/>
<polygon fill="#63b8ff" stroke="#63b8ff" points="669.92,-120.98 667.62,-131.33 675.87,-124.67 669.92,-120.98"/>
</a>
</g>
</g>
<!-- Node20&#45;&gt;Node7 -->
<g id="edge25_Node000020_Node000007" class="edge">
<title>Node20&#45;&gt;Node7</title>
<g id="a_edge25_Node000020_Node000007"><a xlink:title=" ">
<path fill="none" stroke="#63b8ff" d="M725.1,-129.2C686.23,-117.03 636.61,-101.49 605.75,-91.83"/>
<polygon fill="#63b8ff" stroke="#63b8ff" points="723.71,-132.43 734.3,-132.08 725.81,-125.75 723.71,-132.43"/>
</a>
</g>
</g>
<!-- Node21 -->
<g id="Node000021" class="node">
<title>Node21</title>
<g id="a_Node000021"><a xlink:href="static__file__handler_8cpp.html" target="_top" xlink:title=" ">
<polygon fill="white" stroke="#666666" points="884.62,-97 768.88,-97 768.88,-66.5 884.62,-66.5 884.62,-97"/>
<text xml:space="preserve" text-anchor="start" x="776.88" y="-83.5" font-family="Helvetica,sans-Serif" font-size="10.00">src/sensesp/net/web</text>
<text xml:space="preserve" text-anchor="middle" x="826.75" y="-72.25" font-family="Helvetica,sans-Serif" font-size="10.00">/static_file_handler.cpp</text>
</a>
</g>
</g>
<!-- Node20&#45;&gt;Node21 -->
<g id="edge24_Node000020_Node000021" class="edge">
<title>Node20&#45;&gt;Node21</title>
<g id="a_edge24_Node000020_Node000021"><a xlink:title=" ">
<path fill="none" stroke="#63b8ff" d="M799.1,-123.29C805.04,-114.57 811.58,-104.99 816.81,-97.33"/>
<polygon fill="#63b8ff" stroke="#63b8ff" points="796.33,-121.13 793.59,-131.36 802.11,-125.08 796.33,-121.13"/>
</a>
</g>
</g>
</g>
</svg>

<g id="navigator" transform="translate(0 0)" fill="#404254">
  <rect fill="#f2f5e9" fill-opacity="0.5" stroke="#606060" stroke-width=".5" x="0" y="0" width="60" height="60"/>
  <use id="zoomplus" xlink:href="#zoomPlus" x="17" y="9" onmousedown="handleZoom(evt,'in')"/>
  <use id="zoomminus" xlink:href="#zoomMin" x="42" y="9" onmousedown="handleZoom(evt,'out')"/>
  <use id="reset" xlink:href="#resetDef" x="30" y="36" onmousedown="handleReset()"/>
   <use id="arrowup" xlink:href="#arrowUp" x="0" y="0" onmousedown="handlePan(0,-1)"/>
  <use id="arrowright" xlink:href="#arrowRight" x="0" y="0" onmousedown="handlePan(1,0)"/>
  <use id="arrowdown" xlink:href="#arrowDown" x="0" y="0" onmousedown="handlePan(0,1)"/>
  <use id="arrowleft" xlink:href="#arrowLeft" x="0" y="0" onmousedown="handlePan(-1,0)"/>
</g>
<svg viewBox="0 0 15 15" width="100%" height="30px" preserveAspectRatio="xMaxYMin meet">
 <g id="arrow_out" transform="scale(0.3 0.3)">
  <a xlink:href="http__authenticator_8h__dep__incl_org.svg" target="_base">
   <rect id="button" ry="5" rx="5" y="6" x="6" height="38" width="38"
        fill="#f2f5e9" fill-opacity="0.5" stroke="#606060" stroke-width="1.0"/>
   <path id="arrow"
     d="M 11.500037,31.436501 C 11.940474,20.09759 22.043105,11.32322 32.158766,21.979434 L 37.068811,17.246167 C 37.068811,17.246167 37.088388,32 37.088388,32 L 22.160133,31.978069 C 22.160133,31.978069 26.997745,27.140456 26.997745,27.140456 C 18.528582,18.264221 13.291696,25.230495 11.500037,31.436501 z"
     style="fill:#404040;"/>
  </a>
 </g>
</svg>

<style type='text/css'>
<![CDATA[
[data-mouse-over-selected='false'] { opacity: 0.7; }
[data-mouse-over-selected='true']  { opacity: 1.0; }
]]>
</style>
<script type="application/ecmascript"><![CDATA[
document.addEventListener('DOMContentLoaded', (event) => {
  highlightEdges();
  highlightAdjacentNodes();
});
]]></script>
</svg>
