<?xml version="1.0" encoding="UTF-8" standalone="no"?>
<!DOCTYPE svg PUBLIC "-//W3C//DTD SVG 1.1//EN"
 "http://www.w3.org/Graphics/SVG/1.1/DTD/svg11.dtd">
<!-- Generated by graphviz version 2.50.0 (20211204.2007)
 -->
<!-- Title: src/sensesp/net/http_server.cpp Pages: 1 -->
<svg width="1364pt" height="442pt"
 viewBox="0.00 0.00 1364.49 442.00" xmlns="http://www.w3.org/2000/svg" xmlns:xlink="http://www.w3.org/1999/xlink">
<g id="graph0" class="graph" transform="scale(1 1) rotate(0) translate(4 438)">
<title>src/sensesp/net/http_server.cpp</title>
<polygon fill="white" stroke="transparent" points="-4,4 -4,-438 1360.49,-438 1360.49,4 -4,4"/>
<!-- Node1 -->
<g id="node1" class="node">
<title>Node1</title>
<g id="a_node1"><a xlink:title=" ">
<polygon fill="#bfbfbf" stroke="black" points="618.99,-403.5 618.99,-433.5 724.99,-433.5 724.99,-403.5 618.99,-403.5"/>
<text text-anchor="start" x="626.99" y="-421.5" font-family="Helvetica,sans-Serif" font-size="10.00">src/sensesp/net/http</text>
<text text-anchor="middle" x="671.99" y="-410.5" font-family="Helvetica,sans-Serif" font-size="10.00">_server.cpp</text>
</a>
</g>
</g>
<!-- Node2 -->
<g id="node2" class="node">
<title>Node2</title>
<g id="a_node2"><a xlink:href="http__server_8h.html" target="_top" xlink:title=" ">
<polygon fill="white" stroke="black" points="104.49,-347.5 104.49,-366.5 177.49,-366.5 177.49,-347.5 104.49,-347.5"/>
<text text-anchor="middle" x="140.99" y="-354.5" font-family="Helvetica,sans-Serif" font-size="10.00">http_server.h</text>
</a>
</g>
</g>
<!-- Node1&#45;&gt;Node2 -->
<g id="edge1" class="edge">
<title>Node1&#45;&gt;Node2</title>
<path fill="none" stroke="midnightblue" d="M618.69,-413.52C531.02,-406.63 350.73,-391.01 187.81,-366.99"/>
<polygon fill="midnightblue" stroke="midnightblue" points="188.01,-363.48 177.6,-365.47 186.97,-370.4 188.01,-363.48"/>
</g>
<!-- Node3 -->
<g id="node3" class="node">
<title>Node3</title>
<g id="a_node3"><a xlink:title=" ">
<polygon fill="white" stroke="#bfbfbf" points="16.49,-291.5 16.49,-310.5 135.49,-310.5 135.49,-291.5 16.49,-291.5"/>
<text text-anchor="middle" x="75.99" y="-298.5" font-family="Helvetica,sans-Serif" font-size="10.00">ESPAsyncWebServer.h</text>
</a>
</g>
</g>
<!-- Node1&#45;&gt;Node3 -->
<g id="edge6" class="edge">
<title>Node1&#45;&gt;Node3</title>
<path fill="none" stroke="midnightblue" d="M618.65,-416.22C483.41,-412.5 134.99,-399.8 94.99,-367 81.52,-355.95 77.28,-335.91 76.09,-320.99"/>
<polygon fill="midnightblue" stroke="midnightblue" points="79.58,-320.66 75.68,-310.81 72.59,-320.94 79.58,-320.66"/>
</g>
<!-- Node4 -->
<g id="node4" class="node">
<title>Node4</title>
<g id="a_node4"><a xlink:title=" ">
<polygon fill="white" stroke="#bfbfbf" points="172.49,-123.5 172.49,-142.5 231.49,-142.5 231.49,-123.5 172.49,-123.5"/>
<text text-anchor="middle" x="201.99" y="-130.5" font-family="Helvetica,sans-Serif" font-size="10.00">functional</text>
</a>
</g>
</g>
<!-- Node1&#45;&gt;Node4 -->
<g id="edge9" class="edge">
<title>Node1&#45;&gt;Node4</title>
<path fill="none" stroke="midnightblue" d="M618.72,-416.87C491.95,-414.74 175.69,-405.61 77.99,-367 40.61,-352.23 24.53,-347.16 6.99,-311 -31.71,-231.17 100.29,-170.67 166.45,-146.06"/>
<polygon fill="midnightblue" stroke="midnightblue" points="167.88,-149.26 176.09,-142.55 165.49,-142.68 167.88,-149.26"/>
</g>
<!-- Node7 -->
<g id="node7" class="node">
<title>Node7</title>
<g id="a_node7"><a xlink:title=" ">
<polygon fill="white" stroke="#bfbfbf" points="689.49,-347.5 689.49,-366.5 764.49,-366.5 764.49,-347.5 689.49,-347.5"/>
<text text-anchor="middle" x="726.99" y="-354.5" font-family="Helvetica,sans-Serif" font-size="10.00">ESPmDNS.h</text>
</a>
</g>
</g>
<!-- Node1&#45;&gt;Node7 -->
<g id="edge7" class="edge">
<title>Node1&#45;&gt;Node7</title>
<path fill="none" stroke="midnightblue" d="M685.03,-403.4C693.18,-394.58 703.71,-383.18 712.19,-374.02"/>
<polygon fill="midnightblue" stroke="midnightblue" points="714.77,-376.38 718.99,-366.66 709.63,-371.63 714.77,-376.38"/>
</g>
<!-- Node8 -->
<g id="node8" class="node">
<title>Node8</title>
<g id="a_node8"><a xlink:title=" ">
<polygon fill="white" stroke="#bfbfbf" points="782.99,-347.5 782.99,-366.5 820.99,-366.5 820.99,-347.5 782.99,-347.5"/>
<text text-anchor="middle" x="801.99" y="-354.5" font-family="Helvetica,sans-Serif" font-size="10.00">FS.h</text>
</a>
</g>
</g>
<!-- Node1&#45;&gt;Node8 -->
<g id="edge8" class="edge">
<title>Node1&#45;&gt;Node8</title>
<path fill="none" stroke="midnightblue" d="M702.8,-403.4C724.32,-393.55 752.83,-380.5 773.76,-370.92"/>
<polygon fill="midnightblue" stroke="midnightblue" points="775.44,-374 783.08,-366.66 772.53,-367.64 775.44,-374"/>
</g>
<!-- Node9 -->
<g id="node9" class="node">
<title>Node9</title>
<g id="a_node9"><a xlink:title=" ">
<polygon fill="white" stroke="#bfbfbf" points="389.49,-123.5 389.49,-142.5 468.49,-142.5 468.49,-123.5 389.49,-123.5"/>
<text text-anchor="middle" x="428.99" y="-130.5" font-family="Helvetica,sans-Serif" font-size="10.00">ArduinoJson.h</text>
</a>
</g>
</g>
<!-- Node1&#45;&gt;Node9 -->
<g id="edge10" class="edge">
<title>Node1&#45;&gt;Node9</title>
<path fill="none" stroke="midnightblue" d="M618.93,-416.61C561.02,-413.69 466.95,-403.16 394.99,-367 362.4,-350.62 349.53,-344.45 334.99,-311 308.15,-249.22 375.66,-179.66 410.17,-149.41"/>
<polygon fill="midnightblue" stroke="midnightblue" points="412.82,-151.75 418.16,-142.6 408.28,-146.43 412.82,-151.75"/>
</g>
<!-- Node10 -->
<g id="node10" class="node">
<title>Node10</title>
<g id="a_node10"><a xlink:title=" ">
<polygon fill="white" stroke="#bfbfbf" points="838.99,-347.5 838.99,-366.5 912.99,-366.5 912.99,-347.5 838.99,-347.5"/>
<text text-anchor="middle" x="875.99" y="-354.5" font-family="Helvetica,sans-Serif" font-size="10.00">AsyncJson.h</text>
</a>
</g>
</g>
<!-- Node1&#45;&gt;Node10 -->
<g id="edge11" class="edge">
<title>Node1&#45;&gt;Node10</title>
<path fill="none" stroke="midnightblue" d="M720.08,-403.47C755.73,-393.08 803.72,-379.08 837,-369.37"/>
<polygon fill="midnightblue" stroke="midnightblue" points="838.21,-372.67 846.83,-366.51 836.25,-365.95 838.21,-372.67"/>
</g>
<!-- Node11 -->
<g id="node11" class="node">
<title>Node11</title>
<g id="a_node11"><a xlink:href="configurable_8h.html" target="_top" xlink:title=" ">
<polygon fill="white" stroke="black" points="195.99,-347.5 195.99,-366.5 347.99,-366.5 347.99,-347.5 195.99,-347.5"/>
<text text-anchor="middle" x="271.99" y="-354.5" font-family="Helvetica,sans-Serif" font-size="10.00">sensesp/system/configurable.h</text>
</a>
</g>
</g>
<!-- Node1&#45;&gt;Node11 -->
<g id="edge12" class="edge">
<title>Node1&#45;&gt;Node11</title>
<path fill="none" stroke="midnightblue" d="M618.88,-409.6C546.88,-398.89 418.28,-379.76 339.51,-368.04"/>
<polygon fill="midnightblue" stroke="midnightblue" points="339.62,-364.52 329.21,-366.51 338.59,-371.44 339.62,-364.52"/>
</g>
<!-- Node14 -->
<g id="node14" class="node">
<title>Node14</title>
<g id="a_node14"><a xlink:href="ui__output_8h.html" target="_top" xlink:title=" ">
<polygon fill="white" stroke="black" points="403.99,-347.5 403.99,-366.5 543.99,-366.5 543.99,-347.5 403.99,-347.5"/>
<text text-anchor="middle" x="473.99" y="-354.5" font-family="Helvetica,sans-Serif" font-size="10.00">sensesp/system/ui_output.h</text>
</a>
</g>
</g>
<!-- Node1&#45;&gt;Node14 -->
<g id="edge16" class="edge">
<title>Node1&#45;&gt;Node14</title>
<path fill="none" stroke="midnightblue" d="M625.32,-403.47C590.86,-393.12 544.54,-379.2 512.25,-369.5"/>
<polygon fill="midnightblue" stroke="midnightblue" points="512.88,-366.03 502.3,-366.51 510.87,-372.74 512.88,-366.03"/>
</g>
<!-- Node26 -->
<g id="node26" class="node">
<title>Node26</title>
<g id="a_node26"><a xlink:href="sensesp__base__app_8h.html" target="_top" xlink:title=" ">
<polygon fill="white" stroke="black" points="562.49,-347.5 562.49,-366.5 671.49,-366.5 671.49,-347.5 562.49,-347.5"/>
<text text-anchor="middle" x="616.99" y="-354.5" font-family="Helvetica,sans-Serif" font-size="10.00">sensesp_base_app.h</text>
</a>
</g>
</g>
<!-- Node1&#45;&gt;Node26 -->
<g id="edge39" class="edge">
<title>Node1&#45;&gt;Node26</title>
<path fill="none" stroke="midnightblue" d="M658.96,-403.4C650.8,-394.58 640.27,-383.18 631.8,-374.02"/>
<polygon fill="midnightblue" stroke="midnightblue" points="634.35,-371.63 625,-366.66 629.21,-376.38 634.35,-371.63"/>
</g>
<!-- Node30 -->
<g id="node30" class="node">
<title>Node30</title>
<g id="a_node30"><a xlink:href="css__bootstrap_8h.html" target="_top" xlink:title=" ">
<polygon fill="white" stroke="black" points="1162.49,-347.5 1162.49,-366.5 1269.49,-366.5 1269.49,-347.5 1162.49,-347.5"/>
<text text-anchor="middle" x="1215.99" y="-354.5" font-family="Helvetica,sans-Serif" font-size="10.00">web/css_bootstrap.h</text>
</a>
</g>
</g>
<!-- Node1&#45;&gt;Node30 -->
<g id="edge47" class="edge">
<title>Node1&#45;&gt;Node30</title>
<path fill="none" stroke="midnightblue" d="M725.21,-412.62C812.3,-404.49 990.97,-387.15 1152.14,-367.19"/>
<polygon fill="midnightblue" stroke="midnightblue" points="1152.75,-370.64 1162.24,-365.94 1151.89,-363.7 1152.75,-370.64"/>
</g>
<!-- Node32 -->
<g id="node32" class="node">
<title>Node32</title>
<g id="a_node32"><a xlink:href="index_8h.html" target="_top" xlink:title=" ">
<polygon fill="white" stroke="black" points="1287.49,-347.5 1287.49,-366.5 1356.49,-366.5 1356.49,-347.5 1287.49,-347.5"/>
<text text-anchor="middle" x="1321.99" y="-354.5" font-family="Helvetica,sans-Serif" font-size="10.00">web/index.h</text>
</a>
</g>
</g>
<!-- Node1&#45;&gt;Node32 -->
<g id="edge49" class="edge">
<title>Node1&#45;&gt;Node32</title>
<path fill="none" stroke="midnightblue" d="M725.02,-415.29C829.16,-410.47 1067.85,-397.08 1277.37,-367.08"/>
<polygon fill="midnightblue" stroke="midnightblue" points="1277.93,-370.54 1287.32,-365.64 1276.93,-363.61 1277.93,-370.54"/>
</g>
<!-- Node33 -->
<g id="node33" class="node">
<title>Node33</title>
<g id="a_node33"><a xlink:href="js__jsoneditor_8h.html" target="_top" xlink:title=" ">
<polygon fill="white" stroke="black" points="930.99,-347.5 930.99,-366.5 1030.99,-366.5 1030.99,-347.5 930.99,-347.5"/>
<text text-anchor="middle" x="980.99" y="-354.5" font-family="Helvetica,sans-Serif" font-size="10.00">web/js_jsoneditor.h</text>
</a>
</g>
</g>
<!-- Node1&#45;&gt;Node33 -->
<g id="edge51" class="edge">
<title>Node1&#45;&gt;Node33</title>
<path fill="none" stroke="midnightblue" d="M725.11,-407.27C781.43,-396.43 869.94,-379.38 926.7,-368.45"/>
<polygon fill="midnightblue" stroke="midnightblue" points="927.41,-371.88 936.57,-366.55 926.09,-365.01 927.41,-371.88"/>
</g>
<!-- Node34 -->
<g id="node34" class="node">
<title>Node34</title>
<g id="a_node34"><a xlink:href="js__sensesp_8h.html" target="_top" xlink:title=" ">
<polygon fill="white" stroke="black" points="1049.49,-347.5 1049.49,-366.5 1144.49,-366.5 1144.49,-347.5 1049.49,-347.5"/>
<text text-anchor="middle" x="1096.99" y="-354.5" font-family="Helvetica,sans-Serif" font-size="10.00">web/js_sensesp.h</text>
</a>
</g>
</g>
<!-- Node1&#45;&gt;Node34 -->
<g id="edge53" class="edge">
<title>Node1&#45;&gt;Node34</title>
<path fill="none" stroke="midnightblue" d="M725.06,-410.56C794.67,-401.38 920.89,-384.48 1039.44,-367.06"/>
<polygon fill="midnightblue" stroke="midnightblue" points="1040.03,-370.51 1049.42,-365.59 1039.01,-363.58 1040.03,-370.51"/>
</g>
<!-- Node2&#45;&gt;Node3 -->
<g id="edge2" class="edge">
<title>Node2&#45;&gt;Node3</title>
<path fill="none" stroke="midnightblue" d="M130.55,-347.32C120.85,-339.26 106.18,-327.08 94.49,-317.37"/>
<polygon fill="midnightblue" stroke="midnightblue" points="96.55,-314.53 86.63,-310.83 92.08,-319.92 96.55,-314.53"/>
</g>
<!-- Node2&#45;&gt;Node4 -->
<g id="edge3" class="edge">
<title>Node2&#45;&gt;Node4</title>
<path fill="none" stroke="midnightblue" d="M143.38,-347.3C152.38,-314.56 184.3,-198.38 196.86,-152.67"/>
<polygon fill="midnightblue" stroke="midnightblue" points="200.28,-153.45 199.55,-142.88 193.53,-151.6 200.28,-153.45"/>
</g>
<!-- Node5 -->
<g id="node5" class="node">
<title>Node5</title>
<g id="a_node5"><a xlink:href="startable_8h.html" target="_top" xlink:title=" ">
<polygon fill="white" stroke="black" points="654.49,-235.5 654.49,-254.5 791.49,-254.5 791.49,-235.5 654.49,-235.5"/>
<text text-anchor="middle" x="722.99" y="-242.5" font-family="Helvetica,sans-Serif" font-size="10.00">sensesp/system/startable.h</text>
</a>
</g>
</g>
<!-- Node2&#45;&gt;Node5 -->
<g id="edge4" class="edge">
<title>Node2&#45;&gt;Node5</title>
<path fill="none" stroke="midnightblue" d="M161.83,-347.42C196.92,-333.33 270.33,-305.42 334.99,-291 392.07,-278.27 548.34,-262.27 644.25,-253.18"/>
<polygon fill="midnightblue" stroke="midnightblue" points="644.86,-256.64 654.48,-252.22 644.2,-249.67 644.86,-256.64"/>
</g>
<!-- Node6 -->
<g id="node6" class="node">
<title>Node6</title>
<g id="a_node6"><a xlink:title=" ">
<polygon fill="white" stroke="#bfbfbf" points="765.49,-179.5 765.49,-198.5 808.49,-198.5 808.49,-179.5 765.49,-179.5"/>
<text text-anchor="middle" x="786.99" y="-186.5" font-family="Helvetica,sans-Serif" font-size="10.00">queue</text>
</a>
</g>
</g>
<!-- Node5&#45;&gt;Node6 -->
<g id="edge5" class="edge">
<title>Node5&#45;&gt;Node6</title>
<path fill="none" stroke="midnightblue" d="M733.27,-235.32C742.83,-227.26 757.27,-215.08 768.78,-205.37"/>
<polygon fill="midnightblue" stroke="midnightblue" points="771.14,-207.96 776.52,-198.83 766.62,-202.61 771.14,-207.96"/>
</g>
<!-- Node11&#45;&gt;Node9 -->
<g id="edge13" class="edge">
<title>Node11&#45;&gt;Node9</title>
<path fill="none" stroke="midnightblue" d="M270.68,-347.39C266.94,-319.44 259.07,-230.05 301.99,-179 321.15,-156.22 352.64,-144.97 379.47,-139.41"/>
<polygon fill="midnightblue" stroke="midnightblue" points="380.29,-142.82 389.48,-137.55 379.01,-135.93 380.29,-142.82"/>
</g>
<!-- Node12 -->
<g id="node12" class="node">
<title>Node12</title>
<g id="a_node12"><a xlink:title=" ">
<polygon fill="white" stroke="#bfbfbf" points="344.49,-291.5 344.49,-310.5 379.49,-310.5 379.49,-291.5 344.49,-291.5"/>
<text text-anchor="middle" x="361.99" y="-298.5" font-family="Helvetica,sans-Serif" font-size="10.00">map</text>
</a>
</g>
</g>
<!-- Node11&#45;&gt;Node12 -->
<g id="edge14" class="edge">
<title>Node11&#45;&gt;Node12</title>
<path fill="none" stroke="midnightblue" d="M286.45,-347.32C300.49,-338.9 322.04,-325.97 338.54,-316.07"/>
<polygon fill="midnightblue" stroke="midnightblue" points="340.79,-318.8 347.57,-310.65 337.19,-312.8 340.79,-318.8"/>
</g>
<!-- Node13 -->
<g id="node13" class="node">
<title>Node13</title>
<g id="a_node13"><a xlink:title=" ">
<polygon fill="white" stroke="#bfbfbf" points="574.99,-0.5 574.99,-19.5 632.99,-19.5 632.99,-0.5 574.99,-0.5"/>
<text text-anchor="middle" x="603.99" y="-7.5" font-family="Helvetica,sans-Serif" font-size="10.00">Arduino.h</text>
</a>
</g>
</g>
<!-- Node11&#45;&gt;Node13 -->
<g id="edge15" class="edge">
<title>Node11&#45;&gt;Node13</title>
<path fill="none" stroke="midnightblue" d="M261.8,-347.42C224.85,-315.3 103.08,-200.02 162.99,-123 212.77,-59 466.26,-25.63 564.77,-14.91"/>
<polygon fill="midnightblue" stroke="midnightblue" points="565.33,-18.37 574.9,-13.83 564.59,-11.41 565.33,-18.37"/>
</g>
<!-- Node14&#45;&gt;Node4 -->
<g id="edge18" class="edge">
<title>Node14&#45;&gt;Node4</title>
<path fill="none" stroke="midnightblue" d="M463.33,-347.3C422.11,-313.66 272.9,-191.88 220.41,-149.03"/>
<polygon fill="midnightblue" stroke="midnightblue" points="222.54,-146.25 212.58,-142.64 218.12,-151.68 222.54,-146.25"/>
</g>
<!-- Node14&#45;&gt;Node9 -->
<g id="edge17" class="edge">
<title>Node14&#45;&gt;Node9</title>
<path fill="none" stroke="midnightblue" d="M472.23,-347.3C465.61,-314.63 442.14,-198.87 432.83,-152.96"/>
<polygon fill="midnightblue" stroke="midnightblue" points="436.21,-151.99 430.79,-142.88 429.35,-153.38 436.21,-151.99"/>
</g>
<!-- Node14&#45;&gt;Node12 -->
<g id="edge19" class="edge">
<title>Node14&#45;&gt;Node12</title>
<path fill="none" stroke="midnightblue" d="M456,-347.32C437.85,-338.57 409.61,-324.96 388.82,-314.94"/>
<polygon fill="midnightblue" stroke="midnightblue" points="390.1,-311.67 379.57,-310.48 387.06,-317.97 390.1,-311.67"/>
</g>
<!-- Node14&#45;&gt;Node13 -->
<g id="edge20" class="edge">
<title>Node14&#45;&gt;Node13</title>
<path fill="none" stroke="midnightblue" d="M544.22,-347.61C639.86,-336.04 800.71,-316.05 812.99,-311 832.07,-303.16 875.29,-271.98 886.99,-255 904.08,-230.22 905.99,-220.1 905.99,-190 905.99,-190 905.99,-190 905.99,-132 905.99,-103.97 724.47,-46.68 642.89,-22.34"/>
<polygon fill="midnightblue" stroke="midnightblue" points="643.81,-18.96 633.22,-19.47 641.81,-25.67 643.81,-18.96"/>
</g>
<!-- Node15 -->
<g id="node15" class="node">
<title>Node15</title>
<g id="a_node15"><a xlink:href="observablevalue_8h.html" target="_top" xlink:title=" ">
<polygon fill="white" stroke="black" points="550.49,-291.5 550.49,-310.5 645.49,-310.5 645.49,-291.5 550.49,-291.5"/>
<text text-anchor="middle" x="597.99" y="-298.5" font-family="Helvetica,sans-Serif" font-size="10.00">observablevalue.h</text>
</a>
</g>
</g>
<!-- Node14&#45;&gt;Node15 -->
<g id="edge21" class="edge">
<title>Node14&#45;&gt;Node15</title>
<path fill="none" stroke="midnightblue" d="M493.64,-347.44C513.96,-338.6 545.9,-324.69 569.09,-314.59"/>
<polygon fill="midnightblue" stroke="midnightblue" points="570.67,-317.72 578.44,-310.52 567.87,-311.3 570.67,-317.72"/>
</g>
<!-- Node19 -->
<g id="node19" class="node">
<title>Node19</title>
<g id="a_node19"><a xlink:href="valueproducer_8h.html" target="_top" xlink:title=" ">
<polygon fill="white" stroke="black" points="512.49,-235.5 512.49,-254.5 597.49,-254.5 597.49,-235.5 512.49,-235.5"/>
<text text-anchor="middle" x="554.99" y="-242.5" font-family="Helvetica,sans-Serif" font-size="10.00">valueproducer.h</text>
</a>
</g>
</g>
<!-- Node14&#45;&gt;Node19 -->
<g id="edge38" class="edge">
<title>Node14&#45;&gt;Node19</title>
<path fill="none" stroke="midnightblue" d="M480.35,-347.37C493.77,-329.14 525.22,-286.43 542.71,-262.68"/>
<polygon fill="midnightblue" stroke="midnightblue" points="545.55,-264.72 548.67,-254.59 539.92,-260.57 545.55,-264.72"/>
</g>
<!-- Node20 -->
<g id="node20" class="node">
<title>Node20</title>
<g id="a_node20"><a xlink:href="valueconsumer_8h.html" target="_top" xlink:title=" ">
<polygon fill="white" stroke="black" points="509.99,-179.5 509.99,-198.5 599.99,-198.5 599.99,-179.5 509.99,-179.5"/>
<text text-anchor="middle" x="554.99" y="-186.5" font-family="Helvetica,sans-Serif" font-size="10.00">valueconsumer.h</text>
</a>
</g>
</g>
<!-- Node14&#45;&gt;Node20 -->
<g id="edge37" class="edge">
<title>Node14&#45;&gt;Node20</title>
<path fill="none" stroke="midnightblue" d="M474.28,-347.41C475.32,-326.6 480.21,-272.47 502.99,-235 510.36,-222.89 522.08,-212.33 532.53,-204.49"/>
<polygon fill="midnightblue" stroke="midnightblue" points="534.75,-207.21 540.89,-198.57 530.7,-201.49 534.75,-207.21"/>
</g>
<!-- Node16 -->
<g id="node16" class="node">
<title>Node16</title>
<g id="a_node16"><a xlink:href="observable_8h.html" target="_top" xlink:title=" ">
<polygon fill="white" stroke="black" points="617.99,-179.5 617.99,-198.5 689.99,-198.5 689.99,-179.5 617.99,-179.5"/>
<text text-anchor="middle" x="653.99" y="-186.5" font-family="Helvetica,sans-Serif" font-size="10.00">observable.h</text>
</a>
</g>
</g>
<!-- Node15&#45;&gt;Node16 -->
<g id="edge22" class="edge">
<title>Node15&#45;&gt;Node16</title>
<path fill="none" stroke="midnightblue" d="M602.39,-291.37C611.55,-273.38 632.84,-231.55 645.02,-207.63"/>
<polygon fill="midnightblue" stroke="midnightblue" points="648.2,-209.09 649.62,-198.59 641.96,-205.92 648.2,-209.09"/>
</g>
<!-- Node15&#45;&gt;Node19 -->
<g id="edge26" class="edge">
<title>Node15&#45;&gt;Node19</title>
<path fill="none" stroke="midnightblue" d="M590.89,-291.08C584.76,-283.38 575.72,-272.03 568.25,-262.65"/>
<polygon fill="midnightblue" stroke="midnightblue" points="570.93,-260.39 561.96,-254.75 565.45,-264.75 570.93,-260.39"/>
</g>
<!-- Node16&#45;&gt;Node4 -->
<g id="edge24" class="edge">
<title>Node16&#45;&gt;Node4</title>
<path fill="none" stroke="midnightblue" d="M617.69,-180.46C614.75,-179.93 611.83,-179.44 608.99,-179 475.08,-158.25 314.92,-143.45 241.86,-137.24"/>
<polygon fill="midnightblue" stroke="midnightblue" points="241.99,-133.74 231.73,-136.39 241.4,-140.72 241.99,-133.74"/>
</g>
<!-- Node17 -->
<g id="node17" class="node">
<title>Node17</title>
<g id="a_node17"><a xlink:title=" ">
<polygon fill="white" stroke="#bfbfbf" points="634.49,-123.5 634.49,-142.5 701.49,-142.5 701.49,-123.5 634.49,-123.5"/>
<text text-anchor="middle" x="667.99" y="-130.5" font-family="Helvetica,sans-Serif" font-size="10.00">forward_list</text>
</a>
</g>
</g>
<!-- Node16&#45;&gt;Node17 -->
<g id="edge23" class="edge">
<title>Node16&#45;&gt;Node17</title>
<path fill="none" stroke="midnightblue" d="M656.3,-179.08C658.16,-171.93 660.83,-161.64 663.15,-152.69"/>
<polygon fill="midnightblue" stroke="midnightblue" points="666.6,-153.31 665.72,-142.75 659.83,-151.55 666.6,-153.31"/>
</g>
<!-- Node18 -->
<g id="node18" class="node">
<title>Node18</title>
<g id="a_node18"><a xlink:title=" ">
<polygon fill="white" stroke="#bfbfbf" points="719.99,-123.5 719.99,-142.5 763.99,-142.5 763.99,-123.5 719.99,-123.5"/>
<text text-anchor="middle" x="741.99" y="-130.5" font-family="Helvetica,sans-Serif" font-size="10.00">vector</text>
</a>
</g>
</g>
<!-- Node16&#45;&gt;Node18 -->
<g id="edge25" class="edge">
<title>Node16&#45;&gt;Node18</title>
<path fill="none" stroke="midnightblue" d="M668.13,-179.32C681.86,-170.9 702.93,-157.97 719.06,-148.07"/>
<polygon fill="midnightblue" stroke="midnightblue" points="721.2,-150.87 727.89,-142.65 717.53,-144.9 721.2,-150.87"/>
</g>
<!-- Node19&#45;&gt;Node9 -->
<g id="edge27" class="edge">
<title>Node19&#45;&gt;Node9</title>
<path fill="none" stroke="midnightblue" d="M544.54,-235.49C533.58,-226.53 515.93,-211.95 500.99,-199 481.85,-182.4 460.34,-162.85 445.85,-149.57"/>
<polygon fill="midnightblue" stroke="midnightblue" points="447.94,-146.73 438.21,-142.53 443.2,-151.88 447.94,-146.73"/>
</g>
<!-- Node19&#45;&gt;Node16 -->
<g id="edge28" class="edge">
<title>Node19&#45;&gt;Node16</title>
<path fill="none" stroke="midnightblue" d="M570.9,-235.32C586.63,-226.74 610.93,-213.49 629.2,-203.52"/>
<polygon fill="midnightblue" stroke="midnightblue" points="631.02,-206.52 638.13,-198.65 627.67,-200.37 631.02,-206.52"/>
</g>
<!-- Node19&#45;&gt;Node20 -->
<g id="edge29" class="edge">
<title>Node19&#45;&gt;Node20</title>
<path fill="none" stroke="midnightblue" d="M554.99,-235.08C554.99,-228.01 554.99,-217.86 554.99,-208.99"/>
<polygon fill="midnightblue" stroke="midnightblue" points="558.49,-208.75 554.99,-198.75 551.49,-208.75 558.49,-208.75"/>
</g>
<!-- Node20&#45;&gt;Node9 -->
<g id="edge30" class="edge">
<title>Node20&#45;&gt;Node9</title>
<path fill="none" stroke="midnightblue" d="M535.03,-179.44C514.38,-170.6 481.93,-156.69 458.36,-146.59"/>
<polygon fill="midnightblue" stroke="midnightblue" points="459.43,-143.24 448.86,-142.52 456.68,-149.67 459.43,-143.24"/>
</g>
<!-- Node21 -->
<g id="node21" class="node">
<title>Node21</title>
<g id="a_node21"><a xlink:title=" ">
<polygon fill="white" stroke="#bfbfbf" points="486.49,-123.5 486.49,-142.5 535.49,-142.5 535.49,-123.5 486.49,-123.5"/>
<text text-anchor="middle" x="510.99" y="-130.5" font-family="Helvetica,sans-Serif" font-size="10.00">stdint.h</text>
</a>
</g>
</g>
<!-- Node20&#45;&gt;Node21 -->
<g id="edge31" class="edge">
<title>Node20&#45;&gt;Node21</title>
<path fill="none" stroke="midnightblue" d="M547.73,-179.08C541.45,-171.38 532.2,-160.03 524.56,-150.65"/>
<polygon fill="midnightblue" stroke="midnightblue" points="527.15,-148.29 518.12,-142.75 521.73,-152.71 527.15,-148.29"/>
</g>
<!-- Node22 -->
<g id="node22" class="node">
<title>Node22</title>
<g id="a_node22"><a xlink:href="sensesp_8h.html" target="_top" xlink:title=" ">
<polygon fill="white" stroke="black" points="553.99,-123.5 553.99,-142.5 615.99,-142.5 615.99,-123.5 553.99,-123.5"/>
<text text-anchor="middle" x="584.99" y="-130.5" font-family="Helvetica,sans-Serif" font-size="10.00">sensesp.h</text>
</a>
</g>
</g>
<!-- Node20&#45;&gt;Node22 -->
<g id="edge32" class="edge">
<title>Node20&#45;&gt;Node22</title>
<path fill="none" stroke="midnightblue" d="M559.95,-179.08C564.1,-171.61 570.15,-160.72 575.26,-151.52"/>
<polygon fill="midnightblue" stroke="midnightblue" points="578.33,-153.19 580.13,-142.75 572.21,-149.79 578.33,-153.19"/>
</g>
<!-- Node23 -->
<g id="node23" class="node">
<title>Node23</title>
<g id="a_node23"><a xlink:title=" ">
<polygon fill="white" stroke="#bfbfbf" points="494.99,-62 494.99,-81 564.99,-81 564.99,-62 494.99,-62"/>
<text text-anchor="middle" x="529.99" y="-69" font-family="Helvetica,sans-Serif" font-size="10.00">ReactESP.h</text>
</a>
</g>
</g>
<!-- Node22&#45;&gt;Node23 -->
<g id="edge33" class="edge">
<title>Node22&#45;&gt;Node23</title>
<path fill="none" stroke="midnightblue" d="M577.11,-123.48C568.7,-114.37 555.17,-99.74 544.77,-88.48"/>
<polygon fill="midnightblue" stroke="midnightblue" points="547.22,-85.98 537.86,-81.01 542.08,-90.73 547.22,-85.98"/>
</g>
<!-- Node24 -->
<g id="node24" class="node">
<title>Node24</title>
<g id="a_node24"><a xlink:href="local__debug_8h.html" target="_top" xlink:title=" ">
<polygon fill="white" stroke="black" points="582.99,-56.5 582.99,-86.5 694.99,-86.5 694.99,-56.5 582.99,-56.5"/>
<text text-anchor="start" x="590.99" y="-74.5" font-family="Helvetica,sans-Serif" font-size="10.00">sensesp/system/local</text>
<text text-anchor="middle" x="638.99" y="-63.5" font-family="Helvetica,sans-Serif" font-size="10.00">_debug.h</text>
</a>
</g>
</g>
<!-- Node22&#45;&gt;Node24 -->
<g id="edge34" class="edge">
<title>Node22&#45;&gt;Node24</title>
<path fill="none" stroke="midnightblue" d="M592.73,-123.48C599.7,-115.79 610.25,-104.17 619.51,-93.96"/>
<polygon fill="midnightblue" stroke="midnightblue" points="622.14,-96.28 626.27,-86.52 616.95,-91.58 622.14,-96.28"/>
</g>
<!-- Node24&#45;&gt;Node13 -->
<g id="edge35" class="edge">
<title>Node24&#45;&gt;Node13</title>
<path fill="none" stroke="midnightblue" d="M630.7,-56.4C625.77,-48.02 619.48,-37.33 614.24,-28.42"/>
<polygon fill="midnightblue" stroke="midnightblue" points="617.17,-26.5 609.09,-19.66 611.14,-30.05 617.17,-26.5"/>
</g>
<!-- Node25 -->
<g id="node25" class="node">
<title>Node25</title>
<g id="a_node25"><a xlink:title=" ">
<polygon fill="white" stroke="#bfbfbf" points="651.49,-0.5 651.49,-19.5 696.49,-19.5 696.49,-0.5 651.49,-0.5"/>
<text text-anchor="middle" x="673.99" y="-7.5" font-family="Helvetica,sans-Serif" font-size="10.00">Print.h</text>
</a>
</g>
</g>
<!-- Node24&#45;&gt;Node25 -->
<g id="edge36" class="edge">
<title>Node24&#45;&gt;Node25</title>
<path fill="none" stroke="midnightblue" d="M647.29,-56.4C652.22,-48.02 658.51,-37.33 663.74,-28.42"/>
<polygon fill="midnightblue" stroke="midnightblue" points="666.85,-30.05 668.9,-19.66 660.81,-26.5 666.85,-30.05"/>
</g>
<!-- Node26&#45;&gt;Node15 -->
<g id="edge46" class="edge">
<title>Node26&#45;&gt;Node15</title>
<path fill="none" stroke="midnightblue" d="M613.85,-347.08C611.31,-339.85 607.64,-329.41 604.47,-320.4"/>
<polygon fill="midnightblue" stroke="midnightblue" points="607.69,-319.02 601.07,-310.75 601.09,-321.35 607.69,-319.02"/>
</g>
<!-- Node26&#45;&gt;Node22 -->
<g id="edge40" class="edge">
<title>Node26&#45;&gt;Node22</title>
<path fill="none" stroke="midnightblue" d="M671.61,-348.08C674.45,-347.7 677.25,-347.34 679.99,-347 754.29,-337.7 964.96,-366.7 1014.99,-311 1138.96,-173 821.03,-180.8 626.45,-143.19"/>
<polygon fill="midnightblue" stroke="midnightblue" points="626.9,-139.71 616.41,-141.18 625.53,-146.57 626.9,-139.71"/>
</g>
<!-- Node27 -->
<g id="node27" class="node">
<title>Node27</title>
<g id="a_node27"><a xlink:href="debug__output_8h.html" target="_top" xlink:title=" ">
<polygon fill="white" stroke="black" points="663.99,-291.5 663.99,-310.5 803.99,-310.5 803.99,-291.5 663.99,-291.5"/>
<text text-anchor="middle" x="733.99" y="-298.5" font-family="Helvetica,sans-Serif" font-size="10.00">sensesp/net/debug_output.h</text>
</a>
</g>
</g>
<!-- Node26&#45;&gt;Node27 -->
<g id="edge41" class="edge">
<title>Node26&#45;&gt;Node27</title>
<path fill="none" stroke="midnightblue" d="M635.53,-347.44C654.62,-338.64 684.57,-324.81 706.43,-314.72"/>
<polygon fill="midnightblue" stroke="midnightblue" points="707.93,-317.88 715.54,-310.52 704.99,-311.53 707.93,-317.88"/>
</g>
<!-- Node28 -->
<g id="node28" class="node">
<title>Node28</title>
<g id="a_node28"><a xlink:href="filesystem_8h.html" target="_top" xlink:title=" ">
<polygon fill="white" stroke="black" points="860.49,-291.5 860.49,-310.5 1005.49,-310.5 1005.49,-291.5 860.49,-291.5"/>
<text text-anchor="middle" x="932.99" y="-298.5" font-family="Helvetica,sans-Serif" font-size="10.00">sensesp/system/filesystem.h</text>
</a>
</g>
</g>
<!-- Node26&#45;&gt;Node28 -->
<g id="edge43" class="edge">
<title>Node26&#45;&gt;Node28</title>
<path fill="none" stroke="midnightblue" d="M667.06,-347.44C723,-337.89 813.5,-322.42 873.13,-312.23"/>
<polygon fill="midnightblue" stroke="midnightblue" points="873.89,-315.65 883.16,-310.52 872.71,-308.75 873.89,-315.65"/>
</g>
<!-- Node27&#45;&gt;Node5 -->
<g id="edge42" class="edge">
<title>Node27&#45;&gt;Node5</title>
<path fill="none" stroke="midnightblue" d="M732.18,-291.08C730.72,-283.93 728.62,-273.64 726.8,-264.69"/>
<polygon fill="midnightblue" stroke="midnightblue" points="730.2,-263.85 724.77,-254.75 723.34,-265.25 730.2,-263.85"/>
</g>
<!-- Node29 -->
<g id="node29" class="node">
<title>Node29</title>
<g id="a_node29"><a xlink:href="resettable_8h.html" target="_top" xlink:title=" ">
<polygon fill="white" stroke="black" points="809.99,-235.5 809.99,-254.5 877.99,-254.5 877.99,-235.5 809.99,-235.5"/>
<text text-anchor="middle" x="843.99" y="-242.5" font-family="Helvetica,sans-Serif" font-size="10.00">resettable.h</text>
</a>
</g>
</g>
<!-- Node28&#45;&gt;Node29 -->
<g id="edge44" class="edge">
<title>Node28&#45;&gt;Node29</title>
<path fill="none" stroke="midnightblue" d="M918.69,-291.32C904.81,-282.9 883.5,-269.97 867.19,-260.07"/>
<polygon fill="midnightblue" stroke="midnightblue" points="868.62,-256.85 858.26,-254.65 864.99,-262.83 868.62,-256.85"/>
</g>
<!-- Node29&#45;&gt;Node6 -->
<g id="edge45" class="edge">
<title>Node29&#45;&gt;Node6</title>
<path fill="none" stroke="midnightblue" d="M834.83,-235.32C826.49,-227.42 813.96,-215.55 803.82,-205.94"/>
<polygon fill="midnightblue" stroke="midnightblue" points="805.98,-203.17 796.32,-198.83 801.17,-208.25 805.98,-203.17"/>
</g>
<!-- Node31 -->
<g id="node31" class="node">
<title>Node31</title>
<g id="a_node31"><a xlink:title=" ">
<polygon fill="white" stroke="#bfbfbf" points="1120.99,-291.5 1120.99,-310.5 1190.99,-310.5 1190.99,-291.5 1120.99,-291.5"/>
<text text-anchor="middle" x="1155.99" y="-298.5" font-family="Helvetica,sans-Serif" font-size="10.00">pgmspace.h</text>
</a>
</g>
</g>
<!-- Node30&#45;&gt;Node31 -->
<g id="edge48" class="edge">
<title>Node30&#45;&gt;Node31</title>
<path fill="none" stroke="midnightblue" d="M1206.35,-347.32C1197.48,-339.34 1184.12,-327.31 1173.38,-317.65"/>
<polygon fill="midnightblue" stroke="midnightblue" points="1175.58,-314.92 1165.81,-310.83 1170.9,-320.13 1175.58,-314.92"/>
</g>
<!-- Node32&#45;&gt;Node31 -->
<g id="edge50" class="edge">
<title>Node32&#45;&gt;Node31</title>
<path fill="none" stroke="midnightblue" d="M1295.69,-347.44C1267.64,-338.32 1223.05,-323.81 1191.81,-313.65"/>
<polygon fill="midnightblue" stroke="midnightblue" points="1192.76,-310.28 1182.17,-310.52 1190.6,-316.94 1192.76,-310.28"/>
</g>
<!-- Node33&#45;&gt;Node31 -->
<g id="edge52" class="edge">
<title>Node33&#45;&gt;Node31</title>
<path fill="none" stroke="midnightblue" d="M1008.72,-347.44C1038.42,-338.28 1085.71,-323.69 1118.66,-313.52"/>
<polygon fill="midnightblue" stroke="midnightblue" points="1119.87,-316.81 1128.39,-310.52 1117.81,-310.12 1119.87,-316.81"/>
</g>
<!-- Node34&#45;&gt;Node31 -->
<g id="edge54" class="edge">
<title>Node34&#45;&gt;Node31</title>
<path fill="none" stroke="midnightblue" d="M1106.47,-347.32C1115.19,-339.34 1128.34,-327.31 1138.89,-317.65"/>
<polygon fill="midnightblue" stroke="midnightblue" points="1141.33,-320.17 1146.34,-310.83 1136.6,-315 1141.33,-320.17"/>
</g>
</g>
</svg>
