<?xml version="1.0" encoding="UTF-8" standalone="no"?>
<!DOCTYPE svg PUBLIC "-//W3C//DTD SVG 1.1//EN"
 "http://www.w3.org/Graphics/SVG/1.1/DTD/svg11.dtd">
<!-- Generated by graphviz version 12.1.0 (20240811.2233)
 -->
<!-- Title: src/sensesp/net/http_server.cpp Pages: 1 -->
<svg width="1306pt" height="547pt"
 viewBox="0.00 0.00 1305.50 547.00" xmlns="http://www.w3.org/2000/svg" xmlns:xlink="http://www.w3.org/1999/xlink">
<g id="graph0" class="graph" transform="scale(1 1) rotate(0) translate(4 543)">
<title>src/sensesp/net/http_server.cpp</title>
<!-- Node1 -->
<g id="Node000001" class="node">
<title>Node1</title>
<g id="a_Node000001"><a xlink:title=" ">
<polygon fill="#999999" stroke="#666666" points="1204.62,-539 1099.38,-539 1099.38,-508.5 1204.62,-508.5 1204.62,-539"/>
<text text-anchor="start" x="1107.38" y="-525.5" font-family="Helvetica,sans-Serif" font-size="10.00">src/sensesp/net/http</text>
<text text-anchor="middle" x="1152" y="-514.25" font-family="Helvetica,sans-Serif" font-size="10.00">_server.cpp</text>
</a>
</g>
</g>
<!-- Node2 -->
<g id="Node000002" class="node">
<title>Node2</title>
<g id="a_Node000002"><a xlink:href="sensesp_8h.html" target="_top" xlink:title=" ">
<polygon fill="white" stroke="#666666" points="848.5,-141 787.5,-141 787.5,-121.75 848.5,-121.75 848.5,-141"/>
<text text-anchor="middle" x="818" y="-127.5" font-family="Helvetica,sans-Serif" font-size="10.00">sensesp.h</text>
</a>
</g>
</g>
<!-- Node1&#45;&gt;Node2 -->
<g id="edge1_Node000001_Node000002" class="edge">
<title>Node1&#45;&gt;Node2</title>
<g id="a_edge1_Node000001_Node000002"><a xlink:title=" ">
<path fill="none" stroke="#63b8ff" d="M1160.25,-508.13C1171.42,-486.91 1190,-446.01 1190,-408.62 1190,-408.62 1190,-408.62 1190,-240.88 1190,-172.82 957.67,-144.57 860.22,-135.71"/>
<polygon fill="#63b8ff" stroke="#63b8ff" points="860.53,-132.22 850.27,-134.83 859.92,-139.2 860.53,-132.22"/>
</a>
</g>
</g>
<!-- Node8 -->
<g id="Node000008" class="node">
<title>Node8</title>
<g id="a_Node000008"><a xlink:href="http__server_8h.html" target="_top" xlink:title=" ">
<polygon fill="white" stroke="#666666" points="839.25,-472.5 710.75,-472.5 710.75,-453.25 839.25,-453.25 839.25,-472.5"/>
<text text-anchor="middle" x="775" y="-459" font-family="Helvetica,sans-Serif" font-size="10.00">sensesp/net/http_server.h</text>
</a>
</g>
</g>
<!-- Node1&#45;&gt;Node8 -->
<g id="edge7_Node000001_Node000008" class="edge">
<title>Node1&#45;&gt;Node8</title>
<g id="a_edge7_Node000001_Node000008"><a xlink:title=" ">
<path fill="none" stroke="#63b8ff" d="M1099.18,-514.5C1032.59,-504.1 917.92,-486.2 844.34,-474.7"/>
<polygon fill="#63b8ff" stroke="#63b8ff" points="845.25,-471.3 834.83,-473.22 844.17,-478.22 845.25,-471.3"/>
</a>
</g>
</g>
<!-- Node11 -->
<g id="Node000011" class="node">
<title>Node11</title>
<g id="a_Node000011"><a xlink:title=" ">
<polygon fill="#e0e0e0" stroke="#999999" points="67,-196.25 9,-196.25 9,-177 67,-177 67,-196.25"/>
<text text-anchor="middle" x="38" y="-182.75" font-family="Helvetica,sans-Serif" font-size="10.00">functional</text>
</a>
</g>
</g>
<!-- Node1&#45;&gt;Node11 -->
<g id="edge60_Node000001_Node000011" class="edge">
<title>Node1&#45;&gt;Node11</title>
<g id="a_edge60_Node000001_Node000011"><a xlink:title=" ">
<path fill="none" stroke="#63b8ff" d="M1099.13,-523.14C873.16,-524.11 0,-520.61 0,-408.62 0,-408.62 0,-408.62 0,-296.12 0,-263.13 15.84,-227.51 27.07,-206.41"/>
<polygon fill="#63b8ff" stroke="#63b8ff" points="30.02,-208.3 31.82,-197.86 23.9,-204.9 30.02,-208.3"/>
</a>
</g>
</g>
<!-- Node12 -->
<g id="Node000012" class="node">
<title>Node12</title>
<g id="a_Node000012"><a xlink:title=" ">
<polygon fill="#e0e0e0" stroke="#999999" points="986.4,-362 957.6,-362 957.6,-342.75 986.4,-342.75 986.4,-362"/>
<text text-anchor="middle" x="972" y="-348.5" font-family="Helvetica,sans-Serif" font-size="10.00">list</text>
</a>
</g>
</g>
<!-- Node1&#45;&gt;Node12 -->
<g id="edge61_Node000001_Node000012" class="edge">
<title>Node1&#45;&gt;Node12</title>
<g id="a_edge61_Node000001_Node000012"><a xlink:title=" ">
<path fill="none" stroke="#63b8ff" d="M1149.22,-508.27C1143.54,-482.54 1128.25,-428.68 1095,-398 1067.78,-372.89 1025.34,-361.66 998.11,-356.82"/>
<polygon fill="#63b8ff" stroke="#63b8ff" points="998.7,-353.37 988.28,-355.26 997.6,-360.28 998.7,-353.37"/>
</a>
</g>
</g>
<!-- Node37 -->
<g id="Node000037" class="node">
<title>Node37</title>
<g id="a_Node000037"><a xlink:title=" ">
<polygon fill="#e0e0e0" stroke="#999999" points="1297.5,-472.5 1218.5,-472.5 1218.5,-453.25 1297.5,-453.25 1297.5,-472.5"/>
<text text-anchor="middle" x="1258" y="-459" font-family="Helvetica,sans-Serif" font-size="10.00">lwip/sockets.h</text>
</a>
</g>
</g>
<!-- Node1&#45;&gt;Node37 -->
<g id="edge62_Node000001_Node000037" class="edge">
<title>Node1&#45;&gt;Node37</title>
<g id="a_edge62_Node000001_Node000037"><a xlink:title=" ">
<path fill="none" stroke="#63b8ff" d="M1178.47,-508.05C1194.77,-498.99 1215.58,-487.44 1231.82,-478.41"/>
<polygon fill="#63b8ff" stroke="#63b8ff" points="1233.38,-481.55 1240.42,-473.64 1229.98,-475.43 1233.38,-481.55"/>
</a>
</g>
</g>
<!-- Node3 -->
<g id="Node000003" class="node">
<title>Node3</title>
<g id="a_Node000003"><a xlink:title=" ">
<polygon fill="#e0e0e0" stroke="#999999" points="744.62,-80.12 675.38,-80.12 675.38,-60.88 744.62,-60.88 744.62,-80.12"/>
<text text-anchor="middle" x="710" y="-66.62" font-family="Helvetica,sans-Serif" font-size="10.00">ReactESP.h</text>
</a>
</g>
</g>
<!-- Node2&#45;&gt;Node3 -->
<g id="edge2_Node000002_Node000003" class="edge">
<title>Node2&#45;&gt;Node3</title>
<g id="a_edge2_Node000002_Node000003"><a xlink:title=" ">
<path fill="none" stroke="#63b8ff" d="M801.6,-121.43C784.31,-112.01 756.82,-97.02 736.46,-85.93"/>
<polygon fill="#63b8ff" stroke="#63b8ff" points="738.34,-82.96 727.89,-81.25 734.99,-89.11 738.34,-82.96"/>
</a>
</g>
</g>
<!-- Node4 -->
<g id="Node000004" class="node">
<title>Node4</title>
<g id="a_Node000004"><a xlink:href="local__debug_8h.html" target="_top" xlink:title=" ">
<polygon fill="white" stroke="#666666" points="873.62,-85.75 762.38,-85.75 762.38,-55.25 873.62,-55.25 873.62,-85.75"/>
<text text-anchor="start" x="770.38" y="-72.25" font-family="Helvetica,sans-Serif" font-size="10.00">sensesp/system/local</text>
<text text-anchor="middle" x="818" y="-61" font-family="Helvetica,sans-Serif" font-size="10.00">_debug.h</text>
</a>
</g>
</g>
<!-- Node2&#45;&gt;Node4 -->
<g id="edge3_Node000002_Node000004" class="edge">
<title>Node2&#45;&gt;Node4</title>
<g id="a_edge3_Node000002_Node000004"><a xlink:title=" ">
<path fill="none" stroke="#63b8ff" d="M818,-121.43C818,-114.98 818,-105.91 818,-97.26"/>
<polygon fill="#63b8ff" stroke="#63b8ff" points="821.5,-97.55 818,-87.55 814.5,-97.55 821.5,-97.55"/>
</a>
</g>
</g>
<!-- Node5 -->
<g id="Node000005" class="node">
<title>Node5</title>
<g id="a_Node000005"><a xlink:title=" ">
<polygon fill="#e0e0e0" stroke="#999999" points="818,-19.25 736,-19.25 736,0 818,0 818,-19.25"/>
<text text-anchor="middle" x="777" y="-5.75" font-family="Helvetica,sans-Serif" font-size="10.00">esp32&#45;hal&#45;log.h</text>
</a>
</g>
</g>
<!-- Node4&#45;&gt;Node5 -->
<g id="edge4_Node000004_Node000005" class="edge">
<title>Node4&#45;&gt;Node5</title>
<g id="a_edge4_Node000004_Node000005"><a xlink:title=" ">
<path fill="none" stroke="#63b8ff" d="M807.87,-54.95C802.4,-47.1 795.61,-37.35 789.79,-28.99"/>
<polygon fill="#63b8ff" stroke="#63b8ff" points="792.77,-27.15 784.19,-20.94 787.03,-31.15 792.77,-27.15"/>
</a>
</g>
</g>
<!-- Node6 -->
<g id="Node000006" class="node">
<title>Node6</title>
<g id="a_Node000006"><a xlink:title=" ">
<polygon fill="#e0e0e0" stroke="#999999" points="632.62,-19.25 575.38,-19.25 575.38,0 632.62,0 632.62,-19.25"/>
<text text-anchor="middle" x="604" y="-5.75" font-family="Helvetica,sans-Serif" font-size="10.00">Arduino.h</text>
</a>
</g>
</g>
<!-- Node4&#45;&gt;Node6 -->
<g id="edge5_Node000004_Node000006" class="edge">
<title>Node4&#45;&gt;Node6</title>
<g id="a_edge5_Node000004_Node000006"><a xlink:title=" ">
<path fill="none" stroke="#63b8ff" d="M764.55,-54.8C727.07,-44.48 677.77,-30.92 643.74,-21.56"/>
<polygon fill="#63b8ff" stroke="#63b8ff" points="644.85,-18.23 634.28,-18.96 643,-24.98 644.85,-18.23"/>
</a>
</g>
</g>
<!-- Node7 -->
<g id="Node000007" class="node">
<title>Node7</title>
<g id="a_Node000007"><a xlink:title=" ">
<polygon fill="#e0e0e0" stroke="#999999" points="880.25,-19.25 835.75,-19.25 835.75,0 880.25,0 880.25,-19.25"/>
<text text-anchor="middle" x="858" y="-5.75" font-family="Helvetica,sans-Serif" font-size="10.00">Print.h</text>
</a>
</g>
</g>
<!-- Node4&#45;&gt;Node7 -->
<g id="edge6_Node000004_Node000007" class="edge">
<title>Node4&#45;&gt;Node7</title>
<g id="a_edge6_Node000004_Node000007"><a xlink:title=" ">
<path fill="none" stroke="#63b8ff" d="M827.89,-54.95C833.22,-47.1 839.85,-37.35 845.53,-28.99"/>
<polygon fill="#63b8ff" stroke="#63b8ff" points="848.26,-31.19 850.98,-20.95 842.47,-27.26 848.26,-31.19"/>
</a>
</g>
</g>
<!-- Node8&#45;&gt;Node2 -->
<g id="edge8_Node000008_Node000002" class="edge">
<title>Node8&#45;&gt;Node2</title>
<g id="a_edge8_Node000008_Node000002"><a xlink:title=" ">
<path fill="none" stroke="#63b8ff" d="M839.66,-460.91C921.91,-458.35 1057.78,-449.25 1095,-417.25 1117.46,-397.94 1114,-382.99 1114,-353.38 1114,-353.38 1114,-353.38 1114,-240.88 1114,-187.36 941.28,-152.29 859.72,-138.72"/>
<polygon fill="#63b8ff" stroke="#63b8ff" points="860.77,-135.34 850.33,-137.19 859.64,-142.25 860.77,-135.34"/>
</a>
</g>
</g>
<!-- Node9 -->
<g id="Node000009" class="node">
<title>Node9</title>
<g id="a_Node000009"><a xlink:title=" ">
<polygon fill="#e0e0e0" stroke="#999999" points="394.25,-417.25 319.75,-417.25 319.75,-398 394.25,-398 394.25,-417.25"/>
<text text-anchor="middle" x="357" y="-403.75" font-family="Helvetica,sans-Serif" font-size="10.00">ESPmDNS.h</text>
</a>
</g>
</g>
<!-- Node8&#45;&gt;Node9 -->
<g id="edge9_Node000008_Node000009" class="edge">
<title>Node8&#45;&gt;Node9</title>
<g id="a_edge9_Node000008_Node000009"><a xlink:title=" ">
<path fill="none" stroke="#63b8ff" d="M710.31,-455.42C638.36,-447.95 518.41,-434.63 405.84,-417.6"/>
<polygon fill="#63b8ff" stroke="#63b8ff" points="406.53,-414.17 396.12,-416.12 405.47,-421.09 406.53,-414.17"/>
</a>
</g>
</g>
<!-- Node10 -->
<g id="Node000010" class="node">
<title>Node10</title>
<g id="a_Node000010"><a xlink:title=" ">
<polygon fill="#e0e0e0" stroke="#999999" points="751.62,-362 658.38,-362 658.38,-342.75 751.62,-342.75 751.62,-362"/>
<text text-anchor="middle" x="705" y="-348.5" font-family="Helvetica,sans-Serif" font-size="10.00">esp_http_server.h</text>
</a>
</g>
</g>
<!-- Node8&#45;&gt;Node10 -->
<g id="edge10_Node000008_Node000010" class="edge">
<title>Node8&#45;&gt;Node10</title>
<g id="a_edge10_Node000008_Node000010"><a xlink:title=" ">
<path fill="none" stroke="#63b8ff" d="M737.35,-452.79C718.77,-446.21 698.03,-435.2 687,-417.25 678.44,-403.31 684.92,-385.17 692.38,-371.79"/>
<polygon fill="#63b8ff" stroke="#63b8ff" points="695.21,-373.87 697.51,-363.53 689.26,-370.18 695.21,-373.87"/>
</a>
</g>
</g>
<!-- Node8&#45;&gt;Node11 -->
<g id="edge11_Node000008_Node000011" class="edge">
<title>Node8&#45;&gt;Node11</title>
<g id="a_edge11_Node000008_Node000011"><a xlink:title=" ">
<path fill="none" stroke="#63b8ff" d="M710.34,-459.39C580.49,-453.99 292.19,-439.83 196,-417.25 122.26,-399.94 38,-429.12 38,-353.38 38,-353.38 38,-353.38 38,-296.12 38,-265.41 38,-229.8 38,-207.99"/>
<polygon fill="#63b8ff" stroke="#63b8ff" points="41.5,-208.14 38,-198.14 34.5,-208.14 41.5,-208.14"/>
</a>
</g>
</g>
<!-- Node8&#45;&gt;Node12 -->
<g id="edge12_Node000008_Node000012" class="edge">
<title>Node8&#45;&gt;Node12</title>
<g id="a_edge12_Node000008_Node000012"><a xlink:title=" ">
<path fill="none" stroke="#63b8ff" d="M837.01,-452.78C865.72,-446.33 899.11,-435.46 925,-417.25 941.51,-405.64 954.53,-386.37 962.64,-372.03"/>
<polygon fill="#63b8ff" stroke="#63b8ff" points="965.53,-374.04 967.14,-363.57 959.35,-370.75 965.53,-374.04"/>
</a>
</g>
</g>
<!-- Node13 -->
<g id="Node000013" class="node">
<title>Node13</title>
<g id="a_Node000013"><a xlink:title=" ">
<polygon fill="#e0e0e0" stroke="#999999" points="177.62,-251.5 126.38,-251.5 126.38,-232.25 177.62,-232.25 177.62,-251.5"/>
<text text-anchor="middle" x="152" y="-238" font-family="Helvetica,sans-Serif" font-size="10.00">memory</text>
</a>
</g>
</g>
<!-- Node8&#45;&gt;Node13 -->
<g id="edge13_Node000008_Node000013" class="edge">
<title>Node8&#45;&gt;Node13</title>
<g id="a_edge13_Node000008_Node000013"><a xlink:title=" ">
<path fill="none" stroke="#63b8ff" d="M710.44,-457.4C548.01,-445.46 132.59,-410.42 95,-362 69.72,-329.44 108.07,-283.85 133.14,-259.6"/>
<polygon fill="#63b8ff" stroke="#63b8ff" points="135.29,-262.38 140.22,-253 130.52,-257.26 135.29,-262.38"/>
</a>
</g>
</g>
<!-- Node14 -->
<g id="Node000014" class="node">
<title>Node14</title>
<g id="a_Node000014"><a xlink:title=" ">
<polygon fill="#e0e0e0" stroke="#999999" points="916.25,-417.25 871.75,-417.25 871.75,-398 916.25,-398 916.25,-417.25"/>
<text text-anchor="middle" x="894" y="-403.75" font-family="Helvetica,sans-Serif" font-size="10.00">WiFi.h</text>
</a>
</g>
</g>
<!-- Node8&#45;&gt;Node14 -->
<g id="edge14_Node000008_Node000014" class="edge">
<title>Node8&#45;&gt;Node14</title>
<g id="a_edge14_Node000008_Node000014"><a xlink:title=" ">
<path fill="none" stroke="#63b8ff" d="M795.19,-452.84C813.91,-444.47 842.02,-431.88 863.48,-422.28"/>
<polygon fill="#63b8ff" stroke="#63b8ff" points="864.63,-425.6 872.33,-418.32 861.78,-419.21 864.63,-425.6"/>
</a>
</g>
</g>
<!-- Node15 -->
<g id="Node000015" class="node">
<title>Node15</title>
<g id="a_Node000015"><a xlink:href="http__authenticator_8h.html" target="_top" xlink:title=" ">
<polygon fill="white" stroke="#666666" points="853.88,-417.25 696.12,-417.25 696.12,-398 853.88,-398 853.88,-417.25"/>
<text text-anchor="middle" x="775" y="-403.75" font-family="Helvetica,sans-Serif" font-size="10.00">sensesp/net/http_authenticator.h</text>
</a>
</g>
</g>
<!-- Node8&#45;&gt;Node15 -->
<g id="edge15_Node000008_Node000015" class="edge">
<title>Node8&#45;&gt;Node15</title>
<g id="a_edge15_Node000008_Node000015"><a xlink:title=" ">
<path fill="none" stroke="#63b8ff" d="M775,-453.08C775,-446.57 775,-437.42 775,-429.12"/>
<polygon fill="#63b8ff" stroke="#63b8ff" points="778.5,-429.12 775,-419.12 771.5,-429.12 778.5,-429.12"/>
</a>
</g>
</g>
<!-- Node18 -->
<g id="Node000018" class="node">
<title>Node18</title>
<g id="a_Node000018"><a xlink:href="serializable_8h.html" target="_top" xlink:title=" ">
<polygon fill="white" stroke="#666666" points="752,-196.25 604,-196.25 604,-177 752,-177 752,-196.25"/>
<text text-anchor="middle" x="678" y="-182.75" font-family="Helvetica,sans-Serif" font-size="10.00">sensesp/system/serializable.h</text>
</a>
</g>
</g>
<!-- Node8&#45;&gt;Node18 -->
<g id="edge22_Node000008_Node000018" class="edge">
<title>Node8&#45;&gt;Node18</title>
<g id="a_edge22_Node000008_Node000018"><a xlink:title=" ">
<path fill="none" stroke="#63b8ff" d="M743.05,-452.78C722.79,-445.72 697.08,-434.24 679,-417.25 658.64,-398.12 655.88,-389.08 649,-362 634.87,-306.37 656.87,-238.95 669.74,-206.66"/>
<polygon fill="#63b8ff" stroke="#63b8ff" points="672.8,-208.42 673.41,-197.84 666.34,-205.73 672.8,-208.42"/>
</a>
</g>
</g>
<!-- Node20 -->
<g id="Node000020" class="node">
<title>Node20</title>
<g id="a_Node000020"><a xlink:href="sensesp__base__app_8h.html" target="_top" xlink:title=" ">
<polygon fill="white" stroke="#666666" points="520.12,-417.25 411.88,-417.25 411.88,-398 520.12,-398 520.12,-417.25"/>
<text text-anchor="middle" x="466" y="-403.75" font-family="Helvetica,sans-Serif" font-size="10.00">sensesp_base_app.h</text>
</a>
</g>
</g>
<!-- Node8&#45;&gt;Node20 -->
<g id="edge26_Node000008_Node000020" class="edge">
<title>Node8&#45;&gt;Node20</title>
<g id="a_edge26_Node000008_Node000020"><a xlink:title=" ">
<path fill="none" stroke="#63b8ff" d="M722.23,-452.78C668.99,-443.61 586.72,-429.43 529.83,-419.63"/>
<polygon fill="#63b8ff" stroke="#63b8ff" points="530.75,-416.23 520.3,-417.98 529.56,-423.13 530.75,-416.23"/>
</a>
</g>
</g>
<!-- Node35 -->
<g id="Node000035" class="node">
<title>Node35</title>
<g id="a_Node000035"><a xlink:title=" ">
<polygon fill="#e0e0e0" stroke="#999999" points="1020.12,-417.25 971.88,-417.25 971.88,-398 1020.12,-398 1020.12,-417.25"/>
<text text-anchor="middle" x="996" y="-403.75" font-family="Helvetica,sans-Serif" font-size="10.00">ctype.h</text>
</a>
</g>
</g>
<!-- Node8&#45;&gt;Node35 -->
<g id="edge58_Node000008_Node000035" class="edge">
<title>Node8&#45;&gt;Node35</title>
<g id="a_edge58_Node000008_Node000035"><a xlink:title=" ">
<path fill="none" stroke="#63b8ff" d="M812.74,-452.78C854.12,-442.81 920.01,-426.94 960.48,-417.18"/>
<polygon fill="#63b8ff" stroke="#63b8ff" points="961.06,-420.64 969.96,-414.9 959.42,-413.84 961.06,-420.64"/>
</a>
</g>
</g>
<!-- Node36 -->
<g id="Node000036" class="node">
<title>Node36</title>
<g id="a_Node000036"><a xlink:title=" ">
<polygon fill="#e0e0e0" stroke="#999999" points="1085.75,-417.25 1038.25,-417.25 1038.25,-398 1085.75,-398 1085.75,-417.25"/>
<text text-anchor="middle" x="1062" y="-403.75" font-family="Helvetica,sans-Serif" font-size="10.00">stdlib.h</text>
</a>
</g>
</g>
<!-- Node8&#45;&gt;Node36 -->
<g id="edge59_Node000008_Node000036" class="edge">
<title>Node8&#45;&gt;Node36</title>
<g id="a_edge59_Node000008_Node000036"><a xlink:title=" ">
<path fill="none" stroke="#63b8ff" d="M834.8,-452.78C883.92,-445 955.54,-432.91 1026.92,-417.56"/>
<polygon fill="#63b8ff" stroke="#63b8ff" points="1027.4,-421.03 1036.43,-415.49 1025.91,-414.19 1027.4,-421.03"/>
</a>
</g>
</g>
<!-- Node15&#45;&gt;Node2 -->
<g id="edge16_Node000015_Node000002" class="edge">
<title>Node15&#45;&gt;Node2</title>
<g id="a_edge16_Node000015_Node000002"><a xlink:title=" ">
<path fill="none" stroke="#63b8ff" d="M843.55,-397.52C867.66,-391.16 893.16,-380.35 911,-362 931.65,-340.77 930,-327.74 930,-298.12 930,-298.12 930,-298.12 930,-240.88 930,-195.93 882.89,-163.64 849.78,-146.5"/>
<polygon fill="#63b8ff" stroke="#63b8ff" points="851.47,-143.44 840.95,-142.14 848.37,-149.71 851.47,-143.44"/>
</a>
</g>
</g>
<!-- Node15&#45;&gt;Node10 -->
<g id="edge17_Node000015_Node000010" class="edge">
<title>Node15&#45;&gt;Node10</title>
<g id="a_edge17_Node000015_Node000010"><a xlink:title=" ">
<path fill="none" stroke="#63b8ff" d="M763.13,-397.59C752.91,-389.82 737.93,-378.42 725.74,-369.15"/>
<polygon fill="#63b8ff" stroke="#63b8ff" points="727.98,-366.46 717.9,-363.19 723.74,-372.03 727.98,-366.46"/>
</a>
</g>
</g>
<!-- Node15&#45;&gt;Node12 -->
<g id="edge18_Node000015_Node000012" class="edge">
<title>Node15&#45;&gt;Node12</title>
<g id="a_edge18_Node000015_Node000012"><a xlink:title=" ">
<path fill="none" stroke="#63b8ff" d="M811.05,-397.56C845.35,-388.83 898.34,-375.06 944,-362 944.81,-361.77 945.63,-361.53 946.45,-361.29"/>
<polygon fill="#63b8ff" stroke="#63b8ff" points="947.2,-364.72 955.76,-358.49 945.18,-358.02 947.2,-364.72"/>
</a>
</g>
</g>
<!-- Node16 -->
<g id="Node000016" class="node">
<title>Node16</title>
<g id="a_Node000016"><a xlink:title=" ">
<polygon fill="#e0e0e0" stroke="#999999" points="901.62,-362 808.38,-362 808.38,-342.75 901.62,-342.75 901.62,-362"/>
<text text-anchor="middle" x="855" y="-348.5" font-family="Helvetica,sans-Serif" font-size="10.00">mbedtls/base64.h</text>
</a>
</g>
</g>
<!-- Node15&#45;&gt;Node16 -->
<g id="edge19_Node000015_Node000016" class="edge">
<title>Node15&#45;&gt;Node16</title>
<g id="a_edge19_Node000015_Node000016"><a xlink:title=" ">
<path fill="none" stroke="#63b8ff" d="M788.57,-397.59C800.41,-389.71 817.84,-378.11 831.87,-368.77"/>
<polygon fill="#63b8ff" stroke="#63b8ff" points="833.72,-371.75 840.1,-363.29 829.84,-365.92 833.72,-371.75"/>
</a>
</g>
</g>
<!-- Node17 -->
<g id="Node000017" class="node">
<title>Node17</title>
<g id="a_Node000017"><a xlink:href="hash_8h.html" target="_top" xlink:title=" ">
<polygon fill="white" stroke="#666666" points="871.12,-306.75 750.88,-306.75 750.88,-287.5 871.12,-287.5 871.12,-306.75"/>
<text text-anchor="middle" x="811" y="-293.25" font-family="Helvetica,sans-Serif" font-size="10.00">sensesp/system/hash.h</text>
</a>
</g>
</g>
<!-- Node15&#45;&gt;Node17 -->
<g id="edge20_Node000015_Node000017" class="edge">
<title>Node15&#45;&gt;Node17</title>
<g id="a_edge20_Node000015_Node000017"><a xlink:title=" ">
<path fill="none" stroke="#63b8ff" d="M777.95,-397.75C783.69,-380.42 796.53,-341.73 804.41,-317.99"/>
<polygon fill="#63b8ff" stroke="#63b8ff" points="807.71,-319.16 807.54,-308.56 801.07,-316.95 807.71,-319.16"/>
</a>
</g>
</g>
<!-- Node17&#45;&gt;Node2 -->
<g id="edge21_Node000017_Node000002" class="edge">
<title>Node17&#45;&gt;Node2</title>
<g id="a_edge21_Node000017_Node000002"><a xlink:title=" ">
<path fill="none" stroke="#63b8ff" d="M814.6,-287.18C822.13,-267.38 838.33,-218.31 832,-177 830.73,-168.68 828.19,-159.78 825.62,-152.13"/>
<polygon fill="#63b8ff" stroke="#63b8ff" points="828.95,-151.04 822.25,-142.83 822.36,-153.43 828.95,-151.04"/>
</a>
</g>
</g>
<!-- Node18&#45;&gt;Node2 -->
<g id="edge23_Node000018_Node000002" class="edge">
<title>Node18&#45;&gt;Node2</title>
<g id="a_edge23_Node000018_Node000002"><a xlink:title=" ">
<path fill="none" stroke="#63b8ff" d="M701.75,-176.59C724.17,-168.06 758.06,-155.17 783.47,-145.51"/>
<polygon fill="#63b8ff" stroke="#63b8ff" points="784.62,-148.82 792.72,-141.99 782.13,-142.27 784.62,-148.82"/>
</a>
</g>
</g>
<!-- Node18&#45;&gt;Node6 -->
<g id="edge25_Node000018_Node000006" class="edge">
<title>Node18&#45;&gt;Node6</title>
<g id="a_edge25_Node000018_Node000006"><a xlink:title=" ">
<path fill="none" stroke="#63b8ff" d="M674.23,-176.71C662.75,-149.56 628.06,-67.53 612.14,-29.88"/>
<polygon fill="#63b8ff" stroke="#63b8ff" points="615.56,-28.98 608.44,-21.13 609.11,-31.7 615.56,-28.98"/>
</a>
</g>
</g>
<!-- Node19 -->
<g id="Node000019" class="node">
<title>Node19</title>
<g id="a_Node000019"><a xlink:title=" ">
<polygon fill="#e0e0e0" stroke="#999999" points="472.12,-141 393.88,-141 393.88,-121.75 472.12,-121.75 472.12,-141"/>
<text text-anchor="middle" x="433" y="-127.5" font-family="Helvetica,sans-Serif" font-size="10.00">ArduinoJson.h</text>
</a>
</g>
</g>
<!-- Node18&#45;&gt;Node19 -->
<g id="edge24_Node000018_Node000019" class="edge">
<title>Node18&#45;&gt;Node19</title>
<g id="a_edge24_Node000018_Node000019"><a xlink:title=" ">
<path fill="none" stroke="#63b8ff" d="M636.16,-176.53C593.83,-167.33 528.36,-153.1 483.24,-143.29"/>
<polygon fill="#63b8ff" stroke="#63b8ff" points="484.23,-139.93 473.72,-141.22 482.74,-146.77 484.23,-139.93"/>
</a>
</g>
</g>
<!-- Node20&#45;&gt;Node2 -->
<g id="edge27_Node000020_Node000002" class="edge">
<title>Node20&#45;&gt;Node2</title>
<g id="a_edge27_Node000020_Node000002"><a xlink:title=" ">
<path fill="none" stroke="#63b8ff" d="M487.87,-397.63C507.31,-389.32 536.25,-376.14 560,-362 667.34,-298.1 706.91,-292.12 787,-196.25 798,-183.08 806.21,-165.34 811.4,-151.9"/>
<polygon fill="#63b8ff" stroke="#63b8ff" points="814.57,-153.44 814.67,-142.84 807.98,-151.06 814.57,-153.44"/>
</a>
</g>
</g>
<!-- Node20&#45;&gt;Node13 -->
<g id="edge28_Node000020_Node000013" class="edge">
<title>Node20&#45;&gt;Node13</title>
<g id="a_edge28_Node000020_Node000013"><a xlink:title=" ">
<path fill="none" stroke="#63b8ff" d="M411.76,-398.59C377.25,-392.01 332.38,-380.66 296,-362 268.54,-347.92 202.38,-288.99 170.2,-259.64"/>
<polygon fill="#63b8ff" stroke="#63b8ff" points="172.58,-257.08 162.84,-252.9 167.85,-262.24 172.58,-257.08"/>
</a>
</g>
</g>
<!-- Node21 -->
<g id="Node000021" class="node">
<title>Node21</title>
<g id="a_Node000021"><a xlink:title=" ">
<polygon fill="#e0e0e0" stroke="#999999" points="363,-362 305,-362 305,-342.75 363,-342.75 363,-362"/>
<text text-anchor="middle" x="334" y="-348.5" font-family="Helvetica,sans-Serif" font-size="10.00">esp_log.h</text>
</a>
</g>
</g>
<!-- Node20&#45;&gt;Node21 -->
<g id="edge29_Node000020_Node000021" class="edge">
<title>Node20&#45;&gt;Node21</title>
<g id="a_edge29_Node000020_Node000021"><a xlink:title=" ">
<path fill="none" stroke="#63b8ff" d="M443.61,-397.59C422.56,-389.1 390.8,-376.29 366.88,-366.64"/>
<polygon fill="#63b8ff" stroke="#63b8ff" points="368.49,-363.51 357.91,-363.02 365.87,-370.01 368.49,-363.51"/>
</a>
</g>
</g>
<!-- Node22 -->
<g id="Node000022" class="node">
<title>Node22</title>
<g id="a_Node000022"><a xlink:href="filesystem_8h.html" target="_top" xlink:title=" ">
<polygon fill="white" stroke="#666666" points="248.12,-362 103.88,-362 103.88,-342.75 248.12,-342.75 248.12,-362"/>
<text text-anchor="middle" x="176" y="-348.5" font-family="Helvetica,sans-Serif" font-size="10.00">sensesp/system/filesystem.h</text>
</a>
</g>
</g>
<!-- Node20&#45;&gt;Node22 -->
<g id="edge30_Node000020_Node000022" class="edge">
<title>Node20&#45;&gt;Node22</title>
<g id="a_edge30_Node000020_Node000022"><a xlink:title=" ">
<path fill="none" stroke="#63b8ff" d="M416.48,-397.53C366.64,-388.38 289.71,-374.25 236.33,-364.45"/>
<polygon fill="#63b8ff" stroke="#63b8ff" points="237.28,-361.07 226.81,-362.7 236.01,-367.95 237.28,-361.07"/>
</a>
</g>
</g>
<!-- Node25 -->
<g id="Node000025" class="node">
<title>Node25</title>
<g id="a_Node000025"><a xlink:href="observablevalue_8h.html" target="_top" xlink:title=" ">
<polygon fill="white" stroke="#666666" points="550.88,-362 381.12,-362 381.12,-342.75 550.88,-342.75 550.88,-362"/>
<text text-anchor="middle" x="466" y="-348.5" font-family="Helvetica,sans-Serif" font-size="10.00">sensesp/system/observablevalue.h</text>
</a>
</g>
</g>
<!-- Node20&#45;&gt;Node25 -->
<g id="edge33_Node000020_Node000025" class="edge">
<title>Node20&#45;&gt;Node25</title>
<g id="a_edge33_Node000020_Node000025"><a xlink:title=" ">
<path fill="none" stroke="#63b8ff" d="M466,-397.83C466,-391.32 466,-382.17 466,-373.87"/>
<polygon fill="#63b8ff" stroke="#63b8ff" points="469.5,-373.87 466,-363.87 462.5,-373.87 469.5,-373.87"/>
</a>
</g>
</g>
<!-- Node23 -->
<g id="Node000023" class="node">
<title>Node23</title>
<g id="a_Node000023"><a xlink:href="resettable_8h.html" target="_top" xlink:title=" ">
<polygon fill="white" stroke="#666666" points="189.5,-306.75 122.5,-306.75 122.5,-287.5 189.5,-287.5 189.5,-306.75"/>
<text text-anchor="middle" x="156" y="-293.25" font-family="Helvetica,sans-Serif" font-size="10.00">resettable.h</text>
</a>
</g>
</g>
<!-- Node22&#45;&gt;Node23 -->
<g id="edge31_Node000022_Node000023" class="edge">
<title>Node22&#45;&gt;Node23</title>
<g id="a_edge31_Node000022_Node000023"><a xlink:title=" ">
<path fill="none" stroke="#63b8ff" d="M172.7,-342.58C170.17,-335.84 166.57,-326.27 163.37,-317.74"/>
<polygon fill="#63b8ff" stroke="#63b8ff" points="166.7,-316.66 159.91,-308.53 160.15,-319.12 166.7,-316.66"/>
</a>
</g>
</g>
<!-- Node24 -->
<g id="Node000024" class="node">
<title>Node24</title>
<g id="a_Node000024"><a xlink:title=" ">
<polygon fill="#e0e0e0" stroke="#999999" points="108.12,-251.5 65.88,-251.5 65.88,-232.25 108.12,-232.25 108.12,-251.5"/>
<text text-anchor="middle" x="87" y="-238" font-family="Helvetica,sans-Serif" font-size="10.00">queue</text>
</a>
</g>
</g>
<!-- Node23&#45;&gt;Node24 -->
<g id="edge32_Node000023_Node000024" class="edge">
<title>Node23&#45;&gt;Node24</title>
<g id="a_edge32_Node000023_Node000024"><a xlink:title=" ">
<path fill="none" stroke="#63b8ff" d="M144.3,-287.09C134.22,-279.32 119.46,-267.92 107.44,-258.65"/>
<polygon fill="#63b8ff" stroke="#63b8ff" points="109.79,-256.04 99.73,-252.7 105.51,-261.58 109.79,-256.04"/>
</a>
</g>
</g>
<!-- Node26 -->
<g id="Node000026" class="node">
<title>Node26</title>
<g id="a_Node000026"><a xlink:href="saveable_8h.html" target="_top" xlink:title=" ">
<polygon fill="white" stroke="#666666" points="591.62,-251.5 528.38,-251.5 528.38,-232.25 591.62,-232.25 591.62,-251.5"/>
<text text-anchor="middle" x="560" y="-238" font-family="Helvetica,sans-Serif" font-size="10.00">saveable.h</text>
</a>
</g>
</g>
<!-- Node25&#45;&gt;Node26 -->
<g id="edge34_Node000025_Node000026" class="edge">
<title>Node25&#45;&gt;Node26</title>
<g id="a_edge34_Node000025_Node000026"><a xlink:title=" ">
<path fill="none" stroke="#63b8ff" d="M487.99,-342.29C503.61,-334.82 524.04,-322.86 537,-306.75 547.3,-293.96 553.2,-276.16 556.44,-262.61"/>
<polygon fill="#63b8ff" stroke="#63b8ff" points="559.81,-263.6 558.41,-253.09 552.95,-262.18 559.81,-263.6"/>
</a>
</g>
</g>
<!-- Node27 -->
<g id="Node000027" class="node">
<title>Node27</title>
<g id="a_Node000027"><a xlink:href="observable_8h.html" target="_top" xlink:title=" ">
<polygon fill="white" stroke="#666666" points="343.75,-251.5 272.25,-251.5 272.25,-232.25 343.75,-232.25 343.75,-251.5"/>
<text text-anchor="middle" x="308" y="-238" font-family="Helvetica,sans-Serif" font-size="10.00">observable.h</text>
</a>
</g>
</g>
<!-- Node25&#45;&gt;Node27 -->
<g id="edge39_Node000025_Node000027" class="edge">
<title>Node25&#45;&gt;Node27</title>
<g id="a_edge39_Node000025_Node000027"><a xlink:title=" ">
<path fill="none" stroke="#63b8ff" d="M450.84,-342.28C436.32,-333.48 413.9,-319.6 395,-306.75 371.73,-290.92 345.82,-271.68 328.38,-258.48"/>
<polygon fill="#63b8ff" stroke="#63b8ff" points="330.91,-256.01 320.83,-252.74 326.67,-261.58 330.91,-256.01"/>
</a>
</g>
</g>
<!-- Node30 -->
<g id="Node000030" class="node">
<title>Node30</title>
<g id="a_Node000030"><a xlink:href="config__item_8h.html" target="_top" xlink:title=" ">
<polygon fill="white" stroke="#666666" points="528.38,-306.75 403.62,-306.75 403.62,-287.5 528.38,-287.5 528.38,-306.75"/>
<text text-anchor="middle" x="466" y="-293.25" font-family="Helvetica,sans-Serif" font-size="10.00">sensesp/ui/config_item.h</text>
</a>
</g>
</g>
<!-- Node25&#45;&gt;Node30 -->
<g id="edge43_Node000025_Node000030" class="edge">
<title>Node25&#45;&gt;Node30</title>
<g id="a_edge43_Node000025_Node000030"><a xlink:title=" ">
<path fill="none" stroke="#63b8ff" d="M466,-342.58C466,-336.07 466,-326.92 466,-318.62"/>
<polygon fill="#63b8ff" stroke="#63b8ff" points="469.5,-318.62 466,-308.62 462.5,-318.62 469.5,-318.62"/>
</a>
</g>
</g>
<!-- Node32 -->
<g id="Node000032" class="node">
<title>Node32</title>
<g id="a_Node000032"><a xlink:href="valueproducer_8h.html" target="_top" xlink:title=" ">
<polygon fill="white" stroke="#666666" points="348.12,-306.75 263.88,-306.75 263.88,-287.5 348.12,-287.5 348.12,-306.75"/>
<text text-anchor="middle" x="306" y="-293.25" font-family="Helvetica,sans-Serif" font-size="10.00">valueproducer.h</text>
</a>
</g>
</g>
<!-- Node25&#45;&gt;Node32 -->
<g id="edge50_Node000025_Node000032" class="edge">
<title>Node25&#45;&gt;Node32</title>
<g id="a_edge50_Node000025_Node000032"><a xlink:title=" ">
<path fill="none" stroke="#63b8ff" d="M438.86,-342.34C412.77,-333.66 373.1,-320.46 343.9,-310.74"/>
<polygon fill="#63b8ff" stroke="#63b8ff" points="345.3,-307.52 334.71,-307.68 343.09,-314.16 345.3,-307.52"/>
</a>
</g>
</g>
<!-- Node26&#45;&gt;Node2 -->
<g id="edge35_Node000026_Node000002" class="edge">
<title>Node26&#45;&gt;Node2</title>
<g id="a_edge35_Node000026_Node000002"><a xlink:title=" ">
<path fill="none" stroke="#63b8ff" d="M591.94,-234.9C644.9,-224.83 746.51,-204.75 761,-196.25 779.98,-185.12 796.08,-165.5 806.27,-150.93"/>
<polygon fill="#63b8ff" stroke="#63b8ff" points="809.14,-152.93 811.77,-142.67 803.31,-149.05 809.14,-152.93"/>
</a>
</g>
</g>
<!-- Node26&#45;&gt;Node6 -->
<g id="edge37_Node000026_Node000006" class="edge">
<title>Node26&#45;&gt;Node6</title>
<g id="a_edge37_Node000026_Node000006"><a xlink:title=" ">
<path fill="none" stroke="#63b8ff" d="M561.72,-231.85C568.19,-198.03 591.06,-78.35 600.19,-30.55"/>
<polygon fill="#63b8ff" stroke="#63b8ff" points="603.61,-31.31 602.05,-20.83 596.74,-29.99 603.61,-31.31"/>
</a>
</g>
</g>
<!-- Node26&#45;&gt;Node18 -->
<g id="edge38_Node000026_Node000018" class="edge">
<title>Node26&#45;&gt;Node18</title>
<g id="a_edge38_Node000026_Node000018"><a xlink:title=" ">
<path fill="none" stroke="#63b8ff" d="M580.02,-231.84C598.49,-223.5 626.21,-211 647.45,-201.41"/>
<polygon fill="#63b8ff" stroke="#63b8ff" points="648.83,-204.63 656.51,-197.33 645.95,-198.25 648.83,-204.63"/>
</a>
</g>
</g>
<!-- Node26&#45;&gt;Node19 -->
<g id="edge36_Node000026_Node000019" class="edge">
<title>Node26&#45;&gt;Node19</title>
<g id="a_edge36_Node000026_Node000019"><a xlink:title=" ">
<path fill="none" stroke="#63b8ff" d="M549.61,-232C528.3,-213.8 479.4,-172.02 452.18,-148.76"/>
<polygon fill="#63b8ff" stroke="#63b8ff" points="454.56,-146.19 444.69,-142.36 450.02,-151.52 454.56,-146.19"/>
</a>
</g>
</g>
<!-- Node27&#45;&gt;Node11 -->
<g id="edge41_Node000027_Node000011" class="edge">
<title>Node27&#45;&gt;Node11</title>
<g id="a_edge41_Node000027_Node000011"><a xlink:title=" ">
<path fill="none" stroke="#63b8ff" d="M271.87,-233.75C221.64,-223.84 130.98,-205.96 78.51,-195.62"/>
<polygon fill="#63b8ff" stroke="#63b8ff" points="79.27,-192.2 68.78,-193.7 77.92,-199.07 79.27,-192.2"/>
</a>
</g>
</g>
<!-- Node28 -->
<g id="Node000028" class="node">
<title>Node28</title>
<g id="a_Node000028"><a xlink:title=" ">
<polygon fill="#e0e0e0" stroke="#999999" points="372.12,-196.25 305.88,-196.25 305.88,-177 372.12,-177 372.12,-196.25"/>
<text text-anchor="middle" x="339" y="-182.75" font-family="Helvetica,sans-Serif" font-size="10.00">forward_list</text>
</a>
</g>
</g>
<!-- Node27&#45;&gt;Node28 -->
<g id="edge40_Node000027_Node000028" class="edge">
<title>Node27&#45;&gt;Node28</title>
<g id="a_edge40_Node000027_Node000028"><a xlink:title=" ">
<path fill="none" stroke="#63b8ff" d="M313.12,-232.08C317.18,-225.11 322.99,-215.12 328.09,-206.37"/>
<polygon fill="#63b8ff" stroke="#63b8ff" points="331,-208.32 333.01,-197.92 324.95,-204.8 331,-208.32"/>
</a>
</g>
</g>
<!-- Node29 -->
<g id="Node000029" class="node">
<title>Node29</title>
<g id="a_Node000029"><a xlink:title=" ">
<polygon fill="#e0e0e0" stroke="#999999" points="433.5,-196.25 390.5,-196.25 390.5,-177 433.5,-177 433.5,-196.25"/>
<text text-anchor="middle" x="412" y="-182.75" font-family="Helvetica,sans-Serif" font-size="10.00">vector</text>
</a>
</g>
</g>
<!-- Node27&#45;&gt;Node29 -->
<g id="edge42_Node000027_Node000029" class="edge">
<title>Node27&#45;&gt;Node29</title>
<g id="a_edge42_Node000027_Node000029"><a xlink:title=" ">
<path fill="none" stroke="#63b8ff" d="M325.64,-231.84C341.63,-223.66 365.46,-211.46 384.04,-201.94"/>
<polygon fill="#63b8ff" stroke="#63b8ff" points="385.62,-205.07 392.92,-197.39 382.43,-198.83 385.62,-205.07"/>
</a>
</g>
</g>
<!-- Node30&#45;&gt;Node6 -->
<g id="edge47_Node000030_Node000006" class="edge">
<title>Node30&#45;&gt;Node6</title>
<g id="a_edge47_Node000030_Node000006"><a xlink:title=" ">
<path fill="none" stroke="#63b8ff" d="M470.87,-287.14C480.27,-268.92 500,-226.12 500,-187.62 500,-187.62 500,-187.62 500,-130.38 500,-83.12 546.73,-45.41 577.54,-25.68"/>
<polygon fill="#63b8ff" stroke="#63b8ff" points="579.31,-28.7 586,-20.49 575.65,-22.74 579.31,-28.7"/>
</a>
</g>
</g>
<!-- Node30&#45;&gt;Node13 -->
<g id="edge45_Node000030_Node000013" class="edge">
<title>Node30&#45;&gt;Node13</title>
<g id="a_edge45_Node000030_Node000013"><a xlink:title=" ">
<path fill="none" stroke="#63b8ff" d="M412.38,-287.03C348.77,-276.24 244.39,-258.54 189.09,-249.16"/>
<polygon fill="#63b8ff" stroke="#63b8ff" points="190,-245.77 179.56,-247.55 188.83,-252.67 190,-245.77"/>
</a>
</g>
</g>
<!-- Node30&#45;&gt;Node19 -->
<g id="edge48_Node000030_Node000019" class="edge">
<title>Node30&#45;&gt;Node19</title>
<g id="a_edge48_Node000030_Node000019"><a xlink:title=" ">
<path fill="none" stroke="#63b8ff" d="M464.36,-287.14C460.71,-267.26 451.56,-218.03 443,-177 441.32,-168.94 439.36,-160.08 437.62,-152.4"/>
<polygon fill="#63b8ff" stroke="#63b8ff" points="441.05,-151.69 435.41,-142.72 434.23,-153.25 441.05,-151.69"/>
</a>
</g>
</g>
<!-- Node30&#45;&gt;Node26 -->
<g id="edge49_Node000030_Node000026" class="edge">
<title>Node30&#45;&gt;Node26</title>
<g id="a_edge49_Node000030_Node000026"><a xlink:title=" ">
<path fill="none" stroke="#63b8ff" d="M481.95,-287.09C496.26,-278.98 517.53,-266.93 534.25,-257.46"/>
<polygon fill="#63b8ff" stroke="#63b8ff" points="535.68,-260.67 542.66,-252.7 532.23,-254.58 535.68,-260.67"/>
</a>
</g>
</g>
<!-- Node30&#45;&gt;Node29 -->
<g id="edge46_Node000030_Node000029" class="edge">
<title>Node30&#45;&gt;Node29</title>
<g id="a_edge46_Node000030_Node000029"><a xlink:title=" ">
<path fill="none" stroke="#63b8ff" d="M437.22,-287.1C420.52,-280.21 400.89,-268.89 391,-251.5 382.8,-237.09 390.17,-219.01 398.35,-205.76"/>
<polygon fill="#63b8ff" stroke="#63b8ff" points="401.18,-207.82 403.94,-197.59 395.41,-203.86 401.18,-207.82"/>
</a>
</g>
</g>
<!-- Node31 -->
<g id="Node000031" class="node">
<title>Node31</title>
<g id="a_Node000031"><a xlink:title=" ">
<polygon fill="#e0e0e0" stroke="#999999" points="434.38,-251.5 399.62,-251.5 399.62,-232.25 434.38,-232.25 434.38,-251.5"/>
<text text-anchor="middle" x="417" y="-238" font-family="Helvetica,sans-Serif" font-size="10.00">map</text>
</a>
</g>
</g>
<!-- Node30&#45;&gt;Node31 -->
<g id="edge44_Node000030_Node000031" class="edge">
<title>Node30&#45;&gt;Node31</title>
<g id="a_edge44_Node000030_Node000031"><a xlink:title=" ">
<path fill="none" stroke="#63b8ff" d="M457.91,-287.33C451.14,-279.98 441.28,-269.26 432.94,-260.19"/>
<polygon fill="#63b8ff" stroke="#63b8ff" points="435.64,-257.96 426.29,-252.97 430.49,-262.7 435.64,-257.96"/>
</a>
</g>
</g>
<!-- Node32&#45;&gt;Node13 -->
<g id="edge52_Node000032_Node000013" class="edge">
<title>Node32&#45;&gt;Node13</title>
<g id="a_edge52_Node000032_Node000013"><a xlink:title=" ">
<path fill="none" stroke="#63b8ff" d="M279.88,-287.09C254.8,-278.42 216.69,-265.25 188.6,-255.53"/>
<polygon fill="#63b8ff" stroke="#63b8ff" points="190.02,-252.32 179.43,-252.36 187.73,-258.93 190.02,-252.32"/>
</a>
</g>
</g>
<!-- Node32&#45;&gt;Node19 -->
<g id="edge51_Node000032_Node000019" class="edge">
<title>Node32&#45;&gt;Node19</title>
<g id="a_edge51_Node000032_Node000019"><a xlink:title=" ">
<path fill="none" stroke="#63b8ff" d="M284.39,-287.05C241.43,-267.76 152.43,-220.86 189,-177 213.08,-148.12 317.85,-137.88 382.02,-134.28"/>
<polygon fill="#63b8ff" stroke="#63b8ff" points="382.18,-137.78 391.98,-133.76 381.82,-130.79 382.18,-137.78"/>
</a>
</g>
</g>
<!-- Node32&#45;&gt;Node27 -->
<g id="edge53_Node000032_Node000027" class="edge">
<title>Node32&#45;&gt;Node27</title>
<g id="a_edge53_Node000032_Node000027"><a xlink:title=" ">
<path fill="none" stroke="#63b8ff" d="M306.33,-287.33C306.58,-280.74 306.93,-271.46 307.24,-263.07"/>
<polygon fill="#63b8ff" stroke="#63b8ff" points="310.73,-263.5 307.61,-253.37 303.73,-263.23 310.73,-263.5"/>
</a>
</g>
</g>
<!-- Node33 -->
<g id="Node000033" class="node">
<title>Node33</title>
<g id="a_Node000033"><a xlink:href="valueconsumer_8h.html" target="_top" xlink:title=" ">
<polygon fill="white" stroke="#666666" points="287.75,-196.25 198.25,-196.25 198.25,-177 287.75,-177 287.75,-196.25"/>
<text text-anchor="middle" x="243" y="-182.75" font-family="Helvetica,sans-Serif" font-size="10.00">valueconsumer.h</text>
</a>
</g>
</g>
<!-- Node32&#45;&gt;Node33 -->
<g id="edge54_Node000032_Node000033" class="edge">
<title>Node32&#45;&gt;Node33</title>
<g id="a_edge54_Node000032_Node000033"><a xlink:title=" ">
<path fill="none" stroke="#63b8ff" d="M294.98,-287.31C285.29,-279.01 271.45,-265.75 263,-251.5 254.92,-237.87 249.77,-220.63 246.72,-207.49"/>
<polygon fill="#63b8ff" stroke="#63b8ff" points="250.19,-206.97 244.73,-197.9 243.34,-208.4 250.19,-206.97"/>
</a>
</g>
</g>
<!-- Node33&#45;&gt;Node2 -->
<g id="edge55_Node000033_Node000002" class="edge">
<title>Node33&#45;&gt;Node2</title>
<g id="a_edge55_Node000033_Node000002"><a xlink:title=" ">
<path fill="none" stroke="#63b8ff" d="M288.05,-178.18C291.07,-177.76 294.08,-177.36 297,-177 474.25,-155.28 686.72,-140.59 775.63,-134.95"/>
<polygon fill="#63b8ff" stroke="#63b8ff" points="775.82,-138.45 785.58,-134.33 775.38,-131.46 775.82,-138.45"/>
</a>
</g>
</g>
<!-- Node33&#45;&gt;Node19 -->
<g id="edge56_Node000033_Node000019" class="edge">
<title>Node33&#45;&gt;Node19</title>
<g id="a_edge56_Node000033_Node000019"><a xlink:title=" ">
<path fill="none" stroke="#63b8ff" d="M275.23,-176.59C306.76,-167.76 354.98,-154.24 389.81,-144.48"/>
<polygon fill="#63b8ff" stroke="#63b8ff" points="390.47,-147.93 399.15,-141.86 388.58,-141.19 390.47,-147.93"/>
</a>
</g>
</g>
<!-- Node34 -->
<g id="Node000034" class="node">
<title>Node34</title>
<g id="a_Node000034"><a xlink:title=" ">
<polygon fill="#e0e0e0" stroke="#999999" points="267.12,-141 218.88,-141 218.88,-121.75 267.12,-121.75 267.12,-141"/>
<text text-anchor="middle" x="243" y="-127.5" font-family="Helvetica,sans-Serif" font-size="10.00">stdint.h</text>
</a>
</g>
</g>
<!-- Node33&#45;&gt;Node34 -->
<g id="edge57_Node000033_Node000034" class="edge">
<title>Node33&#45;&gt;Node34</title>
<g id="a_edge57_Node000033_Node000034"><a xlink:title=" ">
<path fill="none" stroke="#63b8ff" d="M243,-176.83C243,-170.32 243,-161.17 243,-152.87"/>
<polygon fill="#63b8ff" stroke="#63b8ff" points="246.5,-152.87 243,-142.87 239.5,-152.87 246.5,-152.87"/>
</a>
</g>
</g>
</g>
</svg>
