<?xml version="1.0" encoding="UTF-8" standalone="no"?>
<!DOCTYPE svg PUBLIC "-//W3C//DTD SVG 1.1//EN"
 "http://www.w3.org/Graphics/SVG/1.1/DTD/svg11.dtd">
<!-- Generated by graphviz version 5.0.0 (20220707.1540)
 -->
<!-- Title: src/sensesp/net/http_server.h Pages: 1 -->
<svg width="1298pt" height="229pt"
 viewBox="0.00 0.00 1298.39 229.00" xmlns="http://www.w3.org/2000/svg" xmlns:xlink="http://www.w3.org/1999/xlink">
<g id="graph0" class="graph" transform="scale(1 1) rotate(0) translate(4 225)">
<title>src/sensesp/net/http_server.h</title>
<polygon fill="white" stroke="transparent" points="-4,4 -4,-225 1294.39,-225 1294.39,4 -4,4"/>
<!-- Node1 -->
<g id="node1" class="node">
<title>Node1</title>
<g id="a_node1"><a xlink:title=" ">
<polygon fill="#bfbfbf" stroke="black" points="199.39,-190.5 199.39,-220.5 305.39,-220.5 305.39,-190.5 199.39,-190.5"/>
<text text-anchor="start" x="207.39" y="-208.5" font-family="Helvetica,sans-Serif" font-size="10.00">src/sensesp/net/http</text>
<text text-anchor="middle" x="252.39" y="-197.5" font-family="Helvetica,sans-Serif" font-size="10.00">_server.h</text>
</a>
</g>
</g>
<!-- Node2 -->
<g id="node2" class="node">
<title>Node2</title>
<g id="a_node2"><a xlink:href="main_8cpp.html" target="_top" xlink:title=" ">
<polygon fill="white" stroke="black" points="572.89,-0.5 572.89,-19.5 645.89,-19.5 645.89,-0.5 572.89,-0.5"/>
<text text-anchor="middle" x="609.39" y="-7.5" font-family="Helvetica,sans-Serif" font-size="10.00">src/main.cpp</text>
</a>
</g>
</g>
<!-- Node1&#45;&gt;Node2 -->
<g id="edge1" class="edge">
<title>Node1&#45;&gt;Node2</title>
<path fill="none" stroke="midnightblue" d="M189.37,-190.8C100.11,-168.72 -45.93,-121.06 14.39,-56 52.38,-15.03 448.94,-11.15 572.71,-10.95"/>
<polygon fill="midnightblue" stroke="midnightblue" points="188.61,-194.22 199.16,-193.18 190.26,-187.42 188.61,-194.22"/>
</g>
<!-- Node3 -->
<g id="node3" class="node">
<title>Node3</title>
<g id="a_node3"><a xlink:href="http__server_8cpp.html" target="_top" xlink:title=" ">
<polygon fill="white" stroke="black" points="199.39,-123.5 199.39,-153.5 305.39,-153.5 305.39,-123.5 199.39,-123.5"/>
<text text-anchor="start" x="207.39" y="-141.5" font-family="Helvetica,sans-Serif" font-size="10.00">src/sensesp/net/http</text>
<text text-anchor="middle" x="252.39" y="-130.5" font-family="Helvetica,sans-Serif" font-size="10.00">_server.cpp</text>
</a>
</g>
</g>
<!-- Node1&#45;&gt;Node3 -->
<g id="edge2" class="edge">
<title>Node1&#45;&gt;Node3</title>
<path fill="none" stroke="midnightblue" d="M252.39,-180.11C252.39,-171.15 252.39,-161.32 252.39,-153.58"/>
<polygon fill="midnightblue" stroke="midnightblue" points="248.89,-180.4 252.39,-190.4 255.89,-180.4 248.89,-180.4"/>
</g>
<!-- Node4 -->
<g id="node4" class="node">
<title>Node4</title>
<g id="a_node4"><a xlink:href="sensesp__app_8h.html" target="_top" xlink:title=" ">
<polygon fill="white" stroke="black" points="565.89,-129 565.89,-148 664.89,-148 664.89,-129 565.89,-129"/>
<text text-anchor="middle" x="615.39" y="-136" font-family="Helvetica,sans-Serif" font-size="10.00">src/sensesp_app.h</text>
</a>
</g>
</g>
<!-- Node1&#45;&gt;Node4 -->
<g id="edge3" class="edge">
<title>Node1&#45;&gt;Node4</title>
<path fill="none" stroke="midnightblue" d="M315.84,-193.14C387.75,-180.26 503.31,-159.57 567.86,-148.01"/>
<polygon fill="midnightblue" stroke="midnightblue" points="314.79,-189.77 305.56,-194.98 316.02,-196.66 314.79,-189.77"/>
</g>
<!-- Node5 -->
<g id="node5" class="node">
<title>Node5</title>
<g id="a_node5"><a xlink:href="debug__output_8cpp.html" target="_top" xlink:title=" ">
<polygon fill="white" stroke="black" points="23.39,-56.5 23.39,-86.5 139.39,-86.5 139.39,-56.5 23.39,-56.5"/>
<text text-anchor="start" x="31.39" y="-74.5" font-family="Helvetica,sans-Serif" font-size="10.00">src/sensesp/net/debug</text>
<text text-anchor="middle" x="81.39" y="-63.5" font-family="Helvetica,sans-Serif" font-size="10.00">_output.cpp</text>
</a>
</g>
</g>
<!-- Node4&#45;&gt;Node5 -->
<g id="edge4" class="edge">
<title>Node4&#45;&gt;Node5</title>
<path fill="none" stroke="midnightblue" d="M555.55,-133.06C466.45,-125.99 293.78,-110.53 148.39,-87 145.45,-86.52 142.45,-86 139.42,-85.45"/>
<polygon fill="midnightblue" stroke="midnightblue" points="555.49,-136.57 565.74,-133.86 556.04,-129.59 555.49,-136.57"/>
</g>
<!-- Node6 -->
<g id="node6" class="node">
<title>Node6</title>
<g id="a_node6"><a xlink:href="discovery_8cpp.html" target="_top" xlink:title=" ">
<polygon fill="white" stroke="black" points="157.89,-62 157.89,-81 306.89,-81 306.89,-62 157.89,-62"/>
<text text-anchor="middle" x="232.39" y="-69" font-family="Helvetica,sans-Serif" font-size="10.00">src/sensesp/net/discovery.cpp</text>
</a>
</g>
</g>
<!-- Node4&#45;&gt;Node6 -->
<g id="edge5" class="edge">
<title>Node4&#45;&gt;Node6</title>
<path fill="none" stroke="midnightblue" d="M555.6,-127.55C495.04,-117.44 398.68,-101.28 315.39,-87 304.29,-85.1 292.36,-83.03 281.1,-81.06"/>
<polygon fill="midnightblue" stroke="midnightblue" points="555.3,-131.05 565.74,-129.24 556.45,-124.14 555.3,-131.05"/>
</g>
<!-- Node7 -->
<g id="node7" class="node">
<title>Node7</title>
<g id="a_node7"><a xlink:href="networking_8cpp.html" target="_top" xlink:title=" ">
<polygon fill="white" stroke="black" points="324.89,-62 324.89,-81 479.89,-81 479.89,-62 324.89,-62"/>
<text text-anchor="middle" x="402.39" y="-69" font-family="Helvetica,sans-Serif" font-size="10.00">src/sensesp/net/networking.cpp</text>
</a>
</g>
</g>
<!-- Node4&#45;&gt;Node7 -->
<g id="edge6" class="edge">
<title>Node4&#45;&gt;Node7</title>
<path fill="none" stroke="midnightblue" d="M577.47,-125.93C535.3,-113.06 468.16,-92.57 430.45,-81.06"/>
<polygon fill="midnightblue" stroke="midnightblue" points="576.52,-129.3 587.1,-128.87 578.56,-122.6 576.52,-129.3"/>
</g>
<!-- Node8 -->
<g id="node8" class="node">
<title>Node8</title>
<g id="a_node8"><a xlink:href="ws__client_8cpp.html" target="_top" xlink:title=" ">
<polygon fill="white" stroke="black" points="498.39,-56.5 498.39,-86.5 600.39,-86.5 600.39,-56.5 498.39,-56.5"/>
<text text-anchor="start" x="506.39" y="-74.5" font-family="Helvetica,sans-Serif" font-size="10.00">src/sensesp/net/ws</text>
<text text-anchor="middle" x="549.39" y="-63.5" font-family="Helvetica,sans-Serif" font-size="10.00">_client.cpp</text>
</a>
</g>
</g>
<!-- Node4&#45;&gt;Node8 -->
<g id="edge7" class="edge">
<title>Node4&#45;&gt;Node8</title>
<path fill="none" stroke="midnightblue" d="M599.26,-121.62C588.39,-110.91 574.17,-96.9 563.7,-86.59"/>
<polygon fill="midnightblue" stroke="midnightblue" points="596.91,-124.21 606.49,-128.73 601.82,-119.22 596.91,-124.21"/>
</g>
<!-- Node9 -->
<g id="node9" class="node">
<title>Node9</title>
<g id="a_node9"><a xlink:href="signalk__delta__queue_8cpp.html" target="_top" xlink:title=" ">
<polygon fill="white" stroke="black" points="618.89,-56.5 618.89,-86.5 745.89,-86.5 745.89,-56.5 618.89,-56.5"/>
<text text-anchor="start" x="626.89" y="-74.5" font-family="Helvetica,sans-Serif" font-size="10.00">src/sensesp/signalk</text>
<text text-anchor="middle" x="682.39" y="-63.5" font-family="Helvetica,sans-Serif" font-size="10.00">/signalk_delta_queue.cpp</text>
</a>
</g>
</g>
<!-- Node4&#45;&gt;Node9 -->
<g id="edge8" class="edge">
<title>Node4&#45;&gt;Node9</title>
<path fill="none" stroke="midnightblue" d="M631.76,-121.62C642.8,-110.91 657.24,-96.9 667.87,-86.59"/>
<polygon fill="midnightblue" stroke="midnightblue" points="629.17,-119.26 624.43,-128.73 634.04,-124.28 629.17,-119.26"/>
</g>
<!-- Node10 -->
<g id="node10" class="node">
<title>Node10</title>
<g id="a_node10"><a xlink:href="signalk__put__request_8cpp.html" target="_top" xlink:title=" ">
<polygon fill="white" stroke="black" points="763.89,-56.5 763.89,-86.5 888.89,-86.5 888.89,-56.5 763.89,-56.5"/>
<text text-anchor="start" x="771.89" y="-74.5" font-family="Helvetica,sans-Serif" font-size="10.00">src/sensesp/signalk</text>
<text text-anchor="middle" x="826.39" y="-63.5" font-family="Helvetica,sans-Serif" font-size="10.00">/signalk_put_request.cpp</text>
</a>
</g>
</g>
<!-- Node4&#45;&gt;Node10 -->
<g id="edge9" class="edge">
<title>Node4&#45;&gt;Node10</title>
<path fill="none" stroke="midnightblue" d="M652.99,-125.92C688.77,-114.9 742.66,-98.29 780.85,-86.53"/>
<polygon fill="midnightblue" stroke="midnightblue" points="651.94,-122.58 643.41,-128.87 654,-129.27 651.94,-122.58"/>
</g>
<!-- Node11 -->
<g id="node11" class="node">
<title>Node11</title>
<g id="a_node11"><a xlink:href="led__blinker_8cpp.html" target="_top" xlink:title=" ">
<polygon fill="white" stroke="black" points="906.89,-56.5 906.89,-86.5 1011.89,-86.5 1011.89,-56.5 906.89,-56.5"/>
<text text-anchor="start" x="914.89" y="-74.5" font-family="Helvetica,sans-Serif" font-size="10.00">src/sensesp/system</text>
<text text-anchor="middle" x="959.39" y="-63.5" font-family="Helvetica,sans-Serif" font-size="10.00">/led_blinker.cpp</text>
</a>
</g>
</g>
<!-- Node4&#45;&gt;Node11 -->
<g id="edge10" class="edge">
<title>Node4&#45;&gt;Node11</title>
<path fill="none" stroke="midnightblue" d="M675.13,-127.85C732.54,-118.34 821.64,-102.96 898.39,-87 901.16,-86.42 904,-85.82 906.86,-85.19"/>
<polygon fill="midnightblue" stroke="midnightblue" points="674.44,-124.42 665.14,-129.5 675.58,-131.33 674.44,-124.42"/>
</g>
<!-- Node12 -->
<g id="node12" class="node">
<title>Node12</title>
<g id="a_node12"><a xlink:href="sensesp__app_8cpp.html" target="_top" xlink:title=" ">
<polygon fill="white" stroke="black" points="1030.39,-62 1030.39,-81 1140.39,-81 1140.39,-62 1030.39,-62"/>
<text text-anchor="middle" x="1085.39" y="-69" font-family="Helvetica,sans-Serif" font-size="10.00">src/sensesp_app.cpp</text>
</a>
</g>
</g>
<!-- Node4&#45;&gt;Node12 -->
<g id="edge11" class="edge">
<title>Node4&#45;&gt;Node12</title>
<path fill="none" stroke="midnightblue" d="M675.3,-131.92C754.75,-124.1 899.19,-108.39 1021.39,-87 1030.93,-85.33 1041.19,-83.17 1050.64,-81.03"/>
<polygon fill="midnightblue" stroke="midnightblue" points="674.61,-128.47 665,-132.93 675.29,-135.44 674.61,-128.47"/>
</g>
<!-- Node13 -->
<g id="node13" class="node">
<title>Node13</title>
<g id="a_node13"><a xlink:href="sensesp__app__builder_8h.html" target="_top" xlink:title=" ">
<polygon fill="white" stroke="black" points="1158.39,-62 1158.39,-81 1290.39,-81 1290.39,-62 1158.39,-62"/>
<text text-anchor="middle" x="1224.39" y="-69" font-family="Helvetica,sans-Serif" font-size="10.00">src/sensesp_app_builder.h</text>
</a>
</g>
</g>
<!-- Node4&#45;&gt;Node13 -->
<g id="edge12" class="edge">
<title>Node4&#45;&gt;Node13</title>
<path fill="none" stroke="midnightblue" d="M675,-133.75C773.91,-127.11 978.01,-111.61 1149.39,-87 1160.68,-85.38 1172.85,-83.21 1184.03,-81.05"/>
<polygon fill="midnightblue" stroke="midnightblue" points="674.65,-130.27 664.9,-134.42 675.12,-137.25 674.65,-130.27"/>
</g>
<!-- Node13&#45;&gt;Node2 -->
<g id="edge13" class="edge">
<title>Node13&#45;&gt;Node2</title>
<path fill="none" stroke="midnightblue" d="M1174.43,-60.06C1166.09,-58.55 1157.52,-57.12 1149.39,-56 961.14,-30.04 733.76,-17.03 646.21,-12.7"/>
<polygon fill="midnightblue" stroke="midnightblue" points="1173.96,-63.54 1184.43,-61.95 1175.25,-56.66 1173.96,-63.54"/>
</g>
</g>
</svg>
