<?xml version="1.0" encoding="UTF-8" standalone="no"?>
<!DOCTYPE svg PUBLIC "-//W3C//DTD SVG 1.1//EN"
 "http://www.w3.org/Graphics/SVG/1.1/DTD/svg11.dtd">
<!-- Generated by graphviz version 12.1.0 (20240811.2233)
 -->
<!-- Title: src/sensesp/net/http_server.h Pages: 1 -->
<!--zoomable 437 -->

<svg id="main" version="1.1" xmlns="http://www.w3.org/2000/svg" xmlns:xlink="http://www.w3.org/1999/xlink" xml:space="preserve" onload="init(evt)">

<style type="text/css"><![CDATA[
.node, .edge {opacity: 0.7;}
.node.selected, .edge.selected {opacity: 1;}
.edge:hover path { stroke: red; }
.edge:hover polygon { stroke: red; fill: red; }
]]></style>

<defs>
  <circle id="rim" cx="0" cy="0" r="7"/>
  <circle id="rim2" cx="0" cy="0" r="3.5"/>
  <g id="zoomPlus">
    <use xlink:href="#rim" fill="#404040"><set attributeName="fill" to="#808080" begin="zoomplus.mouseover" end="zoomplus.mouseout"/></use>
    <path d="M-4,0h8M0,-4v8" fill="none" stroke="white" stroke-width="1.5" pointer-events="none"/>
  </g>
  <g id="zoomMin">
    <use xlink:href="#rim" fill="#404040"><set attributeName="fill" to="#808080" begin="zoomminus.mouseover" end="zoomminus.mouseout"/></use>
    <path d="M-4,0h8" fill="none" stroke="white" stroke-width="1.5" pointer-events="none"/>
  </g>
  <g id="arrowUp" transform="translate(30 24)">
    <use xlink:href="#rim"/>
    <path pointer-events="none" fill="none" stroke="white" stroke-width="1.5" d="M0,-3.0v7 M-2.5,-0.5L0,-3.0L2.5,-0.5"/>
  </g>
  <g id="arrowRight" transform="rotate(90) translate(36 -43)">
    <use xlink:href="#rim"/>
    <path pointer-events="none" fill="none" stroke="white" stroke-width="1.5" d="M0,-3.0v7 M-2.5,-0.5L0,-3.0L2.5,-0.5"/>
  </g>
  <g id="arrowDown" transform="rotate(180) translate(-30 -48)">
    <use xlink:href="#rim"/>
    <path pointer-events="none" fill="none" stroke="white" stroke-width="1.5" d="M0,-3.0v7 M-2.5,-0.5L0,-3.0L2.5,-0.5"/>
  </g>
  <g id="arrowLeft" transform="rotate(270) translate(-36 17)">
    <use xlink:href="#rim"/>
    <path pointer-events="none" fill="none" stroke="white" stroke-width="1.5" d="M0,-3.0v7 M-2.5,-0.5L0,-3.0L2.5,-0.5"/>
  </g>
  <g id="resetDef">
    <use xlink:href="#rim2" fill="#404040"><set attributeName="fill" to="#808080" begin="reset.mouseover" end="reset.mouseout"/></use>
  </g>
</defs>
<script type="application/ecmascript">
var viewWidth = 1140;
var viewHeight = 437;
var sectionId = 'dynsection-0';
</script>
<script type="application/ecmascript" xlink:href="svg.min.js"/>
<svg id="graph" class="graph">
<g id="viewport">
<title>src/sensesp/net/http_server.h</title>
<!-- Node1 -->
<g id="Node000001" class="node">
<title>Node1</title>
<g id="a_Node000001"><a xlink:title=" ">
<polygon fill="#999999" stroke="#666666" points="849.62,-428.5 744.38,-428.5 744.38,-398 849.62,-398 849.62,-428.5"/>
<text text-anchor="start" x="752.38" y="-415" font-family="Helvetica,sans-Serif" font-size="10.00">src/sensesp/net/http</text>
<text text-anchor="middle" x="797" y="-403.75" font-family="Helvetica,sans-Serif" font-size="10.00">_server.h</text>
</a>
</g>
</g>
<!-- Node2 -->
<g id="Node000002" class="node">
<title>Node2</title>
<g id="a_Node000002"><a xlink:href="sensesp_8h.html" target="_top" xlink:title=" ">
<polygon fill="white" stroke="#666666" points="575.5,-141 514.5,-141 514.5,-121.75 575.5,-121.75 575.5,-141"/>
<text text-anchor="middle" x="545" y="-127.5" font-family="Helvetica,sans-Serif" font-size="10.00">sensesp.h</text>
</a>
</g>
</g>
<!-- Node1&#45;&gt;Node2 -->
<g id="edge1_Node000001_Node000002" class="edge">
<title>Node1&#45;&gt;Node2</title>
<g id="a_edge1_Node000001_Node000002"><a xlink:title=" ">
<path fill="none" stroke="#63b8ff" d="M744.25,-412.28C700.62,-409.46 639.88,-398.51 602,-362 580.67,-341.45 583,-327.74 583,-298.12 583,-298.12 583,-298.12 583,-240.88 583,-207.88 567.16,-172.26 555.93,-151.16"/>
<polygon fill="#63b8ff" stroke="#63b8ff" points="559.1,-149.65 551.18,-142.61 552.98,-153.05 559.1,-149.65"/>
</a>
</g>
</g>
<!-- Node8 -->
<g id="Node000008" class="node">
<title>Node8</title>
<g id="a_Node000008"><a xlink:title=" ">
<polygon fill="#e0e0e0" stroke="#999999" points="937.25,-362 862.75,-362 862.75,-342.75 937.25,-342.75 937.25,-362"/>
<text text-anchor="middle" x="900" y="-348.5" font-family="Helvetica,sans-Serif" font-size="10.00">ESPmDNS.h</text>
</a>
</g>
</g>
<!-- Node1&#45;&gt;Node8 -->
<g id="edge7_Node000001_Node000008" class="edge">
<title>Node1&#45;&gt;Node8</title>
<g id="a_edge7_Node000001_Node000008"><a xlink:title=" ">
<path fill="none" stroke="#63b8ff" d="M822.73,-397.55C838.56,-388.49 858.78,-376.94 874.56,-367.91"/>
<polygon fill="#63b8ff" stroke="#63b8ff" points="875.95,-371.16 882.89,-363.16 872.47,-365.08 875.95,-371.16"/>
</a>
</g>
</g>
<!-- Node9 -->
<g id="Node000009" class="node">
<title>Node9</title>
<g id="a_Node000009"><a xlink:title=" ">
<polygon fill="#e0e0e0" stroke="#999999" points="891.62,-306.75 798.38,-306.75 798.38,-287.5 891.62,-287.5 891.62,-306.75"/>
<text text-anchor="middle" x="845" y="-293.25" font-family="Helvetica,sans-Serif" font-size="10.00">esp_http_server.h</text>
</a>
</g>
</g>
<!-- Node1&#45;&gt;Node9 -->
<g id="edge8_Node000001_Node000009" class="edge">
<title>Node1&#45;&gt;Node9</title>
<g id="a_edge8_Node000001_Node000009"><a xlink:title=" ">
<path fill="none" stroke="#63b8ff" d="M801.3,-397.61C805.66,-383.37 812.91,-361.22 821,-342.75 824.79,-334.1 829.63,-324.85 833.96,-317.03"/>
<polygon fill="#63b8ff" stroke="#63b8ff" points="836.94,-318.88 838.84,-308.46 830.85,-315.41 836.94,-318.88"/>
</a>
</g>
</g>
<!-- Node10 -->
<g id="Node000010" class="node">
<title>Node10</title>
<g id="a_Node000010"><a xlink:title=" ">
<polygon fill="#e0e0e0" stroke="#999999" points="58,-141 0,-141 0,-121.75 58,-121.75 58,-141"/>
<text text-anchor="middle" x="29" y="-127.5" font-family="Helvetica,sans-Serif" font-size="10.00">functional</text>
</a>
</g>
</g>
<!-- Node1&#45;&gt;Node10 -->
<g id="edge9_Node000001_Node000010" class="edge">
<title>Node1&#45;&gt;Node10</title>
<g id="a_edge9_Node000001_Node000010"><a xlink:title=" ">
<path fill="none" stroke="#63b8ff" d="M744.11,-411C610.69,-407.38 263.26,-394.98 153,-362 96.61,-345.14 37,-356.98 37,-298.12 37,-298.12 37,-298.12 37,-240.88 37,-210.07 33.75,-174.48 31.4,-152.71"/>
<polygon fill="#63b8ff" stroke="#63b8ff" points="34.89,-152.41 30.28,-142.86 27.93,-153.19 34.89,-152.41"/>
</a>
</g>
</g>
<!-- Node11 -->
<g id="Node000011" class="node">
<title>Node11</title>
<g id="a_Node000011"><a xlink:title=" ">
<polygon fill="#e0e0e0" stroke="#999999" points="938.4,-306.75 909.6,-306.75 909.6,-287.5 938.4,-287.5 938.4,-306.75"/>
<text text-anchor="middle" x="924" y="-293.25" font-family="Helvetica,sans-Serif" font-size="10.00">list</text>
</a>
</g>
</g>
<!-- Node1&#45;&gt;Node11 -->
<g id="edge10_Node000001_Node000011" class="edge">
<title>Node1&#45;&gt;Node11</title>
<g id="a_edge10_Node000001_Node000011"><a xlink:title=" ">
<path fill="none" stroke="#63b8ff" d="M806.96,-397.53C817.51,-382.61 835.21,-359.42 854,-342.75 867.75,-330.55 885.16,-319.44 899.18,-311.35"/>
<polygon fill="#63b8ff" stroke="#63b8ff" points="900.79,-314.46 907.81,-306.53 897.37,-308.35 900.79,-314.46"/>
</a>
</g>
</g>
<!-- Node12 -->
<g id="Node000012" class="node">
<title>Node12</title>
<g id="a_Node000012"><a xlink:title=" ">
<polygon fill="#e0e0e0" stroke="#999999" points="1000.25,-362 955.75,-362 955.75,-342.75 1000.25,-342.75 1000.25,-362"/>
<text text-anchor="middle" x="978" y="-348.5" font-family="Helvetica,sans-Serif" font-size="10.00">WiFi.h</text>
</a>
</g>
</g>
<!-- Node1&#45;&gt;Node12 -->
<g id="edge11_Node000001_Node000012" class="edge">
<title>Node1&#45;&gt;Node12</title>
<g id="a_edge11_Node000001_Node000012"><a xlink:title=" ">
<path fill="none" stroke="#63b8ff" d="M842.21,-397.55C874.01,-387.2 915.86,-373.59 944.65,-364.22"/>
<polygon fill="#63b8ff" stroke="#63b8ff" points="945.5,-367.63 953.93,-361.2 943.34,-360.97 945.5,-367.63"/>
</a>
</g>
</g>
<!-- Node13 -->
<g id="Node000013" class="node">
<title>Node13</title>
<g id="a_Node000013"><a xlink:href="http__authenticator_8h.html" target="_top" xlink:title=" ">
<polygon fill="white" stroke="#666666" points="768.88,-362 611.12,-362 611.12,-342.75 768.88,-342.75 768.88,-362"/>
<text text-anchor="middle" x="690" y="-348.5" font-family="Helvetica,sans-Serif" font-size="10.00">sensesp/net/http_authenticator.h</text>
</a>
</g>
</g>
<!-- Node1&#45;&gt;Node13 -->
<g id="edge12_Node000001_Node000013" class="edge">
<title>Node1&#45;&gt;Node13</title>
<g id="a_edge12_Node000001_Node000013"><a xlink:title=" ">
<path fill="none" stroke="#63b8ff" d="M770.28,-397.55C753.82,-388.49 732.82,-376.94 716.42,-367.91"/>
<polygon fill="#63b8ff" stroke="#63b8ff" points="718.18,-364.89 707.74,-363.13 714.81,-371.02 718.18,-364.89"/>
</a>
</g>
</g>
<!-- Node16 -->
<g id="Node000016" class="node">
<title>Node16</title>
<g id="a_Node000016"><a xlink:href="configurable_8h.html" target="_top" xlink:title=" ">
<polygon fill="white" stroke="#666666" points="310.88,-196.25 159.12,-196.25 159.12,-177 310.88,-177 310.88,-196.25"/>
<text text-anchor="middle" x="235" y="-182.75" font-family="Helvetica,sans-Serif" font-size="10.00">sensesp/system/configurable.h</text>
</a>
</g>
</g>
<!-- Node1&#45;&gt;Node16 -->
<g id="edge19_Node000001_Node000016" class="edge">
<title>Node1&#45;&gt;Node16</title>
<g id="a_edge19_Node000001_Node000016"><a xlink:title=" ">
<path fill="none" stroke="#63b8ff" d="M743.9,-412.87C595.4,-413.34 181.37,-405.61 100,-306.75 63.91,-262.91 147.03,-221.3 198.34,-200.83"/>
<polygon fill="#63b8ff" stroke="#63b8ff" points="199.59,-204.1 207.65,-197.22 197.06,-197.57 199.59,-204.1"/>
</a>
</g>
</g>
<!-- Node20 -->
<g id="Node000020" class="node">
<title>Node20</title>
<g id="a_Node000020"><a xlink:href="sensesp__base__app_8h.html" target="_top" xlink:title=" ">
<polygon fill="white" stroke="#666666" points="499.12,-362 390.88,-362 390.88,-342.75 499.12,-342.75 499.12,-362"/>
<text text-anchor="middle" x="445" y="-348.5" font-family="Helvetica,sans-Serif" font-size="10.00">sensesp_base_app.h</text>
</a>
</g>
</g>
<!-- Node1&#45;&gt;Node20 -->
<g id="edge25_Node000001_Node000020" class="edge">
<title>Node1&#45;&gt;Node20</title>
<g id="a_edge25_Node000001_Node000020"><a xlink:title=" ">
<path fill="none" stroke="#63b8ff" d="M743.92,-403.37C681.56,-392.94 578.06,-375.63 510.7,-364.36"/>
<polygon fill="#63b8ff" stroke="#63b8ff" points="511.31,-360.92 500.87,-362.72 510.16,-367.82 511.31,-360.92"/>
</a>
</g>
</g>
<!-- Node31 -->
<g id="Node000031" class="node">
<title>Node31</title>
<g id="a_Node000031"><a xlink:title=" ">
<polygon fill="#e0e0e0" stroke="#999999" points="1066.12,-362 1017.88,-362 1017.88,-342.75 1066.12,-342.75 1066.12,-362"/>
<text text-anchor="middle" x="1042" y="-348.5" font-family="Helvetica,sans-Serif" font-size="10.00">ctype.h</text>
</a>
</g>
</g>
<!-- Node1&#45;&gt;Node31 -->
<g id="edge44_Node000001_Node000031" class="edge">
<title>Node1&#45;&gt;Node31</title>
<g id="a_edge44_Node000001_Node000031"><a xlink:title=" ">
<path fill="none" stroke="#63b8ff" d="M849.79,-400.09C890.22,-390.7 947.65,-377.19 1006.5,-362.58"/>
<polygon fill="#63b8ff" stroke="#63b8ff" points="1007.18,-366.02 1016.04,-360.21 1005.49,-359.23 1007.18,-366.02"/>
</a>
</g>
</g>
<!-- Node32 -->
<g id="Node000032" class="node">
<title>Node32</title>
<g id="a_Node000032"><a xlink:title=" ">
<polygon fill="#e0e0e0" stroke="#999999" points="1131.75,-362 1084.25,-362 1084.25,-342.75 1131.75,-342.75 1131.75,-362"/>
<text text-anchor="middle" x="1108" y="-348.5" font-family="Helvetica,sans-Serif" font-size="10.00">stdlib.h</text>
</a>
</g>
</g>
<!-- Node1&#45;&gt;Node32 -->
<g id="edge45_Node000001_Node000032" class="edge">
<title>Node1&#45;&gt;Node32</title>
<g id="a_edge45_Node000001_Node000032"><a xlink:title=" ">
<path fill="none" stroke="#63b8ff" d="M850.02,-403.91C903.72,-395.19 989.41,-380.51 1072.7,-362.37"/>
<polygon fill="#63b8ff" stroke="#63b8ff" points="1073.41,-365.79 1082.42,-360.23 1071.9,-358.96 1073.41,-365.79"/>
</a>
</g>
</g>
<!-- Node3 -->
<g id="Node000003" class="node">
<title>Node3</title>
<g id="a_Node000003"><a xlink:title=" ">
<polygon fill="#e0e0e0" stroke="#999999" points="471.62,-80.12 402.38,-80.12 402.38,-60.88 471.62,-60.88 471.62,-80.12"/>
<text text-anchor="middle" x="437" y="-66.62" font-family="Helvetica,sans-Serif" font-size="10.00">ReactESP.h</text>
</a>
</g>
</g>
<!-- Node2&#45;&gt;Node3 -->
<g id="edge2_Node000002_Node000003" class="edge">
<title>Node2&#45;&gt;Node3</title>
<g id="a_edge2_Node000002_Node000003"><a xlink:title=" ">
<path fill="none" stroke="#63b8ff" d="M528.6,-121.43C511.31,-112.01 483.82,-97.02 463.46,-85.93"/>
<polygon fill="#63b8ff" stroke="#63b8ff" points="465.34,-82.96 454.89,-81.25 461.99,-89.11 465.34,-82.96"/>
</a>
</g>
</g>
<!-- Node4 -->
<g id="Node000004" class="node">
<title>Node4</title>
<g id="a_Node000004"><a xlink:href="local__debug_8h.html" target="_top" xlink:title=" ">
<polygon fill="white" stroke="#666666" points="600.62,-85.75 489.38,-85.75 489.38,-55.25 600.62,-55.25 600.62,-85.75"/>
<text text-anchor="start" x="497.38" y="-72.25" font-family="Helvetica,sans-Serif" font-size="10.00">sensesp/system/local</text>
<text text-anchor="middle" x="545" y="-61" font-family="Helvetica,sans-Serif" font-size="10.00">_debug.h</text>
</a>
</g>
</g>
<!-- Node2&#45;&gt;Node4 -->
<g id="edge3_Node000002_Node000004" class="edge">
<title>Node2&#45;&gt;Node4</title>
<g id="a_edge3_Node000002_Node000004"><a xlink:title=" ">
<path fill="none" stroke="#63b8ff" d="M545,-121.43C545,-114.98 545,-105.91 545,-97.26"/>
<polygon fill="#63b8ff" stroke="#63b8ff" points="548.5,-97.55 545,-87.55 541.5,-97.55 548.5,-97.55"/>
</a>
</g>
</g>
<!-- Node5 -->
<g id="Node000005" class="node">
<title>Node5</title>
<g id="a_Node000005"><a xlink:title=" ">
<polygon fill="#e0e0e0" stroke="#999999" points="545,-19.25 463,-19.25 463,0 545,0 545,-19.25"/>
<text text-anchor="middle" x="504" y="-5.75" font-family="Helvetica,sans-Serif" font-size="10.00">esp32&#45;hal&#45;log.h</text>
</a>
</g>
</g>
<!-- Node4&#45;&gt;Node5 -->
<g id="edge4_Node000004_Node000005" class="edge">
<title>Node4&#45;&gt;Node5</title>
<g id="a_edge4_Node000004_Node000005"><a xlink:title=" ">
<path fill="none" stroke="#63b8ff" d="M534.87,-54.95C529.4,-47.1 522.61,-37.35 516.79,-28.99"/>
<polygon fill="#63b8ff" stroke="#63b8ff" points="519.77,-27.15 511.19,-20.94 514.03,-31.15 519.77,-27.15"/>
</a>
</g>
</g>
<!-- Node6 -->
<g id="Node000006" class="node">
<title>Node6</title>
<g id="a_Node000006"><a xlink:title=" ">
<polygon fill="#e0e0e0" stroke="#999999" points="374.62,-19.25 317.38,-19.25 317.38,0 374.62,0 374.62,-19.25"/>
<text text-anchor="middle" x="346" y="-5.75" font-family="Helvetica,sans-Serif" font-size="10.00">Arduino.h</text>
</a>
</g>
</g>
<!-- Node4&#45;&gt;Node6 -->
<g id="edge5_Node000004_Node000006" class="edge">
<title>Node4&#45;&gt;Node6</title>
<g id="a_edge5_Node000004_Node000006"><a xlink:title=" ">
<path fill="none" stroke="#63b8ff" d="M495.3,-54.8C461.56,-44.82 417.54,-31.79 386.06,-22.48"/>
<polygon fill="#63b8ff" stroke="#63b8ff" points="387.1,-19.14 376.52,-19.65 385.12,-25.85 387.1,-19.14"/>
</a>
</g>
</g>
<!-- Node7 -->
<g id="Node000007" class="node">
<title>Node7</title>
<g id="a_Node000007"><a xlink:title=" ">
<polygon fill="#e0e0e0" stroke="#999999" points="607.25,-19.25 562.75,-19.25 562.75,0 607.25,0 607.25,-19.25"/>
<text text-anchor="middle" x="585" y="-5.75" font-family="Helvetica,sans-Serif" font-size="10.00">Print.h</text>
</a>
</g>
</g>
<!-- Node4&#45;&gt;Node7 -->
<g id="edge6_Node000004_Node000007" class="edge">
<title>Node4&#45;&gt;Node7</title>
<g id="a_edge6_Node000004_Node000007"><a xlink:title=" ">
<path fill="none" stroke="#63b8ff" d="M554.89,-54.95C560.22,-47.1 566.85,-37.35 572.53,-28.99"/>
<polygon fill="#63b8ff" stroke="#63b8ff" points="575.26,-31.19 577.98,-20.95 569.47,-27.26 575.26,-31.19"/>
</a>
</g>
</g>
<!-- Node13&#45;&gt;Node2 -->
<g id="edge13_Node000013_Node000002" class="edge">
<title>Node13&#45;&gt;Node2</title>
<g id="a_edge13_Node000013_Node000002"><a xlink:title=" ">
<path fill="none" stroke="#63b8ff" d="M685.47,-342.42C668.46,-308.85 608.75,-191.66 597,-177 588.32,-166.17 576.74,-155.94 566.72,-148.01"/>
<polygon fill="#63b8ff" stroke="#63b8ff" points="569.01,-145.36 558.93,-142.09 564.78,-150.93 569.01,-145.36"/>
</a>
</g>
</g>
<!-- Node13&#45;&gt;Node9 -->
<g id="edge14_Node000013_Node000009" class="edge">
<title>Node13&#45;&gt;Node9</title>
<g id="a_edge14_Node000013_Node000009"><a xlink:title=" ">
<path fill="none" stroke="#63b8ff" d="M716.29,-342.34C741.46,-333.7 779.65,-320.57 807.91,-310.87"/>
<polygon fill="#63b8ff" stroke="#63b8ff" points="808.83,-314.25 817.15,-307.69 806.55,-307.63 808.83,-314.25"/>
</a>
</g>
</g>
<!-- Node13&#45;&gt;Node11 -->
<g id="edge15_Node000013_Node000011" class="edge">
<title>Node13&#45;&gt;Node11</title>
<g id="a_edge15_Node000013_Node000011"><a xlink:title=" ">
<path fill="none" stroke="#63b8ff" d="M743.88,-342.29C784.33,-334.95 841.2,-323.54 898.76,-307.07"/>
<polygon fill="#63b8ff" stroke="#63b8ff" points="899.44,-310.52 908.06,-304.36 897.48,-303.8 899.44,-310.52"/>
</a>
</g>
</g>
<!-- Node14 -->
<g id="Node000014" class="node">
<title>Node14</title>
<g id="a_Node000014"><a xlink:title=" ">
<polygon fill="#e0e0e0" stroke="#999999" points="780.62,-306.75 687.38,-306.75 687.38,-287.5 780.62,-287.5 780.62,-306.75"/>
<text text-anchor="middle" x="734" y="-293.25" font-family="Helvetica,sans-Serif" font-size="10.00">mbedtls/base64.h</text>
</a>
</g>
</g>
<!-- Node13&#45;&gt;Node14 -->
<g id="edge16_Node000013_Node000014" class="edge">
<title>Node13&#45;&gt;Node14</title>
<g id="a_edge16_Node000013_Node000014"><a xlink:title=" ">
<path fill="none" stroke="#63b8ff" d="M697.27,-342.58C703.28,-335.3 712.01,-324.73 719.46,-315.73"/>
<polygon fill="#63b8ff" stroke="#63b8ff" points="721.94,-318.21 725.61,-308.28 716.54,-313.76 721.94,-318.21"/>
</a>
</g>
</g>
<!-- Node15 -->
<g id="Node000015" class="node">
<title>Node15</title>
<g id="a_Node000015"><a xlink:href="hash_8h.html" target="_top" xlink:title=" ">
<polygon fill="white" stroke="#666666" points="769.12,-251.5 648.88,-251.5 648.88,-232.25 769.12,-232.25 769.12,-251.5"/>
<text text-anchor="middle" x="709" y="-238" font-family="Helvetica,sans-Serif" font-size="10.00">sensesp/system/hash.h</text>
</a>
</g>
</g>
<!-- Node13&#45;&gt;Node15 -->
<g id="edge17_Node000013_Node000015" class="edge">
<title>Node13&#45;&gt;Node15</title>
<g id="a_edge17_Node000013_Node000015"><a xlink:title=" ">
<path fill="none" stroke="#63b8ff" d="M685.66,-342.54C680.14,-330.06 672,-306.67 678,-287.5 681.05,-277.75 687.07,-268.27 693,-260.57"/>
<polygon fill="#63b8ff" stroke="#63b8ff" points="695.55,-262.97 699.26,-253.04 690.17,-258.49 695.55,-262.97"/>
</a>
</g>
</g>
<!-- Node15&#45;&gt;Node2 -->
<g id="edge18_Node000015_Node000002" class="edge">
<title>Node15&#45;&gt;Node2</title>
<g id="a_edge18_Node000015_Node000002"><a xlink:title=" ">
<path fill="none" stroke="#63b8ff" d="M700.04,-231.8C686.69,-218.61 660.45,-193.9 635,-177 616.83,-164.94 594.94,-154.01 577.3,-145.99"/>
<polygon fill="#63b8ff" stroke="#63b8ff" points="578.87,-142.86 568.31,-142 576.03,-149.26 578.87,-142.86"/>
</a>
</g>
</g>
<!-- Node16&#45;&gt;Node2 -->
<g id="edge20_Node000016_Node000002" class="edge">
<title>Node16&#45;&gt;Node2</title>
<g id="a_edge20_Node000016_Node000002"><a xlink:title=" ">
<path fill="none" stroke="#63b8ff" d="M287.94,-176.53C348.8,-166.08 447.47,-149.13 503.2,-139.56"/>
<polygon fill="#63b8ff" stroke="#63b8ff" points="503.65,-143.03 512.92,-137.89 502.47,-136.13 503.65,-143.03"/>
</a>
</g>
</g>
<!-- Node16&#45;&gt;Node6 -->
<g id="edge24_Node000016_Node000006" class="edge">
<title>Node16&#45;&gt;Node6</title>
<g id="a_edge24_Node000016_Node000006"><a xlink:title=" ">
<path fill="none" stroke="#63b8ff" d="M235.9,-176.91C237.49,-164.19 241.56,-140.04 251,-121.75 270.66,-83.66 305.72,-47.47 327.31,-27.24"/>
<polygon fill="#63b8ff" stroke="#63b8ff" points="329.53,-29.95 334.54,-20.62 324.8,-24.79 329.53,-29.95"/>
</a>
</g>
</g>
<!-- Node17 -->
<g id="Node000017" class="node">
<title>Node17</title>
<g id="a_Node000017"><a xlink:title=" ">
<polygon fill="#e0e0e0" stroke="#999999" points="391.12,-141 312.88,-141 312.88,-121.75 391.12,-121.75 391.12,-141"/>
<text text-anchor="middle" x="352" y="-127.5" font-family="Helvetica,sans-Serif" font-size="10.00">ArduinoJson.h</text>
</a>
</g>
</g>
<!-- Node16&#45;&gt;Node17 -->
<g id="edge21_Node000016_Node000017" class="edge">
<title>Node16&#45;&gt;Node17</title>
<g id="a_edge21_Node000016_Node000017"><a xlink:title=" ">
<path fill="none" stroke="#63b8ff" d="M254.85,-176.59C273.17,-168.25 300.65,-155.75 321.71,-146.16"/>
<polygon fill="#63b8ff" stroke="#63b8ff" points="323.03,-149.41 330.68,-142.08 320.13,-143.04 323.03,-149.41"/>
</a>
</g>
</g>
<!-- Node18 -->
<g id="Node000018" class="node">
<title>Node18</title>
<g id="a_Node000018"><a xlink:title=" ">
<polygon fill="#e0e0e0" stroke="#999999" points="294.38,-141 259.62,-141 259.62,-121.75 294.38,-121.75 294.38,-141"/>
<text text-anchor="middle" x="277" y="-127.5" font-family="Helvetica,sans-Serif" font-size="10.00">map</text>
</a>
</g>
</g>
<!-- Node16&#45;&gt;Node18 -->
<g id="edge22_Node000016_Node000018" class="edge">
<title>Node16&#45;&gt;Node18</title>
<g id="a_edge22_Node000016_Node000018"><a xlink:title=" ">
<path fill="none" stroke="#63b8ff" d="M241.94,-176.83C247.62,-169.63 255.84,-159.21 262.89,-150.26"/>
<polygon fill="#63b8ff" stroke="#63b8ff" points="265.53,-152.57 268.98,-142.55 260.04,-148.23 265.53,-152.57"/>
</a>
</g>
</g>
<!-- Node19 -->
<g id="Node000019" class="node">
<title>Node19</title>
<g id="a_Node000019"><a xlink:title=" ">
<polygon fill="#e0e0e0" stroke="#999999" points="203.5,-141 160.5,-141 160.5,-121.75 203.5,-121.75 203.5,-141"/>
<text text-anchor="middle" x="182" y="-127.5" font-family="Helvetica,sans-Serif" font-size="10.00">vector</text>
</a>
</g>
</g>
<!-- Node16&#45;&gt;Node19 -->
<g id="edge23_Node000016_Node000019" class="edge">
<title>Node16&#45;&gt;Node19</title>
<g id="a_edge23_Node000016_Node000019"><a xlink:title=" ">
<path fill="none" stroke="#63b8ff" d="M226.25,-176.83C218.85,-169.4 208.04,-158.54 198.95,-149.41"/>
<polygon fill="#63b8ff" stroke="#63b8ff" points="201.54,-147.05 192.01,-142.43 196.58,-151.99 201.54,-147.05"/>
</a>
</g>
</g>
<!-- Node20&#45;&gt;Node2 -->
<g id="edge26_Node000020_Node000002" class="edge">
<title>Node20&#45;&gt;Node2</title>
<g id="a_edge26_Node000020_Node000002"><a xlink:title=" ">
<path fill="none" stroke="#63b8ff" d="M475.73,-342.36C493.4,-335.53 514.34,-324.25 526,-306.75 557.75,-259.11 553.12,-187.41 548.41,-152.67"/>
<polygon fill="#63b8ff" stroke="#63b8ff" points="551.87,-152.15 546.91,-142.79 544.95,-153.21 551.87,-152.15"/>
</a>
</g>
</g>
<!-- Node21 -->
<g id="Node000021" class="node">
<title>Node21</title>
<g id="a_Node000021"><a xlink:title=" ">
<polygon fill="#e0e0e0" stroke="#999999" points="355,-306.75 297,-306.75 297,-287.5 355,-287.5 355,-306.75"/>
<text text-anchor="middle" x="326" y="-293.25" font-family="Helvetica,sans-Serif" font-size="10.00">esp_log.h</text>
</a>
</g>
</g>
<!-- Node20&#45;&gt;Node21 -->
<g id="edge27_Node000020_Node000021" class="edge">
<title>Node20&#45;&gt;Node21</title>
<g id="a_edge27_Node000020_Node000021"><a xlink:title=" ">
<path fill="none" stroke="#63b8ff" d="M424.81,-342.34C406.09,-333.97 377.98,-321.38 356.52,-311.78"/>
<polygon fill="#63b8ff" stroke="#63b8ff" points="358.22,-308.71 347.67,-307.82 355.37,-315.1 358.22,-308.71"/>
</a>
</g>
</g>
<!-- Node22 -->
<g id="Node000022" class="node">
<title>Node22</title>
<g id="a_Node000022"><a xlink:href="filesystem_8h.html" target="_top" xlink:title=" ">
<polygon fill="white" stroke="#666666" points="517.12,-306.75 372.88,-306.75 372.88,-287.5 517.12,-287.5 517.12,-306.75"/>
<text text-anchor="middle" x="445" y="-293.25" font-family="Helvetica,sans-Serif" font-size="10.00">sensesp/system/filesystem.h</text>
</a>
</g>
</g>
<!-- Node20&#45;&gt;Node22 -->
<g id="edge28_Node000020_Node000022" class="edge">
<title>Node20&#45;&gt;Node22</title>
<g id="a_edge28_Node000020_Node000022"><a xlink:title=" ">
<path fill="none" stroke="#63b8ff" d="M445,-342.58C445,-336.07 445,-326.92 445,-318.62"/>
<polygon fill="#63b8ff" stroke="#63b8ff" points="448.5,-318.62 445,-308.62 441.5,-318.62 448.5,-318.62"/>
</a>
</g>
</g>
<!-- Node25 -->
<g id="Node000025" class="node">
<title>Node25</title>
<g id="a_Node000025"><a xlink:href="observablevalue_8h.html" target="_top" xlink:title=" ">
<polygon fill="white" stroke="#666666" points="278.88,-306.75 109.12,-306.75 109.12,-287.5 278.88,-287.5 278.88,-306.75"/>
<text text-anchor="middle" x="194" y="-293.25" font-family="Helvetica,sans-Serif" font-size="10.00">sensesp/system/observablevalue.h</text>
</a>
</g>
</g>
<!-- Node20&#45;&gt;Node25 -->
<g id="edge31_Node000020_Node000025" class="edge">
<title>Node20&#45;&gt;Node25</title>
<g id="a_edge31_Node000020_Node000025"><a xlink:title=" ">
<path fill="none" stroke="#63b8ff" d="M402.14,-342.28C359.45,-333.23 293.8,-319.3 247.68,-309.51"/>
<polygon fill="#63b8ff" stroke="#63b8ff" points="248.68,-306.15 238.17,-307.5 247.22,-312.99 248.68,-306.15"/>
</a>
</g>
</g>
<!-- Node23 -->
<g id="Node000023" class="node">
<title>Node23</title>
<g id="a_Node000023"><a xlink:href="resettable_8h.html" target="_top" xlink:title=" ">
<polygon fill="white" stroke="#666666" points="497.5,-251.5 430.5,-251.5 430.5,-232.25 497.5,-232.25 497.5,-251.5"/>
<text text-anchor="middle" x="464" y="-238" font-family="Helvetica,sans-Serif" font-size="10.00">resettable.h</text>
</a>
</g>
</g>
<!-- Node22&#45;&gt;Node23 -->
<g id="edge29_Node000022_Node000023" class="edge">
<title>Node22&#45;&gt;Node23</title>
<g id="a_edge29_Node000022_Node000023"><a xlink:title=" ">
<path fill="none" stroke="#63b8ff" d="M448.14,-287.33C450.54,-280.59 453.96,-271.02 457,-262.49"/>
<polygon fill="#63b8ff" stroke="#63b8ff" points="460.22,-263.88 460.29,-253.28 453.63,-261.53 460.22,-263.88"/>
</a>
</g>
</g>
<!-- Node24 -->
<g id="Node000024" class="node">
<title>Node24</title>
<g id="a_Node000024"><a xlink:title=" ">
<polygon fill="#e0e0e0" stroke="#999999" points="517.12,-196.25 474.88,-196.25 474.88,-177 517.12,-177 517.12,-196.25"/>
<text text-anchor="middle" x="496" y="-182.75" font-family="Helvetica,sans-Serif" font-size="10.00">queue</text>
</a>
</g>
</g>
<!-- Node23&#45;&gt;Node24 -->
<g id="edge30_Node000023_Node000024" class="edge">
<title>Node23&#45;&gt;Node24</title>
<g id="a_edge30_Node000023_Node000024"><a xlink:title=" ">
<path fill="none" stroke="#63b8ff" d="M469.28,-232.08C473.47,-225.11 479.48,-215.12 484.73,-206.37"/>
<polygon fill="#63b8ff" stroke="#63b8ff" points="487.67,-208.28 489.82,-197.91 481.67,-204.68 487.67,-208.28"/>
</a>
</g>
</g>
<!-- Node25&#45;&gt;Node16 -->
<g id="edge32_Node000025_Node000016" class="edge">
<title>Node25&#45;&gt;Node16</title>
<g id="a_edge32_Node000025_Node000016"><a xlink:title=" ">
<path fill="none" stroke="#63b8ff" d="M197.36,-287.25C203.93,-269.84 218.66,-230.87 227.62,-207.16"/>
<polygon fill="#63b8ff" stroke="#63b8ff" points="230.8,-208.63 231.06,-198.04 224.25,-206.16 230.8,-208.63"/>
</a>
</g>
</g>
<!-- Node26 -->
<g id="Node000026" class="node">
<title>Node26</title>
<g id="a_Node000026"><a xlink:href="observable_8h.html" target="_top" xlink:title=" ">
<polygon fill="white" stroke="#666666" points="140.75,-196.25 69.25,-196.25 69.25,-177 140.75,-177 140.75,-196.25"/>
<text text-anchor="middle" x="105" y="-182.75" font-family="Helvetica,sans-Serif" font-size="10.00">observable.h</text>
</a>
</g>
</g>
<!-- Node25&#45;&gt;Node26 -->
<g id="edge33_Node000025_Node000026" class="edge">
<title>Node25&#45;&gt;Node26</title>
<g id="a_edge33_Node000025_Node000026"><a xlink:title=" ">
<path fill="none" stroke="#63b8ff" d="M186.72,-287.25C172.05,-269.36 138.71,-228.72 119.46,-205.25"/>
<polygon fill="#63b8ff" stroke="#63b8ff" points="122.39,-203.31 113.34,-197.8 116.98,-207.75 122.39,-203.31"/>
</a>
</g>
</g>
<!-- Node28 -->
<g id="Node000028" class="node">
<title>Node28</title>
<g id="a_Node000028"><a xlink:href="valueproducer_8h.html" target="_top" xlink:title=" ">
<polygon fill="white" stroke="#666666" points="354.12,-251.5 269.88,-251.5 269.88,-232.25 354.12,-232.25 354.12,-251.5"/>
<text text-anchor="middle" x="312" y="-238" font-family="Helvetica,sans-Serif" font-size="10.00">valueproducer.h</text>
</a>
</g>
</g>
<!-- Node25&#45;&gt;Node28 -->
<g id="edge37_Node000025_Node000028" class="edge">
<title>Node25&#45;&gt;Node28</title>
<g id="a_edge37_Node000025_Node000028"><a xlink:title=" ">
<path fill="none" stroke="#63b8ff" d="M214.02,-287.09C232.49,-278.75 260.21,-266.25 281.45,-256.66"/>
<polygon fill="#63b8ff" stroke="#63b8ff" points="282.83,-259.88 290.51,-252.58 279.95,-253.5 282.83,-259.88"/>
</a>
</g>
</g>
<!-- Node26&#45;&gt;Node10 -->
<g id="edge35_Node000026_Node000010" class="edge">
<title>Node26&#45;&gt;Node10</title>
<g id="a_edge35_Node000026_Node000010"><a xlink:title=" ">
<path fill="none" stroke="#63b8ff" d="M92.11,-176.59C80.97,-168.79 64.63,-157.34 51.36,-148.04"/>
<polygon fill="#63b8ff" stroke="#63b8ff" points="53.39,-145.19 43.2,-142.32 49.38,-150.93 53.39,-145.19"/>
</a>
</g>
</g>
<!-- Node26&#45;&gt;Node19 -->
<g id="edge36_Node000026_Node000019" class="edge">
<title>Node26&#45;&gt;Node19</title>
<g id="a_edge36_Node000026_Node000019"><a xlink:title=" ">
<path fill="none" stroke="#63b8ff" d="M118.06,-176.59C129.46,-168.71 146.23,-157.11 159.74,-147.77"/>
<polygon fill="#63b8ff" stroke="#63b8ff" points="161.4,-150.88 167.63,-142.31 157.41,-145.12 161.4,-150.88"/>
</a>
</g>
</g>
<!-- Node27 -->
<g id="Node000027" class="node">
<title>Node27</title>
<g id="a_Node000027"><a xlink:title=" ">
<polygon fill="#e0e0e0" stroke="#999999" points="142.12,-141 75.88,-141 75.88,-121.75 142.12,-121.75 142.12,-141"/>
<text text-anchor="middle" x="109" y="-127.5" font-family="Helvetica,sans-Serif" font-size="10.00">forward_list</text>
</a>
</g>
</g>
<!-- Node26&#45;&gt;Node27 -->
<g id="edge34_Node000026_Node000027" class="edge">
<title>Node26&#45;&gt;Node27</title>
<g id="a_edge34_Node000026_Node000027"><a xlink:title=" ">
<path fill="none" stroke="#63b8ff" d="M105.66,-176.83C106.16,-170.24 106.85,-160.96 107.48,-152.57"/>
<polygon fill="#63b8ff" stroke="#63b8ff" points="110.95,-153.1 108.21,-142.87 103.97,-152.58 110.95,-153.1"/>
</a>
</g>
</g>
<!-- Node28&#45;&gt;Node17 -->
<g id="edge38_Node000028_Node000017" class="edge">
<title>Node28&#45;&gt;Node17</title>
<g id="a_edge38_Node000028_Node000017"><a xlink:title=" ">
<path fill="none" stroke="#63b8ff" d="M315.27,-232C321.69,-214.59 336.06,-175.62 344.8,-151.91"/>
<polygon fill="#63b8ff" stroke="#63b8ff" points="347.98,-153.39 348.16,-142.8 341.41,-150.97 347.98,-153.39"/>
</a>
</g>
</g>
<!-- Node28&#45;&gt;Node26 -->
<g id="edge39_Node000028_Node000026" class="edge">
<title>Node28&#45;&gt;Node26</title>
<g id="a_edge39_Node000028_Node000026"><a xlink:title=" ">
<path fill="none" stroke="#63b8ff" d="M276.89,-231.84C242.24,-222.93 189.09,-209.26 151.07,-199.48"/>
<polygon fill="#63b8ff" stroke="#63b8ff" points="152.31,-196.18 141.75,-197.08 150.57,-202.96 152.31,-196.18"/>
</a>
</g>
</g>
<!-- Node29 -->
<g id="Node000029" class="node">
<title>Node29</title>
<g id="a_Node000029"><a xlink:href="valueconsumer_8h.html" target="_top" xlink:title=" ">
<polygon fill="white" stroke="#666666" points="456.75,-196.25 367.25,-196.25 367.25,-177 456.75,-177 456.75,-196.25"/>
<text text-anchor="middle" x="412" y="-182.75" font-family="Helvetica,sans-Serif" font-size="10.00">valueconsumer.h</text>
</a>
</g>
</g>
<!-- Node28&#45;&gt;Node29 -->
<g id="edge40_Node000028_Node000029" class="edge">
<title>Node28&#45;&gt;Node29</title>
<g id="a_edge40_Node000028_Node000029"><a xlink:title=" ">
<path fill="none" stroke="#63b8ff" d="M328.96,-231.84C344.26,-223.69 367.03,-211.57 384.86,-202.08"/>
<polygon fill="#63b8ff" stroke="#63b8ff" points="386.44,-205.2 393.62,-197.41 383.15,-199.02 386.44,-205.2"/>
</a>
</g>
</g>
<!-- Node29&#45;&gt;Node2 -->
<g id="edge41_Node000029_Node000002" class="edge">
<title>Node29&#45;&gt;Node2</title>
<g id="a_edge41_Node000029_Node000002"><a xlink:title=" ">
<path fill="none" stroke="#63b8ff" d="M434.56,-176.59C455.77,-168.1 487.77,-155.29 511.88,-145.64"/>
<polygon fill="#63b8ff" stroke="#63b8ff" points="512.94,-148.98 520.92,-142.02 510.34,-142.48 512.94,-148.98"/>
</a>
</g>
</g>
<!-- Node29&#45;&gt;Node17 -->
<g id="edge42_Node000029_Node000017" class="edge">
<title>Node29&#45;&gt;Node17</title>
<g id="a_edge42_Node000029_Node000017"><a xlink:title=" ">
<path fill="none" stroke="#63b8ff" d="M401.82,-176.59C393.24,-168.97 380.73,-157.87 370.4,-148.7"/>
<polygon fill="#63b8ff" stroke="#63b8ff" points="372.96,-146.3 363.16,-142.28 368.32,-151.54 372.96,-146.3"/>
</a>
</g>
</g>
<!-- Node30 -->
<g id="Node000030" class="node">
<title>Node30</title>
<g id="a_Node000030"><a xlink:title=" ">
<polygon fill="#e0e0e0" stroke="#999999" points="457.12,-141 408.88,-141 408.88,-121.75 457.12,-121.75 457.12,-141"/>
<text text-anchor="middle" x="433" y="-127.5" font-family="Helvetica,sans-Serif" font-size="10.00">stdint.h</text>
</a>
</g>
</g>
<!-- Node29&#45;&gt;Node30 -->
<g id="edge43_Node000029_Node000030" class="edge">
<title>Node29&#45;&gt;Node30</title>
<g id="a_edge43_Node000029_Node000030"><a xlink:title=" ">
<path fill="none" stroke="#63b8ff" d="M415.47,-176.83C418.13,-170.09 421.9,-160.52 425.26,-151.99"/>
<polygon fill="#63b8ff" stroke="#63b8ff" points="428.49,-153.35 428.9,-142.77 421.98,-150.79 428.49,-153.35"/>
</a>
</g>
</g>
</g>
</svg>

<g id="navigator" transform="translate(0 0)" fill="#404254">
  <rect fill="#f2f5e9" fill-opacity="0.5" stroke="#606060" stroke-width=".5" x="0" y="0" width="60" height="60"/>
  <use id="zoomplus" xlink:href="#zoomPlus" x="17" y="9" onmousedown="handleZoom(evt,'in')"/>
  <use id="zoomminus" xlink:href="#zoomMin" x="42" y="9" onmousedown="handleZoom(evt,'out')"/>
  <use id="reset" xlink:href="#resetDef" x="30" y="36" onmousedown="handleReset()"/>
   <use id="arrowup" xlink:href="#arrowUp" x="0" y="0" onmousedown="handlePan(0,-1)"/>
  <use id="arrowright" xlink:href="#arrowRight" x="0" y="0" onmousedown="handlePan(1,0)"/>
  <use id="arrowdown" xlink:href="#arrowDown" x="0" y="0" onmousedown="handlePan(0,1)"/>
  <use id="arrowleft" xlink:href="#arrowLeft" x="0" y="0" onmousedown="handlePan(-1,0)"/>
</g>
<svg viewBox="0 0 15 15" width="100%" height="30px" preserveAspectRatio="xMaxYMin meet">
 <g id="arrow_out" transform="scale(0.3 0.3)">
  <a xlink:href="http__server_8h__incl_org.svg" target="_base">
   <rect id="button" ry="5" rx="5" y="6" x="6" height="38" width="38"
        fill="#f2f5e9" fill-opacity="0.5" stroke="#606060" stroke-width="1.0"/>
   <path id="arrow"
     d="M 11.500037,31.436501 C 11.940474,20.09759 22.043105,11.32322 32.158766,21.979434 L 37.068811,17.246167 C 37.068811,17.246167 37.088388,32 37.088388,32 L 22.160133,31.978069 C 22.160133,31.978069 26.997745,27.140456 26.997745,27.140456 C 18.528582,18.264221 13.291696,25.230495 11.500037,31.436501 z"
     style="fill:#404040;"/>
  </a>
 </g>
</svg>

<style type='text/css'>
<![CDATA[
[data-mouse-over-selected='false'] { opacity: 0.7; }
[data-mouse-over-selected='true']  { opacity: 1.0; }
]]>
</style>
<script type="application/ecmascript"><![CDATA[
document.addEventListener('DOMContentLoaded', (event) => {
  highlightEdges();
  highlightAdjacentNodes();
});
]]></script>
</svg>
