<?xml version="1.0" encoding="UTF-8" standalone="no"?>
<!DOCTYPE svg PUBLIC "-//W3C//DTD SVG 1.1//EN"
 "http://www.w3.org/Graphics/SVG/1.1/DTD/svg11.dtd">
<!-- Generated by graphviz version 2.48.0 (20210717.1556)
 -->
<!-- Title: src/transforms/hysteresis.h Pages: 1 -->
<svg width="715pt" height="364pt"
 viewBox="0.00 0.00 715.15 364.00" xmlns="http://www.w3.org/2000/svg" xmlns:xlink="http://www.w3.org/1999/xlink">
<g id="graph0" class="graph" transform="scale(1 1) rotate(0) translate(4 360)">
<title>src/transforms/hysteresis.h</title>
<polygon fill="white" stroke="transparent" points="-4,4 -4,-360 711.15,-360 711.15,4 -4,4"/>
<!-- Node1 -->
<g id="node1" class="node">
<title>Node1</title>
<g id="a_node1"><a xlink:title=" ">
<polygon fill="#bfbfbf" stroke="black" points="229.65,-336.5 229.65,-355.5 365.65,-355.5 365.65,-336.5 229.65,-336.5"/>
<text text-anchor="middle" x="297.65" y="-343.5" font-family="Helvetica,sans-Serif" font-size="10.00">src/transforms/hysteresis.h</text>
</a>
</g>
</g>
<!-- Node2 -->
<g id="node2" class="node">
<title>Node2</title>
<g id="a_node2"><a xlink:href="lambda__transform_8h.html" target="_top" xlink:title=" ">
<polygon fill="white" stroke="black" points="245.15,-280.5 245.15,-299.5 350.15,-299.5 350.15,-280.5 245.15,-280.5"/>
<text text-anchor="middle" x="297.65" y="-287.5" font-family="Helvetica,sans-Serif" font-size="10.00">lambda_transform.h</text>
</a>
</g>
</g>
<!-- Node1&#45;&gt;Node2 -->
<g id="edge1" class="edge">
<title>Node1&#45;&gt;Node2</title>
<path fill="none" stroke="midnightblue" d="M297.65,-336.08C297.65,-329.01 297.65,-318.86 297.65,-309.99"/>
<polygon fill="midnightblue" stroke="midnightblue" points="301.15,-309.75 297.65,-299.75 294.15,-309.75 301.15,-309.75"/>
</g>
<!-- Node3 -->
<g id="node3" class="node">
<title>Node3</title>
<g id="a_node3"><a xlink:href="transform_8h.html" target="_top" xlink:title=" ">
<polygon fill="white" stroke="black" points="264.15,-224.5 264.15,-243.5 331.15,-243.5 331.15,-224.5 264.15,-224.5"/>
<text text-anchor="middle" x="297.65" y="-231.5" font-family="Helvetica,sans-Serif" font-size="10.00">transform.h</text>
</a>
</g>
</g>
<!-- Node2&#45;&gt;Node3 -->
<g id="edge2" class="edge">
<title>Node2&#45;&gt;Node3</title>
<path fill="none" stroke="midnightblue" d="M297.65,-280.08C297.65,-273.01 297.65,-262.86 297.65,-253.99"/>
<polygon fill="midnightblue" stroke="midnightblue" points="301.15,-253.75 297.65,-243.75 294.15,-253.75 301.15,-253.75"/>
</g>
<!-- Node4 -->
<g id="node4" class="node">
<title>Node4</title>
<g id="a_node4"><a xlink:title=" ">
<polygon fill="white" stroke="#bfbfbf" points="104.65,-56.5 104.65,-75.5 184.65,-75.5 184.65,-56.5 104.65,-56.5"/>
<text text-anchor="middle" x="144.65" y="-63.5" font-family="Helvetica,sans-Serif" font-size="10.00">ArduinoJson.h</text>
</a>
</g>
</g>
<!-- Node3&#45;&gt;Node4 -->
<g id="edge3" class="edge">
<title>Node3&#45;&gt;Node4</title>
<path fill="none" stroke="midnightblue" d="M263.91,-232.46C197.31,-230.64 52.52,-222.69 19.65,-188 -3.66,-163.41 -6.04,-139.58 13.65,-112 31.96,-86.35 65.85,-75.17 94.57,-70.36"/>
<polygon fill="midnightblue" stroke="midnightblue" points="95.09,-73.83 104.48,-68.92 94.08,-66.9 95.09,-73.83"/>
</g>
<!-- Node5 -->
<g id="node5" class="node">
<title>Node5</title>
<g id="a_node5"><a xlink:title=" ">
<polygon fill="white" stroke="#bfbfbf" points="490.65,-168.5 490.65,-187.5 520.65,-187.5 520.65,-168.5 490.65,-168.5"/>
<text text-anchor="middle" x="505.65" y="-175.5" font-family="Helvetica,sans-Serif" font-size="10.00">set</text>
</a>
</g>
</g>
<!-- Node3&#45;&gt;Node5 -->
<g id="edge4" class="edge">
<title>Node3&#45;&gt;Node5</title>
<path fill="none" stroke="midnightblue" d="M331.44,-225.09C367.54,-216.5 426.36,-202.11 476.65,-188 478.07,-187.6 479.54,-187.18 481.01,-186.75"/>
<polygon fill="midnightblue" stroke="midnightblue" points="482.09,-190.08 490.64,-183.83 480.06,-183.38 482.09,-190.08"/>
</g>
<!-- Node6 -->
<g id="node6" class="node">
<title>Node6</title>
<g id="a_node6"><a xlink:title=" ">
<polygon fill="white" stroke="#bfbfbf" points="115.15,-112.5 115.15,-131.5 174.15,-131.5 174.15,-112.5 115.15,-112.5"/>
<text text-anchor="middle" x="144.65" y="-119.5" font-family="Helvetica,sans-Serif" font-size="10.00">Arduino.h</text>
</a>
</g>
</g>
<!-- Node3&#45;&gt;Node6 -->
<g id="edge5" class="edge">
<title>Node3&#45;&gt;Node6</title>
<path fill="none" stroke="midnightblue" d="M281.44,-224.44C265.72,-215.89 241.39,-202.03 221.65,-188 199.75,-172.44 176.41,-152.16 161.25,-138.42"/>
<polygon fill="midnightblue" stroke="midnightblue" points="163.46,-135.7 153.72,-131.53 158.74,-140.86 163.46,-135.7"/>
</g>
<!-- Node7 -->
<g id="node7" class="node">
<title>Node7</title>
<g id="a_node7"><a xlink:href="sensesp_8h.html" target="_top" xlink:title=" ">
<polygon fill="white" stroke="black" points="289.65,-56.5 289.65,-75.5 351.65,-75.5 351.65,-56.5 289.65,-56.5"/>
<text text-anchor="middle" x="320.65" y="-63.5" font-family="Helvetica,sans-Serif" font-size="10.00">sensesp.h</text>
</a>
</g>
</g>
<!-- Node3&#45;&gt;Node7 -->
<g id="edge6" class="edge">
<title>Node3&#45;&gt;Node7</title>
<path fill="none" stroke="midnightblue" d="M322.12,-224.44C338.21,-217.38 358.02,-205.63 367.65,-188 383.83,-158.35 380.91,-143.06 367.65,-112 362.5,-99.95 352.36,-89.58 342.82,-81.84"/>
<polygon fill="midnightblue" stroke="midnightblue" points="344.82,-78.96 334.72,-75.74 340.61,-84.55 344.82,-78.96"/>
</g>
<!-- Node10 -->
<g id="node10" class="node">
<title>Node10</title>
<g id="a_node10"><a xlink:href="configurable_8h.html" target="_top" xlink:title=" ">
<polygon fill="white" stroke="black" points="28.65,-168.5 28.65,-187.5 142.65,-187.5 142.65,-168.5 28.65,-168.5"/>
<text text-anchor="middle" x="85.65" y="-175.5" font-family="Helvetica,sans-Serif" font-size="10.00">system/configurable.h</text>
</a>
</g>
</g>
<!-- Node3&#45;&gt;Node10 -->
<g id="edge9" class="edge">
<title>Node3&#45;&gt;Node10</title>
<path fill="none" stroke="midnightblue" d="M264.05,-224.44C227.46,-215.12 168.81,-200.18 128.82,-190"/>
<polygon fill="midnightblue" stroke="midnightblue" points="129.64,-186.59 119.08,-187.52 127.91,-193.38 129.64,-186.59"/>
</g>
<!-- Node12 -->
<g id="node12" class="node">
<title>Node12</title>
<g id="a_node12"><a xlink:href="enable_8h.html" target="_top" xlink:title=" ">
<polygon fill="white" stroke="black" points="415.15,-112.5 415.15,-131.5 504.15,-131.5 504.15,-112.5 415.15,-112.5"/>
<text text-anchor="middle" x="459.65" y="-119.5" font-family="Helvetica,sans-Serif" font-size="10.00">system/enable.h</text>
</a>
</g>
</g>
<!-- Node3&#45;&gt;Node12 -->
<g id="edge13" class="edge">
<title>Node3&#45;&gt;Node12</title>
<path fill="none" stroke="midnightblue" d="M325.54,-224.42C347.26,-216.92 377.5,-204.62 400.65,-188 419.33,-174.58 436.49,-154.39 447.43,-140.08"/>
<polygon fill="midnightblue" stroke="midnightblue" points="450.53,-141.77 453.68,-131.65 444.91,-137.6 450.53,-141.77"/>
</g>
<!-- Node15 -->
<g id="node15" class="node">
<title>Node15</title>
<g id="a_node15"><a xlink:href="observable_8h.html" target="_top" xlink:title=" ">
<polygon fill="white" stroke="black" points="522.65,-112.5 522.65,-131.5 630.65,-131.5 630.65,-112.5 522.65,-112.5"/>
<text text-anchor="middle" x="576.65" y="-119.5" font-family="Helvetica,sans-Serif" font-size="10.00">system/observable.h</text>
</a>
</g>
</g>
<!-- Node3&#45;&gt;Node15 -->
<g id="edge17" class="edge">
<title>Node3&#45;&gt;Node15</title>
<path fill="none" stroke="midnightblue" d="M323.61,-224.34C349.4,-215.61 390,-201.53 424.65,-188 468.31,-170.95 518.13,-149.2 548.47,-135.68"/>
<polygon fill="midnightblue" stroke="midnightblue" points="549.91,-138.88 557.61,-131.6 547.05,-132.49 549.91,-138.88"/>
</g>
<!-- Node19 -->
<g id="node19" class="node">
<title>Node19</title>
<g id="a_node19"><a xlink:href="valueconsumer_8h.html" target="_top" xlink:title=" ">
<polygon fill="white" stroke="black" points="231.15,-112.5 231.15,-131.5 358.15,-131.5 358.15,-112.5 231.15,-112.5"/>
<text text-anchor="middle" x="294.65" y="-119.5" font-family="Helvetica,sans-Serif" font-size="10.00">system/valueconsumer.h</text>
</a>
</g>
</g>
<!-- Node3&#45;&gt;Node19 -->
<g id="edge21" class="edge">
<title>Node3&#45;&gt;Node19</title>
<path fill="none" stroke="midnightblue" d="M273.18,-224.44C257.08,-217.38 237.27,-205.63 227.65,-188 215.97,-166.62 241.1,-147.94 263.84,-136.16"/>
<polygon fill="midnightblue" stroke="midnightblue" points="265.54,-139.22 273,-131.69 262.48,-132.93 265.54,-139.22"/>
</g>
<!-- Node20 -->
<g id="node20" class="node">
<title>Node20</title>
<g id="a_node20"><a xlink:href="valueproducer_8h.html" target="_top" xlink:title=" ">
<polygon fill="white" stroke="black" points="236.65,-168.5 236.65,-187.5 358.65,-187.5 358.65,-168.5 236.65,-168.5"/>
<text text-anchor="middle" x="297.65" y="-175.5" font-family="Helvetica,sans-Serif" font-size="10.00">system/valueproducer.h</text>
</a>
</g>
</g>
<!-- Node3&#45;&gt;Node20 -->
<g id="edge25" class="edge">
<title>Node3&#45;&gt;Node20</title>
<path fill="none" stroke="midnightblue" d="M297.65,-224.08C297.65,-217.01 297.65,-206.86 297.65,-197.99"/>
<polygon fill="midnightblue" stroke="midnightblue" points="301.15,-197.75 297.65,-187.75 294.15,-197.75 301.15,-197.75"/>
</g>
<!-- Node8 -->
<g id="node8" class="node">
<title>Node8</title>
<g id="a_node8"><a xlink:title=" ">
<polygon fill="white" stroke="#bfbfbf" points="236.65,-0.5 236.65,-19.5 306.65,-19.5 306.65,-0.5 236.65,-0.5"/>
<text text-anchor="middle" x="271.65" y="-7.5" font-family="Helvetica,sans-Serif" font-size="10.00">ReactESP.h</text>
</a>
</g>
</g>
<!-- Node7&#45;&gt;Node8 -->
<g id="edge7" class="edge">
<title>Node7&#45;&gt;Node8</title>
<path fill="none" stroke="midnightblue" d="M312.55,-56.08C305.49,-48.3 295.06,-36.8 286.5,-27.37"/>
<polygon fill="midnightblue" stroke="midnightblue" points="288.9,-24.8 279.59,-19.75 283.71,-29.51 288.9,-24.8"/>
</g>
<!-- Node9 -->
<g id="node9" class="node">
<title>Node9</title>
<g id="a_node9"><a xlink:title=" ">
<polygon fill="white" stroke="#bfbfbf" points="325.15,-0.5 325.15,-19.5 414.15,-19.5 414.15,-0.5 325.15,-0.5"/>
<text text-anchor="middle" x="369.65" y="-7.5" font-family="Helvetica,sans-Serif" font-size="10.00">RemoteDebug.h</text>
</a>
</g>
</g>
<!-- Node7&#45;&gt;Node9 -->
<g id="edge8" class="edge">
<title>Node7&#45;&gt;Node9</title>
<path fill="none" stroke="midnightblue" d="M328.74,-56.08C335.8,-48.3 346.23,-36.8 354.79,-27.37"/>
<polygon fill="midnightblue" stroke="midnightblue" points="357.58,-29.51 361.71,-19.75 352.39,-24.8 357.58,-29.51"/>
</g>
<!-- Node10&#45;&gt;Node4 -->
<g id="edge10" class="edge">
<title>Node10&#45;&gt;Node4</title>
<path fill="none" stroke="midnightblue" d="M87.16,-168.13C89.64,-155.17 95.34,-130.59 105.65,-112 111.51,-101.42 120.16,-91.11 127.83,-83.04"/>
<polygon fill="midnightblue" stroke="midnightblue" points="130.47,-85.34 135.02,-75.78 125.5,-80.42 130.47,-85.34"/>
</g>
<!-- Node10&#45;&gt;Node6 -->
<g id="edge12" class="edge">
<title>Node10&#45;&gt;Node6</title>
<path fill="none" stroke="midnightblue" d="M95.13,-168.32C103.85,-160.34 116.99,-148.31 127.54,-138.65"/>
<polygon fill="midnightblue" stroke="midnightblue" points="129.98,-141.17 134.99,-131.83 125.25,-136 129.98,-141.17"/>
</g>
<!-- Node11 -->
<g id="node11" class="node">
<title>Node11</title>
<g id="a_node11"><a xlink:title=" ">
<polygon fill="white" stroke="#bfbfbf" points="22.65,-112.5 22.65,-131.5 58.65,-131.5 58.65,-112.5 22.65,-112.5"/>
<text text-anchor="middle" x="40.65" y="-119.5" font-family="Helvetica,sans-Serif" font-size="10.00">map</text>
</a>
</g>
</g>
<!-- Node10&#45;&gt;Node11 -->
<g id="edge11" class="edge">
<title>Node10&#45;&gt;Node11</title>
<path fill="none" stroke="midnightblue" d="M78.22,-168.08C71.79,-160.38 62.34,-149.03 54.52,-139.65"/>
<polygon fill="midnightblue" stroke="midnightblue" points="57.03,-137.19 47.94,-131.75 51.65,-141.67 57.03,-137.19"/>
</g>
<!-- Node12&#45;&gt;Node7 -->
<g id="edge16" class="edge">
<title>Node12&#45;&gt;Node7</title>
<path fill="none" stroke="midnightblue" d="M437.62,-112.44C414.54,-103.48 378.08,-89.31 352.01,-79.18"/>
<polygon fill="midnightblue" stroke="midnightblue" points="353.16,-75.88 342.57,-75.52 350.62,-82.4 353.16,-75.88"/>
</g>
<!-- Node13 -->
<g id="node13" class="node">
<title>Node13</title>
<g id="a_node13"><a xlink:title=" ">
<polygon fill="white" stroke="#bfbfbf" points="370.15,-56.5 370.15,-75.5 419.15,-75.5 419.15,-56.5 370.15,-56.5"/>
<text text-anchor="middle" x="394.65" y="-63.5" font-family="Helvetica,sans-Serif" font-size="10.00">stdint.h</text>
</a>
</g>
</g>
<!-- Node12&#45;&gt;Node13 -->
<g id="edge14" class="edge">
<title>Node12&#45;&gt;Node13</title>
<path fill="none" stroke="midnightblue" d="M449.2,-112.32C439.5,-104.26 424.83,-92.08 413.15,-82.37"/>
<polygon fill="midnightblue" stroke="midnightblue" points="415.21,-79.53 405.28,-75.83 410.73,-84.92 415.21,-79.53"/>
</g>
<!-- Node14 -->
<g id="node14" class="node">
<title>Node14</title>
<g id="a_node14"><a xlink:title=" ">
<polygon fill="white" stroke="#bfbfbf" points="437.65,-56.5 437.65,-75.5 481.65,-75.5 481.65,-56.5 437.65,-56.5"/>
<text text-anchor="middle" x="459.65" y="-63.5" font-family="Helvetica,sans-Serif" font-size="10.00">queue</text>
</a>
</g>
</g>
<!-- Node12&#45;&gt;Node14 -->
<g id="edge15" class="edge">
<title>Node12&#45;&gt;Node14</title>
<path fill="none" stroke="midnightblue" d="M459.65,-112.08C459.65,-105.01 459.65,-94.86 459.65,-85.99"/>
<polygon fill="midnightblue" stroke="midnightblue" points="463.15,-85.75 459.65,-75.75 456.15,-85.75 463.15,-85.75"/>
</g>
<!-- Node16 -->
<g id="node16" class="node">
<title>Node16</title>
<g id="a_node16"><a xlink:title=" ">
<polygon fill="white" stroke="#bfbfbf" points="561.65,-56.5 561.65,-75.5 629.65,-75.5 629.65,-56.5 561.65,-56.5"/>
<text text-anchor="middle" x="595.65" y="-63.5" font-family="Helvetica,sans-Serif" font-size="10.00">forward_list</text>
</a>
</g>
</g>
<!-- Node15&#45;&gt;Node16 -->
<g id="edge18" class="edge">
<title>Node15&#45;&gt;Node16</title>
<path fill="none" stroke="midnightblue" d="M579.78,-112.08C582.33,-104.85 586,-94.41 589.17,-85.4"/>
<polygon fill="midnightblue" stroke="midnightblue" points="592.55,-86.35 592.57,-75.75 585.95,-84.02 592.55,-86.35"/>
</g>
<!-- Node17 -->
<g id="node17" class="node">
<title>Node17</title>
<g id="a_node17"><a xlink:title=" ">
<polygon fill="white" stroke="#bfbfbf" points="648.15,-56.5 648.15,-75.5 707.15,-75.5 707.15,-56.5 648.15,-56.5"/>
<text text-anchor="middle" x="677.65" y="-63.5" font-family="Helvetica,sans-Serif" font-size="10.00">functional</text>
</a>
</g>
</g>
<!-- Node15&#45;&gt;Node17 -->
<g id="edge19" class="edge">
<title>Node15&#45;&gt;Node17</title>
<path fill="none" stroke="midnightblue" d="M592.87,-112.32C609,-103.7 633.95,-90.36 652.61,-80.39"/>
<polygon fill="midnightblue" stroke="midnightblue" points="654.29,-83.46 661.46,-75.65 650.99,-77.28 654.29,-83.46"/>
</g>
<!-- Node18 -->
<g id="node18" class="node">
<title>Node18</title>
<g id="a_node18"><a xlink:title=" ">
<polygon fill="white" stroke="#bfbfbf" points="499.65,-56.5 499.65,-75.5 543.65,-75.5 543.65,-56.5 499.65,-56.5"/>
<text text-anchor="middle" x="521.65" y="-63.5" font-family="Helvetica,sans-Serif" font-size="10.00">vector</text>
</a>
</g>
</g>
<!-- Node15&#45;&gt;Node18 -->
<g id="edge20" class="edge">
<title>Node15&#45;&gt;Node18</title>
<path fill="none" stroke="midnightblue" d="M567.56,-112.08C559.47,-104.14 547.45,-92.34 537.74,-82.8"/>
<polygon fill="midnightblue" stroke="midnightblue" points="540.15,-80.26 530.56,-75.75 535.24,-85.25 540.15,-80.26"/>
</g>
<!-- Node19&#45;&gt;Node4 -->
<g id="edge22" class="edge">
<title>Node19&#45;&gt;Node4</title>
<path fill="none" stroke="midnightblue" d="M270.88,-112.44C245.75,-103.4 205.93,-89.06 177.75,-78.92"/>
<polygon fill="midnightblue" stroke="midnightblue" points="178.9,-75.61 168.3,-75.52 176.53,-82.2 178.9,-75.61"/>
</g>
<!-- Node19&#45;&gt;Node7 -->
<g id="edge24" class="edge">
<title>Node19&#45;&gt;Node7</title>
<path fill="none" stroke="midnightblue" d="M298.94,-112.08C302.5,-104.69 307.67,-93.95 312.07,-84.81"/>
<polygon fill="midnightblue" stroke="midnightblue" points="315.25,-86.28 316.43,-75.75 308.94,-83.24 315.25,-86.28"/>
</g>
<!-- Node19&#45;&gt;Node13 -->
<g id="edge23" class="edge">
<title>Node19&#45;&gt;Node13</title>
<path fill="none" stroke="midnightblue" d="M310.71,-112.32C326.6,-103.74 351.15,-90.49 369.6,-80.52"/>
<polygon fill="midnightblue" stroke="midnightblue" points="371.48,-83.49 378.62,-75.65 368.16,-77.33 371.48,-83.49"/>
</g>
<!-- Node20&#45;&gt;Node4 -->
<g id="edge26" class="edge">
<title>Node20&#45;&gt;Node4</title>
<path fill="none" stroke="midnightblue" d="M281.44,-168.44C265.72,-159.89 241.39,-146.03 221.65,-132 199.75,-116.44 176.41,-96.16 161.25,-82.42"/>
<polygon fill="midnightblue" stroke="midnightblue" points="163.46,-79.7 153.72,-75.53 158.74,-84.86 163.46,-79.7"/>
</g>
<!-- Node20&#45;&gt;Node15 -->
<g id="edge27" class="edge">
<title>Node20&#45;&gt;Node15</title>
<path fill="none" stroke="midnightblue" d="M341.85,-168.44C390.93,-158.94 470.16,-143.61 522.81,-133.42"/>
<polygon fill="midnightblue" stroke="midnightblue" points="523.49,-136.85 532.64,-131.52 522.16,-129.98 523.49,-136.85"/>
</g>
<!-- Node20&#45;&gt;Node19 -->
<g id="edge28" class="edge">
<title>Node20&#45;&gt;Node19</title>
<path fill="none" stroke="midnightblue" d="M297.15,-168.08C296.76,-161.01 296.19,-150.86 295.7,-141.99"/>
<polygon fill="midnightblue" stroke="midnightblue" points="299.18,-141.54 295.13,-131.75 292.19,-141.93 299.18,-141.54"/>
</g>
</g>
</svg>
