<?xml version="1.0" encoding="UTF-8" standalone="no"?>
<!DOCTYPE svg PUBLIC "-//W3C//DTD SVG 1.1//EN"
 "http://www.w3.org/Graphics/SVG/1.1/DTD/svg11.dtd">
<!-- Generated by graphviz version 7.1.0 (20230121.1956)
 -->
<!-- Title: Graphical Class Hierarchy Pages: 1 -->
<svg width="369pt" height="76pt"
 viewBox="0.00 0.00 369.00 75.50" xmlns="http://www.w3.org/2000/svg" xmlns:xlink="http://www.w3.org/1999/xlink">
<g id="graph0" class="graph" transform="scale(1 1) rotate(0) translate(4 71.5)">
<title>Graphical Class Hierarchy</title>
<!-- Node0 -->
<g id="node1" class="node">
<title>Node0</title>
<g id="a_node1"><a xlink:href="classsensesp_1_1_sens_e_s_p_base_app_builder.html" target="_top" xlink:title="Abstract base class for other SensESP*AppBuilder classes.">
<polygon fill="white" stroke="#666666" points="172,-45.5 0,-45.5 0,-26.5 172,-26.5 172,-45.5"/>
<text text-anchor="middle" x="86" y="-33.5" font-family="Helvetica,sans-Serif" font-size="10.00">sensesp::SensESPBaseAppBuilder</text>
</a>
</g>
</g>
<!-- Node1 -->
<g id="node2" class="node">
<title>Node1</title>
<g id="a_node2"><a xlink:href="classsensesp_1_1_sens_e_s_p_app_builder.html" target="_top" xlink:title="A class for quickly configuring a SensESP application object before wiring up your sensors.">
<polygon fill="white" stroke="#666666" points="358.5,-67.5 210.5,-67.5 210.5,-48.5 358.5,-48.5 358.5,-67.5"/>
<text text-anchor="middle" x="284.5" y="-55.5" font-family="Helvetica,sans-Serif" font-size="10.00">sensesp::SensESPAppBuilder</text>
</a>
</g>
</g>
<!-- Node0&#45;&gt;Node1 -->
<g id="edge1" class="edge">
<title>Node0&#45;&gt;Node1</title>
<path fill="none" stroke="#63b8ff" d="M183.64,-46.82C192.59,-47.82 201.56,-48.83 210.25,-49.8"/>
<polygon fill="#63b8ff" stroke="#63b8ff" points="184.16,-43.36 173.83,-45.72 183.38,-50.31 184.16,-43.36"/>
</g>
<!-- Node2 -->
<g id="node3" class="node">
<title>Node2</title>
<g id="a_node3"><a xlink:href="classsensesp_1_1_sens_e_s_p_minimal_app_builder.html" target="_top" xlink:title=" ">
<polygon fill="white" stroke="#666666" points="361,-30 208,-30 208,0 361,0 361,-30"/>
<text text-anchor="start" x="216" y="-18" font-family="Helvetica,sans-Serif" font-size="10.00">sensesp::SensESPMinimalApp</text>
<text text-anchor="middle" x="284.5" y="-7" font-family="Helvetica,sans-Serif" font-size="10.00">Builder</text>
</a>
</g>
</g>
<!-- Node0&#45;&gt;Node2 -->
<g id="edge2" class="edge">
<title>Node0&#45;&gt;Node2</title>
<path fill="none" stroke="#63b8ff" d="M183.63,-25.67C191.65,-24.82 199.68,-23.96 207.51,-23.12"/>
<polygon fill="#63b8ff" stroke="#63b8ff" points="183.41,-22.18 173.84,-26.72 184.15,-29.14 183.41,-22.18"/>
</g>
</g>
</svg>
