<?xml version="1.0" encoding="UTF-8" standalone="no"?>
<!DOCTYPE svg PUBLIC "-//W3C//DTD SVG 1.1//EN"
 "http://www.w3.org/Graphics/SVG/1.1/DTD/svg11.dtd">
<!-- Generated by graphviz version 2.47.0 (20210316.0004)
 -->
<!-- Title: Graphical Class Hierarchy Pages: 1 -->
<svg width="326pt" height="116pt"
 viewBox="0.00 0.00 326.00 116.00" xmlns="http://www.w3.org/2000/svg" xmlns:xlink="http://www.w3.org/1999/xlink">
<g id="graph0" class="graph" transform="scale(1 1) rotate(0) translate(4 112)">
<title>Graphical Class Hierarchy</title>
<polygon fill="white" stroke="transparent" points="-4,4 -4,-112 322,-112 322,4 -4,4"/>
<!-- Node33 -->
<g id="node1" class="node">
<title>Node33</title>
<g id="a_node1"><a xlink:href="class_value_consumer.html" target="_top" xlink:title=" ">
<polygon fill="white" stroke="black" points="8.5,-88.5 8.5,-107.5 152.5,-107.5 152.5,-88.5 8.5,-88.5"/>
<text text-anchor="middle" x="80.5" y="-95.5" font-family="Helvetica,sans-Serif" font-size="10.00">ValueConsumer&lt; WifiState &gt;</text>
</a>
</g>
</g>
<!-- Node1 -->
<g id="node2" class="node">
<title>Node1</title>
<g id="a_node2"><a xlink:href="class_system_status_controller.html" target="_top" xlink:title="Base class for a controller that can react to system status events.">
<polygon fill="white" stroke="black" points="197,-44.5 197,-63.5 318,-63.5 318,-44.5 197,-44.5"/>
<text text-anchor="middle" x="257.5" y="-51.5" font-family="Helvetica,sans-Serif" font-size="10.00">SystemStatusController</text>
</a>
</g>
</g>
<!-- Node33&#45;&gt;Node1 -->
<g id="edge1" class="edge">
<title>Node33&#45;&gt;Node1</title>
<path fill="none" stroke="midnightblue" d="M132.2,-86.05C141.78,-83.75 151.7,-81.33 161,-79 180.78,-74.05 202.81,-68.3 220.72,-63.56"/>
<polygon fill="midnightblue" stroke="midnightblue" points="131.3,-82.67 122.39,-88.4 132.93,-89.48 131.3,-82.67"/>
</g>
<!-- Node32 -->
<g id="node3" class="node">
<title>Node32</title>
<g id="a_node3"><a xlink:href="class_value_consumer.html" target="_top" xlink:title=" ">
<polygon fill="white" stroke="black" points="0,-39 0,-69 161,-69 161,-39 0,-39"/>
<text text-anchor="start" x="8" y="-57" font-family="Helvetica,sans-Serif" font-size="10.00">ValueConsumer&lt; WSConnection</text>
<text text-anchor="middle" x="80.5" y="-46" font-family="Helvetica,sans-Serif" font-size="10.00">State &gt;</text>
</a>
</g>
</g>
<!-- Node32&#45;&gt;Node1 -->
<g id="edge2" class="edge">
<title>Node32&#45;&gt;Node1</title>
<path fill="none" stroke="midnightblue" d="M171.22,-54C179.88,-54 188.51,-54 196.78,-54"/>
<polygon fill="midnightblue" stroke="midnightblue" points="171.06,-50.5 161.06,-54 171.06,-57.5 171.06,-50.5"/>
</g>
<!-- Node0 -->
<g id="node4" class="node">
<title>Node0</title>
<g id="a_node4"><a xlink:href="class_value_producer.html" target="_top" xlink:title=" ">
<polygon fill="white" stroke="black" points="0.5,-0.5 0.5,-19.5 160.5,-19.5 160.5,-0.5 0.5,-0.5"/>
<text text-anchor="middle" x="80.5" y="-7.5" font-family="Helvetica,sans-Serif" font-size="10.00">ValueProducer&lt; SystemStatus &gt;</text>
</a>
</g>
</g>
<!-- Node0&#45;&gt;Node1 -->
<g id="edge3" class="edge">
<title>Node0&#45;&gt;Node1</title>
<path fill="none" stroke="midnightblue" d="M129.47,-22.06C157.54,-29.12 192.48,-37.9 218.6,-44.47"/>
<polygon fill="midnightblue" stroke="midnightblue" points="130.02,-18.59 119.47,-19.55 128.32,-25.38 130.02,-18.59"/>
</g>
</g>
</svg>
