<?xml version="1.0" encoding="UTF-8" standalone="no"?>
<!DOCTYPE svg PUBLIC "-//W3C//DTD SVG 1.1//EN"
 "http://www.w3.org/Graphics/SVG/1.1/DTD/svg11.dtd">
<!-- Generated by graphviz version 12.1.0 (20240811.2233)
 -->
<!-- Title: src/sensesp/transforms/join.h Pages: 1 -->
<svg width="837pt" height="393pt"
 viewBox="0.00 0.00 836.75 392.50" xmlns="http://www.w3.org/2000/svg" xmlns:xlink="http://www.w3.org/1999/xlink">
<g id="graph0" class="graph" transform="scale(1 1) rotate(0) translate(4 388.5)">
<title>src/sensesp/transforms/join.h</title>
<!-- Node1 -->
<g id="Node000001" class="node">
<title>Node1</title>
<g id="a_Node000001"><a xlink:title=" ">
<polygon fill="#999999" stroke="#666666" points="340.88,-384.5 222.12,-384.5 222.12,-354 340.88,-354 340.88,-384.5"/>
<text text-anchor="start" x="230.12" y="-371" font-family="Helvetica,sans-Serif" font-size="10.00">src/sensesp/transforms</text>
<text text-anchor="middle" x="281.5" y="-359.75" font-family="Helvetica,sans-Serif" font-size="10.00">/join.h</text>
</a>
</g>
</g>
<!-- Node2 -->
<g id="Node000002" class="node">
<title>Node2</title>
<g id="a_Node000002"><a xlink:title=" ">
<polygon fill="#e0e0e0" stroke="#999999" points="197.75,-318 117.25,-318 117.25,-298.75 197.75,-298.75 197.75,-318"/>
<text text-anchor="middle" x="157.5" y="-304.5" font-family="Helvetica,sans-Serif" font-size="10.00">elapsedMillis.h</text>
</a>
</g>
</g>
<!-- Node1&#45;&gt;Node2 -->
<g id="edge1_Node000001_Node000002" class="edge">
<title>Node1&#45;&gt;Node2</title>
<g id="a_edge1_Node000001_Node000002"><a xlink:title=" ">
<path fill="none" stroke="#63b8ff" d="M250.53,-353.55C231.01,-344.28 205.96,-332.38 186.77,-323.27"/>
<polygon fill="#63b8ff" stroke="#63b8ff" points="188.42,-320.18 177.88,-319.05 185.42,-326.5 188.42,-320.18"/>
</a>
</g>
</g>
<!-- Node3 -->
<g id="Node000003" class="node">
<title>Node3</title>
<g id="a_Node000003"><a xlink:title=" ">
<polygon fill="#e0e0e0" stroke="#999999" points="253,-318 216,-318 216,-298.75 253,-298.75 253,-318"/>
<text text-anchor="middle" x="234.5" y="-304.5" font-family="Helvetica,sans-Serif" font-size="10.00">tuple</text>
</a>
</g>
</g>
<!-- Node1&#45;&gt;Node3 -->
<g id="edge2_Node000001_Node000003" class="edge">
<title>Node1&#45;&gt;Node3</title>
<g id="a_edge2_Node000001_Node000003"><a xlink:title=" ">
<path fill="none" stroke="#63b8ff" d="M269.88,-353.7C263.48,-345.68 255.49,-335.67 248.72,-327.19"/>
<polygon fill="#63b8ff" stroke="#63b8ff" points="251.66,-325.27 242.69,-319.63 246.19,-329.63 251.66,-325.27"/>
</a>
</g>
</g>
<!-- Node4 -->
<g id="Node000004" class="node">
<title>Node4</title>
<g id="a_Node000004"><a xlink:href="lambda__consumer_8h.html" target="_top" xlink:title=" ">
<polygon fill="white" stroke="#666666" points="530.75,-262.75 408.25,-262.75 408.25,-232.25 530.75,-232.25 530.75,-262.75"/>
<text text-anchor="start" x="416.25" y="-249.25" font-family="Helvetica,sans-Serif" font-size="10.00">sensesp/system/lambda</text>
<text text-anchor="middle" x="469.5" y="-238" font-family="Helvetica,sans-Serif" font-size="10.00">_consumer.h</text>
</a>
</g>
</g>
<!-- Node1&#45;&gt;Node4 -->
<g id="edge3_Node000001_Node000004" class="edge">
<title>Node1&#45;&gt;Node4</title>
<g id="a_edge3_Node000001_Node000004"><a xlink:title=" ">
<path fill="none" stroke="#63b8ff" d="M316.44,-353.64C336.9,-344.49 362.89,-331.84 384.5,-318 406.44,-303.95 429.18,-285.09 445.62,-270.56"/>
<polygon fill="#63b8ff" stroke="#63b8ff" points="447.82,-273.29 452.93,-264 443.15,-268.08 447.82,-273.29"/>
</a>
</g>
</g>
<!-- Node14 -->
<g id="Node000014" class="node">
<title>Node14</title>
<g id="a_Node000014"><a xlink:href="valueproducer_8h.html" target="_top" xlink:title=" ">
<polygon fill="white" stroke="#666666" points="267.12,-257.12 107.88,-257.12 107.88,-237.88 267.12,-237.88 267.12,-257.12"/>
<text text-anchor="middle" x="187.5" y="-243.62" font-family="Helvetica,sans-Serif" font-size="10.00">sensesp/system/valueproducer.h</text>
</a>
</g>
</g>
<!-- Node1&#45;&gt;Node14 -->
<g id="edge13_Node000001_Node000014" class="edge">
<title>Node1&#45;&gt;Node14</title>
<g id="a_edge13_Node000001_Node000014"><a xlink:title=" ">
<path fill="none" stroke="#63b8ff" d="M280.22,-353.68C278.28,-338.68 273.44,-315.22 261.5,-298.75 250.39,-283.43 233.09,-271.3 218.01,-262.81"/>
<polygon fill="#63b8ff" stroke="#63b8ff" points="219.83,-259.82 209.36,-258.22 216.55,-266 219.83,-259.82"/>
</a>
</g>
</g>
<!-- Node20 -->
<g id="Node000020" class="node">
<title>Node20</title>
<g id="a_Node000020"><a xlink:href="transform_8h.html" target="_top" xlink:title=" ">
<polygon fill="white" stroke="#666666" points="375.25,-318 309.75,-318 309.75,-298.75 375.25,-298.75 375.25,-318"/>
<text text-anchor="middle" x="342.5" y="-304.5" font-family="Helvetica,sans-Serif" font-size="10.00">transform.h</text>
</a>
</g>
</g>
<!-- Node1&#45;&gt;Node20 -->
<g id="edge21_Node000001_Node000020" class="edge">
<title>Node1&#45;&gt;Node20</title>
<g id="a_edge21_Node000001_Node000020"><a xlink:title=" ">
<path fill="none" stroke="#63b8ff" d="M296.58,-353.7C305.15,-345.42 315.93,-335.02 324.89,-326.37"/>
<polygon fill="#63b8ff" stroke="#63b8ff" points="327.24,-328.97 332.01,-319.5 322.38,-323.93 327.24,-328.97"/>
</a>
</g>
</g>
<!-- Node5 -->
<g id="Node000005" class="node">
<title>Node5</title>
<g id="a_Node000005"><a xlink:href="valueconsumer_8h.html" target="_top" xlink:title=" ">
<polygon fill="white" stroke="#666666" points="463.25,-196.25 373.75,-196.25 373.75,-177 463.25,-177 463.25,-196.25"/>
<text text-anchor="middle" x="418.5" y="-182.75" font-family="Helvetica,sans-Serif" font-size="10.00">valueconsumer.h</text>
</a>
</g>
</g>
<!-- Node4&#45;&gt;Node5 -->
<g id="edge4_Node000004_Node000005" class="edge">
<title>Node4&#45;&gt;Node5</title>
<g id="a_edge4_Node000004_Node000005"><a xlink:title=" ">
<path fill="none" stroke="#63b8ff" d="M456.89,-231.95C449.87,-223.84 441.09,-213.7 433.69,-205.16"/>
<polygon fill="#63b8ff" stroke="#63b8ff" points="436.55,-203.11 427.35,-197.85 431.26,-207.7 436.55,-203.11"/>
</a>
</g>
</g>
<!-- Node6 -->
<g id="Node000006" class="node">
<title>Node6</title>
<g id="a_Node000006"><a xlink:href="sensesp_8h.html" target="_top" xlink:title=" ">
<polygon fill="white" stroke="#666666" points="697,-141 636,-141 636,-121.75 697,-121.75 697,-141"/>
<text text-anchor="middle" x="666.5" y="-127.5" font-family="Helvetica,sans-Serif" font-size="10.00">sensesp.h</text>
</a>
</g>
</g>
<!-- Node5&#45;&gt;Node6 -->
<g id="edge5_Node000005_Node000006" class="edge">
<title>Node5&#45;&gt;Node6</title>
<g id="a_edge5_Node000005_Node000006"><a xlink:title=" ">
<path fill="none" stroke="#63b8ff" d="M460.85,-176.53C506.64,-166.7 579.16,-151.13 624.72,-141.35"/>
<polygon fill="#63b8ff" stroke="#63b8ff" points="625.17,-144.83 634.21,-139.31 623.7,-137.99 625.17,-144.83"/>
</a>
</g>
</g>
<!-- Node12 -->
<g id="Node000012" class="node">
<title>Node12</title>
<g id="a_Node000012"><a xlink:title=" ">
<polygon fill="#e0e0e0" stroke="#999999" points="421.62,-141 343.38,-141 343.38,-121.75 421.62,-121.75 421.62,-141"/>
<text text-anchor="middle" x="382.5" y="-127.5" font-family="Helvetica,sans-Serif" font-size="10.00">ArduinoJson.h</text>
</a>
</g>
</g>
<!-- Node5&#45;&gt;Node12 -->
<g id="edge11_Node000005_Node000012" class="edge">
<title>Node5&#45;&gt;Node12</title>
<g id="a_edge11_Node000005_Node000012"><a xlink:title=" ">
<path fill="none" stroke="#63b8ff" d="M412.56,-176.83C407.79,-169.78 400.94,-159.65 394.98,-150.83"/>
<polygon fill="#63b8ff" stroke="#63b8ff" points="397.92,-148.94 389.42,-142.61 392.12,-152.86 397.92,-148.94"/>
</a>
</g>
</g>
<!-- Node13 -->
<g id="Node000013" class="node">
<title>Node13</title>
<g id="a_Node000013"><a xlink:title=" ">
<polygon fill="#e0e0e0" stroke="#999999" points="487.62,-141 439.38,-141 439.38,-121.75 487.62,-121.75 487.62,-141"/>
<text text-anchor="middle" x="463.5" y="-127.5" font-family="Helvetica,sans-Serif" font-size="10.00">stdint.h</text>
</a>
</g>
</g>
<!-- Node5&#45;&gt;Node13 -->
<g id="edge12_Node000005_Node000013" class="edge">
<title>Node5&#45;&gt;Node13</title>
<g id="a_edge12_Node000005_Node000013"><a xlink:title=" ">
<path fill="none" stroke="#63b8ff" d="M425.93,-176.83C432.08,-169.55 441.01,-158.98 448.63,-149.98"/>
<polygon fill="#63b8ff" stroke="#63b8ff" points="451.15,-152.41 454.93,-142.52 445.8,-147.89 451.15,-152.41"/>
</a>
</g>
</g>
<!-- Node7 -->
<g id="Node000007" class="node">
<title>Node7</title>
<g id="a_Node000007"><a xlink:title=" ">
<polygon fill="#e0e0e0" stroke="#999999" points="693.12,-80.12 623.88,-80.12 623.88,-60.88 693.12,-60.88 693.12,-80.12"/>
<text text-anchor="middle" x="658.5" y="-66.62" font-family="Helvetica,sans-Serif" font-size="10.00">ReactESP.h</text>
</a>
</g>
</g>
<!-- Node6&#45;&gt;Node7 -->
<g id="edge6_Node000006_Node000007" class="edge">
<title>Node6&#45;&gt;Node7</title>
<g id="a_edge6_Node000006_Node000007"><a xlink:title=" ">
<path fill="none" stroke="#63b8ff" d="M665.28,-121.43C664.22,-113.57 662.62,-101.82 661.24,-91.7"/>
<polygon fill="#63b8ff" stroke="#63b8ff" points="664.74,-91.46 659.93,-82.03 657.81,-92.41 664.74,-91.46"/>
</a>
</g>
</g>
<!-- Node8 -->
<g id="Node000008" class="node">
<title>Node8</title>
<g id="a_Node000008"><a xlink:href="local__debug_8h.html" target="_top" xlink:title=" ">
<polygon fill="white" stroke="#666666" points="822.12,-85.75 710.88,-85.75 710.88,-55.25 822.12,-55.25 822.12,-85.75"/>
<text text-anchor="start" x="718.88" y="-72.25" font-family="Helvetica,sans-Serif" font-size="10.00">sensesp/system/local</text>
<text text-anchor="middle" x="766.5" y="-61" font-family="Helvetica,sans-Serif" font-size="10.00">_debug.h</text>
</a>
</g>
</g>
<!-- Node6&#45;&gt;Node8 -->
<g id="edge7_Node000006_Node000008" class="edge">
<title>Node6&#45;&gt;Node8</title>
<g id="a_edge7_Node000006_Node000008"><a xlink:title=" ">
<path fill="none" stroke="#63b8ff" d="M681.69,-121.43C695.02,-113.58 714.92,-101.87 732.09,-91.76"/>
<polygon fill="#63b8ff" stroke="#63b8ff" points="733.67,-94.89 740.51,-86.8 730.12,-88.86 733.67,-94.89"/>
</a>
</g>
</g>
<!-- Node9 -->
<g id="Node000009" class="node">
<title>Node9</title>
<g id="a_Node000009"><a xlink:title=" ">
<polygon fill="#e0e0e0" stroke="#999999" points="766.5,-19.25 684.5,-19.25 684.5,0 766.5,0 766.5,-19.25"/>
<text text-anchor="middle" x="725.5" y="-5.75" font-family="Helvetica,sans-Serif" font-size="10.00">esp32&#45;hal&#45;log.h</text>
</a>
</g>
</g>
<!-- Node8&#45;&gt;Node9 -->
<g id="edge8_Node000008_Node000009" class="edge">
<title>Node8&#45;&gt;Node9</title>
<g id="a_edge8_Node000008_Node000009"><a xlink:title=" ">
<path fill="none" stroke="#63b8ff" d="M756.37,-54.95C750.9,-47.1 744.11,-37.35 738.29,-28.99"/>
<polygon fill="#63b8ff" stroke="#63b8ff" points="741.27,-27.15 732.69,-20.94 735.53,-31.15 741.27,-27.15"/>
</a>
</g>
</g>
<!-- Node10 -->
<g id="Node000010" class="node">
<title>Node10</title>
<g id="a_Node000010"><a xlink:title=" ">
<polygon fill="#e0e0e0" stroke="#999999" points="624.12,-19.25 566.88,-19.25 566.88,0 624.12,0 624.12,-19.25"/>
<text text-anchor="middle" x="595.5" y="-5.75" font-family="Helvetica,sans-Serif" font-size="10.00">Arduino.h</text>
</a>
</g>
</g>
<!-- Node8&#45;&gt;Node10 -->
<g id="edge9_Node000008_Node000010" class="edge">
<title>Node8&#45;&gt;Node10</title>
<g id="a_edge9_Node000008_Node000010"><a xlink:title=" ">
<path fill="none" stroke="#63b8ff" d="M723.79,-54.8C695.83,-45.17 659.65,-32.71 632.84,-23.48"/>
<polygon fill="#63b8ff" stroke="#63b8ff" points="634,-20.18 623.41,-20.23 631.72,-26.8 634,-20.18"/>
</a>
</g>
</g>
<!-- Node11 -->
<g id="Node000011" class="node">
<title>Node11</title>
<g id="a_Node000011"><a xlink:title=" ">
<polygon fill="#e0e0e0" stroke="#999999" points="828.75,-19.25 784.25,-19.25 784.25,0 828.75,0 828.75,-19.25"/>
<text text-anchor="middle" x="806.5" y="-5.75" font-family="Helvetica,sans-Serif" font-size="10.00">Print.h</text>
</a>
</g>
</g>
<!-- Node8&#45;&gt;Node11 -->
<g id="edge10_Node000008_Node000011" class="edge">
<title>Node8&#45;&gt;Node11</title>
<g id="a_edge10_Node000008_Node000011"><a xlink:title=" ">
<path fill="none" stroke="#63b8ff" d="M776.39,-54.95C781.72,-47.1 788.35,-37.35 794.03,-28.99"/>
<polygon fill="#63b8ff" stroke="#63b8ff" points="796.76,-31.19 799.48,-20.95 790.97,-27.26 796.76,-31.19"/>
</a>
</g>
</g>
<!-- Node14&#45;&gt;Node5 -->
<g id="edge20_Node000014_Node000005" class="edge">
<title>Node14&#45;&gt;Node5</title>
<g id="a_edge20_Node000014_Node000005"><a xlink:title=" ">
<path fill="none" stroke="#63b8ff" d="M223.09,-237.43C263.02,-227.25 327.95,-210.7 371.9,-199.5"/>
<polygon fill="#63b8ff" stroke="#63b8ff" points="372.58,-202.94 381.41,-197.08 370.85,-196.16 372.58,-202.94"/>
</a>
</g>
</g>
<!-- Node14&#45;&gt;Node12 -->
<g id="edge14_Node000014_Node000012" class="edge">
<title>Node14&#45;&gt;Node12</title>
<g id="a_edge14_Node000014_Node000012"><a xlink:title=" ">
<path fill="none" stroke="#63b8ff" d="M202.8,-237.54C236.25,-217.97 316.17,-171.19 357.22,-147.17"/>
<polygon fill="#63b8ff" stroke="#63b8ff" points="358.83,-150.28 365.69,-142.21 355.3,-144.24 358.83,-150.28"/>
</a>
</g>
</g>
<!-- Node15 -->
<g id="Node000015" class="node">
<title>Node15</title>
<g id="a_Node000015"><a xlink:title=" ">
<polygon fill="#e0e0e0" stroke="#999999" points="213.12,-196.25 161.88,-196.25 161.88,-177 213.12,-177 213.12,-196.25"/>
<text text-anchor="middle" x="187.5" y="-182.75" font-family="Helvetica,sans-Serif" font-size="10.00">memory</text>
</a>
</g>
</g>
<!-- Node14&#45;&gt;Node15 -->
<g id="edge15_Node000014_Node000015" class="edge">
<title>Node14&#45;&gt;Node15</title>
<g id="a_edge15_Node000014_Node000015"><a xlink:title=" ">
<path fill="none" stroke="#63b8ff" d="M187.5,-237.56C187.5,-229.78 187.5,-218.2 187.5,-208.16"/>
<polygon fill="#63b8ff" stroke="#63b8ff" points="191,-208.16 187.5,-198.16 184,-208.16 191,-208.16"/>
</a>
</g>
</g>
<!-- Node16 -->
<g id="Node000016" class="node">
<title>Node16</title>
<g id="a_Node000016"><a xlink:href="observable_8h.html" target="_top" xlink:title=" ">
<polygon fill="white" stroke="#666666" points="130.25,-196.25 58.75,-196.25 58.75,-177 130.25,-177 130.25,-196.25"/>
<text text-anchor="middle" x="94.5" y="-182.75" font-family="Helvetica,sans-Serif" font-size="10.00">observable.h</text>
</a>
</g>
</g>
<!-- Node14&#45;&gt;Node16 -->
<g id="edge16_Node000014_Node000016" class="edge">
<title>Node14&#45;&gt;Node16</title>
<g id="a_edge16_Node000014_Node000016"><a xlink:title=" ">
<path fill="none" stroke="#63b8ff" d="M173.38,-237.56C158.76,-228.31 135.68,-213.7 118.26,-202.67"/>
<polygon fill="#63b8ff" stroke="#63b8ff" points="120.36,-199.85 110.04,-197.46 116.61,-205.77 120.36,-199.85"/>
</a>
</g>
</g>
<!-- Node17 -->
<g id="Node000017" class="node">
<title>Node17</title>
<g id="a_Node000017"><a xlink:title=" ">
<polygon fill="#e0e0e0" stroke="#999999" points="127.62,-141 61.38,-141 61.38,-121.75 127.62,-121.75 127.62,-141"/>
<text text-anchor="middle" x="94.5" y="-127.5" font-family="Helvetica,sans-Serif" font-size="10.00">forward_list</text>
</a>
</g>
</g>
<!-- Node16&#45;&gt;Node17 -->
<g id="edge17_Node000016_Node000017" class="edge">
<title>Node16&#45;&gt;Node17</title>
<g id="a_edge17_Node000016_Node000017"><a xlink:title=" ">
<path fill="none" stroke="#63b8ff" d="M94.5,-176.83C94.5,-170.32 94.5,-161.17 94.5,-152.87"/>
<polygon fill="#63b8ff" stroke="#63b8ff" points="98,-152.87 94.5,-142.87 91,-152.87 98,-152.87"/>
</a>
</g>
</g>
<!-- Node18 -->
<g id="Node000018" class="node">
<title>Node18</title>
<g id="a_Node000018"><a xlink:title=" ">
<polygon fill="#e0e0e0" stroke="#999999" points="203.5,-141 145.5,-141 145.5,-121.75 203.5,-121.75 203.5,-141"/>
<text text-anchor="middle" x="174.5" y="-127.5" font-family="Helvetica,sans-Serif" font-size="10.00">functional</text>
</a>
</g>
</g>
<!-- Node16&#45;&gt;Node18 -->
<g id="edge18_Node000016_Node000018" class="edge">
<title>Node16&#45;&gt;Node18</title>
<g id="a_edge18_Node000016_Node000018"><a xlink:title=" ">
<path fill="none" stroke="#63b8ff" d="M108.07,-176.59C119.91,-168.71 137.34,-157.11 151.37,-147.77"/>
<polygon fill="#63b8ff" stroke="#63b8ff" points="153.22,-150.75 159.6,-142.29 149.34,-144.92 153.22,-150.75"/>
</a>
</g>
</g>
<!-- Node19 -->
<g id="Node000019" class="node">
<title>Node19</title>
<g id="a_Node000019"><a xlink:title=" ">
<polygon fill="#e0e0e0" stroke="#999999" points="43,-141 0,-141 0,-121.75 43,-121.75 43,-141"/>
<text text-anchor="middle" x="21.5" y="-127.5" font-family="Helvetica,sans-Serif" font-size="10.00">vector</text>
</a>
</g>
</g>
<!-- Node16&#45;&gt;Node19 -->
<g id="edge19_Node000016_Node000019" class="edge">
<title>Node16&#45;&gt;Node19</title>
<g id="a_edge19_Node000016_Node000019"><a xlink:title=" ">
<path fill="none" stroke="#63b8ff" d="M82.12,-176.59C71.35,-168.74 55.53,-157.2 42.75,-147.87"/>
<polygon fill="#63b8ff" stroke="#63b8ff" points="45.06,-145.23 34.92,-142.17 40.94,-150.89 45.06,-145.23"/>
</a>
</g>
</g>
<!-- Node20&#45;&gt;Node5 -->
<g id="edge34_Node000020_Node000005" class="edge">
<title>Node20&#45;&gt;Node5</title>
<g id="a_edge34_Node000020_Node000005"><a xlink:title=" ">
<path fill="none" stroke="#63b8ff" d="M348.21,-298.37C360.59,-278.87 390.11,-232.36 406.69,-206.24"/>
<polygon fill="#63b8ff" stroke="#63b8ff" points="409.51,-208.33 411.91,-198.01 403.6,-204.58 409.51,-208.33"/>
</a>
</g>
</g>
<!-- Node20&#45;&gt;Node6 -->
<g id="edge22_Node000020_Node000006" class="edge">
<title>Node20&#45;&gt;Node6</title>
<g id="a_edge22_Node000020_Node000006"><a xlink:title=" ">
<path fill="none" stroke="#63b8ff" d="M375.53,-305.65C459.23,-300.93 674.49,-286.59 695.5,-262.75 723.51,-230.98 696.78,-178.17 679.17,-150.52"/>
<polygon fill="#63b8ff" stroke="#63b8ff" points="682.3,-148.9 673.84,-142.51 676.47,-152.78 682.3,-148.9"/>
</a>
</g>
</g>
<!-- Node20&#45;&gt;Node12 -->
<g id="edge23_Node000020_Node000012" class="edge">
<title>Node20&#45;&gt;Node12</title>
<g id="a_edge23_Node000020_Node000012"><a xlink:title=" ">
<path fill="none" stroke="#63b8ff" d="M343.34,-298.38C345.49,-277 351.9,-221.62 364.5,-177 366.88,-168.56 370.34,-159.55 373.58,-151.84"/>
<polygon fill="#63b8ff" stroke="#63b8ff" points="376.74,-153.35 377.57,-142.79 370.34,-150.53 376.74,-153.35"/>
</a>
</g>
</g>
<!-- Node20&#45;&gt;Node14 -->
<g id="edge35_Node000020_Node000014" class="edge">
<title>Node20&#45;&gt;Node14</title>
<g id="a_edge35_Node000020_Node000014"><a xlink:title=" ">
<path fill="none" stroke="#63b8ff" d="M318.62,-298.3C292.79,-288.49 251.38,-272.76 222.01,-261.61"/>
<polygon fill="#63b8ff" stroke="#63b8ff" points="223.41,-258.4 212.82,-258.12 220.93,-264.94 223.41,-258.4"/>
</a>
</g>
</g>
<!-- Node20&#45;&gt;Node16 -->
<g id="edge25_Node000020_Node000016" class="edge">
<title>Node20&#45;&gt;Node16</title>
<g id="a_edge25_Node000020_Node000016"><a xlink:title=" ">
<path fill="none" stroke="#63b8ff" d="M309.42,-303.61C245.99,-296.06 112.33,-278.47 98.5,-262.75 85.31,-247.76 86.45,-223.88 89.5,-207.07"/>
<polygon fill="#63b8ff" stroke="#63b8ff" points="92.81,-208.31 91.56,-197.79 85.98,-206.8 92.81,-208.31"/>
</a>
</g>
</g>
<!-- Node21 -->
<g id="Node000021" class="node">
<title>Node21</title>
<g id="a_Node000021"><a xlink:title=" ">
<polygon fill="#e0e0e0" stroke="#999999" points="314.25,-257.12 284.75,-257.12 284.75,-237.88 314.25,-237.88 314.25,-257.12"/>
<text text-anchor="middle" x="299.5" y="-243.62" font-family="Helvetica,sans-Serif" font-size="10.00">set</text>
</a>
</g>
</g>
<!-- Node20&#45;&gt;Node21 -->
<g id="edge24_Node000020_Node000021" class="edge">
<title>Node20&#45;&gt;Node21</title>
<g id="a_edge24_Node000020_Node000021"><a xlink:title=" ">
<path fill="none" stroke="#63b8ff" d="M335.97,-298.43C329.84,-290.05 320.5,-277.26 312.81,-266.72"/>
<polygon fill="#63b8ff" stroke="#63b8ff" points="315.71,-264.76 306.98,-258.75 310.06,-268.89 315.71,-264.76"/>
</a>
</g>
</g>
<!-- Node22 -->
<g id="Node000022" class="node">
<title>Node22</title>
<g id="a_Node000022"><a xlink:href="saveable_8h.html" target="_top" xlink:title=" ">
<polygon fill="white" stroke="#666666" points="686.62,-257.12 548.38,-257.12 548.38,-237.88 686.62,-237.88 686.62,-257.12"/>
<text text-anchor="middle" x="617.5" y="-243.62" font-family="Helvetica,sans-Serif" font-size="10.00">sensesp/system/saveable.h</text>
</a>
</g>
</g>
<!-- Node20&#45;&gt;Node22 -->
<g id="edge26_Node000020_Node000022" class="edge">
<title>Node20&#45;&gt;Node22</title>
<g id="a_edge26_Node000020_Node000022"><a xlink:title=" ">
<path fill="none" stroke="#63b8ff" d="M375.67,-300.27C422.45,-290.26 508.3,-271.88 564.12,-259.93"/>
<polygon fill="#63b8ff" stroke="#63b8ff" points="564.68,-263.39 573.73,-257.87 563.22,-256.54 564.68,-263.39"/>
</a>
</g>
</g>
<!-- Node22&#45;&gt;Node6 -->
<g id="edge27_Node000022_Node000006" class="edge">
<title>Node22&#45;&gt;Node6</title>
<g id="a_edge27_Node000022_Node000006"><a xlink:title=" ">
<path fill="none" stroke="#63b8ff" d="M626.26,-237.73C635.11,-228.31 648.45,-212.51 655.5,-196.25 661.47,-182.47 664.21,-165.69 665.46,-152.79"/>
<polygon fill="#63b8ff" stroke="#63b8ff" points="668.94,-153.17 666.17,-142.94 661.96,-152.66 668.94,-153.17"/>
</a>
</g>
</g>
<!-- Node22&#45;&gt;Node10 -->
<g id="edge29_Node000022_Node000010" class="edge">
<title>Node22&#45;&gt;Node10</title>
<g id="a_edge29_Node000022_Node000010"><a xlink:title=" ">
<path fill="none" stroke="#63b8ff" d="M602.64,-237.47C589.83,-228.73 572.21,-214.19 564.5,-196.25 539.92,-139.08 569.08,-64.22 585.61,-29.65"/>
<polygon fill="#63b8ff" stroke="#63b8ff" points="588.64,-31.42 589.97,-20.91 582.38,-28.3 588.64,-31.42"/>
</a>
</g>
</g>
<!-- Node22&#45;&gt;Node12 -->
<g id="edge28_Node000022_Node000012" class="edge">
<title>Node22&#45;&gt;Node12</title>
<g id="a_edge28_Node000022_Node000012"><a xlink:title=" ">
<path fill="none" stroke="#63b8ff" d="M599.06,-237.54C558.32,-217.76 460.38,-170.2 411.41,-146.41"/>
<polygon fill="#63b8ff" stroke="#63b8ff" points="413.07,-143.33 402.54,-142.11 410.01,-149.62 413.07,-143.33"/>
</a>
</g>
</g>
<!-- Node23 -->
<g id="Node000023" class="node">
<title>Node23</title>
<g id="a_Node000023"><a xlink:href="serializable_8h.html" target="_top" xlink:title=" ">
<polygon fill="white" stroke="#666666" points="646,-196.25 573,-196.25 573,-177 646,-177 646,-196.25"/>
<text text-anchor="middle" x="609.5" y="-182.75" font-family="Helvetica,sans-Serif" font-size="10.00">serializable.h</text>
</a>
</g>
</g>
<!-- Node22&#45;&gt;Node23 -->
<g id="edge30_Node000022_Node000023" class="edge">
<title>Node22&#45;&gt;Node23</title>
<g id="a_edge30_Node000022_Node000023"><a xlink:title=" ">
<path fill="none" stroke="#63b8ff" d="M616.28,-237.56C615.22,-229.69 613.62,-217.95 612.24,-207.82"/>
<polygon fill="#63b8ff" stroke="#63b8ff" points="615.74,-207.59 610.93,-198.15 608.81,-208.53 615.74,-207.59"/>
</a>
</g>
</g>
<!-- Node23&#45;&gt;Node6 -->
<g id="edge31_Node000023_Node000006" class="edge">
<title>Node23&#45;&gt;Node6</title>
<g id="a_edge31_Node000023_Node000006"><a xlink:title=" ">
<path fill="none" stroke="#63b8ff" d="M619.17,-176.59C627.24,-169.05 638.97,-158.1 648.72,-148.98"/>
<polygon fill="#63b8ff" stroke="#63b8ff" points="650.95,-151.69 655.87,-142.31 646.17,-146.58 650.95,-151.69"/>
</a>
</g>
</g>
<!-- Node23&#45;&gt;Node10 -->
<g id="edge33_Node000023_Node000010" class="edge">
<title>Node23&#45;&gt;Node10</title>
<g id="a_edge33_Node000023_Node000010"><a xlink:title=" ">
<path fill="none" stroke="#63b8ff" d="M608.79,-176.71C606.63,-149.8 600.17,-68.94 597.12,-30.87"/>
<polygon fill="#63b8ff" stroke="#63b8ff" points="600.64,-30.93 596.35,-21.24 593.66,-31.49 600.64,-30.93"/>
</a>
</g>
</g>
<!-- Node23&#45;&gt;Node12 -->
<g id="edge32_Node000023_Node000012" class="edge">
<title>Node23&#45;&gt;Node12</title>
<g id="a_edge32_Node000023_Node000012"><a xlink:title=" ">
<path fill="none" stroke="#63b8ff" d="M572.52,-176.95C534.43,-168.02 474.82,-154.03 432.53,-144.11"/>
<polygon fill="#63b8ff" stroke="#63b8ff" points="433.37,-140.71 422.84,-141.84 431.77,-147.53 433.37,-140.71"/>
</a>
</g>
</g>
</g>
</svg>
