<?xml version="1.0" encoding="UTF-8" standalone="no"?>
<!DOCTYPE svg PUBLIC "-//W3C//DTD SVG 1.1//EN"
 "http://www.w3.org/Graphics/SVG/1.1/DTD/svg11.dtd">
<!-- Generated by graphviz version 12.2.1 (20241206.2353)
 -->
<!-- Title: src/sensesp/transforms/join.h Pages: 1 -->
<!--zoomable 393 -->

<svg id="main" version="1.1" xmlns="http://www.w3.org/2000/svg" xmlns:xlink="http://www.w3.org/1999/xlink" xml:space="preserve" onload="init(evt)">

<style type="text/css"><![CDATA[
.node, .edge {opacity: 0.7;}
.node.selected, .edge.selected {opacity: 1;}
.edge:hover path { stroke: red; }
.edge:hover polygon { stroke: red; fill: red; }
]]></style>

<defs>
  <circle id="rim" cx="0" cy="0" r="7"/>
  <circle id="rim2" cx="0" cy="0" r="3.5"/>
  <g id="zoomPlus">
    <use xlink:href="#rim" fill="#404040"><set attributeName="fill" to="#808080" begin="zoomplus.mouseover" end="zoomplus.mouseout"/></use>
    <path d="M-4,0h8M0,-4v8" fill="none" stroke="white" stroke-width="1.5" pointer-events="none"/>
  </g>
  <g id="zoomMin">
    <use xlink:href="#rim" fill="#404040"><set attributeName="fill" to="#808080" begin="zoomminus.mouseover" end="zoomminus.mouseout"/></use>
    <path d="M-4,0h8" fill="none" stroke="white" stroke-width="1.5" pointer-events="none"/>
  </g>
  <g id="arrowUp" transform="translate(30 24)">
    <use xlink:href="#rim"/>
    <path pointer-events="none" fill="none" stroke="white" stroke-width="1.5" d="M0,-3.0v7 M-2.5,-0.5L0,-3.0L2.5,-0.5"/>
  </g>
  <g id="arrowRight" transform="rotate(90) translate(36 -43)">
    <use xlink:href="#rim"/>
    <path pointer-events="none" fill="none" stroke="white" stroke-width="1.5" d="M0,-3.0v7 M-2.5,-0.5L0,-3.0L2.5,-0.5"/>
  </g>
  <g id="arrowDown" transform="rotate(180) translate(-30 -48)">
    <use xlink:href="#rim"/>
    <path pointer-events="none" fill="none" stroke="white" stroke-width="1.5" d="M0,-3.0v7 M-2.5,-0.5L0,-3.0L2.5,-0.5"/>
  </g>
  <g id="arrowLeft" transform="rotate(270) translate(-36 17)">
    <use xlink:href="#rim"/>
    <path pointer-events="none" fill="none" stroke="white" stroke-width="1.5" d="M0,-3.0v7 M-2.5,-0.5L0,-3.0L2.5,-0.5"/>
  </g>
  <g id="resetDef">
    <use xlink:href="#rim2" fill="#404040"><set attributeName="fill" to="#808080" begin="reset.mouseover" end="reset.mouseout"/></use>
  </g>
</defs>
<script type="application/ecmascript">
var viewWidth = 645;
var viewHeight = 393;
var sectionId = 'dynsection-0';
</script>
<script type="application/ecmascript" xlink:href="svg.min.js"/>
<svg id="graph" class="graph">
<g id="viewport">
<title>src/sensesp/transforms/join.h</title>
<!-- Node1 -->
<g id="Node000001" class="node">
<title>Node1</title>
<g id="a_Node000001"><a xlink:title=" ">
<polygon fill="#999999" stroke="#666666" points="330.37,-384.5 211.62,-384.5 211.62,-354 330.37,-354 330.37,-384.5"/>
<text text-anchor="start" x="219.62" y="-371" font-family="Helvetica,sans-Serif" font-size="10.00">src/sensesp/transforms</text>
<text text-anchor="middle" x="270.99" y="-359.75" font-family="Helvetica,sans-Serif" font-size="10.00">/join.h</text>
</a>
</g>
</g>
<!-- Node2 -->
<g id="Node000002" class="node">
<title>Node2</title>
<g id="a_Node000002"><a xlink:title=" ">
<polygon fill="#e0e0e0" stroke="#999999" points="165.24,-318 84.74,-318 84.74,-298.75 165.24,-298.75 165.24,-318"/>
<text text-anchor="middle" x="124.99" y="-304.5" font-family="Helvetica,sans-Serif" font-size="10.00">elapsedMillis.h</text>
</a>
</g>
</g>
<!-- Node1&#45;&gt;Node2 -->
<g id="edge1_Node000001_Node000002" class="edge">
<title>Node1&#45;&gt;Node2</title>
<g id="a_edge1_Node000001_Node000002"><a xlink:title=" ">
<path fill="none" stroke="#63b8ff" d="M234.53,-353.55C211.01,-344.06 180.68,-331.83 157.9,-322.64"/>
<polygon fill="#63b8ff" stroke="#63b8ff" points="159.37,-319.46 148.79,-318.97 156.75,-325.96 159.37,-319.46"/>
</a>
</g>
</g>
<!-- Node3 -->
<g id="Node000003" class="node">
<title>Node3</title>
<g id="a_Node000003"><a xlink:title=" ">
<polygon fill="#e0e0e0" stroke="#999999" points="220.49,-318 183.49,-318 183.49,-298.75 220.49,-298.75 220.49,-318"/>
<text text-anchor="middle" x="201.99" y="-304.5" font-family="Helvetica,sans-Serif" font-size="10.00">tuple</text>
</a>
</g>
</g>
<!-- Node1&#45;&gt;Node3 -->
<g id="edge2_Node000001_Node000003" class="edge">
<title>Node1&#45;&gt;Node3</title>
<g id="a_edge2_Node000001_Node000003"><a xlink:title=" ">
<path fill="none" stroke="#63b8ff" d="M253.94,-353.7C244.04,-345.25 231.54,-334.58 221.28,-325.83"/>
<polygon fill="#63b8ff" stroke="#63b8ff" points="223.66,-323.26 213.78,-319.43 219.12,-328.59 223.66,-323.26"/>
</a>
</g>
</g>
<!-- Node4 -->
<g id="Node000004" class="node">
<title>Node4</title>
<g id="a_Node000004"><a xlink:href="lambda__consumer_8h.html" target="_top" xlink:title=" ">
<polygon fill="white" stroke="#666666" points="421.24,-262.75 298.74,-262.75 298.74,-232.25 421.24,-232.25 421.24,-262.75"/>
<text text-anchor="start" x="306.74" y="-249.25" font-family="Helvetica,sans-Serif" font-size="10.00">sensesp/system/lambda</text>
<text text-anchor="middle" x="359.99" y="-238" font-family="Helvetica,sans-Serif" font-size="10.00">_consumer.h</text>
</a>
</g>
</g>
<!-- Node1&#45;&gt;Node4 -->
<g id="edge3_Node000001_Node000004" class="edge">
<title>Node1&#45;&gt;Node4</title>
<g id="a_edge3_Node000001_Node000004"><a xlink:title=" ">
<path fill="none" stroke="#63b8ff" d="M283.9,-353.62C292.42,-343.76 303.69,-330.35 312.99,-318 324.03,-303.35 335.57,-286.3 344.46,-272.75"/>
<polygon fill="#63b8ff" stroke="#63b8ff" points="347.35,-274.73 349.87,-264.44 341.48,-270.92 347.35,-274.73"/>
</a>
</g>
</g>
<!-- Node15 -->
<g id="Node000015" class="node">
<title>Node15</title>
<g id="a_Node000015"><a xlink:href="valueproducer_8h.html" target="_top" xlink:title=" ">
<polygon fill="white" stroke="#666666" points="636.62,-257.12 477.37,-257.12 477.37,-237.88 636.62,-237.88 636.62,-257.12"/>
<text text-anchor="middle" x="556.99" y="-243.62" font-family="Helvetica,sans-Serif" font-size="10.00">sensesp/system/valueproducer.h</text>
</a>
</g>
</g>
<!-- Node1&#45;&gt;Node15 -->
<g id="edge14_Node000001_Node000015" class="edge">
<title>Node1&#45;&gt;Node15</title>
<g id="a_edge14_Node000001_Node000015"><a xlink:title=" ">
<path fill="none" stroke="#63b8ff" d="M306.06,-353.57C362.16,-330.08 471.24,-284.41 525.19,-261.81"/>
<polygon fill="#63b8ff" stroke="#63b8ff" points="526.26,-265.16 534.13,-258.07 523.55,-258.71 526.26,-265.16"/>
</a>
</g>
</g>
<!-- Node20 -->
<g id="Node000020" class="node">
<title>Node20</title>
<g id="a_Node000020"><a xlink:href="transform_8h.html" target="_top" xlink:title=" ">
<polygon fill="white" stroke="#666666" points="303.74,-318 238.24,-318 238.24,-298.75 303.74,-298.75 303.74,-318"/>
<text text-anchor="middle" x="270.99" y="-304.5" font-family="Helvetica,sans-Serif" font-size="10.00">transform.h</text>
</a>
</g>
</g>
<!-- Node1&#45;&gt;Node20 -->
<g id="edge22_Node000001_Node000020" class="edge">
<title>Node1&#45;&gt;Node20</title>
<g id="a_edge22_Node000001_Node000020"><a xlink:title=" ">
<path fill="none" stroke="#63b8ff" d="M270.99,-353.7C270.99,-346.46 270.99,-337.59 270.99,-329.69"/>
<polygon fill="#63b8ff" stroke="#63b8ff" points="274.49,-329.96 270.99,-319.96 267.49,-329.96 274.49,-329.96"/>
</a>
</g>
</g>
<!-- Node5 -->
<g id="Node000005" class="node">
<title>Node5</title>
<g id="a_Node000005"><a xlink:href="valueconsumer_8h.html" target="_top" xlink:title=" ">
<polygon fill="white" stroke="#666666" points="352.74,-196.25 263.24,-196.25 263.24,-177 352.74,-177 352.74,-196.25"/>
<text text-anchor="middle" x="307.99" y="-182.75" font-family="Helvetica,sans-Serif" font-size="10.00">valueconsumer.h</text>
</a>
</g>
</g>
<!-- Node4&#45;&gt;Node5 -->
<g id="edge4_Node000004_Node000005" class="edge">
<title>Node4&#45;&gt;Node5</title>
<g id="a_edge4_Node000004_Node000005"><a xlink:title=" ">
<path fill="none" stroke="#63b8ff" d="M347.14,-231.95C339.98,-223.84 331.02,-213.7 323.48,-205.16"/>
<polygon fill="#63b8ff" stroke="#63b8ff" points="326.26,-203.01 317.01,-197.84 321.01,-207.65 326.26,-203.01"/>
</a>
</g>
</g>
<!-- Node6 -->
<g id="Node000006" class="node">
<title>Node6</title>
<g id="a_Node000006"><a xlink:href="sensesp_8h.html" target="_top" xlink:title=" ">
<polygon fill="white" stroke="#666666" points="162.49,-141 101.49,-141 101.49,-121.75 162.49,-121.75 162.49,-141"/>
<text text-anchor="middle" x="131.99" y="-127.5" font-family="Helvetica,sans-Serif" font-size="10.00">sensesp.h</text>
</a>
</g>
</g>
<!-- Node5&#45;&gt;Node6 -->
<g id="edge5_Node000005_Node000006" class="edge">
<title>Node5&#45;&gt;Node6</title>
<g id="a_edge5_Node000005_Node000006"><a xlink:title=" ">
<path fill="none" stroke="#63b8ff" d="M278.14,-176.59C249.19,-167.83 205.04,-154.48 172.84,-144.73"/>
<polygon fill="#63b8ff" stroke="#63b8ff" points="174.03,-141.44 163.44,-141.89 172,-148.14 174.03,-141.44"/>
</a>
</g>
</g>
<!-- Node13 -->
<g id="Node000013" class="node">
<title>Node13</title>
<g id="a_Node000013"><a xlink:title=" ">
<polygon fill="#e0e0e0" stroke="#999999" points="266.12,-141 187.87,-141 187.87,-121.75 266.12,-121.75 266.12,-141"/>
<text text-anchor="middle" x="226.99" y="-127.5" font-family="Helvetica,sans-Serif" font-size="10.00">ArduinoJson.h</text>
</a>
</g>
</g>
<!-- Node5&#45;&gt;Node13 -->
<g id="edge12_Node000005_Node000013" class="edge">
<title>Node5&#45;&gt;Node13</title>
<g id="a_edge12_Node000005_Node000013"><a xlink:title=" ">
<path fill="none" stroke="#63b8ff" d="M294.25,-176.59C282.27,-168.71 264.62,-157.11 250.41,-147.77"/>
<polygon fill="#63b8ff" stroke="#63b8ff" points="252.35,-144.85 242.07,-142.28 248.5,-150.7 252.35,-144.85"/>
</a>
</g>
</g>
<!-- Node14 -->
<g id="Node000014" class="node">
<title>Node14</title>
<g id="a_Node000014"><a xlink:title=" ">
<polygon fill="#e0e0e0" stroke="#999999" points="332.12,-141 283.87,-141 283.87,-121.75 332.12,-121.75 332.12,-141"/>
<text text-anchor="middle" x="307.99" y="-127.5" font-family="Helvetica,sans-Serif" font-size="10.00">stdint.h</text>
</a>
</g>
</g>
<!-- Node5&#45;&gt;Node14 -->
<g id="edge13_Node000005_Node000014" class="edge">
<title>Node5&#45;&gt;Node14</title>
<g id="a_edge13_Node000005_Node000014"><a xlink:title=" ">
<path fill="none" stroke="#63b8ff" d="M307.99,-176.83C307.99,-170.32 307.99,-161.17 307.99,-152.87"/>
<polygon fill="#63b8ff" stroke="#63b8ff" points="311.49,-152.87 307.99,-142.87 304.49,-152.87 311.49,-152.87"/>
</a>
</g>
</g>
<!-- Node7 -->
<g id="Node000007" class="node">
<title>Node7</title>
<g id="a_Node000007"><a xlink:title=" ">
<polygon fill="#e0e0e0" stroke="#999999" points="165.62,-80.12 96.37,-80.12 96.37,-60.88 165.62,-60.88 165.62,-80.12"/>
<text text-anchor="middle" x="130.99" y="-66.62" font-family="Helvetica,sans-Serif" font-size="10.00">ReactESP.h</text>
</a>
</g>
</g>
<!-- Node6&#45;&gt;Node7 -->
<g id="edge6_Node000006_Node000007" class="edge">
<title>Node6&#45;&gt;Node7</title>
<g id="a_edge6_Node000006_Node000007"><a xlink:title=" ">
<path fill="none" stroke="#63b8ff" d="M131.84,-121.43C131.71,-113.65 131.51,-102.08 131.34,-92.03"/>
<polygon fill="#63b8ff" stroke="#63b8ff" points="134.84,-91.98 131.17,-82.04 127.84,-92.1 134.84,-91.98"/>
</a>
</g>
</g>
<!-- Node8 -->
<g id="Node000008" class="node">
<title>Node8</title>
<g id="a_Node000008"><a xlink:title=" ">
<polygon fill="#e0e0e0" stroke="#999999" points="484.62,-80.12 433.37,-80.12 433.37,-60.88 484.62,-60.88 484.62,-80.12"/>
<text text-anchor="middle" x="458.99" y="-66.62" font-family="Helvetica,sans-Serif" font-size="10.00">memory</text>
</a>
</g>
</g>
<!-- Node6&#45;&gt;Node8 -->
<g id="edge7_Node000006_Node000008" class="edge">
<title>Node6&#45;&gt;Node8</title>
<g id="a_edge7_Node000006_Node000008"><a xlink:title=" ">
<path fill="none" stroke="#63b8ff" d="M162.83,-124.7C168.22,-123.71 173.77,-122.7 178.99,-121.75 265.96,-105.97 368.17,-87.69 421.81,-78.12"/>
<polygon fill="#63b8ff" stroke="#63b8ff" points="422.4,-81.57 431.63,-76.37 421.17,-74.68 422.4,-81.57"/>
</a>
</g>
</g>
<!-- Node9 -->
<g id="Node000009" class="node">
<title>Node9</title>
<g id="a_Node000009"><a xlink:href="local__debug_8h.html" target="_top" xlink:title=" ">
<polygon fill="white" stroke="#666666" points="294.62,-85.75 183.37,-85.75 183.37,-55.25 294.62,-55.25 294.62,-85.75"/>
<text text-anchor="start" x="191.37" y="-72.25" font-family="Helvetica,sans-Serif" font-size="10.00">sensesp/system/local</text>
<text text-anchor="middle" x="238.99" y="-61" font-family="Helvetica,sans-Serif" font-size="10.00">_debug.h</text>
</a>
</g>
</g>
<!-- Node6&#45;&gt;Node9 -->
<g id="edge8_Node000006_Node000009" class="edge">
<title>Node6&#45;&gt;Node9</title>
<g id="a_edge8_Node000006_Node000009"><a xlink:title=" ">
<path fill="none" stroke="#63b8ff" d="M148.24,-121.43C162.65,-113.51 184.2,-101.65 202.69,-91.47"/>
<polygon fill="#63b8ff" stroke="#63b8ff" points="204.18,-94.65 211.26,-86.76 200.81,-88.52 204.18,-94.65"/>
</a>
</g>
</g>
<!-- Node10 -->
<g id="Node000010" class="node">
<title>Node10</title>
<g id="a_Node000010"><a xlink:title=" ">
<polygon fill="#e0e0e0" stroke="#999999" points="319.99,-19.25 237.99,-19.25 237.99,0 319.99,0 319.99,-19.25"/>
<text text-anchor="middle" x="278.99" y="-5.75" font-family="Helvetica,sans-Serif" font-size="10.00">esp32&#45;hal&#45;log.h</text>
</a>
</g>
</g>
<!-- Node9&#45;&gt;Node10 -->
<g id="edge9_Node000009_Node000010" class="edge">
<title>Node9&#45;&gt;Node10</title>
<g id="a_edge9_Node000009_Node000010"><a xlink:title=" ">
<path fill="none" stroke="#63b8ff" d="M248.88,-54.95C254.21,-47.1 260.84,-37.35 266.52,-28.99"/>
<polygon fill="#63b8ff" stroke="#63b8ff" points="269.25,-31.19 271.98,-20.95 263.46,-27.26 269.25,-31.19"/>
</a>
</g>
</g>
<!-- Node11 -->
<g id="Node000011" class="node">
<title>Node11</title>
<g id="a_Node000011"><a xlink:title=" ">
<polygon fill="#e0e0e0" stroke="#999999" points="96.62,-19.25 39.37,-19.25 39.37,0 96.62,0 96.62,-19.25"/>
<text text-anchor="middle" x="67.99" y="-5.75" font-family="Helvetica,sans-Serif" font-size="10.00">Arduino.h</text>
</a>
</g>
</g>
<!-- Node9&#45;&gt;Node11 -->
<g id="edge10_Node000009_Node000011" class="edge">
<title>Node9&#45;&gt;Node11</title>
<g id="a_edge10_Node000009_Node000011"><a xlink:title=" ">
<path fill="none" stroke="#63b8ff" d="M196.28,-54.8C168.33,-45.17 132.14,-32.71 105.33,-23.48"/>
<polygon fill="#63b8ff" stroke="#63b8ff" points="106.5,-20.18 95.9,-20.23 104.22,-26.8 106.5,-20.18"/>
</a>
</g>
</g>
<!-- Node12 -->
<g id="Node000012" class="node">
<title>Node12</title>
<g id="a_Node000012"><a xlink:title=" ">
<polygon fill="#e0e0e0" stroke="#999999" points="220.24,-19.25 175.74,-19.25 175.74,0 220.24,0 220.24,-19.25"/>
<text text-anchor="middle" x="197.99" y="-5.75" font-family="Helvetica,sans-Serif" font-size="10.00">Print.h</text>
</a>
</g>
</g>
<!-- Node9&#45;&gt;Node12 -->
<g id="edge11_Node000009_Node000012" class="edge">
<title>Node9&#45;&gt;Node12</title>
<g id="a_edge11_Node000009_Node000012"><a xlink:title=" ">
<path fill="none" stroke="#63b8ff" d="M228.86,-54.95C223.4,-47.1 216.6,-37.35 210.78,-28.99"/>
<polygon fill="#63b8ff" stroke="#63b8ff" points="213.77,-27.15 205.18,-20.94 208.02,-31.15 213.77,-27.15"/>
</a>
</g>
</g>
<!-- Node15&#45;&gt;Node5 -->
<g id="edge21_Node000015_Node000005" class="edge">
<title>Node15&#45;&gt;Node5</title>
<g id="a_edge21_Node000015_Node000005"><a xlink:title=" ">
<path fill="none" stroke="#63b8ff" d="M518.63,-237.43C475.31,-227.19 404.71,-210.49 357.32,-199.29"/>
<polygon fill="#63b8ff" stroke="#63b8ff" points="358.41,-195.95 347.87,-197.05 356.8,-202.76 358.41,-195.95"/>
</a>
</g>
</g>
<!-- Node15&#45;&gt;Node8 -->
<g id="edge16_Node000015_Node000008" class="edge">
<title>Node15&#45;&gt;Node8</title>
<g id="a_edge16_Node000015_Node000008"><a xlink:title=" ">
<path fill="none" stroke="#63b8ff" d="M560.67,-237.47C568.91,-215.63 586.39,-159.04 562.99,-121.75 548.34,-98.39 519.42,-85.63 495.8,-78.82"/>
<polygon fill="#63b8ff" stroke="#63b8ff" points="496.73,-75.45 486.17,-76.32 494.97,-82.22 496.73,-75.45"/>
</a>
</g>
</g>
<!-- Node15&#45;&gt;Node13 -->
<g id="edge15_Node000015_Node000013" class="edge">
<title>Node15&#45;&gt;Node13</title>
<g id="a_edge15_Node000015_Node000013"><a xlink:title=" ">
<path fill="none" stroke="#63b8ff" d="M525.86,-237.4C494.69,-228.02 445.51,-212.52 403.99,-196.25 384.88,-188.76 381.1,-184.51 361.99,-177 331.14,-164.87 295.5,-153.19 268.59,-144.82"/>
<polygon fill="#63b8ff" stroke="#63b8ff" points="269.66,-141.49 259.08,-141.89 267.6,-148.18 269.66,-141.49"/>
</a>
</g>
</g>
<!-- Node16 -->
<g id="Node000016" class="node">
<title>Node16</title>
<g id="a_Node000016"><a xlink:href="observable_8h.html" target="_top" xlink:title=" ">
<polygon fill="white" stroke="#666666" points="484.74,-196.25 413.24,-196.25 413.24,-177 484.74,-177 484.74,-196.25"/>
<text text-anchor="middle" x="448.99" y="-182.75" font-family="Helvetica,sans-Serif" font-size="10.00">observable.h</text>
</a>
</g>
</g>
<!-- Node15&#45;&gt;Node16 -->
<g id="edge17_Node000015_Node000016" class="edge">
<title>Node15&#45;&gt;Node16</title>
<g id="a_edge17_Node000015_Node000016"><a xlink:title=" ">
<path fill="none" stroke="#63b8ff" d="M540.59,-237.56C523.3,-228.13 495.81,-213.15 475.46,-202.05"/>
<polygon fill="#63b8ff" stroke="#63b8ff" points="477.34,-199.09 466.88,-197.38 473.98,-205.23 477.34,-199.09"/>
</a>
</g>
</g>
<!-- Node17 -->
<g id="Node000017" class="node">
<title>Node17</title>
<g id="a_Node000017"><a xlink:title=" ">
<polygon fill="#e0e0e0" stroke="#999999" points="478.12,-141 411.87,-141 411.87,-121.75 478.12,-121.75 478.12,-141"/>
<text text-anchor="middle" x="444.99" y="-127.5" font-family="Helvetica,sans-Serif" font-size="10.00">forward_list</text>
</a>
</g>
</g>
<!-- Node16&#45;&gt;Node17 -->
<g id="edge18_Node000016_Node000017" class="edge">
<title>Node16&#45;&gt;Node17</title>
<g id="a_edge18_Node000016_Node000017"><a xlink:title=" ">
<path fill="none" stroke="#63b8ff" d="M448.33,-176.83C447.84,-170.24 447.14,-160.96 446.51,-152.57"/>
<polygon fill="#63b8ff" stroke="#63b8ff" points="450.02,-152.58 445.78,-142.87 443.04,-153.1 450.02,-152.58"/>
</a>
</g>
</g>
<!-- Node18 -->
<g id="Node000018" class="node">
<title>Node18</title>
<g id="a_Node000018"><a xlink:title=" ">
<polygon fill="#e0e0e0" stroke="#999999" points="553.99,-141 495.99,-141 495.99,-121.75 553.99,-121.75 553.99,-141"/>
<text text-anchor="middle" x="524.99" y="-127.5" font-family="Helvetica,sans-Serif" font-size="10.00">functional</text>
</a>
</g>
</g>
<!-- Node16&#45;&gt;Node18 -->
<g id="edge19_Node000016_Node000018" class="edge">
<title>Node16&#45;&gt;Node18</title>
<g id="a_edge19_Node000016_Node000018"><a xlink:title=" ">
<path fill="none" stroke="#63b8ff" d="M461.89,-176.59C473.02,-168.79 489.37,-157.34 502.63,-148.04"/>
<polygon fill="#63b8ff" stroke="#63b8ff" points="504.62,-150.93 510.8,-142.32 500.6,-145.19 504.62,-150.93"/>
</a>
</g>
</g>
<!-- Node19 -->
<g id="Node000019" class="node">
<title>Node19</title>
<g id="a_Node000019"><a xlink:title=" ">
<polygon fill="#e0e0e0" stroke="#999999" points="393.49,-141 350.49,-141 350.49,-121.75 393.49,-121.75 393.49,-141"/>
<text text-anchor="middle" x="371.99" y="-127.5" font-family="Helvetica,sans-Serif" font-size="10.00">vector</text>
</a>
</g>
</g>
<!-- Node16&#45;&gt;Node19 -->
<g id="edge20_Node000016_Node000019" class="edge">
<title>Node16&#45;&gt;Node19</title>
<g id="a_edge20_Node000016_Node000019"><a xlink:title=" ">
<path fill="none" stroke="#63b8ff" d="M435.93,-176.59C424.54,-168.71 407.76,-157.11 394.26,-147.77"/>
<polygon fill="#63b8ff" stroke="#63b8ff" points="396.58,-145.12 386.36,-142.31 392.6,-150.88 396.58,-145.12"/>
</a>
</g>
</g>
<!-- Node20&#45;&gt;Node5 -->
<g id="edge35_Node000020_Node000005" class="edge">
<title>Node20&#45;&gt;Node5</title>
<g id="a_edge35_Node000020_Node000005"><a xlink:title=" ">
<path fill="none" stroke="#63b8ff" d="M272.83,-298.47C275.86,-284.3 282.31,-255.78 289.99,-232.25 292.71,-223.92 296.23,-214.92 299.43,-207.2"/>
<polygon fill="#63b8ff" stroke="#63b8ff" points="302.6,-208.68 303.31,-198.11 296.16,-205.94 302.6,-208.68"/>
</a>
</g>
</g>
<!-- Node20&#45;&gt;Node6 -->
<g id="edge23_Node000020_Node000006" class="edge">
<title>Node20&#45;&gt;Node6</title>
<g id="a_edge23_Node000020_Node000006"><a xlink:title=" ">
<path fill="none" stroke="#63b8ff" d="M237.9,-300.28C235.23,-299.75 232.57,-299.23 229.99,-298.75 181.3,-289.65 42.07,-300.5 9.99,-262.75 -27.34,-218.81 53.99,-169.89 101.25,-146.43"/>
<polygon fill="#63b8ff" stroke="#63b8ff" points="102.76,-149.59 110.24,-142.08 99.71,-143.28 102.76,-149.59"/>
</a>
</g>
</g>
<!-- Node20&#45;&gt;Node13 -->
<g id="edge24_Node000020_Node000013" class="edge">
<title>Node20&#45;&gt;Node13</title>
<g id="a_edge24_Node000020_Node000013"><a xlink:title=" ">
<path fill="none" stroke="#63b8ff" d="M268.75,-298.46C261.99,-271.55 241.66,-190.69 232.08,-152.62"/>
<polygon fill="#63b8ff" stroke="#63b8ff" points="235.49,-151.8 229.65,-142.95 228.7,-153.51 235.49,-151.8"/>
</a>
</g>
</g>
<!-- Node20&#45;&gt;Node15 -->
<g id="edge36_Node000020_Node000015" class="edge">
<title>Node20&#45;&gt;Node15</title>
<g id="a_edge36_Node000020_Node000015"><a xlink:title=" ">
<path fill="none" stroke="#63b8ff" d="M304.08,-300.56C352.47,-290.6 443.13,-271.94 501.73,-259.88"/>
<polygon fill="#63b8ff" stroke="#63b8ff" points="502.44,-263.3 511.52,-257.86 501.02,-256.45 502.44,-263.3"/>
</a>
</g>
</g>
<!-- Node20&#45;&gt;Node16 -->
<g id="edge26_Node000020_Node000016" class="edge">
<title>Node20&#45;&gt;Node16</title>
<g id="a_edge26_Node000020_Node000016"><a xlink:title=" ">
<path fill="none" stroke="#63b8ff" d="M304.14,-307.33C340.13,-305.43 396.88,-296.73 429.99,-262.75 444.21,-248.16 448.26,-224.55 449.19,-207.69"/>
<polygon fill="#63b8ff" stroke="#63b8ff" points="452.68,-207.96 449.38,-197.89 445.69,-207.82 452.68,-207.96"/>
</a>
</g>
</g>
<!-- Node21 -->
<g id="Node000021" class="node">
<title>Node21</title>
<g id="a_Node000021"><a xlink:title=" ">
<polygon fill="#e0e0e0" stroke="#999999" points="48.74,-257.12 19.24,-257.12 19.24,-237.88 48.74,-237.88 48.74,-257.12"/>
<text text-anchor="middle" x="33.99" y="-243.62" font-family="Helvetica,sans-Serif" font-size="10.00">set</text>
</a>
</g>
</g>
<!-- Node20&#45;&gt;Node21 -->
<g id="edge25_Node000020_Node000021" class="edge">
<title>Node20&#45;&gt;Node21</title>
<g id="a_edge25_Node000020_Node000021"><a xlink:title=" ">
<path fill="none" stroke="#63b8ff" d="M237.88,-300.41C235.21,-299.84 232.56,-299.29 229.99,-298.75 153.56,-282.71 130.78,-291.07 57.99,-262.75 57.88,-262.71 57.77,-262.66 57.66,-262.62"/>
<polygon fill="#63b8ff" stroke="#63b8ff" points="59.43,-259.59 48.91,-258.27 56.31,-265.86 59.43,-259.59"/>
</a>
</g>
</g>
<!-- Node22 -->
<g id="Node000022" class="node">
<title>Node22</title>
<g id="a_Node000022"><a xlink:href="saveable_8h.html" target="_top" xlink:title=" ">
<polygon fill="white" stroke="#666666" points="205.12,-257.12 66.87,-257.12 66.87,-237.88 205.12,-237.88 205.12,-257.12"/>
<text text-anchor="middle" x="135.99" y="-243.62" font-family="Helvetica,sans-Serif" font-size="10.00">sensesp/system/saveable.h</text>
</a>
</g>
</g>
<!-- Node20&#45;&gt;Node22 -->
<g id="edge27_Node000020_Node000022" class="edge">
<title>Node20&#45;&gt;Node22</title>
<g id="a_edge27_Node000020_Node000022"><a xlink:title=" ">
<path fill="none" stroke="#63b8ff" d="M250.2,-298.3C227.93,-288.6 192.38,-273.09 166.85,-261.96"/>
<polygon fill="#63b8ff" stroke="#63b8ff" points="168.55,-258.88 157.98,-258.09 165.75,-265.29 168.55,-258.88"/>
</a>
</g>
</g>
<!-- Node22&#45;&gt;Node6 -->
<g id="edge28_Node000022_Node000006" class="edge">
<title>Node22&#45;&gt;Node6</title>
<g id="a_edge28_Node000022_Node000006"><a xlink:title=" ">
<path fill="none" stroke="#63b8ff" d="M122.42,-237.61C110.28,-228.77 93.32,-214 85.99,-196.25 78.57,-178.26 93.65,-160.51 108.48,-148.31"/>
<polygon fill="#63b8ff" stroke="#63b8ff" points="110.43,-151.22 116.28,-142.39 106.2,-145.65 110.43,-151.22"/>
</a>
</g>
</g>
<!-- Node22&#45;&gt;Node11 -->
<g id="edge30_Node000022_Node000011" class="edge">
<title>Node22&#45;&gt;Node11</title>
<g id="a_edge30_Node000022_Node000011"><a xlink:title=" ">
<path fill="none" stroke="#63b8ff" d="M120.85,-237.41C107.7,-228.63 89.33,-214.07 79.99,-196.25 51.55,-141.99 58.67,-66.21 64.27,-30.61"/>
<polygon fill="#63b8ff" stroke="#63b8ff" points="67.69,-31.36 65.94,-20.91 60.79,-30.17 67.69,-31.36"/>
</a>
</g>
</g>
<!-- Node22&#45;&gt;Node13 -->
<g id="edge29_Node000022_Node000013" class="edge">
<title>Node22&#45;&gt;Node13</title>
<g id="a_edge29_Node000022_Node000013"><a xlink:title=" ">
<path fill="none" stroke="#63b8ff" d="M143.31,-237.65C151.55,-227.64 165.32,-210.85 176.99,-196.25 189.46,-180.65 203.47,-162.72 213.47,-149.84"/>
<polygon fill="#63b8ff" stroke="#63b8ff" points="215.97,-152.34 219.33,-142.29 210.43,-148.05 215.97,-152.34"/>
</a>
</g>
</g>
<!-- Node23 -->
<g id="Node000023" class="node">
<title>Node23</title>
<g id="a_Node000023"><a xlink:href="serializable_8h.html" target="_top" xlink:title=" ">
<polygon fill="white" stroke="#666666" points="168.49,-196.25 95.49,-196.25 95.49,-177 168.49,-177 168.49,-196.25"/>
<text text-anchor="middle" x="131.99" y="-182.75" font-family="Helvetica,sans-Serif" font-size="10.00">serializable.h</text>
</a>
</g>
</g>
<!-- Node22&#45;&gt;Node23 -->
<g id="edge31_Node000022_Node000023" class="edge">
<title>Node22&#45;&gt;Node23</title>
<g id="a_edge31_Node000022_Node000023"><a xlink:title=" ">
<path fill="none" stroke="#63b8ff" d="M135.39,-237.56C134.85,-229.69 134.05,-217.95 133.37,-207.82"/>
<polygon fill="#63b8ff" stroke="#63b8ff" points="136.88,-207.9 132.71,-198.16 129.9,-208.38 136.88,-207.9"/>
</a>
</g>
</g>
<!-- Node23&#45;&gt;Node6 -->
<g id="edge32_Node000023_Node000006" class="edge">
<title>Node23&#45;&gt;Node6</title>
<g id="a_edge32_Node000023_Node000006"><a xlink:title=" ">
<path fill="none" stroke="#63b8ff" d="M131.99,-176.83C131.99,-170.32 131.99,-161.17 131.99,-152.87"/>
<polygon fill="#63b8ff" stroke="#63b8ff" points="135.49,-152.87 131.99,-142.87 128.49,-152.87 135.49,-152.87"/>
</a>
</g>
</g>
<!-- Node23&#45;&gt;Node11 -->
<g id="edge34_Node000023_Node000011" class="edge">
<title>Node23&#45;&gt;Node11</title>
<g id="a_edge34_Node000023_Node000011"><a xlink:title=" ">
<path fill="none" stroke="#63b8ff" d="M121,-176.54C111.76,-168.27 98.96,-155.2 91.99,-141 74.3,-104.96 69.57,-57.5 68.36,-30.91"/>
<polygon fill="#63b8ff" stroke="#63b8ff" points="71.87,-31.08 68.05,-21.2 64.87,-31.3 71.87,-31.08"/>
</a>
</g>
</g>
<!-- Node23&#45;&gt;Node13 -->
<g id="edge33_Node000023_Node000013" class="edge">
<title>Node23&#45;&gt;Node13</title>
<g id="a_edge33_Node000023_Node000013"><a xlink:title=" ">
<path fill="none" stroke="#63b8ff" d="M148.11,-176.59C162.58,-168.48 184.07,-156.43 200.97,-146.96"/>
<polygon fill="#63b8ff" stroke="#63b8ff" points="202.47,-150.14 209.48,-142.19 199.04,-144.03 202.47,-150.14"/>
</a>
</g>
</g>
</g>
</svg>

<g id="navigator" transform="translate(0 0)" fill="#404254">
  <rect fill="#f2f5e9" fill-opacity="0.5" stroke="#606060" stroke-width=".5" x="0" y="0" width="60" height="60"/>
  <use id="zoomplus" xlink:href="#zoomPlus" x="17" y="9" onmousedown="handleZoom(evt,'in')"/>
  <use id="zoomminus" xlink:href="#zoomMin" x="42" y="9" onmousedown="handleZoom(evt,'out')"/>
  <use id="reset" xlink:href="#resetDef" x="30" y="36" onmousedown="handleReset()"/>
   <use id="arrowup" xlink:href="#arrowUp" x="0" y="0" onmousedown="handlePan(0,-1)"/>
  <use id="arrowright" xlink:href="#arrowRight" x="0" y="0" onmousedown="handlePan(1,0)"/>
  <use id="arrowdown" xlink:href="#arrowDown" x="0" y="0" onmousedown="handlePan(0,1)"/>
  <use id="arrowleft" xlink:href="#arrowLeft" x="0" y="0" onmousedown="handlePan(-1,0)"/>
</g>
<svg viewBox="0 0 15 15" width="100%" height="30px" preserveAspectRatio="xMaxYMin meet">
 <g id="arrow_out" transform="scale(0.3 0.3)">
  <a xlink:href="join_8h__incl_org.svg" target="_base">
   <rect id="button" ry="5" rx="5" y="6" x="6" height="38" width="38"
        fill="#f2f5e9" fill-opacity="0.5" stroke="#606060" stroke-width="1.0"/>
   <path id="arrow"
     d="M 11.500037,31.436501 C 11.940474,20.09759 22.043105,11.32322 32.158766,21.979434 L 37.068811,17.246167 C 37.068811,17.246167 37.088388,32 37.088388,32 L 22.160133,31.978069 C 22.160133,31.978069 26.997745,27.140456 26.997745,27.140456 C 18.528582,18.264221 13.291696,25.230495 11.500037,31.436501 z"
     style="fill:#404040;"/>
  </a>
 </g>
</svg>

<style type='text/css'>
<![CDATA[
[data-mouse-over-selected='false'] { opacity: 0.7; }
[data-mouse-over-selected='true']  { opacity: 1.0; }
]]>
</style>
<script type="application/ecmascript"><![CDATA[
document.addEventListener('DOMContentLoaded', (event) => {
  highlightEdges();
  highlightAdjacentNodes();
});
]]></script>
</svg>
