<?xml version="1.0" encoding="UTF-8" standalone="no"?>
<!DOCTYPE svg PUBLIC "-//W3C//DTD SVG 1.1//EN"
 "http://www.w3.org/Graphics/SVG/1.1/DTD/svg11.dtd">
<!-- Generated by graphviz version 2.40.1 (20161225.0304)
 -->
<!-- Title: src/transforms/lambda_transform.h Pages: 1 -->
<svg width="693pt" height="157pt"
 viewBox="0.00 0.00 693.38 157.00" xmlns="http://www.w3.org/2000/svg" xmlns:xlink="http://www.w3.org/1999/xlink">
<g id="graph0" class="graph" transform="scale(1 1) rotate(0) translate(4 153)">
<title>src/transforms/lambda_transform.h</title>
<polygon fill="#ffffff" stroke="transparent" points="-4,4 -4,-153 689.3813,-153 689.3813,4 -4,4"/>
<!-- Node19 -->
<g id="node1" class="node">
<title>Node19</title>
<g id="a_node1"><a xlink:title=" ">
<polygon fill="#bfbfbf" stroke="#000000" points="347.793,-120.5 347.793,-148.5 462.709,-148.5 462.709,-120.5 347.793,-120.5"/>
<text text-anchor="start" x="355.793" y="-136.5" font-family="Helvetica,sans-Serif" font-size="10.00" fill="#000000">src/transforms/lambda</text>
<text text-anchor="middle" x="405.251" y="-126.5" font-family="Helvetica,sans-Serif" font-size="10.00" fill="#000000">_transform.h</text>
</a>
</g>
</g>
<!-- Node20 -->
<g id="node2" class="node">
<title>Node20</title>
<g id="a_node2"><a xlink:href="linear_8h.html" target="_top" xlink:title=" ">
<polygon fill="#ffffff" stroke="#000000" points="134.0664,-60.5 134.0664,-78.5 248.4355,-78.5 248.4355,-60.5 134.0664,-60.5"/>
<text text-anchor="middle" x="191.251" y="-66.5" font-family="Helvetica,sans-Serif" font-size="10.00" fill="#000000">src/transforms/linear.h</text>
</a>
</g>
</g>
<!-- Node19&#45;&gt;Node20 -->
<g id="edge1" class="edge">
<title>Node19&#45;&gt;Node20</title>
<path fill="none" stroke="#191970" d="M349.4603,-117.5542C308.3316,-105.0619 253.9933,-88.5573 220.8869,-78.5016"/>
<polygon fill="#191970" stroke="#191970" points="348.494,-120.9186 359.0796,-120.476 350.5285,-114.2207 348.494,-120.9186"/>
</g>
<!-- Node24 -->
<g id="node6" class="node">
<title>Node24</title>
<g id="a_node6"><a xlink:href="hysteresis_8h.html" target="_top" xlink:title=" ">
<polygon fill="#ffffff" stroke="#000000" points="266.5146,-60.5 266.5146,-78.5 401.9873,-78.5 401.9873,-60.5 266.5146,-60.5"/>
<text text-anchor="middle" x="334.251" y="-66.5" font-family="Helvetica,sans-Serif" font-size="10.00" fill="#000000">src/transforms/hysteresis.h</text>
</a>
</g>
</g>
<!-- Node19&#45;&gt;Node24 -->
<g id="edge5" class="edge">
<title>Node19&#45;&gt;Node24</title>
<path fill="none" stroke="#191970" d="M382.2267,-113.4214C369.3548,-101.6373 353.9759,-87.558 344.1629,-78.5743"/>
<polygon fill="#191970" stroke="#191970" points="380.1058,-116.225 389.845,-120.396 384.8326,-111.0618 380.1058,-116.225"/>
</g>
<!-- Node25 -->
<g id="node7" class="node">
<title>Node25</title>
<g id="a_node7"><a xlink:href="lambda__transform_8cpp.html" target="_top" xlink:title=" ">
<polygon fill="#ffffff" stroke="#000000" points="419.793,-55.5 419.793,-83.5 534.709,-83.5 534.709,-55.5 419.793,-55.5"/>
<text text-anchor="start" x="427.793" y="-71.5" font-family="Helvetica,sans-Serif" font-size="10.00" fill="#000000">src/transforms/lambda</text>
<text text-anchor="middle" x="477.251" y="-61.5" font-family="Helvetica,sans-Serif" font-size="10.00" fill="#000000">_transform.cpp</text>
</a>
</g>
</g>
<!-- Node19&#45;&gt;Node25 -->
<g id="edge6" class="edge">
<title>Node19&#45;&gt;Node25</title>
<path fill="none" stroke="#191970" d="M428.4042,-113.5978C439.2759,-103.7831 451.9467,-92.3442 461.6585,-83.5765"/>
<polygon fill="#191970" stroke="#191970" points="425.9512,-111.097 420.8739,-120.396 430.642,-116.2929 425.9512,-111.097"/>
</g>
<!-- Node26 -->
<g id="node8" class="node">
<title>Node26</title>
<g id="a_node8"><a xlink:href="typecast_8h.html" target="_top" xlink:title=" ">
<polygon fill="#ffffff" stroke="#000000" points="552.4014,-60.5 552.4014,-78.5 680.1006,-78.5 680.1006,-60.5 552.4014,-60.5"/>
<text text-anchor="middle" x="616.251" y="-66.5" font-family="Helvetica,sans-Serif" font-size="10.00" fill="#000000">src/transforms/typecast.h</text>
</a>
</g>
</g>
<!-- Node19&#45;&gt;Node26 -->
<g id="edge7" class="edge">
<title>Node19&#45;&gt;Node26</title>
<path fill="none" stroke="#191970" d="M460.5163,-117.4751C501.0377,-104.9923 554.4571,-88.536 587.0305,-78.5016"/>
<polygon fill="#191970" stroke="#191970" points="459.3014,-114.187 450.7751,-120.476 461.3623,-120.8768 459.3014,-114.187"/>
</g>
<!-- Node21 -->
<g id="node3" class="node">
<title>Node21</title>
<g id="a_node3"><a xlink:href="sensesp__app_8cpp.html" target="_top" xlink:title=" ">
<polygon fill="#ffffff" stroke="#000000" points="0,-.5 0,-18.5 110.502,-18.5 110.502,-.5 0,-.5"/>
<text text-anchor="middle" x="55.251" y="-6.5" font-family="Helvetica,sans-Serif" font-size="10.00" fill="#000000">src/sensesp_app.cpp</text>
</a>
</g>
</g>
<!-- Node20&#45;&gt;Node21 -->
<g id="edge2" class="edge">
<title>Node20&#45;&gt;Node21</title>
<path fill="none" stroke="#191970" d="M161.2201,-56.2511C135.2301,-44.7849 98.3491,-28.5139 75.6552,-18.5019"/>
<polygon fill="#191970" stroke="#191970" points="160.0336,-59.553 170.5955,-60.3873 162.8591,-53.1486 160.0336,-59.553"/>
</g>
<!-- Node22 -->
<g id="node4" class="node">
<title>Node22</title>
<g id="a_node4"><a xlink:href="linear_8cpp.html" target="_top" xlink:title=" ">
<polygon fill="#ffffff" stroke="#000000" points="128.7856,-.5 128.7856,-18.5 253.7163,-18.5 253.7163,-.5 128.7856,-.5"/>
<text text-anchor="middle" x="191.251" y="-6.5" font-family="Helvetica,sans-Serif" font-size="10.00" fill="#000000">src/transforms/linear.cpp</text>
</a>
</g>
</g>
<!-- Node20&#45;&gt;Node22 -->
<g id="edge3" class="edge">
<title>Node20&#45;&gt;Node22</title>
<path fill="none" stroke="#191970" d="M191.251,-50.3734C191.251,-39.7812 191.251,-27.0976 191.251,-18.6985"/>
<polygon fill="#191970" stroke="#191970" points="187.7511,-50.3873 191.251,-60.3873 194.7511,-50.3873 187.7511,-50.3873"/>
</g>
<!-- Node23 -->
<g id="node5" class="node">
<title>Node23</title>
<g id="a_node5"><a xlink:href="wiring__helpers_8cpp.html" target="_top" xlink:title=" ">
<polygon fill="#ffffff" stroke="#000000" points="271.5073,-.5 271.5073,-18.5 386.9946,-18.5 386.9946,-.5 271.5073,-.5"/>
<text text-anchor="middle" x="329.251" y="-6.5" font-family="Helvetica,sans-Serif" font-size="10.00" fill="#000000">src/wiring_helpers.cpp</text>
</a>
</g>
</g>
<!-- Node20&#45;&gt;Node23 -->
<g id="edge4" class="edge">
<title>Node20&#45;&gt;Node23</title>
<path fill="none" stroke="#191970" d="M221.7235,-56.2511C248.0957,-44.7849 285.5191,-28.5139 308.5467,-18.5019"/>
<polygon fill="#191970" stroke="#191970" points="219.9854,-53.1902 212.2102,-60.3873 222.7765,-59.6097 219.9854,-53.1902"/>
</g>
<!-- Node27 -->
<g id="node9" class="node">
<title>Node27</title>
<g id="a_node9"><a xlink:href="typecast_8cpp.html" target="_top" xlink:title=" ">
<polygon fill="#ffffff" stroke="#000000" points="547.1206,-.5 547.1206,-18.5 685.3813,-18.5 685.3813,-.5 547.1206,-.5"/>
<text text-anchor="middle" x="616.251" y="-6.5" font-family="Helvetica,sans-Serif" font-size="10.00" fill="#000000">src/transforms/typecast.cpp</text>
</a>
</g>
</g>
<!-- Node26&#45;&gt;Node27 -->
<g id="edge8" class="edge">
<title>Node26&#45;&gt;Node27</title>
<path fill="none" stroke="#191970" d="M616.251,-50.3734C616.251,-39.7812 616.251,-27.0976 616.251,-18.6985"/>
<polygon fill="#191970" stroke="#191970" points="612.7511,-50.3873 616.251,-60.3873 619.7511,-50.3873 612.7511,-50.3873"/>
</g>
</g>
</svg>
