<?xml version="1.0" encoding="UTF-8" standalone="no"?>
<!DOCTYPE svg PUBLIC "-//W3C//DTD SVG 1.1//EN"
 "http://www.w3.org/Graphics/SVG/1.1/DTD/svg11.dtd">
<!-- Generated by graphviz version 2.49.3 (20211023.0002)
 -->
<!-- Title: src/sensesp/system/led_blinker.h Pages: 1 -->
<svg width="1288pt" height="240pt"
 viewBox="0.00 0.00 1288.00 240.00" xmlns="http://www.w3.org/2000/svg" xmlns:xlink="http://www.w3.org/1999/xlink">
<g id="graph0" class="graph" transform="scale(1 1) rotate(0) translate(4 236)">
<title>src/sensesp/system/led_blinker.h</title>
<polygon fill="white" stroke="transparent" points="-4,4 -4,-236 1284,-236 1284,4 -4,4"/>
<!-- Node1 -->
<g id="node1" class="node">
<title>Node1</title>
<g id="a_node1"><a xlink:title=" ">
<polygon fill="#bfbfbf" stroke="black" points="175.5,-201.5 175.5,-231.5 279.5,-231.5 279.5,-201.5 175.5,-201.5"/>
<text text-anchor="start" x="183.5" y="-219.5" font-family="Helvetica,sans-Serif" font-size="10.00">src/sensesp/system</text>
<text text-anchor="middle" x="227.5" y="-208.5" font-family="Helvetica,sans-Serif" font-size="10.00">/led_blinker.h</text>
</a>
</g>
</g>
<!-- Node2 -->
<g id="node2" class="node">
<title>Node2</title>
<g id="a_node2"><a xlink:href="networking_8cpp.html" target="_top" xlink:title=" ">
<polygon fill="white" stroke="black" points="0,-6 0,-25 157,-25 157,-6 0,-6"/>
<text text-anchor="middle" x="78.5" y="-13" font-family="Helvetica,sans-Serif" font-size="10.00">src/sensesp/net/networking.cpp</text>
</a>
</g>
</g>
<!-- Node1&#45;&gt;Node2 -->
<g id="edge1" class="edge">
<title>Node1&#45;&gt;Node2</title>
<path fill="none" stroke="midnightblue" d="M210.59,-192.91C177.84,-149.18 107.09,-54.68 85.13,-25.36"/>
<polygon fill="midnightblue" stroke="midnightblue" points="207.99,-195.28 216.78,-201.19 213.59,-191.09 207.99,-195.28"/>
</g>
<!-- Node3 -->
<g id="node3" class="node">
<title>Node3</title>
<g id="a_node3"><a xlink:href="led__blinker_8cpp.html" target="_top" xlink:title=" ">
<polygon fill="white" stroke="black" points="175.5,-0.5 175.5,-30.5 279.5,-30.5 279.5,-0.5 175.5,-0.5"/>
<text text-anchor="start" x="183.5" y="-18.5" font-family="Helvetica,sans-Serif" font-size="10.00">src/sensesp/system</text>
<text text-anchor="middle" x="227.5" y="-7.5" font-family="Helvetica,sans-Serif" font-size="10.00">/led_blinker.cpp</text>
</a>
</g>
</g>
<!-- Node1&#45;&gt;Node3 -->
<g id="edge2" class="edge">
<title>Node1&#45;&gt;Node3</title>
<path fill="none" stroke="midnightblue" d="M227.5,-191C227.5,-148.93 227.5,-64.26 227.5,-30.68"/>
<polygon fill="midnightblue" stroke="midnightblue" points="224,-191.19 227.5,-201.19 231,-191.19 224,-191.19"/>
</g>
<!-- Node4 -->
<g id="node4" class="node">
<title>Node4</title>
<g id="a_node4"><a xlink:href="system__status__led_8h.html" target="_top" xlink:title=" ">
<polygon fill="white" stroke="black" points="638.5,-134.5 638.5,-164.5 748.5,-164.5 748.5,-134.5 638.5,-134.5"/>
<text text-anchor="start" x="646.5" y="-152.5" font-family="Helvetica,sans-Serif" font-size="10.00">src/sensesp/system</text>
<text text-anchor="middle" x="693.5" y="-141.5" font-family="Helvetica,sans-Serif" font-size="10.00">/system_status_led.h</text>
</a>
</g>
</g>
<!-- Node1&#45;&gt;Node4 -->
<g id="edge3" class="edge">
<title>Node1&#45;&gt;Node4</title>
<path fill="none" stroke="midnightblue" d="M289.56,-206.84C381.17,-194.07 551.13,-170.36 638.5,-158.17"/>
<polygon fill="midnightblue" stroke="midnightblue" points="289.02,-203.38 279.6,-208.23 289.99,-210.32 289.02,-203.38"/>
</g>
<!-- Node5 -->
<g id="node5" class="node">
<title>Node5</title>
<g id="a_node5"><a xlink:href="system__status__led_8cpp.html" target="_top" xlink:title=" ">
<polygon fill="white" stroke="black" points="698,-67.5 698,-97.5 819,-97.5 819,-67.5 698,-67.5"/>
<text text-anchor="start" x="706" y="-85.5" font-family="Helvetica,sans-Serif" font-size="10.00">src/sensesp/system</text>
<text text-anchor="middle" x="758.5" y="-74.5" font-family="Helvetica,sans-Serif" font-size="10.00">/system_status_led.cpp</text>
</a>
</g>
</g>
<!-- Node4&#45;&gt;Node5 -->
<g id="edge4" class="edge">
<title>Node4&#45;&gt;Node5</title>
<path fill="none" stroke="midnightblue" d="M714.69,-127.31C724.44,-117.56 735.74,-106.26 744.42,-97.58"/>
<polygon fill="midnightblue" stroke="midnightblue" points="712.2,-124.85 707.6,-134.4 717.15,-129.8 712.2,-124.85"/>
</g>
<!-- Node6 -->
<g id="node6" class="node">
<title>Node6</title>
<g id="a_node6"><a xlink:href="sensesp__app_8cpp.html" target="_top" xlink:title=" ">
<polygon fill="white" stroke="black" points="1169,-6 1169,-25 1280,-25 1280,-6 1169,-6"/>
<text text-anchor="middle" x="1224.5" y="-13" font-family="Helvetica,sans-Serif" font-size="10.00">src/sensesp_app.cpp</text>
</a>
</g>
</g>
<!-- Node4&#45;&gt;Node6 -->
<g id="edge5" class="edge">
<title>Node4&#45;&gt;Node6</title>
<path fill="none" stroke="midnightblue" d="M758.79,-132.27C872.43,-104.02 1102.8,-46.75 1190,-25.08"/>
<polygon fill="midnightblue" stroke="midnightblue" points="757.68,-128.94 748.82,-134.75 759.37,-135.73 757.68,-128.94"/>
</g>
<!-- Node7 -->
<g id="node7" class="node">
<title>Node7</title>
<g id="a_node7"><a xlink:href="sensesp__app_8h.html" target="_top" xlink:title=" ">
<polygon fill="white" stroke="black" points="579.5,-73 579.5,-92 679.5,-92 679.5,-73 579.5,-73"/>
<text text-anchor="middle" x="629.5" y="-80" font-family="Helvetica,sans-Serif" font-size="10.00">src/sensesp_app.h</text>
</a>
</g>
</g>
<!-- Node4&#45;&gt;Node7 -->
<g id="edge6" class="edge">
<title>Node4&#45;&gt;Node7</title>
<path fill="none" stroke="midnightblue" d="M672.33,-127C660.65,-115.13 646.78,-101.05 638.06,-92.19"/>
<polygon fill="midnightblue" stroke="midnightblue" points="670.1,-129.73 679.61,-134.4 675.09,-124.81 670.1,-129.73"/>
</g>
<!-- Node7&#45;&gt;Node2 -->
<g id="edge9" class="edge">
<title>Node7&#45;&gt;Node2</title>
<path fill="none" stroke="midnightblue" d="M569.26,-75.99C480.79,-67.66 310.6,-50.72 166.5,-31 153.77,-29.26 140.04,-27.12 127.3,-25.03"/>
<polygon fill="midnightblue" stroke="midnightblue" points="569.09,-79.49 579.37,-76.94 569.75,-72.52 569.09,-79.49"/>
</g>
<!-- Node7&#45;&gt;Node3 -->
<g id="edge13" class="edge">
<title>Node7&#45;&gt;Node3</title>
<path fill="none" stroke="midnightblue" d="M569.14,-74.16C500.77,-65.48 386.18,-49.81 288.5,-31 285.61,-30.44 282.66,-29.84 279.68,-29.22"/>
<polygon fill="midnightblue" stroke="midnightblue" points="568.93,-77.66 579.29,-75.44 569.81,-70.72 568.93,-77.66"/>
</g>
<!-- Node7&#45;&gt;Node6 -->
<g id="edge14" class="edge">
<title>Node7&#45;&gt;Node6</title>
<path fill="none" stroke="midnightblue" d="M670.51,-70.67C676.83,-69.26 683.32,-67.98 689.5,-67 896.43,-34.29 952.29,-61.89 1159.5,-31 1169.68,-29.48 1180.64,-27.27 1190.6,-25.02"/>
<polygon fill="midnightblue" stroke="midnightblue" points="669.7,-67.26 660.76,-72.94 671.29,-74.08 669.7,-67.26"/>
</g>
<!-- Node8 -->
<g id="node8" class="node">
<title>Node8</title>
<g id="a_node8"><a xlink:href="debug__output_8cpp.html" target="_top" xlink:title=" ">
<polygon fill="white" stroke="black" points="865,-0.5 865,-30.5 982,-30.5 982,-0.5 865,-0.5"/>
<text text-anchor="start" x="873" y="-18.5" font-family="Helvetica,sans-Serif" font-size="10.00">src/sensesp/net/debug</text>
<text text-anchor="middle" x="923.5" y="-7.5" font-family="Helvetica,sans-Serif" font-size="10.00">_output.cpp</text>
</a>
</g>
</g>
<!-- Node7&#45;&gt;Node8 -->
<g id="edge7" class="edge">
<title>Node7&#45;&gt;Node8</title>
<path fill="none" stroke="midnightblue" d="M673.99,-70.62C679.21,-69.38 684.47,-68.15 689.5,-67 763.52,-50.08 782.28,-47.03 856.5,-31 859.18,-30.42 861.91,-29.83 864.67,-29.23"/>
<polygon fill="midnightblue" stroke="midnightblue" points="672.96,-67.27 664.05,-73 674.59,-74.07 672.96,-67.27"/>
</g>
<!-- Node9 -->
<g id="node9" class="node">
<title>Node9</title>
<g id="a_node9"><a xlink:href="discovery_8cpp.html" target="_top" xlink:title=" ">
<polygon fill="white" stroke="black" points="1000.5,-6 1000.5,-25 1150.5,-25 1150.5,-6 1000.5,-6"/>
<text text-anchor="middle" x="1075.5" y="-13" font-family="Helvetica,sans-Serif" font-size="10.00">src/sensesp/net/discovery.cpp</text>
</a>
</g>
</g>
<!-- Node7&#45;&gt;Node9 -->
<g id="edge8" class="edge">
<title>Node7&#45;&gt;Node9</title>
<path fill="none" stroke="midnightblue" d="M671.62,-70.66C677.6,-69.31 683.69,-68.04 689.5,-67 822.54,-43.08 857.74,-50.5 991.5,-31 1003.51,-29.25 1016.44,-27.13 1028.48,-25.06"/>
<polygon fill="midnightblue" stroke="midnightblue" points="670.68,-67.28 661.74,-72.97 672.27,-74.1 670.68,-67.28"/>
</g>
<!-- Node10 -->
<g id="node10" class="node">
<title>Node10</title>
<g id="a_node10"><a xlink:href="ws__client_8cpp.html" target="_top" xlink:title=" ">
<polygon fill="white" stroke="black" points="297.5,-0.5 297.5,-30.5 399.5,-30.5 399.5,-0.5 297.5,-0.5"/>
<text text-anchor="start" x="305.5" y="-18.5" font-family="Helvetica,sans-Serif" font-size="10.00">src/sensesp/net/ws</text>
<text text-anchor="middle" x="348.5" y="-7.5" font-family="Helvetica,sans-Serif" font-size="10.00">_client.cpp</text>
</a>
</g>
</g>
<!-- Node7&#45;&gt;Node10 -->
<g id="edge10" class="edge">
<title>Node7&#45;&gt;Node10</title>
<path fill="none" stroke="midnightblue" d="M581.52,-70.72C536.72,-60.61 468.04,-45 408.5,-31 405.58,-30.31 402.58,-29.6 399.55,-28.88"/>
<polygon fill="midnightblue" stroke="midnightblue" points="581.01,-74.19 591.53,-72.98 582.55,-67.36 581.01,-74.19"/>
</g>
<!-- Node11 -->
<g id="node11" class="node">
<title>Node11</title>
<g id="a_node11"><a xlink:href="signalk__delta__queue_8cpp.html" target="_top" xlink:title=" ">
<polygon fill="white" stroke="black" points="417.5,-0.5 417.5,-30.5 547.5,-30.5 547.5,-0.5 417.5,-0.5"/>
<text text-anchor="start" x="425.5" y="-18.5" font-family="Helvetica,sans-Serif" font-size="10.00">src/sensesp/signalk</text>
<text text-anchor="middle" x="482.5" y="-7.5" font-family="Helvetica,sans-Serif" font-size="10.00">/signalk_delta_queue.cpp</text>
</a>
</g>
</g>
<!-- Node7&#45;&gt;Node11 -->
<g id="edge11" class="edge">
<title>Node7&#45;&gt;Node11</title>
<path fill="none" stroke="midnightblue" d="M600.7,-68.77C575.82,-57.77 539.92,-41.89 514.23,-30.53"/>
<polygon fill="midnightblue" stroke="midnightblue" points="599.42,-72.03 609.98,-72.87 602.25,-65.62 599.42,-72.03"/>
</g>
<!-- Node12 -->
<g id="node12" class="node">
<title>Node12</title>
<g id="a_node12"><a xlink:href="signalk__put__request_8cpp.html" target="_top" xlink:title=" ">
<polygon fill="white" stroke="black" points="565.5,-0.5 565.5,-30.5 693.5,-30.5 693.5,-0.5 565.5,-0.5"/>
<text text-anchor="start" x="573.5" y="-18.5" font-family="Helvetica,sans-Serif" font-size="10.00">src/sensesp/signalk</text>
<text text-anchor="middle" x="629.5" y="-7.5" font-family="Helvetica,sans-Serif" font-size="10.00">/signalk_put_request.cpp</text>
</a>
</g>
</g>
<!-- Node7&#45;&gt;Node12 -->
<g id="edge12" class="edge">
<title>Node7&#45;&gt;Node12</title>
<path fill="none" stroke="midnightblue" d="M629.5,-62.41C629.5,-52.22 629.5,-39.9 629.5,-30.59"/>
<polygon fill="midnightblue" stroke="midnightblue" points="626,-62.73 629.5,-72.73 633,-62.73 626,-62.73"/>
</g>
<!-- Node13 -->
<g id="node13" class="node">
<title>Node13</title>
<g id="a_node13"><a xlink:href="sensesp__app__builder_8h.html" target="_top" xlink:title=" ">
<polygon fill="white" stroke="black" points="712,-6 712,-25 847,-25 847,-6 712,-6"/>
<text text-anchor="middle" x="779.5" y="-13" font-family="Helvetica,sans-Serif" font-size="10.00">src/sensesp_app_builder.h</text>
</a>
</g>
</g>
<!-- Node7&#45;&gt;Node13 -->
<g id="edge15" class="edge">
<title>Node7&#45;&gt;Node13</title>
<path fill="none" stroke="midnightblue" d="M658.85,-68.78C688.56,-55.91 733.68,-36.35 759.5,-25.17"/>
<polygon fill="midnightblue" stroke="midnightblue" points="657.2,-65.68 649.42,-72.87 659.99,-72.1 657.2,-65.68"/>
</g>
</g>
</svg>
