<?xml version="1.0" encoding="UTF-8" standalone="no"?>
<!DOCTYPE svg PUBLIC "-//W3C//DTD SVG 1.1//EN"
 "http://www.w3.org/Graphics/SVG/1.1/DTD/svg11.dtd">
<!-- Generated by graphviz version 12.1.0 (20240811.2233)
 -->
<!-- Title: src/sensesp/system/led_blinker.h Pages: 1 -->
<!--zoomable 293 -->

<svg id="main" version="1.1" xmlns="http://www.w3.org/2000/svg" xmlns:xlink="http://www.w3.org/1999/xlink" xml:space="preserve" onload="init(evt)">

<style type="text/css"><![CDATA[
.node, .edge {opacity: 0.7;}
.node.selected, .edge.selected {opacity: 1;}
.edge:hover path { stroke: red; }
.edge:hover polygon { stroke: red; fill: red; }
]]></style>

<defs>
  <circle id="rim" cx="0" cy="0" r="7"/>
  <circle id="rim2" cx="0" cy="0" r="3.5"/>
  <g id="zoomPlus">
    <use xlink:href="#rim" fill="#404040"><set attributeName="fill" to="#808080" begin="zoomplus.mouseover" end="zoomplus.mouseout"/></use>
    <path d="M-4,0h8M0,-4v8" fill="none" stroke="white" stroke-width="1.5" pointer-events="none"/>
  </g>
  <g id="zoomMin">
    <use xlink:href="#rim" fill="#404040"><set attributeName="fill" to="#808080" begin="zoomminus.mouseover" end="zoomminus.mouseout"/></use>
    <path d="M-4,0h8" fill="none" stroke="white" stroke-width="1.5" pointer-events="none"/>
  </g>
  <g id="arrowUp" transform="translate(30 24)">
    <use xlink:href="#rim"/>
    <path pointer-events="none" fill="none" stroke="white" stroke-width="1.5" d="M0,-3.0v7 M-2.5,-0.5L0,-3.0L2.5,-0.5"/>
  </g>
  <g id="arrowRight" transform="rotate(90) translate(36 -43)">
    <use xlink:href="#rim"/>
    <path pointer-events="none" fill="none" stroke="white" stroke-width="1.5" d="M0,-3.0v7 M-2.5,-0.5L0,-3.0L2.5,-0.5"/>
  </g>
  <g id="arrowDown" transform="rotate(180) translate(-30 -48)">
    <use xlink:href="#rim"/>
    <path pointer-events="none" fill="none" stroke="white" stroke-width="1.5" d="M0,-3.0v7 M-2.5,-0.5L0,-3.0L2.5,-0.5"/>
  </g>
  <g id="arrowLeft" transform="rotate(270) translate(-36 17)">
    <use xlink:href="#rim"/>
    <path pointer-events="none" fill="none" stroke="white" stroke-width="1.5" d="M0,-3.0v7 M-2.5,-0.5L0,-3.0L2.5,-0.5"/>
  </g>
  <g id="resetDef">
    <use xlink:href="#rim2" fill="#404040"><set attributeName="fill" to="#808080" begin="reset.mouseover" end="reset.mouseout"/></use>
  </g>
</defs>
<script type="application/ecmascript">
var viewWidth = 1301;
var viewHeight = 293;
var sectionId = 'dynsection-1';
</script>
<script type="application/ecmascript" xlink:href="svg.min.js"/>
<svg id="graph" class="graph">
<g id="viewport">
<title>src/sensesp/system/led_blinker.h</title>
<!-- Node1 -->
<g id="Node000001" class="node">
<title>Node1</title>
<g id="a_Node000001"><a xlink:title=" ">
<polygon fill="#999999" stroke="#666666" points="277.62,-285.25 173.12,-285.25 173.12,-254.75 277.62,-254.75 277.62,-285.25"/>
<text text-anchor="start" x="181.12" y="-271.75" font-family="Helvetica,sans-Serif" font-size="10.00">src/sensesp/system</text>
<text text-anchor="middle" x="225.38" y="-260.5" font-family="Helvetica,sans-Serif" font-size="10.00">/led_blinker.h</text>
</a>
</g>
</g>
<!-- Node2 -->
<g id="Node000002" class="node">
<title>Node2</title>
<g id="a_Node000002"><a xlink:href="networking_8cpp.html" target="_top" xlink:title=" ">
<polygon fill="white" stroke="#666666" points="154.75,-80.12 0,-80.12 0,-60.88 154.75,-60.88 154.75,-80.12"/>
<text text-anchor="middle" x="77.38" y="-66.62" font-family="Helvetica,sans-Serif" font-size="10.00">src/sensesp/net/networking.cpp</text>
</a>
</g>
</g>
<!-- Node1&#45;&gt;Node2 -->
<g id="edge1_Node000001_Node000002" class="edge">
<title>Node1&#45;&gt;Node2</title>
<g id="a_edge1_Node000001_Node000002"><a xlink:title=" ">
<path fill="none" stroke="#63b8ff" d="M207.68,-245.39C174.77,-201.47 105.51,-109.05 83.94,-80.25"/>
<polygon fill="#63b8ff" stroke="#63b8ff" points="204.79,-247.36 213.58,-253.27 210.39,-243.16 204.79,-247.36"/>
</a>
</g>
</g>
<!-- Node3 -->
<g id="Node000003" class="node">
<title>Node3</title>
<g id="a_Node000003"><a xlink:href="led__blinker_8cpp.html" target="_top" xlink:title=" ">
<polygon fill="white" stroke="#666666" points="277.62,-85.75 173.12,-85.75 173.12,-55.25 277.62,-55.25 277.62,-85.75"/>
<text text-anchor="start" x="181.12" y="-72.25" font-family="Helvetica,sans-Serif" font-size="10.00">src/sensesp/system</text>
<text text-anchor="middle" x="225.38" y="-61" font-family="Helvetica,sans-Serif" font-size="10.00">/led_blinker.cpp</text>
</a>
</g>
</g>
<!-- Node1&#45;&gt;Node3 -->
<g id="edge2_Node000001_Node000003" class="edge">
<title>Node1&#45;&gt;Node3</title>
<g id="a_edge2_Node000001_Node000003"><a xlink:title=" ">
<path fill="none" stroke="#63b8ff" d="M225.38,-243.02C225.38,-200.94 225.38,-119.24 225.38,-86.04"/>
<polygon fill="#63b8ff" stroke="#63b8ff" points="221.88,-242.96 225.38,-252.96 228.88,-242.96 221.88,-242.96"/>
</a>
</g>
</g>
<!-- Node4 -->
<g id="Node000004" class="node">
<title>Node4</title>
<g id="a_Node000004"><a xlink:href="system__status__led_8h.html" target="_top" xlink:title=" ">
<polygon fill="white" stroke="#666666" points="611.25,-218.75 501.5,-218.75 501.5,-188.25 611.25,-188.25 611.25,-218.75"/>
<text text-anchor="start" x="509.5" y="-205.25" font-family="Helvetica,sans-Serif" font-size="10.00">src/sensesp/system</text>
<text text-anchor="middle" x="556.38" y="-194" font-family="Helvetica,sans-Serif" font-size="10.00">/system_status_led.h</text>
</a>
</g>
</g>
<!-- Node1&#45;&gt;Node4 -->
<g id="edge3_Node000001_Node000004" class="edge">
<title>Node1&#45;&gt;Node4</title>
<g id="a_edge3_Node000001_Node000004"><a xlink:title=" ">
<path fill="none" stroke="#63b8ff" d="M288.93,-256.62C350.41,-244.64 442.64,-226.66 501.14,-215.26"/>
<polygon fill="#63b8ff" stroke="#63b8ff" points="288.45,-253.14 279.31,-258.49 289.79,-260.01 288.45,-253.14"/>
</a>
</g>
</g>
<!-- Node5 -->
<g id="Node000005" class="node">
<title>Node5</title>
<g id="a_Node000005"><a xlink:href="system__status__led_8cpp.html" target="_top" xlink:title=" ">
<polygon fill="white" stroke="#666666" points="743.5,-152.25 623.25,-152.25 623.25,-121.75 743.5,-121.75 743.5,-152.25"/>
<text text-anchor="start" x="631.25" y="-138.75" font-family="Helvetica,sans-Serif" font-size="10.00">src/sensesp/system</text>
<text text-anchor="middle" x="683.38" y="-127.5" font-family="Helvetica,sans-Serif" font-size="10.00">/system_status_led.cpp</text>
</a>
</g>
</g>
<!-- Node4&#45;&gt;Node5 -->
<g id="edge4_Node000004_Node000005" class="edge">
<title>Node4&#45;&gt;Node5</title>
<g id="a_edge4_Node000004_Node000005"><a xlink:title=" ">
<path fill="none" stroke="#63b8ff" d="M595.4,-182.68C614.53,-172.96 637.16,-161.47 654.67,-152.58"/>
<polygon fill="#63b8ff" stroke="#63b8ff" points="593.87,-179.53 586.54,-187.18 597.04,-185.77 593.87,-179.53"/>
</a>
</g>
</g>
<!-- Node6 -->
<g id="Node000006" class="node">
<title>Node6</title>
<g id="a_Node000006"><a xlink:href="sensesp__app_8h.html" target="_top" xlink:title=" ">
<polygon fill="white" stroke="#666666" points="605.62,-146.62 507.12,-146.62 507.12,-127.38 605.62,-127.38 605.62,-146.62"/>
<text text-anchor="middle" x="556.38" y="-133.12" font-family="Helvetica,sans-Serif" font-size="10.00">src/sensesp_app.h</text>
</a>
</g>
</g>
<!-- Node4&#45;&gt;Node6 -->
<g id="edge5_Node000004_Node000006" class="edge">
<title>Node4&#45;&gt;Node6</title>
<g id="a_edge5_Node000004_Node000006"><a xlink:title=" ">
<path fill="none" stroke="#63b8ff" d="M556.38,-176.59C556.38,-166.01 556.38,-154.5 556.38,-146.82"/>
<polygon fill="#63b8ff" stroke="#63b8ff" points="552.88,-176.35 556.38,-186.35 559.88,-176.35 552.88,-176.35"/>
</a>
</g>
</g>
<!-- Node6&#45;&gt;Node2 -->
<g id="edge7_Node000006_Node000002" class="edge">
<title>Node6&#45;&gt;Node2</title>
<g id="a_edge7_Node000006_Node000002"><a xlink:title=" ">
<path fill="none" stroke="#63b8ff" d="M495.39,-128.85C418.22,-119.65 281.26,-102.81 164.38,-85.75 153.62,-84.18 142.14,-82.39 131.16,-80.61"/>
<polygon fill="#63b8ff" stroke="#63b8ff" points="494.95,-132.32 505.29,-130.03 495.77,-125.37 494.95,-132.32"/>
</a>
</g>
</g>
<!-- Node6&#45;&gt;Node3 -->
<g id="edge13_Node000006_Node000003" class="edge">
<title>Node6&#45;&gt;Node3</title>
<g id="a_edge13_Node000006_Node000003"><a xlink:title=" ">
<path fill="none" stroke="#63b8ff" d="M495.45,-125.36C440.84,-115.64 358.59,-100.58 287.38,-85.75 284.35,-85.12 281.24,-84.46 278.11,-83.78"/>
<polygon fill="#63b8ff" stroke="#63b8ff" points="494.73,-128.78 505.19,-127.08 495.95,-121.89 494.73,-128.78"/>
</a>
</g>
</g>
<!-- Node7 -->
<g id="Node000007" class="node">
<title>Node7</title>
<g id="a_Node000007"><a xlink:href="main_8cpp.html" target="_top" xlink:title=" ">
<polygon fill="white" stroke="#666666" points="639.5,-19.25 567.25,-19.25 567.25,0 639.5,0 639.5,-19.25"/>
<text text-anchor="middle" x="603.38" y="-5.75" font-family="Helvetica,sans-Serif" font-size="10.00">src/main.cpp</text>
</a>
</g>
</g>
<!-- Node6&#45;&gt;Node7 -->
<g id="edge6_Node000006_Node000007" class="edge">
<title>Node6&#45;&gt;Node7</title>
<g id="a_edge6_Node000006_Node000007"><a xlink:title=" ">
<path fill="none" stroke="#63b8ff" d="M559.18,-116.12C561.97,-99.42 567.06,-75.16 575.38,-55.25 580.88,-42.08 590.07,-28.39 596.41,-19.71"/>
<polygon fill="#63b8ff" stroke="#63b8ff" points="555.76,-115.31 557.7,-125.73 562.68,-116.37 555.76,-115.31"/>
</a>
</g>
</g>
<!-- Node8 -->
<g id="Node000008" class="node">
<title>Node8</title>
<g id="a_Node000008"><a xlink:href="app__command__handler_8cpp.html" target="_top" xlink:title=" ">
<polygon fill="white" stroke="#666666" points="872.12,-85.75 734.62,-85.75 734.62,-55.25 872.12,-55.25 872.12,-85.75"/>
<text text-anchor="start" x="742.62" y="-72.25" font-family="Helvetica,sans-Serif" font-size="10.00">src/sensesp/net/web</text>
<text text-anchor="middle" x="803.38" y="-61" font-family="Helvetica,sans-Serif" font-size="10.00">/app_command_handler.cpp</text>
</a>
</g>
</g>
<!-- Node6&#45;&gt;Node8 -->
<g id="edge8_Node000006_Node000008" class="edge">
<title>Node6&#45;&gt;Node8</title>
<g id="a_edge8_Node000006_Node000008"><a xlink:title=" ">
<path fill="none" stroke="#63b8ff" d="M602.26,-124.02C643.26,-113.31 703.44,-97.6 747.28,-86.15"/>
<polygon fill="#63b8ff" stroke="#63b8ff" points="601.5,-120.6 592.7,-126.51 603.26,-127.37 601.5,-120.6"/>
</a>
</g>
</g>
<!-- Node9 -->
<g id="Node000009" class="node">
<title>Node9</title>
<g id="a_Node000009"><a xlink:href="signalk__delta__queue_8cpp.html" target="_top" xlink:title=" ">
<polygon fill="white" stroke="#666666" points="1016.5,-85.75 890.25,-85.75 890.25,-55.25 1016.5,-55.25 1016.5,-85.75"/>
<text text-anchor="start" x="898.25" y="-72.25" font-family="Helvetica,sans-Serif" font-size="10.00">src/sensesp/signalk</text>
<text text-anchor="middle" x="953.38" y="-61" font-family="Helvetica,sans-Serif" font-size="10.00">/signalk_delta_queue.cpp</text>
</a>
</g>
</g>
<!-- Node6&#45;&gt;Node9 -->
<g id="edge9_Node000006_Node000009" class="edge">
<title>Node6&#45;&gt;Node9</title>
<g id="a_edge9_Node000006_Node000009"><a xlink:title=" ">
<path fill="none" stroke="#63b8ff" d="M601.92,-124.32C606.12,-123.4 610.32,-122.52 614.38,-121.75 732.02,-99.43 763.26,-105.38 881.38,-85.75 884.14,-85.29 886.96,-84.8 889.81,-84.3"/>
<polygon fill="#63b8ff" stroke="#63b8ff" points="601.33,-120.87 592.37,-126.53 602.91,-127.69 601.33,-120.87"/>
</a>
</g>
</g>
<!-- Node10 -->
<g id="Node000010" class="node">
<title>Node10</title>
<g id="a_Node000010"><a xlink:href="signalk__put__request_8cpp.html" target="_top" xlink:title=" ">
<polygon fill="white" stroke="#666666" points="1159.75,-85.75 1035,-85.75 1035,-55.25 1159.75,-55.25 1159.75,-85.75"/>
<text text-anchor="start" x="1043" y="-72.25" font-family="Helvetica,sans-Serif" font-size="10.00">src/sensesp/signalk</text>
<text text-anchor="middle" x="1097.38" y="-61" font-family="Helvetica,sans-Serif" font-size="10.00">/signalk_put_request.cpp</text>
</a>
</g>
</g>
<!-- Node6&#45;&gt;Node10 -->
<g id="edge10_Node000006_Node000010" class="edge">
<title>Node6&#45;&gt;Node10</title>
<g id="a_edge10_Node000006_Node000010"><a xlink:title=" ">
<path fill="none" stroke="#63b8ff" d="M600.82,-124.35C605.38,-123.37 609.96,-122.48 614.38,-121.75 795.28,-91.79 843.84,-111.59 1025.38,-85.75 1028.4,-85.32 1031.5,-84.84 1034.61,-84.34"/>
<polygon fill="#63b8ff" stroke="#63b8ff" points="600.07,-120.93 591.1,-126.57 601.63,-127.75 600.07,-120.93"/>
</a>
</g>
</g>
<!-- Node11 -->
<g id="Node000011" class="node">
<title>Node11</title>
<g id="a_Node000011"><a xlink:href="signalk__ws__client_8cpp.html" target="_top" xlink:title=" ">
<polygon fill="white" stroke="#666666" points="1292.88,-85.75 1177.88,-85.75 1177.88,-55.25 1292.88,-55.25 1292.88,-85.75"/>
<text text-anchor="start" x="1185.88" y="-72.25" font-family="Helvetica,sans-Serif" font-size="10.00">src/sensesp/signalk</text>
<text text-anchor="middle" x="1235.38" y="-61" font-family="Helvetica,sans-Serif" font-size="10.00">/signalk_ws_client.cpp</text>
</a>
</g>
</g>
<!-- Node6&#45;&gt;Node11 -->
<g id="edge11_Node000006_Node000011" class="edge">
<title>Node6&#45;&gt;Node11</title>
<g id="a_edge11_Node000006_Node000011"><a xlink:title=" ">
<path fill="none" stroke="#63b8ff" d="M600.05,-124.4C604.86,-123.38 609.71,-122.47 614.38,-121.75 858.24,-84.17 923.95,-119.5 1168.38,-85.75 1171.44,-85.33 1174.57,-84.84 1177.72,-84.31"/>
<polygon fill="#63b8ff" stroke="#63b8ff" points="599.44,-120.95 590.47,-126.58 601,-127.78 599.44,-120.95"/>
</a>
</g>
</g>
<!-- Node12 -->
<g id="Node000012" class="node">
<title>Node12</title>
<g id="a_Node000012"><a xlink:href="button_8cpp.html" target="_top" xlink:title=" ">
<polygon fill="white" stroke="#666666" points="400.62,-85.75 296.12,-85.75 296.12,-55.25 400.62,-55.25 400.62,-85.75"/>
<text text-anchor="start" x="304.12" y="-72.25" font-family="Helvetica,sans-Serif" font-size="10.00">src/sensesp/system</text>
<text text-anchor="middle" x="348.38" y="-61" font-family="Helvetica,sans-Serif" font-size="10.00">/button.cpp</text>
</a>
</g>
</g>
<!-- Node6&#45;&gt;Node12 -->
<g id="edge12_Node000006_Node000012" class="edge">
<title>Node6&#45;&gt;Node12</title>
<g id="a_edge12_Node000006_Node000012"><a xlink:title=" ">
<path fill="none" stroke="#63b8ff" d="M516.4,-123.6C481.91,-112.91 432.06,-97.45 395.62,-86.15"/>
<polygon fill="#63b8ff" stroke="#63b8ff" points="514.98,-126.83 525.57,-126.45 517.05,-120.14 514.98,-126.83"/>
</a>
</g>
</g>
<!-- Node13 -->
<g id="Node000013" class="node">
<title>Node13</title>
<g id="a_Node000013"><a xlink:href="sensesp__app_8cpp.html" target="_top" xlink:title=" ">
<polygon fill="white" stroke="#666666" points="527.88,-80.12 418.88,-80.12 418.88,-60.88 527.88,-60.88 527.88,-80.12"/>
<text text-anchor="middle" x="473.38" y="-66.62" font-family="Helvetica,sans-Serif" font-size="10.00">src/sensesp_app.cpp</text>
</a>
</g>
</g>
<!-- Node6&#45;&gt;Node13 -->
<g id="edge14_Node000006_Node000013" class="edge">
<title>Node6&#45;&gt;Node13</title>
<g id="a_edge14_Node000006_Node000013"><a xlink:title=" ">
<path fill="none" stroke="#63b8ff" d="M536.18,-120.31C520.17,-107.86 498.34,-90.9 485.09,-80.6"/>
<polygon fill="#63b8ff" stroke="#63b8ff" points="533.6,-122.73 543.64,-126.1 537.89,-117.2 533.6,-122.73"/>
</a>
</g>
</g>
<!-- Node14 -->
<g id="Node000014" class="node">
<title>Node14</title>
<g id="a_Node000014"><a xlink:href="sensesp__app__builder_8h.html" target="_top" xlink:title=" ">
<polygon fill="white" stroke="#666666" points="716.12,-80.12 584.62,-80.12 584.62,-60.88 716.12,-60.88 716.12,-80.12"/>
<text text-anchor="middle" x="650.38" y="-66.62" font-family="Helvetica,sans-Serif" font-size="10.00">src/sensesp_app_builder.h</text>
</a>
</g>
</g>
<!-- Node6&#45;&gt;Node14 -->
<g id="edge15_Node000006_Node000014" class="edge">
<title>Node6&#45;&gt;Node14</title>
<g id="a_edge15_Node000006_Node000014"><a xlink:title=" ">
<path fill="none" stroke="#63b8ff" d="M578.73,-120.66C596.92,-108.18 621.96,-91 637.11,-80.6"/>
<polygon fill="#63b8ff" stroke="#63b8ff" points="576.96,-117.63 570.69,-126.18 580.92,-123.4 576.96,-117.63"/>
</a>
</g>
</g>
<!-- Node14&#45;&gt;Node7 -->
<g id="edge16_Node000014_Node000007" class="edge">
<title>Node14&#45;&gt;Node7</title>
<g id="a_edge16_Node000014_Node000007"><a xlink:title=" ">
<path fill="none" stroke="#63b8ff" d="M636.17,-51.71C627.73,-41.13 617.37,-28.15 610.58,-19.65"/>
<polygon fill="#63b8ff" stroke="#63b8ff" points="633.32,-53.74 642.29,-59.38 638.79,-49.38 633.32,-53.74"/>
</a>
</g>
</g>
</g>
</svg>

<g id="navigator" transform="translate(0 0)" fill="#404254">
  <rect fill="#f2f5e9" fill-opacity="0.5" stroke="#606060" stroke-width=".5" x="0" y="0" width="60" height="60"/>
  <use id="zoomplus" xlink:href="#zoomPlus" x="17" y="9" onmousedown="handleZoom(evt,'in')"/>
  <use id="zoomminus" xlink:href="#zoomMin" x="42" y="9" onmousedown="handleZoom(evt,'out')"/>
  <use id="reset" xlink:href="#resetDef" x="30" y="36" onmousedown="handleReset()"/>
   <use id="arrowup" xlink:href="#arrowUp" x="0" y="0" onmousedown="handlePan(0,-1)"/>
  <use id="arrowright" xlink:href="#arrowRight" x="0" y="0" onmousedown="handlePan(1,0)"/>
  <use id="arrowdown" xlink:href="#arrowDown" x="0" y="0" onmousedown="handlePan(0,1)"/>
  <use id="arrowleft" xlink:href="#arrowLeft" x="0" y="0" onmousedown="handlePan(-1,0)"/>
</g>
<svg viewBox="0 0 15 15" width="100%" height="30px" preserveAspectRatio="xMaxYMin meet">
 <g id="arrow_out" transform="scale(0.3 0.3)">
  <a xlink:href="led__blinker_8h__dep__incl_org.svg" target="_base">
   <rect id="button" ry="5" rx="5" y="6" x="6" height="38" width="38"
        fill="#f2f5e9" fill-opacity="0.5" stroke="#606060" stroke-width="1.0"/>
   <path id="arrow"
     d="M 11.500037,31.436501 C 11.940474,20.09759 22.043105,11.32322 32.158766,21.979434 L 37.068811,17.246167 C 37.068811,17.246167 37.088388,32 37.088388,32 L 22.160133,31.978069 C 22.160133,31.978069 26.997745,27.140456 26.997745,27.140456 C 18.528582,18.264221 13.291696,25.230495 11.500037,31.436501 z"
     style="fill:#404040;"/>
  </a>
 </g>
</svg>

<style type='text/css'>
<![CDATA[
[data-mouse-over-selected='false'] { opacity: 0.7; }
[data-mouse-over-selected='true']  { opacity: 1.0; }
]]>
</style>
<script type="application/ecmascript"><![CDATA[
document.addEventListener('DOMContentLoaded', (event) => {
  highlightEdges();
  highlightAdjacentNodes();
});
]]></script>
</svg>
