<?xml version="1.0" encoding="UTF-8" standalone="no"?>
<!DOCTYPE svg PUBLIC "-//W3C//DTD SVG 1.1//EN"
 "http://www.w3.org/Graphics/SVG/1.1/DTD/svg11.dtd">
<!-- Generated by graphviz version 2.40.1 (20161225.0304)
 -->
<!-- Title: src/sensors/max31856_thermocouple.h Pages: 1 -->
<svg width="125pt" height="102pt"
 viewBox="0.00 0.00 124.60 102.00" xmlns="http://www.w3.org/2000/svg" xmlns:xlink="http://www.w3.org/1999/xlink">
<g id="graph0" class="graph" transform="scale(1 1) rotate(0) translate(4 98)">
<title>src/sensors/max31856_thermocouple.h</title>
<polygon fill="#ffffff" stroke="transparent" points="-4,4 -4,-98 120.6006,-98 120.6006,4 -4,4"/>
<!-- Node20 -->
<g id="node1" class="node">
<title>Node20</title>
<g id="a_node1"><a xlink:title=" ">
<polygon fill="#bfbfbf" stroke="#000000" points="0,-65.5 0,-93.5 116.6006,-93.5 116.6006,-65.5 0,-65.5"/>
<text text-anchor="start" x="8" y="-81.5" font-family="Helvetica,sans-Serif" font-size="10.00" fill="#000000">src/sensors/max31856</text>
<text text-anchor="middle" x="58.3003" y="-71.5" font-family="Helvetica,sans-Serif" font-size="10.00" fill="#000000">_thermocouple.h</text>
</a>
</g>
</g>
<!-- Node21 -->
<g id="node2" class="node">
<title>Node21</title>
<g id="a_node2"><a xlink:href="max31856__thermocouple_8cpp.html" target="_top" xlink:title=" ">
<polygon fill="#ffffff" stroke="#000000" points="0,-.5 0,-28.5 116.6006,-28.5 116.6006,-.5 0,-.5"/>
<text text-anchor="start" x="8" y="-16.5" font-family="Helvetica,sans-Serif" font-size="10.00" fill="#000000">src/sensors/max31856</text>
<text text-anchor="middle" x="58.3003" y="-6.5" font-family="Helvetica,sans-Serif" font-size="10.00" fill="#000000">_thermocouple.cpp</text>
</a>
</g>
</g>
<!-- Node20&#45;&gt;Node21 -->
<g id="edge1" class="edge">
<title>Node20&#45;&gt;Node21</title>
<path fill="none" stroke="#191970" d="M58.3003,-55.1081C58.3003,-46.1539 58.3003,-36.3227 58.3003,-28.5765"/>
<polygon fill="#191970" stroke="#191970" points="54.8004,-55.3959 58.3003,-65.396 61.8004,-55.396 54.8004,-55.3959"/>
</g>
</g>
</svg>
