<?xml version="1.0" encoding="UTF-8" standalone="no"?>
<!DOCTYPE svg PUBLIC "-//W3C//DTD SVG 1.1//EN"
 "http://www.w3.org/Graphics/SVG/1.1/DTD/svg11.dtd">
<!-- Generated by graphviz version 9.0.0 (20230911.1827)
 -->
<!-- Title: src/sensesp/transforms/median.h Pages: 1 -->
<!--zoomable 381 -->

<svg id="main" version="1.1" xmlns="http://www.w3.org/2000/svg" xmlns:xlink="http://www.w3.org/1999/xlink" xml:space="preserve" onload="init(evt)">
<style type="text/css"><![CDATA[
.node, .edge {opacity: 0.7;}
.node.selected, .edge.selected {opacity: 1;}
.edge:hover path { stroke: red; }
.edge:hover polygon { stroke: red; fill: red; }
]]></style>

<defs>
  <circle id="rim" cx="0" cy="0" r="7"/>
  <circle id="rim2" cx="0" cy="0" r="3.5"/>
  <g id="zoomPlus">
    <use xlink:href="#rim" fill="#404040"><set attributeName="fill" to="#808080" begin="zoomplus.mouseover" end="zoomplus.mouseout"/></use>
    <path d="M-4,0h8M0,-4v8" fill="none" stroke="white" stroke-width="1.5" pointer-events="none"/>
  </g>
  <g id="zoomMin">
    <use xlink:href="#rim" fill="#404040"><set attributeName="fill" to="#808080" begin="zoomminus.mouseover" end="zoomminus.mouseout"/></use>
    <path d="M-4,0h8" fill="none" stroke="white" stroke-width="1.5" pointer-events="none"/>
  </g>
  <g id="arrowUp" transform="translate(30 24)">
    <use xlink:href="#rim"/>
    <path pointer-events="none" fill="none" stroke="white" stroke-width="1.5" d="M0,-3.0v7 M-2.5,-0.5L0,-3.0L2.5,-0.5"/>
  </g>
  <g id="arrowRight" transform="rotate(90) translate(36 -43)">
    <use xlink:href="#rim"/>
    <path pointer-events="none" fill="none" stroke="white" stroke-width="1.5" d="M0,-3.0v7 M-2.5,-0.5L0,-3.0L2.5,-0.5"/>
  </g>
  <g id="arrowDown" transform="rotate(180) translate(-30 -48)">
    <use xlink:href="#rim"/>
    <path pointer-events="none" fill="none" stroke="white" stroke-width="1.5" d="M0,-3.0v7 M-2.5,-0.5L0,-3.0L2.5,-0.5"/>
  </g>
  <g id="arrowLeft" transform="rotate(270) translate(-36 17)">
    <use xlink:href="#rim"/>
    <path pointer-events="none" fill="none" stroke="white" stroke-width="1.5" d="M0,-3.0v7 M-2.5,-0.5L0,-3.0L2.5,-0.5"/>
  </g>
  <g id="resetDef">
    <use xlink:href="#rim2" fill="#404040"><set attributeName="fill" to="#808080" begin="reset.mouseover" end="reset.mouseout"/></use>
  </g>
</defs>
<script type="application/ecmascript">
var viewWidth = 693;
var viewHeight = 381;
var sectionId = 'dynsection-0';
</script>
<script type="application/ecmascript" xlink:href="svg.min.js"/>
<svg id="graph" class="graph">
<g id="viewport">
<title>src/sensesp/transforms/median.h</title>
<!-- Node1 -->
<g id="Node000001" class="node">
<title>Node1</title>
<g id="a_Node000001"><a xlink:title=" ">
<polygon fill="#999999" stroke="#666666" points="560,-373.25 441.25,-373.25 441.25,-342.75 560,-342.75 560,-373.25"/>
<text text-anchor="start" x="449.25" y="-359.75" font-family="Helvetica,sans-Serif" font-size="10.00">src/sensesp/transforms</text>
<text text-anchor="middle" x="500.62" y="-348.5" font-family="Helvetica,sans-Serif" font-size="10.00">/median.h</text>
</a>
</g>
</g>
<!-- Node2 -->
<g id="Node000002" class="node">
<title>Node2</title>
<g id="a_Node000002"><a xlink:title=" ">
<polygon fill="#e0e0e0" stroke="#999999" points="685.12,-141 642.12,-141 642.12,-121.75 685.12,-121.75 685.12,-141"/>
<text text-anchor="middle" x="663.62" y="-127.5" font-family="Helvetica,sans-Serif" font-size="10.00">vector</text>
</a>
</g>
</g>
<!-- Node1&#45;&gt;Node2 -->
<g id="edge1_Node000001_Node000002" class="edge">
<title>Node1&#45;&gt;Node2</title>
<g id="a_edge1_Node000001_Node000002"><a xlink:title=" ">
<path fill="none" stroke="#63b8ff" d="M528.54,-342.39C560.15,-324.62 611.43,-291.93 643.62,-251.5 665.29,-224.29 669.18,-211.75 667.62,-177 667.27,-169.04 666.56,-160.29 665.83,-152.68"/>
<polygon fill="#63b8ff" stroke="#63b8ff" points="669.31,-152.34 664.81,-142.76 662.35,-153.06 669.31,-152.34"/>
</a>
</g>
</g>
<!-- Node3 -->
<g id="Node000003" class="node">
<title>Node3</title>
<g id="a_Node000003"><a xlink:href="transform_8h.html" target="_top" xlink:title=" ">
<polygon fill="white" stroke="#666666" points="348.38,-306.75 282.88,-306.75 282.88,-287.5 348.38,-287.5 348.38,-306.75"/>
<text text-anchor="middle" x="315.62" y="-293.25" font-family="Helvetica,sans-Serif" font-size="10.00">transform.h</text>
</a>
</g>
</g>
<!-- Node1&#45;&gt;Node3 -->
<g id="edge2_Node000001_Node000003" class="edge">
<title>Node1&#45;&gt;Node3</title>
<g id="a_edge2_Node000001_Node000003"><a xlink:title=" ">
<path fill="none" stroke="#63b8ff" d="M454.42,-342.3C423.77,-332.54 383.98,-319.88 354.86,-310.61"/>
<polygon fill="#63b8ff" stroke="#63b8ff" points="356.3,-307.4 345.71,-307.7 354.18,-314.07 356.3,-307.4"/>
</a>
</g>
</g>
<!-- Node4 -->
<g id="Node000004" class="node">
<title>Node4</title>
<g id="a_Node000004"><a xlink:title=" ">
<polygon fill="#e0e0e0" stroke="#999999" points="262.75,-141 184.5,-141 184.5,-121.75 262.75,-121.75 262.75,-141"/>
<text text-anchor="middle" x="223.62" y="-127.5" font-family="Helvetica,sans-Serif" font-size="10.00">ArduinoJson.h</text>
</a>
</g>
</g>
<!-- Node3&#45;&gt;Node4 -->
<g id="edge3_Node000003_Node000004" class="edge">
<title>Node3&#45;&gt;Node4</title>
<g id="a_edge3_Node000003_Node000004"><a xlink:title=" ">
<path fill="none" stroke="#63b8ff" d="M310.68,-287.32C296.26,-261.67 254.06,-186.55 234.2,-151.19"/>
<polygon fill="#63b8ff" stroke="#63b8ff" points="237.29,-149.55 229.34,-142.54 231.18,-152.97 237.29,-149.55"/>
</a>
</g>
</g>
<!-- Node5 -->
<g id="Node000005" class="node">
<title>Node5</title>
<g id="a_Node000005"><a xlink:title=" ">
<polygon fill="#e0e0e0" stroke="#999999" points="330.38,-251.5 300.88,-251.5 300.88,-232.25 330.38,-232.25 330.38,-251.5"/>
<text text-anchor="middle" x="315.62" y="-238" font-family="Helvetica,sans-Serif" font-size="10.00">set</text>
</a>
</g>
</g>
<!-- Node3&#45;&gt;Node5 -->
<g id="edge4_Node000003_Node000005" class="edge">
<title>Node3&#45;&gt;Node5</title>
<g id="a_edge4_Node000003_Node000005"><a xlink:title=" ">
<path fill="none" stroke="#63b8ff" d="M315.62,-287.33C315.62,-280.82 315.62,-271.67 315.62,-263.37"/>
<polygon fill="#63b8ff" stroke="#63b8ff" points="319.13,-263.37 315.63,-253.37 312.13,-263.37 319.13,-263.37"/>
</a>
</g>
</g>
<!-- Node6 -->
<g id="Node000006" class="node">
<title>Node6</title>
<g id="a_Node000006"><a xlink:href="sensesp_8h.html" target="_top" xlink:title=" ">
<polygon fill="white" stroke="#666666" points="86.12,-141 25.13,-141 25.13,-121.75 86.12,-121.75 86.12,-141"/>
<text text-anchor="middle" x="55.62" y="-127.5" font-family="Helvetica,sans-Serif" font-size="10.00">sensesp.h</text>
</a>
</g>
</g>
<!-- Node3&#45;&gt;Node6 -->
<g id="edge5_Node000003_Node000006" class="edge">
<title>Node3&#45;&gt;Node6</title>
<g id="a_edge5_Node000003_Node000006"><a xlink:title=" ">
<path fill="none" stroke="#63b8ff" d="M282.57,-296.6C232.91,-295.96 137.42,-289.35 67.62,-251.5 37.98,-235.43 28.06,-227.6 15.62,-196.25 8.74,-178.89 21.97,-161.03 35.02,-148.63"/>
<polygon fill="#63b8ff" stroke="#63b8ff" points="37,-151.54 42.22,-142.32 32.39,-146.28 37,-151.54"/>
</a>
</g>
</g>
<!-- Node11 -->
<g id="Node000011" class="node">
<title>Node11</title>
<g id="a_Node000011"><a xlink:href="configurable_8h.html" target="_top" xlink:title=" ">
<polygon fill="white" stroke="#666666" points="434.5,-196.25 282.75,-196.25 282.75,-177 434.5,-177 434.5,-196.25"/>
<text text-anchor="middle" x="358.62" y="-182.75" font-family="Helvetica,sans-Serif" font-size="10.00">sensesp/system/configurable.h</text>
</a>
</g>
</g>
<!-- Node3&#45;&gt;Node11 -->
<g id="edge10_Node000003_Node000011" class="edge">
<title>Node3&#45;&gt;Node11</title>
<g id="a_edge10_Node000003_Node000011"><a xlink:title=" ">
<path fill="none" stroke="#63b8ff" d="M321.15,-287.16C326.42,-278.34 334.32,-264.35 339.62,-251.5 345.58,-237.07 350.53,-220.12 353.89,-207.3"/>
<polygon fill="#63b8ff" stroke="#63b8ff" points="357.19,-208.52 356.23,-197.97 350.4,-206.82 357.19,-208.52"/>
</a>
</g>
</g>
<!-- Node13 -->
<g id="Node000013" class="node">
<title>Node13</title>
<g id="a_Node000013"><a xlink:href="observable_8h.html" target="_top" xlink:title=" ">
<polygon fill="white" stroke="#666666" points="598.88,-196.25 452.38,-196.25 452.38,-177 598.88,-177 598.88,-196.25"/>
<text text-anchor="middle" x="525.62" y="-182.75" font-family="Helvetica,sans-Serif" font-size="10.00">sensesp/system/observable.h</text>
</a>
</g>
</g>
<!-- Node3&#45;&gt;Node13 -->
<g id="edge14_Node000003_Node000013" class="edge">
<title>Node3&#45;&gt;Node13</title>
<g id="a_edge14_Node000003_Node000013"><a xlink:title=" ">
<path fill="none" stroke="#63b8ff" d="M333.17,-287.06C369.69,-268.19 454.11,-224.57 498,-201.9"/>
<polygon fill="#63b8ff" stroke="#63b8ff" points="499.36,-205.13 506.64,-197.43 496.15,-198.92 499.36,-205.13"/>
</a>
</g>
</g>
<!-- Node16 -->
<g id="Node000016" class="node">
<title>Node16</title>
<g id="a_Node000016"><a xlink:href="startable_8h.html" target="_top" xlink:title=" ">
<polygon fill="white" stroke="#666666" points="635,-251.5 498.25,-251.5 498.25,-232.25 635,-232.25 635,-251.5"/>
<text text-anchor="middle" x="566.62" y="-238" font-family="Helvetica,sans-Serif" font-size="10.00">sensesp/system/startable.h</text>
</a>
</g>
</g>
<!-- Node3&#45;&gt;Node16 -->
<g id="edge18_Node000003_Node000016" class="edge">
<title>Node3&#45;&gt;Node16</title>
<g id="a_edge18_Node000003_Node000016"><a xlink:title=" ">
<path fill="none" stroke="#63b8ff" d="M348.7,-289.11C390.44,-280.25 462.8,-264.9 512.61,-254.33"/>
<polygon fill="#63b8ff" stroke="#63b8ff" points="513.28,-257.77 522.33,-252.27 511.82,-250.92 513.28,-257.77"/>
</a>
</g>
</g>
<!-- Node18 -->
<g id="Node000018" class="node">
<title>Node18</title>
<g id="a_Node000018"><a xlink:href="valueconsumer_8h.html" target="_top" xlink:title=" ">
<polygon fill="white" stroke="#666666" points="188.88,-196.25 24.38,-196.25 24.38,-177 188.88,-177 188.88,-196.25"/>
<text text-anchor="middle" x="106.62" y="-182.75" font-family="Helvetica,sans-Serif" font-size="10.00">sensesp/system/valueconsumer.h</text>
</a>
</g>
</g>
<!-- Node3&#45;&gt;Node18 -->
<g id="edge20_Node000003_Node000018" class="edge">
<title>Node3&#45;&gt;Node18</title>
<g id="a_edge20_Node000003_Node000018"><a xlink:title=" ">
<path fill="none" stroke="#63b8ff" d="M282.54,-295C222.99,-292.2 101.56,-282.71 75.62,-251.5 63.99,-237.5 76.09,-218.4 88.42,-204.74"/>
<polygon fill="#63b8ff" stroke="#63b8ff" points="90.77,-207.35 95.24,-197.74 85.76,-202.46 90.77,-207.35"/>
</a>
</g>
</g>
<!-- Node20 -->
<g id="Node000020" class="node">
<title>Node20</title>
<g id="a_Node000020"><a xlink:href="valueproducer_8h.html" target="_top" xlink:title=" ">
<polygon fill="white" stroke="#666666" points="244.25,-251.5 85,-251.5 85,-232.25 244.25,-232.25 244.25,-251.5"/>
<text text-anchor="middle" x="164.62" y="-238" font-family="Helvetica,sans-Serif" font-size="10.00">sensesp/system/valueproducer.h</text>
</a>
</g>
</g>
<!-- Node3&#45;&gt;Node20 -->
<g id="edge24_Node000003_Node000020" class="edge">
<title>Node3&#45;&gt;Node20</title>
<g id="a_edge24_Node000003_Node000020"><a xlink:title=" ">
<path fill="none" stroke="#63b8ff" d="M290.01,-287.09C265.61,-278.49 228.61,-265.44 201.13,-255.75"/>
<polygon fill="#63b8ff" stroke="#63b8ff" points="202.39,-252.48 191.79,-252.46 200.06,-259.08 202.39,-252.48"/>
</a>
</g>
</g>
<!-- Node7 -->
<g id="Node000007" class="node">
<title>Node7</title>
<g id="a_Node000007"><a xlink:title=" ">
<polygon fill="#e0e0e0" stroke="#999999" points="198.25,-80.12 129,-80.12 129,-60.88 198.25,-60.88 198.25,-80.12"/>
<text text-anchor="middle" x="163.62" y="-66.62" font-family="Helvetica,sans-Serif" font-size="10.00">ReactESP.h</text>
</a>
</g>
</g>
<!-- Node6&#45;&gt;Node7 -->
<g id="edge6_Node000006_Node000007" class="edge">
<title>Node6&#45;&gt;Node7</title>
<g id="a_edge6_Node000006_Node000007"><a xlink:title=" ">
<path fill="none" stroke="#63b8ff" d="M72.03,-121.43C89.31,-112.01 116.8,-97.02 137.16,-85.93"/>
<polygon fill="#63b8ff" stroke="#63b8ff" points="138.63,-89.11 145.74,-81.25 135.28,-82.96 138.63,-89.11"/>
</a>
</g>
</g>
<!-- Node8 -->
<g id="Node000008" class="node">
<title>Node8</title>
<g id="a_Node000008"><a xlink:href="local__debug_8h.html" target="_top" xlink:title=" ">
<polygon fill="white" stroke="#666666" points="111.25,-85.75 0,-85.75 0,-55.25 111.25,-55.25 111.25,-85.75"/>
<text text-anchor="start" x="8" y="-72.25" font-family="Helvetica,sans-Serif" font-size="10.00">sensesp/system/local</text>
<text text-anchor="middle" x="55.62" y="-61" font-family="Helvetica,sans-Serif" font-size="10.00">_debug.h</text>
</a>
</g>
</g>
<!-- Node6&#45;&gt;Node8 -->
<g id="edge7_Node000006_Node000008" class="edge">
<title>Node6&#45;&gt;Node8</title>
<g id="a_edge7_Node000006_Node000008"><a xlink:title=" ">
<path fill="none" stroke="#63b8ff" d="M55.62,-121.43C55.62,-114.98 55.62,-105.91 55.62,-97.26"/>
<polygon fill="#63b8ff" stroke="#63b8ff" points="59.13,-97.55 55.63,-87.55 52.13,-97.55 59.13,-97.55"/>
</a>
</g>
</g>
<!-- Node9 -->
<g id="Node000009" class="node">
<title>Node9</title>
<g id="a_Node000009"><a xlink:title=" ">
<polygon fill="#e0e0e0" stroke="#999999" points="244.25,-19.25 187,-19.25 187,0 244.25,0 244.25,-19.25"/>
<text text-anchor="middle" x="215.62" y="-5.75" font-family="Helvetica,sans-Serif" font-size="10.00">Arduino.h</text>
</a>
</g>
</g>
<!-- Node8&#45;&gt;Node9 -->
<g id="edge8_Node000008_Node000009" class="edge">
<title>Node8&#45;&gt;Node9</title>
<g id="a_edge8_Node000008_Node000009"><a xlink:title=" ">
<path fill="none" stroke="#63b8ff" d="M95.59,-54.8C121.71,-45.18 155.51,-32.75 180.58,-23.52"/>
<polygon fill="#63b8ff" stroke="#63b8ff" points="181.49,-26.91 189.67,-20.18 179.07,-20.35 181.49,-26.91"/>
</a>
</g>
</g>
<!-- Node10 -->
<g id="Node000010" class="node">
<title>Node10</title>
<g id="a_Node000010"><a xlink:title=" ">
<polygon fill="#e0e0e0" stroke="#999999" points="77.88,-19.25 33.38,-19.25 33.38,0 77.88,0 77.88,-19.25"/>
<text text-anchor="middle" x="55.62" y="-5.75" font-family="Helvetica,sans-Serif" font-size="10.00">Print.h</text>
</a>
</g>
</g>
<!-- Node8&#45;&gt;Node10 -->
<g id="edge9_Node000008_Node000010" class="edge">
<title>Node8&#45;&gt;Node10</title>
<g id="a_edge9_Node000008_Node000010"><a xlink:title=" ">
<path fill="none" stroke="#63b8ff" d="M55.62,-54.95C55.62,-47.71 55.62,-38.84 55.62,-30.94"/>
<polygon fill="#63b8ff" stroke="#63b8ff" points="59.13,-31.21 55.63,-21.21 52.13,-31.21 59.13,-31.21"/>
</a>
</g>
</g>
<!-- Node11&#45;&gt;Node4 -->
<g id="edge11_Node000011_Node000004" class="edge">
<title>Node11&#45;&gt;Node4</title>
<g id="a_edge11_Node000011_Node000004"><a xlink:title=" ">
<path fill="none" stroke="#63b8ff" d="M335.72,-176.59C314.2,-168.1 281.71,-155.29 257.25,-145.64"/>
<polygon fill="#63b8ff" stroke="#63b8ff" points="258.63,-142.42 248.05,-142.01 256.06,-148.93 258.63,-142.42"/>
</a>
</g>
</g>
<!-- Node11&#45;&gt;Node9 -->
<g id="edge13_Node000011_Node000009" class="edge">
<title>Node11&#45;&gt;Node9</title>
<g id="a_edge13_Node000011_Node000009"><a xlink:title=" ">
<path fill="none" stroke="#63b8ff" d="M351.34,-176.71C328.87,-149.21 260.38,-65.4 230.19,-28.45"/>
<polygon fill="#63b8ff" stroke="#63b8ff" points="233.07,-26.44 224.03,-20.91 227.64,-30.87 233.07,-26.44"/>
</a>
</g>
</g>
<!-- Node12 -->
<g id="Node000012" class="node">
<title>Node12</title>
<g id="a_Node000012"><a xlink:title=" ">
<polygon fill="#e0e0e0" stroke="#999999" points="376,-141 341.25,-141 341.25,-121.75 376,-121.75 376,-141"/>
<text text-anchor="middle" x="358.62" y="-127.5" font-family="Helvetica,sans-Serif" font-size="10.00">map</text>
</a>
</g>
</g>
<!-- Node11&#45;&gt;Node12 -->
<g id="edge12_Node000011_Node000012" class="edge">
<title>Node11&#45;&gt;Node12</title>
<g id="a_edge12_Node000011_Node000012"><a xlink:title=" ">
<path fill="none" stroke="#63b8ff" d="M358.62,-176.83C358.62,-170.32 358.62,-161.17 358.62,-152.87"/>
<polygon fill="#63b8ff" stroke="#63b8ff" points="362.13,-152.87 358.63,-142.87 355.13,-152.87 362.13,-152.87"/>
</a>
</g>
</g>
<!-- Node13&#45;&gt;Node2 -->
<g id="edge17_Node000013_Node000002" class="edge">
<title>Node13&#45;&gt;Node2</title>
<g id="a_edge17_Node000013_Node000002"><a xlink:title=" ">
<path fill="none" stroke="#63b8ff" d="M549.03,-176.59C571.68,-167.86 606.17,-154.54 631.4,-144.81"/>
<polygon fill="#63b8ff" stroke="#63b8ff" points="632.44,-148.16 640.51,-141.29 629.92,-141.63 632.44,-148.16"/>
</a>
</g>
</g>
<!-- Node14 -->
<g id="Node000014" class="node">
<title>Node14</title>
<g id="a_Node000014"><a xlink:title=" ">
<polygon fill="#e0e0e0" stroke="#999999" points="501.75,-141 435.5,-141 435.5,-121.75 501.75,-121.75 501.75,-141"/>
<text text-anchor="middle" x="468.62" y="-127.5" font-family="Helvetica,sans-Serif" font-size="10.00">forward_list</text>
</a>
</g>
</g>
<!-- Node13&#45;&gt;Node14 -->
<g id="edge15_Node000013_Node000014" class="edge">
<title>Node13&#45;&gt;Node14</title>
<g id="a_edge15_Node000013_Node000014"><a xlink:title=" ">
<path fill="none" stroke="#63b8ff" d="M515.96,-176.59C507.88,-169.05 496.16,-158.1 486.4,-148.98"/>
<polygon fill="#63b8ff" stroke="#63b8ff" points="488.95,-146.58 479.26,-142.31 484.18,-151.69 488.95,-146.58"/>
</a>
</g>
</g>
<!-- Node15 -->
<g id="Node000015" class="node">
<title>Node15</title>
<g id="a_Node000015"><a xlink:title=" ">
<polygon fill="#e0e0e0" stroke="#999999" points="577.62,-141 519.62,-141 519.62,-121.75 577.62,-121.75 577.62,-141"/>
<text text-anchor="middle" x="548.62" y="-127.5" font-family="Helvetica,sans-Serif" font-size="10.00">functional</text>
</a>
</g>
</g>
<!-- Node13&#45;&gt;Node15 -->
<g id="edge16_Node000013_Node000015" class="edge">
<title>Node13&#45;&gt;Node15</title>
<g id="a_edge16_Node000013_Node000015"><a xlink:title=" ">
<path fill="none" stroke="#63b8ff" d="M529.42,-176.83C532.37,-170.01 536.56,-160.31 540.28,-151.7"/>
<polygon fill="#63b8ff" stroke="#63b8ff" points="543.39,-153.32 544.14,-142.75 536.97,-150.54 543.39,-153.32"/>
</a>
</g>
</g>
<!-- Node17 -->
<g id="Node000017" class="node">
<title>Node17</title>
<g id="a_Node000017"><a xlink:title=" ">
<polygon fill="#e0e0e0" stroke="#999999" points="658.75,-196.25 616.5,-196.25 616.5,-177 658.75,-177 658.75,-196.25"/>
<text text-anchor="middle" x="637.62" y="-182.75" font-family="Helvetica,sans-Serif" font-size="10.00">queue</text>
</a>
</g>
</g>
<!-- Node16&#45;&gt;Node17 -->
<g id="edge19_Node000016_Node000017" class="edge">
<title>Node16&#45;&gt;Node17</title>
<g id="a_edge19_Node000016_Node000017"><a xlink:title=" ">
<path fill="none" stroke="#63b8ff" d="M578.67,-231.84C589.03,-224.07 604.23,-212.67 616.59,-203.4"/>
<polygon fill="#63b8ff" stroke="#63b8ff" points="618.65,-206.23 624.55,-197.43 614.45,-200.63 618.65,-206.23"/>
</a>
</g>
</g>
<!-- Node18&#45;&gt;Node4 -->
<g id="edge21_Node000018_Node000004" class="edge">
<title>Node18&#45;&gt;Node4</title>
<g id="a_edge21_Node000018_Node000004"><a xlink:title=" ">
<path fill="none" stroke="#63b8ff" d="M126.47,-176.59C144.79,-168.25 172.27,-155.75 193.33,-146.16"/>
<polygon fill="#63b8ff" stroke="#63b8ff" points="194.65,-149.41 202.3,-142.08 191.75,-143.04 194.65,-149.41"/>
</a>
</g>
</g>
<!-- Node18&#45;&gt;Node6 -->
<g id="edge23_Node000018_Node000006" class="edge">
<title>Node18&#45;&gt;Node6</title>
<g id="a_edge23_Node000018_Node000006"><a xlink:title=" ">
<path fill="none" stroke="#63b8ff" d="M98.2,-176.83C91.09,-169.4 80.68,-158.54 71.94,-149.41"/>
<polygon fill="#63b8ff" stroke="#63b8ff" points="74.72,-147.25 65.28,-142.45 69.67,-152.1 74.72,-147.25"/>
</a>
</g>
</g>
<!-- Node19 -->
<g id="Node000019" class="node">
<title>Node19</title>
<g id="a_Node000019"><a xlink:title=" ">
<polygon fill="#e0e0e0" stroke="#999999" points="152.75,-141 104.5,-141 104.5,-121.75 152.75,-121.75 152.75,-141"/>
<text text-anchor="middle" x="128.62" y="-127.5" font-family="Helvetica,sans-Serif" font-size="10.00">stdint.h</text>
</a>
</g>
</g>
<!-- Node18&#45;&gt;Node19 -->
<g id="edge22_Node000018_Node000019" class="edge">
<title>Node18&#45;&gt;Node19</title>
<g id="a_edge22_Node000018_Node000019"><a xlink:title=" ">
<path fill="none" stroke="#63b8ff" d="M110.26,-176.83C113.04,-170.09 117,-160.52 120.52,-151.99"/>
<polygon fill="#63b8ff" stroke="#63b8ff" points="123.75,-153.34 124.34,-142.76 117.28,-150.66 123.75,-153.34"/>
</a>
</g>
</g>
<!-- Node20&#45;&gt;Node4 -->
<g id="edge25_Node000020_Node000004" class="edge">
<title>Node20&#45;&gt;Node4</title>
<g id="a_edge25_Node000020_Node000004"><a xlink:title=" ">
<path fill="none" stroke="#63b8ff" d="M172.43,-231.77C179.62,-223.06 190.27,-209.36 197.62,-196.25 205.61,-182.02 212.47,-164.84 217.13,-151.88"/>
<polygon fill="#63b8ff" stroke="#63b8ff" points="220.3,-153.4 220.27,-142.81 213.69,-151.11 220.3,-153.4"/>
</a>
</g>
</g>
<!-- Node20&#45;&gt;Node13 -->
<g id="edge26_Node000020_Node000013" class="edge">
<title>Node20&#45;&gt;Node13</title>
<g id="a_edge26_Node000020_Node000013"><a xlink:title=" ">
<path fill="none" stroke="#63b8ff" d="M226.27,-231.78C289,-222.53 386.2,-208.19 452.71,-198.38"/>
<polygon fill="#63b8ff" stroke="#63b8ff" points="453.05,-201.87 462.43,-196.95 452.03,-194.94 453.05,-201.87"/>
</a>
</g>
</g>
<!-- Node20&#45;&gt;Node18 -->
<g id="edge27_Node000020_Node000018" class="edge">
<title>Node20&#45;&gt;Node18</title>
<g id="a_edge27_Node000020_Node000018"><a xlink:title=" ">
<path fill="none" stroke="#63b8ff" d="M154.79,-231.84C146.57,-224.3 134.64,-213.35 124.71,-204.23"/>
<polygon fill="#63b8ff" stroke="#63b8ff" points="127.17,-201.73 117.43,-197.55 122.43,-206.89 127.17,-201.73"/>
</a>
</g>
</g>
</g>
</svg>

<g id="navigator" transform="translate(0 0)" fill="#404254">
  <rect fill="#f2f5e9" fill-opacity="0.5" stroke="#606060" stroke-width=".5" x="0" y="0" width="60" height="60"/>
  <use id="zoomplus" xlink:href="#zoomPlus" x="17" y="9" onmousedown="handleZoom(evt,'in')"/>
  <use id="zoomminus" xlink:href="#zoomMin" x="42" y="9" onmousedown="handleZoom(evt,'out')"/>
  <use id="reset" xlink:href="#resetDef" x="30" y="36" onmousedown="handleReset()"/>
   <use id="arrowup" xlink:href="#arrowUp" x="0" y="0" onmousedown="handlePan(0,-1)"/>
  <use id="arrowright" xlink:href="#arrowRight" x="0" y="0" onmousedown="handlePan(1,0)"/>
  <use id="arrowdown" xlink:href="#arrowDown" x="0" y="0" onmousedown="handlePan(0,1)"/>
  <use id="arrowleft" xlink:href="#arrowLeft" x="0" y="0" onmousedown="handlePan(-1,0)"/>
</g>
<svg viewBox="0 0 15 15" width="100%" height="30px" preserveAspectRatio="xMaxYMin meet">
 <g id="arrow_out" transform="scale(0.3 0.3)">
  <a xlink:href="median_8h__incl_org.svg" target="_base">
   <rect id="button" ry="5" rx="5" y="6" x="6" height="38" width="38"
        fill="#f2f5e9" fill-opacity="0.5" stroke="#606060" stroke-width="1.0"/>
   <path id="arrow"
     d="M 11.500037,31.436501 C 11.940474,20.09759 22.043105,11.32322 32.158766,21.979434 L 37.068811,17.246167 C 37.068811,17.246167 37.088388,32 37.088388,32 L 22.160133,31.978069 C 22.160133,31.978069 26.997745,27.140456 26.997745,27.140456 C 18.528582,18.264221 13.291696,25.230495 11.500037,31.436501 z"
     style="fill:#404040;"/>
  </a>
 </g>
</svg>

<style type='text/css'>
<![CDATA[
[data-mouse-over-selected='false'] { opacity: 0.7; }
[data-mouse-over-selected='true']  { opacity: 1.0; }
]]>
</style>
<script type="application/ecmascript"><![CDATA[
document.addEventListener('DOMContentLoaded', (event) => {
  highlightEdges();
  highlightAdjacentNodes();
});
]]></script>
</svg>
