<?xml version="1.0" encoding="UTF-8" standalone="no"?>
<!DOCTYPE svg PUBLIC "-//W3C//DTD SVG 1.1//EN"
 "http://www.w3.org/Graphics/SVG/1.1/DTD/svg11.dtd">
<!-- Generated by graphviz version 7.1.0 (20230121.1956)
 -->
<!-- Title: sensesp::connect_system_info_sensor Pages: 1 -->
<svg width="508pt" height="230pt"
 viewBox="0.00 0.00 508.00 230.00" xmlns="http://www.w3.org/2000/svg" xmlns:xlink="http://www.w3.org/1999/xlink">
<g id="graph0" class="graph" transform="scale(1 1) rotate(0) translate(4 226)">
<title>sensesp::connect_system_info_sensor</title>
<!-- Node1 -->
<g id="node1" class="node">
<title>Node1</title>
<g id="a_node1"><a xlink:title="Connect a system information sensor to SKOutput.">
<polygon fill="#999999" stroke="#666666" points="500,-126 369,-126 369,-96 500,-96 500,-126"/>
<text text-anchor="start" x="377" y="-114" font-family="Helvetica,sans-Serif" font-size="10.00">sensesp::connect_system</text>
<text text-anchor="middle" x="434.5" y="-103" font-family="Helvetica,sans-Serif" font-size="10.00">_info_sensor</text>
</a>
</g>
</g>
<!-- Node2 -->
<g id="node2" class="node">
<title>Node2</title>
<g id="a_node2"><a xlink:href="classsensesp_1_1_sens_e_s_p_app_builder.html#aa90ff7615dce9d7befeb421c7cf6f583" target="_top" xlink:title="Enable the free memory sensor.">
<polygon fill="white" stroke="#666666" points="333,-222 185,-222 185,-192 333,-192 333,-222"/>
<text text-anchor="start" x="193" y="-210" font-family="Helvetica,sans-Serif" font-size="10.00">sensesp::SensESPAppBuilder</text>
<text text-anchor="middle" x="259" y="-199" font-family="Helvetica,sans-Serif" font-size="10.00">::enable_free_mem_sensor</text>
</a>
</g>
</g>
<!-- Node1&#45;&gt;Node2 -->
<g id="edge1" class="edge">
<title>Node1&#45;&gt;Node2</title>
<path fill="none" stroke="#63b8ff" d="M406.83,-133.55C387.37,-149.12 359.81,-169.39 333,-183 326.81,-186.14 320.13,-188.99 313.4,-191.55"/>
<polygon fill="#63b8ff" stroke="#63b8ff" points="408.98,-136.32 414.52,-127.29 404.56,-130.89 408.98,-136.32"/>
</g>
<!-- Node4 -->
<g id="node4" class="node">
<title>Node4</title>
<g id="a_node4"><a xlink:href="classsensesp_1_1_sens_e_s_p_app_builder.html#aa36af1a2298d0a4db7f6efdf88baf07a" target="_top" xlink:title="Report the IP address of the device.">
<polygon fill="white" stroke="#666666" points="333,-174 185,-174 185,-144 333,-144 333,-174"/>
<text text-anchor="start" x="193" y="-162" font-family="Helvetica,sans-Serif" font-size="10.00">sensesp::SensESPAppBuilder</text>
<text text-anchor="middle" x="259" y="-151" font-family="Helvetica,sans-Serif" font-size="10.00">::enable_ip_address_sensor</text>
</a>
</g>
</g>
<!-- Node1&#45;&gt;Node4 -->
<g id="edge3" class="edge">
<title>Node1&#45;&gt;Node4</title>
<path fill="none" stroke="#63b8ff" d="M366.76,-129.46C349.91,-134.13 331.99,-139.08 315.75,-143.58"/>
<polygon fill="#63b8ff" stroke="#63b8ff" points="367.49,-132.9 376.19,-126.86 365.62,-126.15 367.49,-132.9"/>
</g>
<!-- Node5 -->
<g id="node5" class="node">
<title>Node5</title>
<g id="a_node5"><a xlink:href="classsensesp_1_1_sens_e_s_p_app_builder.html#ac7e2cdd591bd78309ab0c838fe6a01ea" target="_top" xlink:title="Enable the System Hz sensor.">
<polygon fill="white" stroke="#666666" points="333,-126 185,-126 185,-96 333,-96 333,-126"/>
<text text-anchor="start" x="193" y="-114" font-family="Helvetica,sans-Serif" font-size="10.00">sensesp::SensESPAppBuilder</text>
<text text-anchor="middle" x="259" y="-103" font-family="Helvetica,sans-Serif" font-size="10.00">::enable_system_hz_sensor</text>
</a>
</g>
</g>
<!-- Node1&#45;&gt;Node5 -->
<g id="edge5" class="edge">
<title>Node1&#45;&gt;Node5</title>
<path fill="none" stroke="#63b8ff" d="M357.64,-111C349.6,-111 341.43,-111 333.42,-111"/>
<polygon fill="#63b8ff" stroke="#63b8ff" points="357.38,-114.5 367.38,-111 357.38,-107.5 357.38,-114.5"/>
</g>
<!-- Node6 -->
<g id="node6" class="node">
<title>Node6</title>
<g id="a_node6"><a xlink:href="classsensesp_1_1_sens_e_s_p_app_builder.html#aec8b05c9896ddc46d747ffea671dad70" target="_top" xlink:title="Report the system uptime in seconds since the last reboot.">
<polygon fill="white" stroke="#666666" points="333,-78 185,-78 185,-48 333,-48 333,-78"/>
<text text-anchor="start" x="193" y="-66" font-family="Helvetica,sans-Serif" font-size="10.00">sensesp::SensESPAppBuilder</text>
<text text-anchor="middle" x="259" y="-55" font-family="Helvetica,sans-Serif" font-size="10.00">::enable_uptime_sensor</text>
</a>
</g>
</g>
<!-- Node1&#45;&gt;Node6 -->
<g id="edge7" class="edge">
<title>Node1&#45;&gt;Node6</title>
<path fill="none" stroke="#63b8ff" d="M366.76,-92.54C349.91,-87.87 331.99,-82.92 315.75,-78.42"/>
<polygon fill="#63b8ff" stroke="#63b8ff" points="365.62,-95.85 376.19,-95.14 367.49,-89.1 365.62,-95.85"/>
</g>
<!-- Node7 -->
<g id="node7" class="node">
<title>Node7</title>
<g id="a_node7"><a xlink:href="classsensesp_1_1_sens_e_s_p_app_builder.html#afabc97d522db0964e161d42e1d54df4e" target="_top" xlink:title="Report the Wi&#45;Fi signal strength.">
<polygon fill="white" stroke="#666666" points="333,-30 185,-30 185,0 333,0 333,-30"/>
<text text-anchor="start" x="193" y="-18" font-family="Helvetica,sans-Serif" font-size="10.00">sensesp::SensESPAppBuilder</text>
<text text-anchor="middle" x="259" y="-7" font-family="Helvetica,sans-Serif" font-size="10.00">::enable_wifi_signal_sensor</text>
</a>
</g>
</g>
<!-- Node1&#45;&gt;Node7 -->
<g id="edge9" class="edge">
<title>Node1&#45;&gt;Node7</title>
<path fill="none" stroke="#63b8ff" d="M406.83,-88.45C387.37,-72.88 359.81,-52.61 333,-39 326.81,-35.86 320.13,-33.01 313.4,-30.45"/>
<polygon fill="#63b8ff" stroke="#63b8ff" points="404.56,-91.11 414.52,-94.71 408.98,-85.68 404.56,-91.11"/>
</g>
<!-- Node3 -->
<g id="node3" class="node">
<title>Node3</title>
<g id="a_node3"><a xlink:href="classsensesp_1_1_sens_e_s_p_app_builder.html#ad875bc0e66f1b804d6689a0e1b733c5a" target="_top" xlink:title="Enable all built&#45;in system info sensors.">
<polygon fill="white" stroke="#666666" points="149,-126 0,-126 0,-96 149,-96 149,-126"/>
<text text-anchor="start" x="8" y="-114" font-family="Helvetica,sans-Serif" font-size="10.00">sensesp::SensESPAppBuilder</text>
<text text-anchor="middle" x="74.5" y="-103" font-family="Helvetica,sans-Serif" font-size="10.00">::enable_system_info_sensors</text>
</a>
</g>
</g>
<!-- Node2&#45;&gt;Node3 -->
<g id="edge2" class="edge">
<title>Node2&#45;&gt;Node3</title>
<path fill="none" stroke="#63b8ff" d="M195.05,-187.5C191.62,-186.07 188.24,-184.57 185,-183 151.6,-166.88 116.34,-142.1 95.13,-126.22"/>
<polygon fill="#63b8ff" stroke="#63b8ff" points="193.5,-190.65 204.08,-191.05 196.05,-184.14 193.5,-190.65"/>
</g>
<!-- Node4&#45;&gt;Node3 -->
<g id="edge4" class="edge">
<title>Node4&#45;&gt;Node3</title>
<path fill="none" stroke="#63b8ff" d="M188.3,-140.67C170.43,-135.97 151.39,-130.96 134.14,-126.42"/>
<polygon fill="#63b8ff" stroke="#63b8ff" points="187.23,-144 197.79,-143.16 189.01,-137.23 187.23,-144"/>
</g>
<!-- Node5&#45;&gt;Node3 -->
<g id="edge6" class="edge">
<title>Node5&#45;&gt;Node3</title>
<path fill="none" stroke="#63b8ff" d="M173.05,-111C165.15,-111 157.18,-111 149.38,-111"/>
<polygon fill="#63b8ff" stroke="#63b8ff" points="173.05,-114.5 183.05,-111 173.05,-107.5 173.05,-114.5"/>
</g>
<!-- Node6&#45;&gt;Node3 -->
<g id="edge8" class="edge">
<title>Node6&#45;&gt;Node3</title>
<path fill="none" stroke="#63b8ff" d="M188.3,-81.33C170.43,-86.03 151.39,-91.04 134.14,-95.58"/>
<polygon fill="#63b8ff" stroke="#63b8ff" points="189.01,-84.77 197.79,-78.84 187.23,-78 189.01,-84.77"/>
</g>
<!-- Node7&#45;&gt;Node3 -->
<g id="edge10" class="edge">
<title>Node7&#45;&gt;Node3</title>
<path fill="none" stroke="#63b8ff" d="M195.05,-34.5C191.62,-35.93 188.24,-37.43 185,-39 151.6,-55.12 116.34,-79.9 95.13,-95.78"/>
<polygon fill="#63b8ff" stroke="#63b8ff" points="196.05,-37.86 204.08,-30.95 193.5,-31.35 196.05,-37.86"/>
</g>
</g>
</svg>
