<?xml version="1.0" encoding="UTF-8" standalone="no"?>
<!DOCTYPE svg PUBLIC "-//W3C//DTD SVG 1.1//EN"
 "http://www.w3.org/Graphics/SVG/1.1/DTD/svg11.dtd">
<!-- Generated by graphviz version 14.1.4 (20260321.0153)
 -->
<!-- Title: sensesp::generate_uuid4 Pages: 1 -->
<!--zoomable 109 -->

<svg id="main" version="1.1" xmlns="http://www.w3.org/2000/svg" xmlns:xlink="http://www.w3.org/1999/xlink" xml:space="preserve" onload="init(evt)">

<style type="text/css"><![CDATA[
.node, .edge {opacity: 0.7;}
.node.selected, .edge.selected {opacity: 1;}
.edge:hover path { stroke: red; }
.edge:hover polygon { stroke: red; fill: red; }
]]></style>

<defs>
  <circle id="rim" cx="0" cy="0" r="7"/>
  <circle id="rim2" cx="0" cy="0" r="3.5"/>
  <g id="zoomPlus">
    <use xlink:href="#rim" fill="#404040"><set attributeName="fill" to="#808080" begin="zoomplus.mouseover" end="zoomplus.mouseout"/></use>
    <path d="M-4,0h8M0,-4v8" fill="none" stroke="white" stroke-width="1.5" pointer-events="none"/>
  </g>
  <g id="zoomMin">
    <use xlink:href="#rim" fill="#404040"><set attributeName="fill" to="#808080" begin="zoomminus.mouseover" end="zoomminus.mouseout"/></use>
    <path d="M-4,0h8" fill="none" stroke="white" stroke-width="1.5" pointer-events="none"/>
  </g>
  <g id="arrowUp" transform="translate(30 24)">
    <use xlink:href="#rim"/>
    <path pointer-events="none" fill="none" stroke="white" stroke-width="1.5" d="M0,-3.0v7 M-2.5,-0.5L0,-3.0L2.5,-0.5"/>
  </g>
  <g id="arrowRight" transform="rotate(90) translate(36 -43)">
    <use xlink:href="#rim"/>
    <path pointer-events="none" fill="none" stroke="white" stroke-width="1.5" d="M0,-3.0v7 M-2.5,-0.5L0,-3.0L2.5,-0.5"/>
  </g>
  <g id="arrowDown" transform="rotate(180) translate(-30 -48)">
    <use xlink:href="#rim"/>
    <path pointer-events="none" fill="none" stroke="white" stroke-width="1.5" d="M0,-3.0v7 M-2.5,-0.5L0,-3.0L2.5,-0.5"/>
  </g>
  <g id="arrowLeft" transform="rotate(270) translate(-36 17)">
    <use xlink:href="#rim"/>
    <path pointer-events="none" fill="none" stroke="white" stroke-width="1.5" d="M0,-3.0v7 M-2.5,-0.5L0,-3.0L2.5,-0.5"/>
  </g>
  <g id="resetDef">
    <use xlink:href="#rim2" fill="#404040"><set attributeName="fill" to="#808080" begin="reset.mouseover" end="reset.mouseout"/></use>
  </g>
</defs>
<script type="application/ecmascript">
var viewWidth = 629;
var viewHeight = 109;
var sectionId = 'dynsection-52';
</script>
<script type="application/ecmascript" xlink:href="svg.min.js"/>
<svg id="graph" class="graph">
<g id="viewport">
<title>sensesp::generate_uuid4</title>
<!-- Node1 -->
<g id="Node000001" class="node">
<title>Node1</title>
<g id="a_Node000001"><a xlink:title="Generate a random UUIDv4 string.">
<polygon fill="#999999" stroke="#666666" points="620.5,-48.88 495.75,-48.88 495.75,-29.62 620.5,-29.62 620.5,-48.88"/>
<text xml:space="preserve" text-anchor="middle" x="558.12" y="-35.38" font-family="Helvetica,sans-Serif" font-size="10.00">sensesp::generate_uuid4</text>
</a>
</g>
</g>
<!-- Node2 -->
<g id="Node000002" class="node">
<title>Node2</title>
<g id="a_Node000002"><a xlink:href="classsensesp_1_1_s_k_w_s_client.html#a59a57e892f602b940b6c7c15ec49ca52" target="_top" xlink:title=" ">
<polygon fill="white" stroke="#666666" points="459.75,-79.5 342.5,-79.5 342.5,-49 459.75,-49 459.75,-79.5"/>
<text xml:space="preserve" text-anchor="start" x="350.5" y="-66" font-family="Helvetica,sans-Serif" font-size="10.00">sensesp::SKWSClient</text>
<text xml:space="preserve" text-anchor="middle" x="401.12" y="-54.75" font-family="Helvetica,sans-Serif" font-size="10.00">::send_access_request</text>
</a>
</g>
</g>
<!-- Node1&#45;&gt;Node2 -->
<g id="edge1_Node000001_Node000002" class="edge">
<title>Node1&#45;&gt;Node2</title>
<g id="a_edge1_Node000001_Node000002"><a xlink:title=" ">
<path fill="none" stroke="#63b8ff" d="M484.11,-51.03C476.05,-52.33 467.93,-53.64 460.09,-54.9"/>
<polygon fill="#63b8ff" stroke="#63b8ff" points="484.61,-54.49 493.93,-49.44 483.5,-47.58 484.61,-54.49"/>
</a>
</g>
</g>
<!-- Node5 -->
<g id="Node000005" class="node">
<title>Node5</title>
<g id="a_Node000005"><a xlink:href="classsensesp_1_1_s_k_request.html#a67358e04e4e3c3341e0aa1663749b374" target="_top" xlink:title=" ">
<polygon fill="white" stroke="#666666" points="455.62,-30.5 346.62,-30.5 346.62,0 455.62,0 455.62,-30.5"/>
<text xml:space="preserve" text-anchor="start" x="354.62" y="-17" font-family="Helvetica,sans-Serif" font-size="10.00">sensesp::SKRequest</text>
<text xml:space="preserve" text-anchor="middle" x="401.12" y="-5.75" font-family="Helvetica,sans-Serif" font-size="10.00">::send_request</text>
</a>
</g>
</g>
<!-- Node1&#45;&gt;Node5 -->
<g id="edge5_Node000001_Node000005" class="edge">
<title>Node1&#45;&gt;Node5</title>
<g id="a_edge5_Node000001_Node000005"><a xlink:title=" ">
<path fill="none" stroke="#63b8ff" d="M484.34,-27.98C474.83,-26.51 465.23,-25.02 456.11,-23.61"/>
<polygon fill="#63b8ff" stroke="#63b8ff" points="483.51,-31.39 493.92,-29.46 484.58,-24.47 483.51,-31.39"/>
</a>
</g>
</g>
<!-- Node3 -->
<g id="Node000003" class="node">
<title>Node3</title>
<g id="a_Node000003"><a xlink:href="classsensesp_1_1_s_k_w_s_client.html#a71c4787c20640979d0f21e722fdf161a" target="_top" xlink:title=" ">
<polygon fill="white" stroke="#666666" points="119.12,-100.5 4.87,-100.5 4.87,-70 119.12,-70 119.12,-100.5"/>
<text xml:space="preserve" text-anchor="start" x="12.88" y="-87" font-family="Helvetica,sans-Serif" font-size="10.00">sensesp::SKWSClient</text>
<text xml:space="preserve" text-anchor="middle" x="62" y="-75.75" font-family="Helvetica,sans-Serif" font-size="10.00">::connect</text>
</a>
</g>
</g>
<!-- Node2&#45;&gt;Node3 -->
<g id="edge2_Node000002_Node000003" class="edge">
<title>Node2&#45;&gt;Node3</title>
<g id="a_edge2_Node000002_Node000003"><a xlink:title=" ">
<path fill="none" stroke="#63b8ff" d="M337.57,-82.59C327.27,-84.94 316.65,-86.97 306.5,-88.25 242.74,-96.29 168.85,-93.73 119.34,-90.31"/>
<polygon fill="#63b8ff" stroke="#63b8ff" points="338.2,-86.03 347.1,-80.28 336.56,-79.23 338.2,-86.03"/>
</a>
</g>
</g>
<!-- Node4 -->
<g id="Node000004" class="node">
<title>Node4</title>
<g id="a_Node000004"><a xlink:href="classsensesp_1_1_s_k_w_s_client.html#ab063bdb9564b0c6c564bd1d5573a9631" target="_top" xlink:title=" ">
<polygon fill="white" stroke="#666666" points="290.38,-79.5 176.12,-79.5 176.12,-49 290.38,-49 290.38,-79.5"/>
<text xml:space="preserve" text-anchor="start" x="184.12" y="-66" font-family="Helvetica,sans-Serif" font-size="10.00">sensesp::SKWSClient</text>
<text xml:space="preserve" text-anchor="middle" x="233.25" y="-54.75" font-family="Helvetica,sans-Serif" font-size="10.00">::test_token</text>
</a>
</g>
</g>
<!-- Node2&#45;&gt;Node4 -->
<g id="edge3_Node000002_Node000004" class="edge">
<title>Node2&#45;&gt;Node4</title>
<g id="a_edge3_Node000002_Node000004"><a xlink:title=" ">
<path fill="none" stroke="#63b8ff" d="M330.62,-64.25C317.36,-64.25 303.63,-64.25 290.83,-64.25"/>
<polygon fill="#63b8ff" stroke="#63b8ff" points="330.6,-67.75 340.6,-64.25 330.6,-60.75 330.6,-67.75"/>
</a>
</g>
</g>
<!-- Node4&#45;&gt;Node3 -->
<g id="edge4_Node000004_Node000003" class="edge">
<title>Node4&#45;&gt;Node3</title>
<g id="a_edge4_Node000004_Node000003"><a xlink:title=" ">
<path fill="none" stroke="#63b8ff" d="M164.61,-72.64C149.62,-74.5 133.89,-76.45 119.4,-78.25"/>
<polygon fill="#63b8ff" stroke="#63b8ff" points="164.9,-76.13 174.39,-71.43 164.04,-69.19 164.9,-76.13"/>
</a>
</g>
</g>
<!-- Node6 -->
<g id="Node000006" class="node">
<title>Node6</title>
<g id="a_Node000006"><a xlink:href="classsensesp_1_1_s_k_put_request_base.html#a8a60c171c008e367a92d93f62e291dae" target="_top" xlink:title=" ">
<polygon fill="white" stroke="#666666" points="306.5,-30.5 160,-30.5 160,0 306.5,0 306.5,-30.5"/>
<text xml:space="preserve" text-anchor="start" x="168" y="-17" font-family="Helvetica,sans-Serif" font-size="10.00">sensesp::SKPutRequestBase</text>
<text xml:space="preserve" text-anchor="middle" x="233.25" y="-5.75" font-family="Helvetica,sans-Serif" font-size="10.00">::send_put_request</text>
</a>
</g>
</g>
<!-- Node5&#45;&gt;Node6 -->
<g id="edge6_Node000005_Node000006" class="edge">
<title>Node5&#45;&gt;Node6</title>
<g id="a_edge6_Node000005_Node000006"><a xlink:title=" ">
<path fill="none" stroke="#63b8ff" d="M334.83,-15.25C325.64,-15.25 316.15,-15.25 306.84,-15.25"/>
<polygon fill="#63b8ff" stroke="#63b8ff" points="334.76,-18.75 344.76,-15.25 334.76,-11.75 334.76,-18.75"/>
</a>
</g>
</g>
<!-- Node7 -->
<g id="Node000007" class="node">
<title>Node7</title>
<g id="a_Node000007"><a xlink:href="classsensesp_1_1_s_k_put_request.html#aa058e5926050a529176402b4d3a20c44" target="_top" xlink:title=" ">
<polygon fill="white" stroke="#666666" points="124,-30.5 0,-30.5 0,0 124,0 124,-30.5"/>
<text xml:space="preserve" text-anchor="start" x="8" y="-17" font-family="Helvetica,sans-Serif" font-size="10.00">sensesp::SKPutRequest</text>
<text xml:space="preserve" text-anchor="middle" x="62" y="-5.75" font-family="Helvetica,sans-Serif" font-size="10.00">&lt; float &gt;::set</text>
</a>
</g>
</g>
<!-- Node6&#45;&gt;Node7 -->
<g id="edge7_Node000006_Node000007" class="edge">
<title>Node6&#45;&gt;Node7</title>
<g id="a_edge7_Node000006_Node000007"><a xlink:title=" ">
<path fill="none" stroke="#63b8ff" d="M148.51,-15.25C140.38,-15.25 132.23,-15.25 124.37,-15.25"/>
<polygon fill="#63b8ff" stroke="#63b8ff" points="148.47,-18.75 158.47,-15.25 148.47,-11.75 148.47,-18.75"/>
</a>
</g>
</g>
</g>
</svg>

<g id="navigator" transform="translate(0 0)" fill="#404254">
  <rect fill="#f2f5e9" fill-opacity="0.5" stroke="#606060" stroke-width=".5" x="0" y="0" width="60" height="60"/>
  <use id="zoomplus" xlink:href="#zoomPlus" x="17" y="9" onmousedown="handleZoom(evt,'in')"/>
  <use id="zoomminus" xlink:href="#zoomMin" x="42" y="9" onmousedown="handleZoom(evt,'out')"/>
  <use id="reset" xlink:href="#resetDef" x="30" y="36" onmousedown="handleReset()"/>
   <use id="arrowup" xlink:href="#arrowUp" x="0" y="0" onmousedown="handlePan(0,-1)"/>
  <use id="arrowright" xlink:href="#arrowRight" x="0" y="0" onmousedown="handlePan(1,0)"/>
  <use id="arrowdown" xlink:href="#arrowDown" x="0" y="0" onmousedown="handlePan(0,1)"/>
  <use id="arrowleft" xlink:href="#arrowLeft" x="0" y="0" onmousedown="handlePan(-1,0)"/>
</g>
<svg viewBox="0 0 15 15" width="100%" height="30px" preserveAspectRatio="xMaxYMin meet">
 <g id="arrow_out" transform="scale(0.3 0.3)">
  <a xlink:href="namespacesensesp_a270290236513f91972b435ad45c4f70b_icgraph_org.svg" target="_base">
   <rect id="button" ry="5" rx="5" y="6" x="6" height="38" width="38"
        fill="#f2f5e9" fill-opacity="0.5" stroke="#606060" stroke-width="1.0"/>
   <path id="arrow"
     d="M 11.500037,31.436501 C 11.940474,20.09759 22.043105,11.32322 32.158766,21.979434 L 37.068811,17.246167 C 37.068811,17.246167 37.088388,32 37.088388,32 L 22.160133,31.978069 C 22.160133,31.978069 26.997745,27.140456 26.997745,27.140456 C 18.528582,18.264221 13.291696,25.230495 11.500037,31.436501 z"
     style="fill:#404040;"/>
  </a>
 </g>
</svg>

<style type='text/css'>
<![CDATA[
[data-mouse-over-selected='false'] { opacity: 0.7; }
[data-mouse-over-selected='true']  { opacity: 1.0; }
]]>
</style>
<script type="application/ecmascript"><![CDATA[
document.addEventListener('DOMContentLoaded', (event) => {
  highlightEdges();
  highlightAdjacentNodes();
});
]]></script>
</svg>
