<?xml version="1.0" encoding="UTF-8" standalone="no"?>
<!DOCTYPE svg PUBLIC "-//W3C//DTD SVG 1.1//EN"
 "http://www.w3.org/Graphics/SVG/1.1/DTD/svg11.dtd">
<!-- Generated by graphviz version 12.1.0 (20240811.2233)
 -->
<!-- Title: sensesp::add_app_http_command_handlers Pages: 1 -->
<!--zoomable 223 -->

<svg id="main" version="1.1" xmlns="http://www.w3.org/2000/svg" xmlns:xlink="http://www.w3.org/1999/xlink" xml:space="preserve" onload="init(evt)">

<style type="text/css"><![CDATA[
.node, .edge {opacity: 0.7;}
.node.selected, .edge.selected {opacity: 1;}
.edge:hover path { stroke: red; }
.edge:hover polygon { stroke: red; fill: red; }
]]></style>

<defs>
  <circle id="rim" cx="0" cy="0" r="7"/>
  <circle id="rim2" cx="0" cy="0" r="3.5"/>
  <g id="zoomPlus">
    <use xlink:href="#rim" fill="#404040"><set attributeName="fill" to="#808080" begin="zoomplus.mouseover" end="zoomplus.mouseout"/></use>
    <path d="M-4,0h8M0,-4v8" fill="none" stroke="white" stroke-width="1.5" pointer-events="none"/>
  </g>
  <g id="zoomMin">
    <use xlink:href="#rim" fill="#404040"><set attributeName="fill" to="#808080" begin="zoomminus.mouseover" end="zoomminus.mouseout"/></use>
    <path d="M-4,0h8" fill="none" stroke="white" stroke-width="1.5" pointer-events="none"/>
  </g>
  <g id="arrowUp" transform="translate(30 24)">
    <use xlink:href="#rim"/>
    <path pointer-events="none" fill="none" stroke="white" stroke-width="1.5" d="M0,-3.0v7 M-2.5,-0.5L0,-3.0L2.5,-0.5"/>
  </g>
  <g id="arrowRight" transform="rotate(90) translate(36 -43)">
    <use xlink:href="#rim"/>
    <path pointer-events="none" fill="none" stroke="white" stroke-width="1.5" d="M0,-3.0v7 M-2.5,-0.5L0,-3.0L2.5,-0.5"/>
  </g>
  <g id="arrowDown" transform="rotate(180) translate(-30 -48)">
    <use xlink:href="#rim"/>
    <path pointer-events="none" fill="none" stroke="white" stroke-width="1.5" d="M0,-3.0v7 M-2.5,-0.5L0,-3.0L2.5,-0.5"/>
  </g>
  <g id="arrowLeft" transform="rotate(270) translate(-36 17)">
    <use xlink:href="#rim"/>
    <path pointer-events="none" fill="none" stroke="white" stroke-width="1.5" d="M0,-3.0v7 M-2.5,-0.5L0,-3.0L2.5,-0.5"/>
  </g>
  <g id="resetDef">
    <use xlink:href="#rim2" fill="#404040"><set attributeName="fill" to="#808080" begin="reset.mouseover" end="reset.mouseout"/></use>
  </g>
</defs>
<script type="application/ecmascript">
var viewWidth = 608;
var viewHeight = 223;
var sectionId = 'dynsection-0';
</script>
<script type="application/ecmascript" xlink:href="svg.min.js"/>
<svg id="graph" class="graph">
<g id="viewport">
<title>sensesp::add_app_http_command_handlers</title>
<!-- Node1 -->
<g id="Node000001" class="node">
<title>Node1</title>
<g id="a_Node000001"><a xlink:title=" ">
<polygon fill="#999999" stroke="#666666" points="117.25,-128.5 0,-128.5 0,-98 117.25,-98 117.25,-128.5"/>
<text text-anchor="start" x="8" y="-115" font-family="Helvetica,sans-Serif" font-size="10.00">sensesp::add_app_http</text>
<text text-anchor="middle" x="58.62" y="-103.75" font-family="Helvetica,sans-Serif" font-size="10.00">_command_handlers</text>
</a>
</g>
</g>
<!-- Node2 -->
<g id="Node000002" class="node">
<title>Node2</title>
<g id="a_Node000002"><a xlink:href="namespacesensesp.html#a56cb54cc94d3c4d9624dcd60072cf402" target="_top" xlink:title=" ">
<polygon fill="white" stroke="#666666" points="274.25,-128.5 153.25,-128.5 153.25,-98 274.25,-98 274.25,-128.5"/>
<text text-anchor="start" x="161.25" y="-115" font-family="Helvetica,sans-Serif" font-size="10.00">sensesp::add_scan_wifi</text>
<text text-anchor="middle" x="213.75" y="-103.75" font-family="Helvetica,sans-Serif" font-size="10.00">_networks_handlers</text>
</a>
</g>
</g>
<!-- Node1&#45;&gt;Node2 -->
<g id="edge1_Node000001_Node000002" class="edge">
<title>Node1&#45;&gt;Node2</title>
<g id="a_edge1_Node000001_Node000002"><a xlink:title=" ">
<path fill="none" stroke="#63b8ff" d="M117.51,-113.25C125.4,-113.25 133.57,-113.25 141.66,-113.25"/>
<polygon fill="#63b8ff" stroke="#63b8ff" points="141.48,-116.75 151.48,-113.25 141.48,-109.75 141.48,-116.75"/>
</a>
</g>
</g>
<!-- Node3 -->
<g id="Node000003" class="node">
<title>Node3</title>
<g id="a_Node000003"><a xlink:href="classsensesp_1_1_h_t_t_p_server.html#a24bdc7401745f64a486a1eec40e65382" target="_top" xlink:title=" ">
<polygon fill="white" stroke="#666666" points="435.38,-214.5 321.88,-214.5 321.88,-184 435.38,-184 435.38,-214.5"/>
<text text-anchor="start" x="329.88" y="-201" font-family="Helvetica,sans-Serif" font-size="10.00">sensesp::HTTPServer</text>
<text text-anchor="middle" x="378.62" y="-189.75" font-family="Helvetica,sans-Serif" font-size="10.00">::add_handler</text>
</a>
</g>
</g>
<!-- Node2&#45;&gt;Node3 -->
<g id="edge2_Node000002_Node000003" class="edge">
<title>Node2&#45;&gt;Node3</title>
<g id="a_edge2_Node000002_Node000003"><a xlink:title=" ">
<path fill="none" stroke="#63b8ff" d="M235.52,-128.78C254.32,-142.32 283.14,-161.85 310.25,-175.25 312.97,-176.6 315.79,-177.9 318.66,-179.17"/>
<polygon fill="#63b8ff" stroke="#63b8ff" points="317.23,-182.36 327.81,-182.97 319.92,-175.9 317.23,-182.36"/>
</a>
</g>
</g>
<!-- Node4 -->
<g id="Node000004" class="node">
<title>Node4</title>
<g id="a_Node000004"><a xlink:href="classsensesp_1_1_sens_e_s_p_app.html#a0d691348bffb9c65548ad23cd2188ca9" target="_top" xlink:title="Get the singleton instance of the SensESPApp.">
<polygon fill="white" stroke="#666666" points="447,-165.88 310.25,-165.88 310.25,-146.62 447,-146.62 447,-165.88"/>
<text text-anchor="middle" x="378.62" y="-152.38" font-family="Helvetica,sans-Serif" font-size="10.00">sensesp::SensESPApp::get</text>
</a>
</g>
</g>
<!-- Node2&#45;&gt;Node4 -->
<g id="edge3_Node000002_Node000004" class="edge">
<title>Node2&#45;&gt;Node4</title>
<g id="a_edge3_Node000002_Node000004"><a xlink:title=" ">
<path fill="none" stroke="#63b8ff" d="M274.01,-128.9C291.92,-133.62 311.38,-138.76 328.54,-143.29"/>
<polygon fill="#63b8ff" stroke="#63b8ff" points="327.43,-146.62 337.99,-145.79 329.21,-139.85 327.43,-146.62"/>
</a>
</g>
</g>
<!-- Node6 -->
<g id="Node000006" class="node">
<title>Node6</title>
<g id="a_Node000006"><a xlink:href="classsensesp_1_1_sens_e_s_p_app.html#ac86ccc0464d1754824a03eacc869b39c" target="_top" xlink:title=" ">
<polygon fill="white" stroke="#666666" points="437.25,-128.5 320,-128.5 320,-98 437.25,-98 437.25,-128.5"/>
<text text-anchor="start" x="328" y="-115" font-family="Helvetica,sans-Serif" font-size="10.00">sensesp::SensESPApp</text>
<text text-anchor="middle" x="378.62" y="-103.75" font-family="Helvetica,sans-Serif" font-size="10.00">::get_networking</text>
</a>
</g>
</g>
<!-- Node2&#45;&gt;Node6 -->
<g id="edge5_Node000002_Node000006" class="edge">
<title>Node2&#45;&gt;Node6</title>
<g id="a_edge5_Node000002_Node000006"><a xlink:title=" ">
<path fill="none" stroke="#63b8ff" d="M274.47,-113.25C285.39,-113.25 296.87,-113.25 308.04,-113.25"/>
<polygon fill="#63b8ff" stroke="#63b8ff" points="308.02,-116.75 318.02,-113.25 308.02,-109.75 308.02,-116.75"/>
</a>
</g>
</g>
<!-- Node7 -->
<g id="Node000007" class="node">
<title>Node7</title>
<g id="a_Node000007"><a xlink:href="classsensesp_1_1_networking.html#a9a2b6724dc67b259ba3d7162e87d41a4" target="_top" xlink:title=" ">
<polygon fill="white" stroke="#666666" points="436.88,-79.5 320.38,-79.5 320.38,-49 436.88,-49 436.88,-79.5"/>
<text text-anchor="start" x="328.38" y="-66" font-family="Helvetica,sans-Serif" font-size="10.00">sensesp::Networking</text>
<text text-anchor="middle" x="378.62" y="-54.75" font-family="Helvetica,sans-Serif" font-size="10.00">::get_wifi_scan_results</text>
</a>
</g>
</g>
<!-- Node2&#45;&gt;Node7 -->
<g id="edge6_Node000002_Node000007" class="edge">
<title>Node2&#45;&gt;Node7</title>
<g id="a_edge6_Node000002_Node000007"><a xlink:title=" ">
<path fill="none" stroke="#63b8ff" d="M266.73,-97.61C281.94,-93.04 298.72,-87.99 314.54,-83.23"/>
<polygon fill="#63b8ff" stroke="#63b8ff" points="315.28,-86.66 323.85,-80.43 313.26,-79.96 315.28,-86.66"/>
</a>
</g>
</g>
<!-- Node8 -->
<g id="Node000008" class="node">
<title>Node8</title>
<g id="a_Node000008"><a xlink:href="classsensesp_1_1_networking.html#aa95b7bb3f7dd4f3b798ee32d1542a9ff" target="_top" xlink:title=" ">
<polygon fill="white" stroke="#666666" points="432.75,-30.5 324.5,-30.5 324.5,0 432.75,0 432.75,-30.5"/>
<text text-anchor="start" x="332.5" y="-17" font-family="Helvetica,sans-Serif" font-size="10.00">sensesp::Networking</text>
<text text-anchor="middle" x="378.62" y="-5.75" font-family="Helvetica,sans-Serif" font-size="10.00">::start_wifi_scan</text>
</a>
</g>
</g>
<!-- Node2&#45;&gt;Node8 -->
<g id="edge7_Node000002_Node000008" class="edge">
<title>Node2&#45;&gt;Node8</title>
<g id="a_edge7_Node000002_Node000008"><a xlink:title=" ">
<path fill="none" stroke="#63b8ff" d="M231.95,-97.55C250.27,-81.47 280.65,-56.58 310.25,-40.25 313.27,-38.59 316.42,-36.99 319.63,-35.47"/>
<polygon fill="#63b8ff" stroke="#63b8ff" points="320.95,-38.71 328.69,-31.47 318.13,-32.31 320.95,-38.71"/>
</a>
</g>
</g>
<!-- Node5 -->
<g id="Node000005" class="node">
<title>Node5</title>
<g id="a_Node000005"><a xlink:href="classsensesp_1_1_sens_e_s_p_app.html#a05ebb118abaf137b414a8736fb1fc3ba" target="_top" xlink:title="SensESPApp constructor.">
<polygon fill="white" stroke="#666666" points="600.25,-171.5 483,-171.5 483,-141 600.25,-141 600.25,-171.5"/>
<text text-anchor="start" x="491" y="-158" font-family="Helvetica,sans-Serif" font-size="10.00">sensesp::SensESPApp</text>
<text text-anchor="middle" x="541.62" y="-146.75" font-family="Helvetica,sans-Serif" font-size="10.00">::SensESPApp</text>
</a>
</g>
</g>
<!-- Node4&#45;&gt;Node5 -->
<g id="edge4_Node000004_Node000005" class="edge">
<title>Node4&#45;&gt;Node5</title>
<g id="a_edge4_Node000004_Node000005"><a xlink:title=" ">
<path fill="none" stroke="#63b8ff" d="M447.44,-156.25C455.29,-156.25 463.31,-156.25 471.18,-156.25"/>
<polygon fill="#63b8ff" stroke="#63b8ff" points="471.07,-159.75 481.06,-156.25 471.06,-152.75 471.07,-159.75"/>
</a>
</g>
</g>
</g>
</svg>

<g id="navigator" transform="translate(0 0)" fill="#404254">
  <rect fill="#f2f5e9" fill-opacity="0.5" stroke="#606060" stroke-width=".5" x="0" y="0" width="60" height="60"/>
  <use id="zoomplus" xlink:href="#zoomPlus" x="17" y="9" onmousedown="handleZoom(evt,'in')"/>
  <use id="zoomminus" xlink:href="#zoomMin" x="42" y="9" onmousedown="handleZoom(evt,'out')"/>
  <use id="reset" xlink:href="#resetDef" x="30" y="36" onmousedown="handleReset()"/>
   <use id="arrowup" xlink:href="#arrowUp" x="0" y="0" onmousedown="handlePan(0,-1)"/>
  <use id="arrowright" xlink:href="#arrowRight" x="0" y="0" onmousedown="handlePan(1,0)"/>
  <use id="arrowdown" xlink:href="#arrowDown" x="0" y="0" onmousedown="handlePan(0,1)"/>
  <use id="arrowleft" xlink:href="#arrowLeft" x="0" y="0" onmousedown="handlePan(-1,0)"/>
</g>
<svg viewBox="0 0 15 15" width="100%" height="30px" preserveAspectRatio="xMaxYMin meet">
 <g id="arrow_out" transform="scale(0.3 0.3)">
  <a xlink:href="namespacesensesp_ac33c6816ec8423c79caf587d07465b5d_cgraph_org.svg" target="_base">
   <rect id="button" ry="5" rx="5" y="6" x="6" height="38" width="38"
        fill="#f2f5e9" fill-opacity="0.5" stroke="#606060" stroke-width="1.0"/>
   <path id="arrow"
     d="M 11.500037,31.436501 C 11.940474,20.09759 22.043105,11.32322 32.158766,21.979434 L 37.068811,17.246167 C 37.068811,17.246167 37.088388,32 37.088388,32 L 22.160133,31.978069 C 22.160133,31.978069 26.997745,27.140456 26.997745,27.140456 C 18.528582,18.264221 13.291696,25.230495 11.500037,31.436501 z"
     style="fill:#404040;"/>
  </a>
 </g>
</svg>

<style type='text/css'>
<![CDATA[
[data-mouse-over-selected='false'] { opacity: 0.7; }
[data-mouse-over-selected='true']  { opacity: 1.0; }
]]>
</style>
<script type="application/ecmascript"><![CDATA[
document.addEventListener('DOMContentLoaded', (event) => {
  highlightEdges();
  highlightAdjacentNodes();
});
]]></script>
</svg>
