<?xml version="1.0" encoding="UTF-8" standalone="no"?>
<!DOCTYPE svg PUBLIC "-//W3C//DTD SVG 1.1//EN"
 "http://www.w3.org/Graphics/SVG/1.1/DTD/svg11.dtd">
<!-- Generated by graphviz version 12.0.0 (20240704.0754)
 -->
<!-- Title: sensesp::add_routes_handlers Pages: 1 -->
<svg width="691pt" height="57pt"
 viewBox="0.00 0.00 691.00 56.50" xmlns="http://www.w3.org/2000/svg" xmlns:xlink="http://www.w3.org/1999/xlink">
<g id="graph0" class="graph" transform="scale(1 1) rotate(0) translate(4 52.5)">
<title>sensesp::add_routes_handlers</title>
<!-- Node1 -->
<g id="Node000001" class="node">
<title>Node1</title>
<g id="a_Node000001"><a xlink:title=" ">
<polygon fill="#999999" stroke="#666666" points="683,-30.5 576.25,-30.5 576.25,0 683,0 683,-30.5"/>
<text text-anchor="start" x="584.25" y="-17" font-family="Helvetica,sans-Serif" font-size="10.00">sensesp::add_routes</text>
<text text-anchor="middle" x="629.62" y="-5.75" font-family="Helvetica,sans-Serif" font-size="10.00">_handlers</text>
</a>
</g>
</g>
<!-- Node2 -->
<g id="Node000002" class="node">
<title>Node2</title>
<g id="a_Node000002"><a xlink:href="namespacesensesp.html#a8a933b02d533cea6b08661090eac0c54" target="_top" xlink:title=" ">
<polygon fill="white" stroke="#666666" points="540.25,-30.5 412.5,-30.5 412.5,0 540.25,0 540.25,-30.5"/>
<text text-anchor="start" x="420.5" y="-17" font-family="Helvetica,sans-Serif" font-size="10.00">sensesp::add_base_app</text>
<text text-anchor="middle" x="476.38" y="-5.75" font-family="Helvetica,sans-Serif" font-size="10.00">_http_command_handlers</text>
</a>
</g>
</g>
<!-- Node1&#45;&gt;Node2 -->
<g id="edge1_Node000001_Node000002" class="edge">
<title>Node1&#45;&gt;Node2</title>
<g id="a_edge1_Node000001_Node000002"><a xlink:title=" ">
<path fill="none" stroke="#63b8ff" d="M564.68,-15.25C556.75,-15.25 548.63,-15.25 540.7,-15.25"/>
<polygon fill="#63b8ff" stroke="#63b8ff" points="564.64,-18.75 574.64,-15.25 564.64,-11.75 564.64,-18.75"/>
</a>
</g>
</g>
<!-- Node2&#45;&gt;Node2 -->
<g id="edge2_Node000002_Node000002" class="edge">
<title>Node2&#45;&gt;Node2</title>
<g id="a_edge2_Node000002_Node000002"><a xlink:title=" ">
<path fill="none" stroke="#63b8ff" d="M502.08,-42.2C497.87,-45.97 489.31,-48.5 476.38,-48.5 452.73,-48.5 443.68,-40.06 449.22,-30.99"/>
<polygon fill="#63b8ff" stroke="#63b8ff" points="505.52,-42.85 503.34,-32.49 498.58,-41.95 505.52,-42.85"/>
</a>
</g>
</g>
<!-- Node3 -->
<g id="Node000003" class="node">
<title>Node3</title>
<g id="a_Node000003"><a xlink:href="classsensesp_1_1_sens_e_s_p_app.html#a49534d134dbae3ce35f4bac5879a8640" target="_top" xlink:title="Perform initialization of SensESPApp once builder configuration is done.">
<polygon fill="white" stroke="#666666" points="376.5,-30.5 259.25,-30.5 259.25,0 376.5,0 376.5,-30.5"/>
<text text-anchor="start" x="267.25" y="-17" font-family="Helvetica,sans-Serif" font-size="10.00">sensesp::SensESPApp</text>
<text text-anchor="middle" x="317.88" y="-5.75" font-family="Helvetica,sans-Serif" font-size="10.00">::setup</text>
</a>
</g>
</g>
<!-- Node2&#45;&gt;Node3 -->
<g id="edge3_Node000002_Node000003" class="edge">
<title>Node2&#45;&gt;Node3</title>
<g id="a_edge3_Node000002_Node000003"><a xlink:title=" ">
<path fill="none" stroke="#63b8ff" d="M400.81,-15.25C392.73,-15.25 384.59,-15.25 376.75,-15.25"/>
<polygon fill="#63b8ff" stroke="#63b8ff" points="400.66,-18.75 410.66,-15.25 400.66,-11.75 400.66,-18.75"/>
</a>
</g>
</g>
<!-- Node4 -->
<g id="Node000004" class="node">
<title>Node4</title>
<g id="a_Node000004"><a xlink:href="classsensesp_1_1_sens_e_s_p_app_builder.html#ac348bac39d057253e3d291a3c4d7d79f" target="_top" xlink:title="Get the SensESPApp object.">
<polygon fill="white" stroke="#666666" points="223.25,-30.5 76,-30.5 76,0 223.25,0 223.25,-30.5"/>
<text text-anchor="start" x="84" y="-17" font-family="Helvetica,sans-Serif" font-size="10.00">sensesp::SensESPAppBuilder</text>
<text text-anchor="middle" x="149.62" y="-5.75" font-family="Helvetica,sans-Serif" font-size="10.00">::get_app</text>
</a>
</g>
</g>
<!-- Node3&#45;&gt;Node4 -->
<g id="edge4_Node000003_Node000004" class="edge">
<title>Node3&#45;&gt;Node4</title>
<g id="a_edge4_Node000003_Node000004"><a xlink:title=" ">
<path fill="none" stroke="#63b8ff" d="M247.74,-15.25C239.81,-15.25 231.7,-15.25 223.72,-15.25"/>
<polygon fill="#63b8ff" stroke="#63b8ff" points="247.68,-18.75 257.68,-15.25 247.68,-11.75 247.68,-18.75"/>
</a>
</g>
</g>
<!-- Node5 -->
<g id="Node000005" class="node">
<title>Node5</title>
<g id="a_Node000005"><a xlink:href="main_8cpp.html#a4fc01d736fe50cf5b977f755b675f11d" target="_top" xlink:title=" ">
<polygon fill="white" stroke="#666666" points="40,-24.88 0,-24.88 0,-5.63 40,-5.63 40,-24.88"/>
<text text-anchor="middle" x="20" y="-11.38" font-family="Helvetica,sans-Serif" font-size="10.00">setup</text>
</a>
</g>
</g>
<!-- Node4&#45;&gt;Node5 -->
<g id="edge5_Node000004_Node000005" class="edge">
<title>Node4&#45;&gt;Node5</title>
<g id="a_edge5_Node000004_Node000005"><a xlink:title=" ">
<path fill="none" stroke="#63b8ff" d="M64.39,-15.25C55.54,-15.25 47.27,-15.25 40.37,-15.25"/>
<polygon fill="#63b8ff" stroke="#63b8ff" points="64.35,-18.75 74.35,-15.25 64.35,-11.75 64.35,-18.75"/>
</a>
</g>
</g>
</g>
</svg>
