<?xml version="1.0" encoding="UTF-8" standalone="no"?>
<!DOCTYPE svg PUBLIC "-//W3C//DTD SVG 1.1//EN"
 "http://www.w3.org/Graphics/SVG/1.1/DTD/svg11.dtd">
<!-- Generated by graphviz version 2.49.3 (20211023.0002)
 -->
<!-- Title: sensesp::connect_system_info_sensor Pages: 1 -->
<svg width="514pt" height="235pt"
 viewBox="0.00 0.00 514.00 235.00" xmlns="http://www.w3.org/2000/svg" xmlns:xlink="http://www.w3.org/1999/xlink">
<g id="graph0" class="graph" transform="scale(1 1) rotate(0) translate(4 231)">
<title>sensesp::connect_system_info_sensor</title>
<polygon fill="white" stroke="transparent" points="-4,4 -4,-231 510,-231 510,4 -4,4"/>
<!-- Node1 -->
<g id="node1" class="node">
<title>Node1</title>
<g id="a_node1"><a xlink:title="Connect a system information sensor to SKOutput.">
<polygon fill="#bfbfbf" stroke="black" points="374,-98.5 374,-128.5 506,-128.5 506,-98.5 374,-98.5"/>
<text text-anchor="start" x="382" y="-116.5" font-family="Helvetica,sans-Serif" font-size="10.00">sensesp::connect_system</text>
<text text-anchor="middle" x="440" y="-105.5" font-family="Helvetica,sans-Serif" font-size="10.00">_info_sensor</text>
</a>
</g>
</g>
<!-- Node2 -->
<g id="node2" class="node">
<title>Node2</title>
<g id="a_node2"><a xlink:href="classsensesp_1_1_sens_e_s_p_app_builder.html#aa90ff7615dce9d7befeb421c7cf6f583" target="_top" xlink:title="Enable the free memory sensor.">
<polygon fill="white" stroke="black" points="188,-196.5 188,-226.5 338,-226.5 338,-196.5 188,-196.5"/>
<text text-anchor="start" x="196" y="-214.5" font-family="Helvetica,sans-Serif" font-size="10.00">sensesp::SensESPAppBuilder</text>
<text text-anchor="middle" x="263" y="-203.5" font-family="Helvetica,sans-Serif" font-size="10.00">::enable_free_mem_sensor</text>
</a>
</g>
</g>
<!-- Node1&#45;&gt;Node2 -->
<g id="edge1" class="edge">
<title>Node1&#45;&gt;Node2</title>
<path fill="none" stroke="midnightblue" d="M414.07,-135.28C394.49,-151.5 365.94,-173.2 338,-187.5 331.51,-190.82 324.46,-193.81 317.38,-196.46"/>
<polygon fill="midnightblue" stroke="midnightblue" points="416.49,-137.83 421.89,-128.71 411.98,-132.47 416.49,-137.83"/>
</g>
<!-- Node4 -->
<g id="node4" class="node">
<title>Node4</title>
<g id="a_node4"><a xlink:href="classsensesp_1_1_sens_e_s_p_app_builder.html#aa36af1a2298d0a4db7f6efdf88baf07a" target="_top" xlink:title="Report the IP address of the device.">
<polygon fill="white" stroke="black" points="188,-147.5 188,-177.5 338,-177.5 338,-147.5 188,-147.5"/>
<text text-anchor="start" x="196" y="-165.5" font-family="Helvetica,sans-Serif" font-size="10.00">sensesp::SensESPAppBuilder</text>
<text text-anchor="middle" x="263" y="-154.5" font-family="Helvetica,sans-Serif" font-size="10.00">::enable_ip_address_sensor</text>
</a>
</g>
</g>
<!-- Node1&#45;&gt;Node4 -->
<g id="edge3" class="edge">
<title>Node1&#45;&gt;Node4</title>
<path fill="none" stroke="midnightblue" d="M375.35,-131.32C356.46,-136.61 335.96,-142.35 317.76,-147.45"/>
<polygon fill="midnightblue" stroke="midnightblue" points="376.38,-134.67 385.07,-128.6 374.49,-127.93 376.38,-134.67"/>
</g>
<!-- Node5 -->
<g id="node5" class="node">
<title>Node5</title>
<g id="a_node5"><a xlink:href="classsensesp_1_1_sens_e_s_p_app_builder.html#ac7e2cdd591bd78309ab0c838fe6a01ea" target="_top" xlink:title="Enable the System Hz sensor.">
<polygon fill="white" stroke="black" points="188,-98.5 188,-128.5 338,-128.5 338,-98.5 188,-98.5"/>
<text text-anchor="start" x="196" y="-116.5" font-family="Helvetica,sans-Serif" font-size="10.00">sensesp::SensESPAppBuilder</text>
<text text-anchor="middle" x="263" y="-105.5" font-family="Helvetica,sans-Serif" font-size="10.00">::enable_system_hz_sensor</text>
</a>
</g>
</g>
<!-- Node1&#45;&gt;Node5 -->
<g id="edge5" class="edge">
<title>Node1&#45;&gt;Node5</title>
<path fill="none" stroke="midnightblue" d="M363.6,-113.5C355.13,-113.5 346.51,-113.5 338.06,-113.5"/>
<polygon fill="midnightblue" stroke="midnightblue" points="363.84,-117 373.84,-113.5 363.84,-110 363.84,-117"/>
</g>
<!-- Node6 -->
<g id="node6" class="node">
<title>Node6</title>
<g id="a_node6"><a xlink:href="classsensesp_1_1_sens_e_s_p_app_builder.html#aec8b05c9896ddc46d747ffea671dad70" target="_top" xlink:title="Report the system uptime in seconds since the last reboot.">
<polygon fill="white" stroke="black" points="188,-49.5 188,-79.5 338,-79.5 338,-49.5 188,-49.5"/>
<text text-anchor="start" x="196" y="-67.5" font-family="Helvetica,sans-Serif" font-size="10.00">sensesp::SensESPAppBuilder</text>
<text text-anchor="middle" x="263" y="-56.5" font-family="Helvetica,sans-Serif" font-size="10.00">::enable_uptime_sensor</text>
</a>
</g>
</g>
<!-- Node1&#45;&gt;Node6 -->
<g id="edge7" class="edge">
<title>Node1&#45;&gt;Node6</title>
<path fill="none" stroke="midnightblue" d="M375.35,-95.68C356.46,-90.39 335.96,-84.65 317.76,-79.55"/>
<polygon fill="midnightblue" stroke="midnightblue" points="374.49,-99.07 385.07,-98.4 376.38,-92.33 374.49,-99.07"/>
</g>
<!-- Node7 -->
<g id="node7" class="node">
<title>Node7</title>
<g id="a_node7"><a xlink:href="classsensesp_1_1_sens_e_s_p_app_builder.html#afabc97d522db0964e161d42e1d54df4e" target="_top" xlink:title="Report the Wi&#45;Fi signal strength.">
<polygon fill="white" stroke="black" points="188,-0.5 188,-30.5 338,-30.5 338,-0.5 188,-0.5"/>
<text text-anchor="start" x="196" y="-18.5" font-family="Helvetica,sans-Serif" font-size="10.00">sensesp::SensESPAppBuilder</text>
<text text-anchor="middle" x="263" y="-7.5" font-family="Helvetica,sans-Serif" font-size="10.00">::enable_wifi_signal_sensor</text>
</a>
</g>
</g>
<!-- Node1&#45;&gt;Node7 -->
<g id="edge9" class="edge">
<title>Node1&#45;&gt;Node7</title>
<path fill="none" stroke="midnightblue" d="M413.62,-91.84C393.99,-75.94 365.6,-54.72 338,-40.5 330.89,-36.84 323.12,-33.53 315.39,-30.62"/>
<polygon fill="midnightblue" stroke="midnightblue" points="411.52,-94.64 421.46,-98.29 415.96,-89.23 411.52,-94.64"/>
</g>
<!-- Node3 -->
<g id="node3" class="node">
<title>Node3</title>
<g id="a_node3"><a xlink:href="classsensesp_1_1_sens_e_s_p_app_builder.html#ad875bc0e66f1b804d6689a0e1b733c5a" target="_top" xlink:title="Enable all built&#45;in system info sensors.">
<polygon fill="white" stroke="black" points="0,-98.5 0,-128.5 152,-128.5 152,-98.5 0,-98.5"/>
<text text-anchor="start" x="8" y="-116.5" font-family="Helvetica,sans-Serif" font-size="10.00">sensesp::SensESPAppBuilder</text>
<text text-anchor="middle" x="76" y="-105.5" font-family="Helvetica,sans-Serif" font-size="10.00">::enable_system_info_sensors</text>
</a>
</g>
</g>
<!-- Node2&#45;&gt;Node3 -->
<g id="edge2" class="edge">
<title>Node2&#45;&gt;Node3</title>
<path fill="none" stroke="midnightblue" d="M199.92,-192.78C195.84,-191.11 191.83,-189.35 188,-187.5 153.6,-170.85 117.43,-144.92 96.07,-128.59"/>
<polygon fill="midnightblue" stroke="midnightblue" points="198.95,-196.15 209.54,-196.48 201.46,-189.62 198.95,-196.15"/>
</g>
<!-- Node4&#45;&gt;Node3 -->
<g id="edge4" class="edge">
<title>Node4&#45;&gt;Node3</title>
<path fill="none" stroke="midnightblue" d="M195.46,-144.88C175.22,-139.52 153.18,-133.68 133.66,-128.51"/>
<polygon fill="midnightblue" stroke="midnightblue" points="194.67,-148.29 205.24,-147.47 196.47,-141.52 194.67,-148.29"/>
</g>
<!-- Node5&#45;&gt;Node3 -->
<g id="edge6" class="edge">
<title>Node5&#45;&gt;Node3</title>
<path fill="none" stroke="midnightblue" d="M177.82,-113.5C169.24,-113.5 160.57,-113.5 152.1,-113.5"/>
<polygon fill="midnightblue" stroke="midnightblue" points="177.82,-117 187.82,-113.5 177.82,-110 177.82,-117"/>
</g>
<!-- Node6&#45;&gt;Node3 -->
<g id="edge8" class="edge">
<title>Node6&#45;&gt;Node3</title>
<path fill="none" stroke="midnightblue" d="M195.46,-82.12C175.22,-87.48 153.18,-93.32 133.66,-98.49"/>
<polygon fill="midnightblue" stroke="midnightblue" points="196.47,-85.48 205.24,-79.53 194.67,-78.71 196.47,-85.48"/>
</g>
<!-- Node7&#45;&gt;Node3 -->
<g id="edge10" class="edge">
<title>Node7&#45;&gt;Node3</title>
<path fill="none" stroke="midnightblue" d="M202.16,-34.23C197.31,-36.2 192.53,-38.29 188,-40.5 154,-57.08 118.01,-82.38 96.53,-98.42"/>
<polygon fill="midnightblue" stroke="midnightblue" points="203.47,-37.47 211.54,-30.61 200.95,-30.94 203.47,-37.47"/>
</g>
</g>
</svg>
