<?xml version="1.0" encoding="UTF-8" standalone="no"?>
<!DOCTYPE svg PUBLIC "-//W3C//DTD SVG 1.1//EN"
 "http://www.w3.org/Graphics/SVG/1.1/DTD/svg11.dtd">
<!-- Generated by graphviz version 14.1.4 (20260321.0153)
 -->
<!-- Title: sensesp::get_random_hex_string Pages: 1 -->
<svg width="532pt" height="137pt"
 viewBox="0.00 0.00 532.00 137.00" xmlns="http://www.w3.org/2000/svg" xmlns:xlink="http://www.w3.org/1999/xlink">
<g id="graph0" class="graph" transform="scale(1 1) rotate(0) translate(4 132.5)">
<title>sensesp::get_random_hex_string</title>
<!-- Node1 -->
<g id="Node000001" class="node">
<title>Node1</title>
<g id="a_Node000001"><a xlink:title=" ">
<polygon fill="#999999" stroke="#666666" points="524.25,-79.5 414.5,-79.5 414.5,-49 524.25,-49 524.25,-79.5"/>
<text xml:space="preserve" text-anchor="start" x="422.5" y="-66" font-family="Helvetica,sans-Serif" font-size="10.00">sensesp::get_random</text>
<text xml:space="preserve" text-anchor="middle" x="469.38" y="-54.75" font-family="Helvetica,sans-Serif" font-size="10.00">_hex_string</text>
</a>
</g>
</g>
<!-- Node2 -->
<g id="Node000002" class="node">
<title>Node2</title>
<g id="a_Node000002"><a xlink:href="classsensesp_1_1_h_t_t_p_digest_authenticator.html#ac3914892f3cfdd75be15920ccab38c0a" target="_top" xlink:title=" ">
<polygon fill="white" stroke="#666666" points="378.5,-128.5 207.25,-128.5 207.25,-98 378.5,-98 378.5,-128.5"/>
<text xml:space="preserve" text-anchor="start" x="215.25" y="-115" font-family="Helvetica,sans-Serif" font-size="10.00">sensesp::HTTPDigestAuthenticator</text>
<text xml:space="preserve" text-anchor="middle" x="292.88" y="-103.75" font-family="Helvetica,sans-Serif" font-size="10.00">::HTTPDigestAuthenticator</text>
</a>
</g>
</g>
<!-- Node1&#45;&gt;Node2 -->
<g id="edge1_Node000001_Node000002" class="edge">
<title>Node1&#45;&gt;Node2</title>
<g id="a_edge1_Node000001_Node000002"><a xlink:title=" ">
<path fill="none" stroke="#63b8ff" d="M403.37,-82.5C385.8,-87.44 366.94,-92.73 349.91,-97.52"/>
<polygon fill="#63b8ff" stroke="#63b8ff" points="403.98,-85.97 412.66,-79.89 402.09,-79.23 403.98,-85.97"/>
</a>
</g>
</g>
<!-- Node3 -->
<g id="Node000003" class="node">
<title>Node3</title>
<g id="a_Node000003"><a xlink:href="classsensesp_1_1_h_t_t_p_digest_authenticator.html#ac0c22a9a21545870dd2523ea023b540b" target="_top" xlink:title=" ">
<polygon fill="white" stroke="#666666" points="378.5,-79.5 207.25,-79.5 207.25,-49 378.5,-49 378.5,-79.5"/>
<text xml:space="preserve" text-anchor="start" x="215.25" y="-66" font-family="Helvetica,sans-Serif" font-size="10.00">sensesp::HTTPDigestAuthenticator</text>
<text xml:space="preserve" text-anchor="middle" x="292.88" y="-54.75" font-family="Helvetica,sans-Serif" font-size="10.00">::HTTPDigestAuthenticator</text>
</a>
</g>
</g>
<!-- Node1&#45;&gt;Node3 -->
<g id="edge2_Node000001_Node000003" class="edge">
<title>Node1&#45;&gt;Node3</title>
<g id="a_edge2_Node000001_Node000003"><a xlink:title=" ">
<path fill="none" stroke="#63b8ff" d="M402.85,-64.25C395.01,-64.25 386.92,-64.25 378.86,-64.25"/>
<polygon fill="#63b8ff" stroke="#63b8ff" points="402.61,-67.75 412.61,-64.25 402.61,-60.75 402.61,-67.75"/>
</a>
</g>
</g>
<!-- Node4 -->
<g id="Node000004" class="node">
<title>Node4</title>
<g id="a_Node000004"><a xlink:href="classsensesp_1_1_h_t_t_p_digest_authenticator.html#abb9cef3e3ba81368587382a3cb649d61" target="_top" xlink:title=" ">
<polygon fill="white" stroke="#666666" points="378.5,-30.5 207.25,-30.5 207.25,0 378.5,0 378.5,-30.5"/>
<text xml:space="preserve" text-anchor="start" x="215.25" y="-17" font-family="Helvetica,sans-Serif" font-size="10.00">sensesp::HTTPDigestAuthenticator</text>
<text xml:space="preserve" text-anchor="middle" x="292.88" y="-5.75" font-family="Helvetica,sans-Serif" font-size="10.00">::request_authentication</text>
</a>
</g>
</g>
<!-- Node1&#45;&gt;Node4 -->
<g id="edge3_Node000001_Node000004" class="edge">
<title>Node1&#45;&gt;Node4</title>
<g id="a_edge3_Node000001_Node000004"><a xlink:title=" ">
<path fill="none" stroke="#63b8ff" d="M403.37,-46C385.8,-41.06 366.94,-35.77 349.91,-30.98"/>
<polygon fill="#63b8ff" stroke="#63b8ff" points="402.09,-49.27 412.66,-48.61 403.98,-42.53 402.09,-49.27"/>
</a>
</g>
</g>
<!-- Node5 -->
<g id="Node000005" class="node">
<title>Node5</title>
<g id="a_Node000005"><a xlink:href="classsensesp_1_1_h_t_t_p_digest_authenticator.html#a6292350b7aa2621423fb9ffcc2a39173" target="_top" xlink:title="Authenticate an incoming request.">
<polygon fill="white" stroke="#666666" points="171.25,-30.5 0,-30.5 0,0 171.25,0 171.25,-30.5"/>
<text xml:space="preserve" text-anchor="start" x="8" y="-17" font-family="Helvetica,sans-Serif" font-size="10.00">sensesp::HTTPDigestAuthenticator</text>
<text xml:space="preserve" text-anchor="middle" x="85.62" y="-5.75" font-family="Helvetica,sans-Serif" font-size="10.00">::authenticate_request</text>
</a>
</g>
</g>
<!-- Node4&#45;&gt;Node5 -->
<g id="edge4_Node000004_Node000005" class="edge">
<title>Node4&#45;&gt;Node5</title>
<g id="a_edge4_Node000004_Node000005"><a xlink:title=" ">
<path fill="none" stroke="#63b8ff" d="M195.6,-15.25C187.56,-15.25 179.47,-15.25 171.53,-15.25"/>
<polygon fill="#63b8ff" stroke="#63b8ff" points="195.4,-18.75 205.4,-15.25 195.4,-11.75 195.4,-18.75"/>
</a>
</g>
</g>
</g>
</svg>
