<?xml version="1.0" encoding="UTF-8" standalone="no"?>
<!DOCTYPE svg PUBLIC "-//W3C//DTD SVG 1.1//EN"
 "http://www.w3.org/Graphics/SVG/1.1/DTD/svg11.dtd">
<!-- Generated by graphviz version 7.1.0 (20230121.1956)
 -->
<!-- Title: sensesp::ExecuteWebSocketTask Pages: 1 -->
<svg width="914pt" height="215pt"
 viewBox="0.00 0.00 914.00 215.00" xmlns="http://www.w3.org/2000/svg" xmlns:xlink="http://www.w3.org/1999/xlink">
<g id="graph0" class="graph" transform="scale(1 1) rotate(0) translate(4 211)">
<title>sensesp::ExecuteWebSocketTask</title>
<!-- Node1 -->
<g id="node1" class="node">
<title>Node1</title>
<g id="a_node1"><a xlink:title=" ">
<polygon fill="#999999" stroke="#666666" points="167,-158.5 0,-158.5 0,-139.5 167,-139.5 167,-158.5"/>
<text text-anchor="middle" x="83.5" y="-146.5" font-family="Helvetica,sans-Serif" font-size="10.00">sensesp::ExecuteWebSocketTask</text>
</a>
</g>
</g>
<!-- Node2 -->
<g id="node2" class="node">
<title>Node2</title>
<g id="a_node2"><a xlink:href="classsensesp_1_1_w_s_client.html#abcf72e6105190db47956fc9a2ead87b9" target="_top" xlink:title=" ">
<polygon fill="white" stroke="#666666" points="319,-207 212,-207 212,-177 319,-177 319,-207"/>
<text text-anchor="start" x="220" y="-195" font-family="Helvetica,sans-Serif" font-size="10.00">sensesp::WSClient::</text>
<text text-anchor="middle" x="265.5" y="-184" font-family="Helvetica,sans-Serif" font-size="10.00">connect</text>
</a>
</g>
</g>
<!-- Node1&#45;&gt;Node2 -->
<g id="edge1" class="edge">
<title>Node1&#45;&gt;Node2</title>
<path fill="none" stroke="#63b8ff" d="M126.25,-158.97C148.31,-164.24 175.87,-170.83 200.57,-176.73"/>
<polygon fill="#63b8ff" stroke="#63b8ff" points="199.67,-180.11 210.21,-179.03 201.29,-173.3 199.67,-180.11"/>
</g>
<!-- Node3 -->
<g id="node3" class="node">
<title>Node3</title>
<g id="a_node3"><a xlink:href="classsensesp_1_1_w_s_client.html#a37c79af799d21e51d238f40d00e49ceb" target="_top" xlink:title=" ">
<polygon fill="white" stroke="#666666" points="328,-158.5 203,-158.5 203,-139.5 328,-139.5 328,-158.5"/>
<text text-anchor="middle" x="265.5" y="-146.5" font-family="Helvetica,sans-Serif" font-size="10.00">sensesp::WSClient::loop</text>
</a>
</g>
</g>
<!-- Node1&#45;&gt;Node3 -->
<g id="edge2" class="edge">
<title>Node1&#45;&gt;Node3</title>
<path fill="none" stroke="#63b8ff" d="M167.39,-149C175.38,-149 183.46,-149 191.35,-149"/>
<polygon fill="#63b8ff" stroke="#63b8ff" points="191.24,-152.5 201.24,-149 191.24,-145.5 191.24,-152.5"/>
</g>
<!-- Node4 -->
<g id="node4" class="node">
<title>Node4</title>
<g id="a_node4"><a xlink:href="classsensesp_1_1_w_s_client.html#a5553fc62b2382a529d1ff86f219ea7c5" target="_top" xlink:title=" ">
<polygon fill="white" stroke="#666666" points="319,-121 212,-121 212,-91 319,-91 319,-121"/>
<text text-anchor="start" x="220" y="-109" font-family="Helvetica,sans-Serif" font-size="10.00">sensesp::WSClient::</text>
<text text-anchor="middle" x="265.5" y="-98" font-family="Helvetica,sans-Serif" font-size="10.00">send_delta</text>
</a>
</g>
</g>
<!-- Node1&#45;&gt;Node4 -->
<g id="edge3" class="edge">
<title>Node1&#45;&gt;Node4</title>
<path fill="none" stroke="#63b8ff" d="M126.25,-139.03C148.31,-133.76 175.87,-127.17 200.57,-121.27"/>
<polygon fill="#63b8ff" stroke="#63b8ff" points="201.29,-124.7 210.21,-118.97 199.67,-117.89 201.29,-124.7"/>
</g>
<!-- Node5 -->
<g id="node5" class="node">
<title>Node5</title>
<g id="a_node5"><a xlink:href="classsensesp_1_1_s_k_delta_queue.html#a739868615cbe7d97bdc30b7c42c3e9f9" target="_top" xlink:title=" ">
<polygon fill="white" stroke="#666666" points="510,-169 385,-169 385,-139 510,-139 510,-169"/>
<text text-anchor="start" x="393" y="-157" font-family="Helvetica,sans-Serif" font-size="10.00">sensesp::SKDeltaQueue</text>
<text text-anchor="middle" x="447.5" y="-146" font-family="Helvetica,sans-Serif" font-size="10.00">::data_available</text>
</a>
</g>
</g>
<!-- Node4&#45;&gt;Node5 -->
<g id="edge4" class="edge">
<title>Node4&#45;&gt;Node5</title>
<path fill="none" stroke="#63b8ff" d="M319.05,-120.01C337.35,-124.89 358.16,-130.44 377.59,-135.62"/>
<polygon fill="#63b8ff" stroke="#63b8ff" points="376.5,-138.96 387.06,-138.15 378.3,-132.19 376.5,-138.96"/>
</g>
<!-- Node8 -->
<g id="node8" class="node">
<title>Node8</title>
<g id="a_node8"><a xlink:href="classsensesp_1_1_s_k_delta_queue.html#a26dc17fc9fa31804552240f81efa35ac" target="_top" xlink:title=" ">
<polygon fill="white" stroke="#666666" points="510,-121 385,-121 385,-91 510,-91 510,-121"/>
<text text-anchor="start" x="393" y="-109" font-family="Helvetica,sans-Serif" font-size="10.00">sensesp::SKDeltaQueue</text>
<text text-anchor="middle" x="447.5" y="-98" font-family="Helvetica,sans-Serif" font-size="10.00">::get_delta</text>
</a>
</g>
</g>
<!-- Node4&#45;&gt;Node8 -->
<g id="edge7" class="edge">
<title>Node4&#45;&gt;Node8</title>
<path fill="none" stroke="#63b8ff" d="M319.05,-106C335.98,-106 355.07,-106 373.22,-106"/>
<polygon fill="#63b8ff" stroke="#63b8ff" points="373.16,-109.5 383.16,-106 373.16,-102.5 373.16,-109.5"/>
</g>
<!-- Node13 -->
<g id="node13" class="node">
<title>Node13</title>
<g id="a_node13"><a xlink:href="classsensesp_1_1_task_queue_producer.html#a84c3e669b369d514c3210b1bf284e9ee" target="_top" xlink:title=" ">
<polygon fill="white" stroke="#666666" points="531,-72.5 364,-72.5 364,-53.5 531,-53.5 531,-72.5"/>
<text text-anchor="middle" x="447.5" y="-60.5" font-family="Helvetica,sans-Serif" font-size="10.00">sensesp::TaskQueueProducer::set</text>
</a>
</g>
</g>
<!-- Node4&#45;&gt;Node13 -->
<g id="edge14" class="edge">
<title>Node4&#45;&gt;Node13</title>
<path fill="none" stroke="#63b8ff" d="M319.34,-92.84C333.81,-89.28 349.5,-85.45 364,-82 372.95,-79.87 382.45,-77.65 391.7,-75.5"/>
<polygon fill="#63b8ff" stroke="#63b8ff" points="392.37,-78.94 401.32,-73.28 390.79,-72.12 392.37,-78.94"/>
</g>
<!-- Node6 -->
<g id="node6" class="node">
<title>Node6</title>
<g id="a_node6"><a xlink:href="classsensesp_1_1_s_k_delta_queue.html#a8c79cbfdc595e971219eb12e99387ea7" target="_top" xlink:title=" ">
<polygon fill="white" stroke="#666666" points="700.5,-121 575.5,-121 575.5,-91 700.5,-91 700.5,-121"/>
<text text-anchor="start" x="583.5" y="-109" font-family="Helvetica,sans-Serif" font-size="10.00">sensesp::SKDeltaQueue</text>
<text text-anchor="middle" x="638" y="-98" font-family="Helvetica,sans-Serif" font-size="10.00">::release_semaphore</text>
</a>
</g>
</g>
<!-- Node5&#45;&gt;Node6 -->
<g id="edge5" class="edge">
<title>Node5&#45;&gt;Node6</title>
<path fill="none" stroke="#63b8ff" d="M509.18,-138.55C527.09,-133.99 546.86,-128.95 565.39,-124.24"/>
<polygon fill="#63b8ff" stroke="#63b8ff" points="566.14,-127.66 574.97,-121.8 564.41,-120.87 566.14,-127.66"/>
</g>
<!-- Node7 -->
<g id="node7" class="node">
<title>Node7</title>
<g id="a_node7"><a xlink:href="classsensesp_1_1_s_k_delta_queue.html#a9aacaa1a4bb077c829240a2f165f9a44" target="_top" xlink:title=" ">
<polygon fill="white" stroke="#666666" points="700.5,-169 575.5,-169 575.5,-139 700.5,-139 700.5,-169"/>
<text text-anchor="start" x="583.5" y="-157" font-family="Helvetica,sans-Serif" font-size="10.00">sensesp::SKDeltaQueue</text>
<text text-anchor="middle" x="638" y="-146" font-family="Helvetica,sans-Serif" font-size="10.00">::take_semaphore</text>
</a>
</g>
</g>
<!-- Node5&#45;&gt;Node7 -->
<g id="edge6" class="edge">
<title>Node5&#45;&gt;Node7</title>
<path fill="none" stroke="#63b8ff" d="M510.48,-154C527.56,-154 546.24,-154 563.89,-154"/>
<polygon fill="#63b8ff" stroke="#63b8ff" points="563.79,-157.5 573.79,-154 563.79,-150.5 563.79,-157.5"/>
</g>
<!-- Node8&#45;&gt;Node6 -->
<g id="edge12" class="edge">
<title>Node8&#45;&gt;Node6</title>
<path fill="none" stroke="#63b8ff" d="M510.48,-106C527.56,-106 546.24,-106 563.89,-106"/>
<polygon fill="#63b8ff" stroke="#63b8ff" points="563.79,-109.5 573.79,-106 563.79,-102.5 563.79,-109.5"/>
</g>
<!-- Node8&#45;&gt;Node7 -->
<g id="edge13" class="edge">
<title>Node8&#45;&gt;Node7</title>
<path fill="none" stroke="#63b8ff" d="M509.18,-121.45C527.09,-126.01 546.86,-131.05 565.39,-135.76"/>
<polygon fill="#63b8ff" stroke="#63b8ff" points="564.41,-139.13 574.97,-138.2 566.14,-132.34 564.41,-139.13"/>
</g>
<!-- Node9 -->
<g id="node9" class="node">
<title>Node9</title>
<g id="a_node9"><a xlink:href="classsensesp_1_1_sens_e_s_p_base_app.html#a928c309a2dc17f82edefe9e5bc7ef33d" target="_top" xlink:title="Get the current hostname.">
<polygon fill="white" stroke="#666666" points="709,-73 567,-73 567,-43 709,-43 709,-73"/>
<text text-anchor="start" x="575" y="-61" font-family="Helvetica,sans-Serif" font-size="10.00">sensesp::SensESPBaseApp</text>
<text text-anchor="middle" x="638" y="-50" font-family="Helvetica,sans-Serif" font-size="10.00">::get_hostname</text>
</a>
</g>
</g>
<!-- Node8&#45;&gt;Node9 -->
<g id="edge8" class="edge">
<title>Node8&#45;&gt;Node9</title>
<path fill="none" stroke="#63b8ff" d="M509.18,-90.55C527.09,-85.99 546.86,-80.95 565.39,-76.24"/>
<polygon fill="#63b8ff" stroke="#63b8ff" points="566.14,-79.66 574.97,-73.8 564.41,-72.87 566.14,-79.66"/>
</g>
<!-- Node10 -->
<g id="node10" class="node">
<title>Node10</title>
<g id="a_node10"><a xlink:href="classsensesp_1_1_sens_e_s_p_base_app.html#a2df22469c69a8a1234ab673386f574d6" target="_top" xlink:title="Get the singleton instance of the SensESPBaseApp.">
<polygon fill="white" stroke="#666666" points="906,-104.5 745,-104.5 745,-85.5 906,-85.5 906,-104.5"/>
<text text-anchor="middle" x="825.5" y="-92.5" font-family="Helvetica,sans-Serif" font-size="10.00">sensesp::SensESPBaseApp::get</text>
</a>
</g>
</g>
<!-- Node9&#45;&gt;Node10 -->
<g id="edge9" class="edge">
<title>Node9&#45;&gt;Node10</title>
<path fill="none" stroke="#63b8ff" d="M709.39,-72.04C727.22,-75.6 746.21,-79.38 763.53,-82.84"/>
<polygon fill="#63b8ff" stroke="#63b8ff" points="762.66,-86.23 773.15,-84.76 764.03,-79.37 762.66,-86.23"/>
</g>
<!-- Node11 -->
<g id="node11" class="node">
<title>Node11</title>
<g id="a_node11"><a xlink:href="classsensesp_1_1_value_producer.html#a438390eae6bba056ecf4ab329cb5c8e9" target="_top" xlink:title=" ">
<polygon fill="white" stroke="#666666" points="896.5,-67.5 754.5,-67.5 754.5,-48.5 896.5,-48.5 896.5,-67.5"/>
<text text-anchor="middle" x="825.5" y="-55.5" font-family="Helvetica,sans-Serif" font-size="10.00">sensesp::ValueProducer::get</text>
</a>
</g>
</g>
<!-- Node9&#45;&gt;Node11 -->
<g id="edge10" class="edge">
<title>Node9&#45;&gt;Node11</title>
<path fill="none" stroke="#63b8ff" d="M709.39,-58C720.27,-58 731.59,-58 742.69,-58"/>
<polygon fill="#63b8ff" stroke="#63b8ff" points="742.64,-61.5 752.64,-58 742.64,-54.5 742.64,-61.5"/>
</g>
<!-- Node12 -->
<g id="node12" class="node">
<title>Node12</title>
<g id="a_node12"><a xlink:href="classsensesp_1_1_sens_e_s_p_base_app.html#ade8960b96e439f4cc0b387c312999dd5" target="_top" xlink:title="Get the hostname observable object.">
<polygon fill="white" stroke="#666666" points="896.5,-30 754.5,-30 754.5,0 896.5,0 896.5,-30"/>
<text text-anchor="start" x="762.5" y="-18" font-family="Helvetica,sans-Serif" font-size="10.00">sensesp::SensESPBaseApp</text>
<text text-anchor="middle" x="825.5" y="-7" font-family="Helvetica,sans-Serif" font-size="10.00">::get_hostname_observable</text>
</a>
</g>
</g>
<!-- Node9&#45;&gt;Node12 -->
<g id="edge11" class="edge">
<title>Node9&#45;&gt;Node12</title>
<path fill="none" stroke="#63b8ff" d="M705.71,-42.54C719.07,-39.44 733.21,-36.16 746.9,-32.99"/>
<polygon fill="#63b8ff" stroke="#63b8ff" points="747.34,-36.48 756.29,-30.81 745.75,-29.66 747.34,-36.48"/>
</g>
</g>
</svg>
