<?xml version="1.0" encoding="UTF-8" standalone="no"?>
<!DOCTYPE svg PUBLIC "-//W3C//DTD SVG 1.1//EN"
 "http://www.w3.org/Graphics/SVG/1.1/DTD/svg11.dtd">
<!-- Generated by graphviz version 2.49.3 (20211023.0002)
 -->
<!-- Title: src/sensesp/net/networking.h Pages: 1 -->
<!--zoomable 375 -->
<svg id="main" version="1.1" xmlns="http://www.w3.org/2000/svg" xmlns:xlink="http://www.w3.org/1999/xlink" xml:space="preserve" onload="init(evt)">
<style type="text/css"><![CDATA[
.edge:hover path { stroke: red; }
.edge:hover polygon { stroke: red; fill: red; }
]]></style>
<script type="text/javascript"><![CDATA[
var edges = document.getElementsByTagName('g');
if (edges && edges.length) {
  for (var i=0;i<edges.length;i++) {
    if (edges[i].id.substr(0,4)=='edge') {
      edges[i].setAttribute('class','edge');
    }
  }
}
]]></script>
        <defs>
                <circle id="rim" cx="0" cy="0" r="7"/>
                <circle id="rim2" cx="0" cy="0" r="3.5"/>
                <g id="zoomPlus">
                        <use xlink:href="#rim" fill="#404040">
                                <set attributeName="fill" to="#808080" begin="zoomplus.mouseover" end="zoomplus.mouseout"/>
                        </use>
                        <path d="M-4,0h8M0,-4v8" fill="none" stroke="white" stroke-width="1.5" pointer-events="none"/>
                </g>
                <g id="zoomMin">
                        <use xlink:href="#rim" fill="#404040">
                                <set attributeName="fill" to="#808080" begin="zoomminus.mouseover" end="zoomminus.mouseout"/>
                        </use>
                        <path d="M-4,0h8" fill="none" stroke="white" stroke-width="1.5" pointer-events="none"/>
                </g>
                <g id="dirArrow">
                        <path fill="none" stroke="white" stroke-width="1.5" d="M0,-3.0v7 M-2.5,-0.5L0,-3.0L2.5,-0.5"/>
                </g>
               <g id="resetDef">
                       <use xlink:href="#rim2" fill="#404040">
                               <set attributeName="fill" to="#808080" begin="reset.mouseover" end="reset.mouseout"/>
                       </use>
               </g>
        </defs>

<script type="text/javascript">
var viewWidth = 977;
var viewHeight = 375;
var sectionId = 'dynsection-0';
</script>
<script xlink:href="svgpan.js"/>
<svg id="graph" class="graph">
<g id="viewport">
<title>src/sensesp/net/networking.h</title>
<polygon fill="white" stroke="transparent" points="-4,4 -4,-371 973,-371 973,4 -4,4"/>
<!-- Node1 -->
<g id="node1" class="node">
<title>Node1</title>
<g id="a_node1"><a xlink:title=" ">
<polygon fill="#bfbfbf" stroke="black" points="286,-347.5 286,-366.5 432,-366.5 432,-347.5 286,-347.5"/>
<text text-anchor="middle" x="359" y="-354.5" font-family="Helvetica,sans-Serif" font-size="10.00">src/sensesp/net/networking.h</text>
</a>
</g>
</g>
<!-- Node2 -->
<g id="node2" class="node">
<title>Node2</title>
<g id="a_node2"><a xlink:title=" ">
<polygon fill="white" stroke="#bfbfbf" points="68.5,-0.5 68.5,-19.5 127.5,-19.5 127.5,-0.5 68.5,-0.5"/>
<text text-anchor="middle" x="98" y="-7.5" font-family="Helvetica,sans-Serif" font-size="10.00">Arduino.h</text>
</a>
</g>
</g>
<!-- Node1&#45;&gt;Node2 -->
<g id="edge1" class="edge">
<title>Node1&#45;&gt;Node2</title>
<path fill="none" stroke="midnightblue" d="M285.92,-348.56C180.95,-335.81 0,-305.24 0,-246 0,-246 0,-246 0,-132 0,-84.47 46.22,-45.16 75.18,-25.19"/>
<polygon fill="midnightblue" stroke="midnightblue" points="77.15,-28.08 83.54,-19.63 73.28,-22.25 77.15,-28.08"/>
</g>
<!-- Node3 -->
<g id="node3" class="node">
<title>Node3</title>
<g id="a_node3"><a xlink:title=" ">
<polygon fill="white" stroke="#bfbfbf" points="381.5,-291.5 381.5,-310.5 502.5,-310.5 502.5,-291.5 381.5,-291.5"/>
<text text-anchor="middle" x="442" y="-298.5" font-family="Helvetica,sans-Serif" font-size="10.00">ESPAsyncWebServer.h</text>
</a>
</g>
</g>
<!-- Node1&#45;&gt;Node3 -->
<g id="edge2" class="edge">
<title>Node1&#45;&gt;Node3</title>
<path fill="none" stroke="midnightblue" d="M372.34,-347.32C385.16,-338.98 404.78,-326.21 419.94,-316.35"/>
<polygon fill="midnightblue" stroke="midnightblue" points="422.22,-319.04 428.7,-310.65 418.41,-313.17 422.22,-319.04"/>
</g>
<!-- Node4 -->
<g id="node4" class="node">
<title>Node4</title>
<g id="a_node4"><a xlink:title=" ">
<polygon fill="white" stroke="#bfbfbf" points="521,-291.5 521,-310.5 651,-310.5 651,-291.5 521,-291.5"/>
<text text-anchor="middle" x="586" y="-298.5" font-family="Helvetica,sans-Serif" font-size="10.00">ESPAsyncWiFiManager.h</text>
</a>
</g>
</g>
<!-- Node1&#45;&gt;Node4 -->
<g id="edge3" class="edge">
<title>Node1&#45;&gt;Node4</title>
<path fill="none" stroke="midnightblue" d="M394.97,-347.44C434.32,-338.08 497.49,-323.06 540.31,-312.87"/>
<polygon fill="midnightblue" stroke="midnightblue" points="541.28,-316.24 550.2,-310.52 539.66,-309.43 541.28,-316.24"/>
</g>
<!-- Node5 -->
<g id="node5" class="node">
<title>Node5</title>
<g id="a_node5"><a xlink:href="configurable_8h.html" target="_top" xlink:title=" ">
<polygon fill="white" stroke="black" points="28,-179.5 28,-198.5 182,-198.5 182,-179.5 28,-179.5"/>
<text text-anchor="middle" x="105" y="-186.5" font-family="Helvetica,sans-Serif" font-size="10.00">sensesp/system/configurable.h</text>
</a>
</g>
</g>
<!-- Node1&#45;&gt;Node5 -->
<g id="edge4" class="edge">
<title>Node1&#45;&gt;Node5</title>
<path fill="none" stroke="midnightblue" d="M285.57,-351.73C249.02,-346.43 205.95,-335.06 174,-311 139.03,-284.66 119.01,-235.05 110.29,-208.27"/>
<polygon fill="midnightblue" stroke="midnightblue" points="113.6,-207.14 107.31,-198.61 106.91,-209.2 113.6,-207.14"/>
</g>
<!-- Node8 -->
<g id="node8" class="node">
<title>Node8</title>
<g id="a_node8"><a xlink:href="observablevalue_8h.html" target="_top" xlink:title=" ">
<polygon fill="white" stroke="black" points="191,-291.5 191,-310.5 363,-310.5 363,-291.5 191,-291.5"/>
<text text-anchor="middle" x="277" y="-298.5" font-family="Helvetica,sans-Serif" font-size="10.00">sensesp/system/observablevalue.h</text>
</a>
</g>
</g>
<!-- Node1&#45;&gt;Node8 -->
<g id="edge8" class="edge">
<title>Node1&#45;&gt;Node8</title>
<path fill="none" stroke="midnightblue" d="M345.83,-347.32C333.15,-338.98 313.77,-326.21 298.79,-316.35"/>
<polygon fill="midnightblue" stroke="midnightblue" points="300.42,-313.23 290.14,-310.65 296.57,-319.08 300.42,-313.23"/>
</g>
<!-- Node13 -->
<g id="node13" class="node">
<title>Node13</title>
<g id="a_node13"><a xlink:href="valueproducer_8h.html" target="_top" xlink:title=" ">
<polygon fill="white" stroke="black" points="233,-235.5 233,-254.5 321,-254.5 321,-235.5 233,-235.5"/>
<text text-anchor="middle" x="277" y="-242.5" font-family="Helvetica,sans-Serif" font-size="10.00">valueproducer.h</text>
</a>
</g>
</g>
<!-- Node1&#45;&gt;Node13 -->
<g id="edge28" class="edge">
<title>Node1&#45;&gt;Node13</title>
<path fill="none" stroke="midnightblue" d="M291.3,-347.45C247.28,-340.34 195.62,-328.52 182,-311 163.35,-287.02 200.34,-268.6 233.47,-257.59"/>
<polygon fill="midnightblue" stroke="midnightblue" points="234.63,-260.9 243.11,-254.55 232.52,-254.22 234.63,-260.9"/>
</g>
<!-- Node20 -->
<g id="node20" class="node">
<title>Node20</title>
<g id="a_node20"><a xlink:href="resettable_8h.html" target="_top" xlink:title=" ">
<polygon fill="white" stroke="black" points="669.5,-291.5 669.5,-310.5 812.5,-310.5 812.5,-291.5 669.5,-291.5"/>
<text text-anchor="middle" x="741" y="-298.5" font-family="Helvetica,sans-Serif" font-size="10.00">sensesp/system/resettable.h</text>
</a>
</g>
</g>
<!-- Node1&#45;&gt;Node20 -->
<g id="edge24" class="edge">
<title>Node1&#45;&gt;Node20</title>
<path fill="none" stroke="midnightblue" d="M419.53,-347.44C487.7,-337.81 598.36,-322.16 670.41,-311.98"/>
<polygon fill="midnightblue" stroke="midnightblue" points="671.34,-315.38 680.75,-310.52 670.36,-308.45 671.34,-315.38"/>
</g>
<!-- Node22 -->
<g id="node22" class="node">
<title>Node22</title>
<g id="a_node22"><a xlink:href="startable_8h.html" target="_top" xlink:title=" ">
<polygon fill="white" stroke="black" points="831,-291.5 831,-310.5 969,-310.5 969,-291.5 831,-291.5"/>
<text text-anchor="middle" x="900" y="-298.5" font-family="Helvetica,sans-Serif" font-size="10.00">sensesp/system/startable.h</text>
</a>
</g>
</g>
<!-- Node1&#45;&gt;Node22 -->
<g id="edge26" class="edge">
<title>Node1&#45;&gt;Node22</title>
<path fill="none" stroke="midnightblue" d="M432.02,-349.31C521.15,-341.06 676.76,-326.35 820.37,-311.16"/>
<polygon fill="midnightblue" stroke="midnightblue" points="821.11,-314.6 830.68,-310.06 820.37,-307.64 821.11,-314.6"/>
</g>
<!-- Node5&#45;&gt;Node2 -->
<g id="edge7" class="edge">
<title>Node5&#45;&gt;Node2</title>
<path fill="none" stroke="midnightblue" d="M104.66,-179.46C103.59,-152.43 100.26,-68.24 98.76,-30.11"/>
<polygon fill="midnightblue" stroke="midnightblue" points="102.24,-29.72 98.35,-19.87 95.25,-30 102.24,-29.72"/>
</g>
<!-- Node6 -->
<g id="node6" class="node">
<title>Node6</title>
<g id="a_node6"><a xlink:title=" ">
<polygon fill="white" stroke="#bfbfbf" points="126,-123.5 126,-142.5 206,-142.5 206,-123.5 126,-123.5"/>
<text text-anchor="middle" x="166" y="-130.5" font-family="Helvetica,sans-Serif" font-size="10.00">ArduinoJson.h</text>
</a>
</g>
</g>
<!-- Node5&#45;&gt;Node6 -->
<g id="edge5" class="edge">
<title>Node5&#45;&gt;Node6</title>
<path fill="none" stroke="midnightblue" d="M114.8,-179.32C123.82,-171.34 137.41,-159.31 148.32,-149.65"/>
<polygon fill="midnightblue" stroke="midnightblue" points="150.85,-152.08 156.02,-142.83 146.21,-146.84 150.85,-152.08"/>
</g>
<!-- Node7 -->
<g id="node7" class="node">
<title>Node7</title>
<g id="a_node7"><a xlink:title=" ">
<polygon fill="white" stroke="#bfbfbf" points="34,-123.5 34,-142.5 70,-142.5 70,-123.5 34,-123.5"/>
<text text-anchor="middle" x="52" y="-130.5" font-family="Helvetica,sans-Serif" font-size="10.00">map</text>
</a>
</g>
</g>
<!-- Node5&#45;&gt;Node7 -->
<g id="edge6" class="edge">
<title>Node5&#45;&gt;Node7</title>
<path fill="none" stroke="midnightblue" d="M96.25,-179.08C88.53,-171.22 77.1,-159.57 67.78,-150.08"/>
<polygon fill="midnightblue" stroke="midnightblue" points="70.09,-147.44 60.59,-142.75 65.1,-152.34 70.09,-147.44"/>
</g>
<!-- Node9 -->
<g id="node9" class="node">
<title>Node9</title>
<g id="a_node9"><a xlink:href="observable_8h.html" target="_top" xlink:title=" ">
<polygon fill="white" stroke="black" points="369,-179.5 369,-198.5 443,-198.5 443,-179.5 369,-179.5"/>
<text text-anchor="middle" x="406" y="-186.5" font-family="Helvetica,sans-Serif" font-size="10.00">observable.h</text>
</a>
</g>
</g>
<!-- Node8&#45;&gt;Node9 -->
<g id="edge9" class="edge">
<title>Node8&#45;&gt;Node9</title>
<path fill="none" stroke="midnightblue" d="M287.17,-291.38C297.85,-282.33 315.12,-267.68 330,-255 349.85,-238.09 372.56,-218.65 387.95,-205.47"/>
<polygon fill="midnightblue" stroke="midnightblue" points="390.37,-208.01 395.68,-198.84 385.81,-202.69 390.37,-208.01"/>
</g>
<!-- Node8&#45;&gt;Node13 -->
<g id="edge13" class="edge">
<title>Node8&#45;&gt;Node13</title>
<path fill="none" stroke="midnightblue" d="M277,-291.08C277,-284.01 277,-273.86 277,-264.99"/>
<polygon fill="midnightblue" stroke="midnightblue" points="280.5,-264.75 277,-254.75 273.5,-264.75 280.5,-264.75"/>
</g>
<!-- Node10 -->
<g id="node10" class="node">
<title>Node10</title>
<g id="a_node10"><a xlink:title=" ">
<polygon fill="white" stroke="#bfbfbf" points="372,-123.5 372,-142.5 440,-142.5 440,-123.5 372,-123.5"/>
<text text-anchor="middle" x="406" y="-130.5" font-family="Helvetica,sans-Serif" font-size="10.00">forward_list</text>
</a>
</g>
</g>
<!-- Node9&#45;&gt;Node10 -->
<g id="edge10" class="edge">
<title>Node9&#45;&gt;Node10</title>
<path fill="none" stroke="midnightblue" d="M406,-179.08C406,-172.01 406,-161.86 406,-152.99"/>
<polygon fill="midnightblue" stroke="midnightblue" points="409.5,-152.75 406,-142.75 402.5,-152.75 409.5,-152.75"/>
</g>
<!-- Node11 -->
<g id="node11" class="node">
<title>Node11</title>
<g id="a_node11"><a xlink:title=" ">
<polygon fill="white" stroke="#bfbfbf" points="458.5,-123.5 458.5,-142.5 517.5,-142.5 517.5,-123.5 458.5,-123.5"/>
<text text-anchor="middle" x="488" y="-130.5" font-family="Helvetica,sans-Serif" font-size="10.00">functional</text>
</a>
</g>
</g>
<!-- Node9&#45;&gt;Node11 -->
<g id="edge11" class="edge">
<title>Node9&#45;&gt;Node11</title>
<path fill="none" stroke="midnightblue" d="M419.17,-179.32C431.85,-170.98 451.23,-158.21 466.21,-148.35"/>
<polygon fill="midnightblue" stroke="midnightblue" points="468.43,-151.08 474.86,-142.65 464.58,-145.23 468.43,-151.08"/>
</g>
<!-- Node12 -->
<g id="node12" class="node">
<title>Node12</title>
<g id="a_node12"><a xlink:title=" ">
<polygon fill="white" stroke="#bfbfbf" points="536,-123.5 536,-142.5 580,-142.5 580,-123.5 536,-123.5"/>
<text text-anchor="middle" x="558" y="-130.5" font-family="Helvetica,sans-Serif" font-size="10.00">vector</text>
</a>
</g>
</g>
<!-- Node9&#45;&gt;Node12 -->
<g id="edge12" class="edge">
<title>Node9&#45;&gt;Node12</title>
<path fill="none" stroke="midnightblue" d="M430.08,-179.44C455.99,-170.24 497.32,-155.56 525.96,-145.38"/>
<polygon fill="midnightblue" stroke="midnightblue" points="527.26,-148.63 535.51,-141.99 524.92,-142.04 527.26,-148.63"/>
</g>
<!-- Node13&#45;&gt;Node6 -->
<g id="edge14" class="edge">
<title>Node13&#45;&gt;Node6</title>
<path fill="none" stroke="midnightblue" d="M267.31,-235.17C257.52,-226.19 242.03,-211.82 229,-199 212.3,-182.57 193.69,-163.24 181.05,-149.95"/>
<polygon fill="midnightblue" stroke="midnightblue" points="183.45,-147.39 174.03,-142.54 178.37,-152.21 183.45,-147.39"/>
</g>
<!-- Node13&#45;&gt;Node9 -->
<g id="edge15" class="edge">
<title>Node13&#45;&gt;Node9</title>
<path fill="none" stroke="midnightblue" d="M297.44,-235.44C318.67,-226.56 352.1,-212.56 376.25,-202.45"/>
<polygon fill="midnightblue" stroke="midnightblue" points="377.78,-205.61 385.66,-198.52 375.08,-199.15 377.78,-205.61"/>
</g>
<!-- Node14 -->
<g id="node14" class="node">
<title>Node14</title>
<g id="a_node14"><a xlink:href="valueconsumer_8h.html" target="_top" xlink:title=" ">
<polygon fill="white" stroke="black" points="238,-179.5 238,-198.5 330,-198.5 330,-179.5 238,-179.5"/>
<text text-anchor="middle" x="284" y="-186.5" font-family="Helvetica,sans-Serif" font-size="10.00">valueconsumer.h</text>
</a>
</g>
</g>
<!-- Node13&#45;&gt;Node14 -->
<g id="edge16" class="edge">
<title>Node13&#45;&gt;Node14</title>
<path fill="none" stroke="midnightblue" d="M278.16,-235.08C279.08,-227.93 280.42,-217.64 281.58,-208.69"/>
<polygon fill="midnightblue" stroke="midnightblue" points="285.05,-209.12 282.87,-198.75 278.11,-208.22 285.05,-209.12"/>
</g>
<!-- Node14&#45;&gt;Node6 -->
<g id="edge17" class="edge">
<title>Node14&#45;&gt;Node6</title>
<path fill="none" stroke="midnightblue" d="M265.3,-179.44C246.06,-170.64 215.85,-156.81 193.8,-146.72"/>
<polygon fill="midnightblue" stroke="midnightblue" points="195.16,-143.5 184.61,-142.52 192.25,-149.86 195.16,-143.5"/>
</g>
<!-- Node15 -->
<g id="node15" class="node">
<title>Node15</title>
<g id="a_node15"><a xlink:title=" ">
<polygon fill="white" stroke="#bfbfbf" points="224.5,-123.5 224.5,-142.5 273.5,-142.5 273.5,-123.5 224.5,-123.5"/>
<text text-anchor="middle" x="249" y="-130.5" font-family="Helvetica,sans-Serif" font-size="10.00">stdint.h</text>
</a>
</g>
</g>
<!-- Node14&#45;&gt;Node15 -->
<g id="edge18" class="edge">
<title>Node14&#45;&gt;Node15</title>
<path fill="none" stroke="midnightblue" d="M278.22,-179.08C273.33,-171.53 266.17,-160.49 260.17,-151.23"/>
<polygon fill="midnightblue" stroke="midnightblue" points="263.05,-149.24 254.67,-142.75 257.17,-153.05 263.05,-149.24"/>
</g>
<!-- Node16 -->
<g id="node16" class="node">
<title>Node16</title>
<g id="a_node16"><a xlink:href="sensesp_8h.html" target="_top" xlink:title=" ">
<polygon fill="white" stroke="black" points="292,-123.5 292,-142.5 354,-142.5 354,-123.5 292,-123.5"/>
<text text-anchor="middle" x="323" y="-130.5" font-family="Helvetica,sans-Serif" font-size="10.00">sensesp.h</text>
</a>
</g>
</g>
<!-- Node14&#45;&gt;Node16 -->
<g id="edge19" class="edge">
<title>Node14&#45;&gt;Node16</title>
<path fill="none" stroke="midnightblue" d="M290.44,-179.08C295.95,-171.46 304.03,-160.26 310.76,-150.94"/>
<polygon fill="midnightblue" stroke="midnightblue" points="313.66,-152.91 316.68,-142.75 307.99,-148.81 313.66,-152.91"/>
</g>
<!-- Node17 -->
<g id="node17" class="node">
<title>Node17</title>
<g id="a_node17"><a xlink:title=" ">
<polygon fill="white" stroke="#bfbfbf" points="288,-62 288,-81 358,-81 358,-62 288,-62"/>
<text text-anchor="middle" x="323" y="-69" font-family="Helvetica,sans-Serif" font-size="10.00">ReactESP.h</text>
</a>
</g>
</g>
<!-- Node16&#45;&gt;Node17 -->
<g id="edge20" class="edge">
<title>Node16&#45;&gt;Node17</title>
<path fill="none" stroke="midnightblue" d="M323,-123.48C323,-115.08 323,-101.98 323,-91.16"/>
<polygon fill="midnightblue" stroke="midnightblue" points="326.5,-91.01 323,-81.01 319.5,-91.01 326.5,-91.01"/>
</g>
<!-- Node18 -->
<g id="node18" class="node">
<title>Node18</title>
<g id="a_node18"><a xlink:href="local__debug_8h.html" target="_top" xlink:title=" ">
<polygon fill="white" stroke="black" points="142,-56.5 142,-86.5 254,-86.5 254,-56.5 142,-56.5"/>
<text text-anchor="start" x="150" y="-74.5" font-family="Helvetica,sans-Serif" font-size="10.00">sensesp/system/local</text>
<text text-anchor="middle" x="198" y="-63.5" font-family="Helvetica,sans-Serif" font-size="10.00">_debug.h</text>
</a>
</g>
</g>
<!-- Node16&#45;&gt;Node18 -->
<g id="edge21" class="edge">
<title>Node16&#45;&gt;Node18</title>
<path fill="none" stroke="midnightblue" d="M305.09,-123.48C287.29,-115 259.42,-101.74 236.58,-90.86"/>
<polygon fill="midnightblue" stroke="midnightblue" points="237.99,-87.66 227.46,-86.52 234.99,-93.98 237.99,-87.66"/>
</g>
<!-- Node18&#45;&gt;Node2 -->
<g id="edge22" class="edge">
<title>Node18&#45;&gt;Node2</title>
<path fill="none" stroke="midnightblue" d="M174.3,-56.4C158.27,-46.86 137.2,-34.32 121.26,-24.84"/>
<polygon fill="midnightblue" stroke="midnightblue" points="122.93,-21.76 112.55,-19.66 119.36,-27.78 122.93,-21.76"/>
</g>
<!-- Node19 -->
<g id="node19" class="node">
<title>Node19</title>
<g id="a_node19"><a xlink:title=" ">
<polygon fill="white" stroke="#bfbfbf" points="175.5,-0.5 175.5,-19.5 220.5,-19.5 220.5,-0.5 175.5,-0.5"/>
<text text-anchor="middle" x="198" y="-7.5" font-family="Helvetica,sans-Serif" font-size="10.00">Print.h</text>
</a>
</g>
</g>
<!-- Node18&#45;&gt;Node19 -->
<g id="edge23" class="edge">
<title>Node18&#45;&gt;Node19</title>
<path fill="none" stroke="midnightblue" d="M198,-56.4C198,-48.47 198,-38.46 198,-29.86"/>
<polygon fill="midnightblue" stroke="midnightblue" points="201.5,-29.66 198,-19.66 194.5,-29.66 201.5,-29.66"/>
</g>
<!-- Node21 -->
<g id="node21" class="node">
<title>Node21</title>
<g id="a_node21"><a xlink:title=" ">
<polygon fill="white" stroke="#bfbfbf" points="798,-235.5 798,-254.5 842,-254.5 842,-235.5 798,-235.5"/>
<text text-anchor="middle" x="820" y="-242.5" font-family="Helvetica,sans-Serif" font-size="10.00">queue</text>
</a>
</g>
</g>
<!-- Node20&#45;&gt;Node21 -->
<g id="edge25" class="edge">
<title>Node20&#45;&gt;Node21</title>
<path fill="none" stroke="midnightblue" d="M753.69,-291.32C765.9,-282.98 784.58,-270.21 799,-260.35"/>
<polygon fill="midnightblue" stroke="midnightblue" points="801.06,-263.19 807.34,-254.65 797.11,-257.41 801.06,-263.19"/>
</g>
<!-- Node22&#45;&gt;Node21 -->
<g id="edge27" class="edge">
<title>Node22&#45;&gt;Node21</title>
<path fill="none" stroke="midnightblue" d="M887.15,-291.32C874.78,-282.98 855.87,-270.21 841.26,-260.35"/>
<polygon fill="midnightblue" stroke="midnightblue" points="843.07,-257.35 832.82,-254.65 839.15,-263.15 843.07,-257.35"/>
</g>
</g>
</svg>
        <g id="navigator" transform="translate(0 0)" fill="#404254">
                <rect fill="#f2f5e9" fill-opacity="0.5" stroke="#606060" stroke-width=".5" x="0" y="0" width="60" height="60"/>
                <use id="zoomplus" xlink:href="#zoomPlus" x="17" y="9" onmousedown="handleZoom(evt,'in')"/>
                <use id="zoomminus" xlink:href="#zoomMin" x="42" y="9" onmousedown="handleZoom(evt,'out')"/>
                <use id="reset" xlink:href="#resetDef" x="30" y="36" onmousedown="handleReset()"/>
                <g id="arrowUp" xlink:href="#dirArrow" transform="translate(30 24)" onmousedown="handlePan(0,-1)">
                  <use xlink:href="#rim" fill="#404040">
                        <set attributeName="fill" to="#808080" begin="arrowUp.mouseover" end="arrowUp.mouseout"/>
                  </use>
                  <path fill="none" stroke="white" stroke-width="1.5" d="M0,-3.0v7 M-2.5,-0.5L0,-3.0L2.5,-0.5"/>
                </g>
                <g id="arrowRight" xlink:href="#dirArrow" transform="rotate(90) translate(36 -43)" onmousedown="handlePan(1,0)">
                  <use xlink:href="#rim" fill="#404040">
                        <set attributeName="fill" to="#808080" begin="arrowRight.mouseover" end="arrowRight.mouseout"/>
                  </use>
                  <path fill="none" stroke="white" stroke-width="1.5" d="M0,-3.0v7 M-2.5,-0.5L0,-3.0L2.5,-0.5"/>
                </g>
                <g id="arrowDown" xlink:href="#dirArrow" transform="rotate(180) translate(-30 -48)" onmousedown="handlePan(0,1)">
                  <use xlink:href="#rim" fill="#404040">
                        <set attributeName="fill" to="#808080" begin="arrowDown.mouseover" end="arrowDown.mouseout"/>
                  </use>
                  <path fill="none" stroke="white" stroke-width="1.5" d="M0,-3.0v7 M-2.5,-0.5L0,-3.0L2.5,-0.5"/>
                </g>
                <g id="arrowLeft" xlink:href="#dirArrow" transform="rotate(270) translate(-36 17)" onmousedown="handlePan(-1,0)">
                  <use xlink:href="#rim" fill="#404040">
                        <set attributeName="fill" to="#808080" begin="arrowLeft.mouseover" end="arrowLeft.mouseout"/>
                  </use>
                  <path fill="none" stroke="white" stroke-width="1.5" d="M0,-3.0v7 M-2.5,-0.5L0,-3.0L2.5,-0.5"/>
                </g>
        </g>
        <svg viewBox="0 0 15 15" width="100%" height="30px" preserveAspectRatio="xMaxYMin meet">
         <g id="arrow_out" transform="scale(0.3 0.3)">
          <a xlink:href="networking_8h__incl_org.svg" target="_base">
           <rect id="button" ry="5" rx="5" y="6" x="6" height="38" width="38"
                fill="#f2f5e9" fill-opacity="0.5" stroke="#606060" stroke-width="1.0"/>
           <path id="arrow"
             d="M 11.500037,31.436501 C 11.940474,20.09759 22.043105,11.32322 32.158766,21.979434 L 37.068811,17.246167 C 37.068811,17.246167 37.088388,32 37.088388,32 L 22.160133,31.978069 C 22.160133,31.978069 26.997745,27.140456 26.997745,27.140456 C 18.528582,18.264221 13.291696,25.230495 11.500037,31.436501 z"
             style="fill:#404040;"/>
          </a>
         </g>
        </svg>
</svg>
