<?xml version="1.0" encoding="UTF-8" standalone="no"?>
<!DOCTYPE svg PUBLIC "-//W3C//DTD SVG 1.1//EN"
 "http://www.w3.org/Graphics/SVG/1.1/DTD/svg11.dtd">
<!-- Generated by graphviz version 14.1.4 (20260321.0153)
 -->
<!-- Title: src/sensesp/net/networking.h Pages: 1 -->
<svg width="1291pt" height="547pt"
 viewBox="0.00 0.00 1291.00 547.00" xmlns="http://www.w3.org/2000/svg" xmlns:xlink="http://www.w3.org/1999/xlink">
<g id="graph0" class="graph" transform="scale(1 1) rotate(0) translate(4 543)">
<title>src/sensesp/net/networking.h</title>
<!-- Node1 -->
<g id="Node000001" class="node">
<title>Node1</title>
<g id="a_Node000001"><a xlink:title=" ">
<polygon fill="#999999" stroke="#666666" points="339.5,-539 195.25,-539 195.25,-519.75 339.5,-519.75 339.5,-539"/>
<text xml:space="preserve" text-anchor="middle" x="267.38" y="-525.5" font-family="Helvetica,sans-Serif" font-size="10.00">src/sensesp/net/networking.h</text>
</a>
</g>
</g>
<!-- Node2 -->
<g id="Node000002" class="node">
<title>Node2</title>
<g id="a_Node000002"><a xlink:href="network__provisioner_8h.html" target="_top" xlink:title=" ">
<polygon fill="white" stroke="#666666" points="106.75,-428.5 0,-428.5 0,-398 106.75,-398 106.75,-428.5"/>
<text xml:space="preserve" text-anchor="start" x="8" y="-415" font-family="Helvetica,sans-Serif" font-size="10.00">sensesp/net/network</text>
<text xml:space="preserve" text-anchor="middle" x="53.38" y="-403.75" font-family="Helvetica,sans-Serif" font-size="10.00">_provisioner.h</text>
</a>
</g>
</g>
<!-- Node1&#45;&gt;Node2 -->
<g id="edge1_Node000001_Node000002" class="edge">
<title>Node1&#45;&gt;Node2</title>
<g id="a_edge1_Node000001_Node000002"><a xlink:title=" ">
<path fill="none" stroke="#63b8ff" d="M250.58,-519.42C216.41,-501.2 138.07,-459.42 91.06,-434.35"/>
<polygon fill="#63b8ff" stroke="#63b8ff" points="92.77,-431.29 82.3,-429.67 89.47,-437.47 92.77,-431.29"/>
</a>
</g>
</g>
<!-- Node5 -->
<g id="Node000005" class="node">
<title>Node5</title>
<g id="a_Node000005"><a xlink:href="network__state_8h.html" target="_top" xlink:title=" ">
<polygon fill="white" stroke="#666666" points="320.75,-428.5 214,-428.5 214,-398 320.75,-398 320.75,-428.5"/>
<text xml:space="preserve" text-anchor="start" x="222" y="-415" font-family="Helvetica,sans-Serif" font-size="10.00">sensesp/net/network</text>
<text xml:space="preserve" text-anchor="middle" x="267.38" y="-403.75" font-family="Helvetica,sans-Serif" font-size="10.00">_state.h</text>
</a>
</g>
</g>
<!-- Node1&#45;&gt;Node5 -->
<g id="edge4_Node000001_Node000005" class="edge">
<title>Node1&#45;&gt;Node5</title>
<g id="a_edge4_Node000001_Node000005"><a xlink:title=" ">
<path fill="none" stroke="#63b8ff" d="M267.38,-519.42C267.38,-502.53 267.38,-465.4 267.38,-440.1"/>
<polygon fill="#63b8ff" stroke="#63b8ff" points="270.88,-440.28 267.38,-430.28 263.88,-440.28 270.88,-440.28"/>
</a>
</g>
</g>
<!-- Node22 -->
<g id="Node000022" class="node">
<title>Node22</title>
<g id="a_Node000022"><a xlink:href="wifi__provisioner_8h.html" target="_top" xlink:title=" ">
<polygon fill="white" stroke="#666666" points="551,-483.75 403.75,-483.75 403.75,-464.5 551,-464.5 551,-483.75"/>
<text xml:space="preserve" text-anchor="middle" x="477.38" y="-470.25" font-family="Helvetica,sans-Serif" font-size="10.00">sensesp/net/wifi_provisioner.h</text>
</a>
</g>
</g>
<!-- Node1&#45;&gt;Node22 -->
<g id="edge24_Node000001_Node000022" class="edge">
<title>Node1&#45;&gt;Node22</title>
<g id="a_edge24_Node000001_Node000022"><a xlink:title=" ">
<path fill="none" stroke="#63b8ff" d="M303,-519.34C338.15,-510.43 392.06,-496.76 430.64,-486.98"/>
<polygon fill="#63b8ff" stroke="#63b8ff" points="431.28,-490.43 440.11,-484.57 429.56,-483.64 431.28,-490.43"/>
</a>
</g>
</g>
<!-- Node3 -->
<g id="Node000003" class="node">
<title>Node3</title>
<g id="a_Node000003"><a xlink:title=" ">
<polygon fill="#e0e0e0" stroke="#999999" points="674,-19.25 616.75,-19.25 616.75,0 674,0 674,-19.25"/>
<text xml:space="preserve" text-anchor="middle" x="645.38" y="-5.75" font-family="Helvetica,sans-Serif" font-size="10.00">Arduino.h</text>
</a>
</g>
</g>
<!-- Node2&#45;&gt;Node3 -->
<g id="edge2_Node000002_Node000003" class="edge">
<title>Node2&#45;&gt;Node3</title>
<g id="a_edge2_Node000002_Node000003"><a xlink:title=" ">
<path fill="none" stroke="#63b8ff" d="M62.71,-397.77C75.35,-376.72 96.38,-336.02 96.38,-298.12 96.38,-298.12 96.38,-298.12 96.38,-130.38 96.38,-95.32 92.97,-77.1 120.38,-55.25 158.02,-25.23 488.78,-14.41 605.12,-11.51"/>
<polygon fill="#63b8ff" stroke="#63b8ff" points="604.9,-15.01 614.81,-11.27 604.73,-8.02 604.9,-15.01"/>
</a>
</g>
</g>
<!-- Node4 -->
<g id="Node000004" class="node">
<title>Node4</title>
<g id="a_Node000004"><a xlink:title=" ">
<polygon fill="#e0e0e0" stroke="#999999" points="68.62,-362 0.12,-362 0.12,-342.75 68.62,-342.75 68.62,-362"/>
<text xml:space="preserve" text-anchor="middle" x="34.38" y="-348.5" font-family="Helvetica,sans-Serif" font-size="10.00">IPAddress.h</text>
</a>
</g>
</g>
<!-- Node2&#45;&gt;Node4 -->
<g id="edge3_Node000002_Node000004" class="edge">
<title>Node2&#45;&gt;Node4</title>
<g id="a_edge3_Node000002_Node000004"><a xlink:title=" ">
<path fill="none" stroke="#63b8ff" d="M48.68,-397.7C46.31,-390.37 43.41,-381.37 40.84,-373.41"/>
<polygon fill="#63b8ff" stroke="#63b8ff" points="44.17,-372.33 37.77,-363.89 37.51,-374.48 44.17,-372.33"/>
</a>
</g>
</g>
<!-- Node6 -->
<g id="Node000006" class="node">
<title>Node6</title>
<g id="a_Node000006"><a xlink:title=" ">
<polygon fill="#e0e0e0" stroke="#999999" points="474.5,-251.5 426.25,-251.5 426.25,-232.25 474.5,-232.25 474.5,-251.5"/>
<text xml:space="preserve" text-anchor="middle" x="450.38" y="-238" font-family="Helvetica,sans-Serif" font-size="10.00">cstddef</text>
</a>
</g>
</g>
<!-- Node5&#45;&gt;Node6 -->
<g id="edge5_Node000005_Node000006" class="edge">
<title>Node5&#45;&gt;Node6</title>
<g id="a_edge5_Node000005_Node000006"><a xlink:title=" ">
<path fill="none" stroke="#63b8ff" d="M286.47,-397.68C311.8,-378.04 357.52,-341.49 393.38,-306.75 408.66,-291.94 424.69,-273.7 435.84,-260.51"/>
<polygon fill="#63b8ff" stroke="#63b8ff" points="438.32,-263 442.05,-253.09 432.95,-258.51 438.32,-263"/>
</a>
</g>
</g>
<!-- Node7 -->
<g id="Node000007" class="node">
<title>Node7</title>
<g id="a_Node000007"><a xlink:href="wifi__state_8h.html" target="_top" xlink:title=" ">
<polygon fill="white" stroke="#666666" points="284.62,-362 162.12,-362 162.12,-342.75 284.62,-342.75 284.62,-362"/>
<text xml:space="preserve" text-anchor="middle" x="223.38" y="-348.5" font-family="Helvetica,sans-Serif" font-size="10.00">sensesp/net/wifi_state.h</text>
</a>
</g>
</g>
<!-- Node5&#45;&gt;Node7 -->
<g id="edge6_Node000005_Node000007" class="edge">
<title>Node5&#45;&gt;Node7</title>
<g id="a_edge6_Node000005_Node000007"><a xlink:title=" ">
<path fill="none" stroke="#63b8ff" d="M256.5,-397.7C250.57,-389.77 243.18,-379.88 236.89,-371.46"/>
<polygon fill="#63b8ff" stroke="#63b8ff" points="239.85,-369.58 231.06,-363.66 234.25,-373.77 239.85,-369.58"/>
</a>
</g>
</g>
<!-- Node8 -->
<g id="Node000008" class="node">
<title>Node8</title>
<g id="a_Node000008"><a xlink:href="valueproducer_8h.html" target="_top" xlink:title=" ">
<polygon fill="white" stroke="#666666" points="384,-306.75 224.75,-306.75 224.75,-287.5 384,-287.5 384,-306.75"/>
<text xml:space="preserve" text-anchor="middle" x="304.38" y="-293.25" font-family="Helvetica,sans-Serif" font-size="10.00">sensesp/system/valueproducer.h</text>
</a>
</g>
</g>
<!-- Node5&#45;&gt;Node8 -->
<g id="edge7_Node000005_Node000008" class="edge">
<title>Node5&#45;&gt;Node8</title>
<g id="a_edge7_Node000005_Node000008"><a xlink:title=" ">
<path fill="none" stroke="#63b8ff" d="M276.35,-397.82C282.05,-388.05 289.12,-374.66 293.38,-362 298.16,-347.76 300.94,-331 302.51,-318.22"/>
<polygon fill="#63b8ff" stroke="#63b8ff" points="305.97,-318.83 303.55,-308.52 299.01,-318.09 305.97,-318.83"/>
</a>
</g>
</g>
<!-- Node9 -->
<g id="Node000009" class="node">
<title>Node9</title>
<g id="a_Node000009"><a xlink:title=" ">
<polygon fill="#e0e0e0" stroke="#999999" points="588.5,-141 510.25,-141 510.25,-121.75 588.5,-121.75 588.5,-141"/>
<text xml:space="preserve" text-anchor="middle" x="549.38" y="-127.5" font-family="Helvetica,sans-Serif" font-size="10.00">ArduinoJson.h</text>
</a>
</g>
</g>
<!-- Node8&#45;&gt;Node9 -->
<g id="edge8_Node000008_Node000009" class="edge">
<title>Node8&#45;&gt;Node9</title>
<g id="a_edge8_Node000008_Node000009"><a xlink:title=" ">
<path fill="none" stroke="#63b8ff" d="M291.01,-287.12C261.75,-266.36 197.13,-214.06 229.38,-177 263.64,-137.63 417.19,-131.92 498.49,-131.73"/>
<polygon fill="#63b8ff" stroke="#63b8ff" points="498.42,-135.23 508.43,-131.74 498.43,-128.23 498.42,-135.23"/>
</a>
</g>
</g>
<!-- Node10 -->
<g id="Node000010" class="node">
<title>Node10</title>
<g id="a_Node000010"><a xlink:title=" ">
<polygon fill="#e0e0e0" stroke="#999999" points="917,-80.12 865.75,-80.12 865.75,-60.88 917,-60.88 917,-80.12"/>
<text xml:space="preserve" text-anchor="middle" x="891.38" y="-66.62" font-family="Helvetica,sans-Serif" font-size="10.00">memory</text>
</a>
</g>
</g>
<!-- Node8&#45;&gt;Node10 -->
<g id="edge9_Node000008_Node000010" class="edge">
<title>Node8&#45;&gt;Node10</title>
<g id="a_edge9_Node000008_Node000010"><a xlink:title=" ">
<path fill="none" stroke="#63b8ff" d="M278.78,-287.01C262.26,-279.84 241.65,-268.24 229.38,-251.5 194.84,-204.39 200.25,-151.74 250.38,-121.75 366.33,-52.37 725.75,-116.3 857.38,-85.75 859.01,-85.37 860.67,-84.92 862.33,-84.41"/>
<polygon fill="#63b8ff" stroke="#63b8ff" points="863.43,-87.74 871.62,-81.03 861.03,-81.16 863.43,-87.74"/>
</a>
</g>
</g>
<!-- Node11 -->
<g id="Node000011" class="node">
<title>Node11</title>
<g id="a_Node000011"><a xlink:href="observable_8h.html" target="_top" xlink:title=" ">
<polygon fill="white" stroke="#666666" points="408.12,-251.5 336.62,-251.5 336.62,-232.25 408.12,-232.25 408.12,-251.5"/>
<text xml:space="preserve" text-anchor="middle" x="372.38" y="-238" font-family="Helvetica,sans-Serif" font-size="10.00">observable.h</text>
</a>
</g>
</g>
<!-- Node8&#45;&gt;Node11 -->
<g id="edge10_Node000008_Node000011" class="edge">
<title>Node8&#45;&gt;Node11</title>
<g id="a_edge10_Node000008_Node000011"><a xlink:title=" ">
<path fill="none" stroke="#63b8ff" d="M315.91,-287.09C325.84,-279.32 340.39,-267.92 352.23,-258.65"/>
<polygon fill="#63b8ff" stroke="#63b8ff" points="354.1,-261.63 359.82,-252.71 349.79,-256.12 354.1,-261.63"/>
</a>
</g>
</g>
<!-- Node15 -->
<g id="Node000015" class="node">
<title>Node15</title>
<g id="a_Node000015"><a xlink:href="valueconsumer_8h.html" target="_top" xlink:title=" ">
<polygon fill="white" stroke="#666666" points="328.12,-196.25 238.62,-196.25 238.62,-177 328.12,-177 328.12,-196.25"/>
<text xml:space="preserve" text-anchor="middle" x="283.38" y="-182.75" font-family="Helvetica,sans-Serif" font-size="10.00">valueconsumer.h</text>
</a>
</g>
</g>
<!-- Node8&#45;&gt;Node15 -->
<g id="edge14_Node000008_Node000015" class="edge">
<title>Node8&#45;&gt;Node15</title>
<g id="a_edge14_Node000008_Node000015"><a xlink:title=" ">
<path fill="none" stroke="#63b8ff" d="M302.66,-287.25C299.32,-270 291.88,-231.58 287.28,-207.81"/>
<polygon fill="#63b8ff" stroke="#63b8ff" points="290.74,-207.27 285.4,-198.11 283.87,-208.6 290.74,-207.27"/>
</a>
</g>
</g>
<!-- Node12 -->
<g id="Node000012" class="node">
<title>Node12</title>
<g id="a_Node000012"><a xlink:title=" ">
<polygon fill="#e0e0e0" stroke="#999999" points="488.5,-196.25 422.25,-196.25 422.25,-177 488.5,-177 488.5,-196.25"/>
<text xml:space="preserve" text-anchor="middle" x="455.38" y="-182.75" font-family="Helvetica,sans-Serif" font-size="10.00">forward_list</text>
</a>
</g>
</g>
<!-- Node11&#45;&gt;Node12 -->
<g id="edge11_Node000011_Node000012" class="edge">
<title>Node11&#45;&gt;Node12</title>
<g id="a_edge11_Node000011_Node000012"><a xlink:title=" ">
<path fill="none" stroke="#63b8ff" d="M386.45,-231.84C398.86,-223.89 417.17,-212.14 431.8,-202.75"/>
<polygon fill="#63b8ff" stroke="#63b8ff" points="433.43,-205.87 439.95,-197.52 429.65,-199.97 433.43,-205.87"/>
</a>
</g>
</g>
<!-- Node13 -->
<g id="Node000013" class="node">
<title>Node13</title>
<g id="a_Node000013"><a xlink:title=" ">
<polygon fill="#e0e0e0" stroke="#999999" points="404.38,-196.25 346.38,-196.25 346.38,-177 404.38,-177 404.38,-196.25"/>
<text xml:space="preserve" text-anchor="middle" x="375.38" y="-182.75" font-family="Helvetica,sans-Serif" font-size="10.00">functional</text>
</a>
</g>
</g>
<!-- Node11&#45;&gt;Node13 -->
<g id="edge12_Node000011_Node000013" class="edge">
<title>Node11&#45;&gt;Node13</title>
<g id="a_edge12_Node000011_Node000013"><a xlink:title=" ">
<path fill="none" stroke="#63b8ff" d="M372.87,-232.08C373.24,-225.49 373.76,-216.21 374.24,-207.82"/>
<polygon fill="#63b8ff" stroke="#63b8ff" points="377.72,-208.3 374.78,-198.12 370.73,-207.91 377.72,-208.3"/>
</a>
</g>
</g>
<!-- Node14 -->
<g id="Node000014" class="node">
<title>Node14</title>
<g id="a_Node000014"><a xlink:title=" ">
<polygon fill="#e0e0e0" stroke="#999999" points="549.88,-196.25 506.88,-196.25 506.88,-177 549.88,-177 549.88,-196.25"/>
<text xml:space="preserve" text-anchor="middle" x="528.38" y="-182.75" font-family="Helvetica,sans-Serif" font-size="10.00">vector</text>
</a>
</g>
</g>
<!-- Node11&#45;&gt;Node14 -->
<g id="edge13_Node000011_Node000014" class="edge">
<title>Node11&#45;&gt;Node14</title>
<g id="a_edge13_Node000011_Node000014"><a xlink:title=" ">
<path fill="none" stroke="#63b8ff" d="M398.84,-231.84C425.7,-222.67 467.32,-208.47 496.1,-198.64"/>
<polygon fill="#63b8ff" stroke="#63b8ff" points="497.05,-202.02 505.38,-195.47 494.79,-195.39 497.05,-202.02"/>
</a>
</g>
</g>
<!-- Node15&#45;&gt;Node9 -->
<g id="edge22_Node000015_Node000009" class="edge">
<title>Node15&#45;&gt;Node9</title>
<g id="a_edge22_Node000015_Node000009"><a xlink:title=" ">
<path fill="none" stroke="#63b8ff" d="M328.5,-176.59C375.8,-167.12 449.95,-152.28 499.1,-142.44"/>
<polygon fill="#63b8ff" stroke="#63b8ff" points="499.51,-145.93 508.62,-140.53 498.13,-139.06 499.51,-145.93"/>
</a>
</g>
</g>
<!-- Node16 -->
<g id="Node000016" class="node">
<title>Node16</title>
<g id="a_Node000016"><a xlink:href="sensesp_8h.html" target="_top" xlink:title=" ">
<polygon fill="white" stroke="#666666" points="863.88,-141 802.88,-141 802.88,-121.75 863.88,-121.75 863.88,-141"/>
<text xml:space="preserve" text-anchor="middle" x="833.38" y="-127.5" font-family="Helvetica,sans-Serif" font-size="10.00">sensesp.h</text>
</a>
</g>
</g>
<!-- Node15&#45;&gt;Node16 -->
<g id="edge15_Node000015_Node000016" class="edge">
<title>Node15&#45;&gt;Node16</title>
<g id="a_edge15_Node000015_Node000016"><a xlink:title=" ">
<path fill="none" stroke="#63b8ff" d="M328.42,-178.19C331.45,-177.77 334.45,-177.36 337.38,-177 504.94,-156.1 705.53,-141.12 791.22,-135.19"/>
<polygon fill="#63b8ff" stroke="#63b8ff" points="791.29,-138.69 801.02,-134.51 790.81,-131.71 791.29,-138.69"/>
</a>
</g>
</g>
<!-- Node21 -->
<g id="Node000021" class="node">
<title>Node21</title>
<g id="a_Node000021"><a xlink:title=" ">
<polygon fill="#e0e0e0" stroke="#999999" points="307.5,-141 259.25,-141 259.25,-121.75 307.5,-121.75 307.5,-141"/>
<text xml:space="preserve" text-anchor="middle" x="283.38" y="-127.5" font-family="Helvetica,sans-Serif" font-size="10.00">stdint.h</text>
</a>
</g>
</g>
<!-- Node15&#45;&gt;Node21 -->
<g id="edge23_Node000015_Node000021" class="edge">
<title>Node15&#45;&gt;Node21</title>
<g id="a_edge23_Node000015_Node000021"><a xlink:title=" ">
<path fill="none" stroke="#63b8ff" d="M283.38,-176.83C283.38,-170.32 283.38,-161.17 283.38,-152.87"/>
<polygon fill="#63b8ff" stroke="#63b8ff" points="286.88,-152.87 283.38,-142.87 279.88,-152.87 286.88,-152.87"/>
</a>
</g>
</g>
<!-- Node16&#45;&gt;Node10 -->
<g id="edge17_Node000016_Node000010" class="edge">
<title>Node16&#45;&gt;Node10</title>
<g id="a_edge17_Node000016_Node000010"><a xlink:title=" ">
<path fill="none" stroke="#63b8ff" d="M842.18,-121.43C850.79,-112.7 864.09,-99.19 874.7,-88.43"/>
<polygon fill="#63b8ff" stroke="#63b8ff" points="876.9,-91.18 881.42,-81.6 871.91,-86.27 876.9,-91.18"/>
</a>
</g>
</g>
<!-- Node17 -->
<g id="Node000017" class="node">
<title>Node17</title>
<g id="a_Node000017"><a xlink:title=" ">
<polygon fill="#e0e0e0" stroke="#999999" points="848,-80.12 778.75,-80.12 778.75,-60.88 848,-60.88 848,-80.12"/>
<text xml:space="preserve" text-anchor="middle" x="813.38" y="-66.62" font-family="Helvetica,sans-Serif" font-size="10.00">ReactESP.h</text>
</a>
</g>
</g>
<!-- Node16&#45;&gt;Node17 -->
<g id="edge16_Node000016_Node000017" class="edge">
<title>Node16&#45;&gt;Node17</title>
<g id="a_edge16_Node000016_Node000017"><a xlink:title=" ">
<path fill="none" stroke="#63b8ff" d="M830.34,-121.43C827.64,-113.48 823.59,-101.56 820.12,-91.37"/>
<polygon fill="#63b8ff" stroke="#63b8ff" points="823.46,-90.3 816.93,-81.96 816.83,-92.55 823.46,-90.3"/>
</a>
</g>
</g>
<!-- Node18 -->
<g id="Node000018" class="node">
<title>Node18</title>
<g id="a_Node000018"><a xlink:href="local__debug_8h.html" target="_top" xlink:title=" ">
<polygon fill="white" stroke="#666666" points="1258,-85.75 1146.75,-85.75 1146.75,-55.25 1258,-55.25 1258,-85.75"/>
<text xml:space="preserve" text-anchor="start" x="1154.75" y="-72.25" font-family="Helvetica,sans-Serif" font-size="10.00">sensesp/system/local</text>
<text xml:space="preserve" text-anchor="middle" x="1202.38" y="-61" font-family="Helvetica,sans-Serif" font-size="10.00">_debug.h</text>
</a>
</g>
</g>
<!-- Node16&#45;&gt;Node18 -->
<g id="edge18_Node000016_Node000018" class="edge">
<title>Node16&#45;&gt;Node18</title>
<g id="a_edge18_Node000016_Node000018"><a xlink:title=" ">
<path fill="none" stroke="#63b8ff" d="M864.2,-125.46C923.59,-115.98 1055.1,-95 1135.49,-82.17"/>
<polygon fill="#63b8ff" stroke="#63b8ff" points="1135.67,-85.69 1144.99,-80.66 1134.57,-78.77 1135.67,-85.69"/>
</a>
</g>
</g>
<!-- Node18&#45;&gt;Node3 -->
<g id="edge20_Node000018_Node000003" class="edge">
<title>Node18&#45;&gt;Node3</title>
<g id="a_edge20_Node000018_Node000003"><a xlink:title=" ">
<path fill="none" stroke="#63b8ff" d="M1146.31,-57.52C1141.6,-56.69 1136.91,-55.92 1132.38,-55.25 967.48,-30.99 769.11,-17.69 685.57,-12.81"/>
<polygon fill="#63b8ff" stroke="#63b8ff" points="686.02,-9.33 675.83,-12.26 685.62,-16.32 686.02,-9.33"/>
</a>
</g>
</g>
<!-- Node19 -->
<g id="Node000019" class="node">
<title>Node19</title>
<g id="a_Node000019"><a xlink:title=" ">
<polygon fill="#e0e0e0" stroke="#999999" points="1283.38,-19.25 1201.38,-19.25 1201.38,0 1283.38,0 1283.38,-19.25"/>
<text xml:space="preserve" text-anchor="middle" x="1242.38" y="-5.75" font-family="Helvetica,sans-Serif" font-size="10.00">esp32&#45;hal&#45;log.h</text>
</a>
</g>
</g>
<!-- Node18&#45;&gt;Node19 -->
<g id="edge19_Node000018_Node000019" class="edge">
<title>Node18&#45;&gt;Node19</title>
<g id="a_edge19_Node000018_Node000019"><a xlink:title=" ">
<path fill="none" stroke="#63b8ff" d="M1212.26,-54.95C1217.59,-47.1 1224.22,-37.35 1229.9,-28.99"/>
<polygon fill="#63b8ff" stroke="#63b8ff" points="1232.63,-31.19 1235.36,-20.95 1226.84,-27.26 1232.63,-31.19"/>
</a>
</g>
</g>
<!-- Node20 -->
<g id="Node000020" class="node">
<title>Node20</title>
<g id="a_Node000020"><a xlink:title=" ">
<polygon fill="#e0e0e0" stroke="#999999" points="1183.62,-19.25 1139.12,-19.25 1139.12,0 1183.62,0 1183.62,-19.25"/>
<text xml:space="preserve" text-anchor="middle" x="1161.38" y="-5.75" font-family="Helvetica,sans-Serif" font-size="10.00">Print.h</text>
</a>
</g>
</g>
<!-- Node18&#45;&gt;Node20 -->
<g id="edge21_Node000018_Node000020" class="edge">
<title>Node18&#45;&gt;Node20</title>
<g id="a_edge21_Node000018_Node000020"><a xlink:title=" ">
<path fill="none" stroke="#63b8ff" d="M1192.24,-54.95C1186.78,-47.1 1179.98,-37.35 1174.16,-28.99"/>
<polygon fill="#63b8ff" stroke="#63b8ff" points="1177.15,-27.15 1168.56,-20.94 1171.4,-31.15 1177.15,-27.15"/>
</a>
</g>
</g>
<!-- Node22&#45;&gt;Node2 -->
<g id="edge30_Node000022_Node000002" class="edge">
<title>Node22&#45;&gt;Node2</title>
<g id="a_edge30_Node000022_Node000002"><a xlink:title=" ">
<path fill="none" stroke="#63b8ff" d="M403.26,-465.72C330.87,-458.06 217.69,-444.9 120.38,-428.5 119.7,-428.39 119.02,-428.27 118.33,-428.15"/>
<polygon fill="#63b8ff" stroke="#63b8ff" points="119.01,-424.72 108.54,-426.36 117.75,-431.6 119.01,-424.72"/>
</a>
</g>
</g>
<!-- Node22&#45;&gt;Node3 -->
<g id="edge25_Node000022_Node000003" class="edge">
<title>Node22&#45;&gt;Node3</title>
<g id="a_edge25_Node000022_Node000003"><a xlink:title=" ">
<path fill="none" stroke="#63b8ff" d="M403.32,-466.34C334.85,-459.11 238.82,-446.26 205.38,-428.5 164.8,-406.96 134.38,-399.32 134.38,-353.38 134.38,-353.38 134.38,-353.38 134.38,-130.38 134.38,-33.82 484.62,-15.06 605.18,-11.46"/>
<polygon fill="#63b8ff" stroke="#63b8ff" points="605.02,-14.97 614.92,-11.2 604.83,-7.97 605.02,-14.97"/>
</a>
</g>
</g>
<!-- Node22&#45;&gt;Node5 -->
<g id="edge31_Node000022_Node000005" class="edge">
<title>Node22&#45;&gt;Node5</title>
<g id="a_edge31_Node000022_Node000005"><a xlink:title=" ">
<path fill="none" stroke="#63b8ff" d="M445.02,-464.05C414.66,-455.54 368.39,-442.57 330.68,-432"/>
<polygon fill="#63b8ff" stroke="#63b8ff" points="331.82,-428.68 321.25,-429.35 329.93,-435.42 331.82,-428.68"/>
</a>
</g>
</g>
<!-- Node22&#45;&gt;Node10 -->
<g id="edge28_Node000022_Node000010" class="edge">
<title>Node22&#45;&gt;Node10</title>
<g id="a_edge28_Node000022_Node000010"><a xlink:title=" ">
<path fill="none" stroke="#63b8ff" d="M551.42,-470.88C665.32,-466.64 877.73,-455.32 948.38,-428.5 995.21,-410.72 1010.31,-402.8 1039.38,-362 1101.38,-274.98 1109.36,-193.71 1030.38,-121.75 1001.87,-95.78 958.92,-82.98 928.32,-76.84"/>
<polygon fill="#63b8ff" stroke="#63b8ff" points="929.2,-73.45 918.74,-75.08 927.94,-80.33 929.2,-73.45"/>
</a>
</g>
</g>
<!-- Node22&#45;&gt;Node14 -->
<g id="edge29_Node000022_Node000014" class="edge">
<title>Node22&#45;&gt;Node14</title>
<g id="a_edge29_Node000022_Node000014"><a xlink:title=" ">
<path fill="none" stroke="#63b8ff" d="M480.54,-464.24C487.27,-444.56 502.38,-395.64 502.38,-353.38 502.38,-353.38 502.38,-353.38 502.38,-296.12 502.38,-264.4 513.02,-228.86 520.68,-207.37"/>
<polygon fill="#63b8ff" stroke="#63b8ff" points="523.91,-208.75 524.12,-198.15 517.35,-206.3 523.91,-208.75"/>
</a>
</g>
</g>
<!-- Node23 -->
<g id="Node000023" class="node">
<title>Node23</title>
<g id="a_Node000023"><a xlink:title=" ">
<polygon fill="#e0e0e0" stroke="#999999" points="412.25,-422.88 338.5,-422.88 338.5,-403.62 412.25,-403.62 412.25,-422.88"/>
<text xml:space="preserve" text-anchor="middle" x="375.38" y="-409.38" font-family="Helvetica,sans-Serif" font-size="10.00">DNSServer.h</text>
</a>
</g>
</g>
<!-- Node22&#45;&gt;Node23 -->
<g id="edge26_Node000022_Node000023" class="edge">
<title>Node22&#45;&gt;Node23</title>
<g id="a_edge26_Node000022_Node000023"><a xlink:title=" ">
<path fill="none" stroke="#63b8ff" d="M461.88,-464.18C445.71,-454.85 420.07,-440.05 400.9,-428.98"/>
<polygon fill="#63b8ff" stroke="#63b8ff" points="402.73,-426 392.32,-424.03 399.23,-432.06 402.73,-426"/>
</a>
</g>
</g>
<!-- Node24 -->
<g id="Node000024" class="node">
<title>Node24</title>
<g id="a_Node000024"><a xlink:title=" ">
<polygon fill="#e0e0e0" stroke="#999999" points="474.62,-422.88 430.12,-422.88 430.12,-403.62 474.62,-403.62 474.62,-422.88"/>
<text xml:space="preserve" text-anchor="middle" x="452.38" y="-409.38" font-family="Helvetica,sans-Serif" font-size="10.00">WiFi.h</text>
</a>
</g>
</g>
<!-- Node22&#45;&gt;Node24 -->
<g id="edge27_Node000022_Node000024" class="edge">
<title>Node22&#45;&gt;Node24</title>
<g id="a_edge27_Node000022_Node000024"><a xlink:title=" ">
<path fill="none" stroke="#63b8ff" d="M473.58,-464.18C470.16,-456.14 465.03,-444.05 460.67,-433.78"/>
<polygon fill="#63b8ff" stroke="#63b8ff" points="463.93,-432.51 456.8,-424.67 457.49,-435.24 463.93,-432.51"/>
</a>
</g>
</g>
<!-- Node25 -->
<g id="Node000025" class="node">
<title>Node25</title>
<g id="a_Node000025"><a xlink:href="observablevalue_8h.html" target="_top" xlink:title=" ">
<polygon fill="white" stroke="#666666" points="700.25,-362 530.5,-362 530.5,-342.75 700.25,-342.75 700.25,-362"/>
<text xml:space="preserve" text-anchor="middle" x="615.38" y="-348.5" font-family="Helvetica,sans-Serif" font-size="10.00">sensesp/system/observablevalue.h</text>
</a>
</g>
</g>
<!-- Node22&#45;&gt;Node25 -->
<g id="edge32_Node000022_Node000025" class="edge">
<title>Node22&#45;&gt;Node25</title>
<g id="a_edge32_Node000022_Node000025"><a xlink:title=" ">
<path fill="none" stroke="#63b8ff" d="M487.75,-464.12C510.82,-444.1 566.7,-395.61 596.28,-369.95"/>
<polygon fill="#63b8ff" stroke="#63b8ff" points="598.48,-372.67 603.74,-363.47 593.89,-367.38 598.48,-372.67"/>
</a>
</g>
</g>
<!-- Node27 -->
<g id="Node000027" class="node">
<title>Node27</title>
<g id="a_Node000027"><a xlink:href="serializable_8h.html" target="_top" xlink:title=" ">
<polygon fill="white" stroke="#666666" points="869.88,-196.25 796.88,-196.25 796.88,-177 869.88,-177 869.88,-196.25"/>
<text xml:space="preserve" text-anchor="middle" x="833.38" y="-182.75" font-family="Helvetica,sans-Serif" font-size="10.00">serializable.h</text>
</a>
</g>
</g>
<!-- Node22&#45;&gt;Node27 -->
<g id="edge53_Node000022_Node000027" class="edge">
<title>Node22&#45;&gt;Node27</title>
<g id="a_edge53_Node000022_Node000027"><a xlink:title=" ">
<path fill="none" stroke="#63b8ff" d="M504.68,-464.09C550.13,-448.2 642.87,-412.14 709.38,-362 761.79,-322.48 772.73,-307.25 807.38,-251.5 816.08,-237.49 822.95,-220.05 827.44,-206.94"/>
<polygon fill="#63b8ff" stroke="#63b8ff" points="830.65,-208.36 830.4,-197.77 823.99,-206.21 830.65,-208.36"/>
</a>
</g>
</g>
<!-- Node30 -->
<g id="Node000030" class="node">
<title>Node30</title>
<g id="a_Node000030"><a xlink:href="resettable_8h.html" target="_top" xlink:title=" ">
<polygon fill="white" stroke="#666666" points="1014.38,-306.75 872.38,-306.75 872.38,-287.5 1014.38,-287.5 1014.38,-306.75"/>
<text xml:space="preserve" text-anchor="middle" x="943.38" y="-293.25" font-family="Helvetica,sans-Serif" font-size="10.00">sensesp/system/resettable.h</text>
</a>
</g>
</g>
<!-- Node22&#45;&gt;Node30 -->
<g id="edge51_Node000022_Node000030" class="edge">
<title>Node22&#45;&gt;Node30</title>
<g id="a_edge51_Node000022_Node000030"><a xlink:title=" ">
<path fill="none" stroke="#63b8ff" d="M551.45,-470.53C688.7,-463.87 973.21,-440.65 1023.38,-362 1037.3,-340.17 1009.47,-322.5 982.91,-311.33"/>
<polygon fill="#63b8ff" stroke="#63b8ff" points="984.49,-308.19 973.9,-307.78 981.92,-314.7 984.49,-308.19"/>
</a>
</g>
</g>
<!-- Node32 -->
<g id="Node000032" class="node">
<title>Node32</title>
<g id="a_Node000032"><a xlink:href="sensesp__base__app_8h.html" target="_top" xlink:title=" ">
<polygon fill="white" stroke="#666666" points="871.5,-422.88 763.25,-422.88 763.25,-403.62 871.5,-403.62 871.5,-422.88"/>
<text xml:space="preserve" text-anchor="middle" x="817.38" y="-409.38" font-family="Helvetica,sans-Serif" font-size="10.00">sensesp_base_app.h</text>
</a>
</g>
</g>
<!-- Node22&#45;&gt;Node32 -->
<g id="edge54_Node000022_Node000032" class="edge">
<title>Node22&#45;&gt;Node32</title>
<g id="a_edge54_Node000022_Node000032"><a xlink:title=" ">
<path fill="none" stroke="#63b8ff" d="M533.52,-464.02C587.21,-455.23 670.39,-441.4 742.38,-428.5 747.86,-427.52 753.57,-426.47 759.27,-425.41"/>
<polygon fill="#63b8ff" stroke="#63b8ff" points="759.52,-428.93 768.71,-423.65 758.23,-422.05 759.52,-428.93"/>
</a>
</g>
</g>
<!-- Node25&#45;&gt;Node8 -->
<g id="edge50_Node000025_Node000008" class="edge">
<title>Node25&#45;&gt;Node8</title>
<g id="a_edge50_Node000025_Node000008"><a xlink:title=" ">
<path fill="none" stroke="#63b8ff" d="M562.27,-342.28C508.67,-333.11 425.88,-318.93 368.62,-309.13"/>
<polygon fill="#63b8ff" stroke="#63b8ff" points="369.46,-305.72 359.02,-307.48 368.28,-312.62 369.46,-305.72"/>
</a>
</g>
</g>
<!-- Node25&#45;&gt;Node11 -->
<g id="edge41_Node000025_Node000011" class="edge">
<title>Node25&#45;&gt;Node11</title>
<g id="a_edge41_Node000025_Node000011"><a xlink:title=" ">
<path fill="none" stroke="#63b8ff" d="M595.07,-342.31C552.46,-323.28 453.47,-279.08 403.06,-256.58"/>
<polygon fill="#63b8ff" stroke="#63b8ff" points="404.73,-253.49 394.17,-252.61 401.87,-259.88 404.73,-253.49"/>
</a>
</g>
</g>
<!-- Node26 -->
<g id="Node000026" class="node">
<title>Node26</title>
<g id="a_Node000026"><a xlink:href="saveable_8h.html" target="_top" xlink:title=" ">
<polygon fill="white" stroke="#666666" points="798,-251.5 734.75,-251.5 734.75,-232.25 798,-232.25 798,-251.5"/>
<text xml:space="preserve" text-anchor="middle" x="766.38" y="-238" font-family="Helvetica,sans-Serif" font-size="10.00">saveable.h</text>
</a>
</g>
</g>
<!-- Node25&#45;&gt;Node26 -->
<g id="edge33_Node000025_Node000026" class="edge">
<title>Node25&#45;&gt;Node26</title>
<g id="a_edge33_Node000025_Node000026"><a xlink:title=" ">
<path fill="none" stroke="#63b8ff" d="M630.94,-342.29C645.54,-333.59 667.86,-319.9 686.38,-306.75 707.94,-291.44 731.46,-272.35 747.38,-259.04"/>
<polygon fill="#63b8ff" stroke="#63b8ff" points="749.25,-262.04 754.65,-252.92 744.74,-256.69 749.25,-262.04"/>
</a>
</g>
</g>
<!-- Node28 -->
<g id="Node000028" class="node">
<title>Node28</title>
<g id="a_Node000028"><a xlink:href="config__item_8h.html" target="_top" xlink:title=" ">
<polygon fill="white" stroke="#666666" points="677.75,-306.75 553,-306.75 553,-287.5 677.75,-287.5 677.75,-306.75"/>
<text xml:space="preserve" text-anchor="middle" x="615.38" y="-293.25" font-family="Helvetica,sans-Serif" font-size="10.00">sensesp/ui/config_item.h</text>
</a>
</g>
</g>
<!-- Node25&#45;&gt;Node28 -->
<g id="edge42_Node000025_Node000028" class="edge">
<title>Node25&#45;&gt;Node28</title>
<g id="a_edge42_Node000025_Node000028"><a xlink:title=" ">
<path fill="none" stroke="#63b8ff" d="M615.38,-342.58C615.38,-336.07 615.38,-326.92 615.38,-318.62"/>
<polygon fill="#63b8ff" stroke="#63b8ff" points="618.88,-318.62 615.38,-308.62 611.88,-318.62 618.88,-318.62"/>
</a>
</g>
</g>
<!-- Node26&#45;&gt;Node3 -->
<g id="edge36_Node000026_Node000003" class="edge">
<title>Node26&#45;&gt;Node3</title>
<g id="a_edge36_Node000026_Node000003"><a xlink:title=" ">
<path fill="none" stroke="#63b8ff" d="M761.63,-231.85C743.71,-197.74 679.89,-76.3 655.21,-29.35"/>
<polygon fill="#63b8ff" stroke="#63b8ff" points="658.41,-27.91 650.66,-20.68 652.21,-31.16 658.41,-27.91"/>
</a>
</g>
</g>
<!-- Node26&#45;&gt;Node9 -->
<g id="edge35_Node000026_Node000009" class="edge">
<title>Node26&#45;&gt;Node9</title>
<g id="a_edge35_Node000026_Node000009"><a xlink:title=" ">
<path fill="none" stroke="#63b8ff" d="M748.25,-231.81C710.43,-212.9 622.9,-169.14 577.63,-146.5"/>
<polygon fill="#63b8ff" stroke="#63b8ff" points="579.47,-143.51 568.96,-142.17 576.34,-149.77 579.47,-143.51"/>
</a>
</g>
</g>
<!-- Node26&#45;&gt;Node16 -->
<g id="edge34_Node000026_Node000016" class="edge">
<title>Node26&#45;&gt;Node16</title>
<g id="a_edge34_Node000026_Node000016"><a xlink:title=" ">
<path fill="none" stroke="#63b8ff" d="M768.07,-232.06C770.83,-219.19 777.15,-194.88 788.38,-177 794.97,-166.49 804.5,-156.57 813.08,-148.77"/>
<polygon fill="#63b8ff" stroke="#63b8ff" points="815.11,-151.65 820.39,-142.46 810.53,-146.35 815.11,-151.65"/>
</a>
</g>
</g>
<!-- Node26&#45;&gt;Node27 -->
<g id="edge37_Node000026_Node000027" class="edge">
<title>Node26&#45;&gt;Node27</title>
<g id="a_edge37_Node000026_Node000027"><a xlink:title=" ">
<path fill="none" stroke="#63b8ff" d="M777.74,-231.84C787.42,-224.15 801.57,-212.9 813.18,-203.68"/>
<polygon fill="#63b8ff" stroke="#63b8ff" points="815.34,-206.43 820.99,-197.47 810.99,-200.95 815.34,-206.43"/>
</a>
</g>
</g>
<!-- Node27&#45;&gt;Node3 -->
<g id="edge40_Node000027_Node000003" class="edge">
<title>Node27&#45;&gt;Node3</title>
<g id="a_edge40_Node000027_Node000003"><a xlink:title=" ">
<path fill="none" stroke="#63b8ff" d="M848.65,-176.53C883.46,-154.72 962.93,-98.07 926.38,-55.25 895.9,-19.56 755.87,-12.27 685.69,-10.88"/>
<polygon fill="#63b8ff" stroke="#63b8ff" points="685.82,-7.38 675.76,-10.72 685.7,-14.38 685.82,-7.38"/>
</a>
</g>
</g>
<!-- Node27&#45;&gt;Node9 -->
<g id="edge39_Node000027_Node000009" class="edge">
<title>Node27&#45;&gt;Node9</title>
<g id="a_edge39_Node000027_Node000009"><a xlink:title=" ">
<path fill="none" stroke="#63b8ff" d="M796.54,-178.72C746.41,-169.32 656.51,-152.46 600.05,-141.88"/>
<polygon fill="#63b8ff" stroke="#63b8ff" points="600.85,-138.46 590.37,-140.06 599.56,-145.34 600.85,-138.46"/>
</a>
</g>
</g>
<!-- Node27&#45;&gt;Node16 -->
<g id="edge38_Node000027_Node000016" class="edge">
<title>Node27&#45;&gt;Node16</title>
<g id="a_edge38_Node000027_Node000016"><a xlink:title=" ">
<path fill="none" stroke="#63b8ff" d="M833.38,-176.83C833.38,-170.32 833.38,-161.17 833.38,-152.87"/>
<polygon fill="#63b8ff" stroke="#63b8ff" points="836.88,-152.87 833.38,-142.87 829.88,-152.87 836.88,-152.87"/>
</a>
</g>
</g>
<!-- Node28&#45;&gt;Node3 -->
<g id="edge47_Node000028_Node000003" class="edge">
<title>Node28&#45;&gt;Node3</title>
<g id="a_edge47_Node000028_Node000003"><a xlink:title=" ">
<path fill="none" stroke="#63b8ff" d="M642.31,-287.11C658.51,-280.14 677.79,-268.72 687.38,-251.5 698.13,-232.19 663.58,-84.86 650.33,-30.6"/>
<polygon fill="#63b8ff" stroke="#63b8ff" points="653.8,-30.07 648.01,-21.19 647.01,-31.74 653.8,-30.07"/>
</a>
</g>
</g>
<!-- Node28&#45;&gt;Node6 -->
<g id="edge46_Node000028_Node000006" class="edge">
<title>Node28&#45;&gt;Node6</title>
<g id="a_edge46_Node000028_Node000006"><a xlink:title=" ">
<path fill="none" stroke="#63b8ff" d="M587.38,-287.09C559.3,-278.03 515.95,-264.04 485.56,-254.23"/>
<polygon fill="#63b8ff" stroke="#63b8ff" points="487.03,-251.03 476.44,-251.29 484.88,-257.69 487.03,-251.03"/>
</a>
</g>
</g>
<!-- Node28&#45;&gt;Node9 -->
<g id="edge48_Node000028_Node000009" class="edge">
<title>Node28&#45;&gt;Node9</title>
<g id="a_edge48_Node000028_Node000009"><a xlink:title=" ">
<path fill="none" stroke="#63b8ff" d="M611.83,-287.32C601.53,-261.78 571.47,-187.2 557.15,-151.65"/>
<polygon fill="#63b8ff" stroke="#63b8ff" points="560.49,-150.59 553.51,-142.63 554,-153.21 560.49,-150.59"/>
</a>
</g>
</g>
<!-- Node28&#45;&gt;Node10 -->
<g id="edge44_Node000028_Node000010" class="edge">
<title>Node28&#45;&gt;Node10</title>
<g id="a_edge44_Node000028_Node000010"><a xlink:title=" ">
<path fill="none" stroke="#63b8ff" d="M616.34,-287.04C618.14,-273.84 622.99,-249.11 635.38,-232.25 686.31,-162.89 720.68,-166.19 794.38,-121.75 816.44,-108.45 842.4,-95.11 861.91,-85.53"/>
<polygon fill="#63b8ff" stroke="#63b8ff" points="863.19,-88.79 870.66,-81.27 860.13,-82.5 863.19,-88.79"/>
</a>
</g>
</g>
<!-- Node28&#45;&gt;Node14 -->
<g id="edge45_Node000028_Node000014" class="edge">
<title>Node28&#45;&gt;Node14</title>
<g id="a_edge45_Node000028_Node000014"><a xlink:title=" ">
<path fill="none" stroke="#63b8ff" d="M602.98,-287.21C591.94,-278.85 575.8,-265.56 564.38,-251.5 553.2,-237.75 543.53,-220.06 537.04,-206.79"/>
<polygon fill="#63b8ff" stroke="#63b8ff" points="540.25,-205.4 532.83,-197.84 533.92,-208.38 540.25,-205.4"/>
</a>
</g>
</g>
<!-- Node28&#45;&gt;Node26 -->
<g id="edge49_Node000028_Node000026" class="edge">
<title>Node28&#45;&gt;Node26</title>
<g id="a_edge49_Node000028_Node000026"><a xlink:title=" ">
<path fill="none" stroke="#63b8ff" d="M640.99,-287.09C665.39,-278.49 702.39,-265.44 729.87,-255.75"/>
<polygon fill="#63b8ff" stroke="#63b8ff" points="730.94,-259.08 739.21,-252.46 728.61,-252.48 730.94,-259.08"/>
</a>
</g>
</g>
<!-- Node29 -->
<g id="Node000029" class="node">
<title>Node29</title>
<g id="a_Node000029"><a xlink:title=" ">
<polygon fill="#e0e0e0" stroke="#999999" points="678.75,-251.5 644,-251.5 644,-232.25 678.75,-232.25 678.75,-251.5"/>
<text xml:space="preserve" text-anchor="middle" x="661.38" y="-238" font-family="Helvetica,sans-Serif" font-size="10.00">map</text>
</a>
</g>
</g>
<!-- Node28&#45;&gt;Node29 -->
<g id="edge43_Node000028_Node000029" class="edge">
<title>Node28&#45;&gt;Node29</title>
<g id="a_edge43_Node000028_Node000029"><a xlink:title=" ">
<path fill="none" stroke="#63b8ff" d="M622.97,-287.33C629.26,-280.05 638.39,-269.48 646.17,-260.48"/>
<polygon fill="#63b8ff" stroke="#63b8ff" points="648.74,-262.86 652.62,-253 643.44,-258.28 648.74,-262.86"/>
</a>
</g>
</g>
<!-- Node31 -->
<g id="Node000031" class="node">
<title>Node31</title>
<g id="a_Node000031"><a xlink:title=" ">
<polygon fill="#e0e0e0" stroke="#999999" points="964.5,-251.5 922.25,-251.5 922.25,-232.25 964.5,-232.25 964.5,-251.5"/>
<text xml:space="preserve" text-anchor="middle" x="943.38" y="-238" font-family="Helvetica,sans-Serif" font-size="10.00">queue</text>
</a>
</g>
</g>
<!-- Node30&#45;&gt;Node31 -->
<g id="edge52_Node000030_Node000031" class="edge">
<title>Node30&#45;&gt;Node31</title>
<g id="a_edge52_Node000030_Node000031"><a xlink:title=" ">
<path fill="none" stroke="#63b8ff" d="M943.38,-287.33C943.38,-280.82 943.38,-271.67 943.38,-263.37"/>
<polygon fill="#63b8ff" stroke="#63b8ff" points="946.88,-263.37 943.38,-253.37 939.88,-263.37 946.88,-263.37"/>
</a>
</g>
</g>
<!-- Node32&#45;&gt;Node10 -->
<g id="edge56_Node000032_Node000010" class="edge">
<title>Node32&#45;&gt;Node10</title>
<g id="a_edge56_Node000032_Node000010"><a xlink:title=" ">
<path fill="none" stroke="#63b8ff" d="M871.56,-405.21C925.02,-397.22 1001.77,-382.55 1023.38,-362 1044.83,-341.59 1042.38,-327.74 1042.38,-298.12 1042.38,-298.12 1042.38,-298.12 1042.38,-185.62 1042.38,-128.52 972.8,-96.36 928.1,-81.59"/>
<polygon fill="#63b8ff" stroke="#63b8ff" points="929.37,-78.31 918.78,-78.65 927.27,-84.99 929.37,-78.31"/>
</a>
</g>
</g>
<!-- Node32&#45;&gt;Node16 -->
<g id="edge55_Node000032_Node000016" class="edge">
<title>Node32&#45;&gt;Node16</title>
<g id="a_edge55_Node000032_Node000016"><a xlink:title=" ">
<path fill="none" stroke="#63b8ff" d="M808.42,-403.14C796.79,-390.18 778.72,-365.44 785.38,-342.75 796.26,-305.63 868.49,-233.37 879.38,-196.25 881.78,-188.04 882.71,-184.88 879.38,-177 874.61,-165.74 865.47,-155.93 856.58,-148.4"/>
<polygon fill="#63b8ff" stroke="#63b8ff" points="858.84,-145.72 848.8,-142.33 854.53,-151.24 858.84,-145.72"/>
</a>
</g>
</g>
<!-- Node32&#45;&gt;Node25 -->
<g id="edge60_Node000032_Node000025" class="edge">
<title>Node32&#45;&gt;Node25</title>
<g id="a_edge60_Node000032_Node000025"><a xlink:title=" ">
<path fill="none" stroke="#63b8ff" d="M786.26,-403.18C751.71,-393.11 695.76,-376.8 657.35,-365.61"/>
<polygon fill="#63b8ff" stroke="#63b8ff" points="658.56,-362.32 647.98,-362.88 656.6,-369.04 658.56,-362.32"/>
</a>
</g>
</g>
<!-- Node33 -->
<g id="Node000033" class="node">
<title>Node33</title>
<g id="a_Node000033"><a xlink:title=" ">
<polygon fill="#e0e0e0" stroke="#999999" points="852.38,-362 794.38,-362 794.38,-342.75 852.38,-342.75 852.38,-362"/>
<text xml:space="preserve" text-anchor="middle" x="823.38" y="-348.5" font-family="Helvetica,sans-Serif" font-size="10.00">esp_log.h</text>
</a>
</g>
</g>
<!-- Node32&#45;&gt;Node33 -->
<g id="edge57_Node000032_Node000033" class="edge">
<title>Node32&#45;&gt;Node33</title>
<g id="a_edge57_Node000032_Node000033"><a xlink:title=" ">
<path fill="none" stroke="#63b8ff" d="M818.29,-403.31C819.09,-395.44 820.28,-383.7 821.32,-373.57"/>
<polygon fill="#63b8ff" stroke="#63b8ff" points="824.77,-374.21 822.3,-363.91 817.81,-373.5 824.77,-374.21"/>
</a>
</g>
</g>
<!-- Node34 -->
<g id="Node000034" class="node">
<title>Node34</title>
<g id="a_Node000034"><a xlink:href="filesystem_8h.html" target="_top" xlink:title=" ">
<polygon fill="white" stroke="#666666" points="1014.5,-362 870.25,-362 870.25,-342.75 1014.5,-342.75 1014.5,-362"/>
<text xml:space="preserve" text-anchor="middle" x="942.38" y="-348.5" font-family="Helvetica,sans-Serif" font-size="10.00">sensesp/system/filesystem.h</text>
</a>
</g>
</g>
<!-- Node32&#45;&gt;Node34 -->
<g id="edge58_Node000032_Node000034" class="edge">
<title>Node32&#45;&gt;Node34</title>
<g id="a_edge58_Node000032_Node000034"><a xlink:title=" ">
<path fill="none" stroke="#63b8ff" d="M836.63,-403.18C857.06,-393.56 889.58,-378.24 913.17,-367.13"/>
<polygon fill="#63b8ff" stroke="#63b8ff" points="914.38,-370.43 921.93,-363 911.39,-364.1 914.38,-370.43"/>
</a>
</g>
</g>
<!-- Node34&#45;&gt;Node30 -->
<g id="edge59_Node000034_Node000030" class="edge">
<title>Node34&#45;&gt;Node30</title>
<g id="a_edge59_Node000034_Node000030"><a xlink:title=" ">
<path fill="none" stroke="#63b8ff" d="M942.54,-342.58C942.66,-336.07 942.83,-326.92 942.99,-318.62"/>
<polygon fill="#63b8ff" stroke="#63b8ff" points="946.49,-318.69 943.18,-308.62 939.49,-318.55 946.49,-318.69"/>
</a>
</g>
</g>
</g>
</svg>
