<?xml version="1.0" encoding="UTF-8" standalone="no"?>
<!DOCTYPE svg PUBLIC "-//W3C//DTD SVG 1.1//EN"
 "http://www.w3.org/Graphics/SVG/1.1/DTD/svg11.dtd">
<!-- Generated by graphviz version 2.44.1 (20200629.0846)
 -->
<!-- Title: parse_NS Pages: 1 -->
<svg width="229pt" height="186pt"
 viewBox="0.00 0.00 229.00 186.00" xmlns="http://www.w3.org/2000/svg" xmlns:xlink="http://www.w3.org/1999/xlink">
<g id="graph0" class="graph" transform="scale(1 1) rotate(0) translate(4 182)">
<title>parse_NS</title>
<polygon fill="white" stroke="transparent" points="-4,4 -4,-182 225,-182 225,4 -4,4"/>
<!-- Node39 -->
<g id="node1" class="node">
<title>Node39</title>
<g id="a_node1"><a xlink:title=" ">
<polygon fill="#bfbfbf" stroke="black" points="161,-79 161,-98 221,-98 221,-79 161,-79"/>
<text text-anchor="middle" x="191" y="-86" font-family="Helvetica,sans-Serif" font-size="10.00">parse_NS</text>
</a>
</g>
</g>
<!-- Node40 -->
<g id="node2" class="node">
<title>Node40</title>
<g id="a_node2"><a xlink:href="class_g_p_g_g_a_sentence_parser.html#a6bce986c2fb84af7c54477cd7d43f1b1" target="_top" xlink:title=" ">
<polygon fill="white" stroke="black" points="1.5,-147.5 1.5,-177.5 123.5,-177.5 123.5,-147.5 1.5,-147.5"/>
<text text-anchor="start" x="9.5" y="-165.5" font-family="Helvetica,sans-Serif" font-size="10.00">GPGGASentenceParser</text>
<text text-anchor="middle" x="62.5" y="-154.5" font-family="Helvetica,sans-Serif" font-size="10.00">::parse</text>
</a>
</g>
</g>
<!-- Node39&#45;&gt;Node40 -->
<g id="edge1" class="edge">
<title>Node39&#45;&gt;Node40</title>
<path fill="none" stroke="midnightblue" d="M171.35,-105.15C158.87,-115.69 141.72,-129.06 125,-138.5 119.31,-141.71 113.11,-144.68 106.9,-147.36"/>
<polygon fill="midnightblue" stroke="midnightblue" points="173.9,-107.57 179.18,-98.39 169.32,-102.27 173.9,-107.57"/>
</g>
<!-- Node41 -->
<g id="node3" class="node">
<title>Node41</title>
<g id="a_node3"><a xlink:href="class_g_p_g_l_l_sentence_parser.html#ab1583e721b24183fcc59f2b2826b8c52" target="_top" xlink:title=" ">
<polygon fill="white" stroke="black" points="3,-98.5 3,-128.5 122,-128.5 122,-98.5 3,-98.5"/>
<text text-anchor="start" x="11" y="-116.5" font-family="Helvetica,sans-Serif" font-size="10.00">GPGLLSentenceParser</text>
<text text-anchor="middle" x="62.5" y="-105.5" font-family="Helvetica,sans-Serif" font-size="10.00">::parse</text>
</a>
</g>
</g>
<!-- Node39&#45;&gt;Node41 -->
<g id="edge2" class="edge">
<title>Node39&#45;&gt;Node41</title>
<path fill="none" stroke="midnightblue" d="M151.02,-96.2C141.86,-98.01 131.89,-99.98 122.08,-101.92"/>
<polygon fill="midnightblue" stroke="midnightblue" points="151.85,-99.61 160.98,-94.24 150.49,-92.74 151.85,-99.61"/>
</g>
<!-- Node42 -->
<g id="node4" class="node">
<title>Node42</title>
<g id="a_node4"><a xlink:href="class_g_p_r_m_c_sentence_parser.html#a67589bcbddabbe32aac949c3ca9f4a75" target="_top" xlink:title=" ">
<polygon fill="white" stroke="black" points="0.5,-49.5 0.5,-79.5 124.5,-79.5 124.5,-49.5 0.5,-49.5"/>
<text text-anchor="start" x="8.5" y="-67.5" font-family="Helvetica,sans-Serif" font-size="10.00">GPRMCSentenceParser</text>
<text text-anchor="middle" x="62.5" y="-56.5" font-family="Helvetica,sans-Serif" font-size="10.00">::parse</text>
</a>
</g>
</g>
<!-- Node39&#45;&gt;Node42 -->
<g id="edge3" class="edge">
<title>Node39&#45;&gt;Node42</title>
<path fill="none" stroke="midnightblue" d="M151.12,-81.12C142.72,-79.53 133.65,-77.81 124.63,-76.1"/>
<polygon fill="midnightblue" stroke="midnightblue" points="150.5,-84.57 160.98,-82.99 151.81,-77.69 150.5,-84.57"/>
</g>
<!-- Node43 -->
<g id="node5" class="node">
<title>Node43</title>
<g id="a_node5"><a xlink:href="class_p_s_t_i030_sentence_parser.html#aee500dadf0a5ff089d8281c642cdb9bc" target="_top" xlink:title=" ">
<polygon fill="white" stroke="black" points="0,-0.5 0,-30.5 125,-30.5 125,-0.5 0,-0.5"/>
<text text-anchor="start" x="8" y="-18.5" font-family="Helvetica,sans-Serif" font-size="10.00">PSTI030SentenceParser</text>
<text text-anchor="middle" x="62.5" y="-7.5" font-family="Helvetica,sans-Serif" font-size="10.00">::parse</text>
</a>
</g>
</g>
<!-- Node39&#45;&gt;Node43 -->
<g id="edge4" class="edge">
<title>Node39&#45;&gt;Node43</title>
<path fill="none" stroke="midnightblue" d="M170.74,-72.28C158.25,-62.27 141.3,-49.64 125,-40.5 118.57,-36.89 111.51,-33.53 104.53,-30.51"/>
<polygon fill="midnightblue" stroke="midnightblue" points="168.67,-75.1 178.62,-78.72 173.09,-69.68 168.67,-75.1"/>
</g>
</g>
</svg>
