<?xml version="1.0" encoding="UTF-8" standalone="no"?>
<!DOCTYPE svg PUBLIC "-//W3C//DTD SVG 1.1//EN"
 "http://www.w3.org/Graphics/SVG/1.1/DTD/svg11.dtd">
<!-- Generated by graphviz version 2.44.1 (20200629.0846)
 -->
<!-- Title: src/system/nmea_parser.h Pages: 1 -->
<svg width="521pt" height="308pt"
 viewBox="0.00 0.00 520.50 308.00" xmlns="http://www.w3.org/2000/svg" xmlns:xlink="http://www.w3.org/1999/xlink">
<g id="graph0" class="graph" transform="scale(1 1) rotate(0) translate(4 304)">
<title>src/system/nmea_parser.h</title>
<polygon fill="white" stroke="transparent" points="-4,4 -4,-304 516.5,-304 516.5,4 -4,4"/>
<!-- Node1 -->
<g id="node1" class="node">
<title>Node1</title>
<g id="a_node1"><a xlink:title=" ">
<polygon fill="#bfbfbf" stroke="black" points="64.5,-280.5 64.5,-299.5 196.5,-299.5 196.5,-280.5 64.5,-280.5"/>
<text text-anchor="middle" x="130.5" y="-287.5" font-family="Helvetica,sans-Serif" font-size="10.00">src/system/nmea_parser.h</text>
</a>
</g>
</g>
<!-- Node2 -->
<g id="node2" class="node">
<title>Node2</title>
<g id="a_node2"><a xlink:title=" ">
<polygon fill="white" stroke="#bfbfbf" points="48,-224.5 48,-243.5 83,-243.5 83,-224.5 48,-224.5"/>
<text text-anchor="middle" x="65.5" y="-231.5" font-family="Helvetica,sans-Serif" font-size="10.00">map</text>
</a>
</g>
</g>
<!-- Node1&#45;&gt;Node2 -->
<g id="edge1" class="edge">
<title>Node1&#45;&gt;Node2</title>
<path fill="none" stroke="midnightblue" d="M120.06,-280.32C110.35,-272.26 95.68,-260.08 84,-250.37"/>
<polygon fill="midnightblue" stroke="midnightblue" points="86.06,-247.53 76.13,-243.83 81.59,-252.92 86.06,-247.53"/>
</g>
<!-- Node3 -->
<g id="node3" class="node">
<title>Node3</title>
<g id="a_node3"><a xlink:title=" ">
<polygon fill="white" stroke="#bfbfbf" points="101.5,-224.5 101.5,-243.5 159.5,-243.5 159.5,-224.5 101.5,-224.5"/>
<text text-anchor="middle" x="130.5" y="-231.5" font-family="Helvetica,sans-Serif" font-size="10.00">Arduino.h</text>
</a>
</g>
</g>
<!-- Node1&#45;&gt;Node3 -->
<g id="edge2" class="edge">
<title>Node1&#45;&gt;Node3</title>
<path fill="none" stroke="midnightblue" d="M130.5,-280.08C130.5,-273.01 130.5,-262.86 130.5,-253.99"/>
<polygon fill="midnightblue" stroke="midnightblue" points="134,-253.75 130.5,-243.75 127,-253.75 134,-253.75"/>
</g>
<!-- Node4 -->
<g id="node4" class="node">
<title>Node4</title>
<g id="a_node4"><a xlink:href="observablevalue_8h.html" target="_top" xlink:title=" ">
<polygon fill="white" stroke="black" points="178,-224.5 178,-243.5 273,-243.5 273,-224.5 178,-224.5"/>
<text text-anchor="middle" x="225.5" y="-231.5" font-family="Helvetica,sans-Serif" font-size="10.00">observablevalue.h</text>
</a>
</g>
</g>
<!-- Node1&#45;&gt;Node4 -->
<g id="edge3" class="edge">
<title>Node1&#45;&gt;Node4</title>
<path fill="none" stroke="midnightblue" d="M145.76,-280.32C160.72,-271.82 183.75,-258.73 201.23,-248.8"/>
<polygon fill="midnightblue" stroke="midnightblue" points="203.31,-251.64 210.27,-243.65 199.85,-245.55 203.31,-251.64"/>
</g>
<!-- Node5 -->
<g id="node5" class="node">
<title>Node5</title>
<g id="a_node5"><a xlink:href="observable_8h.html" target="_top" xlink:title=" ">
<polygon fill="white" stroke="black" points="148.5,-112.5 148.5,-131.5 220.5,-131.5 220.5,-112.5 148.5,-112.5"/>
<text text-anchor="middle" x="184.5" y="-119.5" font-family="Helvetica,sans-Serif" font-size="10.00">observable.h</text>
</a>
</g>
</g>
<!-- Node4&#45;&gt;Node5 -->
<g id="edge4" class="edge">
<title>Node4&#45;&gt;Node5</title>
<path fill="none" stroke="midnightblue" d="M222.28,-224.37C215.64,-206.54 200.26,-165.3 191.31,-141.27"/>
<polygon fill="midnightblue" stroke="midnightblue" points="194.47,-139.74 187.7,-131.59 187.92,-142.18 194.47,-139.74"/>
</g>
<!-- Node9 -->
<g id="node9" class="node">
<title>Node9</title>
<g id="a_node9"><a xlink:href="valueproducer_8h.html" target="_top" xlink:title=" ">
<polygon fill="white" stroke="black" points="219,-168.5 219,-187.5 304,-187.5 304,-168.5 219,-168.5"/>
<text text-anchor="middle" x="261.5" y="-175.5" font-family="Helvetica,sans-Serif" font-size="10.00">valueproducer.h</text>
</a>
</g>
</g>
<!-- Node4&#45;&gt;Node9 -->
<g id="edge8" class="edge">
<title>Node4&#45;&gt;Node9</title>
<path fill="none" stroke="midnightblue" d="M231.44,-224.08C236.48,-216.53 243.84,-205.49 250.01,-196.23"/>
<polygon fill="midnightblue" stroke="midnightblue" points="253.03,-198.01 255.67,-187.75 247.21,-194.13 253.03,-198.01"/>
</g>
<!-- Node6 -->
<g id="node6" class="node">
<title>Node6</title>
<g id="a_node6"><a xlink:title=" ">
<polygon fill="white" stroke="#bfbfbf" points="0,-56.5 0,-75.5 67,-75.5 67,-56.5 0,-56.5"/>
<text text-anchor="middle" x="33.5" y="-63.5" font-family="Helvetica,sans-Serif" font-size="10.00">forward_list</text>
</a>
</g>
</g>
<!-- Node5&#45;&gt;Node6 -->
<g id="edge5" class="edge">
<title>Node5&#45;&gt;Node6</title>
<path fill="none" stroke="midnightblue" d="M160.57,-112.44C135.28,-103.4 95.2,-89.06 66.82,-78.92"/>
<polygon fill="midnightblue" stroke="midnightblue" points="67.91,-75.59 57.31,-75.52 65.55,-82.18 67.91,-75.59"/>
</g>
<!-- Node7 -->
<g id="node7" class="node">
<title>Node7</title>
<g id="a_node7"><a xlink:title=" ">
<polygon fill="white" stroke="#bfbfbf" points="85,-56.5 85,-75.5 144,-75.5 144,-56.5 85,-56.5"/>
<text text-anchor="middle" x="114.5" y="-63.5" font-family="Helvetica,sans-Serif" font-size="10.00">functional</text>
</a>
</g>
</g>
<!-- Node5&#45;&gt;Node7 -->
<g id="edge6" class="edge">
<title>Node5&#45;&gt;Node7</title>
<path fill="none" stroke="midnightblue" d="M173.25,-112.32C162.7,-104.18 146.7,-91.84 134.06,-82.09"/>
<polygon fill="midnightblue" stroke="midnightblue" points="136.01,-79.17 125.95,-75.83 131.73,-84.71 136.01,-79.17"/>
</g>
<!-- Node8 -->
<g id="node8" class="node">
<title>Node8</title>
<g id="a_node8"><a xlink:title=" ">
<polygon fill="white" stroke="#bfbfbf" points="162.5,-56.5 162.5,-75.5 206.5,-75.5 206.5,-56.5 162.5,-56.5"/>
<text text-anchor="middle" x="184.5" y="-63.5" font-family="Helvetica,sans-Serif" font-size="10.00">vector</text>
</a>
</g>
</g>
<!-- Node5&#45;&gt;Node8 -->
<g id="edge7" class="edge">
<title>Node5&#45;&gt;Node8</title>
<path fill="none" stroke="midnightblue" d="M184.5,-112.08C184.5,-105.01 184.5,-94.86 184.5,-85.99"/>
<polygon fill="midnightblue" stroke="midnightblue" points="188,-85.75 184.5,-75.75 181,-85.75 188,-85.75"/>
</g>
<!-- Node9&#45;&gt;Node5 -->
<g id="edge10" class="edge">
<title>Node9&#45;&gt;Node5</title>
<path fill="none" stroke="midnightblue" d="M249.13,-168.32C237.34,-160.06 219.37,-147.45 205.36,-137.63"/>
<polygon fill="midnightblue" stroke="midnightblue" points="207.04,-134.53 196.84,-131.65 203.02,-140.26 207.04,-134.53"/>
</g>
<!-- Node10 -->
<g id="node10" class="node">
<title>Node10</title>
<g id="a_node10"><a xlink:title=" ">
<polygon fill="white" stroke="#bfbfbf" points="225,-56.5 225,-75.5 304,-75.5 304,-56.5 225,-56.5"/>
<text text-anchor="middle" x="264.5" y="-63.5" font-family="Helvetica,sans-Serif" font-size="10.00">ArduinoJson.h</text>
</a>
</g>
</g>
<!-- Node9&#45;&gt;Node10 -->
<g id="edge9" class="edge">
<title>Node9&#45;&gt;Node10</title>
<path fill="none" stroke="midnightblue" d="M261.74,-168.37C262.22,-150.62 263.34,-109.67 263.99,-85.6"/>
<polygon fill="midnightblue" stroke="midnightblue" points="267.49,-85.68 264.27,-75.59 260.49,-85.49 267.49,-85.68"/>
</g>
<!-- Node11 -->
<g id="node11" class="node">
<title>Node11</title>
<g id="a_node11"><a xlink:href="valueconsumer_8h.html" target="_top" xlink:title=" ">
<polygon fill="white" stroke="black" points="296.5,-112.5 296.5,-131.5 386.5,-131.5 386.5,-112.5 296.5,-112.5"/>
<text text-anchor="middle" x="341.5" y="-119.5" font-family="Helvetica,sans-Serif" font-size="10.00">valueconsumer.h</text>
</a>
</g>
</g>
<!-- Node9&#45;&gt;Node11 -->
<g id="edge11" class="edge">
<title>Node9&#45;&gt;Node11</title>
<path fill="none" stroke="midnightblue" d="M274.35,-168.32C286.72,-159.98 305.63,-147.21 320.24,-137.35"/>
<polygon fill="midnightblue" stroke="midnightblue" points="322.35,-140.15 328.68,-131.65 318.43,-134.35 322.35,-140.15"/>
</g>
<!-- Node11&#45;&gt;Node10 -->
<g id="edge12" class="edge">
<title>Node11&#45;&gt;Node10</title>
<path fill="none" stroke="midnightblue" d="M329.13,-112.32C317.34,-104.06 299.37,-91.45 285.36,-81.63"/>
<polygon fill="midnightblue" stroke="midnightblue" points="287.04,-78.53 276.84,-75.65 283.02,-84.26 287.04,-78.53"/>
</g>
<!-- Node12 -->
<g id="node12" class="node">
<title>Node12</title>
<g id="a_node12"><a xlink:title=" ">
<polygon fill="white" stroke="#bfbfbf" points="322,-56.5 322,-75.5 371,-75.5 371,-56.5 322,-56.5"/>
<text text-anchor="middle" x="346.5" y="-63.5" font-family="Helvetica,sans-Serif" font-size="10.00">stdint.h</text>
</a>
</g>
</g>
<!-- Node11&#45;&gt;Node12 -->
<g id="edge13" class="edge">
<title>Node11&#45;&gt;Node12</title>
<path fill="none" stroke="midnightblue" d="M342.33,-112.08C342.98,-105.01 343.92,-94.86 344.74,-85.99"/>
<polygon fill="midnightblue" stroke="midnightblue" points="348.25,-86.03 345.69,-75.75 341.28,-85.39 348.25,-86.03"/>
</g>
<!-- Node13 -->
<g id="node13" class="node">
<title>Node13</title>
<g id="a_node13"><a xlink:href="sensesp_8h.html" target="_top" xlink:title=" ">
<polygon fill="white" stroke="black" points="389.5,-56.5 389.5,-75.5 451.5,-75.5 451.5,-56.5 389.5,-56.5"/>
<text text-anchor="middle" x="420.5" y="-63.5" font-family="Helvetica,sans-Serif" font-size="10.00">sensesp.h</text>
</a>
</g>
</g>
<!-- Node11&#45;&gt;Node13 -->
<g id="edge14" class="edge">
<title>Node11&#45;&gt;Node13</title>
<path fill="none" stroke="midnightblue" d="M354.19,-112.32C366.4,-103.98 385.08,-91.21 399.5,-81.35"/>
<polygon fill="midnightblue" stroke="midnightblue" points="401.56,-84.19 407.84,-75.65 397.61,-78.41 401.56,-84.19"/>
</g>
<!-- Node14 -->
<g id="node14" class="node">
<title>Node14</title>
<g id="a_node14"><a xlink:title=" ">
<polygon fill="white" stroke="#bfbfbf" points="336.5,-0.5 336.5,-19.5 406.5,-19.5 406.5,-0.5 336.5,-0.5"/>
<text text-anchor="middle" x="371.5" y="-7.5" font-family="Helvetica,sans-Serif" font-size="10.00">ReactESP.h</text>
</a>
</g>
</g>
<!-- Node13&#45;&gt;Node14 -->
<g id="edge15" class="edge">
<title>Node13&#45;&gt;Node14</title>
<path fill="none" stroke="midnightblue" d="M412.41,-56.08C405.34,-48.3 394.91,-36.8 386.35,-27.37"/>
<polygon fill="midnightblue" stroke="midnightblue" points="388.75,-24.8 379.44,-19.75 383.57,-29.51 388.75,-24.8"/>
</g>
<!-- Node15 -->
<g id="node15" class="node">
<title>Node15</title>
<g id="a_node15"><a xlink:title=" ">
<polygon fill="white" stroke="#bfbfbf" points="424.5,-0.5 424.5,-19.5 512.5,-19.5 512.5,-0.5 424.5,-0.5"/>
<text text-anchor="middle" x="468.5" y="-7.5" font-family="Helvetica,sans-Serif" font-size="10.00">RemoteDebug.h</text>
</a>
</g>
</g>
<!-- Node13&#45;&gt;Node15 -->
<g id="edge16" class="edge">
<title>Node13&#45;&gt;Node15</title>
<path fill="none" stroke="midnightblue" d="M428.43,-56.08C435.35,-48.3 445.57,-36.8 453.95,-27.37"/>
<polygon fill="midnightblue" stroke="midnightblue" points="456.69,-29.55 460.72,-19.75 451.46,-24.9 456.69,-29.55"/>
</g>
</g>
</svg>
