<?xml version="1.0" encoding="UTF-8" standalone="no"?>
<!DOCTYPE svg PUBLIC "-//W3C//DTD SVG 1.1//EN"
 "http://www.w3.org/Graphics/SVG/1.1/DTD/svg11.dtd">
<!-- Generated by graphviz version 2.49.3 (20211023.0002)
 -->
<!-- Title: src/system/nmea_parser.h Pages: 1 -->
<svg width="525pt" height="308pt"
 viewBox="0.00 0.00 524.50 308.00" xmlns="http://www.w3.org/2000/svg" xmlns:xlink="http://www.w3.org/1999/xlink">
<g id="graph0" class="graph" transform="scale(1 1) rotate(0) translate(4 304)">
<title>src/system/nmea_parser.h</title>
<polygon fill="white" stroke="transparent" points="-4,4 -4,-304 520.5,-304 520.5,4 -4,4"/>
<!-- Node1 -->
<g id="node1" class="node">
<title>Node1</title>
<g id="a_node1"><a xlink:title=" ">
<polygon fill="#bfbfbf" stroke="black" points="63,-280.5 63,-299.5 197,-299.5 197,-280.5 63,-280.5"/>
<text text-anchor="middle" x="130" y="-287.5" font-family="Helvetica,sans-Serif" font-size="10.00">src/system/nmea_parser.h</text>
</a>
</g>
</g>
<!-- Node2 -->
<g id="node2" class="node">
<title>Node2</title>
<g id="a_node2"><a xlink:title=" ">
<polygon fill="white" stroke="#bfbfbf" points="46,-224.5 46,-243.5 82,-243.5 82,-224.5 46,-224.5"/>
<text text-anchor="middle" x="64" y="-231.5" font-family="Helvetica,sans-Serif" font-size="10.00">map</text>
</a>
</g>
</g>
<!-- Node1&#45;&gt;Node2 -->
<g id="edge1" class="edge">
<title>Node1&#45;&gt;Node2</title>
<path fill="none" stroke="midnightblue" d="M119.4,-280.32C109.54,-272.26 94.65,-260.08 82.78,-250.37"/>
<polygon fill="midnightblue" stroke="midnightblue" points="84.75,-247.46 74.8,-243.83 80.32,-252.88 84.75,-247.46"/>
</g>
<!-- Node3 -->
<g id="node3" class="node">
<title>Node3</title>
<g id="a_node3"><a xlink:title=" ">
<polygon fill="white" stroke="#bfbfbf" points="100.5,-224.5 100.5,-243.5 159.5,-243.5 159.5,-224.5 100.5,-224.5"/>
<text text-anchor="middle" x="130" y="-231.5" font-family="Helvetica,sans-Serif" font-size="10.00">Arduino.h</text>
</a>
</g>
</g>
<!-- Node1&#45;&gt;Node3 -->
<g id="edge2" class="edge">
<title>Node1&#45;&gt;Node3</title>
<path fill="none" stroke="midnightblue" d="M130,-280.08C130,-273.01 130,-262.86 130,-253.99"/>
<polygon fill="midnightblue" stroke="midnightblue" points="133.5,-253.75 130,-243.75 126.5,-253.75 133.5,-253.75"/>
</g>
<!-- Node4 -->
<g id="node4" class="node">
<title>Node4</title>
<g id="a_node4"><a xlink:href="observablevalue_8h.html" target="_top" xlink:title=" ">
<polygon fill="white" stroke="black" points="178,-224.5 178,-243.5 276,-243.5 276,-224.5 178,-224.5"/>
<text text-anchor="middle" x="227" y="-231.5" font-family="Helvetica,sans-Serif" font-size="10.00">observablevalue.h</text>
</a>
</g>
</g>
<!-- Node1&#45;&gt;Node4 -->
<g id="edge3" class="edge">
<title>Node1&#45;&gt;Node4</title>
<path fill="none" stroke="midnightblue" d="M145.58,-280.32C161,-271.74 184.81,-258.49 202.71,-248.52"/>
<polygon fill="midnightblue" stroke="midnightblue" points="204.42,-251.58 211.45,-243.65 201.01,-245.46 204.42,-251.58"/>
</g>
<!-- Node5 -->
<g id="node5" class="node">
<title>Node5</title>
<g id="a_node5"><a xlink:href="observable_8h.html" target="_top" xlink:title=" ">
<polygon fill="white" stroke="black" points="149,-112.5 149,-131.5 223,-131.5 223,-112.5 149,-112.5"/>
<text text-anchor="middle" x="186" y="-119.5" font-family="Helvetica,sans-Serif" font-size="10.00">observable.h</text>
</a>
</g>
</g>
<!-- Node4&#45;&gt;Node5 -->
<g id="edge4" class="edge">
<title>Node4&#45;&gt;Node5</title>
<path fill="none" stroke="midnightblue" d="M223.78,-224.37C217.14,-206.54 201.76,-165.3 192.81,-141.27"/>
<polygon fill="midnightblue" stroke="midnightblue" points="195.97,-139.74 189.2,-131.59 189.42,-142.18 195.97,-139.74"/>
</g>
<!-- Node9 -->
<g id="node9" class="node">
<title>Node9</title>
<g id="a_node9"><a xlink:href="valueproducer_8h.html" target="_top" xlink:title=" ">
<polygon fill="white" stroke="black" points="220,-168.5 220,-187.5 308,-187.5 308,-168.5 220,-168.5"/>
<text text-anchor="middle" x="264" y="-175.5" font-family="Helvetica,sans-Serif" font-size="10.00">valueproducer.h</text>
</a>
</g>
</g>
<!-- Node4&#45;&gt;Node9 -->
<g id="edge8" class="edge">
<title>Node4&#45;&gt;Node9</title>
<path fill="none" stroke="midnightblue" d="M233.11,-224.08C238.28,-216.53 245.85,-205.49 252.19,-196.23"/>
<polygon fill="midnightblue" stroke="midnightblue" points="255.24,-197.98 258,-187.75 249.46,-194.02 255.24,-197.98"/>
</g>
<!-- Node6 -->
<g id="node6" class="node">
<title>Node6</title>
<g id="a_node6"><a xlink:title=" ">
<polygon fill="white" stroke="#bfbfbf" points="0,-56.5 0,-75.5 68,-75.5 68,-56.5 0,-56.5"/>
<text text-anchor="middle" x="34" y="-63.5" font-family="Helvetica,sans-Serif" font-size="10.00">forward_list</text>
</a>
</g>
</g>
<!-- Node5&#45;&gt;Node6 -->
<g id="edge5" class="edge">
<title>Node5&#45;&gt;Node6</title>
<path fill="none" stroke="midnightblue" d="M161.92,-112.44C136.46,-103.4 96.11,-89.06 67.54,-78.92"/>
<polygon fill="midnightblue" stroke="midnightblue" points="68.57,-75.57 57.97,-75.52 66.22,-82.16 68.57,-75.57"/>
</g>
<!-- Node7 -->
<g id="node7" class="node">
<title>Node7</title>
<g id="a_node7"><a xlink:title=" ">
<polygon fill="white" stroke="#bfbfbf" points="86.5,-56.5 86.5,-75.5 145.5,-75.5 145.5,-56.5 86.5,-56.5"/>
<text text-anchor="middle" x="116" y="-63.5" font-family="Helvetica,sans-Serif" font-size="10.00">functional</text>
</a>
</g>
</g>
<!-- Node5&#45;&gt;Node7 -->
<g id="edge6" class="edge">
<title>Node5&#45;&gt;Node7</title>
<path fill="none" stroke="midnightblue" d="M174.75,-112.32C164.2,-104.18 148.2,-91.84 135.56,-82.09"/>
<polygon fill="midnightblue" stroke="midnightblue" points="137.51,-79.17 127.45,-75.83 133.23,-84.71 137.51,-79.17"/>
</g>
<!-- Node8 -->
<g id="node8" class="node">
<title>Node8</title>
<g id="a_node8"><a xlink:title=" ">
<polygon fill="white" stroke="#bfbfbf" points="164,-56.5 164,-75.5 208,-75.5 208,-56.5 164,-56.5"/>
<text text-anchor="middle" x="186" y="-63.5" font-family="Helvetica,sans-Serif" font-size="10.00">vector</text>
</a>
</g>
</g>
<!-- Node5&#45;&gt;Node8 -->
<g id="edge7" class="edge">
<title>Node5&#45;&gt;Node8</title>
<path fill="none" stroke="midnightblue" d="M186,-112.08C186,-105.01 186,-94.86 186,-85.99"/>
<polygon fill="midnightblue" stroke="midnightblue" points="189.5,-85.75 186,-75.75 182.5,-85.75 189.5,-85.75"/>
</g>
<!-- Node9&#45;&gt;Node5 -->
<g id="edge10" class="edge">
<title>Node9&#45;&gt;Node5</title>
<path fill="none" stroke="midnightblue" d="M251.47,-168.32C239.41,-159.98 220.97,-147.21 206.73,-137.35"/>
<polygon fill="midnightblue" stroke="midnightblue" points="208.72,-134.47 198.5,-131.65 204.73,-140.22 208.72,-134.47"/>
</g>
<!-- Node10 -->
<g id="node10" class="node">
<title>Node10</title>
<g id="a_node10"><a xlink:title=" ">
<polygon fill="white" stroke="#bfbfbf" points="226,-56.5 226,-75.5 306,-75.5 306,-56.5 226,-56.5"/>
<text text-anchor="middle" x="266" y="-63.5" font-family="Helvetica,sans-Serif" font-size="10.00">ArduinoJson.h</text>
</a>
</g>
</g>
<!-- Node9&#45;&gt;Node10 -->
<g id="edge9" class="edge">
<title>Node9&#45;&gt;Node10</title>
<path fill="none" stroke="midnightblue" d="M264.16,-168.37C264.48,-150.62 265.22,-109.67 265.66,-85.6"/>
<polygon fill="midnightblue" stroke="midnightblue" points="269.16,-85.65 265.84,-75.59 262.16,-85.53 269.16,-85.65"/>
</g>
<!-- Node11 -->
<g id="node11" class="node">
<title>Node11</title>
<g id="a_node11"><a xlink:href="valueconsumer_8h.html" target="_top" xlink:title=" ">
<polygon fill="white" stroke="black" points="298,-112.5 298,-131.5 390,-131.5 390,-112.5 298,-112.5"/>
<text text-anchor="middle" x="344" y="-119.5" font-family="Helvetica,sans-Serif" font-size="10.00">valueconsumer.h</text>
</a>
</g>
</g>
<!-- Node9&#45;&gt;Node11 -->
<g id="edge11" class="edge">
<title>Node9&#45;&gt;Node11</title>
<path fill="none" stroke="midnightblue" d="M276.85,-168.32C289.22,-159.98 308.13,-147.21 322.74,-137.35"/>
<polygon fill="midnightblue" stroke="midnightblue" points="324.85,-140.15 331.18,-131.65 320.93,-134.35 324.85,-140.15"/>
</g>
<!-- Node11&#45;&gt;Node10 -->
<g id="edge12" class="edge">
<title>Node11&#45;&gt;Node10</title>
<path fill="none" stroke="midnightblue" d="M331.47,-112.32C319.41,-103.98 300.97,-91.21 286.73,-81.35"/>
<polygon fill="midnightblue" stroke="midnightblue" points="288.72,-78.47 278.5,-75.65 284.73,-84.22 288.72,-78.47"/>
</g>
<!-- Node12 -->
<g id="node12" class="node">
<title>Node12</title>
<g id="a_node12"><a xlink:title=" ">
<polygon fill="white" stroke="#bfbfbf" points="324.5,-56.5 324.5,-75.5 373.5,-75.5 373.5,-56.5 324.5,-56.5"/>
<text text-anchor="middle" x="349" y="-63.5" font-family="Helvetica,sans-Serif" font-size="10.00">stdint.h</text>
</a>
</g>
</g>
<!-- Node11&#45;&gt;Node12 -->
<g id="edge13" class="edge">
<title>Node11&#45;&gt;Node12</title>
<path fill="none" stroke="midnightblue" d="M344.83,-112.08C345.48,-105.01 346.42,-94.86 347.24,-85.99"/>
<polygon fill="midnightblue" stroke="midnightblue" points="350.75,-86.03 348.19,-75.75 343.78,-85.39 350.75,-86.03"/>
</g>
<!-- Node13 -->
<g id="node13" class="node">
<title>Node13</title>
<g id="a_node13"><a xlink:href="sensesp_8h.html" target="_top" xlink:title=" ">
<polygon fill="white" stroke="black" points="392,-56.5 392,-75.5 454,-75.5 454,-56.5 392,-56.5"/>
<text text-anchor="middle" x="423" y="-63.5" font-family="Helvetica,sans-Serif" font-size="10.00">sensesp.h</text>
</a>
</g>
</g>
<!-- Node11&#45;&gt;Node13 -->
<g id="edge14" class="edge">
<title>Node11&#45;&gt;Node13</title>
<path fill="none" stroke="midnightblue" d="M356.69,-112.32C368.9,-103.98 387.58,-91.21 402,-81.35"/>
<polygon fill="midnightblue" stroke="midnightblue" points="404.06,-84.19 410.34,-75.65 400.11,-78.41 404.06,-84.19"/>
</g>
<!-- Node14 -->
<g id="node14" class="node">
<title>Node14</title>
<g id="a_node14"><a xlink:title=" ">
<polygon fill="white" stroke="#bfbfbf" points="339,-0.5 339,-19.5 409,-19.5 409,-0.5 339,-0.5"/>
<text text-anchor="middle" x="374" y="-7.5" font-family="Helvetica,sans-Serif" font-size="10.00">ReactESP.h</text>
</a>
</g>
</g>
<!-- Node13&#45;&gt;Node14 -->
<g id="edge15" class="edge">
<title>Node13&#45;&gt;Node14</title>
<path fill="none" stroke="midnightblue" d="M414.91,-56.08C407.84,-48.3 397.41,-36.8 388.85,-27.37"/>
<polygon fill="midnightblue" stroke="midnightblue" points="391.25,-24.8 381.94,-19.75 386.07,-29.51 391.25,-24.8"/>
</g>
<!-- Node15 -->
<g id="node15" class="node">
<title>Node15</title>
<g id="a_node15"><a xlink:title=" ">
<polygon fill="white" stroke="#bfbfbf" points="427.5,-0.5 427.5,-19.5 516.5,-19.5 516.5,-0.5 427.5,-0.5"/>
<text text-anchor="middle" x="472" y="-7.5" font-family="Helvetica,sans-Serif" font-size="10.00">RemoteDebug.h</text>
</a>
</g>
</g>
<!-- Node13&#45;&gt;Node15 -->
<g id="edge16" class="edge">
<title>Node13&#45;&gt;Node15</title>
<path fill="none" stroke="midnightblue" d="M431.09,-56.08C438.16,-48.3 448.59,-36.8 457.15,-27.37"/>
<polygon fill="midnightblue" stroke="midnightblue" points="459.93,-29.51 464.06,-19.75 454.75,-24.8 459.93,-29.51"/>
</g>
</g>
</svg>
