<?xml version="1.0" encoding="UTF-8" standalone="no"?>
<!DOCTYPE svg PUBLIC "-//W3C//DTD SVG 1.1//EN"
 "http://www.w3.org/Graphics/SVG/1.1/DTD/svg11.dtd">
<!-- Generated by graphviz version 2.44.1 (20200629.0846)
 -->
<!-- Title: parse_date Pages: 1 -->
<svg width="234pt" height="137pt"
 viewBox="0.00 0.00 234.00 137.00" xmlns="http://www.w3.org/2000/svg" xmlns:xlink="http://www.w3.org/1999/xlink">
<g id="graph0" class="graph" transform="scale(1 1) rotate(0) translate(4 133)">
<title>parse_date</title>
<polygon fill="white" stroke="transparent" points="-4,4 -4,-133 230,-133 230,4 -4,4"/>
<!-- Node6 -->
<g id="node1" class="node">
<title>Node6</title>
<g id="a_node1"><a xlink:title=" ">
<polygon fill="#bfbfbf" stroke="black" points="161,-55 161,-74 226,-74 226,-55 161,-55"/>
<text text-anchor="middle" x="193.5" y="-62" font-family="Helvetica,sans-Serif" font-size="10.00">parse_date</text>
</a>
</g>
</g>
<!-- Node7 -->
<g id="node2" class="node">
<title>Node7</title>
<g id="a_node2"><a xlink:href="class_g_p_r_m_c_sentence_parser.html#a67589bcbddabbe32aac949c3ca9f4a75" target="_top" xlink:title=" ">
<polygon fill="white" stroke="black" points="0.5,-98.5 0.5,-128.5 124.5,-128.5 124.5,-98.5 0.5,-98.5"/>
<text text-anchor="start" x="8.5" y="-116.5" font-family="Helvetica,sans-Serif" font-size="10.00">GPRMCSentenceParser</text>
<text text-anchor="middle" x="62.5" y="-105.5" font-family="Helvetica,sans-Serif" font-size="10.00">::parse</text>
</a>
</g>
</g>
<!-- Node6&#45;&gt;Node7 -->
<g id="edge1" class="edge">
<title>Node6&#45;&gt;Node7</title>
<path fill="none" stroke="midnightblue" d="M157.83,-77.67C140.95,-84.08 120.58,-91.82 103.09,-98.46"/>
<polygon fill="midnightblue" stroke="midnightblue" points="159.22,-80.89 167.32,-74.06 156.73,-74.34 159.22,-80.89"/>
</g>
<!-- Node8 -->
<g id="node3" class="node">
<title>Node8</title>
<g id="a_node3"><a xlink:href="class_p_s_t_i030_sentence_parser.html#aee500dadf0a5ff089d8281c642cdb9bc" target="_top" xlink:title=" ">
<polygon fill="white" stroke="black" points="0,-49.5 0,-79.5 125,-79.5 125,-49.5 0,-49.5"/>
<text text-anchor="start" x="8" y="-67.5" font-family="Helvetica,sans-Serif" font-size="10.00">PSTI030SentenceParser</text>
<text text-anchor="middle" x="62.5" y="-56.5" font-family="Helvetica,sans-Serif" font-size="10.00">::parse</text>
</a>
</g>
</g>
<!-- Node6&#45;&gt;Node8 -->
<g id="edge2" class="edge">
<title>Node6&#45;&gt;Node8</title>
<path fill="none" stroke="midnightblue" d="M150.91,-64.5C142.71,-64.5 133.95,-64.5 125.25,-64.5"/>
<polygon fill="midnightblue" stroke="midnightblue" points="150.94,-68 160.94,-64.5 150.94,-61 150.94,-68"/>
</g>
<!-- Node9 -->
<g id="node4" class="node">
<title>Node9</title>
<g id="a_node4"><a xlink:href="class_p_s_t_i032_sentence_parser.html#ac25a7c9f31987ce7a01ce499f045a6a9" target="_top" xlink:title=" ">
<polygon fill="white" stroke="black" points="0,-0.5 0,-30.5 125,-30.5 125,-0.5 0,-0.5"/>
<text text-anchor="start" x="8" y="-18.5" font-family="Helvetica,sans-Serif" font-size="10.00">PSTI032SentenceParser</text>
<text text-anchor="middle" x="62.5" y="-7.5" font-family="Helvetica,sans-Serif" font-size="10.00">::parse</text>
</a>
</g>
</g>
<!-- Node6&#45;&gt;Node9 -->
<g id="edge3" class="edge">
<title>Node6&#45;&gt;Node9</title>
<path fill="none" stroke="midnightblue" d="M157.83,-51.33C140.95,-44.92 120.58,-37.18 103.09,-30.54"/>
<polygon fill="midnightblue" stroke="midnightblue" points="156.73,-54.66 167.32,-54.94 159.22,-48.11 156.73,-54.66"/>
</g>
</g>
</svg>
