<?xml version="1.0" encoding="UTF-8" standalone="no"?>
<!DOCTYPE svg PUBLIC "-//W3C//DTD SVG 1.1//EN"
 "http://www.w3.org/Graphics/SVG/1.1/DTD/svg11.dtd">
<!-- Generated by graphviz version 12.1.2 (20240928.0832)
 -->
<!-- Title: src/sensesp/types/nullable.cpp Pages: 1 -->
<svg width="196pt" height="138pt"
 viewBox="0.00 0.00 195.75 137.75" xmlns="http://www.w3.org/2000/svg" xmlns:xlink="http://www.w3.org/1999/xlink">
<g id="graph0" class="graph" transform="scale(1 1) rotate(0) translate(4 133.75)">
<title>src/sensesp/types/nullable.cpp</title>
<!-- Node1 -->
<g id="Node000001" class="node">
<title>Node1</title>
<g id="a_Node000001"><a xlink:title=" ">
<polygon fill="#999999" stroke="#666666" points="183.62,-129.75 32.62,-129.75 32.62,-110.5 183.62,-110.5 183.62,-129.75"/>
<text text-anchor="middle" x="108.12" y="-116.25" font-family="Helvetica,sans-Serif" font-size="10.00">src/sensesp/types/nullable.cpp</text>
</a>
</g>
</g>
<!-- Node2 -->
<g id="Node000002" class="node">
<title>Node2</title>
<g id="a_Node000002"><a xlink:href="nullable_8h.html" target="_top" xlink:title=" ">
<polygon fill="white" stroke="#666666" points="67.75,-74.5 10.5,-74.5 10.5,-55.25 67.75,-55.25 67.75,-74.5"/>
<text text-anchor="middle" x="39.12" y="-61" font-family="Helvetica,sans-Serif" font-size="10.00">nullable.h</text>
</a>
</g>
</g>
<!-- Node1&#45;&gt;Node2 -->
<g id="edge1_Node000001_Node000002" class="edge">
<title>Node1&#45;&gt;Node2</title>
<g id="a_edge1_Node000001_Node000002"><a xlink:title=" ">
<path fill="none" stroke="#63b8ff" d="M96.42,-110.09C86.35,-102.32 71.58,-90.92 59.56,-81.65"/>
<polygon fill="#63b8ff" stroke="#63b8ff" points="61.91,-79.04 51.86,-75.7 57.63,-84.58 61.91,-79.04"/>
</a>
</g>
</g>
<!-- Node4 -->
<g id="Node000004" class="node">
<title>Node4</title>
<g id="a_Node000004"><a xlink:title=" ">
<polygon fill="#e0e0e0" stroke="#999999" points="130.75,-74.5 85.5,-74.5 85.5,-55.25 130.75,-55.25 130.75,-74.5"/>
<text text-anchor="middle" x="108.12" y="-61" font-family="Helvetica,sans-Serif" font-size="10.00">cstdint</text>
</a>
</g>
</g>
<!-- Node1&#45;&gt;Node4 -->
<g id="edge3_Node000001_Node000004" class="edge">
<title>Node1&#45;&gt;Node4</title>
<g id="a_edge3_Node000001_Node000004"><a xlink:title=" ">
<path fill="none" stroke="#63b8ff" d="M108.12,-110.33C108.12,-103.82 108.12,-94.67 108.12,-86.37"/>
<polygon fill="#63b8ff" stroke="#63b8ff" points="111.63,-86.37 108.13,-76.37 104.63,-86.37 111.63,-86.37"/>
</a>
</g>
</g>
<!-- Node5 -->
<g id="Node000005" class="node">
<title>Node5</title>
<g id="a_Node000005"><a xlink:title=" ">
<polygon fill="#e0e0e0" stroke="#999999" points="187.75,-74.5 148.5,-74.5 148.5,-55.25 187.75,-55.25 187.75,-74.5"/>
<text text-anchor="middle" x="168.12" y="-61" font-family="Helvetica,sans-Serif" font-size="10.00">limits</text>
</a>
</g>
</g>
<!-- Node1&#45;&gt;Node5 -->
<g id="edge4_Node000001_Node000005" class="edge">
<title>Node1&#45;&gt;Node5</title>
<g id="a_edge4_Node000001_Node000005"><a xlink:title=" ">
<path fill="none" stroke="#63b8ff" d="M118.3,-110.09C126.89,-102.47 139.39,-91.37 149.73,-82.2"/>
<polygon fill="#63b8ff" stroke="#63b8ff" points="151.81,-85.04 156.97,-75.78 147.16,-79.8 151.81,-85.04"/>
</a>
</g>
</g>
<!-- Node3 -->
<g id="Node000003" class="node">
<title>Node3</title>
<g id="a_Node000003"><a xlink:title=" ">
<polygon fill="#e0e0e0" stroke="#999999" points="78.25,-19.25 0,-19.25 0,0 78.25,0 78.25,-19.25"/>
<text text-anchor="middle" x="39.12" y="-5.75" font-family="Helvetica,sans-Serif" font-size="10.00">ArduinoJson.h</text>
</a>
</g>
</g>
<!-- Node2&#45;&gt;Node3 -->
<g id="edge2_Node000002_Node000003" class="edge">
<title>Node2&#45;&gt;Node3</title>
<g id="a_edge2_Node000002_Node000003"><a xlink:title=" ">
<path fill="none" stroke="#63b8ff" d="M39.12,-55.08C39.12,-48.57 39.12,-39.42 39.12,-31.12"/>
<polygon fill="#63b8ff" stroke="#63b8ff" points="42.63,-31.12 39.13,-21.12 35.63,-31.12 42.63,-31.12"/>
</a>
</g>
</g>
</g>
</svg>
