<?xml version="1.0" encoding="UTF-8" standalone="no"?>
<!DOCTYPE svg PUBLIC "-//W3C//DTD SVG 1.1//EN"
 "http://www.w3.org/Graphics/SVG/1.1/DTD/svg11.dtd">
<!-- Generated by graphviz version 2.50.0 (20211204.2007)
 -->
<!-- Title: src/sensesp/system/observablevalue.h Pages: 1 -->
<svg width="1713pt" height="441pt"
 viewBox="0.00 0.00 1713.00 441.00" xmlns="http://www.w3.org/2000/svg" xmlns:xlink="http://www.w3.org/1999/xlink">
<g id="graph0" class="graph" transform="scale(1 1) rotate(0) translate(4 437)">
<title>src/sensesp/system/observablevalue.h</title>
<polygon fill="white" stroke="transparent" points="-4,4 -4,-437 1709,-437 1709,4 -4,4"/>
<!-- Node1 -->
<g id="node1" class="node">
<title>Node1</title>
<g id="a_node1"><a xlink:title=" ">
<polygon fill="#bfbfbf" stroke="black" points="806,-402.5 806,-432.5 911,-432.5 911,-402.5 806,-402.5"/>
<text text-anchor="start" x="814" y="-420.5" font-family="Helvetica,sans-Serif" font-size="10.00">src/sensesp/system</text>
<text text-anchor="middle" x="858.5" y="-409.5" font-family="Helvetica,sans-Serif" font-size="10.00">/observablevalue.h</text>
</a>
</g>
</g>
<!-- Node2 -->
<g id="node2" class="node">
<title>Node2</title>
<g id="a_node2"><a xlink:href="networking_8h.html" target="_top" xlink:title=" ">
<polygon fill="white" stroke="black" points="320,-274 320,-293 465,-293 465,-274 320,-274"/>
<text text-anchor="middle" x="392.5" y="-281" font-family="Helvetica,sans-Serif" font-size="10.00">src/sensesp/net/networking.h</text>
</a>
</g>
</g>
<!-- Node1&#45;&gt;Node2 -->
<g id="edge1" class="edge">
<title>Node1&#45;&gt;Node2</title>
<path fill="none" stroke="midnightblue" d="M799.38,-399.75C698.96,-371.31 498.59,-314.55 422.64,-293.04"/>
<polygon fill="midnightblue" stroke="midnightblue" points="798.5,-403.14 809.07,-402.5 800.4,-396.41 798.5,-403.14"/>
</g>
<!-- Node19 -->
<g id="node19" class="node">
<title>Node19</title>
<g id="a_node19"><a xlink:href="ws__client_8h.html" target="_top" xlink:title=" ">
<polygon fill="white" stroke="black" points="719.5,-268.5 719.5,-298.5 821.5,-298.5 821.5,-268.5 719.5,-268.5"/>
<text text-anchor="start" x="727.5" y="-286.5" font-family="Helvetica,sans-Serif" font-size="10.00">src/sensesp/net/ws</text>
<text text-anchor="middle" x="770.5" y="-275.5" font-family="Helvetica,sans-Serif" font-size="10.00">_client.h</text>
</a>
</g>
</g>
<!-- Node1&#45;&gt;Node19 -->
<g id="edge29" class="edge">
<title>Node1&#45;&gt;Node19</title>
<path fill="none" stroke="midnightblue" d="M857.25,-392.02C855.36,-374.84 850.74,-352 839.5,-335 829.35,-319.64 812.84,-307.32 798.52,-298.68"/>
<polygon fill="midnightblue" stroke="midnightblue" points="853.8,-392.7 858.14,-402.37 860.77,-392.1 853.8,-392.7"/>
</g>
<!-- Node20 -->
<g id="node20" class="node">
<title>Node20</title>
<g id="a_node20"><a xlink:href="task__queue__producer_8h.html" target="_top" xlink:title=" ">
<polygon fill="white" stroke="black" points="710.5,-335.5 710.5,-365.5 830.5,-365.5 830.5,-335.5 710.5,-335.5"/>
<text text-anchor="start" x="718.5" y="-353.5" font-family="Helvetica,sans-Serif" font-size="10.00">src/sensesp/system</text>
<text text-anchor="middle" x="770.5" y="-342.5" font-family="Helvetica,sans-Serif" font-size="10.00">/task_queue_producer.h</text>
</a>
</g>
</g>
<!-- Node1&#45;&gt;Node20 -->
<g id="edge35" class="edge">
<title>Node1&#45;&gt;Node20</title>
<path fill="none" stroke="midnightblue" d="M831.36,-396.45C817.82,-386.45 801.77,-374.6 789.56,-365.58"/>
<polygon fill="midnightblue" stroke="midnightblue" points="829.28,-399.27 839.41,-402.4 833.44,-393.64 829.28,-399.27"/>
</g>
<!-- Node21 -->
<g id="node21" class="node">
<title>Node21</title>
<g id="a_node21"><a xlink:href="ui__output_8h.html" target="_top" xlink:title=" ">
<polygon fill="white" stroke="black" points="1478,-268.5 1478,-298.5 1583,-298.5 1583,-268.5 1478,-268.5"/>
<text text-anchor="start" x="1486" y="-286.5" font-family="Helvetica,sans-Serif" font-size="10.00">src/sensesp/system</text>
<text text-anchor="middle" x="1530.5" y="-275.5" font-family="Helvetica,sans-Serif" font-size="10.00">/ui_output.h</text>
</a>
</g>
</g>
<!-- Node1&#45;&gt;Node21 -->
<g id="edge37" class="edge">
<title>Node1&#45;&gt;Node21</title>
<path fill="none" stroke="midnightblue" d="M921.15,-404.19C1052.58,-378.38 1355.06,-318.96 1477.55,-294.9"/>
<polygon fill="midnightblue" stroke="midnightblue" points="920.37,-400.78 911.23,-406.14 921.72,-407.65 920.37,-400.78"/>
</g>
<!-- Node24 -->
<g id="node24" class="node">
<title>Node24</title>
<g id="a_node24"><a xlink:href="sensesp__base__app_8h.html" target="_top" xlink:title=" ">
<polygon fill="white" stroke="black" points="1134,-274 1134,-293 1259,-293 1259,-274 1134,-274"/>
<text text-anchor="middle" x="1196.5" y="-281" font-family="Helvetica,sans-Serif" font-size="10.00">src/sensesp_base_app.h</text>
</a>
</g>
</g>
<!-- Node1&#45;&gt;Node24 -->
<g id="edge41" class="edge">
<title>Node1&#45;&gt;Node24</title>
<path fill="none" stroke="midnightblue" d="M903.82,-398.8C977.32,-370.1 1119.8,-314.46 1174.43,-293.12"/>
<polygon fill="midnightblue" stroke="midnightblue" points="902.39,-395.6 894.35,-402.5 904.94,-402.12 902.39,-395.6"/>
</g>
<!-- Node3 -->
<g id="node3" class="node">
<title>Node3</title>
<g id="a_node3"><a xlink:href="main_8cpp.html" target="_top" xlink:title=" ">
<polygon fill="white" stroke="black" points="591,-73 591,-92 664,-92 664,-73 591,-73"/>
<text text-anchor="middle" x="627.5" y="-80" font-family="Helvetica,sans-Serif" font-size="10.00">src/main.cpp</text>
</a>
</g>
</g>
<!-- Node2&#45;&gt;Node3 -->
<g id="edge2" class="edge">
<title>Node2&#45;&gt;Node3</title>
<path fill="none" stroke="midnightblue" d="M399.5,-264.22C414.05,-226.59 447.09,-143.2 457.5,-134 494.88,-100.98 553.03,-89.53 590.69,-85.57"/>
<polygon fill="midnightblue" stroke="midnightblue" points="396.09,-263.32 395.77,-273.91 402.63,-265.84 396.09,-263.32"/>
</g>
<!-- Node4 -->
<g id="node4" class="node">
<title>Node4</title>
<g id="a_node4"><a xlink:href="system__status__controller_8h.html" target="_top" xlink:title=" ">
<polygon fill="white" stroke="black" points="545,-201.5 545,-231.5 682,-231.5 682,-201.5 545,-201.5"/>
<text text-anchor="start" x="553" y="-219.5" font-family="Helvetica,sans-Serif" font-size="10.00">src/sensesp/controllers</text>
<text text-anchor="middle" x="613.5" y="-208.5" font-family="Helvetica,sans-Serif" font-size="10.00">/system_status_controller.h</text>
</a>
</g>
</g>
<!-- Node2&#45;&gt;Node4 -->
<g id="edge3" class="edge">
<title>Node2&#45;&gt;Node4</title>
<path fill="none" stroke="midnightblue" d="M431.88,-270.92C469.36,-259.9 525.8,-243.29 565.8,-231.53"/>
<polygon fill="midnightblue" stroke="midnightblue" points="430.45,-267.69 421.85,-273.87 432.43,-274.4 430.45,-267.69"/>
</g>
<!-- Node8 -->
<g id="node8" class="node">
<title>Node8</title>
<g id="a_node8"><a xlink:href="sensesp__app_8cpp.html" target="_top" xlink:title=" ">
<polygon fill="white" stroke="black" points="296.5,-6 296.5,-25 406.5,-25 406.5,-6 296.5,-6"/>
<text text-anchor="middle" x="351.5" y="-13" font-family="Helvetica,sans-Serif" font-size="10.00">src/sensesp_app.cpp</text>
</a>
</g>
</g>
<!-- Node2&#45;&gt;Node8 -->
<g id="edge27" class="edge">
<title>Node2&#45;&gt;Node8</title>
<path fill="none" stroke="midnightblue" d="M342.98,-270.67C322.56,-263.13 300.83,-251.06 288.5,-232 242.55,-160.98 319.77,-55.52 344.36,-25.04"/>
<polygon fill="midnightblue" stroke="midnightblue" points="341.95,-274.02 352.54,-273.93 344.2,-267.39 341.95,-274.02"/>
</g>
<!-- Node9 -->
<g id="node9" class="node">
<title>Node9</title>
<g id="a_node9"><a xlink:href="sensesp__app_8h.html" target="_top" xlink:title=" ">
<polygon fill="white" stroke="black" points="682,-73 682,-92 781,-92 781,-73 682,-73"/>
<text text-anchor="middle" x="731.5" y="-80" font-family="Helvetica,sans-Serif" font-size="10.00">src/sensesp_app.h</text>
</a>
</g>
</g>
<!-- Node2&#45;&gt;Node9 -->
<g id="edge28" class="edge">
<title>Node2&#45;&gt;Node9</title>
<path fill="none" stroke="midnightblue" d="M406.55,-265.87C414.49,-256.21 424.4,-243.68 432.5,-232 461.45,-190.21 449.89,-163.21 491.5,-134 558.99,-86.62 593.03,-116 673.5,-98 681.6,-96.19 690.31,-94.09 698.44,-92.07"/>
<polygon fill="midnightblue" stroke="midnightblue" points="403.64,-263.9 399.93,-273.82 409.02,-268.38 403.64,-263.9"/>
</g>
<!-- Node12 -->
<g id="node12" class="node">
<title>Node12</title>
<g id="a_node12"><a xlink:href="networking_8cpp.html" target="_top" xlink:title=" ">
<polygon fill="white" stroke="black" points="0,-6 0,-25 155,-25 155,-6 0,-6"/>
<text text-anchor="middle" x="77.5" y="-13" font-family="Helvetica,sans-Serif" font-size="10.00">src/sensesp/net/networking.cpp</text>
</a>
</g>
</g>
<!-- Node2&#45;&gt;Node12 -->
<g id="edge21" class="edge">
<title>Node2&#45;&gt;Node12</title>
<path fill="none" stroke="midnightblue" d="M341.19,-271.35C312.51,-263.48 277.09,-250.9 249.5,-232 163.4,-173.03 99.21,-58.22 82.05,-25.44"/>
<polygon fill="midnightblue" stroke="midnightblue" points="340.47,-274.78 351.03,-273.94 342.26,-268.01 340.47,-274.78"/>
</g>
<!-- Node16 -->
<g id="node16" class="node">
<title>Node16</title>
<g id="a_node16"><a xlink:href="led__blinker_8cpp.html" target="_top" xlink:title=" ">
<polygon fill="white" stroke="black" points="173,-0.5 173,-30.5 278,-30.5 278,-0.5 173,-0.5"/>
<text text-anchor="start" x="181" y="-18.5" font-family="Helvetica,sans-Serif" font-size="10.00">src/sensesp/system</text>
<text text-anchor="middle" x="225.5" y="-7.5" font-family="Helvetica,sans-Serif" font-size="10.00">/led_blinker.cpp</text>
</a>
</g>
</g>
<!-- Node2&#45;&gt;Node16 -->
<g id="edge22" class="edge">
<title>Node2&#45;&gt;Node16</title>
<path fill="none" stroke="midnightblue" d="M336.67,-271.02C313.68,-263.57 288.68,-251.47 272.5,-232 221.95,-171.2 222.37,-68.27 224.42,-30.74"/>
<polygon fill="midnightblue" stroke="midnightblue" points="335.79,-274.41 346.37,-273.94 337.8,-267.7 335.79,-274.41"/>
</g>
<!-- Node18 -->
<g id="node18" class="node">
<title>Node18</title>
<g id="a_node18"><a xlink:href="led__blinker_8h.html" target="_top" xlink:title=" ">
<polygon fill="white" stroke="black" points="298,-201.5 298,-231.5 403,-231.5 403,-201.5 298,-201.5"/>
<text text-anchor="start" x="306" y="-219.5" font-family="Helvetica,sans-Serif" font-size="10.00">src/sensesp/system</text>
<text text-anchor="middle" x="350.5" y="-208.5" font-family="Helvetica,sans-Serif" font-size="10.00">/led_blinker.h</text>
</a>
</g>
</g>
<!-- Node2&#45;&gt;Node18 -->
<g id="edge23" class="edge">
<title>Node2&#45;&gt;Node18</title>
<path fill="none" stroke="midnightblue" d="M381.21,-265.03C374.44,-254.56 365.94,-241.4 359.6,-231.59"/>
<polygon fill="midnightblue" stroke="midnightblue" points="378.47,-267.23 386.84,-273.73 384.35,-263.44 378.47,-267.23"/>
</g>
<!-- Node4&#45;&gt;Node3 -->
<g id="edge4" class="edge">
<title>Node4&#45;&gt;Node3</title>
<path fill="none" stroke="midnightblue" d="M637.5,-194.14C645.09,-185.88 652.52,-175.81 656.5,-165 666.25,-138.5 646.04,-106.97 634.62,-92.09"/>
<polygon fill="midnightblue" stroke="midnightblue" points="634.81,-191.89 630.3,-201.47 639.8,-196.8 634.81,-191.89"/>
</g>
<!-- Node5 -->
<g id="node5" class="node">
<title>Node5</title>
<g id="a_node5"><a xlink:href="system__status__controller_8cpp.html" target="_top" xlink:title=" ">
<polygon fill="white" stroke="black" points="500,-134.5 500,-164.5 647,-164.5 647,-134.5 500,-134.5"/>
<text text-anchor="start" x="508" y="-152.5" font-family="Helvetica,sans-Serif" font-size="10.00">src/sensesp/controllers</text>
<text text-anchor="middle" x="573.5" y="-141.5" font-family="Helvetica,sans-Serif" font-size="10.00">/system_status_controller.cpp</text>
</a>
</g>
</g>
<!-- Node4&#45;&gt;Node5 -->
<g id="edge5" class="edge">
<title>Node4&#45;&gt;Node5</title>
<path fill="none" stroke="midnightblue" d="M599.57,-192.87C593.78,-183.46 587.24,-172.83 582.16,-164.58"/>
<polygon fill="midnightblue" stroke="midnightblue" points="596.6,-194.71 604.82,-201.4 602.56,-191.05 596.6,-194.71"/>
</g>
<!-- Node6 -->
<g id="node6" class="node">
<title>Node6</title>
<g id="a_node6"><a xlink:href="system__status__led_8h.html" target="_top" xlink:title=" ">
<polygon fill="white" stroke="black" points="295.5,-134.5 295.5,-164.5 405.5,-164.5 405.5,-134.5 295.5,-134.5"/>
<text text-anchor="start" x="303.5" y="-152.5" font-family="Helvetica,sans-Serif" font-size="10.00">src/sensesp/system</text>
<text text-anchor="middle" x="350.5" y="-141.5" font-family="Helvetica,sans-Serif" font-size="10.00">/system_status_led.h</text>
</a>
</g>
</g>
<!-- Node4&#45;&gt;Node6 -->
<g id="edge6" class="edge">
<title>Node4&#45;&gt;Node6</title>
<path fill="none" stroke="midnightblue" d="M546.81,-199.02C503.2,-188.24 446.9,-174.33 405.79,-164.16"/>
<polygon fill="midnightblue" stroke="midnightblue" points="546.21,-202.47 556.76,-201.48 547.89,-195.68 546.21,-202.47"/>
</g>
<!-- Node4&#45;&gt;Node9 -->
<g id="edge20" class="edge">
<title>Node4&#45;&gt;Node9</title>
<path fill="none" stroke="midnightblue" d="M639.64,-194.85C650.03,-186.11 661.79,-175.54 671.5,-165 694.12,-140.45 716.21,-107.45 726.1,-92.06"/>
<polygon fill="midnightblue" stroke="midnightblue" points="637.16,-192.35 631.67,-201.42 641.62,-197.76 637.16,-192.35"/>
</g>
<!-- Node6&#45;&gt;Node3 -->
<g id="edge7" class="edge">
<title>Node6&#45;&gt;Node3</title>
<path fill="none" stroke="midnightblue" d="M415.51,-133.24C470.24,-120.4 546.51,-102.5 591.08,-92.05"/>
<polygon fill="midnightblue" stroke="midnightblue" points="414.49,-129.89 405.56,-135.58 416.09,-136.7 414.49,-129.89"/>
</g>
<!-- Node7 -->
<g id="node7" class="node">
<title>Node7</title>
<g id="a_node7"><a xlink:href="system__status__led_8cpp.html" target="_top" xlink:title=" ">
<polygon fill="white" stroke="black" points="379,-67.5 379,-97.5 500,-97.5 500,-67.5 379,-67.5"/>
<text text-anchor="start" x="387" y="-85.5" font-family="Helvetica,sans-Serif" font-size="10.00">src/sensesp/system</text>
<text text-anchor="middle" x="439.5" y="-74.5" font-family="Helvetica,sans-Serif" font-size="10.00">/system_status_led.cpp</text>
</a>
</g>
</g>
<!-- Node6&#45;&gt;Node7 -->
<g id="edge8" class="edge">
<title>Node6&#45;&gt;Node7</title>
<path fill="none" stroke="midnightblue" d="M377.95,-128.45C391.64,-118.45 407.87,-106.6 420.23,-97.58"/>
<polygon fill="midnightblue" stroke="midnightblue" points="375.82,-125.67 369.81,-134.4 379.95,-131.32 375.82,-125.67"/>
</g>
<!-- Node6&#45;&gt;Node8 -->
<g id="edge9" class="edge">
<title>Node6&#45;&gt;Node8</title>
<path fill="none" stroke="midnightblue" d="M350.68,-124.32C350.91,-94.38 351.28,-44.91 351.43,-25.1"/>
<polygon fill="midnightblue" stroke="midnightblue" points="347.18,-124.35 350.61,-134.37 354.18,-124.4 347.18,-124.35"/>
</g>
<!-- Node6&#45;&gt;Node9 -->
<g id="edge10" class="edge">
<title>Node6&#45;&gt;Node9</title>
<path fill="none" stroke="midnightblue" d="M415.7,-139.02C495.37,-127.3 625.49,-107.73 673.5,-98 681.94,-96.29 691.01,-94.16 699.4,-92.07"/>
<polygon fill="midnightblue" stroke="midnightblue" points="415.15,-135.56 405.76,-140.47 416.17,-142.48 415.15,-135.56"/>
</g>
<!-- Node9&#45;&gt;Node8 -->
<g id="edge18" class="edge">
<title>Node9&#45;&gt;Node8</title>
<path fill="none" stroke="midnightblue" d="M690.15,-70.59C684.58,-69.29 678.91,-68.05 673.5,-67 559.85,-44.93 529.39,-51.81 415.5,-31 406.09,-29.28 395.96,-27.13 386.6,-25.01"/>
<polygon fill="midnightblue" stroke="midnightblue" points="689.49,-74.03 700.03,-72.99 691.13,-67.23 689.49,-74.03"/>
</g>
<!-- Node10 -->
<g id="node10" class="node">
<title>Node10</title>
<g id="a_node10"><a xlink:href="debug__output_8cpp.html" target="_top" xlink:title=" ">
<polygon fill="white" stroke="black" points="568.5,-0.5 568.5,-30.5 684.5,-30.5 684.5,-0.5 568.5,-0.5"/>
<text text-anchor="start" x="576.5" y="-18.5" font-family="Helvetica,sans-Serif" font-size="10.00">src/sensesp/net/debug</text>
<text text-anchor="middle" x="626.5" y="-7.5" font-family="Helvetica,sans-Serif" font-size="10.00">_output.cpp</text>
</a>
</g>
</g>
<!-- Node9&#45;&gt;Node10 -->
<g id="edge11" class="edge">
<title>Node9&#45;&gt;Node10</title>
<path fill="none" stroke="midnightblue" d="M708.81,-67.45C691.2,-56.55 666.89,-41.5 649.26,-30.59"/>
<polygon fill="midnightblue" stroke="midnightblue" points="706.99,-70.45 717.34,-72.73 710.68,-64.49 706.99,-70.45"/>
</g>
<!-- Node11 -->
<g id="node11" class="node">
<title>Node11</title>
<g id="a_node11"><a xlink:href="discovery_8cpp.html" target="_top" xlink:title=" ">
<polygon fill="white" stroke="black" points="703,-6 703,-25 852,-25 852,-6 703,-6"/>
<text text-anchor="middle" x="777.5" y="-13" font-family="Helvetica,sans-Serif" font-size="10.00">src/sensesp/net/discovery.cpp</text>
</a>
</g>
</g>
<!-- Node9&#45;&gt;Node11 -->
<g id="edge12" class="edge">
<title>Node9&#45;&gt;Node11</title>
<path fill="none" stroke="midnightblue" d="M743.6,-64.4C752.54,-51.77 764.33,-35.1 771.39,-25.13"/>
<polygon fill="midnightblue" stroke="midnightblue" points="740.62,-62.55 737.7,-72.73 746.34,-66.59 740.62,-62.55"/>
</g>
<!-- Node9&#45;&gt;Node12 -->
<g id="edge13" class="edge">
<title>Node9&#45;&gt;Node12</title>
<path fill="none" stroke="midnightblue" d="M691.64,-70.57C685.6,-69.19 679.41,-67.94 673.5,-67 449.09,-31.31 389.13,-57.92 163.5,-31 150.42,-29.44 136.3,-27.26 123.35,-25.07"/>
<polygon fill="midnightblue" stroke="midnightblue" points="691.06,-74.03 701.6,-72.97 692.7,-67.22 691.06,-74.03"/>
</g>
<!-- Node13 -->
<g id="node13" class="node">
<title>Node13</title>
<g id="a_node13"><a xlink:href="ws__client_8cpp.html" target="_top" xlink:title=" ">
<polygon fill="white" stroke="black" points="1015.5,-0.5 1015.5,-30.5 1117.5,-30.5 1117.5,-0.5 1015.5,-0.5"/>
<text text-anchor="start" x="1023.5" y="-18.5" font-family="Helvetica,sans-Serif" font-size="10.00">src/sensesp/net/ws</text>
<text text-anchor="middle" x="1066.5" y="-7.5" font-family="Helvetica,sans-Serif" font-size="10.00">_client.cpp</text>
</a>
</g>
</g>
<!-- Node9&#45;&gt;Node13 -->
<g id="edge14" class="edge">
<title>Node9&#45;&gt;Node13</title>
<path fill="none" stroke="midnightblue" d="M789.78,-71.19C857.78,-59.09 966.08,-39.59 1006.5,-31 1009.44,-30.38 1012.45,-29.72 1015.48,-29.03"/>
<polygon fill="midnightblue" stroke="midnightblue" points="788.87,-67.8 779.64,-72.99 790.1,-74.69 788.87,-67.8"/>
</g>
<!-- Node14 -->
<g id="node14" class="node">
<title>Node14</title>
<g id="a_node14"><a xlink:href="signalk__delta__queue_8cpp.html" target="_top" xlink:title=" ">
<polygon fill="white" stroke="black" points="870,-0.5 870,-30.5 997,-30.5 997,-0.5 870,-0.5"/>
<text text-anchor="start" x="878" y="-18.5" font-family="Helvetica,sans-Serif" font-size="10.00">src/sensesp/signalk</text>
<text text-anchor="middle" x="933.5" y="-7.5" font-family="Helvetica,sans-Serif" font-size="10.00">/signalk_delta_queue.cpp</text>
</a>
</g>
</g>
<!-- Node9&#45;&gt;Node14 -->
<g id="edge15" class="edge">
<title>Node9&#45;&gt;Node14</title>
<path fill="none" stroke="midnightblue" d="M767.94,-69.77C802.19,-58.75 853.5,-42.24 889.91,-30.53"/>
<polygon fill="midnightblue" stroke="midnightblue" points="766.77,-66.47 758.32,-72.87 768.92,-73.14 766.77,-66.47"/>
</g>
<!-- Node15 -->
<g id="node15" class="node">
<title>Node15</title>
<g id="a_node15"><a xlink:href="signalk__put__request_8cpp.html" target="_top" xlink:title=" ">
<polygon fill="white" stroke="black" points="425,-0.5 425,-30.5 550,-30.5 550,-0.5 425,-0.5"/>
<text text-anchor="start" x="433" y="-18.5" font-family="Helvetica,sans-Serif" font-size="10.00">src/sensesp/signalk</text>
<text text-anchor="middle" x="487.5" y="-7.5" font-family="Helvetica,sans-Serif" font-size="10.00">/signalk_put_request.cpp</text>
</a>
</g>
</g>
<!-- Node9&#45;&gt;Node15 -->
<g id="edge16" class="edge">
<title>Node9&#45;&gt;Node15</title>
<path fill="none" stroke="midnightblue" d="M689.6,-70.34C648.28,-59.33 585,-42.47 540.28,-30.56"/>
<polygon fill="midnightblue" stroke="midnightblue" points="688.79,-73.74 699.35,-72.94 690.59,-66.98 688.79,-73.74"/>
</g>
<!-- Node9&#45;&gt;Node16 -->
<g id="edge17" class="edge">
<title>Node9&#45;&gt;Node16</title>
<path fill="none" stroke="midnightblue" d="M691.22,-70.6C685.31,-69.24 679.27,-67.98 673.5,-67 503.65,-38.02 457.56,-58.68 287.5,-31 284.44,-30.5 281.32,-29.94 278.17,-29.33"/>
<polygon fill="midnightblue" stroke="midnightblue" points="690.44,-74.01 700.98,-72.95 692.08,-67.2 690.44,-74.01"/>
</g>
<!-- Node17 -->
<g id="node17" class="node">
<title>Node17</title>
<g id="a_node17"><a xlink:href="sensesp__app__builder_8h.html" target="_top" xlink:title=" ">
<polygon fill="white" stroke="black" points="1217.5,-6 1217.5,-25 1349.5,-25 1349.5,-6 1217.5,-6"/>
<text text-anchor="middle" x="1283.5" y="-13" font-family="Helvetica,sans-Serif" font-size="10.00">src/sensesp_app_builder.h</text>
</a>
</g>
</g>
<!-- Node9&#45;&gt;Node17 -->
<g id="edge19" class="edge">
<title>Node9&#45;&gt;Node17</title>
<path fill="none" stroke="midnightblue" d="M791.49,-74.44C895.57,-62.18 1108.83,-37.07 1217.17,-24.31"/>
<polygon fill="midnightblue" stroke="midnightblue" points="790.98,-70.97 781.46,-75.62 791.8,-77.92 790.98,-70.97"/>
</g>
<!-- Node18&#45;&gt;Node6 -->
<g id="edge26" class="edge">
<title>Node18&#45;&gt;Node6</title>
<path fill="none" stroke="midnightblue" d="M350.5,-191.11C350.5,-182.15 350.5,-172.32 350.5,-164.58"/>
<polygon fill="midnightblue" stroke="midnightblue" points="347,-191.4 350.5,-201.4 354,-191.4 347,-191.4"/>
</g>
<!-- Node18&#45;&gt;Node12 -->
<g id="edge24" class="edge">
<title>Node18&#45;&gt;Node12</title>
<path fill="none" stroke="midnightblue" d="M315.37,-196.35C299.51,-187.34 280.73,-176.13 264.5,-165 193.38,-116.24 114.38,-48.68 87.26,-25.06"/>
<polygon fill="midnightblue" stroke="midnightblue" points="313.9,-199.54 324.33,-201.39 317.33,-193.44 313.9,-199.54"/>
</g>
<!-- Node18&#45;&gt;Node16 -->
<g id="edge25" class="edge">
<title>Node18&#45;&gt;Node16</title>
<path fill="none" stroke="midnightblue" d="M318.58,-195.37C307.31,-187.05 295.26,-176.62 286.5,-165 253.94,-121.83 235.7,-58.81 228.77,-30.82"/>
<polygon fill="midnightblue" stroke="midnightblue" points="316.81,-198.4 326.99,-201.31 320.84,-192.68 316.81,-198.4"/>
</g>
<!-- Node19&#45;&gt;Node3 -->
<g id="edge30" class="edge">
<title>Node19&#45;&gt;Node3</title>
<path fill="none" stroke="midnightblue" d="M756.37,-259.35C737.91,-229.59 704.09,-176.66 671.5,-134 659.78,-118.66 644.76,-101.98 635.65,-92.15"/>
<polygon fill="midnightblue" stroke="midnightblue" points="753.57,-261.49 761.8,-268.16 759.53,-257.81 753.57,-261.49"/>
</g>
<!-- Node19&#45;&gt;Node4 -->
<g id="edge31" class="edge">
<title>Node19&#45;&gt;Node4</title>
<path fill="none" stroke="midnightblue" d="M727.13,-264.54C702.01,-254.14 670.84,-241.24 647.5,-231.58"/>
<polygon fill="midnightblue" stroke="midnightblue" points="725.86,-267.8 736.43,-268.4 728.53,-261.34 725.86,-267.8"/>
</g>
<!-- Node19&#45;&gt;Node9 -->
<g id="edge34" class="edge">
<title>Node19&#45;&gt;Node9</title>
<path fill="none" stroke="midnightblue" d="M773.71,-258.14C776.75,-228.13 779.09,-175.97 765.5,-134 760.23,-117.71 748.01,-101.81 739.75,-92.34"/>
<polygon fill="midnightblue" stroke="midnightblue" points="770.22,-257.8 772.58,-268.13 777.18,-258.59 770.22,-257.8"/>
</g>
<!-- Node19&#45;&gt;Node13 -->
<g id="edge32" class="edge">
<title>Node19&#45;&gt;Node13</title>
<path fill="none" stroke="midnightblue" d="M780.73,-258.77C796.95,-221.89 828.68,-153.09 847.5,-134 898.09,-82.69 975.87,-48.32 1023.84,-30.63"/>
<polygon fill="midnightblue" stroke="midnightblue" points="777.38,-257.69 776.58,-268.25 783.79,-260.49 777.38,-257.69"/>
</g>
<!-- Node19&#45;&gt;Node18 -->
<g id="edge33" class="edge">
<title>Node19&#45;&gt;Node18</title>
<path fill="none" stroke="midnightblue" d="M709.43,-273.05C626.91,-260.28 481.17,-237.72 403.2,-225.66"/>
<polygon fill="midnightblue" stroke="midnightblue" points="709,-276.52 719.42,-274.59 710.07,-269.61 709,-276.52"/>
</g>
<!-- Node20&#45;&gt;Node19 -->
<g id="edge36" class="edge">
<title>Node20&#45;&gt;Node19</title>
<path fill="none" stroke="midnightblue" d="M770.5,-325.11C770.5,-316.15 770.5,-306.32 770.5,-298.58"/>
<polygon fill="midnightblue" stroke="midnightblue" points="767,-325.4 770.5,-335.4 774,-325.4 767,-325.4"/>
</g>
<!-- Node21&#45;&gt;Node9 -->
<g id="edge40" class="edge">
<title>Node21&#45;&gt;Node9</title>
<path fill="none" stroke="midnightblue" d="M1545.76,-259.56C1555.06,-242.46 1563.27,-219.06 1552.5,-201 1520.42,-147.2 1488.63,-151.54 1428.5,-134 1306.79,-98.49 919.25,-87.3 781.05,-84.39"/>
<polygon fill="midnightblue" stroke="midnightblue" points="1542.66,-257.94 1540.6,-268.33 1548.69,-261.49 1542.66,-257.94"/>
</g>
<!-- Node22 -->
<g id="node22" class="node">
<title>Node22</title>
<g id="a_node22"><a xlink:href="http__server_8cpp.html" target="_top" xlink:title=" ">
<polygon fill="white" stroke="black" points="1437.5,-201.5 1437.5,-231.5 1543.5,-231.5 1543.5,-201.5 1437.5,-201.5"/>
<text text-anchor="start" x="1445.5" y="-219.5" font-family="Helvetica,sans-Serif" font-size="10.00">src/sensesp/net/http</text>
<text text-anchor="middle" x="1490.5" y="-208.5" font-family="Helvetica,sans-Serif" font-size="10.00">_server.cpp</text>
</a>
</g>
</g>
<!-- Node21&#45;&gt;Node22 -->
<g id="edge38" class="edge">
<title>Node21&#45;&gt;Node22</title>
<path fill="none" stroke="midnightblue" d="M1516.57,-259.87C1510.78,-250.46 1504.24,-239.83 1499.16,-231.58"/>
<polygon fill="midnightblue" stroke="midnightblue" points="1513.6,-261.71 1521.82,-268.4 1519.56,-258.05 1513.6,-261.71"/>
</g>
<!-- Node23 -->
<g id="node23" class="node">
<title>Node23</title>
<g id="a_node23"><a xlink:href="ui__output_8cpp.html" target="_top" xlink:title=" ">
<polygon fill="white" stroke="black" points="1600,-201.5 1600,-231.5 1705,-231.5 1705,-201.5 1600,-201.5"/>
<text text-anchor="start" x="1608" y="-219.5" font-family="Helvetica,sans-Serif" font-size="10.00">src/sensesp/system</text>
<text text-anchor="middle" x="1652.5" y="-208.5" font-family="Helvetica,sans-Serif" font-size="10.00">/ui_output.cpp</text>
</a>
</g>
</g>
<!-- Node21&#45;&gt;Node23 -->
<g id="edge39" class="edge">
<title>Node21&#45;&gt;Node23</title>
<path fill="none" stroke="midnightblue" d="M1566.02,-263.57C1585.21,-253.35 1608.5,-240.94 1626.08,-231.58"/>
<polygon fill="midnightblue" stroke="midnightblue" points="1564.15,-260.6 1556.97,-268.4 1567.44,-266.78 1564.15,-260.6"/>
</g>
<!-- Node24&#45;&gt;Node9 -->
<g id="edge46" class="edge">
<title>Node24&#45;&gt;Node9</title>
<path fill="none" stroke="midnightblue" d="M1225.61,-269.03C1240.13,-260.62 1256.32,-248.27 1264.5,-232 1270.69,-219.69 1272.17,-212.45 1264.5,-201 1210.63,-120.61 903.43,-93.7 781.43,-86.11"/>
<polygon fill="midnightblue" stroke="midnightblue" points="1223.54,-266.17 1216.4,-273.99 1226.86,-272.33 1223.54,-266.17"/>
</g>
<!-- Node24&#45;&gt;Node22 -->
<g id="edge42" class="edge">
<title>Node24&#45;&gt;Node22</title>
<path fill="none" stroke="midnightblue" d="M1246.71,-271.8C1293.73,-261.73 1365.94,-246.12 1428.5,-232 1431.41,-231.34 1434.4,-230.66 1437.41,-229.97"/>
<polygon fill="midnightblue" stroke="midnightblue" points="1245.82,-268.41 1236.78,-273.93 1247.29,-275.26 1245.82,-268.41"/>
</g>
<!-- Node25 -->
<g id="node25" class="node">
<title>Node25</title>
<g id="a_node25"><a xlink:href="system__info_8h.html" target="_top" xlink:title=" ">
<polygon fill="white" stroke="black" points="1312,-201.5 1312,-231.5 1419,-231.5 1419,-201.5 1312,-201.5"/>
<text text-anchor="start" x="1320" y="-219.5" font-family="Helvetica,sans-Serif" font-size="10.00">src/sensesp/sensors</text>
<text text-anchor="middle" x="1365.5" y="-208.5" font-family="Helvetica,sans-Serif" font-size="10.00">/system_info.h</text>
</a>
</g>
</g>
<!-- Node24&#45;&gt;Node25 -->
<g id="edge43" class="edge">
<title>Node24&#45;&gt;Node25</title>
<path fill="none" stroke="midnightblue" d="M1228.47,-270.2C1257.11,-259.19 1299.09,-243.04 1329.03,-231.53"/>
<polygon fill="midnightblue" stroke="midnightblue" points="1227.02,-267.01 1218.94,-273.87 1229.53,-273.55 1227.02,-267.01"/>
</g>
<!-- Node27 -->
<g id="node27" class="node">
<title>Node27</title>
<g id="a_node27"><a xlink:href="sensesp__base__app_8cpp.html" target="_top" xlink:title=" ">
<polygon fill="white" stroke="black" points="983.5,-207 983.5,-226 1119.5,-226 1119.5,-207 983.5,-207"/>
<text text-anchor="middle" x="1051.5" y="-214" font-family="Helvetica,sans-Serif" font-size="10.00">src/sensesp_base_app.cpp</text>
</a>
</g>
</g>
<!-- Node24&#45;&gt;Node27 -->
<g id="edge47" class="edge">
<title>Node24&#45;&gt;Node27</title>
<path fill="none" stroke="midnightblue" d="M1167.75,-269.61C1139.03,-256.74 1095.68,-237.31 1070.83,-226.17"/>
<polygon fill="midnightblue" stroke="midnightblue" points="1166.69,-272.97 1177.25,-273.87 1169.55,-266.58 1166.69,-272.97"/>
</g>
<!-- Node28 -->
<g id="node28" class="node">
<title>Node28</title>
<g id="a_node28"><a xlink:href="sensesp__base__app__builder_8h.html" target="_top" xlink:title=" ">
<polygon fill="white" stroke="black" points="1138,-201.5 1138,-231.5 1255,-231.5 1255,-201.5 1138,-201.5"/>
<text text-anchor="start" x="1146" y="-219.5" font-family="Helvetica,sans-Serif" font-size="10.00">src/sensesp_base_app</text>
<text text-anchor="middle" x="1196.5" y="-208.5" font-family="Helvetica,sans-Serif" font-size="10.00">_builder.h</text>
</a>
</g>
</g>
<!-- Node24&#45;&gt;Node28 -->
<g id="edge48" class="edge">
<title>Node24&#45;&gt;Node28</title>
<path fill="none" stroke="midnightblue" d="M1196.5,-263.41C1196.5,-253.22 1196.5,-240.9 1196.5,-231.59"/>
<polygon fill="midnightblue" stroke="midnightblue" points="1193,-263.73 1196.5,-273.73 1200,-263.73 1193,-263.73"/>
</g>
<!-- Node30 -->
<g id="node30" class="node">
<title>Node30</title>
<g id="a_node30"><a xlink:href="sensesp__minimal__app_8h.html" target="_top" xlink:title=" ">
<polygon fill="white" stroke="black" points="856,-201.5 856,-231.5 965,-231.5 965,-201.5 856,-201.5"/>
<text text-anchor="start" x="864" y="-219.5" font-family="Helvetica,sans-Serif" font-size="10.00">src/sensesp_minimal</text>
<text text-anchor="middle" x="910.5" y="-208.5" font-family="Helvetica,sans-Serif" font-size="10.00">_app.h</text>
</a>
</g>
</g>
<!-- Node24&#45;&gt;Node30 -->
<g id="edge52" class="edge">
<title>Node24&#45;&gt;Node30</title>
<path fill="none" stroke="midnightblue" d="M1148.79,-271.66C1098.16,-260.15 1018.29,-242 965.16,-229.92"/>
<polygon fill="midnightblue" stroke="midnightblue" points="1148.29,-275.13 1158.82,-273.94 1149.84,-268.31 1148.29,-275.13"/>
</g>
<!-- Node25&#45;&gt;Node17 -->
<g id="edge45" class="edge">
<title>Node25&#45;&gt;Node17</title>
<path fill="none" stroke="midnightblue" d="M1401.07,-195.69C1411.93,-187.69 1422.55,-177.39 1428.5,-165 1434.46,-152.58 1434.43,-146.44 1428.5,-134 1402.15,-78.72 1335.67,-41.02 1302.68,-25.07"/>
<polygon fill="midnightblue" stroke="midnightblue" points="1399.07,-192.82 1392.8,-201.36 1403.03,-198.59 1399.07,-192.82"/>
</g>
<!-- Node26 -->
<g id="node26" class="node">
<title>Node26</title>
<g id="a_node26"><a xlink:href="system__info_8cpp.html" target="_top" xlink:title=" ">
<polygon fill="white" stroke="black" points="1312,-134.5 1312,-164.5 1419,-164.5 1419,-134.5 1312,-134.5"/>
<text text-anchor="start" x="1320" y="-152.5" font-family="Helvetica,sans-Serif" font-size="10.00">src/sensesp/sensors</text>
<text text-anchor="middle" x="1365.5" y="-141.5" font-family="Helvetica,sans-Serif" font-size="10.00">/system_info.cpp</text>
</a>
</g>
</g>
<!-- Node25&#45;&gt;Node26 -->
<g id="edge44" class="edge">
<title>Node25&#45;&gt;Node26</title>
<path fill="none" stroke="midnightblue" d="M1365.5,-191.11C1365.5,-182.15 1365.5,-172.32 1365.5,-164.58"/>
<polygon fill="midnightblue" stroke="midnightblue" points="1362,-191.4 1365.5,-201.4 1369,-191.4 1362,-191.4"/>
</g>
<!-- Node28&#45;&gt;Node17 -->
<g id="edge49" class="edge">
<title>Node28&#45;&gt;Node17</title>
<path fill="none" stroke="midnightblue" d="M1206.86,-191.8C1226.18,-147.61 1266.91,-54.44 1279.63,-25.36"/>
<polygon fill="midnightblue" stroke="midnightblue" points="1203.56,-190.62 1202.76,-201.19 1209.97,-193.43 1203.56,-190.62"/>
</g>
<!-- Node29 -->
<g id="node29" class="node">
<title>Node29</title>
<g id="a_node29"><a xlink:href="sensesp__minimal__app__builder_8h.html" target="_top" xlink:title=" ">
<polygon fill="white" stroke="black" points="983,-134.5 983,-164.5 1092,-164.5 1092,-134.5 983,-134.5"/>
<text text-anchor="start" x="991" y="-152.5" font-family="Helvetica,sans-Serif" font-size="10.00">src/sensesp_minimal</text>
<text text-anchor="middle" x="1037.5" y="-141.5" font-family="Helvetica,sans-Serif" font-size="10.00">_app_builder.h</text>
</a>
</g>
</g>
<!-- Node28&#45;&gt;Node29 -->
<g id="edge50" class="edge">
<title>Node28&#45;&gt;Node29</title>
<path fill="none" stroke="midnightblue" d="M1152.58,-197.54C1127.13,-187.14 1095.57,-174.24 1071.93,-164.58"/>
<polygon fill="midnightblue" stroke="midnightblue" points="1151.42,-200.85 1162,-201.4 1154.07,-194.37 1151.42,-200.85"/>
</g>
<!-- Node29&#45;&gt;Node3 -->
<g id="edge51" class="edge">
<title>Node29&#45;&gt;Node3</title>
<path fill="none" stroke="midnightblue" d="M972.78,-133.83C839.93,-111.59 801.99,-125.68 673.5,-98 666.3,-96.45 658.61,-94.25 651.62,-92.03"/>
<polygon fill="midnightblue" stroke="midnightblue" points="972.49,-137.33 982.94,-135.57 973.67,-130.43 972.49,-137.33"/>
</g>
<!-- Node30&#45;&gt;Node29 -->
<g id="edge54" class="edge">
<title>Node30&#45;&gt;Node29</title>
<path fill="none" stroke="midnightblue" d="M947.2,-196.71C967.23,-186.46 991.62,-173.98 1010,-164.58"/>
<polygon fill="midnightblue" stroke="midnightblue" points="945.36,-193.72 938.06,-201.4 948.55,-199.96 945.36,-193.72"/>
</g>
<!-- Node31 -->
<g id="node31" class="node">
<title>Node31</title>
<g id="a_node31"><a xlink:href="sensesp__minimal__app_8cpp.html" target="_top" xlink:title=" ">
<polygon fill="white" stroke="black" points="856,-134.5 856,-164.5 965,-164.5 965,-134.5 856,-134.5"/>
<text text-anchor="start" x="864" y="-152.5" font-family="Helvetica,sans-Serif" font-size="10.00">src/sensesp_minimal</text>
<text text-anchor="middle" x="910.5" y="-141.5" font-family="Helvetica,sans-Serif" font-size="10.00">_app.cpp</text>
</a>
</g>
</g>
<!-- Node30&#45;&gt;Node31 -->
<g id="edge53" class="edge">
<title>Node30&#45;&gt;Node31</title>
<path fill="none" stroke="midnightblue" d="M910.5,-191.11C910.5,-182.15 910.5,-172.32 910.5,-164.58"/>
<polygon fill="midnightblue" stroke="midnightblue" points="907,-191.4 910.5,-201.4 914,-191.4 907,-191.4"/>
</g>
</g>
</svg>
