<?xml version="1.0" encoding="UTF-8" standalone="no"?>
<!DOCTYPE svg PUBLIC "-//W3C//DTD SVG 1.1//EN"
 "http://www.w3.org/Graphics/SVG/1.1/DTD/svg11.dtd">
<!-- Generated by graphviz version 12.1.0 (20240811.2233)
 -->
<!-- Title: src/sensesp/transforms/press_repeater.cpp Pages: 1 -->
<!--zoomable 614 -->

<svg id="main" version="1.1" xmlns="http://www.w3.org/2000/svg" xmlns:xlink="http://www.w3.org/1999/xlink" xml:space="preserve" onload="init(evt)">

<style type="text/css"><![CDATA[
.node, .edge {opacity: 0.7;}
.node.selected, .edge.selected {opacity: 1;}
.edge:hover path { stroke: red; }
.edge:hover polygon { stroke: red; fill: red; }
]]></style>

<defs>
  <circle id="rim" cx="0" cy="0" r="7"/>
  <circle id="rim2" cx="0" cy="0" r="3.5"/>
  <g id="zoomPlus">
    <use xlink:href="#rim" fill="#404040"><set attributeName="fill" to="#808080" begin="zoomplus.mouseover" end="zoomplus.mouseout"/></use>
    <path d="M-4,0h8M0,-4v8" fill="none" stroke="white" stroke-width="1.5" pointer-events="none"/>
  </g>
  <g id="zoomMin">
    <use xlink:href="#rim" fill="#404040"><set attributeName="fill" to="#808080" begin="zoomminus.mouseover" end="zoomminus.mouseout"/></use>
    <path d="M-4,0h8" fill="none" stroke="white" stroke-width="1.5" pointer-events="none"/>
  </g>
  <g id="arrowUp" transform="translate(30 24)">
    <use xlink:href="#rim"/>
    <path pointer-events="none" fill="none" stroke="white" stroke-width="1.5" d="M0,-3.0v7 M-2.5,-0.5L0,-3.0L2.5,-0.5"/>
  </g>
  <g id="arrowRight" transform="rotate(90) translate(36 -43)">
    <use xlink:href="#rim"/>
    <path pointer-events="none" fill="none" stroke="white" stroke-width="1.5" d="M0,-3.0v7 M-2.5,-0.5L0,-3.0L2.5,-0.5"/>
  </g>
  <g id="arrowDown" transform="rotate(180) translate(-30 -48)">
    <use xlink:href="#rim"/>
    <path pointer-events="none" fill="none" stroke="white" stroke-width="1.5" d="M0,-3.0v7 M-2.5,-0.5L0,-3.0L2.5,-0.5"/>
  </g>
  <g id="arrowLeft" transform="rotate(270) translate(-36 17)">
    <use xlink:href="#rim"/>
    <path pointer-events="none" fill="none" stroke="white" stroke-width="1.5" d="M0,-3.0v7 M-2.5,-0.5L0,-3.0L2.5,-0.5"/>
  </g>
  <g id="resetDef">
    <use xlink:href="#rim2" fill="#404040"><set attributeName="fill" to="#808080" begin="reset.mouseover" end="reset.mouseout"/></use>
  </g>
</defs>
<script type="application/ecmascript">
var viewWidth = 651;
var viewHeight = 614;
var sectionId = 'dynsection-0';
</script>
<script type="application/ecmascript" xlink:href="svg.min.js"/>
<svg id="graph" class="graph">
<g id="viewport">
<title>src/sensesp/transforms/press_repeater.cpp</title>
<!-- Node1 -->
<g id="Node000001" class="node">
<title>Node1</title>
<g id="a_Node000001"><a xlink:title=" ">
<polygon fill="#999999" stroke="#666666" points="416.43,-605.5 297.68,-605.5 297.68,-575 416.43,-575 416.43,-605.5"/>
<text text-anchor="start" x="305.68" y="-592" font-family="Helvetica,sans-Serif" font-size="10.00">src/sensesp/transforms</text>
<text text-anchor="middle" x="357.06" y="-580.75" font-family="Helvetica,sans-Serif" font-size="10.00">/press_repeater.cpp</text>
</a>
</g>
</g>
<!-- Node2 -->
<g id="Node000002" class="node">
<title>Node2</title>
<g id="a_Node000002"><a xlink:href="press__repeater_8h.html" target="_top" xlink:title=" ">
<polygon fill="white" stroke="#666666" points="401.06,-539 313.06,-539 313.06,-519.75 401.06,-519.75 401.06,-539"/>
<text text-anchor="middle" x="357.06" y="-525.5" font-family="Helvetica,sans-Serif" font-size="10.00">press_repeater.h</text>
</a>
</g>
</g>
<!-- Node1&#45;&gt;Node2 -->
<g id="edge1_Node000001_Node000002" class="edge">
<title>Node1&#45;&gt;Node2</title>
<g id="a_edge1_Node000001_Node000002"><a xlink:title=" ">
<path fill="none" stroke="#63b8ff" d="M357.06,-574.7C357.06,-567.46 357.06,-558.59 357.06,-550.69"/>
<polygon fill="#63b8ff" stroke="#63b8ff" points="360.56,-550.96 357.06,-540.96 353.56,-550.96 360.56,-550.96"/>
</a>
</g>
</g>
<!-- Node3 -->
<g id="Node000003" class="node">
<title>Node3</title>
<g id="a_Node000003"><a xlink:title=" ">
<polygon fill="#e0e0e0" stroke="#999999" points="219.31,-417.25 138.81,-417.25 138.81,-398 219.31,-398 219.31,-417.25"/>
<text text-anchor="middle" x="179.06" y="-403.75" font-family="Helvetica,sans-Serif" font-size="10.00">elapsedMillis.h</text>
</a>
</g>
</g>
<!-- Node2&#45;&gt;Node3 -->
<g id="edge2_Node000002_Node000003" class="edge">
<title>Node2&#45;&gt;Node3</title>
<g id="a_edge2_Node000002_Node000003"><a xlink:title=" ">
<path fill="none" stroke="#63b8ff" d="M323.25,-519.25C300.15,-511.99 269.59,-500.29 246.06,-483.75 223.79,-468.11 203.83,-443.71 191.6,-426.99"/>
<polygon fill="#63b8ff" stroke="#63b8ff" points="194.54,-425.09 185.91,-418.95 188.83,-429.13 194.54,-425.09"/>
</a>
</g>
</g>
<!-- Node4 -->
<g id="Node000004" class="node">
<title>Node4</title>
<g id="a_Node000004"><a xlink:href="digital__input_8h.html" target="_top" xlink:title=" ">
<polygon fill="white" stroke="#666666" points="373.43,-483.75 254.68,-483.75 254.68,-453.25 373.43,-453.25 373.43,-483.75"/>
<text text-anchor="start" x="262.68" y="-470.25" font-family="Helvetica,sans-Serif" font-size="10.00">sensesp/sensors/digital</text>
<text text-anchor="middle" x="314.06" y="-459" font-family="Helvetica,sans-Serif" font-size="10.00">_input.h</text>
</a>
</g>
</g>
<!-- Node2&#45;&gt;Node4 -->
<g id="edge3_Node000002_Node000004" class="edge">
<title>Node2&#45;&gt;Node4</title>
<g id="a_edge3_Node000002_Node000004"><a xlink:title=" ">
<path fill="none" stroke="#63b8ff" d="M350.52,-519.43C345.43,-512.46 338.12,-502.45 331.37,-493.21"/>
<polygon fill="#63b8ff" stroke="#63b8ff" points="334.29,-491.27 325.56,-485.25 328.63,-495.39 334.29,-491.27"/>
</a>
</g>
</g>
<!-- Node25 -->
<g id="Node000025" class="node">
<title>Node25</title>
<g id="a_Node000025"><a xlink:href="valueconsumer_8h.html" target="_top" xlink:title=" ">
<polygon fill="white" stroke="#666666" points="542.81,-196.25 453.31,-196.25 453.31,-177 542.81,-177 542.81,-196.25"/>
<text text-anchor="middle" x="498.06" y="-182.75" font-family="Helvetica,sans-Serif" font-size="10.00">valueconsumer.h</text>
</a>
</g>
</g>
<!-- Node2&#45;&gt;Node25 -->
<g id="edge40_Node000002_Node000025" class="edge">
<title>Node2&#45;&gt;Node25</title>
<g id="a_edge40_Node000002_Node000025"><a xlink:title=" ">
<path fill="none" stroke="#63b8ff" d="M401.29,-527.28C475.26,-522.85 616.06,-502.13 616.06,-408.62 616.06,-408.62 616.06,-408.62 616.06,-351.38 616.06,-321.76 613.03,-312.44 597.06,-287.5 583.98,-267.08 573.35,-268.5 556.06,-251.5 540.76,-236.46 524.42,-218.25 513,-205.13"/>
<polygon fill="#63b8ff" stroke="#63b8ff" points="515.8,-203.03 506.62,-197.74 510.5,-207.6 515.8,-203.03"/>
</a>
</g>
</g>
<!-- Node29 -->
<g id="Node000029" class="node">
<title>Node29</title>
<g id="a_Node000029"><a xlink:href="transform_8h.html" target="_top" xlink:title=" ">
<polygon fill="white" stroke="#666666" points="425.81,-306.75 360.31,-306.75 360.31,-287.5 425.81,-287.5 425.81,-306.75"/>
<text text-anchor="middle" x="393.06" y="-293.25" font-family="Helvetica,sans-Serif" font-size="10.00">transform.h</text>
</a>
</g>
</g>
<!-- Node2&#45;&gt;Node29 -->
<g id="edge41_Node000002_Node000029" class="edge">
<title>Node2&#45;&gt;Node29</title>
<g id="a_edge41_Node000002_Node000029"><a xlink:title=" ">
<path fill="none" stroke="#63b8ff" d="M363.45,-519.26C369.24,-510.55 377.53,-496.84 382.06,-483.75 402.71,-423.99 406.66,-405.73 401.06,-342.75 400.33,-334.62 398.88,-325.75 397.41,-318.07"/>
<polygon fill="#63b8ff" stroke="#63b8ff" points="400.87,-317.52 395.42,-308.43 394.02,-318.94 400.87,-317.52"/>
</a>
</g>
</g>
<!-- Node4&#45;&gt;Node3 -->
<g id="edge4_Node000004_Node000003" class="edge">
<title>Node4&#45;&gt;Node3</title>
<g id="a_edge4_Node000004_Node000003"><a xlink:title=" ">
<path fill="none" stroke="#63b8ff" d="M280.34,-452.8C258.79,-443.4 231.05,-431.3 210.06,-422.14"/>
<polygon fill="#63b8ff" stroke="#63b8ff" points="211.71,-419.05 201.15,-418.26 208.91,-425.46 211.71,-419.05"/>
</a>
</g>
</g>
<!-- Node5 -->
<g id="Node000005" class="node">
<title>Node5</title>
<g id="a_Node000005"><a xlink:href="sensesp__base__app_8h.html" target="_top" xlink:title=" ">
<polygon fill="white" stroke="#666666" points="392.18,-362 283.93,-362 283.93,-342.75 392.18,-342.75 392.18,-362"/>
<text text-anchor="middle" x="338.06" y="-348.5" font-family="Helvetica,sans-Serif" font-size="10.00">sensesp_base_app.h</text>
</a>
</g>
</g>
<!-- Node4&#45;&gt;Node5 -->
<g id="edge5_Node000004_Node000005" class="edge">
<title>Node4&#45;&gt;Node5</title>
<g id="a_edge5_Node000004_Node000005"><a xlink:title=" ">
<path fill="none" stroke="#63b8ff" d="M317.1,-453.05C321.33,-432.9 329.03,-396.31 333.82,-373.5"/>
<polygon fill="#63b8ff" stroke="#63b8ff" points="337.2,-374.44 335.84,-363.93 330.35,-372.99 337.2,-374.44"/>
</a>
</g>
</g>
<!-- Node27 -->
<g id="Node000027" class="node">
<title>Node27</title>
<g id="a_Node000027"><a xlink:href="sensor_8h.html" target="_top" xlink:title=" ">
<polygon fill="white" stroke="#666666" points="290.43,-417.25 237.68,-417.25 237.68,-398 290.43,-398 290.43,-417.25"/>
<text text-anchor="middle" x="264.06" y="-403.75" font-family="Helvetica,sans-Serif" font-size="10.00">sensor.h</text>
</a>
</g>
</g>
<!-- Node4&#45;&gt;Node27 -->
<g id="edge34_Node000004_Node000027" class="edge">
<title>Node4&#45;&gt;Node27</title>
<g id="a_edge34_Node000004_Node000027"><a xlink:title=" ">
<path fill="none" stroke="#63b8ff" d="M301.7,-452.95C294.89,-444.93 286.38,-434.92 279.18,-426.44"/>
<polygon fill="#63b8ff" stroke="#63b8ff" points="281.88,-424.21 272.74,-418.85 276.55,-428.74 281.88,-424.21"/>
</a>
</g>
</g>
<!-- Node6 -->
<g id="Node000006" class="node">
<title>Node6</title>
<g id="a_Node000006"><a xlink:href="sensesp_8h.html" target="_top" xlink:title=" ">
<polygon fill="white" stroke="#666666" points="484.56,-141 423.56,-141 423.56,-121.75 484.56,-121.75 484.56,-141"/>
<text text-anchor="middle" x="454.06" y="-127.5" font-family="Helvetica,sans-Serif" font-size="10.00">sensesp.h</text>
</a>
</g>
</g>
<!-- Node5&#45;&gt;Node6 -->
<g id="edge6_Node000005_Node000006" class="edge">
<title>Node5&#45;&gt;Node6</title>
<g id="a_edge6_Node000005_Node000006"><a xlink:title=" ">
<path fill="none" stroke="#63b8ff" d="M392.51,-346.57C457.98,-340.01 563.29,-326.74 597.06,-306.75 624.07,-290.76 630.7,-281.13 641.06,-251.5 648.72,-229.56 631.37,-180.38 628.06,-177 623.35,-172.2 545.93,-153.59 495.96,-141.98"/>
<polygon fill="#63b8ff" stroke="#63b8ff" points="496.84,-138.59 486.31,-139.74 495.26,-145.41 496.84,-138.59"/>
</a>
</g>
</g>
<!-- Node12 -->
<g id="Node000012" class="node">
<title>Node12</title>
<g id="a_Node000012"><a xlink:title=" ">
<polygon fill="#e0e0e0" stroke="#999999" points="342.06,-306.75 284.06,-306.75 284.06,-287.5 342.06,-287.5 342.06,-306.75"/>
<text text-anchor="middle" x="313.06" y="-293.25" font-family="Helvetica,sans-Serif" font-size="10.00">esp_log.h</text>
</a>
</g>
</g>
<!-- Node5&#45;&gt;Node12 -->
<g id="edge12_Node000005_Node000012" class="edge">
<title>Node5&#45;&gt;Node12</title>
<g id="a_edge12_Node000005_Node000012"><a xlink:title=" ">
<path fill="none" stroke="#63b8ff" d="M333.93,-342.58C330.73,-335.76 326.17,-326.06 322.13,-317.45"/>
<polygon fill="#63b8ff" stroke="#63b8ff" points="325.33,-316.04 317.92,-308.48 319,-319.02 325.33,-316.04"/>
</a>
</g>
</g>
<!-- Node13 -->
<g id="Node000013" class="node">
<title>Node13</title>
<g id="a_Node000013"><a xlink:href="filesystem_8h.html" target="_top" xlink:title=" ">
<polygon fill="white" stroke="#666666" points="588.18,-306.75 443.93,-306.75 443.93,-287.5 588.18,-287.5 588.18,-306.75"/>
<text text-anchor="middle" x="516.06" y="-293.25" font-family="Helvetica,sans-Serif" font-size="10.00">sensesp/system/filesystem.h</text>
</a>
</g>
</g>
<!-- Node5&#45;&gt;Node13 -->
<g id="edge13_Node000005_Node000013" class="edge">
<title>Node5&#45;&gt;Node13</title>
<g id="a_edge13_Node000005_Node000013"><a xlink:title=" ">
<path fill="none" stroke="#63b8ff" d="M368.25,-342.34C397.53,-333.58 442.18,-320.23 474.74,-310.48"/>
<polygon fill="#63b8ff" stroke="#63b8ff" points="475.68,-313.86 484.26,-307.64 473.68,-307.15 475.68,-313.86"/>
</a>
</g>
</g>
<!-- Node16 -->
<g id="Node000016" class="node">
<title>Node16</title>
<g id="a_Node000016"><a xlink:href="observablevalue_8h.html" target="_top" xlink:title=" ">
<polygon fill="white" stroke="#666666" points="189.93,-306.75 20.18,-306.75 20.18,-287.5 189.93,-287.5 189.93,-306.75"/>
<text text-anchor="middle" x="105.06" y="-293.25" font-family="Helvetica,sans-Serif" font-size="10.00">sensesp/system/observablevalue.h</text>
</a>
</g>
</g>
<!-- Node5&#45;&gt;Node16 -->
<g id="edge16_Node000005_Node000016" class="edge">
<title>Node5&#45;&gt;Node16</title>
<g id="a_edge16_Node000005_Node000016"><a xlink:title=" ">
<path fill="none" stroke="#63b8ff" d="M298.27,-342.28C258.89,-333.28 198.48,-319.48 155.7,-309.7"/>
<polygon fill="#63b8ff" stroke="#63b8ff" points="156.68,-306.33 146.16,-307.52 155.13,-313.16 156.68,-306.33"/>
</a>
</g>
</g>
<!-- Node7 -->
<g id="Node000007" class="node">
<title>Node7</title>
<g id="a_Node000007"><a xlink:title=" ">
<polygon fill="#e0e0e0" stroke="#999999" points="525.68,-80.12 456.43,-80.12 456.43,-60.88 525.68,-60.88 525.68,-80.12"/>
<text text-anchor="middle" x="491.06" y="-66.62" font-family="Helvetica,sans-Serif" font-size="10.00">ReactESP.h</text>
</a>
</g>
</g>
<!-- Node6&#45;&gt;Node7 -->
<g id="edge7_Node000006_Node000007" class="edge">
<title>Node6&#45;&gt;Node7</title>
<g id="a_edge7_Node000006_Node000007"><a xlink:title=" ">
<path fill="none" stroke="#63b8ff" d="M459.68,-121.43C464.89,-113.13 472.82,-100.52 479.4,-90.05"/>
<polygon fill="#63b8ff" stroke="#63b8ff" points="482.22,-92.14 484.58,-81.81 476.29,-88.41 482.22,-92.14"/>
</a>
</g>
</g>
<!-- Node8 -->
<g id="Node000008" class="node">
<title>Node8</title>
<g id="a_Node000008"><a xlink:href="local__debug_8h.html" target="_top" xlink:title=" ">
<polygon fill="white" stroke="#666666" points="438.68,-85.75 327.43,-85.75 327.43,-55.25 438.68,-55.25 438.68,-85.75"/>
<text text-anchor="start" x="335.43" y="-72.25" font-family="Helvetica,sans-Serif" font-size="10.00">sensesp/system/local</text>
<text text-anchor="middle" x="383.06" y="-61" font-family="Helvetica,sans-Serif" font-size="10.00">_debug.h</text>
</a>
</g>
</g>
<!-- Node6&#45;&gt;Node8 -->
<g id="edge8_Node000006_Node000008" class="edge">
<title>Node6&#45;&gt;Node8</title>
<g id="a_edge8_Node000006_Node000008"><a xlink:title=" ">
<path fill="none" stroke="#63b8ff" d="M443.27,-121.43C434.25,-113.95 420.99,-102.95 409.21,-93.18"/>
<polygon fill="#63b8ff" stroke="#63b8ff" points="411.68,-90.69 401.75,-87 407.21,-96.08 411.68,-90.69"/>
</a>
</g>
</g>
<!-- Node9 -->
<g id="Node000009" class="node">
<title>Node9</title>
<g id="a_Node000009"><a xlink:title=" ">
<polygon fill="#e0e0e0" stroke="#999999" points="501.06,-19.25 419.06,-19.25 419.06,0 501.06,0 501.06,-19.25"/>
<text text-anchor="middle" x="460.06" y="-5.75" font-family="Helvetica,sans-Serif" font-size="10.00">esp32&#45;hal&#45;log.h</text>
</a>
</g>
</g>
<!-- Node8&#45;&gt;Node9 -->
<g id="edge9_Node000008_Node000009" class="edge">
<title>Node8&#45;&gt;Node9</title>
<g id="a_edge9_Node000008_Node000009"><a xlink:title=" ">
<path fill="none" stroke="#63b8ff" d="M402.09,-54.95C413.36,-46.33 427.66,-35.4 439.23,-26.55"/>
<polygon fill="#63b8ff" stroke="#63b8ff" points="441.16,-29.48 446.98,-20.62 436.91,-23.91 441.16,-29.48"/>
</a>
</g>
</g>
<!-- Node10 -->
<g id="Node000010" class="node">
<title>Node10</title>
<g id="a_Node000010"><a xlink:title=" ">
<polygon fill="#e0e0e0" stroke="#999999" points="334.68,-19.25 277.43,-19.25 277.43,0 334.68,0 334.68,-19.25"/>
<text text-anchor="middle" x="306.06" y="-5.75" font-family="Helvetica,sans-Serif" font-size="10.00">Arduino.h</text>
</a>
</g>
</g>
<!-- Node8&#45;&gt;Node10 -->
<g id="edge10_Node000008_Node000010" class="edge">
<title>Node8&#45;&gt;Node10</title>
<g id="a_edge10_Node000008_Node000010"><a xlink:title=" ">
<path fill="none" stroke="#63b8ff" d="M364.02,-54.95C352.75,-46.33 338.45,-35.4 326.88,-26.55"/>
<polygon fill="#63b8ff" stroke="#63b8ff" points="329.2,-23.91 319.13,-20.62 324.95,-29.48 329.2,-23.91"/>
</a>
</g>
</g>
<!-- Node11 -->
<g id="Node000011" class="node">
<title>Node11</title>
<g id="a_Node000011"><a xlink:title=" ">
<polygon fill="#e0e0e0" stroke="#999999" points="401.31,-19.25 356.81,-19.25 356.81,0 401.31,0 401.31,-19.25"/>
<text text-anchor="middle" x="379.06" y="-5.75" font-family="Helvetica,sans-Serif" font-size="10.00">Print.h</text>
</a>
</g>
</g>
<!-- Node8&#45;&gt;Node11 -->
<g id="edge11_Node000008_Node000011" class="edge">
<title>Node8&#45;&gt;Node11</title>
<g id="a_edge11_Node000008_Node000011"><a xlink:title=" ">
<path fill="none" stroke="#63b8ff" d="M382.07,-54.95C381.58,-47.71 380.97,-38.84 380.44,-30.94"/>
<polygon fill="#63b8ff" stroke="#63b8ff" points="383.94,-30.95 379.77,-21.21 376.96,-31.43 383.94,-30.95"/>
</a>
</g>
</g>
<!-- Node14 -->
<g id="Node000014" class="node">
<title>Node14</title>
<g id="a_Node000014"><a xlink:href="resettable_8h.html" target="_top" xlink:title=" ">
<polygon fill="white" stroke="#666666" points="631.56,-251.5 564.56,-251.5 564.56,-232.25 631.56,-232.25 631.56,-251.5"/>
<text text-anchor="middle" x="598.06" y="-238" font-family="Helvetica,sans-Serif" font-size="10.00">resettable.h</text>
</a>
</g>
</g>
<!-- Node13&#45;&gt;Node14 -->
<g id="edge14_Node000013_Node000014" class="edge">
<title>Node13&#45;&gt;Node14</title>
<g id="a_edge14_Node000013_Node000014"><a xlink:title=" ">
<path fill="none" stroke="#63b8ff" d="M529.97,-287.09C542.22,-279.14 560.31,-267.39 574.77,-258"/>
<polygon fill="#63b8ff" stroke="#63b8ff" points="576.33,-261.16 582.81,-252.78 572.51,-255.29 576.33,-261.16"/>
</a>
</g>
</g>
<!-- Node15 -->
<g id="Node000015" class="node">
<title>Node15</title>
<g id="a_Node000015"><a xlink:title=" ">
<polygon fill="#e0e0e0" stroke="#999999" points="619.18,-196.25 576.93,-196.25 576.93,-177 619.18,-177 619.18,-196.25"/>
<text text-anchor="middle" x="598.06" y="-182.75" font-family="Helvetica,sans-Serif" font-size="10.00">queue</text>
</a>
</g>
</g>
<!-- Node14&#45;&gt;Node15 -->
<g id="edge15_Node000014_Node000015" class="edge">
<title>Node14&#45;&gt;Node15</title>
<g id="a_edge15_Node000014_Node000015"><a xlink:title=" ">
<path fill="none" stroke="#63b8ff" d="M598.06,-232.08C598.06,-225.57 598.06,-216.42 598.06,-208.12"/>
<polygon fill="#63b8ff" stroke="#63b8ff" points="601.56,-208.12 598.06,-198.12 594.56,-208.12 601.56,-208.12"/>
</a>
</g>
</g>
<!-- Node17 -->
<g id="Node000017" class="node">
<title>Node17</title>
<g id="a_Node000017"><a xlink:href="configurable_8h.html" target="_top" xlink:title=" ">
<polygon fill="white" stroke="#666666" points="304.43,-196.25 227.68,-196.25 227.68,-177 304.43,-177 304.43,-196.25"/>
<text text-anchor="middle" x="266.06" y="-182.75" font-family="Helvetica,sans-Serif" font-size="10.00">configurable.h</text>
</a>
</g>
</g>
<!-- Node16&#45;&gt;Node17 -->
<g id="edge17_Node000016_Node000017" class="edge">
<title>Node16&#45;&gt;Node17</title>
<g id="a_edge17_Node000016_Node000017"><a xlink:title=" ">
<path fill="none" stroke="#63b8ff" d="M107.89,-287.4C112.76,-273.75 123.95,-247.36 142.06,-232.25 163.23,-214.58 191.95,-203.65 216.42,-197.04"/>
<polygon fill="#63b8ff" stroke="#63b8ff" points="217.02,-200.5 225.86,-194.67 215.31,-193.71 217.02,-200.5"/>
</a>
</g>
</g>
<!-- Node21 -->
<g id="Node000021" class="node">
<title>Node21</title>
<g id="a_Node000021"><a xlink:href="observable_8h.html" target="_top" xlink:title=" ">
<polygon fill="white" stroke="#666666" points="163.81,-196.25 92.31,-196.25 92.31,-177 163.81,-177 163.81,-196.25"/>
<text text-anchor="middle" x="128.06" y="-182.75" font-family="Helvetica,sans-Serif" font-size="10.00">observable.h</text>
</a>
</g>
</g>
<!-- Node16&#45;&gt;Node21 -->
<g id="edge23_Node000016_Node000021" class="edge">
<title>Node16&#45;&gt;Node21</title>
<g id="a_edge23_Node000016_Node000021"><a xlink:title=" ">
<path fill="none" stroke="#63b8ff" d="M101.62,-287.24C97.3,-274.7 91.11,-251.23 97.06,-232.25 100.11,-222.5 106.13,-213.02 112.05,-205.32"/>
<polygon fill="#63b8ff" stroke="#63b8ff" points="114.61,-207.72 118.31,-197.79 109.23,-203.24 114.61,-207.72"/>
</a>
</g>
</g>
<!-- Node24 -->
<g id="Node000024" class="node">
<title>Node24</title>
<g id="a_Node000024"><a xlink:href="valueproducer_8h.html" target="_top" xlink:title=" ">
<polygon fill="white" stroke="#666666" points="235.18,-251.5 150.93,-251.5 150.93,-232.25 235.18,-232.25 235.18,-251.5"/>
<text text-anchor="middle" x="193.06" y="-238" font-family="Helvetica,sans-Serif" font-size="10.00">valueproducer.h</text>
</a>
</g>
</g>
<!-- Node16&#45;&gt;Node24 -->
<g id="edge27_Node000016_Node000024" class="edge">
<title>Node16&#45;&gt;Node24</title>
<g id="a_edge27_Node000016_Node000024"><a xlink:title=" ">
<path fill="none" stroke="#63b8ff" d="M119.98,-287.09C133.26,-279.06 152.92,-267.16 168.51,-257.73"/>
<polygon fill="#63b8ff" stroke="#63b8ff" points="170.02,-260.91 176.76,-252.74 166.39,-254.92 170.02,-260.91"/>
</a>
</g>
</g>
<!-- Node17&#45;&gt;Node6 -->
<g id="edge18_Node000017_Node000006" class="edge">
<title>Node17&#45;&gt;Node6</title>
<g id="a_edge18_Node000017_Node000006"><a xlink:title=" ">
<path fill="none" stroke="#63b8ff" d="M297.95,-176.59C329.52,-167.65 378.01,-153.91 412.57,-144.13"/>
<polygon fill="#63b8ff" stroke="#63b8ff" points="413.13,-147.6 421.8,-141.51 411.23,-140.87 413.13,-147.6"/>
</a>
</g>
</g>
<!-- Node17&#45;&gt;Node10 -->
<g id="edge22_Node000017_Node000010" class="edge">
<title>Node17&#45;&gt;Node10</title>
<g id="a_edge22_Node000017_Node000010"><a xlink:title=" ">
<path fill="none" stroke="#63b8ff" d="M269.13,-176.82C272.17,-167.87 276.84,-153.59 280.06,-141 289.94,-102.36 298.33,-56.48 302.73,-30.74"/>
<polygon fill="#63b8ff" stroke="#63b8ff" points="306.16,-31.49 304.36,-21.04 299.25,-30.33 306.16,-31.49"/>
</a>
</g>
</g>
<!-- Node18 -->
<g id="Node000018" class="node">
<title>Node18</title>
<g id="a_Node000018"><a xlink:title=" ">
<polygon fill="#e0e0e0" stroke="#999999" points="405.18,-141 326.93,-141 326.93,-121.75 405.18,-121.75 405.18,-141"/>
<text text-anchor="middle" x="366.06" y="-127.5" font-family="Helvetica,sans-Serif" font-size="10.00">ArduinoJson.h</text>
</a>
</g>
</g>
<!-- Node17&#45;&gt;Node18 -->
<g id="edge19_Node000017_Node000018" class="edge">
<title>Node17&#45;&gt;Node18</title>
<g id="a_edge19_Node000017_Node000018"><a xlink:title=" ">
<path fill="none" stroke="#63b8ff" d="M283.02,-176.59C298.32,-168.44 321.09,-156.32 338.92,-146.83"/>
<polygon fill="#63b8ff" stroke="#63b8ff" points="340.49,-149.95 347.67,-142.16 337.2,-143.77 340.49,-149.95"/>
</a>
</g>
</g>
<!-- Node19 -->
<g id="Node000019" class="node">
<title>Node19</title>
<g id="a_Node000019"><a xlink:title=" ">
<polygon fill="#e0e0e0" stroke="#999999" points="271.43,-141 236.68,-141 236.68,-121.75 271.43,-121.75 271.43,-141"/>
<text text-anchor="middle" x="254.06" y="-127.5" font-family="Helvetica,sans-Serif" font-size="10.00">map</text>
</a>
</g>
</g>
<!-- Node17&#45;&gt;Node19 -->
<g id="edge20_Node000017_Node000019" class="edge">
<title>Node17&#45;&gt;Node19</title>
<g id="a_edge20_Node000017_Node000019"><a xlink:title=" ">
<path fill="none" stroke="#63b8ff" d="M264.07,-176.83C262.59,-170.24 260.5,-160.96 258.61,-152.57"/>
<polygon fill="#63b8ff" stroke="#63b8ff" points="262.03,-151.82 256.41,-142.84 255.2,-153.36 262.03,-151.82"/>
</a>
</g>
</g>
<!-- Node20 -->
<g id="Node000020" class="node">
<title>Node20</title>
<g id="a_Node000020"><a xlink:title=" ">
<polygon fill="#e0e0e0" stroke="#999999" points="218.56,-141 175.56,-141 175.56,-121.75 218.56,-121.75 218.56,-141"/>
<text text-anchor="middle" x="197.06" y="-127.5" font-family="Helvetica,sans-Serif" font-size="10.00">vector</text>
</a>
</g>
</g>
<!-- Node17&#45;&gt;Node20 -->
<g id="edge21_Node000017_Node000020" class="edge">
<title>Node17&#45;&gt;Node20</title>
<g id="a_edge21_Node000017_Node000020"><a xlink:title=" ">
<path fill="none" stroke="#63b8ff" d="M254.35,-176.59C244.28,-168.82 229.51,-157.42 217.5,-148.15"/>
<polygon fill="#63b8ff" stroke="#63b8ff" points="219.84,-145.54 209.79,-142.2 215.56,-151.08 219.84,-145.54"/>
</a>
</g>
</g>
<!-- Node21&#45;&gt;Node20 -->
<g id="edge26_Node000021_Node000020" class="edge">
<title>Node21&#45;&gt;Node20</title>
<g id="a_edge26_Node000021_Node000020"><a xlink:title=" ">
<path fill="none" stroke="#63b8ff" d="M139.76,-176.59C149.83,-168.82 164.6,-157.42 176.62,-148.15"/>
<polygon fill="#63b8ff" stroke="#63b8ff" points="178.55,-151.08 184.33,-142.2 174.27,-145.54 178.55,-151.08"/>
</a>
</g>
</g>
<!-- Node22 -->
<g id="Node000022" class="node">
<title>Node22</title>
<g id="a_Node000022"><a xlink:title=" ">
<polygon fill="#e0e0e0" stroke="#999999" points="81.18,-141 14.93,-141 14.93,-121.75 81.18,-121.75 81.18,-141"/>
<text text-anchor="middle" x="48.06" y="-127.5" font-family="Helvetica,sans-Serif" font-size="10.00">forward_list</text>
</a>
</g>
</g>
<!-- Node21&#45;&gt;Node22 -->
<g id="edge24_Node000021_Node000022" class="edge">
<title>Node21&#45;&gt;Node22</title>
<g id="a_edge24_Node000021_Node000022"><a xlink:title=" ">
<path fill="none" stroke="#63b8ff" d="M114.48,-176.59C102.65,-168.71 85.22,-157.11 71.18,-147.77"/>
<polygon fill="#63b8ff" stroke="#63b8ff" points="73.22,-144.92 62.95,-142.29 69.34,-150.75 73.22,-144.92"/>
</a>
</g>
</g>
<!-- Node23 -->
<g id="Node000023" class="node">
<title>Node23</title>
<g id="a_Node000023"><a xlink:title=" ">
<polygon fill="#e0e0e0" stroke="#999999" points="157.06,-141 99.06,-141 99.06,-121.75 157.06,-121.75 157.06,-141"/>
<text text-anchor="middle" x="128.06" y="-127.5" font-family="Helvetica,sans-Serif" font-size="10.00">functional</text>
</a>
</g>
</g>
<!-- Node21&#45;&gt;Node23 -->
<g id="edge25_Node000021_Node000023" class="edge">
<title>Node21&#45;&gt;Node23</title>
<g id="a_edge25_Node000021_Node000023"><a xlink:title=" ">
<path fill="none" stroke="#63b8ff" d="M128.06,-176.83C128.06,-170.32 128.06,-161.17 128.06,-152.87"/>
<polygon fill="#63b8ff" stroke="#63b8ff" points="131.56,-152.87 128.06,-142.87 124.56,-152.87 131.56,-152.87"/>
</a>
</g>
</g>
<!-- Node24&#45;&gt;Node18 -->
<g id="edge28_Node000024_Node000018" class="edge">
<title>Node24&#45;&gt;Node18</title>
<g id="a_edge28_Node000024_Node000018"><a xlink:title=" ">
<path fill="none" stroke="#63b8ff" d="M232.57,-231.8C257.26,-224.82 288.86,-213.42 313.06,-196.25 330.27,-184.04 345.13,-164.89 354.7,-150.75"/>
<polygon fill="#63b8ff" stroke="#63b8ff" points="357.37,-153.06 359.87,-142.77 351.49,-149.26 357.37,-153.06"/>
</a>
</g>
</g>
<!-- Node24&#45;&gt;Node21 -->
<g id="edge29_Node000024_Node000021" class="edge">
<title>Node24&#45;&gt;Node21</title>
<g id="a_edge29_Node000024_Node000021"><a xlink:title=" ">
<path fill="none" stroke="#63b8ff" d="M182.03,-231.84C172.63,-224.15 158.91,-212.9 147.65,-203.68"/>
<polygon fill="#63b8ff" stroke="#63b8ff" points="150.04,-201.11 140.09,-197.48 145.61,-206.53 150.04,-201.11"/>
</a>
</g>
</g>
<!-- Node24&#45;&gt;Node25 -->
<g id="edge30_Node000024_Node000025" class="edge">
<title>Node24&#45;&gt;Node25</title>
<g id="a_edge30_Node000024_Node000025"><a xlink:title=" ">
<path fill="none" stroke="#63b8ff" d="M235.46,-233.47C289.28,-224.07 382.28,-207.84 441.93,-197.42"/>
<polygon fill="#63b8ff" stroke="#63b8ff" points="442.29,-200.91 451.54,-195.75 441.09,-194.02 442.29,-200.91"/>
</a>
</g>
</g>
<!-- Node25&#45;&gt;Node6 -->
<g id="edge31_Node000025_Node000006" class="edge">
<title>Node25&#45;&gt;Node6</title>
<g id="a_edge31_Node000025_Node000006"><a xlink:title=" ">
<path fill="none" stroke="#63b8ff" d="M490.79,-176.83C484.78,-169.55 476.04,-158.98 468.6,-149.98"/>
<polygon fill="#63b8ff" stroke="#63b8ff" points="471.51,-148.01 462.44,-142.53 466.12,-152.46 471.51,-148.01"/>
</a>
</g>
</g>
<!-- Node25&#45;&gt;Node18 -->
<g id="edge32_Node000025_Node000018" class="edge">
<title>Node25&#45;&gt;Node18</title>
<g id="a_edge32_Node000025_Node000018"><a xlink:title=" ">
<path fill="none" stroke="#63b8ff" d="M475.66,-176.59C454.61,-168.1 422.85,-155.29 398.93,-145.64"/>
<polygon fill="#63b8ff" stroke="#63b8ff" points="400.54,-142.51 389.96,-142.02 397.93,-149.01 400.54,-142.51"/>
</a>
</g>
</g>
<!-- Node26 -->
<g id="Node000026" class="node">
<title>Node26</title>
<g id="a_Node000026"><a xlink:title=" ">
<polygon fill="#e0e0e0" stroke="#999999" points="551.18,-141 502.93,-141 502.93,-121.75 551.18,-121.75 551.18,-141"/>
<text text-anchor="middle" x="527.06" y="-127.5" font-family="Helvetica,sans-Serif" font-size="10.00">stdint.h</text>
</a>
</g>
</g>
<!-- Node25&#45;&gt;Node26 -->
<g id="edge33_Node000025_Node000026" class="edge">
<title>Node25&#45;&gt;Node26</title>
<g id="a_edge33_Node000025_Node000026"><a xlink:title=" ">
<path fill="none" stroke="#63b8ff" d="M502.84,-176.83C506.6,-169.94 511.96,-160.09 516.69,-151.41"/>
<polygon fill="#63b8ff" stroke="#63b8ff" points="519.73,-153.14 521.44,-142.69 513.58,-149.8 519.73,-153.14"/>
</a>
</g>
</g>
<!-- Node27&#45;&gt;Node5 -->
<g id="edge39_Node000027_Node000005" class="edge">
<title>Node27&#45;&gt;Node5</title>
<g id="a_edge39_Node000027_Node000005"><a xlink:title=" ">
<path fill="none" stroke="#63b8ff" d="M276.61,-397.59C287.52,-389.74 303.56,-378.2 316.52,-368.87"/>
<polygon fill="#63b8ff" stroke="#63b8ff" points="318.39,-371.84 324.46,-363.16 314.3,-366.16 318.39,-371.84"/>
</a>
</g>
</g>
<!-- Node27&#45;&gt;Node17 -->
<g id="edge36_Node000027_Node000017" class="edge">
<title>Node27&#45;&gt;Node17</title>
<g id="a_edge36_Node000027_Node000017"><a xlink:title=" ">
<path fill="none" stroke="#63b8ff" d="M237.29,-400.1C177.79,-384.99 37.68,-345.89 11.06,-306.75 6.24,-299.68 6.55,-294.77 11.06,-287.5 54.21,-217.82 154.88,-196.69 216.03,-190.33"/>
<polygon fill="#63b8ff" stroke="#63b8ff" points="216.2,-193.83 225.83,-189.41 215.55,-186.86 216.2,-193.83"/>
</a>
</g>
</g>
<!-- Node27&#45;&gt;Node21 -->
<g id="edge37_Node000027_Node000021" class="edge">
<title>Node27&#45;&gt;Node21</title>
<g id="a_edge37_Node000027_Node000021"><a xlink:title=" ">
<path fill="none" stroke="#63b8ff" d="M237.33,-400.16C234.21,-399.42 231.06,-398.69 228.06,-398 123.27,-374.02 46.82,-405.38 4.06,-306.75 -16.85,-258.52 49.66,-220.28 93.23,-201.11"/>
<polygon fill="#63b8ff" stroke="#63b8ff" points="94.51,-204.36 102.35,-197.24 91.78,-197.92 94.51,-204.36"/>
</a>
</g>
</g>
<!-- Node27&#45;&gt;Node24 -->
<g id="edge38_Node000027_Node000024" class="edge">
<title>Node27&#45;&gt;Node24</title>
<g id="a_edge38_Node000027_Node000024"><a xlink:title=" ">
<path fill="none" stroke="#63b8ff" d="M260.24,-397.82C249.16,-372.28 216.83,-297.7 201.42,-262.15"/>
<polygon fill="#63b8ff" stroke="#63b8ff" points="204.68,-260.89 197.49,-253.11 198.26,-263.68 204.68,-260.89"/>
</a>
</g>
</g>
<!-- Node28 -->
<g id="Node000028" class="node">
<title>Node28</title>
<g id="a_Node000028"><a xlink:title=" ">
<polygon fill="#e0e0e0" stroke="#999999" points="282.81,-251.5 253.31,-251.5 253.31,-232.25 282.81,-232.25 282.81,-251.5"/>
<text text-anchor="middle" x="268.06" y="-238" font-family="Helvetica,sans-Serif" font-size="10.00">set</text>
</a>
</g>
</g>
<!-- Node27&#45;&gt;Node28 -->
<g id="edge35_Node000027_Node000028" class="edge">
<title>Node27&#45;&gt;Node28</title>
<g id="a_edge35_Node000027_Node000028"><a xlink:title=" ">
<path fill="none" stroke="#63b8ff" d="M264.27,-397.82C264.89,-372.5 266.68,-299 267.56,-263.09"/>
<polygon fill="#63b8ff" stroke="#63b8ff" points="271.06,-263.32 267.8,-253.24 264.06,-263.15 271.06,-263.32"/>
</a>
</g>
</g>
<!-- Node29&#45;&gt;Node6 -->
<g id="edge42_Node000029_Node000006" class="edge">
<title>Node29&#45;&gt;Node6</title>
<g id="a_edge42_Node000029_Node000006"><a xlink:title=" ">
<path fill="none" stroke="#63b8ff" d="M396.34,-287.32C405.85,-261.78 433.63,-187.2 446.87,-151.65"/>
<polygon fill="#63b8ff" stroke="#63b8ff" points="450.02,-153.23 450.23,-142.64 443.46,-150.79 450.02,-153.23"/>
</a>
</g>
</g>
<!-- Node29&#45;&gt;Node17 -->
<g id="edge45_Node000029_Node000017" class="edge">
<title>Node29&#45;&gt;Node17</title>
<g id="a_edge45_Node000029_Node000017"><a xlink:title=" ">
<path fill="none" stroke="#63b8ff" d="M384.1,-287.13C371.36,-274.46 347.09,-250.84 325.06,-232.25 313.06,-222.13 299.07,-211.5 287.73,-203.16"/>
<polygon fill="#63b8ff" stroke="#63b8ff" points="289.93,-200.43 279.78,-197.37 285.81,-206.09 289.93,-200.43"/>
</a>
</g>
</g>
<!-- Node29&#45;&gt;Node18 -->
<g id="edge43_Node000029_Node000018" class="edge">
<title>Node29&#45;&gt;Node18</title>
<g id="a_edge43_Node000029_Node000018"><a xlink:title=" ">
<path fill="none" stroke="#63b8ff" d="M391.6,-287.32C387.41,-261.89 375.2,-187.85 369.31,-152.12"/>
<polygon fill="#63b8ff" stroke="#63b8ff" points="372.84,-152.01 367.76,-142.72 365.93,-153.15 372.84,-152.01"/>
</a>
</g>
</g>
<!-- Node29&#45;&gt;Node21 -->
<g id="edge46_Node000029_Node000021" class="edge">
<title>Node29&#45;&gt;Node21</title>
<g id="a_edge46_Node000029_Node000021"><a xlink:title=" ">
<path fill="none" stroke="#63b8ff" d="M379.38,-287.16C353.97,-270.54 301.22,-236.28 292.06,-232.25 254.21,-215.58 208.64,-203.79 175.16,-196.53"/>
<polygon fill="#63b8ff" stroke="#63b8ff" points="176.28,-193.19 165.77,-194.55 174.84,-200.04 176.28,-193.19"/>
</a>
</g>
</g>
<!-- Node29&#45;&gt;Node24 -->
<g id="edge48_Node000029_Node000024" class="edge">
<title>Node29&#45;&gt;Node24</title>
<g id="a_edge48_Node000029_Node000024"><a xlink:title=" ">
<path fill="none" stroke="#63b8ff" d="M360.03,-287.33C326.75,-278.47 275.15,-264.73 238.12,-254.87"/>
<polygon fill="#63b8ff" stroke="#63b8ff" points="239.16,-251.53 228.6,-252.34 237.36,-258.29 239.16,-251.53"/>
</a>
</g>
</g>
<!-- Node29&#45;&gt;Node25 -->
<g id="edge47_Node000029_Node000025" class="edge">
<title>Node29&#45;&gt;Node25</title>
<g id="a_edge47_Node000029_Node000025"><a xlink:title=" ">
<path fill="none" stroke="#63b8ff" d="M402.72,-287.04C412.13,-278.13 426.78,-264.08 439.06,-251.5 454.16,-236.02 470.83,-217.87 482.59,-204.88"/>
<polygon fill="#63b8ff" stroke="#63b8ff" points="485.08,-207.34 489.18,-197.57 479.88,-202.66 485.08,-207.34"/>
</a>
</g>
</g>
<!-- Node29&#45;&gt;Node28 -->
<g id="edge44_Node000029_Node000028" class="edge">
<title>Node29&#45;&gt;Node28</title>
<g id="a_edge44_Node000029_Node000028"><a xlink:title=" ">
<path fill="none" stroke="#63b8ff" d="M371.85,-287.09C350.18,-277.86 316.53,-263.52 293.45,-253.69"/>
<polygon fill="#63b8ff" stroke="#63b8ff" points="295.03,-250.56 284.46,-249.86 292.29,-257 295.03,-250.56"/>
</a>
</g>
</g>
</g>
</svg>

<g id="navigator" transform="translate(0 0)" fill="#404254">
  <rect fill="#f2f5e9" fill-opacity="0.5" stroke="#606060" stroke-width=".5" x="0" y="0" width="60" height="60"/>
  <use id="zoomplus" xlink:href="#zoomPlus" x="17" y="9" onmousedown="handleZoom(evt,'in')"/>
  <use id="zoomminus" xlink:href="#zoomMin" x="42" y="9" onmousedown="handleZoom(evt,'out')"/>
  <use id="reset" xlink:href="#resetDef" x="30" y="36" onmousedown="handleReset()"/>
   <use id="arrowup" xlink:href="#arrowUp" x="0" y="0" onmousedown="handlePan(0,-1)"/>
  <use id="arrowright" xlink:href="#arrowRight" x="0" y="0" onmousedown="handlePan(1,0)"/>
  <use id="arrowdown" xlink:href="#arrowDown" x="0" y="0" onmousedown="handlePan(0,1)"/>
  <use id="arrowleft" xlink:href="#arrowLeft" x="0" y="0" onmousedown="handlePan(-1,0)"/>
</g>
<svg viewBox="0 0 15 15" width="100%" height="30px" preserveAspectRatio="xMaxYMin meet">
 <g id="arrow_out" transform="scale(0.3 0.3)">
  <a xlink:href="press__repeater_8cpp__incl_org.svg" target="_base">
   <rect id="button" ry="5" rx="5" y="6" x="6" height="38" width="38"
        fill="#f2f5e9" fill-opacity="0.5" stroke="#606060" stroke-width="1.0"/>
   <path id="arrow"
     d="M 11.500037,31.436501 C 11.940474,20.09759 22.043105,11.32322 32.158766,21.979434 L 37.068811,17.246167 C 37.068811,17.246167 37.088388,32 37.088388,32 L 22.160133,31.978069 C 22.160133,31.978069 26.997745,27.140456 26.997745,27.140456 C 18.528582,18.264221 13.291696,25.230495 11.500037,31.436501 z"
     style="fill:#404040;"/>
  </a>
 </g>
</svg>

<style type='text/css'>
<![CDATA[
[data-mouse-over-selected='false'] { opacity: 0.7; }
[data-mouse-over-selected='true']  { opacity: 1.0; }
]]>
</style>
<script type="application/ecmascript"><![CDATA[
document.addEventListener('DOMContentLoaded', (event) => {
  highlightEdges();
  highlightAdjacentNodes();
});
]]></script>
</svg>
