<?xml version="1.0" encoding="UTF-8" standalone="no"?>
<!DOCTYPE svg PUBLIC "-//W3C//DTD SVG 1.1//EN"
 "http://www.w3.org/Graphics/SVG/1.1/DTD/svg11.dtd">
<!-- Generated by graphviz version 9.0.0 (20230911.1827)
 -->
<!-- Title: src/sensesp/system/pwm_output.cpp Pages: 1 -->
<svg width="311pt" height="326pt"
 viewBox="0.00 0.00 311.38 326.00" xmlns="http://www.w3.org/2000/svg" xmlns:xlink="http://www.w3.org/1999/xlink">
<g id="graph0" class="graph" transform="scale(1 1) rotate(0) translate(4 322)">
<title>src/sensesp/system/pwm_output.cpp</title>
<!-- Node1 -->
<g id="Node000001" class="node">
<title>Node1</title>
<g id="a_Node000001"><a xlink:title=" ">
<polygon fill="#999999" stroke="#666666" points="174.38,-318 69.88,-318 69.88,-287.5 174.38,-287.5 174.38,-318"/>
<text text-anchor="start" x="77.88" y="-304.5" font-family="Helvetica,sans-Serif" font-size="10.00">src/sensesp/system</text>
<text text-anchor="middle" x="122.12" y="-293.25" font-family="Helvetica,sans-Serif" font-size="10.00">/pwm_output.cpp</text>
</a>
</g>
</g>
<!-- Node2 -->
<g id="Node000002" class="node">
<title>Node2</title>
<g id="a_Node000002"><a xlink:href="pwm__output_8h.html" target="_top" xlink:title=" ">
<polygon fill="white" stroke="#666666" points="118.88,-251.5 41.38,-251.5 41.38,-232.25 118.88,-232.25 118.88,-251.5"/>
<text text-anchor="middle" x="80.12" y="-238" font-family="Helvetica,sans-Serif" font-size="10.00">pwm_output.h</text>
</a>
</g>
</g>
<!-- Node1&#45;&gt;Node2 -->
<g id="edge1_Node000001_Node000002" class="edge">
<title>Node1&#45;&gt;Node2</title>
<g id="a_edge1_Node000001_Node000002"><a xlink:title=" ">
<path fill="none" stroke="#63b8ff" d="M111.74,-287.2C106.15,-279.35 99.19,-269.6 93.22,-261.24"/>
<polygon fill="#63b8ff" stroke="#63b8ff" points="96.14,-259.29 87.48,-253.18 90.44,-263.36 96.14,-259.29"/>
</a>
</g>
</g>
<!-- Node12 -->
<g id="Node000012" class="node">
<title>Node12</title>
<g id="a_Node000012"><a xlink:title=" ">
<polygon fill="#e0e0e0" stroke="#999999" points="193,-251.5 137.25,-251.5 137.25,-232.25 193,-232.25 193,-251.5"/>
<text text-anchor="middle" x="165.12" y="-238" font-family="Helvetica,sans-Serif" font-size="10.00">algorithm</text>
</a>
</g>
</g>
<!-- Node1&#45;&gt;Node12 -->
<g id="edge11_Node000001_Node000012" class="edge">
<title>Node1&#45;&gt;Node12</title>
<g id="a_edge11_Node000001_Node000012"><a xlink:title=" ">
<path fill="none" stroke="#63b8ff" d="M132.75,-287.2C138.48,-279.35 145.61,-269.6 151.72,-261.24"/>
<polygon fill="#63b8ff" stroke="#63b8ff" points="154.53,-263.31 157.6,-253.17 148.88,-259.18 154.53,-263.31"/>
</a>
</g>
</g>
<!-- Node3 -->
<g id="Node000003" class="node">
<title>Node3</title>
<g id="a_Node000003"><a xlink:title=" ">
<polygon fill="#e0e0e0" stroke="#999999" points="57.5,-196.25 22.75,-196.25 22.75,-177 57.5,-177 57.5,-196.25"/>
<text text-anchor="middle" x="40.12" y="-182.75" font-family="Helvetica,sans-Serif" font-size="10.00">map</text>
</a>
</g>
</g>
<!-- Node2&#45;&gt;Node3 -->
<g id="edge2_Node000002_Node000003" class="edge">
<title>Node2&#45;&gt;Node3</title>
<g id="a_edge2_Node000002_Node000003"><a xlink:title=" ">
<path fill="none" stroke="#63b8ff" d="M73.52,-232.08C68.17,-224.96 60.45,-214.68 53.78,-205.8"/>
<polygon fill="#63b8ff" stroke="#63b8ff" points="56.59,-203.71 47.78,-197.82 50.99,-207.92 56.59,-203.71"/>
</a>
</g>
</g>
<!-- Node4 -->
<g id="Node000004" class="node">
<title>Node4</title>
<g id="a_Node000004"><a xlink:href="valueconsumer_8h.html" target="_top" xlink:title=" ">
<polygon fill="white" stroke="#666666" points="164.88,-196.25 75.38,-196.25 75.38,-177 164.88,-177 164.88,-196.25"/>
<text text-anchor="middle" x="120.12" y="-182.75" font-family="Helvetica,sans-Serif" font-size="10.00">valueconsumer.h</text>
</a>
</g>
</g>
<!-- Node2&#45;&gt;Node4 -->
<g id="edge3_Node000002_Node000004" class="edge">
<title>Node2&#45;&gt;Node4</title>
<g id="a_edge3_Node000002_Node000004"><a xlink:title=" ">
<path fill="none" stroke="#63b8ff" d="M86.73,-232.08C92.08,-224.96 99.8,-214.68 106.47,-205.8"/>
<polygon fill="#63b8ff" stroke="#63b8ff" points="109.26,-207.92 112.47,-197.82 103.66,-203.71 109.26,-207.92"/>
</a>
</g>
</g>
<!-- Node5 -->
<g id="Node000005" class="node">
<title>Node5</title>
<g id="a_Node000005"><a xlink:title=" ">
<polygon fill="#e0e0e0" stroke="#999999" points="78.25,-141 0,-141 0,-121.75 78.25,-121.75 78.25,-141"/>
<text text-anchor="middle" x="39.12" y="-127.5" font-family="Helvetica,sans-Serif" font-size="10.00">ArduinoJson.h</text>
</a>
</g>
</g>
<!-- Node4&#45;&gt;Node5 -->
<g id="edge4_Node000004_Node000005" class="edge">
<title>Node4&#45;&gt;Node5</title>
<g id="a_edge4_Node000004_Node000005"><a xlink:title=" ">
<path fill="none" stroke="#63b8ff" d="M106.38,-176.59C94.4,-168.71 76.75,-157.11 62.54,-147.77"/>
<polygon fill="#63b8ff" stroke="#63b8ff" points="64.48,-144.85 54.2,-142.28 60.63,-150.7 64.48,-144.85"/>
</a>
</g>
</g>
<!-- Node6 -->
<g id="Node000006" class="node">
<title>Node6</title>
<g id="a_Node000006"><a xlink:title=" ">
<polygon fill="#e0e0e0" stroke="#999999" points="144.25,-141 96,-141 96,-121.75 144.25,-121.75 144.25,-141"/>
<text text-anchor="middle" x="120.12" y="-127.5" font-family="Helvetica,sans-Serif" font-size="10.00">stdint.h</text>
</a>
</g>
</g>
<!-- Node4&#45;&gt;Node6 -->
<g id="edge5_Node000004_Node000006" class="edge">
<title>Node4&#45;&gt;Node6</title>
<g id="a_edge5_Node000004_Node000006"><a xlink:title=" ">
<path fill="none" stroke="#63b8ff" d="M120.12,-176.83C120.12,-170.32 120.12,-161.17 120.12,-152.87"/>
<polygon fill="#63b8ff" stroke="#63b8ff" points="123.63,-152.87 120.13,-142.87 116.63,-152.87 123.63,-152.87"/>
</a>
</g>
</g>
<!-- Node7 -->
<g id="Node000007" class="node">
<title>Node7</title>
<g id="a_Node000007"><a xlink:href="sensesp_8h.html" target="_top" xlink:title=" ">
<polygon fill="white" stroke="#666666" points="223.62,-141 162.62,-141 162.62,-121.75 223.62,-121.75 223.62,-141"/>
<text text-anchor="middle" x="193.12" y="-127.5" font-family="Helvetica,sans-Serif" font-size="10.00">sensesp.h</text>
</a>
</g>
</g>
<!-- Node4&#45;&gt;Node7 -->
<g id="edge6_Node000004_Node000007" class="edge">
<title>Node4&#45;&gt;Node7</title>
<g id="a_edge6_Node000004_Node000007"><a xlink:title=" ">
<path fill="none" stroke="#63b8ff" d="M132.51,-176.59C143.27,-168.74 159.1,-157.2 171.88,-147.87"/>
<polygon fill="#63b8ff" stroke="#63b8ff" points="173.69,-150.89 179.7,-142.17 169.56,-145.23 173.69,-150.89"/>
</a>
</g>
</g>
<!-- Node8 -->
<g id="Node000008" class="node">
<title>Node8</title>
<g id="a_Node000008"><a xlink:title=" ">
<polygon fill="#e0e0e0" stroke="#999999" points="173.75,-80.12 104.5,-80.12 104.5,-60.88 173.75,-60.88 173.75,-80.12"/>
<text text-anchor="middle" x="139.12" y="-66.62" font-family="Helvetica,sans-Serif" font-size="10.00">ReactESP.h</text>
</a>
</g>
</g>
<!-- Node7&#45;&gt;Node8 -->
<g id="edge7_Node000007_Node000008" class="edge">
<title>Node7&#45;&gt;Node8</title>
<g id="a_edge7_Node000007_Node000008"><a xlink:title=" ">
<path fill="none" stroke="#63b8ff" d="M184.92,-121.43C176.99,-112.79 164.77,-99.46 154.95,-88.75"/>
<polygon fill="#63b8ff" stroke="#63b8ff" points="157.77,-86.65 148.43,-81.64 152.61,-91.38 157.77,-86.65"/>
</a>
</g>
</g>
<!-- Node9 -->
<g id="Node000009" class="node">
<title>Node9</title>
<g id="a_Node000009"><a xlink:href="local__debug_8h.html" target="_top" xlink:title=" ">
<polygon fill="white" stroke="#666666" points="302.75,-85.75 191.5,-85.75 191.5,-55.25 302.75,-55.25 302.75,-85.75"/>
<text text-anchor="start" x="199.5" y="-72.25" font-family="Helvetica,sans-Serif" font-size="10.00">sensesp/system/local</text>
<text text-anchor="middle" x="247.12" y="-61" font-family="Helvetica,sans-Serif" font-size="10.00">_debug.h</text>
</a>
</g>
</g>
<!-- Node7&#45;&gt;Node9 -->
<g id="edge8_Node000007_Node000009" class="edge">
<title>Node7&#45;&gt;Node9</title>
<g id="a_edge8_Node000007_Node000009"><a xlink:title=" ">
<path fill="none" stroke="#63b8ff" d="M201.33,-121.43C207.92,-114.24 217.49,-103.81 226.18,-94.34"/>
<polygon fill="#63b8ff" stroke="#63b8ff" points="228.59,-96.88 232.77,-87.15 223.43,-92.15 228.59,-96.88"/>
</a>
</g>
</g>
<!-- Node10 -->
<g id="Node000010" class="node">
<title>Node10</title>
<g id="a_Node000010"><a xlink:title=" ">
<polygon fill="#e0e0e0" stroke="#999999" points="240.75,-19.25 183.5,-19.25 183.5,0 240.75,0 240.75,-19.25"/>
<text text-anchor="middle" x="212.12" y="-5.75" font-family="Helvetica,sans-Serif" font-size="10.00">Arduino.h</text>
</a>
</g>
</g>
<!-- Node9&#45;&gt;Node10 -->
<g id="edge9_Node000009_Node000010" class="edge">
<title>Node9&#45;&gt;Node10</title>
<g id="a_edge9_Node000009_Node000010"><a xlink:title=" ">
<path fill="none" stroke="#63b8ff" d="M238.47,-54.95C233.91,-47.28 228.26,-37.77 223.37,-29.54"/>
<polygon fill="#63b8ff" stroke="#63b8ff" points="226.41,-27.81 218.29,-21 220.4,-31.39 226.41,-27.81"/>
</a>
</g>
</g>
<!-- Node11 -->
<g id="Node000011" class="node">
<title>Node11</title>
<g id="a_Node000011"><a xlink:title=" ">
<polygon fill="#e0e0e0" stroke="#999999" points="303.38,-19.25 258.88,-19.25 258.88,0 303.38,0 303.38,-19.25"/>
<text text-anchor="middle" x="281.12" y="-5.75" font-family="Helvetica,sans-Serif" font-size="10.00">Print.h</text>
</a>
</g>
</g>
<!-- Node9&#45;&gt;Node11 -->
<g id="edge10_Node000009_Node000011" class="edge">
<title>Node9&#45;&gt;Node11</title>
<g id="a_edge10_Node000009_Node000011"><a xlink:title=" ">
<path fill="none" stroke="#63b8ff" d="M255.53,-54.95C259.96,-47.28 265.45,-37.77 270.2,-29.54"/>
<polygon fill="#63b8ff" stroke="#63b8ff" points="273.16,-31.42 275.13,-21.01 267.09,-27.92 273.16,-31.42"/>
</a>
</g>
</g>
</g>
</svg>
