<?xml version="1.0" encoding="UTF-8" standalone="no"?>
<!DOCTYPE svg PUBLIC "-//W3C//DTD SVG 1.1//EN"
 "http://www.w3.org/Graphics/SVG/1.1/DTD/svg11.dtd">
<!-- Generated by graphviz version 2.49.3 (20211023.0002)
 -->
<!-- Title: src/sensesp/system/resettable.h Pages: 1 -->
<svg width="1672pt" height="430pt"
 viewBox="0.00 0.00 1671.50 430.00" xmlns="http://www.w3.org/2000/svg" xmlns:xlink="http://www.w3.org/1999/xlink">
<g id="graph0" class="graph" transform="scale(1 1) rotate(0) translate(4 426)">
<title>src/sensesp/system/resettable.h</title>
<polygon fill="white" stroke="transparent" points="-4,4 -4,-426 1667.5,-426 1667.5,4 -4,4"/>
<!-- Node1 -->
<g id="node1" class="node">
<title>Node1</title>
<g id="a_node1"><a xlink:title=" ">
<polygon fill="#bfbfbf" stroke="black" points="694.5,-391.5 694.5,-421.5 798.5,-421.5 798.5,-391.5 694.5,-391.5"/>
<text text-anchor="start" x="702.5" y="-409.5" font-family="Helvetica,sans-Serif" font-size="10.00">src/sensesp/system</text>
<text text-anchor="middle" x="746.5" y="-398.5" font-family="Helvetica,sans-Serif" font-size="10.00">/resettable.h</text>
</a>
</g>
</g>
<!-- Node2 -->
<g id="node2" class="node">
<title>Node2</title>
<g id="a_node2"><a xlink:href="networking_8h.html" target="_top" xlink:title=" ">
<polygon fill="white" stroke="black" points="239.5,-330 239.5,-349 385.5,-349 385.5,-330 239.5,-330"/>
<text text-anchor="middle" x="312.5" y="-337" font-family="Helvetica,sans-Serif" font-size="10.00">src/sensesp/net/networking.h</text>
</a>
</g>
</g>
<!-- Node1&#45;&gt;Node2 -->
<g id="edge1" class="edge">
<title>Node1&#45;&gt;Node2</title>
<path fill="none" stroke="midnightblue" d="M684.21,-396.17C599.97,-383.55 450.93,-361.23 369.51,-349.04"/>
<polygon fill="midnightblue" stroke="midnightblue" points="683.74,-399.64 694.15,-397.66 684.78,-392.72 683.74,-399.64"/>
</g>
<!-- Node19 -->
<g id="node19" class="node">
<title>Node19</title>
<g id="a_node19"><a xlink:href="filesystem_8h.html" target="_top" xlink:title=" ">
<polygon fill="white" stroke="black" points="1083.5,-257.5 1083.5,-287.5 1187.5,-287.5 1187.5,-257.5 1083.5,-257.5"/>
<text text-anchor="start" x="1091.5" y="-275.5" font-family="Helvetica,sans-Serif" font-size="10.00">src/sensesp/system</text>
<text text-anchor="middle" x="1135.5" y="-264.5" font-family="Helvetica,sans-Serif" font-size="10.00">/filesystem.h</text>
</a>
</g>
</g>
<!-- Node1&#45;&gt;Node19 -->
<g id="edge27" class="edge">
<title>Node1&#45;&gt;Node19</title>
<path fill="none" stroke="midnightblue" d="M745.32,-381.31C745.83,-362.88 749.79,-338.31 765.5,-324 811.04,-282.53 992.79,-274.8 1083.48,-273.57"/>
<polygon fill="midnightblue" stroke="midnightblue" points="741.82,-381.34 745.36,-391.33 748.82,-381.31 741.82,-381.34"/>
</g>
<!-- Node30 -->
<g id="node30" class="node">
<title>Node30</title>
<g id="a_node30"><a xlink:href="resettable_8cpp.html" target="_top" xlink:title=" ">
<polygon fill="white" stroke="black" points="774.5,-324.5 774.5,-354.5 878.5,-354.5 878.5,-324.5 774.5,-324.5"/>
<text text-anchor="start" x="782.5" y="-342.5" font-family="Helvetica,sans-Serif" font-size="10.00">src/sensesp/system</text>
<text text-anchor="middle" x="826.5" y="-331.5" font-family="Helvetica,sans-Serif" font-size="10.00">/resettable.cpp</text>
</a>
</g>
</g>
<!-- Node1&#45;&gt;Node30 -->
<g id="edge42" class="edge">
<title>Node1&#45;&gt;Node30</title>
<path fill="none" stroke="midnightblue" d="M771.87,-384.88C784.03,-375.01 798.28,-363.43 809.18,-354.58"/>
<polygon fill="midnightblue" stroke="midnightblue" points="769.41,-382.37 763.86,-391.4 773.83,-387.81 769.41,-382.37"/>
</g>
<!-- Node3 -->
<g id="node3" class="node">
<title>Node3</title>
<g id="a_node3"><a xlink:href="system__status__controller_8h.html" target="_top" xlink:title=" ">
<polygon fill="white" stroke="black" points="407.5,-257.5 407.5,-287.5 545.5,-287.5 545.5,-257.5 407.5,-257.5"/>
<text text-anchor="start" x="415.5" y="-275.5" font-family="Helvetica,sans-Serif" font-size="10.00">src/sensesp/controllers</text>
<text text-anchor="middle" x="476.5" y="-264.5" font-family="Helvetica,sans-Serif" font-size="10.00">/system_status_controller.h</text>
</a>
</g>
</g>
<!-- Node2&#45;&gt;Node3 -->
<g id="edge2" class="edge">
<title>Node2&#45;&gt;Node3</title>
<path fill="none" stroke="midnightblue" d="M343.89,-326.06C371.67,-315.05 412.18,-298.99 441.11,-287.53"/>
<polygon fill="midnightblue" stroke="midnightblue" points="342.28,-322.93 334.28,-329.87 344.86,-329.44 342.28,-322.93"/>
</g>
<!-- Node7 -->
<g id="node7" class="node">
<title>Node7</title>
<g id="a_node7"><a xlink:href="sensesp__app_8cpp.html" target="_top" xlink:title=" ">
<polygon fill="white" stroke="black" points="298,-62 298,-81 409,-81 409,-62 298,-62"/>
<text text-anchor="middle" x="353.5" y="-69" font-family="Helvetica,sans-Serif" font-size="10.00">src/sensesp_app.cpp</text>
</a>
</g>
</g>
<!-- Node2&#45;&gt;Node7 -->
<g id="edge25" class="edge">
<title>Node2&#45;&gt;Node7</title>
<path fill="none" stroke="midnightblue" d="M314.55,-319.72C317.71,-291.5 324.18,-236.49 331.5,-190 337.96,-149 347.75,-100.35 351.73,-81.02"/>
<polygon fill="midnightblue" stroke="midnightblue" points="311.06,-319.45 313.44,-329.77 318.02,-320.22 311.06,-319.45"/>
</g>
<!-- Node8 -->
<g id="node8" class="node">
<title>Node8</title>
<g id="a_node8"><a xlink:href="sensesp__app_8h.html" target="_top" xlink:title=" ">
<polygon fill="white" stroke="black" points="594.5,-129 594.5,-148 694.5,-148 694.5,-129 594.5,-129"/>
<text text-anchor="middle" x="644.5" y="-136" font-family="Helvetica,sans-Serif" font-size="10.00">src/sensesp_app.h</text>
</a>
</g>
</g>
<!-- Node2&#45;&gt;Node8 -->
<g id="edge26" class="edge">
<title>Node2&#45;&gt;Node8</title>
<path fill="none" stroke="midnightblue" d="M395.69,-329.98C443.66,-322.93 504.23,-310.3 554.5,-288 600.74,-267.49 623.56,-266.08 646.5,-221 658.7,-197.03 651.69,-163.75 647.26,-148.18"/>
<polygon fill="midnightblue" stroke="midnightblue" points="395.06,-326.54 385.65,-331.4 396.04,-333.47 395.06,-326.54"/>
</g>
<!-- Node11 -->
<g id="node11" class="node">
<title>Node11</title>
<g id="a_node11"><a xlink:href="networking_8cpp.html" target="_top" xlink:title=" ">
<polygon fill="white" stroke="black" points="0,-62 0,-81 157,-81 157,-62 0,-62"/>
<text text-anchor="middle" x="78.5" y="-69" font-family="Helvetica,sans-Serif" font-size="10.00">src/sensesp/net/networking.cpp</text>
</a>
</g>
</g>
<!-- Node2&#45;&gt;Node11 -->
<g id="edge19" class="edge">
<title>Node2&#45;&gt;Node11</title>
<path fill="none" stroke="midnightblue" d="M231.17,-327.49C203.9,-320.2 175.2,-308.1 154.5,-288 92.45,-227.76 80.97,-113.84 78.92,-81.35"/>
<polygon fill="midnightblue" stroke="midnightblue" points="230.58,-330.95 241.13,-329.96 232.27,-324.15 230.58,-330.95"/>
</g>
<!-- Node15 -->
<g id="node15" class="node">
<title>Node15</title>
<g id="a_node15"><a xlink:href="led__blinker_8cpp.html" target="_top" xlink:title=" ">
<polygon fill="white" stroke="black" points="175.5,-56.5 175.5,-86.5 279.5,-86.5 279.5,-56.5 175.5,-56.5"/>
<text text-anchor="start" x="183.5" y="-74.5" font-family="Helvetica,sans-Serif" font-size="10.00">src/sensesp/system</text>
<text text-anchor="middle" x="227.5" y="-63.5" font-family="Helvetica,sans-Serif" font-size="10.00">/led_blinker.cpp</text>
</a>
</g>
</g>
<!-- Node2&#45;&gt;Node15 -->
<g id="edge20" class="edge">
<title>Node2&#45;&gt;Node15</title>
<path fill="none" stroke="midnightblue" d="M230.23,-327.04C207.5,-319.67 185.32,-307.63 171.5,-288 125.77,-223.05 189.54,-123.51 216.48,-86.77"/>
<polygon fill="midnightblue" stroke="midnightblue" points="229.39,-330.44 239.98,-329.92 231.38,-323.73 229.39,-330.44"/>
</g>
<!-- Node18 -->
<g id="node18" class="node">
<title>Node18</title>
<g id="a_node18"><a xlink:href="led__blinker_8h.html" target="_top" xlink:title=" ">
<polygon fill="white" stroke="black" points="180.5,-257.5 180.5,-287.5 284.5,-287.5 284.5,-257.5 180.5,-257.5"/>
<text text-anchor="start" x="188.5" y="-275.5" font-family="Helvetica,sans-Serif" font-size="10.00">src/sensesp/system</text>
<text text-anchor="middle" x="232.5" y="-264.5" font-family="Helvetica,sans-Serif" font-size="10.00">/led_blinker.h</text>
</a>
</g>
</g>
<!-- Node2&#45;&gt;Node18 -->
<g id="edge21" class="edge">
<title>Node2&#45;&gt;Node18</title>
<path fill="none" stroke="midnightblue" d="M293.71,-323.24C280.44,-312.45 262.78,-298.1 249.84,-287.59"/>
<polygon fill="midnightblue" stroke="midnightblue" points="291.74,-326.14 301.71,-329.73 296.16,-320.71 291.74,-326.14"/>
</g>
<!-- Node4 -->
<g id="node4" class="node">
<title>Node4</title>
<g id="a_node4"><a xlink:href="system__status__controller_8cpp.html" target="_top" xlink:title=" ">
<polygon fill="white" stroke="black" points="468.5,-190.5 468.5,-220.5 616.5,-220.5 616.5,-190.5 468.5,-190.5"/>
<text text-anchor="start" x="476.5" y="-208.5" font-family="Helvetica,sans-Serif" font-size="10.00">src/sensesp/controllers</text>
<text text-anchor="middle" x="542.5" y="-197.5" font-family="Helvetica,sans-Serif" font-size="10.00">/system_status_controller.cpp</text>
</a>
</g>
</g>
<!-- Node3&#45;&gt;Node4 -->
<g id="edge3" class="edge">
<title>Node3&#45;&gt;Node4</title>
<path fill="none" stroke="midnightblue" d="M498.01,-250.31C507.91,-240.56 519.39,-229.26 528.21,-220.58"/>
<polygon fill="midnightblue" stroke="midnightblue" points="495.49,-247.89 490.82,-257.4 500.4,-252.87 495.49,-247.89"/>
</g>
<!-- Node5 -->
<g id="node5" class="node">
<title>Node5</title>
<g id="a_node5"><a xlink:href="system__status__led_8h.html" target="_top" xlink:title=" ">
<polygon fill="white" stroke="black" points="340.5,-190.5 340.5,-220.5 450.5,-220.5 450.5,-190.5 340.5,-190.5"/>
<text text-anchor="start" x="348.5" y="-208.5" font-family="Helvetica,sans-Serif" font-size="10.00">src/sensesp/system</text>
<text text-anchor="middle" x="395.5" y="-197.5" font-family="Helvetica,sans-Serif" font-size="10.00">/system_status_led.h</text>
</a>
</g>
</g>
<!-- Node3&#45;&gt;Node5 -->
<g id="edge4" class="edge">
<title>Node3&#45;&gt;Node5</title>
<path fill="none" stroke="midnightblue" d="M450.81,-250.88C438.5,-241.01 424.07,-229.43 413.04,-220.58"/>
<polygon fill="midnightblue" stroke="midnightblue" points="448.93,-253.87 458.92,-257.4 453.32,-248.41 448.93,-253.87"/>
</g>
<!-- Node3&#45;&gt;Node8 -->
<g id="edge18" class="edge">
<title>Node3&#45;&gt;Node8</title>
<path fill="none" stroke="midnightblue" d="M555.49,-260.39C581.01,-253.09 607.36,-241.01 625.5,-221 644.24,-200.34 645.56,-164.82 645.04,-148.36"/>
<polygon fill="midnightblue" stroke="midnightblue" points="554.55,-257.02 545.77,-262.96 556.33,-263.79 554.55,-257.02"/>
</g>
<!-- Node6 -->
<g id="node6" class="node">
<title>Node6</title>
<g id="a_node6"><a xlink:href="system__status__led_8cpp.html" target="_top" xlink:title=" ">
<polygon fill="white" stroke="black" points="382,-123.5 382,-153.5 503,-153.5 503,-123.5 382,-123.5"/>
<text text-anchor="start" x="390" y="-141.5" font-family="Helvetica,sans-Serif" font-size="10.00">src/sensesp/system</text>
<text text-anchor="middle" x="442.5" y="-130.5" font-family="Helvetica,sans-Serif" font-size="10.00">/system_status_led.cpp</text>
</a>
</g>
</g>
<!-- Node5&#45;&gt;Node6 -->
<g id="edge5" class="edge">
<title>Node5&#45;&gt;Node6</title>
<path fill="none" stroke="midnightblue" d="M411.66,-182.16C418.51,-172.68 426.29,-161.92 432.32,-153.58"/>
<polygon fill="midnightblue" stroke="midnightblue" points="408.72,-180.24 405.7,-190.4 414.39,-184.34 408.72,-180.24"/>
</g>
<!-- Node5&#45;&gt;Node7 -->
<g id="edge6" class="edge">
<title>Node5&#45;&gt;Node7</title>
<path fill="none" stroke="midnightblue" d="M383.65,-181.05C379.73,-172.66 375.58,-163.05 372.5,-154 363.7,-128.14 357.58,-96.31 354.95,-81.22"/>
<polygon fill="midnightblue" stroke="midnightblue" points="380.58,-182.74 388.08,-190.22 386.88,-179.7 380.58,-182.74"/>
</g>
<!-- Node5&#45;&gt;Node8 -->
<g id="edge7" class="edge">
<title>Node5&#45;&gt;Node8</title>
<path fill="none" stroke="midnightblue" d="M459.05,-187.91C507.82,-175.18 573.14,-158.13 611.83,-148.03"/>
<polygon fill="midnightblue" stroke="midnightblue" points="458.01,-184.56 449.22,-190.48 459.78,-191.34 458.01,-184.56"/>
</g>
<!-- Node8&#45;&gt;Node7 -->
<g id="edge15" class="edge">
<title>Node8&#45;&gt;Node7</title>
<path fill="none" stroke="midnightblue" d="M596.25,-126.72C538.95,-113.92 444.53,-92.83 391.93,-81.08"/>
<polygon fill="midnightblue" stroke="midnightblue" points="595.64,-130.17 606.16,-128.94 597.16,-123.34 595.64,-130.17"/>
</g>
<!-- Node9 -->
<g id="node9" class="node">
<title>Node9</title>
<g id="a_node9"><a xlink:href="debug__output_8cpp.html" target="_top" xlink:title=" ">
<polygon fill="white" stroke="black" points="842,-56.5 842,-86.5 959,-86.5 959,-56.5 842,-56.5"/>
<text text-anchor="start" x="850" y="-74.5" font-family="Helvetica,sans-Serif" font-size="10.00">src/sensesp/net/debug</text>
<text text-anchor="middle" x="900.5" y="-63.5" font-family="Helvetica,sans-Serif" font-size="10.00">_output.cpp</text>
</a>
</g>
</g>
<!-- Node8&#45;&gt;Node9 -->
<g id="edge8" class="edge">
<title>Node8&#45;&gt;Node9</title>
<path fill="none" stroke="midnightblue" d="M688.18,-126.41C731.53,-115.4 798.1,-98.5 845.13,-86.56"/>
<polygon fill="midnightblue" stroke="midnightblue" points="687.06,-123.08 678.23,-128.94 688.78,-129.87 687.06,-123.08"/>
</g>
<!-- Node10 -->
<g id="node10" class="node">
<title>Node10</title>
<g id="a_node10"><a xlink:href="discovery_8cpp.html" target="_top" xlink:title=" ">
<polygon fill="white" stroke="black" points="977.5,-62 977.5,-81 1127.5,-81 1127.5,-62 977.5,-62"/>
<text text-anchor="middle" x="1052.5" y="-69" font-family="Helvetica,sans-Serif" font-size="10.00">src/sensesp/net/discovery.cpp</text>
</a>
</g>
</g>
<!-- Node8&#45;&gt;Node10 -->
<g id="edge9" class="edge">
<title>Node8&#45;&gt;Node10</title>
<path fill="none" stroke="midnightblue" d="M704.86,-128.39C769.96,-118.5 876.65,-102.08 968.5,-87 979.89,-85.13 992.14,-83.05 1003.66,-81.07"/>
<polygon fill="midnightblue" stroke="midnightblue" points="704.13,-124.96 694.77,-129.92 705.18,-131.88 704.13,-124.96"/>
</g>
<!-- Node8&#45;&gt;Node11 -->
<g id="edge10" class="edge">
<title>Node8&#45;&gt;Node11</title>
<path fill="none" stroke="midnightblue" d="M584.1,-130.86C561.34,-128.37 535.23,-125.53 511.5,-123 358.2,-106.65 319.29,-107.54 166.5,-87 153.76,-85.29 140.03,-83.16 127.3,-81.07"/>
<polygon fill="midnightblue" stroke="midnightblue" points="583.98,-134.36 594.3,-131.97 584.74,-127.4 583.98,-134.36"/>
</g>
<!-- Node12 -->
<g id="node12" class="node">
<title>Node12</title>
<g id="a_node12"><a xlink:href="ws__client_8cpp.html" target="_top" xlink:title=" ">
<polygon fill="white" stroke="black" points="427.5,-56.5 427.5,-86.5 529.5,-86.5 529.5,-56.5 427.5,-56.5"/>
<text text-anchor="start" x="435.5" y="-74.5" font-family="Helvetica,sans-Serif" font-size="10.00">src/sensesp/net/ws</text>
<text text-anchor="middle" x="478.5" y="-63.5" font-family="Helvetica,sans-Serif" font-size="10.00">_client.cpp</text>
</a>
</g>
</g>
<!-- Node8&#45;&gt;Node12 -->
<g id="edge11" class="edge">
<title>Node8&#45;&gt;Node12</title>
<path fill="none" stroke="midnightblue" d="M613.09,-125.2C584.96,-114.19 543.73,-98.04 514.33,-86.53"/>
<polygon fill="midnightblue" stroke="midnightblue" points="611.87,-128.48 622.46,-128.87 614.42,-121.96 611.87,-128.48"/>
</g>
<!-- Node13 -->
<g id="node13" class="node">
<title>Node13</title>
<g id="a_node13"><a xlink:href="signalk__delta__queue_8cpp.html" target="_top" xlink:title=" ">
<polygon fill="white" stroke="black" points="547.5,-56.5 547.5,-86.5 677.5,-86.5 677.5,-56.5 547.5,-56.5"/>
<text text-anchor="start" x="555.5" y="-74.5" font-family="Helvetica,sans-Serif" font-size="10.00">src/sensesp/signalk</text>
<text text-anchor="middle" x="612.5" y="-63.5" font-family="Helvetica,sans-Serif" font-size="10.00">/signalk_delta_queue.cpp</text>
</a>
</g>
</g>
<!-- Node8&#45;&gt;Node13 -->
<g id="edge12" class="edge">
<title>Node8&#45;&gt;Node13</title>
<path fill="none" stroke="midnightblue" d="M635.74,-119.71C630.61,-109.29 624.22,-96.3 619.44,-86.59"/>
<polygon fill="midnightblue" stroke="midnightblue" points="632.63,-121.31 640.18,-128.73 638.91,-118.22 632.63,-121.31"/>
</g>
<!-- Node14 -->
<g id="node14" class="node">
<title>Node14</title>
<g id="a_node14"><a xlink:href="signalk__put__request_8cpp.html" target="_top" xlink:title=" ">
<polygon fill="white" stroke="black" points="695.5,-56.5 695.5,-86.5 823.5,-86.5 823.5,-56.5 695.5,-56.5"/>
<text text-anchor="start" x="703.5" y="-74.5" font-family="Helvetica,sans-Serif" font-size="10.00">src/sensesp/signalk</text>
<text text-anchor="middle" x="759.5" y="-63.5" font-family="Helvetica,sans-Serif" font-size="10.00">/signalk_put_request.cpp</text>
</a>
</g>
</g>
<!-- Node8&#45;&gt;Node14 -->
<g id="edge13" class="edge">
<title>Node8&#45;&gt;Node14</title>
<path fill="none" stroke="midnightblue" d="M668.82,-123.75C688.15,-112.83 715.09,-97.6 734.57,-86.59"/>
<polygon fill="midnightblue" stroke="midnightblue" points="666.99,-120.77 660.01,-128.73 670.44,-126.86 666.99,-120.77"/>
</g>
<!-- Node8&#45;&gt;Node15 -->
<g id="edge14" class="edge">
<title>Node8&#45;&gt;Node15</title>
<path fill="none" stroke="midnightblue" d="M584.34,-130.69C513.33,-122.25 391.83,-106.57 288.5,-87 285.61,-86.45 282.66,-85.86 279.68,-85.24"/>
<polygon fill="midnightblue" stroke="midnightblue" points="584.1,-134.18 594.44,-131.88 584.92,-127.23 584.1,-134.18"/>
</g>
<!-- Node16 -->
<g id="node16" class="node">
<title>Node16</title>
<g id="a_node16"><a xlink:href="sensesp__app__builder_8h.html" target="_top" xlink:title=" ">
<polygon fill="white" stroke="black" points="1146,-62 1146,-81 1281,-81 1281,-62 1146,-62"/>
<text text-anchor="middle" x="1213.5" y="-69" font-family="Helvetica,sans-Serif" font-size="10.00">src/sensesp_app_builder.h</text>
</a>
</g>
</g>
<!-- Node8&#45;&gt;Node16 -->
<g id="edge16" class="edge">
<title>Node8&#45;&gt;Node16</title>
<path fill="none" stroke="midnightblue" d="M704.67,-132.96C797.59,-125.58 981.5,-109.51 1136.5,-87 1147.94,-85.34 1160.28,-83.18 1171.65,-81.04"/>
<polygon fill="midnightblue" stroke="midnightblue" points="704.3,-129.48 694.61,-133.75 704.85,-136.46 704.3,-129.48"/>
</g>
<!-- Node17 -->
<g id="node17" class="node">
<title>Node17</title>
<g id="a_node17"><a xlink:href="main_8cpp.html" target="_top" xlink:title=" ">
<polygon fill="white" stroke="black" points="1177,-0.5 1177,-19.5 1250,-19.5 1250,-0.5 1177,-0.5"/>
<text text-anchor="middle" x="1213.5" y="-7.5" font-family="Helvetica,sans-Serif" font-size="10.00">src/main.cpp</text>
</a>
</g>
</g>
<!-- Node16&#45;&gt;Node17 -->
<g id="edge17" class="edge">
<title>Node16&#45;&gt;Node17</title>
<path fill="none" stroke="midnightblue" d="M1213.5,-51.82C1213.5,-41 1213.5,-27.9 1213.5,-19.51"/>
<polygon fill="midnightblue" stroke="midnightblue" points="1210,-51.98 1213.5,-61.98 1217,-51.98 1210,-51.98"/>
</g>
<!-- Node18&#45;&gt;Node5 -->
<g id="edge24" class="edge">
<title>Node18&#45;&gt;Node5</title>
<path fill="none" stroke="midnightblue" d="M277.18,-253.68C303.33,-243.26 335.87,-230.28 360.2,-220.58"/>
<polygon fill="midnightblue" stroke="midnightblue" points="275.86,-250.44 267.87,-257.4 278.45,-256.94 275.86,-250.44"/>
</g>
<!-- Node18&#45;&gt;Node11 -->
<g id="edge22" class="edge">
<title>Node18&#45;&gt;Node11</title>
<path fill="none" stroke="midnightblue" d="M215.23,-249.18C181.48,-205.58 108.09,-110.74 85.36,-81.36"/>
<polygon fill="midnightblue" stroke="midnightblue" points="212.54,-251.42 221.42,-257.19 218.07,-247.14 212.54,-251.42"/>
</g>
<!-- Node18&#45;&gt;Node15 -->
<g id="edge23" class="edge">
<title>Node18&#45;&gt;Node15</title>
<path fill="none" stroke="midnightblue" d="M231.88,-247C230.83,-204.93 228.7,-120.26 227.86,-86.68"/>
<polygon fill="midnightblue" stroke="midnightblue" points="228.39,-247.28 232.14,-257.19 235.39,-247.1 228.39,-247.28"/>
</g>
<!-- Node20 -->
<g id="node20" class="node">
<title>Node20</title>
<g id="a_node20"><a xlink:href="filesystem_8cpp.html" target="_top" xlink:title=" ">
<polygon fill="white" stroke="black" points="1217.5,-190.5 1217.5,-220.5 1321.5,-220.5 1321.5,-190.5 1217.5,-190.5"/>
<text text-anchor="start" x="1225.5" y="-208.5" font-family="Helvetica,sans-Serif" font-size="10.00">src/sensesp/system</text>
<text text-anchor="middle" x="1269.5" y="-197.5" font-family="Helvetica,sans-Serif" font-size="10.00">/filesystem.cpp</text>
</a>
</g>
</g>
<!-- Node19&#45;&gt;Node20 -->
<g id="edge28" class="edge">
<title>Node19&#45;&gt;Node20</title>
<path fill="none" stroke="midnightblue" d="M1173.65,-252.99C1194.89,-242.69 1220.91,-230.07 1240.48,-220.58"/>
<polygon fill="midnightblue" stroke="midnightblue" points="1172.05,-249.88 1164.58,-257.4 1175.1,-256.18 1172.05,-249.88"/>
</g>
<!-- Node21 -->
<g id="node21" class="node">
<title>Node21</title>
<g id="a_node21"><a xlink:href="sensesp__base__app_8h.html" target="_top" xlink:title=" ">
<polygon fill="white" stroke="black" points="1071.5,-196 1071.5,-215 1199.5,-215 1199.5,-196 1071.5,-196"/>
<text text-anchor="middle" x="1135.5" y="-203" font-family="Helvetica,sans-Serif" font-size="10.00">src/sensesp_base_app.h</text>
</a>
</g>
</g>
<!-- Node19&#45;&gt;Node21 -->
<g id="edge29" class="edge">
<title>Node19&#45;&gt;Node21</title>
<path fill="none" stroke="midnightblue" d="M1135.5,-247.25C1135.5,-236.02 1135.5,-223.38 1135.5,-215.19"/>
<polygon fill="midnightblue" stroke="midnightblue" points="1132,-247.4 1135.5,-257.4 1139,-247.4 1132,-247.4"/>
</g>
<!-- Node21&#45;&gt;Node8 -->
<g id="edge34" class="edge">
<title>Node21&#45;&gt;Node8</title>
<path fill="none" stroke="midnightblue" d="M1061.16,-194.66C959.9,-181.25 781.31,-157.61 694.57,-146.13"/>
<polygon fill="midnightblue" stroke="midnightblue" points="1060.94,-198.16 1071.31,-196 1061.86,-191.22 1060.94,-198.16"/>
</g>
<!-- Node22 -->
<g id="node22" class="node">
<title>Node22</title>
<g id="a_node22"><a xlink:href="http__server_8cpp.html" target="_top" xlink:title=" ">
<polygon fill="white" stroke="black" points="1082.5,-123.5 1082.5,-153.5 1188.5,-153.5 1188.5,-123.5 1082.5,-123.5"/>
<text text-anchor="start" x="1090.5" y="-141.5" font-family="Helvetica,sans-Serif" font-size="10.00">src/sensesp/net/http</text>
<text text-anchor="middle" x="1135.5" y="-130.5" font-family="Helvetica,sans-Serif" font-size="10.00">_server.cpp</text>
</a>
</g>
</g>
<!-- Node21&#45;&gt;Node22 -->
<g id="edge30" class="edge">
<title>Node21&#45;&gt;Node22</title>
<path fill="none" stroke="midnightblue" d="M1135.5,-185.41C1135.5,-175.22 1135.5,-162.9 1135.5,-153.59"/>
<polygon fill="midnightblue" stroke="midnightblue" points="1132,-185.73 1135.5,-195.73 1139,-185.73 1132,-185.73"/>
</g>
<!-- Node23 -->
<g id="node23" class="node">
<title>Node23</title>
<g id="a_node23"><a xlink:href="system__info_8h.html" target="_top" xlink:title=" ">
<polygon fill="white" stroke="black" points="956.5,-123.5 956.5,-153.5 1064.5,-153.5 1064.5,-123.5 956.5,-123.5"/>
<text text-anchor="start" x="964.5" y="-141.5" font-family="Helvetica,sans-Serif" font-size="10.00">src/sensesp/sensors</text>
<text text-anchor="middle" x="1010.5" y="-130.5" font-family="Helvetica,sans-Serif" font-size="10.00">/system_info.h</text>
</a>
</g>
</g>
<!-- Node21&#45;&gt;Node23 -->
<g id="edge31" class="edge">
<title>Node21&#45;&gt;Node23</title>
<path fill="none" stroke="midnightblue" d="M1109.91,-191.19C1088.89,-180.26 1059.17,-164.81 1037.71,-153.65"/>
<polygon fill="midnightblue" stroke="midnightblue" points="1108.41,-194.36 1118.9,-195.87 1111.64,-188.15 1108.41,-194.36"/>
</g>
<!-- Node25 -->
<g id="node25" class="node">
<title>Node25</title>
<g id="a_node25"><a xlink:href="sensesp__base__app_8cpp.html" target="_top" xlink:title=" ">
<polygon fill="white" stroke="black" points="1344.5,-129 1344.5,-148 1482.5,-148 1482.5,-129 1344.5,-129"/>
<text text-anchor="middle" x="1413.5" y="-136" font-family="Helvetica,sans-Serif" font-size="10.00">src/sensesp_base_app.cpp</text>
</a>
</g>
</g>
<!-- Node21&#45;&gt;Node25 -->
<g id="edge35" class="edge">
<title>Node21&#45;&gt;Node25</title>
<path fill="none" stroke="midnightblue" d="M1181.93,-193.64C1236.7,-180.84 1326.64,-159.81 1376.79,-148.08"/>
<polygon fill="midnightblue" stroke="midnightblue" points="1181.07,-190.25 1172.13,-195.94 1182.66,-197.07 1181.07,-190.25"/>
</g>
<!-- Node26 -->
<g id="node26" class="node">
<title>Node26</title>
<g id="a_node26"><a xlink:href="sensesp__base__app__builder_8h.html" target="_top" xlink:title=" ">
<polygon fill="white" stroke="black" points="1207,-123.5 1207,-153.5 1326,-153.5 1326,-123.5 1207,-123.5"/>
<text text-anchor="start" x="1215" y="-141.5" font-family="Helvetica,sans-Serif" font-size="10.00">src/sensesp_base_app</text>
<text text-anchor="middle" x="1266.5" y="-130.5" font-family="Helvetica,sans-Serif" font-size="10.00">_builder.h</text>
</a>
</g>
</g>
<!-- Node21&#45;&gt;Node26 -->
<g id="edge36" class="edge">
<title>Node21&#45;&gt;Node26</title>
<path fill="none" stroke="midnightblue" d="M1162.02,-191.34C1184.07,-180.4 1215.39,-164.86 1237.98,-153.65"/>
<polygon fill="midnightblue" stroke="midnightblue" points="1160.3,-188.29 1152.9,-195.87 1163.41,-194.56 1160.3,-188.29"/>
</g>
<!-- Node28 -->
<g id="node28" class="node">
<title>Node28</title>
<g id="a_node28"><a xlink:href="sensesp__minimal__app_8h.html" target="_top" xlink:title=" ">
<polygon fill="white" stroke="black" points="1500.5,-123.5 1500.5,-153.5 1610.5,-153.5 1610.5,-123.5 1500.5,-123.5"/>
<text text-anchor="start" x="1508.5" y="-141.5" font-family="Helvetica,sans-Serif" font-size="10.00">src/sensesp_minimal</text>
<text text-anchor="middle" x="1555.5" y="-130.5" font-family="Helvetica,sans-Serif" font-size="10.00">_app.h</text>
</a>
</g>
</g>
<!-- Node21&#45;&gt;Node28 -->
<g id="edge39" class="edge">
<title>Node21&#45;&gt;Node28</title>
<path fill="none" stroke="midnightblue" d="M1185.8,-194.03C1193.39,-192.59 1201.14,-191.2 1208.5,-190 1333.65,-169.64 1366.64,-176.03 1491.5,-154 1494.42,-153.49 1497.4,-152.93 1500.41,-152.34"/>
<polygon fill="midnightblue" stroke="midnightblue" points="1185.1,-190.6 1175.95,-195.94 1186.44,-197.47 1185.1,-190.6"/>
</g>
<!-- Node23&#45;&gt;Node16 -->
<g id="edge33" class="edge">
<title>Node23&#45;&gt;Node16</title>
<path fill="none" stroke="midnightblue" d="M1064.31,-120.27C1103.87,-107.6 1155.93,-90.93 1186.93,-81.01"/>
<polygon fill="midnightblue" stroke="midnightblue" points="1063,-117.01 1054.55,-123.4 1065.14,-123.68 1063,-117.01"/>
</g>
<!-- Node24 -->
<g id="node24" class="node">
<title>Node24</title>
<g id="a_node24"><a xlink:href="system__info_8cpp.html" target="_top" xlink:title=" ">
<polygon fill="white" stroke="black" points="1299.5,-56.5 1299.5,-86.5 1407.5,-86.5 1407.5,-56.5 1299.5,-56.5"/>
<text text-anchor="start" x="1307.5" y="-74.5" font-family="Helvetica,sans-Serif" font-size="10.00">src/sensesp/sensors</text>
<text text-anchor="middle" x="1353.5" y="-63.5" font-family="Helvetica,sans-Serif" font-size="10.00">/system_info.cpp</text>
</a>
</g>
</g>
<!-- Node23&#45;&gt;Node24 -->
<g id="edge32" class="edge">
<title>Node23&#45;&gt;Node24</title>
<path fill="none" stroke="midnightblue" d="M1074.63,-122.85C1171.1,-104.13 1197.69,-105.36 1290.5,-87 1293.36,-86.43 1296.29,-85.83 1299.25,-85.21"/>
<polygon fill="midnightblue" stroke="midnightblue" points="1073.89,-119.43 1064.75,-124.79 1075.24,-126.3 1073.89,-119.43"/>
</g>
<!-- Node26&#45;&gt;Node16 -->
<g id="edge37" class="edge">
<title>Node26&#45;&gt;Node16</title>
<path fill="none" stroke="midnightblue" d="M1248.41,-115.32C1238.86,-103.6 1227.67,-89.88 1220.59,-81.19"/>
<polygon fill="midnightblue" stroke="midnightblue" points="1245.97,-117.86 1255,-123.4 1251.39,-113.43 1245.97,-117.86"/>
</g>
<!-- Node27 -->
<g id="node27" class="node">
<title>Node27</title>
<g id="a_node27"><a xlink:href="sensesp__minimal__app__builder_8h.html" target="_top" xlink:title=" ">
<polygon fill="white" stroke="black" points="1425.5,-56.5 1425.5,-86.5 1535.5,-86.5 1535.5,-56.5 1425.5,-56.5"/>
<text text-anchor="start" x="1433.5" y="-74.5" font-family="Helvetica,sans-Serif" font-size="10.00">src/sensesp_minimal</text>
<text text-anchor="middle" x="1480.5" y="-63.5" font-family="Helvetica,sans-Serif" font-size="10.00">_app_builder.h</text>
</a>
</g>
</g>
<!-- Node26&#45;&gt;Node27 -->
<g id="edge38" class="edge">
<title>Node26&#45;&gt;Node27</title>
<path fill="none" stroke="midnightblue" d="M1322.65,-120.44C1357.34,-109.91 1401.32,-96.55 1434.04,-86.61"/>
<polygon fill="midnightblue" stroke="midnightblue" points="1321.22,-117.22 1312.67,-123.48 1323.26,-123.92 1321.22,-117.22"/>
</g>
<!-- Node28&#45;&gt;Node27 -->
<g id="edge41" class="edge">
<title>Node28&#45;&gt;Node27</title>
<path fill="none" stroke="midnightblue" d="M1531.38,-116.6C1520.06,-106.78 1506.86,-95.34 1496.74,-86.58"/>
<polygon fill="midnightblue" stroke="midnightblue" points="1529.38,-119.49 1539.23,-123.4 1533.96,-114.2 1529.38,-119.49"/>
</g>
<!-- Node29 -->
<g id="node29" class="node">
<title>Node29</title>
<g id="a_node29"><a xlink:href="sensesp__minimal__app_8cpp.html" target="_top" xlink:title=" ">
<polygon fill="white" stroke="black" points="1553.5,-56.5 1553.5,-86.5 1663.5,-86.5 1663.5,-56.5 1553.5,-56.5"/>
<text text-anchor="start" x="1561.5" y="-74.5" font-family="Helvetica,sans-Serif" font-size="10.00">src/sensesp_minimal</text>
<text text-anchor="middle" x="1608.5" y="-63.5" font-family="Helvetica,sans-Serif" font-size="10.00">_app.cpp</text>
</a>
</g>
</g>
<!-- Node28&#45;&gt;Node29 -->
<g id="edge40" class="edge">
<title>Node28&#45;&gt;Node29</title>
<path fill="none" stroke="midnightblue" d="M1573.48,-115.45C1581.27,-105.9 1590.15,-95 1597.02,-86.58"/>
<polygon fill="midnightblue" stroke="midnightblue" points="1570.61,-113.43 1567,-123.4 1576.03,-117.86 1570.61,-113.43"/>
</g>
</g>
</svg>
