<?xml version="1.0" encoding="UTF-8" standalone="no"?>
<!DOCTYPE svg PUBLIC "-//W3C//DTD SVG 1.1//EN"
 "http://www.w3.org/Graphics/SVG/1.1/DTD/svg11.dtd">
<!-- Generated by graphviz version 12.2.1 (20241206.2353)
 -->
<!-- Title: src/sensesp/system/resettable.cpp Pages: 1 -->
<svg width="336pt" height="216pt"
 viewBox="0.00 0.00 335.75 215.50" xmlns="http://www.w3.org/2000/svg" xmlns:xlink="http://www.w3.org/1999/xlink">
<g id="graph0" class="graph" transform="scale(1 1) rotate(0) translate(4 211.5)">
<title>src/sensesp/system/resettable.cpp</title>
<!-- Node1 -->
<g id="Node000001" class="node">
<title>Node1</title>
<g id="a_Node000001"><a xlink:title=" ">
<polygon fill="#999999" stroke="#666666" points="254.88,-207.5 150.38,-207.5 150.38,-177 254.88,-177 254.88,-207.5"/>
<text text-anchor="start" x="158.38" y="-194" font-family="Helvetica,sans-Serif" font-size="10.00">src/sensesp/system</text>
<text text-anchor="middle" x="202.62" y="-182.75" font-family="Helvetica,sans-Serif" font-size="10.00">/resettable.cpp</text>
</a>
</g>
</g>
<!-- Node2 -->
<g id="Node000002" class="node">
<title>Node2</title>
<g id="a_Node000002"><a xlink:href="sensesp_8h.html" target="_top" xlink:title=" ">
<polygon fill="white" stroke="#666666" points="192.12,-141 131.12,-141 131.12,-121.75 192.12,-121.75 192.12,-141"/>
<text text-anchor="middle" x="161.62" y="-127.5" font-family="Helvetica,sans-Serif" font-size="10.00">sensesp.h</text>
</a>
</g>
</g>
<!-- Node1&#45;&gt;Node2 -->
<g id="edge1_Node000001_Node000002" class="edge">
<title>Node1&#45;&gt;Node2</title>
<g id="a_edge1_Node000001_Node000002"><a xlink:title=" ">
<path fill="none" stroke="#63b8ff" d="M192.49,-176.7C187.03,-168.85 180.23,-159.1 174.41,-150.74"/>
<polygon fill="#63b8ff" stroke="#63b8ff" points="177.4,-148.9 168.81,-142.69 171.65,-152.9 177.4,-148.9"/>
</a>
</g>
</g>
<!-- Node9 -->
<g id="Node000009" class="node">
<title>Node9</title>
<g id="a_Node000009"><a xlink:href="resettable_8h.html" target="_top" xlink:title=" ">
<polygon fill="white" stroke="#666666" points="308.12,-141 241.12,-141 241.12,-121.75 308.12,-121.75 308.12,-141"/>
<text text-anchor="middle" x="274.62" y="-127.5" font-family="Helvetica,sans-Serif" font-size="10.00">resettable.h</text>
</a>
</g>
</g>
<!-- Node1&#45;&gt;Node9 -->
<g id="edge8_Node000001_Node000009" class="edge">
<title>Node1&#45;&gt;Node9</title>
<g id="a_edge8_Node000001_Node000009"><a xlink:title=" ">
<path fill="none" stroke="#63b8ff" d="M220.42,-176.7C230.86,-168.16 244.06,-157.37 254.83,-148.56"/>
<polygon fill="#63b8ff" stroke="#63b8ff" points="256.83,-151.45 262.35,-142.41 252.4,-146.03 256.83,-151.45"/>
</a>
</g>
</g>
<!-- Node3 -->
<g id="Node000003" class="node">
<title>Node3</title>
<g id="a_Node000003"><a xlink:title=" ">
<polygon fill="#e0e0e0" stroke="#999999" points="69.25,-80.12 0,-80.12 0,-60.88 69.25,-60.88 69.25,-80.12"/>
<text text-anchor="middle" x="34.62" y="-66.62" font-family="Helvetica,sans-Serif" font-size="10.00">ReactESP.h</text>
</a>
</g>
</g>
<!-- Node2&#45;&gt;Node3 -->
<g id="edge2_Node000002_Node000003" class="edge">
<title>Node2&#45;&gt;Node3</title>
<g id="a_edge2_Node000002_Node000003"><a xlink:title=" ">
<path fill="none" stroke="#63b8ff" d="M142.06,-121.3C121.3,-111.68 88.26,-96.37 64.3,-85.26"/>
<polygon fill="#63b8ff" stroke="#63b8ff" points="65.92,-82.15 55.38,-81.12 62.98,-88.5 65.92,-82.15"/>
</a>
</g>
</g>
<!-- Node4 -->
<g id="Node000004" class="node">
<title>Node4</title>
<g id="a_Node000004"><a xlink:title=" ">
<polygon fill="#e0e0e0" stroke="#999999" points="138.25,-80.12 87,-80.12 87,-60.88 138.25,-60.88 138.25,-80.12"/>
<text text-anchor="middle" x="112.62" y="-66.62" font-family="Helvetica,sans-Serif" font-size="10.00">memory</text>
</a>
</g>
</g>
<!-- Node2&#45;&gt;Node4 -->
<g id="edge3_Node000002_Node000004" class="edge">
<title>Node2&#45;&gt;Node4</title>
<g id="a_edge3_Node000002_Node000004"><a xlink:title=" ">
<path fill="none" stroke="#63b8ff" d="M154.18,-121.43C147.06,-112.87 136.12,-99.73 127.25,-89.07"/>
<polygon fill="#63b8ff" stroke="#63b8ff" points="130.19,-87.14 121.11,-81.69 124.81,-91.61 130.19,-87.14"/>
</a>
</g>
</g>
<!-- Node5 -->
<g id="Node000005" class="node">
<title>Node5</title>
<g id="a_Node000005"><a xlink:href="local__debug_8h.html" target="_top" xlink:title=" ">
<polygon fill="white" stroke="#666666" points="267.25,-85.75 156,-85.75 156,-55.25 267.25,-55.25 267.25,-85.75"/>
<text text-anchor="start" x="164" y="-72.25" font-family="Helvetica,sans-Serif" font-size="10.00">sensesp/system/local</text>
<text text-anchor="middle" x="211.62" y="-61" font-family="Helvetica,sans-Serif" font-size="10.00">_debug.h</text>
</a>
</g>
</g>
<!-- Node2&#45;&gt;Node5 -->
<g id="edge4_Node000002_Node000005" class="edge">
<title>Node2&#45;&gt;Node5</title>
<g id="a_edge4_Node000002_Node000005"><a xlink:title=" ">
<path fill="none" stroke="#63b8ff" d="M169.22,-121.43C175.26,-114.31 184,-104.02 191.98,-94.63"/>
<polygon fill="#63b8ff" stroke="#63b8ff" points="194.5,-97.07 198.3,-87.19 189.16,-92.54 194.5,-97.07"/>
</a>
</g>
</g>
<!-- Node6 -->
<g id="Node000006" class="node">
<title>Node6</title>
<g id="a_Node000006"><a xlink:title=" ">
<polygon fill="#e0e0e0" stroke="#999999" points="164.62,-19.25 82.62,-19.25 82.62,0 164.62,0 164.62,-19.25"/>
<text text-anchor="middle" x="123.62" y="-5.75" font-family="Helvetica,sans-Serif" font-size="10.00">esp32&#45;hal&#45;log.h</text>
</a>
</g>
</g>
<!-- Node5&#45;&gt;Node6 -->
<g id="edge5_Node000005_Node000006" class="edge">
<title>Node5&#45;&gt;Node6</title>
<g id="a_edge5_Node000005_Node000006"><a xlink:title=" ">
<path fill="none" stroke="#63b8ff" d="M189.87,-54.95C176.73,-46.15 160,-34.96 146.64,-26.02"/>
<polygon fill="#63b8ff" stroke="#63b8ff" points="148.71,-23.19 138.45,-20.54 144.81,-29.01 148.71,-23.19"/>
</a>
</g>
</g>
<!-- Node7 -->
<g id="Node000007" class="node">
<title>Node7</title>
<g id="a_Node000007"><a xlink:title=" ">
<polygon fill="#e0e0e0" stroke="#999999" points="240.25,-19.25 183,-19.25 183,0 240.25,0 240.25,-19.25"/>
<text text-anchor="middle" x="211.62" y="-5.75" font-family="Helvetica,sans-Serif" font-size="10.00">Arduino.h</text>
</a>
</g>
</g>
<!-- Node5&#45;&gt;Node7 -->
<g id="edge6_Node000005_Node000007" class="edge">
<title>Node5&#45;&gt;Node7</title>
<g id="a_edge6_Node000005_Node000007"><a xlink:title=" ">
<path fill="none" stroke="#63b8ff" d="M211.62,-54.95C211.62,-47.71 211.62,-38.84 211.62,-30.94"/>
<polygon fill="#63b8ff" stroke="#63b8ff" points="215.13,-31.21 211.63,-21.21 208.13,-31.21 215.13,-31.21"/>
</a>
</g>
</g>
<!-- Node8 -->
<g id="Node000008" class="node">
<title>Node8</title>
<g id="a_Node000008"><a xlink:title=" ">
<polygon fill="#e0e0e0" stroke="#999999" points="302.88,-19.25 258.38,-19.25 258.38,0 302.88,0 302.88,-19.25"/>
<text text-anchor="middle" x="280.62" y="-5.75" font-family="Helvetica,sans-Serif" font-size="10.00">Print.h</text>
</a>
</g>
</g>
<!-- Node5&#45;&gt;Node8 -->
<g id="edge7_Node000005_Node000008" class="edge">
<title>Node5&#45;&gt;Node8</title>
<g id="a_edge7_Node000005_Node000008"><a xlink:title=" ">
<path fill="none" stroke="#63b8ff" d="M228.68,-54.95C238.58,-46.5 251.08,-35.83 261.34,-27.08"/>
<polygon fill="#63b8ff" stroke="#63b8ff" points="263.5,-29.84 268.84,-20.68 258.96,-24.51 263.5,-29.84"/>
</a>
</g>
</g>
<!-- Node10 -->
<g id="Node000010" class="node">
<title>Node10</title>
<g id="a_Node000010"><a xlink:title=" ">
<polygon fill="#e0e0e0" stroke="#999999" points="327.75,-80.12 285.5,-80.12 285.5,-60.88 327.75,-60.88 327.75,-80.12"/>
<text text-anchor="middle" x="306.62" y="-66.62" font-family="Helvetica,sans-Serif" font-size="10.00">queue</text>
</a>
</g>
</g>
<!-- Node9&#45;&gt;Node10 -->
<g id="edge9_Node000009_Node000010" class="edge">
<title>Node9&#45;&gt;Node10</title>
<g id="a_edge9_Node000009_Node000010"><a xlink:title=" ">
<path fill="none" stroke="#63b8ff" d="M279.49,-121.43C283.95,-113.22 290.71,-100.78 296.37,-90.37"/>
<polygon fill="#63b8ff" stroke="#63b8ff" points="299.3,-92.31 301,-81.86 293.15,-88.97 299.3,-92.31"/>
</a>
</g>
</g>
</g>
</svg>
