<?xml version="1.0" encoding="UTF-8" standalone="no"?>
<!DOCTYPE svg PUBLIC "-//W3C//DTD SVG 1.1//EN"
 "http://www.w3.org/Graphics/SVG/1.1/DTD/svg11.dtd">
<!-- Generated by graphviz version 2.49.3 (20211023.0002)
 -->
<!-- Title: src/sensesp/system/rgb_led.h Pages: 1 -->
<svg width="353pt" height="274pt"
 viewBox="0.00 0.00 353.00 274.00" xmlns="http://www.w3.org/2000/svg" xmlns:xlink="http://www.w3.org/1999/xlink">
<g id="graph0" class="graph" transform="scale(1 1) rotate(0) translate(4 270)">
<title>src/sensesp/system/rgb_led.h</title>
<polygon fill="white" stroke="transparent" points="-4,4 -4,-270 349,-270 349,4 -4,4"/>
<!-- Node1 -->
<g id="node1" class="node">
<title>Node1</title>
<g id="a_node1"><a xlink:title=" ">
<polygon fill="#bfbfbf" stroke="black" points="87,-235.5 87,-265.5 191,-265.5 191,-235.5 87,-235.5"/>
<text text-anchor="start" x="95" y="-253.5" font-family="Helvetica,sans-Serif" font-size="10.00">src/sensesp/system</text>
<text text-anchor="middle" x="139" y="-242.5" font-family="Helvetica,sans-Serif" font-size="10.00">/rgb_led.h</text>
</a>
</g>
</g>
<!-- Node2 -->
<g id="node2" class="node">
<title>Node2</title>
<g id="a_node2"><a xlink:href="configurable_8h.html" target="_top" xlink:title=" ">
<polygon fill="white" stroke="black" points="47.5,-179.5 47.5,-198.5 126.5,-198.5 126.5,-179.5 47.5,-179.5"/>
<text text-anchor="middle" x="87" y="-186.5" font-family="Helvetica,sans-Serif" font-size="10.00">configurable.h</text>
</a>
</g>
</g>
<!-- Node1&#45;&gt;Node2 -->
<g id="edge1" class="edge">
<title>Node1&#45;&gt;Node2</title>
<path fill="none" stroke="midnightblue" d="M126.68,-235.4C119.04,-226.66 109.21,-215.41 101.24,-206.3"/>
<polygon fill="midnightblue" stroke="midnightblue" points="103.78,-203.88 94.57,-198.66 98.51,-208.49 103.78,-203.88"/>
</g>
<!-- Node6 -->
<g id="node6" class="node">
<title>Node6</title>
<g id="a_node6"><a xlink:href="valueconsumer_8h.html" target="_top" xlink:title=" ">
<polygon fill="white" stroke="black" points="157,-179.5 157,-198.5 249,-198.5 249,-179.5 157,-179.5"/>
<text text-anchor="middle" x="203" y="-186.5" font-family="Helvetica,sans-Serif" font-size="10.00">valueconsumer.h</text>
</a>
</g>
</g>
<!-- Node1&#45;&gt;Node6 -->
<g id="edge5" class="edge">
<title>Node1&#45;&gt;Node6</title>
<path fill="none" stroke="midnightblue" d="M154.17,-235.4C163.75,-226.49 176.16,-214.95 186.07,-205.74"/>
<polygon fill="midnightblue" stroke="midnightblue" points="188.75,-208.03 193.69,-198.66 183.98,-202.9 188.75,-208.03"/>
</g>
<!-- Node3 -->
<g id="node3" class="node">
<title>Node3</title>
<g id="a_node3"><a xlink:title=" ">
<polygon fill="white" stroke="#bfbfbf" points="92,-123.5 92,-142.5 172,-142.5 172,-123.5 92,-123.5"/>
<text text-anchor="middle" x="132" y="-130.5" font-family="Helvetica,sans-Serif" font-size="10.00">ArduinoJson.h</text>
</a>
</g>
</g>
<!-- Node2&#45;&gt;Node3 -->
<g id="edge2" class="edge">
<title>Node2&#45;&gt;Node3</title>
<path fill="none" stroke="midnightblue" d="M94.43,-179.08C100.85,-171.38 110.31,-160.03 118.12,-150.65"/>
<polygon fill="midnightblue" stroke="midnightblue" points="120.99,-152.67 124.71,-142.75 115.62,-148.19 120.99,-152.67"/>
</g>
<!-- Node4 -->
<g id="node4" class="node">
<title>Node4</title>
<g id="a_node4"><a xlink:title=" ">
<polygon fill="white" stroke="#bfbfbf" points="0,-123.5 0,-142.5 36,-142.5 36,-123.5 0,-123.5"/>
<text text-anchor="middle" x="18" y="-130.5" font-family="Helvetica,sans-Serif" font-size="10.00">map</text>
</a>
</g>
</g>
<!-- Node2&#45;&gt;Node4 -->
<g id="edge3" class="edge">
<title>Node2&#45;&gt;Node4</title>
<path fill="none" stroke="midnightblue" d="M75.91,-179.32C65.51,-171.18 49.74,-158.84 37.28,-149.09"/>
<polygon fill="midnightblue" stroke="midnightblue" points="39.32,-146.24 29.29,-142.83 35.01,-151.75 39.32,-146.24"/>
</g>
<!-- Node5 -->
<g id="node5" class="node">
<title>Node5</title>
<g id="a_node5"><a xlink:title=" ">
<polygon fill="white" stroke="#bfbfbf" points="112.5,-0.5 112.5,-19.5 171.5,-19.5 171.5,-0.5 112.5,-0.5"/>
<text text-anchor="middle" x="142" y="-7.5" font-family="Helvetica,sans-Serif" font-size="10.00">Arduino.h</text>
</a>
</g>
</g>
<!-- Node2&#45;&gt;Node5 -->
<g id="edge4" class="edge">
<title>Node2&#45;&gt;Node5</title>
<path fill="none" stroke="midnightblue" d="M84.86,-179.44C82.08,-166.87 78.11,-142.76 83,-123 92.01,-86.57 115.24,-48.92 129.72,-27.87"/>
<polygon fill="midnightblue" stroke="midnightblue" points="132.6,-29.87 135.5,-19.68 126.88,-25.84 132.6,-29.87"/>
</g>
<!-- Node6&#45;&gt;Node3 -->
<g id="edge6" class="edge">
<title>Node6&#45;&gt;Node3</title>
<path fill="none" stroke="midnightblue" d="M191.59,-179.32C180.89,-171.18 164.66,-158.84 151.84,-149.09"/>
<polygon fill="midnightblue" stroke="midnightblue" points="153.69,-146.1 143.61,-142.83 149.46,-151.67 153.69,-146.1"/>
</g>
<!-- Node7 -->
<g id="node7" class="node">
<title>Node7</title>
<g id="a_node7"><a xlink:title=" ">
<polygon fill="white" stroke="#bfbfbf" points="190.5,-123.5 190.5,-142.5 239.5,-142.5 239.5,-123.5 190.5,-123.5"/>
<text text-anchor="middle" x="215" y="-130.5" font-family="Helvetica,sans-Serif" font-size="10.00">stdint.h</text>
</a>
</g>
</g>
<!-- Node6&#45;&gt;Node7 -->
<g id="edge7" class="edge">
<title>Node6&#45;&gt;Node7</title>
<path fill="none" stroke="midnightblue" d="M204.98,-179.08C206.57,-171.93 208.86,-161.64 210.85,-152.69"/>
<polygon fill="midnightblue" stroke="midnightblue" points="214.3,-153.27 213.06,-142.75 207.47,-151.75 214.3,-153.27"/>
</g>
<!-- Node8 -->
<g id="node8" class="node">
<title>Node8</title>
<g id="a_node8"><a xlink:href="sensesp_8h.html" target="_top" xlink:title=" ">
<polygon fill="white" stroke="black" points="258,-123.5 258,-142.5 320,-142.5 320,-123.5 258,-123.5"/>
<text text-anchor="middle" x="289" y="-130.5" font-family="Helvetica,sans-Serif" font-size="10.00">sensesp.h</text>
</a>
</g>
</g>
<!-- Node6&#45;&gt;Node8 -->
<g id="edge8" class="edge">
<title>Node6&#45;&gt;Node8</title>
<path fill="none" stroke="midnightblue" d="M216.82,-179.32C230.23,-170.9 250.82,-157.97 266.59,-148.07"/>
<polygon fill="midnightblue" stroke="midnightblue" points="268.61,-150.94 275.22,-142.65 264.89,-145.01 268.61,-150.94"/>
</g>
<!-- Node9 -->
<g id="node9" class="node">
<title>Node9</title>
<g id="a_node9"><a xlink:title=" ">
<polygon fill="white" stroke="#bfbfbf" points="145,-62 145,-81 215,-81 215,-62 145,-62"/>
<text text-anchor="middle" x="180" y="-69" font-family="Helvetica,sans-Serif" font-size="10.00">ReactESP.h</text>
</a>
</g>
</g>
<!-- Node8&#45;&gt;Node9 -->
<g id="edge9" class="edge">
<title>Node8&#45;&gt;Node9</title>
<path fill="none" stroke="midnightblue" d="M273.38,-123.48C255.41,-113.67 225.68,-97.43 204.59,-85.92"/>
<polygon fill="midnightblue" stroke="midnightblue" points="206.04,-82.73 195.59,-81.01 202.69,-88.87 206.04,-82.73"/>
</g>
<!-- Node10 -->
<g id="node10" class="node">
<title>Node10</title>
<g id="a_node10"><a xlink:href="local__debug_8h.html" target="_top" xlink:title=" ">
<polygon fill="white" stroke="black" points="233,-56.5 233,-86.5 345,-86.5 345,-56.5 233,-56.5"/>
<text text-anchor="start" x="241" y="-74.5" font-family="Helvetica,sans-Serif" font-size="10.00">sensesp/system/local</text>
<text text-anchor="middle" x="289" y="-63.5" font-family="Helvetica,sans-Serif" font-size="10.00">_debug.h</text>
</a>
</g>
</g>
<!-- Node8&#45;&gt;Node10 -->
<g id="edge10" class="edge">
<title>Node8&#45;&gt;Node10</title>
<path fill="none" stroke="midnightblue" d="M289,-123.48C289,-116.47 289,-106.19 289,-96.7"/>
<polygon fill="midnightblue" stroke="midnightblue" points="292.5,-96.52 289,-86.52 285.5,-96.52 292.5,-96.52"/>
</g>
<!-- Node10&#45;&gt;Node5 -->
<g id="edge11" class="edge">
<title>Node10&#45;&gt;Node5</title>
<path fill="none" stroke="midnightblue" d="M254.16,-56.4C229.5,-46.42 196.71,-33.15 172.97,-23.53"/>
<polygon fill="midnightblue" stroke="midnightblue" points="173.97,-20.17 163.39,-19.66 171.35,-26.65 173.97,-20.17"/>
</g>
<!-- Node11 -->
<g id="node11" class="node">
<title>Node11</title>
<g id="a_node11"><a xlink:title=" ">
<polygon fill="white" stroke="#bfbfbf" points="266.5,-0.5 266.5,-19.5 311.5,-19.5 311.5,-0.5 266.5,-0.5"/>
<text text-anchor="middle" x="289" y="-7.5" font-family="Helvetica,sans-Serif" font-size="10.00">Print.h</text>
</a>
</g>
</g>
<!-- Node10&#45;&gt;Node11 -->
<g id="edge12" class="edge">
<title>Node10&#45;&gt;Node11</title>
<path fill="none" stroke="midnightblue" d="M289,-56.4C289,-48.47 289,-38.46 289,-29.86"/>
<polygon fill="midnightblue" stroke="midnightblue" points="292.5,-29.66 289,-19.66 285.5,-29.66 292.5,-29.66"/>
</g>
</g>
</svg>
