<?xml version="1.0" encoding="UTF-8" standalone="no"?>
<!DOCTYPE svg PUBLIC "-//W3C//DTD SVG 1.1//EN"
 "http://www.w3.org/Graphics/SVG/1.1/DTD/svg11.dtd">
<!-- Generated by graphviz version 2.44.1 (20200629.0846)
 -->
<!-- Title: src/system/rgb_led.cpp Pages: 1 -->
<svg width="365pt" height="252pt"
 viewBox="0.00 0.00 365.00 252.00" xmlns="http://www.w3.org/2000/svg" xmlns:xlink="http://www.w3.org/1999/xlink">
<g id="graph0" class="graph" transform="scale(1 1) rotate(0) translate(4 248)">
<title>src/system/rgb_led.cpp</title>
<polygon fill="white" stroke="transparent" points="-4,4 -4,-248 361,-248 361,4 -4,4"/>
<!-- Node0 -->
<g id="node1" class="node">
<title>Node0</title>
<g id="a_node1"><a xlink:title=" ">
<polygon fill="#bfbfbf" stroke="black" points="168,-224.5 168,-243.5 287,-243.5 287,-224.5 168,-224.5"/>
<text text-anchor="middle" x="227.5" y="-231.5" font-family="Helvetica,sans-Serif" font-size="10.00">src/system/rgb_led.cpp</text>
</a>
</g>
</g>
<!-- Node1 -->
<g id="node2" class="node">
<title>Node1</title>
<g id="a_node2"><a xlink:href="rgb__led_8h.html" target="_top" xlink:title=" ">
<polygon fill="white" stroke="black" points="148.5,-168.5 148.5,-187.5 204.5,-187.5 204.5,-168.5 148.5,-168.5"/>
<text text-anchor="middle" x="176.5" y="-175.5" font-family="Helvetica,sans-Serif" font-size="10.00">rgb_led.h</text>
</a>
</g>
</g>
<!-- Node0&#45;&gt;Node1 -->
<g id="edge1" class="edge">
<title>Node0&#45;&gt;Node1</title>
<path fill="none" stroke="midnightblue" d="M219.08,-224.08C211.65,-216.22 200.65,-204.57 191.69,-195.08"/>
<polygon fill="midnightblue" stroke="midnightblue" points="194.18,-192.62 184.76,-187.75 189.09,-197.42 194.18,-192.62"/>
</g>
<!-- Node11 -->
<g id="node12" class="node">
<title>Node11</title>
<g id="a_node12"><a xlink:href="pwm__output_8h.html" target="_top" xlink:title=" ">
<polygon fill="white" stroke="black" points="223,-168.5 223,-187.5 336,-187.5 336,-168.5 223,-168.5"/>
<text text-anchor="middle" x="279.5" y="-175.5" font-family="Helvetica,sans-Serif" font-size="10.00">system/pwm_output.h</text>
</a>
</g>
</g>
<!-- Node0&#45;&gt;Node11 -->
<g id="edge12" class="edge">
<title>Node0&#45;&gt;Node11</title>
<path fill="none" stroke="midnightblue" d="M236.09,-224.08C243.66,-216.22 254.88,-204.57 264.01,-195.08"/>
<polygon fill="midnightblue" stroke="midnightblue" points="266.66,-197.38 271.07,-187.75 261.62,-192.53 266.66,-197.38"/>
</g>
<!-- Node2 -->
<g id="node3" class="node">
<title>Node2</title>
<g id="a_node3"><a xlink:href="configurable_8h.html" target="_top" xlink:title=" ">
<polygon fill="white" stroke="black" points="198,-112.5 198,-131.5 311,-131.5 311,-112.5 198,-112.5"/>
<text text-anchor="middle" x="254.5" y="-119.5" font-family="Helvetica,sans-Serif" font-size="10.00">system/configurable.h</text>
</a>
</g>
</g>
<!-- Node1&#45;&gt;Node2 -->
<g id="edge2" class="edge">
<title>Node1&#45;&gt;Node2</title>
<path fill="none" stroke="midnightblue" d="M189.03,-168.32C201.09,-159.98 219.53,-147.21 233.77,-137.35"/>
<polygon fill="midnightblue" stroke="midnightblue" points="235.77,-140.22 242,-131.65 231.78,-134.47 235.77,-140.22"/>
</g>
<!-- Node6 -->
<g id="node7" class="node">
<title>Node6</title>
<g id="a_node7"><a xlink:href="valueconsumer_8h.html" target="_top" xlink:title=" ">
<polygon fill="white" stroke="black" points="55,-112.5 55,-131.5 180,-131.5 180,-112.5 55,-112.5"/>
<text text-anchor="middle" x="117.5" y="-119.5" font-family="Helvetica,sans-Serif" font-size="10.00">system/valueconsumer.h</text>
</a>
</g>
</g>
<!-- Node1&#45;&gt;Node6 -->
<g id="edge6" class="edge">
<title>Node1&#45;&gt;Node6</title>
<path fill="none" stroke="midnightblue" d="M167.02,-168.32C158.3,-160.34 145.16,-148.31 134.6,-138.65"/>
<polygon fill="midnightblue" stroke="midnightblue" points="136.89,-136 127.15,-131.83 132.17,-141.17 136.89,-136"/>
</g>
<!-- Node3 -->
<g id="node4" class="node">
<title>Node3</title>
<g id="a_node4"><a xlink:title=" ">
<polygon fill="white" stroke="#bfbfbf" points="148,-56.5 148,-75.5 227,-75.5 227,-56.5 148,-56.5"/>
<text text-anchor="middle" x="187.5" y="-63.5" font-family="Helvetica,sans-Serif" font-size="10.00">ArduinoJson.h</text>
</a>
</g>
</g>
<!-- Node2&#45;&gt;Node3 -->
<g id="edge3" class="edge">
<title>Node2&#45;&gt;Node3</title>
<path fill="none" stroke="midnightblue" d="M243.74,-112.32C233.73,-104.26 218.61,-92.08 206.57,-82.37"/>
<polygon fill="midnightblue" stroke="midnightblue" points="208.44,-79.38 198.46,-75.83 204.05,-84.83 208.44,-79.38"/>
</g>
<!-- Node4 -->
<g id="node5" class="node">
<title>Node4</title>
<g id="a_node5"><a xlink:title=" ">
<polygon fill="white" stroke="#bfbfbf" points="322,-56.5 322,-75.5 357,-75.5 357,-56.5 322,-56.5"/>
<text text-anchor="middle" x="339.5" y="-63.5" font-family="Helvetica,sans-Serif" font-size="10.00">map</text>
</a>
</g>
</g>
<!-- Node2&#45;&gt;Node4 -->
<g id="edge4" class="edge">
<title>Node2&#45;&gt;Node4</title>
<path fill="none" stroke="midnightblue" d="M268.16,-112.32C281.42,-103.9 301.77,-90.97 317.35,-81.07"/>
<polygon fill="midnightblue" stroke="midnightblue" points="319.31,-83.97 325.88,-75.65 315.56,-78.06 319.31,-83.97"/>
</g>
<!-- Node5 -->
<g id="node6" class="node">
<title>Node5</title>
<g id="a_node6"><a xlink:title=" ">
<polygon fill="white" stroke="#bfbfbf" points="245.5,-56.5 245.5,-75.5 303.5,-75.5 303.5,-56.5 245.5,-56.5"/>
<text text-anchor="middle" x="274.5" y="-63.5" font-family="Helvetica,sans-Serif" font-size="10.00">Arduino.h</text>
</a>
</g>
</g>
<!-- Node2&#45;&gt;Node5 -->
<g id="edge5" class="edge">
<title>Node2&#45;&gt;Node5</title>
<path fill="none" stroke="midnightblue" d="M257.8,-112.08C260.48,-104.85 264.35,-94.41 267.69,-85.4"/>
<polygon fill="midnightblue" stroke="midnightblue" points="271.07,-86.34 271.26,-75.75 264.5,-83.91 271.07,-86.34"/>
</g>
<!-- Node6&#45;&gt;Node3 -->
<g id="edge7" class="edge">
<title>Node6&#45;&gt;Node3</title>
<path fill="none" stroke="midnightblue" d="M128.75,-112.32C139.3,-104.18 155.3,-91.84 167.94,-82.09"/>
<polygon fill="midnightblue" stroke="midnightblue" points="170.27,-84.71 176.05,-75.83 165.99,-79.17 170.27,-84.71"/>
</g>
<!-- Node7 -->
<g id="node8" class="node">
<title>Node7</title>
<g id="a_node8"><a xlink:title=" ">
<polygon fill="white" stroke="#bfbfbf" points="0,-56.5 0,-75.5 49,-75.5 49,-56.5 0,-56.5"/>
<text text-anchor="middle" x="24.5" y="-63.5" font-family="Helvetica,sans-Serif" font-size="10.00">stdint.h</text>
</a>
</g>
</g>
<!-- Node6&#45;&gt;Node7 -->
<g id="edge8" class="edge">
<title>Node6&#45;&gt;Node7</title>
<path fill="none" stroke="midnightblue" d="M102.56,-112.32C87.91,-103.82 65.37,-90.73 48.26,-80.8"/>
<polygon fill="midnightblue" stroke="midnightblue" points="49.81,-77.65 39.4,-75.65 46.3,-83.7 49.81,-77.65"/>
</g>
<!-- Node8 -->
<g id="node9" class="node">
<title>Node8</title>
<g id="a_node9"><a xlink:href="sensesp_8h.html" target="_top" xlink:title=" ">
<polygon fill="white" stroke="black" points="67.5,-56.5 67.5,-75.5 129.5,-75.5 129.5,-56.5 67.5,-56.5"/>
<text text-anchor="middle" x="98.5" y="-63.5" font-family="Helvetica,sans-Serif" font-size="10.00">sensesp.h</text>
</a>
</g>
</g>
<!-- Node6&#45;&gt;Node8 -->
<g id="edge9" class="edge">
<title>Node6&#45;&gt;Node8</title>
<path fill="none" stroke="midnightblue" d="M114.36,-112.08C111.82,-104.85 108.14,-94.41 104.97,-85.4"/>
<polygon fill="midnightblue" stroke="midnightblue" points="108.2,-84.02 101.58,-75.75 101.6,-86.35 108.2,-84.02"/>
</g>
<!-- Node9 -->
<g id="node10" class="node">
<title>Node9</title>
<g id="a_node10"><a xlink:title=" ">
<polygon fill="white" stroke="#bfbfbf" points="14.5,-0.5 14.5,-19.5 84.5,-19.5 84.5,-0.5 14.5,-0.5"/>
<text text-anchor="middle" x="49.5" y="-7.5" font-family="Helvetica,sans-Serif" font-size="10.00">ReactESP.h</text>
</a>
</g>
</g>
<!-- Node8&#45;&gt;Node9 -->
<g id="edge10" class="edge">
<title>Node8&#45;&gt;Node9</title>
<path fill="none" stroke="midnightblue" d="M90.41,-56.08C83.34,-48.3 72.91,-36.8 64.35,-27.37"/>
<polygon fill="midnightblue" stroke="midnightblue" points="66.75,-24.8 57.44,-19.75 61.57,-29.51 66.75,-24.8"/>
</g>
<!-- Node10 -->
<g id="node11" class="node">
<title>Node10</title>
<g id="a_node11"><a xlink:title=" ">
<polygon fill="white" stroke="#bfbfbf" points="102.5,-0.5 102.5,-19.5 190.5,-19.5 190.5,-0.5 102.5,-0.5"/>
<text text-anchor="middle" x="146.5" y="-7.5" font-family="Helvetica,sans-Serif" font-size="10.00">RemoteDebug.h</text>
</a>
</g>
</g>
<!-- Node8&#45;&gt;Node10 -->
<g id="edge11" class="edge">
<title>Node8&#45;&gt;Node10</title>
<path fill="none" stroke="midnightblue" d="M106.43,-56.08C113.35,-48.3 123.57,-36.8 131.95,-27.37"/>
<polygon fill="midnightblue" stroke="midnightblue" points="134.69,-29.55 138.72,-19.75 129.46,-24.9 134.69,-29.55"/>
</g>
<!-- Node11&#45;&gt;Node4 -->
<g id="edge13" class="edge">
<title>Node11&#45;&gt;Node4</title>
<path fill="none" stroke="midnightblue" d="M289.69,-168.35C298.97,-159.94 312.43,-146.38 320.5,-132 328.59,-117.58 333.53,-99.39 336.33,-85.92"/>
<polygon fill="midnightblue" stroke="midnightblue" points="339.81,-86.38 338.21,-75.91 332.93,-85.09 339.81,-86.38"/>
</g>
<!-- Node11&#45;&gt;Node6 -->
<g id="edge14" class="edge">
<title>Node11&#45;&gt;Node6</title>
<path fill="none" stroke="midnightblue" d="M253.83,-168.44C226.58,-159.36 183.32,-144.94 152.85,-134.78"/>
<polygon fill="midnightblue" stroke="midnightblue" points="153.64,-131.36 143.05,-131.52 151.43,-138 153.64,-131.36"/>
</g>
</g>
</svg>
