<?xml version="1.0" encoding="UTF-8" standalone="no"?>
<!DOCTYPE svg PUBLIC "-//W3C//DTD SVG 1.1//EN"
 "http://www.w3.org/Graphics/SVG/1.1/DTD/svg11.dtd">
<!-- Generated by graphviz version 12.0.0 (20240704.0754)
 -->
<!-- Title: src/sensesp/system/rgb_led.cpp Pages: 1 -->
<svg width="385pt" height="326pt"
 viewBox="0.00 0.00 384.50 326.00" xmlns="http://www.w3.org/2000/svg" xmlns:xlink="http://www.w3.org/1999/xlink">

<svg id="main" version="1.1" xmlns="http://www.w3.org/2000/svg" xmlns:xlink="http://www.w3.org/1999/xlink" xml:space="preserve" onload="init(evt)">
<style type="text/css"><![CDATA[
.node, .edge {opacity: 0.7;}
.node.selected, .edge.selected {opacity: 1;}
.edge:hover path { stroke: red; }
.edge:hover polygon { stroke: red; fill: red; }
]]></style>
<script type="application/ecmascript" xlink:href="svg.min.js"/>
<svg id="graph" class="graph">
<g id="graph0" class="graph" transform="scale(1 1) rotate(0) translate(4 322)">
<title>src/sensesp/system/rgb_led.cpp</title>
<!-- Node1 -->
<g id="Node000001" class="node">
<title>Node1</title>
<g id="a_Node000001"><a xlink:title=" ">
<polygon fill="#999999" stroke="#666666" points="286.38,-318 181.88,-318 181.88,-287.5 286.38,-287.5 286.38,-318"/>
<text text-anchor="start" x="189.88" y="-304.5" font-family="Helvetica,sans-Serif" font-size="10.00">src/sensesp/system</text>
<text text-anchor="middle" x="234.12" y="-293.25" font-family="Helvetica,sans-Serif" font-size="10.00">/rgb_led.cpp</text>
</a>
</g>
</g>
<!-- Node2 -->
<g id="Node000002" class="node">
<title>Node2</title>
<g id="a_Node000002"><a xlink:href="rgb__led_8h.html" target="_top" xlink:title=" ">
<polygon fill="white" stroke="#666666" points="220,-251.5 164.25,-251.5 164.25,-232.25 220,-232.25 220,-251.5"/>
<text text-anchor="middle" x="192.12" y="-238" font-family="Helvetica,sans-Serif" font-size="10.00">rgb_led.h</text>
</a>
</g>
</g>
<!-- Node1&#45;&gt;Node2 -->
<g id="edge1_Node000001_Node000002" class="edge">
<title>Node1&#45;&gt;Node2</title>
<g id="a_edge1_Node000001_Node000002"><a xlink:title=" ">
<path fill="none" stroke="#63b8ff" d="M223.74,-287.2C218.15,-279.35 211.19,-269.6 205.22,-261.24"/>
<polygon fill="#63b8ff" stroke="#63b8ff" points="208.14,-259.29 199.48,-253.18 202.44,-263.36 208.14,-259.29"/>
</a>
</g>
</g>
<!-- Node15 -->
<g id="Node000015" class="node">
<title>Node15</title>
<g id="a_Node000015"><a xlink:href="pwm__output_8h.html" target="_top" xlink:title=" ">
<polygon fill="white" stroke="#666666" points="315.88,-251.5 238.38,-251.5 238.38,-232.25 315.88,-232.25 315.88,-251.5"/>
<text text-anchor="middle" x="277.12" y="-238" font-family="Helvetica,sans-Serif" font-size="10.00">pwm_output.h</text>
</a>
</g>
</g>
<!-- Node1&#45;&gt;Node15 -->
<g id="edge17_Node000001_Node000015" class="edge">
<title>Node1&#45;&gt;Node15</title>
<g id="a_edge17_Node000001_Node000015"><a xlink:title=" ">
<path fill="none" stroke="#63b8ff" d="M244.75,-287.2C250.48,-279.35 257.61,-269.6 263.72,-261.24"/>
<polygon fill="#63b8ff" stroke="#63b8ff" points="266.53,-263.31 269.6,-253.17 260.88,-259.18 266.53,-263.31"/>
</a>
</g>
</g>
<!-- Node3 -->
<g id="Node000003" class="node">
<title>Node3</title>
<g id="a_Node000003"><a xlink:href="configurable_8h.html" target="_top" xlink:title=" ">
<polygon fill="white" stroke="#666666" points="290.5,-196.25 213.75,-196.25 213.75,-177 290.5,-177 290.5,-196.25"/>
<text text-anchor="middle" x="252.12" y="-182.75" font-family="Helvetica,sans-Serif" font-size="10.00">configurable.h</text>
</a>
</g>
</g>
<!-- Node2&#45;&gt;Node3 -->
<g id="edge2_Node000002_Node000003" class="edge">
<title>Node2&#45;&gt;Node3</title>
<g id="a_edge2_Node000002_Node000003"><a xlink:title=" ">
<path fill="none" stroke="#63b8ff" d="M202.3,-231.84C210.89,-224.22 223.39,-213.12 233.73,-203.95"/>
<polygon fill="#63b8ff" stroke="#63b8ff" points="235.81,-206.79 240.97,-197.53 231.16,-201.55 235.81,-206.79"/>
</a>
</g>
</g>
<!-- Node13 -->
<g id="Node000013" class="node">
<title>Node13</title>
<g id="a_Node000013"><a xlink:href="valueconsumer_8h.html" target="_top" xlink:title=" ">
<polygon fill="white" stroke="#666666" points="195.88,-196.25 106.38,-196.25 106.38,-177 195.88,-177 195.88,-196.25"/>
<text text-anchor="middle" x="151.12" y="-182.75" font-family="Helvetica,sans-Serif" font-size="10.00">valueconsumer.h</text>
</a>
</g>
</g>
<!-- Node2&#45;&gt;Node13 -->
<g id="edge13_Node000002_Node000013" class="edge">
<title>Node2&#45;&gt;Node13</title>
<g id="a_edge13_Node000002_Node000013"><a xlink:title=" ">
<path fill="none" stroke="#63b8ff" d="M185.35,-232.08C179.81,-224.88 171.78,-214.46 164.9,-205.51"/>
<polygon fill="#63b8ff" stroke="#63b8ff" points="167.84,-203.6 158.97,-197.81 162.29,-207.87 167.84,-203.6"/>
</a>
</g>
</g>
<!-- Node4 -->
<g id="Node000004" class="node">
<title>Node4</title>
<g id="a_Node000004"><a xlink:href="sensesp_8h.html" target="_top" xlink:title=" ">
<polygon fill="white" stroke="#666666" points="127.62,-141 66.62,-141 66.62,-121.75 127.62,-121.75 127.62,-141"/>
<text text-anchor="middle" x="97.12" y="-127.5" font-family="Helvetica,sans-Serif" font-size="10.00">sensesp.h</text>
</a>
</g>
</g>
<!-- Node3&#45;&gt;Node4 -->
<g id="edge3_Node000003_Node000004" class="edge">
<title>Node3&#45;&gt;Node4</title>
<g id="a_edge3_Node000003_Node000004"><a xlink:title=" ">
<path fill="none" stroke="#63b8ff" d="M225.83,-176.59C200.67,-167.95 162.47,-154.82 134.22,-145.12"/>
<polygon fill="#63b8ff" stroke="#63b8ff" points="135.57,-141.88 124.98,-141.94 133.3,-148.5 135.57,-141.88"/>
</a>
</g>
</g>
<!-- Node8 -->
<g id="Node000008" class="node">
<title>Node8</title>
<g id="a_Node000008"><a xlink:title=" ">
<polygon fill="#e0e0e0" stroke="#999999" points="276.75,-19.25 219.5,-19.25 219.5,0 276.75,0 276.75,-19.25"/>
<text text-anchor="middle" x="248.12" y="-5.75" font-family="Helvetica,sans-Serif" font-size="10.00">Arduino.h</text>
</a>
</g>
</g>
<!-- Node3&#45;&gt;Node8 -->
<g id="edge12_Node000003_Node000008" class="edge">
<title>Node3&#45;&gt;Node8</title>
<g id="a_edge12_Node000003_Node000008"><a xlink:title=" ">
<path fill="none" stroke="#63b8ff" d="M251.92,-176.71C251.31,-149.8 249.46,-68.94 248.59,-30.87"/>
<polygon fill="#63b8ff" stroke="#63b8ff" points="252.1,-31.17 248.37,-21.25 245.1,-31.33 252.1,-31.17"/>
</a>
</g>
</g>
<!-- Node10 -->
<g id="Node000010" class="node">
<title>Node10</title>
<g id="a_Node000010"><a xlink:title=" ">
<polygon fill="#e0e0e0" stroke="#999999" points="224.25,-141 146,-141 146,-121.75 224.25,-121.75 224.25,-141"/>
<text text-anchor="middle" x="185.12" y="-127.5" font-family="Helvetica,sans-Serif" font-size="10.00">ArduinoJson.h</text>
</a>
</g>
</g>
<!-- Node3&#45;&gt;Node10 -->
<g id="edge9_Node000003_Node000010" class="edge">
<title>Node3&#45;&gt;Node10</title>
<g id="a_edge9_Node000003_Node000010"><a xlink:title=" ">
<path fill="none" stroke="#63b8ff" d="M240.76,-176.59C231.08,-168.9 216.93,-157.65 205.32,-148.43"/>
<polygon fill="#63b8ff" stroke="#63b8ff" points="207.51,-145.7 197.51,-142.22 203.16,-151.18 207.51,-145.7"/>
</a>
</g>
</g>
<!-- Node11 -->
<g id="Node000011" class="node">
<title>Node11</title>
<g id="a_Node000011"><a xlink:title=" ">
<polygon fill="#e0e0e0" stroke="#999999" points="376.5,-141 341.75,-141 341.75,-121.75 376.5,-121.75 376.5,-141"/>
<text text-anchor="middle" x="359.12" y="-127.5" font-family="Helvetica,sans-Serif" font-size="10.00">map</text>
</a>
</g>
</g>
<!-- Node3&#45;&gt;Node11 -->
<g id="edge10_Node000003_Node000011" class="edge">
<title>Node3&#45;&gt;Node11</title>
<g id="a_edge10_Node000003_Node000011"><a xlink:title=" ">
<path fill="none" stroke="#63b8ff" d="M270.28,-176.59C287,-168.27 312.07,-155.79 331.32,-146.21"/>
<polygon fill="#63b8ff" stroke="#63b8ff" points="332.85,-149.36 340.24,-141.77 329.73,-143.09 332.85,-149.36"/>
</a>
</g>
</g>
<!-- Node12 -->
<g id="Node000012" class="node">
<title>Node12</title>
<g id="a_Node000012"><a xlink:title=" ">
<polygon fill="#e0e0e0" stroke="#999999" points="323.62,-141 280.62,-141 280.62,-121.75 323.62,-121.75 323.62,-141"/>
<text text-anchor="middle" x="302.12" y="-127.5" font-family="Helvetica,sans-Serif" font-size="10.00">vector</text>
</a>
</g>
</g>
<!-- Node3&#45;&gt;Node12 -->
<g id="edge11_Node000003_Node000012" class="edge">
<title>Node3&#45;&gt;Node12</title>
<g id="a_edge11_Node000003_Node000012"><a xlink:title=" ">
<path fill="none" stroke="#63b8ff" d="M260.38,-176.83C267.29,-169.48 277.35,-158.76 285.86,-149.69"/>
<polygon fill="#63b8ff" stroke="#63b8ff" points="288.36,-152.15 292.65,-142.46 283.26,-147.36 288.36,-152.15"/>
</a>
</g>
</g>
<!-- Node5 -->
<g id="Node000005" class="node">
<title>Node5</title>
<g id="a_Node000005"><a xlink:title=" ">
<polygon fill="#e0e0e0" stroke="#999999" points="94.75,-80.12 25.5,-80.12 25.5,-60.88 94.75,-60.88 94.75,-80.12"/>
<text text-anchor="middle" x="60.12" y="-66.62" font-family="Helvetica,sans-Serif" font-size="10.00">ReactESP.h</text>
</a>
</g>
</g>
<!-- Node4&#45;&gt;Node5 -->
<g id="edge4_Node000004_Node000005" class="edge">
<title>Node4&#45;&gt;Node5</title>
<g id="a_edge4_Node000004_Node000005"><a xlink:title=" ">
<path fill="none" stroke="#63b8ff" d="M91.51,-121.43C86.29,-113.13 78.36,-100.52 71.78,-90.05"/>
<polygon fill="#63b8ff" stroke="#63b8ff" points="74.89,-88.41 66.6,-81.81 68.96,-92.14 74.89,-88.41"/>
</a>
</g>
</g>
<!-- Node6 -->
<g id="Node000006" class="node">
<title>Node6</title>
<g id="a_Node000006"><a xlink:href="local__debug_8h.html" target="_top" xlink:title=" ">
<polygon fill="white" stroke="#666666" points="223.75,-85.75 112.5,-85.75 112.5,-55.25 223.75,-55.25 223.75,-85.75"/>
<text text-anchor="start" x="120.5" y="-72.25" font-family="Helvetica,sans-Serif" font-size="10.00">sensesp/system/local</text>
<text text-anchor="middle" x="168.12" y="-61" font-family="Helvetica,sans-Serif" font-size="10.00">_debug.h</text>
</a>
</g>
</g>
<!-- Node4&#45;&gt;Node6 -->
<g id="edge5_Node000004_Node000006" class="edge">
<title>Node4&#45;&gt;Node6</title>
<g id="a_edge5_Node000004_Node000006"><a xlink:title=" ">
<path fill="none" stroke="#63b8ff" d="M107.91,-121.43C116.94,-113.95 130.19,-102.95 141.97,-93.18"/>
<polygon fill="#63b8ff" stroke="#63b8ff" points="143.97,-96.08 149.43,-87 139.5,-90.69 143.97,-96.08"/>
</a>
</g>
</g>
<!-- Node7 -->
<g id="Node000007" class="node">
<title>Node7</title>
<g id="a_Node000007"><a xlink:title=" ">
<polygon fill="#e0e0e0" stroke="#999999" points="132.12,-19.25 50.12,-19.25 50.12,0 132.12,0 132.12,-19.25"/>
<text text-anchor="middle" x="91.12" y="-5.75" font-family="Helvetica,sans-Serif" font-size="10.00">esp32&#45;hal&#45;log.h</text>
</a>
</g>
</g>
<!-- Node6&#45;&gt;Node7 -->
<g id="edge6_Node000006_Node000007" class="edge">
<title>Node6&#45;&gt;Node7</title>
<g id="a_edge6_Node000006_Node000007"><a xlink:title=" ">
<path fill="none" stroke="#63b8ff" d="M149.09,-54.95C137.82,-46.33 123.52,-35.4 111.95,-26.55"/>
<polygon fill="#63b8ff" stroke="#63b8ff" points="114.27,-23.91 104.2,-20.62 110.02,-29.48 114.27,-23.91"/>
</a>
</g>
</g>
<!-- Node6&#45;&gt;Node8 -->
<g id="edge7_Node000006_Node000008" class="edge">
<title>Node6&#45;&gt;Node8</title>
<g id="a_edge7_Node000006_Node000008"><a xlink:title=" ">
<path fill="none" stroke="#63b8ff" d="M187.9,-54.95C199.73,-46.24 214.76,-35.18 226.85,-26.28"/>
<polygon fill="#63b8ff" stroke="#63b8ff" points="228.59,-29.34 234.57,-20.6 224.44,-23.71 228.59,-29.34"/>
</a>
</g>
</g>
<!-- Node9 -->
<g id="Node000009" class="node">
<title>Node9</title>
<g id="a_Node000009"><a xlink:title=" ">
<polygon fill="#e0e0e0" stroke="#999999" points="194.38,-19.25 149.88,-19.25 149.88,0 194.38,0 194.38,-19.25"/>
<text text-anchor="middle" x="172.12" y="-5.75" font-family="Helvetica,sans-Serif" font-size="10.00">Print.h</text>
</a>
</g>
</g>
<!-- Node6&#45;&gt;Node9 -->
<g id="edge8_Node000006_Node000009" class="edge">
<title>Node6&#45;&gt;Node9</title>
<g id="a_edge8_Node000006_Node000009"><a xlink:title=" ">
<path fill="none" stroke="#63b8ff" d="M169.11,-54.95C169.61,-47.71 170.21,-38.84 170.74,-30.94"/>
<polygon fill="#63b8ff" stroke="#63b8ff" points="174.22,-31.43 171.41,-21.21 167.24,-30.95 174.22,-31.43"/>
</a>
</g>
</g>
<!-- Node13&#45;&gt;Node4 -->
<g id="edge14_Node000013_Node000004" class="edge">
<title>Node13&#45;&gt;Node4</title>
<g id="a_edge14_Node000013_Node000004"><a xlink:title=" ">
<path fill="none" stroke="#63b8ff" d="M142.21,-176.83C134.67,-169.4 123.66,-158.54 114.4,-149.41"/>
<polygon fill="#63b8ff" stroke="#63b8ff" points="116.89,-146.95 107.31,-142.42 111.98,-151.94 116.89,-146.95"/>
</a>
</g>
</g>
<!-- Node13&#45;&gt;Node10 -->
<g id="edge15_Node000013_Node000010" class="edge">
<title>Node13&#45;&gt;Node10</title>
<g id="a_edge15_Node000013_Node000010"><a xlink:title=" ">
<path fill="none" stroke="#63b8ff" d="M156.74,-176.83C161.24,-169.78 167.71,-159.65 173.34,-150.83"/>
<polygon fill="#63b8ff" stroke="#63b8ff" points="176.14,-152.95 178.57,-142.63 170.24,-149.18 176.14,-152.95"/>
</a>
</g>
</g>
<!-- Node14 -->
<g id="Node000014" class="node">
<title>Node14</title>
<g id="a_Node000014"><a xlink:title=" ">
<polygon fill="#e0e0e0" stroke="#999999" points="48.25,-141 0,-141 0,-121.75 48.25,-121.75 48.25,-141"/>
<text text-anchor="middle" x="24.12" y="-127.5" font-family="Helvetica,sans-Serif" font-size="10.00">stdint.h</text>
</a>
</g>
</g>
<!-- Node13&#45;&gt;Node14 -->
<g id="edge16_Node000013_Node000014" class="edge">
<title>Node13&#45;&gt;Node14</title>
<g id="a_edge16_Node000013_Node000014"><a xlink:title=" ">
<path fill="none" stroke="#63b8ff" d="M129.58,-176.59C109.51,-168.18 79.32,-155.52 56.38,-145.9"/>
<polygon fill="#63b8ff" stroke="#63b8ff" points="57.75,-142.68 47.17,-142.04 55.04,-149.13 57.75,-142.68"/>
</a>
</g>
</g>
<!-- Node15&#45;&gt;Node11 -->
<g id="edge18_Node000015_Node000011" class="edge">
<title>Node15&#45;&gt;Node11</title>
<g id="a_edge18_Node000015_Node000011"><a xlink:title=" ">
<path fill="none" stroke="#63b8ff" d="M283.84,-232C297.29,-214.19 327.79,-173.83 345.57,-150.31"/>
<polygon fill="#63b8ff" stroke="#63b8ff" points="348.17,-152.67 351.41,-142.58 342.59,-148.45 348.17,-152.67"/>
</a>
</g>
</g>
<!-- Node15&#45;&gt;Node13 -->
<g id="edge19_Node000015_Node000013" class="edge">
<title>Node15&#45;&gt;Node13</title>
<g id="a_edge19_Node000015_Node000013"><a xlink:title=" ">
<path fill="none" stroke="#63b8ff" d="M255.75,-231.84C235.84,-223.43 205.89,-210.77 183.12,-201.15"/>
<polygon fill="#63b8ff" stroke="#63b8ff" points="184.57,-197.96 174,-197.29 181.85,-204.41 184.57,-197.96"/>
</a>
</g>
</g>
</g>
</svg>
</svg>

<style type='text/css'>
<![CDATA[
[data-mouse-over-selected='false'] { opacity: 0.7; }
[data-mouse-over-selected='true']  { opacity: 1.0; }
]]>
</style>
<script type="application/ecmascript"><![CDATA[
document.addEventListener('DOMContentLoaded', (event) => {
  highlightEdges();
  highlightAdjacentNodes();
});
]]></script>
</svg>
