<?xml version="1.0" encoding="UTF-8" standalone="no"?>
<!DOCTYPE svg PUBLIC "-//W3C//DTD SVG 1.1//EN"
 "http://www.w3.org/Graphics/SVG/1.1/DTD/svg11.dtd">
<!-- Generated by graphviz version 2.48.0 (20210717.1556)
 -->
<!-- Title: connect_to Pages: 1 -->
<svg width="250pt" height="104pt"
 viewBox="0.00 0.00 250.00 104.00" xmlns="http://www.w3.org/2000/svg" xmlns:xlink="http://www.w3.org/1999/xlink">
<g id="graph0" class="graph" transform="scale(1 1) rotate(0) translate(4 100)">
<title>connect_to</title>
<polygon fill="white" stroke="transparent" points="-4,4 -4,-100 246,-100 246,4 -4,4"/>
<!-- Node1 -->
<g id="node1" class="node">
<title>Node1</title>
<g id="a_node1"><a xlink:title=" ">
<polygon fill="#bfbfbf" stroke="black" points="177,-38.5 177,-57.5 242,-57.5 242,-38.5 177,-38.5"/>
<text text-anchor="middle" x="209.5" y="-45.5" font-family="Helvetica,sans-Serif" font-size="10.00">connect_to</text>
</a>
</g>
</g>
<!-- Node2 -->
<g id="node2" class="node">
<title>Node2</title>
<g id="a_node2"><a xlink:href="wiring__helpers_8cpp.html#a3a4bbd0371b8285dbb7b8666d50a53a3" target="_top" xlink:title=" ">
<polygon fill="white" stroke="black" points="18.5,-76.5 18.5,-95.5 122.5,-95.5 122.5,-76.5 18.5,-76.5"/>
<text text-anchor="middle" x="70.5" y="-83.5" font-family="Helvetica,sans-Serif" font-size="10.00">setup_analog_input</text>
</a>
</g>
</g>
<!-- Node1&#45;&gt;Node2 -->
<g id="edge1" class="edge">
<title>Node1&#45;&gt;Node2</title>
<path fill="none" stroke="midnightblue" d="M167.06,-59.72C158.45,-62.14 149.43,-64.66 141,-67 129.79,-70.11 117.55,-73.47 106.51,-76.48"/>
<polygon fill="midnightblue" stroke="midnightblue" points="168.24,-63.02 176.92,-56.94 166.35,-56.28 168.24,-63.02"/>
</g>
<!-- Node3 -->
<g id="node3" class="node">
<title>Node3</title>
<g id="a_node3"><a xlink:href="wiring__helpers_8cpp.html#a17220137bcd65b6f922f5a14165a8fcf" target="_top" xlink:title=" ">
<polygon fill="white" stroke="black" points="0,-38.5 0,-57.5 141,-57.5 141,-38.5 0,-38.5"/>
<text text-anchor="middle" x="70.5" y="-45.5" font-family="Helvetica,sans-Serif" font-size="10.00">setup_onewire_temperature</text>
</a>
</g>
</g>
<!-- Node1&#45;&gt;Node3 -->
<g id="edge2" class="edge">
<title>Node1&#45;&gt;Node3</title>
<path fill="none" stroke="midnightblue" d="M166.47,-48C158.38,-48 149.7,-48 141,-48"/>
<polygon fill="midnightblue" stroke="midnightblue" points="166.73,-51.5 176.73,-48 166.73,-44.5 166.73,-51.5"/>
</g>
<!-- Node4 -->
<g id="node4" class="node">
<title>Node4</title>
<g id="a_node4"><a xlink:href="wiring__helpers_8cpp.html#aa6279a7bab0b61c448263a90303bb7e0" target="_top" xlink:title=" ">
<polygon fill="white" stroke="black" points="23,-0.5 23,-19.5 118,-19.5 118,-0.5 23,-0.5"/>
<text text-anchor="middle" x="70.5" y="-7.5" font-family="Helvetica,sans-Serif" font-size="10.00">setup_rpm_meter</text>
</a>
</g>
</g>
<!-- Node1&#45;&gt;Node4 -->
<g id="edge3" class="edge">
<title>Node1&#45;&gt;Node4</title>
<path fill="none" stroke="midnightblue" d="M167.06,-36.28C158.45,-33.86 149.43,-31.34 141,-29 129.79,-25.89 117.55,-22.53 106.51,-19.52"/>
<polygon fill="midnightblue" stroke="midnightblue" points="166.35,-39.72 176.92,-39.06 168.24,-32.98 166.35,-39.72"/>
</g>
</g>
</svg>
