<?xml version="1.0" encoding="UTF-8" standalone="no"?>
<!DOCTYPE svg PUBLIC "-//W3C//DTD SVG 1.1//EN"
 "http://www.w3.org/Graphics/SVG/1.1/DTD/svg11.dtd">
<!-- Generated by graphviz version 12.1.0 (20240811.2233)
 -->
<!-- Title: src/sensesp_base_app.cpp Pages: 1 -->
<svg width="882pt" height="481pt"
 viewBox="0.00 0.00 881.91 480.50" xmlns="http://www.w3.org/2000/svg" xmlns:xlink="http://www.w3.org/1999/xlink">
<g id="graph0" class="graph" transform="scale(1 1) rotate(0) translate(4 476.5)">
<title>src/sensesp_base_app.cpp</title>
<!-- Node1 -->
<g id="Node000001" class="node">
<title>Node1</title>
<g id="a_Node000001"><a xlink:title=" ">
<polygon fill="#999999" stroke="#666666" points="328.75,-472.5 193.5,-472.5 193.5,-453.25 328.75,-453.25 328.75,-472.5"/>
<text text-anchor="middle" x="261.12" y="-459" font-family="Helvetica,sans-Serif" font-size="10.00">src/sensesp_base_app.cpp</text>
</a>
</g>
</g>
<!-- Node2 -->
<g id="Node000002" class="node">
<title>Node2</title>
<g id="a_Node000002"><a xlink:href="sensesp__base__app_8h.html" target="_top" xlink:title=" ">
<polygon fill="white" stroke="#666666" points="315.25,-417.25 207,-417.25 207,-398 315.25,-398 315.25,-417.25"/>
<text text-anchor="middle" x="261.12" y="-403.75" font-family="Helvetica,sans-Serif" font-size="10.00">sensesp_base_app.h</text>
</a>
</g>
</g>
<!-- Node1&#45;&gt;Node2 -->
<g id="edge1_Node000001_Node000002" class="edge">
<title>Node1&#45;&gt;Node2</title>
<g id="a_edge1_Node000001_Node000002"><a xlink:title=" ">
<path fill="none" stroke="#63b8ff" d="M261.12,-453.08C261.12,-446.57 261.12,-437.42 261.12,-429.12"/>
<polygon fill="#63b8ff" stroke="#63b8ff" points="264.63,-429.12 261.13,-419.12 257.63,-429.12 264.63,-429.12"/>
</a>
</g>
</g>
<!-- Node3 -->
<g id="Node000003" class="node">
<title>Node3</title>
<g id="a_Node000003"><a xlink:href="sensesp_8h.html" target="_top" xlink:title=" ">
<polygon fill="white" stroke="#666666" points="526.62,-141 465.62,-141 465.62,-121.75 526.62,-121.75 526.62,-141"/>
<text text-anchor="middle" x="496.12" y="-127.5" font-family="Helvetica,sans-Serif" font-size="10.00">sensesp.h</text>
</a>
</g>
</g>
<!-- Node2&#45;&gt;Node3 -->
<g id="edge2_Node000002_Node000003" class="edge">
<title>Node2&#45;&gt;Node3</title>
<g id="a_edge2_Node000002_Node000003"><a xlink:title=" ">
<path fill="none" stroke="#63b8ff" d="M246.03,-397.68C220.64,-381.37 172.12,-344.17 172.12,-298.12 172.12,-298.12 172.12,-298.12 172.12,-240.88 172.12,-211.26 168.73,-196.38 191.12,-177 233.07,-140.71 383.25,-149.08 438.12,-141 443.39,-140.23 448.92,-139.41 454.39,-138.6"/>
<polygon fill="#63b8ff" stroke="#63b8ff" points="454.55,-142.11 463.93,-137.18 453.52,-135.19 454.55,-142.11"/>
</a>
</g>
</g>
<!-- Node9 -->
<g id="Node000009" class="node">
<title>Node9</title>
<g id="a_Node000009"><a xlink:title=" ">
<polygon fill="#e0e0e0" stroke="#999999" points="417.75,-251.5 366.5,-251.5 366.5,-232.25 417.75,-232.25 417.75,-251.5"/>
<text text-anchor="middle" x="392.12" y="-238" font-family="Helvetica,sans-Serif" font-size="10.00">memory</text>
</a>
</g>
</g>
<!-- Node2&#45;&gt;Node9 -->
<g id="edge8_Node000002_Node000009" class="edge">
<title>Node2&#45;&gt;Node9</title>
<g id="a_edge8_Node000002_Node000009"><a xlink:title=" ">
<path fill="none" stroke="#63b8ff" d="M268.81,-397.83C276.56,-388.89 288.84,-374.62 299.12,-362 327.87,-326.75 360.33,-284.62 378.29,-261.09"/>
<polygon fill="#63b8ff" stroke="#63b8ff" points="381.06,-263.22 384.34,-253.15 375.49,-258.98 381.06,-263.22"/>
</a>
</g>
</g>
<!-- Node10 -->
<g id="Node000010" class="node">
<title>Node10</title>
<g id="a_Node000010"><a xlink:title=" ">
<polygon fill="#e0e0e0" stroke="#999999" points="290.12,-362 232.12,-362 232.12,-342.75 290.12,-342.75 290.12,-362"/>
<text text-anchor="middle" x="261.12" y="-348.5" font-family="Helvetica,sans-Serif" font-size="10.00">esp_log.h</text>
</a>
</g>
</g>
<!-- Node2&#45;&gt;Node10 -->
<g id="edge9_Node000002_Node000010" class="edge">
<title>Node2&#45;&gt;Node10</title>
<g id="a_edge9_Node000002_Node000010"><a xlink:title=" ">
<path fill="none" stroke="#63b8ff" d="M261.12,-397.83C261.12,-391.32 261.12,-382.17 261.12,-373.87"/>
<polygon fill="#63b8ff" stroke="#63b8ff" points="264.63,-373.87 261.13,-363.87 257.63,-373.87 264.63,-373.87"/>
</a>
</g>
</g>
<!-- Node11 -->
<g id="Node000011" class="node">
<title>Node11</title>
<g id="a_Node000011"><a xlink:href="filesystem_8h.html" target="_top" xlink:title=" ">
<polygon fill="white" stroke="#666666" points="144.25,-362 0,-362 0,-342.75 144.25,-342.75 144.25,-362"/>
<text text-anchor="middle" x="72.12" y="-348.5" font-family="Helvetica,sans-Serif" font-size="10.00">sensesp/system/filesystem.h</text>
</a>
</g>
</g>
<!-- Node2&#45;&gt;Node11 -->
<g id="edge10_Node000002_Node000011" class="edge">
<title>Node2&#45;&gt;Node11</title>
<g id="a_edge10_Node000002_Node000011"><a xlink:title=" ">
<path fill="none" stroke="#63b8ff" d="M229.06,-397.59C197.7,-388.76 149.74,-375.24 115.09,-365.48"/>
<polygon fill="#63b8ff" stroke="#63b8ff" points="116.37,-362.21 105.8,-362.86 114.48,-368.94 116.37,-362.21"/>
</a>
</g>
</g>
<!-- Node14 -->
<g id="Node000014" class="node">
<title>Node14</title>
<g id="a_Node000014"><a xlink:href="observablevalue_8h.html" target="_top" xlink:title=" ">
<polygon fill="white" stroke="#666666" points="549,-362 379.25,-362 379.25,-342.75 549,-342.75 549,-362"/>
<text text-anchor="middle" x="464.12" y="-348.5" font-family="Helvetica,sans-Serif" font-size="10.00">sensesp/system/observablevalue.h</text>
</a>
</g>
</g>
<!-- Node2&#45;&gt;Node14 -->
<g id="edge13_Node000002_Node000014" class="edge">
<title>Node2&#45;&gt;Node14</title>
<g id="a_edge13_Node000002_Node000014"><a xlink:title=" ">
<path fill="none" stroke="#63b8ff" d="M295.56,-397.59C329.39,-388.72 381.21,-375.12 418.46,-365.35"/>
<polygon fill="#63b8ff" stroke="#63b8ff" points="419.27,-368.76 428.06,-362.84 417.5,-361.99 419.27,-368.76"/>
</a>
</g>
</g>
<!-- Node4 -->
<g id="Node000004" class="node">
<title>Node4</title>
<g id="a_Node000004"><a xlink:title=" ">
<polygon fill="#e0e0e0" stroke="#999999" points="548.75,-80.12 479.5,-80.12 479.5,-60.88 548.75,-60.88 548.75,-80.12"/>
<text text-anchor="middle" x="514.12" y="-66.62" font-family="Helvetica,sans-Serif" font-size="10.00">ReactESP.h</text>
</a>
</g>
</g>
<!-- Node3&#45;&gt;Node4 -->
<g id="edge3_Node000003_Node000004" class="edge">
<title>Node3&#45;&gt;Node4</title>
<g id="a_edge3_Node000003_Node000004"><a xlink:title=" ">
<path fill="none" stroke="#63b8ff" d="M498.86,-121.43C501.29,-113.48 504.93,-101.56 508.05,-91.37"/>
<polygon fill="#63b8ff" stroke="#63b8ff" points="511.35,-92.56 510.92,-81.97 504.65,-90.51 511.35,-92.56"/>
</a>
</g>
</g>
<!-- Node5 -->
<g id="Node000005" class="node">
<title>Node5</title>
<g id="a_Node000005"><a xlink:href="local__debug_8h.html" target="_top" xlink:title=" ">
<polygon fill="white" stroke="#666666" points="461.75,-85.75 350.5,-85.75 350.5,-55.25 461.75,-55.25 461.75,-85.75"/>
<text text-anchor="start" x="358.5" y="-72.25" font-family="Helvetica,sans-Serif" font-size="10.00">sensesp/system/local</text>
<text text-anchor="middle" x="406.12" y="-61" font-family="Helvetica,sans-Serif" font-size="10.00">_debug.h</text>
</a>
</g>
</g>
<!-- Node3&#45;&gt;Node5 -->
<g id="edge4_Node000003_Node000005" class="edge">
<title>Node3&#45;&gt;Node5</title>
<g id="a_edge4_Node000003_Node000005"><a xlink:title=" ">
<path fill="none" stroke="#63b8ff" d="M482.46,-121.43C470.68,-113.73 453.21,-102.3 437.96,-92.33"/>
<polygon fill="#63b8ff" stroke="#63b8ff" points="439.89,-89.41 429.61,-86.86 436.06,-95.26 439.89,-89.41"/>
</a>
</g>
</g>
<!-- Node6 -->
<g id="Node000006" class="node">
<title>Node6</title>
<g id="a_Node000006"><a xlink:title=" ">
<polygon fill="#e0e0e0" stroke="#999999" points="488.12,-19.25 406.12,-19.25 406.12,0 488.12,0 488.12,-19.25"/>
<text text-anchor="middle" x="447.12" y="-5.75" font-family="Helvetica,sans-Serif" font-size="10.00">esp32&#45;hal&#45;log.h</text>
</a>
</g>
</g>
<!-- Node5&#45;&gt;Node6 -->
<g id="edge5_Node000005_Node000006" class="edge">
<title>Node5&#45;&gt;Node6</title>
<g id="a_edge5_Node000005_Node000006"><a xlink:title=" ">
<path fill="none" stroke="#63b8ff" d="M416.26,-54.95C421.72,-47.1 428.52,-37.35 434.34,-28.99"/>
<polygon fill="#63b8ff" stroke="#63b8ff" points="437.1,-31.15 439.94,-20.94 431.35,-27.15 437.1,-31.15"/>
</a>
</g>
</g>
<!-- Node7 -->
<g id="Node000007" class="node">
<title>Node7</title>
<g id="a_Node000007"><a xlink:title=" ">
<polygon fill="#e0e0e0" stroke="#999999" points="630.75,-19.25 573.5,-19.25 573.5,0 630.75,0 630.75,-19.25"/>
<text text-anchor="middle" x="602.12" y="-5.75" font-family="Helvetica,sans-Serif" font-size="10.00">Arduino.h</text>
</a>
</g>
</g>
<!-- Node5&#45;&gt;Node7 -->
<g id="edge6_Node000005_Node000007" class="edge">
<title>Node5&#45;&gt;Node7</title>
<g id="a_edge6_Node000005_Node000007"><a xlink:title=" ">
<path fill="none" stroke="#63b8ff" d="M455.08,-54.8C488.2,-44.85 531.4,-31.87 562.39,-22.56"/>
<polygon fill="#63b8ff" stroke="#63b8ff" points="563.19,-25.97 571.76,-19.75 561.18,-19.27 563.19,-25.97"/>
</a>
</g>
</g>
<!-- Node8 -->
<g id="Node000008" class="node">
<title>Node8</title>
<g id="a_Node000008"><a xlink:title=" ">
<polygon fill="#e0e0e0" stroke="#999999" points="388.38,-19.25 343.88,-19.25 343.88,0 388.38,0 388.38,-19.25"/>
<text text-anchor="middle" x="366.12" y="-5.75" font-family="Helvetica,sans-Serif" font-size="10.00">Print.h</text>
</a>
</g>
</g>
<!-- Node5&#45;&gt;Node8 -->
<g id="edge7_Node000005_Node000008" class="edge">
<title>Node5&#45;&gt;Node8</title>
<g id="a_edge7_Node000005_Node000008"><a xlink:title=" ">
<path fill="none" stroke="#63b8ff" d="M396.24,-54.95C390.91,-47.1 384.28,-37.35 378.6,-28.99"/>
<polygon fill="#63b8ff" stroke="#63b8ff" points="381.66,-27.26 373.14,-20.95 375.87,-31.19 381.66,-27.26"/>
</a>
</g>
</g>
<!-- Node12 -->
<g id="Node000012" class="node">
<title>Node12</title>
<g id="a_Node000012"><a xlink:href="resettable_8h.html" target="_top" xlink:title=" ">
<polygon fill="white" stroke="#666666" points="105.62,-306.75 38.62,-306.75 38.62,-287.5 105.62,-287.5 105.62,-306.75"/>
<text text-anchor="middle" x="72.12" y="-293.25" font-family="Helvetica,sans-Serif" font-size="10.00">resettable.h</text>
</a>
</g>
</g>
<!-- Node11&#45;&gt;Node12 -->
<g id="edge11_Node000011_Node000012" class="edge">
<title>Node11&#45;&gt;Node12</title>
<g id="a_edge11_Node000011_Node000012"><a xlink:title=" ">
<path fill="none" stroke="#63b8ff" d="M72.12,-342.58C72.12,-336.07 72.12,-326.92 72.12,-318.62"/>
<polygon fill="#63b8ff" stroke="#63b8ff" points="75.63,-318.62 72.13,-308.62 68.63,-318.62 75.63,-318.62"/>
</a>
</g>
</g>
<!-- Node13 -->
<g id="Node000013" class="node">
<title>Node13</title>
<g id="a_Node000013"><a xlink:title=" ">
<polygon fill="#e0e0e0" stroke="#999999" points="93.25,-251.5 51,-251.5 51,-232.25 93.25,-232.25 93.25,-251.5"/>
<text text-anchor="middle" x="72.12" y="-238" font-family="Helvetica,sans-Serif" font-size="10.00">queue</text>
</a>
</g>
</g>
<!-- Node12&#45;&gt;Node13 -->
<g id="edge12_Node000012_Node000013" class="edge">
<title>Node12&#45;&gt;Node13</title>
<g id="a_edge12_Node000012_Node000013"><a xlink:title=" ">
<path fill="none" stroke="#63b8ff" d="M72.12,-287.33C72.12,-280.82 72.12,-271.67 72.12,-263.37"/>
<polygon fill="#63b8ff" stroke="#63b8ff" points="75.63,-263.37 72.13,-253.37 68.63,-263.37 75.63,-263.37"/>
</a>
</g>
</g>
<!-- Node15 -->
<g id="Node000015" class="node">
<title>Node15</title>
<g id="a_Node000015"><a xlink:href="saveable_8h.html" target="_top" xlink:title=" ">
<polygon fill="white" stroke="#666666" points="616.75,-251.5 553.5,-251.5 553.5,-232.25 616.75,-232.25 616.75,-251.5"/>
<text text-anchor="middle" x="585.12" y="-238" font-family="Helvetica,sans-Serif" font-size="10.00">saveable.h</text>
</a>
</g>
</g>
<!-- Node14&#45;&gt;Node15 -->
<g id="edge14_Node000014_Node000015" class="edge">
<title>Node14&#45;&gt;Node15</title>
<g id="a_edge14_Node000014_Node000015"><a xlink:title=" ">
<path fill="none" stroke="#63b8ff" d="M472.5,-342.36C484.43,-329.66 507.2,-306.02 528.12,-287.5 539.63,-277.32 553.14,-266.69 564.12,-258.36"/>
<polygon fill="#63b8ff" stroke="#63b8ff" points="565.89,-261.41 571.79,-252.61 561.69,-255.81 565.89,-261.41"/>
</a>
</g>
</g>
<!-- Node18 -->
<g id="Node000018" class="node">
<title>Node18</title>
<g id="a_Node000018"><a xlink:href="observable_8h.html" target="_top" xlink:title=" ">
<polygon fill="white" stroke="#666666" points="348.88,-251.5 277.38,-251.5 277.38,-232.25 348.88,-232.25 348.88,-251.5"/>
<text text-anchor="middle" x="313.12" y="-238" font-family="Helvetica,sans-Serif" font-size="10.00">observable.h</text>
</a>
</g>
</g>
<!-- Node14&#45;&gt;Node18 -->
<g id="edge22_Node000014_Node000018" class="edge">
<title>Node14&#45;&gt;Node18</title>
<g id="a_edge22_Node000014_Node000018"><a xlink:title=" ">
<path fill="none" stroke="#63b8ff" d="M446.69,-342.27C430.93,-333.78 407.33,-320.41 388.12,-306.75 367.35,-291.97 345.34,-272.75 330.58,-259.27"/>
<polygon fill="#63b8ff" stroke="#63b8ff" points="333.23,-256.95 323.51,-252.73 328.48,-262.09 333.23,-256.95"/>
</a>
</g>
</g>
<!-- Node22 -->
<g id="Node000022" class="node">
<title>Node22</title>
<g id="a_Node000022"><a xlink:href="config__item_8h.html" target="_top" xlink:title=" ">
<polygon fill="white" stroke="#666666" points="661.5,-306.75 536.75,-306.75 536.75,-287.5 661.5,-287.5 661.5,-306.75"/>
<text text-anchor="middle" x="599.12" y="-293.25" font-family="Helvetica,sans-Serif" font-size="10.00">sensesp/ui/config_item.h</text>
</a>
</g>
</g>
<!-- Node14&#45;&gt;Node22 -->
<g id="edge26_Node000014_Node000022" class="edge">
<title>Node14&#45;&gt;Node22</title>
<g id="a_edge26_Node000014_Node000022"><a xlink:title=" ">
<path fill="none" stroke="#63b8ff" d="M487.03,-342.34C508.55,-333.85 541.04,-321.04 565.5,-311.39"/>
<polygon fill="#63b8ff" stroke="#63b8ff" points="566.69,-314.68 574.7,-307.76 564.12,-308.17 566.69,-314.68"/>
</a>
</g>
</g>
<!-- Node24 -->
<g id="Node000024" class="node">
<title>Node24</title>
<g id="a_Node000024"><a xlink:href="valueproducer_8h.html" target="_top" xlink:title=" ">
<polygon fill="white" stroke="#666666" points="481.25,-306.75 397,-306.75 397,-287.5 481.25,-287.5 481.25,-306.75"/>
<text text-anchor="middle" x="439.12" y="-293.25" font-family="Helvetica,sans-Serif" font-size="10.00">valueproducer.h</text>
</a>
</g>
</g>
<!-- Node14&#45;&gt;Node24 -->
<g id="edge33_Node000014_Node000024" class="edge">
<title>Node14&#45;&gt;Node24</title>
<g id="a_edge33_Node000014_Node000024"><a xlink:title=" ">
<path fill="none" stroke="#63b8ff" d="M460,-342.58C456.8,-335.76 452.24,-326.06 448.2,-317.45"/>
<polygon fill="#63b8ff" stroke="#63b8ff" points="451.4,-316.04 443.99,-308.48 445.07,-319.02 451.4,-316.04"/>
</a>
</g>
</g>
<!-- Node15&#45;&gt;Node3 -->
<g id="edge15_Node000015_Node000003" class="edge">
<title>Node15&#45;&gt;Node3</title>
<g id="a_edge15_Node000015_Node000003"><a xlink:title=" ">
<path fill="none" stroke="#63b8ff" d="M577.84,-232C563.17,-214.11 529.84,-173.47 510.58,-150"/>
<polygon fill="#63b8ff" stroke="#63b8ff" points="513.52,-148.06 504.47,-142.55 508.1,-152.5 513.52,-148.06"/>
</a>
</g>
</g>
<!-- Node15&#45;&gt;Node7 -->
<g id="edge17_Node000015_Node000007" class="edge">
<title>Node15&#45;&gt;Node7</title>
<g id="a_edge17_Node000015_Node000007"><a xlink:title=" ">
<path fill="none" stroke="#63b8ff" d="M585.79,-231.85C588.29,-198.03 597.12,-78.35 600.65,-30.55"/>
<polygon fill="#63b8ff" stroke="#63b8ff" points="604.12,-31.08 601.37,-20.85 597.14,-30.57 604.12,-31.08"/>
</a>
</g>
</g>
<!-- Node16 -->
<g id="Node000016" class="node">
<title>Node16</title>
<g id="a_Node000016"><a xlink:title=" ">
<polygon fill="#e0e0e0" stroke="#999999" points="746.25,-141 668,-141 668,-121.75 746.25,-121.75 746.25,-141"/>
<text text-anchor="middle" x="707.12" y="-127.5" font-family="Helvetica,sans-Serif" font-size="10.00">ArduinoJson.h</text>
</a>
</g>
</g>
<!-- Node15&#45;&gt;Node16 -->
<g id="edge16_Node000015_Node000016" class="edge">
<title>Node15&#45;&gt;Node16</title>
<g id="a_edge16_Node000015_Node000016"><a xlink:title=" ">
<path fill="none" stroke="#63b8ff" d="M616.81,-234.65C639.66,-228.58 669.63,-217.1 688.12,-196.25 698.82,-184.19 703.5,-166.33 705.55,-152.56"/>
<polygon fill="#63b8ff" stroke="#63b8ff" points="709,-153.18 706.62,-142.86 702.04,-152.41 709,-153.18"/>
</a>
</g>
</g>
<!-- Node17 -->
<g id="Node000017" class="node">
<title>Node17</title>
<g id="a_Node000017"><a xlink:href="serializable_8h.html" target="_top" xlink:title=" ">
<polygon fill="white" stroke="#666666" points="678.62,-196.25 605.62,-196.25 605.62,-177 678.62,-177 678.62,-196.25"/>
<text text-anchor="middle" x="642.12" y="-182.75" font-family="Helvetica,sans-Serif" font-size="10.00">serializable.h</text>
</a>
</g>
</g>
<!-- Node15&#45;&gt;Node17 -->
<g id="edge18_Node000015_Node000017" class="edge">
<title>Node15&#45;&gt;Node17</title>
<g id="a_edge18_Node000015_Node000017"><a xlink:title=" ">
<path fill="none" stroke="#63b8ff" d="M594.79,-231.84C602.87,-224.3 614.59,-213.35 624.35,-204.23"/>
<polygon fill="#63b8ff" stroke="#63b8ff" points="626.57,-206.94 631.49,-197.56 621.8,-201.83 626.57,-206.94"/>
</a>
</g>
</g>
<!-- Node17&#45;&gt;Node3 -->
<g id="edge19_Node000017_Node000003" class="edge">
<title>Node17&#45;&gt;Node3</title>
<g id="a_edge19_Node000017_Node000003"><a xlink:title=" ">
<path fill="none" stroke="#63b8ff" d="M617.36,-176.59C593.87,-168.02 558.31,-155.06 531.77,-145.38"/>
<polygon fill="#63b8ff" stroke="#63b8ff" points="533.03,-142.11 522.44,-141.97 530.63,-148.69 533.03,-142.11"/>
</a>
</g>
</g>
<!-- Node17&#45;&gt;Node7 -->
<g id="edge21_Node000017_Node000007" class="edge">
<title>Node17&#45;&gt;Node7</title>
<g id="a_edge21_Node000017_Node000007"><a xlink:title=" ">
<path fill="none" stroke="#63b8ff" d="M640.09,-176.71C633.94,-149.8 615.45,-68.94 606.75,-30.87"/>
<polygon fill="#63b8ff" stroke="#63b8ff" points="610.19,-30.18 604.54,-21.21 603.36,-31.74 610.19,-30.18"/>
</a>
</g>
</g>
<!-- Node17&#45;&gt;Node16 -->
<g id="edge20_Node000017_Node000016" class="edge">
<title>Node17&#45;&gt;Node16</title>
<g id="a_edge20_Node000017_Node000016"><a xlink:title=" ">
<path fill="none" stroke="#63b8ff" d="M653.15,-176.59C662.55,-168.9 676.27,-157.65 687.53,-148.43"/>
<polygon fill="#63b8ff" stroke="#63b8ff" points="689.57,-151.28 695.09,-142.23 685.14,-145.86 689.57,-151.28"/>
</a>
</g>
</g>
<!-- Node19 -->
<g id="Node000019" class="node">
<title>Node19</title>
<g id="a_Node000019"><a xlink:title=" ">
<polygon fill="#e0e0e0" stroke="#999999" points="266.25,-196.25 200,-196.25 200,-177 266.25,-177 266.25,-196.25"/>
<text text-anchor="middle" x="233.12" y="-182.75" font-family="Helvetica,sans-Serif" font-size="10.00">forward_list</text>
</a>
</g>
</g>
<!-- Node18&#45;&gt;Node19 -->
<g id="edge23_Node000018_Node000019" class="edge">
<title>Node18&#45;&gt;Node19</title>
<g id="a_edge23_Node000018_Node000019"><a xlink:title=" ">
<path fill="none" stroke="#63b8ff" d="M299.55,-231.84C287.72,-223.96 270.29,-212.36 256.25,-203.02"/>
<polygon fill="#63b8ff" stroke="#63b8ff" points="258.29,-200.17 248.02,-197.54 254.41,-206 258.29,-200.17"/>
</a>
</g>
</g>
<!-- Node20 -->
<g id="Node000020" class="node">
<title>Node20</title>
<g id="a_Node000020"><a xlink:title=" ">
<polygon fill="#e0e0e0" stroke="#999999" points="342.12,-196.25 284.12,-196.25 284.12,-177 342.12,-177 342.12,-196.25"/>
<text text-anchor="middle" x="313.12" y="-182.75" font-family="Helvetica,sans-Serif" font-size="10.00">functional</text>
</a>
</g>
</g>
<!-- Node18&#45;&gt;Node20 -->
<g id="edge24_Node000018_Node000020" class="edge">
<title>Node18&#45;&gt;Node20</title>
<g id="a_edge24_Node000018_Node000020"><a xlink:title=" ">
<path fill="none" stroke="#63b8ff" d="M313.12,-232.08C313.12,-225.57 313.12,-216.42 313.12,-208.12"/>
<polygon fill="#63b8ff" stroke="#63b8ff" points="316.63,-208.12 313.13,-198.12 309.63,-208.12 316.63,-208.12"/>
</a>
</g>
</g>
<!-- Node21 -->
<g id="Node000021" class="node">
<title>Node21</title>
<g id="a_Node000021"><a xlink:title=" ">
<polygon fill="#e0e0e0" stroke="#999999" points="510.62,-196.25 467.62,-196.25 467.62,-177 510.62,-177 510.62,-196.25"/>
<text text-anchor="middle" x="489.12" y="-182.75" font-family="Helvetica,sans-Serif" font-size="10.00">vector</text>
</a>
</g>
</g>
<!-- Node18&#45;&gt;Node21 -->
<g id="edge25_Node000018_Node000021" class="edge">
<title>Node18&#45;&gt;Node21</title>
<g id="a_edge25_Node000018_Node000021"><a xlink:title=" ">
<path fill="none" stroke="#63b8ff" d="M342.98,-231.84C374.48,-222.31 423.96,-207.34 456.47,-197.51"/>
<polygon fill="#63b8ff" stroke="#63b8ff" points="457.2,-200.94 465.76,-194.7 455.17,-194.24 457.2,-200.94"/>
</a>
</g>
</g>
<!-- Node22&#45;&gt;Node7 -->
<g id="edge30_Node000022_Node000007" class="edge">
<title>Node22&#45;&gt;Node7</title>
<g id="a_edge30_Node000022_Node000007"><a xlink:title=" ">
<path fill="none" stroke="#63b8ff" d="M661.78,-292.61C727.91,-287.64 826.35,-276.23 854.12,-251.5 876.25,-231.8 873.12,-217.24 873.12,-187.62 873.12,-187.62 873.12,-187.62 873.12,-130.38 873.12,-30.77 718.07,-13.33 642.53,-10.75"/>
<polygon fill="#63b8ff" stroke="#63b8ff" points="642.73,-7.25 632.64,-10.49 642.55,-14.25 642.73,-7.25"/>
</a>
</g>
</g>
<!-- Node22&#45;&gt;Node9 -->
<g id="edge28_Node000022_Node000009" class="edge">
<title>Node22&#45;&gt;Node9</title>
<g id="a_edge28_Node000022_Node000009"><a xlink:title=" ">
<path fill="none" stroke="#63b8ff" d="M564.01,-287.09C526.59,-277.46 467.57,-262.28 429.36,-252.45"/>
<polygon fill="#63b8ff" stroke="#63b8ff" points="430.24,-249.07 419.68,-249.96 428.49,-255.84 430.24,-249.07"/>
</a>
</g>
</g>
<!-- Node22&#45;&gt;Node15 -->
<g id="edge32_Node000022_Node000015" class="edge">
<title>Node22&#45;&gt;Node15</title>
<g id="a_edge32_Node000022_Node000015"><a xlink:title=" ">
<path fill="none" stroke="#63b8ff" d="M596.81,-287.33C595.06,-280.67 592.58,-271.24 590.36,-262.78"/>
<polygon fill="#63b8ff" stroke="#63b8ff" points="593.8,-262.1 587.87,-253.32 587.03,-263.88 593.8,-262.1"/>
</a>
</g>
</g>
<!-- Node22&#45;&gt;Node16 -->
<g id="edge31_Node000022_Node000016" class="edge">
<title>Node22&#45;&gt;Node16</title>
<g id="a_edge31_Node000022_Node000016"><a xlink:title=" ">
<path fill="none" stroke="#63b8ff" d="M659.54,-287C699.54,-279.59 746.83,-267.69 759.12,-251.5 779.15,-225.13 772.95,-207.09 759.12,-177 753.67,-165.12 743.31,-155.22 733.27,-147.78"/>
<polygon fill="#63b8ff" stroke="#63b8ff" points="735.4,-145 725.17,-142.28 731.47,-150.79 735.4,-145"/>
</a>
</g>
</g>
<!-- Node22&#45;&gt;Node21 -->
<g id="edge29_Node000022_Node000021" class="edge">
<title>Node22&#45;&gt;Node21</title>
<g id="a_edge29_Node000022_Node000021"><a xlink:title=" ">
<path fill="none" stroke="#63b8ff" d="M586.8,-287.13C575.3,-278.51 557.89,-264.86 544.12,-251.5 529.09,-236.9 513.66,-218.64 502.99,-205.39"/>
<polygon fill="#63b8ff" stroke="#63b8ff" points="506.03,-203.59 497.07,-197.93 500.54,-207.94 506.03,-203.59"/>
</a>
</g>
</g>
<!-- Node23 -->
<g id="Node000023" class="node">
<title>Node23</title>
<g id="a_Node000023"><a xlink:title=" ">
<polygon fill="#e0e0e0" stroke="#999999" points="845.5,-251.5 810.75,-251.5 810.75,-232.25 845.5,-232.25 845.5,-251.5"/>
<text text-anchor="middle" x="828.12" y="-238" font-family="Helvetica,sans-Serif" font-size="10.00">map</text>
</a>
</g>
</g>
<!-- Node22&#45;&gt;Node23 -->
<g id="edge27_Node000022_Node000023" class="edge">
<title>Node22&#45;&gt;Node23</title>
<g id="a_edge27_Node000022_Node000023"><a xlink:title=" ">
<path fill="none" stroke="#63b8ff" d="M642.14,-287.07C682.35,-278.46 743.99,-264.87 797.12,-251.5 797.94,-251.3 798.76,-251.09 799.59,-250.87"/>
<polygon fill="#63b8ff" stroke="#63b8ff" points="800.25,-254.32 809,-248.35 798.43,-247.56 800.25,-254.32"/>
</a>
</g>
</g>
<!-- Node24&#45;&gt;Node9 -->
<g id="edge35_Node000024_Node000009" class="edge">
<title>Node24&#45;&gt;Node9</title>
<g id="a_edge35_Node000024_Node000009"><a xlink:title=" ">
<path fill="none" stroke="#63b8ff" d="M431.36,-287.33C424.94,-280.05 415.61,-269.48 407.66,-260.48"/>
<polygon fill="#63b8ff" stroke="#63b8ff" points="410.3,-258.18 401.06,-252.99 405.05,-262.81 410.3,-258.18"/>
</a>
</g>
</g>
<!-- Node24&#45;&gt;Node16 -->
<g id="edge34_Node000024_Node000016" class="edge">
<title>Node24&#45;&gt;Node16</title>
<g id="a_edge34_Node000024_Node000016"><a xlink:title=" ">
<path fill="none" stroke="#63b8ff" d="M481.39,-290.54C520.24,-284.37 578.81,-272.43 626.12,-251.5 665.98,-233.87 686.77,-234.78 707.12,-196.25 714.19,-182.88 713.73,-165.62 711.75,-152.41"/>
<polygon fill="#63b8ff" stroke="#63b8ff" points="715.22,-151.89 709.88,-142.74 708.34,-153.22 715.22,-151.89"/>
</a>
</g>
</g>
<!-- Node24&#45;&gt;Node18 -->
<g id="edge36_Node000024_Node000018" class="edge">
<title>Node24&#45;&gt;Node18</title>
<g id="a_edge36_Node000024_Node000018"><a xlink:title=" ">
<path fill="none" stroke="#63b8ff" d="M417.75,-287.09C397.84,-278.68 367.89,-266.02 345.12,-256.4"/>
<polygon fill="#63b8ff" stroke="#63b8ff" points="346.57,-253.21 336,-252.54 343.85,-259.66 346.57,-253.21"/>
</a>
</g>
</g>
<!-- Node25 -->
<g id="Node000025" class="node">
<title>Node25</title>
<g id="a_Node000025"><a xlink:href="valueconsumer_8h.html" target="_top" xlink:title=" ">
<polygon fill="white" stroke="#666666" points="449.88,-196.25 360.38,-196.25 360.38,-177 449.88,-177 449.88,-196.25"/>
<text text-anchor="middle" x="405.12" y="-182.75" font-family="Helvetica,sans-Serif" font-size="10.00">valueconsumer.h</text>
</a>
</g>
</g>
<!-- Node24&#45;&gt;Node25 -->
<g id="edge37_Node000024_Node000025" class="edge">
<title>Node24&#45;&gt;Node25</title>
<g id="a_edge37_Node000024_Node000025"><a xlink:title=" ">
<path fill="none" stroke="#63b8ff" d="M438.23,-287.26C436.8,-274.74 433.48,-251.3 427.12,-232.25 424.22,-223.55 419.95,-214.39 415.93,-206.65"/>
<polygon fill="#63b8ff" stroke="#63b8ff" points="419.01,-204.98 411.15,-197.87 412.86,-208.33 419.01,-204.98"/>
</a>
</g>
</g>
<!-- Node25&#45;&gt;Node3 -->
<g id="edge38_Node000025_Node000003" class="edge">
<title>Node25&#45;&gt;Node3</title>
<g id="a_edge38_Node000025_Node000003"><a xlink:title=" ">
<path fill="none" stroke="#63b8ff" d="M420.56,-176.59C434.29,-168.56 454.62,-156.66 470.74,-147.23"/>
<polygon fill="#63b8ff" stroke="#63b8ff" points="472.44,-150.29 479.31,-142.22 468.91,-144.25 472.44,-150.29"/>
</a>
</g>
</g>
<!-- Node25&#45;&gt;Node16 -->
<g id="edge39_Node000025_Node000016" class="edge">
<title>Node25&#45;&gt;Node16</title>
<g id="a_edge39_Node000025_Node000016"><a xlink:title=" ">
<path fill="none" stroke="#63b8ff" d="M450.34,-177.65C505.72,-167.89 599.25,-151.4 656.84,-141.24"/>
<polygon fill="#63b8ff" stroke="#63b8ff" points="657.13,-144.74 666.37,-139.56 655.92,-137.85 657.13,-144.74"/>
</a>
</g>
</g>
<!-- Node26 -->
<g id="Node000026" class="node">
<title>Node26</title>
<g id="a_Node000026"><a xlink:title=" ">
<polygon fill="#e0e0e0" stroke="#999999" points="429.25,-141 381,-141 381,-121.75 429.25,-121.75 429.25,-141"/>
<text text-anchor="middle" x="405.12" y="-127.5" font-family="Helvetica,sans-Serif" font-size="10.00">stdint.h</text>
</a>
</g>
</g>
<!-- Node25&#45;&gt;Node26 -->
<g id="edge40_Node000025_Node000026" class="edge">
<title>Node25&#45;&gt;Node26</title>
<g id="a_edge40_Node000025_Node000026"><a xlink:title=" ">
<path fill="none" stroke="#63b8ff" d="M405.12,-176.83C405.12,-170.32 405.12,-161.17 405.12,-152.87"/>
<polygon fill="#63b8ff" stroke="#63b8ff" points="408.63,-152.87 405.13,-142.87 401.63,-152.87 408.63,-152.87"/>
</a>
</g>
</g>
</g>
</svg>
