<?xml version="1.0" encoding="UTF-8" standalone="no"?>
<!DOCTYPE svg PUBLIC "-//W3C//DTD SVG 1.1//EN"
 "http://www.w3.org/Graphics/SVG/1.1/DTD/svg11.dtd">
<!-- Generated by graphviz version 12.1.0 (20240811.2233)
 -->
<!-- Title: src/sensesp.cpp Pages: 1 -->
<!--zoomable 481 -->

<svg id="main" version="1.1" xmlns="http://www.w3.org/2000/svg" xmlns:xlink="http://www.w3.org/1999/xlink" xml:space="preserve" onload="init(evt)">

<style type="text/css"><![CDATA[
.node, .edge {opacity: 0.7;}
.node.selected, .edge.selected {opacity: 1;}
.edge:hover path { stroke: red; }
.edge:hover polygon { stroke: red; fill: red; }
]]></style>

<defs>
  <circle id="rim" cx="0" cy="0" r="7"/>
  <circle id="rim2" cx="0" cy="0" r="3.5"/>
  <g id="zoomPlus">
    <use xlink:href="#rim" fill="#404040"><set attributeName="fill" to="#808080" begin="zoomplus.mouseover" end="zoomplus.mouseout"/></use>
    <path d="M-4,0h8M0,-4v8" fill="none" stroke="white" stroke-width="1.5" pointer-events="none"/>
  </g>
  <g id="zoomMin">
    <use xlink:href="#rim" fill="#404040"><set attributeName="fill" to="#808080" begin="zoomminus.mouseover" end="zoomminus.mouseout"/></use>
    <path d="M-4,0h8" fill="none" stroke="white" stroke-width="1.5" pointer-events="none"/>
  </g>
  <g id="arrowUp" transform="translate(30 24)">
    <use xlink:href="#rim"/>
    <path pointer-events="none" fill="none" stroke="white" stroke-width="1.5" d="M0,-3.0v7 M-2.5,-0.5L0,-3.0L2.5,-0.5"/>
  </g>
  <g id="arrowRight" transform="rotate(90) translate(36 -43)">
    <use xlink:href="#rim"/>
    <path pointer-events="none" fill="none" stroke="white" stroke-width="1.5" d="M0,-3.0v7 M-2.5,-0.5L0,-3.0L2.5,-0.5"/>
  </g>
  <g id="arrowDown" transform="rotate(180) translate(-30 -48)">
    <use xlink:href="#rim"/>
    <path pointer-events="none" fill="none" stroke="white" stroke-width="1.5" d="M0,-3.0v7 M-2.5,-0.5L0,-3.0L2.5,-0.5"/>
  </g>
  <g id="arrowLeft" transform="rotate(270) translate(-36 17)">
    <use xlink:href="#rim"/>
    <path pointer-events="none" fill="none" stroke="white" stroke-width="1.5" d="M0,-3.0v7 M-2.5,-0.5L0,-3.0L2.5,-0.5"/>
  </g>
  <g id="resetDef">
    <use xlink:href="#rim2" fill="#404040"><set attributeName="fill" to="#808080" begin="reset.mouseover" end="reset.mouseout"/></use>
  </g>
</defs>
<script type="application/ecmascript">
var viewWidth = 840;
var viewHeight = 481;
var sectionId = 'dynsection-0';
</script>
<script type="application/ecmascript" xlink:href="svg.min.js"/>
<svg id="graph" class="graph">
<g id="viewport">
<title>src/sensesp.cpp</title>
<!-- Node1 -->
<g id="Node000001" class="node">
<title>Node1</title>
<g id="a_Node000001"><a xlink:title=" ">
<polygon fill="#999999" stroke="#666666" points="676.12,-472.5 588.12,-472.5 588.12,-453.25 676.12,-453.25 676.12,-472.5"/>
<text text-anchor="middle" x="632.12" y="-459" font-family="Helvetica,sans-Serif" font-size="10.00">src/sensesp.cpp</text>
</a>
</g>
</g>
<!-- Node2 -->
<g id="Node000002" class="node">
<title>Node2</title>
<g id="a_Node000002"><a xlink:href="sensesp_8h.html" target="_top" xlink:title=" ">
<polygon fill="white" stroke="#666666" points="555.62,-141 494.62,-141 494.62,-121.75 555.62,-121.75 555.62,-141"/>
<text text-anchor="middle" x="525.12" y="-127.5" font-family="Helvetica,sans-Serif" font-size="10.00">sensesp.h</text>
</a>
</g>
</g>
<!-- Node1&#45;&gt;Node2 -->
<g id="edge1_Node000001_Node000002" class="edge">
<title>Node1&#45;&gt;Node2</title>
<g id="a_edge1_Node000001_Node000002"><a xlink:title=" ">
<path fill="none" stroke="#63b8ff" d="M676.51,-457.38C735.43,-448.68 832.12,-423.69 832.12,-353.38 832.12,-353.38 832.12,-353.38 832.12,-240.88 832.12,-205.63 815.11,-195.52 785.12,-177 749.36,-154.91 631.19,-141.56 567.19,-135.77"/>
<polygon fill="#63b8ff" stroke="#63b8ff" points="567.68,-132.3 557.41,-134.91 567.07,-139.27 567.68,-132.3"/>
</a>
</g>
</g>
<!-- Node8 -->
<g id="Node000008" class="node">
<title>Node8</title>
<g id="a_Node000008"><a xlink:href="sensesp__base__app_8h.html" target="_top" xlink:title=" ">
<polygon fill="white" stroke="#666666" points="629.25,-417.25 521,-417.25 521,-398 629.25,-398 629.25,-417.25"/>
<text text-anchor="middle" x="575.12" y="-403.75" font-family="Helvetica,sans-Serif" font-size="10.00">sensesp_base_app.h</text>
</a>
</g>
</g>
<!-- Node1&#45;&gt;Node8 -->
<g id="edge7_Node000001_Node000008" class="edge">
<title>Node1&#45;&gt;Node8</title>
<g id="a_edge7_Node000001_Node000008"><a xlink:title=" ">
<path fill="none" stroke="#63b8ff" d="M622.46,-452.84C614.38,-445.3 602.66,-434.35 592.9,-425.23"/>
<polygon fill="#63b8ff" stroke="#63b8ff" points="595.45,-422.83 585.76,-418.56 590.68,-427.94 595.45,-422.83"/>
</a>
</g>
</g>
<!-- Node3 -->
<g id="Node000003" class="node">
<title>Node3</title>
<g id="a_Node000003"><a xlink:title=" ">
<polygon fill="#e0e0e0" stroke="#999999" points="575.75,-80.12 506.5,-80.12 506.5,-60.88 575.75,-60.88 575.75,-80.12"/>
<text text-anchor="middle" x="541.12" y="-66.62" font-family="Helvetica,sans-Serif" font-size="10.00">ReactESP.h</text>
</a>
</g>
</g>
<!-- Node2&#45;&gt;Node3 -->
<g id="edge2_Node000002_Node000003" class="edge">
<title>Node2&#45;&gt;Node3</title>
<g id="a_edge2_Node000002_Node000003"><a xlink:title=" ">
<path fill="none" stroke="#63b8ff" d="M527.56,-121.43C529.72,-113.48 532.95,-101.56 535.73,-91.37"/>
<polygon fill="#63b8ff" stroke="#63b8ff" points="539.03,-92.55 538.28,-81.99 532.28,-90.72 539.03,-92.55"/>
</a>
</g>
</g>
<!-- Node4 -->
<g id="Node000004" class="node">
<title>Node4</title>
<g id="a_Node000004"><a xlink:href="local__debug_8h.html" target="_top" xlink:title=" ">
<polygon fill="white" stroke="#666666" points="488.75,-85.75 377.5,-85.75 377.5,-55.25 488.75,-55.25 488.75,-85.75"/>
<text text-anchor="start" x="385.5" y="-72.25" font-family="Helvetica,sans-Serif" font-size="10.00">sensesp/system/local</text>
<text text-anchor="middle" x="433.12" y="-61" font-family="Helvetica,sans-Serif" font-size="10.00">_debug.h</text>
</a>
</g>
</g>
<!-- Node2&#45;&gt;Node4 -->
<g id="edge3_Node000002_Node000004" class="edge">
<title>Node2&#45;&gt;Node4</title>
<g id="a_edge3_Node000002_Node000004"><a xlink:title=" ">
<path fill="none" stroke="#63b8ff" d="M511.15,-121.43C499,-113.65 480.92,-102.09 465.22,-92.04"/>
<polygon fill="#63b8ff" stroke="#63b8ff" points="467.42,-89.29 457.11,-86.85 463.64,-95.19 467.42,-89.29"/>
</a>
</g>
</g>
<!-- Node5 -->
<g id="Node000005" class="node">
<title>Node5</title>
<g id="a_Node000005"><a xlink:title=" ">
<polygon fill="#e0e0e0" stroke="#999999" points="433.12,-19.25 351.12,-19.25 351.12,0 433.12,0 433.12,-19.25"/>
<text text-anchor="middle" x="392.12" y="-5.75" font-family="Helvetica,sans-Serif" font-size="10.00">esp32&#45;hal&#45;log.h</text>
</a>
</g>
</g>
<!-- Node4&#45;&gt;Node5 -->
<g id="edge4_Node000004_Node000005" class="edge">
<title>Node4&#45;&gt;Node5</title>
<g id="a_edge4_Node000004_Node000005"><a xlink:title=" ">
<path fill="none" stroke="#63b8ff" d="M422.99,-54.95C417.53,-47.1 410.73,-37.35 404.91,-28.99"/>
<polygon fill="#63b8ff" stroke="#63b8ff" points="407.9,-27.15 399.31,-20.94 402.15,-31.15 407.9,-27.15"/>
</a>
</g>
</g>
<!-- Node6 -->
<g id="Node000006" class="node">
<title>Node6</title>
<g id="a_Node000006"><a xlink:title=" ">
<polygon fill="#e0e0e0" stroke="#999999" points="306.75,-19.25 249.5,-19.25 249.5,0 306.75,0 306.75,-19.25"/>
<text text-anchor="middle" x="278.12" y="-5.75" font-family="Helvetica,sans-Serif" font-size="10.00">Arduino.h</text>
</a>
</g>
</g>
<!-- Node4&#45;&gt;Node6 -->
<g id="edge5_Node000004_Node000006" class="edge">
<title>Node4&#45;&gt;Node6</title>
<g id="a_edge5_Node000004_Node000006"><a xlink:title=" ">
<path fill="none" stroke="#63b8ff" d="M394.41,-54.8C369.22,-45.23 336.66,-32.86 312.4,-23.64"/>
<polygon fill="#63b8ff" stroke="#63b8ff" points="313.9,-20.47 303.31,-20.19 311.42,-27.01 313.9,-20.47"/>
</a>
</g>
</g>
<!-- Node7 -->
<g id="Node000007" class="node">
<title>Node7</title>
<g id="a_Node000007"><a xlink:title=" ">
<polygon fill="#e0e0e0" stroke="#999999" points="495.38,-19.25 450.88,-19.25 450.88,0 495.38,0 495.38,-19.25"/>
<text text-anchor="middle" x="473.12" y="-5.75" font-family="Helvetica,sans-Serif" font-size="10.00">Print.h</text>
</a>
</g>
</g>
<!-- Node4&#45;&gt;Node7 -->
<g id="edge6_Node000004_Node000007" class="edge">
<title>Node4&#45;&gt;Node7</title>
<g id="a_edge6_Node000004_Node000007"><a xlink:title=" ">
<path fill="none" stroke="#63b8ff" d="M443.01,-54.95C448.34,-47.1 454.97,-37.35 460.65,-28.99"/>
<polygon fill="#63b8ff" stroke="#63b8ff" points="463.38,-31.19 466.11,-20.95 457.59,-27.26 463.38,-31.19"/>
</a>
</g>
</g>
<!-- Node8&#45;&gt;Node2 -->
<g id="edge8_Node000008_Node000002" class="edge">
<title>Node8&#45;&gt;Node2</title>
<g id="a_edge8_Node000008_Node000002"><a xlink:title=" ">
<path fill="none" stroke="#63b8ff" d="M593.32,-397.65C653.39,-366.9 837.59,-262.91 766.12,-177 741.33,-147.19 629.69,-137.21 567.43,-133.93"/>
<polygon fill="#63b8ff" stroke="#63b8ff" points="567.71,-130.44 557.55,-133.45 567.37,-137.43 567.71,-130.44"/>
</a>
</g>
</g>
<!-- Node9 -->
<g id="Node000009" class="node">
<title>Node9</title>
<g id="a_Node000009"><a xlink:title=" ">
<polygon fill="#e0e0e0" stroke="#999999" points="425.75,-251.5 374.5,-251.5 374.5,-232.25 425.75,-232.25 425.75,-251.5"/>
<text text-anchor="middle" x="400.12" y="-238" font-family="Helvetica,sans-Serif" font-size="10.00">memory</text>
</a>
</g>
</g>
<!-- Node8&#45;&gt;Node9 -->
<g id="edge9_Node000008_Node000009" class="edge">
<title>Node8&#45;&gt;Node9</title>
<g id="a_edge9_Node000008_Node000009"><a xlink:title=" ">
<path fill="none" stroke="#63b8ff" d="M559.66,-397.67C533.15,-381.81 478.33,-346.64 441.12,-306.75 428.49,-293.2 417.36,-275.26 409.9,-261.84"/>
<polygon fill="#63b8ff" stroke="#63b8ff" points="413.06,-260.33 405.26,-253.17 406.89,-263.64 413.06,-260.33"/>
</a>
</g>
</g>
<!-- Node10 -->
<g id="Node000010" class="node">
<title>Node10</title>
<g id="a_Node000010"><a xlink:title=" ">
<polygon fill="#e0e0e0" stroke="#999999" points="804.12,-362 746.12,-362 746.12,-342.75 804.12,-342.75 804.12,-362"/>
<text text-anchor="middle" x="775.12" y="-348.5" font-family="Helvetica,sans-Serif" font-size="10.00">esp_log.h</text>
</a>
</g>
</g>
<!-- Node8&#45;&gt;Node10 -->
<g id="edge10_Node000008_Node000010" class="edge">
<title>Node8&#45;&gt;Node10</title>
<g id="a_edge10_Node000008_Node000010"><a xlink:title=" ">
<path fill="none" stroke="#63b8ff" d="M609.05,-397.59C643.9,-388.31 698.11,-373.88 735.05,-364.04"/>
<polygon fill="#63b8ff" stroke="#63b8ff" points="735.69,-367.5 744.46,-361.54 733.89,-360.73 735.69,-367.5"/>
</a>
</g>
</g>
<!-- Node11 -->
<g id="Node000011" class="node">
<title>Node11</title>
<g id="a_Node000011"><a xlink:href="filesystem_8h.html" target="_top" xlink:title=" ">
<polygon fill="white" stroke="#666666" points="192.25,-362 48,-362 48,-342.75 192.25,-342.75 192.25,-362"/>
<text text-anchor="middle" x="120.12" y="-348.5" font-family="Helvetica,sans-Serif" font-size="10.00">sensesp/system/filesystem.h</text>
</a>
</g>
</g>
<!-- Node8&#45;&gt;Node11 -->
<g id="edge11_Node000008_Node000011" class="edge">
<title>Node8&#45;&gt;Node11</title>
<g id="a_edge11_Node000008_Node000011"><a xlink:title=" ">
<path fill="none" stroke="#63b8ff" d="M520.69,-400.25C442.12,-391.06 296.23,-373.99 203.88,-363.18"/>
<polygon fill="#63b8ff" stroke="#63b8ff" points="204.46,-359.72 194.12,-362.03 203.64,-366.67 204.46,-359.72"/>
</a>
</g>
</g>
<!-- Node14 -->
<g id="Node000014" class="node">
<title>Node14</title>
<g id="a_Node000014"><a xlink:href="observablevalue_8h.html" target="_top" xlink:title=" ">
<polygon fill="white" stroke="#666666" points="394,-362 224.25,-362 224.25,-342.75 394,-342.75 394,-362"/>
<text text-anchor="middle" x="309.12" y="-348.5" font-family="Helvetica,sans-Serif" font-size="10.00">sensesp/system/observablevalue.h</text>
</a>
</g>
</g>
<!-- Node8&#45;&gt;Node14 -->
<g id="edge14_Node000008_Node000014" class="edge">
<title>Node8&#45;&gt;Node14</title>
<g id="a_edge14_Node000008_Node000014"><a xlink:title=" ">
<path fill="none" stroke="#63b8ff" d="M529.7,-397.53C484.27,-388.44 414.31,-374.43 365.39,-364.64"/>
<polygon fill="#63b8ff" stroke="#63b8ff" points="366.34,-361.26 355.85,-362.73 364.96,-368.12 366.34,-361.26"/>
</a>
</g>
</g>
<!-- Node12 -->
<g id="Node000012" class="node">
<title>Node12</title>
<g id="a_Node000012"><a xlink:href="resettable_8h.html" target="_top" xlink:title=" ">
<polygon fill="white" stroke="#666666" points="96.62,-306.75 29.62,-306.75 29.62,-287.5 96.62,-287.5 96.62,-306.75"/>
<text text-anchor="middle" x="63.12" y="-293.25" font-family="Helvetica,sans-Serif" font-size="10.00">resettable.h</text>
</a>
</g>
</g>
<!-- Node11&#45;&gt;Node12 -->
<g id="edge12_Node000011_Node000012" class="edge">
<title>Node11&#45;&gt;Node12</title>
<g id="a_edge12_Node000011_Node000012"><a xlink:title=" ">
<path fill="none" stroke="#63b8ff" d="M110.46,-342.34C102.38,-334.8 90.66,-323.85 80.9,-314.73"/>
<polygon fill="#63b8ff" stroke="#63b8ff" points="83.45,-312.33 73.76,-308.06 78.68,-317.44 83.45,-312.33"/>
</a>
</g>
</g>
<!-- Node13 -->
<g id="Node000013" class="node">
<title>Node13</title>
<g id="a_Node000013"><a xlink:title=" ">
<polygon fill="#e0e0e0" stroke="#999999" points="42.25,-251.5 0,-251.5 0,-232.25 42.25,-232.25 42.25,-251.5"/>
<text text-anchor="middle" x="21.12" y="-238" font-family="Helvetica,sans-Serif" font-size="10.00">queue</text>
</a>
</g>
</g>
<!-- Node12&#45;&gt;Node13 -->
<g id="edge13_Node000012_Node000013" class="edge">
<title>Node12&#45;&gt;Node13</title>
<g id="a_edge13_Node000012_Node000013"><a xlink:title=" ">
<path fill="none" stroke="#63b8ff" d="M56.19,-287.33C50.51,-280.13 42.29,-269.71 35.23,-260.76"/>
<polygon fill="#63b8ff" stroke="#63b8ff" points="38.09,-258.73 29.15,-253.05 32.59,-263.07 38.09,-258.73"/>
</a>
</g>
</g>
<!-- Node15 -->
<g id="Node000015" class="node">
<title>Node15</title>
<g id="a_Node000015"><a xlink:href="saveable_8h.html" target="_top" xlink:title=" ">
<polygon fill="white" stroke="#666666" points="317.75,-251.5 254.5,-251.5 254.5,-232.25 317.75,-232.25 317.75,-251.5"/>
<text text-anchor="middle" x="286.12" y="-238" font-family="Helvetica,sans-Serif" font-size="10.00">saveable.h</text>
</a>
</g>
</g>
<!-- Node14&#45;&gt;Node15 -->
<g id="edge15_Node000014_Node000015" class="edge">
<title>Node14&#45;&gt;Node15</title>
<g id="a_edge15_Node000014_Node000015"><a xlink:title=" ">
<path fill="none" stroke="#63b8ff" d="M307.24,-342.5C303.59,-325.25 295.44,-286.83 290.4,-263.06"/>
<polygon fill="#63b8ff" stroke="#63b8ff" points="293.84,-262.41 288.35,-253.36 287,-263.87 293.84,-262.41"/>
</a>
</g>
</g>
<!-- Node18 -->
<g id="Node000018" class="node">
<title>Node18</title>
<g id="a_Node000018"><a xlink:href="observable_8h.html" target="_top" xlink:title=" ">
<polygon fill="white" stroke="#666666" points="610.88,-251.5 539.38,-251.5 539.38,-232.25 610.88,-232.25 610.88,-251.5"/>
<text text-anchor="middle" x="575.12" y="-238" font-family="Helvetica,sans-Serif" font-size="10.00">observable.h</text>
</a>
</g>
</g>
<!-- Node14&#45;&gt;Node18 -->
<g id="edge23_Node000014_Node000018" class="edge">
<title>Node14&#45;&gt;Node18</title>
<g id="a_edge23_Node000014_Node000018"><a xlink:title=" ">
<path fill="none" stroke="#63b8ff" d="M394.28,-343.1C451.24,-336.09 519.87,-324.33 543.12,-306.75 557.35,-296 565.69,-277.18 570.27,-262.75"/>
<polygon fill="#63b8ff" stroke="#63b8ff" points="573.56,-263.95 572.87,-253.38 566.82,-262.08 573.56,-263.95"/>
</a>
</g>
</g>
<!-- Node22 -->
<g id="Node000022" class="node">
<title>Node22</title>
<g id="a_Node000022"><a xlink:href="config__item_8h.html" target="_top" xlink:title=" ">
<polygon fill="white" stroke="#666666" points="281.5,-306.75 156.75,-306.75 156.75,-287.5 281.5,-287.5 281.5,-306.75"/>
<text text-anchor="middle" x="219.12" y="-293.25" font-family="Helvetica,sans-Serif" font-size="10.00">sensesp/ui/config_item.h</text>
</a>
</g>
</g>
<!-- Node14&#45;&gt;Node22 -->
<g id="edge27_Node000014_Node000022" class="edge">
<title>Node14&#45;&gt;Node22</title>
<g id="a_edge27_Node000014_Node000022"><a xlink:title=" ">
<path fill="none" stroke="#63b8ff" d="M293.86,-342.34C280.28,-334.31 260.17,-322.41 244.23,-312.98"/>
<polygon fill="#63b8ff" stroke="#63b8ff" points="246.16,-310.05 235.77,-307.97 242.59,-316.08 246.16,-310.05"/>
</a>
</g>
</g>
<!-- Node25 -->
<g id="Node000025" class="node">
<title>Node25</title>
<g id="a_Node000025"><a xlink:href="valueproducer_8h.html" target="_top" xlink:title=" ">
<polygon fill="white" stroke="#666666" points="534.25,-306.75 450,-306.75 450,-287.5 534.25,-287.5 534.25,-306.75"/>
<text text-anchor="middle" x="492.12" y="-293.25" font-family="Helvetica,sans-Serif" font-size="10.00">valueproducer.h</text>
</a>
</g>
</g>
<!-- Node14&#45;&gt;Node25 -->
<g id="edge35_Node000014_Node000025" class="edge">
<title>Node14&#45;&gt;Node25</title>
<g id="a_edge35_Node000014_Node000025"><a xlink:title=" ">
<path fill="none" stroke="#63b8ff" d="M340.17,-342.34C370.4,-333.54 416.58,-320.11 450.09,-310.36"/>
<polygon fill="#63b8ff" stroke="#63b8ff" points="450.85,-313.78 459.48,-307.63 448.9,-307.06 450.85,-313.78"/>
</a>
</g>
</g>
<!-- Node15&#45;&gt;Node2 -->
<g id="edge16_Node000015_Node000002" class="edge">
<title>Node15&#45;&gt;Node2</title>
<g id="a_edge16_Node000015_Node000002"><a xlink:title=" ">
<path fill="none" stroke="#63b8ff" d="M317.97,-234.85C378.09,-223.42 502.64,-199.44 506.12,-196.25 518.27,-185.14 522.79,-166.64 524.4,-152.4"/>
<polygon fill="#63b8ff" stroke="#63b8ff" points="527.87,-153.01 525.08,-142.79 520.88,-152.52 527.87,-153.01"/>
</a>
</g>
</g>
<!-- Node15&#45;&gt;Node6 -->
<g id="edge18_Node000015_Node000006" class="edge">
<title>Node15&#45;&gt;Node6</title>
<g id="a_edge18_Node000015_Node000006"><a xlink:title=" ">
<path fill="none" stroke="#63b8ff" d="M279.49,-231.84C267.58,-215.01 243,-177.27 234.12,-141 224.14,-100.19 248.64,-53.92 264.96,-28.95"/>
<polygon fill="#63b8ff" stroke="#63b8ff" points="267.72,-31.12 270.47,-20.88 261.94,-27.17 267.72,-31.12"/>
</a>
</g>
</g>
<!-- Node16 -->
<g id="Node000016" class="node">
<title>Node16</title>
<g id="a_Node000016"><a xlink:title=" ">
<polygon fill="#e0e0e0" stroke="#999999" points="321.25,-141 243,-141 243,-121.75 321.25,-121.75 321.25,-141"/>
<text text-anchor="middle" x="282.12" y="-127.5" font-family="Helvetica,sans-Serif" font-size="10.00">ArduinoJson.h</text>
</a>
</g>
</g>
<!-- Node15&#45;&gt;Node16 -->
<g id="edge17_Node000015_Node000016" class="edge">
<title>Node15&#45;&gt;Node16</title>
<g id="a_edge17_Node000015_Node000016"><a xlink:title=" ">
<path fill="none" stroke="#63b8ff" d="M282.93,-231.79C279.97,-222.87 275.79,-208.82 274.12,-196.25 272.19,-181.62 274.38,-165.1 276.95,-152.52"/>
<polygon fill="#63b8ff" stroke="#63b8ff" points="280.32,-153.48 279.17,-142.95 273.5,-151.9 280.32,-153.48"/>
</a>
</g>
</g>
<!-- Node17 -->
<g id="Node000017" class="node">
<title>Node17</title>
<g id="a_Node000017"><a xlink:href="serializable_8h.html" target="_top" xlink:title=" ">
<polygon fill="white" stroke="#666666" points="389.62,-196.25 316.62,-196.25 316.62,-177 389.62,-177 389.62,-196.25"/>
<text text-anchor="middle" x="353.12" y="-182.75" font-family="Helvetica,sans-Serif" font-size="10.00">serializable.h</text>
</a>
</g>
</g>
<!-- Node15&#45;&gt;Node17 -->
<g id="edge19_Node000015_Node000017" class="edge">
<title>Node15&#45;&gt;Node17</title>
<g id="a_edge19_Node000015_Node000017"><a xlink:title=" ">
<path fill="none" stroke="#63b8ff" d="M297.49,-231.84C307.17,-224.15 321.32,-212.9 332.93,-203.68"/>
<polygon fill="#63b8ff" stroke="#63b8ff" points="335.09,-206.43 340.74,-197.47 330.74,-200.95 335.09,-206.43"/>
</a>
</g>
</g>
<!-- Node17&#45;&gt;Node2 -->
<g id="edge20_Node000017_Node000002" class="edge">
<title>Node17&#45;&gt;Node2</title>
<g id="a_edge20_Node000017_Node000002"><a xlink:title=" ">
<path fill="none" stroke="#63b8ff" d="M382.3,-176.59C410.6,-167.83 453.74,-154.48 485.21,-144.73"/>
<polygon fill="#63b8ff" stroke="#63b8ff" points="485.84,-148.2 494.36,-141.9 483.77,-141.51 485.84,-148.2"/>
</a>
</g>
</g>
<!-- Node17&#45;&gt;Node6 -->
<g id="edge22_Node000017_Node000006" class="edge">
<title>Node17&#45;&gt;Node6</title>
<g id="a_edge22_Node000017_Node000006"><a xlink:title=" ">
<path fill="none" stroke="#63b8ff" d="M350.25,-176.85C346.12,-164.45 338.13,-141.14 330.12,-121.75 316.62,-89.04 298.74,-51.98 287.85,-30"/>
<polygon fill="#63b8ff" stroke="#63b8ff" points="291,-28.46 283.4,-21.07 284.73,-31.58 291,-28.46"/>
</a>
</g>
</g>
<!-- Node17&#45;&gt;Node16 -->
<g id="edge21_Node000017_Node000016" class="edge">
<title>Node17&#45;&gt;Node16</title>
<g id="a_edge21_Node000017_Node000016"><a xlink:title=" ">
<path fill="none" stroke="#63b8ff" d="M341.08,-176.59C330.72,-168.82 315.52,-157.42 303.16,-148.15"/>
<polygon fill="#63b8ff" stroke="#63b8ff" points="305.3,-145.38 295.2,-142.18 301.1,-150.98 305.3,-145.38"/>
</a>
</g>
</g>
<!-- Node19 -->
<g id="Node000019" class="node">
<title>Node19</title>
<g id="a_Node000019"><a xlink:title=" ">
<polygon fill="#e0e0e0" stroke="#999999" points="757.25,-196.25 691,-196.25 691,-177 757.25,-177 757.25,-196.25"/>
<text text-anchor="middle" x="724.12" y="-182.75" font-family="Helvetica,sans-Serif" font-size="10.00">forward_list</text>
</a>
</g>
</g>
<!-- Node18&#45;&gt;Node19 -->
<g id="edge24_Node000018_Node000019" class="edge">
<title>Node18&#45;&gt;Node19</title>
<g id="a_edge24_Node000018_Node000019"><a xlink:title=" ">
<path fill="none" stroke="#63b8ff" d="M600.4,-231.84C624.48,-223.24 660.98,-210.19 688.11,-200.5"/>
<polygon fill="#63b8ff" stroke="#63b8ff" points="689.06,-203.87 697.3,-197.21 686.71,-197.28 689.06,-203.87"/>
</a>
</g>
</g>
<!-- Node20 -->
<g id="Node000020" class="node">
<title>Node20</title>
<g id="a_Node000020"><a xlink:title=" ">
<polygon fill="#e0e0e0" stroke="#999999" points="673.12,-196.25 615.12,-196.25 615.12,-177 673.12,-177 673.12,-196.25"/>
<text text-anchor="middle" x="644.12" y="-182.75" font-family="Helvetica,sans-Serif" font-size="10.00">functional</text>
</a>
</g>
</g>
<!-- Node18&#45;&gt;Node20 -->
<g id="edge25_Node000018_Node000020" class="edge">
<title>Node18&#45;&gt;Node20</title>
<g id="a_edge25_Node000018_Node000020"><a xlink:title=" ">
<path fill="none" stroke="#63b8ff" d="M586.83,-231.84C596.9,-224.07 611.67,-212.67 623.69,-203.4"/>
<polygon fill="#63b8ff" stroke="#63b8ff" points="625.62,-206.33 631.39,-197.45 621.34,-200.79 625.62,-206.33"/>
</a>
</g>
</g>
<!-- Node21 -->
<g id="Node000021" class="node">
<title>Node21</title>
<g id="a_Node000021"><a xlink:title=" ">
<polygon fill="#e0e0e0" stroke="#999999" points="596.62,-196.25 553.62,-196.25 553.62,-177 596.62,-177 596.62,-196.25"/>
<text text-anchor="middle" x="575.12" y="-182.75" font-family="Helvetica,sans-Serif" font-size="10.00">vector</text>
</a>
</g>
</g>
<!-- Node18&#45;&gt;Node21 -->
<g id="edge26_Node000018_Node000021" class="edge">
<title>Node18&#45;&gt;Node21</title>
<g id="a_edge26_Node000018_Node000021"><a xlink:title=" ">
<path fill="none" stroke="#63b8ff" d="M575.12,-232.08C575.12,-225.57 575.12,-216.42 575.12,-208.12"/>
<polygon fill="#63b8ff" stroke="#63b8ff" points="578.63,-208.12 575.13,-198.12 571.63,-208.12 578.63,-208.12"/>
</a>
</g>
</g>
<!-- Node22&#45;&gt;Node6 -->
<g id="edge32_Node000022_Node000006" class="edge">
<title>Node22&#45;&gt;Node6</title>
<g id="a_edge32_Node000022_Node000006"><a xlink:title=" ">
<path fill="none" stroke="#63b8ff" d="M205.42,-287.19C181.84,-270.63 136.12,-232.69 136.12,-187.62 136.12,-187.62 136.12,-187.62 136.12,-130.38 136.12,-75.79 198.2,-41.03 240.27,-23.75"/>
<polygon fill="#63b8ff" stroke="#63b8ff" points="241.31,-27.1 249.34,-20.19 238.75,-20.59 241.31,-27.1"/>
</a>
</g>
</g>
<!-- Node22&#45;&gt;Node9 -->
<g id="edge29_Node000022_Node000009" class="edge">
<title>Node22&#45;&gt;Node9</title>
<g id="a_edge29_Node000022_Node000009"><a xlink:title=" ">
<path fill="none" stroke="#63b8ff" d="M249.83,-287.09C281.27,-277.84 330.15,-263.46 363.57,-253.63"/>
<polygon fill="#63b8ff" stroke="#63b8ff" points="364.21,-257.09 372.81,-250.91 362.23,-250.38 364.21,-257.09"/>
</a>
</g>
</g>
<!-- Node22&#45;&gt;Node15 -->
<g id="edge34_Node000022_Node000015" class="edge">
<title>Node22&#45;&gt;Node15</title>
<g id="a_edge34_Node000022_Node000015"><a xlink:title=" ">
<path fill="none" stroke="#63b8ff" d="M230.49,-287.09C240.17,-279.4 254.32,-268.15 265.93,-258.93"/>
<polygon fill="#63b8ff" stroke="#63b8ff" points="268.09,-261.68 273.74,-252.72 263.74,-256.2 268.09,-261.68"/>
</a>
</g>
</g>
<!-- Node22&#45;&gt;Node16 -->
<g id="edge33_Node000022_Node000016" class="edge">
<title>Node22&#45;&gt;Node16</title>
<g id="a_edge33_Node000022_Node000016"><a xlink:title=" ">
<path fill="none" stroke="#63b8ff" d="M210.9,-287.08C200.73,-274.75 185.62,-251.94 193.12,-232.25 206.59,-196.9 238.96,-166.1 260.72,-148.37"/>
<polygon fill="#63b8ff" stroke="#63b8ff" points="262.7,-151.26 268.39,-142.32 258.37,-145.76 262.7,-151.26"/>
</a>
</g>
</g>
<!-- Node22&#45;&gt;Node21 -->
<g id="edge30_Node000022_Node000021" class="edge">
<title>Node22&#45;&gt;Node21</title>
<g id="a_edge30_Node000022_Node000021"><a xlink:title=" ">
<path fill="none" stroke="#63b8ff" d="M242.52,-287.06C264.55,-278.39 298.36,-264.7 327.12,-251.5 344.33,-243.6 347.27,-238.55 365.12,-232.25 397.42,-220.86 491.56,-202.83 542.12,-193.56"/>
<polygon fill="#63b8ff" stroke="#63b8ff" points="542.68,-197.01 551.89,-191.78 541.43,-190.13 542.68,-197.01"/>
</a>
</g>
</g>
<!-- Node23 -->
<g id="Node000023" class="node">
<title>Node23</title>
<g id="a_Node000023"><a xlink:title=" ">
<polygon fill="#e0e0e0" stroke="#999999" points="236.5,-251.5 201.75,-251.5 201.75,-232.25 236.5,-232.25 236.5,-251.5"/>
<text text-anchor="middle" x="219.12" y="-238" font-family="Helvetica,sans-Serif" font-size="10.00">map</text>
</a>
</g>
</g>
<!-- Node22&#45;&gt;Node23 -->
<g id="edge28_Node000022_Node000023" class="edge">
<title>Node22&#45;&gt;Node23</title>
<g id="a_edge28_Node000022_Node000023"><a xlink:title=" ">
<path fill="none" stroke="#63b8ff" d="M219.12,-287.33C219.12,-280.82 219.12,-271.67 219.12,-263.37"/>
<polygon fill="#63b8ff" stroke="#63b8ff" points="222.63,-263.37 219.13,-253.37 215.63,-263.37 222.63,-263.37"/>
</a>
</g>
</g>
<!-- Node24 -->
<g id="Node000024" class="node">
<title>Node24</title>
<g id="a_Node000024"><a xlink:title=" ">
<polygon fill="#e0e0e0" stroke="#999999" points="108.25,-251.5 60,-251.5 60,-232.25 108.25,-232.25 108.25,-251.5"/>
<text text-anchor="middle" x="84.12" y="-238" font-family="Helvetica,sans-Serif" font-size="10.00">cstddef</text>
</a>
</g>
</g>
<!-- Node22&#45;&gt;Node24 -->
<g id="edge31_Node000022_Node000024" class="edge">
<title>Node22&#45;&gt;Node24</title>
<g id="a_edge31_Node000022_Node000024"><a xlink:title=" ">
<path fill="none" stroke="#63b8ff" d="M196.22,-287.09C174.7,-278.6 142.21,-265.79 117.75,-256.14"/>
<polygon fill="#63b8ff" stroke="#63b8ff" points="119.13,-252.92 108.55,-252.51 116.56,-259.43 119.13,-252.92"/>
</a>
</g>
</g>
<!-- Node25&#45;&gt;Node9 -->
<g id="edge37_Node000025_Node000009" class="edge">
<title>Node25&#45;&gt;Node9</title>
<g id="a_edge37_Node000025_Node000009"><a xlink:title=" ">
<path fill="none" stroke="#63b8ff" d="M476.52,-287.09C462.51,-278.98 441.69,-266.93 425.32,-257.46"/>
<polygon fill="#63b8ff" stroke="#63b8ff" points="427.53,-254.69 417.12,-252.71 424.02,-260.75 427.53,-254.69"/>
</a>
</g>
</g>
<!-- Node25&#45;&gt;Node16 -->
<g id="edge36_Node000025_Node000016" class="edge">
<title>Node25&#45;&gt;Node16</title>
<g id="a_edge36_Node000025_Node000016"><a xlink:title=" ">
<path fill="none" stroke="#63b8ff" d="M486.64,-287.25C477.61,-273.41 458.31,-246.76 435.12,-232.25 385.39,-201.13 351.83,-235.38 308.12,-196.25 295.43,-184.88 288.82,-166.42 285.44,-152.25"/>
<polygon fill="#63b8ff" stroke="#63b8ff" points="288.92,-151.81 283.54,-142.69 282.06,-153.18 288.92,-151.81"/>
</a>
</g>
</g>
<!-- Node25&#45;&gt;Node18 -->
<g id="edge38_Node000025_Node000018" class="edge">
<title>Node25&#45;&gt;Node18</title>
<g id="a_edge38_Node000025_Node000018"><a xlink:title=" ">
<path fill="none" stroke="#63b8ff" d="M506.2,-287.09C518.61,-279.14 536.92,-267.39 551.55,-258"/>
<polygon fill="#63b8ff" stroke="#63b8ff" points="553.18,-261.12 559.7,-252.77 549.4,-255.22 553.18,-261.12"/>
</a>
</g>
</g>
<!-- Node26 -->
<g id="Node000026" class="node">
<title>Node26</title>
<g id="a_Node000026"><a xlink:href="valueconsumer_8h.html" target="_top" xlink:title=" ">
<polygon fill="white" stroke="#666666" points="496.88,-196.25 407.38,-196.25 407.38,-177 496.88,-177 496.88,-196.25"/>
<text text-anchor="middle" x="452.12" y="-182.75" font-family="Helvetica,sans-Serif" font-size="10.00">valueconsumer.h</text>
</a>
</g>
</g>
<!-- Node25&#45;&gt;Node26 -->
<g id="edge39_Node000025_Node000026" class="edge">
<title>Node25&#45;&gt;Node26</title>
<g id="a_edge39_Node000025_Node000026"><a xlink:title=" ">
<path fill="none" stroke="#63b8ff" d="M488.85,-287.25C482.43,-269.84 468.07,-230.87 459.33,-207.16"/>
<polygon fill="#63b8ff" stroke="#63b8ff" points="462.71,-206.22 455.97,-198.05 456.14,-208.64 462.71,-206.22"/>
</a>
</g>
</g>
<!-- Node26&#45;&gt;Node2 -->
<g id="edge40_Node000026_Node000002" class="edge">
<title>Node26&#45;&gt;Node2</title>
<g id="a_edge40_Node000026_Node000002"><a xlink:title=" ">
<path fill="none" stroke="#63b8ff" d="M464.51,-176.59C475.27,-168.74 491.1,-157.2 503.88,-147.87"/>
<polygon fill="#63b8ff" stroke="#63b8ff" points="505.69,-150.89 511.7,-142.17 501.56,-145.23 505.69,-150.89"/>
</a>
</g>
</g>
<!-- Node26&#45;&gt;Node16 -->
<g id="edge41_Node000026_Node000016" class="edge">
<title>Node26&#45;&gt;Node16</title>
<g id="a_edge41_Node000026_Node000016"><a xlink:title=" ">
<path fill="none" stroke="#63b8ff" d="M423.29,-176.59C395.45,-167.87 353.05,-154.59 321.99,-144.86"/>
<polygon fill="#63b8ff" stroke="#63b8ff" points="323.14,-141.55 312.55,-141.9 321.05,-148.23 323.14,-141.55"/>
</a>
</g>
</g>
<!-- Node27 -->
<g id="Node000027" class="node">
<title>Node27</title>
<g id="a_Node000027"><a xlink:title=" ">
<polygon fill="#e0e0e0" stroke="#999999" points="476.25,-141 428,-141 428,-121.75 476.25,-121.75 476.25,-141"/>
<text text-anchor="middle" x="452.12" y="-127.5" font-family="Helvetica,sans-Serif" font-size="10.00">stdint.h</text>
</a>
</g>
</g>
<!-- Node26&#45;&gt;Node27 -->
<g id="edge42_Node000026_Node000027" class="edge">
<title>Node26&#45;&gt;Node27</title>
<g id="a_edge42_Node000026_Node000027"><a xlink:title=" ">
<path fill="none" stroke="#63b8ff" d="M452.12,-176.83C452.12,-170.32 452.12,-161.17 452.12,-152.87"/>
<polygon fill="#63b8ff" stroke="#63b8ff" points="455.63,-152.87 452.13,-142.87 448.63,-152.87 455.63,-152.87"/>
</a>
</g>
</g>
</g>
</svg>

<g id="navigator" transform="translate(0 0)" fill="#404254">
  <rect fill="#f2f5e9" fill-opacity="0.5" stroke="#606060" stroke-width=".5" x="0" y="0" width="60" height="60"/>
  <use id="zoomplus" xlink:href="#zoomPlus" x="17" y="9" onmousedown="handleZoom(evt,'in')"/>
  <use id="zoomminus" xlink:href="#zoomMin" x="42" y="9" onmousedown="handleZoom(evt,'out')"/>
  <use id="reset" xlink:href="#resetDef" x="30" y="36" onmousedown="handleReset()"/>
   <use id="arrowup" xlink:href="#arrowUp" x="0" y="0" onmousedown="handlePan(0,-1)"/>
  <use id="arrowright" xlink:href="#arrowRight" x="0" y="0" onmousedown="handlePan(1,0)"/>
  <use id="arrowdown" xlink:href="#arrowDown" x="0" y="0" onmousedown="handlePan(0,1)"/>
  <use id="arrowleft" xlink:href="#arrowLeft" x="0" y="0" onmousedown="handlePan(-1,0)"/>
</g>
<svg viewBox="0 0 15 15" width="100%" height="30px" preserveAspectRatio="xMaxYMin meet">
 <g id="arrow_out" transform="scale(0.3 0.3)">
  <a xlink:href="sensesp_8cpp__incl_org.svg" target="_base">
   <rect id="button" ry="5" rx="5" y="6" x="6" height="38" width="38"
        fill="#f2f5e9" fill-opacity="0.5" stroke="#606060" stroke-width="1.0"/>
   <path id="arrow"
     d="M 11.500037,31.436501 C 11.940474,20.09759 22.043105,11.32322 32.158766,21.979434 L 37.068811,17.246167 C 37.068811,17.246167 37.088388,32 37.088388,32 L 22.160133,31.978069 C 22.160133,31.978069 26.997745,27.140456 26.997745,27.140456 C 18.528582,18.264221 13.291696,25.230495 11.500037,31.436501 z"
     style="fill:#404040;"/>
  </a>
 </g>
</svg>

<style type='text/css'>
<![CDATA[
[data-mouse-over-selected='false'] { opacity: 0.7; }
[data-mouse-over-selected='true']  { opacity: 1.0; }
]]>
</style>
<script type="application/ecmascript"><![CDATA[
document.addEventListener('DOMContentLoaded', (event) => {
  highlightEdges();
  highlightAdjacentNodes();
});
]]></script>
</svg>
