<?xml version="1.0" encoding="UTF-8" standalone="no"?>
<!DOCTYPE svg PUBLIC "-//W3C//DTD SVG 1.1//EN"
 "http://www.w3.org/Graphics/SVG/1.1/DTD/svg11.dtd">
<!-- Generated by graphviz version 2.40.1 (20161225.0304)
 -->
<!-- Title: src/sensors/sensor.h Pages: 1 -->
<!--zoomable 222 -->
<svg id="main" version="1.1" xmlns="http://www.w3.org/2000/svg" xmlns:xlink="http://www.w3.org/1999/xlink" xml:space="preserve" onload="init(evt)">
<style type="text/css"><![CDATA[
.edge:hover path { stroke: red; }
.edge:hover polygon { stroke: red; fill: red; }
]]></style>
<script type="text/javascript"><![CDATA[
var edges = document.getElementsByTagName('g');
if (edges && edges.length) {
  for (var i=0;i<edges.length;i++) {
    if (edges[i].id.substr(0,4)=='edge') {
      edges[i].setAttribute('class','edge');
    }
  }
}
]]></script>
        <defs>
                <circle id="rim" cx="0" cy="0" r="7"/>
                <circle id="rim2" cx="0" cy="0" r="3.5"/>
                <g id="zoomPlus">
                        <use xlink:href="#rim" fill="#404040">
                                <set attributeName="fill" to="#808080" begin="zoomplus.mouseover" end="zoomplus.mouseout"/>
                        </use>
                        <path d="M-4,0h8M0,-4v8" fill="none" stroke="white" stroke-width="1.5" pointer-events="none"/>
                </g>
                <g id="zoomMin">
                        <use xlink:href="#rim" fill="#404040">
                                <set attributeName="fill" to="#808080" begin="zoomminus.mouseover" end="zoomminus.mouseout"/>
                        </use>
                        <path d="M-4,0h8" fill="none" stroke="white" stroke-width="1.5" pointer-events="none"/>
                </g>
                <g id="dirArrow">
                        <path fill="none" stroke="white" stroke-width="1.5" d="M0,-3.0v7 M-2.5,-0.5L0,-3.0L2.5,-0.5"/>
                </g>
               <g id="resetDef">
                       <use xlink:href="#rim2" fill="#404040">
                               <set attributeName="fill" to="#808080" begin="reset.mouseover" end="reset.mouseout"/>
                       </use>
               </g>
        </defs>

<script type="text/javascript">
var viewWidth = 3179;
var viewHeight = 222;
var sectionId = 'dynsection-1';
</script>
<script xlink:href="svgpan.js"/>
<svg id="graph" class="graph">
<g id="viewport">
<title>src/sensors/sensor.h</title>
<polygon fill="#ffffff" stroke="transparent" points="-4,4 -4,-218 3174.6353,-218 3174.6353,4 -4,4"/>
<!-- Node18 -->
<g id="node1" class="node">
<title>Node18</title>
<g id="a_node1"><a xlink:title=" ">
<polygon fill="#bfbfbf" stroke="#000000" points="2074.4312,-195.5 2074.4312,-213.5 2182.1401,-213.5 2182.1401,-195.5 2074.4312,-195.5"/>
<text text-anchor="middle" x="2128.2856" y="-201.5" font-family="Helvetica,sans-Serif" font-size="10.00" fill="#000000">src/sensors/sensor.h</text>
</a>
</g>
</g>
<!-- Node19 -->
<g id="node2" class="node">
<title>Node19</title>
<g id="a_node2"><a xlink:href="sensesp__app_8h.html" target="_top" xlink:title=" ">
<polygon fill="#ffffff" stroke="#000000" points="1047.3154,-135.5 1047.3154,-153.5 1147.2559,-153.5 1147.2559,-135.5 1047.3154,-135.5"/>
<text text-anchor="middle" x="1097.2856" y="-141.5" font-family="Helvetica,sans-Serif" font-size="10.00" fill="#000000">src/sensesp_app.h</text>
</a>
</g>
</g>
<!-- Node18&#45;&gt;Node19 -->
<g id="edge1" class="edge">
<title>Node18&#45;&gt;Node19</title>
<path fill="none" stroke="#191970" d="M2064.2063,-200.7708C1874.3899,-189.7243 1317.6945,-157.3269 1147.3757,-147.415"/>
<polygon fill="#191970" stroke="#191970" points="2064.1197,-204.2716 2074.3062,-201.3586 2064.5265,-197.2835 2064.1197,-204.2716"/>
</g>
<!-- Node29 -->
<g id="node12" class="node">
<title>Node29</title>
<g id="a_node12"><a xlink:href="analog__input_8h.html" target="_top" xlink:title=" ">
<polygon fill="#ffffff" stroke="#000000" points="396.3203,-130.5 396.3203,-158.5 496.251,-158.5 496.251,-130.5 396.3203,-130.5"/>
<text text-anchor="start" x="404.3203" y="-146.5" font-family="Helvetica,sans-Serif" font-size="10.00" fill="#000000">src/sensors/analog</text>
<text text-anchor="middle" x="446.2856" y="-136.5" font-family="Helvetica,sans-Serif" font-size="10.00" fill="#000000">_input.h</text>
</a>
</g>
</g>
<!-- Node18&#45;&gt;Node29 -->
<g id="edge12" class="edge">
<title>Node18&#45;&gt;Node29</title>
<path fill="none" stroke="#191970" d="M2063.7499,-203.5727C1806.3518,-199.7292 852.479,-184.0675 551.2856,-159 533.3137,-157.5042 513.7142,-155.0288 496.367,-152.5429"/>
<polygon fill="#191970" stroke="#191970" points="2063.9976,-207.0766 2074.0486,-203.7257 2064.1017,-200.0774 2063.9976,-207.0766"/>
</g>
<!-- Node31 -->
<g id="node14" class="node">
<title>Node31</title>
<g id="a_node14"><a xlink:href="digital__input_8h.html" target="_top" xlink:title=" ">
<polygon fill="#ffffff" stroke="#000000" points="200.271,-130.5 200.271,-158.5 296.3003,-158.5 296.3003,-130.5 200.271,-130.5"/>
<text text-anchor="start" x="208.271" y="-146.5" font-family="Helvetica,sans-Serif" font-size="10.00" fill="#000000">src/sensors/digital</text>
<text text-anchor="middle" x="248.2856" y="-136.5" font-family="Helvetica,sans-Serif" font-size="10.00" fill="#000000">_input.h</text>
</a>
</g>
</g>
<!-- Node18&#45;&gt;Node31 -->
<g id="edge16" class="edge">
<title>Node18&#45;&gt;Node31</title>
<path fill="none" stroke="#191970" d="M2063.9436,-203.4903C1790.4285,-199.0945 722.971,-180.862 387.2856,-159 357.0211,-157.029 323.1716,-153.5257 296.4537,-150.4565"/>
<polygon fill="#191970" stroke="#191970" points="2064.0427,-206.9923 2074.0975,-203.653 2064.1549,-199.9932 2064.0427,-206.9923"/>
</g>
<!-- Node35 -->
<g id="node18" class="node">
<title>Node35</title>
<g id="a_node18"><a xlink:href="system__info_8h.html" target="_top" xlink:title=" ">
<polygon fill="#ffffff" stroke="#000000" points="560.5,-130.5 560.5,-158.5 662.0713,-158.5 662.0713,-130.5 560.5,-130.5"/>
<text text-anchor="start" x="568.5" y="-146.5" font-family="Helvetica,sans-Serif" font-size="10.00" fill="#000000">src/sensors/system</text>
<text text-anchor="middle" x="611.2856" y="-136.5" font-family="Helvetica,sans-Serif" font-size="10.00" fill="#000000">_info.h</text>
</a>
</g>
</g>
<!-- Node18&#45;&gt;Node35 -->
<g id="edge22" class="edge">
<title>Node18&#45;&gt;Node35</title>
<path fill="none" stroke="#191970" d="M2064.1922,-201.965C1811.8774,-191.9855 889.8051,-155.5159 662.2912,-146.5174"/>
<polygon fill="#191970" stroke="#191970" points="2064.1643,-205.4665 2074.2948,-202.3646 2064.441,-198.472 2064.1643,-205.4665"/>
</g>
<!-- Node37 -->
<g id="node20" class="node">
<title>Node37</title>
<g id="a_node20"><a xlink:href="ads1x15_8h.html" target="_top" xlink:title=" ">
<polygon fill="#ffffff" stroke="#000000" points="2004.2612,-135.5 2004.2612,-153.5 2120.3101,-153.5 2120.3101,-135.5 2004.2612,-135.5"/>
<text text-anchor="middle" x="2062.2856" y="-141.5" font-family="Helvetica,sans-Serif" font-size="10.00" fill="#000000">src/sensors/ads1x15.h</text>
</a>
</g>
</g>
<!-- Node18&#45;&gt;Node37 -->
<g id="edge25" class="edge">
<title>Node18&#45;&gt;Node37</title>
<path fill="none" stroke="#191970" d="M2110.8412,-188.6414C2098.5845,-177.4989 2082.6156,-162.9817 2072.404,-153.6985"/>
<polygon fill="#191970" stroke="#191970" points="2108.5079,-191.2503 2118.2617,-195.3873 2113.2166,-186.0707 2108.5079,-191.2503"/>
</g>
<!-- Node39 -->
<g id="node22" class="node">
<title>Node39</title>
<g id="a_node22"><a xlink:href="bme280_8h.html" target="_top" xlink:title=" ">
<polygon fill="#ffffff" stroke="#000000" points="2138.0962,-135.5 2138.0962,-153.5 2252.4751,-153.5 2252.4751,-135.5 2138.0962,-135.5"/>
<text text-anchor="middle" x="2195.2856" y="-141.5" font-family="Helvetica,sans-Serif" font-size="10.00" fill="#000000">src/sensors/bme280.h</text>
</a>
</g>
</g>
<!-- Node18&#45;&gt;Node39 -->
<g id="edge27" class="edge">
<title>Node18&#45;&gt;Node39</title>
<path fill="none" stroke="#191970" d="M2145.9944,-188.6414C2158.4368,-177.4989 2174.6477,-162.9817 2185.014,-153.6985"/>
<polygon fill="#191970" stroke="#191970" points="2143.5761,-186.1087 2138.4615,-195.3873 2148.246,-191.3234 2143.5761,-186.1087"/>
</g>
<!-- Node41 -->
<g id="node24" class="node">
<title>Node41</title>
<g id="a_node24"><a xlink:href="bmp280_8h.html" target="_top" xlink:title=" ">
<polygon fill="#ffffff" stroke="#000000" points="2270.0962,-135.5 2270.0962,-153.5 2384.4751,-153.5 2384.4751,-135.5 2270.0962,-135.5"/>
<text text-anchor="middle" x="2327.2856" y="-141.5" font-family="Helvetica,sans-Serif" font-size="10.00" fill="#000000">src/sensors/bmp280.h</text>
</a>
</g>
</g>
<!-- Node18&#45;&gt;Node41 -->
<g id="edge29" class="edge">
<title>Node18&#45;&gt;Node41</title>
<path fill="none" stroke="#191970" d="M2168.2681,-192.445C2206.4278,-180.9395 2263.0527,-163.8667 2297.4294,-153.5019"/>
<polygon fill="#191970" stroke="#191970" points="2167.0734,-189.1495 2158.5095,-195.3873 2169.0941,-195.8515 2167.0734,-189.1495"/>
</g>
<!-- Node43 -->
<g id="node26" class="node">
<title>Node43</title>
<g id="a_node26"><a xlink:href="gps_8h.html" target="_top" xlink:title=" ">
<polygon fill="#ffffff" stroke="#000000" points="1667.1035,-135.5 1667.1035,-153.5 1761.4678,-153.5 1761.4678,-135.5 1667.1035,-135.5"/>
<text text-anchor="middle" x="1714.2856" y="-141.5" font-family="Helvetica,sans-Serif" font-size="10.00" fill="#000000">src/sensors/gps.h</text>
</a>
</g>
</g>
<!-- Node18&#45;&gt;Node43 -->
<g id="edge31" class="edge">
<title>Node18&#45;&gt;Node43</title>
<path fill="none" stroke="#191970" d="M2064.0202,-195.1862C1980.3612,-183.0617 1836.0824,-162.1517 1761.6916,-151.3704"/>
<polygon fill="#191970" stroke="#191970" points="2063.7637,-198.6855 2074.1624,-196.656 2064.7678,-191.7579 2063.7637,-198.6855"/>
</g>
<!-- Node47 -->
<g id="node30" class="node">
<title>Node47</title>
<g id="a_node30"><a xlink:href="ina219_8h.html" target="_top" xlink:title=" ">
<polygon fill="#ffffff" stroke="#000000" points="2402.1504,-135.5 2402.1504,-153.5 2510.4209,-153.5 2510.4209,-135.5 2402.1504,-135.5"/>
<text text-anchor="middle" x="2456.2856" y="-141.5" font-family="Helvetica,sans-Serif" font-size="10.00" fill="#000000">src/sensors/ina219.h</text>
</a>
</g>
</g>
<!-- Node18&#45;&gt;Node47 -->
<g id="edge38" class="edge">
<title>Node18&#45;&gt;Node47</title>
<path fill="none" stroke="#191970" d="M2192.3279,-194.5382C2246.1157,-185.924 2324.9222,-172.7249 2393.2856,-159 2401.5386,-157.3431 2410.3631,-155.4125 2418.716,-153.5108"/>
<polygon fill="#191970" stroke="#191970" points="2191.5734,-191.1142 2182.2495,-196.1455 2192.6759,-198.0268 2191.5734,-191.1142"/>
</g>
<!-- Node49 -->
<g id="node32" class="node">
<title>Node49</title>
<g id="a_node32"><a xlink:href="max31856__thermocouple_8h.html" target="_top" xlink:title=" ">
<polygon fill="#ffffff" stroke="#000000" points="2527.9854,-130.5 2527.9854,-158.5 2644.5859,-158.5 2644.5859,-130.5 2527.9854,-130.5"/>
<text text-anchor="start" x="2535.9854" y="-146.5" font-family="Helvetica,sans-Serif" font-size="10.00" fill="#000000">src/sensors/max31856</text>
<text text-anchor="middle" x="2586.2856" y="-136.5" font-family="Helvetica,sans-Serif" font-size="10.00" fill="#000000">_thermocouple.h</text>
</a>
</g>
</g>
<!-- Node18&#45;&gt;Node49 -->
<g id="edge40" class="edge">
<title>Node18&#45;&gt;Node49</title>
<path fill="none" stroke="#191970" d="M2192.3878,-198.9702C2270.0607,-191.8256 2404.7614,-178.0098 2519.2856,-159 2522.1034,-158.5323 2524.9817,-158.0248 2527.8844,-157.4892"/>
<polygon fill="#191970" stroke="#191970" points="2191.9184,-195.4984 2182.2776,-199.892 2192.5541,-202.4695 2191.9184,-195.4984"/>
</g>
<!-- Node51 -->
<g id="node34" class="node">
<title>Node51</title>
<g id="a_node34"><a xlink:href="onewire__temperature_8h.html" target="_top" xlink:title=" ">
<polygon fill="#ffffff" stroke="#000000" points="1843.8252,-130.5 1843.8252,-158.5 1948.7461,-158.5 1948.7461,-130.5 1843.8252,-130.5"/>
<text text-anchor="start" x="1851.8252" y="-146.5" font-family="Helvetica,sans-Serif" font-size="10.00" fill="#000000">src/sensors/onewire</text>
<text text-anchor="middle" x="1896.2856" y="-136.5" font-family="Helvetica,sans-Serif" font-size="10.00" fill="#000000">_temperature.h</text>
</a>
</g>
</g>
<!-- Node18&#45;&gt;Node51 -->
<g id="edge42" class="edge">
<title>Node18&#45;&gt;Node51</title>
<path fill="none" stroke="#191970" d="M2083.4091,-192.894C2044.9012,-182.935 1989.3636,-168.5719 1948.797,-158.0805"/>
<polygon fill="#191970" stroke="#191970" points="2082.7439,-196.337 2093.3017,-195.4524 2084.4966,-189.56 2082.7439,-196.337"/>
</g>
<!-- Node52 -->
<g id="node35" class="node">
<title>Node52</title>
<g id="a_node35"><a xlink:href="onewire__temperature_8cpp.html" target="_top" xlink:title=" ">
<polygon fill="#ffffff" stroke="#000000" points="1899.8252,-65.5 1899.8252,-93.5 2004.7461,-93.5 2004.7461,-65.5 1899.8252,-65.5"/>
<text text-anchor="start" x="1907.8252" y="-81.5" font-family="Helvetica,sans-Serif" font-size="10.00" fill="#000000">src/sensors/onewire</text>
<text text-anchor="middle" x="1952.2856" y="-71.5" font-family="Helvetica,sans-Serif" font-size="10.00" fill="#000000">_temperature.cpp</text>
</a>
</g>
</g>
<!-- Node18&#45;&gt;Node52 -->
<g id="edge45" class="edge">
<title>Node18&#45;&gt;Node52</title>
<path fill="none" stroke="#191970" d="M2064.4908,-192.9667C2040.7497,-186.1873 2014.8516,-175.5573 1995.2856,-159 1974.5631,-141.4639 1962.2111,-111.3229 1956.38,-93.6216"/>
<polygon fill="#191970" stroke="#191970" points="2063.5937,-196.3497 2074.1587,-195.555 2065.4041,-189.5878 2063.5937,-196.3497"/>
</g>
<!-- Node53 -->
<g id="node36" class="node">
<title>Node53</title>
<g id="a_node36"><a xlink:href="orientation__9dof__input_8h.html" target="_top" xlink:title=" ">
<polygon fill="#ffffff" stroke="#000000" points="2662.9854,-130.5 2662.9854,-158.5 2779.5859,-158.5 2779.5859,-130.5 2662.9854,-130.5"/>
<text text-anchor="start" x="2670.9854" y="-146.5" font-family="Helvetica,sans-Serif" font-size="10.00" fill="#000000">src/sensors/orientation</text>
<text text-anchor="middle" x="2721.2856" y="-136.5" font-family="Helvetica,sans-Serif" font-size="10.00" fill="#000000">_9dof_input.h</text>
</a>
</g>
</g>
<!-- Node18&#45;&gt;Node53 -->
<g id="edge46" class="edge">
<title>Node18&#45;&gt;Node53</title>
<path fill="none" stroke="#191970" d="M2192.3636,-201.5048C2291.5652,-196.2925 2488.1166,-183.6706 2653.2856,-159 2656.3897,-158.5364 2659.5646,-158.0173 2662.764,-157.459"/>
<polygon fill="#191970" stroke="#191970" points="2192.0088,-198.0184 2182.203,-202.0305 2192.3705,-205.009 2192.0088,-198.0184"/>
</g>
<!-- Node55 -->
<g id="node38" class="node">
<title>Node55</title>
<g id="a_node38"><a xlink:href="sensor_8cpp.html" target="_top" xlink:title=" ">
<polygon fill="#ffffff" stroke="#000000" points="2797.1504,-135.5 2797.1504,-153.5 2915.4209,-153.5 2915.4209,-135.5 2797.1504,-135.5"/>
<text text-anchor="middle" x="2856.2856" y="-141.5" font-family="Helvetica,sans-Serif" font-size="10.00" fill="#000000">src/sensors/sensor.cpp</text>
</a>
</g>
</g>
<!-- Node18&#45;&gt;Node55 -->
<g id="edge48" class="edge">
<title>Node18&#45;&gt;Node55</title>
<path fill="none" stroke="#191970" d="M2192.7879,-203.0742C2311.2741,-199.7856 2571.334,-189.4537 2788.2856,-159 2798.2073,-157.6073 2808.8434,-155.5935 2818.6877,-153.5077"/>
<polygon fill="#191970" stroke="#191970" points="2192.3536,-199.5846 2182.4517,-203.3531 2192.5425,-206.582 2192.3536,-199.5846"/>
</g>
<!-- Node56 -->
<g id="node39" class="node">
<title>Node56</title>
<g id="a_node39"><a xlink:href="sht31_8h.html" target="_top" xlink:title=" ">
<polygon fill="#ffffff" stroke="#000000" points="2932.9336,-135.5 2932.9336,-153.5 3035.6377,-153.5 3035.6377,-135.5 2932.9336,-135.5"/>
<text text-anchor="middle" x="2984.2856" y="-141.5" font-family="Helvetica,sans-Serif" font-size="10.00" fill="#000000">src/sensors/sht31.h</text>
</a>
</g>
</g>
<!-- Node18&#45;&gt;Node56 -->
<g id="edge49" class="edge">
<title>Node18&#45;&gt;Node56</title>
<path fill="none" stroke="#191970" d="M2192.5945,-202.3196C2355.8992,-196.5425 2783.6033,-179.8463 2924.2856,-159 2933.1903,-157.6805 2942.7112,-155.6658 2951.4853,-153.5541"/>
<polygon fill="#191970" stroke="#191970" points="2192.0968,-198.8348 2182.2261,-202.6843 2192.343,-205.8305 2192.0968,-198.8348"/>
</g>
<!-- Node58 -->
<g id="node41" class="node">
<title>Node58</title>
<g id="a_node41"><a xlink:href="ultrasonic__distance_8h.html" target="_top" xlink:title=" ">
<polygon fill="#ffffff" stroke="#000000" points="3055.936,-130.5 3055.936,-158.5 3168.6353,-158.5 3168.6353,-130.5 3055.936,-130.5"/>
<text text-anchor="start" x="3063.936" y="-146.5" font-family="Helvetica,sans-Serif" font-size="10.00" fill="#000000">src/sensors/ultrasonic</text>
<text text-anchor="middle" x="3112.2856" y="-136.5" font-family="Helvetica,sans-Serif" font-size="10.00" fill="#000000">_distance.h</text>
</a>
</g>
</g>
<!-- Node18&#45;&gt;Node58 -->
<g id="edge51" class="edge">
<title>Node18&#45;&gt;Node58</title>
<path fill="none" stroke="#191970" d="M2192.4024,-202.6556C2372.2565,-197.2685 2879.1485,-180.5661 3044.2856,-159 3047.9961,-158.5154 3051.8051,-157.9356 3055.6343,-157.2907"/>
<polygon fill="#191970" stroke="#191970" points="2192.194,-199.1602 2182.3027,-202.9565 2192.4026,-206.1571 2192.194,-199.1602"/>
</g>
<!-- Node20 -->
<g id="node3" class="node">
<title>Node20</title>
<g id="a_node3"><a xlink:href="http_8cpp.html" target="_top" xlink:title=" ">
<polygon fill="#ffffff" stroke="#000000" points="870.1011,-70.5 870.1011,-88.5 954.4702,-88.5 954.4702,-70.5 870.1011,-70.5"/>
<text text-anchor="middle" x="912.2856" y="-76.5" font-family="Helvetica,sans-Serif" font-size="10.00" fill="#000000">src/net/http.cpp</text>
</a>
</g>
</g>
<!-- Node19&#45;&gt;Node20 -->
<g id="edge2" class="edge">
<title>Node19&#45;&gt;Node20</title>
<path fill="none" stroke="#191970" d="M1061.897,-132.0661C1025.7028,-119.3493 970.3426,-99.8984 938.0882,-88.5658"/>
<polygon fill="#191970" stroke="#191970" points="1060.9674,-135.4492 1071.5622,-135.462 1063.2878,-128.845 1060.9674,-135.4492"/>
</g>
<!-- Node21 -->
<g id="node4" class="node">
<title>Node21</title>
<g id="a_node4"><a xlink:href="ws__client_8cpp.html" target="_top" xlink:title=" ">
<polygon fill="#ffffff" stroke="#000000" points="972.877,-70.5 972.877,-88.5 1081.6943,-88.5 1081.6943,-70.5 972.877,-70.5"/>
<text text-anchor="middle" x="1027.2856" y="-76.5" font-family="Helvetica,sans-Serif" font-size="10.00" fill="#000000">src/net/ws_client.cpp</text>
</a>
</g>
</g>
<!-- Node19&#45;&gt;Node21 -->
<g id="edge3" class="edge">
<title>Node19&#45;&gt;Node21</title>
<path fill="none" stroke="#191970" d="M1079.9247,-128.3791C1066.5405,-115.9509 1048.497,-99.1962 1037.3895,-88.8821"/>
<polygon fill="#191970" stroke="#191970" points="1077.8429,-131.2223 1087.5524,-135.462 1082.6061,-126.0927 1077.8429,-131.2223"/>
</g>
<!-- Node22 -->
<g id="node5" class="node">
<title>Node22</title>
<g id="a_node5"><a xlink:href="sensesp__app_8cpp.html" target="_top" xlink:title=" ">
<polygon fill="#ffffff" stroke="#000000" points="432.0347,-70.5 432.0347,-88.5 542.5366,-88.5 542.5366,-70.5 432.0347,-70.5"/>
<text text-anchor="middle" x="487.2856" y="-76.5" font-family="Helvetica,sans-Serif" font-size="10.00" fill="#000000">src/sensesp_app.cpp</text>
</a>
</g>
</g>
<!-- Node19&#45;&gt;Node22 -->
<g id="edge4" class="edge">
<title>Node19&#45;&gt;Node22</title>
<path fill="none" stroke="#191970" d="M1036.936,-141.4993C935.9358,-135.9011 726.4878,-121.8275 551.2856,-94 542.1718,-92.5524 532.4181,-90.5693 523.3418,-88.5344"/>
<polygon fill="#191970" stroke="#191970" points="1036.7765,-144.9957 1046.9525,-142.0463 1037.1583,-138.0061 1036.7765,-144.9957"/>
</g>
<!-- Node23 -->
<g id="node6" class="node">
<title>Node23</title>
<g id="a_node6"><a xlink:href="sensesp__app__builder_8h.html" target="_top" xlink:title=" ">
<polygon fill="#ffffff" stroke="#000000" points="1099.7983,-70.5 1099.7983,-88.5 1234.7729,-88.5 1234.7729,-70.5 1099.7983,-70.5"/>
<text text-anchor="middle" x="1167.2856" y="-76.5" font-family="Helvetica,sans-Serif" font-size="10.00" fill="#000000">src/sensesp_app_builder.h</text>
</a>
</g>
</g>
<!-- Node19&#45;&gt;Node23 -->
<g id="edge5" class="edge">
<title>Node19&#45;&gt;Node23</title>
<path fill="none" stroke="#191970" d="M1114.6466,-128.3791C1128.0308,-115.9509 1146.0743,-99.1962 1157.1818,-88.8821"/>
<polygon fill="#191970" stroke="#191970" points="1111.9652,-126.0927 1107.0188,-135.462 1116.7284,-131.2223 1111.9652,-126.0927"/>
</g>
<!-- Node24 -->
<g id="node7" class="node">
<title>Node24</title>
<g id="a_node7"><a xlink:href="signalk__put__request_8cpp.html" target="_top" xlink:title=" ">
<polygon fill="#ffffff" stroke="#000000" points="1252.7144,-65.5 1252.7144,-93.5 1349.8569,-93.5 1349.8569,-65.5 1252.7144,-65.5"/>
<text text-anchor="start" x="1260.7144" y="-81.5" font-family="Helvetica,sans-Serif" font-size="10.00" fill="#000000">src/signalk/signalk</text>
<text text-anchor="middle" x="1301.2856" y="-71.5" font-family="Helvetica,sans-Serif" font-size="10.00" fill="#000000">_put_request.cpp</text>
</a>
</g>
</g>
<!-- Node19&#45;&gt;Node24 -->
<g id="edge6" class="edge">
<title>Node19&#45;&gt;Node24</title>
<path fill="none" stroke="#191970" d="M1135.3659,-132.3666C1169.8869,-121.3673 1220.7703,-105.1544 1257.0757,-93.5865"/>
<polygon fill="#191970" stroke="#191970" points="1134.1164,-129.0913 1125.651,-135.462 1136.2416,-135.7609 1134.1164,-129.0913"/>
</g>
<!-- Node25 -->
<g id="node8" class="node">
<title>Node25</title>
<g id="a_node8"><a xlink:href="enable_8cpp.html" target="_top" xlink:title=" ">
<polygon fill="#ffffff" stroke="#000000" points="1367.542,-70.5 1367.542,-88.5 1483.0293,-88.5 1483.0293,-70.5 1367.542,-70.5"/>
<text text-anchor="middle" x="1425.2856" y="-76.5" font-family="Helvetica,sans-Serif" font-size="10.00" fill="#000000">src/system/enable.cpp</text>
</a>
</g>
</g>
<!-- Node19&#45;&gt;Node25 -->
<g id="edge7" class="edge">
<title>Node19&#45;&gt;Node25</title>
<path fill="none" stroke="#191970" d="M1156.0594,-133.621C1209.2156,-123.6749 1289.5986,-108.3685 1359.2856,-94 1367.5584,-92.2943 1376.3984,-90.401 1384.8322,-88.5607"/>
<polygon fill="#191970" stroke="#191970" points="1155.3185,-130.1988 1146.1312,-135.4756 1156.6039,-137.0797 1155.3185,-130.1988"/>
</g>
<!-- Node26 -->
<g id="node9" class="node">
<title>Node26</title>
<g id="a_node9"><a xlink:href="led__blinker_8cpp.html" target="_top" xlink:title=" ">
<polygon fill="#ffffff" stroke="#000000" points="718.6479,-70.5 718.6479,-88.5 851.9233,-88.5 851.9233,-70.5 718.6479,-70.5"/>
<text text-anchor="middle" x="785.2856" y="-76.5" font-family="Helvetica,sans-Serif" font-size="10.00" fill="#000000">src/system/led_blinker.cpp</text>
</a>
</g>
</g>
<!-- Node19&#45;&gt;Node26 -->
<g id="edge8" class="edge">
<title>Node19&#45;&gt;Node26</title>
<path fill="none" stroke="#191970" d="M1044.1093,-133.4216C983.2908,-120.7511 884.8772,-100.2482 828.5501,-88.5134"/>
<polygon fill="#191970" stroke="#191970" points="1043.3997,-136.8488 1053.9034,-135.462 1044.8274,-129.996 1043.3997,-136.8488"/>
</g>
<!-- Node27 -->
<g id="node10" class="node">
<title>Node27</title>
<g id="a_node10"><a xlink:href="wiring__helpers_8h.html" target="_top" xlink:title=" ">
<polygon fill="#ffffff" stroke="#000000" points="1538.8228,-70.5 1538.8228,-88.5 1643.7485,-88.5 1643.7485,-70.5 1538.8228,-70.5"/>
<text text-anchor="middle" x="1591.2856" y="-76.5" font-family="Helvetica,sans-Serif" font-size="10.00" fill="#000000">src/wiring_helpers.h</text>
</a>
</g>
</g>
<!-- Node19&#45;&gt;Node27 -->
<g id="edge9" class="edge">
<title>Node19&#45;&gt;Node27</title>
<path fill="none" stroke="#191970" d="M1157.5811,-137.1388C1235.0878,-127.5966 1373.8034,-110.2492 1492.2856,-94 1507.3442,-91.9348 1523.6745,-89.5874 1538.648,-87.392"/>
<polygon fill="#191970" stroke="#191970" points="1157.017,-133.6818 1147.5189,-138.3761 1157.8713,-140.6294 1157.017,-133.6818"/>
</g>
<!-- Node28 -->
<g id="node11" class="node">
<title>Node28</title>
<g id="a_node11"><a xlink:href="wiring__helpers_8cpp.html" target="_top" xlink:title=" ">
<polygon fill="#ffffff" stroke="#000000" points="1042.542,-5.5 1042.542,-23.5 1158.0293,-23.5 1158.0293,-5.5 1042.542,-5.5"/>
<text text-anchor="middle" x="1100.2856" y="-11.5" font-family="Helvetica,sans-Serif" font-size="10.00" fill="#000000">src/wiring_helpers.cpp</text>
</a>
</g>
</g>
<!-- Node19&#45;&gt;Node28 -->
<g id="edge11" class="edge">
<title>Node19&#45;&gt;Node28</title>
<path fill="none" stroke="#191970" d="M1036.9434,-140.9617C933.3145,-134.2645 730.5428,-118.2031 709.2856,-94 700.7803,-84.3159 700.7755,-74.6799 709.2856,-65 730.9216,-40.3899 938.9816,-24.3403 1042.4509,-17.8151"/>
<polygon fill="#191970" stroke="#191970" points="1036.7533,-144.4566 1046.9556,-141.5996 1037.1984,-137.4708 1036.7533,-144.4566"/>
</g>
<!-- Node27&#45;&gt;Node28 -->
<g id="edge10" class="edge">
<title>Node27&#45;&gt;Node28</title>
<path fill="none" stroke="#191970" d="M1543.0797,-68.3381C1537.1043,-67.1234 1531.066,-65.976 1525.2856,-65 1394.8708,-42.9804 1240.3438,-27.1671 1158.2859,-19.5751"/>
<polygon fill="#191970" stroke="#191970" points="1542.5137,-71.7955 1553.0199,-70.4276 1543.9538,-64.9453 1542.5137,-71.7955"/>
</g>
<!-- Node29&#45;&gt;Node22 -->
<g id="edge13" class="edge">
<title>Node29&#45;&gt;Node22</title>
<path fill="none" stroke="#191970" d="M460.6424,-121.7393C467.8451,-110.3204 476.1625,-97.1342 481.5619,-88.5743"/>
<polygon fill="#191970" stroke="#191970" points="457.5568,-120.0707 455.182,-130.396 463.4774,-123.8053 457.5568,-120.0707"/>
</g>
<!-- Node29&#45;&gt;Node28 -->
<g id="edge15" class="edge">
<title>Node29&#45;&gt;Node28</title>
<path fill="none" stroke="#191970" d="M429.3948,-121.7643C418.5636,-104.2231 408.9689,-80.4244 423.2856,-65 444.2329,-42.432 882.2107,-23.0541 1042.3246,-16.6995"/>
<polygon fill="#191970" stroke="#191970" points="426.6061,-123.8919 435.0514,-130.2893 432.4389,-120.0216 426.6061,-123.8919"/>
</g>
<!-- Node30 -->
<g id="node13" class="node">
<title>Node30</title>
<g id="a_node13"><a xlink:href="analog__input_8cpp.html" target="_top" xlink:title=" ">
<polygon fill="#ffffff" stroke="#000000" points="276.3203,-65.5 276.3203,-93.5 376.251,-93.5 376.251,-65.5 276.3203,-65.5"/>
<text text-anchor="start" x="284.3203" y="-81.5" font-family="Helvetica,sans-Serif" font-size="10.00" fill="#000000">src/sensors/analog</text>
<text text-anchor="middle" x="326.2856" y="-71.5" font-family="Helvetica,sans-Serif" font-size="10.00" fill="#000000">_input.cpp</text>
</a>
</g>
</g>
<!-- Node29&#45;&gt;Node30 -->
<g id="edge14" class="edge">
<title>Node29&#45;&gt;Node30</title>
<path fill="none" stroke="#191970" d="M411.3472,-125.575C392.4706,-115.3502 369.5595,-102.94 352.273,-93.5765"/>
<polygon fill="#191970" stroke="#191970" points="409.7875,-128.7106 420.2474,-130.396 413.1215,-122.5556 409.7875,-128.7106"/>
</g>
<!-- Node31&#45;&gt;Node22 -->
<g id="edge17" class="edge">
<title>Node31&#45;&gt;Node22</title>
<path fill="none" stroke="#191970" d="M306.2583,-128.7334C352.5262,-116.1501 415.7156,-98.9647 453.896,-88.5809"/>
<polygon fill="#191970" stroke="#191970" points="305.0943,-125.4227 296.3634,-131.4245 306.9314,-132.1774 305.0943,-125.4227"/>
</g>
<!-- Node31&#45;&gt;Node28 -->
<g id="edge21" class="edge">
<title>Node31&#45;&gt;Node28</title>
<path fill="none" stroke="#191970" d="M247.0096,-120.3109C247.4906,-102.1765 251.4605,-78.2855 267.2856,-65 296.9513,-40.0952 858.4622,-21.556 1042.453,-16.1291"/>
<polygon fill="#191970" stroke="#191970" points="243.5105,-120.4784 247.076,-130.4553 250.5103,-120.4326 243.5105,-120.4784"/>
</g>
<!-- Node32 -->
<g id="node15" class="node">
<title>Node32</title>
<g id="a_node15"><a xlink:href="digital__input_8cpp.html" target="_top" xlink:title=" ">
<polygon fill="#ffffff" stroke="#000000" points="124.271,-65.5 124.271,-93.5 220.3003,-93.5 220.3003,-65.5 124.271,-65.5"/>
<text text-anchor="start" x="132.271" y="-81.5" font-family="Helvetica,sans-Serif" font-size="10.00" fill="#000000">src/sensors/digital</text>
<text text-anchor="middle" x="172.2856" y="-71.5" font-family="Helvetica,sans-Serif" font-size="10.00" fill="#000000">_input.cpp</text>
</a>
</g>
</g>
<!-- Node31&#45;&gt;Node32 -->
<g id="edge18" class="edge">
<title>Node31&#45;&gt;Node32</title>
<path fill="none" stroke="#191970" d="M224.1798,-123.8832C212.6305,-114.0054 199.0953,-102.4293 188.7443,-93.5765"/>
<polygon fill="#191970" stroke="#191970" points="221.9202,-126.5561 231.7948,-130.396 226.47,-121.2364 221.9202,-126.5561"/>
</g>
<!-- Node33 -->
<g id="node16" class="node">
<title>Node33</title>
<g id="a_node16"><a xlink:href="press__repeater_8h.html" target="_top" xlink:title=" ">
<polygon fill="#ffffff" stroke="#000000" points="0,-65.5 0,-93.5 106.5713,-93.5 106.5713,-65.5 0,-65.5"/>
<text text-anchor="start" x="8" y="-81.5" font-family="Helvetica,sans-Serif" font-size="10.00" fill="#000000">src/transforms/press</text>
<text text-anchor="middle" x="53.2856" y="-71.5" font-family="Helvetica,sans-Serif" font-size="10.00" fill="#000000">_repeater.h</text>
</a>
</g>
</g>
<!-- Node31&#45;&gt;Node33 -->
<g id="edge19" class="edge">
<title>Node31&#45;&gt;Node33</title>
<path fill="none" stroke="#191970" d="M196.469,-127.2278C164.925,-116.7131 125.1379,-103.4508 95.5152,-93.5765"/>
<polygon fill="#191970" stroke="#191970" points="195.3799,-130.554 205.9735,-130.396 197.5935,-123.9132 195.3799,-130.554"/>
</g>
<!-- Node34 -->
<g id="node17" class="node">
<title>Node34</title>
<g id="a_node17"><a xlink:href="press__repeater_8cpp.html" target="_top" xlink:title=" ">
<polygon fill="#ffffff" stroke="#000000" points="0,-.5 0,-28.5 106.5713,-28.5 106.5713,-.5 0,-.5"/>
<text text-anchor="start" x="8" y="-16.5" font-family="Helvetica,sans-Serif" font-size="10.00" fill="#000000">src/transforms/press</text>
<text text-anchor="middle" x="53.2856" y="-6.5" font-family="Helvetica,sans-Serif" font-size="10.00" fill="#000000">_repeater.cpp</text>
</a>
</g>
</g>
<!-- Node33&#45;&gt;Node34 -->
<g id="edge20" class="edge">
<title>Node33&#45;&gt;Node34</title>
<path fill="none" stroke="#191970" d="M53.2856,-55.1081C53.2856,-46.1539 53.2856,-36.3227 53.2856,-28.5765"/>
<polygon fill="#191970" stroke="#191970" points="49.7857,-55.3959 53.2856,-65.396 56.7857,-55.396 49.7857,-55.3959"/>
</g>
<!-- Node35&#45;&gt;Node22 -->
<g id="edge23" class="edge">
<title>Node35&#45;&gt;Node22</title>
<path fill="none" stroke="#191970" d="M575.4665,-125.7238C552.1836,-113.5191 522.8665,-98.1513 504.5966,-88.5743"/>
<polygon fill="#191970" stroke="#191970" points="573.8976,-128.8531 584.3795,-130.396 577.1475,-122.6533 573.8976,-128.8531"/>
</g>
<!-- Node36 -->
<g id="node19" class="node">
<title>Node36</title>
<g id="a_node19"><a xlink:href="system__info_8cpp.html" target="_top" xlink:title=" ">
<polygon fill="#ffffff" stroke="#000000" points="560.5,-65.5 560.5,-93.5 662.0713,-93.5 662.0713,-65.5 560.5,-65.5"/>
<text text-anchor="start" x="568.5" y="-81.5" font-family="Helvetica,sans-Serif" font-size="10.00" fill="#000000">src/sensors/system</text>
<text text-anchor="middle" x="611.2856" y="-71.5" font-family="Helvetica,sans-Serif" font-size="10.00" fill="#000000">_info.cpp</text>
</a>
</g>
</g>
<!-- Node35&#45;&gt;Node36 -->
<g id="edge24" class="edge">
<title>Node35&#45;&gt;Node36</title>
<path fill="none" stroke="#191970" d="M611.2856,-120.1081C611.2856,-111.1539 611.2856,-101.3227 611.2856,-93.5765"/>
<polygon fill="#191970" stroke="#191970" points="607.7857,-120.3959 611.2856,-130.396 614.7857,-120.396 607.7857,-120.3959"/>
</g>
<!-- Node38 -->
<g id="node21" class="node">
<title>Node38</title>
<g id="a_node21"><a xlink:href="ads1x15_8cpp.html" target="_top" xlink:title=" ">
<polygon fill="#ffffff" stroke="#000000" points="2022.9805,-70.5 2022.9805,-88.5 2149.5908,-88.5 2149.5908,-70.5 2022.9805,-70.5"/>
<text text-anchor="middle" x="2086.2856" y="-76.5" font-family="Helvetica,sans-Serif" font-size="10.00" fill="#000000">src/sensors/ads1x15.cpp</text>
</a>
</g>
</g>
<!-- Node37&#45;&gt;Node38 -->
<g id="edge26" class="edge">
<title>Node37&#45;&gt;Node38</title>
<path fill="none" stroke="#191970" d="M2069.1668,-125.8634C2073.6335,-113.7661 2079.2647,-98.5151 2082.8215,-88.8821"/>
<polygon fill="#191970" stroke="#191970" points="2065.8032,-124.8687 2065.6227,-135.462 2072.3699,-127.2934 2065.8032,-124.8687"/>
</g>
<!-- Node40 -->
<g id="node23" class="node">
<title>Node40</title>
<g id="a_node23"><a xlink:href="bme280_8cpp.html" target="_top" xlink:title=" ">
<polygon fill="#ffffff" stroke="#000000" points="2167.8154,-70.5 2167.8154,-88.5 2292.7559,-88.5 2292.7559,-70.5 2167.8154,-70.5"/>
<text text-anchor="middle" x="2230.2856" y="-76.5" font-family="Helvetica,sans-Serif" font-size="10.00" fill="#000000">src/sensors/bme280.cpp</text>
</a>
</g>
</g>
<!-- Node39&#45;&gt;Node40 -->
<g id="edge28" class="edge">
<title>Node39&#45;&gt;Node40</title>
<path fill="none" stroke="#191970" d="M2204.9281,-126.5926C2211.5016,-114.3846 2219.9419,-98.7097 2225.2337,-88.8821"/>
<polygon fill="#191970" stroke="#191970" points="2201.8116,-124.9979 2200.1522,-135.462 2207.9749,-128.3167 2201.8116,-124.9979"/>
</g>
<!-- Node42 -->
<g id="node25" class="node">
<title>Node42</title>
<g id="a_node25"><a xlink:href="bmp280_8cpp.html" target="_top" xlink:title=" ">
<polygon fill="#ffffff" stroke="#000000" points="2310.8154,-70.5 2310.8154,-88.5 2435.7559,-88.5 2435.7559,-70.5 2310.8154,-70.5"/>
<text text-anchor="middle" x="2373.2856" y="-76.5" font-family="Helvetica,sans-Serif" font-size="10.00" fill="#000000">src/sensors/bmp280.cpp</text>
</a>
</g>
</g>
<!-- Node41&#45;&gt;Node42 -->
<g id="edge30" class="edge">
<title>Node41&#45;&gt;Node42</title>
<path fill="none" stroke="#191970" d="M2339.7027,-126.9542C2348.378,-114.6956 2359.6222,-98.807 2366.646,-88.8821"/>
<polygon fill="#191970" stroke="#191970" points="2336.6015,-125.2774 2333.6817,-135.462 2342.3154,-129.3212 2336.6015,-125.2774"/>
</g>
<!-- Node43&#45;&gt;Node27 -->
<g id="edge36" class="edge">
<title>Node43&#45;&gt;Node27</title>
<path fill="none" stroke="#191970" d="M1688.2722,-130.7531C1664.2969,-118.0832 1629.3838,-99.6332 1608.6395,-88.6708"/>
<polygon fill="#191970" stroke="#191970" points="1686.7063,-133.8842 1697.183,-135.462 1689.9769,-127.6952 1686.7063,-133.8842"/>
</g>
<!-- Node43&#45;&gt;Node28 -->
<g id="edge37" class="edge">
<title>Node43&#45;&gt;Node28</title>
<path fill="none" stroke="#191970" d="M1656.5371,-134.5909C1619.2093,-126.7723 1570.3074,-113.822 1530.2856,-94 1511.2476,-84.5708 1511.9356,-73.0771 1492.2856,-65 1433.1041,-40.6735 1252.1038,-24.9893 1158.1882,-18.2663"/>
<polygon fill="#191970" stroke="#191970" points="1656.2452,-138.1029 1666.7415,-136.6616 1657.6373,-131.2428 1656.2452,-138.1029"/>
</g>
<!-- Node44 -->
<g id="node27" class="node">
<title>Node44</title>
<g id="a_node27"><a xlink:href="gps_8cpp.html" target="_top" xlink:title=" ">
<polygon fill="#ffffff" stroke="#000000" points="1661.8228,-70.5 1661.8228,-88.5 1766.7485,-88.5 1766.7485,-70.5 1661.8228,-70.5"/>
<text text-anchor="middle" x="1714.2856" y="-76.5" font-family="Helvetica,sans-Serif" font-size="10.00" fill="#000000">src/sensors/gps.cpp</text>
</a>
</g>
</g>
<!-- Node43&#45;&gt;Node44 -->
<g id="edge32" class="edge">
<title>Node43&#45;&gt;Node44</title>
<path fill="none" stroke="#191970" d="M1714.2856,-125.1265C1714.2856,-113.1522 1714.2856,-98.3205 1714.2856,-88.8821"/>
<polygon fill="#191970" stroke="#191970" points="1710.7857,-125.462 1714.2856,-135.462 1717.7857,-125.4621 1710.7857,-125.462"/>
</g>
<!-- Node45 -->
<g id="node28" class="node">
<title>Node45</title>
<g id="a_node28"><a xlink:href="signalk__position_8h.html" target="_top" xlink:title=" ">
<polygon fill="#ffffff" stroke="#000000" points="1784.7144,-65.5 1784.7144,-93.5 1881.8569,-93.5 1881.8569,-65.5 1784.7144,-65.5"/>
<text text-anchor="start" x="1792.7144" y="-81.5" font-family="Helvetica,sans-Serif" font-size="10.00" fill="#000000">src/signalk/signalk</text>
<text text-anchor="middle" x="1833.2856" y="-71.5" font-family="Helvetica,sans-Serif" font-size="10.00" fill="#000000">_position.h</text>
</a>
</g>
</g>
<!-- Node43&#45;&gt;Node45 -->
<g id="edge33" class="edge">
<title>Node43&#45;&gt;Node45</title>
<path fill="none" stroke="#191970" d="M1739.6534,-130.6437C1759.5685,-119.7657 1787.1923,-104.677 1807.2717,-93.7093"/>
<polygon fill="#191970" stroke="#191970" points="1737.9304,-127.5966 1730.8321,-135.462 1741.286,-133.7399 1737.9304,-127.5966"/>
</g>
<!-- Node45&#45;&gt;Node28 -->
<g id="edge35" class="edge">
<title>Node45&#45;&gt;Node28</title>
<path fill="none" stroke="#191970" d="M1774.6445,-65.1043C1541.3454,-28.2429 1274.1638,-18.2796 1158.4614,-15.5235"/>
<polygon fill="#191970" stroke="#191970" points="1774.2486,-68.5854 1784.676,-66.7094 1775.3546,-61.6733 1774.2486,-68.5854"/>
</g>
<!-- Node46 -->
<g id="node29" class="node">
<title>Node46</title>
<g id="a_node29"><a xlink:href="signalk__position_8cpp.html" target="_top" xlink:title=" ">
<polygon fill="#ffffff" stroke="#000000" points="1784.7144,-.5 1784.7144,-28.5 1881.8569,-28.5 1881.8569,-.5 1784.7144,-.5"/>
<text text-anchor="start" x="1792.7144" y="-16.5" font-family="Helvetica,sans-Serif" font-size="10.00" fill="#000000">src/signalk/signalk</text>
<text text-anchor="middle" x="1833.2856" y="-6.5" font-family="Helvetica,sans-Serif" font-size="10.00" fill="#000000">_position.cpp</text>
</a>
</g>
</g>
<!-- Node45&#45;&gt;Node46 -->
<g id="edge34" class="edge">
<title>Node45&#45;&gt;Node46</title>
<path fill="none" stroke="#191970" d="M1833.2856,-55.1081C1833.2856,-46.1539 1833.2856,-36.3227 1833.2856,-28.5765"/>
<polygon fill="#191970" stroke="#191970" points="1829.7857,-55.3959 1833.2856,-65.396 1836.7857,-55.396 1829.7857,-55.3959"/>
</g>
<!-- Node48 -->
<g id="node31" class="node">
<title>Node48</title>
<g id="a_node31"><a xlink:href="ina219_8cpp.html" target="_top" xlink:title=" ">
<polygon fill="#ffffff" stroke="#000000" points="2453.8696,-70.5 2453.8696,-88.5 2572.7017,-88.5 2572.7017,-70.5 2453.8696,-70.5"/>
<text text-anchor="middle" x="2513.2856" y="-76.5" font-family="Helvetica,sans-Serif" font-size="10.00" fill="#000000">src/sensors/ina219.cpp</text>
</a>
</g>
</g>
<!-- Node47&#45;&gt;Node48 -->
<g id="edge39" class="edge">
<title>Node47&#45;&gt;Node48</title>
<path fill="none" stroke="#191970" d="M2471.0433,-127.6711C2481.8734,-115.321 2496.1842,-99.0016 2505.0582,-88.8821"/>
<polygon fill="#191970" stroke="#191970" points="2468.173,-125.6358 2464.2113,-135.462 2473.436,-130.251 2468.173,-125.6358"/>
</g>
<!-- Node50 -->
<g id="node33" class="node">
<title>Node50</title>
<g id="a_node33"><a xlink:href="max31856__thermocouple_8cpp.html" target="_top" xlink:title=" ">
<polygon fill="#ffffff" stroke="#000000" points="2590.9854,-65.5 2590.9854,-93.5 2707.5859,-93.5 2707.5859,-65.5 2590.9854,-65.5"/>
<text text-anchor="start" x="2598.9854" y="-81.5" font-family="Helvetica,sans-Serif" font-size="10.00" fill="#000000">src/sensors/max31856</text>
<text text-anchor="middle" x="2649.2856" y="-71.5" font-family="Helvetica,sans-Serif" font-size="10.00" fill="#000000">_thermocouple.cpp</text>
</a>
</g>
</g>
<!-- Node49&#45;&gt;Node50 -->
<g id="edge41" class="edge">
<title>Node49&#45;&gt;Node50</title>
<path fill="none" stroke="#191970" d="M2607.1006,-123.0243C2616.487,-113.3398 2627.3094,-102.1739 2635.6423,-93.5765"/>
<polygon fill="#191970" stroke="#191970" points="2604.4022,-120.7793 2599.9557,-130.396 2609.4287,-125.6512 2604.4022,-120.7793"/>
</g>
<!-- Node51&#45;&gt;Node27 -->
<g id="edge44" class="edge">
<title>Node51&#45;&gt;Node27</title>
<path fill="none" stroke="#191970" d="M1833.7428,-131.947C1784.6106,-121.9784 1714.4958,-107.5158 1653.2856,-94 1645.5137,-92.2839 1637.2092,-90.3861 1629.2865,-88.5446"/>
<polygon fill="#191970" stroke="#191970" points="1833.0931,-135.3864 1843.5889,-133.9416 1834.4829,-128.5258 1833.0931,-135.3864"/>
</g>
<!-- Node51&#45;&gt;Node52 -->
<g id="edge43" class="edge">
<title>Node51&#45;&gt;Node52</title>
<path fill="none" stroke="#191970" d="M1915.036,-122.7362C1923.3216,-113.119 1932.8245,-102.0888 1940.1582,-93.5765"/>
<polygon fill="#191970" stroke="#191970" points="1912.3123,-120.5354 1908.4368,-130.396 1917.6156,-125.1044 1912.3123,-120.5354"/>
</g>
<!-- Node54 -->
<g id="node37" class="node">
<title>Node54</title>
<g id="a_node37"><a xlink:href="orientation__9dof__input_8cpp.html" target="_top" xlink:title=" ">
<polygon fill="#ffffff" stroke="#000000" points="2725.9854,-65.5 2725.9854,-93.5 2842.5859,-93.5 2842.5859,-65.5 2725.9854,-65.5"/>
<text text-anchor="start" x="2733.9854" y="-81.5" font-family="Helvetica,sans-Serif" font-size="10.00" fill="#000000">src/sensors/orientation</text>
<text text-anchor="middle" x="2784.2856" y="-71.5" font-family="Helvetica,sans-Serif" font-size="10.00" fill="#000000">_9dof_input.cpp</text>
</a>
</g>
</g>
<!-- Node53&#45;&gt;Node54 -->
<g id="edge47" class="edge">
<title>Node53&#45;&gt;Node54</title>
<path fill="none" stroke="#191970" d="M2742.1006,-123.0243C2751.487,-113.3398 2762.3094,-102.1739 2770.6423,-93.5765"/>
<polygon fill="#191970" stroke="#191970" points="2739.4022,-120.7793 2734.9557,-130.396 2744.4287,-125.6512 2739.4022,-120.7793"/>
</g>
<!-- Node57 -->
<g id="node40" class="node">
<title>Node57</title>
<g id="a_node40"><a xlink:href="sht31_8cpp.html" target="_top" xlink:title=" ">
<polygon fill="#ffffff" stroke="#000000" points="2926.6528,-70.5 2926.6528,-88.5 3039.9185,-88.5 3039.9185,-70.5 2926.6528,-70.5"/>
<text text-anchor="middle" x="2983.2856" y="-76.5" font-family="Helvetica,sans-Serif" font-size="10.00" fill="#000000">src/sensors/sht31.cpp</text>
</a>
</g>
</g>
<!-- Node56&#45;&gt;Node57 -->
<g id="edge50" class="edge">
<title>Node56&#45;&gt;Node57</title>
<path fill="none" stroke="#191970" d="M2983.9876,-125.1265C2983.8034,-113.1522 2983.5752,-98.3205 2983.43,-88.8821"/>
<polygon fill="#191970" stroke="#191970" points="2980.4931,-125.5171 2984.1466,-135.462 2987.4923,-125.4093 2980.4931,-125.5171"/>
</g>
<!-- Node59 -->
<g id="node42" class="node">
<title>Node59</title>
<g id="a_node42"><a xlink:href="ultrasonic__distance_8cpp.html" target="_top" xlink:title=" ">
<polygon fill="#ffffff" stroke="#000000" points="3057.936,-65.5 3057.936,-93.5 3170.6353,-93.5 3170.6353,-65.5 3057.936,-65.5"/>
<text text-anchor="start" x="3065.936" y="-81.5" font-family="Helvetica,sans-Serif" font-size="10.00" fill="#000000">src/sensors/ultrasonic</text>
<text text-anchor="middle" x="3114.2856" y="-71.5" font-family="Helvetica,sans-Serif" font-size="10.00" fill="#000000">_distance.cpp</text>
</a>
</g>
</g>
<!-- Node58&#45;&gt;Node59 -->
<g id="edge52" class="edge">
<title>Node58&#45;&gt;Node59</title>
<path fill="none" stroke="#191970" d="M3113.0362,-120.1081C3113.3117,-111.1539 3113.6142,-101.3227 3113.8525,-93.5765"/>
<polygon fill="#191970" stroke="#191970" points="3109.5289,-120.293 3112.7196,-130.396 3116.5256,-120.5084 3109.5289,-120.293"/>
</g>
</g>
</svg>
        <g id="navigator" transform="translate(0 0)" fill="#404254">
                <rect fill="#f2f5e9" fill-opacity="0.5" stroke="#606060" stroke-width=".5" x="0" y="0" width="60" height="60"/>
                <use id="zoomplus" xlink:href="#zoomPlus" x="17" y="9" onmousedown="handleZoom(evt,'in')"/>
                <use id="zoomminus" xlink:href="#zoomMin" x="42" y="9" onmousedown="handleZoom(evt,'out')"/>
                <use id="reset" xlink:href="#resetDef" x="30" y="36" onmousedown="handleReset()"/>
                <g id="arrowUp" xlink:href="#dirArrow" transform="translate(30 24)" onmousedown="handlePan(0,-1)">
                  <use xlink:href="#rim" fill="#404040">
                        <set attributeName="fill" to="#808080" begin="arrowUp.mouseover" end="arrowUp.mouseout"/>
                  </use>
                  <path fill="none" stroke="white" stroke-width="1.5" d="M0,-3.0v7 M-2.5,-0.5L0,-3.0L2.5,-0.5"/>
                </g>
                <g id="arrowRight" xlink:href="#dirArrow" transform="rotate(90) translate(36 -43)" onmousedown="handlePan(1,0)">
                  <use xlink:href="#rim" fill="#404040">
                        <set attributeName="fill" to="#808080" begin="arrowRight.mouseover" end="arrowRight.mouseout"/>
                  </use>
                  <path fill="none" stroke="white" stroke-width="1.5" d="M0,-3.0v7 M-2.5,-0.5L0,-3.0L2.5,-0.5"/>
                </g>
                <g id="arrowDown" xlink:href="#dirArrow" transform="rotate(180) translate(-30 -48)" onmousedown="handlePan(0,1)">
                  <use xlink:href="#rim" fill="#404040">
                        <set attributeName="fill" to="#808080" begin="arrowDown.mouseover" end="arrowDown.mouseout"/>
                  </use>
                  <path fill="none" stroke="white" stroke-width="1.5" d="M0,-3.0v7 M-2.5,-0.5L0,-3.0L2.5,-0.5"/>
                </g>
                <g id="arrowLeft" xlink:href="#dirArrow" transform="rotate(270) translate(-36 17)" onmousedown="handlePan(-1,0)">
                  <use xlink:href="#rim" fill="#404040">
                        <set attributeName="fill" to="#808080" begin="arrowLeft.mouseover" end="arrowLeft.mouseout"/>
                  </use>
                  <path fill="none" stroke="white" stroke-width="1.5" d="M0,-3.0v7 M-2.5,-0.5L0,-3.0L2.5,-0.5"/>
                </g>
        </g>
        <svg viewBox="0 0 15 15" width="100%" height="30px" preserveAspectRatio="xMaxYMin meet">
         <g id="arrow_out" transform="scale(0.3 0.3)">
          <a xlink:href="sensor_8h__dep__incl_org.svg" target="_base">
           <rect id="button" ry="5" rx="5" y="6" x="6" height="38" width="38"
                fill="#f2f5e9" fill-opacity="0.5" stroke="#606060" stroke-width="1.0"/>
           <path id="arrow"
             d="M 11.500037,31.436501 C 11.940474,20.09759 22.043105,11.32322 32.158766,21.979434 L 37.068811,17.246167 C 37.068811,17.246167 37.088388,32 37.088388,32 L 22.160133,31.978069 C 22.160133,31.978069 26.997745,27.140456 26.997745,27.140456 C 18.528582,18.264221 13.291696,25.230495 11.500037,31.436501 z"
             style="fill:#404040;"/>
          </a>
         </g>
        </svg>
</svg>
