<?xml version="1.0" encoding="UTF-8" standalone="no"?>
<!DOCTYPE svg PUBLIC "-//W3C//DTD SVG 1.1//EN"
 "http://www.w3.org/Graphics/SVG/1.1/DTD/svg11.dtd">
<!-- Generated by graphviz version 14.1.4 (20260321.0153)
 -->
<!-- Title: src/sensesp/sensors/sensor.h Pages: 1 -->
<!--zoomable 238 -->

<svg id="main" version="1.1" xmlns="http://www.w3.org/2000/svg" xmlns:xlink="http://www.w3.org/1999/xlink" xml:space="preserve" onload="init(evt)">

<style type="text/css"><![CDATA[
.node, .edge {opacity: 0.7;}
.node.selected, .edge.selected {opacity: 1;}
.edge:hover path { stroke: red; }
.edge:hover polygon { stroke: red; fill: red; }
]]></style>

<defs>
  <circle id="rim" cx="0" cy="0" r="7"/>
  <circle id="rim2" cx="0" cy="0" r="3.5"/>
  <g id="zoomPlus">
    <use xlink:href="#rim" fill="#404040"><set attributeName="fill" to="#808080" begin="zoomplus.mouseover" end="zoomplus.mouseout"/></use>
    <path d="M-4,0h8M0,-4v8" fill="none" stroke="white" stroke-width="1.5" pointer-events="none"/>
  </g>
  <g id="zoomMin">
    <use xlink:href="#rim" fill="#404040"><set attributeName="fill" to="#808080" begin="zoomminus.mouseover" end="zoomminus.mouseout"/></use>
    <path d="M-4,0h8" fill="none" stroke="white" stroke-width="1.5" pointer-events="none"/>
  </g>
  <g id="arrowUp" transform="translate(30 24)">
    <use xlink:href="#rim"/>
    <path pointer-events="none" fill="none" stroke="white" stroke-width="1.5" d="M0,-3.0v7 M-2.5,-0.5L0,-3.0L2.5,-0.5"/>
  </g>
  <g id="arrowRight" transform="rotate(90) translate(36 -43)">
    <use xlink:href="#rim"/>
    <path pointer-events="none" fill="none" stroke="white" stroke-width="1.5" d="M0,-3.0v7 M-2.5,-0.5L0,-3.0L2.5,-0.5"/>
  </g>
  <g id="arrowDown" transform="rotate(180) translate(-30 -48)">
    <use xlink:href="#rim"/>
    <path pointer-events="none" fill="none" stroke="white" stroke-width="1.5" d="M0,-3.0v7 M-2.5,-0.5L0,-3.0L2.5,-0.5"/>
  </g>
  <g id="arrowLeft" transform="rotate(270) translate(-36 17)">
    <use xlink:href="#rim"/>
    <path pointer-events="none" fill="none" stroke="white" stroke-width="1.5" d="M0,-3.0v7 M-2.5,-0.5L0,-3.0L2.5,-0.5"/>
  </g>
  <g id="resetDef">
    <use xlink:href="#rim2" fill="#404040"><set attributeName="fill" to="#808080" begin="reset.mouseover" end="reset.mouseout"/></use>
  </g>
</defs>
<script type="application/ecmascript">
var viewWidth = 1885;
var viewHeight = 238;
var sectionId = 'dynsection-1';
</script>
<script type="application/ecmascript" xlink:href="svg.min.js"/>
<svg id="graph" class="graph">
<g id="viewport">
<title>src/sensesp/sensors/sensor.h</title>
<!-- Node1 -->
<g id="Node000001" class="node">
<title>Node1</title>
<g id="a_Node000001"><a xlink:title=" ">
<polygon fill="#999999" stroke="#666666" points="452.75,-230 346,-230 346,-199.5 452.75,-199.5 452.75,-230"/>
<text xml:space="preserve" text-anchor="start" x="354" y="-216.5" font-family="Helvetica,sans-Serif" font-size="10.00">src/sensesp/sensors</text>
<text xml:space="preserve" text-anchor="middle" x="399.38" y="-205.25" font-family="Helvetica,sans-Serif" font-size="10.00">/sensor.h</text>
</a>
</g>
</g>
<!-- Node2 -->
<g id="Node000002" class="node">
<title>Node2</title>
<g id="a_Node000002"><a xlink:href="analog__input_8h.html" target="_top" xlink:title=" ">
<polygon fill="white" stroke="#666666" points="134.75,-163.5 28,-163.5 28,-133 134.75,-133 134.75,-163.5"/>
<text xml:space="preserve" text-anchor="start" x="36" y="-150" font-family="Helvetica,sans-Serif" font-size="10.00">src/sensesp/sensors</text>
<text xml:space="preserve" text-anchor="middle" x="81.38" y="-138.75" font-family="Helvetica,sans-Serif" font-size="10.00">/analog_input.h</text>
</a>
</g>
</g>
<!-- Node1&#45;&gt;Node2 -->
<g id="edge1_Node000001_Node000002" class="edge">
<title>Node1&#45;&gt;Node2</title>
<g id="a_edge1_Node000001_Node000002"><a xlink:title=" ">
<path fill="none" stroke="#63b8ff" d="M334.78,-200.65C276.02,-188.73 190.3,-171.34 135.18,-160.16"/>
<polygon fill="#63b8ff" stroke="#63b8ff" points="333.81,-204.02 344.31,-202.58 335.2,-197.16 333.81,-204.02"/>
</a>
</g>
</g>
<!-- Node4 -->
<g id="Node000004" class="node">
<title>Node4</title>
<g id="a_Node000004"><a xlink:href="constant__sensor_8h.html" target="_top" xlink:title=" ">
<polygon fill="white" stroke="#666666" points="287.75,-163.5 181,-163.5 181,-133 287.75,-133 287.75,-163.5"/>
<text xml:space="preserve" text-anchor="start" x="189" y="-150" font-family="Helvetica,sans-Serif" font-size="10.00">src/sensesp/sensors</text>
<text xml:space="preserve" text-anchor="middle" x="234.38" y="-138.75" font-family="Helvetica,sans-Serif" font-size="10.00">/constant_sensor.h</text>
</a>
</g>
</g>
<!-- Node1&#45;&gt;Node4 -->
<g id="edge3_Node000001_Node000004" class="edge">
<title>Node1&#45;&gt;Node4</title>
<g id="a_edge3_Node000001_Node000004"><a xlink:title=" ">
<path fill="none" stroke="#63b8ff" d="M351.45,-195.01C326.14,-185.12 295.53,-173.15 271.95,-163.94"/>
<polygon fill="#63b8ff" stroke="#63b8ff" points="349.94,-198.18 360.52,-198.56 352.48,-191.66 349.94,-198.18"/>
</a>
</g>
</g>
<!-- Node5 -->
<g id="Node000005" class="node">
<title>Node5</title>
<g id="a_Node000005"><a xlink:href="digital__input_8h.html" target="_top" xlink:title=" ">
<polygon fill="white" stroke="#666666" points="412.75,-163.5 306,-163.5 306,-133 412.75,-133 412.75,-163.5"/>
<text xml:space="preserve" text-anchor="start" x="314" y="-150" font-family="Helvetica,sans-Serif" font-size="10.00">src/sensesp/sensors</text>
<text xml:space="preserve" text-anchor="middle" x="359.38" y="-138.75" font-family="Helvetica,sans-Serif" font-size="10.00">/digital_input.h</text>
</a>
</g>
</g>
<!-- Node1&#45;&gt;Node5 -->
<g id="edge4_Node000001_Node000005" class="edge">
<title>Node1&#45;&gt;Node5</title>
<g id="a_edge4_Node000001_Node000005"><a xlink:title=" ">
<path fill="none" stroke="#63b8ff" d="M384.34,-189.51C378.98,-180.87 373.11,-171.41 368.42,-163.83"/>
<polygon fill="#63b8ff" stroke="#63b8ff" points="381.26,-191.17 389.5,-197.83 387.2,-187.48 381.26,-191.17"/>
</a>
</g>
</g>
<!-- Node7 -->
<g id="Node000007" class="node">
<title>Node7</title>
<g id="a_Node000007"><a xlink:href="digital__pcnt__input_8h.html" target="_top" xlink:title=" ">
<polygon fill="white" stroke="#666666" points="493.75,-97 387,-97 387,-66.5 493.75,-66.5 493.75,-97"/>
<text xml:space="preserve" text-anchor="start" x="395" y="-83.5" font-family="Helvetica,sans-Serif" font-size="10.00">src/sensesp/sensors</text>
<text xml:space="preserve" text-anchor="middle" x="440.38" y="-72.25" font-family="Helvetica,sans-Serif" font-size="10.00">/digital_pcnt_input.h</text>
</a>
</g>
</g>
<!-- Node1&#45;&gt;Node7 -->
<g id="edge10_Node000001_Node000007" class="edge">
<title>Node1&#45;&gt;Node7</title>
<g id="a_edge10_Node000001_Node000007"><a xlink:title=" ">
<path fill="none" stroke="#63b8ff" d="M411.43,-188.65C414.95,-180.72 418.59,-171.85 421.38,-163.5 428.94,-140.82 434.68,-113.6 437.79,-97.26"/>
<polygon fill="#63b8ff" stroke="#63b8ff" points="408.27,-187.15 407.28,-197.7 414.63,-190.07 408.27,-187.15"/>
</a>
</g>
</g>
<!-- Node11 -->
<g id="Node000011" class="node">
<title>Node11</title>
<g id="a_Node000011"><a xlink:href="system__info_8h.html" target="_top" xlink:title=" ">
<polygon fill="white" stroke="#666666" points="618.75,-163.5 512,-163.5 512,-133 618.75,-133 618.75,-163.5"/>
<text xml:space="preserve" text-anchor="start" x="520" y="-150" font-family="Helvetica,sans-Serif" font-size="10.00">src/sensesp/sensors</text>
<text xml:space="preserve" text-anchor="middle" x="565.38" y="-138.75" font-family="Helvetica,sans-Serif" font-size="10.00">/system_info.h</text>
</a>
</g>
</g>
<!-- Node1&#45;&gt;Node11 -->
<g id="edge11_Node000001_Node000011" class="edge">
<title>Node1&#45;&gt;Node11</title>
<g id="a_edge11_Node000001_Node000011"><a xlink:title=" ">
<path fill="none" stroke="#63b8ff" d="M447.59,-195.01C473.06,-185.12 503.85,-173.15 527.57,-163.94"/>
<polygon fill="#63b8ff" stroke="#63b8ff" points="446.51,-191.68 438.45,-198.57 449.04,-198.21 446.51,-191.68"/>
</a>
</g>
</g>
<!-- Node14 -->
<g id="Node000014" class="node">
<title>Node14</title>
<g id="a_Node000014"><a xlink:href="sensesp__app_8h.html" target="_top" xlink:title=" ">
<polygon fill="white" stroke="#666666" points="1164.62,-157.88 1066.12,-157.88 1066.12,-138.62 1164.62,-138.62 1164.62,-157.88"/>
<text xml:space="preserve" text-anchor="middle" x="1115.38" y="-144.38" font-family="Helvetica,sans-Serif" font-size="10.00">src/sensesp_app.h</text>
</a>
</g>
</g>
<!-- Node1&#45;&gt;Node14 -->
<g id="edge14_Node000001_Node000014" class="edge">
<title>Node1&#45;&gt;Node14</title>
<g id="a_edge14_Node000001_Node000014"><a xlink:title=" ">
<path fill="none" stroke="#63b8ff" d="M464.25,-207.91C605.73,-195.16 939.42,-165.1 1065.74,-153.72"/>
<polygon fill="#63b8ff" stroke="#63b8ff" points="464.34,-204.38 454.7,-208.77 464.97,-211.35 464.34,-204.38"/>
</a>
</g>
</g>
<!-- Node3 -->
<g id="Node000003" class="node">
<title>Node3</title>
<g id="a_Node000003"><a xlink:href="analog__input_8cpp.html" target="_top" xlink:title=" ">
<polygon fill="white" stroke="#666666" points="106.75,-97 0,-97 0,-66.5 106.75,-66.5 106.75,-97"/>
<text xml:space="preserve" text-anchor="start" x="8" y="-83.5" font-family="Helvetica,sans-Serif" font-size="10.00">src/sensesp/sensors</text>
<text xml:space="preserve" text-anchor="middle" x="53.38" y="-72.25" font-family="Helvetica,sans-Serif" font-size="10.00">/analog_input.cpp</text>
</a>
</g>
</g>
<!-- Node2&#45;&gt;Node3 -->
<g id="edge2_Node000002_Node000003" class="edge">
<title>Node2&#45;&gt;Node3</title>
<g id="a_edge2_Node000002_Node000003"><a xlink:title=" ">
<path fill="none" stroke="#63b8ff" d="M70.48,-122.16C66.83,-113.75 62.89,-104.66 59.7,-97.33"/>
<polygon fill="#63b8ff" stroke="#63b8ff" points="67.23,-123.45 74.42,-131.23 73.65,-120.66 67.23,-123.45"/>
</a>
</g>
</g>
<!-- Node6 -->
<g id="Node000006" class="node">
<title>Node6</title>
<g id="a_Node000006"><a xlink:href="digital__input_8cpp.html" target="_top" xlink:title=" ">
<polygon fill="white" stroke="#666666" points="368.75,-97 262,-97 262,-66.5 368.75,-66.5 368.75,-97"/>
<text xml:space="preserve" text-anchor="start" x="270" y="-83.5" font-family="Helvetica,sans-Serif" font-size="10.00">src/sensesp/sensors</text>
<text xml:space="preserve" text-anchor="middle" x="315.38" y="-72.25" font-family="Helvetica,sans-Serif" font-size="10.00">/digital_input.cpp</text>
</a>
</g>
</g>
<!-- Node5&#45;&gt;Node6 -->
<g id="edge5_Node000005_Node000006" class="edge">
<title>Node5&#45;&gt;Node6</title>
<g id="a_edge5_Node000005_Node000006"><a xlink:title=" ">
<path fill="none" stroke="#63b8ff" d="M343.03,-123.29C337.08,-114.57 330.55,-104.99 325.32,-97.33"/>
<polygon fill="#63b8ff" stroke="#63b8ff" points="340.01,-125.08 348.54,-131.36 345.79,-121.13 340.01,-125.08"/>
</a>
</g>
</g>
<!-- Node5&#45;&gt;Node7 -->
<g id="edge6_Node000005_Node000007" class="edge">
<title>Node5&#45;&gt;Node7</title>
<g id="a_edge6_Node000005_Node000007"><a xlink:title=" ">
<path fill="none" stroke="#63b8ff" d="M386.67,-125.52C398.32,-116.23 411.62,-105.65 422.07,-97.33"/>
<polygon fill="#63b8ff" stroke="#63b8ff" points="384.58,-122.7 378.94,-131.67 388.94,-128.18 384.58,-122.7"/>
</a>
</g>
</g>
<!-- Node9 -->
<g id="Node000009" class="node">
<title>Node9</title>
<g id="a_Node000009"><a xlink:href="press__repeater_8h.html" target="_top" xlink:title=" ">
<polygon fill="white" stroke="#666666" points="243.75,-97 125,-97 125,-66.5 243.75,-66.5 243.75,-97"/>
<text xml:space="preserve" text-anchor="start" x="133" y="-83.5" font-family="Helvetica,sans-Serif" font-size="10.00">src/sensesp/transforms</text>
<text xml:space="preserve" text-anchor="middle" x="184.38" y="-72.25" font-family="Helvetica,sans-Serif" font-size="10.00">/press_repeater.h</text>
</a>
</g>
</g>
<!-- Node5&#45;&gt;Node9 -->
<g id="edge8_Node000005_Node000009" class="edge">
<title>Node5&#45;&gt;Node9</title>
<g id="a_edge8_Node000005_Node000009"><a xlink:title=" ">
<path fill="none" stroke="#63b8ff" d="M308.9,-128.65C281.99,-118.73 249.34,-106.7 224.23,-97.44"/>
<polygon fill="#63b8ff" stroke="#63b8ff" points="307.65,-131.92 318.24,-132.09 310.07,-125.35 307.65,-131.92"/>
</a>
</g>
</g>
<!-- Node8 -->
<g id="Node000008" class="node">
<title>Node8</title>
<g id="a_Node000008"><a xlink:href="digital__pcnt__input_8cpp.html" target="_top" xlink:title=" ">
<polygon fill="white" stroke="#666666" points="497.12,-30.5 383.62,-30.5 383.62,0 497.12,0 497.12,-30.5"/>
<text xml:space="preserve" text-anchor="start" x="391.62" y="-17" font-family="Helvetica,sans-Serif" font-size="10.00">src/sensesp/sensors</text>
<text xml:space="preserve" text-anchor="middle" x="440.38" y="-5.75" font-family="Helvetica,sans-Serif" font-size="10.00">/digital_pcnt_input.cpp</text>
</a>
</g>
</g>
<!-- Node7&#45;&gt;Node8 -->
<g id="edge7_Node000007_Node000008" class="edge">
<title>Node7&#45;&gt;Node8</title>
<g id="a_edge7_Node000007_Node000008"><a xlink:title=" ">
<path fill="none" stroke="#63b8ff" d="M440.38,-54.81C440.38,-46.64 440.38,-37.91 440.38,-30.83"/>
<polygon fill="#63b8ff" stroke="#63b8ff" points="436.88,-54.6 440.38,-64.6 443.88,-54.6 436.88,-54.6"/>
</a>
</g>
</g>
<!-- Node10 -->
<g id="Node000010" class="node">
<title>Node10</title>
<g id="a_Node000010"><a xlink:href="press__repeater_8cpp.html" target="_top" xlink:title=" ">
<polygon fill="white" stroke="#666666" points="243.75,-30.5 125,-30.5 125,0 243.75,0 243.75,-30.5"/>
<text xml:space="preserve" text-anchor="start" x="133" y="-17" font-family="Helvetica,sans-Serif" font-size="10.00">src/sensesp/transforms</text>
<text xml:space="preserve" text-anchor="middle" x="184.38" y="-5.75" font-family="Helvetica,sans-Serif" font-size="10.00">/press_repeater.cpp</text>
</a>
</g>
</g>
<!-- Node9&#45;&gt;Node10 -->
<g id="edge9_Node000009_Node000010" class="edge">
<title>Node9&#45;&gt;Node10</title>
<g id="a_edge9_Node000009_Node000010"><a xlink:title=" ">
<path fill="none" stroke="#63b8ff" d="M184.38,-54.81C184.38,-46.64 184.38,-37.91 184.38,-30.83"/>
<polygon fill="#63b8ff" stroke="#63b8ff" points="180.88,-54.6 184.38,-64.6 187.88,-54.6 180.88,-54.6"/>
</a>
</g>
</g>
<!-- Node12 -->
<g id="Node000012" class="node">
<title>Node12</title>
<g id="a_Node000012"><a xlink:href="system__info_8cpp.html" target="_top" xlink:title=" ">
<polygon fill="white" stroke="#666666" points="618.75,-97 512,-97 512,-66.5 618.75,-66.5 618.75,-97"/>
<text xml:space="preserve" text-anchor="start" x="520" y="-83.5" font-family="Helvetica,sans-Serif" font-size="10.00">src/sensesp/sensors</text>
<text xml:space="preserve" text-anchor="middle" x="565.38" y="-72.25" font-family="Helvetica,sans-Serif" font-size="10.00">/system_info.cpp</text>
</a>
</g>
</g>
<!-- Node11&#45;&gt;Node12 -->
<g id="edge12_Node000011_Node000012" class="edge">
<title>Node11&#45;&gt;Node12</title>
<g id="a_edge12_Node000011_Node000012"><a xlink:title=" ">
<path fill="none" stroke="#63b8ff" d="M565.38,-121.31C565.38,-113.14 565.38,-104.41 565.38,-97.33"/>
<polygon fill="#63b8ff" stroke="#63b8ff" points="561.88,-121.1 565.38,-131.1 568.88,-121.1 561.88,-121.1"/>
</a>
</g>
</g>
<!-- Node13 -->
<g id="Node000013" class="node">
<title>Node13</title>
<g id="a_Node000013"><a xlink:href="sensesp__app__builder_8h.html" target="_top" xlink:title=" ">
<polygon fill="white" stroke="#666666" points="768.12,-91.38 636.62,-91.38 636.62,-72.12 768.12,-72.12 768.12,-91.38"/>
<text xml:space="preserve" text-anchor="middle" x="702.38" y="-77.88" font-family="Helvetica,sans-Serif" font-size="10.00">src/sensesp_app_builder.h</text>
</a>
</g>
</g>
<!-- Node11&#45;&gt;Node13 -->
<g id="edge13_Node000011_Node000013" class="edge">
<title>Node11&#45;&gt;Node13</title>
<g id="a_edge13_Node000011_Node000013"><a xlink:title=" ">
<path fill="none" stroke="#63b8ff" d="M606.59,-127.85C632.03,-115.87 663.48,-101.06 683.24,-91.76"/>
<polygon fill="#63b8ff" stroke="#63b8ff" points="605.39,-124.54 597.83,-131.97 608.37,-130.88 605.39,-124.54"/>
</a>
</g>
</g>
<!-- Node14&#45;&gt;Node12 -->
<g id="edge18_Node000014_Node000012" class="edge">
<title>Node14&#45;&gt;Node12</title>
<g id="a_edge18_Node000014_Node000012"><a xlink:title=" ">
<path fill="none" stroke="#63b8ff" d="M1054.54,-143.41C961.89,-137.01 780.07,-122.31 627.38,-97 624.65,-96.55 621.87,-96.05 619.06,-95.52"/>
<polygon fill="#63b8ff" stroke="#63b8ff" points="1054.2,-146.89 1064.42,-144.08 1054.68,-139.91 1054.2,-146.89"/>
</a>
</g>
</g>
<!-- Node14&#45;&gt;Node13 -->
<g id="edge24_Node000014_Node000013" class="edge">
<title>Node14&#45;&gt;Node13</title>
<g id="a_edge24_Node000014_Node000013"><a xlink:title=" ">
<path fill="none" stroke="#63b8ff" d="M1054.44,-138.94C986.67,-129.53 874,-113.36 777.38,-97 768.1,-95.43 758.2,-93.63 748.73,-91.86"/>
<polygon fill="#63b8ff" stroke="#63b8ff" points="1053.85,-142.39 1064.24,-140.3 1054.81,-135.46 1053.85,-142.39"/>
</a>
</g>
</g>
<!-- Node15 -->
<g id="Node000015" class="node">
<title>Node15</title>
<g id="a_Node000015"><a xlink:href="app__command__handler_8cpp.html" target="_top" xlink:title=" ">
<polygon fill="white" stroke="#666666" points="1716.12,-97 1578.62,-97 1578.62,-66.5 1716.12,-66.5 1716.12,-97"/>
<text xml:space="preserve" text-anchor="start" x="1586.62" y="-83.5" font-family="Helvetica,sans-Serif" font-size="10.00">src/sensesp/net/web</text>
<text xml:space="preserve" text-anchor="middle" x="1647.38" y="-72.25" font-family="Helvetica,sans-Serif" font-size="10.00">/app_command_handler.cpp</text>
</a>
</g>
</g>
<!-- Node14&#45;&gt;Node15 -->
<g id="edge15_Node000014_Node000015" class="edge">
<title>Node14&#45;&gt;Node15</title>
<g id="a_edge15_Node000014_Node000015"><a xlink:title=" ">
<path fill="none" stroke="#63b8ff" d="M1176.31,-141.95C1263.77,-134.01 1429.86,-117.73 1570.38,-97 1572.93,-96.62 1575.53,-96.22 1578.15,-95.81"/>
<polygon fill="#63b8ff" stroke="#63b8ff" points="1176.17,-138.44 1166.52,-142.83 1176.79,-145.42 1176.17,-138.44"/>
</a>
</g>
</g>
<!-- Node16 -->
<g id="Node000016" class="node">
<title>Node16</title>
<g id="a_Node000016"><a xlink:href="base__command__handler_8cpp.html" target="_top" xlink:title=" ">
<polygon fill="white" stroke="#666666" points="1876.75,-97 1734,-97 1734,-66.5 1876.75,-66.5 1876.75,-97"/>
<text xml:space="preserve" text-anchor="start" x="1742" y="-83.5" font-family="Helvetica,sans-Serif" font-size="10.00">src/sensesp/net/web</text>
<text xml:space="preserve" text-anchor="middle" x="1805.38" y="-72.25" font-family="Helvetica,sans-Serif" font-size="10.00">/base_command_handler.cpp</text>
</a>
</g>
</g>
<!-- Node14&#45;&gt;Node16 -->
<g id="edge16_Node000014_Node000016" class="edge">
<title>Node14&#45;&gt;Node16</title>
<g id="a_edge16_Node000014_Node000016"><a xlink:title=" ">
<path fill="none" stroke="#63b8ff" d="M1176.14,-144.14C1286.06,-138.1 1525.14,-123.02 1725.38,-97 1728.17,-96.64 1731.02,-96.24 1733.9,-95.83"/>
<polygon fill="#63b8ff" stroke="#63b8ff" points="1176.27,-140.63 1166.47,-144.67 1176.65,-147.62 1176.27,-140.63"/>
</a>
</g>
</g>
<!-- Node17 -->
<g id="Node000017" class="node">
<title>Node17</title>
<g id="a_Node000017"><a xlink:href="wifi__provisioner_8cpp.html" target="_top" xlink:title=" ">
<polygon fill="white" stroke="#666666" points="890.25,-97 786.5,-97 786.5,-66.5 890.25,-66.5 890.25,-97"/>
<text xml:space="preserve" text-anchor="start" x="794.5" y="-83.5" font-family="Helvetica,sans-Serif" font-size="10.00">src/sensesp/net/wifi</text>
<text xml:space="preserve" text-anchor="middle" x="838.38" y="-72.25" font-family="Helvetica,sans-Serif" font-size="10.00">_provisioner.cpp</text>
</a>
</g>
</g>
<!-- Node14&#45;&gt;Node17 -->
<g id="edge17_Node000014_Node000017" class="edge">
<title>Node14&#45;&gt;Node17</title>
<g id="a_edge17_Node000014_Node000017"><a xlink:title=" ">
<path fill="none" stroke="#63b8ff" d="M1065.15,-135.58C1021.37,-125.4 956.17,-110.24 899.38,-97 896.52,-96.33 893.58,-95.65 890.62,-94.96"/>
<polygon fill="#63b8ff" stroke="#63b8ff" points="1064.34,-138.99 1074.88,-137.84 1065.93,-132.17 1064.34,-138.99"/>
</a>
</g>
</g>
<!-- Node18 -->
<g id="Node000018" class="node">
<title>Node18</title>
<g id="a_Node000018"><a xlink:href="signalk__delta__queue_8cpp.html" target="_top" xlink:title=" ">
<polygon fill="white" stroke="#666666" points="1034.5,-97 908.25,-97 908.25,-66.5 1034.5,-66.5 1034.5,-97"/>
<text xml:space="preserve" text-anchor="start" x="916.25" y="-83.5" font-family="Helvetica,sans-Serif" font-size="10.00">src/sensesp/signalk</text>
<text xml:space="preserve" text-anchor="middle" x="971.38" y="-72.25" font-family="Helvetica,sans-Serif" font-size="10.00">/signalk_delta_queue.cpp</text>
</a>
</g>
</g>
<!-- Node14&#45;&gt;Node18 -->
<g id="edge19_Node000014_Node000018" class="edge">
<title>Node14&#45;&gt;Node18</title>
<g id="a_edge19_Node000014_Node000018"><a xlink:title=" ">
<path fill="none" stroke="#63b8ff" d="M1084.86,-133.58C1061.15,-122.96 1028.33,-108.26 1004.08,-97.4"/>
<polygon fill="#63b8ff" stroke="#63b8ff" points="1083.11,-136.63 1093.67,-137.53 1085.97,-130.24 1083.11,-136.63"/>
</a>
</g>
</g>
<!-- Node19 -->
<g id="Node000019" class="node">
<title>Node19</title>
<g id="a_Node000019"><a xlink:href="signalk__put__request_8cpp.html" target="_top" xlink:title=" ">
<polygon fill="white" stroke="#666666" points="1177.75,-97 1053,-97 1053,-66.5 1177.75,-66.5 1177.75,-97"/>
<text xml:space="preserve" text-anchor="start" x="1061" y="-83.5" font-family="Helvetica,sans-Serif" font-size="10.00">src/sensesp/signalk</text>
<text xml:space="preserve" text-anchor="middle" x="1115.38" y="-72.25" font-family="Helvetica,sans-Serif" font-size="10.00">/signalk_put_request.cpp</text>
</a>
</g>
</g>
<!-- Node14&#45;&gt;Node19 -->
<g id="edge20_Node000014_Node000019" class="edge">
<title>Node14&#45;&gt;Node19</title>
<g id="a_edge20_Node000014_Node000019"><a xlink:title=" ">
<path fill="none" stroke="#63b8ff" d="M1115.38,-126.87C1115.38,-117.19 1115.38,-105.85 1115.38,-97.09"/>
<polygon fill="#63b8ff" stroke="#63b8ff" points="1111.88,-126.77 1115.38,-136.77 1118.88,-126.77 1111.88,-126.77"/>
</a>
</g>
</g>
<!-- Node20 -->
<g id="Node000020" class="node">
<title>Node20</title>
<g id="a_Node000020"><a xlink:href="signalk__ws__client_8cpp.html" target="_top" xlink:title=" ">
<polygon fill="white" stroke="#666666" points="1310.88,-97 1195.88,-97 1195.88,-66.5 1310.88,-66.5 1310.88,-97"/>
<text xml:space="preserve" text-anchor="start" x="1203.88" y="-83.5" font-family="Helvetica,sans-Serif" font-size="10.00">src/sensesp/signalk</text>
<text xml:space="preserve" text-anchor="middle" x="1253.38" y="-72.25" font-family="Helvetica,sans-Serif" font-size="10.00">/signalk_ws_client.cpp</text>
</a>
</g>
</g>
<!-- Node14&#45;&gt;Node20 -->
<g id="edge21_Node000014_Node000020" class="edge">
<title>Node14&#45;&gt;Node20</title>
<g id="a_edge21_Node000014_Node000020"><a xlink:title=" ">
<path fill="none" stroke="#63b8ff" d="M1145.24,-133.29C1167.91,-122.7 1199,-108.16 1222.03,-97.4"/>
<polygon fill="#63b8ff" stroke="#63b8ff" points="1143.8,-130.1 1136.23,-137.5 1146.77,-136.44 1143.8,-130.1"/>
</a>
</g>
</g>
<!-- Node21 -->
<g id="Node000021" class="node">
<title>Node21</title>
<g id="a_Node000021"><a xlink:href="button_8cpp.html" target="_top" xlink:title=" ">
<polygon fill="white" stroke="#666666" points="1433.62,-97 1329.12,-97 1329.12,-66.5 1433.62,-66.5 1433.62,-97"/>
<text xml:space="preserve" text-anchor="start" x="1337.12" y="-83.5" font-family="Helvetica,sans-Serif" font-size="10.00">src/sensesp/system</text>
<text xml:space="preserve" text-anchor="middle" x="1381.38" y="-72.25" font-family="Helvetica,sans-Serif" font-size="10.00">/button.cpp</text>
</a>
</g>
</g>
<!-- Node14&#45;&gt;Node21 -->
<g id="edge22_Node000014_Node000021" class="edge">
<title>Node14&#45;&gt;Node21</title>
<g id="a_edge22_Node000014_Node000021"><a xlink:title=" ">
<path fill="none" stroke="#63b8ff" d="M1163.96,-135.47C1210.64,-124.15 1280.97,-107.1 1328.91,-95.47"/>
<polygon fill="#63b8ff" stroke="#63b8ff" points="1163.29,-132.03 1154.39,-137.79 1164.94,-138.83 1163.29,-132.03"/>
</a>
</g>
</g>
<!-- Node22 -->
<g id="Node000022" class="node">
<title>Node22</title>
<g id="a_Node000022"><a xlink:href="sensesp__app_8cpp.html" target="_top" xlink:title=" ">
<polygon fill="white" stroke="#666666" points="1560.88,-91.38 1451.88,-91.38 1451.88,-72.12 1560.88,-72.12 1560.88,-91.38"/>
<text xml:space="preserve" text-anchor="middle" x="1506.38" y="-77.88" font-family="Helvetica,sans-Serif" font-size="10.00">src/sensesp_app.cpp</text>
</a>
</g>
</g>
<!-- Node14&#45;&gt;Node22 -->
<g id="edge23_Node000014_Node000022" class="edge">
<title>Node14&#45;&gt;Node22</title>
<g id="a_edge23_Node000014_Node000022"><a xlink:title=" ">
<path fill="none" stroke="#63b8ff" d="M1176.24,-139.13C1242.07,-130.07 1349.98,-114.36 1442.38,-97 1450.54,-95.47 1459.25,-93.65 1467.54,-91.83"/>
<polygon fill="#63b8ff" stroke="#63b8ff" points="1175.79,-135.66 1166.35,-140.49 1176.74,-142.6 1175.79,-135.66"/>
</a>
</g>
</g>
</g>
</svg>

<g id="navigator" transform="translate(0 0)" fill="#404254">
  <rect fill="#f2f5e9" fill-opacity="0.5" stroke="#606060" stroke-width=".5" x="0" y="0" width="60" height="60"/>
  <use id="zoomplus" xlink:href="#zoomPlus" x="17" y="9" onmousedown="handleZoom(evt,'in')"/>
  <use id="zoomminus" xlink:href="#zoomMin" x="42" y="9" onmousedown="handleZoom(evt,'out')"/>
  <use id="reset" xlink:href="#resetDef" x="30" y="36" onmousedown="handleReset()"/>
   <use id="arrowup" xlink:href="#arrowUp" x="0" y="0" onmousedown="handlePan(0,-1)"/>
  <use id="arrowright" xlink:href="#arrowRight" x="0" y="0" onmousedown="handlePan(1,0)"/>
  <use id="arrowdown" xlink:href="#arrowDown" x="0" y="0" onmousedown="handlePan(0,1)"/>
  <use id="arrowleft" xlink:href="#arrowLeft" x="0" y="0" onmousedown="handlePan(-1,0)"/>
</g>
<svg viewBox="0 0 15 15" width="100%" height="30px" preserveAspectRatio="xMaxYMin meet">
 <g id="arrow_out" transform="scale(0.3 0.3)">
  <a xlink:href="sensor_8h__dep__incl_org.svg" target="_base">
   <rect id="button" ry="5" rx="5" y="6" x="6" height="38" width="38"
        fill="#f2f5e9" fill-opacity="0.5" stroke="#606060" stroke-width="1.0"/>
   <path id="arrow"
     d="M 11.500037,31.436501 C 11.940474,20.09759 22.043105,11.32322 32.158766,21.979434 L 37.068811,17.246167 C 37.068811,17.246167 37.088388,32 37.088388,32 L 22.160133,31.978069 C 22.160133,31.978069 26.997745,27.140456 26.997745,27.140456 C 18.528582,18.264221 13.291696,25.230495 11.500037,31.436501 z"
     style="fill:#404040;"/>
  </a>
 </g>
</svg>

<style type='text/css'>
<![CDATA[
[data-mouse-over-selected='false'] { opacity: 0.7; }
[data-mouse-over-selected='true']  { opacity: 1.0; }
]]>
</style>
<script type="application/ecmascript"><![CDATA[
document.addEventListener('DOMContentLoaded', (event) => {
  highlightEdges();
  highlightAdjacentNodes();
});
]]></script>
</svg>
