<?xml version="1.0" encoding="UTF-8" standalone="no"?>
<!DOCTYPE svg PUBLIC "-//W3C//DTD SVG 1.1//EN"
 "http://www.w3.org/Graphics/SVG/1.1/DTD/svg11.dtd">
<!-- Generated by graphviz version 14.1.4 (20260321.0153)
 -->
<!-- Title: src/sensesp_app.h Pages: 1 -->
<!--zoomable 94 -->

<svg id="main" version="1.1" xmlns="http://www.w3.org/2000/svg" xmlns:xlink="http://www.w3.org/1999/xlink" xml:space="preserve" onload="init(evt)">

<style type="text/css"><![CDATA[
.node, .edge {opacity: 0.7;}
.node.selected, .edge.selected {opacity: 1;}
.edge:hover path { stroke: red; }
.edge:hover polygon { stroke: red; fill: red; }
]]></style>

<defs>
  <circle id="rim" cx="0" cy="0" r="7"/>
  <circle id="rim2" cx="0" cy="0" r="3.5"/>
  <g id="zoomPlus">
    <use xlink:href="#rim" fill="#404040"><set attributeName="fill" to="#808080" begin="zoomplus.mouseover" end="zoomplus.mouseout"/></use>
    <path d="M-4,0h8M0,-4v8" fill="none" stroke="white" stroke-width="1.5" pointer-events="none"/>
  </g>
  <g id="zoomMin">
    <use xlink:href="#rim" fill="#404040"><set attributeName="fill" to="#808080" begin="zoomminus.mouseover" end="zoomminus.mouseout"/></use>
    <path d="M-4,0h8" fill="none" stroke="white" stroke-width="1.5" pointer-events="none"/>
  </g>
  <g id="arrowUp" transform="translate(30 24)">
    <use xlink:href="#rim"/>
    <path pointer-events="none" fill="none" stroke="white" stroke-width="1.5" d="M0,-3.0v7 M-2.5,-0.5L0,-3.0L2.5,-0.5"/>
  </g>
  <g id="arrowRight" transform="rotate(90) translate(36 -43)">
    <use xlink:href="#rim"/>
    <path pointer-events="none" fill="none" stroke="white" stroke-width="1.5" d="M0,-3.0v7 M-2.5,-0.5L0,-3.0L2.5,-0.5"/>
  </g>
  <g id="arrowDown" transform="rotate(180) translate(-30 -48)">
    <use xlink:href="#rim"/>
    <path pointer-events="none" fill="none" stroke="white" stroke-width="1.5" d="M0,-3.0v7 M-2.5,-0.5L0,-3.0L2.5,-0.5"/>
  </g>
  <g id="arrowLeft" transform="rotate(270) translate(-36 17)">
    <use xlink:href="#rim"/>
    <path pointer-events="none" fill="none" stroke="white" stroke-width="1.5" d="M0,-3.0v7 M-2.5,-0.5L0,-3.0L2.5,-0.5"/>
  </g>
  <g id="resetDef">
    <use xlink:href="#rim2" fill="#404040"><set attributeName="fill" to="#808080" begin="reset.mouseover" end="reset.mouseout"/></use>
  </g>
</defs>
<script type="application/ecmascript">
var viewWidth = 1373;
var viewHeight = 94;
var sectionId = 'dynsection-1';
</script>
<script type="application/ecmascript" xlink:href="svg.min.js"/>
<svg id="graph" class="graph">
<g id="viewport">
<title>src/sensesp_app.h</title>
<!-- Node1 -->
<g id="Node000001" class="node">
<title>Node1</title>
<g id="a_Node000001"><a xlink:title=" ">
<polygon fill="#999999" stroke="#666666" points="747,-85.75 648.5,-85.75 648.5,-66.5 747,-66.5 747,-85.75"/>
<text xml:space="preserve" text-anchor="middle" x="697.75" y="-72.25" font-family="Helvetica,sans-Serif" font-size="10.00">src/sensesp_app.h</text>
</a>
</g>
</g>
<!-- Node2 -->
<g id="Node000002" class="node">
<title>Node2</title>
<g id="a_Node000002"><a xlink:href="app__command__handler_8cpp.html" target="_top" xlink:title=" ">
<polygon fill="white" stroke="#666666" points="137.5,-30.5 0,-30.5 0,0 137.5,0 137.5,-30.5"/>
<text xml:space="preserve" text-anchor="start" x="8" y="-17" font-family="Helvetica,sans-Serif" font-size="10.00">src/sensesp/net/web</text>
<text xml:space="preserve" text-anchor="middle" x="68.75" y="-5.75" font-family="Helvetica,sans-Serif" font-size="10.00">/app_command_handler.cpp</text>
</a>
</g>
</g>
<!-- Node1&#45;&gt;Node2 -->
<g id="edge1_Node000001_Node000002" class="edge">
<title>Node1&#45;&gt;Node2</title>
<g id="a_edge1_Node000001_Node000002"><a xlink:title=" ">
<path fill="none" stroke="#63b8ff" d="M636.91,-72.19C535.13,-66.83 324.04,-53.81 146.75,-30.5 143.75,-30.11 140.68,-29.67 137.59,-29.21"/>
<polygon fill="#63b8ff" stroke="#63b8ff" points="636.5,-75.67 646.67,-72.7 636.87,-68.68 636.5,-75.67"/>
</a>
</g>
</g>
<!-- Node3 -->
<g id="Node000003" class="node">
<title>Node3</title>
<g id="a_Node000003"><a xlink:href="base__command__handler_8cpp.html" target="_top" xlink:title=" ">
<polygon fill="white" stroke="#666666" points="298.12,-30.5 155.38,-30.5 155.38,0 298.12,0 298.12,-30.5"/>
<text xml:space="preserve" text-anchor="start" x="163.38" y="-17" font-family="Helvetica,sans-Serif" font-size="10.00">src/sensesp/net/web</text>
<text xml:space="preserve" text-anchor="middle" x="226.75" y="-5.75" font-family="Helvetica,sans-Serif" font-size="10.00">/base_command_handler.cpp</text>
</a>
</g>
</g>
<!-- Node1&#45;&gt;Node3 -->
<g id="edge2_Node000001_Node000003" class="edge">
<title>Node1&#45;&gt;Node3</title>
<g id="a_edge2_Node000001_Node000003"><a xlink:title=" ">
<path fill="none" stroke="#63b8ff" d="M636.86,-69.37C559.82,-61.81 423.14,-47.49 306.75,-30.5 303.96,-30.09 301.11,-29.66 298.24,-29.21"/>
<polygon fill="#63b8ff" stroke="#63b8ff" points="636.44,-72.84 646.74,-70.33 637.12,-65.88 636.44,-72.84"/>
</a>
</g>
</g>
<!-- Node4 -->
<g id="Node000004" class="node">
<title>Node4</title>
<g id="a_Node000004"><a xlink:href="wifi__provisioner_8cpp.html" target="_top" xlink:title=" ">
<polygon fill="white" stroke="#666666" points="419.62,-30.5 315.88,-30.5 315.88,0 419.62,0 419.62,-30.5"/>
<text xml:space="preserve" text-anchor="start" x="323.88" y="-17" font-family="Helvetica,sans-Serif" font-size="10.00">src/sensesp/net/wifi</text>
<text xml:space="preserve" text-anchor="middle" x="367.75" y="-5.75" font-family="Helvetica,sans-Serif" font-size="10.00">_provisioner.cpp</text>
</a>
</g>
</g>
<!-- Node1&#45;&gt;Node4 -->
<g id="edge3_Node000001_Node000004" class="edge">
<title>Node1&#45;&gt;Node4</title>
<g id="a_edge3_Node000001_Node000004"><a xlink:title=" ">
<path fill="none" stroke="#63b8ff" d="M637.26,-66.24C582.61,-57.94 500.05,-44.73 428.75,-30.5 425.87,-29.93 422.92,-29.31 419.94,-28.68"/>
<polygon fill="#63b8ff" stroke="#63b8ff" points="636.58,-69.68 646.99,-67.71 637.63,-62.76 636.58,-69.68"/>
</a>
</g>
</g>
<!-- Node5 -->
<g id="Node000005" class="node">
<title>Node5</title>
<g id="a_Node000005"><a xlink:href="system__info_8cpp.html" target="_top" xlink:title=" ">
<polygon fill="white" stroke="#666666" points="544.12,-30.5 437.38,-30.5 437.38,0 544.12,0 544.12,-30.5"/>
<text xml:space="preserve" text-anchor="start" x="445.38" y="-17" font-family="Helvetica,sans-Serif" font-size="10.00">src/sensesp/sensors</text>
<text xml:space="preserve" text-anchor="middle" x="490.75" y="-5.75" font-family="Helvetica,sans-Serif" font-size="10.00">/system_info.cpp</text>
</a>
</g>
</g>
<!-- Node1&#45;&gt;Node5 -->
<g id="edge4_Node000001_Node000005" class="edge">
<title>Node1&#45;&gt;Node5</title>
<g id="a_edge4_Node000001_Node000005"><a xlink:title=" ">
<path fill="none" stroke="#63b8ff" d="M654.86,-62.93C622.19,-53.63 577.07,-40.8 542.42,-30.94"/>
<polygon fill="#63b8ff" stroke="#63b8ff" points="653.83,-66.27 664.4,-65.64 655.74,-59.54 653.83,-66.27"/>
</a>
</g>
</g>
<!-- Node6 -->
<g id="Node000006" class="node">
<title>Node6</title>
<g id="a_Node000006"><a xlink:href="signalk__delta__queue_8cpp.html" target="_top" xlink:title=" ">
<polygon fill="white" stroke="#666666" points="688.88,-30.5 562.62,-30.5 562.62,0 688.88,0 688.88,-30.5"/>
<text xml:space="preserve" text-anchor="start" x="570.62" y="-17" font-family="Helvetica,sans-Serif" font-size="10.00">src/sensesp/signalk</text>
<text xml:space="preserve" text-anchor="middle" x="625.75" y="-5.75" font-family="Helvetica,sans-Serif" font-size="10.00">/signalk_delta_queue.cpp</text>
</a>
</g>
</g>
<!-- Node1&#45;&gt;Node6 -->
<g id="edge5_Node000001_Node000006" class="edge">
<title>Node1&#45;&gt;Node6</title>
<g id="a_edge5_Node000001_Node000006"><a xlink:title=" ">
<path fill="none" stroke="#63b8ff" d="M678.1,-59.06C667.3,-50.23 654.01,-39.36 643.52,-30.78"/>
<polygon fill="#63b8ff" stroke="#63b8ff" points="675.69,-61.6 685.64,-65.23 680.12,-56.19 675.69,-61.6"/>
</a>
</g>
</g>
<!-- Node7 -->
<g id="Node000007" class="node">
<title>Node7</title>
<g id="a_Node000007"><a xlink:href="signalk__put__request_8cpp.html" target="_top" xlink:title=" ">
<polygon fill="white" stroke="#666666" points="832.12,-30.5 707.38,-30.5 707.38,0 832.12,0 832.12,-30.5"/>
<text xml:space="preserve" text-anchor="start" x="715.38" y="-17" font-family="Helvetica,sans-Serif" font-size="10.00">src/sensesp/signalk</text>
<text xml:space="preserve" text-anchor="middle" x="769.75" y="-5.75" font-family="Helvetica,sans-Serif" font-size="10.00">/signalk_put_request.cpp</text>
</a>
</g>
</g>
<!-- Node1&#45;&gt;Node7 -->
<g id="edge6_Node000001_Node000007" class="edge">
<title>Node1&#45;&gt;Node7</title>
<g id="a_edge6_Node000001_Node000007"><a xlink:title=" ">
<path fill="none" stroke="#63b8ff" d="M717.4,-59.06C728.2,-50.23 741.49,-39.36 751.98,-30.78"/>
<polygon fill="#63b8ff" stroke="#63b8ff" points="715.38,-56.19 709.86,-65.23 719.81,-61.6 715.38,-56.19"/>
</a>
</g>
</g>
<!-- Node8 -->
<g id="Node000008" class="node">
<title>Node8</title>
<g id="a_Node000008"><a xlink:href="signalk__ws__client_8cpp.html" target="_top" xlink:title=" ">
<polygon fill="white" stroke="#666666" points="965.25,-30.5 850.25,-30.5 850.25,0 965.25,0 965.25,-30.5"/>
<text xml:space="preserve" text-anchor="start" x="858.25" y="-17" font-family="Helvetica,sans-Serif" font-size="10.00">src/sensesp/signalk</text>
<text xml:space="preserve" text-anchor="middle" x="907.75" y="-5.75" font-family="Helvetica,sans-Serif" font-size="10.00">/signalk_ws_client.cpp</text>
</a>
</g>
</g>
<!-- Node1&#45;&gt;Node8 -->
<g id="edge7_Node000001_Node000008" class="edge">
<title>Node1&#45;&gt;Node8</title>
<g id="a_edge7_Node000001_Node000008"><a xlink:title=" ">
<path fill="none" stroke="#63b8ff" d="M740.83,-63.05C774.01,-53.75 820.02,-40.85 855.34,-30.94"/>
<polygon fill="#63b8ff" stroke="#63b8ff" points="740.24,-59.58 731.56,-65.65 742.13,-66.32 740.24,-59.58"/>
</a>
</g>
</g>
<!-- Node9 -->
<g id="Node000009" class="node">
<title>Node9</title>
<g id="a_Node000009"><a xlink:href="button_8cpp.html" target="_top" xlink:title=" ">
<polygon fill="white" stroke="#666666" points="1088,-30.5 983.5,-30.5 983.5,0 1088,0 1088,-30.5"/>
<text xml:space="preserve" text-anchor="start" x="991.5" y="-17" font-family="Helvetica,sans-Serif" font-size="10.00">src/sensesp/system</text>
<text xml:space="preserve" text-anchor="middle" x="1035.75" y="-5.75" font-family="Helvetica,sans-Serif" font-size="10.00">/button.cpp</text>
</a>
</g>
</g>
<!-- Node1&#45;&gt;Node9 -->
<g id="edge8_Node000001_Node000009" class="edge">
<title>Node1&#45;&gt;Node9</title>
<g id="a_edge8_Node000001_Node000009"><a xlink:title=" ">
<path fill="none" stroke="#63b8ff" d="M758.67,-66.56C814.94,-58.35 900.75,-45.08 974.75,-30.5 977.52,-29.95 980.36,-29.37 983.23,-28.76"/>
<polygon fill="#63b8ff" stroke="#63b8ff" points="758.37,-63.07 748.97,-67.97 759.37,-69.99 758.37,-63.07"/>
</a>
</g>
</g>
<!-- Node10 -->
<g id="Node000010" class="node">
<title>Node10</title>
<g id="a_Node000010"><a xlink:href="sensesp__app_8cpp.html" target="_top" xlink:title=" ">
<polygon fill="white" stroke="#666666" points="1215.25,-24.88 1106.25,-24.88 1106.25,-5.63 1215.25,-5.63 1215.25,-24.88"/>
<text xml:space="preserve" text-anchor="middle" x="1160.75" y="-11.38" font-family="Helvetica,sans-Serif" font-size="10.00">src/sensesp_app.cpp</text>
</a>
</g>
</g>
<!-- Node1&#45;&gt;Node10 -->
<g id="edge9_Node000001_Node000010" class="edge">
<title>Node1&#45;&gt;Node10</title>
<g id="a_edge9_Node000001_Node000010"><a xlink:title=" ">
<path fill="none" stroke="#63b8ff" d="M758.56,-70.38C837.03,-63.78 977.65,-50.36 1096.75,-30.5 1105.28,-29.08 1114.39,-27.24 1122.98,-25.37"/>
<polygon fill="#63b8ff" stroke="#63b8ff" points="758.62,-66.86 748.95,-71.17 759.2,-73.83 758.62,-66.86"/>
</a>
</g>
</g>
<!-- Node11 -->
<g id="Node000011" class="node">
<title>Node11</title>
<g id="a_Node000011"><a xlink:href="sensesp__app__builder_8h.html" target="_top" xlink:title=" ">
<polygon fill="white" stroke="#666666" points="1364.5,-24.88 1233,-24.88 1233,-5.63 1364.5,-5.63 1364.5,-24.88"/>
<text xml:space="preserve" text-anchor="middle" x="1298.75" y="-11.38" font-family="Helvetica,sans-Serif" font-size="10.00">src/sensesp_app_builder.h</text>
</a>
</g>
</g>
<!-- Node1&#45;&gt;Node11 -->
<g id="edge10_Node000001_Node000011" class="edge">
<title>Node1&#45;&gt;Node11</title>
<g id="a_edge10_Node000001_Node000011"><a xlink:title=" ">
<path fill="none" stroke="#63b8ff" d="M758.84,-72.05C857.28,-66.64 1056.94,-53.7 1224.75,-30.5 1234.86,-29.1 1245.68,-27.23 1255.83,-25.31"/>
<polygon fill="#63b8ff" stroke="#63b8ff" points="758.66,-68.56 748.86,-72.6 759.04,-75.55 758.66,-68.56"/>
</a>
</g>
</g>
</g>
</svg>

<g id="navigator" transform="translate(0 0)" fill="#404254">
  <rect fill="#f2f5e9" fill-opacity="0.5" stroke="#606060" stroke-width=".5" x="0" y="0" width="60" height="60"/>
  <use id="zoomplus" xlink:href="#zoomPlus" x="17" y="9" onmousedown="handleZoom(evt,'in')"/>
  <use id="zoomminus" xlink:href="#zoomMin" x="42" y="9" onmousedown="handleZoom(evt,'out')"/>
  <use id="reset" xlink:href="#resetDef" x="30" y="36" onmousedown="handleReset()"/>
   <use id="arrowup" xlink:href="#arrowUp" x="0" y="0" onmousedown="handlePan(0,-1)"/>
  <use id="arrowright" xlink:href="#arrowRight" x="0" y="0" onmousedown="handlePan(1,0)"/>
  <use id="arrowdown" xlink:href="#arrowDown" x="0" y="0" onmousedown="handlePan(0,1)"/>
  <use id="arrowleft" xlink:href="#arrowLeft" x="0" y="0" onmousedown="handlePan(-1,0)"/>
</g>
<svg viewBox="0 0 15 15" width="100%" height="30px" preserveAspectRatio="xMaxYMin meet">
 <g id="arrow_out" transform="scale(0.3 0.3)">
  <a xlink:href="sensesp__app_8h__dep__incl_org.svg" target="_base">
   <rect id="button" ry="5" rx="5" y="6" x="6" height="38" width="38"
        fill="#f2f5e9" fill-opacity="0.5" stroke="#606060" stroke-width="1.0"/>
   <path id="arrow"
     d="M 11.500037,31.436501 C 11.940474,20.09759 22.043105,11.32322 32.158766,21.979434 L 37.068811,17.246167 C 37.068811,17.246167 37.088388,32 37.088388,32 L 22.160133,31.978069 C 22.160133,31.978069 26.997745,27.140456 26.997745,27.140456 C 18.528582,18.264221 13.291696,25.230495 11.500037,31.436501 z"
     style="fill:#404040;"/>
  </a>
 </g>
</svg>

<style type='text/css'>
<![CDATA[
[data-mouse-over-selected='false'] { opacity: 0.7; }
[data-mouse-over-selected='true']  { opacity: 1.0; }
]]>
</style>
<script type="application/ecmascript"><![CDATA[
document.addEventListener('DOMContentLoaded', (event) => {
  highlightEdges();
  highlightAdjacentNodes();
});
]]></script>
</svg>
