<?xml version="1.0" encoding="UTF-8" standalone="no"?>
<!DOCTYPE svg PUBLIC "-//W3C//DTD SVG 1.1//EN"
 "http://www.w3.org/Graphics/SVG/1.1/DTD/svg11.dtd">
<!-- Generated by graphviz version 2.48.0 (20210717.1556)
 -->
<!-- Title: src/sensesp_app.h Pages: 1 -->
<!--zoomable 151 -->
<svg id="main" version="1.1" xmlns="http://www.w3.org/2000/svg" xmlns:xlink="http://www.w3.org/1999/xlink" xml:space="preserve" onload="init(evt)">
<style type="text/css"><![CDATA[
.edge:hover path { stroke: red; }
.edge:hover polygon { stroke: red; fill: red; }
]]></style>
<script type="text/javascript"><![CDATA[
var edges = document.getElementsByTagName('g');
if (edges && edges.length) {
  for (var i=0;i<edges.length;i++) {
    if (edges[i].id.substr(0,4)=='edge') {
      edges[i].setAttribute('class','edge');
    }
  }
}
]]></script>
        <defs>
                <circle id="rim" cx="0" cy="0" r="7"/>
                <circle id="rim2" cx="0" cy="0" r="3.5"/>
                <g id="zoomPlus">
                        <use xlink:href="#rim" fill="#404040">
                                <set attributeName="fill" to="#808080" begin="zoomplus.mouseover" end="zoomplus.mouseout"/>
                        </use>
                        <path d="M-4,0h8M0,-4v8" fill="none" stroke="white" stroke-width="1.5" pointer-events="none"/>
                </g>
                <g id="zoomMin">
                        <use xlink:href="#rim" fill="#404040">
                                <set attributeName="fill" to="#808080" begin="zoomminus.mouseover" end="zoomminus.mouseout"/>
                        </use>
                        <path d="M-4,0h8" fill="none" stroke="white" stroke-width="1.5" pointer-events="none"/>
                </g>
                <g id="dirArrow">
                        <path fill="none" stroke="white" stroke-width="1.5" d="M0,-3.0v7 M-2.5,-0.5L0,-3.0L2.5,-0.5"/>
                </g>
               <g id="resetDef">
                       <use xlink:href="#rim2" fill="#404040">
                               <set attributeName="fill" to="#808080" begin="reset.mouseover" end="reset.mouseout"/>
                       </use>
               </g>
        </defs>

<script type="text/javascript">
var viewWidth = 1090;
var viewHeight = 151;
var sectionId = 'dynsection-1';
</script>
<script xlink:href="svgpan.js"/>
<svg id="graph" class="graph">
<g id="viewport">
<title>src/sensesp_app.h</title>
<polygon fill="white" stroke="transparent" points="-4,4 -4,-147 1085.96,-147 1085.96,4 -4,4"/>
<!-- Node1 -->
<g id="node1" class="node">
<title>Node1</title>
<g id="a_node1"><a xlink:title=" ">
<polygon fill="#bfbfbf" stroke="black" points="459.96,-123.5 459.96,-142.5 559.96,-142.5 559.96,-123.5 459.96,-123.5"/>
<text text-anchor="middle" x="509.96" y="-130.5" font-family="Helvetica,sans-Serif" font-size="10.00">src/sensesp_app.h</text>
</a>
</g>
</g>
<!-- Node2 -->
<g id="node2" class="node">
<title>Node2</title>
<g id="a_node2"><a xlink:href="main_8cpp.html" target="_top" xlink:title=" ">
<polygon fill="white" stroke="black" points="433.46,-0.5 433.46,-19.5 506.46,-19.5 506.46,-0.5 433.46,-0.5"/>
<text text-anchor="middle" x="469.96" y="-7.5" font-family="Helvetica,sans-Serif" font-size="10.00">src/main.cpp</text>
</a>
</g>
</g>
<!-- Node1&#45;&gt;Node2 -->
<g id="edge1" class="edge">
<title>Node1&#45;&gt;Node2</title>
<path fill="none" stroke="midnightblue" d="M449.53,-131.07C322.35,-128.47 36.31,-119.09 6.96,-87 -2.34,-76.83 -2.3,-66.2 6.96,-56 35.46,-24.6 328.76,-14.44 433.25,-11.8"/>
<polygon fill="midnightblue" stroke="midnightblue" points="449.8,-134.57 459.87,-131.27 449.94,-127.57 449.8,-134.57"/>
</g>
<!-- Node3 -->
<g id="node3" class="node">
<title>Node3</title>
<g id="a_node3"><a xlink:href="http_8cpp.html" target="_top" xlink:title=" ">
<polygon fill="white" stroke="black" points="16.46,-62 16.46,-81 101.46,-81 101.46,-62 16.46,-62"/>
<text text-anchor="middle" x="58.96" y="-69" font-family="Helvetica,sans-Serif" font-size="10.00">src/net/http.cpp</text>
</a>
</g>
</g>
<!-- Node1&#45;&gt;Node3 -->
<g id="edge2" class="edge">
<title>Node1&#45;&gt;Node3</title>
<path fill="none" stroke="midnightblue" d="M449.45,-128.31C370.69,-122.8 229.06,-110.46 109.96,-87 102.01,-85.43 93.5,-83.23 85.76,-81.01"/>
<polygon fill="midnightblue" stroke="midnightblue" points="449.45,-131.82 459.67,-129.01 449.93,-124.84 449.45,-131.82"/>
</g>
<!-- Node4 -->
<g id="node4" class="node">
<title>Node4</title>
<g id="a_node4"><a xlink:href="ws__client_8cpp.html" target="_top" xlink:title=" ">
<polygon fill="white" stroke="black" points="119.46,-62 119.46,-81 228.46,-81 228.46,-62 119.46,-62"/>
<text text-anchor="middle" x="173.96" y="-69" font-family="Helvetica,sans-Serif" font-size="10.00">src/net/ws_client.cpp</text>
</a>
</g>
</g>
<!-- Node1&#45;&gt;Node4 -->
<g id="edge3" class="edge">
<title>Node1&#45;&gt;Node4</title>
<path fill="none" stroke="midnightblue" d="M449.47,-123.14C394.01,-114.76 309.72,-101.36 236.96,-87 227.93,-85.22 218.22,-83.09 209.2,-81.02"/>
<polygon fill="midnightblue" stroke="midnightblue" points="449.06,-126.62 459.47,-124.65 450.11,-119.7 449.06,-126.62"/>
</g>
<!-- Node5 -->
<g id="node5" class="node">
<title>Node5</title>
<g id="a_node5"><a xlink:href="sensesp__app_8cpp.html" target="_top" xlink:title=" ">
<polygon fill="white" stroke="black" points="246.46,-62 246.46,-81 357.46,-81 357.46,-62 246.46,-62"/>
<text text-anchor="middle" x="301.96" y="-69" font-family="Helvetica,sans-Serif" font-size="10.00">src/sensesp_app.cpp</text>
</a>
</g>
</g>
<!-- Node1&#45;&gt;Node5 -->
<g id="edge4" class="edge">
<title>Node1&#45;&gt;Node5</title>
<path fill="none" stroke="midnightblue" d="M470.37,-120.68C429.96,-109.11 368.13,-91.43 331.71,-81.01"/>
<polygon fill="midnightblue" stroke="midnightblue" points="469.58,-124.09 480.16,-123.48 471.51,-117.36 469.58,-124.09"/>
</g>
<!-- Node6 -->
<g id="node6" class="node">
<title>Node6</title>
<g id="a_node6"><a xlink:href="sensesp__app__builder_8h.html" target="_top" xlink:title=" ">
<polygon fill="white" stroke="black" points="375.46,-62 375.46,-81 510.46,-81 510.46,-62 375.46,-62"/>
<text text-anchor="middle" x="442.96" y="-69" font-family="Helvetica,sans-Serif" font-size="10.00">src/sensesp_app_builder.h</text>
</a>
</g>
</g>
<!-- Node1&#45;&gt;Node6 -->
<g id="edge5" class="edge">
<title>Node1&#45;&gt;Node6</title>
<path fill="none" stroke="midnightblue" d="M492.68,-116.65C479.9,-105.31 462.98,-90.28 452.54,-81.01"/>
<polygon fill="midnightblue" stroke="midnightblue" points="490.56,-119.45 500.36,-123.48 495.21,-114.22 490.56,-119.45"/>
</g>
<!-- Node7 -->
<g id="node7" class="node">
<title>Node7</title>
<g id="a_node7"><a xlink:href="signalk__put__request_8cpp.html" target="_top" xlink:title=" ">
<polygon fill="white" stroke="black" points="528.96,-56.5 528.96,-86.5 626.96,-86.5 626.96,-56.5 528.96,-56.5"/>
<text text-anchor="start" x="536.96" y="-74.5" font-family="Helvetica,sans-Serif" font-size="10.00">src/signalk/signalk</text>
<text text-anchor="middle" x="577.96" y="-63.5" font-family="Helvetica,sans-Serif" font-size="10.00">_put_request.cpp</text>
</a>
</g>
</g>
<!-- Node1&#45;&gt;Node7 -->
<g id="edge6" class="edge">
<title>Node1&#45;&gt;Node7</title>
<path fill="none" stroke="midnightblue" d="M527.51,-116.65C538.14,-107.35 551.59,-95.57 561.94,-86.52"/>
<polygon fill="midnightblue" stroke="midnightblue" points="524.93,-114.26 519.7,-123.48 529.53,-119.52 524.93,-114.26"/>
</g>
<!-- Node8 -->
<g id="node8" class="node">
<title>Node8</title>
<g id="a_node8"><a xlink:href="enable_8cpp.html" target="_top" xlink:title=" ">
<polygon fill="white" stroke="black" points="644.96,-62 644.96,-81 760.96,-81 760.96,-62 644.96,-62"/>
<text text-anchor="middle" x="702.96" y="-69" font-family="Helvetica,sans-Serif" font-size="10.00">src/system/enable.cpp</text>
</a>
</g>
</g>
<!-- Node1&#45;&gt;Node8 -->
<g id="edge7" class="edge">
<title>Node1&#45;&gt;Node8</title>
<path fill="none" stroke="midnightblue" d="M547.17,-120.53C584.68,-108.96 641.7,-91.38 675.36,-81.01"/>
<polygon fill="midnightblue" stroke="midnightblue" points="546.14,-117.18 537.61,-123.48 548.2,-123.87 546.14,-117.18"/>
</g>
<!-- Node9 -->
<g id="node9" class="node">
<title>Node9</title>
<g id="a_node9"><a xlink:href="led__blinker_8cpp.html" target="_top" xlink:title=" ">
<polygon fill="white" stroke="black" points="778.96,-62 778.96,-81 912.96,-81 912.96,-62 778.96,-62"/>
<text text-anchor="middle" x="845.96" y="-69" font-family="Helvetica,sans-Serif" font-size="10.00">src/system/led_blinker.cpp</text>
</a>
</g>
</g>
<!-- Node1&#45;&gt;Node9 -->
<g id="edge8" class="edge">
<title>Node1&#45;&gt;Node9</title>
<path fill="none" stroke="midnightblue" d="M570.2,-121.88C622.93,-112.94 701.58,-99.44 769.96,-87 780.27,-85.12 791.35,-83.05 801.78,-81.06"/>
<polygon fill="midnightblue" stroke="midnightblue" points="569.61,-118.42 560.34,-123.54 570.78,-125.33 569.61,-118.42"/>
</g>
<!-- Node10 -->
<g id="node10" class="node">
<title>Node10</title>
<g id="a_node10"><a xlink:href="wiring__helpers_8cpp.html" target="_top" xlink:title=" ">
<polygon fill="white" stroke="black" points="965.96,-0.5 965.96,-19.5 1081.96,-19.5 1081.96,-0.5 965.96,-0.5"/>
<text text-anchor="middle" x="1023.96" y="-7.5" font-family="Helvetica,sans-Serif" font-size="10.00">src/wiring_helpers.cpp</text>
</a>
</g>
</g>
<!-- Node1&#45;&gt;Node10 -->
<g id="edge9" class="edge">
<title>Node1&#45;&gt;Node10</title>
<path fill="none" stroke="midnightblue" d="M570.1,-131.43C703.36,-129.54 1014.27,-121.46 1045.96,-87 1063.63,-67.79 1042.95,-35.23 1031.12,-19.72"/>
<polygon fill="midnightblue" stroke="midnightblue" points="570,-127.93 560.05,-131.57 570.1,-134.93 570,-127.93"/>
</g>
<!-- Node11 -->
<g id="node11" class="node">
<title>Node11</title>
<g id="a_node11"><a xlink:href="wiring__helpers_8h.html" target="_top" xlink:title=" ">
<polygon fill="white" stroke="black" points="931.46,-62 931.46,-81 1036.46,-81 1036.46,-62 931.46,-62"/>
<text text-anchor="middle" x="983.96" y="-69" font-family="Helvetica,sans-Serif" font-size="10.00">src/wiring_helpers.h</text>
</a>
</g>
</g>
<!-- Node1&#45;&gt;Node11 -->
<g id="edge10" class="edge">
<title>Node1&#45;&gt;Node11</title>
<path fill="none" stroke="midnightblue" d="M570.46,-127.7C651.06,-121.44 797.92,-108.2 921.96,-87 931.33,-85.4 941.4,-83.24 950.65,-81.07"/>
<polygon fill="midnightblue" stroke="midnightblue" points="569.72,-124.24 560.02,-128.5 570.25,-131.22 569.72,-124.24"/>
</g>
<!-- Node11&#45;&gt;Node2 -->
<g id="edge11" class="edge">
<title>Node11&#45;&gt;Node2</title>
<path fill="none" stroke="midnightblue" d="M941.11,-59.71C934.72,-58.33 928.19,-57.03 921.96,-56 768.7,-30.56 583.65,-17.63 506.5,-13.02"/>
<polygon fill="midnightblue" stroke="midnightblue" points="940.45,-63.15 950.98,-61.94 942,-56.33 940.45,-63.15"/>
</g>
<!-- Node11&#45;&gt;Node10 -->
<g id="edge12" class="edge">
<title>Node11&#45;&gt;Node10</title>
<path fill="none" stroke="midnightblue" d="M995.39,-53.51C1002.86,-42.39 1012.3,-28.34 1018.24,-19.51"/>
<polygon fill="midnightblue" stroke="midnightblue" points="992.37,-51.72 989.69,-61.98 998.18,-55.63 992.37,-51.72"/>
</g>
</g>
</svg>
        <g id="navigator" transform="translate(0 0)" fill="#404254">
                <rect fill="#f2f5e9" fill-opacity="0.5" stroke="#606060" stroke-width=".5" x="0" y="0" width="60" height="60"/>
                <use id="zoomplus" xlink:href="#zoomPlus" x="17" y="9" onmousedown="handleZoom(evt,'in')"/>
                <use id="zoomminus" xlink:href="#zoomMin" x="42" y="9" onmousedown="handleZoom(evt,'out')"/>
                <use id="reset" xlink:href="#resetDef" x="30" y="36" onmousedown="handleReset()"/>
                <g id="arrowUp" xlink:href="#dirArrow" transform="translate(30 24)" onmousedown="handlePan(0,-1)">
                  <use xlink:href="#rim" fill="#404040">
                        <set attributeName="fill" to="#808080" begin="arrowUp.mouseover" end="arrowUp.mouseout"/>
                  </use>
                  <path fill="none" stroke="white" stroke-width="1.5" d="M0,-3.0v7 M-2.5,-0.5L0,-3.0L2.5,-0.5"/>
                </g>
                <g id="arrowRight" xlink:href="#dirArrow" transform="rotate(90) translate(36 -43)" onmousedown="handlePan(1,0)">
                  <use xlink:href="#rim" fill="#404040">
                        <set attributeName="fill" to="#808080" begin="arrowRight.mouseover" end="arrowRight.mouseout"/>
                  </use>
                  <path fill="none" stroke="white" stroke-width="1.5" d="M0,-3.0v7 M-2.5,-0.5L0,-3.0L2.5,-0.5"/>
                </g>
                <g id="arrowDown" xlink:href="#dirArrow" transform="rotate(180) translate(-30 -48)" onmousedown="handlePan(0,1)">
                  <use xlink:href="#rim" fill="#404040">
                        <set attributeName="fill" to="#808080" begin="arrowDown.mouseover" end="arrowDown.mouseout"/>
                  </use>
                  <path fill="none" stroke="white" stroke-width="1.5" d="M0,-3.0v7 M-2.5,-0.5L0,-3.0L2.5,-0.5"/>
                </g>
                <g id="arrowLeft" xlink:href="#dirArrow" transform="rotate(270) translate(-36 17)" onmousedown="handlePan(-1,0)">
                  <use xlink:href="#rim" fill="#404040">
                        <set attributeName="fill" to="#808080" begin="arrowLeft.mouseover" end="arrowLeft.mouseout"/>
                  </use>
                  <path fill="none" stroke="white" stroke-width="1.5" d="M0,-3.0v7 M-2.5,-0.5L0,-3.0L2.5,-0.5"/>
                </g>
        </g>
        <svg viewBox="0 0 15 15" width="100%" height="30px" preserveAspectRatio="xMaxYMin meet">
         <g id="arrow_out" transform="scale(0.3 0.3)">
          <a xlink:href="sensesp__app_8h__dep__incl_org.svg" target="_base">
           <rect id="button" ry="5" rx="5" y="6" x="6" height="38" width="38"
                fill="#f2f5e9" fill-opacity="0.5" stroke="#606060" stroke-width="1.0"/>
           <path id="arrow"
             d="M 11.500037,31.436501 C 11.940474,20.09759 22.043105,11.32322 32.158766,21.979434 L 37.068811,17.246167 C 37.068811,17.246167 37.088388,32 37.088388,32 L 22.160133,31.978069 C 22.160133,31.978069 26.997745,27.140456 26.997745,27.140456 C 18.528582,18.264221 13.291696,25.230495 11.500037,31.436501 z"
             style="fill:#404040;"/>
          </a>
         </g>
        </svg>
</svg>
