<?xml version="1.0" encoding="UTF-8" standalone="no"?>
<!DOCTYPE svg PUBLIC "-//W3C//DTD SVG 1.1//EN"
 "http://www.w3.org/Graphics/SVG/1.1/DTD/svg11.dtd">
<!-- Generated by graphviz version 2.48.0 (20210717.1556)
 -->
<!-- Title: src/sensors/sensor.h Pages: 1 -->
<svg width="3212pt" height="229pt"
 viewBox="0.00 0.00 3212.00 229.00" xmlns="http://www.w3.org/2000/svg" xmlns:xlink="http://www.w3.org/1999/xlink">
<g id="graph0" class="graph" transform="scale(1 1) rotate(0) translate(4 225)">
<title>src/sensors/sensor.h</title>
<polygon fill="white" stroke="transparent" points="-4,4 -4,-225 3208,-225 3208,4 -4,4"/>
<!-- Node1 -->
<g id="node1" class="node">
<title>Node1</title>
<g id="a_node1"><a xlink:title=" ">
<polygon fill="#bfbfbf" stroke="black" points="1951.5,-201.5 1951.5,-220.5 2059.5,-220.5 2059.5,-201.5 1951.5,-201.5"/>
<text text-anchor="middle" x="2005.5" y="-208.5" font-family="Helvetica,sans-Serif" font-size="10.00">src/sensors/sensor.h</text>
</a>
</g>
</g>
<!-- Node2 -->
<g id="node2" class="node">
<title>Node2</title>
<g id="a_node2"><a xlink:href="sensesp__app_8h.html" target="_top" xlink:title=" ">
<polygon fill="white" stroke="black" points="1578.5,-140 1578.5,-159 1678.5,-159 1678.5,-140 1578.5,-140"/>
<text text-anchor="middle" x="1628.5" y="-147" font-family="Helvetica,sans-Serif" font-size="10.00">src/sensesp_app.h</text>
</a>
</g>
</g>
<!-- Node1&#45;&gt;Node2 -->
<g id="edge1" class="edge">
<title>Node1&#45;&gt;Node2</title>
<path fill="none" stroke="midnightblue" d="M1941.32,-199.87C1867.01,-188.14 1746.18,-169.07 1678.5,-158.39"/>
<polygon fill="midnightblue" stroke="midnightblue" points="1941.06,-203.37 1951.49,-201.48 1942.15,-196.46 1941.06,-203.37"/>
</g>
<!-- Node14 -->
<g id="node14" class="node">
<title>Node14</title>
<g id="a_node14"><a xlink:href="ads1x15_8h.html" target="_top" xlink:title=" ">
<polygon fill="white" stroke="black" points="1947,-140 1947,-159 2064,-159 2064,-140 1947,-140"/>
<text text-anchor="middle" x="2005.5" y="-147" font-family="Helvetica,sans-Serif" font-size="10.00">src/sensors/ads1x15.h</text>
</a>
</g>
</g>
<!-- Node1&#45;&gt;Node14 -->
<g id="edge15" class="edge">
<title>Node1&#45;&gt;Node14</title>
<path fill="none" stroke="midnightblue" d="M2005.5,-191.32C2005.5,-180.5 2005.5,-167.4 2005.5,-159.01"/>
<polygon fill="midnightblue" stroke="midnightblue" points="2002,-191.48 2005.5,-201.48 2009,-191.48 2002,-191.48"/>
</g>
<!-- Node16 -->
<g id="node16" class="node">
<title>Node16</title>
<g id="a_node16"><a xlink:href="analog__input_8h.html" target="_top" xlink:title=" ">
<polygon fill="white" stroke="black" points="606.5,-134.5 606.5,-164.5 706.5,-164.5 706.5,-134.5 606.5,-134.5"/>
<text text-anchor="start" x="614.5" y="-152.5" font-family="Helvetica,sans-Serif" font-size="10.00">src/sensors/analog</text>
<text text-anchor="middle" x="656.5" y="-141.5" font-family="Helvetica,sans-Serif" font-size="10.00">_input.h</text>
</a>
</g>
</g>
<!-- Node1&#45;&gt;Node16 -->
<g id="edge17" class="edge">
<title>Node1&#45;&gt;Node16</title>
<path fill="none" stroke="midnightblue" d="M1941.03,-208.06C1767.99,-202.71 1278.97,-186.71 872.5,-165 815.64,-161.96 750.43,-157.44 706.67,-154.26"/>
<polygon fill="midnightblue" stroke="midnightblue" points="1941.13,-211.56 1951.23,-208.37 1941.34,-204.56 1941.13,-211.56"/>
</g>
<!-- Node18 -->
<g id="node18" class="node">
<title>Node18</title>
<g id="a_node18"><a xlink:href="bme280_8h.html" target="_top" xlink:title=" ">
<polygon fill="white" stroke="black" points="2082,-140 2082,-159 2197,-159 2197,-140 2082,-140"/>
<text text-anchor="middle" x="2139.5" y="-147" font-family="Helvetica,sans-Serif" font-size="10.00">src/sensors/bme280.h</text>
</a>
</g>
</g>
<!-- Node1&#45;&gt;Node18 -->
<g id="edge22" class="edge">
<title>Node1&#45;&gt;Node18</title>
<path fill="none" stroke="midnightblue" d="M2034.04,-197.33C2060.05,-185.78 2097.76,-169.03 2120.34,-159.01"/>
<polygon fill="midnightblue" stroke="midnightblue" points="2032.42,-194.22 2024.7,-201.48 2035.26,-200.62 2032.42,-194.22"/>
</g>
<!-- Node20 -->
<g id="node20" class="node">
<title>Node20</title>
<g id="a_node20"><a xlink:href="bmp280_8h.html" target="_top" xlink:title=" ">
<polygon fill="white" stroke="black" points="2215,-140 2215,-159 2330,-159 2330,-140 2215,-140"/>
<text text-anchor="middle" x="2272.5" y="-147" font-family="Helvetica,sans-Serif" font-size="10.00">src/sensors/bmp280.h</text>
</a>
</g>
</g>
<!-- Node1&#45;&gt;Node20 -->
<g id="edge24" class="edge">
<title>Node1&#45;&gt;Node20</title>
<path fill="none" stroke="midnightblue" d="M2053.7,-199.26C2105.5,-187.72 2186.77,-169.61 2234.32,-159.01"/>
<polygon fill="midnightblue" stroke="midnightblue" points="2052.75,-195.88 2043.75,-201.48 2054.28,-202.72 2052.75,-195.88"/>
</g>
<!-- Node22 -->
<g id="node22" class="node">
<title>Node22</title>
<g id="a_node22"><a xlink:href="digital__input_8h.html" target="_top" xlink:title=" ">
<polygon fill="white" stroke="black" points="202,-134.5 202,-164.5 299,-164.5 299,-134.5 202,-134.5"/>
<text text-anchor="start" x="210" y="-152.5" font-family="Helvetica,sans-Serif" font-size="10.00">src/sensors/digital</text>
<text text-anchor="middle" x="250.5" y="-141.5" font-family="Helvetica,sans-Serif" font-size="10.00">_input.h</text>
</a>
</g>
</g>
<!-- Node1&#45;&gt;Node22 -->
<g id="edge26" class="edge">
<title>Node1&#45;&gt;Node22</title>
<path fill="none" stroke="midnightblue" d="M1940.9,-209.87C1722.95,-209.09 994.77,-203.55 394.5,-165 362.66,-162.95 326.97,-159.37 299.09,-156.28"/>
<polygon fill="midnightblue" stroke="midnightblue" points="1941.18,-213.37 1951.2,-209.91 1941.21,-206.37 1941.18,-213.37"/>
</g>
<!-- Node26 -->
<g id="node26" class="node">
<title>Node26</title>
<g id="a_node26"><a xlink:href="gps_8h.html" target="_top" xlink:title=" ">
<polygon fill="white" stroke="black" points="882,-140 882,-159 977,-159 977,-140 882,-140"/>
<text text-anchor="middle" x="929.5" y="-147" font-family="Helvetica,sans-Serif" font-size="10.00">src/sensors/gps.h</text>
</a>
</g>
</g>
<!-- Node1&#45;&gt;Node26 -->
<g id="edge32" class="edge">
<title>Node1&#45;&gt;Node26</title>
<path fill="none" stroke="midnightblue" d="M1941.25,-207.38C1794.5,-201.27 1423.46,-185.03 1113.5,-165 1067.13,-162 1014.26,-157.75 977.13,-154.62"/>
<polygon fill="midnightblue" stroke="midnightblue" points="1941.29,-210.89 1951.42,-207.8 1941.58,-203.89 1941.29,-210.89"/>
</g>
<!-- Node30 -->
<g id="node30" class="node">
<title>Node30</title>
<g id="a_node30"><a xlink:href="ina219_8h.html" target="_top" xlink:title=" ">
<polygon fill="white" stroke="black" points="2348,-140 2348,-159 2457,-159 2457,-140 2348,-140"/>
<text text-anchor="middle" x="2402.5" y="-147" font-family="Helvetica,sans-Serif" font-size="10.00">src/sensors/ina219.h</text>
</a>
</g>
</g>
<!-- Node1&#45;&gt;Node30 -->
<g id="edge39" class="edge">
<title>Node1&#45;&gt;Node30</title>
<path fill="none" stroke="midnightblue" d="M2069.68,-203.03C2136.93,-195.34 2245.53,-181.78 2338.5,-165 2347.92,-163.3 2358.05,-161.15 2367.4,-159.04"/>
<polygon fill="midnightblue" stroke="midnightblue" points="2069.2,-199.57 2059.66,-204.17 2069.99,-206.52 2069.2,-199.57"/>
</g>
<!-- Node32 -->
<g id="node32" class="node">
<title>Node32</title>
<g id="a_node32"><a xlink:href="max31856__thermocouple_8h.html" target="_top" xlink:title=" ">
<polygon fill="white" stroke="black" points="2475,-134.5 2475,-164.5 2592,-164.5 2592,-134.5 2475,-134.5"/>
<text text-anchor="start" x="2483" y="-152.5" font-family="Helvetica,sans-Serif" font-size="10.00">src/sensors/max31856</text>
<text text-anchor="middle" x="2533.5" y="-141.5" font-family="Helvetica,sans-Serif" font-size="10.00">_thermocouple.h</text>
</a>
</g>
</g>
<!-- Node1&#45;&gt;Node32 -->
<g id="edge41" class="edge">
<title>Node1&#45;&gt;Node32</title>
<path fill="none" stroke="midnightblue" d="M2069.8,-206C2158.99,-199.94 2325.15,-186.76 2465.5,-165 2468.6,-164.52 2471.77,-163.99 2474.97,-163.42"/>
<polygon fill="midnightblue" stroke="midnightblue" points="2069.31,-202.53 2059.57,-206.69 2069.78,-209.51 2069.31,-202.53"/>
</g>
<!-- Node34 -->
<g id="node34" class="node">
<title>Node34</title>
<g id="a_node34"><a xlink:href="onewire__temperature_8cpp.html" target="_top" xlink:title=" ">
<polygon fill="white" stroke="black" points="1123,-67.5 1123,-97.5 1228,-97.5 1228,-67.5 1123,-67.5"/>
<text text-anchor="start" x="1131" y="-85.5" font-family="Helvetica,sans-Serif" font-size="10.00">src/sensors/onewire</text>
<text text-anchor="middle" x="1175.5" y="-74.5" font-family="Helvetica,sans-Serif" font-size="10.00">_temperature.cpp</text>
</a>
</g>
</g>
<!-- Node1&#45;&gt;Node34 -->
<g id="edge43" class="edge">
<title>Node1&#45;&gt;Node34</title>
<path fill="none" stroke="midnightblue" d="M1941.21,-205.25C1855.95,-198.53 1700.92,-184.8 1569.5,-165 1418.5,-142.25 1381.44,-131.72 1232.5,-98 1231.11,-97.68 1229.69,-97.36 1228.27,-97.03"/>
<polygon fill="midnightblue" stroke="midnightblue" points="1941.02,-208.75 1951.26,-206.04 1941.56,-201.77 1941.02,-208.75"/>
</g>
<!-- Node35 -->
<g id="node35" class="node">
<title>Node35</title>
<g id="a_node35"><a xlink:href="onewire__temperature_8h.html" target="_top" xlink:title=" ">
<polygon fill="white" stroke="black" points="1123,-134.5 1123,-164.5 1228,-164.5 1228,-134.5 1123,-134.5"/>
<text text-anchor="start" x="1131" y="-152.5" font-family="Helvetica,sans-Serif" font-size="10.00">src/sensors/onewire</text>
<text text-anchor="middle" x="1175.5" y="-141.5" font-family="Helvetica,sans-Serif" font-size="10.00">_temperature.h</text>
</a>
</g>
</g>
<!-- Node1&#45;&gt;Node35 -->
<g id="edge44" class="edge">
<title>Node1&#45;&gt;Node35</title>
<path fill="none" stroke="midnightblue" d="M1941.27,-205.4C1782.47,-194.01 1373.77,-164.71 1228.07,-154.27"/>
<polygon fill="midnightblue" stroke="midnightblue" points="1941.14,-208.89 1951.36,-206.12 1941.64,-201.91 1941.14,-208.89"/>
</g>
<!-- Node36 -->
<g id="node36" class="node">
<title>Node36</title>
<g id="a_node36"><a xlink:href="sensor_8cpp.html" target="_top" xlink:title=" ">
<polygon fill="white" stroke="black" points="2610,-140 2610,-159 2729,-159 2729,-140 2610,-140"/>
<text text-anchor="middle" x="2669.5" y="-147" font-family="Helvetica,sans-Serif" font-size="10.00">src/sensors/sensor.cpp</text>
</a>
</g>
</g>
<!-- Node1&#45;&gt;Node36 -->
<g id="edge47" class="edge">
<title>Node1&#45;&gt;Node36</title>
<path fill="none" stroke="midnightblue" d="M2070.13,-207.9C2179.71,-203.71 2408.74,-192.28 2600.5,-165 2611.29,-163.47 2622.91,-161.25 2633.49,-159"/>
<polygon fill="midnightblue" stroke="midnightblue" points="2069.77,-204.41 2059.9,-208.28 2070.03,-211.41 2069.77,-204.41"/>
</g>
<!-- Node37 -->
<g id="node37" class="node">
<title>Node37</title>
<g id="a_node37"><a xlink:href="sht31_8h.html" target="_top" xlink:title=" ">
<polygon fill="white" stroke="black" points="2872,-140 2872,-159 2975,-159 2975,-140 2872,-140"/>
<text text-anchor="middle" x="2923.5" y="-147" font-family="Helvetica,sans-Serif" font-size="10.00">src/sensors/sht31.h</text>
</a>
</g>
</g>
<!-- Node1&#45;&gt;Node37 -->
<g id="edge48" class="edge">
<title>Node1&#45;&gt;Node37</title>
<path fill="none" stroke="midnightblue" d="M2070.06,-206.39C2197.64,-199.17 2491.03,-182.18 2737.5,-165 2782.9,-161.84 2834.49,-157.78 2871.8,-154.76"/>
<polygon fill="midnightblue" stroke="midnightblue" points="2069.49,-202.91 2059.7,-206.97 2069.88,-209.9 2069.49,-202.91"/>
</g>
<!-- Node39 -->
<g id="node39" class="node">
<title>Node39</title>
<g id="a_node39"><a xlink:href="system__info_8h.html" target="_top" xlink:title=" ">
<polygon fill="white" stroke="black" points="403.5,-134.5 403.5,-164.5 505.5,-164.5 505.5,-134.5 403.5,-134.5"/>
<text text-anchor="start" x="411.5" y="-152.5" font-family="Helvetica,sans-Serif" font-size="10.00">src/sensors/system</text>
<text text-anchor="middle" x="454.5" y="-141.5" font-family="Helvetica,sans-Serif" font-size="10.00">_info.h</text>
</a>
</g>
</g>
<!-- Node1&#45;&gt;Node39 -->
<g id="edge50" class="edge">
<title>Node1&#45;&gt;Node39</title>
<path fill="none" stroke="midnightblue" d="M1941.39,-209.53C1742.03,-207.72 1115.29,-199.48 597.5,-165 567,-162.97 532.94,-159.56 505.72,-156.56"/>
<polygon fill="midnightblue" stroke="midnightblue" points="1941.37,-213.03 1951.4,-209.62 1941.43,-206.03 1941.37,-213.03"/>
</g>
<!-- Node41 -->
<g id="node41" class="node">
<title>Node41</title>
<g id="a_node41"><a xlink:href="ultrasonic__distance_8h.html" target="_top" xlink:title=" ">
<polygon fill="white" stroke="black" points="3058,-134.5 3058,-164.5 3171,-164.5 3171,-134.5 3058,-134.5"/>
<text text-anchor="start" x="3066" y="-152.5" font-family="Helvetica,sans-Serif" font-size="10.00">src/sensors/ultrasonic</text>
<text text-anchor="middle" x="3114.5" y="-141.5" font-family="Helvetica,sans-Serif" font-size="10.00">_distance.h</text>
</a>
</g>
</g>
<!-- Node1&#45;&gt;Node41 -->
<g id="edge53" class="edge">
<title>Node1&#45;&gt;Node41</title>
<path fill="none" stroke="midnightblue" d="M2070.04,-208.46C2226.76,-204.42 2639.78,-191.9 2983.5,-165 3007.91,-163.09 3034.8,-160.24 3057.83,-157.58"/>
<polygon fill="midnightblue" stroke="midnightblue" points="2069.55,-204.98 2059.65,-208.73 2069.73,-211.97 2069.55,-204.98"/>
</g>
<!-- Node3 -->
<g id="node3" class="node">
<title>Node3</title>
<g id="a_node3"><a xlink:href="main_8cpp.html" target="_top" xlink:title=" ">
<polygon fill="white" stroke="black" points="1316,-6 1316,-25 1389,-25 1389,-6 1316,-6"/>
<text text-anchor="middle" x="1352.5" y="-13" font-family="Helvetica,sans-Serif" font-size="10.00">src/main.cpp</text>
</a>
</g>
</g>
<!-- Node2&#45;&gt;Node3 -->
<g id="edge2" class="edge">
<title>Node2&#45;&gt;Node3</title>
<path fill="none" stroke="midnightblue" d="M1688.61,-145.43C1833.27,-137.74 2190.13,-116.95 2207.5,-98 2216.81,-87.84 2216.95,-77.03 2207.5,-67 2179.02,-36.79 1549.28,-20.85 1389.23,-17.28"/>
<polygon fill="midnightblue" stroke="midnightblue" points="1688.38,-141.94 1678.57,-145.96 1688.74,-148.93 1688.38,-141.94"/>
</g>
<!-- Node4 -->
<g id="node4" class="node">
<title>Node4</title>
<g id="a_node4"><a xlink:href="http_8cpp.html" target="_top" xlink:title=" ">
<polygon fill="white" stroke="black" points="1438,-73 1438,-92 1523,-92 1523,-73 1438,-73"/>
<text text-anchor="middle" x="1480.5" y="-80" font-family="Helvetica,sans-Serif" font-size="10.00">src/net/http.cpp</text>
</a>
</g>
</g>
<!-- Node2&#45;&gt;Node4 -->
<g id="edge3" class="edge">
<title>Node2&#45;&gt;Node4</title>
<path fill="none" stroke="midnightblue" d="M1599.54,-135.78C1570.23,-122.91 1525.71,-103.35 1500.23,-92.17"/>
<polygon fill="midnightblue" stroke="midnightblue" points="1598.28,-139.05 1608.85,-139.87 1601.1,-132.64 1598.28,-139.05"/>
</g>
<!-- Node5 -->
<g id="node5" class="node">
<title>Node5</title>
<g id="a_node5"><a xlink:href="ws__client_8cpp.html" target="_top" xlink:title=" ">
<polygon fill="white" stroke="black" points="1541,-73 1541,-92 1650,-92 1650,-73 1541,-73"/>
<text text-anchor="middle" x="1595.5" y="-80" font-family="Helvetica,sans-Serif" font-size="10.00">src/net/ws_client.cpp</text>
</a>
</g>
</g>
<!-- Node2&#45;&gt;Node5 -->
<g id="edge4" class="edge">
<title>Node2&#45;&gt;Node5</title>
<path fill="none" stroke="midnightblue" d="M1619.44,-130.66C1613.08,-118.13 1604.85,-101.91 1599.88,-92.13"/>
<polygon fill="midnightblue" stroke="midnightblue" points="1616.4,-132.4 1624.05,-139.73 1622.64,-129.23 1616.4,-132.4"/>
</g>
<!-- Node6 -->
<g id="node6" class="node">
<title>Node6</title>
<g id="a_node6"><a xlink:href="sensesp__app_8cpp.html" target="_top" xlink:title=" ">
<polygon fill="white" stroke="black" points="399,-73 399,-92 510,-92 510,-73 399,-73"/>
<text text-anchor="middle" x="454.5" y="-80" font-family="Helvetica,sans-Serif" font-size="10.00">src/sensesp_app.cpp</text>
</a>
</g>
</g>
<!-- Node2&#45;&gt;Node6 -->
<g id="edge5" class="edge">
<title>Node2&#45;&gt;Node6</title>
<path fill="none" stroke="midnightblue" d="M1568.03,-146.36C1351.68,-138.63 623.41,-111.85 519.5,-98 509.07,-96.61 497.84,-94.38 487.7,-92.07"/>
<polygon fill="midnightblue" stroke="midnightblue" points="1568.12,-149.87 1578.24,-146.73 1568.37,-142.87 1568.12,-149.87"/>
</g>
<!-- Node7 -->
<g id="node7" class="node">
<title>Node7</title>
<g id="a_node7"><a xlink:href="sensesp__app__builder_8h.html" target="_top" xlink:title=" ">
<polygon fill="white" stroke="black" points="1285,-73 1285,-92 1420,-92 1420,-73 1285,-73"/>
<text text-anchor="middle" x="1352.5" y="-80" font-family="Helvetica,sans-Serif" font-size="10.00">src/sensesp_app_builder.h</text>
</a>
</g>
</g>
<!-- Node2&#45;&gt;Node7 -->
<g id="edge6" class="edge">
<title>Node2&#45;&gt;Node7</title>
<path fill="none" stroke="midnightblue" d="M1582.06,-137.56C1527.65,-124.75 1438.63,-103.78 1388.95,-92.08"/>
<polygon fill="midnightblue" stroke="midnightblue" points="1581.6,-141.05 1592.13,-139.94 1583.2,-134.24 1581.6,-141.05"/>
</g>
<!-- Node8 -->
<g id="node8" class="node">
<title>Node8</title>
<g id="a_node8"><a xlink:href="sensesp__app__builder__pre_8h.html" target="_top" xlink:title=" ">
<polygon fill="white" stroke="black" points="1668.5,-67.5 1668.5,-97.5 1796.5,-97.5 1796.5,-67.5 1668.5,-67.5"/>
<text text-anchor="start" x="1676.5" y="-85.5" font-family="Helvetica,sans-Serif" font-size="10.00">src/sensesp_app_builder</text>
<text text-anchor="middle" x="1732.5" y="-74.5" font-family="Helvetica,sans-Serif" font-size="10.00">_pre.h</text>
</a>
</g>
</g>
<!-- Node2&#45;&gt;Node8 -->
<g id="edge8" class="edge">
<title>Node2&#45;&gt;Node8</title>
<path fill="none" stroke="midnightblue" d="M1651.46,-134.15C1668.86,-123.27 1692.66,-108.4 1709.96,-97.59"/>
<polygon fill="midnightblue" stroke="midnightblue" points="1649.15,-131.47 1642.53,-139.73 1652.86,-137.4 1649.15,-131.47"/>
</g>
<!-- Node9 -->
<g id="node9" class="node">
<title>Node9</title>
<g id="a_node9"><a xlink:href="signalk__put__request_8cpp.html" target="_top" xlink:title=" ">
<polygon fill="white" stroke="black" points="1814.5,-67.5 1814.5,-97.5 1912.5,-97.5 1912.5,-67.5 1814.5,-67.5"/>
<text text-anchor="start" x="1822.5" y="-85.5" font-family="Helvetica,sans-Serif" font-size="10.00">src/signalk/signalk</text>
<text text-anchor="middle" x="1863.5" y="-74.5" font-family="Helvetica,sans-Serif" font-size="10.00">_put_request.cpp</text>
</a>
</g>
</g>
<!-- Node2&#45;&gt;Node9 -->
<g id="edge9" class="edge">
<title>Node2&#45;&gt;Node9</title>
<path fill="none" stroke="midnightblue" d="M1669.46,-137.17C1709.71,-126.04 1771.18,-109.04 1814.12,-97.16"/>
<polygon fill="midnightblue" stroke="midnightblue" points="1668.41,-133.83 1659.71,-139.87 1670.28,-140.58 1668.41,-133.83"/>
</g>
<!-- Node10 -->
<g id="node10" class="node">
<title>Node10</title>
<g id="a_node10"><a xlink:href="enable_8cpp.html" target="_top" xlink:title=" ">
<polygon fill="white" stroke="black" points="1930.5,-73 1930.5,-92 2046.5,-92 2046.5,-73 1930.5,-73"/>
<text text-anchor="middle" x="1988.5" y="-80" font-family="Helvetica,sans-Serif" font-size="10.00">src/system/enable.cpp</text>
</a>
</g>
</g>
<!-- Node2&#45;&gt;Node10 -->
<g id="edge10" class="edge">
<title>Node2&#45;&gt;Node10</title>
<path fill="none" stroke="midnightblue" d="M1688.59,-138.91C1747.92,-129.26 1841.15,-113.61 1921.5,-98 1930.85,-96.18 1940.89,-94.09 1950.29,-92.06"/>
<polygon fill="midnightblue" stroke="midnightblue" points="1687.96,-135.47 1678.65,-140.52 1689.08,-142.38 1687.96,-135.47"/>
</g>
<!-- Node11 -->
<g id="node11" class="node">
<title>Node11</title>
<g id="a_node11"><a xlink:href="led__blinker_8cpp.html" target="_top" xlink:title=" ">
<polygon fill="white" stroke="black" points="2064.5,-73 2064.5,-92 2198.5,-92 2198.5,-73 2064.5,-73"/>
<text text-anchor="middle" x="2131.5" y="-80" font-family="Helvetica,sans-Serif" font-size="10.00">src/system/led_blinker.cpp</text>
</a>
</g>
</g>
<!-- Node2&#45;&gt;Node11 -->
<g id="edge11" class="edge">
<title>Node2&#45;&gt;Node11</title>
<path fill="none" stroke="midnightblue" d="M1688.6,-142.75C1771.42,-134.51 1925.19,-118.11 2055.5,-98 2066.65,-96.28 2078.67,-94.13 2089.78,-92.01"/>
<polygon fill="midnightblue" stroke="midnightblue" points="1688.22,-139.27 1678.62,-143.73 1688.91,-146.23 1688.22,-139.27"/>
</g>
<!-- Node12 -->
<g id="node12" class="node">
<title>Node12</title>
<g id="a_node12"><a xlink:href="wiring__helpers_8cpp.html" target="_top" xlink:title=" ">
<polygon fill="white" stroke="black" points="790.5,-6 790.5,-25 906.5,-25 906.5,-6 790.5,-6"/>
<text text-anchor="middle" x="848.5" y="-13" font-family="Helvetica,sans-Serif" font-size="10.00">src/wiring_helpers.cpp</text>
</a>
</g>
</g>
<!-- Node2&#45;&gt;Node12 -->
<g id="edge12" class="edge">
<title>Node2&#45;&gt;Node12</title>
<path fill="none" stroke="midnightblue" d="M1568.11,-143.7C1481.52,-136.17 1326.86,-120.13 1275.5,-98 1255.17,-89.24 1256.89,-75.63 1236.5,-67 1178.33,-42.37 999.86,-26.87 906.62,-20.24"/>
<polygon fill="midnightblue" stroke="midnightblue" points="1568.06,-147.21 1578.32,-144.58 1568.66,-140.24 1568.06,-147.21"/>
</g>
<!-- Node13 -->
<g id="node13" class="node">
<title>Node13</title>
<g id="a_node13"><a xlink:href="wiring__helpers_8h.html" target="_top" xlink:title=" ">
<polygon fill="white" stroke="black" points="1000,-73 1000,-92 1105,-92 1105,-73 1000,-73"/>
<text text-anchor="middle" x="1052.5" y="-80" font-family="Helvetica,sans-Serif" font-size="10.00">src/wiring_helpers.h</text>
</a>
</g>
</g>
<!-- Node2&#45;&gt;Node13 -->
<g id="edge13" class="edge">
<title>Node2&#45;&gt;Node13</title>
<path fill="none" stroke="midnightblue" d="M1568.34,-145.25C1471.86,-139.46 1276.8,-125.28 1113.5,-98 1104.16,-96.44 1094.12,-94.26 1084.94,-92.07"/>
<polygon fill="midnightblue" stroke="midnightblue" points="1568.3,-148.76 1578.49,-145.86 1568.71,-141.77 1568.3,-148.76"/>
</g>
<!-- Node7&#45;&gt;Node3 -->
<g id="edge7" class="edge">
<title>Node7&#45;&gt;Node3</title>
<path fill="none" stroke="midnightblue" d="M1352.5,-62.54C1352.5,-50.17 1352.5,-34.62 1352.5,-25.13"/>
<polygon fill="midnightblue" stroke="midnightblue" points="1349,-62.73 1352.5,-72.73 1356,-62.73 1349,-62.73"/>
</g>
<!-- Node13&#45;&gt;Node12 -->
<g id="edge14" class="edge">
<title>Node13&#45;&gt;Node12</title>
<path fill="none" stroke="midnightblue" d="M1015.67,-69.77C975.25,-56.89 911.34,-36.52 875.38,-25.06"/>
<polygon fill="midnightblue" stroke="midnightblue" points="1014.82,-73.17 1025.41,-72.87 1016.94,-66.5 1014.82,-73.17"/>
</g>
<!-- Node15 -->
<g id="node15" class="node">
<title>Node15</title>
<g id="a_node15"><a xlink:href="ads1x15_8cpp.html" target="_top" xlink:title=" ">
<polygon fill="white" stroke="black" points="2255,-73 2255,-92 2382,-92 2382,-73 2255,-73"/>
<text text-anchor="middle" x="2318.5" y="-80" font-family="Helvetica,sans-Serif" font-size="10.00">src/sensors/ads1x15.cpp</text>
</a>
</g>
</g>
<!-- Node14&#45;&gt;Node15 -->
<g id="edge16" class="edge">
<title>Node14&#45;&gt;Node15</title>
<path fill="none" stroke="midnightblue" d="M2054.53,-137.83C2060.58,-136.53 2066.68,-135.23 2072.5,-134 2143.96,-118.93 2227.22,-101.96 2276.25,-92.03"/>
<polygon fill="midnightblue" stroke="midnightblue" points="2053.5,-134.47 2044.46,-140 2054.97,-141.31 2053.5,-134.47"/>
</g>
<!-- Node16&#45;&gt;Node3 -->
<g id="edge18" class="edge">
<title>Node16&#45;&gt;Node3</title>
<path fill="none" stroke="midnightblue" d="M704.58,-130.9C730.42,-121.35 762.77,-109.23 791.5,-98 825.48,-84.72 832.11,-75.87 867.5,-67 1031.33,-25.95 1234.36,-18.21 1315.99,-16.8"/>
<polygon fill="midnightblue" stroke="midnightblue" points="703.19,-127.69 695.02,-134.43 705.61,-134.25 703.19,-127.69"/>
</g>
<!-- Node16&#45;&gt;Node6 -->
<g id="edge19" class="edge">
<title>Node16&#45;&gt;Node6</title>
<path fill="none" stroke="midnightblue" d="M602.95,-131.27C563.59,-118.6 511.79,-101.93 480.94,-92.01"/>
<polygon fill="midnightblue" stroke="midnightblue" points="602.08,-134.66 612.67,-134.4 604.22,-128 602.08,-134.66"/>
</g>
<!-- Node16&#45;&gt;Node12 -->
<g id="edge21" class="edge">
<title>Node16&#45;&gt;Node12</title>
<path fill="none" stroke="midnightblue" d="M655.96,-124.37C656.86,-106.34 661.04,-82.28 675.5,-67 685.02,-56.94 764.08,-36.65 811.96,-25.09"/>
<polygon fill="midnightblue" stroke="midnightblue" points="652.45,-124.35 655.75,-134.42 659.45,-124.5 652.45,-124.35"/>
</g>
<!-- Node17 -->
<g id="node17" class="node">
<title>Node17</title>
<g id="a_node17"><a xlink:href="analog__input_8cpp.html" target="_top" xlink:title=" ">
<polygon fill="white" stroke="black" points="528.5,-67.5 528.5,-97.5 628.5,-97.5 628.5,-67.5 528.5,-67.5"/>
<text text-anchor="start" x="536.5" y="-85.5" font-family="Helvetica,sans-Serif" font-size="10.00">src/sensors/analog</text>
<text text-anchor="middle" x="578.5" y="-74.5" font-family="Helvetica,sans-Serif" font-size="10.00">_input.cpp</text>
</a>
</g>
</g>
<!-- Node16&#45;&gt;Node17 -->
<g id="edge20" class="edge">
<title>Node16&#45;&gt;Node17</title>
<path fill="none" stroke="midnightblue" d="M631.76,-127.88C619.91,-118.01 606.02,-106.43 595.39,-97.58"/>
<polygon fill="midnightblue" stroke="midnightblue" points="629.65,-130.68 639.58,-134.4 634.13,-125.31 629.65,-130.68"/>
</g>
<!-- Node19 -->
<g id="node19" class="node">
<title>Node19</title>
<g id="a_node19"><a xlink:href="bme280_8cpp.html" target="_top" xlink:title=" ">
<polygon fill="white" stroke="black" points="2400,-73 2400,-92 2525,-92 2525,-73 2400,-73"/>
<text text-anchor="middle" x="2462.5" y="-80" font-family="Helvetica,sans-Serif" font-size="10.00">src/sensors/bme280.cpp</text>
</a>
</g>
</g>
<!-- Node18&#45;&gt;Node19 -->
<g id="edge23" class="edge">
<title>Node18&#45;&gt;Node19</title>
<path fill="none" stroke="midnightblue" d="M2187.55,-137.8C2193.59,-136.5 2199.69,-135.2 2205.5,-134 2287.52,-117.01 2308.33,-114.27 2390.5,-98 2400.13,-96.09 2410.48,-94.02 2420.25,-92.06"/>
<polygon fill="midnightblue" stroke="midnightblue" points="2186.54,-134.44 2177.51,-139.99 2188.02,-141.28 2186.54,-134.44"/>
</g>
<!-- Node21 -->
<g id="node21" class="node">
<title>Node21</title>
<g id="a_node21"><a xlink:href="bmp280_8cpp.html" target="_top" xlink:title=" ">
<polygon fill="white" stroke="black" points="2543,-73 2543,-92 2668,-92 2668,-73 2543,-73"/>
<text text-anchor="middle" x="2605.5" y="-80" font-family="Helvetica,sans-Serif" font-size="10.00">src/sensors/bmp280.cpp</text>
</a>
</g>
</g>
<!-- Node20&#45;&gt;Node21 -->
<g id="edge25" class="edge">
<title>Node20&#45;&gt;Node21</title>
<path fill="none" stroke="midnightblue" d="M2320.31,-137.8C2326.43,-136.49 2332.61,-135.19 2338.5,-134 2424.88,-116.54 2446.97,-114.7 2533.5,-98 2543.27,-96.12 2553.76,-94.03 2563.64,-92.05"/>
<polygon fill="midnightblue" stroke="midnightblue" points="2319.18,-134.46 2310.15,-140 2320.66,-141.3 2319.18,-134.46"/>
</g>
<!-- Node22&#45;&gt;Node6 -->
<g id="edge27" class="edge">
<title>Node22&#45;&gt;Node6</title>
<path fill="none" stroke="midnightblue" d="M304.07,-131.43C343.86,-118.75 396.44,-102 427.73,-92.03"/>
<polygon fill="midnightblue" stroke="midnightblue" points="302.98,-128.11 294.51,-134.48 305.1,-134.77 302.98,-128.11"/>
</g>
<!-- Node22&#45;&gt;Node12 -->
<g id="edge31" class="edge">
<title>Node22&#45;&gt;Node12</title>
<path fill="none" stroke="midnightblue" d="M249.06,-124.34C249.39,-105.71 253.23,-80.87 269.5,-67 312.9,-30 725.04,-39.05 781.5,-31 791.99,-29.5 803.28,-27.3 813.55,-25.05"/>
<polygon fill="midnightblue" stroke="midnightblue" points="245.56,-124.51 249.21,-134.46 252.56,-124.41 245.56,-124.51"/>
</g>
<!-- Node23 -->
<g id="node23" class="node">
<title>Node23</title>
<g id="a_node23"><a xlink:href="digital__input_8cpp.html" target="_top" xlink:title=" ">
<polygon fill="white" stroke="black" points="125,-67.5 125,-97.5 222,-97.5 222,-67.5 125,-67.5"/>
<text text-anchor="start" x="133" y="-85.5" font-family="Helvetica,sans-Serif" font-size="10.00">src/sensors/digital</text>
<text text-anchor="middle" x="173.5" y="-74.5" font-family="Helvetica,sans-Serif" font-size="10.00">_input.cpp</text>
</a>
</g>
</g>
<!-- Node22&#45;&gt;Node23 -->
<g id="edge28" class="edge">
<title>Node22&#45;&gt;Node23</title>
<path fill="none" stroke="midnightblue" d="M226.08,-127.88C214.38,-118.01 200.66,-106.43 190.18,-97.58"/>
<polygon fill="midnightblue" stroke="midnightblue" points="223.89,-130.62 233.79,-134.4 228.41,-125.27 223.89,-130.62"/>
</g>
<!-- Node24 -->
<g id="node24" class="node">
<title>Node24</title>
<g id="a_node24"><a xlink:href="press__repeater_8h.html" target="_top" xlink:title=" ">
<polygon fill="white" stroke="black" points="0,-67.5 0,-97.5 107,-97.5 107,-67.5 0,-67.5"/>
<text text-anchor="start" x="8" y="-85.5" font-family="Helvetica,sans-Serif" font-size="10.00">src/transforms/press</text>
<text text-anchor="middle" x="53.5" y="-74.5" font-family="Helvetica,sans-Serif" font-size="10.00">_repeater.h</text>
</a>
</g>
</g>
<!-- Node22&#45;&gt;Node24 -->
<g id="edge29" class="edge">
<title>Node22&#45;&gt;Node24</title>
<path fill="none" stroke="midnightblue" d="M198.15,-131.23C166.28,-120.71 126.09,-107.45 96.16,-97.58"/>
<polygon fill="midnightblue" stroke="midnightblue" points="197.16,-134.59 207.75,-134.4 199.35,-127.94 197.16,-134.59"/>
</g>
<!-- Node25 -->
<g id="node25" class="node">
<title>Node25</title>
<g id="a_node25"><a xlink:href="press__repeater_8cpp.html" target="_top" xlink:title=" ">
<polygon fill="white" stroke="black" points="0,-0.5 0,-30.5 107,-30.5 107,-0.5 0,-0.5"/>
<text text-anchor="start" x="8" y="-18.5" font-family="Helvetica,sans-Serif" font-size="10.00">src/transforms/press</text>
<text text-anchor="middle" x="53.5" y="-7.5" font-family="Helvetica,sans-Serif" font-size="10.00">_repeater.cpp</text>
</a>
</g>
</g>
<!-- Node24&#45;&gt;Node25 -->
<g id="edge30" class="edge">
<title>Node24&#45;&gt;Node25</title>
<path fill="none" stroke="midnightblue" d="M53.5,-57.11C53.5,-48.15 53.5,-38.32 53.5,-30.58"/>
<polygon fill="midnightblue" stroke="midnightblue" points="50,-57.4 53.5,-67.4 57,-57.4 50,-57.4"/>
</g>
<!-- Node26&#45;&gt;Node12 -->
<g id="edge37" class="edge">
<title>Node26&#45;&gt;Node12</title>
<path fill="none" stroke="midnightblue" d="M905.42,-134.46C892.31,-125.61 876.88,-113.02 867.5,-98 852.8,-74.46 849.46,-40.68 848.71,-25.04"/>
<polygon fill="midnightblue" stroke="midnightblue" points="903.73,-137.53 914.03,-139.98 907.5,-131.64 903.73,-137.53"/>
</g>
<!-- Node26&#45;&gt;Node13 -->
<g id="edge38" class="edge">
<title>Node26&#45;&gt;Node13</title>
<path fill="none" stroke="midnightblue" d="M954.85,-135.1C979.21,-122.23 1015.3,-103.16 1036.1,-92.17"/>
<polygon fill="midnightblue" stroke="midnightblue" points="953.04,-132.1 945.83,-139.87 956.31,-138.29 953.04,-132.1"/>
</g>
<!-- Node27 -->
<g id="node27" class="node">
<title>Node27</title>
<g id="a_node27"><a xlink:href="gps_8cpp.html" target="_top" xlink:title=" ">
<polygon fill="white" stroke="black" points="877,-73 877,-92 982,-92 982,-73 877,-73"/>
<text text-anchor="middle" x="929.5" y="-80" font-family="Helvetica,sans-Serif" font-size="10.00">src/sensors/gps.cpp</text>
</a>
</g>
</g>
<!-- Node26&#45;&gt;Node27 -->
<g id="edge33" class="edge">
<title>Node26&#45;&gt;Node27</title>
<path fill="none" stroke="midnightblue" d="M929.5,-129.54C929.5,-117.17 929.5,-101.62 929.5,-92.13"/>
<polygon fill="midnightblue" stroke="midnightblue" points="926,-129.73 929.5,-139.73 933,-129.73 926,-129.73"/>
</g>
<!-- Node28 -->
<g id="node28" class="node">
<title>Node28</title>
<g id="a_node28"><a xlink:href="signalk__position_8h.html" target="_top" xlink:title=" ">
<polygon fill="white" stroke="black" points="684.5,-67.5 684.5,-97.5 782.5,-97.5 782.5,-67.5 684.5,-67.5"/>
<text text-anchor="start" x="692.5" y="-85.5" font-family="Helvetica,sans-Serif" font-size="10.00">src/signalk/signalk</text>
<text text-anchor="middle" x="733.5" y="-74.5" font-family="Helvetica,sans-Serif" font-size="10.00">_position.h</text>
</a>
</g>
</g>
<!-- Node26&#45;&gt;Node28 -->
<g id="edge34" class="edge">
<title>Node26&#45;&gt;Node28</title>
<path fill="none" stroke="midnightblue" d="M893.72,-136.63C860.48,-125.61 810.98,-109.19 775.8,-97.53"/>
<polygon fill="midnightblue" stroke="midnightblue" points="892.88,-140.04 903.47,-139.87 895.08,-133.4 892.88,-140.04"/>
</g>
<!-- Node28&#45;&gt;Node12 -->
<g id="edge36" class="edge">
<title>Node28&#45;&gt;Node12</title>
<path fill="none" stroke="midnightblue" d="M767.16,-62.47C789.12,-50.06 816.7,-34.47 833.45,-25.01"/>
<polygon fill="midnightblue" stroke="midnightblue" points="765.44,-59.43 758.45,-67.4 768.88,-65.52 765.44,-59.43"/>
</g>
<!-- Node29 -->
<g id="node29" class="node">
<title>Node29</title>
<g id="a_node29"><a xlink:href="signalk__position_8cpp.html" target="_top" xlink:title=" ">
<polygon fill="white" stroke="black" points="674.5,-0.5 674.5,-30.5 772.5,-30.5 772.5,-0.5 674.5,-0.5"/>
<text text-anchor="start" x="682.5" y="-18.5" font-family="Helvetica,sans-Serif" font-size="10.00">src/signalk/signalk</text>
<text text-anchor="middle" x="723.5" y="-7.5" font-family="Helvetica,sans-Serif" font-size="10.00">_position.cpp</text>
</a>
</g>
</g>
<!-- Node28&#45;&gt;Node29 -->
<g id="edge35" class="edge">
<title>Node28&#45;&gt;Node29</title>
<path fill="none" stroke="midnightblue" d="M729.79,-57.4C728.4,-48.37 726.87,-38.41 725.67,-30.58"/>
<polygon fill="midnightblue" stroke="midnightblue" points="726.35,-58.04 731.33,-67.4 733.27,-56.98 726.35,-58.04"/>
</g>
<!-- Node31 -->
<g id="node31" class="node">
<title>Node31</title>
<g id="a_node31"><a xlink:href="ina219_8cpp.html" target="_top" xlink:title=" ">
<polygon fill="white" stroke="black" points="2686,-73 2686,-92 2805,-92 2805,-73 2686,-73"/>
<text text-anchor="middle" x="2745.5" y="-80" font-family="Helvetica,sans-Serif" font-size="10.00">src/sensors/ina219.cpp</text>
</a>
</g>
</g>
<!-- Node30&#45;&gt;Node31 -->
<g id="edge40" class="edge">
<title>Node30&#45;&gt;Node31</title>
<path fill="none" stroke="midnightblue" d="M2447.89,-137.73C2453.81,-136.42 2459.79,-135.14 2465.5,-134 2558.78,-115.32 2583.04,-115.79 2676.5,-98 2686.12,-96.17 2696.47,-94.07 2706.14,-92.04"/>
<polygon fill="midnightblue" stroke="midnightblue" points="2447.06,-134.33 2438.07,-139.94 2448.6,-141.16 2447.06,-134.33"/>
</g>
<!-- Node33 -->
<g id="node33" class="node">
<title>Node33</title>
<g id="a_node33"><a xlink:href="max31856__thermocouple_8cpp.html" target="_top" xlink:title=" ">
<polygon fill="white" stroke="black" points="2823,-67.5 2823,-97.5 2940,-97.5 2940,-67.5 2823,-67.5"/>
<text text-anchor="start" x="2831" y="-85.5" font-family="Helvetica,sans-Serif" font-size="10.00">src/sensors/max31856</text>
<text text-anchor="middle" x="2881.5" y="-74.5" font-family="Helvetica,sans-Serif" font-size="10.00">_thermocouple.cpp</text>
</a>
</g>
</g>
<!-- Node32&#45;&gt;Node33 -->
<g id="edge42" class="edge">
<title>Node32&#45;&gt;Node33</title>
<path fill="none" stroke="midnightblue" d="M2602.25,-133.71C2696.48,-115.83 2722.33,-115.42 2813.5,-98 2816.58,-97.41 2819.74,-96.79 2822.93,-96.16"/>
<polygon fill="midnightblue" stroke="midnightblue" points="2601.46,-130.3 2592.29,-135.62 2602.77,-137.17 2601.46,-130.3"/>
</g>
<!-- Node35&#45;&gt;Node13 -->
<g id="edge46" class="edge">
<title>Node35&#45;&gt;Node13</title>
<path fill="none" stroke="midnightblue" d="M1139.81,-129.64C1116.28,-117.2 1086.59,-101.51 1068.6,-92.01"/>
<polygon fill="midnightblue" stroke="midnightblue" points="1138.33,-132.82 1148.81,-134.4 1141.6,-126.63 1138.33,-132.82"/>
</g>
<!-- Node35&#45;&gt;Node34 -->
<g id="edge45" class="edge">
<title>Node35&#45;&gt;Node34</title>
<path fill="none" stroke="midnightblue" d="M1175.5,-124.11C1175.5,-115.15 1175.5,-105.32 1175.5,-97.58"/>
<polygon fill="midnightblue" stroke="midnightblue" points="1172,-124.4 1175.5,-134.4 1179,-124.4 1172,-124.4"/>
</g>
<!-- Node38 -->
<g id="node38" class="node">
<title>Node38</title>
<g id="a_node38"><a xlink:href="sht31_8cpp.html" target="_top" xlink:title=" ">
<polygon fill="white" stroke="black" points="2958.5,-73 2958.5,-92 3072.5,-92 3072.5,-73 2958.5,-73"/>
<text text-anchor="middle" x="3015.5" y="-80" font-family="Helvetica,sans-Serif" font-size="10.00">src/sensors/sht31.cpp</text>
</a>
</g>
</g>
<!-- Node37&#45;&gt;Node38 -->
<g id="edge49" class="edge">
<title>Node37&#45;&gt;Node38</title>
<path fill="none" stroke="midnightblue" d="M2944.14,-133.92C2962.32,-121.07 2988.21,-102.78 3003.29,-92.13"/>
<polygon fill="midnightblue" stroke="midnightblue" points="2942.06,-131.1 2935.91,-139.73 2946.09,-136.82 2942.06,-131.1"/>
</g>
<!-- Node39&#45;&gt;Node6 -->
<g id="edge51" class="edge">
<title>Node39&#45;&gt;Node6</title>
<path fill="none" stroke="midnightblue" d="M454.5,-124.25C454.5,-113.02 454.5,-100.38 454.5,-92.19"/>
<polygon fill="midnightblue" stroke="midnightblue" points="451,-124.4 454.5,-134.4 458,-124.4 451,-124.4"/>
</g>
<!-- Node40 -->
<g id="node40" class="node">
<title>Node40</title>
<g id="a_node40"><a xlink:href="system__info_8cpp.html" target="_top" xlink:title=" ">
<polygon fill="white" stroke="black" points="278.5,-67.5 278.5,-97.5 380.5,-97.5 380.5,-67.5 278.5,-67.5"/>
<text text-anchor="start" x="286.5" y="-85.5" font-family="Helvetica,sans-Serif" font-size="10.00">src/sensors/system</text>
<text text-anchor="middle" x="329.5" y="-74.5" font-family="Helvetica,sans-Serif" font-size="10.00">_info.cpp</text>
</a>
</g>
</g>
<!-- Node39&#45;&gt;Node40 -->
<g id="edge52" class="edge">
<title>Node39&#45;&gt;Node40</title>
<path fill="none" stroke="midnightblue" d="M418.37,-129.71C398.66,-119.46 374.66,-106.98 356.57,-97.58"/>
<polygon fill="midnightblue" stroke="midnightblue" points="416.89,-132.89 427.38,-134.4 420.12,-126.68 416.89,-132.89"/>
</g>
<!-- Node42 -->
<g id="node42" class="node">
<title>Node42</title>
<g id="a_node42"><a xlink:href="ultrasonic__distance_8cpp.html" target="_top" xlink:title=" ">
<polygon fill="white" stroke="black" points="3091,-67.5 3091,-97.5 3204,-97.5 3204,-67.5 3091,-67.5"/>
<text text-anchor="start" x="3099" y="-85.5" font-family="Helvetica,sans-Serif" font-size="10.00">src/sensors/ultrasonic</text>
<text text-anchor="middle" x="3147.5" y="-74.5" font-family="Helvetica,sans-Serif" font-size="10.00">_distance.cpp</text>
</a>
</g>
</g>
<!-- Node41&#45;&gt;Node42 -->
<g id="edge54" class="edge">
<title>Node41&#45;&gt;Node42</title>
<path fill="none" stroke="midnightblue" d="M3126.29,-125.28C3130.99,-116.02 3136.25,-105.66 3140.35,-97.58"/>
<polygon fill="midnightblue" stroke="midnightblue" points="3123.07,-123.89 3121.66,-134.4 3129.31,-127.06 3123.07,-123.89"/>
</g>
</g>
</svg>
