<?xml version="1.0" encoding="UTF-8" standalone="no"?>
<!DOCTYPE svg PUBLIC "-//W3C//DTD SVG 1.1//EN"
 "http://www.w3.org/Graphics/SVG/1.1/DTD/svg11.dtd">
<!-- Generated by graphviz version 2.49.3 (20211023.0002)
 -->
<!-- Title: src/sensesp_app.h Pages: 1 -->
<!--zoomable 151 -->
<svg id="main" version="1.1" xmlns="http://www.w3.org/2000/svg" xmlns:xlink="http://www.w3.org/1999/xlink" xml:space="preserve" onload="init(evt)">
<style type="text/css"><![CDATA[
.edge:hover path { stroke: red; }
.edge:hover polygon { stroke: red; fill: red; }
]]></style>
<script type="text/javascript"><![CDATA[
var edges = document.getElementsByTagName('g');
if (edges && edges.length) {
  for (var i=0;i<edges.length;i++) {
    if (edges[i].id.substr(0,4)=='edge') {
      edges[i].setAttribute('class','edge');
    }
  }
}
]]></script>
        <defs>
                <circle id="rim" cx="0" cy="0" r="7"/>
                <circle id="rim2" cx="0" cy="0" r="3.5"/>
                <g id="zoomPlus">
                        <use xlink:href="#rim" fill="#404040">
                                <set attributeName="fill" to="#808080" begin="zoomplus.mouseover" end="zoomplus.mouseout"/>
                        </use>
                        <path d="M-4,0h8M0,-4v8" fill="none" stroke="white" stroke-width="1.5" pointer-events="none"/>
                </g>
                <g id="zoomMin">
                        <use xlink:href="#rim" fill="#404040">
                                <set attributeName="fill" to="#808080" begin="zoomminus.mouseover" end="zoomminus.mouseout"/>
                        </use>
                        <path d="M-4,0h8" fill="none" stroke="white" stroke-width="1.5" pointer-events="none"/>
                </g>
                <g id="dirArrow">
                        <path fill="none" stroke="white" stroke-width="1.5" d="M0,-3.0v7 M-2.5,-0.5L0,-3.0L2.5,-0.5"/>
                </g>
               <g id="resetDef">
                       <use xlink:href="#rim2" fill="#404040">
                               <set attributeName="fill" to="#808080" begin="reset.mouseover" end="reset.mouseout"/>
                       </use>
               </g>
        </defs>

<script type="text/javascript">
var viewWidth = 1212;
var viewHeight = 151;
var sectionId = 'dynsection-1';
</script>
<script xlink:href="svgpan.js"/>
<svg id="graph" class="graph">
<g id="viewport">
<title>src/sensesp_app.h</title>
<polygon fill="white" stroke="transparent" points="-4,4 -4,-147 1208,-147 1208,4 -4,4"/>
<!-- Node1 -->
<g id="node1" class="node">
<title>Node1</title>
<g id="a_node1"><a xlink:title=" ">
<polygon fill="#bfbfbf" stroke="black" points="591.5,-123.5 591.5,-142.5 691.5,-142.5 691.5,-123.5 591.5,-123.5"/>
<text text-anchor="middle" x="641.5" y="-130.5" font-family="Helvetica,sans-Serif" font-size="10.00">src/sensesp_app.h</text>
</a>
</g>
</g>
<!-- Node2 -->
<g id="node2" class="node">
<title>Node2</title>
<g id="a_node2"><a xlink:href="http_8cpp.html" target="_top" xlink:title=" ">
<polygon fill="white" stroke="black" points="0,-62 0,-81 85,-81 85,-62 0,-62"/>
<text text-anchor="middle" x="42.5" y="-69" font-family="Helvetica,sans-Serif" font-size="10.00">src/net/http.cpp</text>
</a>
</g>
</g>
<!-- Node1&#45;&gt;Node2 -->
<g id="edge1" class="edge">
<title>Node1&#45;&gt;Node2</title>
<path fill="none" stroke="midnightblue" d="M581.14,-130.88C479.66,-128.15 268.76,-118.8 93.5,-87 85.35,-85.52 76.63,-83.29 68.74,-81.02"/>
<polygon fill="midnightblue" stroke="midnightblue" points="581.12,-134.38 591.21,-131.14 581.3,-127.38 581.12,-134.38"/>
</g>
<!-- Node3 -->
<g id="node3" class="node">
<title>Node3</title>
<g id="a_node3"><a xlink:href="ws__client_8cpp.html" target="_top" xlink:title=" ">
<polygon fill="white" stroke="black" points="103,-62 103,-81 212,-81 212,-62 103,-62"/>
<text text-anchor="middle" x="157.5" y="-69" font-family="Helvetica,sans-Serif" font-size="10.00">src/net/ws_client.cpp</text>
</a>
</g>
</g>
<!-- Node1&#45;&gt;Node3 -->
<g id="edge2" class="edge">
<title>Node1&#45;&gt;Node3</title>
<path fill="none" stroke="midnightblue" d="M581.2,-127.84C499.18,-121.65 348.07,-108.42 220.5,-87 210.87,-85.38 200.51,-83.19 191.03,-81"/>
<polygon fill="midnightblue" stroke="midnightblue" points="581.1,-131.34 591.33,-128.59 581.62,-124.36 581.1,-131.34"/>
</g>
<!-- Node4 -->
<g id="node4" class="node">
<title>Node4</title>
<g id="a_node4"><a xlink:href="sensesp__app_8cpp.html" target="_top" xlink:title=" ">
<polygon fill="white" stroke="black" points="230,-62 230,-81 341,-81 341,-62 230,-62"/>
<text text-anchor="middle" x="285.5" y="-69" font-family="Helvetica,sans-Serif" font-size="10.00">src/sensesp_app.cpp</text>
</a>
</g>
</g>
<!-- Node1&#45;&gt;Node4 -->
<g id="edge3" class="edge">
<title>Node1&#45;&gt;Node4</title>
<path fill="none" stroke="midnightblue" d="M581.54,-124.01C522.36,-115.83 429.41,-102.19 349.5,-87 340.32,-85.26 330.46,-83.14 321.29,-81.07"/>
<polygon fill="midnightblue" stroke="midnightblue" points="581.08,-127.48 591.46,-125.37 582.03,-120.54 581.08,-127.48"/>
</g>
<!-- Node5 -->
<g id="node5" class="node">
<title>Node5</title>
<g id="a_node5"><a xlink:href="sensesp__app__builder_8h.html" target="_top" xlink:title=" ">
<polygon fill="white" stroke="black" points="359,-62 359,-81 494,-81 494,-62 359,-62"/>
<text text-anchor="middle" x="426.5" y="-69" font-family="Helvetica,sans-Serif" font-size="10.00">src/sensesp_app_builder.h</text>
</a>
</g>
</g>
<!-- Node1&#45;&gt;Node5 -->
<g id="edge4" class="edge">
<title>Node1&#45;&gt;Node5</title>
<path fill="none" stroke="midnightblue" d="M600.85,-120.75C559.08,-109.19 494.98,-91.45 457.25,-81.01"/>
<polygon fill="midnightblue" stroke="midnightblue" points="600.12,-124.18 610.7,-123.48 601.99,-117.43 600.12,-124.18"/>
</g>
<!-- Node7 -->
<g id="node7" class="node">
<title>Node7</title>
<g id="a_node7"><a xlink:href="sensesp__app__builder__pre_8h.html" target="_top" xlink:title=" ">
<polygon fill="white" stroke="black" points="512.5,-56.5 512.5,-86.5 640.5,-86.5 640.5,-56.5 512.5,-56.5"/>
<text text-anchor="start" x="520.5" y="-74.5" font-family="Helvetica,sans-Serif" font-size="10.00">src/sensesp_app_builder</text>
<text text-anchor="middle" x="576.5" y="-63.5" font-family="Helvetica,sans-Serif" font-size="10.00">_pre.h</text>
</a>
</g>
</g>
<!-- Node1&#45;&gt;Node7 -->
<g id="edge6" class="edge">
<title>Node1&#45;&gt;Node7</title>
<path fill="none" stroke="midnightblue" d="M624.73,-116.65C614.57,-107.35 601.7,-95.57 591.82,-86.52"/>
<polygon fill="midnightblue" stroke="midnightblue" points="622.45,-119.3 632.19,-123.48 627.17,-114.14 622.45,-119.3"/>
</g>
<!-- Node8 -->
<g id="node8" class="node">
<title>Node8</title>
<g id="a_node8"><a xlink:href="signalk__put__request_8cpp.html" target="_top" xlink:title=" ">
<polygon fill="white" stroke="black" points="658.5,-56.5 658.5,-86.5 756.5,-86.5 756.5,-56.5 658.5,-56.5"/>
<text text-anchor="start" x="666.5" y="-74.5" font-family="Helvetica,sans-Serif" font-size="10.00">src/signalk/signalk</text>
<text text-anchor="middle" x="707.5" y="-63.5" font-family="Helvetica,sans-Serif" font-size="10.00">_put_request.cpp</text>
</a>
</g>
</g>
<!-- Node1&#45;&gt;Node8 -->
<g id="edge7" class="edge">
<title>Node1&#45;&gt;Node8</title>
<path fill="none" stroke="midnightblue" d="M658.53,-116.65C668.85,-107.35 681.91,-95.57 691.95,-86.52"/>
<polygon fill="midnightblue" stroke="midnightblue" points="656.04,-114.18 650.96,-123.48 660.73,-119.38 656.04,-114.18"/>
</g>
<!-- Node9 -->
<g id="node9" class="node">
<title>Node9</title>
<g id="a_node9"><a xlink:href="enable_8cpp.html" target="_top" xlink:title=" ">
<polygon fill="white" stroke="black" points="774.5,-62 774.5,-81 890.5,-81 890.5,-62 774.5,-62"/>
<text text-anchor="middle" x="832.5" y="-69" font-family="Helvetica,sans-Serif" font-size="10.00">src/system/enable.cpp</text>
</a>
</g>
</g>
<!-- Node1&#45;&gt;Node9 -->
<g id="edge8" class="edge">
<title>Node1&#45;&gt;Node9</title>
<path fill="none" stroke="midnightblue" d="M678.8,-120.38C715.93,-108.82 772.02,-91.34 805.19,-81.01"/>
<polygon fill="midnightblue" stroke="midnightblue" points="677.37,-117.16 668.87,-123.48 679.45,-123.84 677.37,-117.16"/>
</g>
<!-- Node10 -->
<g id="node10" class="node">
<title>Node10</title>
<g id="a_node10"><a xlink:href="led__blinker_8cpp.html" target="_top" xlink:title=" ">
<polygon fill="white" stroke="black" points="908.5,-62 908.5,-81 1042.5,-81 1042.5,-62 908.5,-62"/>
<text text-anchor="middle" x="975.5" y="-69" font-family="Helvetica,sans-Serif" font-size="10.00">src/system/led_blinker.cpp</text>
</a>
</g>
</g>
<!-- Node1&#45;&gt;Node10 -->
<g id="edge9" class="edge">
<title>Node1&#45;&gt;Node10</title>
<path fill="none" stroke="midnightblue" d="M702.08,-121.71C754.4,-112.76 831.99,-99.33 899.5,-87 909.81,-85.12 920.89,-83.04 931.32,-81.05"/>
<polygon fill="midnightblue" stroke="midnightblue" points="701.24,-118.31 691.97,-123.44 702.41,-125.21 701.24,-118.31"/>
</g>
<!-- Node11 -->
<g id="node11" class="node">
<title>Node11</title>
<g id="a_node11"><a xlink:href="wiring__helpers_8cpp.html" target="_top" xlink:title=" ">
<polygon fill="white" stroke="black" points="1052.5,-0.5 1052.5,-19.5 1168.5,-19.5 1168.5,-0.5 1052.5,-0.5"/>
<text text-anchor="middle" x="1110.5" y="-7.5" font-family="Helvetica,sans-Serif" font-size="10.00">src/wiring_helpers.cpp</text>
</a>
</g>
</g>
<!-- Node1&#45;&gt;Node11 -->
<g id="edge10" class="edge">
<title>Node1&#45;&gt;Node11</title>
<path fill="none" stroke="midnightblue" d="M701.86,-131.08C800.97,-128.64 993.03,-119.71 1051.5,-87 1079.49,-71.34 1098.68,-36.42 1106.53,-19.94"/>
<polygon fill="midnightblue" stroke="midnightblue" points="701.62,-127.59 691.7,-131.32 701.78,-134.59 701.62,-127.59"/>
</g>
<!-- Node12 -->
<g id="node12" class="node">
<title>Node12</title>
<g id="a_node12"><a xlink:href="wiring__helpers_8h.html" target="_top" xlink:title=" ">
<polygon fill="white" stroke="black" points="1099,-62 1099,-81 1204,-81 1204,-62 1099,-62"/>
<text text-anchor="middle" x="1151.5" y="-69" font-family="Helvetica,sans-Serif" font-size="10.00">src/wiring_helpers.h</text>
</a>
</g>
</g>
<!-- Node1&#45;&gt;Node12 -->
<g id="edge11" class="edge">
<title>Node1&#45;&gt;Node12</title>
<path fill="none" stroke="midnightblue" d="M701.6,-128.04C787.05,-121.92 948.4,-108.57 1084.5,-87 1094.61,-85.4 1105.49,-83.24 1115.48,-81.07"/>
<polygon fill="midnightblue" stroke="midnightblue" points="701.29,-124.55 691.56,-128.75 701.78,-131.53 701.29,-124.55"/>
</g>
<!-- Node6 -->
<g id="node6" class="node">
<title>Node6</title>
<g id="a_node6"><a xlink:href="main_8cpp.html" target="_top" xlink:title=" ">
<polygon fill="white" stroke="black" points="390,-0.5 390,-19.5 463,-19.5 463,-0.5 390,-0.5"/>
<text text-anchor="middle" x="426.5" y="-7.5" font-family="Helvetica,sans-Serif" font-size="10.00">src/main.cpp</text>
</a>
</g>
</g>
<!-- Node5&#45;&gt;Node6 -->
<g id="edge5" class="edge">
<title>Node5&#45;&gt;Node6</title>
<path fill="none" stroke="midnightblue" d="M426.5,-51.82C426.5,-41 426.5,-27.9 426.5,-19.51"/>
<polygon fill="midnightblue" stroke="midnightblue" points="423,-51.98 426.5,-61.98 430,-51.98 423,-51.98"/>
</g>
<!-- Node12&#45;&gt;Node11 -->
<g id="edge12" class="edge">
<title>Node12&#45;&gt;Node11</title>
<path fill="none" stroke="midnightblue" d="M1139.79,-53.51C1132.13,-42.39 1122.45,-28.34 1116.36,-19.51"/>
<polygon fill="midnightblue" stroke="midnightblue" points="1137.07,-55.73 1145.63,-61.98 1142.83,-51.75 1137.07,-55.73"/>
</g>
</g>
</svg>
        <g id="navigator" transform="translate(0 0)" fill="#404254">
                <rect fill="#f2f5e9" fill-opacity="0.5" stroke="#606060" stroke-width=".5" x="0" y="0" width="60" height="60"/>
                <use id="zoomplus" xlink:href="#zoomPlus" x="17" y="9" onmousedown="handleZoom(evt,'in')"/>
                <use id="zoomminus" xlink:href="#zoomMin" x="42" y="9" onmousedown="handleZoom(evt,'out')"/>
                <use id="reset" xlink:href="#resetDef" x="30" y="36" onmousedown="handleReset()"/>
                <g id="arrowUp" xlink:href="#dirArrow" transform="translate(30 24)" onmousedown="handlePan(0,-1)">
                  <use xlink:href="#rim" fill="#404040">
                        <set attributeName="fill" to="#808080" begin="arrowUp.mouseover" end="arrowUp.mouseout"/>
                  </use>
                  <path fill="none" stroke="white" stroke-width="1.5" d="M0,-3.0v7 M-2.5,-0.5L0,-3.0L2.5,-0.5"/>
                </g>
                <g id="arrowRight" xlink:href="#dirArrow" transform="rotate(90) translate(36 -43)" onmousedown="handlePan(1,0)">
                  <use xlink:href="#rim" fill="#404040">
                        <set attributeName="fill" to="#808080" begin="arrowRight.mouseover" end="arrowRight.mouseout"/>
                  </use>
                  <path fill="none" stroke="white" stroke-width="1.5" d="M0,-3.0v7 M-2.5,-0.5L0,-3.0L2.5,-0.5"/>
                </g>
                <g id="arrowDown" xlink:href="#dirArrow" transform="rotate(180) translate(-30 -48)" onmousedown="handlePan(0,1)">
                  <use xlink:href="#rim" fill="#404040">
                        <set attributeName="fill" to="#808080" begin="arrowDown.mouseover" end="arrowDown.mouseout"/>
                  </use>
                  <path fill="none" stroke="white" stroke-width="1.5" d="M0,-3.0v7 M-2.5,-0.5L0,-3.0L2.5,-0.5"/>
                </g>
                <g id="arrowLeft" xlink:href="#dirArrow" transform="rotate(270) translate(-36 17)" onmousedown="handlePan(-1,0)">
                  <use xlink:href="#rim" fill="#404040">
                        <set attributeName="fill" to="#808080" begin="arrowLeft.mouseover" end="arrowLeft.mouseout"/>
                  </use>
                  <path fill="none" stroke="white" stroke-width="1.5" d="M0,-3.0v7 M-2.5,-0.5L0,-3.0L2.5,-0.5"/>
                </g>
        </g>
        <svg viewBox="0 0 15 15" width="100%" height="30px" preserveAspectRatio="xMaxYMin meet">
         <g id="arrow_out" transform="scale(0.3 0.3)">
          <a xlink:href="sensesp__app_8h__dep__incl_org.svg" target="_base">
           <rect id="button" ry="5" rx="5" y="6" x="6" height="38" width="38"
                fill="#f2f5e9" fill-opacity="0.5" stroke="#606060" stroke-width="1.0"/>
           <path id="arrow"
             d="M 11.500037,31.436501 C 11.940474,20.09759 22.043105,11.32322 32.158766,21.979434 L 37.068811,17.246167 C 37.068811,17.246167 37.088388,32 37.088388,32 L 22.160133,31.978069 C 22.160133,31.978069 26.997745,27.140456 26.997745,27.140456 C 18.528582,18.264221 13.291696,25.230495 11.500037,31.436501 z"
             style="fill:#404040;"/>
          </a>
         </g>
        </svg>
</svg>
