<?xml version="1.0" encoding="UTF-8" standalone="no"?>
<!DOCTYPE svg PUBLIC "-//W3C//DTD SVG 1.1//EN"
 "http://www.w3.org/Graphics/SVG/1.1/DTD/svg11.dtd">
<!-- Generated by graphviz version 14.1.4 (20260321.0153)
 -->
<!-- Title: src/sensesp/sensors/sensor.h Pages: 1 -->
<svg width="1010pt" height="492pt"
 viewBox="0.00 0.00 1010.00 492.00" xmlns="http://www.w3.org/2000/svg" xmlns:xlink="http://www.w3.org/1999/xlink">
<g id="graph0" class="graph" transform="scale(1 1) rotate(0) translate(4 487.75)">
<title>src/sensesp/sensors/sensor.h</title>
<!-- Node1 -->
<g id="Node000001" class="node">
<title>Node1</title>
<g id="a_Node000001"><a xlink:title=" ">
<polygon fill="#999999" stroke="#666666" points="705,-483.75 598.25,-483.75 598.25,-453.25 705,-453.25 705,-483.75"/>
<text xml:space="preserve" text-anchor="start" x="606.25" y="-470.25" font-family="Helvetica,sans-Serif" font-size="10.00">src/sensesp/sensors</text>
<text xml:space="preserve" text-anchor="middle" x="651.62" y="-459" font-family="Helvetica,sans-Serif" font-size="10.00">/sensor.h</text>
</a>
</g>
</g>
<!-- Node2 -->
<g id="Node000002" class="node">
<title>Node2</title>
<g id="a_Node000002"><a xlink:title=" ">
<polygon fill="#e0e0e0" stroke="#999999" points="390.25,-19.25 333,-19.25 333,0 390.25,0 390.25,-19.25"/>
<text xml:space="preserve" text-anchor="middle" x="361.62" y="-5.75" font-family="Helvetica,sans-Serif" font-size="10.00">Arduino.h</text>
</a>
</g>
</g>
<!-- Node1&#45;&gt;Node2 -->
<g id="edge1_Node000001_Node000002" class="edge">
<title>Node1&#45;&gt;Node2</title>
<g id="a_edge1_Node000001_Node000002"><a xlink:title=" ">
<path fill="none" stroke="#63b8ff" d="M705.37,-457.96C789.95,-441.39 944.62,-404.14 944.62,-353.38 944.62,-353.38 944.62,-353.38 944.62,-130.38 944.62,-19.29 533.37,-10.33 401.68,-10.31"/>
<polygon fill="#63b8ff" stroke="#63b8ff" points="402.04,-6.81 392.05,-10.33 402.06,-13.81 402.04,-6.81"/>
</a>
</g>
</g>
<!-- Node3 -->
<g id="Node000003" class="node">
<title>Node3</title>
<g id="a_Node000003"><a xlink:title=" ">
<polygon fill="#e0e0e0" stroke="#999999" points="1002.38,-417.25 972.88,-417.25 972.88,-398 1002.38,-398 1002.38,-417.25"/>
<text xml:space="preserve" text-anchor="middle" x="987.62" y="-403.75" font-family="Helvetica,sans-Serif" font-size="10.00">set</text>
</a>
</g>
</g>
<!-- Node1&#45;&gt;Node3 -->
<g id="edge2_Node000001_Node000003" class="edge">
<title>Node1&#45;&gt;Node3</title>
<g id="a_edge2_Node000001_Node000003"><a xlink:title=" ">
<path fill="none" stroke="#63b8ff" d="M705.27,-460.82C766.86,-452.67 870.72,-437.43 958.62,-417.25 959.63,-417.02 960.66,-416.77 961.69,-416.51"/>
<polygon fill="#63b8ff" stroke="#63b8ff" points="962.51,-419.92 971.21,-413.87 960.64,-413.17 962.51,-419.92"/>
</a>
</g>
</g>
<!-- Node4 -->
<g id="Node000004" class="node">
<title>Node4</title>
<g id="a_Node000004"><a xlink:title=" ">
<polygon fill="#e0e0e0" stroke="#999999" points="69.25,-80.12 0,-80.12 0,-60.88 69.25,-60.88 69.25,-80.12"/>
<text xml:space="preserve" text-anchor="middle" x="34.62" y="-66.62" font-family="Helvetica,sans-Serif" font-size="10.00">ReactESP.h</text>
</a>
</g>
</g>
<!-- Node1&#45;&gt;Node4 -->
<g id="edge3_Node000001_Node000004" class="edge">
<title>Node1&#45;&gt;Node4</title>
<g id="a_edge3_Node000001_Node000004"><a xlink:title=" ">
<path fill="none" stroke="#63b8ff" d="M597.83,-463.63C443.05,-451.78 7.62,-413.13 7.62,-353.38 7.62,-353.38 7.62,-353.38 7.62,-185.62 7.62,-151.78 19.01,-113.77 26.99,-91.28"/>
<polygon fill="#63b8ff" stroke="#63b8ff" points="30.27,-92.51 30.46,-81.92 23.7,-90.08 30.27,-92.51"/>
</a>
</g>
</g>
<!-- Node5 -->
<g id="Node000005" class="node">
<title>Node5</title>
<g id="a_Node000005"><a xlink:href="observable_8h.html" target="_top" xlink:title=" ">
<polygon fill="white" stroke="#666666" points="866.88,-251.5 720.38,-251.5 720.38,-232.25 866.88,-232.25 866.88,-251.5"/>
<text xml:space="preserve" text-anchor="middle" x="793.62" y="-238" font-family="Helvetica,sans-Serif" font-size="10.00">sensesp/system/observable.h</text>
</a>
</g>
</g>
<!-- Node1&#45;&gt;Node5 -->
<g id="edge4_Node000001_Node000005" class="edge">
<title>Node1&#45;&gt;Node5</title>
<g id="a_edge4_Node000001_Node000005"><a xlink:title=" ">
<path fill="none" stroke="#63b8ff" d="M663.37,-453.1C685.32,-425.76 733.27,-363.92 765.62,-306.75 773.75,-292.39 781.16,-275.22 786.31,-262.3"/>
<polygon fill="#63b8ff" stroke="#63b8ff" points="789.47,-263.83 789.82,-253.24 782.95,-261.3 789.47,-263.83"/>
</a>
</g>
</g>
<!-- Node9 -->
<g id="Node000009" class="node">
<title>Node9</title>
<g id="a_Node000009"><a xlink:href="saveable_8h.html" target="_top" xlink:title=" ">
<polygon fill="white" stroke="#666666" points="542.75,-251.5 404.5,-251.5 404.5,-232.25 542.75,-232.25 542.75,-251.5"/>
<text xml:space="preserve" text-anchor="middle" x="473.62" y="-238" font-family="Helvetica,sans-Serif" font-size="10.00">sensesp/system/saveable.h</text>
</a>
</g>
</g>
<!-- Node1&#45;&gt;Node9 -->
<g id="edge8_Node000001_Node000009" class="edge">
<title>Node1&#45;&gt;Node9</title>
<g id="a_edge8_Node000001_Node000009"><a xlink:title=" ">
<path fill="none" stroke="#63b8ff" d="M639.95,-452.76C608.44,-413 521.79,-303.66 487.68,-260.61"/>
<polygon fill="#63b8ff" stroke="#63b8ff" points="490.44,-258.46 481.49,-252.8 484.96,-262.81 490.44,-258.46"/>
</a>
</g>
</g>
<!-- Node17 -->
<g id="Node000017" class="node">
<title>Node17</title>
<g id="a_Node000017"><a xlink:href="valueproducer_8h.html" target="_top" xlink:title=" ">
<polygon fill="white" stroke="#666666" points="731.25,-306.75 572,-306.75 572,-287.5 731.25,-287.5 731.25,-306.75"/>
<text xml:space="preserve" text-anchor="middle" x="651.62" y="-293.25" font-family="Helvetica,sans-Serif" font-size="10.00">sensesp/system/valueproducer.h</text>
</a>
</g>
</g>
<!-- Node1&#45;&gt;Node17 -->
<g id="edge22_Node000001_Node000017" class="edge">
<title>Node1&#45;&gt;Node17</title>
<g id="a_edge22_Node000001_Node000017"><a xlink:title=" ">
<path fill="none" stroke="#63b8ff" d="M651.62,-452.77C651.62,-422.51 651.62,-353.3 651.62,-318.66"/>
<polygon fill="#63b8ff" stroke="#63b8ff" points="655.13,-318.75 651.63,-308.75 648.13,-318.75 655.13,-318.75"/>
</a>
</g>
</g>
<!-- Node20 -->
<g id="Node000020" class="node">
<title>Node20</title>
<g id="a_Node000020"><a xlink:href="sensesp__base__app_8h.html" target="_top" xlink:title=" ">
<polygon fill="white" stroke="#666666" points="327.75,-417.25 219.5,-417.25 219.5,-398 327.75,-398 327.75,-417.25"/>
<text xml:space="preserve" text-anchor="middle" x="273.62" y="-403.75" font-family="Helvetica,sans-Serif" font-size="10.00">sensesp_base_app.h</text>
</a>
</g>
</g>
<!-- Node1&#45;&gt;Node20 -->
<g id="edge30_Node000001_Node000020" class="edge">
<title>Node1&#45;&gt;Node20</title>
<g id="a_edge30_Node000001_Node000020"><a xlink:title=" ">
<path fill="none" stroke="#63b8ff" d="M597.87,-459.13C529.86,-448.53 412.8,-430.3 339.49,-418.88"/>
<polygon fill="#63b8ff" stroke="#63b8ff" points="340.03,-415.43 329.61,-417.35 338.95,-422.34 340.03,-415.43"/>
</a>
</g>
</g>
<!-- Node6 -->
<g id="Node000006" class="node">
<title>Node6</title>
<g id="a_Node000006"><a xlink:title=" ">
<polygon fill="#e0e0e0" stroke="#999999" points="916.75,-196.25 850.5,-196.25 850.5,-177 916.75,-177 916.75,-196.25"/>
<text xml:space="preserve" text-anchor="middle" x="883.62" y="-182.75" font-family="Helvetica,sans-Serif" font-size="10.00">forward_list</text>
</a>
</g>
</g>
<!-- Node5&#45;&gt;Node6 -->
<g id="edge5_Node000005_Node000006" class="edge">
<title>Node5&#45;&gt;Node6</title>
<g id="a_edge5_Node000005_Node000006"><a xlink:title=" ">
<path fill="none" stroke="#63b8ff" d="M808.89,-231.84C822.47,-223.81 842.58,-211.91 858.52,-202.48"/>
<polygon fill="#63b8ff" stroke="#63b8ff" points="860.16,-205.58 866.98,-197.47 856.59,-199.55 860.16,-205.58"/>
</a>
</g>
</g>
<!-- Node7 -->
<g id="Node000007" class="node">
<title>Node7</title>
<g id="a_Node000007"><a xlink:title=" ">
<polygon fill="#e0e0e0" stroke="#999999" points="832.62,-196.25 774.62,-196.25 774.62,-177 832.62,-177 832.62,-196.25"/>
<text xml:space="preserve" text-anchor="middle" x="803.62" y="-182.75" font-family="Helvetica,sans-Serif" font-size="10.00">functional</text>
</a>
</g>
</g>
<!-- Node5&#45;&gt;Node7 -->
<g id="edge6_Node000005_Node000007" class="edge">
<title>Node5&#45;&gt;Node7</title>
<g id="a_edge6_Node000005_Node000007"><a xlink:title=" ">
<path fill="none" stroke="#63b8ff" d="M795.28,-232.08C796.51,-225.49 798.26,-216.21 799.83,-207.82"/>
<polygon fill="#63b8ff" stroke="#63b8ff" points="803.25,-208.57 801.66,-198.1 796.37,-207.28 803.25,-208.57"/>
</a>
</g>
</g>
<!-- Node8 -->
<g id="Node000008" class="node">
<title>Node8</title>
<g id="a_Node000008"><a xlink:title=" ">
<polygon fill="#e0e0e0" stroke="#999999" points="756.12,-196.25 713.12,-196.25 713.12,-177 756.12,-177 756.12,-196.25"/>
<text xml:space="preserve" text-anchor="middle" x="734.62" y="-182.75" font-family="Helvetica,sans-Serif" font-size="10.00">vector</text>
</a>
</g>
</g>
<!-- Node5&#45;&gt;Node8 -->
<g id="edge7_Node000005_Node000008" class="edge">
<title>Node5&#45;&gt;Node8</title>
<g id="a_edge7_Node000005_Node000008"><a xlink:title=" ">
<path fill="none" stroke="#63b8ff" d="M783.62,-231.84C775.26,-224.3 763.13,-213.35 753.02,-204.23"/>
<polygon fill="#63b8ff" stroke="#63b8ff" points="755.38,-201.64 745.61,-197.54 750.69,-206.84 755.38,-201.64"/>
</a>
</g>
</g>
<!-- Node9&#45;&gt;Node2 -->
<g id="edge17_Node000009_Node000002" class="edge">
<title>Node9&#45;&gt;Node2</title>
<g id="a_edge17_Node000009_Node000002"><a xlink:title=" ">
<path fill="none" stroke="#63b8ff" d="M534.61,-231.83C555.6,-225.48 576.98,-214.66 589.62,-196.25 602.48,-177.53 586.04,-137.93 572.62,-121.75 527.49,-67.31 448.65,-36.05 401.18,-21.27"/>
<polygon fill="#63b8ff" stroke="#63b8ff" points="402.43,-17.99 391.85,-18.46 400.42,-24.69 402.43,-17.99"/>
</a>
</g>
</g>
<!-- Node10 -->
<g id="Node000010" class="node">
<title>Node10</title>
<g id="a_Node000010"><a xlink:href="sensesp_8h.html" target="_top" xlink:title=" ">
<polygon fill="white" stroke="#666666" points="271.12,-141 210.12,-141 210.12,-121.75 271.12,-121.75 271.12,-141"/>
<text xml:space="preserve" text-anchor="middle" x="240.62" y="-127.5" font-family="Helvetica,sans-Serif" font-size="10.00">sensesp.h</text>
</a>
</g>
</g>
<!-- Node9&#45;&gt;Node10 -->
<g id="edge9_Node000009_Node000010" class="edge">
<title>Node9&#45;&gt;Node10</title>
<g id="a_edge9_Node000009_Node000010"><a xlink:title=" ">
<path fill="none" stroke="#63b8ff" d="M418.35,-231.8C386.41,-225.04 346.23,-213.87 313.62,-196.25 291.05,-184.05 269.49,-163.74 255.73,-149.3"/>
<polygon fill="#63b8ff" stroke="#63b8ff" points="258.62,-147.27 249.26,-142.31 253.48,-152.03 258.62,-147.27"/>
</a>
</g>
</g>
<!-- Node15 -->
<g id="Node000015" class="node">
<title>Node15</title>
<g id="a_Node000015"><a xlink:title=" ">
<polygon fill="#e0e0e0" stroke="#999999" points="497.75,-141 419.5,-141 419.5,-121.75 497.75,-121.75 497.75,-141"/>
<text xml:space="preserve" text-anchor="middle" x="458.62" y="-127.5" font-family="Helvetica,sans-Serif" font-size="10.00">ArduinoJson.h</text>
</a>
</g>
</g>
<!-- Node9&#45;&gt;Node15 -->
<g id="edge16_Node000009_Node000015" class="edge">
<title>Node9&#45;&gt;Node15</title>
<g id="a_edge16_Node000009_Node000015"><a xlink:title=" ">
<path fill="none" stroke="#63b8ff" d="M472.4,-232C470.01,-214.75 464.7,-176.33 461.42,-152.56"/>
<polygon fill="#63b8ff" stroke="#63b8ff" points="464.91,-152.3 460.08,-142.88 457.98,-153.26 464.91,-152.3"/>
</a>
</g>
</g>
<!-- Node16 -->
<g id="Node000016" class="node">
<title>Node16</title>
<g id="a_Node000016"><a xlink:href="serializable_8h.html" target="_top" xlink:title=" ">
<polygon fill="white" stroke="#666666" points="396.12,-196.25 323.12,-196.25 323.12,-177 396.12,-177 396.12,-196.25"/>
<text xml:space="preserve" text-anchor="middle" x="359.62" y="-182.75" font-family="Helvetica,sans-Serif" font-size="10.00">serializable.h</text>
</a>
</g>
</g>
<!-- Node9&#45;&gt;Node16 -->
<g id="edge18_Node000009_Node000016" class="edge">
<title>Node9&#45;&gt;Node16</title>
<g id="a_edge18_Node000009_Node000016"><a xlink:title=" ">
<path fill="none" stroke="#63b8ff" d="M454.29,-231.84C436.52,-223.54 409.91,-211.11 389.42,-201.54"/>
<polygon fill="#63b8ff" stroke="#63b8ff" points="390.97,-198.4 380.43,-197.34 388.01,-204.75 390.97,-198.4"/>
</a>
</g>
</g>
<!-- Node10&#45;&gt;Node4 -->
<g id="edge10_Node000010_Node000004" class="edge">
<title>Node10&#45;&gt;Node4</title>
<g id="a_edge10_Node000010_Node000004"><a xlink:title=" ">
<path fill="none" stroke="#63b8ff" d="M209.78,-121.56C174.57,-111.5 116.73,-94.97 77.23,-83.68"/>
<polygon fill="#63b8ff" stroke="#63b8ff" points="78.39,-80.37 67.81,-80.98 76.46,-87.1 78.39,-80.37"/>
</a>
</g>
</g>
<!-- Node11 -->
<g id="Node000011" class="node">
<title>Node11</title>
<g id="a_Node000011"><a xlink:title=" ">
<polygon fill="#e0e0e0" stroke="#999999" points="166.25,-80.12 115,-80.12 115,-60.88 166.25,-60.88 166.25,-80.12"/>
<text xml:space="preserve" text-anchor="middle" x="140.62" y="-66.62" font-family="Helvetica,sans-Serif" font-size="10.00">memory</text>
</a>
</g>
</g>
<!-- Node10&#45;&gt;Node11 -->
<g id="edge11_Node000010_Node000011" class="edge">
<title>Node10&#45;&gt;Node11</title>
<g id="a_edge11_Node000010_Node000011"><a xlink:title=" ">
<path fill="none" stroke="#63b8ff" d="M225.44,-121.43C209.58,-112.1 184.44,-97.3 165.65,-86.23"/>
<polygon fill="#63b8ff" stroke="#63b8ff" points="167.65,-83.35 157.26,-81.29 164.1,-89.38 167.65,-83.35"/>
</a>
</g>
</g>
<!-- Node12 -->
<g id="Node000012" class="node">
<title>Node12</title>
<g id="a_Node000012"><a xlink:href="local__debug_8h.html" target="_top" xlink:title=" ">
<polygon fill="white" stroke="#666666" points="295.25,-85.75 184,-85.75 184,-55.25 295.25,-55.25 295.25,-85.75"/>
<text xml:space="preserve" text-anchor="start" x="192" y="-72.25" font-family="Helvetica,sans-Serif" font-size="10.00">sensesp/system/local</text>
<text xml:space="preserve" text-anchor="middle" x="239.62" y="-61" font-family="Helvetica,sans-Serif" font-size="10.00">_debug.h</text>
</a>
</g>
</g>
<!-- Node10&#45;&gt;Node12 -->
<g id="edge12_Node000010_Node000012" class="edge">
<title>Node10&#45;&gt;Node12</title>
<g id="a_edge12_Node000010_Node000012"><a xlink:title=" ">
<path fill="none" stroke="#63b8ff" d="M240.47,-121.43C240.36,-114.98 240.21,-105.91 240.06,-97.26"/>
<polygon fill="#63b8ff" stroke="#63b8ff" points="243.57,-97.48 239.9,-87.55 236.57,-97.6 243.57,-97.48"/>
</a>
</g>
</g>
<!-- Node12&#45;&gt;Node2 -->
<g id="edge14_Node000012_Node000002" class="edge">
<title>Node12&#45;&gt;Node2</title>
<g id="a_edge14_Node000012_Node000002"><a xlink:title=" ">
<path fill="none" stroke="#63b8ff" d="M270.1,-54.8C289.21,-45.57 313.72,-33.75 332.56,-24.65"/>
<polygon fill="#63b8ff" stroke="#63b8ff" points="334.07,-27.81 341.55,-20.31 331.02,-21.51 334.07,-27.81"/>
</a>
</g>
</g>
<!-- Node13 -->
<g id="Node000013" class="node">
<title>Node13</title>
<g id="a_Node000013"><a xlink:title=" ">
<polygon fill="#e0e0e0" stroke="#999999" points="226.62,-19.25 144.62,-19.25 144.62,0 226.62,0 226.62,-19.25"/>
<text xml:space="preserve" text-anchor="middle" x="185.62" y="-5.75" font-family="Helvetica,sans-Serif" font-size="10.00">esp32&#45;hal&#45;log.h</text>
</a>
</g>
</g>
<!-- Node12&#45;&gt;Node13 -->
<g id="edge13_Node000012_Node000013" class="edge">
<title>Node12&#45;&gt;Node13</title>
<g id="a_edge13_Node000012_Node000013"><a xlink:title=" ">
<path fill="none" stroke="#63b8ff" d="M226.28,-54.95C218.85,-46.84 209.54,-36.7 201.71,-28.16"/>
<polygon fill="#63b8ff" stroke="#63b8ff" points="204.31,-25.82 194.97,-20.82 199.15,-30.55 204.31,-25.82"/>
</a>
</g>
</g>
<!-- Node14 -->
<g id="Node000014" class="node">
<title>Node14</title>
<g id="a_Node000014"><a xlink:title=" ">
<polygon fill="#e0e0e0" stroke="#999999" points="288.88,-19.25 244.38,-19.25 244.38,0 288.88,0 288.88,-19.25"/>
<text xml:space="preserve" text-anchor="middle" x="266.62" y="-5.75" font-family="Helvetica,sans-Serif" font-size="10.00">Print.h</text>
</a>
</g>
</g>
<!-- Node12&#45;&gt;Node14 -->
<g id="edge15_Node000012_Node000014" class="edge">
<title>Node12&#45;&gt;Node14</title>
<g id="a_edge15_Node000012_Node000014"><a xlink:title=" ">
<path fill="none" stroke="#63b8ff" d="M246.3,-54.95C249.74,-47.45 253.98,-38.2 257.7,-30.1"/>
<polygon fill="#63b8ff" stroke="#63b8ff" points="260.84,-31.63 261.83,-21.08 254.48,-28.71 260.84,-31.63"/>
</a>
</g>
</g>
<!-- Node16&#45;&gt;Node2 -->
<g id="edge21_Node000016_Node000002" class="edge">
<title>Node16&#45;&gt;Node2</title>
<g id="a_edge21_Node000016_Node000002"><a xlink:title=" ">
<path fill="none" stroke="#63b8ff" d="M359.73,-176.71C360.03,-149.8 360.96,-68.94 361.39,-30.87"/>
<polygon fill="#63b8ff" stroke="#63b8ff" points="364.89,-31.29 361.5,-21.25 357.89,-31.21 364.89,-31.29"/>
</a>
</g>
</g>
<!-- Node16&#45;&gt;Node10 -->
<g id="edge19_Node000016_Node000010" class="edge">
<title>Node16&#45;&gt;Node10</title>
<g id="a_edge19_Node000016_Node000010"><a xlink:title=" ">
<path fill="none" stroke="#63b8ff" d="M339.44,-176.59C320.72,-168.22 292.6,-155.63 271.14,-146.03"/>
<polygon fill="#63b8ff" stroke="#63b8ff" points="272.85,-142.96 262.29,-142.07 269.99,-149.35 272.85,-142.96"/>
</a>
</g>
</g>
<!-- Node16&#45;&gt;Node15 -->
<g id="edge20_Node000016_Node000015" class="edge">
<title>Node16&#45;&gt;Node15</title>
<g id="a_edge20_Node000016_Node000015"><a xlink:title=" ">
<path fill="none" stroke="#63b8ff" d="M376.42,-176.59C391.64,-168.41 414.32,-156.21 432.01,-146.69"/>
<polygon fill="#63b8ff" stroke="#63b8ff" points="433.27,-149.99 440.42,-142.17 429.95,-143.82 433.27,-149.99"/>
</a>
</g>
</g>
<!-- Node17&#45;&gt;Node5 -->
<g id="edge25_Node000017_Node000005" class="edge">
<title>Node17&#45;&gt;Node5</title>
<g id="a_edge25_Node000017_Node000005"><a xlink:title=" ">
<path fill="none" stroke="#63b8ff" d="M675.71,-287.09C698.56,-278.52 733.14,-265.56 758.95,-255.88"/>
<polygon fill="#63b8ff" stroke="#63b8ff" points="759.87,-259.27 768,-252.48 757.41,-252.72 759.87,-259.27"/>
</a>
</g>
</g>
<!-- Node17&#45;&gt;Node11 -->
<g id="edge24_Node000017_Node000011" class="edge">
<title>Node17&#45;&gt;Node11</title>
<g id="a_edge24_Node000017_Node000011"><a xlink:title=" ">
<path fill="none" stroke="#63b8ff" d="M652.44,-287.19C653.28,-274.6 653.73,-251.06 647.62,-232.25 629.31,-175.79 624.22,-151.1 572.62,-121.75 495.43,-77.84 260.81,-107.16 174.62,-85.75 173.03,-85.35 171.42,-84.9 169.8,-84.39"/>
<polygon fill="#63b8ff" stroke="#63b8ff" points="171.35,-81.23 160.76,-81.07 168.94,-87.8 171.35,-81.23"/>
</a>
</g>
</g>
<!-- Node17&#45;&gt;Node15 -->
<g id="edge23_Node000017_Node000015" class="edge">
<title>Node17&#45;&gt;Node15</title>
<g id="a_edge23_Node000017_Node000015"><a xlink:title=" ">
<path fill="none" stroke="#63b8ff" d="M649.46,-287.21C643.65,-265.23 625.71,-207.99 589.62,-177 576.7,-165.9 537.91,-153.41 505.87,-144.47"/>
<polygon fill="#63b8ff" stroke="#63b8ff" points="506.9,-141.12 496.33,-141.86 505.05,-147.88 506.9,-141.12"/>
</a>
</g>
</g>
<!-- Node18 -->
<g id="Node000018" class="node">
<title>Node18</title>
<g id="a_Node000018"><a xlink:href="valueconsumer_8h.html" target="_top" xlink:title=" ">
<polygon fill="white" stroke="#666666" points="580.38,-196.25 490.88,-196.25 490.88,-177 580.38,-177 580.38,-196.25"/>
<text xml:space="preserve" text-anchor="middle" x="535.62" y="-182.75" font-family="Helvetica,sans-Serif" font-size="10.00">valueconsumer.h</text>
</a>
</g>
</g>
<!-- Node17&#45;&gt;Node18 -->
<g id="edge26_Node000017_Node000018" class="edge">
<title>Node17&#45;&gt;Node18</title>
<g id="a_edge26_Node000017_Node000018"><a xlink:title=" ">
<path fill="none" stroke="#63b8ff" d="M638.93,-287.1C627.05,-278.45 609.04,-264.79 594.62,-251.5 578.72,-236.85 562.15,-218.59 550.63,-205.36"/>
<polygon fill="#63b8ff" stroke="#63b8ff" points="553.37,-203.18 544.2,-197.88 548.06,-207.74 553.37,-203.18"/>
</a>
</g>
</g>
<!-- Node18&#45;&gt;Node10 -->
<g id="edge27_Node000018_Node000010" class="edge">
<title>Node18&#45;&gt;Node10</title>
<g id="a_edge27_Node000018_Node000010"><a xlink:title=" ">
<path fill="none" stroke="#63b8ff" d="M490.5,-177.48C433.84,-167.25 337.42,-149.85 282.39,-139.91"/>
<polygon fill="#63b8ff" stroke="#63b8ff" points="283.26,-136.51 272.79,-138.18 282.01,-143.4 283.26,-136.51"/>
</a>
</g>
</g>
<!-- Node18&#45;&gt;Node15 -->
<g id="edge28_Node000018_Node000015" class="edge">
<title>Node18&#45;&gt;Node15</title>
<g id="a_edge28_Node000018_Node000015"><a xlink:title=" ">
<path fill="none" stroke="#63b8ff" d="M522.56,-176.59C511.17,-168.71 494.4,-157.11 480.89,-147.77"/>
<polygon fill="#63b8ff" stroke="#63b8ff" points="483.21,-145.12 473,-142.31 479.23,-150.88 483.21,-145.12"/>
</a>
</g>
</g>
<!-- Node19 -->
<g id="Node000019" class="node">
<title>Node19</title>
<g id="a_Node000019"><a xlink:title=" ">
<polygon fill="#e0e0e0" stroke="#999999" points="563.75,-141 515.5,-141 515.5,-121.75 563.75,-121.75 563.75,-141"/>
<text xml:space="preserve" text-anchor="middle" x="539.62" y="-127.5" font-family="Helvetica,sans-Serif" font-size="10.00">stdint.h</text>
</a>
</g>
</g>
<!-- Node18&#45;&gt;Node19 -->
<g id="edge29_Node000018_Node000019" class="edge">
<title>Node18&#45;&gt;Node19</title>
<g id="a_edge29_Node000018_Node000019"><a xlink:title=" ">
<path fill="none" stroke="#63b8ff" d="M536.29,-176.83C536.78,-170.24 537.48,-160.96 538.11,-152.57"/>
<polygon fill="#63b8ff" stroke="#63b8ff" points="541.58,-153.1 538.84,-142.87 534.6,-152.58 541.58,-153.1"/>
</a>
</g>
</g>
<!-- Node20&#45;&gt;Node10 -->
<g id="edge31_Node000020_Node000010" class="edge">
<title>Node20&#45;&gt;Node10</title>
<g id="a_edge31_Node000020_Node000010"><a xlink:title=" ">
<path fill="none" stroke="#63b8ff" d="M219.21,-402.62C163.91,-397.28 83.73,-385.62 64.62,-362 28.35,-317.17 35.61,-282.08 64.62,-232.25 93.35,-182.92 156.51,-155.98 198.82,-142.87"/>
<polygon fill="#63b8ff" stroke="#63b8ff" points="199.58,-146.3 208.18,-140.11 197.59,-139.59 199.58,-146.3"/>
</a>
</g>
</g>
<!-- Node20&#45;&gt;Node11 -->
<g id="edge32_Node000020_Node000011" class="edge">
<title>Node20&#45;&gt;Node11</title>
<g id="a_edge32_Node000020_Node000011"><a xlink:title=" ">
<path fill="none" stroke="#63b8ff" d="M267,-397.52C246.76,-369.23 185.24,-279.77 154.62,-196.25 145.91,-172.47 143.76,-166.14 140.62,-141 138.57,-124.5 138.72,-105.62 139.31,-91.71"/>
<polygon fill="#63b8ff" stroke="#63b8ff" points="142.79,-92.23 139.83,-82.05 135.8,-91.85 142.79,-92.23"/>
</a>
</g>
</g>
<!-- Node21 -->
<g id="Node000021" class="node">
<title>Node21</title>
<g id="a_Node000021"><a xlink:title=" ">
<polygon fill="#e0e0e0" stroke="#999999" points="331.62,-362 273.62,-362 273.62,-342.75 331.62,-342.75 331.62,-362"/>
<text xml:space="preserve" text-anchor="middle" x="302.62" y="-348.5" font-family="Helvetica,sans-Serif" font-size="10.00">esp_log.h</text>
</a>
</g>
</g>
<!-- Node20&#45;&gt;Node21 -->
<g id="edge33_Node000020_Node000021" class="edge">
<title>Node20&#45;&gt;Node21</title>
<g id="a_edge33_Node000020_Node000021"><a xlink:title=" ">
<path fill="none" stroke="#63b8ff" d="M278.41,-397.83C282.17,-390.94 287.53,-381.09 292.26,-372.41"/>
<polygon fill="#63b8ff" stroke="#63b8ff" points="295.3,-374.14 297.01,-363.69 289.15,-370.8 295.3,-374.14"/>
</a>
</g>
</g>
<!-- Node22 -->
<g id="Node000022" class="node">
<title>Node22</title>
<g id="a_Node000022"><a xlink:href="filesystem_8h.html" target="_top" xlink:title=" ">
<polygon fill="white" stroke="#666666" points="217.75,-362 73.5,-362 73.5,-342.75 217.75,-342.75 217.75,-362"/>
<text xml:space="preserve" text-anchor="middle" x="145.62" y="-348.5" font-family="Helvetica,sans-Serif" font-size="10.00">sensesp/system/filesystem.h</text>
</a>
</g>
</g>
<!-- Node20&#45;&gt;Node22 -->
<g id="edge34_Node000020_Node000022" class="edge">
<title>Node20&#45;&gt;Node22</title>
<g id="a_edge34_Node000020_Node000022"><a xlink:title=" ">
<path fill="none" stroke="#63b8ff" d="M251.91,-397.59C231.59,-389.14 200.98,-376.4 177.82,-366.77"/>
<polygon fill="#63b8ff" stroke="#63b8ff" points="179.42,-363.64 168.84,-363.03 176.73,-370.11 179.42,-363.64"/>
</a>
</g>
</g>
<!-- Node25 -->
<g id="Node000025" class="node">
<title>Node25</title>
<g id="a_Node000025"><a xlink:href="observablevalue_8h.html" target="_top" xlink:title=" ">
<polygon fill="white" stroke="#666666" points="519.5,-362 349.75,-362 349.75,-342.75 519.5,-342.75 519.5,-362"/>
<text xml:space="preserve" text-anchor="middle" x="434.62" y="-348.5" font-family="Helvetica,sans-Serif" font-size="10.00">sensesp/system/observablevalue.h</text>
</a>
</g>
</g>
<!-- Node20&#45;&gt;Node25 -->
<g id="edge37_Node000020_Node000025" class="edge">
<title>Node20&#45;&gt;Node25</title>
<g id="a_edge37_Node000020_Node000025"><a xlink:title=" ">
<path fill="none" stroke="#63b8ff" d="M300.94,-397.59C327.19,-388.91 367.1,-375.71 396.48,-365.99"/>
<polygon fill="#63b8ff" stroke="#63b8ff" points="397.35,-369.39 405.74,-362.93 395.15,-362.74 397.35,-369.39"/>
</a>
</g>
</g>
<!-- Node23 -->
<g id="Node000023" class="node">
<title>Node23</title>
<g id="a_Node000023"><a xlink:href="resettable_8h.html" target="_top" xlink:title=" ">
<polygon fill="white" stroke="#666666" points="160.12,-306.75 93.12,-306.75 93.12,-287.5 160.12,-287.5 160.12,-306.75"/>
<text xml:space="preserve" text-anchor="middle" x="126.62" y="-293.25" font-family="Helvetica,sans-Serif" font-size="10.00">resettable.h</text>
</a>
</g>
</g>
<!-- Node22&#45;&gt;Node23 -->
<g id="edge35_Node000022_Node000023" class="edge">
<title>Node22&#45;&gt;Node23</title>
<g id="a_edge35_Node000022_Node000023"><a xlink:title=" ">
<path fill="none" stroke="#63b8ff" d="M142.49,-342.58C140.08,-335.84 136.67,-326.27 133.62,-317.74"/>
<polygon fill="#63b8ff" stroke="#63b8ff" points="137,-316.78 130.34,-308.53 130.4,-319.13 137,-316.78"/>
</a>
</g>
</g>
<!-- Node24 -->
<g id="Node000024" class="node">
<title>Node24</title>
<g id="a_Node000024"><a xlink:title=" ">
<polygon fill="#e0e0e0" stroke="#999999" points="115.75,-251.5 73.5,-251.5 73.5,-232.25 115.75,-232.25 115.75,-251.5"/>
<text xml:space="preserve" text-anchor="middle" x="94.62" y="-238" font-family="Helvetica,sans-Serif" font-size="10.00">queue</text>
</a>
</g>
</g>
<!-- Node23&#45;&gt;Node24 -->
<g id="edge36_Node000023_Node000024" class="edge">
<title>Node23&#45;&gt;Node24</title>
<g id="a_edge36_Node000023_Node000024"><a xlink:title=" ">
<path fill="none" stroke="#63b8ff" d="M121.34,-287.33C117.15,-280.36 111.15,-270.37 105.89,-261.62"/>
<polygon fill="#63b8ff" stroke="#63b8ff" points="108.95,-259.93 100.8,-253.16 102.95,-263.53 108.95,-259.93"/>
</a>
</g>
</g>
<!-- Node25&#45;&gt;Node5 -->
<g id="edge39_Node000025_Node000005" class="edge">
<title>Node25&#45;&gt;Node5</title>
<g id="a_edge39_Node000025_Node000005"><a xlink:title=" ">
<path fill="none" stroke="#63b8ff" d="M519.66,-345.8C596.77,-339.53 703.82,-327.41 740.62,-306.75 759.43,-296.19 774.36,-276.15 783.52,-261.32"/>
<polygon fill="#63b8ff" stroke="#63b8ff" points="786.38,-263.36 788.39,-252.96 780.33,-259.84 786.38,-263.36"/>
</a>
</g>
</g>
<!-- Node25&#45;&gt;Node9 -->
<g id="edge38_Node000025_Node000009" class="edge">
<title>Node25&#45;&gt;Node9</title>
<g id="a_edge38_Node000025_Node000009"><a xlink:title=" ">
<path fill="none" stroke="#63b8ff" d="M437.82,-342.5C444.07,-325.09 458.08,-286.12 466.6,-262.41"/>
<polygon fill="#63b8ff" stroke="#63b8ff" points="469.79,-263.9 469.88,-253.3 463.2,-261.53 469.79,-263.9"/>
</a>
</g>
</g>
<!-- Node25&#45;&gt;Node17 -->
<g id="edge48_Node000025_Node000017" class="edge">
<title>Node25&#45;&gt;Node17</title>
<g id="a_edge48_Node000025_Node000017"><a xlink:title=" ">
<path fill="none" stroke="#63b8ff" d="M471.44,-342.34C507.83,-333.41 563.71,-319.7 603.58,-309.91"/>
<polygon fill="#63b8ff" stroke="#63b8ff" points="604.29,-313.35 613.16,-307.56 602.62,-306.55 604.29,-313.35"/>
</a>
</g>
</g>
<!-- Node26 -->
<g id="Node000026" class="node">
<title>Node26</title>
<g id="a_Node000026"><a xlink:href="config__item_8h.html" target="_top" xlink:title=" ">
<polygon fill="white" stroke="#666666" points="404,-306.75 279.25,-306.75 279.25,-287.5 404,-287.5 404,-306.75"/>
<text xml:space="preserve" text-anchor="middle" x="341.62" y="-293.25" font-family="Helvetica,sans-Serif" font-size="10.00">sensesp/ui/config_item.h</text>
</a>
</g>
</g>
<!-- Node25&#45;&gt;Node26 -->
<g id="edge40_Node000025_Node000026" class="edge">
<title>Node25&#45;&gt;Node26</title>
<g id="a_edge40_Node000025_Node000026"><a xlink:title=" ">
<path fill="none" stroke="#63b8ff" d="M418.85,-342.34C404.69,-334.23 383.64,-322.18 367.1,-312.71"/>
<polygon fill="#63b8ff" stroke="#63b8ff" points="369.21,-309.89 358.79,-307.95 365.73,-315.96 369.21,-309.89"/>
</a>
</g>
</g>
<!-- Node26&#45;&gt;Node2 -->
<g id="edge45_Node000026_Node000002" class="edge">
<title>Node26&#45;&gt;Node2</title>
<g id="a_edge45_Node000026_Node000002"><a xlink:title=" ">
<path fill="none" stroke="#63b8ff" d="M338.23,-287.21C331.87,-269.96 318.36,-230.68 313.62,-196.25 305.11,-134.3 334.94,-63.32 351.42,-29.91"/>
<polygon fill="#63b8ff" stroke="#63b8ff" points="354.49,-31.59 355.92,-21.09 348.26,-28.41 354.49,-31.59"/>
</a>
</g>
</g>
<!-- Node26&#45;&gt;Node8 -->
<g id="edge43_Node000026_Node000008" class="edge">
<title>Node26&#45;&gt;Node8</title>
<g id="a_edge43_Node000026_Node000008"><a xlink:title=" ">
<path fill="none" stroke="#63b8ff" d="M393.42,-287.01C436.19,-279.03 498.32,-266.4 551.62,-251.5 605.22,-236.52 665.95,-214.23 702.22,-200.33"/>
<polygon fill="#63b8ff" stroke="#63b8ff" points="703.18,-203.72 711.25,-196.85 700.66,-197.19 703.18,-203.72"/>
</a>
</g>
</g>
<!-- Node26&#45;&gt;Node9 -->
<g id="edge47_Node000026_Node000009" class="edge">
<title>Node26&#45;&gt;Node9</title>
<g id="a_edge47_Node000026_Node000009"><a xlink:title=" ">
<path fill="none" stroke="#63b8ff" d="M364.02,-287.09C385.07,-278.6 416.83,-265.79 440.75,-256.14"/>
<polygon fill="#63b8ff" stroke="#63b8ff" points="441.76,-259.51 449.72,-252.52 439.14,-253.01 441.76,-259.51"/>
</a>
</g>
</g>
<!-- Node26&#45;&gt;Node11 -->
<g id="edge42_Node000026_Node000011" class="edge">
<title>Node26&#45;&gt;Node11</title>
<g id="a_edge42_Node000026_Node000011"><a xlink:title=" ">
<path fill="none" stroke="#63b8ff" d="M278.85,-289.12C251.72,-283.13 221.48,-272.04 200.62,-251.5 155.7,-207.25 144.41,-128.53 141.58,-91.63"/>
<polygon fill="#63b8ff" stroke="#63b8ff" points="145.09,-91.73 140.98,-81.96 138.1,-92.16 145.09,-91.73"/>
</a>
</g>
</g>
<!-- Node26&#45;&gt;Node15 -->
<g id="edge46_Node000026_Node000015" class="edge">
<title>Node26&#45;&gt;Node15</title>
<g id="a_edge46_Node000026_Node000015"><a xlink:title=" ">
<path fill="none" stroke="#63b8ff" d="M347.92,-287.32C366.41,-261.44 420.85,-185.25 445.83,-150.28"/>
<polygon fill="#63b8ff" stroke="#63b8ff" points="448.46,-152.63 451.42,-142.45 442.76,-148.56 448.46,-152.63"/>
</a>
</g>
</g>
<!-- Node27 -->
<g id="Node000027" class="node">
<title>Node27</title>
<g id="a_Node000027"><a xlink:title=" ">
<polygon fill="#e0e0e0" stroke="#999999" points="244,-251.5 209.25,-251.5 209.25,-232.25 244,-232.25 244,-251.5"/>
<text xml:space="preserve" text-anchor="middle" x="226.62" y="-238" font-family="Helvetica,sans-Serif" font-size="10.00">map</text>
</a>
</g>
</g>
<!-- Node26&#45;&gt;Node27 -->
<g id="edge41_Node000026_Node000027" class="edge">
<title>Node26&#45;&gt;Node27</title>
<g id="a_edge41_Node000026_Node000027"><a xlink:title=" ">
<path fill="none" stroke="#63b8ff" d="M322.12,-287.09C303.56,-278.5 275.46,-265.49 254.54,-255.8"/>
<polygon fill="#63b8ff" stroke="#63b8ff" points="256.26,-252.74 245.71,-251.71 253.31,-259.09 256.26,-252.74"/>
</a>
</g>
</g>
<!-- Node28 -->
<g id="Node000028" class="node">
<title>Node28</title>
<g id="a_Node000028"><a xlink:title=" ">
<polygon fill="#e0e0e0" stroke="#999999" points="310.75,-251.5 262.5,-251.5 262.5,-232.25 310.75,-232.25 310.75,-251.5"/>
<text xml:space="preserve" text-anchor="middle" x="286.62" y="-238" font-family="Helvetica,sans-Serif" font-size="10.00">cstddef</text>
</a>
</g>
</g>
<!-- Node26&#45;&gt;Node28 -->
<g id="edge44_Node000026_Node000028" class="edge">
<title>Node26&#45;&gt;Node28</title>
<g id="a_edge44_Node000026_Node000028"><a xlink:title=" ">
<path fill="none" stroke="#63b8ff" d="M332.54,-287.33C324.79,-279.82 313.41,-268.81 303.93,-259.63"/>
<polygon fill="#63b8ff" stroke="#63b8ff" points="306.61,-257.35 296.99,-252.91 301.74,-262.38 306.61,-257.35"/>
</a>
</g>
</g>
</g>
</svg>
