<?xml version="1.0" encoding="UTF-8" standalone="no"?>
<!DOCTYPE svg PUBLIC "-//W3C//DTD SVG 1.1//EN"
 "http://www.w3.org/Graphics/SVG/1.1/DTD/svg11.dtd">
<!-- Generated by graphviz version 2.44.1 (20200629.0846)
 -->
<!-- Title: src/signalk/signalk_emitter.h Pages: 1 -->
<svg width="634pt" height="240pt"
 viewBox="0.00 0.00 633.50 240.00" xmlns="http://www.w3.org/2000/svg" xmlns:xlink="http://www.w3.org/1999/xlink">
<g id="graph0" class="graph" transform="scale(1 1) rotate(0) translate(4 236)">
<title>src/signalk/signalk_emitter.h</title>
<polygon fill="white" stroke="transparent" points="-4,4 -4,-236 629.5,-236 629.5,4 -4,4"/>
<!-- Node1 -->
<g id="node1" class="node">
<title>Node1</title>
<g id="a_node1"><a xlink:title=" ">
<polygon fill="#bfbfbf" stroke="black" points="219.5,-201.5 219.5,-231.5 317.5,-231.5 317.5,-201.5 219.5,-201.5"/>
<text text-anchor="start" x="227.5" y="-219.5" font-family="Helvetica,sans-Serif" font-size="10.00">src/signalk/signalk</text>
<text text-anchor="middle" x="268.5" y="-208.5" font-family="Helvetica,sans-Serif" font-size="10.00">_emitter.h</text>
</a>
</g>
</g>
<!-- Node2 -->
<g id="node2" class="node">
<title>Node2</title>
<g id="a_node2"><a xlink:href="signalk__delta_8cpp.html" target="_top" xlink:title=" ">
<polygon fill="white" stroke="black" points="45.5,-134.5 45.5,-164.5 143.5,-164.5 143.5,-134.5 45.5,-134.5"/>
<text text-anchor="start" x="53.5" y="-152.5" font-family="Helvetica,sans-Serif" font-size="10.00">src/signalk/signalk</text>
<text text-anchor="middle" x="94.5" y="-141.5" font-family="Helvetica,sans-Serif" font-size="10.00">_delta.cpp</text>
</a>
</g>
</g>
<!-- Node1&#45;&gt;Node2 -->
<g id="edge1" class="edge">
<title>Node1&#45;&gt;Node2</title>
<path fill="none" stroke="midnightblue" d="M221.17,-197.82C193.2,-187.37 158.27,-174.32 132.18,-164.58"/>
<polygon fill="midnightblue" stroke="midnightblue" points="220.15,-201.18 230.74,-201.4 222.6,-194.62 220.15,-201.18"/>
</g>
<!-- Node3 -->
<g id="node3" class="node">
<title>Node3</title>
<g id="a_node3"><a xlink:href="signalk__emitter_8cpp.html" target="_top" xlink:title=" ">
<polygon fill="white" stroke="black" points="161.5,-134.5 161.5,-164.5 259.5,-164.5 259.5,-134.5 161.5,-134.5"/>
<text text-anchor="start" x="169.5" y="-152.5" font-family="Helvetica,sans-Serif" font-size="10.00">src/signalk/signalk</text>
<text text-anchor="middle" x="210.5" y="-141.5" font-family="Helvetica,sans-Serif" font-size="10.00">_emitter.cpp</text>
</a>
</g>
</g>
<!-- Node1&#45;&gt;Node3 -->
<g id="edge2" class="edge">
<title>Node1&#45;&gt;Node3</title>
<path fill="none" stroke="midnightblue" d="M249.08,-193.74C240.5,-184.12 230.66,-173.09 223.06,-164.58"/>
<polygon fill="midnightblue" stroke="midnightblue" points="246.65,-196.26 255.91,-201.4 251.87,-191.6 246.65,-196.26"/>
</g>
<!-- Node4 -->
<g id="node4" class="node">
<title>Node4</title>
<g id="a_node4"><a xlink:href="signalk__output_8h.html" target="_top" xlink:title=" ">
<polygon fill="white" stroke="black" points="277.5,-134.5 277.5,-164.5 375.5,-164.5 375.5,-134.5 277.5,-134.5"/>
<text text-anchor="start" x="285.5" y="-152.5" font-family="Helvetica,sans-Serif" font-size="10.00">src/signalk/signalk</text>
<text text-anchor="middle" x="326.5" y="-141.5" font-family="Helvetica,sans-Serif" font-size="10.00">_output.h</text>
</a>
</g>
</g>
<!-- Node1&#45;&gt;Node4 -->
<g id="edge3" class="edge">
<title>Node1&#45;&gt;Node4</title>
<path fill="none" stroke="midnightblue" d="M287.92,-193.74C296.5,-184.12 306.34,-173.09 313.94,-164.58"/>
<polygon fill="midnightblue" stroke="midnightblue" points="285.13,-191.6 281.09,-201.4 290.35,-196.26 285.13,-191.6"/>
</g>
<!-- Node11 -->
<g id="node11" class="node">
<title>Node11</title>
<g id="a_node11"><a xlink:href="signalk__time_8h.html" target="_top" xlink:title=" ">
<polygon fill="white" stroke="black" points="450.5,-134.5 450.5,-164.5 548.5,-164.5 548.5,-134.5 450.5,-134.5"/>
<text text-anchor="start" x="458.5" y="-152.5" font-family="Helvetica,sans-Serif" font-size="10.00">src/signalk/signalk</text>
<text text-anchor="middle" x="499.5" y="-141.5" font-family="Helvetica,sans-Serif" font-size="10.00">_time.h</text>
</a>
</g>
</g>
<!-- Node1&#45;&gt;Node11 -->
<g id="edge11" class="edge">
<title>Node1&#45;&gt;Node11</title>
<path fill="none" stroke="midnightblue" d="M327.68,-198.85C365.68,-188.16 414.44,-174.43 450.3,-164.34"/>
<polygon fill="midnightblue" stroke="midnightblue" points="326.45,-195.56 317.77,-201.64 328.35,-202.3 326.45,-195.56"/>
</g>
<!-- Node5 -->
<g id="node5" class="node">
<title>Node5</title>
<g id="a_node5"><a xlink:href="main_8cpp.html" target="_top" xlink:title=" ">
<polygon fill="white" stroke="black" points="0,-73 0,-92 73,-92 73,-73 0,-73"/>
<text text-anchor="middle" x="36.5" y="-80" font-family="Helvetica,sans-Serif" font-size="10.00">src/main.cpp</text>
</a>
</g>
</g>
<!-- Node4&#45;&gt;Node5 -->
<g id="edge4" class="edge">
<title>Node4&#45;&gt;Node5</title>
<path fill="none" stroke="midnightblue" d="M267.62,-133.89C184.57,-115.97 161.09,-117.92 82.5,-98 75.68,-96.27 68.39,-94.12 61.66,-92"/>
<polygon fill="midnightblue" stroke="midnightblue" points="266.98,-137.33 277.5,-136.05 268.48,-130.49 266.98,-137.33"/>
</g>
<!-- Node6 -->
<g id="node6" class="node">
<title>Node6</title>
<g id="a_node6"><a xlink:href="sensesp__app_8cpp.html" target="_top" xlink:title=" ">
<polygon fill="white" stroke="black" points="91.5,-73 91.5,-92 201.5,-92 201.5,-73 91.5,-73"/>
<text text-anchor="middle" x="146.5" y="-80" font-family="Helvetica,sans-Serif" font-size="10.00">src/sensesp_app.cpp</text>
</a>
</g>
</g>
<!-- Node4&#45;&gt;Node6 -->
<g id="edge5" class="edge">
<title>Node4&#45;&gt;Node6</title>
<path fill="none" stroke="midnightblue" d="M277.89,-130.95C242.93,-118.32 197.32,-101.85 170.06,-92.01"/>
<polygon fill="midnightblue" stroke="midnightblue" points="276.85,-134.29 287.44,-134.4 279.23,-127.71 276.85,-134.29"/>
</g>
<!-- Node7 -->
<g id="node7" class="node">
<title>Node7</title>
<g id="a_node7"><a xlink:href="signalk__output_8cpp.html" target="_top" xlink:title=" ">
<polygon fill="white" stroke="black" points="219.5,-67.5 219.5,-97.5 317.5,-97.5 317.5,-67.5 219.5,-67.5"/>
<text text-anchor="start" x="227.5" y="-85.5" font-family="Helvetica,sans-Serif" font-size="10.00">src/signalk/signalk</text>
<text text-anchor="middle" x="268.5" y="-74.5" font-family="Helvetica,sans-Serif" font-size="10.00">_output.cpp</text>
</a>
</g>
</g>
<!-- Node4&#45;&gt;Node7 -->
<g id="edge6" class="edge">
<title>Node4&#45;&gt;Node7</title>
<path fill="none" stroke="midnightblue" d="M307.08,-126.74C298.5,-117.12 288.66,-106.09 281.06,-97.58"/>
<polygon fill="midnightblue" stroke="midnightblue" points="304.65,-129.26 313.91,-134.4 309.87,-124.6 304.65,-129.26"/>
</g>
<!-- Node8 -->
<g id="node8" class="node">
<title>Node8</title>
<g id="a_node8"><a xlink:href="signalk__position_8h.html" target="_top" xlink:title=" ">
<polygon fill="white" stroke="black" points="335.5,-67.5 335.5,-97.5 433.5,-97.5 433.5,-67.5 335.5,-67.5"/>
<text text-anchor="start" x="343.5" y="-85.5" font-family="Helvetica,sans-Serif" font-size="10.00">src/signalk/signalk</text>
<text text-anchor="middle" x="384.5" y="-74.5" font-family="Helvetica,sans-Serif" font-size="10.00">_position.h</text>
</a>
</g>
</g>
<!-- Node4&#45;&gt;Node8 -->
<g id="edge7" class="edge">
<title>Node4&#45;&gt;Node8</title>
<path fill="none" stroke="midnightblue" d="M345.92,-126.74C354.5,-117.12 364.34,-106.09 371.94,-97.58"/>
<polygon fill="midnightblue" stroke="midnightblue" points="343.13,-124.6 339.09,-134.4 348.35,-129.26 343.13,-124.6"/>
</g>
<!-- Node10 -->
<g id="node10" class="node">
<title>Node10</title>
<g id="a_node10"><a xlink:href="wiring__helpers_8cpp.html" target="_top" xlink:title=" ">
<polygon fill="white" stroke="black" points="423.5,-6 423.5,-25 537.5,-25 537.5,-6 423.5,-6"/>
<text text-anchor="middle" x="480.5" y="-13" font-family="Helvetica,sans-Serif" font-size="10.00">src/wiring_helpers.cpp</text>
</a>
</g>
</g>
<!-- Node4&#45;&gt;Node10 -->
<g id="edge10" class="edge">
<title>Node4&#45;&gt;Node10</title>
<path fill="none" stroke="midnightblue" d="M385.11,-132.41C405.2,-124.61 426.61,-113.48 442.5,-98 463.97,-77.08 474.61,-41.7 478.59,-25.31"/>
<polygon fill="midnightblue" stroke="midnightblue" points="383.86,-129.14 375.68,-135.87 386.27,-135.71 383.86,-129.14"/>
</g>
<!-- Node9 -->
<g id="node9" class="node">
<title>Node9</title>
<g id="a_node9"><a xlink:href="signalk__position_8cpp.html" target="_top" xlink:title=" ">
<polygon fill="white" stroke="black" points="307.5,-0.5 307.5,-30.5 405.5,-30.5 405.5,-0.5 307.5,-0.5"/>
<text text-anchor="start" x="315.5" y="-18.5" font-family="Helvetica,sans-Serif" font-size="10.00">src/signalk/signalk</text>
<text text-anchor="middle" x="356.5" y="-7.5" font-family="Helvetica,sans-Serif" font-size="10.00">_position.cpp</text>
</a>
</g>
</g>
<!-- Node8&#45;&gt;Node9 -->
<g id="edge8" class="edge">
<title>Node8&#45;&gt;Node9</title>
<path fill="none" stroke="midnightblue" d="M374.37,-57.99C370.42,-48.8 366.01,-38.58 362.56,-30.58"/>
<polygon fill="midnightblue" stroke="midnightblue" points="371.25,-59.6 378.42,-67.4 377.68,-56.83 371.25,-59.6"/>
</g>
<!-- Node8&#45;&gt;Node10 -->
<g id="edge9" class="edge">
<title>Node8&#45;&gt;Node10</title>
<path fill="none" stroke="midnightblue" d="M413.83,-61.64C431.95,-49.37 454.27,-34.26 467.94,-25.01"/>
<polygon fill="midnightblue" stroke="midnightblue" points="411.65,-58.89 405.33,-67.4 415.57,-64.69 411.65,-58.89"/>
</g>
<!-- Node11&#45;&gt;Node10 -->
<g id="edge13" class="edge">
<title>Node11&#45;&gt;Node10</title>
<path fill="none" stroke="midnightblue" d="M496.02,-124.32C491.71,-94.38 484.59,-44.91 481.74,-25.1"/>
<polygon fill="midnightblue" stroke="midnightblue" points="492.58,-124.97 497.47,-134.37 499.51,-123.98 492.58,-124.97"/>
</g>
<!-- Node12 -->
<g id="node12" class="node">
<title>Node12</title>
<g id="a_node12"><a xlink:href="signalk__time_8cpp.html" target="_top" xlink:title=" ">
<polygon fill="white" stroke="black" points="527.5,-67.5 527.5,-97.5 625.5,-97.5 625.5,-67.5 527.5,-67.5"/>
<text text-anchor="start" x="535.5" y="-85.5" font-family="Helvetica,sans-Serif" font-size="10.00">src/signalk/signalk</text>
<text text-anchor="middle" x="576.5" y="-74.5" font-family="Helvetica,sans-Serif" font-size="10.00">_time.cpp</text>
</a>
</g>
</g>
<!-- Node11&#45;&gt;Node12 -->
<g id="edge12" class="edge">
<title>Node11&#45;&gt;Node12</title>
<path fill="none" stroke="midnightblue" d="M523.92,-127.88C535.62,-118.01 549.34,-106.43 559.82,-97.58"/>
<polygon fill="midnightblue" stroke="midnightblue" points="521.59,-125.27 516.21,-134.4 526.11,-130.62 521.59,-125.27"/>
</g>
</g>
</svg>
