<?xml version="1.0" encoding="UTF-8" standalone="no"?>
<!DOCTYPE svg PUBLIC "-//W3C//DTD SVG 1.1//EN"
 "http://www.w3.org/Graphics/SVG/1.1/DTD/svg11.dtd">
<!-- Generated by graphviz version 12.1.0 (20240811.2233)
 -->
<!-- Title: src/sensesp/signalk/signalk_ws_client.h Pages: 1 -->
<!--zoomable 570 -->

<svg id="main" version="1.1" xmlns="http://www.w3.org/2000/svg" xmlns:xlink="http://www.w3.org/1999/xlink" xml:space="preserve" onload="init(evt)">

<style type="text/css"><![CDATA[
.node, .edge {opacity: 0.7;}
.node.selected, .edge.selected {opacity: 1;}
.edge:hover path { stroke: red; }
.edge:hover polygon { stroke: red; fill: red; }
]]></style>

<defs>
  <circle id="rim" cx="0" cy="0" r="7"/>
  <circle id="rim2" cx="0" cy="0" r="3.5"/>
  <g id="zoomPlus">
    <use xlink:href="#rim" fill="#404040"><set attributeName="fill" to="#808080" begin="zoomplus.mouseover" end="zoomplus.mouseout"/></use>
    <path d="M-4,0h8M0,-4v8" fill="none" stroke="white" stroke-width="1.5" pointer-events="none"/>
  </g>
  <g id="zoomMin">
    <use xlink:href="#rim" fill="#404040"><set attributeName="fill" to="#808080" begin="zoomminus.mouseover" end="zoomminus.mouseout"/></use>
    <path d="M-4,0h8" fill="none" stroke="white" stroke-width="1.5" pointer-events="none"/>
  </g>
  <g id="arrowUp" transform="translate(30 24)">
    <use xlink:href="#rim"/>
    <path pointer-events="none" fill="none" stroke="white" stroke-width="1.5" d="M0,-3.0v7 M-2.5,-0.5L0,-3.0L2.5,-0.5"/>
  </g>
  <g id="arrowRight" transform="rotate(90) translate(36 -43)">
    <use xlink:href="#rim"/>
    <path pointer-events="none" fill="none" stroke="white" stroke-width="1.5" d="M0,-3.0v7 M-2.5,-0.5L0,-3.0L2.5,-0.5"/>
  </g>
  <g id="arrowDown" transform="rotate(180) translate(-30 -48)">
    <use xlink:href="#rim"/>
    <path pointer-events="none" fill="none" stroke="white" stroke-width="1.5" d="M0,-3.0v7 M-2.5,-0.5L0,-3.0L2.5,-0.5"/>
  </g>
  <g id="arrowLeft" transform="rotate(270) translate(-36 17)">
    <use xlink:href="#rim"/>
    <path pointer-events="none" fill="none" stroke="white" stroke-width="1.5" d="M0,-3.0v7 M-2.5,-0.5L0,-3.0L2.5,-0.5"/>
  </g>
  <g id="resetDef">
    <use xlink:href="#rim2" fill="#404040"><set attributeName="fill" to="#808080" begin="reset.mouseover" end="reset.mouseout"/></use>
  </g>
</defs>
<script type="application/ecmascript">
var viewWidth = 1118;
var viewHeight = 570;
var sectionId = 'dynsection-0';
</script>
<script type="application/ecmascript" xlink:href="svg.min.js"/>
<svg id="graph" class="graph">
<g id="viewport">
<title>src/sensesp/signalk/signalk_ws_client.h</title>
<!-- Node1 -->
<g id="Node000001" class="node">
<title>Node1</title>
<g id="a_Node000001"><a xlink:title=" ">
<polygon fill="#999999" stroke="#666666" points="695.88,-561.5 591.38,-561.5 591.38,-531 695.88,-531 695.88,-561.5"/>
<text text-anchor="start" x="599.38" y="-548" font-family="Helvetica,sans-Serif" font-size="10.00">src/sensesp/signalk</text>
<text text-anchor="middle" x="643.62" y="-536.75" font-family="Helvetica,sans-Serif" font-size="10.00">/signalk_ws_client.h</text>
</a>
</g>
</g>
<!-- Node2 -->
<g id="Node000002" class="node">
<title>Node2</title>
<g id="a_Node000002"><a xlink:href="sensesp_8h.html" target="_top" xlink:title=" ">
<polygon fill="white" stroke="#666666" points="363.12,-141 302.12,-141 302.12,-121.75 363.12,-121.75 363.12,-141"/>
<text text-anchor="middle" x="332.62" y="-127.5" font-family="Helvetica,sans-Serif" font-size="10.00">sensesp.h</text>
</a>
</g>
</g>
<!-- Node1&#45;&gt;Node2 -->
<g id="edge1_Node000001_Node000002" class="edge">
<title>Node1&#45;&gt;Node2</title>
<g id="a_edge1_Node000001_Node000002"><a xlink:title=" ">
<path fill="none" stroke="#63b8ff" d="M619.54,-530.55C566.29,-496.97 437.19,-409.55 360.62,-306.75 326.04,-260.32 327.24,-187.52 330.25,-152.51"/>
<polygon fill="#63b8ff" stroke="#63b8ff" points="333.7,-153.25 331.23,-142.94 326.73,-152.54 333.7,-153.25"/>
</a>
</g>
</g>
<!-- Node8 -->
<g id="Node000008" class="node">
<title>Node8</title>
<g id="a_Node000008"><a xlink:title=" ">
<polygon fill="#e0e0e0" stroke="#999999" points="248.88,-489.38 204.38,-489.38 204.38,-470.12 248.88,-470.12 248.88,-489.38"/>
<text text-anchor="middle" x="226.62" y="-475.88" font-family="Helvetica,sans-Serif" font-size="10.00">WiFi.h</text>
</a>
</g>
</g>
<!-- Node1&#45;&gt;Node8 -->
<g id="edge7_Node000001_Node000008" class="edge">
<title>Node1&#45;&gt;Node8</title>
<g id="a_edge7_Node000001_Node000008"><a xlink:title=" ">
<path fill="none" stroke="#63b8ff" d="M591.1,-543.41C515.88,-539.66 373.71,-528.4 257.62,-495 256.63,-494.71 255.62,-494.4 254.62,-494.06"/>
<polygon fill="#63b8ff" stroke="#63b8ff" points="255.97,-490.83 245.38,-490.4 253.39,-497.34 255.97,-490.83"/>
</a>
</g>
</g>
<!-- Node9 -->
<g id="Node000009" class="node">
<title>Node9</title>
<g id="a_Node000009"><a xlink:title=" ">
<polygon fill="#e0e0e0" stroke="#999999" points="388.12,-489.38 267.12,-489.38 267.12,-470.12 388.12,-470.12 388.12,-489.38"/>
<text text-anchor="middle" x="327.62" y="-475.88" font-family="Helvetica,sans-Serif" font-size="10.00">esp_websocket_client.h</text>
</a>
</g>
</g>
<!-- Node1&#45;&gt;Node9 -->
<g id="edge8_Node000001_Node000009" class="edge">
<title>Node1&#45;&gt;Node9</title>
<g id="a_edge8_Node000001_Node000009"><a xlink:title=" ">
<path fill="none" stroke="#63b8ff" d="M591.09,-534.53C533.67,-522.81 442.04,-504.1 383.38,-492.13"/>
<polygon fill="#63b8ff" stroke="#63b8ff" points="384.09,-488.7 373.59,-490.13 382.69,-495.56 384.09,-488.7"/>
</a>
</g>
</g>
<!-- Node10 -->
<g id="Node000010" class="node">
<title>Node10</title>
<g id="a_Node000010"><a xlink:title=" ">
<polygon fill="#e0e0e0" stroke="#999999" points="789.62,-196.25 731.62,-196.25 731.62,-177 789.62,-177 789.62,-196.25"/>
<text text-anchor="middle" x="760.62" y="-182.75" font-family="Helvetica,sans-Serif" font-size="10.00">functional</text>
</a>
</g>
</g>
<!-- Node1&#45;&gt;Node10 -->
<g id="edge9_Node000001_Node000010" class="edge">
<title>Node1&#45;&gt;Node10</title>
<g id="a_edge9_Node000001_Node000010"><a xlink:title=" ">
<path fill="none" stroke="#63b8ff" d="M686.71,-530.58C708.91,-521.97 735.82,-509.86 757.62,-495 851.02,-431.33 889.5,-412.79 928.62,-306.75 931.59,-298.72 932.86,-294.94 928.62,-287.5 926.61,-283.95 832.63,-229.26 786.13,-202.35"/>
<polygon fill="#63b8ff" stroke="#63b8ff" points="787.91,-199.34 777.51,-197.37 784.41,-205.4 787.91,-199.34"/>
</a>
</g>
</g>
<!-- Node11 -->
<g id="Node000011" class="node">
<title>Node11</title>
<g id="a_Node000011"><a xlink:title=" ">
<polygon fill="#e0e0e0" stroke="#999999" points="1015.02,-422.88 986.23,-422.88 986.23,-403.62 1015.02,-403.62 1015.02,-422.88"/>
<text text-anchor="middle" x="1000.62" y="-409.38" font-family="Helvetica,sans-Serif" font-size="10.00">list</text>
</a>
</g>
</g>
<!-- Node1&#45;&gt;Node11 -->
<g id="edge10_Node000001_Node000011" class="edge">
<title>Node1&#45;&gt;Node11</title>
<g id="a_edge10_Node000001_Node000011"><a xlink:title=" ">
<path fill="none" stroke="#63b8ff" d="M696.32,-540.83C769.6,-533.91 897.79,-518.81 937.62,-495 962.13,-480.35 980.68,-452.31 991.11,-433.44"/>
<polygon fill="#63b8ff" stroke="#63b8ff" points="994.17,-435.14 995.71,-424.66 987.97,-431.89 994.17,-435.14"/>
</a>
</g>
</g>
<!-- Node12 -->
<g id="Node000012" class="node">
<title>Node12</title>
<g id="a_Node000012"><a xlink:title=" ">
<polygon fill="#e0e0e0" stroke="#999999" points="919.38,-306.75 889.88,-306.75 889.88,-287.5 919.38,-287.5 919.38,-306.75"/>
<text text-anchor="middle" x="904.62" y="-293.25" font-family="Helvetica,sans-Serif" font-size="10.00">set</text>
</a>
</g>
</g>
<!-- Node1&#45;&gt;Node12 -->
<g id="edge11_Node000001_Node000012" class="edge">
<title>Node1&#45;&gt;Node12</title>
<g id="a_edge11_Node000001_Node000012"><a xlink:title=" ">
<path fill="none" stroke="#63b8ff" d="M672.64,-530.71C689.5,-521.58 710.7,-508.93 727.62,-495 797.03,-437.85 863.71,-353.09 891.31,-316.28"/>
<polygon fill="#63b8ff" stroke="#63b8ff" points="893.97,-318.57 897.13,-308.45 888.35,-314.39 893.97,-318.57"/>
</a>
</g>
</g>
<!-- Node13 -->
<g id="Node000013" class="node">
<title>Node13</title>
<g id="a_Node000013"><a xlink:href="signalk__delta__queue_8h.html" target="_top" xlink:title=" ">
<polygon fill="white" stroke="#666666" points="1109.75,-495 989.5,-495 989.5,-464.5 1109.75,-464.5 1109.75,-495"/>
<text text-anchor="start" x="997.5" y="-481.5" font-family="Helvetica,sans-Serif" font-size="10.00">sensesp/signalk/signalk</text>
<text text-anchor="middle" x="1049.62" y="-470.25" font-family="Helvetica,sans-Serif" font-size="10.00">_delta_queue.h</text>
</a>
</g>
</g>
<!-- Node1&#45;&gt;Node13 -->
<g id="edge12_Node000001_Node000013" class="edge">
<title>Node1&#45;&gt;Node13</title>
<g id="a_edge12_Node000001_Node000013"><a xlink:title=" ">
<path fill="none" stroke="#63b8ff" d="M696.34,-537.94C761.92,-528.68 877.24,-511.91 975.62,-495 976.45,-494.86 977.27,-494.72 978.11,-494.57"/>
<polygon fill="#63b8ff" stroke="#63b8ff" points="978.36,-498.08 987.59,-492.88 977.14,-491.19 978.36,-498.08"/>
</a>
</g>
</g>
<!-- Node15 -->
<g id="Node000015" class="node">
<title>Node15</title>
<g id="a_Node000015"><a xlink:href="observablevalue_8h.html" target="_top" xlink:title=" ">
<polygon fill="white" stroke="#666666" points="655.5,-362 485.75,-362 485.75,-342.75 655.5,-342.75 655.5,-362"/>
<text text-anchor="middle" x="570.62" y="-348.5" font-family="Helvetica,sans-Serif" font-size="10.00">sensesp/system/observablevalue.h</text>
</a>
</g>
</g>
<!-- Node1&#45;&gt;Node15 -->
<g id="edge15_Node000001_Node000015" class="edge">
<title>Node1&#45;&gt;Node15</title>
<g id="a_edge15_Node000001_Node000015"><a xlink:title=" ">
<path fill="none" stroke="#63b8ff" d="M638.02,-530.51C625,-496.3 592.74,-411.51 578.08,-372.98"/>
<polygon fill="#63b8ff" stroke="#63b8ff" points="581.36,-371.74 574.53,-363.64 574.81,-374.23 581.36,-371.74"/>
</a>
</g>
</g>
<!-- Node24 -->
<g id="Node000024" class="node">
<title>Node24</title>
<g id="a_Node000024"><a xlink:href="valueproducer_8h.html" target="_top" xlink:title=" ">
<polygon fill="white" stroke="#666666" points="795.75,-306.75 711.5,-306.75 711.5,-287.5 795.75,-287.5 795.75,-306.75"/>
<text text-anchor="middle" x="753.62" y="-293.25" font-family="Helvetica,sans-Serif" font-size="10.00">valueproducer.h</text>
</a>
</g>
</g>
<!-- Node1&#45;&gt;Node24 -->
<g id="edge56_Node000001_Node000024" class="edge">
<title>Node1&#45;&gt;Node24</title>
<g id="a_edge56_Node000001_Node000024"><a xlink:title=" ">
<path fill="none" stroke="#63b8ff" d="M661.86,-530.55C695.22,-502.23 764.69,-436.31 786.62,-362 789.05,-353.79 789.3,-350.88 786.62,-342.75 783.32,-332.73 776.81,-323.12 770.44,-315.4"/>
<polygon fill="#63b8ff" stroke="#63b8ff" points="773.23,-313.28 763.96,-308.15 768.01,-317.94 773.23,-313.28"/>
</a>
</g>
</g>
<!-- Node27 -->
<g id="Node000027" class="node">
<title>Node27</title>
<g id="a_Node000027"><a xlink:href="task__queue__producer_8h.html" target="_top" xlink:title=" ">
<polygon fill="white" stroke="#666666" points="169.5,-495 59.75,-495 59.75,-464.5 169.5,-464.5 169.5,-495"/>
<text text-anchor="start" x="67.75" y="-481.5" font-family="Helvetica,sans-Serif" font-size="10.00">sensesp/system/task</text>
<text text-anchor="middle" x="114.62" y="-470.25" font-family="Helvetica,sans-Serif" font-size="10.00">_queue_producer.h</text>
</a>
</g>
</g>
<!-- Node1&#45;&gt;Node27 -->
<g id="edge43_Node000001_Node000027" class="edge">
<title>Node1&#45;&gt;Node27</title>
<g id="a_edge43_Node000001_Node000027"><a xlink:title=" ">
<path fill="none" stroke="#63b8ff" d="M591.07,-540.43C507.24,-532.5 338.17,-515.51 195.62,-495 190.93,-494.33 186.1,-493.59 181.23,-492.81"/>
<polygon fill="#63b8ff" stroke="#63b8ff" points="181.82,-489.36 171.38,-491.19 180.68,-496.27 181.82,-489.36"/>
</a>
</g>
</g>
<!-- Node30 -->
<g id="Node000030" class="node">
<title>Node30</title>
<g id="a_Node000030"><a xlink:href="sensesp__base__app_8h.html" target="_top" xlink:title=" ">
<polygon fill="white" stroke="#666666" points="426.75,-422.88 318.5,-422.88 318.5,-403.62 426.75,-403.62 426.75,-422.88"/>
<text text-anchor="middle" x="372.62" y="-409.38" font-family="Helvetica,sans-Serif" font-size="10.00">sensesp_base_app.h</text>
</a>
</g>
</g>
<!-- Node1&#45;&gt;Node30 -->
<g id="edge67_Node000001_Node000030" class="edge">
<title>Node1&#45;&gt;Node30</title>
<g id="a_edge67_Node000001_Node000030"><a xlink:title=" ">
<path fill="none" stroke="#63b8ff" d="M590.95,-541.24C547.78,-535.92 486.55,-523.59 440.62,-495 415.52,-479.37 395.05,-451.37 383.35,-432.8"/>
<polygon fill="#63b8ff" stroke="#63b8ff" points="386.45,-431.16 378.28,-424.41 380.45,-434.78 386.45,-431.16"/>
</a>
</g>
</g>
<!-- Node34 -->
<g id="Node000034" class="node">
<title>Node34</title>
<g id="a_Node000034"><a xlink:href="integrator_8h.html" target="_top" xlink:title=" ">
<polygon fill="white" stroke="#666666" points="734.75,-428.5 632.5,-428.5 632.5,-398 734.75,-398 734.75,-428.5"/>
<text text-anchor="start" x="640.5" y="-415" font-family="Helvetica,sans-Serif" font-size="10.00">sensesp/transforms</text>
<text text-anchor="middle" x="683.62" y="-403.75" font-family="Helvetica,sans-Serif" font-size="10.00">/integrator.h</text>
</a>
</g>
</g>
<!-- Node1&#45;&gt;Node34 -->
<g id="edge57_Node000001_Node000034" class="edge">
<title>Node1&#45;&gt;Node34</title>
<g id="a_edge57_Node000001_Node000034"><a xlink:title=" ">
<path fill="none" stroke="#63b8ff" d="M648.06,-530.73C654.76,-508.8 667.55,-466.9 675.83,-439.79"/>
<polygon fill="#63b8ff" stroke="#63b8ff" points="679.16,-440.87 678.73,-430.28 672.46,-438.82 679.16,-440.87"/>
</a>
</g>
</g>
<!-- Node3 -->
<g id="Node000003" class="node">
<title>Node3</title>
<g id="a_Node000003"><a xlink:title=" ">
<polygon fill="#e0e0e0" stroke="#999999" points="359.25,-80.12 290,-80.12 290,-60.88 359.25,-60.88 359.25,-80.12"/>
<text text-anchor="middle" x="324.62" y="-66.62" font-family="Helvetica,sans-Serif" font-size="10.00">ReactESP.h</text>
</a>
</g>
</g>
<!-- Node2&#45;&gt;Node3 -->
<g id="edge2_Node000002_Node000003" class="edge">
<title>Node2&#45;&gt;Node3</title>
<g id="a_edge2_Node000002_Node000003"><a xlink:title=" ">
<path fill="none" stroke="#63b8ff" d="M331.41,-121.43C330.34,-113.57 328.75,-101.82 327.37,-91.7"/>
<polygon fill="#63b8ff" stroke="#63b8ff" points="330.87,-91.46 326.06,-82.03 323.93,-92.41 330.87,-91.46"/>
</a>
</g>
</g>
<!-- Node4 -->
<g id="Node000004" class="node">
<title>Node4</title>
<g id="a_Node000004"><a xlink:href="local__debug_8h.html" target="_top" xlink:title=" ">
<polygon fill="white" stroke="#666666" points="531.25,-85.75 420,-85.75 420,-55.25 531.25,-55.25 531.25,-85.75"/>
<text text-anchor="start" x="428" y="-72.25" font-family="Helvetica,sans-Serif" font-size="10.00">sensesp/system/local</text>
<text text-anchor="middle" x="475.62" y="-61" font-family="Helvetica,sans-Serif" font-size="10.00">_debug.h</text>
</a>
</g>
</g>
<!-- Node2&#45;&gt;Node4 -->
<g id="edge3_Node000002_Node000004" class="edge">
<title>Node2&#45;&gt;Node4</title>
<g id="a_edge3_Node000002_Node000004"><a xlink:title=" ">
<path fill="none" stroke="#63b8ff" d="M354.66,-121.3C374.54,-113.12 404.42,-100.81 429.52,-90.48"/>
<polygon fill="#63b8ff" stroke="#63b8ff" points="430.62,-93.81 438.53,-86.77 427.95,-87.34 430.62,-93.81"/>
</a>
</g>
</g>
<!-- Node5 -->
<g id="Node000005" class="node">
<title>Node5</title>
<g id="a_Node000005"><a xlink:title=" ">
<polygon fill="#e0e0e0" stroke="#999999" points="556.62,-19.25 474.62,-19.25 474.62,0 556.62,0 556.62,-19.25"/>
<text text-anchor="middle" x="515.62" y="-5.75" font-family="Helvetica,sans-Serif" font-size="10.00">esp32&#45;hal&#45;log.h</text>
</a>
</g>
</g>
<!-- Node4&#45;&gt;Node5 -->
<g id="edge4_Node000004_Node000005" class="edge">
<title>Node4&#45;&gt;Node5</title>
<g id="a_edge4_Node000004_Node000005"><a xlink:title=" ">
<path fill="none" stroke="#63b8ff" d="M485.51,-54.95C490.84,-47.1 497.47,-37.35 503.15,-28.99"/>
<polygon fill="#63b8ff" stroke="#63b8ff" points="505.88,-31.19 508.61,-20.95 500.09,-27.26 505.88,-31.19"/>
</a>
</g>
</g>
<!-- Node6 -->
<g id="Node000006" class="node">
<title>Node6</title>
<g id="a_Node000006"><a xlink:title=" ">
<polygon fill="#e0e0e0" stroke="#999999" points="360.25,-19.25 303,-19.25 303,0 360.25,0 360.25,-19.25"/>
<text text-anchor="middle" x="331.62" y="-5.75" font-family="Helvetica,sans-Serif" font-size="10.00">Arduino.h</text>
</a>
</g>
</g>
<!-- Node4&#45;&gt;Node6 -->
<g id="edge5_Node000004_Node000006" class="edge">
<title>Node4&#45;&gt;Node6</title>
<g id="a_edge5_Node000004_Node000006"><a xlink:title=" ">
<path fill="none" stroke="#63b8ff" d="M439.66,-54.8C416.46,-45.31 386.55,-33.08 364.08,-23.89"/>
<polygon fill="#63b8ff" stroke="#63b8ff" points="365.69,-20.77 355.11,-20.23 363.04,-27.25 365.69,-20.77"/>
</a>
</g>
</g>
<!-- Node7 -->
<g id="Node000007" class="node">
<title>Node7</title>
<g id="a_Node000007"><a xlink:title=" ">
<polygon fill="#e0e0e0" stroke="#999999" points="456.88,-19.25 412.38,-19.25 412.38,0 456.88,0 456.88,-19.25"/>
<text text-anchor="middle" x="434.62" y="-5.75" font-family="Helvetica,sans-Serif" font-size="10.00">Print.h</text>
</a>
</g>
</g>
<!-- Node4&#45;&gt;Node7 -->
<g id="edge6_Node000004_Node000007" class="edge">
<title>Node4&#45;&gt;Node7</title>
<g id="a_edge6_Node000004_Node000007"><a xlink:title=" ">
<path fill="none" stroke="#63b8ff" d="M465.49,-54.95C460.03,-47.1 453.23,-37.35 447.41,-28.99"/>
<polygon fill="#63b8ff" stroke="#63b8ff" points="450.4,-27.15 441.81,-20.94 444.65,-31.15 450.4,-27.15"/>
</a>
</g>
</g>
<!-- Node13&#45;&gt;Node11 -->
<g id="edge14_Node000013_Node000011" class="edge">
<title>Node13&#45;&gt;Node11</title>
<g id="a_edge14_Node000013_Node000011"><a xlink:title=" ">
<path fill="none" stroke="#63b8ff" d="M1038.51,-464.11C1031.31,-454.64 1021.88,-442.23 1014.23,-432.16"/>
<polygon fill="#63b8ff" stroke="#63b8ff" points="1017.08,-430.12 1008.24,-424.28 1011.51,-434.36 1017.08,-430.12"/>
</a>
</g>
</g>
<!-- Node14 -->
<g id="Node000014" class="node">
<title>Node14</title>
<g id="a_Node000014"><a xlink:title=" ">
<polygon fill="#e0e0e0" stroke="#999999" points="856.75,-141 778.5,-141 778.5,-121.75 856.75,-121.75 856.75,-141"/>
<text text-anchor="middle" x="817.62" y="-127.5" font-family="Helvetica,sans-Serif" font-size="10.00">ArduinoJson.h</text>
</a>
</g>
</g>
<!-- Node13&#45;&gt;Node14 -->
<g id="edge13_Node000013_Node000014" class="edge">
<title>Node13&#45;&gt;Node14</title>
<g id="a_edge13_Node000013_Node000014"><a xlink:title=" ">
<path fill="none" stroke="#63b8ff" d="M1048.66,-464.09C1047.21,-440.69 1044.62,-393.46 1044.62,-353.38 1044.62,-353.38 1044.62,-353.38 1044.62,-240.88 1044.62,-163.25 935.23,-141.11 868.32,-134.83"/>
<polygon fill="#63b8ff" stroke="#63b8ff" points="868.93,-131.37 858.67,-134.02 868.35,-138.35 868.93,-131.37"/>
</a>
</g>
</g>
<!-- Node16 -->
<g id="Node000016" class="node">
<title>Node16</title>
<g id="a_Node000016"><a xlink:href="saveable_8h.html" target="_top" xlink:title=" ">
<polygon fill="white" stroke="#666666" points="409.25,-251.5 346,-251.5 346,-232.25 409.25,-232.25 409.25,-251.5"/>
<text text-anchor="middle" x="377.62" y="-238" font-family="Helvetica,sans-Serif" font-size="10.00">saveable.h</text>
</a>
</g>
</g>
<!-- Node15&#45;&gt;Node16 -->
<g id="edge16_Node000015_Node000016" class="edge">
<title>Node15&#45;&gt;Node16</title>
<g id="a_edge16_Node000015_Node000016"><a xlink:title=" ">
<path fill="none" stroke="#63b8ff" d="M485.38,-342.97C437.82,-336.32 385.28,-325.04 370.62,-306.75 360.7,-294.37 363.96,-276.04 368.82,-262.19"/>
<polygon fill="#63b8ff" stroke="#63b8ff" points="371.94,-263.81 372.46,-253.23 365.45,-261.18 371.94,-263.81"/>
</a>
</g>
</g>
<!-- Node18 -->
<g id="Node000018" class="node">
<title>Node18</title>
<g id="a_Node000018"><a xlink:href="observable_8h.html" target="_top" xlink:title=" ">
<polygon fill="white" stroke="#666666" points="739.38,-251.5 667.88,-251.5 667.88,-232.25 739.38,-232.25 739.38,-251.5"/>
<text text-anchor="middle" x="703.62" y="-238" font-family="Helvetica,sans-Serif" font-size="10.00">observable.h</text>
</a>
</g>
</g>
<!-- Node15&#45;&gt;Node18 -->
<g id="edge24_Node000015_Node000018" class="edge">
<title>Node15&#45;&gt;Node18</title>
<g id="a_edge24_Node000015_Node000018"><a xlink:title=" ">
<path fill="none" stroke="#63b8ff" d="M581.51,-342.5C603.92,-324.22 655.48,-282.15 683.91,-258.96"/>
<polygon fill="#63b8ff" stroke="#63b8ff" points="685.88,-261.87 691.42,-252.83 681.46,-256.44 685.88,-261.87"/>
</a>
</g>
</g>
<!-- Node21 -->
<g id="Node000021" class="node">
<title>Node21</title>
<g id="a_Node000021"><a xlink:href="config__item_8h.html" target="_top" xlink:title=" ">
<polygon fill="white" stroke="#666666" points="504,-306.75 379.25,-306.75 379.25,-287.5 504,-287.5 504,-306.75"/>
<text text-anchor="middle" x="441.62" y="-293.25" font-family="Helvetica,sans-Serif" font-size="10.00">sensesp/ui/config_item.h</text>
</a>
</g>
</g>
<!-- Node15&#45;&gt;Node21 -->
<g id="edge28_Node000015_Node000021" class="edge">
<title>Node15&#45;&gt;Node21</title>
<g id="a_edge28_Node000015_Node000021"><a xlink:title=" ">
<path fill="none" stroke="#63b8ff" d="M548.74,-342.34C528.26,-333.89 497.41,-321.15 474.07,-311.52"/>
<polygon fill="#63b8ff" stroke="#63b8ff" points="475.59,-308.36 465.01,-307.78 472.92,-314.83 475.59,-308.36"/>
</a>
</g>
</g>
<!-- Node15&#45;&gt;Node24 -->
<g id="edge35_Node000015_Node000024" class="edge">
<title>Node15&#45;&gt;Node24</title>
<g id="a_edge35_Node000015_Node000024"><a xlink:title=" ">
<path fill="none" stroke="#63b8ff" d="M601.67,-342.34C631.9,-333.54 678.08,-320.11 711.59,-310.36"/>
<polygon fill="#63b8ff" stroke="#63b8ff" points="712.35,-313.78 720.98,-307.63 710.4,-307.06 712.35,-313.78"/>
</a>
</g>
</g>
<!-- Node16&#45;&gt;Node2 -->
<g id="edge17_Node000016_Node000002" class="edge">
<title>Node16&#45;&gt;Node2</title>
<g id="a_edge17_Node000016_Node000002"><a xlink:title=" ">
<path fill="none" stroke="#63b8ff" d="M373.94,-232C366.72,-214.59 350.56,-175.62 340.73,-151.91"/>
<polygon fill="#63b8ff" stroke="#63b8ff" points="344,-150.67 336.94,-142.77 337.54,-153.35 344,-150.67"/>
</a>
</g>
</g>
<!-- Node16&#45;&gt;Node6 -->
<g id="edge19_Node000016_Node000006" class="edge">
<title>Node16&#45;&gt;Node6</title>
<g id="a_edge19_Node000016_Node000006"><a xlink:title=" ">
<path fill="none" stroke="#63b8ff" d="M367.32,-231.8C349.46,-215.47 312.83,-179.27 293.62,-141 282.31,-118.45 283.53,-110.81 280.62,-85.75 279.06,-72.28 275.02,-67.59 280.62,-55.25 286,-43.4 296.26,-33.45 306.17,-25.98"/>
<polygon fill="#63b8ff" stroke="#63b8ff" points="307.92,-29.03 314.16,-20.46 303.94,-23.27 307.92,-29.03"/>
</a>
</g>
</g>
<!-- Node16&#45;&gt;Node14 -->
<g id="edge18_Node000016_Node000014" class="edge">
<title>Node16&#45;&gt;Node14</title>
<g id="a_edge18_Node000016_Node000014"><a xlink:title=" ">
<path fill="none" stroke="#63b8ff" d="M404.23,-231.85C429.29,-223.21 467.77,-209.54 500.62,-196.25 520.04,-188.4 523.57,-183.01 543.62,-177 619.7,-154.2 711.36,-142.26 767.03,-136.65"/>
<polygon fill="#63b8ff" stroke="#63b8ff" points="767.22,-140.15 776.83,-135.69 766.54,-133.18 767.22,-140.15"/>
</a>
</g>
</g>
<!-- Node17 -->
<g id="Node000017" class="node">
<title>Node17</title>
<g id="a_Node000017"><a xlink:href="serializable_8h.html" target="_top" xlink:title=" ">
<polygon fill="white" stroke="#666666" points="491.12,-196.25 418.12,-196.25 418.12,-177 491.12,-177 491.12,-196.25"/>
<text text-anchor="middle" x="454.62" y="-182.75" font-family="Helvetica,sans-Serif" font-size="10.00">serializable.h</text>
</a>
</g>
</g>
<!-- Node16&#45;&gt;Node17 -->
<g id="edge20_Node000016_Node000017" class="edge">
<title>Node16&#45;&gt;Node17</title>
<g id="a_edge20_Node000016_Node000017"><a xlink:title=" ">
<path fill="none" stroke="#63b8ff" d="M390.69,-231.84C402.08,-223.96 418.85,-212.36 432.36,-203.02"/>
<polygon fill="#63b8ff" stroke="#63b8ff" points="434.02,-206.13 440.25,-197.56 430.04,-200.37 434.02,-206.13"/>
</a>
</g>
</g>
<!-- Node17&#45;&gt;Node2 -->
<g id="edge21_Node000017_Node000002" class="edge">
<title>Node17&#45;&gt;Node2</title>
<g id="a_edge21_Node000017_Node000002"><a xlink:title=" ">
<path fill="none" stroke="#63b8ff" d="M433.93,-176.59C414.74,-168.22 385.91,-155.63 363.91,-146.03"/>
<polygon fill="#63b8ff" stroke="#63b8ff" points="365.37,-142.85 354.81,-142.06 362.57,-149.27 365.37,-142.85"/>
</a>
</g>
</g>
<!-- Node17&#45;&gt;Node6 -->
<g id="edge23_Node000017_Node000006" class="edge">
<title>Node17&#45;&gt;Node6</title>
<g id="a_edge23_Node000017_Node000006"><a xlink:title=" ">
<path fill="none" stroke="#63b8ff" d="M449.11,-176.54C435.93,-154.99 401.23,-99.26 368.62,-55.25 361.82,-46.07 353.77,-36.25 346.92,-28.17"/>
<polygon fill="#63b8ff" stroke="#63b8ff" points="349.74,-26.07 340.56,-20.77 344.43,-30.63 349.74,-26.07"/>
</a>
</g>
</g>
<!-- Node17&#45;&gt;Node14 -->
<g id="edge22_Node000017_Node000014" class="edge">
<title>Node17&#45;&gt;Node14</title>
<g id="a_edge22_Node000017_Node000014"><a xlink:title=" ">
<path fill="none" stroke="#63b8ff" d="M491.38,-179.29C496.17,-178.5 501.01,-177.72 505.62,-177 597.56,-162.65 705.01,-147.68 766.81,-139.24"/>
<polygon fill="#63b8ff" stroke="#63b8ff" points="767.24,-142.71 776.68,-137.89 766.29,-135.78 767.24,-142.71"/>
</a>
</g>
</g>
<!-- Node18&#45;&gt;Node10 -->
<g id="edge26_Node000018_Node000010" class="edge">
<title>Node18&#45;&gt;Node10</title>
<g id="a_edge26_Node000018_Node000010"><a xlink:title=" ">
<path fill="none" stroke="#63b8ff" d="M713.29,-231.84C721.37,-224.3 733.09,-213.35 742.85,-204.23"/>
<polygon fill="#63b8ff" stroke="#63b8ff" points="745.07,-206.94 749.99,-197.56 740.3,-201.83 745.07,-206.94"/>
</a>
</g>
</g>
<!-- Node19 -->
<g id="Node000019" class="node">
<title>Node19</title>
<g id="a_Node000019"><a xlink:title=" ">
<polygon fill="#e0e0e0" stroke="#999999" points="713.75,-196.25 647.5,-196.25 647.5,-177 713.75,-177 713.75,-196.25"/>
<text text-anchor="middle" x="680.62" y="-182.75" font-family="Helvetica,sans-Serif" font-size="10.00">forward_list</text>
</a>
</g>
</g>
<!-- Node18&#45;&gt;Node19 -->
<g id="edge25_Node000018_Node000019" class="edge">
<title>Node18&#45;&gt;Node19</title>
<g id="a_edge25_Node000018_Node000019"><a xlink:title=" ">
<path fill="none" stroke="#63b8ff" d="M699.83,-232.08C696.88,-225.26 692.69,-215.56 688.97,-206.95"/>
<polygon fill="#63b8ff" stroke="#63b8ff" points="692.28,-205.79 685.11,-198 685.86,-208.57 692.28,-205.79"/>
</a>
</g>
</g>
<!-- Node20 -->
<g id="Node000020" class="node">
<title>Node20</title>
<g id="a_Node000020"><a xlink:title=" ">
<polygon fill="#e0e0e0" stroke="#999999" points="629.12,-196.25 586.12,-196.25 586.12,-177 629.12,-177 629.12,-196.25"/>
<text text-anchor="middle" x="607.62" y="-182.75" font-family="Helvetica,sans-Serif" font-size="10.00">vector</text>
</a>
</g>
</g>
<!-- Node18&#45;&gt;Node20 -->
<g id="edge27_Node000018_Node000020" class="edge">
<title>Node18&#45;&gt;Node20</title>
<g id="a_edge27_Node000018_Node000020"><a xlink:title=" ">
<path fill="none" stroke="#63b8ff" d="M687.34,-231.84C672.72,-223.73 651,-211.68 633.92,-202.21"/>
<polygon fill="#63b8ff" stroke="#63b8ff" points="635.76,-199.23 625.31,-197.44 632.36,-205.35 635.76,-199.23"/>
</a>
</g>
</g>
<!-- Node21&#45;&gt;Node6 -->
<g id="edge32_Node000021_Node000006" class="edge">
<title>Node21&#45;&gt;Node6</title>
<g id="a_edge32_Node000021_Node000006"><a xlink:title=" ">
<path fill="none" stroke="#63b8ff" d="M378.99,-294.2C307.29,-288.26 199.62,-266.24 199.62,-187.62 199.62,-187.62 199.62,-187.62 199.62,-130.38 199.62,-77.77 257.84,-42.22 296.95,-24.27"/>
<polygon fill="#63b8ff" stroke="#63b8ff" points="298.28,-27.51 306.03,-20.29 295.47,-21.11 298.28,-27.51"/>
</a>
</g>
</g>
<!-- Node21&#45;&gt;Node14 -->
<g id="edge33_Node000021_Node000014" class="edge">
<title>Node21&#45;&gt;Node14</title>
<g id="a_edge33_Node000021_Node000014"><a xlink:title=" ">
<path fill="none" stroke="#63b8ff" d="M448.72,-287.07C467.18,-264.23 519.32,-204.22 577.62,-177 638.91,-148.4 717.04,-138.11 767.21,-134.42"/>
<polygon fill="#63b8ff" stroke="#63b8ff" points="767.14,-137.94 776.89,-133.78 766.68,-130.95 767.14,-137.94"/>
</a>
</g>
</g>
<!-- Node21&#45;&gt;Node16 -->
<g id="edge34_Node000021_Node000016" class="edge">
<title>Node21&#45;&gt;Node16</title>
<g id="a_edge34_Node000021_Node000016"><a xlink:title=" ">
<path fill="none" stroke="#63b8ff" d="M430.77,-287.09C421.52,-279.4 408,-268.15 396.92,-258.93"/>
<polygon fill="#63b8ff" stroke="#63b8ff" points="399.41,-256.45 389.48,-252.74 394.93,-261.83 399.41,-256.45"/>
</a>
</g>
</g>
<!-- Node21&#45;&gt;Node20 -->
<g id="edge31_Node000021_Node000020" class="edge">
<title>Node21&#45;&gt;Node20</title>
<g id="a_edge31_Node000021_Node000020"><a xlink:title=" ">
<path fill="none" stroke="#63b8ff" d="M455.49,-287.06C484,-268.43 549.46,-225.65 584.49,-202.75"/>
<polygon fill="#63b8ff" stroke="#63b8ff" points="586.19,-205.82 592.65,-197.42 582.36,-199.96 586.19,-205.82"/>
</a>
</g>
</g>
<!-- Node22 -->
<g id="Node000022" class="node">
<title>Node22</title>
<g id="a_Node000022"><a xlink:title=" ">
<polygon fill="#e0e0e0" stroke="#999999" points="462,-251.5 427.25,-251.5 427.25,-232.25 462,-232.25 462,-251.5"/>
<text text-anchor="middle" x="444.62" y="-238" font-family="Helvetica,sans-Serif" font-size="10.00">map</text>
</a>
</g>
</g>
<!-- Node21&#45;&gt;Node22 -->
<g id="edge29_Node000021_Node000022" class="edge">
<title>Node21&#45;&gt;Node22</title>
<g id="a_edge29_Node000021_Node000022"><a xlink:title=" ">
<path fill="none" stroke="#63b8ff" d="M442.12,-287.33C442.49,-280.74 443.01,-271.46 443.49,-263.07"/>
<polygon fill="#63b8ff" stroke="#63b8ff" points="446.97,-263.55 444.03,-253.37 439.98,-263.16 446.97,-263.55"/>
</a>
</g>
</g>
<!-- Node23 -->
<g id="Node000023" class="node">
<title>Node23</title>
<g id="a_Node000023"><a xlink:title=" ">
<polygon fill="#e0e0e0" stroke="#999999" points="611.25,-251.5 560,-251.5 560,-232.25 611.25,-232.25 611.25,-251.5"/>
<text text-anchor="middle" x="585.62" y="-238" font-family="Helvetica,sans-Serif" font-size="10.00">memory</text>
</a>
</g>
</g>
<!-- Node21&#45;&gt;Node23 -->
<g id="edge30_Node000021_Node000023" class="edge">
<title>Node21&#45;&gt;Node23</title>
<g id="a_edge30_Node000021_Node000023"><a xlink:title=" ">
<path fill="none" stroke="#63b8ff" d="M466.05,-287.09C489.22,-278.52 524.29,-265.56 550.46,-255.88"/>
<polygon fill="#63b8ff" stroke="#63b8ff" points="551.49,-259.23 559.66,-252.48 549.06,-252.66 551.49,-259.23"/>
</a>
</g>
</g>
<!-- Node24&#45;&gt;Node14 -->
<g id="edge36_Node000024_Node000014" class="edge">
<title>Node24&#45;&gt;Node14</title>
<g id="a_edge36_Node000024_Node000014"><a xlink:title=" ">
<path fill="none" stroke="#63b8ff" d="M758.13,-287.21C766.75,-269.95 785.82,-230.65 798.62,-196.25 804.07,-181.62 809.05,-164.68 812.55,-151.92"/>
<polygon fill="#63b8ff" stroke="#63b8ff" points="815.82,-153.2 815.02,-142.64 809.06,-151.4 815.82,-153.2"/>
</a>
</g>
</g>
<!-- Node24&#45;&gt;Node18 -->
<g id="edge38_Node000024_Node000018" class="edge">
<title>Node24&#45;&gt;Node18</title>
<g id="a_edge38_Node000024_Node000018"><a xlink:title=" ">
<path fill="none" stroke="#63b8ff" d="M745.37,-287.33C738.46,-279.98 728.4,-269.26 719.89,-260.19"/>
<polygon fill="#63b8ff" stroke="#63b8ff" points="722.49,-257.86 713.1,-252.96 717.39,-262.65 722.49,-257.86"/>
</a>
</g>
</g>
<!-- Node24&#45;&gt;Node23 -->
<g id="edge37_Node000024_Node000023" class="edge">
<title>Node24&#45;&gt;Node23</title>
<g id="a_edge37_Node000024_Node000023"><a xlink:title=" ">
<path fill="none" stroke="#63b8ff" d="M725.13,-287.09C696.78,-278.11 653.17,-264.28 622.26,-254.49"/>
<polygon fill="#63b8ff" stroke="#63b8ff" points="623.53,-251.22 612.94,-251.53 621.42,-257.89 623.53,-251.22"/>
</a>
</g>
</g>
<!-- Node25 -->
<g id="Node000025" class="node">
<title>Node25</title>
<g id="a_Node000025"><a xlink:href="valueconsumer_8h.html" target="_top" xlink:title=" ">
<polygon fill="white" stroke="#666666" points="969.38,-251.5 879.88,-251.5 879.88,-232.25 969.38,-232.25 969.38,-251.5"/>
<text text-anchor="middle" x="924.62" y="-238" font-family="Helvetica,sans-Serif" font-size="10.00">valueconsumer.h</text>
</a>
</g>
</g>
<!-- Node24&#45;&gt;Node25 -->
<g id="edge39_Node000024_Node000025" class="edge">
<title>Node24&#45;&gt;Node25</title>
<g id="a_edge39_Node000024_Node000025"><a xlink:title=" ">
<path fill="none" stroke="#63b8ff" d="M782.63,-287.09C810.64,-278.37 853.28,-265.09 884.53,-255.36"/>
<polygon fill="#63b8ff" stroke="#63b8ff" points="885.52,-258.72 894.03,-252.4 883.44,-252.03 885.52,-258.72"/>
</a>
</g>
</g>
<!-- Node25&#45;&gt;Node2 -->
<g id="edge40_Node000025_Node000002" class="edge">
<title>Node25&#45;&gt;Node2</title>
<g id="a_edge40_Node000025_Node000002"><a xlink:title=" ">
<path fill="none" stroke="#63b8ff" d="M910.98,-231.78C888.6,-217.37 842.2,-189.64 798.62,-177 719.59,-154.07 473.97,-139.49 374.79,-134.4"/>
<polygon fill="#63b8ff" stroke="#63b8ff" points="375.12,-130.91 364.96,-133.9 374.77,-137.91 375.12,-130.91"/>
</a>
</g>
</g>
<!-- Node25&#45;&gt;Node14 -->
<g id="edge41_Node000025_Node000014" class="edge">
<title>Node25&#45;&gt;Node14</title>
<g id="a_edge41_Node000025_Node000014"><a xlink:title=" ">
<path fill="none" stroke="#63b8ff" d="M931.14,-231.78C939.73,-218.58 952.44,-193.85 940.62,-177 924.33,-153.75 894.62,-142.56 868.48,-137.21"/>
<polygon fill="#63b8ff" stroke="#63b8ff" points="869.12,-133.76 858.66,-135.46 867.89,-140.66 869.12,-133.76"/>
</a>
</g>
</g>
<!-- Node26 -->
<g id="Node000026" class="node">
<title>Node26</title>
<g id="a_Node000026"><a xlink:title=" ">
<polygon fill="#e0e0e0" stroke="#999999" points="931.75,-196.25 883.5,-196.25 883.5,-177 931.75,-177 931.75,-196.25"/>
<text text-anchor="middle" x="907.62" y="-182.75" font-family="Helvetica,sans-Serif" font-size="10.00">stdint.h</text>
</a>
</g>
</g>
<!-- Node25&#45;&gt;Node26 -->
<g id="edge42_Node000025_Node000026" class="edge">
<title>Node25&#45;&gt;Node26</title>
<g id="a_edge42_Node000025_Node000026"><a xlink:title=" ">
<path fill="none" stroke="#63b8ff" d="M921.82,-232.08C919.69,-225.42 916.68,-215.99 913.98,-207.53"/>
<polygon fill="#63b8ff" stroke="#63b8ff" points="917.33,-206.51 910.95,-198.05 910.66,-208.64 917.33,-206.51"/>
</a>
</g>
</g>
<!-- Node27&#45;&gt;Node3 -->
<g id="edge46_Node000027_Node000003" class="edge">
<title>Node27&#45;&gt;Node3</title>
<g id="a_edge46_Node000027_Node000003"><a xlink:title=" ">
<path fill="none" stroke="#63b8ff" d="M105.34,-464.36C91.64,-441.7 67.62,-395.91 67.62,-353.38 67.62,-353.38 67.62,-353.38 67.62,-185.62 67.62,-94.45 204.4,-75.57 278.39,-72.02"/>
<polygon fill="#63b8ff" stroke="#63b8ff" points="278.33,-75.53 288.19,-71.63 278.05,-68.53 278.33,-75.53"/>
</a>
</g>
</g>
<!-- Node27&#45;&gt;Node15 -->
<g id="edge47_Node000027_Node000015" class="edge">
<title>Node27&#45;&gt;Node15</title>
<g id="a_edge47_Node000027_Node000015"><a xlink:title=" ">
<path fill="none" stroke="#63b8ff" d="M169.93,-468.83C178.53,-467.34 187.31,-465.85 195.62,-464.5 302.08,-447.15 333.53,-463.28 435.62,-428.5 478.44,-413.92 523.42,-385.95 549.14,-368.56"/>
<polygon fill="#63b8ff" stroke="#63b8ff" points="550.81,-371.66 557.07,-363.11 546.84,-365.89 550.81,-371.66"/>
</a>
</g>
</g>
<!-- Node28 -->
<g id="Node000028" class="node">
<title>Node28</title>
<g id="a_Node000028"><a xlink:title=" ">
<polygon fill="#e0e0e0" stroke="#999999" points="39.25,-422.88 0,-422.88 0,-403.62 39.25,-403.62 39.25,-422.88"/>
<text text-anchor="middle" x="19.62" y="-409.38" font-family="Helvetica,sans-Serif" font-size="10.00">limits</text>
</a>
</g>
</g>
<!-- Node27&#45;&gt;Node28 -->
<g id="edge44_Node000027_Node000028" class="edge">
<title>Node27&#45;&gt;Node28</title>
<g id="a_edge44_Node000027_Node000028"><a xlink:title=" ">
<path fill="none" stroke="#63b8ff" d="M93.07,-464.11C77.89,-453.81 57.61,-440.04 42.21,-429.58"/>
<polygon fill="#63b8ff" stroke="#63b8ff" points="44.39,-426.83 34.15,-424.11 40.45,-432.62 44.39,-426.83"/>
</a>
</g>
</g>
<!-- Node29 -->
<g id="Node000029" class="node">
<title>Node29</title>
<g id="a_Node000029"><a xlink:title=" ">
<polygon fill="#e0e0e0" stroke="#999999" points="159.75,-251.5 117.5,-251.5 117.5,-232.25 159.75,-232.25 159.75,-251.5"/>
<text text-anchor="middle" x="138.62" y="-238" font-family="Helvetica,sans-Serif" font-size="10.00">queue</text>
</a>
</g>
</g>
<!-- Node27&#45;&gt;Node29 -->
<g id="edge45_Node000027_Node000029" class="edge">
<title>Node27&#45;&gt;Node29</title>
<g id="a_edge45_Node000027_Node000029"><a xlink:title=" ">
<path fill="none" stroke="#63b8ff" d="M115.39,-464.03C116.76,-439.05 119.93,-386.77 124.62,-342.75 127.58,-315.06 132.27,-283.22 135.4,-263.07"/>
<polygon fill="#63b8ff" stroke="#63b8ff" points="138.82,-263.86 136.91,-253.43 131.9,-262.77 138.82,-263.86"/>
</a>
</g>
</g>
<!-- Node27&#45;&gt;Node30 -->
<g id="edge48_Node000027_Node000030" class="edge">
<title>Node27&#45;&gt;Node30</title>
<g id="a_edge48_Node000027_Node000030"><a xlink:title=" ">
<path fill="none" stroke="#63b8ff" d="M169.97,-464.91C216.28,-453.34 281.64,-437 325.49,-426.03"/>
<polygon fill="#63b8ff" stroke="#63b8ff" points="326.1,-429.49 334.96,-423.67 324.41,-422.7 326.1,-429.49"/>
</a>
</g>
</g>
<!-- Node30&#45;&gt;Node2 -->
<g id="edge49_Node000030_Node000002" class="edge">
<title>Node30&#45;&gt;Node2</title>
<g id="a_edge49_Node000030_Node000002"><a xlink:title=" ">
<path fill="none" stroke="#63b8ff" d="M373.69,-403.25C374.89,-389.09 375.24,-361.3 362.62,-342.75 344.49,-316.08 315.81,-334.64 299.62,-306.75 270.68,-256.87 281.57,-231.77 299.62,-177 302.93,-166.98 309.44,-157.37 315.81,-149.65"/>
<polygon fill="#63b8ff" stroke="#63b8ff" points="318.24,-152.19 322.29,-142.4 313.02,-147.53 318.24,-152.19"/>
</a>
</g>
</g>
<!-- Node30&#45;&gt;Node15 -->
<g id="edge55_Node000030_Node000015" class="edge">
<title>Node30&#45;&gt;Node15</title>
<g id="a_edge55_Node000030_Node000015"><a xlink:title=" ">
<path fill="none" stroke="#63b8ff" d="M403.13,-403.18C436.99,-393.11 491.83,-376.8 529.48,-365.61"/>
<polygon fill="#63b8ff" stroke="#63b8ff" points="530.05,-369.09 538.64,-362.89 528.05,-362.38 530.05,-369.09"/>
</a>
</g>
</g>
<!-- Node30&#45;&gt;Node23 -->
<g id="edge50_Node000030_Node000023" class="edge">
<title>Node30&#45;&gt;Node23</title>
<g id="a_edge50_Node000030_Node000023"><a xlink:title=" ">
<path fill="none" stroke="#63b8ff" d="M385.22,-403.23C410.03,-385.37 466.8,-343.98 512.62,-306.75 531.89,-291.1 553.17,-272.29 567.76,-259.15"/>
<polygon fill="#63b8ff" stroke="#63b8ff" points="569.72,-262.11 574.78,-252.8 565.02,-256.92 569.72,-262.11"/>
</a>
</g>
</g>
<!-- Node31 -->
<g id="Node000031" class="node">
<title>Node31</title>
<g id="a_Node000031"><a xlink:title=" ">
<polygon fill="#e0e0e0" stroke="#999999" points="353.62,-362 295.62,-362 295.62,-342.75 353.62,-342.75 353.62,-362"/>
<text text-anchor="middle" x="324.62" y="-348.5" font-family="Helvetica,sans-Serif" font-size="10.00">esp_log.h</text>
</a>
</g>
</g>
<!-- Node30&#45;&gt;Node31 -->
<g id="edge51_Node000030_Node000031" class="edge">
<title>Node30&#45;&gt;Node31</title>
<g id="a_edge51_Node000030_Node000031"><a xlink:title=" ">
<path fill="none" stroke="#63b8ff" d="M365.33,-403.31C358.43,-394.84 347.85,-381.87 339.21,-371.27"/>
<polygon fill="#63b8ff" stroke="#63b8ff" points="341.97,-369.11 332.94,-363.57 336.55,-373.54 341.97,-369.11"/>
</a>
</g>
</g>
<!-- Node32 -->
<g id="Node000032" class="node">
<title>Node32</title>
<g id="a_Node000032"><a xlink:href="filesystem_8h.html" target="_top" xlink:title=" ">
<polygon fill="white" stroke="#666666" points="277.75,-362 133.5,-362 133.5,-342.75 277.75,-342.75 277.75,-362"/>
<text text-anchor="middle" x="205.62" y="-348.5" font-family="Helvetica,sans-Serif" font-size="10.00">sensesp/system/filesystem.h</text>
</a>
</g>
</g>
<!-- Node30&#45;&gt;Node32 -->
<g id="edge52_Node000030_Node000032" class="edge">
<title>Node30&#45;&gt;Node32</title>
<g id="a_edge52_Node000030_Node000032"><a xlink:title=" ">
<path fill="none" stroke="#63b8ff" d="M346.9,-403.18C318.82,-393.28 273.66,-377.36 241.98,-366.19"/>
<polygon fill="#63b8ff" stroke="#63b8ff" points="243.4,-362.98 232.81,-362.96 241.08,-369.58 243.4,-362.98"/>
</a>
</g>
</g>
<!-- Node33 -->
<g id="Node000033" class="node">
<title>Node33</title>
<g id="a_Node000033"><a xlink:href="resettable_8h.html" target="_top" xlink:title=" ">
<polygon fill="white" stroke="#666666" points="229.12,-306.75 162.12,-306.75 162.12,-287.5 229.12,-287.5 229.12,-306.75"/>
<text text-anchor="middle" x="195.62" y="-293.25" font-family="Helvetica,sans-Serif" font-size="10.00">resettable.h</text>
</a>
</g>
</g>
<!-- Node32&#45;&gt;Node33 -->
<g id="edge53_Node000032_Node000033" class="edge">
<title>Node32&#45;&gt;Node33</title>
<g id="a_edge53_Node000032_Node000033"><a xlink:title=" ">
<path fill="none" stroke="#63b8ff" d="M203.97,-342.58C202.74,-335.99 200.99,-326.71 199.42,-318.32"/>
<polygon fill="#63b8ff" stroke="#63b8ff" points="202.88,-317.78 197.59,-308.6 196,-319.07 202.88,-317.78"/>
</a>
</g>
</g>
<!-- Node33&#45;&gt;Node29 -->
<g id="edge54_Node000033_Node000029" class="edge">
<title>Node33&#45;&gt;Node29</title>
<g id="a_edge54_Node000033_Node000029"><a xlink:title=" ">
<path fill="none" stroke="#63b8ff" d="M185.96,-287.09C177.88,-279.55 166.16,-268.6 156.4,-259.48"/>
<polygon fill="#63b8ff" stroke="#63b8ff" points="158.95,-257.08 149.26,-252.81 154.18,-262.19 158.95,-257.08"/>
</a>
</g>
</g>
<!-- Node34&#45;&gt;Node21 -->
<g id="edge58_Node000034_Node000021" class="edge">
<title>Node34&#45;&gt;Node21</title>
<g id="a_edge58_Node000034_Node000021"><a xlink:title=" ">
<path fill="none" stroke="#63b8ff" d="M683.86,-397.77C683.29,-381.93 679.81,-356.91 664.62,-342.75 643.25,-322.81 572.02,-311.01 515.74,-304.6"/>
<polygon fill="#63b8ff" stroke="#63b8ff" points="516.17,-301.13 505.85,-303.52 515.41,-308.09 516.17,-301.13"/>
</a>
</g>
</g>
<!-- Node35 -->
<g id="Node000035" class="node">
<title>Node35</title>
<g id="a_Node000035"><a xlink:href="transform_8h.html" target="_top" xlink:title=" ">
<polygon fill="white" stroke="#666666" points="777.38,-362 711.88,-362 711.88,-342.75 777.38,-342.75 777.38,-362"/>
<text text-anchor="middle" x="744.62" y="-348.5" font-family="Helvetica,sans-Serif" font-size="10.00">transform.h</text>
</a>
</g>
</g>
<!-- Node34&#45;&gt;Node35 -->
<g id="edge59_Node000034_Node000035" class="edge">
<title>Node34&#45;&gt;Node35</title>
<g id="a_edge59_Node000034_Node000035"><a xlink:title=" ">
<path fill="none" stroke="#63b8ff" d="M698.7,-397.7C707.28,-389.42 718.06,-379.02 727.02,-370.37"/>
<polygon fill="#63b8ff" stroke="#63b8ff" points="729.37,-372.97 734.13,-363.5 724.51,-367.93 729.37,-372.97"/>
</a>
</g>
</g>
<!-- Node35&#45;&gt;Node2 -->
<g id="edge60_Node000035_Node000002" class="edge">
<title>Node35&#45;&gt;Node2</title>
<g id="a_edge60_Node000035_Node000002"><a xlink:title=" ">
<path fill="none" stroke="#63b8ff" d="M734.12,-342.32C723.89,-333.43 707.97,-319.4 694.62,-306.75 660.76,-274.64 662.04,-253.75 620.62,-232.25 536.19,-188.41 496.07,-235.97 409.62,-196.25 385.32,-185.08 362.38,-164.23 347.97,-149.39"/>
<polygon fill="#63b8ff" stroke="#63b8ff" points="350.59,-147.07 341.2,-142.17 345.49,-151.86 350.59,-147.07"/>
</a>
</g>
</g>
<!-- Node35&#45;&gt;Node12 -->
<g id="edge62_Node000035_Node000012" class="edge">
<title>Node35&#45;&gt;Node12</title>
<g id="a_edge62_Node000035_Node000012"><a xlink:title=" ">
<path fill="none" stroke="#63b8ff" d="M771.77,-342.34C801.68,-332.39 849.43,-316.5 878.8,-306.72"/>
<polygon fill="#63b8ff" stroke="#63b8ff" points="879.62,-310.13 888.01,-303.66 877.41,-303.49 879.62,-310.13"/>
</a>
</g>
</g>
<!-- Node35&#45;&gt;Node14 -->
<g id="edge61_Node000035_Node000014" class="edge">
<title>Node35&#45;&gt;Node14</title>
<g id="a_edge61_Node000035_Node000014"><a xlink:title=" ">
<path fill="none" stroke="#63b8ff" d="M766.55,-342.34C787.18,-333.68 818.82,-320.01 845.62,-306.75 861.54,-298.88 864.47,-294.86 880.62,-287.5 922.85,-268.26 952.07,-289.55 978.62,-251.5 993.63,-230.01 970.47,-189.93 956.62,-177 932.59,-154.55 897.2,-143.39 868.15,-137.85"/>
<polygon fill="#63b8ff" stroke="#63b8ff" points="868.9,-134.43 858.45,-136.18 867.71,-141.33 868.9,-134.43"/>
</a>
</g>
</g>
<!-- Node35&#45;&gt;Node16 -->
<g id="edge64_Node000035_Node000016" class="edge">
<title>Node35&#45;&gt;Node16</title>
<g id="a_edge64_Node000035_Node000016"><a xlink:title=" ">
<path fill="none" stroke="#63b8ff" d="M713.97,-342.31C648.26,-322.88 493.79,-277.22 419.28,-255.19"/>
<polygon fill="#63b8ff" stroke="#63b8ff" points="420.49,-251.9 409.91,-252.42 418.5,-258.61 420.49,-251.9"/>
</a>
</g>
</g>
<!-- Node35&#45;&gt;Node18 -->
<g id="edge63_Node000035_Node000018" class="edge">
<title>Node35&#45;&gt;Node18</title>
<g id="a_edge63_Node000035_Node000018"><a xlink:title=" ">
<path fill="none" stroke="#63b8ff" d="M732.01,-342.39C721.92,-334.36 708.51,-321.58 702.62,-306.75 697.11,-292.84 697.68,-275.86 699.46,-262.9"/>
<polygon fill="#63b8ff" stroke="#63b8ff" points="702.84,-263.88 701.12,-253.43 695.95,-262.68 702.84,-263.88"/>
</a>
</g>
</g>
<!-- Node35&#45;&gt;Node24 -->
<g id="edge66_Node000035_Node000024" class="edge">
<title>Node35&#45;&gt;Node24</title>
<g id="a_edge66_Node000035_Node000024"><a xlink:title=" ">
<path fill="none" stroke="#63b8ff" d="M746.11,-342.58C747.22,-335.99 748.79,-326.71 750.21,-318.32"/>
<polygon fill="#63b8ff" stroke="#63b8ff" points="753.64,-319.05 751.85,-308.6 746.74,-317.88 753.64,-319.05"/>
</a>
</g>
</g>
<!-- Node35&#45;&gt;Node25 -->
<g id="edge65_Node000035_Node000025" class="edge">
<title>Node35&#45;&gt;Node25</title>
<g id="a_edge65_Node000035_Node000025"><a xlink:title=" ">
<path fill="none" stroke="#63b8ff" d="M758.87,-342.35C778.67,-329.86 815.68,-306.65 847.62,-287.5 864.64,-277.3 883.95,-266.11 898.98,-257.48"/>
<polygon fill="#63b8ff" stroke="#63b8ff" points="900.36,-260.72 907.3,-252.72 896.89,-254.65 900.36,-260.72"/>
</a>
</g>
</g>
</g>
</svg>

<g id="navigator" transform="translate(0 0)" fill="#404254">
  <rect fill="#f2f5e9" fill-opacity="0.5" stroke="#606060" stroke-width=".5" x="0" y="0" width="60" height="60"/>
  <use id="zoomplus" xlink:href="#zoomPlus" x="17" y="9" onmousedown="handleZoom(evt,'in')"/>
  <use id="zoomminus" xlink:href="#zoomMin" x="42" y="9" onmousedown="handleZoom(evt,'out')"/>
  <use id="reset" xlink:href="#resetDef" x="30" y="36" onmousedown="handleReset()"/>
   <use id="arrowup" xlink:href="#arrowUp" x="0" y="0" onmousedown="handlePan(0,-1)"/>
  <use id="arrowright" xlink:href="#arrowRight" x="0" y="0" onmousedown="handlePan(1,0)"/>
  <use id="arrowdown" xlink:href="#arrowDown" x="0" y="0" onmousedown="handlePan(0,1)"/>
  <use id="arrowleft" xlink:href="#arrowLeft" x="0" y="0" onmousedown="handlePan(-1,0)"/>
</g>
<svg viewBox="0 0 15 15" width="100%" height="30px" preserveAspectRatio="xMaxYMin meet">
 <g id="arrow_out" transform="scale(0.3 0.3)">
  <a xlink:href="signalk__ws__client_8h__incl_org.svg" target="_base">
   <rect id="button" ry="5" rx="5" y="6" x="6" height="38" width="38"
        fill="#f2f5e9" fill-opacity="0.5" stroke="#606060" stroke-width="1.0"/>
   <path id="arrow"
     d="M 11.500037,31.436501 C 11.940474,20.09759 22.043105,11.32322 32.158766,21.979434 L 37.068811,17.246167 C 37.068811,17.246167 37.088388,32 37.088388,32 L 22.160133,31.978069 C 22.160133,31.978069 26.997745,27.140456 26.997745,27.140456 C 18.528582,18.264221 13.291696,25.230495 11.500037,31.436501 z"
     style="fill:#404040;"/>
  </a>
 </g>
</svg>

<style type='text/css'>
<![CDATA[
[data-mouse-over-selected='false'] { opacity: 0.7; }
[data-mouse-over-selected='true']  { opacity: 1.0; }
]]>
</style>
<script type="application/ecmascript"><![CDATA[
document.addEventListener('DOMContentLoaded', (event) => {
  highlightEdges();
  highlightAdjacentNodes();
});
]]></script>
</svg>
