<?xml version="1.0" encoding="UTF-8" standalone="no"?>
<!DOCTYPE svg PUBLIC "-//W3C//DTD SVG 1.1//EN"
 "http://www.w3.org/Graphics/SVG/1.1/DTD/svg11.dtd">
<!-- Generated by graphviz version 14.1.1 (20251213.1925)
 -->
<!-- Title: src/sensesp/signalk/signalk_metadata.h Pages: 1 -->
<!--zoomable 305 -->

<svg id="main" version="1.1" xmlns="http://www.w3.org/2000/svg" xmlns:xlink="http://www.w3.org/1999/xlink" xml:space="preserve" onload="init(evt)">

<style type="text/css"><![CDATA[
.node, .edge {opacity: 0.7;}
.node.selected, .edge.selected {opacity: 1;}
.edge:hover path { stroke: red; }
.edge:hover polygon { stroke: red; fill: red; }
]]></style>

<defs>
  <circle id="rim" cx="0" cy="0" r="7"/>
  <circle id="rim2" cx="0" cy="0" r="3.5"/>
  <g id="zoomPlus">
    <use xlink:href="#rim" fill="#404040"><set attributeName="fill" to="#808080" begin="zoomplus.mouseover" end="zoomplus.mouseout"/></use>
    <path d="M-4,0h8M0,-4v8" fill="none" stroke="white" stroke-width="1.5" pointer-events="none"/>
  </g>
  <g id="zoomMin">
    <use xlink:href="#rim" fill="#404040"><set attributeName="fill" to="#808080" begin="zoomminus.mouseover" end="zoomminus.mouseout"/></use>
    <path d="M-4,0h8" fill="none" stroke="white" stroke-width="1.5" pointer-events="none"/>
  </g>
  <g id="arrowUp" transform="translate(30 24)">
    <use xlink:href="#rim"/>
    <path pointer-events="none" fill="none" stroke="white" stroke-width="1.5" d="M0,-3.0v7 M-2.5,-0.5L0,-3.0L2.5,-0.5"/>
  </g>
  <g id="arrowRight" transform="rotate(90) translate(36 -43)">
    <use xlink:href="#rim"/>
    <path pointer-events="none" fill="none" stroke="white" stroke-width="1.5" d="M0,-3.0v7 M-2.5,-0.5L0,-3.0L2.5,-0.5"/>
  </g>
  <g id="arrowDown" transform="rotate(180) translate(-30 -48)">
    <use xlink:href="#rim"/>
    <path pointer-events="none" fill="none" stroke="white" stroke-width="1.5" d="M0,-3.0v7 M-2.5,-0.5L0,-3.0L2.5,-0.5"/>
  </g>
  <g id="arrowLeft" transform="rotate(270) translate(-36 17)">
    <use xlink:href="#rim"/>
    <path pointer-events="none" fill="none" stroke="white" stroke-width="1.5" d="M0,-3.0v7 M-2.5,-0.5L0,-3.0L2.5,-0.5"/>
  </g>
  <g id="resetDef">
    <use xlink:href="#rim2" fill="#404040"><set attributeName="fill" to="#808080" begin="reset.mouseover" end="reset.mouseout"/></use>
  </g>
</defs>
<script type="application/ecmascript">
var viewWidth = 560;
var viewHeight = 305;
var sectionId = 'dynsection-1';
</script>
<script type="application/ecmascript" xlink:href="svg.min.js"/>
<svg id="graph" class="graph">
<g id="viewport">
<title>src/sensesp/signalk/signalk_metadata.h</title>
<!-- Node1 -->
<g id="Node000001" class="node">
<title>Node1</title>
<g id="a_Node000001"><a xlink:title=" ">
<polygon fill="#999999" stroke="#666666" points="373.25,-296.5 269.5,-296.5 269.5,-266 373.25,-266 373.25,-296.5"/>
<text xml:space="preserve" text-anchor="start" x="277.5" y="-283" font-family="Helvetica,sans-Serif" font-size="10.00">src/sensesp/signalk</text>
<text xml:space="preserve" text-anchor="middle" x="321.38" y="-271.75" font-family="Helvetica,sans-Serif" font-size="10.00">/signalk_metadata.h</text>
</a>
</g>
</g>
<!-- Node2 -->
<g id="Node000002" class="node">
<title>Node2</title>
<g id="a_Node000002"><a xlink:href="signalk__emitter_8h.html" target="_top" xlink:title=" ">
<polygon fill="white" stroke="#666666" points="309.88,-230 206.88,-230 206.88,-199.5 309.88,-199.5 309.88,-230"/>
<text xml:space="preserve" text-anchor="start" x="214.88" y="-216.5" font-family="Helvetica,sans-Serif" font-size="10.00">src/sensesp/signalk</text>
<text xml:space="preserve" text-anchor="middle" x="258.38" y="-205.25" font-family="Helvetica,sans-Serif" font-size="10.00">/signalk_emitter.h</text>
</a>
</g>
</g>
<!-- Node1&#45;&gt;Node2 -->
<g id="edge1_Node000001_Node000002" class="edge">
<title>Node1&#45;&gt;Node2</title>
<g id="a_edge1_Node000001_Node000002"><a xlink:title=" ">
<path fill="none" stroke="#63b8ff" d="M299.07,-257.41C290.27,-248.4 280.42,-238.32 272.61,-230.33"/>
<polygon fill="#63b8ff" stroke="#63b8ff" points="296.53,-259.82 306.02,-264.53 301.54,-254.93 296.53,-259.82"/>
</a>
</g>
</g>
<!-- Node14 -->
<g id="Node000014" class="node">
<title>Node14</title>
<g id="a_Node000014"><a xlink:href="signalk__metadata_8cpp.html" target="_top" xlink:title=" ">
<polygon fill="white" stroke="#666666" points="442.5,-230 328.25,-230 328.25,-199.5 442.5,-199.5 442.5,-230"/>
<text xml:space="preserve" text-anchor="start" x="336.25" y="-216.5" font-family="Helvetica,sans-Serif" font-size="10.00">src/sensesp/signalk</text>
<text xml:space="preserve" text-anchor="middle" x="385.38" y="-205.25" font-family="Helvetica,sans-Serif" font-size="10.00">/signalk_metadata.cpp</text>
</a>
</g>
</g>
<!-- Node1&#45;&gt;Node14 -->
<g id="edge13_Node000001_Node000014" class="edge">
<title>Node1&#45;&gt;Node14</title>
<g id="a_edge13_Node000001_Node000014"><a xlink:title=" ">
<path fill="none" stroke="#63b8ff" d="M343.76,-257.69C352.77,-248.61 362.9,-238.4 370.91,-230.33"/>
<polygon fill="#63b8ff" stroke="#63b8ff" points="341.52,-254.98 336.96,-264.54 346.49,-259.91 341.52,-254.98"/>
</a>
</g>
</g>
<!-- Node3 -->
<g id="Node000003" class="node">
<title>Node3</title>
<g id="a_Node000003"><a xlink:href="signalk__delta__queue_8cpp.html" target="_top" xlink:title=" ">
<polygon fill="white" stroke="#666666" points="128.5,-163.5 2.25,-163.5 2.25,-133 128.5,-133 128.5,-163.5"/>
<text xml:space="preserve" text-anchor="start" x="10.25" y="-150" font-family="Helvetica,sans-Serif" font-size="10.00">src/sensesp/signalk</text>
<text xml:space="preserve" text-anchor="middle" x="65.38" y="-138.75" font-family="Helvetica,sans-Serif" font-size="10.00">/signalk_delta_queue.cpp</text>
</a>
</g>
</g>
<!-- Node2&#45;&gt;Node3 -->
<g id="edge2_Node000002_Node000003" class="edge">
<title>Node2&#45;&gt;Node3</title>
<g id="a_edge2_Node000002_Node000003"><a xlink:title=" ">
<path fill="none" stroke="#63b8ff" d="M203.89,-195.54C173.99,-185.55 137.39,-173.32 109.33,-163.94"/>
<polygon fill="#63b8ff" stroke="#63b8ff" points="202.55,-198.78 213.14,-198.63 204.77,-192.14 202.55,-198.78"/>
</a>
</g>
</g>
<!-- Node4 -->
<g id="Node000004" class="node">
<title>Node4</title>
<g id="a_Node000004"><a xlink:href="signalk__emitter_8cpp.html" target="_top" xlink:title=" ">
<polygon fill="white" stroke="#666666" points="249.88,-163.5 146.88,-163.5 146.88,-133 249.88,-133 249.88,-163.5"/>
<text xml:space="preserve" text-anchor="start" x="154.88" y="-150" font-family="Helvetica,sans-Serif" font-size="10.00">src/sensesp/signalk</text>
<text xml:space="preserve" text-anchor="middle" x="198.38" y="-138.75" font-family="Helvetica,sans-Serif" font-size="10.00">/signalk_emitter.cpp</text>
</a>
</g>
</g>
<!-- Node2&#45;&gt;Node4 -->
<g id="edge3_Node000002_Node000004" class="edge">
<title>Node2&#45;&gt;Node4</title>
<g id="a_edge3_Node000002_Node000004"><a xlink:title=" ">
<path fill="none" stroke="#63b8ff" d="M237.13,-190.91C228.75,-181.9 219.37,-171.82 211.94,-163.83"/>
<polygon fill="#63b8ff" stroke="#63b8ff" points="234.36,-193.07 243.73,-198.01 239.48,-188.3 234.36,-193.07"/>
</a>
</g>
</g>
<!-- Node5 -->
<g id="Node000005" class="node">
<title>Node5</title>
<g id="a_Node000005"><a xlink:href="signalk__output_8h.html" target="_top" xlink:title=" ">
<polygon fill="white" stroke="#666666" points="370.88,-163.5 267.88,-163.5 267.88,-133 370.88,-133 370.88,-163.5"/>
<text xml:space="preserve" text-anchor="start" x="275.88" y="-150" font-family="Helvetica,sans-Serif" font-size="10.00">src/sensesp/signalk</text>
<text xml:space="preserve" text-anchor="middle" x="319.38" y="-138.75" font-family="Helvetica,sans-Serif" font-size="10.00">/signalk_output.h</text>
</a>
</g>
</g>
<!-- Node2&#45;&gt;Node5 -->
<g id="edge4_Node000002_Node000005" class="edge">
<title>Node2&#45;&gt;Node5</title>
<g id="a_edge4_Node000002_Node000005"><a xlink:title=" ">
<path fill="none" stroke="#63b8ff" d="M279.98,-190.91C288.5,-181.9 298.03,-171.82 305.59,-163.83"/>
<polygon fill="#63b8ff" stroke="#63b8ff" points="277.59,-188.34 273.26,-198.01 282.67,-193.15 277.59,-188.34"/>
</a>
</g>
</g>
<!-- Node12 -->
<g id="Node000012" class="node">
<title>Node12</title>
<g id="a_Node000012"><a xlink:href="signalk__time_8h.html" target="_top" xlink:title=" ">
<polygon fill="white" stroke="#666666" points="551.88,-163.5 448.88,-163.5 448.88,-133 551.88,-133 551.88,-163.5"/>
<text xml:space="preserve" text-anchor="start" x="456.88" y="-150" font-family="Helvetica,sans-Serif" font-size="10.00">src/sensesp/signalk</text>
<text xml:space="preserve" text-anchor="middle" x="500.38" y="-138.75" font-family="Helvetica,sans-Serif" font-size="10.00">/signalk_time.h</text>
</a>
</g>
</g>
<!-- Node2&#45;&gt;Node12 -->
<g id="edge11_Node000002_Node000012" class="edge">
<title>Node2&#45;&gt;Node12</title>
<g id="a_edge11_Node000002_Node000012"><a xlink:title=" ">
<path fill="none" stroke="#63b8ff" d="M321.4,-196.95C360.95,-186.41 411.32,-172.98 448.55,-163.06"/>
<polygon fill="#63b8ff" stroke="#63b8ff" points="320.51,-193.57 311.75,-199.52 322.32,-200.33 320.51,-193.57"/>
</a>
</g>
</g>
<!-- Node6 -->
<g id="Node000006" class="node">
<title>Node6</title>
<g id="a_Node000006"><a xlink:href="system__info_8h.html" target="_top" xlink:title=" ">
<polygon fill="white" stroke="#666666" points="188.75,-97 82,-97 82,-66.5 188.75,-66.5 188.75,-97"/>
<text xml:space="preserve" text-anchor="start" x="90" y="-83.5" font-family="Helvetica,sans-Serif" font-size="10.00">src/sensesp/sensors</text>
<text xml:space="preserve" text-anchor="middle" x="135.38" y="-72.25" font-family="Helvetica,sans-Serif" font-size="10.00">/system_info.h</text>
</a>
</g>
</g>
<!-- Node5&#45;&gt;Node6 -->
<g id="edge5_Node000005_Node000006" class="edge">
<title>Node5&#45;&gt;Node6</title>
<g id="a_edge5_Node000005_Node000006"><a xlink:title=" ">
<path fill="none" stroke="#63b8ff" d="M267.06,-128.91C238.62,-118.94 203.92,-106.78 177.28,-97.44"/>
<polygon fill="#63b8ff" stroke="#63b8ff" points="265.6,-132.11 276.19,-132.11 267.92,-125.5 265.6,-132.11"/>
</a>
</g>
</g>
<!-- Node9 -->
<g id="Node000009" class="node">
<title>Node9</title>
<g id="a_Node000009"><a xlink:href="signalk__output_8cpp.html" target="_top" xlink:title=" ">
<polygon fill="white" stroke="#666666" points="309.88,-97 206.88,-97 206.88,-66.5 309.88,-66.5 309.88,-97"/>
<text xml:space="preserve" text-anchor="start" x="214.88" y="-83.5" font-family="Helvetica,sans-Serif" font-size="10.00">src/sensesp/signalk</text>
<text xml:space="preserve" text-anchor="middle" x="258.38" y="-72.25" font-family="Helvetica,sans-Serif" font-size="10.00">/signalk_output.cpp</text>
</a>
</g>
</g>
<!-- Node5&#45;&gt;Node9 -->
<g id="edge8_Node000005_Node000009" class="edge">
<title>Node5&#45;&gt;Node9</title>
<g id="a_edge8_Node000005_Node000009"><a xlink:title=" ">
<path fill="none" stroke="#63b8ff" d="M297.77,-124.41C289.25,-115.4 279.72,-105.32 272.16,-97.33"/>
<polygon fill="#63b8ff" stroke="#63b8ff" points="295.08,-126.65 304.49,-131.51 300.16,-121.84 295.08,-126.65"/>
</a>
</g>
</g>
<!-- Node10 -->
<g id="Node000010" class="node">
<title>Node10</title>
<g id="a_Node000010"><a xlink:href="signalk__types_8h.html" target="_top" xlink:title=" ">
<polygon fill="white" stroke="#666666" points="430.88,-97 327.88,-97 327.88,-66.5 430.88,-66.5 430.88,-97"/>
<text xml:space="preserve" text-anchor="start" x="335.88" y="-83.5" font-family="Helvetica,sans-Serif" font-size="10.00">src/sensesp/signalk</text>
<text xml:space="preserve" text-anchor="middle" x="379.38" y="-72.25" font-family="Helvetica,sans-Serif" font-size="10.00">/signalk_types.h</text>
</a>
</g>
</g>
<!-- Node5&#45;&gt;Node10 -->
<g id="edge9_Node000005_Node000010" class="edge">
<title>Node5&#45;&gt;Node10</title>
<g id="a_edge9_Node000005_Node000010"><a xlink:title=" ">
<path fill="none" stroke="#63b8ff" d="M340.62,-124.41C349,-115.4 358.38,-105.32 365.81,-97.33"/>
<polygon fill="#63b8ff" stroke="#63b8ff" points="338.27,-121.8 334.02,-131.51 343.39,-126.57 338.27,-121.8"/>
</a>
</g>
</g>
<!-- Node7 -->
<g id="Node000007" class="node">
<title>Node7</title>
<g id="a_Node000007"><a xlink:href="system__info_8cpp.html" target="_top" xlink:title=" ">
<polygon fill="white" stroke="#666666" points="106.75,-30.5 0,-30.5 0,0 106.75,0 106.75,-30.5"/>
<text xml:space="preserve" text-anchor="start" x="8" y="-17" font-family="Helvetica,sans-Serif" font-size="10.00">src/sensesp/sensors</text>
<text xml:space="preserve" text-anchor="middle" x="53.38" y="-5.75" font-family="Helvetica,sans-Serif" font-size="10.00">/system_info.cpp</text>
</a>
</g>
</g>
<!-- Node6&#45;&gt;Node7 -->
<g id="edge6_Node000006_Node000007" class="edge">
<title>Node6&#45;&gt;Node7</title>
<g id="a_edge6_Node000006_Node000007"><a xlink:title=" ">
<path fill="none" stroke="#63b8ff" d="M107.75,-59.02C95.95,-49.73 82.48,-39.15 71.91,-30.83"/>
<polygon fill="#63b8ff" stroke="#63b8ff" points="105.55,-61.75 115.58,-65.18 109.88,-56.24 105.55,-61.75"/>
</a>
</g>
</g>
<!-- Node8 -->
<g id="Node000008" class="node">
<title>Node8</title>
<g id="a_Node000008"><a xlink:href="sensesp__app__builder_8h.html" target="_top" xlink:title=" ">
<polygon fill="white" stroke="#666666" points="256.12,-24.88 124.62,-24.88 124.62,-5.63 256.12,-5.63 256.12,-24.88"/>
<text xml:space="preserve" text-anchor="middle" x="190.38" y="-11.38" font-family="Helvetica,sans-Serif" font-size="10.00">src/sensesp_app_builder.h</text>
</a>
</g>
</g>
<!-- Node6&#45;&gt;Node8 -->
<g id="edge7_Node000006_Node000008" class="edge">
<title>Node6&#45;&gt;Node8</title>
<g id="a_edge7_Node000006_Node000008"><a xlink:title=" ">
<path fill="none" stroke="#63b8ff" d="M155.17,-57.54C164.77,-46.27 175.75,-33.41 182.85,-25.07"/>
<polygon fill="#63b8ff" stroke="#63b8ff" points="152.66,-55.08 148.84,-64.96 157.99,-59.62 152.66,-55.08"/>
</a>
</g>
</g>
<!-- Node11 -->
<g id="Node000011" class="node">
<title>Node11</title>
<g id="a_Node000011"><a xlink:href="signalk__types_8cpp.html" target="_top" xlink:title=" ">
<polygon fill="white" stroke="#666666" points="430.88,-30.5 327.88,-30.5 327.88,0 430.88,0 430.88,-30.5"/>
<text xml:space="preserve" text-anchor="start" x="335.88" y="-17" font-family="Helvetica,sans-Serif" font-size="10.00">src/sensesp/signalk</text>
<text xml:space="preserve" text-anchor="middle" x="379.38" y="-5.75" font-family="Helvetica,sans-Serif" font-size="10.00">/signalk_types.cpp</text>
</a>
</g>
</g>
<!-- Node10&#45;&gt;Node11 -->
<g id="edge10_Node000010_Node000011" class="edge">
<title>Node10&#45;&gt;Node11</title>
<g id="a_edge10_Node000010_Node000011"><a xlink:title=" ">
<path fill="none" stroke="#63b8ff" d="M379.38,-54.81C379.38,-46.64 379.38,-37.91 379.38,-30.83"/>
<polygon fill="#63b8ff" stroke="#63b8ff" points="375.88,-54.6 379.38,-64.6 382.88,-54.6 375.88,-54.6"/>
</a>
</g>
</g>
<!-- Node13 -->
<g id="Node000013" class="node">
<title>Node13</title>
<g id="a_Node000013"><a xlink:href="signalk__time_8cpp.html" target="_top" xlink:title=" ">
<polygon fill="white" stroke="#666666" points="551.88,-97 448.88,-97 448.88,-66.5 551.88,-66.5 551.88,-97"/>
<text xml:space="preserve" text-anchor="start" x="456.88" y="-83.5" font-family="Helvetica,sans-Serif" font-size="10.00">src/sensesp/signalk</text>
<text xml:space="preserve" text-anchor="middle" x="500.38" y="-72.25" font-family="Helvetica,sans-Serif" font-size="10.00">/signalk_time.cpp</text>
</a>
</g>
</g>
<!-- Node12&#45;&gt;Node13 -->
<g id="edge12_Node000012_Node000013" class="edge">
<title>Node12&#45;&gt;Node13</title>
<g id="a_edge12_Node000012_Node000013"><a xlink:title=" ">
<path fill="none" stroke="#63b8ff" d="M500.38,-121.31C500.38,-113.14 500.38,-104.41 500.38,-97.33"/>
<polygon fill="#63b8ff" stroke="#63b8ff" points="496.88,-121.1 500.38,-131.1 503.88,-121.1 496.88,-121.1"/>
</a>
</g>
</g>
</g>
</svg>

<g id="navigator" transform="translate(0 0)" fill="#404254">
  <rect fill="#f2f5e9" fill-opacity="0.5" stroke="#606060" stroke-width=".5" x="0" y="0" width="60" height="60"/>
  <use id="zoomplus" xlink:href="#zoomPlus" x="17" y="9" onmousedown="handleZoom(evt,'in')"/>
  <use id="zoomminus" xlink:href="#zoomMin" x="42" y="9" onmousedown="handleZoom(evt,'out')"/>
  <use id="reset" xlink:href="#resetDef" x="30" y="36" onmousedown="handleReset()"/>
   <use id="arrowup" xlink:href="#arrowUp" x="0" y="0" onmousedown="handlePan(0,-1)"/>
  <use id="arrowright" xlink:href="#arrowRight" x="0" y="0" onmousedown="handlePan(1,0)"/>
  <use id="arrowdown" xlink:href="#arrowDown" x="0" y="0" onmousedown="handlePan(0,1)"/>
  <use id="arrowleft" xlink:href="#arrowLeft" x="0" y="0" onmousedown="handlePan(-1,0)"/>
</g>
<svg viewBox="0 0 15 15" width="100%" height="30px" preserveAspectRatio="xMaxYMin meet">
 <g id="arrow_out" transform="scale(0.3 0.3)">
  <a xlink:href="signalk__metadata_8h__dep__incl_org.svg" target="_base">
   <rect id="button" ry="5" rx="5" y="6" x="6" height="38" width="38"
        fill="#f2f5e9" fill-opacity="0.5" stroke="#606060" stroke-width="1.0"/>
   <path id="arrow"
     d="M 11.500037,31.436501 C 11.940474,20.09759 22.043105,11.32322 32.158766,21.979434 L 37.068811,17.246167 C 37.068811,17.246167 37.088388,32 37.088388,32 L 22.160133,31.978069 C 22.160133,31.978069 26.997745,27.140456 26.997745,27.140456 C 18.528582,18.264221 13.291696,25.230495 11.500037,31.436501 z"
     style="fill:#404040;"/>
  </a>
 </g>
</svg>

<style type='text/css'>
<![CDATA[
[data-mouse-over-selected='false'] { opacity: 0.7; }
[data-mouse-over-selected='true']  { opacity: 1.0; }
]]>
</style>
<script type="application/ecmascript"><![CDATA[
document.addEventListener('DOMContentLoaded', (event) => {
  highlightEdges();
  highlightAdjacentNodes();
});
]]></script>
</svg>
