<?xml version="1.0" encoding="UTF-8" standalone="no"?>
<!DOCTYPE svg PUBLIC "-//W3C//DTD SVG 1.1//EN"
 "http://www.w3.org/Graphics/SVG/1.1/DTD/svg11.dtd">
<!-- Generated by graphviz version 12.2.1 (20241206.2353)
 -->
<!-- Title: src/sensesp/signalk/signalk_listener.cpp Pages: 1 -->
<svg width="920pt" height="437pt"
 viewBox="0.00 0.00 920.00 436.50" xmlns="http://www.w3.org/2000/svg" xmlns:xlink="http://www.w3.org/1999/xlink">
<g id="graph0" class="graph" transform="scale(1 1) rotate(0) translate(4 432.5)">
<title>src/sensesp/signalk/signalk_listener.cpp</title>
<!-- Node1 -->
<g id="Node000001" class="node">
<title>Node1</title>
<g id="a_Node000001"><a xlink:title=" ">
<polygon fill="#999999" stroke="#666666" points="652.25,-428.5 547.75,-428.5 547.75,-398 652.25,-398 652.25,-428.5"/>
<text text-anchor="start" x="555.75" y="-415" font-family="Helvetica,sans-Serif" font-size="10.00">src/sensesp/signalk</text>
<text text-anchor="middle" x="600" y="-403.75" font-family="Helvetica,sans-Serif" font-size="10.00">/signalk_listener.cpp</text>
</a>
</g>
</g>
<!-- Node2 -->
<g id="Node000002" class="node">
<title>Node2</title>
<g id="a_Node000002"><a xlink:href="signalk__listener_8h.html" target="_top" xlink:title=" ">
<polygon fill="white" stroke="#666666" points="447.5,-362 356.5,-362 356.5,-342.75 447.5,-342.75 447.5,-362"/>
<text text-anchor="middle" x="402" y="-348.5" font-family="Helvetica,sans-Serif" font-size="10.00">signalk_listener.h</text>
</a>
</g>
</g>
<!-- Node1&#45;&gt;Node2 -->
<g id="edge1_Node000001_Node000002" class="edge">
<title>Node1&#45;&gt;Node2</title>
<g id="a_edge1_Node000001_Node000002"><a xlink:title=" ">
<path fill="none" stroke="#63b8ff" d="M550.55,-397.55C517.6,-387.75 474.78,-375.02 443.58,-365.74"/>
<polygon fill="#63b8ff" stroke="#63b8ff" points="444.69,-362.42 434.11,-362.92 442.7,-369.13 444.69,-362.42"/>
</a>
</g>
</g>
<!-- Node22 -->
<g id="Node000022" class="node">
<title>Node22</title>
<g id="a_Node000022"><a xlink:href="saveable_8h.html" target="_top" xlink:title=" ">
<polygon fill="white" stroke="#666666" points="710.12,-251.5 571.88,-251.5 571.88,-232.25 710.12,-232.25 710.12,-251.5"/>
<text text-anchor="middle" x="641" y="-238" font-family="Helvetica,sans-Serif" font-size="10.00">sensesp/system/saveable.h</text>
</a>
</g>
</g>
<!-- Node1&#45;&gt;Node22 -->
<g id="edge38_Node000001_Node000022" class="edge">
<title>Node1&#45;&gt;Node22</title>
<g id="a_edge38_Node000001_Node000022"><a xlink:title=" ">
<path fill="none" stroke="#63b8ff" d="M603.57,-397.52C610.92,-367.12 627.79,-297.44 636.14,-262.96"/>
<polygon fill="#63b8ff" stroke="#63b8ff" points="639.49,-264 638.44,-253.46 632.68,-262.35 639.49,-264"/>
</a>
</g>
</g>
<!-- Node3 -->
<g id="Node000003" class="node">
<title>Node3</title>
<g id="a_Node000003"><a xlink:href="sensesp_8h.html" target="_top" xlink:title=" ">
<polygon fill="white" stroke="#666666" points="752.5,-141 691.5,-141 691.5,-121.75 752.5,-121.75 752.5,-141"/>
<text text-anchor="middle" x="722" y="-127.5" font-family="Helvetica,sans-Serif" font-size="10.00">sensesp.h</text>
</a>
</g>
</g>
<!-- Node2&#45;&gt;Node3 -->
<g id="edge2_Node000002_Node000003" class="edge">
<title>Node2&#45;&gt;Node3</title>
<g id="a_edge2_Node000002_Node000003"><a xlink:title=" ">
<path fill="none" stroke="#63b8ff" d="M447.77,-343.61C527.38,-329.1 686.03,-295.29 719,-251.5 740.71,-222.67 734.22,-177.81 727.89,-152.16"/>
<polygon fill="#63b8ff" stroke="#63b8ff" points="731.32,-151.45 725.31,-142.72 724.57,-153.29 731.32,-151.45"/>
</a>
</g>
</g>
<!-- Node10 -->
<g id="Node000010" class="node">
<title>Node10</title>
<g id="a_Node000010"><a xlink:title=" ">
<polygon fill="#e0e0e0" stroke="#999999" points="555.12,-141 476.88,-141 476.88,-121.75 555.12,-121.75 555.12,-141"/>
<text text-anchor="middle" x="516" y="-127.5" font-family="Helvetica,sans-Serif" font-size="10.00">ArduinoJson.h</text>
</a>
</g>
</g>
<!-- Node2&#45;&gt;Node10 -->
<g id="edge9_Node000002_Node000010" class="edge">
<title>Node2&#45;&gt;Node10</title>
<g id="a_edge9_Node000002_Node000010"><a xlink:title=" ">
<path fill="none" stroke="#63b8ff" d="M413.03,-342.49C432.14,-326.45 471.22,-290.69 491,-251.5 507.22,-219.36 512.92,-177.23 514.92,-152.65"/>
<polygon fill="#63b8ff" stroke="#63b8ff" points="518.41,-152.98 515.58,-142.77 511.43,-152.51 518.41,-152.98"/>
</a>
</g>
</g>
<!-- Node11 -->
<g id="Node000011" class="node">
<title>Node11</title>
<g id="a_Node000011"><a xlink:title=" ">
<polygon fill="#e0e0e0" stroke="#999999" points="175.75,-306.75 146.25,-306.75 146.25,-287.5 175.75,-287.5 175.75,-306.75"/>
<text text-anchor="middle" x="161" y="-293.25" font-family="Helvetica,sans-Serif" font-size="10.00">set</text>
</a>
</g>
</g>
<!-- Node2&#45;&gt;Node11 -->
<g id="edge10_Node000002_Node000011" class="edge">
<title>Node2&#45;&gt;Node11</title>
<g id="a_edge10_Node000002_Node000011"><a xlink:title=" ">
<path fill="none" stroke="#63b8ff" d="M356.25,-343.92C314.43,-336.67 250.76,-324.55 187.16,-307.03"/>
<polygon fill="#63b8ff" stroke="#63b8ff" points="188.16,-303.67 177.59,-304.34 186.27,-310.41 188.16,-303.67"/>
</a>
</g>
</g>
<!-- Node12 -->
<g id="Node000012" class="node">
<title>Node12</title>
<g id="a_Node000012"><a xlink:href="observable_8h.html" target="_top" xlink:title=" ">
<polygon fill="white" stroke="#666666" points="228.25,-196.25 81.75,-196.25 81.75,-177 228.25,-177 228.25,-196.25"/>
<text text-anchor="middle" x="155" y="-182.75" font-family="Helvetica,sans-Serif" font-size="10.00">sensesp/system/observable.h</text>
</a>
</g>
</g>
<!-- Node2&#45;&gt;Node12 -->
<g id="edge11_Node000002_Node000012" class="edge">
<title>Node2&#45;&gt;Node12</title>
<g id="a_edge11_Node000002_Node000012"><a xlink:title=" ">
<path fill="none" stroke="#63b8ff" d="M356.22,-349.21C289.33,-345.15 169.34,-334.17 137,-306.75 110.94,-284.65 106.41,-264.39 118,-232.25 121.73,-221.91 129.02,-212.26 136.14,-204.61"/>
<polygon fill="#63b8ff" stroke="#63b8ff" points="138.5,-207.2 143.14,-197.68 133.57,-202.23 138.5,-207.2"/>
</a>
</g>
</g>
<!-- Node16 -->
<g id="Node000016" class="node">
<title>Node16</title>
<g id="a_Node000016"><a xlink:href="valueproducer_8h.html" target="_top" xlink:title=" ">
<polygon fill="white" stroke="#666666" points="481.62,-251.5 322.38,-251.5 322.38,-232.25 481.62,-232.25 481.62,-251.5"/>
<text text-anchor="middle" x="402" y="-238" font-family="Helvetica,sans-Serif" font-size="10.00">sensesp/system/valueproducer.h</text>
</a>
</g>
</g>
<!-- Node2&#45;&gt;Node16 -->
<g id="edge15_Node000002_Node000016" class="edge">
<title>Node2&#45;&gt;Node16</title>
<g id="a_edge15_Node000002_Node000016"><a xlink:title=" ">
<path fill="none" stroke="#63b8ff" d="M402,-342.5C402,-325.25 402,-286.83 402,-263.06"/>
<polygon fill="#63b8ff" stroke="#63b8ff" points="405.5,-263.39 402,-253.39 398.5,-263.39 405.5,-263.39"/>
</a>
</g>
</g>
<!-- Node19 -->
<g id="Node000019" class="node">
<title>Node19</title>
<g id="a_Node000019"><a xlink:href="config__item_8h.html" target="_top" xlink:title=" ">
<polygon fill="white" stroke="#666666" points="318.38,-306.75 193.62,-306.75 193.62,-287.5 318.38,-287.5 318.38,-306.75"/>
<text text-anchor="middle" x="256" y="-293.25" font-family="Helvetica,sans-Serif" font-size="10.00">sensesp/ui/config_item.h</text>
</a>
</g>
</g>
<!-- Node2&#45;&gt;Node19 -->
<g id="edge23_Node000002_Node000019" class="edge">
<title>Node2&#45;&gt;Node19</title>
<g id="a_edge23_Node000002_Node000019"><a xlink:title=" ">
<path fill="none" stroke="#63b8ff" d="M377.23,-342.34C353.74,-333.77 318.19,-320.81 291.65,-311.13"/>
<polygon fill="#63b8ff" stroke="#63b8ff" points="292.9,-307.86 282.31,-307.72 290.51,-314.44 292.9,-307.86"/>
</a>
</g>
</g>
<!-- Node4 -->
<g id="Node000004" class="node">
<title>Node4</title>
<g id="a_Node000004"><a xlink:title=" ">
<polygon fill="#e0e0e0" stroke="#999999" points="757.62,-80.12 688.38,-80.12 688.38,-60.88 757.62,-60.88 757.62,-80.12"/>
<text text-anchor="middle" x="723" y="-66.62" font-family="Helvetica,sans-Serif" font-size="10.00">ReactESP.h</text>
</a>
</g>
</g>
<!-- Node3&#45;&gt;Node4 -->
<g id="edge3_Node000003_Node000004" class="edge">
<title>Node3&#45;&gt;Node4</title>
<g id="a_edge3_Node000003_Node000004"><a xlink:title=" ">
<path fill="none" stroke="#63b8ff" d="M722.15,-121.43C722.28,-113.65 722.48,-102.08 722.65,-92.03"/>
<polygon fill="#63b8ff" stroke="#63b8ff" points="726.15,-92.1 722.82,-82.04 719.15,-91.98 726.15,-92.1"/>
</a>
</g>
</g>
<!-- Node5 -->
<g id="Node000005" class="node">
<title>Node5</title>
<g id="a_Node000005"><a xlink:title=" ">
<polygon fill="#e0e0e0" stroke="#999999" points="357.62,-80.12 306.38,-80.12 306.38,-60.88 357.62,-60.88 357.62,-80.12"/>
<text text-anchor="middle" x="332" y="-66.62" font-family="Helvetica,sans-Serif" font-size="10.00">memory</text>
</a>
</g>
</g>
<!-- Node3&#45;&gt;Node5 -->
<g id="edge4_Node000003_Node000005" class="edge">
<title>Node3&#45;&gt;Node5</title>
<g id="a_edge4_Node000003_Node000005"><a xlink:title=" ">
<path fill="none" stroke="#63b8ff" d="M691.07,-125.71C620.04,-114.98 445.49,-88.63 368.96,-77.08"/>
<polygon fill="#63b8ff" stroke="#63b8ff" points="369.89,-73.68 359.48,-75.65 368.84,-80.6 369.89,-73.68"/>
</a>
</g>
</g>
<!-- Node6 -->
<g id="Node000006" class="node">
<title>Node6</title>
<g id="a_Node000006"><a xlink:href="local__debug_8h.html" target="_top" xlink:title=" ">
<polygon fill="white" stroke="#666666" points="886.62,-85.75 775.38,-85.75 775.38,-55.25 886.62,-55.25 886.62,-85.75"/>
<text text-anchor="start" x="783.38" y="-72.25" font-family="Helvetica,sans-Serif" font-size="10.00">sensesp/system/local</text>
<text text-anchor="middle" x="831" y="-61" font-family="Helvetica,sans-Serif" font-size="10.00">_debug.h</text>
</a>
</g>
</g>
<!-- Node3&#45;&gt;Node6 -->
<g id="edge5_Node000003_Node000006" class="edge">
<title>Node3&#45;&gt;Node6</title>
<g id="a_edge5_Node000003_Node000006"><a xlink:title=" ">
<path fill="none" stroke="#63b8ff" d="M738.55,-121.43C753.23,-113.51 775.19,-101.65 794.02,-91.47"/>
<polygon fill="#63b8ff" stroke="#63b8ff" points="795.63,-94.58 802.76,-86.75 792.3,-88.42 795.63,-94.58"/>
</a>
</g>
</g>
<!-- Node7 -->
<g id="Node000007" class="node">
<title>Node7</title>
<g id="a_Node000007"><a xlink:title=" ">
<polygon fill="#e0e0e0" stroke="#999999" points="912,-19.25 830,-19.25 830,0 912,0 912,-19.25"/>
<text text-anchor="middle" x="871" y="-5.75" font-family="Helvetica,sans-Serif" font-size="10.00">esp32&#45;hal&#45;log.h</text>
</a>
</g>
</g>
<!-- Node6&#45;&gt;Node7 -->
<g id="edge6_Node000006_Node000007" class="edge">
<title>Node6&#45;&gt;Node7</title>
<g id="a_edge6_Node000006_Node000007"><a xlink:title=" ">
<path fill="none" stroke="#63b8ff" d="M840.89,-54.95C846.22,-47.1 852.85,-37.35 858.53,-28.99"/>
<polygon fill="#63b8ff" stroke="#63b8ff" points="861.26,-31.19 863.98,-20.95 855.47,-27.26 861.26,-31.19"/>
</a>
</g>
</g>
<!-- Node8 -->
<g id="Node000008" class="node">
<title>Node8</title>
<g id="a_Node000008"><a xlink:title=" ">
<polygon fill="#e0e0e0" stroke="#999999" points="668.62,-19.25 611.38,-19.25 611.38,0 668.62,0 668.62,-19.25"/>
<text text-anchor="middle" x="640" y="-5.75" font-family="Helvetica,sans-Serif" font-size="10.00">Arduino.h</text>
</a>
</g>
</g>
<!-- Node6&#45;&gt;Node8 -->
<g id="edge7_Node000006_Node000008" class="edge">
<title>Node6&#45;&gt;Node8</title>
<g id="a_edge7_Node000006_Node000008"><a xlink:title=" ">
<path fill="none" stroke="#63b8ff" d="M783.3,-54.8C751.45,-44.98 710.06,-32.22 679.95,-22.94"/>
<polygon fill="#63b8ff" stroke="#63b8ff" points="681.04,-19.61 670.46,-20.01 678.98,-26.3 681.04,-19.61"/>
</a>
</g>
</g>
<!-- Node9 -->
<g id="Node000009" class="node">
<title>Node9</title>
<g id="a_Node000009"><a xlink:title=" ">
<polygon fill="#e0e0e0" stroke="#999999" points="812.25,-19.25 767.75,-19.25 767.75,0 812.25,0 812.25,-19.25"/>
<text text-anchor="middle" x="790" y="-5.75" font-family="Helvetica,sans-Serif" font-size="10.00">Print.h</text>
</a>
</g>
</g>
<!-- Node6&#45;&gt;Node9 -->
<g id="edge8_Node000006_Node000009" class="edge">
<title>Node6&#45;&gt;Node9</title>
<g id="a_edge8_Node000006_Node000009"><a xlink:title=" ">
<path fill="none" stroke="#63b8ff" d="M820.87,-54.95C815.4,-47.1 808.61,-37.35 802.79,-28.99"/>
<polygon fill="#63b8ff" stroke="#63b8ff" points="805.77,-27.15 797.19,-20.94 800.03,-31.15 805.77,-27.15"/>
</a>
</g>
</g>
<!-- Node13 -->
<g id="Node000013" class="node">
<title>Node13</title>
<g id="a_Node000013"><a xlink:title=" ">
<polygon fill="#e0e0e0" stroke="#999999" points="232.12,-141 165.88,-141 165.88,-121.75 232.12,-121.75 232.12,-141"/>
<text text-anchor="middle" x="199" y="-127.5" font-family="Helvetica,sans-Serif" font-size="10.00">forward_list</text>
</a>
</g>
</g>
<!-- Node12&#45;&gt;Node13 -->
<g id="edge12_Node000012_Node000013" class="edge">
<title>Node12&#45;&gt;Node13</title>
<g id="a_edge12_Node000012_Node000013"><a xlink:title=" ">
<path fill="none" stroke="#63b8ff" d="M162.27,-176.83C168.28,-169.55 177.01,-158.98 184.46,-149.98"/>
<polygon fill="#63b8ff" stroke="#63b8ff" points="186.94,-152.46 190.61,-142.53 181.54,-148.01 186.94,-152.46"/>
</a>
</g>
</g>
<!-- Node14 -->
<g id="Node000014" class="node">
<title>Node14</title>
<g id="a_Node000014"><a xlink:title=" ">
<polygon fill="#e0e0e0" stroke="#999999" points="148,-141 90,-141 90,-121.75 148,-121.75 148,-141"/>
<text text-anchor="middle" x="119" y="-127.5" font-family="Helvetica,sans-Serif" font-size="10.00">functional</text>
</a>
</g>
</g>
<!-- Node12&#45;&gt;Node14 -->
<g id="edge13_Node000012_Node000014" class="edge">
<title>Node12&#45;&gt;Node14</title>
<g id="a_edge13_Node000012_Node000014"><a xlink:title=" ">
<path fill="none" stroke="#63b8ff" d="M149.06,-176.83C144.29,-169.78 137.44,-159.65 131.48,-150.83"/>
<polygon fill="#63b8ff" stroke="#63b8ff" points="134.42,-148.94 125.92,-142.61 128.62,-152.86 134.42,-148.94"/>
</a>
</g>
</g>
<!-- Node15 -->
<g id="Node000015" class="node">
<title>Node15</title>
<g id="a_Node000015"><a xlink:title=" ">
<polygon fill="#e0e0e0" stroke="#999999" points="71.5,-141 28.5,-141 28.5,-121.75 71.5,-121.75 71.5,-141"/>
<text text-anchor="middle" x="50" y="-127.5" font-family="Helvetica,sans-Serif" font-size="10.00">vector</text>
</a>
</g>
</g>
<!-- Node12&#45;&gt;Node15 -->
<g id="edge14_Node000012_Node000015" class="edge">
<title>Node12&#45;&gt;Node15</title>
<g id="a_edge14_Node000012_Node000015"><a xlink:title=" ">
<path fill="none" stroke="#63b8ff" d="M137.19,-176.59C120.97,-168.37 96.76,-156.09 77.97,-146.56"/>
<polygon fill="#63b8ff" stroke="#63b8ff" points="79.75,-143.54 69.25,-142.14 76.58,-149.78 79.75,-143.54"/>
</a>
</g>
</g>
<!-- Node16&#45;&gt;Node5 -->
<g id="edge17_Node000016_Node000005" class="edge">
<title>Node16&#45;&gt;Node5</title>
<g id="a_edge17_Node000016_Node000005"><a xlink:title=" ">
<path fill="none" stroke="#63b8ff" d="M397.2,-231.76C392.57,-222.82 385.47,-208.75 380,-196.25 364,-159.7 347.84,-115.97 338.95,-91.19"/>
<polygon fill="#63b8ff" stroke="#63b8ff" points="342.26,-90.06 335.61,-81.81 335.67,-92.4 342.26,-90.06"/>
</a>
</g>
</g>
<!-- Node16&#45;&gt;Node10 -->
<g id="edge16_Node000016_Node000010" class="edge">
<title>Node16&#45;&gt;Node10</title>
<g id="a_edge16_Node000016_Node000010"><a xlink:title=" ">
<path fill="none" stroke="#63b8ff" d="M396.38,-232.16C388.69,-219 377.09,-193.81 389,-177 398.31,-163.87 434.37,-151.95 465.7,-143.73"/>
<polygon fill="#63b8ff" stroke="#63b8ff" points="466.24,-147.21 475.07,-141.36 464.52,-140.43 466.24,-147.21"/>
</a>
</g>
</g>
<!-- Node16&#45;&gt;Node12 -->
<g id="edge18_Node000016_Node000012" class="edge">
<title>Node16&#45;&gt;Node12</title>
<g id="a_edge18_Node000016_Node000012"><a xlink:title=" ">
<path fill="none" stroke="#63b8ff" d="M359.82,-231.78C317.9,-222.74 253.49,-208.86 208.11,-199.07"/>
<polygon fill="#63b8ff" stroke="#63b8ff" points="209,-195.69 198.49,-197 207.52,-202.53 209,-195.69"/>
</a>
</g>
</g>
<!-- Node17 -->
<g id="Node000017" class="node">
<title>Node17</title>
<g id="a_Node000017"><a xlink:href="valueconsumer_8h.html" target="_top" xlink:title=" ">
<polygon fill="white" stroke="#666666" points="487.75,-196.25 398.25,-196.25 398.25,-177 487.75,-177 487.75,-196.25"/>
<text text-anchor="middle" x="443" y="-182.75" font-family="Helvetica,sans-Serif" font-size="10.00">valueconsumer.h</text>
</a>
</g>
</g>
<!-- Node16&#45;&gt;Node17 -->
<g id="edge19_Node000016_Node000017" class="edge">
<title>Node16&#45;&gt;Node17</title>
<g id="a_edge19_Node000016_Node000017"><a xlink:title=" ">
<path fill="none" stroke="#63b8ff" d="M408.77,-232.08C414.32,-224.88 422.34,-214.46 429.23,-205.51"/>
<polygon fill="#63b8ff" stroke="#63b8ff" points="431.83,-207.87 435.16,-197.81 426.29,-203.6 431.83,-207.87"/>
</a>
</g>
</g>
<!-- Node17&#45;&gt;Node3 -->
<g id="edge20_Node000017_Node000003" class="edge">
<title>Node17&#45;&gt;Node3</title>
<g id="a_edge20_Node000017_Node000003"><a xlink:title=" ">
<path fill="none" stroke="#63b8ff" d="M488.14,-177.01C541.19,-166.88 628.51,-150.22 680.12,-140.37"/>
<polygon fill="#63b8ff" stroke="#63b8ff" points="680.53,-143.85 689.69,-138.54 679.21,-136.98 680.53,-143.85"/>
</a>
</g>
</g>
<!-- Node17&#45;&gt;Node10 -->
<g id="edge21_Node000017_Node000010" class="edge">
<title>Node17&#45;&gt;Node10</title>
<g id="a_edge21_Node000017_Node000010"><a xlink:title=" ">
<path fill="none" stroke="#63b8ff" d="M455.38,-176.59C466.15,-168.74 481.97,-157.2 494.75,-147.87"/>
<polygon fill="#63b8ff" stroke="#63b8ff" points="496.56,-150.89 502.58,-142.17 492.44,-145.23 496.56,-150.89"/>
</a>
</g>
</g>
<!-- Node18 -->
<g id="Node000018" class="node">
<title>Node18</title>
<g id="a_Node000018"><a xlink:title=" ">
<polygon fill="#e0e0e0" stroke="#999999" points="459.12,-141 410.88,-141 410.88,-121.75 459.12,-121.75 459.12,-141"/>
<text text-anchor="middle" x="435" y="-127.5" font-family="Helvetica,sans-Serif" font-size="10.00">stdint.h</text>
</a>
</g>
</g>
<!-- Node17&#45;&gt;Node18 -->
<g id="edge22_Node000017_Node000018" class="edge">
<title>Node17&#45;&gt;Node18</title>
<g id="a_edge22_Node000017_Node000018"><a xlink:title=" ">
<path fill="none" stroke="#63b8ff" d="M441.68,-176.83C440.69,-170.24 439.29,-160.96 438.03,-152.57"/>
<polygon fill="#63b8ff" stroke="#63b8ff" points="441.52,-152.22 436.57,-142.86 434.6,-153.26 441.52,-152.22"/>
</a>
</g>
</g>
<!-- Node19&#45;&gt;Node5 -->
<g id="edge25_Node000019_Node000005" class="edge">
<title>Node19&#45;&gt;Node5</title>
<g id="a_edge25_Node000019_Node000005"><a xlink:title=" ">
<path fill="none" stroke="#63b8ff" d="M259.07,-287.04C270.34,-253.74 309.55,-137.86 325.34,-91.19"/>
<polygon fill="#63b8ff" stroke="#63b8ff" points="328.6,-92.48 328.49,-81.88 321.97,-90.24 328.6,-92.48"/>
</a>
</g>
</g>
<!-- Node19&#45;&gt;Node8 -->
<g id="edge28_Node000019_Node000008" class="edge">
<title>Node19&#45;&gt;Node8</title>
<g id="a_edge28_Node000019_Node000008"><a xlink:title=" ">
<path fill="none" stroke="#63b8ff" d="M212.28,-287.03C139.17,-270.54 0,-233.18 0,-187.62 0,-187.62 0,-187.62 0,-130.38 0,-69.07 459.55,-25.68 599.82,-13.86"/>
<polygon fill="#63b8ff" stroke="#63b8ff" points="600.07,-17.35 609.75,-13.03 599.49,-10.37 600.07,-17.35"/>
</a>
</g>
</g>
<!-- Node19&#45;&gt;Node10 -->
<g id="edge29_Node000019_Node000010" class="edge">
<title>Node19&#45;&gt;Node10</title>
<g id="a_edge29_Node000019_Node000010"><a xlink:title=" ">
<path fill="none" stroke="#63b8ff" d="M263.34,-287.06C273.82,-274.31 293.93,-250.59 313,-232.25 340.82,-205.5 346.19,-195.62 380,-177 406.76,-162.26 439.18,-151.39 465.66,-144.07"/>
<polygon fill="#63b8ff" stroke="#63b8ff" points="466.38,-147.5 475.14,-141.54 464.58,-140.73 466.38,-147.5"/>
</a>
</g>
</g>
<!-- Node19&#45;&gt;Node15 -->
<g id="edge26_Node000019_Node000015" class="edge">
<title>Node19&#45;&gt;Node15</title>
<g id="a_edge26_Node000019_Node000015"><a xlink:title=" ">
<path fill="none" stroke="#63b8ff" d="M205.31,-287.07C177.76,-280.42 144.08,-269.34 118,-251.5 91.86,-233.62 88.59,-223.82 73,-196.25 65.18,-182.41 59.21,-165.42 55.32,-152.44"/>
<polygon fill="#63b8ff" stroke="#63b8ff" points="58.72,-151.6 52.64,-142.92 51.98,-153.5 58.72,-151.6"/>
</a>
</g>
</g>
<!-- Node20 -->
<g id="Node000020" class="node">
<title>Node20</title>
<g id="a_Node000020"><a xlink:title=" ">
<polygon fill="#e0e0e0" stroke="#999999" points="161.38,-251.5 126.62,-251.5 126.62,-232.25 161.38,-232.25 161.38,-251.5"/>
<text text-anchor="middle" x="144" y="-238" font-family="Helvetica,sans-Serif" font-size="10.00">map</text>
</a>
</g>
</g>
<!-- Node19&#45;&gt;Node20 -->
<g id="edge24_Node000019_Node000020" class="edge">
<title>Node19&#45;&gt;Node20</title>
<g id="a_edge24_Node000019_Node000020"><a xlink:title=" ">
<path fill="none" stroke="#63b8ff" d="M237,-287.09C219.12,-278.59 192.13,-265.76 171.82,-256.1"/>
<polygon fill="#63b8ff" stroke="#63b8ff" points="173.51,-253.03 162.98,-251.9 170.51,-259.35 173.51,-253.03"/>
</a>
</g>
</g>
<!-- Node21 -->
<g id="Node000021" class="node">
<title>Node21</title>
<g id="a_Node000021"><a xlink:title=" ">
<polygon fill="#e0e0e0" stroke="#999999" points="228.12,-251.5 179.88,-251.5 179.88,-232.25 228.12,-232.25 228.12,-251.5"/>
<text text-anchor="middle" x="204" y="-238" font-family="Helvetica,sans-Serif" font-size="10.00">cstddef</text>
</a>
</g>
</g>
<!-- Node19&#45;&gt;Node21 -->
<g id="edge27_Node000019_Node000021" class="edge">
<title>Node19&#45;&gt;Node21</title>
<g id="a_edge27_Node000019_Node000021"><a xlink:title=" ">
<path fill="none" stroke="#63b8ff" d="M247.41,-287.33C240.16,-279.9 229.55,-269.04 220.63,-259.91"/>
<polygon fill="#63b8ff" stroke="#63b8ff" points="223.32,-257.65 213.83,-252.94 218.31,-262.54 223.32,-257.65"/>
</a>
</g>
</g>
<!-- Node19&#45;&gt;Node22 -->
<g id="edge30_Node000019_Node000022" class="edge">
<title>Node19&#45;&gt;Node22</title>
<g id="a_edge30_Node000019_Node000022"><a xlink:title=" ">
<path fill="none" stroke="#63b8ff" d="M318.71,-287.45C385.66,-278.19 491.81,-263.51 563.83,-253.55"/>
<polygon fill="#63b8ff" stroke="#63b8ff" points="564.16,-257.04 573.59,-252.2 563.2,-250.1 564.16,-257.04"/>
</a>
</g>
</g>
<!-- Node22&#45;&gt;Node3 -->
<g id="edge31_Node000022_Node000003" class="edge">
<title>Node22&#45;&gt;Node3</title>
<g id="a_edge31_Node000022_Node000003"><a xlink:title=" ">
<path fill="none" stroke="#63b8ff" d="M657,-231.76C669.66,-223.82 687,-211.25 698,-196.25 707.66,-183.09 713.87,-165.59 717.55,-152.23"/>
<polygon fill="#63b8ff" stroke="#63b8ff" points="720.87,-153.39 719.88,-142.84 714.08,-151.71 720.87,-153.39"/>
</a>
</g>
</g>
<!-- Node22&#45;&gt;Node8 -->
<g id="edge33_Node000022_Node000008" class="edge">
<title>Node22&#45;&gt;Node8</title>
<g id="a_edge33_Node000022_Node000008"><a xlink:title=" ">
<path fill="none" stroke="#63b8ff" d="M647.59,-231.86C653.47,-223.22 661.65,-209.56 665,-196.25 679.92,-136.99 659.47,-64.71 647.53,-30.45"/>
<polygon fill="#63b8ff" stroke="#63b8ff" points="650.82,-29.27 644.12,-21.07 644.25,-31.66 650.82,-29.27"/>
</a>
</g>
</g>
<!-- Node22&#45;&gt;Node10 -->
<g id="edge32_Node000022_Node000010" class="edge">
<title>Node22&#45;&gt;Node10</title>
<g id="a_edge32_Node000022_Node000010"><a xlink:title=" ">
<path fill="none" stroke="#63b8ff" d="M625.06,-231.79C610.97,-223.41 590.21,-210.2 574,-196.25 557.55,-182.1 541.15,-163.51 530.01,-150.04"/>
<polygon fill="#63b8ff" stroke="#63b8ff" points="532.87,-148.01 523.85,-142.45 527.43,-152.42 532.87,-148.01"/>
</a>
</g>
</g>
<!-- Node23 -->
<g id="Node000023" class="node">
<title>Node23</title>
<g id="a_Node000023"><a xlink:href="serializable_8h.html" target="_top" xlink:title=" ">
<polygon fill="white" stroke="#666666" points="655.5,-196.25 582.5,-196.25 582.5,-177 655.5,-177 655.5,-196.25"/>
<text text-anchor="middle" x="619" y="-182.75" font-family="Helvetica,sans-Serif" font-size="10.00">serializable.h</text>
</a>
</g>
</g>
<!-- Node22&#45;&gt;Node23 -->
<g id="edge34_Node000022_Node000023" class="edge">
<title>Node22&#45;&gt;Node23</title>
<g id="a_edge34_Node000022_Node000023"><a xlink:title=" ">
<path fill="none" stroke="#63b8ff" d="M637.37,-232.08C634.58,-225.34 630.63,-215.77 627.1,-207.24"/>
<polygon fill="#63b8ff" stroke="#63b8ff" points="630.34,-205.91 623.29,-198.01 623.87,-208.59 630.34,-205.91"/>
</a>
</g>
</g>
<!-- Node23&#45;&gt;Node3 -->
<g id="edge35_Node000023_Node000003" class="edge">
<title>Node23&#45;&gt;Node3</title>
<g id="a_edge35_Node000023_Node000003"><a xlink:title=" ">
<path fill="none" stroke="#63b8ff" d="M636.47,-176.59C652.31,-168.41 675.91,-156.21 694.31,-146.69"/>
<polygon fill="#63b8ff" stroke="#63b8ff" points="695.82,-149.85 703.1,-142.15 692.61,-143.63 695.82,-149.85"/>
</a>
</g>
</g>
<!-- Node23&#45;&gt;Node8 -->
<g id="edge37_Node000023_Node000008" class="edge">
<title>Node23&#45;&gt;Node8</title>
<g id="a_edge37_Node000023_Node000008"><a xlink:title=" ">
<path fill="none" stroke="#63b8ff" d="M620.07,-176.71C623.3,-149.8 633,-68.94 637.57,-30.87"/>
<polygon fill="#63b8ff" stroke="#63b8ff" points="641.01,-31.58 638.73,-21.24 634.06,-30.75 641.01,-31.58"/>
</a>
</g>
</g>
<!-- Node23&#45;&gt;Node10 -->
<g id="edge36_Node000023_Node000010" class="edge">
<title>Node23&#45;&gt;Node10</title>
<g id="a_edge36_Node000023_Node000010"><a xlink:title=" ">
<path fill="none" stroke="#63b8ff" d="M601.53,-176.59C585.69,-168.41 562.09,-156.21 543.69,-146.69"/>
<polygon fill="#63b8ff" stroke="#63b8ff" points="545.39,-143.63 534.9,-142.15 542.18,-149.85 545.39,-143.63"/>
</a>
</g>
</g>
</g>
</svg>
