<?xml version="1.0" encoding="UTF-8" standalone="no"?>
<!DOCTYPE svg PUBLIC "-//W3C//DTD SVG 1.1//EN"
 "http://www.w3.org/Graphics/SVG/1.1/DTD/svg11.dtd">
<!-- Generated by graphviz version 5.0.0 (20220707.1540)
 -->
<!-- Title: src/sensesp/signalk/signalk_delta_queue.h Pages: 1 -->
<svg width="289pt" height="151pt"
 viewBox="0.00 0.00 289.00 151.00" xmlns="http://www.w3.org/2000/svg" xmlns:xlink="http://www.w3.org/1999/xlink">
<g id="graph0" class="graph" transform="scale(1 1) rotate(0) translate(4 147)">
<title>src/sensesp/signalk/signalk_delta_queue.h</title>
<polygon fill="white" stroke="transparent" points="-4,4 -4,-147 285,-147 285,4 -4,4"/>
<!-- Node1 -->
<g id="node1" class="node">
<title>Node1</title>
<g id="a_node1"><a xlink:title=" ">
<polygon fill="#bfbfbf" stroke="black" points="53.5,-112.5 53.5,-142.5 169.5,-142.5 169.5,-112.5 53.5,-112.5"/>
<text text-anchor="start" x="61.5" y="-130.5" font-family="Helvetica,sans-Serif" font-size="10.00">src/sensesp/signalk</text>
<text text-anchor="middle" x="111.5" y="-119.5" font-family="Helvetica,sans-Serif" font-size="10.00">/signalk_delta_queue.h</text>
</a>
</g>
</g>
<!-- Node2 -->
<g id="node2" class="node">
<title>Node2</title>
<g id="a_node2"><a xlink:title=" ">
<polygon fill="white" stroke="#bfbfbf" points="0,-56.5 0,-75.5 79,-75.5 79,-56.5 0,-56.5"/>
<text text-anchor="middle" x="39.5" y="-63.5" font-family="Helvetica,sans-Serif" font-size="10.00">ArduinoJson.h</text>
</a>
</g>
</g>
<!-- Node1&#45;&gt;Node2 -->
<g id="edge1" class="edge">
<title>Node1&#45;&gt;Node2</title>
<path fill="none" stroke="midnightblue" d="M94.44,-112.4C83.44,-103.31 69.13,-91.49 57.88,-82.19"/>
<polygon fill="midnightblue" stroke="midnightblue" points="59.91,-79.33 49.98,-75.66 55.46,-84.73 59.91,-79.33"/>
</g>
<!-- Node3 -->
<g id="node3" class="node">
<title>Node3</title>
<g id="a_node3"><a xlink:title=" ">
<polygon fill="white" stroke="#bfbfbf" points="97,-56.5 97,-75.5 126,-75.5 126,-56.5 97,-56.5"/>
<text text-anchor="middle" x="111.5" y="-63.5" font-family="Helvetica,sans-Serif" font-size="10.00">list</text>
</a>
</g>
</g>
<!-- Node1&#45;&gt;Node3 -->
<g id="edge2" class="edge">
<title>Node1&#45;&gt;Node3</title>
<path fill="none" stroke="midnightblue" d="M111.5,-112.4C111.5,-104.47 111.5,-94.46 111.5,-85.86"/>
<polygon fill="midnightblue" stroke="midnightblue" points="115,-85.66 111.5,-75.66 108,-85.66 115,-85.66"/>
</g>
<!-- Node4 -->
<g id="node4" class="node">
<title>Node4</title>
<g id="a_node4"><a xlink:href="startable_8h.html" target="_top" xlink:title=" ">
<polygon fill="white" stroke="black" points="144,-56.5 144,-75.5 281,-75.5 281,-56.5 144,-56.5"/>
<text text-anchor="middle" x="212.5" y="-63.5" font-family="Helvetica,sans-Serif" font-size="10.00">sensesp/system/startable.h</text>
</a>
</g>
</g>
<!-- Node1&#45;&gt;Node4 -->
<g id="edge3" class="edge">
<title>Node1&#45;&gt;Node4</title>
<path fill="none" stroke="midnightblue" d="M135.44,-112.4C151.63,-102.86 172.91,-90.32 189,-80.84"/>
<polygon fill="midnightblue" stroke="midnightblue" points="190.96,-83.75 197.8,-75.66 187.41,-77.72 190.96,-83.75"/>
</g>
<!-- Node5 -->
<g id="node5" class="node">
<title>Node5</title>
<g id="a_node5"><a xlink:title=" ">
<polygon fill="white" stroke="#bfbfbf" points="191,-0.5 191,-19.5 234,-19.5 234,-0.5 191,-0.5"/>
<text text-anchor="middle" x="212.5" y="-7.5" font-family="Helvetica,sans-Serif" font-size="10.00">queue</text>
</a>
</g>
</g>
<!-- Node4&#45;&gt;Node5 -->
<g id="edge4" class="edge">
<title>Node4&#45;&gt;Node5</title>
<path fill="none" stroke="midnightblue" d="M212.5,-56.08C212.5,-49.01 212.5,-38.86 212.5,-29.99"/>
<polygon fill="midnightblue" stroke="midnightblue" points="216,-29.75 212.5,-19.75 209,-29.75 216,-29.75"/>
</g>
</g>
</svg>
