<?xml version="1.0" encoding="UTF-8" standalone="no"?>
<!DOCTYPE svg PUBLIC "-//W3C//DTD SVG 1.1//EN"
 "http://www.w3.org/Graphics/SVG/1.1/DTD/svg11.dtd">
<!-- Generated by graphviz version 12.1.0 (20240811.2233)
 -->
<!-- Title: src/sensesp/signalk/signalk_ws_client.h Pages: 1 -->
<!--zoomable 514 -->

<svg id="main" version="1.1" xmlns="http://www.w3.org/2000/svg" xmlns:xlink="http://www.w3.org/1999/xlink" xml:space="preserve" onload="init(evt)">

<style type="text/css"><![CDATA[
.node, .edge {opacity: 0.7;}
.node.selected, .edge.selected {opacity: 1;}
.edge:hover path { stroke: red; }
.edge:hover polygon { stroke: red; fill: red; }
]]></style>

<defs>
  <circle id="rim" cx="0" cy="0" r="7"/>
  <circle id="rim2" cx="0" cy="0" r="3.5"/>
  <g id="zoomPlus">
    <use xlink:href="#rim" fill="#404040"><set attributeName="fill" to="#808080" begin="zoomplus.mouseover" end="zoomplus.mouseout"/></use>
    <path d="M-4,0h8M0,-4v8" fill="none" stroke="white" stroke-width="1.5" pointer-events="none"/>
  </g>
  <g id="zoomMin">
    <use xlink:href="#rim" fill="#404040"><set attributeName="fill" to="#808080" begin="zoomminus.mouseover" end="zoomminus.mouseout"/></use>
    <path d="M-4,0h8" fill="none" stroke="white" stroke-width="1.5" pointer-events="none"/>
  </g>
  <g id="arrowUp" transform="translate(30 24)">
    <use xlink:href="#rim"/>
    <path pointer-events="none" fill="none" stroke="white" stroke-width="1.5" d="M0,-3.0v7 M-2.5,-0.5L0,-3.0L2.5,-0.5"/>
  </g>
  <g id="arrowRight" transform="rotate(90) translate(36 -43)">
    <use xlink:href="#rim"/>
    <path pointer-events="none" fill="none" stroke="white" stroke-width="1.5" d="M0,-3.0v7 M-2.5,-0.5L0,-3.0L2.5,-0.5"/>
  </g>
  <g id="arrowDown" transform="rotate(180) translate(-30 -48)">
    <use xlink:href="#rim"/>
    <path pointer-events="none" fill="none" stroke="white" stroke-width="1.5" d="M0,-3.0v7 M-2.5,-0.5L0,-3.0L2.5,-0.5"/>
  </g>
  <g id="arrowLeft" transform="rotate(270) translate(-36 17)">
    <use xlink:href="#rim"/>
    <path pointer-events="none" fill="none" stroke="white" stroke-width="1.5" d="M0,-3.0v7 M-2.5,-0.5L0,-3.0L2.5,-0.5"/>
  </g>
  <g id="resetDef">
    <use xlink:href="#rim2" fill="#404040"><set attributeName="fill" to="#808080" begin="reset.mouseover" end="reset.mouseout"/></use>
  </g>
</defs>
<script type="application/ecmascript">
var viewWidth = 1108;
var viewHeight = 514;
var sectionId = 'dynsection-0';
</script>
<script type="application/ecmascript" xlink:href="svg.min.js"/>
<svg id="graph" class="graph">
<g id="viewport">
<title>src/sensesp/signalk/signalk_ws_client.h</title>
<!-- Node1 -->
<g id="Node000001" class="node">
<title>Node1</title>
<g id="a_Node000001"><a xlink:title=" ">
<polygon fill="#999999" stroke="#666666" points="669.25,-506.25 564.75,-506.25 564.75,-475.75 669.25,-475.75 669.25,-506.25"/>
<text text-anchor="start" x="572.75" y="-492.75" font-family="Helvetica,sans-Serif" font-size="10.00">src/sensesp/signalk</text>
<text text-anchor="middle" x="617" y="-481.5" font-family="Helvetica,sans-Serif" font-size="10.00">/signalk_ws_client.h</text>
</a>
</g>
</g>
<!-- Node2 -->
<g id="Node000002" class="node">
<title>Node2</title>
<g id="a_Node000002"><a xlink:href="sensesp_8h.html" target="_top" xlink:title=" ">
<polygon fill="white" stroke="#666666" points="357.5,-141 296.5,-141 296.5,-121.75 357.5,-121.75 357.5,-141"/>
<text text-anchor="middle" x="327" y="-127.5" font-family="Helvetica,sans-Serif" font-size="10.00">sensesp.h</text>
</a>
</g>
</g>
<!-- Node1&#45;&gt;Node2 -->
<g id="edge1_Node000001_Node000002" class="edge">
<title>Node1&#45;&gt;Node2</title>
<g id="a_edge1_Node000001_Node000002"><a xlink:title=" ">
<path fill="none" stroke="#63b8ff" d="M566.53,-475.33C498.07,-452.3 379.06,-400.33 333,-306.75 307.97,-255.9 316.32,-186.24 322.63,-152.42"/>
<polygon fill="#63b8ff" stroke="#63b8ff" points="326.02,-153.31 324.57,-142.81 319.16,-151.92 326.02,-153.31"/>
</a>
</g>
</g>
<!-- Node8 -->
<g id="Node000008" class="node">
<title>Node8</title>
<g id="a_Node000008"><a xlink:title=" ">
<polygon fill="#e0e0e0" stroke="#999999" points="960.25,-434.12 915.75,-434.12 915.75,-414.88 960.25,-414.88 960.25,-434.12"/>
<text text-anchor="middle" x="938" y="-420.62" font-family="Helvetica,sans-Serif" font-size="10.00">WiFi.h</text>
</a>
</g>
</g>
<!-- Node1&#45;&gt;Node8 -->
<g id="edge7_Node000001_Node000008" class="edge">
<title>Node1&#45;&gt;Node8</title>
<g id="a_edge7_Node000001_Node000008"><a xlink:title=" ">
<path fill="none" stroke="#63b8ff" d="M669.72,-483.95C727.47,-476.58 822.47,-462.25 902,-439.75 903.58,-439.3 905.18,-438.81 906.79,-438.29"/>
<polygon fill="#63b8ff" stroke="#63b8ff" points="907.65,-441.7 915.88,-435.03 905.29,-435.11 907.65,-441.7"/>
</a>
</g>
</g>
<!-- Node9 -->
<g id="Node000009" class="node">
<title>Node9</title>
<g id="a_Node000009"><a xlink:title=" ">
<polygon fill="#e0e0e0" stroke="#999999" points="1099.5,-434.12 978.5,-434.12 978.5,-414.88 1099.5,-414.88 1099.5,-434.12"/>
<text text-anchor="middle" x="1039" y="-420.62" font-family="Helvetica,sans-Serif" font-size="10.00">esp_websocket_client.h</text>
</a>
</g>
</g>
<!-- Node1&#45;&gt;Node9 -->
<g id="edge8_Node000001_Node000009" class="edge">
<title>Node1&#45;&gt;Node9</title>
<g id="a_edge8_Node000001_Node000009"><a xlink:title=" ">
<path fill="none" stroke="#63b8ff" d="M669.63,-483.47C738.58,-474.69 863.16,-458.06 969,-439.75 974.3,-438.83 979.81,-437.82 985.31,-436.77"/>
<polygon fill="#63b8ff" stroke="#63b8ff" points="985.88,-440.22 995.02,-434.86 984.53,-433.35 985.88,-440.22"/>
</a>
</g>
</g>
<!-- Node10 -->
<g id="Node000010" class="node">
<title>Node10</title>
<g id="a_Node000010"><a xlink:title=" ">
<polygon fill="#e0e0e0" stroke="#999999" points="899,-141 841,-141 841,-121.75 899,-121.75 899,-141"/>
<text text-anchor="middle" x="870" y="-127.5" font-family="Helvetica,sans-Serif" font-size="10.00">functional</text>
</a>
</g>
</g>
<!-- Node1&#45;&gt;Node10 -->
<g id="edge9_Node000001_Node000010" class="edge">
<title>Node1&#45;&gt;Node10</title>
<g id="a_edge9_Node000001_Node000010"><a xlink:title=" ">
<path fill="none" stroke="#63b8ff" d="M669.69,-486.11C735.01,-480.2 841.13,-466.68 869,-439.75 895.51,-414.13 888,-395.87 888,-359 888,-359 888,-359 888,-240.88 888,-209.59 880.63,-173.91 875.32,-152.27"/>
<polygon fill="#63b8ff" stroke="#63b8ff" points="878.75,-151.58 872.88,-142.76 871.97,-153.32 878.75,-151.58"/>
</a>
</g>
</g>
<!-- Node11 -->
<g id="Node000011" class="node">
<title>Node11</title>
<g id="a_Node000011"><a xlink:title=" ">
<polygon fill="#e0e0e0" stroke="#999999" points="821.75,-251.5 792.25,-251.5 792.25,-232.25 821.75,-232.25 821.75,-251.5"/>
<text text-anchor="middle" x="807" y="-238" font-family="Helvetica,sans-Serif" font-size="10.00">set</text>
</a>
</g>
</g>
<!-- Node1&#45;&gt;Node11 -->
<g id="edge10_Node000001_Node000011" class="edge">
<title>Node1&#45;&gt;Node11</title>
<g id="a_edge10_Node000001_Node000011"><a xlink:title=" ">
<path fill="none" stroke="#63b8ff" d="M630.46,-475.3C650.16,-453.57 687.69,-411.31 717,-373.25 746.66,-334.73 778.27,-287.25 794.99,-261.55"/>
<polygon fill="#63b8ff" stroke="#63b8ff" points="797.88,-263.52 800.38,-253.23 792.01,-259.72 797.88,-263.52"/>
</a>
</g>
</g>
<!-- Node12 -->
<g id="Node000012" class="node">
<title>Node12</title>
<g id="a_Node000012"><a xlink:href="signalk__delta__queue_8h.html" target="_top" xlink:title=" ">
<polygon fill="white" stroke="#666666" points="860.12,-439.75 739.88,-439.75 739.88,-409.25 860.12,-409.25 860.12,-439.75"/>
<text text-anchor="start" x="747.88" y="-426.25" font-family="Helvetica,sans-Serif" font-size="10.00">sensesp/signalk/signalk</text>
<text text-anchor="middle" x="800" y="-415" font-family="Helvetica,sans-Serif" font-size="10.00">_delta_queue.h</text>
</a>
</g>
</g>
<!-- Node1&#45;&gt;Node12 -->
<g id="edge11_Node000001_Node000012" class="edge">
<title>Node1&#45;&gt;Node12</title>
<g id="a_edge11_Node000001_Node000012"><a xlink:title=" ">
<path fill="none" stroke="#63b8ff" d="M658.53,-475.36C684.99,-466.04 719.5,-453.87 747.81,-443.9"/>
<polygon fill="#63b8ff" stroke="#63b8ff" points="748.63,-447.32 756.89,-440.69 746.3,-440.72 748.63,-447.32"/>
</a>
</g>
</g>
<!-- Node15 -->
<g id="Node000015" class="node">
<title>Node15</title>
<g id="a_Node000015"><a xlink:href="configurable_8h.html" target="_top" xlink:title=" ">
<polygon fill="white" stroke="#666666" points="531.88,-196.25 380.12,-196.25 380.12,-177 531.88,-177 531.88,-196.25"/>
<text text-anchor="middle" x="456" y="-182.75" font-family="Helvetica,sans-Serif" font-size="10.00">sensesp/system/configurable.h</text>
</a>
</g>
</g>
<!-- Node1&#45;&gt;Node15 -->
<g id="edge14_Node000001_Node000015" class="edge">
<title>Node1&#45;&gt;Node15</title>
<g id="a_edge14_Node000001_Node000015"><a xlink:title=" ">
<path fill="none" stroke="#63b8ff" d="M610.22,-475.4C590.02,-431.96 531.04,-305.46 521,-287.5 504.57,-258.11 482.76,-225.72 469.05,-206.03"/>
<polygon fill="#63b8ff" stroke="#63b8ff" points="472,-204.14 463.39,-197.97 466.27,-208.16 472,-204.14"/>
</a>
</g>
</g>
<!-- Node18 -->
<g id="Node000018" class="node">
<title>Node18</title>
<g id="a_Node000018"><a xlink:href="observablevalue_8h.html" target="_top" xlink:title=" ">
<polygon fill="white" stroke="#666666" points="511.88,-306.75 342.12,-306.75 342.12,-287.5 511.88,-287.5 511.88,-306.75"/>
<text text-anchor="middle" x="427" y="-293.25" font-family="Helvetica,sans-Serif" font-size="10.00">sensesp/system/observablevalue.h</text>
</a>
</g>
</g>
<!-- Node1&#45;&gt;Node18 -->
<g id="edge20_Node000001_Node000018" class="edge">
<title>Node1&#45;&gt;Node18</title>
<g id="a_edge20_Node000001_Node000018"><a xlink:title=" ">
<path fill="none" stroke="#63b8ff" d="M582.2,-475.43C564.15,-466.78 542.5,-454.6 526,-439.75 485.24,-403.08 452.23,-346.6 436.67,-317.27"/>
<polygon fill="#63b8ff" stroke="#63b8ff" points="439.82,-315.75 432.11,-308.48 433.61,-318.97 439.82,-315.75"/>
</a>
</g>
</g>
<!-- Node21 -->
<g id="Node000021" class="node">
<title>Node21</title>
<g id="a_Node000021"><a xlink:href="valueproducer_8h.html" target="_top" xlink:title=" ">
<polygon fill="white" stroke="#666666" points="698.12,-251.5 613.88,-251.5 613.88,-232.25 698.12,-232.25 698.12,-251.5"/>
<text text-anchor="middle" x="656" y="-238" font-family="Helvetica,sans-Serif" font-size="10.00">valueproducer.h</text>
</a>
</g>
</g>
<!-- Node1&#45;&gt;Node21 -->
<g id="edge43_Node000001_Node000021" class="edge">
<title>Node1&#45;&gt;Node21</title>
<g id="a_edge43_Node000001_Node000021"><a xlink:title=" ">
<path fill="none" stroke="#63b8ff" d="M612.16,-475.34C604.05,-448.82 589.31,-391.16 597,-342.75 601.05,-317.24 601.97,-309.8 615,-287.5 620.94,-277.34 629.52,-267.53 637.3,-259.72"/>
<polygon fill="#63b8ff" stroke="#63b8ff" points="639.65,-262.31 644.46,-252.87 634.81,-257.25 639.65,-262.31"/>
</a>
</g>
</g>
<!-- Node24 -->
<g id="Node000024" class="node">
<title>Node24</title>
<g id="a_Node000024"><a xlink:href="task__queue__producer_8h.html" target="_top" xlink:title=" ">
<polygon fill="white" stroke="#666666" points="291.88,-439.75 182.12,-439.75 182.12,-409.25 291.88,-409.25 291.88,-439.75"/>
<text text-anchor="start" x="190.12" y="-426.25" font-family="Helvetica,sans-Serif" font-size="10.00">sensesp/system/task</text>
<text text-anchor="middle" x="237" y="-415" font-family="Helvetica,sans-Serif" font-size="10.00">_queue_producer.h</text>
</a>
</g>
</g>
<!-- Node1&#45;&gt;Node24 -->
<g id="edge33_Node000001_Node000024" class="edge">
<title>Node1&#45;&gt;Node24</title>
<g id="a_edge33_Node000001_Node000024"><a xlink:title=" ">
<path fill="none" stroke="#63b8ff" d="M564.33,-482.2C502.38,-472.87 396.5,-456.4 306,-439.75 305.17,-439.6 304.33,-439.44 303.48,-439.28"/>
<polygon fill="#63b8ff" stroke="#63b8ff" points="304.29,-435.87 293.81,-437.43 302.97,-442.75 304.29,-435.87"/>
</a>
</g>
</g>
<!-- Node25 -->
<g id="Node000025" class="node">
<title>Node25</title>
<g id="a_Node000025"><a xlink:href="sensesp__base__app_8h.html" target="_top" xlink:title=" ">
<polygon fill="white" stroke="#666666" points="254.12,-367.62 145.88,-367.62 145.88,-348.38 254.12,-348.38 254.12,-367.62"/>
<text text-anchor="middle" x="200" y="-354.12" font-family="Helvetica,sans-Serif" font-size="10.00">sensesp_base_app.h</text>
</a>
</g>
</g>
<!-- Node1&#45;&gt;Node25 -->
<g id="edge53_Node000001_Node000025" class="edge">
<title>Node1&#45;&gt;Node25</title>
<g id="a_edge53_Node000001_Node000025"><a xlink:title=" ">
<path fill="none" stroke="#63b8ff" d="M564.59,-487.92C452.74,-482.93 198.71,-468.53 173,-439.75 157.13,-421.98 171.94,-394.58 185.09,-376.72"/>
<polygon fill="#63b8ff" stroke="#63b8ff" points="187.66,-379.12 191.09,-369.09 182.16,-374.79 187.66,-379.12"/>
</a>
</g>
</g>
<!-- Node30 -->
<g id="Node000030" class="node">
<title>Node30</title>
<g id="a_Node000030"><a xlink:href="integrator_8h.html" target="_top" xlink:title=" ">
<polygon fill="white" stroke="#666666" points="708.12,-373.25 605.88,-373.25 605.88,-342.75 708.12,-342.75 708.12,-373.25"/>
<text text-anchor="start" x="613.88" y="-359.75" font-family="Helvetica,sans-Serif" font-size="10.00">sensesp/transforms</text>
<text text-anchor="middle" x="657" y="-348.5" font-family="Helvetica,sans-Serif" font-size="10.00">/integrator.h</text>
</a>
</g>
</g>
<!-- Node1&#45;&gt;Node30 -->
<g id="edge44_Node000001_Node000030" class="edge">
<title>Node1&#45;&gt;Node30</title>
<g id="a_edge44_Node000001_Node000030"><a xlink:title=" ">
<path fill="none" stroke="#63b8ff" d="M621.43,-475.48C628.13,-453.55 640.92,-411.65 649.2,-384.54"/>
<polygon fill="#63b8ff" stroke="#63b8ff" points="652.53,-385.62 652.1,-375.03 645.84,-383.57 652.53,-385.62"/>
</a>
</g>
</g>
<!-- Node3 -->
<g id="Node000003" class="node">
<title>Node3</title>
<g id="a_Node000003"><a xlink:title=" ">
<polygon fill="#e0e0e0" stroke="#999999" points="144.62,-80.12 75.38,-80.12 75.38,-60.88 144.62,-60.88 144.62,-80.12"/>
<text text-anchor="middle" x="110" y="-66.62" font-family="Helvetica,sans-Serif" font-size="10.00">ReactESP.h</text>
</a>
</g>
</g>
<!-- Node2&#45;&gt;Node3 -->
<g id="edge2_Node000002_Node000003" class="edge">
<title>Node2&#45;&gt;Node3</title>
<g id="a_edge2_Node000002_Node000003"><a xlink:title=" ">
<path fill="none" stroke="#63b8ff" d="M296.37,-122.06C259.34,-112.02 196.74,-95.03 154.42,-83.55"/>
<polygon fill="#63b8ff" stroke="#63b8ff" points="155.35,-80.18 144.78,-80.94 153.52,-86.93 155.35,-80.18"/>
</a>
</g>
</g>
<!-- Node4 -->
<g id="Node000004" class="node">
<title>Node4</title>
<g id="a_Node000004"><a xlink:href="local__debug_8h.html" target="_top" xlink:title=" ">
<polygon fill="white" stroke="#666666" points="382.62,-85.75 271.38,-85.75 271.38,-55.25 382.62,-55.25 382.62,-85.75"/>
<text text-anchor="start" x="279.38" y="-72.25" font-family="Helvetica,sans-Serif" font-size="10.00">sensesp/system/local</text>
<text text-anchor="middle" x="327" y="-61" font-family="Helvetica,sans-Serif" font-size="10.00">_debug.h</text>
</a>
</g>
</g>
<!-- Node2&#45;&gt;Node4 -->
<g id="edge3_Node000002_Node000004" class="edge">
<title>Node2&#45;&gt;Node4</title>
<g id="a_edge3_Node000002_Node000004"><a xlink:title=" ">
<path fill="none" stroke="#63b8ff" d="M327,-121.43C327,-114.98 327,-105.91 327,-97.26"/>
<polygon fill="#63b8ff" stroke="#63b8ff" points="330.5,-97.55 327,-87.55 323.5,-97.55 330.5,-97.55"/>
</a>
</g>
</g>
<!-- Node5 -->
<g id="Node000005" class="node">
<title>Node5</title>
<g id="a_Node000005"><a xlink:title=" ">
<polygon fill="#e0e0e0" stroke="#999999" points="291,-19.25 209,-19.25 209,0 291,0 291,-19.25"/>
<text text-anchor="middle" x="250" y="-5.75" font-family="Helvetica,sans-Serif" font-size="10.00">esp32&#45;hal&#45;log.h</text>
</a>
</g>
</g>
<!-- Node4&#45;&gt;Node5 -->
<g id="edge4_Node000004_Node000005" class="edge">
<title>Node4&#45;&gt;Node5</title>
<g id="a_edge4_Node000004_Node000005"><a xlink:title=" ">
<path fill="none" stroke="#63b8ff" d="M307.97,-54.95C296.69,-46.33 282.4,-35.4 270.83,-26.55"/>
<polygon fill="#63b8ff" stroke="#63b8ff" points="273.14,-23.91 263.07,-20.62 268.89,-29.48 273.14,-23.91"/>
</a>
</g>
</g>
<!-- Node6 -->
<g id="Node000006" class="node">
<title>Node6</title>
<g id="a_Node000006"><a xlink:title=" ">
<polygon fill="#e0e0e0" stroke="#999999" points="435.62,-19.25 378.38,-19.25 378.38,0 435.62,0 435.62,-19.25"/>
<text text-anchor="middle" x="407" y="-5.75" font-family="Helvetica,sans-Serif" font-size="10.00">Arduino.h</text>
</a>
</g>
</g>
<!-- Node4&#45;&gt;Node6 -->
<g id="edge5_Node000004_Node000006" class="edge">
<title>Node4&#45;&gt;Node6</title>
<g id="a_edge5_Node000004_Node000006"><a xlink:title=" ">
<path fill="none" stroke="#63b8ff" d="M346.78,-54.95C358.6,-46.24 373.64,-35.18 385.72,-26.28"/>
<polygon fill="#63b8ff" stroke="#63b8ff" points="387.47,-29.34 393.45,-20.6 383.32,-23.71 387.47,-29.34"/>
</a>
</g>
</g>
<!-- Node7 -->
<g id="Node000007" class="node">
<title>Node7</title>
<g id="a_Node000007"><a xlink:title=" ">
<polygon fill="#e0e0e0" stroke="#999999" points="353.25,-19.25 308.75,-19.25 308.75,0 353.25,0 353.25,-19.25"/>
<text text-anchor="middle" x="331" y="-5.75" font-family="Helvetica,sans-Serif" font-size="10.00">Print.h</text>
</a>
</g>
</g>
<!-- Node4&#45;&gt;Node7 -->
<g id="edge6_Node000004_Node000007" class="edge">
<title>Node4&#45;&gt;Node7</title>
<g id="a_edge6_Node000004_Node000007"><a xlink:title=" ">
<path fill="none" stroke="#63b8ff" d="M327.99,-54.95C328.48,-47.71 329.08,-38.84 329.62,-30.94"/>
<polygon fill="#63b8ff" stroke="#63b8ff" points="333.09,-31.43 330.28,-21.21 326.11,-30.95 333.09,-31.43"/>
</a>
</g>
</g>
<!-- Node13 -->
<g id="Node000013" class="node">
<title>Node13</title>
<g id="a_Node000013"><a xlink:title=" ">
<polygon fill="#e0e0e0" stroke="#999999" points="801.12,-141 722.88,-141 722.88,-121.75 801.12,-121.75 801.12,-141"/>
<text text-anchor="middle" x="762" y="-127.5" font-family="Helvetica,sans-Serif" font-size="10.00">ArduinoJson.h</text>
</a>
</g>
</g>
<!-- Node12&#45;&gt;Node13 -->
<g id="edge12_Node000012_Node000013" class="edge">
<title>Node12&#45;&gt;Node13</title>
<g id="a_edge12_Node000012_Node000013"><a xlink:title=" ">
<path fill="none" stroke="#63b8ff" d="M810.12,-408.82C824.73,-386.15 850,-340.77 850,-298.12 850,-298.12 850,-298.12 850,-240.88 850,-200.23 812.29,-166.3 786.24,-147.72"/>
<polygon fill="#63b8ff" stroke="#63b8ff" points="788.41,-144.96 778.18,-142.21 784.46,-150.74 788.41,-144.96"/>
</a>
</g>
</g>
<!-- Node14 -->
<g id="Node000014" class="node">
<title>Node14</title>
<g id="a_Node000014"><a xlink:title=" ">
<polygon fill="#e0e0e0" stroke="#999999" points="814.4,-367.62 785.6,-367.62 785.6,-348.38 814.4,-348.38 814.4,-367.62"/>
<text text-anchor="middle" x="800" y="-354.12" font-family="Helvetica,sans-Serif" font-size="10.00">list</text>
</a>
</g>
</g>
<!-- Node12&#45;&gt;Node14 -->
<g id="edge13_Node000012_Node000014" class="edge">
<title>Node12&#45;&gt;Node14</title>
<g id="a_edge13_Node000012_Node000014"><a xlink:title=" ">
<path fill="none" stroke="#63b8ff" d="M800,-408.86C800,-400.08 800,-388.77 800,-379.15"/>
<polygon fill="#63b8ff" stroke="#63b8ff" points="803.5,-379.34 800,-369.34 796.5,-379.34 803.5,-379.34"/>
</a>
</g>
</g>
<!-- Node15&#45;&gt;Node2 -->
<g id="edge15_Node000015_Node000002" class="edge">
<title>Node15&#45;&gt;Node2</title>
<g id="a_edge15_Node000015_Node000002"><a xlink:title=" ">
<path fill="none" stroke="#63b8ff" d="M434.12,-176.59C413.64,-168.14 382.79,-155.4 359.44,-145.77"/>
<polygon fill="#63b8ff" stroke="#63b8ff" points="360.97,-142.61 350.39,-142.03 358.3,-149.08 360.97,-142.61"/>
</a>
</g>
</g>
<!-- Node15&#45;&gt;Node6 -->
<g id="edge19_Node000015_Node000006" class="edge">
<title>Node15&#45;&gt;Node6</title>
<g id="a_edge19_Node000015_Node000006"><a xlink:title=" ">
<path fill="none" stroke="#63b8ff" d="M449.4,-176.53C443.41,-167.83 434.81,-154.13 430,-141 416.27,-103.52 410.59,-56.9 408.35,-30.78"/>
<polygon fill="#63b8ff" stroke="#63b8ff" points="411.85,-30.66 407.6,-20.95 404.87,-31.19 411.85,-30.66"/>
</a>
</g>
</g>
<!-- Node15&#45;&gt;Node13 -->
<g id="edge16_Node000015_Node000013" class="edge">
<title>Node15&#45;&gt;Node13</title>
<g id="a_edge16_Node000015_Node000013"><a xlink:title=" ">
<path fill="none" stroke="#63b8ff" d="M508.89,-176.58C558.61,-168.06 635.42,-154.82 711.27,-141.47"/>
<polygon fill="#63b8ff" stroke="#63b8ff" points="711.72,-144.95 720.96,-139.77 710.5,-138.05 711.72,-144.95"/>
</a>
</g>
</g>
<!-- Node16 -->
<g id="Node000016" class="node">
<title>Node16</title>
<g id="a_Node000016"><a xlink:title=" ">
<polygon fill="#e0e0e0" stroke="#999999" points="473.38,-141 438.62,-141 438.62,-121.75 473.38,-121.75 473.38,-141"/>
<text text-anchor="middle" x="456" y="-127.5" font-family="Helvetica,sans-Serif" font-size="10.00">map</text>
</a>
</g>
</g>
<!-- Node15&#45;&gt;Node16 -->
<g id="edge17_Node000015_Node000016" class="edge">
<title>Node15&#45;&gt;Node16</title>
<g id="a_edge17_Node000015_Node000016"><a xlink:title=" ">
<path fill="none" stroke="#63b8ff" d="M456,-176.83C456,-170.32 456,-161.17 456,-152.87"/>
<polygon fill="#63b8ff" stroke="#63b8ff" points="459.5,-152.87 456,-142.87 452.5,-152.87 459.5,-152.87"/>
</a>
</g>
</g>
<!-- Node17 -->
<g id="Node000017" class="node">
<title>Node17</title>
<g id="a_Node000017"><a xlink:title=" ">
<polygon fill="#e0e0e0" stroke="#999999" points="534.5,-141 491.5,-141 491.5,-121.75 534.5,-121.75 534.5,-141"/>
<text text-anchor="middle" x="513" y="-127.5" font-family="Helvetica,sans-Serif" font-size="10.00">vector</text>
</a>
</g>
</g>
<!-- Node15&#45;&gt;Node17 -->
<g id="edge18_Node000015_Node000017" class="edge">
<title>Node15&#45;&gt;Node17</title>
<g id="a_edge18_Node000015_Node000017"><a xlink:title=" ">
<path fill="none" stroke="#63b8ff" d="M465.67,-176.59C473.74,-169.05 485.47,-158.1 495.22,-148.98"/>
<polygon fill="#63b8ff" stroke="#63b8ff" points="497.45,-151.69 502.37,-142.31 492.67,-146.58 497.45,-151.69"/>
</a>
</g>
</g>
<!-- Node18&#45;&gt;Node15 -->
<g id="edge21_Node000018_Node000015" class="edge">
<title>Node18&#45;&gt;Node15</title>
<g id="a_edge21_Node000018_Node000015"><a xlink:title=" ">
<path fill="none" stroke="#63b8ff" d="M423.61,-287.16C419.36,-274.54 413.39,-250.97 420,-232.25 423.62,-222 430.71,-212.37 437.64,-204.7"/>
<polygon fill="#63b8ff" stroke="#63b8ff" points="439.94,-207.35 444.44,-197.75 434.94,-202.45 439.94,-207.35"/>
</a>
</g>
</g>
<!-- Node19 -->
<g id="Node000019" class="node">
<title>Node19</title>
<g id="a_Node000019"><a xlink:href="observable_8h.html" target="_top" xlink:title=" ">
<polygon fill="white" stroke="#666666" points="621.75,-196.25 550.25,-196.25 550.25,-177 621.75,-177 621.75,-196.25"/>
<text text-anchor="middle" x="586" y="-182.75" font-family="Helvetica,sans-Serif" font-size="10.00">observable.h</text>
</a>
</g>
</g>
<!-- Node18&#45;&gt;Node19 -->
<g id="edge22_Node000018_Node000019" class="edge">
<title>Node18&#45;&gt;Node19</title>
<g id="a_edge22_Node000018_Node000019"><a xlink:title=" ">
<path fill="none" stroke="#63b8ff" d="M440.28,-287.06C467.47,-268.51 529.75,-226.01 563.41,-203.04"/>
<polygon fill="#63b8ff" stroke="#63b8ff" points="565.33,-205.97 571.62,-197.44 561.38,-200.19 565.33,-205.97"/>
</a>
</g>
</g>
<!-- Node18&#45;&gt;Node21 -->
<g id="edge26_Node000018_Node000021" class="edge">
<title>Node18&#45;&gt;Node21</title>
<g id="a_edge26_Node000018_Node000021"><a xlink:title=" ">
<path fill="none" stroke="#63b8ff" d="M466.11,-287.03C504.72,-278.05 563.93,-264.28 605.96,-254.51"/>
<polygon fill="#63b8ff" stroke="#63b8ff" points="606.63,-257.95 615.58,-252.27 605.05,-251.13 606.63,-257.95"/>
</a>
</g>
</g>
<!-- Node19&#45;&gt;Node10 -->
<g id="edge24_Node000019_Node000010" class="edge">
<title>Node19&#45;&gt;Node10</title>
<g id="a_edge24_Node000019_Node000010"><a xlink:title=" ">
<path fill="none" stroke="#63b8ff" d="M621.86,-178.74C624.95,-178.15 628.03,-177.56 631,-177 700.73,-163.81 781.96,-148.69 829.51,-139.87"/>
<polygon fill="#63b8ff" stroke="#63b8ff" points="829.87,-143.37 839.07,-138.1 828.6,-136.48 829.87,-143.37"/>
</a>
</g>
</g>
<!-- Node19&#45;&gt;Node17 -->
<g id="edge25_Node000019_Node000017" class="edge">
<title>Node19&#45;&gt;Node17</title>
<g id="a_edge25_Node000019_Node000017"><a xlink:title=" ">
<path fill="none" stroke="#63b8ff" d="M573.62,-176.59C562.85,-168.74 547.03,-157.2 534.25,-147.87"/>
<polygon fill="#63b8ff" stroke="#63b8ff" points="536.56,-145.23 526.42,-142.17 532.44,-150.89 536.56,-145.23"/>
</a>
</g>
</g>
<!-- Node20 -->
<g id="Node000020" class="node">
<title>Node20</title>
<g id="a_Node000020"><a xlink:title=" ">
<polygon fill="#e0e0e0" stroke="#999999" points="619.12,-141 552.88,-141 552.88,-121.75 619.12,-121.75 619.12,-141"/>
<text text-anchor="middle" x="586" y="-127.5" font-family="Helvetica,sans-Serif" font-size="10.00">forward_list</text>
</a>
</g>
</g>
<!-- Node19&#45;&gt;Node20 -->
<g id="edge23_Node000019_Node000020" class="edge">
<title>Node19&#45;&gt;Node20</title>
<g id="a_edge23_Node000019_Node000020"><a xlink:title=" ">
<path fill="none" stroke="#63b8ff" d="M586,-176.83C586,-170.32 586,-161.17 586,-152.87"/>
<polygon fill="#63b8ff" stroke="#63b8ff" points="589.5,-152.87 586,-142.87 582.5,-152.87 589.5,-152.87"/>
</a>
</g>
</g>
<!-- Node21&#45;&gt;Node13 -->
<g id="edge27_Node000021_Node000013" class="edge">
<title>Node21&#45;&gt;Node13</title>
<g id="a_edge27_Node000021_Node000013"><a xlink:title=" ">
<path fill="none" stroke="#63b8ff" d="M684.04,-231.76C701.95,-224.64 724.47,-213.1 739,-196.25 749.72,-183.81 755.59,-165.99 758.71,-152.33"/>
<polygon fill="#63b8ff" stroke="#63b8ff" points="762.1,-153.2 760.57,-142.71 755.23,-151.87 762.1,-153.2"/>
</a>
</g>
</g>
<!-- Node21&#45;&gt;Node19 -->
<g id="edge28_Node000021_Node000019" class="edge">
<title>Node21&#45;&gt;Node19</title>
<g id="a_edge28_Node000021_Node000019"><a xlink:title=" ">
<path fill="none" stroke="#63b8ff" d="M644.13,-231.84C633.91,-224.07 618.93,-212.67 606.74,-203.4"/>
<polygon fill="#63b8ff" stroke="#63b8ff" points="608.98,-200.71 598.9,-197.44 604.74,-206.28 608.98,-200.71"/>
</a>
</g>
</g>
<!-- Node22 -->
<g id="Node000022" class="node">
<title>Node22</title>
<g id="a_Node000022"><a xlink:href="valueconsumer_8h.html" target="_top" xlink:title=" ">
<polygon fill="white" stroke="#666666" points="729.75,-196.25 640.25,-196.25 640.25,-177 729.75,-177 729.75,-196.25"/>
<text text-anchor="middle" x="685" y="-182.75" font-family="Helvetica,sans-Serif" font-size="10.00">valueconsumer.h</text>
</a>
</g>
</g>
<!-- Node21&#45;&gt;Node22 -->
<g id="edge29_Node000021_Node000022" class="edge">
<title>Node21&#45;&gt;Node22</title>
<g id="a_edge29_Node000021_Node000022"><a xlink:title=" ">
<path fill="none" stroke="#63b8ff" d="M660.79,-232.08C664.54,-225.19 669.91,-215.34 674.63,-206.66"/>
<polygon fill="#63b8ff" stroke="#63b8ff" points="677.67,-208.39 679.38,-197.94 671.53,-205.05 677.67,-208.39"/>
</a>
</g>
</g>
<!-- Node22&#45;&gt;Node2 -->
<g id="edge30_Node000022_Node000002" class="edge">
<title>Node22&#45;&gt;Node2</title>
<g id="a_edge30_Node000022_Node000002"><a xlink:title=" ">
<path fill="none" stroke="#63b8ff" d="M639.93,-178.38C636.91,-177.91 633.91,-177.45 631,-177 537.52,-162.67 427.72,-146.79 369.03,-138.37"/>
<polygon fill="#63b8ff" stroke="#63b8ff" points="369.55,-134.91 359.15,-136.96 368.56,-141.84 369.55,-134.91"/>
</a>
</g>
</g>
<!-- Node22&#45;&gt;Node13 -->
<g id="edge31_Node000022_Node000013" class="edge">
<title>Node22&#45;&gt;Node13</title>
<g id="a_edge31_Node000022_Node000013"><a xlink:title=" ">
<path fill="none" stroke="#63b8ff" d="M698.06,-176.59C709.46,-168.71 726.23,-157.11 739.74,-147.77"/>
<polygon fill="#63b8ff" stroke="#63b8ff" points="741.4,-150.88 747.63,-142.31 737.41,-145.12 741.4,-150.88"/>
</a>
</g>
</g>
<!-- Node23 -->
<g id="Node000023" class="node">
<title>Node23</title>
<g id="a_Node000023"><a xlink:title=" ">
<polygon fill="#e0e0e0" stroke="#999999" points="705.12,-141 656.88,-141 656.88,-121.75 705.12,-121.75 705.12,-141"/>
<text text-anchor="middle" x="681" y="-127.5" font-family="Helvetica,sans-Serif" font-size="10.00">stdint.h</text>
</a>
</g>
</g>
<!-- Node22&#45;&gt;Node23 -->
<g id="edge32_Node000022_Node000023" class="edge">
<title>Node22&#45;&gt;Node23</title>
<g id="a_edge32_Node000022_Node000023"><a xlink:title=" ">
<path fill="none" stroke="#63b8ff" d="M684.34,-176.83C683.84,-170.24 683.15,-160.96 682.52,-152.57"/>
<polygon fill="#63b8ff" stroke="#63b8ff" points="686.03,-152.58 681.79,-142.87 679.05,-153.1 686.03,-152.58"/>
</a>
</g>
</g>
<!-- Node24&#45;&gt;Node3 -->
<g id="edge34_Node000024_Node000003" class="edge">
<title>Node24&#45;&gt;Node3</title>
<g id="a_edge34_Node000024_Node000003"><a xlink:title=" ">
<path fill="none" stroke="#63b8ff" d="M181.73,-418.38C111.7,-408.51 0,-379.93 0,-298.12 0,-298.12 0,-298.12 0,-185.62 0,-139.07 48.05,-104.2 80.63,-85.91"/>
<polygon fill="#63b8ff" stroke="#63b8ff" points="82.1,-89.09 89.25,-81.27 78.79,-82.93 82.1,-89.09"/>
</a>
</g>
</g>
<!-- Node24&#45;&gt;Node18 -->
<g id="edge35_Node000024_Node000018" class="edge">
<title>Node24&#45;&gt;Node18</title>
<g id="a_edge35_Node000024_Node000018"><a xlink:title=" ">
<path fill="none" stroke="#63b8ff" d="M259.17,-408.87C295.5,-384.9 367.33,-337.5 404.12,-313.22"/>
<polygon fill="#63b8ff" stroke="#63b8ff" points="405.83,-316.29 412.24,-307.86 401.97,-310.45 405.83,-316.29"/>
</a>
</g>
</g>
<!-- Node24&#45;&gt;Node25 -->
<g id="edge36_Node000024_Node000025" class="edge">
<title>Node24&#45;&gt;Node25</title>
<g id="a_edge36_Node000024_Node000025"><a xlink:title=" ">
<path fill="none" stroke="#63b8ff" d="M228.6,-408.86C223.28,-399.58 216.35,-387.5 210.64,-377.55"/>
<polygon fill="#63b8ff" stroke="#63b8ff" points="213.83,-376.07 205.81,-369.14 207.75,-379.55 213.83,-376.07"/>
</a>
</g>
</g>
<!-- Node25&#45;&gt;Node2 -->
<g id="edge37_Node000025_Node000002" class="edge">
<title>Node25&#45;&gt;Node2</title>
<g id="a_edge37_Node000025_Node000002"><a xlink:title=" ">
<path fill="none" stroke="#63b8ff" d="M201.43,-348.1C203.82,-334.55 209.35,-308.12 219,-287.5 244.37,-233.26 288.45,-177.52 311.67,-149.99"/>
<polygon fill="#63b8ff" stroke="#63b8ff" points="314.13,-152.5 317.97,-142.62 308.81,-147.95 314.13,-152.5"/>
</a>
</g>
</g>
<!-- Node25&#45;&gt;Node18 -->
<g id="edge42_Node000025_Node000018" class="edge">
<title>Node25&#45;&gt;Node18</title>
<g id="a_edge42_Node000025_Node000018"><a xlink:title=" ">
<path fill="none" stroke="#63b8ff" d="M234.97,-347.93C274.13,-337.77 337.75,-321.27 380.93,-310.07"/>
<polygon fill="#63b8ff" stroke="#63b8ff" points="381.72,-313.48 390.52,-307.59 379.97,-306.71 381.72,-313.48"/>
</a>
</g>
</g>
<!-- Node26 -->
<g id="Node000026" class="node">
<title>Node26</title>
<g id="a_Node000026"><a xlink:title=" ">
<polygon fill="#e0e0e0" stroke="#999999" points="286,-306.75 228,-306.75 228,-287.5 286,-287.5 286,-306.75"/>
<text text-anchor="middle" x="257" y="-293.25" font-family="Helvetica,sans-Serif" font-size="10.00">esp_log.h</text>
</a>
</g>
</g>
<!-- Node25&#45;&gt;Node26 -->
<g id="edge38_Node000025_Node000026" class="edge">
<title>Node25&#45;&gt;Node26</title>
<g id="a_edge38_Node000025_Node000026"><a xlink:title=" ">
<path fill="none" stroke="#63b8ff" d="M208.66,-348.06C217.03,-339.41 229.93,-326.09 240.3,-315.37"/>
<polygon fill="#63b8ff" stroke="#63b8ff" points="242.77,-317.86 247.21,-308.24 237.74,-312.99 242.77,-317.86"/>
</a>
</g>
</g>
<!-- Node27 -->
<g id="Node000027" class="node">
<title>Node27</title>
<g id="a_Node000027"><a xlink:href="filesystem_8h.html" target="_top" xlink:title=" ">
<polygon fill="white" stroke="#666666" points="172.12,-306.75 27.88,-306.75 27.88,-287.5 172.12,-287.5 172.12,-306.75"/>
<text text-anchor="middle" x="100" y="-293.25" font-family="Helvetica,sans-Serif" font-size="10.00">sensesp/system/filesystem.h</text>
</a>
</g>
</g>
<!-- Node25&#45;&gt;Node27 -->
<g id="edge39_Node000025_Node000027" class="edge">
<title>Node25&#45;&gt;Node27</title>
<g id="a_edge39_Node000025_Node000027"><a xlink:title=" ">
<path fill="none" stroke="#63b8ff" d="M184.81,-348.06C168.95,-338.72 143.82,-323.92 125.02,-312.86"/>
<polygon fill="#63b8ff" stroke="#63b8ff" points="127.03,-309.98 116.64,-307.92 123.48,-316.01 127.03,-309.98"/>
</a>
</g>
</g>
<!-- Node28 -->
<g id="Node000028" class="node">
<title>Node28</title>
<g id="a_Node000028"><a xlink:href="resettable_8h.html" target="_top" xlink:title=" ">
<polygon fill="white" stroke="#666666" points="133.5,-251.5 66.5,-251.5 66.5,-232.25 133.5,-232.25 133.5,-251.5"/>
<text text-anchor="middle" x="100" y="-238" font-family="Helvetica,sans-Serif" font-size="10.00">resettable.h</text>
</a>
</g>
</g>
<!-- Node27&#45;&gt;Node28 -->
<g id="edge40_Node000027_Node000028" class="edge">
<title>Node27&#45;&gt;Node28</title>
<g id="a_edge40_Node000027_Node000028"><a xlink:title=" ">
<path fill="none" stroke="#63b8ff" d="M100,-287.33C100,-280.82 100,-271.67 100,-263.37"/>
<polygon fill="#63b8ff" stroke="#63b8ff" points="103.5,-263.37 100,-253.37 96.5,-263.37 103.5,-263.37"/>
</a>
</g>
</g>
<!-- Node29 -->
<g id="Node000029" class="node">
<title>Node29</title>
<g id="a_Node000029"><a xlink:title=" ">
<polygon fill="#e0e0e0" stroke="#999999" points="121.12,-196.25 78.88,-196.25 78.88,-177 121.12,-177 121.12,-196.25"/>
<text text-anchor="middle" x="100" y="-182.75" font-family="Helvetica,sans-Serif" font-size="10.00">queue</text>
</a>
</g>
</g>
<!-- Node28&#45;&gt;Node29 -->
<g id="edge41_Node000028_Node000029" class="edge">
<title>Node28&#45;&gt;Node29</title>
<g id="a_edge41_Node000028_Node000029"><a xlink:title=" ">
<path fill="none" stroke="#63b8ff" d="M100,-232.08C100,-225.57 100,-216.42 100,-208.12"/>
<polygon fill="#63b8ff" stroke="#63b8ff" points="103.5,-208.12 100,-198.12 96.5,-208.12 103.5,-208.12"/>
</a>
</g>
</g>
<!-- Node31 -->
<g id="Node000031" class="node">
<title>Node31</title>
<g id="a_Node000031"><a xlink:href="transform_8h.html" target="_top" xlink:title=" ">
<polygon fill="white" stroke="#666666" points="689.75,-306.75 624.25,-306.75 624.25,-287.5 689.75,-287.5 689.75,-306.75"/>
<text text-anchor="middle" x="657" y="-293.25" font-family="Helvetica,sans-Serif" font-size="10.00">transform.h</text>
</a>
</g>
</g>
<!-- Node30&#45;&gt;Node31 -->
<g id="edge45_Node000030_Node000031" class="edge">
<title>Node30&#45;&gt;Node31</title>
<g id="a_edge45_Node000030_Node000031"><a xlink:title=" ">
<path fill="none" stroke="#63b8ff" d="M657,-342.45C657,-335.21 657,-326.34 657,-318.44"/>
<polygon fill="#63b8ff" stroke="#63b8ff" points="660.5,-318.71 657,-308.71 653.5,-318.71 660.5,-318.71"/>
</a>
</g>
</g>
<!-- Node31&#45;&gt;Node2 -->
<g id="edge46_Node000031_Node000002" class="edge">
<title>Node31&#45;&gt;Node2</title>
<g id="a_edge46_Node000031_Node000002"><a xlink:title=" ">
<path fill="none" stroke="#63b8ff" d="M623.82,-291.42C567,-281.98 449.61,-256.23 371,-196.25 355.46,-184.39 343.39,-165.44 335.86,-151.25"/>
<polygon fill="#63b8ff" stroke="#63b8ff" points="339.08,-149.87 331.48,-142.48 332.81,-152.99 339.08,-149.87"/>
</a>
</g>
</g>
<!-- Node31&#45;&gt;Node11 -->
<g id="edge48_Node000031_Node000011" class="edge">
<title>Node31&#45;&gt;Node11</title>
<g id="a_edge48_Node000031_Node000011"><a xlink:title=" ">
<path fill="none" stroke="#63b8ff" d="M682.45,-287.09C709.95,-277.33 753.53,-261.86 781.18,-252.04"/>
<polygon fill="#63b8ff" stroke="#63b8ff" points="782.28,-255.37 790.53,-248.72 779.94,-248.77 782.28,-255.37"/>
</a>
</g>
</g>
<!-- Node31&#45;&gt;Node13 -->
<g id="edge47_Node000031_Node000013" class="edge">
<title>Node31&#45;&gt;Node13</title>
<g id="a_edge47_Node000031_Node000013"><a xlink:title=" ">
<path fill="none" stroke="#63b8ff" d="M673.78,-287.02C687.73,-278.91 707.57,-266.1 722,-251.5 742.78,-230.48 749.75,-224.32 759,-196.25 763.64,-182.17 764.26,-165.41 763.78,-152.59"/>
<polygon fill="#63b8ff" stroke="#63b8ff" points="767.29,-152.59 763.16,-142.83 760.31,-153.04 767.29,-152.59"/>
</a>
</g>
</g>
<!-- Node31&#45;&gt;Node15 -->
<g id="edge49_Node000031_Node000015" class="edge">
<title>Node31&#45;&gt;Node15</title>
<g id="a_edge49_Node000031_Node000015"><a xlink:title=" ">
<path fill="none" stroke="#63b8ff" d="M640.21,-287.06C605.4,-268.27 525.13,-224.94 482.97,-202.18"/>
<polygon fill="#63b8ff" stroke="#63b8ff" points="484.68,-199.13 474.22,-197.46 481.35,-205.29 484.68,-199.13"/>
</a>
</g>
</g>
<!-- Node31&#45;&gt;Node19 -->
<g id="edge50_Node000031_Node000019" class="edge">
<title>Node31&#45;&gt;Node19</title>
<g id="a_edge50_Node000031_Node000019"><a xlink:title=" ">
<path fill="none" stroke="#63b8ff" d="M642.63,-287.21C630.89,-279.22 614.71,-266.47 605,-251.5 596.41,-238.26 591.58,-220.99 588.94,-207.75"/>
<polygon fill="#63b8ff" stroke="#63b8ff" points="592.42,-207.31 587.29,-198.04 585.52,-208.49 592.42,-207.31"/>
</a>
</g>
</g>
<!-- Node31&#45;&gt;Node21 -->
<g id="edge52_Node000031_Node000021" class="edge">
<title>Node31&#45;&gt;Node21</title>
<g id="a_edge52_Node000031_Node000021"><a xlink:title=" ">
<path fill="none" stroke="#63b8ff" d="M656.83,-287.33C656.71,-280.82 656.54,-271.67 656.38,-263.37"/>
<polygon fill="#63b8ff" stroke="#63b8ff" points="659.88,-263.3 656.2,-253.37 652.89,-263.44 659.88,-263.3"/>
</a>
</g>
</g>
<!-- Node31&#45;&gt;Node22 -->
<g id="edge51_Node000031_Node000022" class="edge">
<title>Node31&#45;&gt;Node22</title>
<g id="a_edge51_Node000031_Node000022"><a xlink:title=" ">
<path fill="none" stroke="#63b8ff" d="M672.92,-287.08C684.77,-279.34 700.06,-267 707,-251.5 713.73,-236.47 706.46,-218.7 698.51,-205.73"/>
<polygon fill="#63b8ff" stroke="#63b8ff" points="701.61,-204.06 693.11,-197.75 695.82,-207.99 701.61,-204.06"/>
</a>
</g>
</g>
</g>
</svg>

<g id="navigator" transform="translate(0 0)" fill="#404254">
  <rect fill="#f2f5e9" fill-opacity="0.5" stroke="#606060" stroke-width=".5" x="0" y="0" width="60" height="60"/>
  <use id="zoomplus" xlink:href="#zoomPlus" x="17" y="9" onmousedown="handleZoom(evt,'in')"/>
  <use id="zoomminus" xlink:href="#zoomMin" x="42" y="9" onmousedown="handleZoom(evt,'out')"/>
  <use id="reset" xlink:href="#resetDef" x="30" y="36" onmousedown="handleReset()"/>
   <use id="arrowup" xlink:href="#arrowUp" x="0" y="0" onmousedown="handlePan(0,-1)"/>
  <use id="arrowright" xlink:href="#arrowRight" x="0" y="0" onmousedown="handlePan(1,0)"/>
  <use id="arrowdown" xlink:href="#arrowDown" x="0" y="0" onmousedown="handlePan(0,1)"/>
  <use id="arrowleft" xlink:href="#arrowLeft" x="0" y="0" onmousedown="handlePan(-1,0)"/>
</g>
<svg viewBox="0 0 15 15" width="100%" height="30px" preserveAspectRatio="xMaxYMin meet">
 <g id="arrow_out" transform="scale(0.3 0.3)">
  <a xlink:href="signalk__ws__client_8h__incl_org.svg" target="_base">
   <rect id="button" ry="5" rx="5" y="6" x="6" height="38" width="38"
        fill="#f2f5e9" fill-opacity="0.5" stroke="#606060" stroke-width="1.0"/>
   <path id="arrow"
     d="M 11.500037,31.436501 C 11.940474,20.09759 22.043105,11.32322 32.158766,21.979434 L 37.068811,17.246167 C 37.068811,17.246167 37.088388,32 37.088388,32 L 22.160133,31.978069 C 22.160133,31.978069 26.997745,27.140456 26.997745,27.140456 C 18.528582,18.264221 13.291696,25.230495 11.500037,31.436501 z"
     style="fill:#404040;"/>
  </a>
 </g>
</svg>

<style type='text/css'>
<![CDATA[
[data-mouse-over-selected='false'] { opacity: 0.7; }
[data-mouse-over-selected='true']  { opacity: 1.0; }
]]>
</style>
<script type="application/ecmascript"><![CDATA[
document.addEventListener('DOMContentLoaded', (event) => {
  highlightEdges();
  highlightAdjacentNodes();
});
]]></script>
</svg>
