<?xml version="1.0" encoding="UTF-8" standalone="no"?>
<!DOCTYPE svg PUBLIC "-//W3C//DTD SVG 1.1//EN"
 "http://www.w3.org/Graphics/SVG/1.1/DTD/svg11.dtd">
<!-- Generated by graphviz version 7.1.0 (20230121.1956)
 -->
<!-- Title: src/sensesp/signalk/signalk_put_request.h Pages: 1 -->
<svg width="473pt" height="269pt"
 viewBox="0.00 0.00 472.72 269.00" xmlns="http://www.w3.org/2000/svg" xmlns:xlink="http://www.w3.org/1999/xlink">
<g id="graph0" class="graph" transform="scale(1 1) rotate(0) translate(4 265)">
<title>src/sensesp/signalk/signalk_put_request.h</title>
<!-- Node1 -->
<g id="node1" class="node">
<title>Node1</title>
<g id="a_node1"><a xlink:title=" ">
<polygon fill="#999999" stroke="#666666" points="224.72,-261 109.72,-261 109.72,-231 224.72,-231 224.72,-261"/>
<text text-anchor="start" x="117.72" y="-249" font-family="Helvetica,sans-Serif" font-size="10.00">src/sensesp/signalk</text>
<text text-anchor="middle" x="167.22" y="-238" font-family="Helvetica,sans-Serif" font-size="10.00">/signalk_put_request.h</text>
</a>
</g>
</g>
<!-- Node2 -->
<g id="node2" class="node">
<title>Node2</title>
<g id="a_node2"><a xlink:title=" ">
<polygon fill="#e0e0e0" stroke="#999999" points="310.72,-140 231.72,-140 231.72,-121 310.72,-121 310.72,-140"/>
<text text-anchor="middle" x="271.22" y="-128" font-family="Helvetica,sans-Serif" font-size="10.00">ArduinoJson.h</text>
</a>
</g>
</g>
<!-- Node1&#45;&gt;Node2 -->
<g id="edge1" class="edge">
<title>Node1&#45;&gt;Node2</title>
<path fill="none" stroke="#63b8ff" d="M204.69,-230.52C221.37,-222.36 239.97,-210.63 252.22,-195 262.02,-182.51 266.77,-165.05 269.08,-151.59"/>
<polygon fill="#63b8ff" stroke="#63b8ff" points="272.54,-152.1 270.42,-141.72 265.6,-151.16 272.54,-152.1"/>
</g>
<!-- Node3 -->
<g id="node3" class="node">
<title>Node3</title>
<g id="a_node3"><a xlink:title=" ">
<polygon fill="#e0e0e0" stroke="#999999" points="72.72,-195 13.72,-195 13.72,-176 72.72,-176 72.72,-195"/>
<text text-anchor="middle" x="43.22" y="-183" font-family="Helvetica,sans-Serif" font-size="10.00">functional</text>
</a>
</g>
</g>
<!-- Node1&#45;&gt;Node3 -->
<g id="edge2" class="edge">
<title>Node1&#45;&gt;Node3</title>
<path fill="none" stroke="#63b8ff" d="M136.57,-230.54C116.94,-221.28 91.61,-209.33 72.29,-200.21"/>
<polygon fill="#63b8ff" stroke="#63b8ff" points="73.88,-197.09 63.34,-195.99 70.89,-203.42 73.88,-197.09"/>
</g>
<!-- Node4 -->
<g id="node4" class="node">
<title>Node4</title>
<g id="a_node4"><a xlink:title=" ">
<polygon fill="#e0e0e0" stroke="#999999" points="70.72,-140 35.72,-140 35.72,-121 70.72,-121 70.72,-140"/>
<text text-anchor="middle" x="53.22" y="-128" font-family="Helvetica,sans-Serif" font-size="10.00">map</text>
</a>
</g>
</g>
<!-- Node1&#45;&gt;Node4 -->
<g id="edge3" class="edge">
<title>Node1&#45;&gt;Node4</title>
<path fill="none" stroke="#63b8ff" d="M109.53,-243.73C72.99,-239.55 28.24,-227.49 4.22,-195 -8.07,-178.37 10.39,-159.67 28.06,-146.89"/>
<polygon fill="#63b8ff" stroke="#63b8ff" points="30.01,-149.8 36.34,-141.3 26.09,-144 30.01,-149.8"/>
</g>
<!-- Node5 -->
<g id="node5" class="node">
<title>Node5</title>
<g id="a_node5"><a xlink:href="configurable_8h.html" target="_top" xlink:title=" ">
<polygon fill="white" stroke="#666666" points="243.22,-195 91.22,-195 91.22,-176 243.22,-176 243.22,-195"/>
<text text-anchor="middle" x="167.22" y="-183" font-family="Helvetica,sans-Serif" font-size="10.00">sensesp/system/configurable.h</text>
</a>
</g>
</g>
<!-- Node1&#45;&gt;Node5 -->
<g id="edge4" class="edge">
<title>Node1&#45;&gt;Node5</title>
<path fill="none" stroke="#63b8ff" d="M167.22,-230.54C167.22,-223.34 167.22,-214.53 167.22,-206.68"/>
<polygon fill="#63b8ff" stroke="#63b8ff" points="170.72,-206.69 167.22,-196.69 163.72,-206.69 170.72,-206.69"/>
</g>
<!-- Node7 -->
<g id="node7" class="node">
<title>Node7</title>
<g id="a_node7"><a xlink:href="valueconsumer_8h.html" target="_top" xlink:title=" ">
<polygon fill="white" stroke="#666666" points="464.72,-195 299.72,-195 299.72,-176 464.72,-176 464.72,-195"/>
<text text-anchor="middle" x="382.22" y="-183" font-family="Helvetica,sans-Serif" font-size="10.00">sensesp/system/valueconsumer.h</text>
</a>
</g>
</g>
<!-- Node1&#45;&gt;Node7 -->
<g id="edge8" class="edge">
<title>Node1&#45;&gt;Node7</title>
<path fill="none" stroke="#63b8ff" d="M220.37,-230.54C256.68,-220.66 304.22,-207.73 338.36,-198.43"/>
<polygon fill="#63b8ff" stroke="#63b8ff" points="339.21,-201.83 347.94,-195.83 337.37,-195.08 339.21,-201.83"/>
</g>
<!-- Node5&#45;&gt;Node2 -->
<g id="edge5" class="edge">
<title>Node5&#45;&gt;Node2</title>
<path fill="none" stroke="#63b8ff" d="M184.87,-175.51C200.95,-167.31 224.97,-155.07 243.6,-145.58"/>
<polygon fill="#63b8ff" stroke="#63b8ff" points="245.17,-148.7 252.49,-141.05 242,-142.47 245.17,-148.7"/>
</g>
<!-- Node5&#45;&gt;Node4 -->
<g id="edge6" class="edge">
<title>Node5&#45;&gt;Node4</title>
<path fill="none" stroke="#63b8ff" d="M147.89,-175.51C129.69,-167.05 102.21,-154.28 81.54,-144.67"/>
<polygon fill="#63b8ff" stroke="#63b8ff" points="83.07,-141.52 72.52,-140.47 80.12,-147.86 83.07,-141.52"/>
</g>
<!-- Node6 -->
<g id="node6" class="node">
<title>Node6</title>
<g id="a_node6"><a xlink:title=" ">
<polygon fill="#e0e0e0" stroke="#999999" points="203.22,-19 145.22,-19 145.22,0 203.22,0 203.22,-19"/>
<text text-anchor="middle" x="174.22" y="-7" font-family="Helvetica,sans-Serif" font-size="10.00">Arduino.h</text>
</a>
</g>
</g>
<!-- Node5&#45;&gt;Node6 -->
<g id="edge7" class="edge">
<title>Node5&#45;&gt;Node6</title>
<path fill="none" stroke="#63b8ff" d="M167.58,-175.63C168.66,-148.87 171.89,-68.44 173.42,-30.59"/>
<polygon fill="#63b8ff" stroke="#63b8ff" points="176.91,-30.79 173.82,-20.66 169.92,-30.51 176.91,-30.79"/>
</g>
<!-- Node7&#45;&gt;Node2 -->
<g id="edge9" class="edge">
<title>Node7&#45;&gt;Node2</title>
<path fill="none" stroke="#63b8ff" d="M363.39,-175.51C346.07,-167.24 320.11,-154.84 300.15,-145.31"/>
<polygon fill="#63b8ff" stroke="#63b8ff" points="301.67,-142.16 291.14,-141.01 298.66,-148.48 301.67,-142.16"/>
</g>
<!-- Node8 -->
<g id="node8" class="node">
<title>Node8</title>
<g id="a_node8"><a xlink:title=" ">
<polygon fill="#e0e0e0" stroke="#999999" points="458.72,-140 409.72,-140 409.72,-121 458.72,-121 458.72,-140"/>
<text text-anchor="middle" x="434.22" y="-128" font-family="Helvetica,sans-Serif" font-size="10.00">stdint.h</text>
</a>
</g>
</g>
<!-- Node7&#45;&gt;Node8 -->
<g id="edge10" class="edge">
<title>Node7&#45;&gt;Node8</title>
<path fill="none" stroke="#63b8ff" d="M390.81,-175.75C398.07,-168.35 408.68,-157.54 417.59,-148.45"/>
<polygon fill="#63b8ff" stroke="#63b8ff" points="419.89,-151.11 424.39,-141.52 414.89,-146.21 419.89,-151.11"/>
</g>
<!-- Node9 -->
<g id="node9" class="node">
<title>Node9</title>
<g id="a_node9"><a xlink:href="sensesp_8h.html" target="_top" xlink:title=" ">
<polygon fill="white" stroke="#666666" points="391.22,-140 329.22,-140 329.22,-121 391.22,-121 391.22,-140"/>
<text text-anchor="middle" x="360.22" y="-128" font-family="Helvetica,sans-Serif" font-size="10.00">sensesp.h</text>
</a>
</g>
</g>
<!-- Node7&#45;&gt;Node9 -->
<g id="edge11" class="edge">
<title>Node7&#45;&gt;Node9</title>
<path fill="none" stroke="#63b8ff" d="M378.59,-175.75C375.81,-169.04 371.85,-159.52 368.33,-151.02"/>
<polygon fill="#63b8ff" stroke="#63b8ff" points="371.58,-149.73 364.52,-141.84 365.12,-152.42 371.58,-149.73"/>
</g>
<!-- Node10 -->
<g id="node10" class="node">
<title>Node10</title>
<g id="a_node10"><a xlink:title=" ">
<polygon fill="#e0e0e0" stroke="#999999" points="395.22,-79.5 325.22,-79.5 325.22,-60.5 395.22,-60.5 395.22,-79.5"/>
<text text-anchor="middle" x="360.22" y="-67.5" font-family="Helvetica,sans-Serif" font-size="10.00">ReactESP.h</text>
</a>
</g>
</g>
<!-- Node9&#45;&gt;Node10 -->
<g id="edge12" class="edge">
<title>Node9&#45;&gt;Node10</title>
<path fill="none" stroke="#63b8ff" d="M360.22,-120.87C360.22,-113 360.22,-101.1 360.22,-90.89"/>
<polygon fill="#63b8ff" stroke="#63b8ff" points="363.72,-91.18 360.22,-81.18 356.72,-91.18 363.72,-91.18"/>
</g>
<!-- Node11 -->
<g id="node11" class="node">
<title>Node11</title>
<g id="a_node11"><a xlink:href="local__debug_8h.html" target="_top" xlink:title=" ">
<polygon fill="white" stroke="#666666" points="307.22,-85 195.22,-85 195.22,-55 307.22,-55 307.22,-85"/>
<text text-anchor="start" x="203.22" y="-73" font-family="Helvetica,sans-Serif" font-size="10.00">sensesp/system/local</text>
<text text-anchor="middle" x="251.22" y="-62" font-family="Helvetica,sans-Serif" font-size="10.00">_debug.h</text>
</a>
</g>
</g>
<!-- Node9&#45;&gt;Node11 -->
<g id="edge13" class="edge">
<title>Node9&#45;&gt;Node11</title>
<path fill="none" stroke="#63b8ff" d="M343.67,-120.62C329,-112.74 307.04,-100.96 288.2,-90.85"/>
<polygon fill="#63b8ff" stroke="#63b8ff" points="289.93,-87.8 279.46,-86.16 286.62,-93.97 289.93,-87.8"/>
</g>
<!-- Node11&#45;&gt;Node6 -->
<g id="edge14" class="edge">
<title>Node11&#45;&gt;Node6</title>
<path fill="none" stroke="#63b8ff" d="M232.19,-54.54C220.78,-45.87 206.27,-34.85 194.62,-26"/>
<polygon fill="#63b8ff" stroke="#63b8ff" points="196.93,-23.35 186.85,-20.09 192.69,-28.93 196.93,-23.35"/>
</g>
<!-- Node12 -->
<g id="node12" class="node">
<title>Node12</title>
<g id="a_node12"><a xlink:title=" ">
<polygon fill="#e0e0e0" stroke="#999999" points="273.72,-19 228.72,-19 228.72,0 273.72,0 273.72,-19"/>
<text text-anchor="middle" x="251.22" y="-7" font-family="Helvetica,sans-Serif" font-size="10.00">Print.h</text>
</a>
</g>
</g>
<!-- Node11&#45;&gt;Node12 -->
<g id="edge15" class="edge">
<title>Node11&#45;&gt;Node12</title>
<path fill="none" stroke="#63b8ff" d="M251.22,-54.54C251.22,-47.34 251.22,-38.53 251.22,-30.68"/>
<polygon fill="#63b8ff" stroke="#63b8ff" points="254.72,-30.69 251.22,-20.69 247.72,-30.69 254.72,-30.69"/>
</g>
</g>
</svg>
