<?xml version="1.0" encoding="UTF-8" standalone="no"?>
<!DOCTYPE svg PUBLIC "-//W3C//DTD SVG 1.1//EN"
 "http://www.w3.org/Graphics/SVG/1.1/DTD/svg11.dtd">
<!-- Generated by graphviz version 2.49.3 (20211023.0002)
 -->
<!-- Title: src/sensesp/signalk/signalk_output.h Pages: 1 -->
<svg width="450pt" height="173pt"
 viewBox="0.00 0.00 449.50 173.00" xmlns="http://www.w3.org/2000/svg" xmlns:xlink="http://www.w3.org/1999/xlink">
<g id="graph0" class="graph" transform="scale(1 1) rotate(0) translate(4 169)">
<title>src/sensesp/signalk/signalk_output.h</title>
<polygon fill="white" stroke="transparent" points="-4,4 -4,-169 445.5,-169 445.5,4 -4,4"/>
<!-- Node1 -->
<g id="node1" class="node">
<title>Node1</title>
<g id="a_node1"><a xlink:title=" ">
<polygon fill="#bfbfbf" stroke="black" points="213,-134.5 213,-164.5 317,-164.5 317,-134.5 213,-134.5"/>
<text text-anchor="start" x="221" y="-152.5" font-family="Helvetica,sans-Serif" font-size="10.00">src/sensesp/signalk</text>
<text text-anchor="middle" x="265" y="-141.5" font-family="Helvetica,sans-Serif" font-size="10.00">/signalk_output.h</text>
</a>
</g>
</g>
<!-- Node2 -->
<g id="node2" class="node">
<title>Node2</title>
<g id="a_node2"><a xlink:href="system__info_8h.html" target="_top" xlink:title=" ">
<polygon fill="white" stroke="black" points="87,-67.5 87,-97.5 195,-97.5 195,-67.5 87,-67.5"/>
<text text-anchor="start" x="95" y="-85.5" font-family="Helvetica,sans-Serif" font-size="10.00">src/sensesp/sensors</text>
<text text-anchor="middle" x="141" y="-74.5" font-family="Helvetica,sans-Serif" font-size="10.00">/system_info.h</text>
</a>
</g>
</g>
<!-- Node1&#45;&gt;Node2 -->
<g id="edge1" class="edge">
<title>Node1&#45;&gt;Node2</title>
<path fill="none" stroke="midnightblue" d="M229.16,-129.71C209.61,-119.46 185.8,-106.98 167.85,-97.58"/>
<polygon fill="midnightblue" stroke="midnightblue" points="227.61,-132.85 238.09,-134.4 230.86,-126.65 227.61,-132.85"/>
</g>
<!-- Node5 -->
<g id="node5" class="node">
<title>Node5</title>
<g id="a_node5"><a xlink:href="signalk__output_8cpp.html" target="_top" xlink:title=" ">
<polygon fill="white" stroke="black" points="213,-67.5 213,-97.5 317,-97.5 317,-67.5 213,-67.5"/>
<text text-anchor="start" x="221" y="-85.5" font-family="Helvetica,sans-Serif" font-size="10.00">src/sensesp/signalk</text>
<text text-anchor="middle" x="265" y="-74.5" font-family="Helvetica,sans-Serif" font-size="10.00">/signalk_output.cpp</text>
</a>
</g>
</g>
<!-- Node1&#45;&gt;Node5 -->
<g id="edge4" class="edge">
<title>Node1&#45;&gt;Node5</title>
<path fill="none" stroke="midnightblue" d="M265,-124.11C265,-115.15 265,-105.32 265,-97.58"/>
<polygon fill="midnightblue" stroke="midnightblue" points="261.5,-124.4 265,-134.4 268.5,-124.4 261.5,-124.4"/>
</g>
<!-- Node6 -->
<g id="node6" class="node">
<title>Node6</title>
<g id="a_node6"><a xlink:href="signalk__position_8h.html" target="_top" xlink:title=" ">
<polygon fill="white" stroke="black" points="335,-67.5 335,-97.5 439,-97.5 439,-67.5 335,-67.5"/>
<text text-anchor="start" x="343" y="-85.5" font-family="Helvetica,sans-Serif" font-size="10.00">src/sensesp/signalk</text>
<text text-anchor="middle" x="387" y="-74.5" font-family="Helvetica,sans-Serif" font-size="10.00">/signalk_position.h</text>
</a>
</g>
</g>
<!-- Node1&#45;&gt;Node6 -->
<g id="edge5" class="edge">
<title>Node1&#45;&gt;Node6</title>
<path fill="none" stroke="midnightblue" d="M300.52,-129.57C319.71,-119.35 343,-106.94 360.58,-97.58"/>
<polygon fill="midnightblue" stroke="midnightblue" points="298.65,-126.6 291.47,-134.4 301.94,-132.78 298.65,-126.6"/>
</g>
<!-- Node3 -->
<g id="node3" class="node">
<title>Node3</title>
<g id="a_node3"><a xlink:href="system__info_8cpp.html" target="_top" xlink:title=" ">
<polygon fill="white" stroke="black" points="0,-0.5 0,-30.5 108,-30.5 108,-0.5 0,-0.5"/>
<text text-anchor="start" x="8" y="-18.5" font-family="Helvetica,sans-Serif" font-size="10.00">src/sensesp/sensors</text>
<text text-anchor="middle" x="54" y="-7.5" font-family="Helvetica,sans-Serif" font-size="10.00">/system_info.cpp</text>
</a>
</g>
</g>
<!-- Node2&#45;&gt;Node3 -->
<g id="edge2" class="edge">
<title>Node2&#45;&gt;Node3</title>
<path fill="none" stroke="midnightblue" d="M113.79,-61.17C100.48,-51.23 84.8,-39.51 72.84,-30.58"/>
<polygon fill="midnightblue" stroke="midnightblue" points="112.02,-64.21 122.12,-67.4 116.21,-58.61 112.02,-64.21"/>
</g>
<!-- Node4 -->
<g id="node4" class="node">
<title>Node4</title>
<g id="a_node4"><a xlink:href="sensesp__app__builder_8h.html" target="_top" xlink:title=" ">
<polygon fill="white" stroke="black" points="126.5,-6 126.5,-25 261.5,-25 261.5,-6 126.5,-6"/>
<text text-anchor="middle" x="194" y="-13" font-family="Helvetica,sans-Serif" font-size="10.00">src/sensesp_app_builder.h</text>
</a>
</g>
</g>
<!-- Node2&#45;&gt;Node4 -->
<g id="edge3" class="edge">
<title>Node2&#45;&gt;Node4</title>
<path fill="none" stroke="midnightblue" d="M159.09,-59.32C168.64,-47.6 179.83,-33.88 186.91,-25.19"/>
<polygon fill="midnightblue" stroke="midnightblue" points="156.11,-57.43 152.5,-67.4 161.53,-61.86 156.11,-57.43"/>
</g>
<!-- Node7 -->
<g id="node7" class="node">
<title>Node7</title>
<g id="a_node7"><a xlink:href="signalk__position_8cpp.html" target="_top" xlink:title=" ">
<polygon fill="white" stroke="black" points="332.5,-0.5 332.5,-30.5 441.5,-30.5 441.5,-0.5 332.5,-0.5"/>
<text text-anchor="start" x="340.5" y="-18.5" font-family="Helvetica,sans-Serif" font-size="10.00">src/sensesp/signalk</text>
<text text-anchor="middle" x="387" y="-7.5" font-family="Helvetica,sans-Serif" font-size="10.00">/signalk_position.cpp</text>
</a>
</g>
</g>
<!-- Node6&#45;&gt;Node7 -->
<g id="edge6" class="edge">
<title>Node6&#45;&gt;Node7</title>
<path fill="none" stroke="midnightblue" d="M387,-57.11C387,-48.15 387,-38.32 387,-30.58"/>
<polygon fill="midnightblue" stroke="midnightblue" points="383.5,-57.4 387,-67.4 390.5,-57.4 383.5,-57.4"/>
</g>
</g>
</svg>
