<?xml version="1.0" encoding="UTF-8" standalone="no"?>
<!DOCTYPE svg PUBLIC "-//W3C//DTD SVG 1.1//EN"
 "http://www.w3.org/Graphics/SVG/1.1/DTD/svg11.dtd">
<!-- Generated by graphviz version 2.48.0 (20210717.1556)
 -->
<!-- Title: src/signalk/signalk_put_request.h Pages: 1 -->
<svg width="363pt" height="173pt"
 viewBox="0.00 0.00 362.50 173.00" xmlns="http://www.w3.org/2000/svg" xmlns:xlink="http://www.w3.org/1999/xlink">
<g id="graph0" class="graph" transform="scale(1 1) rotate(0) translate(4 169)">
<title>src/signalk/signalk_put_request.h</title>
<polygon fill="white" stroke="transparent" points="-4,4 -4,-169 358.5,-169 358.5,4 -4,4"/>
<!-- Node1 -->
<g id="node1" class="node">
<title>Node1</title>
<g id="a_node1"><a xlink:title=" ">
<polygon fill="#bfbfbf" stroke="black" points="134.5,-134.5 134.5,-164.5 232.5,-164.5 232.5,-134.5 134.5,-134.5"/>
<text text-anchor="start" x="142.5" y="-152.5" font-family="Helvetica,sans-Serif" font-size="10.00">src/signalk/signalk</text>
<text text-anchor="middle" x="183.5" y="-141.5" font-family="Helvetica,sans-Serif" font-size="10.00">_put_request.h</text>
</a>
</g>
</g>
<!-- Node2 -->
<g id="node2" class="node">
<title>Node2</title>
<g id="a_node2"><a xlink:href="smart__switch__controller_8h.html" target="_top" xlink:title=" ">
<polygon fill="white" stroke="black" points="4,-67.5 4,-97.5 111,-97.5 111,-67.5 4,-67.5"/>
<text text-anchor="start" x="12" y="-85.5" font-family="Helvetica,sans-Serif" font-size="10.00">src/controllers/smart</text>
<text text-anchor="middle" x="57.5" y="-74.5" font-family="Helvetica,sans-Serif" font-size="10.00">_switch_controller.h</text>
</a>
</g>
</g>
<!-- Node1&#45;&gt;Node2 -->
<g id="edge1" class="edge">
<title>Node1&#45;&gt;Node2</title>
<path fill="none" stroke="midnightblue" d="M147.08,-129.71C127.21,-119.46 103.02,-106.98 84.79,-97.58"/>
<polygon fill="midnightblue" stroke="midnightblue" points="145.67,-132.92 156.16,-134.4 148.88,-126.7 145.67,-132.92"/>
</g>
<!-- Node4 -->
<g id="node4" class="node">
<title>Node4</title>
<g id="a_node4"><a xlink:href="ws__client_8cpp.html" target="_top" xlink:title=" ">
<polygon fill="white" stroke="black" points="129,-73 129,-92 238,-92 238,-73 129,-73"/>
<text text-anchor="middle" x="183.5" y="-80" font-family="Helvetica,sans-Serif" font-size="10.00">src/net/ws_client.cpp</text>
</a>
</g>
</g>
<!-- Node1&#45;&gt;Node4 -->
<g id="edge3" class="edge">
<title>Node1&#45;&gt;Node4</title>
<path fill="none" stroke="midnightblue" d="M183.5,-124.25C183.5,-113.02 183.5,-100.38 183.5,-92.19"/>
<polygon fill="midnightblue" stroke="midnightblue" points="180,-124.4 183.5,-134.4 187,-124.4 180,-124.4"/>
</g>
<!-- Node5 -->
<g id="node5" class="node">
<title>Node5</title>
<g id="a_node5"><a xlink:href="signalk__put__request_8cpp.html" target="_top" xlink:title=" ">
<polygon fill="white" stroke="black" points="256.5,-67.5 256.5,-97.5 354.5,-97.5 354.5,-67.5 256.5,-67.5"/>
<text text-anchor="start" x="264.5" y="-85.5" font-family="Helvetica,sans-Serif" font-size="10.00">src/signalk/signalk</text>
<text text-anchor="middle" x="305.5" y="-74.5" font-family="Helvetica,sans-Serif" font-size="10.00">_put_request.cpp</text>
</a>
</g>
</g>
<!-- Node1&#45;&gt;Node5 -->
<g id="edge4" class="edge">
<title>Node1&#45;&gt;Node5</title>
<path fill="none" stroke="midnightblue" d="M219.02,-129.57C238.21,-119.35 261.5,-106.94 279.08,-97.58"/>
<polygon fill="midnightblue" stroke="midnightblue" points="217.15,-126.6 209.97,-134.4 220.44,-132.78 217.15,-126.6"/>
</g>
<!-- Node3 -->
<g id="node3" class="node">
<title>Node3</title>
<g id="a_node3"><a xlink:href="smart__switch__controller_8cpp.html" target="_top" xlink:title=" ">
<polygon fill="white" stroke="black" points="0,-0.5 0,-30.5 115,-30.5 115,-0.5 0,-0.5"/>
<text text-anchor="start" x="8" y="-18.5" font-family="Helvetica,sans-Serif" font-size="10.00">src/controllers/smart</text>
<text text-anchor="middle" x="57.5" y="-7.5" font-family="Helvetica,sans-Serif" font-size="10.00">_switch_controller.cpp</text>
</a>
</g>
</g>
<!-- Node2&#45;&gt;Node3 -->
<g id="edge2" class="edge">
<title>Node2&#45;&gt;Node3</title>
<path fill="none" stroke="midnightblue" d="M57.5,-57.11C57.5,-48.15 57.5,-38.32 57.5,-30.58"/>
<polygon fill="midnightblue" stroke="midnightblue" points="54,-57.4 57.5,-67.4 61,-57.4 54,-57.4"/>
</g>
</g>
</svg>
