<?xml version="1.0" encoding="UTF-8" standalone="no"?>
<!DOCTYPE svg PUBLIC "-//W3C//DTD SVG 1.1//EN"
 "http://www.w3.org/Graphics/SVG/1.1/DTD/svg11.dtd">
<!-- Generated by graphviz version 12.1.0 (20240811.2233)
 -->
<!-- Title: src/sensesp/signalk/signalk_types.h Pages: 1 -->
<!--zoomable 459 -->

<svg id="main" version="1.1" xmlns="http://www.w3.org/2000/svg" xmlns:xlink="http://www.w3.org/1999/xlink" xml:space="preserve" onload="init(evt)">

<style type="text/css"><![CDATA[
.node, .edge {opacity: 0.7;}
.node.selected, .edge.selected {opacity: 1;}
.edge:hover path { stroke: red; }
.edge:hover polygon { stroke: red; fill: red; }
]]></style>

<defs>
  <circle id="rim" cx="0" cy="0" r="7"/>
  <circle id="rim2" cx="0" cy="0" r="3.5"/>
  <g id="zoomPlus">
    <use xlink:href="#rim" fill="#404040"><set attributeName="fill" to="#808080" begin="zoomplus.mouseover" end="zoomplus.mouseout"/></use>
    <path d="M-4,0h8M0,-4v8" fill="none" stroke="white" stroke-width="1.5" pointer-events="none"/>
  </g>
  <g id="zoomMin">
    <use xlink:href="#rim" fill="#404040"><set attributeName="fill" to="#808080" begin="zoomminus.mouseover" end="zoomminus.mouseout"/></use>
    <path d="M-4,0h8" fill="none" stroke="white" stroke-width="1.5" pointer-events="none"/>
  </g>
  <g id="arrowUp" transform="translate(30 24)">
    <use xlink:href="#rim"/>
    <path pointer-events="none" fill="none" stroke="white" stroke-width="1.5" d="M0,-3.0v7 M-2.5,-0.5L0,-3.0L2.5,-0.5"/>
  </g>
  <g id="arrowRight" transform="rotate(90) translate(36 -43)">
    <use xlink:href="#rim"/>
    <path pointer-events="none" fill="none" stroke="white" stroke-width="1.5" d="M0,-3.0v7 M-2.5,-0.5L0,-3.0L2.5,-0.5"/>
  </g>
  <g id="arrowDown" transform="rotate(180) translate(-30 -48)">
    <use xlink:href="#rim"/>
    <path pointer-events="none" fill="none" stroke="white" stroke-width="1.5" d="M0,-3.0v7 M-2.5,-0.5L0,-3.0L2.5,-0.5"/>
  </g>
  <g id="arrowLeft" transform="rotate(270) translate(-36 17)">
    <use xlink:href="#rim"/>
    <path pointer-events="none" fill="none" stroke="white" stroke-width="1.5" d="M0,-3.0v7 M-2.5,-0.5L0,-3.0L2.5,-0.5"/>
  </g>
  <g id="resetDef">
    <use xlink:href="#rim2" fill="#404040"><set attributeName="fill" to="#808080" begin="reset.mouseover" end="reset.mouseout"/></use>
  </g>
</defs>
<script type="application/ecmascript">
var viewWidth = 948;
var viewHeight = 459;
var sectionId = 'dynsection-0';
</script>
<script type="application/ecmascript" xlink:href="svg.min.js"/>
<svg id="graph" class="graph">
<g id="viewport">
<title>src/sensesp/signalk/signalk_types.h</title>
<!-- Node1 -->
<g id="Node000001" class="node">
<title>Node1</title>
<g id="a_Node000001"><a xlink:title=" ">
<polygon fill="#999999" stroke="#666666" points="560.5,-451 457.5,-451 457.5,-420.5 560.5,-420.5 560.5,-451"/>
<text text-anchor="start" x="465.5" y="-437.5" font-family="Helvetica,sans-Serif" font-size="10.00">src/sensesp/signalk</text>
<text text-anchor="middle" x="509" y="-426.25" font-family="Helvetica,sans-Serif" font-size="10.00">/signalk_types.h</text>
</a>
</g>
</g>
<!-- Node2 -->
<g id="Node000002" class="node">
<title>Node2</title>
<g id="a_Node000002"><a xlink:title=" ">
<polygon fill="#e0e0e0" stroke="#999999" points="75.5,-141 32.5,-141 32.5,-121.75 75.5,-121.75 75.5,-141"/>
<text text-anchor="middle" x="54" y="-127.5" font-family="Helvetica,sans-Serif" font-size="10.00">vector</text>
</a>
</g>
</g>
<!-- Node1&#45;&gt;Node2 -->
<g id="edge1_Node000001_Node000002" class="edge">
<title>Node1&#45;&gt;Node2</title>
<g id="a_edge1_Node000001_Node000002"><a xlink:title=" ">
<path fill="none" stroke="#63b8ff" d="M457.39,-432.41C327.99,-425.15 0,-397.51 0,-303.75 0,-303.75 0,-303.75 0,-240.88 0,-211.26 5.4,-203.31 19,-177 24.01,-167.3 31.25,-157.63 37.85,-149.78"/>
<polygon fill="#63b8ff" stroke="#63b8ff" points="40.39,-152.19 44.38,-142.37 35.14,-147.56 40.39,-152.19"/>
</a>
</g>
</g>
<!-- Node3 -->
<g id="Node000003" class="node">
<title>Node3</title>
<g id="a_Node000003"><a xlink:href="signalk__output_8h.html" target="_top" xlink:title=" ">
<polygon fill="white" stroke="#666666" points="569.12,-384.5 448.88,-384.5 448.88,-354 569.12,-354 569.12,-384.5"/>
<text text-anchor="start" x="456.88" y="-371" font-family="Helvetica,sans-Serif" font-size="10.00">sensesp/signalk/signalk</text>
<text text-anchor="middle" x="509" y="-359.75" font-family="Helvetica,sans-Serif" font-size="10.00">_output.h</text>
</a>
</g>
</g>
<!-- Node1&#45;&gt;Node3 -->
<g id="edge2_Node000001_Node000003" class="edge">
<title>Node1&#45;&gt;Node3</title>
<g id="a_edge2_Node000001_Node000003"><a xlink:title=" ">
<path fill="none" stroke="#63b8ff" d="M509,-420.11C509,-413.02 509,-404.29 509,-396.13"/>
<polygon fill="#63b8ff" stroke="#63b8ff" points="512.5,-396.34 509,-386.34 505.5,-396.34 512.5,-396.34"/>
</a>
</g>
</g>
<!-- Node23 -->
<g id="Node000023" class="node">
<title>Node23</title>
<g id="a_Node000023"><a xlink:href="position_8h.html" target="_top" xlink:title=" ">
<polygon fill="white" stroke="#666666" points="934.38,-378.88 809.62,-378.88 809.62,-359.62 934.38,-359.62 934.38,-378.88"/>
<text text-anchor="middle" x="872" y="-365.38" font-family="Helvetica,sans-Serif" font-size="10.00">sensesp/types/position.h</text>
</a>
</g>
</g>
<!-- Node1&#45;&gt;Node23 -->
<g id="edge39_Node000001_Node000023" class="edge">
<title>Node1&#45;&gt;Node23</title>
<g id="a_edge39_Node000001_Node000023"><a xlink:title=" ">
<path fill="none" stroke="#63b8ff" d="M560.62,-425.58C626.3,-413.91 739.63,-393.77 809.95,-381.28"/>
<polygon fill="#63b8ff" stroke="#63b8ff" points="810.12,-384.8 819.36,-379.6 808.9,-377.91 810.12,-384.8"/>
</a>
</g>
</g>
<!-- Node4 -->
<g id="Node000004" class="node">
<title>Node4</title>
<g id="a_Node000004"><a xlink:href="transform_8h.html" target="_top" xlink:title=" ">
<polygon fill="white" stroke="#666666" points="452.12,-318 349.88,-318 349.88,-287.5 452.12,-287.5 452.12,-318"/>
<text text-anchor="start" x="357.88" y="-304.5" font-family="Helvetica,sans-Serif" font-size="10.00">sensesp/transforms</text>
<text text-anchor="middle" x="401" y="-293.25" font-family="Helvetica,sans-Serif" font-size="10.00">/transform.h</text>
</a>
</g>
</g>
<!-- Node3&#45;&gt;Node4 -->
<g id="edge3_Node000003_Node000004" class="edge">
<title>Node3&#45;&gt;Node4</title>
<g id="a_edge3_Node000003_Node000004"><a xlink:title=" ">
<path fill="none" stroke="#63b8ff" d="M484.49,-353.61C469.86,-344.87 451.05,-333.64 434.99,-324.05"/>
<polygon fill="#63b8ff" stroke="#63b8ff" points="437.09,-321.23 426.71,-319.1 433.5,-327.24 437.09,-321.23"/>
</a>
</g>
</g>
<!-- Node21 -->
<g id="Node000021" class="node">
<title>Node21</title>
<g id="a_Node000021"><a xlink:href="signalk__emitter_8h.html" target="_top" xlink:title=" ">
<polygon fill="white" stroke="#666666" points="585.75,-312.38 496.25,-312.38 496.25,-293.12 585.75,-293.12 585.75,-312.38"/>
<text text-anchor="middle" x="541" y="-298.88" font-family="Helvetica,sans-Serif" font-size="10.00">signalk_emitter.h</text>
</a>
</g>
</g>
<!-- Node3&#45;&gt;Node21 -->
<g id="edge30_Node000003_Node000021" class="edge">
<title>Node3&#45;&gt;Node21</title>
<g id="a_edge30_Node000003_Node000021"><a xlink:title=" ">
<path fill="none" stroke="#63b8ff" d="M516.26,-353.61C520.82,-344.43 526.74,-332.5 531.64,-322.61"/>
<polygon fill="#63b8ff" stroke="#63b8ff" points="534.64,-324.44 535.95,-313.93 528.37,-321.33 534.64,-324.44"/>
</a>
</g>
</g>
<!-- Node5 -->
<g id="Node000005" class="node">
<title>Node5</title>
<g id="a_Node000005"><a xlink:href="sensesp_8h.html" target="_top" xlink:title=" ">
<polygon fill="white" stroke="#666666" points="406.5,-141 345.5,-141 345.5,-121.75 406.5,-121.75 406.5,-141"/>
<text text-anchor="middle" x="376" y="-127.5" font-family="Helvetica,sans-Serif" font-size="10.00">sensesp.h</text>
</a>
</g>
</g>
<!-- Node4&#45;&gt;Node5 -->
<g id="edge4_Node000004_Node000005" class="edge">
<title>Node4&#45;&gt;Node5</title>
<g id="a_edge4_Node000004_Node000005"><a xlink:title=" ">
<path fill="none" stroke="#63b8ff" d="M395.31,-287.03C391.74,-277.14 387.37,-263.72 385,-251.5 378.36,-217.31 376.56,-176.73 376.11,-152.84"/>
<polygon fill="#63b8ff" stroke="#63b8ff" points="379.61,-152.91 375.99,-142.95 372.61,-152.99 379.61,-152.91"/>
</a>
</g>
</g>
<!-- Node11 -->
<g id="Node000011" class="node">
<title>Node11</title>
<g id="a_Node000011"><a xlink:title=" ">
<polygon fill="#e0e0e0" stroke="#999999" points="707.12,-141 628.88,-141 628.88,-121.75 707.12,-121.75 707.12,-141"/>
<text text-anchor="middle" x="668" y="-127.5" font-family="Helvetica,sans-Serif" font-size="10.00">ArduinoJson.h</text>
</a>
</g>
</g>
<!-- Node4&#45;&gt;Node11 -->
<g id="edge10_Node000004_Node000011" class="edge">
<title>Node4&#45;&gt;Node11</title>
<g id="a_edge10_Node000004_Node000011"><a xlink:title=" ">
<path fill="none" stroke="#63b8ff" d="M452.53,-290.33C495.66,-280.12 553.24,-264.76 573,-251.5 612.21,-225.19 642.93,-177.66 657.93,-151.28"/>
<polygon fill="#63b8ff" stroke="#63b8ff" points="660.89,-153.17 662.65,-142.73 654.76,-149.8 660.89,-153.17"/>
</a>
</g>
</g>
<!-- Node12 -->
<g id="Node000012" class="node">
<title>Node12</title>
<g id="a_Node000012"><a xlink:title=" ">
<polygon fill="#e0e0e0" stroke="#999999" points="687.75,-251.5 658.25,-251.5 658.25,-232.25 687.75,-232.25 687.75,-251.5"/>
<text text-anchor="middle" x="673" y="-238" font-family="Helvetica,sans-Serif" font-size="10.00">set</text>
</a>
</g>
</g>
<!-- Node4&#45;&gt;Node12 -->
<g id="edge11_Node000004_Node000012" class="edge">
<title>Node4&#45;&gt;Node12</title>
<g id="a_edge11_Node000004_Node000012"><a xlink:title=" ">
<path fill="none" stroke="#63b8ff" d="M452.49,-292.42C501.87,-283.16 578.41,-268 644,-251.5 645,-251.25 646.02,-250.98 647.05,-250.71"/>
<polygon fill="#63b8ff" stroke="#63b8ff" points="647.9,-254.11 656.56,-248.01 645.98,-247.37 647.9,-254.11"/>
</a>
</g>
</g>
<!-- Node13 -->
<g id="Node000013" class="node">
<title>Node13</title>
<g id="a_Node000013"><a xlink:href="configurable_8h.html" target="_top" xlink:title=" ">
<polygon fill="white" stroke="#666666" points="179.88,-196.25 28.12,-196.25 28.12,-177 179.88,-177 179.88,-196.25"/>
<text text-anchor="middle" x="104" y="-182.75" font-family="Helvetica,sans-Serif" font-size="10.00">sensesp/system/configurable.h</text>
</a>
</g>
</g>
<!-- Node4&#45;&gt;Node13 -->
<g id="edge12_Node000004_Node000013" class="edge">
<title>Node4&#45;&gt;Node13</title>
<g id="a_edge12_Node000004_Node000013"><a xlink:title=" ">
<path fill="none" stroke="#63b8ff" d="M349.64,-295.45C305.68,-288.69 241.53,-275.53 190,-251.5 163.97,-239.36 138.06,-218.63 121.59,-204.09"/>
<polygon fill="#63b8ff" stroke="#63b8ff" points="124.35,-201.87 114.59,-197.75 119.65,-207.06 124.35,-201.87"/>
</a>
</g>
</g>
<!-- Node15 -->
<g id="Node000015" class="node">
<title>Node15</title>
<g id="a_Node000015"><a xlink:href="observable_8h.html" target="_top" xlink:title=" ">
<polygon fill="white" stroke="#666666" points="344.25,-196.25 197.75,-196.25 197.75,-177 344.25,-177 344.25,-196.25"/>
<text text-anchor="middle" x="271" y="-182.75" font-family="Helvetica,sans-Serif" font-size="10.00">sensesp/system/observable.h</text>
</a>
</g>
</g>
<!-- Node4&#45;&gt;Node15 -->
<g id="edge18_Node000004_Node000015" class="edge">
<title>Node4&#45;&gt;Node15</title>
<g id="a_edge18_Node000004_Node000015"><a xlink:title=" ">
<path fill="none" stroke="#63b8ff" d="M349.66,-290.43C327.09,-282.95 302.11,-270.83 286,-251.5 275.84,-239.31 272.29,-221.46 271.18,-207.73"/>
<polygon fill="#63b8ff" stroke="#63b8ff" points="274.69,-207.92 270.77,-198.07 267.69,-208.21 274.69,-207.92"/>
</a>
</g>
</g>
<!-- Node18 -->
<g id="Node000018" class="node">
<title>Node18</title>
<g id="a_Node000018"><a xlink:href="valueconsumer_8h.html" target="_top" xlink:title=" ">
<polygon fill="white" stroke="#666666" points="564.25,-196.25 399.75,-196.25 399.75,-177 564.25,-177 564.25,-196.25"/>
<text text-anchor="middle" x="482" y="-182.75" font-family="Helvetica,sans-Serif" font-size="10.00">sensesp/system/valueconsumer.h</text>
</a>
</g>
</g>
<!-- Node4&#45;&gt;Node18 -->
<g id="edge22_Node000004_Node000018" class="edge">
<title>Node4&#45;&gt;Node18</title>
<g id="a_edge22_Node000004_Node000018"><a xlink:title=" ">
<path fill="none" stroke="#63b8ff" d="M394.93,-287.01C389.83,-272.09 384.83,-248.89 395,-232.25 403.92,-217.66 419.29,-207.64 434.66,-200.85"/>
<polygon fill="#63b8ff" stroke="#63b8ff" points="435.81,-204.16 443.81,-197.22 433.22,-197.66 435.81,-204.16"/>
</a>
</g>
</g>
<!-- Node20 -->
<g id="Node000020" class="node">
<title>Node20</title>
<g id="a_Node000020"><a xlink:href="valueproducer_8h.html" target="_top" xlink:title=" ">
<polygon fill="white" stroke="#666666" points="563.62,-251.5 404.38,-251.5 404.38,-232.25 563.62,-232.25 563.62,-251.5"/>
<text text-anchor="middle" x="484" y="-238" font-family="Helvetica,sans-Serif" font-size="10.00">sensesp/system/valueproducer.h</text>
</a>
</g>
</g>
<!-- Node4&#45;&gt;Node20 -->
<g id="edge26_Node000004_Node000020" class="edge">
<title>Node4&#45;&gt;Node20</title>
<g id="a_edge26_Node000004_Node000020"><a xlink:title=" ">
<path fill="none" stroke="#63b8ff" d="M421.52,-287.2C433.79,-278.49 449.39,-267.43 461.92,-258.53"/>
<polygon fill="#63b8ff" stroke="#63b8ff" points="463.84,-261.47 469.97,-252.83 459.79,-255.76 463.84,-261.47"/>
</a>
</g>
</g>
<!-- Node6 -->
<g id="Node000006" class="node">
<title>Node6</title>
<g id="a_Node000006"><a xlink:title=" ">
<polygon fill="#e0e0e0" stroke="#999999" points="302.62,-80.12 233.38,-80.12 233.38,-60.88 302.62,-60.88 302.62,-80.12"/>
<text text-anchor="middle" x="268" y="-66.62" font-family="Helvetica,sans-Serif" font-size="10.00">ReactESP.h</text>
</a>
</g>
</g>
<!-- Node5&#45;&gt;Node6 -->
<g id="edge5_Node000005_Node000006" class="edge">
<title>Node5&#45;&gt;Node6</title>
<g id="a_edge5_Node000005_Node000006"><a xlink:title=" ">
<path fill="none" stroke="#63b8ff" d="M359.6,-121.43C342.31,-112.01 314.82,-97.02 294.46,-85.93"/>
<polygon fill="#63b8ff" stroke="#63b8ff" points="296.34,-82.96 285.89,-81.25 292.99,-89.11 296.34,-82.96"/>
</a>
</g>
</g>
<!-- Node7 -->
<g id="Node000007" class="node">
<title>Node7</title>
<g id="a_Node000007"><a xlink:href="local__debug_8h.html" target="_top" xlink:title=" ">
<polygon fill="white" stroke="#666666" points="431.62,-85.75 320.38,-85.75 320.38,-55.25 431.62,-55.25 431.62,-85.75"/>
<text text-anchor="start" x="328.38" y="-72.25" font-family="Helvetica,sans-Serif" font-size="10.00">sensesp/system/local</text>
<text text-anchor="middle" x="376" y="-61" font-family="Helvetica,sans-Serif" font-size="10.00">_debug.h</text>
</a>
</g>
</g>
<!-- Node5&#45;&gt;Node7 -->
<g id="edge6_Node000005_Node000007" class="edge">
<title>Node5&#45;&gt;Node7</title>
<g id="a_edge6_Node000005_Node000007"><a xlink:title=" ">
<path fill="none" stroke="#63b8ff" d="M376,-121.43C376,-114.98 376,-105.91 376,-97.26"/>
<polygon fill="#63b8ff" stroke="#63b8ff" points="379.5,-97.55 376,-87.55 372.5,-97.55 379.5,-97.55"/>
</a>
</g>
</g>
<!-- Node8 -->
<g id="Node000008" class="node">
<title>Node8</title>
<g id="a_Node000008"><a xlink:title=" ">
<polygon fill="#e0e0e0" stroke="#999999" points="376,-19.25 294,-19.25 294,0 376,0 376,-19.25"/>
<text text-anchor="middle" x="335" y="-5.75" font-family="Helvetica,sans-Serif" font-size="10.00">esp32&#45;hal&#45;log.h</text>
</a>
</g>
</g>
<!-- Node7&#45;&gt;Node8 -->
<g id="edge7_Node000007_Node000008" class="edge">
<title>Node7&#45;&gt;Node8</title>
<g id="a_edge7_Node000007_Node000008"><a xlink:title=" ">
<path fill="none" stroke="#63b8ff" d="M365.87,-54.95C360.4,-47.1 353.61,-37.35 347.79,-28.99"/>
<polygon fill="#63b8ff" stroke="#63b8ff" points="350.77,-27.15 342.19,-20.94 345.03,-31.15 350.77,-27.15"/>
</a>
</g>
</g>
<!-- Node9 -->
<g id="Node000009" class="node">
<title>Node9</title>
<g id="a_Node000009"><a xlink:title=" ">
<polygon fill="#e0e0e0" stroke="#999999" points="224.62,-19.25 167.38,-19.25 167.38,0 224.62,0 224.62,-19.25"/>
<text text-anchor="middle" x="196" y="-5.75" font-family="Helvetica,sans-Serif" font-size="10.00">Arduino.h</text>
</a>
</g>
</g>
<!-- Node7&#45;&gt;Node9 -->
<g id="edge8_Node000007_Node000009" class="edge">
<title>Node7&#45;&gt;Node9</title>
<g id="a_edge8_Node000007_Node000009"><a xlink:title=" ">
<path fill="none" stroke="#63b8ff" d="M331.04,-54.8C301.35,-45.08 262.84,-32.49 234.55,-23.23"/>
<polygon fill="#63b8ff" stroke="#63b8ff" points="235.9,-19.99 225.31,-20.21 233.72,-26.65 235.9,-19.99"/>
</a>
</g>
</g>
<!-- Node10 -->
<g id="Node000010" class="node">
<title>Node10</title>
<g id="a_Node000010"><a xlink:title=" ">
<polygon fill="#e0e0e0" stroke="#999999" points="438.25,-19.25 393.75,-19.25 393.75,0 438.25,0 438.25,-19.25"/>
<text text-anchor="middle" x="416" y="-5.75" font-family="Helvetica,sans-Serif" font-size="10.00">Print.h</text>
</a>
</g>
</g>
<!-- Node7&#45;&gt;Node10 -->
<g id="edge9_Node000007_Node000010" class="edge">
<title>Node7&#45;&gt;Node10</title>
<g id="a_edge9_Node000007_Node000010"><a xlink:title=" ">
<path fill="none" stroke="#63b8ff" d="M385.89,-54.95C391.22,-47.1 397.85,-37.35 403.53,-28.99"/>
<polygon fill="#63b8ff" stroke="#63b8ff" points="406.26,-31.19 408.98,-20.95 400.47,-27.26 406.26,-31.19"/>
</a>
</g>
</g>
<!-- Node13&#45;&gt;Node2 -->
<g id="edge16_Node000013_Node000002" class="edge">
<title>Node13&#45;&gt;Node2</title>
<g id="a_edge16_Node000013_Node000002"><a xlink:title=" ">
<path fill="none" stroke="#63b8ff" d="M95.74,-176.83C88.84,-169.48 78.78,-158.76 70.26,-149.69"/>
<polygon fill="#63b8ff" stroke="#63b8ff" points="72.87,-147.36 63.47,-142.46 67.77,-152.15 72.87,-147.36"/>
</a>
</g>
</g>
<!-- Node13&#45;&gt;Node5 -->
<g id="edge13_Node000013_Node000005" class="edge">
<title>Node13&#45;&gt;Node5</title>
<g id="a_edge13_Node000013_Node000005"><a xlink:title=" ">
<path fill="none" stroke="#63b8ff" d="M152.94,-176.54C197.55,-168.18 265.56,-155.26 334.02,-141.37"/>
<polygon fill="#63b8ff" stroke="#63b8ff" points="334.42,-144.86 343.52,-139.43 333.02,-138 334.42,-144.86"/>
</a>
</g>
</g>
<!-- Node13&#45;&gt;Node9 -->
<g id="edge17_Node000013_Node000009" class="edge">
<title>Node13&#45;&gt;Node9</title>
<g id="a_edge17_Node000013_Node000009"><a xlink:title=" ">
<path fill="none" stroke="#63b8ff" d="M105.8,-176.65C108.52,-164.01 114.32,-140.42 123,-121.75 139.31,-86.67 165.55,-49.9 181.73,-28.68"/>
<polygon fill="#63b8ff" stroke="#63b8ff" points="184.48,-30.84 187.85,-20.79 178.95,-26.55 184.48,-30.84"/>
</a>
</g>
</g>
<!-- Node13&#45;&gt;Node11 -->
<g id="edge14_Node000013_Node000011" class="edge">
<title>Node13&#45;&gt;Node11</title>
<g id="a_edge14_Node000013_Node000011"><a xlink:title=" ">
<path fill="none" stroke="#63b8ff" d="M180,-177.88C183.04,-177.58 186.05,-177.29 189,-177 344.97,-161.82 529.61,-144.92 617.12,-136.98"/>
<polygon fill="#63b8ff" stroke="#63b8ff" points="617.41,-140.46 627.05,-136.08 616.78,-133.49 617.41,-140.46"/>
</a>
</g>
</g>
<!-- Node14 -->
<g id="Node000014" class="node">
<title>Node14</title>
<g id="a_Node000014"><a xlink:title=" ">
<polygon fill="#e0e0e0" stroke="#999999" points="166.38,-141 131.62,-141 131.62,-121.75 166.38,-121.75 166.38,-141"/>
<text text-anchor="middle" x="149" y="-127.5" font-family="Helvetica,sans-Serif" font-size="10.00">map</text>
</a>
</g>
</g>
<!-- Node13&#45;&gt;Node14 -->
<g id="edge15_Node000013_Node000014" class="edge">
<title>Node13&#45;&gt;Node14</title>
<g id="a_edge15_Node000013_Node000014"><a xlink:title=" ">
<path fill="none" stroke="#63b8ff" d="M111.43,-176.83C117.58,-169.55 126.51,-158.98 134.13,-149.98"/>
<polygon fill="#63b8ff" stroke="#63b8ff" points="136.65,-152.41 140.43,-142.52 131.3,-147.89 136.65,-152.41"/>
</a>
</g>
</g>
<!-- Node15&#45;&gt;Node2 -->
<g id="edge21_Node000015_Node000002" class="edge">
<title>Node15&#45;&gt;Node2</title>
<g id="a_edge21_Node000015_Node000002"><a xlink:title=" ">
<path fill="none" stroke="#63b8ff" d="M234.19,-176.59C192.9,-166.46 126.53,-150.17 86.91,-140.45"/>
<polygon fill="#63b8ff" stroke="#63b8ff" points="87.78,-137.06 77.23,-138.08 86.11,-143.86 87.78,-137.06"/>
</a>
</g>
</g>
<!-- Node16 -->
<g id="Node000016" class="node">
<title>Node16</title>
<g id="a_Node000016"><a xlink:title=" ">
<polygon fill="#e0e0e0" stroke="#999999" points="251.12,-141 184.88,-141 184.88,-121.75 251.12,-121.75 251.12,-141"/>
<text text-anchor="middle" x="218" y="-127.5" font-family="Helvetica,sans-Serif" font-size="10.00">forward_list</text>
</a>
</g>
</g>
<!-- Node15&#45;&gt;Node16 -->
<g id="edge19_Node000015_Node000016" class="edge">
<title>Node15&#45;&gt;Node16</title>
<g id="a_edge19_Node000015_Node000016"><a xlink:title=" ">
<path fill="none" stroke="#63b8ff" d="M262.25,-176.83C254.85,-169.4 244.04,-158.54 234.95,-149.41"/>
<polygon fill="#63b8ff" stroke="#63b8ff" points="237.54,-147.05 228.01,-142.43 232.58,-151.99 237.54,-147.05"/>
</a>
</g>
</g>
<!-- Node17 -->
<g id="Node000017" class="node">
<title>Node17</title>
<g id="a_Node000017"><a xlink:title=" ">
<polygon fill="#e0e0e0" stroke="#999999" points="327,-141 269,-141 269,-121.75 327,-121.75 327,-141"/>
<text text-anchor="middle" x="298" y="-127.5" font-family="Helvetica,sans-Serif" font-size="10.00">functional</text>
</a>
</g>
</g>
<!-- Node15&#45;&gt;Node17 -->
<g id="edge20_Node000015_Node000017" class="edge">
<title>Node15&#45;&gt;Node17</title>
<g id="a_edge20_Node000015_Node000017"><a xlink:title=" ">
<path fill="none" stroke="#63b8ff" d="M275.46,-176.83C278.95,-169.94 283.95,-160.09 288.35,-151.41"/>
<polygon fill="#63b8ff" stroke="#63b8ff" points="291.36,-153.21 292.76,-142.71 285.12,-150.05 291.36,-153.21"/>
</a>
</g>
</g>
<!-- Node18&#45;&gt;Node5 -->
<g id="edge23_Node000018_Node000005" class="edge">
<title>Node18&#45;&gt;Node5</title>
<g id="a_edge23_Node000018_Node000005"><a xlink:title=" ">
<path fill="none" stroke="#63b8ff" d="M464.02,-176.59C447.65,-168.37 423.21,-156.09 404.24,-146.56"/>
<polygon fill="#63b8ff" stroke="#63b8ff" points="405.93,-143.49 395.42,-142.13 402.79,-149.75 405.93,-143.49"/>
</a>
</g>
</g>
<!-- Node18&#45;&gt;Node11 -->
<g id="edge24_Node000018_Node000011" class="edge">
<title>Node18&#45;&gt;Node11</title>
<g id="a_edge24_Node000018_Node000011"><a xlink:title=" ">
<path fill="none" stroke="#63b8ff" d="M513.55,-176.59C544.28,-167.79 591.21,-154.36 625.28,-144.61"/>
<polygon fill="#63b8ff" stroke="#63b8ff" points="626.19,-147.99 634.84,-141.87 624.26,-141.26 626.19,-147.99"/>
</a>
</g>
</g>
<!-- Node19 -->
<g id="Node000019" class="node">
<title>Node19</title>
<g id="a_Node000019"><a xlink:title=" ">
<polygon fill="#e0e0e0" stroke="#999999" points="506.12,-141 457.88,-141 457.88,-121.75 506.12,-121.75 506.12,-141"/>
<text text-anchor="middle" x="482" y="-127.5" font-family="Helvetica,sans-Serif" font-size="10.00">stdint.h</text>
</a>
</g>
</g>
<!-- Node18&#45;&gt;Node19 -->
<g id="edge25_Node000018_Node000019" class="edge">
<title>Node18&#45;&gt;Node19</title>
<g id="a_edge25_Node000018_Node000019"><a xlink:title=" ">
<path fill="none" stroke="#63b8ff" d="M482,-176.83C482,-170.32 482,-161.17 482,-152.87"/>
<polygon fill="#63b8ff" stroke="#63b8ff" points="485.5,-152.87 482,-142.87 478.5,-152.87 485.5,-152.87"/>
</a>
</g>
</g>
<!-- Node20&#45;&gt;Node11 -->
<g id="edge27_Node000020_Node000011" class="edge">
<title>Node20&#45;&gt;Node11</title>
<g id="a_edge27_Node000020_Node000011"><a xlink:title=" ">
<path fill="none" stroke="#63b8ff" d="M503.82,-231.82C522.12,-223.27 549.86,-209.76 573,-196.25 599.04,-181.05 627.59,-161.43 646.52,-147.97"/>
<polygon fill="#63b8ff" stroke="#63b8ff" points="648.41,-150.92 654.5,-142.25 644.33,-145.23 648.41,-150.92"/>
</a>
</g>
</g>
<!-- Node20&#45;&gt;Node15 -->
<g id="edge28_Node000020_Node000015" class="edge">
<title>Node20&#45;&gt;Node15</title>
<g id="a_edge28_Node000020_Node000015"><a xlink:title=" ">
<path fill="none" stroke="#63b8ff" d="M447.87,-231.84C412.22,-222.93 357.53,-209.26 318.41,-199.48"/>
<polygon fill="#63b8ff" stroke="#63b8ff" points="319.33,-196.1 308.78,-197.07 317.63,-202.89 319.33,-196.1"/>
</a>
</g>
</g>
<!-- Node20&#45;&gt;Node18 -->
<g id="edge29_Node000020_Node000018" class="edge">
<title>Node20&#45;&gt;Node18</title>
<g id="a_edge29_Node000020_Node000018"><a xlink:title=" ">
<path fill="none" stroke="#63b8ff" d="M483.67,-232.08C483.42,-225.49 483.07,-216.21 482.76,-207.82"/>
<polygon fill="#63b8ff" stroke="#63b8ff" points="486.27,-207.98 482.39,-198.12 479.27,-208.25 486.27,-207.98"/>
</a>
</g>
</g>
<!-- Node21&#45;&gt;Node5 -->
<g id="edge31_Node000021_Node000005" class="edge">
<title>Node21&#45;&gt;Node5</title>
<g id="a_edge31_Node000021_Node000005"><a xlink:title=" ">
<path fill="none" stroke="#63b8ff" d="M548.88,-292.91C556.74,-283.44 568.31,-267.59 573,-251.5 582.26,-219.71 593.67,-202.87 573,-177 563.32,-164.88 472.93,-148.2 418.01,-139.05"/>
<polygon fill="#63b8ff" stroke="#63b8ff" points="418.8,-135.63 408.37,-137.46 417.67,-142.54 418.8,-135.63"/>
</a>
</g>
</g>
<!-- Node21&#45;&gt;Node11 -->
<g id="edge32_Node000021_Node000011" class="edge">
<title>Node21&#45;&gt;Node11</title>
<g id="a_edge32_Node000021_Node000011"><a xlink:title=" ">
<path fill="none" stroke="#63b8ff" d="M586.16,-300.78C622.63,-297.32 671.87,-286 697,-251.5 719.15,-221.09 696.89,-175.89 680.99,-150.81"/>
<polygon fill="#63b8ff" stroke="#63b8ff" points="684.01,-149.04 675.55,-142.66 678.18,-152.92 684.01,-149.04"/>
</a>
</g>
</g>
<!-- Node21&#45;&gt;Node12 -->
<g id="edge33_Node000021_Node000012" class="edge">
<title>Node21&#45;&gt;Node12</title>
<g id="a_edge33_Node000021_Node000012"><a xlink:title=" ">
<path fill="none" stroke="#63b8ff" d="M561.34,-292.68C584.52,-282.34 622.44,-265.42 647.56,-254.22"/>
<polygon fill="#63b8ff" stroke="#63b8ff" points="648.7,-257.55 656.4,-250.28 645.84,-251.15 648.7,-257.55"/>
</a>
</g>
</g>
<!-- Node21&#45;&gt;Node13 -->
<g id="edge34_Node000021_Node000013" class="edge">
<title>Node21&#45;&gt;Node13</title>
<g id="a_edge34_Node000021_Node000013"><a xlink:title=" ">
<path fill="none" stroke="#63b8ff" d="M506.34,-292.7C428.02,-272.24 237.35,-222.45 149.59,-199.53"/>
<polygon fill="#63b8ff" stroke="#63b8ff" points="150.68,-196.2 140.12,-197.06 148.92,-202.97 150.68,-196.2"/>
</a>
</g>
</g>
<!-- Node21&#45;&gt;Node15 -->
<g id="edge35_Node000021_Node000015" class="edge">
<title>Node21&#45;&gt;Node15</title>
<g id="a_edge35_Node000021_Node000015"><a xlink:title=" ">
<path fill="none" stroke="#63b8ff" d="M510.6,-292.7C480.73,-283.47 434.07,-268.19 395,-251.5 360.08,-236.59 321.42,-215.98 296.7,-202.25"/>
<polygon fill="#63b8ff" stroke="#63b8ff" points="298.45,-199.22 288.02,-197.39 295.03,-205.33 298.45,-199.22"/>
</a>
</g>
</g>
<!-- Node21&#45;&gt;Node20 -->
<g id="edge36_Node000021_Node000020" class="edge">
<title>Node21&#45;&gt;Node20</title>
<g id="a_edge36_Node000021_Node000020"><a xlink:title=" ">
<path fill="none" stroke="#63b8ff" d="M532.34,-292.81C523.97,-284.16 511.07,-270.84 500.7,-260.12"/>
<polygon fill="#63b8ff" stroke="#63b8ff" points="503.26,-257.74 493.79,-252.99 498.23,-262.61 503.26,-257.74"/>
</a>
</g>
</g>
<!-- Node22 -->
<g id="Node000022" class="node">
<title>Node22</title>
<g id="a_Node000022"><a xlink:href="signalk__metadata_8h.html" target="_top" xlink:title=" ">
<polygon fill="white" stroke="#666666" points="844.38,-251.5 743.62,-251.5 743.62,-232.25 844.38,-232.25 844.38,-251.5"/>
<text text-anchor="middle" x="794" y="-238" font-family="Helvetica,sans-Serif" font-size="10.00">signalk_metadata.h</text>
</a>
</g>
</g>
<!-- Node21&#45;&gt;Node22 -->
<g id="edge37_Node000021_Node000022" class="edge">
<title>Node21&#45;&gt;Node22</title>
<g id="a_edge37_Node000021_Node000022"><a xlink:title=" ">
<path fill="none" stroke="#63b8ff" d="M579.98,-292.68C623.99,-282.44 695.73,-265.74 743.88,-254.54"/>
<polygon fill="#63b8ff" stroke="#63b8ff" points="744.56,-257.97 753.5,-252.3 742.97,-251.16 744.56,-257.97"/>
</a>
</g>
</g>
<!-- Node22&#45;&gt;Node11 -->
<g id="edge38_Node000022_Node000011" class="edge">
<title>Node22&#45;&gt;Node11</title>
<g id="a_edge38_Node000022_Node000011"><a xlink:title=" ">
<path fill="none" stroke="#63b8ff" d="M786.12,-232.17C774.43,-219.44 751.54,-195.29 730,-177 717.68,-166.54 703.04,-155.92 691.08,-147.67"/>
<polygon fill="#63b8ff" stroke="#63b8ff" points="693.26,-144.92 683.02,-142.2 689.33,-150.72 693.26,-144.92"/>
</a>
</g>
</g>
<!-- Node23&#45;&gt;Node11 -->
<g id="edge40_Node000023_Node000011" class="edge">
<title>Node23&#45;&gt;Node11</title>
<g id="a_edge40_Node000023_Node000011"><a xlink:title=" ">
<path fill="none" stroke="#63b8ff" d="M873.28,-359.35C876.14,-336.14 880.74,-272.78 853,-232.25 820.85,-185.29 759.23,-158.48 715.97,-144.7"/>
<polygon fill="#63b8ff" stroke="#63b8ff" points="717.15,-141.4 706.57,-141.83 715.11,-148.1 717.15,-141.4"/>
</a>
</g>
</g>
<!-- Node24 -->
<g id="Node000024" class="node">
<title>Node24</title>
<g id="a_Node000024"><a xlink:title=" ">
<polygon fill="#e0e0e0" stroke="#999999" points="939.62,-312.38 900.38,-312.38 900.38,-293.12 939.62,-293.12 939.62,-312.38"/>
<text text-anchor="middle" x="920" y="-298.88" font-family="Helvetica,sans-Serif" font-size="10.00">limits</text>
</a>
</g>
</g>
<!-- Node23&#45;&gt;Node24 -->
<g id="edge41_Node000023_Node000024" class="edge">
<title>Node23&#45;&gt;Node24</title>
<g id="a_edge41_Node000023_Node000024"><a xlink:title=" ">
<path fill="none" stroke="#63b8ff" d="M878.67,-359.28C885.91,-349.56 897.65,-333.79 906.77,-321.53"/>
<polygon fill="#63b8ff" stroke="#63b8ff" points="909.32,-323.97 912.48,-313.86 903.7,-319.79 909.32,-323.97"/>
</a>
</g>
</g>
</g>
</svg>

<g id="navigator" transform="translate(0 0)" fill="#404254">
  <rect fill="#f2f5e9" fill-opacity="0.5" stroke="#606060" stroke-width=".5" x="0" y="0" width="60" height="60"/>
  <use id="zoomplus" xlink:href="#zoomPlus" x="17" y="9" onmousedown="handleZoom(evt,'in')"/>
  <use id="zoomminus" xlink:href="#zoomMin" x="42" y="9" onmousedown="handleZoom(evt,'out')"/>
  <use id="reset" xlink:href="#resetDef" x="30" y="36" onmousedown="handleReset()"/>
   <use id="arrowup" xlink:href="#arrowUp" x="0" y="0" onmousedown="handlePan(0,-1)"/>
  <use id="arrowright" xlink:href="#arrowRight" x="0" y="0" onmousedown="handlePan(1,0)"/>
  <use id="arrowdown" xlink:href="#arrowDown" x="0" y="0" onmousedown="handlePan(0,1)"/>
  <use id="arrowleft" xlink:href="#arrowLeft" x="0" y="0" onmousedown="handlePan(-1,0)"/>
</g>
<svg viewBox="0 0 15 15" width="100%" height="30px" preserveAspectRatio="xMaxYMin meet">
 <g id="arrow_out" transform="scale(0.3 0.3)">
  <a xlink:href="signalk__types_8h__incl_org.svg" target="_base">
   <rect id="button" ry="5" rx="5" y="6" x="6" height="38" width="38"
        fill="#f2f5e9" fill-opacity="0.5" stroke="#606060" stroke-width="1.0"/>
   <path id="arrow"
     d="M 11.500037,31.436501 C 11.940474,20.09759 22.043105,11.32322 32.158766,21.979434 L 37.068811,17.246167 C 37.068811,17.246167 37.088388,32 37.088388,32 L 22.160133,31.978069 C 22.160133,31.978069 26.997745,27.140456 26.997745,27.140456 C 18.528582,18.264221 13.291696,25.230495 11.500037,31.436501 z"
     style="fill:#404040;"/>
  </a>
 </g>
</svg>

<style type='text/css'>
<![CDATA[
[data-mouse-over-selected='false'] { opacity: 0.7; }
[data-mouse-over-selected='true']  { opacity: 1.0; }
]]>
</style>
<script type="application/ecmascript"><![CDATA[
document.addEventListener('DOMContentLoaded', (event) => {
  highlightEdges();
  highlightAdjacentNodes();
});
]]></script>
</svg>
