<?xml version="1.0" encoding="UTF-8" standalone="no"?>
<!DOCTYPE svg PUBLIC "-//W3C//DTD SVG 1.1//EN"
 "http://www.w3.org/Graphics/SVG/1.1/DTD/svg11.dtd">
<!-- Generated by graphviz version 2.49.3 (20211023.0002)
 -->
<!-- Title: src/sensesp/signalk/signalk_output.h Pages: 1 -->
<svg width="294pt" height="229pt"
 viewBox="0.00 0.00 294.48 229.00" xmlns="http://www.w3.org/2000/svg" xmlns:xlink="http://www.w3.org/1999/xlink">
<g id="graph0" class="graph" transform="scale(1 1) rotate(0) translate(4 225)">
<title>src/sensesp/signalk/signalk_output.h</title>
<polygon fill="white" stroke="transparent" points="-4,4 -4,-225 290.48,-225 290.48,4 -4,4"/>
<!-- Node1 -->
<g id="node1" class="node">
<title>Node1</title>
<g id="a_node1"><a xlink:title=" ">
<polygon fill="#bfbfbf" stroke="black" points="26.98,-190.5 26.98,-220.5 130.98,-220.5 130.98,-190.5 26.98,-190.5"/>
<text text-anchor="start" x="34.98" y="-208.5" font-family="Helvetica,sans-Serif" font-size="10.00">src/sensesp/signalk</text>
<text text-anchor="middle" x="78.98" y="-197.5" font-family="Helvetica,sans-Serif" font-size="10.00">/signalk_output.h</text>
</a>
</g>
</g>
<!-- Node2 -->
<g id="node2" class="node">
<title>Node2</title>
<g id="a_node2"><a xlink:href="main_8cpp.html" target="_top" xlink:title=" ">
<polygon fill="white" stroke="black" points="71.48,-0.5 71.48,-19.5 144.48,-19.5 144.48,-0.5 71.48,-0.5"/>
<text text-anchor="middle" x="107.98" y="-7.5" font-family="Helvetica,sans-Serif" font-size="10.00">src/main.cpp</text>
</a>
</g>
</g>
<!-- Node1&#45;&gt;Node2 -->
<g id="edge1" class="edge">
<title>Node1&#45;&gt;Node2</title>
<path fill="none" stroke="midnightblue" d="M43.41,-184.69C32.55,-176.69 21.92,-166.39 15.98,-154 -2.87,-114.73 -7.08,-92.95 15.98,-56 28.03,-36.69 51.03,-25.44 71.02,-19.02"/>
<polygon fill="midnightblue" stroke="midnightblue" points="41.45,-187.59 51.68,-190.36 45.4,-181.82 41.45,-187.59"/>
</g>
<!-- Node3 -->
<g id="node3" class="node">
<title>Node3</title>
<g id="a_node3"><a xlink:href="system__info_8h.html" target="_top" xlink:title=" ">
<polygon fill="white" stroke="black" points="24.98,-123.5 24.98,-153.5 132.98,-153.5 132.98,-123.5 24.98,-123.5"/>
<text text-anchor="start" x="32.98" y="-141.5" font-family="Helvetica,sans-Serif" font-size="10.00">src/sensesp/sensors</text>
<text text-anchor="middle" x="78.98" y="-130.5" font-family="Helvetica,sans-Serif" font-size="10.00">/system_info.h</text>
</a>
</g>
</g>
<!-- Node1&#45;&gt;Node3 -->
<g id="edge2" class="edge">
<title>Node1&#45;&gt;Node3</title>
<path fill="none" stroke="midnightblue" d="M78.98,-180.11C78.98,-171.15 78.98,-161.32 78.98,-153.58"/>
<polygon fill="midnightblue" stroke="midnightblue" points="75.48,-180.4 78.98,-190.4 82.48,-180.4 75.48,-180.4"/>
</g>
<!-- Node6 -->
<g id="node6" class="node">
<title>Node6</title>
<g id="a_node6"><a xlink:href="signalk__output_8cpp.html" target="_top" xlink:title=" ">
<polygon fill="white" stroke="black" points="150.98,-123.5 150.98,-153.5 254.98,-153.5 254.98,-123.5 150.98,-123.5"/>
<text text-anchor="start" x="158.98" y="-141.5" font-family="Helvetica,sans-Serif" font-size="10.00">src/sensesp/signalk</text>
<text text-anchor="middle" x="202.98" y="-130.5" font-family="Helvetica,sans-Serif" font-size="10.00">/signalk_output.cpp</text>
</a>
</g>
</g>
<!-- Node1&#45;&gt;Node6 -->
<g id="edge6" class="edge">
<title>Node1&#45;&gt;Node6</title>
<path fill="none" stroke="midnightblue" d="M114.82,-185.71C134.37,-175.46 158.18,-162.98 176.13,-153.58"/>
<polygon fill="midnightblue" stroke="midnightblue" points="113.12,-182.65 105.89,-190.4 116.37,-188.85 113.12,-182.65"/>
</g>
<!-- Node4 -->
<g id="node4" class="node">
<title>Node4</title>
<g id="a_node4"><a xlink:href="system__info_8cpp.html" target="_top" xlink:title=" ">
<polygon fill="white" stroke="black" points="24.98,-56.5 24.98,-86.5 132.98,-86.5 132.98,-56.5 24.98,-56.5"/>
<text text-anchor="start" x="32.98" y="-74.5" font-family="Helvetica,sans-Serif" font-size="10.00">src/sensesp/sensors</text>
<text text-anchor="middle" x="78.98" y="-63.5" font-family="Helvetica,sans-Serif" font-size="10.00">/system_info.cpp</text>
</a>
</g>
</g>
<!-- Node3&#45;&gt;Node4 -->
<g id="edge3" class="edge">
<title>Node3&#45;&gt;Node4</title>
<path fill="none" stroke="midnightblue" d="M78.98,-113.11C78.98,-104.15 78.98,-94.32 78.98,-86.58"/>
<polygon fill="midnightblue" stroke="midnightblue" points="75.48,-113.4 78.98,-123.4 82.48,-113.4 75.48,-113.4"/>
</g>
<!-- Node5 -->
<g id="node5" class="node">
<title>Node5</title>
<g id="a_node5"><a xlink:href="sensesp__app__builder_8h.html" target="_top" xlink:title=" ">
<polygon fill="white" stroke="black" points="151.48,-62 151.48,-81 286.48,-81 286.48,-62 151.48,-62"/>
<text text-anchor="middle" x="218.98" y="-69" font-family="Helvetica,sans-Serif" font-size="10.00">src/sensesp_app_builder.h</text>
</a>
</g>
</g>
<!-- Node3&#45;&gt;Node5 -->
<g id="edge4" class="edge">
<title>Node3&#45;&gt;Node5</title>
<path fill="none" stroke="midnightblue" d="M118.54,-119.13C145.49,-106.62 179.91,-90.64 200.66,-81.01"/>
<polygon fill="midnightblue" stroke="midnightblue" points="116.95,-116.01 109.36,-123.4 119.9,-122.36 116.95,-116.01"/>
</g>
<!-- Node5&#45;&gt;Node2 -->
<g id="edge5" class="edge">
<title>Node5&#45;&gt;Node2</title>
<path fill="none" stroke="midnightblue" d="M194.19,-57.21C172.69,-45.69 142.22,-29.36 123.85,-19.51"/>
<polygon fill="midnightblue" stroke="midnightblue" points="192.61,-60.34 203.08,-61.98 195.92,-54.17 192.61,-60.34"/>
</g>
</g>
</svg>
