<?xml version="1.0" encoding="UTF-8" standalone="no"?>
<!DOCTYPE svg PUBLIC "-//W3C//DTD SVG 1.1//EN"
 "http://www.w3.org/Graphics/SVG/1.1/DTD/svg11.dtd">
<!-- Generated by graphviz version 12.1.0 (20240811.2233)
 -->
<!-- Title: src/sensesp/signalk/signalk_output.h Pages: 1 -->
<svg width="439pt" height="227pt"
 viewBox="0.00 0.00 438.88 226.75" xmlns="http://www.w3.org/2000/svg" xmlns:xlink="http://www.w3.org/1999/xlink">

<svg id="main" version="1.1" xmlns="http://www.w3.org/2000/svg" xmlns:xlink="http://www.w3.org/1999/xlink" xml:space="preserve">

<style type="text/css"><![CDATA[
.node, .edge {opacity: 0.7;}
.node.selected, .edge.selected {opacity: 1;}
.edge:hover path { stroke: red; }
.edge:hover polygon { stroke: red; fill: red; }
]]></style>
<script type="application/ecmascript" xlink:href="svg.min.js"/>
<svg id="graph" class="graph">
<g id="graph0" class="graph" transform="scale(1 1) rotate(0) translate(4 222.75)">
<title>src/sensesp/signalk/signalk_output.h</title>
<!-- Node1 -->
<g id="Node000001" class="node">
<title>Node1</title>
<g id="a_Node000001"><a xlink:title=" ">
<polygon fill="#999999" stroke="#666666" points="309.88,-218.75 206.88,-218.75 206.88,-188.25 309.88,-188.25 309.88,-218.75"/>
<text text-anchor="start" x="214.88" y="-205.25" font-family="Helvetica,sans-Serif" font-size="10.00">src/sensesp/signalk</text>
<text text-anchor="middle" x="258.38" y="-194" font-family="Helvetica,sans-Serif" font-size="10.00">/signalk_output.h</text>
</a>
</g>
</g>
<!-- Node2 -->
<g id="Node000002" class="node">
<title>Node2</title>
<g id="a_Node000002"><a xlink:href="system__info_8h.html" target="_top" xlink:title=" ">
<polygon fill="white" stroke="#666666" points="188.75,-152.25 82,-152.25 82,-121.75 188.75,-121.75 188.75,-152.25"/>
<text text-anchor="start" x="90" y="-138.75" font-family="Helvetica,sans-Serif" font-size="10.00">src/sensesp/sensors</text>
<text text-anchor="middle" x="135.38" y="-127.5" font-family="Helvetica,sans-Serif" font-size="10.00">/system_info.h</text>
</a>
</g>
</g>
<!-- Node1&#45;&gt;Node2 -->
<g id="edge1_Node000001_Node000002" class="edge">
<title>Node1&#45;&gt;Node2</title>
<g id="a_edge1_Node000001_Node000002"><a xlink:title=" ">
<path fill="none" stroke="#63b8ff" d="M220.32,-182.54C201.85,-172.86 180.06,-161.43 163.18,-152.58"/>
<polygon fill="#63b8ff" stroke="#63b8ff" points="218.64,-185.62 229.12,-187.16 221.89,-179.42 218.64,-185.62"/>
</a>
</g>
</g>
<!-- Node6 -->
<g id="Node000006" class="node">
<title>Node6</title>
<g id="a_Node000006"><a xlink:href="signalk__output_8cpp.html" target="_top" xlink:title=" ">
<polygon fill="white" stroke="#666666" points="309.88,-152.25 206.88,-152.25 206.88,-121.75 309.88,-121.75 309.88,-152.25"/>
<text text-anchor="start" x="214.88" y="-138.75" font-family="Helvetica,sans-Serif" font-size="10.00">src/sensesp/signalk</text>
<text text-anchor="middle" x="258.38" y="-127.5" font-family="Helvetica,sans-Serif" font-size="10.00">/signalk_output.cpp</text>
</a>
</g>
</g>
<!-- Node1&#45;&gt;Node6 -->
<g id="edge5_Node000001_Node000006" class="edge">
<title>Node1&#45;&gt;Node6</title>
<g id="a_edge5_Node000001_Node000006"><a xlink:title=" ">
<path fill="none" stroke="#63b8ff" d="M258.38,-176.56C258.38,-168.39 258.38,-159.66 258.38,-152.58"/>
<polygon fill="#63b8ff" stroke="#63b8ff" points="254.88,-176.35 258.38,-186.35 261.88,-176.35 254.88,-176.35"/>
</a>
</g>
</g>
<!-- Node7 -->
<g id="Node000007" class="node">
<title>Node7</title>
<g id="a_Node000007"><a xlink:href="signalk__types_8h.html" target="_top" xlink:title=" ">
<polygon fill="white" stroke="#666666" points="430.88,-152.25 327.88,-152.25 327.88,-121.75 430.88,-121.75 430.88,-152.25"/>
<text text-anchor="start" x="335.88" y="-138.75" font-family="Helvetica,sans-Serif" font-size="10.00">src/sensesp/signalk</text>
<text text-anchor="middle" x="379.38" y="-127.5" font-family="Helvetica,sans-Serif" font-size="10.00">/signalk_types.h</text>
</a>
</g>
</g>
<!-- Node1&#45;&gt;Node7 -->
<g id="edge6_Node000001_Node000007" class="edge">
<title>Node1&#45;&gt;Node7</title>
<g id="a_edge6_Node000001_Node000007"><a xlink:title=" ">
<path fill="none" stroke="#63b8ff" d="M295.81,-182.54C313.98,-172.86 335.42,-161.43 352.03,-152.58"/>
<polygon fill="#63b8ff" stroke="#63b8ff" points="294.35,-179.36 287.17,-187.15 297.64,-185.54 294.35,-179.36"/>
</a>
</g>
</g>
<!-- Node3 -->
<g id="Node000003" class="node">
<title>Node3</title>
<g id="a_Node000003"><a xlink:href="system__info_8cpp.html" target="_top" xlink:title=" ">
<polygon fill="white" stroke="#666666" points="106.75,-85.75 0,-85.75 0,-55.25 106.75,-55.25 106.75,-85.75"/>
<text text-anchor="start" x="8" y="-72.25" font-family="Helvetica,sans-Serif" font-size="10.00">src/sensesp/sensors</text>
<text text-anchor="middle" x="53.38" y="-61" font-family="Helvetica,sans-Serif" font-size="10.00">/system_info.cpp</text>
</a>
</g>
</g>
<!-- Node2&#45;&gt;Node3 -->
<g id="edge2_Node000002_Node000003" class="edge">
<title>Node2&#45;&gt;Node3</title>
<g id="a_edge2_Node000002_Node000003"><a xlink:title=" ">
<path fill="none" stroke="#63b8ff" d="M107.75,-114.27C95.95,-104.98 82.48,-94.4 71.91,-86.08"/>
<polygon fill="#63b8ff" stroke="#63b8ff" points="105.55,-117 115.58,-120.43 109.88,-111.49 105.55,-117"/>
</a>
</g>
</g>
<!-- Node4 -->
<g id="Node000004" class="node">
<title>Node4</title>
<g id="a_Node000004"><a xlink:href="sensesp__app__builder_8h.html" target="_top" xlink:title=" ">
<polygon fill="white" stroke="#666666" points="256.12,-80.12 124.62,-80.12 124.62,-60.88 256.12,-60.88 256.12,-80.12"/>
<text text-anchor="middle" x="190.38" y="-66.62" font-family="Helvetica,sans-Serif" font-size="10.00">src/sensesp_app_builder.h</text>
</a>
</g>
</g>
<!-- Node2&#45;&gt;Node4 -->
<g id="edge3_Node000002_Node000004" class="edge">
<title>Node2&#45;&gt;Node4</title>
<g id="a_edge3_Node000002_Node000004"><a xlink:title=" ">
<path fill="none" stroke="#63b8ff" d="M155.17,-112.79C164.77,-101.52 175.75,-88.66 182.85,-80.32"/>
<polygon fill="#63b8ff" stroke="#63b8ff" points="152.66,-110.33 148.84,-120.21 157.99,-114.87 152.66,-110.33"/>
</a>
</g>
</g>
<!-- Node5 -->
<g id="Node000005" class="node">
<title>Node5</title>
<g id="a_Node000005"><a xlink:href="main_8cpp.html" target="_top" xlink:title=" ">
<polygon fill="white" stroke="#666666" points="226.5,-19.25 154.25,-19.25 154.25,0 226.5,0 226.5,-19.25"/>
<text text-anchor="middle" x="190.38" y="-5.75" font-family="Helvetica,sans-Serif" font-size="10.00">src/main.cpp</text>
</a>
</g>
</g>
<!-- Node4&#45;&gt;Node5 -->
<g id="edge4_Node000004_Node000005" class="edge">
<title>Node4&#45;&gt;Node5</title>
<g id="a_edge4_Node000004_Node000005"><a xlink:title=" ">
<path fill="none" stroke="#63b8ff" d="M190.38,-49.07C190.38,-39.04 190.38,-27.46 190.38,-19.65"/>
<polygon fill="#63b8ff" stroke="#63b8ff" points="186.88,-49.04 190.38,-59.04 193.88,-49.04 186.88,-49.04"/>
</a>
</g>
</g>
<!-- Node8 -->
<g id="Node000008" class="node">
<title>Node8</title>
<g id="a_Node000008"><a xlink:href="signalk__types_8cpp.html" target="_top" xlink:title=" ">
<polygon fill="white" stroke="#666666" points="430.88,-85.75 327.88,-85.75 327.88,-55.25 430.88,-55.25 430.88,-85.75"/>
<text text-anchor="start" x="335.88" y="-72.25" font-family="Helvetica,sans-Serif" font-size="10.00">src/sensesp/signalk</text>
<text text-anchor="middle" x="379.38" y="-61" font-family="Helvetica,sans-Serif" font-size="10.00">/signalk_types.cpp</text>
</a>
</g>
</g>
<!-- Node7&#45;&gt;Node8 -->
<g id="edge7_Node000007_Node000008" class="edge">
<title>Node7&#45;&gt;Node8</title>
<g id="a_edge7_Node000007_Node000008"><a xlink:title=" ">
<path fill="none" stroke="#63b8ff" d="M379.38,-110.06C379.38,-101.89 379.38,-93.16 379.38,-86.08"/>
<polygon fill="#63b8ff" stroke="#63b8ff" points="375.88,-109.85 379.38,-119.85 382.88,-109.85 375.88,-109.85"/>
</a>
</g>
</g>
</g>
</svg>
</svg>

<style type='text/css'>
<![CDATA[
[data-mouse-over-selected='false'] { opacity: 0.7; }
[data-mouse-over-selected='true']  { opacity: 1.0; }
]]>
</style>
<script type="application/ecmascript"><![CDATA[
document.addEventListener('DOMContentLoaded', (event) => {
  highlightEdges();
  highlightAdjacentNodes();
});
]]></script>
</svg>
