<?xml version="1.0" encoding="UTF-8" standalone="no"?>
<!DOCTYPE svg PUBLIC "-//W3C//DTD SVG 1.1//EN"
 "http://www.w3.org/Graphics/SVG/1.1/DTD/svg11.dtd">
<!-- Generated by graphviz version 14.1.1 (20251213.1925)
 -->
<!-- Title: src/sensesp/signalk/signalk_put_request_listener.cpp Pages: 1 -->
<svg width="516pt" height="404pt"
 viewBox="0.00 0.00 516.00 404.00" xmlns="http://www.w3.org/2000/svg" xmlns:xlink="http://www.w3.org/1999/xlink">
<g id="graph0" class="graph" transform="scale(1 1) rotate(0) translate(4 399.75)">
<title>src/sensesp/signalk/signalk_put_request_listener.cpp</title>
<!-- Node1 -->
<g id="Node000001" class="node">
<title>Node1</title>
<g id="a_Node000001"><a xlink:title=" ">
<polygon fill="#999999" stroke="#666666" points="315.62,-395.75 209.62,-395.75 209.62,-354 315.62,-354 315.62,-395.75"/>
<text xml:space="preserve" text-anchor="start" x="217.62" y="-382.25" font-family="Helvetica,sans-Serif" font-size="10.00">src/sensesp/signalk</text>
<text xml:space="preserve" text-anchor="start" x="217.62" y="-371" font-family="Helvetica,sans-Serif" font-size="10.00">/signalk_put_request</text>
<text xml:space="preserve" text-anchor="middle" x="262.62" y="-359.75" font-family="Helvetica,sans-Serif" font-size="10.00">_listener.cpp</text>
</a>
</g>
</g>
<!-- Node2 -->
<g id="Node000002" class="node">
<title>Node2</title>
<g id="a_Node000002"><a xlink:href="signalk__put__request__listener_8h.html" target="_top" xlink:title=" ">
<polygon fill="white" stroke="#666666" points="314.12,-318 211.12,-318 211.12,-287.5 314.12,-287.5 314.12,-318"/>
<text xml:space="preserve" text-anchor="start" x="219.12" y="-304.5" font-family="Helvetica,sans-Serif" font-size="10.00">signalk_put_request</text>
<text xml:space="preserve" text-anchor="middle" x="262.62" y="-293.25" font-family="Helvetica,sans-Serif" font-size="10.00">_listener.h</text>
</a>
</g>
</g>
<!-- Node1&#45;&gt;Node2 -->
<g id="edge1_Node000001_Node000002" class="edge">
<title>Node1&#45;&gt;Node2</title>
<g id="a_edge1_Node000001_Node000002"><a xlink:title=" ">
<path fill="none" stroke="#63b8ff" d="M262.62,-353.59C262.62,-346.07 262.62,-337.44 262.62,-329.5"/>
<polygon fill="#63b8ff" stroke="#63b8ff" points="266.13,-329.71 262.63,-319.71 259.13,-329.71 266.13,-329.71"/>
</a>
</g>
</g>
<!-- Node3 -->
<g id="Node000003" class="node">
<title>Node3</title>
<g id="a_Node000003"><a xlink:href="sensesp_8h.html" target="_top" xlink:title=" ">
<polygon fill="white" stroke="#666666" points="124.12,-141 63.12,-141 63.12,-121.75 124.12,-121.75 124.12,-141"/>
<text xml:space="preserve" text-anchor="middle" x="93.62" y="-127.5" font-family="Helvetica,sans-Serif" font-size="10.00">sensesp.h</text>
</a>
</g>
</g>
<!-- Node2&#45;&gt;Node3 -->
<g id="edge2_Node000002_Node000003" class="edge">
<title>Node2&#45;&gt;Node3</title>
<g id="a_edge2_Node000002_Node000003"><a xlink:title=" ">
<path fill="none" stroke="#63b8ff" d="M210.99,-295.73C158.78,-288.46 83.33,-274.29 65.62,-251.5 42.47,-221.7 64.93,-175.9 80.85,-150.66"/>
<polygon fill="#63b8ff" stroke="#63b8ff" points="83.67,-152.73 86.28,-142.46 77.84,-148.86 83.67,-152.73"/>
</a>
</g>
</g>
<!-- Node10 -->
<g id="Node000010" class="node">
<title>Node10</title>
<g id="a_Node000010"><a xlink:title=" ">
<polygon fill="#e0e0e0" stroke="#999999" points="286.75,-141 208.5,-141 208.5,-121.75 286.75,-121.75 286.75,-141"/>
<text xml:space="preserve" text-anchor="middle" x="247.62" y="-127.5" font-family="Helvetica,sans-Serif" font-size="10.00">ArduinoJson.h</text>
</a>
</g>
</g>
<!-- Node2&#45;&gt;Node10 -->
<g id="edge9_Node000002_Node000010" class="edge">
<title>Node2&#45;&gt;Node10</title>
<g id="a_edge9_Node000002_Node000010"><a xlink:title=" ">
<path fill="none" stroke="#63b8ff" d="M261.32,-287.02C258.64,-256.76 252.51,-187.55 249.44,-152.91"/>
<polygon fill="#63b8ff" stroke="#63b8ff" points="252.93,-152.64 248.57,-142.99 245.96,-153.26 252.93,-152.64"/>
</a>
</g>
</g>
<!-- Node11 -->
<g id="Node000011" class="node">
<title>Node11</title>
<g id="a_Node000011"><a xlink:title=" ">
<polygon fill="#e0e0e0" stroke="#999999" points="358.38,-251.5 328.88,-251.5 328.88,-232.25 358.38,-232.25 358.38,-251.5"/>
<text xml:space="preserve" text-anchor="middle" x="343.62" y="-238" font-family="Helvetica,sans-Serif" font-size="10.00">set</text>
</a>
</g>
</g>
<!-- Node2&#45;&gt;Node11 -->
<g id="edge10_Node000002_Node000011" class="edge">
<title>Node2&#45;&gt;Node11</title>
<g id="a_edge10_Node000002_Node000011"><a xlink:title=" ">
<path fill="none" stroke="#63b8ff" d="M282.65,-287.2C294.62,-278.49 309.84,-267.43 322.08,-258.53"/>
<polygon fill="#63b8ff" stroke="#63b8ff" points="323.88,-261.55 329.91,-252.84 319.77,-255.89 323.88,-261.55"/>
</a>
</g>
</g>
<!-- Node12 -->
<g id="Node000012" class="node">
<title>Node12</title>
<g id="a_Node000012"><a xlink:href="observable_8h.html" target="_top" xlink:title=" ">
<polygon fill="white" stroke="#666666" points="436.88,-196.25 290.38,-196.25 290.38,-177 436.88,-177 436.88,-196.25"/>
<text xml:space="preserve" text-anchor="middle" x="363.62" y="-182.75" font-family="Helvetica,sans-Serif" font-size="10.00">sensesp/system/observable.h</text>
</a>
</g>
</g>
<!-- Node2&#45;&gt;Node12 -->
<g id="edge11_Node000002_Node000012" class="edge">
<title>Node2&#45;&gt;Node12</title>
<g id="a_edge11_Node000002_Node000012"><a xlink:title=" ">
<path fill="none" stroke="#63b8ff" d="M274.04,-287.05C285.29,-272.76 303.13,-250.58 319.62,-232.25 328.07,-222.86 337.9,-212.82 346.12,-204.64"/>
<polygon fill="#63b8ff" stroke="#63b8ff" points="348.52,-207.19 353.19,-197.68 343.61,-202.2 348.52,-207.19"/>
</a>
</g>
</g>
<!-- Node16 -->
<g id="Node000016" class="node">
<title>Node16</title>
<g id="a_Node000016"><a xlink:href="valueproducer_8h.html" target="_top" xlink:title=" ">
<polygon fill="white" stroke="#666666" points="234.25,-251.5 75,-251.5 75,-232.25 234.25,-232.25 234.25,-251.5"/>
<text xml:space="preserve" text-anchor="middle" x="154.62" y="-238" font-family="Helvetica,sans-Serif" font-size="10.00">sensesp/system/valueproducer.h</text>
</a>
</g>
</g>
<!-- Node2&#45;&gt;Node16 -->
<g id="edge15_Node000002_Node000016" class="edge">
<title>Node2&#45;&gt;Node16</title>
<g id="a_edge15_Node000002_Node000016"><a xlink:title=" ">
<path fill="none" stroke="#63b8ff" d="M235.65,-287.05C219.05,-277.99 197.85,-266.44 181.3,-257.41"/>
<polygon fill="#63b8ff" stroke="#63b8ff" points="182.97,-254.34 172.52,-252.63 179.62,-260.49 182.97,-254.34"/>
</a>
</g>
</g>
<!-- Node4 -->
<g id="Node000004" class="node">
<title>Node4</title>
<g id="a_Node000004"><a xlink:title=" ">
<polygon fill="#e0e0e0" stroke="#999999" points="138.25,-80.12 69,-80.12 69,-60.88 138.25,-60.88 138.25,-80.12"/>
<text xml:space="preserve" text-anchor="middle" x="103.62" y="-66.62" font-family="Helvetica,sans-Serif" font-size="10.00">ReactESP.h</text>
</a>
</g>
</g>
<!-- Node3&#45;&gt;Node4 -->
<g id="edge3_Node000003_Node000004" class="edge">
<title>Node3&#45;&gt;Node4</title>
<g id="a_edge3_Node000003_Node000004"><a xlink:title=" ">
<path fill="none" stroke="#63b8ff" d="M95.14,-121.43C96.48,-113.57 98.47,-101.82 100.19,-91.7"/>
<polygon fill="#63b8ff" stroke="#63b8ff" points="103.61,-92.46 101.84,-82.02 96.71,-91.29 103.61,-92.46"/>
</a>
</g>
</g>
<!-- Node5 -->
<g id="Node000005" class="node">
<title>Node5</title>
<g id="a_Node000005"><a xlink:title=" ">
<polygon fill="#e0e0e0" stroke="#999999" points="51.25,-80.12 0,-80.12 0,-60.88 51.25,-60.88 51.25,-80.12"/>
<text xml:space="preserve" text-anchor="middle" x="25.62" y="-66.62" font-family="Helvetica,sans-Serif" font-size="10.00">memory</text>
</a>
</g>
</g>
<!-- Node3&#45;&gt;Node5 -->
<g id="edge4_Node000003_Node000005" class="edge">
<title>Node3&#45;&gt;Node5</title>
<g id="a_edge4_Node000003_Node000005"><a xlink:title=" ">
<path fill="none" stroke="#63b8ff" d="M83.3,-121.43C73.01,-112.53 56.99,-98.66 44.44,-87.79"/>
<polygon fill="#63b8ff" stroke="#63b8ff" points="47.05,-85.42 37.19,-81.52 42.46,-90.71 47.05,-85.42"/>
</a>
</g>
</g>
<!-- Node6 -->
<g id="Node000006" class="node">
<title>Node6</title>
<g id="a_Node000006"><a xlink:href="local__debug_8h.html" target="_top" xlink:title=" ">
<polygon fill="white" stroke="#666666" points="267.25,-85.75 156,-85.75 156,-55.25 267.25,-55.25 267.25,-85.75"/>
<text xml:space="preserve" text-anchor="start" x="164" y="-72.25" font-family="Helvetica,sans-Serif" font-size="10.00">sensesp/system/local</text>
<text xml:space="preserve" text-anchor="middle" x="211.62" y="-61" font-family="Helvetica,sans-Serif" font-size="10.00">_debug.h</text>
</a>
</g>
</g>
<!-- Node3&#45;&gt;Node6 -->
<g id="edge5_Node000003_Node000006" class="edge">
<title>Node3&#45;&gt;Node6</title>
<g id="a_edge5_Node000003_Node000006"><a xlink:title=" ">
<path fill="none" stroke="#63b8ff" d="M111.8,-121.3C127.77,-113.34 151.56,-101.47 171.9,-91.32"/>
<polygon fill="#63b8ff" stroke="#63b8ff" points="173.43,-94.47 180.82,-86.87 170.31,-88.2 173.43,-94.47"/>
</a>
</g>
</g>
<!-- Node7 -->
<g id="Node000007" class="node">
<title>Node7</title>
<g id="a_Node000007"><a xlink:title=" ">
<polygon fill="#e0e0e0" stroke="#999999" points="164.62,-19.25 82.62,-19.25 82.62,0 164.62,0 164.62,-19.25"/>
<text xml:space="preserve" text-anchor="middle" x="123.62" y="-5.75" font-family="Helvetica,sans-Serif" font-size="10.00">esp32&#45;hal&#45;log.h</text>
</a>
</g>
</g>
<!-- Node6&#45;&gt;Node7 -->
<g id="edge6_Node000006_Node000007" class="edge">
<title>Node6&#45;&gt;Node7</title>
<g id="a_edge6_Node000006_Node000007"><a xlink:title=" ">
<path fill="none" stroke="#63b8ff" d="M189.87,-54.95C176.73,-46.15 160,-34.96 146.64,-26.02"/>
<polygon fill="#63b8ff" stroke="#63b8ff" points="148.71,-23.19 138.45,-20.54 144.81,-29.01 148.71,-23.19"/>
</a>
</g>
</g>
<!-- Node8 -->
<g id="Node000008" class="node">
<title>Node8</title>
<g id="a_Node000008"><a xlink:title=" ">
<polygon fill="#e0e0e0" stroke="#999999" points="240.25,-19.25 183,-19.25 183,0 240.25,0 240.25,-19.25"/>
<text xml:space="preserve" text-anchor="middle" x="211.62" y="-5.75" font-family="Helvetica,sans-Serif" font-size="10.00">Arduino.h</text>
</a>
</g>
</g>
<!-- Node6&#45;&gt;Node8 -->
<g id="edge7_Node000006_Node000008" class="edge">
<title>Node6&#45;&gt;Node8</title>
<g id="a_edge7_Node000006_Node000008"><a xlink:title=" ">
<path fill="none" stroke="#63b8ff" d="M211.62,-54.95C211.62,-47.71 211.62,-38.84 211.62,-30.94"/>
<polygon fill="#63b8ff" stroke="#63b8ff" points="215.13,-31.21 211.63,-21.21 208.13,-31.21 215.13,-31.21"/>
</a>
</g>
</g>
<!-- Node9 -->
<g id="Node000009" class="node">
<title>Node9</title>
<g id="a_Node000009"><a xlink:title=" ">
<polygon fill="#e0e0e0" stroke="#999999" points="302.88,-19.25 258.38,-19.25 258.38,0 302.88,0 302.88,-19.25"/>
<text xml:space="preserve" text-anchor="middle" x="280.62" y="-5.75" font-family="Helvetica,sans-Serif" font-size="10.00">Print.h</text>
</a>
</g>
</g>
<!-- Node6&#45;&gt;Node9 -->
<g id="edge8_Node000006_Node000009" class="edge">
<title>Node6&#45;&gt;Node9</title>
<g id="a_edge8_Node000006_Node000009"><a xlink:title=" ">
<path fill="none" stroke="#63b8ff" d="M228.68,-54.95C238.58,-46.5 251.08,-35.83 261.34,-27.08"/>
<polygon fill="#63b8ff" stroke="#63b8ff" points="263.5,-29.84 268.84,-20.68 258.96,-24.51 263.5,-29.84"/>
</a>
</g>
</g>
<!-- Node13 -->
<g id="Node000013" class="node">
<title>Node13</title>
<g id="a_Node000013"><a xlink:title=" ">
<polygon fill="#e0e0e0" stroke="#999999" points="370.75,-141 304.5,-141 304.5,-121.75 370.75,-121.75 370.75,-141"/>
<text xml:space="preserve" text-anchor="middle" x="337.62" y="-127.5" font-family="Helvetica,sans-Serif" font-size="10.00">forward_list</text>
</a>
</g>
</g>
<!-- Node12&#45;&gt;Node13 -->
<g id="edge12_Node000012_Node000013" class="edge">
<title>Node12&#45;&gt;Node13</title>
<g id="a_edge12_Node000012_Node000013"><a xlink:title=" ">
<path fill="none" stroke="#63b8ff" d="M359.33,-176.83C356,-170.01 351.26,-160.31 347.06,-151.7"/>
<polygon fill="#63b8ff" stroke="#63b8ff" points="350.21,-150.17 342.68,-142.72 343.92,-153.24 350.21,-150.17"/>
</a>
</g>
</g>
<!-- Node14 -->
<g id="Node000014" class="node">
<title>Node14</title>
<g id="a_Node000014"><a xlink:title=" ">
<polygon fill="#e0e0e0" stroke="#999999" points="446.62,-141 388.62,-141 388.62,-121.75 446.62,-121.75 446.62,-141"/>
<text xml:space="preserve" text-anchor="middle" x="417.62" y="-127.5" font-family="Helvetica,sans-Serif" font-size="10.00">functional</text>
</a>
</g>
</g>
<!-- Node12&#45;&gt;Node14 -->
<g id="edge13_Node000012_Node000014" class="edge">
<title>Node12&#45;&gt;Node14</title>
<g id="a_edge13_Node000012_Node000014"><a xlink:title=" ">
<path fill="none" stroke="#63b8ff" d="M372.54,-176.83C380.08,-169.4 391.09,-158.54 400.35,-149.41"/>
<polygon fill="#63b8ff" stroke="#63b8ff" points="402.77,-151.94 407.44,-142.42 397.86,-146.95 402.77,-151.94"/>
</a>
</g>
</g>
<!-- Node15 -->
<g id="Node000015" class="node">
<title>Node15</title>
<g id="a_Node000015"><a xlink:title=" ">
<polygon fill="#e0e0e0" stroke="#999999" points="508.12,-141 465.12,-141 465.12,-121.75 508.12,-121.75 508.12,-141"/>
<text xml:space="preserve" text-anchor="middle" x="486.62" y="-127.5" font-family="Helvetica,sans-Serif" font-size="10.00">vector</text>
</a>
</g>
</g>
<!-- Node12&#45;&gt;Node15 -->
<g id="edge14_Node000012_Node000015" class="edge">
<title>Node12&#45;&gt;Node15</title>
<g id="a_edge14_Node000012_Node000015"><a xlink:title=" ">
<path fill="none" stroke="#63b8ff" d="M384.49,-176.59C403.93,-168.18 433.17,-155.52 455.39,-145.9"/>
<polygon fill="#63b8ff" stroke="#63b8ff" points="456.48,-149.24 464.27,-142.05 453.7,-142.81 456.48,-149.24"/>
</a>
</g>
</g>
<!-- Node16&#45;&gt;Node5 -->
<g id="edge17_Node000016_Node000005" class="edge">
<title>Node16&#45;&gt;Node5</title>
<g id="a_edge17_Node000016_Node000005"><a xlink:title=" ">
<path fill="none" stroke="#63b8ff" d="M141.2,-231.79C129.14,-223.32 111.29,-209.96 97.62,-196.25 75.65,-174.22 70.31,-167.87 54.62,-141 45.25,-124.94 37.35,-105.28 32.17,-90.98"/>
<polygon fill="#63b8ff" stroke="#63b8ff" points="35.58,-90.13 28.98,-81.84 28.97,-92.44 35.58,-90.13"/>
</a>
</g>
</g>
<!-- Node16&#45;&gt;Node10 -->
<g id="edge16_Node000016_Node000010" class="edge">
<title>Node16&#45;&gt;Node10</title>
<g id="a_edge16_Node000016_Node000010"><a xlink:title=" ">
<path fill="none" stroke="#63b8ff" d="M166.79,-231.77C177.68,-223.28 193.72,-209.91 205.62,-196.25 217.89,-182.18 229.35,-164.29 237.19,-151.03"/>
<polygon fill="#63b8ff" stroke="#63b8ff" points="240.16,-152.89 242.11,-142.47 234.09,-149.4 240.16,-152.89"/>
</a>
</g>
</g>
<!-- Node16&#45;&gt;Node12 -->
<g id="edge18_Node000016_Node000012" class="edge">
<title>Node16&#45;&gt;Node12</title>
<g id="a_edge18_Node000016_Node000012"><a xlink:title=" ">
<path fill="none" stroke="#63b8ff" d="M190.08,-231.84C225.06,-222.93 278.72,-209.26 317.11,-199.48"/>
<polygon fill="#63b8ff" stroke="#63b8ff" points="317.7,-202.94 326.53,-197.08 315.98,-196.15 317.7,-202.94"/>
</a>
</g>
</g>
<!-- Node17 -->
<g id="Node000017" class="node">
<title>Node17</title>
<g id="a_Node000017"><a xlink:href="valueconsumer_8h.html" target="_top" xlink:title=" ">
<polygon fill="white" stroke="#666666" points="196.38,-196.25 106.88,-196.25 106.88,-177 196.38,-177 196.38,-196.25"/>
<text xml:space="preserve" text-anchor="middle" x="151.62" y="-182.75" font-family="Helvetica,sans-Serif" font-size="10.00">valueconsumer.h</text>
</a>
</g>
</g>
<!-- Node16&#45;&gt;Node17 -->
<g id="edge19_Node000016_Node000017" class="edge">
<title>Node16&#45;&gt;Node17</title>
<g id="a_edge19_Node000016_Node000017"><a xlink:title=" ">
<path fill="none" stroke="#63b8ff" d="M154.13,-232.08C153.76,-225.49 153.24,-216.21 152.76,-207.82"/>
<polygon fill="#63b8ff" stroke="#63b8ff" points="156.27,-207.91 152.22,-198.12 149.28,-208.3 156.27,-207.91"/>
</a>
</g>
</g>
<!-- Node17&#45;&gt;Node3 -->
<g id="edge20_Node000017_Node000003" class="edge">
<title>Node17&#45;&gt;Node3</title>
<g id="a_edge20_Node000017_Node000003"><a xlink:title=" ">
<path fill="none" stroke="#63b8ff" d="M141.79,-176.59C133.57,-169.05 121.64,-158.1 111.71,-148.98"/>
<polygon fill="#63b8ff" stroke="#63b8ff" points="114.17,-146.48 104.43,-142.3 109.43,-151.64 114.17,-146.48"/>
</a>
</g>
</g>
<!-- Node17&#45;&gt;Node10 -->
<g id="edge21_Node000017_Node000010" class="edge">
<title>Node17&#45;&gt;Node10</title>
<g id="a_edge21_Node000017_Node000010"><a xlink:title=" ">
<path fill="none" stroke="#63b8ff" d="M167.91,-176.59C182.53,-168.48 204.25,-156.43 221.33,-146.96"/>
<polygon fill="#63b8ff" stroke="#63b8ff" points="222.89,-150.1 229.94,-142.19 219.49,-143.98 222.89,-150.1"/>
</a>
</g>
</g>
<!-- Node18 -->
<g id="Node000018" class="node">
<title>Node18</title>
<g id="a_Node000018"><a xlink:title=" ">
<polygon fill="#e0e0e0" stroke="#999999" points="190.75,-141 142.5,-141 142.5,-121.75 190.75,-121.75 190.75,-141"/>
<text xml:space="preserve" text-anchor="middle" x="166.62" y="-127.5" font-family="Helvetica,sans-Serif" font-size="10.00">stdint.h</text>
</a>
</g>
</g>
<!-- Node17&#45;&gt;Node18 -->
<g id="edge22_Node000017_Node000018" class="edge">
<title>Node17&#45;&gt;Node18</title>
<g id="a_edge22_Node000017_Node000018"><a xlink:title=" ">
<path fill="none" stroke="#63b8ff" d="M154.1,-176.83C155.98,-170.17 158.63,-160.74 161.02,-152.28"/>
<polygon fill="#63b8ff" stroke="#63b8ff" points="164.34,-153.39 163.68,-142.82 157.6,-151.49 164.34,-153.39"/>
</a>
</g>
</g>
</g>
</svg>
