<?xml version="1.0" encoding="UTF-8" standalone="no"?>
<!DOCTYPE svg PUBLIC "-//W3C//DTD SVG 1.1//EN"
 "http://www.w3.org/Graphics/SVG/1.1/DTD/svg11.dtd">
<!-- Generated by graphviz version 7.1.0 (20230121.1956)
 -->
<!-- Title: src/sensesp/signalk/signalk_metadata.h Pages: 1 -->
<svg width="593pt" height="357pt"
 viewBox="0.00 0.00 592.50 357.00" xmlns="http://www.w3.org/2000/svg" xmlns:xlink="http://www.w3.org/1999/xlink">
<g id="graph0" class="graph" transform="scale(1 1) rotate(0) translate(4 353)">
<title>src/sensesp/signalk/signalk_metadata.h</title>
<!-- Node1 -->
<g id="node1" class="node">
<title>Node1</title>
<g id="a_node1"><a xlink:title=" ">
<polygon fill="#999999" stroke="#666666" points="374.5,-349 270.5,-349 270.5,-319 374.5,-319 374.5,-349"/>
<text text-anchor="start" x="278.5" y="-337" font-family="Helvetica,sans-Serif" font-size="10.00">src/sensesp/signalk</text>
<text text-anchor="middle" x="322.5" y="-326" font-family="Helvetica,sans-Serif" font-size="10.00">/signalk_metadata.h</text>
</a>
</g>
</g>
<!-- Node2 -->
<g id="node2" class="node">
<title>Node2</title>
<g id="a_node2"><a xlink:href="signalk__emitter_8h.html" target="_top" xlink:title=" ">
<polygon fill="white" stroke="#666666" points="310.5,-283 206.5,-283 206.5,-253 310.5,-253 310.5,-283"/>
<text text-anchor="start" x="214.5" y="-271" font-family="Helvetica,sans-Serif" font-size="10.00">src/sensesp/signalk</text>
<text text-anchor="middle" x="258.5" y="-260" font-family="Helvetica,sans-Serif" font-size="10.00">/signalk_emitter.h</text>
</a>
</g>
</g>
<!-- Node1&#45;&gt;Node2 -->
<g id="edge1" class="edge">
<title>Node1&#45;&gt;Node2</title>
<path fill="none" stroke="#63b8ff" d="M300.31,-310.81C291.14,-301.64 280.78,-291.28 272.66,-283.16"/>
<polygon fill="#63b8ff" stroke="#63b8ff" points="297.68,-313.13 307.23,-317.73 302.63,-308.18 297.68,-313.13"/>
</g>
<!-- Node15 -->
<g id="node15" class="node">
<title>Node15</title>
<g id="a_node15"><a xlink:href="signalk__metadata_8cpp.html" target="_top" xlink:title=" ">
<polygon fill="white" stroke="#666666" points="444,-283 329,-283 329,-253 444,-253 444,-283"/>
<text text-anchor="start" x="337" y="-271" font-family="Helvetica,sans-Serif" font-size="10.00">src/sensesp/signalk</text>
<text text-anchor="middle" x="386.5" y="-260" font-family="Helvetica,sans-Serif" font-size="10.00">/signalk_metadata.cpp</text>
</a>
</g>
</g>
<!-- Node1&#45;&gt;Node15 -->
<g id="edge14" class="edge">
<title>Node1&#45;&gt;Node15</title>
<path fill="none" stroke="#63b8ff" d="M344.69,-310.81C353.86,-301.64 364.22,-291.28 372.34,-283.16"/>
<polygon fill="#63b8ff" stroke="#63b8ff" points="342.37,-308.18 337.77,-317.73 347.32,-313.13 342.37,-308.18"/>
</g>
<!-- Node3 -->
<g id="node3" class="node">
<title>Node3</title>
<g id="a_node3"><a xlink:href="signalk__delta__queue_8cpp.html" target="_top" xlink:title=" ">
<polygon fill="white" stroke="#666666" points="127,-217 0,-217 0,-187 127,-187 127,-217"/>
<text text-anchor="start" x="8" y="-205" font-family="Helvetica,sans-Serif" font-size="10.00">src/sensesp/signalk</text>
<text text-anchor="middle" x="63.5" y="-194" font-family="Helvetica,sans-Serif" font-size="10.00">/signalk_delta_queue.cpp</text>
</a>
</g>
</g>
<!-- Node2&#45;&gt;Node3 -->
<g id="edge2" class="edge">
<title>Node2&#45;&gt;Node3</title>
<path fill="none" stroke="#63b8ff" d="M203.86,-249.07C173.41,-239.07 135.99,-226.79 107.45,-217.43"/>
<polygon fill="#63b8ff" stroke="#63b8ff" points="202.71,-252.37 213.3,-252.17 204.89,-245.72 202.71,-252.37"/>
</g>
<!-- Node4 -->
<g id="node4" class="node">
<title>Node4</title>
<g id="a_node4"><a xlink:href="signalk__emitter_8cpp.html" target="_top" xlink:title=" ">
<polygon fill="white" stroke="#666666" points="249.5,-217 145.5,-217 145.5,-187 249.5,-187 249.5,-217"/>
<text text-anchor="start" x="153.5" y="-205" font-family="Helvetica,sans-Serif" font-size="10.00">src/sensesp/signalk</text>
<text text-anchor="middle" x="197.5" y="-194" font-family="Helvetica,sans-Serif" font-size="10.00">/signalk_emitter.cpp</text>
</a>
</g>
</g>
<!-- Node2&#45;&gt;Node4 -->
<g id="edge3" class="edge">
<title>Node2&#45;&gt;Node4</title>
<path fill="none" stroke="#63b8ff" d="M237.08,-244.53C228.41,-235.43 218.65,-225.19 211,-217.16"/>
<polygon fill="#63b8ff" stroke="#63b8ff" points="234.48,-246.88 243.92,-251.7 239.55,-242.05 234.48,-246.88"/>
</g>
<!-- Node5 -->
<g id="node5" class="node">
<title>Node5</title>
<g id="a_node5"><a xlink:href="signalk__output_8h.html" target="_top" xlink:title=" ">
<polygon fill="white" stroke="#666666" points="371.5,-217 267.5,-217 267.5,-187 371.5,-187 371.5,-217"/>
<text text-anchor="start" x="275.5" y="-205" font-family="Helvetica,sans-Serif" font-size="10.00">src/sensesp/signalk</text>
<text text-anchor="middle" x="319.5" y="-194" font-family="Helvetica,sans-Serif" font-size="10.00">/signalk_output.h</text>
</a>
</g>
</g>
<!-- Node2&#45;&gt;Node5 -->
<g id="edge4" class="edge">
<title>Node2&#45;&gt;Node5</title>
<path fill="none" stroke="#63b8ff" d="M279.92,-244.53C288.59,-235.43 298.35,-225.19 306,-217.16"/>
<polygon fill="#63b8ff" stroke="#63b8ff" points="277.45,-242.05 273.08,-251.7 282.52,-246.88 277.45,-242.05"/>
</g>
<!-- Node13 -->
<g id="node13" class="node">
<title>Node13</title>
<g id="a_node13"><a xlink:href="signalk__time_8h.html" target="_top" xlink:title=" ">
<polygon fill="white" stroke="#666666" points="554.5,-217 450.5,-217 450.5,-187 554.5,-187 554.5,-217"/>
<text text-anchor="start" x="458.5" y="-205" font-family="Helvetica,sans-Serif" font-size="10.00">src/sensesp/signalk</text>
<text text-anchor="middle" x="502.5" y="-194" font-family="Helvetica,sans-Serif" font-size="10.00">/signalk_time.h</text>
</a>
</g>
</g>
<!-- Node2&#45;&gt;Node13 -->
<g id="edge12" class="edge">
<title>Node2&#45;&gt;Node13</title>
<path fill="none" stroke="#63b8ff" d="M321.79,-250.4C361.71,-239.93 412.63,-226.57 450.24,-216.71"/>
<polygon fill="#63b8ff" stroke="#63b8ff" points="321.09,-246.96 312.31,-252.89 322.87,-253.73 321.09,-246.96"/>
</g>
<!-- Node6 -->
<g id="node6" class="node">
<title>Node6</title>
<g id="a_node6"><a xlink:href="system__info_8h.html" target="_top" xlink:title=" ">
<polygon fill="white" stroke="#666666" points="218,-151 111,-151 111,-121 218,-121 218,-151"/>
<text text-anchor="start" x="119" y="-139" font-family="Helvetica,sans-Serif" font-size="10.00">src/sensesp/sensors</text>
<text text-anchor="middle" x="164.5" y="-128" font-family="Helvetica,sans-Serif" font-size="10.00">/system_info.h</text>
</a>
</g>
</g>
<!-- Node5&#45;&gt;Node6 -->
<g id="edge5" class="edge">
<title>Node5&#45;&gt;Node6</title>
<path fill="none" stroke="#63b8ff" d="M274.15,-182.27C250.31,-172.43 221.53,-160.55 199.44,-151.43"/>
<polygon fill="#63b8ff" stroke="#63b8ff" points="272.74,-185.48 283.32,-186.06 275.41,-179.01 272.74,-185.48"/>
</g>
<!-- Node10 -->
<g id="node10" class="node">
<title>Node10</title>
<g id="a_node10"><a xlink:href="signalk__output_8cpp.html" target="_top" xlink:title=" ">
<polygon fill="white" stroke="#666666" points="340.5,-151 236.5,-151 236.5,-121 340.5,-121 340.5,-151"/>
<text text-anchor="start" x="244.5" y="-139" font-family="Helvetica,sans-Serif" font-size="10.00">src/sensesp/signalk</text>
<text text-anchor="middle" x="288.5" y="-128" font-family="Helvetica,sans-Serif" font-size="10.00">/signalk_output.cpp</text>
</a>
</g>
</g>
<!-- Node5&#45;&gt;Node10 -->
<g id="edge9" class="edge">
<title>Node5&#45;&gt;Node10</title>
<path fill="none" stroke="#63b8ff" d="M307.65,-176.54C303.5,-167.96 298.97,-158.61 295.36,-151.16"/>
<polygon fill="#63b8ff" stroke="#63b8ff" points="304.45,-177.96 311.96,-185.43 310.75,-174.91 304.45,-177.96"/>
</g>
<!-- Node11 -->
<g id="node11" class="node">
<title>Node11</title>
<g id="a_node11"><a xlink:href="signalk__position_8h.html" target="_top" xlink:title=" ">
<polygon fill="white" stroke="#666666" points="462.5,-151 358.5,-151 358.5,-121 462.5,-121 462.5,-151"/>
<text text-anchor="start" x="366.5" y="-139" font-family="Helvetica,sans-Serif" font-size="10.00">src/sensesp/signalk</text>
<text text-anchor="middle" x="410.5" y="-128" font-family="Helvetica,sans-Serif" font-size="10.00">/signalk_position.h</text>
</a>
</g>
</g>
<!-- Node5&#45;&gt;Node11 -->
<g id="edge10" class="edge">
<title>Node5&#45;&gt;Node11</title>
<path fill="none" stroke="#63b8ff" d="M349,-180.25C362.41,-170.82 377.95,-159.9 390.05,-151.39"/>
<polygon fill="#63b8ff" stroke="#63b8ff" points="347.1,-177.31 340.93,-185.93 351.13,-183.04 347.1,-177.31"/>
</g>
<!-- Node7 -->
<g id="node7" class="node">
<title>Node7</title>
<g id="a_node7"><a xlink:href="system__info_8cpp.html" target="_top" xlink:title=" ">
<polygon fill="white" stroke="#666666" points="134,-85 27,-85 27,-55 134,-55 134,-85"/>
<text text-anchor="start" x="35" y="-73" font-family="Helvetica,sans-Serif" font-size="10.00">src/sensesp/sensors</text>
<text text-anchor="middle" x="80.5" y="-62" font-family="Helvetica,sans-Serif" font-size="10.00">/system_info.cpp</text>
</a>
</g>
</g>
<!-- Node6&#45;&gt;Node7 -->
<g id="edge6" class="edge">
<title>Node6&#45;&gt;Node7</title>
<path fill="none" stroke="#63b8ff" d="M136.9,-113.97C124.61,-104.61 110.44,-93.81 99.38,-85.39"/>
<polygon fill="#63b8ff" stroke="#63b8ff" points="134.58,-116.6 144.65,-119.88 138.82,-111.03 134.58,-116.6"/>
</g>
<!-- Node8 -->
<g id="node8" class="node">
<title>Node8</title>
<g id="a_node8"><a xlink:href="sensesp__app__builder_8h.html" target="_top" xlink:title=" ">
<polygon fill="white" stroke="#666666" points="284.5,-79.5 152.5,-79.5 152.5,-60.5 284.5,-60.5 284.5,-79.5"/>
<text text-anchor="middle" x="218.5" y="-67.5" font-family="Helvetica,sans-Serif" font-size="10.00">src/sensesp_app_builder.h</text>
</a>
</g>
</g>
<!-- Node6&#45;&gt;Node8 -->
<g id="edge7" class="edge">
<title>Node6&#45;&gt;Node8</title>
<path fill="none" stroke="#63b8ff" d="M183.67,-112.28C193.13,-101.07 203.99,-88.19 211.04,-79.84"/>
<polygon fill="#63b8ff" stroke="#63b8ff" points="181.23,-109.74 177.46,-119.64 186.58,-114.25 181.23,-109.74"/>
</g>
<!-- Node9 -->
<g id="node9" class="node">
<title>Node9</title>
<g id="a_node9"><a xlink:href="main_8cpp.html" target="_top" xlink:title=" ">
<polygon fill="white" stroke="#666666" points="255,-19 182,-19 182,0 255,0 255,-19"/>
<text text-anchor="middle" x="218.5" y="-7" font-family="Helvetica,sans-Serif" font-size="10.00">src/main.cpp</text>
</a>
</g>
</g>
<!-- Node8&#45;&gt;Node9 -->
<g id="edge8" class="edge">
<title>Node8&#45;&gt;Node9</title>
<path fill="none" stroke="#63b8ff" d="M218.5,-49.16C218.5,-38.95 218.5,-27.04 218.5,-19.17"/>
<polygon fill="#63b8ff" stroke="#63b8ff" points="215,-48.85 218.5,-58.85 222,-48.85 215,-48.85"/>
</g>
<!-- Node12 -->
<g id="node12" class="node">
<title>Node12</title>
<g id="a_node12"><a xlink:href="signalk__position_8cpp.html" target="_top" xlink:title=" ">
<polygon fill="white" stroke="#666666" points="464.5,-85 356.5,-85 356.5,-55 464.5,-55 464.5,-85"/>
<text text-anchor="start" x="364.5" y="-73" font-family="Helvetica,sans-Serif" font-size="10.00">src/sensesp/signalk</text>
<text text-anchor="middle" x="410.5" y="-62" font-family="Helvetica,sans-Serif" font-size="10.00">/signalk_position.cpp</text>
</a>
</g>
</g>
<!-- Node11&#45;&gt;Node12 -->
<g id="edge11" class="edge">
<title>Node11&#45;&gt;Node12</title>
<path fill="none" stroke="#63b8ff" d="M410.5,-109.39C410.5,-101.13 410.5,-92.28 410.5,-85.16"/>
<polygon fill="#63b8ff" stroke="#63b8ff" points="407,-109.28 410.5,-119.28 414,-109.28 407,-109.28"/>
</g>
<!-- Node14 -->
<g id="node14" class="node">
<title>Node14</title>
<g id="a_node14"><a xlink:href="signalk__time_8cpp.html" target="_top" xlink:title=" ">
<polygon fill="white" stroke="#666666" points="584.5,-151 480.5,-151 480.5,-121 584.5,-121 584.5,-151"/>
<text text-anchor="start" x="488.5" y="-139" font-family="Helvetica,sans-Serif" font-size="10.00">src/sensesp/signalk</text>
<text text-anchor="middle" x="532.5" y="-128" font-family="Helvetica,sans-Serif" font-size="10.00">/signalk_time.cpp</text>
</a>
</g>
</g>
<!-- Node13&#45;&gt;Node14 -->
<g id="edge13" class="edge">
<title>Node13&#45;&gt;Node14</title>
<path fill="none" stroke="#63b8ff" d="M513.97,-176.54C517.99,-167.96 522.37,-158.61 525.86,-151.16"/>
<polygon fill="#63b8ff" stroke="#63b8ff" points="510.88,-174.89 509.8,-185.43 517.21,-177.86 510.88,-174.89"/>
</g>
</g>
</svg>
