<?xml version="1.0" encoding="UTF-8" standalone="no"?>
<!DOCTYPE svg PUBLIC "-//W3C//DTD SVG 1.1//EN"
 "http://www.w3.org/Graphics/SVG/1.1/DTD/svg11.dtd">
<!-- Generated by graphviz version 5.0.0 (20220707.1540)
 -->
<!-- Title: src/sensesp/signalk/signalk_put_request_listener.cpp Pages: 1 -->
<!--zoomable 408 -->
<svg id="main" version="1.1" xmlns="http://www.w3.org/2000/svg" xmlns:xlink="http://www.w3.org/1999/xlink" xml:space="preserve" onload="init(evt)">
<style type="text/css"><![CDATA[
.edge:hover path { stroke: red; }
.edge:hover polygon { stroke: red; fill: red; }
]]></style>
<script type="text/javascript"><![CDATA[
var edges = document.getElementsByTagName('g');
if (edges && edges.length) {
  for (var i=0;i<edges.length;i++) {
    if (edges[i].id.substr(0,4)=='edge') {
      edges[i].setAttribute('class','edge');
    }
  }
}
]]></script>
        <defs>
                <circle id="rim" cx="0" cy="0" r="7"/>
                <circle id="rim2" cx="0" cy="0" r="3.5"/>
                <g id="zoomPlus">
                        <use xlink:href="#rim" fill="#404040">
                                <set attributeName="fill" to="#808080" begin="zoomplus.mouseover" end="zoomplus.mouseout"/>
                        </use>
                        <path d="M-4,0h8M0,-4v8" fill="none" stroke="white" stroke-width="1.5" pointer-events="none"/>
                </g>
                <g id="zoomMin">
                        <use xlink:href="#rim" fill="#404040">
                                <set attributeName="fill" to="#808080" begin="zoomminus.mouseover" end="zoomminus.mouseout"/>
                        </use>
                        <path d="M-4,0h8" fill="none" stroke="white" stroke-width="1.5" pointer-events="none"/>
                </g>
                <g id="dirArrow">
                        <path fill="none" stroke="white" stroke-width="1.5" d="M0,-3.0v7 M-2.5,-0.5L0,-3.0L2.5,-0.5"/>
                </g>
               <g id="resetDef">
                       <use xlink:href="#rim2" fill="#404040">
                               <set attributeName="fill" to="#808080" begin="reset.mouseover" end="reset.mouseout"/>
                       </use>
               </g>
        </defs>

<script type="text/javascript">
var viewWidth = 593;
var viewHeight = 408;
var sectionId = 'dynsection-0';
</script>
<script xlink:href="svgpan.js"/>
<svg id="graph" class="graph">
<g id="viewport">
<title>src/sensesp/signalk/signalk_put_request_listener.cpp</title>
<polygon fill="white" stroke="transparent" points="-4,4 -4,-404 589,-404 589,4 -4,4"/>
<!-- Node1 -->
<g id="node1" class="node">
<title>Node1</title>
<g id="a_node1"><a xlink:title=" ">
<polygon fill="#bfbfbf" stroke="black" points="145.5,-358.5 145.5,-399.5 252.5,-399.5 252.5,-358.5 145.5,-358.5"/>
<text text-anchor="start" x="153.5" y="-387.5" font-family="Helvetica,sans-Serif" font-size="10.00">src/sensesp/signalk</text>
<text text-anchor="start" x="153.5" y="-376.5" font-family="Helvetica,sans-Serif" font-size="10.00">/signalk_put_request</text>
<text text-anchor="middle" x="199" y="-365.5" font-family="Helvetica,sans-Serif" font-size="10.00">_listener.cpp</text>
</a>
</g>
</g>
<!-- Node2 -->
<g id="node2" class="node">
<title>Node2</title>
<g id="a_node2"><a xlink:href="signalk__put__request__listener_8h.html" target="_top" xlink:title=" ">
<polygon fill="white" stroke="black" points="147,-291.5 147,-321.5 251,-321.5 251,-291.5 147,-291.5"/>
<text text-anchor="start" x="155" y="-309.5" font-family="Helvetica,sans-Serif" font-size="10.00">signalk_put_request</text>
<text text-anchor="middle" x="199" y="-298.5" font-family="Helvetica,sans-Serif" font-size="10.00">_listener.h</text>
</a>
</g>
</g>
<!-- Node1&#45;&gt;Node2 -->
<g id="edge1" class="edge">
<title>Node1&#45;&gt;Node2</title>
<path fill="none" stroke="midnightblue" d="M199,-358.36C199,-350.23 199,-340.7 199,-332.11"/>
<polygon fill="midnightblue" stroke="midnightblue" points="202.5,-331.89 199,-321.89 195.5,-331.89 202.5,-331.89"/>
</g>
<!-- Node3 -->
<g id="node3" class="node">
<title>Node3</title>
<g id="a_node3"><a xlink:title=" ">
<polygon fill="white" stroke="#bfbfbf" points="133.5,-123.5 133.5,-142.5 212.5,-142.5 212.5,-123.5 133.5,-123.5"/>
<text text-anchor="middle" x="173" y="-130.5" font-family="Helvetica,sans-Serif" font-size="10.00">ArduinoJson.h</text>
</a>
</g>
</g>
<!-- Node2&#45;&gt;Node3 -->
<g id="edge2" class="edge">
<title>Node2&#45;&gt;Node3</title>
<path fill="none" stroke="midnightblue" d="M196.87,-291.47C192.21,-260.7 181.08,-187.33 175.84,-152.7"/>
<polygon fill="midnightblue" stroke="midnightblue" points="179.26,-151.92 174.3,-142.56 172.34,-152.97 179.26,-151.92"/>
</g>
<!-- Node4 -->
<g id="node4" class="node">
<title>Node4</title>
<g id="a_node4"><a xlink:title=" ">
<polygon fill="white" stroke="#bfbfbf" points="122,-235.5 122,-254.5 152,-254.5 152,-235.5 122,-235.5"/>
<text text-anchor="middle" x="137" y="-242.5" font-family="Helvetica,sans-Serif" font-size="10.00">set</text>
</a>
</g>
</g>
<!-- Node2&#45;&gt;Node4 -->
<g id="edge3" class="edge">
<title>Node2&#45;&gt;Node4</title>
<path fill="none" stroke="midnightblue" d="M184.31,-291.4C175.02,-282.49 163,-270.95 153.4,-261.74"/>
<polygon fill="midnightblue" stroke="midnightblue" points="155.66,-259.06 146.02,-254.66 150.81,-264.11 155.66,-259.06"/>
</g>
<!-- Node5 -->
<g id="node5" class="node">
<title>Node5</title>
<g id="a_node5"><a xlink:href="sensesp_8h.html" target="_top" xlink:title=" ">
<polygon fill="white" stroke="black" points="231,-123.5 231,-142.5 293,-142.5 293,-123.5 231,-123.5"/>
<text text-anchor="middle" x="262" y="-130.5" font-family="Helvetica,sans-Serif" font-size="10.00">sensesp.h</text>
</a>
</g>
</g>
<!-- Node2&#45;&gt;Node5 -->
<g id="edge4" class="edge">
<title>Node2&#45;&gt;Node5</title>
<path fill="none" stroke="midnightblue" d="M204.16,-291.47C215.5,-260.57 242.64,-186.69 255.3,-152.25"/>
<polygon fill="midnightblue" stroke="midnightblue" points="258.69,-153.15 258.86,-142.56 252.12,-150.74 258.69,-153.15"/>
</g>
<!-- Node10 -->
<g id="node10" class="node">
<title>Node10</title>
<g id="a_node10"><a xlink:href="configurable_8h.html" target="_top" xlink:title=" ">
<polygon fill="white" stroke="black" points="0,-179.5 0,-198.5 152,-198.5 152,-179.5 0,-179.5"/>
<text text-anchor="middle" x="76" y="-186.5" font-family="Helvetica,sans-Serif" font-size="10.00">sensesp/system/configurable.h</text>
</a>
</g>
</g>
<!-- Node2&#45;&gt;Node10 -->
<g id="edge9" class="edge">
<title>Node2&#45;&gt;Node10</title>
<path fill="none" stroke="midnightblue" d="M166.43,-291.47C149.06,-282.81 128.2,-270.41 113,-255 99.77,-241.59 89.66,-222.52 83.37,-208.5"/>
<polygon fill="midnightblue" stroke="midnightblue" points="86.45,-206.78 79.33,-198.94 80,-209.51 86.45,-206.78"/>
</g>
<!-- Node12 -->
<g id="node12" class="node">
<title>Node12</title>
<g id="a_node12"><a xlink:href="observable_8h.html" target="_top" xlink:title=" ">
<polygon fill="white" stroke="black" points="392.5,-179.5 392.5,-198.5 539.5,-198.5 539.5,-179.5 392.5,-179.5"/>
<text text-anchor="middle" x="466" y="-186.5" font-family="Helvetica,sans-Serif" font-size="10.00">sensesp/system/observable.h</text>
</a>
</g>
</g>
<!-- Node2&#45;&gt;Node12 -->
<g id="edge13" class="edge">
<title>Node2&#45;&gt;Node12</title>
<path fill="none" stroke="midnightblue" d="M251.04,-303.19C297.56,-298.96 365.91,-287.24 416,-255 434.27,-243.24 448.52,-222.41 457.06,-207.5"/>
<polygon fill="midnightblue" stroke="midnightblue" points="460.13,-209.17 461.82,-198.71 453.98,-205.83 460.13,-209.17"/>
</g>
<!-- Node16 -->
<g id="node16" class="node">
<title>Node16</title>
<g id="a_node16"><a xlink:href="valueproducer_8h.html" target="_top" xlink:title=" ">
<polygon fill="white" stroke="black" points="247,-235.5 247,-254.5 407,-254.5 407,-235.5 247,-235.5"/>
<text text-anchor="middle" x="327" y="-242.5" font-family="Helvetica,sans-Serif" font-size="10.00">sensesp/system/valueproducer.h</text>
</a>
</g>
</g>
<!-- Node2&#45;&gt;Node16 -->
<g id="edge17" class="edge">
<title>Node2&#45;&gt;Node16</title>
<path fill="none" stroke="midnightblue" d="M229.33,-291.4C250.52,-281.55 278.59,-268.5 299.2,-258.92"/>
<polygon fill="midnightblue" stroke="midnightblue" points="300.78,-262.05 308.37,-254.66 297.83,-255.7 300.78,-262.05"/>
</g>
<!-- Node6 -->
<g id="node6" class="node">
<title>Node6</title>
<g id="a_node6"><a xlink:title=" ">
<polygon fill="white" stroke="#bfbfbf" points="227,-62 227,-81 297,-81 297,-62 227,-62"/>
<text text-anchor="middle" x="262" y="-69" font-family="Helvetica,sans-Serif" font-size="10.00">ReactESP.h</text>
</a>
</g>
</g>
<!-- Node5&#45;&gt;Node6 -->
<g id="edge5" class="edge">
<title>Node5&#45;&gt;Node6</title>
<path fill="none" stroke="midnightblue" d="M262,-123.48C262,-115.08 262,-101.98 262,-91.16"/>
<polygon fill="midnightblue" stroke="midnightblue" points="265.5,-91.01 262,-81.01 258.5,-91.01 265.5,-91.01"/>
</g>
<!-- Node7 -->
<g id="node7" class="node">
<title>Node7</title>
<g id="a_node7"><a xlink:href="local__debug_8h.html" target="_top" xlink:title=" ">
<polygon fill="white" stroke="black" points="89,-56.5 89,-86.5 201,-86.5 201,-56.5 89,-56.5"/>
<text text-anchor="start" x="97" y="-74.5" font-family="Helvetica,sans-Serif" font-size="10.00">sensesp/system/local</text>
<text text-anchor="middle" x="145" y="-63.5" font-family="Helvetica,sans-Serif" font-size="10.00">_debug.h</text>
</a>
</g>
</g>
<!-- Node5&#45;&gt;Node7 -->
<g id="edge6" class="edge">
<title>Node5&#45;&gt;Node7</title>
<path fill="none" stroke="midnightblue" d="M245.24,-123.48C228.72,-115.08 202.95,-101.97 181.68,-91.15"/>
<polygon fill="midnightblue" stroke="midnightblue" points="183.07,-87.94 172.57,-86.52 179.9,-94.18 183.07,-87.94"/>
</g>
<!-- Node8 -->
<g id="node8" class="node">
<title>Node8</title>
<g id="a_node8"><a xlink:title=" ">
<polygon fill="white" stroke="#bfbfbf" points="31,-0.5 31,-19.5 89,-19.5 89,-0.5 31,-0.5"/>
<text text-anchor="middle" x="60" y="-7.5" font-family="Helvetica,sans-Serif" font-size="10.00">Arduino.h</text>
</a>
</g>
</g>
<!-- Node7&#45;&gt;Node8 -->
<g id="edge7" class="edge">
<title>Node7&#45;&gt;Node8</title>
<path fill="none" stroke="midnightblue" d="M124.86,-56.4C111.61,-47.13 94.32,-35.03 80.92,-25.65"/>
<polygon fill="midnightblue" stroke="midnightblue" points="82.57,-22.53 72.37,-19.66 78.55,-28.26 82.57,-22.53"/>
</g>
<!-- Node9 -->
<g id="node9" class="node">
<title>Node9</title>
<g id="a_node9"><a xlink:title=" ">
<polygon fill="white" stroke="#bfbfbf" points="122.5,-0.5 122.5,-19.5 167.5,-19.5 167.5,-0.5 122.5,-0.5"/>
<text text-anchor="middle" x="145" y="-7.5" font-family="Helvetica,sans-Serif" font-size="10.00">Print.h</text>
</a>
</g>
</g>
<!-- Node7&#45;&gt;Node9 -->
<g id="edge8" class="edge">
<title>Node7&#45;&gt;Node9</title>
<path fill="none" stroke="midnightblue" d="M145,-56.4C145,-48.47 145,-38.46 145,-29.86"/>
<polygon fill="midnightblue" stroke="midnightblue" points="148.5,-29.66 145,-19.66 141.5,-29.66 148.5,-29.66"/>
</g>
<!-- Node10&#45;&gt;Node3 -->
<g id="edge10" class="edge">
<title>Node10&#45;&gt;Node3</title>
<path fill="none" stroke="midnightblue" d="M91.58,-179.32C107,-170.74 130.81,-157.49 148.71,-147.52"/>
<polygon fill="midnightblue" stroke="midnightblue" points="150.42,-150.58 157.45,-142.65 147.01,-144.46 150.42,-150.58"/>
</g>
<!-- Node10&#45;&gt;Node8 -->
<g id="edge12" class="edge">
<title>Node10&#45;&gt;Node8</title>
<path fill="none" stroke="midnightblue" d="M74.97,-179.38C73.91,-170.33 72.23,-155.67 71,-143 67.08,-102.71 63.35,-55.41 61.4,-29.8"/>
<polygon fill="midnightblue" stroke="midnightblue" points="64.88,-29.36 60.64,-19.66 57.9,-29.89 64.88,-29.36"/>
</g>
<!-- Node11 -->
<g id="node11" class="node">
<title>Node11</title>
<g id="a_node11"><a xlink:title=" ">
<polygon fill="white" stroke="#bfbfbf" points="80.5,-123.5 80.5,-142.5 115.5,-142.5 115.5,-123.5 80.5,-123.5"/>
<text text-anchor="middle" x="98" y="-130.5" font-family="Helvetica,sans-Serif" font-size="10.00">map</text>
</a>
</g>
</g>
<!-- Node10&#45;&gt;Node11 -->
<g id="edge11" class="edge">
<title>Node10&#45;&gt;Node11</title>
<path fill="none" stroke="midnightblue" d="M79.63,-179.08C82.61,-171.77 86.93,-161.18 90.62,-152.1"/>
<polygon fill="midnightblue" stroke="midnightblue" points="93.9,-153.33 94.43,-142.75 87.42,-150.69 93.9,-153.33"/>
</g>
<!-- Node13 -->
<g id="node13" class="node">
<title>Node13</title>
<g id="a_node13"><a xlink:title=" ">
<polygon fill="white" stroke="#bfbfbf" points="378.5,-123.5 378.5,-142.5 445.5,-142.5 445.5,-123.5 378.5,-123.5"/>
<text text-anchor="middle" x="412" y="-130.5" font-family="Helvetica,sans-Serif" font-size="10.00">forward_list</text>
</a>
</g>
</g>
<!-- Node12&#45;&gt;Node13 -->
<g id="edge14" class="edge">
<title>Node12&#45;&gt;Node13</title>
<path fill="none" stroke="midnightblue" d="M457.08,-179.08C449.22,-171.22 437.57,-159.57 428.08,-150.08"/>
<polygon fill="midnightblue" stroke="midnightblue" points="430.3,-147.35 420.75,-142.75 425.35,-152.3 430.3,-147.35"/>
</g>
<!-- Node14 -->
<g id="node14" class="node">
<title>Node14</title>
<g id="a_node14"><a xlink:title=" ">
<polygon fill="white" stroke="#bfbfbf" points="463.5,-123.5 463.5,-142.5 522.5,-142.5 522.5,-123.5 463.5,-123.5"/>
<text text-anchor="middle" x="493" y="-130.5" font-family="Helvetica,sans-Serif" font-size="10.00">functional</text>
</a>
</g>
</g>
<!-- Node12&#45;&gt;Node14 -->
<g id="edge15" class="edge">
<title>Node12&#45;&gt;Node14</title>
<path fill="none" stroke="midnightblue" d="M470.46,-179.08C474.15,-171.69 479.52,-160.95 484.09,-151.81"/>
<polygon fill="midnightblue" stroke="midnightblue" points="487.28,-153.26 488.62,-142.75 481.02,-150.13 487.28,-153.26"/>
</g>
<!-- Node15 -->
<g id="node15" class="node">
<title>Node15</title>
<g id="a_node15"><a xlink:title=" ">
<polygon fill="white" stroke="#bfbfbf" points="541,-123.5 541,-142.5 585,-142.5 585,-123.5 541,-123.5"/>
<text text-anchor="middle" x="563" y="-130.5" font-family="Helvetica,sans-Serif" font-size="10.00">vector</text>
</a>
</g>
</g>
<!-- Node12&#45;&gt;Node15 -->
<g id="edge16" class="edge">
<title>Node12&#45;&gt;Node15</title>
<path fill="none" stroke="midnightblue" d="M481.58,-179.32C497,-170.74 520.81,-157.49 538.71,-147.52"/>
<polygon fill="midnightblue" stroke="midnightblue" points="540.42,-150.58 547.45,-142.65 537.01,-144.46 540.42,-150.58"/>
</g>
<!-- Node16&#45;&gt;Node3 -->
<g id="edge18" class="edge">
<title>Node16&#45;&gt;Node3</title>
<path fill="none" stroke="midnightblue" d="M314.92,-235.37C288.6,-216.57 225.88,-171.77 193.35,-148.53"/>
<polygon fill="midnightblue" stroke="midnightblue" points="195.2,-145.56 185.03,-142.59 191.13,-151.25 195.2,-145.56"/>
</g>
<!-- Node16&#45;&gt;Node12 -->
<g id="edge19" class="edge">
<title>Node16&#45;&gt;Node12</title>
<path fill="none" stroke="midnightblue" d="M349.02,-235.44C372.1,-226.48 408.56,-212.31 434.64,-202.18"/>
<polygon fill="midnightblue" stroke="midnightblue" points="436.02,-205.4 444.08,-198.52 433.49,-198.88 436.02,-205.4"/>
</g>
<!-- Node17 -->
<g id="node17" class="node">
<title>Node17</title>
<g id="a_node17"><a xlink:href="valueconsumer_8h.html" target="_top" xlink:title=" ">
<polygon fill="white" stroke="black" points="284,-179.5 284,-198.5 374,-198.5 374,-179.5 284,-179.5"/>
<text text-anchor="middle" x="329" y="-186.5" font-family="Helvetica,sans-Serif" font-size="10.00">valueconsumer.h</text>
</a>
</g>
</g>
<!-- Node16&#45;&gt;Node17 -->
<g id="edge20" class="edge">
<title>Node16&#45;&gt;Node17</title>
<path fill="none" stroke="midnightblue" d="M327.33,-235.08C327.59,-228.01 327.97,-217.86 328.3,-208.99"/>
<polygon fill="midnightblue" stroke="midnightblue" points="331.8,-208.87 328.68,-198.75 324.81,-208.61 331.8,-208.87"/>
</g>
<!-- Node17&#45;&gt;Node3 -->
<g id="edge21" class="edge">
<title>Node17&#45;&gt;Node3</title>
<path fill="none" stroke="midnightblue" d="M304.28,-179.44C278.15,-170.4 236.74,-156.06 207.42,-145.92"/>
<polygon fill="midnightblue" stroke="midnightblue" points="208.2,-142.48 197.6,-142.52 205.91,-149.1 208.2,-142.48"/>
</g>
<!-- Node17&#45;&gt;Node5 -->
<g id="edge23" class="edge">
<title>Node17&#45;&gt;Node5</title>
<path fill="none" stroke="midnightblue" d="M318.24,-179.32C308.23,-171.26 293.11,-159.08 281.07,-149.37"/>
<polygon fill="midnightblue" stroke="midnightblue" points="282.94,-146.38 272.96,-142.83 278.55,-151.83 282.94,-146.38"/>
</g>
<!-- Node18 -->
<g id="node18" class="node">
<title>Node18</title>
<g id="a_node18"><a xlink:title=" ">
<polygon fill="white" stroke="#bfbfbf" points="311.5,-123.5 311.5,-142.5 360.5,-142.5 360.5,-123.5 311.5,-123.5"/>
<text text-anchor="middle" x="336" y="-130.5" font-family="Helvetica,sans-Serif" font-size="10.00">stdint.h</text>
</a>
</g>
</g>
<!-- Node17&#45;&gt;Node18 -->
<g id="edge22" class="edge">
<title>Node17&#45;&gt;Node18</title>
<path fill="none" stroke="midnightblue" d="M330.16,-179.08C331.08,-171.93 332.42,-161.64 333.58,-152.69"/>
<polygon fill="midnightblue" stroke="midnightblue" points="337.05,-153.12 334.87,-142.75 330.11,-152.22 337.05,-153.12"/>
</g>
</g>
</svg>
        <g id="navigator" transform="translate(0 0)" fill="#404254">
                <rect fill="#f2f5e9" fill-opacity="0.5" stroke="#606060" stroke-width=".5" x="0" y="0" width="60" height="60"/>
                <use id="zoomplus" xlink:href="#zoomPlus" x="17" y="9" onmousedown="handleZoom(evt,'in')"/>
                <use id="zoomminus" xlink:href="#zoomMin" x="42" y="9" onmousedown="handleZoom(evt,'out')"/>
                <use id="reset" xlink:href="#resetDef" x="30" y="36" onmousedown="handleReset()"/>
                <g id="arrowUp" xlink:href="#dirArrow" transform="translate(30 24)" onmousedown="handlePan(0,-1)">
                  <use xlink:href="#rim" fill="#404040">
                        <set attributeName="fill" to="#808080" begin="arrowUp.mouseover" end="arrowUp.mouseout"/>
                  </use>
                  <path fill="none" stroke="white" stroke-width="1.5" d="M0,-3.0v7 M-2.5,-0.5L0,-3.0L2.5,-0.5"/>
                </g>
                <g id="arrowRight" xlink:href="#dirArrow" transform="rotate(90) translate(36 -43)" onmousedown="handlePan(1,0)">
                  <use xlink:href="#rim" fill="#404040">
                        <set attributeName="fill" to="#808080" begin="arrowRight.mouseover" end="arrowRight.mouseout"/>
                  </use>
                  <path fill="none" stroke="white" stroke-width="1.5" d="M0,-3.0v7 M-2.5,-0.5L0,-3.0L2.5,-0.5"/>
                </g>
                <g id="arrowDown" xlink:href="#dirArrow" transform="rotate(180) translate(-30 -48)" onmousedown="handlePan(0,1)">
                  <use xlink:href="#rim" fill="#404040">
                        <set attributeName="fill" to="#808080" begin="arrowDown.mouseover" end="arrowDown.mouseout"/>
                  </use>
                  <path fill="none" stroke="white" stroke-width="1.5" d="M0,-3.0v7 M-2.5,-0.5L0,-3.0L2.5,-0.5"/>
                </g>
                <g id="arrowLeft" xlink:href="#dirArrow" transform="rotate(270) translate(-36 17)" onmousedown="handlePan(-1,0)">
                  <use xlink:href="#rim" fill="#404040">
                        <set attributeName="fill" to="#808080" begin="arrowLeft.mouseover" end="arrowLeft.mouseout"/>
                  </use>
                  <path fill="none" stroke="white" stroke-width="1.5" d="M0,-3.0v7 M-2.5,-0.5L0,-3.0L2.5,-0.5"/>
                </g>
        </g>
        <svg viewBox="0 0 15 15" width="100%" height="30px" preserveAspectRatio="xMaxYMin meet">
         <g id="arrow_out" transform="scale(0.3 0.3)">
          <a xlink:href="signalk__put__request__listener_8cpp__incl_org.svg" target="_base">
           <rect id="button" ry="5" rx="5" y="6" x="6" height="38" width="38"
                fill="#f2f5e9" fill-opacity="0.5" stroke="#606060" stroke-width="1.0"/>
           <path id="arrow"
             d="M 11.500037,31.436501 C 11.940474,20.09759 22.043105,11.32322 32.158766,21.979434 L 37.068811,17.246167 C 37.068811,17.246167 37.088388,32 37.088388,32 L 22.160133,31.978069 C 22.160133,31.978069 26.997745,27.140456 26.997745,27.140456 C 18.528582,18.264221 13.291696,25.230495 11.500037,31.436501 z"
             style="fill:#404040;"/>
          </a>
         </g>
        </svg>
</svg>
