<?xml version="1.0" encoding="UTF-8" standalone="no"?>
<!DOCTYPE svg PUBLIC "-//W3C//DTD SVG 1.1//EN"
 "http://www.w3.org/Graphics/SVG/1.1/DTD/svg11.dtd">
<!-- Generated by graphviz version 2.44.1 (20200629.0846)
 -->
<!-- Title: src/signalk/signalk_listener.cpp Pages: 1 -->
<svg width="629pt" height="319pt"
 viewBox="0.00 0.00 628.50 319.00" xmlns="http://www.w3.org/2000/svg" xmlns:xlink="http://www.w3.org/1999/xlink">
<g id="graph0" class="graph" transform="scale(1 1) rotate(0) translate(4 315)">
<title>src/signalk/signalk_listener.cpp</title>
<polygon fill="white" stroke="transparent" points="-4,4 -4,-315 624.5,-315 624.5,4 -4,4"/>
<!-- Node0 -->
<g id="node1" class="node">
<title>Node0</title>
<g id="a_node1"><a xlink:title=" ">
<polygon fill="#bfbfbf" stroke="black" points="235,-280.5 235,-310.5 333,-310.5 333,-280.5 235,-280.5"/>
<text text-anchor="start" x="243" y="-298.5" font-family="Helvetica,sans-Serif" font-size="10.00">src/signalk/signalk</text>
<text text-anchor="middle" x="284" y="-287.5" font-family="Helvetica,sans-Serif" font-size="10.00">_listener.cpp</text>
</a>
</g>
</g>
<!-- Node1 -->
<g id="node2" class="node">
<title>Node1</title>
<g id="a_node2"><a xlink:href="signalk__listener_8h.html" target="_top" xlink:title=" ">
<polygon fill="white" stroke="black" points="238,-224.5 238,-243.5 330,-243.5 330,-224.5 238,-224.5"/>
<text text-anchor="middle" x="284" y="-231.5" font-family="Helvetica,sans-Serif" font-size="10.00">signalk_listener.h</text>
</a>
</g>
</g>
<!-- Node0&#45;&gt;Node1 -->
<g id="edge1" class="edge">
<title>Node0&#45;&gt;Node1</title>
<path fill="none" stroke="midnightblue" d="M284,-280.4C284,-272.47 284,-262.46 284,-253.86"/>
<polygon fill="midnightblue" stroke="midnightblue" points="287.5,-253.66 284,-243.66 280.5,-253.66 287.5,-253.66"/>
</g>
<!-- Node2 -->
<g id="node3" class="node">
<title>Node2</title>
<g id="a_node3"><a xlink:title=" ">
<polygon fill="white" stroke="#bfbfbf" points="162.5,-56.5 162.5,-75.5 241.5,-75.5 241.5,-56.5 162.5,-56.5"/>
<text text-anchor="middle" x="202" y="-63.5" font-family="Helvetica,sans-Serif" font-size="10.00">ArduinoJson.h</text>
</a>
</g>
</g>
<!-- Node1&#45;&gt;Node2 -->
<g id="edge2" class="edge">
<title>Node1&#45;&gt;Node2</title>
<path fill="none" stroke="midnightblue" d="M261.45,-224.48C245.68,-217.27 225.61,-205.31 215,-188 195.56,-156.29 196.71,-110.97 199.32,-85.76"/>
<polygon fill="midnightblue" stroke="midnightblue" points="202.81,-86.06 200.56,-75.71 195.86,-85.21 202.81,-86.06"/>
</g>
<!-- Node3 -->
<g id="node4" class="node">
<title>Node3</title>
<g id="a_node4"><a xlink:title=" ">
<polygon fill="white" stroke="#bfbfbf" points="438,-168.5 438,-187.5 468,-187.5 468,-168.5 438,-168.5"/>
<text text-anchor="middle" x="453" y="-175.5" font-family="Helvetica,sans-Serif" font-size="10.00">set</text>
</a>
</g>
</g>
<!-- Node1&#45;&gt;Node3 -->
<g id="edge3" class="edge">
<title>Node1&#45;&gt;Node3</title>
<path fill="none" stroke="midnightblue" d="M310.78,-224.44C343.06,-214.13 396.86,-196.94 428.22,-186.92"/>
<polygon fill="midnightblue" stroke="midnightblue" points="429.47,-190.19 437.93,-183.82 427.34,-183.53 429.47,-190.19"/>
</g>
<!-- Node4 -->
<g id="node5" class="node">
<title>Node4</title>
<g id="a_node5"><a xlink:title=" ">
<polygon fill="white" stroke="#bfbfbf" points="0,-112.5 0,-131.5 58,-131.5 58,-112.5 0,-112.5"/>
<text text-anchor="middle" x="29" y="-119.5" font-family="Helvetica,sans-Serif" font-size="10.00">Arduino.h</text>
</a>
</g>
</g>
<!-- Node1&#45;&gt;Node4 -->
<g id="edge4" class="edge">
<title>Node1&#45;&gt;Node4</title>
<path fill="none" stroke="midnightblue" d="M237.92,-230.85C174.44,-226.88 64.88,-216.07 38,-188 26.56,-176.05 25.2,-156.75 26.17,-142.28"/>
<polygon fill="midnightblue" stroke="midnightblue" points="29.69,-142.26 27.29,-131.94 22.73,-141.5 29.69,-142.26"/>
</g>
<!-- Node5 -->
<g id="node6" class="node">
<title>Node5</title>
<g id="a_node6"><a xlink:href="sensesp_8h.html" target="_top" xlink:title=" ">
<polygon fill="white" stroke="black" points="334,-56.5 334,-75.5 396,-75.5 396,-56.5 334,-56.5"/>
<text text-anchor="middle" x="365" y="-63.5" font-family="Helvetica,sans-Serif" font-size="10.00">sensesp.h</text>
</a>
</g>
</g>
<!-- Node1&#45;&gt;Node5 -->
<g id="edge5" class="edge">
<title>Node1&#45;&gt;Node5</title>
<path fill="none" stroke="midnightblue" d="M306.92,-224.35C322.66,-217.14 342.53,-205.23 353,-188 372.29,-156.24 370.73,-110.94 367.87,-85.74"/>
<polygon fill="midnightblue" stroke="midnightblue" points="371.32,-85.15 366.53,-75.7 364.38,-86.08 371.32,-85.15"/>
</g>
<!-- Node8 -->
<g id="node9" class="node">
<title>Node8</title>
<g id="a_node9"><a xlink:href="configurable_8h.html" target="_top" xlink:title=" ">
<polygon fill="white" stroke="black" points="47.5,-168.5 47.5,-187.5 160.5,-187.5 160.5,-168.5 47.5,-168.5"/>
<text text-anchor="middle" x="104" y="-175.5" font-family="Helvetica,sans-Serif" font-size="10.00">system/configurable.h</text>
</a>
</g>
</g>
<!-- Node1&#45;&gt;Node8 -->
<g id="edge8" class="edge">
<title>Node1&#45;&gt;Node8</title>
<path fill="none" stroke="midnightblue" d="M255.48,-224.44C224.93,-215.28 176.29,-200.69 142.4,-190.52"/>
<polygon fill="midnightblue" stroke="midnightblue" points="142.97,-187.04 132.39,-187.52 140.96,-193.74 142.97,-187.04"/>
</g>
<!-- Node10 -->
<g id="node11" class="node">
<title>Node10</title>
<g id="a_node11"><a xlink:href="observable_8h.html" target="_top" xlink:title=" ">
<polygon fill="white" stroke="black" points="400.5,-112.5 400.5,-131.5 507.5,-131.5 507.5,-112.5 400.5,-112.5"/>
<text text-anchor="middle" x="454" y="-119.5" font-family="Helvetica,sans-Serif" font-size="10.00">system/observable.h</text>
</a>
</g>
</g>
<!-- Node1&#45;&gt;Node10 -->
<g id="edge12" class="edge">
<title>Node1&#45;&gt;Node10</title>
<path fill="none" stroke="midnightblue" d="M310,-224.39C331.4,-216.64 362.02,-204.03 386,-188 406.88,-174.04 427.22,-153.39 440.13,-139.13"/>
<polygon fill="midnightblue" stroke="midnightblue" points="442.81,-141.38 446.82,-131.57 437.57,-136.74 442.81,-141.38"/>
</g>
<!-- Node14 -->
<g id="node15" class="node">
<title>Node14</title>
<g id="a_node15"><a xlink:href="valueproducer_8h.html" target="_top" xlink:title=" ">
<polygon fill="white" stroke="black" points="224,-168.5 224,-187.5 344,-187.5 344,-168.5 224,-168.5"/>
<text text-anchor="middle" x="284" y="-175.5" font-family="Helvetica,sans-Serif" font-size="10.00">system/valueproducer.h</text>
</a>
</g>
</g>
<!-- Node1&#45;&gt;Node14 -->
<g id="edge16" class="edge">
<title>Node1&#45;&gt;Node14</title>
<path fill="none" stroke="midnightblue" d="M284,-224.08C284,-217.01 284,-206.86 284,-197.99"/>
<polygon fill="midnightblue" stroke="midnightblue" points="287.5,-197.75 284,-187.75 280.5,-197.75 287.5,-197.75"/>
</g>
<!-- Node6 -->
<g id="node7" class="node">
<title>Node6</title>
<g id="a_node7"><a xlink:title=" ">
<polygon fill="white" stroke="#bfbfbf" points="282,-0.5 282,-19.5 352,-19.5 352,-0.5 282,-0.5"/>
<text text-anchor="middle" x="317" y="-7.5" font-family="Helvetica,sans-Serif" font-size="10.00">ReactESP.h</text>
</a>
</g>
</g>
<!-- Node5&#45;&gt;Node6 -->
<g id="edge6" class="edge">
<title>Node5&#45;&gt;Node6</title>
<path fill="none" stroke="midnightblue" d="M357.07,-56.08C350.15,-48.3 339.93,-36.8 331.55,-27.37"/>
<polygon fill="midnightblue" stroke="midnightblue" points="334.04,-24.9 324.78,-19.75 328.81,-29.55 334.04,-24.9"/>
</g>
<!-- Node7 -->
<g id="node8" class="node">
<title>Node7</title>
<g id="a_node8"><a xlink:title=" ">
<polygon fill="white" stroke="#bfbfbf" points="370,-0.5 370,-19.5 458,-19.5 458,-0.5 370,-0.5"/>
<text text-anchor="middle" x="414" y="-7.5" font-family="Helvetica,sans-Serif" font-size="10.00">RemoteDebug.h</text>
</a>
</g>
</g>
<!-- Node5&#45;&gt;Node7 -->
<g id="edge7" class="edge">
<title>Node5&#45;&gt;Node7</title>
<path fill="none" stroke="midnightblue" d="M373.09,-56.08C380.16,-48.3 390.59,-36.8 399.15,-27.37"/>
<polygon fill="midnightblue" stroke="midnightblue" points="401.93,-29.51 406.06,-19.75 396.75,-24.8 401.93,-29.51"/>
</g>
<!-- Node8&#45;&gt;Node2 -->
<g id="edge9" class="edge">
<title>Node8&#45;&gt;Node2</title>
<path fill="none" stroke="midnightblue" d="M111.69,-168.37C128.01,-150.05 166.32,-107.05 187.42,-83.36"/>
<polygon fill="midnightblue" stroke="midnightblue" points="190.31,-85.39 194.35,-75.59 185.08,-80.73 190.31,-85.39"/>
</g>
<!-- Node8&#45;&gt;Node4 -->
<g id="edge11" class="edge">
<title>Node8&#45;&gt;Node4</title>
<path fill="none" stroke="midnightblue" d="M91.95,-168.32C80.54,-160.11 63.17,-147.6 49.57,-137.81"/>
<polygon fill="midnightblue" stroke="midnightblue" points="51.43,-134.84 41.27,-131.83 47.34,-140.52 51.43,-134.84"/>
</g>
<!-- Node9 -->
<g id="node10" class="node">
<title>Node9</title>
<g id="a_node10"><a xlink:title=" ">
<polygon fill="white" stroke="#bfbfbf" points="86.5,-112.5 86.5,-131.5 121.5,-131.5 121.5,-112.5 86.5,-112.5"/>
<text text-anchor="middle" x="104" y="-119.5" font-family="Helvetica,sans-Serif" font-size="10.00">map</text>
</a>
</g>
</g>
<!-- Node8&#45;&gt;Node9 -->
<g id="edge10" class="edge">
<title>Node8&#45;&gt;Node9</title>
<path fill="none" stroke="midnightblue" d="M104,-168.08C104,-161.01 104,-150.86 104,-141.99"/>
<polygon fill="midnightblue" stroke="midnightblue" points="107.5,-141.75 104,-131.75 100.5,-141.75 107.5,-141.75"/>
</g>
<!-- Node11 -->
<g id="node12" class="node">
<title>Node11</title>
<g id="a_node12"><a xlink:title=" ">
<polygon fill="white" stroke="#bfbfbf" points="476.5,-56.5 476.5,-75.5 543.5,-75.5 543.5,-56.5 476.5,-56.5"/>
<text text-anchor="middle" x="510" y="-63.5" font-family="Helvetica,sans-Serif" font-size="10.00">forward_list</text>
</a>
</g>
</g>
<!-- Node10&#45;&gt;Node11 -->
<g id="edge13" class="edge">
<title>Node10&#45;&gt;Node11</title>
<path fill="none" stroke="midnightblue" d="M463,-112.32C471.19,-104.42 483.51,-92.55 493.47,-82.94"/>
<polygon fill="midnightblue" stroke="midnightblue" points="496.07,-85.29 500.84,-75.83 491.21,-80.26 496.07,-85.29"/>
</g>
<!-- Node12 -->
<g id="node13" class="node">
<title>Node12</title>
<g id="a_node13"><a xlink:title=" ">
<polygon fill="white" stroke="#bfbfbf" points="561.5,-56.5 561.5,-75.5 620.5,-75.5 620.5,-56.5 561.5,-56.5"/>
<text text-anchor="middle" x="591" y="-63.5" font-family="Helvetica,sans-Serif" font-size="10.00">functional</text>
</a>
</g>
</g>
<!-- Node10&#45;&gt;Node12 -->
<g id="edge14" class="edge">
<title>Node10&#45;&gt;Node12</title>
<path fill="none" stroke="midnightblue" d="M475.71,-112.44C498.35,-103.52 534.07,-89.44 559.75,-79.32"/>
<polygon fill="midnightblue" stroke="midnightblue" points="561.37,-82.44 569.39,-75.52 558.81,-75.93 561.37,-82.44"/>
</g>
<!-- Node13 -->
<g id="node14" class="node">
<title>Node13</title>
<g id="a_node14"><a xlink:title=" ">
<polygon fill="white" stroke="#bfbfbf" points="414,-56.5 414,-75.5 458,-75.5 458,-56.5 414,-56.5"/>
<text text-anchor="middle" x="436" y="-63.5" font-family="Helvetica,sans-Serif" font-size="10.00">vector</text>
</a>
</g>
</g>
<!-- Node10&#45;&gt;Node13 -->
<g id="edge15" class="edge">
<title>Node10&#45;&gt;Node13</title>
<path fill="none" stroke="midnightblue" d="M451.03,-112.08C448.62,-104.85 445.14,-94.41 442.13,-85.4"/>
<polygon fill="midnightblue" stroke="midnightblue" points="445.4,-84.13 438.92,-75.75 438.76,-86.34 445.4,-84.13"/>
</g>
<!-- Node14&#45;&gt;Node2 -->
<g id="edge17" class="edge">
<title>Node14&#45;&gt;Node2</title>
<path fill="none" stroke="midnightblue" d="M275.88,-168.32C267.74,-159.46 255,-145.18 245,-132 233.15,-116.39 220.94,-97.64 212.58,-84.29"/>
<polygon fill="midnightblue" stroke="midnightblue" points="215.47,-82.31 207.23,-75.66 209.52,-86 215.47,-82.31"/>
</g>
<!-- Node14&#45;&gt;Node10 -->
<g id="edge18" class="edge">
<title>Node14&#45;&gt;Node10</title>
<path fill="none" stroke="midnightblue" d="M310.94,-168.44C339.66,-159.32 385.33,-144.81 417.32,-134.65"/>
<polygon fill="midnightblue" stroke="midnightblue" points="418.72,-137.88 427.19,-131.52 416.6,-131.21 418.72,-137.88"/>
</g>
<!-- Node15 -->
<g id="node16" class="node">
<title>Node15</title>
<g id="a_node16"><a xlink:href="valueconsumer_8h.html" target="_top" xlink:title=" ">
<polygon fill="white" stroke="black" points="254,-112.5 254,-131.5 344,-131.5 344,-112.5 254,-112.5"/>
<text text-anchor="middle" x="299" y="-119.5" font-family="Helvetica,sans-Serif" font-size="10.00">valueconsumer.h</text>
</a>
</g>
</g>
<!-- Node14&#45;&gt;Node15 -->
<g id="edge19" class="edge">
<title>Node14&#45;&gt;Node15</title>
<path fill="none" stroke="midnightblue" d="M286.48,-168.08C288.49,-160.85 291.39,-150.41 293.89,-141.4"/>
<polygon fill="midnightblue" stroke="midnightblue" points="297.26,-142.32 296.57,-131.75 290.52,-140.45 297.26,-142.32"/>
</g>
<!-- Node15&#45;&gt;Node2 -->
<g id="edge20" class="edge">
<title>Node15&#45;&gt;Node2</title>
<path fill="none" stroke="midnightblue" d="M283.42,-112.32C268,-103.74 244.19,-90.49 226.29,-80.52"/>
<polygon fill="midnightblue" stroke="midnightblue" points="227.99,-77.46 217.55,-75.65 224.58,-83.58 227.99,-77.46"/>
</g>
<!-- Node15&#45;&gt;Node5 -->
<g id="edge22" class="edge">
<title>Node15&#45;&gt;Node5</title>
<path fill="none" stroke="midnightblue" d="M309.6,-112.32C319.46,-104.26 334.35,-92.08 346.22,-82.37"/>
<polygon fill="midnightblue" stroke="midnightblue" points="348.68,-84.88 354.2,-75.83 344.25,-79.46 348.68,-84.88"/>
</g>
<!-- Node16 -->
<g id="node17" class="node">
<title>Node16</title>
<g id="a_node17"><a xlink:title=" ">
<polygon fill="white" stroke="#bfbfbf" points="266.5,-56.5 266.5,-75.5 315.5,-75.5 315.5,-56.5 266.5,-56.5"/>
<text text-anchor="middle" x="291" y="-63.5" font-family="Helvetica,sans-Serif" font-size="10.00">stdint.h</text>
</a>
</g>
</g>
<!-- Node15&#45;&gt;Node16 -->
<g id="edge21" class="edge">
<title>Node15&#45;&gt;Node16</title>
<path fill="none" stroke="midnightblue" d="M297.68,-112.08C296.62,-104.93 295.09,-94.64 293.77,-85.69"/>
<polygon fill="midnightblue" stroke="midnightblue" points="297.22,-85.13 292.3,-75.75 290.3,-86.16 297.22,-85.13"/>
</g>
</g>
</svg>
