<?xml version="1.0" encoding="UTF-8" standalone="no"?>
<!DOCTYPE svg PUBLIC "-//W3C//DTD SVG 1.1//EN"
 "http://www.w3.org/Graphics/SVG/1.1/DTD/svg11.dtd">
<!-- Generated by graphviz version 7.1.0 (20230121.1956)
 -->
<!-- Title: src/sensesp/signalk/signalk_value_listener.h Pages: 1 -->
<!--zoomable 379 -->
<svg id="main" version="1.1" xmlns="http://www.w3.org/2000/svg" xmlns:xlink="http://www.w3.org/1999/xlink" xml:space="preserve" onload="init(evt)">
<style type="text/css"><![CDATA[
.edge:hover path { stroke: red; }
.edge:hover polygon { stroke: red; fill: red; }
]]></style>
<script type="text/javascript"><![CDATA[
var edges = document.getElementsByTagName('g');
if (edges && edges.length) {
  for (var i=0;i<edges.length;i++) {
    if (edges[i].id.substr(0,4)=='edge') {
      edges[i].setAttribute('class','edge');
    }
  }
}
]]></script>
        <defs>
                <circle id="rim" cx="0" cy="0" r="7"/>
                <circle id="rim2" cx="0" cy="0" r="3.5"/>
                <g id="zoomPlus">
                        <use xlink:href="#rim" fill="#404040">
                                <set attributeName="fill" to="#808080" begin="zoomplus.mouseover" end="zoomplus.mouseout"/>
                        </use>
                        <path d="M-4,0h8M0,-4v8" fill="none" stroke="white" stroke-width="1.5" pointer-events="none"/>
                </g>
                <g id="zoomMin">
                        <use xlink:href="#rim" fill="#404040">
                                <set attributeName="fill" to="#808080" begin="zoomminus.mouseover" end="zoomminus.mouseout"/>
                        </use>
                        <path d="M-4,0h8" fill="none" stroke="white" stroke-width="1.5" pointer-events="none"/>
                </g>
                <g id="dirArrow">
                        <path fill="none" stroke="white" stroke-width="1.5" d="M0,-3.0v7 M-2.5,-0.5L0,-3.0L2.5,-0.5"/>
                </g>
               <g id="resetDef">
                       <use xlink:href="#rim2" fill="#404040">
                               <set attributeName="fill" to="#808080" begin="reset.mouseover" end="reset.mouseout"/>
                       </use>
               </g>
        </defs>

<script type="text/javascript">
var viewWidth = 661;
var viewHeight = 379;
var sectionId = 'dynsection-0';
</script>
<script xlink:href="svgpan.js"/>
<svg id="graph" class="graph">
<g id="viewport">
<title>src/sensesp/signalk/signalk_value_listener.h</title>
<!-- Node1 -->
<g id="node1" class="node">
<title>Node1</title>
<g id="a_node1"><a xlink:title=" ">
<polygon fill="#999999" stroke="#666666" points="344,-371 221,-371 221,-341 344,-341 344,-371"/>
<text text-anchor="start" x="229" y="-359" font-family="Helvetica,sans-Serif" font-size="10.00">src/sensesp/signalk</text>
<text text-anchor="middle" x="282.5" y="-348" font-family="Helvetica,sans-Serif" font-size="10.00">/signalk_value_listener.h</text>
</a>
</g>
</g>
<!-- Node2 -->
<g id="node2" class="node">
<title>Node2</title>
<g id="a_node2"><a xlink:title=" ">
<polygon fill="#e0e0e0" stroke="#999999" points="464,-140 385,-140 385,-121 464,-121 464,-140"/>
<text text-anchor="middle" x="424.5" y="-128" font-family="Helvetica,sans-Serif" font-size="10.00">ArduinoJson.h</text>
</a>
</g>
</g>
<!-- Node1&#45;&gt;Node2 -->
<g id="edge1" class="edge">
<title>Node1&#45;&gt;Node2</title>
<path fill="none" stroke="#63b8ff" d="M324.22,-340.71C342.18,-332.69 362.09,-321.03 375.5,-305 413.44,-259.67 422.07,-186.79 423.99,-151.68"/>
<polygon fill="#63b8ff" stroke="#63b8ff" points="427.48,-151.86 424.38,-141.73 420.49,-151.58 427.48,-151.86"/>
</g>
<!-- Node3 -->
<g id="node3" class="node">
<title>Node3</title>
<g id="a_node3"><a xlink:href="observable_8h.html" target="_top" xlink:title=" ">
<polygon fill="white" stroke="#666666" points="173,-195 26,-195 26,-176 173,-176 173,-195"/>
<text text-anchor="middle" x="99.5" y="-183" font-family="Helvetica,sans-Serif" font-size="10.00">sensesp/system/observable.h</text>
</a>
</g>
</g>
<!-- Node1&#45;&gt;Node3 -->
<g id="edge2" class="edge">
<title>Node1&#45;&gt;Node3</title>
<path fill="none" stroke="#63b8ff" d="M233.33,-340.63C191.06,-325.47 132.48,-297.1 103.5,-250 95.6,-237.17 94.99,-219.98 96.13,-206.72"/>
<polygon fill="#63b8ff" stroke="#63b8ff" points="99.58,-207.36 97.4,-196.99 92.64,-206.46 99.58,-207.36"/>
</g>
<!-- Node7 -->
<g id="node7" class="node">
<title>Node7</title>
<g id="a_node7"><a xlink:href="valueproducer_8h.html" target="_top" xlink:title=" ">
<polygon fill="white" stroke="#666666" points="287.5,-250 127.5,-250 127.5,-231 287.5,-231 287.5,-250"/>
<text text-anchor="middle" x="207.5" y="-238" font-family="Helvetica,sans-Serif" font-size="10.00">sensesp/system/valueproducer.h</text>
</a>
</g>
</g>
<!-- Node1&#45;&gt;Node7 -->
<g id="edge6" class="edge">
<title>Node1&#45;&gt;Node7</title>
<path fill="none" stroke="#63b8ff" d="M273,-340.63C259.39,-320.03 234.34,-282.12 219.48,-259.63"/>
<polygon fill="#63b8ff" stroke="#63b8ff" points="222.54,-257.91 214.1,-251.49 216.7,-261.76 222.54,-257.91"/>
</g>
<!-- Node15 -->
<g id="node15" class="node">
<title>Node15</title>
<g id="a_node15"><a xlink:href="signalk__listener_8h.html" target="_top" xlink:title=" ">
<polygon fill="white" stroke="#666666" points="366.5,-305 274.5,-305 274.5,-286 366.5,-286 366.5,-305"/>
<text text-anchor="middle" x="320.5" y="-293" font-family="Helvetica,sans-Serif" font-size="10.00">signalk_listener.h</text>
</a>
</g>
</g>
<!-- Node1&#45;&gt;Node15 -->
<g id="edge17" class="edge">
<title>Node1&#45;&gt;Node15</title>
<path fill="none" stroke="#63b8ff" d="M291.89,-340.54C296.96,-332.74 303.27,-323.03 308.67,-314.71"/>
<polygon fill="#63b8ff" stroke="#63b8ff" points="311.53,-316.74 314.04,-306.44 305.66,-312.92 311.53,-316.74"/>
</g>
<!-- Node4 -->
<g id="node4" class="node">
<title>Node4</title>
<g id="a_node4"><a xlink:title=" ">
<polygon fill="#e0e0e0" stroke="#999999" points="207,-140 140,-140 140,-121 207,-121 207,-140"/>
<text text-anchor="middle" x="173.5" y="-128" font-family="Helvetica,sans-Serif" font-size="10.00">forward_list</text>
</a>
</g>
</g>
<!-- Node3&#45;&gt;Node4 -->
<g id="edge3" class="edge">
<title>Node3&#45;&gt;Node4</title>
<path fill="none" stroke="#63b8ff" d="M112.05,-175.51C122.96,-167.7 139,-156.21 151.96,-146.93"/>
<polygon fill="#63b8ff" stroke="#63b8ff" points="153.81,-149.91 159.9,-141.24 149.73,-144.22 153.81,-149.91"/>
</g>
<!-- Node5 -->
<g id="node5" class="node">
<title>Node5</title>
<g id="a_node5"><a xlink:title=" ">
<polygon fill="#e0e0e0" stroke="#999999" points="59,-140 0,-140 0,-121 59,-121 59,-140"/>
<text text-anchor="middle" x="29.5" y="-128" font-family="Helvetica,sans-Serif" font-size="10.00">functional</text>
</a>
</g>
</g>
<!-- Node3&#45;&gt;Node5 -->
<g id="edge4" class="edge">
<title>Node3&#45;&gt;Node5</title>
<path fill="none" stroke="#63b8ff" d="M87.63,-175.51C77.41,-167.77 62.43,-156.43 50.24,-147.2"/>
<polygon fill="#63b8ff" stroke="#63b8ff" points="52.49,-144.52 42.41,-141.27 48.27,-150.1 52.49,-144.52"/>
</g>
<!-- Node6 -->
<g id="node6" class="node">
<title>Node6</title>
<g id="a_node6"><a xlink:title=" ">
<polygon fill="#e0e0e0" stroke="#999999" points="121.5,-140 77.5,-140 77.5,-121 121.5,-121 121.5,-140"/>
<text text-anchor="middle" x="99.5" y="-128" font-family="Helvetica,sans-Serif" font-size="10.00">vector</text>
</a>
</g>
</g>
<!-- Node3&#45;&gt;Node6 -->
<g id="edge5" class="edge">
<title>Node3&#45;&gt;Node6</title>
<path fill="none" stroke="#63b8ff" d="M99.5,-175.75C99.5,-169.27 99.5,-160.16 99.5,-151.9"/>
<polygon fill="#63b8ff" stroke="#63b8ff" points="103,-151.96 99.5,-141.96 96,-151.96 103,-151.96"/>
</g>
<!-- Node7&#45;&gt;Node2 -->
<g id="edge7" class="edge">
<title>Node7&#45;&gt;Node2</title>
<path fill="none" stroke="#63b8ff" d="M228.56,-230.55C248.74,-221.86 279.96,-208.08 306.5,-195 338.71,-179.12 374.98,-159.3 398.7,-146.07"/>
<polygon fill="#63b8ff" stroke="#63b8ff" points="400.32,-149.17 407.34,-141.23 396.9,-143.07 400.32,-149.17"/>
</g>
<!-- Node7&#45;&gt;Node3 -->
<g id="edge8" class="edge">
<title>Node7&#45;&gt;Node3</title>
<path fill="none" stroke="#63b8ff" d="M189.18,-230.51C172.32,-222.24 147.07,-209.84 127.65,-200.31"/>
<polygon fill="#63b8ff" stroke="#63b8ff" points="129.43,-197.29 118.91,-196.02 126.34,-203.57 129.43,-197.29"/>
</g>
<!-- Node8 -->
<g id="node8" class="node">
<title>Node8</title>
<g id="a_node8"><a xlink:href="valueconsumer_8h.html" target="_top" xlink:title=" ">
<polygon fill="white" stroke="#666666" points="297.5,-195 207.5,-195 207.5,-176 297.5,-176 297.5,-195"/>
<text text-anchor="middle" x="252.5" y="-183" font-family="Helvetica,sans-Serif" font-size="10.00">valueconsumer.h</text>
</a>
</g>
</g>
<!-- Node7&#45;&gt;Node8 -->
<g id="edge9" class="edge">
<title>Node7&#45;&gt;Node8</title>
<path fill="none" stroke="#63b8ff" d="M214.93,-230.75C221.08,-223.5 230.01,-212.98 237.63,-204.02"/>
<polygon fill="#63b8ff" stroke="#63b8ff" points="240.12,-206.48 243.93,-196.6 234.79,-201.95 240.12,-206.48"/>
</g>
<!-- Node8&#45;&gt;Node2 -->
<g id="edge10" class="edge">
<title>Node8&#45;&gt;Node2</title>
<path fill="none" stroke="#63b8ff" d="M281.68,-175.51C310.06,-166.76 353.38,-153.42 384.87,-143.71"/>
<polygon fill="#63b8ff" stroke="#63b8ff" points="385.49,-147.18 394.02,-140.89 383.43,-140.49 385.49,-147.18"/>
</g>
<!-- Node9 -->
<g id="node9" class="node">
<title>Node9</title>
<g id="a_node9"><a xlink:title=" ">
<polygon fill="#e0e0e0" stroke="#999999" points="277,-140 228,-140 228,-121 277,-121 277,-140"/>
<text text-anchor="middle" x="252.5" y="-128" font-family="Helvetica,sans-Serif" font-size="10.00">stdint.h</text>
</a>
</g>
</g>
<!-- Node8&#45;&gt;Node9 -->
<g id="edge11" class="edge">
<title>Node8&#45;&gt;Node9</title>
<path fill="none" stroke="#63b8ff" d="M252.5,-175.75C252.5,-169.27 252.5,-160.16 252.5,-151.9"/>
<polygon fill="#63b8ff" stroke="#63b8ff" points="256,-151.96 252.5,-141.96 249,-151.96 256,-151.96"/>
</g>
<!-- Node10 -->
<g id="node10" class="node">
<title>Node10</title>
<g id="a_node10"><a xlink:href="sensesp_8h.html" target="_top" xlink:title=" ">
<polygon fill="white" stroke="#666666" points="366.5,-140 304.5,-140 304.5,-121 366.5,-121 366.5,-140"/>
<text text-anchor="middle" x="335.5" y="-128" font-family="Helvetica,sans-Serif" font-size="10.00">sensesp.h</text>
</a>
</g>
</g>
<!-- Node8&#45;&gt;Node10 -->
<g id="edge12" class="edge">
<title>Node8&#45;&gt;Node10</title>
<path fill="none" stroke="#63b8ff" d="M266.58,-175.51C279.06,-167.54 297.52,-155.75 312.19,-146.38"/>
<polygon fill="#63b8ff" stroke="#63b8ff" points="313.81,-149.5 320.35,-141.17 310.04,-143.6 313.81,-149.5"/>
</g>
<!-- Node11 -->
<g id="node11" class="node">
<title>Node11</title>
<g id="a_node11"><a xlink:title=" ">
<polygon fill="#e0e0e0" stroke="#999999" points="479.5,-79.5 409.5,-79.5 409.5,-60.5 479.5,-60.5 479.5,-79.5"/>
<text text-anchor="middle" x="444.5" y="-67.5" font-family="Helvetica,sans-Serif" font-size="10.00">ReactESP.h</text>
</a>
</g>
</g>
<!-- Node10&#45;&gt;Node11 -->
<g id="edge13" class="edge">
<title>Node10&#45;&gt;Node11</title>
<path fill="none" stroke="#63b8ff" d="M352.05,-120.62C369.5,-111.25 397.25,-96.36 417.79,-85.33"/>
<polygon fill="#63b8ff" stroke="#63b8ff" points="419.3,-88.5 426.46,-80.68 415.99,-82.33 419.3,-88.5"/>
</g>
<!-- Node12 -->
<g id="node12" class="node">
<title>Node12</title>
<g id="a_node12"><a xlink:href="local__debug_8h.html" target="_top" xlink:title=" ">
<polygon fill="white" stroke="#666666" points="391.5,-85 279.5,-85 279.5,-55 391.5,-55 391.5,-85"/>
<text text-anchor="start" x="287.5" y="-73" font-family="Helvetica,sans-Serif" font-size="10.00">sensesp/system/local</text>
<text text-anchor="middle" x="335.5" y="-62" font-family="Helvetica,sans-Serif" font-size="10.00">_debug.h</text>
</a>
</g>
</g>
<!-- Node10&#45;&gt;Node12 -->
<g id="edge14" class="edge">
<title>Node10&#45;&gt;Node12</title>
<path fill="none" stroke="#63b8ff" d="M335.5,-120.87C335.5,-114.4 335.5,-105.2 335.5,-96.45"/>
<polygon fill="#63b8ff" stroke="#63b8ff" points="339,-96.63 335.5,-86.63 332,-96.63 339,-96.63"/>
</g>
<!-- Node13 -->
<g id="node13" class="node">
<title>Node13</title>
<g id="a_node13"><a xlink:title=" ">
<polygon fill="#e0e0e0" stroke="#999999" points="494.5,-19 436.5,-19 436.5,0 494.5,0 494.5,-19"/>
<text text-anchor="middle" x="465.5" y="-7" font-family="Helvetica,sans-Serif" font-size="10.00">Arduino.h</text>
</a>
</g>
</g>
<!-- Node12&#45;&gt;Node13 -->
<g id="edge15" class="edge">
<title>Node12&#45;&gt;Node13</title>
<path fill="none" stroke="#63b8ff" d="M367.63,-54.54C388.41,-45.19 415.27,-33.1 435.59,-23.96"/>
<polygon fill="#63b8ff" stroke="#63b8ff" points="436.78,-27.26 444.46,-19.97 433.91,-20.88 436.78,-27.26"/>
</g>
<!-- Node14 -->
<g id="node14" class="node">
<title>Node14</title>
<g id="a_node14"><a xlink:title=" ">
<polygon fill="#e0e0e0" stroke="#999999" points="358,-19 313,-19 313,0 358,0 358,-19"/>
<text text-anchor="middle" x="335.5" y="-7" font-family="Helvetica,sans-Serif" font-size="10.00">Print.h</text>
</a>
</g>
</g>
<!-- Node12&#45;&gt;Node14 -->
<g id="edge16" class="edge">
<title>Node12&#45;&gt;Node14</title>
<path fill="none" stroke="#63b8ff" d="M335.5,-54.54C335.5,-47.34 335.5,-38.53 335.5,-30.68"/>
<polygon fill="#63b8ff" stroke="#63b8ff" points="339,-30.69 335.5,-20.69 332,-30.69 339,-30.69"/>
</g>
<!-- Node15&#45;&gt;Node2 -->
<g id="edge18" class="edge">
<title>Node15&#45;&gt;Node2</title>
<path fill="none" stroke="#63b8ff" d="M329.18,-285.78C337.52,-277.13 350.19,-263.3 359.5,-250 382.74,-216.79 404.21,-174.45 415.72,-150.42"/>
<polygon fill="#63b8ff" stroke="#63b8ff" points="418.79,-152.11 419.89,-141.58 412.46,-149.13 418.79,-152.11"/>
</g>
<!-- Node15&#45;&gt;Node3 -->
<g id="edge25" class="edge">
<title>Node15&#45;&gt;Node3</title>
<path fill="none" stroke="#63b8ff" d="M274.07,-289.73C221.65,-283.43 140.73,-270.65 118.5,-250 106.62,-238.97 102.06,-220.85 100.36,-206.78"/>
<polygon fill="#63b8ff" stroke="#63b8ff" points="103.86,-206.53 99.6,-196.83 96.88,-207.07 103.86,-206.53"/>
</g>
<!-- Node15&#45;&gt;Node7 -->
<g id="edge26" class="edge">
<title>Node15&#45;&gt;Node7</title>
<path fill="none" stroke="#63b8ff" d="M301.33,-285.51C283.61,-277.2 257.02,-264.73 236.67,-255.18"/>
<polygon fill="#63b8ff" stroke="#63b8ff" points="238.3,-252.08 227.76,-251 235.32,-258.42 238.3,-252.08"/>
</g>
<!-- Node15&#45;&gt;Node10 -->
<g id="edge20" class="edge">
<title>Node15&#45;&gt;Node10</title>
<path fill="none" stroke="#63b8ff" d="M327.09,-285.51C332.97,-276.9 341.15,-263.28 344.5,-250 353.06,-216.09 346.34,-175.12 340.82,-151.32"/>
<polygon fill="#63b8ff" stroke="#63b8ff" points="344.25,-150.6 338.42,-141.76 337.46,-152.31 344.25,-150.6"/>
</g>
<!-- Node16 -->
<g id="node16" class="node">
<title>Node16</title>
<g id="a_node16"><a xlink:title=" ">
<polygon fill="#e0e0e0" stroke="#999999" points="335.5,-250 305.5,-250 305.5,-231 335.5,-231 335.5,-250"/>
<text text-anchor="middle" x="320.5" y="-238" font-family="Helvetica,sans-Serif" font-size="10.00">set</text>
</a>
</g>
</g>
<!-- Node15&#45;&gt;Node16 -->
<g id="edge19" class="edge">
<title>Node15&#45;&gt;Node16</title>
<path fill="none" stroke="#63b8ff" d="M320.5,-285.75C320.5,-279.27 320.5,-270.16 320.5,-261.9"/>
<polygon fill="#63b8ff" stroke="#63b8ff" points="324,-261.96 320.5,-251.96 317,-261.96 324,-261.96"/>
</g>
<!-- Node17 -->
<g id="node17" class="node">
<title>Node17</title>
<g id="a_node17"><a xlink:href="configurable_8h.html" target="_top" xlink:title=" ">
<polygon fill="white" stroke="#666666" points="652.5,-195 500.5,-195 500.5,-176 652.5,-176 652.5,-195"/>
<text text-anchor="middle" x="576.5" y="-183" font-family="Helvetica,sans-Serif" font-size="10.00">sensesp/system/configurable.h</text>
</a>
</g>
</g>
<!-- Node15&#45;&gt;Node17 -->
<g id="edge21" class="edge">
<title>Node15&#45;&gt;Node17</title>
<path fill="none" stroke="#63b8ff" d="M341.45,-285.66C386.27,-266.75 491.68,-222.29 544.77,-199.89"/>
<polygon fill="#63b8ff" stroke="#63b8ff" points="546.01,-203.16 553.87,-196.05 543.29,-196.71 546.01,-203.16"/>
</g>
<!-- Node17&#45;&gt;Node2 -->
<g id="edge22" class="edge">
<title>Node17&#45;&gt;Node2</title>
<path fill="none" stroke="#63b8ff" d="M550.72,-175.51C526.07,-166.92 488.69,-153.88 460.99,-144.22"/>
<polygon fill="#63b8ff" stroke="#63b8ff" points="462.18,-140.93 451.59,-140.94 459.88,-147.54 462.18,-140.93"/>
</g>
<!-- Node17&#45;&gt;Node13 -->
<g id="edge24" class="edge">
<title>Node17&#45;&gt;Node13</title>
<path fill="none" stroke="#63b8ff" d="M570.84,-175.63C553.47,-148.4 500.66,-65.61 477.08,-28.65"/>
<polygon fill="#63b8ff" stroke="#63b8ff" points="480.16,-26.97 471.83,-20.42 474.26,-30.73 480.16,-26.97"/>
</g>
<!-- Node18 -->
<g id="node18" class="node">
<title>Node18</title>
<g id="a_node18"><a xlink:title=" ">
<polygon fill="#e0e0e0" stroke="#999999" points="594,-140 559,-140 559,-121 594,-121 594,-140"/>
<text text-anchor="middle" x="576.5" y="-128" font-family="Helvetica,sans-Serif" font-size="10.00">map</text>
</a>
</g>
</g>
<!-- Node17&#45;&gt;Node18 -->
<g id="edge23" class="edge">
<title>Node17&#45;&gt;Node18</title>
<path fill="none" stroke="#63b8ff" d="M576.5,-175.75C576.5,-169.27 576.5,-160.16 576.5,-151.9"/>
<polygon fill="#63b8ff" stroke="#63b8ff" points="580,-151.96 576.5,-141.96 573,-151.96 580,-151.96"/>
</g>
</g>
</svg>
        <g id="navigator" transform="translate(0 0)" fill="#404254">
                <rect fill="#f2f5e9" fill-opacity="0.5" stroke="#606060" stroke-width=".5" x="0" y="0" width="60" height="60"/>
                <use id="zoomplus" xlink:href="#zoomPlus" x="17" y="9" onmousedown="handleZoom(evt,'in')"/>
                <use id="zoomminus" xlink:href="#zoomMin" x="42" y="9" onmousedown="handleZoom(evt,'out')"/>
                <use id="reset" xlink:href="#resetDef" x="30" y="36" onmousedown="handleReset()"/>
                <g id="arrowUp" xlink:href="#dirArrow" transform="translate(30 24)" onmousedown="handlePan(0,-1)">
                  <use xlink:href="#rim" fill="#404040">
                        <set attributeName="fill" to="#808080" begin="arrowUp.mouseover" end="arrowUp.mouseout"/>
                  </use>
                  <path fill="none" stroke="white" stroke-width="1.5" d="M0,-3.0v7 M-2.5,-0.5L0,-3.0L2.5,-0.5"/>
                </g>
                <g id="arrowRight" xlink:href="#dirArrow" transform="rotate(90) translate(36 -43)" onmousedown="handlePan(1,0)">
                  <use xlink:href="#rim" fill="#404040">
                        <set attributeName="fill" to="#808080" begin="arrowRight.mouseover" end="arrowRight.mouseout"/>
                  </use>
                  <path fill="none" stroke="white" stroke-width="1.5" d="M0,-3.0v7 M-2.5,-0.5L0,-3.0L2.5,-0.5"/>
                </g>
                <g id="arrowDown" xlink:href="#dirArrow" transform="rotate(180) translate(-30 -48)" onmousedown="handlePan(0,1)">
                  <use xlink:href="#rim" fill="#404040">
                        <set attributeName="fill" to="#808080" begin="arrowDown.mouseover" end="arrowDown.mouseout"/>
                  </use>
                  <path fill="none" stroke="white" stroke-width="1.5" d="M0,-3.0v7 M-2.5,-0.5L0,-3.0L2.5,-0.5"/>
                </g>
                <g id="arrowLeft" xlink:href="#dirArrow" transform="rotate(270) translate(-36 17)" onmousedown="handlePan(-1,0)">
                  <use xlink:href="#rim" fill="#404040">
                        <set attributeName="fill" to="#808080" begin="arrowLeft.mouseover" end="arrowLeft.mouseout"/>
                  </use>
                  <path fill="none" stroke="white" stroke-width="1.5" d="M0,-3.0v7 M-2.5,-0.5L0,-3.0L2.5,-0.5"/>
                </g>
        </g>
        <svg viewBox="0 0 15 15" width="100%" height="30px" preserveAspectRatio="xMaxYMin meet">
         <g id="arrow_out" transform="scale(0.3 0.3)">
          <a xlink:href="signalk__value__listener_8h__incl_org.svg" target="_base">
           <rect id="button" ry="5" rx="5" y="6" x="6" height="38" width="38"
                fill="#f2f5e9" fill-opacity="0.5" stroke="#606060" stroke-width="1.0"/>
           <path id="arrow"
             d="M 11.500037,31.436501 C 11.940474,20.09759 22.043105,11.32322 32.158766,21.979434 L 37.068811,17.246167 C 37.068811,17.246167 37.088388,32 37.088388,32 L 22.160133,31.978069 C 22.160133,31.978069 26.997745,27.140456 26.997745,27.140456 C 18.528582,18.264221 13.291696,25.230495 11.500037,31.436501 z"
             style="fill:#404040;"/>
          </a>
         </g>
        </svg>
</svg>
