<?xml version="1.0" encoding="UTF-8" standalone="no"?>
<!DOCTYPE svg PUBLIC "-//W3C//DTD SVG 1.1//EN"
 "http://www.w3.org/Graphics/SVG/1.1/DTD/svg11.dtd">
<!-- Generated by graphviz version 2.40.1 (20161225.0304)
 -->
<!-- Title: src/controllers/smart_switch_controller.h Pages: 1 -->
<!--zoomable 367 -->
<svg id="main" version="1.1" xmlns="http://www.w3.org/2000/svg" xmlns:xlink="http://www.w3.org/1999/xlink" xml:space="preserve" onload="init(evt)">
<style type="text/css"><![CDATA[
.edge:hover path { stroke: red; }
.edge:hover polygon { stroke: red; fill: red; }
]]></style>
<script type="text/javascript"><![CDATA[
var edges = document.getElementsByTagName('g');
if (edges && edges.length) {
  for (var i=0;i<edges.length;i++) {
    if (edges[i].id.substr(0,4)=='edge') {
      edges[i].setAttribute('class','edge');
    }
  }
}
]]></script>
        <defs>
                <circle id="rim" cx="0" cy="0" r="7"/>
                <circle id="rim2" cx="0" cy="0" r="3.5"/>
                <g id="zoomPlus">
                        <use xlink:href="#rim" fill="#404040">
                                <set attributeName="fill" to="#808080" begin="zoomplus.mouseover" end="zoomplus.mouseout"/>
                        </use>
                        <path d="M-4,0h8M0,-4v8" fill="none" stroke="white" stroke-width="1.5" pointer-events="none"/>
                </g>
                <g id="zoomMin">
                        <use xlink:href="#rim" fill="#404040">
                                <set attributeName="fill" to="#808080" begin="zoomminus.mouseover" end="zoomminus.mouseout"/>
                        </use>
                        <path d="M-4,0h8" fill="none" stroke="white" stroke-width="1.5" pointer-events="none"/>
                </g>
                <g id="dirArrow">
                        <path fill="none" stroke="white" stroke-width="1.5" d="M0,-3.0v7 M-2.5,-0.5L0,-3.0L2.5,-0.5"/>
                </g>
               <g id="resetDef">
                       <use xlink:href="#rim2" fill="#404040">
                               <set attributeName="fill" to="#808080" begin="reset.mouseover" end="reset.mouseout"/>
                       </use>
               </g>
        </defs>

<script type="text/javascript">
var viewWidth = 721;
var viewHeight = 367;
var sectionId = 'dynsection-0';
</script>
<script xlink:href="svgpan.js"/>
<svg id="graph" class="graph">
<g id="viewport">
<title>src/controllers/smart_switch_controller.h</title>
<polygon fill="#ffffff" stroke="transparent" points="-4,4 -4,-363 716.8125,-363 716.8125,4 -4,4"/>
<!-- Node0 -->
<g id="node1" class="node">
<title>Node0</title>
<g id="a_node1"><a xlink:title=" ">
<polygon fill="#bfbfbf" stroke="#000000" points="136.4014,-330.5 136.4014,-358.5 242.416,-358.5 242.416,-330.5 136.4014,-330.5"/>
<text text-anchor="start" x="144.4014" y="-346.5" font-family="Helvetica,sans-Serif" font-size="10.00" fill="#000000">src/controllers/smart</text>
<text text-anchor="middle" x="189.4087" y="-336.5" font-family="Helvetica,sans-Serif" font-size="10.00" fill="#000000">_switch_controller.h</text>
</a>
</g>
</g>
<!-- Node1 -->
<g id="node2" class="node">
<title>Node1</title>
<g id="a_node2"><a xlink:href="valueconsumer_8h.html" target="_top" xlink:title=" ">
<polygon fill="#ffffff" stroke="#000000" points="106.3818,-110.5 106.3818,-128.5 232.4355,-128.5 232.4355,-110.5 106.3818,-110.5"/>
<text text-anchor="middle" x="169.4087" y="-116.5" font-family="Helvetica,sans-Serif" font-size="10.00" fill="#000000">system/valueconsumer.h</text>
</a>
</g>
</g>
<!-- Node0&#45;&gt;Node1 -->
<g id="edge1" class="edge">
<title>Node0&#45;&gt;Node1</title>
<path fill="none" stroke="#191970" d="M187.5831,-330.3667C186.3121,-320.25 184.6323,-306.2999 183.4087,-294 177.8083,-237.7051 172.9504,-171.0189 170.7162,-138.8153"/>
<polygon fill="#191970" stroke="#191970" points="174.1913,-138.3312 170.0152,-128.5941 167.2077,-138.8102 174.1913,-138.3312"/>
</g>
<!-- Node7 -->
<g id="node8" class="node">
<title>Node7</title>
<g id="a_node8"><a xlink:href="click__type_8h.html" target="_top" xlink:title=" ">
<polygon fill="#ffffff" stroke="#000000" points="192.2808,-275.5 192.2808,-293.5 310.5366,-293.5 310.5366,-275.5 192.2808,-275.5"/>
<text text-anchor="middle" x="251.4087" y="-281.5" font-family="Helvetica,sans-Serif" font-size="10.00" fill="#000000">transforms/click_type.h</text>
</a>
</g>
</g>
<!-- Node0&#45;&gt;Node7 -->
<g id="edge7" class="edge">
<title>Node0&#45;&gt;Node7</title>
<path fill="none" stroke="#191970" d="M204.1018,-330.2808C213.2779,-321.4008 225.1188,-309.9419 234.6585,-300.7098"/>
<polygon fill="#191970" stroke="#191970" points="237.2696,-303.0536 242.0217,-293.5842 232.4017,-298.0233 237.2696,-303.0536"/>
</g>
<!-- Node2 -->
<g id="node3" class="node">
<title>Node2</title>
<g id="a_node3"><a xlink:title=" ">
<polygon fill="#ffffff" stroke="#bfbfbf" points="285.4434,-55.5 285.4434,-73.5 365.374,-73.5 365.374,-55.5 285.4434,-55.5"/>
<text text-anchor="middle" x="325.4087" y="-61.5" font-family="Helvetica,sans-Serif" font-size="10.00" fill="#000000">ArduinoJson.h</text>
</a>
</g>
</g>
<!-- Node1&#45;&gt;Node2 -->
<g id="edge2" class="edge">
<title>Node1&#45;&gt;Node2</title>
<path fill="none" stroke="#191970" d="M195.1689,-110.4179C221.1021,-101.2748 261.2938,-87.1046 290.1696,-76.924"/>
<polygon fill="#191970" stroke="#191970" points="291.6022,-80.1302 299.8695,-73.5042 289.2747,-73.5285 291.6022,-80.1302"/>
</g>
<!-- Node3 -->
<g id="node4" class="node">
<title>Node3</title>
<g id="a_node4"><a xlink:title=" ">
<polygon fill="#ffffff" stroke="#bfbfbf" points="78.2881,-55.5 78.2881,-73.5 126.5293,-73.5 126.5293,-55.5 78.2881,-55.5"/>
<text text-anchor="middle" x="102.4087" y="-61.5" font-family="Helvetica,sans-Serif" font-size="10.00" fill="#000000">stdint.h</text>
</a>
</g>
</g>
<!-- Node1&#45;&gt;Node3 -->
<g id="edge3" class="edge">
<title>Node1&#45;&gt;Node3</title>
<path fill="none" stroke="#191970" d="M158.345,-110.4179C148.4154,-102.2667 133.6187,-90.1201 121.7375,-80.3669"/>
<polygon fill="#191970" stroke="#191970" points="123.6628,-77.4192 113.7128,-73.7795 119.2213,-82.8297 123.6628,-77.4192"/>
</g>
<!-- Node4 -->
<g id="node5" class="node">
<title>Node4</title>
<g id="a_node5"><a xlink:href="sensesp_8h.html" target="_top" xlink:title=" ">
<polygon fill="#ffffff" stroke="#000000" points="144.6157,-55.5 144.6157,-73.5 206.2017,-73.5 206.2017,-55.5 144.6157,-55.5"/>
<text text-anchor="middle" x="175.4087" y="-61.5" font-family="Helvetica,sans-Serif" font-size="10.00" fill="#000000">sensesp.h</text>
</a>
</g>
</g>
<!-- Node1&#45;&gt;Node4 -->
<g id="edge4" class="edge">
<title>Node1&#45;&gt;Node4</title>
<path fill="none" stroke="#191970" d="M170.3995,-110.4179C171.1851,-103.2164 172.3109,-92.8962 173.2963,-83.8632"/>
<polygon fill="#191970" stroke="#191970" points="176.7912,-84.1001 174.3964,-73.7795 169.8325,-83.3409 176.7912,-84.1001"/>
</g>
<!-- Node5 -->
<g id="node6" class="node">
<title>Node5</title>
<g id="a_node6"><a xlink:title=" ">
<polygon fill="#ffffff" stroke="#bfbfbf" points="91.8169,-.5 91.8169,-18.5 161.0005,-18.5 161.0005,-.5 91.8169,-.5"/>
<text text-anchor="middle" x="126.4087" y="-6.5" font-family="Helvetica,sans-Serif" font-size="10.00" fill="#000000">ReactESP.h</text>
</a>
</g>
</g>
<!-- Node4&#45;&gt;Node5 -->
<g id="edge5" class="edge">
<title>Node4&#45;&gt;Node5</title>
<path fill="none" stroke="#191970" d="M167.3173,-55.4179C160.3374,-47.5833 150.069,-36.0575 141.5663,-26.5137"/>
<polygon fill="#191970" stroke="#191970" points="143.9413,-23.9178 134.6758,-18.7795 138.7146,-28.5743 143.9413,-23.9178"/>
</g>
<!-- Node6 -->
<g id="node7" class="node">
<title>Node6</title>
<g id="a_node7"><a xlink:title=" ">
<polygon fill="#ffffff" stroke="#bfbfbf" points="178.9976,-.5 178.9976,-18.5 267.8198,-18.5 267.8198,-.5 178.9976,-.5"/>
<text text-anchor="middle" x="223.4087" y="-6.5" font-family="Helvetica,sans-Serif" font-size="10.00" fill="#000000">RemoteDebug.h</text>
</a>
</g>
</g>
<!-- Node4&#45;&gt;Node6 -->
<g id="edge6" class="edge">
<title>Node4&#45;&gt;Node6</title>
<path fill="none" stroke="#191970" d="M183.3349,-55.4179C190.1724,-47.5833 200.2312,-36.0575 208.5604,-26.5137"/>
<polygon fill="#191970" stroke="#191970" points="211.3719,-28.6151 215.3103,-18.7795 206.0979,-24.0123 211.3719,-28.6151"/>
</g>
<!-- Node8 -->
<g id="node9" class="node">
<title>Node8</title>
<g id="a_node9"><a xlink:title=" ">
<polygon fill="#ffffff" stroke="#bfbfbf" points="210.6157,-220.5 210.6157,-238.5 292.2017,-238.5 292.2017,-220.5 210.6157,-220.5"/>
<text text-anchor="middle" x="251.4087" y="-226.5" font-family="Helvetica,sans-Serif" font-size="10.00" fill="#000000">elapsedMillis.h</text>
</a>
</g>
</g>
<!-- Node7&#45;&gt;Node8 -->
<g id="edge8" class="edge">
<title>Node7&#45;&gt;Node8</title>
<path fill="none" stroke="#191970" d="M251.4087,-275.4179C251.4087,-268.2164 251.4087,-257.8962 251.4087,-248.8632"/>
<polygon fill="#191970" stroke="#191970" points="254.9088,-248.7794 251.4087,-238.7795 247.9088,-248.7795 254.9088,-248.7794"/>
</g>
<!-- Node9 -->
<g id="node10" class="node">
<title>Node9</title>
<g id="a_node10"><a xlink:href="transform_8h.html" target="_top" xlink:title=" ">
<polygon fill="#ffffff" stroke="#000000" points="319.1182,-220.5 319.1182,-238.5 435.6992,-238.5 435.6992,-220.5 319.1182,-220.5"/>
<text text-anchor="middle" x="377.4087" y="-226.5" font-family="Helvetica,sans-Serif" font-size="10.00" fill="#000000">transforms/transform.h</text>
</a>
</g>
</g>
<!-- Node7&#45;&gt;Node9 -->
<g id="edge9" class="edge">
<title>Node7&#45;&gt;Node9</title>
<path fill="none" stroke="#191970" d="M272.215,-275.4179C292.6426,-266.5011 324.0235,-252.803 347.1979,-242.6873"/>
<polygon fill="#191970" stroke="#191970" points="348.8067,-245.804 356.5714,-238.5956 346.0063,-239.3885 348.8067,-245.804"/>
</g>
<!-- Node9&#45;&gt;Node1 -->
<g id="edge26" class="edge">
<title>Node9&#45;&gt;Node1</title>
<path fill="none" stroke="#191970" d="M340.3045,-220.499C313.2017,-213.0172 276.1487,-200.8621 246.4087,-184 223.1137,-170.7921 200.0594,-150.2211 185.3391,-135.8732"/>
<polygon fill="#191970" stroke="#191970" points="187.6238,-133.2086 178.07,-128.6286 182.6824,-138.1668 187.6238,-133.2086"/>
</g>
<!-- Node9&#45;&gt;Node2 -->
<g id="edge10" class="edge">
<title>Node9&#45;&gt;Node2</title>
<path fill="none" stroke="#191970" d="M357.2236,-220.3585C343.224,-212.8069 325.6665,-200.626 317.4087,-184 301.2944,-151.5562 310.8181,-107.9262 318.5475,-83.3613"/>
<polygon fill="#191970" stroke="#191970" points="321.8906,-84.4005 321.7721,-73.8064 315.2582,-82.1621 321.8906,-84.4005"/>
</g>
<!-- Node9&#45;&gt;Node4 -->
<g id="edge13" class="edge">
<title>Node9&#45;&gt;Node4</title>
<path fill="none" stroke="#191970" d="M360.4266,-220.4209C345.4389,-212.0012 323.396,-198.6006 306.4087,-184 273.211,-155.4665 274.1215,-139.0881 241.4087,-110 228.5204,-98.5397 212.6444,-87.5129 199.6933,-79.1853"/>
<polygon fill="#191970" stroke="#191970" points="201.1924,-75.9934 190.8643,-73.6309 197.4649,-81.9184 201.1924,-75.9934"/>
</g>
<!-- Node10 -->
<g id="node11" class="node">
<title>Node10</title>
<g id="a_node11"><a xlink:title=" ">
<polygon fill="#ffffff" stroke="#bfbfbf" points="465.7388,-165.5 465.7388,-183.5 495.0786,-183.5 495.0786,-165.5 465.7388,-165.5"/>
<text text-anchor="middle" x="480.4087" y="-171.5" font-family="Helvetica,sans-Serif" font-size="10.00" fill="#000000">set</text>
</a>
</g>
</g>
<!-- Node9&#45;&gt;Node10 -->
<g id="edge11" class="edge">
<title>Node9&#45;&gt;Node10</title>
<path fill="none" stroke="#191970" d="M394.417,-220.4179C411.4273,-211.3347 437.7289,-197.2902 456.7659,-187.1248"/>
<polygon fill="#191970" stroke="#191970" points="458.5403,-190.1451 465.7129,-182.3473 455.2431,-183.9703 458.5403,-190.1451"/>
</g>
<!-- Node11 -->
<g id="node12" class="node">
<title>Node11</title>
<g id="a_node12"><a xlink:title=" ">
<polygon fill="#ffffff" stroke="#bfbfbf" points="654.0049,-110.5 654.0049,-128.5 712.8125,-128.5 712.8125,-110.5 654.0049,-110.5"/>
<text text-anchor="middle" x="683.4087" y="-116.5" font-family="Helvetica,sans-Serif" font-size="10.00" fill="#000000">Arduino.h</text>
</a>
</g>
</g>
<!-- Node9&#45;&gt;Node11 -->
<g id="edge12" class="edge">
<title>Node9&#45;&gt;Node11</title>
<path fill="none" stroke="#191970" d="M436.0355,-224.2686C517.7872,-216.4156 657.9216,-200.7092 674.4087,-184 685.813,-172.4421 687.2545,-153.554 686.3221,-139.1969"/>
<polygon fill="#191970" stroke="#191970" points="689.7617,-138.4482 685.2103,-128.8808 682.802,-139.1983 689.7617,-138.4482"/>
</g>
<!-- Node12 -->
<g id="node13" class="node">
<title>Node12</title>
<g id="a_node13"><a xlink:href="configurable_8h.html" target="_top" xlink:title=" ">
<polygon fill="#ffffff" stroke="#000000" points="551.7734,-165.5 551.7734,-183.5 665.0439,-183.5 665.0439,-165.5 551.7734,-165.5"/>
<text text-anchor="middle" x="608.4087" y="-171.5" font-family="Helvetica,sans-Serif" font-size="10.00" fill="#000000">system/configurable.h</text>
</a>
</g>
</g>
<!-- Node9&#45;&gt;Node12 -->
<g id="edge14" class="edge">
<title>Node9&#45;&gt;Node12</title>
<path fill="none" stroke="#191970" d="M415.295,-220.4795C454.9913,-211.0279 517.4531,-196.1561 560.5355,-185.8984"/>
<polygon fill="#191970" stroke="#191970" points="561.5844,-189.2466 570.5017,-183.5255 559.963,-182.4369 561.5844,-189.2466"/>
</g>
<!-- Node14 -->
<g id="node15" class="node">
<title>Node14</title>
<g id="a_node15"><a xlink:href="enable_8h.html" target="_top" xlink:title=" ">
<polygon fill="#ffffff" stroke="#000000" points="0,-110.5 0,-128.5 88.8174,-128.5 88.8174,-110.5 0,-110.5"/>
<text text-anchor="middle" x="44.4087" y="-116.5" font-family="Helvetica,sans-Serif" font-size="10.00" fill="#000000">system/enable.h</text>
</a>
</g>
</g>
<!-- Node9&#45;&gt;Node14 -->
<g id="edge18" class="edge">
<title>Node9&#45;&gt;Node14</title>
<path fill="none" stroke="#191970" d="M341.7467,-220.4376C308.7428,-211.8259 258.4296,-198.1255 215.4087,-184 166.1586,-167.8292 110.126,-146.0292 76.0258,-132.3707"/>
<polygon fill="#191970" stroke="#191970" points="77.18,-129.0624 66.5962,-128.5772 74.5673,-135.5566 77.18,-129.0624"/>
</g>
<!-- Node16 -->
<g id="node17" class="node">
<title>Node16</title>
<g id="a_node17"><a xlink:href="observable_8h.html" target="_top" xlink:title=" ">
<polygon fill="#ffffff" stroke="#000000" points="454.5542,-110.5 454.5542,-128.5 562.2632,-128.5 562.2632,-110.5 454.5542,-110.5"/>
<text text-anchor="middle" x="508.4087" y="-116.5" font-family="Helvetica,sans-Serif" font-size="10.00" fill="#000000">system/observable.h</text>
</a>
</g>
</g>
<!-- Node9&#45;&gt;Node16 -->
<g id="edge22" class="edge">
<title>Node9&#45;&gt;Node16</title>
<path fill="none" stroke="#191970" d="M416.6679,-220.453C449.8179,-211.9548 493.5759,-198.418 504.4087,-184 513.9806,-171.2601 514.1626,-152.8027 512.4276,-138.8935"/>
<polygon fill="#191970" stroke="#191970" points="515.8605,-138.2004 510.7678,-128.9098 508.9552,-139.3484 515.8605,-138.2004"/>
</g>
<!-- Node20 -->
<g id="node21" class="node">
<title>Node20</title>
<g id="a_node21"><a xlink:href="valueproducer_8h.html" target="_top" xlink:title=" ">
<polygon fill="#ffffff" stroke="#000000" points="326.6011,-165.5 326.6011,-183.5 448.2163,-183.5 448.2163,-165.5 326.6011,-165.5"/>
<text text-anchor="middle" x="387.4087" y="-171.5" font-family="Helvetica,sans-Serif" font-size="10.00" fill="#000000">system/valueproducer.h</text>
</a>
</g>
</g>
<!-- Node9&#45;&gt;Node20 -->
<g id="edge27" class="edge">
<title>Node9&#45;&gt;Node20</title>
<path fill="none" stroke="#191970" d="M379.06,-220.4179C380.3694,-213.2164 382.2458,-202.8962 383.8881,-193.8632"/>
<polygon fill="#191970" stroke="#191970" points="387.3761,-194.2443 385.7215,-183.7795 380.489,-192.992 387.3761,-194.2443"/>
</g>
<!-- Node12&#45;&gt;Node2 -->
<g id="edge15" class="edge">
<title>Node12&#45;&gt;Node2</title>
<path fill="none" stroke="#191970" d="M566.3702,-165.4699C532.9469,-157.6509 485.3373,-145.0733 445.4087,-129 410.1556,-114.8088 371.8844,-93.0237 348.2702,-78.7671"/>
<polygon fill="#191970" stroke="#191970" points="350.0412,-75.7476 339.6825,-73.523 346.393,-81.7218 350.0412,-75.7476"/>
</g>
<!-- Node12&#45;&gt;Node11 -->
<g id="edge17" class="edge">
<title>Node12&#45;&gt;Node11</title>
<path fill="none" stroke="#191970" d="M620.7934,-165.4179C632.1927,-157.0584 649.3224,-144.4966 662.7852,-134.6239"/>
<polygon fill="#191970" stroke="#191970" points="665.0113,-137.3317 671.0056,-128.5956 660.8717,-131.6869 665.0113,-137.3317"/>
</g>
<!-- Node13 -->
<g id="node14" class="node">
<title>Node13</title>
<g id="a_node14"><a xlink:title=" ">
<polygon fill="#ffffff" stroke="#bfbfbf" points="590.6821,-110.5 590.6821,-128.5 626.1353,-128.5 626.1353,-110.5 590.6821,-110.5"/>
<text text-anchor="middle" x="608.4087" y="-116.5" font-family="Helvetica,sans-Serif" font-size="10.00" fill="#000000">map</text>
</a>
</g>
</g>
<!-- Node12&#45;&gt;Node13 -->
<g id="edge16" class="edge">
<title>Node12&#45;&gt;Node13</title>
<path fill="none" stroke="#191970" d="M608.4087,-165.4179C608.4087,-158.2164 608.4087,-147.8962 608.4087,-138.8632"/>
<polygon fill="#191970" stroke="#191970" points="611.9088,-138.7794 608.4087,-128.7795 604.9088,-138.7795 611.9088,-138.7794"/>
</g>
<!-- Node14&#45;&gt;Node3 -->
<g id="edge19" class="edge">
<title>Node14&#45;&gt;Node3</title>
<path fill="none" stroke="#191970" d="M53.9862,-110.4179C62.4151,-102.425 74.8952,-90.5903 85.0743,-80.9377"/>
<polygon fill="#191970" stroke="#191970" points="87.7751,-83.2001 92.6231,-73.7795 82.9585,-78.1207 87.7751,-83.2001"/>
</g>
<!-- Node14&#45;&gt;Node4 -->
<g id="edge21" class="edge">
<title>Node14&#45;&gt;Node4</title>
<path fill="none" stroke="#191970" d="M66.0407,-110.4179C87.3737,-101.4613 120.1966,-87.6806 144.3212,-77.552"/>
<polygon fill="#191970" stroke="#191970" points="145.8792,-80.6939 153.7446,-73.5956 143.1693,-74.2397 145.8792,-80.6939"/>
</g>
<!-- Node15 -->
<g id="node16" class="node">
<title>Node15</title>
<g id="a_node16"><a xlink:title=" ">
<polygon fill="#ffffff" stroke="#bfbfbf" points="16.5049,-55.5 16.5049,-73.5 60.3125,-73.5 60.3125,-55.5 16.5049,-55.5"/>
<text text-anchor="middle" x="38.4087" y="-61.5" font-family="Helvetica,sans-Serif" font-size="10.00" fill="#000000">queue</text>
</a>
</g>
</g>
<!-- Node14&#45;&gt;Node15 -->
<g id="edge20" class="edge">
<title>Node14&#45;&gt;Node15</title>
<path fill="none" stroke="#191970" d="M43.4179,-110.4179C42.6323,-103.2164 41.5065,-92.8962 40.521,-83.8632"/>
<polygon fill="#191970" stroke="#191970" points="43.9849,-83.3409 39.421,-73.7795 37.0262,-84.1001 43.9849,-83.3409"/>
</g>
<!-- Node17 -->
<g id="node18" class="node">
<title>Node17</title>
<g id="a_node18"><a xlink:title=" ">
<polygon fill="#ffffff" stroke="#bfbfbf" points="547.8447,-55.5 547.8447,-73.5 614.9727,-73.5 614.9727,-55.5 547.8447,-55.5"/>
<text text-anchor="middle" x="581.4087" y="-61.5" font-family="Helvetica,sans-Serif" font-size="10.00" fill="#000000">forward_list</text>
</a>
</g>
</g>
<!-- Node16&#45;&gt;Node17 -->
<g id="edge23" class="edge">
<title>Node16&#45;&gt;Node17</title>
<path fill="none" stroke="#191970" d="M520.4632,-110.4179C531.492,-102.1084 548.0319,-89.6469 561.0994,-79.8015"/>
<polygon fill="#191970" stroke="#191970" points="563.2116,-82.5924 569.0923,-73.7795 558.9993,-77.0016 563.2116,-82.5924"/>
</g>
<!-- Node18 -->
<g id="node19" class="node">
<title>Node18</title>
<g id="a_node19"><a xlink:title=" ">
<polygon fill="#ffffff" stroke="#bfbfbf" points="410.0049,-55.5 410.0049,-73.5 468.8125,-73.5 468.8125,-55.5 410.0049,-55.5"/>
<text text-anchor="middle" x="439.4087" y="-61.5" font-family="Helvetica,sans-Serif" font-size="10.00" fill="#000000">functional</text>
</a>
</g>
</g>
<!-- Node16&#45;&gt;Node18 -->
<g id="edge24" class="edge">
<title>Node16&#45;&gt;Node18</title>
<path fill="none" stroke="#191970" d="M497.0147,-110.4179C486.6895,-102.1876 471.2539,-89.8839 458.959,-80.0836"/>
<polygon fill="#191970" stroke="#191970" points="461.0516,-77.2757 451.0502,-73.7795 456.6883,-82.7495 461.0516,-77.2757"/>
</g>
<!-- Node19 -->
<g id="node20" class="node">
<title>Node19</title>
<g id="a_node20"><a xlink:title=" ">
<polygon fill="#ffffff" stroke="#bfbfbf" points="486.793,-55.5 486.793,-73.5 530.0244,-73.5 530.0244,-55.5 486.793,-55.5"/>
<text text-anchor="middle" x="508.4087" y="-61.5" font-family="Helvetica,sans-Serif" font-size="10.00" fill="#000000">vector</text>
</a>
</g>
</g>
<!-- Node16&#45;&gt;Node19 -->
<g id="edge25" class="edge">
<title>Node16&#45;&gt;Node19</title>
<path fill="none" stroke="#191970" d="M508.4087,-110.4179C508.4087,-103.2164 508.4087,-92.8962 508.4087,-83.8632"/>
<polygon fill="#191970" stroke="#191970" points="511.9088,-83.7794 508.4087,-73.7795 504.9088,-83.7795 511.9088,-83.7794"/>
</g>
<!-- Node20&#45;&gt;Node1 -->
<g id="edge30" class="edge">
<title>Node20&#45;&gt;Node1</title>
<path fill="none" stroke="#191970" d="M351.4104,-165.4179C314.0627,-155.9953 255.5528,-141.2336 214.998,-131.0019"/>
<polygon fill="#191970" stroke="#191970" points="215.6505,-127.5569 205.0981,-128.5042 213.9381,-134.3442 215.6505,-127.5569"/>
</g>
<!-- Node20&#45;&gt;Node2 -->
<g id="edge28" class="edge">
<title>Node20&#45;&gt;Node2</title>
<path fill="none" stroke="#191970" d="M382.335,-165.4982C372.1167,-147.369 348.8925,-106.1647 335.4786,-82.3659"/>
<polygon fill="#191970" stroke="#191970" points="338.5117,-80.6191 330.5525,-73.6261 332.4137,-84.0562 338.5117,-80.6191"/>
</g>
<!-- Node20&#45;&gt;Node16 -->
<g id="edge29" class="edge">
<title>Node20&#45;&gt;Node16</title>
<path fill="none" stroke="#191970" d="M407.3894,-165.4179C426.9187,-156.5409 456.8731,-142.9253 479.0982,-132.823"/>
<polygon fill="#191970" stroke="#191970" points="480.743,-135.92 488.3983,-128.5956 477.8463,-129.5474 480.743,-135.92"/>
</g>
</g>
</svg>
        <g id="navigator" transform="translate(0 0)" fill="#404254">
                <rect fill="#f2f5e9" fill-opacity="0.5" stroke="#606060" stroke-width=".5" x="0" y="0" width="60" height="60"/>
                <use id="zoomplus" xlink:href="#zoomPlus" x="17" y="9" onmousedown="handleZoom(evt,'in')"/>
                <use id="zoomminus" xlink:href="#zoomMin" x="42" y="9" onmousedown="handleZoom(evt,'out')"/>
                <use id="reset" xlink:href="#resetDef" x="30" y="36" onmousedown="handleReset()"/>
                <g id="arrowUp" xlink:href="#dirArrow" transform="translate(30 24)" onmousedown="handlePan(0,-1)">
                  <use xlink:href="#rim" fill="#404040">
                        <set attributeName="fill" to="#808080" begin="arrowUp.mouseover" end="arrowUp.mouseout"/>
                  </use>
                  <path fill="none" stroke="white" stroke-width="1.5" d="M0,-3.0v7 M-2.5,-0.5L0,-3.0L2.5,-0.5"/>
                </g>
                <g id="arrowRight" xlink:href="#dirArrow" transform="rotate(90) translate(36 -43)" onmousedown="handlePan(1,0)">
                  <use xlink:href="#rim" fill="#404040">
                        <set attributeName="fill" to="#808080" begin="arrowRight.mouseover" end="arrowRight.mouseout"/>
                  </use>
                  <path fill="none" stroke="white" stroke-width="1.5" d="M0,-3.0v7 M-2.5,-0.5L0,-3.0L2.5,-0.5"/>
                </g>
                <g id="arrowDown" xlink:href="#dirArrow" transform="rotate(180) translate(-30 -48)" onmousedown="handlePan(0,1)">
                  <use xlink:href="#rim" fill="#404040">
                        <set attributeName="fill" to="#808080" begin="arrowDown.mouseover" end="arrowDown.mouseout"/>
                  </use>
                  <path fill="none" stroke="white" stroke-width="1.5" d="M0,-3.0v7 M-2.5,-0.5L0,-3.0L2.5,-0.5"/>
                </g>
                <g id="arrowLeft" xlink:href="#dirArrow" transform="rotate(270) translate(-36 17)" onmousedown="handlePan(-1,0)">
                  <use xlink:href="#rim" fill="#404040">
                        <set attributeName="fill" to="#808080" begin="arrowLeft.mouseover" end="arrowLeft.mouseout"/>
                  </use>
                  <path fill="none" stroke="white" stroke-width="1.5" d="M0,-3.0v7 M-2.5,-0.5L0,-3.0L2.5,-0.5"/>
                </g>
        </g>
        <svg viewBox="0 0 15 15" width="100%" height="30px" preserveAspectRatio="xMaxYMin meet">
         <g id="arrow_out" transform="scale(0.3 0.3)">
          <a xlink:href="smart__switch__controller_8h__incl_org.svg" target="_base">
           <rect id="button" ry="5" rx="5" y="6" x="6" height="38" width="38"
                fill="#f2f5e9" fill-opacity="0.5" stroke="#606060" stroke-width="1.0"/>
           <path id="arrow"
             d="M 11.500037,31.436501 C 11.940474,20.09759 22.043105,11.32322 32.158766,21.979434 L 37.068811,17.246167 C 37.068811,17.246167 37.088388,32 37.088388,32 L 22.160133,31.978069 C 22.160133,31.978069 26.997745,27.140456 26.997745,27.140456 C 18.528582,18.264221 13.291696,25.230495 11.500037,31.436501 z"
             style="fill:#404040;"/>
          </a>
         </g>
        </svg>
</svg>
