<?xml version="1.0" encoding="UTF-8" standalone="no"?>
<!DOCTYPE svg PUBLIC "-//W3C//DTD SVG 1.1//EN"
 "http://www.w3.org/Graphics/SVG/1.1/DTD/svg11.dtd">
<!-- Generated by graphviz version 12.1.0 (20240811.2233)
 -->
<!-- Title: src/sensesp/controllers/smart_switch_controller.cpp Pages: 1 -->
<!--zoomable 514 -->

<svg id="main" version="1.1" xmlns="http://www.w3.org/2000/svg" xmlns:xlink="http://www.w3.org/1999/xlink" xml:space="preserve" onload="init(evt)">

<style type="text/css"><![CDATA[
.node, .edge {opacity: 0.7;}
.node.selected, .edge.selected {opacity: 1;}
.edge:hover path { stroke: red; }
.edge:hover polygon { stroke: red; fill: red; }
]]></style>

<defs>
  <circle id="rim" cx="0" cy="0" r="7"/>
  <circle id="rim2" cx="0" cy="0" r="3.5"/>
  <g id="zoomPlus">
    <use xlink:href="#rim" fill="#404040"><set attributeName="fill" to="#808080" begin="zoomplus.mouseover" end="zoomplus.mouseout"/></use>
    <path d="M-4,0h8M0,-4v8" fill="none" stroke="white" stroke-width="1.5" pointer-events="none"/>
  </g>
  <g id="zoomMin">
    <use xlink:href="#rim" fill="#404040"><set attributeName="fill" to="#808080" begin="zoomminus.mouseover" end="zoomminus.mouseout"/></use>
    <path d="M-4,0h8" fill="none" stroke="white" stroke-width="1.5" pointer-events="none"/>
  </g>
  <g id="arrowUp" transform="translate(30 24)">
    <use xlink:href="#rim"/>
    <path pointer-events="none" fill="none" stroke="white" stroke-width="1.5" d="M0,-3.0v7 M-2.5,-0.5L0,-3.0L2.5,-0.5"/>
  </g>
  <g id="arrowRight" transform="rotate(90) translate(36 -43)">
    <use xlink:href="#rim"/>
    <path pointer-events="none" fill="none" stroke="white" stroke-width="1.5" d="M0,-3.0v7 M-2.5,-0.5L0,-3.0L2.5,-0.5"/>
  </g>
  <g id="arrowDown" transform="rotate(180) translate(-30 -48)">
    <use xlink:href="#rim"/>
    <path pointer-events="none" fill="none" stroke="white" stroke-width="1.5" d="M0,-3.0v7 M-2.5,-0.5L0,-3.0L2.5,-0.5"/>
  </g>
  <g id="arrowLeft" transform="rotate(270) translate(-36 17)">
    <use xlink:href="#rim"/>
    <path pointer-events="none" fill="none" stroke="white" stroke-width="1.5" d="M0,-3.0v7 M-2.5,-0.5L0,-3.0L2.5,-0.5"/>
  </g>
  <g id="resetDef">
    <use xlink:href="#rim2" fill="#404040"><set attributeName="fill" to="#808080" begin="reset.mouseover" end="reset.mouseout"/></use>
  </g>
</defs>
<script type="application/ecmascript">
var viewWidth = 1278;
var viewHeight = 514;
var sectionId = 'dynsection-0';
</script>
<script type="application/ecmascript" xlink:href="svg.min.js"/>
<svg id="graph" class="graph">
<g id="viewport">
<title>src/sensesp/controllers/smart_switch_controller.cpp</title>
<!-- Node1 -->
<g id="Node000001" class="node">
<title>Node1</title>
<g id="a_Node000001"><a xlink:title=" ">
<polygon fill="#999999" stroke="#666666" points="663.83,-506.25 523.33,-506.25 523.33,-475.75 663.83,-475.75 663.83,-506.25"/>
<text text-anchor="start" x="531.33" y="-492.75" font-family="Helvetica,sans-Serif" font-size="10.00">src/sensesp/controllers</text>
<text text-anchor="middle" x="593.58" y="-481.5" font-family="Helvetica,sans-Serif" font-size="10.00">/smart_switch_controller.cpp</text>
</a>
</g>
</g>
<!-- Node2 -->
<g id="Node000002" class="node">
<title>Node2</title>
<g id="a_Node000002"><a xlink:href="smart__switch__controller_8h.html" target="_top" xlink:title=" ">
<polygon fill="white" stroke="#666666" points="449.08,-439.75 322.08,-439.75 322.08,-420.5 449.08,-420.5 449.08,-439.75"/>
<text text-anchor="middle" x="385.58" y="-426.25" font-family="Helvetica,sans-Serif" font-size="10.00">smart_switch_controller.h</text>
</a>
</g>
</g>
<!-- Node1&#45;&gt;Node2 -->
<g id="edge1_Node000001_Node000002" class="edge">
<title>Node1&#45;&gt;Node2</title>
<g id="a_edge1_Node000001_Node000002"><a xlink:title=" ">
<path fill="none" stroke="#63b8ff" d="M541.63,-475.3C506.86,-465.45 461.64,-452.65 428.84,-443.37"/>
<polygon fill="#63b8ff" stroke="#63b8ff" points="429.82,-440.01 419.24,-440.65 427.91,-446.74 429.82,-440.01"/>
</a>
</g>
</g>
<!-- Node29 -->
<g id="Node000029" class="node">
<title>Node29</title>
<g id="a_Node000029"><a xlink:href="truth__text_8h.html" target="_top" xlink:title=" ">
<polygon fill="white" stroke="#666666" points="644.71,-384.5 542.46,-384.5 542.46,-354 644.71,-354 644.71,-384.5"/>
<text text-anchor="start" x="550.46" y="-371" font-family="Helvetica,sans-Serif" font-size="10.00">sensesp/transforms</text>
<text text-anchor="middle" x="593.58" y="-359.75" font-family="Helvetica,sans-Serif" font-size="10.00">/truth_text.h</text>
</a>
</g>
</g>
<!-- Node1&#45;&gt;Node29 -->
<g id="edge54_Node000001_Node000029" class="edge">
<title>Node1&#45;&gt;Node29</title>
<g id="a_edge54_Node000001_Node000029"><a xlink:title=" ">
<path fill="none" stroke="#63b8ff" d="M593.58,-475.32C593.58,-455.64 593.58,-420.39 593.58,-396.19"/>
<polygon fill="#63b8ff" stroke="#63b8ff" points="597.08,-396.19 593.58,-386.19 590.08,-396.19 597.08,-396.19"/>
</a>
</g>
</g>
<!-- Node30 -->
<g id="Node000030" class="node">
<title>Node30</title>
<g id="a_Node000030"><a xlink:href="sensesp__base__app_8h.html" target="_top" xlink:title=" ">
<polygon fill="white" stroke="#666666" points="1072.71,-439.75 964.46,-439.75 964.46,-420.5 1072.71,-420.5 1072.71,-439.75"/>
<text text-anchor="middle" x="1018.58" y="-426.25" font-family="Helvetica,sans-Serif" font-size="10.00">sensesp_base_app.h</text>
</a>
</g>
</g>
<!-- Node1&#45;&gt;Node30 -->
<g id="edge55_Node000001_Node000030" class="edge">
<title>Node1&#45;&gt;Node30</title>
<g id="a_edge55_Node000001_Node000030"><a xlink:title=" ">
<path fill="none" stroke="#63b8ff" d="M664.24,-480.21C744.55,-469.09 874.62,-451.07 952.84,-440.23"/>
<polygon fill="#63b8ff" stroke="#63b8ff" points="953.06,-443.73 962.49,-438.9 952.1,-436.8 953.06,-443.73"/>
</a>
</g>
</g>
<!-- Node3 -->
<g id="Node000003" class="node">
<title>Node3</title>
<g id="a_Node000003"><a xlink:href="signalk__put__request_8h.html" target="_top" xlink:title=" ">
<polygon fill="white" stroke="#666666" points="356.71,-384.5 236.46,-384.5 236.46,-354 356.71,-354 356.71,-384.5"/>
<text text-anchor="start" x="244.46" y="-371" font-family="Helvetica,sans-Serif" font-size="10.00">sensesp/signalk/signalk</text>
<text text-anchor="middle" x="296.58" y="-359.75" font-family="Helvetica,sans-Serif" font-size="10.00">_put_request.h</text>
</a>
</g>
</g>
<!-- Node2&#45;&gt;Node3 -->
<g id="edge2_Node000002_Node000003" class="edge">
<title>Node2&#45;&gt;Node3</title>
<g id="a_edge2_Node000002_Node000003"><a xlink:title=" ">
<path fill="none" stroke="#63b8ff" d="M372.06,-420.18C360.42,-412.48 343.15,-401.05 328.06,-391.08"/>
<polygon fill="#63b8ff" stroke="#63b8ff" points="330.08,-388.22 319.81,-385.62 326.22,-394.05 330.08,-388.22"/>
</a>
</g>
</g>
<!-- Node7 -->
<g id="Node000007" class="node">
<title>Node7</title>
<g id="a_Node000007"><a xlink:href="config__item_8h.html" target="_top" xlink:title=" ">
<polygon fill="white" stroke="#666666" points="447.96,-312.38 323.21,-312.38 323.21,-293.12 447.96,-293.12 447.96,-312.38"/>
<text text-anchor="middle" x="385.58" y="-298.88" font-family="Helvetica,sans-Serif" font-size="10.00">sensesp/ui/config_item.h</text>
</a>
</g>
</g>
<!-- Node2&#45;&gt;Node7 -->
<g id="edge53_Node000002_Node000007" class="edge">
<title>Node2&#45;&gt;Node7</title>
<g id="a_edge53_Node000002_Node000007"><a xlink:title=" ">
<path fill="none" stroke="#63b8ff" d="M385.58,-420.11C385.58,-400.14 385.58,-351.76 385.58,-324.08"/>
<polygon fill="#63b8ff" stroke="#63b8ff" points="389.08,-324.2 385.58,-314.2 382.08,-324.2 389.08,-324.2"/>
</a>
</g>
</g>
<!-- Node19 -->
<g id="Node000019" class="node">
<title>Node19</title>
<g id="a_Node000019"><a xlink:href="valueconsumer_8h.html" target="_top" xlink:title=" ">
<polygon fill="white" stroke="#666666" points="331.83,-196.25 167.33,-196.25 167.33,-177 331.83,-177 331.83,-196.25"/>
<text text-anchor="middle" x="249.58" y="-182.75" font-family="Helvetica,sans-Serif" font-size="10.00">sensesp/system/valueconsumer.h</text>
</a>
</g>
</g>
<!-- Node2&#45;&gt;Node19 -->
<g id="edge32_Node000002_Node000019" class="edge">
<title>Node2&#45;&gt;Node19</title>
<g id="a_edge32_Node000002_Node000019"><a xlink:title=" ">
<path fill="none" stroke="#63b8ff" d="M321.6,-420.21C223.56,-405 43.84,-370.52 9.58,-318 -34.67,-250.15 87.01,-214.8 172.87,-198.79"/>
<polygon fill="#63b8ff" stroke="#63b8ff" points="173.49,-202.23 182.71,-197.01 172.25,-195.34 173.49,-202.23"/>
</a>
</g>
</g>
<!-- Node21 -->
<g id="Node000021" class="node">
<title>Node21</title>
<g id="a_Node000021"><a xlink:href="lambda__consumer_8h.html" target="_top" xlink:title=" ">
<polygon fill="white" stroke="#666666" points="140.83,-318 18.33,-318 18.33,-287.5 140.83,-287.5 140.83,-318"/>
<text text-anchor="start" x="26.33" y="-304.5" font-family="Helvetica,sans-Serif" font-size="10.00">sensesp/system/lambda</text>
<text text-anchor="middle" x="79.58" y="-293.25" font-family="Helvetica,sans-Serif" font-size="10.00">_consumer.h</text>
</a>
</g>
</g>
<!-- Node2&#45;&gt;Node21 -->
<g id="edge30_Node000002_Node000021" class="edge">
<title>Node2&#45;&gt;Node21</title>
<g id="a_edge30_Node000002_Node000021"><a xlink:title=" ">
<path fill="none" stroke="#63b8ff" d="M343.81,-420.04C311.46,-412.36 265.85,-400.11 227.58,-384.5 186.25,-367.64 141.63,-342.2 112.32,-324.4"/>
<polygon fill="#63b8ff" stroke="#63b8ff" points="114.26,-321.49 103.91,-319.24 110.6,-327.45 114.26,-321.49"/>
</a>
</g>
</g>
<!-- Node22 -->
<g id="Node000022" class="node">
<title>Node22</title>
<g id="a_Node000022"><a xlink:href="click__type_8h.html" target="_top" xlink:title=" ">
<polygon fill="white" stroke="#666666" points="521.71,-384.5 419.46,-384.5 419.46,-354 521.71,-354 521.71,-384.5"/>
<text text-anchor="start" x="427.46" y="-371" font-family="Helvetica,sans-Serif" font-size="10.00">sensesp/transforms</text>
<text text-anchor="middle" x="470.58" y="-359.75" font-family="Helvetica,sans-Serif" font-size="10.00">/click_type.h</text>
</a>
</g>
</g>
<!-- Node2&#45;&gt;Node22 -->
<g id="edge33_Node000002_Node000022" class="edge">
<title>Node2&#45;&gt;Node22</title>
<g id="a_edge33_Node000002_Node000022"><a xlink:title=" ">
<path fill="none" stroke="#63b8ff" d="M398.49,-420.18C409.62,-412.48 426.11,-401.05 440.51,-391.08"/>
<polygon fill="#63b8ff" stroke="#63b8ff" points="442.13,-394.22 448.36,-385.64 438.14,-388.46 442.13,-394.22"/>
</a>
</g>
</g>
<!-- Node2&#45;&gt;Node29 -->
<g id="edge51_Node000002_Node000029" class="edge">
<title>Node2&#45;&gt;Node29</title>
<g id="a_edge51_Node000002_Node000029"><a xlink:title=" ">
<path fill="none" stroke="#63b8ff" d="M417.63,-420.05C447.81,-411.51 493.85,-398.48 531.26,-387.89"/>
<polygon fill="#63b8ff" stroke="#63b8ff" points="531.94,-391.33 540.61,-385.24 530.04,-384.6 531.94,-391.33"/>
</a>
</g>
</g>
<!-- Node4 -->
<g id="Node000004" class="node">
<title>Node4</title>
<g id="a_Node000004"><a xlink:title=" ">
<polygon fill="#e0e0e0" stroke="#999999" points="474.71,-141 396.46,-141 396.46,-121.75 474.71,-121.75 474.71,-141"/>
<text text-anchor="middle" x="435.58" y="-127.5" font-family="Helvetica,sans-Serif" font-size="10.00">ArduinoJson.h</text>
</a>
</g>
</g>
<!-- Node3&#45;&gt;Node4 -->
<g id="edge3_Node000003_Node000004" class="edge">
<title>Node3&#45;&gt;Node4</title>
<g id="a_edge3_Node000003_Node000004"><a xlink:title=" ">
<path fill="none" stroke="#63b8ff" d="M278.41,-353.52C248.68,-327.61 195.77,-272.82 225.58,-232.25 257.29,-189.09 292.3,-219.43 340.58,-196.25 368.22,-182.98 397.05,-162.51 415.59,-148.33"/>
<polygon fill="#63b8ff" stroke="#63b8ff" points="417.59,-151.21 423.34,-142.31 413.29,-145.68 417.59,-151.21"/>
</a>
</g>
</g>
<!-- Node5 -->
<g id="Node000005" class="node">
<title>Node5</title>
<g id="a_Node000005"><a xlink:title=" ">
<polygon fill="#e0e0e0" stroke="#999999" points="1179.58,-141 1121.58,-141 1121.58,-121.75 1179.58,-121.75 1179.58,-141"/>
<text text-anchor="middle" x="1150.58" y="-127.5" font-family="Helvetica,sans-Serif" font-size="10.00">functional</text>
</a>
</g>
</g>
<!-- Node3&#45;&gt;Node5 -->
<g id="edge4_Node000003_Node000005" class="edge">
<title>Node3&#45;&gt;Node5</title>
<g id="a_edge4_Node000003_Node000005"><a xlink:title=" ">
<path fill="none" stroke="#63b8ff" d="M357.13,-360.62C507.42,-341.32 894.34,-289.45 1018.58,-251.5 1076.28,-233.88 1106.64,-244.71 1142.58,-196.25 1151.86,-183.74 1153.41,-165.93 1152.89,-152.29"/>
<polygon fill="#63b8ff" stroke="#63b8ff" points="1156.41,-152.4 1152.12,-142.71 1149.43,-152.96 1156.41,-152.4"/>
</a>
</g>
</g>
<!-- Node6 -->
<g id="Node000006" class="node">
<title>Node6</title>
<g id="a_Node000006"><a xlink:title=" ">
<polygon fill="#e0e0e0" stroke="#999999" points="268.96,-251.5 234.21,-251.5 234.21,-232.25 268.96,-232.25 268.96,-251.5"/>
<text text-anchor="middle" x="251.58" y="-238" font-family="Helvetica,sans-Serif" font-size="10.00">map</text>
</a>
</g>
</g>
<!-- Node3&#45;&gt;Node6 -->
<g id="edge5_Node000003_Node000006" class="edge">
<title>Node3&#45;&gt;Node6</title>
<g id="a_edge5_Node000003_Node000006"><a xlink:title=" ">
<path fill="none" stroke="#63b8ff" d="M291.42,-353.87C283.36,-331.43 267.79,-288.03 258.68,-262.66"/>
<polygon fill="#63b8ff" stroke="#63b8ff" points="261.98,-261.47 255.3,-253.24 255.39,-263.84 261.98,-261.47"/>
</a>
</g>
</g>
<!-- Node3&#45;&gt;Node7 -->
<g id="edge6_Node000003_Node000007" class="edge">
<title>Node3&#45;&gt;Node7</title>
<g id="a_edge6_Node000003_Node000007"><a xlink:title=" ">
<path fill="none" stroke="#63b8ff" d="M316.78,-353.61C330.86,-343.41 349.63,-329.8 364.01,-319.38"/>
<polygon fill="#63b8ff" stroke="#63b8ff" points="365.88,-322.35 371.92,-313.65 361.77,-316.68 365.88,-322.35"/>
</a>
</g>
</g>
<!-- Node3&#45;&gt;Node19 -->
<g id="edge26_Node000003_Node000019" class="edge">
<title>Node3&#45;&gt;Node19</title>
<g id="a_edge26_Node000003_Node000019"><a xlink:title=" ">
<path fill="none" stroke="#63b8ff" d="M238.84,-353.59C220.9,-346.03 203.08,-334.73 192.58,-318 172.33,-285.72 175.89,-266.51 192.58,-232.25 198.57,-219.97 209.75,-210.07 220.63,-202.74"/>
<polygon fill="#63b8ff" stroke="#63b8ff" points="222.41,-205.76 229.1,-197.54 218.75,-199.79 222.41,-205.76"/>
</a>
</g>
</g>
<!-- Node7&#45;&gt;Node4 -->
<g id="edge12_Node000007_Node000004" class="edge">
<title>Node7&#45;&gt;Node4</title>
<g id="a_edge12_Node000007_Node000004"><a xlink:title=" ">
<path fill="none" stroke="#63b8ff" d="M388.13,-292.65C393.92,-272.03 408.58,-220.17 421.58,-177 424.04,-168.84 426.84,-159.86 429.28,-152.12"/>
<polygon fill="#63b8ff" stroke="#63b8ff" points="432.58,-153.28 432.27,-142.69 425.91,-151.16 432.58,-153.28"/>
</a>
</g>
</g>
<!-- Node7&#45;&gt;Node6 -->
<g id="edge7_Node000007_Node000006" class="edge">
<title>Node7&#45;&gt;Node6</title>
<g id="a_edge7_Node000007_Node000006"><a xlink:title=" ">
<path fill="none" stroke="#63b8ff" d="M364.94,-292.68C342.04,-282.62 304.98,-266.34 279.51,-255.15"/>
<polygon fill="#63b8ff" stroke="#63b8ff" points="280.99,-251.97 270.43,-251.16 278.18,-258.38 280.99,-251.97"/>
</a>
</g>
</g>
<!-- Node8 -->
<g id="Node000008" class="node">
<title>Node8</title>
<g id="a_Node000008"><a xlink:title=" ">
<polygon fill="#e0e0e0" stroke="#999999" points="927.21,-196.25 875.96,-196.25 875.96,-177 927.21,-177 927.21,-196.25"/>
<text text-anchor="middle" x="901.58" y="-182.75" font-family="Helvetica,sans-Serif" font-size="10.00">memory</text>
</a>
</g>
</g>
<!-- Node7&#45;&gt;Node8 -->
<g id="edge8_Node000007_Node000008" class="edge">
<title>Node7&#45;&gt;Node8</title>
<g id="a_edge8_Node000007_Node000008"><a xlink:title=" ">
<path fill="none" stroke="#63b8ff" d="M430.08,-292.67C439.17,-290.89 448.67,-289.09 457.58,-287.5 558.15,-269.58 584.93,-273.97 684.58,-251.5 748.76,-237.03 821.87,-214.14 864.74,-200.05"/>
<polygon fill="#63b8ff" stroke="#63b8ff" points="865.65,-203.44 874.04,-196.97 863.45,-196.79 865.65,-203.44"/>
</a>
</g>
</g>
<!-- Node9 -->
<g id="Node000009" class="node">
<title>Node9</title>
<g id="a_Node000009"><a xlink:title=" ">
<polygon fill="#e0e0e0" stroke="#999999" points="915.08,-141 872.08,-141 872.08,-121.75 915.08,-121.75 915.08,-141"/>
<text text-anchor="middle" x="893.58" y="-127.5" font-family="Helvetica,sans-Serif" font-size="10.00">vector</text>
</a>
</g>
</g>
<!-- Node7&#45;&gt;Node9 -->
<g id="edge9_Node000007_Node000009" class="edge">
<title>Node7&#45;&gt;Node9</title>
<g id="a_edge9_Node000007_Node000009"><a xlink:title=" ">
<path fill="none" stroke="#63b8ff" d="M430.89,-292.7C439.74,-290.95 448.95,-289.16 457.58,-287.5 543.71,-270.99 569.38,-282.05 651.58,-251.5 667.5,-245.59 669.58,-240.2 684.58,-232.25 746.76,-199.33 821.57,-164.76 862.7,-146.17"/>
<polygon fill="#63b8ff" stroke="#63b8ff" points="864.07,-149.39 871.75,-142.09 861.2,-143.01 864.07,-149.39"/>
</a>
</g>
</g>
<!-- Node10 -->
<g id="Node000010" class="node">
<title>Node10</title>
<g id="a_Node000010"><a xlink:title=" ">
<polygon fill="#e0e0e0" stroke="#999999" points="372.71,-251.5 324.46,-251.5 324.46,-232.25 372.71,-232.25 372.71,-251.5"/>
<text text-anchor="middle" x="348.58" y="-238" font-family="Helvetica,sans-Serif" font-size="10.00">cstddef</text>
</a>
</g>
</g>
<!-- Node7&#45;&gt;Node10 -->
<g id="edge10_Node000007_Node000010" class="edge">
<title>Node7&#45;&gt;Node10</title>
<g id="a_edge10_Node000007_Node000010"><a xlink:title=" ">
<path fill="none" stroke="#63b8ff" d="M379.96,-292.81C374.75,-284.51 366.82,-271.89 360.24,-261.42"/>
<polygon fill="#63b8ff" stroke="#63b8ff" points="363.34,-259.79 355.06,-253.18 357.42,-263.51 363.34,-259.79"/>
</a>
</g>
</g>
<!-- Node11 -->
<g id="Node000011" class="node">
<title>Node11</title>
<g id="a_Node000011"><a xlink:title=" ">
<polygon fill="#e0e0e0" stroke="#999999" points="649.21,-19.25 591.96,-19.25 591.96,0 649.21,0 649.21,-19.25"/>
<text text-anchor="middle" x="620.58" y="-5.75" font-family="Helvetica,sans-Serif" font-size="10.00">Arduino.h</text>
</a>
</g>
</g>
<!-- Node7&#45;&gt;Node11 -->
<g id="edge11_Node000007_Node000011" class="edge">
<title>Node7&#45;&gt;Node11</title>
<g id="a_edge11_Node000007_Node000011"><a xlink:title=" ">
<path fill="none" stroke="#63b8ff" d="M373.91,-292.67C354.75,-278.14 315.03,-249.55 277.58,-232.25 224.65,-207.79 135.61,-230.6 158.58,-177 172.6,-144.28 185.59,-139.28 216.58,-121.75 338.14,-52.99 504.58,-24.87 580.23,-15.1"/>
<polygon fill="#63b8ff" stroke="#63b8ff" points="580.57,-18.58 590.06,-13.87 579.71,-11.64 580.57,-18.58"/>
</a>
</g>
</g>
<!-- Node12 -->
<g id="Node000012" class="node">
<title>Node12</title>
<g id="a_Node000012"><a xlink:href="saveable_8h.html" target="_top" xlink:title=" ">
<polygon fill="white" stroke="#666666" points="642.71,-251.5 504.46,-251.5 504.46,-232.25 642.71,-232.25 642.71,-251.5"/>
<text text-anchor="middle" x="573.58" y="-238" font-family="Helvetica,sans-Serif" font-size="10.00">sensesp/system/saveable.h</text>
</a>
</g>
</g>
<!-- Node7&#45;&gt;Node12 -->
<g id="edge13_Node000007_Node000012" class="edge">
<title>Node7&#45;&gt;Node12</title>
<g id="a_edge13_Node000007_Node000012"><a xlink:title=" ">
<path fill="none" stroke="#63b8ff" d="M414.54,-292.68C446.56,-282.65 498.32,-266.44 534.05,-255.25"/>
<polygon fill="#63b8ff" stroke="#63b8ff" points="534.64,-258.74 543.14,-252.41 532.55,-252.06 534.64,-258.74"/>
</a>
</g>
</g>
<!-- Node12&#45;&gt;Node4 -->
<g id="edge20_Node000012_Node000004" class="edge">
<title>Node12&#45;&gt;Node4</title>
<g id="a_edge20_Node000012_Node000004"><a xlink:title=" ">
<path fill="none" stroke="#63b8ff" d="M555.2,-231.88C539.24,-223.65 515.87,-210.61 497.58,-196.25 479.8,-182.29 462.1,-163.44 450.19,-149.83"/>
<polygon fill="#63b8ff" stroke="#63b8ff" points="453.1,-147.84 443.93,-142.53 447.78,-152.4 453.1,-147.84"/>
</a>
</g>
</g>
<!-- Node12&#45;&gt;Node11 -->
<g id="edge21_Node000012_Node000011" class="edge">
<title>Node12&#45;&gt;Node11</title>
<g id="a_edge21_Node000012_Node000011"><a xlink:title=" ">
<path fill="none" stroke="#63b8ff" d="M588.71,-232.07C600.4,-224.31 615.7,-211.83 622.58,-196.25 647.17,-140.59 634.4,-66.06 626,-30.77"/>
<polygon fill="#63b8ff" stroke="#63b8ff" points="629.41,-29.95 623.56,-21.12 622.62,-31.67 629.41,-29.95"/>
</a>
</g>
</g>
<!-- Node13 -->
<g id="Node000013" class="node">
<title>Node13</title>
<g id="a_Node000013"><a xlink:href="sensesp_8h.html" target="_top" xlink:title=" ">
<polygon fill="white" stroke="#666666" points="756.08,-141 695.08,-141 695.08,-121.75 756.08,-121.75 756.08,-141"/>
<text text-anchor="middle" x="725.58" y="-127.5" font-family="Helvetica,sans-Serif" font-size="10.00">sensesp.h</text>
</a>
</g>
</g>
<!-- Node12&#45;&gt;Node13 -->
<g id="edge14_Node000012_Node000013" class="edge">
<title>Node12&#45;&gt;Node13</title>
<g id="a_edge14_Node000012_Node000013"><a xlink:title=" ">
<path fill="none" stroke="#63b8ff" d="M593.25,-231.84C610.37,-223.6 635.52,-210.54 655.58,-196.25 675.37,-182.15 695.62,-163.07 709.21,-149.44"/>
<polygon fill="#63b8ff" stroke="#63b8ff" points="711.55,-152.05 716.05,-142.46 706.55,-147.15 711.55,-152.05"/>
</a>
</g>
</g>
<!-- Node18 -->
<g id="Node000018" class="node">
<title>Node18</title>
<g id="a_Node000018"><a xlink:href="serializable_8h.html" target="_top" xlink:title=" ">
<polygon fill="white" stroke="#666666" points="613.08,-196.25 540.08,-196.25 540.08,-177 613.08,-177 613.08,-196.25"/>
<text text-anchor="middle" x="576.58" y="-182.75" font-family="Helvetica,sans-Serif" font-size="10.00">serializable.h</text>
</a>
</g>
</g>
<!-- Node12&#45;&gt;Node18 -->
<g id="edge22_Node000012_Node000018" class="edge">
<title>Node12&#45;&gt;Node18</title>
<g id="a_edge22_Node000012_Node000018"><a xlink:title=" ">
<path fill="none" stroke="#63b8ff" d="M574.08,-232.08C574.45,-225.49 574.97,-216.21 575.44,-207.82"/>
<polygon fill="#63b8ff" stroke="#63b8ff" points="578.92,-208.3 575.99,-198.12 571.93,-207.91 578.92,-208.3"/>
</a>
</g>
</g>
<!-- Node14 -->
<g id="Node000014" class="node">
<title>Node14</title>
<g id="a_Node000014"><a xlink:title=" ">
<polygon fill="#e0e0e0" stroke="#999999" points="868.21,-80.12 798.96,-80.12 798.96,-60.88 868.21,-60.88 868.21,-80.12"/>
<text text-anchor="middle" x="833.58" y="-66.62" font-family="Helvetica,sans-Serif" font-size="10.00">ReactESP.h</text>
</a>
</g>
</g>
<!-- Node13&#45;&gt;Node14 -->
<g id="edge15_Node000013_Node000014" class="edge">
<title>Node13&#45;&gt;Node14</title>
<g id="a_edge15_Node000013_Node000014"><a xlink:title=" ">
<path fill="none" stroke="#63b8ff" d="M741.98,-121.43C759.27,-112.01 786.76,-97.02 807.12,-85.93"/>
<polygon fill="#63b8ff" stroke="#63b8ff" points="808.59,-89.11 815.7,-81.25 805.24,-82.96 808.59,-89.11"/>
</a>
</g>
</g>
<!-- Node15 -->
<g id="Node000015" class="node">
<title>Node15</title>
<g id="a_Node000015"><a xlink:href="local__debug_8h.html" target="_top" xlink:title=" ">
<polygon fill="white" stroke="#666666" points="781.21,-85.75 669.96,-85.75 669.96,-55.25 781.21,-55.25 781.21,-85.75"/>
<text text-anchor="start" x="677.96" y="-72.25" font-family="Helvetica,sans-Serif" font-size="10.00">sensesp/system/local</text>
<text text-anchor="middle" x="725.58" y="-61" font-family="Helvetica,sans-Serif" font-size="10.00">_debug.h</text>
</a>
</g>
</g>
<!-- Node13&#45;&gt;Node15 -->
<g id="edge16_Node000013_Node000015" class="edge">
<title>Node13&#45;&gt;Node15</title>
<g id="a_edge16_Node000013_Node000015"><a xlink:title=" ">
<path fill="none" stroke="#63b8ff" d="M725.58,-121.43C725.58,-114.98 725.58,-105.91 725.58,-97.26"/>
<polygon fill="#63b8ff" stroke="#63b8ff" points="729.08,-97.55 725.58,-87.55 722.08,-97.55 729.08,-97.55"/>
</a>
</g>
</g>
<!-- Node15&#45;&gt;Node11 -->
<g id="edge18_Node000015_Node000011" class="edge">
<title>Node15&#45;&gt;Node11</title>
<g id="a_edge18_Node000015_Node000011"><a xlink:title=" ">
<path fill="none" stroke="#63b8ff" d="M699.36,-54.8C683.21,-45.74 662.6,-34.19 646.51,-25.16"/>
<polygon fill="#63b8ff" stroke="#63b8ff" points="648.44,-22.23 638,-20.39 645.02,-28.34 648.44,-22.23"/>
</a>
</g>
</g>
<!-- Node16 -->
<g id="Node000016" class="node">
<title>Node16</title>
<g id="a_Node000016"><a xlink:title=" ">
<polygon fill="#e0e0e0" stroke="#999999" points="835.58,-19.25 753.58,-19.25 753.58,0 835.58,0 835.58,-19.25"/>
<text text-anchor="middle" x="794.58" y="-5.75" font-family="Helvetica,sans-Serif" font-size="10.00">esp32&#45;hal&#45;log.h</text>
</a>
</g>
</g>
<!-- Node15&#45;&gt;Node16 -->
<g id="edge17_Node000015_Node000016" class="edge">
<title>Node15&#45;&gt;Node16</title>
<g id="a_edge17_Node000015_Node000016"><a xlink:title=" ">
<path fill="none" stroke="#63b8ff" d="M742.64,-54.95C752.54,-46.5 765.04,-35.83 775.29,-27.08"/>
<polygon fill="#63b8ff" stroke="#63b8ff" points="777.46,-29.84 782.79,-20.68 772.91,-24.51 777.46,-29.84"/>
</a>
</g>
</g>
<!-- Node17 -->
<g id="Node000017" class="node">
<title>Node17</title>
<g id="a_Node000017"><a xlink:title=" ">
<polygon fill="#e0e0e0" stroke="#999999" points="735.83,-19.25 691.33,-19.25 691.33,0 735.83,0 735.83,-19.25"/>
<text text-anchor="middle" x="713.58" y="-5.75" font-family="Helvetica,sans-Serif" font-size="10.00">Print.h</text>
</a>
</g>
</g>
<!-- Node15&#45;&gt;Node17 -->
<g id="edge19_Node000015_Node000017" class="edge">
<title>Node15&#45;&gt;Node17</title>
<g id="a_edge19_Node000015_Node000017"><a xlink:title=" ">
<path fill="none" stroke="#63b8ff" d="M722.62,-54.95C721.14,-47.71 719.33,-38.84 717.72,-30.94"/>
<polygon fill="#63b8ff" stroke="#63b8ff" points="721.16,-30.28 715.73,-21.18 714.3,-31.68 721.16,-30.28"/>
</a>
</g>
</g>
<!-- Node18&#45;&gt;Node4 -->
<g id="edge24_Node000018_Node000004" class="edge">
<title>Node18&#45;&gt;Node4</title>
<g id="a_edge24_Node000018_Node000004"><a xlink:title=" ">
<path fill="none" stroke="#63b8ff" d="M552.66,-176.59C530.08,-168.06 495.95,-155.17 470.35,-145.51"/>
<polygon fill="#63b8ff" stroke="#63b8ff" points="471.63,-142.25 461.03,-141.99 469.15,-148.79 471.63,-142.25"/>
</a>
</g>
</g>
<!-- Node18&#45;&gt;Node11 -->
<g id="edge25_Node000018_Node000011" class="edge">
<title>Node18&#45;&gt;Node11</title>
<g id="a_edge25_Node000018_Node000011"><a xlink:title=" ">
<path fill="none" stroke="#63b8ff" d="M578.82,-176.71C585.59,-149.8 605.92,-68.94 615.49,-30.87"/>
<polygon fill="#63b8ff" stroke="#63b8ff" points="618.88,-31.76 617.92,-21.2 612.09,-30.05 618.88,-31.76"/>
</a>
</g>
</g>
<!-- Node18&#45;&gt;Node13 -->
<g id="edge23_Node000018_Node000013" class="edge">
<title>Node18&#45;&gt;Node13</title>
<g id="a_edge23_Node000018_Node000013"><a xlink:title=" ">
<path fill="none" stroke="#63b8ff" d="M601.86,-176.59C625.94,-167.99 662.44,-154.94 689.56,-145.25"/>
<polygon fill="#63b8ff" stroke="#63b8ff" points="690.52,-148.62 698.76,-141.96 688.16,-142.03 690.52,-148.62"/>
</a>
</g>
</g>
<!-- Node19&#45;&gt;Node4 -->
<g id="edge28_Node000019_Node000004" class="edge">
<title>Node19&#45;&gt;Node4</title>
<g id="a_edge28_Node000019_Node000004"><a xlink:title=" ">
<path fill="none" stroke="#63b8ff" d="M281.13,-176.59C311.86,-167.79 358.79,-154.36 392.86,-144.61"/>
<polygon fill="#63b8ff" stroke="#63b8ff" points="393.77,-147.99 402.42,-141.87 391.84,-141.26 393.77,-147.99"/>
</a>
</g>
</g>
<!-- Node19&#45;&gt;Node13 -->
<g id="edge27_Node000019_Node000013" class="edge">
<title>Node19&#45;&gt;Node13</title>
<g id="a_edge27_Node000019_Node000013"><a xlink:title=" ">
<path fill="none" stroke="#63b8ff" d="M331.14,-176.5C433.23,-165.08 604.26,-145.95 683.25,-137.11"/>
<polygon fill="#63b8ff" stroke="#63b8ff" points="683.61,-140.59 693.16,-136 682.83,-133.64 683.61,-140.59"/>
</a>
</g>
</g>
<!-- Node20 -->
<g id="Node000020" class="node">
<title>Node20</title>
<g id="a_Node000020"><a xlink:title=" ">
<polygon fill="#e0e0e0" stroke="#999999" points="273.71,-141 225.46,-141 225.46,-121.75 273.71,-121.75 273.71,-141"/>
<text text-anchor="middle" x="249.58" y="-127.5" font-family="Helvetica,sans-Serif" font-size="10.00">stdint.h</text>
</a>
</g>
</g>
<!-- Node19&#45;&gt;Node20 -->
<g id="edge29_Node000019_Node000020" class="edge">
<title>Node19&#45;&gt;Node20</title>
<g id="a_edge29_Node000019_Node000020"><a xlink:title=" ">
<path fill="none" stroke="#63b8ff" d="M249.58,-176.83C249.58,-170.32 249.58,-161.17 249.58,-152.87"/>
<polygon fill="#63b8ff" stroke="#63b8ff" points="253.08,-152.87 249.58,-142.87 246.08,-152.87 253.08,-152.87"/>
</a>
</g>
</g>
<!-- Node21&#45;&gt;Node19 -->
<g id="edge31_Node000021_Node000019" class="edge">
<title>Node21&#45;&gt;Node19</title>
<g id="a_edge31_Node000021_Node000019"><a xlink:title=" ">
<path fill="none" stroke="#63b8ff" d="M92.85,-287.02C107.04,-271.89 130.74,-248.33 154.58,-232.25 173.27,-219.65 196.09,-208.8 214.67,-200.96"/>
<polygon fill="#63b8ff" stroke="#63b8ff" points="215.74,-204.31 223.66,-197.27 213.08,-197.83 215.74,-204.31"/>
</a>
</g>
</g>
<!-- Node22&#45;&gt;Node7 -->
<g id="edge35_Node000022_Node000007" class="edge">
<title>Node22&#45;&gt;Node7</title>
<g id="a_edge35_Node000022_Node000007"><a xlink:title=" ">
<path fill="none" stroke="#63b8ff" d="M451.29,-353.61C437.89,-343.44 420.05,-329.91 406.34,-319.5"/>
<polygon fill="#63b8ff" stroke="#63b8ff" points="408.5,-316.74 398.41,-313.49 404.26,-322.32 408.5,-316.74"/>
</a>
</g>
</g>
<!-- Node23 -->
<g id="Node000023" class="node">
<title>Node23</title>
<g id="a_Node000023"><a xlink:title=" ">
<polygon fill="#e0e0e0" stroke="#999999" points="546.83,-312.38 466.33,-312.38 466.33,-293.12 546.83,-293.12 546.83,-312.38"/>
<text text-anchor="middle" x="506.58" y="-298.88" font-family="Helvetica,sans-Serif" font-size="10.00">elapsedMillis.h</text>
</a>
</g>
</g>
<!-- Node22&#45;&gt;Node23 -->
<g id="edge34_Node000022_Node000023" class="edge">
<title>Node22&#45;&gt;Node23</title>
<g id="a_edge34_Node000022_Node000023"><a xlink:title=" ">
<path fill="none" stroke="#63b8ff" d="M478.75,-353.61C483.88,-344.43 490.53,-332.5 496.05,-322.61"/>
<polygon fill="#63b8ff" stroke="#63b8ff" points="499.1,-324.33 500.92,-313.89 492.99,-320.92 499.1,-324.33"/>
</a>
</g>
</g>
<!-- Node24 -->
<g id="Node000024" class="node">
<title>Node24</title>
<g id="a_Node000024"><a xlink:href="transform_8h.html" target="_top" xlink:title=" ">
<polygon fill="white" stroke="#666666" points="630.33,-312.38 564.83,-312.38 564.83,-293.12 630.33,-293.12 630.33,-312.38"/>
<text text-anchor="middle" x="597.58" y="-298.88" font-family="Helvetica,sans-Serif" font-size="10.00">transform.h</text>
</a>
</g>
</g>
<!-- Node22&#45;&gt;Node24 -->
<g id="edge36_Node000022_Node000024" class="edge">
<title>Node22&#45;&gt;Node24</title>
<g id="a_edge36_Node000022_Node000024"><a xlink:title=" ">
<path fill="none" stroke="#63b8ff" d="M499.4,-353.61C520.46,-342.92 548.87,-328.49 569.71,-317.9"/>
<polygon fill="#63b8ff" stroke="#63b8ff" points="571.16,-321.09 578.49,-313.45 567.99,-314.85 571.16,-321.09"/>
</a>
</g>
</g>
<!-- Node24&#45;&gt;Node4 -->
<g id="edge38_Node000024_Node000004" class="edge">
<title>Node24&#45;&gt;Node4</title>
<g id="a_edge38_Node000024_Node000004"><a xlink:title=" ">
<path fill="none" stroke="#63b8ff" d="M575.28,-292.74C549.05,-281.81 507.57,-263.38 495.58,-251.5 466.89,-223.06 449.44,-178.06 441.23,-152.28"/>
<polygon fill="#63b8ff" stroke="#63b8ff" points="444.61,-151.34 438.37,-142.77 437.9,-153.36 444.61,-151.34"/>
</a>
</g>
</g>
<!-- Node24&#45;&gt;Node12 -->
<g id="edge44_Node000024_Node000012" class="edge">
<title>Node24&#45;&gt;Node12</title>
<g id="a_edge44_Node000024_Node000012"><a xlink:title=" ">
<path fill="none" stroke="#63b8ff" d="M593.94,-292.81C590.66,-284.77 585.73,-272.68 581.54,-262.41"/>
<polygon fill="#63b8ff" stroke="#63b8ff" points="584.85,-261.24 577.83,-253.3 578.37,-263.88 584.85,-261.24"/>
</a>
</g>
</g>
<!-- Node24&#45;&gt;Node13 -->
<g id="edge37_Node000024_Node000013" class="edge">
<title>Node24&#45;&gt;Node13</title>
<g id="a_edge37_Node000024_Node000013"><a xlink:title=" ">
<path fill="none" stroke="#63b8ff" d="M608.74,-292.88C620.28,-283.39 638.4,-267.52 651.58,-251.5 678.43,-218.88 702.88,-175.75 715.85,-151.35"/>
<polygon fill="#63b8ff" stroke="#63b8ff" points="718.88,-153.1 720.41,-142.62 712.67,-149.86 718.88,-153.1"/>
</a>
</g>
</g>
<!-- Node24&#45;&gt;Node19 -->
<g id="edge45_Node000024_Node000019" class="edge">
<title>Node24&#45;&gt;Node19</title>
<g id="a_edge45_Node000024_Node000019"><a xlink:title=" ">
<path fill="none" stroke="#63b8ff" d="M570.94,-292.66C565.84,-290.93 560.55,-289.15 555.58,-287.5 459.89,-255.65 347.05,-219.07 288.79,-200.26"/>
<polygon fill="#63b8ff" stroke="#63b8ff" points="289.92,-196.95 279.32,-197.21 287.77,-203.61 289.92,-196.95"/>
</a>
</g>
</g>
<!-- Node25 -->
<g id="Node000025" class="node">
<title>Node25</title>
<g id="a_Node000025"><a xlink:title=" ">
<polygon fill="#e0e0e0" stroke="#999999" points="804.33,-251.5 774.83,-251.5 774.83,-232.25 804.33,-232.25 804.33,-251.5"/>
<text text-anchor="middle" x="789.58" y="-238" font-family="Helvetica,sans-Serif" font-size="10.00">set</text>
</a>
</g>
</g>
<!-- Node24&#45;&gt;Node25 -->
<g id="edge39_Node000024_Node000025" class="edge">
<title>Node24&#45;&gt;Node25</title>
<g id="a_edge39_Node000024_Node000025"><a xlink:title=" ">
<path fill="none" stroke="#63b8ff" d="M627.16,-292.68C664.59,-281.2 728.43,-261.63 763.9,-250.75"/>
<polygon fill="#63b8ff" stroke="#63b8ff" points="764.78,-254.14 773.32,-247.86 762.73,-247.45 764.78,-254.14"/>
</a>
</g>
</g>
<!-- Node26 -->
<g id="Node000026" class="node">
<title>Node26</title>
<g id="a_Node000026"><a xlink:href="observable_8h.html" target="_top" xlink:title=" ">
<polygon fill="white" stroke="#666666" points="1133.83,-196.25 987.33,-196.25 987.33,-177 1133.83,-177 1133.83,-196.25"/>
<text text-anchor="middle" x="1060.58" y="-182.75" font-family="Helvetica,sans-Serif" font-size="10.00">sensesp/system/observable.h</text>
</a>
</g>
</g>
<!-- Node24&#45;&gt;Node26 -->
<g id="edge40_Node000024_Node000026" class="edge">
<title>Node24&#45;&gt;Node26</title>
<g id="a_edge40_Node000024_Node000026"><a xlink:title=" ">
<path fill="none" stroke="#63b8ff" d="M630.54,-300.09C713.08,-295.52 926.6,-281.11 990.58,-251.5 1013.36,-240.96 1033.85,-220.29 1046.69,-205.31"/>
<polygon fill="#63b8ff" stroke="#63b8ff" points="1049.37,-207.58 1053.01,-197.63 1043.96,-203.13 1049.37,-207.58"/>
</a>
</g>
</g>
<!-- Node28 -->
<g id="Node000028" class="node">
<title>Node28</title>
<g id="a_Node000028"><a xlink:href="valueproducer_8h.html" target="_top" xlink:title=" ">
<polygon fill="white" stroke="#666666" points="981.21,-251.5 821.96,-251.5 821.96,-232.25 981.21,-232.25 981.21,-251.5"/>
<text text-anchor="middle" x="901.58" y="-238" font-family="Helvetica,sans-Serif" font-size="10.00">sensesp/system/valueproducer.h</text>
</a>
</g>
</g>
<!-- Node24&#45;&gt;Node28 -->
<g id="edge46_Node000024_Node000028" class="edge">
<title>Node24&#45;&gt;Node28</title>
<g id="a_edge46_Node000024_Node000028"><a xlink:title=" ">
<path fill="none" stroke="#63b8ff" d="M630.69,-295.34C681.79,-285.44 780.55,-266.31 843.66,-254.09"/>
<polygon fill="#63b8ff" stroke="#63b8ff" points="843.99,-257.59 853.14,-252.26 842.65,-250.72 843.99,-257.59"/>
</a>
</g>
</g>
<!-- Node26&#45;&gt;Node5 -->
<g id="edge42_Node000026_Node000005" class="edge">
<title>Node26&#45;&gt;Node5</title>
<g id="a_edge42_Node000026_Node000005"><a xlink:title=" ">
<path fill="none" stroke="#63b8ff" d="M1075.85,-176.59C1089.43,-168.56 1109.54,-156.66 1125.48,-147.23"/>
<polygon fill="#63b8ff" stroke="#63b8ff" points="1127.11,-150.33 1133.94,-142.22 1123.55,-144.3 1127.11,-150.33"/>
</a>
</g>
</g>
<!-- Node26&#45;&gt;Node9 -->
<g id="edge43_Node000026_Node000009" class="edge">
<title>Node26&#45;&gt;Node9</title>
<g id="a_edge43_Node000026_Node000009"><a xlink:title=" ">
<path fill="none" stroke="#63b8ff" d="M1032.25,-176.59C1002.83,-167.21 956.87,-152.55 926.01,-142.71"/>
<polygon fill="#63b8ff" stroke="#63b8ff" points="927.42,-139.49 916.83,-139.79 925.29,-146.16 927.42,-139.49"/>
</a>
</g>
</g>
<!-- Node27 -->
<g id="Node000027" class="node">
<title>Node27</title>
<g id="a_Node000027"><a xlink:title=" ">
<polygon fill="#e0e0e0" stroke="#999999" points="1093.71,-141 1027.46,-141 1027.46,-121.75 1093.71,-121.75 1093.71,-141"/>
<text text-anchor="middle" x="1060.58" y="-127.5" font-family="Helvetica,sans-Serif" font-size="10.00">forward_list</text>
</a>
</g>
</g>
<!-- Node26&#45;&gt;Node27 -->
<g id="edge41_Node000026_Node000027" class="edge">
<title>Node26&#45;&gt;Node27</title>
<g id="a_edge41_Node000026_Node000027"><a xlink:title=" ">
<path fill="none" stroke="#63b8ff" d="M1060.58,-176.83C1060.58,-170.32 1060.58,-161.17 1060.58,-152.87"/>
<polygon fill="#63b8ff" stroke="#63b8ff" points="1064.08,-152.87 1060.58,-142.87 1057.08,-152.87 1064.08,-152.87"/>
</a>
</g>
</g>
<!-- Node28&#45;&gt;Node4 -->
<g id="edge47_Node000028_Node000004" class="edge">
<title>Node28&#45;&gt;Node4</title>
<g id="a_edge47_Node000028_Node000004"><a xlink:title=" ">
<path fill="none" stroke="#63b8ff" d="M821.46,-232.16C716.75,-220.64 545.01,-201.21 531.58,-196.25 515.89,-190.46 479.77,-165.01 456.58,-148.03"/>
<polygon fill="#63b8ff" stroke="#63b8ff" points="458.88,-145.38 448.75,-142.26 454.73,-151.01 458.88,-145.38"/>
</a>
</g>
</g>
<!-- Node28&#45;&gt;Node8 -->
<g id="edge48_Node000028_Node000008" class="edge">
<title>Node28&#45;&gt;Node8</title>
<g id="a_edge48_Node000028_Node000008"><a xlink:title=" ">
<path fill="none" stroke="#63b8ff" d="M901.58,-232.08C901.58,-225.57 901.58,-216.42 901.58,-208.12"/>
<polygon fill="#63b8ff" stroke="#63b8ff" points="905.08,-208.12 901.58,-198.12 898.08,-208.12 905.08,-208.12"/>
</a>
</g>
</g>
<!-- Node28&#45;&gt;Node19 -->
<g id="edge50_Node000028_Node000019" class="edge">
<title>Node28&#45;&gt;Node19</title>
<g id="a_edge50_Node000028_Node000019"><a xlink:title=" ">
<path fill="none" stroke="#63b8ff" d="M821.49,-232.96C818.82,-232.72 816.18,-232.48 813.58,-232.25 648.28,-217.61 455.52,-202.86 343.54,-194.52"/>
<polygon fill="#63b8ff" stroke="#63b8ff" points="344.03,-191.04 333.8,-193.79 343.51,-198.03 344.03,-191.04"/>
</a>
</g>
</g>
<!-- Node28&#45;&gt;Node26 -->
<g id="edge49_Node000028_Node000026" class="edge">
<title>Node28&#45;&gt;Node26</title>
<g id="a_edge49_Node000028_Node000026"><a xlink:title=" ">
<path fill="none" stroke="#63b8ff" d="M928.55,-231.84C954.48,-223.16 993.9,-209.96 1022.91,-200.24"/>
<polygon fill="#63b8ff" stroke="#63b8ff" points="1023.67,-203.68 1032.04,-197.18 1021.45,-197.04 1023.67,-203.68"/>
</a>
</g>
</g>
<!-- Node29&#45;&gt;Node24 -->
<g id="edge52_Node000029_Node000024" class="edge">
<title>Node29&#45;&gt;Node24</title>
<g id="a_edge52_Node000029_Node000024"><a xlink:title=" ">
<path fill="none" stroke="#63b8ff" d="M594.49,-353.61C595.03,-344.83 595.74,-333.52 596.33,-323.9"/>
<polygon fill="#63b8ff" stroke="#63b8ff" points="599.82,-324.28 596.94,-314.08 592.83,-323.85 599.82,-324.28"/>
</a>
</g>
</g>
<!-- Node30&#45;&gt;Node8 -->
<g id="edge57_Node000030_Node000008" class="edge">
<title>Node30&#45;&gt;Node8</title>
<g id="a_edge57_Node000030_Node000008"><a xlink:title=" ">
<path fill="none" stroke="#63b8ff" d="M1021.16,-420.33C1023.63,-411.4 1027.18,-397.13 1028.58,-384.5 1036.25,-315.18 1035.74,-285.4 990.58,-232.25 977.05,-216.32 956.45,-205.49 938.47,-198.49"/>
<polygon fill="#63b8ff" stroke="#63b8ff" points="939.72,-195.22 929.13,-195.12 937.35,-201.8 939.72,-195.22"/>
</a>
</g>
</g>
<!-- Node30&#45;&gt;Node13 -->
<g id="edge56_Node000030_Node000013" class="edge">
<title>Node30&#45;&gt;Node13</title>
<g id="a_edge56_Node000030_Node000013"><a xlink:title=" ">
<path fill="none" stroke="#63b8ff" d="M1025.44,-420.15C1031.56,-411.54 1040.08,-397.9 1043.58,-384.5 1061.05,-317.6 1057.36,-284.07 1011.58,-232.25 984.17,-201.22 974.36,-193.94 936.58,-177 881.35,-152.22 811.72,-140.94 767.91,-135.99"/>
<polygon fill="#63b8ff" stroke="#63b8ff" points="768.36,-132.52 758.05,-134.95 767.62,-139.48 768.36,-132.52"/>
</a>
</g>
</g>
<!-- Node31 -->
<g id="Node000031" class="node">
<title>Node31</title>
<g id="a_Node000031"><a xlink:title=" ">
<polygon fill="#e0e0e0" stroke="#999999" points="1019.58,-378.88 961.58,-378.88 961.58,-359.62 1019.58,-359.62 1019.58,-378.88"/>
<text text-anchor="middle" x="990.58" y="-365.38" font-family="Helvetica,sans-Serif" font-size="10.00">esp_log.h</text>
</a>
</g>
</g>
<!-- Node30&#45;&gt;Node31 -->
<g id="edge58_Node000030_Node000031" class="edge">
<title>Node30&#45;&gt;Node31</title>
<g id="a_edge58_Node000030_Node000031"><a xlink:title=" ">
<path fill="none" stroke="#63b8ff" d="M1014.33,-420.18C1010.46,-412.06 1004.63,-399.79 999.71,-389.45"/>
<polygon fill="#63b8ff" stroke="#63b8ff" points="1002.98,-388.17 995.52,-380.64 996.66,-391.18 1002.98,-388.17"/>
</a>
</g>
</g>
<!-- Node32 -->
<g id="Node000032" class="node">
<title>Node32</title>
<g id="a_Node000032"><a xlink:href="filesystem_8h.html" target="_top" xlink:title=" ">
<polygon fill="white" stroke="#666666" points="1269.71,-378.88 1125.46,-378.88 1125.46,-359.62 1269.71,-359.62 1269.71,-378.88"/>
<text text-anchor="middle" x="1197.58" y="-365.38" font-family="Helvetica,sans-Serif" font-size="10.00">sensesp/system/filesystem.h</text>
</a>
</g>
</g>
<!-- Node30&#45;&gt;Node32 -->
<g id="edge59_Node000030_Node000032" class="edge">
<title>Node30&#45;&gt;Node32</title>
<g id="a_edge59_Node000030_Node000032"><a xlink:title=" ">
<path fill="none" stroke="#63b8ff" d="M1046.16,-420.05C1076.38,-410.11 1125.08,-394.1 1159.06,-382.92"/>
<polygon fill="#63b8ff" stroke="#63b8ff" points="1160.13,-386.25 1168.54,-379.8 1157.94,-379.6 1160.13,-386.25"/>
</a>
</g>
</g>
<!-- Node35 -->
<g id="Node000035" class="node">
<title>Node35</title>
<g id="a_Node000035"><a xlink:href="observablevalue_8h.html" target="_top" xlink:title=" ">
<polygon fill="white" stroke="#666666" points="943.46,-378.88 773.71,-378.88 773.71,-359.62 943.46,-359.62 943.46,-378.88"/>
<text text-anchor="middle" x="858.58" y="-365.38" font-family="Helvetica,sans-Serif" font-size="10.00">sensesp/system/observablevalue.h</text>
</a>
</g>
</g>
<!-- Node30&#45;&gt;Node35 -->
<g id="edge62_Node000030_Node000035" class="edge">
<title>Node30&#45;&gt;Node35</title>
<g id="a_edge62_Node000030_Node000035"><a xlink:title=" ">
<path fill="none" stroke="#63b8ff" d="M993.93,-420.05C967.15,-410.2 924.15,-394.38 893.81,-383.21"/>
<polygon fill="#63b8ff" stroke="#63b8ff" points="895.27,-380.02 884.68,-379.85 892.86,-386.59 895.27,-380.02"/>
</a>
</g>
</g>
<!-- Node33 -->
<g id="Node000033" class="node">
<title>Node33</title>
<g id="a_Node000033"><a xlink:href="resettable_8h.html" target="_top" xlink:title=" ">
<polygon fill="white" stroke="#666666" points="1237.08,-312.38 1170.08,-312.38 1170.08,-293.12 1237.08,-293.12 1237.08,-312.38"/>
<text text-anchor="middle" x="1203.58" y="-298.88" font-family="Helvetica,sans-Serif" font-size="10.00">resettable.h</text>
</a>
</g>
</g>
<!-- Node32&#45;&gt;Node33 -->
<g id="edge60_Node000032_Node000033" class="edge">
<title>Node32&#45;&gt;Node33</title>
<g id="a_edge60_Node000032_Node000033"><a xlink:title=" ">
<path fill="none" stroke="#63b8ff" d="M1198.42,-359.28C1199.27,-350.14 1200.62,-335.64 1201.72,-323.75"/>
<polygon fill="#63b8ff" stroke="#63b8ff" points="1205.17,-324.43 1202.61,-314.15 1198.2,-323.78 1205.17,-324.43"/>
</a>
</g>
</g>
<!-- Node34 -->
<g id="Node000034" class="node">
<title>Node34</title>
<g id="a_Node000034"><a xlink:title=" ">
<polygon fill="#e0e0e0" stroke="#999999" points="1231.71,-251.5 1189.46,-251.5 1189.46,-232.25 1231.71,-232.25 1231.71,-251.5"/>
<text text-anchor="middle" x="1210.58" y="-238" font-family="Helvetica,sans-Serif" font-size="10.00">queue</text>
</a>
</g>
</g>
<!-- Node33&#45;&gt;Node34 -->
<g id="edge61_Node000033_Node000034" class="edge">
<title>Node33&#45;&gt;Node34</title>
<g id="a_edge61_Node000033_Node000034"><a xlink:title=" ">
<path fill="none" stroke="#63b8ff" d="M1204.64,-292.81C1205.58,-284.94 1206.98,-273.2 1208.18,-263.07"/>
<polygon fill="#63b8ff" stroke="#63b8ff" points="1211.62,-263.75 1209.33,-253.4 1204.67,-262.92 1211.62,-263.75"/>
</a>
</g>
</g>
<!-- Node35&#45;&gt;Node7 -->
<g id="edge65_Node000035_Node000007" class="edge">
<title>Node35&#45;&gt;Node7</title>
<g id="a_edge65_Node000035_Node000007"><a xlink:title=" ">
<path fill="none" stroke="#63b8ff" d="M773.46,-359.35C692.11,-350.43 566.16,-335.52 457.58,-318 451.91,-317.08 446,-316.05 440.12,-314.96"/>
<polygon fill="#63b8ff" stroke="#63b8ff" points="440.86,-311.54 430.38,-313.12 439.56,-318.42 440.86,-311.54"/>
</a>
</g>
</g>
<!-- Node35&#45;&gt;Node12 -->
<g id="edge63_Node000035_Node000012" class="edge">
<title>Node35&#45;&gt;Node12</title>
<g id="a_edge63_Node000035_Node000012"><a xlink:title=" ">
<path fill="none" stroke="#63b8ff" d="M838.09,-359.23C788.8,-337.55 663.43,-282.4 604.75,-256.59"/>
<polygon fill="#63b8ff" stroke="#63b8ff" points="606.22,-253.41 595.66,-252.59 603.4,-259.82 606.22,-253.41"/>
</a>
</g>
</g>
<!-- Node35&#45;&gt;Node26 -->
<g id="edge64_Node000035_Node000026" class="edge">
<title>Node35&#45;&gt;Node26</title>
<g id="a_edge64_Node000035_Node000026"><a xlink:title=" ">
<path fill="none" stroke="#63b8ff" d="M874.57,-359.25C905.11,-341.51 972.81,-299.56 1018.58,-251.5 1031.45,-237.99 1042.86,-220.04 1050.52,-206.62"/>
<polygon fill="#63b8ff" stroke="#63b8ff" points="1053.55,-208.37 1055.3,-197.92 1047.42,-205 1053.55,-208.37"/>
</a>
</g>
</g>
<!-- Node35&#45;&gt;Node28 -->
<g id="edge66_Node000035_Node000028" class="edge">
<title>Node35&#45;&gt;Node28</title>
<g id="a_edge66_Node000035_Node000028"><a xlink:title=" ">
<path fill="none" stroke="#63b8ff" d="M861.67,-359.23C868.59,-339.08 885.42,-290.01 894.86,-262.46"/>
<polygon fill="#63b8ff" stroke="#63b8ff" points="898.09,-263.84 898.03,-253.24 891.47,-261.57 898.09,-263.84"/>
</a>
</g>
</g>
</g>
</svg>

<g id="navigator" transform="translate(0 0)" fill="#404254">
  <rect fill="#f2f5e9" fill-opacity="0.5" stroke="#606060" stroke-width=".5" x="0" y="0" width="60" height="60"/>
  <use id="zoomplus" xlink:href="#zoomPlus" x="17" y="9" onmousedown="handleZoom(evt,'in')"/>
  <use id="zoomminus" xlink:href="#zoomMin" x="42" y="9" onmousedown="handleZoom(evt,'out')"/>
  <use id="reset" xlink:href="#resetDef" x="30" y="36" onmousedown="handleReset()"/>
   <use id="arrowup" xlink:href="#arrowUp" x="0" y="0" onmousedown="handlePan(0,-1)"/>
  <use id="arrowright" xlink:href="#arrowRight" x="0" y="0" onmousedown="handlePan(1,0)"/>
  <use id="arrowdown" xlink:href="#arrowDown" x="0" y="0" onmousedown="handlePan(0,1)"/>
  <use id="arrowleft" xlink:href="#arrowLeft" x="0" y="0" onmousedown="handlePan(-1,0)"/>
</g>
<svg viewBox="0 0 15 15" width="100%" height="30px" preserveAspectRatio="xMaxYMin meet">
 <g id="arrow_out" transform="scale(0.3 0.3)">
  <a xlink:href="smart__switch__controller_8cpp__incl_org.svg" target="_base">
   <rect id="button" ry="5" rx="5" y="6" x="6" height="38" width="38"
        fill="#f2f5e9" fill-opacity="0.5" stroke="#606060" stroke-width="1.0"/>
   <path id="arrow"
     d="M 11.500037,31.436501 C 11.940474,20.09759 22.043105,11.32322 32.158766,21.979434 L 37.068811,17.246167 C 37.068811,17.246167 37.088388,32 37.088388,32 L 22.160133,31.978069 C 22.160133,31.978069 26.997745,27.140456 26.997745,27.140456 C 18.528582,18.264221 13.291696,25.230495 11.500037,31.436501 z"
     style="fill:#404040;"/>
  </a>
 </g>
</svg>

<style type='text/css'>
<![CDATA[
[data-mouse-over-selected='false'] { opacity: 0.7; }
[data-mouse-over-selected='true']  { opacity: 1.0; }
]]>
</style>
<script type="application/ecmascript"><![CDATA[
document.addEventListener('DOMContentLoaded', (event) => {
  highlightEdges();
  highlightAdjacentNodes();
});
]]></script>
</svg>
