<?xml version="1.0" encoding="UTF-8" standalone="no"?>
<!DOCTYPE svg PUBLIC "-//W3C//DTD SVG 1.1//EN"
 "http://www.w3.org/Graphics/SVG/1.1/DTD/svg11.dtd">
<!-- Generated by graphviz version 12.0.0 (20240704.0754)
 -->
<!-- Title: src/sensesp/controllers/smart_switch_controller.h Pages: 1 -->
<svg width="711pt" height="459pt"
 viewBox="0.00 0.00 711.46 459.00" xmlns="http://www.w3.org/2000/svg" xmlns:xlink="http://www.w3.org/1999/xlink">
<g id="graph0" class="graph" transform="scale(1 1) rotate(0) translate(4 455)">
<title>src/sensesp/controllers/smart_switch_controller.h</title>
<!-- Node1 -->
<g id="Node000001" class="node">
<title>Node1</title>
<g id="a_Node000001"><a xlink:title=" ">
<polygon fill="#999999" stroke="#666666" points="204.21,-451 74.21,-451 74.21,-420.5 204.21,-420.5 204.21,-451"/>
<text text-anchor="start" x="82.21" y="-437.5" font-family="Helvetica,sans-Serif" font-size="10.00">src/sensesp/controllers</text>
<text text-anchor="middle" x="139.21" y="-426.25" font-family="Helvetica,sans-Serif" font-size="10.00">/smart_switch_controller.h</text>
</a>
</g>
</g>
<!-- Node2 -->
<g id="Node000002" class="node">
<title>Node2</title>
<g id="a_Node000002"><a xlink:href="signalk__put__request_8h.html" target="_top" xlink:title=" ">
<polygon fill="white" stroke="#666666" points="199.33,-262.75 79.08,-262.75 79.08,-232.25 199.33,-232.25 199.33,-262.75"/>
<text text-anchor="start" x="87.08" y="-249.25" font-family="Helvetica,sans-Serif" font-size="10.00">sensesp/signalk/signalk</text>
<text text-anchor="middle" x="139.21" y="-238" font-family="Helvetica,sans-Serif" font-size="10.00">_put_request.h</text>
</a>
</g>
</g>
<!-- Node1&#45;&gt;Node2 -->
<g id="edge1_Node000001_Node000002" class="edge">
<title>Node1&#45;&gt;Node2</title>
<g id="a_edge1_Node000001_Node000002"><a xlink:title=" ">
<path fill="none" stroke="#63b8ff" d="M139.21,-420.14C139.21,-388.65 139.21,-314.06 139.21,-274.38"/>
<polygon fill="#63b8ff" stroke="#63b8ff" points="142.71,-274.56 139.21,-264.56 135.71,-274.56 142.71,-274.56"/>
</a>
</g>
</g>
<!-- Node14 -->
<g id="Node000014" class="node">
<title>Node14</title>
<g id="a_Node000014"><a xlink:href="valueconsumer_8h.html" target="_top" xlink:title=" ">
<polygon fill="white" stroke="#666666" points="179.46,-196.25 14.96,-196.25 14.96,-177 179.46,-177 179.46,-196.25"/>
<text text-anchor="middle" x="97.21" y="-182.75" font-family="Helvetica,sans-Serif" font-size="10.00">sensesp/system/valueconsumer.h</text>
</a>
</g>
</g>
<!-- Node1&#45;&gt;Node14 -->
<g id="edge20_Node000001_Node000014" class="edge">
<title>Node1&#45;&gt;Node14</title>
<g id="a_edge20_Node000001_Node000014"><a xlink:title=" ">
<path fill="none" stroke="#63b8ff" d="M130.07,-420.31C112.51,-391.64 74.65,-324.92 61.21,-262.75 58.35,-249.5 56.7,-245.03 61.21,-232.25 64.83,-222 71.92,-212.37 78.85,-204.7"/>
<polygon fill="#63b8ff" stroke="#63b8ff" points="81.15,-207.35 85.65,-197.75 76.15,-202.45 81.15,-207.35"/>
</a>
</g>
</g>
<!-- Node16 -->
<g id="Node000016" class="node">
<title>Node16</title>
<g id="a_Node000016"><a xlink:href="click__type_8h.html" target="_top" xlink:title=" ">
<polygon fill="white" stroke="#666666" points="271.33,-384.5 169.08,-384.5 169.08,-354 271.33,-354 271.33,-384.5"/>
<text text-anchor="start" x="177.08" y="-371" font-family="Helvetica,sans-Serif" font-size="10.00">sensesp/transforms</text>
<text text-anchor="middle" x="220.21" y="-359.75" font-family="Helvetica,sans-Serif" font-size="10.00">/click_type.h</text>
</a>
</g>
</g>
<!-- Node1&#45;&gt;Node16 -->
<g id="edge21_Node000001_Node000016" class="edge">
<title>Node1&#45;&gt;Node16</title>
<g id="a_edge21_Node000001_Node000016"><a xlink:title=" ">
<path fill="none" stroke="#63b8ff" d="M157.59,-420.11C168.05,-411.78 181.35,-401.19 193,-391.92"/>
<polygon fill="#63b8ff" stroke="#63b8ff" points="195.08,-394.74 200.72,-385.77 190.72,-389.26 195.08,-394.74"/>
</a>
</g>
</g>
<!-- Node3 -->
<g id="Node000003" class="node">
<title>Node3</title>
<g id="a_Node000003"><a xlink:title=" ">
<polygon fill="#e0e0e0" stroke="#999999" points="447.33,-141 369.08,-141 369.08,-121.75 447.33,-121.75 447.33,-141"/>
<text text-anchor="middle" x="408.21" y="-127.5" font-family="Helvetica,sans-Serif" font-size="10.00">ArduinoJson.h</text>
</a>
</g>
</g>
<!-- Node2&#45;&gt;Node3 -->
<g id="edge2_Node000002_Node000003" class="edge">
<title>Node2&#45;&gt;Node3</title>
<g id="a_edge2_Node000002_Node000003"><a xlink:title=" ">
<path fill="none" stroke="#63b8ff" d="M199.61,-238.3C271.16,-228.04 382.44,-210.12 396.21,-196.25 407.41,-184.97 409.92,-166.76 409.91,-152.67"/>
<polygon fill="#63b8ff" stroke="#63b8ff" points="413.4,-152.53 409.44,-142.71 406.41,-152.86 413.4,-152.53"/>
</a>
</g>
</g>
<!-- Node4 -->
<g id="Node000004" class="node">
<title>Node4</title>
<g id="a_Node000004"><a xlink:title=" ">
<polygon fill="#e0e0e0" stroke="#999999" points="585.21,-141 527.21,-141 527.21,-121.75 585.21,-121.75 585.21,-141"/>
<text text-anchor="middle" x="556.21" y="-127.5" font-family="Helvetica,sans-Serif" font-size="10.00">functional</text>
</a>
</g>
</g>
<!-- Node2&#45;&gt;Node4 -->
<g id="edge3_Node000002_Node000004" class="edge">
<title>Node2&#45;&gt;Node4</title>
<g id="a_edge3_Node000002_Node000004"><a xlink:title=" ">
<path fill="none" stroke="#63b8ff" d="M199.56,-237.29C268.23,-226.49 375.93,-208.52 415.21,-196.25 456.65,-183.31 501.94,-161.26 529.72,-146.76"/>
<polygon fill="#63b8ff" stroke="#63b8ff" points="531.27,-149.9 538.47,-142.13 527.99,-143.71 531.27,-149.9"/>
</a>
</g>
</g>
<!-- Node5 -->
<g id="Node000005" class="node">
<title>Node5</title>
<g id="a_Node000005"><a xlink:title=" ">
<polygon fill="#e0e0e0" stroke="#999999" points="166.58,-141 131.83,-141 131.83,-121.75 166.58,-121.75 166.58,-141"/>
<text text-anchor="middle" x="149.21" y="-127.5" font-family="Helvetica,sans-Serif" font-size="10.00">map</text>
</a>
</g>
</g>
<!-- Node2&#45;&gt;Node5 -->
<g id="edge4_Node000002_Node000005" class="edge">
<title>Node2&#45;&gt;Node5</title>
<g id="a_edge4_Node000002_Node000005"><a xlink:title=" ">
<path fill="none" stroke="#63b8ff" d="M78.66,-237C33.34,-227.16 -17.12,-208.67 6.21,-177 36.23,-136.26 66.66,-154.52 120.43,-141.17"/>
<polygon fill="#63b8ff" stroke="#63b8ff" points="121.36,-144.55 130.04,-138.47 119.47,-137.81 121.36,-144.55"/>
</a>
</g>
</g>
<!-- Node6 -->
<g id="Node000006" class="node">
<title>Node6</title>
<g id="a_Node000006"><a xlink:href="configurable_8h.html" target="_top" xlink:title=" ">
<polygon fill="white" stroke="#666666" points="387.08,-196.25 235.33,-196.25 235.33,-177 387.08,-177 387.08,-196.25"/>
<text text-anchor="middle" x="311.21" y="-182.75" font-family="Helvetica,sans-Serif" font-size="10.00">sensesp/system/configurable.h</text>
</a>
</g>
</g>
<!-- Node2&#45;&gt;Node6 -->
<g id="edge5_Node000002_Node000006" class="edge">
<title>Node2&#45;&gt;Node6</title>
<g id="a_edge5_Node000002_Node000006"><a xlink:title=" ">
<path fill="none" stroke="#63b8ff" d="M182.17,-231.8C210.42,-222.13 247.01,-209.6 274.01,-200.36"/>
<polygon fill="#63b8ff" stroke="#63b8ff" points="274.82,-203.78 283.15,-197.23 272.55,-197.16 274.82,-203.78"/>
</a>
</g>
</g>
<!-- Node2&#45;&gt;Node14 -->
<g id="edge16_Node000002_Node000014" class="edge">
<title>Node2&#45;&gt;Node14</title>
<g id="a_edge16_Node000002_Node000014"><a xlink:title=" ">
<path fill="none" stroke="#63b8ff" d="M128.83,-231.95C123.23,-224.1 116.27,-214.35 110.31,-205.99"/>
<polygon fill="#63b8ff" stroke="#63b8ff" points="113.22,-204.04 104.56,-197.93 107.52,-208.11 113.22,-204.04"/>
</a>
</g>
</g>
<!-- Node6&#45;&gt;Node3 -->
<g id="edge12_Node000006_Node000003" class="edge">
<title>Node6&#45;&gt;Node3</title>
<g id="a_edge12_Node000006_Node000003"><a xlink:title=" ">
<path fill="none" stroke="#63b8ff" d="M327.66,-176.59C342.44,-168.48 364.39,-156.43 381.64,-146.96"/>
<polygon fill="#63b8ff" stroke="#63b8ff" points="383.27,-150.06 390.35,-142.18 379.9,-143.93 383.27,-150.06"/>
</a>
</g>
</g>
<!-- Node6&#45;&gt;Node5 -->
<g id="edge13_Node000006_Node000005" class="edge">
<title>Node6&#45;&gt;Node5</title>
<g id="a_edge13_Node000006_Node000005"><a xlink:title=" ">
<path fill="none" stroke="#63b8ff" d="M283.73,-176.59C254.11,-166.86 207.22,-151.44 177.35,-141.62"/>
<polygon fill="#63b8ff" stroke="#63b8ff" points="178.83,-138.43 168.24,-138.63 176.65,-145.08 178.83,-138.43"/>
</a>
</g>
</g>
<!-- Node7 -->
<g id="Node000007" class="node">
<title>Node7</title>
<g id="a_Node000007"><a xlink:href="sensesp_8h.html" target="_top" xlink:title=" ">
<polygon fill="white" stroke="#666666" points="245.71,-141 184.71,-141 184.71,-121.75 245.71,-121.75 245.71,-141"/>
<text text-anchor="middle" x="215.21" y="-127.5" font-family="Helvetica,sans-Serif" font-size="10.00">sensesp.h</text>
</a>
</g>
</g>
<!-- Node6&#45;&gt;Node7 -->
<g id="edge6_Node000006_Node000007" class="edge">
<title>Node6&#45;&gt;Node7</title>
<g id="a_edge6_Node000006_Node000007"><a xlink:title=" ">
<path fill="none" stroke="#63b8ff" d="M294.92,-176.59C280.31,-168.48 258.58,-156.43 241.5,-146.96"/>
<polygon fill="#63b8ff" stroke="#63b8ff" points="243.34,-143.98 232.9,-142.19 239.95,-150.1 243.34,-143.98"/>
</a>
</g>
</g>
<!-- Node11 -->
<g id="Node000011" class="node">
<title>Node11</title>
<g id="a_Node000011"><a xlink:title=" ">
<polygon fill="#e0e0e0" stroke="#999999" points="318.83,-19.25 261.58,-19.25 261.58,0 318.83,0 318.83,-19.25"/>
<text text-anchor="middle" x="290.21" y="-5.75" font-family="Helvetica,sans-Serif" font-size="10.00">Arduino.h</text>
</a>
</g>
</g>
<!-- Node6&#45;&gt;Node11 -->
<g id="edge15_Node000006_Node000011" class="edge">
<title>Node6&#45;&gt;Node11</title>
<g id="a_edge15_Node000006_Node000011"><a xlink:title=" ">
<path fill="none" stroke="#63b8ff" d="M310.14,-176.71C306.91,-149.8 297.21,-68.94 292.64,-30.87"/>
<polygon fill="#63b8ff" stroke="#63b8ff" points="296.15,-30.75 291.48,-21.24 289.2,-31.58 296.15,-30.75"/>
</a>
</g>
</g>
<!-- Node13 -->
<g id="Node000013" class="node">
<title>Node13</title>
<g id="a_Node000013"><a xlink:title=" ">
<polygon fill="#e0e0e0" stroke="#999999" points="508.71,-141 465.71,-141 465.71,-121.75 508.71,-121.75 508.71,-141"/>
<text text-anchor="middle" x="487.21" y="-127.5" font-family="Helvetica,sans-Serif" font-size="10.00">vector</text>
</a>
</g>
</g>
<!-- Node6&#45;&gt;Node13 -->
<g id="edge14_Node000006_Node000013" class="edge">
<title>Node6&#45;&gt;Node13</title>
<g id="a_edge14_Node000006_Node000013"><a xlink:title=" ">
<path fill="none" stroke="#63b8ff" d="M341.07,-176.59C372.56,-167.06 422.04,-152.09 454.55,-142.26"/>
<polygon fill="#63b8ff" stroke="#63b8ff" points="455.28,-145.69 463.84,-139.45 453.26,-138.99 455.28,-145.69"/>
</a>
</g>
</g>
<!-- Node8 -->
<g id="Node000008" class="node">
<title>Node8</title>
<g id="a_Node000008"><a xlink:title=" ">
<polygon fill="#e0e0e0" stroke="#999999" points="282.83,-80.12 213.58,-80.12 213.58,-60.88 282.83,-60.88 282.83,-80.12"/>
<text text-anchor="middle" x="248.21" y="-66.62" font-family="Helvetica,sans-Serif" font-size="10.00">ReactESP.h</text>
</a>
</g>
</g>
<!-- Node7&#45;&gt;Node8 -->
<g id="edge7_Node000007_Node000008" class="edge">
<title>Node7&#45;&gt;Node8</title>
<g id="a_edge7_Node000007_Node000008"><a xlink:title=" ">
<path fill="none" stroke="#63b8ff" d="M220.22,-121.43C224.82,-113.22 231.8,-100.78 237.63,-90.37"/>
<polygon fill="#63b8ff" stroke="#63b8ff" points="240.57,-92.28 242.41,-81.85 234.47,-88.86 240.57,-92.28"/>
</a>
</g>
</g>
<!-- Node9 -->
<g id="Node000009" class="node">
<title>Node9</title>
<g id="a_Node000009"><a xlink:href="local__debug_8h.html" target="_top" xlink:title=" ">
<polygon fill="white" stroke="#666666" points="195.83,-85.75 84.58,-85.75 84.58,-55.25 195.83,-55.25 195.83,-85.75"/>
<text text-anchor="start" x="92.58" y="-72.25" font-family="Helvetica,sans-Serif" font-size="10.00">sensesp/system/local</text>
<text text-anchor="middle" x="140.21" y="-61" font-family="Helvetica,sans-Serif" font-size="10.00">_debug.h</text>
</a>
</g>
</g>
<!-- Node7&#45;&gt;Node9 -->
<g id="edge8_Node000007_Node000009" class="edge">
<title>Node7&#45;&gt;Node9</title>
<g id="a_edge8_Node000007_Node000009"><a xlink:title=" ">
<path fill="none" stroke="#63b8ff" d="M203.82,-121.43C194.19,-113.87 180,-102.74 167.47,-92.9"/>
<polygon fill="#63b8ff" stroke="#63b8ff" points="169.94,-90.39 159.91,-86.97 165.62,-95.89 169.94,-90.39"/>
</a>
</g>
</g>
<!-- Node10 -->
<g id="Node000010" class="node">
<title>Node10</title>
<g id="a_Node000010"><a xlink:title=" ">
<polygon fill="#e0e0e0" stroke="#999999" points="222.21,-19.25 140.21,-19.25 140.21,0 222.21,0 222.21,-19.25"/>
<text text-anchor="middle" x="181.21" y="-5.75" font-family="Helvetica,sans-Serif" font-size="10.00">esp32&#45;hal&#45;log.h</text>
</a>
</g>
</g>
<!-- Node9&#45;&gt;Node10 -->
<g id="edge9_Node000009_Node000010" class="edge">
<title>Node9&#45;&gt;Node10</title>
<g id="a_edge9_Node000009_Node000010"><a xlink:title=" ">
<path fill="none" stroke="#63b8ff" d="M150.34,-54.95C155.81,-47.1 162.6,-37.35 168.42,-28.99"/>
<polygon fill="#63b8ff" stroke="#63b8ff" points="171.18,-31.15 174.02,-20.94 165.44,-27.15 171.18,-31.15"/>
</a>
</g>
</g>
<!-- Node9&#45;&gt;Node11 -->
<g id="edge10_Node000009_Node000011" class="edge">
<title>Node9&#45;&gt;Node11</title>
<g id="a_edge10_Node000009_Node000011"><a xlink:title=" ">
<path fill="none" stroke="#63b8ff" d="M177.67,-54.8C201.95,-45.27 233.28,-32.97 256.72,-23.77"/>
<polygon fill="#63b8ff" stroke="#63b8ff" points="257.77,-27.12 265.8,-20.21 255.21,-20.6 257.77,-27.12"/>
</a>
</g>
</g>
<!-- Node12 -->
<g id="Node000012" class="node">
<title>Node12</title>
<g id="a_Node000012"><a xlink:title=" ">
<polygon fill="#e0e0e0" stroke="#999999" points="122.46,-19.25 77.96,-19.25 77.96,0 122.46,0 122.46,-19.25"/>
<text text-anchor="middle" x="100.21" y="-5.75" font-family="Helvetica,sans-Serif" font-size="10.00">Print.h</text>
</a>
</g>
</g>
<!-- Node9&#45;&gt;Node12 -->
<g id="edge11_Node000009_Node000012" class="edge">
<title>Node9&#45;&gt;Node12</title>
<g id="a_edge11_Node000009_Node000012"><a xlink:title=" ">
<path fill="none" stroke="#63b8ff" d="M130.32,-54.95C124.99,-47.1 118.36,-37.35 112.68,-28.99"/>
<polygon fill="#63b8ff" stroke="#63b8ff" points="115.74,-27.26 107.23,-20.95 109.95,-31.19 115.74,-27.26"/>
</a>
</g>
</g>
<!-- Node14&#45;&gt;Node3 -->
<g id="edge18_Node000014_Node000003" class="edge">
<title>Node14&#45;&gt;Node3</title>
<g id="a_edge18_Node000014_Node000003"><a xlink:title=" ">
<path fill="none" stroke="#63b8ff" d="M150.32,-176.53C208.26,-166.61 300.35,-150.84 357.38,-141.08"/>
<polygon fill="#63b8ff" stroke="#63b8ff" points="357.89,-144.54 367.15,-139.41 356.7,-137.64 357.89,-144.54"/>
</a>
</g>
</g>
<!-- Node14&#45;&gt;Node7 -->
<g id="edge17_Node000014_Node000007" class="edge">
<title>Node14&#45;&gt;Node7</title>
<g id="a_edge17_Node000014_Node000007"><a xlink:title=" ">
<path fill="none" stroke="#63b8ff" d="M117.23,-176.59C135.7,-168.25 163.42,-155.75 184.66,-146.16"/>
<polygon fill="#63b8ff" stroke="#63b8ff" points="186.04,-149.38 193.71,-142.08 183.16,-143 186.04,-149.38"/>
</a>
</g>
</g>
<!-- Node15 -->
<g id="Node000015" class="node">
<title>Node15</title>
<g id="a_Node000015"><a xlink:title=" ">
<polygon fill="#e0e0e0" stroke="#999999" points="113.33,-141 65.08,-141 65.08,-121.75 113.33,-121.75 113.33,-141"/>
<text text-anchor="middle" x="89.21" y="-127.5" font-family="Helvetica,sans-Serif" font-size="10.00">stdint.h</text>
</a>
</g>
</g>
<!-- Node14&#45;&gt;Node15 -->
<g id="edge19_Node000014_Node000015" class="edge">
<title>Node14&#45;&gt;Node15</title>
<g id="a_edge19_Node000014_Node000015"><a xlink:title=" ">
<path fill="none" stroke="#63b8ff" d="M95.89,-176.83C94.9,-170.24 93.5,-160.96 92.24,-152.57"/>
<polygon fill="#63b8ff" stroke="#63b8ff" points="95.73,-152.22 90.78,-142.86 88.81,-153.26 95.73,-152.22"/>
</a>
</g>
</g>
<!-- Node17 -->
<g id="Node000017" class="node">
<title>Node17</title>
<g id="a_Node000017"><a xlink:title=" ">
<polygon fill="#e0e0e0" stroke="#999999" points="260.46,-318 179.96,-318 179.96,-298.75 260.46,-298.75 260.46,-318"/>
<text text-anchor="middle" x="220.21" y="-304.5" font-family="Helvetica,sans-Serif" font-size="10.00">elapsedMillis.h</text>
</a>
</g>
</g>
<!-- Node16&#45;&gt;Node17 -->
<g id="edge22_Node000016_Node000017" class="edge">
<title>Node16&#45;&gt;Node17</title>
<g id="a_edge22_Node000016_Node000017"><a xlink:title=" ">
<path fill="none" stroke="#63b8ff" d="M220.21,-353.7C220.21,-346.46 220.21,-337.59 220.21,-329.69"/>
<polygon fill="#63b8ff" stroke="#63b8ff" points="223.71,-329.96 220.21,-319.96 216.71,-329.96 223.71,-329.96"/>
</a>
</g>
</g>
<!-- Node18 -->
<g id="Node000018" class="node">
<title>Node18</title>
<g id="a_Node000018"><a xlink:href="transform_8h.html" target="_top" xlink:title=" ">
<polygon fill="white" stroke="#666666" points="344.96,-318 279.46,-318 279.46,-298.75 344.96,-298.75 344.96,-318"/>
<text text-anchor="middle" x="312.21" y="-304.5" font-family="Helvetica,sans-Serif" font-size="10.00">transform.h</text>
</a>
</g>
</g>
<!-- Node16&#45;&gt;Node18 -->
<g id="edge23_Node000016_Node000018" class="edge">
<title>Node16&#45;&gt;Node18</title>
<g id="a_edge23_Node000016_Node000018"><a xlink:title=" ">
<path fill="none" stroke="#63b8ff" d="M242.95,-353.7C256.82,-344.82 274.53,-333.49 288.56,-324.51"/>
<polygon fill="#63b8ff" stroke="#63b8ff" points="290.22,-327.61 296.75,-319.27 286.44,-321.71 290.22,-327.61"/>
</a>
</g>
</g>
<!-- Node18&#45;&gt;Node3 -->
<g id="edge24_Node000018_Node000003" class="edge">
<title>Node18&#45;&gt;Node3</title>
<g id="a_edge24_Node000018_Node000003"><a xlink:title=" ">
<path fill="none" stroke="#63b8ff" d="M345.17,-304.82C396.03,-300.11 489.91,-288.14 510.21,-262.75 543.48,-221.15 475.09,-171.44 434.82,-147.17"/>
<polygon fill="#63b8ff" stroke="#63b8ff" points="436.73,-144.24 426.33,-142.2 433.19,-150.28 436.73,-144.24"/>
</a>
</g>
</g>
<!-- Node18&#45;&gt;Node6 -->
<g id="edge27_Node000018_Node000006" class="edge">
<title>Node18&#45;&gt;Node6</title>
<g id="a_edge27_Node000018_Node000006"><a xlink:title=" ">
<path fill="none" stroke="#63b8ff" d="M312.13,-298.37C311.98,-279.3 311.6,-234.41 311.38,-208.01"/>
<polygon fill="#63b8ff" stroke="#63b8ff" points="314.88,-208.21 311.3,-198.24 307.88,-208.27 314.88,-208.21"/>
</a>
</g>
</g>
<!-- Node18&#45;&gt;Node7 -->
<g id="edge26_Node000018_Node000007" class="edge">
<title>Node18&#45;&gt;Node7</title>
<g id="a_edge26_Node000018_Node000007"><a xlink:title=" ">
<path fill="none" stroke="#63b8ff" d="M291.83,-298.28C277.15,-290.74 257.93,-278.68 246.21,-262.75 221.81,-229.58 216.33,-179.97 215.27,-152.49"/>
<polygon fill="#63b8ff" stroke="#63b8ff" points="218.78,-152.7 215.08,-142.78 211.78,-152.84 218.78,-152.7"/>
</a>
</g>
</g>
<!-- Node18&#45;&gt;Node14 -->
<g id="edge32_Node000018_Node000014" class="edge">
<title>Node18&#45;&gt;Node14</title>
<g id="a_edge32_Node000018_Node000014"><a xlink:title=" ">
<path fill="none" stroke="#63b8ff" d="M279.35,-300.72C275.93,-300.04 272.5,-299.38 269.21,-298.75 225.07,-290.33 99.02,-297.24 70.21,-262.75 56.25,-246.03 69.6,-221.53 82,-205.1"/>
<polygon fill="#63b8ff" stroke="#63b8ff" points="84.45,-207.63 88.02,-197.65 79.01,-203.23 84.45,-207.63"/>
</a>
</g>
</g>
<!-- Node19 -->
<g id="Node000019" class="node">
<title>Node19</title>
<g id="a_Node000019"><a xlink:title=" ">
<polygon fill="#e0e0e0" stroke="#999999" points="284.96,-257.12 255.46,-257.12 255.46,-237.88 284.96,-237.88 284.96,-257.12"/>
<text text-anchor="middle" x="270.21" y="-243.62" font-family="Helvetica,sans-Serif" font-size="10.00">set</text>
</a>
</g>
</g>
<!-- Node18&#45;&gt;Node19 -->
<g id="edge25_Node000018_Node000019" class="edge">
<title>Node18&#45;&gt;Node19</title>
<g id="a_edge25_Node000018_Node000019"><a xlink:title=" ">
<path fill="none" stroke="#63b8ff" d="M305.83,-298.43C299.85,-290.05 290.72,-277.26 283.21,-266.72"/>
<polygon fill="#63b8ff" stroke="#63b8ff" points="286.18,-264.87 277.53,-258.76 280.49,-268.93 286.18,-264.87"/>
</a>
</g>
</g>
<!-- Node20 -->
<g id="Node000020" class="node">
<title>Node20</title>
<g id="a_Node000020"><a xlink:href="observable_8h.html" target="_top" xlink:title=" ">
<polygon fill="white" stroke="#666666" points="703.46,-196.25 556.96,-196.25 556.96,-177 703.46,-177 703.46,-196.25"/>
<text text-anchor="middle" x="630.21" y="-182.75" font-family="Helvetica,sans-Serif" font-size="10.00">sensesp/system/observable.h</text>
</a>
</g>
</g>
<!-- Node18&#45;&gt;Node20 -->
<g id="edge28_Node000018_Node000020" class="edge">
<title>Node18&#45;&gt;Node20</title>
<g id="a_edge28_Node000018_Node000020"><a xlink:title=" ">
<path fill="none" stroke="#63b8ff" d="M345.26,-306.31C391.67,-303.66 477.79,-294.48 543.21,-262.75 572.26,-248.66 599.34,-222.37 615.34,-204.93"/>
<polygon fill="#63b8ff" stroke="#63b8ff" points="617.6,-207.66 621.64,-197.86 612.37,-203 617.6,-207.66"/>
</a>
</g>
</g>
<!-- Node22 -->
<g id="Node000022" class="node">
<title>Node22</title>
<g id="a_Node000022"><a xlink:href="valueproducer_8h.html" target="_top" xlink:title=" ">
<polygon fill="white" stroke="#666666" points="500.83,-257.12 341.58,-257.12 341.58,-237.88 500.83,-237.88 500.83,-257.12"/>
<text text-anchor="middle" x="421.21" y="-243.62" font-family="Helvetica,sans-Serif" font-size="10.00">sensesp/system/valueproducer.h</text>
</a>
</g>
</g>
<!-- Node18&#45;&gt;Node22 -->
<g id="edge33_Node000018_Node000022" class="edge">
<title>Node18&#45;&gt;Node22</title>
<g id="a_edge33_Node000018_Node000022"><a xlink:title=" ">
<path fill="none" stroke="#63b8ff" d="M328.76,-298.43C346.21,-289.01 373.95,-274.02 394.5,-262.93"/>
<polygon fill="#63b8ff" stroke="#63b8ff" points="396.03,-266.08 403.17,-258.25 392.71,-259.92 396.03,-266.08"/>
</a>
</g>
</g>
<!-- Node20&#45;&gt;Node4 -->
<g id="edge30_Node000020_Node000004" class="edge">
<title>Node20&#45;&gt;Node4</title>
<g id="a_edge30_Node000020_Node000004"><a xlink:title=" ">
<path fill="none" stroke="#63b8ff" d="M617.66,-176.59C606.75,-168.74 590.71,-157.2 577.75,-147.87"/>
<polygon fill="#63b8ff" stroke="#63b8ff" points="579.97,-145.16 569.81,-142.16 575.88,-150.84 579.97,-145.16"/>
</a>
</g>
</g>
<!-- Node20&#45;&gt;Node13 -->
<g id="edge31_Node000020_Node000013" class="edge">
<title>Node20&#45;&gt;Node13</title>
<g id="a_edge31_Node000020_Node000013"><a xlink:title=" ">
<path fill="none" stroke="#63b8ff" d="M605.95,-176.59C582.11,-167.71 545.57,-154.11 519.33,-144.33"/>
<polygon fill="#63b8ff" stroke="#63b8ff" points="520.79,-141.14 510.19,-140.93 518.34,-147.7 520.79,-141.14"/>
</a>
</g>
</g>
<!-- Node21 -->
<g id="Node000021" class="node">
<title>Node21</title>
<g id="a_Node000021"><a xlink:title=" ">
<polygon fill="#e0e0e0" stroke="#999999" points="669.33,-141 603.08,-141 603.08,-121.75 669.33,-121.75 669.33,-141"/>
<text text-anchor="middle" x="636.21" y="-127.5" font-family="Helvetica,sans-Serif" font-size="10.00">forward_list</text>
</a>
</g>
</g>
<!-- Node20&#45;&gt;Node21 -->
<g id="edge29_Node000020_Node000021" class="edge">
<title>Node20&#45;&gt;Node21</title>
<g id="a_edge29_Node000020_Node000021"><a xlink:title=" ">
<path fill="none" stroke="#63b8ff" d="M631.2,-176.83C631.94,-170.24 632.99,-160.96 633.93,-152.57"/>
<polygon fill="#63b8ff" stroke="#63b8ff" points="637.39,-153.19 635.03,-142.86 630.43,-152.41 637.39,-153.19"/>
</a>
</g>
</g>
<!-- Node22&#45;&gt;Node3 -->
<g id="edge34_Node000022_Node000003" class="edge">
<title>Node22&#45;&gt;Node3</title>
<g id="a_edge34_Node000022_Node000003"><a xlink:title=" ">
<path fill="none" stroke="#63b8ff" d="M424.17,-237.4C428.09,-224.03 433.98,-198.34 429.21,-177 427.23,-168.13 423.28,-158.94 419.33,-151.23"/>
<polygon fill="#63b8ff" stroke="#63b8ff" points="422.42,-149.57 414.52,-142.51 416.29,-152.95 422.42,-149.57"/>
</a>
</g>
</g>
<!-- Node22&#45;&gt;Node14 -->
<g id="edge36_Node000022_Node000014" class="edge">
<title>Node22&#45;&gt;Node14</title>
<g id="a_edge36_Node000022_Node000014"><a xlink:title=" ">
<path fill="none" stroke="#63b8ff" d="M371.29,-237.43C313.98,-227.01 219.94,-209.93 158.3,-198.73"/>
<polygon fill="#63b8ff" stroke="#63b8ff" points="159.14,-195.32 148.67,-196.98 157.88,-202.21 159.14,-195.32"/>
</a>
</g>
</g>
<!-- Node22&#45;&gt;Node20 -->
<g id="edge35_Node000022_Node000020" class="edge">
<title>Node22&#45;&gt;Node20</title>
<g id="a_edge35_Node000022_Node000020"><a xlink:title=" ">
<path fill="none" stroke="#63b8ff" d="M453.41,-237.43C489.23,-227.34 547.29,-210.98 587.03,-199.79"/>
<polygon fill="#63b8ff" stroke="#63b8ff" points="587.84,-203.2 596.52,-197.12 585.94,-196.46 587.84,-203.2"/>
</a>
</g>
</g>
</g>
</svg>
