<?xml version="1.0" encoding="UTF-8" standalone="no"?>
<!DOCTYPE svg PUBLIC "-//W3C//DTD SVG 1.1//EN"
 "http://www.w3.org/Graphics/SVG/1.1/DTD/svg11.dtd">
<!-- Generated by graphviz version 12.1.0 (20240811.2233)
 -->
<!-- Title: src/sensesp/ui/status_page_item.h Pages: 1 -->
<!--zoomable 437 -->

<svg id="main" version="1.1" xmlns="http://www.w3.org/2000/svg" xmlns:xlink="http://www.w3.org/1999/xlink" xml:space="preserve" onload="init(evt)">

<style type="text/css"><![CDATA[
.node, .edge {opacity: 0.7;}
.node.selected, .edge.selected {opacity: 1;}
.edge:hover path { stroke: red; }
.edge:hover polygon { stroke: red; fill: red; }
]]></style>

<defs>
  <circle id="rim" cx="0" cy="0" r="7"/>
  <circle id="rim2" cx="0" cy="0" r="3.5"/>
  <g id="zoomPlus">
    <use xlink:href="#rim" fill="#404040"><set attributeName="fill" to="#808080" begin="zoomplus.mouseover" end="zoomplus.mouseout"/></use>
    <path d="M-4,0h8M0,-4v8" fill="none" stroke="white" stroke-width="1.5" pointer-events="none"/>
  </g>
  <g id="zoomMin">
    <use xlink:href="#rim" fill="#404040"><set attributeName="fill" to="#808080" begin="zoomminus.mouseover" end="zoomminus.mouseout"/></use>
    <path d="M-4,0h8" fill="none" stroke="white" stroke-width="1.5" pointer-events="none"/>
  </g>
  <g id="arrowUp" transform="translate(30 24)">
    <use xlink:href="#rim"/>
    <path pointer-events="none" fill="none" stroke="white" stroke-width="1.5" d="M0,-3.0v7 M-2.5,-0.5L0,-3.0L2.5,-0.5"/>
  </g>
  <g id="arrowRight" transform="rotate(90) translate(36 -43)">
    <use xlink:href="#rim"/>
    <path pointer-events="none" fill="none" stroke="white" stroke-width="1.5" d="M0,-3.0v7 M-2.5,-0.5L0,-3.0L2.5,-0.5"/>
  </g>
  <g id="arrowDown" transform="rotate(180) translate(-30 -48)">
    <use xlink:href="#rim"/>
    <path pointer-events="none" fill="none" stroke="white" stroke-width="1.5" d="M0,-3.0v7 M-2.5,-0.5L0,-3.0L2.5,-0.5"/>
  </g>
  <g id="arrowLeft" transform="rotate(270) translate(-36 17)">
    <use xlink:href="#rim"/>
    <path pointer-events="none" fill="none" stroke="white" stroke-width="1.5" d="M0,-3.0v7 M-2.5,-0.5L0,-3.0L2.5,-0.5"/>
  </g>
  <g id="resetDef">
    <use xlink:href="#rim2" fill="#404040"><set attributeName="fill" to="#808080" begin="reset.mouseover" end="reset.mouseout"/></use>
  </g>
</defs>
<script type="application/ecmascript">
var viewWidth = 792;
var viewHeight = 437;
var sectionId = 'dynsection-0';
</script>
<script type="application/ecmascript" xlink:href="svg.min.js"/>
<svg id="graph" class="graph">
<g id="viewport">
<title>src/sensesp/ui/status_page_item.h</title>
<!-- Node1 -->
<g id="Node000001" class="node">
<title>Node1</title>
<g id="a_Node000001"><a xlink:title=" ">
<polygon fill="#999999" stroke="#666666" points="473.88,-428.5 364.12,-428.5 364.12,-398 473.88,-398 473.88,-428.5"/>
<text text-anchor="start" x="372.12" y="-415" font-family="Helvetica,sans-Serif" font-size="10.00">src/sensesp/ui/status</text>
<text text-anchor="middle" x="419" y="-403.75" font-family="Helvetica,sans-Serif" font-size="10.00">_page_item.h</text>
</a>
</g>
</g>
<!-- Node2 -->
<g id="Node000002" class="node">
<title>Node2</title>
<g id="a_Node000002"><a xlink:title=" ">
<polygon fill="#e0e0e0" stroke="#999999" points="295.12,-141 216.88,-141 216.88,-121.75 295.12,-121.75 295.12,-141"/>
<text text-anchor="middle" x="256" y="-127.5" font-family="Helvetica,sans-Serif" font-size="10.00">ArduinoJson.h</text>
</a>
</g>
</g>
<!-- Node1&#45;&gt;Node2 -->
<g id="edge1_Node000001_Node000002" class="edge">
<title>Node1&#45;&gt;Node2</title>
<g id="a_edge1_Node000001_Node000002"><a xlink:title=" ">
<path fill="none" stroke="#63b8ff" d="M364.01,-407.32C258.5,-396.35 38,-365.36 38,-298.12 38,-298.12 38,-298.12 38,-240.88 38,-166.5 140.96,-143.11 205.37,-135.75"/>
<polygon fill="#63b8ff" stroke="#63b8ff" points="205.43,-139.26 215.02,-134.75 204.71,-132.3 205.43,-139.26"/>
</a>
</g>
</g>
<!-- Node3 -->
<g id="Node000003" class="node">
<title>Node3</title>
<g id="a_Node000003"><a xlink:title=" ">
<polygon fill="#e0e0e0" stroke="#999999" points="520,-196.25 462,-196.25 462,-177 520,-177 520,-196.25"/>
<text text-anchor="middle" x="491" y="-182.75" font-family="Helvetica,sans-Serif" font-size="10.00">functional</text>
</a>
</g>
</g>
<!-- Node1&#45;&gt;Node3 -->
<g id="edge2_Node000001_Node000003" class="edge">
<title>Node1&#45;&gt;Node3</title>
<g id="a_edge2_Node000001_Node000003"><a xlink:title=" ">
<path fill="none" stroke="#63b8ff" d="M422.74,-397.53C426.39,-383.41 432.23,-361.52 438,-342.75 453.06,-293.71 473.19,-236.83 483.78,-207.45"/>
<polygon fill="#63b8ff" stroke="#63b8ff" points="487.06,-208.67 487.18,-198.08 480.48,-206.29 487.06,-208.67"/>
</a>
</g>
</g>
<!-- Node4 -->
<g id="Node000004" class="node">
<title>Node4</title>
<g id="a_Node000004"><a xlink:title=" ">
<polygon fill="#e0e0e0" stroke="#999999" points="100.38,-251.5 65.62,-251.5 65.62,-232.25 100.38,-232.25 100.38,-251.5"/>
<text text-anchor="middle" x="83" y="-238" font-family="Helvetica,sans-Serif" font-size="10.00">map</text>
</a>
</g>
</g>
<!-- Node1&#45;&gt;Node4 -->
<g id="edge3_Node000001_Node000004" class="edge">
<title>Node1&#45;&gt;Node4</title>
<g id="a_edge3_Node000001_Node000004"><a xlink:title=" ">
<path fill="none" stroke="#63b8ff" d="M382,-397.55C335.03,-378.47 251.96,-343.26 184,-306.75 156.14,-291.78 125.65,-271.99 105.54,-258.43"/>
<polygon fill="#63b8ff" stroke="#63b8ff" points="107.52,-255.55 97.29,-252.82 103.59,-261.34 107.52,-255.55"/>
</a>
</g>
</g>
<!-- Node5 -->
<g id="Node000005" class="node">
<title>Node5</title>
<g id="a_Node000005"><a xlink:title=" ">
<polygon fill="#e0e0e0" stroke="#999999" points="217.62,-19.25 160.38,-19.25 160.38,0 217.62,0 217.62,-19.25"/>
<text text-anchor="middle" x="189" y="-5.75" font-family="Helvetica,sans-Serif" font-size="10.00">Arduino.h</text>
</a>
</g>
</g>
<!-- Node1&#45;&gt;Node5 -->
<g id="edge4_Node000001_Node000005" class="edge">
<title>Node1&#45;&gt;Node5</title>
<g id="a_edge4_Node000001_Node000005"><a xlink:title=" ">
<path fill="none" stroke="#63b8ff" d="M363.82,-407.99C279.87,-400.88 124.52,-385.07 74,-362 34.48,-343.95 0,-341.57 0,-298.12 0,-298.12 0,-298.12 0,-130.38 0,-60.57 93.14,-29.75 148.66,-17.59"/>
<polygon fill="#63b8ff" stroke="#63b8ff" points="149.32,-21.03 158.4,-15.58 147.9,-14.17 149.32,-21.03"/>
</a>
</g>
</g>
<!-- Node6 -->
<g id="Node000006" class="node">
<title>Node6</title>
<g id="a_Node000006"><a xlink:href="observablevalue_8h.html" target="_top" xlink:title=" ">
<polygon fill="white" stroke="#666666" points="616.88,-362 447.12,-362 447.12,-342.75 616.88,-342.75 616.88,-362"/>
<text text-anchor="middle" x="532" y="-348.5" font-family="Helvetica,sans-Serif" font-size="10.00">sensesp/system/observablevalue.h</text>
</a>
</g>
</g>
<!-- Node1&#45;&gt;Node6 -->
<g id="edge5_Node000001_Node000006" class="edge">
<title>Node1&#45;&gt;Node6</title>
<g id="a_edge5_Node000001_Node000006"><a xlink:title=" ">
<path fill="none" stroke="#63b8ff" d="M447.22,-397.55C464.76,-388.41 487.2,-376.72 504.59,-367.66"/>
<polygon fill="#63b8ff" stroke="#63b8ff" points="506.08,-370.83 513.33,-363.1 502.84,-364.62 506.08,-370.83"/>
</a>
</g>
</g>
<!-- Node20 -->
<g id="Node000020" class="node">
<title>Node20</title>
<g id="a_Node000020"><a xlink:href="valueproducer_8h.html" target="_top" xlink:title=" ">
<polygon fill="white" stroke="#666666" points="656.12,-306.75 571.88,-306.75 571.88,-287.5 656.12,-287.5 656.12,-306.75"/>
<text text-anchor="middle" x="614" y="-293.25" font-family="Helvetica,sans-Serif" font-size="10.00">valueproducer.h</text>
</a>
</g>
</g>
<!-- Node1&#45;&gt;Node20 -->
<g id="edge40_Node000001_Node000020" class="edge">
<title>Node1&#45;&gt;Node20</title>
<g id="a_edge40_Node000001_Node000020"><a xlink:title=" ">
<path fill="none" stroke="#63b8ff" d="M474.24,-406.49C529.03,-399.5 607.43,-385.62 626,-362 636.02,-349.26 631.02,-330.71 624.7,-316.88"/>
<polygon fill="#63b8ff" stroke="#63b8ff" points="627.99,-315.64 620.3,-308.35 621.77,-318.84 627.99,-315.64"/>
</a>
</g>
</g>
<!-- Node21 -->
<g id="Node000021" class="node">
<title>Node21</title>
<g id="a_Node000021"><a xlink:href="valueconsumer_8h.html" target="_top" xlink:title=" ">
<polygon fill="white" stroke="#666666" points="749.75,-251.5 660.25,-251.5 660.25,-232.25 749.75,-232.25 749.75,-251.5"/>
<text text-anchor="middle" x="705" y="-238" font-family="Helvetica,sans-Serif" font-size="10.00">valueconsumer.h</text>
</a>
</g>
</g>
<!-- Node1&#45;&gt;Node21 -->
<g id="edge39_Node000001_Node000021" class="edge">
<title>Node1&#45;&gt;Node21</title>
<g id="a_edge39_Node000001_Node000021"><a xlink:title=" ">
<path fill="none" stroke="#63b8ff" d="M474.18,-412.5C523.18,-410.01 594.35,-399.43 643,-362 675.7,-336.84 692.82,-289.54 700.27,-262.73"/>
<polygon fill="#63b8ff" stroke="#63b8ff" points="703.63,-263.73 702.73,-253.17 696.85,-261.98 703.63,-263.73"/>
</a>
</g>
</g>
<!-- Node7 -->
<g id="Node000007" class="node">
<title>Node7</title>
<g id="a_Node000007"><a xlink:href="saveable_8h.html" target="_top" xlink:title=" ">
<polygon fill="white" stroke="#666666" points="323.62,-251.5 260.38,-251.5 260.38,-232.25 323.62,-232.25 323.62,-251.5"/>
<text text-anchor="middle" x="292" y="-238" font-family="Helvetica,sans-Serif" font-size="10.00">saveable.h</text>
</a>
</g>
</g>
<!-- Node6&#45;&gt;Node7 -->
<g id="edge6_Node000006_Node000007" class="edge">
<title>Node6&#45;&gt;Node7</title>
<g id="a_edge6_Node000006_Node000007"><a xlink:title=" ">
<path fill="none" stroke="#63b8ff" d="M511.95,-342.31C469.95,-323.32 372.5,-279.27 322.62,-256.72"/>
<polygon fill="#63b8ff" stroke="#63b8ff" points="324.09,-253.54 313.54,-252.61 321.21,-259.92 324.09,-253.54"/>
</a>
</g>
</g>
<!-- Node14 -->
<g id="Node000014" class="node">
<title>Node14</title>
<g id="a_Node000014"><a xlink:href="observable_8h.html" target="_top" xlink:title=" ">
<polygon fill="white" stroke="#666666" points="567.75,-251.5 496.25,-251.5 496.25,-232.25 567.75,-232.25 567.75,-251.5"/>
<text text-anchor="middle" x="532" y="-238" font-family="Helvetica,sans-Serif" font-size="10.00">observable.h</text>
</a>
</g>
</g>
<!-- Node6&#45;&gt;Node14 -->
<g id="edge19_Node000006_Node000014" class="edge">
<title>Node6&#45;&gt;Node14</title>
<g id="a_edge19_Node000006_Node000014"><a xlink:title=" ">
<path fill="none" stroke="#63b8ff" d="M532,-342.5C532,-325.25 532,-286.83 532,-263.06"/>
<polygon fill="#63b8ff" stroke="#63b8ff" points="535.5,-263.39 532,-253.39 528.5,-263.39 535.5,-263.39"/>
</a>
</g>
</g>
<!-- Node17 -->
<g id="Node000017" class="node">
<title>Node17</title>
<g id="a_Node000017"><a xlink:href="config__item_8h.html" target="_top" xlink:title=" ">
<polygon fill="white" stroke="#666666" points="317.38,-306.75 192.62,-306.75 192.62,-287.5 317.38,-287.5 317.38,-306.75"/>
<text text-anchor="middle" x="255" y="-293.25" font-family="Helvetica,sans-Serif" font-size="10.00">sensesp/ui/config_item.h</text>
</a>
</g>
</g>
<!-- Node6&#45;&gt;Node17 -->
<g id="edge23_Node000006_Node000017" class="edge">
<title>Node6&#45;&gt;Node17</title>
<g id="a_edge23_Node000006_Node000017"><a xlink:title=" ">
<path fill="none" stroke="#63b8ff" d="M484.7,-342.28C437.29,-333.17 364.22,-319.12 313.27,-309.33"/>
<polygon fill="#63b8ff" stroke="#63b8ff" points="314.08,-305.92 303.59,-307.47 312.75,-312.79 314.08,-305.92"/>
</a>
</g>
</g>
<!-- Node6&#45;&gt;Node20 -->
<g id="edge31_Node000006_Node000020" class="edge">
<title>Node6&#45;&gt;Node20</title>
<g id="a_edge31_Node000006_Node000020"><a xlink:title=" ">
<path fill="none" stroke="#63b8ff" d="M545.91,-342.34C558.16,-334.39 576.25,-322.64 590.71,-313.25"/>
<polygon fill="#63b8ff" stroke="#63b8ff" points="592.27,-316.41 598.75,-308.03 588.46,-310.54 592.27,-316.41"/>
</a>
</g>
</g>
<!-- Node7&#45;&gt;Node2 -->
<g id="edge13_Node000007_Node000002" class="edge">
<title>Node7&#45;&gt;Node2</title>
<g id="a_edge13_Node000007_Node000002"><a xlink:title=" ">
<path fill="none" stroke="#63b8ff" d="M283.48,-231.78C276.11,-223.3 265.88,-209.93 261,-196.25 256.01,-182.26 254.87,-165.49 254.91,-152.65"/>
<polygon fill="#63b8ff" stroke="#63b8ff" points="258.4,-152.97 255.21,-142.87 251.41,-152.76 258.4,-152.97"/>
</a>
</g>
</g>
<!-- Node7&#45;&gt;Node5 -->
<g id="edge14_Node000007_Node000005" class="edge">
<title>Node7&#45;&gt;Node5</title>
<g id="a_edge14_Node000007_Node000005"><a xlink:title=" ">
<path fill="none" stroke="#63b8ff" d="M281.29,-231.99C262.8,-215.96 225.23,-180.2 208,-141 191.94,-104.47 188.95,-57.18 188.67,-30.76"/>
<polygon fill="#63b8ff" stroke="#63b8ff" points="192.17,-31.13 188.7,-21.12 185.17,-31.11 192.17,-31.13"/>
</a>
</g>
</g>
<!-- Node8 -->
<g id="Node000008" class="node">
<title>Node8</title>
<g id="a_Node000008"><a xlink:href="sensesp_8h.html" target="_top" xlink:title=" ">
<polygon fill="white" stroke="#666666" points="416.5,-141 355.5,-141 355.5,-121.75 416.5,-121.75 416.5,-141"/>
<text text-anchor="middle" x="386" y="-127.5" font-family="Helvetica,sans-Serif" font-size="10.00">sensesp.h</text>
</a>
</g>
</g>
<!-- Node7&#45;&gt;Node8 -->
<g id="edge7_Node000007_Node000008" class="edge">
<title>Node7&#45;&gt;Node8</title>
<g id="a_edge7_Node000007_Node000008"><a xlink:title=" ">
<path fill="none" stroke="#63b8ff" d="M308.4,-231.79C321.71,-223.78 340.29,-211.1 353,-196.25 364.3,-183.05 373.07,-165.32 378.72,-151.88"/>
<polygon fill="#63b8ff" stroke="#63b8ff" points="381.88,-153.4 382.31,-142.82 375.37,-150.83 381.88,-153.4"/>
</a>
</g>
</g>
<!-- Node13 -->
<g id="Node000013" class="node">
<title>Node13</title>
<g id="a_Node000013"><a xlink:href="serializable_8h.html" target="_top" xlink:title=" ">
<polygon fill="white" stroke="#666666" points="343.5,-196.25 270.5,-196.25 270.5,-177 343.5,-177 343.5,-196.25"/>
<text text-anchor="middle" x="307" y="-182.75" font-family="Helvetica,sans-Serif" font-size="10.00">serializable.h</text>
</a>
</g>
</g>
<!-- Node7&#45;&gt;Node13 -->
<g id="edge15_Node000007_Node000013" class="edge">
<title>Node7&#45;&gt;Node13</title>
<g id="a_edge15_Node000007_Node000013"><a xlink:title=" ">
<path fill="none" stroke="#63b8ff" d="M294.48,-232.08C296.35,-225.42 299.01,-215.99 301.39,-207.53"/>
<polygon fill="#63b8ff" stroke="#63b8ff" points="304.72,-208.64 304.06,-198.07 297.98,-206.74 304.72,-208.64"/>
</a>
</g>
</g>
<!-- Node9 -->
<g id="Node000009" class="node">
<title>Node9</title>
<g id="a_Node000009"><a xlink:title=" ">
<polygon fill="#e0e0e0" stroke="#999999" points="420.62,-80.12 351.38,-80.12 351.38,-60.88 420.62,-60.88 420.62,-80.12"/>
<text text-anchor="middle" x="386" y="-66.62" font-family="Helvetica,sans-Serif" font-size="10.00">ReactESP.h</text>
</a>
</g>
</g>
<!-- Node8&#45;&gt;Node9 -->
<g id="edge8_Node000008_Node000009" class="edge">
<title>Node8&#45;&gt;Node9</title>
<g id="a_edge8_Node000008_Node000009"><a xlink:title=" ">
<path fill="none" stroke="#63b8ff" d="M386,-121.43C386,-113.65 386,-102.08 386,-92.03"/>
<polygon fill="#63b8ff" stroke="#63b8ff" points="389.5,-92.04 386,-82.04 382.5,-92.04 389.5,-92.04"/>
</a>
</g>
</g>
<!-- Node10 -->
<g id="Node000010" class="node">
<title>Node10</title>
<g id="a_Node000010"><a xlink:href="local__debug_8h.html" target="_top" xlink:title=" ">
<polygon fill="white" stroke="#666666" points="549.62,-85.75 438.38,-85.75 438.38,-55.25 549.62,-55.25 549.62,-85.75"/>
<text text-anchor="start" x="446.38" y="-72.25" font-family="Helvetica,sans-Serif" font-size="10.00">sensesp/system/local</text>
<text text-anchor="middle" x="494" y="-61" font-family="Helvetica,sans-Serif" font-size="10.00">_debug.h</text>
</a>
</g>
</g>
<!-- Node8&#45;&gt;Node10 -->
<g id="edge9_Node000008_Node000010" class="edge">
<title>Node8&#45;&gt;Node10</title>
<g id="a_edge9_Node000008_Node000010"><a xlink:title=" ">
<path fill="none" stroke="#63b8ff" d="M402.4,-121.43C416.94,-113.51 438.7,-101.65 457.36,-91.47"/>
<polygon fill="#63b8ff" stroke="#63b8ff" points="458.91,-94.62 466.01,-86.76 455.56,-88.47 458.91,-94.62"/>
</a>
</g>
</g>
<!-- Node10&#45;&gt;Node5 -->
<g id="edge11_Node000010_Node000005" class="edge">
<title>Node10&#45;&gt;Node5</title>
<g id="a_edge11_Node000010_Node000005"><a xlink:title=" ">
<path fill="none" stroke="#63b8ff" d="M438.18,-56.95C435.41,-56.36 432.68,-55.8 430,-55.25 359.51,-40.88 277.02,-26.03 229.12,-17.6"/>
<polygon fill="#63b8ff" stroke="#63b8ff" points="229.95,-14.19 219.49,-15.91 228.74,-21.08 229.95,-14.19"/>
</a>
</g>
</g>
<!-- Node11 -->
<g id="Node000011" class="node">
<title>Node11</title>
<g id="a_Node000011"><a xlink:title=" ">
<polygon fill="#e0e0e0" stroke="#999999" points="494,-19.25 412,-19.25 412,0 494,0 494,-19.25"/>
<text text-anchor="middle" x="453" y="-5.75" font-family="Helvetica,sans-Serif" font-size="10.00">esp32&#45;hal&#45;log.h</text>
</a>
</g>
</g>
<!-- Node10&#45;&gt;Node11 -->
<g id="edge10_Node000010_Node000011" class="edge">
<title>Node10&#45;&gt;Node11</title>
<g id="a_edge10_Node000010_Node000011"><a xlink:title=" ">
<path fill="none" stroke="#63b8ff" d="M483.87,-54.95C478.4,-47.1 471.61,-37.35 465.79,-28.99"/>
<polygon fill="#63b8ff" stroke="#63b8ff" points="468.77,-27.15 460.19,-20.94 463.03,-31.15 468.77,-27.15"/>
</a>
</g>
</g>
<!-- Node12 -->
<g id="Node000012" class="node">
<title>Node12</title>
<g id="a_Node000012"><a xlink:title=" ">
<polygon fill="#e0e0e0" stroke="#999999" points="556.25,-19.25 511.75,-19.25 511.75,0 556.25,0 556.25,-19.25"/>
<text text-anchor="middle" x="534" y="-5.75" font-family="Helvetica,sans-Serif" font-size="10.00">Print.h</text>
</a>
</g>
</g>
<!-- Node10&#45;&gt;Node12 -->
<g id="edge12_Node000010_Node000012" class="edge">
<title>Node10&#45;&gt;Node12</title>
<g id="a_edge12_Node000010_Node000012"><a xlink:title=" ">
<path fill="none" stroke="#63b8ff" d="M503.89,-54.95C509.22,-47.1 515.85,-37.35 521.53,-28.99"/>
<polygon fill="#63b8ff" stroke="#63b8ff" points="524.26,-31.19 526.98,-20.95 518.47,-27.26 524.26,-31.19"/>
</a>
</g>
</g>
<!-- Node13&#45;&gt;Node2 -->
<g id="edge17_Node000013_Node000002" class="edge">
<title>Node13&#45;&gt;Node2</title>
<g id="a_edge17_Node000013_Node000002"><a xlink:title=" ">
<path fill="none" stroke="#63b8ff" d="M298.58,-176.83C291.46,-169.4 281.06,-158.54 272.31,-149.41"/>
<polygon fill="#63b8ff" stroke="#63b8ff" points="275.1,-147.25 265.65,-142.45 270.04,-152.1 275.1,-147.25"/>
</a>
</g>
</g>
<!-- Node13&#45;&gt;Node5 -->
<g id="edge18_Node000013_Node000005" class="edge">
<title>Node13&#45;&gt;Node5</title>
<g id="a_edge18_Node000013_Node000005"><a xlink:title=" ">
<path fill="none" stroke="#63b8ff" d="M308.54,-176.89C310.37,-164.14 312.23,-139.96 304,-121.75 284.74,-79.17 241.09,-44.54 213.45,-25.82"/>
<polygon fill="#63b8ff" stroke="#63b8ff" points="215.61,-23.05 205.33,-20.48 211.77,-28.9 215.61,-23.05"/>
</a>
</g>
</g>
<!-- Node13&#45;&gt;Node8 -->
<g id="edge16_Node000013_Node000008" class="edge">
<title>Node13&#45;&gt;Node8</title>
<g id="a_edge16_Node000013_Node000008"><a xlink:title=" ">
<path fill="none" stroke="#63b8ff" d="M320.4,-176.59C332.09,-168.71 349.3,-157.11 363.16,-147.77"/>
<polygon fill="#63b8ff" stroke="#63b8ff" points="364.94,-150.79 371.28,-142.3 361.03,-144.99 364.94,-150.79"/>
</a>
</g>
</g>
<!-- Node14&#45;&gt;Node3 -->
<g id="edge21_Node000014_Node000003" class="edge">
<title>Node14&#45;&gt;Node3</title>
<g id="a_edge21_Node000014_Node000003"><a xlink:title=" ">
<path fill="none" stroke="#63b8ff" d="M525.23,-232.08C519.68,-224.88 511.66,-214.46 504.77,-205.51"/>
<polygon fill="#63b8ff" stroke="#63b8ff" points="507.71,-203.6 498.84,-197.81 502.17,-207.87 507.71,-203.6"/>
</a>
</g>
</g>
<!-- Node15 -->
<g id="Node000015" class="node">
<title>Node15</title>
<g id="a_Node000015"><a xlink:title=" ">
<polygon fill="#e0e0e0" stroke="#999999" points="604.12,-196.25 537.88,-196.25 537.88,-177 604.12,-177 604.12,-196.25"/>
<text text-anchor="middle" x="571" y="-182.75" font-family="Helvetica,sans-Serif" font-size="10.00">forward_list</text>
</a>
</g>
</g>
<!-- Node14&#45;&gt;Node15 -->
<g id="edge20_Node000014_Node000015" class="edge">
<title>Node14&#45;&gt;Node15</title>
<g id="a_edge20_Node000014_Node000015"><a xlink:title=" ">
<path fill="none" stroke="#63b8ff" d="M538.44,-232.08C543.66,-224.96 551.19,-214.68 557.69,-205.8"/>
<polygon fill="#63b8ff" stroke="#63b8ff" points="560.44,-207.97 563.53,-197.83 554.79,-203.83 560.44,-207.97"/>
</a>
</g>
</g>
<!-- Node16 -->
<g id="Node000016" class="node">
<title>Node16</title>
<g id="a_Node000016"><a xlink:title=" ">
<polygon fill="#e0e0e0" stroke="#999999" points="443.5,-196.25 400.5,-196.25 400.5,-177 443.5,-177 443.5,-196.25"/>
<text text-anchor="middle" x="422" y="-182.75" font-family="Helvetica,sans-Serif" font-size="10.00">vector</text>
</a>
</g>
</g>
<!-- Node14&#45;&gt;Node16 -->
<g id="edge22_Node000014_Node000016" class="edge">
<title>Node14&#45;&gt;Node16</title>
<g id="a_edge22_Node000014_Node000016"><a xlink:title=" ">
<path fill="none" stroke="#63b8ff" d="M513.34,-231.84C496.27,-223.58 470.76,-211.23 451.03,-201.68"/>
<polygon fill="#63b8ff" stroke="#63b8ff" points="452.64,-198.57 442.11,-197.36 449.59,-204.87 452.64,-198.57"/>
</a>
</g>
</g>
<!-- Node17&#45;&gt;Node2 -->
<g id="edge29_Node000017_Node000002" class="edge">
<title>Node17&#45;&gt;Node2</title>
<g id="a_edge29_Node000017_Node000002"><a xlink:title=" ">
<path fill="none" stroke="#63b8ff" d="M229.14,-287.07C213.31,-280.04 194.36,-268.56 185,-251.5 180.89,-244 182.4,-240.4 185,-232.25 195.51,-199.33 221.26,-167.98 238.69,-149.46"/>
<polygon fill="#63b8ff" stroke="#63b8ff" points="240.96,-152.14 245.41,-142.53 235.94,-147.27 240.96,-152.14"/>
</a>
</g>
</g>
<!-- Node17&#45;&gt;Node4 -->
<g id="edge24_Node000017_Node000004" class="edge">
<title>Node17&#45;&gt;Node4</title>
<g id="a_edge24_Node000017_Node000004"><a xlink:title=" ">
<path fill="none" stroke="#63b8ff" d="M225.82,-287.09C193.9,-277.21 143.06,-261.47 111.43,-251.68"/>
<polygon fill="#63b8ff" stroke="#63b8ff" points="112.76,-248.42 102.17,-248.81 110.68,-255.11 112.76,-248.42"/>
</a>
</g>
</g>
<!-- Node17&#45;&gt;Node5 -->
<g id="edge28_Node000017_Node000005" class="edge">
<title>Node17&#45;&gt;Node5</title>
<g id="a_edge28_Node000017_Node000005"><a xlink:title=" ">
<path fill="none" stroke="#63b8ff" d="M228.38,-287.04C191.14,-272.44 128,-239.97 128,-187.62 128,-187.62 128,-187.62 128,-130.38 128,-90.54 155.13,-50.57 173.21,-28.37"/>
<polygon fill="#63b8ff" stroke="#63b8ff" points="175.75,-30.79 179.54,-20.89 170.41,-26.26 175.75,-30.79"/>
</a>
</g>
</g>
<!-- Node17&#45;&gt;Node7 -->
<g id="edge30_Node000017_Node000007" class="edge">
<title>Node17&#45;&gt;Node7</title>
<g id="a_edge30_Node000017_Node000007"><a xlink:title=" ">
<path fill="none" stroke="#63b8ff" d="M261.11,-287.33C266.06,-280.21 273.2,-269.93 279.37,-261.05"/>
<polygon fill="#63b8ff" stroke="#63b8ff" points="282.06,-263.31 284.89,-253.1 276.31,-259.32 282.06,-263.31"/>
</a>
</g>
</g>
<!-- Node17&#45;&gt;Node16 -->
<g id="edge26_Node000017_Node000016" class="edge">
<title>Node17&#45;&gt;Node16</title>
<g id="a_edge26_Node000017_Node000016"><a xlink:title=" ">
<path fill="none" stroke="#63b8ff" d="M272.03,-287.04C288.04,-278.35 312.52,-264.66 333,-251.5 356.92,-236.13 383.25,-216.93 401.02,-203.61"/>
<polygon fill="#63b8ff" stroke="#63b8ff" points="403.1,-206.43 408.97,-197.62 398.88,-200.85 403.1,-206.43"/>
</a>
</g>
</g>
<!-- Node18 -->
<g id="Node000018" class="node">
<title>Node18</title>
<g id="a_Node000018"><a xlink:title=" ">
<polygon fill="#e0e0e0" stroke="#999999" points="431.62,-251.5 380.38,-251.5 380.38,-232.25 431.62,-232.25 431.62,-251.5"/>
<text text-anchor="middle" x="406" y="-238" font-family="Helvetica,sans-Serif" font-size="10.00">memory</text>
</a>
</g>
</g>
<!-- Node17&#45;&gt;Node18 -->
<g id="edge25_Node000017_Node000018" class="edge">
<title>Node17&#45;&gt;Node18</title>
<g id="a_edge25_Node000017_Node000018"><a xlink:title=" ">
<path fill="none" stroke="#63b8ff" d="M280.62,-287.09C305.02,-278.49 342.01,-265.44 369.5,-255.75"/>
<polygon fill="#63b8ff" stroke="#63b8ff" points="370.57,-259.08 378.83,-252.46 368.24,-252.48 370.57,-259.08"/>
</a>
</g>
</g>
<!-- Node19 -->
<g id="Node000019" class="node">
<title>Node19</title>
<g id="a_Node000019"><a xlink:title=" ">
<polygon fill="#e0e0e0" stroke="#999999" points="242.12,-251.5 193.88,-251.5 193.88,-232.25 242.12,-232.25 242.12,-251.5"/>
<text text-anchor="middle" x="218" y="-238" font-family="Helvetica,sans-Serif" font-size="10.00">cstddef</text>
</a>
</g>
</g>
<!-- Node17&#45;&gt;Node19 -->
<g id="edge27_Node000017_Node000019" class="edge">
<title>Node17&#45;&gt;Node19</title>
<g id="a_edge27_Node000017_Node000019"><a xlink:title=" ">
<path fill="none" stroke="#63b8ff" d="M248.89,-287.33C243.94,-280.21 236.8,-269.93 230.63,-261.05"/>
<polygon fill="#63b8ff" stroke="#63b8ff" points="233.69,-259.32 225.11,-253.1 227.94,-263.31 233.69,-259.32"/>
</a>
</g>
</g>
<!-- Node20&#45;&gt;Node2 -->
<g id="edge32_Node000020_Node000002" class="edge">
<title>Node20&#45;&gt;Node2</title>
<g id="a_edge32_Node000020_Node000002"><a xlink:title=" ">
<path fill="none" stroke="#63b8ff" d="M617.37,-287.28C625.03,-265.45 641.06,-208.51 613,-177 607.95,-171.33 404.31,-148.49 306.9,-137.87"/>
<polygon fill="#63b8ff" stroke="#63b8ff" points="307.39,-134.4 297.07,-136.8 306.64,-141.36 307.39,-134.4"/>
</a>
</g>
</g>
<!-- Node20&#45;&gt;Node14 -->
<g id="edge34_Node000020_Node000014" class="edge">
<title>Node20&#45;&gt;Node14</title>
<g id="a_edge34_Node000020_Node000014"><a xlink:title=" ">
<path fill="none" stroke="#63b8ff" d="M600.09,-287.09C587.84,-279.14 569.75,-267.39 555.29,-258"/>
<polygon fill="#63b8ff" stroke="#63b8ff" points="557.54,-255.29 547.25,-252.78 553.73,-261.16 557.54,-255.29"/>
</a>
</g>
</g>
<!-- Node20&#45;&gt;Node18 -->
<g id="edge33_Node000020_Node000018" class="edge">
<title>Node20&#45;&gt;Node18</title>
<g id="a_edge33_Node000020_Node000018"><a xlink:title=" ">
<path fill="none" stroke="#63b8ff" d="M578.72,-287.09C540.84,-277.4 480.97,-262.07 442.6,-252.24"/>
<polygon fill="#63b8ff" stroke="#63b8ff" points="443.93,-248.97 433.37,-249.88 442.19,-255.75 443.93,-248.97"/>
</a>
</g>
</g>
<!-- Node20&#45;&gt;Node21 -->
<g id="edge35_Node000020_Node000021" class="edge">
<title>Node20&#45;&gt;Node21</title>
<g id="a_edge35_Node000020_Node000021"><a xlink:title=" ">
<path fill="none" stroke="#63b8ff" d="M629.44,-287.09C643.16,-279.06 663.5,-267.16 679.62,-257.73"/>
<polygon fill="#63b8ff" stroke="#63b8ff" points="681.32,-260.79 688.18,-252.72 677.78,-254.75 681.32,-260.79"/>
</a>
</g>
</g>
<!-- Node21&#45;&gt;Node2 -->
<g id="edge37_Node000021_Node000002" class="edge">
<title>Node21&#45;&gt;Node2</title>
<g id="a_edge37_Node000021_Node000002"><a xlink:title=" ">
<path fill="none" stroke="#63b8ff" d="M699.8,-232.01C690.84,-217.67 671.04,-189.7 646,-177 631.06,-169.42 408.9,-147.15 306.72,-137.23"/>
<polygon fill="#63b8ff" stroke="#63b8ff" points="307.26,-133.77 296.97,-136.29 306.59,-140.74 307.26,-133.77"/>
</a>
</g>
</g>
<!-- Node21&#45;&gt;Node8 -->
<g id="edge36_Node000021_Node000008" class="edge">
<title>Node21&#45;&gt;Node8</title>
<g id="a_edge36_Node000021_Node000008"><a xlink:title=" ">
<path fill="none" stroke="#63b8ff" d="M704.85,-231.85C704.08,-217.79 700.42,-190.85 684,-177 646.13,-145.04 501.1,-135.95 428.26,-133.38"/>
<polygon fill="#63b8ff" stroke="#63b8ff" points="428.42,-129.88 418.31,-133.05 428.2,-136.87 428.42,-129.88"/>
</a>
</g>
</g>
<!-- Node22 -->
<g id="Node000022" class="node">
<title>Node22</title>
<g id="a_Node000022"><a xlink:title=" ">
<polygon fill="#e0e0e0" stroke="#999999" points="784.12,-196.25 735.88,-196.25 735.88,-177 784.12,-177 784.12,-196.25"/>
<text text-anchor="middle" x="760" y="-182.75" font-family="Helvetica,sans-Serif" font-size="10.00">stdint.h</text>
</a>
</g>
</g>
<!-- Node21&#45;&gt;Node22 -->
<g id="edge38_Node000021_Node000022" class="edge">
<title>Node21&#45;&gt;Node22</title>
<g id="a_edge38_Node000021_Node000022"><a xlink:title=" ">
<path fill="none" stroke="#63b8ff" d="M714.08,-232.08C721.84,-224.57 733.21,-213.56 742.7,-204.38"/>
<polygon fill="#63b8ff" stroke="#63b8ff" points="744.88,-207.13 749.63,-197.66 740.01,-202.1 744.88,-207.13"/>
</a>
</g>
</g>
</g>
</svg>

<g id="navigator" transform="translate(0 0)" fill="#404254">
  <rect fill="#f2f5e9" fill-opacity="0.5" stroke="#606060" stroke-width=".5" x="0" y="0" width="60" height="60"/>
  <use id="zoomplus" xlink:href="#zoomPlus" x="17" y="9" onmousedown="handleZoom(evt,'in')"/>
  <use id="zoomminus" xlink:href="#zoomMin" x="42" y="9" onmousedown="handleZoom(evt,'out')"/>
  <use id="reset" xlink:href="#resetDef" x="30" y="36" onmousedown="handleReset()"/>
   <use id="arrowup" xlink:href="#arrowUp" x="0" y="0" onmousedown="handlePan(0,-1)"/>
  <use id="arrowright" xlink:href="#arrowRight" x="0" y="0" onmousedown="handlePan(1,0)"/>
  <use id="arrowdown" xlink:href="#arrowDown" x="0" y="0" onmousedown="handlePan(0,1)"/>
  <use id="arrowleft" xlink:href="#arrowLeft" x="0" y="0" onmousedown="handlePan(-1,0)"/>
</g>
<svg viewBox="0 0 15 15" width="100%" height="30px" preserveAspectRatio="xMaxYMin meet">
 <g id="arrow_out" transform="scale(0.3 0.3)">
  <a xlink:href="status__page__item_8h__incl_org.svg" target="_base">
   <rect id="button" ry="5" rx="5" y="6" x="6" height="38" width="38"
        fill="#f2f5e9" fill-opacity="0.5" stroke="#606060" stroke-width="1.0"/>
   <path id="arrow"
     d="M 11.500037,31.436501 C 11.940474,20.09759 22.043105,11.32322 32.158766,21.979434 L 37.068811,17.246167 C 37.068811,17.246167 37.088388,32 37.088388,32 L 22.160133,31.978069 C 22.160133,31.978069 26.997745,27.140456 26.997745,27.140456 C 18.528582,18.264221 13.291696,25.230495 11.500037,31.436501 z"
     style="fill:#404040;"/>
  </a>
 </g>
</svg>

<style type='text/css'>
<![CDATA[
[data-mouse-over-selected='false'] { opacity: 0.7; }
[data-mouse-over-selected='true']  { opacity: 1.0; }
]]>
</style>
<script type="application/ecmascript"><![CDATA[
document.addEventListener('DOMContentLoaded', (event) => {
  highlightEdges();
  highlightAdjacentNodes();
});
]]></script>
</svg>
