<?xml version="1.0" encoding="UTF-8" standalone="no"?>
<!DOCTYPE svg PUBLIC "-//W3C//DTD SVG 1.1//EN"
 "http://www.w3.org/Graphics/SVG/1.1/DTD/svg11.dtd">
<!-- Generated by graphviz version 12.1.0 (20240811.2233)
 -->
<!-- Title: src/sensesp/net/web/static_file_handler.cpp Pages: 1 -->
<svg width="1026pt" height="602pt"
 viewBox="0.00 0.00 1025.92 602.25" xmlns="http://www.w3.org/2000/svg" xmlns:xlink="http://www.w3.org/1999/xlink">
<g id="graph0" class="graph" transform="scale(1 1) rotate(0) translate(4 598.25)">
<title>src/sensesp/net/web/static_file_handler.cpp</title>
<!-- Node1 -->
<g id="Node000001" class="node">
<title>Node1</title>
<g id="a_Node000001"><a xlink:title=" ">
<polygon fill="#999999" stroke="#666666" points="831.79,-594.25 716.04,-594.25 716.04,-563.75 831.79,-563.75 831.79,-594.25"/>
<text text-anchor="start" x="724.04" y="-580.75" font-family="Helvetica,sans-Serif" font-size="10.00">src/sensesp/net/web</text>
<text text-anchor="middle" x="773.92" y="-569.5" font-family="Helvetica,sans-Serif" font-size="10.00">/static_file_handler.cpp</text>
</a>
</g>
</g>
<!-- Node2 -->
<g id="Node000002" class="node">
<title>Node2</title>
<g id="a_Node000002"><a xlink:href="static__file__handler_8h.html" target="_top" xlink:title=" ">
<polygon fill="white" stroke="#666666" points="761.04,-527.75 658.79,-527.75 658.79,-508.5 761.04,-508.5 761.04,-527.75"/>
<text text-anchor="middle" x="709.92" y="-514.25" font-family="Helvetica,sans-Serif" font-size="10.00">static_file_handler.h</text>
</a>
</g>
</g>
<!-- Node1&#45;&gt;Node2 -->
<g id="edge1_Node000001_Node000002" class="edge">
<title>Node1&#45;&gt;Node2</title>
<g id="a_edge1_Node000001_Node000002"><a xlink:title=" ">
<path fill="none" stroke="#63b8ff" d="M758.1,-563.45C749.01,-555.09 737.56,-544.55 728.1,-535.85"/>
<polygon fill="#63b8ff" stroke="#63b8ff" points="730.63,-533.42 720.9,-529.23 725.89,-538.57 730.63,-533.42"/>
</a>
</g>
</g>
<!-- Node39 -->
<g id="Node000039" class="node">
<title>Node39</title>
<g id="a_Node000039"><a xlink:href="frontend__files_8h.html" target="_top" xlink:title=" ">
<polygon fill="white" stroke="#666666" points="899.04,-527.75 778.79,-527.75 778.79,-508.5 899.04,-508.5 899.04,-527.75"/>
<text text-anchor="middle" x="838.92" y="-514.25" font-family="Helvetica,sans-Serif" font-size="10.00">autogen/frontend_files.h</text>
</a>
</g>
</g>
<!-- Node1&#45;&gt;Node39 -->
<g id="edge63_Node000001_Node000039" class="edge">
<title>Node1&#45;&gt;Node39</title>
<g id="a_edge63_Node000001_Node000039"><a xlink:title=" ">
<path fill="none" stroke="#63b8ff" d="M789.99,-563.45C799.22,-555.09 810.85,-544.55 820.45,-535.85"/>
<polygon fill="#63b8ff" stroke="#63b8ff" points="822.71,-538.52 827.78,-529.22 818.01,-533.34 822.71,-538.52"/>
</a>
</g>
</g>
<!-- Node3 -->
<g id="Node000003" class="node">
<title>Node3</title>
<g id="a_Node000003"><a xlink:title=" ">
<polygon fill="#e0e0e0" stroke="#999999" points="749.54,-362 656.29,-362 656.29,-342.75 749.54,-342.75 749.54,-362"/>
<text text-anchor="middle" x="702.92" y="-348.5" font-family="Helvetica,sans-Serif" font-size="10.00">esp_http_server.h</text>
</a>
</g>
</g>
<!-- Node2&#45;&gt;Node3 -->
<g id="edge2_Node000002_Node000003" class="edge">
<title>Node2&#45;&gt;Node3</title>
<g id="a_edge2_Node000002_Node000003"><a xlink:title=" ">
<path fill="none" stroke="#63b8ff" d="M713.4,-508.04C720.61,-487.95 735.71,-438.36 725.92,-398 723.74,-389.02 719.42,-379.82 715.11,-372.13"/>
<polygon fill="#63b8ff" stroke="#63b8ff" points="718.19,-370.47 710.02,-363.73 712.21,-374.1 718.19,-370.47"/>
</a>
</g>
</g>
<!-- Node4 -->
<g id="Node000004" class="node">
<title>Node4</title>
<g id="a_Node000004"><a xlink:title=" ">
<polygon fill="#e0e0e0" stroke="#999999" points="432.04,-141 353.79,-141 353.79,-121.75 432.04,-121.75 432.04,-141"/>
<text text-anchor="middle" x="392.92" y="-127.5" font-family="Helvetica,sans-Serif" font-size="10.00">ArduinoJson.h</text>
</a>
</g>
</g>
<!-- Node2&#45;&gt;Node4 -->
<g id="edge3_Node000002_Node000004" class="edge">
<title>Node2&#45;&gt;Node4</title>
<g id="a_edge3_Node000002_Node000004"><a xlink:title=" ">
<path fill="none" stroke="#63b8ff" d="M658.36,-514.67C495.2,-506.23 0.92,-475.17 0.92,-408.62 0.92,-408.62 0.92,-408.62 0.92,-240.88 0.92,-211.26 -2.75,-196.06 19.92,-177 72.67,-132.66 259.54,-149.53 327.92,-141 332.56,-140.42 337.38,-139.81 342.21,-139.18"/>
<polygon fill="#63b8ff" stroke="#63b8ff" points="342.44,-142.68 351.9,-137.91 341.53,-135.74 342.44,-142.68"/>
</a>
</g>
</g>
<!-- Node5 -->
<g id="Node000005" class="node">
<title>Node5</title>
<g id="a_Node000005"><a xlink:href="http__server_8h.html" target="_top" xlink:title=" ">
<polygon fill="white" stroke="#666666" points="674.17,-472.5 545.67,-472.5 545.67,-453.25 674.17,-453.25 674.17,-472.5"/>
<text text-anchor="middle" x="609.92" y="-459" font-family="Helvetica,sans-Serif" font-size="10.00">sensesp/net/http_server.h</text>
</a>
</g>
</g>
<!-- Node2&#45;&gt;Node5 -->
<g id="edge4_Node000002_Node000005" class="edge">
<title>Node2&#45;&gt;Node5</title>
<g id="a_edge4_Node000002_Node000005"><a xlink:title=" ">
<path fill="none" stroke="#63b8ff" d="M692.95,-508.09C677.65,-499.94 654.88,-487.82 637.06,-478.33"/>
<polygon fill="#63b8ff" stroke="#63b8ff" points="638.77,-475.27 628.3,-473.66 635.48,-481.45 638.77,-475.27"/>
</a>
</g>
</g>
<!-- Node38 -->
<g id="Node000038" class="node">
<title>Node38</title>
<g id="a_Node000038"><a xlink:href="static__file__data_8h.html" target="_top" xlink:title=" ">
<polygon fill="white" stroke="#666666" points="884.04,-472.5 793.79,-472.5 793.79,-453.25 884.04,-453.25 884.04,-472.5"/>
<text text-anchor="middle" x="838.92" y="-459" font-family="Helvetica,sans-Serif" font-size="10.00">static_file_data.h</text>
</a>
</g>
</g>
<!-- Node2&#45;&gt;Node38 -->
<g id="edge62_Node000002_Node000038" class="edge">
<title>Node2&#45;&gt;Node38</title>
<g id="a_edge62_Node000002_Node000038"><a xlink:title=" ">
<path fill="none" stroke="#63b8ff" d="M731.8,-508.09C752.28,-499.64 783.13,-486.9 806.47,-477.27"/>
<polygon fill="#63b8ff" stroke="#63b8ff" points="807.62,-480.58 815.53,-473.53 804.95,-474.11 807.62,-480.58"/>
</a>
</g>
</g>
<!-- Node5&#45;&gt;Node3 -->
<g id="edge12_Node000005_Node000003" class="edge">
<title>Node5&#45;&gt;Node3</title>
<g id="a_edge12_Node000005_Node000003"><a xlink:title=" ">
<path fill="none" stroke="#63b8ff" d="M655.97,-452.83C675.79,-446.41 697.1,-435.54 708.92,-417.25 717.33,-404.23 714.82,-386.48 710.78,-372.99"/>
<polygon fill="#63b8ff" stroke="#63b8ff" points="714.2,-372.16 707.57,-363.9 707.6,-374.49 714.2,-372.16"/>
</a>
</g>
</g>
<!-- Node6 -->
<g id="Node000006" class="node">
<title>Node6</title>
<g id="a_Node000006"><a xlink:href="sensesp_8h.html" target="_top" xlink:title=" ">
<polygon fill="white" stroke="#666666" points="795.42,-141 734.42,-141 734.42,-121.75 795.42,-121.75 795.42,-141"/>
<text text-anchor="middle" x="764.92" y="-127.5" font-family="Helvetica,sans-Serif" font-size="10.00">sensesp.h</text>
</a>
</g>
</g>
<!-- Node5&#45;&gt;Node6 -->
<g id="edge5_Node000005_Node000006" class="edge">
<title>Node5&#45;&gt;Node6</title>
<g id="a_edge5_Node000005_Node000006"><a xlink:title=" ">
<path fill="none" stroke="#63b8ff" d="M674.32,-457.26C773.77,-449.67 955.9,-433.74 980.92,-417.25 1008.31,-399.2 1017.92,-386.18 1017.92,-353.38 1017.92,-353.38 1017.92,-353.38 1017.92,-240.88 1017.92,-150.22 879.01,-134.34 807.05,-132.2"/>
<polygon fill="#63b8ff" stroke="#63b8ff" points="807.27,-128.7 797.2,-131.99 807.12,-135.7 807.27,-128.7"/>
</a>
</g>
</g>
<!-- Node12 -->
<g id="Node000012" class="node">
<title>Node12</title>
<g id="a_Node000012"><a xlink:title=" ">
<polygon fill="#e0e0e0" stroke="#999999" points="505.17,-417.25 430.67,-417.25 430.67,-398 505.17,-398 505.17,-417.25"/>
<text text-anchor="middle" x="467.92" y="-403.75" font-family="Helvetica,sans-Serif" font-size="10.00">ESPmDNS.h</text>
</a>
</g>
</g>
<!-- Node5&#45;&gt;Node12 -->
<g id="edge11_Node000005_Node000012" class="edge">
<title>Node5&#45;&gt;Node12</title>
<g id="a_edge11_Node000005_Node000012"><a xlink:title=" ">
<path fill="none" stroke="#63b8ff" d="M585.83,-452.84C562.98,-444.27 528.4,-431.31 502.59,-421.63"/>
<polygon fill="#63b8ff" stroke="#63b8ff" points="504.13,-418.47 493.54,-418.23 501.68,-425.02 504.13,-418.47"/>
</a>
</g>
</g>
<!-- Node13 -->
<g id="Node000013" class="node">
<title>Node13</title>
<g id="a_Node000013"><a xlink:title=" ">
<polygon fill="#e0e0e0" stroke="#999999" points="86.92,-196.25 28.92,-196.25 28.92,-177 86.92,-177 86.92,-196.25"/>
<text text-anchor="middle" x="57.92" y="-182.75" font-family="Helvetica,sans-Serif" font-size="10.00">functional</text>
</a>
</g>
</g>
<!-- Node5&#45;&gt;Node13 -->
<g id="edge13_Node000005_Node000013" class="edge">
<title>Node5&#45;&gt;Node13</title>
<g id="a_edge13_Node000005_Node000013"><a xlink:title=" ">
<path fill="none" stroke="#63b8ff" d="M545.25,-456.31C395.76,-442.57 38.92,-404.43 38.92,-353.38 38.92,-353.38 38.92,-353.38 38.92,-296.12 38.92,-264.79 46.7,-229.12 52.3,-207.5"/>
<polygon fill="#63b8ff" stroke="#63b8ff" points="55.64,-208.56 54.88,-198 48.89,-206.73 55.64,-208.56"/>
</a>
</g>
</g>
<!-- Node14 -->
<g id="Node000014" class="node">
<title>Node14</title>
<g id="a_Node000014"><a xlink:title=" ">
<polygon fill="#e0e0e0" stroke="#999999" points="988.32,-362 959.52,-362 959.52,-342.75 988.32,-342.75 988.32,-362"/>
<text text-anchor="middle" x="973.92" y="-348.5" font-family="Helvetica,sans-Serif" font-size="10.00">list</text>
</a>
</g>
</g>
<!-- Node5&#45;&gt;Node14 -->
<g id="edge14_Node000005_Node000014" class="edge">
<title>Node5&#45;&gt;Node14</title>
<g id="a_edge14_Node000005_Node000014"><a xlink:title=" ">
<path fill="none" stroke="#63b8ff" d="M674.63,-457.69C770.28,-450.92 940.35,-436.34 960.92,-417.25 972.72,-406.29 975.42,-387.78 975.49,-373.5"/>
<polygon fill="#63b8ff" stroke="#63b8ff" points="979,-373.69 975.09,-363.84 972,-373.98 979,-373.69"/>
</a>
</g>
</g>
<!-- Node15 -->
<g id="Node000015" class="node">
<title>Node15</title>
<g id="a_Node000015"><a xlink:title=" ">
<polygon fill="#e0e0e0" stroke="#999999" points="344.54,-251.5 293.29,-251.5 293.29,-232.25 344.54,-232.25 344.54,-251.5"/>
<text text-anchor="middle" x="318.92" y="-238" font-family="Helvetica,sans-Serif" font-size="10.00">memory</text>
</a>
</g>
</g>
<!-- Node5&#45;&gt;Node15 -->
<g id="edge15_Node000005_Node000015" class="edge">
<title>Node5&#45;&gt;Node15</title>
<g id="a_edge15_Node000005_Node000015"><a xlink:title=" ">
<path fill="none" stroke="#63b8ff" d="M545.31,-458.24C448.89,-452.15 276.58,-438.42 257.92,-417.25 236.03,-392.41 247.73,-374.26 257.92,-342.75 263.99,-323.97 273.38,-323.44 283.92,-306.75 293.21,-292.03 302.63,-274.67 309.36,-261.77"/>
<polygon fill="#63b8ff" stroke="#63b8ff" points="312.35,-263.59 313.81,-253.1 306.13,-260.4 312.35,-263.59"/>
</a>
</g>
</g>
<!-- Node16 -->
<g id="Node000016" class="node">
<title>Node16</title>
<g id="a_Node000016"><a xlink:title=" ">
<polygon fill="#e0e0e0" stroke="#999999" points="568.17,-417.25 523.67,-417.25 523.67,-398 568.17,-398 568.17,-417.25"/>
<text text-anchor="middle" x="545.92" y="-403.75" font-family="Helvetica,sans-Serif" font-size="10.00">WiFi.h</text>
</a>
</g>
</g>
<!-- Node5&#45;&gt;Node16 -->
<g id="edge16_Node000005_Node000016" class="edge">
<title>Node5&#45;&gt;Node16</title>
<g id="a_edge16_Node000005_Node000016"><a xlink:title=" ">
<path fill="none" stroke="#63b8ff" d="M599.06,-452.84C589.81,-445.15 576.29,-433.9 565.21,-424.68"/>
<polygon fill="#63b8ff" stroke="#63b8ff" points="567.7,-422.2 557.78,-418.49 563.23,-427.58 567.7,-422.2"/>
</a>
</g>
</g>
<!-- Node17 -->
<g id="Node000017" class="node">
<title>Node17</title>
<g id="a_Node000017"><a xlink:href="http__authenticator_8h.html" target="_top" xlink:title=" ">
<polygon fill="white" stroke="#666666" points="951.79,-417.25 794.04,-417.25 794.04,-398 951.79,-398 951.79,-417.25"/>
<text text-anchor="middle" x="872.92" y="-403.75" font-family="Helvetica,sans-Serif" font-size="10.00">sensesp/net/http_authenticator.h</text>
</a>
</g>
</g>
<!-- Node5&#45;&gt;Node17 -->
<g id="edge17_Node000005_Node000017" class="edge">
<title>Node5&#45;&gt;Node17</title>
<g id="a_edge17_Node000005_Node000017"><a xlink:title=" ">
<path fill="none" stroke="#63b8ff" d="M654.83,-452.78C699.65,-443.71 768.63,-429.74 816.98,-419.95"/>
<polygon fill="#63b8ff" stroke="#63b8ff" points="817.6,-423.4 826.71,-417.98 816.21,-416.54 817.6,-423.4"/>
</a>
</g>
</g>
<!-- Node20 -->
<g id="Node000020" class="node">
<title>Node20</title>
<g id="a_Node000020"><a xlink:href="serializable_8h.html" target="_top" xlink:title=" ">
<polygon fill="white" stroke="#666666" points="700.92,-196.25 552.92,-196.25 552.92,-177 700.92,-177 700.92,-196.25"/>
<text text-anchor="middle" x="626.92" y="-182.75" font-family="Helvetica,sans-Serif" font-size="10.00">sensesp/system/serializable.h</text>
</a>
</g>
</g>
<!-- Node5&#45;&gt;Node20 -->
<g id="edge24_Node000005_Node000020" class="edge">
<title>Node5&#45;&gt;Node20</title>
<g id="a_edge24_Node000005_Node000020"><a xlink:title=" ">
<path fill="none" stroke="#63b8ff" d="M545.5,-455.08C497.33,-448.52 437.26,-436.66 421.92,-417.25 416.61,-410.54 416.84,-404.89 421.92,-398 453.94,-354.54 495.72,-395.66 537.92,-362 588.78,-321.42 613.34,-244.03 622.5,-207.57"/>
<polygon fill="#63b8ff" stroke="#63b8ff" points="625.87,-208.51 624.76,-197.98 619.06,-206.9 625.87,-208.51"/>
</a>
</g>
</g>
<!-- Node21 -->
<g id="Node000021" class="node">
<title>Node21</title>
<g id="a_Node000021"><a xlink:href="sensesp__base__app_8h.html" target="_top" xlink:title=" ">
<polygon fill="white" stroke="#666666" points="375.04,-417.25 266.79,-417.25 266.79,-398 375.04,-398 375.04,-417.25"/>
<text text-anchor="middle" x="320.92" y="-403.75" font-family="Helvetica,sans-Serif" font-size="10.00">sensesp_base_app.h</text>
</a>
</g>
</g>
<!-- Node5&#45;&gt;Node21 -->
<g id="edge28_Node000005_Node000021" class="edge">
<title>Node5&#45;&gt;Node21</title>
<g id="a_edge28_Node000005_Node000021"><a xlink:title=" ">
<path fill="none" stroke="#63b8ff" d="M560.57,-452.78C511,-443.65 434.55,-429.56 381.38,-419.76"/>
<polygon fill="#63b8ff" stroke="#63b8ff" points="382.02,-416.33 371.56,-417.96 380.76,-423.21 382.02,-416.33"/>
</a>
</g>
</g>
<!-- Node36 -->
<g id="Node000036" class="node">
<title>Node36</title>
<g id="a_Node000036"><a xlink:title=" ">
<polygon fill="#e0e0e0" stroke="#999999" points="634.04,-417.25 585.79,-417.25 585.79,-398 634.04,-398 634.04,-417.25"/>
<text text-anchor="middle" x="609.92" y="-403.75" font-family="Helvetica,sans-Serif" font-size="10.00">ctype.h</text>
</a>
</g>
</g>
<!-- Node5&#45;&gt;Node36 -->
<g id="edge60_Node000005_Node000036" class="edge">
<title>Node5&#45;&gt;Node36</title>
<g id="a_edge60_Node000005_Node000036"><a xlink:title=" ">
<path fill="none" stroke="#63b8ff" d="M609.92,-453.08C609.92,-446.57 609.92,-437.42 609.92,-429.12"/>
<polygon fill="#63b8ff" stroke="#63b8ff" points="613.42,-429.12 609.92,-419.12 606.42,-429.12 613.42,-429.12"/>
</a>
</g>
</g>
<!-- Node37 -->
<g id="Node000037" class="node">
<title>Node37</title>
<g id="a_Node000037"><a xlink:title=" ">
<polygon fill="#e0e0e0" stroke="#999999" points="699.67,-417.25 652.17,-417.25 652.17,-398 699.67,-398 699.67,-417.25"/>
<text text-anchor="middle" x="675.92" y="-403.75" font-family="Helvetica,sans-Serif" font-size="10.00">stdlib.h</text>
</a>
</g>
</g>
<!-- Node5&#45;&gt;Node37 -->
<g id="edge61_Node000005_Node000037" class="edge">
<title>Node5&#45;&gt;Node37</title>
<g id="a_edge61_Node000005_Node000037"><a xlink:title=" ">
<path fill="none" stroke="#63b8ff" d="M621.11,-452.84C630.65,-445.15 644.59,-433.9 656.02,-424.68"/>
<polygon fill="#63b8ff" stroke="#63b8ff" points="658.12,-427.48 663.71,-418.48 653.73,-422.03 658.12,-427.48"/>
</a>
</g>
</g>
<!-- Node7 -->
<g id="Node000007" class="node">
<title>Node7</title>
<g id="a_Node000007"><a xlink:title=" ">
<polygon fill="#e0e0e0" stroke="#999999" points="799.54,-80.12 730.29,-80.12 730.29,-60.88 799.54,-60.88 799.54,-80.12"/>
<text text-anchor="middle" x="764.92" y="-66.62" font-family="Helvetica,sans-Serif" font-size="10.00">ReactESP.h</text>
</a>
</g>
</g>
<!-- Node6&#45;&gt;Node7 -->
<g id="edge6_Node000006_Node000007" class="edge">
<title>Node6&#45;&gt;Node7</title>
<g id="a_edge6_Node000006_Node000007"><a xlink:title=" ">
<path fill="none" stroke="#63b8ff" d="M764.92,-121.43C764.92,-113.65 764.92,-102.08 764.92,-92.03"/>
<polygon fill="#63b8ff" stroke="#63b8ff" points="768.42,-92.04 764.92,-82.04 761.42,-92.04 768.42,-92.04"/>
</a>
</g>
</g>
<!-- Node8 -->
<g id="Node000008" class="node">
<title>Node8</title>
<g id="a_Node000008"><a xlink:href="local__debug_8h.html" target="_top" xlink:title=" ">
<polygon fill="white" stroke="#666666" points="711.54,-85.75 600.29,-85.75 600.29,-55.25 711.54,-55.25 711.54,-85.75"/>
<text text-anchor="start" x="608.29" y="-72.25" font-family="Helvetica,sans-Serif" font-size="10.00">sensesp/system/local</text>
<text text-anchor="middle" x="655.92" y="-61" font-family="Helvetica,sans-Serif" font-size="10.00">_debug.h</text>
</a>
</g>
</g>
<!-- Node6&#45;&gt;Node8 -->
<g id="edge7_Node000006_Node000008" class="edge">
<title>Node6&#45;&gt;Node8</title>
<g id="a_edge7_Node000006_Node000008"><a xlink:title=" ">
<path fill="none" stroke="#63b8ff" d="M748.36,-121.43C733.69,-113.51 711.73,-101.65 692.9,-91.47"/>
<polygon fill="#63b8ff" stroke="#63b8ff" points="694.62,-88.42 684.15,-86.75 691.29,-94.58 694.62,-88.42"/>
</a>
</g>
</g>
<!-- Node9 -->
<g id="Node000009" class="node">
<title>Node9</title>
<g id="a_Node000009"><a xlink:title=" ">
<polygon fill="#e0e0e0" stroke="#999999" points="757.92,-19.25 675.92,-19.25 675.92,0 757.92,0 757.92,-19.25"/>
<text text-anchor="middle" x="716.92" y="-5.75" font-family="Helvetica,sans-Serif" font-size="10.00">esp32&#45;hal&#45;log.h</text>
</a>
</g>
</g>
<!-- Node8&#45;&gt;Node9 -->
<g id="edge8_Node000008_Node000009" class="edge">
<title>Node8&#45;&gt;Node9</title>
<g id="a_edge8_Node000008_Node000009"><a xlink:title=" ">
<path fill="none" stroke="#63b8ff" d="M671,-54.95C679.57,-46.67 690.35,-36.27 699.31,-27.62"/>
<polygon fill="#63b8ff" stroke="#63b8ff" points="701.66,-30.22 706.43,-20.75 696.8,-25.18 701.66,-30.22"/>
</a>
</g>
</g>
<!-- Node10 -->
<g id="Node000010" class="node">
<title>Node10</title>
<g id="a_Node000010"><a xlink:title=" ">
<polygon fill="#e0e0e0" stroke="#999999" points="575.54,-19.25 518.29,-19.25 518.29,0 575.54,0 575.54,-19.25"/>
<text text-anchor="middle" x="546.92" y="-5.75" font-family="Helvetica,sans-Serif" font-size="10.00">Arduino.h</text>
</a>
</g>
</g>
<!-- Node8&#45;&gt;Node10 -->
<g id="edge9_Node000008_Node000010" class="edge">
<title>Node8&#45;&gt;Node10</title>
<g id="a_edge9_Node000008_Node000010"><a xlink:title=" ">
<path fill="none" stroke="#63b8ff" d="M628.69,-54.8C611.77,-45.66 590.13,-33.97 573.36,-24.91"/>
<polygon fill="#63b8ff" stroke="#63b8ff" points="575.43,-22.05 564.97,-20.37 572.1,-28.21 575.43,-22.05"/>
</a>
</g>
</g>
<!-- Node11 -->
<g id="Node000011" class="node">
<title>Node11</title>
<g id="a_Node000011"><a xlink:title=" ">
<polygon fill="#e0e0e0" stroke="#999999" points="658.17,-19.25 613.67,-19.25 613.67,0 658.17,0 658.17,-19.25"/>
<text text-anchor="middle" x="635.92" y="-5.75" font-family="Helvetica,sans-Serif" font-size="10.00">Print.h</text>
</a>
</g>
</g>
<!-- Node8&#45;&gt;Node11 -->
<g id="edge10_Node000008_Node000011" class="edge">
<title>Node8&#45;&gt;Node11</title>
<g id="a_edge10_Node000008_Node000011"><a xlink:title=" ">
<path fill="none" stroke="#63b8ff" d="M650.97,-54.95C648.46,-47.53 645.36,-38.41 642.63,-30.38"/>
<polygon fill="#63b8ff" stroke="#63b8ff" points="646.02,-29.48 639.49,-21.13 639.39,-31.73 646.02,-29.48"/>
</a>
</g>
</g>
<!-- Node17&#45;&gt;Node3 -->
<g id="edge19_Node000017_Node000003" class="edge">
<title>Node17&#45;&gt;Node3</title>
<g id="a_edge19_Node000017_Node000003"><a xlink:title=" ">
<path fill="none" stroke="#63b8ff" d="M844.08,-397.59C816.24,-388.87 773.85,-375.59 742.78,-365.86"/>
<polygon fill="#63b8ff" stroke="#63b8ff" points="743.93,-362.55 733.34,-362.9 741.84,-369.23 743.93,-362.55"/>
</a>
</g>
</g>
<!-- Node17&#45;&gt;Node6 -->
<g id="edge18_Node000017_Node000006" class="edge">
<title>Node17&#45;&gt;Node6</title>
<g id="a_edge18_Node000017_Node000006"><a xlink:title=" ">
<path fill="none" stroke="#63b8ff" d="M881.12,-397.52C896.23,-379.78 926.92,-338.73 926.92,-298.12 926.92,-298.12 926.92,-298.12 926.92,-240.88 926.92,-183.06 854.8,-154.09 806.8,-141.22"/>
<polygon fill="#63b8ff" stroke="#63b8ff" points="807.79,-137.86 797.24,-138.79 806.07,-144.64 807.79,-137.86"/>
</a>
</g>
</g>
<!-- Node17&#45;&gt;Node14 -->
<g id="edge20_Node000017_Node000014" class="edge">
<title>Node17&#45;&gt;Node14</title>
<g id="a_edge20_Node000017_Node000014"><a xlink:title=" ">
<path fill="none" stroke="#63b8ff" d="M890.05,-397.59C906.33,-389.01 930.98,-376.01 949.35,-366.33"/>
<polygon fill="#63b8ff" stroke="#63b8ff" points="950.78,-369.53 957.99,-361.77 947.51,-363.34 950.78,-369.53"/>
</a>
</g>
</g>
<!-- Node18 -->
<g id="Node000018" class="node">
<title>Node18</title>
<g id="a_Node000018"><a xlink:title=" ">
<polygon fill="#e0e0e0" stroke="#999999" points="860.54,-362 767.29,-362 767.29,-342.75 860.54,-342.75 860.54,-362"/>
<text text-anchor="middle" x="813.92" y="-348.5" font-family="Helvetica,sans-Serif" font-size="10.00">mbedtls/base64.h</text>
</a>
</g>
</g>
<!-- Node17&#45;&gt;Node18 -->
<g id="edge21_Node000017_Node000018" class="edge">
<title>Node17&#45;&gt;Node18</title>
<g id="a_edge21_Node000017_Node000018"><a xlink:title=" ">
<path fill="none" stroke="#63b8ff" d="M862.91,-397.59C854.55,-390.05 842.42,-379.1 832.32,-369.98"/>
<polygon fill="#63b8ff" stroke="#63b8ff" points="834.67,-367.39 824.9,-363.29 829.98,-372.59 834.67,-367.39"/>
</a>
</g>
</g>
<!-- Node19 -->
<g id="Node000019" class="node">
<title>Node19</title>
<g id="a_Node000019"><a xlink:href="hash_8h.html" target="_top" xlink:title=" ">
<polygon fill="white" stroke="#666666" points="879.04,-306.75 758.79,-306.75 758.79,-287.5 879.04,-287.5 879.04,-306.75"/>
<text text-anchor="middle" x="818.92" y="-293.25" font-family="Helvetica,sans-Serif" font-size="10.00">sensesp/system/hash.h</text>
</a>
</g>
</g>
<!-- Node17&#45;&gt;Node19 -->
<g id="edge22_Node000017_Node000019" class="edge">
<title>Node17&#45;&gt;Node19</title>
<g id="a_edge22_Node000017_Node000019"><a xlink:title=" ">
<path fill="none" stroke="#63b8ff" d="M874.58,-397.84C876.56,-385.02 878.6,-360.75 869.92,-342.75 864.26,-331.03 853.97,-321.1 844.1,-313.61"/>
<polygon fill="#63b8ff" stroke="#63b8ff" points="846.38,-310.93 836.18,-308.06 842.36,-316.66 846.38,-310.93"/>
</a>
</g>
</g>
<!-- Node19&#45;&gt;Node6 -->
<g id="edge23_Node000019_Node000006" class="edge">
<title>Node19&#45;&gt;Node6</title>
<g id="a_edge23_Node000019_Node000006"><a xlink:title=" ">
<path fill="none" stroke="#63b8ff" d="M816.17,-287.12C810.05,-267.2 794.77,-217.92 780.92,-177 778.11,-168.72 774.88,-159.62 772.06,-151.82"/>
<polygon fill="#63b8ff" stroke="#63b8ff" points="775.43,-150.85 768.72,-142.65 768.85,-153.25 775.43,-150.85"/>
</a>
</g>
</g>
<!-- Node20&#45;&gt;Node4 -->
<g id="edge26_Node000020_Node000004" class="edge">
<title>Node20&#45;&gt;Node4</title>
<g id="a_edge26_Node000020_Node000004"><a xlink:title=" ">
<path fill="none" stroke="#63b8ff" d="M586.96,-176.53C547.3,-167.51 486.37,-153.64 443.39,-143.86"/>
<polygon fill="#63b8ff" stroke="#63b8ff" points="444.33,-140.48 433.8,-141.68 442.77,-147.31 444.33,-140.48"/>
</a>
</g>
</g>
<!-- Node20&#45;&gt;Node6 -->
<g id="edge25_Node000020_Node000006" class="edge">
<title>Node20&#45;&gt;Node6</title>
<g id="a_edge25_Node000020_Node000006"><a xlink:title=" ">
<path fill="none" stroke="#63b8ff" d="M650.33,-176.59C672.43,-168.06 705.84,-155.17 730.89,-145.51"/>
<polygon fill="#63b8ff" stroke="#63b8ff" points="731.91,-148.86 739.98,-142 729.39,-142.33 731.91,-148.86"/>
</a>
</g>
</g>
<!-- Node20&#45;&gt;Node10 -->
<g id="edge27_Node000020_Node000010" class="edge">
<title>Node20&#45;&gt;Node10</title>
<g id="a_edge27_Node000020_Node000010"><a xlink:title=" ">
<path fill="none" stroke="#63b8ff" d="M622.84,-176.71C610.43,-149.56 572.93,-67.53 555.72,-29.88"/>
<polygon fill="#63b8ff" stroke="#63b8ff" points="559.05,-28.75 551.71,-21.11 552.69,-31.66 559.05,-28.75"/>
</a>
</g>
</g>
<!-- Node21&#45;&gt;Node6 -->
<g id="edge29_Node000021_Node000006" class="edge">
<title>Node21&#45;&gt;Node6</title>
<g id="a_edge29_Node000021_Node000006"><a xlink:title=" ">
<path fill="none" stroke="#63b8ff" d="M375.47,-402.9C420.86,-398.08 486.17,-387.07 537.92,-362 640.89,-312.11 665.2,-286.98 734.92,-196.25 745.21,-182.86 753.11,-165.38 758.22,-152.09"/>
<polygon fill="#63b8ff" stroke="#63b8ff" points="761.5,-153.32 761.6,-142.72 754.91,-150.94 761.5,-153.32"/>
</a>
</g>
</g>
<!-- Node21&#45;&gt;Node15 -->
<g id="edge30_Node000021_Node000015" class="edge">
<title>Node21&#45;&gt;Node15</title>
<g id="a_edge30_Node000021_Node000015"><a xlink:title=" ">
<path fill="none" stroke="#63b8ff" d="M375.3,-398.12C431.61,-388.76 512.68,-373.52 521.92,-362 527.27,-355.33 527.14,-349.53 521.92,-342.75 483.78,-293.2 440.48,-337.28 385.92,-306.75 364.75,-294.91 345.25,-274.82 332.81,-260.33"/>
<polygon fill="#63b8ff" stroke="#63b8ff" points="335.75,-258.4 326.68,-252.93 330.36,-262.86 335.75,-258.4"/>
</a>
</g>
</g>
<!-- Node22 -->
<g id="Node000022" class="node">
<title>Node22</title>
<g id="a_Node000022"><a xlink:title=" ">
<polygon fill="#e0e0e0" stroke="#999999" points="324.92,-362 266.92,-362 266.92,-342.75 324.92,-342.75 324.92,-362"/>
<text text-anchor="middle" x="295.92" y="-348.5" font-family="Helvetica,sans-Serif" font-size="10.00">esp_log.h</text>
</a>
</g>
</g>
<!-- Node21&#45;&gt;Node22 -->
<g id="edge31_Node000021_Node000022" class="edge">
<title>Node21&#45;&gt;Node22</title>
<g id="a_edge31_Node000021_Node000022"><a xlink:title=" ">
<path fill="none" stroke="#63b8ff" d="M316.79,-397.83C313.59,-391.01 309.03,-381.31 304.99,-372.7"/>
<polygon fill="#63b8ff" stroke="#63b8ff" points="308.2,-371.29 300.78,-363.73 301.86,-374.27 308.2,-371.29"/>
</a>
</g>
</g>
<!-- Node23 -->
<g id="Node000023" class="node">
<title>Node23</title>
<g id="a_Node000023"><a xlink:href="filesystem_8h.html" target="_top" xlink:title=" ">
<polygon fill="white" stroke="#666666" points="211.04,-362 66.79,-362 66.79,-342.75 211.04,-342.75 211.04,-362"/>
<text text-anchor="middle" x="138.92" y="-348.5" font-family="Helvetica,sans-Serif" font-size="10.00">sensesp/system/filesystem.h</text>
</a>
</g>
</g>
<!-- Node21&#45;&gt;Node23 -->
<g id="edge32_Node000021_Node000023" class="edge">
<title>Node21&#45;&gt;Node23</title>
<g id="a_edge32_Node000021_Node000023"><a xlink:title=" ">
<path fill="none" stroke="#63b8ff" d="M290.04,-397.59C259.98,-388.79 214.05,-375.36 180.72,-365.61"/>
<polygon fill="#63b8ff" stroke="#63b8ff" points="181.98,-362.33 171.4,-362.88 180.01,-369.04 181.98,-362.33"/>
</a>
</g>
</g>
<!-- Node26 -->
<g id="Node000026" class="node">
<title>Node26</title>
<g id="a_Node000026"><a xlink:href="observablevalue_8h.html" target="_top" xlink:title=" ">
<polygon fill="white" stroke="#666666" points="512.79,-362 343.04,-362 343.04,-342.75 512.79,-342.75 512.79,-362"/>
<text text-anchor="middle" x="427.92" y="-348.5" font-family="Helvetica,sans-Serif" font-size="10.00">sensesp/system/observablevalue.h</text>
</a>
</g>
</g>
<!-- Node21&#45;&gt;Node26 -->
<g id="edge35_Node000021_Node000026" class="edge">
<title>Node21&#45;&gt;Node26</title>
<g id="a_edge35_Node000021_Node000026"><a xlink:title=" ">
<path fill="none" stroke="#63b8ff" d="M339.07,-397.59C355.59,-389.37 380.26,-377.09 399.42,-367.56"/>
<polygon fill="#63b8ff" stroke="#63b8ff" points="400.93,-370.72 408.32,-363.13 397.81,-364.45 400.93,-370.72"/>
</a>
</g>
</g>
<!-- Node24 -->
<g id="Node000024" class="node">
<title>Node24</title>
<g id="a_Node000024"><a xlink:href="resettable_8h.html" target="_top" xlink:title=" ">
<polygon fill="white" stroke="#666666" points="134.42,-306.75 67.42,-306.75 67.42,-287.5 134.42,-287.5 134.42,-306.75"/>
<text text-anchor="middle" x="100.92" y="-293.25" font-family="Helvetica,sans-Serif" font-size="10.00">resettable.h</text>
</a>
</g>
</g>
<!-- Node23&#45;&gt;Node24 -->
<g id="edge33_Node000023_Node000024" class="edge">
<title>Node23&#45;&gt;Node24</title>
<g id="a_edge33_Node000023_Node000024"><a xlink:title=" ">
<path fill="none" stroke="#63b8ff" d="M132.64,-342.58C127.56,-335.46 120.22,-325.18 113.89,-316.3"/>
<polygon fill="#63b8ff" stroke="#63b8ff" points="116.87,-314.45 108.21,-308.34 111.17,-318.51 116.87,-314.45"/>
</a>
</g>
</g>
<!-- Node25 -->
<g id="Node000025" class="node">
<title>Node25</title>
<g id="a_Node000025"><a xlink:title=" ">
<polygon fill="#e0e0e0" stroke="#999999" points="109.04,-251.5 66.79,-251.5 66.79,-232.25 109.04,-232.25 109.04,-251.5"/>
<text text-anchor="middle" x="87.92" y="-238" font-family="Helvetica,sans-Serif" font-size="10.00">queue</text>
</a>
</g>
</g>
<!-- Node24&#45;&gt;Node25 -->
<g id="edge34_Node000024_Node000025" class="edge">
<title>Node24&#45;&gt;Node25</title>
<g id="a_edge34_Node000024_Node000025"><a xlink:title=" ">
<path fill="none" stroke="#63b8ff" d="M98.77,-287.33C97.14,-280.67 94.84,-271.24 92.78,-262.78"/>
<polygon fill="#63b8ff" stroke="#63b8ff" points="96.24,-262.21 90.47,-253.33 89.44,-263.87 96.24,-262.21"/>
</a>
</g>
</g>
<!-- Node27 -->
<g id="Node000027" class="node">
<title>Node27</title>
<g id="a_Node000027"><a xlink:href="saveable_8h.html" target="_top" xlink:title=" ">
<polygon fill="white" stroke="#666666" points="592.54,-251.5 529.29,-251.5 529.29,-232.25 592.54,-232.25 592.54,-251.5"/>
<text text-anchor="middle" x="560.92" y="-238" font-family="Helvetica,sans-Serif" font-size="10.00">saveable.h</text>
</a>
</g>
</g>
<!-- Node26&#45;&gt;Node27 -->
<g id="edge36_Node000026_Node000027" class="edge">
<title>Node26&#45;&gt;Node27</title>
<g id="a_edge36_Node000026_Node000027"><a xlink:title=" ">
<path fill="none" stroke="#63b8ff" d="M462.26,-342.39C483.26,-335.48 509.54,-324.11 527.92,-306.75 540.69,-294.69 549.4,-276.58 554.64,-262.72"/>
<polygon fill="#63b8ff" stroke="#63b8ff" points="557.93,-263.92 557.89,-253.32 551.31,-261.63 557.93,-263.92"/>
</a>
</g>
</g>
<!-- Node28 -->
<g id="Node000028" class="node">
<title>Node28</title>
<g id="a_Node000028"><a xlink:href="observable_8h.html" target="_top" xlink:title=" ">
<polygon fill="white" stroke="#666666" points="198.67,-251.5 127.17,-251.5 127.17,-232.25 198.67,-232.25 198.67,-251.5"/>
<text text-anchor="middle" x="162.92" y="-238" font-family="Helvetica,sans-Serif" font-size="10.00">observable.h</text>
</a>
</g>
</g>
<!-- Node26&#45;&gt;Node28 -->
<g id="edge41_Node000026_Node000028" class="edge">
<title>Node26&#45;&gt;Node28</title>
<g id="a_edge41_Node000026_Node000028"><a xlink:title=" ">
<path fill="none" stroke="#63b8ff" d="M356.49,-342.27C288.58,-333.01 194.91,-318.39 181.92,-306.75 169.65,-295.76 165.15,-277.25 163.58,-262.98"/>
<polygon fill="#63b8ff" stroke="#63b8ff" points="167.09,-263.07 162.92,-253.33 160.11,-263.54 167.09,-263.07"/>
</a>
</g>
</g>
<!-- Node31 -->
<g id="Node000031" class="node">
<title>Node31</title>
<g id="a_Node000031"><a xlink:href="config__item_8h.html" target="_top" xlink:title=" ">
<polygon fill="white" stroke="#666666" points="519.29,-306.75 394.54,-306.75 394.54,-287.5 519.29,-287.5 519.29,-306.75"/>
<text text-anchor="middle" x="456.92" y="-293.25" font-family="Helvetica,sans-Serif" font-size="10.00">sensesp/ui/config_item.h</text>
</a>
</g>
</g>
<!-- Node26&#45;&gt;Node31 -->
<g id="edge45_Node000026_Node000031" class="edge">
<title>Node26&#45;&gt;Node31</title>
<g id="a_edge45_Node000026_Node000031"><a xlink:title=" ">
<path fill="none" stroke="#63b8ff" d="M432.71,-342.58C436.46,-335.69 441.83,-325.84 446.55,-317.16"/>
<polygon fill="#63b8ff" stroke="#63b8ff" points="449.59,-318.89 451.3,-308.44 443.44,-315.55 449.59,-318.89"/>
</a>
</g>
</g>
<!-- Node33 -->
<g id="Node000033" class="node">
<title>Node33</title>
<g id="a_Node000033"><a xlink:href="valueproducer_8h.html" target="_top" xlink:title=" ">
<polygon fill="white" stroke="#666666" points="275.04,-306.75 190.79,-306.75 190.79,-287.5 275.04,-287.5 275.04,-306.75"/>
<text text-anchor="middle" x="232.92" y="-293.25" font-family="Helvetica,sans-Serif" font-size="10.00">valueproducer.h</text>
</a>
</g>
</g>
<!-- Node26&#45;&gt;Node33 -->
<g id="edge52_Node000026_Node000033" class="edge">
<title>Node26&#45;&gt;Node33</title>
<g id="a_edge52_Node000026_Node000033"><a xlink:title=" ">
<path fill="none" stroke="#63b8ff" d="M394.84,-342.34C362.48,-333.51 312.99,-319.99 277.24,-310.23"/>
<polygon fill="#63b8ff" stroke="#63b8ff" points="278.19,-306.86 267.62,-307.6 276.34,-313.61 278.19,-306.86"/>
</a>
</g>
</g>
<!-- Node27&#45;&gt;Node4 -->
<g id="edge38_Node000027_Node000004" class="edge">
<title>Node27&#45;&gt;Node4</title>
<g id="a_edge38_Node000027_Node000004"><a xlink:title=" ">
<path fill="none" stroke="#63b8ff" d="M546.88,-231.81C518.03,-213.18 451.79,-170.4 416.33,-147.5"/>
<polygon fill="#63b8ff" stroke="#63b8ff" points="418.37,-144.64 408.07,-142.16 414.57,-150.52 418.37,-144.64"/>
</a>
</g>
</g>
<!-- Node27&#45;&gt;Node6 -->
<g id="edge37_Node000027_Node000006" class="edge">
<title>Node27&#45;&gt;Node6</title>
<g id="a_edge37_Node000027_Node000006"><a xlink:title=" ">
<path fill="none" stroke="#63b8ff" d="M592.77,-236.67C624.53,-231.32 673.67,-219.76 709.92,-196.25 728.1,-184.46 743.64,-164.94 753.52,-150.58"/>
<polygon fill="#63b8ff" stroke="#63b8ff" points="756.28,-152.76 758.84,-142.48 750.43,-148.92 756.28,-152.76"/>
</a>
</g>
</g>
<!-- Node27&#45;&gt;Node10 -->
<g id="edge39_Node000027_Node000010" class="edge">
<title>Node27&#45;&gt;Node10</title>
<g id="a_edge39_Node000027_Node000010"><a xlink:title=" ">
<path fill="none" stroke="#63b8ff" d="M556.39,-231.93C552.21,-223.11 546.29,-209.13 543.92,-196.25 533,-136.94 539.65,-65.17 544.01,-30.84"/>
<polygon fill="#63b8ff" stroke="#63b8ff" points="547.45,-31.49 545.33,-21.12 540.52,-30.55 547.45,-31.49"/>
</a>
</g>
</g>
<!-- Node27&#45;&gt;Node20 -->
<g id="edge40_Node000027_Node000020" class="edge">
<title>Node27&#45;&gt;Node20</title>
<g id="a_edge40_Node000027_Node000020"><a xlink:title=" ">
<path fill="none" stroke="#63b8ff" d="M572.11,-231.84C581.65,-224.15 595.59,-212.9 607.02,-203.68"/>
<polygon fill="#63b8ff" stroke="#63b8ff" points="609.12,-206.48 614.71,-197.48 604.73,-201.03 609.12,-206.48"/>
</a>
</g>
</g>
<!-- Node28&#45;&gt;Node13 -->
<g id="edge43_Node000028_Node000013" class="edge">
<title>Node28&#45;&gt;Node13</title>
<g id="a_edge43_Node000028_Node000013"><a xlink:title=" ">
<path fill="none" stroke="#63b8ff" d="M145.11,-231.84C128.89,-223.62 104.68,-211.34 85.89,-201.81"/>
<polygon fill="#63b8ff" stroke="#63b8ff" points="87.67,-198.79 77.17,-197.39 84.5,-205.03 87.67,-198.79"/>
</a>
</g>
</g>
<!-- Node29 -->
<g id="Node000029" class="node">
<title>Node29</title>
<g id="a_Node000029"><a xlink:title=" ">
<polygon fill="#e0e0e0" stroke="#999999" points="171.04,-196.25 104.79,-196.25 104.79,-177 171.04,-177 171.04,-196.25"/>
<text text-anchor="middle" x="137.92" y="-182.75" font-family="Helvetica,sans-Serif" font-size="10.00">forward_list</text>
</a>
</g>
</g>
<!-- Node28&#45;&gt;Node29 -->
<g id="edge42_Node000028_Node000029" class="edge">
<title>Node28&#45;&gt;Node29</title>
<g id="a_edge42_Node000028_Node000029"><a xlink:title=" ">
<path fill="none" stroke="#63b8ff" d="M158.79,-232.08C155.59,-225.26 151.03,-215.56 146.99,-206.95"/>
<polygon fill="#63b8ff" stroke="#63b8ff" points="150.2,-205.54 142.78,-197.98 143.86,-208.52 150.2,-205.54"/>
</a>
</g>
</g>
<!-- Node30 -->
<g id="Node000030" class="node">
<title>Node30</title>
<g id="a_Node000030"><a xlink:title=" ">
<polygon fill="#e0e0e0" stroke="#999999" points="232.42,-196.25 189.42,-196.25 189.42,-177 232.42,-177 232.42,-196.25"/>
<text text-anchor="middle" x="210.92" y="-182.75" font-family="Helvetica,sans-Serif" font-size="10.00">vector</text>
</a>
</g>
</g>
<!-- Node28&#45;&gt;Node30 -->
<g id="edge44_Node000028_Node000030" class="edge">
<title>Node28&#45;&gt;Node30</title>
<g id="a_edge44_Node000028_Node000030"><a xlink:title=" ">
<path fill="none" stroke="#63b8ff" d="M170.84,-232.08C177.47,-224.73 187.13,-214.01 195.31,-204.94"/>
<polygon fill="#63b8ff" stroke="#63b8ff" points="197.71,-207.5 201.81,-197.73 192.51,-202.82 197.71,-207.5"/>
</a>
</g>
</g>
<!-- Node31&#45;&gt;Node4 -->
<g id="edge50_Node000031_Node000004" class="edge">
<title>Node31&#45;&gt;Node4</title>
<g id="a_edge50_Node000031_Node000004"><a xlink:title=" ">
<path fill="none" stroke="#63b8ff" d="M450.66,-287.25C444.7,-278.49 435.79,-264.55 429.92,-251.5 414.86,-218.02 403.52,-176.64 397.58,-152.51"/>
<polygon fill="#63b8ff" stroke="#63b8ff" points="400.98,-151.7 395.26,-142.78 394.17,-153.32 400.98,-151.7"/>
</a>
</g>
</g>
<!-- Node31&#45;&gt;Node10 -->
<g id="edge49_Node000031_Node000010" class="edge">
<title>Node31&#45;&gt;Node10</title>
<g id="a_edge49_Node000031_Node000010"><a xlink:title=" ">
<path fill="none" stroke="#63b8ff" d="M462.78,-287.23C468.34,-278.45 476.62,-264.49 481.92,-251.5 482.46,-250.18 526.08,-88.09 541.55,-30.58"/>
<polygon fill="#63b8ff" stroke="#63b8ff" points="544.86,-31.74 544.08,-21.18 538.1,-29.92 544.86,-31.74"/>
</a>
</g>
</g>
<!-- Node31&#45;&gt;Node15 -->
<g id="edge47_Node000031_Node000015" class="edge">
<title>Node31&#45;&gt;Node15</title>
<g id="a_edge47_Node000031_Node000015"><a xlink:title=" ">
<path fill="none" stroke="#63b8ff" d="M433.51,-287.09C411.4,-278.56 378,-265.67 352.95,-256.01"/>
<polygon fill="#63b8ff" stroke="#63b8ff" points="354.44,-252.83 343.85,-252.5 351.92,-259.36 354.44,-252.83"/>
</a>
</g>
</g>
<!-- Node31&#45;&gt;Node27 -->
<g id="edge51_Node000031_Node000027" class="edge">
<title>Node31&#45;&gt;Node27</title>
<g id="a_edge51_Node000031_Node000027"><a xlink:title=" ">
<path fill="none" stroke="#63b8ff" d="M474.56,-287.09C490.55,-278.91 514.38,-266.71 532.96,-257.19"/>
<polygon fill="#63b8ff" stroke="#63b8ff" points="534.54,-260.32 541.84,-252.64 531.35,-254.08 534.54,-260.32"/>
</a>
</g>
</g>
<!-- Node31&#45;&gt;Node30 -->
<g id="edge48_Node000031_Node000030" class="edge">
<title>Node31&#45;&gt;Node30</title>
<g id="a_edge48_Node000031_Node000030"><a xlink:title=" ">
<path fill="none" stroke="#63b8ff" d="M444.8,-287.19C426.11,-273.74 388.75,-248.17 353.92,-232.25 343.75,-227.6 282.68,-209.05 243.7,-197.38"/>
<polygon fill="#63b8ff" stroke="#63b8ff" points="244.91,-194.09 234.33,-194.58 242.91,-200.8 244.91,-194.09"/>
</a>
</g>
</g>
<!-- Node32 -->
<g id="Node000032" class="node">
<title>Node32</title>
<g id="a_Node000032"><a xlink:title=" ">
<polygon fill="#e0e0e0" stroke="#999999" points="473.29,-251.5 438.54,-251.5 438.54,-232.25 473.29,-232.25 473.29,-251.5"/>
<text text-anchor="middle" x="455.92" y="-238" font-family="Helvetica,sans-Serif" font-size="10.00">map</text>
</a>
</g>
</g>
<!-- Node31&#45;&gt;Node32 -->
<g id="edge46_Node000031_Node000032" class="edge">
<title>Node31&#45;&gt;Node32</title>
<g id="a_edge46_Node000031_Node000032"><a xlink:title=" ">
<path fill="none" stroke="#63b8ff" d="M456.75,-287.33C456.63,-280.82 456.46,-271.67 456.3,-263.37"/>
<polygon fill="#63b8ff" stroke="#63b8ff" points="459.8,-263.3 456.12,-253.37 452.8,-263.44 459.8,-263.3"/>
</a>
</g>
</g>
<!-- Node33&#45;&gt;Node4 -->
<g id="edge53_Node000033_Node000004" class="edge">
<title>Node33&#45;&gt;Node4</title>
<g id="a_edge53_Node000033_Node000004"><a xlink:title=" ">
<path fill="none" stroke="#63b8ff" d="M238.29,-287.38C246.73,-274.17 264.19,-248.92 283.92,-232.25 309.15,-210.94 324.46,-218.44 348.92,-196.25 363.24,-183.26 375.34,-164.74 383.2,-150.99"/>
<polygon fill="#63b8ff" stroke="#63b8ff" points="386.12,-152.96 387.84,-142.5 379.97,-149.6 386.12,-152.96"/>
</a>
</g>
</g>
<!-- Node33&#45;&gt;Node15 -->
<g id="edge54_Node000033_Node000015" class="edge">
<title>Node33&#45;&gt;Node15</title>
<g id="a_edge54_Node000033_Node000015"><a xlink:title=" ">
<path fill="none" stroke="#63b8ff" d="M247.51,-287.09C260.36,-279.14 279.33,-267.39 294.49,-258"/>
<polygon fill="#63b8ff" stroke="#63b8ff" points="296.31,-260.99 302.97,-252.75 292.63,-255.04 296.31,-260.99"/>
</a>
</g>
</g>
<!-- Node33&#45;&gt;Node28 -->
<g id="edge55_Node000033_Node000028" class="edge">
<title>Node33&#45;&gt;Node28</title>
<g id="a_edge55_Node000033_Node000028"><a xlink:title=" ">
<path fill="none" stroke="#63b8ff" d="M221.04,-287.09C210.82,-279.32 195.85,-267.92 183.65,-258.65"/>
<polygon fill="#63b8ff" stroke="#63b8ff" points="185.9,-255.96 175.82,-252.69 181.66,-261.53 185.9,-255.96"/>
</a>
</g>
</g>
<!-- Node34 -->
<g id="Node000034" class="node">
<title>Node34</title>
<g id="a_Node000034"><a xlink:href="valueconsumer_8h.html" target="_top" xlink:title=" ">
<polygon fill="white" stroke="#666666" points="339.67,-196.25 250.17,-196.25 250.17,-177 339.67,-177 339.67,-196.25"/>
<text text-anchor="middle" x="294.92" y="-182.75" font-family="Helvetica,sans-Serif" font-size="10.00">valueconsumer.h</text>
</a>
</g>
</g>
<!-- Node33&#45;&gt;Node34 -->
<g id="edge56_Node000033_Node000034" class="edge">
<title>Node33&#45;&gt;Node34</title>
<g id="a_edge56_Node000033_Node000034"><a xlink:title=" ">
<path fill="none" stroke="#63b8ff" d="M233.98,-287.32C235.83,-274.47 240.5,-250.18 250.92,-232.25 257.02,-221.75 266.17,-211.92 274.54,-204.18"/>
<polygon fill="#63b8ff" stroke="#63b8ff" points="276.78,-206.87 282.01,-197.65 272.18,-201.6 276.78,-206.87"/>
</a>
</g>
</g>
<!-- Node34&#45;&gt;Node4 -->
<g id="edge58_Node000034_Node000004" class="edge">
<title>Node34&#45;&gt;Node4</title>
<g id="a_edge58_Node000034_Node000004"><a xlink:title=" ">
<path fill="none" stroke="#63b8ff" d="M311.54,-176.59C326.61,-168.41 349.06,-156.21 366.57,-146.69"/>
<polygon fill="#63b8ff" stroke="#63b8ff" points="367.77,-150.02 374.88,-142.18 364.42,-143.87 367.77,-150.02"/>
</a>
</g>
</g>
<!-- Node34&#45;&gt;Node6 -->
<g id="edge57_Node000034_Node000006" class="edge">
<title>Node34&#45;&gt;Node6</title>
<g id="a_edge57_Node000034_Node000006"><a xlink:title=" ">
<path fill="none" stroke="#63b8ff" d="M339.98,-180.52C430.7,-170.24 634.22,-147.18 722.61,-137.17"/>
<polygon fill="#63b8ff" stroke="#63b8ff" points="723,-140.65 732.54,-136.04 722.21,-133.69 723,-140.65"/>
</a>
</g>
</g>
<!-- Node35 -->
<g id="Node000035" class="node">
<title>Node35</title>
<g id="a_Node000035"><a xlink:title=" ">
<polygon fill="#e0e0e0" stroke="#999999" points="319.04,-141 270.79,-141 270.79,-121.75 319.04,-121.75 319.04,-141"/>
<text text-anchor="middle" x="294.92" y="-127.5" font-family="Helvetica,sans-Serif" font-size="10.00">stdint.h</text>
</a>
</g>
</g>
<!-- Node34&#45;&gt;Node35 -->
<g id="edge59_Node000034_Node000035" class="edge">
<title>Node34&#45;&gt;Node35</title>
<g id="a_edge59_Node000034_Node000035"><a xlink:title=" ">
<path fill="none" stroke="#63b8ff" d="M294.92,-176.83C294.92,-170.32 294.92,-161.17 294.92,-152.87"/>
<polygon fill="#63b8ff" stroke="#63b8ff" points="298.42,-152.87 294.92,-142.87 291.42,-152.87 298.42,-152.87"/>
</a>
</g>
</g>
<!-- Node39&#45;&gt;Node38 -->
<g id="edge64_Node000039_Node000038" class="edge">
<title>Node39&#45;&gt;Node38</title>
<g id="a_edge64_Node000039_Node000038"><a xlink:title=" ">
<path fill="none" stroke="#63b8ff" d="M838.92,-508.33C838.92,-501.82 838.92,-492.67 838.92,-484.37"/>
<polygon fill="#63b8ff" stroke="#63b8ff" points="842.42,-484.37 838.92,-474.37 835.42,-484.37 842.42,-484.37"/>
</a>
</g>
</g>
</g>
</svg>
