<?xml version="1.0" encoding="UTF-8" standalone="no"?>
<!DOCTYPE svg PUBLIC "-//W3C//DTD SVG 1.1//EN"
 "http://www.w3.org/Graphics/SVG/1.1/DTD/svg11.dtd">
<!-- Generated by graphviz version 14.1.4 (20260321.0153)
 -->
<!-- Title: src/sensesp/ui/status_page_item.cpp Pages: 1 -->
<svg width="793pt" height="492pt"
 viewBox="0.00 0.00 793.00 492.00" xmlns="http://www.w3.org/2000/svg" xmlns:xlink="http://www.w3.org/1999/xlink">
<g id="graph0" class="graph" transform="scale(1 1) rotate(0) translate(4 487.75)">
<title>src/sensesp/ui/status_page_item.cpp</title>
<!-- Node1 -->
<g id="Node000001" class="node">
<title>Node1</title>
<g id="a_Node000001"><a xlink:title=" ">
<polygon fill="#999999" stroke="#666666" points="301.6,-483.75 191.85,-483.75 191.85,-453.25 301.6,-453.25 301.6,-483.75"/>
<text xml:space="preserve" text-anchor="start" x="199.85" y="-470.25" font-family="Helvetica,sans-Serif" font-size="10.00">src/sensesp/ui/status</text>
<text xml:space="preserve" text-anchor="middle" x="246.73" y="-459" font-family="Helvetica,sans-Serif" font-size="10.00">_page_item.cpp</text>
</a>
</g>
</g>
<!-- Node2 -->
<g id="Node000002" class="node">
<title>Node2</title>
<g id="a_Node000002"><a xlink:href="status__page__item_8h.html" target="_top" xlink:title=" ">
<polygon fill="white" stroke="#666666" points="297.48,-417.25 195.98,-417.25 195.98,-398 297.48,-398 297.48,-417.25"/>
<text xml:space="preserve" text-anchor="middle" x="246.73" y="-403.75" font-family="Helvetica,sans-Serif" font-size="10.00">status_page_item.h</text>
</a>
</g>
</g>
<!-- Node1&#45;&gt;Node2 -->
<g id="edge1_Node000001_Node000002" class="edge">
<title>Node1&#45;&gt;Node2</title>
<g id="a_edge1_Node000001_Node000002"><a xlink:title=" ">
<path fill="none" stroke="#63b8ff" d="M246.73,-452.95C246.73,-445.71 246.73,-436.84 246.73,-428.94"/>
<polygon fill="#63b8ff" stroke="#63b8ff" points="250.23,-429.21 246.73,-419.21 243.23,-429.21 250.23,-429.21"/>
</a>
</g>
</g>
<!-- Node3 -->
<g id="Node000003" class="node">
<title>Node3</title>
<g id="a_Node000003"><a xlink:title=" ">
<polygon fill="#e0e0e0" stroke="#999999" points="368.85,-141 290.6,-141 290.6,-121.75 368.85,-121.75 368.85,-141"/>
<text xml:space="preserve" text-anchor="middle" x="329.73" y="-127.5" font-family="Helvetica,sans-Serif" font-size="10.00">ArduinoJson.h</text>
</a>
</g>
</g>
<!-- Node2&#45;&gt;Node3 -->
<g id="edge2_Node000002_Node000003" class="edge">
<title>Node2&#45;&gt;Node3</title>
<g id="a_edge2_Node000002_Node000003"><a xlink:title=" ">
<path fill="none" stroke="#63b8ff" d="M231.25,-397.62C189.7,-372.26 81.55,-297.85 122.73,-232.25 125.31,-228.14 243.42,-172.64 300.05,-146.2"/>
<polygon fill="#63b8ff" stroke="#63b8ff" points="301.23,-149.51 308.81,-142.11 298.27,-143.17 301.23,-149.51"/>
</a>
</g>
</g>
<!-- Node4 -->
<g id="Node000004" class="node">
<title>Node4</title>
<g id="a_Node000004"><a xlink:title=" ">
<polygon fill="#e0e0e0" stroke="#999999" points="86.73,-362 28.73,-362 28.73,-342.75 86.73,-342.75 86.73,-362"/>
<text xml:space="preserve" text-anchor="middle" x="57.73" y="-348.5" font-family="Helvetica,sans-Serif" font-size="10.00">esp_log.h</text>
</a>
</g>
</g>
<!-- Node2&#45;&gt;Node4 -->
<g id="edge3_Node000002_Node000004" class="edge">
<title>Node2&#45;&gt;Node4</title>
<g id="a_edge3_Node000002_Node000004"><a xlink:title=" ">
<path fill="none" stroke="#63b8ff" d="M214.67,-397.59C182.45,-388.52 132.71,-374.5 97.89,-364.69"/>
<polygon fill="#63b8ff" stroke="#63b8ff" points="99.18,-361.42 88.6,-362.07 97.28,-368.15 99.18,-361.42"/>
</a>
</g>
</g>
<!-- Node5 -->
<g id="Node000005" class="node">
<title>Node5</title>
<g id="a_Node000005"><a xlink:title=" ">
<polygon fill="#e0e0e0" stroke="#999999" points="555.73,-196.25 497.73,-196.25 497.73,-177 555.73,-177 555.73,-196.25"/>
<text xml:space="preserve" text-anchor="middle" x="526.73" y="-182.75" font-family="Helvetica,sans-Serif" font-size="10.00">functional</text>
</a>
</g>
</g>
<!-- Node2&#45;&gt;Node5 -->
<g id="edge4_Node000002_Node000005" class="edge">
<title>Node2&#45;&gt;Node5</title>
<g id="a_edge4_Node000002_Node000005"><a xlink:title=" ">
<path fill="none" stroke="#63b8ff" d="M297.66,-403.78C338.27,-399.47 395.2,-388.73 437.73,-362 491.12,-328.44 505.76,-310.97 526.73,-251.5 531.65,-237.54 531.44,-220.77 530.11,-207.91"/>
<polygon fill="#63b8ff" stroke="#63b8ff" points="533.59,-207.55 528.76,-198.12 526.66,-208.5 533.59,-207.55"/>
</a>
</g>
</g>
<!-- Node6 -->
<g id="Node000006" class="node">
<title>Node6</title>
<g id="a_Node000006"><a xlink:title=" ">
<polygon fill="#e0e0e0" stroke="#999999" points="166.1,-251.5 131.35,-251.5 131.35,-232.25 166.1,-232.25 166.1,-251.5"/>
<text xml:space="preserve" text-anchor="middle" x="148.73" y="-238" font-family="Helvetica,sans-Serif" font-size="10.00">map</text>
</a>
</g>
</g>
<!-- Node2&#45;&gt;Node6 -->
<g id="edge5_Node000002_Node000006" class="edge">
<title>Node2&#45;&gt;Node6</title>
<g id="a_edge5_Node000002_Node000006"><a xlink:title=" ">
<path fill="none" stroke="#63b8ff" d="M241.46,-397.82C226.04,-372.05 180.76,-296.4 159.72,-261.24"/>
<polygon fill="#63b8ff" stroke="#63b8ff" points="162.94,-259.8 154.8,-253.02 156.93,-263.4 162.94,-259.8"/>
</a>
</g>
</g>
<!-- Node7 -->
<g id="Node000007" class="node">
<title>Node7</title>
<g id="a_Node000007"><a xlink:title=" ">
<polygon fill="#e0e0e0" stroke="#999999" points="108.35,-19.25 51.1,-19.25 51.1,0 108.35,0 108.35,-19.25"/>
<text xml:space="preserve" text-anchor="middle" x="79.73" y="-5.75" font-family="Helvetica,sans-Serif" font-size="10.00">Arduino.h</text>
</a>
</g>
</g>
<!-- Node2&#45;&gt;Node7 -->
<g id="edge6_Node000002_Node000007" class="edge">
<title>Node2&#45;&gt;Node7</title>
<g id="a_edge6_Node000002_Node000007"><a xlink:title=" ">
<path fill="none" stroke="#63b8ff" d="M195.64,-402.68C136.8,-397.11 44.99,-384.97 19.73,-362 -2.19,-342.07 0.73,-327.74 0.73,-298.12 0.73,-298.12 0.73,-298.12 0.73,-130.38 0.73,-87.5 36.45,-48.14 59.85,-26.95"/>
<polygon fill="#63b8ff" stroke="#63b8ff" points="62.02,-29.71 67.27,-20.5 57.43,-24.42 62.02,-29.71"/>
</a>
</g>
</g>
<!-- Node8 -->
<g id="Node000008" class="node">
<title>Node8</title>
<g id="a_Node000008"><a xlink:href="observablevalue_8h.html" target="_top" xlink:title=" ">
<polygon fill="white" stroke="#666666" points="428.6,-362 258.85,-362 258.85,-342.75 428.6,-342.75 428.6,-362"/>
<text xml:space="preserve" text-anchor="middle" x="343.73" y="-348.5" font-family="Helvetica,sans-Serif" font-size="10.00">sensesp/system/observablevalue.h</text>
</a>
</g>
</g>
<!-- Node2&#45;&gt;Node8 -->
<g id="edge7_Node000002_Node000008" class="edge">
<title>Node2&#45;&gt;Node8</title>
<g id="a_edge7_Node000002_Node000008"><a xlink:title=" ">
<path fill="none" stroke="#63b8ff" d="M263.18,-397.59C277.95,-389.48 299.9,-377.43 317.16,-367.96"/>
<polygon fill="#63b8ff" stroke="#63b8ff" points="318.78,-371.06 325.87,-363.18 315.42,-364.93 318.78,-371.06"/>
</a>
</g>
</g>
<!-- Node22 -->
<g id="Node000022" class="node">
<title>Node22</title>
<g id="a_Node000022"><a xlink:href="valueproducer_8h.html" target="_top" xlink:title=" ">
<polygon fill="white" stroke="#666666" points="657.85,-306.75 573.6,-306.75 573.6,-287.5 657.85,-287.5 657.85,-306.75"/>
<text xml:space="preserve" text-anchor="middle" x="615.73" y="-293.25" font-family="Helvetica,sans-Serif" font-size="10.00">valueproducer.h</text>
</a>
</g>
</g>
<!-- Node2&#45;&gt;Node22 -->
<g id="edge43_Node000002_Node000022" class="edge">
<title>Node2&#45;&gt;Node22</title>
<g id="a_edge43_Node000002_Node000022"><a xlink:title=" ">
<path fill="none" stroke="#63b8ff" d="M297.79,-403.64C374.6,-398.44 515.56,-385.92 559.73,-362 579.14,-351.49 594.99,-331.43 604.82,-316.59"/>
<polygon fill="#63b8ff" stroke="#63b8ff" points="607.73,-318.53 610.07,-308.19 601.8,-314.82 607.73,-318.53"/>
</a>
</g>
</g>
<!-- Node23 -->
<g id="Node000023" class="node">
<title>Node23</title>
<g id="a_Node000023"><a xlink:href="valueconsumer_8h.html" target="_top" xlink:title=" ">
<polygon fill="white" stroke="#666666" points="739.48,-251.5 649.98,-251.5 649.98,-232.25 739.48,-232.25 739.48,-251.5"/>
<text xml:space="preserve" text-anchor="middle" x="694.73" y="-238" font-family="Helvetica,sans-Serif" font-size="10.00">valueconsumer.h</text>
</a>
</g>
</g>
<!-- Node2&#45;&gt;Node23 -->
<g id="edge42_Node000002_Node000023" class="edge">
<title>Node2&#45;&gt;Node23</title>
<g id="a_edge42_Node000002_Node000023"><a xlink:title=" ">
<path fill="none" stroke="#63b8ff" d="M297.92,-407.18C365.9,-406.3 488.68,-399.06 585.73,-362 626.44,-346.46 638.9,-340.28 666.73,-306.75 677.38,-293.91 684.68,-276.38 689.15,-262.94"/>
<polygon fill="#63b8ff" stroke="#63b8ff" points="692.48,-264.02 692.03,-253.44 685.78,-261.99 692.48,-264.02"/>
</a>
</g>
</g>
<!-- Node9 -->
<g id="Node000009" class="node">
<title>Node9</title>
<g id="a_Node000009"><a xlink:href="saveable_8h.html" target="_top" xlink:title=" ">
<polygon fill="white" stroke="#666666" points="285.35,-251.5 222.1,-251.5 222.1,-232.25 285.35,-232.25 285.35,-251.5"/>
<text xml:space="preserve" text-anchor="middle" x="253.73" y="-238" font-family="Helvetica,sans-Serif" font-size="10.00">saveable.h</text>
</a>
</g>
</g>
<!-- Node8&#45;&gt;Node9 -->
<g id="edge8_Node000008_Node000009" class="edge">
<title>Node8&#45;&gt;Node9</title>
<g id="a_edge8_Node000008_Node000009"><a xlink:title=" ">
<path fill="none" stroke="#63b8ff" d="M321.13,-342.35C305.42,-334.98 285.14,-323.1 272.73,-306.75 263.08,-294.04 258.31,-276.49 255.97,-263"/>
<polygon fill="#63b8ff" stroke="#63b8ff" points="259.44,-262.52 254.59,-253.1 252.5,-263.48 259.44,-262.52"/>
</a>
</g>
</g>
<!-- Node17 -->
<g id="Node000017" class="node">
<title>Node17</title>
<g id="a_Node000017"><a xlink:href="observable_8h.html" target="_top" xlink:title=" ">
<polygon fill="white" stroke="#666666" points="517.48,-251.5 445.98,-251.5 445.98,-232.25 517.48,-232.25 517.48,-251.5"/>
<text xml:space="preserve" text-anchor="middle" x="481.73" y="-238" font-family="Helvetica,sans-Serif" font-size="10.00">observable.h</text>
</a>
</g>
</g>
<!-- Node8&#45;&gt;Node17 -->
<g id="edge22_Node000008_Node000017" class="edge">
<title>Node8&#45;&gt;Node17</title>
<g id="a_edge22_Node000008_Node000017"><a xlink:title=" ">
<path fill="none" stroke="#63b8ff" d="M360.13,-342.33C374.94,-333.87 397.03,-320.52 414.73,-306.75 433.46,-292.18 452.87,-273.16 465.95,-259.68"/>
<polygon fill="#63b8ff" stroke="#63b8ff" points="468.13,-262.46 472.51,-252.82 463.07,-257.63 468.13,-262.46"/>
</a>
</g>
</g>
<!-- Node20 -->
<g id="Node000020" class="node">
<title>Node20</title>
<g id="a_Node000020"><a xlink:href="config__item_8h.html" target="_top" xlink:title=" ">
<polygon fill="white" stroke="#666666" points="406.1,-306.75 281.35,-306.75 281.35,-287.5 406.1,-287.5 406.1,-306.75"/>
<text xml:space="preserve" text-anchor="middle" x="343.73" y="-293.25" font-family="Helvetica,sans-Serif" font-size="10.00">sensesp/ui/config_item.h</text>
</a>
</g>
</g>
<!-- Node8&#45;&gt;Node20 -->
<g id="edge26_Node000008_Node000020" class="edge">
<title>Node8&#45;&gt;Node20</title>
<g id="a_edge26_Node000008_Node000020"><a xlink:title=" ">
<path fill="none" stroke="#63b8ff" d="M343.73,-342.58C343.73,-336.07 343.73,-326.92 343.73,-318.62"/>
<polygon fill="#63b8ff" stroke="#63b8ff" points="347.23,-318.62 343.73,-308.62 340.23,-318.62 347.23,-318.62"/>
</a>
</g>
</g>
<!-- Node8&#45;&gt;Node22 -->
<g id="edge34_Node000008_Node000022" class="edge">
<title>Node8&#45;&gt;Node22</title>
<g id="a_edge34_Node000008_Node000022"><a xlink:title=" ">
<path fill="none" stroke="#63b8ff" d="M390.18,-342.28C437.9,-332.94 512.1,-318.41 562.24,-308.6"/>
<polygon fill="#63b8ff" stroke="#63b8ff" points="562.87,-312.04 572.01,-306.68 561.52,-305.17 562.87,-312.04"/>
</a>
</g>
</g>
<!-- Node9&#45;&gt;Node3 -->
<g id="edge16_Node000009_Node000003" class="edge">
<title>Node9&#45;&gt;Node3</title>
<g id="a_edge16_Node000009_Node000003"><a xlink:title=" ">
<path fill="none" stroke="#63b8ff" d="M259.95,-232C272.36,-214.27 300.44,-174.19 316.94,-150.63"/>
<polygon fill="#63b8ff" stroke="#63b8ff" points="319.68,-152.81 322.55,-142.62 313.95,-148.8 319.68,-152.81"/>
</a>
</g>
</g>
<!-- Node9&#45;&gt;Node7 -->
<g id="edge17_Node000009_Node000007" class="edge">
<title>Node9&#45;&gt;Node7</title>
<g id="a_edge17_Node000009_Node000007"><a xlink:title=" ">
<path fill="none" stroke="#63b8ff" d="M221.77,-233.61C179.03,-223.61 107.69,-205.74 99.73,-196.25 59.67,-148.51 68.5,-67.77 75.38,-30.53"/>
<polygon fill="#63b8ff" stroke="#63b8ff" points="78.73,-31.66 77.27,-21.17 71.86,-30.28 78.73,-31.66"/>
</a>
</g>
</g>
<!-- Node10 -->
<g id="Node000010" class="node">
<title>Node10</title>
<g id="a_Node000010"><a xlink:href="sensesp_8h.html" target="_top" xlink:title=" ">
<polygon fill="white" stroke="#666666" points="272.23,-141 211.23,-141 211.23,-121.75 272.23,-121.75 272.23,-141"/>
<text xml:space="preserve" text-anchor="middle" x="241.73" y="-127.5" font-family="Helvetica,sans-Serif" font-size="10.00">sensesp.h</text>
</a>
</g>
</g>
<!-- Node9&#45;&gt;Node10 -->
<g id="edge9_Node000009_Node000010" class="edge">
<title>Node9&#45;&gt;Node10</title>
<g id="a_edge9_Node000009_Node000010"><a xlink:title=" ">
<path fill="none" stroke="#63b8ff" d="M252.75,-232C250.84,-214.75 246.59,-176.33 243.96,-152.56"/>
<polygon fill="#63b8ff" stroke="#63b8ff" points="247.47,-152.44 242.89,-142.88 240.51,-153.21 247.47,-152.44"/>
</a>
</g>
</g>
<!-- Node16 -->
<g id="Node000016" class="node">
<title>Node16</title>
<g id="a_Node000016"><a xlink:href="serializable_8h.html" target="_top" xlink:title=" ">
<polygon fill="white" stroke="#666666" points="181.23,-196.25 108.23,-196.25 108.23,-177 181.23,-177 181.23,-196.25"/>
<text xml:space="preserve" text-anchor="middle" x="144.73" y="-182.75" font-family="Helvetica,sans-Serif" font-size="10.00">serializable.h</text>
</a>
</g>
</g>
<!-- Node9&#45;&gt;Node16 -->
<g id="edge18_Node000009_Node000016" class="edge">
<title>Node9&#45;&gt;Node16</title>
<g id="a_edge18_Node000009_Node000016"><a xlink:title=" ">
<path fill="none" stroke="#63b8ff" d="M235.24,-231.84C218.33,-223.58 193.04,-211.23 173.49,-201.68"/>
<polygon fill="#63b8ff" stroke="#63b8ff" points="175.19,-198.61 164.67,-197.37 172.12,-204.9 175.19,-198.61"/>
</a>
</g>
</g>
<!-- Node11 -->
<g id="Node000011" class="node">
<title>Node11</title>
<g id="a_Node000011"><a xlink:title=" ">
<polygon fill="#e0e0e0" stroke="#999999" points="215.35,-80.12 146.1,-80.12 146.1,-60.88 215.35,-60.88 215.35,-80.12"/>
<text xml:space="preserve" text-anchor="middle" x="180.73" y="-66.62" font-family="Helvetica,sans-Serif" font-size="10.00">ReactESP.h</text>
</a>
</g>
</g>
<!-- Node10&#45;&gt;Node11 -->
<g id="edge10_Node000010_Node000011" class="edge">
<title>Node10&#45;&gt;Node11</title>
<g id="a_edge10_Node000010_Node000011"><a xlink:title=" ">
<path fill="none" stroke="#63b8ff" d="M232.46,-121.43C223.42,-112.7 209.42,-99.19 198.27,-88.43"/>
<polygon fill="#63b8ff" stroke="#63b8ff" points="200.8,-86 191.17,-81.58 195.93,-91.04 200.8,-86"/>
</a>
</g>
</g>
<!-- Node12 -->
<g id="Node000012" class="node">
<title>Node12</title>
<g id="a_Node000012"><a xlink:title=" ">
<polygon fill="#e0e0e0" stroke="#999999" points="647.35,-80.12 596.1,-80.12 596.1,-60.88 647.35,-60.88 647.35,-80.12"/>
<text xml:space="preserve" text-anchor="middle" x="621.73" y="-66.62" font-family="Helvetica,sans-Serif" font-size="10.00">memory</text>
</a>
</g>
</g>
<!-- Node10&#45;&gt;Node12 -->
<g id="edge11_Node000010_Node000012" class="edge">
<title>Node10&#45;&gt;Node12</title>
<g id="a_edge11_Node000010_Node000012"><a xlink:title=" ">
<path fill="none" stroke="#63b8ff" d="M272.7,-123.49C275.74,-122.87 278.79,-122.28 281.73,-121.75 391.21,-101.88 521.6,-84.29 584.35,-76.21"/>
<polygon fill="#63b8ff" stroke="#63b8ff" points="584.64,-79.7 594.11,-74.96 583.75,-72.76 584.64,-79.7"/>
</a>
</g>
</g>
<!-- Node13 -->
<g id="Node000013" class="node">
<title>Node13</title>
<g id="a_Node000013"><a xlink:href="local__debug_8h.html" target="_top" xlink:title=" ">
<polygon fill="white" stroke="#666666" points="344.35,-85.75 233.1,-85.75 233.1,-55.25 344.35,-55.25 344.35,-85.75"/>
<text xml:space="preserve" text-anchor="start" x="241.1" y="-72.25" font-family="Helvetica,sans-Serif" font-size="10.00">sensesp/system/local</text>
<text xml:space="preserve" text-anchor="middle" x="288.73" y="-61" font-family="Helvetica,sans-Serif" font-size="10.00">_debug.h</text>
</a>
</g>
</g>
<!-- Node10&#45;&gt;Node13 -->
<g id="edge12_Node000010_Node000013" class="edge">
<title>Node10&#45;&gt;Node13</title>
<g id="a_edge12_Node000010_Node000013"><a xlink:title=" ">
<path fill="none" stroke="#63b8ff" d="M248.87,-121.43C254.49,-114.39 262.6,-104.23 270.03,-94.92"/>
<polygon fill="#63b8ff" stroke="#63b8ff" points="272.68,-97.21 276.18,-87.21 267.21,-92.85 272.68,-97.21"/>
</a>
</g>
</g>
<!-- Node13&#45;&gt;Node7 -->
<g id="edge14_Node000013_Node000007" class="edge">
<title>Node13&#45;&gt;Node7</title>
<g id="a_edge14_Node000013_Node000007"><a xlink:title=" ">
<path fill="none" stroke="#63b8ff" d="M236.53,-54.8C200.25,-44.57 152.63,-31.16 119.43,-21.81"/>
<polygon fill="#63b8ff" stroke="#63b8ff" points="120.79,-18.56 110.22,-19.21 118.9,-25.29 120.79,-18.56"/>
</a>
</g>
</g>
<!-- Node14 -->
<g id="Node000014" class="node">
<title>Node14</title>
<g id="a_Node000014"><a xlink:title=" ">
<polygon fill="#e0e0e0" stroke="#999999" points="288.73,-19.25 206.73,-19.25 206.73,0 288.73,0 288.73,-19.25"/>
<text xml:space="preserve" text-anchor="middle" x="247.73" y="-5.75" font-family="Helvetica,sans-Serif" font-size="10.00">esp32&#45;hal&#45;log.h</text>
</a>
</g>
</g>
<!-- Node13&#45;&gt;Node14 -->
<g id="edge13_Node000013_Node000014" class="edge">
<title>Node13&#45;&gt;Node14</title>
<g id="a_edge13_Node000013_Node000014"><a xlink:title=" ">
<path fill="none" stroke="#63b8ff" d="M278.59,-54.95C273.13,-47.1 266.34,-37.35 260.51,-28.99"/>
<polygon fill="#63b8ff" stroke="#63b8ff" points="263.5,-27.15 254.91,-20.94 257.76,-31.15 263.5,-27.15"/>
</a>
</g>
</g>
<!-- Node15 -->
<g id="Node000015" class="node">
<title>Node15</title>
<g id="a_Node000015"><a xlink:title=" ">
<polygon fill="#e0e0e0" stroke="#999999" points="350.98,-19.25 306.48,-19.25 306.48,0 350.98,0 350.98,-19.25"/>
<text xml:space="preserve" text-anchor="middle" x="328.73" y="-5.75" font-family="Helvetica,sans-Serif" font-size="10.00">Print.h</text>
</a>
</g>
</g>
<!-- Node13&#45;&gt;Node15 -->
<g id="edge15_Node000013_Node000015" class="edge">
<title>Node13&#45;&gt;Node15</title>
<g id="a_edge15_Node000013_Node000015"><a xlink:title=" ">
<path fill="none" stroke="#63b8ff" d="M298.62,-54.95C303.95,-47.1 310.57,-37.35 316.25,-28.99"/>
<polygon fill="#63b8ff" stroke="#63b8ff" points="318.99,-31.19 321.71,-20.95 313.2,-27.26 318.99,-31.19"/>
</a>
</g>
</g>
<!-- Node16&#45;&gt;Node3 -->
<g id="edge20_Node000016_Node000003" class="edge">
<title>Node16&#45;&gt;Node3</title>
<g id="a_edge20_Node000016_Node000003"><a xlink:title=" ">
<path fill="none" stroke="#63b8ff" d="M176.11,-176.59C206.68,-167.79 253.35,-154.36 287.23,-144.61"/>
<polygon fill="#63b8ff" stroke="#63b8ff" points="288.1,-148 296.74,-141.87 286.16,-141.27 288.1,-148"/>
</a>
</g>
</g>
<!-- Node16&#45;&gt;Node7 -->
<g id="edge21_Node000016_Node000007" class="edge">
<title>Node16&#45;&gt;Node7</title>
<g id="a_edge21_Node000016_Node000007"><a xlink:title=" ">
<path fill="none" stroke="#63b8ff" d="M141.42,-176.71C131.38,-149.68 101.13,-68.24 87.06,-30.37"/>
<polygon fill="#63b8ff" stroke="#63b8ff" points="90.4,-29.31 83.64,-21.15 83.84,-31.75 90.4,-29.31"/>
</a>
</g>
</g>
<!-- Node16&#45;&gt;Node10 -->
<g id="edge19_Node000016_Node000010" class="edge">
<title>Node16&#45;&gt;Node10</title>
<g id="a_edge19_Node000016_Node000010"><a xlink:title=" ">
<path fill="none" stroke="#63b8ff" d="M161.18,-176.59C175.95,-168.48 197.9,-156.43 215.16,-146.96"/>
<polygon fill="#63b8ff" stroke="#63b8ff" points="216.78,-150.06 223.87,-142.18 213.42,-143.93 216.78,-150.06"/>
</a>
</g>
</g>
<!-- Node17&#45;&gt;Node5 -->
<g id="edge24_Node000017_Node000005" class="edge">
<title>Node17&#45;&gt;Node5</title>
<g id="a_edge24_Node000017_Node000005"><a xlink:title=" ">
<path fill="none" stroke="#63b8ff" d="M489.16,-232.08C495.31,-224.8 504.24,-214.23 511.85,-205.23"/>
<polygon fill="#63b8ff" stroke="#63b8ff" points="514.38,-207.66 518.16,-197.77 509.03,-203.14 514.38,-207.66"/>
</a>
</g>
</g>
<!-- Node18 -->
<g id="Node000018" class="node">
<title>Node18</title>
<g id="a_Node000018"><a xlink:title=" ">
<polygon fill="#e0e0e0" stroke="#999999" points="479.85,-196.25 413.6,-196.25 413.6,-177 479.85,-177 479.85,-196.25"/>
<text xml:space="preserve" text-anchor="middle" x="446.73" y="-182.75" font-family="Helvetica,sans-Serif" font-size="10.00">forward_list</text>
</a>
</g>
</g>
<!-- Node17&#45;&gt;Node18 -->
<g id="edge23_Node000017_Node000018" class="edge">
<title>Node17&#45;&gt;Node18</title>
<g id="a_edge23_Node000017_Node000018"><a xlink:title=" ">
<path fill="none" stroke="#63b8ff" d="M475.95,-232.08C471.32,-225.03 464.65,-214.9 458.86,-206.08"/>
<polygon fill="#63b8ff" stroke="#63b8ff" points="461.88,-204.31 453.46,-197.87 456.03,-208.15 461.88,-204.31"/>
</a>
</g>
</g>
<!-- Node19 -->
<g id="Node000019" class="node">
<title>Node19</title>
<g id="a_Node000019"><a xlink:title=" ">
<polygon fill="#e0e0e0" stroke="#999999" points="395.23,-196.25 352.23,-196.25 352.23,-177 395.23,-177 395.23,-196.25"/>
<text xml:space="preserve" text-anchor="middle" x="373.73" y="-182.75" font-family="Helvetica,sans-Serif" font-size="10.00">vector</text>
</a>
</g>
</g>
<!-- Node17&#45;&gt;Node19 -->
<g id="edge25_Node000017_Node000019" class="edge">
<title>Node17&#45;&gt;Node19</title>
<g id="a_edge25_Node000017_Node000019"><a xlink:title=" ">
<path fill="none" stroke="#63b8ff" d="M463.41,-231.84C446.65,-223.58 421.6,-211.23 402.23,-201.68"/>
<polygon fill="#63b8ff" stroke="#63b8ff" points="404.01,-198.65 393.5,-197.37 400.92,-204.93 404.01,-198.65"/>
</a>
</g>
</g>
<!-- Node20&#45;&gt;Node3 -->
<g id="edge32_Node000020_Node000003" class="edge">
<title>Node20&#45;&gt;Node3</title>
<g id="a_edge32_Node000020_Node000003"><a xlink:title=" ">
<path fill="none" stroke="#63b8ff" d="M340.86,-287.01C338.2,-278.07 334.41,-264 332.73,-251.5 328.11,-217.07 328.26,-176.56 328.91,-152.76"/>
<polygon fill="#63b8ff" stroke="#63b8ff" points="332.4,-153.02 329.24,-142.91 325.41,-152.78 332.4,-153.02"/>
</a>
</g>
</g>
<!-- Node20&#45;&gt;Node6 -->
<g id="edge27_Node000020_Node000006" class="edge">
<title>Node20&#45;&gt;Node6</title>
<g id="a_edge27_Node000020_Node000006"><a xlink:title=" ">
<path fill="none" stroke="#63b8ff" d="M310.11,-287.04C276.94,-278.06 224.82,-263.91 179.73,-251.5 178.92,-251.28 178.1,-251.05 177.27,-250.82"/>
<polygon fill="#63b8ff" stroke="#63b8ff" points="178.46,-247.52 167.89,-248.22 176.59,-254.27 178.46,-247.52"/>
</a>
</g>
</g>
<!-- Node20&#45;&gt;Node7 -->
<g id="edge31_Node000020_Node000007" class="edge">
<title>Node20&#45;&gt;Node7</title>
<g id="a_edge31_Node000020_Node000007"><a xlink:title=" ">
<path fill="none" stroke="#63b8ff" d="M313.1,-287.03C286.26,-278.75 246.39,-265.67 212.73,-251.5 195.28,-244.15 191.99,-240.02 174.73,-232.25 135.06,-214.4 113.26,-228.18 83.73,-196.25 40.84,-149.87 56.16,-117.7 65.73,-55.25 67,-46.93 69.54,-38.03 72.11,-30.38"/>
<polygon fill="#63b8ff" stroke="#63b8ff" points="75.36,-31.68 75.48,-21.08 68.78,-29.29 75.36,-31.68"/>
</a>
</g>
</g>
<!-- Node20&#45;&gt;Node9 -->
<g id="edge33_Node000020_Node000009" class="edge">
<title>Node20&#45;&gt;Node9</title>
<g id="a_edge33_Node000020_Node000009"><a xlink:title=" ">
<path fill="none" stroke="#63b8ff" d="M328.46,-287.09C314.89,-279.06 294.77,-267.16 278.83,-257.73"/>
<polygon fill="#63b8ff" stroke="#63b8ff" points="280.76,-254.8 270.37,-252.72 277.2,-260.83 280.76,-254.8"/>
</a>
</g>
</g>
<!-- Node20&#45;&gt;Node12 -->
<g id="edge28_Node000020_Node000012" class="edge">
<title>Node20&#45;&gt;Node12</title>
<g id="a_edge28_Node000020_Node000012"><a xlink:title=" ">
<path fill="none" stroke="#63b8ff" d="M406.36,-292.05C444.01,-287.02 491.33,-275.91 526.73,-251.5 582.92,-212.75 608.4,-130 617.52,-91.71"/>
<polygon fill="#63b8ff" stroke="#63b8ff" points="620.92,-92.55 619.68,-82.03 614.09,-91.03 620.92,-92.55"/>
</a>
</g>
</g>
<!-- Node20&#45;&gt;Node19 -->
<g id="edge29_Node000020_Node000019" class="edge">
<title>Node20&#45;&gt;Node19</title>
<g id="a_edge29_Node000020_Node000019"><a xlink:title=" ">
<path fill="none" stroke="#63b8ff" d="M361.73,-287.15C374.66,-279.61 391.11,-267.49 398.73,-251.5 405.99,-236.25 397.53,-218.29 388.54,-205.3"/>
<polygon fill="#63b8ff" stroke="#63b8ff" points="391.58,-203.51 382.73,-197.68 386.01,-207.75 391.58,-203.51"/>
</a>
</g>
</g>
<!-- Node21 -->
<g id="Node000021" class="node">
<title>Node21</title>
<g id="a_Node000021"><a xlink:title=" ">
<polygon fill="#e0e0e0" stroke="#999999" points="389.85,-251.5 341.6,-251.5 341.6,-232.25 389.85,-232.25 389.85,-251.5"/>
<text xml:space="preserve" text-anchor="middle" x="365.73" y="-238" font-family="Helvetica,sans-Serif" font-size="10.00">cstddef</text>
</a>
</g>
</g>
<!-- Node20&#45;&gt;Node21 -->
<g id="edge30_Node000020_Node000021" class="edge">
<title>Node20&#45;&gt;Node21</title>
<g id="a_edge30_Node000020_Node000021"><a xlink:title=" ">
<path fill="none" stroke="#63b8ff" d="M347.36,-287.33C350.15,-280.59 354.1,-271.02 357.62,-262.49"/>
<polygon fill="#63b8ff" stroke="#63b8ff" points="360.86,-263.84 361.44,-253.26 354.39,-261.16 360.86,-263.84"/>
</a>
</g>
</g>
<!-- Node22&#45;&gt;Node3 -->
<g id="edge35_Node000022_Node000003" class="edge">
<title>Node22&#45;&gt;Node3</title>
<g id="a_edge35_Node000022_Node000003"><a xlink:title=" ">
<path fill="none" stroke="#63b8ff" d="M614.74,-287.27C611.76,-264.9 600.68,-205.89 564.73,-177 536.9,-154.64 440.47,-142.19 380.12,-136.42"/>
<polygon fill="#63b8ff" stroke="#63b8ff" points="380.72,-132.96 370.44,-135.52 380.07,-139.93 380.72,-132.96"/>
</a>
</g>
</g>
<!-- Node22&#45;&gt;Node12 -->
<g id="edge36_Node000022_Node000012" class="edge">
<title>Node22&#45;&gt;Node12</title>
<g id="a_edge36_Node000022_Node000012"><a xlink:title=" ">
<path fill="none" stroke="#63b8ff" d="M658.29,-289.62C686.35,-283.58 722.6,-272.26 748.73,-251.5 771.3,-233.56 774.88,-223.99 782.73,-196.25 800.27,-134.28 711.35,-97.34 658.58,-81.19"/>
<polygon fill="#63b8ff" stroke="#63b8ff" points="659.64,-77.85 649.06,-78.39 657.67,-84.57 659.64,-77.85"/>
</a>
</g>
</g>
<!-- Node22&#45;&gt;Node17 -->
<g id="edge37_Node000022_Node000017" class="edge">
<title>Node22&#45;&gt;Node17</title>
<g id="a_edge37_Node000022_Node000017"><a xlink:title=" ">
<path fill="none" stroke="#63b8ff" d="M593,-287.09C571.63,-278.6 539.39,-265.79 515.1,-256.14"/>
<polygon fill="#63b8ff" stroke="#63b8ff" points="516.56,-252.95 505.98,-252.51 513.98,-259.46 516.56,-252.95"/>
</a>
</g>
</g>
<!-- Node22&#45;&gt;Node23 -->
<g id="edge38_Node000022_Node000023" class="edge">
<title>Node22&#45;&gt;Node23</title>
<g id="a_edge38_Node000022_Node000023"><a xlink:title=" ">
<path fill="none" stroke="#63b8ff" d="M629.13,-287.09C640.82,-279.21 658.03,-267.61 671.89,-258.27"/>
<polygon fill="#63b8ff" stroke="#63b8ff" points="673.67,-261.29 680.01,-252.8 669.76,-255.49 673.67,-261.29"/>
</a>
</g>
</g>
<!-- Node23&#45;&gt;Node3 -->
<g id="edge40_Node000023_Node000003" class="edge">
<title>Node23&#45;&gt;Node3</title>
<g id="a_edge40_Node000023_Node000003"><a xlink:title=" ">
<path fill="none" stroke="#63b8ff" d="M694.61,-231.81C693.89,-217.7 690.28,-190.69 673.73,-177 630.13,-140.94 465.19,-133.77 380.53,-132.51"/>
<polygon fill="#63b8ff" stroke="#63b8ff" points="380.7,-129.01 370.66,-132.39 380.61,-136.01 380.7,-129.01"/>
</a>
</g>
</g>
<!-- Node23&#45;&gt;Node10 -->
<g id="edge39_Node000023_Node000010" class="edge">
<title>Node23&#45;&gt;Node10</title>
<g id="a_edge39_Node000023_Node000010"><a xlink:title=" ">
<path fill="none" stroke="#63b8ff" d="M680.56,-231.95C657.33,-217.78 609.29,-190.37 564.73,-177 446.73,-141.58 408.84,-161.19 283.84,-141.18"/>
<polygon fill="#63b8ff" stroke="#63b8ff" points="284.62,-137.76 274.18,-139.57 283.47,-144.66 284.62,-137.76"/>
</a>
</g>
</g>
<!-- Node24 -->
<g id="Node000024" class="node">
<title>Node24</title>
<g id="a_Node000024"><a xlink:title=" ">
<polygon fill="#e0e0e0" stroke="#999999" points="773.85,-196.25 725.6,-196.25 725.6,-177 773.85,-177 773.85,-196.25"/>
<text xml:space="preserve" text-anchor="middle" x="749.73" y="-182.75" font-family="Helvetica,sans-Serif" font-size="10.00">stdint.h</text>
</a>
</g>
</g>
<!-- Node23&#45;&gt;Node24 -->
<g id="edge41_Node000023_Node000024" class="edge">
<title>Node23&#45;&gt;Node24</title>
<g id="a_edge41_Node000023_Node000024"><a xlink:title=" ">
<path fill="none" stroke="#63b8ff" d="M703.81,-232.08C711.57,-224.57 722.94,-213.56 732.43,-204.38"/>
<polygon fill="#63b8ff" stroke="#63b8ff" points="734.61,-207.13 739.36,-197.66 729.74,-202.1 734.61,-207.13"/>
</a>
</g>
</g>
</g>
</svg>
