<?xml version="1.0" encoding="UTF-8" standalone="no"?>
<!DOCTYPE svg PUBLIC "-//W3C//DTD SVG 1.1//EN"
 "http://www.w3.org/Graphics/SVG/1.1/DTD/svg11.dtd">
<!-- Generated by graphviz version 14.1.4 (20260321.0153)
 -->
<!-- Title: src/sensesp/net/web/static_file_data.h Pages: 1 -->
<svg width="1373pt" height="238pt"
 viewBox="0.00 0.00 1373.00 238.00" xmlns="http://www.w3.org/2000/svg" xmlns:xlink="http://www.w3.org/1999/xlink">
<g id="graph0" class="graph" transform="scale(1 1) rotate(0) translate(4 234)">
<title>src/sensesp/net/web/static_file_data.h</title>
<!-- Node1 -->
<g id="Node000001" class="node">
<title>Node1</title>
<g id="a_Node000001"><a xlink:title=" ">
<polygon fill="#999999" stroke="#666666" points="380.75,-230 274,-230 274,-199.5 380.75,-199.5 380.75,-230"/>
<text xml:space="preserve" text-anchor="start" x="282" y="-216.5" font-family="Helvetica,sans-Serif" font-size="10.00">src/sensesp/net/web</text>
<text xml:space="preserve" text-anchor="middle" x="327.38" y="-205.25" font-family="Helvetica,sans-Serif" font-size="10.00">/static_file_data.h</text>
</a>
</g>
</g>
<!-- Node2 -->
<g id="Node000002" class="node">
<title>Node2</title>
<g id="a_Node000002"><a xlink:href="frontend__files_8h.html" target="_top" xlink:title=" ">
<polygon fill="white" stroke="#666666" points="323,-163.5 199.75,-163.5 199.75,-133 323,-133 323,-163.5"/>
<text xml:space="preserve" text-anchor="start" x="207.75" y="-150" font-family="Helvetica,sans-Serif" font-size="10.00">src/sensesp/net/web</text>
<text xml:space="preserve" text-anchor="middle" x="261.38" y="-138.75" font-family="Helvetica,sans-Serif" font-size="10.00">/autogen/frontend_files.h</text>
</a>
</g>
</g>
<!-- Node1&#45;&gt;Node2 -->
<g id="edge1_Node000001_Node000002" class="edge">
<title>Node1&#45;&gt;Node2</title>
<g id="a_edge1_Node000001_Node000002"><a xlink:title=" ">
<path fill="none" stroke="#63b8ff" d="M304.29,-191.19C295,-182.11 284.55,-171.9 276.29,-163.83"/>
<polygon fill="#63b8ff" stroke="#63b8ff" points="301.72,-193.57 311.32,-198.06 306.61,-188.56 301.72,-193.57"/>
</a>
</g>
</g>
<!-- Node5 -->
<g id="Node000005" class="node">
<title>Node5</title>
<g id="a_Node000005"><a xlink:href="static__file__handler_8h.html" target="_top" xlink:title=" ">
<polygon fill="white" stroke="#666666" points="447.75,-163.5 341,-163.5 341,-133 447.75,-133 447.75,-163.5"/>
<text xml:space="preserve" text-anchor="start" x="349" y="-150" font-family="Helvetica,sans-Serif" font-size="10.00">src/sensesp/net/web</text>
<text xml:space="preserve" text-anchor="middle" x="394.38" y="-138.75" font-family="Helvetica,sans-Serif" font-size="10.00">/static_file_handler.h</text>
</a>
</g>
</g>
<!-- Node1&#45;&gt;Node5 -->
<g id="edge4_Node000001_Node000005" class="edge">
<title>Node1&#45;&gt;Node5</title>
<g id="a_edge4_Node000001_Node000005"><a xlink:title=" ">
<path fill="none" stroke="#63b8ff" d="M350.81,-191.19C360.24,-182.11 370.85,-171.9 379.23,-163.83"/>
<polygon fill="#63b8ff" stroke="#63b8ff" points="348.45,-188.61 343.67,-198.06 353.3,-193.65 348.45,-188.61"/>
</a>
</g>
</g>
<!-- Node3 -->
<g id="Node000003" class="node">
<title>Node3</title>
<g id="a_Node000003"><a xlink:href="base__command__handler_8cpp.html" target="_top" xlink:title=" ">
<polygon fill="white" stroke="#666666" points="142.75,-30.5 0,-30.5 0,0 142.75,0 142.75,-30.5"/>
<text xml:space="preserve" text-anchor="start" x="8" y="-17" font-family="Helvetica,sans-Serif" font-size="10.00">src/sensesp/net/web</text>
<text xml:space="preserve" text-anchor="middle" x="71.38" y="-5.75" font-family="Helvetica,sans-Serif" font-size="10.00">/base_command_handler.cpp</text>
</a>
</g>
</g>
<!-- Node2&#45;&gt;Node3 -->
<g id="edge2_Node000002_Node000003" class="edge">
<title>Node2&#45;&gt;Node3</title>
<g id="a_edge2_Node000002_Node000003"><a xlink:title=" ">
<path fill="none" stroke="#63b8ff" d="M231.09,-126.37C192.36,-99.66 126.26,-54.09 92.53,-30.83"/>
<polygon fill="#63b8ff" stroke="#63b8ff" points="228.85,-129.08 239.07,-131.87 232.82,-123.31 228.85,-129.08"/>
</a>
</g>
</g>
<!-- Node4 -->
<g id="Node000004" class="node">
<title>Node4</title>
<g id="a_Node000004"><a xlink:href="static__file__handler_8cpp.html" target="_top" xlink:title=" ">
<polygon fill="white" stroke="#666666" points="409.25,-97 293.5,-97 293.5,-66.5 409.25,-66.5 409.25,-97"/>
<text xml:space="preserve" text-anchor="start" x="301.5" y="-83.5" font-family="Helvetica,sans-Serif" font-size="10.00">src/sensesp/net/web</text>
<text xml:space="preserve" text-anchor="middle" x="351.38" y="-72.25" font-family="Helvetica,sans-Serif" font-size="10.00">/static_file_handler.cpp</text>
</a>
</g>
</g>
<!-- Node2&#45;&gt;Node4 -->
<g id="edge3_Node000002_Node000004" class="edge">
<title>Node2&#45;&gt;Node4</title>
<g id="a_edge3_Node000002_Node000004"><a xlink:title=" ">
<path fill="none" stroke="#63b8ff" d="M290.93,-126.07C304.07,-116.66 319.2,-105.81 331.03,-97.33"/>
<polygon fill="#63b8ff" stroke="#63b8ff" points="289.12,-123.06 283.03,-131.73 293.19,-128.75 289.12,-123.06"/>
</a>
</g>
</g>
<!-- Node5&#45;&gt;Node4 -->
<g id="edge5_Node000005_Node000004" class="edge">
<title>Node5&#45;&gt;Node4</title>
<g id="a_edge5_Node000005_Node000004"><a xlink:title=" ">
<path fill="none" stroke="#63b8ff" d="M378.4,-123.29C372.59,-114.57 366.2,-104.99 361.09,-97.33"/>
<polygon fill="#63b8ff" stroke="#63b8ff" points="375.32,-124.98 383.78,-131.35 381.14,-121.09 375.32,-124.98"/>
</a>
</g>
</g>
<!-- Node6 -->
<g id="Node000006" class="node">
<title>Node6</title>
<g id="a_Node000006"><a xlink:href="sensesp__app_8h.html" target="_top" xlink:title=" ">
<polygon fill="white" stroke="#666666" points="675.62,-91.38 577.12,-91.38 577.12,-72.12 675.62,-72.12 675.62,-91.38"/>
<text xml:space="preserve" text-anchor="middle" x="626.38" y="-77.88" font-family="Helvetica,sans-Serif" font-size="10.00">src/sensesp_app.h</text>
</a>
</g>
</g>
<!-- Node5&#45;&gt;Node6 -->
<g id="edge6_Node000005_Node000006" class="edge">
<title>Node5&#45;&gt;Node6</title>
<g id="a_edge6_Node000005_Node000006"><a xlink:title=" ">
<path fill="none" stroke="#63b8ff" d="M458.19,-129.51C502.12,-117.3 558.67,-101.57 593.71,-91.83"/>
<polygon fill="#63b8ff" stroke="#63b8ff" points="457.46,-126.08 448.77,-132.13 459.34,-132.82 457.46,-126.08"/>
</a>
</g>
</g>
<!-- Node6&#45;&gt;Node3 -->
<g id="edge8_Node000006_Node000003" class="edge">
<title>Node6&#45;&gt;Node3</title>
<g id="a_edge8_Node000006_Node000003"><a xlink:title=" ">
<path fill="none" stroke="#63b8ff" d="M565.24,-75.68C474.63,-67.85 299.45,-51.49 151.38,-30.5 148.58,-30.1 145.74,-29.68 142.86,-29.24"/>
<polygon fill="#63b8ff" stroke="#63b8ff" points="564.88,-79.16 575.15,-76.53 565.48,-72.19 564.88,-79.16"/>
</a>
</g>
</g>
<!-- Node7 -->
<g id="Node000007" class="node">
<title>Node7</title>
<g id="a_Node000007"><a xlink:href="app__command__handler_8cpp.html" target="_top" xlink:title=" ">
<polygon fill="white" stroke="#666666" points="298.12,-30.5 160.62,-30.5 160.62,0 298.12,0 298.12,-30.5"/>
<text xml:space="preserve" text-anchor="start" x="168.62" y="-17" font-family="Helvetica,sans-Serif" font-size="10.00">src/sensesp/net/web</text>
<text xml:space="preserve" text-anchor="middle" x="229.38" y="-5.75" font-family="Helvetica,sans-Serif" font-size="10.00">/app_command_handler.cpp</text>
</a>
</g>
</g>
<!-- Node6&#45;&gt;Node7 -->
<g id="edge7_Node000006_Node000007" class="edge">
<title>Node6&#45;&gt;Node7</title>
<g id="a_edge7_Node000006_Node000007"><a xlink:title=" ">
<path fill="none" stroke="#63b8ff" d="M565.73,-71.65C501.51,-61.9 397.19,-45.78 307.38,-30.5 304.39,-29.99 301.34,-29.47 298.26,-28.93"/>
<polygon fill="#63b8ff" stroke="#63b8ff" points="564.95,-75.07 575.36,-73.11 566,-68.15 564.95,-75.07"/>
</a>
</g>
</g>
<!-- Node8 -->
<g id="Node000008" class="node">
<title>Node8</title>
<g id="a_Node000008"><a xlink:href="wifi__provisioner_8cpp.html" target="_top" xlink:title=" ">
<polygon fill="white" stroke="#666666" points="420.25,-30.5 316.5,-30.5 316.5,0 420.25,0 420.25,-30.5"/>
<text xml:space="preserve" text-anchor="start" x="324.5" y="-17" font-family="Helvetica,sans-Serif" font-size="10.00">src/sensesp/net/wifi</text>
<text xml:space="preserve" text-anchor="middle" x="368.38" y="-5.75" font-family="Helvetica,sans-Serif" font-size="10.00">_provisioner.cpp</text>
</a>
</g>
</g>
<!-- Node6&#45;&gt;Node8 -->
<g id="edge9_Node000006_Node000008" class="edge">
<title>Node6&#45;&gt;Node8</title>
<g id="a_edge9_Node000006_Node000008"><a xlink:title=" ">
<path fill="none" stroke="#63b8ff" d="M579.07,-68.92C534.25,-57.72 467.08,-40.93 420.68,-29.33"/>
<polygon fill="#63b8ff" stroke="#63b8ff" points="577.94,-72.25 588.49,-71.28 579.64,-65.46 577.94,-72.25"/>
</a>
</g>
</g>
<!-- Node9 -->
<g id="Node000009" class="node">
<title>Node9</title>
<g id="a_Node000009"><a xlink:href="system__info_8cpp.html" target="_top" xlink:title=" ">
<polygon fill="white" stroke="#666666" points="544.75,-30.5 438,-30.5 438,0 544.75,0 544.75,-30.5"/>
<text xml:space="preserve" text-anchor="start" x="446" y="-17" font-family="Helvetica,sans-Serif" font-size="10.00">src/sensesp/sensors</text>
<text xml:space="preserve" text-anchor="middle" x="491.38" y="-5.75" font-family="Helvetica,sans-Serif" font-size="10.00">/system_info.cpp</text>
</a>
</g>
</g>
<!-- Node6&#45;&gt;Node9 -->
<g id="edge10_Node000006_Node000009" class="edge">
<title>Node6&#45;&gt;Node9</title>
<g id="a_edge10_Node000006_Node000009"><a xlink:title=" ">
<path fill="none" stroke="#63b8ff" d="M597.16,-66.79C574.98,-56.2 544.56,-41.66 522.04,-30.9"/>
<polygon fill="#63b8ff" stroke="#63b8ff" points="595.42,-69.84 605.95,-70.99 598.44,-63.52 595.42,-69.84"/>
</a>
</g>
</g>
<!-- Node10 -->
<g id="Node000010" class="node">
<title>Node10</title>
<g id="a_Node000010"><a xlink:href="signalk__delta__queue_8cpp.html" target="_top" xlink:title=" ">
<polygon fill="white" stroke="#666666" points="689.5,-30.5 563.25,-30.5 563.25,0 689.5,0 689.5,-30.5"/>
<text xml:space="preserve" text-anchor="start" x="571.25" y="-17" font-family="Helvetica,sans-Serif" font-size="10.00">src/sensesp/signalk</text>
<text xml:space="preserve" text-anchor="middle" x="626.38" y="-5.75" font-family="Helvetica,sans-Serif" font-size="10.00">/signalk_delta_queue.cpp</text>
</a>
</g>
</g>
<!-- Node6&#45;&gt;Node10 -->
<g id="edge11_Node000006_Node000010" class="edge">
<title>Node6&#45;&gt;Node10</title>
<g id="a_edge11_Node000006_Node000010"><a xlink:title=" ">
<path fill="none" stroke="#63b8ff" d="M626.38,-60.37C626.38,-50.69 626.38,-39.35 626.38,-30.59"/>
<polygon fill="#63b8ff" stroke="#63b8ff" points="622.88,-60.27 626.38,-70.27 629.88,-60.27 622.88,-60.27"/>
</a>
</g>
</g>
<!-- Node11 -->
<g id="Node000011" class="node">
<title>Node11</title>
<g id="a_Node000011"><a xlink:href="signalk__put__request_8cpp.html" target="_top" xlink:title=" ">
<polygon fill="white" stroke="#666666" points="832.75,-30.5 708,-30.5 708,0 832.75,0 832.75,-30.5"/>
<text xml:space="preserve" text-anchor="start" x="716" y="-17" font-family="Helvetica,sans-Serif" font-size="10.00">src/sensesp/signalk</text>
<text xml:space="preserve" text-anchor="middle" x="770.38" y="-5.75" font-family="Helvetica,sans-Serif" font-size="10.00">/signalk_put_request.cpp</text>
</a>
</g>
</g>
<!-- Node6&#45;&gt;Node11 -->
<g id="edge12_Node000006_Node000011" class="edge">
<title>Node6&#45;&gt;Node11</title>
<g id="a_edge12_Node000006_Node000011"><a xlink:title=" ">
<path fill="none" stroke="#63b8ff" d="M656.89,-67.08C680.6,-56.46 713.42,-41.76 737.67,-30.9"/>
<polygon fill="#63b8ff" stroke="#63b8ff" points="655.78,-63.74 648.08,-71.03 658.64,-70.13 655.78,-63.74"/>
</a>
</g>
</g>
<!-- Node12 -->
<g id="Node000012" class="node">
<title>Node12</title>
<g id="a_Node000012"><a xlink:href="signalk__ws__client_8cpp.html" target="_top" xlink:title=" ">
<polygon fill="white" stroke="#666666" points="965.88,-30.5 850.88,-30.5 850.88,0 965.88,0 965.88,-30.5"/>
<text xml:space="preserve" text-anchor="start" x="858.88" y="-17" font-family="Helvetica,sans-Serif" font-size="10.00">src/sensesp/signalk</text>
<text xml:space="preserve" text-anchor="middle" x="908.38" y="-5.75" font-family="Helvetica,sans-Serif" font-size="10.00">/signalk_ws_client.cpp</text>
</a>
</g>
</g>
<!-- Node6&#45;&gt;Node12 -->
<g id="edge13_Node000006_Node000012" class="edge">
<title>Node6&#45;&gt;Node12</title>
<g id="a_edge13_Node000006_Node000012"><a xlink:title=" ">
<path fill="none" stroke="#63b8ff" d="M677.4,-69.08C726.14,-57.93 799.51,-41.15 850.42,-29.5"/>
<polygon fill="#63b8ff" stroke="#63b8ff" points="676.62,-65.67 667.66,-71.31 678.18,-72.49 676.62,-65.67"/>
</a>
</g>
</g>
<!-- Node13 -->
<g id="Node000013" class="node">
<title>Node13</title>
<g id="a_Node000013"><a xlink:href="button_8cpp.html" target="_top" xlink:title=" ">
<polygon fill="white" stroke="#666666" points="1088.62,-30.5 984.12,-30.5 984.12,0 1088.62,0 1088.62,-30.5"/>
<text xml:space="preserve" text-anchor="start" x="992.12" y="-17" font-family="Helvetica,sans-Serif" font-size="10.00">src/sensesp/system</text>
<text xml:space="preserve" text-anchor="middle" x="1036.38" y="-5.75" font-family="Helvetica,sans-Serif" font-size="10.00">/button.cpp</text>
</a>
</g>
</g>
<!-- Node6&#45;&gt;Node13 -->
<g id="edge14_Node000006_Node000013" class="edge">
<title>Node6&#45;&gt;Node13</title>
<g id="a_edge14_Node000006_Node000013"><a xlink:title=" ">
<path fill="none" stroke="#63b8ff" d="M687.22,-73.61C757.07,-65.04 874.94,-49.42 975.38,-30.5 978.15,-29.98 981,-29.41 983.86,-28.82"/>
<polygon fill="#63b8ff" stroke="#63b8ff" points="687.02,-70.11 677.51,-74.79 687.86,-77.06 687.02,-70.11"/>
</a>
</g>
</g>
<!-- Node14 -->
<g id="Node000014" class="node">
<title>Node14</title>
<g id="a_Node000014"><a xlink:href="sensesp__app_8cpp.html" target="_top" xlink:title=" ">
<polygon fill="white" stroke="#666666" points="1215.88,-24.88 1106.88,-24.88 1106.88,-5.63 1215.88,-5.63 1215.88,-24.88"/>
<text xml:space="preserve" text-anchor="middle" x="1161.38" y="-11.38" font-family="Helvetica,sans-Serif" font-size="10.00">src/sensesp_app.cpp</text>
</a>
</g>
</g>
<!-- Node6&#45;&gt;Node14 -->
<g id="edge15_Node000006_Node000014" class="edge">
<title>Node6&#45;&gt;Node14</title>
<g id="a_edge15_Node000006_Node000014"><a xlink:title=" ">
<path fill="none" stroke="#63b8ff" d="M687.48,-76.44C777.59,-69.6 951.22,-54.49 1097.38,-30.5 1106.02,-29.08 1115.26,-27.23 1123.95,-25.33"/>
<polygon fill="#63b8ff" stroke="#63b8ff" points="687.34,-72.94 677.63,-77.18 687.87,-79.93 687.34,-72.94"/>
</a>
</g>
</g>
<!-- Node15 -->
<g id="Node000015" class="node">
<title>Node15</title>
<g id="a_Node000015"><a xlink:href="sensesp__app__builder_8h.html" target="_top" xlink:title=" ">
<polygon fill="white" stroke="#666666" points="1365.12,-24.88 1233.62,-24.88 1233.62,-5.63 1365.12,-5.63 1365.12,-24.88"/>
<text xml:space="preserve" text-anchor="middle" x="1299.38" y="-11.38" font-family="Helvetica,sans-Serif" font-size="10.00">src/sensesp_app_builder.h</text>
</a>
</g>
</g>
<!-- Node6&#45;&gt;Node15 -->
<g id="edge16_Node000006_Node000015" class="edge">
<title>Node6&#45;&gt;Node15</title>
<g id="a_edge16_Node000006_Node000015"><a xlink:title=" ">
<path fill="none" stroke="#63b8ff" d="M687.23,-77.79C795.74,-72.04 1029.62,-57.48 1225.38,-30.5 1235.48,-29.11 1246.3,-27.24 1256.46,-25.32"/>
<polygon fill="#63b8ff" stroke="#63b8ff" points="687.19,-74.29 677.39,-78.31 687.56,-81.28 687.19,-74.29"/>
</a>
</g>
</g>
</g>
</svg>
