<?xml version="1.0" encoding="UTF-8" standalone="no"?>
<!DOCTYPE svg PUBLIC "-//W3C//DTD SVG 1.1//EN"
 "http://www.w3.org/Graphics/SVG/1.1/DTD/svg11.dtd">
<!-- Generated by graphviz version 2.48.0 (20210717.1556)
 -->
<!-- Title: src/system/system_status_led.h Pages: 1 -->
<svg width="1113pt" height="229pt"
 viewBox="0.00 0.00 1112.50 229.00" xmlns="http://www.w3.org/2000/svg" xmlns:xlink="http://www.w3.org/1999/xlink">
<g id="graph0" class="graph" transform="scale(1 1) rotate(0) translate(4 225)">
<title>src/system/system_status_led.h</title>
<polygon fill="white" stroke="transparent" points="-4,4 -4,-225 1108.5,-225 1108.5,4 -4,4"/>
<!-- Node1 -->
<g id="node1" class="node">
<title>Node1</title>
<g id="a_node1"><a xlink:title=" ">
<polygon fill="#bfbfbf" stroke="black" points="400,-190.5 400,-220.5 531,-220.5 531,-190.5 400,-190.5"/>
<text text-anchor="start" x="408" y="-208.5" font-family="Helvetica,sans-Serif" font-size="10.00">src/system/system_status</text>
<text text-anchor="middle" x="465.5" y="-197.5" font-family="Helvetica,sans-Serif" font-size="10.00">_led.h</text>
</a>
</g>
</g>
<!-- Node2 -->
<g id="node2" class="node">
<title>Node2</title>
<g id="a_node2"><a xlink:href="sensesp__app_8cpp.html" target="_top" xlink:title=" ">
<polygon fill="white" stroke="black" points="0,-62 0,-81 111,-81 111,-62 0,-62"/>
<text text-anchor="middle" x="55.5" y="-69" font-family="Helvetica,sans-Serif" font-size="10.00">src/sensesp_app.cpp</text>
</a>
</g>
</g>
<!-- Node1&#45;&gt;Node2 -->
<g id="edge1" class="edge">
<title>Node1&#45;&gt;Node2</title>
<path fill="none" stroke="midnightblue" d="M412.42,-187.41C323.84,-158.89 149.02,-102.61 82.27,-81.12"/>
<polygon fill="midnightblue" stroke="midnightblue" points="411.42,-190.77 422.01,-190.5 413.56,-184.1 411.42,-190.77"/>
</g>
<!-- Node3 -->
<g id="node3" class="node">
<title>Node3</title>
<g id="a_node3"><a xlink:href="sensesp__app_8h.html" target="_top" xlink:title=" ">
<polygon fill="white" stroke="black" points="415.5,-129 415.5,-148 515.5,-148 515.5,-129 415.5,-129"/>
<text text-anchor="middle" x="465.5" y="-136" font-family="Helvetica,sans-Serif" font-size="10.00">src/sensesp_app.h</text>
</a>
</g>
</g>
<!-- Node1&#45;&gt;Node3 -->
<g id="edge2" class="edge">
<title>Node1&#45;&gt;Node3</title>
<path fill="none" stroke="midnightblue" d="M465.5,-180.25C465.5,-169.02 465.5,-156.38 465.5,-148.19"/>
<polygon fill="midnightblue" stroke="midnightblue" points="462,-180.4 465.5,-190.4 469,-180.4 462,-180.4"/>
</g>
<!-- Node13 -->
<g id="node13" class="node">
<title>Node13</title>
<g id="a_node13"><a xlink:href="system__status__led_8cpp.html" target="_top" xlink:title=" ">
<polygon fill="white" stroke="black" points="534,-123.5 534,-153.5 665,-153.5 665,-123.5 534,-123.5"/>
<text text-anchor="start" x="542" y="-141.5" font-family="Helvetica,sans-Serif" font-size="10.00">src/system/system_status</text>
<text text-anchor="middle" x="599.5" y="-130.5" font-family="Helvetica,sans-Serif" font-size="10.00">_led.cpp</text>
</a>
</g>
</g>
<!-- Node1&#45;&gt;Node13 -->
<g id="edge15" class="edge">
<title>Node1&#45;&gt;Node13</title>
<path fill="none" stroke="midnightblue" d="M503.65,-185.99C524.89,-175.69 550.91,-163.07 570.48,-153.58"/>
<polygon fill="midnightblue" stroke="midnightblue" points="502.05,-182.88 494.58,-190.4 505.1,-189.18 502.05,-182.88"/>
</g>
<!-- Node3&#45;&gt;Node2 -->
<g id="edge6" class="edge">
<title>Node3&#45;&gt;Node2</title>
<path fill="none" stroke="midnightblue" d="M405.12,-129.59C337.01,-120.42 223.02,-104.33 125.5,-87 115.48,-85.22 104.7,-83.09 94.67,-81.02"/>
<polygon fill="midnightblue" stroke="midnightblue" points="404.86,-133.08 415.24,-130.94 405.79,-126.15 404.86,-133.08"/>
</g>
<!-- Node4 -->
<g id="node4" class="node">
<title>Node4</title>
<g id="a_node4"><a xlink:href="main_8cpp.html" target="_top" xlink:title=" ">
<polygon fill="white" stroke="black" points="520,-0.5 520,-19.5 593,-19.5 593,-0.5 520,-0.5"/>
<text text-anchor="middle" x="556.5" y="-7.5" font-family="Helvetica,sans-Serif" font-size="10.00">src/main.cpp</text>
</a>
</g>
</g>
<!-- Node3&#45;&gt;Node4 -->
<g id="edge3" class="edge">
<title>Node3&#45;&gt;Node4</title>
<path fill="none" stroke="midnightblue" d="M404.74,-136.45C324.43,-133.64 189.45,-123.45 158.5,-87 149.58,-76.5 149.32,-66.28 158.5,-56 182.39,-29.26 426.12,-16.4 519.96,-12.41"/>
<polygon fill="midnightblue" stroke="midnightblue" points="405.11,-139.97 415.22,-136.79 405.33,-132.97 405.11,-139.97"/>
</g>
<!-- Node5 -->
<g id="node5" class="node">
<title>Node5</title>
<g id="a_node5"><a xlink:href="http_8cpp.html" target="_top" xlink:title=" ">
<polygon fill="white" stroke="black" points="168,-62 168,-81 253,-81 253,-62 168,-62"/>
<text text-anchor="middle" x="210.5" y="-69" font-family="Helvetica,sans-Serif" font-size="10.00">src/net/http.cpp</text>
</a>
</g>
</g>
<!-- Node3&#45;&gt;Node5 -->
<g id="edge4" class="edge">
<title>Node3&#45;&gt;Node5</title>
<path fill="none" stroke="midnightblue" d="M419.49,-126.59C378.07,-116.65 315.57,-101.38 261.5,-87 254.47,-85.13 246.92,-83.04 239.85,-81.03"/>
<polygon fill="midnightblue" stroke="midnightblue" points="418.75,-130.01 429.29,-128.93 420.38,-123.2 418.75,-130.01"/>
</g>
<!-- Node6 -->
<g id="node6" class="node">
<title>Node6</title>
<g id="a_node6"><a xlink:href="ws__client_8cpp.html" target="_top" xlink:title=" ">
<polygon fill="white" stroke="black" points="271,-62 271,-81 380,-81 380,-62 271,-62"/>
<text text-anchor="middle" x="325.5" y="-69" font-family="Helvetica,sans-Serif" font-size="10.00">src/net/ws_client.cpp</text>
</a>
</g>
</g>
<!-- Node3&#45;&gt;Node6 -->
<g id="edge5" class="edge">
<title>Node3&#45;&gt;Node6</title>
<path fill="none" stroke="midnightblue" d="M437.74,-124.61C410.01,-111.74 368.16,-92.31 344.17,-81.17"/>
<polygon fill="midnightblue" stroke="midnightblue" points="436.37,-127.83 446.91,-128.87 439.31,-121.48 436.37,-127.83"/>
</g>
<!-- Node7 -->
<g id="node7" class="node">
<title>Node7</title>
<g id="a_node7"><a xlink:href="sensesp__app__builder_8h.html" target="_top" xlink:title=" ">
<polygon fill="white" stroke="black" points="398,-62 398,-81 533,-81 533,-62 398,-62"/>
<text text-anchor="middle" x="465.5" y="-69" font-family="Helvetica,sans-Serif" font-size="10.00">src/sensesp_app_builder.h</text>
</a>
</g>
</g>
<!-- Node3&#45;&gt;Node7 -->
<g id="edge7" class="edge">
<title>Node3&#45;&gt;Node7</title>
<path fill="none" stroke="midnightblue" d="M465.5,-118.54C465.5,-106.17 465.5,-90.62 465.5,-81.13"/>
<polygon fill="midnightblue" stroke="midnightblue" points="462,-118.73 465.5,-128.73 469,-118.73 462,-118.73"/>
</g>
<!-- Node8 -->
<g id="node8" class="node">
<title>Node8</title>
<g id="a_node8"><a xlink:href="signalk__put__request_8cpp.html" target="_top" xlink:title=" ">
<polygon fill="white" stroke="black" points="551.5,-56.5 551.5,-86.5 649.5,-86.5 649.5,-56.5 551.5,-56.5"/>
<text text-anchor="start" x="559.5" y="-74.5" font-family="Helvetica,sans-Serif" font-size="10.00">src/signalk/signalk</text>
<text text-anchor="middle" x="600.5" y="-63.5" font-family="Helvetica,sans-Serif" font-size="10.00">_put_request.cpp</text>
</a>
</g>
</g>
<!-- Node3&#45;&gt;Node8 -->
<g id="edge8" class="edge">
<title>Node3&#45;&gt;Node8</title>
<path fill="none" stroke="midnightblue" d="M492.55,-124.47C515.38,-113.49 547.97,-97.79 571.36,-86.53"/>
<polygon fill="midnightblue" stroke="midnightblue" points="490.92,-121.38 483.43,-128.87 493.96,-127.68 490.92,-121.38"/>
</g>
<!-- Node9 -->
<g id="node9" class="node">
<title>Node9</title>
<g id="a_node9"><a xlink:href="enable_8cpp.html" target="_top" xlink:title=" ">
<polygon fill="white" stroke="black" points="667.5,-62 667.5,-81 783.5,-81 783.5,-62 667.5,-62"/>
<text text-anchor="middle" x="725.5" y="-69" font-family="Helvetica,sans-Serif" font-size="10.00">src/system/enable.cpp</text>
</a>
</g>
</g>
<!-- Node3&#45;&gt;Node9 -->
<g id="edge9" class="edge">
<title>Node3&#45;&gt;Node9</title>
<path fill="none" stroke="midnightblue" d="M509.56,-126.48C560.85,-113.66 644.46,-92.76 691.17,-81.08"/>
<polygon fill="midnightblue" stroke="midnightblue" points="508.61,-123.11 499.76,-128.94 510.31,-129.91 508.61,-123.11"/>
</g>
<!-- Node10 -->
<g id="node10" class="node">
<title>Node10</title>
<g id="a_node10"><a xlink:href="led__blinker_8cpp.html" target="_top" xlink:title=" ">
<polygon fill="white" stroke="black" points="801.5,-62 801.5,-81 935.5,-81 935.5,-62 801.5,-62"/>
<text text-anchor="middle" x="868.5" y="-69" font-family="Helvetica,sans-Serif" font-size="10.00">src/system/led_blinker.cpp</text>
</a>
</g>
</g>
<!-- Node3&#45;&gt;Node10 -->
<g id="edge10" class="edge">
<title>Node3&#45;&gt;Node10</title>
<path fill="none" stroke="midnightblue" d="M507.56,-126.58C513.23,-125.28 518.99,-124.04 524.5,-123 642.58,-100.63 673.87,-106.27 792.5,-87 803.37,-85.23 815.08,-83.11 825.97,-81.04"/>
<polygon fill="midnightblue" stroke="midnightblue" points="506.43,-123.25 497.51,-128.97 508.05,-130.06 506.43,-123.25"/>
</g>
<!-- Node11 -->
<g id="node11" class="node">
<title>Node11</title>
<g id="a_node11"><a xlink:href="wiring__helpers_8cpp.html" target="_top" xlink:title=" ">
<polygon fill="white" stroke="black" points="988.5,-0.5 988.5,-19.5 1104.5,-19.5 1104.5,-0.5 988.5,-0.5"/>
<text text-anchor="middle" x="1046.5" y="-7.5" font-family="Helvetica,sans-Serif" font-size="10.00">src/wiring_helpers.cpp</text>
</a>
</g>
</g>
<!-- Node3&#45;&gt;Node11 -->
<g id="edge11" class="edge">
<title>Node3&#45;&gt;Node11</title>
<path fill="none" stroke="midnightblue" d="M506.05,-126.55C512.19,-125.18 518.49,-123.93 524.5,-123 584.36,-113.74 1027.1,-131.23 1068.5,-87 1086.33,-67.95 1065.58,-35.31 1053.69,-19.75"/>
<polygon fill="midnightblue" stroke="midnightblue" points="504.84,-123.24 495.92,-128.95 506.45,-130.05 504.84,-123.24"/>
</g>
<!-- Node12 -->
<g id="node12" class="node">
<title>Node12</title>
<g id="a_node12"><a xlink:href="wiring__helpers_8h.html" target="_top" xlink:title=" ">
<polygon fill="white" stroke="black" points="954,-62 954,-81 1059,-81 1059,-62 954,-62"/>
<text text-anchor="middle" x="1006.5" y="-69" font-family="Helvetica,sans-Serif" font-size="10.00">src/wiring_helpers.h</text>
</a>
</g>
</g>
<!-- Node3&#45;&gt;Node12 -->
<g id="edge12" class="edge">
<title>Node3&#45;&gt;Node12</title>
<path fill="none" stroke="midnightblue" d="M506.27,-126.61C512.35,-125.24 518.57,-123.98 524.5,-123 709.36,-92.55 759.47,-116.41 944.5,-87 954.11,-85.47 964.44,-83.28 973.85,-81.06"/>
<polygon fill="midnightblue" stroke="midnightblue" points="505.16,-123.27 496.24,-128.99 506.78,-130.09 505.16,-123.27"/>
</g>
<!-- Node12&#45;&gt;Node4 -->
<g id="edge13" class="edge">
<title>Node12&#45;&gt;Node4</title>
<path fill="none" stroke="midnightblue" d="M963.42,-59.76C957.1,-58.38 950.65,-57.07 944.5,-56 816.23,-33.64 662.12,-19.51 593.08,-13.84"/>
<polygon fill="midnightblue" stroke="midnightblue" points="962.65,-63.17 973.18,-61.97 964.2,-56.35 962.65,-63.17"/>
</g>
<!-- Node12&#45;&gt;Node11 -->
<g id="edge14" class="edge">
<title>Node12&#45;&gt;Node11</title>
<path fill="none" stroke="midnightblue" d="M1017.93,-53.51C1025.4,-42.39 1034.84,-28.34 1040.78,-19.51"/>
<polygon fill="midnightblue" stroke="midnightblue" points="1014.91,-51.72 1012.23,-61.98 1020.71,-55.63 1014.91,-51.72"/>
</g>
</g>
</svg>
