<?xml version="1.0" encoding="UTF-8" standalone="no"?>
<!DOCTYPE svg PUBLIC "-//W3C//DTD SVG 1.1//EN"
 "http://www.w3.org/Graphics/SVG/1.1/DTD/svg11.dtd">
<!-- Generated by graphviz version 2.40.1 (20161225.0304)
 -->
<!-- Title: src/system/system_status_led.cpp Pages: 1 -->
<!--zoomable 487 -->
<svg id="main" version="1.1" xmlns="http://www.w3.org/2000/svg" xmlns:xlink="http://www.w3.org/1999/xlink" xml:space="preserve" onload="init(evt)">
<style type="text/css"><![CDATA[
.edge:hover path { stroke: red; }
.edge:hover polygon { stroke: red; fill: red; }
]]></style>
<script type="text/javascript"><![CDATA[
var edges = document.getElementsByTagName('g');
if (edges && edges.length) {
  for (var i=0;i<edges.length;i++) {
    if (edges[i].id.substr(0,4)=='edge') {
      edges[i].setAttribute('class','edge');
    }
  }
}
]]></script>
        <defs>
                <circle id="rim" cx="0" cy="0" r="7"/>
                <circle id="rim2" cx="0" cy="0" r="3.5"/>
                <g id="zoomPlus">
                        <use xlink:href="#rim" fill="#404040">
                                <set attributeName="fill" to="#808080" begin="zoomplus.mouseover" end="zoomplus.mouseout"/>
                        </use>
                        <path d="M-4,0h8M0,-4v8" fill="none" stroke="white" stroke-width="1.5" pointer-events="none"/>
                </g>
                <g id="zoomMin">
                        <use xlink:href="#rim" fill="#404040">
                                <set attributeName="fill" to="#808080" begin="zoomminus.mouseover" end="zoomminus.mouseout"/>
                        </use>
                        <path d="M-4,0h8" fill="none" stroke="white" stroke-width="1.5" pointer-events="none"/>
                </g>
                <g id="dirArrow">
                        <path fill="none" stroke="white" stroke-width="1.5" d="M0,-3.0v7 M-2.5,-0.5L0,-3.0L2.5,-0.5"/>
                </g>
               <g id="resetDef">
                       <use xlink:href="#rim2" fill="#404040">
                               <set attributeName="fill" to="#808080" begin="reset.mouseover" end="reset.mouseout"/>
                       </use>
               </g>
        </defs>

<script type="text/javascript">
var viewWidth = 1343;
var viewHeight = 487;
var sectionId = 'dynsection-0';
</script>
<script xlink:href="svgpan.js"/>
<svg id="graph" class="graph">
<g id="viewport">
<title>src/system/system_status_led.cpp</title>
<polygon fill="#ffffff" stroke="transparent" points="-4,4 -4,-483 1338.6834,-483 1338.6834,4 -4,4"/>
<!-- Node0 -->
<g id="node1" class="node">
<title>Node0</title>
<g id="a_node1"><a xlink:title=" ">
<polygon fill="#bfbfbf" stroke="#000000" points="867.1961,-450.5 867.1961,-478.5 997.6639,-478.5 997.6639,-450.5 867.1961,-450.5"/>
<text text-anchor="start" x="875.1961" y="-466.5" font-family="Helvetica,sans-Serif" font-size="10.00" fill="#000000">src/system/system_status</text>
<text text-anchor="middle" x="932.43" y="-456.5" font-family="Helvetica,sans-Serif" font-size="10.00" fill="#000000">_led.cpp</text>
</a>
</g>
</g>
<!-- Node1 -->
<g id="node2" class="node">
<title>Node1</title>
<g id="a_node2"><a xlink:href="system__status__led_8h.html" target="_top" xlink:title=" ">
<polygon fill="#ffffff" stroke="#000000" points="878.8514,-395.5 878.8514,-413.5 986.0086,-413.5 986.0086,-395.5 878.8514,-395.5"/>
<text text-anchor="middle" x="932.43" y="-401.5" font-family="Helvetica,sans-Serif" font-size="10.00" fill="#000000">system_status_led.h</text>
</a>
</g>
</g>
<!-- Node0&#45;&gt;Node1 -->
<g id="edge1" class="edge">
<title>Node0&#45;&gt;Node1</title>
<path fill="none" stroke="#191970" d="M932.43,-450.2808C932.43,-442.3776 932.43,-432.4316 932.43,-423.8308"/>
<polygon fill="#191970" stroke="#191970" points="935.9301,-423.5842 932.43,-413.5842 928.9301,-423.5842 935.9301,-423.5842"/>
</g>
<!-- Node2 -->
<g id="node3" class="node">
<title>Node2</title>
<g id="a_node3"><a xlink:href="system__status__controller_8h.html" target="_top" xlink:title=" ">
<polygon fill="#ffffff" stroke="#000000" points="619.0682,-330.5 619.0682,-358.5 721.7918,-358.5 721.7918,-330.5 619.0682,-330.5"/>
<text text-anchor="start" x="627.0682" y="-346.5" font-family="Helvetica,sans-Serif" font-size="10.00" fill="#000000">controllers/system</text>
<text text-anchor="middle" x="670.43" y="-336.5" font-family="Helvetica,sans-Serif" font-size="10.00" fill="#000000">_status_controller.h</text>
</a>
</g>
</g>
<!-- Node1&#45;&gt;Node2 -->
<g id="edge2" class="edge">
<title>Node1&#45;&gt;Node2</title>
<path fill="none" stroke="#191970" d="M892.9223,-395.4524C850.2594,-385.6823 781.7379,-369.9904 731.9985,-358.5997"/>
<polygon fill="#191970" stroke="#191970" points="732.5293,-355.1307 722.0004,-356.31 730.9667,-361.9541 732.5293,-355.1307"/>
</g>
<!-- Node26 -->
<g id="node27" class="node">
<title>Node26</title>
<g id="a_node27"><a xlink:href="led__blinker_8h.html" target="_top" xlink:title=" ">
<polygon fill="#ffffff" stroke="#000000" points="896.3514,-335.5 896.3514,-353.5 968.5086,-353.5 968.5086,-335.5 896.3514,-335.5"/>
<text text-anchor="middle" x="932.43" y="-341.5" font-family="Helvetica,sans-Serif" font-size="10.00" fill="#000000">led_blinker.h</text>
</a>
</g>
</g>
<!-- Node1&#45;&gt;Node26 -->
<g id="edge38" class="edge">
<title>Node1&#45;&gt;Node26</title>
<path fill="none" stroke="#191970" d="M932.43,-395.3873C932.43,-387.0174 932.43,-374.3414 932.43,-363.735"/>
<polygon fill="#191970" stroke="#191970" points="935.9301,-363.6984 932.43,-353.6985 928.9301,-363.6985 935.9301,-363.6984"/>
</g>
<!-- Node29 -->
<g id="node30" class="node">
<title>Node29</title>
<g id="a_node30"><a xlink:href="lambda__consumer_8h.html" target="_top" xlink:title=" ">
<polygon fill="#ffffff" stroke="#000000" points="1194.1766,-275.5 1194.1766,-293.5 1334.6834,-293.5 1334.6834,-275.5 1194.1766,-275.5"/>
<text text-anchor="middle" x="1264.43" y="-281.5" font-family="Helvetica,sans-Serif" font-size="10.00" fill="#000000">system/lambda_consumer.h</text>
</a>
</g>
</g>
<!-- Node1&#45;&gt;Node29 -->
<g id="edge46" class="edge">
<title>Node1&#45;&gt;Node29</title>
<path fill="none" stroke="#191970" d="M957.3839,-395.4805C1015.9067,-374.3277 1162.1144,-321.4815 1229.4608,-297.1395"/>
<polygon fill="#191970" stroke="#191970" points="1230.9717,-300.315 1239.1865,-293.6242 1228.5922,-293.7319 1230.9717,-300.315"/>
</g>
<!-- Node3 -->
<g id="node4" class="node">
<title>Node3</title>
<g id="a_node4"><a xlink:href="networking_8h.html" target="_top" xlink:title=" ">
<polygon fill="#ffffff" stroke="#000000" points="357.7405,-275.5 357.7405,-293.5 447.1194,-293.5 447.1194,-275.5 357.7405,-275.5"/>
<text text-anchor="middle" x="402.43" y="-281.5" font-family="Helvetica,sans-Serif" font-size="10.00" fill="#000000">net/networking.h</text>
</a>
</g>
</g>
<!-- Node2&#45;&gt;Node3 -->
<g id="edge3" class="edge">
<title>Node2&#45;&gt;Node3</title>
<path fill="none" stroke="#191970" d="M618.7569,-332.9314C571.0016,-322.2399 500.4699,-306.4492 453.0524,-295.8334"/>
<polygon fill="#191970" stroke="#191970" points="453.5291,-292.3535 443.006,-293.5842 451.9998,-299.1844 453.5291,-292.3535"/>
</g>
<!-- Node15 -->
<g id="node16" class="node">
<title>Node15</title>
<g id="a_node16"><a xlink:href="valueproducer_8h.html" target="_top" xlink:title=" ">
<polygon fill="#ffffff" stroke="#000000" points="592.8465,-165.5 592.8465,-183.5 680.0135,-183.5 680.0135,-165.5 592.8465,-165.5"/>
<text text-anchor="middle" x="636.43" y="-171.5" font-family="Helvetica,sans-Serif" font-size="10.00" fill="#000000">valueproducer.h</text>
</a>
</g>
</g>
<!-- Node2&#45;&gt;Node15 -->
<g id="edge37" class="edge">
<title>Node2&#45;&gt;Node15</title>
<path fill="none" stroke="#191970" d="M667.5896,-330.2983C661.5099,-299.8994 647.2282,-228.4909 640.3149,-193.9244"/>
<polygon fill="#191970" stroke="#191970" points="643.6686,-192.846 638.2753,-183.7266 636.8045,-194.2189 643.6686,-192.846"/>
</g>
<!-- Node21 -->
<g id="node22" class="node">
<title>Node21</title>
<g id="a_node22"><a xlink:href="ws__client_8h.html" target="_top" xlink:title=" ">
<polygon fill="#ffffff" stroke="#000000" points="707.3563,-275.5 707.3563,-293.5 789.5037,-293.5 789.5037,-275.5 707.3563,-275.5"/>
<text text-anchor="middle" x="748.43" y="-281.5" font-family="Helvetica,sans-Serif" font-size="10.00" fill="#000000">net/ws_client.h</text>
</a>
</g>
</g>
<!-- Node2&#45;&gt;Node21 -->
<g id="edge26" class="edge">
<title>Node2&#45;&gt;Node21</title>
<path fill="none" stroke="#191970" d="M688.9149,-330.2808C700.8053,-321.1344 716.2524,-309.252 728.4294,-299.8851"/>
<polygon fill="#191970" stroke="#191970" points="730.8283,-302.4555 736.6205,-293.5842 726.5603,-296.9071 730.8283,-302.4555"/>
</g>
<!-- Node4 -->
<g id="node5" class="node">
<title>Node4</title>
<g id="a_node5"><a xlink:title=" ">
<polygon fill="#ffffff" stroke="#bfbfbf" points="112.0262,-165.5 112.0262,-183.5 170.8338,-183.5 170.8338,-165.5 112.0262,-165.5"/>
<text text-anchor="middle" x="141.43" y="-171.5" font-family="Helvetica,sans-Serif" font-size="10.00" fill="#000000">Arduino.h</text>
</a>
</g>
</g>
<!-- Node3&#45;&gt;Node4 -->
<g id="edge4" class="edge">
<title>Node3&#45;&gt;Node4</title>
<path fill="none" stroke="#191970" d="M357.6619,-282.6365C259.1376,-278.0761 30.4256,-264.7965 7.43,-239 -22.8042,-205.0832 51.8528,-187.3171 101.4775,-179.5245"/>
<polygon fill="#191970" stroke="#191970" points="102.2649,-182.9459 111.6401,-178.0108 101.2336,-176.0223 102.2649,-182.9459"/>
</g>
<!-- Node5 -->
<g id="node6" class="node">
<title>Node5</title>
<g id="a_node6"><a xlink:title=" ">
<polygon fill="#ffffff" stroke="#bfbfbf" points="164.3621,-220.5 164.3621,-238.5 284.4979,-238.5 284.4979,-220.5 164.3621,-220.5"/>
<text text-anchor="middle" x="224.43" y="-226.5" font-family="Helvetica,sans-Serif" font-size="10.00" fill="#000000">ESPAsyncWebServer.h</text>
</a>
</g>
</g>
<!-- Node3&#45;&gt;Node5 -->
<g id="edge5" class="edge">
<title>Node3&#45;&gt;Node5</title>
<path fill="none" stroke="#191970" d="M373.0369,-275.4179C343.0588,-266.155 296.3823,-251.7325 263.3505,-241.526"/>
<polygon fill="#191970" stroke="#191970" points="264.1585,-238.1124 253.5709,-238.5042 262.0919,-244.8005 264.1585,-238.1124"/>
</g>
<!-- Node6 -->
<g id="node7" class="node">
<title>Node6</title>
<g id="a_node7"><a xlink:title=" ">
<polygon fill="#ffffff" stroke="#bfbfbf" points="16.5525,-220.5 16.5525,-238.5 146.3074,-238.5 146.3074,-220.5 16.5525,-220.5"/>
<text text-anchor="middle" x="81.43" y="-226.5" font-family="Helvetica,sans-Serif" font-size="10.00" fill="#000000">ESPAsyncWiFiManager.h</text>
</a>
</g>
</g>
<!-- Node3&#45;&gt;Node6 -->
<g id="edge6" class="edge">
<title>Node3&#45;&gt;Node6</title>
<path fill="none" stroke="#191970" d="M357.4583,-276.7946C301.8863,-267.2729 207.0054,-251.016 144.2593,-240.2652"/>
<polygon fill="#191970" stroke="#191970" points="144.5387,-236.7621 134.0912,-238.5229 143.3564,-243.6615 144.5387,-236.7621"/>
</g>
<!-- Node7 -->
<g id="node8" class="node">
<title>Node7</title>
<g id="a_node8"><a xlink:href="configurable_8h.html" target="_top" xlink:title=" ">
<polygon fill="#ffffff" stroke="#000000" points="302.7947,-220.5 302.7947,-238.5 416.0652,-238.5 416.0652,-220.5 302.7947,-220.5"/>
<text text-anchor="middle" x="359.43" y="-226.5" font-family="Helvetica,sans-Serif" font-size="10.00" fill="#000000">system/configurable.h</text>
</a>
</g>
</g>
<!-- Node3&#45;&gt;Node7 -->
<g id="edge7" class="edge">
<title>Node3&#45;&gt;Node7</title>
<path fill="none" stroke="#191970" d="M395.3294,-275.4179C389.266,-267.6624 380.3749,-256.29 372.9582,-246.8035"/>
<polygon fill="#191970" stroke="#191970" points="375.6014,-244.5018 366.6848,-238.7795 370.0868,-248.8133 375.6014,-244.5018"/>
</g>
<!-- Node10 -->
<g id="node11" class="node">
<title>Node10</title>
<g id="a_node11"><a xlink:href="observablevalue_8h.html" target="_top" xlink:title=" ">
<polygon fill="#ffffff" stroke="#000000" points="472.6224,-220.5 472.6224,-238.5 604.2376,-238.5 604.2376,-220.5 472.6224,-220.5"/>
<text text-anchor="middle" x="538.43" y="-226.5" font-family="Helvetica,sans-Serif" font-size="10.00" fill="#000000">system/observablevalue.h</text>
</a>
</g>
</g>
<!-- Node3&#45;&gt;Node10 -->
<g id="edge11" class="edge">
<title>Node3&#45;&gt;Node10</title>
<path fill="none" stroke="#191970" d="M424.8876,-275.4179C447.1333,-266.4215 481.4137,-252.5581 506.4894,-242.4172"/>
<polygon fill="#191970" stroke="#191970" points="507.9806,-245.5895 515.939,-238.5956 505.3562,-239.1001 507.9806,-245.5895"/>
</g>
<!-- Node3&#45;&gt;Node15 -->
<g id="edge25" class="edge">
<title>Node3&#45;&gt;Node15</title>
<path fill="none" stroke="#191970" d="M408.4028,-275.4962C418.1961,-261.457 439.0368,-234.4643 463.43,-220 483.5234,-208.0853 539.7442,-194.4612 582.6926,-185.2514"/>
<polygon fill="#191970" stroke="#191970" points="583.6821,-188.6195 592.7406,-183.1246 582.2326,-181.7713 583.6821,-188.6195"/>
</g>
<!-- Node7&#45;&gt;Node4 -->
<g id="edge10" class="edge">
<title>Node7&#45;&gt;Node4</title>
<path fill="none" stroke="#191970" d="M323.4317,-220.4179C284.0772,-210.489 221.2253,-194.6319 180.6437,-184.3934"/>
<polygon fill="#191970" stroke="#191970" points="181.3864,-180.9711 170.834,-181.9184 179.6739,-187.7585 181.3864,-180.9711"/>
</g>
<!-- Node8 -->
<g id="node9" class="node">
<title>Node8</title>
<g id="a_node9"><a xlink:title=" ">
<polygon fill="#ffffff" stroke="#bfbfbf" points="782.4647,-55.5 782.4647,-73.5 862.3953,-73.5 862.3953,-55.5 782.4647,-55.5"/>
<text text-anchor="middle" x="822.43" y="-61.5" font-family="Helvetica,sans-Serif" font-size="10.00" fill="#000000">ArduinoJson.h</text>
</a>
</g>
</g>
<!-- Node7&#45;&gt;Node8 -->
<g id="edge8" class="edge">
<title>Node7&#45;&gt;Node8</title>
<path fill="none" stroke="#191970" d="M393.8757,-220.3731C453.4786,-204.2296 579.3612,-168.5845 682.43,-129 722.6548,-113.5513 767.6634,-92.0198 795.5252,-78.1689"/>
<polygon fill="#191970" stroke="#191970" points="797.2531,-81.218 804.6292,-73.6125 794.1202,-74.9582 797.2531,-81.218"/>
</g>
<!-- Node9 -->
<g id="node10" class="node">
<title>Node9</title>
<g id="a_node10"><a xlink:title=" ">
<polygon fill="#ffffff" stroke="#bfbfbf" points="341.7034,-165.5 341.7034,-183.5 377.1565,-183.5 377.1565,-165.5 341.7034,-165.5"/>
<text text-anchor="middle" x="359.43" y="-171.5" font-family="Helvetica,sans-Serif" font-size="10.00" fill="#000000">map</text>
</a>
</g>
</g>
<!-- Node7&#45;&gt;Node9 -->
<g id="edge9" class="edge">
<title>Node7&#45;&gt;Node9</title>
<path fill="none" stroke="#191970" d="M359.43,-220.4179C359.43,-213.2164 359.43,-202.8962 359.43,-193.8632"/>
<polygon fill="#191970" stroke="#191970" points="362.9301,-193.7794 359.43,-183.7795 355.9301,-193.7795 362.9301,-193.7794"/>
</g>
<!-- Node11 -->
<g id="node12" class="node">
<title>Node11</title>
<g id="a_node12"><a xlink:href="observable_8h.html" target="_top" xlink:title=" ">
<polygon fill="#ffffff" stroke="#000000" points="599.7996,-110.5 599.7996,-128.5 673.0604,-128.5 673.0604,-110.5 599.7996,-110.5"/>
<text text-anchor="middle" x="636.43" y="-116.5" font-family="Helvetica,sans-Serif" font-size="10.00" fill="#000000">observable.h</text>
</a>
</g>
</g>
<!-- Node10&#45;&gt;Node11 -->
<g id="edge12" class="edge">
<title>Node10&#45;&gt;Node11</title>
<path fill="none" stroke="#191970" d="M543.8765,-220.2053C551.7397,-207.167 567.1271,-183.0248 583.43,-165 593.2171,-154.1792 605.5111,-143.4796 615.794,-135.1773"/>
<polygon fill="#191970" stroke="#191970" points="618.1744,-137.7576 623.8595,-128.8172 613.8399,-132.261 618.1744,-137.7576"/>
</g>
<!-- Node10&#45;&gt;Node15 -->
<g id="edge16" class="edge">
<title>Node10&#45;&gt;Node15</title>
<path fill="none" stroke="#191970" d="M554.6127,-220.4179C570.0752,-211.7399 593.6068,-198.5334 611.4708,-188.5077"/>
<polygon fill="#191970" stroke="#191970" points="613.2157,-191.542 620.2232,-183.5956 609.7897,-185.4377 613.2157,-191.542"/>
</g>
<!-- Node12 -->
<g id="node13" class="node">
<title>Node12</title>
<g id="a_node13"><a xlink:title=" ">
<polygon fill="#ffffff" stroke="#bfbfbf" points="530.866,-55.5 530.866,-73.5 597.9939,-73.5 597.9939,-55.5 530.866,-55.5"/>
<text text-anchor="middle" x="564.43" y="-61.5" font-family="Helvetica,sans-Serif" font-size="10.00" fill="#000000">forward_list</text>
</a>
</g>
</g>
<!-- Node11&#45;&gt;Node12 -->
<g id="edge13" class="edge">
<title>Node11&#45;&gt;Node12</title>
<path fill="none" stroke="#191970" d="M624.5406,-110.4179C613.7664,-102.1876 597.6598,-89.8839 584.8303,-80.0836"/>
<polygon fill="#191970" stroke="#191970" points="586.649,-77.0685 576.5776,-73.7795 582.3997,-82.6313 586.649,-77.0685"/>
</g>
<!-- Node13 -->
<g id="node14" class="node">
<title>Node13</title>
<g id="a_node14"><a xlink:title=" ">
<polygon fill="#ffffff" stroke="#bfbfbf" points="678.0262,-55.5 678.0262,-73.5 736.8338,-73.5 736.8338,-55.5 678.0262,-55.5"/>
<text text-anchor="middle" x="707.43" y="-61.5" font-family="Helvetica,sans-Serif" font-size="10.00" fill="#000000">functional</text>
</a>
</g>
</g>
<!-- Node11&#45;&gt;Node13 -->
<g id="edge14" class="edge">
<title>Node11&#45;&gt;Node13</title>
<path fill="none" stroke="#191970" d="M648.1542,-110.4179C658.7788,-102.1876 674.6617,-89.8839 687.313,-80.0836"/>
<polygon fill="#191970" stroke="#191970" points="689.6889,-82.6704 695.451,-73.7795 685.4021,-77.1365 689.6889,-82.6704"/>
</g>
<!-- Node14 -->
<g id="node15" class="node">
<title>Node14</title>
<g id="a_node15"><a xlink:title=" ">
<polygon fill="#ffffff" stroke="#bfbfbf" points="615.8143,-55.5 615.8143,-73.5 659.0457,-73.5 659.0457,-55.5 615.8143,-55.5"/>
<text text-anchor="middle" x="637.43" y="-61.5" font-family="Helvetica,sans-Serif" font-size="10.00" fill="#000000">vector</text>
</a>
</g>
</g>
<!-- Node11&#45;&gt;Node14 -->
<g id="edge15" class="edge">
<title>Node11&#45;&gt;Node14</title>
<path fill="none" stroke="#191970" d="M636.5951,-110.4179C636.7261,-103.2164 636.9137,-92.8962 637.0779,-83.8632"/>
<polygon fill="#191970" stroke="#191970" points="640.5788,-83.8415 637.2613,-73.7795 633.58,-83.7141 640.5788,-83.8415"/>
</g>
<!-- Node15&#45;&gt;Node8 -->
<g id="edge17" class="edge">
<title>Node15&#45;&gt;Node8</title>
<path fill="none" stroke="#191970" d="M673.3871,-165.4728C698.9029,-158.1642 732.8838,-146.2308 759.43,-129 779.219,-116.1551 797.5438,-96.0779 809.2691,-81.7367"/>
<polygon fill="#191970" stroke="#191970" points="812.1995,-83.6744 815.6711,-73.6644 806.7149,-79.3247 812.1995,-83.6744"/>
</g>
<!-- Node15&#45;&gt;Node11 -->
<g id="edge18" class="edge">
<title>Node15&#45;&gt;Node11</title>
<path fill="none" stroke="#191970" d="M636.43,-165.4179C636.43,-158.2164 636.43,-147.8962 636.43,-138.8632"/>
<polygon fill="#191970" stroke="#191970" points="639.9301,-138.7794 636.43,-128.7795 632.9301,-138.7795 639.9301,-138.7794"/>
</g>
<!-- Node16 -->
<g id="node17" class="node">
<title>Node16</title>
<g id="a_node17"><a xlink:href="valueconsumer_8h.html" target="_top" xlink:title=" ">
<polygon fill="#ffffff" stroke="#000000" points="932.6272,-110.5 932.6272,-128.5 1024.2327,-128.5 1024.2327,-110.5 932.6272,-110.5"/>
<text text-anchor="middle" x="978.43" y="-116.5" font-family="Helvetica,sans-Serif" font-size="10.00" fill="#000000">valueconsumer.h</text>
</a>
</g>
</g>
<!-- Node15&#45;&gt;Node16 -->
<g id="edge19" class="edge">
<title>Node15&#45;&gt;Node16</title>
<path fill="none" stroke="#191970" d="M680.0919,-167.4783C741.8395,-157.5482 854.6924,-139.3993 922.5025,-128.4942"/>
<polygon fill="#191970" stroke="#191970" points="923.259,-131.9176 932.5764,-126.8741 922.1475,-125.0064 923.259,-131.9176"/>
</g>
<!-- Node16&#45;&gt;Node8 -->
<g id="edge20" class="edge">
<title>Node16&#45;&gt;Node8</title>
<path fill="none" stroke="#191970" d="M952.6698,-110.4179C926.7366,-101.2748 886.5448,-87.1046 857.6691,-76.924"/>
<polygon fill="#191970" stroke="#191970" points="858.564,-73.5285 847.9692,-73.5042 856.2364,-80.1302 858.564,-73.5285"/>
</g>
<!-- Node17 -->
<g id="node18" class="node">
<title>Node17</title>
<g id="a_node18"><a xlink:title=" ">
<polygon fill="#ffffff" stroke="#bfbfbf" points="1028.3094,-55.5 1028.3094,-73.5 1076.5506,-73.5 1076.5506,-55.5 1028.3094,-55.5"/>
<text text-anchor="middle" x="1052.43" y="-61.5" font-family="Helvetica,sans-Serif" font-size="10.00" fill="#000000">stdint.h</text>
</a>
</g>
</g>
<!-- Node16&#45;&gt;Node17 -->
<g id="edge21" class="edge">
<title>Node16&#45;&gt;Node17</title>
<path fill="none" stroke="#191970" d="M990.6496,-110.4179C1001.8969,-102.0584 1018.7982,-89.4966 1032.0815,-79.6239"/>
<polygon fill="#191970" stroke="#191970" points="1034.2541,-82.37 1040.1922,-73.5956 1030.0784,-76.7518 1034.2541,-82.37"/>
</g>
<!-- Node18 -->
<g id="node19" class="node">
<title>Node18</title>
<g id="a_node19"><a xlink:href="sensesp_8h.html" target="_top" xlink:title=" ">
<polygon fill="#ffffff" stroke="#000000" points="948.637,-55.5 948.637,-73.5 1010.223,-73.5 1010.223,-55.5 948.637,-55.5"/>
<text text-anchor="middle" x="979.43" y="-61.5" font-family="Helvetica,sans-Serif" font-size="10.00" fill="#000000">sensesp.h</text>
</a>
</g>
</g>
<!-- Node16&#45;&gt;Node18 -->
<g id="edge22" class="edge">
<title>Node16&#45;&gt;Node18</title>
<path fill="none" stroke="#191970" d="M978.5951,-110.4179C978.7261,-103.2164 978.9137,-92.8962 979.0779,-83.8632"/>
<polygon fill="#191970" stroke="#191970" points="982.5788,-83.8415 979.2613,-73.7795 975.58,-83.7141 982.5788,-83.8415"/>
</g>
<!-- Node19 -->
<g id="node20" class="node">
<title>Node19</title>
<g id="a_node20"><a xlink:title=" ">
<polygon fill="#ffffff" stroke="#bfbfbf" points="1086.8382,-.5 1086.8382,-18.5 1156.0218,-18.5 1156.0218,-.5 1086.8382,-.5"/>
<text text-anchor="middle" x="1121.43" y="-6.5" font-family="Helvetica,sans-Serif" font-size="10.00" fill="#000000">ReactESP.h</text>
</a>
</g>
</g>
<!-- Node18&#45;&gt;Node19 -->
<g id="edge23" class="edge">
<title>Node18&#45;&gt;Node19</title>
<path fill="none" stroke="#191970" d="M1002.8784,-55.4179C1026.2082,-46.3817 1062.2153,-32.4353 1088.4272,-22.2828"/>
<polygon fill="#191970" stroke="#191970" points="1089.8859,-25.4712 1097.9467,-18.5956 1087.3576,-18.9437 1089.8859,-25.4712"/>
</g>
<!-- Node20 -->
<g id="node21" class="node">
<title>Node20</title>
<g id="a_node21"><a xlink:title=" ">
<polygon fill="#ffffff" stroke="#bfbfbf" points="935.0189,-.5 935.0189,-18.5 1023.8411,-18.5 1023.8411,-.5 935.0189,-.5"/>
<text text-anchor="middle" x="979.43" y="-6.5" font-family="Helvetica,sans-Serif" font-size="10.00" fill="#000000">RemoteDebug.h</text>
</a>
</g>
</g>
<!-- Node18&#45;&gt;Node20 -->
<g id="edge24" class="edge">
<title>Node18&#45;&gt;Node20</title>
<path fill="none" stroke="#191970" d="M979.43,-55.4179C979.43,-48.2164 979.43,-37.8962 979.43,-28.8632"/>
<polygon fill="#191970" stroke="#191970" points="982.9301,-28.7794 979.43,-18.7795 975.9301,-28.7795 982.9301,-28.7794"/>
</g>
<!-- Node21&#45;&gt;Node7 -->
<g id="edge34" class="edge">
<title>Node21&#45;&gt;Node7</title>
<path fill="none" stroke="#191970" d="M707.1684,-278.6661C640.1319,-269.1879 506.9561,-250.3584 426.2723,-238.9507"/>
<polygon fill="#191970" stroke="#191970" points="426.6087,-235.4635 416.2171,-237.529 425.6286,-242.3946 426.6087,-235.4635"/>
</g>
<!-- Node21&#45;&gt;Node10 -->
<g id="edge35" class="edge">
<title>Node21&#45;&gt;Node10</title>
<path fill="none" stroke="#191970" d="M713.7528,-275.4179C677.928,-266.0352 621.8901,-251.3586 582.8438,-241.1322"/>
<polygon fill="#191970" stroke="#191970" points="583.3702,-237.6521 572.8097,-238.5042 581.5966,-244.4237 583.3702,-237.6521"/>
</g>
<!-- Node21&#45;&gt;Node13 -->
<g id="edge28" class="edge">
<title>Node21&#45;&gt;Node13</title>
<path fill="none" stroke="#191970" d="M743.1847,-275.4207C738.2696,-266.4657 731.1397,-252.2361 727.43,-239 712.1118,-184.3453 708.4958,-116.9141 707.6631,-84.1817"/>
<polygon fill="#191970" stroke="#191970" points="711.1549,-83.7121 707.4656,-73.7803 704.1561,-83.845 711.1549,-83.7121"/>
</g>
<!-- Node21&#45;&gt;Node15 -->
<g id="edge36" class="edge">
<title>Node21&#45;&gt;Node15</title>
<path fill="none" stroke="#191970" d="M736.4373,-275.1856C725.2159,-266.2892 708.169,-252.3035 694.43,-239 678.6329,-223.7037 661.9874,-204.8731 650.6005,-191.5162"/>
<polygon fill="#191970" stroke="#191970" points="653.0628,-189.007 643.9388,-183.6214 647.7129,-193.5213 653.0628,-189.007"/>
</g>
<!-- Node21&#45;&gt;Node18 -->
<g id="edge30" class="edge">
<title>Node21&#45;&gt;Node18</title>
<path fill="none" stroke="#191970" d="M789.741,-280.8491C864.9159,-273.7856 1017.8012,-257.3218 1033.43,-239 1070.6381,-195.3804 1057.6069,-161.9864 1033.43,-110 1027.5152,-97.2818 1016.1011,-86.8434 1005.2848,-79.1874"/>
<polygon fill="#191970" stroke="#191970" points="1007.1354,-76.2155 996.8549,-73.6536 1003.2939,-82.0673 1007.1354,-76.2155"/>
</g>
<!-- Node22 -->
<g id="node23" class="node">
<title>Node22</title>
<g id="a_node23"><a xlink:title=" ">
<polygon fill="#ffffff" stroke="#bfbfbf" points="736.4983,-220.5 736.4983,-238.5 842.3616,-238.5 842.3616,-220.5 736.4983,-220.5"/>
<text text-anchor="middle" x="789.43" y="-226.5" font-family="Helvetica,sans-Serif" font-size="10.00" fill="#000000">WebSocketsClient.h</text>
</a>
</g>
</g>
<!-- Node21&#45;&gt;Node22 -->
<g id="edge27" class="edge">
<title>Node21&#45;&gt;Node22</title>
<path fill="none" stroke="#191970" d="M755.2003,-275.4179C760.9817,-267.6624 769.4593,-256.29 776.531,-246.8035"/>
<polygon fill="#191970" stroke="#191970" points="779.342,-248.8888 782.5126,-238.7795 773.7298,-244.7051 779.342,-248.8888"/>
</g>
<!-- Node23 -->
<g id="node24" class="node">
<title>Node23</title>
<g id="a_node24"><a xlink:title=" ">
<polygon fill="#ffffff" stroke="#bfbfbf" points="994.7601,-220.5 994.7601,-238.5 1024.0999,-238.5 1024.0999,-220.5 994.7601,-220.5"/>
<text text-anchor="middle" x="1009.43" y="-226.5" font-family="Helvetica,sans-Serif" font-size="10.00" fill="#000000">set</text>
</a>
</g>
</g>
<!-- Node21&#45;&gt;Node23 -->
<g id="edge29" class="edge">
<title>Node21&#45;&gt;Node23</title>
<path fill="none" stroke="#191970" d="M789.6605,-278.9794C835.3313,-272.3395 911.1778,-259.7578 984.7138,-238.7498"/>
<polygon fill="#191970" stroke="#191970" points="985.9799,-242.0265 994.6017,-235.869 984.0218,-235.3059 985.9799,-242.0265"/>
</g>
<!-- Node24 -->
<g id="node25" class="node">
<title>Node24</title>
<g id="a_node25"><a xlink:href="signalk__delta_8h.html" target="_top" xlink:title=" ">
<polygon fill="#ffffff" stroke="#000000" points="860.1199,-220.5 860.1199,-238.5 976.74,-238.5 976.74,-220.5 860.1199,-220.5"/>
<text text-anchor="middle" x="918.43" y="-226.5" font-family="Helvetica,sans-Serif" font-size="10.00" fill="#000000">signalk/signalk_delta.h</text>
</a>
</g>
</g>
<!-- Node21&#45;&gt;Node24 -->
<g id="edge31" class="edge">
<title>Node21&#45;&gt;Node24</title>
<path fill="none" stroke="#191970" d="M776.502,-275.4179C805.0094,-266.1949 849.3275,-251.8567 880.8501,-241.6582"/>
<polygon fill="#191970" stroke="#191970" points="882.1617,-244.9125 890.5988,-238.5042 880.0069,-238.2524 882.1617,-244.9125"/>
</g>
<!-- Node24&#45;&gt;Node8 -->
<g id="edge33" class="edge">
<title>Node24&#45;&gt;Node8</title>
<path fill="none" stroke="#191970" d="M912.9935,-220.1561C897.5486,-193.6101 853.214,-117.41 832.866,-82.4369"/>
<polygon fill="#191970" stroke="#191970" points="835.861,-80.6247 827.8068,-73.7414 829.8106,-84.145 835.861,-80.6247"/>
</g>
<!-- Node25 -->
<g id="node26" class="node">
<title>Node25</title>
<g id="a_node26"><a xlink:title=" ">
<polygon fill="#ffffff" stroke="#bfbfbf" points="903.93,-165.5 903.93,-183.5 932.93,-183.5 932.93,-165.5 903.93,-165.5"/>
<text text-anchor="middle" x="918.0408" y="-171.5" font-family="Helvetica,sans-Serif" font-size="10.00" fill="#000000">list</text>
</a>
</g>
</g>
<!-- Node24&#45;&gt;Node25 -->
<g id="edge32" class="edge">
<title>Node24&#45;&gt;Node25</title>
<path fill="none" stroke="#191970" d="M918.43,-220.4179C918.43,-213.2164 918.43,-202.8962 918.43,-193.8632"/>
<polygon fill="#191970" stroke="#191970" points="921.9301,-193.7794 918.43,-183.7795 914.9301,-193.7795 921.9301,-193.7794"/>
</g>
<!-- Node26&#45;&gt;Node3 -->
<g id="edge44" class="edge">
<title>Node26&#45;&gt;Node3</title>
<path fill="none" stroke="#191970" d="M896.0009,-340.376C804.6962,-330.0396 565.659,-302.9788 457.2718,-290.7085"/>
<polygon fill="#191970" stroke="#191970" points="457.5302,-287.2155 447.1999,-289.5683 456.7427,-294.1711 457.5302,-287.2155"/>
</g>
<!-- Node26&#45;&gt;Node19 -->
<g id="edge39" class="edge">
<title>Node26&#45;&gt;Node19</title>
<path fill="none" stroke="#191970" d="M966.4556,-335.3997C1031.3549,-317.0338 1166.43,-273.5211 1166.43,-229.5 1166.43,-229.5 1166.43,-229.5 1166.43,-119.5 1166.43,-84.7875 1146.996,-48.1934 1133.6707,-27.1819"/>
<polygon fill="#191970" stroke="#191970" points="1136.4965,-25.1093 1128.0699,-18.6872 1130.6524,-28.9625 1136.4965,-25.1093"/>
</g>
<!-- Node26&#45;&gt;Node21 -->
<g id="edge45" class="edge">
<title>Node26&#45;&gt;Node21</title>
<path fill="none" stroke="#191970" d="M904.4843,-335.3873C872.8248,-325.0635 821.0742,-308.1883 785.9244,-296.7264"/>
<polygon fill="#191970" stroke="#191970" points="786.6281,-293.2746 776.0357,-293.5019 784.4579,-299.9297 786.6281,-293.2746"/>
</g>
<!-- Node27 -->
<g id="node28" class="node">
<title>Node27</title>
<g id="a_node28"><a xlink:href="enable_8h.html" target="_top" xlink:title=" ">
<polygon fill="#ffffff" stroke="#000000" points="1082.2454,-110.5 1082.2454,-128.5 1136.6146,-128.5 1136.6146,-110.5 1082.2454,-110.5"/>
<text text-anchor="middle" x="1109.43" y="-116.5" font-family="Helvetica,sans-Serif" font-size="10.00" fill="#000000">enable.h</text>
</a>
</g>
</g>
<!-- Node26&#45;&gt;Node27 -->
<g id="edge40" class="edge">
<title>Node26&#45;&gt;Node27</title>
<path fill="none" stroke="#191970" d="M949.3298,-335.4273C977.4753,-319.5046 1034.0509,-283.914 1066.43,-239 1088.9047,-207.8245 1100.7089,-163.7029 1105.9541,-138.7174"/>
<polygon fill="#191970" stroke="#191970" points="1109.4288,-139.1858 1107.9173,-128.6994 1102.5594,-137.8396 1109.4288,-139.1858"/>
</g>
<!-- Node27&#45;&gt;Node17 -->
<g id="edge41" class="edge">
<title>Node27&#45;&gt;Node17</title>
<path fill="none" stroke="#191970" d="M1100.0176,-110.4179C1091.7341,-102.425 1079.4691,-90.5903 1069.4655,-80.9377"/>
<polygon fill="#191970" stroke="#191970" points="1071.6734,-78.2045 1062.0469,-73.7795 1066.8128,-83.2419 1071.6734,-78.2045"/>
</g>
<!-- Node27&#45;&gt;Node18 -->
<g id="edge43" class="edge">
<title>Node27&#45;&gt;Node18</title>
<path fill="none" stroke="#191970" d="M1087.9631,-110.4179C1066.793,-101.4613 1034.2206,-87.6806 1010.2802,-77.552"/>
<polygon fill="#191970" stroke="#191970" points="1011.5022,-74.2687 1000.9287,-73.5956 1008.7747,-80.7155 1011.5022,-74.2687"/>
</g>
<!-- Node28 -->
<g id="node29" class="node">
<title>Node28</title>
<g id="a_node29"><a xlink:title=" ">
<polygon fill="#ffffff" stroke="#bfbfbf" points="1094.5262,-55.5 1094.5262,-73.5 1138.3338,-73.5 1138.3338,-55.5 1094.5262,-55.5"/>
<text text-anchor="middle" x="1116.43" y="-61.5" font-family="Helvetica,sans-Serif" font-size="10.00" fill="#000000">queue</text>
</a>
</g>
</g>
<!-- Node27&#45;&gt;Node28 -->
<g id="edge42" class="edge">
<title>Node27&#45;&gt;Node28</title>
<path fill="none" stroke="#191970" d="M1110.5859,-110.4179C1111.5024,-103.2164 1112.8159,-92.8962 1113.9656,-83.8632"/>
<polygon fill="#191970" stroke="#191970" points="1117.4583,-84.1414 1115.249,-73.7795 1110.5143,-83.2575 1117.4583,-84.1414"/>
</g>
<!-- Node29&#45;&gt;Node16 -->
<g id="edge47" class="edge">
<title>Node29&#45;&gt;Node16</title>
<path fill="none" stroke="#191970" d="M1248.646,-275.3939C1201.2799,-248.0673 1060.1088,-166.6224 1002.9071,-133.6214"/>
<polygon fill="#191970" stroke="#191970" points="1004.5761,-130.5436 994.1652,-128.578 1001.078,-136.6069 1004.5761,-130.5436"/>
</g>
</g>
</svg>
        <g id="navigator" transform="translate(0 0)" fill="#404254">
                <rect fill="#f2f5e9" fill-opacity="0.5" stroke="#606060" stroke-width=".5" x="0" y="0" width="60" height="60"/>
                <use id="zoomplus" xlink:href="#zoomPlus" x="17" y="9" onmousedown="handleZoom(evt,'in')"/>
                <use id="zoomminus" xlink:href="#zoomMin" x="42" y="9" onmousedown="handleZoom(evt,'out')"/>
                <use id="reset" xlink:href="#resetDef" x="30" y="36" onmousedown="handleReset()"/>
                <g id="arrowUp" xlink:href="#dirArrow" transform="translate(30 24)" onmousedown="handlePan(0,-1)">
                  <use xlink:href="#rim" fill="#404040">
                        <set attributeName="fill" to="#808080" begin="arrowUp.mouseover" end="arrowUp.mouseout"/>
                  </use>
                  <path fill="none" stroke="white" stroke-width="1.5" d="M0,-3.0v7 M-2.5,-0.5L0,-3.0L2.5,-0.5"/>
                </g>
                <g id="arrowRight" xlink:href="#dirArrow" transform="rotate(90) translate(36 -43)" onmousedown="handlePan(1,0)">
                  <use xlink:href="#rim" fill="#404040">
                        <set attributeName="fill" to="#808080" begin="arrowRight.mouseover" end="arrowRight.mouseout"/>
                  </use>
                  <path fill="none" stroke="white" stroke-width="1.5" d="M0,-3.0v7 M-2.5,-0.5L0,-3.0L2.5,-0.5"/>
                </g>
                <g id="arrowDown" xlink:href="#dirArrow" transform="rotate(180) translate(-30 -48)" onmousedown="handlePan(0,1)">
                  <use xlink:href="#rim" fill="#404040">
                        <set attributeName="fill" to="#808080" begin="arrowDown.mouseover" end="arrowDown.mouseout"/>
                  </use>
                  <path fill="none" stroke="white" stroke-width="1.5" d="M0,-3.0v7 M-2.5,-0.5L0,-3.0L2.5,-0.5"/>
                </g>
                <g id="arrowLeft" xlink:href="#dirArrow" transform="rotate(270) translate(-36 17)" onmousedown="handlePan(-1,0)">
                  <use xlink:href="#rim" fill="#404040">
                        <set attributeName="fill" to="#808080" begin="arrowLeft.mouseover" end="arrowLeft.mouseout"/>
                  </use>
                  <path fill="none" stroke="white" stroke-width="1.5" d="M0,-3.0v7 M-2.5,-0.5L0,-3.0L2.5,-0.5"/>
                </g>
        </g>
        <svg viewBox="0 0 15 15" width="100%" height="30px" preserveAspectRatio="xMaxYMin meet">
         <g id="arrow_out" transform="scale(0.3 0.3)">
          <a xlink:href="system__status__led_8cpp__incl_org.svg" target="_base">
           <rect id="button" ry="5" rx="5" y="6" x="6" height="38" width="38"
                fill="#f2f5e9" fill-opacity="0.5" stroke="#606060" stroke-width="1.0"/>
           <path id="arrow"
             d="M 11.500037,31.436501 C 11.940474,20.09759 22.043105,11.32322 32.158766,21.979434 L 37.068811,17.246167 C 37.068811,17.246167 37.088388,32 37.088388,32 L 22.160133,31.978069 C 22.160133,31.978069 26.997745,27.140456 26.997745,27.140456 C 18.528582,18.264221 13.291696,25.230495 11.500037,31.436501 z"
             style="fill:#404040;"/>
          </a>
         </g>
        </svg>
</svg>
