<?xml version="1.0" encoding="UTF-8" standalone="no"?>
<!DOCTYPE svg PUBLIC "-//W3C//DTD SVG 1.1//EN"
 "http://www.w3.org/Graphics/SVG/1.1/DTD/svg11.dtd">
<!-- Generated by graphviz version 2.49.3 (20211023.0002)
 -->
<!-- Title: src/sensesp/sensors/system_info.cpp Pages: 1 -->
<svg width="1303pt" height="520pt"
 viewBox="0.00 0.00 1302.50 520.00" xmlns="http://www.w3.org/2000/svg" xmlns:xlink="http://www.w3.org/1999/xlink">
<g id="graph0" class="graph" transform="scale(1 1) rotate(0) translate(4 516)">
<title>src/sensesp/sensors/system_info.cpp</title>
<polygon fill="white" stroke="transparent" points="-4,4 -4,-516 1298.5,-516 1298.5,4 -4,4"/>
<!-- Node1 -->
<g id="node1" class="node">
<title>Node1</title>
<g id="a_node1"><a xlink:title=" ">
<polygon fill="#bfbfbf" stroke="black" points="815,-481.5 815,-511.5 923,-511.5 923,-481.5 815,-481.5"/>
<text text-anchor="start" x="823" y="-499.5" font-family="Helvetica,sans-Serif" font-size="10.00">src/sensesp/sensors</text>
<text text-anchor="middle" x="869" y="-488.5" font-family="Helvetica,sans-Serif" font-size="10.00">/system_info.cpp</text>
</a>
</g>
</g>
<!-- Node2 -->
<g id="node2" class="node">
<title>Node2</title>
<g id="a_node2"><a xlink:href="system__info_8h.html" target="_top" xlink:title=" ">
<polygon fill="white" stroke="black" points="527,-425.5 527,-444.5 605,-444.5 605,-425.5 527,-425.5"/>
<text text-anchor="middle" x="566" y="-432.5" font-family="Helvetica,sans-Serif" font-size="10.00">system_info.h</text>
</a>
</g>
</g>
<!-- Node1&#45;&gt;Node2 -->
<g id="edge1" class="edge">
<title>Node1&#45;&gt;Node2</title>
<path fill="none" stroke="midnightblue" d="M814.83,-484.86C758.1,-473.72 669.8,-456.38 615.06,-445.63"/>
<polygon fill="midnightblue" stroke="midnightblue" points="615.74,-442.2 605.25,-443.71 614.39,-449.07 615.74,-442.2"/>
</g>
<!-- Node3 -->
<g id="node3" class="node">
<title>Node3</title>
<g id="a_node3"><a xlink:title=" ">
<polygon fill="white" stroke="#bfbfbf" points="172.5,-0.5 172.5,-19.5 231.5,-19.5 231.5,-0.5 172.5,-0.5"/>
<text text-anchor="middle" x="202" y="-7.5" font-family="Helvetica,sans-Serif" font-size="10.00">Arduino.h</text>
</a>
</g>
</g>
<!-- Node1&#45;&gt;Node3 -->
<g id="edge56" class="edge">
<title>Node1&#45;&gt;Node3</title>
<path fill="none" stroke="midnightblue" d="M814.97,-493.7C625.11,-486.65 0,-457.18 0,-374.5 0,-374.5 0,-374.5 0,-132 0,-57.19 103.24,-27.5 162.1,-16.65"/>
<polygon fill="midnightblue" stroke="midnightblue" points="162.94,-20.06 172.19,-14.9 161.74,-13.16 162.94,-20.06"/>
</g>
<!-- Node9 -->
<g id="node9" class="node">
<title>Node9</title>
<g id="a_node9"><a xlink:href="sensesp_8h.html" target="_top" xlink:title=" ">
<polygon fill="white" stroke="black" points="670,-123.5 670,-142.5 732,-142.5 732,-123.5 670,-123.5"/>
<text text-anchor="middle" x="701" y="-130.5" font-family="Helvetica,sans-Serif" font-size="10.00">sensesp.h</text>
</a>
</g>
</g>
<!-- Node1&#45;&gt;Node9 -->
<g id="edge58" class="edge">
<title>Node1&#45;&gt;Node9</title>
<path fill="none" stroke="midnightblue" d="M923.23,-488.34C1021.97,-473.77 1221,-436.7 1221,-374.5 1221,-374.5 1221,-374.5 1221,-244 1221,-188.36 1166.78,-196.61 1114,-179 958.95,-127.28 909.77,-166.39 748,-143 746.06,-142.72 744.07,-142.41 742.07,-142.09"/>
<polygon fill="midnightblue" stroke="midnightblue" points="742.48,-138.61 732.03,-140.36 741.29,-145.51 742.48,-138.61"/>
</g>
<!-- Node32 -->
<g id="node32" class="node">
<title>Node32</title>
<g id="a_node32"><a xlink:title=" ">
<polygon fill="white" stroke="#bfbfbf" points="1249.5,-425.5 1249.5,-444.5 1294.5,-444.5 1294.5,-425.5 1249.5,-425.5"/>
<text text-anchor="middle" x="1272" y="-432.5" font-family="Helvetica,sans-Serif" font-size="10.00">WiFi.h</text>
</a>
</g>
</g>
<!-- Node1&#45;&gt;Node32 -->
<g id="edge57" class="edge">
<title>Node1&#45;&gt;Node32</title>
<path fill="none" stroke="midnightblue" d="M923.23,-489.76C994.93,-481.77 1125.04,-465.9 1235,-445 1236.46,-444.72 1237.95,-444.42 1239.45,-444.11"/>
<polygon fill="midnightblue" stroke="midnightblue" points="1240.39,-447.49 1249.38,-441.89 1238.86,-440.66 1240.39,-447.49"/>
</g>
<!-- Node2&#45;&gt;Node3 -->
<g id="edge2" class="edge">
<title>Node2&#45;&gt;Node3</title>
<path fill="none" stroke="midnightblue" d="M526.75,-433C404.38,-428.85 38,-408.01 38,-307.5 38,-307.5 38,-307.5 38,-132 38,-70.26 114.18,-36.47 162.7,-21.21"/>
<polygon fill="midnightblue" stroke="midnightblue" points="163.74,-24.56 172.3,-18.32 161.72,-17.86 163.74,-24.56"/>
</g>
<!-- Node4 -->
<g id="node4" class="node">
<title>Node4</title>
<g id="a_node4"><a xlink:title=" ">
<polygon fill="white" stroke="#bfbfbf" points="358,-364 358,-383 440,-383 440,-364 358,-364"/>
<text text-anchor="middle" x="399" y="-371" font-family="Helvetica,sans-Serif" font-size="10.00">elapsedMillis.h</text>
</a>
</g>
</g>
<!-- Node2&#45;&gt;Node4 -->
<g id="edge3" class="edge">
<title>Node2&#45;&gt;Node4</title>
<path fill="none" stroke="midnightblue" d="M542.07,-425.48C513.3,-415.22 464.84,-397.96 432.4,-386.4"/>
<polygon fill="midnightblue" stroke="midnightblue" points="433.48,-383.07 422.88,-383.01 431.13,-389.66 433.48,-383.07"/>
</g>
<!-- Node5 -->
<g id="node5" class="node">
<title>Node5</title>
<g id="a_node5"><a xlink:href="signalk__output_8h.html" target="_top" xlink:title=" ">
<polygon fill="white" stroke="black" points="458,-358.5 458,-388.5 580,-388.5 580,-358.5 458,-358.5"/>
<text text-anchor="start" x="466" y="-376.5" font-family="Helvetica,sans-Serif" font-size="10.00">sensesp/signalk/signalk</text>
<text text-anchor="middle" x="519" y="-365.5" font-family="Helvetica,sans-Serif" font-size="10.00">_output.h</text>
</a>
</g>
</g>
<!-- Node2&#45;&gt;Node5 -->
<g id="edge4" class="edge">
<title>Node2&#45;&gt;Node5</title>
<path fill="none" stroke="midnightblue" d="M559.27,-425.48C553.32,-417.94 544.38,-406.63 536.43,-396.57"/>
<polygon fill="midnightblue" stroke="midnightblue" points="539.02,-394.2 530.08,-388.52 533.53,-398.54 539.02,-394.2"/>
</g>
<!-- Node26 -->
<g id="node26" class="node">
<title>Node26</title>
<g id="a_node26"><a xlink:href="sensesp__base__app_8h.html" target="_top" xlink:title=" ">
<polygon fill="white" stroke="black" points="865,-364 865,-383 977,-383 977,-364 865,-364"/>
<text text-anchor="middle" x="921" y="-371" font-family="Helvetica,sans-Serif" font-size="10.00">sensesp_base_app.h</text>
</a>
</g>
</g>
<!-- Node2&#45;&gt;Node26 -->
<g id="edge40" class="edge">
<title>Node2&#45;&gt;Node26</title>
<path fill="none" stroke="midnightblue" d="M605.01,-427.46C666.68,-417.13 787.18,-396.93 860.25,-384.68"/>
<polygon fill="midnightblue" stroke="midnightblue" points="860.95,-388.11 870.23,-383.01 859.79,-381.21 860.95,-388.11"/>
</g>
<!-- Node31 -->
<g id="node31" class="node">
<title>Node31</title>
<g id="a_node31"><a xlink:href="sensor_8h.html" target="_top" xlink:title=" ">
<polygon fill="white" stroke="black" points="587,-297 587,-316 641,-316 641,-297 587,-297"/>
<text text-anchor="middle" x="614" y="-304" font-family="Helvetica,sans-Serif" font-size="10.00">sensor.h</text>
</a>
</g>
</g>
<!-- Node2&#45;&gt;Node31 -->
<g id="edge50" class="edge">
<title>Node2&#45;&gt;Node31</title>
<path fill="none" stroke="midnightblue" d="M571.05,-425.25C576.06,-416.34 583.73,-402.01 589,-389 597.49,-368.05 604.75,-343.08 609.22,-326.35"/>
<polygon fill="midnightblue" stroke="midnightblue" points="612.73,-326.8 611.86,-316.24 605.95,-325.03 612.73,-326.8"/>
</g>
<!-- Node6 -->
<g id="node6" class="node">
<title>Node6</title>
<g id="a_node6"><a xlink:href="signalk__emitter_8h.html" target="_top" xlink:title=" ">
<polygon fill="white" stroke="black" points="306,-297 306,-316 398,-316 398,-297 306,-297"/>
<text text-anchor="middle" x="352" y="-304" font-family="Helvetica,sans-Serif" font-size="10.00">signalk_emitter.h</text>
</a>
</g>
</g>
<!-- Node5&#45;&gt;Node6 -->
<g id="edge5" class="edge">
<title>Node5&#45;&gt;Node6</title>
<path fill="none" stroke="midnightblue" d="M482.76,-358.4C453.07,-346.84 411.49,-330.66 383.25,-319.66"/>
<polygon fill="midnightblue" stroke="midnightblue" points="384.44,-316.37 373.86,-316.01 381.91,-322.9 384.44,-316.37"/>
</g>
<!-- Node23 -->
<g id="node23" class="node">
<title>Node23</title>
<g id="a_node23"><a xlink:href="transform_8h.html" target="_top" xlink:title=" ">
<polygon fill="white" stroke="black" points="465,-291.5 465,-321.5 569,-321.5 569,-291.5 465,-291.5"/>
<text text-anchor="start" x="473" y="-309.5" font-family="Helvetica,sans-Serif" font-size="10.00">sensesp/transforms</text>
<text text-anchor="middle" x="517" y="-298.5" font-family="Helvetica,sans-Serif" font-size="10.00">/transform.h</text>
</a>
</g>
</g>
<!-- Node5&#45;&gt;Node23 -->
<g id="edge30" class="edge">
<title>Node5&#45;&gt;Node23</title>
<path fill="none" stroke="midnightblue" d="M518.57,-358.4C518.33,-350.64 518.02,-340.81 517.75,-331.86"/>
<polygon fill="midnightblue" stroke="midnightblue" points="521.24,-331.46 517.43,-321.58 514.24,-331.68 521.24,-331.46"/>
</g>
<!-- Node7 -->
<g id="node7" class="node">
<title>Node7</title>
<g id="a_node7"><a xlink:title=" ">
<polygon fill="white" stroke="#bfbfbf" points="227,-123.5 227,-142.5 307,-142.5 307,-123.5 227,-123.5"/>
<text text-anchor="middle" x="267" y="-130.5" font-family="Helvetica,sans-Serif" font-size="10.00">ArduinoJson.h</text>
</a>
</g>
</g>
<!-- Node6&#45;&gt;Node7 -->
<g id="edge6" class="edge">
<title>Node6&#45;&gt;Node7</title>
<path fill="none" stroke="midnightblue" d="M305.74,-303.72C270.69,-299.65 224.66,-287.86 201,-255 175.4,-219.45 220.16,-172.87 247.75,-149.21"/>
<polygon fill="midnightblue" stroke="midnightblue" points="250.2,-151.72 255.66,-142.64 245.73,-146.34 250.2,-151.72"/>
</g>
<!-- Node8 -->
<g id="node8" class="node">
<title>Node8</title>
<g id="a_node8"><a xlink:title=" ">
<polygon fill="white" stroke="#bfbfbf" points="529,-235.5 529,-254.5 559,-254.5 559,-235.5 529,-235.5"/>
<text text-anchor="middle" x="544" y="-242.5" font-family="Helvetica,sans-Serif" font-size="10.00">set</text>
</a>
</g>
</g>
<!-- Node6&#45;&gt;Node8 -->
<g id="edge7" class="edge">
<title>Node6&#45;&gt;Node8</title>
<path fill="none" stroke="midnightblue" d="M379.51,-296.98C416.88,-285.39 483.15,-264.86 519.11,-253.71"/>
<polygon fill="midnightblue" stroke="midnightblue" points="520.3,-257.01 528.82,-250.7 518.23,-250.32 520.3,-257.01"/>
</g>
<!-- Node6&#45;&gt;Node9 -->
<g id="edge8" class="edge">
<title>Node6&#45;&gt;Node9</title>
<path fill="none" stroke="midnightblue" d="M305.98,-298.41C280.13,-291.82 249.95,-279.18 234,-255 207.38,-214.65 269.85,-189.62 293,-179 437.96,-112.53 492.04,-164.87 650,-143 653.21,-142.56 656.52,-142.06 659.85,-141.53"/>
<polygon fill="midnightblue" stroke="midnightblue" points="660.48,-144.98 669.77,-139.89 659.33,-138.07 660.48,-144.98"/>
</g>
<!-- Node13 -->
<g id="node13" class="node">
<title>Node13</title>
<g id="a_node13"><a xlink:href="configurable_8h.html" target="_top" xlink:title=" ">
<polygon fill="white" stroke="black" points="243,-235.5 243,-254.5 397,-254.5 397,-235.5 243,-235.5"/>
<text text-anchor="middle" x="320" y="-242.5" font-family="Helvetica,sans-Serif" font-size="10.00">sensesp/system/configurable.h</text>
</a>
</g>
</g>
<!-- Node6&#45;&gt;Node13 -->
<g id="edge13" class="edge">
<title>Node6&#45;&gt;Node13</title>
<path fill="none" stroke="midnightblue" d="M347.42,-296.98C342.76,-288.32 335.41,-274.65 329.49,-263.65"/>
<polygon fill="midnightblue" stroke="midnightblue" points="332.4,-261.66 324.58,-254.51 326.23,-264.97 332.4,-261.66"/>
</g>
<!-- Node15 -->
<g id="node15" class="node">
<title>Node15</title>
<g id="a_node15"><a xlink:href="observable_8h.html" target="_top" xlink:title=" ">
<polygon fill="white" stroke="black" points="782,-179.5 782,-198.5 930,-198.5 930,-179.5 782,-179.5"/>
<text text-anchor="middle" x="856" y="-186.5" font-family="Helvetica,sans-Serif" font-size="10.00">sensesp/system/observable.h</text>
</a>
</g>
</g>
<!-- Node6&#45;&gt;Node15 -->
<g id="edge17" class="edge">
<title>Node6&#45;&gt;Node15</title>
<path fill="none" stroke="midnightblue" d="M368.18,-297C397.55,-281.96 462,-250.75 520,-235 603.87,-212.22 702.78,-200.75 771.48,-195.12"/>
<polygon fill="midnightblue" stroke="midnightblue" points="772.12,-198.58 781.81,-194.29 771.56,-191.6 772.12,-198.58"/>
</g>
<!-- Node19 -->
<g id="node19" class="node">
<title>Node19</title>
<g id="a_node19"><a xlink:href="valueproducer_8h.html" target="_top" xlink:title=" ">
<polygon fill="white" stroke="black" points="577,-235.5 577,-254.5 739,-254.5 739,-235.5 577,-235.5"/>
<text text-anchor="middle" x="658" y="-242.5" font-family="Helvetica,sans-Serif" font-size="10.00">sensesp/system/valueproducer.h</text>
</a>
</g>
</g>
<!-- Node6&#45;&gt;Node19 -->
<g id="edge21" class="edge">
<title>Node6&#45;&gt;Node19</title>
<path fill="none" stroke="midnightblue" d="M395.84,-296.98C450.83,-286.28 545.07,-267.96 604.32,-256.44"/>
<polygon fill="midnightblue" stroke="midnightblue" points="605.09,-259.85 614.24,-254.51 603.75,-252.98 605.09,-259.85"/>
</g>
<!-- Node22 -->
<g id="node22" class="node">
<title>Node22</title>
<g id="a_node22"><a xlink:href="signalk__metadata_8h.html" target="_top" xlink:title=" ">
<polygon fill="white" stroke="black" points="66.5,-179.5 66.5,-198.5 169.5,-198.5 169.5,-179.5 66.5,-179.5"/>
<text text-anchor="middle" x="118" y="-186.5" font-family="Helvetica,sans-Serif" font-size="10.00">signalk_metadata.h</text>
</a>
</g>
</g>
<!-- Node6&#45;&gt;Node22 -->
<g id="edge28" class="edge">
<title>Node6&#45;&gt;Node22</title>
<path fill="none" stroke="midnightblue" d="M305.87,-302.12C265.09,-297.18 205.64,-285 163,-255 146.04,-243.06 133.42,-222.57 125.93,-207.78"/>
<polygon fill="midnightblue" stroke="midnightblue" points="129.03,-206.15 121.57,-198.63 122.71,-209.16 129.03,-206.15"/>
</g>
<!-- Node10 -->
<g id="node10" class="node">
<title>Node10</title>
<g id="a_node10"><a xlink:title=" ">
<polygon fill="white" stroke="#bfbfbf" points="557,-62 557,-81 627,-81 627,-62 557,-62"/>
<text text-anchor="middle" x="592" y="-69" font-family="Helvetica,sans-Serif" font-size="10.00">ReactESP.h</text>
</a>
</g>
</g>
<!-- Node9&#45;&gt;Node10 -->
<g id="edge9" class="edge">
<title>Node9&#45;&gt;Node10</title>
<path fill="none" stroke="midnightblue" d="M685.38,-123.48C667.41,-113.67 637.68,-97.43 616.59,-85.92"/>
<polygon fill="midnightblue" stroke="midnightblue" points="618.04,-82.73 607.59,-81.01 614.69,-88.87 618.04,-82.73"/>
</g>
<!-- Node11 -->
<g id="node11" class="node">
<title>Node11</title>
<g id="a_node11"><a xlink:href="local__debug_8h.html" target="_top" xlink:title=" ">
<polygon fill="white" stroke="black" points="645,-56.5 645,-86.5 757,-86.5 757,-56.5 645,-56.5"/>
<text text-anchor="start" x="653" y="-74.5" font-family="Helvetica,sans-Serif" font-size="10.00">sensesp/system/local</text>
<text text-anchor="middle" x="701" y="-63.5" font-family="Helvetica,sans-Serif" font-size="10.00">_debug.h</text>
</a>
</g>
</g>
<!-- Node9&#45;&gt;Node11 -->
<g id="edge10" class="edge">
<title>Node9&#45;&gt;Node11</title>
<path fill="none" stroke="midnightblue" d="M701,-123.48C701,-116.47 701,-106.19 701,-96.7"/>
<polygon fill="midnightblue" stroke="midnightblue" points="704.5,-96.52 701,-86.52 697.5,-96.52 704.5,-96.52"/>
</g>
<!-- Node11&#45;&gt;Node3 -->
<g id="edge11" class="edge">
<title>Node11&#45;&gt;Node3</title>
<path fill="none" stroke="midnightblue" d="M644.71,-57.52C641.77,-56.98 638.85,-56.46 636,-56 491.76,-32.51 318.44,-18.87 241.79,-13.57"/>
<polygon fill="midnightblue" stroke="midnightblue" points="241.84,-10.07 231.63,-12.88 241.36,-17.05 241.84,-10.07"/>
</g>
<!-- Node12 -->
<g id="node12" class="node">
<title>Node12</title>
<g id="a_node12"><a xlink:title=" ">
<polygon fill="white" stroke="#bfbfbf" points="678.5,-0.5 678.5,-19.5 723.5,-19.5 723.5,-0.5 678.5,-0.5"/>
<text text-anchor="middle" x="701" y="-7.5" font-family="Helvetica,sans-Serif" font-size="10.00">Print.h</text>
</a>
</g>
</g>
<!-- Node11&#45;&gt;Node12 -->
<g id="edge12" class="edge">
<title>Node11&#45;&gt;Node12</title>
<path fill="none" stroke="midnightblue" d="M701,-56.4C701,-48.47 701,-38.46 701,-29.86"/>
<polygon fill="midnightblue" stroke="midnightblue" points="704.5,-29.66 701,-19.66 697.5,-29.66 704.5,-29.66"/>
</g>
<!-- Node13&#45;&gt;Node3 -->
<g id="edge16" class="edge">
<title>Node13&#45;&gt;Node3</title>
<path fill="none" stroke="midnightblue" d="M327.15,-235.36C333.77,-226.76 343.16,-212.87 347,-199 349.37,-190.43 349.22,-187.61 347,-179 328.88,-108.85 259.13,-51.1 223.39,-25.39"/>
<polygon fill="midnightblue" stroke="midnightblue" points="225.28,-22.44 215.08,-19.56 221.25,-28.17 225.28,-22.44"/>
</g>
<!-- Node13&#45;&gt;Node7 -->
<g id="edge14" class="edge">
<title>Node13&#45;&gt;Node7</title>
<path fill="none" stroke="midnightblue" d="M314.19,-235.27C308.41,-226.37 299.48,-212.06 293,-199 285.41,-183.69 278.31,-165.59 273.45,-152.38"/>
<polygon fill="midnightblue" stroke="midnightblue" points="276.62,-150.83 269.94,-142.6 270.03,-153.2 276.62,-150.83"/>
</g>
<!-- Node14 -->
<g id="node14" class="node">
<title>Node14</title>
<g id="a_node14"><a xlink:title=" ">
<polygon fill="white" stroke="#bfbfbf" points="302,-179.5 302,-198.5 338,-198.5 338,-179.5 302,-179.5"/>
<text text-anchor="middle" x="320" y="-186.5" font-family="Helvetica,sans-Serif" font-size="10.00">map</text>
</a>
</g>
</g>
<!-- Node13&#45;&gt;Node14 -->
<g id="edge15" class="edge">
<title>Node13&#45;&gt;Node14</title>
<path fill="none" stroke="midnightblue" d="M320,-235.08C320,-228.01 320,-217.86 320,-208.99"/>
<polygon fill="midnightblue" stroke="midnightblue" points="323.5,-208.75 320,-198.75 316.5,-208.75 323.5,-208.75"/>
</g>
<!-- Node16 -->
<g id="node16" class="node">
<title>Node16</title>
<g id="a_node16"><a xlink:title=" ">
<polygon fill="white" stroke="#bfbfbf" points="896,-123.5 896,-142.5 964,-142.5 964,-123.5 896,-123.5"/>
<text text-anchor="middle" x="930" y="-130.5" font-family="Helvetica,sans-Serif" font-size="10.00">forward_list</text>
</a>
</g>
</g>
<!-- Node15&#45;&gt;Node16 -->
<g id="edge18" class="edge">
<title>Node15&#45;&gt;Node16</title>
<path fill="none" stroke="midnightblue" d="M867.89,-179.32C879.15,-171.11 896.29,-158.6 909.71,-148.81"/>
<polygon fill="midnightblue" stroke="midnightblue" points="911.88,-151.56 917.89,-142.83 907.75,-145.9 911.88,-151.56"/>
</g>
<!-- Node17 -->
<g id="node17" class="node">
<title>Node17</title>
<g id="a_node17"><a xlink:title=" ">
<polygon fill="white" stroke="#bfbfbf" points="756.5,-123.5 756.5,-142.5 815.5,-142.5 815.5,-123.5 756.5,-123.5"/>
<text text-anchor="middle" x="786" y="-130.5" font-family="Helvetica,sans-Serif" font-size="10.00">functional</text>
</a>
</g>
</g>
<!-- Node15&#45;&gt;Node17 -->
<g id="edge19" class="edge">
<title>Node15&#45;&gt;Node17</title>
<path fill="none" stroke="midnightblue" d="M844.75,-179.32C834.2,-171.18 818.2,-158.84 805.56,-149.09"/>
<polygon fill="midnightblue" stroke="midnightblue" points="807.51,-146.17 797.45,-142.83 803.23,-151.71 807.51,-146.17"/>
</g>
<!-- Node18 -->
<g id="node18" class="node">
<title>Node18</title>
<g id="a_node18"><a xlink:title=" ">
<polygon fill="white" stroke="#bfbfbf" points="834,-123.5 834,-142.5 878,-142.5 878,-123.5 834,-123.5"/>
<text text-anchor="middle" x="856" y="-130.5" font-family="Helvetica,sans-Serif" font-size="10.00">vector</text>
</a>
</g>
</g>
<!-- Node15&#45;&gt;Node18 -->
<g id="edge20" class="edge">
<title>Node15&#45;&gt;Node18</title>
<path fill="none" stroke="midnightblue" d="M856,-179.08C856,-172.01 856,-161.86 856,-152.99"/>
<polygon fill="midnightblue" stroke="midnightblue" points="859.5,-152.75 856,-142.75 852.5,-152.75 859.5,-152.75"/>
</g>
<!-- Node19&#45;&gt;Node7 -->
<g id="edge22" class="edge">
<title>Node19&#45;&gt;Node7</title>
<path fill="none" stroke="midnightblue" d="M637.12,-235.47C603.74,-222.06 536.08,-195.86 477,-179 423.06,-163.61 360,-150.77 317.16,-142.79"/>
<polygon fill="midnightblue" stroke="midnightblue" points="317.73,-139.34 307.26,-140.97 316.46,-146.22 317.73,-139.34"/>
</g>
<!-- Node19&#45;&gt;Node15 -->
<g id="edge23" class="edge">
<title>Node19&#45;&gt;Node15</title>
<path fill="none" stroke="midnightblue" d="M689.37,-235.44C723.26,-226.2 777.4,-211.44 814.72,-201.26"/>
<polygon fill="midnightblue" stroke="midnightblue" points="816.05,-204.52 824.77,-198.52 814.2,-197.77 816.05,-204.52"/>
</g>
<!-- Node20 -->
<g id="node20" class="node">
<title>Node20</title>
<g id="a_node20"><a xlink:href="valueconsumer_8h.html" target="_top" xlink:title=" ">
<polygon fill="white" stroke="black" points="570,-179.5 570,-198.5 662,-198.5 662,-179.5 570,-179.5"/>
<text text-anchor="middle" x="616" y="-186.5" font-family="Helvetica,sans-Serif" font-size="10.00">valueconsumer.h</text>
</a>
</g>
</g>
<!-- Node19&#45;&gt;Node20 -->
<g id="edge24" class="edge">
<title>Node19&#45;&gt;Node20</title>
<path fill="none" stroke="midnightblue" d="M651.06,-235.08C645.07,-227.38 636.25,-216.03 628.95,-206.65"/>
<polygon fill="midnightblue" stroke="midnightblue" points="631.71,-204.5 622.81,-198.75 626.18,-208.79 631.71,-204.5"/>
</g>
<!-- Node20&#45;&gt;Node7 -->
<g id="edge25" class="edge">
<title>Node20&#45;&gt;Node7</title>
<path fill="none" stroke="midnightblue" d="M569.66,-180.83C504.05,-170.68 384.57,-152.19 317.02,-141.74"/>
<polygon fill="midnightblue" stroke="midnightblue" points="317.46,-138.27 307.04,-140.2 316.39,-145.18 317.46,-138.27"/>
</g>
<!-- Node20&#45;&gt;Node9 -->
<g id="edge27" class="edge">
<title>Node20&#45;&gt;Node9</title>
<path fill="none" stroke="midnightblue" d="M629.66,-179.32C642.92,-170.9 663.27,-157.97 678.85,-148.07"/>
<polygon fill="midnightblue" stroke="midnightblue" points="680.81,-150.97 687.38,-142.65 677.06,-145.06 680.81,-150.97"/>
</g>
<!-- Node21 -->
<g id="node21" class="node">
<title>Node21</title>
<g id="a_node21"><a xlink:title=" ">
<polygon fill="white" stroke="#bfbfbf" points="591.5,-123.5 591.5,-142.5 640.5,-142.5 640.5,-123.5 591.5,-123.5"/>
<text text-anchor="middle" x="616" y="-130.5" font-family="Helvetica,sans-Serif" font-size="10.00">stdint.h</text>
</a>
</g>
</g>
<!-- Node20&#45;&gt;Node21 -->
<g id="edge26" class="edge">
<title>Node20&#45;&gt;Node21</title>
<path fill="none" stroke="midnightblue" d="M616,-179.08C616,-172.01 616,-161.86 616,-152.99"/>
<polygon fill="midnightblue" stroke="midnightblue" points="619.5,-152.75 616,-142.75 612.5,-152.75 619.5,-152.75"/>
</g>
<!-- Node22&#45;&gt;Node7 -->
<g id="edge29" class="edge">
<title>Node22&#45;&gt;Node7</title>
<path fill="none" stroke="midnightblue" d="M141.61,-179.44C166.46,-170.44 205.77,-156.19 233.75,-146.05"/>
<polygon fill="midnightblue" stroke="midnightblue" points="235.29,-149.21 243.5,-142.52 232.91,-142.63 235.29,-149.21"/>
</g>
<!-- Node23&#45;&gt;Node7 -->
<g id="edge31" class="edge">
<title>Node23&#45;&gt;Node7</title>
<path fill="none" stroke="midnightblue" d="M499.67,-291.44C469.49,-267.24 405,-216.67 347,-179 329.4,-167.57 308.74,-155.99 292.83,-147.44"/>
<polygon fill="midnightblue" stroke="midnightblue" points="294.07,-144.14 283.6,-142.54 290.79,-150.32 294.07,-144.14"/>
</g>
<!-- Node23&#45;&gt;Node8 -->
<g id="edge32" class="edge">
<title>Node23&#45;&gt;Node8</title>
<path fill="none" stroke="midnightblue" d="M523.4,-291.4C527.12,-283.2 531.85,-272.78 535.83,-263.99"/>
<polygon fill="midnightblue" stroke="midnightblue" points="539.13,-265.21 540.07,-254.66 532.75,-262.32 539.13,-265.21"/>
</g>
<!-- Node23&#45;&gt;Node9 -->
<g id="edge33" class="edge">
<title>Node23&#45;&gt;Node9</title>
<path fill="none" stroke="midnightblue" d="M569.22,-293C572.19,-292.31 575.13,-291.64 578,-291 653.35,-274.07 699.37,-315 748,-255 774.01,-222.91 738.68,-174.75 716.52,-149.98"/>
<polygon fill="midnightblue" stroke="midnightblue" points="718.98,-147.48 709.61,-142.53 713.85,-152.24 718.98,-147.48"/>
</g>
<!-- Node23&#45;&gt;Node13 -->
<g id="edge34" class="edge">
<title>Node23&#45;&gt;Node13</title>
<path fill="none" stroke="midnightblue" d="M470.31,-291.4C436.12,-281.07 390.29,-267.23 358.26,-257.56"/>
<polygon fill="midnightblue" stroke="midnightblue" points="358.96,-254.11 348.38,-254.57 356.94,-260.81 358.96,-254.11"/>
</g>
<!-- Node23&#45;&gt;Node15 -->
<g id="edge35" class="edge">
<title>Node23&#45;&gt;Node15</title>
<path fill="none" stroke="midnightblue" d="M569.2,-292.88C572.17,-292.23 575.12,-291.6 578,-291 667.72,-272.4 698.29,-294.43 781,-255 805.41,-243.36 828.08,-221.57 841.97,-206.44"/>
<polygon fill="midnightblue" stroke="midnightblue" points="844.7,-208.63 848.73,-198.83 839.47,-203.98 844.7,-208.63"/>
</g>
<!-- Node23&#45;&gt;Node19 -->
<g id="edge39" class="edge">
<title>Node23&#45;&gt;Node19</title>
<path fill="none" stroke="midnightblue" d="M550.42,-291.4C573.97,-281.46 605.24,-268.26 627.99,-258.66"/>
<polygon fill="midnightblue" stroke="midnightblue" points="629.63,-261.77 637.48,-254.66 626.91,-255.32 629.63,-261.77"/>
</g>
<!-- Node23&#45;&gt;Node20 -->
<g id="edge38" class="edge">
<title>Node23&#45;&gt;Node20</title>
<path fill="none" stroke="midnightblue" d="M513.62,-291.49C510.79,-276.25 508.8,-251.82 520,-235 530.59,-219.1 548.37,-208.7 565.77,-201.95"/>
<polygon fill="midnightblue" stroke="midnightblue" points="567.09,-205.19 575.35,-198.56 564.76,-198.59 567.09,-205.19"/>
</g>
<!-- Node24 -->
<g id="node24" class="node">
<title>Node24</title>
<g id="a_node24"><a xlink:href="startable_8h.html" target="_top" xlink:title=" ">
<polygon fill="white" stroke="black" points="871,-235.5 871,-254.5 1009,-254.5 1009,-235.5 871,-235.5"/>
<text text-anchor="middle" x="940" y="-242.5" font-family="Helvetica,sans-Serif" font-size="10.00">sensesp/system/startable.h</text>
</a>
</g>
</g>
<!-- Node23&#45;&gt;Node24 -->
<g id="edge36" class="edge">
<title>Node23&#45;&gt;Node24</title>
<path fill="none" stroke="midnightblue" d="M569.16,-292.7C572.15,-292.1 575.11,-291.52 578,-291 674.73,-273.55 787.22,-260.72 860.82,-253.32"/>
<polygon fill="midnightblue" stroke="midnightblue" points="861.33,-256.78 870.94,-252.31 860.64,-249.82 861.33,-256.78"/>
</g>
<!-- Node25 -->
<g id="node25" class="node">
<title>Node25</title>
<g id="a_node25"><a xlink:title=" ">
<polygon fill="white" stroke="#bfbfbf" points="1013,-179.5 1013,-198.5 1057,-198.5 1057,-179.5 1013,-179.5"/>
<text text-anchor="middle" x="1035" y="-186.5" font-family="Helvetica,sans-Serif" font-size="10.00">queue</text>
</a>
</g>
</g>
<!-- Node24&#45;&gt;Node25 -->
<g id="edge37" class="edge">
<title>Node24&#45;&gt;Node25</title>
<path fill="none" stroke="midnightblue" d="M955.26,-235.32C970.22,-226.82 993.25,-213.73 1010.73,-203.8"/>
<polygon fill="midnightblue" stroke="midnightblue" points="1012.81,-206.64 1019.77,-198.65 1009.35,-200.55 1012.81,-206.64"/>
</g>
<!-- Node26&#45;&gt;Node9 -->
<g id="edge41" class="edge">
<title>Node26&#45;&gt;Node9</title>
<path fill="none" stroke="midnightblue" d="M977.02,-368.85C1041.31,-363.36 1140.89,-350.41 1164,-322 1181.11,-300.97 1145.51,-237.01 1144,-235 1035.29,-90.68 926.63,-170.17 748,-143 746.06,-142.7 744.08,-142.39 742.08,-142.05"/>
<polygon fill="midnightblue" stroke="midnightblue" points="742.49,-138.57 732.04,-140.29 741.28,-145.47 742.49,-138.57"/>
</g>
<!-- Node27 -->
<g id="node27" class="node">
<title>Node27</title>
<g id="a_node27"><a xlink:href="debug__output_8h.html" target="_top" xlink:title=" ">
<polygon fill="white" stroke="black" points="849.5,-297 849.5,-316 992.5,-316 992.5,-297 849.5,-297"/>
<text text-anchor="middle" x="921" y="-304" font-family="Helvetica,sans-Serif" font-size="10.00">sensesp/net/debug_output.h</text>
</a>
</g>
</g>
<!-- Node26&#45;&gt;Node27 -->
<g id="edge42" class="edge">
<title>Node26&#45;&gt;Node27</title>
<path fill="none" stroke="midnightblue" d="M921,-363.73C921,-354.18 921,-338.62 921,-326.28"/>
<polygon fill="midnightblue" stroke="midnightblue" points="924.5,-326.13 921,-316.13 917.5,-326.13 924.5,-326.13"/>
</g>
<!-- Node28 -->
<g id="node28" class="node">
<title>Node28</title>
<g id="a_node28"><a xlink:href="filesystem_8h.html" target="_top" xlink:title=" ">
<polygon fill="white" stroke="black" points="1011,-297 1011,-316 1155,-316 1155,-297 1011,-297"/>
<text text-anchor="middle" x="1083" y="-304" font-family="Helvetica,sans-Serif" font-size="10.00">sensesp/system/filesystem.h</text>
</a>
</g>
</g>
<!-- Node26&#45;&gt;Node28 -->
<g id="edge44" class="edge">
<title>Node26&#45;&gt;Node28</title>
<path fill="none" stroke="midnightblue" d="M942.51,-363.87C970.67,-352.57 1020.2,-332.7 1052.3,-319.82"/>
<polygon fill="midnightblue" stroke="midnightblue" points="1053.68,-323.04 1061.66,-316.06 1051.07,-316.54 1053.68,-323.04"/>
</g>
<!-- Node30 -->
<g id="node30" class="node">
<title>Node30</title>
<g id="a_node30"><a xlink:href="observablevalue_8h.html" target="_top" xlink:title=" ">
<polygon fill="white" stroke="black" points="659,-297 659,-316 831,-316 831,-297 659,-297"/>
<text text-anchor="middle" x="745" y="-304" font-family="Helvetica,sans-Serif" font-size="10.00">sensesp/system/observablevalue.h</text>
</a>
</g>
</g>
<!-- Node26&#45;&gt;Node30 -->
<g id="edge47" class="edge">
<title>Node26&#45;&gt;Node30</title>
<path fill="none" stroke="midnightblue" d="M897.63,-363.87C866.91,-352.52 812.76,-332.52 777.9,-319.65"/>
<polygon fill="midnightblue" stroke="midnightblue" points="778.78,-316.24 768.19,-316.06 776.36,-322.81 778.78,-316.24"/>
</g>
<!-- Node27&#45;&gt;Node24 -->
<g id="edge43" class="edge">
<title>Node27&#45;&gt;Node24</title>
<path fill="none" stroke="midnightblue" d="M923.72,-296.98C926.43,-288.49 930.67,-275.2 934.15,-264.32"/>
<polygon fill="midnightblue" stroke="midnightblue" points="937.57,-265.1 937.28,-254.51 930.91,-262.97 937.57,-265.1"/>
</g>
<!-- Node29 -->
<g id="node29" class="node">
<title>Node29</title>
<g id="a_node29"><a xlink:href="resettable_8h.html" target="_top" xlink:title=" ">
<polygon fill="white" stroke="black" points="1065.5,-235.5 1065.5,-254.5 1134.5,-254.5 1134.5,-235.5 1065.5,-235.5"/>
<text text-anchor="middle" x="1100" y="-242.5" font-family="Helvetica,sans-Serif" font-size="10.00">resettable.h</text>
</a>
</g>
</g>
<!-- Node28&#45;&gt;Node29 -->
<g id="edge45" class="edge">
<title>Node28&#45;&gt;Node29</title>
<path fill="none" stroke="midnightblue" d="M1085.44,-296.98C1087.86,-288.49 1091.66,-275.2 1094.77,-264.32"/>
<polygon fill="midnightblue" stroke="midnightblue" points="1098.19,-265.09 1097.57,-254.51 1091.46,-263.16 1098.19,-265.09"/>
</g>
<!-- Node29&#45;&gt;Node25 -->
<g id="edge46" class="edge">
<title>Node29&#45;&gt;Node25</title>
<path fill="none" stroke="midnightblue" d="M1089.56,-235.32C1079.85,-227.26 1065.18,-215.08 1053.5,-205.37"/>
<polygon fill="midnightblue" stroke="midnightblue" points="1055.56,-202.53 1045.63,-198.83 1051.09,-207.92 1055.56,-202.53"/>
</g>
<!-- Node30&#45;&gt;Node15 -->
<g id="edge48" class="edge">
<title>Node30&#45;&gt;Node15</title>
<path fill="none" stroke="midnightblue" d="M801.06,-296.99C878.91,-284.92 1011.06,-263.34 1018,-255 1045.49,-221.95 992.77,-205.57 940.3,-197.53"/>
<polygon fill="midnightblue" stroke="midnightblue" points="940.57,-194.04 930.17,-196.08 939.57,-200.97 940.57,-194.04"/>
</g>
<!-- Node30&#45;&gt;Node19 -->
<g id="edge49" class="edge">
<title>Node30&#45;&gt;Node19</title>
<path fill="none" stroke="midnightblue" d="M732.54,-296.98C718.58,-287.43 695.74,-271.81 679.01,-260.37"/>
<polygon fill="midnightblue" stroke="midnightblue" points="680.67,-257.27 670.44,-254.51 676.72,-263.04 680.67,-257.27"/>
</g>
<!-- Node31&#45;&gt;Node8 -->
<g id="edge51" class="edge">
<title>Node31&#45;&gt;Node8</title>
<path fill="none" stroke="midnightblue" d="M603.97,-296.98C592.95,-287.61 575.04,-272.38 561.66,-261.01"/>
<polygon fill="midnightblue" stroke="midnightblue" points="563.9,-258.32 554.01,-254.51 559.36,-263.65 563.9,-258.32"/>
</g>
<!-- Node31&#45;&gt;Node13 -->
<g id="edge52" class="edge">
<title>Node31&#45;&gt;Node13</title>
<path fill="none" stroke="midnightblue" d="M594.83,-296.91C589.46,-294.75 583.57,-292.59 578,-291 520.41,-274.58 453.78,-263.14 402.66,-255.91"/>
<polygon fill="midnightblue" stroke="midnightblue" points="403.03,-252.43 392.65,-254.52 402.07,-259.36 403.03,-252.43"/>
</g>
<!-- Node31&#45;&gt;Node15 -->
<g id="edge53" class="edge">
<title>Node31&#45;&gt;Node15</title>
<path fill="none" stroke="midnightblue" d="M633.59,-296.9C638.85,-294.78 644.59,-292.65 650,-291 723.45,-268.57 757.02,-300.34 819,-255 834.69,-243.53 844.68,-223.25 850.27,-208.39"/>
<polygon fill="midnightblue" stroke="midnightblue" points="853.65,-209.32 853.59,-198.72 847.03,-207.05 853.65,-209.32"/>
</g>
<!-- Node31&#45;&gt;Node19 -->
<g id="edge55" class="edge">
<title>Node31&#45;&gt;Node19</title>
<path fill="none" stroke="midnightblue" d="M620.3,-296.98C626.9,-288.05 637.44,-273.81 645.69,-262.64"/>
<polygon fill="midnightblue" stroke="midnightblue" points="648.58,-264.63 651.71,-254.51 642.95,-260.47 648.58,-264.63"/>
</g>
<!-- Node31&#45;&gt;Node24 -->
<g id="edge54" class="edge">
<title>Node31&#45;&gt;Node24</title>
<path fill="none" stroke="midnightblue" d="M632.78,-296.99C638.24,-294.78 644.28,-292.57 650,-291 689.06,-280.26 791.49,-265.5 863.49,-255.86"/>
<polygon fill="midnightblue" stroke="midnightblue" points="863.99,-259.32 873.44,-254.53 863.07,-252.38 863.99,-259.32"/>
</g>
</g>
</svg>
