<?xml version="1.0" encoding="UTF-8" standalone="no"?>
<!DOCTYPE svg PUBLIC "-//W3C//DTD SVG 1.1//EN"
 "http://www.w3.org/Graphics/SVG/1.1/DTD/svg11.dtd">
<!-- Generated by graphviz version 5.0.0 (20220707.1540)
 -->
<!-- Title: src/sensesp/system/system_status_led.h Pages: 1 -->
<svg width="1628pt" height="576pt"
 viewBox="0.00 0.00 1628.08 576.00" xmlns="http://www.w3.org/2000/svg" xmlns:xlink="http://www.w3.org/1999/xlink">
<g id="graph0" class="graph" transform="scale(1 1) rotate(0) translate(4 572)">
<title>src/sensesp/system/system_status_led.h</title>
<polygon fill="white" stroke="transparent" points="-4,4 -4,-572 1624.08,-572 1624.08,4 -4,4"/>
<!-- Node1 -->
<g id="node1" class="node">
<title>Node1</title>
<g id="a_node1"><a xlink:title=" ">
<polygon fill="#bfbfbf" stroke="black" points="817.08,-537.5 817.08,-567.5 927.08,-567.5 927.08,-537.5 817.08,-537.5"/>
<text text-anchor="start" x="825.08" y="-555.5" font-family="Helvetica,sans-Serif" font-size="10.00">src/sensesp/system</text>
<text text-anchor="middle" x="872.08" y="-544.5" font-family="Helvetica,sans-Serif" font-size="10.00">/system_status_led.h</text>
</a>
</g>
</g>
<!-- Node2 -->
<g id="node2" class="node">
<title>Node2</title>
<g id="a_node2"><a xlink:href="lambda__consumer_8h.html" target="_top" xlink:title=" ">
<polygon fill="white" stroke="black" points="305.08,-414.5 305.08,-433.5 409.08,-433.5 409.08,-414.5 305.08,-414.5"/>
<text text-anchor="middle" x="357.08" y="-421.5" font-family="Helvetica,sans-Serif" font-size="10.00">lambda_consumer.h</text>
</a>
</g>
</g>
<!-- Node1&#45;&gt;Node2 -->
<g id="edge1" class="edge">
<title>Node1&#45;&gt;Node2</title>
<path fill="none" stroke="midnightblue" d="M816.97,-537.96C714.32,-512.75 495.76,-459.06 401.68,-435.95"/>
<polygon fill="midnightblue" stroke="midnightblue" points="402.45,-432.54 391.9,-433.55 400.78,-439.34 402.45,-432.54"/>
</g>
<!-- Node11 -->
<g id="node11" class="node">
<title>Node11</title>
<g id="a_node11"><a xlink:href="led__blinker_8h.html" target="_top" xlink:title=" ">
<polygon fill="white" stroke="black" points="997.58,-476 997.58,-495 1068.58,-495 1068.58,-476 997.58,-476"/>
<text text-anchor="middle" x="1033.08" y="-483" font-family="Helvetica,sans-Serif" font-size="10.00">led_blinker.h</text>
</a>
</g>
</g>
<!-- Node1&#45;&gt;Node11 -->
<g id="edge10" class="edge">
<title>Node1&#45;&gt;Node11</title>
<path fill="none" stroke="midnightblue" d="M907.02,-537.4C935.52,-525.89 975.38,-509.8 1002.6,-498.81"/>
<polygon fill="midnightblue" stroke="midnightblue" points="1004.05,-502 1012.01,-495.01 1001.43,-495.51 1004.05,-502"/>
</g>
<!-- Node28 -->
<g id="node28" class="node">
<title>Node28</title>
<g id="a_node28"><a xlink:href="system__status__controller_8h.html" target="_top" xlink:title=" ">
<polygon fill="white" stroke="black" points="803.58,-470.5 803.58,-500.5 940.58,-500.5 940.58,-470.5 803.58,-470.5"/>
<text text-anchor="start" x="811.58" y="-488.5" font-family="Helvetica,sans-Serif" font-size="10.00">sensesp/controllers</text>
<text text-anchor="middle" x="872.08" y="-477.5" font-family="Helvetica,sans-Serif" font-size="10.00">/system_status_controller.h</text>
</a>
</g>
</g>
<!-- Node1&#45;&gt;Node28 -->
<g id="edge41" class="edge">
<title>Node1&#45;&gt;Node28</title>
<path fill="none" stroke="midnightblue" d="M872.08,-537.4C872.08,-529.64 872.08,-519.81 872.08,-510.86"/>
<polygon fill="midnightblue" stroke="midnightblue" points="875.58,-510.58 872.08,-500.58 868.58,-510.58 875.58,-510.58"/>
</g>
<!-- Node3 -->
<g id="node3" class="node">
<title>Node3</title>
<g id="a_node3"><a xlink:href="valueconsumer_8h.html" target="_top" xlink:title=" ">
<polygon fill="white" stroke="black" points="984.08,-179.5 984.08,-198.5 1074.08,-198.5 1074.08,-179.5 984.08,-179.5"/>
<text text-anchor="middle" x="1029.08" y="-186.5" font-family="Helvetica,sans-Serif" font-size="10.00">valueconsumer.h</text>
</a>
</g>
</g>
<!-- Node2&#45;&gt;Node3 -->
<g id="edge2" class="edge">
<title>Node2&#45;&gt;Node3</title>
<path fill="none" stroke="midnightblue" d="M336.91,-414.49C290.86,-393.93 185.17,-339.67 228.08,-291 277.51,-234.95 800.5,-202.19 973.71,-192.82"/>
<polygon fill="midnightblue" stroke="midnightblue" points="974.09,-196.3 983.88,-192.27 973.71,-189.31 974.09,-196.3"/>
</g>
<!-- Node4 -->
<g id="node4" class="node">
<title>Node4</title>
<g id="a_node4"><a xlink:title=" ">
<polygon fill="white" stroke="#bfbfbf" points="1062.58,-123.5 1062.58,-142.5 1141.58,-142.5 1141.58,-123.5 1062.58,-123.5"/>
<text text-anchor="middle" x="1102.08" y="-130.5" font-family="Helvetica,sans-Serif" font-size="10.00">ArduinoJson.h</text>
</a>
</g>
</g>
<!-- Node3&#45;&gt;Node4 -->
<g id="edge3" class="edge">
<title>Node3&#45;&gt;Node4</title>
<path fill="none" stroke="midnightblue" d="M1040.81,-179.32C1051.92,-171.11 1068.83,-158.6 1082.07,-148.81"/>
<polygon fill="midnightblue" stroke="midnightblue" points="1084.18,-151.59 1090.14,-142.83 1080.02,-145.97 1084.18,-151.59"/>
</g>
<!-- Node5 -->
<g id="node5" class="node">
<title>Node5</title>
<g id="a_node5"><a xlink:title=" ">
<polygon fill="white" stroke="#bfbfbf" points="995.58,-123.5 995.58,-142.5 1044.58,-142.5 1044.58,-123.5 995.58,-123.5"/>
<text text-anchor="middle" x="1020.08" y="-130.5" font-family="Helvetica,sans-Serif" font-size="10.00">stdint.h</text>
</a>
</g>
</g>
<!-- Node3&#45;&gt;Node5 -->
<g id="edge4" class="edge">
<title>Node3&#45;&gt;Node5</title>
<path fill="none" stroke="midnightblue" d="M1027.6,-179.08C1026.41,-171.93 1024.69,-161.64 1023.2,-152.69"/>
<polygon fill="midnightblue" stroke="midnightblue" points="1026.64,-152.04 1021.54,-142.75 1019.73,-153.19 1026.64,-152.04"/>
</g>
<!-- Node6 -->
<g id="node6" class="node">
<title>Node6</title>
<g id="a_node6"><a xlink:href="sensesp_8h.html" target="_top" xlink:title=" ">
<polygon fill="white" stroke="black" points="1231.08,-123.5 1231.08,-142.5 1293.08,-142.5 1293.08,-123.5 1231.08,-123.5"/>
<text text-anchor="middle" x="1262.08" y="-130.5" font-family="Helvetica,sans-Serif" font-size="10.00">sensesp.h</text>
</a>
</g>
</g>
<!-- Node3&#45;&gt;Node6 -->
<g id="edge5" class="edge">
<title>Node3&#45;&gt;Node6</title>
<path fill="none" stroke="midnightblue" d="M1066,-179.44C1108.27,-169.65 1177.29,-153.65 1221.16,-143.48"/>
<polygon fill="midnightblue" stroke="midnightblue" points="1221.98,-146.89 1230.93,-141.22 1220.4,-140.07 1221.98,-146.89"/>
</g>
<!-- Node7 -->
<g id="node7" class="node">
<title>Node7</title>
<g id="a_node7"><a xlink:title=" ">
<polygon fill="white" stroke="#bfbfbf" points="1547.08,-62 1547.08,-81 1617.08,-81 1617.08,-62 1547.08,-62"/>
<text text-anchor="middle" x="1582.08" y="-69" font-family="Helvetica,sans-Serif" font-size="10.00">ReactESP.h</text>
</a>
</g>
</g>
<!-- Node6&#45;&gt;Node7 -->
<g id="edge6" class="edge">
<title>Node6&#45;&gt;Node7</title>
<path fill="none" stroke="midnightblue" d="M1293.35,-126.19C1350.23,-115.61 1470.81,-93.19 1536.73,-80.93"/>
<polygon fill="midnightblue" stroke="midnightblue" points="1537.63,-84.33 1546.82,-79.06 1536.35,-77.44 1537.63,-84.33"/>
</g>
<!-- Node8 -->
<g id="node8" class="node">
<title>Node8</title>
<g id="a_node8"><a xlink:href="local__debug_8h.html" target="_top" xlink:title=" ">
<polygon fill="white" stroke="black" points="638.08,-56.5 638.08,-86.5 750.08,-86.5 750.08,-56.5 638.08,-56.5"/>
<text text-anchor="start" x="646.08" y="-74.5" font-family="Helvetica,sans-Serif" font-size="10.00">sensesp/system/local</text>
<text text-anchor="middle" x="694.08" y="-63.5" font-family="Helvetica,sans-Serif" font-size="10.00">_debug.h</text>
</a>
</g>
</g>
<!-- Node6&#45;&gt;Node8 -->
<g id="edge7" class="edge">
<title>Node6&#45;&gt;Node8</title>
<path fill="none" stroke="midnightblue" d="M1230.74,-128.72C1141.27,-119.34 883.3,-92.32 760.53,-79.46"/>
<polygon fill="midnightblue" stroke="midnightblue" points="760.82,-75.97 750.51,-78.41 760.09,-82.93 760.82,-75.97"/>
</g>
<!-- Node9 -->
<g id="node9" class="node">
<title>Node9</title>
<g id="a_node9"><a xlink:title=" ">
<polygon fill="white" stroke="#bfbfbf" points="44.08,-0.5 44.08,-19.5 102.08,-19.5 102.08,-0.5 44.08,-0.5"/>
<text text-anchor="middle" x="73.08" y="-7.5" font-family="Helvetica,sans-Serif" font-size="10.00">Arduino.h</text>
</a>
</g>
</g>
<!-- Node8&#45;&gt;Node9 -->
<g id="edge8" class="edge">
<title>Node8&#45;&gt;Node9</title>
<path fill="none" stroke="midnightblue" d="M637.88,-65.11C513.78,-53.22 218.93,-24.97 112.37,-14.76"/>
<polygon fill="midnightblue" stroke="midnightblue" points="112.65,-11.28 102.36,-13.81 111.98,-18.24 112.65,-11.28"/>
</g>
<!-- Node10 -->
<g id="node10" class="node">
<title>Node10</title>
<g id="a_node10"><a xlink:title=" ">
<polygon fill="white" stroke="#bfbfbf" points="671.58,-0.5 671.58,-19.5 716.58,-19.5 716.58,-0.5 671.58,-0.5"/>
<text text-anchor="middle" x="694.08" y="-7.5" font-family="Helvetica,sans-Serif" font-size="10.00">Print.h</text>
</a>
</g>
</g>
<!-- Node8&#45;&gt;Node10 -->
<g id="edge9" class="edge">
<title>Node8&#45;&gt;Node10</title>
<path fill="none" stroke="midnightblue" d="M694.08,-56.4C694.08,-48.47 694.08,-38.46 694.08,-29.86"/>
<polygon fill="midnightblue" stroke="midnightblue" points="697.58,-29.66 694.08,-19.66 690.58,-29.66 697.58,-29.66"/>
</g>
<!-- Node11&#45;&gt;Node7 -->
<g id="edge11" class="edge">
<title>Node11&#45;&gt;Node7</title>
<path fill="none" stroke="midnightblue" d="M1068.92,-484.79C1196.37,-484.88 1620.08,-476.66 1620.08,-363.5 1620.08,-363.5 1620.08,-363.5 1620.08,-188 1620.08,-151.75 1602.99,-112.17 1591.73,-90.03"/>
<polygon fill="midnightblue" stroke="midnightblue" points="1594.81,-88.37 1587.05,-81.16 1588.62,-91.64 1594.81,-88.37"/>
</g>
<!-- Node12 -->
<g id="node12" class="node">
<title>Node12</title>
<g id="a_node12"><a xlink:href="ws__client_8h.html" target="_top" xlink:title=" ">
<polygon fill="white" stroke="black" points="1051.08,-414.5 1051.08,-433.5 1173.08,-433.5 1173.08,-414.5 1051.08,-414.5"/>
<text text-anchor="middle" x="1112.08" y="-421.5" font-family="Helvetica,sans-Serif" font-size="10.00">sensesp/net/ws_client.h</text>
</a>
</g>
</g>
<!-- Node11&#45;&gt;Node12 -->
<g id="edge12" class="edge">
<title>Node11&#45;&gt;Node12</title>
<path fill="none" stroke="midnightblue" d="M1044.4,-475.98C1056.96,-466.52 1077.44,-451.1 1092.58,-439.69"/>
<polygon fill="midnightblue" stroke="midnightblue" points="1094.9,-442.32 1100.79,-433.51 1090.69,-436.73 1094.9,-442.32"/>
</g>
<!-- Node18 -->
<g id="node18" class="node">
<title>Node18</title>
<g id="a_node18"><a xlink:href="startable_8h.html" target="_top" xlink:title=" ">
<polygon fill="white" stroke="black" points="900.58,-291.5 900.58,-310.5 1037.58,-310.5 1037.58,-291.5 900.58,-291.5"/>
<text text-anchor="middle" x="969.08" y="-298.5" font-family="Helvetica,sans-Serif" font-size="10.00">sensesp/system/startable.h</text>
</a>
</g>
</g>
<!-- Node11&#45;&gt;Node18 -->
<g id="edge40" class="edge">
<title>Node11&#45;&gt;Node18</title>
<path fill="none" stroke="midnightblue" d="M1024.44,-475.81C1008.22,-458.8 973.7,-419.19 961.08,-378 955.27,-359.01 958.99,-336.25 963.08,-320.62"/>
<polygon fill="midnightblue" stroke="midnightblue" points="966.55,-321.23 966,-310.65 959.83,-319.26 966.55,-321.23"/>
</g>
<!-- Node12&#45;&gt;Node6 -->
<g id="edge16" class="edge">
<title>Node12&#45;&gt;Node6</title>
<path fill="none" stroke="midnightblue" d="M1173.24,-419.39C1237.75,-414.31 1333.66,-402.75 1360.08,-378 1385.5,-354.2 1379.08,-336.82 1379.08,-302 1379.08,-302 1379.08,-302 1379.08,-244 1379.08,-196.6 1327.48,-163.64 1292.82,-146.85"/>
<polygon fill="midnightblue" stroke="midnightblue" points="1294.09,-143.58 1283.54,-142.54 1291.14,-149.93 1294.09,-143.58"/>
</g>
<!-- Node13 -->
<g id="node13" class="node">
<title>Node13</title>
<g id="a_node13"><a xlink:title=" ">
<polygon fill="white" stroke="#bfbfbf" points="1019.08,-353 1019.08,-372 1125.08,-372 1125.08,-353 1019.08,-353"/>
<text text-anchor="middle" x="1072.08" y="-360" font-family="Helvetica,sans-Serif" font-size="10.00">WebSocketsClient.h</text>
</a>
</g>
</g>
<!-- Node12&#45;&gt;Node13 -->
<g id="edge13" class="edge">
<title>Node12&#45;&gt;Node13</title>
<path fill="none" stroke="midnightblue" d="M1106.35,-414.48C1100.41,-405.64 1090.97,-391.59 1083.5,-380.48"/>
<polygon fill="midnightblue" stroke="midnightblue" points="1086.29,-378.36 1077.8,-372.01 1080.48,-382.26 1086.29,-378.36"/>
</g>
<!-- Node14 -->
<g id="node14" class="node">
<title>Node14</title>
<g id="a_node14"><a xlink:title=" ">
<polygon fill="white" stroke="#bfbfbf" points="1494.58,-123.5 1494.58,-142.5 1553.58,-142.5 1553.58,-123.5 1494.58,-123.5"/>
<text text-anchor="middle" x="1524.08" y="-130.5" font-family="Helvetica,sans-Serif" font-size="10.00">functional</text>
</a>
</g>
</g>
<!-- Node12&#45;&gt;Node14 -->
<g id="edge14" class="edge">
<title>Node12&#45;&gt;Node14</title>
<path fill="none" stroke="midnightblue" d="M1173.28,-420.78C1282.77,-416.16 1502.97,-403.76 1526.08,-378 1583.84,-313.62 1548.2,-196.74 1531.4,-152.04"/>
<polygon fill="midnightblue" stroke="midnightblue" points="1534.59,-150.57 1527.69,-142.53 1528.06,-153.12 1534.59,-150.57"/>
</g>
<!-- Node15 -->
<g id="node15" class="node">
<title>Node15</title>
<g id="a_node15"><a xlink:title=" ">
<polygon fill="white" stroke="#bfbfbf" points="1181.08,-353 1181.08,-372 1211.08,-372 1211.08,-353 1181.08,-353"/>
<text text-anchor="middle" x="1196.08" y="-360" font-family="Helvetica,sans-Serif" font-size="10.00">set</text>
</a>
</g>
</g>
<!-- Node12&#45;&gt;Node15 -->
<g id="edge15" class="edge">
<title>Node12&#45;&gt;Node15</title>
<path fill="none" stroke="midnightblue" d="M1124.12,-414.48C1137.59,-404.93 1159.65,-389.31 1175.8,-377.87"/>
<polygon fill="midnightblue" stroke="midnightblue" points="1177.93,-380.65 1184.07,-372.01 1173.89,-374.93 1177.93,-380.65"/>
</g>
<!-- Node16 -->
<g id="node16" class="node">
<title>Node16</title>
<g id="a_node16"><a xlink:href="signalk__delta__queue_8h.html" target="_top" xlink:title=" ">
<polygon fill="white" stroke="black" points="1229.58,-347.5 1229.58,-377.5 1350.58,-377.5 1350.58,-347.5 1229.58,-347.5"/>
<text text-anchor="start" x="1237.58" y="-365.5" font-family="Helvetica,sans-Serif" font-size="10.00">sensesp/signalk/signalk</text>
<text text-anchor="middle" x="1290.08" y="-354.5" font-family="Helvetica,sans-Serif" font-size="10.00">_delta_queue.h</text>
</a>
</g>
</g>
<!-- Node12&#45;&gt;Node16 -->
<g id="edge17" class="edge">
<title>Node12&#45;&gt;Node16</title>
<path fill="none" stroke="midnightblue" d="M1137.59,-414.48C1163.84,-405.7 1205.46,-391.79 1238.59,-380.71"/>
<polygon fill="midnightblue" stroke="midnightblue" points="1239.76,-384.01 1248.13,-377.52 1237.54,-377.37 1239.76,-384.01"/>
</g>
<!-- Node12&#45;&gt;Node18 -->
<g id="edge35" class="edge">
<title>Node12&#45;&gt;Node18</title>
<path fill="none" stroke="midnightblue" d="M1050.88,-417.31C1024.18,-411.57 994.96,-400.24 977.08,-378 964.25,-362.04 963.99,-337.69 965.8,-320.87"/>
<polygon fill="midnightblue" stroke="midnightblue" points="969.31,-321.03 967.26,-310.63 962.38,-320.04 969.31,-321.03"/>
</g>
<!-- Node20 -->
<g id="node20" class="node">
<title>Node20</title>
<g id="a_node20"><a xlink:href="configurable_8h.html" target="_top" xlink:title=" ">
<polygon fill="white" stroke="black" points="29.08,-291.5 29.08,-310.5 181.08,-310.5 181.08,-291.5 29.08,-291.5"/>
<text text-anchor="middle" x="105.08" y="-298.5" font-family="Helvetica,sans-Serif" font-size="10.00">sensesp/system/configurable.h</text>
</a>
</g>
</g>
<!-- Node12&#45;&gt;Node20 -->
<g id="edge22" class="edge">
<title>Node12&#45;&gt;Node20</title>
<path fill="none" stroke="midnightblue" d="M1050.9,-419.44C950.76,-413.28 745.74,-399.19 573.08,-378 422.98,-359.57 247.28,-328.45 160.04,-312.35"/>
<polygon fill="midnightblue" stroke="midnightblue" points="160.57,-308.89 150.1,-310.51 159.29,-315.77 160.57,-308.89"/>
</g>
<!-- Node22 -->
<g id="node22" class="node">
<title>Node22</title>
<g id="a_node22"><a xlink:href="observablevalue_8h.html" target="_top" xlink:title=" ">
<polygon fill="white" stroke="black" points="1094.08,-291.5 1094.08,-310.5 1264.08,-310.5 1264.08,-291.5 1094.08,-291.5"/>
<text text-anchor="middle" x="1179.08" y="-298.5" font-family="Helvetica,sans-Serif" font-size="10.00">sensesp/system/observablevalue.h</text>
</a>
</g>
</g>
<!-- Node12&#45;&gt;Node22 -->
<g id="edge26" class="edge">
<title>Node12&#45;&gt;Node22</title>
<path fill="none" stroke="midnightblue" d="M1116.9,-414.3C1127.86,-394.5 1154.84,-345.78 1169.4,-319.49"/>
<polygon fill="midnightblue" stroke="midnightblue" points="1172.53,-321.07 1174.31,-310.62 1166.4,-317.68 1172.53,-321.07"/>
</g>
<!-- Node26 -->
<g id="node26" class="node">
<title>Node26</title>
<g id="a_node26"><a xlink:href="valueproducer_8h.html" target="_top" xlink:title=" ">
<polygon fill="white" stroke="black" points="1023.58,-235.5 1023.58,-254.5 1108.58,-254.5 1108.58,-235.5 1023.58,-235.5"/>
<text text-anchor="middle" x="1066.08" y="-242.5" font-family="Helvetica,sans-Serif" font-size="10.00">valueproducer.h</text>
</a>
</g>
</g>
<!-- Node12&#45;&gt;Node26 -->
<g id="edge39" class="edge">
<title>Node12&#45;&gt;Node26</title>
<path fill="none" stroke="midnightblue" d="M1065.73,-414.47C1045.01,-408.1 1022.5,-397.05 1010.08,-378 1002.56,-366.46 1004.72,-359.69 1010.08,-347 1019.01,-325.86 1035.25,-330.66 1047.08,-311 1055.7,-296.68 1060.61,-278.21 1063.27,-264.63"/>
<polygon fill="midnightblue" stroke="midnightblue" points="1066.75,-265.01 1065.01,-254.56 1059.86,-263.82 1066.75,-265.01"/>
</g>
<!-- Node27 -->
<g id="node27" class="node">
<title>Node27</title>
<g id="a_node27"><a xlink:href="task__queue__producer_8h.html" target="_top" xlink:title=" ">
<polygon fill="white" stroke="black" points="1407.08,-347.5 1407.08,-377.5 1517.08,-377.5 1517.08,-347.5 1407.08,-347.5"/>
<text text-anchor="start" x="1415.08" y="-365.5" font-family="Helvetica,sans-Serif" font-size="10.00">sensesp/system/task</text>
<text text-anchor="middle" x="1462.08" y="-354.5" font-family="Helvetica,sans-Serif" font-size="10.00">_queue_producer.h</text>
</a>
</g>
</g>
<!-- Node12&#45;&gt;Node27 -->
<g id="edge36" class="edge">
<title>Node12&#45;&gt;Node27</title>
<path fill="none" stroke="midnightblue" d="M1170.62,-414.47C1227.56,-405.97 1316.45,-392.18 1393.08,-378 1394.34,-377.77 1395.6,-377.53 1396.88,-377.29"/>
<polygon fill="midnightblue" stroke="midnightblue" points="1397.62,-380.71 1406.77,-375.37 1396.29,-373.84 1397.62,-380.71"/>
</g>
<!-- Node16&#45;&gt;Node4 -->
<g id="edge18" class="edge">
<title>Node16&#45;&gt;Node4</title>
<path fill="none" stroke="midnightblue" d="M1289.11,-347.35C1287.54,-332.43 1283.5,-308.68 1273.08,-291 1234.99,-226.33 1161.84,-172.67 1124.78,-148.22"/>
<polygon fill="midnightblue" stroke="midnightblue" points="1126.48,-145.15 1116.18,-142.65 1122.67,-151.02 1126.48,-145.15"/>
</g>
<!-- Node17 -->
<g id="node17" class="node">
<title>Node17</title>
<g id="a_node17"><a xlink:title=" ">
<polygon fill="white" stroke="#bfbfbf" points="1320.58,-291.5 1320.58,-310.5 1349.58,-310.5 1349.58,-291.5 1320.58,-291.5"/>
<text text-anchor="middle" x="1335.08" y="-298.5" font-family="Helvetica,sans-Serif" font-size="10.00">list</text>
</a>
</g>
</g>
<!-- Node16&#45;&gt;Node17 -->
<g id="edge19" class="edge">
<title>Node16&#45;&gt;Node17</title>
<path fill="none" stroke="midnightblue" d="M1300.75,-347.4C1307.22,-338.84 1315.52,-327.87 1322.34,-318.86"/>
<polygon fill="midnightblue" stroke="midnightblue" points="1325.3,-320.74 1328.54,-310.66 1319.71,-316.52 1325.3,-320.74"/>
</g>
<!-- Node16&#45;&gt;Node18 -->
<g id="edge20" class="edge">
<title>Node16&#45;&gt;Node18</title>
<path fill="none" stroke="midnightblue" d="M1229.4,-348.83C1226.25,-348.2 1223.13,-347.59 1220.08,-347 1155.02,-334.43 1080.23,-321.18 1029.33,-312.33"/>
<polygon fill="midnightblue" stroke="midnightblue" points="1029.61,-308.83 1019.16,-310.57 1028.42,-315.73 1029.61,-308.83"/>
</g>
<!-- Node19 -->
<g id="node19" class="node">
<title>Node19</title>
<g id="a_node19"><a xlink:title=" ">
<polygon fill="white" stroke="#bfbfbf" points="829.58,-235.5 829.58,-254.5 872.58,-254.5 872.58,-235.5 829.58,-235.5"/>
<text text-anchor="middle" x="851.08" y="-242.5" font-family="Helvetica,sans-Serif" font-size="10.00">queue</text>
</a>
</g>
</g>
<!-- Node18&#45;&gt;Node19 -->
<g id="edge21" class="edge">
<title>Node18&#45;&gt;Node19</title>
<path fill="none" stroke="midnightblue" d="M950.39,-291.44C931.14,-282.64 900.93,-268.81 878.88,-258.72"/>
<polygon fill="midnightblue" stroke="midnightblue" points="880.24,-255.5 869.69,-254.52 877.33,-261.86 880.24,-255.5"/>
</g>
<!-- Node20&#45;&gt;Node4 -->
<g id="edge23" class="edge">
<title>Node20&#45;&gt;Node4</title>
<path fill="none" stroke="midnightblue" d="M105.66,-291.14C107.11,-276.77 112.2,-248.64 130.08,-235 291.61,-111.84 832.55,-170.36 1052.36,-143.05"/>
<polygon fill="midnightblue" stroke="midnightblue" points="1053.13,-146.48 1062.58,-141.69 1052.2,-139.54 1053.13,-146.48"/>
</g>
<!-- Node20&#45;&gt;Node9 -->
<g id="edge25" class="edge">
<title>Node20&#45;&gt;Node9</title>
<path fill="none" stroke="midnightblue" d="M100.77,-291.41C92.03,-273.2 73.08,-229.18 73.08,-190 73.08,-190 73.08,-190 73.08,-132 73.08,-95.71 73.08,-53.31 73.08,-29.56"/>
<polygon fill="midnightblue" stroke="midnightblue" points="76.58,-29.51 73.08,-19.51 69.58,-29.51 76.58,-29.51"/>
</g>
<!-- Node21 -->
<g id="node21" class="node">
<title>Node21</title>
<g id="a_node21"><a xlink:title=" ">
<polygon fill="white" stroke="#bfbfbf" points="139.58,-235.5 139.58,-254.5 174.58,-254.5 174.58,-235.5 139.58,-235.5"/>
<text text-anchor="middle" x="157.08" y="-242.5" font-family="Helvetica,sans-Serif" font-size="10.00">map</text>
</a>
</g>
</g>
<!-- Node20&#45;&gt;Node21 -->
<g id="edge24" class="edge">
<title>Node20&#45;&gt;Node21</title>
<path fill="none" stroke="midnightblue" d="M113.67,-291.08C121.24,-283.22 132.46,-271.57 141.6,-262.08"/>
<polygon fill="midnightblue" stroke="midnightblue" points="144.24,-264.38 148.66,-254.75 139.2,-259.53 144.24,-264.38"/>
</g>
<!-- Node23 -->
<g id="node23" class="node">
<title>Node23</title>
<g id="a_node23"><a xlink:href="observable_8h.html" target="_top" xlink:title=" ">
<polygon fill="white" stroke="black" points="1407.08,-179.5 1407.08,-198.5 1479.08,-198.5 1479.08,-179.5 1407.08,-179.5"/>
<text text-anchor="middle" x="1443.08" y="-186.5" font-family="Helvetica,sans-Serif" font-size="10.00">observable.h</text>
</a>
</g>
</g>
<!-- Node22&#45;&gt;Node23 -->
<g id="edge27" class="edge">
<title>Node22&#45;&gt;Node23</title>
<path fill="none" stroke="midnightblue" d="M1199.8,-291.37C1246.26,-272.01 1358.93,-225.06 1413.07,-202.51"/>
<polygon fill="midnightblue" stroke="midnightblue" points="1414.58,-205.67 1422.47,-198.59 1411.89,-199.21 1414.58,-205.67"/>
</g>
<!-- Node22&#45;&gt;Node26 -->
<g id="edge31" class="edge">
<title>Node22&#45;&gt;Node26</title>
<path fill="none" stroke="midnightblue" d="M1161.18,-291.44C1142.83,-282.68 1114.08,-268.94 1092.99,-258.86"/>
<polygon fill="midnightblue" stroke="midnightblue" points="1094.44,-255.67 1083.91,-254.52 1091.42,-261.99 1094.44,-255.67"/>
</g>
<!-- Node23&#45;&gt;Node14 -->
<g id="edge29" class="edge">
<title>Node23&#45;&gt;Node14</title>
<path fill="none" stroke="midnightblue" d="M1456.1,-179.32C1468.62,-170.98 1487.77,-158.21 1502.56,-148.35"/>
<polygon fill="midnightblue" stroke="midnightblue" points="1504.72,-151.11 1511.1,-142.65 1500.84,-145.29 1504.72,-151.11"/>
</g>
<!-- Node24 -->
<g id="node24" class="node">
<title>Node24</title>
<g id="a_node24"><a xlink:title=" ">
<polygon fill="white" stroke="#bfbfbf" points="1409.58,-123.5 1409.58,-142.5 1476.58,-142.5 1476.58,-123.5 1409.58,-123.5"/>
<text text-anchor="middle" x="1443.08" y="-130.5" font-family="Helvetica,sans-Serif" font-size="10.00">forward_list</text>
</a>
</g>
</g>
<!-- Node23&#45;&gt;Node24 -->
<g id="edge28" class="edge">
<title>Node23&#45;&gt;Node24</title>
<path fill="none" stroke="midnightblue" d="M1443.08,-179.08C1443.08,-172.01 1443.08,-161.86 1443.08,-152.99"/>
<polygon fill="midnightblue" stroke="midnightblue" points="1446.58,-152.75 1443.08,-142.75 1439.58,-152.75 1446.58,-152.75"/>
</g>
<!-- Node25 -->
<g id="node25" class="node">
<title>Node25</title>
<g id="a_node25"><a xlink:title=" ">
<polygon fill="white" stroke="#bfbfbf" points="1347.08,-123.5 1347.08,-142.5 1391.08,-142.5 1391.08,-123.5 1347.08,-123.5"/>
<text text-anchor="middle" x="1369.08" y="-130.5" font-family="Helvetica,sans-Serif" font-size="10.00">vector</text>
</a>
</g>
</g>
<!-- Node23&#45;&gt;Node25 -->
<g id="edge30" class="edge">
<title>Node23&#45;&gt;Node25</title>
<path fill="none" stroke="midnightblue" d="M1431.2,-179.32C1419.93,-171.11 1402.8,-158.6 1389.38,-148.81"/>
<polygon fill="midnightblue" stroke="midnightblue" points="1391.33,-145.9 1381.19,-142.83 1387.2,-151.56 1391.33,-145.9"/>
</g>
<!-- Node26&#45;&gt;Node3 -->
<g id="edge34" class="edge">
<title>Node26&#45;&gt;Node3</title>
<path fill="none" stroke="midnightblue" d="M1059.97,-235.08C1054.8,-227.53 1047.24,-216.49 1040.89,-207.23"/>
<polygon fill="midnightblue" stroke="midnightblue" points="1043.62,-205.02 1035.08,-198.75 1037.85,-208.98 1043.62,-205.02"/>
</g>
<!-- Node26&#45;&gt;Node4 -->
<g id="edge32" class="edge">
<title>Node26&#45;&gt;Node4</title>
<path fill="none" stroke="midnightblue" d="M1069.54,-235.44C1073.13,-226.44 1078.79,-211.83 1083.08,-199 1088.27,-183.49 1093.43,-165.65 1097.06,-152.59"/>
<polygon fill="midnightblue" stroke="midnightblue" points="1100.45,-153.47 1099.72,-142.9 1093.7,-151.62 1100.45,-153.47"/>
</g>
<!-- Node26&#45;&gt;Node23 -->
<g id="edge33" class="edge">
<title>Node26&#45;&gt;Node23</title>
<path fill="none" stroke="midnightblue" d="M1108.6,-237.91C1179.96,-227.69 1323.24,-207.17 1396.95,-196.61"/>
<polygon fill="midnightblue" stroke="midnightblue" points="1397.47,-200.07 1406.88,-195.19 1396.48,-193.14 1397.47,-200.07"/>
</g>
<!-- Node27&#45;&gt;Node7 -->
<g id="edge37" class="edge">
<title>Node27&#45;&gt;Node7</title>
<path fill="none" stroke="midnightblue" d="M1494.24,-347.48C1529.79,-329.55 1582.08,-294.87 1582.08,-246 1582.08,-246 1582.08,-246 1582.08,-188 1582.08,-153.86 1582.08,-114.05 1582.08,-91.21"/>
<polygon fill="midnightblue" stroke="midnightblue" points="1585.58,-91.19 1582.08,-81.19 1578.58,-91.19 1585.58,-91.19"/>
</g>
<!-- Node27&#45;&gt;Node22 -->
<g id="edge38" class="edge">
<title>Node27&#45;&gt;Node22</title>
<path fill="none" stroke="midnightblue" d="M1406.85,-349.89C1355.38,-339.07 1279.29,-323.07 1229.45,-312.59"/>
<polygon fill="midnightblue" stroke="midnightblue" points="1230.05,-309.14 1219.54,-310.51 1228.61,-315.99 1230.05,-309.14"/>
</g>
<!-- Node28&#45;&gt;Node12 -->
<g id="edge53" class="edge">
<title>Node28&#45;&gt;Node12</title>
<path fill="none" stroke="midnightblue" d="M928.66,-470.47C971.24,-459.92 1028.77,-445.66 1067.97,-435.94"/>
<polygon fill="midnightblue" stroke="midnightblue" points="1068.91,-439.31 1077.77,-433.51 1067.22,-432.52 1068.91,-439.31"/>
</g>
<!-- Node28&#45;&gt;Node26 -->
<g id="edge54" class="edge">
<title>Node28&#45;&gt;Node26</title>
<path fill="none" stroke="midnightblue" d="M868.66,-470.26C861.13,-435.09 847.16,-343.23 892.08,-291 907.83,-272.69 968.15,-260.07 1013.39,-252.95"/>
<polygon fill="midnightblue" stroke="midnightblue" points="1014.01,-256.4 1023.36,-251.43 1012.95,-249.48 1014.01,-256.4"/>
</g>
<!-- Node29 -->
<g id="node29" class="node">
<title>Node29</title>
<g id="a_node29"><a xlink:href="networking_8h.html" target="_top" xlink:title=" ">
<polygon fill="white" stroke="black" points="582.08,-353 582.08,-372 710.08,-372 710.08,-353 582.08,-353"/>
<text text-anchor="middle" x="646.08" y="-360" font-family="Helvetica,sans-Serif" font-size="10.00">sensesp/net/networking.h</text>
</a>
</g>
</g>
<!-- Node28&#45;&gt;Node29 -->
<g id="edge42" class="edge">
<title>Node28&#45;&gt;Node29</title>
<path fill="none" stroke="midnightblue" d="M845.72,-470.38C801.77,-446.85 714.12,-399.93 671.09,-376.89"/>
<polygon fill="midnightblue" stroke="midnightblue" points="672.6,-373.73 662.13,-372.09 669.3,-379.9 672.6,-373.73"/>
</g>
<!-- Node29&#45;&gt;Node9 -->
<g id="edge43" class="edge">
<title>Node29&#45;&gt;Node9</title>
<path fill="none" stroke="midnightblue" d="M581.94,-360.39C431.03,-357.21 62.96,-345.92 20.08,-311 -3.25,-291.99 1.08,-276.1 1.08,-246 1.08,-246 1.08,-246 1.08,-132 1.08,-89.11 34.9,-48.17 56.19,-26.66"/>
<polygon fill="midnightblue" stroke="midnightblue" points="58.66,-29.13 63.37,-19.65 53.77,-24.13 58.66,-29.13"/>
</g>
<!-- Node29&#45;&gt;Node18 -->
<g id="edge51" class="edge">
<title>Node29&#45;&gt;Node18</title>
<path fill="none" stroke="midnightblue" d="M692.36,-352.98C750.53,-342.26 850.3,-323.88 912.81,-312.37"/>
<polygon fill="midnightblue" stroke="midnightblue" points="913.69,-315.76 922.89,-310.51 912.42,-308.88 913.69,-315.76"/>
</g>
<!-- Node29&#45;&gt;Node20 -->
<g id="edge47" class="edge">
<title>Node29&#45;&gt;Node20</title>
<path fill="none" stroke="midnightblue" d="M581.9,-354.44C484.73,-343.75 300.12,-323.45 191.31,-311.48"/>
<polygon fill="midnightblue" stroke="midnightblue" points="191.67,-308 181.35,-310.39 190.91,-314.96 191.67,-308"/>
</g>
<!-- Node29&#45;&gt;Node22 -->
<g id="edge48" class="edge">
<title>Node29&#45;&gt;Node22</title>
<path fill="none" stroke="midnightblue" d="M710.11,-354.35C805.64,-343.69 985.67,-323.59 1092.74,-311.64"/>
<polygon fill="midnightblue" stroke="midnightblue" points="1093.32,-315.1 1102.87,-310.51 1092.55,-308.14 1093.32,-315.1"/>
</g>
<!-- Node29&#45;&gt;Node26 -->
<g id="edge52" class="edge">
<title>Node29&#45;&gt;Node26</title>
<path fill="none" stroke="midnightblue" d="M679.36,-352.92C713.57,-343.77 768.18,-328.24 814.08,-311 834.19,-303.45 837.69,-297.75 858.08,-291 909.87,-273.85 971.12,-261.51 1013.68,-254.14"/>
<polygon fill="midnightblue" stroke="midnightblue" points="1014.27,-257.59 1023.55,-252.46 1013.1,-250.69 1014.27,-257.59"/>
</g>
<!-- Node30 -->
<g id="node30" class="node">
<title>Node30</title>
<g id="a_node30"><a xlink:title=" ">
<polygon fill="white" stroke="#bfbfbf" points="237.58,-291.5 237.58,-310.5 356.58,-310.5 356.58,-291.5 237.58,-291.5"/>
<text text-anchor="middle" x="297.08" y="-298.5" font-family="Helvetica,sans-Serif" font-size="10.00">ESPAsyncWebServer.h</text>
</a>
</g>
</g>
<!-- Node29&#45;&gt;Node30 -->
<g id="edge44" class="edge">
<title>Node29&#45;&gt;Node30</title>
<path fill="none" stroke="midnightblue" d="M596.08,-352.98C532.98,-342.22 424.54,-323.73 357.05,-312.22"/>
<polygon fill="midnightblue" stroke="midnightblue" points="357.44,-308.74 346.99,-310.51 356.26,-315.64 357.44,-308.74"/>
</g>
<!-- Node31 -->
<g id="node31" class="node">
<title>Node31</title>
<g id="a_node31"><a xlink:title=" ">
<polygon fill="white" stroke="#bfbfbf" points="375.08,-291.5 375.08,-310.5 503.08,-310.5 503.08,-291.5 375.08,-291.5"/>
<text text-anchor="middle" x="439.08" y="-298.5" font-family="Helvetica,sans-Serif" font-size="10.00">ESPAsyncWiFiManager.h</text>
</a>
</g>
</g>
<!-- Node29&#45;&gt;Node31 -->
<g id="edge45" class="edge">
<title>Node29&#45;&gt;Node31</title>
<path fill="none" stroke="midnightblue" d="M616.43,-352.98C580.15,-342.55 518.62,-324.86 478.42,-313.31"/>
<polygon fill="midnightblue" stroke="midnightblue" points="479.27,-309.91 468.69,-310.51 477.33,-316.64 479.27,-309.91"/>
</g>
<!-- Node32 -->
<g id="node32" class="node">
<title>Node32</title>
<g id="a_node32"><a xlink:href="wifi__state_8h.html" target="_top" xlink:title=" ">
<polygon fill="white" stroke="black" points="521.58,-291.5 521.58,-310.5 644.58,-310.5 644.58,-291.5 521.58,-291.5"/>
<text text-anchor="middle" x="583.08" y="-298.5" font-family="Helvetica,sans-Serif" font-size="10.00">sensesp/net/wifi_state.h</text>
</a>
</g>
</g>
<!-- Node29&#45;&gt;Node32 -->
<g id="edge46" class="edge">
<title>Node29&#45;&gt;Node32</title>
<path fill="none" stroke="midnightblue" d="M637.06,-352.98C627.33,-343.78 611.63,-328.96 599.66,-317.66"/>
<polygon fill="midnightblue" stroke="midnightblue" points="601.77,-314.83 592.09,-310.51 596.96,-319.92 601.77,-314.83"/>
</g>
<!-- Node33 -->
<g id="node33" class="node">
<title>Node33</title>
<g id="a_node33"><a xlink:href="resettable_8h.html" target="_top" xlink:title=" ">
<polygon fill="white" stroke="black" points="662.58,-291.5 662.58,-310.5 805.58,-310.5 805.58,-291.5 662.58,-291.5"/>
<text text-anchor="middle" x="734.08" y="-298.5" font-family="Helvetica,sans-Serif" font-size="10.00">sensesp/system/resettable.h</text>
</a>
</g>
</g>
<!-- Node29&#45;&gt;Node33 -->
<g id="edge49" class="edge">
<title>Node29&#45;&gt;Node33</title>
<path fill="none" stroke="midnightblue" d="M658.69,-352.98C672.81,-343.43 695.92,-327.81 712.83,-316.37"/>
<polygon fill="midnightblue" stroke="midnightblue" points="715.18,-319.01 721.5,-310.51 711.25,-313.21 715.18,-319.01"/>
</g>
<!-- Node33&#45;&gt;Node19 -->
<g id="edge50" class="edge">
<title>Node33&#45;&gt;Node19</title>
<path fill="none" stroke="midnightblue" d="M752.62,-291.44C771.71,-282.64 801.66,-268.81 823.52,-258.72"/>
<polygon fill="midnightblue" stroke="midnightblue" points="825.02,-261.88 832.63,-254.52 822.09,-255.53 825.02,-261.88"/>
</g>
</g>
</svg>
