<?xml version="1.0" encoding="UTF-8" standalone="no"?>
<!DOCTYPE svg PUBLIC "-//W3C//DTD SVG 1.1//EN"
 "http://www.w3.org/Graphics/SVG/1.1/DTD/svg11.dtd">
<!-- Generated by graphviz version 2.47.0 (20210316.0004)
 -->
<!-- Title: src/controllers/system_status_controller.h Pages: 1 -->
<!--zoomable 296 -->
<svg id="main" version="1.1" xmlns="http://www.w3.org/2000/svg" xmlns:xlink="http://www.w3.org/1999/xlink" xml:space="preserve" onload="init(evt)">
<style type="text/css"><![CDATA[
.edge:hover path { stroke: red; }
.edge:hover polygon { stroke: red; fill: red; }
]]></style>
<script type="text/javascript"><![CDATA[
var edges = document.getElementsByTagName('g');
if (edges && edges.length) {
  for (var i=0;i<edges.length;i++) {
    if (edges[i].id.substr(0,4)=='edge') {
      edges[i].setAttribute('class','edge');
    }
  }
}
]]></script>
        <defs>
                <circle id="rim" cx="0" cy="0" r="7"/>
                <circle id="rim2" cx="0" cy="0" r="3.5"/>
                <g id="zoomPlus">
                        <use xlink:href="#rim" fill="#404040">
                                <set attributeName="fill" to="#808080" begin="zoomplus.mouseover" end="zoomplus.mouseout"/>
                        </use>
                        <path d="M-4,0h8M0,-4v8" fill="none" stroke="white" stroke-width="1.5" pointer-events="none"/>
                </g>
                <g id="zoomMin">
                        <use xlink:href="#rim" fill="#404040">
                                <set attributeName="fill" to="#808080" begin="zoomminus.mouseover" end="zoomminus.mouseout"/>
                        </use>
                        <path d="M-4,0h8" fill="none" stroke="white" stroke-width="1.5" pointer-events="none"/>
                </g>
                <g id="dirArrow">
                        <path fill="none" stroke="white" stroke-width="1.5" d="M0,-3.0v7 M-2.5,-0.5L0,-3.0L2.5,-0.5"/>
                </g>
               <g id="resetDef">
                       <use xlink:href="#rim2" fill="#404040">
                               <set attributeName="fill" to="#808080" begin="reset.mouseover" end="reset.mouseout"/>
                       </use>
               </g>
        </defs>

<script type="text/javascript">
var viewWidth = 1078;
var viewHeight = 296;
var sectionId = 'dynsection-1';
</script>
<script xlink:href="svgpan.js"/>
<svg id="graph" class="graph">
<g id="viewport">
<title>src/controllers/system_status_controller.h</title>
<polygon fill="white" stroke="transparent" points="-4,4 -4,-292 1073.94,-292 1073.94,4 -4,4"/>
<!-- Node1 -->
<g id="node1" class="node">
<title>Node1</title>
<g id="a_node1"><a xlink:title=" ">
<polygon fill="#bfbfbf" stroke="black" points="525.44,-257.5 525.44,-287.5 638.44,-287.5 638.44,-257.5 525.44,-257.5"/>
<text text-anchor="start" x="533.44" y="-275.5" font-family="Helvetica,sans-Serif" font-size="10.00">src/controllers/system</text>
<text text-anchor="middle" x="581.94" y="-264.5" font-family="Helvetica,sans-Serif" font-size="10.00">_status_controller.h</text>
</a>
</g>
</g>
<!-- Node2 -->
<g id="node2" class="node">
<title>Node2</title>
<g id="a_node2"><a xlink:href="system__status__controller_8cpp.html" target="_top" xlink:title=" ">
<polygon fill="white" stroke="black" points="440.44,-190.5 440.44,-220.5 553.44,-220.5 553.44,-190.5 440.44,-190.5"/>
<text text-anchor="start" x="448.44" y="-208.5" font-family="Helvetica,sans-Serif" font-size="10.00">src/controllers/system</text>
<text text-anchor="middle" x="496.94" y="-197.5" font-family="Helvetica,sans-Serif" font-size="10.00">_status_controller.cpp</text>
</a>
</g>
</g>
<!-- Node1&#45;&gt;Node2 -->
<g id="edge1" class="edge">
<title>Node1&#45;&gt;Node2</title>
<path fill="none" stroke="midnightblue" d="M555.35,-251.17C542.35,-241.23 527.03,-229.51 515.34,-220.58"/>
<polygon fill="midnightblue" stroke="midnightblue" points="553.42,-254.1 563.49,-257.4 557.67,-248.54 553.42,-254.1"/>
</g>
<!-- Node3 -->
<g id="node3" class="node">
<title>Node3</title>
<g id="a_node3"><a xlink:href="sensesp__app_8h.html" target="_top" xlink:title=" ">
<polygon fill="white" stroke="black" points="522.44,-129 522.44,-148 621.44,-148 621.44,-129 522.44,-129"/>
<text text-anchor="middle" x="571.94" y="-136" font-family="Helvetica,sans-Serif" font-size="10.00">src/sensesp_app.h</text>
</a>
</g>
</g>
<!-- Node1&#45;&gt;Node3 -->
<g id="edge2" class="edge">
<title>Node1&#45;&gt;Node3</title>
<path fill="none" stroke="midnightblue" d="M580.1,-247.32C577.84,-217.38 574.09,-167.91 572.59,-148.1"/>
<polygon fill="midnightblue" stroke="midnightblue" points="576.62,-247.67 580.87,-257.37 583.6,-247.14 576.62,-247.67"/>
</g>
<!-- Node14 -->
<g id="node14" class="node">
<title>Node14</title>
<g id="a_node14"><a xlink:href="system__status__led_8h.html" target="_top" xlink:title=" ">
<polygon fill="white" stroke="black" points="629.44,-190.5 629.44,-220.5 762.44,-220.5 762.44,-190.5 629.44,-190.5"/>
<text text-anchor="start" x="637.44" y="-208.5" font-family="Helvetica,sans-Serif" font-size="10.00">src/system/system_status</text>
<text text-anchor="middle" x="695.94" y="-197.5" font-family="Helvetica,sans-Serif" font-size="10.00">_led.h</text>
</a>
</g>
</g>
<!-- Node1&#45;&gt;Node14 -->
<g id="edge15" class="edge">
<title>Node1&#45;&gt;Node14</title>
<path fill="none" stroke="midnightblue" d="M615.62,-252.3C633.46,-242.12 654.98,-229.85 671.25,-220.58"/>
<polygon fill="midnightblue" stroke="midnightblue" points="613.63,-249.4 606.67,-257.4 617.09,-255.48 613.63,-249.4"/>
</g>
<!-- Node4 -->
<g id="node4" class="node">
<title>Node4</title>
<g id="a_node4"><a xlink:href="main_8cpp.html" target="_top" xlink:title=" ">
<polygon fill="white" stroke="black" points="367.44,-0.5 367.44,-19.5 440.44,-19.5 440.44,-0.5 367.44,-0.5"/>
<text text-anchor="middle" x="403.94" y="-7.5" font-family="Helvetica,sans-Serif" font-size="10.00">src/main.cpp</text>
</a>
</g>
</g>
<!-- Node3&#45;&gt;Node4 -->
<g id="edge3" class="edge">
<title>Node3&#45;&gt;Node4</title>
<path fill="none" stroke="midnightblue" d="M512,-136.61C373.5,-133.94 40.53,-123.73 6.94,-87 -2.36,-76.83 -2.24,-66.28 6.94,-56 30.73,-29.36 273.3,-16.45 367.14,-12.43"/>
<polygon fill="midnightblue" stroke="midnightblue" points="511.96,-140.11 522.02,-136.8 512.09,-133.11 511.96,-140.11"/>
</g>
<!-- Node5 -->
<g id="node5" class="node">
<title>Node5</title>
<g id="a_node5"><a xlink:href="http_8cpp.html" target="_top" xlink:title=" ">
<polygon fill="white" stroke="black" points="16.44,-62 16.44,-81 101.44,-81 101.44,-62 16.44,-62"/>
<text text-anchor="middle" x="58.94" y="-69" font-family="Helvetica,sans-Serif" font-size="10.00">src/net/http.cpp</text>
</a>
</g>
</g>
<!-- Node3&#45;&gt;Node5 -->
<g id="edge4" class="edge">
<title>Node3&#45;&gt;Node5</title>
<path fill="none" stroke="midnightblue" d="M512.32,-134.08C424.02,-128.32 253.52,-114.5 110.94,-87 102.84,-85.44 94.16,-83.24 86.26,-81.02"/>
<polygon fill="midnightblue" stroke="midnightblue" points="512.22,-137.58 522.42,-134.73 512.66,-130.6 512.22,-137.58"/>
</g>
<!-- Node6 -->
<g id="node6" class="node">
<title>Node6</title>
<g id="a_node6"><a xlink:href="ws__client_8cpp.html" target="_top" xlink:title=" ">
<polygon fill="white" stroke="black" points="119.94,-62 119.94,-81 229.94,-81 229.94,-62 119.94,-62"/>
<text text-anchor="middle" x="174.94" y="-69" font-family="Helvetica,sans-Serif" font-size="10.00">src/net/ws_client.cpp</text>
</a>
</g>
</g>
<!-- Node3&#45;&gt;Node6 -->
<g id="edge5" class="edge">
<title>Node3&#45;&gt;Node6</title>
<path fill="none" stroke="midnightblue" d="M512.46,-129.8C445.67,-120.85 334.17,-104.98 238.94,-87 229.64,-85.25 219.65,-83.1 210.39,-81.01"/>
<polygon fill="midnightblue" stroke="midnightblue" points="512.01,-133.27 522.38,-131.12 512.93,-126.33 512.01,-133.27"/>
</g>
<!-- Node7 -->
<g id="node7" class="node">
<title>Node7</title>
<g id="a_node7"><a xlink:href="sensesp__app_8cpp.html" target="_top" xlink:title=" ">
<polygon fill="white" stroke="black" points="959.94,-62 959.94,-81 1069.94,-81 1069.94,-62 959.94,-62"/>
<text text-anchor="middle" x="1014.94" y="-69" font-family="Helvetica,sans-Serif" font-size="10.00">src/sensesp_app.cpp</text>
</a>
</g>
</g>
<!-- Node3&#45;&gt;Node7 -->
<g id="edge6" class="edge">
<title>Node3&#45;&gt;Node7</title>
<path fill="none" stroke="midnightblue" d="M612.86,-126.56C618.57,-125.24 624.38,-124.01 629.94,-123 769.03,-97.8 806.39,-109.56 945.94,-87 956.21,-85.34 967.26,-83.18 977.45,-81.04"/>
<polygon fill="midnightblue" stroke="midnightblue" points="611.68,-123.24 602.78,-128.99 613.32,-130.05 611.68,-123.24"/>
</g>
<!-- Node8 -->
<g id="node8" class="node">
<title>Node8</title>
<g id="a_node8"><a xlink:href="sensesp__app__builder_8h.html" target="_top" xlink:title=" ">
<polygon fill="white" stroke="black" points="247.94,-62 247.94,-81 379.94,-81 379.94,-62 247.94,-62"/>
<text text-anchor="middle" x="313.94" y="-69" font-family="Helvetica,sans-Serif" font-size="10.00">src/sensesp_app_builder.h</text>
</a>
</g>
</g>
<!-- Node3&#45;&gt;Node8 -->
<g id="edge7" class="edge">
<title>Node3&#45;&gt;Node8</title>
<path fill="none" stroke="midnightblue" d="M528.21,-126.48C477.32,-113.66 394.35,-92.76 348.01,-81.08"/>
<polygon fill="midnightblue" stroke="midnightblue" points="527.39,-129.89 537.94,-128.94 529.1,-123.1 527.39,-129.89"/>
</g>
<!-- Node9 -->
<g id="node9" class="node">
<title>Node9</title>
<g id="a_node9"><a xlink:href="signalk__put__request_8cpp.html" target="_top" xlink:title=" ">
<polygon fill="white" stroke="black" points="397.94,-56.5 397.94,-86.5 495.94,-86.5 495.94,-56.5 397.94,-56.5"/>
<text text-anchor="start" x="405.94" y="-74.5" font-family="Helvetica,sans-Serif" font-size="10.00">src/signalk/signalk</text>
<text text-anchor="middle" x="446.94" y="-63.5" font-family="Helvetica,sans-Serif" font-size="10.00">_put_request.cpp</text>
</a>
</g>
</g>
<!-- Node3&#45;&gt;Node9 -->
<g id="edge8" class="edge">
<title>Node3&#45;&gt;Node9</title>
<path fill="none" stroke="midnightblue" d="M546.35,-124.19C525.32,-113.26 495.61,-97.81 474.15,-86.65"/>
<polygon fill="midnightblue" stroke="midnightblue" points="544.85,-127.36 555.34,-128.87 548.08,-121.15 544.85,-127.36"/>
</g>
<!-- Node10 -->
<g id="node10" class="node">
<title>Node10</title>
<g id="a_node10"><a xlink:href="enable_8cpp.html" target="_top" xlink:title=" ">
<polygon fill="white" stroke="black" points="513.94,-62 513.94,-81 629.94,-81 629.94,-62 513.94,-62"/>
<text text-anchor="middle" x="571.94" y="-69" font-family="Helvetica,sans-Serif" font-size="10.00">src/system/enable.cpp</text>
</a>
</g>
</g>
<!-- Node3&#45;&gt;Node10 -->
<g id="edge9" class="edge">
<title>Node3&#45;&gt;Node10</title>
<path fill="none" stroke="midnightblue" d="M571.94,-118.54C571.94,-106.17 571.94,-90.62 571.94,-81.13"/>
<polygon fill="midnightblue" stroke="midnightblue" points="568.44,-118.73 571.94,-128.73 575.44,-118.73 568.44,-118.73"/>
</g>
<!-- Node11 -->
<g id="node11" class="node">
<title>Node11</title>
<g id="a_node11"><a xlink:href="led__blinker_8cpp.html" target="_top" xlink:title=" ">
<polygon fill="white" stroke="black" points="648.44,-62 648.44,-81 781.44,-81 781.44,-62 648.44,-62"/>
<text text-anchor="middle" x="714.94" y="-69" font-family="Helvetica,sans-Serif" font-size="10.00">src/system/led_blinker.cpp</text>
</a>
</g>
</g>
<!-- Node3&#45;&gt;Node11 -->
<g id="edge10" class="edge">
<title>Node3&#45;&gt;Node11</title>
<path fill="none" stroke="midnightblue" d="M600.29,-124.61C628.61,-111.74 671.36,-92.31 695.87,-81.17"/>
<polygon fill="midnightblue" stroke="midnightblue" points="598.58,-121.54 590.93,-128.87 601.48,-127.92 598.58,-121.54"/>
</g>
<!-- Node12 -->
<g id="node12" class="node">
<title>Node12</title>
<g id="a_node12"><a xlink:href="wiring__helpers_8cpp.html" target="_top" xlink:title=" ">
<polygon fill="white" stroke="black" points="834.94,-0.5 834.94,-19.5 948.94,-19.5 948.94,-0.5 834.94,-0.5"/>
<text text-anchor="middle" x="891.94" y="-7.5" font-family="Helvetica,sans-Serif" font-size="10.00">src/wiring_helpers.cpp</text>
</a>
</g>
</g>
<!-- Node3&#45;&gt;Node12 -->
<g id="edge11" class="edge">
<title>Node3&#45;&gt;Node12</title>
<path fill="none" stroke="midnightblue" d="M613.07,-126.58C618.72,-125.27 624.45,-124.03 629.94,-123 692.24,-111.29 871.03,-134.57 912.94,-87 930.13,-67.48 910.23,-35.07 898.83,-19.66"/>
<polygon fill="midnightblue" stroke="midnightblue" points="611.99,-123.24 603.09,-128.99 613.63,-130.04 611.99,-123.24"/>
</g>
<!-- Node13 -->
<g id="node13" class="node">
<title>Node13</title>
<g id="a_node13"><a xlink:href="wiring__helpers_8h.html" target="_top" xlink:title=" ">
<polygon fill="white" stroke="black" points="799.94,-62 799.94,-81 903.94,-81 903.94,-62 799.94,-62"/>
<text text-anchor="middle" x="851.94" y="-69" font-family="Helvetica,sans-Serif" font-size="10.00">src/wiring_helpers.h</text>
</a>
</g>
</g>
<!-- Node3&#45;&gt;Node13 -->
<g id="edge12" class="edge">
<title>Node3&#45;&gt;Node13</title>
<path fill="none" stroke="midnightblue" d="M615.33,-126.53C620.25,-125.32 625.2,-124.12 629.94,-123 701.29,-106.11 719.49,-103.48 790.94,-87 799.21,-85.09 808.1,-83 816.47,-81.01"/>
<polygon fill="midnightblue" stroke="midnightblue" points="614.2,-123.2 605.33,-129 615.88,-130 614.2,-123.2"/>
</g>
<!-- Node13&#45;&gt;Node4 -->
<g id="edge13" class="edge">
<title>Node13&#45;&gt;Node4</title>
<path fill="none" stroke="midnightblue" d="M809.11,-59.65C803.03,-58.31 796.84,-57.04 790.94,-56 663.21,-33.47 509.7,-19.45 440.69,-13.82"/>
<polygon fill="midnightblue" stroke="midnightblue" points="808.63,-63.13 819.16,-61.96 810.2,-56.31 808.63,-63.13"/>
</g>
<!-- Node13&#45;&gt;Node12 -->
<g id="edge14" class="edge">
<title>Node13&#45;&gt;Node12</title>
<path fill="none" stroke="midnightblue" d="M863.36,-53.51C870.83,-42.39 880.28,-28.34 886.22,-19.51"/>
<polygon fill="midnightblue" stroke="midnightblue" points="860.34,-51.72 857.67,-61.98 866.15,-55.63 860.34,-51.72"/>
</g>
<!-- Node14&#45;&gt;Node3 -->
<g id="edge17" class="edge">
<title>Node14&#45;&gt;Node3</title>
<path fill="none" stroke="midnightblue" d="M659.95,-185.64C636.23,-173.2 606.3,-157.51 588.16,-148.01"/>
<polygon fill="midnightblue" stroke="midnightblue" points="658.55,-188.85 669.03,-190.4 661.8,-182.65 658.55,-188.85"/>
</g>
<!-- Node14&#45;&gt;Node7 -->
<g id="edge16" class="edge">
<title>Node14&#45;&gt;Node7</title>
<path fill="none" stroke="midnightblue" d="M739.13,-186.62C808.63,-157.87 942.65,-102.41 994.11,-81.12"/>
<polygon fill="midnightblue" stroke="midnightblue" points="737.67,-183.44 729.77,-190.5 740.35,-189.91 737.67,-183.44"/>
</g>
<!-- Node15 -->
<g id="node15" class="node">
<title>Node15</title>
<g id="a_node15"><a xlink:href="system__status__led_8cpp.html" target="_top" xlink:title=" ">
<polygon fill="white" stroke="black" points="639.44,-123.5 639.44,-153.5 772.44,-153.5 772.44,-123.5 639.44,-123.5"/>
<text text-anchor="start" x="647.44" y="-141.5" font-family="Helvetica,sans-Serif" font-size="10.00">src/system/system_status</text>
<text text-anchor="middle" x="705.94" y="-130.5" font-family="Helvetica,sans-Serif" font-size="10.00">_led.cpp</text>
</a>
</g>
</g>
<!-- Node14&#45;&gt;Node15 -->
<g id="edge18" class="edge">
<title>Node14&#45;&gt;Node15</title>
<path fill="none" stroke="midnightblue" d="M699.64,-180.4C701.03,-171.37 702.57,-161.41 703.77,-153.58"/>
<polygon fill="midnightblue" stroke="midnightblue" points="696.17,-179.98 698.11,-190.4 703.09,-181.04 696.17,-179.98"/>
</g>
</g>
</svg>
        <g id="navigator" transform="translate(0 0)" fill="#404254">
                <rect fill="#f2f5e9" fill-opacity="0.5" stroke="#606060" stroke-width=".5" x="0" y="0" width="60" height="60"/>
                <use id="zoomplus" xlink:href="#zoomPlus" x="17" y="9" onmousedown="handleZoom(evt,'in')"/>
                <use id="zoomminus" xlink:href="#zoomMin" x="42" y="9" onmousedown="handleZoom(evt,'out')"/>
                <use id="reset" xlink:href="#resetDef" x="30" y="36" onmousedown="handleReset()"/>
                <g id="arrowUp" xlink:href="#dirArrow" transform="translate(30 24)" onmousedown="handlePan(0,-1)">
                  <use xlink:href="#rim" fill="#404040">
                        <set attributeName="fill" to="#808080" begin="arrowUp.mouseover" end="arrowUp.mouseout"/>
                  </use>
                  <path fill="none" stroke="white" stroke-width="1.5" d="M0,-3.0v7 M-2.5,-0.5L0,-3.0L2.5,-0.5"/>
                </g>
                <g id="arrowRight" xlink:href="#dirArrow" transform="rotate(90) translate(36 -43)" onmousedown="handlePan(1,0)">
                  <use xlink:href="#rim" fill="#404040">
                        <set attributeName="fill" to="#808080" begin="arrowRight.mouseover" end="arrowRight.mouseout"/>
                  </use>
                  <path fill="none" stroke="white" stroke-width="1.5" d="M0,-3.0v7 M-2.5,-0.5L0,-3.0L2.5,-0.5"/>
                </g>
                <g id="arrowDown" xlink:href="#dirArrow" transform="rotate(180) translate(-30 -48)" onmousedown="handlePan(0,1)">
                  <use xlink:href="#rim" fill="#404040">
                        <set attributeName="fill" to="#808080" begin="arrowDown.mouseover" end="arrowDown.mouseout"/>
                  </use>
                  <path fill="none" stroke="white" stroke-width="1.5" d="M0,-3.0v7 M-2.5,-0.5L0,-3.0L2.5,-0.5"/>
                </g>
                <g id="arrowLeft" xlink:href="#dirArrow" transform="rotate(270) translate(-36 17)" onmousedown="handlePan(-1,0)">
                  <use xlink:href="#rim" fill="#404040">
                        <set attributeName="fill" to="#808080" begin="arrowLeft.mouseover" end="arrowLeft.mouseout"/>
                  </use>
                  <path fill="none" stroke="white" stroke-width="1.5" d="M0,-3.0v7 M-2.5,-0.5L0,-3.0L2.5,-0.5"/>
                </g>
        </g>
        <svg viewBox="0 0 15 15" width="100%" height="30px" preserveAspectRatio="xMaxYMin meet">
         <g id="arrow_out" transform="scale(0.3 0.3)">
          <a xlink:href="system__status__controller_8h__dep__incl_org.svg" target="_base">
           <rect id="button" ry="5" rx="5" y="6" x="6" height="38" width="38"
                fill="#f2f5e9" fill-opacity="0.5" stroke="#606060" stroke-width="1.0"/>
           <path id="arrow"
             d="M 11.500037,31.436501 C 11.940474,20.09759 22.043105,11.32322 32.158766,21.979434 L 37.068811,17.246167 C 37.068811,17.246167 37.088388,32 37.088388,32 L 22.160133,31.978069 C 22.160133,31.978069 26.997745,27.140456 26.997745,27.140456 C 18.528582,18.264221 13.291696,25.230495 11.500037,31.436501 z"
             style="fill:#404040;"/>
          </a>
         </g>
        </svg>
</svg>
