<?xml version="1.0" encoding="UTF-8" standalone="no"?>
<!DOCTYPE svg PUBLIC "-//W3C//DTD SVG 1.1//EN"
 "http://www.w3.org/Graphics/SVG/1.1/DTD/svg11.dtd">
<!-- Generated by graphviz version 2.40.1 (20161225.0304)
 -->
<!-- Title: src/sensors/system_info.cpp Pages: 1 -->
<svg width="654pt" height="367pt"
 viewBox="0.00 0.00 654.19 367.00" xmlns="http://www.w3.org/2000/svg" xmlns:xlink="http://www.w3.org/1999/xlink">
<g id="graph0" class="graph" transform="scale(1 1) rotate(0) translate(4 363)">
<title>src/sensors/system_info.cpp</title>
<polygon fill="#ffffff" stroke="transparent" points="-4,4 -4,-363 650.1895,-363 650.1895,4 -4,4"/>
<!-- Node0 -->
<g id="node1" class="node">
<title>Node0</title>
<g id="a_node1"><a xlink:title=" ">
<polygon fill="#bfbfbf" stroke="#000000" points="544.6182,-330.5 544.6182,-358.5 646.1895,-358.5 646.1895,-330.5 544.6182,-330.5"/>
<text text-anchor="start" x="552.6182" y="-346.5" font-family="Helvetica,sans-Serif" font-size="10.00" fill="#000000">src/sensors/system</text>
<text text-anchor="middle" x="595.4038" y="-336.5" font-family="Helvetica,sans-Serif" font-size="10.00" fill="#000000">_info.cpp</text>
</a>
</g>
</g>
<!-- Node1 -->
<g id="node2" class="node">
<title>Node1</title>
<g id="a_node2"><a xlink:href="system__info_8h.html" target="_top" xlink:title=" ">
<polygon fill="#ffffff" stroke="#000000" points="414.5566,-275.5 414.5566,-293.5 492.251,-293.5 492.251,-275.5 414.5566,-275.5"/>
<text text-anchor="middle" x="453.4038" y="-281.5" font-family="Helvetica,sans-Serif" font-size="10.00" fill="#000000">system_info.h</text>
</a>
</g>
</g>
<!-- Node0&#45;&gt;Node1 -->
<g id="edge1" class="edge">
<title>Node0&#45;&gt;Node1</title>
<path fill="none" stroke="#191970" d="M562.1111,-330.4327C538.5844,-320.4918 507.2762,-307.263 484.3025,-297.5558"/>
<polygon fill="#191970" stroke="#191970" points="485.5877,-294.2993 475.014,-293.6311 482.8632,-300.7473 485.5877,-294.2993"/>
</g>
<!-- Node7 -->
<g id="node8" class="node">
<title>Node7</title>
<g id="a_node8"><a xlink:title=" ">
<polygon fill="#ffffff" stroke="#bfbfbf" points="557,-110.5 557,-128.5 615.8076,-128.5 615.8076,-110.5 557,-110.5"/>
<text text-anchor="middle" x="586.4038" y="-116.5" font-family="Helvetica,sans-Serif" font-size="10.00" fill="#000000">Arduino.h</text>
</a>
</g>
</g>
<!-- Node0&#45;&gt;Node7 -->
<g id="edge25" class="edge">
<title>Node0&#45;&gt;Node7</title>
<path fill="none" stroke="#191970" d="M594.8408,-330.4252C593.2902,-291.661 588.955,-183.2802 587.1783,-138.8615"/>
<polygon fill="#191970" stroke="#191970" points="590.6729,-138.6559 586.776,-128.8039 583.6785,-138.9358 590.6729,-138.6559"/>
</g>
<!-- Node15 -->
<g id="node16" class="node">
<title>Node15</title>
<g id="a_node16"><a xlink:href="sensesp_8h.html" target="_top" xlink:title=" ">
<polygon fill="#ffffff" stroke="#000000" points="407.6108,-55.5 407.6108,-73.5 469.1968,-73.5 469.1968,-55.5 407.6108,-55.5"/>
<text text-anchor="middle" x="438.4038" y="-61.5" font-family="Helvetica,sans-Serif" font-size="10.00" fill="#000000">sensesp.h</text>
</a>
</g>
</g>
<!-- Node0&#45;&gt;Node15 -->
<g id="edge26" class="edge">
<title>Node0&#45;&gt;Node15</title>
<path fill="none" stroke="#191970" d="M605.5834,-330.408C619.6733,-309.4762 643.4038,-268.4423 643.4038,-229.5 643.4038,-229.5 643.4038,-229.5 643.4038,-174.5 643.4038,-144.6154 646.0215,-130.634 624.4038,-110 623.066,-108.723 533.6387,-87.2182 479.2865,-74.2366"/>
<polygon fill="#191970" stroke="#191970" points="479.7871,-70.7578 469.2477,-71.8405 478.1619,-77.5665 479.7871,-70.7578"/>
</g>
<!-- Node2 -->
<g id="node3" class="node">
<title>Node2</title>
<g id="a_node3"><a xlink:href="sensor_8h.html" target="_top" xlink:title=" ">
<polygon fill="#ffffff" stroke="#000000" points="388.5,-220.5 388.5,-238.5 442.3076,-238.5 442.3076,-220.5 388.5,-220.5"/>
<text text-anchor="middle" x="415.4038" y="-226.5" font-family="Helvetica,sans-Serif" font-size="10.00" fill="#000000">sensor.h</text>
</a>
</g>
</g>
<!-- Node1&#45;&gt;Node2 -->
<g id="edge2" class="edge">
<title>Node1&#45;&gt;Node2</title>
<path fill="none" stroke="#191970" d="M447.1289,-275.4179C441.8252,-267.7415 434.0734,-256.5217 427.56,-247.0945"/>
<polygon fill="#191970" stroke="#191970" points="430.379,-245.0173 421.8151,-238.7795 424.6199,-248.9963 430.379,-245.0173"/>
</g>
<!-- Node3 -->
<g id="node4" class="node">
<title>Node3</title>
<g id="a_node4"><a xlink:title=" ">
<polygon fill="#ffffff" stroke="#bfbfbf" points="537.7339,-165.5 537.7339,-183.5 567.0737,-183.5 567.0737,-165.5 537.7339,-165.5"/>
<text text-anchor="middle" x="552.4038" y="-171.5" font-family="Helvetica,sans-Serif" font-size="10.00" fill="#000000">set</text>
</a>
</g>
</g>
<!-- Node2&#45;&gt;Node3 -->
<g id="edge3" class="edge">
<title>Node2&#45;&gt;Node3</title>
<path fill="none" stroke="#191970" d="M438.5803,-220.3436C459.7459,-211.9614 492.1328,-199.0849 527.7117,-184.6618"/>
<polygon fill="#191970" stroke="#191970" points="529.372,-187.7652 537.3206,-180.7602 526.7385,-181.2794 529.372,-187.7652"/>
</g>
<!-- Node4 -->
<g id="node5" class="node">
<title>Node4</title>
<g id="a_node5"><a xlink:href="configurable_8h.html" target="_top" xlink:title=" ">
<polygon fill="#ffffff" stroke="#000000" points="406.7686,-165.5 406.7686,-183.5 520.0391,-183.5 520.0391,-165.5 406.7686,-165.5"/>
<text text-anchor="middle" x="463.4038" y="-171.5" font-family="Helvetica,sans-Serif" font-size="10.00" fill="#000000">system/configurable.h</text>
</a>
</g>
</g>
<!-- Node2&#45;&gt;Node4 -->
<g id="edge4" class="edge">
<title>Node2&#45;&gt;Node4</title>
<path fill="none" stroke="#191970" d="M423.33,-220.4179C430.1675,-212.5833 440.2263,-201.0575 448.5555,-191.5137"/>
<polygon fill="#191970" stroke="#191970" points="451.367,-193.6151 455.3054,-183.7795 446.093,-189.0123 451.367,-193.6151"/>
</g>
<!-- Node8 -->
<g id="node9" class="node">
<title>Node8</title>
<g id="a_node9"><a xlink:href="observable_8h.html" target="_top" xlink:title=" ">
<polygon fill="#ffffff" stroke="#000000" points="85.5493,-110.5 85.5493,-128.5 193.2583,-128.5 193.2583,-110.5 85.5493,-110.5"/>
<text text-anchor="middle" x="139.4038" y="-116.5" font-family="Helvetica,sans-Serif" font-size="10.00" fill="#000000">system/observable.h</text>
</a>
</g>
</g>
<!-- Node2&#45;&gt;Node8 -->
<g id="edge8" class="edge">
<title>Node2&#45;&gt;Node8</title>
<path fill="none" stroke="#191970" d="M388.3963,-228.2947C346.9496,-225.451 266.1882,-215.917 206.4038,-184 184.4957,-172.304 164.7269,-151.3783 152.4355,-136.5361"/>
<polygon fill="#191970" stroke="#191970" points="155.0814,-134.2407 146.1029,-128.616 149.6141,-138.6121 155.0814,-134.2407"/>
</g>
<!-- Node12 -->
<g id="node13" class="node">
<title>Node12</title>
<g id="a_node13"><a xlink:href="valueproducer_8h.html" target="_top" xlink:title=" ">
<polygon fill="#ffffff" stroke="#000000" points="215.5962,-165.5 215.5962,-183.5 337.2114,-183.5 337.2114,-165.5 215.5962,-165.5"/>
<text text-anchor="middle" x="276.4038" y="-171.5" font-family="Helvetica,sans-Serif" font-size="10.00" fill="#000000">system/valueproducer.h</text>
</a>
</g>
</g>
<!-- Node2&#45;&gt;Node12 -->
<g id="edge12" class="edge">
<title>Node2&#45;&gt;Node12</title>
<path fill="none" stroke="#191970" d="M392.4508,-220.4179C369.6138,-211.3817 334.3675,-197.4353 308.7093,-187.2828"/>
<polygon fill="#191970" stroke="#191970" points="309.9773,-184.0205 299.3909,-183.5956 307.4017,-190.5295 309.9773,-184.0205"/>
</g>
<!-- Node18 -->
<g id="node19" class="node">
<title>Node18</title>
<g id="a_node19"><a xlink:href="enable_8h.html" target="_top" xlink:title=" ">
<polygon fill="#ffffff" stroke="#000000" points="396.9951,-110.5 396.9951,-128.5 485.8125,-128.5 485.8125,-110.5 396.9951,-110.5"/>
<text text-anchor="middle" x="441.4038" y="-116.5" font-family="Helvetica,sans-Serif" font-size="10.00" fill="#000000">system/enable.h</text>
</a>
</g>
</g>
<!-- Node2&#45;&gt;Node18 -->
<g id="edge21" class="edge">
<title>Node2&#45;&gt;Node18</title>
<path fill="none" stroke="#191970" d="M408.9815,-220.0975C401.1169,-207.3418 389.7322,-183.9688 397.4038,-165 402.1354,-153.3007 411.4767,-142.9414 420.3395,-135.0742"/>
<polygon fill="#191970" stroke="#191970" points="422.7173,-137.6499 428.1985,-128.583 418.2595,-132.2528 422.7173,-137.6499"/>
</g>
<!-- Node5 -->
<g id="node6" class="node">
<title>Node5</title>
<g id="a_node6"><a xlink:title=" ">
<polygon fill="#ffffff" stroke="#bfbfbf" points="223.4385,-55.5 223.4385,-73.5 303.3691,-73.5 303.3691,-55.5 223.4385,-55.5"/>
<text text-anchor="middle" x="263.4038" y="-61.5" font-family="Helvetica,sans-Serif" font-size="10.00" fill="#000000">ArduinoJson.h</text>
</a>
</g>
</g>
<!-- Node4&#45;&gt;Node5 -->
<g id="edge5" class="edge">
<title>Node4&#45;&gt;Node5</title>
<path fill="none" stroke="#191970" d="M406.7578,-167.1457C359.1999,-159.8235 296.2399,-147.0633 278.4038,-129 266.8033,-117.2517 263.4976,-98.3868 262.8309,-84.0868"/>
<polygon fill="#191970" stroke="#191970" points="266.3289,-83.7938 262.754,-73.8203 259.3291,-83.8463 266.3289,-83.7938"/>
</g>
<!-- Node6 -->
<g id="node7" class="node">
<title>Node6</title>
<g id="a_node7"><a xlink:title=" ">
<polygon fill="#ffffff" stroke="#bfbfbf" points="503.6772,-110.5 503.6772,-128.5 539.1304,-128.5 539.1304,-110.5 503.6772,-110.5"/>
<text text-anchor="middle" x="521.4038" y="-116.5" font-family="Helvetica,sans-Serif" font-size="10.00" fill="#000000">map</text>
</a>
</g>
</g>
<!-- Node4&#45;&gt;Node6 -->
<g id="edge6" class="edge">
<title>Node4&#45;&gt;Node6</title>
<path fill="none" stroke="#191970" d="M472.9813,-165.4179C481.4102,-157.425 493.8904,-145.5903 504.0695,-135.9377"/>
<polygon fill="#191970" stroke="#191970" points="506.7703,-138.2001 511.6182,-128.7795 501.9536,-133.1207 506.7703,-138.2001"/>
</g>
<!-- Node4&#45;&gt;Node7 -->
<g id="edge7" class="edge">
<title>Node4&#45;&gt;Node7</title>
<path fill="none" stroke="#191970" d="M483.7148,-165.4179C503.6559,-156.5011 534.2897,-142.803 556.9123,-132.6873"/>
<polygon fill="#191970" stroke="#191970" points="558.3625,-135.8728 566.0627,-128.5956 555.505,-129.4826 558.3625,-135.8728"/>
</g>
<!-- Node9 -->
<g id="node10" class="node">
<title>Node9</title>
<g id="a_node10"><a xlink:title=" ">
<polygon fill="#ffffff" stroke="#bfbfbf" points="137.8398,-55.5 137.8398,-73.5 204.9678,-73.5 204.9678,-55.5 137.8398,-55.5"/>
<text text-anchor="middle" x="171.4038" y="-61.5" font-family="Helvetica,sans-Serif" font-size="10.00" fill="#000000">forward_list</text>
</a>
</g>
</g>
<!-- Node8&#45;&gt;Node9 -->
<g id="edge9" class="edge">
<title>Node8&#45;&gt;Node9</title>
<path fill="none" stroke="#191970" d="M144.688,-110.4179C149.0621,-102.8998 155.4138,-91.9829 160.8264,-82.6799"/>
<polygon fill="#191970" stroke="#191970" points="164.0011,-84.1831 166.0049,-73.7795 157.9506,-80.6628 164.0011,-84.1831"/>
</g>
<!-- Node10 -->
<g id="node11" class="node">
<title>Node10</title>
<g id="a_node11"><a xlink:title=" ">
<polygon fill="#ffffff" stroke="#bfbfbf" points="0,-55.5 0,-73.5 58.8076,-73.5 58.8076,-55.5 0,-55.5"/>
<text text-anchor="middle" x="29.4038" y="-61.5" font-family="Helvetica,sans-Serif" font-size="10.00" fill="#000000">functional</text>
</a>
</g>
</g>
<!-- Node8&#45;&gt;Node10 -->
<g id="edge10" class="edge">
<title>Node8&#45;&gt;Node10</title>
<path fill="none" stroke="#191970" d="M121.2395,-110.4179C103.6448,-101.6205 76.742,-88.1691 56.595,-78.0956"/>
<polygon fill="#191970" stroke="#191970" points="58.1046,-74.9373 47.5951,-73.5956 54.9741,-81.1983 58.1046,-74.9373"/>
</g>
<!-- Node11 -->
<g id="node12" class="node">
<title>Node11</title>
<g id="a_node12"><a xlink:title=" ">
<polygon fill="#ffffff" stroke="#bfbfbf" points="76.7881,-55.5 76.7881,-73.5 120.0195,-73.5 120.0195,-55.5 76.7881,-55.5"/>
<text text-anchor="middle" x="98.4038" y="-61.5" font-family="Helvetica,sans-Serif" font-size="10.00" fill="#000000">vector</text>
</a>
</g>
</g>
<!-- Node8&#45;&gt;Node11 -->
<g id="edge11" class="edge">
<title>Node8&#45;&gt;Node11</title>
<path fill="none" stroke="#191970" d="M132.6335,-110.4179C126.8521,-102.6624 118.3745,-91.29 111.3028,-81.8035"/>
<polygon fill="#191970" stroke="#191970" points="114.104,-79.7051 105.3212,-73.7795 108.4918,-83.8888 114.104,-79.7051"/>
</g>
<!-- Node12&#45;&gt;Node5 -->
<g id="edge13" class="edge">
<title>Node12&#45;&gt;Node5</title>
<path fill="none" stroke="#191970" d="M267.6268,-165.2857C260.0777,-156.6749 249.7404,-143.0668 245.4038,-129 240.6003,-113.4185 246.4625,-95.5505 252.7458,-82.5781"/>
<polygon fill="#191970" stroke="#191970" points="255.8463,-84.202 257.463,-73.7312 249.6695,-80.9084 255.8463,-84.202"/>
</g>
<!-- Node12&#45;&gt;Node8 -->
<g id="edge14" class="edge">
<title>Node12&#45;&gt;Node8</title>
<path fill="none" stroke="#191970" d="M253.781,-165.4179C231.3718,-156.4215 196.8393,-142.5581 171.5793,-132.4172"/>
<polygon fill="#191970" stroke="#191970" points="172.6443,-129.0732 162.0602,-128.5956 170.0363,-135.5693 172.6443,-129.0732"/>
</g>
<!-- Node13 -->
<g id="node14" class="node">
<title>Node13</title>
<g id="a_node14"><a xlink:href="valueconsumer_8h.html" target="_top" xlink:title=" ">
<polygon fill="#ffffff" stroke="#000000" points="287.6011,-110.5 287.6011,-128.5 379.2065,-128.5 379.2065,-110.5 287.6011,-110.5"/>
<text text-anchor="middle" x="333.4038" y="-116.5" font-family="Helvetica,sans-Serif" font-size="10.00" fill="#000000">valueconsumer.h</text>
</a>
</g>
</g>
<!-- Node12&#45;&gt;Node13 -->
<g id="edge15" class="edge">
<title>Node12&#45;&gt;Node13</title>
<path fill="none" stroke="#191970" d="M285.8162,-165.4179C294.0997,-157.425 306.3647,-145.5903 316.3683,-135.9377"/>
<polygon fill="#191970" stroke="#191970" points="319.021,-138.2419 323.7869,-128.7795 314.1604,-133.2045 319.021,-138.2419"/>
</g>
<!-- Node13&#45;&gt;Node5 -->
<g id="edge16" class="edge">
<title>Node13&#45;&gt;Node5</title>
<path fill="none" stroke="#191970" d="M321.8447,-110.4179C311.3698,-102.1876 295.7106,-89.8839 283.2374,-80.0836"/>
<polygon fill="#191970" stroke="#191970" points="285.2396,-77.2056 275.214,-73.7795 280.9148,-82.7098 285.2396,-77.2056"/>
</g>
<!-- Node14 -->
<g id="node15" class="node">
<title>Node14</title>
<g id="a_node15"><a xlink:title=" ">
<polygon fill="#ffffff" stroke="#bfbfbf" points="334.2832,-55.5 334.2832,-73.5 382.5244,-73.5 382.5244,-55.5 334.2832,-55.5"/>
<text text-anchor="middle" x="358.4038" y="-61.5" font-family="Helvetica,sans-Serif" font-size="10.00" fill="#000000">stdint.h</text>
</a>
</g>
</g>
<!-- Node13&#45;&gt;Node14 -->
<g id="edge17" class="edge">
<title>Node13&#45;&gt;Node14</title>
<path fill="none" stroke="#191970" d="M337.5321,-110.4179C340.9134,-102.9789 345.8073,-92.2123 350.0065,-82.9742"/>
<polygon fill="#191970" stroke="#191970" points="353.2341,-84.3315 354.1859,-73.7795 346.8615,-81.4348 353.2341,-84.3315"/>
</g>
<!-- Node13&#45;&gt;Node15 -->
<g id="edge18" class="edge">
<title>Node13&#45;&gt;Node15</title>
<path fill="none" stroke="#191970" d="M350.7424,-110.4179C367.3854,-101.7001 392.7533,-88.4122 411.9249,-78.3699"/>
<polygon fill="#191970" stroke="#191970" points="413.8052,-81.3362 421.0394,-73.5956 410.5571,-75.1353 413.8052,-81.3362"/>
</g>
<!-- Node16 -->
<g id="node17" class="node">
<title>Node16</title>
<g id="a_node17"><a xlink:title=" ">
<polygon fill="#ffffff" stroke="#bfbfbf" points="354.812,-.5 354.812,-18.5 423.9956,-18.5 423.9956,-.5 354.812,-.5"/>
<text text-anchor="middle" x="389.4038" y="-6.5" font-family="Helvetica,sans-Serif" font-size="10.00" fill="#000000">ReactESP.h</text>
</a>
</g>
</g>
<!-- Node15&#45;&gt;Node16 -->
<g id="edge19" class="edge">
<title>Node15&#45;&gt;Node16</title>
<path fill="none" stroke="#191970" d="M430.3125,-55.4179C423.3325,-47.5833 413.0642,-36.0575 404.5615,-26.5137"/>
<polygon fill="#191970" stroke="#191970" points="406.9364,-23.9178 397.671,-18.7795 401.7097,-28.5743 406.9364,-23.9178"/>
</g>
<!-- Node17 -->
<g id="node18" class="node">
<title>Node17</title>
<g id="a_node18"><a xlink:title=" ">
<polygon fill="#ffffff" stroke="#bfbfbf" points="441.9927,-.5 441.9927,-18.5 530.8149,-18.5 530.8149,-.5 441.9927,-.5"/>
<text text-anchor="middle" x="486.4038" y="-6.5" font-family="Helvetica,sans-Serif" font-size="10.00" fill="#000000">RemoteDebug.h</text>
</a>
</g>
</g>
<!-- Node15&#45;&gt;Node17 -->
<g id="edge20" class="edge">
<title>Node15&#45;&gt;Node17</title>
<path fill="none" stroke="#191970" d="M446.33,-55.4179C453.1675,-47.5833 463.2263,-36.0575 471.5555,-26.5137"/>
<polygon fill="#191970" stroke="#191970" points="474.367,-28.6151 478.3054,-18.7795 469.093,-24.0123 474.367,-28.6151"/>
</g>
<!-- Node18&#45;&gt;Node14 -->
<g id="edge22" class="edge">
<title>Node18&#45;&gt;Node14</title>
<path fill="none" stroke="#191970" d="M427.698,-110.4179C414.9627,-101.9788 395.7643,-89.257 380.8026,-79.3426"/>
<polygon fill="#191970" stroke="#191970" points="382.3992,-76.2019 372.1299,-73.5956 378.5325,-82.037 382.3992,-76.2019"/>
</g>
<!-- Node18&#45;&gt;Node15 -->
<g id="edge24" class="edge">
<title>Node18&#45;&gt;Node15</title>
<path fill="none" stroke="#191970" d="M440.9084,-110.4179C440.5156,-103.2164 439.9527,-92.8962 439.46,-83.8632"/>
<polygon fill="#191970" stroke="#191970" points="442.9495,-83.574 438.91,-73.7795 435.9599,-83.9553 442.9495,-83.574"/>
</g>
<!-- Node19 -->
<g id="node20" class="node">
<title>Node19</title>
<g id="a_node20"><a xlink:title=" ">
<polygon fill="#ffffff" stroke="#bfbfbf" points="487.5,-55.5 487.5,-73.5 531.3076,-73.5 531.3076,-55.5 487.5,-55.5"/>
<text text-anchor="middle" x="509.4038" y="-61.5" font-family="Helvetica,sans-Serif" font-size="10.00" fill="#000000">queue</text>
</a>
</g>
</g>
<!-- Node18&#45;&gt;Node19 -->
<g id="edge23" class="edge">
<title>Node18&#45;&gt;Node19</title>
<path fill="none" stroke="#191970" d="M452.6326,-110.4179C462.8083,-102.1876 478.0201,-89.8839 490.1369,-80.0836"/>
<polygon fill="#191970" stroke="#191970" points="492.3569,-82.7895 497.931,-73.7795 487.9548,-77.3469 492.3569,-82.7895"/>
</g>
</g>
</svg>
