<?xml version="1.0" encoding="UTF-8" standalone="no"?>
<!DOCTYPE svg PUBLIC "-//W3C//DTD SVG 1.1//EN"
 "http://www.w3.org/Graphics/SVG/1.1/DTD/svg11.dtd">
<!-- Generated by graphviz version 2.44.1 (20200629.0846)
 -->
<!-- Title: src/system/system_status_led.h Pages: 1 -->
<!--zoomable 229 -->
<svg id="main" version="1.1" xmlns="http://www.w3.org/2000/svg" xmlns:xlink="http://www.w3.org/1999/xlink" xml:space="preserve" onload="init(evt)">
<style type="text/css"><![CDATA[
.edge:hover path { stroke: red; }
.edge:hover polygon { stroke: red; fill: red; }
]]></style>
<script type="text/javascript"><![CDATA[
var edges = document.getElementsByTagName('g');
if (edges && edges.length) {
  for (var i=0;i<edges.length;i++) {
    if (edges[i].id.substr(0,4)=='edge') {
      edges[i].setAttribute('class','edge');
    }
  }
}
]]></script>
        <defs>
                <circle id="rim" cx="0" cy="0" r="7"/>
                <circle id="rim2" cx="0" cy="0" r="3.5"/>
                <g id="zoomPlus">
                        <use xlink:href="#rim" fill="#404040">
                                <set attributeName="fill" to="#808080" begin="zoomplus.mouseover" end="zoomplus.mouseout"/>
                        </use>
                        <path d="M-4,0h8M0,-4v8" fill="none" stroke="white" stroke-width="1.5" pointer-events="none"/>
                </g>
                <g id="zoomMin">
                        <use xlink:href="#rim" fill="#404040">
                                <set attributeName="fill" to="#808080" begin="zoomminus.mouseover" end="zoomminus.mouseout"/>
                        </use>
                        <path d="M-4,0h8" fill="none" stroke="white" stroke-width="1.5" pointer-events="none"/>
                </g>
                <g id="dirArrow">
                        <path fill="none" stroke="white" stroke-width="1.5" d="M0,-3.0v7 M-2.5,-0.5L0,-3.0L2.5,-0.5"/>
                </g>
               <g id="resetDef">
                       <use xlink:href="#rim2" fill="#404040">
                               <set attributeName="fill" to="#808080" begin="reset.mouseover" end="reset.mouseout"/>
                       </use>
               </g>
        </defs>

<script type="text/javascript">
var viewWidth = 1069;
var viewHeight = 229;
var sectionId = 'dynsection-1';
</script>
<script xlink:href="svgpan.js"/>
<svg id="graph" class="graph">
<g id="viewport">
<title>src/system/system_status_led.h</title>
<polygon fill="white" stroke="transparent" points="-4,4 -4,-225 1065,-225 1065,4 -4,4"/>
<!-- Node29 -->
<g id="node1" class="node">
<title>Node29</title>
<g id="a_node1"><a xlink:title=" ">
<polygon fill="#bfbfbf" stroke="black" points="425.5,-190.5 425.5,-220.5 558.5,-220.5 558.5,-190.5 425.5,-190.5"/>
<text text-anchor="start" x="433.5" y="-208.5" font-family="Helvetica,sans-Serif" font-size="10.00">src/system/system_status</text>
<text text-anchor="middle" x="492" y="-197.5" font-family="Helvetica,sans-Serif" font-size="10.00">_led.h</text>
</a>
</g>
</g>
<!-- Node30 -->
<g id="node2" class="node">
<title>Node30</title>
<g id="a_node2"><a xlink:href="sensesp__app_8h.html" target="_top" xlink:title=" ">
<polygon fill="white" stroke="black" points="442.5,-129 442.5,-148 541.5,-148 541.5,-129 442.5,-129"/>
<text text-anchor="middle" x="492" y="-136" font-family="Helvetica,sans-Serif" font-size="10.00">src/sensesp_app.h</text>
</a>
</g>
</g>
<!-- Node29&#45;&gt;Node30 -->
<g id="edge1" class="edge">
<title>Node29&#45;&gt;Node30</title>
<path fill="none" stroke="midnightblue" d="M492,-180.25C492,-169.02 492,-156.38 492,-148.19"/>
<polygon fill="midnightblue" stroke="midnightblue" points="488.5,-180.4 492,-190.4 495.5,-180.4 488.5,-180.4"/>
</g>
<!-- Node33 -->
<g id="node5" class="node">
<title>Node33</title>
<g id="a_node5"><a xlink:href="sensesp__app_8cpp.html" target="_top" xlink:title=" ">
<polygon fill="white" stroke="black" points="0,-62 0,-81 110,-81 110,-62 0,-62"/>
<text text-anchor="middle" x="55" y="-69" font-family="Helvetica,sans-Serif" font-size="10.00">src/sensesp_app.cpp</text>
</a>
</g>
</g>
<!-- Node29&#45;&gt;Node33 -->
<g id="edge12" class="edge">
<title>Node29&#45;&gt;Node33</title>
<path fill="none" stroke="midnightblue" d="M435.99,-187.58C341.63,-159.08 154.35,-102.51 83.26,-81.04"/>
<polygon fill="midnightblue" stroke="midnightblue" points="435.06,-190.96 445.65,-190.5 437.09,-184.26 435.06,-190.96"/>
</g>
<!-- Node40 -->
<g id="node12" class="node">
<title>Node40</title>
<g id="a_node12"><a xlink:href="system__status__led_8cpp.html" target="_top" xlink:title=" ">
<polygon fill="white" stroke="black" points="559.5,-123.5 559.5,-153.5 692.5,-153.5 692.5,-123.5 559.5,-123.5"/>
<text text-anchor="start" x="567.5" y="-141.5" font-family="Helvetica,sans-Serif" font-size="10.00">src/system/system_status</text>
<text text-anchor="middle" x="626" y="-130.5" font-family="Helvetica,sans-Serif" font-size="10.00">_led.cpp</text>
</a>
</g>
</g>
<!-- Node29&#45;&gt;Node40 -->
<g id="edge13" class="edge">
<title>Node29&#45;&gt;Node40</title>
<path fill="none" stroke="midnightblue" d="M530.15,-185.99C551.39,-175.69 577.41,-163.07 596.98,-153.58"/>
<polygon fill="midnightblue" stroke="midnightblue" points="528.55,-182.88 521.08,-190.4 531.6,-189.18 528.55,-182.88"/>
</g>
<!-- Node31 -->
<g id="node3" class="node">
<title>Node31</title>
<g id="a_node3"><a xlink:href="http_8cpp.html" target="_top" xlink:title=" ">
<polygon fill="white" stroke="black" points="128.5,-62 128.5,-81 213.5,-81 213.5,-62 128.5,-62"/>
<text text-anchor="middle" x="171" y="-69" font-family="Helvetica,sans-Serif" font-size="10.00">src/net/http.cpp</text>
</a>
</g>
</g>
<!-- Node30&#45;&gt;Node31 -->
<g id="edge2" class="edge">
<title>Node30&#45;&gt;Node31</title>
<path fill="none" stroke="midnightblue" d="M432.28,-127.81C377.56,-118.57 294.45,-103.64 223,-87 215.52,-85.26 207.49,-83.14 200.04,-81.07"/>
<polygon fill="midnightblue" stroke="midnightblue" points="431.71,-131.26 442.15,-129.47 432.87,-124.36 431.71,-131.26"/>
</g>
<!-- Node32 -->
<g id="node4" class="node">
<title>Node32</title>
<g id="a_node4"><a xlink:href="ws__client_8cpp.html" target="_top" xlink:title=" ">
<polygon fill="white" stroke="black" points="232,-62 232,-81 342,-81 342,-62 232,-62"/>
<text text-anchor="middle" x="287" y="-69" font-family="Helvetica,sans-Serif" font-size="10.00">src/net/ws_client.cpp</text>
</a>
</g>
</g>
<!-- Node30&#45;&gt;Node32 -->
<g id="edge3" class="edge">
<title>Node30&#45;&gt;Node32</title>
<path fill="none" stroke="midnightblue" d="M454.99,-125.77C414.37,-112.89 350.14,-92.52 314.01,-81.06"/>
<polygon fill="midnightblue" stroke="midnightblue" points="454.19,-129.18 464.78,-128.87 456.3,-122.51 454.19,-129.18"/>
</g>
<!-- Node30&#45;&gt;Node33 -->
<g id="edge4" class="edge">
<title>Node30&#45;&gt;Node33</title>
<path fill="none" stroke="midnightblue" d="M432.43,-130.99C358.77,-122.57 229.68,-106.64 120,-87 110.44,-85.29 100.16,-83.14 90.65,-81.02"/>
<polygon fill="midnightblue" stroke="midnightblue" points="432.12,-134.47 442.45,-132.12 432.91,-127.52 432.12,-134.47"/>
</g>
<!-- Node34 -->
<g id="node6" class="node">
<title>Node34</title>
<g id="a_node6"><a xlink:href="sensesp__app__builder_8h.html" target="_top" xlink:title=" ">
<polygon fill="white" stroke="black" points="360,-62 360,-81 492,-81 492,-62 360,-62"/>
<text text-anchor="middle" x="426" y="-69" font-family="Helvetica,sans-Serif" font-size="10.00">src/sensesp_app_builder.h</text>
</a>
</g>
</g>
<!-- Node30&#45;&gt;Node34 -->
<g id="edge5" class="edge">
<title>Node30&#45;&gt;Node34</title>
<path fill="none" stroke="midnightblue" d="M475.75,-121.5C462.81,-108.75 445.19,-91.39 434.76,-81.13"/>
<polygon fill="midnightblue" stroke="midnightblue" points="473.52,-124.21 483.1,-128.73 478.43,-119.22 473.52,-124.21"/>
</g>
<!-- Node35 -->
<g id="node7" class="node">
<title>Node35</title>
<g id="a_node7"><a xlink:href="signalk__put__request_8cpp.html" target="_top" xlink:title=" ">
<polygon fill="white" stroke="black" points="510,-56.5 510,-86.5 608,-86.5 608,-56.5 510,-56.5"/>
<text text-anchor="start" x="518" y="-74.5" font-family="Helvetica,sans-Serif" font-size="10.00">src/signalk/signalk</text>
<text text-anchor="middle" x="559" y="-63.5" font-family="Helvetica,sans-Serif" font-size="10.00">_put_request.cpp</text>
</a>
</g>
</g>
<!-- Node30&#45;&gt;Node35 -->
<g id="edge6" class="edge">
<title>Node30&#45;&gt;Node35</title>
<path fill="none" stroke="midnightblue" d="M508.37,-121.62C519.41,-110.91 533.85,-96.9 544.48,-86.59"/>
<polygon fill="midnightblue" stroke="midnightblue" points="505.78,-119.26 501.04,-128.73 510.65,-124.28 505.78,-119.26"/>
</g>
<!-- Node36 -->
<g id="node8" class="node">
<title>Node36</title>
<g id="a_node8"><a xlink:href="enable_8cpp.html" target="_top" xlink:title=" ">
<polygon fill="white" stroke="black" points="626,-62 626,-81 742,-81 742,-62 626,-62"/>
<text text-anchor="middle" x="684" y="-69" font-family="Helvetica,sans-Serif" font-size="10.00">src/system/enable.cpp</text>
</a>
</g>
</g>
<!-- Node30&#45;&gt;Node36 -->
<g id="edge7" class="edge">
<title>Node30&#45;&gt;Node36</title>
<path fill="none" stroke="midnightblue" d="M527.15,-125.6C565.21,-112.71 625,-92.47 658.7,-81.06"/>
<polygon fill="midnightblue" stroke="midnightblue" points="525.85,-122.35 517.5,-128.87 528.09,-128.98 525.85,-122.35"/>
</g>
<!-- Node37 -->
<g id="node9" class="node">
<title>Node37</title>
<g id="a_node9"><a xlink:href="led__blinker_8cpp.html" target="_top" xlink:title=" ">
<polygon fill="white" stroke="black" points="760.5,-62 760.5,-81 893.5,-81 893.5,-62 760.5,-62"/>
<text text-anchor="middle" x="827" y="-69" font-family="Helvetica,sans-Serif" font-size="10.00">src/system/led_blinker.cpp</text>
</a>
</g>
</g>
<!-- Node30&#45;&gt;Node37 -->
<g id="edge8" class="edge">
<title>Node30&#45;&gt;Node37</title>
<path fill="none" stroke="midnightblue" d="M535.31,-126.53C540.59,-125.29 545.91,-124.08 551,-123 639.34,-104.21 662.2,-103.46 751,-87 761.3,-85.09 772.38,-83 782.81,-81.01"/>
<polygon fill="midnightblue" stroke="midnightblue" points="534.21,-123.19 525.3,-128.93 535.84,-130 534.21,-123.19"/>
</g>
<!-- Node38 -->
<g id="node10" class="node">
<title>Node38</title>
<g id="a_node10"><a xlink:href="wiring__helpers_8h.html" target="_top" xlink:title=" ">
<polygon fill="white" stroke="black" points="912,-62 912,-81 1016,-81 1016,-62 912,-62"/>
<text text-anchor="middle" x="964" y="-69" font-family="Helvetica,sans-Serif" font-size="10.00">src/wiring_helpers.h</text>
</a>
</g>
</g>
<!-- Node30&#45;&gt;Node38 -->
<g id="edge9" class="edge">
<title>Node30&#45;&gt;Node38</title>
<path fill="none" stroke="midnightblue" d="M533.19,-126.6C539.14,-125.26 545.21,-124 551,-123 705.95,-96.17 747.94,-113.24 903,-87 912.34,-85.42 922.37,-83.24 931.55,-81.05"/>
<polygon fill="midnightblue" stroke="midnightblue" points="532.29,-123.22 523.37,-128.93 533.9,-130.03 532.29,-123.22"/>
</g>
<!-- Node39 -->
<g id="node11" class="node">
<title>Node39</title>
<g id="a_node11"><a xlink:href="wiring__helpers_8cpp.html" target="_top" xlink:title=" ">
<polygon fill="white" stroke="black" points="947,-0.5 947,-19.5 1061,-19.5 1061,-0.5 947,-0.5"/>
<text text-anchor="middle" x="1004" y="-7.5" font-family="Helvetica,sans-Serif" font-size="10.00">src/wiring_helpers.cpp</text>
</a>
</g>
</g>
<!-- Node30&#45;&gt;Node39 -->
<g id="edge11" class="edge">
<title>Node30&#45;&gt;Node39</title>
<path fill="none" stroke="midnightblue" d="M532.76,-126.56C538.84,-125.19 545.06,-123.95 551,-123 603.16,-114.67 989.09,-125.74 1025,-87 1042.68,-67.93 1022.55,-35.3 1010.99,-19.75"/>
<polygon fill="midnightblue" stroke="midnightblue" points="531.66,-123.22 522.73,-128.93 533.27,-130.03 531.66,-123.22"/>
</g>
<!-- Node38&#45;&gt;Node39 -->
<g id="edge10" class="edge">
<title>Node38&#45;&gt;Node39</title>
<path fill="none" stroke="midnightblue" d="M975.43,-53.51C982.9,-42.39 992.34,-28.34 998.28,-19.51"/>
<polygon fill="midnightblue" stroke="midnightblue" points="972.41,-51.72 969.73,-61.98 978.21,-55.63 972.41,-51.72"/>
</g>
</g>
</svg>
        <g id="navigator" transform="translate(0 0)" fill="#404254">
                <rect fill="#f2f5e9" fill-opacity="0.5" stroke="#606060" stroke-width=".5" x="0" y="0" width="60" height="60"/>
                <use id="zoomplus" xlink:href="#zoomPlus" x="17" y="9" onmousedown="handleZoom(evt,'in')"/>
                <use id="zoomminus" xlink:href="#zoomMin" x="42" y="9" onmousedown="handleZoom(evt,'out')"/>
                <use id="reset" xlink:href="#resetDef" x="30" y="36" onmousedown="handleReset()"/>
                <g id="arrowUp" xlink:href="#dirArrow" transform="translate(30 24)" onmousedown="handlePan(0,-1)">
                  <use xlink:href="#rim" fill="#404040">
                        <set attributeName="fill" to="#808080" begin="arrowUp.mouseover" end="arrowUp.mouseout"/>
                  </use>
                  <path fill="none" stroke="white" stroke-width="1.5" d="M0,-3.0v7 M-2.5,-0.5L0,-3.0L2.5,-0.5"/>
                </g>
                <g id="arrowRight" xlink:href="#dirArrow" transform="rotate(90) translate(36 -43)" onmousedown="handlePan(1,0)">
                  <use xlink:href="#rim" fill="#404040">
                        <set attributeName="fill" to="#808080" begin="arrowRight.mouseover" end="arrowRight.mouseout"/>
                  </use>
                  <path fill="none" stroke="white" stroke-width="1.5" d="M0,-3.0v7 M-2.5,-0.5L0,-3.0L2.5,-0.5"/>
                </g>
                <g id="arrowDown" xlink:href="#dirArrow" transform="rotate(180) translate(-30 -48)" onmousedown="handlePan(0,1)">
                  <use xlink:href="#rim" fill="#404040">
                        <set attributeName="fill" to="#808080" begin="arrowDown.mouseover" end="arrowDown.mouseout"/>
                  </use>
                  <path fill="none" stroke="white" stroke-width="1.5" d="M0,-3.0v7 M-2.5,-0.5L0,-3.0L2.5,-0.5"/>
                </g>
                <g id="arrowLeft" xlink:href="#dirArrow" transform="rotate(270) translate(-36 17)" onmousedown="handlePan(-1,0)">
                  <use xlink:href="#rim" fill="#404040">
                        <set attributeName="fill" to="#808080" begin="arrowLeft.mouseover" end="arrowLeft.mouseout"/>
                  </use>
                  <path fill="none" stroke="white" stroke-width="1.5" d="M0,-3.0v7 M-2.5,-0.5L0,-3.0L2.5,-0.5"/>
                </g>
        </g>
        <svg viewBox="0 0 15 15" width="100%" height="30px" preserveAspectRatio="xMaxYMin meet">
         <g id="arrow_out" transform="scale(0.3 0.3)">
          <a xlink:href="system__status__led_8h__dep__incl_org.svg" target="_base">
           <rect id="button" ry="5" rx="5" y="6" x="6" height="38" width="38"
                fill="#f2f5e9" fill-opacity="0.5" stroke="#606060" stroke-width="1.0"/>
           <path id="arrow"
             d="M 11.500037,31.436501 C 11.940474,20.09759 22.043105,11.32322 32.158766,21.979434 L 37.068811,17.246167 C 37.068811,17.246167 37.088388,32 37.088388,32 L 22.160133,31.978069 C 22.160133,31.978069 26.997745,27.140456 26.997745,27.140456 C 18.528582,18.264221 13.291696,25.230495 11.500037,31.436501 z"
             style="fill:#404040;"/>
          </a>
         </g>
        </svg>
</svg>
