<?xml version="1.0" encoding="UTF-8" standalone="no"?>
<!DOCTYPE svg PUBLIC "-//W3C//DTD SVG 1.1//EN"
 "http://www.w3.org/Graphics/SVG/1.1/DTD/svg11.dtd">
<!-- Generated by graphviz version 5.0.0 (20220707.1540)
 -->
<!-- Title: src/sensesp/controllers/system_status_controller.cpp Pages: 1 -->
<!--zoomable 565 -->
<svg id="main" version="1.1" xmlns="http://www.w3.org/2000/svg" xmlns:xlink="http://www.w3.org/1999/xlink" xml:space="preserve" onload="init(evt)">
<style type="text/css"><![CDATA[
.edge:hover path { stroke: red; }
.edge:hover polygon { stroke: red; fill: red; }
]]></style>
<script type="text/javascript"><![CDATA[
var edges = document.getElementsByTagName('g');
if (edges && edges.length) {
  for (var i=0;i<edges.length;i++) {
    if (edges[i].id.substr(0,4)=='edge') {
      edges[i].setAttribute('class','edge');
    }
  }
}
]]></script>
        <defs>
                <circle id="rim" cx="0" cy="0" r="7"/>
                <circle id="rim2" cx="0" cy="0" r="3.5"/>
                <g id="zoomPlus">
                        <use xlink:href="#rim" fill="#404040">
                                <set attributeName="fill" to="#808080" begin="zoomplus.mouseover" end="zoomplus.mouseout"/>
                        </use>
                        <path d="M-4,0h8M0,-4v8" fill="none" stroke="white" stroke-width="1.5" pointer-events="none"/>
                </g>
                <g id="zoomMin">
                        <use xlink:href="#rim" fill="#404040">
                                <set attributeName="fill" to="#808080" begin="zoomminus.mouseover" end="zoomminus.mouseout"/>
                        </use>
                        <path d="M-4,0h8" fill="none" stroke="white" stroke-width="1.5" pointer-events="none"/>
                </g>
                <g id="dirArrow">
                        <path fill="none" stroke="white" stroke-width="1.5" d="M0,-3.0v7 M-2.5,-0.5L0,-3.0L2.5,-0.5"/>
                </g>
               <g id="resetDef">
                       <use xlink:href="#rim2" fill="#404040">
                               <set attributeName="fill" to="#808080" begin="reset.mouseover" end="reset.mouseout"/>
                       </use>
               </g>
        </defs>

<script type="text/javascript">
var viewWidth = 1514;
var viewHeight = 565;
var sectionId = 'dynsection-0';
</script>
<script xlink:href="svgpan.js"/>
<svg id="graph" class="graph">
<g id="viewport">
<title>src/sensesp/controllers/system_status_controller.cpp</title>
<polygon fill="white" stroke="transparent" points="-4,4 -4,-561 1510.15,-561 1510.15,4 -4,4"/>
<!-- Node1 -->
<g id="node1" class="node">
<title>Node1</title>
<g id="a_node1"><a xlink:title=" ">
<polygon fill="#bfbfbf" stroke="black" points="973,-526.5 973,-556.5 1120,-556.5 1120,-526.5 973,-526.5"/>
<text text-anchor="start" x="981" y="-544.5" font-family="Helvetica,sans-Serif" font-size="10.00">src/sensesp/controllers</text>
<text text-anchor="middle" x="1046.5" y="-533.5" font-family="Helvetica,sans-Serif" font-size="10.00">/system_status_controller.cpp</text>
</a>
</g>
</g>
<!-- Node2 -->
<g id="node2" class="node">
<title>Node2</title>
<g id="a_node2"><a xlink:href="system__status__controller_8h.html" target="_top" xlink:title=" ">
<polygon fill="white" stroke="black" points="979.5,-470.5 979.5,-489.5 1113.5,-489.5 1113.5,-470.5 979.5,-470.5"/>
<text text-anchor="middle" x="1046.5" y="-477.5" font-family="Helvetica,sans-Serif" font-size="10.00">system_status_controller.h</text>
</a>
</g>
</g>
<!-- Node1&#45;&gt;Node2 -->
<g id="edge1" class="edge">
<title>Node1&#45;&gt;Node2</title>
<path fill="none" stroke="midnightblue" d="M1046.5,-526.4C1046.5,-518.47 1046.5,-508.46 1046.5,-499.86"/>
<polygon fill="midnightblue" stroke="midnightblue" points="1050,-499.66 1046.5,-489.66 1043,-499.66 1050,-499.66"/>
</g>
<!-- Node3 -->
<g id="node3" class="node">
<title>Node3</title>
<g id="a_node3"><a xlink:href="networking_8h.html" target="_top" xlink:title=" ">
<polygon fill="white" stroke="black" points="581.5,-353 581.5,-372 709.5,-372 709.5,-353 581.5,-353"/>
<text text-anchor="middle" x="645.5" y="-360" font-family="Helvetica,sans-Serif" font-size="10.00">sensesp/net/networking.h</text>
</a>
</g>
</g>
<!-- Node2&#45;&gt;Node3 -->
<g id="edge2" class="edge">
<title>Node2&#45;&gt;Node3</title>
<path fill="none" stroke="midnightblue" d="M1016.69,-470.41C945.41,-449.88 765.11,-397.95 684.95,-374.86"/>
<polygon fill="midnightblue" stroke="midnightblue" points="685.81,-371.47 675.24,-372.06 683.88,-378.2 685.81,-371.47"/>
</g>
<!-- Node16 -->
<g id="node16" class="node">
<title>Node16</title>
<g id="a_node16"><a xlink:href="valueproducer_8h.html" target="_top" xlink:title=" ">
<polygon fill="white" stroke="black" points="1044,-235.5 1044,-254.5 1129,-254.5 1129,-235.5 1044,-235.5"/>
<text text-anchor="middle" x="1086.5" y="-242.5" font-family="Helvetica,sans-Serif" font-size="10.00">valueproducer.h</text>
</a>
</g>
</g>
<!-- Node2&#45;&gt;Node16 -->
<g id="edge48" class="edge">
<title>Node2&#45;&gt;Node16</title>
<path fill="none" stroke="midnightblue" d="M1047.56,-470.32C1050.18,-449.17 1057.36,-393.29 1065.5,-347 1070.58,-318.11 1077.75,-284.85 1082.26,-264.63"/>
<polygon fill="midnightblue" stroke="midnightblue" points="1085.74,-265.14 1084.52,-254.61 1078.91,-263.6 1085.74,-265.14"/>
</g>
<!-- Node26 -->
<g id="node26" class="node">
<title>Node26</title>
<g id="a_node26"><a xlink:href="ws__client_8h.html" target="_top" xlink:title=" ">
<polygon fill="white" stroke="black" points="1152.5,-414.5 1152.5,-433.5 1274.5,-433.5 1274.5,-414.5 1152.5,-414.5"/>
<text text-anchor="middle" x="1213.5" y="-421.5" font-family="Helvetica,sans-Serif" font-size="10.00">sensesp/net/ws_client.h</text>
</a>
</g>
</g>
<!-- Node2&#45;&gt;Node26 -->
<g id="edge32" class="edge">
<title>Node2&#45;&gt;Node26</title>
<path fill="none" stroke="midnightblue" d="M1072.96,-470.44C1101.18,-461.32 1146.04,-446.81 1177.47,-436.65"/>
<polygon fill="midnightblue" stroke="midnightblue" points="1178.72,-439.92 1187.16,-433.52 1176.57,-433.26 1178.72,-439.92"/>
</g>
<!-- Node4 -->
<g id="node4" class="node">
<title>Node4</title>
<g id="a_node4"><a xlink:title=" ">
<polygon fill="white" stroke="#bfbfbf" points="795.5,-0.5 795.5,-19.5 853.5,-19.5 853.5,-0.5 795.5,-0.5"/>
<text text-anchor="middle" x="824.5" y="-7.5" font-family="Helvetica,sans-Serif" font-size="10.00">Arduino.h</text>
</a>
</g>
</g>
<!-- Node3&#45;&gt;Node4 -->
<g id="edge3" class="edge">
<title>Node3&#45;&gt;Node4</title>
<path fill="none" stroke="midnightblue" d="M638.89,-352.76C625.52,-334.18 596.5,-288.91 596.5,-246 596.5,-246 596.5,-246 596.5,-132 596.5,-47.74 719.5,-21.98 784.82,-14.24"/>
<polygon fill="midnightblue" stroke="midnightblue" points="785.6,-17.68 795.16,-13.11 784.84,-10.72 785.6,-17.68"/>
</g>
<!-- Node5 -->
<g id="node5" class="node">
<title>Node5</title>
<g id="a_node5"><a xlink:title=" ">
<polygon fill="white" stroke="#bfbfbf" points="161,-291.5 161,-310.5 280,-310.5 280,-291.5 161,-291.5"/>
<text text-anchor="middle" x="220.5" y="-298.5" font-family="Helvetica,sans-Serif" font-size="10.00">ESPAsyncWebServer.h</text>
</a>
</g>
</g>
<!-- Node3&#45;&gt;Node5 -->
<g id="edge4" class="edge">
<title>Node3&#45;&gt;Node5</title>
<path fill="none" stroke="midnightblue" d="M584.61,-352.98C506.72,-342.07 372.13,-323.23 290.22,-311.76"/>
<polygon fill="midnightblue" stroke="midnightblue" points="290.64,-308.29 280.25,-310.37 289.67,-315.22 290.64,-308.29"/>
</g>
<!-- Node6 -->
<g id="node6" class="node">
<title>Node6</title>
<g id="a_node6"><a xlink:title=" ">
<polygon fill="white" stroke="#bfbfbf" points="298.5,-291.5 298.5,-310.5 426.5,-310.5 426.5,-291.5 298.5,-291.5"/>
<text text-anchor="middle" x="362.5" y="-298.5" font-family="Helvetica,sans-Serif" font-size="10.00">ESPAsyncWiFiManager.h</text>
</a>
</g>
</g>
<!-- Node3&#45;&gt;Node6 -->
<g id="edge5" class="edge">
<title>Node3&#45;&gt;Node6</title>
<path fill="none" stroke="midnightblue" d="M604.95,-352.98C554.31,-342.33 467.66,-324.11 412.82,-312.58"/>
<polygon fill="midnightblue" stroke="midnightblue" points="413.48,-309.14 402.97,-310.51 412.04,-315.99 413.48,-309.14"/>
</g>
<!-- Node7 -->
<g id="node7" class="node">
<title>Node7</title>
<g id="a_node7"><a xlink:href="wifi__state_8h.html" target="_top" xlink:title=" ">
<polygon fill="white" stroke="black" points="445,-291.5 445,-310.5 568,-310.5 568,-291.5 445,-291.5"/>
<text text-anchor="middle" x="506.5" y="-298.5" font-family="Helvetica,sans-Serif" font-size="10.00">sensesp/net/wifi_state.h</text>
</a>
</g>
</g>
<!-- Node3&#45;&gt;Node7 -->
<g id="edge6" class="edge">
<title>Node3&#45;&gt;Node7</title>
<path fill="none" stroke="midnightblue" d="M625.58,-352.98C602.05,-342.9 562.69,-326.05 535.71,-314.5"/>
<polygon fill="midnightblue" stroke="midnightblue" points="536.95,-311.23 526.38,-310.51 534.19,-317.66 536.95,-311.23"/>
</g>
<!-- Node8 -->
<g id="node8" class="node">
<title>Node8</title>
<g id="a_node8"><a xlink:href="configurable_8h.html" target="_top" xlink:title=" ">
<polygon fill="white" stroke="black" points="780.5,-291.5 780.5,-310.5 932.5,-310.5 932.5,-291.5 780.5,-291.5"/>
<text text-anchor="middle" x="856.5" y="-298.5" font-family="Helvetica,sans-Serif" font-size="10.00">sensesp/system/configurable.h</text>
</a>
</g>
</g>
<!-- Node3&#45;&gt;Node8 -->
<g id="edge7" class="edge">
<title>Node3&#45;&gt;Node8</title>
<path fill="none" stroke="midnightblue" d="M675.73,-352.98C712.79,-342.53 775.69,-324.79 816.66,-313.23"/>
<polygon fill="midnightblue" stroke="midnightblue" points="817.65,-316.59 826.32,-310.51 815.75,-309.85 817.65,-316.59"/>
</g>
<!-- Node11 -->
<g id="node11" class="node">
<title>Node11</title>
<g id="a_node11"><a xlink:href="observablevalue_8h.html" target="_top" xlink:title=" ">
<polygon fill="white" stroke="black" points="1150.5,-291.5 1150.5,-310.5 1320.5,-310.5 1320.5,-291.5 1150.5,-291.5"/>
<text text-anchor="middle" x="1235.5" y="-298.5" font-family="Helvetica,sans-Serif" font-size="10.00">sensesp/system/observablevalue.h</text>
</a>
</g>
</g>
<!-- Node3&#45;&gt;Node11 -->
<g id="edge11" class="edge">
<title>Node3&#45;&gt;Node11</title>
<path fill="none" stroke="midnightblue" d="M709.76,-355.02C813.91,-344.52 1020.05,-323.73 1140.95,-311.54"/>
<polygon fill="midnightblue" stroke="midnightblue" points="1141.34,-315.01 1150.94,-310.53 1140.64,-308.05 1141.34,-315.01"/>
</g>
<!-- Node3&#45;&gt;Node16 -->
<g id="edge31" class="edge">
<title>Node3&#45;&gt;Node16</title>
<path fill="none" stroke="midnightblue" d="M709.51,-355.3C770.2,-348.32 863.44,-334.74 941.5,-311 985.41,-297.65 1033.5,-274.19 1061.78,-259.41"/>
<polygon fill="midnightblue" stroke="midnightblue" points="1063.72,-262.34 1070.92,-254.57 1060.44,-256.16 1063.72,-262.34"/>
</g>
<!-- Node23 -->
<g id="node23" class="node">
<title>Node23</title>
<g id="a_node23"><a xlink:href="resettable_8h.html" target="_top" xlink:title=" ">
<polygon fill="white" stroke="black" points="0,-291.5 0,-310.5 143,-310.5 143,-291.5 0,-291.5"/>
<text text-anchor="middle" x="71.5" y="-298.5" font-family="Helvetica,sans-Serif" font-size="10.00">sensesp/system/resettable.h</text>
</a>
</g>
</g>
<!-- Node3&#45;&gt;Node23 -->
<g id="edge27" class="edge">
<title>Node3&#45;&gt;Node23</title>
<path fill="none" stroke="midnightblue" d="M581.14,-355.13C488.77,-345.94 312.98,-328.29 153.05,-311.16"/>
<polygon fill="midnightblue" stroke="midnightblue" points="153.34,-307.67 143.03,-310.08 152.6,-314.63 153.34,-307.67"/>
</g>
<!-- Node25 -->
<g id="node25" class="node">
<title>Node25</title>
<g id="a_node25"><a xlink:href="startable_8h.html" target="_top" xlink:title=" ">
<polygon fill="white" stroke="black" points="625,-291.5 625,-310.5 762,-310.5 762,-291.5 625,-291.5"/>
<text text-anchor="middle" x="693.5" y="-298.5" font-family="Helvetica,sans-Serif" font-size="10.00">sensesp/system/startable.h</text>
</a>
</g>
</g>
<!-- Node3&#45;&gt;Node25 -->
<g id="edge29" class="edge">
<title>Node3&#45;&gt;Node25</title>
<path fill="none" stroke="midnightblue" d="M652.38,-352.98C659.65,-343.96 671.3,-329.52 680.34,-318.31"/>
<polygon fill="midnightblue" stroke="midnightblue" points="683.08,-320.49 686.64,-310.51 677.63,-316.09 683.08,-320.49"/>
</g>
<!-- Node8&#45;&gt;Node4 -->
<g id="edge10" class="edge">
<title>Node8&#45;&gt;Node4</title>
<path fill="none" stroke="midnightblue" d="M852.18,-291.41C843.45,-273.2 824.5,-229.18 824.5,-190 824.5,-190 824.5,-190 824.5,-132 824.5,-95.71 824.5,-53.31 824.5,-29.56"/>
<polygon fill="midnightblue" stroke="midnightblue" points="828,-29.51 824.5,-19.51 821,-29.51 828,-29.51"/>
</g>
<!-- Node9 -->
<g id="node9" class="node">
<title>Node9</title>
<g id="a_node9"><a xlink:title=" ">
<polygon fill="white" stroke="#bfbfbf" points="942,-123.5 942,-142.5 1021,-142.5 1021,-123.5 942,-123.5"/>
<text text-anchor="middle" x="981.5" y="-130.5" font-family="Helvetica,sans-Serif" font-size="10.00">ArduinoJson.h</text>
</a>
</g>
</g>
<!-- Node8&#45;&gt;Node9 -->
<g id="edge8" class="edge">
<title>Node8&#45;&gt;Node9</title>
<path fill="none" stroke="midnightblue" d="M858.73,-291.49C862.37,-278.56 870.42,-253.53 882.5,-235 905.12,-200.32 940.89,-167.51 962.68,-149.15"/>
<polygon fill="midnightblue" stroke="midnightblue" points="965.08,-151.7 970.55,-142.63 960.61,-146.31 965.08,-151.7"/>
</g>
<!-- Node10 -->
<g id="node10" class="node">
<title>Node10</title>
<g id="a_node10"><a xlink:title=" ">
<polygon fill="white" stroke="#bfbfbf" points="891,-235.5 891,-254.5 926,-254.5 926,-235.5 891,-235.5"/>
<text text-anchor="middle" x="908.5" y="-242.5" font-family="Helvetica,sans-Serif" font-size="10.00">map</text>
</a>
</g>
</g>
<!-- Node8&#45;&gt;Node10 -->
<g id="edge9" class="edge">
<title>Node8&#45;&gt;Node10</title>
<path fill="none" stroke="midnightblue" d="M865.09,-291.08C872.66,-283.22 883.88,-271.57 893.01,-262.08"/>
<polygon fill="midnightblue" stroke="midnightblue" points="895.66,-264.38 900.07,-254.75 890.62,-259.53 895.66,-264.38"/>
</g>
<!-- Node12 -->
<g id="node12" class="node">
<title>Node12</title>
<g id="a_node12"><a xlink:href="observable_8h.html" target="_top" xlink:title=" ">
<polygon fill="white" stroke="black" points="1327.5,-179.5 1327.5,-198.5 1399.5,-198.5 1399.5,-179.5 1327.5,-179.5"/>
<text text-anchor="middle" x="1363.5" y="-186.5" font-family="Helvetica,sans-Serif" font-size="10.00">observable.h</text>
</a>
</g>
</g>
<!-- Node11&#45;&gt;Node12 -->
<g id="edge12" class="edge">
<title>Node11&#45;&gt;Node12</title>
<path fill="none" stroke="midnightblue" d="M1245.54,-291.37C1267.23,-272.73 1318.66,-228.53 1345.89,-205.13"/>
<polygon fill="midnightblue" stroke="midnightblue" points="1348.2,-207.76 1353.5,-198.59 1343.64,-202.45 1348.2,-207.76"/>
</g>
<!-- Node11&#45;&gt;Node16 -->
<g id="edge16" class="edge">
<title>Node11&#45;&gt;Node16</title>
<path fill="none" stroke="midnightblue" d="M1211.89,-291.44C1187.04,-282.44 1147.73,-268.19 1119.75,-258.05"/>
<polygon fill="midnightblue" stroke="midnightblue" points="1120.59,-254.63 1110,-254.52 1118.21,-261.21 1120.59,-254.63"/>
</g>
<!-- Node13 -->
<g id="node13" class="node">
<title>Node13</title>
<g id="a_node13"><a xlink:title=" ">
<polygon fill="white" stroke="#bfbfbf" points="1292,-123.5 1292,-142.5 1359,-142.5 1359,-123.5 1292,-123.5"/>
<text text-anchor="middle" x="1325.5" y="-130.5" font-family="Helvetica,sans-Serif" font-size="10.00">forward_list</text>
</a>
</g>
</g>
<!-- Node12&#45;&gt;Node13 -->
<g id="edge13" class="edge">
<title>Node12&#45;&gt;Node13</title>
<path fill="none" stroke="midnightblue" d="M1357.23,-179.08C1351.86,-171.46 1343.98,-160.26 1337.42,-150.94"/>
<polygon fill="midnightblue" stroke="midnightblue" points="1340.28,-148.91 1331.66,-142.75 1334.55,-152.94 1340.28,-148.91"/>
</g>
<!-- Node14 -->
<g id="node14" class="node">
<title>Node14</title>
<g id="a_node14"><a xlink:title=" ">
<polygon fill="white" stroke="#bfbfbf" points="1377,-123.5 1377,-142.5 1436,-142.5 1436,-123.5 1377,-123.5"/>
<text text-anchor="middle" x="1406.5" y="-130.5" font-family="Helvetica,sans-Serif" font-size="10.00">functional</text>
</a>
</g>
</g>
<!-- Node12&#45;&gt;Node14 -->
<g id="edge14" class="edge">
<title>Node12&#45;&gt;Node14</title>
<path fill="none" stroke="midnightblue" d="M1370.6,-179.08C1376.74,-171.38 1385.77,-160.03 1393.24,-150.65"/>
<polygon fill="midnightblue" stroke="midnightblue" points="1396.04,-152.75 1399.53,-142.75 1390.56,-148.39 1396.04,-152.75"/>
</g>
<!-- Node15 -->
<g id="node15" class="node">
<title>Node15</title>
<g id="a_node15"><a xlink:title=" ">
<polygon fill="white" stroke="#bfbfbf" points="1229.5,-123.5 1229.5,-142.5 1273.5,-142.5 1273.5,-123.5 1229.5,-123.5"/>
<text text-anchor="middle" x="1251.5" y="-130.5" font-family="Helvetica,sans-Serif" font-size="10.00">vector</text>
</a>
</g>
</g>
<!-- Node12&#45;&gt;Node15 -->
<g id="edge15" class="edge">
<title>Node12&#45;&gt;Node15</title>
<path fill="none" stroke="midnightblue" d="M1345.51,-179.32C1327.46,-170.62 1299.45,-157.12 1278.7,-147.11"/>
<polygon fill="midnightblue" stroke="midnightblue" points="1279.98,-143.84 1269.45,-142.65 1276.94,-150.15 1279.98,-143.84"/>
</g>
<!-- Node16&#45;&gt;Node9 -->
<g id="edge17" class="edge">
<title>Node16&#45;&gt;Node9</title>
<path fill="none" stroke="midnightblue" d="M1074.72,-235.35C1063.35,-226.73 1045.93,-212.83 1032.5,-199 1017.89,-183.95 1003.33,-164.88 993.53,-151.3"/>
<polygon fill="midnightblue" stroke="midnightblue" points="996.2,-149.02 987.56,-142.89 990.49,-153.07 996.2,-149.02"/>
</g>
<!-- Node16&#45;&gt;Node12 -->
<g id="edge18" class="edge">
<title>Node16&#45;&gt;Node12</title>
<path fill="none" stroke="midnightblue" d="M1129.17,-235.68C1180.11,-225.75 1264.96,-209.21 1317.37,-198.99"/>
<polygon fill="midnightblue" stroke="midnightblue" points="1318.25,-202.39 1327.4,-197.04 1316.92,-195.52 1318.25,-202.39"/>
</g>
<!-- Node17 -->
<g id="node17" class="node">
<title>Node17</title>
<g id="a_node17"><a xlink:href="valueconsumer_8h.html" target="_top" xlink:title=" ">
<polygon fill="white" stroke="black" points="1041.5,-179.5 1041.5,-198.5 1131.5,-198.5 1131.5,-179.5 1041.5,-179.5"/>
<text text-anchor="middle" x="1086.5" y="-186.5" font-family="Helvetica,sans-Serif" font-size="10.00">valueconsumer.h</text>
</a>
</g>
</g>
<!-- Node16&#45;&gt;Node17 -->
<g id="edge19" class="edge">
<title>Node16&#45;&gt;Node17</title>
<path fill="none" stroke="midnightblue" d="M1086.5,-235.08C1086.5,-228.01 1086.5,-217.86 1086.5,-208.99"/>
<polygon fill="midnightblue" stroke="midnightblue" points="1090,-208.75 1086.5,-198.75 1083,-208.75 1090,-208.75"/>
</g>
<!-- Node17&#45;&gt;Node9 -->
<g id="edge20" class="edge">
<title>Node17&#45;&gt;Node9</title>
<path fill="none" stroke="midnightblue" d="M1069.63,-179.32C1052.79,-170.66 1026.69,-157.24 1007.26,-147.25"/>
<polygon fill="midnightblue" stroke="midnightblue" points="1008.82,-144.12 998.33,-142.65 1005.62,-150.34 1008.82,-144.12"/>
</g>
<!-- Node18 -->
<g id="node18" class="node">
<title>Node18</title>
<g id="a_node18"><a xlink:title=" ">
<polygon fill="white" stroke="#bfbfbf" points="1062,-123.5 1062,-142.5 1111,-142.5 1111,-123.5 1062,-123.5"/>
<text text-anchor="middle" x="1086.5" y="-130.5" font-family="Helvetica,sans-Serif" font-size="10.00">stdint.h</text>
</a>
</g>
</g>
<!-- Node17&#45;&gt;Node18 -->
<g id="edge21" class="edge">
<title>Node17&#45;&gt;Node18</title>
<path fill="none" stroke="midnightblue" d="M1086.5,-179.08C1086.5,-172.01 1086.5,-161.86 1086.5,-152.99"/>
<polygon fill="midnightblue" stroke="midnightblue" points="1090,-152.75 1086.5,-142.75 1083,-152.75 1090,-152.75"/>
</g>
<!-- Node19 -->
<g id="node19" class="node">
<title>Node19</title>
<g id="a_node19"><a xlink:href="sensesp_8h.html" target="_top" xlink:title=" ">
<polygon fill="white" stroke="black" points="1142.5,-123.5 1142.5,-142.5 1204.5,-142.5 1204.5,-123.5 1142.5,-123.5"/>
<text text-anchor="middle" x="1173.5" y="-130.5" font-family="Helvetica,sans-Serif" font-size="10.00">sensesp.h</text>
</a>
</g>
</g>
<!-- Node17&#45;&gt;Node19 -->
<g id="edge22" class="edge">
<title>Node17&#45;&gt;Node19</title>
<path fill="none" stroke="midnightblue" d="M1100.48,-179.32C1114.05,-170.9 1134.88,-157.97 1150.82,-148.07"/>
<polygon fill="midnightblue" stroke="midnightblue" points="1152.91,-150.9 1159.56,-142.65 1149.21,-144.95 1152.91,-150.9"/>
</g>
<!-- Node20 -->
<g id="node20" class="node">
<title>Node20</title>
<g id="a_node20"><a xlink:title=" ">
<polygon fill="white" stroke="#bfbfbf" points="1283.5,-62 1283.5,-81 1353.5,-81 1353.5,-62 1283.5,-62"/>
<text text-anchor="middle" x="1318.5" y="-69" font-family="Helvetica,sans-Serif" font-size="10.00">ReactESP.h</text>
</a>
</g>
</g>
<!-- Node19&#45;&gt;Node20 -->
<g id="edge23" class="edge">
<title>Node19&#45;&gt;Node20</title>
<path fill="none" stroke="midnightblue" d="M1194.27,-123.48C1218.93,-113.36 1260.25,-96.4 1288.4,-84.85"/>
<polygon fill="midnightblue" stroke="midnightblue" points="1289.84,-88.04 1297.76,-81.01 1287.18,-81.57 1289.84,-88.04"/>
</g>
<!-- Node21 -->
<g id="node21" class="node">
<title>Node21</title>
<g id="a_node21"><a xlink:href="local__debug_8h.html" target="_top" xlink:title=" ">
<polygon fill="white" stroke="black" points="932.5,-56.5 932.5,-86.5 1044.5,-86.5 1044.5,-56.5 932.5,-56.5"/>
<text text-anchor="start" x="940.5" y="-74.5" font-family="Helvetica,sans-Serif" font-size="10.00">sensesp/system/local</text>
<text text-anchor="middle" x="988.5" y="-63.5" font-family="Helvetica,sans-Serif" font-size="10.00">_debug.h</text>
</a>
</g>
</g>
<!-- Node19&#45;&gt;Node21 -->
<g id="edge24" class="edge">
<title>Node19&#45;&gt;Node21</title>
<path fill="none" stroke="midnightblue" d="M1146.99,-123.48C1119.71,-114.7 1076.45,-100.79 1042.02,-89.71"/>
<polygon fill="midnightblue" stroke="midnightblue" points="1042.69,-86.25 1032.1,-86.52 1040.55,-92.92 1042.69,-86.25"/>
</g>
<!-- Node21&#45;&gt;Node4 -->
<g id="edge25" class="edge">
<title>Node21&#45;&gt;Node4</title>
<path fill="none" stroke="midnightblue" d="M949.63,-56.4C921.75,-46.28 884.56,-32.79 857.99,-23.15"/>
<polygon fill="midnightblue" stroke="midnightblue" points="858.96,-19.78 848.36,-19.66 856.57,-26.36 858.96,-19.78"/>
</g>
<!-- Node22 -->
<g id="node22" class="node">
<title>Node22</title>
<g id="a_node22"><a xlink:title=" ">
<polygon fill="white" stroke="#bfbfbf" points="966,-0.5 966,-19.5 1011,-19.5 1011,-0.5 966,-0.5"/>
<text text-anchor="middle" x="988.5" y="-7.5" font-family="Helvetica,sans-Serif" font-size="10.00">Print.h</text>
</a>
</g>
</g>
<!-- Node21&#45;&gt;Node22 -->
<g id="edge26" class="edge">
<title>Node21&#45;&gt;Node22</title>
<path fill="none" stroke="midnightblue" d="M988.5,-56.4C988.5,-48.47 988.5,-38.46 988.5,-29.86"/>
<polygon fill="midnightblue" stroke="midnightblue" points="992,-29.66 988.5,-19.66 985,-29.66 992,-29.66"/>
</g>
<!-- Node24 -->
<g id="node24" class="node">
<title>Node24</title>
<g id="a_node24"><a xlink:title=" ">
<polygon fill="white" stroke="#bfbfbf" points="288,-235.5 288,-254.5 331,-254.5 331,-235.5 288,-235.5"/>
<text text-anchor="middle" x="309.5" y="-242.5" font-family="Helvetica,sans-Serif" font-size="10.00">queue</text>
</a>
</g>
</g>
<!-- Node23&#45;&gt;Node24 -->
<g id="edge28" class="edge">
<title>Node23&#45;&gt;Node24</title>
<path fill="none" stroke="midnightblue" d="M109.21,-291.44C155.93,-280.84 234.67,-262.98 278.2,-253.1"/>
<polygon fill="midnightblue" stroke="midnightblue" points="278.98,-256.51 287.96,-250.89 277.43,-249.69 278.98,-256.51"/>
</g>
<!-- Node25&#45;&gt;Node24 -->
<g id="edge30" class="edge">
<title>Node25&#45;&gt;Node24</title>
<path fill="none" stroke="midnightblue" d="M632.65,-291.44C550.09,-279.83 405.54,-259.51 341.55,-250.51"/>
<polygon fill="midnightblue" stroke="midnightblue" points="341.67,-246.99 331.28,-249.06 340.69,-253.92 341.67,-246.99"/>
</g>
<!-- Node26&#45;&gt;Node8 -->
<g id="edge41" class="edge">
<title>Node26&#45;&gt;Node8</title>
<path fill="none" stroke="midnightblue" d="M1152.22,-421.6C1069.73,-418.55 928.65,-408.84 888.5,-378 870.53,-364.2 862.55,-338.42 859.07,-320.74"/>
<polygon fill="midnightblue" stroke="midnightblue" points="862.5,-320.03 857.41,-310.74 855.6,-321.17 862.5,-320.03"/>
</g>
<!-- Node26&#45;&gt;Node11 -->
<g id="edge42" class="edge">
<title>Node26&#45;&gt;Node11</title>
<path fill="none" stroke="midnightblue" d="M1231.58,-414.39C1245.06,-406.87 1262.47,-394.57 1270.5,-378 1276.51,-365.6 1274.97,-360.03 1270.5,-347 1266.78,-336.16 1259.27,-325.92 1252.15,-317.96"/>
<polygon fill="midnightblue" stroke="midnightblue" points="1254.5,-315.35 1245.06,-310.55 1249.45,-320.19 1254.5,-315.35"/>
</g>
<!-- Node26&#45;&gt;Node14 -->
<g id="edge34" class="edge">
<title>Node26&#45;&gt;Node14</title>
<path fill="none" stroke="midnightblue" d="M1274.53,-420.53C1345.13,-416.41 1455.55,-405.62 1485.5,-378 1511.1,-354.4 1504.5,-336.82 1504.5,-302 1504.5,-302 1504.5,-302 1504.5,-244 1504.5,-200.38 1461.01,-166.06 1431.97,-148.01"/>
<polygon fill="midnightblue" stroke="midnightblue" points="1433.5,-144.85 1423.12,-142.73 1429.92,-150.86 1433.5,-144.85"/>
</g>
<!-- Node26&#45;&gt;Node16 -->
<g id="edge47" class="edge">
<title>Node26&#45;&gt;Node16</title>
<path fill="none" stroke="midnightblue" d="M1220.82,-414.29C1232.43,-399.35 1252.32,-368.38 1237.5,-347 1211.54,-309.55 1178.75,-337.24 1141.5,-311 1123.26,-298.15 1107.41,-277.86 1097.47,-263.37"/>
<polygon fill="midnightblue" stroke="midnightblue" points="1100.26,-261.23 1091.83,-254.82 1094.41,-265.09 1100.26,-261.23"/>
</g>
<!-- Node26&#45;&gt;Node19 -->
<g id="edge36" class="edge">
<title>Node26&#45;&gt;Node19</title>
<path fill="none" stroke="midnightblue" d="M1231.92,-414.49C1270.13,-395.51 1352.59,-346.99 1329.5,-291 1302.36,-225.18 1232.78,-172.39 1196.41,-148.25"/>
<polygon fill="midnightblue" stroke="midnightblue" points="1198.22,-145.25 1187.93,-142.74 1194.41,-151.12 1198.22,-145.25"/>
</g>
<!-- Node26&#45;&gt;Node25 -->
<g id="edge43" class="edge">
<title>Node26&#45;&gt;Node25</title>
<path fill="none" stroke="midnightblue" d="M1152.48,-420.62C1081.6,-416.62 961.69,-405.99 862.5,-378 808.63,-362.8 749.91,-333.15 717.83,-315.72"/>
<polygon fill="midnightblue" stroke="midnightblue" points="719.21,-312.48 708.76,-310.73 715.83,-318.62 719.21,-312.48"/>
</g>
<!-- Node27 -->
<g id="node27" class="node">
<title>Node27</title>
<g id="a_node27"><a xlink:title=" ">
<polygon fill="white" stroke="#bfbfbf" points="1074.5,-353 1074.5,-372 1180.5,-372 1180.5,-353 1074.5,-353"/>
<text text-anchor="middle" x="1127.5" y="-360" font-family="Helvetica,sans-Serif" font-size="10.00">WebSocketsClient.h</text>
</a>
</g>
</g>
<!-- Node26&#45;&gt;Node27 -->
<g id="edge33" class="edge">
<title>Node26&#45;&gt;Node27</title>
<path fill="none" stroke="midnightblue" d="M1201.18,-414.48C1187.38,-404.93 1164.8,-389.31 1148.27,-377.87"/>
<polygon fill="midnightblue" stroke="midnightblue" points="1150.01,-374.82 1139.8,-372.01 1146.03,-380.58 1150.01,-374.82"/>
</g>
<!-- Node28 -->
<g id="node28" class="node">
<title>Node28</title>
<g id="a_node28"><a xlink:title=" ">
<polygon fill="white" stroke="#bfbfbf" points="1198.5,-353 1198.5,-372 1228.5,-372 1228.5,-353 1198.5,-353"/>
<text text-anchor="middle" x="1213.5" y="-360" font-family="Helvetica,sans-Serif" font-size="10.00">set</text>
</a>
</g>
</g>
<!-- Node26&#45;&gt;Node28 -->
<g id="edge35" class="edge">
<title>Node26&#45;&gt;Node28</title>
<path fill="none" stroke="midnightblue" d="M1213.5,-414.48C1213.5,-406.08 1213.5,-392.98 1213.5,-382.16"/>
<polygon fill="midnightblue" stroke="midnightblue" points="1217,-382.01 1213.5,-372.01 1210,-382.01 1217,-382.01"/>
</g>
<!-- Node29 -->
<g id="node29" class="node">
<title>Node29</title>
<g id="a_node29"><a xlink:href="signalk__delta__queue_8h.html" target="_top" xlink:title=" ">
<polygon fill="white" stroke="black" points="897,-347.5 897,-377.5 1018,-377.5 1018,-347.5 897,-347.5"/>
<text text-anchor="start" x="905" y="-365.5" font-family="Helvetica,sans-Serif" font-size="10.00">sensesp/signalk/signalk</text>
<text text-anchor="middle" x="957.5" y="-354.5" font-family="Helvetica,sans-Serif" font-size="10.00">_delta_queue.h</text>
</a>
</g>
</g>
<!-- Node26&#45;&gt;Node29 -->
<g id="edge37" class="edge">
<title>Node26&#45;&gt;Node29</title>
<path fill="none" stroke="midnightblue" d="M1176.82,-414.48C1138.02,-405.46 1075.85,-391.01 1027.6,-379.79"/>
<polygon fill="midnightblue" stroke="midnightblue" points="1028.37,-376.38 1017.83,-377.52 1026.78,-383.2 1028.37,-376.38"/>
</g>
<!-- Node31 -->
<g id="node31" class="node">
<title>Node31</title>
<g id="a_node31"><a xlink:href="task__queue__producer_8h.html" target="_top" xlink:title=" ">
<polygon fill="white" stroke="black" points="1366.5,-347.5 1366.5,-377.5 1476.5,-377.5 1476.5,-347.5 1366.5,-347.5"/>
<text text-anchor="start" x="1374.5" y="-365.5" font-family="Helvetica,sans-Serif" font-size="10.00">sensesp/system/task</text>
<text text-anchor="middle" x="1421.5" y="-354.5" font-family="Helvetica,sans-Serif" font-size="10.00">_queue_producer.h</text>
</a>
</g>
</g>
<!-- Node26&#45;&gt;Node31 -->
<g id="edge44" class="edge">
<title>Node26&#45;&gt;Node31</title>
<path fill="none" stroke="midnightblue" d="M1243.3,-414.48C1274.37,-405.59 1323.87,-391.43 1362.82,-380.29"/>
<polygon fill="midnightblue" stroke="midnightblue" points="1363.83,-383.64 1372.48,-377.52 1361.9,-376.91 1363.83,-383.64"/>
</g>
<!-- Node29&#45;&gt;Node9 -->
<g id="edge38" class="edge">
<title>Node29&#45;&gt;Node9</title>
<path fill="none" stroke="midnightblue" d="M959,-347.27C963.16,-307.89 974.8,-197.49 979.5,-152.97"/>
<polygon fill="midnightblue" stroke="midnightblue" points="982.99,-153.24 980.56,-142.93 976.03,-152.5 982.99,-153.24"/>
</g>
<!-- Node29&#45;&gt;Node25 -->
<g id="edge40" class="edge">
<title>Node29&#45;&gt;Node25</title>
<path fill="none" stroke="midnightblue" d="M896.93,-347.85C849.62,-337.19 784.79,-322.57 741.14,-312.74"/>
<polygon fill="midnightblue" stroke="midnightblue" points="741.87,-309.31 731.34,-310.53 740.33,-316.14 741.87,-309.31"/>
</g>
<!-- Node30 -->
<g id="node30" class="node">
<title>Node30</title>
<g id="a_node30"><a xlink:title=" ">
<polygon fill="white" stroke="#bfbfbf" points="1027,-291.5 1027,-310.5 1056,-310.5 1056,-291.5 1027,-291.5"/>
<text text-anchor="middle" x="1041.5" y="-298.5" font-family="Helvetica,sans-Serif" font-size="10.00">list</text>
</a>
</g>
</g>
<!-- Node29&#45;&gt;Node30 -->
<g id="edge39" class="edge">
<title>Node29&#45;&gt;Node30</title>
<path fill="none" stroke="midnightblue" d="M977.41,-347.4C990.49,-338.13 1007.58,-326.03 1020.82,-316.65"/>
<polygon fill="midnightblue" stroke="midnightblue" points="1023.14,-319.29 1029.28,-310.66 1019.09,-313.58 1023.14,-319.29"/>
</g>
<!-- Node31&#45;&gt;Node11 -->
<g id="edge46" class="edge">
<title>Node31&#45;&gt;Node11</title>
<path fill="none" stroke="midnightblue" d="M1377.42,-347.4C1345.28,-337.12 1302.24,-323.35 1272.02,-313.68"/>
<polygon fill="midnightblue" stroke="midnightblue" points="1272.88,-310.28 1262.29,-310.57 1270.75,-316.95 1272.88,-310.28"/>
</g>
<!-- Node31&#45;&gt;Node20 -->
<g id="edge45" class="edge">
<title>Node31&#45;&gt;Node20</title>
<path fill="none" stroke="midnightblue" d="M1430.62,-347.19C1443.24,-325.97 1464.5,-284.51 1464.5,-246 1464.5,-246 1464.5,-246 1464.5,-188 1464.5,-157.9 1465.76,-145.26 1445.5,-123 1424.33,-99.74 1391.03,-87.03 1363.84,-80.17"/>
<polygon fill="midnightblue" stroke="midnightblue" points="1364.29,-76.69 1353.75,-77.83 1362.7,-83.5 1364.29,-76.69"/>
</g>
</g>
</svg>
        <g id="navigator" transform="translate(0 0)" fill="#404254">
                <rect fill="#f2f5e9" fill-opacity="0.5" stroke="#606060" stroke-width=".5" x="0" y="0" width="60" height="60"/>
                <use id="zoomplus" xlink:href="#zoomPlus" x="17" y="9" onmousedown="handleZoom(evt,'in')"/>
                <use id="zoomminus" xlink:href="#zoomMin" x="42" y="9" onmousedown="handleZoom(evt,'out')"/>
                <use id="reset" xlink:href="#resetDef" x="30" y="36" onmousedown="handleReset()"/>
                <g id="arrowUp" xlink:href="#dirArrow" transform="translate(30 24)" onmousedown="handlePan(0,-1)">
                  <use xlink:href="#rim" fill="#404040">
                        <set attributeName="fill" to="#808080" begin="arrowUp.mouseover" end="arrowUp.mouseout"/>
                  </use>
                  <path fill="none" stroke="white" stroke-width="1.5" d="M0,-3.0v7 M-2.5,-0.5L0,-3.0L2.5,-0.5"/>
                </g>
                <g id="arrowRight" xlink:href="#dirArrow" transform="rotate(90) translate(36 -43)" onmousedown="handlePan(1,0)">
                  <use xlink:href="#rim" fill="#404040">
                        <set attributeName="fill" to="#808080" begin="arrowRight.mouseover" end="arrowRight.mouseout"/>
                  </use>
                  <path fill="none" stroke="white" stroke-width="1.5" d="M0,-3.0v7 M-2.5,-0.5L0,-3.0L2.5,-0.5"/>
                </g>
                <g id="arrowDown" xlink:href="#dirArrow" transform="rotate(180) translate(-30 -48)" onmousedown="handlePan(0,1)">
                  <use xlink:href="#rim" fill="#404040">
                        <set attributeName="fill" to="#808080" begin="arrowDown.mouseover" end="arrowDown.mouseout"/>
                  </use>
                  <path fill="none" stroke="white" stroke-width="1.5" d="M0,-3.0v7 M-2.5,-0.5L0,-3.0L2.5,-0.5"/>
                </g>
                <g id="arrowLeft" xlink:href="#dirArrow" transform="rotate(270) translate(-36 17)" onmousedown="handlePan(-1,0)">
                  <use xlink:href="#rim" fill="#404040">
                        <set attributeName="fill" to="#808080" begin="arrowLeft.mouseover" end="arrowLeft.mouseout"/>
                  </use>
                  <path fill="none" stroke="white" stroke-width="1.5" d="M0,-3.0v7 M-2.5,-0.5L0,-3.0L2.5,-0.5"/>
                </g>
        </g>
        <svg viewBox="0 0 15 15" width="100%" height="30px" preserveAspectRatio="xMaxYMin meet">
         <g id="arrow_out" transform="scale(0.3 0.3)">
          <a xlink:href="system__status__controller_8cpp__incl_org.svg" target="_base">
           <rect id="button" ry="5" rx="5" y="6" x="6" height="38" width="38"
                fill="#f2f5e9" fill-opacity="0.5" stroke="#606060" stroke-width="1.0"/>
           <path id="arrow"
             d="M 11.500037,31.436501 C 11.940474,20.09759 22.043105,11.32322 32.158766,21.979434 L 37.068811,17.246167 C 37.068811,17.246167 37.088388,32 37.088388,32 L 22.160133,31.978069 C 22.160133,31.978069 26.997745,27.140456 26.997745,27.140456 C 18.528582,18.264221 13.291696,25.230495 11.500037,31.436501 z"
             style="fill:#404040;"/>
          </a>
         </g>
        </svg>
</svg>
