<?xml version="1.0" encoding="UTF-8" standalone="no"?>
<!DOCTYPE svg PUBLIC "-//W3C//DTD SVG 1.1//EN"
 "http://www.w3.org/Graphics/SVG/1.1/DTD/svg11.dtd">
<!-- Generated by graphviz version 2.40.1 (20161225.0304)
 -->
<!-- Title: src/controllers/system_status_controller.h Pages: 1 -->
<svg width="1060pt" height="287pt"
 viewBox="0.00 0.00 1060.44 287.00" xmlns="http://www.w3.org/2000/svg" xmlns:xlink="http://www.w3.org/1999/xlink">
<g id="graph0" class="graph" transform="scale(1 1) rotate(0) translate(4 283)">
<title>src/controllers/system_status_controller.h</title>
<polygon fill="#ffffff" stroke="transparent" points="-4,4 -4,-283 1056.4355,-283 1056.4355,4 -4,4"/>
<!-- Node24 -->
<g id="node1" class="node">
<title>Node24</title>
<g id="a_node1"><a xlink:title=" ">
<polygon fill="#bfbfbf" stroke="#000000" points="579.8423,-250.5 579.8423,-278.5 692.5269,-278.5 692.5269,-250.5 579.8423,-250.5"/>
<text text-anchor="start" x="587.8423" y="-266.5" font-family="Helvetica,sans-Serif" font-size="10.00" fill="#000000">src/controllers/system</text>
<text text-anchor="middle" x="636.1846" y="-256.5" font-family="Helvetica,sans-Serif" font-size="10.00" fill="#000000">_status_controller.h</text>
</a>
</g>
</g>
<!-- Node25 -->
<g id="node2" class="node">
<title>Node25</title>
<g id="a_node2"><a xlink:href="system__status__controller_8cpp.html" target="_top" xlink:title=" ">
<polygon fill="#ffffff" stroke="#000000" points="494.542,-185.5 494.542,-213.5 607.8271,-213.5 607.8271,-185.5 494.542,-185.5"/>
<text text-anchor="start" x="502.542" y="-201.5" font-family="Helvetica,sans-Serif" font-size="10.00" fill="#000000">src/controllers/system</text>
<text text-anchor="middle" x="551.1846" y="-191.5" font-family="Helvetica,sans-Serif" font-size="10.00" fill="#000000">_status_controller.cpp</text>
</a>
</g>
</g>
<!-- Node24&#45;&gt;Node25 -->
<g id="edge1" class="edge">
<title>Node24&#45;&gt;Node25</title>
<path fill="none" stroke="#191970" d="M609.5961,-244.1677C596.5985,-234.2283 581.2803,-222.5144 569.5923,-213.5765"/>
<polygon fill="#191970" stroke="#191970" points="607.6711,-247.1017 617.7408,-250.396 611.9233,-241.5412 607.6711,-247.1017"/>
</g>
<!-- Node26 -->
<g id="node3" class="node">
<title>Node26</title>
<g id="a_node3"><a xlink:href="sensesp__app_8h.html" target="_top" xlink:title=" ">
<polygon fill="#ffffff" stroke="#000000" points="576.2144,-125.5 576.2144,-143.5 676.1548,-143.5 676.1548,-125.5 576.2144,-125.5"/>
<text text-anchor="middle" x="626.1846" y="-131.5" font-family="Helvetica,sans-Serif" font-size="10.00" fill="#000000">src/sensesp_app.h</text>
</a>
</g>
</g>
<!-- Node24&#45;&gt;Node26 -->
<g id="edge2" class="edge">
<title>Node24&#45;&gt;Node26</title>
<path fill="none" stroke="#191970" d="M634.3097,-240.1272C632.0607,-210.8902 628.4036,-163.3469 626.8825,-143.5736"/>
<polygon fill="#191970" stroke="#191970" points="630.8386,-240.6382 635.0954,-250.3402 637.818,-240.1012 630.8386,-240.6382"/>
</g>
<!-- Node36 -->
<g id="node13" class="node">
<title>Node36</title>
<g id="a_node13"><a xlink:href="system__status__led_8h.html" target="_top" xlink:title=" ">
<polygon fill="#ffffff" stroke="#000000" points="683.9507,-185.5 683.9507,-213.5 814.4185,-213.5 814.4185,-185.5 683.9507,-185.5"/>
<text text-anchor="start" x="691.9507" y="-201.5" font-family="Helvetica,sans-Serif" font-size="10.00" fill="#000000">src/system/system_status</text>
<text text-anchor="middle" x="749.1846" y="-191.5" font-family="Helvetica,sans-Serif" font-size="10.00" fill="#000000">_led.h</text>
</a>
</g>
</g>
<!-- Node24&#45;&gt;Node36 -->
<g id="edge13" class="edge">
<title>Node24&#45;&gt;Node36</title>
<path fill="none" stroke="#191970" d="M669.5707,-245.2956C687.2522,-235.1248 708.583,-222.8549 724.7131,-213.5765"/>
<polygon fill="#191970" stroke="#191970" points="667.627,-242.3759 660.7039,-250.396 671.1173,-248.4437 667.627,-242.3759"/>
</g>
<!-- Node27 -->
<g id="node4" class="node">
<title>Node27</title>
<g id="a_node4"><a xlink:href="http_8cpp.html" target="_top" xlink:title=" ">
<polygon fill="#ffffff" stroke="#000000" points="0,-60.5 0,-78.5 84.3691,-78.5 84.3691,-60.5 0,-60.5"/>
<text text-anchor="middle" x="42.1846" y="-66.5" font-family="Helvetica,sans-Serif" font-size="10.00" fill="#000000">src/net/http.cpp</text>
</a>
</g>
</g>
<!-- Node26&#45;&gt;Node27 -->
<g id="edge3" class="edge">
<title>Node26&#45;&gt;Node27</title>
<path fill="none" stroke="#191970" d="M565.7663,-132.252C466.5805,-127.7839 263.3448,-115.3573 94.1846,-84 86.6281,-82.5993 78.5773,-80.6082 71.1241,-78.5486"/>
<polygon fill="#191970" stroke="#191970" points="565.7556,-135.7548 575.8996,-132.6969 566.0628,-128.7615 565.7556,-135.7548"/>
</g>
<!-- Node28 -->
<g id="node5" class="node">
<title>Node28</title>
<g id="a_node5"><a xlink:href="ws__client_8cpp.html" target="_top" xlink:title=" ">
<polygon fill="#ffffff" stroke="#000000" points="102.7759,-60.5 102.7759,-78.5 211.5933,-78.5 211.5933,-60.5 102.7759,-60.5"/>
<text text-anchor="middle" x="157.1846" y="-66.5" font-family="Helvetica,sans-Serif" font-size="10.00" fill="#000000">src/net/ws_client.cpp</text>
</a>
</g>
</g>
<!-- Node26&#45;&gt;Node28 -->
<g id="edge4" class="edge">
<title>Node26&#45;&gt;Node28</title>
<path fill="none" stroke="#191970" d="M565.7711,-128.8481C486.3794,-120.9914 342.7517,-105.2969 221.1846,-84 212.4316,-82.4666 203.071,-80.5215 194.2857,-78.558"/>
<polygon fill="#191970" stroke="#191970" points="565.7743,-132.3652 576.0684,-129.8588 566.4581,-125.3986 565.7743,-132.3652"/>
</g>
<!-- Node29 -->
<g id="node6" class="node">
<title>Node29</title>
<g id="a_node6"><a xlink:href="sensesp__app_8cpp.html" target="_top" xlink:title=" ">
<polygon fill="#ffffff" stroke="#000000" points="941.9336,-60.5 941.9336,-78.5 1052.4355,-78.5 1052.4355,-60.5 941.9336,-60.5"/>
<text text-anchor="middle" x="997.1846" y="-66.5" font-family="Helvetica,sans-Serif" font-size="10.00" fill="#000000">src/sensesp_app.cpp</text>
</a>
</g>
</g>
<!-- Node26&#45;&gt;Node29 -->
<g id="edge5" class="edge">
<title>Node26&#45;&gt;Node29</title>
<path fill="none" stroke="#191970" d="M670.6335,-123.1043C675.5292,-121.99 680.4527,-120.9298 685.1846,-120 792.3145,-98.9484 820.7136,-103.2351 928.1846,-84 937.2216,-82.3826 946.8858,-80.4683 956.034,-78.5699"/>
<polygon fill="#191970" stroke="#191970" points="669.626,-119.7457 660.6935,-125.4432 671.2294,-126.5596 669.626,-119.7457"/>
</g>
<!-- Node30 -->
<g id="node7" class="node">
<title>Node30</title>
<g id="a_node7"><a xlink:href="sensesp__app__builder_8h.html" target="_top" xlink:title=" ">
<polygon fill="#ffffff" stroke="#000000" points="229.6973,-60.5 229.6973,-78.5 364.6719,-78.5 364.6719,-60.5 229.6973,-60.5"/>
<text text-anchor="middle" x="297.1846" y="-66.5" font-family="Helvetica,sans-Serif" font-size="10.00" fill="#000000">src/sensesp_app_builder.h</text>
</a>
</g>
</g>
<!-- Node26&#45;&gt;Node30 -->
<g id="edge6" class="edge">
<title>Node26&#45;&gt;Node30</title>
<path fill="none" stroke="#191970" d="M570.507,-123.4999C506.4066,-110.8357 402.3251,-90.2724 342.8064,-78.5134"/>
<polygon fill="#191970" stroke="#191970" points="569.9498,-126.9574 580.4385,-125.462 571.3066,-120.0901 569.9498,-126.9574"/>
</g>
<!-- Node31 -->
<g id="node8" class="node">
<title>Node31</title>
<g id="a_node8"><a xlink:href="signalk__put__request_8cpp.html" target="_top" xlink:title=" ">
<polygon fill="#ffffff" stroke="#000000" points="382.6133,-55.5 382.6133,-83.5 479.7559,-83.5 479.7559,-55.5 382.6133,-55.5"/>
<text text-anchor="start" x="390.6133" y="-71.5" font-family="Helvetica,sans-Serif" font-size="10.00" fill="#000000">src/signalk/signalk</text>
<text text-anchor="middle" x="431.1846" y="-61.5" font-family="Helvetica,sans-Serif" font-size="10.00" fill="#000000">_put_request.cpp</text>
</a>
</g>
</g>
<!-- Node26&#45;&gt;Node31 -->
<g id="edge7" class="edge">
<title>Node26&#45;&gt;Node31</title>
<path fill="none" stroke="#191970" d="M589.3586,-122.2247C556.3691,-111.2282 507.9988,-95.1047 473.4441,-83.5865"/>
<polygon fill="#191970" stroke="#191970" points="588.477,-125.6201 599.0707,-125.462 590.6906,-118.9793 588.477,-125.6201"/>
</g>
<!-- Node32 -->
<g id="node9" class="node">
<title>Node32</title>
<g id="a_node9"><a xlink:href="enable_8cpp.html" target="_top" xlink:title=" ">
<polygon fill="#ffffff" stroke="#000000" points="497.4409,-60.5 497.4409,-78.5 612.9282,-78.5 612.9282,-60.5 497.4409,-60.5"/>
<text text-anchor="middle" x="555.1846" y="-66.5" font-family="Helvetica,sans-Serif" font-size="10.00" fill="#000000">src/system/enable.cpp</text>
</a>
</g>
</g>
<!-- Node26&#45;&gt;Node32 -->
<g id="edge8" class="edge">
<title>Node26&#45;&gt;Node32</title>
<path fill="none" stroke="#191970" d="M608.5756,-118.3791C595.0002,-105.9509 576.6989,-89.1962 565.4328,-78.8821"/>
<polygon fill="#191970" stroke="#191970" points="606.573,-121.291 616.3123,-125.462 611.2998,-116.1279 606.573,-121.291"/>
</g>
<!-- Node33 -->
<g id="node10" class="node">
<title>Node33</title>
<g id="a_node10"><a xlink:href="led__blinker_8cpp.html" target="_top" xlink:title=" ">
<polygon fill="#ffffff" stroke="#000000" points="630.5469,-60.5 630.5469,-78.5 763.8223,-78.5 763.8223,-60.5 630.5469,-60.5"/>
<text text-anchor="middle" x="697.1846" y="-66.5" font-family="Helvetica,sans-Serif" font-size="10.00" fill="#000000">src/system/led_blinker.cpp</text>
</a>
</g>
</g>
<!-- Node26&#45;&gt;Node33 -->
<g id="edge9" class="edge">
<title>Node26&#45;&gt;Node33</title>
<path fill="none" stroke="#191970" d="M643.7936,-118.3791C657.3689,-105.9509 675.6702,-89.1962 686.9364,-78.8821"/>
<polygon fill="#191970" stroke="#191970" points="641.0693,-116.1279 636.0568,-125.462 645.7961,-121.291 641.0693,-116.1279"/>
</g>
<!-- Node34 -->
<g id="node11" class="node">
<title>Node34</title>
<g id="a_node11"><a xlink:href="wiring__helpers_8h.html" target="_top" xlink:title=" ">
<polygon fill="#ffffff" stroke="#000000" points="781.7217,-60.5 781.7217,-78.5 886.6475,-78.5 886.6475,-60.5 781.7217,-60.5"/>
<text text-anchor="middle" x="834.1846" y="-66.5" font-family="Helvetica,sans-Serif" font-size="10.00" fill="#000000">src/wiring_helpers.h</text>
</a>
</g>
</g>
<!-- Node26&#45;&gt;Node34 -->
<g id="edge10" class="edge">
<title>Node26&#45;&gt;Node34</title>
<path fill="none" stroke="#191970" d="M664.6761,-122.4714C705.3339,-109.7658 768.5223,-90.0195 805.1742,-78.5658"/>
<polygon fill="#191970" stroke="#191970" points="663.6069,-119.1385 655.1061,-125.462 665.6949,-125.8199 663.6069,-119.1385"/>
</g>
<!-- Node35 -->
<g id="node12" class="node">
<title>Node35</title>
<g id="a_node12"><a xlink:href="wiring__helpers_8cpp.html" target="_top" xlink:title=" ">
<polygon fill="#ffffff" stroke="#000000" points="816.4409,-.5 816.4409,-18.5 931.9282,-18.5 931.9282,-.5 816.4409,-.5"/>
<text text-anchor="middle" x="874.1846" y="-6.5" font-family="Helvetica,sans-Serif" font-size="10.00" fill="#000000">src/wiring_helpers.cpp</text>
</a>
</g>
</g>
<!-- Node26&#45;&gt;Node35 -->
<g id="edge12" class="edge">
<title>Node26&#45;&gt;Node35</title>
<path fill="none" stroke="#191970" d="M670.846,-123.1687C675.6747,-122.0497 680.5249,-120.9707 685.1846,-120 731.5369,-110.3439 864.6641,-120.1978 895.1846,-84 911.2964,-64.8911 892.91,-34.2218 881.6502,-18.8783"/>
<polygon fill="#191970" stroke="#191970" points="669.9529,-119.7834 661.0326,-125.4998 671.5707,-126.5939 669.9529,-119.7834"/>
</g>
<!-- Node34&#45;&gt;Node35 -->
<g id="edge11" class="edge">
<title>Node34&#45;&gt;Node35</title>
<path fill="none" stroke="#191970" d="M845.8329,-52.0276C853.0991,-41.1282 862.1581,-27.5397 868.0523,-18.6985"/>
<polygon fill="#191970" stroke="#191970" points="842.8946,-50.1253 840.2597,-60.3873 848.7189,-54.0082 842.8946,-50.1253"/>
</g>
<!-- Node36&#45;&gt;Node26 -->
<g id="edge14" class="edge">
<title>Node36&#45;&gt;Node26</title>
<path fill="none" stroke="#191970" d="M713.3473,-180.5616C690.302,-168.3832 661.3983,-153.1089 643.356,-143.5743"/>
<polygon fill="#191970" stroke="#191970" points="712.0187,-183.8181 722.4954,-185.396 715.2893,-177.6292 712.0187,-183.8181"/>
</g>
<!-- Node36&#45;&gt;Node29 -->
<g id="edge15" class="edge">
<title>Node36&#45;&gt;Node29</title>
<path fill="none" stroke="#191970" d="M785.1063,-180.67C839.2378,-152.2947 939.6609,-99.6536 979.875,-78.5736"/>
<polygon fill="#191970" stroke="#191970" points="783.429,-177.5975 776.197,-185.3402 786.6789,-183.7974 783.429,-177.5975"/>
</g>
<!-- Node37 -->
<g id="node14" class="node">
<title>Node37</title>
<g id="a_node14"><a xlink:href="system__status__led_8cpp.html" target="_top" xlink:title=" ">
<polygon fill="#ffffff" stroke="#000000" points="693.9507,-120.5 693.9507,-148.5 824.4185,-148.5 824.4185,-120.5 693.9507,-120.5"/>
<text text-anchor="start" x="701.9507" y="-136.5" font-family="Helvetica,sans-Serif" font-size="10.00" fill="#000000">src/system/system_status</text>
<text text-anchor="middle" x="759.1846" y="-126.5" font-family="Helvetica,sans-Serif" font-size="10.00" fill="#000000">_led.cpp</text>
</a>
</g>
</g>
<!-- Node36&#45;&gt;Node37 -->
<g id="edge16" class="edge">
<title>Node36&#45;&gt;Node37</title>
<path fill="none" stroke="#191970" d="M752.8918,-175.4029C754.2815,-166.3703 755.8141,-156.4078 757.019,-148.5765"/>
<polygon fill="#191970" stroke="#191970" points="749.4158,-174.98 751.3544,-185.396 756.3344,-176.0445 749.4158,-174.98"/>
</g>
</g>
</svg>
