<?xml version="1.0" encoding="UTF-8" standalone="no"?>
<!DOCTYPE svg PUBLIC "-//W3C//DTD SVG 1.1//EN"
 "http://www.w3.org/Graphics/SVG/1.1/DTD/svg11.dtd">
<!-- Generated by graphviz version 2.50.0 (20211204.2007)
 -->
<!-- Title: src/sensesp/transforms/typecast.h Pages: 1 -->
<svg width="706pt" height="442pt"
 viewBox="0.00 0.00 705.50 442.00" xmlns="http://www.w3.org/2000/svg" xmlns:xlink="http://www.w3.org/1999/xlink">
<g id="graph0" class="graph" transform="scale(1 1) rotate(0) translate(4 438)">
<title>src/sensesp/transforms/typecast.h</title>
<polygon fill="white" stroke="transparent" points="-4,4 -4,-438 701.5,-438 701.5,4 -4,4"/>
<!-- Node1 -->
<g id="node1" class="node">
<title>Node1</title>
<g id="a_node1"><a xlink:title=" ">
<polygon fill="#bfbfbf" stroke="black" points="445.5,-403.5 445.5,-433.5 564.5,-433.5 564.5,-403.5 445.5,-403.5"/>
<text text-anchor="start" x="453.5" y="-421.5" font-family="Helvetica,sans-Serif" font-size="10.00">src/sensesp/transforms</text>
<text text-anchor="middle" x="505" y="-410.5" font-family="Helvetica,sans-Serif" font-size="10.00">/typecast.h</text>
</a>
</g>
</g>
<!-- Node2 -->
<g id="node2" class="node">
<title>Node2</title>
<g id="a_node2"><a xlink:title=" ">
<polygon fill="white" stroke="#bfbfbf" points="638.5,-123.5 638.5,-142.5 697.5,-142.5 697.5,-123.5 638.5,-123.5"/>
<text text-anchor="middle" x="668" y="-130.5" font-family="Helvetica,sans-Serif" font-size="10.00">functional</text>
</a>
</g>
</g>
<!-- Node1&#45;&gt;Node2 -->
<g id="edge1" class="edge">
<title>Node1&#45;&gt;Node2</title>
<path fill="none" stroke="midnightblue" d="M564.68,-406.58C619.41,-392.72 692,-362.86 692,-302 692,-302 692,-302 692,-244 692,-211.06 681.6,-173.82 674.49,-152.21"/>
<polygon fill="midnightblue" stroke="midnightblue" points="677.78,-151.03 671.24,-142.7 671.16,-153.29 677.78,-151.03"/>
</g>
<!-- Node3 -->
<g id="node3" class="node">
<title>Node3</title>
<g id="a_node3"><a xlink:href="lambda__transform_8h.html" target="_top" xlink:title=" ">
<polygon fill="white" stroke="black" points="413.5,-347.5 413.5,-366.5 516.5,-366.5 516.5,-347.5 413.5,-347.5"/>
<text text-anchor="middle" x="465" y="-354.5" font-family="Helvetica,sans-Serif" font-size="10.00">lambda_transform.h</text>
</a>
</g>
</g>
<!-- Node1&#45;&gt;Node3 -->
<g id="edge2" class="edge">
<title>Node1&#45;&gt;Node3</title>
<path fill="none" stroke="midnightblue" d="M495.52,-403.4C489.83,-394.93 482.55,-384.1 476.52,-375.14"/>
<polygon fill="midnightblue" stroke="midnightblue" points="479.3,-373 470.82,-366.66 473.49,-376.91 479.3,-373"/>
</g>
<!-- Node4 -->
<g id="node4" class="node">
<title>Node4</title>
<g id="a_node4"><a xlink:href="transform_8h.html" target="_top" xlink:title=" ">
<polygon fill="white" stroke="black" points="285,-291.5 285,-310.5 351,-310.5 351,-291.5 285,-291.5"/>
<text text-anchor="middle" x="318" y="-298.5" font-family="Helvetica,sans-Serif" font-size="10.00">transform.h</text>
</a>
</g>
</g>
<!-- Node3&#45;&gt;Node4 -->
<g id="edge3" class="edge">
<title>Node3&#45;&gt;Node4</title>
<path fill="none" stroke="midnightblue" d="M441.71,-347.44C417.19,-338.44 378.4,-324.19 350.8,-314.05"/>
<polygon fill="midnightblue" stroke="midnightblue" points="351.78,-310.68 341.18,-310.52 349.36,-317.25 351.78,-310.68"/>
</g>
<!-- Node5 -->
<g id="node5" class="node">
<title>Node5</title>
<g id="a_node5"><a xlink:title=" ">
<polygon fill="white" stroke="#bfbfbf" points="186.5,-123.5 186.5,-142.5 265.5,-142.5 265.5,-123.5 186.5,-123.5"/>
<text text-anchor="middle" x="226" y="-130.5" font-family="Helvetica,sans-Serif" font-size="10.00">ArduinoJson.h</text>
</a>
</g>
</g>
<!-- Node4&#45;&gt;Node5 -->
<g id="edge4" class="edge">
<title>Node4&#45;&gt;Node5</title>
<path fill="none" stroke="midnightblue" d="M313.05,-291.08C298.45,-264.72 255.31,-186.88 235.79,-151.66"/>
<polygon fill="midnightblue" stroke="midnightblue" points="238.66,-149.62 230.75,-142.57 232.53,-153.01 238.66,-149.62"/>
</g>
<!-- Node6 -->
<g id="node6" class="node">
<title>Node6</title>
<g id="a_node6"><a xlink:title=" ">
<polygon fill="white" stroke="#bfbfbf" points="303,-235.5 303,-254.5 333,-254.5 333,-235.5 303,-235.5"/>
<text text-anchor="middle" x="318" y="-242.5" font-family="Helvetica,sans-Serif" font-size="10.00">set</text>
</a>
</g>
</g>
<!-- Node4&#45;&gt;Node6 -->
<g id="edge5" class="edge">
<title>Node4&#45;&gt;Node6</title>
<path fill="none" stroke="midnightblue" d="M318,-291.08C318,-284.01 318,-273.86 318,-264.99"/>
<polygon fill="midnightblue" stroke="midnightblue" points="321.5,-264.75 318,-254.75 314.5,-264.75 321.5,-264.75"/>
</g>
<!-- Node7 -->
<g id="node7" class="node">
<title>Node7</title>
<g id="a_node7"><a xlink:href="sensesp_8h.html" target="_top" xlink:title=" ">
<polygon fill="white" stroke="black" points="25,-123.5 25,-142.5 87,-142.5 87,-123.5 25,-123.5"/>
<text text-anchor="middle" x="56" y="-130.5" font-family="Helvetica,sans-Serif" font-size="10.00">sensesp.h</text>
</a>
</g>
</g>
<!-- Node4&#45;&gt;Node7 -->
<g id="edge6" class="edge">
<title>Node4&#45;&gt;Node7</title>
<path fill="none" stroke="midnightblue" d="M284.59,-300.3C234.89,-299.4 139.83,-292.38 70,-255 39.52,-238.68 28.94,-231.06 16,-199 8.7,-180.92 23.01,-162.15 36.49,-149.46"/>
<polygon fill="midnightblue" stroke="midnightblue" points="38.95,-151.96 44.17,-142.74 34.34,-146.69 38.95,-151.96"/>
</g>
<!-- Node12 -->
<g id="node12" class="node">
<title>Node12</title>
<g id="a_node12"><a xlink:href="configurable_8h.html" target="_top" xlink:title=" ">
<polygon fill="white" stroke="black" points="285,-179.5 285,-198.5 437,-198.5 437,-179.5 285,-179.5"/>
<text text-anchor="middle" x="361" y="-186.5" font-family="Helvetica,sans-Serif" font-size="10.00">sensesp/system/configurable.h</text>
</a>
</g>
</g>
<!-- Node4&#45;&gt;Node12 -->
<g id="edge11" class="edge">
<title>Node4&#45;&gt;Node12</title>
<path fill="none" stroke="midnightblue" d="M323.34,-291.3C328.61,-282.42 336.65,-268.12 342,-255 348.24,-239.69 353.36,-221.59 356.7,-208.38"/>
<polygon fill="midnightblue" stroke="midnightblue" points="360.12,-209.15 359.08,-198.6 353.32,-207.49 360.12,-209.15"/>
</g>
<!-- Node14 -->
<g id="node14" class="node">
<title>Node14</title>
<g id="a_node14"><a xlink:href="observable_8h.html" target="_top" xlink:title=" ">
<polygon fill="white" stroke="black" points="455.5,-179.5 455.5,-198.5 602.5,-198.5 602.5,-179.5 455.5,-179.5"/>
<text text-anchor="middle" x="529" y="-186.5" font-family="Helvetica,sans-Serif" font-size="10.00">sensesp/system/observable.h</text>
</a>
</g>
</g>
<!-- Node4&#45;&gt;Node14 -->
<g id="edge15" class="edge">
<title>Node4&#45;&gt;Node14</title>
<path fill="none" stroke="midnightblue" d="M334.56,-291.37C371.3,-272.21 459.88,-226.04 503.65,-203.22"/>
<polygon fill="midnightblue" stroke="midnightblue" points="505.27,-206.32 512.52,-198.59 502.03,-200.11 505.27,-206.32"/>
</g>
<!-- Node17 -->
<g id="node17" class="node">
<title>Node17</title>
<g id="a_node17"><a xlink:href="startable_8h.html" target="_top" xlink:title=" ">
<polygon fill="white" stroke="black" points="501.5,-235.5 501.5,-254.5 638.5,-254.5 638.5,-235.5 501.5,-235.5"/>
<text text-anchor="middle" x="570" y="-242.5" font-family="Helvetica,sans-Serif" font-size="10.00">sensesp/system/startable.h</text>
</a>
</g>
</g>
<!-- Node4&#45;&gt;Node17 -->
<g id="edge19" class="edge">
<title>Node4&#45;&gt;Node17</title>
<path fill="none" stroke="midnightblue" d="M351.2,-292.88C394.34,-283.64 470.04,-267.42 520.11,-256.69"/>
<polygon fill="midnightblue" stroke="midnightblue" points="521.02,-260.07 530.07,-254.56 519.56,-253.23 521.02,-260.07"/>
</g>
<!-- Node19 -->
<g id="node19" class="node">
<title>Node19</title>
<g id="a_node19"><a xlink:href="valueconsumer_8h.html" target="_top" xlink:title=" ">
<polygon fill="white" stroke="black" points="25.5,-179.5 25.5,-198.5 190.5,-198.5 190.5,-179.5 25.5,-179.5"/>
<text text-anchor="middle" x="108" y="-186.5" font-family="Helvetica,sans-Serif" font-size="10.00">sensesp/system/valueconsumer.h</text>
</a>
</g>
</g>
<!-- Node4&#45;&gt;Node19 -->
<g id="edge21" class="edge">
<title>Node4&#45;&gt;Node19</title>
<path fill="none" stroke="midnightblue" d="M284.91,-298.82C225.36,-295.92 103.92,-286.24 78,-255 65.92,-240.45 78.8,-220.24 91.23,-206.23"/>
<polygon fill="midnightblue" stroke="midnightblue" points="93.95,-208.45 98.31,-198.79 88.88,-203.62 93.95,-208.45"/>
</g>
<!-- Node21 -->
<g id="node21" class="node">
<title>Node21</title>
<g id="a_node21"><a xlink:href="valueproducer_8h.html" target="_top" xlink:title=" ">
<polygon fill="white" stroke="black" points="87,-235.5 87,-254.5 247,-254.5 247,-235.5 87,-235.5"/>
<text text-anchor="middle" x="167" y="-242.5" font-family="Helvetica,sans-Serif" font-size="10.00">sensesp/system/valueproducer.h</text>
</a>
</g>
</g>
<!-- Node4&#45;&gt;Node21 -->
<g id="edge25" class="edge">
<title>Node4&#45;&gt;Node21</title>
<path fill="none" stroke="midnightblue" d="M294.07,-291.44C268.78,-282.4 228.7,-268.06 200.32,-257.92"/>
<polygon fill="midnightblue" stroke="midnightblue" points="201.41,-254.59 190.81,-254.52 199.05,-261.18 201.41,-254.59"/>
</g>
<!-- Node8 -->
<g id="node8" class="node">
<title>Node8</title>
<g id="a_node8"><a xlink:title=" ">
<polygon fill="white" stroke="#bfbfbf" points="130,-62 130,-81 200,-81 200,-62 130,-62"/>
<text text-anchor="middle" x="165" y="-69" font-family="Helvetica,sans-Serif" font-size="10.00">ReactESP.h</text>
</a>
</g>
</g>
<!-- Node7&#45;&gt;Node8 -->
<g id="edge7" class="edge">
<title>Node7&#45;&gt;Node8</title>
<path fill="none" stroke="midnightblue" d="M71.62,-123.48C89.59,-113.67 119.32,-97.43 140.41,-85.92"/>
<polygon fill="midnightblue" stroke="midnightblue" points="142.31,-88.87 149.41,-81.01 138.96,-82.73 142.31,-88.87"/>
</g>
<!-- Node9 -->
<g id="node9" class="node">
<title>Node9</title>
<g id="a_node9"><a xlink:href="local__debug_8h.html" target="_top" xlink:title=" ">
<polygon fill="white" stroke="black" points="0,-56.5 0,-86.5 112,-86.5 112,-56.5 0,-56.5"/>
<text text-anchor="start" x="8" y="-74.5" font-family="Helvetica,sans-Serif" font-size="10.00">sensesp/system/local</text>
<text text-anchor="middle" x="56" y="-63.5" font-family="Helvetica,sans-Serif" font-size="10.00">_debug.h</text>
</a>
</g>
</g>
<!-- Node7&#45;&gt;Node9 -->
<g id="edge8" class="edge">
<title>Node7&#45;&gt;Node9</title>
<path fill="none" stroke="midnightblue" d="M56,-123.48C56,-116.47 56,-106.19 56,-96.7"/>
<polygon fill="midnightblue" stroke="midnightblue" points="59.5,-96.52 56,-86.52 52.5,-96.52 59.5,-96.52"/>
</g>
<!-- Node10 -->
<g id="node10" class="node">
<title>Node10</title>
<g id="a_node10"><a xlink:title=" ">
<polygon fill="white" stroke="#bfbfbf" points="188,-0.5 188,-19.5 246,-19.5 246,-0.5 188,-0.5"/>
<text text-anchor="middle" x="217" y="-7.5" font-family="Helvetica,sans-Serif" font-size="10.00">Arduino.h</text>
</a>
</g>
</g>
<!-- Node9&#45;&gt;Node10 -->
<g id="edge9" class="edge">
<title>Node9&#45;&gt;Node10</title>
<path fill="none" stroke="midnightblue" d="M94.15,-56.4C121.53,-46.28 158.04,-32.79 184.13,-23.15"/>
<polygon fill="midnightblue" stroke="midnightblue" points="185.41,-26.41 193.57,-19.66 182.98,-19.84 185.41,-26.41"/>
</g>
<!-- Node11 -->
<g id="node11" class="node">
<title>Node11</title>
<g id="a_node11"><a xlink:title=" ">
<polygon fill="white" stroke="#bfbfbf" points="33.5,-0.5 33.5,-19.5 78.5,-19.5 78.5,-0.5 33.5,-0.5"/>
<text text-anchor="middle" x="56" y="-7.5" font-family="Helvetica,sans-Serif" font-size="10.00">Print.h</text>
</a>
</g>
</g>
<!-- Node9&#45;&gt;Node11 -->
<g id="edge10" class="edge">
<title>Node9&#45;&gt;Node11</title>
<path fill="none" stroke="midnightblue" d="M56,-56.4C56,-48.47 56,-38.46 56,-29.86"/>
<polygon fill="midnightblue" stroke="midnightblue" points="59.5,-29.66 56,-19.66 52.5,-29.66 59.5,-29.66"/>
</g>
<!-- Node12&#45;&gt;Node5 -->
<g id="edge12" class="edge">
<title>Node12&#45;&gt;Node5</title>
<path fill="none" stroke="midnightblue" d="M339.61,-179.44C317.29,-170.52 282.1,-156.44 256.79,-146.32"/>
<polygon fill="midnightblue" stroke="midnightblue" points="257.88,-142.98 247.29,-142.52 255.28,-149.48 257.88,-142.98"/>
</g>
<!-- Node12&#45;&gt;Node10 -->
<g id="edge14" class="edge">
<title>Node12&#45;&gt;Node10</title>
<path fill="none" stroke="midnightblue" d="M354.05,-179.46C331.59,-151.85 260.59,-64.58 230.59,-27.71"/>
<polygon fill="midnightblue" stroke="midnightblue" points="233.24,-25.42 224.21,-19.87 227.81,-29.83 233.24,-25.42"/>
</g>
<!-- Node13 -->
<g id="node13" class="node">
<title>Node13</title>
<g id="a_node13"><a xlink:title=" ">
<polygon fill="white" stroke="#bfbfbf" points="343.5,-123.5 343.5,-142.5 378.5,-142.5 378.5,-123.5 343.5,-123.5"/>
<text text-anchor="middle" x="361" y="-130.5" font-family="Helvetica,sans-Serif" font-size="10.00">map</text>
</a>
</g>
</g>
<!-- Node12&#45;&gt;Node13 -->
<g id="edge13" class="edge">
<title>Node12&#45;&gt;Node13</title>
<path fill="none" stroke="midnightblue" d="M361,-179.08C361,-172.01 361,-161.86 361,-152.99"/>
<polygon fill="midnightblue" stroke="midnightblue" points="364.5,-152.75 361,-142.75 357.5,-152.75 364.5,-152.75"/>
</g>
<!-- Node14&#45;&gt;Node2 -->
<g id="edge17" class="edge">
<title>Node14&#45;&gt;Node2</title>
<path fill="none" stroke="midnightblue" d="M551.02,-179.44C574.1,-170.48 610.56,-156.31 636.64,-146.18"/>
<polygon fill="midnightblue" stroke="midnightblue" points="638.02,-149.4 646.08,-142.52 635.49,-142.88 638.02,-149.4"/>
</g>
<!-- Node15 -->
<g id="node15" class="node">
<title>Node15</title>
<g id="a_node15"><a xlink:title=" ">
<polygon fill="white" stroke="#bfbfbf" points="444.5,-123.5 444.5,-142.5 511.5,-142.5 511.5,-123.5 444.5,-123.5"/>
<text text-anchor="middle" x="478" y="-130.5" font-family="Helvetica,sans-Serif" font-size="10.00">forward_list</text>
</a>
</g>
</g>
<!-- Node14&#45;&gt;Node15 -->
<g id="edge16" class="edge">
<title>Node14&#45;&gt;Node15</title>
<path fill="none" stroke="midnightblue" d="M520.58,-179.08C513.15,-171.22 502.15,-159.57 493.19,-150.08"/>
<polygon fill="midnightblue" stroke="midnightblue" points="495.68,-147.62 486.26,-142.75 490.59,-152.42 495.68,-147.62"/>
</g>
<!-- Node16 -->
<g id="node16" class="node">
<title>Node16</title>
<g id="a_node16"><a xlink:title=" ">
<polygon fill="white" stroke="#bfbfbf" points="530,-123.5 530,-142.5 574,-142.5 574,-123.5 530,-123.5"/>
<text text-anchor="middle" x="552" y="-130.5" font-family="Helvetica,sans-Serif" font-size="10.00">vector</text>
</a>
</g>
</g>
<!-- Node14&#45;&gt;Node16 -->
<g id="edge18" class="edge">
<title>Node14&#45;&gt;Node16</title>
<path fill="none" stroke="midnightblue" d="M532.8,-179.08C535.91,-171.77 540.42,-161.18 544.29,-152.1"/>
<polygon fill="midnightblue" stroke="midnightblue" points="547.57,-153.32 548.27,-142.75 541.13,-150.58 547.57,-153.32"/>
</g>
<!-- Node18 -->
<g id="node18" class="node">
<title>Node18</title>
<g id="a_node18"><a xlink:title=" ">
<polygon fill="white" stroke="#bfbfbf" points="620.5,-179.5 620.5,-198.5 663.5,-198.5 663.5,-179.5 620.5,-179.5"/>
<text text-anchor="middle" x="642" y="-186.5" font-family="Helvetica,sans-Serif" font-size="10.00">queue</text>
</a>
</g>
</g>
<!-- Node17&#45;&gt;Node18 -->
<g id="edge20" class="edge">
<title>Node17&#45;&gt;Node18</title>
<path fill="none" stroke="midnightblue" d="M581.57,-235.32C592.42,-227.18 608.88,-214.84 621.88,-205.09"/>
<polygon fill="midnightblue" stroke="midnightblue" points="624.32,-207.63 630.22,-198.83 620.12,-202.03 624.32,-207.63"/>
</g>
<!-- Node19&#45;&gt;Node5 -->
<g id="edge22" class="edge">
<title>Node19&#45;&gt;Node5</title>
<path fill="none" stroke="midnightblue" d="M126.7,-179.44C145.94,-170.64 176.15,-156.81 198.2,-146.72"/>
<polygon fill="midnightblue" stroke="midnightblue" points="199.75,-149.86 207.39,-142.52 196.84,-143.5 199.75,-149.86"/>
</g>
<!-- Node19&#45;&gt;Node7 -->
<g id="edge24" class="edge">
<title>Node19&#45;&gt;Node7</title>
<path fill="none" stroke="midnightblue" d="M99.41,-179.08C91.84,-171.22 80.62,-159.57 71.49,-150.08"/>
<polygon fill="midnightblue" stroke="midnightblue" points="73.88,-147.53 64.43,-142.75 68.84,-152.38 73.88,-147.53"/>
</g>
<!-- Node20 -->
<g id="node20" class="node">
<title>Node20</title>
<g id="a_node20"><a xlink:title=" ">
<polygon fill="white" stroke="#bfbfbf" points="105.5,-123.5 105.5,-142.5 154.5,-142.5 154.5,-123.5 105.5,-123.5"/>
<text text-anchor="middle" x="130" y="-130.5" font-family="Helvetica,sans-Serif" font-size="10.00">stdint.h</text>
</a>
</g>
</g>
<!-- Node19&#45;&gt;Node20 -->
<g id="edge23" class="edge">
<title>Node19&#45;&gt;Node20</title>
<path fill="none" stroke="midnightblue" d="M111.63,-179.08C114.61,-171.77 118.93,-161.18 122.62,-152.1"/>
<polygon fill="midnightblue" stroke="midnightblue" points="125.9,-153.33 126.43,-142.75 119.42,-150.69 125.9,-153.33"/>
</g>
<!-- Node21&#45;&gt;Node5 -->
<g id="edge26" class="edge">
<title>Node21&#45;&gt;Node5</title>
<path fill="none" stroke="midnightblue" d="M173.99,-235.42C180.93,-226.64 191.57,-212.42 199,-199 207.41,-183.82 214.8,-165.47 219.71,-152.15"/>
<polygon fill="midnightblue" stroke="midnightblue" points="223.02,-153.29 223.09,-142.7 216.43,-150.94 223.02,-153.29"/>
</g>
<!-- Node21&#45;&gt;Node14 -->
<g id="edge27" class="edge">
<title>Node21&#45;&gt;Node14</title>
<path fill="none" stroke="midnightblue" d="M224.36,-235.44C288.83,-225.83 393.4,-210.23 461.69,-200.04"/>
<polygon fill="midnightblue" stroke="midnightblue" points="462.53,-203.45 471.91,-198.52 461.5,-196.53 462.53,-203.45"/>
</g>
<!-- Node21&#45;&gt;Node19 -->
<g id="edge28" class="edge">
<title>Node21&#45;&gt;Node19</title>
<path fill="none" stroke="midnightblue" d="M157.52,-235.32C148.8,-227.34 135.66,-215.31 125.1,-205.65"/>
<polygon fill="midnightblue" stroke="midnightblue" points="127.39,-203 117.65,-198.83 122.67,-208.17 127.39,-203"/>
</g>
</g>
</svg>
