<?xml version="1.0" encoding="UTF-8" standalone="no"?>
<!DOCTYPE svg PUBLIC "-//W3C//DTD SVG 1.1//EN"
 "http://www.w3.org/Graphics/SVG/1.1/DTD/svg11.dtd">
<!-- Generated by graphviz version 3.0.0 (20220226.1711)
 -->
<!-- Title: src/sensesp/ui/ui_button.h Pages: 1 -->
<!--zoomable 285 -->
<svg id="main" version="1.1" xmlns="http://www.w3.org/2000/svg" xmlns:xlink="http://www.w3.org/1999/xlink" xml:space="preserve" onload="init(evt)">
<style type="text/css"><![CDATA[
.edge:hover path { stroke: red; }
.edge:hover polygon { stroke: red; fill: red; }
]]></style>
<script type="text/javascript"><![CDATA[
var edges = document.getElementsByTagName('g');
if (edges && edges.length) {
  for (var i=0;i<edges.length;i++) {
    if (edges[i].id.substr(0,4)=='edge') {
      edges[i].setAttribute('class','edge');
    }
  }
}
]]></script>
        <defs>
                <circle id="rim" cx="0" cy="0" r="7"/>
                <circle id="rim2" cx="0" cy="0" r="3.5"/>
                <g id="zoomPlus">
                        <use xlink:href="#rim" fill="#404040">
                                <set attributeName="fill" to="#808080" begin="zoomplus.mouseover" end="zoomplus.mouseout"/>
                        </use>
                        <path d="M-4,0h8M0,-4v8" fill="none" stroke="white" stroke-width="1.5" pointer-events="none"/>
                </g>
                <g id="zoomMin">
                        <use xlink:href="#rim" fill="#404040">
                                <set attributeName="fill" to="#808080" begin="zoomminus.mouseover" end="zoomminus.mouseout"/>
                        </use>
                        <path d="M-4,0h8" fill="none" stroke="white" stroke-width="1.5" pointer-events="none"/>
                </g>
                <g id="dirArrow">
                        <path fill="none" stroke="white" stroke-width="1.5" d="M0,-3.0v7 M-2.5,-0.5L0,-3.0L2.5,-0.5"/>
                </g>
               <g id="resetDef">
                       <use xlink:href="#rim2" fill="#404040">
                               <set attributeName="fill" to="#808080" begin="reset.mouseover" end="reset.mouseout"/>
                       </use>
               </g>
        </defs>

<script type="text/javascript">
var viewWidth = 1437;
var viewHeight = 285;
var sectionId = 'dynsection-1';
</script>
<script xlink:href="svgpan.js"/>
<svg id="graph" class="graph">
<g id="viewport">
<title>src/sensesp/ui/ui_button.h</title>
<polygon fill="white" stroke="transparent" points="-4,4 -4,-281 1433,-281 1433,4 -4,4"/>
<!-- Node1 -->
<g id="node1" class="node">
<title>Node1</title>
<g id="a_node1"><a xlink:title=" ">
<polygon fill="#bfbfbf" stroke="black" points="68.5,-257.5 68.5,-276.5 199.5,-276.5 199.5,-257.5 68.5,-257.5"/>
<text text-anchor="middle" x="134" y="-264.5" font-family="Helvetica,sans-Serif" font-size="10.00">src/sensesp/ui/ui_button.h</text>
</a>
</g>
</g>
<!-- Node2 -->
<g id="node2" class="node">
<title>Node2</title>
<g id="a_node2"><a xlink:href="http__server_8cpp.html" target="_top" xlink:title=" ">
<polygon fill="white" stroke="black" points="0,-123.5 0,-153.5 106,-153.5 106,-123.5 0,-123.5"/>
<text text-anchor="start" x="8" y="-141.5" font-family="Helvetica,sans-Serif" font-size="10.00">src/sensesp/net/http</text>
<text text-anchor="middle" x="53" y="-130.5" font-family="Helvetica,sans-Serif" font-size="10.00">_server.cpp</text>
</a>
</g>
</g>
<!-- Node1&#45;&gt;Node2 -->
<g id="edge1" class="edge">
<title>Node1&#45;&gt;Node2</title>
<path fill="none" stroke="midnightblue" d="M107.29,-252.48C94.79,-244.85 80.76,-234.2 72,-221 58.26,-200.3 54.4,-170.89 53.35,-153.64"/>
<polygon fill="midnightblue" stroke="midnightblue" points="105.6,-255.55 116.02,-257.49 109.09,-249.48 105.6,-255.55"/>
</g>
<!-- Node3 -->
<g id="node3" class="node">
<title>Node3</title>
<g id="a_node3"><a xlink:href="http__server_8h.html" target="_top" xlink:title=" ">
<polygon fill="white" stroke="black" points="81,-190.5 81,-220.5 187,-220.5 187,-190.5 81,-190.5"/>
<text text-anchor="start" x="89" y="-208.5" font-family="Helvetica,sans-Serif" font-size="10.00">src/sensesp/net/http</text>
<text text-anchor="middle" x="134" y="-197.5" font-family="Helvetica,sans-Serif" font-size="10.00">_server.h</text>
</a>
</g>
</g>
<!-- Node1&#45;&gt;Node3 -->
<g id="edge2" class="edge">
<title>Node1&#45;&gt;Node3</title>
<path fill="none" stroke="midnightblue" d="M134,-247.23C134,-238.59 134,-228.5 134,-220.52"/>
<polygon fill="midnightblue" stroke="midnightblue" points="130.5,-247.48 134,-257.48 137.5,-247.48 130.5,-247.48"/>
</g>
<!-- Node15 -->
<g id="node15" class="node">
<title>Node15</title>
<g id="a_node15"><a xlink:href="ui__button_8cpp.html" target="_top" xlink:title=" ">
<polygon fill="white" stroke="black" points="205,-196 205,-215 347,-215 347,-196 205,-196"/>
<text text-anchor="middle" x="276" y="-203" font-family="Helvetica,sans-Serif" font-size="10.00">src/sensesp/ui/ui_button.cpp</text>
</a>
</g>
</g>
<!-- Node1&#45;&gt;Node15 -->
<g id="edge16" class="edge">
<title>Node1&#45;&gt;Node15</title>
<path fill="none" stroke="midnightblue" d="M163.88,-253.48C191.46,-241.92 231.67,-225.08 255.69,-215.01"/>
<polygon fill="midnightblue" stroke="midnightblue" points="162.22,-250.38 154.35,-257.48 164.92,-256.84 162.22,-250.38"/>
</g>
<!-- Node3&#45;&gt;Node2 -->
<g id="edge4" class="edge">
<title>Node3&#45;&gt;Node2</title>
<path fill="none" stroke="midnightblue" d="M108.31,-183.88C96,-174.01 81.57,-162.43 70.54,-153.58"/>
<polygon fill="midnightblue" stroke="midnightblue" points="106.43,-186.87 116.42,-190.4 110.82,-181.41 106.43,-186.87"/>
</g>
<!-- Node4 -->
<g id="node4" class="node">
<title>Node4</title>
<g id="a_node4"><a xlink:href="main_8cpp.html" target="_top" xlink:title=" ">
<polygon fill="white" stroke="black" points="711.5,-0.5 711.5,-19.5 784.5,-19.5 784.5,-0.5 711.5,-0.5"/>
<text text-anchor="middle" x="748" y="-7.5" font-family="Helvetica,sans-Serif" font-size="10.00">src/main.cpp</text>
</a>
</g>
</g>
<!-- Node3&#45;&gt;Node4 -->
<g id="edge3" class="edge">
<title>Node3&#45;&gt;Node4</title>
<path fill="none" stroke="midnightblue" d="M128.78,-179.85C123.33,-146.54 119.64,-87.68 153,-56 193.47,-17.57 587.44,-11.95 711.08,-11.14"/>
<polygon fill="midnightblue" stroke="midnightblue" points="125.41,-180.88 130.65,-190.09 132.3,-179.63 125.41,-180.88"/>
</g>
<!-- Node5 -->
<g id="node5" class="node">
<title>Node5</title>
<g id="a_node5"><a xlink:href="sensesp__app_8h.html" target="_top" xlink:title=" ">
<polygon fill="white" stroke="black" points="704.5,-129 704.5,-148 803.5,-148 803.5,-129 704.5,-129"/>
<text text-anchor="middle" x="754" y="-136" font-family="Helvetica,sans-Serif" font-size="10.00">src/sensesp_app.h</text>
</a>
</g>
</g>
<!-- Node3&#45;&gt;Node5 -->
<g id="edge5" class="edge">
<title>Node3&#45;&gt;Node5</title>
<path fill="none" stroke="midnightblue" d="M197.04,-189.98C389.93,-159.48 608.36,-146.36 704.45,-141.66"/>
<polygon fill="midnightblue" stroke="midnightblue" points="196.32,-186.55 187,-191.59 197.43,-193.47 196.32,-186.55"/>
</g>
<!-- Node6 -->
<g id="node6" class="node">
<title>Node6</title>
<g id="a_node6"><a xlink:href="debug__output_8cpp.html" target="_top" xlink:title=" ">
<polygon fill="white" stroke="black" points="162,-56.5 162,-86.5 278,-86.5 278,-56.5 162,-56.5"/>
<text text-anchor="start" x="170" y="-74.5" font-family="Helvetica,sans-Serif" font-size="10.00">src/sensesp/net/debug</text>
<text text-anchor="middle" x="220" y="-63.5" font-family="Helvetica,sans-Serif" font-size="10.00">_output.cpp</text>
</a>
</g>
</g>
<!-- Node5&#45;&gt;Node6 -->
<g id="edge6" class="edge">
<title>Node5&#45;&gt;Node6</title>
<path fill="none" stroke="midnightblue" d="M694.16,-133.06C605.06,-125.99 432.39,-110.53 287,-87 284.06,-86.52 281.06,-86 278.03,-85.45"/>
<polygon fill="midnightblue" stroke="midnightblue" points="694.1,-136.57 704.35,-133.86 694.65,-129.59 694.1,-136.57"/>
</g>
<!-- Node7 -->
<g id="node7" class="node">
<title>Node7</title>
<g id="a_node7"><a xlink:href="discovery_8cpp.html" target="_top" xlink:title=" ">
<polygon fill="white" stroke="black" points="296.5,-62 296.5,-81 445.5,-81 445.5,-62 296.5,-62"/>
<text text-anchor="middle" x="371" y="-69" font-family="Helvetica,sans-Serif" font-size="10.00">src/sensesp/net/discovery.cpp</text>
</a>
</g>
</g>
<!-- Node5&#45;&gt;Node7 -->
<g id="edge7" class="edge">
<title>Node5&#45;&gt;Node7</title>
<path fill="none" stroke="midnightblue" d="M694.21,-127.55C633.65,-117.44 537.29,-101.28 454,-87 442.9,-85.1 430.97,-83.03 419.71,-81.06"/>
<polygon fill="midnightblue" stroke="midnightblue" points="693.91,-131.05 704.35,-129.24 695.06,-124.14 693.91,-131.05"/>
</g>
<!-- Node8 -->
<g id="node8" class="node">
<title>Node8</title>
<g id="a_node8"><a xlink:href="networking_8cpp.html" target="_top" xlink:title=" ">
<polygon fill="white" stroke="black" points="463.5,-62 463.5,-81 618.5,-81 618.5,-62 463.5,-62"/>
<text text-anchor="middle" x="541" y="-69" font-family="Helvetica,sans-Serif" font-size="10.00">src/sensesp/net/networking.cpp</text>
</a>
</g>
</g>
<!-- Node5&#45;&gt;Node8 -->
<g id="edge8" class="edge">
<title>Node5&#45;&gt;Node8</title>
<path fill="none" stroke="midnightblue" d="M716.08,-125.93C673.91,-113.06 606.77,-92.57 569.06,-81.06"/>
<polygon fill="midnightblue" stroke="midnightblue" points="715.13,-129.3 725.72,-128.87 717.17,-122.6 715.13,-129.3"/>
</g>
<!-- Node9 -->
<g id="node9" class="node">
<title>Node9</title>
<g id="a_node9"><a xlink:href="ws__client_8cpp.html" target="_top" xlink:title=" ">
<polygon fill="white" stroke="black" points="637,-56.5 637,-86.5 739,-86.5 739,-56.5 637,-56.5"/>
<text text-anchor="start" x="645" y="-74.5" font-family="Helvetica,sans-Serif" font-size="10.00">src/sensesp/net/ws</text>
<text text-anchor="middle" x="688" y="-63.5" font-family="Helvetica,sans-Serif" font-size="10.00">_client.cpp</text>
</a>
</g>
</g>
<!-- Node5&#45;&gt;Node9 -->
<g id="edge9" class="edge">
<title>Node5&#45;&gt;Node9</title>
<path fill="none" stroke="midnightblue" d="M737.87,-121.62C727,-110.91 712.78,-96.9 702.31,-86.59"/>
<polygon fill="midnightblue" stroke="midnightblue" points="735.52,-124.21 745.1,-128.73 740.43,-119.22 735.52,-124.21"/>
</g>
<!-- Node10 -->
<g id="node10" class="node">
<title>Node10</title>
<g id="a_node10"><a xlink:href="signalk__delta__queue_8cpp.html" target="_top" xlink:title=" ">
<polygon fill="white" stroke="black" points="757.5,-56.5 757.5,-86.5 884.5,-86.5 884.5,-56.5 757.5,-56.5"/>
<text text-anchor="start" x="765.5" y="-74.5" font-family="Helvetica,sans-Serif" font-size="10.00">src/sensesp/signalk</text>
<text text-anchor="middle" x="821" y="-63.5" font-family="Helvetica,sans-Serif" font-size="10.00">/signalk_delta_queue.cpp</text>
</a>
</g>
</g>
<!-- Node5&#45;&gt;Node10 -->
<g id="edge10" class="edge">
<title>Node5&#45;&gt;Node10</title>
<path fill="none" stroke="midnightblue" d="M770.37,-121.62C781.41,-110.91 795.85,-96.9 806.48,-86.59"/>
<polygon fill="midnightblue" stroke="midnightblue" points="767.78,-119.26 763.04,-128.73 772.65,-124.28 767.78,-119.26"/>
</g>
<!-- Node11 -->
<g id="node11" class="node">
<title>Node11</title>
<g id="a_node11"><a xlink:href="signalk__put__request_8cpp.html" target="_top" xlink:title=" ">
<polygon fill="white" stroke="black" points="902.5,-56.5 902.5,-86.5 1027.5,-86.5 1027.5,-56.5 902.5,-56.5"/>
<text text-anchor="start" x="910.5" y="-74.5" font-family="Helvetica,sans-Serif" font-size="10.00">src/sensesp/signalk</text>
<text text-anchor="middle" x="965" y="-63.5" font-family="Helvetica,sans-Serif" font-size="10.00">/signalk_put_request.cpp</text>
</a>
</g>
</g>
<!-- Node5&#45;&gt;Node11 -->
<g id="edge11" class="edge">
<title>Node5&#45;&gt;Node11</title>
<path fill="none" stroke="midnightblue" d="M791.6,-125.92C827.38,-114.9 881.27,-98.29 919.46,-86.53"/>
<polygon fill="midnightblue" stroke="midnightblue" points="790.55,-122.58 782.02,-128.87 792.61,-129.27 790.55,-122.58"/>
</g>
<!-- Node12 -->
<g id="node12" class="node">
<title>Node12</title>
<g id="a_node12"><a xlink:href="led__blinker_8cpp.html" target="_top" xlink:title=" ">
<polygon fill="white" stroke="black" points="1045.5,-56.5 1045.5,-86.5 1150.5,-86.5 1150.5,-56.5 1045.5,-56.5"/>
<text text-anchor="start" x="1053.5" y="-74.5" font-family="Helvetica,sans-Serif" font-size="10.00">src/sensesp/system</text>
<text text-anchor="middle" x="1098" y="-63.5" font-family="Helvetica,sans-Serif" font-size="10.00">/led_blinker.cpp</text>
</a>
</g>
</g>
<!-- Node5&#45;&gt;Node12 -->
<g id="edge12" class="edge">
<title>Node5&#45;&gt;Node12</title>
<path fill="none" stroke="midnightblue" d="M813.74,-127.85C871.15,-118.34 960.25,-102.96 1037,-87 1039.77,-86.42 1042.61,-85.82 1045.47,-85.19"/>
<polygon fill="midnightblue" stroke="midnightblue" points="813.05,-124.42 803.75,-129.5 814.19,-131.33 813.05,-124.42"/>
</g>
<!-- Node13 -->
<g id="node13" class="node">
<title>Node13</title>
<g id="a_node13"><a xlink:href="sensesp__app_8cpp.html" target="_top" xlink:title=" ">
<polygon fill="white" stroke="black" points="1169,-62 1169,-81 1279,-81 1279,-62 1169,-62"/>
<text text-anchor="middle" x="1224" y="-69" font-family="Helvetica,sans-Serif" font-size="10.00">src/sensesp_app.cpp</text>
</a>
</g>
</g>
<!-- Node5&#45;&gt;Node13 -->
<g id="edge13" class="edge">
<title>Node5&#45;&gt;Node13</title>
<path fill="none" stroke="midnightblue" d="M813.91,-131.92C893.36,-124.1 1037.8,-108.39 1160,-87 1169.54,-85.33 1179.8,-83.17 1189.25,-81.03"/>
<polygon fill="midnightblue" stroke="midnightblue" points="813.22,-128.47 803.61,-132.93 813.9,-135.44 813.22,-128.47"/>
</g>
<!-- Node14 -->
<g id="node14" class="node">
<title>Node14</title>
<g id="a_node14"><a xlink:href="sensesp__app__builder_8h.html" target="_top" xlink:title=" ">
<polygon fill="white" stroke="black" points="1297,-62 1297,-81 1429,-81 1429,-62 1297,-62"/>
<text text-anchor="middle" x="1363" y="-69" font-family="Helvetica,sans-Serif" font-size="10.00">src/sensesp_app_builder.h</text>
</a>
</g>
</g>
<!-- Node5&#45;&gt;Node14 -->
<g id="edge14" class="edge">
<title>Node5&#45;&gt;Node14</title>
<path fill="none" stroke="midnightblue" d="M813.61,-133.75C912.52,-127.11 1116.63,-111.61 1288,-87 1299.29,-85.38 1311.46,-83.21 1322.64,-81.05"/>
<polygon fill="midnightblue" stroke="midnightblue" points="813.26,-130.27 803.52,-134.42 813.73,-137.25 813.26,-130.27"/>
</g>
<!-- Node14&#45;&gt;Node4 -->
<g id="edge15" class="edge">
<title>Node14&#45;&gt;Node4</title>
<path fill="none" stroke="midnightblue" d="M1313.04,-60.06C1304.7,-58.55 1296.13,-57.12 1288,-56 1099.75,-30.04 872.37,-17.03 784.82,-12.7"/>
<polygon fill="midnightblue" stroke="midnightblue" points="1312.57,-63.54 1323.04,-61.95 1313.86,-56.66 1312.57,-63.54"/>
</g>
</g>
</svg>
        <g id="navigator" transform="translate(0 0)" fill="#404254">
                <rect fill="#f2f5e9" fill-opacity="0.5" stroke="#606060" stroke-width=".5" x="0" y="0" width="60" height="60"/>
                <use id="zoomplus" xlink:href="#zoomPlus" x="17" y="9" onmousedown="handleZoom(evt,'in')"/>
                <use id="zoomminus" xlink:href="#zoomMin" x="42" y="9" onmousedown="handleZoom(evt,'out')"/>
                <use id="reset" xlink:href="#resetDef" x="30" y="36" onmousedown="handleReset()"/>
                <g id="arrowUp" xlink:href="#dirArrow" transform="translate(30 24)" onmousedown="handlePan(0,-1)">
                  <use xlink:href="#rim" fill="#404040">
                        <set attributeName="fill" to="#808080" begin="arrowUp.mouseover" end="arrowUp.mouseout"/>
                  </use>
                  <path fill="none" stroke="white" stroke-width="1.5" d="M0,-3.0v7 M-2.5,-0.5L0,-3.0L2.5,-0.5"/>
                </g>
                <g id="arrowRight" xlink:href="#dirArrow" transform="rotate(90) translate(36 -43)" onmousedown="handlePan(1,0)">
                  <use xlink:href="#rim" fill="#404040">
                        <set attributeName="fill" to="#808080" begin="arrowRight.mouseover" end="arrowRight.mouseout"/>
                  </use>
                  <path fill="none" stroke="white" stroke-width="1.5" d="M0,-3.0v7 M-2.5,-0.5L0,-3.0L2.5,-0.5"/>
                </g>
                <g id="arrowDown" xlink:href="#dirArrow" transform="rotate(180) translate(-30 -48)" onmousedown="handlePan(0,1)">
                  <use xlink:href="#rim" fill="#404040">
                        <set attributeName="fill" to="#808080" begin="arrowDown.mouseover" end="arrowDown.mouseout"/>
                  </use>
                  <path fill="none" stroke="white" stroke-width="1.5" d="M0,-3.0v7 M-2.5,-0.5L0,-3.0L2.5,-0.5"/>
                </g>
                <g id="arrowLeft" xlink:href="#dirArrow" transform="rotate(270) translate(-36 17)" onmousedown="handlePan(-1,0)">
                  <use xlink:href="#rim" fill="#404040">
                        <set attributeName="fill" to="#808080" begin="arrowLeft.mouseover" end="arrowLeft.mouseout"/>
                  </use>
                  <path fill="none" stroke="white" stroke-width="1.5" d="M0,-3.0v7 M-2.5,-0.5L0,-3.0L2.5,-0.5"/>
                </g>
        </g>
        <svg viewBox="0 0 15 15" width="100%" height="30px" preserveAspectRatio="xMaxYMin meet">
         <g id="arrow_out" transform="scale(0.3 0.3)">
          <a xlink:href="ui__button_8h__dep__incl_org.svg" target="_base">
           <rect id="button" ry="5" rx="5" y="6" x="6" height="38" width="38"
                fill="#f2f5e9" fill-opacity="0.5" stroke="#606060" stroke-width="1.0"/>
           <path id="arrow"
             d="M 11.500037,31.436501 C 11.940474,20.09759 22.043105,11.32322 32.158766,21.979434 L 37.068811,17.246167 C 37.068811,17.246167 37.088388,32 37.088388,32 L 22.160133,31.978069 C 22.160133,31.978069 26.997745,27.140456 26.997745,27.140456 C 18.528582,18.264221 13.291696,25.230495 11.500037,31.436501 z"
             style="fill:#404040;"/>
          </a>
         </g>
        </svg>
</svg>
