<?xml version="1.0" encoding="UTF-8" standalone="no"?>
<!DOCTYPE svg PUBLIC "-//W3C//DTD SVG 1.1//EN"
 "http://www.w3.org/Graphics/SVG/1.1/DTD/svg11.dtd">
<!-- Generated by graphviz version 2.49.3 (20211023.0002)
 -->
<!-- Title: src/sensesp/system/ui_output.h Pages: 1 -->
<!--zoomable 374 -->
<svg id="main" version="1.1" xmlns="http://www.w3.org/2000/svg" xmlns:xlink="http://www.w3.org/1999/xlink" xml:space="preserve" onload="init(evt)">
<style type="text/css"><![CDATA[
.edge:hover path { stroke: red; }
.edge:hover polygon { stroke: red; fill: red; }
]]></style>
<script type="text/javascript"><![CDATA[
var edges = document.getElementsByTagName('g');
if (edges && edges.length) {
  for (var i=0;i<edges.length;i++) {
    if (edges[i].id.substr(0,4)=='edge') {
      edges[i].setAttribute('class','edge');
    }
  }
}
]]></script>
        <defs>
                <circle id="rim" cx="0" cy="0" r="7"/>
                <circle id="rim2" cx="0" cy="0" r="3.5"/>
                <g id="zoomPlus">
                        <use xlink:href="#rim" fill="#404040">
                                <set attributeName="fill" to="#808080" begin="zoomplus.mouseover" end="zoomplus.mouseout"/>
                        </use>
                        <path d="M-4,0h8M0,-4v8" fill="none" stroke="white" stroke-width="1.5" pointer-events="none"/>
                </g>
                <g id="zoomMin">
                        <use xlink:href="#rim" fill="#404040">
                                <set attributeName="fill" to="#808080" begin="zoomminus.mouseover" end="zoomminus.mouseout"/>
                        </use>
                        <path d="M-4,0h8" fill="none" stroke="white" stroke-width="1.5" pointer-events="none"/>
                </g>
                <g id="dirArrow">
                        <path fill="none" stroke="white" stroke-width="1.5" d="M0,-3.0v7 M-2.5,-0.5L0,-3.0L2.5,-0.5"/>
                </g>
               <g id="resetDef">
                       <use xlink:href="#rim2" fill="#404040">
                               <set attributeName="fill" to="#808080" begin="reset.mouseover" end="reset.mouseout"/>
                       </use>
               </g>
        </defs>

<script type="text/javascript">
var viewWidth = 1288;
var viewHeight = 374;
var sectionId = 'dynsection-1';
</script>
<script xlink:href="svgpan.js"/>
<svg id="graph" class="graph">
<g id="viewport">
<title>src/sensesp/system/ui_output.h</title>
<polygon fill="white" stroke="transparent" points="-4,4 -4,-370 1284,-370 1284,4 -4,4"/>
<!-- Node1 -->
<g id="node1" class="node">
<title>Node1</title>
<g id="a_node1"><a xlink:title=" ">
<polygon fill="#bfbfbf" stroke="black" points="519,-335.5 519,-365.5 623,-365.5 623,-335.5 519,-335.5"/>
<text text-anchor="start" x="527" y="-353.5" font-family="Helvetica,sans-Serif" font-size="10.00">src/sensesp/system</text>
<text text-anchor="middle" x="571" y="-342.5" font-family="Helvetica,sans-Serif" font-size="10.00">/ui_output.h</text>
</a>
</g>
</g>
<!-- Node2 -->
<g id="node2" class="node">
<title>Node2</title>
<g id="a_node2"><a xlink:href="http__server_8cpp.html" target="_top" xlink:title=" ">
<polygon fill="white" stroke="black" points="211,-268.5 211,-298.5 317,-298.5 317,-268.5 211,-268.5"/>
<text text-anchor="start" x="219" y="-286.5" font-family="Helvetica,sans-Serif" font-size="10.00">src/sensesp/net/http</text>
<text text-anchor="middle" x="264" y="-275.5" font-family="Helvetica,sans-Serif" font-size="10.00">_server.cpp</text>
</a>
</g>
</g>
<!-- Node1&#45;&gt;Node2 -->
<g id="edge1" class="edge">
<title>Node1&#45;&gt;Node2</title>
<path fill="none" stroke="midnightblue" d="M508.89,-337.17C459.31,-327.21 388.1,-312.66 326,-299 323.09,-298.36 320.1,-297.69 317.08,-297.01"/>
<polygon fill="midnightblue" stroke="midnightblue" points="508.33,-340.63 518.82,-339.16 509.7,-333.76 508.33,-340.63"/>
</g>
<!-- Node3 -->
<g id="node3" class="node">
<title>Node3</title>
<g id="a_node3"><a xlink:href="networking_8h.html" target="_top" xlink:title=" ">
<polygon fill="white" stroke="black" points="335,-274 335,-293 481,-293 481,-274 335,-274"/>
<text text-anchor="middle" x="408" y="-281" font-family="Helvetica,sans-Serif" font-size="10.00">src/sensesp/net/networking.h</text>
</a>
</g>
</g>
<!-- Node1&#45;&gt;Node3 -->
<g id="edge2" class="edge">
<title>Node1&#45;&gt;Node3</title>
<path fill="none" stroke="midnightblue" d="M526.17,-331.62C494.62,-319.04 453.81,-302.77 429.33,-293.01"/>
<polygon fill="midnightblue" stroke="midnightblue" points="525.05,-334.94 535.63,-335.4 527.64,-328.44 525.05,-334.94"/>
</g>
<!-- Node9 -->
<g id="node9" class="node">
<title>Node9</title>
<g id="a_node9"><a xlink:href="sensesp__app_8h.html" target="_top" xlink:title=" ">
<polygon fill="white" stroke="black" points="591,-73 591,-92 691,-92 691,-73 591,-73"/>
<text text-anchor="middle" x="641" y="-80" font-family="Helvetica,sans-Serif" font-size="10.00">src/sensesp_app.h</text>
</a>
</g>
</g>
<!-- Node1&#45;&gt;Node9 -->
<g id="edge33" class="edge">
<title>Node1&#45;&gt;Node9</title>
<path fill="none" stroke="midnightblue" d="M602.59,-329.36C613.12,-321.16 623.95,-310.8 631,-299 669.15,-235.15 671.67,-207.29 659,-134 656.37,-118.78 649.58,-102.06 645.13,-92.19"/>
<polygon fill="midnightblue" stroke="midnightblue" points="600.27,-326.72 594.3,-335.47 604.42,-332.36 600.27,-326.72"/>
</g>
<!-- Node19 -->
<g id="node19" class="node">
<title>Node19</title>
<g id="a_node19"><a xlink:href="ws__client_8h.html" target="_top" xlink:title=" ">
<polygon fill="white" stroke="black" points="520,-268.5 520,-298.5 622,-298.5 622,-268.5 520,-268.5"/>
<text text-anchor="start" x="528" y="-286.5" font-family="Helvetica,sans-Serif" font-size="10.00">src/sensesp/net/ws</text>
<text text-anchor="middle" x="571" y="-275.5" font-family="Helvetica,sans-Serif" font-size="10.00">_client.h</text>
</a>
</g>
</g>
<!-- Node1&#45;&gt;Node19 -->
<g id="edge27" class="edge">
<title>Node1&#45;&gt;Node19</title>
<path fill="none" stroke="midnightblue" d="M571,-325.11C571,-316.15 571,-306.32 571,-298.58"/>
<polygon fill="midnightblue" stroke="midnightblue" points="567.5,-325.4 571,-335.4 574.5,-325.4 567.5,-325.4"/>
</g>
<!-- Node20 -->
<g id="node20" class="node">
<title>Node20</title>
<g id="a_node20"><a xlink:href="ui__output_8cpp.html" target="_top" xlink:title=" ">
<polygon fill="white" stroke="black" points="785,-268.5 785,-298.5 889,-298.5 889,-268.5 785,-268.5"/>
<text text-anchor="start" x="793" y="-286.5" font-family="Helvetica,sans-Serif" font-size="10.00">src/sensesp/system</text>
<text text-anchor="middle" x="837" y="-275.5" font-family="Helvetica,sans-Serif" font-size="10.00">/ui_output.cpp</text>
</a>
</g>
</g>
<!-- Node1&#45;&gt;Node20 -->
<g id="edge32" class="edge">
<title>Node1&#45;&gt;Node20</title>
<path fill="none" stroke="midnightblue" d="M633.11,-334.32C679.21,-323.06 741.36,-307.87 784.88,-297.24"/>
<polygon fill="midnightblue" stroke="midnightblue" points="632.12,-330.96 623.24,-336.74 633.78,-337.76 632.12,-330.96"/>
</g>
<!-- Node4 -->
<g id="node4" class="node">
<title>Node4</title>
<g id="a_node4"><a xlink:href="system__status__controller_8h.html" target="_top" xlink:title=" ">
<polygon fill="white" stroke="black" points="472,-201.5 472,-231.5 610,-231.5 610,-201.5 472,-201.5"/>
<text text-anchor="start" x="480" y="-219.5" font-family="Helvetica,sans-Serif" font-size="10.00">src/sensesp/controllers</text>
<text text-anchor="middle" x="541" y="-208.5" font-family="Helvetica,sans-Serif" font-size="10.00">/system_status_controller.h</text>
</a>
</g>
</g>
<!-- Node3&#45;&gt;Node4 -->
<g id="edge3" class="edge">
<title>Node3&#45;&gt;Node4</title>
<path fill="none" stroke="midnightblue" d="M434.65,-269.47C457.14,-258.49 489.25,-242.79 512.3,-231.53"/>
<polygon fill="midnightblue" stroke="midnightblue" points="433.11,-266.33 425.66,-273.87 436.18,-272.62 433.11,-266.33"/>
</g>
<!-- Node8 -->
<g id="node8" class="node">
<title>Node8</title>
<g id="a_node8"><a xlink:href="sensesp__app_8cpp.html" target="_top" xlink:title=" ">
<polygon fill="white" stroke="black" points="297.5,-6 297.5,-25 408.5,-25 408.5,-6 297.5,-6"/>
<text text-anchor="middle" x="353" y="-13" font-family="Helvetica,sans-Serif" font-size="10.00">src/sensesp_app.cpp</text>
</a>
</g>
</g>
<!-- Node3&#45;&gt;Node8 -->
<g id="edge25" class="edge">
<title>Node3&#45;&gt;Node8</title>
<path fill="none" stroke="midnightblue" d="M352.21,-270.88C330.73,-263.45 308.21,-251.41 295,-232 247.69,-162.5 322.26,-55.98 346.08,-25.14"/>
<polygon fill="midnightblue" stroke="midnightblue" points="351.37,-274.28 361.96,-273.97 353.49,-267.61 351.37,-274.28"/>
</g>
<!-- Node3&#45;&gt;Node9 -->
<g id="edge26" class="edge">
<title>Node3&#45;&gt;Node9</title>
<path fill="none" stroke="midnightblue" d="M412,-263.78C420,-228.07 438.83,-152.13 458,-134 493.79,-100.14 550.19,-88.6 590.92,-84.87"/>
<polygon fill="midnightblue" stroke="midnightblue" points="408.52,-263.32 409.8,-273.84 415.36,-264.82 408.52,-263.32"/>
</g>
<!-- Node12 -->
<g id="node12" class="node">
<title>Node12</title>
<g id="a_node12"><a xlink:href="networking_8cpp.html" target="_top" xlink:title=" ">
<polygon fill="white" stroke="black" points="122.5,-6 122.5,-25 279.5,-25 279.5,-6 122.5,-6"/>
<text text-anchor="middle" x="201" y="-13" font-family="Helvetica,sans-Serif" font-size="10.00">src/sensesp/net/networking.cpp</text>
</a>
</g>
</g>
<!-- Node3&#45;&gt;Node12 -->
<g id="edge19" class="edge">
<title>Node3&#45;&gt;Node12</title>
<path fill="none" stroke="midnightblue" d="M350.55,-271.23C325.75,-263.77 298.12,-251.62 279,-232 218.46,-169.88 204.47,-57.29 201.64,-25.23"/>
<polygon fill="midnightblue" stroke="midnightblue" points="349.67,-274.61 360.24,-273.95 351.56,-267.88 349.67,-274.61"/>
</g>
<!-- Node16 -->
<g id="node16" class="node">
<title>Node16</title>
<g id="a_node16"><a xlink:href="led__blinker_8cpp.html" target="_top" xlink:title=" ">
<polygon fill="white" stroke="black" points="0,-0.5 0,-30.5 104,-30.5 104,-0.5 0,-0.5"/>
<text text-anchor="start" x="8" y="-18.5" font-family="Helvetica,sans-Serif" font-size="10.00">src/sensesp/system</text>
<text text-anchor="middle" x="52" y="-7.5" font-family="Helvetica,sans-Serif" font-size="10.00">/led_blinker.cpp</text>
</a>
</g>
</g>
<!-- Node3&#45;&gt;Node16 -->
<g id="edge20" class="edge">
<title>Node3&#45;&gt;Node16</title>
<path fill="none" stroke="midnightblue" d="M351.81,-271.64C320.7,-263.89 282.32,-251.34 252,-232 162.71,-175.03 86.77,-68.83 61.2,-30.64"/>
<polygon fill="midnightblue" stroke="midnightblue" points="351.09,-275.07 361.63,-273.99 352.72,-268.26 351.09,-275.07"/>
</g>
<!-- Node18 -->
<g id="node18" class="node">
<title>Node18</title>
<g id="a_node18"><a xlink:href="led__blinker_8h.html" target="_top" xlink:title=" ">
<polygon fill="white" stroke="black" points="304,-201.5 304,-231.5 408,-231.5 408,-201.5 304,-201.5"/>
<text text-anchor="start" x="312" y="-219.5" font-family="Helvetica,sans-Serif" font-size="10.00">src/sensesp/system</text>
<text text-anchor="middle" x="356" y="-208.5" font-family="Helvetica,sans-Serif" font-size="10.00">/led_blinker.h</text>
</a>
</g>
</g>
<!-- Node3&#45;&gt;Node18 -->
<g id="edge21" class="edge">
<title>Node3&#45;&gt;Node18</title>
<path fill="none" stroke="midnightblue" d="M394.54,-265.67C386.08,-255.09 375.28,-241.6 367.27,-231.59"/>
<polygon fill="midnightblue" stroke="midnightblue" points="392.01,-268.11 400.99,-273.73 397.47,-263.74 392.01,-268.11"/>
</g>
<!-- Node5 -->
<g id="node5" class="node">
<title>Node5</title>
<g id="a_node5"><a xlink:href="system__status__controller_8cpp.html" target="_top" xlink:title=" ">
<polygon fill="white" stroke="black" points="467,-134.5 467,-164.5 615,-164.5 615,-134.5 467,-134.5"/>
<text text-anchor="start" x="475" y="-152.5" font-family="Helvetica,sans-Serif" font-size="10.00">src/sensesp/controllers</text>
<text text-anchor="middle" x="541" y="-141.5" font-family="Helvetica,sans-Serif" font-size="10.00">/system_status_controller.cpp</text>
</a>
</g>
</g>
<!-- Node4&#45;&gt;Node5 -->
<g id="edge4" class="edge">
<title>Node4&#45;&gt;Node5</title>
<path fill="none" stroke="midnightblue" d="M541,-191.11C541,-182.15 541,-172.32 541,-164.58"/>
<polygon fill="midnightblue" stroke="midnightblue" points="537.5,-191.4 541,-201.4 544.5,-191.4 537.5,-191.4"/>
</g>
<!-- Node6 -->
<g id="node6" class="node">
<title>Node6</title>
<g id="a_node6"><a xlink:href="system__status__led_8h.html" target="_top" xlink:title=" ">
<polygon fill="white" stroke="black" points="301,-134.5 301,-164.5 411,-164.5 411,-134.5 301,-134.5"/>
<text text-anchor="start" x="309" y="-152.5" font-family="Helvetica,sans-Serif" font-size="10.00">src/sensesp/system</text>
<text text-anchor="middle" x="356" y="-141.5" font-family="Helvetica,sans-Serif" font-size="10.00">/system_status_led.h</text>
</a>
</g>
</g>
<!-- Node4&#45;&gt;Node6 -->
<g id="edge5" class="edge">
<title>Node4&#45;&gt;Node6</title>
<path fill="none" stroke="midnightblue" d="M491.06,-197.96C461.26,-187.48 423.93,-174.37 396.06,-164.58"/>
<polygon fill="midnightblue" stroke="midnightblue" points="490.26,-201.38 500.86,-201.4 492.58,-194.78 490.26,-201.38"/>
</g>
<!-- Node4&#45;&gt;Node9 -->
<g id="edge18" class="edge">
<title>Node4&#45;&gt;Node9</title>
<path fill="none" stroke="midnightblue" d="M586.45,-196.67C600.42,-188.81 614.58,-178.34 624,-165 639.93,-142.45 641.55,-108.18 641.35,-92.23"/>
<polygon fill="midnightblue" stroke="midnightblue" points="584.56,-193.71 577.34,-201.47 587.82,-199.9 584.56,-193.71"/>
</g>
<!-- Node7 -->
<g id="node7" class="node">
<title>Node7</title>
<g id="a_node7"><a xlink:href="system__status__led_8cpp.html" target="_top" xlink:title=" ">
<polygon fill="white" stroke="black" points="381.5,-67.5 381.5,-97.5 502.5,-97.5 502.5,-67.5 381.5,-67.5"/>
<text text-anchor="start" x="389.5" y="-85.5" font-family="Helvetica,sans-Serif" font-size="10.00">src/sensesp/system</text>
<text text-anchor="middle" x="442" y="-74.5" font-family="Helvetica,sans-Serif" font-size="10.00">/system_status_led.cpp</text>
</a>
</g>
</g>
<!-- Node6&#45;&gt;Node7 -->
<g id="edge6" class="edge">
<title>Node6&#45;&gt;Node7</title>
<path fill="none" stroke="midnightblue" d="M382.9,-128.17C396.05,-118.23 411.55,-106.51 423.38,-97.58"/>
<polygon fill="midnightblue" stroke="midnightblue" points="380.53,-125.57 374.66,-134.4 384.75,-131.16 380.53,-125.57"/>
</g>
<!-- Node6&#45;&gt;Node8 -->
<g id="edge7" class="edge">
<title>Node6&#45;&gt;Node8</title>
<path fill="none" stroke="midnightblue" d="M355.45,-124.32C354.77,-94.38 353.65,-44.91 353.2,-25.1"/>
<polygon fill="midnightblue" stroke="midnightblue" points="351.95,-124.46 355.68,-134.37 358.95,-124.3 351.95,-124.46"/>
</g>
<!-- Node6&#45;&gt;Node9 -->
<g id="edge8" class="edge">
<title>Node6&#45;&gt;Node9</title>
<path fill="none" stroke="midnightblue" d="M421.19,-133.63C477.63,-120.76 557.27,-102.6 603.58,-92.03"/>
<polygon fill="midnightblue" stroke="midnightblue" points="420.26,-130.25 411.29,-135.89 421.82,-137.08 420.26,-130.25"/>
</g>
<!-- Node9&#45;&gt;Node8 -->
<g id="edge16" class="edge">
<title>Node9&#45;&gt;Node8</title>
<path fill="none" stroke="midnightblue" d="M593.25,-70.72C536.54,-57.92 443.09,-36.83 391.03,-25.08"/>
<polygon fill="midnightblue" stroke="midnightblue" points="592.53,-74.15 603.05,-72.94 594.07,-67.32 592.53,-74.15"/>
</g>
<!-- Node10 -->
<g id="node10" class="node">
<title>Node10</title>
<g id="a_node10"><a xlink:href="debug__output_8cpp.html" target="_top" xlink:title=" ">
<polygon fill="white" stroke="black" points="726.5,-0.5 726.5,-30.5 843.5,-30.5 843.5,-0.5 726.5,-0.5"/>
<text text-anchor="start" x="734.5" y="-18.5" font-family="Helvetica,sans-Serif" font-size="10.00">src/sensesp/net/debug</text>
<text text-anchor="middle" x="785" y="-7.5" font-family="Helvetica,sans-Serif" font-size="10.00">_output.cpp</text>
</a>
</g>
</g>
<!-- Node9&#45;&gt;Node10 -->
<g id="edge9" class="edge">
<title>Node9&#45;&gt;Node10</title>
<path fill="none" stroke="midnightblue" d="M669.53,-68.62C693.89,-57.63 728.86,-41.84 753.92,-30.53"/>
<polygon fill="midnightblue" stroke="midnightblue" points="667.8,-65.56 660.12,-72.87 670.68,-71.94 667.8,-65.56"/>
</g>
<!-- Node11 -->
<g id="node11" class="node">
<title>Node11</title>
<g id="a_node11"><a xlink:href="discovery_8cpp.html" target="_top" xlink:title=" ">
<polygon fill="white" stroke="black" points="862,-6 862,-25 1012,-25 1012,-6 862,-6"/>
<text text-anchor="middle" x="937" y="-13" font-family="Helvetica,sans-Serif" font-size="10.00">src/sensesp/net/discovery.cpp</text>
</a>
</g>
</g>
<!-- Node9&#45;&gt;Node11 -->
<g id="edge10" class="edge">
<title>Node9&#45;&gt;Node11</title>
<path fill="none" stroke="midnightblue" d="M688.48,-70.7C694.05,-69.44 699.65,-68.19 705,-67 772.4,-52.03 850.92,-35.03 897.16,-25.07"/>
<polygon fill="midnightblue" stroke="midnightblue" points="687.54,-67.32 678.55,-72.94 689.08,-74.15 687.54,-67.32"/>
</g>
<!-- Node9&#45;&gt;Node12 -->
<g id="edge11" class="edge">
<title>Node9&#45;&gt;Node12</title>
<path fill="none" stroke="midnightblue" d="M580.96,-73.34C510.67,-63.69 390.77,-46.91 288,-31 276.05,-29.15 263.18,-27.06 251.11,-25.06"/>
<polygon fill="midnightblue" stroke="midnightblue" points="580.58,-76.82 590.96,-74.71 581.53,-69.89 580.58,-76.82"/>
</g>
<!-- Node13 -->
<g id="node13" class="node">
<title>Node13</title>
<g id="a_node13"><a xlink:href="ws__client_8cpp.html" target="_top" xlink:title=" ">
<polygon fill="white" stroke="black" points="1178,-0.5 1178,-30.5 1280,-30.5 1280,-0.5 1178,-0.5"/>
<text text-anchor="start" x="1186" y="-18.5" font-family="Helvetica,sans-Serif" font-size="10.00">src/sensesp/net/ws</text>
<text text-anchor="middle" x="1229" y="-7.5" font-family="Helvetica,sans-Serif" font-size="10.00">_client.cpp</text>
</a>
</g>
</g>
<!-- Node9&#45;&gt;Node13 -->
<g id="edge12" class="edge">
<title>Node9&#45;&gt;Node13</title>
<path fill="none" stroke="midnightblue" d="M684.29,-70.8C691.18,-69.35 698.26,-68.02 705,-67 909.52,-36.07 964.71,-63.4 1169,-31 1171.86,-30.55 1174.78,-30.03 1177.72,-29.46"/>
<polygon fill="midnightblue" stroke="midnightblue" points="683.39,-67.41 674.37,-72.97 684.89,-74.25 683.39,-67.41"/>
</g>
<!-- Node14 -->
<g id="node14" class="node">
<title>Node14</title>
<g id="a_node14"><a xlink:href="signalk__delta__queue_8cpp.html" target="_top" xlink:title=" ">
<polygon fill="white" stroke="black" points="1030,-0.5 1030,-30.5 1160,-30.5 1160,-0.5 1030,-0.5"/>
<text text-anchor="start" x="1038" y="-18.5" font-family="Helvetica,sans-Serif" font-size="10.00">src/sensesp/signalk</text>
<text text-anchor="middle" x="1095" y="-7.5" font-family="Helvetica,sans-Serif" font-size="10.00">/signalk_delta_queue.cpp</text>
</a>
</g>
</g>
<!-- Node9&#45;&gt;Node14 -->
<g id="edge13" class="edge">
<title>Node9&#45;&gt;Node14</title>
<path fill="none" stroke="midnightblue" d="M685.48,-70.76C692.01,-69.38 698.66,-68.08 705,-67 844.36,-43.35 881.31,-52.61 1021,-31 1023.85,-30.56 1026.75,-30.09 1029.68,-29.59"/>
<polygon fill="midnightblue" stroke="midnightblue" points="684.42,-67.41 675.41,-72.98 685.92,-74.25 684.42,-67.41"/>
</g>
<!-- Node15 -->
<g id="node15" class="node">
<title>Node15</title>
<g id="a_node15"><a xlink:href="signalk__put__request_8cpp.html" target="_top" xlink:title=" ">
<polygon fill="white" stroke="black" points="427,-0.5 427,-30.5 555,-30.5 555,-0.5 427,-0.5"/>
<text text-anchor="start" x="435" y="-18.5" font-family="Helvetica,sans-Serif" font-size="10.00">src/sensesp/signalk</text>
<text text-anchor="middle" x="491" y="-7.5" font-family="Helvetica,sans-Serif" font-size="10.00">/signalk_put_request.cpp</text>
</a>
</g>
</g>
<!-- Node9&#45;&gt;Node15 -->
<g id="edge14" class="edge">
<title>Node9&#45;&gt;Node15</title>
<path fill="none" stroke="midnightblue" d="M611.62,-68.77C586.23,-57.77 549.6,-41.89 523.37,-30.53"/>
<polygon fill="midnightblue" stroke="midnightblue" points="610.51,-72.1 621.08,-72.87 613.3,-65.68 610.51,-72.1"/>
</g>
<!-- Node9&#45;&gt;Node16 -->
<g id="edge15" class="edge">
<title>Node9&#45;&gt;Node16</title>
<path fill="none" stroke="midnightblue" d="M580.74,-74.45C559.08,-71.99 534.45,-69.27 512,-67 334.85,-49.05 288.73,-59.66 113,-31 110.1,-30.53 107.13,-29.99 104.14,-29.41"/>
<polygon fill="midnightblue" stroke="midnightblue" points="580.46,-77.94 590.79,-75.6 581.25,-70.99 580.46,-77.94"/>
</g>
<!-- Node17 -->
<g id="node17" class="node">
<title>Node17</title>
<g id="a_node17"><a xlink:href="sensesp__app__builder_8h.html" target="_top" xlink:title=" ">
<polygon fill="white" stroke="black" points="573.5,-6 573.5,-25 708.5,-25 708.5,-6 573.5,-6"/>
<text text-anchor="middle" x="641" y="-13" font-family="Helvetica,sans-Serif" font-size="10.00">src/sensesp_app_builder.h</text>
</a>
</g>
</g>
<!-- Node9&#45;&gt;Node17 -->
<g id="edge17" class="edge">
<title>Node9&#45;&gt;Node17</title>
<path fill="none" stroke="midnightblue" d="M641,-62.54C641,-50.17 641,-34.62 641,-25.13"/>
<polygon fill="midnightblue" stroke="midnightblue" points="637.5,-62.73 641,-72.73 644.5,-62.73 637.5,-62.73"/>
</g>
<!-- Node18&#45;&gt;Node6 -->
<g id="edge24" class="edge">
<title>Node18&#45;&gt;Node6</title>
<path fill="none" stroke="midnightblue" d="M356,-191.11C356,-182.15 356,-172.32 356,-164.58"/>
<polygon fill="midnightblue" stroke="midnightblue" points="352.5,-191.4 356,-201.4 359.5,-191.4 352.5,-191.4"/>
</g>
<!-- Node18&#45;&gt;Node12 -->
<g id="edge22" class="edge">
<title>Node18&#45;&gt;Node12</title>
<path fill="none" stroke="midnightblue" d="M326.42,-195.6C314.89,-187.01 302.06,-176.33 292,-165 250.23,-117.98 216.26,-49.33 204.99,-25.24"/>
<polygon fill="midnightblue" stroke="midnightblue" points="324.38,-198.45 334.53,-201.48 328.49,-192.78 324.38,-198.45"/>
</g>
<!-- Node18&#45;&gt;Node16 -->
<g id="edge23" class="edge">
<title>Node18&#45;&gt;Node16</title>
<path fill="none" stroke="midnightblue" d="M319.9,-196.57C302.99,-187.42 282.72,-176.05 265,-165 191.18,-118.95 107.6,-57.93 70.94,-30.69"/>
<polygon fill="midnightblue" stroke="midnightblue" points="318.44,-199.76 328.91,-201.4 321.75,-193.59 318.44,-199.76"/>
</g>
<!-- Node19&#45;&gt;Node4 -->
<g id="edge28" class="edge">
<title>Node19&#45;&gt;Node4</title>
<path fill="none" stroke="midnightblue" d="M560.28,-259.28C556.01,-250.02 551.23,-239.66 547.5,-231.58"/>
<polygon fill="midnightblue" stroke="midnightblue" points="557.12,-260.78 564.49,-268.4 563.48,-257.85 557.12,-260.78"/>
</g>
<!-- Node19&#45;&gt;Node9 -->
<g id="edge31" class="edge">
<title>Node19&#45;&gt;Node9</title>
<path fill="none" stroke="midnightblue" d="M594.71,-261.43C603.22,-252.93 612.36,-242.63 619,-232 635.84,-205.05 638.35,-196.28 644,-165 648.73,-138.8 644.89,-107.13 642.52,-92.15"/>
<polygon fill="midnightblue" stroke="midnightblue" points="592.25,-258.94 587.46,-268.39 597.1,-263.98 592.25,-258.94"/>
</g>
<!-- Node19&#45;&gt;Node13 -->
<g id="edge29" class="edge">
<title>Node19&#45;&gt;Node13</title>
<path fill="none" stroke="midnightblue" d="M615.43,-264.54C738.73,-214.7 1083.31,-75.39 1194.17,-30.58"/>
<polygon fill="midnightblue" stroke="midnightblue" points="613.87,-261.39 605.91,-268.39 616.5,-267.88 613.87,-261.39"/>
</g>
<!-- Node19&#45;&gt;Node18 -->
<g id="edge30" class="edge">
<title>Node19&#45;&gt;Node18</title>
<path fill="none" stroke="midnightblue" d="M515.03,-265.58C480.11,-255.02 435.69,-241.59 402.67,-231.61"/>
<polygon fill="midnightblue" stroke="midnightblue" points="514.03,-268.93 524.61,-268.48 516.05,-262.23 514.03,-268.93"/>
</g>
</g>
</svg>
        <g id="navigator" transform="translate(0 0)" fill="#404254">
                <rect fill="#f2f5e9" fill-opacity="0.5" stroke="#606060" stroke-width=".5" x="0" y="0" width="60" height="60"/>
                <use id="zoomplus" xlink:href="#zoomPlus" x="17" y="9" onmousedown="handleZoom(evt,'in')"/>
                <use id="zoomminus" xlink:href="#zoomMin" x="42" y="9" onmousedown="handleZoom(evt,'out')"/>
                <use id="reset" xlink:href="#resetDef" x="30" y="36" onmousedown="handleReset()"/>
                <g id="arrowUp" xlink:href="#dirArrow" transform="translate(30 24)" onmousedown="handlePan(0,-1)">
                  <use xlink:href="#rim" fill="#404040">
                        <set attributeName="fill" to="#808080" begin="arrowUp.mouseover" end="arrowUp.mouseout"/>
                  </use>
                  <path fill="none" stroke="white" stroke-width="1.5" d="M0,-3.0v7 M-2.5,-0.5L0,-3.0L2.5,-0.5"/>
                </g>
                <g id="arrowRight" xlink:href="#dirArrow" transform="rotate(90) translate(36 -43)" onmousedown="handlePan(1,0)">
                  <use xlink:href="#rim" fill="#404040">
                        <set attributeName="fill" to="#808080" begin="arrowRight.mouseover" end="arrowRight.mouseout"/>
                  </use>
                  <path fill="none" stroke="white" stroke-width="1.5" d="M0,-3.0v7 M-2.5,-0.5L0,-3.0L2.5,-0.5"/>
                </g>
                <g id="arrowDown" xlink:href="#dirArrow" transform="rotate(180) translate(-30 -48)" onmousedown="handlePan(0,1)">
                  <use xlink:href="#rim" fill="#404040">
                        <set attributeName="fill" to="#808080" begin="arrowDown.mouseover" end="arrowDown.mouseout"/>
                  </use>
                  <path fill="none" stroke="white" stroke-width="1.5" d="M0,-3.0v7 M-2.5,-0.5L0,-3.0L2.5,-0.5"/>
                </g>
                <g id="arrowLeft" xlink:href="#dirArrow" transform="rotate(270) translate(-36 17)" onmousedown="handlePan(-1,0)">
                  <use xlink:href="#rim" fill="#404040">
                        <set attributeName="fill" to="#808080" begin="arrowLeft.mouseover" end="arrowLeft.mouseout"/>
                  </use>
                  <path fill="none" stroke="white" stroke-width="1.5" d="M0,-3.0v7 M-2.5,-0.5L0,-3.0L2.5,-0.5"/>
                </g>
        </g>
        <svg viewBox="0 0 15 15" width="100%" height="30px" preserveAspectRatio="xMaxYMin meet">
         <g id="arrow_out" transform="scale(0.3 0.3)">
          <a xlink:href="ui__output_8h__dep__incl_org.svg" target="_base">
           <rect id="button" ry="5" rx="5" y="6" x="6" height="38" width="38"
                fill="#f2f5e9" fill-opacity="0.5" stroke="#606060" stroke-width="1.0"/>
           <path id="arrow"
             d="M 11.500037,31.436501 C 11.940474,20.09759 22.043105,11.32322 32.158766,21.979434 L 37.068811,17.246167 C 37.068811,17.246167 37.088388,32 37.088388,32 L 22.160133,31.978069 C 22.160133,31.978069 26.997745,27.140456 26.997745,27.140456 C 18.528582,18.264221 13.291696,25.230495 11.500037,31.436501 z"
             style="fill:#404040;"/>
          </a>
         </g>
        </svg>
</svg>
