<?xml version="1.0" encoding="UTF-8" standalone="no"?>
<!DOCTYPE svg PUBLIC "-//W3C//DTD SVG 1.1//EN"
 "http://www.w3.org/Graphics/SVG/1.1/DTD/svg11.dtd">
<!-- Generated by graphviz version 3.0.0 (20220226.1711)
 -->
<!-- Title: src/sensesp/system/uuid.h Pages: 1 -->
<svg width="377pt" height="106pt"
 viewBox="0.00 0.00 376.50 106.00" xmlns="http://www.w3.org/2000/svg" xmlns:xlink="http://www.w3.org/1999/xlink">
<g id="graph0" class="graph" transform="scale(1 1) rotate(0) translate(4 102)">
<title>src/sensesp/system/uuid.h</title>
<polygon fill="white" stroke="transparent" points="-4,4 -4,-102 372.5,-102 372.5,4 -4,4"/>
<!-- Node1 -->
<g id="node1" class="node">
<title>Node1</title>
<g id="a_node1"><a xlink:title=" ">
<polygon fill="#bfbfbf" stroke="black" points="130.5,-67.5 130.5,-97.5 235.5,-97.5 235.5,-67.5 130.5,-67.5"/>
<text text-anchor="start" x="138.5" y="-85.5" font-family="Helvetica,sans-Serif" font-size="10.00">src/sensesp/system</text>
<text text-anchor="middle" x="183" y="-74.5" font-family="Helvetica,sans-Serif" font-size="10.00">/uuid.h</text>
</a>
</g>
</g>
<!-- Node2 -->
<g id="node2" class="node">
<title>Node2</title>
<g id="a_node2"><a xlink:href="ws__client_8cpp.html" target="_top" xlink:title=" ">
<polygon fill="white" stroke="black" points="0,-0.5 0,-30.5 102,-30.5 102,-0.5 0,-0.5"/>
<text text-anchor="start" x="8" y="-18.5" font-family="Helvetica,sans-Serif" font-size="10.00">src/sensesp/net/ws</text>
<text text-anchor="middle" x="51" y="-7.5" font-family="Helvetica,sans-Serif" font-size="10.00">_client.cpp</text>
</a>
</g>
</g>
<!-- Node1&#45;&gt;Node2 -->
<g id="edge1" class="edge">
<title>Node1&#45;&gt;Node2</title>
<path fill="none" stroke="midnightblue" d="M145.13,-62.85C124.26,-52.58 98.77,-40.03 79.59,-30.58"/>
<polygon fill="midnightblue" stroke="midnightblue" points="143.84,-66.12 154.36,-67.4 146.93,-59.84 143.84,-66.12"/>
</g>
<!-- Node3 -->
<g id="node3" class="node">
<title>Node3</title>
<g id="a_node3"><a xlink:href="signalk__put__request_8cpp.html" target="_top" xlink:title=" ">
<polygon fill="white" stroke="black" points="120.5,-0.5 120.5,-30.5 245.5,-30.5 245.5,-0.5 120.5,-0.5"/>
<text text-anchor="start" x="128.5" y="-18.5" font-family="Helvetica,sans-Serif" font-size="10.00">src/sensesp/signalk</text>
<text text-anchor="middle" x="183" y="-7.5" font-family="Helvetica,sans-Serif" font-size="10.00">/signalk_put_request.cpp</text>
</a>
</g>
</g>
<!-- Node1&#45;&gt;Node3 -->
<g id="edge2" class="edge">
<title>Node1&#45;&gt;Node3</title>
<path fill="none" stroke="midnightblue" d="M183,-57.11C183,-48.15 183,-38.32 183,-30.58"/>
<polygon fill="midnightblue" stroke="midnightblue" points="179.5,-57.4 183,-67.4 186.5,-57.4 179.5,-57.4"/>
</g>
<!-- Node4 -->
<g id="node4" class="node">
<title>Node4</title>
<g id="a_node4"><a xlink:href="uuid_8cpp.html" target="_top" xlink:title=" ">
<polygon fill="white" stroke="black" points="263.5,-0.5 263.5,-30.5 368.5,-30.5 368.5,-0.5 263.5,-0.5"/>
<text text-anchor="start" x="271.5" y="-18.5" font-family="Helvetica,sans-Serif" font-size="10.00">src/sensesp/system</text>
<text text-anchor="middle" x="316" y="-7.5" font-family="Helvetica,sans-Serif" font-size="10.00">/uuid.cpp</text>
</a>
</g>
</g>
<!-- Node1&#45;&gt;Node4 -->
<g id="edge3" class="edge">
<title>Node1&#45;&gt;Node4</title>
<path fill="none" stroke="midnightblue" d="M220.87,-62.99C241.95,-52.69 267.78,-40.07 287.2,-30.58"/>
<polygon fill="midnightblue" stroke="midnightblue" points="219.31,-59.86 211.86,-67.4 222.38,-66.15 219.31,-59.86"/>
</g>
</g>
</svg>
