<?xml version="1.0" encoding="UTF-8" standalone="no"?>
<!DOCTYPE svg PUBLIC "-//W3C//DTD SVG 1.1//EN"
 "http://www.w3.org/Graphics/SVG/1.1/DTD/svg11.dtd">
<!-- Generated by graphviz version 2.40.1 (20161225.0304)
 -->
<!-- Title: src/transforms/voltage_multiplier.h Pages: 1 -->
<svg width="122pt" height="102pt"
 viewBox="0.00 0.00 122.36 102.00" xmlns="http://www.w3.org/2000/svg" xmlns:xlink="http://www.w3.org/1999/xlink">
<g id="graph0" class="graph" transform="scale(1 1) rotate(0) translate(4 98)">
<title>src/transforms/voltage_multiplier.h</title>
<polygon fill="#ffffff" stroke="transparent" points="-4,4 -4,-98 118.3643,-98 118.3643,4 -4,4"/>
<!-- Node19 -->
<g id="node1" class="node">
<title>Node19</title>
<g id="a_node1"><a xlink:title=" ">
<polygon fill="#bfbfbf" stroke="#000000" points="0,-65.5 0,-93.5 114.3643,-93.5 114.3643,-65.5 0,-65.5"/>
<text text-anchor="start" x="8" y="-81.5" font-family="Helvetica,sans-Serif" font-size="10.00" fill="#000000">src/transforms/voltage</text>
<text text-anchor="middle" x="57.1821" y="-71.5" font-family="Helvetica,sans-Serif" font-size="10.00" fill="#000000">_multiplier.h</text>
</a>
</g>
</g>
<!-- Node20 -->
<g id="node2" class="node">
<title>Node20</title>
<g id="a_node2"><a xlink:href="voltage__multiplier_8cpp.html" target="_top" xlink:title=" ">
<polygon fill="#ffffff" stroke="#000000" points="0,-.5 0,-28.5 114.3643,-28.5 114.3643,-.5 0,-.5"/>
<text text-anchor="start" x="8" y="-16.5" font-family="Helvetica,sans-Serif" font-size="10.00" fill="#000000">src/transforms/voltage</text>
<text text-anchor="middle" x="57.1821" y="-6.5" font-family="Helvetica,sans-Serif" font-size="10.00" fill="#000000">_multiplier.cpp</text>
</a>
</g>
</g>
<!-- Node19&#45;&gt;Node20 -->
<g id="edge1" class="edge">
<title>Node19&#45;&gt;Node20</title>
<path fill="none" stroke="#191970" d="M57.1821,-55.1081C57.1821,-46.1539 57.1821,-36.3227 57.1821,-28.5765"/>
<polygon fill="#191970" stroke="#191970" points="53.6822,-55.3959 57.1821,-65.396 60.6822,-55.396 53.6822,-55.3959"/>
</g>
</g>
</svg>
