<?xml version="1.0" encoding="UTF-8" standalone="no"?>
<!DOCTYPE svg PUBLIC "-//W3C//DTD SVG 1.1//EN"
 "http://www.w3.org/Graphics/SVG/1.1/DTD/svg11.dtd">
<!-- Generated by graphviz version 14.1.4 (20260321.0153)
 -->
<!-- Title: src/sensesp/net/wifi_provisioner.h Pages: 1 -->
<svg width="1373pt" height="360pt"
 viewBox="0.00 0.00 1373.00 360.00" xmlns="http://www.w3.org/2000/svg" xmlns:xlink="http://www.w3.org/1999/xlink">
<g id="graph0" class="graph" transform="scale(1 1) rotate(0) translate(4 355.75)">
<title>src/sensesp/net/wifi_provisioner.h</title>
<!-- Node1 -->
<g id="Node000001" class="node">
<title>Node1</title>
<g id="a_Node000001"><a xlink:title=" ">
<polygon fill="#999999" stroke="#666666" points="1006.12,-351.75 902.38,-351.75 902.38,-321.25 1006.12,-321.25 1006.12,-351.75"/>
<text xml:space="preserve" text-anchor="start" x="910.38" y="-338.25" font-family="Helvetica,sans-Serif" font-size="10.00">src/sensesp/net/wifi</text>
<text xml:space="preserve" text-anchor="middle" x="954.25" y="-327" font-family="Helvetica,sans-Serif" font-size="10.00">_provisioner.h</text>
</a>
</g>
</g>
<!-- Node2 -->
<g id="Node000002" class="node">
<title>Node2</title>
<g id="a_Node000002"><a xlink:href="networking_8h.html" target="_top" xlink:title=" ">
<polygon fill="white" stroke="#666666" points="880.38,-285.25 736.12,-285.25 736.12,-266 880.38,-266 880.38,-285.25"/>
<text xml:space="preserve" text-anchor="middle" x="808.25" y="-271.75" font-family="Helvetica,sans-Serif" font-size="10.00">src/sensesp/net/networking.h</text>
</a>
</g>
</g>
<!-- Node1&#45;&gt;Node2 -->
<g id="edge1_Node000001_Node000002" class="edge">
<title>Node1&#45;&gt;Node2</title>
<g id="a_edge1_Node000001_Node000002"><a xlink:title=" ">
<path fill="none" stroke="#63b8ff" d="M907.13,-316.5C881.48,-306.16 850.93,-293.83 830.64,-285.65"/>
<polygon fill="#63b8ff" stroke="#63b8ff" points="905.8,-319.74 916.38,-320.23 908.42,-313.24 905.8,-319.74"/>
</a>
</g>
</g>
<!-- Node6 -->
<g id="Node000006" class="node">
<title>Node6</title>
<g id="a_Node000006"><a xlink:href="sensesp__app_8h.html" target="_top" xlink:title=" ">
<polygon fill="white" stroke="#666666" points="869.5,-91.38 771,-91.38 771,-72.12 869.5,-72.12 869.5,-91.38"/>
<text xml:space="preserve" text-anchor="middle" x="820.25" y="-77.88" font-family="Helvetica,sans-Serif" font-size="10.00">src/sensesp_app.h</text>
</a>
</g>
</g>
<!-- Node1&#45;&gt;Node6 -->
<g id="edge22_Node000001_Node000006" class="edge">
<title>Node1&#45;&gt;Node6</title>
<g id="a_edge22_Node000001_Node000006"><a xlink:title=" ">
<path fill="none" stroke="#63b8ff" d="M941.23,-310.95C912.3,-256.37 843.72,-127.01 825.03,-91.76"/>
<polygon fill="#63b8ff" stroke="#63b8ff" points="937.98,-312.29 945.76,-319.48 944.17,-309.01 937.98,-312.29"/>
</a>
</g>
</g>
<!-- Node9 -->
<g id="Node000009" class="node">
<title>Node9</title>
<g id="a_Node000009"><a xlink:href="wifi__provisioner_8cpp.html" target="_top" xlink:title=" ">
<polygon fill="white" stroke="#666666" points="1365.12,-30.5 1261.38,-30.5 1261.38,0 1365.12,0 1365.12,-30.5"/>
<text xml:space="preserve" text-anchor="start" x="1269.38" y="-17" font-family="Helvetica,sans-Serif" font-size="10.00">src/sensesp/net/wifi</text>
<text xml:space="preserve" text-anchor="middle" x="1313.25" y="-5.75" font-family="Helvetica,sans-Serif" font-size="10.00">_provisioner.cpp</text>
</a>
</g>
</g>
<!-- Node1&#45;&gt;Node9 -->
<g id="edge21_Node000001_Node000009" class="edge">
<title>Node1&#45;&gt;Node9</title>
<g id="a_edge21_Node000001_Node000009"><a xlink:title=" ">
<path fill="none" stroke="#63b8ff" d="M1017.48,-323.03C1103.89,-304.14 1248.25,-265.18 1248.25,-215.75 1248.25,-215.75 1248.25,-215.75 1248.25,-147.25 1248.25,-100.79 1281.47,-53.81 1300.41,-30.8"/>
<polygon fill="#63b8ff" stroke="#63b8ff" points="1016.99,-319.55 1007.95,-325.08 1018.46,-326.4 1016.99,-319.55"/>
</a>
</g>
</g>
<!-- Node17 -->
<g id="Node000017" class="node">
<title>Node17</title>
<g id="a_Node000017"><a xlink:href="app__command__handler_8h.html" target="_top" xlink:title=" ">
<polygon fill="white" stroke="#666666" points="1063.75,-163.5 936.75,-163.5 936.75,-133 1063.75,-133 1063.75,-163.5"/>
<text xml:space="preserve" text-anchor="start" x="944.75" y="-150" font-family="Helvetica,sans-Serif" font-size="10.00">src/sensesp/net/web</text>
<text xml:space="preserve" text-anchor="middle" x="1000.25" y="-138.75" font-family="Helvetica,sans-Serif" font-size="10.00">/app_command_handler.h</text>
</a>
</g>
</g>
<!-- Node1&#45;&gt;Node17 -->
<g id="edge18_Node000001_Node000017" class="edge">
<title>Node1&#45;&gt;Node17</title>
<g id="a_edge18_Node000001_Node000017"><a xlink:title=" ">
<path fill="none" stroke="#63b8ff" d="M960.6,-309.79C970.4,-270.12 988.88,-195.29 996.66,-163.8"/>
<polygon fill="#63b8ff" stroke="#63b8ff" points="957.22,-308.87 958.22,-319.42 964.02,-310.55 957.22,-308.87"/>
</a>
</g>
</g>
<!-- Node3 -->
<g id="Node000003" class="node">
<title>Node3</title>
<g id="a_Node000003"><a xlink:href="system__status__controller_8h.html" target="_top" xlink:title=" ">
<polygon fill="white" stroke="#666666" points="811.25,-230 675.25,-230 675.25,-199.5 811.25,-199.5 811.25,-230"/>
<text xml:space="preserve" text-anchor="start" x="683.25" y="-216.5" font-family="Helvetica,sans-Serif" font-size="10.00">src/sensesp/controllers</text>
<text xml:space="preserve" text-anchor="middle" x="743.25" y="-205.25" font-family="Helvetica,sans-Serif" font-size="10.00">/system_status_controller.h</text>
</a>
</g>
</g>
<!-- Node2&#45;&gt;Node3 -->
<g id="edge2_Node000002_Node000003" class="edge">
<title>Node2&#45;&gt;Node3</title>
<g id="a_edge2_Node000002_Node000003"><a xlink:title=" ">
<path fill="none" stroke="#63b8ff" d="M789.92,-258.02C780.28,-249.29 768.57,-238.68 759.29,-230.28"/>
<polygon fill="#63b8ff" stroke="#63b8ff" points="787.49,-260.55 797.26,-264.67 792.19,-255.36 787.49,-260.55"/>
</a>
</g>
</g>
<!-- Node2&#45;&gt;Node6 -->
<g id="edge17_Node000002_Node000006" class="edge">
<title>Node2&#45;&gt;Node6</title>
<g id="a_edge17_Node000002_Node000006"><a xlink:title=" ">
<path fill="none" stroke="#63b8ff" d="M814.78,-254.79C816.99,-247.13 819.16,-238.25 820.25,-230 827.11,-178.04 822.98,-114.87 821.07,-91.77"/>
<polygon fill="#63b8ff" stroke="#63b8ff" points="811.52,-253.5 811.9,-264.09 818.2,-255.58 811.52,-253.5"/>
</a>
</g>
</g>
<!-- Node4 -->
<g id="Node000004" class="node">
<title>Node4</title>
<g id="a_Node000004"><a xlink:href="system__status__led_8h.html" target="_top" xlink:title=" ">
<polygon fill="white" stroke="#666666" points="773.12,-163.5 663.38,-163.5 663.38,-133 773.12,-133 773.12,-163.5"/>
<text xml:space="preserve" text-anchor="start" x="671.38" y="-150" font-family="Helvetica,sans-Serif" font-size="10.00">src/sensesp/system</text>
<text xml:space="preserve" text-anchor="middle" x="718.25" y="-138.75" font-family="Helvetica,sans-Serif" font-size="10.00">/system_status_led.h</text>
</a>
</g>
</g>
<!-- Node3&#45;&gt;Node4 -->
<g id="edge3_Node000003_Node000004" class="edge">
<title>Node3&#45;&gt;Node4</title>
<g id="a_edge3_Node000003_Node000004"><a xlink:title=" ">
<path fill="none" stroke="#63b8ff" d="M733.53,-188.66C730.27,-180.25 726.74,-171.16 723.9,-163.83"/>
<polygon fill="#63b8ff" stroke="#63b8ff" points="730.15,-189.64 737.03,-197.7 736.68,-187.11 730.15,-189.64"/>
</a>
</g>
</g>
<!-- Node3&#45;&gt;Node6 -->
<g id="edge16_Node000003_Node000006" class="edge">
<title>Node3&#45;&gt;Node6</title>
<g id="a_edge16_Node000003_Node000006"><a xlink:title=" ">
<path fill="none" stroke="#63b8ff" d="M762.85,-190.7C769.44,-182.41 776.55,-172.8 782.25,-163.5 797.47,-138.67 810.83,-106.76 816.85,-91.56"/>
<polygon fill="#63b8ff" stroke="#63b8ff" points="760.31,-188.28 756.71,-198.24 765.74,-192.7 760.31,-188.28"/>
</a>
</g>
</g>
<!-- Node5 -->
<g id="Node000005" class="node">
<title>Node5</title>
<g id="a_Node000005"><a xlink:href="system__status__led_8cpp.html" target="_top" xlink:title=" ">
<polygon fill="white" stroke="#666666" points="753.38,-97 633.12,-97 633.12,-66.5 753.38,-66.5 753.38,-97"/>
<text xml:space="preserve" text-anchor="start" x="641.12" y="-83.5" font-family="Helvetica,sans-Serif" font-size="10.00">src/sensesp/system</text>
<text xml:space="preserve" text-anchor="middle" x="693.25" y="-72.25" font-family="Helvetica,sans-Serif" font-size="10.00">/system_status_led.cpp</text>
</a>
</g>
</g>
<!-- Node4&#45;&gt;Node5 -->
<g id="edge4_Node000004_Node000005" class="edge">
<title>Node4&#45;&gt;Node5</title>
<g id="a_edge4_Node000004_Node000005"><a xlink:title=" ">
<path fill="none" stroke="#63b8ff" d="M708.53,-122.16C705.27,-113.75 701.74,-104.66 698.9,-97.33"/>
<polygon fill="#63b8ff" stroke="#63b8ff" points="705.15,-123.14 712.03,-131.2 711.68,-120.61 705.15,-123.14"/>
</a>
</g>
</g>
<!-- Node4&#45;&gt;Node6 -->
<g id="edge5_Node000004_Node000006" class="edge">
<title>Node4&#45;&gt;Node6</title>
<g id="a_edge5_Node000004_Node000006"><a xlink:title=" ">
<path fill="none" stroke="#63b8ff" d="M750.97,-126.56C769.53,-114.82 791.81,-100.73 806,-91.76"/>
<polygon fill="#63b8ff" stroke="#63b8ff" points="749.26,-123.5 742.67,-131.81 753,-129.42 749.26,-123.5"/>
</a>
</g>
</g>
<!-- Node7 -->
<g id="Node000007" class="node">
<title>Node7</title>
<g id="a_Node000007"><a xlink:href="app__command__handler_8cpp.html" target="_top" xlink:title=" ">
<polygon fill="white" stroke="#666666" points="1243,-30.5 1105.5,-30.5 1105.5,0 1243,0 1243,-30.5"/>
<text xml:space="preserve" text-anchor="start" x="1113.5" y="-17" font-family="Helvetica,sans-Serif" font-size="10.00">src/sensesp/net/web</text>
<text xml:space="preserve" text-anchor="middle" x="1174.25" y="-5.75" font-family="Helvetica,sans-Serif" font-size="10.00">/app_command_handler.cpp</text>
</a>
</g>
</g>
<!-- Node6&#45;&gt;Node7 -->
<g id="edge6_Node000006_Node000007" class="edge">
<title>Node6&#45;&gt;Node7</title>
<g id="a_edge6_Node000006_Node000007"><a xlink:title=" ">
<path fill="none" stroke="#63b8ff" d="M880.96,-69.8C937.09,-59.66 1022.81,-44.14 1097.25,-30.5 1099.92,-30.01 1102.65,-29.51 1105.41,-29"/>
<polygon fill="#63b8ff" stroke="#63b8ff" points="880.51,-66.33 871.29,-71.55 881.75,-73.21 880.51,-66.33"/>
</a>
</g>
</g>
<!-- Node8 -->
<g id="Node000008" class="node">
<title>Node8</title>
<g id="a_Node000008"><a xlink:href="base__command__handler_8cpp.html" target="_top" xlink:title=" ">
<polygon fill="white" stroke="#666666" points="541.62,-30.5 398.88,-30.5 398.88,0 541.62,0 541.62,-30.5"/>
<text xml:space="preserve" text-anchor="start" x="406.88" y="-17" font-family="Helvetica,sans-Serif" font-size="10.00">src/sensesp/net/web</text>
<text xml:space="preserve" text-anchor="middle" x="470.25" y="-5.75" font-family="Helvetica,sans-Serif" font-size="10.00">/base_command_handler.cpp</text>
</a>
</g>
</g>
<!-- Node6&#45;&gt;Node8 -->
<g id="edge7_Node000006_Node000008" class="edge">
<title>Node6&#45;&gt;Node8</title>
<g id="a_edge7_Node000006_Node000008"><a xlink:title=" ">
<path fill="none" stroke="#63b8ff" d="M773.98,-69.07C770.02,-68.16 766.07,-67.29 762.25,-66.5 669.11,-47.14 644.99,-46.74 551.25,-30.5 548.15,-29.96 544.99,-29.41 541.8,-28.86"/>
<polygon fill="#63b8ff" stroke="#63b8ff" points="773.06,-72.45 783.6,-71.33 774.66,-65.63 773.06,-72.45"/>
</a>
</g>
</g>
<!-- Node6&#45;&gt;Node9 -->
<g id="edge8_Node000006_Node000009" class="edge">
<title>Node6&#45;&gt;Node9</title>
<g id="a_edge8_Node000006_Node000009"><a xlink:title=" ">
<path fill="none" stroke="#63b8ff" d="M881.11,-75.87C965.03,-68.64 1120.82,-53.42 1252.25,-30.5 1255.14,-30 1258.1,-29.44 1261.09,-28.85"/>
<polygon fill="#63b8ff" stroke="#63b8ff" points="880.93,-72.37 871.26,-76.71 881.52,-79.35 880.93,-72.37"/>
</a>
</g>
</g>
<!-- Node10 -->
<g id="Node000010" class="node">
<title>Node10</title>
<g id="a_Node000010"><a xlink:href="system__info_8cpp.html" target="_top" xlink:title=" ">
<polygon fill="white" stroke="#666666" points="666.62,-30.5 559.88,-30.5 559.88,0 666.62,0 666.62,-30.5"/>
<text xml:space="preserve" text-anchor="start" x="567.88" y="-17" font-family="Helvetica,sans-Serif" font-size="10.00">src/sensesp/sensors</text>
<text xml:space="preserve" text-anchor="middle" x="613.25" y="-5.75" font-family="Helvetica,sans-Serif" font-size="10.00">/system_info.cpp</text>
</a>
</g>
</g>
<!-- Node6&#45;&gt;Node10 -->
<g id="edge9_Node000006_Node000010" class="edge">
<title>Node6&#45;&gt;Node10</title>
<g id="a_edge9_Node000006_Node000010"><a xlink:title=" ">
<path fill="none" stroke="#63b8ff" d="M780.46,-68.35C746.15,-57.66 696.53,-42.2 660.26,-30.9"/>
<polygon fill="#63b8ff" stroke="#63b8ff" points="779,-71.56 789.59,-71.2 781.08,-64.88 779,-71.56"/>
</a>
</g>
</g>
<!-- Node11 -->
<g id="Node000011" class="node">
<title>Node11</title>
<g id="a_Node000011"><a xlink:href="signalk__delta__queue_8cpp.html" target="_top" xlink:title=" ">
<polygon fill="white" stroke="#666666" points="811.38,-30.5 685.12,-30.5 685.12,0 811.38,0 811.38,-30.5"/>
<text xml:space="preserve" text-anchor="start" x="693.12" y="-17" font-family="Helvetica,sans-Serif" font-size="10.00">src/sensesp/signalk</text>
<text xml:space="preserve" text-anchor="middle" x="748.25" y="-5.75" font-family="Helvetica,sans-Serif" font-size="10.00">/signalk_delta_queue.cpp</text>
</a>
</g>
</g>
<!-- Node6&#45;&gt;Node11 -->
<g id="edge10_Node000006_Node000011" class="edge">
<title>Node6&#45;&gt;Node11</title>
<g id="a_edge10_Node000006_Node000011"><a xlink:title=" ">
<path fill="none" stroke="#63b8ff" d="M801.82,-64.24C790.31,-53.92 775.62,-40.77 764.54,-30.84"/>
<polygon fill="#63b8ff" stroke="#63b8ff" points="799.33,-66.71 809.11,-70.77 804,-61.49 799.33,-66.71"/>
</a>
</g>
</g>
<!-- Node12 -->
<g id="Node000012" class="node">
<title>Node12</title>
<g id="a_Node000012"><a xlink:href="signalk__put__request_8cpp.html" target="_top" xlink:title=" ">
<polygon fill="white" stroke="#666666" points="954.62,-30.5 829.88,-30.5 829.88,0 954.62,0 954.62,-30.5"/>
<text xml:space="preserve" text-anchor="start" x="837.88" y="-17" font-family="Helvetica,sans-Serif" font-size="10.00">src/sensesp/signalk</text>
<text xml:space="preserve" text-anchor="middle" x="892.25" y="-5.75" font-family="Helvetica,sans-Serif" font-size="10.00">/signalk_put_request.cpp</text>
</a>
</g>
</g>
<!-- Node6&#45;&gt;Node12 -->
<g id="edge11_Node000006_Node000012" class="edge">
<title>Node6&#45;&gt;Node12</title>
<g id="a_edge11_Node000006_Node000012"><a xlink:title=" ">
<path fill="none" stroke="#63b8ff" d="M838.68,-64.24C850.19,-53.92 864.88,-40.77 875.96,-30.84"/>
<polygon fill="#63b8ff" stroke="#63b8ff" points="836.5,-61.49 831.39,-70.77 841.17,-66.71 836.5,-61.49"/>
</a>
</g>
</g>
<!-- Node13 -->
<g id="Node000013" class="node">
<title>Node13</title>
<g id="a_Node000013"><a xlink:href="signalk__ws__client_8cpp.html" target="_top" xlink:title=" ">
<polygon fill="white" stroke="#666666" points="1087.75,-30.5 972.75,-30.5 972.75,0 1087.75,0 1087.75,-30.5"/>
<text xml:space="preserve" text-anchor="start" x="980.75" y="-17" font-family="Helvetica,sans-Serif" font-size="10.00">src/sensesp/signalk</text>
<text xml:space="preserve" text-anchor="middle" x="1030.25" y="-5.75" font-family="Helvetica,sans-Serif" font-size="10.00">/signalk_ws_client.cpp</text>
</a>
</g>
</g>
<!-- Node6&#45;&gt;Node13 -->
<g id="edge12_Node000006_Node000013" class="edge">
<title>Node6&#45;&gt;Node13</title>
<g id="a_edge12_Node000006_Node000013"><a xlink:title=" ">
<path fill="none" stroke="#63b8ff" d="M860.61,-68.35C895.43,-57.66 945.76,-42.2 982.56,-30.9"/>
<polygon fill="#63b8ff" stroke="#63b8ff" points="859.87,-64.92 851.34,-71.2 861.93,-71.61 859.87,-64.92"/>
</a>
</g>
</g>
<!-- Node14 -->
<g id="Node000014" class="node">
<title>Node14</title>
<g id="a_Node000014"><a xlink:href="button_8cpp.html" target="_top" xlink:title=" ">
<polygon fill="white" stroke="#666666" points="104.5,-30.5 0,-30.5 0,0 104.5,0 104.5,-30.5"/>
<text xml:space="preserve" text-anchor="start" x="8" y="-17" font-family="Helvetica,sans-Serif" font-size="10.00">src/sensesp/system</text>
<text xml:space="preserve" text-anchor="middle" x="52.25" y="-5.75" font-family="Helvetica,sans-Serif" font-size="10.00">/button.cpp</text>
</a>
</g>
</g>
<!-- Node6&#45;&gt;Node14 -->
<g id="edge13_Node000006_Node000014" class="edge">
<title>Node6&#45;&gt;Node14</title>
<g id="a_edge13_Node000006_Node000014"><a xlink:title=" ">
<path fill="none" stroke="#63b8ff" d="M776.76,-69.14C771.89,-68.12 766.98,-67.21 762.25,-66.5 476.53,-23.85 399.21,-71.51 113.25,-30.5 110.45,-30.1 107.59,-29.63 104.71,-29.12"/>
<polygon fill="#63b8ff" stroke="#63b8ff" points="775.94,-72.55 786.47,-71.35 777.49,-65.72 775.94,-72.55"/>
</a>
</g>
</g>
<!-- Node15 -->
<g id="Node000015" class="node">
<title>Node15</title>
<g id="a_Node000015"><a xlink:href="sensesp__app_8cpp.html" target="_top" xlink:title=" ">
<polygon fill="white" stroke="#666666" points="231.75,-24.88 122.75,-24.88 122.75,-5.63 231.75,-5.63 231.75,-24.88"/>
<text xml:space="preserve" text-anchor="middle" x="177.25" y="-11.38" font-family="Helvetica,sans-Serif" font-size="10.00">src/sensesp_app.cpp</text>
</a>
</g>
</g>
<!-- Node6&#45;&gt;Node15 -->
<g id="edge14_Node000006_Node000015" class="edge">
<title>Node6&#45;&gt;Node15</title>
<g id="a_edge14_Node000006_Node000015"><a xlink:title=" ">
<path fill="none" stroke="#63b8ff" d="M776.57,-69.17C771.76,-68.15 766.92,-67.23 762.25,-66.5 532.48,-30.62 470.34,-64.25 240.25,-30.5 231.37,-29.2 221.89,-27.32 213.05,-25.35"/>
<polygon fill="#63b8ff" stroke="#63b8ff" points="775.62,-72.55 786.15,-71.36 777.18,-65.72 775.62,-72.55"/>
</a>
</g>
</g>
<!-- Node16 -->
<g id="Node000016" class="node">
<title>Node16</title>
<g id="a_Node000016"><a xlink:href="sensesp__app__builder_8h.html" target="_top" xlink:title=" ">
<polygon fill="white" stroke="#666666" points="381,-24.88 249.5,-24.88 249.5,-5.63 381,-5.63 381,-24.88"/>
<text xml:space="preserve" text-anchor="middle" x="315.25" y="-11.38" font-family="Helvetica,sans-Serif" font-size="10.00">src/sensesp_app_builder.h</text>
</a>
</g>
</g>
<!-- Node6&#45;&gt;Node16 -->
<g id="edge15_Node000006_Node000016" class="edge">
<title>Node6&#45;&gt;Node16</title>
<g id="a_edge15_Node000006_Node000016"><a xlink:title=" ">
<path fill="none" stroke="#63b8ff" d="M775.63,-69.1C771.13,-68.13 766.61,-67.24 762.25,-66.5 598.5,-38.61 554.68,-54.03 390.25,-30.5 380.28,-29.07 369.62,-27.24 359.56,-25.36"/>
<polygon fill="#63b8ff" stroke="#63b8ff" points="774.68,-72.48 785.21,-71.29 776.24,-65.65 774.68,-72.48"/>
</a>
</g>
</g>
<!-- Node17&#45;&gt;Node6 -->
<g id="edge20_Node000017_Node000006" class="edge">
<title>Node17&#45;&gt;Node6</title>
<g id="a_edge20_Node000017_Node000006"><a xlink:title=" ">
<path fill="none" stroke="#63b8ff" d="M948.79,-128.81C915.02,-116.71 872.34,-101.41 845.66,-91.85"/>
<polygon fill="#63b8ff" stroke="#63b8ff" points="947.39,-132.02 957.98,-132.1 949.75,-125.44 947.39,-132.02"/>
</a>
</g>
</g>
<!-- Node17&#45;&gt;Node7 -->
<g id="edge19_Node000017_Node000007" class="edge">
<title>Node17&#45;&gt;Node7</title>
<g id="a_edge19_Node000017_Node000007"><a xlink:title=" ">
<path fill="none" stroke="#63b8ff" d="M1028.43,-126.03C1063.97,-99.28 1124.12,-53.99 1154.88,-30.83"/>
<polygon fill="#63b8ff" stroke="#63b8ff" points="1026.63,-123.01 1020.75,-131.82 1030.84,-128.6 1026.63,-123.01"/>
</a>
</g>
</g>
</g>
</svg>
