<?xml version="1.0" encoding="UTF-8" standalone="no"?>
<!DOCTYPE svg PUBLIC "-//W3C//DTD SVG 1.1//EN"
 "http://www.w3.org/Graphics/SVG/1.1/DTD/svg11.dtd">
<!-- Generated by graphviz version 7.1.0 (20230121.1956)
 -->
<!-- Title: src/sensesp/net/wifi_state.h Pages: 1 -->
<svg width="1429pt" height="412pt"
 viewBox="0.00 0.00 1429.22 412.00" xmlns="http://www.w3.org/2000/svg" xmlns:xlink="http://www.w3.org/1999/xlink">
<g id="graph0" class="graph" transform="scale(1 1) rotate(0) translate(4 408)">
<title>src/sensesp/net/wifi_state.h</title>
<!-- Node1 -->
<g id="node1" class="node">
<title>Node1</title>
<g id="a_node1"><a xlink:title=" ">
<polygon fill="#999999" stroke="#666666" points="1242,-404 1138,-404 1138,-374 1242,-374 1242,-404"/>
<text text-anchor="start" x="1146" y="-392" font-family="Helvetica,sans-Serif" font-size="10.00">src/sensesp/net/wifi</text>
<text text-anchor="middle" x="1190" y="-381" font-family="Helvetica,sans-Serif" font-size="10.00">_state.h</text>
</a>
</g>
</g>
<!-- Node2 -->
<g id="node2" class="node">
<title>Node2</title>
<g id="a_node2"><a xlink:href="networking_8h.html" target="_top" xlink:title=" ">
<polygon fill="white" stroke="#666666" points="1262.5,-338 1117.5,-338 1117.5,-319 1262.5,-319 1262.5,-338"/>
<text text-anchor="middle" x="1190" y="-326" font-family="Helvetica,sans-Serif" font-size="10.00">src/sensesp/net/networking.h</text>
</a>
</g>
</g>
<!-- Node1&#45;&gt;Node2 -->
<g id="edge1" class="edge">
<title>Node1&#45;&gt;Node2</title>
<path fill="none" stroke="#63b8ff" d="M1190,-362.3C1190,-353.65 1190,-344.58 1190,-338.18"/>
<polygon fill="#63b8ff" stroke="#63b8ff" points="1186.5,-362.03 1190,-372.03 1193.5,-362.03 1186.5,-362.03"/>
</g>
<!-- Node3 -->
<g id="node3" class="node">
<title>Node3</title>
<g id="a_node3"><a xlink:href="main_8cpp.html" target="_top" xlink:title=" ">
<polygon fill="white" stroke="#666666" points="778.5,-19 705.5,-19 705.5,0 778.5,0 778.5,-19"/>
<text text-anchor="middle" x="742" y="-7" font-family="Helvetica,sans-Serif" font-size="10.00">src/main.cpp</text>
</a>
</g>
</g>
<!-- Node2&#45;&gt;Node3 -->
<g id="edge2" class="edge">
<title>Node2&#45;&gt;Node3</title>
<path fill="none" stroke="#63b8ff" d="M1273.95,-316.34C1339.31,-302.37 1419,-271.34 1419,-203 1419,-203 1419,-203 1419,-135 1419,-98.46 1427.89,-78.61 1400,-55 1352.49,-14.77 910.74,-10.78 778.95,-10.49"/>
<polygon fill="#63b8ff" stroke="#63b8ff" points="1273.37,-312.89 1264.26,-318.29 1274.75,-319.75 1273.37,-312.89"/>
</g>
<!-- Node4 -->
<g id="node4" class="node">
<title>Node4</title>
<g id="a_node4"><a xlink:href="system__status__controller_8h.html" target="_top" xlink:title=" ">
<polygon fill="white" stroke="#666666" points="1082.5,-283 945.5,-283 945.5,-253 1082.5,-253 1082.5,-283"/>
<text text-anchor="start" x="953.5" y="-271" font-family="Helvetica,sans-Serif" font-size="10.00">src/sensesp/controllers</text>
<text text-anchor="middle" x="1014" y="-260" font-family="Helvetica,sans-Serif" font-size="10.00">/system_status_controller.h</text>
</a>
</g>
</g>
<!-- Node2&#45;&gt;Node4 -->
<g id="edge3" class="edge">
<title>Node2&#45;&gt;Node4</title>
<path fill="none" stroke="#63b8ff" d="M1152.39,-315C1124.56,-305.75 1086.57,-293.12 1057.44,-283.44"/>
<polygon fill="#63b8ff" stroke="#63b8ff" points="1151.24,-318.3 1161.83,-318.14 1153.45,-311.66 1151.24,-318.3"/>
</g>
<!-- Node8 -->
<g id="node8" class="node">
<title>Node8</title>
<g id="a_node8"><a xlink:href="sensesp__app_8cpp.html" target="_top" xlink:title=" ">
<polygon fill="white" stroke="#666666" points="1217,-79.5 1107,-79.5 1107,-60.5 1217,-60.5 1217,-79.5"/>
<text text-anchor="middle" x="1162" y="-67.5" font-family="Helvetica,sans-Serif" font-size="10.00">src/sensesp_app.cpp</text>
</a>
</g>
</g>
<!-- Node2&#45;&gt;Node8 -->
<g id="edge22" class="edge">
<title>Node2&#45;&gt;Node8</title>
<path fill="none" stroke="#63b8ff" d="M1187.8,-307.33C1182.08,-254.94 1166.92,-116.1 1162.96,-79.79"/>
<polygon fill="#63b8ff" stroke="#63b8ff" points="1184.31,-307.6 1188.87,-317.17 1191.27,-306.85 1184.31,-307.6"/>
</g>
<!-- Node9 -->
<g id="node9" class="node">
<title>Node9</title>
<g id="a_node9"><a xlink:href="sensesp__app_8h.html" target="_top" xlink:title=" ">
<polygon fill="white" stroke="#666666" points="865.5,-145.5 766.5,-145.5 766.5,-126.5 865.5,-126.5 865.5,-145.5"/>
<text text-anchor="middle" x="816" y="-133.5" font-family="Helvetica,sans-Serif" font-size="10.00">src/sensesp_app.h</text>
</a>
</g>
</g>
<!-- Node2&#45;&gt;Node9 -->
<g id="edge23" class="edge">
<title>Node2&#45;&gt;Node9</title>
<path fill="none" stroke="#63b8ff" d="M1105.96,-322.27C1055.16,-316.82 990.01,-305.7 936,-283 889.61,-263.5 874.16,-257.29 844,-217 827.25,-194.62 819.94,-161.39 817.28,-145.75"/>
<polygon fill="#63b8ff" stroke="#63b8ff" points="1105.43,-325.73 1115.73,-323.26 1106.13,-318.77 1105.43,-325.73"/>
</g>
<!-- Node12 -->
<g id="node12" class="node">
<title>Node12</title>
<g id="a_node12"><a xlink:href="networking_8cpp.html" target="_top" xlink:title=" ">
<polygon fill="white" stroke="#666666" points="1390.5,-79.5 1235.5,-79.5 1235.5,-60.5 1390.5,-60.5 1390.5,-79.5"/>
<text text-anchor="middle" x="1313" y="-67.5" font-family="Helvetica,sans-Serif" font-size="10.00">src/sensesp/net/networking.cpp</text>
</a>
</g>
</g>
<!-- Node2&#45;&gt;Node12 -->
<g id="edge21" class="edge">
<title>Node2&#45;&gt;Node12</title>
<path fill="none" stroke="#63b8ff" d="M1199.2,-308.32C1223.95,-256.71 1291.26,-116.34 1308.78,-79.79"/>
<polygon fill="#63b8ff" stroke="#63b8ff" points="1196.06,-306.78 1194.89,-317.31 1202.37,-309.8 1196.06,-306.78"/>
</g>
<!-- Node5 -->
<g id="node5" class="node">
<title>Node5</title>
<g id="a_node5"><a xlink:href="system__status__controller_8cpp.html" target="_top" xlink:title=" ">
<polygon fill="white" stroke="#666666" points="1161.5,-217 1014.5,-217 1014.5,-187 1161.5,-187 1161.5,-217"/>
<text text-anchor="start" x="1022.5" y="-205" font-family="Helvetica,sans-Serif" font-size="10.00">src/sensesp/controllers</text>
<text text-anchor="middle" x="1088" y="-194" font-family="Helvetica,sans-Serif" font-size="10.00">/system_status_controller.cpp</text>
</a>
</g>
</g>
<!-- Node4&#45;&gt;Node5 -->
<g id="edge4" class="edge">
<title>Node4&#45;&gt;Node5</title>
<path fill="none" stroke="#63b8ff" d="M1038.95,-245.42C1049.63,-236.18 1061.81,-225.65 1071.37,-217.39"/>
<polygon fill="#63b8ff" stroke="#63b8ff" points="1036.84,-242.62 1031.57,-251.81 1041.42,-247.91 1036.84,-242.62"/>
</g>
<!-- Node6 -->
<g id="node6" class="node">
<title>Node6</title>
<g id="a_node6"><a xlink:href="system__status__led_8h.html" target="_top" xlink:title=" ">
<polygon fill="white" stroke="#666666" points="996,-217 886,-217 886,-187 996,-187 996,-217"/>
<text text-anchor="start" x="894" y="-205" font-family="Helvetica,sans-Serif" font-size="10.00">src/sensesp/system</text>
<text text-anchor="middle" x="941" y="-194" font-family="Helvetica,sans-Serif" font-size="10.00">/system_status_led.h</text>
</a>
</g>
</g>
<!-- Node4&#45;&gt;Node6 -->
<g id="edge5" class="edge">
<title>Node4&#45;&gt;Node6</title>
<path fill="none" stroke="#63b8ff" d="M989.39,-245.42C978.85,-236.18 966.83,-225.65 957.41,-217.39"/>
<polygon fill="#63b8ff" stroke="#63b8ff" points="986.83,-247.84 996.66,-251.8 991.45,-242.57 986.83,-247.84"/>
</g>
<!-- Node4&#45;&gt;Node9 -->
<g id="edge20" class="edge">
<title>Node4&#45;&gt;Node9</title>
<path fill="none" stroke="#63b8ff" d="M941.34,-249.04C919.35,-241.43 896.01,-231 877,-217 850,-197.12 829.19,-162.06 820.47,-145.77"/>
<polygon fill="#63b8ff" stroke="#63b8ff" points="939.97,-252.27 950.56,-252.08 942.16,-245.63 939.97,-252.27"/>
</g>
<!-- Node7 -->
<g id="node7" class="node">
<title>Node7</title>
<g id="a_node7"><a xlink:href="system__status__led_8cpp.html" target="_top" xlink:title=" ">
<polygon fill="white" stroke="#666666" points="1004.5,-151 883.5,-151 883.5,-121 1004.5,-121 1004.5,-151"/>
<text text-anchor="start" x="891.5" y="-139" font-family="Helvetica,sans-Serif" font-size="10.00">src/sensesp/system</text>
<text text-anchor="middle" x="944" y="-128" font-family="Helvetica,sans-Serif" font-size="10.00">/system_status_led.cpp</text>
</a>
</g>
</g>
<!-- Node6&#45;&gt;Node7 -->
<g id="edge6" class="edge">
<title>Node6&#45;&gt;Node7</title>
<path fill="none" stroke="#63b8ff" d="M942.2,-175.39C942.59,-167.13 943,-158.28 943.34,-151.16"/>
<polygon fill="#63b8ff" stroke="#63b8ff" points="938.71,-175.13 941.74,-185.28 945.7,-175.46 938.71,-175.13"/>
</g>
<!-- Node6&#45;&gt;Node8 -->
<g id="edge7" class="edge">
<title>Node6&#45;&gt;Node8</title>
<path fill="none" stroke="#63b8ff" d="M975.31,-180.82C1024.2,-152.06 1111.88,-100.48 1146.92,-79.87"/>
<polygon fill="#63b8ff" stroke="#63b8ff" points="973.64,-177.74 966.8,-185.82 977.19,-183.77 973.64,-177.74"/>
</g>
<!-- Node6&#45;&gt;Node9 -->
<g id="edge8" class="edge">
<title>Node6&#45;&gt;Node9</title>
<path fill="none" stroke="#63b8ff" d="M902.77,-181.43C879.71,-169.62 851.42,-155.14 833.55,-145.99"/>
<polygon fill="#63b8ff" stroke="#63b8ff" points="901.1,-184.51 911.6,-185.95 904.29,-178.27 901.1,-184.51"/>
</g>
<!-- Node9&#45;&gt;Node8 -->
<g id="edge17" class="edge">
<title>Node9&#45;&gt;Node8</title>
<path fill="none" stroke="#63b8ff" d="M862.26,-123.49C866.22,-122.61 870.18,-121.77 874,-121 972.86,-101.16 998.93,-103.78 1098,-85 1106.05,-83.47 1114.63,-81.7 1122.81,-79.94"/>
<polygon fill="#63b8ff" stroke="#63b8ff" points="861.61,-120.05 852.65,-125.71 863.18,-126.87 861.61,-120.05"/>
</g>
<!-- Node10 -->
<g id="node10" class="node">
<title>Node10</title>
<g id="a_node10"><a xlink:href="debug__output_8cpp.html" target="_top" xlink:title=" ">
<polygon fill="white" stroke="#666666" points="266,-85 150,-85 150,-55 266,-55 266,-85"/>
<text text-anchor="start" x="158" y="-73" font-family="Helvetica,sans-Serif" font-size="10.00">src/sensesp/net/debug</text>
<text text-anchor="middle" x="208" y="-62" font-family="Helvetica,sans-Serif" font-size="10.00">_output.cpp</text>
</a>
</g>
</g>
<!-- Node9&#45;&gt;Node10 -->
<g id="edge9" class="edge">
<title>Node9&#45;&gt;Node10</title>
<path fill="none" stroke="#63b8ff" d="M754.73,-131.62C654.16,-125.55 447.95,-110.97 275,-85 272.18,-84.58 269.3,-84.11 266.39,-83.61"/>
<polygon fill="#63b8ff" stroke="#63b8ff" points="754.47,-135.11 764.66,-132.21 754.89,-128.12 754.47,-135.11"/>
</g>
<!-- Node11 -->
<g id="node11" class="node">
<title>Node11</title>
<g id="a_node11"><a xlink:href="discovery_8cpp.html" target="_top" xlink:title=" ">
<polygon fill="white" stroke="#666666" points="433.5,-79.5 284.5,-79.5 284.5,-60.5 433.5,-60.5 433.5,-79.5"/>
<text text-anchor="middle" x="359" y="-67.5" font-family="Helvetica,sans-Serif" font-size="10.00">src/sensesp/net/discovery.cpp</text>
</a>
</g>
</g>
<!-- Node9&#45;&gt;Node11 -->
<g id="edge10" class="edge">
<title>Node9&#45;&gt;Node11</title>
<path fill="none" stroke="#63b8ff" d="M754.76,-127.4C680.79,-118.08 552.63,-101.48 443,-85 432.77,-83.46 421.85,-81.72 411.39,-80"/>
<polygon fill="#63b8ff" stroke="#63b8ff" points="754.29,-130.87 764.65,-128.64 755.17,-123.92 754.29,-130.87"/>
</g>
<!-- Node9&#45;&gt;Node12 -->
<g id="edge11" class="edge">
<title>Node9&#45;&gt;Node12</title>
<path fill="none" stroke="#63b8ff" d="M860.8,-123.55C865.25,-122.61 869.7,-121.74 874,-121 1029.01,-94.49 1070.08,-105.5 1226,-85 1237.22,-83.52 1249.23,-81.73 1260.63,-79.93"/>
<polygon fill="#63b8ff" stroke="#63b8ff" points="860.35,-120.07 851.36,-125.68 861.88,-126.9 860.35,-120.07"/>
</g>
<!-- Node13 -->
<g id="node13" class="node">
<title>Node13</title>
<g id="a_node13"><a xlink:href="ws__client_8cpp.html" target="_top" xlink:title=" ">
<polygon fill="white" stroke="#666666" points="554,-85 452,-85 452,-55 554,-55 554,-85"/>
<text text-anchor="start" x="460" y="-73" font-family="Helvetica,sans-Serif" font-size="10.00">src/sensesp/net/ws</text>
<text text-anchor="middle" x="503" y="-62" font-family="Helvetica,sans-Serif" font-size="10.00">_client.cpp</text>
</a>
</g>
</g>
<!-- Node9&#45;&gt;Node13 -->
<g id="edge12" class="edge">
<title>Node9&#45;&gt;Node13</title>
<path fill="none" stroke="#63b8ff" d="M757.13,-123.96C705.78,-114.18 629.33,-99.29 563,-85 560.18,-84.39 557.28,-83.76 554.36,-83.11"/>
<polygon fill="#63b8ff" stroke="#63b8ff" points="756.37,-127.37 766.85,-125.8 757.68,-120.5 756.37,-127.37"/>
</g>
<!-- Node14 -->
<g id="node14" class="node">
<title>Node14</title>
<g id="a_node14"><a xlink:href="signalk__delta__queue_8cpp.html" target="_top" xlink:title=" ">
<polygon fill="white" stroke="#666666" points="699.5,-85 572.5,-85 572.5,-55 699.5,-55 699.5,-85"/>
<text text-anchor="start" x="580.5" y="-73" font-family="Helvetica,sans-Serif" font-size="10.00">src/sensesp/signalk</text>
<text text-anchor="middle" x="636" y="-62" font-family="Helvetica,sans-Serif" font-size="10.00">/signalk_delta_queue.cpp</text>
</a>
</g>
</g>
<!-- Node9&#45;&gt;Node14 -->
<g id="edge13" class="edge">
<title>Node9&#45;&gt;Node14</title>
<path fill="none" stroke="#63b8ff" d="M780.21,-122.27C750.36,-111.66 707.85,-96.55 676.72,-85.48"/>
<polygon fill="#63b8ff" stroke="#63b8ff" points="778.95,-125.54 789.55,-125.59 781.3,-118.95 778.95,-125.54"/>
</g>
<!-- Node15 -->
<g id="node15" class="node">
<title>Node15</title>
<g id="a_node15"><a xlink:href="signalk__put__request_8cpp.html" target="_top" xlink:title=" ">
<polygon fill="white" stroke="#666666" points="842.5,-85 717.5,-85 717.5,-55 842.5,-55 842.5,-85"/>
<text text-anchor="start" x="725.5" y="-73" font-family="Helvetica,sans-Serif" font-size="10.00">src/sensesp/signalk</text>
<text text-anchor="middle" x="780" y="-62" font-family="Helvetica,sans-Serif" font-size="10.00">/signalk_put_request.cpp</text>
</a>
</g>
</g>
<!-- Node9&#45;&gt;Node15 -->
<g id="edge14" class="edge">
<title>Node9&#45;&gt;Node15</title>
<path fill="none" stroke="#63b8ff" d="M805.53,-116.38C799.94,-106.44 793.17,-94.41 788.01,-85.23"/>
<polygon fill="#63b8ff" stroke="#63b8ff" points="802.3,-117.78 810.25,-124.78 808.4,-114.35 802.3,-117.78"/>
</g>
<!-- Node16 -->
<g id="node16" class="node">
<title>Node16</title>
<g id="a_node16"><a xlink:href="button_8cpp.html" target="_top" xlink:title=" ">
<polygon fill="white" stroke="#666666" points="965.5,-85 860.5,-85 860.5,-55 965.5,-55 965.5,-85"/>
<text text-anchor="start" x="868.5" y="-73" font-family="Helvetica,sans-Serif" font-size="10.00">src/sensesp/system</text>
<text text-anchor="middle" x="913" y="-62" font-family="Helvetica,sans-Serif" font-size="10.00">/button.cpp</text>
</a>
</g>
</g>
<!-- Node9&#45;&gt;Node16 -->
<g id="edge15" class="edge">
<title>Node9&#45;&gt;Node16</title>
<path fill="none" stroke="#63b8ff" d="M839.01,-119.82C854.77,-109.42 875.54,-95.72 891.06,-85.48"/>
<polygon fill="#63b8ff" stroke="#63b8ff" points="837.17,-116.84 830.75,-125.27 841.03,-122.68 837.17,-116.84"/>
</g>
<!-- Node17 -->
<g id="node17" class="node">
<title>Node17</title>
<g id="a_node17"><a xlink:href="led__blinker_8cpp.html" target="_top" xlink:title=" ">
<polygon fill="white" stroke="#666666" points="1088.5,-85 983.5,-85 983.5,-55 1088.5,-55 1088.5,-85"/>
<text text-anchor="start" x="991.5" y="-73" font-family="Helvetica,sans-Serif" font-size="10.00">src/sensesp/system</text>
<text text-anchor="middle" x="1036" y="-62" font-family="Helvetica,sans-Serif" font-size="10.00">/led_blinker.cpp</text>
</a>
</g>
</g>
<!-- Node9&#45;&gt;Node17 -->
<g id="edge16" class="edge">
<title>Node9&#45;&gt;Node17</title>
<path fill="none" stroke="#63b8ff" d="M857.36,-122.97C893.93,-112.33 947.34,-96.79 986.23,-85.48"/>
<polygon fill="#63b8ff" stroke="#63b8ff" points="856.67,-119.52 848.04,-125.68 858.62,-126.25 856.67,-119.52"/>
</g>
<!-- Node18 -->
<g id="node18" class="node">
<title>Node18</title>
<g id="a_node18"><a xlink:href="sensesp__app__builder_8h.html" target="_top" xlink:title=" ">
<polygon fill="white" stroke="#666666" points="132,-79.5 0,-79.5 0,-60.5 132,-60.5 132,-79.5"/>
<text text-anchor="middle" x="66" y="-67.5" font-family="Helvetica,sans-Serif" font-size="10.00">src/sensesp_app_builder.h</text>
</a>
</g>
</g>
<!-- Node9&#45;&gt;Node18 -->
<g id="edge18" class="edge">
<title>Node9&#45;&gt;Node18</title>
<path fill="none" stroke="#63b8ff" d="M754.92,-132.74C636.22,-127.85 366.26,-114.28 141,-85 130.75,-83.67 119.79,-81.85 109.5,-79.96"/>
<polygon fill="#63b8ff" stroke="#63b8ff" points="754.62,-136.23 764.76,-133.14 754.91,-129.24 754.62,-136.23"/>
</g>
<!-- Node18&#45;&gt;Node3 -->
<g id="edge19" class="edge">
<title>Node18&#45;&gt;Node3</title>
<path fill="none" stroke="#63b8ff" d="M120.79,-58.05C127.58,-56.91 134.44,-55.85 141,-55 353.69,-27.36 611.14,-15.45 705.27,-11.8"/>
<polygon fill="#63b8ff" stroke="#63b8ff" points="120.23,-54.59 110.99,-59.78 121.44,-61.49 120.23,-54.59"/>
</g>
</g>
</svg>
