<?xml version="1.0" encoding="UTF-8" standalone="no"?>
<!DOCTYPE svg PUBLIC "-//W3C//DTD SVG 1.1//EN"
 "http://www.w3.org/Graphics/SVG/1.1/DTD/svg11.dtd">
<!-- Generated by graphviz version 2.47.0 (20210316.0004)
 -->
<!-- Title: src/wiring_helpers.h Pages: 1 -->
<!--zoomable 554 -->
<svg id="main" version="1.1" xmlns="http://www.w3.org/2000/svg" xmlns:xlink="http://www.w3.org/1999/xlink" xml:space="preserve" onload="init(evt)">
<style type="text/css"><![CDATA[
.edge:hover path { stroke: red; }
.edge:hover polygon { stroke: red; fill: red; }
]]></style>
<script type="text/javascript"><![CDATA[
var edges = document.getElementsByTagName('g');
if (edges && edges.length) {
  for (var i=0;i<edges.length;i++) {
    if (edges[i].id.substr(0,4)=='edge') {
      edges[i].setAttribute('class','edge');
    }
  }
}
]]></script>
        <defs>
                <circle id="rim" cx="0" cy="0" r="7"/>
                <circle id="rim2" cx="0" cy="0" r="3.5"/>
                <g id="zoomPlus">
                        <use xlink:href="#rim" fill="#404040">
                                <set attributeName="fill" to="#808080" begin="zoomplus.mouseover" end="zoomplus.mouseout"/>
                        </use>
                        <path d="M-4,0h8M0,-4v8" fill="none" stroke="white" stroke-width="1.5" pointer-events="none"/>
                </g>
                <g id="zoomMin">
                        <use xlink:href="#rim" fill="#404040">
                                <set attributeName="fill" to="#808080" begin="zoomminus.mouseover" end="zoomminus.mouseout"/>
                        </use>
                        <path d="M-4,0h8" fill="none" stroke="white" stroke-width="1.5" pointer-events="none"/>
                </g>
                <g id="dirArrow">
                        <path fill="none" stroke="white" stroke-width="1.5" d="M0,-3.0v7 M-2.5,-0.5L0,-3.0L2.5,-0.5"/>
                </g>
               <g id="resetDef">
                       <use xlink:href="#rim2" fill="#404040">
                               <set attributeName="fill" to="#808080" begin="reset.mouseover" end="reset.mouseout"/>
                       </use>
               </g>
        </defs>

<script type="text/javascript">
var viewWidth = 1651;
var viewHeight = 554;
var sectionId = 'dynsection-0';
</script>
<script xlink:href="svgpan.js"/>
<svg id="graph" class="graph">
<g id="viewport">
<title>src/wiring_helpers.h</title>
<polygon fill="white" stroke="transparent" points="-4,4 -4,-550 1647,-550 1647,4 -4,4"/>
<!-- Node1 -->
<g id="node1" class="node">
<title>Node1</title>
<g id="a_node1"><a xlink:title=" ">
<polygon fill="#bfbfbf" stroke="black" points="936,-526.5 936,-545.5 1040,-545.5 1040,-526.5 936,-526.5"/>
<text text-anchor="middle" x="988" y="-533.5" font-family="Helvetica,sans-Serif" font-size="10.00">src/wiring_helpers.h</text>
</a>
</g>
</g>
<!-- Node2 -->
<g id="node2" class="node">
<title>Node2</title>
<g id="a_node2"><a xlink:href="sensesp__app_8h.html" target="_top" xlink:title=" ">
<polygon fill="white" stroke="black" points="946.5,-470.5 946.5,-489.5 1029.5,-489.5 1029.5,-470.5 946.5,-470.5"/>
<text text-anchor="middle" x="988" y="-477.5" font-family="Helvetica,sans-Serif" font-size="10.00">sensesp_app.h</text>
</a>
</g>
</g>
<!-- Node1&#45;&gt;Node2 -->
<g id="edge1" class="edge">
<title>Node1&#45;&gt;Node2</title>
<path fill="none" stroke="midnightblue" d="M988,-526.08C988,-519.01 988,-508.86 988,-499.99"/>
<polygon fill="midnightblue" stroke="midnightblue" points="991.5,-499.75 988,-489.75 984.5,-499.75 991.5,-499.75"/>
</g>
<!-- Node34 -->
<g id="node34" class="node">
<title>Node34</title>
<g id="a_node34"><a xlink:href="gps_8h.html" target="_top" xlink:title=" ">
<polygon fill="white" stroke="black" points="552,-342 552,-361 630,-361 630,-342 552,-342"/>
<text text-anchor="middle" x="591" y="-349" font-family="Helvetica,sans-Serif" font-size="10.00">sensors/gps.h</text>
</a>
</g>
</g>
<!-- Node1&#45;&gt;Node34 -->
<g id="edge67" class="edge">
<title>Node1&#45;&gt;Node34</title>
<path fill="none" stroke="midnightblue" d="M935.8,-530.94C863.73,-523.01 732.62,-499.97 644,-434 621.94,-417.58 606.49,-389.05 598.18,-370.47"/>
<polygon fill="midnightblue" stroke="midnightblue" points="601.32,-368.93 594.2,-361.09 594.88,-371.66 601.32,-368.93"/>
</g>
<!-- Node36 -->
<g id="node36" class="node">
<title>Node36</title>
<g id="a_node36"><a xlink:href="onewire__temperature_8h.html" target="_top" xlink:title=" ">
<polygon fill="white" stroke="black" points="1461.5,-342 1461.5,-361 1614.5,-361 1614.5,-342 1461.5,-342"/>
<text text-anchor="middle" x="1538" y="-349" font-family="Helvetica,sans-Serif" font-size="10.00">sensors/onewire_temperature.h</text>
</a>
</g>
</g>
<!-- Node1&#45;&gt;Node36 -->
<g id="edge73" class="edge">
<title>Node1&#45;&gt;Node36</title>
<path fill="none" stroke="midnightblue" d="M1040.11,-532.13C1128.4,-525.46 1311.02,-503.67 1447,-434 1478.75,-417.73 1508.07,-387.65 1524.44,-368.93"/>
<polygon fill="midnightblue" stroke="midnightblue" points="1527.19,-371.1 1531.02,-361.22 1521.86,-366.56 1527.19,-371.1"/>
</g>
<!-- Node3 -->
<g id="node3" class="node">
<title>Node3</title>
<g id="a_node3"><a xlink:title=" ">
<polygon fill="white" stroke="#bfbfbf" points="339.5,-56.5 339.5,-75.5 406.5,-75.5 406.5,-56.5 339.5,-56.5"/>
<text text-anchor="middle" x="373" y="-63.5" font-family="Helvetica,sans-Serif" font-size="10.00">forward_list</text>
</a>
</g>
</g>
<!-- Node2&#45;&gt;Node3 -->
<g id="edge2" class="edge">
<title>Node2&#45;&gt;Node3</title>
<path fill="none" stroke="midnightblue" d="M946.26,-477.91C762.91,-472.56 38,-445.52 38,-352.5 38,-352.5 38,-352.5 38,-177 38,-116.36 238.63,-83.7 329.36,-72.03"/>
<polygon fill="midnightblue" stroke="midnightblue" points="329.86,-75.49 339.35,-70.77 328.99,-68.55 329.86,-75.49"/>
</g>
<!-- Node4 -->
<g id="node4" class="node">
<title>Node4</title>
<g id="a_node4"><a xlink:href="system__status__controller_8h.html" target="_top" xlink:title=" ">
<polygon fill="white" stroke="black" points="808.5,-336.5 808.5,-366.5 909.5,-366.5 909.5,-336.5 808.5,-336.5"/>
<text text-anchor="start" x="816.5" y="-354.5" font-family="Helvetica,sans-Serif" font-size="10.00">controllers/system</text>
<text text-anchor="middle" x="859" y="-343.5" font-family="Helvetica,sans-Serif" font-size="10.00">_status_controller.h</text>
</a>
</g>
</g>
<!-- Node2&#45;&gt;Node4 -->
<g id="edge3" class="edge">
<title>Node2&#45;&gt;Node4</title>
<path fill="none" stroke="midnightblue" d="M946.39,-471.72C923.06,-465.53 895.26,-454.26 878,-434 864.5,-418.16 860.16,-394.52 858.95,-376.78"/>
<polygon fill="midnightblue" stroke="midnightblue" points="862.44,-376.47 858.56,-366.61 855.45,-376.74 862.44,-376.47"/>
</g>
<!-- Node5 -->
<g id="node5" class="node">
<title>Node5</title>
<g id="a_node5"><a xlink:href="networking_8h.html" target="_top" xlink:title=" ">
<polygon fill="white" stroke="black" points="686.5,-280.5 686.5,-299.5 775.5,-299.5 775.5,-280.5 686.5,-280.5"/>
<text text-anchor="middle" x="731" y="-287.5" font-family="Helvetica,sans-Serif" font-size="10.00">net/networking.h</text>
</a>
</g>
</g>
<!-- Node2&#45;&gt;Node5 -->
<g id="edge42" class="edge">
<title>Node2&#45;&gt;Node5</title>
<path fill="none" stroke="midnightblue" d="M948.47,-470.5C921.92,-463.54 887,-451.89 860,-434 807.44,-399.17 762.31,-338.05 742.19,-308.28"/>
<polygon fill="midnightblue" stroke="midnightblue" points="745,-306.19 736.56,-299.79 739.17,-310.06 745,-306.19"/>
</g>
<!-- Node12 -->
<g id="node12" class="node">
<title>Node12</title>
<g id="a_node12"><a xlink:href="observablevalue_8h.html" target="_top" xlink:title=" ">
<polygon fill="white" stroke="black" points="502.5,-224.5 502.5,-243.5 633.5,-243.5 633.5,-224.5 502.5,-224.5"/>
<text text-anchor="middle" x="568" y="-231.5" font-family="Helvetica,sans-Serif" font-size="10.00">system/observablevalue.h</text>
</a>
</g>
</g>
<!-- Node2&#45;&gt;Node12 -->
<g id="edge55" class="edge">
<title>Node2&#45;&gt;Node12</title>
<path fill="none" stroke="midnightblue" d="M946.45,-472.94C910.94,-466.63 859.19,-454.69 818,-434 717.99,-383.76 620.35,-289.12 583.45,-251.26"/>
<polygon fill="midnightblue" stroke="midnightblue" points="585.61,-248.45 576.15,-243.69 580.57,-253.31 585.61,-248.45"/>
</g>
<!-- Node16 -->
<g id="node16" class="node">
<title>Node16</title>
<g id="a_node16"><a xlink:href="valueproducer_8h.html" target="_top" xlink:title=" ">
<polygon fill="white" stroke="black" points="988.5,-168.5 988.5,-187.5 1073.5,-187.5 1073.5,-168.5 988.5,-168.5"/>
<text text-anchor="middle" x="1031" y="-175.5" font-family="Helvetica,sans-Serif" font-size="10.00">valueproducer.h</text>
</a>
</g>
</g>
<!-- Node2&#45;&gt;Node16 -->
<g id="edge66" class="edge">
<title>Node2&#45;&gt;Node16</title>
<path fill="none" stroke="midnightblue" d="M998.59,-470.41C1020.55,-451.57 1069,-404.13 1069,-352.5 1069,-352.5 1069,-352.5 1069,-289 1069,-254.81 1052.4,-217.76 1041.14,-196.57"/>
<polygon fill="midnightblue" stroke="midnightblue" points="1044.18,-194.83 1036.28,-187.77 1038.05,-198.22 1044.18,-194.83"/>
</g>
<!-- Node17 -->
<g id="node17" class="node">
<title>Node17</title>
<g id="a_node17"><a xlink:href="valueconsumer_8h.html" target="_top" xlink:title=" ">
<polygon fill="white" stroke="black" points="1344,-112.5 1344,-131.5 1434,-131.5 1434,-112.5 1344,-112.5"/>
<text text-anchor="middle" x="1389" y="-119.5" font-family="Helvetica,sans-Serif" font-size="10.00">valueconsumer.h</text>
</a>
</g>
</g>
<!-- Node2&#45;&gt;Node17 -->
<g id="edge65" class="edge">
<title>Node2&#45;&gt;Node17</title>
<path fill="none" stroke="midnightblue" d="M1029.56,-474.14C1125.53,-461.97 1357.88,-426.83 1404,-367 1456.66,-298.68 1416.25,-185.05 1397.36,-141.11"/>
<polygon fill="midnightblue" stroke="midnightblue" points="1400.45,-139.45 1393.19,-131.73 1394.05,-142.29 1400.45,-139.45"/>
</g>
<!-- Node19 -->
<g id="node19" class="node">
<title>Node19</title>
<g id="a_node19"><a xlink:href="sensesp_8h.html" target="_top" xlink:title=" ">
<polygon fill="white" stroke="black" points="1434,-56.5 1434,-75.5 1496,-75.5 1496,-56.5 1434,-56.5"/>
<text text-anchor="middle" x="1465" y="-63.5" font-family="Helvetica,sans-Serif" font-size="10.00">sensesp.h</text>
</a>
</g>
</g>
<!-- Node2&#45;&gt;Node19 -->
<g id="edge44" class="edge">
<title>Node2&#45;&gt;Node19</title>
<path fill="none" stroke="midnightblue" d="M1029.97,-475.37C1174.53,-462.32 1643,-415.19 1643,-352.5 1643,-352.5 1643,-352.5 1643,-177 1643,-112.97 1558.63,-84.97 1506.06,-73.73"/>
<polygon fill="midnightblue" stroke="midnightblue" points="1506.5,-70.25 1496.01,-71.7 1505.12,-77.11 1506.5,-70.25"/>
</g>
<!-- Node22 -->
<g id="node22" class="node">
<title>Node22</title>
<g id="a_node22"><a xlink:href="ws__client_8h.html" target="_top" xlink:title=" ">
<polygon fill="white" stroke="black" points="921.5,-280.5 921.5,-299.5 1004.5,-299.5 1004.5,-280.5 921.5,-280.5"/>
<text text-anchor="middle" x="963" y="-287.5" font-family="Helvetica,sans-Serif" font-size="10.00">net/ws_client.h</text>
</a>
</g>
</g>
<!-- Node2&#45;&gt;Node22 -->
<g id="edge43" class="edge">
<title>Node2&#45;&gt;Node22</title>
<path fill="none" stroke="midnightblue" d="M994.37,-470.23C1000.26,-461.53 1008.61,-447.57 1012,-434 1017.07,-413.73 1010.29,-343.29 1007,-336 1001.76,-324.41 992.2,-314.06 983.32,-306.22"/>
<polygon fill="midnightblue" stroke="midnightblue" points="985.44,-303.43 975.5,-299.75 980.98,-308.82 985.44,-303.43"/>
</g>
<!-- Node25 -->
<g id="node25" class="node">
<title>Node25</title>
<g id="a_node25"><a xlink:href="signalk__delta_8h.html" target="_top" xlink:title=" ">
<polygon fill="white" stroke="black" points="1173,-224.5 1173,-243.5 1289,-243.5 1289,-224.5 1173,-224.5"/>
<text text-anchor="middle" x="1231" y="-231.5" font-family="Helvetica,sans-Serif" font-size="10.00">signalk/signalk_delta.h</text>
</a>
</g>
</g>
<!-- Node2&#45;&gt;Node25 -->
<g id="edge54" class="edge">
<title>Node2&#45;&gt;Node25</title>
<path fill="none" stroke="midnightblue" d="M1028.38,-470.49C1053.26,-463.73 1084.74,-452.3 1108,-434 1171.32,-384.19 1210.36,-292.1 1224.73,-253.15"/>
<polygon fill="midnightblue" stroke="midnightblue" points="1228.05,-254.25 1228.13,-243.65 1221.46,-251.89 1228.05,-254.25"/>
</g>
<!-- Node27 -->
<g id="node27" class="node">
<title>Node27</title>
<g id="a_node27"><a xlink:href="http_8h.html" target="_top" xlink:title=" ">
<polygon fill="white" stroke="black" points="211,-280.5 211,-299.5 269,-299.5 269,-280.5 211,-280.5"/>
<text text-anchor="middle" x="240" y="-287.5" font-family="Helvetica,sans-Serif" font-size="10.00">net/http.h</text>
</a>
</g>
</g>
<!-- Node2&#45;&gt;Node27 -->
<g id="edge39" class="edge">
<title>Node2&#45;&gt;Node27</title>
<path fill="none" stroke="midnightblue" d="M946.45,-476.39C881.27,-471.67 751.34,-459.71 644,-434 499.47,-399.38 334.53,-331.72 269.01,-303.66"/>
<polygon fill="midnightblue" stroke="midnightblue" points="270.3,-300.41 259.73,-299.67 267.53,-306.84 270.3,-300.41"/>
</g>
<!-- Node28 -->
<g id="node28" class="node">
<title>Node28</title>
<g id="a_node28"><a xlink:href="sensor_8h.html" target="_top" xlink:title=" ">
<polygon fill="white" stroke="black" points="1098.5,-280.5 1098.5,-299.5 1189.5,-299.5 1189.5,-280.5 1098.5,-280.5"/>
<text text-anchor="middle" x="1144" y="-287.5" font-family="Helvetica,sans-Serif" font-size="10.00">sensors/sensor.h</text>
</a>
</g>
</g>
<!-- Node2&#45;&gt;Node28 -->
<g id="edge45" class="edge">
<title>Node2&#45;&gt;Node28</title>
<path fill="none" stroke="midnightblue" d="M1019.71,-470.4C1040.06,-463.47 1065.8,-451.89 1083,-434 1117.67,-397.94 1134.11,-339.15 1140.55,-309.44"/>
<polygon fill="midnightblue" stroke="midnightblue" points="1143.99,-310.07 1142.54,-299.58 1137.13,-308.69 1143.99,-310.07"/>
</g>
<!-- Node31 -->
<g id="node31" class="node">
<title>Node31</title>
<g id="a_node31"><a xlink:href="system__status__led_8h.html" target="_top" xlink:title=" ">
<polygon fill="white" stroke="black" points="887,-403.5 887,-433.5 1003,-433.5 1003,-403.5 887,-403.5"/>
<text text-anchor="start" x="895" y="-421.5" font-family="Helvetica,sans-Serif" font-size="10.00">system/system_status</text>
<text text-anchor="middle" x="945" y="-410.5" font-family="Helvetica,sans-Serif" font-size="10.00">_led.h</text>
</a>
</g>
</g>
<!-- Node2&#45;&gt;Node31 -->
<g id="edge56" class="edge">
<title>Node2&#45;&gt;Node31</title>
<path fill="none" stroke="midnightblue" d="M981.84,-470.48C976.45,-463.02 968.38,-451.85 961.17,-441.87"/>
<polygon fill="midnightblue" stroke="midnightblue" points="963.83,-439.58 955.13,-433.52 958.15,-443.68 963.83,-439.58"/>
</g>
<!-- Node4&#45;&gt;Node5 -->
<g id="edge4" class="edge">
<title>Node4&#45;&gt;Node5</title>
<path fill="none" stroke="midnightblue" d="M828.67,-336.4C807.48,-326.55 779.41,-313.5 758.8,-303.92"/>
<polygon fill="midnightblue" stroke="midnightblue" points="760.17,-300.7 749.63,-299.66 757.22,-307.05 760.17,-300.7"/>
</g>
<!-- Node4&#45;&gt;Node16 -->
<g id="edge38" class="edge">
<title>Node4&#45;&gt;Node16</title>
<path fill="none" stroke="midnightblue" d="M858.01,-336.29C857.03,-310.47 858.8,-255.62 888,-224 911.08,-199.01 947.88,-187.8 978.36,-182.83"/>
<polygon fill="midnightblue" stroke="midnightblue" points="979.04,-186.26 988.43,-181.36 978.03,-179.34 979.04,-186.26"/>
</g>
<!-- Node4&#45;&gt;Node22 -->
<g id="edge27" class="edge">
<title>Node4&#45;&gt;Node22</title>
<path fill="none" stroke="midnightblue" d="M883.65,-336.4C900.32,-326.86 922.23,-314.32 938.81,-304.84"/>
<polygon fill="midnightblue" stroke="midnightblue" points="940.93,-307.66 947.87,-299.66 937.45,-301.59 940.93,-307.66"/>
</g>
<!-- Node6 -->
<g id="node6" class="node">
<title>Node6</title>
<g id="a_node6"><a xlink:title=" ">
<polygon fill="white" stroke="#bfbfbf" points="445,-168.5 445,-187.5 503,-187.5 503,-168.5 445,-168.5"/>
<text text-anchor="middle" x="474" y="-175.5" font-family="Helvetica,sans-Serif" font-size="10.00">Arduino.h</text>
</a>
</g>
</g>
<!-- Node5&#45;&gt;Node6 -->
<g id="edge5" class="edge">
<title>Node5&#45;&gt;Node6</title>
<path fill="none" stroke="midnightblue" d="M686.41,-286.06C625.54,-281.14 520.8,-269.21 493,-244 480.09,-232.29 475.76,-212.35 474.4,-197.64"/>
<polygon fill="midnightblue" stroke="midnightblue" points="477.9,-197.42 473.85,-187.63 470.91,-197.8 477.9,-197.42"/>
</g>
<!-- Node7 -->
<g id="node7" class="node">
<title>Node7</title>
<g id="a_node7"><a xlink:title=" ">
<polygon fill="white" stroke="#bfbfbf" points="180.5,-224.5 180.5,-243.5 299.5,-243.5 299.5,-224.5 180.5,-224.5"/>
<text text-anchor="middle" x="240" y="-231.5" font-family="Helvetica,sans-Serif" font-size="10.00">ESPAsyncWebServer.h</text>
</a>
</g>
</g>
<!-- Node5&#45;&gt;Node7 -->
<g id="edge6" class="edge">
<title>Node5&#45;&gt;Node7</title>
<path fill="none" stroke="midnightblue" d="M686.3,-284.58C611.04,-277.07 453.96,-261.05 310.16,-244.11"/>
<polygon fill="midnightblue" stroke="midnightblue" points="310.17,-240.59 299.83,-242.89 309.35,-247.54 310.17,-240.59"/>
</g>
<!-- Node8 -->
<g id="node8" class="node">
<title>Node8</title>
<g id="a_node8"><a xlink:title=" ">
<polygon fill="white" stroke="#bfbfbf" points="318,-224.5 318,-243.5 446,-243.5 446,-224.5 318,-224.5"/>
<text text-anchor="middle" x="382" y="-231.5" font-family="Helvetica,sans-Serif" font-size="10.00">ESPAsyncWiFiManager.h</text>
</a>
</g>
</g>
<!-- Node5&#45;&gt;Node8 -->
<g id="edge7" class="edge">
<title>Node5&#45;&gt;Node8</title>
<path fill="none" stroke="midnightblue" d="M686.44,-282.11C625.84,-272.73 517,-255.89 447.21,-245.09"/>
<polygon fill="midnightblue" stroke="midnightblue" points="447.62,-241.61 437.21,-243.54 446.55,-248.53 447.62,-241.61"/>
</g>
<!-- Node9 -->
<g id="node9" class="node">
<title>Node9</title>
<g id="a_node9"><a xlink:href="configurable_8h.html" target="_top" xlink:title=" ">
<polygon fill="white" stroke="black" points="651.5,-224.5 651.5,-243.5 764.5,-243.5 764.5,-224.5 651.5,-224.5"/>
<text text-anchor="middle" x="708" y="-231.5" font-family="Helvetica,sans-Serif" font-size="10.00">system/configurable.h</text>
</a>
</g>
</g>
<!-- Node5&#45;&gt;Node9 -->
<g id="edge8" class="edge">
<title>Node5&#45;&gt;Node9</title>
<path fill="none" stroke="midnightblue" d="M727.2,-280.08C724.09,-272.77 719.58,-262.18 715.71,-253.1"/>
<polygon fill="midnightblue" stroke="midnightblue" points="718.87,-251.58 711.73,-243.75 712.43,-254.32 718.87,-251.58"/>
</g>
<!-- Node5&#45;&gt;Node12 -->
<g id="edge12" class="edge">
<title>Node5&#45;&gt;Node12</title>
<path fill="none" stroke="midnightblue" d="M705.17,-280.44C677.75,-271.36 634.22,-256.94 603.57,-246.78"/>
<polygon fill="midnightblue" stroke="midnightblue" points="604.3,-243.34 593.71,-243.52 602.1,-249.98 604.3,-243.34"/>
</g>
<!-- Node5&#45;&gt;Node16 -->
<g id="edge26" class="edge">
<title>Node5&#45;&gt;Node16</title>
<path fill="none" stroke="midnightblue" d="M744.64,-280.49C766.96,-266.88 813.02,-240.12 855,-224 895.2,-208.57 942.58,-196.8 978.04,-189.17"/>
<polygon fill="midnightblue" stroke="midnightblue" points="979.12,-192.52 988.18,-187.04 977.67,-185.67 979.12,-192.52"/>
</g>
<!-- Node9&#45;&gt;Node6 -->
<g id="edge11" class="edge">
<title>Node9&#45;&gt;Node6</title>
<path fill="none" stroke="midnightblue" d="M670.92,-224.44C627.76,-214.48 556.81,-198.11 512.89,-187.97"/>
<polygon fill="midnightblue" stroke="midnightblue" points="513.67,-184.56 503.14,-185.73 512.1,-191.38 513.67,-184.56"/>
</g>
<!-- Node10 -->
<g id="node10" class="node">
<title>Node10</title>
<g id="a_node10"><a xlink:title=" ">
<polygon fill="white" stroke="#bfbfbf" points="1068.5,-56.5 1068.5,-75.5 1147.5,-75.5 1147.5,-56.5 1068.5,-56.5"/>
<text text-anchor="middle" x="1108" y="-63.5" font-family="Helvetica,sans-Serif" font-size="10.00">ArduinoJson.h</text>
</a>
</g>
</g>
<!-- Node9&#45;&gt;Node10 -->
<g id="edge9" class="edge">
<title>Node9&#45;&gt;Node10</title>
<path fill="none" stroke="midnightblue" d="M728.66,-224.42C794.5,-197.1 999.56,-112 1077.51,-79.65"/>
<polygon fill="midnightblue" stroke="midnightblue" points="1079.33,-82.69 1087.22,-75.62 1076.64,-76.22 1079.33,-82.69"/>
</g>
<!-- Node11 -->
<g id="node11" class="node">
<title>Node11</title>
<g id="a_node11"><a xlink:title=" ">
<polygon fill="white" stroke="#bfbfbf" points="248.5,-168.5 248.5,-187.5 283.5,-187.5 283.5,-168.5 248.5,-168.5"/>
<text text-anchor="middle" x="266" y="-175.5" font-family="Helvetica,sans-Serif" font-size="10.00">map</text>
</a>
</g>
</g>
<!-- Node9&#45;&gt;Node11 -->
<g id="edge10" class="edge">
<title>Node9&#45;&gt;Node11</title>
<path fill="none" stroke="midnightblue" d="M651.48,-225.23C648.28,-224.81 645.1,-224.4 642,-224 511.89,-207.34 356.2,-189.32 293.83,-182.17"/>
<polygon fill="midnightblue" stroke="midnightblue" points="293.96,-178.67 283.63,-181.01 293.17,-185.62 293.96,-178.67"/>
</g>
<!-- Node13 -->
<g id="node13" class="node">
<title>Node13</title>
<g id="a_node13"><a xlink:href="observable_8h.html" target="_top" xlink:title=" ">
<polygon fill="white" stroke="black" points="746,-112.5 746,-131.5 818,-131.5 818,-112.5 746,-112.5"/>
<text text-anchor="middle" x="782" y="-119.5" font-family="Helvetica,sans-Serif" font-size="10.00">observable.h</text>
</a>
</g>
</g>
<!-- Node12&#45;&gt;Node13 -->
<g id="edge13" class="edge">
<title>Node12&#45;&gt;Node13</title>
<path fill="none" stroke="midnightblue" d="M584.79,-224.37C622.06,-205.21 711.89,-159.04 756.29,-136.22"/>
<polygon fill="midnightblue" stroke="midnightblue" points="757.99,-139.28 765.29,-131.59 754.79,-133.05 757.99,-139.28"/>
</g>
<!-- Node12&#45;&gt;Node16 -->
<g id="edge17" class="edge">
<title>Node12&#45;&gt;Node16</title>
<path fill="none" stroke="midnightblue" d="M633.77,-224.98C636.55,-224.65 639.3,-224.32 642,-224 762.25,-209.73 903.49,-193.53 978.29,-185"/>
<polygon fill="midnightblue" stroke="midnightblue" points="978.86,-188.46 988.39,-183.85 978.06,-181.5 978.86,-188.46"/>
</g>
<!-- Node13&#45;&gt;Node3 -->
<g id="edge14" class="edge">
<title>Node13&#45;&gt;Node3</title>
<path fill="none" stroke="midnightblue" d="M745.7,-116.21C670.58,-106.29 498.3,-83.54 417,-72.81"/>
<polygon fill="midnightblue" stroke="midnightblue" points="416.99,-69.28 406.62,-71.44 416.07,-76.22 416.99,-69.28"/>
</g>
<!-- Node14 -->
<g id="node14" class="node">
<title>Node14</title>
<g id="a_node14"><a xlink:title=" ">
<polygon fill="white" stroke="#bfbfbf" points="685.5,-56.5 685.5,-75.5 744.5,-75.5 744.5,-56.5 685.5,-56.5"/>
<text text-anchor="middle" x="715" y="-63.5" font-family="Helvetica,sans-Serif" font-size="10.00">functional</text>
</a>
</g>
</g>
<!-- Node13&#45;&gt;Node14 -->
<g id="edge15" class="edge">
<title>Node13&#45;&gt;Node14</title>
<path fill="none" stroke="midnightblue" d="M771.24,-112.32C761.23,-104.26 746.11,-92.08 734.07,-82.37"/>
<polygon fill="midnightblue" stroke="midnightblue" points="735.94,-79.38 725.96,-75.83 731.55,-84.83 735.94,-79.38"/>
</g>
<!-- Node15 -->
<g id="node15" class="node">
<title>Node15</title>
<g id="a_node15"><a xlink:title=" ">
<polygon fill="white" stroke="#bfbfbf" points="763,-56.5 763,-75.5 807,-75.5 807,-56.5 763,-56.5"/>
<text text-anchor="middle" x="785" y="-63.5" font-family="Helvetica,sans-Serif" font-size="10.00">vector</text>
</a>
</g>
</g>
<!-- Node13&#45;&gt;Node15 -->
<g id="edge16" class="edge">
<title>Node13&#45;&gt;Node15</title>
<path fill="none" stroke="midnightblue" d="M782.5,-112.08C782.89,-105.01 783.45,-94.86 783.95,-85.99"/>
<polygon fill="midnightblue" stroke="midnightblue" points="787.45,-85.93 784.51,-75.75 780.46,-85.54 787.45,-85.93"/>
</g>
<!-- Node16&#45;&gt;Node10 -->
<g id="edge18" class="edge">
<title>Node16&#45;&gt;Node10</title>
<path fill="none" stroke="midnightblue" d="M1037.04,-168.37C1049.75,-150.22 1079.44,-107.8 1096.11,-83.99"/>
<polygon fill="midnightblue" stroke="midnightblue" points="1099.12,-85.79 1101.99,-75.59 1093.38,-81.78 1099.12,-85.79"/>
</g>
<!-- Node16&#45;&gt;Node13 -->
<g id="edge19" class="edge">
<title>Node16&#45;&gt;Node13</title>
<path fill="none" stroke="midnightblue" d="M991.55,-168.44C947.09,-158.8 874.91,-143.15 827.95,-132.96"/>
<polygon fill="midnightblue" stroke="midnightblue" points="828.55,-129.51 818.04,-130.82 827.07,-136.36 828.55,-129.51"/>
</g>
<!-- Node16&#45;&gt;Node17 -->
<g id="edge20" class="edge">
<title>Node16&#45;&gt;Node17</title>
<path fill="none" stroke="midnightblue" d="M1073.83,-170.54C1138.75,-160.75 1262.07,-142.15 1333.69,-131.34"/>
<polygon fill="midnightblue" stroke="midnightblue" points="1334.51,-134.76 1343.87,-129.81 1333.46,-127.84 1334.51,-134.76"/>
</g>
<!-- Node17&#45;&gt;Node10 -->
<g id="edge21" class="edge">
<title>Node17&#45;&gt;Node10</title>
<path fill="none" stroke="midnightblue" d="M1344.47,-112.44C1293.59,-102.66 1210.53,-86.7 1157.61,-76.53"/>
<polygon fill="midnightblue" stroke="midnightblue" points="1158.25,-73.09 1147.77,-74.64 1156.93,-79.97 1158.25,-73.09"/>
</g>
<!-- Node18 -->
<g id="node18" class="node">
<title>Node18</title>
<g id="a_node18"><a xlink:title=" ">
<polygon fill="white" stroke="#bfbfbf" points="1365.5,-56.5 1365.5,-75.5 1414.5,-75.5 1414.5,-56.5 1365.5,-56.5"/>
<text text-anchor="middle" x="1390" y="-63.5" font-family="Helvetica,sans-Serif" font-size="10.00">stdint.h</text>
</a>
</g>
</g>
<!-- Node17&#45;&gt;Node18 -->
<g id="edge22" class="edge">
<title>Node17&#45;&gt;Node18</title>
<path fill="none" stroke="midnightblue" d="M1389.17,-112.08C1389.3,-105.01 1389.48,-94.86 1389.65,-85.99"/>
<polygon fill="midnightblue" stroke="midnightblue" points="1393.15,-85.81 1389.84,-75.75 1386.15,-85.68 1393.15,-85.81"/>
</g>
<!-- Node17&#45;&gt;Node19 -->
<g id="edge23" class="edge">
<title>Node17&#45;&gt;Node19</title>
<path fill="none" stroke="midnightblue" d="M1401.21,-112.32C1412.78,-104.11 1430.38,-91.6 1444.16,-81.81"/>
<polygon fill="midnightblue" stroke="midnightblue" points="1446.44,-84.48 1452.57,-75.83 1442.39,-78.77 1446.44,-84.48"/>
</g>
<!-- Node20 -->
<g id="node20" class="node">
<title>Node20</title>
<g id="a_node20"><a xlink:title=" ">
<polygon fill="white" stroke="#bfbfbf" points="650,-0.5 650,-19.5 720,-19.5 720,-0.5 650,-0.5"/>
<text text-anchor="middle" x="685" y="-7.5" font-family="Helvetica,sans-Serif" font-size="10.00">ReactESP.h</text>
</a>
</g>
</g>
<!-- Node19&#45;&gt;Node20 -->
<g id="edge24" class="edge">
<title>Node19&#45;&gt;Node20</title>
<path fill="none" stroke="midnightblue" d="M1433.75,-57.62C1430.47,-57 1427.18,-56.44 1424,-56 1163.21,-19.66 846.58,-12.66 730.48,-11.32"/>
<polygon fill="midnightblue" stroke="midnightblue" points="730.23,-7.82 720.2,-11.21 730.16,-14.82 730.23,-7.82"/>
</g>
<!-- Node21 -->
<g id="node21" class="node">
<title>Node21</title>
<g id="a_node21"><a xlink:title=" ">
<polygon fill="white" stroke="#bfbfbf" points="1421,-0.5 1421,-19.5 1509,-19.5 1509,-0.5 1421,-0.5"/>
<text text-anchor="middle" x="1465" y="-7.5" font-family="Helvetica,sans-Serif" font-size="10.00">RemoteDebug.h</text>
</a>
</g>
</g>
<!-- Node19&#45;&gt;Node21 -->
<g id="edge25" class="edge">
<title>Node19&#45;&gt;Node21</title>
<path fill="none" stroke="midnightblue" d="M1465,-56.08C1465,-49.01 1465,-38.86 1465,-29.99"/>
<polygon fill="midnightblue" stroke="midnightblue" points="1468.5,-29.75 1465,-19.75 1461.5,-29.75 1468.5,-29.75"/>
</g>
<!-- Node22&#45;&gt;Node9 -->
<g id="edge35" class="edge">
<title>Node22&#45;&gt;Node9</title>
<path fill="none" stroke="midnightblue" d="M922.59,-280.44C878.02,-271 806.23,-255.8 758.11,-245.61"/>
<polygon fill="midnightblue" stroke="midnightblue" points="758.72,-242.16 748.22,-243.52 757.27,-249.01 758.72,-242.16"/>
</g>
<!-- Node22&#45;&gt;Node12 -->
<g id="edge36" class="edge">
<title>Node22&#45;&gt;Node12</title>
<path fill="none" stroke="midnightblue" d="M921.47,-283.32C854.73,-274.2 722.75,-256.16 640.3,-244.88"/>
<polygon fill="midnightblue" stroke="midnightblue" points="640.63,-241.4 630.25,-243.51 639.68,-248.33 640.63,-241.4"/>
</g>
<!-- Node22&#45;&gt;Node14 -->
<g id="edge29" class="edge">
<title>Node22&#45;&gt;Node14</title>
<path fill="none" stroke="midnightblue" d="M942.37,-280.4C897.96,-260.83 792.83,-208.66 737,-132 726.93,-118.17 721.23,-99.4 718.17,-85.59"/>
<polygon fill="midnightblue" stroke="midnightblue" points="721.61,-84.9 716.25,-75.76 714.74,-86.25 721.61,-84.9"/>
</g>
<!-- Node22&#45;&gt;Node16 -->
<g id="edge37" class="edge">
<title>Node22&#45;&gt;Node16</title>
<path fill="none" stroke="midnightblue" d="M975.67,-280.46C986.79,-272.32 1002.61,-259.11 1012,-244 1020.83,-229.8 1025.71,-211.32 1028.31,-197.7"/>
<polygon fill="midnightblue" stroke="midnightblue" points="1031.8,-198.04 1029.99,-187.6 1024.89,-196.89 1031.8,-198.04"/>
</g>
<!-- Node22&#45;&gt;Node19 -->
<g id="edge31" class="edge">
<title>Node22&#45;&gt;Node19</title>
<path fill="none" stroke="midnightblue" d="M1004.69,-286.11C1082.3,-280.28 1245.81,-265.79 1298,-244 1335.57,-228.31 1419.35,-165.14 1443,-132 1452.84,-118.21 1458.54,-99.69 1461.66,-85.94"/>
<polygon fill="midnightblue" stroke="midnightblue" points="1465.17,-86.22 1463.7,-75.73 1458.31,-84.85 1465.17,-86.22"/>
</g>
<!-- Node23 -->
<g id="node23" class="node">
<title>Node23</title>
<g id="a_node23"><a xlink:title=" ">
<polygon fill="white" stroke="#bfbfbf" points="897,-224.5 897,-243.5 1003,-243.5 1003,-224.5 897,-224.5"/>
<text text-anchor="middle" x="950" y="-231.5" font-family="Helvetica,sans-Serif" font-size="10.00">WebSocketsClient.h</text>
</a>
</g>
</g>
<!-- Node22&#45;&gt;Node23 -->
<g id="edge28" class="edge">
<title>Node22&#45;&gt;Node23</title>
<path fill="none" stroke="midnightblue" d="M960.85,-280.08C959.13,-272.93 956.65,-262.64 954.5,-253.69"/>
<polygon fill="midnightblue" stroke="midnightblue" points="957.85,-252.65 952.11,-243.75 951.04,-254.29 957.85,-252.65"/>
</g>
<!-- Node24 -->
<g id="node24" class="node">
<title>Node24</title>
<g id="a_node24"><a xlink:title=" ">
<polygon fill="white" stroke="#bfbfbf" points="1345,-224.5 1345,-243.5 1375,-243.5 1375,-224.5 1345,-224.5"/>
<text text-anchor="middle" x="1360" y="-231.5" font-family="Helvetica,sans-Serif" font-size="10.00">set</text>
</a>
</g>
</g>
<!-- Node22&#45;&gt;Node24 -->
<g id="edge30" class="edge">
<title>Node22&#45;&gt;Node24</title>
<path fill="none" stroke="midnightblue" d="M1004.52,-286.36C1073.1,-281.45 1214.1,-269.07 1331,-244 1332.28,-243.73 1333.58,-243.42 1334.88,-243.09"/>
<polygon fill="midnightblue" stroke="midnightblue" points="1336.12,-246.38 1344.78,-240.28 1334.21,-239.65 1336.12,-246.38"/>
</g>
<!-- Node22&#45;&gt;Node25 -->
<g id="edge32" class="edge">
<title>Node22&#45;&gt;Node25</title>
<path fill="none" stroke="midnightblue" d="M1004.58,-280.62C1051.44,-271.18 1127.71,-255.81 1178.61,-245.56"/>
<polygon fill="midnightblue" stroke="midnightblue" points="1179.32,-248.98 1188.44,-243.58 1177.94,-242.12 1179.32,-248.98"/>
</g>
<!-- Node25&#45;&gt;Node10 -->
<g id="edge34" class="edge">
<title>Node25&#45;&gt;Node10</title>
<path fill="none" stroke="midnightblue" d="M1224.39,-224.08C1204.69,-197.49 1146.19,-118.54 1120.42,-83.76"/>
<polygon fill="midnightblue" stroke="midnightblue" points="1123.11,-81.52 1114.35,-75.57 1117.49,-85.69 1123.11,-81.52"/>
</g>
<!-- Node26 -->
<g id="node26" class="node">
<title>Node26</title>
<g id="a_node26"><a xlink:title=" ">
<polygon fill="white" stroke="#bfbfbf" points="1216.5,-168.5 1216.5,-187.5 1245.5,-187.5 1245.5,-168.5 1216.5,-168.5"/>
<text text-anchor="middle" x="1231" y="-175.5" font-family="Helvetica,sans-Serif" font-size="10.00">list</text>
</a>
</g>
</g>
<!-- Node25&#45;&gt;Node26 -->
<g id="edge33" class="edge">
<title>Node25&#45;&gt;Node26</title>
<path fill="none" stroke="midnightblue" d="M1231,-224.08C1231,-217.01 1231,-206.86 1231,-197.99"/>
<polygon fill="midnightblue" stroke="midnightblue" points="1234.5,-197.75 1231,-187.75 1227.5,-197.75 1234.5,-197.75"/>
</g>
<!-- Node27&#45;&gt;Node7 -->
<g id="edge40" class="edge">
<title>Node27&#45;&gt;Node7</title>
<path fill="none" stroke="midnightblue" d="M240,-280.08C240,-273.01 240,-262.86 240,-253.99"/>
<polygon fill="midnightblue" stroke="midnightblue" points="243.5,-253.75 240,-243.75 236.5,-253.75 243.5,-253.75"/>
</g>
<!-- Node27&#45;&gt;Node14 -->
<g id="edge41" class="edge">
<title>Node27&#45;&gt;Node14</title>
<path fill="none" stroke="midnightblue" d="M210.94,-280.96C180.54,-270.91 139.13,-251.6 154,-224 204.81,-129.68 555.73,-83.95 675.24,-70.98"/>
<polygon fill="midnightblue" stroke="midnightblue" points="675.84,-74.44 685.42,-69.9 675.1,-67.48 675.84,-74.44"/>
</g>
<!-- Node28&#45;&gt;Node9 -->
<g id="edge47" class="edge">
<title>Node28&#45;&gt;Node9</title>
<path fill="none" stroke="midnightblue" d="M1098.16,-283.32C1020.9,-273.75 864.43,-254.37 774.89,-243.28"/>
<polygon fill="midnightblue" stroke="midnightblue" points="775.2,-239.8 764.85,-242.04 774.34,-246.74 775.2,-239.8"/>
</g>
<!-- Node28&#45;&gt;Node13 -->
<g id="edge48" class="edge">
<title>Node28&#45;&gt;Node13</title>
<path fill="none" stroke="midnightblue" d="M1142.35,-280.2C1137.57,-257.43 1121.49,-196.37 1082,-168 1042.31,-139.48 902.45,-128.66 828.55,-124.87"/>
<polygon fill="midnightblue" stroke="midnightblue" points="828.31,-121.35 818.15,-124.36 827.97,-128.34 828.31,-121.35"/>
</g>
<!-- Node28&#45;&gt;Node16 -->
<g id="edge49" class="edge">
<title>Node28&#45;&gt;Node16</title>
<path fill="none" stroke="midnightblue" d="M1136.38,-280.32C1125.09,-267.59 1103.09,-243.3 1083,-224 1072.24,-213.66 1059.59,-202.69 1049.46,-194.17"/>
<polygon fill="midnightblue" stroke="midnightblue" points="1051.56,-191.37 1041.64,-187.66 1047.08,-196.75 1051.56,-191.37"/>
</g>
<!-- Node28&#45;&gt;Node24 -->
<g id="edge46" class="edge">
<title>Node28&#45;&gt;Node24</title>
<path fill="none" stroke="midnightblue" d="M1182.87,-280.42C1220.82,-271.86 1280.13,-258 1331,-244 1332.26,-243.65 1333.54,-243.29 1334.84,-242.92"/>
<polygon fill="midnightblue" stroke="midnightblue" points="1336.13,-246.18 1344.7,-239.95 1334.12,-239.48 1336.13,-246.18"/>
</g>
<!-- Node29 -->
<g id="node29" class="node">
<title>Node29</title>
<g id="a_node29"><a xlink:href="enable_8h.html" target="_top" xlink:title=" ">
<polygon fill="white" stroke="black" points="1470.5,-224.5 1470.5,-243.5 1559.5,-243.5 1559.5,-224.5 1470.5,-224.5"/>
<text text-anchor="middle" x="1515" y="-231.5" font-family="Helvetica,sans-Serif" font-size="10.00">system/enable.h</text>
</a>
</g>
</g>
<!-- Node28&#45;&gt;Node29 -->
<g id="edge50" class="edge">
<title>Node28&#45;&gt;Node29</title>
<path fill="none" stroke="midnightblue" d="M1189.86,-282.32C1258.37,-272.35 1387.2,-253.6 1460.44,-242.94"/>
<polygon fill="midnightblue" stroke="midnightblue" points="1461.01,-246.4 1470.4,-241.49 1460,-239.47 1461.01,-246.4"/>
</g>
<!-- Node29&#45;&gt;Node18 -->
<g id="edge51" class="edge">
<title>Node29&#45;&gt;Node18</title>
<path fill="none" stroke="midnightblue" d="M1524.42,-224.44C1537.06,-211.87 1556.75,-187.77 1546,-168 1520.25,-120.65 1461.67,-92.08 1424.07,-77.95"/>
<polygon fill="midnightblue" stroke="midnightblue" points="1425.13,-74.61 1414.54,-74.51 1422.75,-81.2 1425.13,-74.61"/>
</g>
<!-- Node29&#45;&gt;Node19 -->
<g id="edge53" class="edge">
<title>Node29&#45;&gt;Node19</title>
<path fill="none" stroke="midnightblue" d="M1536.48,-224.36C1551.39,-217.09 1570.11,-205.12 1579,-188 1594.57,-158.02 1598,-139.93 1579,-112 1562.73,-88.08 1531.59,-76.88 1505.96,-71.63"/>
<polygon fill="midnightblue" stroke="midnightblue" points="1506.56,-68.18 1496.09,-69.84 1505.31,-75.07 1506.56,-68.18"/>
</g>
<!-- Node30 -->
<g id="node30" class="node">
<title>Node30</title>
<g id="a_node30"><a xlink:title=" ">
<polygon fill="white" stroke="#bfbfbf" points="1493.5,-168.5 1493.5,-187.5 1536.5,-187.5 1536.5,-168.5 1493.5,-168.5"/>
<text text-anchor="middle" x="1515" y="-175.5" font-family="Helvetica,sans-Serif" font-size="10.00">queue</text>
</a>
</g>
</g>
<!-- Node29&#45;&gt;Node30 -->
<g id="edge52" class="edge">
<title>Node29&#45;&gt;Node30</title>
<path fill="none" stroke="midnightblue" d="M1515,-224.08C1515,-217.01 1515,-206.86 1515,-197.99"/>
<polygon fill="midnightblue" stroke="midnightblue" points="1518.5,-197.75 1515,-187.75 1511.5,-197.75 1518.5,-197.75"/>
</g>
<!-- Node31&#45;&gt;Node4 -->
<g id="edge57" class="edge">
<title>Node31&#45;&gt;Node4</title>
<path fill="none" stroke="midnightblue" d="M926.34,-403.4C914.51,-394.45 899.01,-382.74 885.86,-372.8"/>
<polygon fill="midnightblue" stroke="midnightblue" points="887.71,-369.81 877.62,-366.58 883.49,-375.4 887.71,-369.81"/>
</g>
<!-- Node32 -->
<g id="node32" class="node">
<title>Node32</title>
<g id="a_node32"><a xlink:href="led__blinker_8h.html" target="_top" xlink:title=" ">
<polygon fill="white" stroke="black" points="927.5,-342 927.5,-361 998.5,-361 998.5,-342 927.5,-342"/>
<text text-anchor="middle" x="963" y="-349" font-family="Helvetica,sans-Serif" font-size="10.00">led_blinker.h</text>
</a>
</g>
</g>
<!-- Node31&#45;&gt;Node32 -->
<g id="edge58" class="edge">
<title>Node31&#45;&gt;Node32</title>
<path fill="none" stroke="midnightblue" d="M948.91,-403.4C951.55,-393.86 955.06,-381.18 957.92,-370.86"/>
<polygon fill="midnightblue" stroke="midnightblue" points="961.3,-371.77 960.59,-361.19 954.55,-369.9 961.3,-371.77"/>
</g>
<!-- Node33 -->
<g id="node33" class="node">
<title>Node33</title>
<g id="a_node33"><a xlink:href="lambda__consumer_8h.html" target="_top" xlink:title=" ">
<polygon fill="white" stroke="black" points="1255.5,-342 1255.5,-361 1394.5,-361 1394.5,-342 1255.5,-342"/>
<text text-anchor="middle" x="1325" y="-349" font-family="Helvetica,sans-Serif" font-size="10.00">system/lambda_consumer.h</text>
</a>
</g>
</g>
<!-- Node31&#45;&gt;Node33 -->
<g id="edge63" class="edge">
<title>Node31&#45;&gt;Node33</title>
<path fill="none" stroke="midnightblue" d="M1003.13,-407.56C1073.97,-395.44 1193.08,-375.07 1264.83,-362.79"/>
<polygon fill="midnightblue" stroke="midnightblue" points="1265.8,-366.18 1275.07,-361.04 1264.62,-359.28 1265.8,-366.18"/>
</g>
<!-- Node32&#45;&gt;Node5 -->
<g id="edge61" class="edge">
<title>Node32&#45;&gt;Node5</title>
<path fill="none" stroke="midnightblue" d="M937.4,-341.88C931.09,-339.86 924.32,-337.78 918,-336 871.52,-322.94 817.9,-310.28 780.02,-301.73"/>
<polygon fill="midnightblue" stroke="midnightblue" points="780.79,-298.32 770.26,-299.54 779.25,-305.15 780.79,-298.32"/>
</g>
<!-- Node32&#45;&gt;Node20 -->
<g id="edge59" class="edge">
<title>Node32&#45;&gt;Node20</title>
<path fill="none" stroke="midnightblue" d="M940.4,-341.95C933.33,-339.61 925.43,-337.36 918,-336 761.29,-307.33 354.43,-346.31 202,-300 101.87,-269.58 0,-283.65 0,-179 0,-179 0,-179 0,-121 0,-56.02 486.72,-22.43 639.61,-13.48"/>
<polygon fill="midnightblue" stroke="midnightblue" points="639.83,-16.97 649.61,-12.9 639.43,-9.98 639.83,-16.97"/>
</g>
<!-- Node32&#45;&gt;Node22 -->
<g id="edge62" class="edge">
<title>Node32&#45;&gt;Node22</title>
<path fill="none" stroke="midnightblue" d="M963,-341.98C963,-333.58 963,-320.48 963,-309.66"/>
<polygon fill="midnightblue" stroke="midnightblue" points="966.5,-309.51 963,-299.51 959.5,-309.51 966.5,-309.51"/>
</g>
<!-- Node32&#45;&gt;Node29 -->
<g id="edge60" class="edge">
<title>Node32&#45;&gt;Node29</title>
<path fill="none" stroke="midnightblue" d="M998.79,-343.01C1094.01,-323.09 1353.79,-268.73 1464.23,-245.62"/>
<polygon fill="midnightblue" stroke="midnightblue" points="1465.05,-249.03 1474.13,-243.55 1463.62,-242.17 1465.05,-249.03"/>
</g>
<!-- Node33&#45;&gt;Node17 -->
<g id="edge64" class="edge">
<title>Node33&#45;&gt;Node17</title>
<path fill="none" stroke="midnightblue" d="M1331.76,-341.73C1344.75,-324.28 1372.92,-283.48 1384,-244 1393.81,-209.03 1392.66,-166.17 1390.87,-141.98"/>
<polygon fill="midnightblue" stroke="midnightblue" points="1394.33,-141.38 1389.99,-131.72 1387.36,-141.98 1394.33,-141.38"/>
</g>
<!-- Node34&#45;&gt;Node28 -->
<g id="edge68" class="edge">
<title>Node34&#45;&gt;Node28</title>
<path fill="none" stroke="midnightblue" d="M630.33,-346.27C727,-335.87 976.48,-309.02 1088.32,-296.99"/>
<polygon fill="midnightblue" stroke="midnightblue" points="1088.81,-300.46 1098.38,-295.91 1088.06,-293.5 1088.81,-300.46"/>
</g>
<!-- Node35 -->
<g id="node35" class="node">
<title>Node35</title>
<g id="a_node35"><a xlink:href="nmea__parser_8h.html" target="_top" xlink:title=" ">
<polygon fill="white" stroke="black" points="399,-280.5 399,-299.5 515,-299.5 515,-280.5 399,-280.5"/>
<text text-anchor="middle" x="457" y="-287.5" font-family="Helvetica,sans-Serif" font-size="10.00">system/nmea_parser.h</text>
</a>
</g>
</g>
<!-- Node34&#45;&gt;Node35 -->
<g id="edge69" class="edge">
<title>Node34&#45;&gt;Node35</title>
<path fill="none" stroke="midnightblue" d="M571.8,-341.98C549.21,-331.95 511.5,-315.2 485.5,-303.65"/>
<polygon fill="midnightblue" stroke="midnightblue" points="486.72,-300.37 476.16,-299.51 483.88,-306.77 486.72,-300.37"/>
</g>
<!-- Node35&#45;&gt;Node6 -->
<g id="edge71" class="edge">
<title>Node35&#45;&gt;Node6</title>
<path fill="none" stroke="midnightblue" d="M398.77,-288.4C323.79,-286.26 199.7,-277.57 171,-244 165.22,-237.24 165.19,-230.73 171,-224 188,-204.29 356.23,-188.41 434.42,-182.03"/>
<polygon fill="midnightblue" stroke="midnightblue" points="435.15,-185.48 444.83,-181.19 434.59,-178.5 435.15,-185.48"/>
</g>
<!-- Node35&#45;&gt;Node11 -->
<g id="edge70" class="edge">
<title>Node35&#45;&gt;Node11</title>
<path fill="none" stroke="midnightblue" d="M398.99,-284.15C317.72,-276.76 178.16,-261.65 163,-244 138.07,-214.96 199.87,-194.5 238.23,-184.99"/>
<polygon fill="midnightblue" stroke="midnightblue" points="239.41,-188.31 248.33,-182.61 237.8,-181.5 239.41,-188.31"/>
</g>
<!-- Node35&#45;&gt;Node12 -->
<g id="edge72" class="edge">
<title>Node35&#45;&gt;Node12</title>
<path fill="none" stroke="midnightblue" d="M474.83,-280.32C492.72,-271.62 520.48,-258.12 541.05,-248.11"/>
<polygon fill="midnightblue" stroke="midnightblue" points="542.75,-251.18 550.21,-243.65 539.69,-244.88 542.75,-251.18"/>
</g>
<!-- Node36&#45;&gt;Node24 -->
<g id="edge74" class="edge">
<title>Node36&#45;&gt;Node24</title>
<path fill="none" stroke="midnightblue" d="M1551.36,-341.91C1570.92,-328.27 1603.28,-301.06 1586,-280 1573.27,-264.49 1441.69,-245.65 1385.36,-238.23"/>
<polygon fill="midnightblue" stroke="midnightblue" points="1385.53,-234.72 1375.16,-236.9 1384.62,-241.66 1385.53,-234.72"/>
</g>
<!-- Node36&#45;&gt;Node28 -->
<g id="edge76" class="edge">
<title>Node36&#45;&gt;Node28</title>
<path fill="none" stroke="midnightblue" d="M1481.55,-341.98C1406.46,-330.64 1274.52,-310.71 1199.77,-299.42"/>
<polygon fill="midnightblue" stroke="midnightblue" points="1200.03,-295.92 1189.62,-297.89 1198.98,-302.84 1200.03,-295.92"/>
</g>
<!-- Node37 -->
<g id="node37" class="node">
<title>Node37</title>
<g id="a_node37"><a xlink:title=" ">
<polygon fill="white" stroke="#bfbfbf" points="1469.5,-280.5 1469.5,-299.5 1576.5,-299.5 1576.5,-280.5 1469.5,-280.5"/>
<text text-anchor="middle" x="1523" y="-287.5" font-family="Helvetica,sans-Serif" font-size="10.00">DallasTemperature.h</text>
</a>
</g>
</g>
<!-- Node36&#45;&gt;Node37 -->
<g id="edge75" class="edge">
<title>Node36&#45;&gt;Node37</title>
<path fill="none" stroke="midnightblue" d="M1535.85,-341.98C1533.71,-333.49 1530.36,-320.2 1527.62,-309.32"/>
<polygon fill="midnightblue" stroke="midnightblue" points="1530.98,-308.35 1525.15,-299.51 1524.2,-310.06 1530.98,-308.35"/>
</g>
</g>
</svg>
        <g id="navigator" transform="translate(0 0)" fill="#404254">
                <rect fill="#f2f5e9" fill-opacity="0.5" stroke="#606060" stroke-width=".5" x="0" y="0" width="60" height="60"/>
                <use id="zoomplus" xlink:href="#zoomPlus" x="17" y="9" onmousedown="handleZoom(evt,'in')"/>
                <use id="zoomminus" xlink:href="#zoomMin" x="42" y="9" onmousedown="handleZoom(evt,'out')"/>
                <use id="reset" xlink:href="#resetDef" x="30" y="36" onmousedown="handleReset()"/>
                <g id="arrowUp" xlink:href="#dirArrow" transform="translate(30 24)" onmousedown="handlePan(0,-1)">
                  <use xlink:href="#rim" fill="#404040">
                        <set attributeName="fill" to="#808080" begin="arrowUp.mouseover" end="arrowUp.mouseout"/>
                  </use>
                  <path fill="none" stroke="white" stroke-width="1.5" d="M0,-3.0v7 M-2.5,-0.5L0,-3.0L2.5,-0.5"/>
                </g>
                <g id="arrowRight" xlink:href="#dirArrow" transform="rotate(90) translate(36 -43)" onmousedown="handlePan(1,0)">
                  <use xlink:href="#rim" fill="#404040">
                        <set attributeName="fill" to="#808080" begin="arrowRight.mouseover" end="arrowRight.mouseout"/>
                  </use>
                  <path fill="none" stroke="white" stroke-width="1.5" d="M0,-3.0v7 M-2.5,-0.5L0,-3.0L2.5,-0.5"/>
                </g>
                <g id="arrowDown" xlink:href="#dirArrow" transform="rotate(180) translate(-30 -48)" onmousedown="handlePan(0,1)">
                  <use xlink:href="#rim" fill="#404040">
                        <set attributeName="fill" to="#808080" begin="arrowDown.mouseover" end="arrowDown.mouseout"/>
                  </use>
                  <path fill="none" stroke="white" stroke-width="1.5" d="M0,-3.0v7 M-2.5,-0.5L0,-3.0L2.5,-0.5"/>
                </g>
                <g id="arrowLeft" xlink:href="#dirArrow" transform="rotate(270) translate(-36 17)" onmousedown="handlePan(-1,0)">
                  <use xlink:href="#rim" fill="#404040">
                        <set attributeName="fill" to="#808080" begin="arrowLeft.mouseover" end="arrowLeft.mouseout"/>
                  </use>
                  <path fill="none" stroke="white" stroke-width="1.5" d="M0,-3.0v7 M-2.5,-0.5L0,-3.0L2.5,-0.5"/>
                </g>
        </g>
        <svg viewBox="0 0 15 15" width="100%" height="30px" preserveAspectRatio="xMaxYMin meet">
         <g id="arrow_out" transform="scale(0.3 0.3)">
          <a xlink:href="wiring__helpers_8h__incl_org.svg" target="_base">
           <rect id="button" ry="5" rx="5" y="6" x="6" height="38" width="38"
                fill="#f2f5e9" fill-opacity="0.5" stroke="#606060" stroke-width="1.0"/>
           <path id="arrow"
             d="M 11.500037,31.436501 C 11.940474,20.09759 22.043105,11.32322 32.158766,21.979434 L 37.068811,17.246167 C 37.068811,17.246167 37.088388,32 37.088388,32 L 22.160133,31.978069 C 22.160133,31.978069 26.997745,27.140456 26.997745,27.140456 C 18.528582,18.264221 13.291696,25.230495 11.500037,31.436501 z"
             style="fill:#404040;"/>
          </a>
         </g>
        </svg>
</svg>
