<?xml version="1.0" encoding="UTF-8" standalone="no"?>
<!DOCTYPE svg PUBLIC "-//W3C//DTD SVG 1.1//EN"
 "http://www.w3.org/Graphics/SVG/1.1/DTD/svg11.dtd">
<!-- Generated by graphviz version 2.40.1 (20161225.0304)
 -->
<!-- Title: src/wiring_helpers.cpp Pages: 1 -->
<svg width="2484pt" height="597pt"
 viewBox="0.00 0.00 2484.14 597.00" xmlns="http://www.w3.org/2000/svg" xmlns:xlink="http://www.w3.org/1999/xlink">
<g id="graph0" class="graph" transform="scale(1 1) rotate(0) translate(4 593)">
<title>src/wiring_helpers.cpp</title>
<polygon fill="#ffffff" stroke="transparent" points="-4,4 -4,-593 2480.1426,-593 2480.1426,4 -4,4"/>
<!-- Node0 -->
<g id="node1" class="node">
<title>Node0</title>
<g id="a_node1"><a xlink:title=" ">
<polygon fill="#bfbfbf" stroke="#000000" points="1719.2563,-570.5 1719.2563,-588.5 1834.7437,-588.5 1834.7437,-570.5 1719.2563,-570.5"/>
<text text-anchor="middle" x="1777" y="-576.5" font-family="Helvetica,sans-Serif" font-size="10.00" fill="#000000">src/wiring_helpers.cpp</text>
</a>
</g>
</g>
<!-- Node1 -->
<g id="node2" class="node">
<title>Node1</title>
<g id="a_node2"><a xlink:href="wiring__helpers_8h.html" target="_top" xlink:title=" ">
<polygon fill="#ffffff" stroke="#000000" points="1138.5913,-515.5 1138.5913,-533.5 1227.4087,-533.5 1227.4087,-515.5 1138.5913,-515.5"/>
<text text-anchor="middle" x="1183" y="-521.5" font-family="Helvetica,sans-Serif" font-size="10.00" fill="#000000">wiring_helpers.h</text>
</a>
</g>
</g>
<!-- Node0&#45;&gt;Node1 -->
<g id="edge1" class="edge">
<title>Node0&#45;&gt;Node1</title>
<path fill="none" stroke="#191970" d="M1719.2344,-574.1513C1604.5935,-563.5364 1349.7477,-539.9396 1237.6769,-529.5627"/>
<polygon fill="#191970" stroke="#191970" points="1237.887,-526.0672 1227.6069,-528.6303 1237.2416,-533.0374 1237.887,-526.0672"/>
</g>
<!-- Node2 -->
<g id="node3" class="node">
<title>Node2</title>
<g id="a_node3"><a xlink:href="sensesp__app_8h.html" target="_top" xlink:title=" ">
<polygon fill="#ffffff" stroke="#000000" points="647.084,-460.5 647.084,-478.5 730.916,-478.5 730.916,-460.5 647.084,-460.5"/>
<text text-anchor="middle" x="689" y="-466.5" font-family="Helvetica,sans-Serif" font-size="10.00" fill="#000000">sensesp_app.h</text>
</a>
</g>
</g>
<!-- Node0&#45;&gt;Node2 -->
<g id="edge67" class="edge">
<title>Node0&#45;&gt;Node2</title>
<path fill="none" stroke="#191970" d="M1718.8732,-576.877C1605.4204,-571.4334 1346.6255,-557.4253 1130,-534 988.9086,-518.7427 823.6289,-492.241 741.2373,-478.4377"/>
<polygon fill="#191970" stroke="#191970" points="741.5709,-474.9447 731.129,-476.7381 740.4102,-481.8478 741.5709,-474.9447"/>
</g>
<!-- Node34 -->
<g id="node30" class="node">
<title>Node34</title>
<g id="a_node30"><a xlink:href="gps_8h.html" target="_top" xlink:title=" ">
<polygon fill="#ffffff" stroke="#000000" points="1270.8721,-335.5 1270.8721,-353.5 1349.1279,-353.5 1349.1279,-335.5 1270.8721,-335.5"/>
<text text-anchor="middle" x="1310" y="-341.5" font-family="Helvetica,sans-Serif" font-size="10.00" fill="#000000">sensors/gps.h</text>
</a>
</g>
</g>
<!-- Node0&#45;&gt;Node34 -->
<g id="edge75" class="edge">
<title>Node0&#45;&gt;Node34</title>
<path fill="none" stroke="#191970" d="M1719.2537,-572.1275C1672.9266,-565.2069 1606.6721,-553.0289 1551,-534 1446.8039,-498.3854 1397.6104,-510.1269 1329,-424 1315.2914,-406.7916 1311.2185,-381.2679 1310.1381,-363.8125"/>
<polygon fill="#191970" stroke="#191970" points="1313.6312,-363.5489 1309.7891,-353.6753 1306.6353,-363.7899 1313.6312,-363.5489"/>
</g>
<!-- Node39 -->
<g id="node35" class="node">
<title>Node39</title>
<g id="a_node35"><a xlink:href="analog__input_8h.html" target="_top" xlink:title=" ">
<polygon fill="#ffffff" stroke="#000000" points="2190.2959,-335.5 2190.2959,-353.5 2309.7041,-353.5 2309.7041,-335.5 2190.2959,-335.5"/>
<text text-anchor="middle" x="2250" y="-341.5" font-family="Helvetica,sans-Serif" font-size="10.00" fill="#000000">sensors/analog_input.h</text>
</a>
</g>
</g>
<!-- Node0&#45;&gt;Node39 -->
<g id="edge68" class="edge">
<title>Node0&#45;&gt;Node39</title>
<path fill="none" stroke="#191970" d="M1835.096,-578.3024C1961.8292,-574.2491 2256.0364,-556.5099 2309,-479 2335.5957,-440.0784 2293.0082,-387.2274 2267.2909,-360.8643"/>
<polygon fill="#191970" stroke="#191970" points="2269.5107,-358.1362 2259.9466,-353.5778 2264.5805,-363.1055 2269.5107,-358.1362"/>
</g>
<!-- Node41 -->
<g id="node37" class="node">
<title>Node41</title>
<g id="a_node37"><a xlink:href="digital__input_8h.html" target="_top" xlink:title=" ">
<polygon fill="#ffffff" stroke="#000000" points="1338.2466,-400.5 1338.2466,-418.5 1453.7534,-418.5 1453.7534,-400.5 1338.2466,-400.5"/>
<text text-anchor="middle" x="1396" y="-406.5" font-family="Helvetica,sans-Serif" font-size="10.00" fill="#000000">sensors/digital_input.h</text>
</a>
</g>
</g>
<!-- Node0&#45;&gt;Node41 -->
<g id="edge73" class="edge">
<title>Node0&#45;&gt;Node41</title>
<path fill="none" stroke="#191970" d="M1720.017,-570.4445C1682.6308,-563.3141 1633.2172,-551.5982 1592,-534 1522.5724,-504.357 1449.8384,-451.462 1415.7861,-425.1949"/>
<polygon fill="#191970" stroke="#191970" points="1417.653,-422.2126 1407.6138,-418.8266 1413.3503,-427.7341 1417.653,-422.2126"/>
</g>
<!-- Node42 -->
<g id="node38" class="node">
<title>Node42</title>
<g id="a_node38"><a xlink:href="signalk__output_8h.html" target="_top" xlink:title=" ">
<polygon fill="#ffffff" stroke="#000000" points="1563.6309,-335.5 1563.6309,-353.5 1686.3691,-353.5 1686.3691,-335.5 1563.6309,-335.5"/>
<text text-anchor="middle" x="1625" y="-341.5" font-family="Helvetica,sans-Serif" font-size="10.00" fill="#000000">signalk/signalk_output.h</text>
</a>
</g>
</g>
<!-- Node0&#45;&gt;Node42 -->
<g id="edge76" class="edge">
<title>Node0&#45;&gt;Node42</title>
<path fill="none" stroke="#191970" d="M1753.6447,-570.4215C1736.6602,-562.8334 1714.0905,-550.579 1699,-534 1652.8933,-483.3451 1634.1752,-400.6834 1627.8094,-363.5809"/>
<polygon fill="#191970" stroke="#191970" points="1631.2507,-362.9357 1626.2137,-353.6149 1624.3388,-364.0425 1631.2507,-362.9357"/>
</g>
<!-- Node45 -->
<g id="node40" class="node">
<title>Node45</title>
<g id="a_node40"><a xlink:href="transform_8h.html" target="_top" xlink:title=" ">
<polygon fill="#ffffff" stroke="#000000" points="1825.7095,-275.5 1825.7095,-293.5 1942.2905,-293.5 1942.2905,-275.5 1825.7095,-275.5"/>
<text text-anchor="middle" x="1884" y="-281.5" font-family="Helvetica,sans-Serif" font-size="10.00" fill="#000000">transforms/transform.h</text>
</a>
</g>
</g>
<!-- Node0&#45;&gt;Node45 -->
<g id="edge121" class="edge">
<title>Node0&#45;&gt;Node45</title>
<path fill="none" stroke="#191970" d="M1834.8846,-577.0782C1913.2773,-572.7931 2048.0134,-561.5621 2088,-534 2115.0304,-515.3684 2124,-502.3295 2124,-469.5 2124,-469.5 2124,-469.5 2124,-409.5 2124,-373.1716 2131.0901,-355.2797 2105,-330 2083.5031,-309.1708 2008.9138,-296.9955 1952.2822,-290.5647"/>
<polygon fill="#191970" stroke="#191970" points="1952.6133,-287.0801 1942.291,-289.4679 1951.8493,-294.0383 1952.6133,-287.0801"/>
</g>
<!-- Node46 -->
<g id="node41" class="node">
<title>Node46</title>
<g id="a_node41"><a xlink:href="signalk__position_8h.html" target="_top" xlink:title=" ">
<polygon fill="#ffffff" stroke="#000000" points="1471.2983,-400.5 1471.2983,-418.5 1600.7017,-418.5 1600.7017,-400.5 1471.2983,-400.5"/>
<text text-anchor="middle" x="1536" y="-406.5" font-family="Helvetica,sans-Serif" font-size="10.00" fill="#000000">signalk/signalk_position.h</text>
</a>
</g>
</g>
<!-- Node0&#45;&gt;Node46 -->
<g id="edge95" class="edge">
<title>Node0&#45;&gt;Node46</title>
<path fill="none" stroke="#191970" d="M1718.8878,-573.5566C1685.8185,-567.7823 1645.1191,-556.4058 1615,-534 1577.8293,-506.3485 1553.7321,-455.5723 1542.8007,-428.1862"/>
<polygon fill="#191970" stroke="#191970" points="1545.9853,-426.715 1539.1436,-418.6254 1539.4473,-429.2159 1545.9853,-426.715"/>
</g>
<!-- Node47 -->
<g id="node42" class="node">
<title>Node47</title>
<g id="a_node42"><a xlink:href="signalk__time_8h.html" target="_top" xlink:title=" ">
<polygon fill="#ffffff" stroke="#000000" points="1657.0864,-400.5 1657.0864,-418.5 1770.9136,-418.5 1770.9136,-400.5 1657.0864,-400.5"/>
<text text-anchor="middle" x="1714" y="-406.5" font-family="Helvetica,sans-Serif" font-size="10.00" fill="#000000">signalk/signalk_time.h</text>
</a>
</g>
</g>
<!-- Node0&#45;&gt;Node47 -->
<g id="edge102" class="edge">
<title>Node0&#45;&gt;Node47</title>
<path fill="none" stroke="#191970" d="M1753.5403,-570.498C1738.1147,-563.2009 1719.1483,-551.271 1710,-534 1692.1882,-500.3732 1700.752,-454.1534 1707.8481,-428.539"/>
<polygon fill="#191970" stroke="#191970" points="1711.2998,-429.2124 1710.8117,-418.6289 1704.5933,-427.2068 1711.2998,-429.2124"/>
</g>
<!-- Node50 -->
<g id="node44" class="node">
<title>Node50</title>
<g id="a_node44"><a xlink:href="angle__correction_8h.html" target="_top" xlink:title=" ">
<polygon fill="#ffffff" stroke="#000000" points="2151.8574,-460.5 2151.8574,-478.5 2300.1426,-478.5 2300.1426,-460.5 2151.8574,-460.5"/>
<text text-anchor="middle" x="2226" y="-466.5" font-family="Helvetica,sans-Serif" font-size="10.00" fill="#000000">transforms/angle_correction.h</text>
</a>
</g>
</g>
<!-- Node0&#45;&gt;Node50 -->
<g id="edge107" class="edge">
<title>Node0&#45;&gt;Node50</title>
<path fill="none" stroke="#191970" d="M1834.8635,-575.7524C1922.4617,-569.4836 2084.2271,-555.4115 2138,-534 2165.5744,-523.0203 2192.3608,-501.3182 2208.9939,-486.1324"/>
<polygon fill="#191970" stroke="#191970" points="2211.8254,-488.2746 2216.7169,-478.8765 2207.0323,-483.173 2211.8254,-488.2746"/>
</g>
<!-- Node51 -->
<g id="node45" class="node">
<title>Node51</title>
<g id="a_node45"><a xlink:href="difference_8h.html" target="_top" xlink:title=" ">
<polygon fill="#ffffff" stroke="#000000" points="1803.9551,-460.5 1803.9551,-478.5 1922.0449,-478.5 1922.0449,-460.5 1803.9551,-460.5"/>
<text text-anchor="middle" x="1863" y="-466.5" font-family="Helvetica,sans-Serif" font-size="10.00" fill="#000000">transforms/difference.h</text>
</a>
</g>
</g>
<!-- Node0&#45;&gt;Node51 -->
<g id="edge109" class="edge">
<title>Node0&#45;&gt;Node51</title>
<path fill="none" stroke="#191970" d="M1797.3985,-570.3854C1812.3582,-562.7081 1832.0657,-550.3562 1844,-534 1853.6761,-520.7388 1858.4549,-502.584 1860.7971,-488.9134"/>
<polygon fill="#191970" stroke="#191970" points="1864.3079,-489.0828 1862.2453,-478.6907 1857.3772,-488.1008 1864.3079,-489.0828"/>
</g>
<!-- Node52 -->
<g id="node46" class="node">
<title>Node52</title>
<g id="a_node46"><a xlink:href="frequency_8h.html" target="_top" xlink:title=" ">
<polygon fill="#ffffff" stroke="#000000" points="1940.2358,-460.5 1940.2358,-478.5 2057.7642,-478.5 2057.7642,-460.5 1940.2358,-460.5"/>
<text text-anchor="middle" x="1999" y="-466.5" font-family="Helvetica,sans-Serif" font-size="10.00" fill="#000000">transforms/frequency.h</text>
</a>
</g>
</g>
<!-- Node0&#45;&gt;Node52 -->
<g id="edge111" class="edge">
<title>Node0&#45;&gt;Node52</title>
<path fill="none" stroke="#191970" d="M1795.1672,-570.4982C1834.0318,-551.241 1925.4418,-505.9478 1971.4813,-483.1354"/>
<polygon fill="#191970" stroke="#191970" points="1973.1754,-486.2021 1980.5818,-478.6261 1970.0675,-479.9299 1973.1754,-486.2021"/>
</g>
<!-- Node53 -->
<g id="node47" class="node">
<title>Node53</title>
<g id="a_node47"><a xlink:href="integrator_8h.html" target="_top" xlink:title=" ">
<polygon fill="#ffffff" stroke="#000000" points="1718.9756,-515.5 1718.9756,-533.5 1835.0244,-533.5 1835.0244,-515.5 1718.9756,-515.5"/>
<text text-anchor="middle" x="1777" y="-521.5" font-family="Helvetica,sans-Serif" font-size="10.00" fill="#000000">transforms/integrator.h</text>
</a>
</g>
</g>
<!-- Node0&#45;&gt;Node53 -->
<g id="edge113" class="edge">
<title>Node0&#45;&gt;Node53</title>
<path fill="none" stroke="#191970" d="M1777,-570.4179C1777,-563.2164 1777,-552.8962 1777,-543.8632"/>
<polygon fill="#191970" stroke="#191970" points="1780.5001,-543.7794 1777,-533.7795 1773.5001,-543.7795 1780.5001,-543.7794"/>
</g>
<!-- Node54 -->
<g id="node48" class="node">
<title>Node54</title>
<g id="a_node48"><a xlink:href="linear_8h.html" target="_top" xlink:title=" ">
<polygon fill="#ffffff" stroke="#000000" points="1980.8696,-515.5 1980.8696,-533.5 2079.1304,-533.5 2079.1304,-515.5 1980.8696,-515.5"/>
<text text-anchor="middle" x="2030" y="-521.5" font-family="Helvetica,sans-Serif" font-size="10.00" fill="#000000">transforms/linear.h</text>
</a>
</g>
</g>
<!-- Node0&#45;&gt;Node54 -->
<g id="edge115" class="edge">
<title>Node0&#45;&gt;Node54</title>
<path fill="none" stroke="#191970" d="M1818.4945,-570.4795C1862.2466,-560.9681 1931.249,-545.9676 1978.4608,-535.7042"/>
<polygon fill="#191970" stroke="#191970" points="1979.4546,-539.07 1988.4828,-533.5255 1977.9675,-532.2297 1979.4546,-539.07"/>
</g>
<!-- Node56 -->
<g id="node50" class="node">
<title>Node56</title>
<g id="a_node50"><a xlink:href="moving__average_8h.html" target="_top" xlink:title=" ">
<polygon fill="#ffffff" stroke="#000000" points="2327.8574,-335.5 2327.8574,-353.5 2476.1426,-353.5 2476.1426,-335.5 2327.8574,-335.5"/>
<text text-anchor="middle" x="2402" y="-341.5" font-family="Helvetica,sans-Serif" font-size="10.00" fill="#000000">transforms/moving_average.h</text>
</a>
</g>
</g>
<!-- Node0&#45;&gt;Node56 -->
<g id="edge118" class="edge">
<title>Node0&#45;&gt;Node56</title>
<path fill="none" stroke="#191970" d="M1834.7553,-577.5009C1942.9267,-573.1659 2171.8299,-561.0322 2246,-534 2286.5392,-519.225 2296.8608,-510.8219 2326,-479 2358.7802,-443.2019 2383.1952,-390.7997 2394.69,-363.1603"/>
<polygon fill="#191970" stroke="#191970" points="2398.0684,-364.142 2398.574,-353.5592 2391.5792,-361.5169 2398.0684,-364.142"/>
</g>
<!-- Node1&#45;&gt;Node2 -->
<g id="edge2" class="edge">
<title>Node1&#45;&gt;Node2</title>
<path fill="none" stroke="#191970" d="M1138.2895,-519.5221C1046.8566,-509.3423 838.9132,-486.1907 741.3596,-475.3295"/>
<polygon fill="#191970" stroke="#191970" points="741.4724,-471.8205 731.1465,-474.1924 740.6978,-478.7775 741.4724,-471.8205"/>
</g>
<!-- Node1&#45;&gt;Node34 -->
<g id="edge57" class="edge">
<title>Node1&#45;&gt;Node34</title>
<path fill="none" stroke="#191970" d="M1189.4725,-515.3263C1209.5097,-486.9271 1270.7683,-400.104 1297.4076,-362.3476"/>
<polygon fill="#191970" stroke="#191970" points="1300.4829,-364.0598 1303.3882,-353.8711 1294.7633,-360.0242 1300.4829,-364.0598"/>
</g>
<!-- Node36 -->
<g id="node32" class="node">
<title>Node36</title>
<g id="a_node32"><a xlink:href="onewire__temperature_8h.html" target="_top" xlink:title=" ">
<polygon fill="#ffffff" stroke="#000000" points="1049.6851,-335.5 1049.6851,-353.5 1206.3149,-353.5 1206.3149,-335.5 1049.6851,-335.5"/>
<text text-anchor="middle" x="1128" y="-341.5" font-family="Helvetica,sans-Serif" font-size="10.00" fill="#000000">sensors/onewire_temperature.h</text>
</a>
</g>
</g>
<!-- Node1&#45;&gt;Node36 -->
<g id="edge62" class="edge">
<title>Node1&#45;&gt;Node36</title>
<path fill="none" stroke="#191970" d="M1180.1969,-515.3263C1171.6297,-487.2881 1145.6617,-402.3019 1133.9006,-363.811"/>
<polygon fill="#191970" stroke="#191970" points="1137.1329,-362.4118 1130.8634,-353.8711 1130.4384,-364.4574 1137.1329,-362.4118"/>
</g>
<!-- Node3 -->
<g id="node4" class="node">
<title>Node3</title>
<g id="a_node4"><a xlink:title=" ">
<polygon fill="#ffffff" stroke="#bfbfbf" points="193.436,-55.5 193.436,-73.5 260.564,-73.5 260.564,-55.5 193.436,-55.5"/>
<text text-anchor="middle" x="227" y="-61.5" font-family="Helvetica,sans-Serif" font-size="10.00" fill="#000000">forward_list</text>
</a>
</g>
</g>
<!-- Node2&#45;&gt;Node3 -->
<g id="edge3" class="edge">
<title>Node2&#45;&gt;Node3</title>
<path fill="none" stroke="#191970" d="M646.9371,-466.3542C497.3451,-454.6124 0,-410.6041 0,-344.5 0,-344.5 0,-344.5 0,-174.5 0,-134.1991 117.3345,-94.9889 183.2878,-76.1323"/>
<polygon fill="#191970" stroke="#191970" points="184.3395,-79.4723 193.0158,-73.3918 182.4414,-72.7346 184.3395,-79.4723"/>
</g>
<!-- Node4 -->
<g id="node5" class="node">
<title>Node4</title>
<g id="a_node5"><a xlink:href="system__status__controller_8h.html" target="_top" xlink:title=" ">
<polygon fill="#ffffff" stroke="#000000" points="657.6382,-330.5 657.6382,-358.5 760.3618,-358.5 760.3618,-330.5 657.6382,-330.5"/>
<text text-anchor="start" x="665.6382" y="-346.5" font-family="Helvetica,sans-Serif" font-size="10.00" fill="#000000">controllers/system</text>
<text text-anchor="middle" x="709" y="-336.5" font-family="Helvetica,sans-Serif" font-size="10.00" fill="#000000">_status_controller.h</text>
</a>
</g>
</g>
<!-- Node2&#45;&gt;Node4 -->
<g id="edge4" class="edge">
<title>Node2&#45;&gt;Node4</title>
<path fill="none" stroke="#191970" d="M681.9689,-460.2294C672.1156,-446.0442 656.3257,-418.1602 665,-395 669.018,-384.272 676.4596,-374.3222 684.0947,-366.1404"/>
<polygon fill="#191970" stroke="#191970" points="686.7702,-368.4148 691.3689,-358.87 681.8217,-363.4638 686.7702,-368.4148"/>
</g>
<!-- Node5 -->
<g id="node6" class="node">
<title>Node5</title>
<g id="a_node6"><a xlink:href="networking_8h.html" target="_top" xlink:title=" ">
<polygon fill="#ffffff" stroke="#000000" points="452.3105,-275.5 452.3105,-293.5 541.6895,-293.5 541.6895,-275.5 452.3105,-275.5"/>
<text text-anchor="middle" x="497" y="-281.5" font-family="Helvetica,sans-Serif" font-size="10.00" fill="#000000">net/networking.h</text>
</a>
</g>
</g>
<!-- Node2&#45;&gt;Node5 -->
<g id="edge41" class="edge">
<title>Node2&#45;&gt;Node5</title>
<path fill="none" stroke="#191970" d="M646.9116,-464.2273C618.1613,-458.6348 580.906,-447.2092 556,-424 520.6891,-391.0947 505.6829,-333.6608 500.0173,-303.7881"/>
<polygon fill="#191970" stroke="#191970" points="503.4415,-303.0499 498.2804,-293.7972 496.545,-304.249 503.4415,-303.0499"/>
</g>
<!-- Node12 -->
<g id="node12" class="node">
<title>Node12</title>
<g id="a_node12"><a xlink:href="observablevalue_8h.html" target="_top" xlink:title=" ">
<polygon fill="#ffffff" stroke="#000000" points="600.1924,-220.5 600.1924,-238.5 731.8076,-238.5 731.8076,-220.5 600.1924,-220.5"/>
<text text-anchor="middle" x="666" y="-226.5" font-family="Helvetica,sans-Serif" font-size="10.00" fill="#000000">system/observablevalue.h</text>
</a>
</g>
</g>
<!-- Node2&#45;&gt;Node12 -->
<g id="edge52" class="edge">
<title>Node2&#45;&gt;Node12</title>
<path fill="none" stroke="#191970" d="M675.9224,-460.2995C665.3725,-452.0864 651.1522,-439.0523 644,-424 615.7262,-364.4957 642.891,-283.574 657.7437,-247.7968"/>
<polygon fill="#191970" stroke="#191970" points="660.97,-249.1539 661.7171,-238.5855 654.5425,-246.3813 660.97,-249.1539"/>
</g>
<!-- Node16 -->
<g id="node16" class="node">
<title>Node16</title>
<g id="a_node16"><a xlink:href="valueproducer_8h.html" target="_top" xlink:title=" ">
<polygon fill="#ffffff" stroke="#000000" points="920.4165,-165.5 920.4165,-183.5 1007.5835,-183.5 1007.5835,-165.5 920.4165,-165.5"/>
<text text-anchor="middle" x="964" y="-171.5" font-family="Helvetica,sans-Serif" font-size="10.00" fill="#000000">valueproducer.h</text>
</a>
</g>
</g>
<!-- Node2&#45;&gt;Node16 -->
<g id="edge56" class="edge">
<title>Node2&#45;&gt;Node16</title>
<path fill="none" stroke="#191970" d="M731.0914,-461.0416C753.5419,-454.4845 779.9709,-443.1628 797,-424 842.7844,-372.479 792.4077,-324.8557 840,-275 874.355,-239.0112 911.8039,-275.1398 946,-239 957.475,-226.8727 961.7401,-208.054 963.2734,-193.8676"/>
<polygon fill="#191970" stroke="#191970" points="966.7782,-193.9248 964.0029,-183.6999 959.7961,-193.4238 966.7782,-193.9248"/>
</g>
<!-- Node17 -->
<g id="node17" class="node">
<title>Node17</title>
<g id="a_node17"><a xlink:href="valueconsumer_8h.html" target="_top" xlink:title=" ">
<polygon fill="#ffffff" stroke="#ff0000" points="1733.1973,-110.5 1733.1973,-128.5 1824.8027,-128.5 1824.8027,-110.5 1733.1973,-110.5"/>
<text text-anchor="middle" x="1779" y="-116.5" font-family="Helvetica,sans-Serif" font-size="10.00" fill="#000000">valueconsumer.h</text>
</a>
</g>
</g>
<!-- Node2&#45;&gt;Node17 -->
<g id="edge55" class="edge">
<title>Node2&#45;&gt;Node17</title>
<path fill="none" stroke="#191970" d="M731.0538,-463.7094C777.6093,-456.4775 848.6519,-442.7379 868,-424 917.5116,-376.0498 860.4216,-321.8235 911,-275 922.0736,-264.7485 1428.1252,-167.5418 1443,-165 1541.039,-148.247 1656.0291,-133.7881 1722.8884,-125.8927"/>
<polygon fill="#191970" stroke="#191970" points="1723.672,-129.3248 1733.1956,-124.6826 1722.8557,-122.3726 1723.672,-129.3248"/>
</g>
<!-- Node19 -->
<g id="node18" class="node">
<title>Node19</title>
<g id="a_node18"><a xlink:href="sensesp_8h.html" target="_top" xlink:title=" ">
<polygon fill="#ffffff" stroke="#000000" points="1879.207,-55.5 1879.207,-73.5 1940.793,-73.5 1940.793,-55.5 1879.207,-55.5"/>
<text text-anchor="middle" x="1910" y="-61.5" font-family="Helvetica,sans-Serif" font-size="10.00" fill="#000000">sensesp.h</text>
</a>
</g>
</g>
<!-- Node2&#45;&gt;Node19 -->
<g id="edge43" class="edge">
<title>Node2&#45;&gt;Node19</title>
<path fill="none" stroke="#191970" d="M731.0237,-463.4931C759.0575,-457.5897 795.186,-446.094 820,-424 874.93,-375.0912 840.2023,-327.2147 892,-275 917.4769,-249.318 935.8934,-260.4813 965,-239 992.0669,-219.0241 994.6322,-209.1264 1017,-184 1045.5293,-151.9521 1040.6308,-129.204 1079,-110 1149.9675,-74.4804 1711.1775,-66.4155 1868.898,-64.8425"/>
<polygon fill="#191970" stroke="#191970" points="1869.1541,-68.3403 1879.12,-64.7441 1869.0867,-61.3407 1869.1541,-68.3403"/>
</g>
<!-- Node22 -->
<g id="node21" class="node">
<title>Node22</title>
<g id="a_node21"><a xlink:href="ws__client_8h.html" target="_top" xlink:title=" ">
<polygon fill="#ffffff" stroke="#000000" points="667.9263,-275.5 667.9263,-293.5 750.0737,-293.5 750.0737,-275.5 667.9263,-275.5"/>
<text text-anchor="middle" x="709" y="-281.5" font-family="Helvetica,sans-Serif" font-size="10.00" fill="#000000">net/ws_client.h</text>
</a>
</g>
</g>
<!-- Node2&#45;&gt;Node22 -->
<g id="edge42" class="edge">
<title>Node2&#45;&gt;Node22</title>
<path fill="none" stroke="#191970" d="M681.2727,-460.4007C674.2863,-451.6563 664.3071,-437.7733 659,-424 643.8942,-384.796 630.3109,-367.6278 649,-330 655.5805,-316.7512 668.0663,-306.325 679.9513,-298.8148"/>
<polygon fill="#191970" stroke="#191970" points="681.9426,-301.7051 688.8149,-293.6415 678.414,-295.6595 681.9426,-301.7051"/>
</g>
<!-- Node25 -->
<g id="node24" class="node">
<title>Node25</title>
<g id="a_node24"><a xlink:href="signalk__delta_8h.html" target="_top" xlink:title=" ">
<polygon fill="#ffffff" stroke="#000000" points="203.6899,-220.5 203.6899,-238.5 320.3101,-238.5 320.3101,-220.5 203.6899,-220.5"/>
<text text-anchor="middle" x="262" y="-226.5" font-family="Helvetica,sans-Serif" font-size="10.00" fill="#000000">signalk/signalk_delta.h</text>
</a>
</g>
</g>
<!-- Node2&#45;&gt;Node25 -->
<g id="edge51" class="edge">
<title>Node2&#45;&gt;Node25</title>
<path fill="none" stroke="#191970" d="M646.9714,-461.5511C614.2745,-454.3972 568.3405,-442.1855 531,-424 426.7832,-373.2446 320.2696,-282.1739 279.4062,-245.4741"/>
<polygon fill="#191970" stroke="#191970" points="281.6797,-242.8111 271.9175,-238.6941 276.9816,-248.0003 281.6797,-242.8111"/>
</g>
<!-- Node27 -->
<g id="node26" class="node">
<title>Node27</title>
<g id="a_node26"><a xlink:href="http_8h.html" target="_top" xlink:title=" ">
<polygon fill="#ffffff" stroke="#000000" points="97.1504,-275.5 97.1504,-293.5 154.8496,-293.5 154.8496,-275.5 97.1504,-275.5"/>
<text text-anchor="middle" x="126" y="-281.5" font-family="Helvetica,sans-Serif" font-size="10.00" fill="#000000">net/http.h</text>
</a>
</g>
</g>
<!-- Node2&#45;&gt;Node27 -->
<g id="edge38" class="edge">
<title>Node2&#45;&gt;Node27</title>
<path fill="none" stroke="#191970" d="M647.0777,-466.7245C564.877,-460.8736 385.5355,-445.9778 328,-424 251.2904,-394.698 175.6262,-330.4839 142.8855,-300.5071"/>
<polygon fill="#191970" stroke="#191970" points="145.2231,-297.9015 135.5119,-293.6656 140.462,-303.0329 145.2231,-297.9015"/>
</g>
<!-- Node28 -->
<g id="node27" class="node">
<title>Node28</title>
<g id="a_node27"><a xlink:href="sensor_8h.html" target="_top" xlink:title=" ">
<polygon fill="#ffffff" stroke="#000000" points="1302.1997,-275.5 1302.1997,-293.5 1393.8003,-293.5 1393.8003,-275.5 1302.1997,-275.5"/>
<text text-anchor="middle" x="1348" y="-281.5" font-family="Helvetica,sans-Serif" font-size="10.00" fill="#000000">sensors/sensor.h</text>
</a>
</g>
</g>
<!-- Node2&#45;&gt;Node28 -->
<g id="edge44" class="edge">
<title>Node2&#45;&gt;Node28</title>
<path fill="none" stroke="#191970" d="M730.9994,-465.6453C822.042,-456.2338 1043.21,-427.6325 1215,-359 1237.7935,-349.8937 1240.696,-342.1904 1262,-330 1281.3639,-318.9198 1303.6387,-307.1614 1320.6665,-298.374"/>
<polygon fill="#191970" stroke="#191970" points="1322.7259,-301.2512 1330.0242,-293.5711 1319.5294,-295.0236 1322.7259,-301.2512"/>
</g>
<!-- Node31 -->
<g id="node29" class="node">
<title>Node31</title>
<g id="a_node29"><a xlink:href="system__status__led_8h.html" target="_top" xlink:title=" ">
<polygon fill="#ffffff" stroke="#ff0000" points="673.8203,-395.5 673.8203,-423.5 788.1797,-423.5 788.1797,-395.5 673.8203,-395.5"/>
<text text-anchor="start" x="681.8203" y="-411.5" font-family="Helvetica,sans-Serif" font-size="10.00" fill="#000000">system/system_status</text>
<text text-anchor="middle" x="731" y="-401.5" font-family="Helvetica,sans-Serif" font-size="10.00" fill="#000000">_led.h</text>
</a>
</g>
</g>
<!-- Node2&#45;&gt;Node31 -->
<g id="edge53" class="edge">
<title>Node2&#45;&gt;Node31</title>
<path fill="none" stroke="#191970" d="M695.3789,-460.3873C700.6326,-452.8821 708.3099,-441.9144 715.1931,-432.0813"/>
<polygon fill="#191970" stroke="#191970" points="718.0893,-434.0471 720.9566,-423.8477 712.3547,-430.0329 718.0893,-434.0471"/>
</g>
<!-- Node4&#45;&gt;Node5 -->
<g id="edge5" class="edge">
<title>Node4&#45;&gt;Node5</title>
<path fill="none" stroke="#191970" d="M659.2954,-330.4327C622.6485,-320.0609 573.3548,-306.1098 538.7421,-296.3138"/>
<polygon fill="#191970" stroke="#191970" points="539.5227,-292.8973 528.9474,-293.5417 537.6163,-299.6327 539.5227,-292.8973"/>
</g>
<!-- Node4&#45;&gt;Node16 -->
<g id="edge37" class="edge">
<title>Node4&#45;&gt;Node16</title>
<path fill="none" stroke="#191970" d="M724.3087,-330.3262C741.8612,-314.7589 772.0836,-289.9848 802,-275 852.5472,-249.6815 879.0395,-273.2725 924,-239 939.3469,-227.3014 950.2256,-207.8784 956.7257,-193.3978"/>
<polygon fill="#191970" stroke="#191970" points="960.0645,-194.4848 960.6862,-183.9082 953.6046,-191.7887 960.0645,-194.4848"/>
</g>
<!-- Node4&#45;&gt;Node22 -->
<g id="edge26" class="edge">
<title>Node4&#45;&gt;Node22</title>
<path fill="none" stroke="#191970" d="M709,-330.2808C709,-322.3776 709,-312.4316 709,-303.8308"/>
<polygon fill="#191970" stroke="#191970" points="712.5001,-303.5842 709,-293.5842 705.5001,-303.5842 712.5001,-303.5842"/>
</g>
<!-- Node6 -->
<g id="node7" class="node">
<title>Node6</title>
<g id="a_node7"><a xlink:title=" ">
<polygon fill="#ffffff" stroke="#bfbfbf" points="1451.5962,-165.5 1451.5962,-183.5 1510.4038,-183.5 1510.4038,-165.5 1451.5962,-165.5"/>
<text text-anchor="middle" x="1481" y="-171.5" font-family="Helvetica,sans-Serif" font-size="10.00" fill="#000000">Arduino.h</text>
</a>
</g>
</g>
<!-- Node5&#45;&gt;Node6 -->
<g id="edge6" class="edge">
<title>Node5&#45;&gt;Node6</title>
<path fill="none" stroke="#191970" d="M509.6331,-275.2599C533.1205,-258.1665 581.9541,-223.0604 591,-220 672.1231,-192.5545 1278.676,-178.548 1441.0944,-175.2643"/>
<polygon fill="#191970" stroke="#191970" points="1441.6468,-178.754 1451.5749,-175.0549 1441.5069,-171.7554 1441.6468,-178.754"/>
</g>
<!-- Node7 -->
<g id="node8" class="node">
<title>Node7</title>
<g id="a_node8"><a xlink:title=" ">
<polygon fill="#ffffff" stroke="#bfbfbf" points="65.9321,-220.5 65.9321,-238.5 186.0679,-238.5 186.0679,-220.5 65.9321,-220.5"/>
<text text-anchor="middle" x="126" y="-226.5" font-family="Helvetica,sans-Serif" font-size="10.00" fill="#000000">ESPAsyncWebServer.h</text>
</a>
</g>
</g>
<!-- Node5&#45;&gt;Node7 -->
<g id="edge7" class="edge">
<title>Node5&#45;&gt;Node7</title>
<path fill="none" stroke="#191970" d="M452.2487,-277.8657C388.7458,-268.4515 271.8569,-251.123 196.5969,-239.9659"/>
<polygon fill="#191970" stroke="#191970" points="196.6688,-236.4383 186.2636,-238.434 195.6422,-243.3627 196.6688,-236.4383"/>
</g>
<!-- Node8 -->
<g id="node9" class="node">
<title>Node8</title>
<g id="a_node9"><a xlink:title=" ">
<polygon fill="#ffffff" stroke="#bfbfbf" points="338.1226,-220.5 338.1226,-238.5 467.8774,-238.5 467.8774,-220.5 338.1226,-220.5"/>
<text text-anchor="middle" x="403" y="-226.5" font-family="Helvetica,sans-Serif" font-size="10.00" fill="#000000">ESPAsyncWiFiManager.h</text>
</a>
</g>
</g>
<!-- Node5&#45;&gt;Node8 -->
<g id="edge8" class="edge">
<title>Node5&#45;&gt;Node8</title>
<path fill="none" stroke="#191970" d="M481.4778,-275.4179C466.7825,-266.8195 444.4888,-253.7754 427.4134,-243.7844"/>
<polygon fill="#191970" stroke="#191970" points="428.9439,-240.6249 418.5452,-238.5956 425.4088,-246.6667 428.9439,-240.6249"/>
</g>
<!-- Node9 -->
<g id="node10" class="node">
<title>Node9</title>
<g id="a_node10"><a xlink:href="configurable_8h.html" target="_top" xlink:title=" ">
<polygon fill="#ffffff" stroke="#ff0000" points="1216.3647,-220.5 1216.3647,-238.5 1329.6353,-238.5 1329.6353,-220.5 1216.3647,-220.5"/>
<text text-anchor="middle" x="1273" y="-226.5" font-family="Helvetica,sans-Serif" font-size="10.00" fill="#000000">system/configurable.h</text>
</a>
</g>
</g>
<!-- Node5&#45;&gt;Node9 -->
<g id="edge9" class="edge">
<title>Node5&#45;&gt;Node9</title>
<path fill="none" stroke="#191970" d="M541.7913,-281.3254C672.0192,-272.0953 1051.0881,-245.2283 1205.9284,-234.2538"/>
<polygon fill="#191970" stroke="#191970" points="1206.5133,-237.7212 1216.2408,-233.5229 1206.0184,-230.7387 1206.5133,-237.7212"/>
</g>
<!-- Node5&#45;&gt;Node12 -->
<g id="edge12" class="edge">
<title>Node5&#45;&gt;Node12</title>
<path fill="none" stroke="#191970" d="M524.9069,-275.4179C553.2466,-266.1949 597.304,-251.8567 628.6411,-241.6582"/>
<polygon fill="#191970" stroke="#191970" points="629.9066,-244.9271 638.3325,-238.5042 627.7403,-238.2708 629.9066,-244.9271"/>
</g>
<!-- Node5&#45;&gt;Node16 -->
<g id="edge25" class="edge">
<title>Node5&#45;&gt;Node16</title>
<path fill="none" stroke="#191970" d="M502.7385,-275.0661C512.2108,-260.4375 532.6195,-232.652 558,-220 618.5569,-189.8128 814.3714,-179.3486 910.1893,-175.9765"/>
<polygon fill="#191970" stroke="#191970" points="910.3779,-179.4722 920.2536,-175.6355 910.1408,-172.4762 910.3779,-179.4722"/>
</g>
<!-- Node9&#45;&gt;Node6 -->
<g id="edge11" class="edge">
<title>Node9&#45;&gt;Node6</title>
<path fill="none" stroke="#191970" d="M1307.347,-220.4179C1344.2075,-210.6711 1402.6727,-195.2116 1441.4334,-184.9623"/>
<polygon fill="#191970" stroke="#191970" points="1442.55,-188.2874 1451.323,-182.3473 1440.7605,-181.52 1442.55,-188.2874"/>
</g>
<!-- Node10 -->
<g id="node11" class="node">
<title>Node10</title>
<g id="a_node11"><a xlink:title=" ">
<polygon fill="#ffffff" stroke="#bfbfbf" points="1365.0347,-55.5 1365.0347,-73.5 1444.9653,-73.5 1444.9653,-55.5 1365.0347,-55.5"/>
<text text-anchor="middle" x="1405" y="-61.5" font-family="Helvetica,sans-Serif" font-size="10.00" fill="#000000">ArduinoJson.h</text>
</a>
</g>
</g>
<!-- Node9&#45;&gt;Node10 -->
<g id="edge10" class="edge">
<title>Node9&#45;&gt;Node10</title>
<path fill="none" stroke="#191970" d="M1280.4751,-220.1561C1301.8027,-193.4967 1363.1937,-116.7578 1391.0074,-81.9907"/>
<polygon fill="#191970" stroke="#191970" points="1394.0929,-83.7365 1397.6069,-73.7414 1388.6268,-79.3637 1394.0929,-83.7365"/>
</g>
<!-- Node13 -->
<g id="node13" class="node">
<title>Node13</title>
<g id="a_node13"><a xlink:href="observable_8h.html" target="_top" xlink:title=" ">
<polygon fill="#ffffff" stroke="#000000" points="1088.3696,-110.5 1088.3696,-128.5 1161.6304,-128.5 1161.6304,-110.5 1088.3696,-110.5"/>
<text text-anchor="middle" x="1125" y="-116.5" font-family="Helvetica,sans-Serif" font-size="10.00" fill="#000000">observable.h</text>
</a>
</g>
</g>
<!-- Node12&#45;&gt;Node13 -->
<g id="edge13" class="edge">
<title>Node12&#45;&gt;Node13</title>
<path fill="none" stroke="#191970" d="M698.3727,-220.4479C745.1408,-207.4915 834.4044,-183.2142 911,-165 968.3022,-151.3737 1034.7044,-137.5606 1078.1571,-128.7867"/>
<polygon fill="#191970" stroke="#191970" points="1079.0356,-132.1802 1088.1488,-126.7764 1077.6548,-125.3177 1079.0356,-132.1802"/>
</g>
<!-- Node12&#45;&gt;Node16 -->
<g id="edge17" class="edge">
<title>Node12&#45;&gt;Node16</title>
<path fill="none" stroke="#191970" d="M714.8749,-220.4795C768.5037,-210.5815 854.3407,-194.7391 909.9437,-184.4768"/>
<polygon fill="#191970" stroke="#191970" points="910.7609,-187.8852 919.9596,-182.6283 909.4904,-181.0015 910.7609,-187.8852"/>
</g>
<!-- Node13&#45;&gt;Node3 -->
<g id="edge14" class="edge">
<title>Node13&#45;&gt;Node3</title>
<path fill="none" stroke="#191970" d="M1088.1232,-117.2414C944.877,-108.468 425.68,-76.6686 270.8648,-67.1866"/>
<polygon fill="#191970" stroke="#191970" points="270.9747,-63.6869 260.7794,-66.5689 270.5467,-70.6738 270.9747,-63.6869"/>
</g>
<!-- Node14 -->
<g id="node14" class="node">
<title>Node14</title>
<g id="a_node14"><a xlink:title=" ">
<polygon fill="#ffffff" stroke="#bfbfbf" points="504.5962,-55.5 504.5962,-73.5 563.4038,-73.5 563.4038,-55.5 504.5962,-55.5"/>
<text text-anchor="middle" x="534" y="-61.5" font-family="Helvetica,sans-Serif" font-size="10.00" fill="#000000">functional</text>
</a>
</g>
</g>
<!-- Node13&#45;&gt;Node14 -->
<g id="edge15" class="edge">
<title>Node13&#45;&gt;Node14</title>
<path fill="none" stroke="#191970" d="M1088.0303,-116.0595C982.8695,-106.273 682.6563,-78.3343 573.9296,-68.216"/>
<polygon fill="#191970" stroke="#191970" points="574.0005,-64.7075 563.7192,-67.2657 573.3518,-71.6774 574.0005,-64.7075"/>
</g>
<!-- Node15 -->
<g id="node15" class="node">
<title>Node15</title>
<g id="a_node15"><a xlink:title=" ">
<polygon fill="#ffffff" stroke="#bfbfbf" points="2071.3843,-55.5 2071.3843,-73.5 2114.6157,-73.5 2114.6157,-55.5 2071.3843,-55.5"/>
<text text-anchor="middle" x="2093" y="-61.5" font-family="Helvetica,sans-Serif" font-size="10.00" fill="#000000">vector</text>
</a>
</g>
</g>
<!-- Node13&#45;&gt;Node15 -->
<g id="edge16" class="edge">
<title>Node13&#45;&gt;Node15</title>
<path fill="none" stroke="#191970" d="M1162.0111,-117.6074C1278.1487,-111.6367 1645.7372,-92.4963 1950,-74 1988.0979,-71.684 2031.8847,-68.7324 2060.8626,-66.7386"/>
<polygon fill="#191970" stroke="#191970" points="2061.4658,-70.2054 2071.2008,-66.0247 2060.9834,-63.222 2061.4658,-70.2054"/>
</g>
<!-- Node16&#45;&gt;Node10 -->
<g id="edge18" class="edge">
<title>Node16&#45;&gt;Node10</title>
<path fill="none" stroke="#191970" d="M969.3454,-165.0905C978.1999,-150.4952 997.4005,-122.7545 1022,-110 1078.824,-80.5375 1264.378,-69.7044 1354.7001,-66.1073"/>
<polygon fill="#191970" stroke="#191970" points="1355.1085,-69.5943 1364.9669,-65.7134 1354.84,-62.5995 1355.1085,-69.5943"/>
</g>
<!-- Node16&#45;&gt;Node13 -->
<g id="edge19" class="edge">
<title>Node16&#45;&gt;Node13</title>
<path fill="none" stroke="#191970" d="M990.5859,-165.4179C1017.4671,-156.2348 1059.1927,-141.9807 1089.0212,-131.7909"/>
<polygon fill="#191970" stroke="#191970" points="1090.3106,-135.0491 1098.6422,-128.5042 1088.0477,-128.4249 1090.3106,-135.0491"/>
</g>
<!-- Node16&#45;&gt;Node17 -->
<g id="edge20" class="edge">
<title>Node16&#45;&gt;Node17</title>
<path fill="none" stroke="#191970" d="M1007.9386,-169.8217C1024.274,-168.1694 1042.9729,-166.3808 1060,-165 1306.8151,-144.9846 1601.8989,-128.7146 1722.9775,-122.3678"/>
<polygon fill="#191970" stroke="#191970" points="1723.3115,-125.8552 1733.1153,-121.8383 1722.9463,-118.8647 1723.3115,-125.8552"/>
</g>
<!-- Node17&#45;&gt;Node10 -->
<g id="edge21" class="edge">
<title>Node17&#45;&gt;Node10</title>
<path fill="none" stroke="#191970" d="M1733.1473,-112.1766C1728.3713,-111.4327 1723.588,-110.6956 1719,-110 1625.882,-95.8822 1517.0795,-80.3259 1455.0823,-71.5505"/>
<polygon fill="#191970" stroke="#191970" points="1455.5657,-68.0841 1445.1741,-70.1494 1454.5855,-75.0151 1455.5657,-68.0841"/>
</g>
<!-- Node17&#45;&gt;Node19 -->
<g id="edge22" class="edge">
<title>Node17&#45;&gt;Node19</title>
<path fill="none" stroke="#191970" d="M1800.632,-110.4179C1821.965,-101.4613 1854.7879,-87.6806 1878.9125,-77.552"/>
<polygon fill="#191970" stroke="#191970" points="1880.4705,-80.6939 1888.3359,-73.5956 1877.7606,-74.2397 1880.4705,-80.6939"/>
</g>
<!-- Node20 -->
<g id="node19" class="node">
<title>Node20</title>
<g id="a_node19"><a xlink:title=" ">
<polygon fill="#ffffff" stroke="#bfbfbf" points="1826.4082,-.5 1826.4082,-18.5 1895.5918,-18.5 1895.5918,-.5 1826.4082,-.5"/>
<text text-anchor="middle" x="1861" y="-6.5" font-family="Helvetica,sans-Serif" font-size="10.00" fill="#000000">ReactESP.h</text>
</a>
</g>
</g>
<!-- Node19&#45;&gt;Node20 -->
<g id="edge23" class="edge">
<title>Node19&#45;&gt;Node20</title>
<path fill="none" stroke="#191970" d="M1901.9086,-55.4179C1894.9287,-47.5833 1884.6603,-36.0575 1876.1577,-26.5137"/>
<polygon fill="#191970" stroke="#191970" points="1878.5326,-23.9178 1869.2672,-18.7795 1873.3059,-28.5743 1878.5326,-23.9178"/>
</g>
<!-- Node21 -->
<g id="node20" class="node">
<title>Node21</title>
<g id="a_node20"><a xlink:title=" ">
<polygon fill="#ffffff" stroke="#bfbfbf" points="1913.5889,-.5 1913.5889,-18.5 2002.4111,-18.5 2002.4111,-.5 1913.5889,-.5"/>
<text text-anchor="middle" x="1958" y="-6.5" font-family="Helvetica,sans-Serif" font-size="10.00" fill="#000000">RemoteDebug.h</text>
</a>
</g>
</g>
<!-- Node19&#45;&gt;Node21 -->
<g id="edge24" class="edge">
<title>Node19&#45;&gt;Node21</title>
<path fill="none" stroke="#191970" d="M1917.9262,-55.4179C1924.7637,-47.5833 1934.8225,-36.0575 1943.1517,-26.5137"/>
<polygon fill="#191970" stroke="#191970" points="1945.9632,-28.6151 1949.9016,-18.7795 1940.6892,-24.0123 1945.9632,-28.6151"/>
</g>
<!-- Node22&#45;&gt;Node9 -->
<g id="edge34" class="edge">
<title>Node22&#45;&gt;Node9</title>
<path fill="none" stroke="#191970" d="M750.4723,-280.4557C847.2463,-271.0185 1088.6712,-247.4753 1206.3746,-235.9972"/>
<polygon fill="#191970" stroke="#191970" points="1206.7312,-239.4791 1216.3443,-235.0249 1206.0518,-232.5121 1206.7312,-239.4791"/>
</g>
<!-- Node22&#45;&gt;Node12 -->
<g id="edge35" class="edge">
<title>Node22&#45;&gt;Node12</title>
<path fill="none" stroke="#191970" d="M701.8994,-275.4179C695.8361,-267.6624 686.9449,-256.29 679.5282,-246.8035"/>
<polygon fill="#191970" stroke="#191970" points="682.1714,-244.5018 673.2548,-238.7795 676.6568,-248.8133 682.1714,-244.5018"/>
</g>
<!-- Node22&#45;&gt;Node14 -->
<g id="edge28" class="edge">
<title>Node22&#45;&gt;Node14</title>
<path fill="none" stroke="#191970" d="M667.6609,-277.8205C642.4,-271.7213 611.1774,-260.2614 591,-239 549.0318,-194.7772 537.9573,-119.207 535.0401,-83.8318"/>
<polygon fill="#191970" stroke="#191970" points="538.5315,-83.5845 534.3508,-73.8494 531.5481,-84.0668 538.5315,-83.5845"/>
</g>
<!-- Node22&#45;&gt;Node16 -->
<g id="edge36" class="edge">
<title>Node22&#45;&gt;Node16</title>
<path fill="none" stroke="#191970" d="M750.1578,-277.245C797.7872,-268.3909 872.8945,-252.8811 898,-239 919.566,-227.0759 939.0428,-206.1962 951.1556,-191.4271"/>
<polygon fill="#191970" stroke="#191970" points="953.9291,-193.5626 957.3967,-183.5513 948.4428,-189.2151 953.9291,-193.5626"/>
</g>
<!-- Node22&#45;&gt;Node19 -->
<g id="edge30" class="edge">
<title>Node22&#45;&gt;Node19</title>
<path fill="none" stroke="#191970" d="M750.4023,-275.9426C790.2259,-267.0966 846.9659,-252.6872 865,-239 895.8471,-215.5882 882.333,-191.0357 911,-165 951.7569,-127.984 968.7316,-123.9208 1022,-110 1104.3889,-88.4691 1704.4731,-70.2513 1868.6043,-65.6312"/>
<polygon fill="#191970" stroke="#191970" points="1868.8766,-69.1251 1878.7748,-65.3467 1868.6808,-62.1278 1868.8766,-69.1251"/>
</g>
<!-- Node23 -->
<g id="node22" class="node">
<title>Node23</title>
<g id="a_node22"><a xlink:title=" ">
<polygon fill="#ffffff" stroke="#bfbfbf" points="750.0684,-220.5 750.0684,-238.5 855.9316,-238.5 855.9316,-220.5 750.0684,-220.5"/>
<text text-anchor="middle" x="803" y="-226.5" font-family="Helvetica,sans-Serif" font-size="10.00" fill="#000000">WebSocketsClient.h</text>
</a>
</g>
</g>
<!-- Node22&#45;&gt;Node23 -->
<g id="edge27" class="edge">
<title>Node22&#45;&gt;Node23</title>
<path fill="none" stroke="#191970" d="M724.5222,-275.4179C739.2175,-266.8195 761.5112,-253.7754 778.5866,-243.7844"/>
<polygon fill="#191970" stroke="#191970" points="780.5912,-246.6667 787.4548,-238.5956 777.0561,-240.6249 780.5912,-246.6667"/>
</g>
<!-- Node24 -->
<g id="node23" class="node">
<title>Node24</title>
<g id="a_node23"><a xlink:title=" ">
<polygon fill="#ffffff" stroke="#bfbfbf" points="1347.3301,-220.5 1347.3301,-238.5 1376.6699,-238.5 1376.6699,-220.5 1347.3301,-220.5"/>
<text text-anchor="middle" x="1362" y="-226.5" font-family="Helvetica,sans-Serif" font-size="10.00" fill="#000000">set</text>
</a>
</g>
</g>
<!-- Node22&#45;&gt;Node24 -->
<g id="edge29" class="edge">
<title>Node22&#45;&gt;Node24</title>
<path fill="none" stroke="#191970" d="M750.1553,-282.2916C875.4717,-275.4654 1248.7674,-254.3465 1337.1937,-238.4956"/>
<polygon fill="#191970" stroke="#191970" points="1338.049,-241.893 1347.1347,-236.4433 1336.6336,-235.0375 1338.049,-241.893"/>
</g>
<!-- Node22&#45;&gt;Node25 -->
<g id="edge31" class="edge">
<title>Node22&#45;&gt;Node25</title>
<path fill="none" stroke="#191970" d="M667.9141,-279.8762C599.9457,-272.1624 459.5643,-255.9583 330.5167,-239.1771"/>
<polygon fill="#191970" stroke="#191970" points="330.8241,-235.6876 320.4553,-237.8645 329.9185,-242.6288 330.8241,-235.6876"/>
</g>
<!-- Node25&#45;&gt;Node10 -->
<g id="edge33" class="edge">
<title>Node25&#45;&gt;Node10</title>
<path fill="none" stroke="#191970" d="M300.1666,-220.4873C395.6268,-198.2764 652.6774,-140.5053 870,-110 1047.2862,-85.1146 1259.669,-71.9599 1354.7137,-66.9406"/>
<polygon fill="#191970" stroke="#191970" points="1355.0955,-70.4256 1364.8999,-66.4103 1354.7314,-63.4351 1355.0955,-70.4256"/>
</g>
<!-- Node26 -->
<g id="node25" class="node">
<title>Node26</title>
<g id="a_node25"><a xlink:title=" ">
<polygon fill="#ffffff" stroke="#bfbfbf" points="247.5,-165.5 247.5,-183.5 276.5,-183.5 276.5,-165.5 247.5,-165.5"/>
<text text-anchor="middle" x="261.6108" y="-171.5" font-family="Helvetica,sans-Serif" font-size="10.00" fill="#000000">list</text>
</a>
</g>
</g>
<!-- Node25&#45;&gt;Node26 -->
<g id="edge32" class="edge">
<title>Node25&#45;&gt;Node26</title>
<path fill="none" stroke="#191970" d="M262,-220.4179C262,-213.2164 262,-202.8962 262,-193.8632"/>
<polygon fill="#191970" stroke="#191970" points="265.5001,-193.7794 262,-183.7795 258.5001,-193.7795 265.5001,-193.7794"/>
</g>
<!-- Node27&#45;&gt;Node7 -->
<g id="edge39" class="edge">
<title>Node27&#45;&gt;Node7</title>
<path fill="none" stroke="#191970" d="M126,-275.4179C126,-268.2164 126,-257.8962 126,-248.8632"/>
<polygon fill="#191970" stroke="#191970" points="129.5001,-248.7794 126,-238.7795 122.5001,-248.7795 129.5001,-248.7794"/>
</g>
<!-- Node27&#45;&gt;Node14 -->
<g id="edge40" class="edge">
<title>Node27&#45;&gt;Node14</title>
<path fill="none" stroke="#191970" d="M102.7833,-275.3951C76.8489,-263.8485 40.5292,-242.6933 57,-220 110.0419,-146.9193 390.0778,-90.2118 494.6072,-71.2963"/>
<polygon fill="#191970" stroke="#191970" points="495.2247,-74.7415 504.4509,-69.5332 493.9905,-67.8511 495.2247,-74.7415"/>
</g>
<!-- Node28&#45;&gt;Node9 -->
<g id="edge46" class="edge">
<title>Node28&#45;&gt;Node9</title>
<path fill="none" stroke="#191970" d="M1335.6153,-275.4179C1324.216,-267.0584 1307.0863,-254.4966 1293.6235,-244.6239"/>
<polygon fill="#191970" stroke="#191970" points="1295.537,-241.6869 1285.4031,-238.5956 1291.3974,-247.3317 1295.537,-241.6869"/>
</g>
<!-- Node28&#45;&gt;Node13 -->
<g id="edge47" class="edge">
<title>Node28&#45;&gt;Node13</title>
<path fill="none" stroke="#191970" d="M1301.9339,-277.5273C1272.5253,-271.2769 1234.8367,-259.759 1207,-239 1170.853,-212.0436 1145.13,-164.2663 1132.9507,-138.0294"/>
<polygon fill="#191970" stroke="#191970" points="1136.1068,-136.5135 1128.8238,-128.8188 1129.7187,-139.3758 1136.1068,-136.5135"/>
</g>
<!-- Node28&#45;&gt;Node16 -->
<g id="edge48" class="edge">
<title>Node28&#45;&gt;Node16</title>
<path fill="none" stroke="#191970" d="M1302.0232,-276.6562C1258.75,-268.799 1192.3538,-255.516 1136,-239 1085.4436,-224.1831 1028.514,-201.631 994.4878,-187.4963"/>
<polygon fill="#191970" stroke="#191970" points="995.685,-184.2032 985.109,-183.572 992.983,-190.6608 995.685,-184.2032"/>
</g>
<!-- Node28&#45;&gt;Node24 -->
<g id="edge45" class="edge">
<title>Node28&#45;&gt;Node24</title>
<path fill="none" stroke="#191970" d="M1350.3118,-275.4179C1352.1651,-268.1372 1354.8297,-257.669 1357.1469,-248.5659"/>
<polygon fill="#191970" stroke="#191970" points="1360.5629,-249.3338 1359.638,-238.7795 1353.7792,-247.607 1360.5629,-249.3338"/>
</g>
<!-- Node29 -->
<g id="node28" class="node">
<title>Node29</title>
<g id="a_node28"><a xlink:href="enable_8h.html" target="_top" xlink:title=" ">
<polygon fill="#ffffff" stroke="#ff0000" points="1812.5913,-220.5 1812.5913,-238.5 1901.4087,-238.5 1901.4087,-220.5 1812.5913,-220.5"/>
<text text-anchor="middle" x="1857" y="-226.5" font-family="Helvetica,sans-Serif" font-size="10.00" fill="#000000">system/enable.h</text>
</a>
</g>
</g>
<!-- Node28&#45;&gt;Node29 -->
<g id="edge49" class="edge">
<title>Node28&#45;&gt;Node29</title>
<path fill="none" stroke="#191970" d="M1394.0681,-279.5221C1488.1132,-269.3601 1701.7884,-246.2714 1802.524,-235.3864"/>
<polygon fill="#191970" stroke="#191970" points="1802.9277,-238.8633 1812.4938,-234.3091 1802.1756,-231.9038 1802.9277,-238.8633"/>
</g>
<!-- Node29&#45;&gt;Node19 -->
<g id="edge50" class="edge">
<title>Node29&#45;&gt;Node19</title>
<path fill="none" stroke="#191970" d="M1860.0014,-220.1561C1868.4554,-193.837 1892.5874,-118.709 1903.9475,-83.3426"/>
<polygon fill="#191970" stroke="#191970" points="1907.3056,-84.3327 1907.0316,-73.7414 1900.6409,-82.1919 1907.3056,-84.3327"/>
</g>
<!-- Node31&#45;&gt;Node4 -->
<g id="edge54" class="edge">
<title>Node31&#45;&gt;Node4</title>
<path fill="none" stroke="#191970" d="M726.2263,-395.396C723.5452,-387.4745 720.1283,-377.379 717.0456,-368.2712"/>
<polygon fill="#191970" stroke="#191970" points="720.2856,-366.9266 713.7644,-358.5765 713.6551,-369.1708 720.2856,-366.9266"/>
</g>
<!-- Node34&#45;&gt;Node28 -->
<g id="edge58" class="edge">
<title>Node34&#45;&gt;Node28</title>
<path fill="none" stroke="#191970" d="M1315.7714,-335.3873C1321.2955,-326.665 1329.7814,-313.2663 1336.6591,-302.4067"/>
<polygon fill="#191970" stroke="#191970" points="1339.7806,-304.0194 1342.1743,-293.6985 1333.8669,-300.274 1339.7806,-304.0194"/>
</g>
<!-- Node35 -->
<g id="node31" class="node">
<title>Node35</title>
<g id="a_node31"><a xlink:href="nmea__parser_8h.html" target="_top" xlink:title=" ">
<polygon fill="#ffffff" stroke="#ff0000" points="1128.4189,-275.5 1128.4189,-293.5 1245.5811,-293.5 1245.5811,-275.5 1128.4189,-275.5"/>
<text text-anchor="middle" x="1187" y="-281.5" font-family="Helvetica,sans-Serif" font-size="10.00" fill="#000000">system/nmea_parser.h</text>
</a>
</g>
</g>
<!-- Node34&#45;&gt;Node35 -->
<g id="edge59" class="edge">
<title>Node34&#45;&gt;Node35</title>
<path fill="none" stroke="#191970" d="M1291.3189,-335.3873C1270.8819,-325.418 1237.9208,-309.3394 1214.5227,-297.9257"/>
<polygon fill="#191970" stroke="#191970" points="1215.976,-294.7405 1205.4538,-293.5019 1212.907,-301.0319 1215.976,-294.7405"/>
</g>
<!-- Node35&#45;&gt;Node6 -->
<g id="edge60" class="edge">
<title>Node35&#45;&gt;Node6</title>
<path fill="none" stroke="#191970" d="M1186.9986,-275.429C1187.5241,-261.2976 1190.7443,-234.181 1207,-220 1241.2333,-190.1359 1373.505,-179.5845 1440.9548,-176.0948"/>
<polygon fill="#191970" stroke="#191970" points="1441.3816,-179.5782 1451.1985,-175.5935 1441.0394,-172.5866 1441.3816,-179.5782"/>
</g>
<!-- Node35&#45;&gt;Node12 -->
<g id="edge61" class="edge">
<title>Node35&#45;&gt;Node12</title>
<path fill="none" stroke="#191970" d="M1128.4156,-276.1493C1125.2324,-275.7474 1122.0781,-275.3614 1119,-275 954.583,-255.695 910.4015,-257.5266 741.7979,-239.0556"/>
<polygon fill="#191970" stroke="#191970" points="742.1599,-235.5744 731.8364,-237.9566 741.3922,-242.5322 742.1599,-235.5744"/>
</g>
<!-- Node36&#45;&gt;Node24 -->
<g id="edge63" class="edge">
<title>Node36&#45;&gt;Node24</title>
<path fill="none" stroke="#191970" d="M1154.3257,-335.4643C1180.3966,-326.1854 1221.2024,-310.7649 1255,-294 1285.4675,-278.8869 1318.7532,-258.0904 1339.9752,-244.242"/>
<polygon fill="#191970" stroke="#191970" points="1342.1291,-247.0145 1348.5559,-238.5915 1338.2792,-241.1682 1342.1291,-247.0145"/>
</g>
<!-- Node36&#45;&gt;Node28 -->
<g id="edge66" class="edge">
<title>Node36&#45;&gt;Node28</title>
<path fill="none" stroke="#191970" d="M1161.4133,-335.3873C1199.917,-324.8863 1263.2743,-307.607 1305.3165,-296.141"/>
<polygon fill="#191970" stroke="#191970" points="1306.2664,-299.5098 1314.9931,-293.5019 1304.4246,-292.7564 1306.2664,-299.5098"/>
</g>
<!-- Node37 -->
<g id="node33" class="node">
<title>Node37</title>
<g id="a_node33"><a xlink:title=" ">
<polygon fill="#ffffff" stroke="#bfbfbf" points="1001.8672,-275.5 1001.8672,-293.5 1110.1328,-293.5 1110.1328,-275.5 1001.8672,-275.5"/>
<text text-anchor="middle" x="1056" y="-281.5" font-family="Helvetica,sans-Serif" font-size="10.00" fill="#000000">DallasTemperature.h</text>
</a>
</g>
</g>
<!-- Node36&#45;&gt;Node37 -->
<g id="edge64" class="edge">
<title>Node36&#45;&gt;Node37</title>
<path fill="none" stroke="#191970" d="M1117.0647,-335.3873C1105.8579,-326.0483 1088.2177,-311.3481 1074.7726,-300.1438"/>
<polygon fill="#191970" stroke="#191970" points="1076.9611,-297.4116 1067.0382,-293.6985 1072.4797,-302.7891 1076.9611,-297.4116"/>
</g>
<!-- Node38 -->
<g id="node34" class="node">
<title>Node38</title>
<g id="a_node34"><a xlink:title=" ">
<polygon fill="#ffffff" stroke="#bfbfbf" points="920.1035,-275.5 920.1035,-293.5 983.8965,-293.5 983.8965,-275.5 920.1035,-275.5"/>
<text text-anchor="middle" x="952" y="-281.5" font-family="Helvetica,sans-Serif" font-size="10.00" fill="#000000">OneWire.h</text>
</a>
</g>
</g>
<!-- Node36&#45;&gt;Node38 -->
<g id="edge65" class="edge">
<title>Node36&#45;&gt;Node38</title>
<path fill="none" stroke="#191970" d="M1101.2694,-335.3873C1071.1163,-325.1078 1021.9104,-308.3331 988.298,-296.8743"/>
<polygon fill="#191970" stroke="#191970" points="989,-293.4159 978.4055,-293.5019 986.7412,-300.0415 989,-293.4159"/>
</g>
<!-- Node39&#45;&gt;Node28 -->
<g id="edge72" class="edge">
<title>Node39&#45;&gt;Node28</title>
<path fill="none" stroke="#191970" d="M2190.083,-337.97C2163.9709,-335.2636 2132.9926,-332.24 2105,-330 2035.853,-324.4668 1567.5251,-297.2079 1404.1164,-287.7438"/>
<polygon fill="#191970" stroke="#191970" points="1403.987,-284.2306 1393.8014,-287.1466 1403.5823,-291.2189 1403.987,-284.2306"/>
</g>
<!-- Node40 -->
<g id="node36" class="node">
<title>Node40</title>
<g id="a_node36"><a xlink:href="analog__reader_8h.html" target="_top" xlink:title=" ">
<polygon fill="#ffffff" stroke="#000000" points="2070.855,-220.5 2070.855,-238.5 2159.145,-238.5 2159.145,-220.5 2070.855,-220.5"/>
<text text-anchor="middle" x="2115" y="-226.5" font-family="Helvetica,sans-Serif" font-size="10.00" fill="#000000">analog_reader.h</text>
</a>
</g>
</g>
<!-- Node39&#45;&gt;Node40 -->
<g id="edge69" class="edge">
<title>Node39&#45;&gt;Node40</title>
<path fill="none" stroke="#191970" d="M2239.4068,-335.4761C2216.551,-316.0064 2162.3588,-269.8427 2133.6283,-245.3685"/>
<polygon fill="#191970" stroke="#191970" points="2135.8011,-242.6217 2125.919,-238.8014 2131.2618,-247.9504 2135.8011,-242.6217"/>
</g>
<!-- Node40&#45;&gt;Node6 -->
<g id="edge70" class="edge">
<title>Node40&#45;&gt;Node6</title>
<path fill="none" stroke="#191970" d="M2070.6703,-225.6544C1952.7942,-215.4285 1632.9611,-187.6827 1520.6426,-177.939"/>
<polygon fill="#191970" stroke="#191970" points="1520.6997,-174.4309 1510.4346,-177.0535 1520.0947,-181.4047 1520.6997,-174.4309"/>
</g>
<!-- Node40&#45;&gt;Node19 -->
<g id="edge71" class="edge">
<title>Node40&#45;&gt;Node19</title>
<path fill="none" stroke="#191970" d="M2113.1382,-220.1766C2108.176,-197.77 2092.5156,-140.499 2057,-110 2027.1898,-84.4005 1983.1099,-73.1975 1950.9974,-68.2986"/>
<polygon fill="#191970" stroke="#191970" points="1951.4103,-64.8224 1941.0251,-66.9193 1950.4512,-71.7564 1951.4103,-64.8224"/>
</g>
<!-- Node41&#45;&gt;Node28 -->
<g id="edge74" class="edge">
<title>Node41&#45;&gt;Node28</title>
<path fill="none" stroke="#191970" d="M1392.3922,-400.1047C1384.5007,-379.5538 1365.5812,-330.2844 1355.1699,-303.1715"/>
<polygon fill="#191970" stroke="#191970" points="1358.3715,-301.7453 1351.5192,-293.6646 1351.8367,-304.2547 1358.3715,-301.7453"/>
</g>
<!-- Node43 -->
<g id="node39" class="node">
<title>Node43</title>
<g id="a_node39"><a xlink:href="signalk__emitter_8h.html" target="_top" xlink:title=" ">
<polygon fill="#ffffff" stroke="#ff0000" points="1525.5249,-275.5 1525.5249,-293.5 1650.4751,-293.5 1650.4751,-275.5 1525.5249,-275.5"/>
<text text-anchor="middle" x="1588" y="-281.5" font-family="Helvetica,sans-Serif" font-size="10.00" fill="#000000">signalk/signalk_emitter.h</text>
</a>
</g>
</g>
<!-- Node42&#45;&gt;Node43 -->
<g id="edge77" class="edge">
<title>Node42&#45;&gt;Node43</title>
<path fill="none" stroke="#191970" d="M1619.3805,-335.3873C1614.0018,-326.665 1605.7392,-313.2663 1599.0425,-302.4067"/>
<polygon fill="#191970" stroke="#191970" points="1601.9004,-300.3731 1593.6724,-293.6985 1595.9422,-304.0473 1601.9004,-300.3731"/>
</g>
<!-- Node42&#45;&gt;Node45 -->
<g id="edge85" class="edge">
<title>Node42&#45;&gt;Node45</title>
<path fill="none" stroke="#191970" d="M1664.0553,-335.4524C1709.7994,-324.8554 1785.6161,-307.2916 1835.1958,-295.806"/>
<polygon fill="#191970" stroke="#191970" points="1836.0989,-299.1895 1845.051,-293.5229 1834.5191,-292.3701 1836.0989,-299.1895"/>
</g>
<!-- Node43&#45;&gt;Node6 -->
<g id="edge80" class="edge">
<title>Node43&#45;&gt;Node6</title>
<path fill="none" stroke="#191970" d="M1578.9971,-275.4729C1569.8854,-266.3191 1555.4097,-251.7275 1543,-239 1527.1959,-222.7911 1509.2906,-204.1316 1496.7994,-191.0659"/>
<polygon fill="#191970" stroke="#191970" points="1499.2267,-188.5398 1489.7888,-183.7254 1494.1645,-193.3745 1499.2267,-188.5398"/>
</g>
<!-- Node43&#45;&gt;Node9 -->
<g id="edge82" class="edge">
<title>Node43&#45;&gt;Node9</title>
<path fill="none" stroke="#191970" d="M1536.3369,-275.4795C1481.0635,-265.8285 1393.4226,-250.5262 1334.5992,-240.2554"/>
<polygon fill="#191970" stroke="#191970" points="1335.1443,-236.7977 1324.6913,-238.5255 1333.9403,-243.6934 1335.1443,-236.7977"/>
</g>
<!-- Node43&#45;&gt;Node10 -->
<g id="edge78" class="edge">
<title>Node43&#45;&gt;Node10</title>
<path fill="none" stroke="#191970" d="M1588.8464,-275.3983C1589.6973,-262.5893 1590.0235,-238.7177 1583,-220 1556.6646,-149.8158 1477.2714,-100.6134 1433.9564,-78.1875"/>
<polygon fill="#191970" stroke="#191970" points="1435.2909,-74.9407 1424.7862,-73.5613 1432.1379,-81.1904 1435.2909,-74.9407"/>
</g>
<!-- Node43&#45;&gt;Node13 -->
<g id="edge83" class="edge">
<title>Node43&#45;&gt;Node13</title>
<path fill="none" stroke="#191970" d="M1585.7634,-275.3712C1579.6025,-252.3704 1560.0509,-191.9577 1519,-165 1490.5046,-146.2874 1270.3213,-129.2981 1172.0704,-122.5637"/>
<polygon fill="#191970" stroke="#191970" points="1172.0454,-119.0541 1161.8313,-121.8689 1171.5713,-126.038 1172.0454,-119.0541"/>
</g>
<!-- Node43&#45;&gt;Node16 -->
<g id="edge84" class="edge">
<title>Node43&#45;&gt;Node16</title>
<path fill="none" stroke="#191970" d="M1564.7795,-275.3869C1527.6327,-261.198 1452.2741,-234.0039 1386,-220 1255.5925,-192.4445 1098.7932,-181.1134 1017.9995,-176.8361"/>
<polygon fill="#191970" stroke="#191970" points="1017.7522,-173.3189 1007.5859,-176.3019 1017.3934,-180.3098 1017.7522,-173.3189"/>
</g>
<!-- Node43&#45;&gt;Node19 -->
<g id="edge81" class="edge">
<title>Node43&#45;&gt;Node19</title>
<path fill="none" stroke="#191970" d="M1650.7731,-280.0096C1739.6432,-273.0054 1893.2698,-258.2604 1910,-239 1948.1692,-195.0582 1929.0473,-118.7879 1917.1288,-83.4629"/>
<polygon fill="#191970" stroke="#191970" points="1920.3763,-82.1486 1913.7326,-73.8956 1913.7796,-84.4903 1920.3763,-82.1486"/>
</g>
<!-- Node43&#45;&gt;Node24 -->
<g id="edge79" class="edge">
<title>Node43&#45;&gt;Node24</title>
<path fill="none" stroke="#191970" d="M1550.9338,-275.4795C1504.5914,-264.2015 1426.5362,-245.2057 1386.8225,-235.5409"/>
<polygon fill="#191970" stroke="#191970" points="1387.464,-232.0949 1376.92,-233.131 1385.8088,-238.8964 1387.464,-232.0949"/>
</g>
<!-- Node45&#45;&gt;Node6 -->
<g id="edge88" class="edge">
<title>Node45&#45;&gt;Node6</title>
<path fill="none" stroke="#191970" d="M1825.4547,-275.7296C1779.1957,-268.0924 1713.2763,-255.6322 1657,-239 1634.997,-232.4971 1630.4793,-228.0659 1609,-220 1578.2032,-208.4353 1542.9665,-195.9651 1517.271,-187.0095"/>
<polygon fill="#191970" stroke="#191970" points="1518.1701,-183.6167 1507.5753,-183.6392 1515.8717,-190.2286 1518.1701,-183.6167"/>
</g>
<!-- Node45&#45;&gt;Node9 -->
<g id="edge90" class="edge">
<title>Node45&#45;&gt;Node9</title>
<path fill="none" stroke="#191970" d="M1825.7024,-280.8331C1727.5279,-274.3964 1522.7611,-259.8497 1339.7708,-239.1461"/>
<polygon fill="#191970" stroke="#191970" points="1340.0254,-235.6526 1329.6933,-237.9971 1339.2324,-242.6075 1340.0254,-235.6526"/>
</g>
<!-- Node45&#45;&gt;Node10 -->
<g id="edge86" class="edge">
<title>Node45&#45;&gt;Node10</title>
<path fill="none" stroke="#191970" d="M1891.8837,-275.4834C1901.6648,-263.1649 1916.3263,-240.2857 1910,-220 1892.3089,-163.2718 1885.0913,-140.3438 1834,-110 1802.0217,-91.0077 1561.3884,-74.0951 1455.1519,-67.4691"/>
<polygon fill="#191970" stroke="#191970" points="1455.1955,-63.9652 1444.9987,-66.8417 1454.7637,-70.9519 1455.1955,-63.9652"/>
</g>
<!-- Node45&#45;&gt;Node13 -->
<g id="edge92" class="edge">
<title>Node45&#45;&gt;Node13</title>
<path fill="none" stroke="#191970" d="M1863.2776,-275.382C1810.7142,-252.6715 1667.4524,-193.3723 1542,-165 1410.0498,-135.1581 1250.025,-124.667 1172.1475,-121.1566"/>
<polygon fill="#191970" stroke="#191970" points="1171.857,-117.6409 1161.7153,-120.7063 1171.555,-124.6344 1171.857,-117.6409"/>
</g>
<!-- Node45&#45;&gt;Node16 -->
<g id="edge94" class="edge">
<title>Node45&#45;&gt;Node16</title>
<path fill="none" stroke="#191970" d="M1826.7989,-275.4708C1741.2789,-262.1641 1574.9472,-237.0269 1433,-220 1282.9473,-202.0008 1105.2236,-186.2847 1017.9084,-178.9299"/>
<polygon fill="#191970" stroke="#191970" points="1017.974,-175.4232 1007.7164,-178.0748 1017.3887,-182.3986 1017.974,-175.4232"/>
</g>
<!-- Node45&#45;&gt;Node17 -->
<g id="edge93" class="edge">
<title>Node45&#45;&gt;Node17</title>
<path fill="none" stroke="#191970" d="M1856.1835,-275.4547C1838.5794,-268.3031 1816.8014,-256.5593 1804,-239 1782.1272,-208.9978 1778.4825,-164.1024 1778.3615,-138.7431"/>
<polygon fill="#191970" stroke="#191970" points="1781.8632,-138.6372 1778.501,-128.59 1774.8638,-138.5409 1781.8632,-138.6372"/>
</g>
<!-- Node45&#45;&gt;Node19 -->
<g id="edge89" class="edge">
<title>Node45&#45;&gt;Node19</title>
<path fill="none" stroke="#191970" d="M1928.0048,-275.4703C1963.0955,-267.2716 2008.1067,-254.1667 2019,-239 2053.8668,-190.4547 2023.9897,-151.5238 1981,-110 1968.0429,-97.4847 1951.1386,-86.4887 1937.0751,-78.4429"/>
<polygon fill="#191970" stroke="#191970" points="1938.758,-75.374 1928.3135,-73.5953 1935.3691,-81.4991 1938.758,-75.374"/>
</g>
<!-- Node45&#45;&gt;Node24 -->
<g id="edge87" class="edge">
<title>Node45&#45;&gt;Node24</title>
<path fill="none" stroke="#191970" d="M1825.6394,-278.3509C1712.0603,-266.3837 1465.5379,-240.4092 1386.7439,-232.1071"/>
<polygon fill="#191970" stroke="#191970" points="1387.082,-228.6234 1376.7702,-231.0563 1386.3484,-235.5849 1387.082,-228.6234"/>
</g>
<!-- Node45&#45;&gt;Node29 -->
<g id="edge91" class="edge">
<title>Node45&#45;&gt;Node29</title>
<path fill="none" stroke="#191970" d="M1879.5415,-275.4179C1875.8897,-267.9789 1870.6042,-257.2123 1866.0691,-247.9742"/>
<polygon fill="#191970" stroke="#191970" points="1869.104,-246.2138 1861.5554,-238.7795 1862.8203,-249.2985 1869.104,-246.2138"/>
</g>
<!-- Node46&#45;&gt;Node6 -->
<g id="edge98" class="edge">
<title>Node46&#45;&gt;Node6</title>
<path fill="none" stroke="#191970" d="M1533.275,-400.2305C1530.3422,-390.1304 1525.6127,-373.4768 1522,-359 1507.0107,-298.9339 1491.8457,-227.1906 1484.9057,-193.6083"/>
<polygon fill="#191970" stroke="#191970" points="1488.322,-192.8446 1482.8796,-183.7545 1481.4654,-194.2545 1488.322,-192.8446"/>
</g>
<!-- Node46&#45;&gt;Node10 -->
<g id="edge96" class="edge">
<title>Node46&#45;&gt;Node10</title>
<path fill="none" stroke="#191970" d="M1531.1416,-400.3097C1525.911,-390.2773 1517.4709,-373.6811 1511,-359 1477.3453,-282.6447 1470.768,-262.6874 1443,-184 1430.5542,-148.7319 1417.6998,-106.9838 1410.5899,-83.3351"/>
<polygon fill="#191970" stroke="#191970" points="1413.8852,-82.138 1407.6685,-73.5587 1407.1782,-84.1422 1413.8852,-82.138"/>
</g>
<!-- Node46&#45;&gt;Node19 -->
<g id="edge99" class="edge">
<title>Node46&#45;&gt;Node19</title>
<path fill="none" stroke="#191970" d="M1535.3535,-400.4413C1534.7109,-384.0066 1535.8735,-349.2048 1555,-330 1585.1797,-299.6968 1897.8489,-268.3037 1929,-239 1970.9117,-199.5739 1959.5029,-164.1355 1940,-110 1936.326,-99.8019 1929.9324,-89.6193 1923.989,-81.4806"/>
<polygon fill="#191970" stroke="#191970" points="1926.747,-79.3256 1917.8665,-73.5474 1921.2054,-83.6024 1926.747,-79.3256"/>
</g>
<!-- Node46&#45;&gt;Node24 -->
<g id="edge97" class="edge">
<title>Node46&#45;&gt;Node24</title>
<path fill="none" stroke="#191970" d="M1511.6773,-400.4885C1491.964,-392.1858 1464.5128,-378.234 1446,-359 1416.9155,-328.7824 1426.7946,-309.5373 1403,-275 1395.8682,-264.6484 1386.5799,-254.1544 1378.6477,-245.8571"/>
<polygon fill="#191970" stroke="#191970" points="1381.0762,-243.3347 1371.5727,-238.6513 1376.0813,-248.2389 1381.0762,-243.3347"/>
</g>
<!-- Node46&#45;&gt;Node34 -->
<g id="edge100" class="edge">
<title>Node46&#45;&gt;Node34</title>
<path fill="none" stroke="#191970" d="M1504.5757,-400.462C1464.6305,-388.9734 1395.5646,-369.1093 1351.3702,-356.3985"/>
<polygon fill="#191970" stroke="#191970" points="1352.0988,-352.9662 1341.5209,-353.5658 1350.1639,-359.6935 1352.0988,-352.9662"/>
</g>
<!-- Node46&#45;&gt;Node42 -->
<g id="edge101" class="edge">
<title>Node46&#45;&gt;Node42</title>
<path fill="none" stroke="#191970" d="M1548.3751,-400.462C1562.7734,-389.9464 1586.7795,-372.4138 1604.0885,-359.7725"/>
<polygon fill="#191970" stroke="#191970" points="1606.4318,-362.3951 1612.4431,-353.6708 1602.3033,-356.7422 1606.4318,-362.3951"/>
</g>
<!-- Node47&#45;&gt;Node43 -->
<g id="edge103" class="edge">
<title>Node47&#45;&gt;Node43</title>
<path fill="none" stroke="#191970" d="M1714.3329,-400.4785C1714.4399,-384.4103 1712.4039,-350.5932 1695,-330 1681.5125,-314.041 1661.4384,-303.5488 1642.3093,-296.7118"/>
<polygon fill="#191970" stroke="#191970" points="1643.3241,-293.3611 1632.731,-293.5507 1641.1303,-300.0084 1643.3241,-293.3611"/>
</g>
<!-- Node48 -->
<g id="node43" class="node">
<title>Node48</title>
<g id="a_node43"><a xlink:href="timestring_8h.html" target="_top" xlink:title=" ">
<polygon fill="#ffffff" stroke="#ff0000" points="1742.1528,-335.5 1742.1528,-353.5 1859.8472,-353.5 1859.8472,-335.5 1742.1528,-335.5"/>
<text text-anchor="middle" x="1801" y="-341.5" font-family="Helvetica,sans-Serif" font-size="10.00" fill="#000000">transforms/timestring.h</text>
</a>
</g>
</g>
<!-- Node47&#45;&gt;Node48 -->
<g id="edge104" class="edge">
<title>Node47&#45;&gt;Node48</title>
<path fill="none" stroke="#191970" d="M1726.097,-400.462C1740.1718,-389.9464 1763.6384,-372.4138 1780.5584,-359.7725"/>
<polygon fill="#191970" stroke="#191970" points="1782.8091,-362.4599 1788.7253,-353.6708 1778.6194,-356.8522 1782.8091,-362.4599"/>
</g>
<!-- Node48&#45;&gt;Node17 -->
<g id="edge105" class="edge">
<title>Node48&#45;&gt;Node17</title>
<path fill="none" stroke="#191970" d="M1798.401,-335.219C1791.2704,-308.7819 1772.1156,-230.7475 1775,-165 1775.3823,-156.2856 1776.1746,-146.6594 1776.954,-138.514"/>
<polygon fill="#191970" stroke="#191970" points="1780.4375,-138.8523 1777.969,-128.549 1773.4736,-138.1429 1780.4375,-138.8523"/>
</g>
<!-- Node48&#45;&gt;Node45 -->
<g id="edge106" class="edge">
<title>Node48&#45;&gt;Node45</title>
<path fill="none" stroke="#191970" d="M1813.6059,-335.3873C1826.7226,-325.9054 1847.4842,-310.897 1863.0675,-299.6319"/>
<polygon fill="#191970" stroke="#191970" points="1865.4937,-302.1969 1871.5474,-293.5019 1861.3927,-296.5239 1865.4937,-302.1969"/>
</g>
<!-- Node50&#45;&gt;Node45 -->
<g id="edge108" class="edge">
<title>Node50&#45;&gt;Node45</title>
<path fill="none" stroke="#191970" d="M2223.0895,-460.1349C2214.6202,-434.5671 2187.4038,-363.2676 2138,-330 2108.371,-310.0484 2017.0943,-297.2979 1952.4708,-290.5189"/>
<polygon fill="#191970" stroke="#191970" points="1952.6459,-287.0186 1942.3415,-289.482 1951.933,-293.9823 1952.6459,-287.0186"/>
</g>
<!-- Node51&#45;&gt;Node45 -->
<g id="edge110" class="edge">
<title>Node51&#45;&gt;Node45</title>
<path fill="none" stroke="#191970" d="M1867.4469,-460.3283C1876.1797,-441.7479 1895.3023,-398.101 1902,-359 1904.1761,-346.2961 1904.4134,-342.6609 1902,-330 1900.2329,-320.7295 1896.6097,-310.9365 1893.0742,-302.8202"/>
<polygon fill="#191970" stroke="#191970" points="1896.1783,-301.1946 1888.789,-293.6019 1889.8306,-304.1455 1896.1783,-301.1946"/>
</g>
<!-- Node52&#45;&gt;Node45 -->
<g id="edge112" class="edge">
<title>Node52&#45;&gt;Node45</title>
<path fill="none" stroke="#191970" d="M1993.7999,-460.212C1981.0692,-437.5983 1947.1035,-378.014 1916,-330 1909.9077,-320.5954 1902.7642,-310.3688 1896.7739,-301.9974"/>
<polygon fill="#191970" stroke="#191970" points="1899.5231,-299.826 1890.8308,-293.7683 1893.8483,-303.9244 1899.5231,-299.826"/>
</g>
<!-- Node53&#45;&gt;Node45 -->
<g id="edge114" class="edge">
<title>Node53&#45;&gt;Node45</title>
<path fill="none" stroke="#191970" d="M1778.4764,-515.3693C1780.7873,-502.5258 1785.9573,-478.6136 1795,-460 1819.3167,-409.9462 1846.5377,-409.913 1869,-359 1876.8086,-341.3009 1880.5931,-319.4368 1882.4016,-303.9848"/>
<polygon fill="#191970" stroke="#191970" points="1885.928,-303.8906 1883.4332,-293.5937 1878.9623,-303.1989 1885.928,-303.8906"/>
</g>
<!-- Node55 -->
<g id="node49" class="node">
<title>Node55</title>
<g id="a_node49"><a xlink:href="lambda__transform_8h.html" target="_top" xlink:title=" ">
<polygon fill="#ffffff" stroke="#000000" points="1991.5347,-335.5 1991.5347,-353.5 2096.4653,-353.5 2096.4653,-335.5 1991.5347,-335.5"/>
<text text-anchor="middle" x="2044" y="-341.5" font-family="Helvetica,sans-Serif" font-size="10.00" fill="#000000">lambda_transform.h</text>
</a>
</g>
</g>
<!-- Node54&#45;&gt;Node55 -->
<g id="edge116" class="edge">
<title>Node54&#45;&gt;Node55</title>
<path fill="none" stroke="#191970" d="M2040.7927,-515.2937C2049.7466,-506.8891 2061.8191,-493.5828 2067,-479 2081.2126,-438.9952 2064.255,-389.0875 2052.8031,-362.7466"/>
<polygon fill="#191970" stroke="#191970" points="2055.9558,-361.2247 2048.6194,-353.5809 2049.5878,-364.1314 2055.9558,-361.2247"/>
</g>
<!-- Node55&#45;&gt;Node45 -->
<g id="edge117" class="edge">
<title>Node55&#45;&gt;Node45</title>
<path fill="none" stroke="#191970" d="M2019.6994,-335.3873C1992.4057,-325.1521 1947.9402,-308.4776 1917.3941,-297.0228"/>
<polygon fill="#191970" stroke="#191970" points="1918.5973,-293.736 1908.005,-293.5019 1916.1393,-300.2903 1918.5973,-293.736"/>
</g>
<!-- Node56&#45;&gt;Node15 -->
<g id="edge119" class="edge">
<title>Node56&#45;&gt;Node15</title>
<path fill="none" stroke="#191970" d="M2383.1878,-335.3678C2352.2451,-318.8753 2294,-280.9919 2294,-229.5 2294,-229.5 2294,-229.5 2294,-174.5 2294,-98.4497 2181.9027,-74.6401 2125.1348,-67.4585"/>
<polygon fill="#191970" stroke="#191970" points="2125.2305,-63.9461 2114.8932,-66.2676 2124.4219,-70.8992 2125.2305,-63.9461"/>
</g>
<!-- Node56&#45;&gt;Node45 -->
<g id="edge120" class="edge">
<title>Node56&#45;&gt;Node45</title>
<path fill="none" stroke="#191970" d="M2353.3718,-335.4285C2342.1093,-333.4877 2330.1555,-331.556 2319,-330 2190.0032,-312.0075 2038.5813,-297.6993 1952.6968,-290.2157"/>
<polygon fill="#191970" stroke="#191970" points="1952.8187,-286.7133 1942.5539,-289.3371 1952.2145,-293.6871 1952.8187,-286.7133"/>
</g>
</g>
</svg>
