<?xml version="1.0" encoding="UTF-8" standalone="no"?>
<!DOCTYPE svg PUBLIC "-//W3C//DTD SVG 1.1//EN"
 "http://www.w3.org/Graphics/SVG/1.1/DTD/svg11.dtd">
<!-- Generated by graphviz version 2.49.3 (20211023.0002)
 -->
<!-- Title: src/sensesp/net/ws_client.h Pages: 1 -->
<svg width="1288pt" height="307pt"
 viewBox="0.00 0.00 1287.50 307.00" xmlns="http://www.w3.org/2000/svg" xmlns:xlink="http://www.w3.org/1999/xlink">
<g id="graph0" class="graph" transform="scale(1 1) rotate(0) translate(4 303)">
<title>src/sensesp/net/ws_client.h</title>
<polygon fill="white" stroke="transparent" points="-4,4 -4,-303 1283.5,-303 1283.5,4 -4,4"/>
<!-- Node1 -->
<g id="node1" class="node">
<title>Node1</title>
<g id="a_node1"><a xlink:title=" ">
<polygon fill="#bfbfbf" stroke="black" points="792.5,-268.5 792.5,-298.5 894.5,-298.5 894.5,-268.5 792.5,-268.5"/>
<text text-anchor="start" x="800.5" y="-286.5" font-family="Helvetica,sans-Serif" font-size="10.00">src/sensesp/net/ws</text>
<text text-anchor="middle" x="843.5" y="-275.5" font-family="Helvetica,sans-Serif" font-size="10.00">_client.h</text>
</a>
</g>
</g>
<!-- Node2 -->
<g id="node2" class="node">
<title>Node2</title>
<g id="a_node2"><a xlink:href="main_8cpp.html" target="_top" xlink:title=" ">
<polygon fill="white" stroke="black" points="437,-73 437,-92 510,-92 510,-73 437,-73"/>
<text text-anchor="middle" x="473.5" y="-80" font-family="Helvetica,sans-Serif" font-size="10.00">src/main.cpp</text>
</a>
</g>
</g>
<!-- Node1&#45;&gt;Node2 -->
<g id="edge1" class="edge">
<title>Node1&#45;&gt;Node2</title>
<path fill="none" stroke="midnightblue" d="M782.32,-272.34C686.59,-255.01 508.67,-216.55 473.5,-165 458.19,-142.56 465.85,-107.94 470.63,-92.03"/>
<polygon fill="midnightblue" stroke="midnightblue" points="781.7,-275.78 792.16,-274.1 782.93,-268.89 781.7,-275.78"/>
</g>
<!-- Node3 -->
<g id="node3" class="node">
<title>Node3</title>
<g id="a_node3"><a xlink:href="system__status__controller_8h.html" target="_top" xlink:title=" ">
<polygon fill="white" stroke="black" points="653.5,-201.5 653.5,-231.5 791.5,-231.5 791.5,-201.5 653.5,-201.5"/>
<text text-anchor="start" x="661.5" y="-219.5" font-family="Helvetica,sans-Serif" font-size="10.00">src/sensesp/controllers</text>
<text text-anchor="middle" x="722.5" y="-208.5" font-family="Helvetica,sans-Serif" font-size="10.00">/system_status_controller.h</text>
</a>
</g>
</g>
<!-- Node1&#45;&gt;Node3 -->
<g id="edge2" class="edge">
<title>Node1&#45;&gt;Node3</title>
<path fill="none" stroke="midnightblue" d="M808.27,-263.57C789.24,-253.35 766.13,-240.94 748.7,-231.58"/>
<polygon fill="midnightblue" stroke="midnightblue" points="806.78,-266.75 817.24,-268.4 810.09,-260.58 806.78,-266.75"/>
</g>
<!-- Node8 -->
<g id="node8" class="node">
<title>Node8</title>
<g id="a_node8"><a xlink:href="sensesp__app_8h.html" target="_top" xlink:title=" ">
<polygon fill="white" stroke="black" points="744.5,-73 744.5,-92 844.5,-92 844.5,-73 744.5,-73"/>
<text text-anchor="middle" x="794.5" y="-80" font-family="Helvetica,sans-Serif" font-size="10.00">src/sensesp_app.h</text>
</a>
</g>
</g>
<!-- Node1&#45;&gt;Node8 -->
<g id="edge25" class="edge">
<title>Node1&#45;&gt;Node8</title>
<path fill="none" stroke="midnightblue" d="M837.53,-258.24C826.59,-213.82 803.81,-121.31 796.68,-92.36"/>
<polygon fill="midnightblue" stroke="midnightblue" points="834.19,-259.32 839.98,-268.19 840.98,-257.64 834.19,-259.32"/>
</g>
<!-- Node12 -->
<g id="node12" class="node">
<title>Node12</title>
<g id="a_node12"><a xlink:href="ws__client_8cpp.html" target="_top" xlink:title=" ">
<polygon fill="white" stroke="black" points="1177.5,-0.5 1177.5,-30.5 1279.5,-30.5 1279.5,-0.5 1177.5,-0.5"/>
<text text-anchor="start" x="1185.5" y="-18.5" font-family="Helvetica,sans-Serif" font-size="10.00">src/sensesp/net/ws</text>
<text text-anchor="middle" x="1228.5" y="-7.5" font-family="Helvetica,sans-Serif" font-size="10.00">_client.cpp</text>
</a>
</g>
</g>
<!-- Node1&#45;&gt;Node12 -->
<g id="edge20" class="edge">
<title>Node1&#45;&gt;Node12</title>
<path fill="none" stroke="midnightblue" d="M904.53,-270.42C935.86,-262.51 973.8,-250.19 1004.5,-232 1100.83,-174.91 1188.16,-68.79 1217.8,-30.63"/>
<polygon fill="midnightblue" stroke="midnightblue" points="903.49,-267.07 894.6,-272.83 905.15,-273.87 903.49,-267.07"/>
</g>
<!-- Node17 -->
<g id="node17" class="node">
<title>Node17</title>
<g id="a_node17"><a xlink:href="led__blinker_8h.html" target="_top" xlink:title=" ">
<polygon fill="white" stroke="black" points="891.5,-201.5 891.5,-231.5 995.5,-231.5 995.5,-201.5 891.5,-201.5"/>
<text text-anchor="start" x="899.5" y="-219.5" font-family="Helvetica,sans-Serif" font-size="10.00">src/sensesp/system</text>
<text text-anchor="middle" x="943.5" y="-208.5" font-family="Helvetica,sans-Serif" font-size="10.00">/led_blinker.h</text>
</a>
</g>
</g>
<!-- Node1&#45;&gt;Node17 -->
<g id="edge21" class="edge">
<title>Node1&#45;&gt;Node17</title>
<path fill="none" stroke="midnightblue" d="M873.91,-262.73C889.38,-252.68 907.83,-240.68 921.84,-231.58"/>
<polygon fill="midnightblue" stroke="midnightblue" points="871.68,-260.01 865.2,-268.4 875.49,-265.88 871.68,-260.01"/>
</g>
<!-- Node3&#45;&gt;Node2 -->
<g id="edge3" class="edge">
<title>Node3&#45;&gt;Node2</title>
<path fill="none" stroke="midnightblue" d="M643.06,-207.11C585.31,-199.4 513.7,-185.93 492.5,-165 472.44,-145.2 471.87,-108.6 472.77,-92.04"/>
<polygon fill="midnightblue" stroke="midnightblue" points="642.93,-210.63 653.3,-208.44 643.84,-203.68 642.93,-210.63"/>
</g>
<!-- Node4 -->
<g id="node4" class="node">
<title>Node4</title>
<g id="a_node4"><a xlink:href="system__status__controller_8cpp.html" target="_top" xlink:title=" ">
<polygon fill="white" stroke="black" points="501.5,-134.5 501.5,-164.5 649.5,-164.5 649.5,-134.5 501.5,-134.5"/>
<text text-anchor="start" x="509.5" y="-152.5" font-family="Helvetica,sans-Serif" font-size="10.00">src/sensesp/controllers</text>
<text text-anchor="middle" x="575.5" y="-141.5" font-family="Helvetica,sans-Serif" font-size="10.00">/system_status_controller.cpp</text>
</a>
</g>
</g>
<!-- Node3&#45;&gt;Node4 -->
<g id="edge4" class="edge">
<title>Node3&#45;&gt;Node4</title>
<path fill="none" stroke="midnightblue" d="M681.27,-197.27C657.86,-186.92 628.99,-174.15 607.33,-164.58"/>
<polygon fill="midnightblue" stroke="midnightblue" points="680.04,-200.55 690.6,-201.4 682.87,-194.15 680.04,-200.55"/>
</g>
<!-- Node5 -->
<g id="node5" class="node">
<title>Node5</title>
<g id="a_node5"><a xlink:href="system__status__led_8h.html" target="_top" xlink:title=" ">
<polygon fill="white" stroke="black" points="667.5,-134.5 667.5,-164.5 777.5,-164.5 777.5,-134.5 667.5,-134.5"/>
<text text-anchor="start" x="675.5" y="-152.5" font-family="Helvetica,sans-Serif" font-size="10.00">src/sensesp/system</text>
<text text-anchor="middle" x="722.5" y="-141.5" font-family="Helvetica,sans-Serif" font-size="10.00">/system_status_led.h</text>
</a>
</g>
</g>
<!-- Node3&#45;&gt;Node5 -->
<g id="edge5" class="edge">
<title>Node3&#45;&gt;Node5</title>
<path fill="none" stroke="midnightblue" d="M722.5,-191.11C722.5,-182.15 722.5,-172.32 722.5,-164.58"/>
<polygon fill="midnightblue" stroke="midnightblue" points="719,-191.4 722.5,-201.4 726,-191.4 719,-191.4"/>
</g>
<!-- Node3&#45;&gt;Node8 -->
<g id="edge19" class="edge">
<title>Node3&#45;&gt;Node8</title>
<path fill="none" stroke="midnightblue" d="M757.67,-195.64C768.73,-187.59 779.79,-177.27 786.5,-165 799.46,-141.3 797.59,-107.88 795.76,-92.23"/>
<polygon fill="midnightblue" stroke="midnightblue" points="755.58,-192.83 749.28,-201.35 759.52,-198.62 755.58,-192.83"/>
</g>
<!-- Node5&#45;&gt;Node2 -->
<g id="edge6" class="edge">
<title>Node5&#45;&gt;Node2</title>
<path fill="none" stroke="midnightblue" d="M658.95,-131.91C610.18,-119.18 544.86,-102.13 506.17,-92.03"/>
<polygon fill="midnightblue" stroke="midnightblue" points="658.22,-135.34 668.78,-134.48 659.99,-128.56 658.22,-135.34"/>
</g>
<!-- Node6 -->
<g id="node6" class="node">
<title>Node6</title>
<g id="a_node6"><a xlink:href="system__status__led_8cpp.html" target="_top" xlink:title=" ">
<polygon fill="white" stroke="black" points="567,-67.5 567,-97.5 688,-97.5 688,-67.5 567,-67.5"/>
<text text-anchor="start" x="575" y="-85.5" font-family="Helvetica,sans-Serif" font-size="10.00">src/sensesp/system</text>
<text text-anchor="middle" x="627.5" y="-74.5" font-family="Helvetica,sans-Serif" font-size="10.00">/system_status_led.cpp</text>
</a>
</g>
</g>
<!-- Node5&#45;&gt;Node6 -->
<g id="edge7" class="edge">
<title>Node5&#45;&gt;Node6</title>
<path fill="none" stroke="midnightblue" d="M693.61,-128.73C678.91,-118.68 661.39,-106.68 648.07,-97.58"/>
<polygon fill="midnightblue" stroke="midnightblue" points="691.66,-131.64 701.89,-134.4 695.61,-125.86 691.66,-131.64"/>
</g>
<!-- Node7 -->
<g id="node7" class="node">
<title>Node7</title>
<g id="a_node7"><a xlink:href="sensesp__app_8cpp.html" target="_top" xlink:title=" ">
<polygon fill="white" stroke="black" points="0,-6 0,-25 111,-25 111,-6 0,-6"/>
<text text-anchor="middle" x="55.5" y="-13" font-family="Helvetica,sans-Serif" font-size="10.00">src/sensesp_app.cpp</text>
</a>
</g>
</g>
<!-- Node5&#45;&gt;Node7 -->
<g id="edge8" class="edge">
<title>Node5&#45;&gt;Node7</title>
<path fill="none" stroke="midnightblue" d="M721.74,-124.1C719.75,-105.35 713.73,-80.43 696.5,-67 645.84,-27.51 183.08,-40.13 119.5,-31 109.35,-29.54 98.43,-27.32 88.53,-25.05"/>
<polygon fill="midnightblue" stroke="midnightblue" points="718.27,-124.6 722.51,-134.31 725.25,-124.07 718.27,-124.6"/>
</g>
<!-- Node5&#45;&gt;Node8 -->
<g id="edge9" class="edge">
<title>Node5&#45;&gt;Node8</title>
<path fill="none" stroke="midnightblue" d="M745.57,-127.67C758.86,-115.67 774.87,-101.22 784.87,-92.19"/>
<polygon fill="midnightblue" stroke="midnightblue" points="743.2,-125.1 738.12,-134.4 747.89,-130.29 743.2,-125.1"/>
</g>
<!-- Node8&#45;&gt;Node7 -->
<g id="edge17" class="edge">
<title>Node8&#45;&gt;Node7</title>
<path fill="none" stroke="midnightblue" d="M751.46,-70.74C744.49,-69.29 737.32,-67.97 730.5,-67 461.17,-28.82 388.83,-69.18 119.5,-31 109.35,-29.56 98.42,-27.34 88.53,-25.07"/>
<polygon fill="midnightblue" stroke="midnightblue" points="750.96,-74.21 761.47,-72.93 752.46,-67.37 750.96,-74.21"/>
</g>
<!-- Node9 -->
<g id="node9" class="node">
<title>Node9</title>
<g id="a_node9"><a xlink:href="debug__output_8cpp.html" target="_top" xlink:title=" ">
<polygon fill="white" stroke="black" points="129,-0.5 129,-30.5 246,-30.5 246,-0.5 129,-0.5"/>
<text text-anchor="start" x="137" y="-18.5" font-family="Helvetica,sans-Serif" font-size="10.00">src/sensesp/net/debug</text>
<text text-anchor="middle" x="187.5" y="-7.5" font-family="Helvetica,sans-Serif" font-size="10.00">_output.cpp</text>
</a>
</g>
</g>
<!-- Node8&#45;&gt;Node9 -->
<g id="edge10" class="edge">
<title>Node8&#45;&gt;Node9</title>
<path fill="none" stroke="midnightblue" d="M751.22,-70.79C744.32,-69.34 737.24,-68.01 730.5,-67 521.14,-35.52 465.06,-61.14 255.5,-31 252.39,-30.55 249.22,-30.05 246.02,-29.5"/>
<polygon fill="midnightblue" stroke="midnightblue" points="750.61,-74.24 761.13,-72.96 752.11,-67.4 750.61,-74.24"/>
</g>
<!-- Node10 -->
<g id="node10" class="node">
<title>Node10</title>
<g id="a_node10"><a xlink:href="discovery_8cpp.html" target="_top" xlink:title=" ">
<polygon fill="white" stroke="black" points="264.5,-6 264.5,-25 414.5,-25 414.5,-6 264.5,-6"/>
<text text-anchor="middle" x="339.5" y="-13" font-family="Helvetica,sans-Serif" font-size="10.00">src/sensesp/net/discovery.cpp</text>
</a>
</g>
</g>
<!-- Node8&#45;&gt;Node10 -->
<g id="edge11" class="edge">
<title>Node8&#45;&gt;Node10</title>
<path fill="none" stroke="midnightblue" d="M750.01,-70.78C743.49,-69.4 736.84,-68.09 730.5,-67 595.1,-43.79 559.46,-50.69 423.5,-31 411.34,-29.24 398.24,-27.1 386.08,-25"/>
<polygon fill="midnightblue" stroke="midnightblue" points="749.57,-74.27 760.09,-73 751.08,-67.43 749.57,-74.27"/>
</g>
<!-- Node11 -->
<g id="node11" class="node">
<title>Node11</title>
<g id="a_node11"><a xlink:href="networking_8cpp.html" target="_top" xlink:title=" ">
<polygon fill="white" stroke="black" points="880,-6 880,-25 1037,-25 1037,-6 880,-6"/>
<text text-anchor="middle" x="958.5" y="-13" font-family="Helvetica,sans-Serif" font-size="10.00">src/sensesp/net/networking.cpp</text>
</a>
</g>
</g>
<!-- Node8&#45;&gt;Node11 -->
<g id="edge12" class="edge">
<title>Node8&#45;&gt;Node11</title>
<path fill="none" stroke="midnightblue" d="M825.78,-69.1C858.34,-56.2 908.47,-36.33 936.89,-25.06"/>
<polygon fill="midnightblue" stroke="midnightblue" points="824.28,-65.93 816.28,-72.87 826.86,-72.44 824.28,-65.93"/>
</g>
<!-- Node8&#45;&gt;Node12 -->
<g id="edge13" class="edge">
<title>Node8&#45;&gt;Node12</title>
<path fill="none" stroke="midnightblue" d="M854.76,-75.3C928.93,-67.22 1058.57,-51.65 1168.5,-31 1171.34,-30.47 1174.26,-29.88 1177.19,-29.27"/>
<polygon fill="midnightblue" stroke="midnightblue" points="854.24,-71.83 844.67,-76.39 854.99,-78.79 854.24,-71.83"/>
</g>
<!-- Node13 -->
<g id="node13" class="node">
<title>Node13</title>
<g id="a_node13"><a xlink:href="signalk__delta__queue_8cpp.html" target="_top" xlink:title=" ">
<polygon fill="white" stroke="black" points="432.5,-0.5 432.5,-30.5 562.5,-30.5 562.5,-0.5 432.5,-0.5"/>
<text text-anchor="start" x="440.5" y="-18.5" font-family="Helvetica,sans-Serif" font-size="10.00">src/sensesp/signalk</text>
<text text-anchor="middle" x="497.5" y="-7.5" font-family="Helvetica,sans-Serif" font-size="10.00">/signalk_delta_queue.cpp</text>
</a>
</g>
</g>
<!-- Node8&#45;&gt;Node13 -->
<g id="edge14" class="edge">
<title>Node8&#45;&gt;Node13</title>
<path fill="none" stroke="midnightblue" d="M747.02,-70.69C741.45,-69.44 735.85,-68.19 730.5,-67 673.93,-54.46 609.55,-40.53 562.82,-30.49"/>
<polygon fill="midnightblue" stroke="midnightblue" points="746.42,-74.14 756.95,-72.93 747.96,-67.32 746.42,-74.14"/>
</g>
<!-- Node14 -->
<g id="node14" class="node">
<title>Node14</title>
<g id="a_node14"><a xlink:href="signalk__put__request_8cpp.html" target="_top" xlink:title=" ">
<polygon fill="white" stroke="black" points="580.5,-0.5 580.5,-30.5 708.5,-30.5 708.5,-0.5 580.5,-0.5"/>
<text text-anchor="start" x="588.5" y="-18.5" font-family="Helvetica,sans-Serif" font-size="10.00">src/sensesp/signalk</text>
<text text-anchor="middle" x="644.5" y="-7.5" font-family="Helvetica,sans-Serif" font-size="10.00">/signalk_put_request.cpp</text>
</a>
</g>
</g>
<!-- Node8&#45;&gt;Node14 -->
<g id="edge15" class="edge">
<title>Node8&#45;&gt;Node14</title>
<path fill="none" stroke="midnightblue" d="M765.12,-68.77C739.73,-57.77 703.1,-41.89 676.87,-30.53"/>
<polygon fill="midnightblue" stroke="midnightblue" points="764.01,-72.1 774.58,-72.87 766.8,-65.68 764.01,-72.1"/>
</g>
<!-- Node15 -->
<g id="node15" class="node">
<title>Node15</title>
<g id="a_node15"><a xlink:href="led__blinker_8cpp.html" target="_top" xlink:title=" ">
<polygon fill="white" stroke="black" points="1055.5,-0.5 1055.5,-30.5 1159.5,-30.5 1159.5,-0.5 1055.5,-0.5"/>
<text text-anchor="start" x="1063.5" y="-18.5" font-family="Helvetica,sans-Serif" font-size="10.00">src/sensesp/system</text>
<text text-anchor="middle" x="1107.5" y="-7.5" font-family="Helvetica,sans-Serif" font-size="10.00">/led_blinker.cpp</text>
</a>
</g>
</g>
<!-- Node8&#45;&gt;Node15 -->
<g id="edge16" class="edge">
<title>Node8&#45;&gt;Node15</title>
<path fill="none" stroke="midnightblue" d="M849.52,-71.06C900.65,-61.22 978.87,-45.81 1046.5,-31 1049.37,-30.37 1052.31,-29.71 1055.28,-29.04"/>
<polygon fill="midnightblue" stroke="midnightblue" points="848.83,-67.63 839.67,-72.95 850.15,-74.5 848.83,-67.63"/>
</g>
<!-- Node16 -->
<g id="node16" class="node">
<title>Node16</title>
<g id="a_node16"><a xlink:href="sensesp__app__builder_8h.html" target="_top" xlink:title=" ">
<polygon fill="white" stroke="black" points="727,-6 727,-25 862,-25 862,-6 727,-6"/>
<text text-anchor="middle" x="794.5" y="-13" font-family="Helvetica,sans-Serif" font-size="10.00">src/sensesp_app_builder.h</text>
</a>
</g>
</g>
<!-- Node8&#45;&gt;Node16 -->
<g id="edge18" class="edge">
<title>Node8&#45;&gt;Node16</title>
<path fill="none" stroke="midnightblue" d="M794.5,-62.54C794.5,-50.17 794.5,-34.62 794.5,-25.13"/>
<polygon fill="midnightblue" stroke="midnightblue" points="791,-62.73 794.5,-72.73 798,-62.73 791,-62.73"/>
</g>
<!-- Node17&#45;&gt;Node5 -->
<g id="edge24" class="edge">
<title>Node17&#45;&gt;Node5</title>
<path fill="none" stroke="midnightblue" d="M885.97,-198.58C850.08,-188.02 804.41,-174.59 770.48,-164.61"/>
<polygon fill="midnightblue" stroke="midnightblue" points="885.24,-202.01 895.82,-201.48 887.21,-195.3 885.24,-202.01"/>
</g>
<!-- Node17&#45;&gt;Node11 -->
<g id="edge22" class="edge">
<title>Node17&#45;&gt;Node11</title>
<path fill="none" stroke="midnightblue" d="M945.35,-190.96C948.71,-146.43 955.65,-54.25 957.83,-25.36"/>
<polygon fill="midnightblue" stroke="midnightblue" points="941.84,-190.95 944.58,-201.19 948.82,-191.48 941.84,-190.95"/>
</g>
<!-- Node17&#45;&gt;Node15 -->
<g id="edge23" class="edge">
<title>Node17&#45;&gt;Node15</title>
<path fill="none" stroke="midnightblue" d="M960.59,-193.44C983.39,-164.18 1025.23,-111.09 1062.5,-67 1072.96,-54.62 1085.22,-40.92 1094.3,-30.91"/>
<polygon fill="midnightblue" stroke="midnightblue" points="957.79,-191.34 954.42,-201.38 963.32,-195.64 957.79,-191.34"/>
</g>
</g>
</svg>
