<?xml version="1.0" encoding="UTF-8" standalone="no"?>
<!DOCTYPE svg PUBLIC "-//W3C//DTD SVG 1.1//EN"
 "http://www.w3.org/Graphics/SVG/1.1/DTD/svg11.dtd">
<!-- Generated by graphviz version 2.49.3 (20211023.0002)
 -->
<!-- Title: src/sensesp/net/ws_client.h Pages: 1 -->
<svg width="1028pt" height="453pt"
 viewBox="0.00 0.00 1028.00 453.00" xmlns="http://www.w3.org/2000/svg" xmlns:xlink="http://www.w3.org/1999/xlink">
<g id="graph0" class="graph" transform="scale(1 1) rotate(0) translate(4 449)">
<title>src/sensesp/net/ws_client.h</title>
<polygon fill="white" stroke="transparent" points="-4,4 -4,-449 1024,-449 1024,4 -4,4"/>
<!-- Node1 -->
<g id="node1" class="node">
<title>Node1</title>
<g id="a_node1"><a xlink:title=" ">
<polygon fill="#bfbfbf" stroke="black" points="528,-414.5 528,-444.5 630,-444.5 630,-414.5 528,-414.5"/>
<text text-anchor="start" x="536" y="-432.5" font-family="Helvetica,sans-Serif" font-size="10.00">src/sensesp/net/ws</text>
<text text-anchor="middle" x="579" y="-421.5" font-family="Helvetica,sans-Serif" font-size="10.00">_client.h</text>
</a>
</g>
</g>
<!-- Node2 -->
<g id="node2" class="node">
<title>Node2</title>
<g id="a_node2"><a xlink:title=" ">
<polygon fill="white" stroke="#bfbfbf" points="0,-353 0,-372 106,-372 106,-353 0,-353"/>
<text text-anchor="middle" x="53" y="-360" font-family="Helvetica,sans-Serif" font-size="10.00">WebSocketsClient.h</text>
</a>
</g>
</g>
<!-- Node1&#45;&gt;Node2 -->
<g id="edge1" class="edge">
<title>Node1&#45;&gt;Node2</title>
<path fill="none" stroke="midnightblue" d="M527.82,-424.61C442.79,-417.76 267.18,-401.96 120,-378 113.21,-376.9 106.08,-375.55 99.09,-374.13"/>
<polygon fill="midnightblue" stroke="midnightblue" points="99.54,-370.65 89.03,-372.01 98.1,-377.5 99.54,-370.65"/>
</g>
<!-- Node3 -->
<g id="node3" class="node">
<title>Node3</title>
<g id="a_node3"><a xlink:title=" ">
<polygon fill="white" stroke="#bfbfbf" points="142.5,-123.5 142.5,-142.5 201.5,-142.5 201.5,-123.5 142.5,-123.5"/>
<text text-anchor="middle" x="172" y="-130.5" font-family="Helvetica,sans-Serif" font-size="10.00">functional</text>
</a>
</g>
</g>
<!-- Node1&#45;&gt;Node3 -->
<g id="edge2" class="edge">
<title>Node1&#45;&gt;Node3</title>
<path fill="none" stroke="midnightblue" d="M527.95,-424.82C411.07,-414.98 134,-383.12 134,-302 134,-302 134,-302 134,-244 134,-209.81 150.6,-172.76 161.86,-151.57"/>
<polygon fill="midnightblue" stroke="midnightblue" points="164.95,-153.22 166.72,-142.77 158.82,-149.83 164.95,-153.22"/>
</g>
<!-- Node4 -->
<g id="node4" class="node">
<title>Node4</title>
<g id="a_node4"><a xlink:title=" ">
<polygon fill="white" stroke="#bfbfbf" points="990,-353 990,-372 1020,-372 1020,-353 990,-353"/>
<text text-anchor="middle" x="1005" y="-360" font-family="Helvetica,sans-Serif" font-size="10.00">set</text>
</a>
</g>
</g>
<!-- Node1&#45;&gt;Node4 -->
<g id="edge3" class="edge">
<title>Node1&#45;&gt;Node4</title>
<path fill="none" stroke="midnightblue" d="M630.28,-427.45C707.04,-424.67 855.68,-414.57 976,-378 977.67,-377.49 979.35,-376.9 981.03,-376.24"/>
<polygon fill="midnightblue" stroke="midnightblue" points="982.68,-379.34 990.35,-372.03 979.79,-372.96 982.68,-379.34"/>
</g>
<!-- Node5 -->
<g id="node5" class="node">
<title>Node5</title>
<g id="a_node5"><a xlink:href="sensesp_8h.html" target="_top" xlink:title=" ">
<polygon fill="white" stroke="black" points="800,-123.5 800,-142.5 862,-142.5 862,-123.5 800,-123.5"/>
<text text-anchor="middle" x="831" y="-130.5" font-family="Helvetica,sans-Serif" font-size="10.00">sensesp.h</text>
</a>
</g>
</g>
<!-- Node1&#45;&gt;Node5 -->
<g id="edge4" class="edge">
<title>Node1&#45;&gt;Node5</title>
<path fill="none" stroke="midnightblue" d="M630.11,-429.16C719.55,-429.1 898.72,-423.19 938,-378 1000.85,-305.7 891.97,-190.68 848.09,-149.39"/>
<polygon fill="midnightblue" stroke="midnightblue" points="850.43,-146.78 840.71,-142.56 845.68,-151.92 850.43,-146.78"/>
</g>
<!-- Node10 -->
<g id="node10" class="node">
<title>Node10</title>
<g id="a_node10"><a xlink:href="signalk__delta__queue_8h.html" target="_top" xlink:title=" ">
<polygon fill="white" stroke="black" points="585,-347.5 585,-377.5 707,-377.5 707,-347.5 585,-347.5"/>
<text text-anchor="start" x="593" y="-365.5" font-family="Helvetica,sans-Serif" font-size="10.00">sensesp/signalk/signalk</text>
<text text-anchor="middle" x="646" y="-354.5" font-family="Helvetica,sans-Serif" font-size="10.00">_delta_queue.h</text>
</a>
</g>
</g>
<!-- Node1&#45;&gt;Node10 -->
<g id="edge9" class="edge">
<title>Node1&#45;&gt;Node10</title>
<path fill="none" stroke="midnightblue" d="M593.54,-414.4C602.49,-405.71 614.14,-394.4 624.19,-384.66"/>
<polygon fill="midnightblue" stroke="midnightblue" points="626.75,-387.05 631.49,-377.58 621.88,-382.03 626.75,-387.05"/>
</g>
<!-- Node13 -->
<g id="node13" class="node">
<title>Node13</title>
<g id="a_node13"><a xlink:href="startable_8h.html" target="_top" xlink:title=" ">
<polygon fill="white" stroke="black" points="720,-291.5 720,-310.5 858,-310.5 858,-291.5 720,-291.5"/>
<text text-anchor="middle" x="789" y="-298.5" font-family="Helvetica,sans-Serif" font-size="10.00">sensesp/system/startable.h</text>
</a>
</g>
</g>
<!-- Node1&#45;&gt;Node13 -->
<g id="edge30" class="edge">
<title>Node1&#45;&gt;Node13</title>
<path fill="none" stroke="midnightblue" d="M630.06,-415.69C657,-407.49 689.8,-395.14 716,-378 740.77,-361.79 763.39,-335.72 776.68,-318.72"/>
<polygon fill="midnightblue" stroke="midnightblue" points="779.47,-320.83 782.75,-310.76 773.9,-316.59 779.47,-320.83"/>
</g>
<!-- Node15 -->
<g id="node15" class="node">
<title>Node15</title>
<g id="a_node15"><a xlink:href="configurable_8h.html" target="_top" xlink:title=" ">
<polygon fill="white" stroke="black" points="775,-353 775,-372 929,-372 929,-353 775,-353"/>
<text text-anchor="middle" x="852" y="-360" font-family="Helvetica,sans-Serif" font-size="10.00">sensesp/system/configurable.h</text>
</a>
</g>
</g>
<!-- Node1&#45;&gt;Node15 -->
<g id="edge14" class="edge">
<title>Node1&#45;&gt;Node15</title>
<path fill="none" stroke="midnightblue" d="M630.03,-416.35C680.6,-404.31 757.36,-386.03 806.08,-374.43"/>
<polygon fill="midnightblue" stroke="midnightblue" points="807.11,-377.79 816.03,-372.07 805.49,-370.98 807.11,-377.79"/>
</g>
<!-- Node17 -->
<g id="node17" class="node">
<title>Node17</title>
<g id="a_node17"><a xlink:href="observablevalue_8h.html" target="_top" xlink:title=" ">
<polygon fill="white" stroke="black" points="200,-291.5 200,-310.5 372,-310.5 372,-291.5 200,-291.5"/>
<text text-anchor="middle" x="286" y="-298.5" font-family="Helvetica,sans-Serif" font-size="10.00">sensesp/system/observablevalue.h</text>
</a>
</g>
</g>
<!-- Node1&#45;&gt;Node17 -->
<g id="edge18" class="edge">
<title>Node1&#45;&gt;Node17</title>
<path fill="none" stroke="midnightblue" d="M527.92,-428.77C475.76,-426.69 394.49,-416.72 337,-378 315.85,-363.75 301.17,-337.5 293.17,-319.89"/>
<polygon fill="midnightblue" stroke="midnightblue" points="296.38,-318.5 289.22,-310.68 289.94,-321.25 296.38,-318.5"/>
</g>
<!-- Node21 -->
<g id="node21" class="node">
<title>Node21</title>
<g id="a_node21"><a xlink:href="valueproducer_8h.html" target="_top" xlink:title=" ">
<polygon fill="white" stroke="black" points="466,-235.5 466,-254.5 554,-254.5 554,-235.5 466,-235.5"/>
<text text-anchor="middle" x="510" y="-242.5" font-family="Helvetica,sans-Serif" font-size="10.00">valueproducer.h</text>
</a>
</g>
</g>
<!-- Node1&#45;&gt;Node21 -->
<g id="edge31" class="edge">
<title>Node1&#45;&gt;Node21</title>
<path fill="none" stroke="midnightblue" d="M573.7,-414.48C561.35,-381.82 530.66,-300.65 516.89,-264.21"/>
<polygon fill="midnightblue" stroke="midnightblue" points="520.14,-262.93 513.33,-254.82 513.6,-265.41 520.14,-262.93"/>
</g>
<!-- Node24 -->
<g id="node24" class="node">
<title>Node24</title>
<g id="a_node24"><a xlink:href="ui__output_8h.html" target="_top" xlink:title=" ">
<polygon fill="white" stroke="black" points="346,-353 346,-372 486,-372 486,-353 346,-353"/>
<text text-anchor="middle" x="416" y="-360" font-family="Helvetica,sans-Serif" font-size="10.00">sensesp/system/ui_output.h</text>
</a>
</g>
</g>
<!-- Node1&#45;&gt;Node24 -->
<g id="edge32" class="edge">
<title>Node1&#45;&gt;Node24</title>
<path fill="none" stroke="midnightblue" d="M543.63,-414.4C514.78,-402.89 474.42,-386.8 446.86,-375.81"/>
<polygon fill="midnightblue" stroke="midnightblue" points="447.92,-372.46 437.33,-372.01 445.33,-378.96 447.92,-372.46"/>
</g>
<!-- Node6 -->
<g id="node6" class="node">
<title>Node6</title>
<g id="a_node6"><a xlink:title=" ">
<polygon fill="white" stroke="#bfbfbf" points="796,-62 796,-81 866,-81 866,-62 796,-62"/>
<text text-anchor="middle" x="831" y="-69" font-family="Helvetica,sans-Serif" font-size="10.00">ReactESP.h</text>
</a>
</g>
</g>
<!-- Node5&#45;&gt;Node6 -->
<g id="edge5" class="edge">
<title>Node5&#45;&gt;Node6</title>
<path fill="none" stroke="midnightblue" d="M831,-123.48C831,-115.08 831,-101.98 831,-91.16"/>
<polygon fill="midnightblue" stroke="midnightblue" points="834.5,-91.01 831,-81.01 827.5,-91.01 834.5,-91.01"/>
</g>
<!-- Node7 -->
<g id="node7" class="node">
<title>Node7</title>
<g id="a_node7"><a xlink:href="local__debug_8h.html" target="_top" xlink:title=" ">
<polygon fill="white" stroke="black" points="260,-56.5 260,-86.5 372,-86.5 372,-56.5 260,-56.5"/>
<text text-anchor="start" x="268" y="-74.5" font-family="Helvetica,sans-Serif" font-size="10.00">sensesp/system/local</text>
<text text-anchor="middle" x="316" y="-63.5" font-family="Helvetica,sans-Serif" font-size="10.00">_debug.h</text>
</a>
</g>
</g>
<!-- Node5&#45;&gt;Node7 -->
<g id="edge6" class="edge">
<title>Node5&#45;&gt;Node7</title>
<path fill="none" stroke="midnightblue" d="M799.62,-124.58C796.72,-124 793.81,-123.46 791,-123 646.08,-99.08 474.33,-84.08 382.24,-77.12"/>
<polygon fill="midnightblue" stroke="midnightblue" points="382.45,-73.62 372.22,-76.37 381.93,-80.6 382.45,-73.62"/>
</g>
<!-- Node8 -->
<g id="node8" class="node">
<title>Node8</title>
<g id="a_node8"><a xlink:title=" ">
<polygon fill="white" stroke="#bfbfbf" points="370.5,-0.5 370.5,-19.5 429.5,-19.5 429.5,-0.5 370.5,-0.5"/>
<text text-anchor="middle" x="400" y="-7.5" font-family="Helvetica,sans-Serif" font-size="10.00">Arduino.h</text>
</a>
</g>
</g>
<!-- Node7&#45;&gt;Node8 -->
<g id="edge7" class="edge">
<title>Node7&#45;&gt;Node8</title>
<path fill="none" stroke="midnightblue" d="M335.91,-56.4C348.99,-47.13 366.08,-35.03 379.32,-25.65"/>
<polygon fill="midnightblue" stroke="midnightblue" points="381.64,-28.29 387.78,-19.66 377.59,-22.58 381.64,-28.29"/>
</g>
<!-- Node9 -->
<g id="node9" class="node">
<title>Node9</title>
<g id="a_node9"><a xlink:title=" ">
<polygon fill="white" stroke="#bfbfbf" points="293.5,-0.5 293.5,-19.5 338.5,-19.5 338.5,-0.5 293.5,-0.5"/>
<text text-anchor="middle" x="316" y="-7.5" font-family="Helvetica,sans-Serif" font-size="10.00">Print.h</text>
</a>
</g>
</g>
<!-- Node7&#45;&gt;Node9 -->
<g id="edge8" class="edge">
<title>Node7&#45;&gt;Node9</title>
<path fill="none" stroke="midnightblue" d="M316,-56.4C316,-48.47 316,-38.46 316,-29.86"/>
<polygon fill="midnightblue" stroke="midnightblue" points="319.5,-29.66 316,-19.66 312.5,-29.66 319.5,-29.66"/>
</g>
<!-- Node11 -->
<g id="node11" class="node">
<title>Node11</title>
<g id="a_node11"><a xlink:title=" ">
<polygon fill="white" stroke="#bfbfbf" points="604,-123.5 604,-142.5 684,-142.5 684,-123.5 604,-123.5"/>
<text text-anchor="middle" x="644" y="-130.5" font-family="Helvetica,sans-Serif" font-size="10.00">ArduinoJson.h</text>
</a>
</g>
</g>
<!-- Node10&#45;&gt;Node11 -->
<g id="edge10" class="edge">
<title>Node10&#45;&gt;Node11</title>
<path fill="none" stroke="midnightblue" d="M645.87,-347.27C645.53,-307.89 644.56,-197.49 644.17,-152.97"/>
<polygon fill="midnightblue" stroke="midnightblue" points="647.67,-152.9 644.08,-142.93 640.67,-152.96 647.67,-152.9"/>
</g>
<!-- Node12 -->
<g id="node12" class="node">
<title>Node12</title>
<g id="a_node12"><a xlink:title=" ">
<polygon fill="white" stroke="#bfbfbf" points="672.5,-291.5 672.5,-310.5 701.5,-310.5 701.5,-291.5 672.5,-291.5"/>
<text text-anchor="middle" x="687" y="-298.5" font-family="Helvetica,sans-Serif" font-size="10.00">list</text>
</a>
</g>
</g>
<!-- Node10&#45;&gt;Node12 -->
<g id="edge11" class="edge">
<title>Node10&#45;&gt;Node12</title>
<path fill="none" stroke="midnightblue" d="M655.72,-347.4C661.55,-338.93 669.02,-328.1 675.19,-319.14"/>
<polygon fill="midnightblue" stroke="midnightblue" points="678.24,-320.88 681.03,-310.66 672.48,-316.91 678.24,-320.88"/>
</g>
<!-- Node10&#45;&gt;Node13 -->
<g id="edge12" class="edge">
<title>Node10&#45;&gt;Node13</title>
<path fill="none" stroke="midnightblue" d="M679.89,-347.4C703.88,-337.42 735.77,-324.15 758.88,-314.53"/>
<polygon fill="midnightblue" stroke="midnightblue" points="760.3,-317.73 768.19,-310.66 757.61,-311.27 760.3,-317.73"/>
</g>
<!-- Node14 -->
<g id="node14" class="node">
<title>Node14</title>
<g id="a_node14"><a xlink:title=" ">
<polygon fill="white" stroke="#bfbfbf" points="767,-235.5 767,-254.5 811,-254.5 811,-235.5 767,-235.5"/>
<text text-anchor="middle" x="789" y="-242.5" font-family="Helvetica,sans-Serif" font-size="10.00">queue</text>
</a>
</g>
</g>
<!-- Node13&#45;&gt;Node14 -->
<g id="edge13" class="edge">
<title>Node13&#45;&gt;Node14</title>
<path fill="none" stroke="midnightblue" d="M789,-291.08C789,-284.01 789,-273.86 789,-264.99"/>
<polygon fill="midnightblue" stroke="midnightblue" points="792.5,-264.75 789,-254.75 785.5,-264.75 792.5,-264.75"/>
</g>
<!-- Node15&#45;&gt;Node8 -->
<g id="edge17" class="edge">
<title>Node15&#45;&gt;Node8</title>
<path fill="none" stroke="midnightblue" d="M862.32,-352.8C882.22,-334.97 924,-292.08 924,-246 924,-246 924,-246 924,-132 924,-91.81 909.34,-76.88 875,-56 802.28,-11.79 540.28,-9.56 439.7,-10.4"/>
<polygon fill="midnightblue" stroke="midnightblue" points="439.61,-6.9 429.65,-10.5 439.68,-13.9 439.61,-6.9"/>
</g>
<!-- Node15&#45;&gt;Node11 -->
<g id="edge15" class="edge">
<title>Node15&#45;&gt;Node11</title>
<path fill="none" stroke="midnightblue" d="M856.99,-352.6C863.92,-339.01 874.79,-312.4 867,-291 855.89,-260.47 845.67,-254.92 820,-235 790.79,-212.33 777.28,-217.04 745,-199 716.27,-182.94 684.58,-161.98 664.49,-148.26"/>
<polygon fill="midnightblue" stroke="midnightblue" points="666.36,-145.3 656.13,-142.51 662.39,-151.06 666.36,-145.3"/>
</g>
<!-- Node16 -->
<g id="node16" class="node">
<title>Node16</title>
<g id="a_node16"><a xlink:title=" ">
<polygon fill="white" stroke="#bfbfbf" points="580,-291.5 580,-310.5 616,-310.5 616,-291.5 580,-291.5"/>
<text text-anchor="middle" x="598" y="-298.5" font-family="Helvetica,sans-Serif" font-size="10.00">map</text>
</a>
</g>
</g>
<!-- Node15&#45;&gt;Node16 -->
<g id="edge16" class="edge">
<title>Node15&#45;&gt;Node16</title>
<path fill="none" stroke="midnightblue" d="M815.61,-352.98C764.45,-340.99 672.36,-319.42 626.11,-308.59"/>
<polygon fill="midnightblue" stroke="midnightblue" points="626.72,-305.13 616.18,-306.26 625.12,-311.95 626.72,-305.13"/>
</g>
<!-- Node18 -->
<g id="node18" class="node">
<title>Node18</title>
<g id="a_node18"><a xlink:href="observable_8h.html" target="_top" xlink:title=" ">
<polygon fill="white" stroke="black" points="249,-179.5 249,-198.5 323,-198.5 323,-179.5 249,-179.5"/>
<text text-anchor="middle" x="286" y="-186.5" font-family="Helvetica,sans-Serif" font-size="10.00">observable.h</text>
</a>
</g>
</g>
<!-- Node17&#45;&gt;Node18 -->
<g id="edge19" class="edge">
<title>Node17&#45;&gt;Node18</title>
<path fill="none" stroke="midnightblue" d="M286,-291.37C286,-273.62 286,-232.67 286,-208.6"/>
<polygon fill="midnightblue" stroke="midnightblue" points="289.5,-208.59 286,-198.59 282.5,-208.59 289.5,-208.59"/>
</g>
<!-- Node17&#45;&gt;Node21 -->
<g id="edge23" class="edge">
<title>Node17&#45;&gt;Node21</title>
<path fill="none" stroke="midnightblue" d="M321.49,-291.44C360.32,-282.08 422.66,-267.06 464.92,-256.87"/>
<polygon fill="midnightblue" stroke="midnightblue" points="465.77,-260.26 474.67,-254.52 464.13,-253.46 465.77,-260.26"/>
</g>
<!-- Node18&#45;&gt;Node3 -->
<g id="edge21" class="edge">
<title>Node18&#45;&gt;Node3</title>
<path fill="none" stroke="midnightblue" d="M267.94,-179.44C249.43,-170.68 220.42,-156.94 199.14,-146.86"/>
<polygon fill="midnightblue" stroke="midnightblue" points="200.51,-143.63 189.98,-142.52 197.52,-149.96 200.51,-143.63"/>
</g>
<!-- Node19 -->
<g id="node19" class="node">
<title>Node19</title>
<g id="a_node19"><a xlink:title=" ">
<polygon fill="white" stroke="#bfbfbf" points="231,-123.5 231,-142.5 299,-142.5 299,-123.5 231,-123.5"/>
<text text-anchor="middle" x="265" y="-130.5" font-family="Helvetica,sans-Serif" font-size="10.00">forward_list</text>
</a>
</g>
</g>
<!-- Node18&#45;&gt;Node19 -->
<g id="edge20" class="edge">
<title>Node18&#45;&gt;Node19</title>
<path fill="none" stroke="midnightblue" d="M282.53,-179.08C279.69,-171.77 275.57,-161.18 272.04,-152.1"/>
<polygon fill="midnightblue" stroke="midnightblue" points="275.29,-150.8 268.4,-142.75 268.77,-153.34 275.29,-150.8"/>
</g>
<!-- Node20 -->
<g id="node20" class="node">
<title>Node20</title>
<g id="a_node20"><a xlink:title=" ">
<polygon fill="white" stroke="#bfbfbf" points="317,-123.5 317,-142.5 361,-142.5 361,-123.5 317,-123.5"/>
<text text-anchor="middle" x="339" y="-130.5" font-family="Helvetica,sans-Serif" font-size="10.00">vector</text>
</a>
</g>
</g>
<!-- Node18&#45;&gt;Node20 -->
<g id="edge22" class="edge">
<title>Node18&#45;&gt;Node20</title>
<path fill="none" stroke="midnightblue" d="M294.75,-179.08C302.47,-171.22 313.9,-159.57 323.22,-150.08"/>
<polygon fill="midnightblue" stroke="midnightblue" points="325.9,-152.34 330.41,-142.75 320.91,-147.44 325.9,-152.34"/>
</g>
<!-- Node21&#45;&gt;Node11 -->
<g id="edge24" class="edge">
<title>Node21&#45;&gt;Node11</title>
<path fill="none" stroke="midnightblue" d="M520.51,-235.37C543.22,-216.73 597.06,-172.53 625.56,-149.13"/>
<polygon fill="midnightblue" stroke="midnightblue" points="628.03,-151.64 633.53,-142.59 623.58,-146.23 628.03,-151.64"/>
</g>
<!-- Node21&#45;&gt;Node18 -->
<g id="edge25" class="edge">
<title>Node21&#45;&gt;Node18</title>
<path fill="none" stroke="midnightblue" d="M474.51,-235.44C435.68,-226.08 373.34,-211.06 331.08,-200.87"/>
<polygon fill="midnightblue" stroke="midnightblue" points="331.87,-197.46 321.33,-198.52 330.23,-204.26 331.87,-197.46"/>
</g>
<!-- Node22 -->
<g id="node22" class="node">
<title>Node22</title>
<g id="a_node22"><a xlink:href="valueconsumer_8h.html" target="_top" xlink:title=" ">
<polygon fill="white" stroke="black" points="754,-179.5 754,-198.5 846,-198.5 846,-179.5 754,-179.5"/>
<text text-anchor="middle" x="800" y="-186.5" font-family="Helvetica,sans-Serif" font-size="10.00">valueconsumer.h</text>
</a>
</g>
</g>
<!-- Node21&#45;&gt;Node22 -->
<g id="edge26" class="edge">
<title>Node21&#45;&gt;Node22</title>
<path fill="none" stroke="midnightblue" d="M554.04,-235.8C604.91,-226.33 688.68,-210.73 744.1,-200.41"/>
<polygon fill="midnightblue" stroke="midnightblue" points="744.91,-203.82 754.1,-198.55 743.63,-196.94 744.91,-203.82"/>
</g>
<!-- Node22&#45;&gt;Node5 -->
<g id="edge29" class="edge">
<title>Node22&#45;&gt;Node5</title>
<path fill="none" stroke="midnightblue" d="M805.12,-179.08C809.41,-171.61 815.66,-160.72 820.94,-151.52"/>
<polygon fill="midnightblue" stroke="midnightblue" points="824.03,-153.17 825.98,-142.75 817.96,-149.68 824.03,-153.17"/>
</g>
<!-- Node22&#45;&gt;Node11 -->
<g id="edge27" class="edge">
<title>Node22&#45;&gt;Node11</title>
<path fill="none" stroke="midnightblue" d="M775.28,-179.44C749.15,-170.4 707.74,-156.06 678.42,-145.92"/>
<polygon fill="midnightblue" stroke="midnightblue" points="679.2,-142.48 668.6,-142.52 676.91,-149.1 679.2,-142.48"/>
</g>
<!-- Node23 -->
<g id="node23" class="node">
<title>Node23</title>
<g id="a_node23"><a xlink:title=" ">
<polygon fill="white" stroke="#bfbfbf" points="732.5,-123.5 732.5,-142.5 781.5,-142.5 781.5,-123.5 732.5,-123.5"/>
<text text-anchor="middle" x="757" y="-130.5" font-family="Helvetica,sans-Serif" font-size="10.00">stdint.h</text>
</a>
</g>
</g>
<!-- Node22&#45;&gt;Node23 -->
<g id="edge28" class="edge">
<title>Node22&#45;&gt;Node23</title>
<path fill="none" stroke="midnightblue" d="M792.9,-179.08C786.76,-171.38 777.73,-160.03 770.26,-150.65"/>
<polygon fill="midnightblue" stroke="midnightblue" points="772.94,-148.39 763.97,-142.75 767.46,-152.75 772.94,-148.39"/>
</g>
<!-- Node24&#45;&gt;Node3 -->
<g id="edge34" class="edge">
<title>Node24&#45;&gt;Node3</title>
<path fill="none" stroke="midnightblue" d="M345.94,-354.65C287.78,-347.43 211.39,-333.85 191,-311 151.27,-266.47 160.67,-188.41 167.68,-152.74"/>
<polygon fill="midnightblue" stroke="midnightblue" points="171.15,-153.25 169.81,-142.74 164.3,-151.8 171.15,-153.25"/>
</g>
<!-- Node24&#45;&gt;Node8 -->
<g id="edge36" class="edge">
<title>Node24&#45;&gt;Node8</title>
<path fill="none" stroke="midnightblue" d="M413.97,-352.86C409.67,-333.73 400,-286.28 400,-246 400,-246 400,-246 400,-132 400,-95.71 400,-53.31 400,-29.56"/>
<polygon fill="midnightblue" stroke="midnightblue" points="403.5,-29.51 400,-19.51 396.5,-29.51 403.5,-29.51"/>
</g>
<!-- Node24&#45;&gt;Node11 -->
<g id="edge33" class="edge">
<title>Node24&#45;&gt;Node11</title>
<path fill="none" stroke="midnightblue" d="M416.63,-352.77C418.66,-330.62 426.76,-271.41 457,-235 495.63,-188.49 561.42,-160.14 603.78,-145.76"/>
<polygon fill="midnightblue" stroke="midnightblue" points="605.08,-149.01 613.49,-142.57 602.9,-142.36 605.08,-149.01"/>
</g>
<!-- Node24&#45;&gt;Node16 -->
<g id="edge35" class="edge">
<title>Node24&#45;&gt;Node16</title>
<path fill="none" stroke="midnightblue" d="M442.08,-352.98C476.16,-341.83 535.6,-322.4 570.41,-311.02"/>
<polygon fill="midnightblue" stroke="midnightblue" points="571.54,-314.33 579.96,-307.9 569.36,-307.68 571.54,-314.33"/>
</g>
<!-- Node24&#45;&gt;Node17 -->
<g id="edge37" class="edge">
<title>Node24&#45;&gt;Node17</title>
<path fill="none" stroke="midnightblue" d="M397.37,-352.98C375.56,-342.99 339.2,-326.35 313.98,-314.81"/>
<polygon fill="midnightblue" stroke="midnightblue" points="315.14,-311.49 304.59,-310.51 312.23,-317.85 315.14,-311.49"/>
</g>
<!-- Node24&#45;&gt;Node21 -->
<g id="edge39" class="edge">
<title>Node24&#45;&gt;Node21</title>
<path fill="none" stroke="midnightblue" d="M423.07,-352.82C438.65,-333.67 476.19,-287.54 496.47,-262.63"/>
<polygon fill="midnightblue" stroke="midnightblue" points="499.26,-264.75 502.85,-254.78 493.83,-260.33 499.26,-264.75"/>
</g>
<!-- Node24&#45;&gt;Node22 -->
<g id="edge38" class="edge">
<title>Node24&#45;&gt;Node22</title>
<path fill="none" stroke="midnightblue" d="M434.58,-352.97C463.64,-339.64 521.63,-313.12 571,-291 642.74,-258.87 727.45,-221.71 770.97,-202.68"/>
<polygon fill="midnightblue" stroke="midnightblue" points="772.6,-205.78 780.36,-198.57 769.8,-199.37 772.6,-205.78"/>
</g>
</g>
</svg>
