<?xml version="1.0" encoding="UTF-8" standalone="no"?>
<!DOCTYPE svg PUBLIC "-//W3C//DTD SVG 1.1//EN"
 "http://www.w3.org/Graphics/SVG/1.1/DTD/svg11.dtd">
<!-- Generated by graphviz version 2.49.3 (20211023.0002)
 -->
<!-- Title: src/sensesp/net/ws_client.h Pages: 1 -->
<svg width="810pt" height="397pt"
 viewBox="0.00 0.00 810.00 397.00" xmlns="http://www.w3.org/2000/svg" xmlns:xlink="http://www.w3.org/1999/xlink">
<g id="graph0" class="graph" transform="scale(1 1) rotate(0) translate(4 393)">
<title>src/sensesp/net/ws_client.h</title>
<polygon fill="white" stroke="transparent" points="-4,4 -4,-393 806,-393 806,4 -4,4"/>
<!-- Node1 -->
<g id="node1" class="node">
<title>Node1</title>
<g id="a_node1"><a xlink:title=" ">
<polygon fill="#bfbfbf" stroke="black" points="349,-358.5 349,-388.5 451,-388.5 451,-358.5 349,-358.5"/>
<text text-anchor="start" x="357" y="-376.5" font-family="Helvetica,sans-Serif" font-size="10.00">src/sensesp/net/ws</text>
<text text-anchor="middle" x="400" y="-365.5" font-family="Helvetica,sans-Serif" font-size="10.00">_client.h</text>
</a>
</g>
</g>
<!-- Node2 -->
<g id="node2" class="node">
<title>Node2</title>
<g id="a_node2"><a xlink:title=" ">
<polygon fill="white" stroke="#bfbfbf" points="0,-297 0,-316 106,-316 106,-297 0,-297"/>
<text text-anchor="middle" x="53" y="-304" font-family="Helvetica,sans-Serif" font-size="10.00">WebSocketsClient.h</text>
</a>
</g>
</g>
<!-- Node1&#45;&gt;Node2 -->
<g id="edge1" class="edge">
<title>Node1&#45;&gt;Node2</title>
<path fill="none" stroke="midnightblue" d="M348.81,-363.82C292.59,-354.15 199.7,-337.81 120,-322 113.87,-320.78 107.44,-319.46 101.08,-318.12"/>
<polygon fill="midnightblue" stroke="midnightblue" points="101.73,-314.68 91.22,-316.01 100.27,-321.52 101.73,-314.68"/>
</g>
<!-- Node3 -->
<g id="node3" class="node">
<title>Node3</title>
<g id="a_node3"><a xlink:title=" ">
<polygon fill="white" stroke="#bfbfbf" points="104.5,-123.5 104.5,-142.5 163.5,-142.5 163.5,-123.5 104.5,-123.5"/>
<text text-anchor="middle" x="134" y="-130.5" font-family="Helvetica,sans-Serif" font-size="10.00">functional</text>
</a>
</g>
</g>
<!-- Node1&#45;&gt;Node3 -->
<g id="edge2" class="edge">
<title>Node1&#45;&gt;Node3</title>
<path fill="none" stroke="midnightblue" d="M348.9,-369.04C284.37,-363.54 178.64,-350.37 153,-322 110.14,-274.58 121.52,-190.44 129.4,-152.94"/>
<polygon fill="midnightblue" stroke="midnightblue" points="132.88,-153.42 131.67,-142.9 126.05,-151.88 132.88,-153.42"/>
</g>
<!-- Node4 -->
<g id="node4" class="node">
<title>Node4</title>
<g id="a_node4"><a xlink:title=" ">
<polygon fill="white" stroke="#bfbfbf" points="738,-297 738,-316 768,-316 768,-297 738,-297"/>
<text text-anchor="middle" x="753" y="-304" font-family="Helvetica,sans-Serif" font-size="10.00">set</text>
</a>
</g>
</g>
<!-- Node1&#45;&gt;Node4 -->
<g id="edge3" class="edge">
<title>Node1&#45;&gt;Node4</title>
<path fill="none" stroke="midnightblue" d="M451.07,-369.42C515.86,-364.42 630.45,-351.88 724,-322 725.62,-321.48 727.27,-320.88 728.9,-320.23"/>
<polygon fill="midnightblue" stroke="midnightblue" points="730.36,-323.41 738.02,-316.09 727.47,-317.04 730.36,-323.41"/>
</g>
<!-- Node5 -->
<g id="node5" class="node">
<title>Node5</title>
<g id="a_node5"><a xlink:href="sensesp_8h.html" target="_top" xlink:title=" ">
<polygon fill="white" stroke="black" points="643,-123.5 643,-142.5 705,-142.5 705,-123.5 643,-123.5"/>
<text text-anchor="middle" x="674" y="-130.5" font-family="Helvetica,sans-Serif" font-size="10.00">sensesp.h</text>
</a>
</g>
</g>
<!-- Node1&#45;&gt;Node5 -->
<g id="edge4" class="edge">
<title>Node1&#45;&gt;Node5</title>
<path fill="none" stroke="midnightblue" d="M451.1,-364.12C488.76,-356.59 540.44,-343.37 582,-322 624.16,-300.32 635.81,-292.36 665,-255 686.98,-226.87 697.41,-214.12 691,-179 689.31,-169.76 685.83,-159.95 682.45,-151.85"/>
<polygon fill="midnightblue" stroke="midnightblue" points="685.63,-150.4 678.37,-142.69 679.24,-153.25 685.63,-150.4"/>
</g>
<!-- Node10 -->
<g id="node10" class="node">
<title>Node10</title>
<g id="a_node10"><a xlink:href="signalk__delta__queue_8h.html" target="_top" xlink:title=" ">
<polygon fill="white" stroke="black" points="428,-291.5 428,-321.5 550,-321.5 550,-291.5 428,-291.5"/>
<text text-anchor="start" x="436" y="-309.5" font-family="Helvetica,sans-Serif" font-size="10.00">sensesp/signalk/signalk</text>
<text text-anchor="middle" x="489" y="-298.5" font-family="Helvetica,sans-Serif" font-size="10.00">_delta_queue.h</text>
</a>
</g>
</g>
<!-- Node1&#45;&gt;Node10 -->
<g id="edge9" class="edge">
<title>Node1&#45;&gt;Node10</title>
<path fill="none" stroke="midnightblue" d="M419.31,-358.4C431.67,-349.37 447.9,-337.51 461.59,-327.52"/>
<polygon fill="midnightblue" stroke="midnightblue" points="463.71,-330.3 469.73,-321.58 459.59,-324.65 463.71,-330.3"/>
</g>
<!-- Node13 -->
<g id="node13" class="node">
<title>Node13</title>
<g id="a_node13"><a xlink:href="startable_8h.html" target="_top" xlink:title=" ">
<polygon fill="white" stroke="black" points="518,-235.5 518,-254.5 656,-254.5 656,-235.5 518,-235.5"/>
<text text-anchor="middle" x="587" y="-242.5" font-family="Helvetica,sans-Serif" font-size="10.00">sensesp/system/startable.h</text>
</a>
</g>
</g>
<!-- Node1&#45;&gt;Node13 -->
<g id="edge30" class="edge">
<title>Node1&#45;&gt;Node13</title>
<path fill="none" stroke="midnightblue" d="M451.04,-367.93C485.52,-362.31 529.89,-349.81 559,-322 574.93,-306.78 581.85,-281.72 584.82,-264.57"/>
<polygon fill="midnightblue" stroke="midnightblue" points="588.29,-265.02 586.26,-254.62 581.36,-264.02 588.29,-265.02"/>
</g>
<!-- Node15 -->
<g id="node15" class="node">
<title>Node15</title>
<g id="a_node15"><a xlink:href="configurable_8h.html" target="_top" xlink:title=" ">
<polygon fill="white" stroke="black" points="466,-179.5 466,-198.5 620,-198.5 620,-179.5 466,-179.5"/>
<text text-anchor="middle" x="543" y="-186.5" font-family="Helvetica,sans-Serif" font-size="10.00">sensesp/system/configurable.h</text>
</a>
</g>
</g>
<!-- Node1&#45;&gt;Node15 -->
<g id="edge14" class="edge">
<title>Node1&#45;&gt;Node15</title>
<path fill="none" stroke="midnightblue" d="M401.45,-358.35C403.58,-341.6 408.5,-313.19 419,-291 432.42,-262.63 438.23,-255.49 462,-235 477.13,-221.95 496.65,-210.97 512.74,-203.12"/>
<polygon fill="midnightblue" stroke="midnightblue" points="514.68,-206.08 522.24,-198.65 511.7,-199.74 514.68,-206.08"/>
</g>
<!-- Node17 -->
<g id="node17" class="node">
<title>Node17</title>
<g id="a_node17"><a xlink:href="observablevalue_8h.html" target="_top" xlink:title=" ">
<polygon fill="white" stroke="black" points="162,-297 162,-316 334,-316 334,-297 162,-297"/>
<text text-anchor="middle" x="248" y="-304" font-family="Helvetica,sans-Serif" font-size="10.00">sensesp/system/observablevalue.h</text>
</a>
</g>
</g>
<!-- Node1&#45;&gt;Node17 -->
<g id="edge18" class="edge">
<title>Node1&#45;&gt;Node17</title>
<path fill="none" stroke="midnightblue" d="M367.02,-358.4C340.23,-346.94 302.81,-330.94 277.12,-319.95"/>
<polygon fill="midnightblue" stroke="midnightblue" points="278.46,-316.72 267.89,-316.01 275.71,-323.16 278.46,-316.72"/>
</g>
<!-- Node21 -->
<g id="node21" class="node">
<title>Node21</title>
<g id="a_node21"><a xlink:href="valueproducer_8h.html" target="_top" xlink:title=" ">
<polygon fill="white" stroke="black" points="249,-235.5 249,-254.5 337,-254.5 337,-235.5 249,-235.5"/>
<text text-anchor="middle" x="293" y="-242.5" font-family="Helvetica,sans-Serif" font-size="10.00">valueproducer.h</text>
</a>
</g>
</g>
<!-- Node1&#45;&gt;Node21 -->
<g id="edge31" class="edge">
<title>Node1&#45;&gt;Node21</title>
<path fill="none" stroke="midnightblue" d="M391.42,-358.23C380.98,-341.37 362.33,-312.86 343,-291 333.55,-280.31 321.72,-269.57 311.95,-261.27"/>
<polygon fill="midnightblue" stroke="midnightblue" points="313.93,-258.36 304,-254.66 309.45,-263.74 313.93,-258.36"/>
</g>
<!-- Node6 -->
<g id="node6" class="node">
<title>Node6</title>
<g id="a_node6"><a xlink:title=" ">
<polygon fill="white" stroke="#bfbfbf" points="602,-62 602,-81 672,-81 672,-62 602,-62"/>
<text text-anchor="middle" x="637" y="-69" font-family="Helvetica,sans-Serif" font-size="10.00">ReactESP.h</text>
</a>
</g>
</g>
<!-- Node5&#45;&gt;Node6 -->
<g id="edge5" class="edge">
<title>Node5&#45;&gt;Node6</title>
<path fill="none" stroke="midnightblue" d="M668.7,-123.48C663.26,-114.73 654.64,-100.87 647.76,-89.81"/>
<polygon fill="midnightblue" stroke="midnightblue" points="650.54,-87.65 642.29,-81.01 644.6,-91.35 650.54,-87.65"/>
</g>
<!-- Node7 -->
<g id="node7" class="node">
<title>Node7</title>
<g id="a_node7"><a xlink:href="local__debug_8h.html" target="_top" xlink:title=" ">
<polygon fill="white" stroke="black" points="690,-56.5 690,-86.5 802,-86.5 802,-56.5 690,-56.5"/>
<text text-anchor="start" x="698" y="-74.5" font-family="Helvetica,sans-Serif" font-size="10.00">sensesp/system/local</text>
<text text-anchor="middle" x="746" y="-63.5" font-family="Helvetica,sans-Serif" font-size="10.00">_debug.h</text>
</a>
</g>
</g>
<!-- Node5&#45;&gt;Node7 -->
<g id="edge6" class="edge">
<title>Node5&#45;&gt;Node7</title>
<path fill="none" stroke="midnightblue" d="M684.32,-123.48C693.88,-115.57 708.51,-103.48 721.11,-93.07"/>
<polygon fill="midnightblue" stroke="midnightblue" points="723.55,-95.59 729.03,-86.52 719.09,-90.2 723.55,-95.59"/>
</g>
<!-- Node8 -->
<g id="node8" class="node">
<title>Node8</title>
<g id="a_node8"><a xlink:title=" ">
<polygon fill="white" stroke="#bfbfbf" points="595.5,-0.5 595.5,-19.5 654.5,-19.5 654.5,-0.5 595.5,-0.5"/>
<text text-anchor="middle" x="625" y="-7.5" font-family="Helvetica,sans-Serif" font-size="10.00">Arduino.h</text>
</a>
</g>
</g>
<!-- Node7&#45;&gt;Node8 -->
<g id="edge7" class="edge">
<title>Node7&#45;&gt;Node8</title>
<path fill="none" stroke="midnightblue" d="M717.32,-56.4C697.48,-46.64 671.24,-33.74 651.81,-24.18"/>
<polygon fill="midnightblue" stroke="midnightblue" points="653.12,-20.93 642.61,-19.66 650.04,-27.21 653.12,-20.93"/>
</g>
<!-- Node9 -->
<g id="node9" class="node">
<title>Node9</title>
<g id="a_node9"><a xlink:title=" ">
<polygon fill="white" stroke="#bfbfbf" points="723.5,-0.5 723.5,-19.5 768.5,-19.5 768.5,-0.5 723.5,-0.5"/>
<text text-anchor="middle" x="746" y="-7.5" font-family="Helvetica,sans-Serif" font-size="10.00">Print.h</text>
</a>
</g>
</g>
<!-- Node7&#45;&gt;Node9 -->
<g id="edge8" class="edge">
<title>Node7&#45;&gt;Node9</title>
<path fill="none" stroke="midnightblue" d="M746,-56.4C746,-48.47 746,-38.46 746,-29.86"/>
<polygon fill="midnightblue" stroke="midnightblue" points="749.5,-29.66 746,-19.66 742.5,-29.66 749.5,-29.66"/>
</g>
<!-- Node11 -->
<g id="node11" class="node">
<title>Node11</title>
<g id="a_node11"><a xlink:title=" ">
<polygon fill="white" stroke="#bfbfbf" points="398,-123.5 398,-142.5 478,-142.5 478,-123.5 398,-123.5"/>
<text text-anchor="middle" x="438" y="-130.5" font-family="Helvetica,sans-Serif" font-size="10.00">ArduinoJson.h</text>
</a>
</g>
</g>
<!-- Node10&#45;&gt;Node11 -->
<g id="edge10" class="edge">
<title>Node10&#45;&gt;Node11</title>
<path fill="none" stroke="midnightblue" d="M480.02,-291.44C474.1,-281.58 466.62,-267.92 462,-255 449.49,-220.01 442.91,-176.86 439.97,-152.69"/>
<polygon fill="midnightblue" stroke="midnightblue" points="443.45,-152.28 438.84,-142.74 436.49,-153.07 443.45,-152.28"/>
</g>
<!-- Node12 -->
<g id="node12" class="node">
<title>Node12</title>
<g id="a_node12"><a xlink:title=" ">
<polygon fill="white" stroke="#bfbfbf" points="470.5,-235.5 470.5,-254.5 499.5,-254.5 499.5,-235.5 470.5,-235.5"/>
<text text-anchor="middle" x="485" y="-242.5" font-family="Helvetica,sans-Serif" font-size="10.00">list</text>
</a>
</g>
</g>
<!-- Node10&#45;&gt;Node12 -->
<g id="edge11" class="edge">
<title>Node10&#45;&gt;Node12</title>
<path fill="none" stroke="midnightblue" d="M488.05,-291.4C487.52,-283.47 486.85,-273.46 486.27,-264.86"/>
<polygon fill="midnightblue" stroke="midnightblue" points="489.74,-264.4 485.58,-254.66 482.76,-264.87 489.74,-264.4"/>
</g>
<!-- Node10&#45;&gt;Node13 -->
<g id="edge12" class="edge">
<title>Node10&#45;&gt;Node13</title>
<path fill="none" stroke="midnightblue" d="M512.22,-291.4C527.79,-281.95 548.2,-269.56 563.76,-260.11"/>
<polygon fill="midnightblue" stroke="midnightblue" points="566.01,-262.84 572.74,-254.66 562.38,-256.86 566.01,-262.84"/>
</g>
<!-- Node14 -->
<g id="node14" class="node">
<title>Node14</title>
<g id="a_node14"><a xlink:title=" ">
<polygon fill="white" stroke="#bfbfbf" points="638,-179.5 638,-198.5 682,-198.5 682,-179.5 638,-179.5"/>
<text text-anchor="middle" x="660" y="-186.5" font-family="Helvetica,sans-Serif" font-size="10.00">queue</text>
</a>
</g>
</g>
<!-- Node13&#45;&gt;Node14 -->
<g id="edge13" class="edge">
<title>Node13&#45;&gt;Node14</title>
<path fill="none" stroke="midnightblue" d="M598.73,-235.32C609.84,-227.11 626.74,-214.6 639.98,-204.81"/>
<polygon fill="midnightblue" stroke="midnightblue" points="642.1,-207.59 648.06,-198.83 637.94,-201.97 642.1,-207.59"/>
</g>
<!-- Node15&#45;&gt;Node8 -->
<g id="edge17" class="edge">
<title>Node15&#45;&gt;Node8</title>
<path fill="none" stroke="midnightblue" d="M545.44,-179.33C551.69,-157.74 569.47,-100.11 593,-56 598.3,-46.06 605.48,-35.77 611.69,-27.54"/>
<polygon fill="midnightblue" stroke="midnightblue" points="614.54,-29.57 617.92,-19.53 609.02,-25.27 614.54,-29.57"/>
</g>
<!-- Node15&#45;&gt;Node11 -->
<g id="edge15" class="edge">
<title>Node15&#45;&gt;Node11</title>
<path fill="none" stroke="midnightblue" d="M526.13,-179.32C509.29,-170.66 483.19,-157.24 463.76,-147.25"/>
<polygon fill="midnightblue" stroke="midnightblue" points="465.32,-144.12 454.83,-142.65 462.12,-150.34 465.32,-144.12"/>
</g>
<!-- Node16 -->
<g id="node16" class="node">
<title>Node16</title>
<g id="a_node16"><a xlink:title=" ">
<polygon fill="white" stroke="#bfbfbf" points="510,-123.5 510,-142.5 546,-142.5 546,-123.5 510,-123.5"/>
<text text-anchor="middle" x="528" y="-130.5" font-family="Helvetica,sans-Serif" font-size="10.00">map</text>
</a>
</g>
</g>
<!-- Node15&#45;&gt;Node16 -->
<g id="edge16" class="edge">
<title>Node15&#45;&gt;Node16</title>
<path fill="none" stroke="midnightblue" d="M540.52,-179.08C538.51,-171.85 535.61,-161.41 533.11,-152.4"/>
<polygon fill="midnightblue" stroke="midnightblue" points="536.48,-151.45 530.43,-142.75 529.74,-153.32 536.48,-151.45"/>
</g>
<!-- Node18 -->
<g id="node18" class="node">
<title>Node18</title>
<g id="a_node18"><a xlink:href="observable_8h.html" target="_top" xlink:title=" ">
<polygon fill="white" stroke="black" points="184,-179.5 184,-198.5 258,-198.5 258,-179.5 184,-179.5"/>
<text text-anchor="middle" x="221" y="-186.5" font-family="Helvetica,sans-Serif" font-size="10.00">observable.h</text>
</a>
</g>
</g>
<!-- Node17&#45;&gt;Node18 -->
<g id="edge19" class="edge">
<title>Node17&#45;&gt;Node18</title>
<path fill="none" stroke="midnightblue" d="M245.97,-296.82C241.61,-278.17 231.27,-233.94 225.36,-208.63"/>
<polygon fill="midnightblue" stroke="midnightblue" points="228.74,-207.72 223.05,-198.78 221.92,-209.32 228.74,-207.72"/>
</g>
<!-- Node17&#45;&gt;Node21 -->
<g id="edge23" class="edge">
<title>Node17&#45;&gt;Node21</title>
<path fill="none" stroke="midnightblue" d="M254.45,-296.98C261.2,-288.05 271.97,-273.81 280.41,-262.64"/>
<polygon fill="midnightblue" stroke="midnightblue" points="283.32,-264.6 286.56,-254.51 277.74,-260.37 283.32,-264.6"/>
</g>
<!-- Node18&#45;&gt;Node3 -->
<g id="edge21" class="edge">
<title>Node18&#45;&gt;Node3</title>
<path fill="none" stroke="midnightblue" d="M207.02,-179.32C193.45,-170.9 172.62,-157.97 156.68,-148.07"/>
<polygon fill="midnightblue" stroke="midnightblue" points="158.29,-144.95 147.94,-142.65 154.59,-150.9 158.29,-144.95"/>
</g>
<!-- Node19 -->
<g id="node19" class="node">
<title>Node19</title>
<g id="a_node19"><a xlink:title=" ">
<polygon fill="white" stroke="#bfbfbf" points="182,-123.5 182,-142.5 250,-142.5 250,-123.5 182,-123.5"/>
<text text-anchor="middle" x="216" y="-130.5" font-family="Helvetica,sans-Serif" font-size="10.00">forward_list</text>
</a>
</g>
</g>
<!-- Node18&#45;&gt;Node19 -->
<g id="edge20" class="edge">
<title>Node18&#45;&gt;Node19</title>
<path fill="none" stroke="midnightblue" d="M220.17,-179.08C219.52,-172.01 218.58,-161.86 217.76,-152.99"/>
<polygon fill="midnightblue" stroke="midnightblue" points="221.22,-152.39 216.81,-142.75 214.25,-153.03 221.22,-152.39"/>
</g>
<!-- Node20 -->
<g id="node20" class="node">
<title>Node20</title>
<g id="a_node20"><a xlink:title=" ">
<polygon fill="white" stroke="#bfbfbf" points="268,-123.5 268,-142.5 312,-142.5 312,-123.5 268,-123.5"/>
<text text-anchor="middle" x="290" y="-130.5" font-family="Helvetica,sans-Serif" font-size="10.00">vector</text>
</a>
</g>
</g>
<!-- Node18&#45;&gt;Node20 -->
<g id="edge22" class="edge">
<title>Node18&#45;&gt;Node20</title>
<path fill="none" stroke="midnightblue" d="M232.09,-179.32C242.49,-171.18 258.26,-158.84 270.72,-149.09"/>
<polygon fill="midnightblue" stroke="midnightblue" points="272.99,-151.75 278.71,-142.83 268.68,-146.24 272.99,-151.75"/>
</g>
<!-- Node21&#45;&gt;Node11 -->
<g id="edge24" class="edge">
<title>Node21&#45;&gt;Node11</title>
<path fill="none" stroke="midnightblue" d="M292.67,-235.22C292.64,-221.48 294.61,-194.82 309,-179 320.46,-166.4 359.68,-153.77 391.89,-145.11"/>
<polygon fill="midnightblue" stroke="midnightblue" points="392.84,-148.48 401.62,-142.56 391.06,-141.71 392.84,-148.48"/>
</g>
<!-- Node21&#45;&gt;Node18 -->
<g id="edge25" class="edge">
<title>Node21&#45;&gt;Node18</title>
<path fill="none" stroke="midnightblue" d="M281.43,-235.32C270.58,-227.18 254.12,-214.84 241.12,-205.09"/>
<polygon fill="midnightblue" stroke="midnightblue" points="242.88,-202.03 232.78,-198.83 238.68,-207.63 242.88,-202.03"/>
</g>
<!-- Node22 -->
<g id="node22" class="node">
<title>Node22</title>
<g id="a_node22"><a xlink:href="valueconsumer_8h.html" target="_top" xlink:title=" ">
<polygon fill="white" stroke="black" points="318,-179.5 318,-198.5 410,-198.5 410,-179.5 318,-179.5"/>
<text text-anchor="middle" x="364" y="-186.5" font-family="Helvetica,sans-Serif" font-size="10.00">valueconsumer.h</text>
</a>
</g>
</g>
<!-- Node21&#45;&gt;Node22 -->
<g id="edge26" class="edge">
<title>Node21&#45;&gt;Node22</title>
<path fill="none" stroke="midnightblue" d="M304.41,-235.32C315.11,-227.18 331.34,-214.84 344.16,-205.09"/>
<polygon fill="midnightblue" stroke="midnightblue" points="346.54,-207.67 352.39,-198.83 342.31,-202.1 346.54,-207.67"/>
</g>
<!-- Node22&#45;&gt;Node5 -->
<g id="edge29" class="edge">
<title>Node22&#45;&gt;Node5</title>
<path fill="none" stroke="midnightblue" d="M410.08,-179.97C470.38,-169.47 575.16,-151.22 632.89,-141.16"/>
<polygon fill="midnightblue" stroke="midnightblue" points="633.51,-144.61 642.77,-139.44 632.31,-137.71 633.51,-144.61"/>
</g>
<!-- Node22&#45;&gt;Node11 -->
<g id="edge27" class="edge">
<title>Node22&#45;&gt;Node11</title>
<path fill="none" stroke="midnightblue" d="M375.89,-179.32C387.15,-171.11 404.29,-158.6 417.71,-148.81"/>
<polygon fill="midnightblue" stroke="midnightblue" points="419.88,-151.56 425.89,-142.83 415.75,-145.9 419.88,-151.56"/>
</g>
<!-- Node23 -->
<g id="node23" class="node">
<title>Node23</title>
<g id="a_node23"><a xlink:title=" ">
<polygon fill="white" stroke="#bfbfbf" points="330.5,-123.5 330.5,-142.5 379.5,-142.5 379.5,-123.5 330.5,-123.5"/>
<text text-anchor="middle" x="355" y="-130.5" font-family="Helvetica,sans-Serif" font-size="10.00">stdint.h</text>
</a>
</g>
</g>
<!-- Node22&#45;&gt;Node23 -->
<g id="edge28" class="edge">
<title>Node22&#45;&gt;Node23</title>
<path fill="none" stroke="midnightblue" d="M362.51,-179.08C361.32,-171.93 359.61,-161.64 358.12,-152.69"/>
<polygon fill="midnightblue" stroke="midnightblue" points="361.55,-152.04 356.46,-142.75 354.65,-153.19 361.55,-152.04"/>
</g>
</g>
</svg>
